<svg id="Layer_1" data-name="Layer 1" xmlns="http://www.w3.org/2000/svg" viewBox="0 0 122.88 101.54"><defs><style>.cls-1{fill:#ed1b24;fill-rule:evenodd;}</style></defs><title>broken-heart-symbol</title><path class="cls-1" d="M66.45,12C72.23,6,77.7,1.31,87.33.21,110.16-2.41,131.15,21,119.62,44c-3.28,6.56-10,14.35-17.35,22-8.11,8.4-17.08,16.62-23.37,22.86l-6.8,6.74L64.76,85.22l8.57-12.08-7.09-6.45,5.89-7.76L64,47.41l8.17-11.52-5.89-7.76,7.09-6.45L66.45,12ZM55.81,101.54l-10-9.67C28.73,75.46.94,54.8,0,29.21-.62,11.28,13.53-.21,29.8,0,43.64.18,49.85,6.74,58.57,15.31l3.49,4.92-2,1.83h0l-.65.61-4.54,4.13.06.08,0,0,2.64,3.47,1.65,2.24,0,0,2.39,3.15L53.56,47l-.07.06v0l.07.06,8,11.28-2.39,3.15,0,0L57.5,63.81l-2.64,3.48,0,0-.06.08,4.54,4.13.65.61h0l2,1.83L54.34,84.86l0,0,0,0,7.73,10.89-2,1.83h0l-.65.61-3.58,3.26Z"/></svg>