<svg id="Layer_1" data-name="Layer 1" xmlns="http://www.w3.org/2000/svg" viewBox="0 0 122.88 76.77"><title>care</title><path d="M69.93,14a7,7,0,0,1,2,.28,6.6,6.6,0,0,1,1.29.53V13.63A6.68,6.68,0,0,1,73.7,11a6.93,6.93,0,0,1,1.49-2.23A6.77,6.77,0,0,1,77.42,7.3,6.69,6.69,0,0,1,80,6.77h0a6.76,6.76,0,0,1,2,.32,6.86,6.86,0,0,1,1.36.6V6.85A6.92,6.92,0,0,1,84,4.23,7,7,0,0,1,85.46,2h0A6.74,6.74,0,0,1,87.68.52,6.83,6.83,0,0,1,90.29,0a6.85,6.85,0,0,1,4.84,2,7,7,0,0,1,1.49,2.23,6.73,6.73,0,0,1,.52,2.62v.86a7.11,7.11,0,0,1,1.33-.57,6.71,6.71,0,0,1,4.63.22,6.86,6.86,0,0,1,4.24,6.33V44.13q.06.4.09.81a7.87,7.87,0,0,1,0,.84v1.09c.72-.68,1.39-1.35,1.84-1.8l.41-.4A10.28,10.28,0,0,1,113.86,42a7,7,0,0,1,4.35-.05,6.18,6.18,0,0,1,1.56.73,6.07,6.07,0,0,1,1.31,1.11,6.65,6.65,0,0,1,1,1.43,6.83,6.83,0,0,1,.6,1.62,8,8,0,0,1-.4,4.81,11.83,11.83,0,0,1-3.19,4.4l-.07.07c-.75.75-1.75,1.83-2.93,3.09-4.93,5.29-12.89,13.81-18,15.86-4.14,1.65-10.48,2.1-16.41,1.29-5.3-.72-10.3-2.45-13.15-5.25l2.55-2.53c2.32,2.25,6.64,3.65,11.26,4.24,5.3.67,11,.28,14.41-1.09,4.53-1.8,12.92-10.86,17.4-15.67,1-1.09,1.81-1.95,2.34-2.49l.17-.17.05,0a8.23,8.23,0,0,0,2.14-2.83,4.5,4.5,0,0,0,.33-2.85,3.9,3.9,0,0,0-.29-.79,3.53,3.53,0,0,0-.46-.68h0a3,3,0,0,0-.58-.49,2.83,2.83,0,0,0-.7-.34h0a3.66,3.66,0,0,0-2.34.11,7.21,7.21,0,0,0-2.5,1.7c-.42.43-1.57,1.57-2.71,2.64-.57.54-1.15,1.07-1.69,1.5a9.79,9.79,0,0,1-1.22.89,1.56,1.56,0,0,1-.47.22,1.75,1.75,0,0,1-.51.08.31.31,0,0,1-.17-.05l-1.15-.56a.32.32,0,0,1-.18-.27l-.35-5.87c0-5.78,0-10.91,0-16,0-5.45,0-10.92,0-16.06a3.19,3.19,0,0,0-.24-1.24,3.42,3.42,0,0,0-.71-1.05,3.3,3.3,0,0,0-1-.71,3.38,3.38,0,0,0-1.24-.24,3.32,3.32,0,0,0-2.29.95,3.27,3.27,0,0,0-1,2.29V39.3a.32.32,0,0,1-.32.32H93.85a.32.32,0,0,1-.32-.32V6.86a3.19,3.19,0,0,0-.25-1.24,3,3,0,0,0-.7-1,3.19,3.19,0,0,0-1.06-.71,3.1,3.1,0,0,0-1.23-.24,3.19,3.19,0,0,0-1.24.24,3.42,3.42,0,0,0-1,.71,3.3,3.3,0,0,0-.71,1,3.19,3.19,0,0,0-.24,1.24V39.3a.32.32,0,0,1-.32.32H86A15.9,15.9,0,0,0,84,36.22c-.24-.33-.5-.65-.77-1V13.63A3.38,3.38,0,0,0,83,12.39a3.42,3.42,0,0,0-.71-1.05A3.27,3.27,0,0,0,80,10.39a3.27,3.27,0,0,0-1.24.25,3.25,3.25,0,0,0-2,3v17a16.49,16.49,0,0,0-3.61-1V20.86a3.14,3.14,0,0,0-.25-1.23,3.32,3.32,0,0,0-.7-1.06,3.26,3.26,0,0,0-1.06-.7,3.14,3.14,0,0,0-1.23-.25,3.19,3.19,0,0,0-1.24.25,3,3,0,0,0-1,.7,3.19,3.19,0,0,0-.71,1.06,3.14,3.14,0,0,0-.24,1.23v9.07a13.94,13.94,0,0,0-3.61,1.41V20.86a6.87,6.87,0,0,1,4.24-6.33A6.77,6.77,0,0,1,69.93,14ZM61.24,41c2.57-2.68,4.37-5,8.32-5.44,7.42-.85,14.25,6.74,10.5,14.22a33.05,33.05,0,0,1-5.64,7.15c-2.64,2.73-5.55,5.41-7.6,7.44l-5.57,5.53-4.61-4.44C51.1,60.1,42.06,53.38,41.76,45.06c-.2-5.83,4.4-9.57,9.69-9.5,4.73.06,6.72,2.41,9.79,5.41ZM51,14.29A7,7,0,0,1,53,14a6.77,6.77,0,0,1,2.62.52,6.86,6.86,0,0,1,4.24,6.33v10.9a13.43,13.43,0,0,0-3.62-1.6v-9.3a3.14,3.14,0,0,0-.24-1.23,3.19,3.19,0,0,0-.71-1.06,3,3,0,0,0-1-.7,3.24,3.24,0,0,0-3.51.69h0a3.27,3.27,0,0,0-1,2.29v8.77a16.8,16.8,0,0,0-3.61.76V13.63a3.24,3.24,0,0,0-5.53-2.29,3.42,3.42,0,0,0-.71,1.05,3.38,3.38,0,0,0-.24,1.24V34.54a14.48,14.48,0,0,0-3,5.08h-.45a.32.32,0,0,1-.32-.32V6.86a3.19,3.19,0,0,0-.24-1.24,3.3,3.3,0,0,0-.71-1,3.42,3.42,0,0,0-1-.71,3.19,3.19,0,0,0-1.24-.24,3.1,3.1,0,0,0-1.23.24,3.19,3.19,0,0,0-1.06.71,3.48,3.48,0,0,0-.7,1v0a3.19,3.19,0,0,0-.25,1.24V39.31a.32.32,0,0,1-.32.32H26a.32.32,0,0,1-.32-.32V13.71a3.19,3.19,0,0,0-.25-1.24,3,3,0,0,0-.69-1v0a3.18,3.18,0,0,0-1-.7h0a3.18,3.18,0,0,0-1.23-.25,3.38,3.38,0,0,0-1.24.24,3.3,3.3,0,0,0-1,.71,3.42,3.42,0,0,0-.71,1.05,3.19,3.19,0,0,0-.24,1.24c0,5.14,0,10.61,0,16.06,0,5.11,0,10.24,0,16l-.35,5.87a.34.34,0,0,1-.18.27l-1.15.56a.31.31,0,0,1-.17,0,1.75,1.75,0,0,1-.51-.08,1.84,1.84,0,0,1-.47-.22A9.1,9.1,0,0,1,15,51.35c-.54-.43-1.12-1-1.69-1.49-1.14-1.08-2.29-2.22-2.71-2.65a7.07,7.07,0,0,0-2.5-1.7,3.63,3.63,0,0,0-2.35-.12,2.67,2.67,0,0,0-.7.34,2.84,2.84,0,0,0-.59.5h0a3.53,3.53,0,0,0-.46.68,3.9,3.9,0,0,0-.29.79,4.5,4.5,0,0,0,.33,2.85,8.23,8.23,0,0,0,2.14,2.83l0,0,.17.17c.53.53,1.34,1.4,2.34,2.48,4.47,4.82,12.87,13.87,17.41,15.68,3.45,1.37,9.11,1.76,14.41,1.09,4.43-.57,8.58-1.87,11-4l.95.89,1.66,1.6c-2.89,2.66-7.75,4.32-12.91,5-5.93.81-12.27.36-16.42-1.29-5.13-2-13.09-10.57-18-15.86C5.61,58,4.61,56.89,3.86,56.14l-.07-.07A11.83,11.83,0,0,1,.6,51.67a8,8,0,0,1-.4-4.81,7.07,7.07,0,0,1,.6-1.63,6.84,6.84,0,0,1,1-1.42A6.07,6.07,0,0,1,3.11,42.7,6.58,6.58,0,0,1,4.67,42,7.12,7.12,0,0,1,9,42a10.28,10.28,0,0,1,4.14,2.65l.41.4c.45.45,1.12,1.12,1.84,1.8V45.78a7.87,7.87,0,0,1,0-.84q0-.4.09-.81V13.7a6.87,6.87,0,0,1,4.24-6.33,6.68,6.68,0,0,1,4.62-.22,6.92,6.92,0,0,1,1.34.57V6.86a6.73,6.73,0,0,1,.52-2.62A7,7,0,0,1,27.75,2,6.82,6.82,0,0,1,37.4,2h0a7,7,0,0,1,1.49,2.23,6.92,6.92,0,0,1,.52,2.62v.84a6.86,6.86,0,0,1,1.36-.6,6.76,6.76,0,0,1,2.05-.32h0a6.69,6.69,0,0,1,2.61.53A6.87,6.87,0,0,1,49.18,11a6.68,6.68,0,0,1,.52,2.61v1.19A6.6,6.6,0,0,1,51,14.29Z"/></svg>