<?xml version="1.0" encoding="utf-8"?><svg version="1.1" id="Layer_1" xmlns="http://www.w3.org/2000/svg" xmlns:xlink="http://www.w3.org/1999/xlink" x="0px" y="0px" viewBox="0 0 87.49 122.88" style="enable-background:new 0 0 87.49 122.88" xml:space="preserve"><style type="text/css">.st0{fill-rule:evenodd;clip-rule:evenodd;}</style><g><path class="st0" d="M10.75,28.49C2.21,30.3,3.73,43.08,4.77,53.77c1.11,11.44-9.51,17.29-2.15,28.92l3.05,33.77 c0.08,8.33,11.29,8.28,12.51,1.41c2.04-14.55-0.89-23.17,3.8-31.68c3.34-6.08,4.85-14.51,5.56-21.88 c-0.84-0.19-1.64-0.51-2.38-0.95c-1.41-0.85-2.58-2.13-3.27-3.75l-8.77-15.22l-0.08-0.14l-0.09-0.2l-0.01,0 c-0.59-1.46-0.72-3-0.45-4.45c-0.36-0.27-0.69-0.56-1-0.88c-1.42-1.48-2.28-3.5-2.24-5.72C9.29,31.32,9.84,29.76,10.75,28.49 L10.75,28.49z M25.14,0c5.31,0,9.86,3.23,11.8,7.83C38.88,3.23,43.44,0,48.74,0c7.07,0,12.81,5.73,12.81,12.81 c0,7.07-5.73,12.81-12.81,12.81c-5.31,0-9.86-3.23-11.8-7.83c-1.94,4.6-6.5,7.83-11.8,7.83c-7.07,0-12.81-5.73-12.81-12.81 C12.33,5.73,18.07,0,25.14,0L25.14,0z M87.48,16.16C77.2,21.24,74.52,5.13,63.31,6.66c0.76,2.28,1.76,4.45,3.04,6.5 c2.66,4.27,6.11,7.85,11.4,8.36C81.13,21.85,87.74,20.72,87.48,16.16L87.48,16.16z M17.17,38.43c-2.91-0.06-5.23-2.46-5.17-5.38 c0.06-2.91,2.46-5.23,5.38-5.17l26.4,0.72c0.12,0,0.24,0.01,0.36,0.02c2.47-0.78,6.74-0.61,14.11-0.35 c6.01,0.21,8.04,4.79,8.48,10.8h0l12.83,36.67c-1.38,3.6-5.87,6.39-11.5,8.05l-2.95,32.49c-0.08,8.33-11.29,8.27-12.51,1.41 c-0.8-14.86,2.5-27.27-3.8-32.7l-0.12-0.1c-5.62-1.05-10.34-3.47-12.4-7.54l1.58-13.19l20.62-0.78c2.21-0.07,4.18-1.03,5.58-2.52 c1.34-1.43,2.17-3.36,2.17-5.46l0.01-0.2h-0.01l0-0.09c-0.07-2.22-1.03-4.19-2.52-5.59c-1.43-1.35-3.36-2.17-5.46-2.17l-0.2-0.01 v0.01c-5.9,0-12.16,0.36-18.25,0.65l0.75-6.21l0.07,0l0.3,0.01c0.86,0.02,1.73,0.05,2.59,0.08c0.18,0,0.36,0,0.54-0.01v-2.75 c-0.16,0.01-0.32,0.02-0.48,0.01L17.17,38.43L17.17,38.43z M15.5,43.02c-0.28-0.7-0.41-1.43-0.39-2.14 c0.62,0.17,1.27,0.27,1.94,0.29c3.25,0.13,6.5,0.23,9.76,0.31l5.98,9.58l25.26-0.96c2.91-0.09,5.35,2.2,5.44,5.11 c0.09,2.91-2.2,5.35-5.11,5.44l-28.54,1.07c-2.29,0.24-4.55-1.04-5.46-3.27L15.5,43.02L15.5,43.02z"/></g></svg>