<?xml version="1.0" encoding="utf-8"?><svg version="1.1" id="Layer_1" xmlns="http://www.w3.org/2000/svg" xmlns:xlink="http://www.w3.org/1999/xlink" x="0px" y="0px" viewBox="0 0 122.88 63.69" style="enable-background:new 0 0 122.88 63.69" xml:space="preserve"><style type="text/css">.st0{fill-rule:evenodd;clip-rule:evenodd;}</style><g><path class="st0" d="M65.33,2.9c1.4-1.45,2.72-2.59,5.06-2.86c5.53-0.64,10.62,5.03,7.83,10.6c-0.8,1.59-2.41,3.48-4.2,5.33 c-1.97,2.03-4.14,4.03-5.66,5.54l-1.65,1.63l-1.78-2.51L67,17.72l-1.72-1.56l1.43-1.88l-1.98-2.79l1.98-2.79l-1.43-1.88L67,5.25 L65.33,2.9L65.33,2.9z M80.52,35.58l2.87-0.08l1.4-0.04c0.36,0.52,0.72,1.02,1.07,1.49c0.37,0.88,0.32,1.8-0.03,2.63 c-0.41,0.97-1.22,1.82-2.25,2.35l-0.02,0.01c-3.86,1.5-7.66,3.02-10.58,4.85c-6.57,4.12-6.63,9.82-7.16,16.89h57.05 c-0.52-7.07-0.59-12.77-7.16-16.89c-2.93-1.84-6.73-3.36-10.6-4.86c-0.03-0.03-0.06-0.06-0.1-0.09c-0.63-0.45-1.22-1.24-1.62-2.05 c-0.33-0.68-0.52-1.35-0.46-1.82c0.78-0.75,1.58-1.6,2.41-2.54h2.96c4.17-8.93,1.53-22.18-7-27.8c-2.62-1.72-3.96-1.66-7.03-1.66 c-3.52,0-4.5,0.11-7.51,2.1c-4.44,2.94-7.17,8.02-8.32,15.07C78.21,26.67,78.06,32.75,80.52,35.58L80.52,35.58L80.52,35.58z M85.55,34.77c-2.52-8.29-1.46-15.9,5.04-22.4c1.13,3.66,2.33,6.69,6.65,8.93c2.07,1.54,4.07,3.39,6,5.52 c0.34-1.41-0.97-3.13-2.55-4.9c1.47,0.73,2.82,1.74,3.78,3.7c1.11,2.27,1.1,4.18,0.73,6.64c-0.13,0.87-0.32,1.69-0.58,2.46 c-4.1,4.7-7.49,6.8-10.55,6.65c-2.59-0.12-4.99-1.88-7.41-5.05l-0.02-0.02l0,0l-0.01-0.01C86.28,35.81,85.92,35.31,85.55,34.77 L85.55,34.77z M102.01,38.84c-2.91,2.56-5.52,3.71-7.97,3.59c-2.45-0.12-4.7-1.48-6.92-3.95c-0.03,0.51-0.16,1.01-0.36,1.49 c-0.4,0.96-1.13,1.82-2.04,2.45c-5.61,10.84,27.25,11.52,19.51,0.08c-0.68-0.56-1.31-1.41-1.73-2.26 C102.27,39.77,102.1,39.29,102.01,38.84L102.01,38.84z M20.85,25.38c-0.66,0.03-1.15,0.16-1.49,0.39c-0.19,0.13-0.34,0.3-0.43,0.49 c-0.1,0.22-0.15,0.49-0.14,0.79c0.03,0.9,0.5,2.08,1.41,3.43l0.01,0.02l2.96,4.71c1.19,1.89,2.43,3.81,3.98,5.22 c1.49,1.36,3.29,2.28,5.68,2.29c2.58,0.01,4.47-0.95,6.01-2.38c1.6-1.49,2.85-3.54,4.09-5.58l3.33-5.49 c0.62-1.42,0.85-2.37,0.71-2.92c-0.08-0.33-0.45-0.49-1.07-0.52c-0.13-0.01-0.27-0.01-0.41,0c-0.15,0-0.3,0.01-0.47,0.03 c-0.09,0.01-0.17,0-0.26-0.02c-0.3,0.02-0.6,0-0.91-0.05l1.14-5.05c-8.47,1.34-14.81-4.96-23.76-1.26l0.65,5.96 C21.51,25.44,21.17,25.43,20.85,25.38L20.85,25.38L20.85,25.38L20.85,25.38z M41.87,46.64c-0.8-0.94-1.65-2.18-2.38-3.26 c-0.22-0.32-0.42-0.62-0.62-0.9c-1.62,1.18-3.56,1.92-6.04,1.92c-2.67-0.01-4.73-0.96-6.43-2.4c-0.01,0.02-0.02,0.04-0.03,0.05 c-0.28,0.38-0.59,0.84-0.92,1.33c-0.63,0.92-1.33,1.96-2.03,2.83C23.24,53.47,37.25,59.57,41.87,46.64L41.87,46.64z M39.9,41.63 c0.21,0.3,0.44,0.64,0.69,1c0.46,0.67,0.96,1.41,1.46,2.09c3.47,2.99,13.38,3.61,17.09,5.68c1.18,0.66,2.25,1.5,3.11,2.63 c1.97,2.6,2.28,7.41,2.92,10.66H0c0.64-3.26,0.95-8.07,2.92-10.66c0.86-1.13,1.92-1.97,3.11-2.63c3.52-1.96,12.63-2.62,16.51-5.24 c0.61-0.78,1.23-1.7,1.79-2.53c0.35-0.51,0.67-0.99,0.94-1.36c0.05-0.06,0.1-0.12,0.16-0.16c-1.43-1.47-2.58-3.25-3.68-5L18.8,31.4 c-1.08-1.61-1.64-3.09-1.68-4.3c-0.02-0.57,0.08-1.09,0.29-1.54c0.22-0.48,0.56-0.87,1.02-1.18c0.21-0.14,0.45-0.27,0.72-0.37 c-0.19-2.55-0.26-5.77-0.14-8.46c0.06-0.64,0.19-1.28,0.36-1.92c0.76-2.7,2.65-4.88,5-6.37c0.83-0.53,1.73-0.96,2.69-1.31 c1.7-0.62,0.87-3.22,2.76-3.26c4.42-0.1,11.66,3.64,14.49,6.69c1.64,1.78,2.67,4.14,2.9,7.25l-0.18,7.68v0 c0.82,0.25,1.35,0.77,1.56,1.61c0.24,0.93-0.02,2.25-0.81,4.04l0,0c-0.01,0.03-0.03,0.06-0.05,0.1l-3.37,5.55 c-1.3,2.14-2.62,4.29-4.38,5.94L39.9,41.63L39.9,41.63L39.9,41.63z M62.53,24.68l-2.43-2.34c-4.13-3.98-10.86-8.98-11.09-15.19 c-0.16-4.34,3.27-7.13,7.22-7.08c3.35,0.04,4.86,1.63,6.97,3.71l0.85,1.19l-0.49,0.44l0,0L63.4,5.56l-1.1,1l0.01,0.02L62.3,6.6 l0.64,0.84l0.4,0.54l0.01-0.01l0.58,0.76l-1.94,2.73l-0.02,0.02l0,0l0,0l0.02,0.02l1.94,2.73l-0.58,0.76L63.34,15l-0.4,0.54 l-0.64,0.84l0.01,0.01l-0.01,0.02l1.1,1l0.16,0.15l0,0L64.05,18l-1.87,2.64l0.01,0.01l-0.01,0.01l1.87,2.64l-0.49,0.44l0,0 l-0.16,0.15L62.53,24.68L62.53,24.68z"/></g></svg>