<?xml version="1.0" encoding="utf-8"?><svg version="1.1" id="Layer_1" xmlns="http://www.w3.org/2000/svg" xmlns:xlink="http://www.w3.org/1999/xlink" x="0px" y="0px" width="121.699px" height="122.879px" viewBox="0 0 121.699 122.879" enable-background="new 0 0 121.699 122.879" xml:space="preserve"><g><path d="M53.613,0c14.79,0,28.202,6.018,37.918,15.694c9.715,9.716,15.693,23.089,15.693,37.918 c0,10.817-3.225,20.926-8.732,29.343l23.207,25.292l-16.008,14.632L83.311,98.256c-8.498,5.664-18.725,8.969-29.698,8.969 c-14.79,0-28.203-6.019-37.918-15.694C5.979,81.814,0,68.44,0,53.612c0-14.79,6.018-28.202,15.695-37.918 C25.41,5.979,38.784,0,53.613,0L53.613,0z M54.197,41.718c3.664-3.822,6.229-7.124,11.877-7.773 c10.602-1.218,20.352,9.635,14.996,20.321c-1.525,3.045-4.625,6.663-8.057,10.215c-3.768,3.898-7.934,7.719-10.855,10.616 l-7.961,7.897l-6.578-6.336c-7.914-7.623-20.821-17.218-21.246-29.105c-0.299-8.327,6.272-13.661,13.83-13.562 C46.958,34.079,49.797,37.44,54.197,41.718L54.197,41.718L54.197,41.718z M87.283,19.942C78.668,11.328,66.75,5.979,53.613,5.979 c-13.138,0-25.056,5.35-33.67,13.963c-8.614,8.614-13.964,20.532-13.964,33.67c0,13.138,5.35,25.056,13.964,33.67 c8.614,8.614,20.532,13.964,33.67,13.964c13.137,0,25.055-5.35,33.67-13.964c8.613-8.614,13.963-20.532,13.963-33.67 C101.246,40.474,95.896,28.556,87.283,19.942L87.283,19.942L87.283,19.942z"/></g></svg>