<svg xmlns="http://www.w3.org/2000/svg" shape-rendering="geometricPrecision" text-rendering="geometricPrecision" image-rendering="optimizeQuality" fill-rule="evenodd" clip-rule="evenodd" viewBox="0 0 507 511.53"><path fill="#58B3D1" fill-rule="nonzero" d="M301.82 16.47c53.65 22.2 96.3 64.69 118.51 118.36 19.05 46.03 21.67 98.23 7.47 145.96a218.209 218.209 0 0 1-21.83 49.68l98.01 105.61c4.24 4.55 3.98 11.68-.57 15.91l-61.96 56.6c-4.57 4.18-11.65 3.87-15.84-.68l-.02.02-94.34-102.46c-15.44 9.34-32.08 16.81-49.59 22.1-48.02 14.5-100.33 11.93-146.7-7.26-53.65-22.21-96.3-64.69-118.51-118.36-21.95-53.03-21.92-113.96.02-166.99 22.21-53.65 64.69-96.3 118.36-118.51 53.03-21.95 113.97-21.92 166.99.02zm-17.41 42.19c-41.87-17.36-90.16-17.36-132.04 0-42.26 17.53-76.19 51.45-93.71 93.71-17.36 41.88-17.36 90.16 0 132.04 17.52 42.26 51.45 76.19 93.71 93.71 41.88 17.36 90.17 17.36 132.04 0 21.13-8.76 40.18-21.62 56.13-37.58 15.96-15.95 28.82-35 37.59-56.13 17.36-41.88 17.36-90.16 0-132.03-17.53-42.27-51.46-76.19-93.72-93.72z"/><path fill="#8AD7F8" fill-rule="nonzero" d="M218.39 11.19c114.47 0 207.2 92.73 207.2 207.2 0 41.81-12.46 80.87-33.74 113.41l103.89 111.95-61.87 56.55-100.7-109.37c-32.84 21.89-72.36 34.66-114.78 34.66-114.46 0-207.2-92.73-207.2-207.2 0-114.46 92.73-207.2 207.2-207.2zm0 23.11C116.85 34.3 34.3 116.85 34.3 218.39s82.55 184.1 184.09 184.1c50.78 0 96.84-20.68 130.13-53.97 33.29-33.29 53.97-79.35 53.97-130.13 0-101.54-82.56-184.09-184.1-184.09z"/><path fill="#ED1B24" d="M220.66 172.91c14.05-14.65 23.89-27.32 45.55-29.81 40.67-4.67 78.06 36.95 57.52 77.94-5.85 11.68-17.74 25.55-30.9 39.17-14.45 14.96-30.43 29.61-41.63 40.72l-30.54 30.3-25.23-24.31c-30.36-29.24-79.86-66.03-81.49-111.63-1.15-31.93 24.06-52.39 53.04-52.01 25.91.33 36.8 13.23 53.68 29.63z"/></svg>