<?xml version="1.0" encoding="utf-8"?><svg version="1.1" id="Layer_1" xmlns="http://www.w3.org/2000/svg" xmlns:xlink="http://www.w3.org/1999/xlink" x="0px" y="0px" viewBox="0 0 122.88 77.44" style="enable-background:new 0 0 122.88 77.44" xml:space="preserve"><style type="text/css">.st0{fill-rule:evenodd;clip-rule:evenodd;}</style><g><path class="st0" d="M93.12,20.92l-0.57-10.49l18.28-10.24c1.11-0.4,1.9-0.2,2.24,0.84l0.93,10.62c1.85,1.14,6.77,4.36,8.33,5.77 c0.45,0.41,0.72,0.93,0.43,1.71c-0.15,0.41-0.5,0.79-1.11,1.12l-13.73,8.03c-1.22,0.71-2.7,1.83-4.14,1.74 c-0.64-0.04-1.24-0.29-1.81-0.72l-6.81-4.94l-3.98,1.97c0.56,1.43,0.92,2.94,1.1,4.55c0.38,3.28-0.17,6.78-1.91,10.26 c-0.99,1.97-2.45,4.08-4.19,6.24c-1.71,2.12-3.71,4.31-5.8,6.48c-2.88,2.98-5.93,5.9-8.68,8.53c-1.61,1.54-3.11,2.98-4.37,4.23 l-9.55,9.47l-1.34,1.33l-1.36-1.31l-7.89-7.6c-1.44-1.39-3.11-2.91-4.85-4.5c-9.41-8.58-20.76-18.92-21.22-31.73 c-0.01-0.31-0.01-0.64-0.01-0.97c0.07-5.14,2.12-9.39,5.34-12.39c3.19-2.98,7.52-4.72,12.19-4.88c0.32-0.01,0.66-0.02,1.01-0.01 c8.14,0.11,11.86,3.68,16.71,8.44l0,0c4-4.24,7.32-7.72,14.08-8.49c3.9-0.45,7.72,0.33,11.04,2c2.22,1.11,4.22,2.62,5.88,4.42 c-0.05,0.02-0.09,0.04-0.14,0.07L56.29,37.83c-0.74,0.41-1,1.34-0.59,2.08c0.41,0.74,1.34,1,2.08,0.59 C69.59,33.87,81.17,27.18,93.12,20.92L93.12,20.92z M17.58,60.48l8.98-5.29L30,59.33l-9.62,5.29l6.06,4.22l1.14,0.79 c1.75,1.22,1.91,3.39-0.57,3.21L1.52,73.86c-0.73-0.1-1.19-0.41-1.39-0.92c-0.12-0.31-0.16-0.7-0.1-1.16 c0.25-1.96,11.32-17.09,13.29-19.93c1.34-1.92,3.81-4.68,4-0.09L17.58,60.48L17.58,60.48z"/></g></svg>