<?xml version="1.0" encoding="utf-8"?><svg version="1.1" id="Layer_1" xmlns="http://www.w3.org/2000/svg" xmlns:xlink="http://www.w3.org/1999/xlink" x="0px" y="0px" viewBox="0 0 110.56 122.88" style="enable-background:new 0 0 110.56 122.88" xml:space="preserve"><g><path d="M33.5,60.57c-0.45,0.14-0.97,0.11-1.42-0.13c-1.88-0.98-3.4-1.66-4.97-1.75c-1.56-0.09-3.21,0.38-5.4,1.7 c-0.44,0.27-0.95,0.33-1.42,0.21c-0.47-0.12-0.89-0.41-1.16-0.85c-0.27-0.44-0.33-0.95-0.21-1.42c0.12-0.47,0.41-0.89,0.85-1.16 c1.19-0.72,2.38-1.22,3.57-1.55c1.19-0.32,2.38-0.46,3.58-0.43c1.17,0.03,2.33,0.22,3.48,0.54c1.14,0.33,2.28,0.8,3.4,1.39 c0.46,0.24,0.78,0.64,0.92,1.1c0.14,0.45,0.11,0.97-0.13,1.42C34.36,60.11,33.96,60.43,33.5,60.57L33.5,60.57z M88.04,12.66 c2.5-2.65,4.58-4.82,8.8-5.31c2.44-0.28,4.82,0.21,6.9,1.25c1.79,0.9,3.36,2.21,4.54,3.8c1.19,1.6,1.98,3.49,2.21,5.51 c0.24,2.05-0.11,4.24-1.2,6.41c-0.62,1.23-1.53,2.55-2.62,3.9c-1.07,1.33-2.32,2.7-3.63,4.05c-1.8,1.86-3.71,3.69-5.42,5.33 c-1,0.96-1.94,1.86-2.73,2.64l-5.97,5.92L88.08,47l-0.85-0.82l-4.93-4.75c-0.9-0.87-1.95-1.82-3.03-2.81 C73.39,33.26,66.3,26.8,66.01,18.79c-0.01-0.2-0.01-0.4-0.01-0.61c0.04-3.21,1.33-5.87,3.34-7.74c1.99-1.86,4.7-2.95,7.62-3.05 c0.2-0.01,0.41-0.01,0.63-0.01C82.68,7.45,85.01,9.68,88.04,12.66L88.04,12.66L88.04,12.66z M39.83,112.81 c0.01,0.52,0.01,1.05-0.01,1.57c-0.02,0.63-0.06,1.26-0.12,1.88c-0.08,0.85-0.2,1.7-0.35,2.54c-0.15,0.84-0.34,1.67-0.56,2.49 c-0.15,0.57-0.52,1.03-1,1.3c-0.47,0.27-1.05,0.37-1.62,0.22c-0.57-0.15-1.02-0.52-1.3-0.99c-0.27-0.47-0.37-1.05-0.22-1.62l0-0.02 c0.19-0.72,0.36-1.44,0.49-2.15c0.13-0.72,0.24-1.44,0.3-2.16c0.04-0.38,0.06-0.76,0.08-1.15l0.02-0.62 c-0.92,0.25-1.84,0.47-2.74,0.68c-1.12,0.25-2.23,0.48-3.31,0.67c-2.23,0.4-4.38,0.64-6.39,0.7c-1.94,0.06-3.75-0.06-5.37-0.36 c-1.29-0.24-2.47-0.61-3.51-1.11c-1.02-0.49-1.9-1.1-2.64-1.84c-0.81-0.83-1.43-1.79-1.81-2.91c-0.37-1.06-0.52-2.26-0.43-3.6 c0.06-0.94,0.25-1.96,0.56-3.05c0.3-1.02,0.71-2.1,1.25-3.24c-0.12-0.58-0.23-1.17-0.33-1.77c-0.11-0.63-0.21-1.29-0.29-1.97 c-0.1-0.77-0.18-1.52-0.25-2.27c-0.06-0.74-0.11-1.51-0.14-2.3c0-0.07-0.03-0.18-0.03-0.26c-0.13-1.39-0.21-2.77-0.25-4.15 c-0.05-1.37-0.07-2.74-0.08-4.13L9.8,82.83c-1.34-0.08-2.76-0.12-4.08-0.24c-0.57-0.02-1.12-0.12-1.62-0.27 c-0.53-0.16-1.02-0.39-1.47-0.68c-0.42-0.28-0.81-0.61-1.14-0.99c-0.33-0.38-0.61-0.8-0.84-1.27c-0.22-0.45-0.39-0.93-0.5-1.45 c-0.1-0.49-0.15-1.02-0.14-1.57c0.02-0.79,0.16-1.63,0.45-2.5c0.27-0.81,0.67-1.64,1.2-2.47l4.57-9.34 c1.12-2.28,1.67-3.57,1.92-4.57c0.25-0.98,0.22-1.72,0.17-2.89l0-0.01c-0.04-1.08-0.1-2.48-0.03-4.56 c0.04-1.26,0.13-2.48,0.28-3.65c0.15-1.18,0.35-2.34,0.63-3.48c0.2-0.81,0.43-1.61,0.7-2.39c0.22-0.65,0.47-1.27,0.74-1.88 l-8.06-3.52c-0.54-0.24-0.93-0.67-1.13-1.18c-0.2-0.51-0.2-1.09,0.03-1.63l0.11-0.21c0.04-0.06,0.08-0.13,0.12-0.19l0.01-0.01 c9.36-12.76,19.29-21.18,29.17-26.15C42.1,0.09,53.24-1.09,63.4,0.91c0.44,0.09,0.89,0.18,1.35,0.29c0.43,0.1,0.88,0.21,1.35,0.33 c0.19,0.05,0.31,0.21,0.31,0.4l0,3.57c0,0.23-0.18,0.41-0.41,0.41c-0.25,0-1.42-0.36-1.76-0.44c-0.56-0.13-1.11-0.25-1.66-0.36 c-9.13-1.8-19.16-0.76-29.31,4.22c-8.91,4.37-17.92,11.77-26.52,22.94c2.53,1.1,5.55,2.23,7.95,3.49c2.45,0.87,5.35,0.8,8.46,0.27 c3.17-0.54,6.53-1.57,9.82-2.57c2.41-0.74,4.79-1.46,7.06-1.99c2.28-0.54,4.47-0.89,6.53-0.88c0.14-0.01,0.28-0.01,0.42,0.01 c0.14,0.02,0.27,0.05,0.41,0.09c0.56,0.18,0.99,0.58,1.24,1.07c0.25,0.49,0.31,1.07,0.12,1.63c-1.08,3.27-1.56,6.11-1.54,8.58 c0.02,2.46,0.53,4.57,1.43,6.41c0.91,1.86,2.25,3.48,3.9,4.94c1.66,1.47,3.65,2.77,5.85,3.98c0.52,0.28,0.87,0.75,1.03,1.27 c0.15,0.52,0.11,1.11-0.17,1.62c-0.28,0.52-0.75,0.87-1.27,1.03c-0.52,0.15-1.11,0.11-1.62-0.17c-2.55-1.39-4.85-2.92-6.81-4.68 c-1.97-1.77-3.58-3.77-4.73-6.1c-1.03-2.09-1.67-4.42-1.84-7.04c-0.16-2.45,0.1-5.15,0.84-8.15c-1.35,0.2-2.79,0.53-4.27,0.92 c-1.73,0.46-3.52,1-5.33,1.55c-3.39,1.03-6.85,2.09-10.21,2.68c-3.27,0.58-6.45,0.71-9.39-0.03c-0.25,0.53-0.47,1.07-0.67,1.63 c-0.24,0.67-0.44,1.36-0.61,2.07c-0.23,0.96-0.41,1.98-0.54,3.03c-0.13,1.06-0.21,2.14-0.25,3.23c-0.06,1.91-0.01,3.23,0.03,4.25 l0,0.04c0.06,1.58,0.1,2.58-0.22,3.89c-0.31,1.29-0.98,2.87-2.31,5.6l-4.67,9.55l-0.09,0.16c-0.34,0.53-0.59,1.02-0.76,1.49 c-0.17,0.48-0.26,0.93-0.27,1.33c0,0.2,0.01,0.39,0.05,0.57c0.03,0.18,0.09,0.34,0.16,0.47c0.06,0.12,0.13,0.22,0.21,0.32 l0.02,0.02c0.08,0.08,0.17,0.16,0.27,0.23c0.12,0.08,0.26,0.15,0.41,0.19c0.16,0.05,0.33,0.08,0.5,0.08 c1.69-0.01,3.69,0.21,5.41,0.31c0.08-0.02,0.16-0.04,0.24-0.06c0.1-0.02,0.21-0.03,0.33-0.03c1.58,0,3.52,0.27,5.12,0.42 c0.58,0.05,1.09,0.33,1.44,0.75c0.35,0.42,0.55,0.97,0.5,1.56c-0.05,0.59-0.33,1.1-0.75,1.46c-0.42,0.35-0.97,0.55-1.56,0.5 c-0.84-0.07-1.7-0.1-2.54-0.15l0,0.08c0.02,1.23,0.03,2.46,0.07,3.69c0.03,1.13,0.09,2.28,0.18,3.44c0.56,0.26,1.12,0.47,1.67,0.63 c0.61,0.18,1.21,0.31,1.8,0.36c0.67,0.07,1.33,0.05,1.98-0.05c0.65-0.1,1.29-0.29,1.93-0.57c0.54-0.24,1.12-0.23,1.63-0.04 c0.51,0.2,0.95,0.59,1.18,1.13l0.01,0.01c0.23,0.54,0.23,1.12,0.03,1.62c-0.2,0.51-0.59,0.95-1.13,1.18l-0.01,0 c-0.97,0.43-1.96,0.72-2.97,0.88c-1.01,0.16-2.03,0.18-3.07,0.08c-0.54-0.05-1.09-0.14-1.63-0.27c-0.34-0.08-0.69-0.17-1.03-0.27 l0.09,0.76c0.09,0.65,0.19,1.32,0.31,2.02c0.12,0.68,0.26,1.37,0.41,2.07l0.01,0.03c0.05,0.27,0.06,0.53,0.01,0.78 c-0.04,0.26-0.14,0.52-0.28,0.74c-0.5,1.02-0.89,1.96-1.15,2.81c-0.27,0.88-0.43,1.67-0.47,2.38c-0.05,0.71,0.02,1.33,0.2,1.86 c0.17,0.54,0.46,1,0.83,1.38c0.41,0.41,0.93,0.76,1.56,1.05c0.67,0.3,1.45,0.54,2.33,0.7c1.36,0.26,2.9,0.35,4.58,0.29 c1.76-0.06,3.66-0.27,5.64-0.63c1.95-0.35,4.03-0.81,6.12-1.39c1.89-0.52,3.79-1.13,5.62-1.84c1.62-0.63,3.17-1.33,4.61-2.11 c1.32-0.72,2.53-1.49,3.58-2.33c1.04-0.83,1.81-1.94,2.42-3.14l0.02-0.03c0.61-1.2,1.07-2.5,1.49-3.7l0.42-1.2l0.25-0.69 c0.53-1.46,1.26-3.46,2.15-5.33c0.91-1.91,2-3.69,3.25-4.64c0.47-0.36,1.03-0.5,1.57-0.43c0.54,0.07,1.06,0.35,1.42,0.81 c0.36,0.47,0.5,1.03,0.43,1.57c-0.07,0.54-0.35,1.06-0.81,1.42c-0.73,0.56-1.49,1.93-2.19,3.46c-0.72,1.58-1.35,3.33-1.82,4.61 c-0.23,0.59-0.45,1.23-0.66,1.82c-0.51,1.45-1.06,3.03-1.87,4.55c-0.82,1.54-1.89,3.02-3.42,4.25c-1.22,0.98-2.61,1.87-4.12,2.7 c-1.62,0.88-3.37,1.67-5.18,2.38c-0.4,0.15-0.81,0.31-1.23,0.46L39.83,112.81L39.83,112.81z M106.66,52.44 c0.22,8.55-1.83,17.22-6.72,25.21c-4.41,7.22-11.14,13.89-20.58,19.42c-0.13,0.07-0.26,0.14-0.4,0.18l-0.06,0.02 c0.01,1.24,0.05,2.48,0.13,3.71c0.08,1.31,0.2,2.62,0.36,3.91c0.31,2.51,0.75,4.94,1.33,7.29c0.58,2.35,1.29,4.63,2.12,6.84 c0.21,0.55,0.17,1.14-0.05,1.63c-0.23,0.5-0.64,0.91-1.19,1.12c-0.55,0.21-1.14,0.17-1.63-0.05c-0.5-0.23-0.91-0.64-1.12-1.19 c-0.89-2.37-1.66-4.82-2.28-7.34c-0.62-2.52-1.1-5.12-1.43-7.78c-0.32-2.66-0.5-5.4-0.52-8.25c-0.02-2.84,0.13-5.76,0.44-8.77 c0.06-0.59,0.35-1.09,0.78-1.44c0.42-0.34,0.98-0.53,1.57-0.47l0.01,0c0.58,0.06,1.08,0.35,1.42,0.77 c0.34,0.42,0.53,0.98,0.47,1.57c-0.07,0.7-0.14,1.41-0.19,2.13l-0.09,1.32c7.98-5.02,13.7-10.93,17.48-17.27 c4.29-7.19,6.08-14.95,5.87-22.59c-0.01-0.23,0.17-0.42,0.4-0.42l3.47,0c0.23,0,0.41,0.19,0.41,0.41L106.66,52.44L106.66,52.44z M68.91,66.16c0.11,0.58-0.03,1.15-0.34,1.6c-0.31,0.45-0.79,0.78-1.37,0.89c-0.58,0.11-1.15-0.03-1.6-0.34 c-0.45-0.31-0.78-0.79-0.89-1.37c-0.11-0.6-0.15-1.19-0.13-1.75c0.02-0.59,0.12-1.16,0.27-1.7c0.21-0.74,0.53-1.43,0.93-2.05 c0.42-0.64,0.93-1.22,1.52-1.72c0.56-0.47,1.19-0.88,1.86-1.19c0.67-0.31,1.38-0.55,2.12-0.68c0.63-0.11,1.28-0.16,1.93-0.13 c0.63,0.03,1.27,0.13,1.89,0.3c1.71,0.48,2.95,1.17,3.79,2.01c0.87,0.87,1.33,1.89,1.49,3.05c0.14,0.99,0.02,2.01-0.27,3.06 c-0.28,1.03-0.72,2.08-1.23,3.15c-0.44,0.93-1.52,3.17-2.9,5.73c-1.39,2.56-3.09,5.43-4.78,7.62c-2.44,3.15-4.89,5.29-6.88,4.96 c-2.02-0.33-3.47-3.12-3.83-9.8l0-0.01c-0.03-0.59,0.18-1.13,0.55-1.53l0.03-0.03c0.36-0.39,0.88-0.64,1.45-0.67l0.04,0 c0.57-0.02,1.1,0.19,1.5,0.55c0.41,0.36,0.67,0.89,0.7,1.47l0,0.03c0.14,2.58,0.55,3.7,1.09,3.9c0.48,0.18,1.21-0.48,1.99-1.48 c1.55-2,3.13-4.69,4.44-7.11c1.31-2.42,2.33-4.57,2.76-5.46c0.37-0.78,0.69-1.52,0.9-2.18c0.2-0.63,0.3-1.19,0.23-1.63 c-0.04-0.27-0.19-0.53-0.5-0.77c-0.36-0.28-0.91-0.54-1.71-0.76c-0.31-0.09-0.63-0.14-0.94-0.15c-0.32-0.01-0.65,0.01-0.96,0.07 c-0.37,0.07-0.73,0.18-1.07,0.34c-0.33,0.16-0.65,0.36-0.93,0.6c-0.27,0.23-0.5,0.49-0.69,0.77c-0.18,0.27-0.32,0.57-0.41,0.89 c-0.07,0.24-0.11,0.49-0.12,0.75C68.85,65.63,68.86,65.89,68.91,66.16L68.91,66.16z"/></g></svg>