<svg id="Layer_1" data-name="Layer 1" xmlns="http://www.w3.org/2000/svg" viewBox="0 0 122.88 108.44"><defs><style>.cls-1{fill-rule:evenodd;}</style></defs><title>honesty</title><path class="cls-1" d="M60.83,17.18c8-8.34,13.62-15.57,26-17C110-2.46,131.26,21.26,119.57,44.61c-3.33,6.65-10.11,14.56-17.61,22.32C95.9,73.2,89.37,79.38,83.8,84.73V89a19.15,19.15,0,0,1-5.53,13.49c-6.2,6.28-22.79,7.52-31,4.24C41.51,104.4,32.36,94.34,27.3,88.92A53.29,53.29,0,0,1,22.83,84a8.66,8.66,0,0,1-1.44-6.83A7,7,0,0,1,23,74.11a6.85,6.85,0,0,1,1.4-1.17C11.84,60.45.6,46.18,0,29.94-.63,11.74,13.73.09,30.25.3c14.76.2,21,7.53,30.58,16.88ZM80.65,75.66V89A16,16,0,0,1,76,100.25c-5.28,5.34-20.65,6.3-27.65,3.52-4.73-1.88-13.32-11.06-18.16-16.26-.9-1-4.28-4.33-5-5.55a5.41,5.41,0,0,1-.78-4,3.74,3.74,0,0,1,.87-1.69,3.56,3.56,0,0,1,1.52-1c1.49-.47,3.48,0,5.48,2,.46.46,1.67,1.68,2.86,2.8a20.66,20.66,0,0,0,3,2.48,1.58,1.58,0,0,0,.87.26h0l1.24-.61L40.69,76c0-11.58.08-20.83.08-32.44,0-5,7.54-5,7.54,0v20.4h3.25V37.36c0-5,7.54-5,7.54,0V63.94h3.32V45.6c0-5,7.54-5,7.54,0V63.94h3.15V52.35c0-5,7.54-5,7.54,0V75.66Z"/></svg>