<?xml version="1.0" encoding="utf-8"?><svg version="1.1" id="Layer_1" xmlns="http://www.w3.org/2000/svg" xmlns:xlink="http://www.w3.org/1999/xlink" x="0px" y="0px" viewBox="0 0 122.88 112.13" style="enable-background:new 0 0 122.88 112.13" xml:space="preserve"><style type="text/css">.st0{fill-rule:evenodd;clip-rule:evenodd;}</style><g><path class="st0" d="M15.21,40.35C3.13,42.91,5.27,60.98,6.74,76.09c1.41,14.51-10.52,22.66-5.5,36.04h33.84 c2.05-6.78,3.2-14.28,3.86-21.14c-1.19-0.27-2.32-0.72-3.36-1.35c-2-1.2-3.65-3.01-4.62-5.3l-12.4-21.53 c-0.09-0.16-0.17-0.31-0.23-0.48l-0.01,0c-0.84-2.07-1.02-4.24-0.64-6.29c-0.51-0.38-0.98-0.79-1.42-1.25 c-2.01-2.09-3.22-4.95-3.16-8.08C13.14,44.34,13.92,42.15,15.21,40.35L15.21,40.35z M24.28,54.41c-4.12-0.08-7.39-3.49-7.31-7.6 c0.08-4.12,3.49-7.39,7.6-7.31l37.33,1.02c0.17,0,0.34,0.01,0.51,0.03c3.49-1.1,9.53-0.86,19.96-0.49 c8.5,0.3,11.37,6.78,11.99,15.28h0l16.95,48.44H100c0.24,2.61-0.03,5.35-1.15,8.36H59.58c-1.46-2.54-2.38-5.36-2.91-8.36h-4.67 l1.56-12.97l29.16-1.1c3.13-0.1,5.92-1.46,7.9-3.57c1.99-2.12,3.17-4.99,3.07-8.12c-0.1-3.13-1.45-5.93-3.57-7.91 c-2.1-1.97-4.94-3.14-8.03-3.07l-25.79,0.98l1.06-8.83c1.4,0.04,2.79,0.08,4.19,0.13c0.26,0.01,0.51,0,0.76-0.01v-3.89 c-0.23,0.02-0.45,0.02-0.68,0.02L24.28,54.41L24.28,54.41z M21.92,60.89c-0.4-0.99-0.57-2.02-0.55-3.02 c0.88,0.24,1.8,0.39,2.75,0.41c4.59,0.19,9.2,0.32,13.81,0.43l8.45,13.55l35.73-1.36c4.12-0.13,7.56,3.11,7.69,7.22 c0.13,4.12-3.11,7.56-7.22,7.69l-40.37,1.52c-3.23,0.34-6.44-1.47-7.72-4.63L21.92,60.89L21.92,60.89z M122.87,22.67 C108.45,29.81,104.69,7.2,88.95,9.35c1.07,3.19,2.47,6.24,4.26,9.12c3.73,5.98,8.58,11.01,15.99,11.73 C113.96,30.66,123.24,29.08,122.87,22.67L122.87,22.67z M68.52,0c-7.45,0-13.84,4.53-16.56,10.99C49.23,4.53,42.84,0,35.39,0 c-9.92,0-17.97,8.05-17.97,17.97c0,9.92,8.05,17.97,17.97,17.97c7.45,0,13.84-4.53,16.56-10.99c2.72,6.46,9.11,10.99,16.56,10.99 c9.92,0,17.97-8.05,17.97-17.97C86.48,8.05,78.44,0,68.52,0L68.52,0z"/></g></svg>