<?xml version="1.0" encoding="utf-8"?><svg version="1.1" id="Layer_1" xmlns="http://www.w3.org/2000/svg" xmlns:xlink="http://www.w3.org/1999/xlink" x="0px" y="0px" viewBox="0 0 77.03 122.88" style="enable-background:new 0 0 77.03 122.88" xml:space="preserve"><style type="text/css">.st0{fill-rule:evenodd;clip-rule:evenodd;}</style><g><path class="st0" d="M9.53,41.73c-7.57,1.61-6.23,12.93-5.31,22.41c0.99,10.14-8.43,14.07-1.91,24.38l2.7,28.68 c0.07,7.39,10.01,7.34,11.09,1.25c1.81-12.9-0.79-19.28,3.37-26.82c2.96-5.38,4.3-11.6,4.93-18.14c-0.74-0.17-1.46-0.45-2.11-0.84 c-2.84-1.71-8.7-13.41-10.67-16.82l-0.07-0.12l-0.08-0.17l-0.01,0c-0.52-1.3-0.64-2.66-0.4-3.94c-0.32-0.24-0.62-0.5-0.89-0.78 c-1.26-1.31-2.02-3.1-1.98-5.07C8.24,44.23,8.73,42.86,9.53,41.73L9.53,41.73z M31.79,2.44c1.14-1.19,1.93-2.21,3.69-2.41 c3.29-0.38,6.32,2.99,4.65,6.31c-0.47,0.94-1.44,2.07-2.5,3.17c-1.17,1.21-2.46,2.4-3.37,3.29l-2.47,2.45l-2.04-1.97 c-2.46-2.37-6.46-5.34-6.59-9.03c-0.09-2.58,1.95-4.24,4.29-4.21C29.54,0.07,30.43,1.11,31.79,2.44L31.79,2.44L31.79,2.44z M15.22,50.54c-2.58-0.05-4.63-2.18-4.58-4.77c0.05-2.58,2.18-4.63,4.77-4.58l23.4,0.64c0.11,0,0.21,0.01,0.32,0.02 c2.19-0.69,5.98-0.54,12.51-0.31c5.33,0.19,7.13,4.25,7.52,9.58h0l11.37,31.25c-1.22,3.2-5.2,5.67-10.19,7.14l-2.61,27.54 c-0.07,7.39-10.01,7.34-11.09,1.25c-0.71-13.17,2.22-22.92-3.37-27.73l-0.11-0.09c-4.98-0.93-9.17-3.08-10.99-6.68l1.4-10.43 l18.09-0.68l0.11,0v-0.01l0.09,0c1.96-0.06,3.71-0.91,4.95-2.24c1.19-1.27,1.92-2.98,1.93-4.84l0.01-0.18h-0.01l0-0.08 c-0.06-1.96-0.91-3.72-2.24-4.96c-1.31-1.23-3.09-1.97-5.04-1.92l-16.16,0.61l0.66-5.53c0.88,0.02,1.75,0.05,2.62,0.08 c0.16,0,0.32,0,0.48-0.01v-2.44c-0.14,0.01-0.28,0.01-0.43,0.01L15.22,50.54L15.22,50.54z M13.74,54.61 c-0.25-0.62-0.36-1.26-0.34-1.89c0.55,0.15,1.13,0.24,1.72,0.26c2.88,0.12,5.77,0.2,8.66,0.27l5.3,8.49l22.39-0.85 c2.58-0.08,4.74,1.95,4.82,4.53c0.08,2.58-1.95,4.74-4.53,4.82l-25.3,0.95c-2.03,0.22-4.04-0.92-4.84-2.9L13.74,54.61L13.74,54.61z M77.02,31.28c-9.04,4.47-11.4-9.7-21.26-8.35c0.67,2,1.55,3.91,2.67,5.71c2.34,3.75,5.38,6.91,10.02,7.36 C71.44,36.29,77.25,35.3,77.02,31.28L77.02,31.28z M42.95,17.07c-5.45,0-8.67,2.84-10.38,6.89c-1.71-4.05-4.94-6.89-10.38-6.89 s-11.26,5.04-11.26,11.26c0,6.22,5.82,11.26,11.26,11.26s8.68-2.84,10.38-6.89c1.71,4.05,4.94,6.89,10.38,6.89 c5.45,0,11.26-5.04,11.26-11.26C54.22,22.11,48.4,17.07,42.95,17.07L42.95,17.07z"/></g></svg>