<?xml version="1.0" encoding="utf-8"?><svg version="1.1" id="Layer_1" xmlns="http://www.w3.org/2000/svg" xmlns:xlink="http://www.w3.org/1999/xlink" x="0px" y="0px" viewBox="0 0 70.06 122.88" style="enable-background:new 0 0 70.06 122.88" xml:space="preserve"><style type="text/css">.st0{fill-rule:evenodd;clip-rule:evenodd;}</style><g><path class="st0" d="M10.65,28.24c-8.46,1.79-6.95,14.44-5.93,25.02c1.1,11.33-9.42,17.12-2.13,28.63l3.02,34.64 c0.08,8.25,11.18,8.19,12.38,1.39c2.02-14.4-1.15-24.29,3.76-32.57c2.83-4.76,5.75-12.85,7.38-21.47c-1.5,0.02-2.96-0.38-4.23-1.14 c-1.4-0.84-2.55-2.11-3.23-3.71l-8.68-15.07c-0.06-0.11-0.12-0.22-0.16-0.33l-0.01,0c-0.59-1.45-0.71-2.97-0.45-4.4 c-0.36-0.26-0.69-0.56-0.99-0.87c-1.41-1.46-2.26-3.47-2.21-5.66C9.2,31.04,9.74,29.5,10.65,28.24L10.65,28.24z M17,38.08 c-2.88-0.06-5.17-2.44-5.12-5.32c0.06-2.88,2.44-5.17,5.32-5.12l26.13,0.72c0.12,0,0.24,0.01,0.35,0.02 c2.44-0.77,6.67-0.6,13.97-0.34c10.33,0.37,8.8,13.78,7.7,24.99c-0.36-1.55-1.18-2.91-2.29-3.96c-1.47-1.38-3.46-2.2-5.63-2.15 l-16.84,0.64l0-0.15v0.15l-0.01,0l-0.07-3.47c0-0.94-0.01-1.82-0.02-2.65c0.86,0.02,1.71,0.05,2.57,0.08c0.18,0,0.35,0,0.53-0.01 v-2.72c-0.16,0.01-0.32,0.02-0.48,0.01L17,38.08L17,38.08z M15.34,42.62c-0.28-0.69-0.4-1.41-0.38-2.11 c0.61,0.17,1.26,0.27,1.92,0.29c3.22,0.13,6.44,0.22,9.67,0.3l5.92,9.48l25.01-0.95c2.88-0.09,5.29,2.17,5.38,5.06 c0.09,2.88-2.17,5.29-5.06,5.38l-28.25,1.06c-2.26,0.24-4.51-1.03-5.4-3.24L15.34,42.62L15.34,42.62z M65.35,56.74 c0.95,9.16,8.62,14.88,2.12,25.15l-3.02,34.64c-0.08,8.25-11.18,8.19-12.38,1.39c-2.02-14.4,1.05-24.24-3.76-32.57 c-7.62-13.2-8.53-16.01-8.27-21.89l17.86-0.67c2.19-0.07,4.14-1.02,5.53-2.5C64.35,59.31,65.02,58.09,65.35,56.74L65.35,56.74z M47.96,0c-5.21,0-9.69,3.17-11.59,7.69C34.46,3.17,29.99,0,24.77,0C17.83,0,12.2,5.63,12.2,12.58c0,6.95,5.63,12.58,12.58,12.58 c5.21,0,9.69-3.17,11.59-7.69c1.91,4.52,6.38,7.69,11.59,7.69c3.99,0,7.55-1.86,9.86-4.76c1.7-2.15,2.72-4.86,2.72-7.82 c0-3.32-1.29-6.34-3.38-8.58C54.86,1.54,51.59,0,47.96,0L47.96,0z"/></g></svg>