<svg id="Layer_1" data-name="Layer 1" xmlns="http://www.w3.org/2000/svg" viewBox="0 0 122.88 48.31"><defs><style>.cls-1{fill:#f44133;fill-rule:evenodd;}.cls-2{fill:#262626;}</style></defs><title>I-love-you</title><path class="cls-1" d="M52.5,7.52C55.72,3.87,58,.71,62.92.09c9.3-1.16,17.86,9.21,13.16,19.43C74.75,22.43,72,25.88,69,29.29c-3.3,3.72-7,7.37-9.52,10.14L52.5,47l-5.77-6.06c-6.94-7.29-18.27-16.46-18.64-27.82-.26-8,5.5-13.07,12.14-13,5.92.09,8.41,3.29,12.27,7.39Z"/><path class="cls-2" d="M20.76,1.73V8.3A1.72,1.72,0,0,1,19,10h-2V37.51h2a1.72,1.72,0,0,1,1.73,1.73v6.57A1.72,1.72,0,0,1,19,47.54H1.73A1.73,1.73,0,0,1,0,45.81V39.24a1.73,1.73,0,0,1,1.73-1.73h2V10H1.73A1.73,1.73,0,0,1,0,8.3V1.73A1.74,1.74,0,0,1,1.73,0H19a1.73,1.73,0,0,1,1.73,1.73Z"/><path class="cls-2" d="M122.88,26.72q0,10.61-5.09,16.07t-15.14,5.52q-9.72,0-14.73-5.41T83,27.19V1.73A1.73,1.73,0,0,1,84.7,0h10a1.74,1.74,0,0,1,1.73,1.73V27.3q0,4.77,1.72,7a5.83,5.83,0,0,0,4.91,2,5.74,5.74,0,0,0,4.8-1.93q1.67-2.1,1.67-6.67V1.73A1.74,1.74,0,0,1,111.22,0h9.93a1.74,1.74,0,0,1,1.73,1.73v25Z"/></svg>