<svg id="Layer_1" data-name="Layer 1" xmlns="http://www.w3.org/2000/svg" viewBox="0 0 119.5 122.88"><defs><style>.cls-1{fill:#fdbe47;}.cls-2{fill:#cc3516;}.cls-3{fill:#db4429;}.cls-3,.cls-5{fill-rule:evenodd;}.cls-4{fill:#666;}.cls-5,.cls-6{fill:#fff;}</style></defs><title>invitation</title><path class="cls-1" d="M.08,58.64V44.56c0-3.09,1.7-4.06,3.59-5.13A8.46,8.46,0,0,0,4.41,39l.16-.11v13.4A4.71,4.71,0,0,0,6.47,56l2.92,2.6Zm32.59-39.8L58.3.57A3.24,3.24,0,0,1,62,.59L87.25,18.84Zm82.3,20,.17.13h0l.76.45c1.87,1.06,3.55,2,3.55,5.11V58.64H111l2.29-2A4.71,4.71,0,0,0,115,53.1h0V38.86Z"/><path class="cls-2" d="M119.45,52.51v64.12a6.1,6.1,0,0,1-1.81,4.35l-.26.24a6.14,6.14,0,0,1-4.09,1.58H6.25A6.15,6.15,0,0,1,1.9,121a6.11,6.11,0,0,1-1.82-4.35V52.51Z"/><path class="cls-3" d="M6.25,54.71,59.17,102l54.12-47.28c1.22-1.06,2.94,1.33,2.94,2.94v59a3,3,0,0,1-2.94,2.94H6.25a3,3,0,0,1-2.94-2.94v-59c0-1.61,1.73-4,2.94-2.94Z"/><path class="cls-4" d="M113.31,56.67l-50.83,43.7a4.7,4.7,0,0,1-6.16-.06L6.47,56a4.71,4.71,0,0,1-1.9-3.78V23.55a4.71,4.71,0,0,1,4.71-4.71h101A4.71,4.71,0,0,1,115,23.55V53.1h0a4.71,4.71,0,0,1-1.64,3.57Z"/><polygon class="cls-5" points="59.43 96.8 110.26 53.1 110.26 23.55 61.05 23.55 9.28 23.55 9.28 52.26 59.43 96.8 59.43 96.8"/><path class="cls-6" d="M0,52.92l.12-8.85C24.07,65,42,80.55,59.47,95.82l60-50.58,0,8.9L77.69,89.38l40,31.5c-2.2,2.61-6.28,1.92-8.6,1.91L72.35,93.88l-10.59,8.93a3.42,3.42,0,0,1-4.58.07l-11.4-10L7.64,122.8C4,123.08,2,121.55.81,119.52L40.55,88.34,0,52.92Z"/><path d="M26.27,33h5.31V52.45H26.27V33Zm15.87,4.34h.55q4,0,4,3.76V52.45H41.57V41.77c0-.45-.26-.67-.76-.67h-.52c-.54,0-.82.3-.82.91V52.45H34.31V37.31h5.07v1.94c.29-1.3,1.21-1.94,2.76-1.94Zm11.08,0L55.08,47l1.82-9.71H62L58.14,52.45H52L48.09,37.31Zm10.24-1.52V32.15H68.8v3.64Zm5.25,16.66H63.55V37.31h5.16V52.45ZM79.12,41.1H77.21V48c0,.45.25.67.76.67h1.12v3.79H76.51c-3,0-4.46-1.25-4.46-3.76V41.1H70.38V37.31h1.67v-3h5.16v3h1.91V41.1Zm6-3.79h3.7q4.47,0,4.47,3.76v5.16H85.52v2c0,.44.26.66.76.66h1.34c.51,0,.76-.24.76-.73v-.85h4.89v1.37q0,3.77-4.47,3.76H85.1c-3,0-4.46-1.25-4.46-3.76V41.07c0-2.51,1.48-3.76,4.46-3.76Zm.42,6.13h2.86V41.53c0-.45-.25-.67-.76-.67H86.28c-.5,0-.76.22-.76.67v1.91Z"/><path d="M49.53,77.42h-5V71.5l-5-12.33h5.09L47,66.87l2.22-7.7h5.06L49.53,71.45v6ZM59,63.23h3.61a4.35,4.35,0,0,1,3.1.91,3.51,3.51,0,0,1,.94,2.62v7.13a3.51,3.51,0,0,1-.94,2.62,4.4,4.4,0,0,1-3.1.91H59a4.4,4.4,0,0,1-3.1-.91A3.47,3.47,0,0,1,55,73.89V66.76a3.47,3.47,0,0,1,.94-2.62,4.35,4.35,0,0,1,3.1-.91Zm2.9,10.21V67.21c0-.41-.24-.62-.71-.62h-.77c-.47,0-.71.21-.71.62v6.23c0,.42.24.62.71.62h.77c.47,0,.71-.2.71-.62ZM75.18,63.23H80V77.42H75.26V75.6a2.29,2.29,0,0,1-2.58,1.82h-.52q-3.78,0-3.78-3.53V63.23h4.84v10c0,.42.23.62.71.62h.48c.51,0,.77-.28.77-.85V63.23Z"/></svg>