<?xml version="1.0" encoding="utf-8"?><svg version="1.1" id="Layer_1" xmlns="http://www.w3.org/2000/svg" xmlns:xlink="http://www.w3.org/1999/xlink" x="0px" y="0px" viewBox="0 0 122.88 77.44" style="enable-background:new 0 0 122.88 77.44" xml:space="preserve"><style type="text/css">.st0{fill-rule:evenodd;clip-rule:evenodd;}</style><g><path class="st0" d="M84.52,1.11c11.69,3.14,24.36,13.01,37.75,27.49c0.73,0.79,0.79,1.92,0.23,2.78 c-15.22,23.77-32.99,38.28-53.29,43.68c-20.3,5.4-42.98,1.61-67.99-11.18c-0.96-0.49-1.4-1.56-1.16-2.57 C4.55,42.7,10.53,27.61,19.1,18.8c8.62-8.9,19.68-11.55,34.11-5.39C62.23,1.4,72.78-2.06,84.52,1.11L84.52,1.11z M58.17,32.05 c12.71-9.4,26.12-8.1,39.89-1.22c-22.3,17.5-47.56,24.11-75.59,20.25C31,38.62,41.77,30.21,58.2,32.04L58.17,32.05L58.17,32.05z"/></g></svg>