<?xml version="1.0" encoding="utf-8"?><svg version="1.1" id="Layer_1" xmlns="http://www.w3.org/2000/svg" xmlns:xlink="http://www.w3.org/1999/xlink" x="0px" y="0px" viewBox="0 0 110.97 122.88" style="enable-background:new 0 0 110.97 122.88" xml:space="preserve"><style type="text/css"><![CDATA[
	.st0{fill:#EE4856;}
	.st1{fill-rule:evenodd;clip-rule:evenodd;fill:#262626;}
]]></style><g><path class="st1" d="M66.37,0h13.88v4.63c34.72,7.95,38.69,24.62,18.55,50.9c2.14-26.07-0.48-31.67-18.55-32.88v65.91 c0.04,0.35,0.04,0.7,0.04,1.06c0,8.57-8.99,17.07-20.08,18.98c-3.5,0.6-6.78,0.48-9.64-0.24c5.41-5.56,9.85-11.93,10.38-19.45 l0.02-0.46c0.01-0.13,0.01-0.3,0.01-0.52c0.04-2.35-0.36-4.52-1.12-6.48C59.37,80.22,58.75,79.06,58,78 c2.93-0.62,5.83-0.58,8.36,0.31L66.37,0L66.37,0L66.37,0z M7.71,14.05c-2.81,0-5.1-2.29-5.1-5.11c0-2.81,2.29-5.1,5.1-5.1h42.69 c2.81,0,5.1,2.29,5.1,5.1s-2.29,5.1-5.1,5.1L7.71,14.05L7.71,14.05L7.71,14.05z M16.15,38.82c-2.81,0-5.1-2.29-5.1-5.11 c0-2.81,2.29-5.1,5.1-5.1h34.25c2.81,0,5.1,2.29,5.1,5.1c0,2.81-2.29,5.1-5.1,5.1H7.71L16.15,38.82L16.15,38.82z M24.59,63.6 c-2.81,0-5.1-2.29-5.1-5.1c0-2.81,2.29-5.1,5.1-5.1h25.81c2.81,0,5.1,2.29,5.1,5.1c0,2.81-2.29,5.1-5.1,5.1H24.59L24.59,63.6 L24.59,63.6z"/><path class="st0" d="M26.25,81.44c0.33,0.38,0.67,0.77,1.09,1.23l1.14,1.28l1.27-1.15c0.37-0.34,0.76-0.69,1.12-1.04 c3.93-3.61,6.89-6.33,12.79-6.21c0.23,0,0.48,0.02,0.73,0.04c3.3,0.23,6.3,1.55,8.45,3.7c2.12,2.13,3.42,5.08,3.34,8.62 c0,0.22-0.01,0.45-0.03,0.7c-0.69,9.86-10.44,18.15-18.52,25.03c-1.56,1.33-3.05,2.59-4.49,3.88l-5.96,5.36l-5.81-6.17 C8.81,102.17,10.05,103.97,1.23,93.13c-2.07-4.51-1.5-9.38,1.58-13.26c1.41-1.78,3.26-3.22,5.35-4.18c2.41-1.08,5.14-1.55,7.9-1.14 C20.82,75.27,23.27,78.06,26.25,81.44L26.25,81.44L26.25,81.44L26.25,81.44z"/></g></svg>