<svg xmlns="http://www.w3.org/2000/svg" shape-rendering="geometricPrecision" text-rendering="geometricPrecision" image-rendering="optimizeQuality" fill-rule="evenodd" clip-rule="evenodd" viewBox="0 0 491 511.82"><path fill-rule="nonzero" d="M459.99 173.14c3.11-2.69 6.57-3.87 10.15-3.87 3.04 0 5.91.9 8.56 2.48 1.93 1.16 3.71 2.7 5.26 4.48 4.05 4.64 7.04 11.79 7.04 17.74v294.25c0 6.45-2.65 12.33-6.92 16.63l-.02.03-.03.01-.03.04c-4.29 4.24-10.16 6.89-16.61 6.89H23.6c-12.94 0-23.6-10.66-23.6-23.6V193.97c0-6.05 3.08-13.35 7.2-17.97 1.51-1.69 3.29-3.18 5.26-4.35 2.61-1.53 5.43-2.4 8.4-2.4 2.82 0 5.56.74 8.11 2.37V11.43C28.97 5.12 34.09 0 40.41 0h288.21c3.53 0 6.69 1.6 8.78 4.12l119.33 123.24c2.16 2.21 3.23 5.08 3.23 7.94h.03v3.28a10.852 10.852 0 0 1 0 2.8v31.76zm-218.22-48.93c5-8.91 11.02-16.16 17.82-21.69 34.12-27.72 83.69-9.76 92.59 34.01 1.63 7.98 1.58 16.16-.5 23.77-9.09 33.13-84.34 86.61-109.89 127.55h-.04c-25.56-40.94-100.81-94.42-109.89-127.55-2.08-7.61-2.13-15.79-.51-23.77 8.91-43.77 58.48-61.73 92.59-34.01 6.81 5.53 12.83 12.78 17.83 21.69zm184.39 4.34L324.85 23.92v-1.07H51.83v168.9l142.52 127.32c.21.17.42.36.62.55l48.13 42.99L437.14 193.1v-41.69l-10.98-22.86zm-256.25 199.2L22.85 196.38v260.24l147.06-128.87zm298.24 129.4V196.26L319.06 326.5l149.09 130.65zm-232.72-70.86-48.4-43.25L22.85 486.91c0 .71-.29 2.05.75 2.05h443.79c.23 0 .42-.07.53-.18v.01l.04-.06c.12-.11.19-.29.19-.52v-.78l-166.4-145.82-51.23 44.77v-.01c-4.26 3.74-10.75 3.78-15.09-.08z"/></svg>