<svg xmlns="http://www.w3.org/2000/svg" shape-rendering="geometricPrecision" text-rendering="geometricPrecision" image-rendering="optimizeQuality" fill-rule="evenodd" clip-rule="evenodd" viewBox="0 0 491 511.82"><path fill="#4D8BBA" fill-rule="nonzero" d="M459.99 173.13c3.11-2.68 6.56-3.86 10.15-3.86 3.03 0 5.91.9 8.55 2.49 1.94 1.15 3.72 2.69 5.27 4.47 4.05 4.63 7.04 11.79 7.04 17.74v294.24c0 6.46-2.65 12.34-6.92 16.64l-.03.02-.02.02-.03.03c-4.29 4.25-10.16 6.9-16.61 6.9H23.61c-6.46 0-12.34-2.65-16.64-6.93l-.02-.02-.02-.03-.03-.02c-4.26-4.3-6.9-10.17-6.9-16.61V193.96c0-6.04 3.08-13.34 7.21-17.96 1.5-1.69 3.28-3.18 5.25-4.34 2.61-1.54 5.44-2.41 8.4-2.41 2.82 0 5.56.74 8.12 2.37V11.43C28.98 5.12 34.1 0 40.4 0h288.22c3.53 0 6.68 1.6 8.78 4.12l119.33 123.23c2.16 2.22 3.23 5.09 3.23 7.95h.03v37.83z"/><path fill="#9FD9F1" fill-rule="nonzero" d="M169.91 327.75 22.85 196.38v260.23l147.06-128.86zm298.24 129.4V196.26L319.06 326.5l149.09 130.65zm-232.72-70.87-48.4-43.24L22.85 486.91v1.3c0 .23.07.41.19.52l.04.04c.11.11.3.19.52.19h443.79c.23 0 .41-.08.53-.19v.01l.04-.05c.11-.11.18-.29.18-.52v-.78L301.75 341.61l-51.23 44.76c-4.27 3.74-10.75 3.78-15.09-.09z"/><path fill="#fff" fill-rule="nonzero" d="M426.16 128.55 324.85 23.92v-1.06H302v-.01H51.83v168.9l142.52 127.32c.21.17.42.36.62.55l48.13 42.99L437.13 193.1v-41.7l-10.97-22.85z"/><path fill="#FE0000" d="M241.77 124.2c5-8.9 11.02-16.15 17.82-21.68 34.12-27.72 83.68-9.76 92.59 34.01 1.63 7.98 1.58 16.16-.51 23.77-9.08 33.13-84.33 86.61-109.88 127.55h-.04c-25.56-40.94-100.81-94.42-109.89-127.55-2.08-7.61-2.13-15.79-.51-23.77 8.91-43.77 58.47-61.73 92.59-34.01 6.8 5.53 12.82 12.78 17.83 21.68z"/></svg>