<svg id="Layer_1" data-name="Layer 1" xmlns="http://www.w3.org/2000/svg" viewBox="0 0 119.55 122.88"><defs><style>.cls-1{fill-rule:evenodd;}</style></defs><title>wedding-card</title><path class="cls-1" d="M119.55,52.78v62.46a7.66,7.66,0,0,1-2.24,5.4l-.32.28a7.68,7.68,0,0,1-2.37,1.45,7.5,7.5,0,0,1-2.71.51H7.64a7.53,7.53,0,0,1-2.91-.59,7.77,7.77,0,0,1-2.48-1.66A7.64,7.64,0,0,1,0,115.24V45c0-3.93,2-5.11,4.3-6.4l.06,0v-14a6.23,6.23,0,0,1,6.23-6.23H32.86L57.42.85A4.82,4.82,0,0,1,60.16,0a4.72,4.72,0,0,1,2.72.87L87.07,18.34H109a6.23,6.23,0,0,1,6.22,6.23v14l.07,0a9.88,9.88,0,0,1,2.85,2.1A6.2,6.2,0,0,1,119.55,45v7.75Zm-60-6.6c2.76-2.88,4.69-5.36,8.94-5.85,8-.92,15.34,7.26,11.3,15.31a35.32,35.32,0,0,1-6.07,7.69c-2.83,2.94-6,5.82-8.17,8l-6,6-5-4.77c-6-5.74-15.69-13-16-21.93C38.38,44.31,43.33,40.29,49,40.36c5.09.07,7.23,2.6,10.55,5.82ZM76.33,88.47l36,27.91a1.34,1.34,0,0,0,.42-.28,1.23,1.23,0,0,0,.37-.86l.09-58.33L76.33,88.47Zm26.29,28L72.72,92.39l-11,9.39a3.32,3.32,0,0,1-4.45.07L45.45,91.44l-31.18,25Zm-96.21-1.6,34.9-27.34L6.4,57v57.83ZM59.47,94l47.85-41.81v-26H12.23V51.36L59.47,94Z"/></svg>