<svg id="Layer_1" data-name="Layer 1" xmlns="http://www.w3.org/2000/svg" viewBox="0 0 119.5 122.88"><defs><style>.cls-1{fill:#fdbe47;}.cls-2{fill:#cc3516;}.cls-3{fill:#db4429;}.cls-3,.cls-5,.cls-7{fill-rule:evenodd;}.cls-4{fill:#666;}.cls-5,.cls-6{fill:#fff;}.cls-7{fill:#ed1b24;}</style></defs><title>wedding-invitation-card</title><path class="cls-1" d="M.08,58.64V44.56c0-3.09,1.7-4.06,3.59-5.13.23-.13.47-.27.74-.45l.16-.12v13.4A4.71,4.71,0,0,0,6.47,56l2.92,2.6Zm32.59-39.8L58.3.57A3.24,3.24,0,0,1,62,.59L87.26,18.84Zm82.3,20,.17.13h0l.76.45c1.87,1.06,3.55,2,3.55,5.11V58.64H111l2.29-2A4.72,4.72,0,0,0,115,53.1h0V38.86Z"/><path class="cls-2" d="M119.46,52.52v64.11a6.15,6.15,0,0,1-1.82,4.36l-.26.23a6.12,6.12,0,0,1-4.09,1.58H6.25A6.15,6.15,0,0,1,1.9,121a6.11,6.11,0,0,1-1.82-4.35V52.52Z"/><path class="cls-3" d="M6.25,54.72,59.17,102l54.12-47.27c1.22-1.07,2.94,1.32,2.94,2.93v59a3,3,0,0,1-2.94,2.94H6.25a3,3,0,0,1-2.94-2.94v-59c0-1.61,1.73-4,2.94-2.93Z"/><path class="cls-4" d="M113.31,56.67l-50.83,43.7a4.7,4.7,0,0,1-6.16-.05L6.47,56a4.71,4.71,0,0,1-1.9-3.78V23.55a4.71,4.71,0,0,1,4.71-4.71h101A4.71,4.71,0,0,1,115,23.55V53.1h0a4.72,4.72,0,0,1-1.65,3.57Z"/><polygon class="cls-5" points="59.43 96.8 110.26 53.1 110.26 23.55 61.05 23.55 9.28 23.55 9.28 52.26 59.43 96.8 59.43 96.8"/><path class="cls-6" d="M0,52.92l.12-8.84C24.07,65,42,80.55,59.47,95.82l60-50.58,0,8.91L77.69,89.38l40,31.51c-2.2,2.6-6.28,1.91-8.6,1.91L72.35,93.88l-10.59,8.93a3.43,3.43,0,0,1-4.58.08l-11.4-10L7.64,122.8C4,123.08,2,121.55.8,119.52L40.55,88.34,0,52.92Z"/><path class="cls-7" d="M59.55,46.86c2.92-3,5-5.67,9.46-6.19,8.45-1,16.22,7.68,11.95,16.19-1.21,2.43-3.69,5.31-6.42,8.14-3,3.11-6.32,6.15-8.65,8.46l-6.34,6.29-5.24-5C48,68.63,37.72,61,37.38,51.52c-.24-6.64,5-10.89,11-10.81,5.38.07,7.64,2.75,11.15,6.15Z"/></svg>