<svg id="Layer_1" data-name="Layer 1" xmlns="http://www.w3.org/2000/svg" viewBox="0 0 121.86 122.88"><defs><style>.cls-1{fill-rule:evenodd;}</style></defs><title>wedding-date</title><path class="cls-1" d="M69.18,98.14l-.25.46A14.84,14.84,0,1,0,65,73.77l-.05.07a20.75,20.75,0,0,1,5.63,9.3,19.87,19.87,0,0,1-1.44,15ZM80.93,4.69C80.93,2.1,83.49,0,86.66,0s5.72,2.1,5.72,4.69V23.22c0,2.59-2.56,4.69-5.72,4.69s-5.73-2.1-5.73-4.69V4.69Zm-51.57,0C29.36,2.1,31.92,0,35.09,0s5.72,2.1,5.72,4.69V23.22c0,2.59-2.56,4.69-5.72,4.69s-5.73-2.1-5.73-4.69V4.69Zm-23,30.72H115.5V20.28a2.91,2.91,0,0,0-.85-2.05,2.86,2.86,0,0,0-2.05-.85H102.15a3.18,3.18,0,1,1,0-6.35h10.46a9.27,9.27,0,0,1,9.25,9.25v93.35a9.27,9.27,0,0,1-9.25,9.25H9.25A9.29,9.29,0,0,1,0,113.62V20.28A9.29,9.29,0,0,1,9.25,11H20.43a3.18,3.18,0,0,1,0,6.35H9.25a2.91,2.91,0,0,0-2,.85,2.88,2.88,0,0,0-.85,2.05V35.41Zm109.17,6.36H6.35v71.85a2.9,2.9,0,0,0,2.9,2.9H112.61a2.92,2.92,0,0,0,2.91-2.9V41.77ZM50,17.38A3.18,3.18,0,0,1,50,11H71.32a3.18,3.18,0,1,1,0,6.35ZM33.64,63.49l.19-.06,17-4.89L46.4,54.61l-11,3.16-1.8,5.72Zm-2.09.28,2.22-7.06a1,1,0,0,1,.71-.65l11.9-3.43a1,1,0,0,1,.89.21l5.47,4.84A.93.93,0,0,1,53,58.74l-3.34,9.33A20.82,20.82,0,0,1,60,70.29l0-.06a20.87,20.87,0,1,1,5.4,33.37l-.07.08A20.87,20.87,0,1,1,40,71l-8.07-6.13a1,1,0,0,1-.34-1Zm24.8,11.49-.13.17a20.86,20.86,0,0,0,4.15,24.62l-.08.09a14.84,14.84,0,1,1-3.94-24.88Zm5,3.47-.09.12A14.85,14.85,0,0,0,64,95.17l0-.09a14.86,14.86,0,0,0-2.72-16.35Z"/></svg>