<svg id="Layer_1" data-name="Layer 1" xmlns="http://www.w3.org/2000/svg" viewBox="0 0 122.88 123.91"><defs><style>.cls-1{fill:#1c1c1c;}.cls-2{fill:#b81616;}.cls-2,.cls-3{fill-rule:evenodd;}.cls-3{fill:#f44133;}</style></defs><title>wedding-anniversary-date</title><path class="cls-1" d="M81.61,4.73C81.61,2.12,84.19,0,87.38,0s5.77,2.12,5.77,4.73V23.41c0,2.61-2.58,4.73-5.77,4.73S81.61,26,81.61,23.41V4.73Zm-52,0C29.61,2.12,32.19,0,35.38,0s5.77,2.12,5.77,4.73V23.41c0,2.61-2.58,4.73-5.77,4.73S29.61,26,29.61,23.41V4.73ZM6.4,37.74H116.47V20.45a3,3,0,0,0-.86-2.07,2.92,2.92,0,0,0-2.07-.86H103a3.2,3.2,0,0,1,0-6.4h10.55a9.36,9.36,0,0,1,9.33,9.33v94.13a9.36,9.36,0,0,1-9.33,9.33H9.33A9.36,9.36,0,0,1,0,114.57V20.45a9.36,9.36,0,0,1,9.33-9.33H20.6a3.2,3.2,0,0,1,0,6.4H9.33a3,3,0,0,0-2.07.86,2.92,2.92,0,0,0-.86,2.07V37.74Zm110.08,6.41H6.4v70.42a3,3,0,0,0,.86,2.07,2.92,2.92,0,0,0,2.07.86H113.55a3,3,0,0,0,2.07-.86,2.92,2.92,0,0,0,.86-2.07V44.15ZM50.43,17.52a3.2,3.2,0,0,1,0-6.4H71.92a3.2,3.2,0,1,1,0,6.4Z"/><path class="cls-2" d="M62.13,63.82c4.73-2.87,8.21-5.5,14.08-4.63C85.11,60.51,91.33,69.64,89,78a13.76,13.76,0,0,0-6.43-2.77A12.46,12.46,0,0,0,74,76.92a13,13,0,0,0-8.23-6.18l-.68-.17a13.31,13.31,0,0,0-9.28,1.13,12.24,12.24,0,0,0-6,7.47c-.09.28-.15.57-.22.86-1.84,8,2.91,15.73,7.05,22.21L51,105.45l-4.93-8.17c-5.92-9.82-16.35-23-13.56-35.09,1.95-8.48,10-12.09,17.62-9.95,6.78,1.92,8.74,6.07,12,11.58Z"/><path class="cls-3" d="M72.73,81.93c3.13-1.9,5.44-3.65,9.32-3.07,7.3,1.09,11.87,10.08,6.38,16.26a32.81,32.81,0,0,1-7.21,5.38c-3.21,1.93-6.68,3.73-9.14,5.15l-6.74,3.85-3.26-5.41c-3.92-6.51-10.82-15.23-9-23.24,1.29-5.62,6.64-8,11.67-6.59,4.49,1.27,5.79,4,8,7.67Z"/></svg>