<svg xmlns="http://www.w3.org/2000/svg" shape-rendering="geometricPrecision" text-rendering="geometricPrecision" image-rendering="optimizeQuality" fill-rule="evenodd" clip-rule="evenodd" viewBox="0 0 439 511.6"><path fill="#3B2327" fill-rule="nonzero" d="M370.47 224.65a4.579 4.579 0 0 1 .8 6.42 4.579 4.579 0 0 1-6.42.8c-25.4-19.77-46.69-39.48-63.99-59.14-17.38-19.75-30.76-39.48-40.25-59.18-1.09-2.27-.14-5 2.13-6.1 2.27-1.09 5-.14 6.1 2.13 9.12 18.93 22.04 37.96 38.88 57.1 16.92 19.23 37.8 38.55 62.75 57.97zm37.26 78.01h-19.99l-20.89 197.49h60.16l-19.28-197.49zm-18.9-10.3h17.9l-1.45-14.83H390.4l-1.57 14.83zm-.23-25.13h16.66c3.36-69.78-13.07-120.89-44.62-157.33-20.73-23.95-48.08-41.7-80.69-54.35 1.13-2.76 1.89-5.57 2.31-8.37.14-.95.24-1.9.31-2.85 34.96 13.35 64.35 32.29 86.69 58.1 34.35 39.67 51.83 95.23 47.09 171.13l22.62 231.78c.3 3.13-2 5.92-5.14 6.21l-73.33.05c-3.16 0-5.72-2.57-5.72-5.73 0-.35.03-.7.1-1.03l24.34-230.14c-60.17-40.17-103.23-80.07-130.29-119.79-9.52-13.99-17.07-27.95-22.69-41.9 1.27.08 2.58-.2 3.77-.88l6.67-3.81c5.33 13.35 12.54 26.73 21.68 40.15 26.66 39.14 69.63 78.64 130.05 118.63l.19.13zM32.27 292.36h17.9l-1.57-14.83H33.72l-1.45 14.83zm18.99 10.3H31.27L11.99 500.15h60.16L51.26 302.66zm-.91-35.43h.05l.19-.13c60.42-39.99 103.39-79.49 130.05-118.63 8.66-12.72 15.6-25.41 20.83-38.07 1.56-.15 3.12-.64 4.57-1.47l10.44-5.99c-5.82 17.3-14.6 34.62-26.41 51.97-27.06 39.72-70.12 79.62-130.29 119.79l24.34 230.14c.07.33.1.68.1 1.03 0 3.16-2.56 5.73-5.72 5.73H5.7l-.53-.05a5.692 5.692 0 0 1-5.14-6.21l22.62-231.78c-4.74-75.9 12.74-131.46 47.09-171.13 22.37-25.85 51.82-44.82 86.86-58.17 1.12 3.62 2.52 7.16 4.12 10.65-33.35 12.69-61.28 30.63-82.36 54.99-31.55 36.44-47.98 87.55-44.62 157.33h16.61zM225.18 54.19c-.17 7.94-.94 15.89-2.33 23.84-2.1-3.43-4.07-6.96-5.49-10.38-1.7-4.1-2.65-8.07-1.88-11.4l.09-.36c.34-1.2.97-2.09 1.74-2.64l.4-.2c1.21-.64 2.77-.8 4.38-.44l.39.12c1.04.29 1.92.79 2.7 1.46zM80.11 231.87a4.58 4.58 0 0 1-6.42-.8c-1.55-2-1.19-4.87.81-6.42 24.95-19.42 45.83-38.74 62.74-57.97 16.84-19.13 29.77-38.17 38.89-57.1a4.564 4.564 0 1 1 8.22 3.97c-9.49 19.7-22.86 39.43-40.24 59.18-17.3 19.65-38.6 39.37-64 59.14z"/><path fill="#3B2327" d="M134.48 330.3v16.14c0 .96.82 1.77 1.77 1.77h72.95v110.47c-.65.35-1.22.84-1.8 1.33l-53.92 45.86h22l33.72-26.11v26.1h26.13v-25.43l33.06 25.44h22l-53.92-45.86c-.38-.32-.74-.67-1.14-.94V348.21h67.41c.96 0 1.78-.79 1.78-1.77V330.3H134.48z"/><path fill="#B81616" d="M220.77 22.38c8.68-5.26 15.08-10.11 25.86-8.5 16.36 2.43 27.77 19.18 23.53 34.57-3.36-2.6-7.39-4.43-11.82-5.09-6.76-1-11.31.59-15.81 3.08-3.32-5.15-7.01-9.06-15.11-11.33l-1.25-.34c-5.92-1.36-11.99-.61-17.05 2.1-5.12 2.73-9.19 7.36-11.08 13.73l-.41 1.56c-3.38 14.7 5.35 28.9 12.97 40.8l-10.32 5.9-9.05-15c-10.88-18.06-30.03-42.24-24.92-64.48 3.59-15.58 18.41-22.2 32.37-18.27 12.47 3.52 16.06 11.15 22.09 21.27z"/><path fill="#F44133" d="M240.24 55.65c5.75-3.49 9.99-6.7 17.13-5.63 13.41 1.99 21.8 18.51 11.72 29.86-2.87 3.23-7.87 6.65-13.24 9.88-5.91 3.55-12.28 6.86-16.81 9.46l-12.37 7.07-5.99-9.93c-7.2-11.96-19.89-27.97-16.5-42.7 2.37-10.31 12.19-14.7 21.43-12.1 8.26 2.34 10.64 7.39 14.63 14.09z"/></svg>