<svg xmlns="http://www.w3.org/2000/svg" shape-rendering="geometricPrecision" text-rendering="geometricPrecision" image-rendering="optimizeQuality" fill-rule="evenodd" clip-rule="evenodd" viewBox="0 0 404 512.07"><path d="m329.16 128.68-.69 1.29c8.58 3.7 18.45 4.56 28.16 1.76 22.26-6.41 35.09-29.65 28.68-51.9-6.42-22.25-29.66-35.09-51.91-28.68a41.683 41.683 0 0 0-15.93 8.68l-.14.18c7.3 6.96 12.91 15.9 15.91 26.3 4.34 15.07 2.6 29.45-4.08 42.37zM155.23 337.55c-6.05 0-10.95-5.84-10.95-13.04 0-7.19 4.9-13.03 10.95-13.03h128.94c6.04 0 10.95 5.84 10.95 13.03 0 7.2-4.91 13.04-10.95 13.04H155.23zm0 75.9c-6.05 0-10.95-5.84-10.95-13.03 0-7.2 4.9-13.04 10.95-13.04h127.4c6.05 0 10.95 5.84 10.95 13.04 0 7.19-4.9 13.03-10.95 13.03h-127.4zm-79.71-31.83h32.75c2.36 0 4.28 1.94 4.28 4.29v29.02c0 2.35-1.93 4.29-4.28 4.29H75.52c-2.35 0-4.29-1.93-4.29-4.29v-29.02c0-2.36 1.93-4.29 4.29-4.29zm0-154.14h32.75c2.36 0 4.28 1.94 4.28 4.29v29.02c0 2.34-1.94 4.29-4.28 4.29H75.52c-2.35 0-4.29-1.93-4.29-4.29v-29.02c0-2.36 1.93-4.29 4.29-4.29zm79.71 31.83c-6.05 0-10.95-5.83-10.95-13.03 0-7.2 4.9-13.04 10.95-13.04h128.94c6.04 0 10.95 5.84 10.95 13.04 0 7.2-4.91 13.03-10.95 13.03H155.23zm-88.61 68.47c-2.64-2.72-2.03-7.3 1.36-10.21 3.39-2.91 8.28-3.06 10.92-.34l7.62 7.87 19.07-19.55c2.65-2.71 7.24-2.22 10.24 1.09 3 3.31 3.28 8.2.63 10.9l-25.3 25.93c-2.65 2.71-7.24 2.22-10.24-1.09-.2-.22-.39-.45-.57-.69-.42-.26-.81-.57-1.16-.93l-12.57-12.98zm60.76-196.9c5.63-3.41 9.77-6.55 16.75-5.5 13.11 1.94 21.33 18.1 11.47 29.2-2.81 3.16-7.7 6.51-12.96 9.66-5.77 3.47-12 6.72-16.43 9.25l-12.09 6.92-5.86-9.71c-7.05-11.7-19.46-27.36-16.14-41.76 2.32-10.09 11.92-14.38 20.96-11.83 8.07 2.28 10.4 7.22 14.3 13.77zm-20.26-34.39c8.7-5.28 15.12-10.13 25.92-8.52 15.8 2.34 27 18.02 23.98 32.95a27.22 27.22 0 0 0-11.56-4.59c-6.35-.95-10.82.18-14.99 2.21-3.23-4.55-7.19-8.05-14.93-10.23l-1.34-.34c-6.41-1.48-12.97-.67-18.46 2.25-5.69 3.03-10.18 8.21-12.2 15.37l-.33 1.31c-3.46 15.05 4.91 29.15 12.51 41.02l-9.13 5.22-9.07-15.03c-10.9-18.1-30.1-42.34-24.98-64.63 3.6-15.61 18.45-22.25 32.44-18.31 12.5 3.53 16.1 11.19 22.14 21.32zm241.89 415.58H27.1c-7.42 0-14.22-3.05-19.14-7.97C3.06 499.2 0 492.44 0 484.97V52.84c0-7.47 3.05-14.25 7.95-19.15 4.9-4.91 11.69-7.95 19.15-7.95h168.49c-.73 3.3-.89 6.7-.52 10.02.19 2.02.61 4.06 1.26 6.07.81 2.51 1.97 4.93 3.46 7.2H27.1c-1.04 0-1.99.43-2.68 1.13-.69.69-1.13 1.64-1.13 2.68v432.13c0 1.02.44 1.96 1.14 2.66.71.71 1.66 1.15 2.67 1.15h310.32l.08-310.83c7.59.66 15.38.32 23.2-1.13l-.09 323.61c0 6.4-5.19 11.59-11.6 11.59v.05zM318.5 144.11l-.2.23c-6.82 6.84-15.44 12.1-25.38 14.96-31.29 9.03-63.98-9.03-72.99-40.31-7.62-26.41 4.04-53.8 26.67-67.14l-22.8-17.32c-.93-.71-1.27-1.9-.95-2.95l6.27-19.95c.3-.97 1.1-1.64 2.03-1.84L264.74.11c.92-.27 1.86-.02 2.53.57l15.45 13.67c.87.78 1.13 1.99.72 3.02l-9.45 26.35c10.25-.45 20.25 1.8 29.12 6.27l.11-.16c6.84-6.88 15.48-12.16 25.46-15.04 31.29-9.02 63.97 9.03 73 40.32 9.02 31.29-9.04 63.97-40.33 72.99-14.86 4.29-30.04 2.46-42.85-3.99zm-25.59-80.08-.34.47c-6.63 12.9-8.54 28.25-4.21 43.28 3 10.4 8.61 19.34 15.92 26.31l-.21.23a41.812 41.812 0 0 1-15.87 8.62c-22.25 6.41-45.49-6.42-51.91-28.68-6.41-22.25 6.42-45.48 28.67-51.9a41.759 41.759 0 0 1 27.95 1.67zm14.15 9.81-.25.33a41.762 41.762 0 0 0-2.08 28.89 41.744 41.744 0 0 0 9.85 17.23l.16-.27a41.699 41.699 0 0 0 2.13-28.99 41.742 41.742 0 0 0-9.81-17.19zm-78.29-43.05c.17-.07.35-.13.53-.17l48.02-13.84L264.8 5.7l-30.95 8.92-5.08 16.17z"/></svg>