<svg xmlns="http://www.w3.org/2000/svg" shape-rendering="geometricPrecision" text-rendering="geometricPrecision" image-rendering="optimizeQuality" fill-rule="evenodd" clip-rule="evenodd" viewBox="0 0 438 511.96"><path fill="#3D2525" d="M54.55 268.69c77.71-52.27 126.75-103.89 149.49-155.15l-6.61 3.78-15.27-25.31c-1.91-3.16-3.73-6.01-5.62-8.96-7.42-11.57-15.76-24.6-19.89-38.46C69.04 77.98 16.75 146.18 22.93 268.7l.29-.01h31.33zm328.9 0c-77.63-52.21-126.63-103.78-149.41-154.99l10.68-6.11 5.67-3.16c3.56-1.95 7.53-4.13 11.65-6.6 2.85-1.72 5.67-3.53 8.25-5.42 2.72-1.97 5.11-4 6.93-6.03 3.45-3.88 5.38-8.27 6.04-12.71.64-4.34.05-8.69-1.51-12.65l-.23-.58c2.12-3.95 3.44-8.04 4.04-12.12.1-.66.18-1.33.24-1.99 84.93 33.98 135.34 101.94 129.27 222.37l-.29-.01h-31.33zm-21.7-43.87c1.53 1.19 1.8 3.4.61 4.93a3.516 3.516 0 0 1-4.93.62c-25.96-20.21-47.72-40.36-65.39-60.44-17.73-20.14-31.37-40.26-41.05-60.34a3.517 3.517 0 0 1 1.63-4.69c1.75-.84 3.85-.11 4.69 1.64 9.39 19.48 22.68 39.07 40.01 58.75 17.37 19.75 38.81 39.59 64.43 59.53zm53.31 52.06 1.71 17.54h-30.32l1.85-17.53h26.48l.28-.01zm2.51 25.73L438 511.96h-74.56l22.14-209.33h31.58l.41-.02zm-337-72.24a3.516 3.516 0 0 1-4.93-.62 3.515 3.515 0 0 1 .61-4.93c25.62-19.94 47.06-39.78 64.44-59.53 17.32-19.68 30.61-39.27 40-58.75a3.512 3.512 0 0 1 4.69-1.64c1.74.84 2.47 2.94 1.63 4.69-9.68 20.08-23.32 40.2-41.05 60.34-17.67 20.08-39.43 40.23-65.39 60.44zm-57.63 46.51-1.71 17.54h30.32l-1.85-17.53H23.22l-.28-.01zm-2.51 25.73L0 511.96h74.56L52.42 302.63H20.84l-.41-.02z"/><path fill="#B81616" d="M222.59 22.92c8.89-5.39 15.44-10.36 26.48-8.71 16.76 2.49 28.45 19.65 24.09 35.41-3.43-2.67-7.56-4.54-12.09-5.21-6.93-1.03-11.58.6-16.2 3.15-3.39-5.27-7.18-9.28-15.49-11.62l-1.25-.33c-6.05-1.39-12.26-.62-17.48 2.13-5.32 2.83-9.54 7.7-11.44 14.41l-.32 1.27c-3.46 15.05 5.48 29.6 13.28 41.78l-10.56 6.04-9.27-15.36c-11.14-18.49-30.76-43.26-25.52-66.03 3.67-15.96 18.85-22.74 33.14-18.71 12.77 3.6 16.46 11.42 22.63 21.78z"/><path fill="#F44133" d="M242.53 56.99c5.89-3.57 10.23-6.86 17.54-5.77 13.73 2.04 22.33 18.96 12 30.59-2.94 3.31-8.05 6.81-13.56 10.12-6.04 3.63-12.57 7.02-17.21 9.68l-12.67 7.24-6.13-10.17c-7.38-12.24-20.37-28.64-16.9-43.72 2.43-10.57 12.48-15.06 21.95-12.39 8.45 2.38 10.89 7.56 14.98 14.42z"/><path fill="#3D2525" d="M134.2 332.11v16.54c0 .98.84 1.82 1.81 1.82h74.72v113.16c-.66.35-1.25.85-1.84 1.35l-55.23 46.98h22.54l34.53-26.74v26.73h26.77V485.9l33.87 26.06h22.53l-55.23-46.98c-.39-.33-.76-.68-1.17-.96V350.47h69.06c.98 0 1.81-.82 1.81-1.82v-16.54H134.2z"/></svg>