<?xml version="1.0" encoding="utf-8"?><svg version="1.1" id="Layer_1" xmlns="http://www.w3.org/2000/svg" xmlns:xlink="http://www.w3.org/1999/xlink" x="0px" y="0px" viewBox="0 0 122.88 112.43" style="enable-background:new 0 0 122.88 112.43" xml:space="preserve"><g><path d="M10.94,31.01c-0.05-0.25-0.03-0.51,0.05-0.74l3.48-11.06c0.16-0.53,0.6-0.9,1.1-1l18.7-5.39c0.5-0.14,1.01-0.01,1.37,0.31 l0,0l8.52,7.54c0.15,0.11,0.27,0.26,0.37,0.42c0.23,0.39,0.26,0.86,0.1,1.28l-4.76,13.26c6.32-0.29,12.49,1,18.02,3.61 c2.1-2.01,4.44-3.8,6.99-5.31c2.73-1.61,5.72-2.92,8.93-3.84c10.19-2.94,20.61-1.47,29.2,3.28c8.6,4.75,15.39,12.79,18.33,22.99 c2.94,10.19,1.47,20.61-3.28,29.2c-4.75,8.6-12.79,15.39-22.99,18.33c-9.32,2.69-18.82,1.69-26.95-2.13 c-2.11,2.02-4.46,3.81-7.02,5.32c-2.72,1.61-5.7,2.9-8.9,3.83c-10.19,2.94-20.61,1.47-29.2-3.28c-8.6-4.75-15.39-12.79-18.33-22.99 c-2.94-10.19-1.47-20.61,3.28-29.2c3.4-6.16,8.48-11.39,14.84-14.94l-11.31-8.6C11.19,31.68,11,31.35,10.94,31.01L10.94,31.01z M6.69,31.24l-0.16,0.05C6.13,29.94,5.29,28.92,4,28.2c-1.29-0.71-2.61-0.88-3.95-0.49L0,27.55c1.34-0.39,2.37-1.23,3.09-2.52 c0.71-1.3,0.88-2.61,0.49-3.95l0.16-0.05c0.39,1.34,1.23,2.37,2.52,3.09c1.29,0.71,2.61,0.88,3.95,0.49l0.05,0.16 c-1.34,0.39-2.37,1.23-3.09,2.52C6.46,28.58,6.3,29.9,6.69,31.24L6.69,31.24L6.69,31.24z M17.03,12l-0.16,0.05 c-0.39-1.34-1.23-2.37-2.52-3.09c-1.29-0.71-2.61-0.88-3.95-0.49l-0.05-0.16c1.34-0.39,2.37-1.23,3.09-2.52 c0.71-1.3,0.88-2.61,0.49-3.95l0.16-0.05c0.39,1.34,1.23,2.37,2.52,3.09s2.61,0.88,3.95,0.49l0.05,0.16 c-1.34,0.39-2.37,1.23-3.09,2.52C16.8,9.34,16.64,10.66,17.03,12L17.03,12L17.03,12z M40.83,10.22l-0.16,0.05 c-0.39-1.34-1.23-2.37-2.52-3.09c-1.29-0.71-2.61-0.88-3.95-0.49l-0.05-0.16c1.34-0.39,2.37-1.23,3.09-2.52 c0.71-1.3,0.88-2.61,0.49-3.95L37.89,0c0.39,1.34,1.23,2.37,2.52,3.09c1.29,0.71,2.61,0.88,3.95,0.49l0.05,0.16 c-1.34,0.39-2.37,1.23-3.09,2.52C40.61,7.55,40.45,8.87,40.83,10.22L40.83,10.22L40.83,10.22z M60.66,40.68 c2.31,1.32,4.48,2.88,6.48,4.66c1.26-1,2.61-1.91,4.05-2.69c1.74-0.95,3.61-1.72,5.6-2.29c7.36-2.12,14.88-1.06,21.09,2.37 c6.21,3.43,11.12,9.24,13.24,16.6c2.12,7.36,1.06,14.88-2.37,21.09c-3.43,6.21-9.24,11.12-16.6,13.24 c-3.08,0.89-6.19,1.22-9.22,1.05c-3.14-0.17-6.2-0.89-9.05-2.07c-1.79-0.74-3.5-1.67-5.09-2.75c-1.59-1.09-3.06-2.34-4.41-3.74 c-1.52-1.59-2.86-3.37-3.97-5.32c-1.08-1.88-1.95-3.93-2.59-6.14c-0.93-3.24-1.25-6.5-1.03-9.67c0.22-3.05,0.94-6.01,2.11-8.77 c-1.59-1.55-3.38-2.87-5.31-3.94c-0.37-0.21-0.75-0.4-1.14-0.59c-1.77,3.7-2.9,7.71-3.31,11.86c-0.42,4.34-0.05,8.82,1.23,13.26 c2.71,9.41,8.99,16.83,16.94,21.22c7.95,4.39,17.58,5.75,26.99,3.04c9.41-2.71,16.83-8.99,21.22-16.94 c4.39-7.95,5.75-17.58,3.04-26.99c-2.71-9.41-8.99-16.83-16.94-21.22c-7.95-4.39-17.58-5.75-26.99-3.04 c-2.94,0.85-5.7,2.05-8.24,3.55C64.32,37.68,62.4,39.1,60.66,40.68L60.66,40.68z M69.27,47.38c4.2,4.36,7.43,9.78,9.22,16 c1.39,4.82,1.79,9.68,1.33,14.38c-0.44,4.43-1.64,8.71-3.51,12.67c2.16,0.75,4.44,1.21,6.78,1.34c2.72,0.15,5.5-0.14,8.26-0.94 c6.58-1.9,11.76-6.28,14.83-11.84c3.07-5.56,4.02-12.29,2.13-18.88c-1.9-6.58-6.28-11.76-11.84-14.84 c-5.56-3.07-12.29-4.02-18.88-2.13c-1.77,0.51-3.44,1.2-5,2.05C71.41,45.85,70.3,46.58,69.27,47.38L69.27,47.38z M73.6,89.3 c1.76-3.69,2.9-7.69,3.3-11.83c0.43-4.35,0.05-8.85-1.23-13.3c-2.71-9.41-8.99-16.83-16.94-21.22c-7.07-3.9-15.46-5.41-23.84-3.8 c-1.04,0.23-2.05,0.48-3.05,0.77c-1.34,0.39-2.67,0.84-3.96,1.34c-7.58,3.16-13.59,8.75-17.36,15.58 c-4.39,7.95-5.75,17.58-3.04,26.99c2.71,9.41,8.99,16.83,16.94,21.22c7.95,4.39,17.58,5.75,26.99,3.04 c2.93-0.85,5.68-2.05,8.22-3.54c2.08-1.23,4.01-2.65,5.76-4.23c-2.31-1.32-4.48-2.88-6.48-4.66c-1.27,1.02-2.63,1.93-4.07,2.71 c-1.72,0.93-3.58,1.7-5.57,2.27c-7.36,2.12-14.88,1.06-21.09-2.37c-6.21-3.43-11.12-9.24-13.24-16.6l0-0.01 c-2.12-7.36-1.06-14.87,2.37-21.08c3.43-6.21,9.24-11.12,16.6-13.24l0.01,0c7.36-2.12,14.87-1.06,21.08,2.37 c6.21,3.43,11.12,9.24,13.24,16.6l0,0c0.94,3.25,1.25,6.53,1.02,9.7c-0.22,3.03-0.94,5.98-2.11,8.73c1.02,0.99,2.12,1.89,3.29,2.69 C71.45,88.15,72.51,88.77,73.6,89.3L73.6,89.3z M56.78,93.63c-4.2-4.36-7.43-9.78-9.22-16c-1.38-4.8-1.79-9.65-1.34-14.34 c0.43-4.45,1.64-8.74,3.51-12.71c-4.64-1.62-9.81-1.88-14.9-0.45c-0.08,0.03-0.17,0.06-0.26,0.08c-6.52,1.92-11.66,6.28-14.71,11.8 c-3.05,5.52-4.01,12.2-2.16,18.74c0.03,0.08,0.06,0.17,0.08,0.26c1.92,6.52,6.28,11.66,11.8,14.71c5.56,3.07,12.29,4.02,18.88,2.13 c1.74-0.5,3.41-1.19,4.98-2.04C54.63,95.17,55.74,94.44,56.78,93.63L56.78,93.63z M61.09,58.68c-0.75,2.09-1.22,4.29-1.38,6.54 c-0.2,2.85,0.08,5.77,0.91,8.66c0.56,1.94,1.35,3.78,2.33,5.48c0.6,1.05,1.28,2.05,2.01,2.98c0.74-2.08,1.21-4.26,1.37-6.5 c0.21-2.81-0.06-5.7-0.87-8.56c-0.03-0.08-0.06-0.17-0.08-0.26C64.47,63.89,62.99,61.09,61.09,58.68L61.09,58.68z M27.02,38.48 c1.27-0.52,2.58-0.98,3.93-1.37c1.03-0.3,2.05-0.55,3.08-0.75c0.89-0.2,1.78-0.38,2.68-0.53l4.24-11.81l-25.38,7.32l10.11,7.68 C26.11,38.83,26.56,38.65,27.02,38.48L27.02,38.48z M14.59,28.58l25.72-7.42l-6-5.31l-17.27,4.98L14.59,28.58L14.59,28.58z"/></g></svg>