<svg xmlns="http://www.w3.org/2000/svg" shape-rendering="geometricPrecision" text-rendering="geometricPrecision" image-rendering="optimizeQuality" fill-rule="evenodd" clip-rule="evenodd" viewBox="0 0 512 152.76"><path fill-rule="nonzero" d="M76.38 0c21.02 0 40.1 8.55 53.95 22.38l.08.08c13.81 13.84 22.35 32.91 22.35 53.92 0 21.03-8.56 40.13-22.41 53.97-13.79 13.85-32.89 22.41-53.97 22.41-21.07 0-40.18-8.56-54-22.38C8.56 116.56 0 97.46 0 76.38s8.56-40.18 22.38-54l.82-.76C36.98 8.25 55.76 0 76.38 0z"/><circle fill="#F38CA1" cx="76.38" cy="76.38" r="62.12"/><path fill-rule="nonzero" d="M76.39 34.88c11.41 0 21.79 4.65 29.3 12.15 7.54 7.55 12.2 17.93 12.2 29.34 0 11.44-4.66 21.85-12.16 29.34-7.5 7.51-17.89 12.17-29.34 12.17-11.4 0-21.78-4.65-29.3-12.17-7.57-7.58-12.21-17.94-12.21-29.34 0-11.45 4.66-21.83 12.17-29.34 7.49-7.5 17.9-12.15 29.34-12.15z"/><circle fill="#333" cx="76.38" cy="76.38" r="31.72"/><path fill-rule="nonzero" d="M256 0c21.02 0 40.1 8.55 53.95 22.38l.07.08c13.82 13.84 22.36 32.91 22.36 53.92 0 21.03-8.56 40.13-22.41 53.97-13.79 13.85-32.88 22.41-53.97 22.41-21.08 0-40.18-8.56-54-22.38-13.82-13.82-22.38-32.92-22.38-54s8.56-40.18 22.38-54l.82-.76C216.6 8.25 235.38 0 256 0z"/><circle fill="#B5CB8B" cx="256" cy="76.38" r="62.12"/><path fill-rule="nonzero" d="M435.62 0c21.02 0 40.1 8.55 53.95 22.38l.08.08C503.45 36.3 512 55.37 512 76.38c0 21.03-8.56 40.13-22.41 53.97-13.79 13.85-32.88 22.41-53.97 22.41-21.08 0-40.18-8.56-54-22.38-13.82-13.82-22.38-32.92-22.38-54s8.56-40.18 22.38-54l.82-.76C396.22 8.25 415 0 435.62 0z"/><circle fill="#69AFE3" cx="435.62" cy="76.38" r="62.12"/><path fill-rule="nonzero" d="M256.01 34.88c11.41 0 21.79 4.65 29.3 12.15 7.54 7.55 12.2 17.93 12.2 29.34 0 11.44-4.66 21.85-12.16 29.34-7.51 7.51-17.89 12.17-29.34 12.17-11.4 0-21.78-4.65-29.3-12.17-7.57-7.58-12.21-17.94-12.21-29.34 0-11.45 4.66-21.83 12.17-29.34 7.49-7.5 17.9-12.15 29.34-12.15z"/><circle fill="#333" cx="256" cy="76.38" r="31.72"/><path fill-rule="nonzero" d="M435.63 34.88c11.41 0 21.79 4.65 29.3 12.15 7.54 7.55 12.2 17.93 12.2 29.34 0 11.44-4.66 21.85-12.16 29.34-7.51 7.51-17.89 12.17-29.34 12.17-11.4 0-21.78-4.65-29.3-12.17-7.57-7.58-12.21-17.94-12.21-29.34 0-11.45 4.66-21.83 12.17-29.34 7.5-7.5 17.9-12.15 29.34-12.15z"/><circle fill="#333" cx="435.62" cy="76.38" r="31.72"/></svg>