<svg xmlns="http://www.w3.org/2000/svg" shape-rendering="geometricPrecision" text-rendering="geometricPrecision" image-rendering="optimizeQuality" fill-rule="evenodd" clip-rule="evenodd" viewBox="0 0 511.65 386.05"><path fill-rule="nonzero" d="M457.44 287.63v-13.15h40.77c3.73 0 7.08-1.53 9.49-3.94 2.44-2.43 3.95-5.83 3.95-9.5V152.45c0-3.69-1.54-7.08-3.96-9.49-2.41-2.4-5.79-3.95-9.48-3.95h-40.77V96.82c0-23.55-19.28-42.8-42.8-42.8h-249.6l35.74 28.54h210.51c9.67 0 17.6 7.92 17.6 17.59v164.67l28.55 22.81zM10.42 29.77C3.2 24.03 2 13.53 7.74 6.31 13.47-.91 23.98-2.11 31.2 3.62l441.39 352.66c7.22 5.74 8.41 16.24 2.68 23.46-5.73 7.22-16.24 8.42-23.46 2.68l-29.57-23.62c-2.47.45-5.01.68-7.6.68H42.8c-23.51 0-42.8-19.27-42.8-42.8V96.82c0-22.9 18.18-41.72 40.83-42.76L10.42 29.77zm376.94 301.16L76.5 82.56H46.15c-9.64 0-17.6 7.96-17.6 17.59v213.18c0 9.68 7.91 17.6 17.6 17.6h341.21z"/></svg>