<svg xmlns="http://www.w3.org/2000/svg" shape-rendering="geometricPrecision" text-rendering="geometricPrecision" image-rendering="optimizeQuality" fill-rule="evenodd" clip-rule="evenodd" viewBox="0 0 512 512"><path fill-rule="nonzero" d="M358.33 306.63h51.22c28.09 0 52.29 10.15 72.35 30.34 20.07 20.3 30.1 44.37 30.1 72.35 0 27.97-10.03 52.05-30.1 72.35-20.06 20.18-44.14 30.33-72.23 30.33-27.85 0-51.93-10.03-72.11-30.1-20.19-20.06-30.22-44.26-30.22-72.35v-51.22H204.66v51.22c0 27.74-10.03 51.7-30.1 72-20.06 20.3-44.14 30.45-72.23 30.45-27.62 0-51.58-10.03-71.88-29.98C10.15 461.96 0 437.76 0 409.32c0-28.21 10.15-52.41 30.33-72.47 20.19-20.18 44.15-30.22 72.12-30.22h51.22V205.37h-51.22c-27.97 0-51.93-10.04-72.12-30.22C10.15 155.09 0 130.89 0 102.68c0-28.2 10.03-52.4 30.21-72.47C50.4 10.03 74.48 0 102.33 0s51.93 10.03 72.11 30.1c20.19 20.06 30.22 44.26 30.22 72.35v51.22h102.68v-51.22c0-28.09 10.03-52.29 30.22-72.35C357.74 10.03 381.82 0 409.67 0s51.93 10.03 72.12 30.21C501.97 50.28 512 74.48 512 102.68c0 27.98-10.03 52.05-30.1 72.35-20.06 20.19-44.26 30.34-72.35 30.34h-51.22v101.26zm0-152.96h51.34c14.17 0 26.2-5.07 36.23-15.11 10.04-10.15 15.11-22.07 15.11-35.88 0-13.81-5.07-25.73-15.11-35.88-10.03-10.03-22.06-15.1-36.23-15.1-14.04 0-26.2 4.95-36.23 14.99-10.04 10.03-15.11 21.95-15.11 35.99v50.99zM153.67 358.33h-51.34c-14.05 0-26.2 5.07-36.23 15.11-10.04 10.15-15.11 22.07-15.11 35.88 0 13.81 5.07 25.73 15.11 35.88 10.03 10.03 22.18 15.11 36.23 15.11 14.16 0 26.2-5.08 36.23-15.11 10.03-10.15 15.11-22.07 15.11-35.88v-50.99zm0-204.66v-50.99c0-13.81-5.08-25.73-15.22-35.88-10.27-10.03-22.19-15.1-36.12-15.1-13.69 0-25.61 4.95-35.88 14.87-10.27 9.79-15.46 21.83-15.46 36.11 0 14.05 5.07 25.97 15.11 36 10.03 10.03 22.18 14.99 36.23 14.99h51.34zm204.66 204.66v50.99c0 14.04 5.07 25.96 15.22 35.99 10.27 10.04 22.19 15 36.12 15 13.93 0 25.85-4.96 36.12-15 10.15-10.03 15.22-21.95 15.22-35.99 0-14.05-5.07-25.97-15.11-36-10.03-10.03-22.06-14.99-36.23-14.99h-51.34zm-50.99-51.7V205.37H204.66v101.26h102.68z"/></svg>