<svg xmlns="http://www.w3.org/2000/svg" shape-rendering="geometricPrecision" text-rendering="geometricPrecision" image-rendering="optimizeQuality" fill-rule="evenodd" clip-rule="evenodd" viewBox="0 0 512 373.16"><path d="M12.24 0h425.53c6.73 0 12.22 5.49 12.22 12.23v28.63h-16V28.27c0-5.93-4.83-10.8-10.8-10.8H26.85c-5.95 0-10.84 4.84-10.81 10.8v220.6c0 5.93 4.87 10.81 10.81 10.81h317.84v46.69H12.24C5.5 306.37 0 300.87 0 294.14V12.23C0 5.49 5.5 0 12.24 0zm372.8 65.82h111.64c8.42 0 15.32 6.89 15.32 15.33v246.93c0 8.43-6.9 15.32-15.32 15.32H385.04c-8.43 0-15.32-6.89-15.32-15.32V81.15c0-8.44 6.89-15.33 15.32-15.33zm88.71 64.63h14.1v5.14h-14.1v-5.14zm-32.9 149.52c9.19 0 16.65 7.47 16.65 16.65 0 9.2-7.46 16.66-16.65 16.66-9.19 0-16.66-7.46-16.66-16.66.03-9.18 7.47-16.65 16.66-16.65zm-50.38-164.04h100.78c1.77 0 3.2 1.45 3.2 3.19v19.69c0 1.75-1.45 3.19-3.2 3.19H390.47c-1.78 0-3.2-1.44-3.2-3.19v-19.69a3.2 3.2 0 0 1 3.2-3.19zM169.52 323.25h110.96c.29 19.19 8.2 36.4 29.62 49.91H139.9c17.13-12.41 29.7-27.5 29.62-49.91z"/></svg>