<svg xmlns="http://www.w3.org/2000/svg" shape-rendering="geometricPrecision" text-rendering="geometricPrecision" image-rendering="optimizeQuality" fill-rule="evenodd" clip-rule="evenodd" viewBox="0 0 512 399.22"><path d="M14.83 0h482.35C505.34 0 512 6.66 512 14.83v288.61c0 8.17-6.66 14.83-14.82 14.83H14.83C6.66 318.27 0 311.61 0 303.44V14.83C0 6.66 6.66 0 14.83 0zm284.26 147.4c.17 4.15.03 20.16-.41 24.29l19.46 9.87a7.19 7.19 0 0 1 3.82 5.06l8.29 31.98c.88 3.87-1.56 7.72-5.44 8.6a7.19 7.19 0 0 1-8.59-5.44l-7.59-28.89-12.88-6.53c-6.09 20.2-19.69 30.67-35.81 31.9V133.5h35.41l15.91-5.5 6.89-22.82c1.13-3.81 5.15-5.99 8.96-4.85 3.81 1.14 5.98 5.15 4.84 8.96l-7.94 26.35-.02-.01a7.227 7.227 0 0 1-4.55 4.75l-20.35 7.02zm-45.57 70.84c-16.26-1.2-29.98-11.84-36.01-32.29l-14.09 6.4-6.45 29.18c-.74 3.91-4.52 6.47-8.43 5.72-3.9-.75-6.46-4.52-5.71-8.42l7.13-32.71a7.16 7.16 0 0 1 4.14-5.35l20.56-9.34c-.41-4.06-.55-19.99-.39-24.07l-21.71-7.5c-2.27-.78-3.9-2.6-4.55-4.73h-.02l-7.94-26.34a7.207 7.207 0 0 1 4.84-8.97c3.81-1.13 7.83 1.03 8.96 4.85l6.89 22.82 17.38 6 35.4.01v84.74zm2.71-127.37c2.71 0 5.33.5 7.85 1.45.93-2.06 1.77-3.97 2.54-5.72 8.06-18.32 9.1-20.71 36.87-28.84 2.6-.78 5.32.71 6.08 3.3.77 2.6-.72 5.33-3.32 6.1-23.37 6.85-24.21 8.75-30.64 23.4-.9 2.04-1.89 4.29-3.07 6.88 7.32 6.31 13.06 16.74 16.02 29.35h-64.67c2.96-12.61 8.7-23.04 16.03-29.35a378.14 378.14 0 0 1-3.07-6.88c-6.44-14.65-7.28-16.55-30.65-23.4-2.6-.77-4.09-3.5-3.33-6.09.78-2.6 3.49-4.09 6.09-3.31 27.76 8.13 28.82 10.52 36.87 28.85.77 1.75 1.61 3.66 2.54 5.71a22.14 22.14 0 0 1 7.85-1.44l.01-.01zm12.17 14.41c3.61 0 6.55 2.93 6.55 6.54 0 3.62-2.94 6.54-6.55 6.54s-6.54-2.92-6.54-6.54c0-3.61 2.93-6.54 6.54-6.54zm-24.35 0c3.61 0 6.54 2.93 6.54 6.54 0 3.62-2.93 6.54-6.54 6.54a6.53 6.53 0 0 1-6.54-6.54c0-3.61 2.92-6.54 6.54-6.54zm79.19 233.45c.35 23.25 9.94 44.11 35.9 60.49H152.86c20.91-15.15 36-33.45 35.91-60.49h134.47zM28.36 17h455.32c7.24 0 13.1 5.91 13.1 13.09v222.67c0 7.19-5.91 13.09-13.1 13.09H28.36c-7.19 0-13.09-5.9-13.09-13.09V30.09C15.22 22.87 21.16 17 28.36 17z"/></svg>