<svg xmlns="http://www.w3.org/2000/svg" shape-rendering="geometricPrecision" text-rendering="geometricPrecision" image-rendering="optimizeQuality" fill-rule="evenodd" clip-rule="evenodd" viewBox="0 0 512 512"><path fill-rule="nonzero" d="m1.99 380.89 378.9-378.9C382.2.67 383.93.02 385.67.02l.02-.02c1.73 0 3.48.67 4.8 1.99l32.94 32.93a5.728 5.728 0 0 1 0 8.09l-5.33 5.32 5.11 5.12 5.33-5.33a5.716 5.716 0 0 1 8.08 0l14.83 14.82c2.23 2.23 2.23 5.85 0 8.09l-5.33 5.32 5.11 5.11 5.33-5.32a5.716 5.716 0 0 1 8.08 0l45.38 45.38a6.784 6.784 0 0 1 1.98 4.8c0 1.73-.66 3.48-1.98 4.8L337.78 303.36a5.716 5.716 0 0 1-8.08 0l-10.94-10.94-8.08 8.08 10.94 10.93c2.23 2.24 2.23 5.86 0 8.09l-190.5 190.5a6.784 6.784 0 0 1-4.8 1.98c-1.73 0-3.48-.65-4.81-1.98l-47.47-47.47c-2.23-2.24-2.23-5.86 0-8.09l6.36-6.35-7.39-7.38-6.35 6.35a5.716 5.716 0 0 1-8.08 0l-14.5-14.5a5.716 5.716 0 0 1 0-8.08l6.35-6.36-7.38-7.38-6.35 6.36a5.728 5.728 0 0 1-8.09 0L1.98 390.49a6.802 6.802 0 0 1-1.98-4.8c0-.33.03-.66.08-.97.2-1.41.84-2.77 1.91-3.83zm234.72-188.72 28.73-28.74a7.36 7.36 0 0 1 4.63-2.13c1.95-.15 3.89.48 5.33 1.92l52.42 52.42c1.44 1.44 2.06 3.38 1.91 5.32l-.03.3a7.41 7.41 0 0 1-2.1 4.34l-28.73 28.73c-1.29 1.29-2.98 2.03-4.65 2.15l-.65.01c-1.71-.03-3.38-.66-4.66-1.94l-52.42-52.43c-1.44-1.43-2.07-3.37-1.92-5.32.13-1.66.84-3.34 2.14-4.63zm33.82-19.67-24.76 24.75 48.01 48.02 24.76-24.76-48.01-48.01zm58.78 82.19 14.73 14.74-6.14 6.14-14.73-14.74 6.14-6.14zm13.91-13.91 14.74 14.74-6.14 6.14-14.74-14.74 6.14-6.14zm13.91-13.91 14.74 14.73-6.14 6.14-14.74-14.73 6.14-6.14zm13.92-13.92 14.73 14.74-6.13 6.14-14.74-14.74 6.14-6.14zm13.91-13.91 14.74 14.74-6.14 6.14-14.74-14.74 6.14-6.14zm13.91-13.91 14.74 14.74-6.14 6.13-14.74-14.73 6.14-6.14zm13.92-13.92 14.73 14.74-6.14 6.14-14.73-14.74 6.14-6.14zm13.91-13.91 14.74 14.74-6.14 6.14-14.74-14.74 6.14-6.14zm13.91-13.91 14.74 14.74-6.14 6.13-14.74-14.73 6.14-6.14zm13.92-13.92 14.73 14.74-6.14 6.14-14.73-14.74 6.14-6.14zM138.35 445.65l14.74 14.74-6.14 6.14-14.74-14.74 6.14-6.14zm13.91-13.91L167 446.47l-6.14 6.14-14.73-14.74 6.13-6.13zm13.92-13.92 14.74 14.74-6.14 6.14-14.74-14.74 6.14-6.14zm13.91-13.91 14.74 14.74-6.14 6.14-14.74-14.74 6.14-6.14zM194 390l14.74 14.73-6.14 6.14-14.74-14.74L194 390zm13.92-13.92 14.74 14.74-6.14 6.14-14.74-14.74 6.14-6.14zm13.91-13.91 14.74 14.74-6.14 6.14-14.74-14.74 6.14-6.14zm13.91-13.91 14.74 14.73-6.14 6.14-14.74-14.74 6.14-6.13zm13.92-13.92 14.74 14.74-6.14 6.14-14.74-14.74 6.14-6.14zm13.91-13.91 14.74 14.74-6.14 6.14-14.74-14.74 6.14-6.14zm13.91-13.91 14.74 14.73-6.14 6.14-14.74-14.73 6.14-6.14zm59.34-214.46 28.73-28.74a7.36 7.36 0 0 1 4.63-2.13c1.95-.15 3.89.48 5.33 1.92l52.42 52.42c1.44 1.44 2.06 3.38 1.91 5.32l-.03.3a7.41 7.41 0 0 1-2.1 4.34l-28.73 28.73a7.44 7.44 0 0 1-4.65 2.15l-.65.01c-1.71-.03-3.38-.66-4.66-1.94l-52.42-52.43c-1.44-1.44-2.07-3.37-1.92-5.32.13-1.66.85-3.34 2.14-4.63zm33.82-19.67-24.76 24.75 48.01 48.02 24.76-24.76-48.01-48.01zm-83.88 69.72 28.73-28.73a7.45 7.45 0 0 1 4.64-2.14c1.95-.15 3.89.48 5.32 1.92l52.42 52.42c1.44 1.44 2.07 3.38 1.92 5.32l-.03.31c-.19 1.57-.9 3.13-2.1 4.33l-28.73 28.73a7.385 7.385 0 0 1-4.66 2.15l-.64.01c-1.72-.02-3.38-.66-4.66-1.94l-52.43-52.42c-1.44-1.44-2.07-3.38-1.92-5.32.13-1.67.85-3.35 2.14-4.64zm33.82-19.67-24.76 24.76 48.02 48.01 24.76-24.76-48.02-48.01zm-261 246.85 137.53-137.53c1.29-1.28 2.97-2.01 4.63-2.13l.02-.01c1.93-.15 3.86.49 5.31 1.93l52.42 52.42c1.43 1.43 2.05 3.36 1.91 5.29v.03a7.418 7.418 0 0 1-2.13 4.64L121.74 431.46c-1.27 1.27-2.96 2-4.64 2.13-1.94.15-3.87-.47-5.32-1.91l-52.42-52.43c-1.44-1.44-2.07-3.37-1.92-5.32.13-1.66.84-3.34 2.14-4.64zm142.61-128.46L68.64 374.38l48.01 48.02 133.56-133.56-48.02-48.01zm183.5-227.48L13.35 385.69l19.31 19.3 6.35-6.35a5.716 5.716 0 0 1 8.08 0l15.47 15.46c2.23 2.23 2.23 5.85 0 8.09l-6.36 6.35 6.42 6.41 6.35-6.35a5.728 5.728 0 0 1 8.09 0l15.46 15.46c2.23 2.24 2.23 5.86 0 8.09l-6.35 6.35 40.15 40.15 183.17-183.17-10.93-10.94c-2.23-2.23-2.23-5.85 0-8.09l16.16-16.16a5.716 5.716 0 0 1 8.08 0l10.94 10.94 164.91-164.91-38.05-38.06-5.33 5.33a5.716 5.716 0 0 1-8.08 0l-13.2-13.19c-2.23-2.24-2.23-5.86 0-8.09l5.33-5.33-6.74-6.74-5.33 5.33a5.716 5.716 0 0 1-8.08 0l-13.2-13.19a5.728 5.728 0 0 1 0-8.09l5.33-5.33-25.61-25.61z"/></svg>