<svg xmlns="http://www.w3.org/2000/svg" shape-rendering="geometricPrecision" text-rendering="geometricPrecision" image-rendering="optimizeQuality" fill-rule="evenodd" clip-rule="evenodd" viewBox="0 0 512 185.58"><path fill-rule="nonzero" d="M26.46 0h459.08c7.3 0 13.9 3.03 18.65 7.78 4.83 4.83 7.81 11.51 7.81 18.68v83.15c0 4.53-1.81 8.65-4.76 11.66l-47.8 58.19a16.574 16.574 0 0 1-12.83 6.06l-420.15.06c-7.15 0-13.84-3-18.67-7.83C3.05 173.02 0 166.44 0 159.13V26.46c0-7.24 2.99-13.84 7.76-18.64C12.56 2.97 19.18 0 26.46 0z"/><path fill="#CCC" d="M26.46 16.69h459.08c5.38 0 9.77 4.57 9.77 9.77v83.15l-48.7 59.29H26.46c-5.14 0-9.77-4.39-9.77-9.77V26.46c0-5.38 4.39-9.77 9.77-9.77z"/><path d="M58.93 78.47h361.7c2.67 0 4.84 2.16 4.84 4.83v46.84H406.5v-27.05a4.85 4.85 0 0 0-4.84-4.84H78.71c-2.67 0-4.85 2.18-4.85 4.85v27.04H54.09V83.31c0-2.67 2.17-4.84 4.84-4.84zM88.77 54.5h8.72c.35 0 .62.3.62.62V69.6c0 .33-.29.62-.62.62h-8.72c-.33 0-.62-.27-.62-.62V55.12c0-.34.27-.62.62-.62zm29.2 0h8.73c.34 0 .62.3.62.62V69.6c0 .33-.3.62-.62.62h-8.73a.63.63 0 0 1-.62-.62V55.12c0-.34.28-.62.62-.62zm29.21 0h8.72c.35 0 .62.3.62.62V69.6c0 .33-.29.62-.62.62h-8.72c-.33 0-.62-.27-.62-.62V55.12c0-.34.27-.62.62-.62zm29.2 0h8.73c.34 0 .62.3.62.62V69.6c0 .33-.3.62-.62.62h-8.73a.63.63 0 0 1-.62-.62V55.12c0-.34.28-.62.62-.62zm29.21 0h8.73c.34 0 .62.3.62.62V69.6c0 .33-.3.62-.62.62h-8.73c-.33 0-.62-.27-.62-.62V55.12c0-.34.27-.62.62-.62zm29.2 0h8.73c.35 0 .62.3.62.62V69.6c0 .33-.29.62-.62.62h-8.73a.63.63 0 0 1-.62-.62V55.12c0-.34.28-.62.62-.62zm29.21 0h8.73c.34 0 .62.3.62.62V69.6c0 .33-.3.62-.62.62H264c-.33 0-.62-.27-.62-.62V55.12c0-.34.27-.62.62-.62zm29.2 0h8.73c.34 0 .62.3.62.62V69.6c0 .33-.29.62-.62.62h-8.73a.63.63 0 0 1-.62-.62V55.12c0-.34.28-.62.62-.62zm29.21 0h8.73c.34 0 .62.3.62.62V69.6c0 .33-.3.62-.62.62h-8.73c-.33 0-.62-.27-.62-.62V55.12c0-.34.27-.62.62-.62zm29.2 0h8.73c.34 0 .62.3.62.62V69.6c0 .33-.29.62-.62.62h-8.73a.63.63 0 0 1-.62-.62V55.12c0-.34.28-.62.62-.62z"/><path d="M105.94 115.2h8.72c.35 0 .62.29.62.62v14.48c0 .32-.29.62-.62.62h-8.72a.63.63 0 0 1-.62-.62v-14.48c0-.35.27-.62.62-.62zm29.2 0h8.73c.34 0 .62.29.62.62v14.48c0 .32-.3.62-.62.62h-8.73c-.32 0-.62-.28-.62-.62v-14.48c0-.35.28-.62.62-.62zm29.21 0h8.72c.35 0 .62.29.62.62v14.48c0 .32-.29.62-.62.62h-8.72a.63.63 0 0 1-.62-.62v-14.48c0-.35.27-.62.62-.62zm29.2 0h8.73c.34 0 .62.29.62.62v14.48c0 .32-.3.62-.62.62h-8.73c-.32 0-.62-.28-.62-.62v-14.48c0-.35.28-.62.62-.62zm29.21 0h8.72c.35 0 .62.29.62.62v14.48c0 .32-.29.62-.62.62h-8.72a.63.63 0 0 1-.62-.62v-14.48c0-.35.27-.62.62-.62zm29.2 0h8.73c.34 0 .62.29.62.62v14.48c0 .32-.3.62-.62.62h-8.73c-.32 0-.62-.28-.62-.62v-14.48c0-.35.28-.62.62-.62zm29.21 0h8.72c.35 0 .62.29.62.62v14.48c0 .32-.29.62-.62.62h-8.72a.63.63 0 0 1-.62-.62v-14.48c0-.35.27-.62.62-.62zm29.2 0h8.73c.34 0 .62.29.62.62v14.48c0 .32-.3.62-.62.62h-8.73c-.32 0-.62-.28-.62-.62v-14.48c0-.35.28-.62.62-.62zm29.21 0h8.72c.35 0 .62.29.62.62v14.48c0 .32-.29.62-.62.62h-8.72a.63.63 0 0 1-.62-.62v-14.48c0-.35.27-.62.62-.62zm29.2 0h8.73c.34 0 .62.29.62.62v14.48c0 .32-.3.62-.62.62h-8.73c-.32 0-.62-.28-.62-.62v-14.48c0-.35.28-.62.62-.62z"/></svg>