<svg xmlns="http://www.w3.org/2000/svg" shape-rendering="geometricPrecision" text-rendering="geometricPrecision" image-rendering="optimizeQuality" fill-rule="evenodd" clip-rule="evenodd" viewBox="0 0 512 344.73"><path d="M57.19 0h384.49c6.09 0 11.05 4.96 11.05 11.05v33.42h-16.07V27.16c0-5.36-4.37-9.76-9.76-9.76H72.01c-5.37 0-9.8 4.37-9.77 9.76v108.86c-5.54.97-10.92 2.41-16.11 4.26V11.05C46.13 4.96 51.1 0 57.19 0zm16.54 265.73L44.2 273.6l4.26-31.69 25.27 23.82zm-18.76-31.01 34.06-38.52c.49-.56 1.19-.9 1.94-.93.47-.01.93.09 1.35.31l22.48 20.45c.44.41.71.99.73 1.61.02.69-.27 1.35-.79 1.81l-34.6 39.09-25.21-23.82h.04zm25.01-78.76c44.16 0 79.97 35.81 79.97 79.97s-35.81 79.98-79.97 79.98S0 280.09 0 235.93c0-44.16 35.82-79.97 79.98-79.97zm310.83-88.93h107.34c7.62 0 13.85 6.22 13.85 13.85v247.93c0 7.62-6.23 13.85-13.85 13.85H390.81c-7.62 0-13.85-6.23-13.85-13.85V80.88c0-7.63 6.23-13.85 13.85-13.85zm86.63 58.39h12.74v4.65h-12.74v-4.65zm-32.97 159.92c8.3 0 15.05 6.75 15.05 15.05 0 8.31-6.75 15.06-15.05 15.06s-15.05-6.75-15.05-15.06c.02-8.3 6.75-15.05 15.05-15.05zM395.71 112.3h97.54c1.6 0 2.89 1.31 2.89 2.89v17.79c0 1.58-1.31 2.88-2.89 2.88h-97.54c-1.6 0-2.89-1.3-2.89-2.88v-17.79c0-1.58 1.29-2.89 2.89-2.89zm-41.88 172.08H169.1c7.17-13.13 11.53-28 12.24-43.81h172.49v43.81zM199.3 299.64h100.27c.26 17.34 7.41 32.89 26.76 45.1H172.54c15.48-11.22 26.83-24.86 26.76-45.1z"/></svg>