<svg id="Layer_1" data-name="Layer 1" xmlns="http://www.w3.org/2000/svg" viewBox="0 0 122.88 103.88"><title>end-button</title><path d="M23.16,0H99.72a23.22,23.22,0,0,1,23.16,23.16V80.72a23.22,23.22,0,0,1-23.16,23.16H23.16A23.22,23.22,0,0,1,0,80.72V23.16A23.22,23.22,0,0,1,23.16,0Zm9.56,54.11v-23H49.26v5H39v3.94h9.46v5H39v4H49.22v5Zm25.91-9.68v9.68H52.45V36.89h5.87v3.27h.18a4.9,4.9,0,0,1,2-2.56A6.43,6.43,0,0,1,67,37.5a5.7,5.7,0,0,1,2.1,2.3,7.14,7.14,0,0,1,.73,3.32v11H63.61V44.43a2.81,2.81,0,0,0-.64-2,2.32,2.32,0,0,0-1.82-.73,2.6,2.6,0,0,0-1.33.33A2.2,2.2,0,0,0,59,43a3.62,3.62,0,0,0-.32,1.47Zm20.46,9.91a6.17,6.17,0,0,1-3.38-1,6.63,6.63,0,0,1-2.47-2.93,11.49,11.49,0,0,1-.93-4.94,11.35,11.35,0,0,1,1-5.06,6.63,6.63,0,0,1,2.52-2.87,6.32,6.32,0,0,1,3.24-.9,5.39,5.39,0,0,1,2.24.44,4.74,4.74,0,0,1,1.61,1.18,5,5,0,0,1,1,1.61H84V31.15h6.19v23H84V51.29h-.13a4.81,4.81,0,0,1-2.64,2.65,5.6,5.6,0,0,1-2.15.4Zm2.28-4.76a2.22,2.22,0,0,0,1.47-.5,3.18,3.18,0,0,0,.94-1.41,6.39,6.39,0,0,0,.33-2.17,6.47,6.47,0,0,0-.33-2.19,3.15,3.15,0,0,0-.94-1.4,2.27,2.27,0,0,0-1.47-.49,2.21,2.21,0,0,0-1.45.49,3,3,0,0,0-.92,1.4,7.65,7.65,0,0,0,0,4.38,3.08,3.08,0,0,0,.92,1.41,2.26,2.26,0,0,0,1.45.48ZM5,72.16a18.8,18.8,0,0,0,4.79,8.35l.1.1a18.78,18.78,0,0,0,13.28,5.52H99.9l2-.13a18.73,18.73,0,0,0,11-5.29l.1-.1a18.88,18.88,0,0,0,4.89-8.48v-49A18.23,18.23,0,0,0,99.72,5H23.16A18.22,18.22,0,0,0,5,23.16v49Z"/></svg>