<svg xmlns="http://www.w3.org/2000/svg" shape-rendering="geometricPrecision" text-rendering="geometricPrecision" image-rendering="optimizeQuality" fill-rule="evenodd" clip-rule="evenodd" viewBox="0 0 512 490.43"><path fill-rule="nonzero" d="M29.08 0h453.85c8.04 0 15.28 3.33 20.5 8.55 5.26 5.27 8.57 12.64 8.57 20.53v432.27c0 7.94-3.33 15.23-8.59 20.49-5.25 5.25-12.54 8.59-20.48 8.59H29.08c-7.89 0-15.26-3.31-20.53-8.58C3.33 476.63 0 469.4 0 461.35V29.08c0-8.05 3.3-15.3 8.54-20.54l2.18-1.91A28.741 28.741 0 0 1 29.08 0z"/><path fill="#CCC" d="M29.08 21.98h453.85c3.9 0 7.09 3.35 7.09 7.1v432.27c0 3.75-3.34 7.1-7.09 7.1H29.08c-3.75 0-7.1-3.19-7.1-7.1V29.08c0-3.91 3.19-7.1 7.1-7.1z"/><path fill-rule="nonzero" d="M82.08 65.09h348.08c6.53 0 12.4 2.71 16.62 6.93 4.27 4.27 6.95 10.25 6.95 16.65v239.14h-70.87v48.58h-40.95v46.95H171.27v-46.95h-40.94v-48.58H58.5V88.67c0-6.54 2.67-12.42 6.92-16.66 4.3-4.28 10.23-6.92 16.66-6.92z"/><path fill="#fff" d="M82.08 81.57h348.08c3.9 0 7.1 3.35 7.1 7.1v222.66h-70.88v48.59h-40.95v46.94H187.75v-46.94H146.8v-48.59H74.98V88.67c0-3.91 3.19-7.1 7.1-7.1z"/><path fill-rule="nonzero" d="M365.43 297.06h71.83c9.09 0 16.47 7.38 16.47 16.48v46.38c0 9.09-7.38 16.47-16.47 16.47h-71.83c-9.09 0-16.48-7.38-16.48-16.47v-46.38c0-9.1 7.39-16.48 16.48-16.48z"/><path fill="#fff" d="M437.26 313.54h-71.83v46.38h71.83z"/><path fill-rule="nonzero" d="M74.98 297.06h71.82c9.1 0 16.48 7.38 16.48 16.48v46.38c0 9.09-7.38 16.47-16.48 16.47H74.98c-9.1 0-16.48-7.38-16.48-16.47v-46.38c0-9.1 7.38-16.48 16.48-16.48z"/><path fill="#fff" d="M74.98 313.54h71.82v46.38H74.98z"/><rect x="109.2" y="110.21" width="25.59" height="46.75" rx="3.44" ry="3.44"/><rect x="153.91" y="110.21" width="25.59" height="46.75" rx="3.44" ry="3.44"/><rect x="198.62" y="110.21" width="25.59" height="46.75" rx="3.44" ry="3.44"/><rect x="243.33" y="110.21" width="25.59" height="46.75" rx="3.44" ry="3.44"/><rect x="288.03" y="110.21" width="25.59" height="46.75" rx="3.44" ry="3.44"/><rect x="332.74" y="110.21" width="25.59" height="46.75" rx="3.44" ry="3.44"/><rect x="377.45" y="110.21" width="25.59" height="46.75" rx="3.44" ry="3.44"/></svg>