<svg xmlns="http://www.w3.org/2000/svg" shape-rendering="geometricPrecision" text-rendering="geometricPrecision" image-rendering="optimizeQuality" fill-rule="evenodd" clip-rule="evenodd" viewBox="0 0 512 344.74"><path d="M57.19 0h384.49c6.09 0 11.05 4.96 11.05 11.05v33.42h-16.07V27.16c0-5.36-4.37-9.76-9.76-9.76H72.01c-5.37 0-9.8 4.38-9.77 9.76v108.86c-5.54.98-10.92 2.41-16.11 4.26V11.05C46.13 4.96 51.1 0 57.19 0zm23.7 194.67 10.23 25 26.96 2c1.52.11 2.66 1.43 2.55 2.94-.05.79-.43 1.47-1 1.94l-20.59 17.43 6.42 26.25c.35 1.47-.55 2.96-2.03 3.31-.74.18-1.48.04-2.08-.34l-22.99-14.22-23 14.23c-1.29.79-2.99.4-3.78-.89-.41-.65-.5-1.41-.33-2.1l6.43-26.24-20.63-17.46c-1.16-.97-1.3-2.72-.33-3.88.5-.59 1.19-.92 1.91-.96l26.96-2.01 10.23-25c.57-1.4 2.17-2.07 3.57-1.5.71.29 1.23.85 1.5 1.5zm-.91-38.71c44.16 0 79.97 35.81 79.97 79.98 0 44.16-35.81 79.97-79.97 79.97S0 280.1 0 235.94c0-44.17 35.82-79.98 79.98-79.98zm310.83-88.93h107.34c7.62 0 13.85 6.22 13.85 13.85v247.93c0 7.62-6.23 13.85-13.85 13.85H390.81c-7.62 0-13.85-6.23-13.85-13.85V80.88c0-7.63 6.23-13.85 13.85-13.85zm86.63 58.39h12.74v4.65h-12.74v-4.65zm-32.97 159.92c8.3 0 15.05 6.75 15.05 15.05 0 8.31-6.75 15.06-15.05 15.06s-15.05-6.75-15.05-15.06c.02-8.3 6.75-15.05 15.05-15.05zm-48.76-173.03h97.54c1.6 0 2.89 1.3 2.89 2.88v17.79a2.91 2.91 0 0 1-2.89 2.89h-97.54c-1.6 0-2.89-1.31-2.89-2.89v-17.79a2.89 2.89 0 0 1 2.89-2.88zm-41.88 172.07H169.1c7.17-13.13 11.53-28 12.24-43.81h172.49v43.81zM199.3 299.64h100.27c.26 17.34 7.41 32.89 26.76 45.1H172.54c15.48-11.22 26.83-24.86 26.76-45.1z"/></svg>