<svg xmlns="http://www.w3.org/2000/svg" shape-rendering="geometricPrecision" text-rendering="geometricPrecision" image-rendering="optimizeQuality" fill-rule="evenodd" clip-rule="evenodd" viewBox="0 0 512 207.56"><path fill-rule="nonzero" d="M27.19 0h457.62c7.5 0 14.29 3.06 19.21 7.98 4.92 4.91 7.98 11.71 7.98 19.2v97.42c0 7.4-3.07 14.18-7.99 19.13-4.91 4.97-11.74 8.05-19.2 8.05h-9.3l-50.72 50.44a18.106 18.106 0 0 1-12.79 5.27l-320.87.07c-6.02 0-11.37-2.93-14.67-7.45l-42.22-48.33h-7.05c-7.46 0-14.29-3.08-19.2-7.99C3.08 138.89 0 132.09 0 124.6V27.18c0-7.49 3.06-14.29 7.98-19.2C12.9 3.06 19.69 0 27.19 0z"/><path fill="#CCC" d="M27.19 18.19h457.62c4.95 0 9 4.05 9 8.99v97.42c0 4.91-4.08 8.99-9 8.99h-16.72L412 189.37H91.13l-48.72-55.78H27.19c-4.92 0-9-4.04-9-8.99V27.18c0-4.94 4.05-8.99 9-8.99z"/><path d="M96.21 85.61h305.91v24.55H96.21z"/></svg>