<svg xmlns="http://www.w3.org/2000/svg" shape-rendering="geometricPrecision" text-rendering="geometricPrecision" image-rendering="optimizeQuality" fill-rule="evenodd" clip-rule="evenodd" viewBox="0 0 512 498.95"><path fill-rule="nonzero" d="M281.06 207.79h29.65c4.3.01 7.78 3.51 7.78 7.81 0 1.54-.46 3.05-1.32 4.33l-70.66 120.68a7.782 7.782 0 0 1-6.64 3.72c-4.3 0-7.79-3.48-7.79-7.79 0-.5.06-1.01.15-1.51l10.43-74.05-35.17.59h-.13a7.76 7.76 0 0 1-7.76-7.63v-.03c0-1.41.37-2.81 1.08-4.04l69.57-120.64a7.787 7.787 0 0 1 14.39 5.04l-3.58 73.52zm87.93 217.24c1.37-1.62 2.86-3.06 4.5-4.33 4.48-3.49 9.73-5.25 15.72-5.25 5.4 0 10.19 1.09 14.35 3.23 4.19 2.15 7.45 5.64 9.78 10.5 2.35 4.84 3.54 11.33 3.54 19.47v50.3h-27.44V448.5c0-2.97-.43-5.28-1.28-6.85-.86-1.61-2.1-2.7-3.71-3.31-1.63-.6-3.56-.91-5.84-.91-2.82 0-5.09.42-6.78 1.24a9.27 9.27 0 0 0-2.84 2.18v58.1h-27.36V382.58h27.36v42.45zm-222.14 25.82 29.85 48.1h-31.21l-16.29-29.07-6.75 6.67v22.4H95.11V382.51h27.34v59.92l1.97-2.65 17.81-22.81h32.66l-28.04 33.88zm95.61-62.22h24.02l14.12 67.05 11.49-67.05h28.1l-22.88 110.32h-29.45l-13.37-59.93-13.09 59.93h-29.48l-22.94-110.32h28.27l11.43 66.82 13.78-66.82zM52.79 411.67c-2.21-2.89-4.36-5.81-6.46-8.8a256.178 256.178 0 0 1-25.45-45.46c-6.79-15.74-12.05-32.32-15.63-49.58A258.854 258.854 0 0 1 0 256c0-34.66 6.92-67.71 19.38-97.87A256 256 0 0 1 75 75c23.59-23.59 51.79-42.62 83.12-55.58C188.3 6.92 221.33 0 256 0c34.59 0 67.55 6.92 97.62 19.42 31.34 13 59.51 32.08 83.13 55.71 23.67 23.66 42.75 51.91 55.75 83.2C505.04 188.5 512 221.5 512 256c0 16.88-1.67 33.38-4.83 49.38-3.25 16.41-8.13 32.29-14.42 47.49-6.41 15.46-14.29 30.22-23.5 43.96-3.19 4.79-6.55 9.46-10.04 14.01v-11.92c0-10.4-3.83-19.96-10.12-27.33l1.62-2.71c5.21-8.84 9.79-18.09 13.75-27.63 5.33-12.92 9.54-26.46 12.38-40.46 2.66-13 4.16-26.46 4.45-40.17h-37.96c-1.12 0-2.08-.91-2.08-2.08v-26.46c0-1.13.92-2.08 2.08-2.08h36.51c-2.84-24.38-9.63-47.62-19.67-69.09-10.38-22.12-24.25-42.28-40.92-59.87l-24.42 24.42c-.79.79-2.12.79-2.91 0l-18.71-18.71c-.79-.8-.79-2.12 0-2.92l23.54-23.54c-18.5-14.88-39.38-26.92-61.96-35.42-21.87-8.21-36.36-13.12-60.81-14.08v33.46c0 1.12-.92 2.08-2.09 2.08h-26.5c-1.12 0-2.08-.92-2.08-2.08V31.63c-24.29 2.29-56.47 8.49-77.9 17.87-22.12 9.71-42.37 22.87-60.07 38.75l24.45 24.46c.79.79.79 2.12 0 2.92l-18.7 18.7c-.79.79-2.13.79-2.93 0L84 110.16c-15.54 18.34-28.24 39.22-37.33 61.93-8.75 22.07-14.21 45.79-15.67 70.54h37.63c1.12 0 2.08.91 2.08 2.08v26.5c0 1.12-.91 2.08-2.08 2.08H31.25a222.95 222.95 0 0 0 5.63 35.75c3 12.54 7.08 24.67 12.12 36.33 3.98 9.21 8.54 18.07 13.63 26.56-6.13 7.32-9.84 16.74-9.84 26.99v12.75z"/></svg>