<svg xmlns="http://www.w3.org/2000/svg" shape-rendering="geometricPrecision" text-rendering="geometricPrecision" image-rendering="optimizeQuality" fill-rule="evenodd" clip-rule="evenodd" viewBox="0 0 512 288.04"><path d="M10.86 266.36h47.1c-3.98-1.02-6.97-4.7-6.97-8.98V9.28c0-5.09 4.19-9.28 9.28-9.28h389.02c5.09 0 9.28 4.19 9.28 9.28v248.06c0 4.32-2.95 7.95-6.97 8.98h49.54c5.98 0 10.86 4.87 10.86 10.86 0 5.99-4.88 10.86-10.86 10.86H10.86C4.88 288.04 0 283.17 0 277.18c0-5.94 4.88-10.82 10.86-10.82zm434.82-253.5v241.87H65.17V12.86h380.51zM240.73 270.42h30.54c6.9 0 6.9 10.44 0 10.44h-30.54c-6.89 0-6.92-10.44 0-10.44z"/><path fill="#3AAF3C" d="M255.36 61.19c40.46 0 73.26 32.8 73.26 73.26 0 40.46-32.8 73.25-73.26 73.25-40.46 0-73.25-32.79-73.25-73.25s32.79-73.26 73.25-73.26z"/><path fill="#0DA10D" fill-rule="nonzero" d="M294.07 102.18h5.5c-23.43 26.02-41.59 47.47-57.85 78.84-8.47-18.1-16.01-30.6-32.9-42.19l6.3-1.42c12.62 10.33 19.27 21.8 26.6 37.47 14.96-28.87 31.54-49.34 52.35-72.7z"/><path fill="#fff" fill-rule="nonzero" d="M227.33 128.51c5.63 3.25 9.29 5.94 13.65 10.75 11.32-18.21 23.59-28.3 39.56-42.62l1.56-.6h17.47c-23.42 26.02-41.59 47.47-57.85 78.84-8.47-18.1-16.02-30.6-32.9-42.18l18.51-4.19z"/></svg>