<svg xmlns="http://www.w3.org/2000/svg" shape-rendering="geometricPrecision" text-rendering="geometricPrecision" image-rendering="optimizeQuality" fill-rule="evenodd" clip-rule="evenodd" viewBox="0 0 512 344.74"><path d="M57.18 0h384.51c6.08 0 11.05 4.96 11.05 11.05v33.42h-16.08V27.16c0-5.36-4.37-9.76-9.76-9.76H72c-5.36 0-9.79 4.38-9.76 9.76v108.86c-5.54.98-10.92 2.41-16.11 4.26V11.05C46.13 4.96 51.1 0 57.18 0zM51.6 221.76h1.42v-4.36c0-7.29 2.88-13.94 7.5-18.77 4.68-4.86 11.12-7.88 18.22-7.88s13.55 3.02 18.21 7.88c4.63 4.83 7.5 11.48 7.5 18.77v4.36h1.42c2.31 0 4.19 1.89 4.19 4.2v41.49c0 2.31-1.88 4.19-4.19 4.19H51.6c-2.3 0-4.19-1.88-4.19-4.19v-41.49c0-2.31 1.89-4.2 4.19-4.2zm23.81 26.83-4.37 11.44h15.39l-4.05-11.6c2.57-1.32 4.33-4 4.33-7.09 0-4.4-3.57-7.96-7.98-7.96-4.4 0-7.97 3.56-7.97 7.96 0 3.22 1.91 5.98 4.65 7.25zm-14.45-26.83h35.55v-4.36c0-5.18-2.02-9.88-5.27-13.27-3.22-3.35-7.65-5.43-12.51-5.43-4.85 0-9.28 2.08-12.5 5.43-3.24 3.39-5.27 8.09-5.27 13.27v4.36zm19.02-65.8c44.16 0 79.97 35.81 79.97 79.98 0 44.16-35.81 79.97-79.97 79.97C35.81 315.91 0 280.1 0 235.94c0-44.17 35.81-79.98 79.98-79.98zm310.83-88.93h107.34c7.62 0 13.85 6.22 13.85 13.85v247.94c0 7.61-6.23 13.84-13.85 13.84H390.81c-7.62 0-13.85-6.23-13.85-13.84V80.88c0-7.63 6.23-13.85 13.85-13.85zm86.63 58.4h12.74v4.64h-12.74v-4.64zm-32.97 159.92c8.3 0 15.05 6.74 15.05 15.04 0 8.31-6.75 15.06-15.05 15.06s-15.05-6.75-15.05-15.06c.02-8.3 6.75-15.04 15.05-15.04zm-48.76-173.04h97.54c1.6 0 2.89 1.3 2.89 2.88v17.79a2.91 2.91 0 0 1-2.89 2.89h-97.54c-1.6 0-2.89-1.31-2.89-2.89v-17.79a2.89 2.89 0 0 1 2.89-2.88zm-41.88 172.07H169.1c7.17-13.13 11.53-28 12.24-43.8h172.49v43.8zM199.3 299.64h100.27c.26 17.34 7.41 32.89 26.76 45.1H172.54c15.48-11.22 26.83-24.86 26.76-45.1z"/></svg>