<svg xmlns="http://www.w3.org/2000/svg" shape-rendering="geometricPrecision" text-rendering="geometricPrecision" image-rendering="optimizeQuality" fill-rule="evenodd" clip-rule="evenodd" viewBox="0 0 512 225.1"><path fill-rule="nonzero" d="M494.61 225.1H17.39C7.8 225.1 0 217.29 0 207.7V84.66c0-5.05 2.18-9.61 5.63-12.79L68.6 5.44C72.01 1.87 76.59.06 81.17.06L430.83 0c5.4 0 10.22 2.46 13.43 6.35l62.92 66.36c3.18 3.35 4.76 7.66 4.76 11.95L512 207.7c0 9.59-7.8 17.4-17.39 17.4z"/><path fill="#CCC" d="M494.61 207.7H17.39V84.66l63.78-67.27h349.66l63.78 67.27V207.7z"/><path d="M152.16 119.47h207.68c2.71 0 4.93 2.34 4.93 4.93v29.24c0 2.58-2.34 4.93-4.93 4.93H152.16c-2.59 0-4.93-2.22-4.93-4.93V124.4c0-2.71 2.22-4.93 4.93-4.93z"/></svg>