<svg xmlns="http://www.w3.org/2000/svg" shape-rendering="geometricPrecision" text-rendering="geometricPrecision" image-rendering="optimizeQuality" fill-rule="evenodd" clip-rule="evenodd" viewBox="0 0 512 360.76"><path d="M46.52 0h418.96c12.74 0 24.36 5.24 32.78 13.64 8.5 8.52 13.74 20.14 13.74 32.88v237.83l-75.21 76.41H75.19L0 284.35V46.52c0-12.8 5.24-24.47 13.65-32.88C22.05 5.24 33.72 0 46.52 0z"/><path fill="#fff" d="M46.52 24.51h418.96c12.11 0 22.01 9.9 22.01 22.01v227.87l-60.88 61.86H85.39l-60.88-61.86V46.52c0-12.11 9.9-22.01 22.01-22.01z"/><path d="M512 108.67v168.18H0V84.16h512z"/><path fill="#CCC" d="M487.49 108.67v143.67H24.51V108.67z"/><path d="M90.55 46.56c4.48 0 8.15 3.67 8.15 8.15v4.26c0 4.48-3.67 8.15-8.15 8.15-4.47 0-8.15-3.67-8.15-8.15v-4.26c0-4.48 3.68-8.15 8.15-8.15zm330.91 247.76c4.48 0 8.15 3.67 8.15 8.15v4.26c0 4.48-3.67 8.15-8.15 8.15s-8.15-3.67-8.15-8.15v-4.26c0-4.48 3.67-8.15 8.15-8.15zm-36.77 0c4.48 0 8.15 3.67 8.15 8.15v4.26c0 4.48-3.67 8.15-8.15 8.15s-8.15-3.67-8.15-8.15v-4.26c0-4.48 3.67-8.15 8.15-8.15zm-36.77 0c4.48 0 8.15 3.67 8.15 8.15v4.26c0 4.48-3.67 8.15-8.15 8.15s-8.15-3.67-8.15-8.15v-4.26c0-4.48 3.67-8.15 8.15-8.15zm-36.76 0c4.48 0 8.15 3.67 8.15 8.15v4.26c0 4.48-3.67 8.15-8.15 8.15-4.47 0-8.15-3.67-8.15-8.15v-4.26c0-4.48 3.68-8.15 8.15-8.15zm-36.77 0c4.48 0 8.15 3.67 8.15 8.15v4.26c0 4.48-3.67 8.15-8.15 8.15s-8.15-3.67-8.15-8.15v-4.26c0-4.48 3.67-8.15 8.15-8.15zm-36.77 0c4.48 0 8.15 3.67 8.15 8.15v4.26c0 4.48-3.67 8.15-8.15 8.15s-8.15-3.67-8.15-8.15v-4.26c0-4.48 3.67-8.15 8.15-8.15zm-36.77 0c4.48 0 8.15 3.67 8.15 8.15v4.26c0 4.48-3.67 8.15-8.15 8.15s-8.15-3.67-8.15-8.15v-4.26c0-4.48 3.67-8.15 8.15-8.15zm-36.75 0c4.47 0 8.14 3.67 8.14 8.15v4.26c0 4.48-3.67 8.15-8.14 8.15-4.48 0-8.15-3.67-8.15-8.15v-4.26c0-4.48 3.67-8.15 8.15-8.15zm-36.78 0c4.48 0 8.15 3.67 8.15 8.15v4.26c0 4.48-3.67 8.15-8.15 8.15-4.47 0-8.14-3.67-8.14-8.15v-4.26c0-4.48 3.67-8.15 8.14-8.15zm-36.77 0c4.48 0 8.15 3.67 8.15 8.15v4.26c0 4.48-3.67 8.15-8.15 8.15-4.47 0-8.15-3.67-8.15-8.15v-4.26c0-4.48 3.68-8.15 8.15-8.15zM421.46 46.56c4.48 0 8.15 3.67 8.15 8.15v4.26c0 4.48-3.67 8.15-8.15 8.15s-8.15-3.67-8.15-8.15v-4.26c0-4.48 3.67-8.15 8.15-8.15zm-36.77 0c4.48 0 8.15 3.67 8.15 8.15v4.26c0 4.48-3.67 8.15-8.15 8.15s-8.15-3.67-8.15-8.15v-4.26c0-4.48 3.67-8.15 8.15-8.15zm-36.77 0c4.48 0 8.15 3.67 8.15 8.15v4.26c0 4.48-3.67 8.15-8.15 8.15s-8.15-3.67-8.15-8.15v-4.26c0-4.48 3.67-8.15 8.15-8.15zm-36.76 0c4.48 0 8.15 3.67 8.15 8.15v4.26c0 4.48-3.67 8.15-8.15 8.15-4.47 0-8.15-3.67-8.15-8.15v-4.26c0-4.48 3.68-8.15 8.15-8.15zm-36.77 0c4.48 0 8.15 3.67 8.15 8.15v4.26c0 4.48-3.67 8.15-8.15 8.15s-8.15-3.67-8.15-8.15v-4.26c0-4.48 3.67-8.15 8.15-8.15zm-36.77 0c4.48 0 8.15 3.67 8.15 8.15v4.26c0 4.48-3.67 8.15-8.15 8.15s-8.15-3.67-8.15-8.15v-4.26c0-4.48 3.67-8.15 8.15-8.15zm-36.77 0c4.48 0 8.15 3.67 8.15 8.15v4.26c0 4.48-3.67 8.15-8.15 8.15s-8.15-3.67-8.15-8.15v-4.26c0-4.48 3.67-8.15 8.15-8.15zm-36.75 0c4.47 0 8.14 3.67 8.14 8.15v4.26c0 4.48-3.67 8.15-8.14 8.15-4.48 0-8.15-3.67-8.15-8.15v-4.26c0-4.48 3.67-8.15 8.15-8.15zm-36.78 0c4.48 0 8.15 3.67 8.15 8.15v4.26c0 4.48-3.67 8.15-8.15 8.15-4.47 0-8.14-3.67-8.14-8.15v-4.26c0-4.48 3.67-8.15 8.14-8.15z"/></svg>