<svg xmlns="http://www.w3.org/2000/svg" shape-rendering="geometricPrecision" text-rendering="geometricPrecision" image-rendering="optimizeQuality" fill-rule="evenodd" clip-rule="evenodd" viewBox="0 0 294 511.14"><path d="M55.22 0h183.57c15.23 0 29.13 6.22 39.04 16.2C287.88 26.25 294 40.08 294 55.23v400.69c0 15.24-6.2 29.14-16.17 39.04-10.07 10.06-23.88 16.18-39.04 16.18H55.22c-15.24 0-29.14-6.2-39.03-16.18C6.13 484.91 0 471.09 0 455.92V55.16c0-15.25 6.2-29.15 16.19-39.05C26.23 6.07 39.98 0 55.22 0zm17.56 54.7-33.66 77.16 27.8 3.03-47.9 124.55V54.7h53.76zM19.02 274.83l104.91-163.16-35.48-3.35 24.3-53.62H274.9v379.74H19.02V274.83zm127.91 176.88c12.49 0 22.71 10.06 22.71 22.7 0 12.51-10.07 22.72-22.71 22.72-12.49 0-22.71-10.06-22.71-22.72 0-12.48 10.06-22.7 22.71-22.7z"/></svg>