<svg xmlns="http://www.w3.org/2000/svg" shape-rendering="geometricPrecision" text-rendering="geometricPrecision" image-rendering="optimizeQuality" fill-rule="evenodd" clip-rule="evenodd" viewBox="0 0 512 490.43"><path fill-rule="nonzero" d="M29.08 0h453.85C498.83 0 512 13.16 512 29.08v432.27c0 15.85-13.22 29.08-29.07 29.08H29.08C13.16 490.43 0 477.26 0 461.35V29.08C0 13.12 13.17 0 29.08 0z"/><path fill="#CCC" d="M29.08 21.98h453.85c3.9 0 7.09 3.35 7.09 7.1v432.27c0 3.75-3.34 7.1-7.09 7.1H29.08c-3.75 0-7.1-3.19-7.1-7.1V29.08c0-3.91 3.19-7.1 7.1-7.1z"/><path fill-rule="nonzero" d="M82.08 65.09h348.08c6.53 0 12.4 2.71 16.62 6.93 4.27 4.27 6.95 10.25 6.95 16.65v239.14h-70.87v48.58h-40.95v46.95H171.27v-46.95h-40.94v-48.58H58.5V88.67c0-6.54 2.67-12.42 6.92-16.66 4.3-4.28 10.23-6.92 16.66-6.92z"/><path fill="#fff" d="M82.08 81.57h348.08c3.9 0 7.1 3.35 7.1 7.1v222.66h-70.88v48.59h-40.95v46.94H187.75v-46.94H146.8v-48.59H74.98V88.67c0-3.91 3.19-7.1 7.1-7.1z"/><rect x="220.96" y="110.21" width="25.59" height="46.75" rx="3.44" ry="3.44"/><rect x="265.67" y="110.21" width="25.59" height="46.75" rx="3.44" ry="3.44"/></svg>