<svg id="Layer_1" data-name="Layer 1" xmlns="http://www.w3.org/2000/svg" viewBox="0 0 122.88 94.95"><title>page-up</title><path d="M21.17,0h80.54a21.22,21.22,0,0,1,21.17,21.17V73.78A21.23,21.23,0,0,1,101.71,95H21.17A21.22,21.22,0,0,1,0,73.78V21.17A21.22,21.22,0,0,1,21.17,0ZM82.83,55.36V33.72h5.62v2.74h.12a4.93,4.93,0,0,1,.9-1.46A4.39,4.39,0,0,1,91,33.92a4.87,4.87,0,0,1,2-.4,5.75,5.75,0,0,1,3,.82A6.08,6.08,0,0,1,98.26,37a10.44,10.44,0,0,1,.88,4.63,10.62,10.62,0,0,1-.84,4.51,6.15,6.15,0,0,1-2.25,2.68,5.69,5.69,0,0,1-3.09.88,5.14,5.14,0,0,1-2-.36,4.46,4.46,0,0,1-1.47-1,4.39,4.39,0,0,1-.94-1.43h-.08v8.49Zm-59.09-5.9v-21H32.8a8.59,8.59,0,0,1,4.08.93A6.69,6.69,0,0,1,39.61,32a7.58,7.58,0,0,1,1,3.9,7.41,7.41,0,0,1-1,3.91,6.73,6.73,0,0,1-2.79,2.54,9.44,9.44,0,0,1-4.2.89H29.43v6.23ZM29.43,38.8h2a3.8,3.8,0,0,0,1.72-.35,2.54,2.54,0,0,0,1.09-1,3,3,0,0,0,.39-1.55,2.91,2.91,0,0,0-.39-1.54,2.48,2.48,0,0,0-1.09-1A3.94,3.94,0,0,0,31.44,33h-2V38.8ZM50.29,55.52a11.12,11.12,0,0,1-4-.66,6.21,6.21,0,0,1-2.61-1.8,4.52,4.52,0,0,1-1-2.58H48a1.13,1.13,0,0,0,.41.69,2.07,2.07,0,0,0,.84.41,4.71,4.71,0,0,0,1.17.13,3,3,0,0,0,1.81-.51A2.05,2.05,0,0,0,53,49.41V46.75h-.17a3.47,3.47,0,0,1-.94,1.36,4.37,4.37,0,0,1-1.53.85,6.58,6.58,0,0,1-5-.49A5.5,5.5,0,0,1,43.07,46a9.78,9.78,0,0,1-.85-4.41A10.44,10.44,0,0,1,43.1,37a6.15,6.15,0,0,1,2.3-2.62,5.78,5.78,0,0,1,3-.82,4.92,4.92,0,0,1,2.06.4A4.35,4.35,0,0,1,51.89,35a4.55,4.55,0,0,1,.9,1.46h.12V33.72h5.66V49.41a5.29,5.29,0,0,1-1,3.29,6.38,6.38,0,0,1-2.89,2.09,11.89,11.89,0,0,1-4.36.73Zm.21-10.29a2.13,2.13,0,0,0,1.34-.43,2.71,2.71,0,0,0,.86-1.25,5.69,5.69,0,0,0,.3-2,6,6,0,0,0-.3-2,2.78,2.78,0,0,0-.86-1.27,2.09,2.09,0,0,0-1.34-.45,2,2,0,0,0-1.33.45,2.75,2.75,0,0,0-.84,1.27,6,6,0,0,0-.29,2,5.75,5.75,0,0,0,.29,2,2.65,2.65,0,0,0,.84,1.24,2.13,2.13,0,0,0,1.33.42ZM74.06,28.47h5.7V41.92a7.15,7.15,0,0,1-4.33,6.83,12.3,12.3,0,0,1-9.48,0,7.29,7.29,0,0,1-3.17-2.69,7.43,7.43,0,0,1-1.14-4.14V28.47h5.7v13a3.55,3.55,0,0,0,.43,1.73A3.05,3.05,0,0,0,69,44.35a3.72,3.72,0,0,0,3.47,0,3,3,0,0,0,1.19-1.19,3.44,3.44,0,0,0,.43-1.73v-13ZM88.37,41.59a5.89,5.89,0,0,0,.3,2,2.85,2.85,0,0,0,.86,1.29,2.19,2.19,0,0,0,2.67,0A2.72,2.72,0,0,0,93,43.59a5.93,5.93,0,0,0,.3-2,6,6,0,0,0-.3-2,2.74,2.74,0,0,0-.83-1.27,2,2,0,0,0-1.33-.45,2.07,2.07,0,0,0-1.34.45,2.78,2.78,0,0,0-.86,1.27,6,6,0,0,0-.3,2ZM4.56,66A17.26,17.26,0,0,0,21.17,78.72h80.71l1.82-.11a17.27,17.27,0,0,0,14.62-12.68V21.17A16.67,16.67,0,0,0,101.71,4.56H21.17A16.66,16.66,0,0,0,4.56,21.17V66Z"/></svg>