<svg xmlns="http://www.w3.org/2000/svg" shape-rendering="geometricPrecision" text-rendering="geometricPrecision" image-rendering="optimizeQuality" fill-rule="evenodd" clip-rule="evenodd" viewBox="0 0 474 512.52"><path d="M33.77 310.73h406.46c18.57 0 33.77 15.25 33.77 33.77v134.25c0 18.52-15.25 33.77-33.77 33.77H33.77C15.25 512.52 0 497.32 0 478.75V344.5c0-18.57 15.2-33.77 33.77-33.77zm103.7-203.95h11V91.77c0-25.1 9.89-47.99 25.83-64.6C190.37 10.41 212.56 0 237 0c24.44 0 46.65 10.4 62.71 27.17 15.95 16.61 25.84 39.48 25.84 64.6v15.01h10.99c7.95 0 14.45 6.51 14.45 14.46v142.85c0 7.94-6.5 14.44-14.45 14.44H137.47c-7.96 0-14.44-6.5-14.44-14.44V121.24c-.02-7.95 6.48-14.46 14.44-14.46zm88.08 92.38-15.04 39.39h52.97l-13.93-39.95c8.84-4.54 14.89-13.75 14.89-24.39 0-15.16-12.28-27.43-27.45-27.43-15.15 0-27.43 12.27-27.43 27.43 0 11.07 6.55 20.6 15.99 24.95zm-49.74-92.38h122.38V91.77c0-17.85-6.96-34.02-18.15-45.7-11.07-11.54-26.3-18.72-43.04-18.72-16.73 0-31.98 7.18-43.04 18.72-11.2 11.68-18.15 27.85-18.15 45.7v15.01zm179.41 269.65c0-6.15 4.98-11.14 11.14-11.14 6.15 0 11.13 4.99 11.13 11.14v14.4l11.95-7.99c5.09-3.4 11.99-2.05 15.4 3.05 3.42 5.09 2.05 11.99-3.04 15.4l-15.42 10.3 15.43 10.26c5.11 3.38 6.52 10.29 3.13 15.4-3.38 5.12-10.29 6.51-15.4 3.13l-12.05-8v14.45c0 6.15-4.98 11.14-11.13 11.14-6.16 0-11.14-4.99-11.14-11.14v-14.4l-11.94 7.99c-5.1 3.4-11.99 2.04-15.41-3.05-3.41-5.09-2.05-11.99 3.05-15.41l15.41-10.3-15.42-10.25c-5.12-3.38-6.52-10.29-3.13-15.4 3.38-5.12 10.28-6.52 15.39-3.14l12.05 8.01v-14.45zm-258.71 0c0-6.15 4.98-11.14 11.13-11.14s11.14 4.99 11.14 11.14v14.4l11.94-7.99c5.1-3.4 11.99-2.05 15.41 3.05 3.41 5.09 2.05 11.99-3.05 15.4l-15.41 10.3 15.43 10.26c5.11 3.38 6.51 10.29 3.12 15.4-3.38 5.12-10.28 6.51-15.4 3.13l-12.04-8v14.45c0 6.15-4.99 11.14-11.14 11.14s-11.13-4.99-11.13-11.14v-14.4l-11.95 7.99c-5.09 3.4-11.99 2.04-15.4-3.05-3.42-5.09-2.05-11.99 3.05-15.41l15.41-10.3-15.43-10.25c-5.11-3.38-6.51-10.29-3.12-15.4 3.38-5.12 10.28-6.52 15.39-3.14l12.05 8.01v-14.45zm129.35 0c0-6.15 4.99-11.14 11.14-11.14s11.14 4.99 11.14 11.14v14.4l11.94-7.99c5.09-3.4 11.99-2.05 15.41 3.05 3.41 5.09 2.04 11.99-3.05 15.4l-15.41 10.3 15.42 10.26c5.12 3.38 6.52 10.29 3.13 15.4-3.38 5.12-10.29 6.51-15.4 3.13l-12.04-8v14.45c0 6.15-4.99 11.14-11.14 11.14s-11.14-4.99-11.14-11.14v-14.4l-11.94 7.99c-5.09 3.4-11.99 2.04-15.4-3.05-3.42-5.09-2.05-11.99 3.04-15.41l15.42-10.3-15.43-10.25c-5.11-3.38-6.52-10.29-3.13-15.4 3.38-5.12 10.29-6.52 15.4-3.14l12.04 8.01v-14.45z"/></svg>