<svg xmlns="http://www.w3.org/2000/svg" shape-rendering="geometricPrecision" text-rendering="geometricPrecision" image-rendering="optimizeQuality" fill-rule="evenodd" clip-rule="evenodd" viewBox="0 0 377 511.84"><path fill-rule="nonzero" d="M55.31 0c7.45 0 14.6 1.5 21.13 4.2 6.8 2.82 12.9 6.93 17.98 12 10.01 10.01 16.2 23.84 16.2 39.11 0 7.45-1.5 14.6-4.2 21.13a55.425 55.425 0 0 1-12 17.98 55.639 55.639 0 0 1-17.98 12c-6.53 2.7-13.68 4.2-21.13 4.2-7.46 0-14.6-1.5-21.13-4.2a55.532 55.532 0 0 1-17.98-12 55.425 55.425 0 0 1-12-17.98C1.5 69.91 0 62.76 0 55.31c0-7.45 1.5-14.6 4.2-21.13 2.81-6.8 6.92-12.89 12-17.98a55.532 55.532 0 0 1 17.98-12C40.71 1.5 47.85 0 55.31 0zm128.74 478.21c-2.6 0-4.77-.46-6.51-1.38-1.74-.92-3.04-2.25-3.88-3.99-.84-1.74-1.26-3.82-1.26-6.23v-19.58c0-2.64.45-4.86 1.35-6.66.9-1.79 2.23-3.16 3.99-4.1 1.76-.94 3.88-1.41 6.37-1.41h9.3c2.41 0 4.45.47 6.12 1.41 1.66.94 2.92 2.31 3.78 4.1.87 1.8 1.3 4.02 1.3 6.66v19.58c0 3.6-.97 6.43-2.9 8.5-1.94 2.06-4.72 3.1-8.35 3.1h-9.31zM323.93 77.02c-3.06 0-6.03-.13-8.9-.4s-5.53-.65-7.98-1.15v-8.95h12.52c1.49 0 2.65-.08 3.47-.23.82-.16 1.39-.41 1.69-.75.31-.34.46-.82.46-1.43v-1.1c0-.68-.17-1.24-.51-1.66-.35-.42-.85-.74-1.5-.95-.65-.21-1.45-.33-2.41-.37l-10.22-.46v-8.61l9.7-.63c1.54-.12 2.67-.35 3.39-.69.73-.34 1.09-.96 1.09-1.84v-.51c0-1.11-.38-1.9-1.14-2.36-.77-.46-2.19-.69-4.25-.69h-11.71v-8.95c2.48-.42 5.1-.82 7.86-1.18 2.76-.36 5.55-.51 8.38-.43 2.45.04 4.57.45 6.35 1.23 1.78.79 3.14 1.98 4.1 3.56.96 1.59 1.44 3.61 1.44 6.06v2.87c0 .96-.09 1.85-.26 2.67-.18.82-.45 1.57-.84 2.24-.38.67-.88 1.25-1.49 1.75s-1.36.9-2.24 1.2c.92.27 1.72.7 2.39 1.3a7.7 7.7 0 0 1 1.66 2.09c.44.81.78 1.71 1.01 2.73.22 1.01.34 2.09.34 3.24v1.67c0 3.48-1.1 6.14-3.3 7.98-2.2 1.83-5.23 2.75-9.1 2.75zm-150.18-.21v-8.84l13.26-13.55c.84-.84 1.55-1.63 2.12-2.35.58-.73 1.03-1.44 1.35-2.13.33-.69.49-1.39.49-2.12 0-.8-.15-1.46-.46-1.98-.31-.52-.77-.89-1.4-1.12-.63-.23-1.45-.35-2.44-.35h-12.23v-8.84c1.87-.42 3.97-.81 6.28-1.17 2.32-.37 5.01-.55 8.07-.55 3.37 0 6.02.46 7.95 1.38 1.93.92 3.31 2.28 4.14 4.07.82 1.8 1.23 4 1.23 6.61 0 1.87-.25 3.57-.75 5.11a16.19 16.19 0 0 1-2.15 4.3c-.94 1.34-2.08 2.68-3.42 4.02l-7.34 7.52h14.81v9.99h-29.51zm-120.62 0V44.37h-6.78v-7.12l8.04-3.44h9.88v43H53.13zM319.97 210.6c-2.26 0-4.23-.31-5.92-.94-1.68-.63-3.08-1.72-4.19-3.25-1.11-1.53-1.94-3.64-2.49-6.34-.56-2.7-.84-6.09-.84-10.19 0-4.4.38-8.06 1.12-10.99.75-2.93 1.85-5.24 3.3-6.95 1.46-1.7 3.22-2.91 5.29-3.62 2.06-.7 4.42-1.06 7.06-1.06 2.02 0 3.99.09 5.88.26 1.9.17 3.61.47 5.14.89v8.84h-9.7c-2.6 0-4.41.65-5.43 1.95-1.01 1.3-1.52 3.14-1.52 5.51.73-.34 1.45-.6 2.15-.77.71-.17 1.54-.29 2.5-.35.96-.05 2.14-.08 3.56-.08 2.98 0 5.27.46 6.86 1.37 1.59.93 2.67 2.17 3.24 3.74.58 1.57.87 3.31.87 5.22v6.2c0 2.49-.46 4.51-1.36 6.06-.89 1.55-2.17 2.69-3.81 3.41-1.65.73-3.58 1.09-5.8 1.09h-5.91zm2.29-9.98h.98c.65 0 1.15-.12 1.49-.35.35-.23.59-.56.75-1 .15-.44.23-.97.23-1.58v-1.61c0-.84-.09-1.48-.26-1.92-.17-.44-.48-.76-.92-.95-.44-.19-1.08-.29-1.92-.29h-4.94c0 1.53.08 2.8.23 3.79.15 1 .41 1.78.77 2.36.37.57.85.97 1.44 1.2.59.23 1.31.35 2.15.35zm-133.96 9.81c-2.14 0-4.51-.12-7.09-.37s-5.1-.51-7.55-.77v-8.85h15.16c1.18 0 2.01-.2 2.47-.6.46-.4.72-.88.8-1.43.08-.56.12-1.03.12-1.41v-1.78c0-.96-.19-1.7-.55-2.24-.37-.54-1.06-.8-2.09-.8h-2.53c-.92 0-1.58.17-1.98.51-.4.35-.64.84-.72 1.5h-10.56l1.2-26.76h26.58v9.99h-17.05l-.29 6.49c.66-.5 1.44-.81 2.36-.95.92-.13 1.83-.2 2.75-.2h4.37c2.22 0 4.04.46 5.45 1.38 1.42.92 2.47 2.16 3.16 3.73.69 1.57 1.03 3.33 1.03 5.28v6.26c0 2.6-.54 4.72-1.63 6.35-1.09 1.62-2.75 2.81-4.97 3.55-2.22.75-5.03 1.12-8.44 1.12zm-130.44-.17v-7.86H40.12l-1.95-5 12.35-29.79h11.36l-10.45 25.37h6.43v-6.31l2.13-5.52H69v11.83h3.45v7.69L69 202.4v7.86H57.86zm262.22 133.97c-2.02 0-3.98-.09-5.85-.28-1.88-.2-3.6-.48-5.17-.87v-8.84h9.7c2.61 0 4.41-.65 5.43-1.95 1.01-1.3 1.52-3.14 1.52-5.51-.69.31-1.4.55-2.12.75-.73.19-1.57.31-2.53.37-.96.06-2.14.09-3.56.09-2.98 0-5.26-.46-6.83-1.38-1.57-.92-2.65-2.16-3.24-3.73-.6-1.57-.89-3.32-.89-5.23v-6.2c0-2.49.44-4.5 1.34-6.06a8.22 8.22 0 0 1 3.82-3.41c1.65-.73 3.58-1.09 5.8-1.09h5.91c2.26 0 4.23.31 5.92.95 1.68.63 3.08 1.71 4.19 3.24 1.11 1.53 1.94 3.65 2.5 6.34.55 2.7.83 6.1.83 10.19 0 4.4-.38 8.07-1.12 11-.75 2.92-1.85 5.24-3.3 6.94-1.46 1.71-3.22 2.91-5.29 3.62-2.06.71-4.41 1.06-7.06 1.06zm.69-25.66h4.94c0-1.53-.08-2.79-.23-3.79-.15-.99-.41-1.78-.77-2.35-.37-.57-.84-.98-1.41-1.21-.57-.23-1.3-.34-2.18-.34h-.98c-.61 0-1.1.11-1.46.34-.37.23-.62.56-.78.98-.15.42-.23.95-.23 1.6v1.61c0 .81.09 1.44.26 1.9.17.46.49.78.95.97.46.19 1.09.29 1.89.29zM185 344.23c-1.45 0-2.89-.12-4.31-.37-1.41-.25-2.68-.72-3.81-1.41s-2.03-1.67-2.7-2.95c-.67-1.29-1.01-2.98-1.01-5.08v-5.69c0-.92.14-1.83.4-2.75.27-.92.71-1.74 1.33-2.47.61-.73 1.45-1.21 2.52-1.44-1.15-.61-1.96-1.3-2.44-2.06-.48-.77-.76-1.61-.83-2.53-.08-.92-.12-1.87-.12-2.87v-4.82c0-2.18.49-3.93 1.47-5.23.97-1.3 2.26-2.23 3.84-2.81 1.59-.57 3.29-.86 5.09-.86h8.15c1.83 0 3.54.29 5.11.86 1.57.58 2.84 1.51 3.81 2.81.98 1.3 1.47 3.05 1.47 5.23v4.82c0 .38-.04.92-.12 1.61-.07.69-.23 1.4-.46 2.15s-.57 1.39-1.03 1.92c-.46.54-1.07.86-1.84.98 1.34.3 2.31.93 2.9 1.86.6.94.98 1.93 1.15 2.96.17 1.03.26 1.91.26 2.64v5.69c0 2.79-.52 4.88-1.55 6.28-1.03 1.4-2.39 2.33-4.08 2.81-1.68.48-3.5.72-5.45.72H185zm2.01-9.41h2.98c1.27 0 2.03-.24 2.3-.72s.4-1.12.4-1.92v-2.7c0-.77-.22-1.41-.66-1.92-.44-.52-1.08-.78-1.92-.78h-3.1c-.46 0-.86.07-1.21.2-.34.14-.62.33-.83.58-.21.24-.37.53-.49.86-.11.32-.17.67-.17 1.06v2.7c0 .99.2 1.68.6 2.06.41.38 1.1.58 2.1.58zm0-17.45h2.98c.69 0 1.18-.11 1.47-.32.28-.21.47-.55.54-1.01.08-.45.12-1.03.12-1.72v-1.78c0-1.11-.22-1.76-.66-1.95-.44-.19-.93-.29-1.47-.29h-2.98c-.69 0-1.22.11-1.58.32-.36.21-.55.85-.55 1.92v1.78c0 1.38.17 2.23.49 2.56.33.32.87.49 1.64.49zM44.92 343.89l11.14-31.52H40.15v-11.14h27.62l2.7 4.48-13.15 38.18h-12.4zm141.89 124.33h3.44c1.04 0 1.83-.26 2.39-.78.55-.52.83-1.37.83-2.55v-16.71c0-1.34-.27-2.23-.81-2.67-.53-.44-1.18-.66-1.95-.66h-4.3c-1 0-1.72.27-2.18.81-.46.53-.69 1.37-.69 2.52v16.65c0 1.22.27 2.09.8 2.61.54.52 1.36.78 2.47.78zm1.69-67c7.45 0 14.6 1.5 21.13 4.21 6.81 2.81 12.9 6.92 17.98 11.99a55.639 55.639 0 0 1 12 17.98c2.71 6.53 4.2 13.68 4.2 21.13 0 7.46-1.49 14.6-4.2 21.13a55.425 55.425 0 0 1-12 17.98 55.372 55.372 0 0 1-17.98 12 55.047 55.047 0 0 1-21.13 4.2c-7.45 0-14.6-1.49-21.13-4.2a55.372 55.372 0 0 1-17.98-12 55.425 55.425 0 0 1-12-17.98c-2.7-6.53-4.2-13.67-4.2-21.13 0-7.45 1.5-14.59 4.2-21.13 2.82-6.8 6.93-12.9 12-17.98a55.346 55.346 0 0 1 17.98-11.99 55.054 55.054 0 0 1 21.13-4.21zm16.97 14.33c-5.2-2.16-10.93-3.35-16.97-3.35-6.04 0-11.77 1.19-16.97 3.35-5.39 2.23-10.27 5.53-14.38 9.64-4.1 4.11-7.41 8.99-9.63 14.37-2.16 5.2-3.35 10.94-3.35 16.97 0 6.04 1.19 11.77 3.35 16.98 2.22 5.38 5.53 10.26 9.63 14.37 4.11 4.11 8.99 7.41 14.38 9.64 5.2 2.15 10.93 3.34 16.97 3.34 6.04 0 11.77-1.19 16.97-3.34 5.39-2.23 10.27-5.53 14.38-9.64 4.1-4.11 7.41-8.99 9.64-14.38 2.15-5.2 3.34-10.93 3.34-16.97 0-6.03-1.19-11.77-3.34-16.97-2.23-5.38-5.54-10.26-9.64-14.37-4.11-4.11-8.99-7.41-14.38-9.64zm116.22-148.3c7.45 0 14.6 1.5 21.13 4.2a55.425 55.425 0 0 1 17.98 12 55.425 55.425 0 0 1 12 17.98c2.7 6.53 4.2 13.68 4.2 21.13 0 7.45-1.5 14.6-4.2 21.13-2.82 6.8-6.93 12.9-12 17.98a55.532 55.532 0 0 1-17.98 12c-6.53 2.7-13.67 4.2-21.13 4.2-7.45 0-14.6-1.5-21.13-4.2-6.8-2.82-12.9-6.93-17.98-12a55.639 55.639 0 0 1-12-17.98c-2.7-6.53-4.2-13.68-4.2-21.13 0-7.45 1.5-14.6 4.2-21.13a55.425 55.425 0 0 1 12-17.98 55.532 55.532 0 0 1 17.98-12c6.53-2.7 13.68-4.2 21.13-4.2zm16.97 14.33c-5.2-2.16-10.93-3.35-16.97-3.35-6.04 0-11.77 1.19-16.97 3.35-5.39 2.22-10.26 5.53-14.37 9.63-4.11 4.11-7.41 8.99-9.64 14.38-2.16 5.2-3.35 10.93-3.35 16.97 0 6.04 1.19 11.77 3.35 16.97 2.23 5.38 5.53 10.26 9.64 14.37 4.11 4.11 8.99 7.42 14.37 9.65 5.2 2.15 10.93 3.34 16.97 3.34 6.04 0 11.77-1.19 16.97-3.34 5.38-2.23 10.27-5.54 14.38-9.65 4.1-4.11 7.41-8.99 9.64-14.37 2.15-5.2 3.34-10.93 3.34-16.97 0-6.04-1.19-11.77-3.34-16.97-2.23-5.39-5.54-10.27-9.64-14.38-4.11-4.1-8.99-7.41-14.38-9.63zM188.5 267.25c7.45 0 14.6 1.5 21.13 4.2 6.81 2.82 12.9 6.93 17.98 12a55.532 55.532 0 0 1 12 17.98 55.01 55.01 0 0 1 4.2 21.13c0 7.45-1.49 14.6-4.2 21.13-2.82 6.8-6.93 12.9-12 17.98a55.639 55.639 0 0 1-17.98 12c-6.53 2.7-13.67 4.2-21.13 4.2-7.46 0-14.6-1.5-21.13-4.2-6.8-2.82-12.9-6.93-17.98-12a55.639 55.639 0 0 1-12-17.98c-2.7-6.53-4.2-13.68-4.2-21.13 0-7.45 1.5-14.6 4.2-21.13a55.425 55.425 0 0 1 12-17.98 55.532 55.532 0 0 1 17.98-12c6.53-2.7 13.68-4.2 21.13-4.2zm16.97 14.33c-5.2-2.16-10.93-3.35-16.97-3.35-6.04 0-11.77 1.19-16.97 3.35-5.39 2.22-10.27 5.53-14.38 9.63-4.1 4.11-7.41 8.99-9.63 14.38-2.16 5.2-3.35 10.93-3.35 16.97 0 6.04 1.19 11.77 3.35 16.97 2.22 5.38 5.53 10.26 9.63 14.37 4.11 4.11 9 7.42 14.38 9.65 5.2 2.15 10.93 3.34 16.97 3.34 6.04 0 11.77-1.19 16.97-3.34 5.38-2.23 10.27-5.54 14.38-9.65 4.1-4.11 7.41-8.99 9.64-14.37 2.15-5.2 3.34-10.93 3.34-16.97 0-6.04-1.19-11.77-3.34-16.97-2.23-5.38-5.54-10.27-9.64-14.38-4.11-4.1-8.99-7.41-14.38-9.63zM55.31 267.25c7.45 0 14.6 1.5 21.13 4.2 6.81 2.82 12.9 6.93 17.98 12a55.532 55.532 0 0 1 12 17.98c2.7 6.53 4.2 13.67 4.2 21.13 0 7.45-1.5 14.6-4.2 21.13-2.82 6.8-6.93 12.9-12 17.98a55.639 55.639 0 0 1-17.98 12c-6.53 2.7-13.68 4.2-21.13 4.2-7.46 0-14.6-1.5-21.13-4.2a55.532 55.532 0 0 1-17.98-12 55.639 55.639 0 0 1-12-17.98C1.5 337.16 0 330.01 0 322.56c0-7.45 1.5-14.6 4.2-21.13a55.425 55.425 0 0 1 12-17.98 55.425 55.425 0 0 1 17.98-12c6.53-2.7 13.68-4.2 21.13-4.2zm16.97 14.33c-5.2-2.16-10.93-3.35-16.97-3.35-6.04 0-11.77 1.19-16.97 3.35-5.39 2.22-10.27 5.53-14.38 9.63-4.1 4.11-7.41 8.99-9.64 14.38-2.15 5.2-3.34 10.93-3.34 16.97 0 6.04 1.19 11.77 3.34 16.97 2.23 5.38 5.54 10.26 9.64 14.37 4.11 4.11 9 7.42 14.38 9.65 5.2 2.15 10.93 3.34 16.97 3.34 6.04 0 11.77-1.19 16.97-3.34 5.38-2.23 10.26-5.54 14.37-9.65 4.11-4.11 7.42-8.99 9.65-14.37 2.15-5.2 3.34-10.93 3.34-16.97 0-6.04-1.19-11.77-3.34-16.97-2.23-5.38-5.54-10.27-9.65-14.38-4.11-4.1-8.98-7.41-14.37-9.63zm249.41-147.95c7.45 0 14.6 1.49 21.13 4.2a55.24 55.24 0 0 1 17.98 11.99 55.639 55.639 0 0 1 12 17.98 55.272 55.272 0 0 1 0 42.27c-2.82 6.8-6.93 12.9-12 17.97a55.214 55.214 0 0 1-17.98 12 55.017 55.017 0 0 1-21.13 4.21c-7.45 0-14.6-1.5-21.13-4.21a55.32 55.32 0 0 1-17.98-12 55.489 55.489 0 0 1-12-17.97 55.285 55.285 0 0 1 0-42.27c2.82-6.8 6.93-12.9 12-17.98a55.346 55.346 0 0 1 17.98-11.99c6.53-2.71 13.68-4.2 21.13-4.2zm16.97 14.32c-5.2-2.15-10.93-3.34-16.97-3.34-6.04 0-11.77 1.19-16.97 3.34-5.39 2.23-10.26 5.53-14.37 9.64-4.11 4.11-7.41 8.99-9.64 14.37-2.16 5.2-3.35 10.94-3.35 16.97 0 6.04 1.19 11.78 3.35 16.98 2.23 5.38 5.53 10.26 9.64 14.37 4.11 4.11 8.99 7.41 14.37 9.64a44.31 44.31 0 0 0 16.97 3.35c6.04 0 11.77-1.2 16.97-3.35 5.38-2.23 10.27-5.53 14.38-9.64 4.1-4.11 7.41-8.99 9.64-14.37 2.15-5.2 3.34-10.94 3.34-16.98 0-6.03-1.19-11.77-3.34-16.97-2.23-5.38-5.54-10.26-9.64-14.37-4.11-4.11-8.99-7.41-14.38-9.64zM188.5 133.63c7.45 0 14.6 1.49 21.13 4.2 6.81 2.81 12.9 6.92 17.98 11.99a55.575 55.575 0 0 1 12 17.99c2.71 6.53 4.2 13.67 4.2 21.12 0 7.46-1.49 14.6-4.2 21.13a55.425 55.425 0 0 1-12 17.98 55.32 55.32 0 0 1-17.98 12 55.017 55.017 0 0 1-21.13 4.21c-7.46 0-14.6-1.5-21.13-4.21a55.32 55.32 0 0 1-17.98-12 55.489 55.489 0 0 1-12-17.97 55.285 55.285 0 0 1 0-42.27c2.82-6.8 6.93-12.9 12-17.98a55.346 55.346 0 0 1 17.98-11.99c6.53-2.71 13.68-4.2 21.13-4.2zm16.97 14.32c-5.2-2.15-10.93-3.34-16.97-3.34-6.04 0-11.77 1.19-16.97 3.34-5.39 2.23-10.27 5.53-14.38 9.64-4.1 4.11-7.41 8.99-9.63 14.37-2.16 5.2-3.35 10.94-3.35 16.97 0 6.04 1.19 11.78 3.35 16.98 2.22 5.38 5.53 10.26 9.63 14.37 4.11 4.11 9 7.41 14.38 9.64a44.31 44.31 0 0 0 16.97 3.35c6.04 0 11.77-1.2 16.97-3.35 5.38-2.23 10.27-5.53 14.38-9.64 4.1-4.11 7.41-8.99 9.64-14.38 2.15-5.19 3.34-10.93 3.34-16.97 0-6.03-1.19-11.77-3.34-16.97-2.23-5.38-5.54-10.26-9.64-14.37-4.11-4.11-8.99-7.41-14.38-9.64zM55.31 133.63c7.45 0 14.6 1.49 21.13 4.2 6.81 2.81 12.9 6.92 17.98 11.99a55.575 55.575 0 0 1 12 17.99c2.7 6.53 4.2 13.67 4.2 21.12 0 7.46-1.5 14.6-4.2 21.13a55.425 55.425 0 0 1-12 17.98 55.32 55.32 0 0 1-17.98 12 55.054 55.054 0 0 1-21.13 4.21c-7.46 0-14.6-1.5-21.13-4.21a55.214 55.214 0 0 1-17.98-12 55.489 55.489 0 0 1-12-17.97 55.285 55.285 0 0 1 0-42.27c2.82-6.8 6.93-12.9 12-17.98a55.24 55.24 0 0 1 17.98-11.99c6.53-2.71 13.68-4.2 21.13-4.2zm16.97 14.32c-5.2-2.15-10.93-3.34-16.97-3.34-6.04 0-11.77 1.19-16.97 3.34-5.39 2.23-10.27 5.53-14.38 9.64-4.1 4.11-7.41 8.99-9.64 14.37-2.15 5.2-3.34 10.94-3.34 16.97 0 6.04 1.19 11.78 3.34 16.98 2.23 5.38 5.54 10.26 9.64 14.37 4.11 4.11 9 7.41 14.38 9.64a44.31 44.31 0 0 0 16.97 3.35c6.04 0 11.77-1.2 16.97-3.35 5.38-2.23 10.26-5.53 14.37-9.64 4.11-4.11 7.42-8.99 9.65-14.38 2.15-5.19 3.34-10.93 3.34-16.97 0-6.03-1.19-11.77-3.34-16.97-2.23-5.38-5.54-10.26-9.65-14.37-4.11-4.11-8.98-7.41-14.37-9.64zM321.69 0c7.45 0 14.59 1.5 21.13 4.2 6.8 2.82 12.91 6.93 17.98 12a55.639 55.639 0 0 1 12 17.98c2.7 6.54 4.2 13.68 4.2 21.13 0 7.45-1.5 14.6-4.2 21.13a55.425 55.425 0 0 1-12 17.98 55.532 55.532 0 0 1-17.98 12c-6.53 2.7-13.67 4.2-21.13 4.2-7.45 0-14.6-1.5-21.13-4.2-6.8-2.82-12.9-6.93-17.98-12a55.425 55.425 0 0 1-12-17.98c-2.7-6.53-4.2-13.68-4.2-21.13 0-7.45 1.5-14.6 4.2-21.13 2.81-6.8 6.92-12.89 12-17.98a55.639 55.639 0 0 1 17.98-12c6.53-2.7 13.68-4.2 21.13-4.2zm16.97 14.32c-5.2-2.15-10.93-3.34-16.97-3.34-6.04 0-11.77 1.19-16.97 3.34-5.38 2.23-10.26 5.54-14.37 9.65-4.1 4.1-7.4 8.98-9.64 14.39-2.16 5.19-3.35 10.92-3.35 16.95 0 6.04 1.19 11.77 3.35 16.97 2.23 5.39 5.53 10.27 9.64 14.37 4.11 4.11 8.99 7.42 14.37 9.65 5.2 2.15 10.93 3.34 16.97 3.34 6.04 0 11.77-1.19 16.97-3.34 5.38-2.23 10.27-5.54 14.38-9.65 4.1-4.1 7.41-8.98 9.64-14.37 2.15-5.2 3.34-10.93 3.34-16.97 0-6.04-1.19-11.77-3.34-16.97-2.23-5.38-5.54-10.26-9.64-14.37-4.11-4.11-9-7.42-14.38-9.65zM188.5 0c7.45 0 14.59 1.5 21.13 4.2 6.8 2.82 12.9 6.93 17.98 12 10.01 10.01 16.2 23.84 16.2 39.11 0 7.45-1.49 14.6-4.2 21.13a55.425 55.425 0 0 1-12 17.98 55.639 55.639 0 0 1-17.98 12c-6.53 2.7-13.67 4.2-21.13 4.2-7.46 0-14.6-1.5-21.13-4.2-6.8-2.82-12.9-6.93-17.98-12a55.425 55.425 0 0 1-12-17.98c-2.7-6.53-4.2-13.68-4.2-21.13 0-15.26 6.2-29.08 16.2-39.09l.02-.02C159.42 6.2 173.24 0 188.5 0zm16.97 14.32c-5.2-2.15-10.93-3.34-16.97-3.34-12.25 0-23.34 4.96-31.35 12.97-8.02 8.02-12.98 19.11-12.98 31.36 0 6.04 1.19 11.77 3.35 16.97 2.22 5.39 5.53 10.27 9.63 14.37 4.11 4.11 9 7.42 14.38 9.65 5.2 2.15 10.93 3.34 16.97 3.34 6.04 0 11.77-1.19 16.97-3.34 5.38-2.23 10.27-5.54 14.38-9.65 4.1-4.1 7.41-8.98 9.64-14.37 2.15-5.2 3.34-10.93 3.34-16.97 0-12.24-4.96-23.32-12.98-31.34-4.11-4.11-9-7.42-14.38-9.65zm-133.19 0c-5.2-2.15-10.93-3.34-16.97-3.34-6.04 0-11.77 1.19-16.97 3.34-5.38 2.23-10.27 5.54-14.38 9.65-4.1 4.1-7.39 8.98-9.64 14.39-2.15 5.19-3.34 10.92-3.34 16.95 0 6.04 1.19 11.77 3.34 16.97 2.23 5.39 5.54 10.27 9.64 14.37 4.11 4.11 9 7.42 14.38 9.65 5.2 2.15 10.93 3.34 16.97 3.34 6.04 0 11.77-1.19 16.97-3.34 5.38-2.23 10.26-5.54 14.37-9.65 4.11-4.1 7.42-8.98 9.65-14.37 2.15-5.2 3.34-10.93 3.34-16.97 0-12.24-4.96-23.32-12.99-31.34-4.11-4.11-8.99-7.42-14.37-9.65z"/></svg>