<svg xmlns="http://www.w3.org/2000/svg" shape-rendering="geometricPrecision" text-rendering="geometricPrecision" image-rendering="optimizeQuality" fill-rule="evenodd" clip-rule="evenodd" viewBox="0 0 512 344.74"><path d="M57.18 0h384.51c6.08 0 11.05 4.96 11.05 11.05v33.42h-16.08V27.16c0-5.36-4.37-9.76-9.76-9.76H72c-5.36 0-9.79 4.38-9.76 9.76v108.86c-5.54.98-10.92 2.41-16.11 4.26V11.05C46.13 4.96 51.1 0 57.18 0zm-14.3 200.9v24.76h24.77l-7.45-7.44c-.6-.6-.6-1.57 0-2.17 1.51-1.36 2.49-2.17 4.17-3.34a27.67 27.67 0 0 1 15.01-4.5l.15-.01c3.75 0 7.34.75 10.62 2.11 3.39 1.41 6.46 3.47 9.01 6.03 2.56 2.55 4.62 5.61 6.03 9.01 1.36 3.27 2.11 6.86 2.11 10.61a27.738 27.738 0 0 1-8.14 19.66 27.962 27.962 0 0 1-9.01 6.03 27.852 27.852 0 0 1-10.61 2.11h-.06c-1.32 0-2.66-.1-3.98-.29-1.31-.19-2.63-.48-3.92-.87-1.58-.54-2.61-.94-4.14-1.61a27.744 27.744 0 0 1-8.89-6.81c-2.4-2.76-4.27-6.02-5.44-9.58l-13.12.02c.25 1.17.56 2.34.92 3.5.4 1.27.86 2.5 1.35 3.68.49 1.14 1.04 2.29 1.66 3.42l.04.09a40.674 40.674 0 0 0 16.55 16.41c5.62 3 12.05 4.71 18.88 4.73l.14-.01c5.49 0 10.72-1.09 15.47-3.05 4.9-2.03 9.31-4.99 13.01-8.66l.22-.23a40.6 40.6 0 0 0 8.69-13.03 40.4 40.4 0 0 0 3.05-15.46c0-5.52-1.09-10.75-3.06-15.5l-.03-.08a40.29 40.29 0 0 0-8.76-13.05 40.28 40.28 0 0 0-13.11-8.78 40.414 40.414 0 0 0-15.5-3.06c-2.84 0-5.61.29-8.26.84l-.06.02a39.61 39.61 0 0 0-7.82 2.49L61 200.02c-1.8.93-3.53 2-5.14 3.17l-.09.06a40.275 40.275 0 0 0-4.54 3.84c-.6.59-1.56.59-2.16-.01l-6.19-6.18zm37.1-44.94c44.16 0 79.97 35.81 79.97 79.98 0 44.16-35.81 79.97-79.97 79.97C35.81 315.91 0 280.1 0 235.94c0-44.17 35.81-79.98 79.98-79.98zm310.83-88.93h107.34c7.62 0 13.85 6.22 13.85 13.85v247.94c0 7.61-6.23 13.84-13.85 13.84H390.81c-7.62 0-13.85-6.23-13.85-13.84V80.88c0-7.63 6.23-13.85 13.85-13.85zm86.63 58.4h12.74v4.64h-12.74v-4.64zm-32.97 159.92c8.3 0 15.05 6.74 15.05 15.04 0 8.31-6.75 15.06-15.05 15.06s-15.05-6.75-15.05-15.06c.02-8.3 6.75-15.04 15.05-15.04zm-48.76-173.04h97.54c1.6 0 2.89 1.3 2.89 2.88v17.79a2.91 2.91 0 0 1-2.89 2.89h-97.54c-1.6 0-2.89-1.31-2.89-2.89v-17.79a2.89 2.89 0 0 1 2.89-2.88zm-41.88 172.07H169.1c7.17-13.13 11.53-28 12.24-43.8h172.49v43.8zM199.3 299.64h100.27c.26 17.34 7.41 32.89 26.76 45.1H172.54c15.48-11.22 26.83-24.86 26.76-45.1z"/></svg>