<svg xmlns="http://www.w3.org/2000/svg" shape-rendering="geometricPrecision" text-rendering="geometricPrecision" image-rendering="optimizeQuality" fill-rule="evenodd" clip-rule="evenodd" viewBox="0 0 356 511.91"><path fill-rule="nonzero" d="M128.41 492.95h34.5c30.09 0 57.45-12.33 77.29-32.17l.5-.46c19.55-19.77 31.67-46.95 31.67-76.83V266.38H18.96v117.11c0 30.12 12.31 57.49 32.12 77.29 19.85 19.86 47.22 32.17 77.33 32.17zm143.96-245.53v-54.49c0-30.1-12.32-57.48-32.14-77.32-19.84-19.82-47.22-32.13-77.32-32.13h-7.77v42.92c9.9 3.85 16.96 13.5 16.96 24.66v38.27c0 11.15-7.09 20.82-16.96 24.66v33.43h117.23zm-136.19 0V214c-9.87-3.83-16.96-13.47-16.96-24.67v-38.27c0-11.2 7.06-20.83 16.96-24.67V83.48h-7.77c-30.1 0-57.48 12.31-77.32 32.13-19.82 19.84-32.13 47.22-32.13 77.32v54.49h117.22zM267.7 67.39l38.86-38.85c5.01-5.02 13.17-5.01 18.19 0 5.01 5.02 5.01 13.16 0 18.19l-38.38 38.36a127.65 127.65 0 0 0-18.67-17.7zm-58.5-24.95 16.99-35.75c3.4-6.22 11.18-8.51 17.4-5.12 6.21 3.39 8.51 11.18 5.11 17.4l-15.18 29.61c-7.78-2.81-15.91-4.89-24.32-6.14zm97.19 74.45 30.63-16.61c6.23-3.4 14.02-1.11 17.41 5.1 3.39 6.21 1.1 14.02-5.1 17.4l-35.21 18.06c-1.8-8.32-4.39-16.33-7.73-23.95zM162.91 511.91h-34.5c-35.27 0-67.36-14.44-90.63-37.69l-.07-.07C14.45 450.87 0 418.78 0 383.49V192.93c0-35.3 14.45-67.4 37.71-90.67 23.3-23.3 55.4-37.74 90.7-37.74h34.5c35.3 0 67.4 14.44 90.67 37.7 23.3 23.31 37.74 55.41 37.74 90.71v190.56c0 35.01-14.23 66.88-37.17 90.12l-.54.58c-23.26 23.26-55.38 37.72-90.7 37.72z"/></svg>