<svg xmlns="http://www.w3.org/2000/svg" shape-rendering="geometricPrecision" text-rendering="geometricPrecision" image-rendering="optimizeQuality" fill-rule="evenodd" clip-rule="evenodd" viewBox="0 0 512 326.43"><path d="m380.4 168.24 7.73 22.12-9.38 3.27-7.73-22.12 9.38-3.27zM23.18 101.26c-6.65.71-11.98-.77-15.87-3.58-3.13-2.27-5.27-5.36-6.4-8.87-1.06-3.28-1.19-6.9-.39-10.5 1.3-5.82 5.07-11.68 11.32-15.86.32-.22.65-.4.99-.56L115.92 9.23c5.1-3.36 10.38-5.72 15.85-7.21C137.2.55 142.85-.07 148.72.01h222.45c3.82.02 7.78.56 11.9 1.9 4.21 1.38 8.56 3.57 13.05 6.87l103.57 54.04c6.13 3.66 9.93 8.58 11.48 13.68 1.13 3.67 1.1 7.39-.04 10.83-1.11 3.38-3.3 6.45-6.5 8.88-4.54 3.47-11.21 5.54-19.73 5.05h-56.43l66.77 147.07c2.7 6.86 4 13.41 3.87 19.37-.53 23.68-18.51 59.29-45.27 58.68H54.8c-25.17 1.73-39.26-35.97-40.69-56.83-.58-8.34 1.65-17.55 6.14-25.8L81.7 101.26H23.18zm-7.7-14.86c1.24.9 3.25 1.34 6.11 1.05.46-.09.93-.14 1.42-.14h394.65c.18 0 .36.01.54.03h67.16c5.11.35 8.74-.59 10.88-2.21.84-.62 1.39-1.37 1.66-2.16.24-.75.24-1.6-.02-2.44-.58-1.92-2.3-3.96-5.23-5.73L389.58 21.04c-.5-.22-.99-.5-1.45-.84-3.34-2.49-6.46-4.1-9.37-5.05-2.65-.86-5.17-1.22-7.57-1.25-17.27.8-220.94.57-222.55 0-4.54-.07-8.95.42-13.22 1.58-4.16 1.13-8.18 2.93-12.04 5.5l-.68.39L19.31 74.18c-2.94 2.05-4.68 4.65-5.23 7.12-.26 1.19-.24 2.33.06 3.27a3.7 3.7 0 0 0 1.34 1.83zm397.7 14.86h-21.03l53.6 149.39H67.12l54.01-149.39H96.88L32.98 249.4c-.15.36-.33.7-.54 1.02-3.23 5.95-4.84 12.45-4.44 18.21.19 2.82.88 5.42 2.12 7.6 1.15 2.04 2.84 3.78 5.08 5.03 3.29 1.84 7.89 2.75 13.96 2.33l411.29-.03.75.04c5.79.07 10.54-.69 14.26-2.15 3.29-1.3 5.71-3.16 7.28-5.46 1.58-2.32 2.4-5.22 2.48-8.56.09-4.04-.87-8.71-2.87-13.83l-69.17-152.34zm-31.33 0h-250.4L80.96 240.92h351l-50.11-139.66zm-239.93 70.1-7.77 22.27-9.38-3.27 7.78-22.27 9.37 3.27zm-10.27 29.18-3.33 9.21h20.11v9.97h-34.28l8.16-22.56 9.34 3.38zm258.94-3.38 8.15 22.56h-34.28v-9.97h20.11l-3.32-9.21 9.34-3.38zm-10.92 98.15c6.22 0 11.26 5.04 11.26 11.27 0 6.22-5.04 11.26-11.26 11.26s-11.26-5.04-11.26-11.26c0-6.23 5.04-11.27 11.26-11.27z"/></svg>