<svg xmlns="http://www.w3.org/2000/svg" shape-rendering="geometricPrecision" text-rendering="geometricPrecision" image-rendering="optimizeQuality" fill-rule="evenodd" clip-rule="evenodd" viewBox="0 0 512 344.74"><path d="M57.18 0h384.51c6.08 0 11.05 4.96 11.05 11.05v33.42h-16.08V27.16c0-5.36-4.37-9.76-9.76-9.76H72c-5.36 0-9.79 4.38-9.76 9.76v108.86c-5.54.98-10.92 2.41-16.11 4.26V11.05C46.13 4.96 51.1 0 57.18 0zm18.56 195.5a36.998 36.998 0 0 1 26.12 10.83c3.41 3.39 6.16 7.46 8.03 11.98 1.8 4.37 2.81 9.15 2.81 14.15 0 3.64-.54 7.2-1.55 10.55a36.75 36.75 0 0 1-3.39 7.88l12.5 14.14c.99 1.09.92 2.79-.17 3.79l-10.24 9.34c-1.07 1-2.78.92-3.77-.17l-11.84-13.55a37.129 37.129 0 0 1-7.8 3.39l-.09.02a36.95 36.95 0 0 1-10.61 1.56c-4.96 0-9.74-1.01-14.1-2.81a37.336 37.336 0 0 1-12.02-8.01 36.863 36.863 0 0 1-8.02-11.99 36.886 36.886 0 0 1-2.81-14.14c0-4.97 1.01-9.75 2.81-14.11 1.87-4.53 4.62-8.62 8.01-12.02 3.4-3.4 7.47-6.15 11.99-8.02 4.36-1.81 9.15-2.81 14.14-2.81zm16.32 20.63a23.332 23.332 0 0 0-7.5-5.03l-.13-.05a23.034 23.034 0 0 0-8.69-1.68c-3.14 0-6.13.62-8.82 1.73a23.441 23.441 0 0 0-7.5 5.03 23.044 23.044 0 0 0-6.77 16.33c0 3.14.63 6.13 1.74 8.82 1.17 2.83 2.9 5.38 5.02 7.5 2.14 2.13 4.7 3.86 7.5 5.02a23.1 23.1 0 0 0 8.83 1.75c3.14 0 6.13-.63 8.83-1.75 2.81-1.16 5.37-2.9 7.49-5.02 2.13-2.13 3.86-4.69 5.03-7.5 1.12-2.7 1.74-5.69 1.74-8.82 0-3.14-.62-6.13-1.74-8.83l-.06-.14a22.894 22.894 0 0 0-4.97-7.36zm-12.08-60.17c44.16 0 79.97 35.81 79.97 79.98 0 44.16-35.81 79.97-79.97 79.97C35.81 315.91 0 280.1 0 235.94c0-44.17 35.81-79.98 79.98-79.98zm310.83-88.93h107.34c7.62 0 13.85 6.22 13.85 13.85v247.94c0 7.61-6.23 13.84-13.85 13.84H390.81c-7.62 0-13.85-6.23-13.85-13.84V80.88c0-7.63 6.23-13.85 13.85-13.85zm86.63 58.4h12.74v4.64h-12.74v-4.64zm-32.97 159.92c8.3 0 15.05 6.74 15.05 15.04 0 8.31-6.75 15.06-15.05 15.06s-15.05-6.75-15.05-15.06c.02-8.3 6.75-15.04 15.05-15.04zm-48.76-173.04h97.54c1.6 0 2.89 1.3 2.89 2.88v17.79a2.91 2.91 0 0 1-2.89 2.89h-97.54c-1.6 0-2.89-1.31-2.89-2.89v-17.79a2.89 2.89 0 0 1 2.89-2.88zm-41.88 172.07H169.1c7.17-13.13 11.53-28 12.24-43.8h172.49v43.8zM199.3 299.64h100.27c.26 17.34 7.41 32.89 26.76 45.1H172.54c15.48-11.22 26.83-24.86 26.76-45.1z"/></svg>