<svg xmlns="http://www.w3.org/2000/svg" shape-rendering="geometricPrecision" text-rendering="geometricPrecision" image-rendering="optimizeQuality" fill-rule="evenodd" clip-rule="evenodd" viewBox="0 0 512 344.74"><path d="M57.18 0h384.51c6.08 0 11.05 4.96 11.05 11.05v33.42h-16.08V27.16c0-5.36-4.37-9.76-9.76-9.76H72c-5.36 0-9.79 4.38-9.76 9.76v108.86c-5.54.98-10.92 2.41-16.11 4.26V11.05C46.13 4.96 51.1 0 57.18 0zm51.66 201.4c-.91-.91-1.97-1.36-3.21-1.36-1.23 0-2.31.45-3.2 1.36l-4.88 4.86a35.04 35.04 0 0 0-4.14-2.25 45.04 45.04 0 0 0-4.43-1.72v-7.49c0-1.26-.43-2.32-1.31-3.2-.87-.88-1.93-1.31-3.2-1.31h-9.4c-1.2 0-2.24.43-3.15 1.31-.89.88-1.34 1.94-1.34 3.2v6.86c-1.57.37-3.1.83-4.56 1.4-1.48.57-2.88 1.22-4.21 1.94l-5.4-5.33c-.85-.89-1.88-1.35-3.13-1.35-1.23 0-2.3.46-3.2 1.35l-6.58 6.6c-.91.9-1.35 1.96-1.35 3.2 0 1.23.44 2.31 1.35 3.2l4.87 4.89c-.85 1.3-1.59 2.69-2.25 4.14-.66 1.44-1.23 2.93-1.73 4.42h-7.48c-1.27 0-2.33.43-3.2 1.31-.88.88-1.32 1.94-1.32 3.2v9.4c0 1.2.44 2.25 1.31 3.15.88.9 1.94 1.35 3.21 1.35h6.85c.37 1.57.83 3.09 1.4 4.55.57 1.48 1.22 2.91 1.94 4.3l-5.33 5.31c-.89.85-1.35 1.88-1.35 3.13 0 1.23.46 2.3 1.35 3.21l6.6 6.67c.9.84 1.97 1.26 3.2 1.26 1.23 0 2.31-.42 3.2-1.26l4.89-4.96c1.31.84 2.69 1.58 4.14 2.25 1.45.66 2.93 1.23 4.42 1.72v7.49c0 1.26.43 2.32 1.31 3.2.88.88 1.94 1.31 3.2 1.31h9.4c1.2 0 2.25-.43 3.16-1.31.89-.88 1.34-1.94 1.34-3.2v-6.86c1.57-.37 3.09-.83 4.56-1.4 1.48-.57 2.91-1.22 4.29-1.94l5.32 5.33c.85.89 1.89 1.35 3.16 1.35 1.27 0 2.32-.46 3.17-1.35l6.67-6.59c.85-.91 1.26-1.98 1.26-3.21s-.41-2.31-1.26-3.2l-4.96-4.89c.85-1.3 1.59-2.69 2.25-4.14.66-1.45 1.23-2.93 1.72-4.42h7.49c1.26 0 2.32-.43 3.2-1.31.88-.88 1.31-1.94 1.31-3.2v-9.4c0-1.2-.43-2.25-1.31-3.16-.88-.89-1.94-1.33-3.2-1.33h-6.85c-.38-1.51-.84-3.02-1.41-4.52-.57-1.51-1.22-2.92-1.94-4.25l5.33-5.4c.89-.85 1.36-1.88 1.36-3.13 0-1.23-.46-2.3-1.36-3.21l-6.59-6.57zM78.6 218.09c2.53 0 4.92.48 7.18 1.43 2.25.98 4.21 2.28 5.87 3.93 1.65 1.67 2.95 3.62 3.93 5.87.95 2.27 1.43 4.65 1.43 7.18 0 2.52-.48 4.91-1.43 7.18-.98 2.24-2.28 4.2-3.93 5.87-1.66 1.64-3.62 2.95-5.87 3.92-2.26.96-4.65 1.44-7.18 1.44-2.52 0-4.91-.48-7.17-1.44-2.25-.97-4.21-2.28-5.87-3.92-1.65-1.67-2.96-3.62-3.93-5.87-.96-2.27-1.43-4.66-1.43-7.18 0-2.53.47-4.91 1.43-7.18.97-2.25 2.28-4.2 3.93-5.87 1.66-1.65 3.62-2.95 5.87-3.93 2.26-.95 4.65-1.43 7.17-1.43zm1.38-62.13c44.16 0 79.97 35.81 79.97 79.98 0 44.16-35.81 79.97-79.97 79.97C35.81 315.91 0 280.1 0 235.94c0-44.17 35.81-79.98 79.98-79.98zm310.83-88.93h107.34c7.62 0 13.85 6.22 13.85 13.85v247.94c0 7.61-6.23 13.84-13.85 13.84H390.81c-7.62 0-13.85-6.23-13.85-13.84V80.88c0-7.63 6.23-13.85 13.85-13.85zm86.63 58.4h12.74v4.64h-12.74v-4.64zm-32.97 159.92c8.3 0 15.05 6.74 15.05 15.04 0 8.31-6.75 15.06-15.05 15.06s-15.05-6.75-15.05-15.06c.02-8.3 6.75-15.04 15.05-15.04zm-48.76-173.04h97.54c1.6 0 2.89 1.3 2.89 2.88v17.79a2.91 2.91 0 0 1-2.89 2.89h-97.54c-1.6 0-2.89-1.31-2.89-2.89v-17.79a2.89 2.89 0 0 1 2.89-2.88zm-41.88 172.07H169.1c7.17-13.13 11.53-28 12.24-43.8h172.49v43.8zM199.3 299.64h100.27c.26 17.34 7.41 32.89 26.76 45.1H172.54c15.48-11.22 26.83-24.86 26.76-45.1z"/></svg>