<svg xmlns="http://www.w3.org/2000/svg" shape-rendering="geometricPrecision" text-rendering="geometricPrecision" image-rendering="optimizeQuality" fill-rule="evenodd" clip-rule="evenodd" viewBox="0 0 445 512.57"><path d="M56.65 407.86h332.41c11.92 0 24.99 4.04 34.8 10.82-.06-5.37-.17-10.89-.31-16.42-.49-18.08-1.45-36.22-2.93-49.67H23.86c-.89 13.72-2.04 33.94-2.54 53.24-.11 4.49-.19 8.95-.23 13.28 9.77-7.04 23.38-11.25 35.56-11.25zm387.96 46.56c2.07 18.62-5.94 37.9-23.04 49.34-8.31 5.56-21.83 8.81-32.51 8.81H56.65c-15.03 0-32.17-6.42-41.74-16.65C3.83 484.08-.74 468.48 1.19 453.54c-1.3-12.74-1.4-30.37-.94-48.21.62-24.86 2.21-49.72 3.08-62.3-.02-.27-.03-.54-.03-.81l.07-1.13L25.9 87.28C28.05 63.04 38.47 40.89 54.69 25l.2-.19C70.61 9.48 91.64 0 115.83 0H326.5c24.23 0 45.24 9.53 60.93 24.9h.04c16.2 15.88 26.63 38.06 28.92 62.34l23.28 249.77c.13.42.23.86.31 1.31 2.48 14.1 3.99 38.84 4.65 63.44.51 19.3.48 38.62-.02 52.66zM86.33 270.96l4.32-25.48c9.47 2.37 17.99 3.55 25.55 3.55 7.57 0 13.67-.31 18.3-.92v-7.72l-13.9-1.24c-12.55-1.13-21.17-4.14-25.85-9.03-4.69-4.89-7.03-12.12-7.03-21.69 0-13.17 2.86-22.23 8.57-27.17 5.71-4.94 15.41-7.41 29.1-7.41 13.69 0 26.04 1.28 37.05 3.86l-3.86 24.7c-9.57-1.54-17.24-2.31-23-2.31-5.76 0-10.65.25-14.67.77v7.56l11.12 1.08c13.48 1.34 22.8 4.55 27.94 9.65 5.15 5.1 7.72 12.17 7.72 21.23 0 6.48-.87 11.96-2.63 16.44-1.74 4.48-3.83 7.87-6.25 10.19-2.42 2.32-5.84 4.09-10.26 5.32-4.43 1.24-8.31 1.99-11.66 2.24-3.34.26-7.79.39-13.35.39-13.38 0-25.78-1.34-37.21-4.01zm89.08 0 4.32-25.48c9.47 2.37 17.99 3.55 25.55 3.55 7.57 0 13.67-.31 18.3-.92v-7.72l-13.9-1.24c-12.55-1.13-21.17-4.14-25.85-9.03-4.69-4.89-7.03-12.12-7.03-21.69 0-13.17 2.86-22.23 8.57-27.17 5.71-4.94 15.41-7.41 29.1-7.41 13.69 0 26.04 1.28 37.05 3.86l-3.86 24.7c-9.57-1.54-17.24-2.31-23-2.31-5.76 0-10.65.25-14.67.77v7.56l11.12 1.08c13.48 1.34 22.8 4.55 27.94 9.65 5.15 5.1 7.72 12.17 7.72 21.23 0 6.48-.87 11.96-2.63 16.44-1.74 4.48-3.83 7.87-6.25 10.19-2.42 2.32-5.84 4.09-10.26 5.32-4.43 1.24-8.31 1.99-11.66 2.24-3.34.26-7.8.39-13.35.39-13.38 0-25.79-1.34-37.21-4.01zm92.94 1.69v-96.48h43.23c17.39 0 29.33 3.7 35.81 11.11 6.49 7.41 9.73 19.79 9.73 37.13 0 17.34-3.24 29.72-9.73 37.13-6.48 7.41-18.42 11.11-35.81 11.11h-43.23zm43.69-71.78h-12.81v47.08h12.81c4.22 0 7.28-.49 9.19-1.46 1.9-.98 2.85-3.22 2.85-6.72v-30.72c0-3.5-.95-5.74-2.85-6.72-1.91-.97-4.97-1.46-9.19-1.46zM326.5 20.73H115.83c-18.31 0-34.24 7.19-46.13 18.8l-.05.05C56.91 52.07 48.7 69.66 46.98 89.06L25.42 331.85h392.6L395.4 89.1c-1.83-19.36-10.08-36.99-22.89-49.54-11.83-11.63-27.71-18.83-46.01-18.83zM67.6 451.3h80.46v28.57H67.6V451.3z"/></svg>