<svg xmlns="http://www.w3.org/2000/svg" shape-rendering="geometricPrecision" text-rendering="geometricPrecision" image-rendering="optimizeQuality" fill-rule="evenodd" clip-rule="evenodd" viewBox="0 0 512 360.76"><path fill-rule="nonzero" d="M46.53 0h418.94c12.74 0 24.35 5.25 32.79 13.65C506.74 22.18 512 33.79 512 46.53v227.85c0 7.39-3.27 14-8.43 18.5l-59.54 60.5c-4.77 4.87-11.1 7.3-17.43 7.3l-341.2.08c-7.52 0-14.25-3.38-18.75-8.71L7.09 291.52c-4.67-4.74-7-10.94-7-17.14L0 46.53c0-12.74 5.26-24.35 13.65-32.79C22.18 5.25 33.79 0 46.53 0z"/><path fill="#CCC" d="M46.53 24.52h418.94c12.1 0 22.01 9.9 22.01 22.01v227.85l-60.88 61.86H85.4l-60.88-61.86V46.53c0-12.11 9.91-22.01 22.01-22.01z"/><path fill-rule="nonzero" d="M78.45 130.08h355.09c6.34 0 12.09 2.62 16.25 6.74l.22.21c4.11 4.17 6.73 9.99 6.73 16.26v41.11c0 6.37-2.63 12.21-6.82 16.39-4.18 4.18-10.01 6.82-16.38 6.82H78.45c-6.27 0-12.09-2.62-16.26-6.73l-.35-.35c-4.04-4.17-6.6-9.89-6.6-16.13v-41.11c0-6.33 2.58-12.07 6.72-16.27l.22-.22c4.19-4.14 9.94-6.72 16.27-6.72z"/><path fill="#fff" d="M78.45 148.47h355.09c2.66 0 4.82 2.21 4.82 4.82v41.11c0 2.61-2.22 4.82-4.82 4.82H78.45c-2.61 0-4.82-2.15-4.82-4.82v-41.11c0-2.66 2.15-4.82 4.82-4.82z"/></svg>