<svg xmlns="http://www.w3.org/2000/svg" shape-rendering="geometricPrecision" text-rendering="geometricPrecision" image-rendering="optimizeQuality" fill-rule="evenodd" clip-rule="evenodd" viewBox="0 0 512 239.76"><path fill-rule="nonzero" d="M29.19 0h453.62c8.02 0 15.36 3.3 20.62 8.56 5.27 5.26 8.57 12.61 8.57 20.63v184.39c0 7.2-2.94 13.75-7.68 18.5-4.75 4.74-11.3 7.68-18.5 7.68H26.18c-7.2 0-13.75-2.94-18.5-7.68-4.74-4.75-7.68-11.3-7.68-18.5V29.19C0 21.23 3.28 13.91 8.6 8.6A28.86 28.86 0 0 1 29.19 0z"/><path fill="#CCC" d="M29.19 20.21h453.62c4.94 0 8.98 4.04 8.98 8.99v184.38a5.98 5.98 0 0 1-5.97 5.97H26.18a5.98 5.98 0 0 1-5.97-5.97V29.19c0-4.94 4.04-8.98 8.98-8.98z"/><path fill-rule="nonzero" d="M68.49 41h375.03c11.95 0 21.68 9.73 21.68 21.68v51.06c0 11.94-9.79 21.68-21.68 21.68H68.49c-11.9 0-21.68-9.78-21.68-21.68V62.68c0-11.9 9.78-21.68 21.68-21.68z"/><rect fill="#fff" x="61.96" y="56.15" width="388.1" height="64.13" rx="6.54" ry="6.54"/></svg>