<svg xmlns="http://www.w3.org/2000/svg" shape-rendering="geometricPrecision" text-rendering="geometricPrecision" image-rendering="optimizeQuality" fill-rule="evenodd" clip-rule="evenodd" viewBox="0 0 512 256.02"><path fill-rule="nonzero" d="m511.97 132.91.03 82.84c0 11.09-4.51 21.16-11.81 28.46-7.3 7.3-17.37 11.81-28.45 11.81H40.28c-11.09 0-21.16-4.51-28.45-11.81C4.54 236.93 0 226.82 0 215.74v-82.83c0-8.48 3.81-16.07 9.81-21.17l43.05-42.68V39.51c0-10.83 4.49-20.67 11.71-27.82C71.51 4.8 81.2.38 91.7.11L416.38 0c10.91 0 20.83 4.51 28.01 11.71a39.26 39.26 0 0 1 11.72 28.01v28.87l47.1 44.15c5.79 5.44 8.71 12.81 8.76 20.17z"/><path fill="#CCC" d="M484.22 132.91v82.84c0 6.87-5.61 12.48-12.48 12.48H40.28c-6.89 0-12.5-5.61-12.5-12.49v-82.83l52.86-52.4V39.79c-.16-6.6 5.41-12.01 12.01-12.01h323.73c6.58 0 11.94 5.37 11.94 11.94v40.79l55.9 52.4z"/><path d="M147.38 119.71h217.26c2.13 0 3.87 1.77 3.87 3.87v22.86c0 2.1-1.77 3.87-3.87 3.87H147.38c-2.1 0-3.87-1.74-3.87-3.87v-22.86a3.88 3.88 0 0 1 3.87-3.87z"/></svg>