<svg xmlns="http://www.w3.org/2000/svg" shape-rendering="geometricPrecision" text-rendering="geometricPrecision" image-rendering="optimizeQuality" fill-rule="evenodd" clip-rule="evenodd" viewBox="0 0 512 279.07"><path d="M10.53 258.07h45.62c-3.85-1-6.75-4.56-6.75-8.71V8.99C49.4 4.06 53.46 0 58.39 0H435.3c4.93 0 8.99 4.06 8.99 8.99v72.85c-4.58-3.42-9.3-5.98-14.13-7.78V14.08H64.78V246.8h232.1c-2.23 6.26-3.97 13.69-5.16 22.54l-.39 2.44c-.23 1.86-.38 3.44-.38 4.46 0 .95.04 1.9.13 2.83H10.53c-5.8 0-10.53-4.73-10.53-10.53 0-5.75 4.73-10.47 10.53-10.47zM361.51 131.1c24.99-30.89 53.8-47.69 75.44-20.21 24.85 1.3 35.51 39.04 18.41 57.65 1.22-.01 2.38.24 3.38.78 1.3.71 2.28 1.87 2.8 3.51.49 1.62.49 3.72-.21 6.31l-.11.33c-.29.88-.56 2.03-.84 3.21-1.14 4.97-2.4 10.44-8.06 10.13l-.91-.1c-.13 6.48-2.18 10.76-5.31 14.58-1 1.22-2.38 2.19-3.32 3.58-3.43 5.12-2.08 6.98 3 11.31 5.63 4.82 14.6 7.95 17.44 8.81 20.9 6.36 43.57 3.96 48.49 42.92.18.77.29 1.54.29 2.33 0 1.54-1.25 2.79-2.8 2.79H319.87c-1.55 0-2.8-1.25-2.8-2.79 0-.8.11-1.59.3-2.36 4.49-35.52 22.84-36.14 42.6-41.3 5.9-1.54 16.66-4.82 22.94-10.32 3.44-3.02 5.53-6.73 4.7-11.18-4.77-4.43-8.44-9.21-9.27-18.33l-.57.01c-1.33-.02-2.61-.32-3.8-1-2.63-1.5-4.07-4.36-4.77-7.63-.88-4.15-.59-9.07-.16-12.17l.16-.6c.92-2.59 2.08-3.98 3.54-4.58-.66-12.32 1.43-31.85-11.23-35.68zM233.24 262h29.58c6.68 0 6.68 10.11 0 10.11h-29.58c-6.68 0-6.71-10.11 0-10.11z"/></svg>