<svg xmlns="http://www.w3.org/2000/svg" shape-rendering="geometricPrecision" text-rendering="geometricPrecision" image-rendering="optimizeQuality" fill-rule="evenodd" clip-rule="evenodd" viewBox="0 0 512 346.32"><path d="M11.96 0h403.68c6.58 0 11.95 5.37 11.95 11.96v82.42l-.69-.55c-5.92-4.78-12.02-8.41-18.25-11.02V30.72c0-5.8-4.73-10.55-10.56-10.55H29.55c-5.82 0-10.6 4.73-10.57 10.55v195.15c0 5.8 4.76 10.56 10.57 10.56h267.63c2.2 6.4 5.8 12.7 10.45 17.62-16.73 4.22-35.16 7.56-49.41 17.72H11.96C5.37 271.77 0 266.39 0 259.81V11.96C0 5.37 5.37 0 11.96 0zm374.22 345.98H263.97c-2 0-3.61-1.61-3.61-3.61 0-1.03.14-2.05.39-3.05 5.79-45.89 29.5-46.69 55.03-53.36 7.63-2 21.53-6.23 29.64-13.33 4.45-3.91 7.16-8.7 6.08-14.46-6.17-5.71-10.91-11.89-11.98-23.67l-.74.01c-1.71-.02-3.37-.41-4.9-1.29-3.4-1.93-5.27-5.64-6.17-9.87-1.14-5.35-.76-11.7-.21-15.71l.21-.78c1.19-3.31 2.66-5.11 4.52-5.89l.06-.02c-.86-15.93 1.84-41.16-14.52-46.11 32.29-39.9 69.52-61.62 97.48-26.11 31.14 1.63 45.03 47.54 25.69 72.24h-.81c1.86.78 3.33 2.58 4.51 5.89l.22.78c.55 4.01.92 10.36-.22 15.71-.89 4.23-2.76 7.94-6.16 9.87-1.54.88-3.19 1.27-4.9 1.29l-.74-.01c-1.07 11.78-5.82 17.96-11.98 23.67-1.08 5.76 1.63 10.55 6.08 14.46 8.11 7.1 22.01 11.33 29.64 13.33 25.52 6.67 49.24 7.47 55.03 53.36.25 1 .39 2.02.39 3.05 0 2-1.62 3.61-3.61 3.61H386.18zm-226.62-57.71h83.17c-7.33 11.56-16.94 42.06-15.2 58.05H130.6c16.86-12.22 29.03-36.24 28.96-58.05z"/></svg>