<svg xmlns="http://www.w3.org/2000/svg" shape-rendering="geometricPrecision" text-rendering="geometricPrecision" image-rendering="optimizeQuality" fill-rule="evenodd" clip-rule="evenodd" viewBox="0 0 512 282.4"><path fill-rule="nonzero" d="M95.49 0h319.92c3.7 0 7.56.24 11.5.71 22.32 2.67 43.35 13.07 58.8 28.26C501.76 44.78 512 65.82 512 89.1c0 2.96-.19 6.13-.59 9.45l-8.17 68.08c-3.83 32.01-17.6 61.52-38.71 82.63-20.44 20.44-47.59 33.14-79.26 33.14H126.72c-31.67 0-58.84-12.69-79.3-33.14-21.14-21.17-34.88-50.58-38.66-82.63L.58 97.46C.19 94.18 0 91.06 0 88.15c0-23.13 10.14-43.97 26.04-59.58C41.32 13.54 62.12 3.33 84.22.71 88.07.24 91.87 0 95.49 0z"/><path fill="#CCC" d="M95.49 20.35h319.92c41.71 0 80.75 34.56 75.82 75.82l-8.17 68.08c-6.38 53.22-44.18 97.79-97.79 97.79H126.72c-53.62 0-91.49-44.38-97.79-97.79l-8.17-69.16c-4.82-40.84 33.63-74.74 74.73-74.74z"/><path fill-rule="nonzero" d="M124.67 68.78c5.53 0 10.57 2.28 14.22 5.9 3.65 3.68 5.92 8.72 5.92 14.25 0 5.54-2.27 10.58-5.89 14.23-3.68 3.65-8.72 5.92-14.25 5.92-5.54 0-10.58-2.27-14.23-5.9-3.65-3.67-5.92-8.71-5.92-14.25 0-5.53 2.27-10.57 5.9-14.22 3.67-3.65 8.71-5.93 14.25-5.93zm281.49 52.57c5.54 0 10.57 2.27 14.23 5.9 3.65 3.67 5.92 8.71 5.92 14.25 0 5.54-2.27 10.57-5.9 14.22-3.68 3.66-8.71 5.93-14.25 5.93-5.54 0-10.57-2.27-14.22-5.9-3.66-3.68-5.93-8.71-5.93-14.25 0-5.54 2.27-10.58 5.9-14.23 3.68-3.65 8.71-5.92 14.25-5.92zm5.64 14.51a8.086 8.086 0 0 0-5.64-2.3c-2.2 0-4.2.9-5.63 2.3a8.027 8.027 0 0 0 0 11.27 8.027 8.027 0 0 0 11.27 0c1.4-1.43 2.3-3.43 2.3-5.63 0-2.2-.9-4.21-2.3-5.64zm-67.23-14.51c5.54 0 10.58 2.27 14.23 5.9 3.65 3.67 5.92 8.71 5.92 14.25 0 5.54-2.27 10.57-5.9 14.22-3.67 3.66-8.71 5.93-14.25 5.93-5.54 0-10.57-2.27-14.22-5.9-3.66-3.68-5.93-8.71-5.93-14.25 0-5.54 2.27-10.58 5.9-14.23 3.68-3.65 8.71-5.92 14.25-5.92zm5.64 14.51a8.086 8.086 0 0 0-5.64-2.3c-2.2 0-4.2.9-5.63 2.3a8.027 8.027 0 0 0 0 11.27 8.027 8.027 0 0 0 11.27 0c1.4-1.43 2.3-3.43 2.3-5.63 0-2.2-.9-4.21-2.3-5.64zm-67.22-14.51c5.53 0 10.57 2.27 14.22 5.9 3.65 3.67 5.92 8.71 5.92 14.25 0 5.54-2.27 10.57-5.9 14.22-3.67 3.66-8.71 5.93-14.24 5.93-5.54 0-10.58-2.27-14.23-5.9-3.65-3.68-5.92-8.71-5.92-14.25 0-5.54 2.27-10.58 5.9-14.23 3.67-3.65 8.71-5.92 14.25-5.92zm5.63 14.51a8.08 8.08 0 0 0-5.63-2.3c-2.2 0-4.21.9-5.64 2.3a8.027 8.027 0 0 0 0 11.27 8.05 8.05 0 0 0 5.64 2.31c2.19 0 4.2-.9 5.63-2.31a8.027 8.027 0 0 0 0-11.27zm-67.22-14.51c5.54 0 10.57 2.27 14.22 5.9 3.66 3.67 5.93 8.71 5.93 14.25 0 5.54-2.27 10.57-5.9 14.22-3.68 3.66-8.71 5.93-14.25 5.93-5.54 0-10.58-2.27-14.23-5.9-3.65-3.68-5.92-8.71-5.92-14.25 0-5.54 2.27-10.58 5.9-14.23 3.67-3.65 8.71-5.92 14.25-5.92zm5.63 14.51a8.062 8.062 0 0 0-5.63-2.3c-2.2 0-4.21.9-5.64 2.3a8.086 8.086 0 0 0-2.3 5.64c0 2.2.9 4.2 2.3 5.63a8.027 8.027 0 0 0 11.27 0 8.027 8.027 0 0 0 0-11.27zm-67.22-14.51c5.54 0 10.57 2.27 14.23 5.9 3.65 3.67 5.92 8.71 5.92 14.25 0 5.54-2.27 10.57-5.9 14.22-3.68 3.66-8.71 5.93-14.25 5.93-5.54 0-10.57-2.27-14.23-5.9-3.65-3.68-5.92-8.71-5.92-14.25 0-5.54 2.27-10.58 5.9-14.23 3.68-3.65 8.71-5.92 14.25-5.92zm5.63 14.51a8.062 8.062 0 0 0-5.63-2.3c-2.2 0-4.21.9-5.64 2.3a8.086 8.086 0 0 0-2.3 5.64c0 2.2.9 4.2 2.3 5.63a8.027 8.027 0 0 0 11.27 0 8.027 8.027 0 0 0 0-11.27zm208.26 37.31c5.54 0 10.57 2.27 14.22 5.9 3.65 3.68 5.93 8.71 5.93 14.25 0 5.54-2.28 10.57-5.9 14.22-3.68 3.66-8.71 5.93-14.25 5.93-5.54 0-10.58-2.27-14.23-5.9-3.65-3.68-5.92-8.71-5.92-14.25 0-5.54 2.27-10.57 5.9-14.23 3.67-3.65 8.71-5.92 14.25-5.92zm5.63 14.51a8.062 8.062 0 0 0-5.63-2.3c-2.2 0-4.21.9-5.64 2.3a8.094 8.094 0 0 0-2.31 5.64c0 2.2.91 4.2 2.31 5.63a8.027 8.027 0 0 0 11.27 0 8.027 8.027 0 0 0 0-11.27zm-67.22-14.51c5.54 0 10.57 2.27 14.22 5.9 3.66 3.68 5.93 8.71 5.93 14.25 0 5.54-2.27 10.57-5.9 14.22-3.68 3.66-8.71 5.93-14.25 5.93-5.54 0-10.57-2.27-14.23-5.9-3.65-3.68-5.92-8.71-5.92-14.25 0-5.54 2.27-10.57 5.9-14.23 3.68-3.65 8.71-5.92 14.25-5.92zm5.63 14.51a8.062 8.062 0 0 0-5.63-2.3c-2.2 0-4.21.9-5.64 2.3a8.086 8.086 0 0 0-2.3 5.64c0 2.2.9 4.2 2.3 5.63a8.027 8.027 0 0 0 11.27 0 8.027 8.027 0 0 0 0-11.27zm-67.22-14.51c5.54 0 10.57 2.27 14.23 5.9 3.65 3.68 5.92 8.71 5.92 14.25 0 5.54-2.27 10.57-5.9 14.22-3.68 3.66-8.71 5.93-14.25 5.93-5.54 0-10.57-2.27-14.22-5.9-3.66-3.68-5.93-8.71-5.93-14.25 0-5.54 2.27-10.57 5.9-14.23 3.68-3.65 8.71-5.92 14.25-5.92zm5.64 14.51a8.086 8.086 0 0 0-5.64-2.3c-2.2 0-4.2.9-5.63 2.3a8.027 8.027 0 0 0 0 11.27 8.027 8.027 0 0 0 11.27 0c1.4-1.43 2.3-3.43 2.3-5.63 0-2.2-.9-4.21-2.3-5.64zm-67.23-14.51c5.54 0 10.58 2.27 14.23 5.9 3.65 3.68 5.92 8.71 5.92 14.25 0 5.54-2.27 10.57-5.9 14.22-3.67 3.66-8.71 5.93-14.25 5.93-5.54 0-10.57-2.27-14.22-5.9-3.65-3.68-5.93-8.71-5.93-14.25 0-5.54 2.28-10.57 5.9-14.23 3.68-3.65 8.71-5.92 14.25-5.92zm5.64 14.51a8.086 8.086 0 0 0-5.64-2.3c-2.2 0-4.2.9-5.63 2.3a8.027 8.027 0 0 0 0 11.27 8.027 8.027 0 0 0 11.27 0 8.07 8.07 0 0 0 2.31-5.63c0-2.2-.91-4.21-2.31-5.64zm-67.22-14.51c5.53 0 10.57 2.27 14.22 5.9 3.65 3.68 5.92 8.71 5.92 14.25 0 5.54-2.27 10.57-5.89 14.22-3.68 3.66-8.72 5.93-14.25 5.93-5.54 0-10.58-2.27-14.23-5.9-3.65-3.68-5.92-8.71-5.92-14.25 0-5.54 2.27-10.57 5.9-14.23 3.67-3.65 8.71-5.92 14.25-5.92zm5.63 14.51a8.08 8.08 0 0 0-5.63-2.3c-2.2 0-4.21.9-5.64 2.3a8.027 8.027 0 0 0 0 11.27 8.05 8.05 0 0 0 5.64 2.31c2.19 0 4.2-.9 5.63-2.31a8.027 8.027 0 0 0 0-11.27zm238.04-118.9c5.54 0 10.57 2.28 14.22 5.9 3.66 3.68 5.93 8.72 5.93 14.25 0 5.54-2.27 10.58-5.9 14.23-3.68 3.65-8.71 5.92-14.25 5.92-5.54 0-10.58-2.27-14.23-5.9-3.65-3.67-5.92-8.71-5.92-14.25 0-5.53 2.27-10.57 5.9-14.22 3.67-3.65 8.71-5.93 14.25-5.93zm5.63 14.52a8.027 8.027 0 0 0-11.27 0 8.08 8.08 0 0 0-2.3 5.63c0 2.2.9 4.21 2.3 5.64a8.094 8.094 0 0 0 5.64 2.31c2.2 0 4.2-.91 5.63-2.31a8.05 8.05 0 0 0 2.31-5.64c0-2.19-.9-4.2-2.31-5.63zm-67.22-14.52c5.54 0 10.57 2.28 14.23 5.9 3.65 3.68 5.92 8.72 5.92 14.25 0 5.54-2.27 10.58-5.9 14.23-3.68 3.65-8.71 5.92-14.25 5.92-5.54 0-10.57-2.27-14.23-5.9-3.65-3.67-5.92-8.71-5.92-14.25 0-5.53 2.27-10.57 5.9-14.22 3.68-3.65 8.71-5.93 14.25-5.93zm5.63 14.52a8.009 8.009 0 0 0-5.63-2.31c-2.2 0-4.21.9-5.64 2.31a8.08 8.08 0 0 0-2.3 5.63c0 2.2.9 4.21 2.3 5.64a8.094 8.094 0 0 0 5.64 2.31c2.2 0 4.21-.91 5.63-2.31a8.05 8.05 0 0 0 2.31-5.64c0-2.19-.9-4.2-2.31-5.63zm-67.22-14.52c5.54 0 10.58 2.28 14.23 5.9 3.65 3.68 5.92 8.72 5.92 14.25 0 5.54-2.27 10.58-5.9 14.23-3.67 3.65-8.71 5.92-14.25 5.92-5.54 0-10.57-2.27-14.22-5.9-3.66-3.67-5.93-8.71-5.93-14.25 0-5.53 2.27-10.57 5.9-14.22 3.68-3.65 8.71-5.93 14.25-5.93zm5.64 14.52a8.027 8.027 0 0 0-11.27 0 8.045 8.045 0 0 0-2.31 5.63c0 2.2.9 4.21 2.31 5.64a8.07 8.07 0 0 0 5.63 2.31c2.2 0 4.21-.91 5.64-2.31 1.4-1.43 2.3-3.44 2.3-5.64 0-2.19-.9-4.2-2.3-5.63zm-67.23-14.52c5.54 0 10.58 2.28 14.23 5.9 3.65 3.68 5.92 8.72 5.92 14.25 0 5.54-2.27 10.58-5.9 14.23-3.67 3.65-8.71 5.92-14.25 5.92-5.53 0-10.57-2.27-14.22-5.9-3.65-3.67-5.92-8.71-5.92-14.25 0-5.53 2.27-10.57 5.89-14.22 3.68-3.65 8.72-5.93 14.25-5.93zm5.64 14.52a8.05 8.05 0 0 0-5.64-2.31c-2.19 0-4.2.9-5.63 2.31a8.045 8.045 0 0 0-2.31 5.63c0 2.2.9 4.21 2.31 5.64a8.088 8.088 0 0 0 5.63 2.31c2.2 0 4.21-.91 5.64-2.31a8.094 8.094 0 0 0 2.31-5.64c0-2.19-.91-4.2-2.31-5.63zm-61.59 0a8.045 8.045 0 0 0-5.63-2.31c-2.2 0-4.21.9-5.64 2.31a8.088 8.088 0 0 0-2.31 5.63c0 2.2.91 4.21 2.31 5.64a8.094 8.094 0 0 0 5.64 2.31c2.19 0 4.2-.91 5.63-2.31a8.05 8.05 0 0 0 2.31-5.64c0-2.19-.9-4.2-2.31-5.63z"/></svg>