<svg xmlns="http://www.w3.org/2000/svg" shape-rendering="geometricPrecision" text-rendering="geometricPrecision" image-rendering="optimizeQuality" fill-rule="evenodd" clip-rule="evenodd" viewBox="0 0 333 512.39"><path fill-rule="nonzero" d="M146.68 492.45h39.64c34.84 0 66.53-14.27 89.51-37.24 22.97-22.97 37.23-54.66 37.23-89.51V230.13l-.85.04H19.94V365.7c0 34.85 14.26 66.54 37.23 89.51s54.67 37.24 89.51 37.24zm-31.69-158.31c-4.52 3.99-11.43 3.57-15.42-.94-3.99-4.52-3.56-11.43.95-15.42 21.1-18.65 43.61-28.19 66.54-27.81 22.35.37 44.57 10.15 65.66 30.01 4.39 4.12 4.6 11.05.46 15.45-4.12 4.39-11.05 4.6-15.45.47-16.96-15.98-34.21-23.83-51.01-24.1-17.29-.29-34.82 7.38-51.73 22.34zm51.5 46.34c10.05 0 18.2 8.15 18.2 18.2 0 10.05-8.15 18.2-18.2 18.2-10.06 0-18.2-8.15-18.2-18.2 0-10.05 8.14-18.2 18.2-18.2zm-27.06-11.56c-4.66 3.8-11.56 3.09-15.36-1.58-3.8-4.68-3.09-11.57 1.59-15.38 12.75-10.35 26.7-15.76 40.96-15.79 13.91-.06 27.78 5.03 40.71 15.59 4.67 3.81 5.38 10.7 1.58 15.37-3.8 4.68-10.7 5.39-15.38 1.59-8.87-7.26-18.04-10.75-26.91-10.73-9.09.02-18.35 3.76-27.19 10.93zm173.63-158.65v-63.59c0-34.84-14.26-66.53-37.23-89.51-22.98-22.97-54.67-37.23-89.51-37.23h-9.85v55.21c11.19 4.11 19.24 14.92 19.24 27.43v42.27c0 12.51-8.07 23.31-19.24 27.43v37.95h135.74l.85.04zm-156.53-.04v-37.95c-11.16-4.1-19.24-14.87-19.24-27.43v-42.27c0-12.56 8.05-23.34 19.24-27.44v-55.2h-9.85c-34.84 0-66.54 14.26-89.51 37.23-22.97 22.98-37.23 54.67-37.23 89.51v63.55h136.59zm29.79 302.16h-39.64c-40.34 0-77.03-16.5-103.6-43.08C16.5 442.73 0 406.05 0 365.7V146.68c0-40.34 16.5-77.03 43.08-103.6C69.65 16.5 106.34 0 146.68 0h39.64c40.34 0 77.03 16.5 103.6 43.08C316.5 69.65 333 106.34 333 146.68V365.7c0 40.35-16.5 77.03-43.08 103.61-26.57 26.58-63.26 43.08-103.6 43.08z"/></svg>