<svg xmlns="http://www.w3.org/2000/svg" shape-rendering="geometricPrecision" text-rendering="geometricPrecision" image-rendering="optimizeQuality" fill-rule="evenodd" clip-rule="evenodd" viewBox="0 0 512 406.05"><path d="M389.46 266.26c-14.01 15.36-30.32 29.12-48.63 40.24-2.26 1.66-5.31 1.86-7.82.25-27.05-17.21-49.78-37.88-67.64-60.35-24.65-30.92-40.16-65.19-45.47-98.21-5.41-33.47-.35-65.69 16.31-91.87 6.56-10.34 14.95-19.77 25.17-27.91C284.88 9.7 311.72-.2 338.48 0c25.75.2 51.18 9.8 73.15 29.87 7.72 7.01 14.2 15.05 19.51 23.77 17.92 29.51 21.78 67.14 13.91 105.27-7.77 37.68-27.06 75.96-55.59 107.28v.07zm-190.3-50.94c8.38 0 15.18 6.8 15.18 15.18 0 8.39-6.8 15.18-15.18 15.18H68.63l-33.9 130.01h442.32l-35.22-131.15c-2.16-8.09 2.65-16.4 10.73-18.56 8.09-2.16 16.4 2.64 18.56 10.73l40.12 149.41c.49 1.5.76 3.09.76 4.75 0 8.38-6.8 15.18-15.18 15.18H15.13V406c-1.25 0-2.52-.16-3.79-.48-8.09-2.1-12.95-10.36-10.85-18.45l41.5-159.16c1.23-7.15 7.46-12.59 14.96-12.59h142.21zM333.37 63c32.81 0 59.41 26.6 59.41 59.41 0 32.81-26.6 59.41-59.41 59.41-32.81 0-59.41-26.6-59.41-59.41 0-32.81 26.6-59.41 59.41-59.41z"/></svg>