<svg id="Layer_1" data-name="Layer 1" xmlns="http://www.w3.org/2000/svg" viewBox="0 0 122.88 89.39"><title>beach-chair-umbrella</title><path d="M3.39,89.39V83.25H43.7L36.8,40.42,2.93,46A2.14,2.14,0,0,1,.48,44.19l0-.09A37.54,37.54,0,0,1,7.39,15.88,39.23,39.23,0,0,1,61.33,7,37.6,37.6,0,0,1,76.92,31.67a2.15,2.15,0,0,1-1.76,2.47L41.33,39.68l6.59,40.94,4.55-5H48.9V69.47h13L46.85,51l4.74-3.89,9.56,11.68H78.4A3.08,3.08,0,0,1,81,60.28l6.49,9.19H101.2a3.08,3.08,0,0,1,2.32,1.06l12.82,12.72h6.54v6.14ZM27.58,6.17c-3.24,2.88-5.29,7.1-6.33,12.3-1.15,5.73-1.05,12.6.07,20.14l14.8-2.42-1.3-8c0-.11,0-.22,0-.33L31.09,5.18a33.67,33.67,0,0,0-3.51,1ZM17.1,39.3c-1.21-8.06-1.3-15.45-.06-21.67a32.66,32.66,0,0,1,2.38-7.43,34.51,34.51,0,0,0-8.57,8.21,33.36,33.36,0,0,0-6.42,23L17.1,39.3ZM48.36,5.57a32.16,32.16,0,0,1,4.49,6.11c3.2,5.53,5.48,12.59,6.91,20.64l12.51-2.05a33.32,33.32,0,0,0-13.4-19.72,34.56,34.56,0,0,0-10.51-5ZM55.53,33c-1.35-7.56-3.46-14.12-6.38-19.18C46.53,9.3,43.27,6,39.33,4.29a33,33,0,0,0-3.71.16l5.07,31L55.53,33ZM66.18,65l3.69,4.51H80L76.82,65ZM53.8,83.25h53.85L100,75.61H60.75l-7,7.64Z"/></svg>