<svg xmlns="http://www.w3.org/2000/svg" xml:space="preserve" width="512" height="445" shape-rendering="geometricPrecision" text-rendering="geometricPrecision" image-rendering="optimizeQuality" fill-rule="evenodd" clip-rule="evenodd" viewBox="0 0 512 444.66"><path d="M221.11 83.17c3.01-2.62 6.7-4.38 10.58-5.27 3.7-.85 7.64-.9 11.38-.14 3.08.62 6.03 1.79 8.62 3.51 2.37-1.62 4.96-2.77 7.68-3.48 3.47-.9 7.06-1.06 10.55-.52 3.44.52 6.86 1.72 10.01 3.56 4.37 2.53 8.23 6.27 10.98 11.11 4.56-.1 8.97 1.43 12.61 4.07a22.34 22.34 0 0 1 6.06 6.66c1.59 2.68 2.63 5.75 2.88 9 .62 7.52-2.76 15.77-12.75 22.1a8.598 8.598 0 0 1-3.3 1.22v12.59l9.11-.8c14.09-1.24 25.71 11.57 25.71 25.72v30.2c0 13.87-11.4 26.42-25.21 25.21l-9.61-.83v7.61c0 4.87-4.02 8.88-8.89 8.88h-81.63c-4.87 0-8.9-3.99-8.9-8.88v-99.84c-.64-.28-1.24-.64-1.78-1.06-11.81-8.36-15.48-18.49-14.19-27.39.7-4.83 2.91-9.21 6.12-12.71 3.1-3.39 7.16-5.97 11.71-7.35 5.74-1.76 12.24-1.67 18.52 1.02a22.3 22.3 0 0 1 3.74-4.19zm56.58 299.82a31.082 31.082 0 0 1-17.82 5.72c-5.76.01-11.54-1.55-16.63-4.78l-.08-.09c-15.89-10.11-30.56-21.25-43.86-33.11-13.77-12.2-26.17-25.35-37.07-39.07-14.75-18.49-26.83-38.07-36.07-57.99-9.43-20.39-15.92-41.33-19.24-62.03-3.47-21.51-3.53-42.6-.01-62.49 3.54-19.95 10.62-38.79 21.41-55.76 4.34-6.74 9.35-13.34 15.03-19.63 5.39-6.09 11.48-11.83 18.15-17.13 15.02-11.96 31.22-21.16 47.96-27.33 16.96-6.26 34.62-9.42 52.32-9.3 17.63.13 35.04 3.5 51.62 10.25 16.04 6.65 31.33 16.23 45.27 28.95 4.91 4.45 9.6 9.43 13.99 14.79 4.47 5.43 8.43 11.04 11.91 16.75 11.48 18.99 18.55 40.3 21.5 62.78 3.01 22.78 1.83 46.88-3.15 70.99-7.51 36.48-23.21 71.7-44.95 102.49-21.4 30.31-48.86 56.64-80.28 75.99zm-13.54-22.14c-2.46 1.8-5.8 2.04-8.53.29-29.52-18.79-54.35-41.36-73.82-65.85-26.89-33.74-43.84-71.15-49.63-107.18-5.9-36.53-.39-71.66 17.79-100.24 7.17-11.3 16.32-21.59 27.48-30.46 25.66-20.46 54.97-31.24 84.13-31.03 28.12.2 55.86 10.7 79.83 32.57 8.43 7.65 15.52 16.43 21.31 25.95 19.55 32.19 23.76 73.25 15.15 114.87-13.4 65.2-56.46 126.33-113.71 161.08zm208.57 55.65-36.95-108.46c-1.61-4.74-4.32-9.19-9.18-9.19h-20.68l13.86-28.15h6.82c11.58 0 20.32 4.92 26.92 12.49 4.29 4.91 7.05 10.47 8.88 15.83L512 444.66H0l44.38-144.87c2.03-6.49 5.46-13.25 10.69-18.48h.11c6.47-6.44 14.74-10.61 25.22-10.61h13.74l15.09 28.15H80.4c-4.87 0-7.77 4.57-9.18 9.19L37.98 416.5h434.74zM296.84 163.79h10.91c3.53 0 6.42 2.89 6.42 6.42v35.37c0 3.21-2.64 5.85-5.85 5.85h-11.48v-47.64zm-55.46-5.35c0-2.94 2.38-5.33 5.32-5.33 2.95 0 5.33 2.39 5.33 5.33v55.25a5.326 5.326 0 0 1-10.65 0v-55.25zm24.66 4.37c0-2.94 2.38-5.33 5.33-5.33 2.94 0 5.32 2.39 5.32 5.33v46.5c0 2.94-2.38 5.33-5.32 5.33-2.95 0-5.33-2.39-5.33-5.33v-46.5zm-49.32 0c0-2.94 2.38-5.33 5.32-5.33 2.94 0 5.32 2.39 5.32 5.33v46.5c0 2.94-2.38 5.33-5.32 5.33-2.94 0-5.32-2.39-5.32-5.33v-46.5zm-16.31-35.76c-27.75-19.33 2.88-46.99 21.88-25.68-1.53-17.75 23.68-20.57 29.23-7.64 8.17-14.07 29.76-9.41 34.34 8.19 12.3-6.9 28.48 12.52 9.32 24.66-4.07.63-8.02.66-12.11.59-6.35-.11-7.88 3.14-8.01 8.91-.24 11.99-16.15 14.02-21.63 6.19-3.82-5.47-.48-15.22-15.49-15.22h-37.53z"/></svg>