<svg xmlns="http://www.w3.org/2000/svg" shape-rendering="geometricPrecision" text-rendering="geometricPrecision" image-rendering="optimizeQuality" fill-rule="evenodd" clip-rule="evenodd" viewBox="0 0 512 269.25"><path fill-rule="nonzero" d="M307.34 269.13h-.32a6.844 6.844 0 0 1-8.02-6.63c-.31-17.31-5.08-36.59-13.18-54.97-6.99-15.88-16.43-30.98-27.59-43.5-9.69 11.92-17.7 26.22-23.83 41.23-7.85 19.22-12.62 39.58-13.91 57.61a6.86 6.86 0 0 1-7.32 6.36c-.25-.02-.5-.05-.75-.1h-80.21c-3.79 0-6.86-3.07-6.86-6.86 0-3.79 3.07-6.87 6.86-6.87h9.13c11.13-40.25 26.34-82.41 46.6-122.26 13.61-26.79 29.5-52.54 47.94-75.97l-20.27-35.12 11.85-6.86 17.7 30.65c2.53-2.97 5.1-5.9 7.72-8.78V0h13.74v37.64c2.47 2.94 4.91 5.91 7.31 8.9l18.1-31.35 11.86 6.86-20.85 36.12c20.69 27.21 38.49 55.93 53.23 84.85 19.38 38.01 33.52 76.47 42.09 112.38h5.05c3.79 0 6.87 3.08 6.87 6.87s-3.08 6.86-6.87 6.86h-76.07zM385.6 70.69c6.91-4.7 12.48-11.34 14.5-18.54a30.527 30.527 0 0 1-18.83 6.46c-16.92 0-30.65-13.72-30.65-30.65 0-7.37 2.6-14.13 6.94-19.42-9.09 2.3-16.11 7.91-20.65 15-20.56 32.06 16.6 69 48.69 47.15zM18.2 269.13a6.86 6.86 0 0 1-6.87-6.86c0-3.79 3.07-6.87 6.87-6.87h31.53v-52.88H7.05c-7.15.65-8.59-4.99-5.54-9.68l27.27-35.52-.79-.79H13.4c-5.28.79-7.24-4.95-4.04-8.97l29.37-38.05h-8.57c-5.37.14-6.7-4.8-3.25-9.46l26.75-35.32c1.82-2.17 3.78-5.36 6.96-5.28 2.74.06 4.38 2.65 6.01 4.55l28.45 36.73c3.09 4.43.46 9.09-4.93 9.09h-7.68l29.16 37.73c3.5 3.46 1.71 9.01-2.3 9.77H92.37l25.43 33.38 2.78 3.27c2.13 2.43 1.07 8-3.52 8.55H71.24v52.88h32.2c3.79 0 6.87 3.08 6.87 6.87s-3.08 6.86-6.87 6.86H18.2zm391.81 0c-3.79 0-6.86-3.07-6.86-6.86 0-3.79 3.07-6.87 6.86-6.87h30.09v-51.26h-42.68c-7.15.66-8.6-4.99-5.55-9.68l27.27-35.51-.78-.79h-14.59c-5.29.78-7.25-4.96-4.04-8.97l29.37-38.06h-8.58c-5.37.15-6.7-4.8-3.25-9.46l26.75-35.32c1.83-2.17 3.79-5.35 6.96-5.28 2.74.06 4.39 2.65 6.01 4.55l28.46 36.73c3.08 4.43.45 9.09-4.93 9.09h-7.69L502 149.18c3.49 3.45 1.71 9-2.31 9.76h-16.96l25.43 33.38 2.79 3.27c2.12 2.43 1.06 8-3.53 8.55H461.6v51.26h30.75c3.79 0 6.87 3.08 6.87 6.87s-3.08 6.86-6.87 6.86h-82.34zM155.58 255.4h51.83c1.96-17.63 6.84-36.94 14.34-55.29 7.72-18.91 18.23-36.84 31.21-50.94l.22-.22a6.85 6.85 0 0 1 9.68.03c14.61 14.69 26.85 33.35 35.51 53.02 7.75 17.59 12.69 36.1 13.99 53.4h51.91c-8.38-33.91-21.89-70.18-40.23-106.16-17.34-34.02-38.99-67.73-64.67-98.88-23.38 26.53-42.95 56.96-59.2 88.95-19.19 37.75-33.77 77.72-44.59 116.09z"/></svg>