<svg xmlns="http://www.w3.org/2000/svg" xml:space="preserve" width="512" height="445" shape-rendering="geometricPrecision" text-rendering="geometricPrecision" image-rendering="optimizeQuality" fill-rule="evenodd" clip-rule="evenodd" viewBox="0 0 512 444.66"><path d="M315.43 144.28h-7.44v22.22h7.46v.02c1.53 0 2.95-.65 3.98-1.7l.2-.17c.91-1.01 1.48-2.33 1.49-3.76h-.02v-.05h.02v-10.91h-.02v-.01h.02a5.652 5.652 0 0 0-1.67-3.98 5.722 5.722 0 0 0-3.98-1.68v.02h-.04zm-37.74 238.71a31.082 31.082 0 0 1-17.82 5.72c-5.76.01-11.54-1.55-16.63-4.78l-.08-.09c-15.89-10.11-30.56-21.25-43.86-33.11-13.77-12.2-26.17-25.35-37.07-39.07-14.75-18.49-26.83-38.07-36.07-57.99-9.43-20.39-15.92-41.33-19.24-62.03-3.47-21.51-3.53-42.6-.01-62.49 3.54-19.95 10.62-38.79 21.41-55.76 4.34-6.74 9.35-13.34 15.03-19.63 5.39-6.09 11.48-11.83 18.15-17.13 15.02-11.96 31.22-21.16 47.96-27.33 16.96-6.26 34.62-9.42 52.32-9.3 17.63.13 35.04 3.5 51.62 10.25 16.04 6.65 31.33 16.23 45.27 28.95 4.91 4.45 9.6 9.43 13.99 14.79 4.47 5.43 8.43 11.04 11.91 16.75 11.48 18.99 18.55 40.3 21.5 62.78 3.01 22.78 1.83 46.88-3.15 70.99-7.51 36.48-23.21 71.7-44.95 102.49-21.4 30.31-48.86 56.64-80.28 75.99zm-13.54-22.14c-2.46 1.8-5.8 2.04-8.53.29-29.52-18.79-54.35-41.36-73.82-65.85-26.89-33.74-43.84-71.15-49.63-107.18-5.9-36.53-.39-71.66 17.79-100.24 7.17-11.3 16.32-21.59 27.48-30.46 25.66-20.46 54.97-31.24 84.13-31.03 28.12.2 55.86 10.7 79.83 32.57 8.43 7.65 15.52 16.43 21.31 25.95 19.55 32.19 23.76 73.25 15.15 114.87-13.4 65.2-56.46 126.33-113.71 161.08zm208.57 55.65-36.95-108.46c-1.61-4.74-4.32-9.19-9.18-9.19h-20.68l13.86-28.15h6.82c11.58 0 20.32 4.92 26.92 12.49 4.29 4.91 7.05 10.47 8.88 15.83L512 444.66H0l44.38-144.87c2.03-6.49 5.46-13.25 10.69-18.48h.11c6.47-6.44 14.74-10.61 25.22-10.61h13.74l15.09 28.15H80.4c-4.87 0-7.77 4.57-9.18 9.19L37.98 416.5h434.74zM221.18 68.75c2.36-1.55 5.5-.85 7.01 1.58 1.51 2.42.82 5.65-1.54 7.21-4.29 2.84-4.31 5.05-2.99 7.03 1.13 1.72 2.88 3.58 4.61 5.43 2.42 2.56 4.83 5.13 6.49 8.11 3.94 7.03 3.6 14.03-8.8 20.97-2.46 1.38-5.54.45-6.87-2.08-1.33-2.53-.43-5.7 2.02-7.08 5.19-2.9 5.84-4.92 4.88-6.62-.98-1.77-2.97-3.9-4.98-6.02-2.06-2.19-4.13-4.4-5.73-6.82-4.64-7.02-5.48-14.19 5.9-21.71zm57.06 0c2.36-1.55 5.49-.85 7 1.58 1.51 2.42.83 5.65-1.53 7.21-4.29 2.84-4.31 5.05-3 7.03 1.13 1.72 2.89 3.58 4.62 5.43 2.41 2.56 4.83 5.13 6.49 8.11 3.94 7.03 3.6 14.03-8.81 20.97-2.45 1.38-5.53.45-6.86-2.08-1.33-2.53-.42-5.7 2.03-7.08 5.17-2.9 5.82-4.92 4.87-6.62-.99-1.77-2.98-3.9-4.98-6.02-2.06-2.19-4.14-4.4-5.73-6.82-4.64-7.02-5.48-14.19 5.9-21.71zm-28.53 0c2.36-1.55 5.49-.85 7 1.58 1.51 2.42.83 5.65-1.52 7.21-4.3 2.84-4.32 5.05-3.01 7.03 1.14 1.72 2.88 3.58 4.63 5.43 2.4 2.56 4.82 5.13 6.49 8.11 3.93 7.03 3.59 14.03-8.81 20.97-2.45 1.38-5.53.45-6.86-2.08-1.34-2.53-.44-5.7 2.02-7.08 5.18-2.9 5.82-4.92 4.88-6.62-.99-1.77-2.99-3.9-4.99-6.02-2.06-2.19-4.13-4.4-5.73-6.82-4.64-7.02-5.47-14.19 5.9-21.71zm-55.55 150.32h34.92c-16.48-8.24-27.88-25.3-27.88-44.9v-40.43h100.33v.53c.44-.12.9-.18 1.37-.18h12.58v.02h.02c4.33.02 8.26 1.79 11.11 4.63 2.86 2.85 4.65 6.81 4.66 11.18h.02v.01h-.02v10.72l.01.2h.01v.04h-.02v.01a15.82 15.82 0 0 1-4.28 10.76c-.1.13-.22.24-.34.37a15.879 15.879 0 0 1-11.2 4.64v.02H302.9c-.5 0-.97-.08-1.43-.21-.85 18.62-11.97 34.67-27.8 42.59h37.66c1.04 0 1.9 1.03 1.9 2.29v9.61c0 1.26-.86 2.28-1.9 2.28H194.16c-1.05 0-1.9-1.02-1.9-2.28v-9.61c0-1.26.85-2.29 1.9-2.29z"/></svg>