<svg id="Layer_1" data-name="Layer 1" xmlns="http://www.w3.org/2000/svg" viewBox="0 0 122.88 122.88"><title>compass-northeast</title><path d="M61.44,0A61.46,61.46,0,1,1,18,18,61.23,61.23,0,0,1,61.44,0Zm5.25,73.85-3.64-3.69-.15,0a8.38,8.38,0,0,1-.88,0,8.86,8.86,0,0,1-8.88-8.87,9.2,9.2,0,0,1,0-.94l0-.2-4-4L37.88,85.29,66.69,73.85Zm-2.22-6L70,73.4l1.43,1.43L33.17,90,48.28,51.41l7.82,7.92L56,60a5.67,5.67,0,0,0-.11.66c0,.24,0,.46,0,.66A6.23,6.23,0,0,0,62,67.56l.62,0a5.77,5.77,0,0,0,.62-.09l.7-.14.51.51ZM58.52,55.18l-6.3-6.39.42-.85.7-.64L89.71,32.85,74.61,71.47l-7.07-7.16.3-.79a5.85,5.85,0,0,0,.29-1.07,7.14,7.14,0,0,0,.1-1.1A6.23,6.23,0,0,0,62,55.14a6.56,6.56,0,0,0-1.08.09,5.45,5.45,0,0,0-1,.27l-.8.29-.6-.61ZM96.58,26.3a49.71,49.71,0,1,0,14.55,35.14A49.57,49.57,0,0,0,96.58,26.3Z"/></svg>