<svg id="Layer_1" data-name="Layer 1" xmlns="http://www.w3.org/2000/svg" viewBox="0 0 122.88 122.88"><title>compass-southeast</title><path d="M61.44,111.13A49.68,49.68,0,1,0,26.3,96.58a49.57,49.57,0,0,0,35.14,14.55ZM70,49.48l-6,6.1-.7-.14a5.77,5.77,0,0,0-.62-.09l-.62,0a6.23,6.23,0,0,0-6.22,6.21c0,.2,0,.42,0,.66a5.67,5.67,0,0,0,.11.66l.15.7-7.82,7.92L33.17,32.85l38.25,15.2L70,49.48Zm-6.94,3.24L66.69,49,37.88,37.59,49.26,66.68l4-4,0-.2a9.2,9.2,0,0,1,0-.94A8.86,8.86,0,0,1,62,52.66a8.38,8.38,0,0,1,.88,0l.15,0ZM52.88,73.41l6.24-6.32.8.29a5.45,5.45,0,0,0,1,.27,6.56,6.56,0,0,0,1.08.09,6.21,6.21,0,0,0,6.21-6.21,7.14,7.14,0,0,0-.1-1.1,5.85,5.85,0,0,0-.29-1.07l-.3-.79,7.07-7.16L89.71,90,53.34,75.58l-.7-.64-.42-.85.66-.68Zm52,31.47a61.42,61.42,0,1,1,18-43.44,61.23,61.23,0,0,1-18,43.44Z"/></svg>