<svg id="Layer_1" data-name="Layer 1" xmlns="http://www.w3.org/2000/svg" viewBox="0 0 122.88 122.88"><title>compass-west</title><path d="M61.44,0A61.46,61.46,0,1,1,18,18,61.23,61.23,0,0,1,61.44,0Zm2.41,76-.05-8.59.6-.4a5,5,0,0,0,.5-.37c.15-.13.31-.27.46-.42a6.2,6.2,0,0,0,0-8.78,5.26,5.26,0,0,0-.49-.44q-.27-.21-.54-.39l-.6-.39L63.66,45l38,16.62L63.85,78V76Zm2.62-7.2,0,5.18L95,61.64,66.35,49.12l0,5.63.16.13a8.17,8.17,0,0,1,.7.62h0a8.87,8.87,0,0,1,0,12.55q-.31.31-.66.6l-.12.09ZM59,46.93l.06,8.87-.77.37a5.73,5.73,0,0,0-.92.53,7.57,7.57,0,0,0-.81.69h0a6.22,6.22,0,0,0,0,8.79,5.87,5.87,0,0,0,.85.7,5.42,5.42,0,0,0,1,.55l.78.36.06,10-38-16.62q18.24-7.89,36.5-15.75l1.29.64v.82ZM96.58,26.3a49.71,49.71,0,1,0,14.55,35.14A49.57,49.57,0,0,0,96.58,26.3Z"/></svg>