<svg id="Layer_1" data-name="Layer 1" xmlns="http://www.w3.org/2000/svg" viewBox="0 0 122.88 122.88"><title>compass-northwest</title><path d="M61.44,0A61.46,61.46,0,1,1,18,18,61.23,61.23,0,0,1,61.44,0ZM52.89,73.4l6-6.1.7.14a5.77,5.77,0,0,0,.62.09l.63,0a6.23,6.23,0,0,0,6.21-6.21c0-.2,0-.42,0-.66a5.67,5.67,0,0,0-.11-.66l-.15-.7,7.82-7.92L89.72,90,51.46,74.83l1.43-1.43Zm6.94-3.24-3.64,3.69L85,85.29,73.62,56.2l-4,4,0,.2a9.2,9.2,0,0,1,0,.94,8.86,8.86,0,0,1-8.87,8.87,8.45,8.45,0,0,1-.89,0l-.15,0ZM70,49.47l-6.24,6.32L63,55.5a5.45,5.45,0,0,0-1-.27,6.53,6.53,0,0,0-1.07-.09,6.21,6.21,0,0,0-6.22,6.21,7.14,7.14,0,0,0,.1,1.1A5.85,5.85,0,0,0,55,63.52l.3.79-7.07,7.16L33.17,32.85,69.54,47.3l.7.64.42.85-.66.68ZM96.58,26.3a49.71,49.71,0,1,0,14.55,35.14A49.57,49.57,0,0,0,96.58,26.3Z"/></svg>