<svg id="Layer_1" data-name="Layer 1" xmlns="http://www.w3.org/2000/svg" viewBox="0 0 122.88 122.88"><title>compass-south</title><path d="M61.44,0A61.46,61.46,0,1,1,18,18,61.23,61.23,0,0,1,61.44,0ZM76,59l-8.59,0-.4-.6a5,5,0,0,0-.37-.5c-.13-.15-.27-.31-.42-.46a6.2,6.2,0,0,0-8.78,0A5.26,5.26,0,0,0,57,58c-.14.17-.27.36-.39.54l-.39.6L45,59.22l16.62-38L78,59Zm-7.2-2.62,5.18,0L61.64,27.92,49.12,56.53l5.63,0,.13-.16a8.17,8.17,0,0,1,.62-.7h0a8.87,8.87,0,0,1,12.55,0q.31.32.6.66l.09.12ZM46.93,63.86l8.87-.06.37.77a5.25,5.25,0,0,0,.53.91,6.8,6.8,0,0,0,.69.82h0a6.22,6.22,0,0,0,8.79,0,5.87,5.87,0,0,0,.7-.85,5.16,5.16,0,0,0,.55-1l.36-.77,10-.06-16.62,38Q53.33,83.4,45.47,65.15l.64-1.29ZM96.58,26.3a49.71,49.71,0,1,0,14.55,35.14A49.57,49.57,0,0,0,96.58,26.3Z"/></svg>