<svg id="Layer_1" data-name="Layer 1" xmlns="http://www.w3.org/2000/svg" viewBox="0 0 122.88 122.88"><title>compass-southwest</title><path d="M61.44,122.88a61.46,61.46,0,1,1,43.44-18,61.21,61.21,0,0,1-43.44,18ZM56.19,49l3.64,3.69.15,0a8.38,8.38,0,0,1,.88,0,8.86,8.86,0,0,1,8.88,8.87,9.2,9.2,0,0,1,0,.94l0,.2,4,4L85,37.59,56.19,49Zm2.22,6-5.52-5.59-1.43-1.43,38.25-15.2L74.6,71.47l-7.82-7.92.15-.7a5.67,5.67,0,0,0,.11-.66c0-.24,0-.46,0-.66a6.23,6.23,0,0,0-6.22-6.21l-.62,0a5.77,5.77,0,0,0-.62.09l-.7.14-.51-.51Zm6,12.63,6.3,6.39-.42.85-.7.64L33.17,90l15.1-38.62,7.07,7.16-.3.79a5.85,5.85,0,0,0-.29,1.07,7.14,7.14,0,0,0-.1,1.1,6.23,6.23,0,0,0,6.21,6.21,6.35,6.35,0,0,0,1.07-.09,5.35,5.35,0,0,0,1-.27l.8-.29.6.61ZM26.3,96.58A49.71,49.71,0,1,0,11.75,61.44,49.57,49.57,0,0,0,26.3,96.58Z"/></svg>