<svg id="Layer_1" data-name="Layer 1" xmlns="http://www.w3.org/2000/svg" viewBox="0 0 122.88 122.88"><title>compass-east</title><path d="M61.44,0A61.46,61.46,0,1,1,18,18,61.23,61.23,0,0,1,61.44,0ZM56.38,73.93l0-5.18-.11-.09a7.73,7.73,0,0,1-.67-.6,8.9,8.9,0,0,1,0-12.55h0a8.17,8.17,0,0,1,.7-.62l.16-.13,0-5.63L27.92,61.64,56.38,73.93Zm2.69-5.85,0,7.86v2L21.23,61.66,59.22,45l-.07,11.13-.6.39c-.18.12-.37.25-.54.39a5.26,5.26,0,0,0-.49.44,6.2,6.2,0,0,0,0,8.78c.15.15.31.29.46.42a5,5,0,0,0,.5.37l.6.4v.72ZM63.8,55l.06-8.85,1.29-.64q18.25,7.85,36.5,15.75l-38,16.62.06-10,.77-.36a5.16,5.16,0,0,0,1-.55,5.87,5.87,0,0,0,.85-.7,6.22,6.22,0,0,0,0-8.79h0a6.8,6.8,0,0,0-.82-.69,5.25,5.25,0,0,0-.91-.53l-.77-.37V55ZM96.58,26.3a49.71,49.71,0,1,0,14.55,35.14A49.57,49.57,0,0,0,96.58,26.3Z"/></svg>