<svg id="Layer_1" data-name="Layer 1" xmlns="http://www.w3.org/2000/svg" viewBox="0 0 92.53 122.88"><defs><style>.cls-1{fill-rule:evenodd;}</style></defs><title>end-location</title><path class="cls-1" d="M46.27,18.21A28.62,28.62,0,1,1,17.64,46.83,28.62,28.62,0,0,1,46.27,18.21Zm1.36,97.48A82.49,82.49,0,0,0,64,101.81,85.44,85.44,0,0,0,84.56,62.23c2.81-13.67,1.5-27-4.75-37.34a36.74,36.74,0,0,0-6.63-8.06C65.62,9.93,57,6.64,48.23,6.56,39.07,6.49,29.77,10,21.55,16.5a38.54,38.54,0,0,0-8.63,9.56C7.15,35.15,5.41,46.43,7.31,58.24c1.94,12,7.67,24.61,16.77,36a102.2,102.2,0,0,0,23.55,21.41Zm21.24-9.46a88.89,88.89,0,0,1-19.34,16,3.29,3.29,0,0,1-3.7.13,109.07,109.07,0,0,1-26.9-24c-9.8-12.3-16-26-18.1-39.1C-1.33,45.89.7,33,7.36,22.53a45.3,45.3,0,0,1,10.1-11.18C26.85,3.87,37.6-.09,48.29,0,58.6.09,68.79,3.93,77.6,12a43.62,43.62,0,0,1,7.82,9.53c7.15,11.8,8.71,26.83,5.57,42.05a92.13,92.13,0,0,1-22.12,42.69Zm-25-46.39a15.63,15.63,0,0,1-2.25-.2,7.72,7.72,0,0,1-2.53-.85,5.38,5.38,0,0,1-2.05-2,7.46,7.46,0,0,1-.82-3.81V37.79a8.23,8.23,0,0,1,.66-3.51,5.87,5.87,0,0,1,1.72-2.21A6.52,6.52,0,0,1,41,30.94a10.05,10.05,0,0,1,2.5-.33c2.18,0,4.06,0,5.64.1s2.94.13,4.09.21,2.18.17,3.07.28v6.4H45.82a2.25,2.25,0,0,0-1.48.42,1.6,1.6,0,0,0-.51,1.29v2.42l10.5.39v6l-10.5.39v2.19A2.72,2.72,0,0,0,44,51.86a1.46,1.46,0,0,0,.61.66,1.67,1.67,0,0,0,.86.22H56.28v6.4c-1.12.15-2.4.28-3.83.39s-2.88.18-4.37.23-2.87.08-4.17.08Z"/></svg>