<svg id="Layer_1" data-name="Layer 1" xmlns="http://www.w3.org/2000/svg" viewBox="0 0 92.53 122.88"><defs><style>.cls-1{fill-rule:evenodd;}</style></defs><title>ev-point-station</title><path class="cls-1" d="M46.27,18.2a28.61,28.61,0,1,1-5.07.45L34,31.08a1,1,0,0,0-.13.48.93.93,0,0,0,.94.91L39,32.4,38.39,37H27.48V58h15V52.66H34.2V50.11h6.72V45.24H34.2V42.42h7.22l.81-5.17,5.71-9.74A.94.94,0,0,0,48.1,27a.93.93,0,0,0-.93-.93H43.62L44,18.29c.75-.05,1.5-.09,2.27-.09ZM58,37h7.09L59.84,58H50l-5.2-21h7.09l2.85,13.34h.3L58,37ZM47.63,115.69A82.49,82.49,0,0,0,64,101.81,85.53,85.53,0,0,0,84.56,62.23c2.81-13.67,1.5-27-4.76-37.34a36.41,36.41,0,0,0-6.62-8.06C65.61,9.93,57,6.63,48.23,6.56,39.07,6.48,29.77,10,21.55,16.5a38.54,38.54,0,0,0-8.63,9.56C7.15,35.15,5.41,46.43,7.31,58.24c1.94,12,7.67,24.61,16.77,36a102.2,102.2,0,0,0,23.55,21.41Zm21.23-9.46a88.78,88.78,0,0,1-19.32,16,3.3,3.3,0,0,1-3.72.13,109.2,109.2,0,0,1-26.89-24c-9.8-12.31-16-26-18.1-39.1C-1.33,45.89.7,33,7.36,22.53a45.3,45.3,0,0,1,10.1-11.18C26.85,3.87,37.6-.09,48.29,0,58.6.09,68.79,3.93,77.6,12a43.06,43.06,0,0,1,7.81,9.53c7.16,11.8,8.72,26.83,5.58,42.05a92.05,92.05,0,0,1-22.13,42.69Z"/></svg>