<svg id="Layer_1" data-name="Layer 1" xmlns="http://www.w3.org/2000/svg" viewBox="0 0 92.53 122.88"><defs><style>.cls-1{fill-rule:evenodd;}</style></defs><title>ev-station-location</title><path class="cls-1" d="M46.27,18.2A28.63,28.63,0,1,1,17.64,46.83,28.62,28.62,0,0,1,46.27,18.2Zm1.36,97.49A82.49,82.49,0,0,0,64,101.81,85.53,85.53,0,0,0,84.56,62.23c2.81-13.67,1.5-27-4.76-37.34a36.41,36.41,0,0,0-6.62-8.06C65.61,9.93,57,6.63,48.23,6.56,39.07,6.48,29.77,10,21.55,16.5a38.54,38.54,0,0,0-8.63,9.56C7.15,35.15,5.41,46.43,7.31,58.24c1.94,12,7.67,24.61,16.77,36a102.2,102.2,0,0,0,23.55,21.41Zm21.23-9.46a88.78,88.78,0,0,1-19.32,16,3.3,3.3,0,0,1-3.72.13,109.2,109.2,0,0,1-26.89-24c-9.8-12.31-16-26-18.1-39.1C-1.33,45.89.7,33,7.36,22.53a45.3,45.3,0,0,1,10.1-11.18C26.85,3.87,37.6-.09,48.29,0,58.6.09,68.79,3.93,77.6,12a43.06,43.06,0,0,1,7.81,9.53c7.16,11.8,8.72,26.83,5.58,42.05a92.05,92.05,0,0,1-22.13,42.69ZM40.92,51.12H34.2v2.55h8.23v5.38H27.48v-21H42.26l-.84,5.38H34.2v2.82h6.72v4.87ZM53.36,28.24H51.23V24.57a1.1,1.1,0,0,0-1.1-1.1h0a1.11,1.11,0,0,0-1.1,1.1v3.67H45.79V24.57a1.1,1.1,0,0,0-1.1-1.1h0a1.1,1.1,0,0,0-1.1,1.1v3.67H41.52a.7.7,0,0,0-.7.69v.81a.7.7,0,0,0,.7.7H42v1.29c0,2.87,1.1,4.86,4.08,5.15l0,1.17H43.9l5.21,21h9.81l5.2-21H57L54.14,51.39h-.3L51,38.05H49.11v-1.2c2.74-.44,3.7-2.12,3.7-5V30.44h.55a.7.7,0,0,0,.7-.7v-.81a.7.7,0,0,0-.7-.69Z"/></svg>