<svg id="Layer_1" data-name="Layer 1" xmlns="http://www.w3.org/2000/svg" viewBox="0 0 92.53 122.88"><defs><style>.cls-1{fill-rule:evenodd;}</style></defs><title>gas-station-location</title><path class="cls-1" d="M67,31a1,1,0,0,1,.29.21l.07.07a14.71,14.71,0,0,1,3.15,3.2,6.49,6.49,0,0,1,1.13,4.87,4.76,4.76,0,0,1-.88,2.1,5.48,5.48,0,0,1-1.2,1.15c0,.62,0,1.22,0,1.81,0,.77,0,1.56.08,2.37.1,1.89.38,3.81.66,5.7A32.55,32.55,0,0,1,71,57.25a12.4,12.4,0,0,1-1.1,6.5,5.06,5.06,0,0,1-5,2.6h0c-2.83,0-4.58-1.64-5.37-4.58a14.24,14.24,0,0,1-.41-4.8c.23-3.52.87-5.37.3-9.1A13,13,0,0,0,58.26,44a4.68,4.68,0,0,0-2.51-2.42V66.89a3.52,3.52,0,0,1,.92.66,3.4,3.4,0,0,1,1,2.38v2.39a1.1,1.1,0,0,1-1.1,1.1H28.46a1.1,1.1,0,0,1-1.1-1.1V69.93A3.41,3.41,0,0,1,29,67.05V28.75a5.82,5.82,0,0,1,5.81-5.81H49.91a5.86,5.86,0,0,1,5.84,5.84V39.32A6.5,6.5,0,0,1,60.21,43a16,16,0,0,1,1.39,4.88c.69,5,0,4.4-.32,9.12a11.84,11.84,0,0,0,.34,4.17c.51,1.91,1.58,2.94,3.3,3h0a3,3,0,0,0,3-1.5,10.54,10.54,0,0,0,.82-5.33,34.76,34.76,0,0,0-.67-4.52c-.29-1.93-.58-3.87-.69-5.92,0-.8-.07-1.62-.07-2.47,0-.67,0-1.34,0-2a10.46,10.46,0,0,1-3.68-5.37,5.77,5.77,0,0,1,1.2-4.87,15.85,15.85,0,0,0-2.74-1.52,7.35,7.35,0,0,0-2.61-.82,1.09,1.09,0,0,1,.35-2.16,9.17,9.17,0,0,1,3.13,1A19.42,19.42,0,0,1,67,31ZM47.63,115.69A82.49,82.49,0,0,0,64,101.81,85.53,85.53,0,0,0,84.56,62.23c2.81-13.67,1.5-27-4.76-37.34a36.41,36.41,0,0,0-6.62-8.06C65.61,9.93,57,6.63,48.23,6.56,39.07,6.48,29.77,10,21.55,16.5a38.54,38.54,0,0,0-8.63,9.56C7.15,35.15,5.41,46.43,7.31,58.24c1.94,12,7.67,24.61,16.77,36a102.2,102.2,0,0,0,23.55,21.41Zm21.23-9.46a88.78,88.78,0,0,1-19.32,16,3.3,3.3,0,0,1-3.72.13,109.2,109.2,0,0,1-26.89-24c-9.8-12.31-16-26-18.1-39.1C-1.33,45.89.7,33,7.36,22.53a45.3,45.3,0,0,1,10.1-11.18C26.85,3.87,37.6-.09,48.29,0,58.6.09,68.79,3.93,77.6,12a43.06,43.06,0,0,1,7.81,9.53c7.16,11.8,8.72,26.83,5.58,42.05a92.05,92.05,0,0,1-22.13,42.69ZM54.75,68.86H30.27a1.16,1.16,0,0,0-.36.25,1.13,1.13,0,0,0-.35.83v1.29H55.47V69.94a1.21,1.21,0,0,0-.35-.83,1.15,1.15,0,0,0-.37-.25ZM36.11,28H48.84a2.38,2.38,0,0,1,1.7.71l.08.09a2.37,2.37,0,0,1,.62,1.6v8.12a2.39,2.39,0,0,1-.7,1.7,2.42,2.42,0,0,1-1.7.71H36.11a2.42,2.42,0,0,1-1.69-.71h0a2.39,2.39,0,0,1-.7-1.69V30.35a2.39,2.39,0,0,1,.7-1.69l.1-.09a2.42,2.42,0,0,1,1.6-.62Z"/></svg>