<svg xmlns="http://www.w3.org/2000/svg" xml:space="preserve" width="512" height="445" shape-rendering="geometricPrecision" text-rendering="geometricPrecision" image-rendering="optimizeQuality" fill-rule="evenodd" clip-rule="evenodd" viewBox="0 0 512 444.66"><path d="m472.72 416.5-36.95-108.46c-1.61-4.74-4.32-9.19-9.18-9.19h-20.68l13.86-28.15h6.82c11.58 0 20.32 4.92 26.92 12.49 4.29 4.91 7.05 10.47 8.88 15.83L512 444.66H0l44.38-144.87c2.03-6.49 5.46-13.25 10.69-18.48h.11c6.47-6.44 14.74-10.61 25.22-10.61h13.74l15.09 28.15H80.4c-4.87 0-7.77 4.57-9.18 9.19L37.98 416.5h434.74zM322.44 188.14l-.83-31-50.95 14.71c-4.59 1-9.1 1.5-13.55 1.5-4.77.03-9.43-.5-14.06-1.5l-48.68-14.88v31.45c1.39 16.33 48.24 21.33 62.63 22.02 11.53.56 57.06-5.45 63.03-14.85 1.3-2.05 2.1-4.54 2.41-7.45zm20.66-53.32v37.89h1.19c.8 0 1.5.67 1.5 1.5v10.18c0 .79-.67 1.49-1.5 1.49h-1.22v3.57c1.53.28 2.69 1.62 2.69 3.24 0 1.79-1.5 3.29-3.3 3.29h-5.89c-1.79 0-3.29-1.47-3.29-3.29 0-1.62 1.16-2.94 2.68-3.24v-3.57h-1.18c-.81 0-1.5-.67-1.5-1.49v-10.18c0-.83.66-1.5 1.5-1.5h1.21v-35.68l-62.01 19.28c-11.23 2.68-22.46 2.85-33.69 0l-68.43-20.44-6.2-1.85c-7.71-3.16-5.78-10.55 1.39-12.26l77.42-23.11c7.99-2.28 15.95-2.64 23.95 0l76.01 22.83c8.27 2.02 9.9 9.66.28 12.81l-1.61.53zm-65.41 248.17a31.082 31.082 0 0 1-17.82 5.72c-5.76.01-11.54-1.55-16.63-4.78l-.08-.09c-15.89-10.11-30.56-21.25-43.86-33.11-13.77-12.2-26.17-25.35-37.07-39.07-14.75-18.49-26.83-38.07-36.07-57.99-9.43-20.39-15.92-41.33-19.24-62.03-3.47-21.51-3.53-42.6-.01-62.49 3.54-19.95 10.62-38.79 21.41-55.76 4.34-6.74 9.35-13.34 15.03-19.63 5.39-6.09 11.48-11.83 18.15-17.13 15.02-11.96 31.22-21.16 47.96-27.33 16.96-6.26 34.62-9.42 52.32-9.3 17.63.13 35.04 3.5 51.62 10.25 16.04 6.65 31.33 16.23 45.27 28.95 4.91 4.45 9.6 9.43 13.99 14.79 4.47 5.43 8.43 11.04 11.91 16.75 11.48 18.99 18.55 40.3 21.5 62.78 3.01 22.78 1.83 46.88-3.15 70.99-7.51 36.48-23.21 71.7-44.95 102.49-21.4 30.31-48.86 56.64-80.28 75.99zm-13.54-22.14c-2.46 1.8-5.8 2.04-8.53.29-29.52-18.79-54.35-41.36-73.82-65.85-26.89-33.74-43.84-71.15-49.63-107.18-5.9-36.53-.39-71.66 17.79-100.24 7.17-11.3 16.32-21.59 27.48-30.46 25.66-20.46 54.97-31.24 84.13-31.03 28.12.2 55.86 10.7 79.83 32.57 8.43 7.65 15.52 16.43 21.31 25.95 19.55 32.19 23.76 73.25 15.15 114.87-13.4 65.2-56.46 126.33-113.71 161.08z"/></svg>