<svg id="Layer_1" data-name="Layer 1" xmlns="http://www.w3.org/2000/svg" viewBox="0 0 92.53 122.88"><defs><style>.cls-1{fill-rule:evenodd;}</style></defs><title>start-location-b</title><path class="cls-1" d="M46.27,18.21A28.62,28.62,0,1,1,17.64,46.83,28.62,28.62,0,0,1,46.27,18.21Zm1.36,97.49A82.87,82.87,0,0,0,64,101.81,85.44,85.44,0,0,0,84.56,62.23c2.81-13.67,1.5-27-4.75-37.34a36.74,36.74,0,0,0-6.63-8.06C65.62,9.93,57,6.64,48.23,6.56,39.07,6.49,29.77,10,21.55,16.5a38.54,38.54,0,0,0-8.63,9.56C7.15,35.15,5.41,46.43,7.31,58.24c1.94,12,7.67,24.61,16.77,36A102.46,102.46,0,0,0,47.63,115.7Zm21.24-9.47a88.89,88.89,0,0,1-19.34,16,3.29,3.29,0,0,1-3.7.13,109.07,109.07,0,0,1-26.9-24c-9.8-12.3-16-26-18.1-39.1C-1.33,45.89.7,33,7.36,22.53a45.3,45.3,0,0,1,10.1-11.18C26.85,3.87,37.6-.09,48.29,0,58.6.09,68.79,3.93,77.6,12a43.62,43.62,0,0,1,7.82,9.53c7.15,11.8,8.71,26.83,5.57,42.05a92.13,92.13,0,0,1-22.12,42.69ZM36,61.14v-29h12c3.12,0,5.37.69,6.73,2.07a7.68,7.68,0,0,1,2,5.66,8.84,8.84,0,0,1-.45,3,5.38,5.38,0,0,1-1.32,2.1,4.6,4.6,0,0,1-2.21,1.15,7.55,7.55,0,0,1,1.91.82,5.67,5.67,0,0,1,1.57,1.45,7.09,7.09,0,0,1,1,2.1,9.27,9.27,0,0,1,.37,2.74,9.2,9.2,0,0,1-1,4.6,6,6,0,0,1-3,2.56,13.85,13.85,0,0,1-5,.8Zm7.57-6.79h4.8A2,2,0,0,0,49.57,54a2,2,0,0,0,.73-.87,3.77,3.77,0,0,0,0-2.7,2,2,0,0,0-.73-.87,2,2,0,0,0-1.17-.32H43.6v5.08Zm0-10.81H48a1.37,1.37,0,0,0,1.27-.67,3,3,0,0,0,.41-1.64,2.45,2.45,0,0,0-.52-1.81A1.67,1.67,0,0,0,48,38.93H43.6v4.61Z"/></svg>