<svg id="Layer_1" data-name="Layer 1" xmlns="http://www.w3.org/2000/svg" viewBox="0 0 92.53 122.88"><defs><style>.cls-1{fill-rule:evenodd;}</style></defs><title>start-location-a</title><path class="cls-1" d="M46.27,18.21A28.62,28.62,0,1,1,17.64,46.83,28.62,28.62,0,0,1,46.27,18.21Zm1.36,97.48A82.49,82.49,0,0,0,64,101.81,85.44,85.44,0,0,0,84.56,62.23c2.81-13.67,1.5-27-4.75-37.34a36.74,36.74,0,0,0-6.63-8.06C65.62,9.93,57,6.64,48.23,6.56,39.07,6.49,29.77,10,21.55,16.5a38.54,38.54,0,0,0-8.63,9.56C7.15,35.15,5.41,46.43,7.31,58.24c1.94,12,7.67,24.61,16.77,36a102.2,102.2,0,0,0,23.55,21.41Zm21.23-9.46a88.6,88.6,0,0,1-19.33,16,3.29,3.29,0,0,1-3.7.13,109.07,109.07,0,0,1-26.9-24c-9.8-12.3-16-26-18.1-39.1C-1.33,45.89.7,33,7.36,22.53a45.3,45.3,0,0,1,10.1-11.18C26.85,3.87,37.6-.09,48.29,0,58.6.09,68.79,3.93,77.6,12a43.62,43.62,0,0,1,7.82,9.53c7.15,11.8,8.71,26.83,5.57,42.05a92.05,92.05,0,0,1-22.13,42.69ZM33,59.73l8.58-29H51l8.58,29H51.73l-1.17-4.6h-8.7l-1.14,4.6ZM43.61,48.34H48.8L46.19,37.18,43.61,48.34Z"/></svg>