<svg xmlns="http://www.w3.org/2000/svg" shape-rendering="geometricPrecision" text-rendering="geometricPrecision" image-rendering="optimizeQuality" fill-rule="evenodd" clip-rule="evenodd" viewBox="0 0 512 461.77"><path d="M260.38 0h153.75c1.78 0 3.23 1.45 3.23 3.22v20.82c0 1.78-1.45 3.23-3.23 3.23h-23.1v31.42h-13.58V27.27h-78.92v31.42h-13.59V27.27h-24.56c-1.77 0-3.22-1.45-3.22-3.23V3.22A3.23 3.23 0 0 1 260.38 0zM16.09 91.54C7.21 91.54 0 84.33 0 75.45c0-8.88 7.21-16.09 16.09-16.09h64.09c31.42 0 57.38 12.63 75.8 33.08 18.92 21.03 29.56 50.23 29.56 82.19v135.46c-9.94-4.11-20.81-6.44-32.17-6.6V174.63c0-24.01-7.66-45.58-21.27-60.7-12.46-13.84-30.23-22.39-51.92-22.39H16.09zm458.56 299.55a44.139 44.139 0 0 1 6.38 22.93c0 24.49-19.85 44.34-44.35 44.34-24.48 0-44.34-19.85-44.34-44.34 0-8.39 2.34-16.24 6.38-22.93H239.7v-.11c0-11.32-2.15-22.13-6.07-32.06h262.28c8.88 0 16.09 7.21 16.09 16.09 0 8.88-7.21 16.08-16.09 16.08h-21.26zm-322.43-70.91c39.1 0 70.79 31.7 70.79 70.8 0 39.09-31.69 70.79-70.79 70.79-39.1 0-70.79-31.7-70.79-70.79 0-39.1 31.69-70.8 70.79-70.8zm-.01 42.81c15.46 0 27.99 12.53 27.99 27.99 0 15.45-12.53 27.97-27.99 27.97-15.45 0-27.98-12.52-27.98-27.97 0-15.46 12.53-27.99 27.98-27.99zm284.47 30.35c11.02 0 19.96 8.94 19.96 19.96 0 11.02-8.94 19.96-19.96 19.96-11.02 0-19.96-8.94-19.96-19.96 0-11.02 8.94-19.96 19.96-19.96zM253.2 68.84h168.11c16.63 0 30.24 13.62 30.24 30.24v199.14c0 16.62-13.62 30.24-30.24 30.24H253.2c-16.62 0-30.24-13.61-30.24-30.24V99.08c0-16.63 13.61-30.24 30.24-30.24zm9.57 86.36h148.97v15.32H262.77V155.2zm52.22-77.53h44.54v35.2c0 2.55-2.1 4.64-4.65 4.64h-35.25c-2.55 0-4.64-2.09-4.64-4.65V77.67zm-52.22 185.72h148.97v15.32H262.77v-15.32zm0-54.09h148.97v15.31H262.77V209.3z"/></svg>