<svg xmlns="http://www.w3.org/2000/svg" shape-rendering="geometricPrecision" text-rendering="geometricPrecision" image-rendering="optimizeQuality" fill-rule="evenodd" clip-rule="evenodd" viewBox="0 0 499 511.84"><path d="M382.12.29c36.6 5.29 73.97 68.49 48.92 91.48l-52 42.53c-32.62 11.12-78.79-32.25-77.51-67.72 1.13-31.05 52.69-70.32 80.59-66.29zM166.84 138.98h138.92c1.6 0 2.91 1.3 2.91 2.91v18.81c0 1.6-1.31 2.91-2.91 2.91h-20.87V192h-12.28v-28.39h-71.3V192h-12.28v-28.39h-22.19a2.92 2.92 0 0 1-2.91-2.91v-18.81c0-1.61 1.31-2.91 2.91-2.91zM67.23 47.4h216.59c-1.66 4.27-2.84 8.57-3.46 12.84-.23 1.63-.39 3.5-.46 5.58-.14 3.68.06 7.37.55 11.04H67.23c-10.37 0-19.82 4.25-26.67 11.1-6.84 6.85-11.1 16.29-11.1 26.67V444.6c0 10.38 4.26 19.82 11.09 26.66 6.87 6.86 16.34 11.12 26.68 11.12h338.14c10.02 0 19.21-4.01 25.99-10.49l.62-.67c6.87-6.87 11.16-16.31 11.16-26.62V228.34c3.38 6.33 9.8 10.85 17.47 11.45l11.99.99V444.6c0 18.43-7.61 35.25-19.8 47.44l-.9.83c-12.14 11.71-28.59 18.97-46.53 18.97H67.23c-18.39 0-35.21-7.58-47.42-19.78l-.05-.05C7.59 479.83 0 463.05 0 444.6V114.63c0-18.5 7.57-35.32 19.74-47.49C31.92 54.96 48.73 47.4 67.23 47.4zm93.13 151.19h151.89c15.02 0 27.32 12.31 27.32 27.32v175.47c0 15.01-12.32 27.32-27.32 27.32h-7.32v7.8c0 1.23-1.01 2.24-2.25 2.24h-17.74c-1.24 0-2.25-1.01-2.25-2.24v-7.8H189.9v7.8c0 1.23-1 2.24-2.24 2.24h-17.74c-1.24 0-2.25-1.01-2.25-2.24v-7.8h-7.31c-15.01 0-27.32-12.29-27.32-27.32V225.91c0-15.03 12.28-27.32 27.32-27.32zm55.82 7.97h40.24v31.8c0 2.31-1.89 4.2-4.2 4.2h-31.84c-2.31 0-4.2-1.89-4.2-4.2v-31.8zM169 276.61h134.6v13.84H169v-13.84zm0 97.76h134.6v13.84H169v-13.84zm0-48.88h134.6v13.84H169v-13.84zm330-137.57-3.3 32.98-33.4-2.75 3.14-25.32-26.49-3.24 2.07-26.61-25.97-2.59-4.71-23.51-7.52-9.2 28.1-22.99c26 31.78 42.09 51.46 68.08 83.23zM345.5 37.67c12.49-10.21 25.77-14.63 29.65-9.88 3.89 4.76-3.08 16.89-15.57 27.1-12.48 10.21-25.75 14.64-29.64 9.88-3.88-4.75 3.08-16.88 15.56-27.1z"/></svg>