<svg id="Layer_1" data-name="Layer 1" xmlns="http://www.w3.org/2000/svg" viewBox="0 0 92.53 122.88"><defs><style>.cls-1{fill-rule:evenodd;}</style></defs><title>map-pin-direction-bottom</title><path class="cls-1" d="M46.27,18.21A28.62,28.62,0,1,1,17.64,46.83,28.62,28.62,0,0,1,46.27,18.21Zm1.36,97.48A82.49,82.49,0,0,0,64,101.81,85.53,85.53,0,0,0,84.56,62.23c2.81-13.67,1.5-27-4.76-37.34a36.41,36.41,0,0,0-6.62-8.06C65.61,9.93,57,6.64,48.23,6.56,39.07,6.49,29.77,10,21.55,16.5a38.54,38.54,0,0,0-8.63,9.56C7.15,35.15,5.41,46.43,7.31,58.24c1.94,12,7.67,24.61,16.77,36a102.2,102.2,0,0,0,23.55,21.41Zm21.23-9.46a88.78,88.78,0,0,1-19.32,16,3.32,3.32,0,0,1-3.72.13,109.4,109.4,0,0,1-26.89-24c-9.8-12.31-16-26-18.1-39.1C-1.33,45.89.7,33,7.36,22.53a45.3,45.3,0,0,1,10.1-11.18C26.85,3.87,37.6-.09,48.29,0,58.6.09,68.79,3.93,77.6,12a42.78,42.78,0,0,1,7.81,9.52c7.16,11.8,8.72,26.83,5.58,42.05a92.05,92.05,0,0,1-22.13,42.69ZM53,48.25h5.73a2.4,2.4,0,0,0,2-1c1.07-1.6-.41-3.18-1.41-4.3C56.54,39.84,50,34.13,48.62,32.46a2.34,2.34,0,0,0-3.67,0c-1.47,1.71-8.33,7.77-11.06,10.83-.94,1.07-2.11,2.52-1.13,4a2.4,2.4,0,0,0,2,1h5.74V59.37a1.14,1.14,0,0,0,1.14,1.13H51.9A1.14,1.14,0,0,0,53,59.37V48.25Z"/></svg>