<svg xmlns="http://www.w3.org/2000/svg" shape-rendering="geometricPrecision" text-rendering="geometricPrecision" image-rendering="optimizeQuality" fill-rule="evenodd" clip-rule="evenodd" viewBox="0 0 388 512.57"><path d="m383.11 162.91-76.47 79.56-29.63-.85 84.18-87.58c-16.11-10.36-32.19-14.96-48.21-14.59-15.41.36-30.89 5.31-46.41 14.14l-34.94 104.17a44.314 44.314 0 0 0-7.92-10.78l-.05-.05c-2.73-2.73-5.81-5.1-9.17-7.04l28.62-85.35c-17.97-11.24-35.18-16.22-51.73-15.81-15.4.38-30.34 5.43-44.89 14.41l28.2 84.62a44.21 44.21 0 0 0-13.38 9.17 44.492 44.492 0 0 0-4.78 5.65l-32.45-97.41c-18.74-11.45-37.35-16.27-55.82-15.72-14.96.45-29.9 4.42-44.83 11.22l87.12 90.93c-8.77 1.87-21.11.66-30.14.27L5.9 164.1c-1.82-1.9-5.98-3.81-5.9-6.27 1.56-43.97 23.9-83.55 59.07-112.07C93.99 17.44 141.58 0 193.99 0c52.41 0 100.02 17.44 134.94 45.76 35.16 28.52 57.5 68.1 59.07 112.08.07 2.07-2.87 2.97-4.89 5.07zM171.52 316.77c-19.83-21.06-28.49-35.56-47.91-58.98H93.18c14.6 19.5 20.92 27.14 36.72 48.09 10.55 13.98 14.64 31.56 24.31 44.18 5.34 15.07 4.49 24.02 4.8 40.07-5.35 14.82-23.98 56.55-23.98 65.31v57.13h27.22v-57.13c0-5 18.93-23.04 23.92-33.24l.06.07c4.93-.17 7.48-.35 12.41-.52l.03-.04c4.66 10.1 24.16 28.65 24.16 33.73v57.13h27.22v-57.13c0-8.78-18.71-50.56-24.01-65.26.07-15.41-.94-24.09 4.65-40l.01.02c8.84-11.52 15.65-27.52 25.43-40.29l39.93-52.14h-29.91c-21.81 26.09-31.72 36.78-52.64 59h-.99c-12.95-3.7-25.62-4.45-38.04 0h-2.96zm20.99-67.83c16.12 0 29.19 13.06 29.19 29.19 0 16.12-13.07 29.19-29.19 29.19s-29.19-13.07-29.19-29.19c0-16.13 13.07-29.19 29.19-29.19z"/></svg>