<svg xmlns="http://www.w3.org/2000/svg" xml:space="preserve" width="512" height="445" shape-rendering="geometricPrecision" text-rendering="geometricPrecision" image-rendering="optimizeQuality" fill-rule="evenodd" clip-rule="evenodd" viewBox="0 0 512 444.66"><path d="m472.72 416.5-36.95-108.46c-1.61-4.74-4.32-9.19-9.18-9.19h-20.68l13.86-28.15h6.82c11.58 0 20.32 4.92 26.92 12.49 4.29 4.91 7.05 10.47 8.88 15.83L512 444.66H0l44.38-144.87c2.03-6.49 5.46-13.25 10.69-18.48h.11c6.47-6.44 14.74-10.61 25.22-10.61h13.74l15.09 28.15H80.4c-4.87 0-7.77 4.57-9.18 9.19L37.98 416.5h434.74zM209.58 147.14c2.62 9.16 5.99 18.16 11.08 26.84 5.11 8.71 11.99 17.17 21.58 25.25.73.59 1.49.77 2.23.65 1.13-.16 2.38-.76 3.66-1.56 1-.62 2.29-1.68 3.67-2.84 5.46-4.54 12.23-10.17 18.75-5.05.14.11.25.22.39.33l21.14 19.7c.08.05.14.16.2.21 2.71 2.97 3.24 6.68 2.38 10.56-.91 3.93-3.39 8.02-6.38 11.26-3.96 4.29-8.86 6.59-14.13 7.65-5.03 1.04-10.36 1-15.38.58-7.91-.64-14.89-3.02-21.67-6.97-6.65-3.88-12.99-9.2-19.73-15.89l-.5-.5c-3.09-3.09-6.43-6.41-9.59-10.14-11.57-13.83-22.29-32.41-27.69-51.37-4.52-15.91-5.24-32.14.45-46.1 3.13-7.66 8.23-14.1 15.3-17.5 6.15-2.98 13.67-3.64 22.52-.74 1.03.31 1.82 1.13 2.09 2.14l9.5 30.06c1.61 3.51 1.22 6.51-.73 9.16-1.59 2.18-4.2 3.9-7.54 5.32-1.01.52-2.18 1.02-3.41 1.54-4.09 1.72-8.73 3.73-8.18 7.5l-.01-.09zm59.12-28.58-.34-.12a5.333 5.333 0 0 1-2.88-2.45l-.03-.06c-.3-.58-.5-1.21-.57-1.86-.07-.64-.03-1.32.15-1.99l.1-.39c.24-.62.56-1.19.96-1.66.42-.51.96-.93 1.52-1.23l.06-.04c.6-.31 1.25-.52 1.92-.58l.13-.01c.64-.05 1.28.01 1.93.2 3.59 1.06 6.95 2.34 10.04 3.79a54.53 54.53 0 0 1 8.62 4.97c2.65 1.86 5.05 3.93 7.17 6.19l.06.06c2.08 2.22 3.91 4.64 5.46 7.22 1.54 2.59 2.84 5.36 3.83 8.31.99 2.92 1.7 5.99 2.1 9.22.4 3.13.52 6.46.35 9.92-.17 3.41-.63 6.99-1.37 10.68l-.03.18a5.38 5.38 0 0 1-.81 1.81c-.38.54-.86 1.03-1.42 1.39-.57.39-1.22.66-1.91.79l-.14.02c-.62.1-1.27.1-1.91-.03l-.24-.04c-.66-.16-1.25-.44-1.77-.8a5.64 5.64 0 0 1-1.39-1.41c-.4-.57-.66-1.24-.79-1.91l-.02-.13c-.11-.63-.1-1.3.03-1.94.61-3.08 1-6.04 1.15-8.88.16-2.85.07-5.58-.23-8.12-.32-2.55-.85-4.98-1.59-7.22-.76-2.28-1.74-4.4-2.93-6.39l-.03-.05c-1.18-1.98-2.6-3.82-4.23-5.53a36.592 36.592 0 0 0-5.61-4.8 47.382 47.382 0 0 0-7.02-4 59.42 59.42 0 0 0-8.29-3.1l-.03-.01zm11.77-23.86c-.69-.21-1.31-.57-1.82-1-.54-.44-.98-1-1.29-1.61-.33-.61-.52-1.28-.59-1.99-.07-.66.02-1.37.23-2.06l.04-.08c.2-.67.55-1.25.96-1.75l.07-.06c.44-.51.97-.91 1.54-1.21a5.33 5.33 0 0 1 1.99-.59c.65-.05 1.32.01 1.98.21l.18.04c4.59 1.46 8.96 3.22 13.04 5.27 4.14 2.07 8.02 4.44 11.56 7.09 3.58 2.65 6.85 5.59 9.79 8.77a67.48 67.48 0 0 1 7.78 10.33c2.22 3.64 4.11 7.52 5.62 11.61 1.5 4.05 2.64 8.31 3.39 12.73.73 4.31 1.09 8.81 1.07 13.47-.02 4.58-.42 9.31-1.19 14.18l-.1.48c-.14.62-.39 1.19-.71 1.7a5.65 5.65 0 0 1-1.35 1.41c-.53.38-1.14.67-1.79.83l-.08.02c-.59.13-1.23.18-1.85.11l-.59-.1c-.61-.15-1.18-.4-1.69-.72-.55-.35-1.03-.82-1.41-1.36-.41-.55-.7-1.2-.86-1.87-.15-.66-.19-1.36-.07-2.07.7-4.27 1.05-8.44 1.08-12.44.03-4.08-.29-7.99-.92-11.75-.62-3.78-1.58-7.4-2.84-10.85a56.23 56.23 0 0 0-4.76-9.84c-1.9-3.1-4.1-6.02-6.6-8.72l-.04-.06c-2.49-2.68-5.27-5.15-8.31-7.42l-.05-.05a68.697 68.697 0 0 0-9.94-6.05 79.304 79.304 0 0 0-11.47-4.6zm-22.71 46.15a5.4 5.4 0 0 1-1.79-1.04l-.08-.08c-.49-.45-.89-.99-1.17-1.58-.28-.59-.48-1.25-.53-1.9v-.13c-.03-.57.03-1.17.19-1.75l.17-.49c.24-.62.6-1.18 1.03-1.64.45-.49.99-.89 1.58-1.18.58-.28 1.24-.46 1.89-.51.64-.07 1.3.01 1.95.19l.35.12c2 .69 3.9 1.52 5.7 2.44 1.79.94 3.46 1.99 5 3.14 1.57 1.17 3.01 2.46 4.3 3.84 1.29 1.39 2.45 2.9 3.46 4.51a31.44 31.44 0 0 1 2.55 5.05c.66 1.76 1.2 3.6 1.56 5.52.37 1.89.57 3.86.62 5.88.04 1.99-.07 4.07-.35 6.22-.08.7-.32 1.37-.64 1.96-.35.6-.82 1.14-1.36 1.56l-.05.04c-.53.4-1.15.71-1.8.89-.66.18-1.36.24-2.08.15l-.05-.02c-.69-.08-1.33-.31-1.91-.62-.6-.35-1.14-.82-1.56-1.36l-.05-.07c-.39-.53-.71-1.15-.89-1.8a5.39 5.39 0 0 1-.14-2.05v-.05c.2-1.53.29-3.02.26-4.45-.03-1.47-.16-2.85-.41-4.16l-.01-.08c-.24-1.29-.57-2.51-1.02-3.65a20.13 20.13 0 0 0-1.67-3.35c-.65-1.03-1.43-2.03-2.3-2.95-.86-.91-1.85-1.8-2.93-2.59l-.08-.05c-1.05-.79-2.24-1.52-3.52-2.17-1.32-.68-2.73-1.29-4.22-1.79zm19.93 242.14a31.082 31.082 0 0 1-17.82 5.72c-5.76.01-11.54-1.55-16.63-4.78l-.08-.09c-15.89-10.11-30.56-21.25-43.86-33.11-13.77-12.2-26.17-25.35-37.07-39.07-14.75-18.49-26.83-38.07-36.07-57.99-9.43-20.39-15.92-41.33-19.24-62.03-3.47-21.51-3.53-42.6-.01-62.49 3.54-19.95 10.62-38.79 21.41-55.76 4.34-6.74 9.35-13.34 15.03-19.63 5.39-6.09 11.48-11.83 18.15-17.13 15.02-11.96 31.22-21.16 47.96-27.33 16.96-6.26 34.62-9.42 52.32-9.3 17.63.13 35.04 3.5 51.62 10.25 16.04 6.65 31.33 16.23 45.27 28.95 4.91 4.45 9.6 9.43 13.99 14.79 4.47 5.43 8.43 11.04 11.91 16.75 11.48 18.99 18.55 40.3 21.5 62.78 3.01 22.78 1.83 46.88-3.15 70.99-7.51 36.48-23.21 71.7-44.95 102.49-21.4 30.31-48.86 56.64-80.28 75.99zm-13.54-22.14c-2.46 1.8-5.8 2.04-8.53.29-29.52-18.79-54.35-41.36-73.82-65.85-26.89-33.74-43.84-71.15-49.63-107.18-5.9-36.53-.39-71.66 17.79-100.24 7.17-11.3 16.32-21.59 27.48-30.46 25.66-20.46 54.97-31.24 84.13-31.03 28.12.2 55.86 10.7 79.83 32.57 8.43 7.65 15.52 16.43 21.31 25.95 19.55 32.19 23.76 73.25 15.15 114.87-13.4 65.2-56.46 126.33-113.71 161.08z"/></svg>