<svg xmlns="http://www.w3.org/2000/svg" shape-rendering="geometricPrecision" text-rendering="geometricPrecision" image-rendering="optimizeQuality" fill-rule="evenodd" clip-rule="evenodd" viewBox="0 0 494 512.46"><path fill-rule="nonzero" d="M30.55 186.59v220.77c0 6.52 2.68 12.47 6.98 16.77 4.31 4.3 10.25 6.98 16.77 6.98h174.78c-3.12-6.38-5.7-12.94-7.77-19.62h-93.24V253.21c0-10.48 8.57-19.05 19.05-19.05h69.63c10.47 0 19.04 8.57 19.04 19.05v42.55c4.72-7.7 10.23-15 16.51-21.75v-20.8c0-19.56-16.01-35.52-35.55-35.52h-69.67c-19.52 0-35.52 16-35.52 35.52v158.28H54.3c-1.11 0-2.14-.47-2.9-1.23-.75-.76-1.23-1.79-1.23-2.9V187.18c-6.5.54-13.12.44-19.62-.59zm323.77 72.73c29.51 0 57.71 11.68 78.59 32.55 28.82 28.83 39.54 71.33 27.93 110.35-2.69 9.06-6.51 17.64-11.29 25.55l43.05 46.91a5.334 5.334 0 0 1-.32 7.52l-31.6 28.86a5.31 5.31 0 0 1-7.5-.33l-41.17-45.29c-17.44 10.62-37.27 16.17-57.69 16.17a111.01 111.01 0 0 1-78.59-32.56 111.285 111.285 0 0 1-24.11-36.09c-17.23-41.49-7.44-89.52 24.13-121.07a110.935 110.935 0 0 1 36.07-24.13c13.1-5.44 27.47-8.44 42.5-8.44zm62.7 48.43c-25.31-25.31-63.67-32.92-96.63-19.26-59.15 24.48-72.74 100.75-28.8 144.67 25.36 25.29 63.64 32.93 96.65 19.28 33.18-13.78 54.75-46.06 54.75-81.98 0-12.04-2.38-23.5-6.69-33.91a89.031 89.031 0 0 0-19.28-28.8zm1.21-63.15v-57.81c-6.58 1.22-13.25 1.58-19.62 1.3v48.42c6.71 2.2 13.27 4.9 19.62 8.09zm-266.17 72.38c5.02 0 9.09 4.07 9.09 9.1a9.09 9.09 0 0 1-9.09 9.09c-5.03 0-9.1-4.07-9.1-9.09 0-5.03 4.07-9.1 9.1-9.1zM61.45 169.32c4.56-2.15 15.83-5.07 19.36-8.6a43.71 43.71 0 0 0 7.73-10.5c2.04 3.88 4.66 7.42 7.74 10.5 7.8 7.8 25.7 12.65 37.54 12.65 11.85 0 29.75-4.85 37.55-12.65 3.08-3.08 5.69-6.62 7.74-10.5 2.04 3.88 4.65 7.42 7.73 10.5 7.8 7.8 25.7 12.65 37.55 12.65 11.85 0 29.74-4.85 37.54-12.65 3.08-3.08 5.7-6.62 7.74-10.5a43.71 43.71 0 0 0 7.73 10.5c7.81 7.8 25.7 12.65 37.55 12.65 11.85 0 29.74-4.85 37.54-12.65 3.08-3.08 5.7-6.62 7.74-10.5 2.04 3.88 4.66 7.42 7.74 10.5 5.13 5.14 18.68 8.99 25.85 11.03 14.41 1.76 31.39-.31 42.11-11.03 7.8-7.8 12.65-18.57 12.65-30.41V113.6c-.03-1.03-.24-1.77-.64-2.68l-30.33-97.19C415.11 5.72 409.02.59 397.23.01L53.91 0C43.32 1.14 36.43 5.58 33.58 13.64 25.65 37.23 3.71 92.29.22 113.1c-.48 4.71-.02 12.19-.02 17.21 0 11.84 4.84 22.61 12.64 30.41 12.71 12.72 32.04 12.4 48.61 8.6z"/></svg>