<svg id="Layer_1" data-name="Layer 1" xmlns="http://www.w3.org/2000/svg" viewBox="0 0 103.86 122.88"><defs><style>.cls-1{fill:#e5273a;}.cls-2{fill:#393939;fill-rule:evenodd;}.cls-3{fill:#fff;}</style></defs><title>you-are-here</title><path class="cls-1" d="M74.31,106.27a89,89,0,0,1-19.42,16.06,2.77,2.77,0,0,1-3.13.12,110.06,110.06,0,0,1-27-24.1c-9.83-12.33-16-26-18.15-39.19C4.47,45.8,6.48,33,13.13,22.48A45,45,0,0,1,23.2,11.34C32.57,3.88,43.3-.07,54,0,64.24.09,74.38,3.9,83.18,11.93A42.39,42.39,0,0,1,91,21.41c7.15,11.77,8.69,26.81,5.56,42a92.41,92.41,0,0,1-22.18,42.8l0,0Zm-8-73.94a20.3,20.3,0,1,0,6,14.38,20.34,20.34,0,0,0-6-14.38Z"/><path class="cls-2" d="M.06,55.6H103.8c.57,17.28-3.17,38-16.89,51H17C7.67,99.72-.78,73.74.06,55.6Z"/><path class="cls-3" d="M19.58,64.63,20.67,69h.14l1.11-4.36h4.37l-3.56,9V77h-4V73.64l-3.56-9Zm7.26,6.2q0-3.39,1.26-4.94c.85-1,2.37-1.55,4.57-1.55s3.73.51,4.57,1.55,1.27,2.68,1.27,4.94a12.63,12.63,0,0,1-.27,2.83,5,5,0,0,1-.92,2,3.7,3.7,0,0,1-1.8,1.24,8.62,8.62,0,0,1-2.85.4,8.7,8.7,0,0,1-2.85-.4A3.79,3.79,0,0,1,28,75.66a5.32,5.32,0,0,1-.92-2,12.69,12.69,0,0,1-.26-2.83Zm4.25-2.06v5.14h1.64a2.84,2.84,0,0,0,1.18-.18.9.9,0,0,0,.37-.86V67.72H32.61a2.57,2.57,0,0,0-1.15.19c-.25.12-.37.41-.37.86ZM43.7,64.63v9.28h1.41a2.07,2.07,0,0,0,1-.18,1,1,0,0,0,.28-.86V64.63h3.95v7a14.1,14.1,0,0,1-.21,2.71A4,4,0,0,1,49.35,76a3.05,3.05,0,0,1-1.63,1,10.24,10.24,0,0,1-2.67.28A10.21,10.21,0,0,1,42.39,77a3,3,0,0,1-1.61-1A3.79,3.79,0,0,1,40,74.29a13.23,13.23,0,0,1-.22-2.71v-7ZM58.27,77H54.09L57.3,64.63h6.12L66.62,77H62.45L62,75H58.73l-.46,2Zm2-8.57-.81,3.46h1.82l-.79-3.46ZM78.31,77H74l-1.62-3.68h-.85V77h-4V64.63h6.24Q78,64.63,78,69c0,2-.61,3.28-1.84,3.91L78.31,77Zm-6.83-9.2v2.47h.91a2.65,2.65,0,0,0,1-.15c.22-.09.33-.32.33-.68v-.81c0-.36-.11-.58-.33-.68a2.65,2.65,0,0,0-1-.15Zm16.28,4.53h-4v1.5h4.85V77H79.84V64.63h8.71l-.5,3.17H83.8v1.66h4v2.87ZM37,95.45V91.08H34v4.37H30V83.08h4v4.38h3V83.08h4V95.45Zm14-4.67H47v1.5h4.84v3.17h-8.8V83.08h8.71l-.5,3.17H47v1.66h4v2.87Zm13.51,4.67H60.12l-1.63-3.68h-.85v3.68h-4V83.08h6.24q4.24,0,4.25,4.34c0,2-.61,3.28-1.84,3.91l2.14,4.12Zm-6.83-9.2v2.47h.91a2.65,2.65,0,0,0,1-.15c.22-.09.33-.32.33-.68v-.81c0-.36-.11-.58-.33-.68a2.65,2.65,0,0,0-1-.15Zm16.28,4.53H70v1.5h4.85v3.17H66V83.08h8.71l-.49,3.17H70v1.66h4v2.87Z"/></svg>