<svg id="Layer_1" data-name="Layer 1" xmlns="http://www.w3.org/2000/svg" viewBox="0 0 78.25 122.88"><title>booklet</title><path d="M53.29,69.4l-7.95-7.63L43.65,72.08a1.76,1.76,0,0,1-.18.59,1.53,1.53,0,0,1-.4.48A1.69,1.69,0,0,1,40.66,73L28.49,58.57,15.73,70.1v3.83H61.54V60.63L54,69.34a.42.42,0,0,1-.36.2.46.46,0,0,1-.33-.14ZM62.2,12.83V4.55l-41,17.05,41-8.77Zm3.64-11V12.05l8.68-1.85a1.82,1.82,0,0,1,2.16,1.4,1.64,1.64,0,0,1,0,.38V25.9a2.46,2.46,0,0,1,1.53,2.29v92.23a2.42,2.42,0,0,1-2.39,2.46H2.4A2.43,2.43,0,0,1,0,120.42V28.2a2.54,2.54,0,0,1,.68-1.72,1.78,1.78,0,0,1,.8-.65L63.22.19A1.78,1.78,0,0,1,64,0a1.82,1.82,0,0,1,1.82,1.82Zm7.24,23.91V14.23L19.23,25.73Zm1.11,4.21H4.07v88.74H74.19V29.94ZM19.64,86.37h29a1,1,0,0,1,.69.29l0,0a1,1,0,0,1,.25.64v1.89a1,1,0,0,1-.28.69,1,1,0,0,1-.69.29h-29a.92.92,0,0,1-.68-.28l0,0a1,1,0,0,1-.26-.65V87.34a.93.93,0,0,1,.29-.68,1,1,0,0,1,.68-.29Zm-6.25,0H15.8a1,1,0,0,1,.68.29.94.94,0,0,1,.29.68v1.89a1,1,0,0,1-.29.69.93.93,0,0,1-.68.29H13.39a1,1,0,0,1-1-1V87.34a1,1,0,0,1,1-1Zm.41,20.15H64.46a1.34,1.34,0,0,1,1,.47,1.62,1.62,0,0,1,.38,1.05v.38a1.57,1.57,0,0,1-.38,1l0,0a1.34,1.34,0,0,1-1,.44H13.8a1.29,1.29,0,0,1-1-.48,1.58,1.58,0,0,1-.39-1V108a1.58,1.58,0,0,1,.39-1l0,0a1.31,1.31,0,0,1,1-.43Zm0-10.13H64.46a1.34,1.34,0,0,1,1,.47,1.62,1.62,0,0,1,.38,1v.38a1.57,1.57,0,0,1-.38,1l0,0a1.34,1.34,0,0,1-1,.44H13.8a1.29,1.29,0,0,1-1-.48,1.58,1.58,0,0,1-.39-1V97.9a1.6,1.6,0,0,1,.39-1.05l0,0a1.31,1.31,0,0,1,1-.43ZM53.58,64.91l8-9.55V42.57H15.73V65.46c3.86-3.5,7.85-7.35,11.81-10.68a1.65,1.65,0,0,1,1.2-.4,1.68,1.68,0,0,1,1.16.55h0L30,55,40.85,67.87,42.46,58a1.73,1.73,0,0,1,1.94-1.39h.05a1.46,1.46,0,0,1,.46.15,1.66,1.66,0,0,1,.43.3l8.24,7.89ZM45.4,43.1a5.13,5.13,0,0,1,1.92.38A5.28,5.28,0,0,1,49,44.57a5,5,0,0,1-3.56,8.61,5.17,5.17,0,0,1-1.92-.38,5,5,0,0,1-2.74-2.73,5,5,0,0,1-.38-1.93,5.1,5.1,0,0,1,1.47-3.57,5.06,5.06,0,0,1,1.64-1.09,5,5,0,0,1,1.93-.38Zm1.51,3.54a2.17,2.17,0,0,0-.69-.47A2,2,0,0,0,45.4,46a2.07,2.07,0,0,0-.82.16,2.24,2.24,0,0,0-.7.46,1.92,1.92,0,0,0-.47.7,2.22,2.22,0,0,0-.16.82,2.3,2.3,0,0,0,.16.82,2.31,2.31,0,0,0,1.16,1.17,2.22,2.22,0,0,0,.82.16,2.26,2.26,0,0,0,.82-.16,2.1,2.1,0,0,0,.7-.47,2.29,2.29,0,0,0,.47-.69,2.22,2.22,0,0,0,.16-.82,2.31,2.31,0,0,0-.16-.83,1.93,1.93,0,0,0-.47-.69ZM14.07,39.15H63.2a1.63,1.63,0,0,1,1.17.5,1.73,1.73,0,0,1,.48,1.21V75.64a1.73,1.73,0,0,1-.48,1.2,1.64,1.64,0,0,1-1.17.51H14.07a1.65,1.65,0,0,1-1.18-.51,1.73,1.73,0,0,1-.48-1.2V40.86a1.75,1.75,0,0,1,.48-1.21,1.64,1.64,0,0,1,1.18-.5Z"/></svg>