<?xml version="1.0" encoding="utf-8"?><svg version="1.1" id="Layer_1" xmlns="http://www.w3.org/2000/svg" xmlns:xlink="http://www.w3.org/1999/xlink" x="0px" y="0px" viewBox="0 0 122.88 122.51" style="enable-background:new 0 0 122.88 122.51" xml:space="preserve"><g><path d="M45.76,0c12.64,0,24.08,5.12,32.36,13.4c5.31,5.31,9.33,11.93,11.52,19.32c7.61,2.16,14.4,6.23,19.84,11.67 c8.28,8.28,13.4,19.72,13.4,32.36c0,12.64-5.12,24.08-13.4,32.36c-8.28,8.28-19.72,13.4-32.36,13.4c-12.64,0-24.08-5.12-32.36-13.4 c-5.31-5.31-9.33-11.93-11.52-19.32c-7.61-2.16-14.4-6.23-19.84-11.67C5.12,69.83,0,58.39,0,45.76C0,33.12,5.12,21.68,13.4,13.4 C21.68,5.12,33.12,0,45.76,0L45.76,0z M91.36,41.98c0.08,1.03,0.13,2.07,0.15,3.12l0,0.01l0,0.06v0.01l0,0.05l0,0.04l0,0.02l0,0.12 v0.02l0,0.03l0,0.05l0,0.01l0,0.06v0.01v0.05l0,0.04v0.02v0.06c0,12.64-5.12,24.08-13.4,32.36c-8.28,8.28-19.72,13.4-32.36,13.4 h-0.05h-0.03h-0.02l-0.05,0h0l-0.05,0h-0.03l-0.02,0l-0.05,0h-0.01l-0.04,0l-0.03,0h-0.02l-0.05,0l-0.01,0 c-0.93-0.01-1.86-0.05-2.77-0.11c1.9,4.48,4.65,8.52,8.04,11.91c6.8,6.8,16.19,11,26.57,11c10.37,0,19.77-4.21,26.56-11 c6.8-6.8,11-16.19,11-26.56c0-10.37-4.2-19.77-11-26.57C100.19,46.69,96.01,43.88,91.36,41.98L91.36,41.98z M77.12,30.99h0.05h0.03 h0.02l0.05,0h0l0.05,0h0.03l0.02,0l0.05,0h0.01l0.04,0l0.03,0h0.02l0.05,0l0.01,0c0.93,0.01,1.85,0.05,2.77,0.11 c-1.9-4.48-4.65-8.52-8.04-11.91c-6.8-6.8-16.19-11-26.57-11c-10.37,0-19.77,4.21-26.56,11c-6.8,6.8-11,16.19-11,26.56 c0,10.37,4.21,19.77,11,26.57c3.49,3.49,7.67,6.3,12.32,8.21c-0.08-1.03-0.13-2.07-0.15-3.12l0-0.01l0-0.06v-0.01l0-0.05l0-0.04 l0-0.02l0-0.12v-0.02l0-0.03l0-0.05l0-0.01l0-0.06v-0.01v-0.05l0-0.04v-0.02v-0.06c0-12.64,5.12-24.08,13.4-32.36 C53.05,36.11,64.49,30.99,77.12,30.99L77.12,30.99z"/></g></svg>