<svg id="Layer_1" data-name="Layer 1" xmlns="http://www.w3.org/2000/svg" viewBox="0 0 118.64 122.88"><title>creative-idea-solution</title><path d="M71.75,115.29a17,17,0,0,1-6.49,5.82,15.28,15.28,0,0,1-14.35,0,14.82,14.82,0,0,1-4.12-3.44l25-2.34Zm-.2-70.12a1.76,1.76,0,0,0-1.29-.54,1.78,1.78,0,0,0-1.3.54l-2,2a12.88,12.88,0,0,0-1.67-.92c-.59-.26-1.19-.5-1.79-.7v-3a1.81,1.81,0,0,0-1.83-1.82h-3.8a1.74,1.74,0,0,0-1.28.53,1.7,1.7,0,0,0-.55,1.29v2.78a14,14,0,0,0-1.84.57,14.83,14.83,0,0,0-1.71.78l-2.18-2.15a1.66,1.66,0,0,0-1.27-.55,1.77,1.77,0,0,0-1.3.55L45.1,47.15a1.73,1.73,0,0,0-.55,1.29,1.75,1.75,0,0,0,.55,1.3l2,2a14.14,14.14,0,0,0-.91,1.67,17.9,17.9,0,0,0-.7,1.79h-3A1.81,1.81,0,0,0,40.6,57v3.8a1.8,1.8,0,0,0,.53,1.28,1.74,1.74,0,0,0,1.3.55h2.78a11.54,11.54,0,0,0,.57,1.84,15.12,15.12,0,0,0,.78,1.74L44.4,68.37a1.69,1.69,0,0,0-.55,1.27,1.81,1.81,0,0,0,.55,1.3l2.67,2.7a1.91,1.91,0,0,0,2.6,0l2-2a13.52,13.52,0,0,0,1.68.91,17,17,0,0,0,1.79.7v3a1.76,1.76,0,0,0,.53,1.3,1.78,1.78,0,0,0,1.3.53h3.8A1.8,1.8,0,0,0,62,77.57a1.77,1.77,0,0,0,.54-1.3V73.49a11.35,11.35,0,0,0,1.85-.57,15.12,15.12,0,0,0,1.74-.78L68.3,74.3a1.76,1.76,0,0,0,2.56,0l2.7-2.67a1.91,1.91,0,0,0,0-2.6l-2-2a12.37,12.37,0,0,0,.92-1.68c.26-.59.5-1.18.7-1.79h3A1.81,1.81,0,0,0,78,61.76V58a1.76,1.76,0,0,0-.53-1.28,1.73,1.73,0,0,0-1.29-.54H73.42a15.45,15.45,0,0,0-.57-1.83,14.24,14.24,0,0,0-.78-1.72l2.15-2.19a1.64,1.64,0,0,0,.55-1.27,1.75,1.75,0,0,0-.55-1.29l-2.67-2.67ZM59.31,49.28a9.9,9.9,0,0,1,3.94.79,10,10,0,0,1,5.38,5.38,10.22,10.22,0,0,1,0,7.88,10.24,10.24,0,0,1-2.16,3.22,10.35,10.35,0,0,1-3.22,2.16,10.34,10.34,0,0,1-7.88,0A10,10,0,0,1,50,63.33a10.34,10.34,0,0,1,0-7.88,10.35,10.35,0,0,1,2.16-3.22,10.24,10.24,0,0,1,3.22-2.16,9.94,9.94,0,0,1,3.94-.79ZM34.4,86c-1.35-1.72-2.72-3.47-4.07-5.52a40.94,40.94,0,0,1-3.76-7.12,41.58,41.58,0,0,1-2.37-8.14,35.22,35.22,0,0,1-.49-8.41h0a35.84,35.84,0,0,1,1.64-8.59,42.15,42.15,0,0,1,3.9-8.62l.17-.25a34.6,34.6,0,0,1,7.52-8.17,32.9,32.9,0,0,1,9.62-5.23l.26-.08a34.81,34.81,0,0,1,8.09-1.69,37.92,37.92,0,0,1,8.71.27,39.27,39.27,0,0,1,8.23,2.16,38.31,38.31,0,0,1,7.55,3.9,35.58,35.58,0,0,1,8.12,7.47,32.09,32.09,0,0,1,5.18,9.42h0a37.07,37.07,0,0,1,1.52,6,33.48,33.48,0,0,1,.45,6.57,34.26,34.26,0,0,1-1,7.3,38.14,38.14,0,0,1-2.55,7.14C88.82,79.34,84.89,84.21,81,89c-2,2.45-3.93,4.86-5.59,7.21a3.13,3.13,0,0,1-3.2,1.27l-29,2.7A3.14,3.14,0,0,1,40,97.87a43.2,43.2,0,0,0-2.48-6.73A27.28,27.28,0,0,0,34.4,86Zm1.16-9c1.18,1.79,2.48,3.47,3.77,5.11a33.38,33.38,0,0,1,3.82,6.36,48.94,48.94,0,0,1,2.07,5.2l26.05-2.42c1.51-2,3.18-4.11,4.87-6.21,3.64-4.5,7.36-9.09,9.34-13.33a31.51,31.51,0,0,0,2.13-6,28.52,28.52,0,0,0,.82-6,30,30,0,0,0-.38-5.41,31.78,31.78,0,0,0-1.28-5h0a25.75,25.75,0,0,0-4.17-7.57,29.1,29.1,0,0,0-6.7-6.15,31.36,31.36,0,0,0-6.29-3.23,32.6,32.6,0,0,0-6.91-1.82,31.49,31.49,0,0,0-7.26-.22,28.55,28.55,0,0,0-6.6,1.35l-.25.1a26.64,26.64,0,0,0-7.81,4.23,28.83,28.83,0,0,0-6.11,6.61l0,.06a35.71,35.71,0,0,0-3.33,7.32A29.17,29.17,0,0,0,30,57.16a29.51,29.51,0,0,0,.42,7,34.53,34.53,0,0,0,2,6.88,33.55,33.55,0,0,0,3.17,6ZM61.46,3.69A4,4,0,0,1,65.72,0h0A1.26,1.26,0,0,1,66,0a3.94,3.94,0,0,1,2.5,1.36,4,4,0,0,1,1,2.86h0a1.2,1.2,0,0,1,0,.2L68.74,13h0a2.48,2.48,0,0,1,0,.27,4.06,4.06,0,0,1-1.36,2.5,4,4,0,0,1-2.86.94h0l-.28,0a4.06,4.06,0,0,1-2.5-1.36,4,4,0,0,1-.94-2.86h0a1.25,1.25,0,0,1,0-.21l.67-8.54ZM16.71,16.2a4,4,0,0,1,.1-5.65,4,4,0,0,1,5.64.09l6.07,6.3a4.07,4.07,0,0,1,1.12,2.85,4,4,0,0,1-6.87,2.71l-6.06-6.3ZM3.85,59.54a4,4,0,0,1-2.74-1.23A4,4,0,0,1,0,55.45a4,4,0,0,1,4.09-3.89l8.74.18a4,4,0,0,1,3.9,4.09v.06h0l0,.15a4,4,0,0,1-1.23,2.59,4,4,0,0,1-2.85,1.1h-.16l-8.63-.19Zm110.63-6.33h.13a3.91,3.91,0,0,1,2.71,1A4,4,0,0,1,118.63,57v0a.56.56,0,0,1,0,.13,4,4,0,0,1-1,2.71,4,4,0,0,1-2.77,1.31l-8.73.44a4,4,0,0,1-4.18-3.8,4,4,0,0,1,3.8-4.18c2.92-.16,5.85-.33,8.76-.45ZM99.2,17.53a4,4,0,0,1,5.58-.78h0a3.89,3.89,0,0,1,1.55,2.63,4,4,0,0,1-.76,3l-5.25,7a4,4,0,0,1-2.64,1.56,4,4,0,0,1-4.52-3.41,4,4,0,0,1,.77-3l5.26-7Zm-24.34,84-.06,1.62v.57a22.71,22.71,0,0,1-.14,3.19l-.61,2.3-30.24,2.82-.46-1.23L42.45,106l.06-1.39,32.35-3Z"/></svg>