<svg id="Layer_1" data-name="Layer 1" xmlns="http://www.w3.org/2000/svg" viewBox="0 0 122.88 92.69"><title>design-thinking</title><path d="M122.76,32.28V92.69H99.82V32.28h-.1l.78-1.58L110,11.22l1-2,1,1.95L122,30.66l.84,1.62ZM4,70.17,4.12,70a11.54,11.54,0,0,1,1.27-1A12.69,12.69,0,0,1,8.3,67.64,20.42,20.42,0,0,1,11,66.91V4.08A7,7,0,0,0,5.41,7.91C4.29,10.09,4,13,4,16c-.24,12.28-.16,24.68-.07,37,0,5.9.07,11.8.08,17.17ZM58.79,22.23A1.75,1.75,0,0,1,59.41,21a1.78,1.78,0,0,1,1.27-.42h0l.12,0a1.76,1.76,0,0,1,1.53,1.87h0a.25.25,0,0,1,0,.09L62,26.35h0a.49.49,0,0,1,0,.12,1.76,1.76,0,0,1-.61,1.11,1.78,1.78,0,0,1-1.27.42H60a1.76,1.76,0,0,1-1.52-1.88h0a.28.28,0,0,1,0-.09l.3-3.79Zm-1.07,15.7A3.64,3.64,0,0,1,60,36.41a3.85,3.85,0,0,1,2.46.35,4.09,4.09,0,0,1,1.74,1.68,3.19,3.19,0,0,1,.31.77,4,4,0,0,1,1.17.21,5,5,0,0,1,2.17,1.5A4.89,4.89,0,0,1,69,43.52a4.76,4.76,0,0,1-.06,1.35,5.28,5.28,0,0,1,1,1.26,4.37,4.37,0,0,1,.63,2.37,4.16,4.16,0,0,1-.86,2.42,5.6,5.6,0,0,1-1.35,1.3,5.36,5.36,0,0,1-.93,3.21,4.35,4.35,0,0,1-2.62,1.83,4.23,4.23,0,0,1-4.94,2.86,3.41,3.41,0,0,1-2-1.57,3.68,3.68,0,0,1-2.33,1.64,3.87,3.87,0,0,1-3.14-.78A3.75,3.75,0,0,1,51,57.32a3.73,3.73,0,0,1-1-.2l0,0a5,5,0,0,1-2.08-1.44,4.91,4.91,0,0,1-1.16-2.5,4.68,4.68,0,0,1,0-1.49,5.49,5.49,0,0,1-.93-1.12l0-.08a4.47,4.47,0,0,1-.64-2.33h0A4.3,4.3,0,0,1,46,45.61a5.92,5.92,0,0,1,1.31-1.28v-.39a5.24,5.24,0,0,1,1.17-3.16A4.24,4.24,0,0,1,51,39.26a3.58,3.58,0,0,1,.11-.35,4,4,0,0,1,1.74-2,3.84,3.84,0,0,1,2.68-.47,3.62,3.62,0,0,1,2.24,1.52Zm6.72,3.17a3.94,3.94,0,0,1-.76,1.31.94.94,0,1,1-1.44-1.21,1.6,1.6,0,0,0,.27-1.86,2.16,2.16,0,0,0-.93-.89,1.94,1.94,0,0,0-1.22-.19c-.69.15-1.36.79-1.71,2.21h0V55.62a.92.92,0,0,1,.31.56c.22,1.32.77,2,1.39,2.12a2.14,2.14,0,0,0,1.78-.42A2,2,0,0,0,63,56.4c0-.65-.49-1.39-1.81-2.07a.95.95,0,0,1,.85-1.69,5,5,0,0,1,2.66,2.67,2.58,2.58,0,0,0,1.12-1,3.52,3.52,0,0,0,.57-2.45v0a.94.94,0,0,1,.46-.94,4.32,4.32,0,0,0,1.3-1.11,2.45,2.45,0,0,0,.5-1.36,2.54,2.54,0,0,0-.38-1.37,3.81,3.81,0,0,0-1-1.08.94.94,0,0,1-.37-1.09,2.62,2.62,0,0,0,.13-1.19,2.91,2.91,0,0,0-.69-1.57A3,3,0,0,0,65,41.21a1.86,1.86,0,0,0-.6-.11Zm-2,4.18A1,1,0,0,1,62.26,44a1,1,0,0,1,1.33-.22c.16.12.31.25.46.38h0a5.36,5.36,0,0,1,1.74,3.52,5.67,5.67,0,0,1-1.07,3.75q-.18.24-.39.48a.95.95,0,1,1-1.41-1.27,4,4,0,0,0,.26-.32,3.76,3.76,0,0,0,.72-2.49,3.48,3.48,0,0,0-1.12-2.27h0l-.3-.24ZM57.09,55.64V41H57l0,0h0v0h0v0h0v0h0v0h0v0h0c-.35-1.42-1-2.07-1.71-2.22a1.93,1.93,0,0,0-1.34.26,2,2,0,0,0-.91,1,1.74,1.74,0,0,0,.64,1.92,1,1,0,0,1,.05,1.33,1,1,0,0,1-1.34,0A4.22,4.22,0,0,1,51,41.18a2.46,2.46,0,0,0-1.11.8,3.42,3.42,0,0,0-.74,2,4,4,0,0,0,0,.68.93.93,0,0,1-.44.93,4.59,4.59,0,0,0-1.27,1.12,2.44,2.44,0,0,0-.5,1.43,2.51,2.51,0,0,0,.37,1.34l0,.06a3.53,3.53,0,0,0,.91,1,1,1,0,0,1,.36,1.09,2.68,2.68,0,0,0-.12,1.27,3,3,0,0,0,.71,1.52,3.13,3.13,0,0,0,1.27.9h0a2.42,2.42,0,0,0,.45.1,5.17,5.17,0,0,1,2.77-2.78.94.94,0,0,1,1.27.41,1,1,0,0,1-.42,1.27c-1.39.71-1.92,1.51-1.92,2.21a1.79,1.79,0,0,0,.76,1.37,2,2,0,0,0,1.59.43c.69-.14,1.36-.8,1.71-2.23a.92.92,0,0,1,.29-.47ZM51.23,44.28a.94.94,0,0,1,1.32,1.35,3.38,3.38,0,0,0-1,2.31,3.73,3.73,0,0,0,.84,2.5.95.95,0,0,1-1.47,1.19,5.61,5.61,0,0,1-1.26-3.77,5.27,5.27,0,0,1,1.59-3.58ZM45.37,61.82C44.67,60.93,44,60,43.28,59a20.36,20.36,0,0,1-1.91-3.61,21.55,21.55,0,0,1-1.2-4.13A18.24,18.24,0,0,1,39.92,47a18.76,18.76,0,0,1,.83-4.34,21.9,21.9,0,0,1,2-4.37l.1-.15a17.61,17.61,0,0,1,3.77-4.08,16.67,16.67,0,0,1,4.85-2.64l.09,0a17.5,17.5,0,0,1,4.12-.87,18.6,18.6,0,0,1,4.41.14,19.84,19.84,0,0,1,4.17,1.09,19.45,19.45,0,0,1,3.82,2,18.15,18.15,0,0,1,4.1,3.77,16.15,16.15,0,0,1,2.61,4.75,17.67,17.67,0,0,1,.77,3,17.55,17.55,0,0,1-.26,7A19.66,19.66,0,0,1,74,55.89a40.24,40.24,0,0,1-5.21,7.49c-1,1.3-2.09,2.59-2.93,3.78a1.09,1.09,0,0,1-1.15.43h0L49.5,69a1.09,1.09,0,0,1-1.14-.8A23,23,0,0,0,47,64.61a15.14,15.14,0,0,0-1.67-2.79Zm-.27-4c.62,1,1.31,1.83,2,2.69A17.39,17.39,0,0,1,49,63.69a27.34,27.34,0,0,1,1.19,3.06l14.23-1.32c.83-1.15,1.74-2.27,2.66-3.41A38.61,38.61,0,0,0,72,55a16.73,16.73,0,0,0,1.14-3.21,14.9,14.9,0,0,0,.44-3.22,15.52,15.52,0,0,0-.2-2.92A16.59,16.59,0,0,0,72.71,43a14,14,0,0,0-2.25-4.11,15.82,15.82,0,0,0-3.61-3.31,17.41,17.41,0,0,0-3.38-1.74,17.74,17.74,0,0,0-3.72-1,17,17,0,0,0-3.9-.12,15.68,15.68,0,0,0-3.6.75l-.09,0a14.31,14.31,0,0,0-4.22,2.28,15.47,15.47,0,0,0-3.31,3.59l0,0a18.62,18.62,0,0,0-1.79,3.92,16.17,16.17,0,0,0-.72,3.82,15.65,15.65,0,0,0,.22,3.74,18.91,18.91,0,0,0,1.07,3.69,18.08,18.08,0,0,0,1.71,3.23ZM64.38,77.41a8.8,8.8,0,0,1-3.38,3,7.92,7.92,0,0,1-7.46,0,7.72,7.72,0,0,1-2.15-1.79l13-1.22ZM66,70.27l0,.85v.29a11.53,11.53,0,0,1-.07,1.66l-.32,1.2L49.85,75.74l-.24-.64-.47-2.53,0-.72L66,70.27ZM38,28.66a1.77,1.77,0,0,1,1.31-3,1.74,1.74,0,0,1,1.24.54L43.28,29A1.77,1.77,0,0,1,42,32a1.78,1.78,0,0,1-1.24-.54L38,28.66ZM32.33,47.91a1.8,1.8,0,0,1-1.22-.55,1.78,1.78,0,0,1-.49-1.27,1.75,1.75,0,0,1,.55-1.24,1.78,1.78,0,0,1,1.27-.49l3.88.08a1.75,1.75,0,0,1,1.24.55,1.8,1.8,0,0,1,.49,1.27v0h0v.06a1.71,1.71,0,0,1-.54,1.15,1.76,1.76,0,0,1-1.27.49h-.07l-3.83-.08ZM83.21,45.1h.06a1.73,1.73,0,0,1,1.2.46,1.77,1.77,0,0,1,.58,1.22v.08a1.78,1.78,0,0,1-.46,1.2,1.73,1.73,0,0,1-1.23.58l-3.87.2a1.79,1.79,0,0,1-1.28-.46,1.73,1.73,0,0,1-.58-1.23,1.79,1.79,0,0,1,.46-1.27,1.73,1.73,0,0,1,1.23-.58c1.29-.07,2.59-.15,3.89-.2ZM76.42,29.26a1.81,1.81,0,0,1,1.17-.69,1.79,1.79,0,0,1,1.31.34h0a1.76,1.76,0,0,1,.68,1.17,1.74,1.74,0,0,1-.33,1.31L76.92,34.5a1.77,1.77,0,0,1-2.48.35,1.75,1.75,0,0,1-.69-1.17,1.71,1.71,0,0,1,.34-1.31l2.33-3.11ZM14.94,68.66a1.9,1.9,0,0,1-.47,1.16,2,2,0,0,1-1.19.66h0a23.66,23.66,0,0,0-3.12.68,9.72,9.72,0,0,0-2.57,1.17l0,0a8,8,0,0,0-2,1.87,13.24,13.24,0,0,0-1.63,3,16.61,16.61,0,0,0,.33,4.27,9.23,9.23,0,0,0,1.42,3.39l0,0a8.32,8.32,0,0,0,2.75,2.41l0,0a14.17,14.17,0,0,0,4.38,1.43H92.29v3.94H12.74A12.42,12.42,0,0,1,7.13,91a13.81,13.81,0,0,1-4.64-3.9,13,13,0,0,1-2-4.74A20.92,20.92,0,0,1,0,76.74V26.54C0,25.05,0,24,0,23c0-2.88,0-5.8.06-8.59.15-3.68.68-7.19,2.51-9.84S7.54.1,12.78,0H13a2,2,0,0,1,1.39.57A2,2,0,0,1,15,2V11H101.7L99.79,15H15V68.54l0,.12Zm88.34-38.61h16L112.9,17.81h-3.67l-6,12.24Z"/></svg>