<svg id="Layer_1" data-name="Layer 1" xmlns="http://www.w3.org/2000/svg" viewBox="0 0 122.88 79.13"><title>handicraft</title><path d="M76.68,21V20a6.17,6.17,0,0,1,.49-2.43,6.28,6.28,0,0,1,1.39-2.08l0,0a6.42,6.42,0,0,1,4.49-1.86,6.22,6.22,0,0,1,1.92.3,6.09,6.09,0,0,1,1.23.53v-.73a6.39,6.39,0,0,1,.48-2.44,6.54,6.54,0,0,1,1.39-2.08h0a6.32,6.32,0,0,1,2-1.37,6.44,6.44,0,0,1,4.88,0A6.5,6.5,0,0,1,97.1,9.15a6.38,6.38,0,0,1,1.39,2.08A6.22,6.22,0,0,1,99,13.67v.75a6.4,6.4,0,0,1,5.51-.31,6.53,6.53,0,0,1,2.07,1.4A6.38,6.38,0,0,1,108.44,20V48.8q.06.38.09.75c0,.27,0,.53,0,.79v.95l1.65-1.61.39-.39a9.69,9.69,0,0,1,3.85-2.47,6.6,6.6,0,0,1,4,0,6.28,6.28,0,0,1,1.46.68,5.85,5.85,0,0,1,1.23,1,6.56,6.56,0,0,1,.92,1.33,6,6,0,0,1,.56,1.52,7,7,0,0,1-.51,4.79A14,14,0,0,1,119.28,60l0,0c-.69.7-1.62,1.69-2.71,2.86-4.58,4.91-12,12.82-16.73,14.72-3.85,1.53-9.74,2-15.25,1.21-5-.68-9.69-2.33-12.33-5a17.89,17.89,0,0,1-1.34-1.53l.6-5.89c.07.2.15.41.23.6a13.6,13.6,0,0,0,2.92,4.44c2.13,2.15,6.19,3.47,10.53,4,4.92.62,10.17.26,13.37-1,4.19-1.67,12-10,16.12-14.53.94-1,1.69-1.82,2.18-2.31l0,0,.13-.12a.32.32,0,0,1,.22-.07l0,0s0,0,0,0a4.72,4.72,0,0,0,.42-.4c.83-.88,2.23-2.73,1.75-4.74a4.12,4.12,0,0,0-.27-.72,2.74,2.74,0,0,0-.43-.62v0a2.91,2.91,0,0,0-1.18-.76,3.39,3.39,0,0,0-2.16.11A6.45,6.45,0,0,0,113,51.68c-.39.39-1.45,1.45-2.52,2.45-.53.5-1.07,1-1.57,1.39a9.32,9.32,0,0,1-1.13.83,1.35,1.35,0,0,1-.44.2,1.67,1.67,0,0,1-.49.08.34.34,0,0,1-.17-.05l-1.06-.52a.3.3,0,0,1-.18-.27l-.33-5.45c0-5.38,0-10.26,0-15.14,0-5.2,0-10.4,0-15.18a2.9,2.9,0,0,0-.23-1.14,3,3,0,0,0-1.61-1.62,3.06,3.06,0,0,0-2.28,0,3.37,3.37,0,0,0-1,.65,3.15,3.15,0,0,0-.64,1A2.87,2.87,0,0,0,99.07,20V39.78a.32.32,0,0,1-.32.33H95.89a.32.32,0,0,1-.32-.33V13.67a2.9,2.9,0,0,0-.23-1.14,3,3,0,0,0-1.61-1.62,3.08,3.08,0,0,0-1.14-.22,2.9,2.9,0,0,0-1.14.23,3.15,3.15,0,0,0-1,.64,3.37,3.37,0,0,0-.65,1,3,3,0,0,0-.22,1.14V39.78a.33.33,0,0,1-.33.33H86.37a.33.33,0,0,1-.33-.33V20a3,3,0,0,0-.22-1.13,3.12,3.12,0,0,0-.65-1,3,3,0,0,0-1-.65A2.87,2.87,0,0,0,83.06,17a3,3,0,0,0-1.13.23,3,3,0,0,0-1.62,1.62A2.85,2.85,0,0,0,80.08,20V39.78a.32.32,0,0,1-.32.33H77a.33.33,0,0,1-.33-.33V26.66a3,3,0,0,0-.22-1.13,3,3,0,0,0-.65-1,3,3,0,0,0-1-.65,2.86,2.86,0,0,0-.52-.16h0A18.36,18.36,0,0,0,75.4,20.5a6.14,6.14,0,0,1,1.28.52ZM61.21,0c.56,8,11.11,12.9,7.45,21.27a9.35,9.35,0,0,1-5.54,5,6,6,0,0,1-4.33-.25c-5.49-2.45-6.18-9.15-4.6-14.31,1.45-4.76,4.69-9,7-11.74ZM54.76,40.91a30.4,30.4,0,0,0,13.12,0L64.71,72.08c-.16,2.43-.62,4.1-3.54,4.6a3.65,3.65,0,0,1-2.43-1,4,4,0,0,1-1-2.55l-3-32.19Zm3.17-12a9,9,0,0,0,6.73,0l3.14,9.81a26.88,26.88,0,0,1-13.42.05c1.44-4.6,1.84-5.29,3.55-9.82ZM46.2,20V21a6.05,6.05,0,0,1,1.44-.56,20.31,20.31,0,0,0,.52,2c.14.42.29.83.45,1.24a3.43,3.43,0,0,0-.57.17,3,3,0,0,0-1,.65,3,3,0,0,0-.65,1,3,3,0,0,0-.22,1.13V39.78a.33.33,0,0,1-.33.33H43.11a.32.32,0,0,1-.32-.33V20a2.85,2.85,0,0,0-.23-1.13,2.81,2.81,0,0,0-.65-1,2.86,2.86,0,0,0-1-.65A2.94,2.94,0,0,0,39.81,17a2.9,2.9,0,0,0-1.14.23,3,3,0,0,0-1,.65,3.12,3.12,0,0,0-.65,1A3,3,0,0,0,36.83,20V39.78a.33.33,0,0,1-.33.33H33.59a.33.33,0,0,1-.33-.33V13.67A3,3,0,0,0,33,12.53a3,3,0,0,0-1.62-1.61,2.9,2.9,0,0,0-1.14-.23,3.08,3.08,0,0,0-1.14.22,3,3,0,0,0-1.61,1.62,2.9,2.9,0,0,0-.23,1.14V39.79a.32.32,0,0,1-.32.33H24.13a.33.33,0,0,1-.33-.33V20a3,3,0,0,0-.22-1.14,3.37,3.37,0,0,0-.65-1,3.18,3.18,0,0,0-1-.65,3.06,3.06,0,0,0-2.28,0,3,3,0,0,0-1.61,1.62A2.9,2.9,0,0,0,17.84,20c0,4.79,0,10,0,15.18,0,4.88,0,9.76,0,15.14l-.33,5.45a.32.32,0,0,1-.18.27l-1.07.52a.28.28,0,0,1-.16,0,1.67,1.67,0,0,1-.49-.08,1.27,1.27,0,0,1-.44-.21A8.83,8.83,0,0,1,14,55.53c-.49-.41-1-.89-1.56-1.39-1.06-1-2.13-2.06-2.52-2.45a6.4,6.4,0,0,0-2.31-1.58A3.39,3.39,0,0,0,5.41,50a2.91,2.91,0,0,0-.64.31,3.05,3.05,0,0,0-.55.46h0a3.1,3.1,0,0,0-.43.62,3.64,3.64,0,0,0-.26.72,4.11,4.11,0,0,0,.3,2.64,7.54,7.54,0,0,0,2,2.63l.15.14,0,0c.49.49,1.24,1.3,2.17,2.3,4.15,4.47,11.94,12.87,16.14,14.54,3.2,1.27,8.45,1.63,13.37,1,4.34-.56,8.4-1.88,10.52-4A13.66,13.66,0,0,0,51,67.23l.52,5.53c-.3.35-.6.69-.92,1-2.64,2.67-7.34,4.32-12.33,5-5.51.75-11.4.32-15.25-1.21-4.77-1.9-12.15-9.81-16.73-14.72-1.09-1.17-2-2.16-2.71-2.86l0,0A14,14,0,0,1,.72,56.13a7,7,0,0,1-.51-4.79,6,6,0,0,1,.56-1.52,6.56,6.56,0,0,1,.92-1.33,5.85,5.85,0,0,1,1.23-1,6.28,6.28,0,0,1,1.46-.68,6.6,6.6,0,0,1,4.05,0,9.69,9.69,0,0,1,3.85,2.47l.39.39,1.65,1.61v-.95c0-.26,0-.52,0-.79s.05-.5.09-.75V20a6.38,6.38,0,0,1,1.88-4.51,6.53,6.53,0,0,1,2.07-1.4,6.39,6.39,0,0,1,4.3-.2,6.22,6.22,0,0,1,1.21.52v-.76a6.22,6.22,0,0,1,.49-2.44,6.38,6.38,0,0,1,1.39-2.08,6.5,6.5,0,0,1,2.07-1.39,6.44,6.44,0,0,1,4.88,0,6.32,6.32,0,0,1,2,1.37h0a6.54,6.54,0,0,1,1.39,2.08,6.39,6.39,0,0,1,.48,2.44v.73a6.39,6.39,0,0,1,7.66,1,6.28,6.28,0,0,1,1.39,2.08A6.17,6.17,0,0,1,46.2,20Zm71,37.38h.08s-.07,0-.12-.06l0,0Z"/></svg>