<?xml version="1.0" encoding="utf-8"?><svg version="1.1" id="Layer_1" xmlns="http://www.w3.org/2000/svg" xmlns:xlink="http://www.w3.org/1999/xlink" x="0px" y="0px" viewBox="0 0 122.88 97.05" style="enable-background:new 0 0 122.88 97.05" xml:space="preserve"><g><path d="M9.35,37.38c0.85-0.9,2.27-0.93,3.17-0.08c0.9,0.85,0.93,2.27,0.08,3.16l-7.26,7.6l7.26,7.62c0.85,0.9,0.82,2.31-0.08,3.16 c-0.9,0.85-2.31,0.82-3.17-0.08l-8.73-9.17c-0.82-0.86-0.83-2.22,0-3.09L9.35,37.38L9.35,37.38L9.35,37.38z M74.98,46.57 l-7.17-6.88l-1.51,9.29c-0.03,0.18-0.08,0.37-0.17,0.53c-0.08,0.16-0.21,0.32-0.36,0.44c-0.32,0.27-0.73,0.39-1.12,0.37 c-0.39-0.03-0.77-0.21-1.05-0.54L52.63,36.81L40.56,47.18v5.79H82.3V39.51l-6.69,7.01c-0.07,0.11-0.2,0.18-0.33,0.18 C75.15,46.69,75.05,46.65,74.98,46.57L74.98,46.57L74.98,46.57L74.98,46.57z M75.24,42.53l7.06-7.74V20.02h0.01H40.56v22.97 c3.48-3.15,7.66-6.61,11.21-9.59c0.32-0.27,0.71-0.39,1.08-0.37c0.39,0.02,0.77,0.19,1.05,0.49l0.01,0.02 c0.02,0.02,0.03,0.03,0.05,0.06l9.8,11.59l1.46-8.94c0.08-0.41,0.31-0.75,0.62-0.98c0.31-0.22,0.71-0.34,1.13-0.27l0.04,0.01 c0.15,0.03,0.29,0.08,0.42,0.14c0.14,0.07,0.27,0.16,0.39,0.27L75.24,42.53L75.24,42.53L75.24,42.53L75.24,42.53z M67.87,22.87 c0.6,0,1.2,0.13,1.74,0.35c0.56,0.23,1.06,0.57,1.48,0.99c0.42,0.42,0.76,0.92,1,1.48c0.22,0.54,0.34,1.13,0.34,1.74 s-0.13,1.2-0.34,1.73c-0.23,0.56-0.57,1.06-0.99,1.48c-0.42,0.42-0.92,0.76-1.48,0.99c-0.54,0.23-1.12,0.35-1.73,0.35 c-0.6,0-1.2-0.13-1.74-0.35c-0.56-0.23-1.05-0.57-1.48-0.99c-0.42-0.42-0.76-0.92-1-1.48c-0.22-0.54-0.34-1.12-0.34-1.73 c0-0.6,0.13-1.2,0.34-1.74c0.23-0.56,0.57-1.06,0.99-1.48c0.42-0.42,0.92-0.76,1.48-0.99C66.67,22.99,67.25,22.87,67.87,22.87 L67.87,22.87L67.87,22.87L67.87,22.87z M69.24,26.06c-0.18-0.18-0.39-0.32-0.63-0.43c-0.22-0.09-0.48-0.14-0.74-0.14 c-0.26,0-0.51,0.05-0.74,0.14c-0.24,0.1-0.45,0.25-0.63,0.42c-0.18,0.18-0.32,0.39-0.42,0.63c-0.09,0.23-0.14,0.48-0.14,0.74 c0,0.25,0.05,0.51,0.14,0.74c0.1,0.24,0.25,0.45,0.42,0.63c0.18,0.18,0.39,0.32,0.63,0.43c0.22,0.09,0.48,0.14,0.74,0.14 c0.26,0,0.51-0.05,0.74-0.14c0.24-0.1,0.45-0.25,0.63-0.42c0.18-0.18,0.32-0.39,0.42-0.63c0.09-0.23,0.14-0.48,0.14-0.74 c0-0.26-0.05-0.51-0.14-0.74C69.56,26.45,69.41,26.24,69.24,26.06L69.24,26.06L69.24,26.06L69.24,26.06z M39.83,83.73 c-1.39,0-2.51-1.13-2.51-2.51c0-1.39,1.12-2.51,2.51-2.51h42.5c1.39,0,2.51,1.13,2.51,2.51c0,1.39-1.12,2.51-2.51,2.51H39.83 L39.83,83.73L39.83,83.73z M40.3,71.65c-1.39,0-2.51-1.13-2.51-2.51c0-1.39,1.12-2.51,2.51-2.51h21.96c1.39,0,2.51,1.13,2.51,2.51 c0,1.39-1.12,2.51-2.51,2.51H40.3L40.3,71.65L40.3,71.65z M40.93,16.14h41.02c1.16,0,2.22,0.48,2.98,1.24l0.01,0.01 c0.77,0.77,1.24,1.82,1.24,2.98v32.23c0,1.16-0.48,2.22-1.24,2.98l-0.01,0.01c-0.77,0.77-1.82,1.24-2.98,1.24H40.93 c-1.16,0-2.22-0.48-2.98-1.24l-0.01-0.01c-0.77-0.77-1.24-1.82-1.24-2.98V20.38c0-1.16,0.48-2.22,1.24-2.98l0.01-0.01 C38.71,16.62,39.77,16.14,40.93,16.14L40.93,16.14L40.93,16.14z M110.28,40.47c-0.85-0.9-0.82-2.31,0.08-3.16 c0.9-0.85,2.31-0.82,3.17,0.08l8.73,9.14c0.83,0.87,0.82,2.23,0,3.09l-8.73,9.17c-0.85,0.9-2.27,0.93-3.17,0.08 c-0.9-0.85-0.93-2.27-0.08-3.16l7.26-7.62L110.28,40.47L110.28,40.47L110.28,40.47z M25.31,0h72.26c1.21,0,2.31,0.5,3.11,1.3 l0.01,0.01c0.8,0.8,1.29,1.9,1.29,3.11v88.22c0,1.21-0.5,2.31-1.3,3.11l-0.01,0.01c-0.8,0.8-1.9,1.29-3.11,1.29l-72.25,0 c-1.2,0-2.31-0.5-3.11-1.3l-0.01-0.01c-0.8-0.8-1.29-1.9-1.29-3.11V4.42c0-1.21,0.5-2.31,1.3-3.11l0.01-0.01 C23,0.49,24.1,0,25.31,0L25.31,0L25.31,0z M97.5,4.47H25.37v88.1h72.15V4.47H97.5L97.5,4.47z"/></g></svg>