<svg id="Layer_1" data-name="Layer 1" xmlns="http://www.w3.org/2000/svg" viewBox="0 0 122.88 116.28"><title>leaflet</title><path d="M81.82,17.38,41.05,3.87V94.54L81.82,112.2V17.38ZM91,22.88l21.6-8.33V39.24L91,50.13V22.88Zm-15.71-.47L47.63,13.26v76.8L75.25,102.3V22.41Zm18.49,73.5a1.72,1.72,0,0,1-1.55-3.07L112,82.8a1.72,1.72,0,1,1,1.55,3.06l-19.78,10Zm0-11.73a1.72,1.72,0,0,1-1.55-3.07l19.78-10a1.72,1.72,0,0,1,1.55,3.07L93.74,84.18Zm0-11.73a1.73,1.73,0,0,1-2.31-.76,1.72,1.72,0,0,1,.76-2.31l19.78-10a1.72,1.72,0,0,1,1.55,3.07L93.74,72.45Zm0-11.73A1.73,1.73,0,0,1,91.43,60a1.72,1.72,0,0,1,.76-2.31L112,47.6a1.72,1.72,0,1,1,1.55,3.07l-19.78,10Zm-82.95,39a1.85,1.85,0,1,1-1.67-3.3L30.45,85.59a1.85,1.85,0,1,1,1.67,3.31L10.79,99.73Zm0-12.65a1.85,1.85,0,0,1-1.67-3.31L30.45,72.94a1.85,1.85,0,0,1,1.67,3.31L10.79,87.08Zm0-12.65a1.85,1.85,0,0,1-1.67-3.31L30.45,60.29a1.85,1.85,0,0,1,1.67,3.31L10.79,74.43Zm0-12.65a1.85,1.85,0,1,1-1.67-3.31L30.45,47.64A1.85,1.85,0,1,1,32.12,51L10.79,61.78Zm-1.06-38,21.6-8.33V40.12L9.73,51V23.76Zm73.68-9.28L120.67.11a1.63,1.63,0,0,1,2.1.93,1.7,1.7,0,0,1,.11.58v94a1.63,1.63,0,0,1-1,1.5l-37.7,19a1.61,1.61,0,0,1-1.45,0L39.48,97.38,2.35,116.11a1.62,1.62,0,0,1-2.17-.72,1.58,1.58,0,0,1-.18-.73V16.2a1.63,1.63,0,0,1,1.17-1.56L38.74.15a1.65,1.65,0,0,1,1.2-.07l43.47,14.4ZM119.63,4,85.08,17.31V112L119.63,94.6V4ZM37.8,4,3.25,17.31V112L37.8,94.6V4Z"/></svg>