<svg id="Layer_1" data-name="Layer 1" xmlns="http://www.w3.org/2000/svg" viewBox="0 0 122.88 93.25"><title>prototype</title><path d="M4.52,69.17l.23-.2a13.14,13.14,0,0,1,1.37-1,14.11,14.11,0,0,1,3.12-1.53,21.7,21.7,0,0,1,3-.8V4.29c-7.79,1.2-7.74,9-7.7,16.31a16.3,16.3,0,0,1,0,1.86V69.17Zm61.62,9.59a8.6,8.6,0,0,1-3.31,3,7.79,7.79,0,0,1-7.34,0A7.45,7.45,0,0,1,53.38,80l12.76-1.19ZM67.4,41.31a1.07,1.07,0,0,0-.8-.34,1.09,1.09,0,0,0-.81.34l-1.23,1.23A7.56,7.56,0,0,0,63.51,42a10.62,10.62,0,0,0-1.11-.43V39.65a1.13,1.13,0,0,0-1.14-1.14H58.9a1.11,1.11,0,0,0-.8.33,1.07,1.07,0,0,0-.34.81v1.73a9,9,0,0,0-1.15.35,11.42,11.42,0,0,0-1.06.49l-1.36-1.34a1,1,0,0,0-.79-.34,1.1,1.1,0,0,0-.81.34l-1.65,1.66a1.1,1.1,0,0,0-.34.81,1.07,1.07,0,0,0,.34.8l1.22,1.24a8,8,0,0,0-.56,1,11.64,11.64,0,0,0-.44,1.11H49.27a1.09,1.09,0,0,0-.8.33,1.08,1.08,0,0,0-.33.81v2.37a1.13,1.13,0,0,0,1.13,1.13H51a7.32,7.32,0,0,0,.36,1.15,8.73,8.73,0,0,0,.49,1.08L50.5,55.75a1.08,1.08,0,0,0-.34.79,1.14,1.14,0,0,0,.34.81L52.16,59a1.19,1.19,0,0,0,1.62,0L55,57.78a9.48,9.48,0,0,0,1,.57,11.73,11.73,0,0,0,1.12.43v1.89a1.13,1.13,0,0,0,1.13,1.14h2.37a1.14,1.14,0,0,0,1.14-1.14V58.94A9,9,0,0,0,63,58.59,10.5,10.5,0,0,0,64,58.1l1.34,1.34a1.1,1.1,0,0,0,1.59,0l1.68-1.66A1.12,1.12,0,0,0,69,57a1.09,1.09,0,0,0-.32-.8L67.4,54.93a6.54,6.54,0,0,0,.57-1,11.64,11.64,0,0,0,.44-1.11h1.88a1.13,1.13,0,0,0,1.14-1.14V49.27a1.13,1.13,0,0,0-.33-.8,1.1,1.1,0,0,0-.81-.33H68.57A10,10,0,0,0,68.21,47a7,7,0,0,0-.49-1.07l1.34-1.36a1.05,1.05,0,0,0,.35-.79,1.11,1.11,0,0,0-.35-.81L67.4,41.31ZM60.88,21.67a2.06,2.06,0,0,1,.72-1.4,2,2,0,0,1,1.46-.48h0l.14,0a2.07,2.07,0,0,1,1.28.7A2,2,0,0,1,65,22h0s0,.07,0,.1l-.35,4.35h0s0,.09,0,.14a2.06,2.06,0,0,1-2.16,1.76h0l-.15,0a2,2,0,0,1-1.76-2.16h0a.34.34,0,0,1,0-.1l.34-4.37ZM38,28.07a2.05,2.05,0,0,1,0-2.89,2.12,2.12,0,0,1,1.46-.58,2,2,0,0,1,1.43.63L44,28.45a2.12,2.12,0,0,1,.58,1.46,2.05,2.05,0,0,1-3.52,1.38L38,28.07ZM31.41,50.24a2.05,2.05,0,0,1-2-2.09,2,2,0,0,1,.64-1.43,2,2,0,0,1,1.46-.56l4.47.09a2,2,0,0,1,2,2.09v0h0v.08a2.06,2.06,0,0,1-.63,1.32,2,2,0,0,1-1.46.57h-.08l-4.42-.1ZM88,47h.07a2,2,0,0,1,2.06,2V49a2,2,0,0,1-1.95,2.06l-4.46.22a2,2,0,0,1-1.47-.53,2,2,0,0,1-.67-1.41,2.05,2.05,0,0,1,1.94-2.14c1.49-.08,3-.17,4.48-.23ZM80.19,28.75a2,2,0,0,1,2.85-.4h0a2,2,0,0,1,.79,1.34,2,2,0,0,1-.39,1.51l-2.69,3.58a2,2,0,0,1-1.35.8,2,2,0,0,1-1.92-3.26l2.7-3.58ZM47,63.76C46.36,62.9,45.67,62,45,60.93A20,20,0,0,1,43,57.29a20.72,20.72,0,0,1-1.22-4.16v-.05a18.36,18.36,0,0,1-.24-4.26,18.77,18.77,0,0,1,.84-4.39,21.27,21.27,0,0,1,2-4.41l.13-.2a17.88,17.88,0,0,1,3.8-4.11A16.89,16.89,0,0,1,53.26,33l.13,0a17.77,17.77,0,0,1,4.14-.87,18.94,18.94,0,0,1,4.45.14,19.55,19.55,0,0,1,4.22,1.1l.14.06a20.22,20.22,0,0,1,3.72,1.94,18,18,0,0,1,4.15,3.82A16.27,16.27,0,0,1,76.86,44a18.91,18.91,0,0,1,.79,3.07,18.29,18.29,0,0,1,.23,3.36,17,17,0,0,1-.51,3.73,18.22,18.22,0,0,1-1.3,3.65,39.16,39.16,0,0,1-5.18,7.48c-1,1.25-2,2.49-2.86,3.69a1.61,1.61,0,0,1-1.63.65L51.57,71a1.59,1.59,0,0,1-1.69-1.16,22.15,22.15,0,0,0-1.26-3.45A14.07,14.07,0,0,0,47,63.76Zm.59-4.58c.58.88,1.26,1.75,1.93,2.6a17.18,17.18,0,0,1,2,3.26,25.85,25.85,0,0,1,1.06,2.66L65.9,66.46c.77-1,1.63-2.1,2.49-3.17a37.71,37.71,0,0,0,4.78-6.82,15.87,15.87,0,0,0,1.09-3.06,13.85,13.85,0,0,0,.41-3,14,14,0,0,0-.19-2.77,15.48,15.48,0,0,0-.65-2.54,13.08,13.08,0,0,0-2.13-3.88A15,15,0,0,0,68.28,38a16.63,16.63,0,0,0-3.1-1.62l-.12,0a16.77,16.77,0,0,0-3.54-.92,16.43,16.43,0,0,0-3.71-.12,14.71,14.71,0,0,0-3.38.7l-.13,0a13.48,13.48,0,0,0-4,2.16,14.24,14.24,0,0,0-3.11,3.37l0,.06a18.22,18.22,0,0,0-1.7,3.72A15.07,15.07,0,0,0,44.78,49a14.68,14.68,0,0,0,.2,3.5v0a18,18,0,0,0,1,3.53,18.45,18.45,0,0,0,1.62,3.08ZM59.78,43.87a6.21,6.21,0,0,1,2.46.49,6.33,6.33,0,0,1,2,1.34,6.52,6.52,0,0,1,1.35,2,6.49,6.49,0,0,1,0,4.9,6.52,6.52,0,0,1-1.35,2,6.33,6.33,0,0,1-2,1.34,6.4,6.4,0,0,1-4.91,0,6.33,6.33,0,0,1-2-1.34,6.52,6.52,0,0,1-1.35-2,6.37,6.37,0,0,1,0-4.9,6.52,6.52,0,0,1,1.35-2,6.33,6.33,0,0,1,2-1.34,6.16,6.16,0,0,1,2.45-.49Zm8,27.87,0,.83v.29a11.12,11.12,0,0,1-.07,1.63l-.31,1.18L51.86,77.11l-.23-.63L51.16,74l0-.72,16.55-1.54ZM122.79,28V91.75H105.54V28h-.07l.59-1.19,7.12-14.63.72-1.5.76,1.47,7.58,14.64.64,1.21Zm-14.65-1.67h12l-4.78-9.2h-2.76l-4.48,9.2ZM16.33,67.44a2.13,2.13,0,0,1-.49,1.22,2,2,0,0,1-1.26.69h-.05a25,25,0,0,0-3.36.73A10.62,10.62,0,0,0,8.4,71.35,8.64,8.64,0,0,0,6.25,73.4a14.1,14.1,0,0,0-1.77,3.21,18.83,18.83,0,0,0,.35,4.62,10.14,10.14,0,0,0,1.54,3.66l0,0a8.82,8.82,0,0,0,3,2.61l0,0a15,15,0,0,0,4.73,1.54h86.08a.62.62,0,0,1,.62.62v2l0,.39.05.39a.62.62,0,0,1-.51.71H14a13.34,13.34,0,0,1-6-1.78,14.9,14.9,0,0,1-5-4.19A14,14,0,0,1,.82,82.2a22.75,22.75,0,0,1-.44-6.06c0-17.92-.86-37.91,0-55.57C.35,15.77.32,10.78,2,6.9S7.16.13,14.06,0h.21a2.11,2.11,0,0,1,1.47.6,2.11,2.11,0,0,1,.6,1.47v9.81h90.77a.62.62,0,0,1,.62.62.56.56,0,0,1-.09.31l-1.39,2.85a.6.6,0,0,1-.55.35H16.34V67.44Z"/></svg>