<svg id="Layer_1" data-name="Layer 1" xmlns="http://www.w3.org/2000/svg" viewBox="0 0 122.88 99.7"><title>thought-bubble</title><path d="M11.14,41.09A14.74,14.74,0,0,1,9.08,29.66a20.65,20.65,0,0,1,4-8.46,21.64,21.64,0,0,1,7.37-6.06A17.13,17.13,0,0,1,33.28,14a15.88,15.88,0,0,1,7-9.75A26,26,0,0,1,50.87.33a29.13,29.13,0,0,1,11.34.5C66.71,2,70.63,4.29,73,7.85A18.6,18.6,0,0,1,85.93,4.46,27.45,27.45,0,0,1,96.41,7.51a23.2,23.2,0,0,1,8.14,6.82,14.69,14.69,0,0,1,2.89,10.34,15.75,15.75,0,0,1,13.21,8.92,20.43,20.43,0,0,1,2.15,7.48,20.14,20.14,0,0,1-.82,7.8c-1.81,5.73-6.31,10.58-14,12a15.93,15.93,0,0,1-2,8.53,23.52,23.52,0,0,1-8.78,8.8,25.37,25.37,0,0,1-12.74,3.53A22.67,22.67,0,0,1,71.07,77.3c-3.9,3.41-10.59,5.06-17.16,4.93a34.52,34.52,0,0,1-8.32-1.14,21.52,21.52,0,0,1-7.11-3.26,11.24,11.24,0,0,1-4.35-6c-7.44,1.63-13.53.48-18.08-2.23A19.46,19.46,0,0,1,6.58,52.76a17.28,17.28,0,0,1,4.56-11.67ZM7.68,87.85a9.11,9.11,0,0,1,5.18,1.53,5.1,5.1,0,0,1,0,8.79A9.11,9.11,0,0,1,7.68,99.7a9.08,9.08,0,0,1-5.17-1.53,5.1,5.1,0,0,1,0-8.79,9.08,9.08,0,0,1,5.17-1.53ZM25.87,76.37A12.62,12.62,0,0,1,33,78.48a6.69,6.69,0,0,1,0,11.57,12.62,12.62,0,0,1-7.16,2.1,12.65,12.65,0,0,1-7.17-2.1,6.69,6.69,0,0,1,0-11.57,12.66,12.66,0,0,1,7.17-2.11Z"/></svg>