<?xml version="1.0" encoding="utf-8"?><svg version="1.1" id="Layer_1" xmlns="http://www.w3.org/2000/svg" xmlns:xlink="http://www.w3.org/1999/xlink" x="0px" y="0px" viewBox="0 0 122.88 121.32" style="enable-background:new 0 0 122.88 121.32" xml:space="preserve"><g><path d="M45.97,111.26h8.35V75.7H7.6c-2.07,0-3.97-0.85-5.35-2.23l0,0l-0.01-0.01l-0.01-0.01l-0.01-0.01C0.85,72.05,0,70.16,0,68.1 V19.51c0-2.07,0.85-3.97,2.23-5.35l0,0l0.01-0.01l0.01-0.01l0.01-0.01c1.38-1.37,3.27-2.22,5.34-2.22h7.63V5.03 c0-2.78,2.25-5.03,5.03-5.03c2.78,0,5.03,2.25,5.03,5.03v6.88h31.67V5.03C56.95,2.25,59.2,0,61.98,0s5.03,2.25,5.03,5.03v6.88 h31.67V5.03c0-2.78,2.25-5.03,5.03-5.03c2.78,0,5.03,2.25,5.03,5.03v6.88h6.55c2.07,0,3.97,0.85,5.35,2.23l0,0l0.01,0.01l0.01,0.01 l0.01,0.01c1.37,1.38,2.22,3.27,2.22,5.34V68.1c0,2.07-0.85,3.97-2.23,5.35l0,0l-0.01,0.01l-0.01,0.01l-0.01,0.01 c-1.38,1.37-3.27,2.22-5.34,2.22H68.33v35.57h8.35v10.06H45.97V111.26L45.97,111.26z M112.82,21.97h-9.12H61.98H20.25h-10.2v43.67 h102.76V21.97L112.82,21.97z"/></g></svg>