<svg id="Layer_1" data-name="Layer 1" xmlns="http://www.w3.org/2000/svg" viewBox="0 0 81.81 122.88"><title>attract-customers</title><path d="M73.06,67.25V54.89H53.58V67.25ZM52.79,72.73a1.54,1.54,0,0,1,2.34-.4A2.09,2.09,0,0,1,55.48,75l-2.94,4.53a1.55,1.55,0,0,1-2.35.4,2.11,2.11,0,0,1-.35-2.68l2.95-4.53Zm18,2.37a2.13,2.13,0,0,1,0-2.71,1.54,1.54,0,0,1,2.38,0l3.63,4.14a2.12,2.12,0,0,1,0,2.72,1.54,1.54,0,0,1-2.38,0L70.78,75.1ZM61.32,75a1.69,1.69,0,1,1,3.35,0l0,5.09a1.69,1.69,0,1,1-3.35,0l0-5.09ZM7.8,72.73a1.54,1.54,0,0,1,2.34-.4A2.09,2.09,0,0,1,10.49,75L7.54,79.54a1.54,1.54,0,0,1-2.34.4,2.09,2.09,0,0,1-.35-2.68l3-4.53Zm18,2.37a2.13,2.13,0,0,1,0-2.71,1.54,1.54,0,0,1,2.38,0l3.63,4.14a2.12,2.12,0,0,1,0,2.72,1.54,1.54,0,0,1-2.38,0L25.79,75.1ZM16.33,75A1.8,1.8,0,0,1,18,73.05,1.81,1.81,0,0,1,19.68,75l0,5.09A1.82,1.82,0,0,1,18.06,82a1.79,1.79,0,0,1-1.69-1.9l0-5.09Zm40,31.76c-.62-1-1.78-2.32-1.78-3.47a1.86,1.86,0,0,1,1.25-1.69c-.06-1-.1-2-.1-2.94,0-.58,0-1.16,0-1.73a6.43,6.43,0,0,1,.2-1.08,6.17,6.17,0,0,1,2.76-3.5,7.66,7.66,0,0,1,1.5-.72c.95-.34.49-1.94,1.53-2,2.43-.06,6.42,2.16,8,3.85a6.18,6.18,0,0,1,1.59,4l-.1,4.25a1.42,1.42,0,0,1,1,.88c.33,1.34-1.06,3-1.71,4.08s-2.88,4.17-2.88,4.2a.88.88,0,0,0,.2.49c3.55,4.87,14,1.8,14,11.49H45c0-9.69,10.42-6.62,14-11.49.18-.25.26-.39.25-.51s-2.62-3.77-2.85-4.14Zm-45,0c-.62-1-1.78-2.32-1.78-3.47a1.86,1.86,0,0,1,1.25-1.69c-.06-1-.1-2-.1-2.94,0-.58,0-1.16,0-1.73a6.43,6.43,0,0,1,.2-1.08,6.17,6.17,0,0,1,2.76-3.5,7.66,7.66,0,0,1,1.5-.72c1-.34.49-1.94,1.53-2,2.42-.06,6.42,2.16,8,3.85a6.18,6.18,0,0,1,1.59,4l-.1,4.25a1.42,1.42,0,0,1,1,.88c.33,1.34-1.06,3-1.71,4.08s-2.88,4.17-2.88,4.2a.88.88,0,0,0,.2.49c3.55,4.87,14,1.8,14,11.49H0c0-9.69,10.42-6.62,14-11.49.18-.25.26-.39.25-.51s-2.62-3.77-2.85-4.14Zm61.7-62.39V30.86A30.74,30.74,0,0,0,64,9.06v0C58.38,3.48,49.1,0,40.64,0S22.93,3.47,17.32,9.06l0,0A30.77,30.77,0,0,0,8.22,30.86V44.35H27.7V30.86a11.3,11.3,0,0,1,3.32-8l0,0c2.05-2,6.45-3.31,9.59-3.31s7.55,1.27,9.59,3.31v0a11.33,11.33,0,0,1,3.35,8V44.35ZM8.22,54.89V67.34H27.7V54.89Z"/></svg>