<svg id="Layer_1" data-name="Layer 1" xmlns="http://www.w3.org/2000/svg" viewBox="0 0 122.88 99.63"><defs><style>.cls-1{fill-rule:evenodd;}</style></defs><title>digital-ads</title><path class="cls-1" d="M16.34,23.62H82.53a4,4,0,0,1,4,4v2A21.69,21.69,0,0,0,78.83,31l-.46.18A21.59,21.59,0,0,0,65.11,51a20.87,20.87,0,0,0,.7,5.37H16.34a4,4,0,0,1-4-4V27.58a4,4,0,0,1,4-4ZM73.65,6.27A3.63,3.63,0,1,1,70,9.9a3.63,3.63,0,0,1,3.63-3.63Zm-10.92,0A3.63,3.63,0,1,1,59.1,9.9a3.62,3.62,0,0,1,3.63-3.63Zm21.83,0A3.63,3.63,0,1,1,80.93,9.9a3.62,3.62,0,0,1,3.63-3.63ZM6.05,0H92.82a6.05,6.05,0,0,1,4.26,1.77h0a6.05,6.05,0,0,1,1.77,4.26V33.41a21.17,21.17,0,0,0-4.08-2.22h0c-.45-.19-.9-.36-1.36-.51V18.48a3.68,3.68,0,0,1-.58.05H6.05a3.81,3.81,0,0,1-.59-.05V89.14a.59.59,0,0,0,.17.41h0a.57.57,0,0,0,.41.16H82.3l0,.28a12.82,12.82,0,0,0,.47,2.59,10.35,10.35,0,0,0,1.13,2.59H6.05a6,6,0,0,1-4.27-1.77h0A6,6,0,0,1,0,89.14V6.05A6.06,6.06,0,0,1,1.77,1.77L2,1.59A6.06,6.06,0,0,1,6.05,0ZM14.6,63.92H67.46V68.1H14.6V63.92ZM15.5,79a2.09,2.09,0,1,1,0-4.18H54A2.09,2.09,0,0,1,54,79Zm95.84,20.37a2.26,2.26,0,0,1-1.55.14,2.15,2.15,0,0,1-1.33-1l-7-12-5.31,6a6.51,6.51,0,0,1-2.38,1.78,3.16,3.16,0,0,1-1.82.21,2.43,2.43,0,0,1-1.57-1.12,4.28,4.28,0,0,1-.59-2l-3-38.51v-.09a1.63,1.63,0,0,1,.65-1.33,1,1,0,0,1,.31-.15,1.58,1.58,0,0,1,.68-.07,1.5,1.5,0,0,1,.61.19l.18.11,31.83,21.79a4.38,4.38,0,0,1,1.45,1.52,2.38,2.38,0,0,1,.19,1.92,3.08,3.08,0,0,1-1.09,1.47,6.7,6.7,0,0,1-2.74,1.18h0L111.12,81,118.05,93a2.17,2.17,0,0,1,.2,1.65,2.23,2.23,0,0,1-1,1.33l-.06,0-5.75,3.32-.13.06Zm-25-56a7.07,7.07,0,0,1,5,2.08c.13.13.26.27.38.41l-.2-.07a7.26,7.26,0,0,0-1.18-.27l-.4-.06a7.83,7.83,0,0,0-1.81,0l-.26,0a5.21,5.21,0,0,0-5.21,1.29h0a5.18,5.18,0,0,0-1.52,3.68A5.18,5.18,0,0,1,81.07,52a8,8,0,0,0-.13,1.28,7.69,7.69,0,0,0,0,1l.07.89a7.07,7.07,0,0,1,.34-9.65h0a7.08,7.08,0,0,1,5-2.08Zm0-7.68a14.77,14.77,0,0,1,14.78,14.77c0,.48,0,.95-.07,1.42l-2.17-1.48A12.54,12.54,0,1,0,81.54,62.09l.19,2.46a14.77,14.77,0,0,1,4.62-28.8ZM25.4,47.37H21l3.35-14.75h6.39l3.35,14.75H29.76L29.28,45H25.87l-.47,2.33Zm1.67-10.22-.45,4.13h1.9l-.44-4.13Zm9,10.22V32.62h5.79c2.33,0,3.93.56,4.8,1.7S48,37.34,48,40s-.44,4.55-1.3,5.68-2.47,1.7-4.8,1.7Zm5.85-11H40.19V43.6h1.72a2.5,2.5,0,0,0,1.23-.23c.25-.15.38-.49.38-1v-4.7c0-.54-.13-.88-.38-1a2.52,2.52,0,0,0-1.23-.23ZM50,47.11l.58-3.89a12.69,12.69,0,0,0,3.42.54,17.68,17.68,0,0,0,2.45-.14V42.44l-1.86-.19a5,5,0,0,1-3.46-1.38,5,5,0,0,1-.95-3.32c0-2,.39-3.4,1.15-4.15a5.44,5.44,0,0,1,3.9-1.14,19.39,19.39,0,0,1,5,.59l-.51,3.78a17.55,17.55,0,0,0-3.08-.35,15.47,15.47,0,0,0-2,.11v1.16l1.49.17a5.72,5.72,0,0,1,3.74,1.47,4.73,4.73,0,0,1,1,3.25A7.91,7.91,0,0,1,60.58,45a4.51,4.51,0,0,1-.84,1.56,3.12,3.12,0,0,1-1.38.82,7.91,7.91,0,0,1-1.56.34c-.45,0-1,.06-1.79.06a19.19,19.19,0,0,1-5-.62Z"/></svg>