<?xml version="1.0" encoding="utf-8"?><svg version="1.1" id="Layer_1" xmlns="http://www.w3.org/2000/svg" xmlns:xlink="http://www.w3.org/1999/xlink" x="0px" y="0px" viewBox="0 0 122.88 70.51" style="enable-background:new 0 0 122.88 70.51" xml:space="preserve"><style type="text/css">.st0{fill-rule:evenodd;clip-rule:evenodd;}</style><g><path class="st0" d="M42.63,39.67c-0.13,0.58-0.07,1.25,0.14,1.93c0.09,0.3,0.21,0.59,0.35,0.88c0.14,0.3,0.31,0.59,0.51,0.87 c0.19,0.28,0.4,0.55,0.63,0.79c0.22,0.24,0.46,0.46,0.7,0.64l0.01,0.01c0.59,0.46,1.25,0.77,1.92,0.83 c0.87,0.08,2.14-0.62,2.91-1.13l0.17-0.11l0.02-0.01c0.3-0.2,0.6-0.38,0.89-0.57c0.17-0.1,0.37-0.13,0.55-0.09 c0.18,0.04,0.34,0.14,0.44,0.3c0.03,0.04,0.05,0.07,0.06,0.11l0.29,0.52l0.01,0.01c0.38,0.69,0.75,1.36,1.15,2.02 c0.38,0.64,0.76,1.23,1.15,1.75l0.01,0.01l0.05,0.06c0.04,0.06,0.1,0.14,0.17,0.23l0.01,0.01c0.24,0.32,0.48,0.66,0.73,0.96 c0.24,0.29,0.49,0.54,0.72,0.71v0c0.16,0.11,0.33,0.17,0.49,0.13c0.18-0.04,0.38-0.2,0.61-0.51c0.05-0.08,0.1-0.16,0.15-0.24 l0.15-0.23l0.01-0.01c0.15-0.23,0.3-0.46,0.41-0.7c0.08-0.17,0.14-0.35,0.16-0.54c-0.09-0.02-0.2-0.04-0.31-0.05l-0.01,0 c-0.8-0.09-1.58-0.19-1.84-1.73l0-0.01h0l-0.03-0.19c-0.03-0.2-0.05-0.35-0.07-0.44c-0.01-0.06-0.02-0.11-0.03-0.13l0,0.01 c0,0.01,0,0.01,0,0.01l0,0l0,0c-0.07-0.04-0.15-0.08-0.25-0.13l-0.09-0.04l-0.01,0v0c-0.26-0.13-0.47-0.31-0.63-0.54 c-0.18-0.24-0.3-0.52-0.38-0.82h0c-0.08-0.3-0.13-0.62-0.15-0.94c-0.02-0.37-0.01-0.73,0.03-1.04l0-0.01 c0.02-0.13,0.06-0.24,0.13-0.34l0.01-0.02c0.07-0.09,0.17-0.17,0.28-0.22c0.01,0,0.02-0.01,0.03-0.01c2.23-1,4.12-1.51,5.75-1.78 c1.36-0.22,2.55-0.26,3.62-0.27c-2.21-1.46-4.47-3.8-6.38-6.4c-1.96-2.67-3.54-5.63-4.31-8.22c-0.51,1.5-1.24,3.31-2.48,5.29 C49.63,32.55,43,38.05,42.63,39.67L42.63,39.67L42.63,39.67z M18.1,4.29v57.55h86.43V4.29H18.1L18.1,4.29z M106.64,0 c1.19,0,2.17,0.98,2.17,2.17v61.16c0,1.01-0.69,1.86-1.63,2.1h13.16c1.4,0,2.54,1.14,2.54,2.54s-1.14,2.54-2.54,2.54H2.54 c-1.4,0-2.54-1.14-2.54-2.54c0-1.4,1.14-2.54,2.54-2.54h0h12.59c-0.93-0.24-1.63-1.1-1.63-2.1V2.17C13.5,0.98,14.48,0,15.67,0 H106.64L106.64,0z M57.87,66.39h7.14c0.67,0,1.22,0.55,1.22,1.22c0,0.67-0.55,1.22-1.22,1.22h-7.14c-0.67,0-1.22-0.55-1.22-1.22 C56.65,66.93,57.2,66.39,57.87,66.39L57.87,66.39z M61.73,19.1c-0.37-0.21-0.49-0.68-0.28-1.05c0.21-0.37,0.68-0.49,1.05-0.28 c2.04,1.18,4.65,3.69,6.85,6.58c1.96,2.57,3.6,5.47,4.25,8.02c0.1,0.41-0.14,0.83-0.56,0.94c-0.41,0.1-0.83-0.14-0.94-0.56 c-0.6-2.35-2.14-5.05-3.98-7.47C66.05,22.55,63.61,20.19,61.73,19.1L61.73,19.1L61.73,19.1z M75.07,17.41 c-0.29-0.31-0.27-0.8,0.05-1.09c0.31-0.29,0.8-0.27,1.09,0.05c0.58,0.63,1.15,1.29,1.71,1.99c0.54,0.68,1.06,1.38,1.56,2.1 c0.24,0.35,0.15,0.83-0.2,1.07c-0.35,0.24-0.83,0.15-1.07-0.2c-0.47-0.68-0.97-1.36-1.49-2.01C76.17,18.65,75.62,18.01,75.07,17.41 L75.07,17.41z M68.58,18.16c-0.32-0.28-0.35-0.77-0.07-1.08c0.28-0.32,0.77-0.35,1.08-0.07c1.38,1.22,2.82,2.78,4.14,4.48 c1.24,1.6,2.36,3.33,3.21,5.02c0.19,0.38,0.04,0.84-0.34,1.03c-0.38,0.19-0.84,0.04-1.03-0.34c-0.8-1.59-1.87-3.24-3.05-4.77 C71.26,20.8,69.88,19.31,68.58,18.16L68.58,18.16z M57.2,29.69c0.74-0.3,1.48-0.43,2.2-0.35c2.03,0.22,3.5,1.82,3.33,3.9 c-0.06,0.79-0.34,1.65-0.84,2.6c0.41,0.4,0.85,0.8,1.33,1.21c0.68,0.59,1.36,1.1,2.05,1.53c0.62,0.39,1.25,0.7,1.87,0.93 c0.06-0.01,0.12-0.02,0.17-0.04c0.06-0.02,0.11-0.05,0.16-0.08c0.04-0.03,0.09-0.06,0.13-0.11c0.1-0.2,0.17-0.44,0.2-0.71 c0.03-0.3,0.03-0.63-0.02-0.99c-0.14-1.09-0.61-2.41-1.3-3.81c-0.76-1.54-1.79-3.17-2.94-4.73c-1.13-1.53-2.37-2.99-3.6-4.2 c-1.17-1.16-2.32-2.1-3.33-2.68l-0.01-0.01c-0.37-0.21-0.72-0.37-1.03-0.46l-0.02-0.01c-0.27-0.08-0.51-0.11-0.71-0.08v0 c-0.05,0.01-0.08,0.01-0.11,0.02l-0.01,0.01l0,0l0,0c-0.02,0.03-0.05,0.07-0.07,0.12c-0.01,0.02-0.03,0.05-0.05,0.09l-0.03,0.06 l0,0.02l0,0.01c-0.1,0.6,0,1.4,0.24,2.33c0.27,0.99,0.71,2.12,1.29,3.31C56.48,28.34,56.84,29.04,57.2,29.69L57.2,29.69L57.2,29.69 z M55.89,45.77L55.89,45.77L55.89,45.77L55.89,45.77L55.89,45.77L55.89,45.77L55.89,45.77z M64.84,41.09h-0.02 c-2.24,0.02-5.04,0.05-9.01,1.76c0,0.15,0,0.31,0.01,0.47c0.01,0.19,0.04,0.37,0.09,0.53l0,0c0.04,0.12,0.08,0.22,0.13,0.3 c0.04,0.06,0.08,0.11,0.13,0.13l0.08,0.04l0.01,0l0.02,0.01l0,0c0.43,0.21,0.65,0.32,0.86,0.65l0,0.01 c0.16,0.26,0.21,0.54,0.29,1.05l0,0l0.01,0.05l0,0.01h0l0.03,0.19l0,0.01c0.08,0.44,0.32,0.47,0.56,0.5l0,0v0 c1.2,0.14,1.63,0.7,1.62,1.44c0,0.66-0.39,1.43-0.84,2.12v0c-0.05,0.08-0.1,0.16-0.14,0.22c-0.04,0.07-0.09,0.14-0.13,0.2 l-0.02,0.03c-0.01,0.01-0.01,0.02-0.02,0.03c-0.52,0.74-1.05,1.11-1.59,1.21c-0.55,0.1-1.07-0.08-1.58-0.43 c-0.64-0.45-1.2-1.19-1.72-1.89l-0.08-0.11l-0.08-0.11l0,0h0l-0.14-0.19l-0.01-0.02c-0.41-0.55-0.81-1.18-1.2-1.84 c-0.37-0.62-0.75-1.3-1.14-2l-0.01,0.01c-0.08,0.05-0.15,0.1-0.21,0.14l0,0l0,0l-0.28,0.19l-0.02,0.01 c-1.16,0.76-2.18,1.45-3.74,1.29c-0.95-0.1-1.86-0.52-2.66-1.15c-0.31-0.24-0.6-0.51-0.87-0.81c-0.28-0.3-0.53-0.62-0.77-0.96 c-0.23-0.34-0.43-0.69-0.61-1.05c-0.17-0.36-0.32-0.73-0.44-1.1l0-0.01c-0.28-0.93-0.36-1.88-0.16-2.71 c0.83-3.53,8.61-7.3,11.39-16.17l0-0.01c0.13-0.42,0.25-0.8,0.38-1.16l0,0c0.12-0.35,0.25-0.66,0.39-0.92l0.01-0.01 c0.07-0.13,0.13-0.23,0.2-0.32c0.08-0.1,0.17-0.19,0.28-0.27c0.11-0.08,0.23-0.14,0.36-0.19c0.13-0.04,0.27-0.07,0.43-0.09 c0.4-0.05,0.83-0.01,1.29,0.12c0.45,0.13,0.92,0.34,1.41,0.62l0.01,0.01c1.11,0.63,2.34,1.64,3.59,2.86 c1.29,1.28,2.6,2.8,3.78,4.41c1.21,1.65,2.3,3.38,3.11,5.03c0.74,1.52,1.25,2.96,1.41,4.2c0.07,0.52,0.07,1.01,0.01,1.46 c-0.06,0.44-0.19,0.84-0.4,1.19l-0.01,0.01c-0.59,1.04-2.47,1.02-3.61,1.01C65.08,41.1,64.95,41.09,64.84,41.09L64.84,41.09 L64.84,41.09z"/></g></svg>