<?xml version="1.0" encoding="utf-8"?><svg version="1.1" id="Layer_1" xmlns="http://www.w3.org/2000/svg" xmlns:xlink="http://www.w3.org/1999/xlink" x="0px" y="0px" viewBox="0 0 102.53 122.88" style="enable-background:new 0 0 102.53 122.88" xml:space="preserve"><g><path d="M11.2,56.02c13.16,11.92,26.29,23.44,39.52,35.28l40.13-35V29.05L67.14,5.17H11.2V56.02L11.2,56.02z M28.93,45.23 c-1.83,3.65,1.29,11.27,5.46,12.24c2.16,0.66,5.09-0.8,7.06-1.46l0,0c0.38-0.09,0.85-0.09,1.13,0.09c0.38,0.19,0.66,0.47,0.85,0.85 c0,0.09,0,0.09,0.09,0.19c0.09,0.38,0.28,0.75,0.38,1.13c0.94,2.82,1.79,5.55,2.82,7.72c0.09,0.19,0.19,0.47,0.28,0.66v0.09 c0.28,0.66,0.66,1.32,1.04,1.98c0.38,0.66,0.66,1.13,1.04,1.51c0.19,0.19,0.47,0.38,0.75,0.38c0.28,0,0.66-0.19,1.22-0.66 c0.19-0.28,0.47-0.47,0.75-0.75l0,0c0.19-0.19,0.47-0.47,0.85-0.85c1.04-0.94,2.54-2.35,3.11-3.11l-0.28-0.1 c-3.2-1.04-3.01-2.73-2.82-4.23l0,0c0.09-0.47,0.09-0.94,0-1.22l0,0c0-0.09-0.09,0-0.28-0.19c-0.09-0.09-0.19-0.09-0.28-0.19 c-0.47-0.38-0.75-0.75-1.04-1.22c-0.28-0.56-0.38-1.13-0.47-1.69c-0.09-0.56,0-1.22,0.09-1.79c0.09-0.75,0.28-1.41,0.47-1.98l0,0 c0.09-0.28,0.19-0.47,0.38-0.66c0.19-0.19,0.47-0.28,0.75-0.38l0,0c6.59-1.51,9.98-0.28,13.18,0.85c0.47,0.19,1.04,0.38,1.51,0.56 c-7.9-6.53-13.76-20.05-13.65-29.32c-1.41,2.45-3.39,5.36-6.21,8.38C43.95,34.97,30.05,42.69,28.93,45.23L28.93,45.23z M64.89,45.08c1.22,1.88,2.63,3.67,4.05,5.18s2.82,2.73,4.33,3.67h0.09c0,0,0.09,0,0.19,0l0,0c0.09,0,0.19,0,0.28-0.09 c0.09,0,0.19-0.09,0.19-0.09c0.28-0.28,0.47-0.66,0.56-1.13c0.19-0.56,0.28-1.13,0.28-1.79c0.09-2.07-0.28-4.61-1.04-7.44 c-1.73-6.34-5.07-13.39-8.75-18.82c-1.69-2.54-3.48-4.71-5.08-6.12c-0.56-0.56-1.22-0.94-1.69-1.22c-0.47-0.28-0.85-0.38-1.22-0.38 h-0.09c-0.09,0.09-0.19,0.19-0.28,0.38l0,0c-0.56,1.41-0.56,3.67-0.19,6.4s1.22,5.84,2.35,9.04 C67.55,31.45,70.64,40.29,64.89,45.08L64.89,45.08z M73.18,57.13c-0.09,0-0.28,0-0.38,0c-0.09,0-0.28,0-0.38-0.09l-0.47-0.09 c-1.13-0.09-2.35-0.38-3.58-0.56h-0.09c-1.32-0.28-2.45-0.66-3.58-1.13c-2.64-1.04-5.46-2.16-10.82-1.04 c-0.09,0.28-0.09,0.47-0.09,0.75c0,0.28-0.09,0.66,0,0.94c0,0.19,0.09,0.38,0.09,0.56c0,0.09,0.09,0.19,0.09,0.19l0.09,0.09 c0.75,0.56,1.13,0.85,1.41,1.6c0.28,0.66,0.19,1.32,0.19,1.98c-0.09,0.66-0.09,1.32,0.66,1.6l0,0c0.94,0.28,1.88,0.66,2.45,1.88 c0.09,0.09,0.09,0.28,0.19,0.38l0,0c0,0.1,0,0.28,0,0.38l0,0c-0.19,1.79-2.82,4.33-4.33,5.74c-0.28,0.28-0.56,0.56-0.75,0.75 l-0.09,0.09c-0.19,0.19-0.38,0.38-0.57,0.57v0.38c-1.22,1.22-2.45,1.7-3.48,1.7c-1.13,0-2.07-0.56-2.92-1.41 c-0.56-0.56-1.04-1.32-1.51-2.07c-0.38-0.75-0.75-1.51-1.13-2.35c-1.25-2.5-2.3-5.7-3.11-8.38c-2.73,1.13-5.27,2.35-8.38,1.41 c-6.12-1.93-9.92-10.99-7.44-16.66c1.98-4.33,14.96-9.98,20.05-15.62c3.39-3.86,5.36-7.44,6.78-10.07v-0.09 c0.85-1.51,1.51-2.73,2.17-3.58c0.19-0.19,0.38-0.38,0.56-0.56c0.19-0.19,0.38-0.28,0.66-0.47c0.28,0,0.47-0.09,0.75-0.19 c0.28,0,0.56,0,0.85,0c0.75,0.09,1.51,0.28,2.35,0.66c0.85,0.38,1.6,0.94,2.45,1.69c1.79,1.6,3.77,3.86,5.65,6.59 c1.98,2.82,3.77,6.12,5.37,9.51c1.6,3.48,3.01,7.06,3.95,10.45c0.85,3.11,1.22,5.93,1.13,8.28l0,0c-0.09,1.04-0.28,1.88-0.57,2.73 c-0.28,0.85-0.66,1.51-1.22,2.16l-0.09,0.09L76,56.1c-0.38,0.28-0.75,0.47-1.13,0.66l0,0c-0.38,0.19-0.75,0.28-1.04,0.28l0,0 c-0.09,0-0.28,0-0.38,0L73.18,57.13L73.18,57.13L73.18,57.13z M96.05,52.14c0.64-0.55,1.38-0.8,2.12-0.8c0.64,0,1.22,0.19,1.8,0.51 c0.42,0.26,0.77,0.58,1.09,0.93c0.83,0.96,1.48,2.47,1.48,3.72v61.47c0,1.35-0.55,2.57-1.44,3.46c-0.9,0.9-2.12,1.44-3.46,1.44 H4.91c-1.35,0-2.56-0.54-3.46-1.44c-0.9-0.9-1.45-2.12-1.45-3.46V56.51c0-1.25,0.64-2.79,1.51-3.75c0.32-0.35,0.67-0.67,1.09-0.9 c0.54-0.32,1.12-0.51,1.76-0.51c0.58,0,1.15,0.16,1.7,0.48V2.37C6.06,1.06,7.12,0,8.44,0h60.21c0.74,0,1.41,0.32,1.83,0.87 l24.93,24.92c0.45,0.45,0.67,1.06,0.67,1.67v0.67c0,0.1,0.03,0.19,0.03,0.29c0,0.1,0,0.19-0.03,0.29v23.47L96.05,52.14L96.05,52.14 L96.05,52.14z M49.12,96.67l-10.11-9.05L4.71,117.68v0.26c0,0.03,0,0.1,0.03,0.1c0.03,0.03,0.06,0.03,0.1,0.03h92.71 c0.03,0,0.1,0,0.1-0.03c0.03-0.03,0.03-0.06,0.03-0.1v-0.16L62.91,87.3L52.2,96.64c-0.9,0.77-2.25,0.8-3.14-0.03L49.12,96.67 L49.12,96.67L49.12,96.67z M35.42,84.45L4.68,56.99v54.38L35.42,84.45L35.42,84.45L35.42,84.45z M97.72,111.49V56.99L66.57,84.19 L97.72,111.49L97.72,111.49L97.72,111.49z"/></g></svg>