<svg id="Layer_1" data-name="Layer 1" xmlns="http://www.w3.org/2000/svg" viewBox="0 0 122.88 102.08"><defs><style>.cls-1{fill-rule:evenodd;}</style></defs><title>focus-target-keyword</title><path class="cls-1" d="M66.31,0A44.56,44.56,0,0,1,103.6,68.92l19.28,21-13.3,12.15L91,81.63A44.6,44.6,0,0,1,34.8,76.05a45.12,45.12,0,0,1-5.95-7.39l9.51-1.14q1.14,1.38,2.4,2.64A36.25,36.25,0,1,0,92,18.91h0a36.27,36.27,0,0,0-57.57,8.45L24.57,29A44.87,44.87,0,0,1,34.81,13,44.35,44.35,0,0,1,66.31,0ZM40.83,38.4,7,43.1,0,52.19,9,59.1l5.23-6.83L21.73,58l5.73-7.47L34.61,56l7.23-5.15a26.24,26.24,0,0,0,8.93,12.37C62,71.87,78,70.07,86.28,59.19s6-26.7-5.32-35.34-27.18-6.84-35.52,4A24,24,0,0,0,40.83,38.4ZM67.76,29a14.49,14.49,0,0,1,12.29,12.5h4.31v4.13H80a14.51,14.51,0,0,1-12.23,12v4.56H63.63V57.7a14.48,14.48,0,0,1-12.22-12H47V41.54h4.3A14.49,14.49,0,0,1,63.63,29V25h4.12V29ZM65.69,35.7A7.67,7.67,0,1,1,58,43.37a7.67,7.67,0,0,1,7.66-7.67Zm8.37-.7a11.83,11.83,0,1,0,3.47,8.37A11.81,11.81,0,0,0,74.06,35Z"/></svg>