<svg id="Layer_1" data-name="Layer 1" xmlns="http://www.w3.org/2000/svg" viewBox="0 0 103.39 122.88"><title>funnel</title><path d="M64.57,4.51A118.49,118.49,0,0,1,76.32,6.1a11.1,11.1,0,0,0-2.54,5.44c-2.67-.46-5.5-.84-8.45-1.12a12,12,0,0,0-.76-5.91ZM21.33,1.59A9.31,9.31,0,1,1,8.4,4.11,9.32,9.32,0,0,1,21.33,1.59ZM84.75,8a5.38,5.38,0,1,1-5.38,5.38A5.38,5.38,0,0,1,84.75,8ZM53.27,1.93a7,7,0,1,1-7,7,7,7,0,0,1,7-7ZM36.51,20.06a4.42,4.42,0,1,1-4.41,4.41,4.41,4.41,0,0,1,4.41-4.41Zm61.35,15.5C89,44.21,82.62,50,78,54.93H25.36C20.82,50.06,14.64,44.08,6.27,35.71a21.49,21.49,0,0,1-3.22-4l.18.18A11.42,11.42,0,0,1,0,24.17,11.15,11.15,0,0,1,2.79,17a15.18,15.18,0,0,0,2.46,3.22,14.35,14.35,0,0,0,1.3,1.16,5.17,5.17,0,0,0-.9,2.83c0,7.95,20.62,14.39,46.05,14.39s46-6.44,46-14.39c0-1.89-1.17-3.7-3.29-5.35a11.08,11.08,0,0,0,1.43-5.46c0-.15,0-.31,0-.46,4.79,3.07,7.52,6.9,7.52,11.27a11.12,11.12,0,0,1-2.72,7.14A14,14,0,0,0,102,29.62a16.41,16.41,0,0,1-4.17,5.94ZM31.37,11.25A15.6,15.6,0,0,0,31,5.44c3.49-.53,7.2-.93,11.06-1.18A12,12,0,0,0,41.12,9a11.76,11.76,0,0,0,.06,1.2c-3.44.26-6.72.63-9.81,1.1ZM73.85,59.59c-7,8.77-8.06,12.61-8.23,33.11H37.39c.52-20.27.59-22.77-7.91-33.11ZM65.61,97.36c0,3.47,0,7.3,0,11.57a2.48,2.48,0,0,1-1.41,2.24L40.76,122.54A2.49,2.49,0,0,1,37,120.39h0c0-9.3.19-16.81.35-23Z"/></svg>