<svg id="Layer_1" data-name="Layer 1" xmlns="http://www.w3.org/2000/svg" viewBox="0 0 122.88 99.58"><defs><style>.cls-1{fill-rule:evenodd;}</style></defs><title>inbound-link</title><path class="cls-1" d="M8.45,0H99.16a8.47,8.47,0,0,1,8.44,8.45V34.92H107A24.52,24.52,0,0,0,99.9,36V26.33H8.05V81.47a2.32,2.32,0,0,0,2.34,2.34H58.21a24.93,24.93,0,0,0,1.35,8H8.45A8.47,8.47,0,0,1,0,83.33V8.45A8.47,8.47,0,0,1,8.45,0ZM44.71,46.1a4.25,4.25,0,1,1,6.06-6l11.76,12a4.23,4.23,0,0,1,0,6L51,69.79a4.25,4.25,0,1,1-6.06-6l4.49-4.57-22-.09a4.25,4.25,0,1,1,.07-8.5l21.76.08L44.71,46.1ZM94.58,59.23a3.3,3.3,0,0,1-4.67-4.65l5.88-5.89a15.87,15.87,0,0,1,22.46,22.44L112.34,77a3.3,3.3,0,0,1-4.64-4.68l5.88-5.88a9.33,9.33,0,0,0,0-13.11l-.16-.17a9.31,9.31,0,0,0-6.4-2.53,9.21,9.21,0,0,0-6.55,2.7l-5.89,5.88Zm6.6,1.7a3.3,3.3,0,0,1,4.66,4.66l-17,17a3.3,3.3,0,1,1-4.66-4.66l17-16.95ZM95.53,84.5a3.31,3.31,0,0,1,4.68,4.67L94.43,95A15.92,15.92,0,0,1,72.06,95l-.28-.29A15.89,15.89,0,0,1,72,72.5l5.77-5.78a3.3,3.3,0,0,1,4.67,4.67l-5.77,5.78a9.33,9.33,0,0,0-.17,13l.17.16a9.33,9.33,0,0,0,13.11,0l5.77-5.78Zm-4.41-75a4.17,4.17,0,1,1-4.18,4.17A4.17,4.17,0,0,1,91.12,9.5Zm-28.28,0a4.17,4.17,0,1,1-4.17,4.17A4.17,4.17,0,0,1,62.84,9.5ZM77,9.5a4.17,4.17,0,1,1-4.17,4.17A4.17,4.17,0,0,1,77,9.5Z"/></svg>