<?xml version="1.0" encoding="utf-8"?><svg version="1.1" id="Layer_1" xmlns="http://www.w3.org/2000/svg" xmlns:xlink="http://www.w3.org/1999/xlink" x="0px" y="0px" viewBox="0 0 122.88 94.35" style="enable-background:new 0 0 122.88 94.35" xml:space="preserve"><style type="text/css">.st0{fill-rule:evenodd;clip-rule:evenodd;}</style><g><path class="st0" d="M95.24,58.32c-0.88,0.26-1.26,1.17-1.24,2.2c0.01,0.47,0.09,0.95,0.24,1.43c0.15,0.47,0.37,0.92,0.65,1.3 c0.63,0.88,1.57,1.42,2.66,1.04c0.09-0.03,0.17-0.02,0.24,0.01c0.02-0.01,0.03-0.01,0.06-0.02c0.28-0.09,0.53-0.16,0.76-0.24 c0.26-0.08,0.5-0.14,0.73-0.21c0.18-0.05,0.36,0.06,0.41,0.23c0.01,0.01,0.01,0.03,0.01,0.04l0.1,0.43 c0.25,1.12,0.49,2.21,0.82,3.08c0.01,0.01,0.05,0.14,0.09,0.26c0.2,0.55,0.41,1.15,0.69,1.49c0.24,0.3,0.58,0.4,1.11-0.01 c0.1-0.09,0.2-0.18,0.3-0.26c0.32-0.27,0.63-0.54,0.74-0.94c-0.07-0.1-0.21-0.16-0.35-0.22c-0.46-0.2-0.92-0.39-0.8-1.36l0.02-0.14 c0.04-0.28,0.05-0.43,0.04-0.49c-0.01-0.03-0.08-0.1-0.22-0.22l-0.05-0.05c-0.27-0.25-0.37-0.61-0.36-0.99 c0.01-0.45,0.15-0.95,0.3-1.3c0.05-0.11,0.15-0.18,0.26-0.2c3.43-0.47,5.52,0.12,7.19,0.6c0.07,0.02,0.14,0.04,0.21,0.06 c-1.49-1.53-2.71-3.85-3.54-6.24c-0.88-2.52-1.33-5.11-1.22-6.93c-1.36,2.01-3.75,5.2-9.44,7.29c-0.01,0-0.01,0.01-0.02,0.01 L95.59,58c-0.06,0.02-0.07,0.01-0.08,0.03c-0.01,0.01,0,0.01-0.02,0.05c0,0.01,0.01-0.01-0.06,0.09 C95.38,58.24,95.32,58.28,95.24,58.32L95.24,58.32L95.24,58.32z M90.37,26.48h25.48c1.94,0,3.71,0.79,4.97,2.06 c1.28,1.28,2.06,3.04,2.06,4.97v53.82c0,1.94-0.79,3.71-2.06,4.97c-1.28,1.28-3.04,2.06-4.97,2.06H90.37 c-1.94,0-3.71-0.79-4.97-2.06c-1.28-1.28-2.06-3.04-2.06-4.97V33.5c0-1.94,0.79-3.71,2.06-4.97 C86.68,27.25,88.43,26.48,90.37,26.48L90.37,26.48L90.37,26.48z M42.38,35.41c-1.5,0.45-2.14,2-2.12,3.75 c0.01,0.8,0.16,1.63,0.42,2.44c0.26,0.81,0.63,1.57,1.1,2.22c1.08,1.5,2.67,2.41,4.54,1.77c0.15-0.04,0.29-0.03,0.42,0.02 c0.03-0.01,0.06-0.02,0.1-0.03c0.47-0.15,0.9-0.28,1.29-0.4c0.44-0.13,0.85-0.25,1.25-0.36c0.3-0.08,0.62,0.1,0.7,0.39 c0.01,0.02,0.01,0.04,0.01,0.07l0.17,0.74c0.43,1.91,0.84,3.76,1.4,5.25c0.01,0.02,0.08,0.24,0.16,0.44 c0.34,0.94,0.71,1.95,1.18,2.55c0.42,0.52,0.99,0.67,1.89-0.02c0.17-0.16,0.34-0.3,0.51-0.45c0.54-0.46,1.07-0.92,1.27-1.61 c-0.12-0.17-0.36-0.27-0.6-0.37c-0.79-0.34-1.56-0.66-1.36-2.31l0.03-0.24c0.07-0.48,0.09-0.73,0.07-0.83 c-0.01-0.06-0.13-0.17-0.37-0.38l-0.09-0.08c-0.46-0.43-0.63-1.03-0.62-1.68c0.01-0.77,0.26-1.62,0.52-2.22 c0.08-0.19,0.25-0.31,0.45-0.35c5.85-0.81,9.42,0.2,12.26,1.02c0.12,0.03,0.25,0.07,0.36,0.1c-2.54-2.62-4.61-6.57-6.03-10.63 c-1.5-4.29-2.27-8.71-2.08-11.81c-2.32,3.42-6.4,8.87-16.1,12.44c-0.01,0-0.02,0.01-0.03,0.01l-0.08,0.02 c-0.1,0.03-0.11,0.02-0.13,0.05c-0.02,0.02,0,0.02-0.03,0.08c0,0.01,0.01-0.02-0.1,0.16c-0.08,0.12-0.19,0.2-0.31,0.25L42.38,35.41 L42.38,35.41z M66.55,34.58c0,1.4-1.38,3.93-2.23,3.97c1.47,2.87,3.27,5.37,5.3,6.85c0.12,0.01,0.22,0.02,0.34,0.02 c0.2-0.01,0.39-0.06,0.61-0.19c0.46-0.47,0.75-1.2,0.91-2.12c0.46-2.84-0.47-7.3-2.03-11.59c-1.56-4.3-3.75-8.4-5.79-10.52 c-0.75-0.77-1.46-1.27-2.07-1.36c-0.16-0.02-0.25-0.03-0.29-0.01c-0.05,0.02-0.13,0.09-0.26,0.21c-0.06,0.06-0.12,0.12-0.19,0.2 c-0.01,0.02-0.01,0.03-0.02,0.06c-0.95,1.98-0.64,6.23,0.59,10.8c0.94-0.44,5.15,0.06,5.15,3.67H66.55L66.55,34.58z M69.56,46.53 c-0.12,0.02-0.25,0.01-0.37-0.06c-0.1-0.02-0.21-0.05-0.33-0.07c-0.74-0.16-1.47-0.36-2.26-0.58c-2.68-0.76-6.05-1.73-11.47-1.03 c-0.17,0.46-0.3,1.01-0.31,1.5c0,0.36,0.07,0.66,0.26,0.84l0.09,0.08c0.4,0.37,0.61,0.55,0.71,0.92c0.09,0.31,0.04,0.64-0.03,1.27 l-0.03,0.24c-0.1,0.8,0.29,0.97,0.67,1.13c0.51,0.21,1.01,0.43,1.26,1.12c0.05,0.1,0.06,0.21,0.03,0.34 c-0.22,1.17-0.95,1.8-1.68,2.41c-0.16,0.13-0.33,0.28-0.47,0.42l-0.03,0.03c-1.58,1.27-2.67,0.91-3.5-0.12 c-0.6-0.74-0.99-1.84-1.37-2.86c-0.03-0.09-0.07-0.18-0.16-0.43c-0.57-1.55-1-3.45-1.44-5.4l-0.04-0.2 c-0.21,0.07-0.44,0.12-0.65,0.19c-0.44,0.13-0.86,0.26-1.27,0.39c-0.06,0.01-0.09,0.03-0.11,0.05c-0.27,0.1-0.38,0.16-0.62,0.04 c-2.32,0.68-4.28-0.45-5.58-2.27c-0.54-0.75-0.97-1.63-1.26-2.54c-0.29-0.91-0.45-1.86-0.46-2.77c-0.02-2.17,0.8-4.1,2.72-4.77 c0.09-0.16,0.15-0.24,0.27-0.34c0.13-0.11,0.25-0.15,0.47-0.24l0.08-0.02c0.01,0,0.02-0.01,0.02-0.01 c9.97-3.66,13.79-9.37,15.96-12.63c0.61-0.91,1.09-1.63,1.57-2.11c0.24-0.24,0.42-0.38,0.66-0.47c0.25-0.09,0.51-0.1,0.85-0.04 c0.88,0.13,1.78,0.74,2.71,1.7c2.16,2.23,4.43,6.48,6.04,10.91c1.62,4.45,2.58,9.1,2.09,12.15c-0.19,1.18-0.59,2.14-1.27,2.78 c-0.02,0.02-0.04,0.04-0.08,0.06c-0.43,0.29-0.83,0.4-1.25,0.42c-0.15,0-0.29,0-0.43-0.01L69.56,46.53L69.56,46.53z M3.05,0h106.12 c1.68,0,3.05,1.37,3.05,3.05v18.44h-6.48V8.44c0-1.48-1.21-2.7-2.7-2.7H9.17v0c-1.48,0-2.7,1.21-2.7,2.7v52.53 c0,1.48,1.21,2.7,2.7,2.7H76.7V76.4H3.05C1.37,76.4,0,75.03,0,73.35V3.05C0,1.37,1.37,0,3.05,0L3.05,0L3.05,0L3.05,0z M42.27,80.61 h27.67c0.07,4.79,2.04,9.07,7.39,12.45H34.89C39.16,89.96,42.29,86.19,42.27,80.61L42.27,80.61L42.27,80.61L42.27,80.61z M56.11,66.12c2.16,0,3.92,1.75,3.92,3.92c0,2.16-1.76,3.92-3.92,3.92c-2.16,0-3.92-1.75-3.92-3.92 C52.19,67.88,53.94,66.12,56.11,66.12L56.11,66.12z M103.1,85.72c1.59,0,2.89,1.28,2.89,2.89c0,1.59-1.28,2.89-2.89,2.89 c-1.59,0-2.89-1.28-2.89-2.89C100.21,87.02,101.49,85.72,103.1,85.72L103.1,85.72z M86.3,83.52h33.61V33.25H86.3V83.52L86.3,83.52z M109.41,57.83c0,0.82-0.81,2.3-1.31,2.33c0.86,1.69,1.92,3.15,3.11,4.02c0.07,0.01,0.13,0.01,0.2,0.01 c0.12-0.01,0.23-0.03,0.36-0.11c0.27-0.28,0.44-0.7,0.53-1.24c0.27-1.67-0.28-4.28-1.19-6.79c-0.92-2.52-2.2-4.92-3.4-6.17 c-0.44-0.45-0.86-0.74-1.21-0.8c-0.09-0.01-0.14-0.02-0.17-0.01c-0.03,0.01-0.08,0.05-0.15,0.13c-0.03,0.03-0.07,0.07-0.11,0.12 c-0.01,0.01-0.01,0.02-0.01,0.03c-0.56,1.16-0.38,3.65,0.35,6.33C106.95,55.42,109.42,55.71,109.41,57.83L109.41,57.83 L109.41,57.83z M111.18,64.84c-0.07,0.01-0.14,0.01-0.22-0.03c-0.06-0.01-0.13-0.03-0.19-0.04c-0.43-0.09-0.86-0.21-1.32-0.34 c-1.57-0.45-3.55-1.01-6.73-0.61c-0.1,0.27-0.18,0.59-0.18,0.88c0,0.21,0.04,0.39,0.15,0.49l0.05,0.05 c0.24,0.22,0.36,0.32,0.42,0.54c0.05,0.18,0.03,0.38-0.02,0.74l-0.02,0.14c-0.06,0.47,0.17,0.57,0.4,0.67 c0.3,0.13,0.59,0.25,0.74,0.66c0.03,0.06,0.03,0.13,0.02,0.2c-0.13,0.68-0.56,1.05-0.99,1.42c-0.09,0.08-0.19,0.16-0.28,0.24 l-0.02,0.02c-0.93,0.74-1.57,0.53-2.05-0.07c-0.35-0.43-0.58-1.08-0.8-1.68c-0.02-0.05-0.04-0.11-0.09-0.25 c-0.34-0.91-0.59-2.02-0.84-3.17l-0.03-0.12c-0.13,0.04-0.26,0.07-0.38,0.11c-0.26,0.08-0.51,0.15-0.74,0.23 c-0.03,0.01-0.05,0.02-0.07,0.03c-0.16,0.06-0.22,0.09-0.36,0.03c-1.36,0.4-2.51-0.26-3.27-1.33c-0.32-0.44-0.57-0.95-0.74-1.49 c-0.17-0.53-0.26-1.09-0.27-1.63c-0.01-1.27,0.47-2.4,1.59-2.8c0.05-0.09,0.09-0.14,0.16-0.2c0.08-0.07,0.14-0.09,0.28-0.14 l0.05-0.01c0.01,0,0.01-0.01,0.01-0.01c5.85-2.15,8.08-5.5,9.36-7.41c0.36-0.53,0.64-0.95,0.92-1.24c0.14-0.14,0.24-0.22,0.39-0.28 c0.15-0.05,0.3-0.06,0.5-0.03c0.51,0.08,1.05,0.43,1.59,0.99c1.26,1.31,2.6,3.8,3.54,6.4c0.95,2.61,1.51,5.34,1.22,7.12 c-0.11,0.69-0.35,1.26-0.74,1.63c-0.01,0.01-0.03,0.03-0.05,0.03c-0.25,0.17-0.49,0.24-0.73,0.24 C111.34,64.86,111.25,64.86,111.18,64.84L111.18,64.84L111.18,64.84z"/></g></svg>