<svg id="Layer_1" data-name="Layer 1" xmlns="http://www.w3.org/2000/svg" viewBox="0 0 122.88 103.4"><defs><style>.cls-1{fill-rule:evenodd;}</style></defs><title>keyword</title><path class="cls-1" d="M65.58,0a45.14,45.14,0,0,1,37.77,69.81l19.53,21.28L109.41,103.4,90.57,82.68A45.15,45.15,0,0,1,33.67,77a45.79,45.79,0,0,1-6-7.48l9.64-1.16c.77.93,1.58,1.83,2.43,2.68A36.72,36.72,0,1,0,91.63,19.15h0a36.7,36.7,0,0,0-51.93,0,37.07,37.07,0,0,0-6.38,8.57l-10,1.64A45.51,45.51,0,0,1,33.68,13.2,44.91,44.91,0,0,1,65.58,0ZM41.36,39.59,7.05,44.35l-7,9.2,9.14,7,5.3-6.92L22,59.45l5.8-7.58,7.25,5.56,7.32-5.22a26.6,26.6,0,0,0,9,12.53c11.42,8.76,27.53,6.93,36-4.09s6-27-5.39-35.8-27.53-6.92-36,4.09a24.34,24.34,0,0,0-4.67,10.65Zm33.22,1.09a4.65,4.65,0,1,0,.86,6.53,4.65,4.65,0,0,0-.86-6.53Z"/></svg>