<svg xmlns="http://www.w3.org/2000/svg" shape-rendering="geometricPrecision" text-rendering="geometricPrecision" image-rendering="optimizeQuality" fill-rule="evenodd" clip-rule="evenodd" viewBox="0 0 512 403.18"><path fill-rule="nonzero" d="M352.93 85.27h61.75c4.42 0 8.01 3.59 8.01 8.01v59.53c-3.41 2.16-6.6 5.11-9.43 8.97l-6.59 8.99v-69.48h-53.74v102.27c-2.97 5.22-4.75 10.93-6.32 16.27l-1.06 3.42c-2.2 6.98-5.18 13.4-8.63 19.34V16.02H16.02v318.24c.65 9.63 3.5 16.9 8.58 21.73 5.18 4.93 13.02 7.72 23.58 8.34l236.1-.01c3.02 5.74 6.8 11.22 11.14 16.02H48.37l-1.07-.07c-14.49-.84-25.71-5.1-33.71-12.71-8.04-7.64-12.52-18.3-13.5-31.9-.06-.41-.09-.83-.09-1.26V8.01C0 3.59 3.59 0 8.01 0h336.92c4.42 0 8 3.59 8 8.01v77.26zm-75.41 30.53c5.66 0 11.27 1.04 16.81 3.13l-2.86 14.57-2.51 1.07c-2.5-1.55-4.97-2.77-7.42-3.66-2.44-.9-4.41-1.35-5.9-1.35-1.37 0-2.45.28-3.26.81-.8.54-1.2 1.25-1.2 2.15 0 1.13.61 2.1 1.83 2.9 1.22.81 3.26 1.86 6.12 3.17 3.34 1.49 6.08 2.88 8.22 4.16 2.15 1.28 4.03 3.04 5.64 5.28 1.61 2.23 2.41 4.99 2.41 8.26 0 3.64-1 6.93-3 9.88-1.99 2.95-4.84 5.29-8.53 7.02-3.7 1.73-7.99 2.59-12.87 2.59-6.08 0-12.46-1.13-19.13-3.4l2.59-15.55 1.79-1.07c2.74 2.09 5.67 3.74 8.8 4.96 3.13 1.22 5.74 1.83 7.82 1.83 1.67 0 2.88-.28 3.62-.85.75-.56 1.12-1.26 1.12-2.1 0-1.25-.64-2.31-1.92-3.17-1.28-.87-3.35-1.92-6.21-3.17-3.28-1.43-5.98-2.79-8.09-4.07-2.12-1.28-3.95-3.04-5.5-5.28-1.55-2.23-2.33-4.99-2.33-8.26 0-3.76 1.02-7.14 3.04-10.15 2.03-3.01 4.86-5.38 8.49-7.11 3.64-1.72 7.78-2.59 12.43-2.59zM109.3 155.85l.72 18.86H90.53l-16.27-30.93h-1.08l-.08 10.01.71 20.92H57.54l.9-16.98-.9-40.86h19.49L93.3 147.8h1.07l-.53-30.3 16.44-.99-.98 39.34zm54.38 4.56.98 1.25-1.07 13.05h-40.77l.9-16.98-.9-40.86h41.48l.99 1.25-1.17 13.05-14.21-.53h-9.21l-.17 8.13h8.84l9.3-.26.98 1.25-1.07 13.05-10.37-.27h-8.04l-.09 3.4.18 5h8.58l14.84-.53zm68.58 14.3h-18.95l-5.45-20.92h-1.07l-5.01 20.92h-19.04l-13.59-57.84h17.34l.9 8.94 5.63 30.93h1.07l6.71-26.37-3.04-13.5h18.06l1.25 10.73 6.08 29.14h1.07l7.06-29.86 1.61-10.01h16.45l-17.08 57.84zm44.71-120.26-.66 8.78-7.95-.36h-.72l-.3 17.02.48 12.64h-12.03l.61-11.43-.31-18.23h-.78l-8 .36-.72-.85.66-8.78h29.06l.66.85zM99.86 83.5l-.73 9.03H75.97l.61-11.43-.61-27.5h12.28l-.66 26.29.11 2.77h11.5l.66.84zm40.97 9.03h-12.22l-1.08-6.44-.06-.18-5.89-.12-4.93.24-1.03 6.5h-11.79l11.79-38.93h14.56l10.65 38.93zm-15.16-15.41-2.65-12.75h-.72l-3.37 12.75 3.37.07 3.37-.07zm47.16-22.67-.66 8.78-7.94-.36h-.72l-.3 17.02.48 12.64h-12.03l.6-11.43-.3-18.23h-.78l-8.01.36-.72-.85.66-8.78h29.06l.66.85zM207 82.9l.66.84-.72 8.79h-27.43l.6-11.43-.6-27.5h27.92l.65.85-.78 8.78-9.56-.36h-6.2l-.12 5.47h5.96l6.25-.18.67.84-.72 8.79-6.98-.19h-5.42l-.06 2.29.12 3.37h5.78l9.98-.36zm23.05-30.02c3.8 0 7.58.7 11.31 2.11l-1.93 9.8-1.69.72c-1.68-1.04-3.34-1.86-4.99-2.46-1.64-.6-2.97-.9-3.97-.9-.92 0-1.65.18-2.2.53-.54.37-.81.85-.81 1.45 0 .76.41 1.42 1.24 1.96.82.54 2.19 1.25 4.12 2.13 2.24 1 4.09 1.94 5.53 2.8 1.45.86 2.71 2.04 3.79 3.55 1.09 1.5 1.63 3.36 1.63 5.56 0 2.45-.67 4.66-2.02 6.65-1.34 1.99-3.26 3.56-5.75 4.73-2.48 1.16-5.37 1.74-8.66 1.74-4.09 0-8.38-.77-12.87-2.29l1.74-10.46 1.21-.73c1.84 1.41 3.82 2.52 5.92 3.34 2.11.82 3.86 1.24 5.27 1.24 1.12 0 1.93-.2 2.43-.58.5-.38.75-.85.75-1.41 0-.84-.43-1.56-1.29-2.14-.86-.58-2.26-1.29-4.18-2.13-2.21-.97-4.02-1.88-5.45-2.74-1.42-.86-2.65-2.05-3.69-3.55-1.05-1.5-1.57-3.36-1.57-5.56 0-2.53.68-4.81 2.04-6.83 1.37-2.03 3.27-3.62 5.72-4.79 2.45-1.16 5.24-1.74 8.37-1.74zm-38.14 268.67c-4.09 0-7.41-3.31-7.41-7.4s3.32-7.41 7.41-7.41h96.69c4.09 0 7.4 3.32 7.4 7.41s-3.31 7.4-7.4 7.4h-96.69zm-127.56-.05c-4.06 0-7.36-3.29-7.36-7.35s3.3-7.36 7.36-7.36h89.21c4.06 0 7.36 3.3 7.36 7.36 0 4.06-3.3 7.35-7.36 7.35H64.35zm127.56-43.42c-4.09 0-7.41-3.31-7.41-7.4s3.32-7.4 7.41-7.4h96.69c4.09 0 7.4 3.31 7.4 7.4s-3.31 7.4-7.4 7.4h-96.69zm-127.56-.04c-4.06 0-7.36-3.3-7.36-7.36 0-4.06 3.3-7.36 7.36-7.36h89.21c4.06 0 7.36 3.3 7.36 7.36 0 4.06-3.3 7.36-7.36 7.36H64.35zm0-43.48c-4.06 0-7.36-3.3-7.36-7.36 0-4.05 3.3-7.35 7.36-7.35h89.21c4.06 0 7.35 3.3 7.35 7.35 0 4.06-3.29 7.36-7.35 7.36H64.35zm127.56.05c-4.09 0-7.41-3.32-7.41-7.41 0-4.08 3.32-7.4 7.41-7.4h96.69c4.09 0 7.4 3.32 7.4 7.4 0 4.09-3.31 7.41-7.4 7.41h-96.69zm121.13 94.75c-.72 3.06-.52 6.4.3 9.73 2.57 10.44 12.83 24.58 24.89 25.64 7.01.6 17.14-6.67 23.69-10.82.83-.5 1.8-.7 2.7-.6 2.82.25 3.6 2.64 4.78 4.72 2.41 4.35 4.81 8.71 7.35 13 2.26 3.78 4.52 7.32 6.83 10.39l.05.08.27.37c.24.34.61.86 1 1.37l.07.09c1.4 1.92 2.85 3.91 4.35 5.7 1.44 1.72 2.88 3.21 4.25 4.19.97.67 1.95 1.01 2.91.78 2.68-.62 6.68-7.5 7.85-10.05.48-1.03.82-2.1.96-3.21-.51-.14-1.17-.22-1.83-.3l-.05-.01c-10.82-1.29-10.04-6.68-11.48-14.08-.24-1.08-.5-.82-1.74-1.42-1.84-.84-3.13-1.83-4.34-3.46-2.16-2.9-2.94-6.87-3.14-10.41-.54-9.82 1.76-9.45 9.29-12.46 10.49-4.18 19.63-6.51 27.72-7.8 8.1-1.29 15.14-1.54 21.47-1.61-13.09-8.67-26.55-22.55-37.86-38.01-11.61-15.85-21.02-33.41-25.57-48.81-3.04 8.88-7.38 19.65-14.74 31.38-8.37 13.36-47.75 46.01-49.98 55.61zm112.9-120c-4.09 5.58-12.56-.63-8.49-6.2l18.25-24.93c4.1-5.6 12.57.61 8.48 6.2l-18.24 24.93zm55.63 86.54-.1.04c-6.57 1.85-9.47-8.08-2.92-10.08l26.75-7.85c6.63-1.92 9.6 8.06 2.98 10.07l-26.71 7.82zm-7.3-26.01c-6.44 2.55-10.31-7.18-3.91-9.74l24.08-9.62c6.34-2.52 10.35 7.15 3.9 9.74l-24.07 9.62zm-11.1-22.84c-5.8 3.8-11.55-5.02-5.77-8.79 7.88-4.82 15.53-10.59 23.41-15.41 5.65-3.53 11.5 5.04 5.65 8.87l-23.29 15.33zm-17.71-20.25c-4.96 4.8-12.26-2.7-7.3-7.54l20.69-20.02c4.99-4.79 12.25 2.75 7.28 7.55l-20.67 20.01zm-45.87 43.39c4.42-1.75 8.79-2.54 13.09-2.06 12.46 1.55 21.3 11.11 19.75 23.17-.38 4.67-2.03 9.8-4.98 15.42 2.46 2.36 5.07 4.73 7.87 7.16 4.01 3.47 8.08 6.55 12.15 9.09 3.69 2.31 7.39 4.2 11.06 5.55 4.83-.97 4.28-7.54 3.83-11.42-.82-6.49-3.61-14.29-7.73-22.61-4.51-9.14-10.6-18.86-17.42-28.12-6.69-9.1-14.07-17.74-21.35-24.96-4.73-4.71-9.43-8.8-13.81-12.02-3.76-2.73-10.48-7.11-15.28-7.27-2.37-.08-2.77.91-2.94 3.19-.3 3.43.28 7.74 1.58 12.65 1.58 5.88 4.21 12.61 7.68 19.68 1.38 2.82 6.5 12.81 6.5 12.55zm37.05 67.85c-11.86.4-26.35 2.08-45.35 10.27-.03.9-.01 1.85.07 2.79.1 1.42.57 5.02 2.04 5.77.77.36 1.58.74 2.35 1.15 1.54.81 2.52 1.54 3.43 3.04l.02.04c2.06 3.32.69 10.14 5.25 10.73h.02c7.12.81 9.65 4.17 9.63 8.54-.01 5.4-6.62 17.13-11.87 20.78-1.44.99-2.89 1.61-4.34 1.87-3.26.59-6.37-.49-9.36-2.58-2.42-1.68-4.65-4.08-6.74-6.67-4.5-5.58-8.91-11.93-12.5-18-2.17-3.66-4.44-7.74-6.73-11.87l-.06.03c-1.71 1.07-3.35 2.21-5.05 3.29-6.1 3.95-11.86 7.19-20.23 6.36-16.09-1.64-29.67-18.97-32.69-33.89-.84-4.2-.93-8.44.02-12.43 4.94-20.93 51.13-43.28 67.65-95.92l.02-.08c2.08-6.65 4-16.58 12.16-17.62 5.48-.73 11.34 1.76 16.01 4.42l.08.05c6.55 3.75 13.9 9.72 21.28 17.02 7.67 7.59 15.42 16.65 22.42 26.19 7.2 9.78 13.65 20.08 18.43 29.84 4.42 9.01 7.43 17.61 8.36 24.93.38 3.11.41 6.02.02 8.69-1.19 8.49-5.16 11.78-14.1 12.81-5.8.66-14.1.26-20.24.45z"/></svg>