<svg id="Layer_1" data-name="Layer 1" xmlns="http://www.w3.org/2000/svg" viewBox="0 0 82.58 122.88"><defs><style>.cls-1{fill-rule:evenodd;}</style></defs><title>lead-generation</title><path class="cls-1" d="M41.66,95.73c8,0,14.51,2.64,14.51,5.8s-6.62,5.8-14.78,5.8-14.78-2.61-14.78-5.8S33,95.79,41,95.74ZM57.55,16.4c-.59-.94-1.7-2.22-1.7-3.33a1.78,1.78,0,0,1,1.2-1.62C57,10.52,57,9.57,57,8.63c0-.55,0-1.11,0-1.66a5.84,5.84,0,0,1,.18-1,5.9,5.9,0,0,1,2.65-3.37,8.29,8.29,0,0,1,1.44-.69c.91-.33.47-1.86,1.47-1.88,2.33-.06,6.16,2.07,7.65,3.69a5.9,5.9,0,0,1,1.53,3.84l-.09,4.08a1.35,1.35,0,0,1,1,.84c.32,1.29-1,2.89-1.64,3.91s-2.77,4-2.77,4a.85.85,0,0,0,.2.48C72,25.54,82,22.59,82,31.89H46.66c0-9.3,10-6.35,13.39-11,.17-.25.25-.38.25-.49s-2.52-3.62-2.75-4ZM35.13,87.72a2.6,2.6,0,0,1-5.2,0v-18L.78,41.17a2.59,2.59,0,0,1,1.81-4.44H80a2.6,2.6,0,0,1,1.67,4.58L52.29,69.68v18a2.6,2.6,0,0,1-5.19,0V68.59a2.63,2.63,0,0,1,.8-1.86L73.58,41.91H8.94l25.27,24.7a2.61,2.61,0,0,1,.92,2V87.72ZM11.49,16.4c-.59-.94-1.7-2.22-1.7-3.33A1.79,1.79,0,0,1,11,11.45c-.05-.93-.09-1.88-.09-2.82,0-.55,0-1.11,0-1.66a5.85,5.85,0,0,1,.19-1,5.9,5.9,0,0,1,2.65-3.37,8.19,8.19,0,0,1,1.43-.69C16.1,1.55,15.66,0,16.66,0,19-.06,22.82,2.07,24.32,3.69a6,6,0,0,1,1.53,3.84l-.1,4.08a1.31,1.31,0,0,1,1,.84c.32,1.29-1,2.89-1.64,3.91s-2.76,4-2.76,4a.82.82,0,0,0,.19.48c3.4,4.67,13.4,1.72,13.4,11H.59c0-9.3,10-6.35,13.4-11,.17-.25.24-.38.24-.49s-2.52-3.62-2.74-4Zm36.37,83.94v2.08l-1.24,0a15.19,15.19,0,0,1-.24,1.92l-2.4-.43V101.7a1,1,0,0,0-.17-.68,2,2,0,0,0-.9-.18l-.11.91a3.6,3.6,0,0,1-.91,2.31,2.67,2.67,0,0,1-1.84.63,8.22,8.22,0,0,1-2-.22,2.17,2.17,0,0,1-1-.62,3.05,3.05,0,0,1-.69-1.83l-1.57,0V99.86l1.57.06a10.87,10.87,0,0,1,.37-2.22l2.46.42a9.2,9.2,0,0,0-.34,2.53,8.28,8.28,0,0,0,.06,1h.9l.1-.9a3,3,0,0,1,1.09-2.32A3.71,3.71,0,0,1,43,98a4.6,4.6,0,0,1,2.68.64,2.59,2.59,0,0,1,.93,1.71l1.28,0ZM41.6,93.81c9.83,0,17.77,4.26,17.77,9.43s-8.06,9.43-18,9.43-18-4.23-18-9.43,8-9.4,17.78-9.43Zm17.77,19.93c0,14.22-43.08,10.7-35.21-2.7,5.09,8.9,29.37,8.89,34.45,0a5.34,5.34,0,0,1,.76,2.7Z"/></svg>