<svg id="Layer_1" data-name="Layer 1" xmlns="http://www.w3.org/2000/svg" viewBox="0 0 122.88 122.85"><defs><style>.cls-1{fill-rule:evenodd;}</style></defs><title>magnetic</title><path class="cls-1" d="M83.6,61.48h0l.42-.42a1.1,1.1,0,0,1,1.54,0L101.21,76.7a1.1,1.1,0,0,1,0,1.54L89,90.45,71.81,73.27,83.6,61.48Zm28.22,9.59a2.93,2.93,0,0,1-.86-5.8L119.52,64a2.93,2.93,0,1,1,.86,5.8l-8.56,1.27Zm-15.2-20.6a2.95,2.95,0,0,1-5.89,0v-9a2.95,2.95,0,1,1,5.89,0v9Zm10.94,7.17a2.93,2.93,0,0,1-4.18-4.11l5.9-6a2.93,2.93,0,0,1,4.18,4.11l-5.9,6ZM73.28,32.53a2.93,2.93,0,1,1-.87-5.8L81,25.46a2.93,2.93,0,1,1,.86,5.8l-8.55,1.27ZM58.08,11.92a2.95,2.95,0,1,1-5.89,0v-9a2.95,2.95,0,0,1,5.89,0v9ZM69,19.1A2.93,2.93,0,0,1,64.84,15l5.47-5.57a2.93,2.93,0,1,1,4.17,4.11L69,19.1ZM82.63,96.81,67.21,112.22A39.62,39.62,0,0,1,56.35,120a28.56,28.56,0,0,1-12.49,2.85,27.39,27.39,0,0,1-11.51-2.28c-8.75-4-19.49-15.31-25.39-22.82A32.61,32.61,0,0,1,1.2,87.47,28.64,28.64,0,0,1,.09,76.75,25,25,0,0,1,2.84,66.67a46.92,46.92,0,0,1,7.82-11L26.09,40.27,43.23,57.41,27.91,72.75q-4.56,4.57-4.61,9.63c0,6.86,10.3,17.23,17.15,17.23,3.34,0,6.59-1.56,9.67-4.64L65.45,79.63,82.63,96.81ZM32.46,33.93,44.27,22.15l.42-.42a1.1,1.1,0,0,1,1.54,0L61.79,37.28a1.08,1.08,0,0,1,0,1.53l-.41.42L49.57,51,32.46,33.93Z"/></svg>