<svg xmlns="http://www.w3.org/2000/svg" shape-rendering="geometricPrecision" text-rendering="geometricPrecision" image-rendering="optimizeQuality" fill-rule="evenodd" clip-rule="evenodd" viewBox="0 0 512 437.03"><path fill-rule="nonzero" d="M298.64 56.1c-4.02-4.02-10-4.15-14.02-.06l-18.99 18.93c-2.63 2.62-6.71 2.91-9.67.88-9.7-6.23-20.36-10.84-31.29-14.44a7.64 7.64 0 0 1-5.25-7.25V25.13c0-5.67-4.19-9.86-9.86-9.86h-36.43c-3.93 0-7.59 2.41-9.11 6.05l-.11.25c-.39 1.05-.59 2.24-.59 3.56v26.58c0 3.76-2.71 6.88-6.29 7.52-11.11 2.64-21.61 6.62-31.68 12.12a7.634 7.634 0 0 1-8.98-1.25L95.23 49.26c-3.91-4.11-9.76-3.69-13.69.17L56.1 74.97c-4.04 4.04-4.08 10.06-.06 14.01l18.93 19c2.62 2.63 2.91 6.71.88 9.67-4.61 7.16-8.41 15.07-11.49 23.01-.98 2.5-1.96 5.27-2.95 8.28a7.632 7.632 0 0 1-7.25 5.24l-29.02.01c-5.66 0-9.87 4.2-9.87 9.86v36.43c0 5.48 4.38 9.8 9.87 9.8h26.57c3.76 0 6.89 2.72 7.52 6.3 2.64 11.12 6.88 22.03 12.18 32.16 1.58 3.02.92 6.63-1.37 8.91l-20.78 20.73c-4.12 3.92-3.76 9.68.18 13.69l25.35 25.65c4.04 3.74 10.33 3.83 14.34.07l18.79-19.09c2.63-2.68 6.76-3 9.75-.93 2.23 1.44 4.61 2.83 7.12 4.18 1.03.56 2.05 1.1 3.07 1.61-.47 5.34-.35 10.99.44 17.04l-2.05-.92c-3.08-1.41-5.99-2.85-8.68-4.3l-3.04-1.69-14.87 15.09c-9.86 9.34-25.26 9.41-35.28.06l-25.8-26.09c-9.81-9.99-10.26-25.5.18-35.4l16.64-16.6-1.67-3.56c-2.58-5.71-4.91-11.71-6.76-17.7l-1.16-3.94H25.14C11.28 225.55 0 214.24 0 200.48v-36.43c0-3.43.61-6.64 1.83-9.64 2.45-6.01 7.65-11.22 13.67-13.67 3-1.22 6.21-1.83 9.64-1.83h23.6l1.42-3.74c2.8-7.23 6.01-13.93 9.79-20.69L45.34 99.83c-4.87-4.8-7.54-11-7.54-17.84 0-6.88 2.47-12.8 7.5-17.82l25.56-25.59c10.02-9.86 25.54-10.16 35.36.13l16.89 16.65 3.33-1.59c7.21-3.33 13.99-5.7 21.61-7.96V25.13C148.05 11.3 159.3 0 173.13 0h36.43c14.14 0 25.13 11.16 25.13 25.13v23.61c7.36 2.79 14.41 5.74 21.35 9.49l3.08 1.72 14.66-14.61c9.87-10.02 25.59-10.11 35.66-.04l25.59 25.56c1.7 1.73 3.12 3.59 4.26 5.58-5.18-2.69-10.27-4.88-15.25-6.45-4.6-1.45-9.42-2.5-14.41-2.94L298.64 56.1zM170.48 310.32c-1.23 5.24-.9 10.97.52 16.7 4.41 17.92 22.02 42.18 42.72 44 12.04 1.04 29.43-11.43 40.67-18.57 1.43-.87 3.08-1.18 4.64-1.04 4.83.45 6.18 4.53 8.19 8.12 4.14 7.46 8.26 14.95 12.63 22.31 5.4 9.09 14.39 22.34 21.56 30.9 2.21 2.65 7.84 9.59 12.29 8.53 4.61-1.07 11.47-12.86 13.48-17.24.82-1.78 1.42-3.61 1.64-5.52-.87-.24-2-.38-3.12-.51l-.09-.02c-18.58-2.21-17.25-11.47-19.72-24.18-.4-1.84-.84-1.4-2.98-2.43-3.16-1.44-5.37-3.13-7.45-5.93-3.71-4.99-5.04-11.8-5.38-17.87-.94-16.87 3.01-16.23 15.95-21.4C324.02 319 339.7 315 353.6 312.79c13.9-2.21 25.99-2.65 36.85-2.77-22.47-14.88-45.56-38.69-65-65.24-19.92-27.2-36.07-57.35-43.88-83.78-5.22 15.24-12.68 33.73-25.3 53.87-14.36 22.91-81.95 78.97-85.79 95.44v.01zm193.79-205.98c-7.05 9.61-21.59-1.07-14.56-10.66 10.77-13.7 20.85-28.81 31.36-42.83 7.22-9.73 21.37 1.4 14.51 10.71l-31.31 42.78zm95.47 148.55-.06.02c-11.31 3.32-16.4-13.87-5.09-17.27 15.28-4.05 30.84-9.76 46.08-13.52 11.32-3.05 16.2 13.95 4.94 17.35l-45.87 13.42zm-12.59-44.63c-11 4.24-17.55-12.27-6.71-16.7 12.04-5.02 29.54-12.9 41.5-16.58 11.04-4.27 17.55 12.35 6.62 16.72-13.83 5.42-27.57 11.23-41.41 16.56zm-18.96-39.23c-9.82 6.46-19.76-8.22-10.12-14.94 13.33-8.89 26.83-17.84 40.29-26.52 9.9-6.42 19.7 8.62 9.8 15.14l-39.97 26.32zm-30.48-34.7c-8.55 8.09-20.93-4.8-12.44-13.03l35.57-34.41c8.55-8.09 20.92 4.81 12.43 13.03l-35.56 34.41zm-78.66 74.42c7.59-3.01 15.08-4.35 22.45-3.54 21.39 2.67 36.58 19.07 33.93 39.78-.67 8.02-3.5 16.82-8.56 26.46 4.22 4.06 8.7 8.13 13.5 12.29 6.89 5.96 13.87 11.26 20.86 15.61 6.33 3.96 12.7 7.2 18.99 9.52 8.29-1.66 7.35-12.94 6.56-19.61-1.39-11.13-6.18-24.52-13.24-38.8-7.76-15.69-18.21-32.37-29.92-48.26-11.48-15.63-24.15-30.46-36.64-42.86-8.12-8.08-16.18-15.1-23.72-20.62-6.45-4.69-17.99-12.21-26.22-12.48-4.08-.15-4.76 1.55-5.04 5.48-.51 5.87.47 13.28 2.72 21.71 2.69 10.1 7.22 21.64 13.16 33.78 2.36 4.83 11.17 21.99 11.17 21.54zm63.6 116.47c-20.35.69-45.23 3.57-77.85 17.62-.04 1.55-.01 3.18.11 4.8.19 2.43.98 8.61 3.51 9.89 3.94 1.84 7.54 3.3 9.92 7.2l.03.06c3.54 5.71 1.2 17.41 9.03 18.42h.02c12.23 1.4 16.56 7.17 16.53 14.66-.01 9.29-11.35 29.42-20.36 35.67-2.48 1.71-4.98 2.76-7.47 3.21-11.38 2.08-21.13-7.82-27.62-15.88-7.74-9.57-15.28-20.47-21.46-30.9-3.73-6.28-7.62-13.27-11.56-20.38l-.1.06c-2.94 1.84-5.76 3.8-8.67 5.65-10.47 6.78-20.34 12.35-34.71 10.91-27.62-2.8-50.94-32.56-56.12-58.16-1.46-7.21-1.6-14.48.02-21.33 8.49-35.93 87.76-74.3 116.13-164.66l.04-.13c3.57-11.43 6.85-28.47 20.86-30.25 9.41-1.25 19.47 3.03 27.48 7.59l.14.09c11.26 6.44 23.86 16.68 36.53 29.21 13.17 13.02 26.47 28.57 38.49 44.94 12.36 16.8 23.43 34.49 31.63 51.24 7.58 15.47 12.76 30.21 14.34 42.78.66 5.33.72 10.35.06 14.92-2.05 14.58-8.88 20.23-24.22 22-9.95 1.12-24.19.43-34.73.77zM217.59 113.98l.05.02c10.74 4.58 20.58 11.46 28.31 20.24-2.2 5.34-4.61 10.48-7.18 15.43-6.96-9.86-16.1-16.9-27.15-21.67-8.93-3.82-18.92-5.4-28.74-4.82-13.68.81-26.56 5.89-37.11 14.64-4.48 3.72-8.44 8.09-11.83 13.16-2.23 3.34-4.22 7.01-5.94 11.01-8.43 19.87-5.97 42.85 5.94 60.64 2.26 3.37 4.82 6.5 7.67 9.37 2.87 2.85 6 5.41 9.37 7.67 2.87 1.92 5.99 3.65 9.34 5.19-3.75 3.93-7.31 7.83-10.61 11.76a82.006 82.006 0 0 1-7.2-4.31c-4.2-2.81-8.09-5.99-11.66-9.52l-.03-.03a79.171 79.171 0 0 1-9.52-11.66c-14.82-22.16-17.78-50.29-7.32-75.08l.02-.05c5.02-11.78 12.36-21.71 21.69-29.56 13.73-11.55 30.83-18.07 48.78-18.59 11.28-.32 22.62 1.73 33.12 6.16z"/></svg>