<?xml version="1.0" encoding="utf-8"?><svg version="1.1" id="Layer_1" xmlns="http://www.w3.org/2000/svg" xmlns:xlink="http://www.w3.org/1999/xlink" x="0px" y="0px" viewBox="0 0 71.58 122.88" style="enable-background:new 0 0 71.58 122.88" xml:space="preserve"><style type="text/css">.st0{fill-rule:evenodd;clip-rule:evenodd;}</style><g><path class="st0" d="M12.72,0h46.14c3.5,0,6.71,1.44,9,3.73c2.32,2.32,3.72,5.49,3.72,9v97.43c0,3.5-1.44,6.71-3.72,9 c-2.32,2.32-5.49,3.72-9,3.72l-46.14,0c-3.5,0-6.71-1.44-9-3.72c-2.32-2.32-3.72-5.49-3.72-9V12.72c0-3.5,1.44-6.71,3.72-9 C6.05,1.4,9.22,0,12.72,0L12.72,0z M10.15,73.57H61c0.67,0,1.21,0.54,1.21,1.21v20.17c0,0.66-0.54,1.21-1.21,1.21H10.15 c-0.66,0-1.21,0.19-1.21-0.47V75.51C8.94,74.85,9.49,73.57,10.15,73.57L10.15,73.57z M25.7,88.87h-4.18l-0.6,1.97h-3.77l4.5-11.95 h4.04l4.48,11.95h-3.87L25.7,88.87L25.7,88.87z M24.91,86.28l-1.3-4.29l-1.31,4.29H24.91L24.91,86.28z M31.13,78.89h5.49 c1.08,0,1.96,0.15,2.62,0.44c0.67,0.29,1.22,0.71,1.65,1.26c0.44,0.55,0.75,1.19,0.94,1.92c0.2,0.73,0.3,1.5,0.3,2.31 c0,1.28-0.15,2.27-0.44,2.97c-0.29,0.7-0.69,1.29-1.21,1.77c-0.52,0.48-1.07,0.79-1.66,0.95c-0.81,0.22-1.54,0.33-2.2,0.33h-5.49 V78.89L31.13,78.89z M34.82,81.59v6.53h0.91c0.77,0,1.32-0.08,1.65-0.26c0.33-0.17,0.58-0.47,0.77-0.9 c0.19-0.43,0.28-1.12,0.28-2.07c0-1.27-0.21-2.13-0.62-2.6c-0.41-0.47-1.1-0.7-2.06-0.7H34.82L34.82,81.59z M43.18,86.88l3.5-0.22 c0.07,0.57,0.23,1,0.46,1.3c0.38,0.48,0.92,0.72,1.63,0.72c0.53,0,0.93-0.12,1.22-0.37c0.29-0.25,0.43-0.53,0.43-0.86 c0-0.31-0.13-0.59-0.4-0.83c-0.27-0.24-0.9-0.47-1.89-0.69c-1.62-0.36-2.77-0.85-3.46-1.45c-0.69-0.6-1.04-1.37-1.04-2.3 c0-0.61,0.18-1.19,0.53-1.74c0.36-0.55,0.89-0.98,1.6-1.29c0.71-0.31,1.69-0.47,2.94-0.47c1.53,0,2.69,0.28,3.49,0.85 c0.8,0.57,1.28,1.47,1.43,2.71l-3.47,0.21c-0.09-0.54-0.29-0.94-0.58-1.18c-0.3-0.25-0.71-0.37-1.23-0.37 c-0.43,0-0.75,0.09-0.97,0.27c-0.22,0.18-0.33,0.4-0.33,0.66c0,0.19,0.09,0.36,0.26,0.51c0.17,0.16,0.58,0.3,1.23,0.44 c1.61,0.34,2.77,0.7,3.46,1.06c0.7,0.36,1.21,0.8,1.52,1.32c0.32,0.53,0.48,1.12,0.48,1.77c0,0.77-0.21,1.47-0.63,2.12 c-0.42,0.65-1.02,1.14-1.78,1.47c-0.76,0.33-1.72,0.5-2.87,0.5c-2.03,0-3.44-0.39-4.22-1.17C43.72,89.08,43.28,88.09,43.18,86.88 L43.18,86.88z M16.89,52.29c-0.15,0.63-0.08,1.36,0.15,2.11c0.1,0.32,0.23,0.65,0.38,0.96c0.16,0.32,0.34,0.64,0.55,0.95 c0.21,0.3,0.44,0.6,0.68,0.86c0.24,0.26,0.5,0.5,0.76,0.7l0.01,0.01c0.65,0.5,1.37,0.84,2.09,0.9c0.95,0.08,2.34-0.68,3.17-1.23 l0.18-0.12l0.02-0.01c0.32-0.21,0.65-0.41,0.98-0.62c0.19-0.11,0.4-0.14,0.6-0.09c0.19,0.04,0.37,0.16,0.48,0.33 c0.03,0.04,0.05,0.08,0.06,0.12l0.32,0.57l0.01,0.02c0.41,0.75,0.82,1.48,1.25,2.21c0.41,0.7,0.83,1.35,1.25,1.91l0.01,0.02 l0.05,0.07c0.04,0.06,0.11,0.16,0.18,0.25l0.01,0.02c0.26,0.35,0.53,0.72,0.8,1.05c0.26,0.32,0.53,0.59,0.78,0.77l0,0 c0.18,0.12,0.36,0.19,0.53,0.14c0.2-0.05,0.42-0.22,0.67-0.55c0.05-0.09,0.11-0.18,0.16-0.26l0.16-0.26l0.01-0.01 c0.16-0.25,0.32-0.5,0.44-0.76c0.09-0.19,0.15-0.39,0.18-0.59c-0.09-0.03-0.21-0.04-0.34-0.05l-0.01,0c-0.87-0.1-1.72-0.21-2-1.89 l0-0.01h0l-0.03-0.21l0,0c-0.03-0.22-0.06-0.38-0.08-0.48c-0.01-0.07-0.03-0.12-0.03-0.14l0,0.01c0,0.01,0,0.01,0,0.01l0,0l0,0 c-0.07-0.04-0.16-0.08-0.28-0.14l-0.1-0.04l-0.01,0v0c-0.28-0.14-0.51-0.34-0.69-0.59c-0.19-0.26-0.33-0.56-0.42-0.89h0 c-0.09-0.32-0.14-0.68-0.16-1.02c-0.02-0.41-0.01-0.8,0.03-1.13l0-0.02c0.02-0.14,0.07-0.26,0.14-0.37l0.02-0.02 c0.08-0.1,0.18-0.19,0.3-0.24c0.01,0,0.02-0.01,0.03-0.01c2.43-1.09,4.49-1.65,6.27-1.94c1.49-0.24,2.78-0.29,3.94-0.3 c-2.41-1.59-4.88-4.14-6.96-6.98c-2.13-2.91-3.86-6.13-4.7-8.96c-0.56,1.63-1.35,3.61-2.7,5.77 C24.53,44.53,17.31,50.53,16.89,52.29L16.89,52.29z M37.72,29.87c-0.4-0.23-0.54-0.74-0.3-1.14c0.23-0.4,0.74-0.54,1.14-0.3 c2.23,1.29,5.07,4.03,7.47,7.17c2.13,2.81,3.93,5.96,4.64,8.74c0.11,0.45-0.16,0.91-0.61,1.02c-0.45,0.11-0.91-0.16-1.02-0.61 c-0.65-2.56-2.34-5.51-4.34-8.15C42.43,33.62,39.78,31.06,37.72,29.87L37.72,29.87z M52.27,28.02c-0.31-0.34-0.29-0.87,0.05-1.18 c0.34-0.31,0.87-0.29,1.18,0.05c0.63,0.68,1.26,1.41,1.86,2.17c0.59,0.74,1.16,1.51,1.7,2.29c0.26,0.38,0.16,0.9-0.22,1.16 c-0.38,0.26-0.9,0.16-1.16-0.22c-0.51-0.75-1.06-1.48-1.62-2.19C53.47,29.37,52.87,28.67,52.27,28.02L52.27,28.02z M45.2,28.83 c-0.35-0.31-0.38-0.83-0.07-1.18c0.31-0.35,0.83-0.38,1.18-0.07c1.5,1.33,3.08,3.03,4.51,4.89c1.35,1.74,2.58,3.63,3.5,5.47 c0.21,0.41,0.04,0.92-0.37,1.12c-0.41,0.21-0.92,0.04-1.12-0.37c-0.87-1.74-2.04-3.53-3.33-5.2C48.12,31.71,46.62,30.09,45.2,28.83 L45.2,28.83z M32.79,41.41c0.81-0.32,1.61-0.47,2.4-0.38c2.21,0.24,3.82,1.98,3.63,4.26c-0.07,0.86-0.37,1.8-0.91,2.83 c0.45,0.43,0.93,0.87,1.45,1.31c0.74,0.64,1.49,1.2,2.23,1.67c0.68,0.42,1.36,0.77,2.03,1.02c0.07-0.01,0.13-0.03,0.19-0.04 c0.06-0.02,0.12-0.05,0.17-0.08c0.05-0.03,0.1-0.07,0.14-0.12c0.11-0.22,0.18-0.48,0.22-0.78c0.04-0.32,0.03-0.68-0.02-1.08h0 c-0.15-1.19-0.66-2.62-1.42-4.15c-0.83-1.68-1.95-3.46-3.21-5.16c-1.23-1.67-2.59-3.26-3.92-4.58c-1.28-1.26-2.53-2.29-3.63-2.92 l-0.01-0.01c-0.41-0.23-0.78-0.4-1.12-0.5l-0.02-0.01c-0.3-0.09-0.56-0.12-0.77-0.09l0,0c-0.05,0.01-0.09,0.01-0.12,0.02 l-0.01,0.01l0,0l0,0c-0.02,0.03-0.05,0.08-0.08,0.13c-0.01,0.02-0.03,0.05-0.05,0.1l-0.03,0.06l0,0.03l0,0.01 c-0.11,0.66-0.01,1.53,0.27,2.54c0.29,1.08,0.77,2.31,1.41,3.61C32,39.93,32.39,40.7,32.79,41.41L32.79,41.41z M31.36,58.94 L31.36,58.94L31.36,58.94L31.36,58.94L31.36,58.94L31.36,58.94z M41.12,53.85L41.12,53.85H41.1c-2.44,0.02-5.5,0.05-9.83,1.92 c0,0.17,0,0.34,0.01,0.51c0.02,0.2,0.05,0.4,0.09,0.58h0c0.04,0.13,0.08,0.24,0.14,0.33c0.04,0.07,0.09,0.12,0.14,0.15l0.09,0.04 l0.01,0l0.02,0.01l0,0c0.47,0.23,0.71,0.35,0.94,0.71l0,0.01c0.18,0.29,0.23,0.59,0.32,1.15h0l0.01,0.05l0,0.01h0l0.03,0.21l0,0.01 c0.08,0.48,0.35,0.51,0.61,0.54l0,0v0c1.31,0.15,1.77,0.77,1.77,1.57c0,0.72-0.42,1.56-0.92,2.31v0c-0.06,0.09-0.11,0.18-0.15,0.24 c-0.05,0.07-0.09,0.15-0.14,0.22l-0.02,0.04c-0.01,0.01-0.01,0.02-0.02,0.03c-0.57,0.81-1.15,1.21-1.73,1.32 c-0.6,0.11-1.17-0.09-1.72-0.47c-0.7-0.49-1.31-1.29-1.88-2.06l-0.09-0.12l-0.09-0.12l0,0v0l-0.16-0.21l-0.01-0.02 c-0.45-0.6-0.88-1.28-1.31-2c-0.4-0.67-0.82-1.42-1.24-2.18l-0.01,0.01c-0.08,0.05-0.17,0.11-0.23,0.15l0,0l0,0l-0.31,0.2L25.42,59 c-1.26,0.83-2.38,1.58-4.08,1.41c-1.03-0.1-2.03-0.57-2.91-1.25c-0.34-0.26-0.66-0.56-0.95-0.88c-0.3-0.33-0.58-0.68-0.83-1.05 c-0.25-0.37-0.47-0.75-0.66-1.14c-0.19-0.39-0.35-0.8-0.48-1.2l0-0.01c-0.31-1.02-0.39-2.05-0.18-2.96 c0.91-3.84,9.39-7.96,12.42-17.63l0-0.01c0.14-0.46,0.27-0.88,0.41-1.26l0,0c0.14-0.38,0.27-0.71,0.43-1l0.01-0.02 c0.08-0.14,0.15-0.25,0.22-0.35c0.09-0.11,0.18-0.21,0.3-0.3c0.12-0.09,0.25-0.15,0.39-0.21c0.14-0.05,0.29-0.08,0.47-0.1v0 c0.43-0.06,0.91-0.01,1.4,0.14c0.49,0.14,1,0.37,1.54,0.67l0.02,0.01c1.21,0.69,2.55,1.78,3.91,3.12c1.41,1.39,2.83,3.06,4.12,4.81 c1.32,1.8,2.51,3.69,3.39,5.48c0.81,1.66,1.37,3.23,1.54,4.58c0.07,0.57,0.08,1.11,0.01,1.6c-0.07,0.48-0.21,0.92-0.43,1.3 l-0.01,0.01c-0.64,1.13-2.69,1.11-3.93,1.1C41.38,53.85,41.24,53.85,41.12,53.85L41.12,53.85z M35.77,107.24 c2.88,0,5.24,2.32,5.24,5.24c0,2.88-2.32,5.24-5.24,5.24c-2.88,0-5.24-2.32-5.24-5.24C30.54,109.6,32.86,107.24,35.77,107.24 L35.77,107.24z M3.61,103.26h64.32V14.57H3.61V103.26L3.61,103.26z"/></g></svg>