<svg id="Layer_1" data-name="Layer 1" xmlns="http://www.w3.org/2000/svg" viewBox="0 0 91.23 122.88"><defs><style>.cls-1{fill-rule:evenodd;}</style></defs><title>mobile-marketing</title><path class="cls-1" d="M55.91,24.57A12,12,0,1,1,55,44.25l-4.52,4.89a1.53,1.53,0,1,1-2.25-2.08l4.59-5A10.23,10.23,0,0,1,52.05,41a12,12,0,0,1,3.86-16.46ZM13.28,0H57.41A13.28,13.28,0,0,1,70.68,13.28v6a17.57,17.57,0,0,0-4.47-1.71l-.12,0V13.15H4.57v91.29H66.09V73.61a18.1,18.1,0,0,0,4.59,3.27V109.6a13.28,13.28,0,0,1-13.27,13.28H13.28A13.28,13.28,0,0,1,0,109.6V13.26A13.25,13.25,0,0,1,13.28,0Zm22,108.6a5.46,5.46,0,1,1-5.46,5.45,5.44,5.44,0,0,1,5.46-5.45Zm35-57.11A12.46,12.46,0,1,1,67,64.76l-6.83,1.61a1.54,1.54,0,1,1-.7-3l6.88-1.62a12.45,12.45,0,0,1,4-10.27ZM15.23,76.81a5.84,5.84,0,0,0,.21,3A10.35,10.35,0,0,0,16,81.24a11.82,11.82,0,0,0,.79,1.37,10,10,0,0,0,1,1.24,9.5,9.5,0,0,0,1.1,1h0a5.87,5.87,0,0,0,3,1.3c1.37.12,3.38-1,4.58-1.78l.27-.18,0,0,1.41-.89a1.22,1.22,0,0,1,.87-.14,1.13,1.13,0,0,1,.69.48.35.35,0,0,1,.09.17l.46.82,0,0c.59,1.08,1.18,2.14,1.8,3.18a32.24,32.24,0,0,0,1.81,2.76l0,0,.07.1c.06.09.16.22.27.36v0c.38.51.76,1,1.16,1.51a5.85,5.85,0,0,0,1.13,1.11h0a1,1,0,0,0,.77.21,1.9,1.9,0,0,0,1-.8c.07-.13.15-.25.23-.38l.24-.37h0a10.14,10.14,0,0,0,.64-1.1,2.92,2.92,0,0,0,.25-.86l-.48-.08h0c-1.25-.15-2.48-.29-2.88-2.72h0l0-.3c0-.32-.09-.55-.11-.7s0-.17,0-.2h0l-.4-.2-.13-.06h0a2.85,2.85,0,0,1-1-.85,3.92,3.92,0,0,1-.6-1.29h0a7,7,0,0,1-.23-1.47,9.49,9.49,0,0,1,0-1.63v0a1.23,1.23,0,0,1,.21-.53l0,0a1.2,1.2,0,0,1,.44-.36h0a35.2,35.2,0,0,1,9-2.8,38.06,38.06,0,0,1,5.69-.43A42.44,42.44,0,0,1,39.15,66.67a44.59,44.59,0,0,1-6.78-12.93,39.94,39.94,0,0,1-3.9,8.32c-2.22,3.54-12.65,12.2-13.24,14.75Zm22.93-15.7a7.1,7.1,0,0,1,3.47-.55,5.64,5.64,0,0,1,5.24,6.14,10.84,10.84,0,0,1-1.32,4.09c.65.62,1.35,1.25,2.09,1.89a25.44,25.44,0,0,0,3.22,2.41,16.14,16.14,0,0,0,2.94,1.47l.27-.06a1.08,1.08,0,0,0,.24-.12,1.12,1.12,0,0,0,.21-.18,3.34,3.34,0,0,0,.31-1.12,7.38,7.38,0,0,0,0-1.55,20.08,20.08,0,0,0-2.05-6,51.11,51.11,0,0,0-4.63-7.45,57.52,57.52,0,0,0-5.66-6.62,27.15,27.15,0,0,0-5.24-4.21h0a7.86,7.86,0,0,0-1.62-.72h0a2.7,2.7,0,0,0-1.11-.14h0l-.17,0,0,0h0l-.11.18s0,.08-.07.14l0,.09v0h0a9.35,9.35,0,0,0,.39,3.67,28.69,28.69,0,0,0,2,5.21c.59,1.2,1.16,2.3,1.73,3.33ZM36.1,86.4Zm14.09-7.35h0A32.7,32.7,0,0,0,36,81.82c0,.24,0,.49,0,.74a4.46,4.46,0,0,0,.14.84h0a1.78,1.78,0,0,0,.2.48.58.58,0,0,0,.2.21l.14.06h0a2.7,2.7,0,0,1,1.36,1h0a4.21,4.21,0,0,1,.46,1.66h0v.07h0l0,.3v0c.12.68.5.73.88.78h0c1.89.22,2.56,1.11,2.56,2.26a6.76,6.76,0,0,1-1.32,3.34h0l-.23.35-.19.32,0,.05,0,0a4.07,4.07,0,0,1-2.5,1.9,3.26,3.26,0,0,1-2.48-.68,13.67,13.67,0,0,1-2.71-3l-.13-.18-.13-.17h0l-.22-.3,0,0a31.42,31.42,0,0,1-1.89-2.89c-.58-1-1.18-2-1.79-3.15h0l-.33.22h0l-.44.3h0c-1.82,1.2-3.42,2.28-5.88,2a8.3,8.3,0,0,1-4.2-1.82,10.89,10.89,0,0,1-1.37-1.26,13.67,13.67,0,0,1-1.21-1.52,15,15,0,0,1-.95-1.65,11.6,11.6,0,0,1-.68-1.74v0A8.27,8.27,0,0,1,13,76.25c1.31-5.54,13.55-11.48,17.92-25.44v0c.21-.66.39-1.26.59-1.81h0a8.65,8.65,0,0,1,.62-1.45v0a3.78,3.78,0,0,1,.32-.51,2,2,0,0,1,.44-.43,1.82,1.82,0,0,1,.57-.3,2.89,2.89,0,0,1,.67-.15,5.13,5.13,0,0,1,2,.19,10.79,10.79,0,0,1,2.22,1h0A29.48,29.48,0,0,1,44,51.81,59.64,59.64,0,0,1,50,58.75a53,53,0,0,1,4.89,7.91,21.86,21.86,0,0,1,2.21,6.6,8.54,8.54,0,0,1,0,2.31,5.1,5.1,0,0,1-.63,1.88v0c-.92,1.63-3.88,1.6-5.68,1.58ZM81,56.25l2.91-.66a1.66,1.66,0,0,1,2,1.24l.65,2.85a1.67,1.67,0,0,1-1.25,2L84,61.94a3.5,3.5,0,0,0,1.49,1.69,5.3,5.3,0,0,1-3.4-1.26l-.21.05-.27,0a1.93,1.93,0,0,0,.49-1.58l-.27-1.19-.24-1.08-.4-1.77a2.34,2.34,0,0,0-.23-.59Zm-8.2.54,4.51-1h0A2.3,2.3,0,0,1,80,57.49h0l.73,3.22h0a2.09,2.09,0,0,1-.7,1.86,3.72,3.72,0,0,1-1.71,1h0a6.07,6.07,0,0,1-1.13,1.61,6.85,6.85,0,0,1-1.83,1.35h0a.4.4,0,0,1-.43,0,.42.42,0,0,1-.1-.58,2.83,2.83,0,0,0,.5-1.08,4.17,4.17,0,0,0,.1-.6l-.88.2h0a2.28,2.28,0,0,1-2.74-1.72h0L71,59.53h0a2.3,2.3,0,0,1,1.72-2.74ZM59.07,34.37,62,31.06a1.62,1.62,0,0,1-.19-.37h0a2.28,2.28,0,1,1,1.58,1.36L60.3,35.53a1.17,1.17,0,0,1,.05.11l.07.19,4.26.31a2.29,2.29,0,0,1,4.19.1A2.28,2.28,0,0,1,64.64,38l0-.14-4.31-.31a2.28,2.28,0,1,1-1.21-3.14Z"/></svg>