<?xml version="1.0" encoding="utf-8"?><svg version="1.1" id="Layer_1" xmlns="http://www.w3.org/2000/svg" xmlns:xlink="http://www.w3.org/1999/xlink" x="0px" y="0px" viewBox="0 0 122.88 101.16" style="enable-background:new 0 0 122.88 101.16" xml:space="preserve"><style type="text/css">.st0{fill-rule:evenodd;clip-rule:evenodd;}</style><g><path class="st0" d="M35.34,16.5h72.75v30.73H35.34V16.5L35.34,16.5z M56.82,37.15h-5.67l-0.81,2.82h-5.11l6.1-17.13h5.48 l6.07,17.13h-5.24L56.82,37.15L56.82,37.15z M55.76,33.44L54,27.29l-1.78,6.16H55.76L55.76,33.44z M65.32,22.85h7.44 c1.46,0,2.65,0.21,3.55,0.63c0.9,0.42,1.65,1.02,2.24,1.81c0.59,0.79,1.01,1.7,1.28,2.75c0.27,1.04,0.4,2.15,0.4,3.32 c0,1.83-0.2,3.25-0.59,4.26c-0.39,1.01-0.94,1.85-1.64,2.54c-0.7,0.68-1.45,1.14-2.26,1.36c-1.1,0.31-2.09,0.47-2.98,0.47h-7.44 V22.85L65.32,22.85z M70.32,26.72v9.35h1.23c1.05,0,1.8-0.12,2.24-0.37c0.44-0.25,0.79-0.67,1.04-1.28 c0.25-0.61,0.38-1.6,0.38-2.97c0-1.81-0.28-3.05-0.84-3.72s-1.49-1-2.79-1H70.32L70.32,26.72z M82.79,34.31l4.75-0.31 c0.1,0.81,0.31,1.44,0.63,1.86c0.52,0.69,1.25,1.04,2.21,1.04c0.71,0,1.26-0.18,1.65-0.53c0.39-0.35,0.58-0.77,0.58-1.23 c0-0.44-0.18-0.84-0.55-1.19c-0.37-0.35-1.22-0.68-2.56-0.99c-2.19-0.52-3.76-1.21-4.69-2.08c-0.94-0.86-1.41-1.96-1.41-3.3 c0-0.88,0.24-1.71,0.72-2.49c0.48-0.79,1.21-1.4,2.18-1.85c0.97-0.45,2.3-0.67,3.98-0.67c2.07,0,3.65,0.41,4.73,1.22 c1.09,0.81,1.73,2.11,1.94,3.89l-4.71,0.3c-0.12-0.78-0.39-1.34-0.79-1.69c-0.4-0.35-0.96-0.53-1.66-0.53 c-0.58,0-1.02,0.13-1.32,0.39c-0.29,0.26-0.44,0.58-0.44,0.95c0,0.27,0.12,0.51,0.36,0.73c0.23,0.23,0.79,0.43,1.67,0.63 c2.19,0.5,3.75,1,4.7,1.51c0.95,0.51,1.64,1.14,2.07,1.9c0.43,0.75,0.64,1.6,0.64,2.54c0,1.1-0.29,2.11-0.86,3.04 c-0.58,0.92-1.38,1.63-2.41,2.11c-1.03,0.48-2.33,0.72-3.9,0.72c-2.75,0-4.66-0.56-5.72-1.68C83.53,37.46,82.93,36.04,82.79,34.31 L82.79,34.31z M23.42,91.7c-0.67,2.24-1.63,4.05-2.8,5.46h88.47l0.04,0c3.19-0.18,5.57-1.03,7.16-2.54 c1.56-1.48,2.43-3.69,2.62-6.62V3.97H24.36v13.58v66.48C24.36,87.43,24.4,88.42,23.42,91.7L23.42,91.7z M13.15,101.13 c-0.45,0.03-0.91,0.03-1.36,0.01c-1.82-0.11-3.61-0.67-5.23-1.62c-3.55-2.09-6.29-6.09-6.54-11.32C0.01,88.12,0,88.03,0,87.95 v-70.4c0-1.1,0.89-1.98,1.98-1.98H20.4V1.98c0-1.1,0.89-1.98,1.98-1.98h98.52c1.1,0,1.98,0.89,1.98,1.98v86.07 c0,0.1-0.01,0.21-0.02,0.31c-0.27,3.9-1.55,6.95-3.84,9.13c-2.28,2.17-5.5,3.38-9.67,3.62c-0.08,0.01-0.17,0.02-0.26,0.02H13.15 L13.15,101.13z M12.05,97.19c0.1-0.02,0.21-0.03,0.32-0.03h0.72c0.79-0.08,1.56-0.3,2.28-0.68c4.41-2.31,5.02-7.95,5.02-12.42 V19.53H3.97v68.41c0,0.02,0,0.05,0,0.07c0.19,3.76,2.12,6.62,4.61,8.09c1.08,0.64,2.26,1.01,3.43,1.08L12.05,97.19L12.05,97.19z M35.8,60.85c-1.1,0-1.98-0.89-1.98-1.98c0-1.1,0.89-1.98,1.98-1.98h30.26c1.1,0,1.98,0.89,1.98,1.98c0,1.1-0.89,1.98-1.98,1.98 H35.8L35.8,60.85z M74.73,60.85c-1.1,0-1.99-0.89-1.99-1.99s0.89-1.99,1.99-1.99h32.63c1.1,0,1.99,0.89,1.99,1.99 s-0.89,1.99-1.99,1.99H74.73L74.73,60.85z M74.73,72.36c-1.1,0-1.99-0.89-1.99-1.99c0-1.1,0.89-1.99,1.99-1.99h32.63 c1.1,0,1.99,0.89,1.99,1.99c0,1.1-0.89,1.99-1.99,1.99H74.73L74.73,72.36z M74.73,83.87c-1.1,0-1.99-0.89-1.99-1.99 c0-1.1,0.89-1.99,1.99-1.99h32.63c1.1,0,1.99,0.89,1.99,1.99c0,1.1-0.89,1.99-1.99,1.99H74.73L74.73,83.87z M35.8,83.87 c-1.1,0-1.98-0.89-1.98-1.98c0-1.1,0.89-1.98,1.98-1.98h30.26c1.1,0,1.98,0.89,1.98,1.98c0,1.1-0.89,1.98-1.98,1.98H35.8 L35.8,83.87z M36.76,72.36c-1.1,0-1.98-0.89-1.98-1.98c0-1.1,0.89-1.98,1.98-1.98h30.26c1.1,0,1.98,0.89,1.98,1.98 c0,1.1-0.89,1.98-1.98,1.98H36.76L36.76,72.36z"/></g></svg>