<svg id="Layer_1" data-name="Layer 1" xmlns="http://www.w3.org/2000/svg" viewBox="0 0 122.88 69.49"><defs><style>.cls-1{fill-rule:evenodd;}</style></defs><title>online-marketing</title><path class="cls-1" d="M41.6,43.76a3.86,3.86,0,0,0,.14,1.94,5.43,5.43,0,0,0,.36.88,7,7,0,0,0,.5.87,6.82,6.82,0,0,0,.63.79,4.66,4.66,0,0,0,.7.64h0a3.8,3.8,0,0,0,1.92.83,5.7,5.7,0,0,0,2.91-1.13l.17-.12h0l.89-.57a.71.71,0,0,1,.55-.08.73.73,0,0,1,.45.3.27.27,0,0,1,0,.11l.29.52h0c.38.69.76,1.36,1.15,2s.76,1.23,1.15,1.75h0l0,.06a2.21,2.21,0,0,0,.17.23v0c.23.32.48.66.73,1a3.89,3.89,0,0,0,.72.7h0a.58.58,0,0,0,.49.13,1.16,1.16,0,0,0,.61-.5l.14-.25.16-.23h0A5.55,5.55,0,0,0,57,53a1.68,1.68,0,0,0,.16-.54,1.44,1.44,0,0,0-.31,0h0c-.79-.1-1.57-.19-1.83-1.73h0l0-.19c0-.21,0-.35-.07-.44a.66.66,0,0,1,0-.13h0l-.25-.12-.09,0h0a1.84,1.84,0,0,1-.64-.53,2.57,2.57,0,0,1-.38-.82h0a4.85,4.85,0,0,1-.15-.94,7,7,0,0,1,0-1h0a.67.67,0,0,1,.13-.34v0a.76.76,0,0,1,.28-.22h0A23,23,0,0,1,59.58,44a24.6,24.6,0,0,1,3.61-.27,26.88,26.88,0,0,1-6.38-6.4A28.24,28.24,0,0,1,52.5,29.1,24.75,24.75,0,0,1,50,34.39c-1.41,2.25-8,7.76-8.42,9.37ZM76.84,27.94a7.55,7.55,0,1,1-2,8.09l-4.69,1.1a1,1,0,0,1-.45-1.9l4.73-1.11a7.52,7.52,0,0,1,2.4-6.18Zm6.4,3,1.67-.38a1,1,0,0,1,1.14.72L86.42,33a1,1,0,0,1-.72,1.14l-.72.16a2.06,2.06,0,0,0,.86,1,3.06,3.06,0,0,1-2-.73l-.13,0-.15,0a1.12,1.12,0,0,0,.28-.91L83.74,33l-.14-.62-.23-1a2,2,0,0,0-.13-.34Zm-4.71.32,2.59-.59h0a1.31,1.31,0,0,1,1.57,1h0l.42,1.85h0a1.21,1.21,0,0,1-.4,1.07,2.1,2.1,0,0,1-1,.59h0a4,4,0,0,1-.65.93,3.86,3.86,0,0,1-1.06.77h0a.23.23,0,0,1-.24,0,.24.24,0,0,1-.06-.34A1.74,1.74,0,0,0,80,36a2,2,0,0,0,0-.34l-.5.11h0a1.31,1.31,0,0,1-1.57-1h0l-.42-1.85h0a1.31,1.31,0,0,1,1-1.57ZM67.64,10.86a7.25,7.25,0,1,1-.54,12L64,26.18a1,1,0,1,1-1.43-1.32l3.15-3.41a6.42,6.42,0,0,1-.42-.6,7.25,7.25,0,0,1,2.34-10Zm1.86,6.38,1.77-2a.94.94,0,0,1-.12-.22h0a1.39,1.39,0,0,1,.76-1.8,1.38,1.38,0,0,1,1,2.55,1.39,1.39,0,0,1-.85.07l-1.86,2.1,0,.06,0,.12,2.58.19a1.35,1.35,0,0,1,.73-.7,1.38,1.38,0,1,1-.76,1.79l0-.08-2.61-.19a1.35,1.35,0,0,1-.71.66,1.37,1.37,0,1,1-1-2.54,1.41,1.41,0,0,1,1,0ZM18.1,4.29V60.82h86.42V4.29ZM106.64,0a2.18,2.18,0,0,1,2.17,2.17V62.31a2.17,2.17,0,0,1-1.63,2.1h13.16a2.54,2.54,0,0,1,0,5.08H2.54a2.54,2.54,0,0,1,0-5.08H15.13a2.17,2.17,0,0,1-1.63-2.1V2.17A2.18,2.18,0,0,1,15.67,0ZM57.87,65.36H65a1.22,1.22,0,0,1,0,2.44H57.87a1.22,1.22,0,1,1,0-2.44ZM56.18,33.79a4.51,4.51,0,0,1,2.2-.35,3.58,3.58,0,0,1,3.33,3.9,6.91,6.91,0,0,1-.83,2.6q.61.59,1.32,1.2a15.35,15.35,0,0,0,2,1.53,9.79,9.79,0,0,0,1.86.93l.17,0,.16-.08a.45.45,0,0,0,.13-.11,1.9,1.9,0,0,0,.2-.71,4.71,4.71,0,0,0,0-1,12.6,12.6,0,0,0-1.31-3.81,31.44,31.44,0,0,0-2.94-4.73,35.87,35.87,0,0,0-3.59-4.2,16.89,16.89,0,0,0-3.33-2.68h0a5.57,5.57,0,0,0-1-.46h0a1.68,1.68,0,0,0-.71-.08h0l-.11,0h0l-.07.12,0,.09,0,0v0h0a6,6,0,0,0,.25,2.33,18.62,18.62,0,0,0,1.29,3.31c.37.76.73,1.46,1.1,2.12ZM54.87,49.86Zm9-4.67h0a20.7,20.7,0,0,0-9,1.76,3.73,3.73,0,0,0,0,.47,2.26,2.26,0,0,0,.09.53h0a.76.76,0,0,0,.13.3.34.34,0,0,0,.12.14l.09,0h0a1.65,1.65,0,0,1,.86.65h0a2.7,2.7,0,0,1,.3,1h0v.05h0l0,.2h0a.53.53,0,0,0,.56.5h0c1.2.13,1.63.7,1.62,1.43a4.33,4.33,0,0,1-.83,2.13h0l-.15.22-.12.2,0,0,0,0a2.58,2.58,0,0,1-1.58,1.21,2.08,2.08,0,0,1-1.58-.43,8.51,8.51,0,0,1-1.72-1.89l-.09-.11-.08-.11h0l-.14-.19v0a20.93,20.93,0,0,1-1.2-1.84c-.37-.61-.75-1.3-1.14-2h0l-.21.14h0l-.29.19h0a5.41,5.41,0,0,1-3.75,1.29A5.26,5.26,0,0,1,43,50.06a8.34,8.34,0,0,1-.87-.81,7.79,7.79,0,0,1-1.37-2,6.57,6.57,0,0,1-.44-1.11h0a5.27,5.27,0,0,1-.17-2.71c.83-3.52,8.61-7.3,11.39-16.17h0c.14-.42.25-.8.38-1.15h0a6.21,6.21,0,0,1,.39-.92v0a3,3,0,0,1,.2-.32,1.2,1.2,0,0,1,.28-.27,1.24,1.24,0,0,1,.36-.19,1.81,1.81,0,0,1,.43-.1,3.09,3.09,0,0,1,1.29.13,6.4,6.4,0,0,1,1.41.61h0a18.43,18.43,0,0,1,3.59,2.87,36.93,36.93,0,0,1,3.78,4.41,33.3,33.3,0,0,1,3.1,5,13.74,13.74,0,0,1,1.41,4.2,5.11,5.11,0,0,1,0,1.46,3.33,3.33,0,0,1-.39,1.2h0c-.59,1-2.47,1-3.61,1Z"/></svg>