<?xml version="1.0" encoding="utf-8"?><svg version="1.1" id="Layer_1" xmlns="http://www.w3.org/2000/svg" xmlns:xlink="http://www.w3.org/1999/xlink" x="0px" y="0px" viewBox="0 0 122.88 89.92" style="enable-background:new 0 0 122.88 89.92" xml:space="preserve"><style type="text/css">.st0{fill-rule:evenodd;clip-rule:evenodd;}</style><g><path class="st0" d="M87.4,45.48l9.13,0.03c-0.01,2.43-0.99,4.76-2.72,6.47c-0.41,0.4-0.86,0.77-1.33,1.09L87.4,45.48L87.4,45.48 L87.4,45.48z M77.64,1.31C77.35,1,77.37,0.5,77.69,0.21c0.32-0.29,0.81-0.27,1.11,0.05c0.59,0.64,1.17,1.32,1.74,2.03 c0.55,0.69,1.08,1.41,1.59,2.14c0.24,0.36,0.15,0.84-0.21,1.09c-0.36,0.24-0.84,0.15-1.09-0.21c-0.48-0.7-0.99-1.39-1.52-2.05 C78.77,2.58,78.21,1.92,77.64,1.31L77.64,1.31z M64.05,3.04c-0.37-0.22-0.5-0.7-0.28-1.07c0.22-0.37,0.7-0.5,1.07-0.29 c2.08,1.21,4.74,3.76,6.98,6.7c1.99,2.62,3.67,5.57,4.33,8.17c0.11,0.42-0.15,0.85-0.57,0.95c-0.42,0.11-0.85-0.15-0.95-0.57 c-0.61-2.39-2.18-5.14-4.06-7.61C68.45,6.55,65.97,4.15,64.05,3.04L64.05,3.04z M71.04,2.07c-0.32-0.29-0.35-0.78-0.07-1.1 c0.29-0.32,0.78-0.35,1.1-0.07c1.4,1.24,2.88,2.83,4.22,4.57c1.26,1.63,2.41,3.39,3.27,5.11c0.19,0.39,0.04,0.86-0.35,1.05 c-0.39,0.19-0.86,0.04-1.05-0.35c-0.81-1.62-1.91-3.3-3.11-4.86C73.77,4.76,72.36,3.25,71.04,2.07L71.04,2.07z M44.59,24 c-0.14,0.59-0.07,1.27,0.14,1.97c0.09,0.3,0.22,0.61,0.36,0.9c0.15,0.3,0.32,0.6,0.52,0.89c0.19,0.29,0.41,0.56,0.64,0.81 c0.23,0.24,0.46,0.47,0.71,0.66l0.01,0.01c0.6,0.47,1.28,0.78,1.95,0.84c0.89,0.08,2.19-0.63,2.97-1.15l0.17-0.12l0.02-0.01 c0.3-0.2,0.61-0.39,0.91-0.58c0.18-0.1,0.38-0.13,0.56-0.09c0.18,0.04,0.34,0.15,0.45,0.31c0.03,0.04,0.05,0.07,0.06,0.11l0.3,0.53 l0.01,0.01c0.39,0.7,0.77,1.39,1.17,2.06c0.39,0.65,0.78,1.26,1.17,1.78l0.01,0.01L56.76,33c0.04,0.06,0.1,0.15,0.17,0.23 l0.01,0.02c0.24,0.33,0.49,0.67,0.75,0.98c0.25,0.3,0.49,0.55,0.73,0.72l0,0c0.17,0.12,0.33,0.17,0.5,0.13 c0.19-0.04,0.39-0.2,0.62-0.52c0.05-0.08,0.1-0.17,0.15-0.25l0.15-0.24l0.01-0.01c0.15-0.23,0.3-0.47,0.41-0.71 c0.08-0.18,0.14-0.36,0.16-0.55c-0.09-0.02-0.2-0.04-0.31-0.05l-0.01,0c-0.81-0.1-1.61-0.19-1.87-1.77l0-0.01h0l-0.03-0.2h0 c-0.03-0.21-0.05-0.36-0.07-0.45c-0.01-0.07-0.02-0.11-0.03-0.13l0,0.01c0,0.01,0,0.01,0,0.01l0,0l0,0 c-0.07-0.04-0.15-0.08-0.26-0.13l-0.09-0.04l-0.01,0v0c-0.27-0.13-0.48-0.32-0.65-0.55c-0.18-0.24-0.31-0.53-0.39-0.83h0 c-0.08-0.3-0.13-0.63-0.15-0.95c-0.02-0.38-0.01-0.75,0.03-1.06l0-0.01c0.02-0.13,0.06-0.24,0.13-0.34l0.01-0.02 c0.07-0.1,0.17-0.17,0.28-0.23c0.01,0,0.02-0.01,0.03-0.01c2.27-1.02,4.19-1.54,5.86-1.81c1.39-0.22,2.6-0.27,3.69-0.28 c-2.25-1.49-4.56-3.87-6.51-6.52c-1.99-2.72-3.61-5.73-4.39-8.37c-0.52,1.52-1.27,3.37-2.53,5.39C51.73,16.74,44.97,22.35,44.59,24 L44.59,24z M59.44,13.83c0.76-0.3,1.51-0.44,2.25-0.36c2.07,0.23,3.57,1.85,3.39,3.98c-0.07,0.8-0.35,1.68-0.85,2.65 c0.42,0.4,0.87,0.81,1.35,1.23c0.69,0.6,1.39,1.12,2.09,1.56c0.63,0.4,1.27,0.72,1.9,0.95c0.06-0.01,0.12-0.02,0.17-0.04 c0.06-0.02,0.11-0.05,0.16-0.08c0.04-0.03,0.09-0.07,0.13-0.11c0.1-0.21,0.17-0.45,0.2-0.72c0.03-0.3,0.03-0.64-0.02-1.01h0 c-0.14-1.11-0.62-2.45-1.33-3.88c-0.78-1.57-1.82-3.24-3-4.83c-1.15-1.56-2.42-3.04-3.67-4.28c-1.19-1.18-2.36-2.14-3.39-2.73 l-0.01-0.01c-0.38-0.21-0.73-0.37-1.05-0.47l-0.02-0.01c-0.28-0.08-0.52-0.11-0.72-0.08l0,0c-0.05,0.01-0.08,0.01-0.11,0.02 l-0.01,0.01l0,0l0,0c-0.02,0.03-0.05,0.07-0.07,0.12c-0.01,0.02-0.03,0.05-0.05,0.09l-0.03,0.06l0,0.03l0,0.01 c-0.1,0.62,0,1.43,0.25,2.37c0.27,1.01,0.72,2.16,1.32,3.38C58.7,12.45,59.07,13.16,59.44,13.83L59.44,13.83z M58.1,30.21 L58.1,30.21L58.1,30.21L58.1,30.21L58.1,30.21L58.1,30.21z M67.23,25.45L67.23,25.45l-0.02,0c-2.28,0.02-5.14,0.05-9.18,1.79 c0,0.16,0,0.32,0.01,0.48c0.02,0.19,0.04,0.37,0.09,0.54l0,0c0.04,0.12,0.08,0.23,0.13,0.31c0.04,0.06,0.08,0.11,0.13,0.14 l0.09,0.04l0.01,0l0.02,0.01l0,0c0.44,0.22,0.67,0.33,0.87,0.66l0,0.01c0.17,0.27,0.21,0.55,0.3,1.07l0,0l0.01,0.05l0,0.01h0 l0.03,0.2l0,0.01c0.08,0.45,0.32,0.48,0.57,0.51l0,0v0c1.22,0.14,1.66,0.72,1.66,1.46c0,0.67-0.39,1.46-0.86,2.16l0,0 c-0.06,0.09-0.11,0.16-0.14,0.22c-0.04,0.07-0.09,0.14-0.13,0.21l-0.02,0.03c-0.01,0.01-0.01,0.02-0.02,0.03 c-0.53,0.76-1.07,1.13-1.62,1.23c-0.56,0.1-1.09-0.08-1.61-0.44c-0.66-0.46-1.22-1.21-1.76-1.93l-0.08-0.11l-0.08-0.11l0,0h0 l-0.14-0.2l-0.01-0.02c-0.42-0.56-0.82-1.2-1.22-1.87c-0.37-0.63-0.76-1.33-1.16-2.04l-0.01,0.01c-0.08,0.05-0.16,0.1-0.22,0.14 l0,0l0,0l-0.29,0.19l-0.02,0.01c-1.18,0.77-2.22,1.48-3.81,1.32c-0.96-0.1-1.89-0.53-2.72-1.17c-0.32-0.25-0.62-0.52-0.89-0.82 c-0.28-0.3-0.54-0.64-0.78-0.98c-0.23-0.34-0.44-0.7-0.62-1.07c-0.18-0.37-0.33-0.75-0.44-1.13l0-0.01 c-0.29-0.95-0.37-1.91-0.17-2.76c0.85-3.59,8.77-7.44,11.6-16.47l0-0.01c0.13-0.43,0.26-0.82,0.38-1.18l0,0 c0.13-0.36,0.26-0.67,0.4-0.93l0.01-0.01c0.07-0.13,0.14-0.24,0.21-0.33c0.08-0.11,0.17-0.2,0.28-0.28 c0.11-0.08,0.23-0.14,0.37-0.19c0.13-0.04,0.27-0.08,0.44-0.1l0,0c0.41-0.05,0.85-0.01,1.31,0.13c0.45,0.13,0.93,0.34,1.44,0.63 l0.01,0.01c1.13,0.64,2.39,1.67,3.66,2.92c1.32,1.3,2.65,2.86,3.85,4.49c1.24,1.68,2.35,3.45,3.17,5.12 c0.76,1.55,1.28,3.02,1.44,4.28c0.07,0.53,0.07,1.03,0.01,1.49c-0.06,0.45-0.2,0.86-0.4,1.22l-0.01,0.01 c-0.6,1.06-2.52,1.04-3.68,1.03C67.47,25.45,67.33,25.45,67.23,25.45L67.23,25.45z M15.67,19.4h22.4l-0.61,3.4H17.21v59.32h88.19 V22.81H79.12l1.23-3.4h26.29c1.19,0,2.17,0.98,2.17,2.17v61.16c0,1.01-0.69,1.86-1.63,2.1h13.16c1.4,0,2.54,1.14,2.54,2.54v0 c0,1.4-1.14,2.54-2.54,2.54H2.54c-1.4,0-2.54-1.14-2.54-2.54v0c0-1.4,1.14-2.54,2.54-2.54h12.59c-0.93-0.24-1.63-1.1-1.63-2.1 V21.58C13.5,20.38,14.48,19.4,15.67,19.4L15.67,19.4z M57.87,85.79h7.14c0.67,0,1.22,0.55,1.22,1.22l0,0 c0,0.67-0.55,1.22-1.22,1.22h-7.14c-0.67,0-1.22-0.55-1.22-1.22l0,0C56.65,86.34,57.2,85.79,57.87,85.79L57.87,85.79z M37.59,38.31 h2.78c0.15,0,0.27,0.12,0.27,0.27v9.91c0,0.15-0.12,0.27-0.27,0.27h-2.78c-0.15,0-0.27-0.12-0.27-0.27v-9.91 C37.32,38.43,37.44,38.31,37.59,38.31L37.59,38.31z M25.01,34.96h2.78c0.15,0,0.27,0.12,0.27,0.27v13.26 c0,0.15-0.12,0.27-0.27,0.27h-2.78c-0.15,0-0.27-0.12-0.27-0.27V35.23C24.74,35.08,24.86,34.96,25.01,34.96L25.01,34.96z M31.3,33.08h2.78c0.15,0,0.27,0.12,0.27,0.27v15.14c0,0.15-0.12,0.27-0.27,0.27H31.3c-0.15,0-0.27-0.12-0.27-0.27V33.35 C31.03,33.2,31.15,33.08,31.3,33.08L31.3,33.08z M25.17,74.51c-0.61,0-1.1-0.5-1.1-1.11c0-0.61,0.49-1.11,1.1-1.11H97.7 c0.61,0,1.1,0.5,1.1,1.11c0,0.61-0.49,1.11-1.1,1.11H25.17L25.17,74.51z M24.99,66.42c-0.61,0-1.1-0.5-1.1-1.11 c0-0.61,0.49-1.11,1.1-1.11h31.16c0.61,0,1.1,0.5,1.1,1.11c0,0.61-0.49,1.11-1.1,1.11H24.99L24.99,66.42z M60.41,66.42 c-0.61,0-1.1-0.5-1.1-1.11c0-0.61,0.49-1.11,1.1-1.11H97.7c0.61,0,1.1,0.5,1.1,1.11c0,0.61-0.49,1.11-1.1,1.11H60.41L60.41,66.42z M24.99,59.21c-0.61,0-1.1-0.5-1.1-1.11c0-0.61,0.49-1.11,1.1-1.11h47.07c0.61,0,1.1,0.5,1.1,1.11c0,0.61-0.49,1.11-1.1,1.11H24.99 L24.99,59.21z M86.46,43.67l-0.49-9.76c-0.01-0.19,0.14-0.36,0.33-0.37c0.06,0,0.12-0.01,0.2-0.01c0.06,0,0.13,0,0.2,0 c2.68-0.03,5.14,0.99,6.98,2.68c1.84,1.69,3.05,4.06,3.25,6.74c0.01,0.19-0.13,0.36-0.32,0.37l-9.76,0.7 c-0.19,0.01-0.36-0.13-0.37-0.32C86.46,43.68,86.46,43.68,86.46,43.67L86.46,43.67L86.46,43.67z M86.69,34.23l0.45,9.06l9.05-0.65 c-0.25-2.35-1.36-4.42-2.99-5.92c-1.71-1.58-4-2.52-6.5-2.5L86.69,34.23L86.69,34.23L86.69,34.23z M85.37,45.06l4.89,8.48 c-1.49,0.86-3.18,1.31-4.89,1.31c-5.41,0-9.79-4.38-9.79-9.79c0-4.86,3.56-8.98,8.37-9.68L85.37,45.06L85.37,45.06z"/></g></svg>