<svg id="Layer_1" data-name="Layer 1" xmlns="http://www.w3.org/2000/svg" viewBox="0 0 122.88 70.39"><defs><style>.cls-1{fill-rule:evenodd;}</style></defs><title>online-research</title><path class="cls-1" d="M16.29,0H106a2.14,2.14,0,0,1,2.14,2.14V62.48a2.14,2.14,0,0,1-.4,1.25h11.78a3.33,3.33,0,0,1,0,6.66H3.33A3.35,3.35,0,0,1,0,67.06a3.28,3.28,0,0,1,1-2.35,3.29,3.29,0,0,1,2.35-1H14.55a2.08,2.08,0,0,1-.41-1.25V2.14A2.15,2.15,0,0,1,16.29,0Zm52.4,11.06a17.78,17.78,0,0,1,14.89,27.5l7.69,8.38L86,51.79l-7.42-8.16A17.8,17.8,0,0,1,57.91,43l-5.14,5.17L42.46,38l-7.24,7-3.61-3.61h0l10.91-10.6c3.41,3.4,6.78,6.77,10.22,10.17l1.6-1.61A17.78,17.78,0,0,1,68.69,11.06ZM57.07,36.58l7.1-7.17-4.23-4.23,11.9-.11v12L67.77,33l-7.2,7.28a13.92,13.92,0,0,0,18-21.1h0A13.92,13.92,0,0,0,57.07,36.58ZM17.81,3.36h87V61.88h-87V3.36ZM57.92,65.49h7a1.2,1.2,0,0,1,1.2,1.2h0a1.2,1.2,0,0,1-1.2,1.2h-7a1.2,1.2,0,0,1-1.2-1.2h0a1.2,1.2,0,0,1,1.2-1.2Z"/></svg>