<?xml version="1.0" encoding="utf-8"?><svg version="1.1" id="Layer_1" xmlns="http://www.w3.org/2000/svg" xmlns:xlink="http://www.w3.org/1999/xlink" x="0px" y="0px" viewBox="0 0 122.88 90.55" style="enable-background:new 0 0 122.88 90.55" xml:space="preserve"><style type="text/css">.st0{fill-rule:evenodd;clip-rule:evenodd;}</style><g><path class="st0" d="M46.93,23.55c-0.13,0.58-0.07,1.25,0.14,1.93c0.09,0.3,0.21,0.59,0.35,0.88c0.14,0.3,0.31,0.59,0.51,0.87 c0.19,0.28,0.4,0.55,0.63,0.79c0.22,0.24,0.46,0.46,0.7,0.64l0.01,0.01c0.59,0.46,1.25,0.77,1.92,0.83 c0.87,0.08,2.15-0.62,2.91-1.13l0.17-0.11l0.02-0.01c0.3-0.2,0.6-0.38,0.89-0.57c0.17-0.1,0.37-0.13,0.55-0.09 c0.18,0.04,0.34,0.15,0.44,0.3c0.03,0.04,0.05,0.07,0.06,0.11l0.29,0.52l0.01,0.01c0.38,0.69,0.75,1.36,1.15,2.02 c0.38,0.64,0.76,1.23,1.15,1.75l0.01,0.01l0.04,0.06c0.04,0.06,0.1,0.14,0.17,0.23l0.01,0.01c0.24,0.32,0.48,0.66,0.73,0.96 c0.24,0.29,0.49,0.54,0.72,0.71v0c0.16,0.11,0.33,0.17,0.49,0.13c0.18-0.04,0.38-0.2,0.61-0.51c0.05-0.08,0.1-0.16,0.15-0.24 l0.15-0.23l0.01-0.01c0.15-0.23,0.3-0.46,0.41-0.7c0.08-0.17,0.14-0.35,0.16-0.54c-0.09-0.02-0.2-0.04-0.31-0.05l-0.01,0 c-0.8-0.1-1.58-0.19-1.84-1.73l0-0.01h0l-0.03-0.19l0,0c-0.03-0.2-0.05-0.35-0.07-0.44c-0.01-0.06-0.02-0.11-0.03-0.13l0,0.01 c0,0.01,0,0.01,0,0.01l0,0l0,0c-0.07-0.04-0.15-0.08-0.25-0.13l-0.09-0.04l-0.01,0v0c-0.26-0.13-0.47-0.31-0.63-0.54 c-0.18-0.24-0.3-0.52-0.38-0.82h0c-0.08-0.3-0.13-0.62-0.15-0.94c-0.02-0.37-0.01-0.73,0.03-1.04l0-0.01 c0.02-0.13,0.06-0.24,0.13-0.34l0.01-0.02c0.07-0.09,0.17-0.17,0.28-0.22c0.01,0,0.02-0.01,0.03-0.01c2.23-1,4.12-1.51,5.75-1.78 c1.36-0.22,2.55-0.26,3.62-0.27c-2.21-1.46-4.47-3.79-6.38-6.4c-1.96-2.67-3.54-5.63-4.31-8.22c-0.51,1.5-1.24,3.31-2.48,5.29 C53.93,16.42,47.3,21.93,46.93,23.55L46.93,23.55z M22.88,58.06H100v18.91H22.88V58.06L22.88,58.06z M53.15,70.88h-3.51l-0.5,1.65 h-3.16l3.77-10.02h3.39l3.76,10.02h-3.24L53.15,70.88L53.15,70.88z M52.5,68.71l-1.09-3.6l-1.1,3.6H52.5L52.5,68.71z M57.71,62.5 h4.6c0.91,0,1.64,0.12,2.2,0.37c0.56,0.25,1.02,0.6,1.39,1.06c0.36,0.46,0.63,1,0.79,1.61c0.17,0.61,0.25,1.26,0.25,1.94 c0,1.07-0.12,1.9-0.37,2.49c-0.24,0.59-0.58,1.08-1.02,1.48c-0.43,0.4-0.9,0.66-1.4,0.8c-0.68,0.18-1.29,0.27-1.85,0.27h-4.6V62.5 L57.71,62.5z M60.8,64.77v5.47h0.76c0.65,0,1.11-0.07,1.39-0.21c0.27-0.14,0.49-0.39,0.64-0.75c0.16-0.36,0.23-0.94,0.23-1.74 c0-1.06-0.17-1.79-0.52-2.18c-0.35-0.39-0.92-0.59-1.73-0.59H60.8L60.8,64.77z M67.81,69.21l2.94-0.18 c0.06,0.48,0.19,0.84,0.39,1.09c0.32,0.4,0.77,0.61,1.37,0.61c0.44,0,0.78-0.1,1.02-0.31c0.24-0.21,0.36-0.45,0.36-0.72 c0-0.26-0.11-0.49-0.34-0.7c-0.23-0.21-0.75-0.4-1.58-0.58c-1.36-0.3-2.32-0.71-2.9-1.22c-0.58-0.5-0.88-1.15-0.88-1.93 c0-0.51,0.15-1,0.45-1.46c0.3-0.46,0.75-0.82,1.35-1.08c0.6-0.26,1.42-0.39,2.46-0.39c1.28,0,2.26,0.24,2.93,0.72 c0.67,0.48,1.07,1.23,1.2,2.28l-2.91,0.17c-0.08-0.45-0.24-0.79-0.49-0.99c-0.25-0.21-0.59-0.31-1.03-0.31 c-0.36,0-0.63,0.08-0.81,0.23c-0.18,0.15-0.27,0.34-0.27,0.56c0,0.16,0.07,0.3,0.22,0.43c0.14,0.13,0.49,0.25,1.03,0.37 c1.35,0.29,2.32,0.59,2.9,0.89c0.59,0.3,1.01,0.67,1.28,1.11c0.27,0.44,0.4,0.94,0.4,1.48c0,0.64-0.18,1.23-0.53,1.78 c-0.36,0.54-0.85,0.95-1.49,1.23c-0.64,0.28-1.44,0.42-2.41,0.42c-1.7,0-2.88-0.33-3.54-0.98C68.27,71.06,67.9,70.22,67.81,69.21 L67.81,69.21z M22.88,40.26h42.99v2.05H22.88V40.26L22.88,40.26z M22.88,46.2H100v2.05H22.88V46.2L22.88,46.2z M22.88,52.13H100 v2.05H22.88V52.13L22.88,52.13z M2.54,85.48h12.59c-0.93-0.24-1.63-1.1-1.63-2.1V22.21c0-1.19,0.98-2.17,2.17-2.17h24.88l0.72,4.29 H18.1v57.55h86.43V24.33H82.13l1.1-4.29h23.41c1.2,0,2.17,0.98,2.17,2.17v61.16c0,1.01-0.69,1.86-1.63,2.1h13.16 c1.4,0,2.54,1.14,2.54,2.54c0,1.4-1.14,2.54-2.54,2.54H2.54c-1.4,0-2.54-1.14-2.54-2.54C0,86.62,1.14,85.48,2.54,85.48L2.54,85.48 L2.54,85.48z M57.87,86.43h7.14c0.67,0,1.22,0.55,1.22,1.22c0,0.67-0.55,1.22-1.22,1.22h-7.14c-0.67,0-1.22-0.55-1.22-1.22 C56.65,86.97,57.2,86.43,57.87,86.43L57.87,86.43L57.87,86.43z M66.03,2.98c-0.37-0.21-0.49-0.68-0.28-1.05 c0.21-0.37,0.68-0.49,1.05-0.28c2.04,1.18,4.65,3.69,6.85,6.58c1.96,2.57,3.6,5.47,4.25,8.02c0.1,0.41-0.14,0.83-0.56,0.94 c-0.41,0.1-0.83-0.14-0.94-0.56c-0.6-2.35-2.14-5.05-3.98-7.47C70.35,6.43,67.91,4.07,66.03,2.98L66.03,2.98z M79.37,1.29 c-0.29-0.31-0.27-0.8,0.05-1.09c0.31-0.29,0.8-0.27,1.09,0.05c0.58,0.63,1.15,1.29,1.71,1.99c0.54,0.68,1.06,1.38,1.56,2.1 c0.24,0.35,0.15,0.83-0.2,1.07c-0.35,0.24-0.83,0.15-1.07-0.2C82.02,4.52,81.52,3.84,81,3.19C80.47,2.53,79.92,1.89,79.37,1.29 L79.37,1.29z M72.88,2.03c-0.32-0.28-0.35-0.77-0.07-1.08c0.28-0.32,0.77-0.35,1.08-0.07c1.38,1.22,2.82,2.78,4.14,4.48 c1.24,1.6,2.36,3.33,3.21,5.02c0.19,0.38,0.04,0.84-0.34,1.03c-0.38,0.19-0.84,0.04-1.03-0.34c-0.8-1.59-1.87-3.24-3.05-4.77 C75.56,4.67,74.18,3.19,72.88,2.03L72.88,2.03z M61.5,13.57c0.74-0.3,1.48-0.43,2.2-0.35c2.03,0.22,3.5,1.82,3.33,3.9 c-0.06,0.79-0.34,1.65-0.84,2.6c0.41,0.4,0.85,0.8,1.33,1.2c0.68,0.59,1.36,1.1,2.05,1.53c0.62,0.39,1.25,0.7,1.87,0.93 c0.06-0.01,0.12-0.02,0.17-0.04c0.06-0.02,0.11-0.05,0.16-0.08c0.04-0.03,0.09-0.06,0.13-0.11c0.1-0.2,0.17-0.44,0.2-0.71 c0.03-0.3,0.03-0.63-0.02-0.99h0c-0.14-1.09-0.61-2.41-1.3-3.81c-0.76-1.54-1.79-3.17-2.94-4.73c-1.13-1.53-2.37-2.99-3.6-4.2 c-1.17-1.16-2.32-2.1-3.33-2.68L60.9,6.03c-0.37-0.21-0.72-0.37-1.03-0.46l-0.02-0.01c-0.27-0.08-0.51-0.11-0.71-0.08v0 c-0.05,0.01-0.08,0.01-0.11,0.02l-0.01,0.01l0,0l0,0C59,5.55,58.97,5.59,58.95,5.63c-0.01,0.02-0.03,0.05-0.05,0.09l-0.03,0.06 l0,0.02l0,0.01c-0.1,0.6,0,1.4,0.24,2.33c0.27,0.99,0.71,2.12,1.29,3.31C60.77,12.21,61.14,12.91,61.5,13.57L61.5,13.57z M60.19,29.64L60.19,29.64L60.19,29.64L60.19,29.64L60.19,29.64L60.19,29.64z M69.14,24.97L69.14,24.97h-0.02 c-2.24,0.02-5.04,0.05-9.01,1.76c0,0.15,0,0.31,0.01,0.47c0.01,0.19,0.04,0.37,0.09,0.53l0,0c0.04,0.12,0.08,0.22,0.13,0.3 c0.04,0.06,0.08,0.11,0.13,0.13l0.08,0.04l0.01,0l0.02,0.01l0,0c0.43,0.21,0.65,0.32,0.86,0.65l0,0.01 c0.16,0.26,0.21,0.54,0.29,1.05h0l0.01,0.05l0,0.01h0l0.03,0.19l0,0.01c0.08,0.44,0.32,0.47,0.56,0.5l0,0v0 c1.2,0.14,1.63,0.7,1.62,1.44c0,0.66-0.39,1.43-0.84,2.12v0c-0.05,0.08-0.1,0.16-0.14,0.22c-0.04,0.07-0.09,0.14-0.13,0.2 l-0.02,0.03c-0.01,0.01-0.01,0.02-0.02,0.03c-0.52,0.74-1.05,1.11-1.59,1.21c-0.55,0.1-1.07-0.08-1.58-0.43 c-0.64-0.45-1.2-1.19-1.72-1.89l-0.08-0.11l-0.08-0.11l0,0h0l-0.14-0.19l-0.01-0.02c-0.41-0.55-0.81-1.18-1.2-1.84 c-0.37-0.62-0.75-1.3-1.14-2l-0.01,0.01c-0.08,0.05-0.16,0.1-0.21,0.14l0,0l0,0l-0.28,0.19l-0.02,0.01 c-1.16,0.76-2.18,1.45-3.74,1.29c-0.95-0.09-1.86-0.52-2.66-1.15c-0.31-0.24-0.6-0.51-0.87-0.81c-0.28-0.3-0.53-0.62-0.77-0.96 c-0.23-0.34-0.43-0.69-0.61-1.05c-0.17-0.36-0.32-0.73-0.44-1.1l0-0.01c-0.28-0.93-0.36-1.88-0.16-2.71 c0.83-3.53,8.61-7.3,11.39-16.17l0-0.01c0.13-0.42,0.25-0.8,0.38-1.16l0,0c0.12-0.35,0.25-0.66,0.39-0.92l0.01-0.01 c0.07-0.13,0.13-0.23,0.2-0.32c0.08-0.1,0.17-0.19,0.28-0.27c0.11-0.08,0.23-0.14,0.36-0.19c0.13-0.04,0.27-0.07,0.43-0.09l0,0 c0.4-0.05,0.83-0.01,1.29,0.12c0.45,0.13,0.92,0.34,1.41,0.62l0.01,0.01c1.11,0.63,2.34,1.64,3.59,2.86 c1.29,1.28,2.6,2.8,3.78,4.41c1.21,1.65,2.3,3.38,3.11,5.03c0.75,1.52,1.25,2.96,1.41,4.2c0.07,0.52,0.07,1.01,0.01,1.46 c-0.06,0.44-0.19,0.84-0.4,1.19l-0.01,0.01c-0.59,1.04-2.47,1.02-3.61,1.01C69.38,24.97,69.25,24.97,69.14,24.97L69.14,24.97z"/></g></svg>