<svg id="Layer_1" data-name="Layer 1" xmlns="http://www.w3.org/2000/svg" viewBox="0 0 121.78 122.88"><title>organic-search</title><path d="M54,0A54,54,0,0,1,74.61,4.09l.14.07a54,54,0,0,1,30.93,65.21,53.24,53.24,0,0,1-5.48,12.4l20.9,22.77a2.6,2.6,0,0,1-.15,3.65l-15.34,14A2.58,2.58,0,0,1,102,122l-20-22A53.84,53.84,0,0,1,69.6,105.6a53,53,0,0,1-7.6,1.71,13.92,13.92,0,0,0-1-4.1c-.08-.24-.16-.47-.26-.71a36.11,36.11,0,0,0-2.6-4.78l-.26-.39.06-.52a42.88,42.88,0,0,0,12.45-3.06,43.43,43.43,0,0,0,14-9.36l.14-.13a43.06,43.06,0,0,0,9.22-13.85l0-.12A43.12,43.12,0,0,0,70.44,14.16l-.13-.06a43,43,0,0,0-46.77,9.41l-.14.13a43.12,43.12,0,0,0-9.22,13.85l0,.13a42.24,42.24,0,0,0-2.31,7.54C9.05,44.39,6.38,43.58,4,42.69A7.05,7.05,0,0,0,1.67,42l-.31,0a52.94,52.94,0,0,1,2.76-8.66l.06-.14A53.95,53.95,0,0,1,54,0ZM50.2,99.14c.8.28,6.09,8.42,4.3,9.56-.17.11-6.69-7.08-7.44-7.76l-.74.13C16.61,105.93-4.43,91.93.8,49.15,23.26,57.8,55.56,55.69,50.86,95.9a11.06,11.06,0,0,1-.66,3.24Zm-7.7-6.72C35.63,76.2,16.76,70.07,7.68,58.82c9.58,20.36,15.21,19.67,34.82,33.6Z"/></svg>