<svg id="Layer_1" data-name="Layer 1" xmlns="http://www.w3.org/2000/svg" viewBox="0 0 104.02 122.88"><title>ppc</title><path d="M83.6,122.54a3.6,3.6,0,0,1-2.45.22,3.4,3.4,0,0,1-2.1-1.58L70.24,106l-8.38,9.41a10.76,10.76,0,0,1-3.77,2.81,5,5,0,0,1-2.87.33,3.83,3.83,0,0,1-2.49-1.78,7.09,7.09,0,0,1-.93-3.19L48.32,68.12a24.93,24.93,0,1,1,15.08-9L101.23,85a7.14,7.14,0,0,1,2.3,2.4,3.79,3.79,0,0,1,.29,3,4.86,4.86,0,0,1-1.71,2.31,10.58,10.58,0,0,1-4.32,1.86h-.06L85.45,97.2l8.75,15.24a3.41,3.41,0,0,1,.32,2.59A3.65,3.65,0,0,1,93,117.14a.33.33,0,0,1-.1.06l-9.08,5.25-.2.09ZM47.32,55.12l-.19-2.38V52.6a2.39,2.39,0,0,1,.22-1.09,2.54,2.54,0,0,1,.81-1,1.59,1.59,0,0,1,.49-.24,2.43,2.43,0,0,1,1.06-.12,2.67,2.67,0,0,1,1,.31,1.75,1.75,0,0,1,.29.18l.91.62a11.33,11.33,0,0,0,.38-3.12V47.08a7.1,7.1,0,0,0-.75-3.3,5.52,5.52,0,0,0-2.23-2.29,7.35,7.35,0,0,0-3.71-.85H43.47a2.49,2.49,0,0,1-1.56-.41A1.47,1.47,0,0,1,41.4,39V38.7a1.51,1.51,0,0,1,.39-1.12,2,2,0,0,1,1.08-.5A8.52,8.52,0,0,1,44.46,37c1,0,2.11,0,3.33.08s2.32.12,3.3.2v-4.9c-.62-.15-1.31-.29-2.09-.43s-1.6-.26-2.48-.35c-.41-.05-.83-.08-1.26-.1V29H41.82v2.5a8,8,0,0,0-4.18,1.63,6.4,6.4,0,0,0-2.1,5.24v1q0,3.82,1.91,5.45a8.49,8.49,0,0,0,5.61,1.63h1.69a1.9,1.9,0,0,1,1.16.35,1.2,1.2,0,0,1,.5,1v.38a1.33,1.33,0,0,1-.35,1,2.24,2.24,0,0,1-1.06.51,8.42,8.42,0,0,1-1.75.16c-.74,0-1.54,0-2.4,0s-1.71-.05-2.55-.09-1.62-.1-2.34-.16v4.9c.55.15,1.12.28,1.72.39s1.21.2,1.86.28,1.31.15,2,.19l.3,0v2.72h3.44V55.4a17.39,17.39,0,0,0,2.06-.28ZM43.9,0A43.86,43.86,0,0,1,87.38,50a42.1,42.1,0,0,1-1.25,5.95,2.23,2.23,0,0,1-3.52,1.17l-3.76-2.57A2.23,2.23,0,0,1,78,52.06a34.88,34.88,0,0,0,.7-4,35.41,35.41,0,0,0,.24-4.17A35,35,0,1,0,36.6,78.15a2.25,2.25,0,0,1,1.77,2l.35,4.56a2.25,2.25,0,0,1-2.07,2.4,2.27,2.27,0,0,1-.74-.07,43.38,43.38,0,0,1-12.34-4.26A43.9,43.9,0,0,1,43.9,0ZM81.45,117.47a.36.36,0,0,0,.25,0l.09,0,8.14-4.56a.49.49,0,0,0,.16-.24.25.25,0,0,0,0-.19l-9.4-16.89h0a1.58,1.58,0,0,1-.18-.46,1.55,1.55,0,0,1,1.21-1.82L95.51,91h0a7.24,7.24,0,0,0,2.92-1.21,1.81,1.81,0,0,0,.64-.78A.7.7,0,0,0,99,88.4a3.69,3.69,0,0,0-1.23-1.21L52.06,56.54l.72,10.35,3.09,44.57a3.65,3.65,0,0,0,.43,1.68.69.69,0,0,0,.44.35,1.72,1.72,0,0,0,1-.16,7.17,7.17,0,0,0,2.5-1.92l8.51-10.66h0a1.91,1.91,0,0,1,.38-.31,1.54,1.54,0,0,1,2.11.56l10.06,16.38a.23.23,0,0,0,.16.09Z"/></svg>