<svg id="Layer_1" data-name="Layer 1" xmlns="http://www.w3.org/2000/svg" viewBox="0 0 122.88 86.63"><defs><style>.cls-1{fill:#262626;}.cls-1,.cls-2{fill-rule:evenodd;}.cls-2{fill:#d8453e;}</style></defs><title>refer</title><path class="cls-1" d="M23.79,50.25c3.44,10.12,17.82,10.5,21.06,0,3.81,3.43,12.63,4.11,16.83,6.44s5.73,6.06,6.08,10.6l.29,2.39a17.43,17.43,0,0,1-2.61,1.67A18.13,18.13,0,0,1,54.75,73a6.67,6.67,0,0,0-7.26,5H4c-2.54-.2-3.82-1.51-4-3.77l.87-7a14.1,14.1,0,0,1,2.6-7.64,11.21,11.21,0,0,1,3.49-3c5-2.77,12.67-2.7,16.83-6.44Zm-3-18.57a2.75,2.75,0,0,0-1.22.38,1.33,1.33,0,0,0-.42.49,1.8,1.8,0,0,0-.13.8A7.64,7.64,0,0,0,20.56,37l0,0h0l3.26,5.17A27.68,27.68,0,0,0,28.2,48a8.75,8.75,0,0,0,6.14,2.47,9,9,0,0,0,6.49-2.59,28.63,28.63,0,0,0,4.48-6.1l3.66-6c.75-1.69,1-2.73.73-3.23-.14-.28-.64-.39-1.46-.34a3.76,3.76,0,0,1-2-.07l1.48-4.17C41,27.81,36.42,26.64,31,23.17c-1.79-1.13-2.32-2.44-4.1-2.31a6,6,0,0,0-3.37,1.83,8.66,8.66,0,0,0-1.94,3.82l1.08,5.21a3.66,3.66,0,0,1-1.85,0ZM50,30.18a2.56,2.56,0,0,1,1.66,1.36c.55,1.1.33,2.74-.7,5.09h0l-.07.12-3.71,6.11a30.15,30.15,0,0,1-4.85,6.56,11,11,0,0,1-8,3.17,10.84,10.84,0,0,1-7.58-3A29.57,29.57,0,0,1,22,43.4l-3.25-5.18a9.51,9.51,0,0,1-1.87-4.8,3.94,3.94,0,0,1,.34-1.77,3.21,3.21,0,0,1,1.18-1.36,4.08,4.08,0,0,1,.86-.44,58.35,58.35,0,0,1-.14-7.62,13.18,13.18,0,0,1,.4-2.12,12.49,12.49,0,0,1,5.5-7,14.84,14.84,0,0,1,3-1.44c6.25-2.26,14.54-1,19,3.78a12.59,12.59,0,0,1,3.19,8L50,30.18Z"/><path class="cls-1" d="M78,39.68c3.44,10.12,17.82,10.5,21.06,0,3.81,3.43,12.63,4.12,16.83,6.45s5.73,6,6.08,10.6l.87,8.86c0,.18-7.42.26-16.42.28l0-6.45a6.65,6.65,0,0,0-6.62-6.63l-25.67-.13a6.78,6.78,0,0,0-3,.71A12.2,12.2,0,0,0,67,49.71a34.54,34.54,0,0,0-7.29-2.61,13.23,13.23,0,0,1,1.5-1c5-2.78,12.67-2.7,16.83-6.45Zm-3-18.56a2.54,2.54,0,0,0-1.21.38,1.17,1.17,0,0,0-.43.48,1.8,1.8,0,0,0-.13.8,7.57,7.57,0,0,0,1.52,3.69l0,0h0l3.26,5.17a27.16,27.16,0,0,0,4.36,5.72,8.72,8.72,0,0,0,6.14,2.48,9,9,0,0,0,6.49-2.59,28.45,28.45,0,0,0,4.48-6.11l3.66-6c.75-1.7,1-2.74.73-3.23-.14-.29-.64-.39-1.46-.35a3.65,3.65,0,0,1-2-.06L102,17.33c-6.71-.08-11.29-1.25-16.72-4.72-1.79-1.14-2.32-2.44-4.1-2.31a6,6,0,0,0-3.37,1.82,8.66,8.66,0,0,0-1.94,3.82l1.08,5.21a3.56,3.56,0,0,1-1.85,0Zm29.14-1.5A2.58,2.58,0,0,1,105.86,21c.55,1.11.33,2.75-.7,5.09h0s0,.08-.07.13l-3.71,6.11a30.39,30.39,0,0,1-4.85,6.56,11.07,11.07,0,0,1-8,3.16A10.85,10.85,0,0,1,81,39a29.06,29.06,0,0,1-4.72-6.15L73,27.66a9.57,9.57,0,0,1-1.87-4.81,3.87,3.87,0,0,1,.34-1.76,3.23,3.23,0,0,1,1.18-1.37,3.64,3.64,0,0,1,.86-.43,58.53,58.53,0,0,1-.14-7.63,13.06,13.06,0,0,1,.4-2.11,12.45,12.45,0,0,1,5.5-7,14.32,14.32,0,0,1,3-1.44c6.25-2.27,14.54-1,19,3.77a12.61,12.61,0,0,1,3.19,8l-.21,6.77Z"/><path class="cls-2" d="M99.77,59.45l-25.66-.13,6.42,6.42c-6.4,9.75-14.62,14.28-25.61,13,13.47,11.78,28.2,9.25,38.43-.17l6.55,6.55-.13-25.66Z"/></svg>