<?xml version="1.0" encoding="utf-8"?><svg version="1.1" id="Layer_1" xmlns="http://www.w3.org/2000/svg" xmlns:xlink="http://www.w3.org/1999/xlink" x="0px" y="0px" viewBox="0 0 121.7 122.88" style="enable-background:new 0 0 121.7 122.88" xml:space="preserve"><style type="text/css"><![CDATA[
	.st0{fill-rule:evenodd;clip-rule:evenodd;}
]]></style><g><path class="st0" d="M43.54,50.9L25.88,68.78v8.41h8.35v-6.32h6.92v-6.92h6.62l1.91-6.24c3.05,2.03,6.75,3.22,10.73,3.22 c10.44,0,18.91-8.16,18.91-18.23c0-10.07-8.47-18.23-18.91-18.23c-10.44,0-18.9,8.16-18.9,18.23 C41.52,45.65,42.25,48.43,43.54,50.9L43.54,50.9L43.54,50.9z M53.61,0c14.79,0,28.2,6.02,37.92,15.69 c9.71,9.72,15.69,23.09,15.69,37.92c0,10.82-3.23,20.93-8.73,29.34l23.21,25.29l-16.01,14.63L83.31,98.26 c-8.5,5.67-18.72,8.97-29.7,8.97c-14.79,0-28.2-6.02-37.92-15.69C5.98,81.81,0,68.44,0,53.61c0-14.79,6.02-28.2,15.69-37.92 C25.41,5.98,38.78,0,53.61,0L53.61,0L53.61,0z M87.28,19.94C78.67,11.33,66.75,5.98,53.61,5.98c-13.14,0-25.06,5.35-33.67,13.96 C11.33,28.56,5.98,40.48,5.98,53.61c0,13.14,5.35,25.06,13.96,33.67c8.61,8.61,20.53,13.96,33.67,13.96 c13.14,0,25.06-5.35,33.67-13.96c8.61-8.61,13.96-20.53,13.96-33.67C101.25,40.48,95.9,28.56,87.28,19.94L87.28,19.94L87.28,19.94 L87.28,19.94z M63.14,36.86c-1.86,0-3.38,1.51-3.38,3.38s1.51,3.38,3.38,3.38c1.86,0,3.38-1.51,3.38-3.38S65.01,36.86,63.14,36.86 L63.14,36.86L63.14,36.86z"/></g></svg>