<svg xmlns="http://www.w3.org/2000/svg" shape-rendering="geometricPrecision" text-rendering="geometricPrecision" image-rendering="optimizeQuality" fill-rule="evenodd" clip-rule="evenodd" viewBox="0 0 512 469.84"><path d="M256 0c33.42 0 63.7 13.56 85.62 35.47 21.91 21.91 35.47 52.19 35.47 85.62 0 33.42-13.56 63.7-35.47 85.62-21.92 21.91-52.2 35.47-85.62 35.47-33.44 0-63.71-13.56-85.62-35.47-21.92-21.92-35.47-52.2-35.47-85.62 0-33.43 13.55-63.71 35.47-85.62C192.29 13.56 222.56 0 256 0zm112.25 211.61 27.48 28.98c11.45-6.73 24.79-10.58 39.03-10.58 21.29 0 40.6 8.65 54.59 22.62l.04.05c13.97 13.98 22.61 33.28 22.61 54.57 0 21.33-8.65 40.64-22.63 54.62l-.39.36c-13.96 13.76-33.11 22.26-54.22 22.26-21.33 0-40.64-8.65-54.62-22.62l-.36-.4c-13.76-13.96-22.26-33.11-22.26-54.22 0-21.24 8.6-40.5 22.51-54.48l-25.25-26.62a141.503 141.503 0 0 0 13.47-14.54zm-208.41 16.95-27.94 38.83c13.95 13.97 22.57 33.24 22.57 54.53 0 21.33-8.65 40.64-22.62 54.61l-.4.37c-13.94 13.75-33.1 22.25-54.22 22.25-21.32 0-40.64-8.65-54.61-22.62l-.36-.39C8.5 362.19 0 343.04 0 321.92c0-21.33 8.65-40.64 22.62-54.61 13.97-13.97 33.29-22.62 54.61-22.62 14.24 0 27.58 3.86 39.04 10.59l29.59-41.11c2.6 3.08 5.32 6.05 8.16 8.89 1.89 1.88 3.83 3.72 5.82 5.5zm106.07 36.41v51.04c17.35 2.22 32.9 10.21 44.67 21.98 14 14.01 22.65 33.31 22.65 54.62 0 21.33-8.65 40.64-22.62 54.61l-.39.37c-13.95 13.75-33.1 22.25-54.22 22.25-21.33 0-40.64-8.65-54.61-22.62l-.37-.39c-13.75-13.95-22.25-33.1-22.25-54.22 0-21.31 8.64-40.61 22.62-54.59 11.77-11.79 27.33-19.79 44.69-22.01v-51.04c3.28.22 6.59.34 9.92.34s6.63-.12 9.91-.34zM27.69 363.08l3.65-2.81c8.24-4.88 20.68-3.6 28.79-9.26.48-.73 1-1.78 1.5-2.92.77-1.73 1.45-3.61 1.89-4.9-1.84-2.17-3.42-4.62-4.93-7.03l-5-7.94c-1.81-2.72-2.77-5.21-2.83-7.25-.03-.96.13-1.83.49-2.6.37-.81.94-1.47 1.72-1.99.36-.25.77-.46 1.21-.62-.33-4.3-.44-9.72-.24-14.27.1-1.07.32-2.15.62-3.23 1.28-4.55 4.46-8.22 8.43-10.74 2.17-1.39 4.57-2.43 7.06-3.14 1.59-.45-1.35-5.52.29-5.69 7.93-.82 20.75 6.42 26.28 12.41 2.77 3 4.51 6.98 4.89 12.23l-.31 12.95c1.38.42 2.28 1.3 2.63 2.72.4 1.58-.03 3.8-1.37 6.82-.02.05-.05.11-.09.16l-5.68 9.37c-2.09 3.44-4.21 6.9-6.98 9.61.25.36.51.72.75 1.09 1.13 1.65 2.27 3.31 3.71 4.78.05.05.1.1.13.15 6.54 4.62 22.48 5.75 28.6 9.16l.24.14 3.58 2.84c9.3-11.17 14.91-25.53 14.91-41.2 0-17.78-7.22-33.89-18.86-45.54-11.64-11.64-27.75-18.85-45.54-18.85-17.78 0-33.88 7.21-45.53 18.86-11.65 11.64-18.86 27.75-18.86 45.53 0 15.65 5.58 30 14.85 41.16zm360.54-11.27c4.24-7.85 20.35-8.76 29.51-14.25 7.03-4.22 5.83-8.46 5.79-15.45h-11.16c-28.98 0-9.9 2.28-5.96-29.22 5.9-44.49 50.71-44.53 57.32 0 4.24 30.31 22.41 29.22-5.96 29.22h-11.32c-.05 7.71-1.25 11.66 6.76 15.99 6.85 3.72 23.74 5.88 28.38 13.35 10.89-11.53 17.57-27.09 17.57-44.2 0-17.8-7.2-33.91-18.85-45.55-11.65-11.65-27.75-18.85-45.55-18.85-17.78 0-33.89 7.21-45.54 18.86-11.66 11.63-18.86 27.74-18.86 45.54 0 17.3 6.8 33.01 17.87 44.56zm-181.77 81.96 3.64-2.81c8.25-4.88 20.69-3.6 28.79-9.26.49-.73 1.01-1.78 1.51-2.92.76-1.73 1.44-3.61 1.88-4.9-1.84-2.17-3.42-4.62-4.93-7.03l-4.99-7.94c-1.82-2.72-2.77-5.21-2.83-7.25-.03-.96.13-1.83.49-2.6.37-.81.94-1.47 1.71-1.99.37-.25.77-.46 1.21-.62-.32-4.31-.44-9.72-.23-14.27.1-1.07.32-2.15.62-3.23 1.27-4.55 4.46-8.22 8.42-10.74 2.18-1.4 4.57-2.44 7.07-3.14 1.58-.45-1.35-5.52.28-5.69 7.93-.82 20.75 6.42 26.28 12.41 2.78 3 4.51 6.97 4.89 12.23l-.3 12.95c1.38.42 2.27 1.3 2.63 2.72.39 1.58-.04 3.8-1.37 6.81-.02.06-.06.12-.09.17l-5.69 9.37c-2.08 3.44-4.21 6.9-6.97 9.61.25.36.5.72.74 1.09 1.13 1.65 2.27 3.31 3.72 4.78.05.05.09.1.12.15 6.55 4.62 22.49 5.75 28.61 9.16l.24.14 3.58 2.84a64.15 64.15 0 0 0 14.9-41.2c0-17.79-7.21-33.9-18.85-45.55-11.64-11.64-27.75-18.85-45.54-18.85s-33.89 7.22-45.53 18.86c-11.65 11.64-18.86 27.75-18.86 45.54 0 15.65 5.58 30 14.85 41.16zm85.97-378.51h.02c14.49 0 26.24 11.75 26.24 26.24 0 14.49-11.75 26.25-26.24 26.25a26.2 26.2 0 0 1-16.82-6.1l-34.85 14.53c.11.99.18 1.98.19 2.98l36.22 16.69c4.4-3.11 9.67-4.81 15.1-4.81 14.43 0 26.13 11.71 26.13 26.13 0 14.43-11.7 26.13-26.13 26.13-14.42 0-26.11-11.71-26.11-26.13 0-2 .23-4 .68-5.95l-32.19-14.82c-4.96 5.79-12.23 9.2-19.95 9.2-14.5 0-26.25-11.76-26.25-26.25s11.75-26.24 26.25-26.24c6.51 0 12.79 2.43 17.59 6.78l34.22-14.27c-.22-1.36-.33-2.73-.33-4.12 0-14.49 11.75-26.24 26.23-26.24z"/></svg>