<svg id="Layer_1" data-name="Layer 1" xmlns="http://www.w3.org/2000/svg" viewBox="0 0 122.88 58.98"><title>step-by-step</title><path d="M78.11,44.26H56.84a9.41,9.41,0,0,1-17.62,0h-21a9.4,9.4,0,1,1,0-6.57h21a9.41,9.41,0,0,1,17.62,0H78.11a9.44,9.44,0,0,1,6.49-5.82V7.43h.19a4,4,0,0,1,2-7.43h0a4,4,0,0,1,4,4,4,4,0,0,1-.35,1.63C105-2,107.05,18,122.88,4.24V28C107.33,42,103.64,20.45,89,30.1v1.72A9.4,9.4,0,1,1,78.11,44.26ZM80.74,59a2.39,2.39,0,0,1,0-4.78H93.09a2.39,2.39,0,1,1,0,4.78ZM41.85,59a2.39,2.39,0,0,1,0-4.78H54.21a2.39,2.39,0,1,1,0,4.78ZM3.22,59a2.39,2.39,0,1,1,0-4.78H15.58a2.39,2.39,0,1,1,0,4.78Z"/></svg>