<svg xmlns="http://www.w3.org/2000/svg" shape-rendering="geometricPrecision" text-rendering="geometricPrecision" image-rendering="optimizeQuality" fill-rule="evenodd" clip-rule="evenodd" viewBox="0 0 512 432.59"><path fill="#FFEDED" d="M216.29 0c119.46 0 216.3 96.84 216.3 216.29 0 119.46-96.84 216.3-216.3 216.3C96.84 432.59 0 335.75 0 216.29 0 96.84 96.84 0 216.29 0z"/><path fill="#DE4A4A" fill-rule="nonzero" d="M216.29.16c59.68 0 113.72 24.19 152.83 63.31 39.11 39.11 63.31 93.15 63.31 152.82 0 59.68-24.2 113.72-63.31 152.83-39.11 39.11-93.15 63.31-152.83 63.31-59.67 0-113.71-24.2-152.83-63.31C24.35 330.01.16 275.97.16 216.29c0-59.67 24.19-113.71 63.3-152.82C102.58 24.35 156.62.16 216.29.16zm133.98 82.16c-34.28-34.28-81.66-55.49-133.98-55.49-52.32 0-99.69 21.21-133.97 55.49s-55.49 81.65-55.49 133.97c0 52.32 21.21 99.7 55.49 133.98 34.28 34.28 81.65 55.49 133.97 55.49 52.32 0 99.7-21.21 133.98-55.49 34.28-34.28 55.49-81.66 55.49-133.98 0-52.32-21.21-99.69-55.49-133.97z"/><path fill="#DE4A4A" fill-rule="nonzero" d="M216.29 70.89c40.15 0 76.5 16.28 102.81 42.59 26.31 26.31 42.6 62.67 42.6 102.81 0 40.15-16.29 76.5-42.6 102.81-26.31 26.32-62.66 42.6-102.81 42.6-40.14 0-76.5-16.28-102.81-42.6-26.31-26.31-42.59-62.66-42.59-102.81 0-40.14 16.28-76.5 42.59-102.81 26.31-26.31 62.67-42.59 102.81-42.59zm83.96 61.44c-21.48-21.48-51.17-34.77-83.96-34.77-32.79 0-62.48 13.29-83.96 34.77-21.48 21.48-34.77 51.17-34.77 83.96 0 32.79 13.29 62.48 34.77 83.96 21.48 21.49 51.17 34.78 83.96 34.78 32.79 0 62.48-13.29 83.96-34.78 21.49-21.48 34.78-51.17 34.78-83.96 0-32.79-13.29-62.48-34.78-83.96z"/><path fill="#DE4A4A" fill-rule="nonzero" d="M216.29 144.3c19.81 0 37.8 8.06 50.86 21.09l.05.05c13.04 13.08 21.09 31.05 21.09 50.85 0 19.81-8.06 37.81-21.09 50.86l-.05.05c-13.08 13.04-31.06 21.09-50.86 21.09-19.82 0-37.8-8.06-50.85-21.09l-.05-.05c-13.04-13.08-21.09-31.06-21.09-50.86 0-19.82 8.06-37.8 21.09-50.85l.05-.05c13.08-13.04 31.05-21.09 50.85-21.09zm32.06 39.89c-8.17-8.16-19.5-13.22-32.06-13.22-12.55 0-23.89 5.06-32.05 13.22l-.05.05c-8.17 8.16-13.22 19.5-13.22 32.05 0 12.56 5.05 23.89 13.22 32.06l.05.04c8.16 8.17 19.5 13.23 32.05 13.23 12.56 0 23.89-5.06 32.06-13.23l.04-.04c8.17-8.17 13.23-19.5 13.23-32.06 0-12.55-5.06-23.89-13.23-32.05l-.04-.05z"/><path fill="#2B2A29" fill-rule="nonzero" d="M233.19 221.15c-12.64 7.35-23.79-11.73-11.22-19.13l147.32-88.03 12.81-39.93a10.79 10.79 0 0 1 1.93-3.6c.86-1.07 1.92-1.98 3.1-2.66l75.58-43.65c2.66-1.54 5.69-1.85 8.44-1.12 2.73.74 5.21 2.53 6.75 5.19a11.15 11.15 0 0 1 1.42 4.19c.17 1.41.06 2.85-.3 4.22l-6.25 31.73 31.87 11.48c2.9 1.03 5.09 3.15 6.3 5.72 1.21 2.56 1.44 5.6.4 8.48-.43 1.21-1.06 2.31-1.81 3.23l.42.63-79.08 45.66c-1.42.82-2.99 1.29-4.55 1.44-1.62.14-3.24-.06-4.73-.59l-41.18-11.23-147.22 87.97z"/></svg>