<?xml version="1.0" encoding="utf-8"?><svg version="1.1" id="Layer_1" xmlns="http://www.w3.org/2000/svg" xmlns:xlink="http://www.w3.org/1999/xlink" x="0px" y="0px" viewBox="0 0 122.88 102.5" style="enable-background:new 0 0 122.88 102.5" xml:space="preserve"><g><path d="M95.42,49.74L72.86,27.17l-35.5,35.5c-3.1,3.1-4.65,7.19-4.65,11.28c0,4.09,1.55,8.18,4.65,11.28 c3.1,3.1,7.19,4.65,11.28,4.65v0.01c4.09,0,8.18-1.55,11.28-4.66L95.42,49.74L95.42,49.74z M36.66,90.97l-2.9,2.9 c-0.43,0.43-0.97,0.93-1.6,1.48c-5.12,4.52-10.82,6.82-16.15,7.11c-5.56,0.31-10.71-1.53-14.46-5.28c-0.06-0.06-0.12-0.13-0.18-0.2 C1.19,96.8,1,96.6,0.8,96.37c-1.17-1.32-1.04-3.34,0.28-4.5c1.32-1.17,3.34-1.04,4.5,0.28c0.1,0.11,0.22,0.24,0.35,0.37l0.16,0.15 c2.44,2.44,5.85,3.63,9.58,3.43c3.97-0.22,8.29-2,12.27-5.51c0.34-0.3,0.78-0.71,1.3-1.23l2.82-2.82c-2.8-3.7-4.2-8.13-4.2-12.57 c0-5.33,2.02-10.67,6.07-14.72l37.21-37.21c0.95-0.95,2.49-0.95,3.44,0l5.19,5.19l24.55-24.05c2.14-2.1,4.93-3.16,7.72-3.16 c2.78,0,5.55,1.05,7.67,3.16l0,0l0.08,0.08c2.06,2.11,3.11,4.87,3.11,7.63c0,2.77-1.03,5.53-3.12,7.62l0,0 c-8.1,8.1-16.4,16.09-24.6,24.1l5.42,5.42c0.95,0.95,0.95,2.49,0,3.44L63.36,88.67c-4.04,4.04-9.38,6.06-14.72,6.06v0.01 C44.44,94.74,40.23,93.48,36.66,90.97L36.66,90.97z M98.06,34.22l-9.79-9.79l-5.7,5.59l9.78,9.78 C94.25,37.93,96.15,36.08,98.06,34.22L98.06,34.22z M92.11,20.66l9.8,9.8c2.09-2.04,4.18-4.08,6.26-6.12l-9.81-9.81L92.11,20.66 L92.11,20.66z M102.21,10.76l9.81,9.81c1.65-1.62,3.29-3.25,4.93-4.87l0,0c1.32-1.32,1.97-3.07,1.97-4.81 c0-1.76-0.67-3.51-1.98-4.85l-0.05-0.05l0,0c-1.34-1.34-3.09-2-4.86-2c-1.79,0-3.58,0.67-4.94,2.01L102.21,10.76L102.21,10.76z"/></g></svg>