<svg xmlns="http://www.w3.org/2000/svg" shape-rendering="geometricPrecision" text-rendering="geometricPrecision" image-rendering="optimizeQuality" fill-rule="evenodd" clip-rule="evenodd" viewBox="0 0 512 512"><path fill-rule="nonzero" d="M256 34.33c-61.22 0-116.64 24.82-156.74 64.92-40.11 40.11-64.93 95.55-64.93 156.76 0 61.21 24.82 116.63 64.93 156.74 40.1 40.1 95.52 64.92 156.74 64.92 61.21 0 116.64-24.82 156.75-64.92 40.1-40.11 64.92-95.53 64.92-156.74 0-61.23-24.82-116.65-64.92-156.76-40.11-40.1-95.53-64.92-156.75-64.92zM145.53 269.8c-10.29-9.17-10.01-17.33 0-26.62l86.09-76.78c11.21-7.03 22.9-2.9 22.59 11.73l-.12 43.14 61.54-54.87c11.2-7.03 22.89-2.9 22.58 11.73l-.44 154.47c-.96 15.86-10.01 20.21-23.36 12.87l-60.52-53.95-.11 41.08c-.96 15.86-10.02 20.21-23.38 12.87l-84.87-75.67zM74.98 74.98C121.31 28.66 185.32 0 256 0c70.69 0 134.7 28.66 181.02 74.98C483.34 121.31 512 185.32 512 256.01c0 70.68-28.66 134.69-74.98 181.01C390.7 483.34 326.68 512 256 512s-134.69-28.66-181.02-74.98C28.66 390.7 0 326.69 0 256.01c0-70.68 28.66-134.7 74.98-181.03z"/></svg>