<svg id="Layer_1" data-name="Layer 1" xmlns="http://www.w3.org/2000/svg" viewBox="0 0 122.88 122.94"><defs><style>.cls-1{fill-rule:evenodd;}</style></defs><title>clef-music-notes</title><path class="cls-1" d="M51,45.64q3.72-4.23,7.69-8.06a45.85,45.85,0,0,1-2.19-12c-.23-7.24.88-14.93,5-21C62.68,2.79,64.69-.25,66.85,0c1.84.22,2.82,2.81,3.55,4.3,4.93,10,5.94,20.55.25,32A46,46,0,0,1,62.79,47.1l2.38,12.1q.43-.09.9-.15a14.3,14.3,0,0,1,8.56,1.42c5.6,3,9.08,10.58,8.52,16.83-.5,5.51-3,9.31-7.15,12.64a24.06,24.06,0,0,1-4.25,2.79l2.87,14.62a26.62,26.62,0,0,1,.13,3.75c-.35,7.71-6.35,12.16-13.79,11.82-5.73-.36-11.67-4.9-11.7-10.64-.07-11.14,15-10.61,13.9-.42-.32,3-2.51,5.65-7.21,5.82,3.79,6.28,15.52,1.79,16.31-6.45a17.1,17.1,0,0,0-.69-6.24L69.4,93.69a16.82,16.82,0,0,1-3.07.68,23.71,23.71,0,0,1-18.15-5.66,26,26,0,0,1-8-24.36c1.5-7.64,5.91-13.07,10.87-18.71ZM2,18.94a2,2,0,0,1,0-4.06H46.84c-.21,1.35-.37,2.7-.47,4.06Zm82.39-4.06h36.43a2,2,0,1,1,0,4.06H84.79c-.06-1.37-.18-2.72-.37-4.06ZM2,108.06a2,2,0,1,1,0-4H40.58a17.75,17.75,0,0,0-1.25,4Zm82.47-4h36.35a2,2,0,1,1,0,4H85L85,107.2a10.53,10.53,0,0,0-.19-1.83L84.5,104ZM2,93.2a2,2,0,1,1,0-4h33.1a34.8,34.8,0,0,0,3,4Zm88.15-4h30.67a2,2,0,1,1,0,4H87.41a25.91,25.91,0,0,0,2.48-3.55c.1-.16.19-.33.29-.5ZM2,78.35a2,2,0,1,1,0-4H29.66a39.64,39.64,0,0,0,.78,4Zm91.43-4h27.39a2,2,0,1,1,0,4H93.4v-.12a25.74,25.74,0,0,0,0-3.93ZM2,63.5a2,2,0,0,1,0-4.06H30.72c-.27,1-.5,1.93-.7,2.93-.07.37-.14.75-.2,1.13Zm86.28-4.06h32.54a2,2,0,0,1,0,4.06H90.65c-.11-.23-.22-.46-.34-.69a27.41,27.41,0,0,0-2-3.37ZM2,48.64a2,2,0,1,1,0-4H38.47c-1,1.28-1.92,2.62-2.83,4Zm75.77-4h43.05a2,2,0,1,1,0,4H75l.36-.47q1.27-1.72,2.43-3.58ZM2,33.79a2,2,0,1,1,0-4.05H46.51c.13,1.16.31,2.34.53,3.52l.1.53Zm81.84-4.05h37a2,2,0,1,1,0,4.05H82.79q.64-2,1.08-4.05Zm-23,6.35C58.77,28.56,59.08,19,64.41,12.77S75.63,15,67.86,27.44a48.32,48.32,0,0,1-7,8.65Zm0,13c-.67.67-1.36,1.34-2.06,2-4,3.84-8,7.52-11,13a20.63,20.63,0,0,0-1.5,17.24c2.4,7.49,14,12.22,22.66,10L64.41,67.66a9.81,9.81,0,0,0-7.1,8,8.71,8.71,0,0,0,3.08,7.82,18.2,18.2,0,0,0,1.81,1.37c1.24.81.64,1.4-.53,1.05-3.87-1.29-6.19-3.44-7.43-6.18-3.67-8.07.83-17.08,8.67-19.92L60.84,49.09ZM71.31,90.48l.12-.06c4.8-2.21,7.7-8.37,6.5-14a12,12,0,0,0-6.62-8.23,9.08,9.08,0,0,0-4.56-1l4.56,23.21Z"/></svg>