<svg xmlns="http://www.w3.org/2000/svg" shape-rendering="geometricPrecision" text-rendering="geometricPrecision" image-rendering="optimizeQuality" fill-rule="evenodd" clip-rule="evenodd" viewBox="0 0 512 463.12"><path fill-rule="nonzero" d="M256 0c68.84 0 131.4 11.34 176.91 29.66C481.77 49.35 512 77.83 512 110.43c0 .69-.02 1.38-.05 2.06V355.4h-.02c0 1.03-.13 2.07-.41 3.1-10.18 38.2-48.14 65.65-99.37 82.74-41.02 13.69-90.94 20.93-141.58 21.79-50.53.86-101.94-4.63-146.02-16.38-61.18-16.31-109.03-45.05-123.46-86.3-.67-1.51-1.04-3.18-1.04-4.95V112.49c-.03-.68-.05-1.37-.05-2.06 0-32.6 30.23-61.08 79.09-80.77C124.6 11.34 187.17 0 256 0zM101.67 253.5h1.12v-53.89c-8.32-2.6-16.24-5.42-23.7-8.42-22.57-9.1-41.17-20.07-54.65-32.46v194.69c9.78 26.25 39.03 46.65 78.35 60.96v-50.41h-1.12c-6.66 0-12.11-5.45-12.11-12.11v-86.25c0-6.66 5.45-12.11 12.11-12.11zm26.5 0h1.12c6.66 0 12.11 5.45 12.11 12.11v86.25c0 6.66-5.45 12.11-12.11 12.11h-1.12v55.25c0 1.07-.13 2.1-.35 3.1l2.92.79c34.1 9.09 72.84 14.25 112.04 15.43v-56.26h-.59c-6.66 0-12.11-5.45-12.11-12.11v-86.25c0-6.66 5.45-12.11 12.11-12.11h.59v-51.1c-41.64-.88-80.68-5.92-114.61-14.1v46.89zm254.54 0h1.13v-46.89c-33.94 8.18-72.97 13.22-114.62 14.1v51.1h.59c6.66 0 12.11 5.45 12.11 12.11v86.25c0 6.66-5.45 12.11-12.11 12.11h-.59v56.46l.98-.01c40.31-.69 79.99-5.58 114.51-14.69-.56-1.49-.87-3.12-.87-4.82v-55.25h-1.13c-6.66 0-12.11-5.45-12.11-12.11v-86.25c0-6.66 5.45-12.11 12.11-12.11zm26.5 0h1.13c6.66 0 12.1 5.45 12.1 12.11v86.25c0 6.66-5.44 12.11-12.1 12.11h-1.13v52.56c40.53-14.31 70.17-35.26 78.35-62.71V158.73c-13.48 12.39-32.08 23.36-54.65 32.46-7.46 3-15.37 5.82-23.7 8.42v53.89zm14.61-201.16C381.1 35.13 321.78 24.49 256 24.49c-65.78 0-125.1 10.64-167.82 27.85-39.35 15.85-63.69 36.47-63.69 58.09 0 21.62 24.34 42.23 63.69 58.08 42.72 17.21 102.04 27.85 167.82 27.85 65.78 0 125.1-10.64 167.82-27.85 39.35-15.85 63.69-36.46 63.69-58.08 0-21.62-24.34-42.24-63.69-58.09z"/></svg>