<svg id="Layer_1" data-name="Layer 1" xmlns="http://www.w3.org/2000/svg" viewBox="0 0 122.88 65.35"><defs><style>.cls-1{fill-rule:evenodd;}</style></defs><title>dual-speaker-sound</title><path class="cls-1" d="M66.61,0h36.46a2.31,2.31,0,0,1,2.3,2.3V63.05a2.31,2.31,0,0,1-2.3,2.3H66.61a2.31,2.31,0,0,1-2.3-2.3V2.3A2.31,2.31,0,0,1,66.61,0ZM9.66,36.45A1.79,1.79,0,1,1,13,37.82a18.09,18.09,0,0,0-1.22,6.5,16.7,16.7,0,0,0,1,6.33A1.79,1.79,0,0,1,9.44,52a20.35,20.35,0,0,1-1.26-7.7,21.79,21.79,0,0,1,1.48-7.83ZM2.54,33.26a1.79,1.79,0,0,1,3.22,1.56,23,23,0,0,0-2.19,9.69,19.63,19.63,0,0,0,2,9.08A1.79,1.79,0,1,1,2.4,55.23,23,23,0,0,1,0,44.48,26.66,26.66,0,0,1,2.54,33.26Zm107.37,4.56a1.79,1.79,0,0,1,3.31-1.37,21.79,21.79,0,0,1,1.48,7.83,20.35,20.35,0,0,1-1.26,7.7,1.79,1.79,0,0,1-3.32-1.33,16.9,16.9,0,0,0,1-6.33,18.09,18.09,0,0,0-1.22-6.5Zm7.21-3a1.79,1.79,0,0,1,3.22-1.56,26.66,26.66,0,0,1,2.54,11.22,23,23,0,0,1-2.4,10.75,1.79,1.79,0,0,1-3.18-1.64,19.63,19.63,0,0,0,2-9.08,23,23,0,0,0-2.19-9.69ZM19.81,0H56.27a2.31,2.31,0,0,1,2.3,2.3V63.05a2.31,2.31,0,0,1-2.3,2.3H19.81a2.31,2.31,0,0,1-2.3-2.3V2.3A2.31,2.31,0,0,1,19.81,0ZM38,29.76A14.48,14.48,0,1,1,27.81,34,14.43,14.43,0,0,1,38,29.76Zm0,10.13a4.34,4.34,0,1,1-4.34,4.34A4.33,4.33,0,0,1,38,39.89ZM38,6.47A8.13,8.13,0,1,1,32.3,8.85,8.09,8.09,0,0,1,38,6.47Zm4.3,3.82a6.07,6.07,0,1,0,1.79,4.3,6,6,0,0,0-1.79-4.3ZM38,12a2.55,2.55,0,1,1-2.55,2.55A2.55,2.55,0,0,1,38,12Zm8.31,23.87a11.75,11.75,0,1,0,3.45,8.32,11.68,11.68,0,0,0-3.45-8.32Zm38.49-6.15A14.48,14.48,0,1,1,74.61,34a14.41,14.41,0,0,1,10.23-4.24Zm0,10.13a4.34,4.34,0,1,1-4.33,4.34,4.34,4.34,0,0,1,4.33-4.34Zm0-33.42A8.13,8.13,0,1,1,79.1,8.85a8.09,8.09,0,0,1,5.74-2.38Zm4.31,3.82a6.1,6.1,0,1,0,1.78,4.3,6.05,6.05,0,0,0-1.78-4.3ZM84.84,12a2.55,2.55,0,1,1-2.55,2.55A2.55,2.55,0,0,1,84.84,12Zm8.32,23.87a11.77,11.77,0,1,0,3.44,8.32,11.72,11.72,0,0,0-3.44-8.32Z"/></svg>