<svg id="Layer_1" data-name="Layer 1" xmlns="http://www.w3.org/2000/svg" viewBox="0 0 122.88 105.57"><defs><style>.cls-1{fill-rule:evenodd;}</style></defs><title>earbuds</title><path class="cls-1" d="M108.66,1.48a28,28,0,0,1,13.06,9.34c.79,1,1.18,6.82,1.16,12.54,0,5.21-.34,10.54-1,12.29a2.17,2.17,0,0,1-.19.41,25,25,0,0,1-15.64,10.35A26.7,26.7,0,0,1,89.39,44.8V86.08H70.62V40.8h0v0c0-2.6.15-5,.38-7.28v0A60.7,60.7,0,0,1,72,27,41.14,41.14,0,0,1,79.6,10,25.77,25.77,0,0,1,92.88,1a26.39,26.39,0,0,1,15.78.51ZM30.94,7.92a18.66,18.66,0,0,1,4.88,3.62,25.59,25.59,0,0,1,4,5.29,1.38,1.38,0,0,1-2.39,1.37,22.86,22.86,0,0,0-3.56-4.72,16.05,16.05,0,0,0-4.15-3.08,1.38,1.38,0,0,1,1.21-2.48Zm78.06,6h1.11a2.67,2.67,0,0,1,2.66,2.67V28.89a2.67,2.67,0,0,1-2.66,2.67H109a2.68,2.68,0,0,1-2.67-2.67V16.6A2.68,2.68,0,0,1,109,13.93ZM93.74,8.55a1.39,1.39,0,0,1-.63,1.85A15.89,15.89,0,0,0,89,13.48,22.51,22.51,0,0,0,85.4,18.2,1.38,1.38,0,0,1,83,16.83a25.59,25.59,0,0,1,4-5.29,18.82,18.82,0,0,1,4.88-3.62,1.39,1.39,0,0,1,1.85.63Zm-81,5.38h1.11A2.67,2.67,0,0,1,16.5,16.6V28.89a2.67,2.67,0,0,1-2.66,2.67H12.73a2.68,2.68,0,0,1-2.67-2.67V16.6a2.68,2.68,0,0,1,2.67-2.67ZM14.22,1.48A26.39,26.39,0,0,1,30,1a25.77,25.77,0,0,1,13.28,9,41.14,41.14,0,0,1,7.61,17,60.7,60.7,0,0,1,1,6.49v0c.23,2.27.35,4.68.38,7.28v0h0V86.08H33.49V44.8A26.7,26.7,0,0,1,16.8,46.41,25,25,0,0,1,1.16,36.06,2.17,2.17,0,0,1,1,35.65C.34,33.9,0,28.57,0,23.36c0-5.72.37-11.51,1.16-12.54A28,28,0,0,1,14.22,1.48Zm38,90.41v5.23c.23,11-19.08,11.59-18.77-.14V91.89Zm18.36,0H89.39V97c.31,11.73-19,11.13-18.77.14V91.89Z"/></svg>