<svg id="Layer_1" data-name="Layer 1" xmlns="http://www.w3.org/2000/svg" viewBox="0 0 122.88 105.16"><defs><style>.cls-1{fill-rule:evenodd;}</style></defs><title>earphone</title><path class="cls-1" d="M12.65,1.32A23.48,23.48,0,0,1,26.7.86a23,23,0,0,1,11.82,8A36.66,36.66,0,0,1,45.3,24a53.23,53.23,0,0,1,.88,5.78v0c.2,2,.31,4.17.33,6.48v0h0V68.78l-4.86,0c0,6.34.07,9.84,0,16.18.26,4.66,1.75,8,3.87,10.15a10.34,10.34,0,0,0,3.78,2.45,11.17,11.17,0,0,0,4.41.67,12.19,12.19,0,0,0,7.93-3.47,3.48,3.48,0,0,1,4.88,5A19.15,19.15,0,0,1,54,105.14a18.18,18.18,0,0,1-7.13-1.1A17.28,17.28,0,0,1,40.56,100c-3.24-3.29-5.49-8.14-5.86-14.67,0-.15,0-.3,0-.45V68.68l-4.87,0V39.88A23.73,23.73,0,0,1,15,41.31a22.88,22.88,0,0,1-3.54-1.06V1.78c.41-.17.82-.32,1.23-.46ZM25.54,8.64a1.51,1.51,0,0,1,1.33-2.72,20.3,20.3,0,0,1,5.37,4,28.31,28.31,0,0,1,4.41,5.82A1.52,1.52,0,1,1,34,17.22,25,25,0,0,0,30.1,12a17.47,17.47,0,0,0-4.56-3.39Zm61,0A1.51,1.51,0,1,1,87.9,5.92a20.3,20.3,0,0,1,5.37,4,28.31,28.31,0,0,1,4.41,5.82,1.52,1.52,0,1,1-2.63,1.51A25,25,0,0,0,91.13,12a17.47,17.47,0,0,0-4.56-3.39ZM8.63,3.11V39A21.14,21.14,0,0,1,1,32.1a1.73,1.73,0,0,1-.18-.36C.3,30.18,0,25.43,0,20.8,0,15.7.33,10.55,1,9.63A25,25,0,0,1,8.63,3.11Zm61,0V39a21.17,21.17,0,0,1-7.6-6.87,2.37,2.37,0,0,1-.17-.36c-.56-1.56-.84-6.31-.86-10.94,0-5.1.33-10.25,1-11.17a25.1,25.1,0,0,1,7.6-6.52Zm37.89,33.21V68.78l-4.86,0c0,6.34.07,9.84,0,16.18a20.06,20.06,0,0,0,1,5.51,11.75,11.75,0,0,0,4.58,6.08,10.89,10.89,0,0,0,6.43,1.68,12.3,12.3,0,0,0,3.49-.7,3.48,3.48,0,1,1,2.31,6.57,19,19,0,0,1-5.5,1.08,17.71,17.71,0,0,1-10.52-2.8,18.57,18.57,0,0,1-7.36-9.59,26.94,26.94,0,0,1-1.43-7.47,3.4,3.4,0,0,1,0-.45V68.68l-4.87,0V39.88A23.73,23.73,0,0,1,76,41.31a22.88,22.88,0,0,1-3.54-1.06V1.78c.4-.17.82-.32,1.23-.46a23.48,23.48,0,0,1,14-.46,23,23,0,0,1,11.82,8A36.66,36.66,0,0,1,106.34,24a53.23,53.23,0,0,1,.88,5.78v0c.2,2,.31,4.17.33,6.48v0Z"/></svg>