<svg id="Layer_1" data-name="Layer 1" xmlns="http://www.w3.org/2000/svg" viewBox="0 0 122.88 90.44"><defs><style>.cls-1{fill:#212121;}.cls-2{fill:#f44336;}</style></defs><title>noise-reduction</title><path class="cls-1" d="M90.14,21.81a5.14,5.14,0,0,1,8.78-3.64h0a5.16,5.16,0,0,1,1.51,3.64v44L90.14,55.62V21.81ZM0,16.61A5.13,5.13,0,0,1,1.51,13h0a5.15,5.15,0,0,1,8.78,3.64V72.23a5.13,5.13,0,0,1-1.51,3.63h0A5.15,5.15,0,0,1,0,72.23V16.61Zm32.87,16.5V85.29a5.13,5.13,0,0,1-8.77,3.64h0a5.11,5.11,0,0,1-1.5-3.63V23L32.87,33.11Zm34.77-.78a5.15,5.15,0,0,1,1.5-3.64h0a5.13,5.13,0,0,1,7.26,0h0a5.11,5.11,0,0,1,1.5,3.63V43.59L67.64,33.45V32.33ZM46.76,12.89a5.14,5.14,0,0,1,8.66,3.75v4.78l-8.66-8.53Zm8.66,42.43V72.25a5.16,5.16,0,0,1-1.51,3.64h0a5.15,5.15,0,0,1-8.78-3.64V45.19L55.42,55.32ZM112.7,10.43a5.14,5.14,0,0,1,1.49-3.62l.11-.1a5,5,0,0,1,7.1.1,5.15,5.15,0,0,1,1.48,3.62v68a5.13,5.13,0,0,1-1.48,3.62l-.11.1a5.08,5.08,0,0,1-7.83-1,12.76,12.76,0,0,0-.73-2.13,5.12,5.12,0,0,1,0-.56v-68Z"/><path class="cls-2" d="M17.94,8.27a4.83,4.83,0,1,1,6.77-6.88l80.37,79.17a4.83,4.83,0,1,1-6.77,6.88L17.94,8.27Z"/></svg>