<svg xmlns="http://www.w3.org/2000/svg" shape-rendering="geometricPrecision" text-rendering="geometricPrecision" image-rendering="optimizeQuality" fill-rule="evenodd" clip-rule="evenodd" viewBox="0 0 512 512"><path fill="#01A437" fill-rule="nonzero" d="M256 0c70.69 0 134.7 28.66 181.02 74.98C483.35 121.3 512 185.31 512 256c0 70.69-28.65 134.7-74.98 181.02C390.7 483.34 326.69 512 256 512c-70.69 0-134.69-28.66-181.02-74.98C28.66 390.7 0 326.69 0 256c0-70.69 28.66-134.7 74.98-181.02C121.31 28.66 185.31 0 256 0zm82.96 272.77c14.72-9.51 14.67-20.09 0-28.51L223.94 160.1c-11.99-7.53-24.5-3.11-24.17 12.55l.47 165.35c1.03 16.98 10.72 21.63 25.01 13.78l113.71-79.01zm66.97-166.7C367.57 67.7 314.56 43.96 256 43.96c-58.55 0-111.57 23.74-149.93 62.11C67.7 144.43 43.96 197.45 43.96 256c0 58.55 23.74 111.57 62.11 149.93 38.36 38.37 91.38 62.11 149.93 62.11 58.56 0 111.57-23.74 149.93-62.11 38.37-38.36 62.11-91.38 62.11-149.93 0-58.55-23.74-111.57-62.11-149.93z"/></svg>