<?xml version="1.0" encoding="utf-8"?><svg version="1.1" id="Layer_1" xmlns="http://www.w3.org/2000/svg" xmlns:xlink="http://www.w3.org/1999/xlink" x="0px" y="0px" viewBox="0 0 122.88 122" style="enable-background:new 0 0 122.88 122" xml:space="preserve"><g><path d="M32.57,41.96c5.28,0,10.06,2.14,13.52,5.6c3.46,3.46,5.6,8.24,5.6,13.52c0,4.53-1.58,8.69-4.21,11.97h28.53 c-2.63-3.28-4.21-7.44-4.21-11.97c0-5.28,2.14-10.06,5.6-13.52c3.46-3.46,8.24-5.6,13.52-5.6c5.28,0,10.06,2.14,13.52,5.6 c3.46,3.46,5.6,8.24,5.6,13.52c0,5.28-2.14,10.06-5.6,13.52c-3.46,3.46-8.24,5.6-13.52,5.6H33.86c-0.13,0-0.26-0.01-0.39-0.02 c-0.3,0.01-0.59,0.02-0.89,0.02c-5.28,0-10.06-2.14-13.52-5.6c-3.46-3.46-5.6-8.24-5.6-13.52c0-5.28,2.14-10.06,5.6-13.52 C22.51,44.1,27.29,41.96,32.57,41.96L32.57,41.96z M16.11,0h90.66c4.43,0,8.46,1.81,11.38,4.73c2.92,2.92,4.73,6.95,4.73,11.38 v89.79c0,4.43-1.81,8.46-4.73,11.38c-2.92,2.92-6.95,4.73-11.38,4.73H16.11c-4.43,0-8.46-1.81-11.38-4.73 C1.81,114.36,0,110.33,0,105.9V16.11c0-4.43,1.81-8.46,4.73-11.38C7.65,1.81,11.67,0,16.11,0L16.11,0z M106.77,7.16H16.11 c-2.46,0-4.69,1.01-6.32,2.63c-1.62,1.62-2.63,3.86-2.63,6.32v89.79c0,2.46,1.01,4.69,2.63,6.32c1.62,1.62,3.86,2.63,6.32,2.63 h90.66c2.46,0,4.69-1.01,6.32-2.63c1.62-1.62,2.63-3.86,2.63-6.32V16.11c0-2.46-1.01-4.69-2.63-6.32 C111.47,8.17,109.23,7.16,106.77,7.16L106.77,7.16z M99.4,52.62c-2.17-2.17-5.16-3.51-8.46-3.51c-3.31,0-6.3,1.34-8.46,3.51 c-2.17,2.17-3.51,5.16-3.51,8.46c0,3.31,1.34,6.3,3.51,8.46c2.17,2.17,5.16,3.51,8.46,3.51c3.31,0,6.3-1.34,8.46-3.51 c2.17-2.17,3.51-5.16,3.51-8.46C102.91,57.78,101.57,54.79,99.4,52.62L99.4,52.62z M41.04,52.62c-2.17-2.17-5.16-3.51-8.46-3.51 c-3.31,0-6.3,1.34-8.46,3.51c-2.17,2.17-3.51,5.16-3.51,8.46c0,3.31,1.34,6.3,3.51,8.46c2.17,2.17,5.16,3.51,8.46,3.51 c3.31,0,6.3-1.34,8.46-3.51c2.17-2.17,3.51-5.16,3.51-8.46C44.54,57.78,43.2,54.79,41.04,52.62L41.04,52.62z"/></g></svg>