<svg id="Layer_1" data-name="Layer 1" xmlns="http://www.w3.org/2000/svg" viewBox="0 0 56.89 122.88"><defs><style>.cls-1{fill-rule:evenodd;}</style></defs><title>remote-controller</title><path class="cls-1" d="M2.15,38.43c.71-.45,1.43-.88,2.14-1.3A49.67,49.67,0,0,1,24.86,30.2a4,4,0,0,1,7.16,0c7.43.63,15,3.3,22.72,8.25,1,.64,2.23,1,2.14,2.14l-5.57,77.26c-.08,1.18-1,1.83-2.14,2.14a72.53,72.53,0,0,1-40.66,0c-1.13-.32-2-1-2.14-2.14L0,40.57c-.1-1.17,1.14-1.51,2.14-2.14Zm14.73-13.3a3,3,0,0,1-2.24.67,3.09,3.09,0,0,1-2-1c-.06-.06-.11-.13-.16-.19a3.07,3.07,0,0,1,.43-4.13l.18-.14a28.06,28.06,0,0,1,7.44-4.4,22,22,0,0,1,8-1.54,21.79,21.79,0,0,1,7.92,1.49,27.44,27.44,0,0,1,7.45,4.43,3,3,0,0,1,.45,4.3h0a3.07,3.07,0,0,1-4.3.45h0a21.09,21.09,0,0,0-5.71-3.42,15.34,15.34,0,0,0-5.8-1.13,15.75,15.75,0,0,0-5.83,1.17,22.08,22.08,0,0,0-5.79,3.46Zm-9.7-9.86A.87.87,0,0,1,7,15.4a3.09,3.09,0,0,1-2.11.68,3,3,0,0,1-2-1A.7.7,0,0,1,2.73,15a3.05,3.05,0,0,1,.34-4.21A46.16,46.16,0,0,1,15.61,2.62,32.16,32.16,0,0,1,28.65,0a32.17,32.17,0,0,1,13,3.05,46.36,46.36,0,0,1,12.29,8.53l.07.07a3.09,3.09,0,0,1,.89,2.07A3,3,0,0,1,54,15.9l-.08.08A3,3,0,0,1,49.7,16,40.64,40.64,0,0,0,39.18,8.67,26,26,0,0,0,28.56,6.11a26.17,26.17,0,0,0-10.72,2.2,40.46,40.46,0,0,0-10.66,7ZM28.44,46.84A14.63,14.63,0,1,1,13.82,61.46,14.63,14.63,0,0,1,28.44,46.84ZM37.68,102H44a1.17,1.17,0,0,1,1.17,1.17v6A1.17,1.17,0,0,1,44,110.33H37.68a1.18,1.18,0,0,1-1.17-1.17v-6A1.18,1.18,0,0,1,37.68,102Zm-12.4,0h6.33a1.18,1.18,0,0,1,1.17,1.17v6a1.18,1.18,0,0,1-1.17,1.17H25.28a1.17,1.17,0,0,1-1.17-1.17v-6A1.17,1.17,0,0,1,25.28,102Zm-12.41,0H19.2a1.17,1.17,0,0,1,1.17,1.17v6a1.17,1.17,0,0,1-1.17,1.17H12.87a1.18,1.18,0,0,1-1.17-1.17v-6A1.18,1.18,0,0,1,12.87,102Zm24.81-14H44a1.17,1.17,0,0,1,1.17,1.17v6A1.17,1.17,0,0,1,44,96.29H37.68a1.18,1.18,0,0,1-1.17-1.17v-6a1.18,1.18,0,0,1,1.17-1.17Zm-12.4,0h6.33a1.18,1.18,0,0,1,1.17,1.17v6a1.18,1.18,0,0,1-1.17,1.17H25.28a1.17,1.17,0,0,1-1.17-1.17v-6a1.17,1.17,0,0,1,1.17-1.17Zm-12.41,0H19.2a1.17,1.17,0,0,1,1.17,1.17v6a1.17,1.17,0,0,1-1.17,1.17H12.87a1.18,1.18,0,0,1-1.17-1.17v-6a1.18,1.18,0,0,1,1.17-1.17ZM28.59,51.55h0a2.81,2.81,0,0,1,2.81,2.81V59h4.65a2.82,2.82,0,0,1,2.81,2.8h0a2.82,2.82,0,0,1-2.81,2.81H31.4v4.65a2.81,2.81,0,0,1-2.81,2.81h0a2.82,2.82,0,0,1-2.81-2.81V64.62H21.13a2.81,2.81,0,0,1-2.8-2.81h0a2.81,2.81,0,0,1,2.8-2.8h4.65V54.36a2.82,2.82,0,0,1,2.81-2.81Z"/></svg>