<?xml version="1.0" encoding="utf-8"?><svg version="1.1" id="Layer_1" xmlns="http://www.w3.org/2000/svg" xmlns:xlink="http://www.w3.org/1999/xlink" x="0px" y="0px" viewBox="0 0 123.38 122.69" style="enable-background:new 0 0 123.38 122.69" xml:space="preserve"><style type="text/css">.st0{fill-rule:evenodd;clip-rule:evenodd;stroke:#000000;stroke-width:0.5;stroke-miterlimit:2.6131;}</style><g><path class="st0" d="M0.8,45.21c0.22-0.98,0.46-1.95,0.71-2.91c2.39-9.01,6.16-16.81,11.52-23.23c-0.55-1.67-0.16-3.58,1.16-4.9 c1.32-1.32,3.21-1.71,4.87-1.17c6.81-5.75,15.45-9.89,26.16-12.22c1.38-0.3,2.69-1.05,3.62,0l73.68,83.09 c0.93,1.05,0.69,2.39,0,3.62c-8.57,15.29-20.17,26.53-34.34,34.34c-1.23,0.68-2.56,0.92-3.62,0L0.8,48.83 C-0.26,47.91,0.49,46.59,0.8,45.21L0.8,45.21z M30.11,30.1c6.82-6.82,17.88-6.82,24.7,0c6.82,6.82,6.82,17.88,0,24.71 c-6.82,6.82-17.88,6.82-24.7,0C23.29,47.99,23.29,36.93,30.11,30.1L30.11,30.1z M51.44,77.74l5.35-5.35c0.54-0.54,1.43-0.54,1.97,0 l5.1,5.1c0.54,0.54,0.54,1.43,0,1.97l-5.35,5.35c-0.54,0.54-1.43,0.54-1.97,0l-5.1-5.1C50.9,79.17,50.9,78.28,51.44,77.74 L51.44,77.74z M96.11,80.49l5.35-5.35c0.54-0.54,1.43-0.54,1.97,0l5.1,5.1c0.54,0.54,0.54,1.43,0,1.97l-5.35,5.35 c-0.54,0.54-1.43,0.54-1.97,0l-5.1-5.1C95.57,81.93,95.57,81.04,96.11,80.49L96.11,80.49z M85.63,90.97l5.35-5.35 c0.54-0.54,1.43-0.54,1.97,0l5.1,5.1c0.54,0.54,0.54,1.43,0,1.97l-5.35,5.35c-0.54,0.54-1.43,0.54-1.97,0l-5.1-5.1 C85.09,92.4,85.09,91.51,85.63,90.97L85.63,90.97z M75.15,101.45l5.35-5.35c0.54-0.54,1.43-0.54,1.97,0l5.1,5.1 c0.54,0.54,0.54,1.43,0,1.97l-5.35,5.35c-0.54,0.54-1.43,0.54-1.97,0l-5.1-5.1C74.61,102.88,74.61,101.99,75.15,101.45 L75.15,101.45z M84.25,68.64l5.35-5.35c0.54-0.54,1.43-0.54,1.97,0l5.1,5.1c0.54,0.54,0.54,1.43,0,1.97l-5.35,5.35 c-0.54,0.54-1.43,0.54-1.97,0l-5.1-5.1C83.71,70.07,83.71,69.18,84.25,68.64L84.25,68.64z M73.77,79.12l5.35-5.35 c0.54-0.54,1.43-0.54,1.97,0l5.1,5.1c0.54,0.54,0.54,1.43,0,1.97l-5.35,5.35c-0.54,0.54-1.43,0.54-1.97,0l-5.1-5.1 C73.23,80.55,73.23,79.66,73.77,79.12L73.77,79.12z M63.3,89.59l5.35-5.35c0.54-0.54,1.43-0.54,1.97,0l5.1,5.1 c0.54,0.54,0.54,1.43,0,1.97l-5.35,5.35c-0.54,0.54-1.43,0.54-1.97,0l-5.1-5.1C62.75,91.03,62.75,90.14,63.3,89.59L63.3,89.59z M72.4,56.78l5.35-5.35c0.54-0.54,1.43-0.54,1.97,0l5.1,5.1c0.54,0.54,0.54,1.43,0,1.97l-5.35,5.35c-0.54,0.54-1.43,0.54-1.97,0 l-5.1-5.1C71.85,58.21,71.85,57.33,72.4,56.78L72.4,56.78z M61.92,67.26l5.35-5.35c0.54-0.54,1.43-0.54,1.97,0l5.1,5.1 c0.54,0.54,0.54,1.43,0,1.97l-5.35,5.35c-0.54,0.54-1.43,0.54-1.97,0l-5.1-5.1C61.38,68.69,61.38,67.8,61.92,67.26L61.92,67.26z M34.21,33.96L34.21,33.96c1.3-1.3,3.44-1.3,4.74,0l3.93,3.93l3.93-3.93c1.3-1.3,3.44-1.3,4.74,0l0,0c1.3,1.3,1.3,3.44,0,4.74 l-3.93,3.93l3.93,3.93c1.3,1.3,1.3,3.44,0,4.74v0c-1.3,1.3-3.44,1.3-4.74,0l-3.93-3.93l-3.93,3.93c-1.3,1.3-3.44,1.3-4.74,0v0 c-1.3-1.3-1.3-3.44,0-4.74l3.93-3.93l-3.93-3.93C32.91,37.4,32.91,35.26,34.21,33.96L34.21,33.96z"/></g></svg>