<svg xmlns="http://www.w3.org/2000/svg" shape-rendering="geometricPrecision" text-rendering="geometricPrecision" image-rendering="optimizeQuality" fill-rule="evenodd" clip-rule="evenodd" viewBox="0 0 512 295.15"><path fill-rule="nonzero" d="M40.35 266.28c1.63 10.3-5.4 19.98-15.7 21.61-10.3 1.63-19.98-5.39-21.61-15.69C.99 259.35 0 246.86 0 234.81c0-57.26 20.94-110.69 56.09-152.06 35.14-41.36 84.55-70.69 141.48-79.74C209.99 1.03 222.5 0 234.99 0c64.89 0 123.63 26.3 166.15 68.82 40.22 40.21 65.92 94.95 68.59 155.66l9.67-10.13c7.19-7.56 19.16-7.86 26.73-.66 7.56 7.19 7.86 19.16.66 26.72l-42.45 44.46a18.821 18.821 0 0 1-4.4 3.43c-7.71 5.82-18.74 4.91-25.37-2.38l-41.46-45.39c-7.03-7.73-6.47-19.7 1.26-26.73 7.72-7.03 19.7-6.47 26.73 1.26l10.79 11.81c-2.07-51.2-23.67-97.37-57.55-131.25-35.66-35.65-84.93-57.71-139.35-57.71-11.03 0-21.55.83-31.5 2.41-47.65 7.58-89.04 32.17-118.53 66.87-29.48 34.7-47.05 79.55-47.05 127.62 0 10.62.8 21.15 2.44 31.47zm205.22 10.71c-4.03-6.32-6.84-13.61-8.39-21.87-1.55-8.26-2.33-18.67-2.33-31.22 0-12.55.78-24.95 2.33-33.21 1.55-8.26 4.36-15.56 8.39-21.86 4.04-6.31 9.84-10.92 17.42-13.82 7.58-2.9 17.17-4.35 28.78-4.35s21.17 1.45 28.67 4.35c7.51 2.9 13.32 7.51 17.42 13.82 4.11 6.3 6.92 13.59 8.4 21.86 1.48 8.26 2.22 20.7 2.22 33.32 0 12.62-.75 23.03-2.22 31.22-1.49 8.19-4.3 15.45-8.4 21.76-4.1 6.3-9.92 10.92-17.42 13.81-7.5 2.89-17.06 4.35-28.67 4.35-11.61 0-21.21-1.46-28.78-4.35-7.57-2.89-13.38-7.5-17.42-13.81zm31.09-79.78v62.92h8.92c6.37 0 14.73-.7 17.27-2.07 2.54-1.37 3.83-4.53 3.83-9.46v-62.91h-9.99c-6.22 0-14.38.66-16.63 1.95-2.26 1.3-3.4 4.52-3.4 9.57zm-57.9 96.67h-97.28v-37.42l18.48-18.27c3.96-3.77 7.79-7.54 11.47-11.32l8.92-9.13c2.41-2.47 4.6-5.22 6.58-8.27 1.99-3.05 3.16-5.33 3.51-6.85.35-1.53.53-3.08.53-4.68 0-3.77-1.06-6.16-3.19-7.18-2.12-1.01-5.87-1.52-11.26-1.52-10.19 0-19.54.79-28.03 2.39l-4.46.87-2.12-37.2c14.72-5.36 30.12-8.05 46.2-8.05 16.06 0 28.67 3.74 37.8 11.2 9.13 7.48 13.7 17.84 13.7 31.11s-2.13 23.68-6.37 31.22c-4.25 7.54-12.18 15.45-23.79 23.72l-14.24 10.22h43.55v39.16z"/></svg>