<svg xmlns="http://www.w3.org/2000/svg" shape-rendering="geometricPrecision" text-rendering="geometricPrecision" image-rendering="optimizeQuality" fill-rule="evenodd" clip-rule="evenodd" viewBox="0 0 512 196.3"><path fill-rule="nonzero" d="M98.15 0h315.7c27 0 51.54 11.04 69.33 28.82C500.96 46.61 512 71.15 512 98.15c0 26.96-11.05 51.5-28.85 69.3-17.76 17.8-42.31 28.85-69.3 28.85H98.15c-26.99 0-51.54-11.05-69.32-28.83l-.45-.49C10.86 149.22 0 124.88 0 98.15c0-27 11.04-51.54 28.82-69.33C46.61 11.04 71.15 0 98.15 0zm271.06 63.3h11.21c2.12 0 3.85 1.75 3.85 3.86v61.98c0 2.11-1.74 3.86-3.85 3.86h-11.21c-2.12 0-3.86-1.74-3.86-3.86V67.16c0-2.12 1.74-3.86 3.86-3.86zm-227.14 70.77c-3.89 0-7.3-.77-10.24-2.31-2.94-1.54-5.22-3.69-6.82-6.47-1.61-2.77-2.41-5.97-2.41-9.58v-2.91c0-.33.11-.62.35-.85.23-.24.52-.35.85-.35h11.54c.33 0 .62.11.85.35.24.23.35.52.35.85v2.21c0 2.07.54 3.74 1.61 5.01 1.07 1.27 2.41 1.91 4.01 1.91 1.61 0 2.95-.6 4.02-1.81 1.07-1.2 1.6-2.77 1.6-4.71 0-2.01-.67-3.73-2-5.17-1.34-1.44-3.95-3.56-7.83-6.37-3.35-2.41-6.06-4.55-8.13-6.42-2.07-1.87-3.84-4.18-5.32-6.92-1.46-2.75-2.2-5.92-2.2-9.54 0-5.68 1.77-10.23 5.31-13.64 3.55-3.41 8.23-5.12 14.05-5.12 5.89 0 10.62 1.78 14.2 5.32s5.37 8.19 5.37 13.95v2.41a1.193 1.193 0 0 1-1.21 1.2h-11.53a1.193 1.193 0 0 1-1.21-1.2v-2.72c0-2.07-.52-3.72-1.55-4.96-1.04-1.24-2.4-1.86-4.07-1.86-1.6 0-2.91.59-3.91 1.76-1.01 1.17-1.5 2.79-1.5 4.86 0 2.01.63 3.78 1.9 5.32 1.27 1.54 3.78 3.68 7.52 6.42 4.15 3.08 7.28 5.57 9.39 7.48 2.1 1.91 3.74 4.01 4.91 6.32 1.17 2.31 1.76 5.07 1.76 8.28 0 5.88-1.81 10.57-5.42 14.04-3.61 3.48-8.36 5.22-14.24 5.22zm30.7-.8a1.193 1.193 0 0 1-1.21-1.21V64.24a1.193 1.193 0 0 1 1.21-1.21h11.73a1.193 1.193 0 0 1 1.21 1.21v25.28c0 .27.08.42.25.46.16.03.28-.09.35-.36l12.94-25.68c.34-.6.8-.91 1.41-.91h12.44c.47 0 .79.12.95.35.17.24.15.59-.05 1.06l-14.85 28.89c-.07.27-.1.47-.1.61l15.75 37.92c.07.14.1.34.1.6 0 .54-.33.81-1 .81h-12.54c-.74 0-1.2-.3-1.4-.91l-10.44-26.28c-.07-.2-.17-.29-.3-.25-.13.03-.27.11-.4.25l-2.91 5.21c-.14.27-.2.47-.2.61v20.16a1.193 1.193 0 0 1-1.21 1.21h-11.73zm52.27 0c-.34 0-.62-.12-.85-.35-.24-.24-.36-.52-.36-.86V64.24c0-.33.12-.62.36-.86.23-.23.51-.35.85-.35h11.74c.33 0 .62.12.85.35.23.24.35.53.35.86v67.82c0 .34-.12.62-.35.86-.23.23-.52.35-.85.35h-11.74zm46.26-70.34c3.67 0 6.95.91 9.83 2.71 2.87 1.81 5.1 4.34 6.67 7.58 1.57 3.24 2.36 6.94 2.36 11.08 0 6.23-1.68 11.21-5.02 14.96-3.34 3.74-7.73 5.61-13.14 5.61h-7.53c-.33 0-.5.17-.5.5v26.69a1.193 1.193 0 0 1-1.2 1.21h-11.74a1.193 1.193 0 0 1-1.21-1.21V64.14c0-.34.12-.62.35-.85.24-.24.52-.36.86-.36h20.27zm-2.41 30.91c2.14 0 3.86-.82 5.17-2.46 1.3-1.64 1.95-3.9 1.95-6.77 0-2.95-.65-5.25-1.95-6.93-1.31-1.67-3.03-2.51-5.17-2.51h-4.42c-.33 0-.5.17-.5.51v17.65c0 .34.17.51.5.51h4.42zm84.66 9.5c3.87-3.44 3.76-6.51 0-10l-30.9-28.83c-4.21-2.64-8.6-1.09-8.48 4.41l.16 58c.36 5.95 3.76 7.59 8.78 4.83l30.44-28.41zm60.3-87.55H98.15c-22.64 0-43.23 9.27-58.16 24.2s-24.2 35.52-24.2 58.16c0 22.47 9.11 42.89 23.79 57.77l.41.38c14.93 14.93 35.53 24.21 58.16 24.21h315.7c22.63 0 43.23-9.28 58.16-24.21 14.94-14.9 24.2-35.49 24.2-58.15 0-22.64-9.27-43.23-24.2-58.16s-35.52-24.2-58.16-24.2z"/></svg>