<svg xmlns="http://www.w3.org/2000/svg" shape-rendering="geometricPrecision" text-rendering="geometricPrecision" image-rendering="optimizeQuality" fill-rule="evenodd" clip-rule="evenodd" viewBox="0 0 512 296.67"><path fill-rule="nonzero" d="M40.35 266.28c1.63 10.3-5.4 19.98-15.7 21.61-10.3 1.64-19.98-5.39-21.61-15.69C.99 259.35 0 246.86 0 234.82c0-57.27 20.94-110.7 56.09-152.07 35.14-41.36 84.55-70.69 141.48-79.74C209.99 1.03 222.5 0 234.99 0c64.89 0 123.63 26.3 166.15 68.82 40.22 40.21 65.92 94.95 68.59 155.66l9.67-10.13c7.19-7.56 19.16-7.86 26.73-.66 7.56 7.19 7.86 19.16.66 26.72l-42.45 44.46a18.821 18.821 0 0 1-4.4 3.43c-7.71 5.82-18.74 4.91-25.37-2.38l-41.46-45.39c-7.03-7.72-6.47-19.7 1.26-26.73 7.72-7.03 19.7-6.47 26.73 1.26l10.79 11.81c-2.07-51.2-23.67-97.37-57.55-131.25-35.66-35.65-84.93-57.71-139.35-57.71-11.03 0-21.55.83-31.5 2.41-47.65 7.58-89.04 32.17-118.53 66.87-29.48 34.7-47.05 79.55-47.05 127.63 0 10.61.8 21.14 2.44 31.46zm120.64-118.64c20.81 0 35.93 3.05 45.35 9.14 9.42 6.09 14.12 16.82 14.12 32.2 0 7.98-.95 14.07-2.86 18.27-1.92 4.21-5.28 8.05-10.09 11.54 5.37 4.2 9.2 8.37 11.46 12.5 2.27 4.14 3.41 9.98 3.41 17.52 0 18.13-4.61 30.64-13.81 37.53-9.21 6.89-23.44 10.33-42.7 10.33-11.75 0-24.5-1.37-38.23-4.13l-7.01-1.53 1.27-38.07c16.29 1.45 27.9 2.18 34.84 2.18 6.93 0 11.54-.4 13.8-1.2 2.27-.8 3.4-2.54 3.4-5.22 0-2.69-.77-4.53-2.33-5.55-1.56-1.01-4.53-1.74-8.93-2.18h-29.95v-38.5h28.05c7.64 0 11.46-2.22 11.46-6.64s-4.89-6.64-14.65-6.64c-6.66 0-16.43.51-29.31 1.53l-5.53.43-1.06-37.2c16.29-4.2 29.39-6.31 39.3-6.31zm85.43 129.31c-4.03-6.31-6.84-13.61-8.39-21.86-1.55-8.26-2.33-18.68-2.33-31.22 0-12.55.78-24.95 2.33-33.22 1.55-8.26 4.36-15.55 8.39-21.86 4.04-6.31 9.84-10.91 17.42-13.82 7.58-2.9 17.17-4.35 28.78-4.35s21.17 1.45 28.68 4.35c7.5 2.91 13.31 7.51 17.41 13.82 4.11 6.31 6.92 13.6 8.4 21.86 1.48 8.27 2.22 20.71 2.22 33.32 0 12.63-.75 23.04-2.22 31.22-1.49 8.19-4.3 15.45-8.4 21.76-4.1 6.3-9.92 10.92-17.41 13.81-7.51 2.9-17.07 4.36-28.68 4.36s-21.21-1.46-28.78-4.36c-7.57-2.89-13.38-7.5-17.42-13.81zm31.09-79.77v62.91h8.92c6.37 0 14.73-.7 17.27-2.07 2.54-1.36 3.83-4.53 3.83-9.46v-62.91h-9.99c-6.22 0-14.38.66-16.63 1.96-2.26 1.29-3.4 4.51-3.4 9.57z"/></svg>