<svg id="Layer_1" data-name="Layer 1" xmlns="http://www.w3.org/2000/svg" viewBox="0 0 72.02 122.88"><defs><style>.cls-1{fill-rule:evenodd;}</style></defs><title>stereo-speaker</title><path class="cls-1" d="M4,0H68a4.06,4.06,0,0,1,4,4V118.85a4.06,4.06,0,0,1-4,4H4a4.06,4.06,0,0,1-4-4V4A4,4,0,0,1,4,0ZM36,12.23a16.49,16.49,0,0,1,11.66,4.83h0a16.49,16.49,0,0,1,0,23.32h0A16.5,16.5,0,1,1,36,12.23Zm8.36,8.13a11.82,11.82,0,1,0,0,16.74h0a11.85,11.85,0,0,0,0-16.72ZM36,24.1a4.63,4.63,0,1,1-4.63,4.63A4.63,4.63,0,0,1,36,24.1Zm0,53.13a7.61,7.61,0,1,1-7.61,7.61A7.61,7.61,0,0,1,36,77.23Zm0-18.14A25.74,25.74,0,1,1,17.8,66.63,25.67,25.67,0,0,1,36,59.09ZM50.34,70.51a20.28,20.28,0,1,0,5.93,14.33,20.23,20.23,0,0,0-5.93-14.33Zm-41.93,38a1.84,1.84,0,1,1-1.84,1.83,1.83,1.83,0,0,1,1.84-1.83Zm55.2-51.07a1.84,1.84,0,1,1-1.83,1.83,1.84,1.84,0,0,1,1.83-1.83Zm-55.2,0A1.84,1.84,0,1,1,6.57,59.3a1.83,1.83,0,0,1,1.84-1.83Zm55.2,51.07a1.84,1.84,0,1,1-1.83,1.83,1.84,1.84,0,0,1,1.83-1.83Z"/></svg>