<svg id="Layer_1" data-name="Layer 1" xmlns="http://www.w3.org/2000/svg" viewBox="0 0 96.5 122.88"><defs><style>.cls-1{fill-rule:evenodd;}</style></defs><title>tripod</title><path class="cls-1" d="M22,6.07V7.45H36.13V3.78A3.79,3.79,0,0,1,39.91,0H72.15a3.79,3.79,0,0,1,3.77,3.78V16a3.79,3.79,0,0,1-3.77,3.78H60.48v5.34h6.67a2.61,2.61,0,0,1,2.6,2.6v1h2.4a3.79,3.79,0,0,1,3.77,3.78v3.9a3.79,3.79,0,0,1-3.77,3.78H59.87a3.4,3.4,0,0,1,1.06,1.22L83.6,84.89l.52-.27a1.9,1.9,0,0,1,2.56.8l9.6,18.43a1.9,1.9,0,0,1-.8,2.56l-.52.27,1,2a3.5,3.5,0,0,1-6.22,3.23l-1-2-.31.16a1.91,1.91,0,0,1-2.56-.8l-9.6-18.43a1.91,1.91,0,0,1,.8-2.56l.31-.16L59.54,53.89V92.54h.34a1.9,1.9,0,0,1,1.9,1.9v20.78a1.9,1.9,0,0,1-1.9,1.89h-.34v2.26a3.51,3.51,0,0,1-7,0v-2.26h-.58a1.9,1.9,0,0,1-1.9-1.89V94.44a1.9,1.9,0,0,1,1.9-1.9h.58V52.07L33.73,88.13l.31.16a1.91,1.91,0,0,1,.8,2.56l-9.6,18.43a1.91,1.91,0,0,1-2.56.8l-.31-.16-1,2a3.5,3.5,0,0,1-6.22-3.23l1-2-.52-.27a1.9,1.9,0,0,1-.8-2.56l9.6-18.43a1.9,1.9,0,0,1,2.56-.8l.52.27L50.18,41.38a3.4,3.4,0,0,1,1.06-1.22H39.91a3.79,3.79,0,0,1-3.78-3.78v-3.9a3.79,3.79,0,0,1,3.78-3.78H42.3v-1a2.61,2.61,0,0,1,2.61-2.6h6.67V19.79H39.91A3.79,3.79,0,0,1,36.13,16V12H22v1.14a1.7,1.7,0,0,1-1.7,1.7H1.69A1.7,1.7,0,0,1,0,13.16V6.07a1.7,1.7,0,0,1,1.69-1.7H20.25A1.7,1.7,0,0,1,22,6.07ZM65.78,4.63a5,5,0,1,1-5,5,5,5,0,0,1,5-5Z"/></svg>