<?xml version="1.0" encoding="utf-8"?><svg version="1.1" id="Layer_1" xmlns="http://www.w3.org/2000/svg" xmlns:xlink="http://www.w3.org/1999/xlink" x="0px" y="0px" viewBox="0 0 122.88 61.34" style="enable-background:new 0 0 122.88 61.34" xml:space="preserve"><g><path d="M49.05,15.88c0-1.42,1.15-2.57,2.57-2.57s2.57,1.15,2.57,2.57v29.6c0,1.42-1.15,2.57-2.57,2.57s-2.57-1.15-2.57-2.57V15.88 L49.05,15.88L49.05,15.88z M73.83,15.88c0-1.42-1.15-2.57-2.57-2.57c-1.42,0-2.57,1.15-2.57,2.57v29.6c0,1.42,1.15,2.57,2.57,2.57 c1.42,0,2.57-1.15,2.57-2.57V15.88L73.83,15.88L73.83,15.88z M122.88,9.46c0-1.42-1.14-2.56-2.53-2.56c-1.4,0-2.53,1.14-2.53,2.56 v42.43c0,1.42,1.14,2.56,2.53,2.56c1.4,0,2.53-1.14,2.53-2.56V9.46L122.88,9.46L122.88,9.46z M113.11,2.57 c0-1.42-1.15-2.57-2.57-2.57s-2.57,1.15-2.57,2.57v56.2c0,1.42,1.15,2.57,2.57,2.57s2.57-1.15,2.57-2.57V2.57L113.11,2.57 L113.11,2.57z M83.65,21.66c0-1.42-1.15-2.57-2.57-2.57c-1.42,0-2.57,1.15-2.57,2.57v18.02c0,1.42,1.15,2.57,2.57,2.57 c1.42,0,2.57-1.15,2.57-2.57V21.66L83.65,21.66L83.65,21.66z M93.46,15.88c0-1.42-1.15-2.57-2.57-2.57c-1.42,0-2.57,1.15-2.57,2.57 v29.6c0,1.42,1.15,2.57,2.57,2.57c1.42,0,2.57-1.15,2.57-2.57V15.88L93.46,15.88L93.46,15.88z M103.25,9.46 c0-1.42-1.14-2.56-2.53-2.56c-1.4,0-2.53,1.14-2.53,2.56v42.43c0,1.42,1.14,2.56,2.53,2.56c1.4,0,2.53-1.14,2.53-2.56V9.46 L103.25,9.46L103.25,9.46z M0,9.46C0,8.05,1.14,6.9,2.53,6.9c1.4,0,2.53,1.14,2.53,2.56v42.43c0,1.42-1.14,2.56-2.53,2.56 C1.13,54.45,0,53.3,0,51.89V9.46L0,9.46L0,9.46z M9.78,2.57C9.78,1.15,10.93,0,12.35,0c1.42,0,2.57,1.15,2.57,2.57v56.2 c0,1.42-1.15,2.57-2.57,2.57c-1.42,0-2.57-1.15-2.57-2.57V2.57L9.78,2.57L9.78,2.57z M39.23,21.66c0-1.42,1.15-2.57,2.57-2.57 c1.42,0,2.57,1.15,2.57,2.57v18.02c0,1.42-1.15,2.57-2.57,2.57c-1.42,0-2.57-1.15-2.57-2.57V21.66L39.23,21.66L39.23,21.66z M29.42,15.88c0-1.42,1.15-2.57,2.57-2.57c1.42,0,2.57,1.15,2.57,2.57v29.6c0,1.42-1.15,2.57-2.57,2.57 c-1.42,0-2.57-1.15-2.57-2.57V15.88L29.42,15.88L29.42,15.88z M19.63,9.46c0-1.42,1.14-2.56,2.53-2.56c1.4,0,2.53,1.14,2.53,2.56 v42.43c0,1.42-1.14,2.56-2.53,2.56c-1.4,0-2.53-1.14-2.53-2.56V9.46L19.63,9.46L19.63,9.46z M58.9,9.46c0-1.42,1.14-2.56,2.53-2.56 c1.4,0,2.53,1.14,2.53,2.56v42.43c0,1.42-1.14,2.56-2.53,2.56c-1.4,0-2.53-1.14-2.53-2.56V9.46L58.9,9.46L58.9,9.46z"/></g></svg>