<svg id="Layer_1" data-name="Layer 1" xmlns="http://www.w3.org/2000/svg" viewBox="0 0 84.81 122.88"><defs><style>.cls-1{fill-rule:evenodd;}</style></defs><title>server</title><path class="cls-1" d="M72.72,68.09H36.36A2.08,2.08,0,0,1,34.28,66V54.72a2.08,2.08,0,0,1,2.08-2.08H72.72a2.08,2.08,0,0,1,2.08,2.08V66a2.08,2.08,0,0,1-2.08,2.08ZM61.67,21H58.36V12.48h3.31V21Zm9.82,0H68.18V12.48h3.31V21Zm-31.57.34a4.62,4.62,0,1,1,4.62-4.61,4.61,4.61,0,0,1-4.62,4.61ZM0,107.87H0A2.44,2.44,0,0,0,1.42,110l24.06,12.43a2.35,2.35,0,0,0,1.1.27h.14l55.78.17a2.33,2.33,0,0,0,2.31-2.33h0V2.32h0A2.32,2.32,0,0,0,82.5,0h-56L1.24,13A2.32,2.32,0,0,0,0,15.07H0v92.8ZM4.66,16.59,24.25,6.22V116.66L4.65,106.42c0-29.59,0-60.24,0-89.83ZM28.9,4.65H80.18V118.24l-51.28-.18V4.65ZM72.72,46.27H36.36a2.08,2.08,0,0,1-2.08-2.08V32.9a2.08,2.08,0,0,1,2.08-2.08H72.72a2.08,2.08,0,0,1,2.08,2.08V44.18a2.09,2.09,0,0,1-2.08,2.09Zm-33-5.85a1.88,1.88,0,1,1,1.88-1.88,1.88,1.88,0,0,1-1.88,1.88Zm15.81,1.2H53.15V35.47h2.37v6.15Zm7.06,0H60.21V35.47h2.37v6.15Zm7.06,0H67.27V35.47h2.37v6.15Zm3.08,70.11H36.36a2.08,2.08,0,0,1-2.08-2.08V98.36a2.09,2.09,0,0,1,2.08-2.08H72.72a2.08,2.08,0,0,1,2.08,2.08v11.29a2.08,2.08,0,0,1-2.08,2.08Zm-33-5.84A1.89,1.89,0,1,1,41.59,104a1.88,1.88,0,0,1-1.88,1.88Zm15.81,1.19H53.15v-6.15h2.37v6.15Zm7.06,0H60.21v-6.15h2.37v6.15Zm7.06,0H67.27v-6.15h2.37v6.15Zm3.08-17.17H36.36a2.08,2.08,0,0,1-2.08-2.08V76.54a2.09,2.09,0,0,1,2.08-2.08H72.72a2.08,2.08,0,0,1,2.08,2.08V87.83a2.08,2.08,0,0,1-2.08,2.08Zm-33-5.84a1.89,1.89,0,1,1,1.88-1.89,1.88,1.88,0,0,1-1.88,1.89Zm15.81,1.19H53.15V79.11h2.37v6.15Zm7.06,0H60.21V79.11h2.37v6.15Zm7.06,0H67.27V79.11h2.37v6.15Zm-29.93-23a1.89,1.89,0,1,1,1.88-1.89,1.89,1.89,0,0,1-1.88,1.89Zm15.81,1.19H53.15V57.29h2.37v6.15Zm7.06,0H60.21V57.29h2.37v6.15Zm7.06,0H67.27V57.29h2.37v6.15Z"/></svg>