<?xml version="1.0" encoding="utf-8"?><svg version="1.1" id="Layer_1" xmlns="http://www.w3.org/2000/svg" xmlns:xlink="http://www.w3.org/1999/xlink" x="0px" y="0px" viewBox="0 0 76.99 122.88" style="enable-background:new 0 0 76.99 122.88" xml:space="preserve"><style type="text/css">.st0{fill-rule:evenodd;clip-rule:evenodd;}</style><g><path class="st0" d="M58.33,91.24c0-0.15-0.01-0.29-0.01-0.44V2.44c0-0.15,0.01-0.3,0.01-0.44c-0.09-0.49-0.34-0.94-0.68-1.28 C57.21,0.28,56.6,0,55.94,0H10.02C9.35,0,8.74,0.28,8.3,0.72C7.85,1.16,7.58,1.77,7.58,2.44V90.8c0,0.67,0.28,1.28,0.72,1.72 c0.44,0.45,1.05,0.72,1.72,0.72h17.91v3.93c-2.17,0.62-4.1,1.78-5.65,3.33c-1.51,1.51-2.66,3.39-3.29,5.49H0v7.23h0h18.89 c0.61,2.23,1.79,4.22,3.38,5.81c2.37,2.37,5.65,3.84,9.27,3.84c3.62,0,6.89-1.47,9.27-3.84c1.59-1.59,2.77-3.58,3.38-5.81h32.81 V106h-32.9c-0.63-2.1-1.78-3.98-3.29-5.49c-1.55-1.55-3.49-2.71-5.65-3.33v-3.93h20.79c0.66,0,1.27-0.28,1.72-0.72 C57.99,92.18,58.24,91.74,58.33,91.24L58.33,91.24L58.33,91.24z M35.69,105.62c-1.06-1.06-2.53-1.72-4.16-1.72 c-1.62,0-3.09,0.66-4.16,1.72c-1.06,1.06-1.72,2.53-1.72,4.16c0,1.62,0.66,3.09,1.72,4.16c1.06,1.06,2.53,1.72,4.16,1.72 c1.62,0,3.09-0.66,4.16-1.72c1.06-1.06,1.72-2.53,1.72-4.16C37.41,108.15,36.75,106.68,35.69,105.62L35.69,105.62z M39.53,73.07 c0,4.01-3.25,7.26-7.26,7.26c-4.01,0-7.26-3.25-7.26-7.26c0-4.01,3.25-7.26,7.26-7.26C36.28,65.8,39.53,69.05,39.53,73.07 L39.53,73.07z M49.32,10.36v6.11H16.63v-6.11H49.32L49.32,10.36L49.32,10.36z M49.32,27.24v6.11H16.63v-6.11H49.32L49.32,27.24 L49.32,27.24z M49.32,44.13v6.11H16.63v-6.11H49.32L49.32,44.13L49.32,44.13z"/></g></svg>