<svg id="Layer_1" data-name="Layer 1" xmlns="http://www.w3.org/2000/svg" viewBox="0 0 122.88 98.61"><defs><style>.cls-1{fill-rule:evenodd;}</style></defs><title>mail-server</title><path class="cls-1" d="M96.84,0H2.22A2.13,2.13,0,0,0,0,2.17V28.59a2.22,2.22,0,0,0,2.22,2.22H96.84a2.24,2.24,0,0,0,2.22-2.22V2.17A2.12,2.12,0,0,0,96.84,0ZM65.32,56.41H119a3.94,3.94,0,0,1,3.93,3.93l0,34.34a3.89,3.89,0,0,1-3.94,3.93H65.28a3.93,3.93,0,0,1-3.93-3.93l0-34.34a4,4,0,0,1,3.94-3.93Zm-.15,35.76,17.41-16.5L65.2,62.48l0,29.69Zm20.2-14.24L67.11,94.8H117L99.55,77.94l-5.81,4.94a1.77,1.77,0,0,1-2.27,0l-6.1-5Zm16.92-2.29L119,92.29l0-29.95-16.77,13.3ZM67.55,60.23l25,19,24-19ZM26.24,74.16v19.3H13.54V74.16ZM80.7,9.41A6.61,6.61,0,1,1,74.09,16,6.61,6.61,0,0,1,80.7,9.41ZM96.84,38H2.22A2.14,2.14,0,0,0,0,40.12V66.54a2.22,2.22,0,0,0,2.22,2.22H52.81V60.38a12.32,12.32,0,0,1,3.62-8.74l0,0A12.36,12.36,0,0,1,65.18,48H99.06V40.12A2.11,2.11,0,0,0,96.84,38ZM9.43,46.14H15V60.53H9.43V46.14Zm15.36,0h5.56V60.53H24.79V46.14ZM9.43,8.19H15V22.57H9.43V8.19Zm15.36,0h5.56V22.57H24.79V8.19Zm15.37,0h5.56V22.57H40.16V8.19Z"/></svg>