<?xml version="1.0" encoding="utf-8"?><svg version="1.1" id="Layer_1" xmlns="http://www.w3.org/2000/svg" xmlns:xlink="http://www.w3.org/1999/xlink" x="0px" y="0px" viewBox="0 0 122.88 116.16" style="enable-background:new 0 0 122.88 116.16" xml:space="preserve"><style type="text/css">.st0{fill-rule:evenodd;clip-rule:evenodd;}</style><g><path class="st0" d="M121.37,0c-0.11,0-0.22,0.01-0.33,0.01H42.63C42.52,0.01,42.41,0,42.3,0c-0.37,0.07-0.71,0.25-0.97,0.51 C41,0.84,40.79,1.3,40.79,1.81v21.9c0,0.5,0.21,0.96,0.54,1.3c0.34,0.33,0.79,0.54,1.3,0.54h78.41c0.5,0,0.96-0.21,1.3-0.54 c0.34-0.33,0.54-0.79,0.54-1.3V1.81c0-0.5-0.21-0.96-0.54-1.29C122.08,0.25,121.74,0.07,121.37,0L121.37,0L121.37,0z M112.83,6.29 l1.24,1.24c0.33,0.33,0.33,0.86,0,1.19l-1,1c0.28,0.52,0.03,1.66,0.62,1.66h1.3c0.46,0,0.84,0.38,0.84,0.84v1.76 c0,0.46-0.38,0.84-0.84,0.84h-1.42c-0.17,0.57-1.15,1.19-0.73,1.61l0.92,0.92c0.33,0.33,0.33,0.86,0,1.19l-1.24,1.24 c-0.33,0.33-0.86,0.33-1.19,0l-1-1c-0.52,0.28-1.66,0.03-1.66,0.62v1.3c0,0.46-0.38,0.84-0.84,0.84h-1.76 c-0.46,0-0.84-0.38-0.84-0.84v-1.42c-0.57-0.17-1.19-1.15-1.61-0.73l-0.92,0.92c-0.33,0.33-0.86,0.33-1.19,0l-1.24-1.24 c-0.33-0.33-0.33-0.86,0-1.19l1-1c-0.28-0.52-0.03-1.66-0.62-1.66l-1.3,0c-0.46,0-0.84-0.38-0.84-0.84v-1.76 c0-0.46,0.38-0.84,0.84-0.84h1.42c0.17-0.57,1.15-1.19,0.73-1.61l-0.92-0.92c-0.33-0.33-0.33-0.86,0-1.19l1.24-1.24 c0.33-0.33,0.86-0.33,1.19,0l1,1c0.52-0.28,1.07-0.49,1.66-0.62l0-1.3c0-0.46,0.38-0.84,0.84-0.84h1.76c0.46,0,0.84,0.38,0.84,0.84 v1.42c0.57,0.17,1.19,1.15,1.61,0.73l0.92-0.92C111.97,5.96,112.51,5.96,112.83,6.29L112.83,6.29L112.83,6.29z M107.17,9.43 c1.91,0,3.46,1.55,3.46,3.46c0,1.91-1.55,3.46-3.46,3.46c-1.91,0-3.46-1.55-3.46-3.46C103.71,10.97,105.26,9.43,107.17,9.43 L107.17,9.43z M0,64.4h24.43l-0.98,42.29l-23.45,0V64.4L0,64.4z M28.28,103.27l0.82-35.1l15.79,0.37 c6.67,1.36,13.27,5.14,19.87,9.51l12.26,0.29c5.54,0.46,8.32,6.16,2.84,9.73c-4.38,3.05-10.04,2.74-15.84,2.08 c-4.01-0.29-4.31,5.1-0.12,5.21c1.45,0.15,3.04-0.16,4.42-0.13c7.26,0.16,13.27-1.09,17.06-6.73l1.94-4.25l18.45-8.62 c9.2-2.79,15.46,6.91,8.58,13.39c-13.44,9.3-27.17,16.9-41.18,22.97c-10.21,5.89-20.27,5.45-30.2-0.7L28.28,103.27L28.28,103.27z M121.37,31.45c-0.11,0-0.22,0.01-0.33,0.01H42.63c-0.11,0-0.22-0.01-0.33-0.01c-0.37,0.07-0.71,0.25-0.97,0.51 c-0.33,0.33-0.54,0.79-0.54,1.29v21.9c0,0.5,0.21,0.96,0.54,1.3c0.34,0.33,0.79,0.54,1.3,0.54h78.41c0.5,0,0.96-0.21,1.3-0.54 c0.34-0.33,0.54-0.79,0.54-1.3v-21.9c0-0.5-0.21-0.96-0.54-1.29C122.08,31.7,121.74,31.52,121.37,31.45L121.37,31.45L121.37,31.45z M48.61,38.24h4.6v11.92h-4.6V38.24L48.61,38.24L48.61,38.24z M61.34,38.24h4.61v11.92h-4.61V38.24L61.34,38.24L61.34,38.24z M74.07,38.24h4.61v11.92h-4.61V38.24L74.07,38.24L74.07,38.24z M48.61,6.79h4.6v11.92h-4.6V6.79L48.61,6.79L48.61,6.79z M61.34,6.79h4.61v11.92h-4.61V6.79L61.34,6.79L61.34,6.79z M74.07,6.79h4.61v11.92h-4.61V6.79L74.07,6.79L74.07,6.79z"/></g></svg>