<svg id="Layer_1" data-name="Layer 1" xmlns="http://www.w3.org/2000/svg" viewBox="0 0 122.88 103.48"><title>public-cloud</title><path d="M86.35,29.93c-.76.37-1.51.78-2.26,1.22a52.32,52.32,0,0,0-6.73,4.78l-4.84-5.54a40.21,40.21,0,0,1,5.41-4.21,37.76,37.76,0,0,1,4.77-2.65c.66-.33,1.32-.64,2-.93a29.42,29.42,0,0,0-13-12.2A31.6,31.6,0,0,0,55,7.49a30.21,30.21,0,0,0-15.62,6.1A29.27,29.27,0,0,0,28.68,31.73l-.48,2.51-2.5.44a34.43,34.43,0,0,0-6.56,1.77,21.65,21.65,0,0,0-5,2.66,16.55,16.55,0,0,0-3,2.8A17,17,0,0,0,7.34,53a20.12,20.12,0,0,0,3.79,11.53,18.9,18.9,0,0,0,3.17,3.4,15.91,15.91,0,0,0,4.12,2.48,20.8,20.8,0,0,0,5.1,1.34h1.74A35.76,35.76,0,0,0,25,76.17c0,1,0,2,.12,3H23.38l-.46,0a28.63,28.63,0,0,1-7.29-1.87,23.17,23.17,0,0,1-6.05-3.63,25.88,25.88,0,0,1-4.4-4.73A27.44,27.44,0,0,1,0,53,24.29,24.29,0,0,1,5.52,37.18a23.93,23.93,0,0,1,4.34-4,29.4,29.4,0,0,1,6.63-3.55A40.32,40.32,0,0,1,22,27.92,36.17,36.17,0,0,1,34.92,7.77,37.56,37.56,0,0,1,54.34.18a39,39,0,0,1,20.54,3.6A36.88,36.88,0,0,1,92,20.65h0a29.8,29.8,0,0,1,4.79-.36,24.55,24.55,0,0,1,18.31,8,29.15,29.15,0,0,1,3,3.9,33,33,0,0,1,4.77,17.92c-.07,6.3-1.78,12.59-5.25,17.21A27.32,27.32,0,0,1,109,74.69a43.83,43.83,0,0,1-11.17,4.22c.06-.91.1-1.82.1-2.74a36.17,36.17,0,0,0-.32-4.8,34.49,34.49,0,0,0,7.79-3.09,20.45,20.45,0,0,0,6.4-5.41c2.5-3.33,3.73-8,3.78-12.87A25.55,25.55,0,0,0,112,36.14a20,20,0,0,0-2.25-2.89,17.35,17.35,0,0,0-13-5.62,25.34,25.34,0,0,0-10.4,2.3Zm-3.8,58.18.27-.5h0l.32-.61.33-.7.32-.7,0-.08q.23-.54.42-1.08c.13-.36.26-.73.37-1.1h0c.11-.37.22-.75.31-1.13s.19-.76.26-1.15.12-.62.17-.92.09-.6.13-.92h0c0-.28.06-.56.08-.84s0-.45,0-.67H78.94a20.84,20.84,0,0,1-.29,2.61A24.2,24.2,0,0,1,78,83a24.5,24.5,0,0,1-1,2.67c-.34.8-.73,1.6-1.16,2.39Zm-2,3.09H74c-.55.79-1.15,1.57-1.79,2.36S70.79,95.17,70,96s-1.44,1.49-2.23,2.23-1.31,1.21-2,1.81l.55-.1c.38-.08.76-.16,1.15-.26l1.15-.32c.37-.12.75-.25,1.12-.39s.75-.28,1.11-.44.74-.33,1.09-.5.71-.35,1.06-.54.69-.39,1-.59l1-.62c.32-.21.64-.44,1-.67s.61-.46.91-.71l.87-.75c.29-.26.57-.53.84-.8l.63-.65.59-.66.46-.54.21-.27ZM57.08,100c-.69-.6-1.36-1.21-2-1.81S53.56,96.71,52.86,96s-1.46-1.61-2.12-2.41S49.5,92,49,91.2H42.4l.22.27.45.54c.39.45.8.88,1.22,1.31h0c.27.27.55.53.83.79s.58.52.87.75.6.48.91.71.63.46,1,.67l1,.63c.33.2.67.4,1,.58s.71.37,1.06.54l1.1.5.08,0q.54.22,1.08.42c.36.14.73.26,1.1.38h0l1.13.32c.38.09.76.18,1.15.25l.51.1ZM40.33,88.12H47q-.65-1.2-1.17-2.4a26.2,26.2,0,0,1-1-2.68,22.37,22.37,0,0,1-.65-2.75,20.57,20.57,0,0,1-.29-2.58H37.25c0,.22,0,.44,0,.67s.06.57.09.84.08.62.13.92.1.6.16.91v0c.08.38.17.76.27,1.15s.2.77.32,1.14.24.75.38,1.13.29.74.44,1.1h0l.3.69h0c.1.22.21.44.32.67l.32.63.28.51ZM37.25,74.63H44a23.32,23.32,0,0,1,1.12-5.3h0a26.72,26.72,0,0,1,1-2.67q.55-1.22,1.23-2.43H40.33l-.28.52-.32.62h0c-.12.22-.22.45-.33.67s-.21.47-.3.7l0,0,0,0c-.15.36-.29.72-.42,1.07s-.26.74-.37,1.11-.22.75-.32,1.13-.18.77-.26,1.16-.12.62-.17.91-.09.61-.13.93-.06.55-.08.84,0,.45,0,.66Zm5.12-13.48h7q.82-1.18,1.77-2.34c.65-.81,1.34-1.62,2.07-2.42s1.41-1.5,2.17-2.26,1.29-1.24,2-1.86l-.29,0-.49.09-1.16.27c-.39.09-.77.2-1.15.32s-.75.24-1.13.38-.74.29-1.1.45-.75.33-1.1.5-.71.35-1.06.54-.69.38-1,.59-.66.4-1,.61-.65.44-1,.67-.62.47-.91.71-.59.49-.87.76-.56.52-.84.8h0l-.62.63-.59.66c-.16.18-.31.37-.46.55l-.23.29Zm23.21-8.86c.68.62,1.34,1.24,2,1.86s1.48,1.5,2.16,2.24S71.13,58,71.77,58.8s1.21,1.57,1.76,2.35h7l-.22-.28-.46-.54-.59-.66L78.6,59c-.28-.28-.56-.55-.84-.8s-.58-.51-.87-.75-.6-.48-.91-.71-.62-.46-.94-.67l-1-.62c-.34-.21-.68-.4-1-.59s-.71-.37-1.06-.54-.72-.33-1.1-.5a.15.15,0,0,1-.08,0q-.54-.22-1.08-.42c-.36-.13-.73-.26-1.11-.37h0c-.38-.11-.75-.22-1.13-.31s-.77-.19-1.16-.26l-.48-.1-.26,0Zm17,11.93H75.48q.67,1.22,1.23,2.43c.4.89.75,1.79,1.05,2.68a23.32,23.32,0,0,1,1.12,5.3h6.75c0-.21,0-.44,0-.66l-.09-.85c0-.31-.08-.62-.13-.92s-.1-.6-.16-.91v0c-.08-.38-.17-.77-.27-1.15s-.2-.77-.32-1.15-.24-.75-.38-1.12-.28-.74-.44-1.1v0c-.09-.22-.2-.46-.3-.69h0c-.1-.21-.2-.44-.32-.67l-.32-.62-.28-.52ZM56,49.4l1.34-.24c.44-.07.89-.12,1.35-.17s.93-.08,1.39-.1l1.4,0c.93,0,1.86,0,2.78.13.46,0,.91.1,1.36.17l1.35.24c.43.08.87.18,1.3.29s.86.23,1.28.36.85.27,1.26.42.82.32,1.23.49l.12.06c.39.16.78.34,1.17.53l1.17.6h0c.39.21.77.43,1.14.65h0c.38.23.76.46,1.12.71s.71.48,1.05.73.69.53,1,.8.67.57,1,.86.66.61,1,.92h0c.3.3.6.61.89.93s.58.65.85,1,.54.67.8,1l.76,1.08h0c.25.36.48.73.7,1.1s.45.76.66,1.15.41.77.6,1.17.38.82.56,1.22.34.83.5,1.26.3.85.44,1.29.25.86.36,1.29.21.87.3,1.32.17.9.24,1.34.12.9.17,1.36.08.93.1,1.39,0,.94,0,1.4,0,.93,0,1.4-.06.92-.1,1.38-.1.92-.17,1.37h0c-.07.44-.15.89-.24,1.34s-.18.87-.29,1.3-.23.86-.36,1.28-.27.85-.42,1.26-.32.82-.49,1.23a.75.75,0,0,1-.06.13c-.17.4-.35.8-.54,1.19s-.4.79-.61,1.17-.43.78-.65,1.15-.46.74-.7,1.1-.49.71-.75,1.06-.52.69-.79,1h0c-.28.34-.57.67-.86,1h0c-.3.33-.6.64-.91,1h0q-.47.47-.93.9c-.32.28-.65.57-1,.84s-.67.54-1,.81l-1.07.75c-.36.24-.73.48-1.1.7s-.76.45-1.16.66-.78.41-1.18.61-.81.38-1.21.55-.83.34-1.26.5-.85.3-1.28.44l-1.3.36q-.65.17-1.32.3l-1.34.24c-.44.07-.9.12-1.36.17-.92.09-1.85.13-2.79.13l-1.4,0c-.46,0-.92-.06-1.38-.1s-.92-.1-1.36-.17-.89-.14-1.35-.24-.87-.18-1.3-.29-.86-.23-1.28-.36-.84-.27-1.25-.42-.84-.32-1.25-.49l-.11-.06c-.39-.16-.79-.34-1.18-.53s-.78-.39-1.16-.6l-1.14-.65-1.14-.72c-.36-.24-.71-.49-1.06-.74l-1-.8c-.34-.28-.67-.57-1-.86s-.65-.61-1-.91l0,0c-.31-.31-.61-.62-.89-.93s-.58-.65-.85-1-.55-.68-.81-1-.5-.7-.74-1.07-.48-.73-.71-1.1-.45-.76-.66-1.16-.41-.78-.6-1.18-.38-.8-.56-1.21-.34-.83-.5-1.26-.3-.85-.43-1.28-.26-.87-.37-1.3-.21-.87-.3-1.32-.17-.9-.24-1.35-.12-.89-.17-1.35-.08-.93-.1-1.39,0-.94,0-1.4c0-.93,0-1.86.13-2.78.05-.46.1-.91.17-1.36s.15-.89.24-1.34.18-.87.29-1.3.23-.86.36-1.29.27-.85.42-1.26.32-.82.49-1.22a.42.42,0,0,1,0-.1l0,0q.26-.6.54-1.2c.2-.39.4-.78.61-1.17s.43-.77.65-1.14.46-.74.7-1.11.49-.71.75-1.06.52-.68.79-1,.57-.67.86-1,.61-.66.92-1h0q.45-.46.93-.9c.32-.29.65-.57,1-.85s.68-.55,1-.8h0c.35-.26.7-.51,1.06-.74s.73-.48,1.1-.71.76-.45,1.16-.66.77-.41,1.17-.6.81-.38,1.22-.56h0c.42-.18.84-.35,1.25-.5s.85-.3,1.28-.43.87-.26,1.3-.37.87-.21,1.32-.3Zm7,4.68v7.07h6.74c-.41-.54-.85-1.07-1.31-1.6s-1.12-1.26-1.72-1.89-1.24-1.28-1.91-1.92-1.18-1.1-1.8-1.66Zm0,10.14V74.63H75.8a20.57,20.57,0,0,0-.41-2.41,22.45,22.45,0,0,0-.79-2.63,25.3,25.3,0,0,0-1.18-2.71c-.45-.88-1-1.77-1.52-2.66Zm0,13.49V88.12h9.33a28.2,28.2,0,0,0,1.44-2.61,23.51,23.51,0,0,0,1.11-2.69,21.4,21.4,0,0,0,.69-2.64,19.16,19.16,0,0,0,.31-2.47ZM63,91.2v7.19c.66-.56,1.31-1.12,1.93-1.69s1.38-1.29,2-1.93,1.24-1.29,1.81-1.93.94-1.1,1.38-1.64ZM59.9,98.39V91.2H52.76c.44.55.89,1.1,1.38,1.64s1.16,1.28,1.8,1.92,1.31,1.29,2,1.94,1.27,1.13,1.94,1.69Zm0-10.27V77.71H47a18.8,18.8,0,0,0,.31,2.46,19.55,19.55,0,0,0,.7,2.65,22.7,22.7,0,0,0,1.1,2.69c.42.87.91,1.74,1.44,2.61Zm0-13.49V64.22H51c-.57.89-1.07,1.78-1.52,2.66a25.3,25.3,0,0,0-1.18,2.71,22.45,22.45,0,0,0-.79,2.63,20.57,20.57,0,0,0-.41,2.41Zm0-13.48V54.08c-.62.56-1.22,1.11-1.79,1.66S56.79,57,56.19,57.66,55,58.92,54.47,59.55s-.89,1.06-1.31,1.6Z"/></svg>