<?xml version="1.0" encoding="utf-8"?><svg version="1.1" id="Layer_1" xmlns="http://www.w3.org/2000/svg" xmlns:xlink="http://www.w3.org/1999/xlink" x="0px" y="0px" viewBox="0 0 122.88 95.23" style="enable-background:new 0 0 122.88 95.23" xml:space="preserve"><g><path d="M0.06,64.15C0.02,63.25,0,62.35,0,61.44c0-4.24,0.41-8.33,1.22-12.35c0.77-3.94,1.95-7.74,3.54-11.46 c0-0.04,0.04-0.11,0.07-0.15c1.58-3.72,3.5-7.19,5.68-10.47c2.17-3.28,4.68-6.3,7.45-9.07c2.76-2.8,5.79-5.27,9.07-7.44 c3.28-2.21,6.78-4.09,10.47-5.68c3.76-1.62,7.63-2.8,11.61-3.61C53.07,0.41,57.2,0,61.44,0c4.24,0,8.33,0.41,12.35,1.22 c3.94,0.77,7.74,1.95,11.46,3.54c0.04,0,0.11,0.04,0.15,0.07c3.69,1.58,7.19,3.5,10.47,5.68c3.28,2.17,6.3,4.68,9.07,7.44 c2.8,2.76,5.27,5.79,7.45,9.07c2.21,3.28,4.09,6.78,5.68,10.47c1.62,3.76,2.8,7.63,3.61,11.61c0.81,3.98,1.22,8.11,1.22,12.35 c0,0.91-0.02,1.81-0.06,2.71C82.02,64.15,40.96,64.15,0.06,64.15L0.06,64.15z M82.41,70.94h7.04l3.71,15.25l4.71-15.25h7.9 l4.87,15.27l3.71-15.27h8.48l-8.47,24.29h-7.84l-4.66-14.62l-4.51,14.62h-7.89l-7.79-22.17l-7.73,22.17h-7.84l-4.66-14.62 l-4.51,14.62h-7.89l-7.79-22.17l-7.73,22.17h-7.84l-4.66-14.62l-4.51,14.62H8.63L0.09,70.94h8.53l3.71,15.25l4.7-15.25h7.9 l4.87,15.27l3.71-15.27h6.99h1.49h7.04l3.71,15.25l4.71-15.25h7.9l4.87,15.27l3.71-15.27h6.99H82.41L82.41,70.94z M5.45,58.75 h16.99c0.63-8.4,3.43-16.84,8.4-25.36H12.86c-1.14,1.99-2.17,4.05-3.1,6.23c-0.04,0.04-0.04,0.07-0.07,0.11 c-1.4,3.35-2.51,6.82-3.21,10.43C5.93,52.96,5.57,55.8,5.45,58.75L5.45,58.75z M16.36,28.01h17.95 c5.12-7.37,11.87-14.78,20.27-22.22c-1.51,0.18-2.99,0.41-4.42,0.7c-3.65,0.74-7.15,1.81-10.54,3.28c-3.43,1.47-6.63,3.21-9.62,5.2 c-2.99,1.99-5.71,4.24-8.26,6.78c-1.95,1.95-3.76,4.02-5.38,6.23V28.01L16.36,28.01z M68.3,5.79c8.44,7.45,15.18,14.85,20.27,22.22 h17.95c-1.62-2.21-3.43-4.28-5.38-6.23c-2.54-2.54-5.27-4.79-8.26-6.78c-2.95-1.99-6.16-3.72-9.62-5.2 c-0.04-0.04-0.07-0.04-0.11-0.07c-3.35-1.4-6.82-2.51-10.43-3.21c-1.47-0.3-2.95-0.52-4.42-0.7V5.79L68.3,5.79z M110.02,33.39 H92.03c4.98,8.51,7.78,16.95,8.4,25.36h16.99c-0.15-2.95-0.48-5.79-1.03-8.59c-0.74-3.65-1.81-7.15-3.28-10.54 C112.19,37.45,111.16,35.38,110.02,33.39L110.02,33.39L110.02,33.39z M64.13,9.29v18.72h17.84C77.29,21.82,71.35,15.59,64.13,9.29 L64.13,9.29z M64.13,33.39v25.36h30.92c-0.7-8.33-3.8-16.77-9.32-25.36H64.13L64.13,33.39z M58.75,58.75V33.39h-21.6 c-5.53,8.59-8.62,17.03-9.32,25.36H58.75L58.75,58.75z M58.75,28.01V9.29c-7.22,6.3-13.16,12.53-17.84,18.72H58.75L58.75,28.01z"/></g></svg>