<?xml version="1.0" encoding="utf-8"?><svg version="1.1" id="Layer_1" xmlns="http://www.w3.org/2000/svg" xmlns:xlink="http://www.w3.org/1999/xlink" x="0px" y="0px" viewBox="0 0 115.25 122.88" style="enable-background:new 0 0 115.25 122.88" xml:space="preserve"><style type="text/css">.st0{fill-rule:evenodd;clip-rule:evenodd;}</style><g><path class="st0" d="M7.91,37.95h99.43c0.14,0,0.28,0,0.42,0.01c0.47-0.09,0.89-0.32,1.22-0.65c0.42-0.42,0.69-1.01,0.69-1.64V7.9 c0-0.64-0.26-1.22-0.69-1.64c-0.42-0.42-1.01-0.69-1.64-0.69H7.91c-0.64,0-1.22,0.26-1.64,0.69C5.85,6.68,5.58,7.26,5.58,7.9v27.77 c0,0.64,0.26,1.22,0.69,1.64c0.33,0.33,0.75,0.56,1.22,0.65C7.63,37.95,7.77,37.95,7.91,37.95L7.91,37.95z M75.97,98.85h7.66V81.52 H33.21v17.33h7.67v7.65H57.7h10.41h7.85V98.85L75.97,98.85z M92.43,81.52v17.33h7.67v7.65h15.16v8.8H100.1v7.58H75.97v-7.58h-7.85 H57.7H40.88v7.58H16.75v-7.58H0v-8.8h16.75v-7.65h7.66V81.52H7.91c-2.17,0-4.15-0.89-5.58-2.32c-1.43-1.43-2.32-3.41-2.32-5.58 V45.85c0-1.94,0.7-3.71,1.87-5.09c-1.16-1.38-1.87-3.15-1.87-5.09V7.9c0-2.18,0.89-4.15,2.32-5.58C3.76,0.89,5.74,0,7.91,0h99.43 c2.18,0,4.15,0.89,5.58,2.32c1.43,1.43,2.32,3.41,2.32,5.58v27.77c0,1.94-0.7,3.71-1.87,5.09c1.16,1.38,1.87,3.16,1.87,5.09v27.77 c0,2.17-0.89,4.15-2.32,5.58c-1.43,1.43-3.41,2.32-5.58,2.32H92.43L92.43,81.52z M15.49,14.22h5.84v15.12h-5.84V14.22L15.49,14.22z M95.77,17.15c2.56,0,4.63,2.07,4.63,4.63c0,2.56-2.07,4.63-4.63,4.63c-2.56,0-4.63-2.07-4.63-4.63 C91.14,19.23,93.21,17.15,95.77,17.15L95.77,17.15z M78.13,17.15c2.56,0,4.63,2.07,4.63,4.63c0,2.56-2.07,4.63-4.63,4.63 c-2.56,0-4.63-2.07-4.63-4.63C73.5,19.23,75.57,17.15,78.13,17.15L78.13,17.15z M47.78,14.22h5.84v15.12h-5.84V14.22L47.78,14.22z M31.63,14.22h5.84v15.12h-5.84V14.22L31.63,14.22z M15.49,52.17h5.84v15.12h-5.84V52.17L15.49,52.17z M47.78,52.17h5.84v15.12 h-5.84V52.17L47.78,52.17z M31.63,52.17h5.84v15.12h-5.84V52.17L31.63,52.17z M107.77,43.56c-0.14,0.01-0.28,0.01-0.42,0.01H7.91 c-0.14,0-0.28,0-0.42-0.01c-0.47,0.09-0.89,0.32-1.22,0.65c-0.42,0.42-0.69,1.01-0.69,1.64v27.77c0,0.64,0.26,1.22,0.69,1.64 c0.42,0.42,1.01,0.69,1.64,0.69h99.43c0.64,0,1.22-0.26,1.64-0.69c0.42-0.42,0.69-1.01,0.69-1.64V45.85c0-0.64-0.26-1.22-0.69-1.64 C108.66,43.88,108.24,43.64,107.77,43.56L107.77,43.56z M88.03,105.39c3.03,0,5.48,2.45,5.48,5.48c0,3.03-2.45,5.48-5.48,5.48 c-3.03,0-5.48-2.45-5.48-5.48C82.55,107.84,85.01,105.39,88.03,105.39L88.03,105.39z M28.81,105.39c3.03,0,5.48,2.45,5.48,5.48 c0,3.03-2.45,5.48-5.48,5.48s-5.48-2.45-5.48-5.48C23.33,107.84,25.79,105.39,28.81,105.39L28.81,105.39z"/></g></svg>