<svg id="Layer_1" data-name="Layer 1" xmlns="http://www.w3.org/2000/svg" viewBox="0 0 122.88 73.42"><defs><style>.cls-1{fill-rule:evenodd;}</style></defs><title>server-storage</title><path class="cls-1" d="M10.43,62.14V53.69H46.55A15.38,15.38,0,0,1,57,43.38V34.61H2.85A2.87,2.87,0,0,1,0,31.76V2.8a2.84,2.84,0,0,1,.84-2A2.89,2.89,0,0,1,2.33,0H120.54a2.88,2.88,0,0,1,1.5.79,2.84,2.84,0,0,1,.84,2v29a2.84,2.84,0,0,1-.84,2,2.88,2.88,0,0,1-2,.84H65.44v8.77A15.38,15.38,0,0,1,75.88,53.69h39.31v8.45H76a15.32,15.32,0,0,1-29.55,0ZM100.77,9.06a8.56,8.56,0,1,1-8.56,8.56,8.57,8.57,0,0,1,8.56-8.56ZM35,8h7.14V26.59H35V8ZM53.46,8H60.6V26.59H53.46V8ZM16.54,8h7.13V26.59H16.54V8ZM66.07,53.25a6.87,6.87,0,1,0,2,4.85,6.82,6.82,0,0,0-2-4.85Z"/></svg>