<?xml version="1.0" encoding="utf-8"?><svg version="1.1" id="Layer_1" xmlns="http://www.w3.org/2000/svg" xmlns:xlink="http://www.w3.org/1999/xlink" x="0px" y="0px" viewBox="0 0 119.72 122.88" style="enable-background:new 0 0 119.72 122.88" xml:space="preserve"><style type="text/css">.st0{fill-rule:evenodd;clip-rule:evenodd;}</style><g><path class="st0" d="M72.49,84.55h43.4c2.11,0,3.83,1.72,3.83,3.83v30.68c0,2.1-1.72,3.83-3.83,3.83l-43.4,0 c-2.1,0-3.83-1.72-3.83-3.83V88.37C68.66,86.27,70.39,84.55,72.49,84.55L72.49,84.55z M28.45,64.62v10.95h-8.38V64.62H28.45 L28.45,64.62z M99.65,64.62v10.95h-8.38V64.62H99.65L99.65,64.62z M118.19,0c-0.11,0-0.22,0.01-0.34,0.01H1.86 C1.75,0.01,1.63,0,1.53,0C1.15,0.07,0.81,0.26,0.55,0.52C0.21,0.85,0,1.32,0,1.83v22.17c0,0.51,0.21,0.97,0.55,1.31 c0.34,0.34,0.8,0.55,1.31,0.55h115.99c0.51,0,0.97-0.21,1.31-0.55c0.34-0.34,0.55-0.8,0.55-1.31V1.83c0-0.51-0.21-0.97-0.55-1.31 C118.91,0.26,118.57,0.07,118.19,0L118.19,0L118.19,0z M104.32,7.9c3.06,0,5.54,2.48,5.54,5.54c0,3.06-2.48,5.54-5.54,5.54 c-3.06,0-5.54-2.48-5.54-5.54C98.77,10.39,101.25,7.9,104.32,7.9L104.32,7.9z M118.19,31.84c-0.11,0-0.22,0.01-0.34,0.01H1.86 c-0.11,0-0.23-0.01-0.34-0.01c-0.38,0.07-0.71,0.26-0.98,0.52C0.21,32.69,0,33.16,0,33.66v22.78c0,0.51,0.21,0.97,0.55,1.31 c0.34,0.34,0.8,0.55,1.31,0.55h115.99c0.51,0,0.97-0.21,1.31-0.55c0.34-0.34,0.55-0.8,0.55-1.31V33.66c0-0.51-0.21-0.97-0.55-1.31 C118.91,32.09,118.57,31.91,118.19,31.84L118.19,31.84L118.19,31.84z M7.91,38.71h4.66v12.68H7.91V38.71L7.91,38.71L7.91,38.71z M20.8,38.71h4.66v12.68H20.8V38.71L20.8,38.71L20.8,38.71z M33.69,38.71h4.66v12.68h-4.66V38.71L33.69,38.71L33.69,38.71z M7.91,6.88h4.66v12.07H7.91V6.88L7.91,6.88L7.91,6.88z M20.8,6.88h4.66v12.07H20.8V6.88L20.8,6.88L20.8,6.88z M33.69,6.88h4.66 v12.07h-4.66V6.88L33.69,6.88L33.69,6.88z M3.83,84.55h43.4c2.11,0,3.83,1.72,3.83,3.83v30.68c0,2.1-1.72,3.83-3.83,3.83l-43.4,0 c-2.1,0-3.83-1.72-3.83-3.83V88.37C0,86.27,1.72,84.55,3.83,84.55L3.83,84.55z M48.79,95.27H2.43v24.16c0,0.29,0.11,0.55,0.31,0.75 c0.2,0.2-0.26-0.12,0.03-0.12H47c0.29,0,1.27,0.32,1.47,0.12c0.2-0.2,0.31-0.46,0.31-0.75V95.27H48.79L48.79,95.27z M43.58,88.85 c1.04,0,1.89,0.85,1.89,1.89c0,1.04-0.85,1.89-1.89,1.89s-1.89-0.85-1.89-1.89C41.69,89.7,42.54,88.85,43.58,88.85L43.58,88.85z M30.77,88.85c1.04,0,1.89,0.85,1.89,1.89c0,1.04-0.85,1.89-1.89,1.89c-1.04,0-1.89-0.85-1.89-1.89 C28.88,89.7,29.72,88.85,30.77,88.85L30.77,88.85z M37.17,88.85c1.04,0,1.89,0.85,1.89,1.89c0,1.04-0.85,1.89-1.89,1.89 c-1.04,0-1.89-0.85-1.89-1.89C35.28,89.7,36.13,88.85,37.17,88.85L37.17,88.85z M117.46,95.27H71.1v24.16 c0,0.29,0.11,0.55,0.31,0.75c0.2,0.2-0.26-0.12,0.03-0.12h44.22c0.29,0,1.27,0.32,1.47,0.12c0.2-0.2,0.31-0.46,0.31-0.75V95.27 H117.46L117.46,95.27z M112.24,88.85c1.04,0,1.89,0.85,1.89,1.89c0,1.04-0.85,1.89-1.89,1.89c-1.04,0-1.89-0.85-1.89-1.89 C110.35,89.7,111.2,88.85,112.24,88.85L112.24,88.85z M99.43,88.85c1.04,0,1.89,0.85,1.89,1.89c0,1.04-0.85,1.89-1.89,1.89 s-1.89-0.85-1.89-1.89C97.54,89.7,98.39,88.85,99.43,88.85L99.43,88.85z M105.84,88.85c1.04,0,1.89,0.85,1.89,1.89 c0,1.04-0.85,1.89-1.89,1.89c-1.04,0-1.89-0.85-1.89-1.89C103.95,89.7,104.79,88.85,105.84,88.85L105.84,88.85z"/></g></svg>