<svg id="Layer_1" data-name="Layer 1" xmlns="http://www.w3.org/2000/svg" viewBox="0 0 98.54 122.88"><title>web-server</title><path d="M89,67.53h0c.21-.44.4-.87.58-1.28l.07-.14c.27-.64.53-1.29.76-1.94s.47-1.32.67-2h0c.21-.67.4-1.35.57-2s.33-1.39.47-2.09.21-1.12.29-1.65.17-1.09.24-1.67h0c.06-.49.11-1,.16-1.5s.06-.81.08-1.21H80.83a39,39,0,0,1-.52,4.7c-.1.62-.22,1.23-.36,1.84H74.27c.17-.68.32-1.37.46-2.06A33.59,33.59,0,0,0,75.28,52H52v6.51H46.49V52H23.25a33.64,33.64,0,0,0,.57,4.45c.13.69.28,1.38.46,2.06h-5.7c-.13-.61-.25-1.23-.36-1.85A40.5,40.5,0,0,1,17.7,52H5.64l.09,1.2c0,.53.1,1,.16,1.53s.14,1.12.23,1.66.18,1.08.29,1.64v0c.14.68.29,1.38.47,2.07s.37,1.39.58,2.06.44,1.36.69,2,.52,1.33.8,2v0l.55,1.24V78.47c-.39-.52-.76-1.06-1.11-1.6s-.87-1.32-1.28-2S6.35,73.51,6,72.8s-.74-1.41-1.09-2.13-.69-1.46-1-2.19S3.25,67,3,66.21s-.55-1.54-.79-2.32-.46-1.56-.65-2.33S1.14,60,1,59.17.67,57.54.55,56.74.33,55.13.25,54.3.1,52.63.06,51.79,0,50.1,0,49.27a49,49,0,0,1,.25-5Q.37,43,.55,41.8c.12-.79.26-1.6.43-2.43s.33-1.56.52-2.34.42-1.55.65-2.32.49-1.52.77-2.27.56-1.48.87-2.21l.07-.17,0-.06c.31-.73.64-1.45,1-2.16S5.59,26.42,6,25.73s.78-1.4,1.19-2.06.82-1.34,1.26-2,.87-1.28,1.34-1.91.94-1.24,1.44-1.84,1-1.21,1.55-1.8S13.84,15,14.4,14.39l0,0c.55-.55,1.11-1.09,1.68-1.61s1.16-1,1.78-1.54,1.23-1,1.85-1.44l0,0c.64-.47,1.28-.91,1.91-1.33s1.33-.87,2-1.28S25,6.34,25.74,6s1.4-.74,2.13-1.09,1.45-.68,2.19-1h0q1.13-.5,2.25-.9c.76-.28,1.53-.55,2.32-.79s1.56-.46,2.34-.66,1.57-.38,2.38-.54h0C40.19.81,41,.67,41.8.55s1.61-.22,2.44-.3S45.91.1,46.74.06,48.43,0,49.27,0a49.14,49.14,0,0,1,5,.25q1.24.12,2.46.3c.79.12,1.6.26,2.43.43s1.56.33,2.34.52,1.55.42,2.32.65,1.52.49,2.27.77,1.48.56,2.22.88a.88.88,0,0,1,.22.1c.7.3,1.4.62,2.11,1s1.42.72,2.1,1.09h0c.7.38,1.39.78,2.06,1.19h0c.69.41,1.36.84,2,1.27s1.27.87,1.9,1.33,1.24.95,1.85,1.45,1.2,1,1.79,1.55,1.18,1.09,1.73,1.64l0,0c.55.54,1.09,1.1,1.61,1.68s1,1.17,1.54,1.78,1,1.21,1.44,1.85.92,1.28,1.36,1.94h0c.45.66.87,1.33,1.27,2s.8,1.36,1.19,2.07.73,1.4,1.08,2.12.69,1.47,1,2.2.63,1.5.91,2.27.54,1.54.79,2.32.46,1.56.66,2.34.38,1.57.54,2.38.31,1.61.43,2.41.22,1.62.3,2.46.14,1.67.19,2.5.06,1.69.06,2.53,0,1.68-.06,2.52-.11,1.66-.19,2.49-.18,1.66-.3,2.46v0c-.12.79-.27,1.59-.43,2.4s-.33,1.57-.52,2.35-.42,1.55-.65,2.32-.5,1.52-.77,2.27-.57,1.48-.88,2.21a.82.82,0,0,1-.11.23c-.3.73-.63,1.45-1,2.16s-.71,1.42-1.08,2.11-.79,1.4-1.19,2.06-.83,1.34-1.26,2-.73,1.07-1.12,1.6V67.53ZM78.17,68.74H21.82A1.27,1.27,0,0,0,20.5,70V85.77a1.33,1.33,0,0,0,1.32,1.32H78.17a1.33,1.33,0,0,0,1.32-1.32V70a1.26,1.26,0,0,0-1.32-1.29Zm-42,44.92v9.22H28.57v-9.22Zm35.3,0v9.22H63.87v-9.22ZM68.56,74.35a3.94,3.94,0,1,1-3.94,3.93,3.93,3.93,0,0,1,3.94-3.93Zm9.61,17H21.82a1.27,1.27,0,0,0-1.32,1.29v15.74a1.33,1.33,0,0,0,1.32,1.32H78.17a1.33,1.33,0,0,0,1.32-1.32V92.63a1.26,1.26,0,0,0-1.32-1.29Zm-52,4.88h3.3v8.56h-3.3V96.22Zm9.15,0h3.31v8.56H35.27V96.22Zm9.15,0h3.31v8.56H44.42V96.22Zm-18.3-22.6h3.3v8.56h-3.3V73.62Zm9.15,0h3.31v8.56H35.27V73.62Zm9.15,0h3.31v8.56H44.42V73.62ZM5.63,46.49H17.82a39.31,39.31,0,0,1,.68-4.62,45,45,0,0,1,1.33-4.93v0a49.35,49.35,0,0,1,1.89-4.81q1-2.19,2.22-4.38H11.2c-.18.31-.35.62-.51.92s-.39.74-.58,1.13h0c-.2.41-.4.81-.58,1.22s-.38.84-.55,1.25l0,.08,0,.07c-.27.65-.52,1.29-.76,1.94s-.46,1.32-.67,2-.4,1.35-.57,2.05-.33,1.38-.47,2.08-.21,1.12-.3,1.65-.16,1.1-.23,1.67-.12,1-.16,1.51-.07.81-.09,1.2Zm9.24-24.32h12.6Q29,20.06,30.65,18c1.17-1.46,2.41-2.91,3.74-4.36s2.54-2.71,3.91-4.07Q40,7.84,41.85,6.16l-.52.09-.88.16q-1,.21-2.1.48c-.7.18-1.39.37-2.07.58s-1.35.44-2,.69-1.34.52-2,.8-1.35.6-2,.91-1.28.64-1.91,1-1.26.69-1.86,1.06-1.19.73-1.76,1.11-1.16.79-1.72,1.2-1.1.84-1.63,1.28-1.06.89-1.58,1.36-1,.95-1.51,1.45l0,0c-.38.37-.75.75-1.1,1.14s-.73.79-1.08,1.19-.56.66-.83,1l-.41.51Zm41.87-16q1.84,1.68,3.54,3.34,2.05,2,3.89,4.05,2,2.17,3.74,4.36t3.16,4.22H83.65l-.4-.5-.82-1c-.35-.4-.71-.79-1.07-1.19s-.73-.76-1.13-1.16-1-1-1.52-1.45-1-.93-1.57-1.36-1.08-.86-1.64-1.28-1.13-.81-1.71-1.2-1.16-.76-1.76-1.13-1.22-.72-1.84-1.05-1.27-.67-1.91-1-1.3-.61-2-.9l-.15-.09c-.64-.27-1.29-.52-1.94-.75s-1.32-.47-2-.68h0c-.67-.21-1.34-.4-2-.57s-1.38-.33-2.08-.47l-.88-.17-.46-.07Zm30.6,21.52H74.59q1.23,2.18,2.22,4.37a47.57,47.57,0,0,1,1.89,4.85A45.11,45.11,0,0,1,80,41.87a39.31,39.31,0,0,1,.68,4.62H92.9c0-.39-.06-.79-.1-1.2s-.09-1-.15-1.52-.15-1.12-.23-1.66-.18-1.08-.29-1.64v0c-.14-.68-.3-1.37-.47-2.07s-.37-1.39-.58-2.07-.44-1.35-.69-2-.52-1.33-.79-2l0,0c-.17-.41-.36-.82-.55-1.24v0c-.18-.38-.37-.79-.58-1.21S88,29,87.85,28.65s-.33-.62-.51-.93ZM52,9.42V22.17H64.21c-.75-1-1.55-1.92-2.37-2.89q-1.47-1.7-3.09-3.4t-3.46-3.46c-1-1-2.12-2-3.25-3Zm0,18.3V46.49H75.16a35.26,35.26,0,0,0-.73-4.35A39.84,39.84,0,0,0,73,37.4a46.88,46.88,0,0,0-2.14-4.89,54.44,54.44,0,0,0-2.73-4.79ZM46.49,46.49V27.72H30.4q-1.53,2.4-2.74,4.79a46.77,46.77,0,0,0-2.13,4.89,39.84,39.84,0,0,0-1.42,4.74,35.31,35.31,0,0,0-.74,4.35Zm0-24.32V9.42c-1.12,1-2.2,2-3.24,3q-1.81,1.74-3.46,3.47t-3.09,3.4c-.83,1-1.62,1.93-2.37,2.89Z"/></svg>