<?xml version="1.0" encoding="utf-8"?><svg version="1.1" id="Layer_1" xmlns="http://www.w3.org/2000/svg" xmlns:xlink="http://www.w3.org/1999/xlink" x="0px" y="0px" viewBox="0 0 110.87 122.88" style="enable-background:new 0 0 110.87 122.88" xml:space="preserve"><style type="text/css">.st0{fill-rule:evenodd;clip-rule:evenodd;}</style><g><path class="st0" d="M29.68,0h10.59v34.24H3.57v-8.12C3.57,11.75,15.32,0,29.68,0L29.68,0z M21.09,91.56 c3.93,0,7.52,1.45,10.27,3.84l8.41-7.08L25.14,76.01h-0.39c-11.65,0-21.18-9.53-21.18-21.18v-2.47h81.82v2.47 c0,11.37-9.07,20.71-20.33,21.16L50.39,88.33l8.76,7.37c2.79-2.57,6.51-4.14,10.6-4.14c8.65,0,15.66,7.01,15.66,15.66 c0,8.65-7.01,15.66-15.66,15.66c-8.65,0-15.66-7.01-15.66-15.66c0-2.08,0.41-4.07,1.14-5.88l-10.16-8.55l-9.66,8.12 c0.85,1.93,1.32,4.06,1.32,6.31c0,8.65-7.01,15.66-15.66,15.66c-8.65,0-15.66-7.01-15.66-15.66C5.44,98.57,12.45,91.56,21.09,91.56 L21.09,91.56z M69.76,101.53c3.14,0,5.69,2.55,5.69,5.69c0,3.14-2.55,5.69-5.69,5.69c-3.14,0-5.69-2.55-5.69-5.69 C64.07,104.08,66.62,101.53,69.76,101.53L69.76,101.53z M21.09,101.53c3.14,0,5.69,2.55,5.69,5.69c0,3.14-2.55,5.69-5.69,5.69 c-3.14,0-5.69-2.55-5.69-5.69C15.4,104.08,17.95,101.53,21.09,101.53L21.09,101.53z M35.75,76.01l9.33,7.85l9.33-7.85H35.75 L35.75,76.01z M107.59,30.13c1.81,0,3.28,1.47,3.28,3.28c0,1.81-1.47,3.28-3.28,3.28h-16.9v6.58c0,1.81-1.47,3.28-3.28,3.28H3.28 C1.47,46.55,0,45.08,0,43.27c0-1.81,1.47-3.28,3.28-3.28h80.84v-6.58c0-1.81,1.47-3.28,3.28-3.28H107.59L107.59,30.13z"/></g></svg>