<?xml version="1.0" encoding="utf-8"?><svg version="1.1" id="Layer_1" xmlns="http://www.w3.org/2000/svg" xmlns:xlink="http://www.w3.org/1999/xlink" x="0px" y="0px" viewBox="0 0 122.88 109.15" style="enable-background:new 0 0 122.88 109.15" xml:space="preserve"><g><path d="M60.11,36.27c-1.18,0.67-2.68,0.26-3.35-0.93c-0.67-1.18-0.26-2.68,0.93-3.35c2.45-1.39,4.67-2.88,6.55-4.52 c1.79-1.56,3.25-3.25,4.27-5.08c0.25-0.45,0.46-0.89,0.65-1.33c1.2-2.8,1.48-5.82,0.76-8.52c-0.7-2.6-2.35-4.91-5.05-6.4 c-0.36-0.2-0.73-0.38-1.1-0.54c-0.99-0.43-1.94-0.65-2.85-0.68c-0.9-0.03-1.79,0.12-2.66,0.45c-2.02,0.75-3.58,2.08-4.56,3.61 c-0.56,0.87-0.92,1.81-1.06,2.73c-0.13,0.87-0.07,1.71,0.2,2.45c0.31,0.84,0.92,1.61,1.87,2.22c0.56,0.36,1.3,0.53,2.24,0.52 c1.16-0.02,2.57-0.33,4.25-0.95c1.28-0.46,2.69,0.2,3.15,1.47c0.46,1.28-0.2,2.69-1.47,3.15c-2.19,0.8-4.13,1.21-5.86,1.24 c-1.94,0.03-3.6-0.4-4.98-1.29c-1.89-1.21-3.14-2.83-3.81-4.65c-0.58-1.57-0.73-3.25-0.47-4.9c0.24-1.6,0.86-3.19,1.8-4.66 c1.52-2.37,3.91-4.41,6.99-5.55c1.48-0.55,2.99-0.81,4.53-0.75c1.54,0.05,3.08,0.4,4.62,1.07c0.55,0.24,1.07,0.49,1.55,0.75 c3.96,2.19,6.41,5.6,7.44,9.45c1.01,3.76,0.64,7.92-0.99,11.72c-0.26,0.61-0.55,1.2-0.86,1.77c-1.32,2.39-3.14,4.51-5.35,6.43 C65.36,33.04,62.87,34.72,60.11,36.27L60.11,36.27z M42.05,79.05c-0.83-0.87-0.79-2.24,0.08-3.07c0.87-0.83,2.24-0.79,3.07,0.08 c5.92,6.22,11.76,8.92,17.51,8.71c5.83-0.21,11.77-3.36,17.78-8.82c0.89-0.81,2.26-0.74,3.07,0.14c0.81,0.89,0.74,2.26-0.14,3.07 c-6.76,6.14-13.61,9.7-20.55,9.94C55.84,89.35,48.9,86.25,42.05,79.05L42.05,79.05z M45.25,48.75c3.56,0,6.45,2.89,6.45,6.45 c0,3.56-2.89,6.45-6.45,6.45c-3.56,0-6.45-2.89-6.45-6.45C38.8,51.64,41.69,48.75,45.25,48.75L45.25,48.75z M80.14,48.75 c3.56,0,6.45,2.89,6.45,6.45c0,3.56-2.89,6.45-6.45,6.45c-3.56,0-6.45-2.89-6.45-6.45C73.69,51.64,76.58,48.75,80.14,48.75 L80.14,48.75z M81.05,29.8c-1.21-0.54-1.76-1.98-1.24-3.22c0.52-1.24,1.92-1.82,3.13-1.28c5.99,2.68,11.28,6.43,15.55,10.97 c3.72,3.95,6.68,8.51,8.69,13.48l0.16-0.04c0.87-0.19,1.76-0.29,2.65-0.29c3.55,0,6.77,1.49,9.11,3.9 c2.33,2.41,3.77,5.73,3.77,9.39c0,3.66-1.44,6.98-3.77,9.39c-2.34,2.41-5.56,3.9-9.11,3.9c-0.46,0-0.92-0.03-1.38-0.08 c-2.62,9.29-8.48,17.4-16.42,23.27c-8.39,6.21-19.1,9.93-30.76,9.93c-11.65,0-22.37-3.73-30.76-9.93 c-7.94-5.88-13.8-13.98-16.42-23.27c-0.46,0.05-0.92,0.08-1.38,0.08c-3.55,0-6.77-1.49-9.11-3.9C1.44,69.71,0,66.39,0,62.72 c0-3.66,1.44-6.98,3.77-9.39c2.34-2.41,5.56-3.9,9.11-3.9c0.89,0,1.78,0.1,2.65,0.29l0.16,0.04c2.01-4.98,4.97-9.53,8.69-13.48 c4.28-4.55,9.57-8.3,15.55-10.97c1.21-0.54,2.61,0.04,3.13,1.28c0.52,1.24-0.04,2.69-1.24,3.22c-5.4,2.41-10.17,5.8-14.02,9.9 c-3.76,4-6.65,8.67-8.39,13.79c-0.03,0.11-0.07,0.21-0.11,0.31c-0.53,1.24-1.94,1.81-3.14,1.26c-0.52-0.23-1.05-0.41-1.59-0.53 c-0.52-0.11-1.09-0.17-1.68-0.17c-2.25,0-4.27,0.93-5.73,2.44c-1.47,1.51-2.37,3.61-2.37,5.93c0,2.32,0.91,4.41,2.37,5.93 c1.46,1.51,3.49,2.44,5.73,2.44c0.42,0,0.83-0.03,1.23-0.09c0.43-0.07,0.83-0.16,1.19-0.28l0,0c0.06-0.02,0.12-0.03,0.18-0.05 c1.28-0.3,2.56,0.53,2.85,1.86c1.98,9.07,7.46,17.03,15.14,22.7c7.59,5.62,17.34,8.99,27.98,8.99c10.64,0,20.38-3.37,27.98-8.99 c7.66-5.67,13.14-13.62,15.13-22.67c0.01-0.07,0.03-0.14,0.05-0.21c0.39-1.3,1.72-2.02,2.98-1.63c0.37,0.12,0.76,0.21,1.19,0.28 c0.39,0.06,0.8,0.09,1.23,0.09c2.25,0,4.27-0.93,5.73-2.44c1.47-1.51,2.37-3.61,2.37-5.93c0-2.32-0.91-4.41-2.37-5.93 c-1.46-1.51-3.49-2.44-5.73-2.44c-0.6,0-1.16,0.06-1.68,0.17c-0.54,0.12-1.07,0.3-1.59,0.53l0,0c-0.06,0.03-0.12,0.05-0.18,0.07 c-1.24,0.45-2.6-0.23-3.03-1.51c-1.74-5.17-4.65-9.89-8.44-13.92C91.21,35.6,86.45,32.21,81.05,29.8L81.05,29.8z"/></g></svg>