<svg xmlns="http://www.w3.org/2000/svg" shape-rendering="geometricPrecision" text-rendering="geometricPrecision" image-rendering="optimizeQuality" fill-rule="evenodd" clip-rule="evenodd" viewBox="0 0 384 511.93"><path fill-rule="nonzero" d="m105.19 401.84-12.73 70.38c-1.41 12.78 3.47 20.88 10.62 24.97 3.11 1.79 6.67 2.88 10.34 3.32 3.78.46 7.66.24 11.31-.61 8.62-2 15.93-7.49 17.16-15.71l12.75-71.57c-8.34-1.03-16.63-2.44-24.85-4.23-8.2-1.79-16.4-3.97-24.6-6.55zm-14.96-50.58c33.33 12.96 66.63 19.01 99.89 18.83 34.01-.17 68.09-6.85 102.23-19.26l-47.46-158.8c-15.65 10.55-34.03 16.08-52.7 16.24-18.45.16-37.17-4.91-53.77-15.51l-48.19 158.5zm205.32 10.3c-35.06 12.69-70.19 19.51-105.39 19.69-34.43.18-68.83-6-103.19-19.25l-5.79 19.04c7.07 3.02 14.14 5.72 21.21 8.11l.25.09 1.84.61.46.15.32.11.14.05.46.15.46.15.46.14.2.07.26.08c17.6 5.61 35.2 9.33 52.78 11.25l.27.02.19.02.45.05.46.05.77.08h.02c9.68.98 19.37 1.41 29.05 1.32 36.63-.34 73.33-8.21 110.1-22.66l-5.78-19.32zm6.21-249.92-9.23-58.73-.48.72c-3.4 5.08-8.12 9.2-13.65 11.87 2.53 5.29 4.6 10.85 6.16 16.62l.12.45.01.03c2.29 8.39 3.51 17.24 3.51 26.39 0 27.08-10.75 51.63-28.13 69.4-1.23 1.25-2.49 2.47-3.78 3.66l102.15 54.34c18.2 8.97 25.59 22.52 25.56 35.34-.01 5.93-1.62 11.65-4.48 16.65l-.2.33a35.691 35.691 0 0 1-11.77 12.12c-11.4 7.15-27.47 8.37-44.16-2.19l-42.12-23.95 32.21 107.79c.88 2.76-.5 5.78-3.23 6.88-8.34 3.41-16.69 6.48-25.04 9.23l12.55 72.06.06.51c1.93 17.94-5.46 29.59-16.19 35.75-4.44 2.55-9.46 4.1-14.59 4.72-5.03.6-10.22.3-15.12-.83-12.75-2.96-23.65-11.59-25.7-24.84l-12.9-72.32c-7.33.64-14.67.99-22 1.06-8.51.08-17.01-.23-25.51-.94l-12.88 72.2c-2.05 13.25-12.95 21.88-25.7 24.84a44.392 44.392 0 0 1-15.12.83c-5.13-.62-10.15-2.17-14.59-4.72-10.77-6.18-18.17-17.89-16.17-35.93l.06-.37 13.1-72.37a305.52 305.52 0 0 1-22.39-8.97c-2.53-1.13-3.89-3.99-3.06-6.71l32.69-107.52-41.16 23.08c-16.69 10.54-32.74 9.32-44.14 2.17-4.9-3.08-8.93-7.28-11.77-12.12l-.2-.33c-2.86-5-4.47-10.72-4.48-16.65-.03-12.81 7.36-26.37 25.56-35.34l101.78-54.14c-1.16-1.08-2.3-2.19-3.41-3.32-17.38-17.77-28.14-42.32-28.14-69.4 0-9.15 1.23-18.02 3.53-26.42l.12-.45.04-.13a97.16 97.16 0 0 1 6.12-16.49 34.516 34.516 0 0 1-13.65-11.87l-.48-.72-9.23 58.73c-.02 2.62-.1 5.06-.22 7.33-1.2 21.64-7 37.79-16.85 48.64-10.1 11.13-24.17 16.52-41.66 16.42-1.37-.01-2.68-.05-3.91-.11h-.11c-3.09 0-5.6-2.51-5.6-5.6V95.98c0-14.03 3.95-28.42 11.15-41.61 7.04-12.92 17.24-24.7 29.88-33.84 4.7-3.4 10.41-5.95 16.65-7.61 6.25-1.66 13.12-2.45 20.12-2.34l.77.06c.87.14 1.67.47 2.34.95.46-.51.92-1.01 1.41-1.49A34.331 34.331 0 0 1 120.58 0c7.47 0 14.4 2.38 20.05 6.43 4.69 3.36 8.51 7.88 11.03 13.14a93.392 93.392 0 0 1 38.67-8.81l1.67-.01c1.1 0 2.19.02 3.28.05 13.19.36 25.72 3.47 37.06 8.77 2.52-5.26 6.34-9.78 11.03-13.14A34.31 34.31 0 0 1 263.42 0c9.52 0 18.14 3.86 24.37 10.1.49.48.95.98 1.41 1.49a5.52 5.52 0 0 1 2.34-.95l.77-.06c7-.11 13.87.68 20.12 2.34 6.24 1.66 11.95 4.21 16.65 7.61 12.64 9.14 22.84 20.92 29.88 33.84 7.2 13.19 11.15 27.58 11.15 41.61v82.34c0 3.09-2.51 5.6-5.6 5.6h-.11c-1.23.06-2.54.1-3.91.11-17.49.1-31.56-5.29-41.66-16.42-9.85-10.85-15.65-27-16.85-48.64-.12-2.27-.2-4.71-.22-7.33zm-2.81-89.7 13.88 88.25c.05.32.08.65.08.98.02 2.35.09 4.75.23 7.19 1.05 18.95 5.85 32.79 13.96 41.73 7.58 8.35 18.32 12.55 31.81 12.77V95.98c0-12.19-3.46-24.74-9.75-36.27-6.27-11.5-15.34-21.99-26.6-30.12-3.55-2.58-8.01-4.54-12.98-5.86-3.36-.9-6.95-1.5-10.63-1.79zM71.17 110.19l13.88-88.25c-3.68.29-7.27.89-10.63 1.79-4.97 1.32-9.43 3.28-12.98 5.86-11.26 8.13-20.33 18.62-26.6 30.12-6.29 11.53-9.75 24.08-9.75 36.27v76.88c13.49-.22 24.23-4.42 31.81-12.77 8.11-8.94 12.91-22.78 13.96-41.73.14-2.44.21-4.84.23-7.19 0-.33.03-.66.08-.98zM273.01 55.7c3.97-1.8 7.36-4.69 9.77-8.28 2.47-3.68 3.91-8.14 3.91-12.95 0-6.42-2.61-12.24-6.82-16.45-4.21-4.21-10.03-6.82-16.45-6.82-5.05 0-9.72 1.61-13.53 4.33a23.48 23.48 0 0 0-7.71 9.38c3.95 2.46 7.71 5.2 11.25 8.2a97.196 97.196 0 0 1 19.58 22.59zM141.82 24.91a23.48 23.48 0 0 0-7.71-9.38 23.21 23.21 0 0 0-13.53-4.33c-6.42 0-12.24 2.61-16.45 6.82-4.21 4.21-6.82 10.03-6.82 16.45 0 4.81 1.44 9.27 3.91 12.95 2.41 3.59 5.8 6.48 9.77 8.28a96.992 96.992 0 0 1 19.58-22.59c3.54-3 7.3-5.74 11.25-8.2zM171.5 159.4a5.593 5.593 0 0 1-.29-7.9 5.583 5.583 0 0 1 7.9-.28c3.83 3.57 8.33 5.33 12.79 5.33 4.54 0 9.13-1.81 13.04-5.38 2.28-2.08 5.82-1.91 7.9.37a5.604 5.604 0 0 1-.37 7.9c-6.04 5.51-13.29 8.31-20.57 8.31-7.22 0-14.4-2.76-20.4-8.35zm61.87-61.36c5.9 0 10.69 4.79 10.69 10.7 0 5.9-4.79 10.69-10.69 10.69-5.91 0-10.7-4.79-10.7-10.69 0-5.91 4.79-10.7 10.7-10.7zm-82.74 0c5.91 0 10.7 4.79 10.7 10.7 0 5.9-4.79 10.69-10.7 10.69-5.9 0-10.69-4.79-10.69-10.69 0-5.91 4.79-10.7 10.69-10.7zm-39.78-15 3.62-1.14c20.54-6.78 38.05-17.11 50.72-28.96 10.38-9.7 17.45-20.34 20.14-30.71-20.8 1.65-39.49 10.96-53.38 25.16a87.485 87.485 0 0 0-21.1 35.65zM192 36.07c-4.27 8.7-10.81 17.21-19.2 25.05-13.81 12.91-32.74 24.13-54.83 31.41-2.06.68-4.22 1.34-6.47 1.98l-.24.08c-1 .28-2.07.57-3.22.87-.67 4.41-1.02 8.92-1.02 13.53 0 24.06 9.53 45.84 24.93 61.59 15.36 15.71 36.59 25.43 60.05 25.43 23.46 0 44.69-9.72 60.05-25.43 15.4-15.75 24.93-37.53 24.93-61.59 0-4.61-.35-9.13-1.02-13.53-1.15-.3-2.22-.59-3.22-.87l-.24-.08c-2.25-.64-4.41-1.3-6.47-1.98-22.09-7.28-41.02-18.5-54.83-31.41-8.39-7.84-14.93-16.35-19.2-25.05zm6.67-13.84c2.69 10.37 9.76 21.01 20.14 30.71 12.67 11.85 30.18 22.18 50.72 28.96l3.61 1.14a87.225 87.225 0 0 0-21.09-35.65c-13.89-14.2-32.58-23.51-53.38-25.16zm88.04 450.16-12.24-70.26c-6.19 1.97-12.95 3.97-20.56 5.75-8.64 2.03-18.31 3.78-29.38 4.89l12.73 71.42c1.23 8.22 8.54 13.71 17.16 15.71 3.65.85 7.53 1.07 11.3.61 3.68-.44 7.24-1.53 10.35-3.32 7.12-4.08 11.99-12.12 10.64-24.8zM126.07 195.06l-95.09 50.59-.47.22c-13.78 6.78-19.37 16.42-19.35 25.32 0 3.89 1.09 7.71 3.03 11.1l.15.27c1.94 3.3 4.7 6.17 8.06 8.28 8.12 5.1 19.86 5.75 32.46-2.3l50.83-28.53c.24-.14.48-.25.73-.35l19.65-64.6zm131.51.35 19.06 63.8 52.5 29.87c12.6 8.05 24.34 7.39 32.46 2.3 3.36-2.12 6.12-4.98 8.06-8.28l.15-.28c1.94-3.39 3.03-7.2 3.03-11.09.02-8.9-5.57-18.54-19.35-25.32l-.47-.22-95.44-50.78z"/></svg>