<?xml version="1.0" encoding="utf-8"?><svg version="1.1" id="Layer_1" xmlns="http://www.w3.org/2000/svg" xmlns:xlink="http://www.w3.org/1999/xlink" x="0px" y="0px" viewBox="0 0 123.68 122.88" style="enable-background:new 0 0 123.68 122.88" xml:space="preserve"><style type="text/css">.st0{fill-rule:evenodd;clip-rule:evenodd;}</style><g><path class="st0" d="M84.98,88.58c42.94-7.59,40.72-51.26,18.68-69.95c-28.5-24.16-74.04,5.06-59.8,39.17 c2.96,7.32,8.55,13.51,16.23,16.56c0.31,0.12,0.57,0.22,0.79,0.3c2.94,1.06,5.99,1.63,9,1.69c3.02,0.06,6.02-0.4,8.82-1.4 c42.37-15.18,5.99-66.34-15.45-36.85c-3.39,3.63-0.62,10.25,5.78,6.66c3.63-6.83,11.83-5.18,15.52,0.79 c7.53,12.15-13.86,28.24-26.97,13.14c-9.71-11.19-5.57-24.12,3.84-31.49c18.49-14.49,40.83-0.9,45.79,19.55 C110.36,59.73,105.51,75.34,84.98,88.58L84.98,88.58z M39.56,72.68L0.63,111.61c-0.83,0.83-0.83,2.2,0,3.03l6.99,6.99 c1.67,1.67,4.39,1.67,6.06,0L51.1,84.2c7.9,5.49,17.13,8.24,26.36,8.24c11.83,0,23.66-4.51,32.68-13.54 c9.02-9.02,13.54-20.85,13.54-32.68c0-11.83-4.51-23.66-13.54-32.68C101.12,4.51,89.29,0,77.46,0C65.63,0,53.8,4.51,44.78,13.54 c-9.02,9.02-13.54,20.85-13.54,32.68C31.24,55.49,34.01,64.76,39.56,72.68L39.56,72.68z"/></g></svg>