<svg id="Layer_1" data-name="Layer 1" xmlns="http://www.w3.org/2000/svg" viewBox="0 0 122.88 76.41"><title>children-kids</title><path d="M114.61,45l-5.13-3.89,4,18.72a.31.31,0,0,1-.31.31H104V71.88a4.51,4.51,0,0,1-7.69,3.21h0a4.51,4.51,0,0,1-1.33-3.2V60.12H91.69V71.88a4.52,4.52,0,0,1-9,0V60.12H73.39a.31.31,0,0,1-.24-.36l4-18.69-5.2,4c-2.37,1.81-4.46,2-6,1.26a4,4,0,0,1-1.47-1.2,4.44,4.44,0,0,1-.79-1.72,4.73,4.73,0,0,1,1.88-4.78l12.21-9.32C81.06,26.8,87,25.68,93,25.69c6.39,0,12.79,1.32,15.83,3.63l12.15,9.21a4.57,4.57,0,0,1,1.84,4.68,4.16,4.16,0,0,1-2.25,2.91c-1.5.73-3.59.62-5.91-1.14ZM30.27,0A11.76,11.76,0,0,1,42.09,11.7a11.83,11.83,0,0,1-23.65,0A11.77,11.77,0,0,1,30.27,0ZM58.21,46.33c-1.49.69-3.59.5-6-1.35l-8.14-6V57.28a.31.31,0,0,1-.31.31H40.91v14.3a4.52,4.52,0,0,1-9,0V57.59H28.64v14.3a4.52,4.52,0,0,1-9,0V57.59H16.78a.31.31,0,0,1-.31-.31V38.91L8.27,45C6,46.79,3.88,46.92,2.39,46.2h0A4.1,4.1,0,0,1,.9,45a4.42,4.42,0,0,1-.79-1.7,4.57,4.57,0,0,1,1.83-4.7l12.29-9.38c3.11-2.54,9.8-3.76,16.36-3.74s13.21,1.34,15.8,3.87l12.12,9.2a4.87,4.87,0,0,1,1.94,4.86,4.36,4.36,0,0,1-.77,1.73,4,4,0,0,1-1.47,1.2ZM93.3,0a11.82,11.82,0,0,1,11.45,8.77c4.21,1.27,8.94,4.87,7.5,8.38-1.94,4.73-6,2.55-6.4-2.4a16.93,16.93,0,0,0-.77-4.07c0,.34,0,.68,0,1a11.82,11.82,0,0,1-23.64,0c0-.18,0-.35,0-.53a16.7,16.7,0,0,0-.74,4c-.41,4.95-4.46,7.13-6.4,2.41-1.43-3.49,3.22-7.06,7.4-8.36A11.81,11.81,0,0,1,93.3,0Z"/></svg>