<?xml version="1.0" encoding="utf-8"?><svg version="1.1" id="Layer_1" xmlns="http://www.w3.org/2000/svg" xmlns:xlink="http://www.w3.org/1999/xlink" x="0px" y="0px" viewBox="0 0 104.9 122.88" style="enable-background:new 0 0 104.9 122.88" xml:space="preserve"><style type="text/css">.st0{fill-rule:evenodd;clip-rule:evenodd;}</style><g><path class="st0" d="M52.5,0c9.94,0,18.3,6.73,20.68,15.83c7.62,2.3,16.15,8.81,13.55,15.15c-3.5,8.54-10.81,4.6-11.56-4.35 c-0.22-2.62-0.53-4.58-1.4-7.34c0.05,0.61,0.08,1.22,0.08,1.84c0,11.67-9.56,21.14-21.36,21.14s-21.36-9.46-21.36-21.14 c0-0.32,0.01-0.64,0.02-0.96c-0.83,2.66-1.13,4.6-1.34,7.15c-0.74,8.94-8.05,12.89-11.55,4.35c-2.58-6.29,5.8-12.75,13.37-15.1 C33.75,7.1,42.29,0,52.5,0L52.5,0z M80.87,69.5l10.46,7.94c8.01,6.08,18.76-4.67,10.75-10.75L74.64,45.88l-0.03-0.13h-44.2l0,0.02 l-0.02-0.02L2.82,66.79c-7.99,6.1,2.76,16.85,10.75,10.75l10.59-8.08l-7.52,28.5H32.7v17.33c0,4.18,3.42,7.6,7.6,7.6 c4.18,0,7.6-3.42,7.6-7.6V97.96h9.21v17.33c0,4.18,3.42,7.6,7.6,7.6h0c4.18,0,7.6-3.42,7.6-7.6V97.96h16.06L80.87,69.5L80.87,69.5z"/></g></svg>