<svg xmlns="http://www.w3.org/2000/svg" shape-rendering="geometricPrecision" text-rendering="geometricPrecision" image-rendering="optimizeQuality" fill-rule="evenodd" clip-rule="evenodd" viewBox="0 0 427 511.68"><path d="M146.44 0h50.62v160.39H25.49v-39.44c0-33.27 13.61-63.51 35.53-85.42C82.93 13.61 113.17 0 146.44 0zm254.63 417.71c6.76-6.79 16.76-5.6 22.32 2.65 5.56 8.25 4.59 20.44-2.18 27.22-40.16 40.16-127.34 64.1-213.74 64.1-78.22 0-157.07-19.49-201.68-64.1-6.77-6.78-7.74-18.97-2.18-27.22 5.56-8.25 15.56-9.44 22.32-2.65 21.85 21.85 54.38 36.69 91.59 45.42 23.54-19.19 47.55-38.18 71.78-57.06l-94.63-73.72c-38.51-12.5-66.56-48.8-66.56-91.33v-11.18h370.77v11.18c0 37.39-21.67 69.95-53.07 85.78l-102.58 79.85 69.2 53.92c38.01-9.47 69.88-24.11 88.64-42.86zm-239.8 52.74c15.16 1.61 30.67 2.4 46.2 2.4 21.06 0 42.06-1.43 62.19-4.16l-53.04-41.33-55.35 43.09zm54.7-85.05c20.97-16.19 42.04-32.31 63.02-48.41H153.83l62.14 48.41zM404.3 208.54H28.11v-29.73H404.3v29.73z"/></svg>