<svg xmlns="http://www.w3.org/2000/svg" shape-rendering="geometricPrecision" text-rendering="geometricPrecision" image-rendering="optimizeQuality" fill-rule="evenodd" clip-rule="evenodd" viewBox="0 0 376 511.47"><path fill="#FFC855" d="m108.45 265.32 22.39-79.12-107.87 57.39c-48.08 23.34-12.13 79.76 29.75 52.98l55.73-31.25zm158.17-.43-21.46-78.15 107.87 57.39c48.08 23.34 12.13 79.77-29.75 52.98l-56.66-32.22zM97.79 398.71l-14.06 77.72c-5 45.09 56.57 43.37 61.03 13.52l13.89-77.92c-20.36-2.06-40.64-6.45-60.86-13.32zm179.53-.85 13.48 77.43c5 45.1-56.57 43.38-61.02 13.52l-13.9-77.92c26.95-2.02 45.87-7.87 61.44-13.03z"/><ellipse fill="#FFC855" cx="188" cy="110.75" rx="94.12" ry="96.24"/><path fill="#FFB44B" d="m188 14.52.56.01c50.61.3 91.76 41.45 93.49 92.84-1.82-.55-3.65-1.12-5.49-1.72-43.96-14.49-78-40.93-92.95-68.73-25.66 59.5-137.16 93.42 8.37 168.22-55.56 1.28-98.1-38.14-98.1-94.39 0-48.99 35.81-89.44 82.13-95.46.74-.09 1.48-.18 2.22-.26l.15-.01.03-.01.19-.02c.68-.07 1.36-.13 2.05-.18l.11-.01.07-.01h.03c.67-.05 1.35-.09 2.03-.13l.19-.01.08-.01h.11c.69-.04 1.38-.06 2.08-.08l.18-.01h.08c.8-.02 1.59-.03 2.39-.03zm-11.99.77c.74-.09 1.48-.18 2.22-.26l-2.22.26z"/><circle fill="#64463C" cx="146.28" cy="110.5" r="10.78"/><circle fill="#64463C" cx="229.72" cy="110.5" r="10.78"/><path fill="#E69B4B" fill-rule="nonzero" d="M167.32 161.59a5.638 5.638 0 0 1-.29-7.96 5.64 5.64 0 0 1 7.97-.29c3.86 3.6 8.4 5.38 12.9 5.38 4.58 0 9.21-1.83 13.15-5.42 2.3-2.1 5.87-1.93 7.96.37 2.1 2.3 1.93 5.87-.37 7.96-6.09 5.56-13.4 8.38-20.74 8.38-7.28 0-14.52-2.78-20.58-8.42z"/><path d="m148.27 30.09-42.43 39.9-3.36-1.38a35.806 35.806 0 0 1-16.09-13.15 35.517 35.517 0 0 1-6.03-19.82c0-9.84 3.99-18.75 10.44-25.2C97.27 3.99 106.17 0 116 0c7.71 0 14.86 2.47 20.71 6.65a35.555 35.555 0 0 1 13.03 17.53l1.17 3.42-2.64 2.49zM267.52 67.5l-42.43-39.9 1.17-3.42a35.651 35.651 0 0 1 13.01-17.53A35.461 35.461 0 0 1 260 0c9.84 0 18.75 3.99 25.2 10.44 6.45 6.47 10.44 15.38 10.44 25.2 0 7.31-2.22 14.13-6.03 19.82a35.806 35.806 0 0 1-16.09 13.15l-3.36 1.38-2.64-2.49z"/><path fill="#553732" d="m79.07 72.36 9.22-58.69c-13.12-.21-25.77 2.93-34.42 9.17-24.77 17.9-39.84 46.21-39.84 73.04v84.79c19.51 1.09 34.68-4.54 44.74-17.2 14.76-18.59 16.21-65.12 20.3-91.11zm217.47-1.1-9.06-57.59c13.13-.21 25.78 2.93 34.42 9.17 24.77 17.9 39.85 46.21 39.85 73.04v84.79c-25.65 1.43-43.81-8.75-52.69-31.27-6.78-17.2-9.21-57.06-12.52-78.14z"/><path fill="#64463C" d="M188.91 14.52c45.53 0 83.43 33.35 91.63 77.47-4.5-1.08-9.03-2.36-13.58-3.86-44.79-14.76-76.37-45.44-78.73-73.6l.68-.01z"/><path fill="#64463C" d="M188.91 14.52c45.53 0 83.44 33.35 91.63 77.47-4.5-1.08-9.03-2.36-13.58-3.86-44.79-14.76-76.37-45.43-78.73-73.6l.68-.01zm-1.82 0c-45.53 0-83.44 33.35-91.63 77.47 4.5-1.08 9.03-2.36 13.58-3.86 44.79-14.76 76.37-45.43 78.73-73.6l-.68-.01z"/><path fill="#FF6472" d="M244.45 185.21c-31.84 25.8-78.76 27.29-113.61.99L69.4 388.27c78.58 35.01 157.16 32.08 235.73 0l-60.68-203.06z"/><path fill="#fff" d="m80.1 353.08-3.65 12.02c36.52 13.3 73.1 19.52 109.7 19.33 37.36-.19 74.67-7.06 111.9-19.86l-3.59-12.03c-36.19 12.5-72.31 19.2-108.36 19.39-35.3.18-70.63-5.88-106-18.85z"/><path fill="#CF3C48" d="M187.26 264.34c4.2 0 7.63 3.43 7.63 7.62v8.96l6.33-6.33c2.97-2.97 7.82-2.97 10.78 0 2.97 2.96 2.97 7.81 0 10.78l-6.33 6.33h8.95c4.2 0 7.63 3.43 7.63 7.62 0 4.2-3.43 7.63-7.63 7.63h-8.95l6.33 6.33c2.97 2.96 2.97 7.82 0 10.78-2.96 2.97-7.81 2.97-10.78 0l-6.33-6.33v8.95c0 4.2-3.43 7.63-7.63 7.63-4.19 0-7.62-3.43-7.62-7.63v-8.95l-6.33 6.33c-2.96 2.97-7.82 2.97-10.78 0-2.97-2.96-2.97-7.82 0-10.78l6.33-6.33h-8.95c-4.2 0-7.63-3.43-7.63-7.63 0-4.19 3.43-7.62 7.63-7.62h8.95l-6.33-6.33c-2.97-2.97-2.97-7.82 0-10.78 2.96-2.97 7.82-2.97 10.78 0l6.33 6.33v-8.96c0-4.19 3.43-7.62 7.62-7.62zm0 27.06c4.38 0 7.92 3.55 7.92 7.92 0 4.38-3.54 7.92-7.92 7.92a7.91 7.91 0 0 1-7.91-7.92c0-4.37 3.54-7.92 7.91-7.92z"/><path fill="#553732" d="M173.07 15.67c-33.82 5.4-61.61 29.39-73.08 61.43 37.32-13.14 64.9-37.33 73.08-61.43zm29.99-.06c17.05 2.66 32.59 10.03 45.29 20.79 12.37 10.62 22 24.47 27.66 40.27-37.12-13.07-64.62-37.07-72.95-61.06z"/></svg>