<?xml version="1.0" encoding="utf-8"?><svg version="1.1" id="Layer_1" xmlns="http://www.w3.org/2000/svg" xmlns:xlink="http://www.w3.org/1999/xlink" x="0px" y="0px" viewBox="0 0 114.16 122.88" style="enable-background:new 0 0 114.16 122.88" xml:space="preserve"><g><path d="M57.22,3.7c3.61,0,7.14,0.36,10.55,1.04c2.05-2.59,5.23-4.25,8.79-4.25c6.19,0,11.21,5.02,11.21,11.21 c0,0.52-0.04,1.03-0.1,1.53c2.61,1.82,5.05,3.86,7.3,6.1c2.53,2.53,4.8,5.3,6.78,8.29c3.25-0.35,6.63,0.72,9.13,3.22 c4.38,4.38,4.38,11.48,0,15.85c-0.35,0.35-0.72,0.67-1.1,0.97c0.54,3.06,0.83,6.2,0.83,9.42c0,3.69-0.38,7.3-1.09,10.78 c2.53,2.06,4.15,5.19,4.15,8.71c0,6.19-5.02,11.21-11.21,11.21c-0.51,0-1-0.03-1.49-0.1c-1.79,2.56-3.8,4.95-6,7.15 c-6.25,6.25-14.04,10.96-22.75,13.5l0.97,4.59h37.22c0.9,0,1.71,0.37,2.3,0.95c0.59,0.59,0.96,1.4,0.96,2.3v3.46 c0,0.9-0.37,1.71-0.96,2.3c-0.59,0.59-1.4,0.96-2.3,0.96H4.04c-0.9,0-1.71-0.37-2.3-0.96c-0.59-0.59-0.96-1.4-0.96-2.3v-3.46 c0-0.89,0.37-1.71,0.96-2.3c0.59-0.59,1.4-0.95,2.3-0.95h37.35l1.11-4.51c-8.82-2.53-16.71-7.26-23.02-13.58 c-2.53-2.53-4.81-5.32-6.8-8.32c-3.34,0.44-6.83-0.62-9.39-3.19c-4.38-4.38-4.38-11.48,0-15.85c0.43-0.43,0.88-0.81,1.35-1.16 c-0.52-3-0.8-6.08-0.8-9.23c0-3.62,0.36-7.16,1.05-10.58c-2.68-2.05-4.4-5.28-4.4-8.91c0-6.19,5.02-11.21,11.21-11.21 c0.6,0,1.18,0.05,1.75,0.14c1.8-2.57,3.81-4.97,6.03-7.18c2.49-2.49,5.23-4.74,8.17-6.7c-0.42-3.32,0.64-6.8,3.19-9.35 c4.38-4.38,11.48-4.38,15.85,0c0.4,0.4,0.75,0.81,1.08,1.25C50.84,3.98,54,3.7,57.22,3.7L57.22,3.7z M65.96,65.96 c-4.91,4.91-12.86,4.91-17.77,0c-4.91-4.91-4.91-12.86,0-17.77c4.91-4.91,12.86-4.91,17.77,0C70.87,53.1,70.87,61.06,65.96,65.96 L65.96,65.96z M51.31,73.71h13.56c2.01,9.42,4.01,18.85,6,28.28c7.47-2.27,14.15-6.35,19.53-11.73c1.66-1.66,3.19-3.44,4.59-5.33 c-2.3-2.05-3.75-5.04-3.75-8.36c0-0.56,0.04-1.11,0.12-1.65L74.11,67.5c-1.46-0.63-2.13-2.31-1.5-3.77 c0.63-1.45,2.31-2.13,3.77-1.5l17.27,7.42c2.05-2.61,5.24-4.29,8.82-4.29c0.32,0,0.64,0.01,0.95,0.04c0.48-2.7,0.74-5.48,0.74-8.32 c0-2.42-0.18-4.8-0.54-7.12c-3.09,0.18-6.23-0.9-8.59-3.26c-0.4-0.4-0.76-0.82-1.09-1.26L76.48,52.4c-1.47,0.58-3.13-0.14-3.71-1.6 c-0.58-1.47,0.14-3.13,1.6-3.71l17.45-6.96c-0.4-3.3,0.67-6.75,3.2-9.29c0.22-0.22,0.45-0.43,0.68-0.63 c-1.58-2.26-3.35-4.37-5.3-6.32c-1.71-1.71-3.54-3.28-5.5-4.71c-2.05,2.29-5.03,3.72-8.34,3.72c-0.56,0-1.11-0.04-1.65-0.12 l-7.42,17.26c-0.63,1.45-2.31,2.13-3.77,1.5c-1.45-0.63-2.13-2.31-1.5-3.77l7.42-17.27c-2.61-2.05-4.29-5.24-4.29-8.82 c0-0.28,0.01-0.56,0.03-0.84c-2.65-0.47-5.38-0.71-8.16-0.71c-2.47,0-4.89,0.19-7.26,0.56c0.13,3.03-0.96,6.11-3.27,8.43 c-0.4,0.4-0.82,0.76-1.26,1.09l6.96,17.46c0.58,1.47-0.14,3.13-1.6,3.71c-1.47,0.58-3.13-0.14-3.71-1.6l-6.96-17.45 c-3.3,0.4-6.75-0.67-9.29-3.2c-0.17-0.17-0.34-0.35-0.5-0.53c-2.26,1.58-4.37,3.35-6.31,5.29c-1.7,1.7-3.28,3.54-4.71,5.49 c2.2,2.05,3.57,4.96,3.57,8.21c0,0.56-0.04,1.11-0.12,1.65l17.26,7.42c1.46,0.63,2.13,2.31,1.5,3.77c-0.63,1.45-2.31,2.13-3.77,1.5 l-17.27-7.42c-2.05,2.61-5.24,4.29-8.82,4.29c-0.23,0-0.45-0.01-0.67-0.02c-0.48,2.69-0.73,5.47-0.73,8.3 c0,2.42,0.18,4.79,0.53,7.11c2.99-0.1,6.02,0.99,8.31,3.28c0.4,0.4,0.76,0.82,1.09,1.26l17.46-6.96c1.47-0.58,3.13,0.14,3.71,1.6 c0.58,1.47-0.14,3.13-1.6,3.71l-17.45,6.96c0.4,3.3-0.67,6.75-3.2,9.29c-0.16,0.16-0.33,0.32-0.5,0.47 c1.61,2.32,3.42,4.49,5.41,6.47c5.49,5.49,12.34,9.63,20,11.87c2.32-9.47,4.65-18.95,6.99-28.41H51.31L51.31,73.71z"/></g></svg>