<?xml version="1.0" encoding="utf-8"?><svg version="1.1" id="Layer_1" xmlns="http://www.w3.org/2000/svg" xmlns:xlink="http://www.w3.org/1999/xlink" x="0px" y="0px" viewBox="0 0 97.09 122.88" style="enable-background:new 0 0 97.09 122.88" xml:space="preserve"><style type="text/css">.st0{fill-rule:evenodd;clip-rule:evenodd;}</style><g><path class="st0" d="M14.54,57.09H83.2V71c5.61,0.86,9.5,3.73,11.72,7.47c1.32,2.22,2.03,4.75,2.15,7.34 c0.11,2.55-0.35,5.17-1.39,7.63c-2.09,4.96-6.48,9.25-13.06,10.97c-2.38,10.54-11.85,18.47-23.09,18.47H38.2 c-11.17,0-20.6-7.85-23.04-18.3C8.2,102.99,3.57,98.57,1.41,93.44c-1.04-2.46-1.51-5.08-1.39-7.63c0.12-2.6,0.83-5.12,2.15-7.34 c2.31-3.89,6.42-6.83,12.38-7.56V57.09L14.54,57.09z M16.52,42.57h65.43c1.08,0,1.97,0.89,1.97,1.97v7.53 c0,1.08-0.89,1.97-1.97,1.97H16.52c-1.08,0-1.97-0.89-1.97-1.97v-7.53C14.54,43.46,15.43,42.57,16.52,42.57L16.52,42.57z M42.92,18.18V3.99c1.58-5.88,10.69-4.74,10.91,0v14.19c15.62,6.98,18.27,7.44,18.27,21.75H26.37 C26.37,26.3,27.84,25.1,42.92,18.18L42.92,18.18z M46.7,79.15c0.71-10.69,12.39-7.78,7.91,2.05c9.61-4.73,12.93,6.85,2.18,7.88 c8.9,5.96,0.54,14.62-5.74,5.82c-0.71,10.69-12.39,7.77-7.91-2.06c-9.61,4.73-12.93-6.84-2.18-7.88 C32.06,79.01,40.42,70.35,46.7,79.15L46.7,79.15z M14.55,99.59c0-0.12,0-0.24,0-0.37V75.59c-4.07,0.65-6.84,2.65-8.38,5.24 c-0.93,1.56-1.43,3.35-1.51,5.18c-0.08,1.88,0.26,3.82,1.03,5.63C7.13,95.08,10.1,98.11,14.55,99.59L14.55,99.59z M83.2,75.7v23.51 c0,0.05,0,0.09,0,0.14c4.08-1.55,6.83-4.44,8.21-7.71c0.77-1.82,1.11-3.75,1.03-5.63c-0.08-1.84-0.58-3.62-1.51-5.18 C89.47,78.37,86.91,76.45,83.2,75.7L83.2,75.7z"/></g></svg>