<?xml version="1.0" encoding="utf-8"?><svg version="1.1" id="Layer_1" xmlns="http://www.w3.org/2000/svg" xmlns:xlink="http://www.w3.org/1999/xlink" x="0px" y="0px" viewBox="0 0 59.77 122.88" style="enable-background:new 0 0 59.77 122.88" xml:space="preserve"><style type="text/css">.st0{fill-rule:evenodd;clip-rule:evenodd;}</style><g><path class="st0" d="M13.33,46.2h33.1c7.34,0,13.33,6,13.33,13.33v50.01c0,7.34-6,13.33-13.33,13.33h-33.1 C6,122.88,0,116.88,0,109.55V59.54C0,52.2,6,46.2,13.33,46.2L13.33,46.2z M22.98,101.87h13.81v7.79H22.98V101.87L22.98,101.87z M22.98,87.49h13.81v7.79H22.98V87.49L22.98,87.49z M22.98,73.12h13.81v7.79H22.98V73.12L22.98,73.12z M22.98,58.74h13.81v7.79 H22.98V58.74L22.98,58.74z M9.76,32.82h40.24v10.96H9.76V32.82L9.76,32.82z M25.51,13.37V2.77c1.09-4.07,7.41-3.28,7.55,0v10.6 c10.82,4.84,12.65,6.81,12.65,16.72H14.05C14.05,20.65,15.07,18.16,25.51,13.37L25.51,13.37z"/></g></svg>