<?xml version="1.0" encoding="utf-8"?><svg version="1.1" id="Layer_1" xmlns="http://www.w3.org/2000/svg" xmlns:xlink="http://www.w3.org/1999/xlink" x="0px" y="0px" viewBox="0 0 122.88 110.9" style="enable-background:new 0 0 122.88 110.9" xml:space="preserve"><style type="text/css"><![CDATA[
	.st0{fill-rule:evenodd;clip-rule:evenodd;}
]]></style><g><path class="st0" d="M73.05,33.41c21.82-9.79,42.46-2.21,43.77,23.69c-2.47-0.31-4.61,0.34-6.52,1.66 c-8.86-9.42-18.48-8.82-25.01,1.46c1.9,7.01,0.12,16.38-1.22,21.71c-3.3,13.11-12.43,29.17-27.75,28.96 c-8.13-0.11-14.7-5.16-20.02-14.19c-3.36-6.13-5.65-12.34-6.88-18.64c-0.64-3.34-1.58-10.71-0.52-16.94 C23.77,47.5,11,49.85,11.79,61.06c-2.21,0.51-3.92,1.76-5.16,3.71C1.81,59.54-0.6,54.71,0.13,50.32 c3.91-23.73,33.08-20.72,46-12.26c-0.01-17.87-4.37-24.07-12.53-20.07c-2.21-3.39-4.96-4.69-8.05-4.6 C36.98-12.6,69.91,2.03,73.05,33.41L73.05,33.41z M37.14,74.68c-1.37-0.47-2.14-0.98-2.38-1.53c-0.92-2.21,8.35-6.97,14.25-1.56 C57.42,79.16,40.23,75.84,37.14,74.68L37.14,74.68L37.14,74.68z M50.04,96.57c-2.24-1.86-3.36-4.04-3.84-6.91 c7.52,4.52,14.85,4.76,22.05-0.19c-0.45,2.39-1.38,4.49-2.87,6.29C61,101.07,55.18,100.83,50.04,96.57L50.04,96.57L50.04,96.57z M76.97,74.44c1.35-0.52,2.11-1.06,2.32-1.63c0.84-2.25-8.6-6.65-14.3-1.01C56.88,79.7,73.93,75.72,76.97,74.44L76.97,74.44 L76.97,74.44z M25.25,15.9c3.81,0,6.9,3.09,6.9,6.9s-3.09,6.9-6.9,6.9c-3.81,0-6.9-3.09-6.9-6.9S21.44,15.9,25.25,15.9L25.25,15.9z M115.98,59.09c3.81,0,6.9,3.09,6.9,6.9c0,3.81-3.09,6.9-6.9,6.9s-6.9-5.33-6.9-9.15S112.17,59.09,115.98,59.09L115.98,59.09z M13.79,63.07c3.81,0,6.9,3.09,6.9,6.9c0,3.81-3.09,6.9-6.9,6.9c-3.81,0-6.9-3.09-6.9-6.9C6.89,66.16,9.98,63.07,13.79,63.07 L13.79,63.07z"/></g></svg>