<?xml version="1.0" encoding="utf-8"?><svg version="1.1" id="Layer_1" xmlns="http://www.w3.org/2000/svg" xmlns:xlink="http://www.w3.org/1999/xlink" x="0px" y="0px" viewBox="0 0 122.88 117.6" style="enable-background:new 0 0 122.88 117.6" xml:space="preserve"><style type="text/css"><![CDATA[
	.st0{fill-rule:evenodd;clip-rule:evenodd;fill:#21181C;}
	.st1{fill-rule:evenodd;clip-rule:evenodd;fill:#211D1E;}
	.st2{fill-rule:evenodd;clip-rule:evenodd;fill:#24211F;}
	.st3{fill-rule:evenodd;clip-rule:evenodd;fill:#F6CEBB;}
]]></style><g><path class="st1" d="M42.78,36.83c11.44-5.41,23.94-5.65,37.66,0.1c-3.54-5.12-4.99-10.7-4.87-15.94 C75.91,5.83,86.58-0.58,97.69,0.67c13.67,1.54,23.01,12.95,24.9,26.11c0.97,6.75-0.36,13.47-5.54,17.6 c-5.09,4.05-13.48,4.61-24.74,2.16c26.03,22.7,6.9,70.06-29.6,71.06c-20.25,0.55-41.31-13.87-43.67-40.02 C17.98,65.9,22.35,54.09,31.1,45.81c-10.56,1.87-19.75,2-25.28-2.43c-4.32-3.46-6.06-8.88-5.8-14.72 C0.65,14.26,11.32,1.5,25.97,0.12C32.2-0.48,38.49,1.18,43.04,5.9C48.51,11.58,50.04,21.66,42.78,36.83L42.78,36.83z"/><path class="st3" d="M34.65,82.62c-1.52-5.54-2.84-11.9-2.77-18.02c0.23-20.48,18.4-29.33,29.78-13.23 C70.47,38.77,85.86,41.34,90.39,56c1.83,5.94,1.54,13.57,0.23,19.61c-0.56,2.55-1.36,5.02-2.48,7.37 c5.84-3.27,9.75-4.07,10.76-1.19c1.06,3.01-0.41,7.09-2.65,11.29c-15.09,28.3-53.99,28.78-69.25-0.24 c-1.44-2.74-5.46-11.3-0.79-12.82C28,79.42,30.87,80.36,34.65,82.62L34.65,82.62z"/><path class="st2" d="M51,65.33c3.13-0.25,6,3.63,6.41,8.68s-1.8,9.34-4.94,9.59c-3.13,0.25-6-3.63-6.41-8.68S47.87,65.58,51,65.33 L51,65.33z"/><path class="st2" d="M72.55,65.33c-3.13-0.25-6,3.63-6.41,8.68s1.8,9.34,4.94,9.59s6-3.63,6.41-8.68S75.69,65.58,72.55,65.33 L72.55,65.33z"/><path class="st0" d="M61.78,84.63c4.79,0,8.68,1.95,8.68,4.35s-3.88,4.35-8.68,4.35c-4.79,0-8.68-1.95-8.68-4.35 S56.98,84.63,61.78,84.63L61.78,84.63z"/><path class="st0" d="M35.53,90.2c14.31,16.28,38,15.96,51.48,0.29c1.7-1.97,1.68-0.39,0.78,1.03 c-12.44,19.6-44.84,16.06-52.68-0.72C34.82,90.18,34.65,89.2,35.53,90.2L35.53,90.2z"/></g></svg>