<?xml version="1.0" encoding="utf-8"?><svg version="1.1" id="Layer_1" xmlns="http://www.w3.org/2000/svg" xmlns:xlink="http://www.w3.org/1999/xlink" x="0px" y="0px" viewBox="0 0 94.45 122.88" style="enable-background:new 0 0 94.45 122.88" xml:space="preserve"><g><path d="M47.65,35.38c2.4,0.24,4.56,1.32,6.18,2.93l0.04,0.04l34.16-30.5L47.65,7.81V35.38L47.65,35.38z M56.64,47.39 c-0.3,1.64-1,3.14-1.98,4.4l14.31,15.83l-0.11,0.1l18.8,19.84l0-40.17H56.64L56.64,47.39L56.64,47.39z M43.98,55.36 c-6.04-1.62-14.82,10.02-19.39,14.08l-0.01-0.01L6.61,85.58l37.38,0V55.36L43.98,55.36z M36.59,43.72 c0.25-1.39,0.77-2.68,1.52-3.81c0.1-0.15,0.2-0.29,0.3-0.43c-0.45,0.02-0.78-0.03-0.9-0.16L5.8,6.37v37.35H36.59L36.59,43.72z M48.69,88.2v34.68h-5.57V89.25H1.83v0c-0.5,0-1-0.2-1.36-0.61c-0.68-0.75-0.62-1.91,0.14-2.59l21.61-19.43L2.75,46.57 c-0.38-0.34-0.62-0.83-0.62-1.37V1.83h0.01c0-0.48,0.19-0.96,0.56-1.32c0.73-0.7,1.89-0.68,2.59,0.05L26.3,22.4L44.54,4.67l0,0 c0.33-0.32,0.78-0.52,1.27-0.52l46.7,0.05c0.52-0.03,1.04,0.17,1.43,0.57c0.69,0.74,0.66,1.89-0.08,2.59L72.25,27.81l17.69,15.91 h0.31V44l0.39,0.35c0.42,0.34,0.68,0.85,0.68,1.43v46.37h0c0,0.48-0.19,0.97-0.57,1.32c-0.73,0.7-1.89,0.67-2.59-0.06L66.44,70.49 L48.69,88.2L48.69,88.2z M51.23,40.91C50.05,39.73,48.42,39,46.62,39c-1.8,0-3.43,0.73-4.61,1.91c-1.18,1.18-1.91,2.81-1.91,4.61 c0,1.8,0.73,3.43,1.91,4.61c1.18,1.18,2.81,1.91,4.61,1.91c1.8,0,3.43-0.73,4.61-1.91c1.18-1.18,1.91-2.81,1.91-4.61 C53.14,43.72,52.41,42.09,51.23,40.91L51.23,40.91z"/></g></svg>