<svg id="Layer_1" data-name="Layer 1" xmlns="http://www.w3.org/2000/svg" viewBox="0 0 122.88 121.86"><title>sippy-cup</title><path d="M103.35,41,103,45.9c8,1.15,13.47,5,16.64,10.14a23,23,0,0,1,3.26,12.26,29.81,29.81,0,0,1-3.11,12.81A31.48,31.48,0,0,1,98.55,98,32.67,32.67,0,0,1,90,113.42a28.31,28.31,0,0,1-20.25,8.44H53.86a28.34,28.34,0,0,1-20.26-8.44,32.62,32.62,0,0,1-8.46-15.13A31.73,31.73,0,0,1,2.91,80.64,29.74,29.74,0,0,1,0,68.07a23,23,0,0,1,3.23-12c3.26-5.32,9-9.26,17.4-10.32L20.27,41A2.42,2.42,0,0,1,19.14,39V29.71a2.43,2.43,0,0,1,2.42-2.42H23.4l.26-.54c2-4.26,5.81-6,10.21-6.65,8.94-1.42,20.4.45,28.87-1.8A19.12,19.12,0,0,0,72.8,11.73,20.42,20.42,0,0,0,77.37,0H88.56l9.65,27.29h3.86a2.43,2.43,0,0,1,2.42,2.42V39A2.46,2.46,0,0,1,103.35,41Zm-5.6.37H25.87L29.72,92a27.75,27.75,0,0,0,7.81,17.52,22.87,22.87,0,0,0,16.33,6.81H69.77a22.84,22.84,0,0,0,16.32-6.81A27.74,27.74,0,0,0,93.91,92L97.75,41.4ZM59.34,69.35c.81-12.16,14.1-8.85,9,2.33,10.93-5.38,14.7,7.79,2.47,9,10.13,6.78.61,16.63-6.52,6.63-.81,12.15-14.1,8.84-9-2.34-10.93,5.37-14.7-7.79-2.47-9-10.13-6.78-.61-16.63,6.52-6.62Zm43.17-17.2-3,39.14a25.31,25.31,0,0,0,14.64-12.92,23.44,23.44,0,0,0,2.47-10.1,16.69,16.69,0,0,0-2.32-8.95c-2.19-3.55-6.06-6.24-11.81-7.17ZM24.12,91.59,21.11,52c-6.17.85-10.27,3.63-12.55,7.35a16.72,16.72,0,0,0-2.3,8.75A23.63,23.63,0,0,0,8.55,78,25.56,25.56,0,0,0,24.12,91.59Z"/></svg>