<?xml version="1.0" encoding="utf-8"?><svg version="1.1" id="Layer_1" xmlns="http://www.w3.org/2000/svg" xmlns:xlink="http://www.w3.org/1999/xlink" x="0px" y="0px" viewBox="0 0 84.26 122.88" style="enable-background:new 0 0 84.26 122.88" xml:space="preserve"><style type="text/css">.st0{fill-rule:evenodd;clip-rule:evenodd;fill:#E31E24;} .st1{fill-rule:evenodd;clip-rule:evenodd;stroke:#000000;stroke-width:0.216;stroke-miterlimit:2.6131;}</style><g><path class="st0" d="M84,56.75C82.65,72,81.17,88.81,71.31,100.23c-8.11,9.39-15.46,20.91-29.17,20.91 c-13.72,0-21.06-11.52-29.18-20.91C3.09,88.81,1.7,72,0.35,56.75C0.34-19.05,83.99-18.75,84,56.75L84,56.75z M31.06,65.41 c-4.99-8.45-16.22-11.8-22.84-22.09c-3.28,7.73-1.59,24.57,8.29,32.23C22.27,76.44,30.09,72.34,31.06,65.41L31.06,65.41z M53.33,65.41c4.99-8.45,16.23-11.8,22.84-22.09c3.28,7.73,1.59,24.57-8.29,32.23C62.12,76.44,54.3,72.34,53.33,65.41L53.33,65.41z"/><path class="st1" d="M43.22,65.88c7.39-14.21,24.39-16.25,35.86-37.76c6.99,17.95,5.5,42.36-9.67,54.88 C58.74,81.12,48.05,74.93,43.22,65.88L43.22,65.88z M40.96,65.94c-7.39-14.21-24.18-16.3-35.65-37.82 C-1.68,46.07-0.19,70.48,14.98,83C25.66,81.12,36.13,74.99,40.96,65.94L40.96,65.94z M31.06,65.41 c-4.99-8.45-16.22-11.8-22.84-22.09c-3.28,7.73-1.59,24.57,8.29,32.23C22.27,76.44,30.09,72.34,31.06,65.41L31.06,65.41z M53.33,65.41c4.99-8.45,16.23-11.8,22.84-22.09c3.28,7.73,1.59,24.57-8.29,32.23C62.12,76.44,54.3,72.34,53.33,65.41L53.33,65.41z"/><path d="M17.63,103.07c6.67,8.07,13.5,16.32,24.5,16.32c11,0,17.83-8.25,24.5-16.32c1.18-1.42,2.35-2.84,3.28-3.92h0l0.05-0.06 c0,0,0,0,0,0h0c8.25-9.55,9.3-23.34,10.31-36.62c0.15-1.97,0.3-3.94,0.45-5.66c0.01-0.06,0.01-0.13,0.02-0.19 c-0.01-15.85-2.22-28.5-8.17-37.22C66.71,10.81,57.08,3.9,42.13,3.49C27.18,3.9,17.55,10.81,11.7,19.39 c-5.95,8.72-8.16,21.37-8.17,37.22c0.16,1.8,0.31,3.82,0.47,5.85C5,75.75,6.05,89.54,14.3,99.09 C15.24,100.17,16.43,101.62,17.63,103.07L17.63,103.07z M42.13,122.88L42.13,122.88c-12.67,0-20.03-8.9-27.23-17.6 c-1-1.21-2-2.42-3.29-3.91c-9-10.41-10.09-24.8-11.15-38.65C0.32,60.82,0.18,58.95,0,56.82c0-16.65,2.37-29.99,8.78-39.38 C15.3,7.89,25.85,0.44,42.09,0h0.08c16.25,0.44,26.79,7.89,33.31,17.44c6.41,9.39,8.78,22.73,8.78,39.31v0.14 c-0.01,0.06-0.01,0.13-0.02,0.19c-0.18,2-0.31,3.81-0.45,5.62c-1.05,13.86-2.15,28.24-11.15,38.65l0,0l0,0 c-1.29,1.49-2.29,2.7-3.29,3.91C62.16,113.98,54.8,122.88,42.13,122.88L42.13,122.88z"/><path d="M18.3,11.15c-4.47,14.81,7.65,32.06,21.83,51.03c-7.19-20.91-13.22-39.84-9.91-56.22c-2.21,0.53-4.26,1.21-6.16,2.01 C21.96,8.87,20.04,9.93,18.3,11.15L18.3,11.15z M41.39,66.08C25.97,45.5,11.99,26.85,17.1,10.55c0.04-0.13,0.13-0.25,0.25-0.34 c1.87-1.33,3.94-2.49,6.2-3.45c2.26-0.96,4.72-1.74,7.4-2.32l0,0c0.09-0.02,0.19-0.02,0.28,0c0.36,0.08,0.58,0.43,0.5,0.79 c-3.83,16.81,2.81,36.67,10.4,58.7c7.59-22.01,14.22-41.85,10.41-58.66c-0.03-0.1-0.03-0.21-0.01-0.32 c0.08-0.36,0.43-0.59,0.79-0.51c2.67,0.58,5.14,1.36,7.4,2.32c2.25,0.96,4.31,2.11,6.18,3.43c0.13,0.08,0.23,0.21,0.27,0.36 c5.1,16.3-8.88,34.96-24.3,55.53l-0.2,0.27c-0.04,0.05-0.09,0.1-0.14,0.14c-0.29,0.22-0.71,0.16-0.93-0.13L41.39,66.08L41.39,66.08 z M44.14,62.18c14.18-18.97,26.3-36.22,21.83-51.03c-1.75-1.22-3.66-2.28-5.77-3.18c-1.9-0.81-3.94-1.48-6.16-2.01 C57.35,22.34,51.32,41.27,44.14,62.18L44.14,62.18z"/><path d="M41.63,52.6c0.23-0.29,0.64-0.34,0.93-0.11c0.29,0.22,0.34,0.64,0.11,0.93l-0.01,0.02c-0.22,0.29-0.64,0.34-0.93,0.11 c-0.29-0.23-0.34-0.64-0.11-0.93L41.63,52.6L41.63,52.6z"/><path d="M41.63,53.42c-0.23-0.29-0.18-0.7,0.11-0.93c0.29-0.23,0.7-0.18,0.93,0.11l0.1,0.12c0.23,0.28,0.19,0.7-0.1,0.93 c-0.28,0.23-0.7,0.19-0.93-0.1L41.63,53.42L41.63,53.42z"/><path d="M41.61,52.61c0.23-0.29,0.64-0.33,0.93-0.11c0.29,0.23,0.33,0.64,0.11,0.93c-0.49,0.61-1.03,1.18-1.75,1.55 c-0.62,0.32-1.34,0.48-2.21,0.39c-0.26,0.57-0.59,1.03-0.99,1.41c-0.39,0.37-0.85,0.66-1.37,0.88c0,0.46-0.09,0.88-0.27,1.25 c-0.26,0.53-0.7,0.93-1.31,1.15c-0.34,0.12-0.72-0.06-0.85-0.4c-0.12-0.34,0.06-0.72,0.4-0.85c0.27-0.1,0.46-0.26,0.57-0.49 c0.13-0.26,0.17-0.61,0.1-1.01c-0.05-0.32,0.14-0.63,0.46-0.73c0.55-0.17,1-0.41,1.36-0.76c0.36-0.34,0.64-0.8,0.86-1.41 c0.11-0.3,0.43-0.49,0.76-0.42c0.79,0.17,1.39,0.07,1.87-0.18C40.8,53.55,41.23,53.1,41.61,52.61L41.61,52.61z"/><path d="M41.61,53.43c-0.22-0.29-0.17-0.7,0.11-0.93c0.29-0.22,0.7-0.17,0.93,0.11l0.07,0.08c0.38,0.46,0.79,0.88,1.29,1.13 c0.48,0.24,1.07,0.33,1.83,0.16c0.33-0.07,0.65,0.12,0.76,0.42c0.22,0.61,0.51,1.07,0.86,1.41c0.36,0.34,0.8,0.58,1.36,0.76 c0.32,0.1,0.51,0.41,0.46,0.73c-0.06,0.41-0.02,0.75,0.1,1.01c0.11,0.22,0.3,0.39,0.57,0.49c0.34,0.12,0.52,0.5,0.4,0.85 c-0.12,0.34-0.5,0.52-0.85,0.4c-0.61-0.22-1.04-0.61-1.31-1.15c-0.18-0.37-0.27-0.79-0.27-1.25c-0.53-0.22-0.98-0.5-1.37-0.88 c-0.4-0.38-0.72-0.84-0.99-1.41c-0.84,0.09-1.54-0.06-2.14-0.36c-0.71-0.35-1.25-0.89-1.73-1.48L41.61,53.43L41.61,53.43z"/><path d="M41.52,43.43c0.14-0.34,0.53-0.5,0.86-0.36c0.34,0.14,0.5,0.53,0.36,0.86c-0.49,1.19-1.36,2.51-2.82,3.28 c-0.95,0.5-2.14,0.75-3.61,0.55c-0.33,1.16-0.94,2.16-1.78,2.85c-0.79,0.66-1.78,1.03-2.88,1.01c-0.22,0.8-0.76,1.69-1.44,2.42 c-0.86,0.94-1.97,1.66-2.91,1.68c-0.04,0-0.08,0-0.11,0c-0.37-0.01-0.65-0.32-0.64-0.68c0.01-0.37,0.32-0.65,0.68-0.64l0.04,0 c0.55-0.01,1.31-0.55,1.96-1.26c0.66-0.72,1.17-1.57,1.19-2.18l0-0.03c0-0.05,0-0.1,0.01-0.15c0.06-0.36,0.4-0.6,0.76-0.54 c0.96,0.16,1.82-0.11,2.49-0.66c0.74-0.61,1.26-1.57,1.46-2.7l0.01-0.03c0.08-0.36,0.43-0.59,0.79-0.51 c1.43,0.31,2.53,0.13,3.36-0.31C40.44,45.45,41.13,44.38,41.52,43.43L41.52,43.43z"/><path d="M41.52,43.93c-0.14-0.34,0.02-0.72,0.36-0.86c0.34-0.14,0.72,0.02,0.86,0.36c0.39,0.96,1.08,2.02,2.2,2.61 c0.84,0.44,1.93,0.62,3.36,0.31c0.36-0.08,0.71,0.15,0.79,0.51l0,0.03c0.2,1.13,0.72,2.09,1.46,2.7c0.67,0.55,1.52,0.82,2.49,0.66 c0.36-0.06,0.7,0.18,0.76,0.54c0.01,0.05,0.01,0.1,0.01,0.15l0,0.03c0.02,0.61,0.53,1.46,1.19,2.18c0.65,0.7,1.41,1.25,1.96,1.26 l0.04,0c0.37-0.01,0.67,0.27,0.68,0.64c0.01,0.37-0.27,0.67-0.64,0.68c-0.03,0-0.07,0-0.11,0c-0.94-0.02-2.05-0.74-2.91-1.68 c-0.67-0.73-1.22-1.62-1.44-2.42c-1.1,0.03-2.08-0.35-2.88-1.01c-0.83-0.69-1.45-1.68-1.78-2.85c-1.47,0.2-2.65-0.05-3.61-0.55 C42.88,46.44,42.01,45.12,41.52,43.93L41.52,43.93z"/><path d="M41.52,32.19c0.14-0.34,0.53-0.5,0.86-0.36c0.34,0.14,0.5,0.53,0.36,0.86c-0.49,1.18-2.3,2.9-4.49,3.98 c-1.5,0.74-3.2,1.2-4.81,1.03c-0.48,1.21-1.69,2.41-3.1,3.33c-1.47,0.96-3.19,1.63-4.54,1.66c-0.29,0.89-1.09,2-2.01,2.93 c-1.15,1.17-2.56,2.13-3.5,2.15l-0.09,0c-0.37-0.01-0.65-0.32-0.64-0.68c0.01-0.37,0.32-0.65,0.68-0.64l0.02,0 c0.58-0.01,1.63-0.79,2.58-1.75c0.95-0.96,1.73-2.05,1.75-2.67v0c0-0.05,0-0.09,0.01-0.14c0.06-0.36,0.4-0.6,0.76-0.54 c1.07,0.18,2.77-0.45,4.24-1.42c1.38-0.9,2.52-2.07,2.7-3.08l0.01-0.03c0.08-0.36,0.43-0.59,0.79-0.51 c1.46,0.31,3.1-0.11,4.55-0.82C39.59,34.54,41.14,33.13,41.52,32.19L41.52,32.19z"/><path d="M41.52,32.69c-0.14-0.34,0.02-0.72,0.36-0.86c0.34-0.14,0.72,0.02,0.86,0.36c0.38,0.94,1.93,2.35,3.85,3.3 c1.45,0.72,3.1,1.14,4.55,0.82c0.36-0.08,0.71,0.15,0.79,0.51l0,0.03c0.18,1.02,1.32,2.18,2.7,3.08c1.47,0.96,3.17,1.6,4.24,1.42 c0.36-0.06,0.7,0.18,0.76,0.54c0.01,0.05,0.01,0.09,0.01,0.14v0c0.02,0.61,0.8,1.7,1.75,2.67c0.94,0.96,2,1.74,2.58,1.75l0.02,0 c0.37-0.01,0.67,0.27,0.68,0.64c0.01,0.37-0.27,0.67-0.64,0.68l-0.09,0c-0.94-0.02-2.35-0.98-3.5-2.15 c-0.92-0.94-1.71-2.04-2.01-2.93c-1.35-0.03-3.07-0.7-4.54-1.66c-1.41-0.92-2.62-2.13-3.1-3.33c-1.61,0.17-3.31-0.29-4.81-1.03 C43.82,35.59,42.01,33.88,41.52,32.69L41.52,32.69z"/><path d="M41.48,19.44c0.05-0.36,0.38-0.62,0.74-0.57c0.36,0.05,0.62,0.38,0.57,0.74c-0.16,1.2-2.34,2.88-5.06,4.11 c-2.16,0.97-4.68,1.7-6.78,1.7c-0.69,1.22-2.53,2.75-4.54,4.05l-0.05,0.03c-2.18,1.4-4.6,2.56-5.98,2.77 c-0.45,1.11-1.76,2.8-3.15,4.28c-1.69,1.8-3.6,3.33-4.37,3.24l-0.01,0c-0.36-0.04-0.62-0.37-0.58-0.73 c0.04-0.36,0.37-0.62,0.73-0.58l0,0c0.35,0.02,1.81-1.3,3.26-2.83c1.49-1.58,2.87-3.34,2.96-4.07c0.04-0.36,0.37-0.63,0.73-0.59 c0.89,0.1,3.39-1.1,5.7-2.59l0.04-0.03c2.05-1.33,3.88-2.84,4.21-3.81l0,0c0.09-0.28,0.36-0.47,0.66-0.45 c1.96,0.1,4.48-0.61,6.63-1.57C39.52,21.46,41.38,20.19,41.48,19.44L41.48,19.44z"/><path d="M41.55,7.51c0.18-0.32,0.58-0.44,0.9-0.26c0.32,0.18,0.44,0.58,0.26,0.9c-0.45,0.82-2.79,2.18-5.46,3.35 c-2.29,1-4.86,1.89-6.71,2.21c-0.58,1.41-2.95,3.43-5.61,5.13c-2.78,1.78-5.93,3.27-7.65,3.36c-1.23,1.65-3.01,3.37-4.86,4.71 c-1.79,1.3-3.68,2.24-5.26,2.41c-0.36,0.04-0.69-0.22-0.73-0.59C6.39,28.36,6.66,28.04,7.02,28c1.34-0.14,3.01-0.99,4.63-2.16 c1.84-1.33,3.6-3.07,4.76-4.69l0,0c0.13-0.18,0.36-0.3,0.6-0.27l0.06,0c1.36,0.06,4.4-1.4,7.14-3.16c2.69-1.72,5.05-3.66,5.13-4.62 l0-0.01c0.01-0.32,0.25-0.59,0.58-0.63c1.73-0.22,4.41-1.14,6.79-2.18C39.16,9.21,41.24,8.07,41.55,7.51L41.55,7.51z"/><path d="M41.55,8.14c-0.18-0.32-0.06-0.72,0.26-0.9c0.32-0.18,0.72-0.06,0.9,0.26c0.31,0.57,2.39,1.7,4.83,2.77 c2.38,1.04,5.06,1.96,6.79,2.18c0.33,0.04,0.57,0.31,0.58,0.63l0,0.01c0.09,0.96,2.44,2.9,5.13,4.62c2.74,1.75,5.77,3.21,7.14,3.16 l0.07,0c0.24-0.02,0.47,0.09,0.6,0.27l0,0c1.16,1.61,3.12,3.48,5.16,4.94c1.83,1.31,3.7,2.28,5.05,2.43 c0.36,0.04,0.63,0.36,0.59,0.73c-0.04,0.36-0.36,0.63-0.73,0.59c-1.59-0.17-3.68-1.24-5.67-2.66c-2.04-1.46-4.02-3.31-5.27-4.96 c-1.71-0.09-4.86-1.58-7.65-3.36c-2.66-1.7-5.03-3.72-5.61-5.13c-1.85-0.32-4.42-1.21-6.71-2.21C44.34,10.32,42,8.96,41.55,8.14 L41.55,8.14z"/><path d="M41.48,19.61c-0.05-0.36,0.21-0.69,0.57-0.74c0.36-0.05,0.69,0.21,0.74,0.57c0.1,0.75,1.95,2.02,4.29,3.07 c2.15,0.97,4.66,1.68,6.63,1.57c0.3-0.02,0.57,0.18,0.66,0.45l0,0c0.32,0.97,2.15,2.49,4.21,3.81c2.32,1.5,4.85,2.72,5.75,2.62 c0.36-0.04,0.69,0.23,0.73,0.59c0.08,0.73,1.46,2.49,2.96,4.07c1.45,1.54,2.91,2.87,3.26,2.83l0,0c0.36-0.04,0.69,0.22,0.73,0.59 c0.04,0.36-0.22,0.69-0.59,0.73l0,0c-0.77,0.08-2.67-1.45-4.37-3.24c-1.39-1.48-2.71-3.17-3.15-4.28c-1.39-0.21-3.84-1.38-6.03-2.8 c-2.01-1.3-3.85-2.82-4.54-4.05c-2.1,0-4.63-0.73-6.78-1.7C43.82,22.5,41.64,20.81,41.48,19.61L41.48,19.61z"/><path d="M29.11,116.45c0.1,0.35-0.11,0.72-0.47,0.81c-0.35,0.1-0.72-0.11-0.81-0.47c-2.88-10.58,3.25-25.43,9.09-39.58 c1.61-3.89,3.19-7.73,4.59-11.48c0.13-0.34,0.51-0.52,0.85-0.39c0.34,0.13,0.52,0.51,0.39,0.85c-1.36,3.66-2.97,7.57-4.61,11.53 C32.39,91.66,26.35,106.29,29.11,116.45L29.11,116.45z"/><path d="M18.31,105.88c-0.02,0.37-0.34,0.64-0.7,0.62c-0.37-0.02-0.64-0.34-0.62-0.7c0.81-13.08,7.12-20.12,15.2-29.12 c2.96-3.3,6.16-6.87,9.42-11.12c0.22-0.29,0.64-0.35,0.93-0.12c0.29,0.22,0.35,0.64,0.12,0.93c-3.27,4.27-6.5,7.87-9.49,11.2 C25.27,86.37,19.09,93.25,18.31,105.88L18.31,105.88z"/><path d="M10.25,95.71c-0.09,0.36-0.45,0.57-0.8,0.48c-0.36-0.09-0.57-0.45-0.48-0.8c3.01-11.92,9.47-15.77,20.78-22.51 c3.51-2.09,7.5-4.47,12.02-7.48c0.31-0.2,0.72-0.12,0.92,0.19c0.2,0.31,0.12,0.72-0.19,0.92c-4.52,3.01-8.54,5.4-12.07,7.51 C19.41,80.58,13.13,84.33,10.25,95.71L10.25,95.71z"/><path d="M67.28,105.8c0.02,0.37-0.26,0.68-0.62,0.7c-0.37,0.02-0.68-0.26-0.7-0.62c-0.78-12.62-6.96-19.51-14.86-28.32 c-2.99-3.33-6.21-6.93-9.49-11.2c-0.22-0.29-0.17-0.71,0.12-0.93c0.29-0.22,0.71-0.17,0.93,0.12c3.26,4.25,6.46,7.82,9.42,11.12 C60.15,85.68,66.46,92.72,67.28,105.8L67.28,105.8z"/><path d="M75.3,95.39c0.09,0.36-0.13,0.72-0.48,0.8c-0.35,0.09-0.71-0.13-0.8-0.48c-2.87-11.38-9.16-15.13-20.17-21.7 c-3.53-2.11-7.55-4.5-12.07-7.51c-0.3-0.2-0.39-0.61-0.19-0.92c0.2-0.3,0.61-0.39,0.92-0.19c4.52,3,8.51,5.38,12.02,7.48 C65.83,79.63,72.29,83.48,75.3,95.39L75.3,95.39z"/><path d="M42.65,78.3c-0.23,0.29-0.64,0.34-0.93,0.11c-0.29-0.23-0.34-0.64-0.11-0.93l0.04-0.05c0.02-0.02,0.03-0.04,0.05-0.06 c0.22-0.29,0.64-0.35,0.93-0.12c0.29,0.22,0.35,0.64,0.12,0.93L42.65,78.3L42.65,78.3z"/><path d="M42.65,77.48c0.23,0.29,0.18,0.7-0.11,0.93c-0.29,0.23-0.7,0.18-0.93-0.11c-0.42-0.52-0.94-0.99-1.59-1.24 c-0.52-0.2-1.15-0.27-1.87-0.11c-0.33,0.07-0.65-0.12-0.76-0.42c-0.23-0.63-0.46-1.1-0.76-1.43c-0.28-0.31-0.65-0.54-1.18-0.7 c-0.29-0.09-0.48-0.37-0.47-0.66c0-0.05,0-0.09,0.01-0.14c0.02-0.12,0.03-0.23,0.03-0.34c0-0.25-0.05-0.47-0.14-0.65 c-0.11-0.23-0.3-0.41-0.56-0.51l0.45-1.24c0.6,0.22,1.04,0.62,1.31,1.15c0.19,0.37,0.28,0.8,0.27,1.28l0,0.04 c0.52,0.22,0.93,0.51,1.27,0.9c0.33,0.37,0.59,0.81,0.82,1.35c0.77-0.08,1.45,0.03,2.06,0.26C41.4,76.18,42.11,76.8,42.65,77.48 L42.65,77.48z"/><path d="M42.65,78.3c-0.23,0.29-0.64,0.33-0.93,0.11c-0.29-0.23-0.33-0.64-0.11-0.93c0.54-0.68,1.25-1.3,2.16-1.65 c0.61-0.23,1.3-0.34,2.06-0.26c0.23-0.54,0.49-0.99,0.82-1.35c0.34-0.38,0.75-0.67,1.27-0.9v-0.04c-0.01-0.47,0.09-0.9,0.27-1.28 c0.26-0.53,0.7-0.93,1.31-1.15l0.45,1.24c-0.26,0.09-0.45,0.27-0.56,0.51c-0.09,0.18-0.14,0.41-0.14,0.65 c0,0.11,0.01,0.22,0.03,0.34c0.01,0.05,0.01,0.09,0.01,0.14c0.01,0.29-0.17,0.57-0.47,0.66c-0.53,0.17-0.9,0.39-1.18,0.7 c-0.3,0.34-0.53,0.8-0.76,1.43c-0.11,0.3-0.43,0.49-0.76,0.42c-0.73-0.16-1.35-0.09-1.88,0.11C43.6,77.31,43.07,77.78,42.65,78.3 L42.65,78.3z"/><path d="M42.75,87.37c0.14,0.34-0.02,0.72-0.36,0.86c-0.34,0.14-0.72-0.02-0.86-0.36c-0.39-0.95-1.39-2.15-2.8-2.88 c-1.06-0.54-2.34-0.82-3.78-0.51c-0.36,0.08-0.71-0.15-0.79-0.51l-0.01-0.03c-0.2-1.12-0.71-2.05-1.43-2.64 c-0.66-0.54-1.52-0.79-2.49-0.63c-0.36,0.06-0.7-0.18-0.76-0.54c-0.01-0.05-0.01-0.1-0.01-0.15l0-0.08 c-0.02-0.63-0.32-1.4-0.76-2.02c-0.4-0.56-0.9-0.97-1.39-0.98l-0.05,0c-0.37,0.01-0.67-0.27-0.68-0.64 c-0.01-0.37,0.27-0.67,0.64-0.68c0.04,0,0.08,0,0.12,0c0.95,0.02,1.82,0.66,2.44,1.54c0.47,0.65,0.81,1.44,0.94,2.19 c1.09-0.02,2.05,0.34,2.84,0.97c0.82,0.67,1.44,1.64,1.76,2.8c1.51-0.19,2.87,0.15,4.02,0.74C41.04,84.7,42.26,86.19,42.75,87.37 L42.75,87.37z"/><path d="M42.75,97.29c0.14,0.34-0.02,0.72-0.36,0.86c-0.34,0.14-0.72-0.02-0.86-0.36c-0.38-0.93-2.38-2.54-4.7-3.67 c-1.78-0.86-3.7-1.41-5.17-1.09c-0.36,0.08-0.71-0.15-0.79-0.51l-0.01-0.03c-0.17-0.98-1.25-2.01-2.56-2.8 c-1.47-0.89-3.2-1.43-4.31-1.24c-0.36,0.06-0.7-0.18-0.76-0.54c-0.01-0.05-0.01-0.09-0.01-0.14c0-0.03-0.01-0.07-0.02-0.11 c-0.16-0.66-0.98-1.69-2.09-2.6c-1.12-0.91-2.49-1.65-3.73-1.67c-0.24,0-0.48,0.02-0.71,0.08c-0.36,0.09-0.71-0.13-0.8-0.48 c-0.09-0.36,0.13-0.71,0.49-0.8c0.34-0.08,0.69-0.12,1.05-0.11c1.58,0.03,3.24,0.9,4.55,1.97c1.2,0.98,2.14,2.17,2.46,3.07 c1.36,0,3.1,0.58,4.57,1.46c1.36,0.82,2.53,1.91,3,3.08c1.67-0.15,3.63,0.42,5.41,1.29C39.98,94.19,42.26,96.11,42.75,97.29 L42.75,97.29z"/><path d="M42.79,108.7c0.05,0.36-0.21,0.69-0.57,0.74c-0.36,0.05-0.69-0.21-0.74-0.57c-0.1-0.74-2.44-2.18-5.25-3.41 c-2.6-1.14-5.56-2.01-7.54-1.91c-0.3,0.02-0.57-0.18-0.66-0.45l0,0c-0.33-0.99-1.88-2.38-3.62-3.56c-1.92-1.3-3.99-2.29-4.87-2.2 c-0.36,0.04-0.69-0.22-0.73-0.59c-0.01-0.12,0.01-0.23,0.05-0.33c0.04-0.11,0.04-0.28,0-0.5l0-0.02c-0.18-0.93-1-2.24-2.05-3.45 c-1.07-1.23-2.36-2.32-3.48-2.77c-0.42-0.17-0.79-0.24-1.09-0.18c-0.36,0.07-0.71-0.17-0.77-0.53c-0.07-0.36,0.17-0.71,0.53-0.77 c0.56-0.11,1.19-0.01,1.83,0.25c1.32,0.53,2.8,1.77,3.99,3.14c1.19,1.37,2.11,2.91,2.35,4.06l0.01,0.03 c0.03,0.14,0.04,0.27,0.05,0.4c1.3,0.25,3.21,1.19,4.94,2.36c1.72,1.16,3.3,2.58,3.94,3.78c2.17,0.02,5.1,0.9,7.67,2.02 C39.94,105.64,42.63,107.5,42.79,108.7L42.79,108.7z"/><path d="M42.79,117.69c0.05,0.36-0.21,0.69-0.57,0.74c-0.36,0.05-0.69-0.21-0.74-0.57c-0.1-0.73-2.65-2.25-5.67-3.55 c-2.8-1.21-5.95-2.15-7.93-2.05c-0.3,0.02-0.57-0.18-0.66-0.45l0,0c-0.35-1.06-2.22-2.87-4.25-4.43c-2.05-1.57-4.2-2.85-5.01-2.76 c-0.36,0.04-0.69-0.23-0.73-0.59c-0.09-0.81-1.55-2.8-3.34-4.63c-1.52-1.56-3.25-2.95-4.53-3.33C9,95.96,8.8,95.59,8.9,95.24 c0.1-0.35,0.47-0.55,0.82-0.45c1.5,0.45,3.44,1.98,5.1,3.68c1.68,1.72,3.11,3.66,3.57,4.86c1.3,0.25,3.42,1.49,5.37,2.99 c1.97,1.51,3.82,3.3,4.51,4.61c2.19,0.03,5.31,0.97,8.06,2.16C39.72,114.56,42.63,116.49,42.79,117.69L42.79,117.69z"/><path d="M42.75,87.87c-0.14,0.34-0.53,0.5-0.86,0.36c-0.34-0.14-0.5-0.53-0.36-0.86c0.49-1.19,1.71-2.67,3.42-3.56 c1.14-0.59,2.5-0.92,4.02-0.74c0.32-1.15,0.93-2.13,1.76-2.8c0.78-0.64,1.75-1,2.84-0.97c0.13-0.75,0.47-1.54,0.94-2.19l0,0l0,0 c0.62-0.87,1.49-1.51,2.44-1.53c0.04,0,0.08,0,0.12,0c0.37,0.01,0.65,0.32,0.64,0.68c-0.01,0.37-0.32,0.65-0.68,0.64l-0.05,0 c-0.48,0.01-0.98,0.42-1.39,0.98l0,0c-0.44,0.62-0.73,1.38-0.76,2.02l0,0.08c0,0.05,0,0.1-0.01,0.15c-0.06,0.36-0.4,0.6-0.76,0.54 c-0.97-0.16-1.83,0.09-2.49,0.63c-0.73,0.59-1.24,1.52-1.43,2.64l-0.01,0.03c-0.08,0.36-0.43,0.59-0.79,0.51 c-1.43-0.31-2.72-0.04-3.78,0.51C44.13,85.72,43.13,86.92,42.75,87.87L42.75,87.87z"/><path d="M42.75,97.8c-0.14,0.34-0.53,0.5-0.86,0.36c-0.34-0.14-0.5-0.53-0.36-0.86c0.49-1.18,2.77-3.1,5.35-4.36 c1.78-0.87,3.74-1.44,5.41-1.29c0.47-1.16,1.64-2.26,3-3.08c1.47-0.88,3.21-1.47,4.57-1.46c0.32-0.89,1.26-2.08,2.46-3.07 c1.31-1.07,2.97-1.94,4.55-1.97c0.36-0.01,0.71,0.03,1.05,0.11c0.35,0.09,0.57,0.45,0.48,0.8c-0.09,0.35-0.45,0.57-0.8,0.48 c-0.23-0.06-0.47-0.08-0.71-0.08c-1.24,0.02-2.61,0.76-3.73,1.67c-1.11,0.91-1.93,1.95-2.09,2.6c-0.01,0.04-0.02,0.08-0.02,0.11 c0,0.05,0,0.09-0.01,0.14c-0.06,0.36-0.4,0.6-0.76,0.54c-1.11-0.19-2.84,0.36-4.31,1.24c-1.31,0.79-2.38,1.82-2.56,2.8l-0.01,0.03 c-0.08,0.36-0.43,0.59-0.79,0.51c-1.46-0.32-3.39,0.23-5.17,1.09C45.13,95.26,43.13,96.87,42.75,97.8L42.75,97.8z"/><path d="M41.7,65.45L41.7,65.45l0.23,0.27l0.69,0.68c-0.03,0.03-0.04,0.04-0.06,0.06l-0.01,0.01l-0.65-0.77l0.02,0.02L41.7,65.45 L41.7,65.45z M41.91,65.69l-0.2-0.24l-0.02,0.02L41.91,65.69L41.91,65.69z M41.68,65.47C41.68,65.48,41.68,65.48,41.68,65.47 L41.68,65.47z"/><path d="M78.56,27.43c0.14-0.34,0.53-0.5,0.87-0.36c0.34,0.14,0.5,0.53,0.36,0.87C75.57,38,61.38,50.2,49.57,60.37 c-2.49,2.15-4.88,4.2-7,6.08c-0.27,0.24-0.69,0.22-0.94-0.05c-0.24-0.27-0.22-0.69,0.05-0.94c2.19-1.95,4.55-3.98,7.01-6.1 C60.41,49.29,74.47,37.19,78.56,27.43L78.56,27.43z"/><path d="M41.47,3.82c0-0.37,0.3-0.66,0.66-0.66c0.37,0,0.66,0.3,0.66,0.66v117.32c0,0.37-0.3,0.66-0.66,0.66 c-0.37,0-0.66-0.3-0.66-0.66V3.82L41.47,3.82z"/><path d="M56.43,116.79c-0.1,0.35-0.46,0.56-0.81,0.47c-0.35-0.1-0.56-0.46-0.47-0.81c2.76-10.15-3.28-24.79-9.04-38.73 c-1.64-3.96-3.25-7.87-4.61-11.53c-0.13-0.34,0.05-0.73,0.39-0.85c0.34-0.13,0.73,0.05,0.85,0.39c1.39,3.75,2.98,7.59,4.59,11.49 C53.18,91.36,59.31,106.21,56.43,116.79L56.43,116.79z"/><path d="M42.79,108.87c-0.05,0.36-0.38,0.62-0.74,0.57c-0.36-0.05-0.62-0.38-0.57-0.74c0.16-1.2,2.85-3.06,6.04-4.45 c2.57-1.12,5.51-2,7.67-2.02c0.64-1.2,2.22-2.62,3.94-3.78c1.73-1.17,3.65-2.11,4.94-2.36c0.01-0.13,0.02-0.26,0.05-0.4 c0.22-1.16,1.15-2.71,2.35-4.09c1.19-1.37,2.67-2.61,3.99-3.14c0.64-0.26,1.26-0.36,1.83-0.25c0.36,0.07,0.6,0.41,0.53,0.77 c-0.07,0.36-0.41,0.6-0.77,0.53c-0.3-0.06-0.68,0.01-1.09,0.18c-1.12,0.45-2.42,1.54-3.48,2.77c-1.06,1.22-1.88,2.54-2.05,3.47 c-0.04,0.21-0.04,0.39,0,0.5c0.04,0.1,0.06,0.21,0.05,0.33c-0.04,0.36-0.36,0.63-0.73,0.59c-0.88-0.1-2.95,0.9-4.87,2.2 c-1.74,1.18-3.3,2.57-3.62,3.56l0,0c-0.09,0.28-0.36,0.47-0.66,0.45c-1.98-0.1-4.94,0.77-7.54,1.91 C45.23,106.69,42.89,108.14,42.79,108.87L42.79,108.87z"/><path d="M42.79,117.86c-0.05,0.36-0.38,0.62-0.74,0.57c-0.36-0.05-0.62-0.38-0.57-0.74c0.16-1.2,3.06-3.13,6.45-4.6 c2.75-1.19,5.87-2.13,8.06-2.16c0.69-1.3,2.54-3.1,4.51-4.61c1.95-1.5,4.07-2.74,5.37-2.99c0.46-1.21,1.89-3.15,3.56-4.86 c1.66-1.7,3.59-3.23,5.1-3.68c0.35-0.1,0.72,0.1,0.82,0.45c0.1,0.35-0.1,0.72-0.45,0.82c-1.27,0.38-3,1.77-4.52,3.33 c-1.79,1.83-3.25,3.82-3.34,4.63c-0.04,0.36-0.36,0.63-0.73,0.59c-0.82-0.09-2.96,1.19-5.01,2.76c-2.03,1.56-3.9,3.38-4.25,4.43 l0,0c-0.09,0.28-0.36,0.47-0.66,0.45c-1.99-0.1-5.13,0.84-7.93,2.05C45.44,115.61,42.89,117.13,42.79,117.86L42.79,117.86z"/></g></svg>