<svg xmlns="http://www.w3.org/2000/svg" shape-rendering="geometricPrecision" text-rendering="geometricPrecision" image-rendering="optimizeQuality" fill-rule="evenodd" clip-rule="evenodd" viewBox="0 0 411 512.58"><path d="M204.74 30.04c12.61 0 24.76 1.89 36.15 5.36 5.13-10.46 13.25-19.29 23.31-25.51C274.31 3.64 286.32 0 299.13 0c17.54 0 33.5 6.76 45.13 17.69 11.86 11.15 19.2 26.6 19.2 43.71 0 13.99-4.94 26.91-13.27 37.29-7.54 9.4-17.88 16.65-29.81 20.64 1.58 7.3 2.41 14.86 2.41 22.61 0 21.3-6.28 41.22-17.19 58.16 34.45 15.97 67.3 39.12 89.57 73.32 41.63 68.45-7.48 107.89-48.11 71.46-5.18-4.64-11.42-10.96-14.76-18.48.83 8.18.97 16.34.4 24.37 7.01 1.58 13.8 4.36 20.16 8.4 1 .63 2.09 1.37 3.26 2.22l-.02.03c16.59 11.99 26.35 30.71 28.73 51.27 2.29 19.75-2.26 41.37-14.19 60.17-.75 1.18-1.83 2.75-3.23 4.69-12.06 16.71-28.4 27.89-45.54 32.53-18 4.88-36.88 2.73-52.98-7.49-.65-.41-1.72-1.15-3.2-2.21-14.43-10.43-23.71-25.94-27.46-43.34-10.05 2.19-20.96 3.54-32.73 3.94-12.29-.42-23.62-1.89-34.05-4.25-3.69 17.51-12.98 33.13-27.48 43.62l.02.03c-1.18.85-2.26 1.59-3.26 2.22-16.1 10.21-34.98 12.36-52.98 7.48-17.13-4.64-33.47-15.82-45.54-32.53-1.39-1.93-2.49-3.52-3.23-4.69-11.93-18.8-16.48-40.42-14.19-60.17 2.38-20.58 12.17-39.31 28.77-51.3 1.49-1.08 2.55-1.81 3.2-2.22a63.58 63.58 0 0 1 21.52-8.69c-.64-9.28-.32-18.74.9-28.21-2.43 9.35-9.14 17.14-15.24 22.61-40.63 36.43-89.74-3.01-48.11-71.46 22.02-33.82 54.38-56.83 88.41-72.78-11.12-17.06-17.55-37.17-17.55-58.7 0-7.75.83-15.31 2.41-22.61-11.92-3.99-22.26-11.24-29.8-20.64-8.33-10.38-13.27-23.3-13.27-37.29 0-17.11 7.34-32.56 19.2-43.71C76.85 6.76 92.82 0 110.36 0c12.81 0 24.82 3.64 34.93 9.89 10.05 6.22 18.18 15.05 23.31 25.51 11.39-3.48 23.53-5.36 36.14-5.36zm34.42 176.31a4.427 4.427 0 0 1 6.3.02 4.54 4.54 0 0 1-.02 6.37c-5.32 5.33-11.44 9.34-18.19 12.01-6.79 2.7-14.21 4.03-22.08 4.02-7.99.01-15.52-1.37-22.4-4.15-6.83-2.75-13.01-6.88-18.35-12.37-1.73-1.77-1.7-4.62.05-6.37a4.428 4.428 0 0 1 6.3.06c4.47 4.58 9.62 8.03 15.31 10.32 4.47 1.81 9.28 2.91 14.37 3.33v-25.42c-6.12-2.39-11.06-6.44-15.17-11.66-7.03-8.9-4.96-17.24 7.25-17.24h20.37c9.03 0 20.33 4.18 13.75 15.16-4.11 6.83-10.06 11.18-17.22 13.87v25.32c5.15-.37 10.03-1.46 14.57-3.26 5.62-2.23 10.72-5.57 15.16-10.01zm16.07-165.58c27.92 12.75 50.02 35.01 60.85 63.91 18.74-6.48 32.1-23.42 32.1-43.28 0-25.47-21.96-46.12-49.05-46.12-19.22 0-35.85 10.37-43.9 25.49zM93.45 104.55c10.78-28.85 32.94-51.06 60.81-63.78-8.06-15.12-24.69-25.49-43.9-25.49-27.09 0-49.06 20.65-49.06 46.12 0 19.86 13.37 36.8 32.1 43.28l.05-.13zm159.38-.86c8.13 0 14.72 6.59 14.72 14.72s-6.59 14.72-14.72 14.72-14.72-6.59-14.72-14.72 6.59-14.72 14.72-14.72zm-96.17 0c8.13 0 14.72 6.59 14.72 14.72s-6.59 14.72-14.72 14.72-14.72-6.59-14.72-14.72 6.59-14.72 14.72-14.72zm92.12 52.91c18.88 12.84 26.17 33.83 16.26 56.48-10.97 25.07-32.88 35.62-59.98 35.58-27.09.04-49.23-10.51-60.2-35.58-9.91-22.65-2.62-43.64 16.26-56.48 11.52-7.83 27.59-11.83 43.83-12.04 16.24.21 32.31 4.21 43.83 12.04zM62.75 374.14c25.65-18.52 62.57-8.13 82.45 23.2 19.88 31.34 15.2 71.76-10.46 90.28-25.65 18.52-62.57 8.13-82.45-23.2-19.88-31.34-15.2-71.75 10.46-90.28zm142.13-89.88c19.24-19.54 47.72-20.94 64.97 1.69 8.84 11.59 10.06 25.94 3.41 38.83-3.15 6.1-11.6 16.4-21.51 27.43-15.23 16.97-34.15 36-41.91 43.48-2.62 2.53-6.84 2.55-9.48.07-3.61-3.36-6.25-5.77-9.01-8.27-22.7-20.66-83.09-74.35-46.15-107.82 18.27-16.55 43.02-11.11 59.68 4.59zm142 89.88c-25.66-18.52-62.57-8.13-82.45 23.2-19.89 31.34-15.21 71.76 10.45 90.28 25.65 18.52 62.57 8.13 82.45-23.2 19.88-31.34 15.2-71.75-10.45-90.28z"/></svg>