<?xml version="1.0" encoding="utf-8"?><svg version="1.1" id="Layer_1" xmlns="http://www.w3.org/2000/svg" xmlns:xlink="http://www.w3.org/1999/xlink" x="0px" y="0px" viewBox="0 0 122.88 122.88" style="enable-background:new 0 0 122.88 122.88" xml:space="preserve"><style type="text/css">.st0{fill-rule:evenodd;clip-rule:evenodd;}</style><g><path class="st0" d="M46.27,38.56c4.22,0,7.64,3.42,7.64,7.64s-3.42,7.64-7.64,7.64c-4.22,0-7.64-3.42-7.64-7.64 S42.05,38.56,46.27,38.56L46.27,38.56z M61.44,0c0.2,0,0.4,0.01,0.61,0.01c-3.45,3.94-6.48,8.11-9.22,12.39 c-3.66,5.73-6.75,11.63-9.56,17.49c-0.23,0.47-0.39,0.96-0.5,1.44c-4.79,1.13-8.72,4.51-10.59,8.96c-0.33,0.01-0.66,0.04-0.99,0.1 c-5.35,0.94-10.85,2.17-16.48,3.65c-4.39,1.16-8.8,2.46-13.22,3.9C7.64,20.5,32.14,0,61.44,0L61.44,0z M56.04,34.46 c2.43-5.01,5.09-10.01,8.16-14.81c3.23-5.06,6.96-9.93,11.43-14.4c0.9-0.9,1.49-1.99,1.77-3.14c21.7,5.82,38.66,23.23,43.84,45.19 c-9.38-3.23-19.22-5.71-29.05-7.38c-11.15-1.9-22.33-2.74-32.81-2.43c-0.19,0.01-0.37,0.02-0.55,0.04 C58.04,36.37,57.1,35.34,56.04,34.46L56.04,34.46z M60.79,50.94c9.25-0.2,19.17,0.6,29.17,2.3c10.25,1.74,20.55,4.46,30.27,8.05 c0.87,0.32,1.77,0.45,2.64,0.41c-0.11,28.69-19.88,52.73-46.54,59.38c-2.45-2.41-14.9-16.32-17.99-25.34 c-4.12-9.04-7.01-20.33-8.13-34.77C55.22,59.62,59.2,55.82,60.79,50.94L60.79,50.94z M36.79,58.18c-0.16,0.66-0.23,1.35-0.18,2.06 c1.15,16.92,4.53,30.26,9.47,41.1c3.94,8.64,8.84,15.64,14.37,21.54C27.24,122.35,0.44,95.49,0,62.27c0.77,0.02,1.55-0.1,2.32-0.36 c5.36-1.82,10.64-3.43,15.83-4.8c4.95-1.3,9.91-2.41,14.88-3.3C33.99,55.5,35.27,56.98,36.79,58.18L36.79,58.18z"/></g></svg>