<?xml version="1.0" encoding="utf-8"?><svg version="1.1" id="Layer_1" xmlns="http://www.w3.org/2000/svg" xmlns:xlink="http://www.w3.org/1999/xlink" x="0px" y="0px" viewBox="0 0 122.88 121.8" style="enable-background:new 0 0 122.88 121.8" xml:space="preserve"><style type="text/css">.st0{fill-rule:evenodd;clip-rule:evenodd;}</style><g><path class="st0" d="M58.25,28.45l0.43,0.01L27.84,58.57C28,41.91,41.55,28.45,58.25,28.45L58.25,28.45z M79.79,90.12l9.29-10.98 c7.96,5.62,15.47,11.83,22.22,19.02c1.48,1.58,2.74,2.91,3.83,4.1l-13.86,12.49c-1.29-1.01-2.69-2.21-4.25-3.63 C90.58,105.21,85.09,97.83,79.79,90.12L79.79,90.12z M118.6,106.4c2.74,3.81,3.3,6.97,4.28,15.4c-8.05-1.25-12.31-1.53-16.95-3.98 L118.6,106.4L118.6,106.4z M47.25,101.23c1.1,0.46,1.61,1.73,1.15,2.82c-0.46,1.1-1.73,1.61-2.82,1.15 c-7.04-2.97-13.29-6.86-18.51-11.95c-5.25-5.11-9.47-11.42-12.4-19.17c-0.42-1.12,0.14-2.36,1.26-2.78 c1.12-0.42,2.36,0.14,2.78,1.26c2.7,7.14,6.57,12.92,11.37,17.6C34.9,94.86,40.7,98.47,47.25,101.23L47.25,101.23z M42.5,115.68 c1.14,0.35,1.78,1.56,1.43,2.7c-0.35,1.14-1.56,1.78-2.7,1.43c-10.15-3.14-19.03-7.78-26.09-14.58 C8.05,98.39,2.83,89.42,0.06,77.68c-0.27-1.16,0.45-2.32,1.61-2.6c1.16-0.27,2.32,0.45,2.6,1.61c2.57,10.88,7.37,19.15,13.87,25.41 C24.68,108.41,32.97,112.73,42.5,115.68L42.5,115.68z M68.77,18.67c-1.1-0.46-1.61-1.73-1.15-2.82c0.46-1.1,1.73-1.61,2.82-1.15 c7.04,2.97,13.29,6.86,18.51,11.95c5.25,5.11,9.47,11.42,12.4,19.17c0.42,1.12-0.14,2.36-1.26,2.78c-1.12,0.42-2.36-0.14-2.78-1.26 c-2.7-7.14-6.57-12.92-11.37-17.6C81.11,25.04,75.31,21.43,68.77,18.67L68.77,18.67z M73.51,4.22c-1.14-0.35-1.78-1.56-1.43-2.7 c0.35-1.14,1.56-1.78,2.7-1.43c10.15,3.14,19.03,7.78,26.09,14.58c7.09,6.83,12.31,15.8,15.09,27.54c0.27,1.16-0.45,2.32-1.61,2.6 c-1.16,0.27-2.32-0.45-2.6-1.61c-2.57-10.88-7.37-19.15-13.87-25.41C91.34,11.49,83.04,7.17,73.51,4.22L73.51,4.22z M56.71,53.27 c0.5-7.58,8.79-5.52,5.61,1.46c6.82-3.35,9.17,4.86,1.54,5.59c6.31,4.23,0.38,10.37-4.07,4.13c-0.5,7.58-8.79,5.51-5.61-1.46 c-6.82,3.35-9.17-4.85-1.54-5.59C46.32,53.18,52.25,47.03,56.71,53.27L56.71,53.27z M65.51,29.33 c11.31,2.77,20.13,11.86,22.51,23.32l-36.7,35.84c-11.36-2.65-20.27-11.65-22.77-23.06L65.51,29.33L65.51,29.33z M88.65,59.57 c-0.37,16.47-13.84,29.7-30.4,29.7h-0.02L88.65,59.57L88.65,59.57z"/></g></svg>