<?xml version="1.0" encoding="utf-8"?><svg version="1.1" id="Layer_1" xmlns="http://www.w3.org/2000/svg" xmlns:xlink="http://www.w3.org/1999/xlink" x="0px" y="0px" viewBox="0 0 122.88 116.54" style="enable-background:new 0 0 122.88 116.54" xml:space="preserve"><style type="text/css">.st0{fill-rule:evenodd;clip-rule:evenodd;}</style><g><path class="st0" d="M94.11,14.45c-6.08-0.68-4.2,10.42-4.28,33.38c21.12,5.6,24.11,33.16,13.18,51.38 c-9.24,15.42-26.66,17.29-43.14,17.33c-18.56,0.05-32.65-1-44.83-16.72C7.04,89.47,1.33,74.75,0.25,58.63 c-1.03-10.45,1.19-15.76,5.86-17.67c13.2-5.43,8.72,5.8,13.25,12.23c2.64,3.77,6.97,6.85,12.82,9.31 c5.93,0.6,11.08-1.18,16.19-1.48c22.73-1.34,23.33,15.24,18.97-4.65C48.6,52.91,41.73,33.19,46.6,18.21 C53.34-2.49,85.75-7.92,94.11,14.45L94.11,14.45z M95.25,43.2V18.56c7.64,3.09,13.91,5.1,22.31,5.88c7.93,0.73,6.66,0.46-1.49,6.9 C108.89,37.01,103.36,39.69,95.25,43.2L95.25,43.2z M77.08,16.31c1.95,0,3.53,1.58,3.53,3.53c0,1.95-1.58,3.53-3.53,3.53 s-3.53-1.58-3.53-3.53C73.55,17.88,75.13,16.31,77.08,16.31L77.08,16.31z"/></g></svg>