<svg id="Layer_1" data-name="Layer 1" xmlns="http://www.w3.org/2000/svg" viewBox="0 0 119.02 122.88"><defs><style>.cls-1{fill-rule:evenodd;}</style></defs><title>air-duct</title><path class="cls-1" d="M103.87,0H116a3,3,0,0,1,3,3v51a3,3,0,0,1-3,3H103.87a3,3,0,0,1-3-3V3a3,3,0,0,1,3-3ZM94.51,51.06c-19.06-.19-29.91,1.14-35.34,6.45-5.83,5.69-8.23,17.62-8.07,41.83H5.88C5.64,62.06,12.11,40.19,27.6,25.06,43.48,9.56,63.91,5.53,94.51,5.85V51.06Zm-37.6,56.67V119.9a3,3,0,0,1-3,3H3a3,3,0,0,1-3-3V107.73a3,3,0,0,1,3-3h51a3,3,0,0,1,3,3Z"/></svg>