<?xml version="1.0" encoding="utf-8"?><svg version="1.1" id="Layer_1" xmlns="http://www.w3.org/2000/svg" xmlns:xlink="http://www.w3.org/1999/xlink" x="0px" y="0px" viewBox="0 0 122.88 116.68" style="enable-background:new 0 0 122.88 116.68" xml:space="preserve"><style type="text/css">.st0{fill-rule:evenodd;clip-rule:evenodd;}</style><g><path class="st0" d="M23.64,38.26h2.77v-7.23h-15.9c-1.07,0-2.04-0.44-2.74-1.14s-1.14-1.67-1.14-2.74V3.88 c0-1.07,0.44-2.04,1.14-2.74C8.47,0.44,9.44,0,10.51,0h40.94c1.06,0,2.03,0.44,2.73,1.14l0,0l0,0c0.7,0.7,1.14,1.67,1.14,2.74 v23.28c0,1.07-0.44,2.04-1.14,2.74c-0.05,0.05-0.09,0.09-0.14,0.13c-0.69,0.63-1.6,1.01-2.6,1.01h-4.33v7.23h10.74V24.28 c-0.12-1.3-0.11-2.48,0.01-3.55c0.07-1.23,0.4-2.4,0.94-3.44c0.41-0.86,0.93-1.61,1.55-2.23c0.83-0.83,1.82-1.44,2.93-1.83 c0.97-0.38,2.02-0.59,3.12-0.59c0.54,0,1.07,0.05,1.59,0.15c0.11,0.01,0.23,0.03,0.34,0.04l26.67-6.08 c1.54-0.47,3.18-0.72,4.87-0.72c4.6,0,8.77,1.87,11.78,4.88c3.01,3.02,4.88,7.18,4.88,11.78c0,4.6-1.87,8.77-4.88,11.78 c-2.04,2.04-4.6,3.55-7.47,4.32c10.65,2.29,18.69,11.81,18.69,23.11v11.37c0,12.83-10.37,23.36-23.14,23.63 c2.88,1.94,4.77,5.23,4.77,8.97c0,5.97-4.84,10.81-10.81,10.81c-5.97,0-10.81-4.84-10.81-10.81c0-3.73,1.89-7.02,4.76-8.96H36.33 c2.87,1.94,4.76,5.23,4.76,8.96c0,5.97-4.84,10.81-10.81,10.81c-5.97,0-10.81-4.84-10.81-10.81c0-3.73,1.89-7.02,4.76-8.96h-0.6 C10.64,96.91,0,86.27,0,73.27V61.9C0,48.9,10.64,38.26,23.64,38.26L23.64,38.26z M10.42,19.9h7.99c0.81,0,1.47,0.66,1.47,1.47 c0,0.81-0.66,1.47-1.47,1.47h-7.99v4.31c0,0.02,0.01,0.05,0.03,0.06c0.02,0.02,0.04,0.03,0.06,0.03h40.94c0.02,0,0.03,0,0.05-0.01 l0.02-0.02c0.02-0.02,0.03-0.04,0.03-0.06V3.88c0-0.02-0.01-0.05-0.03-0.06l0,0c-0.02-0.01-0.04-0.02-0.07-0.02H10.51 c-0.02,0-0.05,0.01-0.06,0.03c-0.02,0.02-0.03,0.04-0.03,0.06v4.8h7.99c0.81,0,1.47,0.66,1.47,1.47c0,0.81-0.66,1.47-1.47,1.47 h-7.99v2.66h7.99c0.81,0,1.47,0.66,1.47,1.47s-0.66,1.47-1.47,1.47h-7.99V19.9L10.42,19.9z M29.44,38.26h14.64v-7.23H29.44V38.26 L29.44,38.26z M99.88,14.28c2.31,0,4.41,0.94,5.94,2.46l0.01,0.01c1.52,1.52,2.46,3.62,2.46,5.93c0,2.32-0.94,4.42-2.46,5.94 c-1.52,1.52-3.62,2.46-5.94,2.46c-2.32,0-4.41-0.94-5.94-2.46l-0.01-0.01c-1.52-1.52-2.46-3.62-2.46-5.94 c0-2.32,0.94-4.42,2.46-5.94C95.46,15.23,97.56,14.28,99.88,14.28L99.88,14.28z M103.14,19.42c-0.83-0.83-1.98-1.34-3.26-1.34 c-1.28,0-2.43,0.52-3.26,1.35c-0.83,0.83-1.35,1.99-1.35,3.26c0,1.28,0.52,2.43,1.35,3.27c0.83,0.83,1.99,1.35,3.27,1.35 c1.28,0,2.43-0.52,3.26-1.35c0.84-0.84,1.35-1.99,1.35-3.26C104.49,21.41,103.98,20.26,103.14,19.42L103.14,19.42L103.14,19.42z M86.67,12.53l-13.77,3.14c1.27,1.49,2.04,3.43,2.04,5.53v6.89l10.86,3.54c-1.64-2.58-2.6-5.65-2.6-8.93 C83.22,18.86,84.51,15.34,86.67,12.53L86.67,12.53z M95.21,34.69l1.35,0.44c1.06,0.28,2.17,0.43,3.31,0.43 c3.55,0,6.77-1.44,9.1-3.77c2.33-2.33,3.77-5.55,3.77-9.1c0-3.55-1.44-6.77-3.77-9.1c-2.33-2.33-5.55-3.77-9.1-3.77 c-3.55,0-6.77,1.44-9.1,3.77c-2.33,2.33-3.77,5.55-3.77,9.1c0,3.55,1.44,6.77,3.77,9.1C92.03,33.04,93.53,34.04,95.21,34.69 L95.21,34.69z M93.94,38.26l-0.14-0.05l-18.85-6.15v6.14l0,0.07H93.94L93.94,38.26z M71.16,30.82l-9.53-3.11v10.55h9.53l0-0.07 V30.82L71.16,30.82z M67.33,16.52c-0.62-0.05-1.21-0.04-1.76,0.04c-0.31,0.04-0.61,0.11-0.89,0.2c-0.62,0.24-1.17,0.61-1.64,1.07 c-0.35,0.35-0.65,0.77-0.88,1.22c-0.22,0.49-0.38,1.05-0.48,1.7l-0.02,0.16c-0.01,0.1-0.01,0.19-0.01,0.29v2.54l9.53,3.11v-5.65 c0-1.31-0.54-2.5-1.4-3.37C69.11,17.18,68.27,16.71,67.33,16.52L67.33,16.52z M30.28,101.29c2.53,0,4.58,2.05,4.58,4.58 c0,2.53-2.05,4.58-4.58,4.58c-2.53,0-4.58-2.05-4.58-4.58C25.71,103.34,27.76,101.29,30.28,101.29L30.28,101.29z M93.7,101.29 c2.53,0,4.58,2.05,4.58,4.58c0,2.53-2.05,4.58-4.58,4.58c-2.53,0-4.58-2.05-4.58-4.58C89.13,103.34,91.17,101.29,93.7,101.29 L93.7,101.29z M32.03,57.12h58.82c1.09,0,1.98,0.89,1.98,1.98v16.96c0,1.09-0.89,1.98-1.98,1.98H32.03c-1.09,0-1.98-0.89-1.98-1.98 V59.1C30.04,58.01,30.94,57.12,32.03,57.12L32.03,57.12z"/></g></svg>