<svg id="Layer_1" data-name="Layer 1" xmlns="http://www.w3.org/2000/svg" viewBox="0 0 122.88 108.28"><defs><style>.cls-1{fill:#939599;}.cls-1,.cls-2{fill-rule:evenodd;}.cls-2{fill:#b3b3b3;}</style></defs><title>aluminium</title><path d="M11.91,0h86.4a11.88,11.88,0,0,1,8.42,3.5l.23.25a11.86,11.86,0,0,1,3.26,8.16V96.37a11.92,11.92,0,0,1-3.49,8.4h0a11.89,11.89,0,0,1-8.4,3.5H11.91a11.87,11.87,0,0,1-8.4-3.5h0A11.86,11.86,0,0,1,0,96.37V11.91A11.95,11.95,0,0,1,11.91,0Z"/><path class="cls-1" d="M11.91,3.88h3.87a11.92,11.92,0,0,0-3.12,8V96.37a11.92,11.92,0,0,0,3.12,8H11.91a8.06,8.06,0,0,1-8-8V11.91a8.06,8.06,0,0,1,8-8Z"/><path d="M24.57,0H111a11.86,11.86,0,0,1,8.41,3.5l.24.25a11.86,11.86,0,0,1,3.26,8.16V96.37a11.89,11.89,0,0,1-3.5,8.4h0a11.91,11.91,0,0,1-8.4,3.5H24.57a11.85,11.85,0,0,1-8.4-3.5h0a11.89,11.89,0,0,1-3.49-8.41V11.91A11.93,11.93,0,0,1,24.57,0Z"/><path class="cls-2" d="M24.57,3.88H111a8.06,8.06,0,0,1,8,8V96.37a8.06,8.06,0,0,1-8,8H24.57a8.06,8.06,0,0,1-8-8V11.91a8.06,8.06,0,0,1,8-8Z"/><path d="M78.5,64.75a11.15,11.15,0,0,1,.44,1.68,1,1,0,0,1-.23.93,2,2,0,0,1-1.15.38c-.54.05-1.31.07-2.26.07s-1.78,0-2.33,0a5.72,5.72,0,0,1-1.28-.18,1.15,1.15,0,0,1-.62-.37,1.73,1.73,0,0,1-.29-.61L68.29,59H54L51.57,66.4a2.21,2.21,0,0,1-.32.69,1.21,1.21,0,0,1-.61.44,4.36,4.36,0,0,1-1.2.22q-.78.06-2,.06a19.14,19.14,0,0,1-2.12-.09,1.61,1.61,0,0,1-1.05-.42,1.15,1.15,0,0,1-.21-1,10.3,10.3,0,0,1,.44-1.64L56.16,31a2.84,2.84,0,0,1,.42-.8,1.4,1.4,0,0,1,.74-.47,6.33,6.33,0,0,1,1.43-.22c.6,0,1.4,0,2.4,0,1.16,0,2.08,0,2.76,0a7.67,7.67,0,0,1,1.6.22,1.58,1.58,0,0,1,.82.48,2.67,2.67,0,0,1,.43.88L78.5,64.75ZM38.59,90.13a3,3,0,0,1,.13.49.32.32,0,0,1-.07.28.54.54,0,0,1-.34.11,6.24,6.24,0,0,1-.67,0H37a2.35,2.35,0,0,1-.38,0,.38.38,0,0,1-.19-.11.75.75,0,0,1-.08-.18l-.74-2.27H31.3l-.71,2.2a.51.51,0,0,1-.09.21.31.31,0,0,1-.18.13A1.75,1.75,0,0,1,30,91h-.6l-.63,0a.45.45,0,0,1-.31-.13.36.36,0,0,1-.07-.28,3,3,0,0,1,.14-.49L32,80.1a.67.67,0,0,1,.12-.24.44.44,0,0,1,.22-.14,2.11,2.11,0,0,1,.43-.06h1.53a2.36,2.36,0,0,1,.47.06.46.46,0,0,1,.25.14.85.85,0,0,1,.12.27l3.49,10Zm-5.18-8.28h0l-1.57,4.79H35l-1.59-4.79ZM42,90.69a.24.24,0,0,1-.06.15.38.38,0,0,1-.17.11,2.12,2.12,0,0,1-.34.06,7,7,0,0,1-1.06,0,2.12,2.12,0,0,1-.34-.06.38.38,0,0,1-.17-.11.24.24,0,0,1-.06-.15V79.22a.25.25,0,0,1,.06-.16.32.32,0,0,1,.17-.11,1.31,1.31,0,0,1,.34-.08,4.7,4.7,0,0,1,1.06,0,1.31,1.31,0,0,1,.34.08.32.32,0,0,1,.17.11.25.25,0,0,1,.06.16V90.69Zm9.35,0a.28.28,0,0,1,0,.15.37.37,0,0,1-.15.11,1.45,1.45,0,0,1-.29.06,3,3,0,0,1-.45,0A3,3,0,0,1,50,91a1.45,1.45,0,0,1-.29-.06.33.33,0,0,1-.14-.11.3.3,0,0,1,0-.15v-.9a4.86,4.86,0,0,1-1.31,1,3.17,3.17,0,0,1-2.73.08,2.22,2.22,0,0,1-.88-.71,2.82,2.82,0,0,1-.49-1A6.85,6.85,0,0,1,44,87.66V82.9a.3.3,0,0,1,.05-.15.38.38,0,0,1,.17-.11,2.08,2.08,0,0,1,.35-.06,4,4,0,0,1,.53,0,4.11,4.11,0,0,1,.53,0,1.8,1.8,0,0,1,.33.06.37.37,0,0,1,.18.11.24.24,0,0,1,.06.15v4.4a4.43,4.43,0,0,0,.07.93,1.86,1.86,0,0,0,.24.55,1.08,1.08,0,0,0,.41.36,1.21,1.21,0,0,0,.58.13,1.44,1.44,0,0,0,.85-.31,5.22,5.22,0,0,0,.9-.88V82.9a.23.23,0,0,1,.05-.15.33.33,0,0,1,.17-.11,2,2,0,0,1,.33-.06,4.19,4.19,0,0,1,.54,0,4.11,4.11,0,0,1,.53,0,1.8,1.8,0,0,1,.33.06.38.38,0,0,1,.17.11.23.23,0,0,1,0,.15v7.79Zm14.38,0a.24.24,0,0,1-.06.15.38.38,0,0,1-.17.11,1.8,1.8,0,0,1-.33.06,4.11,4.11,0,0,1-.53,0,4.28,4.28,0,0,1-.55,0A1.8,1.8,0,0,1,63.8,91a.37.37,0,0,1-.18-.11.3.3,0,0,1,0-.15V86.08a3.2,3.2,0,0,0-.07-.72,1.63,1.63,0,0,0-.23-.55,1,1,0,0,0-.38-.36,1.07,1.07,0,0,0-.55-.13,1.26,1.26,0,0,0-.79.31,4.93,4.93,0,0,0-.87.89v5.17a.3.3,0,0,1,0,.15.37.37,0,0,1-.18.11,1.93,1.93,0,0,1-.34.06,4,4,0,0,1-.52,0,4.19,4.19,0,0,1-.54,0,1.8,1.8,0,0,1-.33-.06.37.37,0,0,1-.18-.11.23.23,0,0,1,0-.15V86.08a3.17,3.17,0,0,0-.08-.72,1.62,1.62,0,0,0-.22-.55,1,1,0,0,0-.38-.36,1.09,1.09,0,0,0-.55-.13,1.28,1.28,0,0,0-.8.31,4.6,4.6,0,0,0-.86.89v5.17a.24.24,0,0,1-.06.15.37.37,0,0,1-.18.11A1.8,1.8,0,0,1,55,91a4.11,4.11,0,0,1-.53,0A4.19,4.19,0,0,1,54,91a2,2,0,0,1-.33-.06.5.5,0,0,1-.18-.11.3.3,0,0,1-.05-.15V82.9a.28.28,0,0,1,0-.15.34.34,0,0,1,.16-.11,1.62,1.62,0,0,1,.29-.06,3,3,0,0,1,.45,0,3,3,0,0,1,.46,0,1.45,1.45,0,0,1,.29.06.4.4,0,0,1,.14.11.28.28,0,0,1,0,.15v.9a5.12,5.12,0,0,1,1.29-1,2.79,2.79,0,0,1,1.34-.35,3.69,3.69,0,0,1,.86.1,2.51,2.51,0,0,1,.69.29,1.84,1.84,0,0,1,.51.45,2.3,2.3,0,0,1,.37.58,5.65,5.65,0,0,1,.68-.64,4,4,0,0,1,.67-.44,2.36,2.36,0,0,1,.65-.25,2.52,2.52,0,0,1,.67-.09,3,3,0,0,1,1.3.26,2.34,2.34,0,0,1,.86.72,2.66,2.66,0,0,1,.47,1,5.75,5.75,0,0,1,.14,1.27v5Zm4.14,0a.3.3,0,0,1,0,.15.37.37,0,0,1-.18.11,2,2,0,0,1-.33.06,4.19,4.19,0,0,1-.54,0,4.11,4.11,0,0,1-.53,0A1.8,1.8,0,0,1,68,91a.37.37,0,0,1-.18-.11.23.23,0,0,1,0-.15V82.92a.21.21,0,0,1,0-.15.37.37,0,0,1,.18-.11,1.14,1.14,0,0,1,.33-.08,4.11,4.11,0,0,1,.53,0,4.19,4.19,0,0,1,.54,0,1.23,1.23,0,0,1,.33.08.37.37,0,0,1,.18.11.27.27,0,0,1,0,.15v7.77Zm.18-10.43a1.23,1.23,0,0,1-.27.92,2.18,2.18,0,0,1-2,0,1.22,1.22,0,0,1-.25-.88,1.28,1.28,0,0,1,.26-.92,1.5,1.5,0,0,1,1-.26,1.47,1.47,0,0,1,1,.25,1.2,1.2,0,0,1,.26.88Zm9.23,10.43a.3.3,0,0,1,0,.15.38.38,0,0,1-.17.11,2.12,2.12,0,0,1-.34.06,4.19,4.19,0,0,1-.53,0,4.28,4.28,0,0,1-.54,0,2.12,2.12,0,0,1-.34-.06.38.38,0,0,1-.17-.11.3.3,0,0,1-.05-.15V86.25a3.48,3.48,0,0,0-.09-.89,1.63,1.63,0,0,0-.23-.55,1,1,0,0,0-.41-.36,1.14,1.14,0,0,0-.57-.13,1.44,1.44,0,0,0-.85.31,4.65,4.65,0,0,0-.89.89v5.17a.23.23,0,0,1,0,.15.37.37,0,0,1-.18.11,1.8,1.8,0,0,1-.33.06A4.11,4.11,0,0,1,73,91a4.19,4.19,0,0,1-.54,0,2,2,0,0,1-.33-.06.5.5,0,0,1-.18-.11.3.3,0,0,1,0-.15V82.9a.28.28,0,0,1,0-.15.34.34,0,0,1,.16-.11,1.62,1.62,0,0,1,.29-.06,3,3,0,0,1,.45,0,3,3,0,0,1,.46,0,1.45,1.45,0,0,1,.29.06.4.4,0,0,1,.14.11.28.28,0,0,1,0,.15v.9a5,5,0,0,1,1.31-1,3,3,0,0,1,1.39-.35,3.14,3.14,0,0,1,1.34.26,2.41,2.41,0,0,1,.88.72,2.54,2.54,0,0,1,.48,1,6,6,0,0,1,.15,1.44v4.81Zm4.15,0a.3.3,0,0,1,0,.15.5.5,0,0,1-.18.11,2.19,2.19,0,0,1-.33.06,4.19,4.19,0,0,1-.54,0,4.11,4.11,0,0,1-.53,0,1.8,1.8,0,0,1-.33-.06.37.37,0,0,1-.18-.11.24.24,0,0,1-.06-.15V82.92a.22.22,0,0,1,.06-.15.37.37,0,0,1,.18-.11,1.14,1.14,0,0,1,.33-.08,4.11,4.11,0,0,1,.53,0,4.19,4.19,0,0,1,.54,0,1.33,1.33,0,0,1,.33.08.5.5,0,0,1,.18.11.27.27,0,0,1,0,.15v7.77Zm.18-10.43a1.23,1.23,0,0,1-.27.92,2.18,2.18,0,0,1-2,0,1.22,1.22,0,0,1-.26-.88,1.23,1.23,0,0,1,.27-.92,2.11,2.11,0,0,1,2,0,1.2,1.2,0,0,1,.26.88Zm9.18,10.43a.3.3,0,0,1,0,.15.27.27,0,0,1-.15.11,1.31,1.31,0,0,1-.29.06,2.82,2.82,0,0,1-.44,0,3.11,3.11,0,0,1-.47,0,1.33,1.33,0,0,1-.28-.06.37.37,0,0,1-.15-.11.3.3,0,0,1,0-.15v-.9a4.72,4.72,0,0,1-1.31,1,3.17,3.17,0,0,1-2.73.08A2.29,2.29,0,0,1,86,90.2a2.81,2.81,0,0,1-.48-1,6.22,6.22,0,0,1-.15-1.49V82.9a.3.3,0,0,1,0-.15.37.37,0,0,1,.18-.11,1.93,1.93,0,0,1,.34-.06,7,7,0,0,1,1.06,0,2.12,2.12,0,0,1,.34.06.38.38,0,0,1,.17.11.24.24,0,0,1,.06.15v4.4a4.31,4.31,0,0,0,.08.93,1.46,1.46,0,0,0,.24.55,1,1,0,0,0,.41.36,1.16,1.16,0,0,0,.58.13,1.39,1.39,0,0,0,.84-.31,5.22,5.22,0,0,0,.9-.88V82.9a.3.3,0,0,1,0-.15.38.38,0,0,1,.17-.11,2.12,2.12,0,0,1,.34-.06,7,7,0,0,1,1.06,0,1.8,1.8,0,0,1,.33.06.38.38,0,0,1,.17.11.24.24,0,0,1,.06.15v7.79Zm14.37,0a.3.3,0,0,1,0,.15A.5.5,0,0,1,107,91a1.8,1.8,0,0,1-.33.06,4.11,4.11,0,0,1-.53,0,4.36,4.36,0,0,1-.55,0,2,2,0,0,1-.33-.06.5.5,0,0,1-.18-.11.28.28,0,0,1,0-.15V86.08a3.17,3.17,0,0,0-.08-.72,1.62,1.62,0,0,0-.22-.55,1,1,0,0,0-.39-.36,1,1,0,0,0-.55-.13,1.28,1.28,0,0,0-.79.31,5.69,5.69,0,0,0-.87.89v5.17a.23.23,0,0,1,0,.15.37.37,0,0,1-.18.11,1.8,1.8,0,0,1-.33.06,4.11,4.11,0,0,1-.53,0,4,4,0,0,1-.53,0,1.93,1.93,0,0,1-.34-.06.37.37,0,0,1-.18-.11.3.3,0,0,1,0-.15V86.08a3.17,3.17,0,0,0-.08-.72,1.44,1.44,0,0,0-.22-.55,1,1,0,0,0-.38-.36,1.09,1.09,0,0,0-.55-.13,1.28,1.28,0,0,0-.8.31,4.6,4.6,0,0,0-.86.89v5.17a.24.24,0,0,1-.06.15.38.38,0,0,1-.17.11,2.12,2.12,0,0,1-.34.06,7,7,0,0,1-1.06,0,2.12,2.12,0,0,1-.34-.06.38.38,0,0,1-.17-.11.24.24,0,0,1-.06-.15V82.9a.3.3,0,0,1,0-.15.31.31,0,0,1,.15-.11,1.62,1.62,0,0,1,.29-.06,3,3,0,0,1,.45,0,3,3,0,0,1,.46,0,1.31,1.31,0,0,1,.29.06.4.4,0,0,1,.14.11.3.3,0,0,1,0,.15v.9a4.92,4.92,0,0,1,1.28-1,2.82,2.82,0,0,1,1.34-.35,3.85,3.85,0,0,1,.87.1,2.45,2.45,0,0,1,.68.29,2,2,0,0,1,.52.45,2.58,2.58,0,0,1,.36.58,5.69,5.69,0,0,1,.69-.64,3.61,3.61,0,0,1,.66-.44,2.55,2.55,0,0,1,.66-.25,2.39,2.39,0,0,1,.66-.09,3,3,0,0,1,1.31.26,2.31,2.31,0,0,1,.85.72,2.66,2.66,0,0,1,.47,1,5.75,5.75,0,0,1,.14,1.27v5Zm-8.74-68v-9l-1.75,1a.87.87,0,0,1-.32.11.18.18,0,0,1-.19-.05.45.45,0,0,1-.1-.25,3.34,3.34,0,0,1,0-.5v-.33a1,1,0,0,1,0-.22.32.32,0,0,1,.09-.15.75.75,0,0,1,.16-.13l2.35-1.52.1-.06.17,0,.26,0h.95a1.68,1.68,0,0,1,.3,0,.22.22,0,0,1,.13.08.2.2,0,0,1,0,.13V22.65ZM111,19.26a3.19,3.19,0,0,1-.31,1.45,3,3,0,0,1-.87,1.07,4.13,4.13,0,0,1-1.33.65,6.13,6.13,0,0,1-1.7.22,5.89,5.89,0,0,1-1-.08,5.76,5.76,0,0,1-.86-.2,3.45,3.45,0,0,1-.62-.25,2,2,0,0,1-.32-.19.79.79,0,0,1-.12-.15l-.06-.2a1.72,1.72,0,0,1,0-.29c0-.11,0-.25,0-.41a1.45,1.45,0,0,1,.07-.56.21.21,0,0,1,.2-.16.76.76,0,0,1,.29.11,5.46,5.46,0,0,0,.53.25c.21.08.47.16.75.24a4.2,4.2,0,0,0,1,.11,2.86,2.86,0,0,0,.82-.11,1.85,1.85,0,0,0,.61-.31,1.29,1.29,0,0,0,.37-.47,1.61,1.61,0,0,0,.12-.63,1.65,1.65,0,0,0-.14-.68,1.58,1.58,0,0,0-.45-.52,2.24,2.24,0,0,0-.73-.33,4.1,4.1,0,0,0-1-.12h-.94a.36.36,0,0,1-.19,0s-.09-.06-.13-.12a1.05,1.05,0,0,1-.07-.26c0-.11,0-.25,0-.42s0-.3,0-.4a1,1,0,0,1,.07-.24.23.23,0,0,1,.12-.12.43.43,0,0,1,.17,0h1A2.86,2.86,0,0,0,107,16a1.7,1.7,0,0,0,.63-.32,1.35,1.35,0,0,0,.39-.52,1.59,1.59,0,0,0,.14-.66,1.51,1.51,0,0,0-.09-.53,1.28,1.28,0,0,0-.28-.43,1.25,1.25,0,0,0-.46-.29,2,2,0,0,0-.68-.11,2.71,2.71,0,0,0-.82.13,6.74,6.74,0,0,0-.7.29l-.52.29a.72.72,0,0,1-.32.14.21.21,0,0,1-.2-.14,1.09,1.09,0,0,1,0-.25c0-.11,0-.25,0-.42s0-.25,0-.35a1.2,1.2,0,0,1,0-.23.38.38,0,0,1,.06-.16.53.53,0,0,1,.12-.15,2.15,2.15,0,0,1,.35-.24,3.42,3.42,0,0,1,.66-.31,5.87,5.87,0,0,1,.91-.26,5.73,5.73,0,0,1,1.13-.1,5,5,0,0,1,1.4.18,3,3,0,0,1,1,.54,2.23,2.23,0,0,1,.63.86,2.89,2.89,0,0,1,.22,1.16,3.12,3.12,0,0,1-.13.93,2.29,2.29,0,0,1-.37.77,2.08,2.08,0,0,1-.61.57,2.73,2.73,0,0,1-.85.36v0a3.07,3.07,0,0,1,1,.29,2.43,2.43,0,0,1,.77.56,2.23,2.23,0,0,1,.48.76,2.49,2.49,0,0,1,.17.91Zm-50,17.6h0L55.74,53H66.4L61.06,36.86ZM91.58,66.58a.82.82,0,0,1-.19.53,1.55,1.55,0,0,1-.64.38,7.09,7.09,0,0,1-1.17.23,16,16,0,0,1-1.88.09,16.34,16.34,0,0,1-1.87-.09,7,7,0,0,1-1.19-.23,1.44,1.44,0,0,1-.63-.38.82.82,0,0,1-.19-.53V30.69a.82.82,0,0,1,.19-.53,1.51,1.51,0,0,1,.65-.39,7.24,7.24,0,0,1,1.18-.23,19.47,19.47,0,0,1,3.74,0,7.09,7.09,0,0,1,1.17.23,1.67,1.67,0,0,1,.64.39.82.82,0,0,1,.19.53V66.58Z"/></svg>