<?xml version="1.0" encoding="utf-8"?><svg version="1.1" id="Layer_1" xmlns="http://www.w3.org/2000/svg" xmlns:xlink="http://www.w3.org/1999/xlink" x="0px" y="0px" viewBox="0 0 122.49 122.88" style="enable-background:new 0 0 122.49 122.88" xml:space="preserve"><style type="text/css">.st0{fill-rule:evenodd;clip-rule:evenodd;}</style><g><path class="st0" d="M101.12,37.47c14.95,18.54,22.23,40.44,21.28,60.48c-6.91-16.93-17.64-34.09-31.87-49.9l-4.77,4.77 c-0.54,0.54-1.42,0.54-1.96,0L68.72,37.75c-0.54-0.54-0.54-1.42,0-1.96l4.63-4.63C57.16,17.12,39.68,6.67,22.54,0.2 c20.2-1.52,42.5,5.45,61.44,20.33l2.09-2.09c0.54-0.54,1.42-0.54,1.96,0l15.08,15.08c0.54,0.54,0.54,1.42,0,1.96L101.12,37.47 L101.12,37.47z M68.16,42.51l12.22,12.22l-65.64,65.64c-3.36,3.36-8.86,3.36-12.22,0l0,0c-3.36-3.36-3.36-8.86,0-12.22L68.16,42.51 L68.16,42.51z"/></g></svg>