<?xml version="1.0" encoding="utf-8"?><svg version="1.1" id="Layer_1" xmlns="http://www.w3.org/2000/svg" xmlns:xlink="http://www.w3.org/1999/xlink" x="0px" y="0px" viewBox="0 0 122.88 114.44" style="enable-background:new 0 0 122.88 114.44" xml:space="preserve"><g><path d="M69.04,58.43c-0.1-0.06-0.19-0.13-0.28-0.22c-0.09-0.09-0.16-0.18-0.22-0.28L47.15,36.54L26.8,56.89l5.29,3.65l5.45-1.19 l0,0c0.59-0.13,1.23,0.13,1.56,0.68l4.98,8.33l4.63-0.65c0.6-0.12,1.23,0.15,1.55,0.71l3.08,5.37c0.16,0.17,0.27,0.37,0.34,0.59 l1.23,2.14l5.21-0.78l0,0c0.59-0.09,1.19,0.19,1.49,0.75l3.64,6.69c0.15,0.07,0.29,0.16,0.41,0.29c0.29,0.29,0.43,0.67,0.43,1.05 l5.4-0.93v0c0.61-0.1,1.24,0.19,1.54,0.76l4.3,8.2l5.52-1.1l0,0c0.65-0.13,1.32,0.2,1.61,0.82l3.81,8.26l6.2-1.17l0,0 c0.6-0.11,1.24,0.17,1.55,0.74l4.6,8.44l9.26-9.26L69.04,58.43L69.04,58.43z M80.5,0.19l8.1,8.1c0.25,0.25,0.25,0.66,0,0.91 l-1.27,1.27l0.04,0.04c0.08,0.08,0.16,0.18,0.22,0.27L97.8,25.07c2.19-0.08,4.27,0.31,6.14,1.08c2.67,1.1,4.94,2.95,6.61,5.27 c1.66,2.31,2.73,5.07,3,8.01c0.21,2.26-0.05,4.61-0.87,6.93l9.93,14.08c0.44,0.63,0.32,1.49-0.27,1.97l0,0l-2.68,2.19 c-0.55,0.45-1.33,0.43-1.86,0l-13.77-10.09c-2.73,1.31-5.74,1.7-8.63,1.31l-0.18-0.03l-12.3,12.38L113,98.25 c0.57,0.57,0.57,1.5,0,2.07l-11.67,11.67c-0.57,0.57-1.5,0.57-2.07,0c-0.13-0.13-0.23-0.29-0.31-0.45l-4.97-9.11l-6.28,1.19 c-0.67,0.13-1.32-0.23-1.59-0.82h0l-3.8-8.25l-5.46,1.09c-0.68,0.14-1.35-0.23-1.62-0.84l-4.27-8.14l-5.48,0.94 c-0.53,0.09-1.03-0.11-1.36-0.49l-24.32,24.47c-3.1,3.12-6.8,3.42-9.87,2.12c-1.18-0.5-2.25-1.23-3.15-2.13 c-0.91-0.9-1.65-1.97-2.15-3.14c-1.32-3.08-1.05-6.81,2.07-9.95l23.75-23.9l-2.21-3.86l-4.69,0.66c-0.62,0.09-1.2-0.23-1.49-0.75 l-4.9-8.21l-5.04,1.1c-0.44,0.1-0.89-0.02-1.22-0.28l-6.2-4.28l-0.93,0.93c-0.47,0.47-1.09,0.7-1.7,0.7c-0.61,0-1.23-0.24-1.7-0.71 l0,0L4.79,44.33c-0.08-0.05-0.16-0.12-0.23-0.19l-4.13-4.13c-0.57-0.57-0.57-1.5,0-2.07c0.57-0.57,1.5-0.57,2.07,0l3.08,3.08 l25.58-25.58l-3.08-3.08c-0.57-0.57-0.57-1.5,0-2.07c0.57-0.57,1.5-0.57,2.07,0l4.02,4.02c0.03,0.03,0.07,0.06,0.1,0.09 l15.79,15.79c0.47,0.47,0.7,1.08,0.7,1.7c0,0.61-0.23,1.22-0.7,1.69l0,0l0,0l-0.87,0.87l20.63,20.63l12.32-12.4 c-0.1-0.97-0.12-1.99-0.03-3.04l-13.8-9.71c-0.09-0.06-0.16-0.13-0.23-0.2l-1.47,1.47c-0.25,0.25-0.66,0.25-0.91,0l-8.1-8.1 c-0.25-0.25-0.25-0.66,0-0.91L79.59,0.19C79.84-0.06,80.25-0.06,80.5,0.19L80.5,0.19z M33.24,17.51L7.67,43.07l14.38,14.38 l25.57-25.57L33.24,17.51L33.24,17.51z M80.86,66.11L91.9,55c-2.2-0.8-4.13-2.04-5.68-3.59c-1.51-1.51-2.66-3.32-3.36-5.31 L71.89,57.14L80.86,66.11L80.86,66.11z M62.63,84.46l-3.08-5.67l-5.19,0.77c-0.61,0.09-1.19-0.21-1.48-0.72l-0.93-1.63 l-23.18,23.33c-2.13,2.15-2.34,4.67-1.45,6.73c0.36,0.83,0.88,1.59,1.52,2.23c0.65,0.64,1.41,1.16,2.23,1.51 c2.05,0.87,4.55,0.64,6.67-1.49L62.63,84.46L62.63,84.46z M86.15,13.8L71.41,28.54l13.08,9.2l0,0c0.43,0.3,0.68,0.83,0.61,1.39 c-0.4,2.95,0.16,5.53,1.34,7.64c0.96,1.71,2.33,3.12,3.94,4.16c1.62,1.05,3.49,1.74,5.42,2c2.58,0.35,5.28-0.07,7.66-1.41l0,0 c0.48-0.27,1.1-0.25,1.58,0.1l13.66,10.01l0.75-0.62l-9.59-13.6l0,0c-0.28-0.39-0.35-0.92-0.16-1.39c0.86-2.1,1.15-4.26,0.95-6.32 c-0.23-2.4-1.1-4.67-2.47-6.57c-1.36-1.88-3.2-3.39-5.35-4.27c-1.68-0.69-3.55-1-5.55-0.82c-0.52,0.07-1.06-0.14-1.39-0.6 L86.15,13.8L86.15,13.8z"/></g></svg>