<?xml version="1.0" encoding="utf-8"?><svg version="1.1" id="Layer_1" xmlns="http://www.w3.org/2000/svg" xmlns:xlink="http://www.w3.org/1999/xlink" x="0px" y="0px" viewBox="0 0 99.734 122.88" enable-background="new 0 0 99.734 122.88" xml:space="preserve"><g><path d="M78.899,83.047c0.926-0.1,1.752,0.563,1.861,1.489c0.227,1.997,0.481,5.065,0.463,7.808 c-0.009,2.033-0.182,3.912-0.626,5.12c-0.318,0.871-1.29,1.325-2.161,0.998c-0.871-0.317-1.325-1.289-0.999-2.16 c0.31-0.826,0.418-2.306,0.437-3.977c0-2.542-0.255-5.483-0.463-7.417C77.311,83.982,77.977,83.156,78.899,83.047L78.899,83.047z M71.225,12.88c1.562-0.172,3.032-0.218,4.403-0.108c1.316,0.1,2.533,0.345,3.622,0.754c0.872,0.317,1.843-0.128,2.161-0.999 s-0.127-1.843-0.999-2.161c-1.389-0.508-2.904-0.816-4.521-0.943c-1.58-0.137-3.269-0.092-5.039,0.108 C68.667,9.766,69.003,13.119,71.225,12.88L71.225,12.88z M28.938,12.88c-1.562-0.172-3.032-0.218-4.403-0.108 c-1.316,0.1-2.533,0.345-3.623,0.754c-0.872,0.317-1.843-0.128-2.161-0.999s0.127-1.843,0.999-2.161 c1.389-0.508,2.905-0.816,4.521-0.943c1.58-0.137,3.269-0.092,5.039,0.108C31.496,9.766,31.16,13.119,28.938,12.88L28.938,12.88z M19.362,71.042H80.97v3.561H19.362V71.042L19.362,71.042z M19.362,47.694H80.97v3.561H19.362V47.694L19.362,47.694z M80.406,56.062l-0.186,2.471l-2.233-0.102h-0.203l-0.085,4.789l0.136,3.554H74.45l0.169-3.216l-0.084-5.127h-0.22l-2.251,0.102 l-0.203-0.237l0.186-2.471h8.174L80.406,56.062L80.406,56.062z M70.639,63.202l0.136,3.571h-3.689l-3.079-5.855h-0.203 l-0.018,1.896l0.136,3.96h-3.08l0.17-3.216l-0.17-7.733h3.689l3.079,5.855h0.203l-0.102-5.736l3.114-0.187L70.639,63.202 L70.639,63.202z M59.534,64.065l0.186,0.237l-0.203,2.471h-7.716l0.169-3.216l-0.169-7.733h7.852l0.187,0.237l-0.221,2.471 l-2.69-0.102h-1.742l-0.034,1.54h1.675l1.76-0.051l0.187,0.236l-0.203,2.471l-1.963-0.051h-1.523l-0.017,0.644l0.034,0.947h1.624 L59.534,64.065L59.534,64.065z M50.358,66.773H47.38l-0.085-3.317l-0.186-2.758h-0.203l-1.759,5.043h-2.556l-1.455-5.043h-0.203 l-0.237,2.437l-0.169,3.639h-2.826l1.066-10.949h3.909l0.321,1.558l0.965,3.976h0.203l1.066-3.857l0.389-1.676h3.858L50.358,66.773 L50.358,66.773z M36.969,64.065l0.187,0.237l-0.204,2.471h-7.716l0.169-3.216l-0.169-7.733h7.851l0.187,0.237l-0.22,2.471 l-2.69-0.102H32.62l-0.034,1.54h1.675l1.76-0.051l0.186,0.236l-0.203,2.471l-1.963-0.051h-1.523l-0.017,0.644l0.034,0.947h1.625 L36.969,64.065L36.969,64.065z M25.593,55.639c0.97,0,1.884,0.152,2.741,0.456l-0.575,2.691l-0.22,0.135 c-0.293-0.157-0.632-0.284-1.016-0.381c-0.383-0.096-0.739-0.144-1.066-0.144c-0.688,0-1.185,0.2-1.489,0.601 c-0.305,0.401-0.458,1.069-0.458,2.005c0,1.095,0.175,1.894,0.525,2.396s0.897,0.753,1.641,0.753c0.316,0,0.669-0.031,1.058-0.093 c0.389-0.063,0.73-0.15,1.023-0.263l0.271,0.169l-0.271,2.674c-0.677,0.215-1.461,0.321-2.352,0.321 c-1.816,0-3.184-0.474-4.104-1.421s-1.379-2.33-1.379-4.146c0-1.827,0.494-3.243,1.481-4.247S23.788,55.639,25.593,55.639 L25.593,55.639z M12.031,55.268c-0.359-7.886-0.941-13.054-1.218-14.975C9.851,33.657,9.958,29.17,10.24,20.936 c0.036-1.063,0.136-1.87,0.217-2.479c0.418-3.295,0.454-3.567-3.722-4.693c-1.516-0.408-2.633-0.989-3.086-1.979 C3.194,10.786,3.24,9.279,3.975,7.019c1.525-0.109,3.241,0,4.984,0.117c2.36,0.155,4.767,0.31,7.09-0.018 c3.205-0.454,6.664-1.025,10.25-1.616c4.449-0.734,9.105-0.459,13.708-1.076c9.387-1.253,6.107-1.308,14.859-0.545 C63.69,4.652,72.688,5.212,82.928,7.3c0.118,0.027,0.236,0.036,0.345,0.036l12.755-0.172c0.382,1.725,0.445,3.031,0.146,4.021 c-0.317,1.044-1.153,1.815-2.578,2.46l-0.2,0.091c-2.56,1.171-3.586,1.634-4.131,2.933c-0.354,0.835-0.299,1.58-0.208,2.814 c0.063,0.881,0.163,2.088,0.118,3.722C89,29.978,88.817,34.71,87.628,41.482c-0.239,1.436-0.754,4.17-1.217,12.202 c-0.417,7.215-0.436,3.563-0.069,10.265c0.431,7.896,1.038,12.814,1.286,14.304c1.189,6.772,1.372,14.39,1.546,21.162 c0.045,1.634-0.055,2.842-0.118,3.722c-0.091,1.234-0.146,1.979,0.208,2.814c0.545,1.298,1.571,1.761,4.131,2.933l0.2,0.091 c1.425,0.644,2.261,1.416,2.578,2.46c0.3,0.989,0.236,2.297-0.146,4.021l-12.755-0.173c-0.108,0-0.227,0.01-0.345,0.036 c-10.24,2.089-19.237,2.908-28.062,3.68c-8.751,0.763-5.472,0.708-14.859-0.545c-4.603-0.617-9.26-0.602-13.708-1.336 c-3.586-0.591-7.045-1.162-10.25-1.616c-2.324-0.327-4.73-0.173-7.09-0.019c-1.743,0.118-3.458,0.227-4.984,0.118 c-0.735-2.261-0.781-3.768-0.327-4.767c0.454-0.989,1.571-1.57,3.086-1.979c4.176-1.126,4.14-1.398,3.722-4.693 c-0.082-0.608-0.181-1.417-0.217-2.479c-0.282-8.234-0.389-15.605,0.574-22.242c0.27-1.869,0.782-7.479,1.168-15.555 C12.271,57.856,12.289,60.912,12.031,55.268L12.031,55.268z M89.725,53.69c0.377-7.867,1.013-10.304,1.235-11.572 c1.097-7.437,1.404-11.305,1.591-18.85c0.045-1.88-0.046-3.132-0.118-4.049c-0.055-0.727-0.091-1.171-0.055-1.243 c0.045-0.101,0.727-0.409,2.433-1.19l0.2-0.09c2.352-1.071,3.768-2.497,4.394-4.549c0.572-1.879,0.382-4.167-0.436-7.145 c-0.2-0.717-0.862-1.243-1.643-1.234l-13.908,0.19c-10.341-2.098-19.41-2.675-28.252-3.446c-8.961-0.79-5.908-0.718-15.585,0.572 c-4.73,0.626-9.378,0.35-13.817,1.086c-3.541,0.59-6.954,1.152-10.177,1.606c-1.979,0.281-4.222,0.137-6.418-0.009 c-2.315-0.154-4.584-0.3-6.673,0.018l0,0c-0.59,0.092-1.107,0.481-1.334,1.081c-1.399,3.73-1.462,6.372-0.572,8.306 c0.944,2.079,2.832,3.187,5.266,3.841c1.343,0.363,1.334,0.408,1.252,1.017c-0.091,0.69-0.2,1.589-0.245,2.797 c-0.291,8.46-0.38,13.139,0.601,19.938c0.259,1.789,0.997,6.708,1.234,14.528c0.11,3.594,0.058,4.927-0.047,8.544 c-0.233,8-0.935,13.391-1.187,15.133c-0.98,6.8-0.892,14.362-0.601,22.823c0.045,1.207,0.154,2.105,0.245,2.796 c0.082,0.608,0.091,0.653-1.252,1.017c-2.434,0.653-4.322,1.761-5.266,3.84c-0.89,1.934-0.827,4.575,0.572,8.307 c0.227,0.6,0.744,0.99,1.334,1.08l0,0c2.088,0.318,4.358,0.173,6.673,0.019c2.197-0.146,4.439-0.291,6.418-0.009 c3.223,0.454,6.636,1.017,10.177,1.606c4.439,0.735,9.087,0.72,13.817,1.346c9.678,1.29,6.625,1.362,15.585,0.572 c8.842-0.771,17.911-1.609,28.252-3.706l13.908,0.19c0.78,0.009,1.442-0.518,1.643-1.234c0.817-2.979,1.008-5.266,0.436-7.146 c-0.626-2.052-2.042-3.477-4.394-4.548l-0.2-0.091c-1.706-0.78-2.388-1.089-2.433-1.189c-0.036-0.072,0-0.518,0.055-1.244 c0.072-0.916,0.163-2.169,0.118-4.048c-0.187-7.545-0.494-14.298-1.591-21.734c-0.232-1.322-0.966-6.08-1.317-13.789 C89.439,59.37,89.509,58.199,89.725,53.69L89.725,53.69z M19.251,86.434c0.926,0.1,1.589,0.935,1.489,1.86 c-0.172,1.562-0.218,3.032-0.109,4.403c0.1,1.316,0.345,2.533,0.754,3.622c0.317,0.872-0.127,1.843-0.999,2.161 c-0.871,0.318-1.843-0.127-2.161-0.999c-0.508-1.389-0.817-2.904-0.944-4.521c-0.137-1.58-0.091-3.269,0.109-5.039 C17.489,86.999,18.332,86.334,19.251,86.434L19.251,86.434z"/></g></svg>