<?xml version="1.0" encoding="utf-8"?><svg version="1.1" id="Layer_1" xmlns="http://www.w3.org/2000/svg" xmlns:xlink="http://www.w3.org/1999/xlink" x="0px" y="0px" viewBox="0 0 122.88 114.77" style="enable-background:new 0 0 122.88 114.77" xml:space="preserve"><style type="text/css"><![CDATA[
	.st0{fill-rule:evenodd;clip-rule:evenodd;}
]]></style><g><path class="st0" d="M117.94,2.94c3.55,2.64,4.1,6.28,4.52,7.15l0.25,1.36c0.63,2.92-0.57,7.01-2.59,9.64l-9.07,11.61 c-3.49,4.46-9.58,6.18-14.85,4.2l-0.02,0.02c2.03,2.99,1.97,5.18,2.17,5.68c0.63,2.93-0.57,7-2.59,9.64l-9.08,11.61 c-3.74,4.78-10.21,6.26-15.55,3.92l0.04,0.07l0,0c2.33,3.76,1.5,7.35,1.57,8.31l-0.27,1.35c-0.49,2.95-3.1,6.31-5.96,8.01 l-12.71,7.46c-4.88,2.87-11.18,2.22-15.35-1.55l-0.02,0.02c0.79,3.52-0.07,5.55-0.07,6.08c-0.49,2.96-3.1,6.3-5.96,8.01 l-12.71,7.45c-6.16,3.61-14.17,1.58-17.82-4.57c-1.72-3.5-2.42-6.2-1.42-10.01c0.86-3.31,2.98-6.13,5.93-7.91l12.95-7.6 c3.5-1.78,4.92-1.71,8.22-1.51l1.35,0.27l5.24,2.69c0.1,0.08,0.2,0.17,0.29,0.25l0.02-0.02c-1.23-5.45,1.18-11.22,6.04-14.1 l12.71-7.45c2.97-1.74,6.53-2.23,9.81-1.39c0.6,0.1,1.21,0.29,1.83,0.54l0.09-0.09c-0.78-1.34-1.27-2.84-1.5-4.71 c-0.42-3.4,0.51-6.8,2.6-9.53l9.24-11.83c2.6-2.94,3.94-3.4,7.09-4.43l1.36-0.25l5.86,0.57c0.12,0.04,0.25,0.09,0.36,0.13L89.96,32 c-3.15-4.62-3.02-10.87,0.43-15.34l9.07-11.6c2.12-2.71,5.26-4.47,8.61-4.9c2.91-0.63,7.02,0.56,9.64,2.59L117.94,2.94L117.94,2.94 L117.94,2.94z M63.22,75.57c-1.66,1.58-4.3,1.52-5.88-0.15c-1.58-1.67-1.52-4.3,0.15-5.88c0.58-0.55,1.15-1.1,1.71-1.65 c-0.42,0.04-0.84,0.12-1.25,0.24c-0.22,0.06-0.44,0.14-0.65,0.23l-0.02,0.01c-0.22,0.09-0.44,0.2-0.65,0.33l0,0l-0.08,0.05 l-12.6,7.39c-1.06,0.62-1.88,1.53-2.42,2.56h0c-0.11,0.21-0.21,0.43-0.28,0.63c-0.08,0.21-0.16,0.44-0.22,0.66L41,80.08l0,0.01 l0,0.01c-0.07,0.24-0.11,0.49-0.15,0.74l2.59-1.52l0.07-0.04l0.09-0.05l0,0l0.01-0.01c0.91-0.49,1.95-0.6,2.89-0.34 c0.94,0.25,1.81,0.84,2.36,1.73l0,0l0.01,0.01l0.03,0.06l0.01,0.01l0.01,0.01l0,0.01l0.01,0.01l0.03,0.04l0,0l0,0 c0.74,1.31,0.65,2.88-0.11,4.08c-0.15,0.24-0.33,0.46-0.54,0.67c-0.2,0.2-0.42,0.38-0.66,0.53l-0.01,0.01l-0.02,0.01l0,0 l-0.01,0.01l-0.07,0.04l0,0l-0.01,0l0,0l-2.64,1.55l0.33,0.12l0.01,0l0.31,0.1l0,0l0.07,0.02l0.01,0c1.12,0.29,2.32,0.28,3.46-0.06 c0.22-0.06,0.44-0.14,0.67-0.24l0,0l0,0c0.2-0.09,0.43-0.2,0.65-0.33l0,0l0.08-0.05l12.61-7.4c1.06-0.62,1.88-1.52,2.42-2.56 c0.11-0.22,0.21-0.43,0.29-0.63c0.08-0.21,0.16-0.44,0.22-0.66l0.01-0.03l0.01-0.06c0.26-1,0.28-2.06,0.04-3.09 C65.15,73.72,64.2,74.64,63.22,75.57L63.22,75.57z M69.21,57.25c0.88-1.05,1.75-2.12,2.61-3.22c1.41-1.82,4.03-2.15,5.85-0.73 c1.82,1.41,2.14,4.03,0.73,5.85c-1.03,1.32-2.08,2.61-3.16,3.88c0.68,0.1,1.37,0.11,2.04,0.03c1.87-0.23,3.65-1.16,4.88-2.75 l9.01-11.52c1.24-1.58,1.71-3.54,1.49-5.41c-0.11-0.85-0.36-1.69-0.75-2.47l-2.88,3.68c-1.04,1.33-2.97,1.56-4.3,0.52l0,0l0,0 c-1.33-1.04-1.56-2.97-0.52-4.29l2.88-3.68c-0.85-0.19-1.73-0.24-2.59-0.13c-1.87,0.23-3.65,1.17-4.88,2.75l-0.11,0.14l0,0l0,0 l-8.9,11.38l-0.05,0.06c-1.21,1.57-1.67,3.5-1.44,5.35C69.15,56.88,69.18,57.06,69.21,57.25L69.21,57.25z M24.77,94.85L24.77,94.85 c0.85,1.45,2.74,1.94,4.19,1.09l4.03-2.36c0.08,0.87,0.01,1.74-0.21,2.57c-0.48,1.82-1.64,3.47-3.37,4.48l-12.61,7.4 c-1.73,1.02-3.73,1.24-5.55,0.76c-1.79-0.47-3.41-1.6-4.43-3.27l-0.06-0.1c-1.02-1.73-1.24-3.73-0.76-5.55 c0.47-1.8,1.61-3.43,3.31-4.45l0.06-0.04l12.46-7.31l0,0l0,0l0.15-0.09c1.73-1.01,3.73-1.23,5.55-0.76 c0.84,0.22,1.64,0.58,2.36,1.07l-4.03,2.37C24.42,91.51,23.92,93.4,24.77,94.85L24.77,94.85L24.77,94.85z M102.65,28.65l-1.89,2.41 l0.35-0.01l0.01,0l0.33-0.03h0.01l0.08-0.01l0.01,0c1.15-0.14,2.27-0.59,3.2-1.33c0.18-0.14,0.36-0.3,0.54-0.48l0,0l0,0 c0.16-0.16,0.32-0.34,0.48-0.54l0,0l0.06-0.07l9-11.52c0.76-0.97,1.19-2.11,1.31-3.27c0.03-0.24,0.04-0.48,0.04-0.69 c0-0.22-0.02-0.46-0.04-0.7l0-0.03l-0.01-0.06c-0.14-1.15-0.59-2.27-1.33-3.2c-0.14-0.18-0.3-0.35-0.45-0.51l-0.02-0.02 c-0.17-0.17-0.35-0.33-0.54-0.49l0,0l-0.03-0.03l-0.03-0.03l-0.06-0.04c-0.96-0.74-2.08-1.16-3.23-1.27l-0.02,0 c-0.24-0.02-0.47-0.04-0.68-0.03c-0.22,0-0.46,0.02-0.69,0.04l-0.04,0l-0.05,0.01c-1.15,0.14-2.27,0.59-3.2,1.33 c-0.18,0.14-0.36,0.3-0.51,0.45l-0.02,0.02c-0.17,0.17-0.33,0.35-0.49,0.54l0,0l-0.06,0.07l-9,11.51 c-0.76,0.97-1.19,2.11-1.31,3.27l0,0c-0.02,0.24-0.04,0.47-0.03,0.69c0,0.22,0.02,0.46,0.04,0.7l0.01,0.08l0,0.01v0.01 c0.03,0.25,0.07,0.49,0.13,0.74l1.85-2.36l0.05-0.07l0.07-0.08l0,0l0.01-0.01c0.67-0.79,1.59-1.27,2.56-1.38 c0.97-0.12,1.99,0.12,2.83,0.74l0,0l0.01,0l0.05,0.04l0.01,0.01l0.01,0.01l0,0.01l0.01,0l0.04,0.03l0,0l0,0 c1.17,0.95,1.66,2.44,1.39,3.84c-0.05,0.28-0.14,0.55-0.26,0.82c-0.11,0.26-0.25,0.5-0.42,0.74l-0.01,0.01l-0.02,0.02l0,0l0,0.01 l-0.05,0.07l0,0L102.65,28.65L102.65,28.65L102.65,28.65z"/></g></svg>