<svg id="Layer_1" data-name="Layer 1" xmlns="http://www.w3.org/2000/svg" viewBox="0 0 113.37 122.88"><defs><style>.cls-1{fill-rule:evenodd;}</style></defs><title>customizable</title><path class="cls-1" d="M99.72,110a8.29,8.29,0,0,0,2.72-1.84l8.37-8.37,0,0A8.26,8.26,0,0,0,112.7,97a8.07,8.07,0,0,0-1.89-9.16l-4.89-5c-4.82,0-13.46-.89-18.13,1.36a30.43,30.43,0,0,0-4.87,3.07c-7.45,5.51-16,8.2-24.24,7.5C31.67,92.55,19.56,59,38.89,39c7.7-8,19.2-12.07,30.13-9.08,8.71,2.38,13,7.5,20.1,11.84a11.7,11.7,0,0,0,6.41,2.11h.3c1,.07,5.42.13,11.1.19-.34-.83-.71-1.66-1.09-2.52s-.92-2-1.41-2.88c-.14-.29-.33-.58-.48-.88l4.76-4.67.11-.11a8.8,8.8,0,0,0,1.76-2.73,8.34,8.34,0,0,0,.59-3.16,8.42,8.42,0,0,0-.59-3.17,8.73,8.73,0,0,0-1.74-2.73s0-.08-.09-.08l-8.45-8.35a8.19,8.19,0,0,0-6-2.56,8.25,8.25,0,0,0-3.29.68,7.85,7.85,0,0,0-2.68,1.88L83,18.12a39.33,39.33,0,0,0-8-3V8.45a8.79,8.79,0,0,0-.63-3.25,7.88,7.88,0,0,0-1.85-2.68A9,9,0,0,0,69.77.63,8.61,8.61,0,0,0,66.6,0h-12a8,8,0,0,0-6,2.47A8.36,8.36,0,0,0,46.82,5.2a8.71,8.71,0,0,0-.63,3.25V16c-2.85,1.11-5.1,2.19-7.82,3.55l-4.68-4.76A8.52,8.52,0,0,0,30.86,13a8.78,8.78,0,0,0-6.33,0A8.73,8.73,0,0,0,21.8,14.7c-2.83,2.83-5.63,5.69-8.45,8.54A8.33,8.33,0,0,0,11.5,26a8.24,8.24,0,0,0,0,6.51,8.42,8.42,0,0,0,1.89,2.66l5.35,5.35a39.33,39.33,0,0,0-3,8H9.07a8.79,8.79,0,0,0-3.25.63A8.1,8.1,0,0,0,3.05,51C-.9,55.2-2,73.5,5.82,76.66a8.91,8.91,0,0,0,3.25.63h7.59c1.11,2.84,2.19,5.1,3.55,7.82l-4.68,4.67a9.18,9.18,0,0,0-1.89,2.73,8.22,8.22,0,0,0,0,6.5,8,8,0,0,0,1.89,2.73l8.37,8.37A8.45,8.45,0,0,0,26.67,112a8.11,8.11,0,0,0,6.5,0,8,8,0,0,0,2.66-1.88l5.45-5.35c2.39,1,5.4,2.54,7.95,3v6.65a8.79,8.79,0,0,0,.63,3.25,7.78,7.78,0,0,0,1.85,2.68l.08.09a9.26,9.26,0,0,0,2.69,1.8,8.52,8.52,0,0,0,3.16.63h12a8.87,8.87,0,0,0,3.25-.63,9.11,9.11,0,0,0,2.77-1.84,8.23,8.23,0,0,0,1.84-2.73,8.71,8.71,0,0,0,.63-3.25v-7.59c2.86-1.12,5.09-2.18,7.82-3.55L90.59,108a9.06,9.06,0,0,0,2.73,1.89,8.22,8.22,0,0,0,6.5,0l-.1.14ZM71.33,80.82c-4.56,2.9-9.81,4.56-16.93,1.85-5.6-2.13-10.2-7-12.77-13.25C64,79.55,72,50.47,45.51,49.6c8.08-9.73,20-9.65,29.62-2.51,4.56,3.37,7.12,4.27,9.73,5a16.23,16.23,0,0,0,4.69.5c1.51,0,11.51,0,18-.09v18.1c-6,.09-15.46.18-16.79.27a16.66,16.66,0,0,0-5.27.94c-2.16.82-4.14,1.81-8.21,4.75-1.86,1.35-4,3-6,4.25Z"/></svg>