<svg xmlns="http://www.w3.org/2000/svg" shape-rendering="geometricPrecision" text-rendering="geometricPrecision" image-rendering="optimizeQuality" fill-rule="evenodd" clip-rule="evenodd" viewBox="0 0 512 467.74"><path d="M483.71 217.08 460.1 444.05l23.61-226.97zM108.89 36.72C95.41 24.21 75.67 18.25 55.18 19.66 113.33 67.25 44.4 128.72 6.04 57.24c-15.74 35.4.66 67.97 33.33 84.73 15.41 7.92 23.53 12.64 29.12 18.85 3.1 3.35 5.29 7.19 7.77 12.19l10.62 24.09H29.64c-11.03 0-19.98 8.95-19.98 19.98v170.24c0 22.02 9.03 42.09 23.56 56.68l.12.13c14.6 14.56 34.69 23.61 56.73 23.61h313.22c22.07 0 42.17-9.06 56.74-23.61 14.63-14.64 23.68-34.74 23.68-56.81V217.08c0-11.03-8.94-19.98-19.98-19.98h-87.35l48.47-81.21-39.05-22.53-62.27 103.74h-49.45l-.02-1.6c-.01-.51-.18-1.02-.53-1.45a232.35 232.35 0 0 0-4.98-5.87l-.06-.07c-3.08-3.55-4.64-5.34-4.67-6.54-.03-1.21 1.5-3.09 4.55-6.86 1.26-1.55 2.75-3.38 4.51-5.67.35-.4.56-.93.56-1.51l-.06-13.17a2.307 2.307 0 0 0-2.31-2.29l-20.21.09.4-92.04 12.17-21.28c1.21-1.86 1.91-4.09 1.9-6.47l-.08-20.68C265.21 5.2 259.92-.03 253.43 0l-28.4.09c-6.5.1-11.7 5.45-11.61 11.95l.32 23.07c.04 2.27.73 4.56 2.12 6.56l11.41 16.28-.41 94.31-23.91.09c-1.27 0-2.29 1.04-2.28 2.31l.05 12.91c0 .55.2 1.1.59 1.53 1.92 2.14 3.61 3.94 5.04 5.47 4.18 4.47 6.2 6.63 6.22 8.18.01 1.47-1.68 3.6-4.94 7.71-1.44 1.81-3.17 3.97-5.16 6.64h-59.62l-19.13-43.47c-2.74-6.51-4.19-11.01-4.62-15.78-.41-4.41 0-9.01 1.14-15.65 5.54-32.4 16.85-59.34-11.35-85.48zm8.9 363.62V292.93h48.12c19.36 0 32.65 4.12 39.87 12.37 7.22 8.25 10.83 22.03 10.83 41.34 0 19.3-3.61 33.08-10.83 41.33-7.22 8.25-20.51 12.37-39.87 12.37h-48.12zm48.64-79.92h-14.27v52.43h14.27c4.69 0 8.1-.55 10.22-1.64 2.12-1.08 3.18-3.58 3.18-7.48v-34.19c0-3.9-1.06-6.39-3.18-7.48-2.12-1.09-5.53-1.64-10.22-1.64zm66.08 79.92V292.93h34.37v107.41h-34.37zm84.82-107.41 9.45 37.81h1.2l9.63-37.81h37.98l-30.94 78.2v29.21h-34.37v-29.21l-30.94-78.2h37.99zm146.4-48.82v143.21c0 33.22-27.22 60.43-60.44 60.43H90.07c-33.22 0-60.43-27.2-60.43-60.43V244.11h434.09zM313.71 78.47c6.73-4.96 14.09-8.56 22.09-10.71 12.04-3.22 22.97-2.03 32.78 3.53l84.92 48.97-5.1 8.9 32.28 18.79L512 93.65l-32.25-18.61-5.83 9.82-84.43-48.71c-11.61-6.66-22.65-8.53-33.17-5.71-17.66 4.73-31.85 20.71-42.61 48.03z"/></svg>