<?xml version="1.0" encoding="utf-8"?><svg version="1.1" id="Layer_1" xmlns="http://www.w3.org/2000/svg" xmlns:xlink="http://www.w3.org/1999/xlink" x="0px" y="0px" viewBox="0 0 122.88 90.64" style="enable-background:new 0 0 122.88 90.64" xml:space="preserve"><g><path d="M74.25,90.64c-1.09,0-1.98-0.89-1.98-1.98c0-1.09,0.89-1.98,1.98-1.98h13.83l-7.04-29.25H67.47 c-1.09,0-1.98-0.89-1.98-1.98v-10.4H52.11c-3.07,0-5.85-1.25-7.87-3.27c-1.16-1.16-2.07-2.58-2.63-4.15H27.69 c-0.8,0-1.52-0.33-2.05-0.85c-0.06-0.06-0.12-0.13-0.17-0.2c-0.42-0.5-0.67-1.15-0.67-1.85v-9.69H1.98C0.89,25.04,0,24.15,0,23.06 c0-1.09,0.89-1.98,1.98-1.98h22.81v-9.12c0-0.8,0.33-1.52,0.85-2.05c0.52-0.52,1.25-0.85,2.05-0.85h13.48 c0.43-2.24,1.52-4.24,3.07-5.79C46.26,1.25,49.05,0,52.11,0h48.24c6.2,0,11.83,2.53,15.91,6.62c4.08,4.08,6.62,9.71,6.62,15.91v0 c0,6.2-2.53,11.83-6.62,15.91c-4.08,4.08-9.71,6.62-15.91,6.62h-3.53l11.98,42.45c0.23,0.33,0.37,0.73,0.37,1.16 c0,1.09-0.89,1.98-1.98,1.98H74.25L74.25,90.64z M40.97,33.67V13.02H28.75v20.64H40.97L40.97,33.67z M44.94,11.34 c0.04,0.2,0.07,0.41,0.07,0.62v22.78c0,0.04,0,0.09,0,0.13c0.21,1.59,0.96,3.03,2.05,4.12c1.3,1.3,3.09,2.11,5.07,2.11h13.37V3.96 H52.11c-1.97,0-3.76,0.81-5.07,2.11c-1.3,1.3-2.11,3.09-2.11,5.06V11.34L44.94,11.34z M69.45,3.96v37.12h30.91 c5.1,0,9.74-2.09,13.11-5.45c3.37-3.37,5.45-8.01,5.45-13.11v0c0-5.1-2.09-9.74-5.45-13.11c-3.37-3.37-8.01-5.45-13.11-5.45H69.45 L69.45,3.96z M69.45,45.05v8.41h10.63l-2.03-8.41H69.45L69.45,45.05z M82.14,45.17l9.92,41.19h12.3L92.74,45.17H82.14L82.14,45.17z"/></g></svg>