<svg id="Layer_1" data-name="Layer 1" xmlns="http://www.w3.org/2000/svg" viewBox="0 0 122.88 79.15"><title>engineer-hard-hat</title><path d="M43.31,12.26A4,4,0,0,1,41.88,12c-12.68,5.67-23,18.14-25.74,38.89a4.32,4.32,0,0,1-4.86,3.62A4.2,4.2,0,0,1,7.52,49.9c3.25-24.19,15.66-38.82,31-45.54S72.21-1,87.05,6.67C102.77,14.81,114.74,30,115.6,50.29a4.35,4.35,0,0,1-8.68.33c-.72-17-10.78-29.73-24-36.58-.58-.3-1.13-.58-1.72-.85a4.62,4.62,0,0,1-1.55.24c-4-.1-5,6.94-5.23,16.43-.21,8,.22,16,.22,24,0,5.58-8.64,5.58-8.64,0,0-8.05-.39-16.15-.19-24.19.23-8.57,1.24-15.81,4.38-20.19a52.39,52.39,0,0,0-7.66-1,48.46,48.46,0,0,0-9.64.42c2.88,4.47,3.86,11.62,4.08,20s-.19,16.66-.19,25c0,5.54-8.42,5.54-8.42,0,0-8.25.43-16.52.23-24.76-.23-9.74-1.28-16.94-5.3-16.83ZM7.9,55.44a16.24,16.24,0,0,0,6.32,6.39c9.66,6,26.65,8.94,44.19,9,17.69.06,35.72-2.82,47.28-8.31,4.56-2.16,8-4.67,9.73-7.48l7.46,4.29c-2.66,4.26-7.33,7.83-13.35,10.67C85.27,81.52,32.59,83.27,9.47,68.81c-4.34-2.72-7.62-6-9.47-9.92l7.9-3.45Z"/></svg>