<?xml version="1.0" encoding="utf-8"?><svg version="1.1" id="Layer_1" xmlns="http://www.w3.org/2000/svg" xmlns:xlink="http://www.w3.org/1999/xlink" x="0px" y="0px" viewBox="0 0 89.88 122.88" style="enable-background:new 0 0 89.88 122.88" xml:space="preserve"><style type="text/css"><![CDATA[
	.st0{fill-rule:evenodd;clip-rule:evenodd;fill:#BB0101;}
	.st1{fill-rule:evenodd;clip-rule:evenodd;}
	.st2{fill-rule:evenodd;clip-rule:evenodd;fill:#262626;}
	.st3{fill-rule:evenodd;clip-rule:evenodd;fill:#970101;}
	.st4{fill-rule:evenodd;clip-rule:evenodd;fill:#FCDB33;}
	.st5{fill-rule:evenodd;clip-rule:evenodd;fill:#FFFFFF;}
]]></style><g><path class="st0" d="M41.65,35.27c3.93,1.64,7.31,4.37,9.74,7.81c2.59,3.66,4.11,8.1,4.11,12.88v62.2c0,1.29-0.53,2.47-1.39,3.33 l0,0l0,0l0,0c-0.86,0.85-2.03,1.38-3.32,1.38H15.42c-1.29,0-2.47-0.53-3.33-1.38l0,0l0,0l0,0c-0.85-0.86-1.38-2.03-1.38-3.32v-62.2 c0-4.78,1.52-9.23,4.11-12.88c2.43-3.44,5.81-6.17,9.74-7.81V26.9c0-0.04,0-0.09,0.01-0.13c-0.08-0.12-0.16-0.24-0.24-0.37H4.78 c-2.29,0-3.75-1.16-4.4-2.65C0.12,23.17-0.01,22.53,0,21.89c0.01-0.63,0.14-1.27,0.4-1.85c0.67-1.5,2.13-2.67,4.32-2.67 c0.04,0,0.08,0,0.11,0c3.35,0.13,6.53,0.24,9.72,0.34c1.43,0.05,2.85,0.09,4.28,0.14L4.09,8.61C4.03,8.58,3.97,8.54,3.91,8.5 c-1.79-1.32-2.5-2.87-2.48-4.28c0.01-0.78,0.24-1.5,0.64-2.11c0.38-0.59,0.92-1.09,1.56-1.46c1.34-0.76,3.15-0.93,4.93-0.1 C8.6,0.57,8.65,0.6,8.7,0.63l19.61,11.04c1.43-0.75,3.06-1.17,4.79-1.17c2.87,0,5.46,1.16,7.34,3.04c0.74,0.74,1.37,1.59,1.86,2.53 h4.05c1.38,0,2.63,0.56,3.54,1.47c0.31,0.31,0.59,0.67,0.81,1.05l0.11,4.77c-0.24,0.47-0.55,0.9-0.92,1.27 c-0.91,0.91-2.16,1.47-3.54,1.47h-4.27c-0.14,0.24-0.29,0.48-0.45,0.7c0,0.04,0,0.08,0,0.12h0.01L41.65,35.27L41.65,35.27 L41.65,35.27z M87.45,94.2c-0.3,0.1-0.62,0.16-0.95,0.17c-0.15,0.01-0.14,0.01-0.17,0.01l-10.12,0c-0.03,0-0.02,0-0.17-0.01 c-0.32-0.01-0.64-0.07-0.94-0.17H87.45L87.45,94.2z"/><path class="st2" d="M50.7,18.59L50.7,18.59l0.02,0c3.47-0.03,6.78,0.36,9.89,1.24c3.16,0.89,6.12,2.26,8.85,4.19 c4.47,3.15,7.94,7.16,10.3,11.74c2.39,4.64,3.64,9.83,3.64,15.26v9.73c0.36,0.1,0.71,0.24,1.06,0.39c2.32,1.06,4.14,3.29,4.3,6.67 l1.09,22.82c0.01,0.09,0.02,0.17,0.02,0.26c0,0.96-0.4,1.82-1.04,2.46c-0.38,0.38-0.86,0.68-1.38,0.85H75.11 c-0.53-0.17-1.01-0.47-1.39-0.85c-0.64-0.63-1.04-1.5-1.04-2.46c0-0.04,0-0.01,0.01-0.13v-0.03l1.1-22.92 c0.16-3.38,1.98-5.61,4.3-6.67c0.25-0.11,0.5-0.21,0.75-0.3v-9.82c0-4.71-1.07-9.19-3.13-13.17c-2.03-3.92-5.01-7.38-8.87-10.09 c-2.3-1.62-4.8-2.78-7.46-3.53c-2.66-0.75-5.59-0.89-8.56-0.88L50.7,18.59L50.7,18.59z"/><polygon class="st1" points="43.95,63.18 22.25,63.18 22.25,100.73 43.95,100.73 43.95,63.18 43.95,63.18"/><path class="st4" d="M21.42,60.23h23.37c0.58,0,1.1,0.24,1.48,0.62l0.01,0.01c0.38,0.38,0.62,0.91,0.62,1.48v39.22 c0,0.58-0.24,1.11-0.62,1.49c-0.05,0.05-0.09,0.09-0.14,0.13c-0.37,0.31-0.83,0.49-1.34,0.49H21.42c-0.58,0-1.11-0.24-1.49-0.62 c-0.05-0.05-0.09-0.1-0.13-0.15c-0.3-0.37-0.49-0.83-0.49-1.34V62.35c0-0.58,0.24-1.1,0.62-1.48l0.01-0.01 C20.31,60.48,20.84,60.23,21.42,60.23L21.42,60.23L21.42,60.23z"/><path class="st5" d="M26.78,95.93c-0.81,0-1.47-0.66-1.47-1.47s0.66-1.47,1.47-1.47h12.65c0.81,0,1.47,0.66,1.47,1.47 s-0.66,1.47-1.47,1.47H26.78L26.78,95.93L26.78,95.93z M26.78,78.8c-0.81,0-1.47-0.66-1.47-1.47c0-0.81,0.66-1.47,1.47-1.47h12.65 c0.81,0,1.47,0.66,1.47,1.47c0,0.81-0.66,1.47-1.47,1.47H26.78L26.78,78.8L26.78,78.8z M26.78,87.36c-0.81,0-1.47-0.66-1.47-1.47 c0-0.81,0.66-1.47,1.47-1.47h12.65c0.81,0,1.47,0.66,1.47,1.47c0,0.81-0.66,1.47-1.47,1.47H26.78L26.78,87.36L26.78,87.36z M30.67,70.23c-0.81,0-1.47-0.66-1.47-1.47c0-0.81,0.66-1.47,1.47-1.47h4.85c0.81,0,1.47,0.66,1.47,1.47 c0,0.81-0.66,1.47-1.47,1.47H30.67L30.67,70.23L30.67,70.23z"/><path class="st5" d="M77.24,90.93L77.24,90.93v0.03C77.24,90.97,77.24,90.95,77.24,90.93L77.24,90.93L77.24,90.93L77.24,90.93z"/><path class="st3" d="M40.35,19c0.04,0.24,0.08,0.47,0.1,0.71c-0.08-0.51-0.21-1-0.39-1.47c-0.06-0.1-0.1-0.22-0.14-0.33 c-0.37-0.87-0.9-1.64-1.56-2.3l0,0c-1.35-1.35-3.21-2.18-5.26-2.18c-2.05,0-3.91,0.83-5.26,2.18c-1.35,1.35-2.18,3.21-2.18,5.26 s0.83,3.91,2.18,5.26s3.21,2.18,5.26,2.18c2.05,0,3.91-0.83,5.26-2.18c0.56-0.56,1.02-1.2,1.38-1.91c0.04-0.16,0.12-0.32,0.21-0.45 c0.23-0.54,0.4-1.12,0.5-1.72c-0.04,0.36-0.1,0.72-0.18,1.08h6.09c0.57,0,1.08-0.23,1.46-0.61c0.38-0.38,0.61-0.89,0.61-1.46l0,0 c0-0.57-0.23-1.08-0.61-1.46c-0.37-0.37-0.89-0.6-1.46-0.6H40.35L40.35,19L40.35,19z M25.72,13.57L7.29,3.2 c-0.84-0.39-1.65-0.33-2.22,0C4.84,3.33,4.66,3.5,4.53,3.69C4.42,3.86,4.36,4.06,4.36,4.26C4.35,4.79,4.72,5.45,5.64,6.14 l17.73,11.11C23.89,15.86,24.7,14.61,25.72,13.57L25.72,13.57L25.72,13.57z M22.72,20.92c-2.82-0.11-5.54-0.19-8.26-0.28 c-3.25-0.11-6.51-0.21-9.74-0.34l0,0c-0.86,0.01-1.41,0.41-1.64,0.93c-0.1,0.21-0.15,0.45-0.15,0.68c0,0.22,0.04,0.45,0.13,0.66 c0.22,0.5,0.78,0.89,1.71,0.89h18.27C22.84,22.65,22.73,21.8,22.72,20.92L22.72,20.92L22.72,20.92z"/></g></svg>