<?xml version="1.0" encoding="utf-8"?><svg version="1.1" id="Layer_1" xmlns="http://www.w3.org/2000/svg" xmlns:xlink="http://www.w3.org/1999/xlink" x="0px" y="0px" viewBox="0 0 122.88 100.7" style="enable-background:new 0 0 122.88 100.7" xml:space="preserve"><g><path d="M76.74,57.48l-0.11,0.12c-0.52,0.56-1.07,1.13-1.65,1.71l0,0C64.54,69.74,52.02,76.16,40.21,78.1 c-12.04,1.98-23.38-0.68-31.14-8.44C1.31,61.9-1.35,50.57,0.63,38.52c1.94-11.81,8.36-24.33,18.8-34.77l0.11-0.11 c0.54-0.54,1.07-1.05,1.6-1.54c0.63-0.59,1.21-1.12,1.74-1.59c0.82-0.72,2.06-0.68,2.83,0.09l52.42,52.42l44.15,44.15 c0.81,0.81,0.81,2.12,0,2.92c-0.81,0.81-2.12,0.81-2.92,0L76.74,57.48L76.74,57.48z M67.17,60.83l-6.84-0.06l-0.04,5.08 C62.63,64.36,64.93,62.69,67.17,60.83L67.17,60.83z M57.46,67.54l0.06-6.79l-10.55-0.09l-0.09,10.55l2.79,0.02 C52.28,70.22,54.89,68.99,57.46,67.54L57.46,67.54z M39.97,73.96l-3.12-0.03l-7.19,0.06l0,0.49c3.17,0.26,6.49,0.11,9.88-0.45 C39.69,74.01,39.83,73.98,39.97,73.96L39.97,73.96z M26.86,74.13l0-0.11l-0.59,0.01C26.46,74.06,26.66,74.1,26.86,74.13 L26.86,74.13z M13.44,68.08l-0.06-7.31L7.6,60.82c1.16,2.16,2.62,4.15,4.39,5.92C12.46,67.21,12.95,67.65,13.44,68.08L13.44,68.08z M6.3,58.03l7.05-0.06l-0.09-10.55l-9.11,0.08C4.3,51.23,5.01,54.79,6.3,58.03L6.3,58.03z M4.15,44.68l9.09-0.08l-0.05-5.5 c-0.02-0.09-0.03-0.18-0.03-0.28l0.01-1.36l-0.01-1.36c0-0.1,0.01-0.19,0.03-0.28l0.05-5.5l-6.2-0.05 c-1.08,2.99-1.86,5.98-2.34,8.91C4.39,41.04,4.21,42.88,4.15,44.68L4.15,44.68z M8.14,27.47l5.13,0.04l0.08-9.79 C11.27,20.91,9.53,24.18,8.14,27.47L8.14,27.47z M16.19,13.71l0,0.47l10.55,0.09l0.06-6.73l-2.63-2.63l-0.21,0.19 c-0.52,0.49-1.03,0.98-1.51,1.46l-0.1,0.11C20.1,8.93,18.04,11.28,16.19,13.71L16.19,13.71z M29.58,10.32l-0.03,3.97l4.04,0.03 L29.58,10.32L29.58,10.32z M36.43,17.17l-0.75,0.01c-0.09,0-0.18-0.01-0.26-0.02l-5.89-0.05l-0.09,10.55l7.42,0.06l7.42-0.06 l-0.02-2.67L36.43,17.17L36.43,17.17z M49.68,30.42l-2.57,0.02l0.04,4.43c0.03,0.11,0.04,0.23,0.04,0.35l-0.02,2.25l0.02,2.24 c0,0.12-0.01,0.24-0.04,0.35l-0.04,4.43l10.55,0.09l0.05-6.13L49.68,30.42L49.68,30.42z M60.49,41.23l-0.03,3.37l3.43,0.03 L60.49,41.23L60.49,41.23z M66.73,47.47l-6.28-0.05l-0.09,10.55l9.98,0.09c0.19-0.18,0.39-0.37,0.58-0.55l0.05-5.8L66.73,47.47 L66.73,47.47z M73.74,54.48l0,0.16l0.08-0.08L73.74,54.48L73.74,54.48z M44.07,71.19l0.09-10.55l-7.3-0.06l-7.3,0.06l0.09,10.55 l4.82-0.04c0.11-0.03,0.22-0.04,0.34-0.04l2.06,0.02l2.06-0.02c0.12,0,0.23,0.01,0.34,0.04L44.07,71.19L44.07,71.19z M44.18,57.83 l0.09-10.55l-7.42-0.06l-7.42,0.06l0.09,10.55l5.89-0.05c0.09-0.02,0.17-0.02,0.26-0.02l1.17,0.01l1.17-0.01 c0.09,0,0.18,0.01,0.26,0.02L44.18,57.83L44.18,57.83z M44.3,44.47l0.06-7l-0.06-7l-7.01,0.06c-0.05,0-0.09,0.01-0.14,0.01l-0.29,0 l-0.29,0c-0.05,0-0.1,0-0.14-0.01l-7.01-0.06l-0.06,7l0.06,7l7.01-0.06c0.05,0,0.1-0.01,0.14-0.01l0.29,0l0.29,0 c0.05,0,0.1,0,0.14,0.01L44.3,44.47L44.3,44.47z M47.08,47.3l-0.09,10.55l10.55,0.09l0.09-10.55L47.08,47.3L47.08,47.3z M26.56,40.06c-0.03-0.11-0.04-0.23-0.04-0.35l0.02-2.24l-0.02-2.25c0-0.12,0.01-0.24,0.04-0.35l0.04-4.43l-10.55-0.09l-0.06,7.12 l0.06,7.12l10.55-0.09L26.56,40.06L26.56,40.06z M26.63,47.3l-10.55,0.09l0.09,10.55l10.55-0.09L26.63,47.3L26.63,47.3z M26.74,60.66l-10.55,0.09l0.08,9.42c0.63,0.4,1.27,0.77,1.94,1.12l8.63-0.07L26.74,60.66L26.74,60.66z M26.72,17.08l-10.55-0.09 l-0.09,10.55l10.55,0.09L26.72,17.08L26.72,17.08z"/></g></svg>