<svg xmlns="http://www.w3.org/2000/svg" viewBox="0 0 122.88 122.88"><defs><style>.a{fill-rule:evenodd;}</style></defs><title>grinder</title><path class="a" d="M108.47,14.41a32,32,0,1,1-45.32,0,32,32,0,0,1,45.32,0ZM27.77,45.16h0a4.16,4.16,0,0,1,0,5.86l-2.55,2.54,7,7L24.9,67.82l-7-7-2.27,2.27a4.16,4.16,0,0,1-5.86,0h0a4.17,4.17,0,0,1,0-5.87l12.11-12.1a4.16,4.16,0,0,1,5.86,0ZM16.54,116.81l-3.91,3.91a7.42,7.42,0,0,1-10.47,0h0a7.42,7.42,0,0,1,0-10.47L6,106.44a40.41,40.41,0,0,0,10.57,10.37Zm47-33.3L37.42,109.6a17.13,17.13,0,0,1-24.14,0h0a17.12,17.12,0,0,1,0-24.14L39.37,59.37A51.62,51.62,0,0,1,48.12,2a6.2,6.2,0,0,1,9.08,8.44,39.1,39.1,0,0,0,55.26,55.26,6.2,6.2,0,1,1,8.44,9.08,51.62,51.62,0,0,1-57.39,8.75ZM91.14,31.74a7.54,7.54,0,1,1-10.66,0,7.54,7.54,0,0,1,10.66,0Zm9.4-9.4a20.83,20.83,0,1,1-14.73-6.1,20.76,20.76,0,0,1,14.73,6.1ZM101,37.07A15.16,15.16,0,1,0,96.54,47.8,15.15,15.15,0,0,0,101,37.07Z"/></svg>