<?xml version="1.0" encoding="utf-8"?><svg version="1.1" id="Layer_1" xmlns="http://www.w3.org/2000/svg" xmlns:xlink="http://www.w3.org/1999/xlink" x="0px" y="0px" width="110.697px" height="122.88px" viewBox="0 0 110.697 122.88" enable-background="new 0 0 110.697 122.88" xml:space="preserve"><g><path fill-rule="evenodd" clip-rule="evenodd" d="M21.635,121.727c-0.776,1.181-2.362,1.508-3.543,0.732l-0.037-0.025l-0.003,0.005 L1.119,110.814c-1.17-0.798-1.471-2.394-0.673-3.563c0.039-0.058,0.08-0.113,0.123-0.166C16.768,84.548,32.88,61.979,49.002,39.378 c0.744-1.047,2.196-1.292,3.243-0.547c0.037,0.026,0.072,0.054,0.108,0.083l0.065,0.051l4.473-5.65 c0.829-1.048,1.311-1.694,1.42-2.183c0.105-0.467-0.053-1.188-0.475-2.49c-1.198-3.692-4.251-5.328-8.398-5.594 c-4.784-0.307-10.936,1.087-17.523,3.324c-1.218,0.413-2.539-0.24-2.952-1.458c-0.242-0.715-0.116-1.467,0.275-2.049 c4.334-7.499,9.065-14.477,15.873-18.727c6.823-4.259,15.515-5.698,27.555-2.078l2.569-1.194c0.697-0.322,1.472-0.269,2.097,0.074 l14.734,7.909c0.612,0.329,1.018,0.893,1.164,1.52l1.731,6.202l1.111-0.232c0.655-0.137,1.304,0.018,1.812,0.375l0.001-0.002 l11.823,8.325c1.048,0.737,1.303,2.182,0.572,3.232l0.002,0.001L94.855,50.45c-0.719,1.035-2.126,1.307-3.177,0.627l-11.186-6.198 c-0.6-0.333-0.994-0.893-1.137-1.513l-0.002,0l-0.666-2.891l-6.826,0.784l-4.69,7.958c0.73,0.745,0.889,1.918,0.315,2.846 c-0.025,0.042-0.053,0.083-0.08,0.122C52.153,75.371,36.884,98.539,21.635,121.727L21.635,121.727z M47.57,8.092 c-4.495,2.806-8.058,7.14-11.255,12.071c4.907-1.311,9.493-2.014,13.414-1.762c6.095,0.392,10.635,2.964,12.534,8.818 c0.69,2.129,0.905,3.503,0.585,4.932c-0.316,1.407-1.061,2.457-2.313,4.042l-5.827,7.361c-0.019,0.025-0.036,0.05-0.055,0.074 c-0.785,1.016-2.245,1.204-3.262,0.419l-0.005-0.004L19.801,88.322l12.59,8.642l29.921-45.482c-0.65-0.732-0.788-1.827-0.266-2.717 l6.322-10.728c0.34-0.68,1.007-1.181,1.819-1.273l10.038-1.152v0.002c1.163-0.134,2.265,0.625,2.532,1.793l0.9,3.912l8.57,4.749 l12.907-18.557l-9.104-6.41l-2.25,0.471v-0.002c-1.19,0.249-2.386-0.467-2.715-1.656l-2.075-7.432l-12.856-6.9l-2.211,1.027 c-0.533,0.283-1.174,0.36-1.795,0.165C61.143,3.293,53.448,4.422,47.57,8.092L47.57,8.092z"/></g></svg>