<svg id="Layer_1" data-name="Layer 1" xmlns="http://www.w3.org/2000/svg" viewBox="0 0 122.88 99.81"><title>laser</title><path d="M67.77,61.69,84.24,78.16a4.3,4.3,0,0,1-6.08,6.08L61.69,67.77a21.47,21.47,0,0,0,6.08-6.08ZM49.9,37.17a12.72,12.72,0,0,1,11,6.28h55.54a6.46,6.46,0,1,1,0,12.91H60.88a12.73,12.73,0,1,1-11-19.19Zm4.31,33.7V95.5a4.31,4.31,0,1,1-8.61,0V70.87a21.28,21.28,0,0,0,8.61,0Zm-16.09-3.1L15.75,90.15a4.31,4.31,0,0,1-6.09-6.09L32,61.69a21.34,21.34,0,0,0,6.08,6.08ZM28.93,54.21H4.3a4.31,4.31,0,0,1,0-8.61H28.93a21.77,21.77,0,0,0,0,8.61ZM32,38.12l-24-24a4.3,4.3,0,0,1,6.08-6.08l24,24A21.34,21.34,0,0,0,32,38.12ZM45.6,28.93V4.3a4.31,4.31,0,0,1,8.61,0V28.93a21.77,21.77,0,0,0-8.61,0ZM61.69,32,78,15.71a4.3,4.3,0,1,1,6.08,6.09L67.77,38.12A21.47,21.47,0,0,0,61.69,32Z"/></svg>