<svg id="Layer_1" data-name="Layer 1" xmlns="http://www.w3.org/2000/svg" viewBox="0 0 122.88 112.71"><defs><style>.cls-1{fill:#42a5f5;fill-rule:evenodd;}</style></defs><title>paint-bucket</title><path class="cls-1" d="M6.56,52C33.11,57.3,43.18,89.47,86.29,67.8L58,96.06s-.57.58-.63.65a7,7,0,0,1-4.29,2.56,13.6,13.6,0,0,1-4.2.24h0a21.48,21.48,0,0,1-4.8-1.06c-7.4-2.48-15.17-7.8-21.79-14.37S10.22,69.62,7.61,62.19a25.29,25.29,0,0,1-1-3.74,17.9,17.9,0,0,1-.33-3.3A12.86,12.86,0,0,1,6.56,52Z"/><path d="M110.56,84.94c-1.21-1.85-2.44-3.72-3.61-5.64-1.35,2.26-2.77,4.48-4.15,6.64-3.51,5.48-6.72,10.51-6.72,12.55,0,4.65,2.24,7.71,5.23,9.21a12.56,12.56,0,0,0,4.94,1.25,13,13,0,0,0,5.16-.74,9.49,9.49,0,0,0,6.36-8c.13-4.1-3.44-9.53-7.21-15.27Z"/><path d="M111.24,72.76c.82,3.48,3.17,7.06,5.43,10.5,3.35,5.1,6.52,9.93,6.18,15.51l0,.22a14.76,14.76,0,0,1-10,12.68,17.35,17.35,0,0,1-6.85,1,17,17,0,0,1-6.73-1.76A14.85,14.85,0,0,1,91,97c0-3.86,2.79-8.22,5.83-13,2.46-3.84,5.11-8,5.86-11.25a4.41,4.41,0,0,1,8.59,0Z"/><path class="cls-1" d="M107,73.76c2.15,9.2,12,17.11,11.5,24.75-1.49,13.54-23.07,13-23.07-1.51,0-5.18,9.72-15.25,11.57-23.24Z"/><path d="M34.65,13.77c-10.22,1.1-16.22,4.63-19,9.11a13.37,13.37,0,0,0-1.23,10.65l.09.34,20.11-20.1ZM80.8,24.89c-7.29-7.3-14.66-13-20.73-16.17C55.76,6.5,52.4,5.61,50.75,6.55l-.82.82c-1.22,2-.51,6.26,1.78,11.58A68.81,68.81,0,0,0,66.22,39.47c6.94,6.94,14.39,12.14,20.73,15,4.51,2,8.21,2.9,10.35,2.32l1.91-1.92c.45-1.91-.5-5.14-2.49-9.13C93.63,39.53,88,32.08,80.8,24.89ZM62.94,3.15c6.66,3.43,14.58,9.57,22.31,17.3S99,36.15,102.34,43c3.75,7.51,4.35,13.92.69,17.58A8.23,8.23,0,0,1,101,62L61.88,101.1c-2.35,2.37-3.33,3.37-7.38,4.28a19.93,19.93,0,0,1-6.14.36,27.5,27.5,0,0,1-6.24-1.35c-8.33-2.8-17-8.66-24.22-15.86S4.63,72.6,1.7,64.25A30.28,30.28,0,0,1,.43,59.6,23.6,23.6,0,0,1,0,55.15a15.25,15.25,0,0,1,1.23-6.81A17.84,17.84,0,0,1,5,43.42l.16-.17,4.71-4.7A24.06,24.06,0,0,1,8.65,35.1a19.15,19.15,0,0,1,1.92-15.34C14.84,12.78,24.42,7.59,41,7.42l4.17-4.16a7.06,7.06,0,0,1,1.58-1.57,2.46,2.46,0,0,1,.67-.45C51.13-1,56.62-.11,62.94,3.15ZM91.48,62.61a35.83,35.83,0,0,1-7.11-2.42c-7-3.16-15.11-8.81-22.59-16.28A75.25,75.25,0,0,1,45.94,21.43a34.92,34.92,0,0,1-2.39-7.68L17.44,39.85a25.47,25.47,0,0,0,4.1,4.58c7.26,6.43,18.87,9.69,31.64,4.22a3,3,0,0,1,2.35,5.52c-15.21,6.51-29.17,2.52-38-5.25a32,32,0,0,1-4.42-4.78L9.44,47.85A12.66,12.66,0,0,0,6.9,51a9.73,9.73,0,0,0-.64,4.14,17.9,17.9,0,0,0,.33,3.3,25.29,25.29,0,0,0,1,3.74c2.61,7.43,8,15.27,14.71,21.89S36.71,96,44.11,98.45a21.48,21.48,0,0,0,4.8,1.06h0a13.6,13.6,0,0,0,4.2-.24,7,7,0,0,0,4.29-2.56c.06-.07.64-.64.63-.65L91.48,62.61Z"/></svg>