<svg id="Layer_1" data-name="Layer 1" xmlns="http://www.w3.org/2000/svg" viewBox="0 0 85.48 122.88"><defs><style>.cls-1{fill:#262626;}.cls-2{fill:#42a5f5;fill-rule:evenodd;}</style></defs><title>painting-bucket</title><path class="cls-1" d="M84.39,40.2a2.91,2.91,0,0,1,1.08,2.26v2.18c0,.13,0,.26,0,.39s0,.26,0,.39v57.26a3,3,0,0,1-.21,1.08,18.88,18.88,0,0,1-4.61,7.49,28.63,28.63,0,0,1-8.13,5.61c-8.42,4-19.36,6.06-30.24,6s-21.66-2.1-29.95-6.23a26.45,26.45,0,0,1-7.52-5.39,18.71,18.71,0,0,1-4.5-7.78,3.08,3.08,0,0,1-.12-.89V48A2.75,2.75,0,0,1,0,47C0,24.54,11.06,10.07,25.19,3.7A42.25,42.25,0,0,1,42.48,0,41.78,41.78,0,0,1,59.75,3.68C72.32,9.35,82.41,21.51,84.39,40.2ZM6.26,35.84a34.84,34.84,0,0,1,7.49-3.65c7.5-2.7,17.79-4.37,29.08-4.37s21.57,1.67,29.08,4.37a36.77,36.77,0,0,1,6.44,3C75.38,21.83,67.4,13,57.74,8.65a37.29,37.29,0,0,0-30.54,0C17.31,13.13,9.14,22.2,6.26,35.84Zm73.32,9.83c0-.49,0-1,0-1.46-.68-2.32-4.22-4.63-9.58-6.56-6.88-2.48-16.46-4-27.12-4s-20.25,1.53-27.13,4C9.71,39.81,6,42.44,6,45s3.71,5.23,9.7,7.39c6.88,2.48,16.47,4,27.13,4s20.24-1.53,27.12-4c5.51-2,9.09-4.36,9.63-6.75ZM6,54v48.21a13.18,13.18,0,0,0,3,5,20.88,20.88,0,0,0,5.91,4.19c7.51,3.74,17.41,5.61,27.37,5.64S62.4,115.31,70,111.65a22.85,22.85,0,0,0,6.5-4.45,13.34,13.34,0,0,0,3.14-5V54a34.64,34.64,0,0,1-7.76,3.84c-7.51,2.7-17.79,4.37-29.08,4.37s-21.58-1.67-29.08-4.37A34,34,0,0,1,6,54Z"/><path class="cls-2" d="M79.67,54c-23.54,10-47,10.57-70.17,2l1.57,6.19c1.31,5.15,2.84,11.69,7,11.9,5.84.3,14.21-15,15.3,5.57l.73,13.79c0,5.63,3.82,8.83,7.51,8.83,8.56,0,6.06-10.09,5.58-15a63.23,63.23,0,0,1-.24-8.18c-.17-12.65,11.46-13.86,11.55-2.6,0,5.19,4.63,7.86,8.36,6.69,8.1-2.56,3.81-14.34,6.54-20.81A22.68,22.68,0,0,1,79.67,54Z"/></svg>