<svg id="Layer_1" data-name="Layer 1" xmlns="http://www.w3.org/2000/svg" viewBox="0 0 122.88 110.85"><title>paint-roller-bucket</title><path d="M66.15,45.69a2.29,2.29,0,0,1,1.43,2.12v1.71c0,.1,0,.2,0,.3s0,.21,0,.31V95a2.19,2.19,0,0,1-.17.85,14.74,14.74,0,0,1-3.6,5.88,22.67,22.67,0,0,1-6.38,4.39c-6.6,3.17-15.18,4.75-23.7,4.72s-17-1.65-23.49-4.89a20.64,20.64,0,0,1-5.9-4.22,14.7,14.7,0,0,1-3.52-6.1,2.13,2.13,0,0,1-.09-.71V52.1a2.58,2.58,0,0,1-.08-.26C-1.92,40.76,3.34,32.57,11.91,27.7a41.06,41.06,0,0,1,17-4.91A45.22,45.22,0,0,1,47,25c9.31,3.25,16.82,9.86,18.75,20.21.13.16.26.32.37.47ZM52.17,15H50.3a.57.57,0,0,1-.56-.57V11a.57.57,0,0,1,.56-.57h1.87V7.72a7.65,7.65,0,0,1,.59-2.95A7.54,7.54,0,0,1,54.41,2.3l0,0A7.73,7.73,0,0,1,59.89,0H107a7.73,7.73,0,0,1,7.72,7.72v2.43h.41a7.78,7.78,0,0,1,2.94.58,8,8,0,0,1,2.51,1.68,7.84,7.84,0,0,1,1.68,2.52,7.56,7.56,0,0,1,.59,2.94V32.44a7.6,7.6,0,0,1-.59,2.94,7.69,7.69,0,0,1-1.65,2.48l0,0a7.75,7.75,0,0,1-2.5,1.68,7.65,7.65,0,0,1-3,.59c-6.83,0-13.69.09-20.51,0a29.43,29.43,0,0,0-4.1.11,7.11,7.11,0,0,0-3.33,1.1,3.55,3.55,0,0,0-.63.59,3.33,3.33,0,0,0-.49.73,4.83,4.83,0,0,0-.37,1,7.26,7.26,0,0,0-.19,1.15v15.1h2.14a5.16,5.16,0,0,1,3.65,1.51,5.32,5.32,0,0,1,1.12,1.68,5.17,5.17,0,0,1,.39,2V92.5a5.16,5.16,0,0,1-5.16,5.15h-9a5.17,5.17,0,0,1-2-.39,5.06,5.06,0,0,1-1.64-1.09l0,0a5.33,5.33,0,0,1-1.12-1.67,5.2,5.2,0,0,1-.39-2V65.07a5.14,5.14,0,0,1,1.51-3.65,5.37,5.37,0,0,1,1.68-1.12,5.17,5.17,0,0,1,2-.39H81c0-5-.19-10.36,0-15.31a12.51,12.51,0,0,1,.35-2.12,9.37,9.37,0,0,1,.68-1.82l0,0A8.16,8.16,0,0,1,83.16,39a8.48,8.48,0,0,1,1.39-1.28l0,0c3-2.17,6.73-2.12,10.09-2.06,6.69-.22,13.75,0,20.49,0a3.12,3.12,0,0,0,1.22-.24,3.27,3.27,0,0,0,1.74-1.74,3.12,3.12,0,0,0,.24-1.22V17.87a3.16,3.16,0,0,0-.94-2.26,3.18,3.18,0,0,0-1-.7,3.13,3.13,0,0,0-1.22-.25h-.41v1.8a7.65,7.65,0,0,1-.59,2.95,7.74,7.74,0,0,1-1.68,2.51A7.92,7.92,0,0,1,110,23.6a7.64,7.64,0,0,1-3,.58H59.89A7.67,7.67,0,0,1,54.47,22l0,0a7.79,7.79,0,0,1-1.68-2.51,7.65,7.65,0,0,1-.59-2.95V15ZM107,4.51H59.89a3.22,3.22,0,0,0-1.21.24,3.42,3.42,0,0,0-1,.71,3.18,3.18,0,0,0-.7,1,3.12,3.12,0,0,0-.24,1.22v8.74a3.12,3.12,0,0,0,.24,1.22,3.27,3.27,0,0,0,1.74,1.74,3.12,3.12,0,0,0,1.22.24H107a3.12,3.12,0,0,0,1.22-.24A3.27,3.27,0,0,0,110,17.68a3.13,3.13,0,0,0,.25-1.22V7.71A3.13,3.13,0,0,0,110,6.49a3.27,3.27,0,0,0-1.74-1.74A3.12,3.12,0,0,0,107,4.51ZM34.15,36.33c8.85,0,16.91,1.31,22.8,3.42a33.45,33.45,0,0,1,3.11,1.3c-2.77-5.87-8.1-9.83-14.39-12A41.05,41.05,0,0,0,29.2,27,36.93,36.93,0,0,0,14,31.4c-4.83,2.75-8.38,6.76-9.43,11.91a24.92,24.92,0,0,1,6.83-3.56c5.89-2.12,14-3.42,22.8-3.42ZM63,56.88a23.54,23.54,0,0,1-4,2.18,13,13,0,0,0-.94,1.81C56,66,59.34,75.18,53,77.18a5.17,5.17,0,0,1-6.55-5.24c-.07-8.82-9.19-7.88-9,2a50.52,50.52,0,0,0,.18,6.42c.38,3.88,2.34,11.79-4.37,11.78-2.9,0-5.92-2.5-5.89-6.92l-.57-10.81c-.86-16.13-7.42-4.13-12-4.36-3.26-.17-4.46-5.3-5.48-9.33l-.49-1.92a23.56,23.56,0,0,1-3.51-2V94.67a10.28,10.28,0,0,0,2.37,3.94,16.4,16.4,0,0,0,4.63,3.29c5.89,2.93,13.66,4.39,21.47,4.42s15.77-1.4,21.75-4.27a18.15,18.15,0,0,0,5.09-3.49A10.31,10.31,0,0,0,63,94.67V56.88ZM55.41,44c-5.39-1.94-12.9-3.14-21.26-3.14S18.28,42.09,12.89,44c-4.7,1.69-7.61,3.76-7.61,5.79s2.91,4.1,7.61,5.79c5.39,2,12.9,3.15,21.26,3.15S50,57.56,55.41,55.61c3.17-1.14,5.52-2.44,6.72-3.8a2,2,0,0,1,0-.43,25.69,25.69,0,0,0-.18-3.77A18,18,0,0,0,55.41,44Z"/></svg>