<?xml version="1.0" encoding="utf-8"?><svg version="1.1" id="Layer_1" xmlns="http://www.w3.org/2000/svg" xmlns:xlink="http://www.w3.org/1999/xlink" x="0px" y="0px" viewBox="0 0 122.88 99.65" style="enable-background:new 0 0 122.88 99.65" xml:space="preserve"><style type="text/css">.st0{fill-rule:evenodd;clip-rule:evenodd;}</style><g><path class="st0" d="M46.37,0h30.45v38.68H46.37V0L46.37,0z M40.67,64.88c5.13-0.7,6.12-5.3,5.74-11.19h30.71 c-0.33,7.01,1.18,10.89,5.74,10.72h4.69v31H35.5V64.88H40.67L40.67,64.88z M92.24,96.88V63.07c0-1.52,1.25-2.77,2.77-2.77l0,0 c1.52,0,2.77,1.25,2.77,2.77v33.81c0,1.52-1.25,2.77-2.77,2.77l0,0C93.48,99.65,92.24,98.4,92.24,96.88L92.24,96.88z M25.24,96.88 V63.07c0-1.52,1.25-2.77,2.77-2.77l0,0c1.52,0,2.77,1.25,2.77,2.77v33.81c0,1.52-1.25,2.77-2.77,2.77l0,0 C26.48,99.65,25.24,98.4,25.24,96.88L25.24,96.88z M102.64,95.5V65.05h20.24V95.5H102.64L102.64,95.5z M0,95.4V64.95h20.39V95.4H0 L0,95.4z M44.59,43.67H78.4c1.52,0,2.77,1.25,2.77,2.77l0,0c0,1.52-1.25,2.77-2.77,2.77H44.59c-1.52,0-2.77-1.25-2.77-2.77l0,0 C41.82,44.91,43.06,43.67,44.59,43.67L44.59,43.67z"/></g></svg>