<?xml version="1.0" encoding="utf-8"?><svg version="1.1" id="Layer_1" xmlns="http://www.w3.org/2000/svg" xmlns:xlink="http://www.w3.org/1999/xlink" x="0px" y="0px" viewBox="0 0 93.51 122.88" style="enable-background:new 0 0 93.51 122.88" xml:space="preserve"><g><path d="M55.23,76.46c7.29,1.97,13.66,6.29,18.34,12.13c4.58,5.72,7.53,12.9,8.1,20.77h5.26c1.78,0,3.41,0.74,4.6,1.93 c1.23,1.23,1.99,2.94,1.99,4.83l0,0c0,1.89-0.76,3.6-1.99,4.83c-1.19,1.19-2.82,1.93-4.6,1.93H6.59c-1.78,0-3.41-0.74-4.6-1.93 C0.76,119.72,0,118.01,0,116.12l0,0c0-1.89,0.76-3.6,1.99-4.83c1.19-1.19,2.82-1.93,4.6-1.93h4.4c0.57-7.93,3.53-15.16,8.13-20.89 c4.69-5.84,11.08-10.14,18.41-12.07V8.85c0-2.44,1-4.65,2.6-6.25C41.73,1,43.94,0,46.38,0h0c2.44,0,4.65,1,6.25,2.6 c1.6,1.6,2.6,3.82,2.6,6.25V76.46L55.23,76.46z M86.92,113.05H6.59c-0.92,0-1.75,0.37-2.35,0.96c-0.55,0.55-0.89,1.3-0.89,2.11l0,0 c0,0.81,0.34,1.56,0.89,2.11c0.59,0.59,1.42,0.96,2.35,0.96h80.33c0.92,0,1.75-0.37,2.35-0.96c0.55-0.55,0.89-1.3,0.89-2.11l0,0 c0-0.81-0.34-1.56-0.89-2.11C88.67,113.42,87.84,113.05,86.92,113.05L86.92,113.05z M41.18,64.98h10.4V8.85 c0-1.43-0.59-2.73-1.53-3.67c-0.94-0.94-2.24-1.53-3.67-1.53h0c-1.43,0-2.73,0.59-3.67,1.53c-0.94,0.94-1.53,2.24-1.53,3.67V64.98 L41.18,64.98z M52.48,79.46h-12.3c-0.14,0.07-0.28,0.12-0.44,0.15c-7.09,1.54-13.3,5.55-17.78,11.13 c-4.07,5.07-6.72,11.44-7.31,18.43H78c-0.59-6.94-3.22-13.27-7.27-18.33c-4.44-5.54-10.58-9.56-17.59-11.17 C52.9,79.66,52.68,79.58,52.48,79.46L52.48,79.46z"/></g></svg>