<svg id="Layer_1" data-name="Layer 1" xmlns="http://www.w3.org/2000/svg" viewBox="0 0 118.3 122.88"><defs><style>.cls-1{fill-rule:evenodd;}</style></defs><title>propeller</title><path class="cls-1" d="M74.42,82.21a55.16,55.16,0,0,1,.83,5.6c.88,9.5-2.15,16-2.44,24.55-.34,10.33,10.19,12,18.11,9.45A39.17,39.17,0,0,0,102,115.69a46.72,46.72,0,0,0,8.05-7.84c16.52-20.21,7.15-39.5-18.23-45.36A15.9,15.9,0,0,0,87,62.16v.41a21.59,21.59,0,0,1-6.34,15.3l-.33.31a21.59,21.59,0,0,1-5.9,4ZM65.34,46.59a16,16,0,1,1-16,16,16,16,0,0,1,16-16Zm9.58-3.43q1.55-1.86,3.27-3.59c6.73-6.76,13.69-8.6,20.43-13.83,8.16-6.33,2.74-15.52-4.31-20a38.89,38.89,0,0,0-11.78-4.6A46.61,46.61,0,0,0,71.35,0C45.25.22,36.41,19.75,48.13,43a15.51,15.51,0,0,0,2.56,3.65,21.58,21.58,0,0,1,24.23-3.5ZM43.75,61a56.16,56.16,0,0,1-6-2C28.91,55.39,24.49,49.71,17,45.56,8,40.53,1.68,49.12.36,57.34A38.91,38.91,0,0,0,.74,70,46.29,46.29,0,0,0,4,80.73c10.42,23.93,31.86,24.42,48.67,4.52A15.85,15.85,0,0,0,55,81.58a21.54,21.54,0,0,1-5-3.72h0a21.59,21.59,0,0,1-6.34-15.3q0-.82.06-1.62Z"/></svg>