<?xml version="1.0" encoding="utf-8"?><svg version="1.1" id="Layer_1" xmlns="http://www.w3.org/2000/svg" xmlns:xlink="http://www.w3.org/1999/xlink" x="0px" y="0px" viewBox="0 0 122.88 111.1" style="enable-background:new 0 0 122.88 111.1" xml:space="preserve"><g><path d="M89.83,63.17l32.59,32.59c0.62,0.62,0.62,1.63,0,2.24l-12.64,12.64c-0.62,0.62-1.63,0.62-2.24,0 c-0.14-0.14-0.25-0.31-0.34-0.49l-5.38-9.87l-6.8,1.29c-0.73,0.14-1.43-0.25-1.72-0.89l0,0l-4.12-8.94l-5.92,1.18 c-0.74,0.15-1.46-0.25-1.75-0.91l-4.63-8.82l-6.95,1.02l-5.95-10.01l-6.46,0.83l-2.86-4.92l-2.39-4.18l-5.08,0.72 c-0.67,0.1-1.3-0.25-1.61-0.81l-5.31-8.89l-5.46,1.19c-0.48,0.11-0.96-0.02-1.32-0.3l-6.72-4.64l-1.01,1.01 c-0.51,0.51-1.18,0.76-1.84,0.76s-1.33-0.26-1.84-0.77l0,0L5.19,37.34c-0.09-0.05-0.17-0.13-0.25-0.21l-4.47-4.47 c-0.62-0.62-0.62-1.63,0-2.24c0.62-0.62,1.62-0.62,2.24,0l3.34,3.34L33.75,6.04l-3.34-3.34c-0.62-0.62-0.62-1.63,0-2.24 c0.62-0.62,1.63-0.62,2.24,0l4.36,4.36c0.03,0.03,0.08,0.06,0.11,0.1l17.11,17.11c0.51,0.51,0.76,1.17,0.76,1.84 c0,0.66-0.25,1.32-0.76,1.83l0,0l0,0l-0.94,0.94l22.35,22.35L89.83,63.17L89.83,63.17z M21.75,28.89l7.76-7.76l0.09-0.08 c1.13-1.08,2.58-1.62,4.04-1.62c1.49,0,2.99,0.57,4.12,1.7l0.02,0.02c1.12,1.13,1.68,2.62,1.68,4.1c0,1.49-0.57,2.98-1.7,4.12v0.01 l-7.76,7.76l-0.08,0.08c-1.12,1.08-2.58,1.62-4.04,1.62c-1.49,0-2.99-0.57-4.12-1.7c-1.14-1.14-1.7-2.63-1.7-4.12 C20.05,31.52,20.62,30.03,21.75,28.89L21.75,28.89L21.75,28.89z M31.44,23.07l-7.76,7.76h-0.01c-0.6,0.6-0.89,1.39-0.89,2.19 c0,0.79,0.3,1.59,0.9,2.19c0.6,0.6,1.39,0.9,2.19,0.9c0.77,0,1.54-0.28,2.13-0.84l7.81-7.82l0,0c0.6-0.6,0.9-1.39,0.9-2.19 c0-0.79-0.3-1.58-0.89-2.18l-0.02-0.02c-0.6-0.59-1.38-0.88-2.17-0.88c-0.77,0-1.54,0.28-2.13,0.84L31.44,23.07L31.44,23.07z M36.01,8.28L8.31,35.98l15.58,15.58l27.7-27.7L36.01,8.28L36.01,8.28L36.01,8.28z"/></g></svg>