<?xml version="1.0" encoding="utf-8"?><svg version="1.1" id="Layer_1" xmlns="http://www.w3.org/2000/svg" xmlns:xlink="http://www.w3.org/1999/xlink" x="0px" y="0px" viewBox="0 0 122.88 122.88" style="enable-background:new 0 0 122.88 122.88" xml:space="preserve"><style type="text/css">.st0{fill-rule:evenodd;clip-rule:evenodd;}</style><g><path class="st0" d="M31.77,56.55l12.18,12.18l55.72-52.58c-1.32-3.95-0.42-8.48,2.71-11.6l1.26-1.26 c4.38-4.38,11.57-4.38,15.96,0.01l0,0c4.39,4.39,4.38,11.57,0,15.95l-1.27,1.27c-3.13,3.13-7.67,4.02-11.6,2.71L54.14,78.94 l12.43,12.43c1.54,1.54,1.54,4.06,0,5.6L49.04,114.5c-11.18,11.18-29.47,11.18-40.66,0l0,0c-11.18-11.18-11.18-29.47,0-40.66 l17.28-17.28C27.35,54.88,30.09,54.87,31.77,56.55L31.77,56.55L31.77,56.55z M114.78,8.1L114.78,8.1c1.94,1.94,1.94,5.11,0,7.06 l-0.56,0.56c-1.94,1.94-5.11,1.94-7.06,0l0,0c-1.94-1.94-1.94-5.11,0-7.06l0.56-0.56C109.66,6.15,112.84,6.16,114.78,8.1 L114.78,8.1L114.78,8.1z"/></g></svg>