<?xml version="1.0" encoding="utf-8"?><svg version="1.1" id="Layer_1" xmlns="http://www.w3.org/2000/svg" xmlns:xlink="http://www.w3.org/1999/xlink" x="0px" y="0px" viewBox="0 0 122.16 122.88" style="enable-background:new 0 0 122.16 122.88" xml:space="preserve"><g><path d="M49.55,65.6l7.73,7.73c0.04,0.04,0.16,0.17,0.35,0.39c1.4,1.58,2.13,3.62,2.15,5.63c0.02,2.07-0.72,4.13-2.28,5.69 c-0.03,0.03-0.15,0.14-0.35,0.32l-39.87,35.23c-1.7,1.5-3.84,2.3-5.94,2.3c-2.12,0-4.21-0.78-5.84-2.41l-3.09-3.09 C0.78,115.75,0,113.66,0,111.54c0-2.1,0.79-4.24,2.3-5.94l35.23-39.87c0.18-0.21,0.29-0.32,0.32-0.35 c1.55-1.55,3.61-2.29,5.69-2.28c2.01,0.02,4.05,0.75,5.63,2.15C49.38,65.44,49.51,65.56,49.55,65.6L49.55,65.6z M120.99,17.38 l-12.21,48.94c-2.25,9.03-5.09,14.18-9.44,15.54c-4.41,1.38-9.52-1.32-16.24-8.03L68.55,59.26l-8.64,8.64 c-1.25,1.25-3.28,1.25-4.53,0c-1.25-1.25-1.25-3.28,0-4.53l8.64-8.64L50.76,41.47c-6.95-6.95-10.79-11.81-10.13-16.36 c0.69-4.69,5.82-7.79,16.79-10.8l47.27-12.98c7.39-2.03,12.25-1.8,15.07,1.05C122.57,5.21,122.81,10.09,120.99,17.38L120.99,17.38z M103.27,64.96l12.21-48.94c1.31-5.25,1.47-8.42,0.26-9.64c-1.2-1.21-4.3-1.02-9.56,0.42L58.91,19.78 c-8.48,2.33-12.36,4.13-12.66,6.16c-0.32,2.18,2.86,5.84,8.53,11.51c10.84,10.84,21.5,21.5,32.35,32.35 c5.08,5.08,8.43,7.29,10.52,6.63C99.81,75.76,101.53,71.93,103.27,64.96L103.27,64.96z M53.26,77.35l-7.73-7.73 c-0.12-0.12-0.08-0.09-0.12-0.13c-0.53-0.47-1.22-0.72-1.9-0.73c-0.61,0-1.21,0.2-1.64,0.63c-0.11,0.11-0.05,0.03-0.1,0.09 L6.54,109.36c-0.56,0.63-0.85,1.42-0.85,2.18c0,0.66,0.24,1.31,0.74,1.82l3.09,3.09c0.5,0.5,1.15,0.74,1.81,0.74 c0.77,0,1.55-0.29,2.18-0.85l39.87-35.23c0.05-0.05-0.02,0.01,0.09-0.1c0.43-0.43,0.64-1.03,0.63-1.64 c-0.01-0.68-0.25-1.36-0.73-1.9C53.35,77.43,53.38,77.47,53.26,77.35L53.26,77.35z"/></g></svg>