<?xml version="1.0" encoding="utf-8"?><svg version="1.1" id="Layer_1" xmlns="http://www.w3.org/2000/svg" xmlns:xlink="http://www.w3.org/1999/xlink" x="0px" y="0px" viewBox="0 0 122.88 117.35" style="enable-background:new 0 0 122.88 117.35" xml:space="preserve"><style type="text/css">.st0{fill-rule:evenodd;clip-rule:evenodd;}</style><g><path class="st0" d="M79.22,54.41c5.16,3.03,9.06,6.88,11.81,11.19h5.36v36.21h-5.73c-5.72,9.03-15.74,15.53-28.98,15.53 c-13.23,0-23.34-6.5-29.09-15.53h-5.96V65.6h5.91c2.98-4.48,7.25-8.48,12.96-11.58c3.04-1.64,4.88-3.69,4.9-5.53 c0.03-2.33-2.52-4.31-5.26-4.31h-1.36c-3.32,0-6.04-2.72-6.04-6.04l0,0c0-3.32,2.72-6.04,6.04-6.04h7.76l6.1-7.57 c-0.02-0.28-0.04-0.57-0.04-0.87v-9.99H32.87c-3.77,0-6.85-3.08-6.85-6.85l0,0c0-3.76,3.08-6.85,6.85-6.85h58.18 c3.76,0,6.85,3.08,6.85,6.85l0,0c0,3.77-3.08,6.85-6.85,6.85H67.51v9.99c0,0.41-0.03,0.82-0.07,1.21l5.48,7.23h6.67 c3.32,0,6.04,2.72,6.04,6.04l0,0c0,3.32-2.72,5.97-6.04,6.04c-4.57,0.1-6.25,2.06-6.04,4.34C73.91,52.73,76.83,53.01,79.22,54.41 L79.22,54.41z M101.34,65.6h4.2v-8.65c0-1.54,1.26-2.79,2.79-2.79h11.76c1.54,0,2.79,1.26,2.79,2.79v53.51 c0,1.54-1.26,2.79-2.79,2.79h-11.76c-1.54,0-2.79-1.26-2.79-2.79v-8.65h-4.2V65.6L101.34,65.6z M21.67,101.81h-4.33v8.65 c0,1.54-1.26,2.79-2.79,2.79H2.79C1.26,113.25,0,112,0,110.46V56.95c0-1.54,1.26-2.79,2.79-2.79h11.76c1.54,0,2.79,1.26,2.79,2.79 v8.65h4.33V101.81L21.67,101.81z"/></g></svg>