<svg xmlns="http://www.w3.org/2000/svg" shape-rendering="geometricPrecision" text-rendering="geometricPrecision" image-rendering="optimizeQuality" fill-rule="evenodd" clip-rule="evenodd" viewBox="0 0 512 358.44"><path fill-rule="nonzero" d="M354.96 139.89c6.72 0 12.18 5.45 12.18 12.17 0 6.73-5.46 12.18-12.18 12.18-6.73 0-12.18-5.45-12.18-12.18 0-6.72 5.45-12.17 12.18-12.17zm14.87 77.56a5.745 5.745 0 0 1-1.44-8c1.81-2.61 5.4-3.25 8.01-1.44 5.84 4.07 11.58 6.08 17.19 6.07 5.63-.01 11.38-2.04 17.22-6.07 2.61-1.8 6.19-1.15 7.98 1.46a5.733 5.733 0 0 1-1.46 7.98c-7.8 5.37-15.71 8.09-23.74 8.1-8.03.01-15.96-2.67-23.76-8.1zm65.06-77.56c6.72 0 12.17 5.45 12.17 12.17 0 6.73-5.45 12.18-12.17 12.18-6.73 0-12.18-5.45-12.18-12.18 0-6.72 5.45-12.17 12.18-12.17zM279.17 358.44c9.77-35.13 22.63-45.77 48.8-67.4 3.96-3.28 8.24-6.82 12.35-10.3.08-.07.17-.13.25-.2.92-1.19 1.55-1.98 2.14-2.74 3.05-3.88 5.58-7.09 7.61-11.37-12.89-6.9-24.89-17.23-35.15-31.22-7.69 1.93-14.21 3.64-19.67 5.06-5.3 1.39-9.64 2.53-12.78 3.28-1.82.43-3.13.84-4.99.11-2.15-.86-3.67-3-3.61-5.47l3.29-127.63c0-.21 0-.42.02-.63.82-8.22 2.68-16.13 5.46-23.77 2.79-7.65 6.48-14.99 10.96-22.04 12.17-19.14 27.33-32.76 45.18-41.47 17.72-8.65 38.01-12.39 60.55-11.83 19.37.47 38.13 5.28 54.82 14.85 15.59 8.94 29.37 22.03 40.12 39.61 3.97 6.49 7.39 13.31 10.28 20.45 2.84 7.02 5.15 14.31 6.96 21.86.15.52.23 1.07.23 1.64l-.01 122.51c0 1.8.19 3.47-.75 5.09-1.92 3.33-7.09 4.14-9.69.44-2.6-3.7-5.97-6.81-9.95-9.4-3.01-1.96-6.4-3.63-10.1-5.06-11.91 19.37-27.49 33.85-44.72 42.96 1.55 4.48 3.7 7.88 6.37 12.09l1.15 1.82c9.07 4.11 17.93 9.35 26.29 17.07 8.67 8 16.74 18.57 23.85 33.17 4.56 9.35 8.01 18.88 10.91 28.52H493.3c-2.54-8.01-5.5-15.86-9.21-23.48-6.44-13.22-13.63-22.69-21.29-29.76-6.38-5.88-13.15-10.16-20.13-13.58a65.03 65.03 0 0 1-15.1 13.72c-10.69 7-23.15 10.62-35.59 10.65-12.47.03-24.92-3.55-35.55-10.93a61.876 61.876 0 0 1-5.91-4.68 71.364 71.364 0 0 1-7.26-7.1c-2.89 2.42-5.49 4.57-7.96 6.62-23.32 19.27-35.25 29.14-44.12 58.54h-12.01zM422.46 253.5c1.31-.59 2.63-1.21 3.97-1.86.17-.08.35-.15.52-.22 19.56-9.78 36.83-27.81 47.71-52.62 3.82-8.72 5.58-16.68 6.31-24.56 2.28-24.34.18-46.22.18-71.49-19.99 3.08-28.32-10.3-32-30.24-40.85 37.24-88.43 45.45-141.75 28.98 0 25.01-1.99 45.37-.03 69.56.59 7.31 2.03 14.7 5.15 22.89 23.09 60.49 70.44 76.51 109.94 59.56zm-61.64 17.74c-2.44 5.22-5.43 9.04-9.04 13.63a50.92 50.92 0 0 0 6.8 7.29c.43.35.87.7 1.31 1.04 9.43 7.29 20.49 11.06 31.55 11.23 11.04.16 22.13-3.27 31.64-10.37 3.74-2.8 7.24-6.14 10.37-10.05l-.02-.03c-2.95-4.66-5.37-8.49-7.2-13.38-21.21 8.26-44.16 8.75-65.41.64zm-123.15 87.2c-1.08-4.22-2.34-7.98-3.77-11.35-8.17-19.25-28.53-28.02-48.51-36.63-3.38-1.46-6.75-2.91-10.29-4.52-.45.57-.91 1.13-1.38 1.68-2.74 3.36-5.96 6.35-9.54 8.94-9.93 7.19-22.75 11.32-35.96 11.97-13.16.64-26.79-2.16-38.42-8.83-5.78-3.32-11.07-7.58-15.58-12.85-3.19 1.53-6.5 3.03-9.87 4.57-19.2 8.76-40.85 18.63-48.77 35.11-1.74 3.63-3.13 7.6-4.17 11.91H0c.1-.5.21-1 .33-1.5 1.24-5.46 2.98-10.54 5.22-15.21 9.68-20.13 33.27-30.89 54.18-40.43 4.64-2.11 9.16-4.17 13.2-6.19 2.76-3.62 5.02-7.53 6.78-11.72 1.5-3.58 2.63-7.36 3.37-11.33a80.802 80.802 0 0 1-12.11-8.88c-15.69-13.92-26.66-25.28-33.72-38.41-7.17-13.34-10.18-28.14-9.79-48.7l1.13-64.9c.01-.64.13-1.25.33-1.81l-13.86-4.37c-2.01-43.88 23.4-70.14 54.85-82.75 11.46-4.6-7.73-29.69 18.63-20.06 35.21 12.87 113.36 30.45 131.85 52.56 15.03 17.96 15.63 27.72 15.29 51.16-.1 7.6-1.3 14.29-4.81 16.78-1.6 1.13-3.56 1.6-5.81 1.41v56.29c0 28.22-10.08 51.78-25.57 69.23a101.747 101.747 0 0 1-30.47 23.41c.67 3.63 1.61 7.09 2.8 10.39 1.42 3.94 3.24 7.69 5.44 11.27 3.81 1.77 8.16 3.65 12.53 5.53 22.01 9.48 44.42 19.14 54.36 42.56 1.94 4.59 3.61 9.78 4.95 15.67h-11.43zm-133.74-77.67a81.5 81.5 0 0 1-10.54-3.53c-.85 3.62-1.98 7.12-3.39 10.47-1.77 4.23-4.01 8.25-6.7 12.07 2.97 3.29 6.33 6.11 9.98 8.46 9.84 6.35 21.7 9.35 33.36 9.06 11.59-.28 22.93-3.83 31.8-10.53 2.36-1.79 4.53-3.8 6.49-6.03.59-.71 1.14-1.44 1.67-2.19-2.05-3.6-3.8-7.39-5.25-11.39a76.96 76.96 0 0 1-2.73-9.43c-11.35 4.06-22.83 6.08-34.09 5.91-6.99-.1-13.88-1.05-20.6-2.87zm-11.7-16.49c3.68 1.94 7.45 3.53 11.29 4.78l.16.04c7.1 2.2 14.5 3.26 21.97 3.26 11.94 0 24.04-2.71 35.28-7.83a90.55 90.55 0 0 0 30.23-22.28c13.77-15.53 22.73-36.57 22.73-61.87v-56.93h.02c-.13-3.55-.64-6.82-1.6-9.77-.93-2.84-2.26-5.35-4.08-7.48-6.83-8.02-13.32-7.69-22.56-7.22-.83.04-1.65.08-2.84.13-36.58 1.61-60.56 1.57-79.99-.13-17.93-1.56-32.01-4.5-48.39-8.83A82.054 82.054 0 0 1 49 100.78a88.09 88.09 0 0 1-9.33 12.66l-1.09 62.8c-.35 18.53 2.25 31.68 8.48 43.25 6.33 11.77 16.55 22.3 31.27 35.36 3.89 3.44 8.05 6.36 12.4 8.76.54.15 1.04.38 1.5.67zm8.98-34a5.57 5.57 0 0 1-1.64-7.7c1.67-2.58 5.12-3.31 7.7-1.64 6.35 4.13 12.43 6.36 18.23 6.44 5.6.07 11.16-1.91 16.66-6.17a5.572 5.572 0 0 1 7.82.98 5.584 5.584 0 0 1-.98 7.83c-7.56 5.87-15.45 8.59-23.63 8.48-8.01-.11-16.06-2.95-24.16-8.22zm-20.79-69.82c6.65 0 12.04 5.39 12.04 12.03 0 6.65-5.39 12.04-12.04 12.04-6.64 0-12.03-5.39-12.03-12.04 0-6.64 5.39-12.03 12.03-12.03zm90.8 0c6.65 0 12.04 5.39 12.04 12.03 0 6.65-5.39 12.04-12.04 12.04-6.65 0-12.03-5.39-12.03-12.04 0-6.64 5.38-12.03 12.03-12.03z"/></svg>