<svg xmlns="http://www.w3.org/2000/svg" shape-rendering="geometricPrecision" text-rendering="geometricPrecision" image-rendering="optimizeQuality" fill-rule="evenodd" clip-rule="evenodd" viewBox="0 0 512 411.6"><path d="M232.08 188.57c23.36 1.48 46.28 1.83 69.31 3.1 26.39 1.42 26.22 4.84 42.06 23.52l82.35 81.01c6.16 8.63 4.11 18.36-1.41 25.09l56.29-.89c8.06 0 15.39 1.09 21.03 4.55 6.04 3.69 9.87 9.73 10.26 19.34.04.34.04.7 0 1.06l-2.65 22.03c-.39 7.26-3.41 13.55-8.36 18.02-4.49 4.06-10.53 6.58-17.58 6.91v8.7h5.29v10.59h-30.3v-10.59h5.3v-8.76l-64.25-.34v9.1h5.29v10.59h-30.3v-10.59h5.3v-9.21l-2.27-.01c-5.7.28-10.68-1.49-14.75-4.7-4.75-3.75-8.19-9.46-10.03-16.1-1.77-6.37-2.08-13.65-.68-20.84 1.92-9.87 7.07-19.67 16.09-26.86.81-.7 1.85-1.13 3-1.14l22.52-.36-69.48-59.95c-15.72-16.62-12.8-14.37-36.72-10.49-27.19 4.43-58.01 11.95-84.57 5.46-32.51-7.91-35.88-28.43-54.39-52.46a192.736 192.736 0 0 1-28.14-42.57c-3.82-9.72-8.26-17.9-10.38-25.62-3.02-8.9-1-18.86 5.23-25.9 6.35-7.85 11.88-13.5 17.18-16.99 4.86-5.11 12.3-7.47 19.59-5.52l95.69 25.74c10.63 2.84 16.95 13.76 14.11 24.39s-13.76 16.94-24.39 14.1l-28.47-7.66c9.08 13.46 16.81 28.22 23.23 44.25zm18.35 210h6.51v-14.98l-79.05-.26v15.24h6.51v13.03h-37.27v-13.03h6.51v-15.32l-21.58-.07c-5.95.29-11.01-2.66-15.07-7.81-.31-.39-.61-.79-.9-1.2a49.479 49.479 0 0 1-5.54 2.79l-.65.29c-2.45.87-5.15-.41-6.03-2.86L16.26 129.61c-3.12-1.13-5.52-3.6-7.35-7.08l-.05-.09C.23 104.99-1.94 90.56 1.68 78.56c3.68-12.21 13.16-21.54 27.79-28.65a4.713 4.713 0 0 1 6.29 2.19c7.1 15.26 16.01 30.39 23.39 45.62 1.6 3.35 2.33 6.57 1.87 9.62-.15 1.01-.43 1.97-.82 2.89a4.68 4.68 0 0 1 3.83 1.73c5.79 7.15 12.5 15.1 19.42 23.31 23.19 27.5 48.92 58.03 62.86 85.95 2.2 4.4 6.37 13.7 9.29 22.18 2.05 5.93 3.51 11.63 3.38 15.41l-.03.91c-.06 2.78-.22 9.93-1.09 19.44l138.83-20.49c1.51-.21 3.03-.35 4.55-.39h.03c6.65-.21 12.78 1.25 17.59 4.61 4.99 3.49 8.44 8.88 9.47 16.36.15 1.1.25 2.28.29 3.54.16 24.54-1.94 50.89-2.64 75.65-.31 7.4-3.35 13.81-8.37 18.34-4.86 4.4-11.53 6.98-19.33 6.95l-17.09-.06v14.9h6.51v13.03h-37.27v-13.03zM96.79.09c-20.54 1.22-38.22 16.12-42.42 36.9-5.03 24.95 11.11 49.27 36.06 54.31 24.96 5.04 49.28-11.11 54.32-36.06.29-1.42.51-2.88.66-4.31 2.45-23.65-13.48-45.3-36.79-50.01-3.87-.78-7.37-1.09-11.83-.83z"/></svg>