<svg xmlns="http://www.w3.org/2000/svg" shape-rendering="geometricPrecision" text-rendering="geometricPrecision" image-rendering="optimizeQuality" fill-rule="evenodd" clip-rule="evenodd" viewBox="0 0 512 487.41"><path fill-rule="nonzero" d="M92.12 243.7c-2.78 5.8-9.76 8.25-15.56 5.47-5.81-2.78-8.25-9.72-5.48-15.56 6.15-12.88 13.72-24.95 22.47-36.06a193.433 193.433 0 0 1 29.82-30.24c5.01-4.08 12.37-3.32 16.41 1.68 4.08 5.01 3.32 12.37-1.68 16.4-9.72 7.92-18.56 16.83-26.25 26.59-7.7 9.8-14.31 20.41-19.73 31.72zm19.58 136.78c-3.4-2.98-6.97-6.17-8.76-8.33l-.1.07c-4.17 2.85-9.33 4.76-16.38 4.74-7.12-.01-13-2.16-18.31-6.6-2.05 2.53-6.49 6.3-10.47 9.67l-.86.72c-.63 22.61 48.29 29.45 54.88-.27zm-5.88-10.59c1.68 2.04 5.7 5.57 9.28 8.7l3.26 2.88c23.77 9.22 47.81 18.53 50.56 47.44.84 8.95.76 8.56-7.83 8.73-45.32.9-108.43-.75-152.78 0-8.06.13-8.89.71-8.05-10.76 6.22-29.45 23.7-35.06 49.99-45.28 1.39-1.26 3.18-2.77 5.07-4.37 4.23-3.58 9.03-7.65 10.19-9.3-1.53-1.54-2.94-3.14-4.31-4.74l-5.85-6.79-3.72.1-8.08.21c-6.94-7.98-6.5-25.12-5.84-35.02 3.24-19.89 10.93-34.22 23.45-42.5 8.49-5.61 13.55-5.92 23.47-5.93 8.65-.01 13.96-.19 21.34 4.67 24.05 15.84 31.5 53.22 19.75 78.39h-7.87l-5.08 6.07c-2.16 2.6-4.35 5.21-6.95 7.5zm-48.5-16.86c.44.13.81.35 1.07.65l6.67 7.74c6.1 7.08 11.42 12.2 21.4 12.21 10.83.02 15.97-5.22 22.41-12.96l5.87-7.03c.25-.29.59-.51.98-.64.53-1.81.95-3.7 1.24-5.68 1.03-6.93 1.07-12.32-2.06-18.71-2.7-5.52-6.5-8.38-10.64-10.42 4.47 4.99 8.17 9.84 7.19 13.81-5.46-6-11.09-11.23-16.92-15.57-12.19-6.3-19.36-14.83-22.56-25.16-17.98 17.96-21.2 38.94-14.65 61.76zm388.17 6.02c10.45-11.55 13.24-19.34 11.85-34.92-.22-2.49-.59-5.02-1.1-7.58-8.53-3.95-14.1-12.64-16.96-25.68-3.41 24.83-33.91 23.77-41.58 28.29 0 2.09-.06 4.07-.11 5.96-.34 12.79.6 19.59 7.04 29.8 1.08 1.71 2.13 3.36 3.4 4.73 10.25 11.05 27.77 9.66 37.46-.6zm-83.02 13.75c6.91-.55 11.66-4.44 14.87-10.06 3.28-5.69 5.01-13.18 5.89-20.8.44-3.95.72-8.18.99-12.48 1.35-21.02 2.82-43.72 26.71-53.37a40.82 40.82 0 0 1 11.3-2.77c8.25-.81 16.68.9 23.94 5.05 7.27 4.17 13.41 10.8 17.06 19.83 1.68 4.15 2.84 8.82 3.34 13.99v.06c-.06 12.69 1.97 30.53 7.48 43.59 3.96 9.39 9.73 16.31 17.78 16.96.33.02.58.32.56.65l-.06.23c-1.56 4.18-8.42 7.41-16.63 8.98 12.28 2.99 20.79 6.59 26.56 12.94 7.09 7.82 9.74 19.45 9.74 38.79 0 1.28-1.04 2.31-2.31 2.31H344.61c-1.28 0-2.32-1.03-2.32-2.31 0-18.83 2.51-30.47 9.2-38.35 5.45-6.42 13.49-10.13 25.04-12.99-7.19-1.78-13.09-5.22-14.58-9.44-.11-.31.05-.66.36-.77l.16-.04zm94.46 10.38c-1.13-.17-2.22-.38-3.28-.64-3.25-.79-6.12-2.01-8.27-3.69-3.27-2.57-4.89-6.19-3.8-11.04-9.81 6.12-20.1 6.11-29.85-.18l-.66-.37c-.05 2.89-1.87 11.38-4.66 13.08-4.51 2.74-11.77 3.93-17.08 4.79-1.27.21-2.42.39-3.45.6-1.69.33-3.31.67-4.87 1.01 15.04 14.62 30.19 22.79 45.43 23.25 15.28.46 30.9-6.84 46.9-23.16-2.33-.55-4.8-1.07-7.41-1.6l-.38-.08c-2.23-.44-5.37-1.06-8.62-1.97zM210.43 29.04c21.29-26.32 45.83-40.63 64.26-17.22 22.21 1.17 31.11 36.45 13.4 51.3l-.1.88c.69-.22 1.39-.35 2.05-.4 1.31-.1 2.56.11 3.63.68 1.16.62 2.06 1.63 2.52 3.05.44 1.38.45 3.13-.12 5.28-.83 2.57-1.84 5.47-2.82 7.98-.43 1.2-.84 2.07-1.71 2.76l-.05.03c-.9.71-2.02.97-3.7.88l-.77-.09c-.16 8.02-3.78 12.09-8.68 16.76 4.65 16.21 17.49 18.69 30.09 21.13 16.94 3.27 32.9 28.51 32.9 41.7v7.4c0 1.25-1.02 2.26-2.27 2.26H172.28c-1.25 0-2.26-1.01-2.26-2.26v-6.69c0-16.85 18.28-38.95 36.08-41.34 13.08-1.75 26.27-3.52 30.82-19.58l-1.2-1.04c-5.49-4.73-10.09-8.69-10.96-18.31l-.48.01a6.555 6.555 0 0 1-3.23-.85c-1.64-.92-2.78-2.52-3.55-4.31-.92-2.13-1.34-4.62-1.43-6.48V69.3l.17-2.8.14-.54c1.15-3.19 2.92-4.22 5.24-4.15l-1.54-1.02c-.83-10.37 1.6-28.35-9.65-31.75zm64.63 74.99-.27.25-1.14 1.06c-.92.93-1.97 1.75-3.13 2.46-4.46 3.09-9.16 4.6-13.9 4.6-5.48.01-10.97-2-16.18-5.91-1.92 7.72-6.86 13.87-14.01 17.35 20.71 12.63 41.13 12.26 61.22-2.65-7.62-3.45-11.57-10.07-12.59-17.16zM225.37 67c-2.51-.87-4.29-1.28-4.97.28l-.11 2.12v2.95c.07 1.48.39 3.42 1.08 5.03.44 1.02 1.03 1.9 1.76 2.32.36.2.77.29 1.2.3.52 0 1.11-.11 1.73-.28l.62-.12c1.16-.02 2.14.9 2.16 2.06.23 9.56 4.48 13.22 9.63 17.65l2.16 1.88c5.17 4.6 10.63 6.99 15.99 6.99 5.19.01 10.4-2.26 15.24-6.94l2.2-2.08c5.41-5.08 9.4-8.84 8.63-17.97-.02-.45.08-.92.35-1.32.63-.97 1.95-1.24 2.92-.61l1.12.59.89.19.95.01c1.15-2.78 2.08-5.75 3.08-8.59.34-1.28.37-2.22.18-2.82-.11-.31-.28-.53-.5-.64-.31-.16-.78-.23-1.32-.18-1.18.09-2.56.66-3.79 1.59-.45.33-1.03.49-1.62.39-1.15-.19-1.92-1.29-1.73-2.44 1.99-11.61 1.08-19.19-1.39-24.34-2.17-4.52-5.63-7.27-9.38-9.31-8.3 6.37-14.17 7.1-20.01 7.82-4.83.6-9.67 1.2-16.05 5.62-3.03 2.09-5.06 4.65-6.09 7.6-1.05 3-1.11 6.52-.23 10.51.07.39.05.8-.09 1.19a2.116 2.116 0 0 1-2.71 1.25l-1.9-.7zm150.26 120.42c-4.92-4.13-5.55-11.49-1.43-16.41 4.13-4.92 11.49-5.55 16.41-1.43 11.33 9.51 21.55 20.24 30.37 32.14 5.81 7.82 11.11 16.15 15.78 24.94 2.98 5.73.8 12.79-4.88 15.78-5.73 2.99-12.79.8-15.78-4.88a161.56 161.56 0 0 0-13.84-21.84c-7.98-10.66-16.59-19.7-26.63-28.3zm-66.21 267.9c6.1-2.06 12.71 1.26 14.77 7.36 2.06 6.1-1.26 12.7-7.36 14.76a185.43 185.43 0 0 1-30.12 7.45 191.437 191.437 0 0 1-31.04 2.52c-10.65 0-21.21-.88-31.6-2.6-10.64-1.77-20.9-4.38-30.71-7.74-6.09-2.11-9.37-8.76-7.27-14.86 2.1-6.1 8.75-9.38 14.85-7.27 8.75 2.98 17.75 5.3 26.84 6.81 8.96 1.48 18.26 2.27 27.85 2.27 9.42 0 18.55-.75 27.3-2.18 9.12-1.44 17.96-3.67 26.49-6.52z"/></svg>