<svg id="Layer_1" data-name="Layer 1" xmlns="http://www.w3.org/2000/svg" viewBox="0 0 93.56 122.88"><defs><style>.cls-1{fill-rule:evenodd;}</style></defs><title>depressed</title><path class="cls-1" d="M5.53,90.79H40.91a5.55,5.55,0,0,1,5.53,5.53v21a5.55,5.55,0,0,1-5.53,5.53H5.53A5.55,5.55,0,0,1,0,117.35v-21a5.54,5.54,0,0,1,5.53-5.53ZM91.29,16.24a1.54,1.54,0,1,1,1.47,2.7l-2.58,1.4,1.39,1A1.53,1.53,0,0,1,92,23.46a1.59,1.59,0,0,1-.8.59l-5.8,2.17a1.54,1.54,0,0,1-1.08-2.88l3.15-1.18-1-.69a1.65,1.65,0,0,1-.52-.56,1.54,1.54,0,0,1,.62-2.09l4.76-2.58ZM84,.36a1.54,1.54,0,1,1,2,2.36L81.28,6.61,84.5,8.07a1.53,1.53,0,0,1,.77,2,1.6,1.6,0,0,1-.69.74l-8,4.84A1.53,1.53,0,1,1,75,13.06l5.58-3.39-2.8-1.26A1.72,1.72,0,0,1,77.23,8a1.54,1.54,0,0,1,.19-2.17L84,.36ZM27.69,14.28a1.54,1.54,0,0,1,2.52-1.77l3,4.31a1.53,1.53,0,0,1-1,2.41L31,19.42l2.29,2.46A1.53,1.53,0,1,1,31,24l-4.2-4.48a1.54,1.54,0,0,1,.81-2.67l1.67-.26-1.6-2.28ZM38,3.2A1.53,1.53,0,1,1,40.84,2l3.33,7.56a1.53,1.53,0,0,1-.8,2,1.36,1.36,0,0,1-.71.13l-3-.11,3.49,5.51a1.54,1.54,0,1,1-2.6,1.65l-5.05-8a1.58,1.58,0,0,1-.24-.88A1.54,1.54,0,0,1,36.82,8.4l3.55.12L38,3.2ZM60,8.26A14.54,14.54,0,0,1,70.25,33.13a3.68,3.68,0,0,1,.47,0,6,6,0,0,1,6,7.35l-2.56,7.88-3.48,8.25c-2,5.78-4.44,12-12,8.18a15.54,15.54,0,0,1-4-3l-4.73-4.9L42.25,69a6.58,6.58,0,0,0-1,2.75H55.61a7.06,7.06,0,0,1,7,7c1.27,12.67,4.29,21.72,5.77,34.54,0,7.74-13.49,10.94-14.7,2.29-.61-4.39-1.3-8.75-2.15-13.09-.64-3.34-1.39-6.67-2.26-10-1.54-5.88.4-4.94-5.45-4.94-5.13.4-10.21.68-15.26.6-6.13-.1-13.2.18-17.62-4.78-4.61-5.18-3-9.68-.12-14.89l18-32.72a10.79,10.79,0,0,1,14.81-3.49l4.52,2.8c4.66,2.88,5.66,5.69,5.69,8.61L60,50l5.12-12.33a6.24,6.24,0,0,1,.59-1.51A14.54,14.54,0,1,1,60,8.26Z"/></svg>