<svg id="Layer_1" data-name="Layer 1" xmlns="http://www.w3.org/2000/svg" viewBox="0 0 122.88 89.13"><defs><style>.cls-1{fill-rule:evenodd;}</style></defs><title>dispute</title><path class="cls-1" d="M107.25,75.93c-1.54-3.1-2.07-4.29-4.34-6.75,4.28,1.65,7.93,1.86,11.17,3.9,2.06,1.29,5.12,2.26,6,3.83,2,3.85,1.75,8.13,2.85,12.22H78.46c.05-9.89-1.36-14.69-4.22-17.56,2.39-.81,5-1.27,7.91-2.39-2.28,2.46-2.8,3.65-4.34,6.75l4.46-.11,10,8,10.51-8,4.46.11ZM0,89.13c1.47-19,5.06-11.91,21.3-22.08,4.49,11.65,26,12.42,30.74,0,14,9,21,2.2,20.93,22.08Zm59.93-71,8.15.58L62.74,1.51,53.63,0,58.5,10.75l-9.44-.51L62.71,33.52,59.93,18.14Zm20.2,3.35-7.9-2.09L82.83,4.83l9.11,1.51L83.86,15,93,17.51,72.55,35.15l7.58-13.66ZM26.37,66.14a6.74,6.74,0,0,1,.71-2.5,10.26,10.26,0,0,1-4-7.46h-.22a2.92,2.92,0,0,1-1.46-.38,4,4,0,0,1-1.6-1.94c-.74-1.7-1.32-6.17.54-7.45L20,46.18l0-.49c-.07-.9-.09-2-.11-3.13-.06-4.2-.15-9.28-3.53-10.3l-1.44-.44,1-1.18a55.08,55.08,0,0,1,8.45-8.58A21.58,21.58,0,0,1,34,17.3,11.76,11.76,0,0,1,43.56,20a18.29,18.29,0,0,1,2.56,2.57A10.82,10.82,0,0,1,53.74,27a15.76,15.76,0,0,1,2.48,5,17.28,17.28,0,0,1,.66,5.68,13.65,13.65,0,0,1-4,9.2,2.84,2.84,0,0,1,1.23.32c1.41.75,1.45,2.39,1.08,3.76-.36,1.14-.83,2.47-1.26,3.59-.54,1.51-1.32,1.79-2.82,1.63-.08,3.73-1.8,5.56-4.12,7.75l.52,1.83c-1.46,7.1-17,7.87-21.19.39Zm58.87-1.28v2.69L83.16,72l9.36,7.27,9.38-7.34L99,67.29V64.78a52.75,52.75,0,0,0,8.34-.92,11.39,11.39,0,0,0,5.29-2.54,7.7,7.7,0,0,1-4-4.69c-1.68-4.91-.09-9.58-.84-14.92-1-7.15-5.68-9.55-10.32-9.05C91.59,27.79,81,30.64,78.1,39c-1.45,4.19-.57,7.4-.73,11.65-.2,5.72-1.7,9-4.93,10.21a10.31,10.31,0,0,0,4.83,3,35.92,35.92,0,0,0,8,1Z"/></svg>