<svg id="Layer_1" data-name="Layer 1" xmlns="http://www.w3.org/2000/svg" viewBox="0 0 117.32 122.88"><defs><style>.cls-1{fill-rule:evenodd;}</style></defs><title>dr</title><path class="cls-1" d="M69.88,67.51a17.41,17.41,0,0,1-8.55,2.73c-3.81.81-7.73.05-11.77-2.31l-.31-.15h0a30.17,30.17,0,0,1-3.55-2.51.44.44,0,0,0,0,.3c.7,2.77,9.39,17.79,11.38,21.51L69.88,67.51Zm.42-2.2h.15l.06-.19-.21.19Zm15.44,13c0,.42,0,.85,0,1.29,0,.7,0,1.29-.06,1.56a8.11,8.11,0,1,0,4.22.09h0a4.91,4.91,0,0,1,0-1.56q0-.73,0-1.44c-1.39.08-2.8.1-4.18,0Zm8.93-.58c7.18,2,12.32,4.36,15.91,8.32,4.91,5.4,6.74,21.81,6.74,35.18a1.6,1.6,0,0,1-1.6,1.6H1.6a1.6,1.6,0,0,1-1.6-1.6c0-13,1.74-29.43,6.36-34.87,3.35-4,8.12-6.42,14.75-8.31-5.32-1.2-9.69-3.64-10.78-6.69C21,70.54,25,59.44,26.26,47.93c2-17.62-.78-37.17,20.43-45.74,16.85-6.81,38.63,2.35,41,26.62-.1,16.49,4.54,41.4,19.29,42.6-1.08,3.06-6.2,5.34-12.31,6.37Zm-61.12.72a29.22,29.22,0,0,0-.63,4.42c-1.07.78-3.72,1.7-4.57,2.71a39.39,39.39,0,0,0-3.94,5.65,2.14,2.14,0,0,0-.28,1c0,.28.3.57.17.83l-.19.37c-2.65,5.16-4.38,10.85-3.56,13.3a3.72,3.72,0,0,0,2.67,2.35,13,13,0,0,0,3.22.41c.32,0,.65,0,1,0a3.71,3.71,0,0,0,.52.39,3.87,3.87,0,0,0,.68.33,2.75,2.75,0,0,0,.94.18,2.56,2.56,0,0,0,2.56-2.57,2.75,2.75,0,0,0-2.66-2.71c-.94,0-2.29.47-2.29,1.41v0l0,.06c-.22,0-.44,0-.66,0a9.51,9.51,0,0,1-2.38-.28c-.46-.12-.72-.3-.78-.49-.6-1.72,1-6.48,3.36-11.07.09-.19.19-.37.29-.56a2.1,2.1,0,0,0,1.07-.9,33.38,33.38,0,0,1,3.48-5A7.3,7.3,0,0,1,35,86.6h.22a12,12,0,0,1,1.76,1.59,30.91,30.91,0,0,1,3.67,5.13c.24.42.81.5,1.06.91,2.7,4.37,4.22,9.39,3.86,11.3-.08.45-.45.72-1,.9a11.48,11.48,0,0,1-2.68.38c0-.07-.07-.13-.1-.2v0c0-.94-1.35-1.38-2.29-1.41a2.75,2.75,0,0,0-2.66,2.71,2.56,2.56,0,0,0,2.56,2.57,2.65,2.65,0,0,0,.93-.18,3.29,3.29,0,0,0,.68-.33,4,4,0,0,0,.37-.25h.36a12.45,12.45,0,0,0,3.75-.52,4,4,0,0,0,3-3.12c.45-2.49-1.36-8-4-13a2.09,2.09,0,0,0-.12-1.89A36.86,36.86,0,0,0,40,85.37c-.84-1-2.71-1.23-2.91-2.5a11,11,0,0,1,.68-5.56,22.07,22.07,0,0,1-4.26,1.19ZM71.68,60.71A43,43,0,0,0,79.49,49c1.28-6.06,1.35-9.3,0-16-6.18-2.87-10.23-9.17-12.3-18.64C64.7,32.38,42.57,31.61,37,34.89c0,8.19-1.08,10.79,2.53,18.27h0A47.39,47.39,0,0,0,42,57.71a23.6,23.6,0,0,0,2.47,3.44c7.43,8,20.15,7,27.18-.44ZM87.59,84.4a4.69,4.69,0,1,1-4.69,4.69,4.69,4.69,0,0,1,4.69-4.69Zm-1.26,19.49h3.12a1.05,1.05,0,0,1,1,1.06v3.6h3.6a1.05,1.05,0,0,1,1.06,1v3.12h0a1.05,1.05,0,0,1-1.06,1.06H90.5v3.6h0a1.06,1.06,0,0,1-1,1.06H86.33a1.06,1.06,0,0,1-1.06-1.06v-3.6h-3.6a1.06,1.06,0,0,1-1.06-1.06V109.6a1.07,1.07,0,0,1,1.06-1.06h3.6V105a1.06,1.06,0,0,1,1.06-1.06Z"/></svg>