<svg xmlns="http://www.w3.org/2000/svg" shape-rendering="geometricPrecision" text-rendering="geometricPrecision" image-rendering="optimizeQuality" fill-rule="evenodd" clip-rule="evenodd" viewBox="0 0 512 438.84"><path d="M154.1 141.19c-3.95-1.3-7.65-3.28-11.07-5.98-.47.39-.91.95-1.31 1.65-1.55 2.72-2.35 6.83-2.3 11.58.15 12.34 6.23 27.88 20.32 35.13l.19.11a6.256 6.256 0 0 1 7.05 5.34c2.37 16.81 6.91 32.58 14.71 45.02 7.52 11.98 18.17 20.95 33.04 24.81.79.21 1.51.55 2.13 1.01 6.37 4.69 12.72 8.18 19.04 10.5 6.21 2.27 12.38 3.42 18.48 3.49 6.52.06 13.09-1.09 19.69-3.4 6.68-2.35 13.45-5.93 20.29-10.7.97-.67 2.08-1.04 3.19-1.1 13.37-1.04 23.72-9.22 31.72-20.47 8.54-11.99 14.47-27.51 18.61-42.02a6.218 6.218 0 0 1 2.93-3.73c.45-.36.95-.67 1.5-.9l2.03-.93 1.93-1.02c13.56-7.69 19.17-23.16 19.01-35.24-.06-4.48-.93-8.33-2.46-10.88-.84-1.38-1.86-2.2-2.95-2.1-3.49.29-8.54 4.42-15.14 14.33a6.423 6.423 0 0 1-3.97 2.71c-3.45.77-6.87-1.42-7.64-4.87-4.65-21.06-2.03-34.7.47-47.78 1.96-10.24 3.85-20.12 1.43-33.07-1.5-8.04-3.39-15.4-6.35-21.87-2.83-6.17-6.71-11.63-12.31-16.28-17.39-14.42-43.32-21.58-69.46-21.71-26.53-.14-53.08 6.96-70.97 21.05-3.33 2.63-5.96 5.67-8.17 8.95-2.36 3.49-4.3 7.27-6.13 11.14-7.58 16-5.4 27.79-2.7 42.32 2.43 13.08 5.23 28.18 2.78 49.86a6.417 6.417 0 0 1-2.82 4.62A6.408 6.408 0 0 1 160 149c-2.13-3.17-4.09-5.76-5.9-7.81zm180.83 151.74c-7.48-7.6-13.75-18.12-19.32-26.34a48.135 48.135 0 0 1-15.47 4.39c-7.25 4.9-14.57 8.68-21.96 11.27-7.93 2.78-15.91 4.17-23.9 4.08-7.61-.07-15.18-1.47-22.69-4.22-7.08-2.6-14.15-6.42-21.18-11.49-7.52-2.09-14.13-5.23-19.93-9.25-4.21 9.63-11.98 27.27-13.73 29.88 28.63 41.54 127.73 44.01 158.18 1.68zm-8.24-33.48c4.41 6.44 8.85 12.9 14.14 18.89l.02-.01c28.36 25.52 90.84 30.63 122.07 48.06 9.88 5.5 18.81 12.51 25.98 21.99 17.96 23.72 18.74 48.77 22.35 77.37.47 1.96.75 3.94.75 5.94 0 3.95-3.21 7.15-7.14 7.15H7.15c-3.94 0-7.15-3.2-7.15-7.15 0-2.03.29-4.04.78-6.03 3.6-28.55 4.38-53.59 22.33-77.28 7.18-9.48 16.1-16.49 25.98-21.99 30.25-16.88 88.47-22.21 119.25-45.7 1.9-3.28 3.9-7.4 5.82-11.79 2.34-5.34 4.54-11 6.39-16.01-3.53-3.68-6.66-7.77-9.43-12.18-8.08-12.87-13.01-28.54-15.79-45.18a6.4 6.4 0 0 1-1.47-.55c-18.91-9.73-27.05-30.2-27.25-46.39-.08-7 1.31-13.4 3.96-18.06 1.01-1.78 2.18-3.34 3.52-4.62-50.88-59.11-9.83-111.64 42.1-100.65.58-.5 1.18-1 1.8-1.49C198.18 7.86 227.69-.15 256.95 0c28.93.15 57.87 8.27 77.6 24.64.71.59 1.41 1.2 2.08 1.81 52.21-13.14 95.65 39.3 44.18 101.06-.85 1.16-1.72 2.25-2.62 3.28 2.21 1.43 4.09 3.49 5.63 6.03 2.68 4.45 4.18 10.59 4.27 17.37.22 15.86-7.31 36.24-25.49 46.55-.84.48-1.71.94-2.58 1.37l-.96.46c-4.42 14.75-10.68 30.32-19.6 42.86-3.77 5.3-8.01 10.07-12.77 14.02zm-52.83-155.6c21.44-14.27 40.86-10.43 58.72 7.51 3.47 3.39 1.05 8.57-4.43 6.55-16.76-11.03-33.63-13.41-50.63-5.78-5.65 1.21-7.91-4.83-3.66-8.28zm-33.01 0c-21.45-14.27-40.87-10.43-58.72 7.51-3.48 3.39-1.05 8.57 4.42 6.55 16.76-11.03 33.63-13.41 50.64-5.78 5.64 1.21 7.9-4.83 3.66-8.28zm-43.99 22.74c-1.54.52-3.2-.29-3.73-1.79-.52-1.5.29-3.14 1.82-3.65 5.92-2 11.86-2.92 17.81-2.88 5.91.03 11.82 1.03 17.7 2.86 1.54.48 2.39 2.1 1.91 3.61-.49 1.5-2.13 2.34-3.67 1.86-1.95-.61-3.91-1.12-5.86-1.52.2.61.3 1.25.3 1.91 0 3.92-3.67 7.09-8.21 7.09-4.54 0-8.21-3.17-8.21-7.09 0-.97.22-1.88.62-2.72-3.48.37-6.98 1.14-10.48 2.32zm91.16-2.18c-.34.78-.59.11-.59 2.52 0 2.4 3.67 7.09 8.21 7.09 4.54 0 8.21-3.18 8.21-7.09 0-1.13-.3-2.19-.84-3.14 3.59.34 7.2 1.02 10.85 2.05 1.55.43 3.18-.45 3.62-1.98.44-1.53-.46-3.12-2.02-3.55-5.93-1.68-11.85-2.5-17.75-2.5-5.9.01-11.74.85-17.54 2.51-1.55.44-2.44 2.03-2 3.55.45 1.52 2.08 2.4 3.62 1.96a60.73 60.73 0 0 1 6.23-1.42zM250.89 242.1a4.29 4.29 0 0 1-4.29-4.29 4.29 4.29 0 0 1 4.29-4.29h12.93a4.29 4.29 0 0 1 4.29 4.29 4.29 4.29 0 0 1-4.29 4.29h-12.93zm-12.69-18.71a4.286 4.286 0 0 1-2.92-5.3 4.28 4.28 0 0 1 5.3-2.91c11.18 3.27 22.34 3.56 33.45.03a4.28 4.28 0 0 1 5.36 2.78c.71 2.25-.54 4.65-2.78 5.36-12.84 4.08-25.65 3.77-38.41.04zm-.72-27.13a4.281 4.281 0 0 1-1.93-5.74c1.05-2.12 3.63-2.98 5.75-1.93 5.62 2.81 11.09 4.19 16.39 4.18 5.26-.02 10.48-1.41 15.63-4.13a4.28 4.28 0 0 1 5.78 1.79c1.1 2.09.3 4.68-1.79 5.78-6.37 3.37-12.92 5.09-19.62 5.1-6.67.02-13.41-1.65-20.21-5.05z"/></svg>