<svg id="Layer_1" data-name="Layer 1" xmlns="http://www.w3.org/2000/svg" viewBox="0 0 122.88 71.41"><defs><style>.cls-1{fill-rule:evenodd;}</style></defs><title>elderly</title><path class="cls-1" d="M38.31,56.51a1.38,1.38,0,1,1-1.37,1.37,1.37,1.37,0,0,1,1.37-1.37Zm41-33.18A23.36,23.36,0,0,0,89.14,20a10.74,10.74,0,0,0,5-6.71.92.92,0,0,1,1.09-.72.94.94,0,0,1,.69.6h0a18,18,0,0,0,4.1,7.13,10.69,10.69,0,0,0,5.91,3,12.93,12.93,0,0,0,.14-2.61,11.42,11.42,0,0,0-.62-3.18,13.26,13.26,0,0,0-5-6.59,13.62,13.62,0,0,0-8-2.4,13.45,13.45,0,0,0-7.36,2.15,12.39,12.39,0,0,0-4.57,5.85,16.32,16.32,0,0,0-1,3.65,21,21,0,0,0-.25,3.14Zm19.35,1.44a1.74,1.74,0,1,1-1.73,1.74,1.73,1.73,0,0,1,1.73-1.74ZM87,24.77a1.74,1.74,0,1,1-1.73,1.74A1.74,1.74,0,0,1,87,24.77ZM75.79,35c.59-.28,1.18-.54,1.78-.79,1-.41,2-.78,3-1.14-.1-.51-.18-1-.24-1.58a5.38,5.38,0,0,1-2.22-2.77,11.89,11.89,0,0,1-.66-4.15,1.46,1.46,0,0,1,0-.22,25,25,0,0,1,.26-4.47,19.36,19.36,0,0,1,1.09-4A14.37,14.37,0,0,1,83.52,9.5a6.41,6.41,0,0,1-.61-2.66A4.25,4.25,0,0,1,84,4a10.61,10.61,0,0,1,6.76-3A15.48,15.48,0,0,1,99.1,2.27c1.69.89,2.8,1.89,3.2,3.21a5,5,0,0,1-.71,4,15.28,15.28,0,0,1,5.63,7.46,13.43,13.43,0,0,1,.73,3.68,14.79,14.79,0,0,1-.26,3.54,1.6,1.6,0,0,1,0,.21,9.57,9.57,0,0,1-.27,4.19,9.94,9.94,0,0,1-2.2,3.79c-.07.29-.15.57-.22.86.71.19,1.43.42,2.16.68l0,0a1,1,0,0,1,.3.05.89.89,0,0,1,.31.19c.68.27,1.36.57,2,.91,4.14,2.05,7.06,4.31,9.12,7.26s3.22,6.52,3.84,11.2v.12h0V69.69a.93.93,0,1,1-1.86,0v-16c-.58-4.34-1.65-7.63-3.5-10.29s-4.57-4.76-8.43-6.66c-.44-.22-.88-.42-1.32-.61-1.81,4.94-3.87,8.57-6.18,11a11.72,11.72,0,0,1-8.45,4.08H93A13.91,13.91,0,0,1,83.75,47a20,20,0,0,1-3.35-4.62c-.18-.44-.36-.87-.56-1.29s-.48-1-.74-1.46c-.45-1.08-.87-2.25-1.25-3.5l-.82.36h0c-.41-.52-.82-1-1.24-1.47Zm6.79-1.4a.86.86,0,0,1,.06.23,9.38,9.38,0,0,0,1.24,2.84,6.11,6.11,0,0,0,3.84,2.62.86.86,0,0,1,.36.17,7.54,7.54,0,0,0,4.52,1.64,8.17,8.17,0,0,0,4.57-1.67.9.9,0,0,1,.51-.16,4.76,4.76,0,0,0,3.44-1.9,13.89,13.89,0,0,0,2.4-5.69,1,1,0,0,1,.23-.43h0a8.15,8.15,0,0,0,2-3.24A7.46,7.46,0,0,0,106,25.2a12.51,12.51,0,0,1-7.23-3.54,17.52,17.52,0,0,1-3.62-5.46,13.63,13.63,0,0,1-5,5.39A25.23,25.23,0,0,1,79.32,25.2a9.26,9.26,0,0,0,.52,2.88,3.45,3.45,0,0,0,1.77,2,.93.93,0,0,1,.52.76h0a18.15,18.15,0,0,0,.45,2.75ZM81,34.89c-.47.16-1,.34-1.44.53,1.42,4.64,3.27,8,5.51,10.28a12.07,12.07,0,0,0,8,3.67,9.9,9.9,0,0,0,7.14-3.5c2.14-2.28,4.07-5.72,5.8-10.44-.52-.18-1-.34-1.56-.47a12.51,12.51,0,0,1-1.94,3.59A6.51,6.51,0,0,1,98,41.1,9.81,9.81,0,0,1,92.61,43a9.24,9.24,0,0,1-5.5-1.89,7.94,7.94,0,0,1-4.77-3.35A10.81,10.81,0,0,1,81,34.89ZM111.63,53a.93.93,0,1,1,1.82-.38,50.16,50.16,0,0,1,1.33,10c0,3-.56,5.41-2,7-2.85,3.14-6.94,1.66-10.18.49l-.84-.29a.91.91,0,0,1-.56-1.18.92.92,0,0,1,1.18-.57l.84.31c2.73,1,6.17,2.22,8.19,0,1.06-1.18,1.49-3.17,1.48-5.72a49.41,49.41,0,0,0-1.3-9.59ZM100,8.51A3.32,3.32,0,0,0,100.54,6c-.24-.78-1-1.45-2.3-2.11a13.6,13.6,0,0,0-7.27-1A8.78,8.78,0,0,0,85.4,5.26a2.49,2.49,0,0,0-.63,1.62,4.17,4.17,0,0,0,.34,1.62A15.76,15.76,0,0,1,92.4,6.69,15.53,15.53,0,0,1,100,8.51ZM88.62,35.63a.92.92,0,0,1-.25-1.29.94.94,0,0,1,1.3-.24,5.58,5.58,0,0,0,3.13,1.14,4.38,4.38,0,0,0,2.78-1.09.92.92,0,1,1,1.16,1.44,6.18,6.18,0,0,1-3.95,1.51,7.35,7.35,0,0,1-4.17-1.47Zm-55.1-3.07a1.14,1.14,0,1,1,1.26-1.9,6.09,6.09,0,0,0,7.26,0,1.12,1.12,0,0,1,1.57.33,1.14,1.14,0,0,1-.33,1.58,8.21,8.21,0,0,1-9.76,0Zm-4-10.18a1.14,1.14,0,0,1-1.14-2,5.8,5.8,0,0,1,3.08-.82,7,7,0,0,1,3,.78,1.14,1.14,0,0,1-1,2.05,4.57,4.57,0,0,0-2-.55,3.71,3.71,0,0,0-1.89.51Zm14.28,0a1.14,1.14,0,1,1-1.14-2,5.74,5.74,0,0,1,3.07-.82,7,7,0,0,1,3,.78,1.14,1.14,0,0,1-1,2.05,4.61,4.61,0,0,0-2-.55,3.69,3.69,0,0,0-1.89.51ZM12.25,57.88a1.14,1.14,0,1,1,2.28,0V70.27a1.14,1.14,0,1,1-2.28,0V57.88Zm49.85,0a1.14,1.14,0,1,1,2.28,0V70.27a1.14,1.14,0,0,1-2.28,0V57.88ZM53.39,27.65c2.89,1.45,5.59,2.93,8.19,4.5s5.28,3.33,7.92,5.2a.87.87,0,0,1,.14.12,17.55,17.55,0,0,1,4.74,6.16,26.78,26.78,0,0,1,2.24,9.72v.06h0V69.55a1.14,1.14,0,0,1-2.28,0V53.41h0a24.36,24.36,0,0,0-2-8.81,15.45,15.45,0,0,0-4.14-5.39c-2.59-1.83-5.14-3.51-7.78-5.1-.69-.41-1.38-.82-2.08-1.22-2.18,9.9-6,17.22-11.52,22a41.59,41.59,0,0,1-8.3-6.76,36.51,36.51,0,0,1-8.26,6.48C24.52,50,20.87,42.45,18.87,32.48c-.85.49-1.69,1-2.52,1.49-2.7,1.66-5.31,3.4-7.91,5.24A15.54,15.54,0,0,0,4.3,44.6a24.36,24.36,0,0,0-2,8.81h0V69.55a1.14,1.14,0,1,1-2.28,0V53.41H0v-.06a26.78,26.78,0,0,1,2.24-9.72A17.44,17.44,0,0,1,7,37.47a.74.74,0,0,1,.13-.12C9.75,35.5,12.4,33.72,15.16,32s5.34-3.14,8.18-4.56l-.05-.67A5.45,5.45,0,0,1,20.84,23a8.18,8.18,0,0,1,.91-5l.05-.08a10.91,10.91,0,0,1-.11-7.81,15.34,15.34,0,0,1,5.72-6.85l.08,0h0a20.85,20.85,0,0,1,11-3.2,22.55,22.55,0,0,1,11,3.18h0A13.27,13.27,0,0,1,55.17,8.9a12.12,12.12,0,0,1,.48,8.37A13,13,0,0,1,56,22.63a6.2,6.2,0,0,1-2.56,4.15l-.09.87Zm-25,9.93c1.38,4.63,4.57,8.27,10.1,10.47C43.23,46.67,47,42.5,49.06,37.27l-.2-.2a18.64,18.64,0,0,1-3.34,2.1,17.49,17.49,0,0,1-6.75,1.59,16.61,16.61,0,0,1-6.86-1.15,13.56,13.56,0,0,1-3.52-2ZM30,4.36a21.89,21.89,0,0,1-1.43,7.82,18.12,18.12,0,0,1-4.45,6.66,1.26,1.26,0,0,1-.41.25,5.85,5.85,0,0,0-.67,3.56A3.34,3.34,0,0,0,24.68,25l.21.1h0a1.12,1.12,0,0,1,.61.93l.14,2a11.25,11.25,0,0,0,7.1,9.52,14.57,14.57,0,0,0,5.94,1,15.36,15.36,0,0,0,5.89-1.38,10.54,10.54,0,0,0,6.49-9,.34.34,0,0,1,0-.1l.22-2h0a1.13,1.13,0,0,1,.53-.83,4.14,4.14,0,0,0,2-2.93,10.06,10.06,0,0,0-.22-3.84,1,1,0,0,1-.44-.1,10.54,10.54,0,0,1-4.95-5.52,21.89,21.89,0,0,1-1.79-8.65A19.37,19.37,0,0,0,38.5,2.25,18.11,18.11,0,0,0,30,4.36ZM23.6,16.12a15.82,15.82,0,0,0,2.89-4.76,19.22,19.22,0,0,0,1.2-5.49,12.23,12.23,0,0,0-3.89,5,8.57,8.57,0,0,0-.2,5.25Zm30-.13a9.58,9.58,0,0,0-.5-6.14,10.86,10.86,0,0,0-4.4-4.51,19.43,19.43,0,0,0,1.56,6.51A8.81,8.81,0,0,0,53.64,16ZM38.31,67.38a1.38,1.38,0,1,1-1.37,1.38,1.37,1.37,0,0,1,1.37-1.38Zm0-5.44a1.38,1.38,0,1,1-1.37,1.38,1.38,1.38,0,0,1,1.37-1.38Z"/></svg>