<svg xmlns="http://www.w3.org/2000/svg" shape-rendering="geometricPrecision" text-rendering="geometricPrecision" image-rendering="optimizeQuality" fill-rule="evenodd" clip-rule="evenodd" viewBox="0 0 51630.9 48065.66">
 <g id="Layer_x0020_1">
  <path fill="#000" fill-rule="nonzero" d="M15158.97 18565.12c33.55,930.19 162.89,1753.66 425.53,2429.99 293.26,757.31 760.26,1330.99 1456.36,1659.76 203.39,95.78 328.8,290.29 346.57,498.64 173.76,1965.81 633.88,3526.7 1398.1,4665.23 733.6,1094 1763.43,1804.9 3101.29,2115.83 88.86,19.85 167.87,58.24 235.99,110.58 1226.3,901.46 2442.71,1328.99 3645.3,1316.26 1210.51,-11.95 2436.82,-469.98 3677.92,-1333.92 99.72,-69.13 213.27,-104.75 325.84,-108.73 1103.85,-78.01 2042.83,-589.44 2812.99,-1538.21 825.34,-1018.93 1469.18,-2533.57 1926.34,-4549.76 24.69,-109.6 78.01,-206.44 151.08,-282.38 793.84,-845.15 1297.4,-1716.01 1565.86,-2605.62 234.09,-771.24 293.35,-1563.98 214.34,-2372.64 -2357.82,-320.89 -4232.8,-1287.52 -5734.59,-2772.51 -1209.51,-1196.7 -2169.22,-2725.13 -2940.36,-4519.15 -793.83,1786.04 -2199.84,3279.02 -3999.76,4447.07 -2356.86,1528.44 -5395.96,2500.97 -8608.81,2839.54zm12213.32 1707.59l0.98 22.7c0,76.04 -17.74,149.09 -49.34,213.27 -25.69,266.5 35.55,577.62 185.62,931l2.96 7.98c210.31,489.66 599.31,940.96 1092.01,1275.59 472.95,320.89 1040.69,533.26 1637.03,567.75 647.74,37.61 1348.76,-162.84 1905.63,-552.82 486.77,-342.64 858.99,-830.38 972.54,-1425.78 92.8,-488.73 50.35,-916.25 -131.33,-1251.07 -173.78,-315.85 -479.85,-566.65 -924.16,-724.62 -258.7,-91.94 -542.05,-151.08 -836.29,-189.59 -310.03,-41.45 -630.95,-60.22 -949.84,-70.07 -350.53,-9.88 -702.03,15.67 -1038.7,76.01 -330.79,59.24 -650.7,153.04 -942.95,278.42l-6.81 2.96c-467.12,199.44 -769.17,463.06 -896.62,782l-20.63 56.28 -0.11 0zm-2262.04 -459.12l1460.32 0c231.04,-523.41 689.18,-935.02 1360.56,-1223.33l6.91 -2.96c349.55,-149.09 736.6,-262.64 1140.41,-334.71 399.9,-71.2 814.57,-102.69 1224.35,-89.87 348.54,9.88 702,31.59 1043.62,76.04 356.46,47.39 703.01,120.46 1021.94,234 671.4,237.96 1145.33,635.84 1425.74,1151.24 284.36,527.27 358.42,1160.17 226.12,1857.24 -161.93,852.1 -676.35,1536.25 -1346.76,2006.31 -724.73,506.5 -1637.06,767.15 -2482.25,717.78 -768.16,-44.41 -1495.85,-315.03 -2100.13,-724.7 -635.83,-432.56 -1141.39,-1021.91 -1419.81,-1670.61l-4.92 -10.86c-154.06,-360.38 -239.94,-702 -259.68,-1022.02l-1132.51 0c-20.74,320.02 -106.64,661.64 -259.68,1022.02l-4.95 10.86c-279.41,648.7 -783.95,1238.05 -1419.79,1670.61 -605.24,409.67 -1332.93,680.29 -2101.11,724.7 -844.21,49.37 -1756.51,-211.28 -2480.26,-717.78 -671.4,-469.98 -1185.8,-1154.21 -1347.74,-2006.31 -132.3,-697.07 -58.25,-1329.97 227.1,-1856.23 278.42,-516.41 752.38,-914.29 1423.76,-1152.25 319.9,-113.55 665.5,-186.62 1022.91,-234 341.62,-44.45 694.11,-66.16 1043.65,-76.04 409.75,-12.82 824.45,18.67 1224.32,89.87 402.86,72.07 789.88,185.62 1140.41,334.71l6.92 2.96c670.39,288.31 1128.54,699.92 1360.55,1223.33zm-753.36 699.03c-33.58,-65.15 -51.36,-139.21 -51.36,-217.21l0 -27.62 -18.75 -51.36c-126.36,-318.93 -429.48,-582.55 -896.49,-782l-6.92 -2.96c-292.25,-125.39 -612.15,-219.18 -942.92,-278.42 -336.7,-60.34 -687.23,-85.9 -1037.72,-76.01 -318.92,9.85 -640.82,28.63 -950.84,70.07 -293.24,38.51 -576.61,97.65 -835.31,189.59 -444.32,157.97 -751.37,408.77 -923.16,724.62 -182.67,334.82 -225.14,762.34 -132.32,1251.07 112.57,595.4 485.78,1083.14 973.53,1425.78 554.9,389.98 1256.93,590.44 1903.65,552.82 596.38,-34.49 1165.09,-246.86 1638.04,-567.75 651.98,-442.83 1360.5,-1350.54 1280.57,-2210.62zm-4212.05 766.2c-211.2,160.85 -512.63,120.66 -674.38,-89.84 -160.84,-211.2 -120.66,-512.66 89.84,-674.38 632.9,-483.91 1276.68,-710.89 1929.31,-703.01 647.71,6.92 1284.58,246.86 1909.56,696.1 215.05,154.13 264.43,453.4 110.3,668.44 -0.2,0.31 -0.39,0.58 -0.7,0.98 -154.92,215.35 -454.98,264.44 -670.41,109.6 -463.09,-332.73 -916.28,-510.45 -1356.64,-515.48 -435.44,-4.85 -881.72,159.06 -1336.89,507.59zm8756.89 0c-211.2,160.85 -512.75,120.66 -674.38,-89.84 -160.84,-211.2 -120.66,-512.66 89.84,-674.38 632.9,-483.91 1276.65,-710.89 1929.31,-703.01 648.68,6.92 1284.55,246.86 1909.56,696.1 215.05,154.13 264.41,453.4 110.3,668.44 -0.2,0.31 -0.5,0.58 -0.7,0.98 -154.83,215.35 -454.98,264.44 -670.44,109.6 -463.06,-332.73 -916.25,-510.45 -1356.61,-515.48 -435.44,-4.85 -881.72,159.06 -1336.89,507.59zm-11058.64 10414.16l-1132.97 2064.52 9101.96 6823.24 9110.81 -6883.9 -1610.44 -1590.88c-3917.48,4049.59 -11417.85,3598.44 -15469.36,-412.99zm33246.88 16372.67l-50546.92 0c-299.89,0 -543.05,-243.16 -543.05,-543.05l0 -860.44c0,-19.23 1.01,-38.23 2.96,-56.96 151.79,-11464.92 3154.16,-12516.47 12224.66,-15690.88 1366.27,-478.15 2874,-1005.84 4507.94,-1618 97.01,-36.13 197.82,-42.6 292.48,-24.04l0.28 -1.4 706.16 137.84c294.04,57.41 485.91,342.36 428.51,636.4 -21.97,112.59 -77.37,210.19 -153.8,284.55 -823.94,932.93 -1593.34,1898.13 -2301.27,2918.64 -544.32,784.73 -1053.06,1604.62 -1523.15,2470.74l2879.87 -70.31c131.83,-3.11 253.74,41.22 349.44,117.38l0.58 -0.73 8195.79 6545.04 8609.47 -6551.4c109.86,-83.88 241.52,-119.26 369.28,-109.62l2852.47 69.63c-461.74,-851.43 -960.67,-1657.83 -1493.95,-2429.77 -699.24,-1012.14 -1465.88,-1976.59 -2291.68,-2914.57 -156.26,-177.53 -175.55,-428.51 -66.16,-623.78l171.54 -353.71c122.92,-254.76 419.12,-369.61 678.8,-271.52 1775.74,673.42 3399.06,1244.97 4861.43,1759.82 9393.69,3307.19 12328.25,4340.4 12329.23,16637.08 0,298.74 -242.18,540.92 -540.92,540.92l0 2.13zm-50003.86 -1086.1l49460.71 0c-88.33,-11016.49 -2902.54,-12007.47 -11605.76,-15071.56 -1124.25,-395.81 -2344.17,-825.32 -3676.36,-1317.07 550.42,670.15 1075.7,1361.88 1574.01,2083.19 733.57,1061.85 1400.56,2176.45 1993.2,3366.46l-1.34 0.67c38.06,76.3 58.63,162.73 56.48,253.89 -7.03,298.74 -254.92,535.22 -553.66,528.19l-3606.9 -88.04 -8782.35 6682.96c-193.15,157.26 -476.16,164.93 -679.17,3.58l-8372.76 -6686.35 -3557.33 86.81c-98.68,10.13 -201.31,-6.63 -296.7,-54.1 -268.3,-133.52 -377.51,-459.31 -243.98,-727.6 601.02,-1205.84 1277.97,-2333.77 2022.74,-3407.43 488.81,-704.66 1006.4,-1384.24 1550.54,-2045.79 -1378,507.6 -2631.39,946.25 -3783.48,1349.45 -8533.63,2986.53 -11357.86,3975.64 -11499.28,14686.8 0.89,12.74 1.37,25.61 1.37,38.57l0 317.39zm32615.54 -18054.44c-56.17,75.32 -113.83,149.52 -172.85,222.62 -957.75,1180.88 -2133.71,1837.49 -3522.9,1973.73 -1395.16,942.95 -2804.11,1442.45 -4227.9,1456.36 -1440.55,13.83 -2870.21,-468.02 -4287.09,-1485.98 -1410.32,-353.52 -2539.85,-1077.62 -3396.87,-2159.17l-552.21 -808.53c-701.64,-1196.1 -1144.38,-2711.91 -1336.27,-4534.28 -829.37,-484.87 -1394.15,-1223.39 -1755.53,-2156.36 -354.47,-914.4 -505.52,-2014.22 -515.4,-3241.5 -15.78,-52.34 -24.69,-107.65 -25.66,-164.91 -33.59,-1225.3 34.57,-2395.43 208.35,-3504.12 174.75,-1116.81 458.1,-2172.22 853.08,-3162.52 840.23,-2110.01 2107,-3769.76 3710.48,-4960.6 -56.26,-59.14 -102.66,-131.25 -132.3,-213.19 -269.55,-747.54 -355.45,-1430.67 -267.56,-2052.71 89.84,-646.84 363.34,-1218.52 806.67,-1718.03 1221.35,-1378.44 3195.11,-2105.05 5250.76,-2334.1 2393.35,-267.6 4935.82,138.23 6510.67,967.49 1159.16,609.31 1963.85,1284.65 2345.97,2137.65 396.9,886.64 322.87,1896.82 -303.11,3131.01 -15.81,30.51 -32.6,58.28 -52.34,84.92 1969.78,1392.19 3516.97,3381.7 4359.19,5789.89 322.87,922.19 514.42,1880.92 566.76,2875.2 47.39,907.3 -19.76,1842.42 -206.36,2805.99 21.72,50.43 37.51,105.74 46.41,162.02 159.95,1105.85 113.55,2194.9 -209.32,3260.26 -308.07,1017.97 -866.92,2008.21 -1734.8,2963.06 -417.38,1776.8 -984.17,3206.41 -1698.46,4292.05l-261.38 373.75zm-1887.92 -23171.91c437.4,-869.84 509.5,-1536.32 270.54,-2070.59 -256.71,-573.57 -879.73,-1070.19 -1801.94,-1555.98 -1378.33,-724.73 -3646.3,-1075.22 -5810.6,-834.41 -1785.14,199.53 -3474.51,801.83 -4473.72,1929.39 -281.4,317.94 -455.17,677.34 -511.46,1079.2 -58.25,419.63 3.94,899.49 196.48,1441.53 1703.22,-982.41 3707.54,-1504.73 5928.09,-1546.2 2227.5,-42.55 4359.22,517.39 6202.61,1557.06zm-3787.5 20508.47c175.15,-224.02 498.69,-263.73 722.73,-88.56 218.01,170.23 262.34,482.21 100.71,706.65 -78.01,104.56 -164.89,200.34 -258.67,285.34 -626.01,571.69 -1646.93,810.63 -2674.78,770.04 -1004.16,-38.4 -2041.82,-342.49 -2732.01,-857.89l-33.56 -27.65c-127.37,-97.85 -241.9,-202.41 -342.6,-311.12 -191.36,-210.92 -175.96,-536.73 34.54,-728.67 210.42,-191.67 536.45,-176.44 728.09,33.94 0.19,0.2 0.39,0.5 0.58,0.71 60.23,66.16 128.35,128.35 202.41,185.61l28.64 19.76c524.28,392.95 1342.79,625.98 2149.46,656.49 782.97,30.71 1530.42,-125.31 1945.1,-504.43 50.35,-45.43 93.81,-92.83 129.36,-140.22zm-12909.73 -8917.83c2998.61,-327.8 5817.52,-1230.25 7988.73,-2638.22 2082.32,-1350.82 3564.36,-3166.48 4016.56,-5376.2 67.53,-328.98 388.84,-541.08 717.81,-473.93 218.22,44.44 386.07,201.43 453.21,397.9 803.71,2335.12 1855.25,4273.3 3273.08,5676.34 1276.68,1262.83 2863.37,2098.14 4850.91,2406.2 127.38,-760.26 169.84,-1495.85 132.3,-2206.76 -44.72,-865.03 -212.96,-1719.2 -499.59,-2536.54 -770.15,-2202.78 -2198.86,-4015.58 -4014.62,-5268.55 -1829.56,-1261.85 -4057.06,-1956.94 -6405.01,-1911.62 -2250.17,41.56 -4245.61,622.12 -5876.75,1719.09 -1588.66,1067.33 -2840.63,2633.3 -3653.24,4676.16 -360.38,905.31 -620.05,1873.9 -780.99,2900.87 -131.32,838.28 -198.46,1717.02 -202.41,2635.25z"/>
 </g>
</svg>
