<svg xmlns="http://www.w3.org/2000/svg" shape-rendering="geometricPrecision" text-rendering="geometricPrecision" image-rendering="optimizeQuality" fill-rule="evenodd" clip-rule="evenodd" viewBox="0 0 512 330.83"><path d="M319.11 245.22c4.63-5.51 6.04-11.98.8-19.15-8.11-11.13-15.46-18.95-22.81-30.7-5.31-7.83-8.12-14.82-8.12-20.43 0-5.97 3.17-12.96 9.52-14.54-.84-12.03-1.13-27.85-.56-40.72 2.01-22.1 17.86-38.38 38.33-45.6 8.11-3.08 4.2-15.4 13.15-15.67 20.98-.56 55.39 17.34 68.83 31.89 7.83 8.4 12.86 19.58 13.71 34.42l-.85 37.07c3.92 1.12 6.44 3.64 7.56 7.56 1.13 4.47 0 10.64-3.92 19.31 0 .27-.27.27-.27.56-8.64 14.23-17.64 23.66-27.53 36.85-13.92 18.55 24.65 34.64 37.67 38.02 29.2 7.6 60.31 6.59 66.94 59.11.29 1.16.44 2.32.44 3.49 0 2.29-1.85 4.14-4.13 4.14H354.39c.31-1.64.47-3.33.47-5.05 0-1.32-.14-3.01-.41-5.05l-.6-3.53c-5.46-41.37-17.81-61.03-34.74-71.98zM5.05 330.83c-2.79 0-5.05-2.25-5.05-5.05 0-1.44.2-2.86.55-4.26 8.09-64.1 36.48-62.93 72.07-72.14 17.14-4.42 51.14-21.53 47.01-43.62-8.61-7.98-17.17-19.02-18.66-35.47l-1.03.01c-2.39-.03-4.7-.57-6.85-1.79-4.75-2.7-7.36-7.88-8.61-13.8-2.64-18.02-3.31-27.24 6.31-31.25l.08-.04c-1.19-22.25 2.57-54.99-20.28-61.9 45.11-55.75 97.12-86.07 136.17-36.47 43.51 2.27 62.91 63.9 35.9 98.41h-1.15c9.62 4.01 8.17 14.36 6.32 31.25-1.26 5.92-3.86 11.1-8.61 13.8-2.15 1.22-4.47 1.76-6.85 1.79l-1.04-.01c-1.49 16.45-10.06 27.49-18.68 35.47-4.13 22.11 29.9 39.21 47.05 43.62 35.58 9.19 63.97 8.04 72.07 72.14.34 1.4.54 2.82.54 4.26 0 2.8-2.25 5.05-5.05 5.05H5.05z"/></svg>