<svg xmlns="http://www.w3.org/2000/svg" shape-rendering="geometricPrecision" text-rendering="geometricPrecision" image-rendering="optimizeQuality" fill-rule="evenodd" clip-rule="evenodd" viewBox="0 0 512 328.1"><path d="M324.82 243.21c5.01-1.4 9.77-2.89 14.09-4.57v-21.83c-19.89-.95-44.65-2.5-58.47-18.96 15.15-5.71 22.14-23.63 23.1-50.42.72-19.91-3.39-26.15 3.39-45.81 13.45-38.92 63.19-52.22 90.89-29.45 21.72-2.31 43.62 8.89 48.34 42.39 3.52 25.01-3.94 40.71 3.94 63.74 3.38 9.91 9.28 17.5 18.51 21.94-14.13 13.52-43.81 15.25-62.33 16.23v22.17c33.61 11.93 82.37 10.12 95.22 39.23 3.74 8.47 6.68 21.42 8.85 34.54.34 2.13 1.65 8.95 1.65 11.57 0 2.28-1.84 4.12-4.12 4.12H358.66c.3-1.61.46-3.28.46-4.98 0-1.63-.12-3.22-.31-4.79h-.07l-.62-3.68c-5.27-39.95-17.1-59.93-33.3-71.44zM4.97 328.09c-2.75 0-4.97-2.22-4.97-4.97 0-1.41.19-2.81.54-4.19 7.96-63.09 35.91-64.43 70.93-73.46 16.84-4.35 55.25-21.19 51.18-42.94-8.47-7.86-16.89-18.71-18.36-34.91l-1.02.01c-2.34-.03-4.62-.56-6.74-1.76-4.67-2.66-7.24-7.76-8.47-13.58-1.57-7.36-1.05-16.09-.29-21.6l.29-1.08c1.63-4.55 3.64-7.02 6.21-8.09l.08-.03c-1.17-21.9 2.53-54.14-19.96-60.94 44.4-54.87 95.59-84.72 134.02-35.9 42.83 2.24 61.93 62.91 35.34 96.87h-1.13c2.56 1.07 4.58 3.54 6.22 8.09l.28 1.08c.76 5.51 1.28 14.24-.28 21.6-1.24 5.82-3.8 10.92-8.48 13.58-2.11 1.2-4.39 1.73-6.74 1.76l-1.02-.01c-1.47 16.2-9.9 27.05-18.38 34.91-4.07 21.76 34.38 38.6 51.23 42.94 35.01 9.02 62.98 10.37 70.94 73.46.34 1.38.54 2.78.54 4.19a4.97 4.97 0 0 1-4.97 4.97H4.97z"/></svg>