<svg id="Layer_1" data-name="Layer 1" xmlns="http://www.w3.org/2000/svg" viewBox="0 0 59.24 122.88"><defs><style>.cls-1{fill-rule:evenodd;}</style></defs><title>genderqueer-genderless-person</title><path class="cls-1" d="M23,86.34v30.6A6,6,0,0,1,17,122.88h0a6,6,0,0,1-5.94-5.94V41H9V70.88a4.52,4.52,0,0,1-4.5,4.51h0A4.52,4.52,0,0,1,0,70.88V38.74c0-5.23,1.76-8.9,5-11.31,2.79-2.1,11.13-3.14,19.41-3.11h0c8.06,0,17.78,1,20.55,3.11,3,2.23,3.48,5.16,4.66,10.06a5.31,5.31,0,0,1,.2.56L59.07,71.1a4.62,4.62,0,0,1-8.9,2.5L41,41l-.13,0H39v2.07L51.18,86.34H39v30.6A6,6,0,0,1,33,122.88h0a6,6,0,0,1-5.94-5.94V86.34ZM24.67,0A11.25,11.25,0,1,1,13.42,11.25,11.24,11.24,0,0,1,24.67,0Z"/></svg>