<svg id="Layer_1" data-name="Layer 1" xmlns="http://www.w3.org/2000/svg" viewBox="0 0 77.84 122.88"><title>genderqueer-symbol</title><path d="M11.4,56.44h0a38.84,38.84,0,0,1,21.12-10.9v-.07a1.14,1.14,0,0,1-.23-.68V31.7L21,38.25a1.11,1.11,0,0,1-1.5-.4L15.5,31a1.12,1.12,0,0,1,.4-1.51L27.25,23,15.9,16.4a1.11,1.11,0,0,1-.4-1.51l3.95-6.83A1.1,1.1,0,0,1,21,7.65L32.3,14.21V1.1A1.1,1.1,0,0,1,33.4,0h7.9a1.11,1.11,0,0,1,1.1,1.1V14.21L53.75,7.65a1.1,1.1,0,0,1,1.5.41l4,6.83a1.11,1.11,0,0,1-.4,1.51L47.45,23,58.8,29.5A1.12,1.12,0,0,1,59.2,31l-4,6.84a1.11,1.11,0,0,1-1.5.4L42.4,31.7V44.8a1.23,1.23,0,0,1-.07.39A38.72,38.72,0,0,1,66.42,56.45h0a38.86,38.86,0,0,1,0,55v0h0a38.86,38.86,0,0,1-55,0h0a38.86,38.86,0,0,1,0-55l0,0Zm7.08,7.08h0v0a29,29,0,0,0,0,40.88v0h0a29,29,0,0,0,40.88,0h0a29,29,0,0,0,0-40.87v0h0a29,29,0,0,0-40.87,0Z"/></svg>