<svg id="Layer_1" data-name="Layer 1" xmlns="http://www.w3.org/2000/svg" viewBox="0 0 122.88 72.74"><defs><style>.cls-1{fill-rule:evenodd;}</style></defs><title>happy-family</title><path class="cls-1" d="M67.67,55.41V69.34a3.55,3.55,0,0,0,3.67,3.4h0A3.55,3.55,0,0,0,75,69.34V55.41h1.75V69.34a3.56,3.56,0,0,0,3.68,3.4h0a3.55,3.55,0,0,0,3.67-3.4V55.41h5.25L84.18,30.79c.18.4.36.8.53,1.21a45.37,45.37,0,0,1,2.69,9,3.44,3.44,0,0,0,4,2.75l.15,0a2.59,2.59,0,0,0,2.5-2.22l0-.17a3.59,3.59,0,0,0,.14-.86,33,33,0,0,1,1.53-5.8c.18-.52.38-1,.59-1.51v1L92.77,51.27h3.58v9.48a2.49,2.49,0,0,0,2.53,2.42h0a2.48,2.48,0,0,0,2.52-2.42V51.27H103v9.48a2.49,2.49,0,0,0,2.53,2.42h0A2.49,2.49,0,0,0,108,60.75V51.27H112L108,33.83V32.47l.38.63c2.07,3.44,4.17,6.92,8.69,6a2.59,2.59,0,0,0,1.14-4.54A13.22,13.22,0,0,0,118,27h.33c.55,0,.73-.15.41-.7l-.51-.89c2.61-.39,4.63-4.08,4.63-7.3,0-3.49-2.37-6.31-5.29-6.31h0c-2.91,0-5.29,2.82-5.29,6.31,0,3.23,2,6.92,4.65,7.3l-.56.92c-.18.28-.2.68.21.67h.57a13.11,13.11,0,0,1,.33,7.19,2.53,2.53,0,0,0-1.37-.11c-1,.19-2.13-1.72-3.27-3.62C111.51,28.23,110.19,26,108,25h0a2.78,2.78,0,0,0-1-.25,32.31,32.31,0,0,0-10.61,0h0a2.57,2.57,0,0,0-2,1.16,33.21,33.21,0,0,0-2.69,5c-.2-.53-.41-1.06-.62-1.57A44.72,44.72,0,0,0,86,20.23a3.36,3.36,0,0,0-2.1-1.35v0a43,43,0,0,0-16,0v.05a3.42,3.42,0,0,0-2.3,1.38,44.51,44.51,0,0,0-4.57,7.91,44.32,44.32,0,0,0-4.15-8,3.34,3.34,0,0,0-2.28-1.47v-.07c-4.07-1.16-11.63-1.2-16-.13v.11A3.32,3.32,0,0,0,36,20.1a45,45,0,0,0-4.65,9.34l-.18.49a32.05,32.05,0,0,0-2.29-4.12,2.55,2.55,0,0,0-2-1.16c-1.26-.54-11.46-.84-12.4.17-2,1.1-3.32,3.2-4.6,5.32C8.77,32,7.61,34,6.64,33.76a2.67,2.67,0,0,0-1.26.07,13,13,0,0,1,.35-7.09H6.3c.42,0,.39-.4.21-.68L6,25.15c2.62-.38,4.65-4.08,4.65-7.3,0-3.49-2.37-6.32-5.29-6.32h0C2.37,11.53,0,14.36,0,17.85c0,3.22,2,6.9,4.63,7.3L4.12,26c-.32.55-.14.71.41.71h.33a13.16,13.16,0,0,0-.25,7.48,2.59,2.59,0,0,0,1,4.62c4.52.89,6.62-2.59,8.69-6l.1-.16v.14h0V60.58a2.66,2.66,0,0,0,2.71,2.59h0a2.66,2.66,0,0,0,2.71-2.59V46.52h1.68V60.58a2.66,2.66,0,0,0,2.71,2.59h0A2.66,2.66,0,0,0,27,60.58V33.1c.2.48.39,1,.58,1.47a33.84,33.84,0,0,1,1.32,4.72l-.09.66a3.36,3.36,0,1,0,6.65.92,45.11,45.11,0,0,1,2.26-9.14c.31-.84.63-1.65,1-2.44V69.34a3.56,3.56,0,0,0,3.68,3.4h0A3.56,3.56,0,0,0,46,69.34V47.52h1.25V69.34a3.55,3.55,0,0,0,3.68,3.4h0a3.55,3.55,0,0,0,3.67-3.4V30.18c.22.52.43,1.06.63,1.61a44.91,44.91,0,0,1,2.14,8.35,3.44,3.44,0,0,0,6.81.92,45,45,0,0,1,2.69-9c.28-.66.56-1.3.86-1.91L62.42,55.41ZM20.78,10.82a6,6,0,1,1-6,6,6,6,0,0,1,6-6ZM4.05,13.1a.3.3,0,0,1,.41.13.31.31,0,0,1-.12.41,5.35,5.35,0,0,0-1.31,1A5.49,5.49,0,0,0,2,16a.3.3,0,0,1-.4.14.31.31,0,0,1-.14-.41,6.19,6.19,0,0,1,1.1-1.5A6.38,6.38,0,0,1,4.05,13.1Zm98.21-1.6a5.62,5.62,0,1,1-5.61,5.62,5.62,5.62,0,0,1,5.61-5.62Zm16.28,2.37a.31.31,0,0,1-.12-.41.3.3,0,0,1,.41-.12,6.6,6.6,0,0,1,1.46,1.13A6.67,6.67,0,0,1,121.38,16a.3.3,0,0,1-.14.4.29.29,0,0,1-.4-.13,5.72,5.72,0,0,0-1-1.36,5.6,5.6,0,0,0-1.31-1ZM46.42,0a8,8,0,1,1-8,8,8,8,0,0,1,8-8ZM75.68,0a8,8,0,1,1-8,8,8,8,0,0,1,8-7.95Z"/></svg>