<svg id="Layer_1" data-name="Layer 1" xmlns="http://www.w3.org/2000/svg" viewBox="0 0 111.65 122.88"><defs><style>.cls-1{fill-rule:evenodd;}</style></defs><title>lady-woman</title><path class="cls-1" d="M66.92,74.55A15.25,15.25,0,0,0,71,70c-2.14-1-3.69-2.31-4.3-4,0-.13-.09-.26-.13-.39a20.48,20.48,0,0,1-12,4.45A18.38,18.38,0,0,1,44.32,66.8c-.66,1.72-2.42,3-4.82,4a19,19,0,0,0,5.83,4.89,21.2,21.2,0,0,0,11.2,2.49,19.09,19.09,0,0,0,10.39-3.62Zm16.94-2a72,72,0,0,1,13.47,4.86C106.21,82,107.68,93.77,109,104c.26,2,.51,4,.79,5.81.2,1.25.46,2.54.72,3.82a46.7,46.7,0,0,1,1.18,8.79v0a.44.44,0,0,1-.44.43h-23v-5.76a1.45,1.45,0,0,0-2.89,0v5.76H26v-5.76a1.45,1.45,0,0,0-2.89,0v5.76H.44a.44.44,0,0,1-.44-.43c-.08-5.25,1-10.38,2.13-15.55l.05-.25c.5-2.31.87-4.77,1.23-7.24,1.3-8.77,2.64-17.72,10.1-22.09a45.56,45.56,0,0,1,10.28-4.08c.71-.2,1.42-.39,2.15-.57-7.71-.23-15.2-2.28-16.48-5.89a.42.42,0,0,1,.27-.55l.1,0a13.21,13.21,0,0,0,10.66-6.52l0,0c2.32-3.72,3.56-8.72,4.18-14.16.31-2.77.51-5.58.7-8.36,1-14.28,1.92-28.06,19.13-35a29.38,29.38,0,0,1,8.09-2A28.91,28.91,0,0,1,69.76,3.76,28.38,28.38,0,0,1,82,18a35.92,35.92,0,0,1,2.39,10V28c0,8.88,1.34,19.64,5.1,27.49,2.83,5.93,7,10.2,13,10.68a.44.44,0,0,1,.39.47l0,.14c-1.44,3.92-10.33,5.92-18.93,5.7ZM61.52,17.59C52,27.2,42,31,31.47,33.62a6.28,6.28,0,0,0-.1,1.69c0,14.52,11,31.94,23.17,31.94S79.11,49.83,79.11,35.31a19.85,19.85,0,0,0-1-6.5c-9.22-.1-12.82-4.74-16.56-11.22Zm5.76,59.07-11.2,45.42,22.31-18.27L68,93l17.69-7.15.44-12c-5.1-.76-8.44-1.5-13.17-2.5a24.34,24.34,0,0,1-5.66,5.3ZM55.93,122.2,45.19,78.35a20.72,20.72,0,0,1-7.32-6.09c-4.6.55-7.42.63-12.81,1.3l.25,12.82,17.82,6.5L32.34,104.2l23.29,18.25.3-.25Z"/></svg>