<svg id="Layer_1" data-name="Layer 1" xmlns="http://www.w3.org/2000/svg" viewBox="0 0 117.12 122.88"><defs><style>.cls-1{fill-rule:evenodd;}</style></defs><title>man-woman</title><path class="cls-1" d="M35.79,38.93v78.23a5.73,5.73,0,0,1-5.71,5.72h0a5.73,5.73,0,0,1-5.72-5.72v-46H22.11v46a5.74,5.74,0,0,1-5.72,5.72h0a5.74,5.74,0,0,1-5.72-5.72V38.93h-2V67.68A4.34,4.34,0,0,1,4.34,72h0A4.35,4.35,0,0,1,0,67.68V36.74c0-5,1.69-8.56,4.77-10.88,5.3-4,31.46-4,36.76,0,3.09,2.32,4.8,5.85,4.79,10.88V67.68A4.35,4.35,0,0,1,42,72h0a4.35,4.35,0,0,1-4.34-4.33V38.93Zm72-3.39a3.13,3.13,0,0,1,.19.54L117,67.88a4.44,4.44,0,1,1-8.55,2.4L99.57,38.9l-.13,0H97.6v2l11.76,46.8H97.6v29.44a5.74,5.74,0,0,1-5.72,5.72h0a5.73,5.73,0,0,1-5.72-5.72V87.72H83.91v29.44a5.73,5.73,0,0,1-5.72,5.72h0a5.73,5.73,0,0,1-5.71-5.72V87.72H60l12.47-48v-.75h-2l-.17,0L61.49,70.28a4.45,4.45,0,0,1-8.56-2.4l8.75-31.12-.09,0c1.34-5,2.46-8.56,5.54-10.88,5.3-4,30.91-4,36.21,0,2.85,2.14,3.35,5,4.48,9.68ZM85,0A10.34,10.34,0,1,1,74.62,10.34,10.34,10.34,0,0,1,85,0ZM23.16,0A10.34,10.34,0,1,1,12.82,10.34,10.34,10.34,0,0,1,23.16,0Z"/></svg>