<svg id="Layer_1" data-name="Layer 1" xmlns="http://www.w3.org/2000/svg" viewBox="0 0 121.88 122.88"><defs><style>.cls-1{fill-rule:evenodd;}</style></defs><title>miscommunication</title><path class="cls-1" d="M69.07,96a10.9,10.9,0,0,1-5.13-3.24C67.38,91.51,69,88,69.18,82c.17-4.51-.77-6.73.77-11.19a14,14,0,0,1,14.92-9.08,3.46,3.46,0,0,1-.31-1.11l-.47-4.21a9,9,0,0,1-2.88-.66,8.84,8.84,0,0,1-2.85-1.9h0A8.69,8.69,0,0,1,76.47,51a8.56,8.56,0,0,1-.68-3.34V21.05a8.57,8.57,0,0,1,.68-3.35A8.61,8.61,0,0,1,81.21,13a8.57,8.57,0,0,1,3.35-.68h28.56a8.56,8.56,0,0,1,3.34.68,9,9,0,0,1,2.85,1.89h0a8.72,8.72,0,0,1,2.58,6.19V47.62a8.73,8.73,0,0,1-.67,3.34,8.9,8.9,0,0,1-1.67,2.6l-.23.25a8.84,8.84,0,0,1-2.85,1.9,8.73,8.73,0,0,1-3.34.67h-13L90.1,63.08a2.7,2.7,0,0,1-.52.3,11.19,11.19,0,0,1,1,.72c4.92-.53,9.89,2,11,9.61.79,5.66-.9,9.44.89,14.66a8.13,8.13,0,0,0,4.2,5,12.27,12.27,0,0,1-5.62,2.7,57.53,57.53,0,0,1-8.85,1v2.66l3.09,4.93-10,7.79L79,107.53a10.93,10.93,0,0,0-3-4.18L77.54,100V97.1A38.44,38.44,0,0,1,69.07,96ZM47.26,41.52Zm-33.59-38H41.08a5.24,5.24,0,0,1,5.23,5.22V35.33a5.24,5.24,0,0,1-5.23,5.23H39.46A1.33,1.33,0,0,0,38.22,42l-.66,5.93L27.1,41a1.32,1.32,0,0,0-.94-.39H12.52a5.24,5.24,0,0,1-5.23-5.23V8.76a5.24,5.24,0,0,1,5.23-5.22Zm-7.34-1ZM9.17.67A8.78,8.78,0,0,1,12.52,0H41.08a8.73,8.73,0,0,1,3.34.67,8.73,8.73,0,0,1,4.75,4.75,8.73,8.73,0,0,1,.67,3.34V35.33a8.75,8.75,0,0,1-.67,3.35,9.12,9.12,0,0,1-1.9,2.85,9,9,0,0,1-5.73,2.56l-.47,4.21a3.49,3.49,0,0,1-1.19,2.27c8.36.82,16,6,16,15.63,0,2.66-.6,2,.83,4.13,2.4,3.49,1.17,9.68-.87,12.92-1.3,3.81-7.45,9.75-7,11.91.38,10.79-23.06,10.48-23,0,.24-2-5.62-8.29-6.7-11.91-2.3-3.64-3.11-9.45-.6-13.31,1-1.53.56-1.61.56-3.73,0-9.6,7.7-14.81,16-15.63L25.46,44.1H12.52a8.61,8.61,0,0,1-3.35-.68,8.77,8.77,0,0,1-2.84-1.89l-.23-.26a8.46,8.46,0,0,1-1.67-2.59,8.57,8.57,0,0,1-.68-3.35V8.76a8.56,8.56,0,0,1,.68-3.34,9,9,0,0,1,1.9-2.85A8.8,8.8,0,0,1,9.17.67Zm20.76,10.7H23.67v4.82l1.21,10.25h3.88l1.17-10.25V11.37ZM28.7,28.71H24.89v3.51H28.7V28.71Zm67,9.76V38A11.46,11.46,0,0,1,96,35.11a4.21,4.21,0,0,1,.83-1.71,6.53,6.53,0,0,1,1.36-1.16c.46-.31.87-.59,1.24-.88a4,4,0,0,0,.86-.89,1.94,1.94,0,0,0,.32-1.09,1.76,1.76,0,0,0-.26-.95,1.73,1.73,0,0,0-.7-.64,2.19,2.19,0,0,0-1-.23,2.2,2.2,0,0,0-1.87,1,2.12,2.12,0,0,0-.29,1.1H90.94A6.55,6.55,0,0,1,92,25.82a6.05,6.05,0,0,1,2.81-2.19,10.26,10.26,0,0,1,3.85-.7,11.6,11.6,0,0,1,4.14.68,6.27,6.27,0,0,1,2.87,2,5.4,5.4,0,0,1,1,3.39,5.57,5.57,0,0,1-.45,2.31,5.77,5.77,0,0,1-1.24,1.74,10,10,0,0,1-1.86,1.37,7.49,7.49,0,0,0-1.31.93,3.24,3.24,0,0,0-.8,1.1,3.62,3.62,0,0,0-.27,1.48v.51Zm2.64,7.28a2.93,2.93,0,0,1-2.15-.88,2.84,2.84,0,0,1-.88-2.15,2.78,2.78,0,0,1,.88-2.11,3,3,0,0,1,4.25,0,2.87,2.87,0,0,1,.93,2.11,3,3,0,0,1-.44,1.53,3.22,3.22,0,0,1-1.11,1.09,2.78,2.78,0,0,1-1.48.41ZM112,15.82H84.56a5.26,5.26,0,0,0-5.23,5.23V47.62a5.24,5.24,0,0,0,5.23,5.22h1.62a1.34,1.34,0,0,1,1.23,1.42l.66,5.92,10.47-7a1.32,1.32,0,0,1,.93-.39h13.65a5.22,5.22,0,0,0,5.22-5.22V21.05a5.24,5.24,0,0,0-5.22-5.23ZM0,122.88c1.56-20.22,4.19-12.65,21.44-23.44,4.76,12.36,27.62,13.18,32.64,0,14.89,9.52,21.14,2.32,21,23.44Zm100.9-14c-1.63-3.29-2.19-4.55-4.6-7.17,4.55,1.76,8.41,2,11.85,4.14,2.19,1.37,5.44,2.41,6.33,4.07,2.18,4.09,1.86,8.63,3,13H81a69.38,69.38,0,0,0-.46-9.26L85,117.23l11.16-8.49,4.73.12Zm-27.14-7,.49-.19L74,102l-.21-.12Z"/></svg>