<svg xmlns="http://www.w3.org/2000/svg" shape-rendering="geometricPrecision" text-rendering="geometricPrecision" image-rendering="optimizeQuality" fill-rule="evenodd" clip-rule="evenodd" viewBox="0 0 512 384.99"><path d="M42.35 384.92V223.59c-39.24 15.09-54.28-33.48-31.97-50.64L250.07 2.02a7.67 7.67 0 0 1 9.9-.4l240.17 170.64c27.65 21.5 2.92 68.71-32.74 51.84v160.38h-20.53v-169.4c0-3.7-174.32-125.02-190.2-137.38C239.84 90.5 62.88 210.91 62.88 215.67v169.32l-20.53-.07zm236.16-53.82c5.95-2.93 12.8-5.84 20.69-8.79l2.62.5c-5.03 5.69-9.51 11.68-13.36 18.34-3.01-3.64-6.35-6.98-9.95-10.05zm-138.53-5.65c8.22-3.64 12.08-5.36 20.1-13.61.1-.11.21-.2.33-.27l-.88-.85c-9.54-9.54-15.46-22.7-15.47-37.18h-.02v.06c-5.39.52-13.93-7.06-12.21-16.98-12.89-13.35-8.1-55.97 27.53-51.65-.25.27-.5.53-.75.8.3-.32.61-.63.92-.95 9.55-9.55 22.72-15.47 37.21-15.47 14.5 0 27.67 5.92 37.22 15.47 1 1.01 1.97 2.06 2.89 3.14a53.55 53.55 0 0 0-2.68-2.99c35.63-4.32 40.43 38.3 27.54 51.65 1.71 9.89-6.78 17.46-12.17 16.98-.04 0-.11 0-.11.01 0 14.45-5.95 27.58-15.47 37.11-.46.45-.93.9-1.4 1.34 8.11 8.15 10.76 9.15 18.9 12.2 1.88.71 4.03 1.51 6 2.29.06.03.12.06.19.1 9.82 5.23 18.41 11.88 25.31 20.46 6.26 7.78 11.12 19.87 14.24 31.16H89.83c5.29-21.28 23.3-40.93 44.14-50.11 1.97-.91 4.09-1.85 6.01-2.71zm109.58-58.98c6.62-1.94 7.44-13.66-.05-16.44v3.03c-.02-1.13-.05-2.24-.08-3.34v16.75h.13zm-105.5 0v-15.02l-.03 1.61v-3.03c-7.49 2.78-6.68 14.5-.06 16.44h.09zm22.34 50.04c-.1.21-.23.4-.4.57-7.6 7.36-12.9 9.93-22.78 14.5 14.94 29.88 86.96 33.61 103.86-1.47-4.48-1.87-7.71-3.29-10.62-4.98-3.33-1.92-6.2-4.17-9.95-7.77v-.01c-.05-.04-.1-.1-.15-.16l-.09-.11c-8.43 5.74-18.6 9.11-29.53 9.11-11.27 0-21.75-3.59-30.34-9.68zm.18-73.07c-.73.29-1.53-.16-1.79-1s.14-1.75.88-2.04c2.85-1.11 5.71-1.63 8.58-1.61 2.85.02 5.7.58 8.54 1.61.73.26 1.14 1.16.91 2-.23.85-1.02 1.31-1.77 1.05-.94-.35-1.88-.63-2.82-.85.1.34.15.7.15 1.06 0 2.19-1.78 3.96-3.96 3.96a3.956 3.956 0 0 1-3.66-5.47c-1.68.2-3.37.63-5.06 1.29zm45.99-1.19c-.17.44-.29.07-.29 1.41 0 1.34 1.78 3.96 3.96 3.96 2.19 0 3.96-1.77 3.96-3.96 0-.62-.15-1.22-.41-1.74 1.73.18 3.48.56 5.23 1.14.75.24 1.54-.26 1.75-1.11.21-.85-.22-1.74-.97-1.98-2.86-.94-5.71-1.4-8.56-1.39-2.85 0-5.66.47-8.46 1.39-.74.25-1.17 1.14-.96 1.98.22.86 1 1.35 1.75 1.1.99-.33 2.01-.59 3-.8zm-33.6-16.23c1.24-.05 2.29.91 2.34 2.15.05 1.24-.91 2.29-2.15 2.35-5.87.27-11.17 2.11-14.78 6.96-.74 1-2.15 1.21-3.14.47-1-.74-1.21-2.15-.47-3.15 4.44-5.98 10.93-8.44 18.2-8.78zm35.49 4.05a2.26 2.26 0 0 1-2.24-2.26 2.253 2.253 0 0 1 2.26-2.24c3.72.02 7.12.71 10.18 2.15 3.09 1.45 5.79 3.63 8.08 6.59.76.99.58 2.4-.41 3.16-.98.76-2.4.58-3.16-.41-1.84-2.38-3.98-4.13-6.41-5.27-2.46-1.15-5.23-1.71-8.3-1.72zm.16 60.98c-1.93.66-3.92 1.22-5.97 1.66-2.11.58-4.05.94-5.78.97-1.96.04-3.65-.32-5-1.22a7.71 7.71 0 0 1-1.1-.88c-.33.31-.69.6-1.11.88-1.35.9-3.04 1.26-5 1.22-1.72-.03-3.67-.39-5.78-.97-2.04-.44-4.03-1-5.97-1.66-1.93-.65-3.81-1.41-5.64-2.26-.88-.41-1.24-1.41-.8-2.22.27-.49.76-.8 1.31-.88v-.01c.97-.15 1.76-.26 2.49-.36l.06-.01c2.37-.32 4.19-.58 6.4-1.47.63-.25 1.23-.53 1.85-.81 3.54-1.64 7.41-3.43 11.27-.36.34.27.64.54.92.84.27-.3.57-.57.91-.84 3.86-3.07 7.73-1.28 11.28.36.61.28 1.22.56 1.84.81 2.21.89 4.04 1.15 6.4 1.47l.06.01c.73.1 1.52.21 2.5.36v.01c.54.08 1.03.39 1.3.88.44.81.09 1.81-.8 2.22-1.83.85-3.71 1.61-5.64 2.26zm-22.52-18.23c-.77-.65-.88-1.81-.23-2.58.65-.79 1.81-.89 2.59-.23.92.76 1.8 1.17 2.64 1.18.85.01 1.77-.38 2.76-1.19a1.84 1.84 0 0 1 2.59.25c.64.78.53 1.94-.26 2.58-1.69 1.4-3.4 2.05-5.13 2.03-1.74-.02-3.39-.72-4.96-2.04zm-5.77 27.41a1.92 1.92 0 0 1-.8-2.6c.5-.95 1.67-1.31 2.61-.81 2.98 1.58 5.91 2.39 8.79 2.39 2.88.01 5.76-.78 8.65-2.37.94-.52 2.11-.18 2.63.75.51.94.17 2.12-.77 2.63-3.45 1.92-6.96 2.86-10.51 2.84-3.54 0-7.08-.95-10.6-2.83zm10.41-103.98c-12.58 0-24.03 5.15-32.33 13.45-8.3 8.3-13.45 19.75-13.45 32.33v31.47c0 12.59 5.15 24.04 13.45 32.34 8.3 8.3 19.75 13.45 32.33 13.45 12.59 0 24.04-5.15 32.34-13.45 8.3-8.3 13.45-19.75 13.45-32.34v-31.47c0-12.58-5.15-24.03-13.45-32.33-8.3-8.3-19.75-13.45-32.34-13.45zm105.87 133.08L298.4 337l33.82 25.34 33.85-25.57-5.99-5.91c-14.55 15.05-42.42 13.37-57.47-1.53zm-9.97-48.77c.12 3.45.6 6.51 1.58 9.02 1.09 2.82 2.82 4.95 5.41 6.17.75.35 1.23 1.08 1.29 1.85.65 7.3 2.35 13.11 5.2 17.34 2.72 4.06 6.55 6.69 11.52 7.86.33.07.62.21.88.41 4.55 3.34 9.07 4.93 13.53 4.89 4.51-.05 9.06-1.75 13.67-4.96.37-.26.78-.39 1.21-.4 4.1-.3 7.59-2.2 10.45-5.72 3.07-3.78 5.46-9.41 7.15-16.91.09-.4.3-.76.57-1.04 2.95-3.14 4.81-6.38 5.82-9.69.87-2.85 1.09-5.8.79-8.8-8.76-1.2-15.73-4.79-21.3-10.3-4.5-4.45-8.06-10.13-10.92-16.8-2.96 6.64-8.19 12.19-14.87 16.53-8.75 5.67-20.04 9.29-31.98 10.55zm45.88 10.68.01.03c4.01 9.29 19.06 8.86 20.84-.51.34-1.81.18-3.4-.49-4.64-1.41-2.56-5.2-3.57-9.03-3.66-6.34-.14-14.38 1.53-11.33 8.78zm-8.91-6.05h5.42c.86-1.94 2.56-3.47 5.06-4.54l.03-.01c5.97-2.53 18.21-2.63 21.75 3.85 1.05 1.96 1.33 4.31.84 6.9-2.9 15.41-27.43 11.68-28.28-2.61h-4.21c-.88 14.29-25.32 18.05-28.28 2.61-.5-2.59-.22-4.94.84-6.9 4.29-7.92 23.39-7.01 26.83.7zm-14.07-2.76c-4.27.02-8.43 1.2-9.77 3.69-.68 1.24-.84 2.83-.49 4.64 1.76 9.36 16.8 9.84 20.83.51v-.03c2.95-6.84-4.46-8.84-10.57-8.81zm-4.38 8.21c-.78.6-1.9.45-2.5-.33-.6-.79-.45-1.91.33-2.51 4.64-3.55 9.57-3.39 14.26-.03.8.57.99 1.68.42 2.49h-.01c-.57.8-1.68.99-2.49.41-1.72-1.24-3.4-1.89-5.04-1.91-1.62-.03-3.27.58-4.97 1.88zm32.54 0c-.79.6-1.91.45-2.51-.33-.6-.79-.44-1.91.33-2.51 2.36-1.8 4.75-2.64 7.18-2.61 2.4.02 4.76.92 7.08 2.58.8.57.99 1.68.42 2.49-.58.8-1.7.99-2.5.41-1.72-1.24-3.4-1.89-5.04-1.91-1.61-.03-3.27.58-4.96 1.88zm17.83 28.4c-.21.29-.43.56-.64.83-3.56 4.39-7.93 6.83-13.09 7.34-5.18 3.5-10.42 5.35-15.71 5.4-5.35.06-10.66-1.74-15.93-5.52-5.23-1.31-9.43-4-12.62-8.02l-2.05-3.01c-2.6-4.43-4.24-10.07-4.96-16.84-3.08-1.8-5.18-4.53-6.52-8.01-1.32-3.4-1.88-7.48-1.91-12.04-.07-.19-.09-.4-.11-.61-.43-16.19 4.12-33.1 17.74-43.2a2.2 2.2 0 0 1-.49-.79c-1-2.78-1.32-5.31-1-7.62.34-2.41 1.36-4.54 2.99-6.39 10.96-12.35 45.63-12.24 52.42 2.86 1.47 3.3 1.2 7.05-1.14 11.64-.05.12-.11.21-.18.3 13.86 9.83 20.74 26.05 17.53 42.62.08.2.14.4.18.61.59 4.11.41 8.15-.78 12.12-1.15 3.78-3.23 7.45-6.45 11-1.55 6.6-3.65 11.91-6.31 15.95l-.97 1.38zm-7.01-86.08c1.62-3.23 1.89-5.71 1-7.69-5.24-11.73-35.93-11.83-44.9-1.72-1.05 1.19-1.69 2.52-1.9 4.02-.22 1.55.01 3.34.73 5.35 13.52-7.79 31.53-7.59 45.07.04zm-14.08 76.2c.66-.84 1.86-.99 2.69-.34.81.64.97 1.79.37 2.63-.29.38-.61.74-.96 1.05-5.08 4.66-17 3.35-21.48-1.58-.71-.78-.66-1.99.13-2.71.79-.7 2-.66 2.71.12v.01c3.01 3.38 12.58 4.53 16.06 1.33.19-.17.35-.34.48-.51zm-47.96-33.14c11.14-1.21 21.62-4.57 29.68-9.8 7.74-5.02 13.25-11.77 14.92-19.97a2.272 2.272 0 0 1 2.67-1.77c.81.17 1.43.76 1.69 1.49 2.98 8.67 6.88 15.86 12.16 21.08 4.73 4.7 10.64 7.8 18.02 8.95 2.41-14.61-4.01-28.76-16.29-37.21-13.13-9.06-32.27-9.67-45.62-.71-12.64 8.5-17.14 23.45-17.23 37.94zm-.25 70.2 7.54-.18 31.66 25.28 33.25-25.28 14.1.34c-4.33-8.71-9.71-16.23-15.91-23.28l.69-1.43c44.99 17.07 57.56 34.2 58.61 56.6H305.23c0-.7-.09-1.42-.29-2.13-1.77-6.4-4.08-13.08-6.89-19.21-1.75-3.84-3.69-7.47-5.82-10.71zm112.65-333.2 62.96 2.57v85.03l-62.96-41.54V13.02z"/></svg>