<svg id="Layer_1" data-name="Layer 1" xmlns="http://www.w3.org/2000/svg" viewBox="0 0 95.38 122.88"><defs><style>.cls-1{fill-rule:evenodd;}</style></defs><title>pee-urine</title><path class="cls-1" d="M4.21,111.14a2.44,2.44,0,1,1-1.73,3,2.44,2.44,0,0,1,1.73-3ZM67.38,0A11.3,11.3,0,1,1,56.09,11.29,11.3,11.3,0,0,1,67.38,0ZM53.11,65.41c.08.73.35,1.55-.13,2-2.07,2-.27,1.48-.07,2.37.47,2.17,0,3.08,0,4.58C53.16,93,57.58,104,64.82,116c-1.6.48-7.89,1.77-8.41,3.23-.7,2,1.24,2.2,2.43,2.26l22.62.13c.13-2.94-.24-2.74-1.35-5.48-5.8-14.26-11.31-21.2-9.26-28.93,2.74-10.37,4.57-16.26,2-20.91l3.09.14c.09-1.72.19-3.51.29-5.36a31.6,31.6,0,0,0,8.4-4.19,45.35,45.35,0,0,0,9.66-9.44h0A5.05,5.05,0,0,0,94,40.89a57.54,57.54,0,0,0-11.35-9.55,53.68,53.68,0,0,0-9.58-4.81,15,15,0,0,0-2.81-1L70,25.45a4.9,4.9,0,0,0-1.35-.23c-6.08-.93-13.31.93-15.17,5.76-4,10.47-2.29,21.15-.43,34.42ZM76.88,49.78a20.45,20.45,0,0,0,2-1.24,30.43,30.43,0,0,0,4.56-3.94,45.43,45.43,0,0,0-6-4.59c-.16,3.22-.34,6.51-.52,9.77ZM11.45,110.93a1.93,1.93,0,0,1-1.89-3.37c.28-.16.49-.27.62-.33a10.14,10.14,0,0,1,9.83.46,19.19,19.19,0,0,1,5.48,5A64.1,64.1,0,0,1,30.84,94c3.9-8.76,9.65-17.22,16.38-21.83a1.94,1.94,0,1,1,2.18,3.2c-6.1,4.18-11.38,12-15,20.2-4.14,9.27-6.14,18.8-4.83,23.76A1.94,1.94,0,0,1,26,120.8c-.37-.75-.74-1.46-1.1-2.11-2.1-3.72-4.41-6.3-6.76-7.63a6.4,6.4,0,0,0-6.23-.34c-.21.1-.36.17-.42.21Zm-9.64,7.15a2.44,2.44,0,1,1-1.73,3,2.44,2.44,0,0,1,1.73-3Z"/></svg>