<svg id="Layer_1" data-name="Layer 1" xmlns="http://www.w3.org/2000/svg" viewBox="0 0 122.88 103.46"><defs><style>.cls-1{fill-rule:evenodd;}</style></defs><title>people-group</title><path class="cls-1" d="M85.1,78.81V98.63a5.05,5.05,0,0,0,5.23,4.83h0a5.06,5.06,0,0,0,5.23-4.83V78.81h2.49V98.63a5.05,5.05,0,0,0,5.23,4.83h0a5.06,5.06,0,0,0,5.23-4.83V78.81H116l-7.39-35c.26.56.51,1.14.76,1.72a63.16,63.16,0,0,1,3.82,12.82,4.9,4.9,0,1,0,9.63-1.81,69,69,0,0,0-11.65-27.76c-3.2-4.27-25.78-4.18-29,.06a63.87,63.87,0,0,0-6.5,11.26,63.17,63.17,0,0,0-5.89-11.41c-3.2-4.87-26.61-4.82-29.71-.09a63.61,63.61,0,0,0-6.61,13.29l-.22.6a45.44,45.44,0,0,0-3.16-5.63c-2.2-3.35-20-3.5-22.33,0a47.54,47.54,0,0,0-4.95,10A54,54,0,0,0,0,58,3.66,3.66,0,1,0,7.3,59a47.87,47.87,0,0,1,2.23-9.24V86.31A3.79,3.79,0,0,0,13.39,90h0a3.78,3.78,0,0,0,3.85-3.68v-20h2.39v20A3.79,3.79,0,0,0,23.49,90h0a3.78,3.78,0,0,0,3.85-3.68V47.23c.29.68.56,1.37.82,2.09A47.22,47.22,0,0,1,30,55.58l-.18,1.24a4.78,4.78,0,1,0,9.47,1.31,63.74,63.74,0,0,1,3.2-13c.44-1.19.9-2.35,1.39-3.47V66.05h0V98.63a5.05,5.05,0,0,0,5.23,4.83h0a5.06,5.06,0,0,0,5.23-4.83v-31h1.78v31a5.05,5.05,0,0,0,5.23,4.83h0a5.06,5.06,0,0,0,5.23-4.83V42.92c.31.75.6,1.52.89,2.3a63.77,63.77,0,0,1,3,11.87,4.9,4.9,0,0,0,9.7,1.31A63.16,63.16,0,0,1,84,45.58c.39-.93.8-1.84,1.22-2.71L77.63,78.81ZM18.55,15.53A8.57,8.57,0,1,1,10,24.1a8.57,8.57,0,0,1,8.56-8.57ZM54.87,0A11.32,11.32,0,1,1,43.56,11.31,11.32,11.32,0,0,1,54.87,0ZM96.5,0A11.32,11.32,0,1,1,85.18,11.31,11.32,11.32,0,0,1,96.5,0Z"/></svg>