<svg id="Layer_1" data-name="Layer 1" xmlns="http://www.w3.org/2000/svg" viewBox="0 0 122.88 120.25"><defs><style>.cls-1{fill-rule:evenodd;}</style></defs><title>personal-info</title><path class="cls-1" d="M47.66,70.1c-3.23-2.88-5.79-4.95-6.34-10.93H41a4.7,4.7,0,0,1-2.3-.6,6.31,6.31,0,0,1-2.53-3.07C35,52.82,34.06,45.78,37,43.76l-.55-.36-.06-.78c-.12-1.42-.15-3.14-.17-4.93-.11-6.63-.24-12.25-5.57-13.86l-2.29-.7,1.51-1.86A86.93,86.93,0,0,1,43.2,7.74C48.33,3.7,53.55,1,58.65.23a18.6,18.6,0,0,1,15,4.21,27.93,27.93,0,0,1,4,4,17.07,17.07,0,0,1,12,7c6.61,8.71,7,21-1.28,29a4.58,4.58,0,0,1,2,.5c2.22,1.19,2.29,3.77,1.71,5.93-.58,1.81-1.31,3.91-2,5.67C89.25,59,88,59.4,85.65,59.15c-.12,5.88-2.84,7.5-6.49,10.95,1.12,10.33-30.41,9.75-31.5,0Zm55.67,19.3A2.47,2.47,0,0,1,106,92.08a2.87,2.87,0,0,1-1.22,2.27,4.42,4.42,0,0,1-2.85,1,2.74,2.74,0,0,1-2-.69,2.34,2.34,0,0,1-.75-1.81,3.13,3.13,0,0,1,1.21-2.43,4.35,4.35,0,0,1,2.9-1Zm-.66-9.56A20.14,20.14,0,0,1,117,85.76h0a20.18,20.18,0,0,1,0,28.56h0a20.21,20.21,0,0,1-28.56,0h0a20.21,20.21,0,0,1,0-28.56h0a20.13,20.13,0,0,1,14.28-5.92Zm11.53,8.68A16.32,16.32,0,1,0,119,100.05a16.24,16.24,0,0,0-4.77-11.53ZM97.48,106.81H99V99.55H97c0-2.75,5-1,8.75-1.9v9.16h1.84v3H97.48v-3ZM46,77.4c7,12.08,30.89,8.78,34.23,0a14.94,14.94,0,0,0,4.38,2.5q-.56.5-1.08,1h0a27,27,0,0,0-4.72,31.88H0c2.05-9.37,1.84-19.74,11.24-24.94C19.62,83.22,39.16,83.57,46,77.4Z"/></svg>