<svg xmlns="http://www.w3.org/2000/svg" shape-rendering="geometricPrecision" text-rendering="geometricPrecision" image-rendering="optimizeQuality" fill-rule="evenodd" clip-rule="evenodd" viewBox="0 0 512 477.04"><path fill-rule="nonzero" d="M129.99 235.17c-1.78.56-3.72.41-5.51-.51-7.3-3.82-13.17-6.43-19.3-6.78-6.02-.36-12.46 1.47-20.98 6.59a7.358 7.358 0 0 1-5.51.81c-1.8-.47-3.48-1.59-4.5-3.32a7.342 7.342 0 0 1-.82-5.52c.47-1.78 1.59-3.47 3.32-4.48 4.65-2.76 9.24-4.76 13.84-6.03 4.59-1.28 9.24-1.79 13.88-1.69 4.55.11 9.04.82 13.54 2.09 4.43 1.29 8.82 3.12 13.21 5.37 1.79.91 3.02 2.49 3.58 4.23.56 1.79.41 3.73-.51 5.52-.87 1.94-2.45 3.16-4.24 3.72zm311.26 42.85c2.63-4.38 6.8-7.35 11.39-8.6 4.76-1.29 9.97-.79 14.56 1.84 4.6 2.63 7.73 6.89 9.02 11.64 1.3 4.75.79 9.97-1.84 14.56a19.173 19.173 0 0 1-11.64 9.02c-4.59 1.25-9.64.83-14.15-1.59-.29-.13-.58-.29-.87-.5-4.38-2.63-7.34-6.8-8.59-11.39-1.26-4.59-.84-9.64 1.58-14.15.17-.25.33-.54.54-.83zm14.19 1.67a8.506 8.506 0 0 0-5.13 4v.04c-1.17 2.05-1.42 4.43-.84 6.51a8.615 8.615 0 0 0 3.97 5.14h.04c2.04 1.16 4.42 1.42 6.5.83 2.1-.58 4.01-1.96 5.18-4 1.17-2.05 1.42-4.43.84-6.51-.59-2.09-1.97-4.01-4.01-5.18-2.13-1.17-4.46-1.38-6.55-.83zm-1.17-70.94c.16-.34.34-.68.54-.96 4.22-7.1 10.89-11.94 18.32-13.95 7.43-2.03 15.61-1.29 22.87 2.68.34.16.67.33.96.54a30.434 30.434 0 0 1 13.94 18.32c2.09 7.6 1.25 15.99-2.92 23.33-4.22 7.38-11.02 12.35-18.62 14.44a30.666 30.666 0 0 1-23.32-2.93c-7.39-4.21-12.35-11.02-14.45-18.6a30.72 30.72 0 0 1 2.68-22.87zm22.12-2.92c-4.51 1.25-8.56 4.17-11.06 8.55v.04c-2.51 4.42-3 9.43-1.75 13.94s4.21 8.56 8.59 11.05c4.42 2.51 9.43 3.01 13.94 1.76 4.51-1.25 8.56-4.21 11.06-8.59 2.5-4.43 3-9.44 1.75-13.94-1.25-4.51-4.17-8.56-8.55-11.06h-.04c-4.39-2.51-9.4-3-13.94-1.75zM462.45 131v22.86c0 3.16-1.31 6.05-3.38 8.12a11.521 11.521 0 0 1-8.12 3.37h-13.2v13.21c0 3.16-1.3 6.04-3.37 8.11-2.11 2.07-4.98 3.38-8.12 3.38H403.4c-3.13 0-6.01-1.29-8.09-3.38-2.11-2.11-3.4-4.98-3.4-8.11v-13.21h-13.2c-3.14 0-6.01-1.29-8.1-3.37-2.11-2.11-3.4-4.98-3.4-8.12V131c0-3.15 1.29-6.03 3.39-8.1 2.06-2.09 4.95-3.39 8.11-3.39h13.2v-13.2c0-3.16 1.29-6.03 3.39-8.11 2.05-2.08 4.94-3.38 8.1-3.38h22.86c3.14 0 6.03 1.29 8.1 3.39 2.09 2.05 3.39 4.94 3.39 8.1v13.2h13.2c3.17 0 6.06 1.3 8.12 3.37a11.47 11.47 0 0 1 3.38 8.12zm-10.97 22.86V131l-.16-.36-.37-.16h-24.16v-24.17l-.17-.36-.36-.16H403.4l-.36.15-.16.37v24.17h-24.17l-.37.16-.16.36v22.86l.14.36.39.16h24.17v24.18l.14.36.38.16h22.86l.37-.16.16-.36v-24.18h24.16l.37-.13.16-.39zm-72.23-100.7v28.95c0 3.78-1.56 7.23-4.04 9.71-2.48 2.49-5.92 4.05-9.71 4.05h-21.47v21.47c0 3.77-1.56 7.23-4.04 9.71-2.49 2.48-5.93 4.04-9.71 4.04h-28.95c-3.77 0-7.21-1.56-9.7-4.03-2.49-2.52-4.05-5.96-4.05-9.72V95.87H266.1c-3.76 0-7.2-1.56-9.69-4.04-2.5-2.51-4.06-5.95-4.06-9.72V53.16c0-3.78 1.56-7.24 4.03-9.71a13.77 13.77 0 0 1 9.72-4.03h21.48V17.93c0-3.78 1.56-7.23 4.03-9.71 2.48-2.48 5.94-4.03 9.72-4.03h28.95c3.76 0 7.2 1.56 9.69 4.03 2.5 2.52 4.06 5.95 4.06 9.71v21.49h21.47c3.78 0 7.24 1.55 9.71 4.03 2.48 2.48 4.04 5.94 4.04 9.71zm-10.97 28.95V53.16c0-.75-.32-1.45-.82-1.96-.5-.49-1.2-.82-1.96-.82h-32.44V17.93c0-.76-.31-1.47-.8-1.96a2.84 2.84 0 0 0-1.98-.81h-28.95c-.76 0-1.46.31-1.96.82-.5.49-.82 1.2-.82 1.95v32.45H266.1c-.75 0-1.46.32-1.96.82-.49.5-.82 1.2-.82 1.96v28.95c0 .77.32 1.49.81 1.97.5.51 1.21.82 1.97.82h32.45v32.44c0 .77.31 1.48.81 1.97.48.5 1.2.81 1.97.81h28.95c.74 0 1.45-.32 1.95-.83.5-.5.83-1.2.83-1.95V84.9h32.44c.75 0 1.45-.33 1.96-.83.5-.5.82-1.21.82-1.96zM154.6 437.95c.05 2.05.05 4.09-.05 6.14-.4 9.35-1.63 17.71-3.98 26.79-2.01 7.18-11.49 8.39-15.21 2-1.94-3.33-.93-5.75-.14-8.97 1.46-6.01 2.48-12.49 2.68-18.55l.11-2.4c-20.9 5.69-47.94 10.49-69.07 6.53-13.31-2.43-26.31-9.17-30.95-22.72-1.42-4.13-1.98-8.77-1.68-13.93.26-3.68.97-7.61 2.2-11.85 1.17-3.93 2.75-8.16 4.85-12.55-4.04-19.8-5.17-45.15-5.37-65.41v-1.47c-8.59-.51-20.33.31-27.77-4.65-10.18-6.68-12.18-19.13-8.52-30.12 1.07-3.12 2.6-6.33 4.64-9.59l17.77-36.31c4.34-8.83 6.49-13.83 7.51-17.77.96-3.83.86-6.68.65-11.22v-.05c-.74-20.78.26-42.76 9.05-61.99L9.97 136.28a8.28 8.28 0 0 1-4.4-4.54 8.7 8.7 0 0 1-.54-3.79c.28-3.28 2.75-5.91 4.63-8.41 35.38-47.19 72.87-78.61 110.12-97.31C163.33.34 206.62-4.26 246.03 3.55c1.69.36 3.47.71 5.27 1.12 1.68.36 3.41.82 5.2 1.28.72.2 1.17.82 1.23 1.53v13.88c0 .87-.72 1.59-1.58 1.59-.21 0-.42-.05-.57-.1-1.99-.57-4.08-1.07-6.28-1.64-2.14-.5-4.28-.96-6.42-1.38-35.44-6.99-74.39-2.96-113.8 16.39-34.56 16.95-69.59 45.69-102.92 89.04 9.8 4.29 21.54 8.68 30.87 13.53 9.5 3.42 20.79 3.11 32.84 1.07 12.3-2.09 25.37-6.08 38.14-9.95 9.39-2.87 18.57-5.67 27.36-7.77 6.72-1.59 13.27-2.77 19.52-3.22 5.01-.36 11.15-1.14 13.82 4.34.96 1.89 1.16 4.14.45 6.34-4.18 12.71-6.07 23.69-5.97 33.33.06 9.55 2.04 17.72 5.57 24.87 3.57 7.2 8.72 13.52 15.11 19.19 6.43 5.73 14.14 10.77 22.71 15.42 1.99 1.08 3.37 2.91 3.99 4.96.61 2.03.4 4.28-.67 6.28-1.07 1.98-2.91 3.36-4.95 3.97-2.04.62-4.29.42-6.28-.66-9.9-5.41-18.83-11.33-26.44-18.17-7.66-6.85-13.89-14.66-18.33-23.69-3.98-8.12-6.48-17.16-7.15-27.31-.61-9.5.41-19.97 3.26-31.66-5.25.77-10.82 2.04-16.59 3.58-6.73 1.78-13.67 3.88-20.67 6.02-13.17 3.98-26.6 8.12-39.67 10.41-12.71 2.25-25.06 2.76-36.45-.09-7.86 16.59-8.62 37.14-7.91 55.13v.16c.25 6.12.4 10-.87 15.11-1.22 5-3.78 11.12-8.99 21.74l-17.97 37.07-.4.61c-1.33 2.04-2.3 3.98-2.96 5.77-.67 1.89-1.03 3.62-1.03 5.16 0 3.87 1.94 7.35 6.23 7.35 6.54-.05 14.3.82 20.98 1.22.31-.1.61-.15.92-.2.41-.06.82-.11 1.28-.11 6.13 0 13.63 1.03 19.85 1.64 2.26.21 4.25 1.28 5.63 2.91 1.38 1.64 2.14 3.78 1.94 6.02-.21 2.3-1.28 4.29-2.92 5.68-1.63 1.37-3.77 2.14-6.02 1.93-3.27-.26-6.58-.41-9.85-.61v.31c.05 4.79.1 9.54.25 14.34.16 4.39.36 8.84.72 13.38 18.59 8.64 29.14-1.01 34.92 1.27 1.99.76 3.67 2.3 4.59 4.39v.06c.92 2.09.87 4.34.1 6.27a8.223 8.223 0 0 1-4.38 4.6h-.06c-11.03 4.77-22.36 5.16-33.74 1.63l.35 2.96c.31 2.51.72 5.16 1.23 7.86.46 2.66 1.02 5.32 1.58 8.02v.1c.2 1.03.2 2.05.05 3.01-.15 1.03-.56 2-1.07 2.87-1.94 3.92-3.42 7.6-4.49 10.92-1.07 3.42-1.68 6.49-1.84 9.24-.7 12.53 7.89 17.39 19.1 19.4 19.47 3.6 44.51-1.58 63.4-6.69 13.57-3.77 27.26-8.6 39.67-15.32 10.27-5.59 17.82-10.49 23.28-21.18l.05-.1c6.43-12.59 10.33-28.93 16.75-42.33 3.52-7.4 7.76-14.29 12.61-18.02 8.69-6.69 18.79 6.65 10.11 13.18-2.86 2.19-5.82 7.5-8.53 13.42-2.76 6.13-5.26 12.92-7.04 17.87-.93 2.3-1.75 4.74-2.56 7.04-1.99 5.67-4.14 11.8-7.25 17.67-3.16 5.97-7.35 11.74-13.27 16.49-4.75 3.78-10.16 7.3-15.98 10.46-9.08 4.95-18.67 8.98-28.49 12.2zm259.47-227.51c.75 32.92-7.23 60.2-26.11 91.05-17.15 28.03-43.24 53.91-79.9 75.41-.51.3-1.01.51-1.52.71l-.26.05c.05 4.85.2 9.65.51 14.4.31 5.11.76 10.16 1.38 15.16 1.17 9.75 2.91 19.2 5.15 28.34 2.25 9.13 5.01 17.97 8.23 26.54.82 2.15.66 4.39-.22 6.33-.85 1.94-2.49 3.53-4.64 4.34-2.14.82-4.38.67-6.33-.2-1.93-.87-3.52-2.5-4.33-4.65-3.48-9.24-6.44-18.68-8.84-28.48-2.4-9.8-4.29-19.86-5.51-30.22-1.28-10.31-1.94-20.99-1.99-32.02-.05-11.02.51-22.35 1.68-34.05.26-2.29 1.38-4.24 3.01-5.56a8.372 8.372 0 0 1 6.08-1.84h.05c2.25.26 4.19 1.38 5.52 3.01a8.46 8.46 0 0 1 1.83 6.07c-.25 2.71-.51 5.47-.71 8.28l-.36 5.15c30.99-19.45 53.2-42.42 67.85-67.03 16.64-27.92 23.64-51.83 22.82-81.49 0-.87.66-1.63 1.53-1.63h13.43c.65 0 1.22.4 1.46.97.16.4.18.93.19 1.36zm-147.92 52.61c-1.22 1.73-3.06 3.02-5.3 3.42-2.25.41-4.45-.15-6.19-1.33-7.29-5.14-3.26-20.4.77-26.64a30.44 30.44 0 0 1 5.92-6.69c8.33-7.15 19.7-9.49 30.23-6.64 6.63 1.89 11.43 4.54 14.7 7.81 10.29 10.3 5.28 24.69-.11 35.99-1.73 3.63-5.86 12.31-11.28 22.26-5.36 9.96-11.99 21.09-18.58 29.57-9.49 12.25-18.99 20.51-26.7 19.24-7.81-1.28-13.48-12.11-14.9-38.03v-.06c-.49-10.64 16.04-11.82 16.53-.76v.1c.57 10 2.14 14.34 4.24 15.11 1.89.71 4.7-1.84 7.71-5.77 6.02-7.77 12.15-18.23 17.26-27.57 5.05-9.39 9.08-17.72 10.71-21.19 1.85-3.87 4.9-10.46 4.4-14.8-.15-1.02-.77-2.04-1.95-2.96-4.85-3.77-12.53-4.67-18.12-1.99-4.79 2.3-8.04 6.27-8.32 11.69.17 3.46 1.24 5.9-1.02 9.24z"/></svg>