<svg id="Layer_1" data-name="Layer 1" xmlns="http://www.w3.org/2000/svg" viewBox="0 0 69.51 122.88"><defs><style>.cls-1{fill-rule:evenodd;}</style></defs><title>sculpture</title><path class="cls-1" d="M55,107.56c0-.15,0-.32,0-.46,1.29-13.74,20.5-30.63,12.59-43-2.13-3.34-6.86-4.07-10.47-5.71-5.54-2.52-9.29-5.09-11.61-8.16.22-.18.42-.37.63-.57a20,20,0,0,0,4.54-5.58,12.65,12.65,0,0,0,1.13-5.95l.41,0a3.14,3.14,0,0,0,2.06-.45l.1-.08a3.16,3.16,0,0,0,1-1.59c.56-1.46,1.14-3.08,1.61-4.57a5.21,5.21,0,0,0,.07-3,2.94,2.94,0,0,0-1.44-1.76,3.68,3.68,0,0,0-1.84-.4c5.11-8.46.2-22-10.06-22.55-8.12-8.12-25.17-2.13-32,9.79,4.86,1.4,3.54,6.94,3.12,11.78-1.6-.21-2.78.29-3.53,2.37a1.28,1.28,0,0,0-.07.28c0,.35-.08,1-.1,1.6s0,1.48,0,1.87v0a11.39,11.39,0,0,0,.82,3.72,5,5,0,0,0,2,2.47,3.79,3.79,0,0,0,1.85.49h.26a15,15,0,0,0,1.66,6.49,19.18,19.18,0,0,0,4.48,5.06c.44.39.89.75,1.35,1.09-2.34,2.82-6,5.23-11.17,7.6C8.77,60,4,60.73,1.9,64.07c-7.91,12.4,11.3,29.29,12.59,43,0,.14,0,.31,0,.46H28.58v9h-9v6.31H50v-6.31h-9v-9Z"/></svg>