<svg id="Layer_1" data-name="Layer 1" xmlns="http://www.w3.org/2000/svg" viewBox="0 0 122.88 94.69"><defs><style>.cls-1{fill-rule:evenodd;}</style></defs><title>self</title><path class="cls-1" d="M61.31,86.12a34.36,34.36,0,0,1-22.4,8.57c-21.49,0-38.91-21-38.91-47S17.42.7,38.91.7A34.09,34.09,0,0,1,60.07,8.25a47.65,47.65,0,0,1,6.57-4A36.49,36.49,0,0,1,102.2,5,41.31,41.31,0,0,1,112,12.93a42.2,42.2,0,0,1,7,10.3,39.53,39.53,0,0,1,3.53,11.6,34.13,34.13,0,0,1-3.67,21.07c-3.22,6-8.5,11.59-16.24,16.13l-.21.1c0,.86,0,1.72.1,2.57s.15,1.89.26,2.83a47.15,47.15,0,0,0,1,5.34,42.87,42.87,0,0,0,1.55,5,1.84,1.84,0,1,1-3.45,1.3A48.48,48.48,0,0,1,99.1,78a52.47,52.47,0,0,1-.38-6.11A59.5,59.5,0,0,1,99,65.42v-.09a1.77,1.77,0,0,1,.67-1.19,1.8,1.8,0,0,1,1.3-.41h.09a1.85,1.85,0,0,1,1.2.66,1.8,1.8,0,0,1,.4,1.35c0,.48-.09,1-.13,1.48l0,.52a37,37,0,0,0,13.23-13.94,30.59,30.59,0,0,0,3.11-18.48,35.77,35.77,0,0,0-3.22-10.53,38.68,38.68,0,0,0-6.34-9.39,37.62,37.62,0,0,0-8.93-7.2,32.83,32.83,0,0,0-31.72-.84c-6.47,3.16-13,8.51-19.27,16.56l5.4,2.36.19.1a1.85,1.85,0,0,1,.81,1.12,1.81,1.81,0,0,1-.19,1.36l0,.06a11.18,11.18,0,0,0-.87,1.77,14.55,14.55,0,0,0-.62,2,18.3,18.3,0,0,0-.39,2.2,22.77,22.77,0,0,0-.18,2.36c0,.71,0,1.3,0,1.81s0,.93,0,1.32a9.67,9.67,0,0,1-.16,2.94,22.74,22.74,0,0,1-1.73,4.19c-1,2.09-2.35,5.34-3.53,7.19a5.06,5.06,0,0,0-.53,1v0a3.09,3.09,0,0,0-.17.88,2,2,0,0,0,0,.36,1,1,0,0,0,.09.28,1.4,1.4,0,0,0,.12.18l0,0,.13.1a1,1,0,0,0,.23.11,1.06,1.06,0,0,0,.31,0c1.26.13,2.66.15,3.95.23l.19,0,.25,0h.18l3.62.31a1.86,1.86,0,0,1,1.25.64,1.88,1.88,0,0,1,.43,1.35h0a1.85,1.85,0,0,1-2,1.68c-.51-.06-1.07-.07-1.58-.1,0,1.58,0,3.14.16,4.73a13.37,13.37,0,0,0,1.29.4,8.41,8.41,0,0,0,1.39.26,5.56,5.56,0,0,0,1.29,0,3.37,3.37,0,0,0,1-.29l.07,0a1.81,1.81,0,0,1,1.37-.06,1.79,1.79,0,0,1,1.05.94h0a1.86,1.86,0,0,1-.87,2.45,6.8,6.8,0,0,1-2,.62,9,9,0,0,1-2.27,0,10.77,10.77,0,0,1-1.31-.21l-.67-.16,0,.33c.06.47.14,1,.23,1.48s.2,1,.3,1.51a1.71,1.71,0,0,1,0,.71,2,2,0,0,1-.23.63,14.21,14.21,0,0,0-.83,2,7.54,7.54,0,0,0-.34,1.69,3.57,3.57,0,0,0,.13,1.27A2.27,2.27,0,0,0,55,81a3.45,3.45,0,0,0,1.08.72,7.55,7.55,0,0,0,1.64.5,15.81,15.81,0,0,0,3.32.21A31.84,31.84,0,0,0,65.15,82c1.43-.26,2.95-.6,4.48-1a43.09,43.09,0,0,0,4.12-1.35,30.38,30.38,0,0,0,3.36-1.54,18.22,18.22,0,0,0,2.6-1.69,6.52,6.52,0,0,0,1.71-2.23,21.92,21.92,0,0,0,1.09-2.71c.17-.46.33-.94.51-1.4a42.12,42.12,0,0,1,1.6-4,9.81,9.81,0,0,1,2.46-3.51,1.85,1.85,0,0,1,2.59.33A1.83,1.83,0,0,1,90,64.28a1.87,1.87,0,0,1-.7,1.23A7.14,7.14,0,0,0,87.8,68c-.52,1.14-1,2.42-1.33,3.36-.17.43-.32.9-.48,1.34a23.76,23.76,0,0,1-1.4,3.4A9.87,9.87,0,0,1,82,79.28a20.86,20.86,0,0,1-3.07,2,33.92,33.92,0,0,1-3.85,1.77l-1.46.53c0,.34,0,.68,0,1s0,.92-.09,1.37c-.06.64-.15,1.27-.26,1.89s-.25,1.24-.41,1.83l0,.06A1.81,1.81,0,0,1,72,90.84a1.87,1.87,0,0,1-1.36.2l-.07,0a1.84,1.84,0,0,1-1.28-2.22v-.06c.14-.52.26-1,.35-1.55s.17-1,.22-1.57c0-.25.05-.51.06-.77V84.7c-.59.16-1.16.3-1.73.43-.81.18-1.61.34-2.39.48a32,32,0,0,1-4.49.51Zm10.5-46.27a1.37,1.37,0,1,1-1.36,2.37,7.59,7.59,0,0,0-3.8-1.09,7.77,7.77,0,0,0-3.84,1.09,1.36,1.36,0,1,1-1.34-2.37,10.43,10.43,0,0,1,5.18-1.46,10.32,10.32,0,0,1,5.16,1.46Zm-5.6,2.7a1.91,1.91,0,1,0,1.91,1.91,1.9,1.9,0,0,0-1.91-1.91ZM14.41,43a1.59,1.59,0,1,1-1.59,1.59A1.59,1.59,0,0,1,14.41,43ZM9.75,40.72a1.14,1.14,0,1,0,1.13,2,6.38,6.38,0,0,1,3.17-.91,6.49,6.49,0,0,1,3.19.91,1.13,1.13,0,0,0,1.55-.43,1.12,1.12,0,0,0-.43-1.54,8.66,8.66,0,0,0-4.31-1.22,8.51,8.51,0,0,0-4.3,1.22ZM16.1,79.19c-7.22-7.74-11.77-19-11.77-31.6,0-13.59,5.32-25.68,13.59-33.4l.09.14a57.4,57.4,0,0,1,12.2,12.1L25,28.72a.68.68,0,0,0-.21.1,1.21,1.21,0,0,0-.42,1.68A12.09,12.09,0,0,1,25.74,34a20.41,20.41,0,0,1,.53,4.18c0,1.28,0,2.16,0,2.84-.09,2.08-.11,2.6,1.65,6.2L31,53.44a1.11,1.11,0,0,0,.09.19,3.71,3.71,0,0,1,.71,2,1.58,1.58,0,0,1-.15.78,1.14,1.14,0,0,1-.39.45,1.41,1.41,0,0,1-.7.21h-.1l-3.51.21a1.09,1.09,0,0,0-.36-.06h-.12l-3.24.28a1.22,1.22,0,1,0,.2,2.44h.06l1.83-.11V60c0,1.59-.05,3.17-.17,4.77a11.84,11.84,0,0,1-2.78.71A4.22,4.22,0,0,1,20,65.2h0a1.23,1.23,0,0,0-1.07,2.21,6.64,6.64,0,0,0,3.64.55,12.68,12.68,0,0,0,2.33-.5c0,.32-.07.63-.11.94-.12.89-.28,1.8-.49,2.73a1.22,1.22,0,0,0,.16.9,9.45,9.45,0,0,1,1.09,3.51,2.81,2.81,0,0,1-.73,2.29A5,5,0,0,1,22.15,79a33.74,33.74,0,0,1-6,.15Z"/></svg>