<svg xmlns="http://www.w3.org/2000/svg" shape-rendering="geometricPrecision" text-rendering="geometricPrecision" image-rendering="optimizeQuality" fill-rule="evenodd" clip-rule="evenodd" viewBox="0 0 494 511.54"><path fill-rule="nonzero" d="M296.95 355.79c2.7-2.09 6.59-1.59 8.68 1.11a6.202 6.202 0 0 1-1.11 8.69c-6.9 5.3-13.78 24.24-17.74 35.14l-2.77 7.68c-4.19 11.95-9.1 25.94-21.34 35.71-10.44 8.35-23.9 15.3-38.34 20.89-3.32 1.28-6.68 2.5-10.08 3.64.23 5.56.06 11.12-.48 16.68-.69 7.08-1.97 14.03-3.78 20.83-1.04 3.87-5.01 6.17-8.88 5.13-3.87-1.03-6.17-5-5.13-8.87 1.64-6.17 2.79-12.33 3.39-18.45.34-3.59.51-7.23.48-10.91-9.43 2.62-18.81 4.71-27.61 6.29-27.01 4.85-51.35 5.85-66.01-1.4-16.31-8.06-21.46-24.35-7.64-53.06-.76-3.04-1.38-4.55-1.89-5.8-1.3-3.15-2.15-5.2-2.46-13.59a6.21 6.21 0 0 1 3.45-5.78l32.06-15.81-30.31-4.15c-3-.41-5.21-2.9-5.36-5.81-1.13-12.05-1.25-19.34-1.41-29.47l-.03-2-19.62-1.16c-4.44-.16-8.42-1.42-11.72-3.58l-.4-.29a20.97 20.97 0 0 1-6.98-8.09c-1.63-3.31-2.49-7.18-2.4-11.4.12-5.94 2.14-12.64 6.57-19.51l19.29-39.44c9.6-19.64 9.5-22.28 9.08-32.68-.18-4.52-.41-10.33-.13-19.01.34-10.29 1.49-20.14 3.72-29.37 1.7-7.05 4.02-13.73 7.08-19.97l-36.47-15.92a6.199 6.199 0 0 1-2.53-9.34C141.29 19.36 235.16-11.88 314.48 3.77c46.32 9.13 87.59 34.3 118.84 68.48 31.22 34.15 52.45 77.33 58.73 122.51 10.33 74.28-19.52 153.86-111.41 207.73-.71.42-1.47.68-2.24.79 0 11.92.7 23.46 2.07 34.64 2.59 21.2 7.56 41.07 14.6 59.76 1.41 3.75-.48 7.93-4.22 9.33-3.75 1.41-7.93-.48-9.34-4.22-7.46-19.81-12.72-40.8-15.44-63.11-2.72-22.24-2.93-45.88-.34-71.07.41-3.97 3.97-6.87 7.94-6.46 3.98.41 6.87 3.96 6.47 7.94a337.35 337.35 0 0 0-1.43 19.14c83.43-50.83 110.58-124.28 101.06-192.77-5.93-42.71-26.03-83.54-55.57-115.86-29.51-32.28-68.45-56.05-112.09-64.65-73.56-14.5-160.76 14.21-239.34 117.88l32.26 14.08c1.11-.1 2.25.05 3.35.49 21.38 8.62 51.05-.42 79.39-9.05 20.15-6.14 39.68-12.09 56.66-12.01.93-.06 1.87.04 2.81.35 3.8 1.25 5.87 5.35 4.62 9.16-9.17 27.8-8.18 48.33-.35 64.24 7.89 16.04 22.94 27.97 41.65 38.2 3.5 1.91 4.8 6.31 2.89 9.82-1.91 3.5-6.31 4.8-9.82 2.89-21.14-11.56-38.29-25.36-47.71-44.5-8.45-17.18-10.52-38.21-3.44-65.09-12.94 1.59-27.84 6.13-43.11 10.78-28.73 8.75-58.71 17.88-83.8 10.45-2.62 5.37-4.62 11.14-6.09 17.22-2.02 8.37-3.06 17.38-3.37 26.85-.27 8.19-.05 13.78.13 18.13.51 12.88.64 16.14-10.35 38.61l-19.36 39.58c-.13.3-.29.6-.48.88-3.21 4.93-4.68 9.47-4.75 13.29-.05 2.18.36 4.1 1.14 5.68a8.633 8.633 0 0 0 2.78 3.3l.28.17c1.44.95 3.24 1.51 5.29 1.6l.52.01 22.61 1.33c.64-.25 1.34-.39 2.07-.4l.63.02 20.54 1.74a6.206 6.206 0 1 1-1.02 12.37l-13.71-.81.02 1.08c.13 8.44.23 14.85.95 23.86l45.32 6.21c2.03.23 3.9 1.45 4.87 3.41 1.51 3.07.25 6.79-2.82 8.3l-46.51 22.95c.28 2.91.71 3.96 1.29 5.37.84 2.04 1.89 4.58 3.05 9.87l-.03.01c.3 1.33.16 2.77-.5 4.09-11.04 21.96-8.87 33.57 1.04 38.48 11.96 5.91 33.69 4.75 58.35.32 9.96-1.78 20.69-4.25 31.36-7.43a7.189 7.189 0 0 1 4.75-2.29c.73-.06 1.45-.01 2.14.14 3.9-1.28 7.76-2.65 11.55-4.12 13.32-5.16 25.66-11.5 35.1-19.04 9.45-7.55 13.72-19.71 17.36-30.08l1.77-5.01 1.04-2.82c4.42-12.15 12.08-33.24 21.82-40.72zM1.92 358.87c1.17-4.51 5.78-7.22 10.29-6.05 4.51 1.17 7.22 5.77 6.05 10.28-1.85 7.06-1.72 19-.42 30.93 1.4 12.93 4.12 25.33 7.14 31.12 2.16 4.12.56 9.22-3.57 11.37-4.13 2.16-9.23.56-11.38-3.57-3.99-7.62-7.39-22.37-9-37.13-1.49-13.66-1.5-27.81.89-36.95zm44.11 11.18c.73-4.6 5.06-7.74 9.66-7.01 4.61.73 7.75 5.05 7.02 9.66-1.07 6.6-1.15 14.9-.52 22.4.6 7.06 1.71 12.92 3.07 15.14 2.43 3.98 1.16 9.18-2.82 11.61-3.98 2.43-9.18 1.17-11.61-2.81-2.74-4.49-4.71-13.11-5.51-22.56-.73-8.58-.59-18.34.71-26.43zm107.11-126.31a10.905 10.905 0 0 0-2.86 7.36c0 6.02 4.88 10.9 10.9 10.9 6.02 0 10.9-4.88 10.9-10.9 0-2.72-1-5.21-2.65-7.12 4.92 1.06 9.86 2.97 14.82 5.56 3 1.56 6.7.4 8.26-2.6 1.57-3 .41-6.7-2.59-8.26-9.24-4.82-18.61-7.68-28.15-7.91-9.7-.23-19.4 2.24-29.1 8.08a6.145 6.145 0 0 0-2.09 8.43 6.157 6.157 0 0 0 8.44 2.09c4.75-2.87 9.46-4.69 14.12-5.63zm183.32 31.66c.72 3.93-1.88 7.71-5.81 8.42-3.93.72-7.7-1.88-8.42-5.81-.9-4.89-.62-9.52.57-13.74 1.68-5.96 5.16-11.09 9.75-14.97 4.44-3.77 9.98-6.39 15.92-7.48 4.95-.91 10.17-.75 15.26.68 13.81 3.89 19.69 10.88 20.94 19.82 1.1 7.82-1.94 16.28-6.16 25.14-3.7 7.81-17.97 37.56-32.06 55.74-19.77 25.52-38.96 34.77-41.92-19.35-.21-3.99 2.87-7.39 6.86-7.6 3.99-.2 7.4 2.87 7.6 6.87 1.28 23.49 8.56 20.84 16.01 11.23 13.13-16.95 26.85-45.56 30.41-53.07 3.17-6.67 5.51-12.71 4.91-16.97-.44-3.15-3.35-5.84-10.51-7.86a19.33 19.33 0 0 0-8.73-.4h-.03c-3.4.62-6.58 2.13-9.15 4.31-2.44 2.07-4.28 4.75-5.15 7.83-.62 2.19-.76 4.63-.29 7.21z"/></svg>