<svg xmlns="http://www.w3.org/2000/svg" shape-rendering="geometricPrecision" text-rendering="geometricPrecision" image-rendering="optimizeQuality" fill-rule="evenodd" clip-rule="evenodd" viewBox="0 0 471 511.77"><path d="m329.82 186.14-4.89-35.41-.26-.11c-31.83-13.88-62.53-19.58-92.23-18.93-29.6.66-58.32 7.62-86.3 19.08l-4.9 35.32c24.57-14 59.36-21.03 94.11-21.03 34.72 0 69.61 7.01 94.47 21.08zm10.55 9.25c1.37 9.64-4.89 24.98-11.48 32.24-2.66 2.85-5.66 4.9-8.91 5.7-4.2 13.45-6.81 26.08-15.85 37.53a72.698 72.698 0 0 1-5.26 5.99c-1.28 1.36-2.6 2.64-3.95 3.85.18 1.88.19 15.61.17 23.83 7.55 1.32 13.53 2.28 19.51 3.25 62.65 10.09 122.08 19.67 137.97 98.13l18.34 99.25a5.6 5.6 0 0 1-4.48 6.5l-1.01.09H351.23l-.37.02-.37-.02-230.72.02H5.6a5.604 5.604 0 0 1-5.44-6.93l13.58-82.78c18.25-92.87 65.89-102.15 136.01-115.8 8.07-1.58 16.46-3.21 24.79-4.97.59-.12 1.05-.14 1.47-.12V280.8l.05-2.72c-6.94-6.29-12.64-14.63-16.47-23.14-3.37-7.48-5.88-15.55-8.52-23.33-2.78-.36-5.38-1.65-7.71-3.55-9.38-7.7-13.23-22.21-12.94-33.71l.56.09 6.75-48.59-1.91-29.94c-.12-1.96-.18-3.82-.18-5.57 0-25 10.77-47.46 27.81-64.05 16.17-15.75 38.02-26.21 61.66-28.52v-4.88C225.11 5.8 230.91 0 238 0c7.09 0 12.89 5.8 12.89 12.89v5.45c21.24 3.11 40.48 12.95 55.1 27.27 17.35 17 28.21 40.32 28.21 66.25l-.87 33.86 6.73 48.72c.05.31.06.62.05.93l.26.02zm-55.25 108.25v-15.08c-29.67 18.61-58.62 19.97-90.16 3.62-3-1.57-6-3.29-9.04-5.23l.78 19.44c1.59 12.85 11.96 21.8 24.25 26.8 7.63 3.09 16.33 4.67 25 4.71 8.7.03 17.38-1.47 24.98-4.54 12.22-4.92 21.58-13.98 23.23-27.21.11-.93.45-1.79.96-2.51zM140.45 197.13c1.12 6 4.92 18.19 9.93 22.3 2.99 2.38 3.98-.29 7.2 1.43 2.74 1.5 3.36 5.19 4.31 7.94 2.39 7.07 4.67 14.27 7.68 21.1 4.87 10.87 11.38 18.61 20.78 25.79 28.09 21.33 65.27 22.24 93.19.07 4.36-3.44 8.35-7.35 11.86-11.82 3.07-3.84 5.27-7.93 7.05-12.43 3.23-7.99 5.33-16.61 7.94-24.84 1.58-6.1 6.33-2.01 10.46-6.55 4.33-4.93 8.41-16.49 9.93-22.85-23.5-15.48-59.45-23.18-95.43-23.18-35.97 0-71.75 7.7-94.9 23.04zm184.07-58.4.64-24.66.01-2.21c0-23.4-9.81-44.47-25.49-59.83-15.72-15.41-37.33-25.1-60.85-25.71l-3.84-.02c-2.07 0-4.05.07-5.91.18-22.75 1.46-43.9 11.22-59.35 26.26-15.36 14.95-25.07 35.16-25.07 57.6 0 1.75.06 3.42.16 5.01l1.5 23.63c27.8-10.91 56.38-17.5 85.91-18.15 29.82-.65 60.54 4.75 92.29 17.9zm-89-78.08c12.48 0 22.59 10.12 22.59 22.59 0 12.48-10.11 22.59-22.59 22.59-12.47 0-22.59-10.11-22.59-22.59 0-12.47 10.12-22.59 22.59-22.59zm12.96 340.93v-53.43c5.79-.85 11.4-2.33 16.61-4.42 13.28-5.36 23.99-14.7 28.38-28.13 5.5.95 12.48 2.08 19.39 3.19 58.7 9.46 114.38 18.44 128.75 89.22l8.04 43.5h-93.2v-50.5c0-3.08-2.5-5.59-5.59-5.59s-5.6 2.51-5.6 5.59v99.56H125.19v-99.56c0-3.08-2.51-5.59-5.6-5.59s-5.6 2.51-5.6 5.59v50.5H20.23l4.48-27.31c16.8-85.48 61.44-94.18 127.14-106.97 7.92-1.54 16.13-3.14 24.97-5 .2-.05.37-.1.52-.15 3.5 15.07 14.92 25.59 29.41 31.47 4.96 2.01 10.29 3.47 15.79 4.38v53.65h25.94zM15.81 478.45l-3.64 22.12h101.82v-22.12H15.81zm340.64 22.12h102.26l-4.08-22.12h-98.18v22.12z"/></svg>