<svg xmlns="http://www.w3.org/2000/svg" shape-rendering="geometricPrecision" text-rendering="geometricPrecision" image-rendering="optimizeQuality" fill-rule="evenodd" clip-rule="evenodd" viewBox="0 0 254 511.71"><path d="M95.3 487.07c0 13.5-11.15 24.64-24.64 24.64h-.01c-13.5 0-24.64-11.09-24.64-24.64V172.11h-8.62v123.91c0 10.26-8.43 18.69-18.69 18.69h-.01C8.44 314.71 0 306.3 0 296.02V162.66c-.04-21.67 7.3-36.88 20.58-46.88 10.37-7.82 41.43-12 74.72-12.76v384.05zm18.39-384.13c35.83.5 70.33 4.87 80.89 12.81 12.25 9.22 14.46 21.41 19.34 41.74.32.75.6 1.53.83 2.34l38.53 137.09c2.86 10.18-3.08 20.76-13.27 23.62-10.18 2.86-20.76-3.09-23.62-13.27l-38.03-135.3-.56.14h-7.97v8.59l50.73 179.45h-50.73v126.92c0 13.52-11.09 24.64-24.64 24.64-13.56 0-24.65-11.11-24.65-24.64V360.15h-6.85V102.94zM105.32 0c25.76 0 46.65 20.89 46.65 46.66 0 25.76-20.89 46.65-46.65 46.65-25.77 0-46.66-20.89-46.66-46.65C58.66 20.89 79.55 0 105.32 0z"/></svg>