<svg id="Layer_1" data-name="Layer 1" xmlns="http://www.w3.org/2000/svg" viewBox="0 0 116.69 122.88"><defs><style>.cls-1{fill-rule:evenodd;}</style></defs><title>woman-female</title><path class="cls-1" d="M27,70.87A21.21,21.21,0,0,1,17,64.6c6.66-2.51,9.72-10.37,10.15-22.15.32-8.75-1.49-16,1.49-24.62C34.56.73,56.4-5.11,68.58,4.89c9.54-1,19.16,3.91,21.23,18.62,1.55,11-1.74,22.38,1.73,32.51a15.75,15.75,0,0,0,8.14,9.63c-2.6,2.49-6.37,4.13-10.88,5.24-3.5.85-9.81,1.5-17.16,1.9v5.15l7.15,9.55L58.33,103.77,37.89,87.64l5.46-9.17V72.93c-7.12-.34-13.16-1-16.4-2.06ZM88.63,95.71A71.85,71.85,0,0,0,76.77,78.89c8.81,3.41,19.24,6.77,25.91,11,4.24,2.65,6.43,4.66,8.15,7.88,4.22,7.92,3.6,16.72,5.86,25.15H0c2.26-8.43,1.64-17.23,5.86-25.15C7.58,94.51,9.77,92.5,14,89.85c6.67-4.19,17.1-7.55,25.91-11A71.56,71.56,0,0,0,28.06,95.71l9.17-.23,20.6,16.45L79.45,95.48l9.18.23Z"/></svg>