<svg id="Layer_1" data-name="Layer 1" xmlns="http://www.w3.org/2000/svg" viewBox="0 0 115.65 122.88"><defs><style>.cls-1{fill-rule:evenodd;}</style></defs><title>young</title><path class="cls-1" d="M23.41,21.8C39.39,2,57.82-8.7,71.65,8.87,88.32,9.75,95,36.23,81.71,47.38c0,.22,0,.44-.08.66a7.22,7.22,0,0,1,1.54-.3,5.05,5.05,0,0,1,2.72.51,3.9,3.9,0,0,1,1.9,2.3,7.06,7.06,0,0,1-.09,4l-.06.17-2,5.73a4.35,4.35,0,0,1-1.32,2.16,3.85,3.85,0,0,1-2.82.68l-.58-.06c-.13,6.57-3.34,9.59-7.53,13.53,3.31,11.14,11.76,12.87,20,14.57,11.28,2.31,22.25,3.09,22.25,24.81v5.19a1.59,1.59,0,0,1-1.59,1.59H1.59A1.59,1.59,0,0,1,0,121.29V116.6C0,93.91,11.69,93.71,23.57,92c8.61-1.22,17.35-2.46,20.58-13.55L44,78.33,42.4,77l0,0c-4.11-3.54-7.54-6.51-8.19-13.72H33.8a4.87,4.87,0,0,1-2.42-.64,6.61,6.61,0,0,1-2.67-3.23,14.75,14.75,0,0,1-1.07-4.87v0c0-.51,0-1.5,0-2.44s.07-1.64.13-2.09a1.25,1.25,0,0,1,.11-.39c.86-2.41,2.18-3.19,3.92-3.14l-1.15-.76c-.62-7.78,1.2-21.28-7.24-23.83ZM36.62,92.23a38.83,38.83,0,0,0,21.54,5.71A37.41,37.41,0,0,0,80,90.43a19.45,19.45,0,0,1-9.08-11,17,17,0,0,1-5.41,3.23,17.1,17.1,0,0,1-12.43,1,17.8,17.8,0,0,1-5.55-2.18c-.28-.17-.56-.36-.84-.55-2.15,6.14-5.78,9.41-10.08,11.32Zm46.58-.34-.17.17a40.34,40.34,0,0,1-24.8,9,41.73,41.73,0,0,1-25.36-7.56A72.38,72.38,0,0,1,24,95.18C13.5,96.66,3.18,96.66,3.18,116.6v3.1H112.47v-3.6c0-19.14-9.71-19.67-19.7-21.71a62,62,0,0,1-9.57-2.5ZM70.4,75.16l.19-.18.58-.54c4.07-3.82,7.06-6.63,6.48-13.49a1.6,1.6,0,0,1,.27-1,1.58,1.58,0,0,1,2.19-.45,4.06,4.06,0,0,0,.85.44,2.2,2.2,0,0,0,.68.15,3.15,3.15,0,0,0,.69,0,3.41,3.41,0,0,0,.3-.74l2-5.71a3.91,3.91,0,0,0,.13-2.12.73.73,0,0,0-.37-.47,1.83,1.83,0,0,0-1-.14,5.75,5.75,0,0,0-2.82,1.17,1.55,1.55,0,0,1-1.24.32,1.58,1.58,0,0,1-1.3-1.83c1.5-8.72.81-14.4-1-18.27a15.57,15.57,0,0,0-7-7c-6.25,4.78-10.64,5.33-15,5.87-3.63.45-7.25.9-12,4.21a11.59,11.59,0,0,0-4.58,5.71,14.39,14.39,0,0,0-.2,7.79,1.58,1.58,0,0,1-2.07,1.93l-.23-.08c-.43-.16-.85-.32-1.21-.44-1.88-.66-3.21-1-3.72.21,0,.39-.07,1-.08,1.57,0,.86,0,1.75,0,2.22v0a11.53,11.53,0,0,0,.83,3.77,3.61,3.61,0,0,0,1.31,1.74,2,2,0,0,0,.9.23,4.6,4.6,0,0,0,1.3-.22,1.5,1.5,0,0,1,.47-.08,1.58,1.58,0,0,1,1.62,1.54c.17,7.16,3.34,9.91,7.19,13.23l0,0L46.08,76a21.11,21.11,0,0,0,7.83,4.62,18.66,18.66,0,0,0,6.19.2,19.53,19.53,0,0,0,4.07-1A20.33,20.33,0,0,0,69.53,76l.87-.83ZM67.75,46.74a2.63,2.63,0,1,1-2.62,2.63,2.63,2.63,0,0,1,2.62-2.63ZM55.11,62.43a1.17,1.17,0,0,1-.4-.78,1.11,1.11,0,0,1,.27-.84,1.14,1.14,0,0,1,1.63-.15,1.93,1.93,0,0,0,.57.33,2,2,0,0,0,.62.13,2.14,2.14,0,0,0,.64-.12,2.61,2.61,0,0,0,.58-.33l0,0a1.17,1.17,0,0,1,1.6.16l0,.05a1.15,1.15,0,0,1,.24.83,1.17,1.17,0,0,1-.42.78,4.48,4.48,0,0,1-1.3.74,4,4,0,0,1-1.44.26,4.47,4.47,0,0,1-1.4-.28,4.14,4.14,0,0,1-1.25-.73ZM47.88,46.74a2.63,2.63,0,1,1-2.63,2.63,2.63,2.63,0,0,1,2.63-2.63ZM49.3,66.32h16c1.49,0,1.88.73,1.38,1.82-4.29,9.68-18.43,4.91-18.61-.13a1.5,1.5,0,0,1,1.19-1.69ZM73.74,45.45a1.15,1.15,0,0,1-.24,1.6,1.13,1.13,0,0,1-1.59-.23A5.17,5.17,0,0,0,69,44.71,6.16,6.16,0,0,0,65.6,45a1.14,1.14,0,1,1-.72-2.17,8.28,8.28,0,0,1,4.62-.37,7.5,7.5,0,0,1,4.24,3Zm-27.59-3a8.28,8.28,0,0,1,4.62.37A1.14,1.14,0,1,1,50.05,45a6.06,6.06,0,0,0-3.38-.31,5.17,5.17,0,0,0-2.93,2.11,1.13,1.13,0,0,1-1.59.23,1.15,1.15,0,0,1-.24-1.6,7.43,7.43,0,0,1,4.24-3Zm5.1,27.27-.72-1.88H64.47l-.63,1.88Z"/></svg>