<?xml version="1.0" encoding="utf-8"?><svg version="1.1" id="Layer_1" xmlns="http://www.w3.org/2000/svg" xmlns:xlink="http://www.w3.org/1999/xlink" x="0px" y="0px" viewBox="0 0 123.12 123.12" style="enable-background:new 0 0 123.12 123.12" xml:space="preserve"><style type="text/css">.st0{fill-rule:evenodd;clip-rule:evenodd;fill:#E6E6E6;} .st1{fill:#393939;}</style><g><path class="st0" d="M61.56,20.87V0c34,0,61.56,27.56,61.56,61.56s-27.56,61.56-61.56,61.56S0,95.56,0,61.56S27.56,0,61.56,0V20.87 c0.11,0,0.22,0,0.33,0c22.48,0,40.7,18.22,40.7,40.7c0,22.48-18.22,40.7-40.7,40.7c-22.48,0-40.7-18.22-40.7-40.7 C21.19,39.19,39.23,21.04,61.56,20.87L61.56,20.87z"/><path class="st1" d="M33.42,62.19c0-5.64,1.02-9.59,3.05-11.84c2.03-2.25,5.12-3.38,9.28-3.38c2,0,3.64,0.25,4.92,0.74 c1.28,0.49,2.33,1.13,3.14,1.92c0.81,0.79,1.45,1.62,1.91,2.49c0.46,0.87,0.84,1.89,1.13,3.05c0.55,2.22,0.83,4.52,0.83,6.92 c0,5.38-0.91,9.32-2.74,11.82c-1.82,2.49-4.95,3.74-9.41,3.74c-2.49,0-4.51-0.4-6.05-1.2c-1.54-0.79-2.8-1.95-3.78-3.49 c-0.71-1.1-1.27-2.59-1.66-4.48C33.62,66.58,33.42,64.49,33.42,62.19L33.42,62.19z M41.6,62.21c0,3.78,0.33,6.35,1,7.74 c0.67,1.39,1.64,2.08,2.9,2.08c0.84,0,1.56-0.3,2.18-0.88c0.61-0.59,1.06-1.51,1.35-2.78c0.29-1.27,0.44-3.25,0.44-5.93 c0-3.94-0.33-6.58-1-7.94c-0.67-1.35-1.67-2.03-3-2.03c-1.36,0-2.35,0.69-2.95,2.07C41.9,55.91,41.6,58.48,41.6,62.21L41.6,62.21z"/><path class="st1" d="M80.18,50.49h3.32L70.16,75.15h-3.29L80.18,50.49L80.18,50.49z M60.57,56.55c0-1.07,0.23-2.09,0.7-3.06 c0.47-0.96,1.18-1.7,2.14-2.23c0.96-0.52,2.1-0.78,3.41-0.78c1.93,0,3.46,0.55,4.57,1.65c1.11,1.1,1.67,2.57,1.67,4.41 c0,1.84-0.55,3.32-1.67,4.42c-1.11,1.1-2.64,1.66-4.57,1.66c-1.31,0-2.45-0.26-3.41-0.78c-0.96-0.52-1.68-1.26-2.14-2.23 C60.8,58.66,60.57,57.63,60.57,56.55L60.57,56.55z M64.99,56.59c0,1.3,0.21,2.25,0.63,2.83c0.27,0.39,0.68,0.58,1.2,0.58 c0.53,0,0.92-0.19,1.18-0.58c0.42-0.59,0.63-1.53,0.63-2.83c0-1.3-0.21-2.24-0.63-2.84c-0.26-0.38-0.66-0.56-1.18-0.56 c-0.52,0-0.92,0.19-1.2,0.56C65.2,54.33,64.99,55.28,64.99,56.59L64.99,56.59z M77.21,69.04c0-1.08,0.23-2.1,0.69-3.06 c0.46-0.96,1.18-1.7,2.14-2.22c0.97-0.53,2.1-0.79,3.4-0.79c1.94,0,3.47,0.55,4.58,1.66c1.11,1.11,1.67,2.58,1.67,4.42 c0,1.84-0.56,3.31-1.67,4.42c-1.11,1.11-2.64,1.66-4.58,1.66c-1.3,0-2.43-0.26-3.4-0.79c-0.96-0.52-1.68-1.26-2.14-2.22 C77.44,71.14,77.21,70.12,77.21,69.04L77.21,69.04z M81.64,69.07c0,1.3,0.21,2.25,0.63,2.83c0.26,0.38,0.66,0.57,1.18,0.57 c0.52,0,0.92-0.19,1.2-0.57c0.42-0.59,0.63-1.53,0.63-2.83c0-1.3-0.21-2.25-0.63-2.85c-0.27-0.38-0.68-0.57-1.2-0.57 c-0.53,0-0.92,0.19-1.18,0.59C81.85,66.83,81.64,67.77,81.64,69.07L81.64,69.07z"/></g></svg>