<?xml version="1.0" encoding="utf-8"?><svg version="1.1" id="Layer_1" xmlns="http://www.w3.org/2000/svg" xmlns:xlink="http://www.w3.org/1999/xlink" x="0px" y="0px" viewBox="0 0 122.88 122.88" style="enable-background:new 0 0 122.88 122.88" xml:space="preserve"><style type="text/css">.st0{fill-rule:evenodd;clip-rule:evenodd;fill:#E6E6E6;} .st1{fill-rule:evenodd;clip-rule:evenodd;fill:#D8453E;} .st2{fill:#393939;}</style><g><path class="st0" d="M61.44,0c33.93,0,61.44,27.51,61.44,61.44s-27.51,61.44-61.44,61.44S0,95.37,0,61.44 C0,29.43,24.48,3.14,55.74,0.27c-8.8,0.82-17.33,3.53-25.02,7.97L41.21,26.4l0.09-0.05C29.25,33.4,21.15,46.47,21.15,61.44 c0,22.43,18.19,40.62,40.62,40.62c22.43,0,40.62-18.19,40.62-40.62S84.2,20.82,61.77,20.82c-0.11,0-0.22,0-0.33,0 c-0.8,0.01-1.59,0.01,0,0V0z M56.3,0.22c0.23-0.02,0.46-0.04,0.68-0.05C56.76,0.18,56.53,0.2,56.3,0.22L56.3,0.22z M41.44,26.27 C42.54,25.63,41.98,25.96,41.44,26.27L41.44,26.27z"/><path class="st1" d="M41.21,26.4L30.72,8.23C40.06,2.84,50.66,0,61.44,0v20.82C54.06,20.88,47.15,22.91,41.21,26.4L41.21,26.4z"/><path class="st2" d="M55.37,45.73v29.79h-8.22V56.03c-1.33,1.01-2.62,1.82-3.87,2.44c-1.25,0.62-2.81,1.22-4.69,1.79v-6.63 c2.77-0.9,4.92-1.98,6.45-3.23c1.53-1.26,2.73-2.82,3.6-4.66H55.37L55.37,45.73z M60.35,60.75c0-5.56,1-9.46,3.01-11.68 c2-2.22,5.06-3.33,9.16-3.33c1.97,0,3.59,0.25,4.86,0.73c1.27,0.48,2.3,1.12,3.1,1.9c0.8,0.78,1.43,1.6,1.89,2.46 c0.46,0.86,0.83,1.86,1.11,3.01c0.54,2.18,0.82,4.46,0.82,6.83c0,5.31-0.9,9.2-2.7,11.66c-1.8,2.46-4.89,3.7-9.29,3.7 c-2.46,0-4.45-0.4-5.97-1.18c-1.52-0.78-2.76-1.94-3.74-3.46c-0.7-1.08-1.26-2.55-1.65-4.42C60.54,65.08,60.35,63.01,60.35,60.75 L60.35,60.75z M68.41,60.76c0,3.72,0.33,6.27,0.99,7.64c0.66,1.36,1.62,2.05,2.87,2.05c0.83,0,1.54-0.29,2.15-0.87 c0.61-0.58,1.05-1.5,1.34-2.75c0.29-1.25,0.43-3.21,0.43-5.85c0-3.89-0.33-6.5-0.99-7.84c-0.66-1.34-1.65-2-2.97-2 c-1.35,0-2.32,0.68-2.92,2.05C68.71,54.54,68.41,57.07,68.41,60.76L68.41,60.76z"/></g></svg>