<?xml version="1.0" encoding="utf-8"?><svg version="1.1" id="Layer_1" xmlns="http://www.w3.org/2000/svg" xmlns:xlink="http://www.w3.org/1999/xlink" x="0px" y="0px" viewBox="0 0 122.88 122.88" style="enable-background:new 0 0 122.88 122.88" xml:space="preserve"><style type="text/css">.st0{fill-rule:evenodd;clip-rule:evenodd;fill:#D8453E;} .st1{fill:#393939;}</style><g><path class="st0" d="M92.16,8.23c19.01,10.97,30.72,31.26,30.72,53.21c0,33.93-27.51,61.44-61.44,61.44S0,95.37,0,61.44 S27.51,0,61.44,0C72.7,0,83.25,3.03,92.33,8.32h-0.01L92.16,8.23L92.16,8.23z M61.44,20.82C39.16,21,21.15,39.12,21.15,61.44 c0,22.43,18.19,40.62,40.62,40.62c22.43,0,40.62-18.19,40.62-40.62c0-15.13-8.28-28.33-20.55-35.32c-5.92-3.37-12.77-5.3-20.07-5.3 C61.66,20.82,61.55,20.82,61.44,20.82L61.44,20.82z"/><path class="st1" d="M43.95,46.54v29.31h-8.09V56.68c-1.31,0.99-2.58,1.79-3.8,2.4c-1.23,0.61-2.76,1.2-4.61,1.76v-6.52 c2.72-0.89,4.84-1.95,6.35-3.18c1.51-1.24,2.69-2.77,3.54-4.59H43.95L43.95,46.54z M46.92,61.32c0-5.48,0.99-9.31,2.96-11.49 c1.97-2.19,4.98-3.28,9.01-3.28c1.94,0,3.54,0.24,4.78,0.72c1.25,0.48,2.26,1.1,3.05,1.87c0.79,0.77,1.41,1.57,1.86,2.42 c0.45,0.85,0.82,1.83,1.09,2.96c0.53,2.15,0.81,4.39,0.81,6.72c0,5.23-0.89,9.05-2.66,11.47c-1.77,2.42-4.81,3.64-9.14,3.64 c-2.42,0-4.38-0.39-5.88-1.16c-1.49-0.77-2.71-1.91-3.68-3.4c-0.68-1.06-1.24-2.51-1.62-4.35C47.11,65.58,46.92,63.55,46.92,61.32 L46.92,61.32z M54.85,61.33c0,3.66,0.32,6.17,0.97,7.51c0.65,1.34,1.59,2.01,2.82,2.01c0.81,0,1.52-0.28,2.11-0.85 c0.6-0.57,1.04-1.48,1.31-2.7c0.28-1.23,0.42-3.15,0.42-5.76c0-3.82-0.32-6.4-0.97-7.72c-0.65-1.31-1.62-1.97-2.92-1.97 c-1.33,0-2.28,0.67-2.87,2.01C55.14,55.21,54.85,57.7,54.85,61.33L54.85,61.33z M71.89,61.32c0-5.48,0.99-9.31,2.96-11.49 c1.97-2.19,4.98-3.28,9.01-3.28c1.94,0,3.54,0.24,4.78,0.72c1.25,0.48,2.26,1.1,3.05,1.87c0.79,0.77,1.41,1.57,1.86,2.42 c0.45,0.85,0.82,1.83,1.09,2.96c0.53,2.15,0.81,4.39,0.81,6.72c0,5.23-0.89,9.05-2.66,11.47c-1.77,2.42-4.81,3.64-9.14,3.64 c-2.42,0-4.38-0.39-5.88-1.16c-1.49-0.77-2.71-1.91-3.68-3.4c-0.68-1.06-1.24-2.51-1.62-4.35C72.08,65.58,71.89,63.55,71.89,61.32 L71.89,61.32z M79.82,61.33c0,3.66,0.32,6.17,0.97,7.51c0.65,1.34,1.59,2.01,2.83,2.01c0.81,0,1.52-0.28,2.11-0.85 c0.6-0.57,1.04-1.48,1.31-2.7c0.28-1.23,0.42-3.15,0.42-5.76c0-3.82-0.32-6.4-0.97-7.72c-0.65-1.31-1.62-1.97-2.92-1.97 c-1.33,0-2.28,0.67-2.87,2.01C80.11,55.21,79.82,57.7,79.82,61.33L79.82,61.33z"/></g></svg>