<?xml version="1.0" encoding="utf-8"?><svg version="1.1" id="Layer_1" xmlns="http://www.w3.org/2000/svg" xmlns:xlink="http://www.w3.org/1999/xlink" x="0px" y="0px" viewBox="0 0 122.88 122.88" style="enable-background:new 0 0 122.88 122.88" xml:space="preserve"><style type="text/css">.st0{fill-rule:evenodd;clip-rule:evenodd;fill:#E6E6E6;} .st1{fill-rule:evenodd;clip-rule:evenodd;fill:#D8453E;} .st2{fill:#393939;}</style><g><path class="st0" d="M61.44,0c33.93,0,61.44,27.51,61.44,61.44s-27.51,61.44-61.44,61.44S0,95.37,0,61.44 C0,44.42,6.92,29.02,18.1,17.9L18,18l14.89,14.89l0.01-0.01c-7.26,7.34-11.74,17.43-11.74,28.57c0,22.43,18.19,40.62,40.62,40.62 c22.43,0,40.62-18.19,40.62-40.62S84.2,20.82,61.77,20.82c-0.11,0-0.22,0-0.33,0c-0.78,0.01-1.58,0.01,0,0V0z M33.03,32.73 c0.19-0.19,0.37-0.37,0.56-0.55C33.4,32.37,33.22,32.55,33.03,32.73L33.03,32.73z"/><path class="st1" d="M32.88,32.88L18,18C29.52,6.47,45.14,0,61.44,0v20.82C50.27,20.91,40.18,25.51,32.88,32.88L32.88,32.88z"/><path class="st2" d="M54.29,45.73v29.79h-8.22V56.03c-1.33,1.01-2.62,1.82-3.87,2.44c-1.25,0.62-2.81,1.22-4.69,1.79v-6.63 c2.77-0.9,4.92-1.98,6.45-3.23c1.53-1.26,2.73-2.82,3.6-4.66H54.29L54.29,45.73z M64.66,46.22h19.31v6.51H70.9l-0.7,4.39 c0.9-0.42,1.79-0.74,2.68-0.95c0.89-0.21,1.76-0.32,2.63-0.32c2.93,0,5.31,0.89,7.13,2.66c1.82,1.77,2.73,4,2.73,6.69 c0,1.89-0.47,3.7-1.41,5.45c-0.94,1.75-2.27,3.08-4,4c-1.73,0.92-3.94,1.38-6.62,1.38c-1.93,0-3.59-0.18-4.96-0.55 c-1.38-0.36-2.55-0.91-3.51-1.64c-0.97-0.73-1.75-1.55-2.35-2.47c-0.6-0.92-1.1-2.07-1.5-3.44l8.22-0.9 c0.2,1.32,0.67,2.33,1.4,3.02c0.74,0.69,1.61,1.03,2.62,1.03c1.14,0,2.07-0.43,2.81-1.29c0.74-0.86,1.11-2.14,1.11-3.85 c0-1.75-0.38-3.02-1.12-3.83c-0.74-0.81-1.74-1.22-2.97-1.22c-0.78,0-1.55,0.19-2.28,0.58c-0.55,0.28-1.15,0.78-1.79,1.52l-6.94-1 L64.66,46.22L64.66,46.22z"/></g></svg>