<?xml version="1.0" encoding="utf-8"?><svg version="1.1" id="Layer_1" xmlns="http://www.w3.org/2000/svg" xmlns:xlink="http://www.w3.org/1999/xlink" x="0px" y="0px" viewBox="0 0 122.88 122.88" style="enable-background:new 0 0 122.88 122.88" xml:space="preserve"><style type="text/css">.st0{fill-rule:evenodd;clip-rule:evenodd;fill:#E6E6E6;} .st1{fill-rule:evenodd;clip-rule:evenodd;fill:#D8453E;} .st2{fill:#393939;}</style><g><path class="st0" d="M61.44,0c33.93,0,61.44,27.51,61.44,61.44s-27.51,61.44-61.44,61.44S0,95.37,0,61.44 c0-11.22,3.01-21.73,8.26-30.78h0.01l-0.03,0.06L26.5,41.27c0.14-0.24,0.28-0.48,0.42-0.72c-3.67,6.1-5.78,13.25-5.78,20.89 c0,22.43,18.19,40.62,40.62,40.62c22.43,0,40.62-18.19,40.62-40.62S84.2,20.82,61.77,20.82c-0.11,0-0.22,0-0.33,0 c-0.72,0.01-1.45,0.01,0,0V0L61.44,0z"/><path class="st1" d="M26.5,41.27L8.23,30.72C19.21,11.71,39.49,0,61.44,0v20.82C46.49,20.94,33.46,29.14,26.5,41.27L26.5,41.27z"/><path class="st2" d="M60.15,75.52H35.73c0.28-2.41,1.13-4.68,2.55-6.8c1.42-2.13,4.08-4.64,7.98-7.53 c2.39-1.77,3.91-3.12,4.59-4.04c0.67-0.92,1-1.79,1-2.62c0-0.89-0.33-1.66-0.99-2.29c-0.66-0.63-1.49-0.95-2.5-0.95 c-1.04,0-1.89,0.33-2.55,0.98c-0.66,0.66-1.1,1.81-1.33,3.48l-8.14-0.66c0.32-2.3,0.91-4.08,1.76-5.37 c0.85-1.29,2.05-2.27,3.6-2.96c1.56-0.69,3.7-1.03,6.44-1.03c2.86,0,5.09,0.33,6.68,0.98c1.59,0.65,2.84,1.65,3.75,3 c0.91,1.36,1.37,2.87,1.37,4.55c0,1.78-0.53,3.48-1.57,5.12c-1.04,1.62-2.95,3.41-5.71,5.35c-1.64,1.13-2.73,1.93-3.29,2.38 c-0.55,0.46-1.2,1.04-1.95,1.78h12.72V75.52L60.15,75.52z M63.22,60.75c0-5.56,1-9.46,3.01-11.68c2-2.22,5.06-3.33,9.16-3.33 c1.97,0,3.59,0.25,4.86,0.73c1.27,0.48,2.3,1.12,3.1,1.9c0.8,0.78,1.43,1.6,1.89,2.46c0.46,0.86,0.83,1.86,1.11,3.01 c0.55,2.18,0.82,4.46,0.82,6.83c0,5.31-0.9,9.2-2.7,11.66c-1.79,2.46-4.89,3.7-9.29,3.7c-2.46,0-4.45-0.4-5.97-1.18 c-1.52-0.78-2.76-1.94-3.74-3.46c-0.7-1.08-1.25-2.55-1.65-4.42C63.41,65.08,63.22,63.01,63.22,60.75L63.22,60.75z M71.28,60.76 c0,3.72,0.33,6.27,0.99,7.64c0.66,1.36,1.62,2.05,2.87,2.05c0.83,0,1.54-0.29,2.15-0.87c0.61-0.58,1.05-1.5,1.34-2.75 c0.29-1.25,0.43-3.21,0.43-5.85c0-3.89-0.33-6.5-0.99-7.84c-0.66-1.34-1.65-2-2.97-2c-1.35,0-2.32,0.68-2.92,2.05 C71.58,54.54,71.28,57.07,71.28,60.76L71.28,60.76z"/></g></svg>