<?xml version="1.0" encoding="utf-8"?><svg version="1.1" id="Layer_1" xmlns="http://www.w3.org/2000/svg" xmlns:xlink="http://www.w3.org/1999/xlink" x="0px" y="0px" viewBox="0 0 122.88 122.88" style="enable-background:new 0 0 122.88 122.88" xml:space="preserve"><style type="text/css">.st0{fill-rule:evenodd;clip-rule:evenodd;fill:#E6E6E6;} .st1{fill-rule:evenodd;clip-rule:evenodd;fill:#D8453E;} .st2{fill:#393939;}</style><g><path class="st0" d="M61.44,0c33.93,0,61.44,27.51,61.44,61.44s-27.51,61.44-61.44,61.44S0,95.37,0,61.44h21.15 c0,22.43,18.19,40.62,40.62,40.62c22.43,0,40.62-18.19,40.62-40.62S84.2,20.82,61.77,20.82c-0.11,0-0.22,0-0.33,0V0z"/><path class="st1" d="M21.15,61.44H0C0,27.51,27.51,0,61.44,0v20.82C39.16,21,21.15,39.12,21.15,61.44L21.15,61.44z"/><path class="st2" d="M60.46,75.52H36.03c0.28-2.41,1.13-4.68,2.55-6.8c1.42-2.13,4.08-4.64,7.98-7.53 c2.39-1.77,3.91-3.12,4.59-4.04c0.67-0.92,1-1.79,1-2.62c0-0.89-0.33-1.66-0.99-2.29c-0.66-0.63-1.49-0.95-2.5-0.95 c-1.04,0-1.89,0.33-2.55,0.98c-0.66,0.66-1.1,1.81-1.33,3.48l-8.14-0.66c0.32-2.3,0.91-4.08,1.76-5.37 c0.85-1.29,2.05-2.27,3.6-2.96c1.56-0.69,3.7-1.03,6.44-1.03c2.86,0,5.09,0.33,6.68,0.98c1.59,0.65,2.84,1.65,3.75,3 c0.91,1.36,1.37,2.87,1.37,4.55c0,1.78-0.53,3.48-1.57,5.12c-1.04,1.62-2.95,3.41-5.71,5.35c-1.64,1.13-2.73,1.93-3.29,2.38 c-0.55,0.46-1.2,1.04-1.95,1.78h12.72V75.52L60.46,75.52z M66.15,46.22h19.31v6.51H72.38l-0.7,4.39c0.9-0.42,1.79-0.74,2.68-0.95 c0.89-0.21,1.76-0.32,2.63-0.32c2.93,0,5.31,0.89,7.13,2.66c1.82,1.77,2.73,4,2.73,6.69c0,1.89-0.47,3.7-1.41,5.45 c-0.94,1.75-2.27,3.08-4,4c-1.73,0.92-3.94,1.38-6.62,1.38c-1.93,0-3.59-0.18-4.96-0.55c-1.38-0.36-2.55-0.91-3.51-1.64 c-0.97-0.73-1.75-1.55-2.35-2.47c-0.6-0.92-1.1-2.07-1.5-3.44l8.22-0.9c0.2,1.32,0.67,2.33,1.4,3.02c0.74,0.69,1.61,1.03,2.62,1.03 c1.14,0,2.07-0.43,2.81-1.29c0.74-0.86,1.11-2.14,1.11-3.85c0-1.75-0.38-3.02-1.12-3.83c-0.74-0.81-1.74-1.22-2.97-1.22 c-0.78,0-1.55,0.19-2.28,0.58c-0.55,0.28-1.15,0.78-1.79,1.52l-6.94-1L66.15,46.22L66.15,46.22z"/></g></svg>