<?xml version="1.0" encoding="utf-8"?><svg version="1.1" id="Layer_1" xmlns="http://www.w3.org/2000/svg" xmlns:xlink="http://www.w3.org/1999/xlink" x="0px" y="0px" viewBox="0 0 122.88 122.88" style="enable-background:new 0 0 122.88 122.88" xml:space="preserve"><style type="text/css">.st0{fill-rule:evenodd;clip-rule:evenodd;fill:#E6E6E6;} .st1{fill-rule:evenodd;clip-rule:evenodd;fill:#D8453E;} .st2{fill:#393939;}</style><g><path class="st0" d="M61.44,0c33.93,0,61.44,27.51,61.44,61.44s-27.51,61.44-61.44,61.44c-22.75,0-42.61-12.37-53.23-30.75h0 l0.02,0.03L26.5,81.61c-0.14-0.25-0.28-0.5-0.42-0.76c6.89,12.63,20.29,21.2,35.69,21.2c22.43,0,40.62-18.19,40.62-40.62 S84.2,20.82,61.77,20.82c-0.11,0-0.22,0-0.33,0V0L61.44,0z M26.03,80.76C25.71,80.16,25.39,79.57,26.03,80.76L26.03,80.76z"/><path class="st1" d="M26.5,81.61L8.23,92.16C2.84,82.82,0,72.22,0,61.44C0,27.51,27.51,0,61.44,0v20.82 C39.16,21,21.15,39.12,21.15,61.44C21.15,68.78,23.1,75.67,26.5,81.61L26.5,81.61z"/><path class="st2" d="M48.48,54.69l-7.73-1.38c0.64-2.45,1.88-4.34,3.71-5.65c1.83-1.31,4.41-1.96,7.76-1.96 c3.84,0,6.62,0.71,8.33,2.14c1.71,1.43,2.57,3.23,2.57,5.39c0,1.27-0.35,2.42-1.04,3.45c-0.7,1.03-1.75,1.93-3.15,2.71 c1.14,0.28,2.01,0.6,2.61,0.98c0.97,0.6,1.73,1.39,2.27,2.38c0.54,0.98,0.82,2.15,0.82,3.51c0,1.71-0.45,3.35-1.34,4.92 c-0.9,1.57-2.19,2.78-3.88,3.62c-1.69,0.85-3.9,1.27-6.65,1.27c-2.68,0-4.79-0.31-6.33-0.94c-1.54-0.63-2.82-1.54-3.82-2.76 c-0.99-1.21-1.76-2.73-2.3-4.56l8.17-1.08c0.32,1.64,0.82,2.78,1.5,3.42c0.68,0.64,1.53,0.95,2.58,0.95c1.1,0,2.01-0.4,2.74-1.2 c0.73-0.8,1.1-1.87,1.1-3.21c0-1.36-0.35-2.42-1.06-3.17c-0.71-0.75-1.66-1.12-2.86-1.12c-0.64,0-1.52,0.16-2.64,0.49l0.42-5.83 c0.46,0.07,0.81,0.1,1.06,0.1c1.08,0,1.97-0.34,2.69-1.03c0.71-0.68,1.07-1.48,1.07-2.42c0-0.9-0.27-1.61-0.8-2.15 c-0.53-0.53-1.27-0.8-2.21-0.8c-0.97,0-1.75,0.29-2.35,0.87C49.11,52.22,48.69,53.24,48.48,54.69L48.48,54.69z M66.73,60.76 c0-5.59,1.01-9.49,3.02-11.72c2.01-2.23,5.08-3.34,9.2-3.34c1.98,0,3.61,0.25,4.88,0.73c1.27,0.49,2.31,1.12,3.11,1.9 c0.8,0.78,1.44,1.6,1.9,2.46c0.46,0.86,0.84,1.87,1.12,3.02c0.55,2.19,0.82,4.48,0.82,6.85c0,5.33-0.9,9.23-2.71,11.7 c-1.8,2.47-4.91,3.71-9.33,3.71c-2.47,0-4.47-0.4-6-1.18c-1.53-0.79-2.77-1.93-3.75-3.46c-0.71-1.09-1.26-2.56-1.65-4.44 C66.93,65.1,66.73,63.03,66.73,60.76L66.73,60.76z M74.84,60.78c0,3.74,0.33,6.29,0.99,7.66c0.66,1.37,1.62,2.06,2.88,2.06 c0.83,0,1.55-0.29,2.16-0.88c0.61-0.58,1.06-1.5,1.34-2.75c0.29-1.26,0.43-3.21,0.43-5.87c0-3.9-0.33-6.52-0.99-7.86 c-0.66-1.34-1.66-2.01-2.98-2.01c-1.35,0-2.33,0.68-2.93,2.05C75.14,54.55,74.84,57.08,74.84,60.78L74.84,60.78z"/></g></svg>