<?xml version="1.0" encoding="utf-8"?><svg version="1.1" id="Layer_1" xmlns="http://www.w3.org/2000/svg" xmlns:xlink="http://www.w3.org/1999/xlink" x="0px" y="0px" viewBox="0 0 122.88 122.88" style="enable-background:new 0 0 122.88 122.88" xml:space="preserve"><style type="text/css">.st0{fill-rule:evenodd;clip-rule:evenodd;fill:#E6E6E6;} .st1{fill-rule:evenodd;clip-rule:evenodd;fill:#D8453E;} .st2{fill:#393939;}</style><g><path class="st0" d="M61.44,0c33.93,0,61.44,27.51,61.44,61.44s-27.51,61.44-61.44,61.44c-22.75,0-42.6-12.37-53.22-30.74h0 l0.01,0.02L26.5,81.61c-0.14-0.25-0.28-0.5-0.42-0.76c6.89,12.63,20.29,21.2,35.69,21.2c22.43,0,40.62-18.19,40.62-40.62 S84.2,20.82,61.77,20.82c-0.11,0-0.22,0-0.33,0V0L61.44,0z M26.03,80.76C25.71,80.16,25.39,79.57,26.03,80.76L26.03,80.76z"/><path class="st1" d="M26.5,81.61L8.23,92.16C2.84,82.82,0,72.22,0,61.44C0,27.51,27.51,0,61.44,0v20.82 C39.16,21,21.15,39.12,21.15,61.44C21.15,68.78,23.1,75.67,26.5,81.61L26.5,81.61z"/><path class="st2" d="M44.35,54.69l-7.69-1.37c0.64-2.45,1.86-4.32,3.68-5.63c1.81-1.3,4.39-1.96,7.71-1.96 c3.82,0,6.57,0.71,8.28,2.13c1.7,1.43,2.55,3.22,2.55,5.37c0,1.26-0.35,2.41-1.04,3.43c-0.69,1.02-1.73,1.92-3.12,2.69 c1.13,0.28,2,0.61,2.59,0.98c0.98,0.6,1.73,1.39,2.26,2.37c0.54,0.98,0.81,2.15,0.81,3.51c0,1.71-0.44,3.34-1.34,4.91 c-0.89,1.56-2.18,2.77-3.85,3.61c-1.68,0.85-3.88,1.27-6.62,1.27c-2.66,0-4.76-0.31-6.29-0.94c-1.54-0.63-2.8-1.54-3.8-2.75 c-0.99-1.21-1.75-2.73-2.28-4.56l8.14-1.08c0.32,1.64,0.81,2.79,1.49,3.42c0.67,0.63,1.52,0.95,2.56,0.95c1.08,0,1.99-0.4,2.72-1.2 c0.72-0.8,1.08-1.86,1.08-3.2c0-1.36-0.35-2.41-1.04-3.16c-0.7-0.74-1.64-1.12-2.84-1.12c-0.63,0-1.51,0.16-2.63,0.48l0.42-5.82 c0.44,0.07,0.79,0.1,1.04,0.1c1.05,0,1.93-0.34,2.63-1.02c0.7-0.68,1.06-1.47,1.06-2.4c0-0.89-0.27-1.6-0.79-2.13 c-0.53-0.53-1.26-0.8-2.18-0.8c-0.95,0-1.73,0.29-2.33,0.87C44.97,52.24,44.56,53.25,44.35,54.69L44.35,54.69z M65.96,46.22h19.31 v6.51H72.2l-0.7,4.39c0.9-0.42,1.79-0.74,2.68-0.95c0.89-0.21,1.76-0.32,2.63-0.32c2.93,0,5.31,0.89,7.13,2.66 c1.82,1.77,2.73,4,2.73,6.69c0,1.89-0.47,3.7-1.41,5.45c-0.94,1.75-2.27,3.08-4,4c-1.73,0.92-3.94,1.38-6.62,1.38 c-1.93,0-3.59-0.18-4.96-0.55c-1.38-0.36-2.55-0.91-3.51-1.64c-0.97-0.73-1.75-1.55-2.35-2.47c-0.6-0.92-1.1-2.07-1.5-3.44 l8.22-0.9c0.2,1.32,0.67,2.33,1.4,3.02c0.74,0.69,1.61,1.03,2.62,1.03c1.14,0,2.07-0.43,2.81-1.29c0.74-0.86,1.11-2.14,1.11-3.85 c0-1.75-0.38-3.02-1.12-3.83c-0.74-0.81-1.74-1.22-2.97-1.22c-0.78,0-1.55,0.19-2.28,0.58c-0.55,0.28-1.15,0.78-1.79,1.52l-6.94-1 L65.96,46.22L65.96,46.22z"/></g></svg>