<?xml version="1.0" encoding="utf-8"?><svg version="1.1" id="Layer_1" xmlns="http://www.w3.org/2000/svg" xmlns:xlink="http://www.w3.org/1999/xlink" x="0px" y="0px" viewBox="0 0 122.88 122.88" style="enable-background:new 0 0 122.88 122.88" xml:space="preserve"><style type="text/css">.st0{fill-rule:evenodd;clip-rule:evenodd;fill:#E6E6E6;} .st1{fill-rule:evenodd;clip-rule:evenodd;fill:#D8453E;} .st2{fill:#393939;}</style><g><path class="st0" d="M61.44,20.82V0c33.93,0,61.44,27.51,61.44,61.44s-27.51,61.44-61.44,61.44c-17.02,0-32.42-6.92-43.54-18.1 l0.1,0.1L32.88,90L32.89,90l0.01,0.01l0.01,0.01l0.01,0.01l0,0l0,0l0.01,0.01c0.09,0.09,0.18,0.18,0.28,0.28 c7.5,7.5,17.95,11.75,28.57,11.75c22.43,0,40.62-18.19,40.62-40.62S84.2,20.82,61.77,20.82C61.66,20.82,61.55,20.82,61.44,20.82 L61.44,20.82z M32.11,89.2L32.11,89.2L32.11,89.2L32.11,89.2L32.11,89.2z M32.1,89.18L32.1,89.18L32.1,89.18L32.1,89.18L32.1,89.18 z M32.09,89.17L32.09,89.17L32.09,89.17L32.09,89.17L32.09,89.17z M32.08,89.16L32.08,89.16L32.08,89.16L32.08,89.16L32.08,89.16z"/><path class="st1" d="M32.88,90L18,104.88C6.47,93.36,0,77.74,0,61.44C0,27.51,27.51,0,61.44,0v20.82 C39.16,21,21.15,39.12,21.15,61.44C21.15,72.57,25.63,82.66,32.88,90L32.88,90z"/><path class="st2" d="M50.44,70.04H35.62v-6.69l14.81-17.62h7.08v18h3.68v6.3h-3.68v5.48h-7.08V70.04L50.44,70.04z M50.44,63.73 v-9.25l-7.82,9.25H50.44L50.44,63.73z"/><path class="st2" d="M63.32,60.75c0-5.56,1-9.46,3.01-11.68c2-2.22,5.06-3.33,9.16-3.33c1.97,0,3.59,0.25,4.86,0.73 c1.27,0.48,2.3,1.12,3.1,1.9c0.8,0.78,1.43,1.6,1.89,2.46c0.46,0.86,0.83,1.86,1.11,3.01c0.55,2.18,0.82,4.46,0.82,6.83 c0,5.31-0.9,9.2-2.7,11.66c-1.79,2.46-4.89,3.7-9.29,3.7c-2.46,0-4.45-0.4-5.97-1.18c-1.52-0.78-2.76-1.94-3.74-3.46 c-0.7-1.08-1.25-2.55-1.65-4.42C63.52,65.08,63.32,63.01,63.32,60.75L63.32,60.75z M71.38,60.76c0,3.72,0.33,6.27,0.99,7.64 c0.66,1.36,1.62,2.05,2.87,2.05c0.83,0,1.54-0.29,2.15-0.87c0.61-0.58,1.05-1.5,1.34-2.75c0.29-1.25,0.43-3.21,0.43-5.85 c0-3.89-0.33-6.5-0.99-7.84c-0.66-1.34-1.65-2-2.97-2c-1.35,0-2.32,0.68-2.92,2.05C71.68,54.54,71.38,57.07,71.38,60.76 L71.38,60.76z"/></g></svg>