<?xml version="1.0" encoding="utf-8"?><svg version="1.1" id="Layer_1" xmlns="http://www.w3.org/2000/svg" xmlns:xlink="http://www.w3.org/1999/xlink" x="0px" y="0px" viewBox="0 0 122.88 122.88" style="enable-background:new 0 0 122.88 122.88" xml:space="preserve"><style type="text/css">.st0{fill-rule:evenodd;clip-rule:evenodd;fill:#E6E6E6;} .st1{fill-rule:evenodd;clip-rule:evenodd;fill:#D8453E;} .st2{fill:#393939;}</style><g><path class="st0" d="M61.44,0c33.93,0,61.44,27.51,61.44,61.44s-27.51,61.44-61.44,61.44c-14.01,0-26.92-4.69-37.25-12.58 c2.07,1.58,4.25,3.03,6.53,4.35l10.49-18.17c6.03,3.55,13.06,5.58,20.56,5.58c22.43,0,40.62-18.19,40.62-40.62 S84.2,20.82,61.77,20.82c-0.11,0-0.22,0-0.33,0V0z M23.8,110c-0.17-0.13-0.34-0.27-0.51-0.4C23.46,109.74,23.63,109.87,23.8,110 L23.8,110z"/><path class="st1" d="M41.21,96.48l-10.49,18.17C11.71,103.67,0,83.39,0,61.44C0,27.51,27.51,0,61.44,0v20.82 C39.16,21,21.15,39.12,21.15,61.44C21.15,76.37,29.21,89.42,41.21,96.48L41.21,96.48z"/><path class="st2" d="M50.4,70.04H35.58v-6.69L50.4,45.73h7.08v18h3.68v6.3h-3.68v5.48H50.4V70.04L50.4,70.04z M50.4,63.73v-9.25 l-7.82,9.25H50.4L50.4,63.73z M66.59,46.22h19.31v6.51H72.83l-0.7,4.39c0.9-0.42,1.79-0.74,2.68-0.95 c0.89-0.21,1.76-0.32,2.63-0.32c2.93,0,5.31,0.89,7.13,2.66c1.82,1.77,2.73,4,2.73,6.69c0,1.89-0.47,3.7-1.41,5.45 c-0.94,1.75-2.27,3.08-4,4c-1.73,0.92-3.94,1.38-6.62,1.38c-1.93,0-3.59-0.18-4.96-0.55c-1.38-0.36-2.55-0.91-3.51-1.64 c-0.97-0.73-1.75-1.55-2.35-2.47c-0.6-0.92-1.1-2.07-1.5-3.44l8.22-0.9c0.2,1.32,0.67,2.33,1.4,3.02c0.74,0.69,1.61,1.03,2.62,1.03 c1.14,0,2.07-0.43,2.81-1.29c0.74-0.86,1.11-2.14,1.11-3.85c0-1.75-0.38-3.02-1.12-3.83c-0.74-0.81-1.74-1.22-2.97-1.22 c-0.78,0-1.55,0.19-2.28,0.58c-0.55,0.28-1.15,0.78-1.79,1.52l-6.94-1L66.59,46.22L66.59,46.22z"/></g></svg>