<?xml version="1.0" encoding="utf-8"?><svg version="1.1" id="Layer_1" xmlns="http://www.w3.org/2000/svg" xmlns:xlink="http://www.w3.org/1999/xlink" x="0px" y="0px" viewBox="0 0 122.88 122.88" style="enable-background:new 0 0 122.88 122.88" xml:space="preserve"><style type="text/css">.st0{fill-rule:evenodd;clip-rule:evenodd;fill:#E6E6E6;} .st1{fill-rule:evenodd;clip-rule:evenodd;fill:#D8453E;} .st2{fill:#393939;}</style><g><path class="st0" d="M61.44,0c33.93,0,61.44,27.51,61.44,61.44s-27.51,61.44-61.44,61.44v-20.82c0.11,0,0.22,0,0.33,0 c22.43,0,40.62-18.19,40.62-40.62S84.2,20.82,61.77,20.82c-0.11,0-0.22,0-0.33,0V0z"/><path class="st1" d="M61.44,102.06v20.82C27.51,122.88,0,95.37,0,61.44S27.51,0,61.44,0v20.82C39.16,21,21.15,39.12,21.15,61.44 C21.15,83.76,39.16,101.88,61.44,102.06L61.44,102.06z"/><path class="st2" d="M39.51,46.22h19.31v6.51H45.74l-0.7,4.39c0.9-0.42,1.79-0.74,2.68-0.95c0.89-0.21,1.76-0.32,2.63-0.32 c2.93,0,5.31,0.89,7.13,2.66c1.82,1.77,2.73,4,2.73,6.69c0,1.89-0.47,3.7-1.41,5.45c-0.94,1.75-2.27,3.08-4,4 c-1.73,0.92-3.94,1.38-6.62,1.38c-1.93,0-3.59-0.18-4.96-0.55c-1.38-0.36-2.55-0.91-3.51-1.64c-0.97-0.73-1.75-1.55-2.35-2.47 c-0.6-0.92-1.1-2.07-1.5-3.44l8.22-0.9c0.2,1.32,0.67,2.33,1.4,3.02c0.74,0.69,1.61,1.03,2.62,1.03c1.14,0,2.07-0.43,2.81-1.29 c0.74-0.86,1.11-2.14,1.11-3.85c0-1.75-0.38-3.02-1.12-3.83c-0.74-0.81-1.74-1.22-2.97-1.22c-0.78,0-1.55,0.19-2.28,0.58 c-0.55,0.28-1.15,0.78-1.79,1.52l-6.94-1L39.51,46.22L39.51,46.22z M63.07,60.75c0-5.56,1-9.46,3.01-11.68 c2-2.22,5.06-3.33,9.16-3.33c1.97,0,3.59,0.25,4.86,0.73c1.27,0.48,2.3,1.12,3.1,1.9c0.8,0.78,1.43,1.6,1.89,2.46 c0.46,0.86,0.83,1.86,1.11,3.01c0.55,2.18,0.82,4.46,0.82,6.83c0,5.31-0.9,9.2-2.7,11.66c-1.79,2.46-4.89,3.7-9.29,3.7 c-2.46,0-4.45-0.4-5.97-1.18c-1.52-0.78-2.76-1.94-3.74-3.46c-0.7-1.08-1.25-2.55-1.65-4.42C63.27,65.08,63.07,63.01,63.07,60.75 L63.07,60.75z M71.13,60.76c0,3.72,0.33,6.27,0.99,7.64c0.66,1.36,1.62,2.05,2.87,2.05c0.83,0,1.54-0.29,2.15-0.87 c0.61-0.58,1.05-1.5,1.34-2.75c0.29-1.25,0.43-3.21,0.43-5.85c0-3.89-0.33-6.5-0.99-7.84c-0.66-1.34-1.65-2-2.97-2 c-1.35,0-2.32,0.68-2.92,2.05C71.43,54.54,71.13,57.07,71.13,60.76L71.13,60.76z"/></g></svg>