<?xml version="1.0" encoding="utf-8"?><svg version="1.1" id="Layer_1" xmlns="http://www.w3.org/2000/svg" xmlns:xlink="http://www.w3.org/1999/xlink" x="0px" y="0px" viewBox="0 0 122.88 122.88" style="enable-background:new 0 0 122.88 122.88" xml:space="preserve"><style type="text/css">.st0{fill-rule:evenodd;clip-rule:evenodd;fill:#E6E6E6;} .st1{fill-rule:evenodd;clip-rule:evenodd;fill:#D8453E;} .st2{fill:#393939;}</style><g><path class="st0" d="M61.44,0c33.93,0,61.44,27.51,61.44,61.44c0,31.96-24.41,58.22-55.61,61.16c6.96-0.66,13.77-2.51,20.13-5.48 l-8.74-18.74c14-6.41,23.72-20.54,23.72-36.95c0-22.43-18.19-40.62-40.62-40.62c-0.11,0-0.22,0-0.33,0V0z M65.9,122.72 C66.45,122.68,66.63,122.66,65.9,122.72L65.9,122.72z M78.26,98.57C77.9,98.73,77.54,98.89,78.26,98.57L78.26,98.57z"/><path class="st1" d="M78.67,98.39l8.74,18.74c-8.13,3.79-16.99,5.76-25.97,5.76C27.51,122.88,0,95.37,0,61.44S27.51,0,61.44,0 v20.82C39.16,21,21.15,39.12,21.15,61.44c0,22.43,18.19,40.62,40.62,40.62C67.8,102.06,73.52,100.74,78.67,98.39L78.67,98.39z"/><path class="st2" d="M39.45,46.23h19.33v6.49H45.69l-0.7,4.4c0.91-0.43,1.8-0.75,2.69-0.96c0.89-0.21,1.76-0.32,2.63-0.32 c2.93,0,5.31,0.89,7.13,2.66c1.83,1.77,2.74,4,2.74,6.69c0,1.89-0.47,3.71-1.41,5.46c-0.94,1.75-2.27,3.08-4,4 c-1.73,0.92-3.93,1.38-6.62,1.38c-1.93,0-3.59-0.18-4.96-0.55c-1.38-0.37-2.55-0.91-3.52-1.64c-0.96-0.72-1.75-1.54-2.35-2.46 c-0.6-0.92-1.1-2.07-1.5-3.44l8.23-0.9c0.2,1.32,0.67,2.32,1.4,3.01c0.74,0.69,1.61,1.03,2.62,1.03c1.13,0,2.07-0.43,2.81-1.29 c0.74-0.86,1.1-2.14,1.1-3.85c0-1.75-0.38-3.03-1.12-3.84c-0.74-0.81-1.74-1.21-2.97-1.21c-0.78,0-1.55,0.19-2.28,0.57 c-0.55,0.28-1.15,0.79-1.8,1.52l-6.93-1L39.45,46.23L39.45,46.23z M66.32,46.23h19.33v6.49H72.56l-0.7,4.4 c0.91-0.43,1.8-0.75,2.69-0.96c0.89-0.21,1.76-0.32,2.63-0.32c2.93,0,5.31,0.89,7.13,2.66c1.83,1.77,2.74,4,2.74,6.69 c0,1.89-0.47,3.71-1.41,5.46c-0.94,1.75-2.27,3.08-4,4s-3.93,1.38-6.62,1.38c-1.93,0-3.59-0.18-4.96-0.55 c-1.38-0.37-2.55-0.91-3.52-1.64c-0.96-0.72-1.75-1.54-2.35-2.46c-0.6-0.92-1.1-2.07-1.5-3.44l8.23-0.9 c0.2,1.32,0.67,2.32,1.4,3.01c0.74,0.69,1.61,1.03,2.62,1.03c1.13,0,2.07-0.43,2.81-1.29c0.74-0.86,1.1-2.14,1.1-3.85 c0-1.75-0.38-3.03-1.12-3.84c-0.74-0.81-1.74-1.21-2.97-1.21c-0.78,0-1.55,0.19-2.28,0.57c-0.55,0.28-1.15,0.79-1.8,1.52l-6.93-1 L66.32,46.23L66.32,46.23z"/></g></svg>