<?xml version="1.0" encoding="utf-8"?><svg version="1.1" id="Layer_1" xmlns="http://www.w3.org/2000/svg" xmlns:xlink="http://www.w3.org/1999/xlink" x="0px" y="0px" viewBox="0 0 122.88 122.88" style="enable-background:new 0 0 122.88 122.88" xml:space="preserve"><style type="text/css">.st0{fill-rule:evenodd;clip-rule:evenodd;fill:#E6E6E6;} .st1{fill-rule:evenodd;clip-rule:evenodd;fill:#D8453E;} .st2{fill:#393939;}</style><g><path class="st0" d="M61.44,0c33.93,0,61.44,27.51,61.44,61.44c0,18.89-8.53,35.79-21.95,47.06L87.68,92.72 c8.98-7.45,14.7-18.7,14.7-31.28c0-22.43-18.19-40.62-40.62-40.62c-0.11,0-0.22,0-0.33,0V0z"/><path class="st1" d="M87.68,92.72l13.25,15.79c-11.07,9.29-25.05,14.37-39.49,14.37C27.51,122.88,0,95.37,0,61.44S27.51,0,61.44,0 v20.82C39.16,21,21.15,39.12,21.15,61.44c0,22.43,18.19,40.62,40.62,40.62C71.62,102.06,80.65,98.55,87.68,92.72L87.68,92.72z"/><path class="st2" d="M59.92,52.8l-8.1,0.99c-0.21-1.13-0.57-1.92-1.06-2.37c-0.5-0.46-1.12-0.7-1.85-0.7 c-1.32,0-2.34,0.66-3.07,1.99c-0.53,0.96-0.93,3.01-1.18,6.14c0.98-0.99,1.97-1.72,2.99-2.19c1.03-0.47,2.21-0.71,3.55-0.71 c2.61,0,4.82,0.93,6.62,2.8c1.81,1.87,2.71,4.24,2.71,7.1c0,1.93-0.46,3.7-1.37,5.3c-0.91,1.6-2.18,2.81-3.79,3.63 c-1.62,0.82-3.65,1.23-6.09,1.23c-2.93,0-5.28-0.5-7.05-1.5c-1.77-1-3.19-2.59-4.25-4.78c-1.06-2.19-1.59-5.09-1.59-8.7 c0-5.29,1.11-9.15,3.34-11.61c2.22-2.46,5.31-3.68,9.25-3.68c2.33,0,4.17,0.27,5.52,0.8c1.35,0.54,2.48,1.33,3.37,2.36 C58.78,49.93,59.46,51.23,59.92,52.8L59.92,52.8z M44.94,65.86c0,1.59,0.4,2.83,1.2,3.73c0.8,0.9,1.78,1.35,2.94,1.35 c1.07,0,1.96-0.41,2.69-1.22c0.72-0.81,1.08-2.03,1.08-3.64c0-1.65-0.38-2.91-1.12-3.78c-0.75-0.87-1.68-1.3-2.78-1.3 c-1.13,0-2.09,0.42-2.85,1.26C45.32,63.09,44.94,64.29,44.94,65.86L44.94,65.86z"/><path class="st2" d="M62.55,60.75c0-5.56,1-9.46,3.01-11.68c2-2.22,5.06-3.33,9.16-3.33c1.97,0,3.59,0.25,4.86,0.73 c1.27,0.48,2.3,1.12,3.1,1.9c0.8,0.78,1.43,1.6,1.89,2.46c0.46,0.86,0.83,1.86,1.11,3.01c0.55,2.18,0.82,4.46,0.82,6.83 c0,5.31-0.9,9.2-2.7,11.66c-1.79,2.46-4.89,3.7-9.29,3.7c-2.46,0-4.45-0.4-5.97-1.18c-1.52-0.78-2.76-1.94-3.74-3.46 c-0.7-1.08-1.25-2.55-1.65-4.42C62.75,65.08,62.55,63.01,62.55,60.75L62.55,60.75z M70.61,60.76c0,3.72,0.33,6.27,0.99,7.64 c0.66,1.36,1.62,2.05,2.87,2.05c0.83,0,1.54-0.29,2.15-0.87c0.61-0.58,1.05-1.5,1.34-2.75c0.29-1.25,0.43-3.21,0.43-5.85 c0-3.89-0.33-6.5-0.99-7.84c-0.66-1.34-1.65-2-2.97-2c-1.35,0-2.32,0.68-2.92,2.05C70.91,54.54,70.61,57.07,70.61,60.76 L70.61,60.76z"/></g></svg>