<?xml version="1.0" encoding="utf-8"?><svg version="1.1" id="Layer_1" xmlns="http://www.w3.org/2000/svg" xmlns:xlink="http://www.w3.org/1999/xlink" x="0px" y="0px" viewBox="0 0 122.88 122.88" style="enable-background:new 0 0 122.88 122.88" xml:space="preserve"><style type="text/css">.st0{fill-rule:evenodd;clip-rule:evenodd;fill:#E6E6E6;} .st1{fill-rule:evenodd;clip-rule:evenodd;fill:#D8453E;} .st2{fill:#393939;}</style><g><path class="st0" d="M61.44,0c33.93,0,61.44,27.51,61.44,61.44c0,17.73-13.25,38.17-11.11,35.24L94.94,84.89 c4.69-6.62,7.45-14.72,7.45-23.45c0-22.43-18.19-40.62-40.62-40.62c-0.11,0-0.22,0-0.33,0V0L61.44,0z"/><path class="st1" d="M94.94,84.89l16.83,11.79c-11.5,16.42-30.28,26.2-50.33,26.2C27.51,122.88,0,95.37,0,61.44 C0,27.51,27.51,0,61.44,0v20.82C39.16,21,21.15,39.12,21.15,61.44c0,22.43,18.19,40.62,40.62,40.62 C75.47,102.06,87.58,95.28,94.94,84.89L94.94,84.89z"/><path class="st2" d="M61.1,52.8L53,53.79c-0.21-1.13-0.57-1.92-1.06-2.37c-0.5-0.46-1.12-0.7-1.85-0.7c-1.32,0-2.34,0.66-3.07,1.99 c-0.53,0.96-0.93,3.01-1.18,6.14c0.98-0.99,1.97-1.72,2.99-2.19c1.03-0.47,2.21-0.71,3.55-0.71c2.61,0,4.82,0.93,6.62,2.8 c1.81,1.87,2.71,4.23,2.71,7.1c0,1.93-0.46,3.7-1.37,5.3c-0.91,1.6-2.18,2.81-3.79,3.63c-1.62,0.82-3.65,1.23-6.09,1.23 c-2.93,0-5.28-0.5-7.05-1.5c-1.77-1-3.19-2.59-4.25-4.78c-1.06-2.19-1.59-5.09-1.59-8.7c0-5.29,1.11-9.15,3.34-11.61 c2.22-2.46,5.31-3.68,9.25-3.68c2.33,0,4.17,0.27,5.52,0.8c1.35,0.54,2.48,1.33,3.37,2.36C59.96,49.93,60.64,51.23,61.1,52.8 L61.1,52.8z M46.12,65.86c0,1.59,0.4,2.83,1.2,3.73c0.8,0.9,1.78,1.35,2.94,1.35c1.07,0,1.96-0.41,2.69-1.22 c0.72-0.81,1.08-2.03,1.08-3.64c0-1.65-0.38-2.91-1.12-3.78c-0.75-0.87-1.68-1.3-2.78-1.3c-1.13,0-2.09,0.42-2.85,1.26 C46.5,63.09,46.12,64.29,46.12,65.86L46.12,65.86z M67.72,46.22h19.31v6.51H73.96l-0.7,4.39c0.9-0.42,1.79-0.74,2.68-0.95 c0.89-0.21,1.76-0.32,2.63-0.32c2.93,0,5.31,0.89,7.13,2.66c1.82,1.77,2.73,4,2.73,6.69c0,1.89-0.47,3.7-1.4,5.45 c-0.94,1.75-2.27,3.08-4,4c-1.73,0.92-3.94,1.38-6.62,1.38c-1.93,0-3.59-0.18-4.96-0.55c-1.38-0.36-2.55-0.91-3.51-1.64 c-0.97-0.73-1.75-1.55-2.35-2.47c-0.6-0.92-1.1-2.07-1.5-3.44l8.22-0.9c0.2,1.32,0.67,2.33,1.4,3.02c0.74,0.69,1.61,1.03,2.62,1.03 c1.14,0,2.07-0.43,2.81-1.29c0.74-0.86,1.11-2.14,1.11-3.85c0-1.75-0.38-3.02-1.12-3.83c-0.74-0.81-1.74-1.22-2.97-1.22 c-0.78,0-1.55,0.19-2.28,0.58c-0.55,0.28-1.15,0.78-1.79,1.52l-6.94-1L67.72,46.22L67.72,46.22z"/></g></svg>