<?xml version="1.0" encoding="utf-8"?><svg version="1.1" id="Layer_1" xmlns="http://www.w3.org/2000/svg" xmlns:xlink="http://www.w3.org/1999/xlink" x="0px" y="0px" viewBox="0 0 122.88 122.88" style="enable-background:new 0 0 122.88 122.88" xml:space="preserve"><style type="text/css">.st0{fill-rule:evenodd;clip-rule:evenodd;fill:#E6E6E6;} .st1{fill-rule:evenodd;clip-rule:evenodd;fill:#D8453E;} .st2{fill:#393939;}</style><g><path class="st0" d="M61.44,0c33.93,0,61.44,27.51,61.44,61.44c0,14.02-4.7,26.94-12.6,37.28c0.51-0.67,1.01-1.35,1.49-2.04 L94.94,84.89c4.69-6.62,7.45-14.72,7.45-23.45c0-22.43-18.19-40.62-40.62-40.62c-0.11,0-0.22,0-0.33,0V0z"/><path class="st1" d="M94.94,84.89l16.83,11.79c-11.5,16.42-30.28,26.2-50.33,26.2C27.51,122.88,0,95.37,0,61.44S27.51,0,61.44,0 v20.82C39.16,21,21.15,39.12,21.15,61.44c0,22.43,18.19,40.62,40.62,40.62C75.46,102.06,87.58,95.28,94.94,84.89L94.94,84.89z"/><path class="st2" d="M36.12,46.36h23.78v5.5c-2.07,1.86-3.8,3.88-5.18,6.05c-1.68,2.64-3,5.58-3.98,8.82 c-0.77,2.52-1.29,5.5-1.56,8.94h-8.12c0.64-4.79,1.65-8.8,3.02-12.04c1.37-3.24,3.54-6.7,6.52-10.4H36.12V46.36L36.12,46.36z M62.81,60.9c0-5.58,1-9.47,3.01-11.7c2.01-2.23,5.06-3.34,9.17-3.34c1.97,0,3.6,0.25,4.86,0.73c1.27,0.48,2.3,1.12,3.1,1.9 c0.8,0.78,1.43,1.6,1.89,2.46c0.46,0.86,0.83,1.86,1.11,3.01c0.55,2.19,0.82,4.47,0.82,6.84c0,5.32-0.9,9.22-2.7,11.68 c-1.8,2.46-4.89,3.7-9.3,3.7c-2.46,0-4.46-0.4-5.98-1.18c-1.52-0.78-2.76-1.93-3.74-3.45c-0.7-1.09-1.26-2.56-1.64-4.43 C63,65.23,62.81,63.16,62.81,60.9L62.81,60.9z M70.89,60.92c0,3.73,0.33,6.28,0.99,7.65c0.66,1.37,1.62,2.05,2.87,2.05 c0.83,0,1.54-0.29,2.15-0.87c0.61-0.58,1.05-1.49,1.34-2.74c0.29-1.26,0.43-3.21,0.43-5.86c0-3.89-0.33-6.51-0.99-7.85 c-0.66-1.34-1.65-2.01-2.97-2.01c-1.34,0-2.32,0.68-2.91,2.05C71.19,54.69,70.89,57.23,70.89,60.92L70.89,60.92z"/></g></svg>