<?xml version="1.0" encoding="utf-8"?><svg version="1.1" id="Layer_1" xmlns="http://www.w3.org/2000/svg" xmlns:xlink="http://www.w3.org/1999/xlink" x="0px" y="0px" viewBox="0 0 122.88 122.88" style="enable-background:new 0 0 122.88 122.88" xml:space="preserve"><style type="text/css">.st0{fill-rule:evenodd;clip-rule:evenodd;fill:#E6E6E6;} .st1{fill-rule:evenodd;clip-rule:evenodd;fill:#D8453E;} .st2{fill:#393939;}</style><g><path class="st0" d="M61.44,0c33.93,0,61.44,27.51,61.44,61.44h-20.49c0-22.43-18.19-40.62-40.62-40.62c-0.11,0-0.22,0-0.33,0V0z"/><path class="st1" d="M102.39,61.44h20.49c0,33.93-27.51,61.44-61.44,61.44S0,95.37,0,61.44S27.51,0,61.44,0v20.82 C39.16,21,21.15,39.12,21.15,61.44c0,22.43,18.19,40.62,40.62,40.62C84.2,102.06,102.39,83.87,102.39,61.44L102.39,61.44z"/><path class="st2" d="M37.66,46.22h23.77v5.5c-2.07,1.86-3.79,3.88-5.18,6.06c-1.68,2.64-3,5.57-3.98,8.81 c-0.78,2.52-1.3,5.5-1.56,8.93h-8.1c0.64-4.78,1.64-8.79,3.01-12.03c1.37-3.24,3.54-6.7,6.51-10.39H37.66V46.22L37.66,46.22z M67.72,46.22h19.31v6.51H73.96l-0.7,4.39c0.9-0.42,1.79-0.74,2.68-0.95c0.89-0.21,1.76-0.32,2.63-0.32c2.93,0,5.31,0.89,7.13,2.66 c1.82,1.77,2.73,4,2.73,6.69c0,1.89-0.47,3.7-1.41,5.45c-0.94,1.75-2.27,3.08-4,4c-1.73,0.92-3.94,1.38-6.62,1.38 c-1.93,0-3.59-0.18-4.96-0.55c-1.38-0.36-2.55-0.91-3.51-1.64c-0.97-0.73-1.75-1.55-2.35-2.47c-0.6-0.92-1.1-2.07-1.5-3.44 l8.22-0.9c0.2,1.32,0.67,2.33,1.4,3.02c0.74,0.69,1.61,1.03,2.62,1.03c1.14,0,2.07-0.43,2.81-1.29c0.74-0.86,1.11-2.14,1.11-3.85 c0-1.75-0.38-3.02-1.12-3.83c-0.74-0.81-1.74-1.22-2.97-1.22c-0.78,0-1.55,0.19-2.28,0.58c-0.55,0.28-1.15,0.78-1.79,1.52l-6.94-1 L67.72,46.22L67.72,46.22z"/></g></svg>