<?xml version="1.0" encoding="utf-8"?><svg version="1.1" id="Layer_1" xmlns="http://www.w3.org/2000/svg" xmlns:xlink="http://www.w3.org/1999/xlink" x="0px" y="0px" viewBox="0 0 122.88 122.88" style="enable-background:new 0 0 122.88 122.88" xml:space="preserve"><style type="text/css">.st0{fill-rule:evenodd;clip-rule:evenodd;fill:#E6E6E6;} .st1{fill-rule:evenodd;clip-rule:evenodd;fill:#D8453E;} .st2{fill:#393939;}</style><g><path class="st0" d="M61.44,0c28.43,0,52.35,19.31,59.36,45.54l-0.01,0l-20.1,5.39c-4.63-17.34-20.45-30.1-39.24-30.1V0L61.44,0z M100.68,50.92l0,0.02L100.68,50.92L100.68,50.92z"/><path class="st1" d="M100.68,50.92l20.11-5.39c1.39,5.19,2.08,10.53,2.08,15.9c0,33.93-27.51,61.44-61.44,61.44S0,95.37,0,61.44 S27.51,0,61.44,0v20.82c-22.43,0-40.62,18.19-40.62,40.62s18.19,40.62,40.62,40.62c22.43,0,40.62-18.19,40.62-40.62 C102.06,57.8,101.58,54.28,100.68,50.92L100.68,50.92z"/><path class="st2" d="M40.92,60.34c-1.28-0.68-2.21-1.44-2.79-2.28c-0.8-1.15-1.2-2.46-1.2-3.95c0-2.45,1.15-4.45,3.46-6.02 c1.8-1.19,4.18-1.79,7.14-1.79c3.92,0,6.81,0.74,8.69,2.24c1.88,1.49,2.81,3.37,2.81,5.63c0,1.32-0.38,2.55-1.13,3.7 c-0.57,0.85-1.45,1.68-2.65,2.48c1.58,0.76,2.77,1.77,3.55,3.01c0.78,1.25,1.17,2.64,1.17,4.16c0,1.47-0.33,2.83-1.01,4.11 c-0.68,1.28-1.5,2.26-2.48,2.95c-0.98,0.7-2.2,1.2-3.66,1.53c-1.46,0.33-3.01,0.49-4.67,0.49c-3.1,0-5.47-0.37-7.11-1.1 c-1.64-0.74-2.88-1.81-3.73-3.24c-0.85-1.43-1.28-3.01-1.28-4.77c0-1.72,0.4-3.17,1.2-4.36C38.03,61.91,39.26,60.99,40.92,60.34 L40.92,60.34z M44.58,54.59c0,1.01,0.32,1.83,0.95,2.45c0.63,0.62,1.48,0.93,2.54,0.93c0.93,0,1.71-0.31,2.31-0.92 c0.61-0.61,0.91-1.4,0.91-2.37c0-1.02-0.31-1.83-0.94-2.47c-0.63-0.63-1.44-0.95-2.41-0.95c-0.99,0-1.8,0.31-2.42,0.93 C44.9,52.8,44.58,53.6,44.58,54.59L44.58,54.59z M44.13,67.19c0,1.3,0.4,2.35,1.18,3.17c0.78,0.82,1.68,1.23,2.69,1.23 c0.98,0,1.85-0.42,2.62-1.25c0.77-0.83,1.16-1.89,1.16-3.17c0-1.3-0.39-2.35-1.17-3.18c-0.78-0.83-1.68-1.24-2.71-1.24 c-1.02,0-1.9,0.4-2.65,1.2C44.51,64.75,44.13,65.83,44.13,67.19L44.13,67.19z M62.91,61.32c0-5.57,1-9.46,3.01-11.68 c2-2.22,5.06-3.33,9.16-3.33c1.97,0,3.59,0.25,4.86,0.73c1.27,0.48,2.3,1.12,3.1,1.9c0.8,0.78,1.43,1.6,1.89,2.46 c0.46,0.86,0.83,1.86,1.11,3.01c0.55,2.18,0.82,4.46,0.82,6.83c0,5.31-0.9,9.2-2.7,11.66c-1.79,2.46-4.89,3.7-9.29,3.7 c-2.46,0-4.45-0.4-5.97-1.18c-1.52-0.78-2.76-1.94-3.74-3.46c-0.7-1.08-1.25-2.55-1.65-4.42C63.11,65.65,62.91,63.58,62.91,61.32 L62.91,61.32z M70.97,61.33c0,3.72,0.33,6.27,0.99,7.64c0.66,1.36,1.62,2.05,2.87,2.05c0.83,0,1.54-0.29,2.15-0.87 c0.61-0.58,1.05-1.5,1.34-2.75c0.29-1.25,0.43-3.21,0.43-5.85c0-3.89-0.33-6.5-0.99-7.84c-0.66-1.34-1.65-2-2.97-2 c-1.35,0-2.32,0.68-2.92,2.05C71.27,55.11,70.97,57.64,70.97,61.33L70.97,61.33z"/></g></svg>