<?xml version="1.0" encoding="utf-8"?><svg version="1.1" id="Layer_1" xmlns="http://www.w3.org/2000/svg" xmlns:xlink="http://www.w3.org/1999/xlink" x="0px" y="0px" viewBox="0 0 122.88 122.88" style="enable-background:new 0 0 122.88 122.88" xml:space="preserve"><style type="text/css">.st0{fill-rule:evenodd;clip-rule:evenodd;fill:#E6E6E6;} .st1{fill-rule:evenodd;clip-rule:evenodd;fill:#D8453E;} .st2{fill:#393939;}</style><g><path class="st0" d="M61.44,20.82V0c33.93,0,61.44,27.51,61.44,61.44s-27.51,61.44-61.44,61.44S0,95.37,0,61.44S27.51,0,61.44,0 V20.82c0.11,0,0.22,0,0.33,0c22.43,0,40.62,18.19,40.62,40.62s-18.19,40.62-40.62,40.62c-22.43,0-40.62-18.19-40.62-40.62 C21.15,39.12,39.16,21,61.44,20.82L61.44,20.82z"/><path class="st1" d="M96.87,40.99l17.78-10.27c5.39,9.34,8.23,19.94,8.23,30.72c0,33.93-27.51,61.44-61.44,61.44S0,95.37,0,61.44 S27.51,0,61.44,0v20.82C39.16,21,21.15,39.12,21.15,61.44c0,22.43,18.19,40.62,40.62,40.62c22.43,0,40.62-18.19,40.62-40.62 C102.39,53.98,100.38,46.99,96.87,40.99L96.87,40.99z"/><path class="st2" d="M42.26,59.76c-1.28-0.68-2.21-1.44-2.79-2.28c-0.8-1.15-1.2-2.46-1.2-3.95c0-2.45,1.15-4.45,3.46-6.02 c1.8-1.19,4.18-1.79,7.14-1.79c3.92,0,6.81,0.74,8.69,2.24c1.88,1.49,2.81,3.37,2.81,5.63c0,1.32-0.38,2.55-1.13,3.7 c-0.57,0.85-1.45,1.68-2.65,2.48c1.58,0.76,2.77,1.77,3.55,3.01c0.78,1.25,1.17,2.64,1.17,4.16c0,1.47-0.33,2.83-1.01,4.11 c-0.68,1.28-1.5,2.26-2.48,2.95c-0.98,0.7-2.2,1.2-3.66,1.53c-1.46,0.33-3.01,0.49-4.67,0.49c-3.1,0-5.47-0.37-7.11-1.1 c-1.64-0.74-2.88-1.81-3.73-3.24c-0.85-1.43-1.28-3.01-1.28-4.77c0-1.72,0.4-3.17,1.2-4.36C39.37,61.34,40.6,60.42,42.26,59.76 L42.26,59.76z M45.93,54.02c0,1.01,0.32,1.83,0.95,2.45c0.63,0.62,1.48,0.93,2.54,0.93c0.93,0,1.71-0.31,2.31-0.92 c0.61-0.61,0.91-1.4,0.91-2.37c0-1.02-0.31-1.83-0.94-2.47c-0.63-0.63-1.44-0.95-2.41-0.95c-0.99,0-1.8,0.31-2.42,0.93 C46.24,52.23,45.93,53.03,45.93,54.02L45.93,54.02z M45.48,66.62c0,1.3,0.4,2.35,1.18,3.17c0.78,0.82,1.68,1.23,2.69,1.23 c0.98,0,1.85-0.42,2.62-1.25c0.77-0.83,1.16-1.89,1.16-3.17c0-1.3-0.39-2.35-1.17-3.18c-0.78-0.83-1.68-1.24-2.71-1.24 c-1.02,0-1.9,0.4-2.65,1.2C45.85,64.18,45.48,65.26,45.48,66.62L45.48,66.62z M66.88,46.22H86.2v6.51H73.12l-0.7,4.39 c0.9-0.42,1.79-0.74,2.68-0.95c0.89-0.21,1.76-0.32,2.63-0.32c2.93,0,5.31,0.89,7.13,2.66c1.82,1.77,2.73,4,2.73,6.69 c0,1.89-0.47,3.7-1.41,5.45c-0.94,1.75-2.27,3.08-4,4c-1.73,0.92-3.94,1.38-6.62,1.38c-1.93,0-3.59-0.18-4.96-0.55 c-1.38-0.36-2.55-0.91-3.51-1.64c-0.97-0.73-1.75-1.55-2.35-2.47c-0.6-0.92-1.1-2.07-1.5-3.44l8.22-0.9 c0.2,1.32,0.67,2.33,1.4,3.02c0.74,0.69,1.61,1.03,2.62,1.03c1.14,0,2.07-0.43,2.81-1.29c0.74-0.86,1.11-2.14,1.11-3.85 c0-1.75-0.38-3.02-1.12-3.83c-0.74-0.81-1.74-1.22-2.97-1.22c-0.78,0-1.55,0.19-2.28,0.58c-0.55,0.28-1.15,0.78-1.79,1.52l-6.94-1 L66.88,46.22L66.88,46.22z"/></g></svg>