<?xml version="1.0" encoding="utf-8"?><svg version="1.1" id="Layer_1" xmlns="http://www.w3.org/2000/svg" xmlns:xlink="http://www.w3.org/1999/xlink" x="0px" y="0px" viewBox="0 0 122.88 122.88" style="enable-background:new 0 0 122.88 122.88" xml:space="preserve"><style type="text/css">.st0{fill-rule:evenodd;clip-rule:evenodd;fill:#E6E6E6;} .st1{fill-rule:evenodd;clip-rule:evenodd;fill:#D8453E;} .st2{fill:#393939;}</style><g><path class="st0" d="M61.44,0c17.02,0,32.42,6.92,43.54,18.1l-0.1-0.1L90.32,32.56C82.99,25.3,72.9,20.82,61.77,20.82 c-0.11,0-0.22,0-0.33,0V0z"/><path class="st1" d="M90.32,32.56L104.88,18c11.52,11.52,18,27.15,18,43.44c0,33.93-27.51,61.44-61.44,61.44S0,95.37,0,61.44 S27.51,0,61.44,0v20.82C39.16,21,21.15,39.12,21.15,61.44c0,22.43,18.19,40.62,40.62,40.62c22.43,0,40.62-18.19,40.62-40.62 C102.39,50.14,97.77,39.92,90.32,32.56L90.32,32.56z"/><path class="st2" d="M36.86,68.96l8.1-1.01c0.21,1.12,0.57,1.92,1.08,2.37c0.51,0.46,1.13,0.7,1.86,0.7c1.31,0,2.33-0.65,3.06-1.97 c0.53-0.98,0.93-3.03,1.2-6.17c-0.98,1-1.97,1.73-3,2.2c-1.02,0.47-2.21,0.7-3.56,0.7c-2.63,0-4.84-0.93-6.65-2.8 c-1.81-1.87-2.71-4.23-2.71-7.08c0-1.94,0.46-3.72,1.38-5.32c0.92-1.6,2.19-2.81,3.8-3.63c1.61-0.82,3.64-1.23,6.08-1.23 c2.93,0,5.28,0.5,7.05,1.51c1.77,1.01,3.19,2.61,4.25,4.79c1.06,2.19,1.59,5.08,1.59,8.68c0,5.29-1.11,9.15-3.34,11.61 c-2.22,2.46-5.31,3.68-9.25,3.68c-2.33,0-4.17-0.27-5.52-0.8c-1.34-0.54-2.46-1.33-3.36-2.36C38.03,71.81,37.34,70.51,36.86,68.96 L36.86,68.96z M51.87,55.88c0-1.59-0.4-2.83-1.2-3.73c-0.8-0.9-1.77-1.35-2.92-1.35c-1.08,0-1.98,0.41-2.69,1.22 c-0.72,0.81-1.07,2.03-1.07,3.66c0,1.64,0.37,2.89,1.11,3.76c0.74,0.87,1.66,1.3,2.77,1.3c1.15,0,2.1-0.42,2.86-1.26 C51.49,58.65,51.87,57.45,51.87,55.88L51.87,55.88z"/><path class="st2" d="M62.69,60.75c0-5.56,1-9.46,3.01-11.68c2-2.22,5.06-3.33,9.16-3.33c1.97,0,3.59,0.25,4.86,0.73 c1.27,0.48,2.3,1.12,3.1,1.9c0.8,0.78,1.43,1.6,1.89,2.46c0.46,0.86,0.83,1.86,1.11,3.01c0.55,2.18,0.82,4.46,0.82,6.83 c0,5.31-0.9,9.2-2.7,11.66c-1.79,2.46-4.89,3.7-9.29,3.7c-2.46,0-4.45-0.4-5.97-1.18c-1.52-0.78-2.76-1.94-3.74-3.46 c-0.7-1.08-1.25-2.55-1.65-4.42C62.89,65.08,62.69,63.01,62.69,60.75L62.69,60.75z M70.75,60.76c0,3.72,0.33,6.27,0.99,7.64 c0.66,1.36,1.62,2.05,2.87,2.05c0.83,0,1.54-0.29,2.15-0.87c0.61-0.58,1.05-1.5,1.34-2.75c0.29-1.25,0.43-3.21,0.43-5.85 c0-3.89-0.33-6.5-0.99-7.84c-0.66-1.34-1.65-2-2.97-2c-1.35,0-2.32,0.68-2.92,2.05C71.05,54.54,70.75,57.07,70.75,60.76 L70.75,60.76z"/></g></svg>