<?xml version="1.0" encoding="utf-8"?><svg version="1.1" id="Layer_1" xmlns="http://www.w3.org/2000/svg" xmlns:xlink="http://www.w3.org/1999/xlink" x="0px" y="0px" viewBox="0 0 122.88 122.88" style="enable-background:new 0 0 122.88 122.88" xml:space="preserve"><style type="text/css">.st0{fill-rule:evenodd;clip-rule:evenodd;fill:#E6E6E6;} .st1{fill-rule:evenodd;clip-rule:evenodd;fill:#D8453E;} .st2{fill:#393939;}</style><g><path class="st0" d="M61.44,0C72.7,0,83.25,3.03,92.33,8.32h-0.01l-0.15-0.09L81.83,26.12c-5.92-3.37-12.77-5.3-20.07-5.3 c-0.11,0-0.22,0-0.33,0V0L61.44,0z"/><path class="st1" d="M81.83,26.12L92.16,8.23c19.01,10.97,30.72,31.26,30.72,53.21c0,33.93-27.51,61.44-61.44,61.44 S0,95.37,0,61.44S27.51,0,61.44,0v20.82C39.16,21,21.15,39.12,21.15,61.44c0,22.43,18.19,40.62,40.62,40.62 c22.43,0,40.62-18.19,40.62-40.62C102.39,46.31,94.11,33.11,81.83,26.12L81.83,26.12z"/><path class="st2" d="M36.82,68.96l8.1-1.01c0.21,1.12,0.57,1.92,1.08,2.37c0.51,0.46,1.13,0.7,1.86,0.7c1.31,0,2.33-0.65,3.06-1.97 c0.53-0.98,0.93-3.03,1.2-6.17c-0.98,1-1.97,1.73-3,2.2c-1.02,0.47-2.21,0.7-3.56,0.7c-2.63,0-4.84-0.93-6.65-2.8 c-1.81-1.87-2.71-4.23-2.71-7.08c0-1.94,0.46-3.72,1.38-5.32c0.92-1.6,2.19-2.81,3.8-3.63c1.61-0.82,3.64-1.23,6.08-1.23 c2.93,0,5.28,0.5,7.05,1.51c1.77,1.01,3.19,2.61,4.25,4.79c1.06,2.19,1.59,5.08,1.59,8.68c0,5.29-1.11,9.15-3.34,11.61 c-2.22,2.46-5.31,3.68-9.25,3.68c-2.33,0-4.17-0.27-5.52-0.8c-1.34-0.54-2.46-1.33-3.36-2.36C37.99,71.81,37.3,70.51,36.82,68.96 L36.82,68.96z M51.83,55.88c0-1.59-0.4-2.83-1.2-3.73c-0.8-0.9-1.77-1.35-2.92-1.35c-1.08,0-1.98,0.41-2.69,1.22 c-0.72,0.81-1.07,2.03-1.07,3.66c0,1.64,0.37,2.89,1.11,3.76c0.74,0.87,1.66,1.3,2.77,1.3c1.15,0,2.1-0.42,2.86-1.26 C51.45,58.65,51.83,57.45,51.83,55.88L51.83,55.88z M65.97,46.22h19.31v6.51H72.2l-0.7,4.39c0.9-0.42,1.79-0.74,2.68-0.95 c0.89-0.21,1.76-0.32,2.63-0.32c2.93,0,5.31,0.89,7.13,2.66c1.82,1.77,2.73,4,2.73,6.69c0,1.89-0.47,3.7-1.41,5.45 c-0.94,1.75-2.27,3.08-4,4c-1.73,0.92-3.94,1.38-6.62,1.38c-1.93,0-3.59-0.18-4.96-0.55c-1.38-0.36-2.55-0.91-3.51-1.64 c-0.97-0.73-1.75-1.55-2.35-2.47c-0.6-0.92-1.1-2.07-1.5-3.44l8.22-0.9c0.2,1.32,0.67,2.33,1.4,3.02c0.74,0.69,1.61,1.03,2.62,1.03 c1.14,0,2.07-0.43,2.81-1.29c0.74-0.86,1.11-2.14,1.11-3.85c0-1.75-0.38-3.02-1.12-3.83c-0.74-0.81-1.74-1.22-2.97-1.22 c-0.78,0-1.55,0.19-2.28,0.58c-0.55,0.28-1.15,0.78-1.79,1.52l-6.94-1L65.97,46.22L65.97,46.22z"/></g></svg>