<svg id="Layer_1" data-name="Layer 1" xmlns="http://www.w3.org/2000/svg" viewBox="0 0 122.88 122.88"><defs><style>.cls-1{fill-rule:evenodd;}</style></defs><title>download-file-round</title><path class="cls-1" d="M61.44,0A61.44,61.44,0,1,1,0,61.44,61.44,61.44,0,0,1,61.44,0Zm10.9,49.72a3.63,3.63,0,1,1,5.09,5.18L63.63,68.53a3.64,3.64,0,0,1-5.1,0L44.93,55.1A3.63,3.63,0,0,1,50,49.91l7.49,7.42.08-26.13a3.64,3.64,0,0,1,7.27.06l-.08,25.93,7.56-7.47ZM32.5,83.09l0-14.22a3.64,3.64,0,0,1,7.27.07l0,10.35q21.66,0,43.3,0l0-10.42a3.64,3.64,0,1,1,7.27.07l0,14.15h0a3.64,3.64,0,0,1-3.6,3.47q-25.32,0-50.59,0a3.63,3.63,0,0,1-3.6-3.47Z"/></svg>