<svg xmlns="http://www.w3.org/2000/svg" viewBox="0 0 121.7 122.88"><path d="M34.57 58.44a5.188 5.188 0 01-.98-1.54c-.39-.94-.5-1.95-.33-2.91.17-.96.6-1.87 1.29-2.62l.25-.26a5.207 5.207 0 017.11-.09l.03.02c1.43 1.37 3.84 3.61 5.43 5.02l1.36 1.22L65.38 39.8c.23-.24.49-.46.77-.65s.57-.36.88-.49c.31-.13.63-.24.96-.31.33-.07.67-.11 1-.12h.02a5.51 5.51 0 011.98.35c.31.12.61.27.89.45.27.17.53.37.78.61l.12.11c.23.23.44.48.63.75s.35.57.48.87c.14.31.24.63.31.96.07.32.11.66.12 1.01v.17c0 .3-.03.59-.08.89-.06.32-.15.64-.26.94-.12.31-.27.61-.45.89s-.38.55-.62.79L52.78 68.14a5.21 5.21 0 01-1.63 1.16c-.31.14-.63.25-.95.33-.32.08-.66.12-1 .14h-.09c-.31.01-.62-.01-.92-.06l-.08-.01c-.31-.05-.61-.13-.89-.23-.31-.11-.62-.25-.91-.43l-.05-.03c-.27-.17-.53-.35-.76-.56l-.05-.04c-1.17-1.08-2.44-2.19-3.72-3.3-2.22-1.93-5.31-4.71-7.16-6.67zM53.62 0c14.81 0 28.21 6 37.91 15.7 9.7 9.7 15.7 23.11 15.7 37.91 0 10.83-3.21 20.91-8.74 29.35l23.2 25.29-16 14.63-22.37-24.62a53.359 53.359 0 01-29.7 8.98c-14.81 0-28.21-6-37.91-15.7C6 81.82 0 68.42 0 53.62 0 38.81 6 25.41 15.7 15.7 25.41 6 38.81 0 53.62 0zM87.3 19.93C78.68 11.31 66.77 5.98 53.62 5.98c-13.16 0-25.06 5.33-33.68 13.95-8.63 8.62-13.96 20.53-13.96 33.69 0 13.15 5.33 25.06 13.95 33.68 8.62 8.62 20.53 13.95 33.68 13.95 13.15 0 25.06-5.33 33.68-13.95 8.62-8.62 13.95-20.53 13.95-33.68.01-13.16-5.32-25.07-13.94-33.69z" fill-rule="evenodd" clip-rule="evenodd"/></svg>