<?xml version="1.0" encoding="utf-8"?><svg version="1.1" id="Layer_1" xmlns="http://www.w3.org/2000/svg" xmlns:xlink="http://www.w3.org/1999/xlink" x="0px" y="0px" width="121.701px" height="122.881px" viewBox="0 0 121.701 122.881" enable-background="new 0 0 121.701 122.881" xml:space="preserve"><g><path d="M34.584,57.385c-2.081,0-3.768-1.687-3.768-3.768c0-2.081,1.687-3.768,3.768-3.768h38.064c2.082,0,3.768,1.687,3.768,3.768 c0,2.081-1.686,3.768-3.768,3.768H34.584L34.584,57.385z M98.496,82.963l23.205,25.291l-16,14.627L83.322,98.258 c-8.504,5.67-18.719,8.977-29.705,8.977c-14.806,0-28.21-6.002-37.913-15.705C6.001,81.828,0,68.424,0,53.617 c0-14.806,6.001-28.21,15.705-37.913C25.407,6.001,38.812,0,53.617,0c14.807,0,28.209,6.001,37.912,15.705 c9.703,9.702,15.705,23.107,15.705,37.913C107.234,64.449,104.021,74.531,98.496,82.963L98.496,82.963z M87.299,19.935 C78.68,11.315,66.771,5.983,53.617,5.983c-13.154,0-25.063,5.332-33.683,13.952c-8.62,8.62-13.952,20.528-13.952,33.683 s5.332,25.063,13.952,33.684c8.62,8.619,20.529,13.951,33.683,13.951c13.154,0,25.063-5.332,33.682-13.951 c8.621-8.621,13.953-20.529,13.953-33.684S95.92,28.554,87.299,19.935L87.299,19.935z"/></g></svg>