<?xml version="1.0" encoding="utf-8"?><svg version="1.1" id="Layer_1" xmlns="http://www.w3.org/2000/svg" xmlns:xlink="http://www.w3.org/1999/xlink" x="0px" y="0px" width="121.702px" height="122.879px" viewBox="0 0 121.702 122.879" enable-background="new 0 0 121.702 122.879" xml:space="preserve"><g><path d="M49.85,34.584c0-2.081,1.687-3.768,3.768-3.768c2.081,0,3.768,1.687,3.768,3.768v15.265h15.265 c2.081,0,3.768,1.687,3.768,3.768s-1.687,3.768-3.768,3.768H57.385v15.264c0,2.082-1.687,3.768-3.768,3.768 c-2.081,0-3.768-1.686-3.768-3.768V57.384H34.584c-2.081,0-3.768-1.687-3.768-3.768s1.687-3.768,3.768-3.768H49.85V34.584 L49.85,34.584z M98.496,82.963l23.206,25.291l-16.001,14.625L83.322,98.258c-8.503,5.67-18.718,8.977-29.705,8.977 c-14.806,0-28.21-6.002-37.913-15.705S0,68.422,0,53.617c0-14.806,6.002-28.21,15.705-37.913C25.407,6.001,38.812,0,53.617,0 s28.21,6.001,37.913,15.704c9.702,9.703,15.704,23.107,15.704,37.913C107.234,64.449,104.021,74.531,98.496,82.963L98.496,82.963z M87.3,19.934c-8.62-8.62-20.528-13.951-33.683-13.951c-13.154,0-25.063,5.332-33.683,13.951 c-8.62,8.62-13.951,20.529-13.951,33.683c0,13.155,5.332,25.063,13.951,33.682c8.62,8.621,20.528,13.951,33.683,13.951 S78.68,95.92,87.3,87.299c8.62-8.619,13.952-20.527,13.952-33.682C101.252,40.463,95.92,28.554,87.3,19.934L87.3,19.934z"/></g></svg>