<svg xmlns="http://www.w3.org/2000/svg" shape-rendering="geometricPrecision" text-rendering="geometricPrecision" image-rendering="optimizeQuality" fill-rule="evenodd" clip-rule="evenodd" viewBox="0 0 512 409.32"><path d="M5.4 281.99h181.22c2.22 27.53 10.52 53.34 23.57 76.07H5.4c-2.8 0-5.4-2.42-5.4-5.4V287.4c0-2.99 2.42-5.41 5.4-5.41zm0-64.93h187.52c8.18-28.84 23.25-54.82 43.32-76.07H5.4c-2.8 0-5.4 2.52-5.4 5.4v65.26c0 2.89 2.42 5.41 5.4 5.41zM5.4 0h395.95c2.99 0 5.41 2.6 5.41 5.4v65.26c0 2.8-2.61 5.41-5.41 5.41H5.4c-2.8 0-5.4-2.42-5.4-5.41V5.4C0 2.42 2.42 0 5.4 0z"/><path fill="#F44336" d="M369.69 124.69c78.6 0 142.31 63.71 142.31 142.32 0 78.6-63.71 142.31-142.31 142.31s-142.32-63.71-142.32-142.31c0-78.61 63.72-142.32 142.32-142.32zm-65.66 112.79c-5.46-5.38-9.83-8.74-3.01-15.37l22.03-21.49c6.98-7.06 11.06-6.7 17.56-.04l29.68 29.68 29.5-29.5c5.38-5.46 8.74-9.82 15.37-3.01l21.49 22.02c7.06 6.98 6.7 11.08.04 17.57l-29.65 29.67 29.65 29.65c6.66 6.5 7.02 10.6-.04 17.58l-21.49 22.01c-6.63 6.82-9.99 2.45-15.37-3.01l-29.5-29.5-29.68 29.68c-6.5 6.67-10.58 7.02-17.56-.04l-22.03-21.49c-6.82-6.63-2.45-10 3.01-15.37l29.52-29.51-29.52-29.53z"/></svg>