<?xml version="1.0" encoding="utf-8"?><svg version="1.1" id="Layer_1" xmlns="http://www.w3.org/2000/svg" xmlns:xlink="http://www.w3.org/1999/xlink" x="0px" y="0px" viewBox="0 0 122.88 122.88" style="enable-background:new 0 0 122.88 122.88" xml:space="preserve"><g><path d="M61.44,0c16.96,0,32.33,6.88,43.44,18c11.12,11.12,18,26.48,18,43.44c0,16.96-6.88,32.33-18,43.44 c-11.12,11.12-26.48,18-43.44,18c-16.96,0-32.33-6.88-43.44-18C6.88,93.77,0,78.4,0,61.44C0,44.48,6.88,29.11,18,18 C29.11,6.88,44.48,0,61.44,0L61.44,0z M38.73,56.62c-0.55-0.5-0.99-1.1-1.3-1.75c-0.31-0.66-0.5-1.39-0.53-2.11 c-0.03-0.72,0.07-1.45,0.32-2.14c0.23-0.67,0.61-1.31,1.12-1.87c0.5-0.56,1.1-0.99,1.75-1.3c0.67-0.31,1.39-0.5,2.11-0.53 c0.72-0.04,1.45,0.07,2.14,0.32c0.67,0.24,1.31,0.61,1.86,1.12l8.55,7.76l20.39-21.47c0.52-0.54,1.13-0.96,1.79-1.25 c0.67-0.3,1.4-0.46,2.13-0.48c0.72-0.02,1.46,0.11,2.14,0.37l0.04,0.02c0.64,0.25,1.26,0.64,1.79,1.14 c0.54,0.52,0.96,1.13,1.26,1.79c0.3,0.67,0.46,1.39,0.48,2.12c0.02,0.72-0.11,1.46-0.37,2.14l-0.03,0.06 c-0.26,0.64-0.64,1.25-1.13,1.77L58.54,67.89c-1.02,1.06-1.44,1.5-3.29,1.59h-0.03c-0.71,0.02-1.42-0.09-2.09-0.33 c-0.65-0.24-1.28-0.61-1.82-1.11L38.73,56.62L38.73,56.62z M39.07,87.21c-1.33,0-2.54-0.54-3.42-1.42 c-0.87-0.88-1.42-2.09-1.42-3.42s0.54-2.55,1.42-3.42c0.87-0.87,2.09-1.42,3.42-1.42h44.74c1.33,0,2.54,0.54,3.42,1.42 c0.88,0.88,1.42,2.09,1.42,3.42s-0.54,2.55-1.42,3.42c-0.88,0.88-2.09,1.42-3.42,1.42H39.07L39.07,87.21z M98.39,24.49 c-9.46-9.46-22.52-15.3-36.95-15.3c-14.43,0-27.5,5.85-36.95,15.3c-9.46,9.45-15.3,22.52-15.3,36.95c0,14.43,5.85,27.5,15.3,36.95 c9.45,9.46,22.52,15.3,36.95,15.3c14.43,0,27.5-5.85,36.95-15.3s15.3-22.52,15.3-36.95C113.7,47.01,107.85,33.94,98.39,24.49 L98.39,24.49z"/></g></svg>