<?xml version="1.0" encoding="utf-8"?><svg version="1.1" id="Layer_1" xmlns="http://www.w3.org/2000/svg" xmlns:xlink="http://www.w3.org/1999/xlink" x="0px" y="0px" viewBox="0 0 122.88 122.88" style="enable-background:new 0 0 122.88 122.88" xml:space="preserve"><style type="text/css"><![CDATA[
	.st0{fill-rule:evenodd;clip-rule:evenodd;}
]]></style><g><path class="st0" d="M61.44,0c33.93,0,61.44,27.51,61.44,61.44c0,33.93-27.51,61.44-61.44,61.44C27.51,122.88,0,95.37,0,61.44 C0,27.51,27.51,0,61.44,0L61.44,0z M37.48,55.47c-0.58-0.53-1.04-1.16-1.37-1.84c-0.33-0.7-0.52-1.46-0.56-2.23 c-0.04-0.75,0.07-1.53,0.33-2.26c0.25-0.71,0.65-1.38,1.18-1.97c0.53-0.59,1.17-1.05,1.84-1.37c0.7-0.33,1.47-0.52,2.23-0.56 c0.75-0.04,1.53,0.07,2.26,0.34c0.7,0.25,1.38,0.65,1.96,1.18l9.02,8.18l21.51-22.64c0.55-0.57,1.19-1.02,1.88-1.32 c0.71-0.31,1.48-0.49,2.24-0.51c0.76-0.02,1.54,0.12,2.26,0.39l0.04,0.02c0.68,0.27,1.33,0.67,1.89,1.21 c0.57,0.55,1.02,1.19,1.33,1.88c0.31,0.7,0.49,1.47,0.51,2.24c0.02,0.76-0.11,1.54-0.39,2.26l-0.03,0.07 c-0.27,0.67-0.67,1.31-1.2,1.87L58.38,67.35c-1.08,1.12-1.52,1.59-3.47,1.67h-0.03c-0.74,0.02-1.5-0.09-2.21-0.35 c-0.69-0.25-1.35-0.64-1.92-1.17L37.48,55.47L37.48,55.47z M37.84,89.67c-1.41,0-2.68-0.57-3.61-1.5c-0.92-0.92-1.5-2.2-1.5-3.61 s0.57-2.69,1.5-3.61c0.92-0.92,2.2-1.5,3.61-1.5h47.19c1.41,0,2.68,0.57,3.61,1.5s1.5,2.2,1.5,3.61s-0.57,2.69-1.5,3.61 c-0.93,0.93-2.2,1.5-3.61,1.5H37.84L37.84,89.67z"/></g></svg>