<svg id="Layer_1" data-name="Layer 1" xmlns="http://www.w3.org/2000/svg" viewBox="0 0 122.88 112.51"><title>alarm-clock</title><path d="M61.44,9.37a51.57,51.57,0,0,1,40.69,83.25l.2.24,6.93,9.14a4.88,4.88,0,0,1-7.77,5.89l-6.14-8.1a51.56,51.56,0,0,1-67.82,0l-6.15,8.1A4.87,4.87,0,0,1,13.62,102l7.1-9.36,0,0A51.58,51.58,0,0,1,61.44,9.37Zm43.34,12.29a72.26,72.26,0,0,0-10.61-9.14,71,71,0,0,0-10.25-6c23.41-18.69,49.49,6,34.58,33.18-.17.47-.34.94-.53,1.39a69.47,69.47,0,0,0-5-9,71.38,71.38,0,0,0-8.24-10.44Zm-86.68,0a71.75,71.75,0,0,1,10.61-9.14A70.45,70.45,0,0,1,39,6.53c-23.41-18.69-49.49,6-34.58,33.18.17.47.34.94.52,1.39A71.14,71.14,0,0,1,18.1,21.66Zm46,34.05A5.83,5.83,0,0,1,66.51,58H74.8a2.23,2.23,0,0,1,3.42-2.63l4.92,3.8A2.23,2.23,0,0,1,84,60.91h0v0h0a2.22,2.22,0,0,1-.87,1.75l-4.92,3.8a2.23,2.23,0,0,1-3.42-2.63H66.51a5.87,5.87,0,1,1-8.34-7.82l.07-11.34a2.22,2.22,0,0,1-2.62-3.44l3.91-4.84a2.21,2.21,0,0,1,1.66-.82h.05a2.23,2.23,0,0,1,1.84.91l3.69,5a2.23,2.23,0,0,1-2.62,3.39l-.07,10.77ZM82.5,92.48a2.47,2.47,0,1,1-4.28,2.46l-1.85-3.2a2.47,2.47,0,0,1,4.28-2.46l1.85,3.2ZM40.38,29.41A2.47,2.47,0,1,1,44.66,27l1.85,3.2a2.47,2.47,0,0,1-4.28,2.46l-1.85-3.2ZM95.45,77.72A2.47,2.47,0,0,1,93,82l-3.2-1.85a2.47,2.47,0,1,1,2.48-4.28l3.2,1.85Zm-68-33.55a2.48,2.48,0,0,1,2.48-4.29l3.2,1.85A2.47,2.47,0,1,1,30.63,46l-3.2-1.84Zm71.84,14.3a2.47,2.47,0,0,1,0,4.94H95.58a2.47,2.47,0,1,1,0-4.94ZM23.6,63.41a2.47,2.47,0,0,1,0-4.94h3.7a2.47,2.47,0,0,1,0,4.94ZM93,39.88a2.47,2.47,0,1,1,2.46,4.29L92.24,46a2.47,2.47,0,1,1-2.47-4.28L93,39.88ZM29.9,82a2.47,2.47,0,0,1-2.46-4.28l3.2-1.85a2.47,2.47,0,0,1,2.46,4.29L29.9,82ZM78.21,26.94a2.48,2.48,0,1,1,4.29,2.48l-1.85,3.2a2.47,2.47,0,0,1-4.28-2.48l1.84-3.2ZM44.66,95a2.47,2.47,0,1,1-4.28-2.48l1.85-3.2a2.47,2.47,0,0,1,4.28,2.48L44.66,95ZM59,23.11a2.47,2.47,0,0,1,4.94,0V26.8a2.47,2.47,0,0,1-4.94,0V23.11Zm4.94,75.67a2.47,2.47,0,0,1-4.94,0v-3.7a2.47,2.47,0,1,1,4.94,0v3.7Zm29.67-70a45.46,45.46,0,1,0,13.31,32.14A45.34,45.34,0,0,0,93.58,28.8Z"/></svg>