<svg id="Layer_1" data-name="Layer 1" xmlns="http://www.w3.org/2000/svg" viewBox="0 0 122.88 96.42"><title>boil-boiling-pot</title><path d="M14.21,27.25h94.28a3.07,3.07,0,0,1,3.06,3.06V35h11.33V46.79H111.55v36A13.69,13.69,0,0,1,97.89,96.42H24.82A13.69,13.69,0,0,1,11.15,82.75v-36H0V35H11.15V30.31a3.07,3.07,0,0,1,3.06-3.06Zm48.58-6.4a2.26,2.26,0,1,1-3.2-3.2c1.54-1.54.81-2.91,0-4.51-1.63-3-3.49-6.51-.31-12a2.25,2.25,0,1,1,3.9,2.26C61.22,6.72,62.45,9,63.52,11c1.71,3.18,3.17,5.93-.73,9.83Zm-38.28,0a2.26,2.26,0,0,1-3.2-3.2c1.54-1.54.81-2.91,0-4.51-1.63-3-3.49-6.51-.31-12a2.25,2.25,0,1,1,3.9,2.26C22.94,6.72,24.17,9,25.24,11c1.7,3.18,3.17,5.93-.73,9.83Zm19.14,0a2.26,2.26,0,1,1-3.2-3.2c1.54-1.54.81-2.91,0-4.51-1.63-3-3.49-6.51-.31-12A2.25,2.25,0,1,1,44,3.39C42.08,6.72,43.31,9,44.38,11c1.7,3.18,3.17,5.93-.73,9.83Zm57.74-3.2a2.26,2.26,0,0,1-3.2,3.2C94.28,17,95.75,14.2,97.46,11c1.07-2,2.3-4.3.37-7.63a2.26,2.26,0,1,1,3.91-2.26c3.18,5.5,1.32,9-.31,12-.85,1.6-1.59,3,0,4.51Zm-19.14,0a2.26,2.26,0,1,1-3.2,3.2C75.14,17,76.61,14.2,78.32,11c1.07-2,2.3-4.3.37-7.63A2.26,2.26,0,1,1,82.6,1.13c3.18,5.5,1.32,9-.31,12-.85,1.6-1.59,3,0,4.51Zm-57,20.87v27H21.89v-27ZM107,31.77H15.67v51a9.18,9.18,0,0,0,9.15,9.15H97.89A9.17,9.17,0,0,0,107,82.76v-51Z"/></svg>