<svg id="Layer_1" data-name="Layer 1" xmlns="http://www.w3.org/2000/svg" viewBox="0 0 122.88 101.51"><title>cabinet</title><path d="M6.42,0h110A6.35,6.35,0,0,1,121,1.89h0a6.37,6.37,0,0,1,1.89,4.53V98.05h-9v3.46H82.32V98.05H40.56v3.46H9V98.05H0V6.42A6.38,6.38,0,0,1,1.88,1.9l0,0A6.38,6.38,0,0,1,6.42,0ZM42.85,44.67a3,3,0,0,1,6,0v14a3,3,0,1,1-6,0v-14Zm31.19,0a3,3,0,0,1,6,0v14a3,3,0,0,1-6,0v-14ZM64.44,6V92.06h52.45V6.42a.43.43,0,0,0-.13-.3h0a.42.42,0,0,0-.3-.13Zm-6,86.07V6h-52A.44.44,0,0,0,6,6.42V92.06Z"/></svg>