<svg id="Layer_1" data-name="Layer 1" xmlns="http://www.w3.org/2000/svg" viewBox="0 0 122.88 71.28"><title>carpet-mattress-rug</title><path d="M11,0H111.92a4.44,4.44,0,0,1,4.42,4.42v1.8h4.89a1.58,1.58,0,0,1,1.65,1.5,1.59,1.59,0,0,1-1.65,1.5h-4.89v3.21h4.89a1.58,1.58,0,0,1,1.65,1.49,1.58,1.58,0,0,1-1.65,1.5h-4.89v3.21h4.89a1.51,1.51,0,1,1,0,3h-4.89v3.21h4.89a1.5,1.5,0,1,1,0,3h-4.89V31h4.89a1.51,1.51,0,1,1,0,3h-4.89v3.21h4.89a1.5,1.5,0,1,1,0,3h-4.89v3.21h4.89a1.51,1.51,0,1,1,0,3h-4.89v3.21h4.89a1.5,1.5,0,1,1,0,3h-4.89v3.21h4.89a1.51,1.51,0,1,1,0,3h-4.89v3.21h4.89a1.5,1.5,0,1,1,0,3h-4.89v1.8a4.44,4.44,0,0,1-4.42,4.42H11a4.42,4.42,0,0,1-4.42-4.42V65.07H1.71a1.52,1.52,0,1,1,0-3h4.9V58.87H1.71a1.52,1.52,0,1,1,0-3h4.9V52.66H1.71a1.52,1.52,0,1,1,0-3h4.9V46.46H1.71a1.52,1.52,0,1,1,0-3h4.9V40.25H1.71a1.52,1.52,0,1,1,0-3h4.9V34.05H1.71a1.52,1.52,0,1,1,0-3h4.9V27.84H1.71a1.52,1.52,0,1,1,0-3h4.9V21.64H1.71A1.62,1.62,0,0,1,0,20.13a1.62,1.62,0,0,1,1.71-1.51h4.9V15.43H1.71A1.62,1.62,0,0,1,0,13.92a1.62,1.62,0,0,1,1.71-1.5h4.9V9.23H1.71A1.62,1.62,0,0,1,0,7.72,1.62,1.62,0,0,1,1.71,6.21h4.9V4.42A4.42,4.42,0,0,1,11,0ZM62.12,50.05a.94.94,0,0,1-1.88,0V48.24H58.43a.94.94,0,0,1,0-1.88h1.81v-1.8a.94.94,0,0,1,1.88,0v1.8h1.8a.94.94,0,0,1,0,1.88h-1.8v1.81Zm0-22.84a.94.94,0,0,1-1.88,0v-1.8H58.43a.94.94,0,0,1,0-1.88h1.81V21.72a.94.94,0,0,1,1.88,0v1.81h1.8a.94.94,0,1,1,0,1.88h-1.8v1.8Zm34.63,22.3a.94.94,0,0,1-1.88,0V47.7H93.06a.94.94,0,0,1,0-1.88h1.81V44a.94.94,0,1,1,1.88,0v1.8h1.8a.94.94,0,0,1,0,1.88h-1.8v1.81Zm-70.11,0a.94.94,0,1,1-1.88,0V47.7H23a.94.94,0,1,1,0-1.88h1.8V44a.94.94,0,1,1,1.88,0v1.8h1.81a.94.94,0,1,1,0,1.88H26.64v1.81ZM96.75,27.45a.94.94,0,1,1-1.88,0v-1.8H93.06a.94.94,0,0,1,0-1.88h1.81V22a.94.94,0,0,1,1.88,0v1.81h1.8a.94.94,0,0,1,0,1.88h-1.8v1.8Zm-70.11,0a.94.94,0,1,1-1.88,0v-1.8H23a.94.94,0,1,1,0-1.88h1.8V22a.94.94,0,0,1,1.88,0v1.81h1.81a.94.94,0,1,1,0,1.88H26.64v1.8ZM79.71,61.1a.94.94,0,1,1-1.88,0V59.3H76a.94.94,0,0,1,0-1.88h1.81V55.61a.94.94,0,0,1,1.88,0v1.81h1.8a.94.94,0,0,1,0,1.88h-1.8v1.8Zm-35,0a.94.94,0,0,1-1.88,0V59.3h-1.8a.94.94,0,0,1,0-1.88h1.8V55.61a.94.94,0,1,1,1.88,0v1.81h1.81a.94.94,0,0,1,0,1.88H44.75v1.8Zm35-22.47a.94.94,0,1,1-1.88,0V36.82H76A.94.94,0,0,1,76,35h1.81V33.14a.94.94,0,0,1,1.88,0V35h1.8a.94.94,0,1,1,0,1.87h-1.8v1.81Zm-35,0a.94.94,0,0,1-1.88,0V36.82h-1.8a.94.94,0,1,1,0-1.87h1.8V33.14a.94.94,0,1,1,1.88,0V35h1.81a.94.94,0,0,1,0,1.87H44.75v1.81Zm35-22.47a.94.94,0,0,1-1.88,0V14.35H76a.94.94,0,0,1,0-1.88h1.81v-1.8a.94.94,0,1,1,1.88,0v1.8h1.8a.94.94,0,0,1,0,1.88h-1.8v1.81Zm32.88,32.37-14.29,9,14.29,8.95V48.53ZM96.11,58.9,82.39,67.53h27.49L96.11,58.9ZM78.64,67.13l15.27-9.61L78.64,48,63.37,57.52l15.27,9.61Zm17.46-11,15.25-9.59L96.1,37l-15.31,9.6L96.1,56.14ZM45.93,46.55l15.25,9.59L76.5,46.55,61.18,37l-15.25,9.6Zm29,21L61.18,58.9,47.4,67.53ZM59,57.52,43.72,47.91,28.45,57.52l15.27,9.57L59,57.52ZM26.26,58.9,12.54,67.53H40L26.26,58.9Zm-15.9,7.24,13.7-8.62-13.7-8.58v17.2Zm15.89-10L41.5,46.55,26.25,37l-15.32,9.6,15.32,9.59ZM93.91,35.57,78.64,26l-15.27,9.6,15.27,9.57,15.27-9.57Zm-13-11,15.25,9.59,15.32-9.59L96.11,15,80.86,24.6Zm17.44,11,14.29,9V26.62l-14.29,9ZM43.72,45.18,59,35.57,43.72,26,28.45,35.57l15.27,9.61Zm17.46-11L76.43,24.6,61.18,15,45.86,24.6l15.32,9.59ZM24.06,35.57,10.36,27v17.2l13.7-8.58ZM11,24.6l15.26,9.59L41.57,24.6,26.26,15,11,24.6Zm101.59-20-14.29,9,14.29,9V4.63ZM78.64,23.23l15.27-9.61L78.64,4.06,63.37,13.62l15.27,9.61Zm17.46-11,13.5-8.49h-27L96.1,12.24ZM47.69,3.75l13.49,8.49L74.74,3.75ZM59,13.62,43.72,4l-15.27,9.6,15.27,9.57L59,13.62ZM10.36,22.24l13.7-8.62L10.36,5v17.2Zm15.89-10L39.74,3.75h-27l13.55,8.49Zm18.5,3.92a.94.94,0,0,1-1.88,0V14.35h-1.8a.94.94,0,1,1,0-1.88h1.8v-1.8a.94.94,0,1,1,1.88,0v1.8h1.81a.94.94,0,0,1,0,1.88H44.75v1.81Z"/></svg>