<svg xmlns="http://www.w3.org/2000/svg" shape-rendering="geometricPrecision" text-rendering="geometricPrecision" image-rendering="optimizeQuality" fill-rule="evenodd" clip-rule="evenodd" viewBox="0 0 468 511.64"><path fill-rule="nonzero" d="m353.05 341.24 32.57 32.58c5.65-1.51 11.93-.05 16.37 4.38l36.79 36.8-.05.05c14.51 14.47 15.84 36.08 8.24 55.22-2.99 7.52-7.44 14.78-13.04 21.03-5.71 6.38-12.68 11.73-20.59 15.34-18.04 8.2-39.92 7.4-61.68-10.62-7.16-5.97-8.12-16.61-2.15-23.77 5.97-7.16 16.61-8.12 23.77-2.16 9.94 8.24 19.02 9.03 26.02 5.85 3.48-1.58 6.69-4.11 9.45-7.19 2.86-3.2 5.18-7 6.78-11.02 2.93-7.39 3.25-14.92-.66-18.82l-.05.05-36.79-36.8c-4.44-4.43-5.9-10.71-4.39-16.36l-31.97-31.97c-3.44 4.89-6.2 10.14-8.1 15.32-3.11 8.51-3.81 16.61-1.03 22.05L158.63 193.29l157.93 204.93c-2.3-.29-4.76-.23-7.31.14-7.24 1.05-15.06 4.52-22.18 9.66-7.24 5.23-13.71 12.12-18.1 19.88-5.6 9.92-7.76 21.3-3.58 32.35 1.17 3.08-.39 6.53-3.47 7.7-2.8 1.06-5.91-.14-7.33-2.68L.76 8.88C-.85 6 .19 2.36 3.07.75a5.974 5.974 0 0 1 5.81 0l449.97 250.46c2.22.97 4.39 2.18 6.51 3.65 2.55 1.72 3.41 5.13 1.88 7.86a5.976 5.976 0 0 1-8.12 2.32l-5.4-3.01c-6.78-2.8-14.27-2.36-21.46.32-6.9 2.58-13.56 7.17-19.2 12.96-5.64 5.8-10.21 12.8-12.93 20.16-3.09 8.38-3.73 17.21-.67 25.18L174.14 143.47l213.03 188.36c-8.56-2.73-17.18-1.12-24.95 3.07-3.21 1.73-6.29 3.88-9.17 6.34z"/></svg>