<svg id="Layer_1" data-name="Layer 1" xmlns="http://www.w3.org/2000/svg" viewBox="0 0 122.88 65.28"><title>couch-sofa</title><path d="M14,58.73A1.94,1.94,0,0,0,13.17,57c-1.1-.89-2.29-1.87-2.29-5.34,0-1.92.14-3.62.28-5.22.3-3.52.55-6.51-1.1-10.27a14.07,14.07,0,0,1-1.92.06A8.41,8.41,0,0,1,2.57,34,8.22,8.22,0,0,1,.15,29.35,10,10,0,0,1,0,27.16,8.3,8.3,0,0,1,1.93,22,9,9,0,0,1,7,19.12a11.87,11.87,0,0,1,3.17-.21V16a16.08,16.08,0,0,1,16-16h70a16.08,16.08,0,0,1,16,16V18.9a12.51,12.51,0,0,1,1.49-.08,9.82,9.82,0,0,1,6.13,1.92A7.78,7.78,0,0,1,122,23.42a8.78,8.78,0,0,1,.67,5.65,9.52,9.52,0,0,1-1.56,3.61,8.5,8.5,0,0,1-3.1,2.65,9,9,0,0,1-5.38.77c-1.66,3.77-1.41,6.76-1.11,10.29.14,1.6.28,3.3.28,5.22,0,3.47-1.19,4.45-2.29,5.34a1.94,1.94,0,0,0-.87,1.78,1.42,1.42,0,0,1-1.43,1.42h-5.11s0,.08,0,.11v3.48a1.54,1.54,0,0,1-1.54,1.54H90.94a1.54,1.54,0,0,1-1.53-1.54V60.15H33.47v3.59a1.54,1.54,0,0,1-1.53,1.54H22.29a1.54,1.54,0,0,1-1.53-1.54V60.15H15.47A1.42,1.42,0,0,1,14,58.73Zm87-25.51a1.58,1.58,0,0,1,0,.38v9.14a1.43,1.43,0,0,1-1.43,1.43H23.32a1.43,1.43,0,0,1-1.43-1.43V33.83a42.1,42.1,0,0,0-1.73-4.16,23.39,23.39,0,0,0-2-3.38,10.93,10.93,0,0,0-5.79-4.12,10,10,0,0,0-4.8-.26A6.15,6.15,0,0,0,4.1,23.85a5.52,5.52,0,0,0-1.25,3.43A7.67,7.67,0,0,0,3,28.86a5.48,5.48,0,0,0,1.57,3.06,5.59,5.59,0,0,0,3.74,1.42,11.53,11.53,0,0,0,2.39-.18,1.43,1.43,0,0,1,1.51.76c2.5,4.94,2.2,8.47,1.84,12.7-.14,1.53-.27,3.16-.27,5,0,2.12.64,2.65,1.24,3.14a4.19,4.19,0,0,1,1.78,2.55H106a4.19,4.19,0,0,1,1.78-2.55c.6-.49,1.24-1,1.24-3.14,0-1.83-.13-3.46-.27-5-.35-4.21-.65-7.73,1.8-12.63a1.45,1.45,0,0,1,1.41-.85l.5,0,.18,0a6.43,6.43,0,0,0,4.19-.43,5.63,5.63,0,0,0,2-1.76,6.61,6.61,0,0,0,1.08-2.51,6,6,0,0,0-.44-3.83,4.86,4.86,0,0,0-1.38-1.7,7.08,7.08,0,0,0-4.38-1.33,12,12,0,0,0-5.26,1.28A10.13,10.13,0,0,0,105,25.66a22.13,22.13,0,0,0-2.22,3.58,38.3,38.3,0,0,0-1.73,4ZM24.74,35v6.28H98.23V35c-11.86.17-23.75.23-35.6.55l-1.28,0h0l-3.18-.08L24.74,35ZM59.93,2.91V2.85H26.22A13.21,13.21,0,0,0,13.05,16V19.4l.16.05a13.79,13.79,0,0,1,7.29,5.19,26.91,26.91,0,0,1,2.22,3.78c.55,1.14,1.09,2.39,1.6,3.77,11.86.18,23.77.23,35.62.55a1.55,1.55,0,0,1,0-.22V2.91Zm2.84-.06V32.52a1.5,1.5,0,0,1,0,.22c11.85-.32,23.76-.37,35.62-.55A40.78,40.78,0,0,1,100.22,28a23.9,23.9,0,0,1,2.53-4,13,13,0,0,1,4.44-3.53,15.28,15.28,0,0,1,2.18-.88V16A13.21,13.21,0,0,0,96.2,2.85Z"/></svg>