<svg id="Layer_1" data-name="Layer 1" xmlns="http://www.w3.org/2000/svg" viewBox="0 0 122.88 64.22"><defs><style>.cls-1{fill-rule:evenodd;}</style></defs><title>desk</title><path class="cls-1" d="M120.14,13.53V27.34H81.4V13.53H21.77V62.41a1.81,1.81,0,0,1-.54,1.28l-.17.15a1.82,1.82,0,0,1-1.11.38H11.34a1.85,1.85,0,0,1-1.28-.52v0a1.79,1.79,0,0,1-.53-1.27V13.53H2.57A2.56,2.56,0,0,1,0,11V2.57A2.57,2.57,0,0,1,.75.76h0A2.59,2.59,0,0,1,2.57,0H120.31a2.56,2.56,0,0,1,2.57,2.57V11a2.56,2.56,0,0,1-2.57,2.57ZM119.89,3H3v7.55h116.9V3ZM100.53,19.1c3.13,0,5.68.51,5.68,1.14s-2.55,1.15-5.68,1.15-5.68-.52-5.68-1.15,2.55-1.14,5.68-1.14Zm0,34.53c3.13,0,5.68.54,5.68,1.21s-2.55,1.21-5.68,1.21-5.68-.54-5.68-1.21,2.55-1.21,5.68-1.21Zm0-17.3c3.13,0,5.68.54,5.68,1.21s-2.55,1.21-5.68,1.21-5.68-.54-5.68-1.21,2.55-1.21,5.68-1.21Zm19.61-6V44.41H81.4V30.34Zm0,17.07v15a1.83,1.83,0,0,1-.52,1.27l0,0a1.8,1.8,0,0,1-1.26.52H83.22a1.83,1.83,0,0,1-1.28-.52l0,0a1.8,1.8,0,0,1-.52-1.26v-15Z"/></svg>