<svg xmlns="http://www.w3.org/2000/svg" shape-rendering="geometricPrecision" text-rendering="geometricPrecision" image-rendering="optimizeQuality" fill-rule="evenodd" clip-rule="evenodd" viewBox="0 0 406 511.4"><path d="M208.14 262.32 406 64.46c-1.16-8.19-6.5-12.46-14.35-14.35L215.46 15.38l-54.03 54.04 2.13 11.79L51.67 195.32c-14.17.22-26.98 6.05-36.3 15.36C5.88 220.18 0 233.31 0 247.8c0 14.49 5.88 27.61 15.37 37.11a52.397 52.397 0 0 0 22.94 13.43l94.52 149.54H93.88c-24.09 0-43.83 19.74-43.83 43.84v19.68h249.64v-19.68c0-24.06-19.74-43.84-43.84-43.84h-62.63L89.97 284.53c9.27-9.47 14.99-22.44 14.99-36.73 0-9.69-2.63-18.77-7.21-26.57l76.97-78.48 19.07 105.22c2.47 7.31 6.34 13.09 14.35 14.35zm143.97-51.8c18.26-18.27 18.26-48.15 0-66.41l-2.14-2.14-66.41 66.41 2.14 2.14c18.27 18.26 48.15 18.26 66.41 0zM153.7 10.94c14.59-14.59 38.46-14.59 53.05 0l1.71 1.71-53.05 53.05-1.71-1.71c-14.59-14.59-14.59-38.46 0-53.05z"/></svg>