<svg id="Layer_1" data-name="Layer 1" xmlns="http://www.w3.org/2000/svg" viewBox="0 0 122.88 67.17"><defs><style>.cls-1{fill-rule:evenodd;}</style></defs><title>dining-table</title><path class="cls-1" d="M36.62,15.45a.5.5,0,0,0,.21.05H57.34v48h-1a1.87,1.87,0,0,0-1.86,1.86h0a1.87,1.87,0,0,0,1.86,1.86h12a1.86,1.86,0,0,0,1.85-1.86h0a1.86,1.86,0,0,0-1.85-1.86h-1V15.5H86.05a.59.59,0,0,0,.22-.05h2a4.53,4.53,0,0,0,4.52-4.52h0a4.53,4.53,0,0,0-4.52-4.52H34.66a4.53,4.53,0,0,0-4.52,4.52h0a4.53,4.53,0,0,0,4.52,4.52ZM1.74,0H6.33A1.83,1.83,0,0,1,8,1.7a203.24,203.24,0,0,1,2.62,32.76H42a2.25,2.25,0,0,1,2.25,2.25v4.54h-1.8V64.49a.69.69,0,0,1-.68.68h-6a.68.68,0,0,1-.69-.68V54.38H9.41Q8.85,59,8,63.63a1.84,1.84,0,0,1-1.7,1.7H1.74c-.93,0-2-.81-1.7-1.7,6-21,4.78-41.6,0-61.93C-.17.79.81,0,1.74,0ZM35.07,51.25v-10H10.55c-.13,4.25-.43,5.75-.88,10ZM121.14,0h-4.59a1.83,1.83,0,0,0-1.7,1.7,203.24,203.24,0,0,0-2.62,32.76H80.88a2.25,2.25,0,0,0-2.25,2.25v4.54h1.8V64.49a.69.69,0,0,0,.68.68h6a.68.68,0,0,0,.69-.68V54.38h25.66q.56,4.62,1.38,9.25a1.84,1.84,0,0,0,1.7,1.7h4.59c.93,0,2-.81,1.7-1.7-6-21-4.78-41.6,0-61.93.21-.91-.77-1.7-1.7-1.7ZM87.81,51.25v-10h24.52c.13,4.25.43,5.75.88,10Z"/></svg>