<svg id="Layer_1" data-name="Layer 1" xmlns="http://www.w3.org/2000/svg" viewBox="0 0 122.88 70.06"><defs><style>.cls-1{fill-rule:evenodd;}</style></defs><title>doormat</title><path class="cls-1" d="M8.51,70.06a7.53,7.53,0,0,0,5.34-2.21,7.84,7.84,0,0,0,.54-.61c.18.21.36.42.55.61a7.54,7.54,0,0,0,10.67,0,7.84,7.84,0,0,0,.54-.61,8,8,0,0,0,.55.61,7.54,7.54,0,0,0,10.67,0c.19-.19.37-.4.55-.61a7.84,7.84,0,0,0,.54.61,7.54,7.54,0,0,0,10.67,0,8,8,0,0,0,.55-.61,6.31,6.31,0,0,0,.55.61,7.53,7.53,0,0,0,10.66,0,6.31,6.31,0,0,0,.55-.61,8,8,0,0,0,.55.61,7.54,7.54,0,0,0,10.67,0,6.35,6.35,0,0,0,.54-.61,8,8,0,0,0,.55.61,7.54,7.54,0,0,0,10.67,0,8.18,8.18,0,0,0,.55-.61,7.84,7.84,0,0,0,.54.61,7.54,7.54,0,0,0,10.67,0,8,8,0,0,0,.55-.61,7.84,7.84,0,0,0,.54.61,7.57,7.57,0,0,0,5.34,2.21,7.49,7.49,0,0,0,5.33-2.21,8,8,0,0,0,.55-.61,7.84,7.84,0,0,0,.54.61A7.55,7.55,0,0,0,121.76,64a4.25,4.25,0,0,0,1.12-2.86V8.88A4.23,4.23,0,0,0,121.76,6,7.55,7.55,0,0,0,109,2.21a7.84,7.84,0,0,0-.54.61,6.44,6.44,0,0,0-.55-.61A7.49,7.49,0,0,0,102.61,0a7.57,7.57,0,0,0-5.34,2.21,7.84,7.84,0,0,0-.54.61,6.44,6.44,0,0,0-.55-.61,7.54,7.54,0,0,0-10.67,0,6.35,6.35,0,0,0-.54.61,8.18,8.18,0,0,0-.55-.61,7.54,7.54,0,0,0-10.67,0,6.44,6.44,0,0,0-.55.61,6.35,6.35,0,0,0-.54-.61A7.54,7.54,0,0,0,62,2.21a6.44,6.44,0,0,0-.55.61,5.32,5.32,0,0,0-.55-.61,7.53,7.53,0,0,0-10.66,0,6.31,6.31,0,0,0-.55.61,8,8,0,0,0-.55-.61,7.54,7.54,0,0,0-10.67,0,7.84,7.84,0,0,0-.54.61c-.18-.21-.36-.42-.55-.61a7.54,7.54,0,0,0-10.67,0,8,8,0,0,0-.55.61,6.35,6.35,0,0,0-.54-.61,7.54,7.54,0,0,0-10.67,0c-.19.19-.37.4-.55.61a7.84,7.84,0,0,0-.54-.61A7.56,7.56,0,0,0,1.12,6,4.25,4.25,0,0,0,0,8.88v52.3A4.23,4.23,0,0,0,1.12,64a7.56,7.56,0,0,0,7.39,6ZM29.13,27.13h4.23L30,42.86H25.11l-1.74-9.39-1.74,9.39H16.7L13.37,27.13h4.46l1.32,10.58,2.11-10.58h4.19l2.11,10.58,1.57-10.58ZM39.37,39.79h5.36v3.07H35.08V27.13h9.43v3.06H39.37V33.4H43.8v3.06H39.37v3.33Zm11.49,0h4.87v3.07H46.57V27.13h4.29V39.79ZM67.74,33H63.45V30.48c0-.35-.21-.53-.61-.53H62c-.41,0-.61.18-.61.53v9c0,.36.2.54.61.54h.86c.4,0,.61-.18.61-.54V37.08h4.29v2.74c0,2-1.2,3-3.61,3H60.68c-2.4,0-3.6-1-3.6-3V30.17q0-3,3.6-3h3.45q3.62,0,3.61,3V33Zm5.61-5.88H77q3.6,0,3.6,3v9.65c0,2-1.2,3-3.6,3H73.35c-2.41,0-3.61-1-3.61-3V30.17q0-3,3.61-3Zm2.94,12.13V30.73c0-.36-.21-.54-.62-.54h-1c-.4,0-.61.18-.61.54v8.53c0,.36.21.53.61.53h1c.41,0,.62-.17.62-.53Zm10.48,3.6H83V27.13h4.68l2.55,8.4,2.54-8.4H97.4V42.86H93.61v-10l-2,6.59H88.71l-1.94-6.54v10Zm17.37-3.07h5.37v3.07H99.85V27.13h9.44v3.06h-5.15V33.4h4.44v3.06h-4.44v3.33ZM120,60.85H2.85V9.21H120V60.85ZM5.71,11.55a1,1,0,0,0,0,1.94H7.65a1,1,0,1,0,0-1.94Zm1,3.81A1,1,0,0,0,5,14.67a.93.93,0,0,0-.29.69V17.3A1,1,0,0,0,6.39,18a1,1,0,0,0,.29-.69V15.36Zm0,5.81A1,1,0,0,0,5,20.48a1,1,0,0,0-.29.69v1.94a1,1,0,0,0,1.94,0V21.17Zm0,5.82A1,1,0,0,0,5,26.3a.93.93,0,0,0-.29.69v1.94a1,1,0,0,0,1.65.69,1,1,0,0,0,.29-.69V27Zm0,5.81A1,1,0,0,0,5,32.11a1,1,0,0,0-.29.69v1.94a1,1,0,0,0,1.94,0V32.8Zm0,5.82A1,1,0,0,0,5,37.93a.93.93,0,0,0-.29.69v1.94a1,1,0,0,0,1.65.69,1,1,0,0,0,.29-.69V38.62Zm0,5.81A1,1,0,0,0,5,43.74a1,1,0,0,0-.29.69v1.94a1,1,0,0,0,1.94,0V44.43Zm0,5.82A1,1,0,0,0,5,49.56a.93.93,0,0,0-.29.69v1.94a1,1,0,0,0,1.65.69,1,1,0,0,0,.29-.69V50.25Zm0,5.81A1,1,0,0,0,5,55.37a1,1,0,0,0-.29.69v1.46a1,1,0,0,0,1,1h.46a1,1,0,0,0,.69-1.65l-.18-.14v-.66Zm3.37.51a1,1,0,0,0-.69,1.65.93.93,0,0,0,.69.29H12a1,1,0,0,0,0-1.94Zm5.81,0a1,1,0,0,0-.69,1.65,1,1,0,0,0,.69.29H17.8a1,1,0,0,0,.69-1.65,1,1,0,0,0-.69-.29Zm5.82,0A1,1,0,0,0,21,58.22a.93.93,0,0,0,.69.29h1.93a1,1,0,0,0,0-1.94Zm5.81,0a1,1,0,0,0-.69,1.65,1,1,0,0,0,.69.29h1.94a1,1,0,0,0,.69-1.65,1,1,0,0,0-.69-.29Zm5.82,0a1,1,0,0,0-.69,1.65.93.93,0,0,0,.69.29h1.93a1,1,0,0,0,0-1.94Zm5.81,0a1,1,0,0,0-.69,1.65,1,1,0,0,0,.69.29h1.94a1,1,0,0,0,.69-1.65,1,1,0,0,0-.69-.29Zm5.82,0a1,1,0,0,0-.69,1.65.93.93,0,0,0,.69.29h1.93a1,1,0,0,0,0-1.94Zm5.81,0a1,1,0,0,0-.69,1.65,1,1,0,0,0,.69.29h1.94a1,1,0,0,0,.69-1.65,1,1,0,0,0-.69-.29Zm5.82,0a1,1,0,0,0-.69,1.65.93.93,0,0,0,.69.29H58.5a1,1,0,0,0,0-1.94Zm5.81,0a1,1,0,0,0-.69,1.65,1,1,0,0,0,.69.29h1.94A1,1,0,0,0,65,56.86a1,1,0,0,0-.69-.29Zm5.82,0a1,1,0,0,0-.69,1.65.93.93,0,0,0,.69.29h1.93a1,1,0,0,0,0-1.94Zm5.81,0a1,1,0,0,0-.69,1.65,1,1,0,0,0,.69.29H76a1,1,0,0,0,.69-1.65,1,1,0,0,0-.69-.29Zm5.82,0a1,1,0,0,0-.69,1.65.93.93,0,0,0,.69.29h1.93a1,1,0,0,0,0-1.94Zm5.81,0A1,1,0,0,0,85,58.22a1,1,0,0,0,.69.29h1.94a1,1,0,0,0,.69-1.65,1,1,0,0,0-.69-.29Zm5.82,0a1,1,0,0,0-.69,1.65.93.93,0,0,0,.69.29h1.93a1,1,0,0,0,0-1.94Zm5.81,0a1,1,0,0,0-.69,1.65,1,1,0,0,0,.69.29h1.94a1,1,0,0,0,.69-1.65,1,1,0,0,0-.69-.29Zm5.82,0a1,1,0,0,0-.69,1.65.93.93,0,0,0,.69.29H105a1,1,0,0,0,0-1.94Zm5.81,0a1,1,0,0,0-.69,1.65,1,1,0,0,0,.69.29h1.94a1,1,0,0,0,.69-1.65,1,1,0,0,0-.69-.29Zm5.82,0a1,1,0,0,0-.69,1.65.93.93,0,0,0,.69.29h1.93a1,1,0,0,0,0-1.94Zm1.48-2.39a1,1,0,0,0,1.65.69.93.93,0,0,0,.29-.69V52.24a1,1,0,0,0-1.65-.69,1,1,0,0,0-.29.69v1.94Zm0-5.81a1,1,0,0,0,1.65.69,1,1,0,0,0,.29-.69V46.43a1,1,0,0,0-1.65-.69.93.93,0,0,0-.29.69v1.94Zm0-5.82a1,1,0,0,0,1.65.69.93.93,0,0,0,.29-.69V40.61a1,1,0,0,0-1.65-.69,1,1,0,0,0-.29.69v1.94Zm0-5.81a1,1,0,0,0,1.65.69,1,1,0,0,0,.29-.69V34.8a1,1,0,0,0-1.65-.69.93.93,0,0,0-.29.69v1.94Zm0-5.82a1,1,0,0,0,1.65.69.93.93,0,0,0,.29-.69V29a1,1,0,0,0-1.65-.69,1,1,0,0,0-.29.69v1.94Zm0-5.81a1,1,0,0,0,1.65.69,1,1,0,0,0,.29-.69V23.17a1,1,0,0,0-1.65-.69.93.93,0,0,0-.29.69v1.94Zm0-5.82a1,1,0,0,0,1.65.69.93.93,0,0,0,.29-.69V17.35a1,1,0,0,0-1.65-.69,1,1,0,0,0-.29.69v1.94Zm0-5.8a1,1,0,0,0,1.65.68,1,1,0,0,0,.29-.69v-.94a1,1,0,0,0-1-1h-1a1,1,0,0,0-.69,1.65,1,1,0,0,0,.69.29Zm-3.88,0a1,1,0,1,0,0-1.94h-1.94a1,1,0,0,0,0,1.94Zm-5.82,0a1,1,0,0,0,.69-1.66,1,1,0,0,0-.69-.28h-1.94a1,1,0,0,0-.69,1.65,1,1,0,0,0,.69.29Zm-5.81,0a1,1,0,1,0,0-1.94H98.75a1,1,0,0,0,0,1.94Zm-5.82,0a1,1,0,0,0,.69-1.66,1,1,0,0,0-.69-.28H92.93a1,1,0,0,0-.69,1.65,1,1,0,0,0,.69.29Zm-5.81,0a1,1,0,1,0,0-1.94H87.12a1,1,0,0,0,0,1.94Zm-5.82,0a1,1,0,0,0,.69-1.66,1,1,0,0,0-.69-.28H81.3a1,1,0,0,0-.69,1.65,1,1,0,0,0,.69.29Zm-5.81,0a1,1,0,1,0,0-1.94H75.49a1,1,0,0,0,0,1.94Zm-5.82,0a1,1,0,0,0,.69-1.66,1,1,0,0,0-.69-.28H69.67A1,1,0,0,0,69,13.2a1,1,0,0,0,.69.29Zm-5.81,0a1,1,0,1,0,0-1.94H63.86a1,1,0,0,0,0,1.94Zm-5.82,0a1,1,0,0,0,.69-1.66,1,1,0,0,0-.69-.28H58a1,1,0,0,0-.69,1.65,1,1,0,0,0,.69.29Zm-5.81,0a1,1,0,1,0,0-1.94H52.23a1,1,0,0,0,0,1.94Zm-5.82,0A1,1,0,0,0,49,11.83a1,1,0,0,0-.69-.28H46.41a1,1,0,0,0-.69,1.65,1,1,0,0,0,.69.29Zm-5.81,0a1,1,0,1,0,0-1.94H40.6a1,1,0,0,0,0,1.94Zm-5.82,0a1,1,0,0,0,.69-1.66,1,1,0,0,0-.69-.28H34.78a1,1,0,0,0-.69,1.65,1,1,0,0,0,.69.29Zm-5.81,0a1,1,0,1,0,0-1.94H29a1,1,0,0,0,0,1.94Zm-5.82,0a1,1,0,0,0,.69-1.66,1,1,0,0,0-.69-.28H23.15a1,1,0,0,0-.69,1.65,1,1,0,0,0,.69.29Zm-5.81,0a1,1,0,1,0,0-1.94H17.34a1,1,0,0,0,0,1.94Zm-5.82,0a1,1,0,0,0,.69-1.66,1,1,0,0,0-.69-.28H11.52a1,1,0,0,0-.69,1.65,1,1,0,0,0,.69.29Z"/></svg>