<svg xmlns="http://www.w3.org/2000/svg" shape-rendering="geometricPrecision" text-rendering="geometricPrecision" image-rendering="optimizeQuality" fill-rule="evenodd" clip-rule="evenodd" viewBox="0 0 512 448.74"><path d="m220 310.73-.3-.23-33.26-27.18c-3.26-2.69-6.94-4.55-10.34-5.23-2.03-.39-3.82-.37-5.14.17-.89.36-1.7 1.15-2.26 2.4-.94 2.06-1.37 5.1-1.09 9.27.24 3.72 1.58 7.92 3.36 11.97 2.73 6.19 6.35 11.76 9.01 15.3l56.37 85.23a9.698 9.698 0 0 1 1.52 4.14c1.07 8.85 2.9 15.42 5.58 19.43 1.67 2.45 3.77 3.72 6.29 3.65 28.67 0 59.47-1.12 87.86 0 4.91-.12 9.44-1.6 13.52-4.42 4.7-3.25 9.04-8.37 12.99-15.28l1.09-1.84c10.69-18.43 21.08-36.33 22.16-57.31-.23-10.61-.65-21.23-.57-31.84.2-15.63.43-34.91-12.61-37.37h-7.43c-.12 3.99-.37 8-.61 11.91-.26 4.02-.51 7.93-.51 11.68a9.56 9.56 0 0 1-9.56 9.56 9.56 9.56 0 0 1-9.56-9.56c0-3.76.29-8.24.58-12.87.92-14.52 1.96-31.2-8.33-33.3h-8.81c-.04 4.94-.36 9.97-.67 14.85-.25 4.02-.5 7.93-.5 11.68a9.56 9.56 0 0 1-9.56 9.56 9.56 9.56 0 0 1-9.56-9.56c0-3.77.28-8.24.58-12.87.92-14.52 1.96-31.2-8.33-33.3h-9.18v25.98c0 5.28-4.28 9.57-9.56 9.57-5.27 0-9.56-4.29-9.56-9.57v-76.31c0-11.84-4.68-19.24-10.66-22.25-2.13-1.08-4.43-1.63-6.67-1.63-2.3.04-4.59.57-6.66 1.62-5.9 2.99-10.5 10.42-10.5 22.57v133.72c0 5.28-4.29 9.57-9.56 9.57-5.28 0-9.56-4.29-9.56-9.57v-12.34zm35.03-241.99c26.35 0 47.72 21.36 47.72 47.71 0 16.83-8.72 31.64-21.89 40.13 7.08 7.21 11.87 18.07 11.87 32.46v21.91h28.75c2.66 0 5.12-1.03 6.96-2.7l.35-.36c1.88-1.88 3.06-4.48 3.06-7.31V32.33c0-2.83-1.17-5.43-3.06-7.32-1.85-1.9-4.45-3.06-7.31-3.06H188.59c-2.68 0-5.14 1.02-6.96 2.68l-.36.38c-1.88 1.88-3.06 4.48-3.06 7.32v168.25c0 2.68 1.02 5.13 2.68 6.95l.38.36c1.89 1.89 4.49 3.06 7.32 3.06H220v-21.6c0-13.96 4.32-24.55 10.84-31.77-14.07-8.3-23.52-23.61-23.52-41.13 0-26.35 21.36-47.71 47.71-47.71zm110.38 193.73h9.4c.73 0 1.44.08 2.14.24 29.52 4.63 29.18 33.29 28.89 56.41-.08 10.81.5 21.59.57 32.4-1.26 25.72-12.82 45.64-24.71 66.15l-1.01 1.76c-5.35 9.36-11.59 16.55-18.74 21.49-7.29 5.03-15.37 7.65-24.21 7.77l-87.77.05c-9.56.14-16.99-4.02-22.39-12.14-4.11-6.23-6.88-14.81-8.38-25.51l-54.79-82.91c-3.32-4.49-7.69-11.25-10.92-18.59-2.57-5.83-4.52-12.19-4.93-18.47-.49-7.46.57-13.54 2.73-18.3 2.75-6.1 7.16-10.09 12.51-12.27 4.91-2 10.45-2.31 15.99-1.2 6.49 1.3 13.17 4.58 18.83 9.26L220 286.1v-56.02h-31.41c-8.11 0-15.5-3.32-20.84-8.67l-.58-.63c-5-5.29-8.08-12.41-8.08-20.2V32.33c0-8.12 3.32-15.5 8.66-20.84l.63-.58c5.29-5 12.41-8.08 20.21-8.08h132.89c8.08 0 15.47 3.33 20.81 8.68 5.36 5.32 8.68 12.71 8.68 20.82v168.25c0 8.11-3.33 15.5-8.66 20.83l-.64.58c-4.98 4.71-11.6 7.72-18.84 8.06 2.3 2.89 3.91 6.25 5 9.95.48-.08.97-.11 1.46-.11h10.14c.73 0 1.44.08 2.13.24 15 2.36 21.38 11.15 23.85 22.34zM52.55 213.53c3.68 5.97 1.83 13.8-4.14 17.48-5.97 3.68-13.8 1.83-17.48-4.14-9.98-16.18-17.8-33.8-23.07-52.44A208.95 208.95 0 0 1 0 117.65c0-20.09 2.9-39.63 8.29-58.21A207.716 207.716 0 0 1 32.46 5.92c3.76-5.94 11.63-7.7 17.57-3.94 5.94 3.76 7.71 11.64 3.94 17.58-9.2 14.48-16.43 30.26-21.27 46.96-4.68 16.11-7.19 33.27-7.19 51.13 0 17.37 2.39 34.13 6.85 49.91 4.63 16.4 11.49 31.85 20.19 45.97zm362.12-14.46c-4.15 5.67-12.12 6.89-17.78 2.74-5.66-4.14-6.89-12.12-2.74-17.78 6.93-9.45 12.44-20.04 16.16-31.43 3.57-10.95 5.51-22.7 5.51-34.95 0-11.87-1.83-23.3-5.21-33.98a111.948 111.948 0 0 0-15.26-30.74c-4.03-5.74-2.65-13.69 3.1-17.73 5.74-4.03 13.69-2.65 17.73 3.1a137.368 137.368 0 0 1 18.74 37.71c4.15 13.15 6.41 27.17 6.41 41.64 0 14.89-2.4 29.31-6.81 42.83a137.423 137.423 0 0 1-19.85 38.59zm66.4 27.8c-3.68 5.97-11.51 7.82-17.48 4.14-5.97-3.68-7.82-11.51-4.14-17.48 8.7-14.12 15.56-29.57 20.19-45.97 4.46-15.78 6.85-32.54 6.85-49.91 0-17.86-2.51-35.02-7.19-51.13-4.84-16.7-12.07-32.48-21.27-46.96-3.77-5.94-2-13.82 3.94-17.58 5.93-3.76 13.81-2 17.57 3.94a207.716 207.716 0 0 1 24.17 53.52c5.39 18.58 8.29 38.12 8.29 58.21 0 19.6-2.75 38.67-7.86 56.78a207.344 207.344 0 0 1-23.07 52.44zm-363.22-42.84c4.15 5.66 2.92 13.64-2.74 17.78-5.66 4.15-13.63 2.93-17.78-2.74a137.423 137.423 0 0 1-19.85-38.59 138.01 138.01 0 0 1-6.81-42.83c0-14.47 2.26-28.49 6.41-41.64 4.31-13.59 10.68-26.3 18.74-37.71 4.04-5.75 11.99-7.13 17.73-3.1 5.75 4.04 7.13 11.99 3.1 17.73a111.948 111.948 0 0 0-15.26 30.74c-3.38 10.68-5.21 22.11-5.21 33.98 0 12.25 1.94 24 5.51 34.95 3.72 11.39 9.23 21.98 16.16 31.43zm137.18-94.58c14.92 0 27.01 12.09 27.01 27s-12.09 27.01-27.01 27.01c-14.91 0-27-12.1-27-27.01 0-14.91 12.09-27 27-27z"/></svg>