<svg id="Layer_1" data-name="Layer 1" xmlns="http://www.w3.org/2000/svg" viewBox="0 0 118.74 122.88"><title>door-key</title><path d="M70,9.81c.14.13.27.26.4.4a34.29,34.29,0,0,1-.21,48.19l-.06.07L100,88.38h0L111.62,100h0l7.12,7.12-11.62,11.61L100,111.62,88.74,122.88,77.12,111.26,88.38,100l-6.14-6.14-13,13L57.65,95.21l13-13L58.47,70.09l-.07.06A34.22,34.22,0,0,1,10,21.75L21.75,10A34.28,34.28,0,0,1,70,9.81ZM61.31,34.2a15.32,15.32,0,0,0-4.47-10.87h0a15.45,15.45,0,0,0-21.76,0L23.32,35.07A15.39,15.39,0,0,0,45.08,56.83L56.83,45.08A15.35,15.35,0,0,0,61.31,34.2Z"/></svg>