<svg xmlns="http://www.w3.org/2000/svg" shape-rendering="geometricPrecision" text-rendering="geometricPrecision" image-rendering="optimizeQuality" fill-rule="evenodd" clip-rule="evenodd" viewBox="0 0 470 512.45"><path d="M330.91 457.77H28.05c-12.69-106.05-14.27-196.13 2.29-275.89l.19 1.11c13.74-44.62 31.73-92.13 48.87-123.3h139.21c39.22-6.5 79.9.42 116.81 16.83 7.92-4.86 24.88-2.06 41.49 7.53 19.56 11.29 31.22 27.73 26.04 36.71l-.14.22c53.03 49.13 82.71 120.48 58.84 191.53-17.95 53.43-67.19 91.2-124.65 103.19-1.62 14.39-3.65 28.46-6.09 42.07zM248.3 88.78l-6.01-.42c24.42 101.78 30.52 214.44 16.88 340.23h26.55c19.99-125.15 5.4-237.64-37.42-339.81zM68.1 59.68c-17.14 31.17-35.14 78.68-48.87 123.31C12.4 142.1-4.78 102.34 1.27 59.63c20.07 1.29 47.56 1.96 66.83.05zm241.21 61c27.14 73.5 36.64 170.71 30.76 260.46 3.05-1.18 6.06-2.42 9-3.74 96.98-43.35 105.08-144.15 27.33-214.57-18.99-17.2-41.99-31.65-67.09-42.15zM30.67 468.08H329.3c12.21 0 22.19 9.99 22.19 22.19 0 12.2-9.98 22.18-22.19 22.18H30.67c-12.2 0-22.19-9.98-22.19-22.18s9.99-22.19 22.19-22.19zM91.38 43.72c11.57-13.72 25.17-25.59 41.28-33.56 29.31-14.49 68.93-13.09 97.88 1.71 13.92 7.12 26.21 18.74 36.74 31.85H91.38z"/></svg>