<svg id="Layer_1" data-name="Layer 1" xmlns="http://www.w3.org/2000/svg" viewBox="0 0 74.71 122.88"><title>empty-glass</title><path d="M0,14.82a2.62,2.62,0,0,1,0-.56q0-.3,0-.63C0,9.36,4.56,5.77,11.92,3.4,18.48,1.3,27.47,0,37.35,0S56.23,1.3,62.79,3.4c7.36,2.37,11.92,6,11.92,10.23a6.16,6.16,0,0,1-.34,2l-8.9,95.75a13.27,13.27,0,0,1-3.72,8.18h0a11.14,11.14,0,0,1-8,3.33H21.61a11.1,11.1,0,0,1-7.95-3.31A13.47,13.47,0,0,1,9.9,111.4L0,14.82Zm15.05,44a2.43,2.43,0,1,1,4.83-.5l1.25,12.24a2.43,2.43,0,1,1-4.83.49L15.08,58.8Zm2.14,21a2.43,2.43,0,1,1,4.83-.49l2.24,21.92a2.42,2.42,0,1,1-4.82.5L17.22,79.75ZM5.55,21.11l9.18,89.79a8.67,8.67,0,0,0,2.37,5.23A6.3,6.3,0,0,0,21.61,118H53.76a6.35,6.35,0,0,0,4.55-1.89h0a8.34,8.34,0,0,0,2.34-5.18L69,21.21a32,32,0,0,1-6.19,2.65C56.23,26,47.23,27.27,37.35,27.27S18.48,26,11.92,23.86a31.89,31.89,0,0,1-6.37-2.75ZM69.6,14.55l.05-.54a2.5,2.5,0,0,1,.16-.68c-.33-1.82-3.51-3.71-8.5-5.31-6.09-1.95-14.55-3.15-24-3.15S19.48,6.07,13.4,8c-5.27,1.7-8.53,3.7-8.53,5.61s3.26,3.92,8.53,5.61c6.08,2,14.55,3.16,24,3.16s17.87-1.21,24-3.16c4.43-1.42,7.44-3.06,8.29-4.69Z"/></svg>