<svg id="Layer_1" data-name="Layer 1" xmlns="http://www.w3.org/2000/svg" viewBox="0 0 74.91 122.88"><title>end-table</title><path d="M19.13,80.75,16.75,95.46H58.17L55.79,80.75ZM47.38,44.5l-4.14-3.34A15.8,15.8,0,0,0,45,47.78H72.32a2.6,2.6,0,0,1,2.59,2.6V75.23a5.53,5.53,0,0,1-5.52,5.52H66.14L73,122.88H62.61l-2.88-17.8H15.19l-2.89,17.8H2L8.78,80.75H5.52A5.53,5.53,0,0,1,0,75.23V50.38a2.6,2.6,0,0,1,2.6-2.6H30.51a13.78,13.78,0,0,0,1.41-6.5l-4.05,3h0l1.72-4.71-3.68-2,4.94-1c-1.28-3.09-3.59-6.12-6.45-9.43C26,25.53,27,25,29,26a4.2,4.2,0,0,0,2.72.5c-2.3-3.06-4.57-6.5-5-10.22a2,2,0,1,1-3.82-1l.72-2.2-2.06,1a2,2,0,0,1-1.77-3.51l2.06-1-2.2-.72a2,2,0,0,1,1.23-3.73L23,5.87,22,3.81A2,2,0,0,1,25.51,2l1,2.06.72-2.19A2,2,0,0,1,31,3.13l-.72,2.19,2.06-1a2,2,0,0,1,1.77,3.51l-2.06,1,2.19.73A2,2,0,0,1,33,13.29l-2.19-.72,1,2.06a2,2,0,1,1-3.61,1.56c.7,2.3,3.24,5.69,5.62,9.16,1.18-.92,2.32-2,4.2-1.9a3.44,3.44,0,0,1,.87.17,9.56,9.56,0,0,1,0-3.16,1.26,1.26,0,1,1-2.11-1.35l.88-1.18-1.45.21A1.25,1.25,0,0,1,36,15.66l1.46-.2-1.18-.88a1.25,1.25,0,0,1,1.5-2l1.18.88L38.7,12a1.25,1.25,0,0,1,2.48-.36l.2,1.46.88-1.18a1.25,1.25,0,0,1,2,1.5l-.88,1.18,1.45-.21a1.25,1.25,0,0,1,.36,2.47l-1.46.21,1.18.88a1.25,1.25,0,0,1-1.5,2l-1.18-.88.21,1.45a1.26,1.26,0,1,1-2.5.21,15.44,15.44,0,0,0,.75,3.94A6.7,6.7,0,0,0,44,26.31l.17-.26c2.71-4,6.27-8.2,7.17-10.88a1.91,1.91,0,1,1-3.47-1.59l1.05-2-2.14.65a1.91,1.91,0,0,1-1.1-3.65L47.85,8l-2-1.06a1.91,1.91,0,0,1,1.8-3.36l2,1.06L49,2.44a1.91,1.91,0,0,1,3.65-1.1l.65,2.14,1.05-2a1.91,1.91,0,0,1,3.37,1.8l-1.06,2,2.14-.65a1.91,1.91,0,0,1,1.11,3.65l-2.14.65,2,1.06a1.91,1.91,0,0,1-1.8,3.36l-2-1,.65,2.14a1.91,1.91,0,1,1-3.73.83c-.53,3.43-2.63,6.58-4.81,9.39,1-.45,2.27-.41,4.67,1.33-4.59,4-7.35,7.39-8.63,10.62l5.46,1.29-3.75,1.82,1.55,4.78ZM53.74,6.7a2,2,0,1,1-2.68.81,2,2,0,0,1,2.68-.81ZM26,7.4a2,2,0,1,0,2.74.9A2,2,0,0,0,26,7.4ZM40.39,15a1.3,1.3,0,1,0,1.47,1.1A1.29,1.29,0,0,0,40.39,15ZM37.46,61.11c5.25,0,9.5.91,9.5,2s-4.25,2-9.5,2-9.51-.9-9.51-2,4.26-2,9.51-2ZM69.72,75.23V53H5.19V75.23a.34.34,0,0,0,.1.23.37.37,0,0,0,.23.1H69.39a.33.33,0,0,0,.23-.1.34.34,0,0,0,.1-.23Z"/></svg>