<svg id="Layer_1" data-name="Layer 1" xmlns="http://www.w3.org/2000/svg" viewBox="0 0 122.88 117.34"><defs><style>.cls-1{fill-rule:evenodd;}</style></defs><title>fish-bowl</title><path class="cls-1" d="M51.38,54.29l-5.49-3.6c3.44-3.79,11-4.91,17.28-4.17a.8.8,0,0,0,0,.31,19.61,19.61,0,0,1-2.4,11.08,18.3,18.3,0,0,1-8.51,7.2l0,0c-4-4.12-6.75-8.8-7-12.24l6.18,1.4Zm12.21,49.5a2.19,2.19,0,0,1-.74-4.31,56.45,56.45,0,0,0,9.3-2.43,55.69,55.69,0,0,0,8.75-4A2.18,2.18,0,0,1,83,96.89a60.46,60.46,0,0,1-9.44,4.28,61.84,61.84,0,0,1-10,2.62Zm-42.73-99L23,12.6A2.42,2.42,0,0,1,22.22,15,56.8,56.8,0,0,0,9.34,33.65c-.39.92-.76,1.86-1.11,2.81.57-.37,1.17-.8,1.79-1.25l.16-.11A35.17,35.17,0,0,1,14,32.64c13.25-7.27,17.44-5.76,23.82-3.46a40.9,40.9,0,0,0,17.51,2.74c5-.19,10.32-.53,15.52-.87,10.58-.69,20.8-1.35,29.4-.68a46.22,46.22,0,0,1,11.87,2.3c.42.15.84.31,1.24.48a56.85,56.85,0,0,0-12.78-18.23,2.38,2.38,0,0,1-.63-2.46l2-7.65ZM6.43,42.38a56.63,56.63,0,1,0,109.46-2.11,16.13,16.13,0,0,0-5.42-3.09,41.44,41.44,0,0,0-10.64-2c-8.29-.65-18.33,0-28.72.67-5.12.33-10.32.67-15.65.87a45.21,45.21,0,0,1-19.3-3c-5.14-1.86-8.52-3.07-19.89,3.16A31.79,31.79,0,0,0,13,39l-.15.12C10.68,40.65,8.75,42,6.43,42.38Zm113.71-4.65c.42,1,.48,2,1,3.45A61.47,61.47,0,1,1,18,12.5L15.44,3.16a2.37,2.37,0,0,1-.12-.76A2.4,2.4,0,0,1,17.72,0H105a2.44,2.44,0,0,1,.59.07A2.41,2.41,0,0,1,107.28,3l-2.42,9.44a61.41,61.41,0,0,1,13.08,19.31,58.47,58.47,0,0,1,2.2,6ZM16.48,59.5a4.38,4.38,0,1,1-4.37,4.38,4.38,4.38,0,0,1,4.37-4.38ZM30.77,48.87a3.7,3.7,0,1,1-3.7,3.7,3.7,3.7,0,0,1,3.7-3.7Zm24.32.91a2,2,0,1,1-1,2.69,2,2,0,0,1,1-2.69Zm9.76-3a19.55,19.55,0,0,1,4.87,1.49,24.05,24.05,0,0,1,7.77-2.21c6.46-.92,2.08,5.38.41,7.85,2.24,2.46,4.34,5,6.38,7.69C86,64.48,88.61,65.22,92,64.18l3.65-1.46c1.93-.77,8.67-4.15,8.22.23-.73,2.92-3.32,5.83-6.09,8.75a50.42,50.42,0,0,1-.21,5.84c-.49,5.71-2.83,6-5.34,1.31l-3.46-6.5c-1.13-2.35-2.74-3.2-4.58-3-5.63.55-9.85,3.38-17.73,2.44a31.19,31.19,0,0,1-.52,6c-.53,1.51-1.61,1.86-3.53.47a26.23,26.23,0,0,1-4.84-8.49,38.91,38.91,0,0,1-4-3.34,19.72,19.72,0,0,0,8.73-7.64,21.25,21.25,0,0,0,2.63-12Z"/></svg>