<svg id="Layer_1" data-name="Layer 1" xmlns="http://www.w3.org/2000/svg" viewBox="0 0 122.88 91.79"><defs><style>.cls-1{fill-rule:evenodd;}</style></defs><title>fish-tank</title><path class="cls-1" d="M79.75,66.83c-1.94-3.45-1.3-4.55-1.15-8.26a57.79,57.79,0,0,0-.72-11.36C74.23,52.29,74.24,59.27,75.67,67c-1.84.41-3,1.18-3.55,2.31H3.33V20c8.53-4.67,22.58-3.4,36.08-2.17h.12c10.56,1,19.68.28,28.59-.39,9.58-.71,18.92-1.41,29.4,0a102.87,102.87,0,0,1,14.67,3c3.84,1.11,6.47,2.13,7.36,2.78v46h-3.34c-1.21-1.57-3.2-2.52-6.47-2.44h-.65c1.17-6.37,1.16-12.15-1.88-16.37a70.45,70.45,0,0,0-.59,9.5c-.07,3.18.41,4.14-1,6.87H105a102.58,102.58,0,0,1-1-25.32,76.19,76.19,0,0,0-2.75,17l.24,6.49C98.05,54.51,95,43.58,99.87,33.39c-4.76,5.83-6.21,15.81-4.27,30l.68,3.4H91l.82-4.11c2.32-17,.59-29-5.11-35.93C92.52,39,88.85,52.05,84.83,64.57l.28-7.77a90.86,90.86,0,0,0-3.28-20.3,123,123,0,0,1-1.25,30.33Zm39.8,5.77H3.33V88.33a.12.12,0,0,0,0,.09h0a.12.12,0,0,0,.09,0H16l2.11-5.6a1.67,1.67,0,0,1,1.6-1.2h84.38a1.66,1.66,0,0,1,1.58,1.16l1.79,5.63h11.93a.11.11,0,0,0,.09,0,.13.13,0,0,0,0-.09V72.6ZM3.46,0h116a3.44,3.44,0,0,1,2.44,1h0a3.46,3.46,0,0,1,1,2.44V88.33a3.45,3.45,0,0,1-3.46,3.46H106.28a1.66,1.66,0,0,1-1.63-1.31L102.91,85h-82l-2.15,5.72a1.66,1.66,0,0,1-1.56,1.08H3.46a3.47,3.47,0,0,1-2.44-1H1a3.44,3.44,0,0,1-1-2.44V3.46A3.45,3.45,0,0,1,3.46,0Zm116,3.33H3.46a.14.14,0,0,0-.13.13V16.34c9.42-4.22,23.15-3,36.38-1.78h.15c10.22.93,19.22.26,28-.39,9.74-.73,19.25-1.44,30.09,0a106.55,106.55,0,0,1,15.15,3.12,44.64,44.64,0,0,1,6.44,2.34V3.46a.12.12,0,0,0,0-.09h0a.12.12,0,0,0-.09,0Zm-72.24,28,3.61-3.46c-3.11-2.36-8.93-2.14-13.52-.71a.57.57,0,0,1,.07.22,15,15,0,0,0,3.34,8,14,14,0,0,0,7.38,4.21h0c2.4-3.64,3.83-7.54,3.52-10.14l-4.43,1.91Zm24.88,4.25a3.34,3.34,0,1,0,3.34,3.34,3.34,3.34,0,0,0-3.34-3.34ZM61.18,27.5A2.82,2.82,0,1,0,64,30.32a2.82,2.82,0,0,0-2.82-2.82Zm-17.41,1a1.54,1.54,0,1,0,1.09,1.88,1.54,1.54,0,0,0-1.09-1.88Zm-7.72-.89a14.94,14.94,0,0,0-3.44,1.79,18.41,18.41,0,0,0-6.12-.57c-5,.22-.81,4.32.78,5.94-1.33,2.15-2.55,4.38-3.7,6.64-.88,2.41-2.74,3.33-5.39,3l-2.94-.59c-1.55-.31-7.07-1.9-6.12,1.32,1,2.08,3.3,3.91,5.79,5.7a36,36,0,0,0,1,4.35c1.16,4.2,2.95,4.13,4.18.23l1.68-5.35c.52-1.91,1.6-2.77,3-2.89,4.29-.37,7.85,1.15,13.61-.65A23.59,23.59,0,0,0,39.59,51c.6,1.06,1.46,1.17,2.7-.14a19.71,19.71,0,0,0,2.44-7,30.15,30.15,0,0,0,2.57-3.06,15,15,0,0,1-7.6-4.5,16.12,16.12,0,0,1-3.65-8.63Z"/></svg>