<svg id="Layer_1" data-name="Layer 1" xmlns="http://www.w3.org/2000/svg" viewBox="0 0 55.64 122.88"><defs><style>.cls-1{fill-rule:evenodd;}</style></defs><title>flashlight</title><path class="cls-1" d="M41.29,122.88H15.61a4.87,4.87,0,0,1-4.84-4.83v-53H46.13v53a4.9,4.9,0,0,1-4.84,4.83ZM30.77,17.64a3.87,3.87,0,0,1-7.73,0V3.87a3.87,3.87,0,1,1,7.73,0V17.64Zm19.91,2.89a3.86,3.86,0,0,1-7.44-2.09l2.21-7.86a3.86,3.86,0,0,1,7.44,2.09l-2.21,7.86ZM10,18.79A3.86,3.86,0,1,1,2.63,21L.16,12.73a3.86,3.86,0,1,1,7.4-2.21L10,18.79ZM3.34,30.39H53.56a2.1,2.1,0,0,1,2.08,2.08v7.06a2.08,2.08,0,0,1-2.08,2.08H3.34A2.11,2.11,0,0,1,1.87,41a2.07,2.07,0,0,1-.61-1.47V32.47A2,2,0,0,1,1.87,31a2.08,2.08,0,0,1,1.47-.62ZM53.41,49.1l-4.5,10.45A2,2,0,0,1,47,60.86H9.72a2,2,0,0,1-1.85-1.25L3.53,49.19a2,2,0,0,1,1.81-2.9H51.56a2,2,0,0,1,.79.17,2,2,0,0,1,1.06,2.64ZM24.81,76.05a3.64,3.64,0,0,1,7.28,0v8.18a3.64,3.64,0,1,1-7.28,0V76.05Zm0,22.12a3.64,3.64,0,0,1,7.28,0v4.2a3.64,3.64,0,0,1-7.28,0v-4.2Z"/></svg>