<svg xmlns="http://www.w3.org/2000/svg" shape-rendering="geometricPrecision" text-rendering="geometricPrecision" image-rendering="optimizeQuality" fill-rule="evenodd" clip-rule="evenodd" viewBox="0 0 303 511.64"><path d="M0 487.73h303v23.91H0v-23.91zm71.15-225.54h35.36c3.62 0 6.58 2.96 6.58 6.58s-2.97 6.58-6.58 6.58H71.15v-13.16zm9.53 29.17v4.92h-2.95v-4.99c-.75-.26-1.43-.68-1.98-1.23a5.058 5.058 0 0 1 0-7.17c.91-.91 2.19-1.49 3.58-1.49 1.39 0 2.67.58 3.58 1.49.92.92 1.49 2.2 1.49 3.59 0 1.39-.57 2.66-1.48 3.58a5.2 5.2 0 0 1-2.24 1.3zm.16-6.39c-.37-.38-.92-.62-1.51-.62s-1.12.24-1.51.62a2.14 2.14 0 0 0 0 3.01c.39.38.92.63 1.51.63s1.14-.25 1.51-.63c.38-.37.62-.91.62-1.5 0-.6-.24-1.14-.62-1.51zm83.57 58.56h80.62v102.09h-85.71V343.53h5.09zm70.44 10.18H169.5v81.73h65.35v-81.73zM63.06 343.53h80.61v102.08h-85.7V343.53h5.09zm70.43 10.18H68.15v81.72h65.34v-81.72zm-75.93-221.2c0-25.84 10.57-49.33 27.59-66.35 17.02-17.02 40.51-27.59 66.35-27.59 25.83 0 49.33 10.57 66.35 27.59 17.01 17.04 27.58 40.52 27.58 66.35v5.26H57.56v-5.26zM92.59 73.6c-13.96 13.95-23.03 32.8-24.35 53.65h166.51c-1.31-20.86-10.38-39.71-24.33-53.66-15.13-15.11-35.99-24.5-58.92-24.5-22.94 0-43.79 9.39-58.91 24.51zm71.82 83.17h80.62v169.98h-85.71V156.77h5.09zm70.44 10.18H169.5v149.62h65.35V166.95zM63.06 156.77h80.61v169.98h-85.7V156.77h5.09zm70.43 10.18H68.15v149.62h65.34V166.95zM23.63 470.49V127.86c0-35.16 14.39-67.13 37.56-90.3S116.33 0 151.49 0c35.17 0 67.15 14.39 90.32 37.56 23.17 23.17 37.55 55.14 37.55 90.3v347.72H23.63v-5.09zm10.18-342.63V465.4h235.37V127.86c0-32.36-13.24-61.78-34.57-83.11s-50.76-34.57-83.11-34.57c-32.36 0-61.78 13.24-83.12 34.57-21.33 21.33-34.57 50.75-34.57 83.11z"/></svg>