<svg xmlns="http://www.w3.org/2000/svg" shape-rendering="geometricPrecision" text-rendering="geometricPrecision" image-rendering="optimizeQuality" fill-rule="evenodd" clip-rule="evenodd" viewBox="0 0 293 512.8"><path d="M117.26 104.66V34.64H70.48v71.11c14.54-2.37 32.4-1.09 46.78-1.09zm19.38 130.9c40.22 32.55 60.48 61.78 10.08 95.74 15.42-30.32 10.02-46.94-1.97-57.93-2.01 3.04-17.41 21.26-2.16 55.25-60.64-41.11 4.55-72.17-5.95-93.06zM98.37 385.51v-2.32h-4.4v-13.2h20.79v28.81a59.46 59.46 0 0 1-21.22 3.88c-9.83 0-16.59-2.39-20.27-7.16-1.9-2.47-3.22-5.37-3.97-8.71-.74-3.34-1.12-7.46-1.12-12.38 0-4.92.39-9.03 1.17-12.33.77-3.31 2.17-6.2 4.18-8.67 3.8-4.83 11.13-7.25 22-7.25 2.24 0 5.16.23 8.75.69 3.59.46 6.23.98 7.89 1.56l-2.59 13.19c-4.65-.8-8.87-1.2-12.63-1.2-3.77 0-6.41.28-7.94.86-1.52.57-2.28 1.72-2.28 3.45v24.41h5.69c2.07 0 3.58-.22 4.53-.65.95-.43 1.42-1.42 1.42-2.98zm40.24 15.88h-18.2l13.97-53.91h26.66l13.97 53.91h-18.2l-1.98-8.54h-14.24l-1.98 8.54zm8.62-37.35-3.53 15.09h7.93l-3.45-15.09h-.95zm32.14 36.4 2.41-14.23c5.29 1.32 10.05 1.98 14.28 1.98 4.22 0 7.63-.17 10.22-.52v-4.31l-7.77-.69c-7.01-.63-11.83-2.32-14.45-5.05-2.61-2.73-3.92-6.77-3.92-12.12 0-7.35 1.6-12.42 4.79-15.17 3.19-2.77 8.61-4.15 16.26-4.15 7.65 0 14.55.72 20.7 2.16l-2.16 13.8c-5.35-.86-9.63-1.29-12.85-1.29-3.22 0-5.95.14-8.2.43v4.22l6.22.61c7.53.74 12.73 2.54 15.61 5.39 2.87 2.85 4.31 6.8 4.31 11.86 0 3.62-.49 6.68-1.47 9.18-.97 2.51-2.14 4.41-3.49 5.7s-3.26 2.29-5.73 2.97c-2.48.7-4.65 1.11-6.52 1.26-1.87.14-4.35.21-7.46.21-7.47 0-14.4-.75-20.78-2.24zM0 217.51h293v202.77c0 20.87-11.52 39.15-28.55 48.79v28.63c0 8.3-6.8 15.1-15.1 15.1H43.61c-8.3 0-15.11-6.8-15.11-15.1v-28.63C11.51 459.43 0 441.15 0 420.28V217.51zm175.27-112.85c14.76 0 32.53-1.35 46.78 1.05l.01-71.07h-46.79v70.02zm62.94 4.64c31.84 11.22 54.79 41.69 54.79 77.24v12.02H0v-12.02c0-35.39 22.74-65.68 54.34-77.07l-.01-74.83h-1.21c-9.51 0-17.32-7.81-17.32-17.32C35.8 7.8 43.57 0 53.12 0h186.34c9.51 0 17.32 7.8 17.32 17.32 0 9.51-7.81 17.32-17.32 17.32h-1.21v74.66h-.04z"/></svg>