<svg id="Layer_1" data-name="Layer 1" xmlns="http://www.w3.org/2000/svg" viewBox="0 0 70.21 122.88"><defs><style>.cls-1{fill-rule:evenodd;}</style></defs><title>gas-cylinder-black</title><path class="cls-1" d="M28.1,25.08V8.3H16.89v17c3.48-.57,7.76-.26,11.21-.26Zm13.9,0c3.54,0,7.79-.33,11.21.25V8.3H42V25.08Zm15.08,1.11A19.69,19.69,0,0,1,70.21,44.7v2.88H0V44.7A19.7,19.7,0,0,1,13,26.23V8.3h-.29A4.17,4.17,0,0,1,8.58,4.15h0A4.16,4.16,0,0,1,12.73,0H57.38a4.17,4.17,0,0,1,4.15,4.15h0A4.17,4.17,0,0,1,57.38,8.3h-.29V26.19ZM70.21,52.12v33.4H0V52.12Zm0,37.94v10.65a13.44,13.44,0,0,1-6.84,11.69v6.86a3.63,3.63,0,0,1-3.62,3.62H10.45a3.63,3.63,0,0,1-3.62-3.62V112.4A13.45,13.45,0,0,1,0,100.71V90.06Z"/></svg>