<?xml version="1.0" encoding="UTF-8"?>
<!DOCTYPE svg PUBLIC "-//W3C//DTD SVG 1.1//EN" "http://www.w3.org/Graphics/SVG/1.1/DTD/svg11.dtd">
<!-- Creator: CorelDRAW 2021 (64-Bit) -->
<svg xmlns="http://www.w3.org/2000/svg" xml:space="preserve" width="416px" height="512px" version="1.1" shape-rendering="geometricPrecision" text-rendering="geometricPrecision" image-rendering="optimizeQuality" fill-rule="evenodd" clip-rule="evenodd"
viewBox="0 0 416 511.89"
 xmlns:xlink="http://www.w3.org/1999/xlink"
 xmlns:xodm="http://www.corel.com/coreldraw/odm/2003">
 <g id="Layer_x0020_1">
  <metadata id="CorelCorpID_0Corel-Layer"/>
  <path fill="black" d="M106.71 368.46l-16.62 60.96 58.51 0 -15.39 -61.56c9.77,-5.02 16.45,-15.21 16.45,-26.95 0,-16.75 -13.57,-30.3 -30.32,-30.3 -16.73,0 -30.29,13.55 -30.29,30.3 -0.01,12.22 7.23,22.75 17.66,27.55zm45.8 -248.96l216.74 0c25.71,0 46.75,21.05 46.75,46.76 0,25.71 -21.04,46.76 -46.75,46.76l-216.74 0c-25.72,0 -46.76,-21.04 -46.76,-46.76 0,-25.72 21.04,-46.76 46.76,-46.76zm-94 -119.5l110.99 0c16.1,0 30.73,6.59 41.32,17.18l0.51 0.55c10.31,10.58 16.68,24.99 16.68,40.78l0 33.04 -18.71 0 0 -33.04c0,-10.75 -4.3,-20.53 -11.26,-27.69l-0.44 -0.41c-7.21,-7.22 -17.16,-11.7 -28.1,-11.7l-110.99 0c-10.73,0 -20.52,4.3 -27.7,11.26l-0.4 0.43c-7.22,7.22 -11.7,17.17 -11.7,28.11l0 394.87c0,10.94 4.48,20.89 11.7,28.1l0 0.04c7.19,7.19 17.14,11.66 28.1,11.66l110.99 0c10.93,0 20.89,-4.48 28.1,-11.7 7.22,-7.19 11.7,-17.15 11.7,-28.1l0 -212.41 18.71 0 0 212.41c0,16.07 -6.59,30.69 -17.19,41.29l0 0.04c-10.59,10.6 -25.23,17.18 -41.32,17.18l-110.99 0c-16.06,0 -30.69,-6.58 -41.31,-17.2 -10.61,-10.58 -17.2,-25.21 -17.2,-41.31l0 -394.87c0,-16.1 6.58,-30.73 17.18,-41.33l0.54 -0.5c10.57,-10.31 24.98,-16.68 40.79,-16.68zm308.65 153.04c7.31,0 13.23,5.91 13.23,13.22 0,7.3 -5.92,13.22 -13.23,13.22 -7.3,0 -13.22,-5.92 -13.22,-13.22 0,-7.31 5.92,-13.22 13.22,-13.22z"/>
 </g>
</svg>
