<svg xmlns="http://www.w3.org/2000/svg" shape-rendering="geometricPrecision" text-rendering="geometricPrecision" image-rendering="optimizeQuality" fill-rule="evenodd" clip-rule="evenodd" viewBox="0 0 512 497.56"><path d="M0 465.72h512v31.84H0v-31.84zM179.53 96.06c2.29-2.95 6.55-3.48 9.5-1.19a6.77 6.77 0 0 1 1.19 9.51l-23.11 29.71a6.778 6.778 0 0 1-9.51 1.19c-2.95-2.29-3.48-6.55-1.18-9.5l23.11-29.72zm-50.58-16.75c2.29-2.95 6.55-3.48 9.5-1.19 2.95 2.3 3.49 6.56 1.19 9.51l-23.11 29.71c-2.29 2.95-6.55 3.48-9.5 1.19-2.95-2.3-3.49-6.56-1.19-9.51l23.11-29.71zm39.44-8.45a6.788 6.788 0 0 1 9.51-1.19 6.789 6.789 0 0 1 1.19 9.51l-52.79 67.86c-2.29 2.95-6.55 3.48-9.5 1.19-2.95-2.3-3.49-6.56-1.19-9.51l52.78-67.86zm223.9 25.2a6.789 6.789 0 0 1 9.51-1.19 6.789 6.789 0 0 1 1.19 9.51l-23.12 29.71c-2.29 2.95-6.55 3.49-9.5 1.19-2.95-2.29-3.49-6.55-1.19-9.5l23.11-29.72zm-50.58-16.75c2.29-2.95 6.55-3.48 9.5-1.19 2.95 2.3 3.49 6.56 1.19 9.51l-23.11 29.71c-2.29 2.95-6.55 3.48-9.5 1.19-2.95-2.3-3.49-6.56-1.19-9.51l23.11-29.71zm39.44-8.45a6.789 6.789 0 0 1 9.51-1.19 6.789 6.789 0 0 1 1.19 9.51l-52.78 67.86a6.789 6.789 0 0 1-9.51 1.19 6.789 6.789 0 0 1-1.19-9.51l52.78-67.86zm-83.37 136.69-17.69-5.06v66.15l17.69-6.39v-54.7zm-86.74 0 17.7-5.06v66.15l-17.7-6.39v-54.7zM248.1 20.89v438.38h12.62V20.89H248.1zm-187.33 0h390.75v438.38h22.32V0H34.98v459.27H57.3V20.89h3.47z"/></svg>