<svg id="Layer_1" data-name="Layer 1" xmlns="http://www.w3.org/2000/svg" viewBox="0 0 122.88 111.58"><title>glass-mug</title><path d="M8.74,0h77a8.73,8.73,0,0,1,6.15,2.56h0a8.7,8.7,0,0,1,2.57,6.17V24l6-.53c.56-.05,1.11-.07,1.65-.07a19.76,19.76,0,0,1,14.09,6.15,23.59,23.59,0,0,1,6.63,14.37c.06.65.09,1.32.09,2V72c0,.64,0,1.28-.08,1.92A23.17,23.17,0,0,1,116.29,88a19.42,19.42,0,0,1-13.84,6c-.52,0-1.06,0-1.6-.07l-6.43-.56v6.17A11.92,11.92,0,0,1,90.9,108l0,0a12,12,0,0,1-8.42,3.51H12a12,12,0,0,1-8.44-3.52l0,0A11.93,11.93,0,0,1,0,99.61V8.74A8.74,8.74,0,0,1,8.74,0Zm93.62,38.64H94.42V79.3h8.44a4.85,4.85,0,0,0,4.81-4.82V44a5.33,5.33,0,0,0-5.31-5.31ZM63.6,38.1a4.63,4.63,0,0,1,4.9-4.31c2.71,0,4.91,1.93,4.91,4.31V73.48c0,2.38-2.2,4.32-4.91,4.32a4.64,4.64,0,0,1-4.9-4.32V38.1ZM21,38.1c0-2.38,2.2-4.31,4.91-4.31s4.9,1.93,4.9,4.31V73.48a4.65,4.65,0,0,1-4.9,4.32c-2.71,0-4.91-1.94-4.91-4.32V38.1ZM42.3,34.78c0-2.39,2.2-4.32,4.91-4.32a4.63,4.63,0,0,1,4.9,4.32v42a4.63,4.63,0,0,1-4.9,4.32c-2.71,0-4.91-1.93-4.91-4.32v-42ZM85.69,8.59H8.74a.15.15,0,0,0-.11,0,.16.16,0,0,0-.05.11V99.61a3.34,3.34,0,0,0,1,2.38v0A3.38,3.38,0,0,0,12,103H82.45a3.36,3.36,0,0,0,2.38-1l0,0a3.37,3.37,0,0,0,1-2.38V8.73a.16.16,0,0,0,0-.1s0,0-.09,0Z"/></svg>