<svg id="Layer_1" data-name="Layer 1" xmlns="http://www.w3.org/2000/svg" viewBox="0 0 122.88 105.31"><defs><style>.cls-1{fill-rule:evenodd;}</style></defs><title>home-renovation</title><path class="cls-1" d="M112.29,98.08a1.84,1.84,0,0,1-1.84,1.84H87.85a12.07,12.07,0,0,0-1.54-5.23h20.74V52.31a2.2,2.2,0,0,1,0-.36L61.62,18.58,15.27,52a1.84,1.84,0,0,1,.06.47V94.69H34.65l-.07.14a11.85,11.85,0,0,0-1.41,5.09H11.93a1.83,1.83,0,0,1-1.83-1.84V54.36a8.14,8.14,0,0,1-5.57.26,6.52,6.52,0,0,1-3.07-2.15A6.74,6.74,0,0,1,.05,49a8.78,8.78,0,0,1,2.1-6.47h0a1.64,1.64,0,0,1,.3-.29L60.05.48A1.84,1.84,0,0,1,62.42.39l57.71,41.68h0a1.37,1.37,0,0,1,.22.2,8.27,8.27,0,0,1,2.34,7.62,7,7,0,0,1-4.44,5,7.67,7.67,0,0,1-5.95-.39V98.08Zm-40.65,6c4.27,3.58,10.48-1.75,7.11-6.23C73.07,91.56,68.34,86.45,66.14,84q4.31-5.16,8.62-10.3A12.54,12.54,0,0,0,89.6,70.76a12.48,12.48,0,0,0,2.91-10.62,12.86,12.86,0,0,0-.39-1.6l-2.75,2.31q-5.31,4.5-9.66,2.1t.85-8.75l3.08-3.75a11.15,11.15,0,0,0-2-.38C71.46,49,63.37,61.56,69.92,69.79c-3,2.88-5.87,5.82-8.74,8.78-1.57-1.69-4-4.37-15.09-16.62l3.4-3,1.57,1.81,4.67-4-7.66-8.92-4.74,4.05,1.72,2-3.41,3-2.15-2.48-5.62,4.82,2.18,2.51-3.19,2.76A8.38,8.38,0,0,0,31,66.72c-2.45,4.51,1.17,9.07,4.42,11.87-1.88-5.74,1.3-8.48,5.11-11.79q7.32,9,14.73,18c-3,3.14-8.8,9-12,12-1.26,1.22-2.07,2.35-2,4.16a4.48,4.48,0,0,0,1.54,3.2c2.58,2.28,5.32.9,7.23-1.38l10.29-11.8c3.31,4,7.94,9.24,11.29,13.2Z"/></svg>