<svg xmlns="http://www.w3.org/2000/svg" shape-rendering="geometricPrecision" text-rendering="geometricPrecision" image-rendering="optimizeQuality" fill-rule="evenodd" clip-rule="evenodd" viewBox="0 0 512 370.69"><path fill-rule="nonzero" d="M31.61 282.08h452.65c1.72 0 3.52-.32 5.26-.89 2.91-.96 5.59-2.59 7.5-4.61 1.62-1.72 2.66-3.69 2.66-5.66 0-.62-.1-1.25-.31-1.9l-40.38-122.06c-4.21 1.83-10.61 3.51-15.15 3.31.99-3.13 2.65-5.73 5.13-7.97-2.2-2.37-3.7-5.18-4.43-8.48 3.9.03 7.51 1.11 10.98 2.65l-29.1-87.99-.54-1.62c-4.46 1.59-11.49 2.61-15.81 2.42.99-3.13 2.66-5.73 5.14-7.97-2.2-2.37-3.71-5.18-4.44-8.49 3.89.03 7.48 1.1 10.95 2.64-4.23-10.43-8.27-16.37-13.76-19.56-7.63-4.44-19.51-4.56-39.42-4.56H153.83l-10.14-.09c-28.63-.31-41.67-.45-52.64 32.69l-74.66 225.4c-.13.5-.19 1.03-.19 1.56 0 1.97 1.03 3.94 2.66 5.66 1.91 2.03 4.6 3.67 7.5 4.63 1.74.58 3.54.89 5.25.89zm204.09-23.85c4.95.22 9.28-.86 13.41-2.86 5.08 2.07 10.46 2.54 15.51 2.35-2.04-3.8-4.52-6.13-6.85-8.2 2.77-1.53 4.9-3.89 6.4-7.12-5.21.27-10.2 1.11-14.82 2.94-4.09-2.01-8.3-3.53-12.94-3.56.72 3.3 2.23 6.11 4.43 8.48-2.48 2.24-4.14 4.84-5.14 7.97zm13.34-52.06c4.95.22 9.28-.86 13.41-2.86 5.07 2.07 10.46 2.54 15.51 2.35-2.04-3.8-4.52-6.14-6.85-8.2 2.76-1.53 4.9-3.89 6.39-7.12-5.21.27-10.2 1.11-14.82 2.94-4.08-2.01-8.3-3.53-12.94-3.57.73 3.31 2.23 6.12 4.44 8.49-2.49 2.24-4.15 4.84-5.14 7.97zm21.86-52.06c4.95.22 9.28-.86 13.41-2.86 5.07 2.07 10.46 2.54 15.51 2.35-2.04-3.8-4.52-6.14-6.85-8.2 2.77-1.53 4.9-3.89 6.39-7.12-5.21.27-10.19 1.11-14.81 2.94-4.09-2.01-8.3-3.53-12.95-3.57.73 3.31 2.24 6.12 4.44 8.49-2.48 2.24-4.14 4.84-5.14 7.97zm13.33-52.06c4.96.22 9.29-.86 13.42-2.87 5.07 2.08 10.46 2.55 15.51 2.36-2.04-3.8-4.52-6.14-6.85-8.2 2.76-1.53 4.9-3.89 6.39-7.12-5.21.26-10.2 1.11-14.82 2.94-4.08-2.01-8.3-3.53-12.94-3.57.73 3.31 2.24 6.12 4.43 8.49-2.48 2.24-4.14 4.84-5.14 7.97zm4.81-52.06c4.95.22 9.28-.86 13.41-2.87 5.07 2.08 10.46 2.54 15.51 2.36-2.04-3.8-4.52-6.14-6.85-8.2 2.76-1.53 4.9-3.89 6.39-7.12-5.21.27-10.2 1.11-14.81 2.94-4.09-2.01-8.31-3.53-12.95-3.57.73 3.31 2.24 6.12 4.44 8.49-2.48 2.24-4.15 4.84-5.14 7.97zm141.97 207.53c4.95.22 9.28-.86 13.41-2.86 5.07 2.07 10.46 2.54 15.51 2.35-2.04-3.8-4.52-6.13-6.85-8.2 2.76-1.53 4.9-3.89 6.39-7.12-5.21.27-10.2 1.11-14.81 2.94-4.09-2.01-8.31-3.53-12.95-3.56.73 3.3 2.24 6.11 4.44 8.48-2.48 2.24-4.14 4.84-5.14 7.97zm-128.41 0c4.96.22 9.28-.86 13.42-2.86 5.07 2.07 10.46 2.54 15.51 2.35-2.05-3.8-4.53-6.13-6.85-8.2 2.76-1.53 4.9-3.89 6.39-7.12-5.21.27-10.2 1.11-14.82 2.94-4.09-2.01-8.3-3.53-12.94-3.56.73 3.3 2.23 6.11 4.43 8.48-2.48 2.24-4.14 4.84-5.14 7.97zm13.34-52.06c4.95.22 9.28-.86 13.41-2.86 5.08 2.07 10.46 2.54 15.51 2.35-2.04-3.8-4.52-6.14-6.85-8.2 2.76-1.53 4.9-3.89 6.39-7.12-5.21.27-10.2 1.11-14.82 2.94-4.08-2.01-8.3-3.53-12.94-3.56.73 3.3 2.24 6.11 4.44 8.48-2.48 2.24-4.14 4.84-5.14 7.97zm13.33-52.06c4.96.22 9.28-.86 13.42-2.87 5.07 2.08 10.46 2.55 15.51 2.36-2.05-3.8-4.53-6.14-6.85-8.2 2.76-1.53 4.9-3.89 6.39-7.12-5.21.26-10.2 1.11-14.82 2.94-4.08-2.01-8.3-3.53-12.94-3.57.73 3.31 2.23 6.12 4.43 8.49-2.48 2.24-4.14 4.84-5.14 7.97zm13.33-52.06c4.96.22 9.29-.86 13.42-2.86 5.07 2.07 10.46 2.53 15.51 2.35-2.04-3.8-4.52-6.14-6.85-8.2 2.76-1.53 4.9-3.89 6.39-7.12-5.21.27-10.2 1.11-14.82 2.94-4.08-2.01-8.3-3.53-12.94-3.57.73 3.31 2.24 6.12 4.43 8.49-2.47 2.24-4.14 4.84-5.14 7.97zm9.07-52.06c4.96.22 9.29-.86 13.42-2.86 5.07 2.07 10.46 2.54 15.51 2.35-2.04-3.8-4.52-6.14-6.85-8.2 2.76-1.53 4.9-3.89 6.39-7.12-5.21.27-10.2 1.11-14.82 2.94-4.08-2.01-8.3-3.53-12.94-3.57.73 3.31 2.24 6.12 4.43 8.49-2.48 2.24-4.14 4.84-5.14 7.97zm73.14 155.47c4.95.22 9.28-.86 13.41-2.86 5.08 2.07 10.46 2.54 15.52 2.35-2.05-3.8-4.53-6.14-6.86-8.2 2.77-1.53 4.9-3.89 6.4-7.12-5.22.27-10.2 1.11-14.82 2.95-4.09-2.02-8.3-3.54-12.94-3.58.72 3.31 2.23 6.12 4.43 8.49-2.48 2.24-4.14 4.84-5.14 7.97zm-57.96 52.06c4.95.22 9.28-.85 13.41-2.86 5.07 2.07 10.46 2.54 15.51 2.35-2.04-3.8-4.52-6.13-6.85-8.2 2.76-1.53 4.9-3.89 6.39-7.12-5.21.27-10.19 1.11-14.82 2.95-4.08-2.02-8.3-3.54-12.94-3.57.73 3.3 2.24 6.11 4.44 8.48-2.48 2.24-4.15 4.84-5.14 7.97zm4.8-52.06c4.96.22 9.29-.86 13.41-2.86 5.08 2.07 10.47 2.54 15.52 2.35-2.04-3.8-4.53-6.14-6.85-8.2 2.76-1.53 4.9-3.89 6.39-7.12-5.21.27-10.2 1.11-14.82 2.95-4.08-2.02-8.3-3.54-12.94-3.58.73 3.31 2.23 6.12 4.43 8.49-2.48 2.24-4.14 4.84-5.14 7.97zm17.6-52.06c4.96.22 9.29-.86 13.42-2.86 5.07 2.07 10.46 2.54 15.51 2.35-2.04-3.8-4.53-6.13-6.85-8.2 2.76-1.53 4.89-3.89 6.39-7.12-5.21.27-10.2 1.11-14.82 2.94-4.09-2.01-8.3-3.53-12.94-3.57.73 3.31 2.23 6.12 4.43 8.49-2.48 2.24-4.14 4.84-5.14 7.97zm9.07-52.06c4.95.22 9.29-.86 13.42-2.86 5.07 2.07 10.45 2.54 15.51 2.35-2.05-3.8-4.53-6.14-6.85-8.2 2.76-1.53 4.89-3.89 6.39-7.12-5.22.27-10.2 1.11-14.82 2.94-4.09-2.01-8.3-3.53-12.94-3.56.72 3.3 2.23 6.11 4.43 8.48-2.48 2.24-4.14 4.84-5.14 7.97zM262.38 32.17c-4.95-.22-9.28.86-13.41 2.86-5.07-2.07-10.46-2.54-15.51-2.35 2.04 3.8 4.52 6.14 6.85 8.2-2.77 1.53-4.9 3.89-6.39 7.12 5.21-.26 10.19-1.11 14.81-2.94 4.09 2.01 8.31 3.53 12.95 3.57-.73-3.31-2.24-6.12-4.44-8.49 2.48-2.24 4.15-4.84 5.14-7.97zm-9.07 52.06c-4.95-.22-9.28.86-13.41 2.87-5.07-2.08-10.46-2.55-15.51-2.36 2.04 3.8 4.52 6.14 6.85 8.2-2.77 1.53-4.9 3.89-6.39 7.13 5.21-.27 10.19-1.12 14.82-2.95 4.08 2.01 8.3 3.53 12.94 3.57-.73-3.3-2.24-6.12-4.44-8.49 2.48-2.24 4.15-4.84 5.14-7.97zm-13.33 52.06c-4.96-.22-9.29.86-13.42 2.87-5.07-2.08-10.46-2.54-15.51-2.36 2.04 3.8 4.53 6.14 6.85 8.2-2.76 1.53-4.89 3.89-6.39 7.13 5.21-.27 10.2-1.12 14.82-2.95 4.09 2.01 8.3 3.53 12.94 3.57-.73-3.31-2.23-6.12-4.43-8.49 2.48-2.24 4.14-4.83 5.14-7.97zm-17.6 52.06c-4.95-.22-9.29.86-13.41 2.87-5.08-2.08-10.46-2.54-15.52-2.36 2.05 3.8 4.53 6.14 6.85 8.2-2.76 1.53-4.89 3.89-6.39 7.12 5.21-.26 10.2-1.11 14.82-2.94 4.09 2.01 8.3 3.53 12.94 3.57-.73-3.31-2.23-6.12-4.43-8.49 2.48-2.24 4.14-4.84 5.14-7.97zm-13.34 52.06c-4.95-.22-9.28.86-13.41 2.87-5.07-2.08-10.46-2.54-15.51-2.36 2.04 3.8 4.52 6.14 6.85 8.2-2.76 1.53-4.9 3.9-6.39 7.12 5.21-.26 10.2-1.11 14.82-2.94 4.08 2.01 8.3 3.53 12.94 3.57-.73-3.31-2.24-6.12-4.44-8.49 2.49-2.24 4.15-4.83 5.14-7.97zm-9.3-207.53c-4.95-.22-9.28.86-13.41 2.86-5.07-2.07-10.46-2.54-15.51-2.35 2.04 3.8 4.52 6.14 6.85 8.2-2.76 1.53-4.9 3.89-6.39 7.12 5.21-.27 10.2-1.11 14.82-2.94 4.08 2.01 8.3 3.53 12.94 3.57-.73-3.31-2.24-6.12-4.44-8.49 2.49-2.24 4.15-4.84 5.14-7.97zm-9.06 52.06c-4.96-.22-9.29.86-13.42 2.86-5.07-2.07-10.46-2.54-15.51-2.35 2.04 3.8 4.52 6.14 6.85 8.2-2.76 1.53-4.9 3.89-6.39 7.12 5.21-.27 10.2-1.11 14.82-2.94 4.08 2.01 8.3 3.53 12.94 3.57-.73-3.31-2.24-6.12-4.43-8.49 2.48-2.24 4.14-4.84 5.14-7.97zM177.34 137c-4.95-.22-9.28.86-13.41 2.86-5.08-2.07-10.46-2.54-15.51-2.35 2.04 3.8 4.52 6.14 6.85 8.2-2.77 1.53-4.9 3.89-6.39 7.12 5.21-.26 10.19-1.11 14.81-2.94 4.09 2.01 8.31 3.53 12.94 3.57-.73-3.31-2.23-6.12-4.43-8.49 2.48-2.24 4.14-4.84 5.14-7.97zm-13.33 52.06c-4.96-.22-9.28.86-13.42 2.87-5.07-2.08-10.46-2.55-15.51-2.36 2.05 3.8 4.53 6.14 6.85 8.2-2.76 1.53-4.9 3.89-6.39 7.12 5.21-.26 10.2-1.11 14.82-2.94 4.08 2.01 8.3 3.53 12.94 3.57-.73-3.31-2.23-6.12-4.43-8.49 2.48-2.24 4.14-4.84 5.14-7.97zm-13.34 52.06c-4.95-.22-9.28.86-13.41 2.87-5.07-2.08-10.46-2.54-15.51-2.36 2.04 3.8 4.52 6.14 6.85 8.2-2.76 1.53-4.9 3.89-6.39 7.13 5.21-.27 10.2-1.12 14.81-2.95 4.09 2.01 8.31 3.53 12.95 3.57-.73-3.3-2.24-6.12-4.44-8.49 2.48-2.24 4.14-4.83 5.14-7.97zM139.76 33.59c-4.95-.22-9.28.86-13.41 2.86-5.07-2.07-10.46-2.54-15.51-2.35 2.04 3.8 4.53 6.13 6.85 8.2-2.76 1.53-4.9 3.89-6.39 7.12 5.21-.27 10.2-1.11 14.82-2.94 4.08 2.01 8.3 3.53 12.94 3.56-.73-3.3-2.24-6.11-4.43-8.48 2.48-2.24 4.14-4.84 5.13-7.97zm-13.33 52.06c-4.95-.22-9.28.86-13.41 2.86-5.08-2.07-10.46-2.54-15.51-2.35 2.04 3.8 4.52 6.14 6.84 8.2-2.76 1.53-4.89 3.89-6.39 7.12 5.22-.27 10.2-1.11 14.82-2.94 4.09 2.01 8.31 3.53 12.94 3.56-.73-3.3-2.23-6.11-4.43-8.48 2.48-2.24 4.14-4.84 5.14-7.97zm-13.33 52.06c-4.96-.22-9.29.86-13.42 2.86-5.07-2.07-10.46-2.54-15.51-2.35 2.04 3.8 4.52 6.14 6.85 8.2-2.76 1.53-4.9 3.89-6.39 7.12 5.21-.27 10.2-1.11 14.82-2.94 4.08 2.01 8.3 3.53 12.94 3.57-.73-3.31-2.23-6.12-4.44-8.49 2.49-2.24 4.15-4.84 5.15-7.97zm-13.34 52.06c-4.95-.22-9.28.86-13.41 2.86-5.08-2.07-10.46-2.54-15.51-2.35 2.04 3.8 4.52 6.14 6.85 8.2-2.77 1.53-4.9 3.89-6.39 7.12 5.21-.27 10.19-1.11 14.81-2.94 4.09 2.01 8.3 3.53 12.95 3.57-.73-3.31-2.24-6.12-4.44-8.49 2.48-2.24 4.15-4.84 5.14-7.97zm-13.38 52.09c-4.94-.22-9.26.85-13.37 2.85-5.06-2.06-10.42-2.53-15.45-2.34 2.03 3.79 4.5 6.11 6.82 8.17-2.75 1.53-4.88 3.88-6.37 7.1 5.19-.27 10.16-1.11 14.77-2.94 4.07 2.01 8.27 3.52 12.89 3.56-.72-3.29-2.23-6.1-4.42-8.46 2.48-2.23 4.13-4.82 5.13-7.94zM15.12 288l-3.87 57.01-.02.82c0 3.51 1.55 6.74 4.01 9.16 2.56 2.53 6.07 4.2 9.84 4.45l460.27.02c1.73 0 3.53-.32 5.26-.89 2.92-.96 5.6-2.59 7.5-4.61 1.63-1.72 2.66-3.7 2.66-5.66 0-.62-.1-1.25-.31-1.9-.24-.73-.32-1.48-.26-2.2l-.38-55.57a30.167 30.167 0 0 1-6.79 3.22c-2.85.94-5.84 1.46-8.77 1.46H31.61c-2.92 0-5.91-.52-8.76-1.46-2.73-.9-5.36-2.22-7.73-3.85zm495.77-16.32.48 72.05c.43 1.54.63 3.07.63 4.57 0 5.02-2.22 9.62-5.73 13.33-3.21 3.4-7.55 6.08-12.14 7.6-2.86.94-5.85 1.46-8.78 1.46H26.09l-1.76-.07c-6.49-.44-12.53-3.3-16.94-7.65C2.86 358.51 0 352.48 0 345.83l.06-1.58 4.93-72.52-.02-.83c0-1.56.23-3.18.73-4.84L80.39 40.43C93.93-.47 109.53-.3 143.77.07l10.06.05h214.71c21.79 0 34.83.15 45.03 6.09 10.37 6.03 16.36 17.13 23.51 38.76l72.94 220.54c.6 1.82.88 3.63.88 5.41l-.01.76z"/></svg>