<svg xmlns="http://www.w3.org/2000/svg" shape-rendering="geometricPrecision" text-rendering="geometricPrecision" image-rendering="optimizeQuality" fill-rule="evenodd" clip-rule="evenodd" viewBox="0 0 512 338.67"><path fill-rule="nonzero" d="M295.92 263.65 13.63 119.77l-.95 61.51 283.24 140.87v-58.5zm107.67-108.58-.39-.02c-.44-3.26-2.02-6.16-4.74-8.71-2.71-2.54-5.67-3.89-8.86-4.04l-.05-.4c3.19.15 5.82-.94 7.87-3.26 2.06-2.34 2.87-5.13 2.43-8.38l.39.02c.44 3.26 2.02 6.16 4.73 8.71 2.72 2.54 5.67 3.89 8.87 4.04l.05.4c-3.19-.15-5.82.94-7.88 3.26-2.05 2.33-2.86 5.12-2.42 8.38zm-29.53 15.95-.39-.02c-.44-3.26-2.02-6.16-4.74-8.71-2.71-2.54-5.67-3.89-8.86-4.04l-.05-.4c3.19.15 5.82-.94 7.87-3.27 2.06-2.33 2.87-5.12 2.43-8.37l.39.02c.44 3.26 2.02 6.16 4.73 8.71 2.72 2.54 5.67 3.89 8.86 4.04l.06.4c-3.2-.15-5.82.94-7.88 3.26-2.05 2.33-2.86 5.12-2.42 8.38zm-31.02 17.16-.39-.02c-.44-3.26-2.02-6.16-4.73-8.71-2.72-2.55-5.68-3.9-8.87-4.04l-.05-.4c3.19.15 5.82-.94 7.87-3.27 2.06-2.33 2.87-5.13 2.43-8.37l.39.02c.44 3.26 2.02 6.16 4.73 8.7 2.71 2.55 5.67 3.9 8.87 4.05l.05.4c-3.19-.15-5.82.94-7.88 3.26-2.05 2.33-2.86 5.12-2.42 8.38zm-29.54 15.95-.39-.02c-.43-3.26-2.01-6.17-4.73-8.71-2.71-2.55-5.67-3.9-8.86-4.05l-.06-.4c3.2.15 5.83-.93 7.88-3.26 2.06-2.34 2.87-5.13 2.43-8.38l.39.02c.44 3.26 2.02 6.17 4.73 8.71 2.71 2.55 5.67 3.9 8.87 4.05l.05.4c-3.2-.15-5.82.94-7.88 3.26-2.05 2.32-2.86 5.12-2.43 8.38zm-30.84 16.54-.39-.02c-.44-3.25-2.02-6.16-4.73-8.71-2.71-2.54-5.67-3.89-8.86-4.04l-.06-.4c3.2.15 5.82-.94 7.88-3.26 2.05-2.34 2.86-5.13 2.43-8.38l.38.02c.44 3.26 2.02 6.17 4.74 8.71 2.71 2.55 5.67 3.9 8.86 4.05l.05.39c-3.19-.15-5.82.94-7.87 3.26-2.06 2.33-2.87 5.13-2.43 8.38zm62.22-96.48-.39-.02c-.44-3.26-2.02-6.17-4.73-8.71-2.71-2.55-5.67-3.9-8.86-4.05l-.06-.39c3.2.15 5.82-.94 7.88-3.27 2.05-2.33 2.86-5.13 2.43-8.37l.39.02c.43 3.26 2.01 6.16 4.73 8.71 2.71 2.54 5.67 3.89 8.86 4.04l.06.4c-3.2-.15-5.83.94-7.88 3.26-2.06 2.33-2.87 5.12-2.43 8.38zm-29.53 15.94-.39-.01c-.44-3.26-2.02-6.17-4.73-8.71-2.72-2.55-5.67-3.9-8.86-4.05l-.06-.4c3.2.15 5.82-.94 7.88-3.26 2.05-2.34 2.86-5.13 2.42-8.37l.39.01c.44 3.26 2.02 6.17 4.74 8.71 2.71 2.55 5.67 3.9 8.86 4.05l.05.4c-3.19-.15-5.82.94-7.87 3.26-2.06 2.32-2.87 5.12-2.43 8.37zm-29.3-46.72-.39-.02c-.44-3.26-2.02-6.16-4.73-8.71-2.71-2.55-5.67-3.9-8.86-4.05l-.06-.39c3.2.15 5.83-.94 7.88-3.27s2.87-5.13 2.43-8.37l.39.01c.44 3.26 2.02 6.17 4.73 8.71 2.71 2.55 5.67 3.9 8.86 4.05l.06.4c-3.2-.15-5.82.94-7.88 3.26-2.05 2.32-2.87 5.12-2.43 8.38zm-29.53 15.95-.39-.02c-.44-3.26-2.02-6.17-4.73-8.71-2.71-2.55-5.67-3.9-8.86-4.05l-.06-.39c3.2.15 5.82-.94 7.88-3.27 2.05-2.33 2.86-5.13 2.43-8.38l.38.02c.44 3.26 2.02 6.17 4.74 8.71 2.71 2.55 5.67 3.9 8.86 4.05l.05.4c-3.19-.15-5.82.93-7.87 3.26-2.06 2.32-2.87 5.12-2.43 8.38zm-29.29-46.73-.4-.02c-.44-3.26-2.01-6.17-4.73-8.71-2.71-2.55-5.67-3.9-8.86-4.05l-.06-.39c3.2.15 5.83-.94 7.88-3.27 2.06-2.33 2.87-5.13 2.43-8.37l.39.02c.44 3.26 2.02 6.16 4.73 8.71 2.71 2.54 5.67 3.89 8.86 4.04l.06.4c-3.2-.15-5.82.94-7.88 3.26-2.05 2.33-2.86 5.12-2.42 8.38zm-29.54 15.95-.39-.02c-.44-3.26-2.01-6.17-4.73-8.71-2.71-2.55-5.67-3.9-8.86-4.05l-.06-.4c3.2.15 5.83-.94 7.88-3.26 2.06-2.34 2.87-5.13 2.43-8.37l.39.01c.44 3.26 2.02 6.17 4.73 8.71 2.71 2.55 5.67 3.9 8.86 4.05l.06.4c-3.2-.15-5.83.94-7.88 3.26-2.06 2.32-2.87 5.12-2.43 8.38zm86.64 78.71-.39-.02c-.44-3.25-2.02-6.16-4.73-8.71-2.71-2.54-5.67-3.89-8.86-4.04l-.06-.4c3.2.15 5.82-.94 7.88-3.26 2.05-2.34 2.86-5.13 2.43-8.38l.39.02c.44 3.26 2.01 6.16 4.73 8.71 2.71 2.55 5.67 3.9 8.86 4.05l.05.39c-3.19-.15-5.82.94-7.87 3.26-2.06 2.33-2.87 5.12-2.43 8.38zm-29.53 15.95-.39-.02c-.44-3.26-2.02-6.16-4.73-8.71-2.72-2.54-5.67-3.89-8.87-4.04l-.05-.4c3.19.15 5.82-.94 7.88-3.26 2.05-2.34 2.86-5.13 2.42-8.38l.39.02c.44 3.26 2.02 6.16 4.74 8.71 2.71 2.54 5.67 3.89 8.86 4.04l.05.4c-3.19-.15-5.82.94-7.87 3.26-2.06 2.33-2.87 5.12-2.43 8.38zm-30.84 16.55-.39-.02c-.44-3.26-2.02-6.16-4.73-8.71-2.72-2.54-5.67-3.89-8.87-4.04l-.05-.4c3.19.15 5.82-.94 7.87-3.27 2.06-2.33 2.87-5.12 2.43-8.37l.39.02c.44 3.26 2.02 6.16 4.73 8.71 2.72 2.54 5.67 3.89 8.87 4.04l.05.4c-3.19-.15-5.82.94-7.88 3.26-2.05 2.33-2.86 5.12-2.42 8.38zm1.54-63.28-.39-.01c-.44-3.27-2.01-6.17-4.73-8.71-2.71-2.55-5.67-3.9-8.86-4.05l-.06-.4c3.2.15 5.82-.94 7.88-3.26 2.05-2.34 2.86-5.13 2.43-8.38l.39.02c.44 3.26 2.02 6.17 4.73 8.71 2.71 2.55 5.67 3.9 8.86 4.05l.06.4c-3.2-.15-5.82.93-7.88 3.25-2.06 2.33-2.87 5.12-2.43 8.38zm-29.53 15.95-.39-.02c-.44-3.26-2.02-6.16-4.73-8.71-2.71-2.54-5.67-3.89-8.86-4.04l-.06-.4c3.2.15 5.82-.94 7.88-3.27 2.05-2.33 2.86-5.12 2.42-8.37l.39.02c.45 3.26 2.02 6.16 4.74 8.71 2.71 2.55 5.67 3.89 8.86 4.04l.05.4c-3.19-.15-5.82.94-7.87 3.26-2.06 2.33-2.87 5.12-2.43 8.38zm-30.84 16.55-.39-.02c-.44-3.26-2.02-6.16-4.73-8.71-2.72-2.54-5.67-3.89-8.87-4.04l-.05-.4c3.19.15 5.82-.94 7.88-3.27 2.05-2.33 2.86-5.12 2.42-8.37l.39.02c.44 3.26 2.02 6.16 4.74 8.71 2.71 2.54 5.66 3.89 8.86 4.04l.05.4c-3.19-.15-5.82.94-7.88 3.26-2.05 2.33-2.86 5.12-2.42 8.38zm1.54-63.28-.39-.02c-.44-3.25-2.01-6.16-4.73-8.71-2.71-2.54-5.67-3.89-8.86-4.04l-.06-.4c3.2.15 5.82-.94 7.88-3.26 2.06-2.34 2.86-5.13 2.43-8.38l.39.02c.44 3.26 2.02 6.16 4.73 8.71 2.71 2.55 5.67 3.9 8.86 4.05l.06.39c-3.2-.15-5.82.94-7.88 3.26-2.06 2.33-2.87 5.12-2.43 8.38zm-29.53 15.95-.39-.02c-.44-3.26-2.01-6.16-4.73-8.71-2.71-2.54-5.67-3.89-8.86-4.04l-.06-.4c3.2.15 5.82-.94 7.88-3.26 2.05-2.34 2.86-5.13 2.43-8.38l.39.02c.44 3.26 2.02 6.16 4.73 8.71 2.71 2.54 5.67 3.89 8.86 4.04l.06.4c-3.2-.15-5.83.94-7.88 3.26-2.06 2.33-2.87 5.12-2.43 8.38zm-30.84 16.55-.39-.02c-.44-3.26-2.02-6.16-4.73-8.71-2.72-2.54-5.67-3.9-8.87-4.04l-.05-.4c3.19.15 5.82-.94 7.88-3.27 2.05-2.33 2.86-5.12 2.42-8.37l.39.02c.44 3.26 2.02 6.16 4.74 8.71 2.71 2.54 5.66 3.89 8.86 4.04l.05.4c-3.19-.15-5.82.94-7.87 3.26-2.06 2.33-2.87 5.12-2.43 8.38zm202.29 193.88 190.74-95.31v-63.43L308.59 262.8v59.31zM2.19 107.1l.1-.2a6.288 6.288 0 0 1 3.11-2.94L209.12.68c1.85-.93 3.94-.87 5.66-.02L507.6 146.97c2.55.82 4.4 3.21 4.4 6.04v77.7a6.362 6.362 0 0 1-3.51 5.67L305.08 338.02c-1.71.83-3.78.9-5.62 0L3.51 190.83A6.334 6.334 0 0 1 0 185.09l1.15-74.59c.01-1.26.4-2.43 1.04-3.4zm19.7 2.67 279.55 142.48 190.15-99.13L211.97 13.4 21.89 109.77z"/></svg>