<svg id="Layer_1" data-name="Layer 1" xmlns="http://www.w3.org/2000/svg" viewBox="0 0 83.36 122.88"><title>night-light-table</title><path d="M41.68,58.91c5.27,0,9.54.91,9.54,2S47,63,41.68,63s-9.54-.9-9.54-2,4.27-2,9.54-2ZM20.9,95.36H62.47L60.07,80.6H23.29L20.9,95.36ZM64,105H19.33l-2.89,17.86H6.06L12.9,80.6H5.54A5.57,5.57,0,0,1,0,75.06V46.65a2.61,2.61,0,0,1,2.61-2.6H31.5c-1.55-5.55-.64-9.46,4.24-10.71h.07V32.18c.82-.41,1.52-3,1.83-4.91h-20L19,23.19H62l1.66,4.08H43.15c.31,1.83,1.08,4.37,2.3,5v1.13c5,1.46,5.85,5.34,4.31,10.66h31a2.6,2.6,0,0,1,2.6,2.6V75.06a5.55,5.55,0,0,1-5.54,5.54H70.46l6.84,42.28H66.93L64,105Zm14.12-30V49.26H5.21v25.8a.34.34,0,0,0,.1.23.37.37,0,0,0,.23.1H77.82a.33.33,0,0,0,.23-.1.34.34,0,0,0,.1-.23ZM19.85,20.89,25,6.39H55.2l5.89,14.5ZM25.79,4.08,27.23,0H52.61l1.66,4.08Z"/></svg>