<svg id="Layer_1" data-name="Layer 1" xmlns="http://www.w3.org/2000/svg" viewBox="0 0 122.88 49.78"><title>non-stick</title><path d="M.84,31.29C.59,30.2.35,29.17.11,28.22A2,2,0,0,1,2,25.61H70.44a2.19,2.19,0,0,1,.36,0,2,2,0,0,1,1.57,2.3c-.19,1-.35,2-.51,3.08l0,.28H86.94a5.52,5.52,0,0,1,4.93-3.05h25.5a5.52,5.52,0,0,1,0,11H91.87a5.54,5.54,0,0,1-4.93-3.05H71.28l-.32,0C69.55,43,66.84,49.78,58.85,49.78H14.36C5.06,49.78,2.62,39.1.84,31.29ZM19,3A1.73,1.73,0,0,1,21.49.51c3.43,3.43,2.12,5.87.61,8.69-1,2-2.24,4.18-.34,7.46a1.73,1.73,0,1,1-3,1.73c-2.85-4.94-1.17-8.07.3-10.81.86-1.61,1.6-3,0-4.63ZM29.57,3A1.73,1.73,0,0,1,32,.51c3.43,3.43,2.12,5.87.61,8.69-1,2-2.24,4.18-.34,7.46a1.73,1.73,0,1,1-3,1.73c-2.85-4.94-1.17-8.07.3-10.81.86-1.61,1.6-3,0-4.63ZM40.1,3A1.73,1.73,0,0,1,42.55.51c3.43,3.43,2.12,5.87.61,8.69-1,2-2.24,4.18-.34,7.46a1.73,1.73,0,1,1-3,1.73c-2.85-4.94-1.17-8.07.3-10.81.86-1.61,1.6-3,0-4.63ZM50.63,3A1.73,1.73,0,0,1,53.08.51c3.43,3.43,2.12,5.87.61,8.69-1,2-2.24,4.19-.34,7.47a1.72,1.72,0,0,1-3,1.71c-2.84-4.93-1.17-8.07.29-10.8.87-1.61,1.61-3,0-4.63Z"/></svg>