<svg id="Layer_1" data-name="Layer 1" xmlns="http://www.w3.org/2000/svg" viewBox="0 0 122.88 81.71"><defs><style>.cls-1{fill-rule:evenodd;}</style></defs><title>oven</title><path class="cls-1" d="M25.45,79.27v1.2a1.25,1.25,0,0,1-1.24,1.24H18.07a1.25,1.25,0,0,1-1.24-1.24V79.26H4.94A5,5,0,0,1,0,74.33V4.94A5,5,0,0,1,4.94,0h113a5,5,0,0,1,4.94,4.94V74.33a5,5,0,0,1-4.94,4.94H107.37v1.2a1.25,1.25,0,0,1-1.24,1.24H100a1.25,1.25,0,0,1-1.24-1.24V79.26H25.45ZM19,43.54a1.25,1.25,0,1,1-2.39-.76,25.86,25.86,0,0,1,3.82-7.08,14.73,14.73,0,0,1,5-4.46,1.25,1.25,0,0,1,1.66.6,1.24,1.24,0,0,1-.59,1.66,12.13,12.13,0,0,0-4.07,3.7A23.3,23.3,0,0,0,19,43.54ZM12.8,24.78h96.1a2.52,2.52,0,0,1,2.51,2.51V65.35a2.52,2.52,0,0,1-2.51,2.52H12.8a2.52,2.52,0,0,1-2.51-2.52V27.28a2.5,2.5,0,0,1,2.51-2.5Zm.89,3.39V64.45H108V28.37c0-.06-.32-.2-.48-.2Zm-7-23.88A2.45,2.45,0,0,0,4.29,6.72V72.55A2.45,2.45,0,0,0,6.72,75c41.54,0,69.46,0,109.44,0a2.45,2.45,0,0,0,2.43-2.43V6.72a2.45,2.45,0,0,0-2.43-2.43Z"/><path class="cls-1" d="M18.58,8.44a5.91,5.91,0,1,1-5.91,5.91,5.9,5.9,0,0,1,5.91-5.91Z"/><path class="cls-1" d="M36.68,8.44a5.91,5.91,0,1,1-5.91,5.91,5.91,5.91,0,0,1,5.91-5.91Z"/><path class="cls-1" d="M54.78,8.44a5.91,5.91,0,1,1-5.91,5.91,5.91,5.91,0,0,1,5.91-5.91Z"/><path d="M91.53,12.66a1.78,1.78,0,0,1,0-3.56h14.23a1.78,1.78,0,1,1,0,3.56Zm0,7.38a1.78,1.78,0,0,1,0-3.56h14.23a1.78,1.78,0,1,1,0,3.56Z"/></svg>