<svg xmlns="http://www.w3.org/2000/svg" shape-rendering="geometricPrecision" text-rendering="geometricPrecision" image-rendering="optimizeQuality" fill-rule="evenodd" clip-rule="evenodd" viewBox="0 0 451 512.37"><path fill-rule="nonzero" d="M31.89 40.12c-3-18.91 9.9-36.68 28.81-39.69 18.92-3 36.68 9.9 39.69 28.82l21.58 134.1h218.74c12.01 0 21.75 9.74 21.75 21.74 0 12.02-9.74 21.75-21.75 21.75h-85.72l-25.98 57.61h135.94c19.22 0 34.79 15.58 34.79 34.8 0 19.21-15.57 34.79-34.79 34.79h-28.07l28.76 88.6c6.3-4.06 12.31-8.45 17.97-13.16 7.55-6.29 14.65-13.42 21.18-21.4 9.11-11.13 25.53-12.77 36.66-3.66 11.13 9.11 12.77 25.52 3.66 36.66-8.25 10.08-17.75 19.53-28.3 28.32-50.2 41.78-120.7 62.78-190.91 62.97-70.19.2-140.84-20.37-191.34-61.7A210.506 210.506 0 0 1 6 422.33c-9.17-11.02-7.66-27.39 3.36-36.56 11.02-9.17 27.39-7.66 36.56 3.36 6.21 7.47 13.48 14.55 21.63 21.22 13.42 10.98 28.72 20.16 45.3 27.53l37.18-103.84h-41.31v-.11c-16.77.02-31.53-12.16-34.25-29.25L31.89 40.12zm293.5 402.66-35.58-108.74h-92.18l-42.35 118.19c22.72 5.54 46.64 8.28 70.62 8.21 34.48-.1 68.81-5.99 99.49-17.66zM207.36 206.84h-78.39l9.28 57.61h43.15l25.96-57.61z"/></svg>