<svg id="Layer_1" data-name="Layer 1" xmlns="http://www.w3.org/2000/svg" viewBox="0 0 122.88 66.09"><defs><style>.cls-1{fill-rule:evenodd;}</style></defs><title>rubbing-brush</title><path class="cls-1" d="M5.28,66.09h8.24a.39.39,0,0,0,.38-.38l.41-15.9h8.35l-2.85,15.9c0,.19.18.38.39.38h8.24a.38.38,0,0,0,.38-.38l.41-15.9h8.35l-2.84,15.9c0,.19.17.38.38.38h8.24a.38.38,0,0,0,.38-.38l.41-15.9H52.5l-2.84,15.9c0,.19.17.38.38.38h8.24a.4.4,0,0,0,.39-.38l.4-15.9h6l.4,15.9a.4.4,0,0,0,.39.38h8.24c.21,0,.42-.18.38-.38l-2.84-15.9H80l.41,15.9a.39.39,0,0,0,.38.38H89c.21,0,.42-.18.38-.38l-2.84-15.9h8.35l.41,15.9a.39.39,0,0,0,.38.38h8.24a.38.38,0,0,0,.39-.38l-2.85-15.9h8.35l.41,15.9a.39.39,0,0,0,.38.38h8.24a.37.37,0,0,0,.39-.38l-2.84-15.9h3.07a3.44,3.44,0,0,0,3.43-3.43V21.56A21.61,21.61,0,0,0,101.32,0H21.56A21.61,21.61,0,0,0,0,21.56V46.38a3.44,3.44,0,0,0,3.43,3.43h4.3L4.89,65.71a.38.38,0,0,0,.39.38ZM6.86,27.64H116V21.56a14.75,14.75,0,0,0-14.7-14.7H21.56a14.75,14.75,0,0,0-14.7,14.7v6.08ZM116,34.5H6.86V43H116V34.5Z"/></svg>