<svg xmlns="http://www.w3.org/2000/svg" shape-rendering="geometricPrecision" text-rendering="geometricPrecision" image-rendering="optimizeQuality" fill-rule="evenodd" clip-rule="evenodd" viewBox="0 0 462 512.5"><path fill-rule="nonzero" d="m14.35 425.64 433.28.11-76.71-296.33h-42.13v14.42h29.17l9.81 38.89-273.41-.91 9.57-37.98h26.55v-14.42H90.94L14.35 425.64zm314.44-308.12h40.84l.3-105.89H89.42l2.8 105.89h38.26V72.65c0-11.5 9.47-20.99 20.99-20.99h156.34c11.49 0 20.98 9.51 20.98 20.99v44.87zm-20.98-51.75H151.47c-3.75 0-6.88 3.13-6.88 6.88v82.9c0 1.85.8 3.58 2.05 4.84 1.26 1.25 2.98 2.05 4.83 2.05h156.34c1.83 0 3.56-.8 4.82-2.06 1.26-1.24 2.05-2.97 2.05-4.83v-82.9c0-3.73-3.14-6.88-6.87-6.88zM38.33 404.08l385.33.09-48.59-192.5H86.84L38.33 404.08zM86.81 0h285.66c4.97 0 9.08 4.11 9.08 9.08l-.35 113.74 79.54 307.27.01.09c.11.43.18.89.18 1.36l1.07 75.15c0 3.2-2.61 5.81-5.81 5.81H5.79c-3.26-.06-5.82-2.69-5.79-5.88l1.04-75.08.05-.69.01-.05.01-.1.01-.05.01-.09.01-.05.02-.1.09-.43 79.46-307.34.07-.37c.13-15.23-1.79-109.1-3.04-113.27 0-4.89 3.97-8.84 8.82-8.97l.25-.03zM12.55 437.24l-.89 63.63h438.65l-.88-63.53-436.88-.1z"/></svg>