<svg xmlns="http://www.w3.org/2000/svg" shape-rendering="geometricPrecision" text-rendering="geometricPrecision" image-rendering="optimizeQuality" fill-rule="evenodd" clip-rule="evenodd" viewBox="0 0 512 497.56"><path d="M0 465.72h512v31.84H0v-31.84zM196.28 209.4l-12.07 12.07 35.89.07v15.92l-35.82-.06 12.48 12.47-11.3 11.31-31.78-31.78 31.3-31.3 11.3 11.3zm127.56-11.3 31.3 31.3-31.78 31.78-11.3-11.31 12.47-12.47-35.81.06v-15.92l35.89-.07-12.07-12.07 11.3-11.3zM248.1 20.89v438.38h12.62V20.89H248.1zm-187.33 0h390.75v438.38h22.32V0H34.98v459.27H57.3V20.89h3.47z"/></svg>