<svg id="Layer_1" data-name="Layer 1" xmlns="http://www.w3.org/2000/svg" viewBox="0 0 122.88 106.35"><title>small-cupboard</title><path d="M32.6,96.57l0,9.78H18.77l2-9.78H11a8.77,8.77,0,0,1-8.76-8.76v-74h-.9A1.44,1.44,0,0,1,0,12.45V1.38A1.38,1.38,0,0,1,1.38,0H121.5a1.44,1.44,0,0,1,1.38,1.38V12.45a1.51,1.51,0,0,1-1.38,1.38h-.9v74A8.72,8.72,0,0,1,118,94h0a8.74,8.74,0,0,1-6.18,2.57H102.1l2,9.78H90.32l0-9.78ZM6.91,13.83v74A4.17,4.17,0,0,0,11,91.94H59.35V13.83ZM63.54,91.94h48.3a4.07,4.07,0,0,0,2.91-1.21h0A4.09,4.09,0,0,0,116,87.81v-74H63.54V91.94ZM81.33,50c0,6.19-1.07,11.22-2.39,11.22s-2.39-5-2.39-11.22,1.07-11.22,2.39-11.22,2.39,5,2.39,11.22Zm-35,0c0,6.19-1.07,11.22-2.39,11.22s-2.39-5-2.39-11.22,1.07-11.22,2.39-11.22,2.39,5,2.39,11.22Z"/></svg>