<?xml version="1.0" encoding="UTF-8"?>
<!DOCTYPE svg PUBLIC "-//W3C//DTD SVG 1.1//EN" "http://www.w3.org/Graphics/SVG/1.1/DTD/svg11.dtd">
<!-- Creator: CorelDRAW 2021 (64-Bit) -->
<svg xmlns="http://www.w3.org/2000/svg" xml:space="preserve" width="416px" height="512px" version="1.1" shape-rendering="geometricPrecision" text-rendering="geometricPrecision" image-rendering="optimizeQuality" fill-rule="evenodd" clip-rule="evenodd"
viewBox="0 0 416 511.9"
 xmlns:xlink="http://www.w3.org/1999/xlink"
 xmlns:xodm="http://www.corel.com/coreldraw/odm/2003">
 <g id="Layer_x0020_1">
  <metadata id="CorelCorpID_0Corel-Layer"/>
  <path fill="black" d="M152.51 119.51l216.74 0c25.71,0 46.75,21.04 46.75,46.75 0,25.71 -21.04,46.76 -46.75,46.76l-216.74 0c-25.72,0 -46.76,-21.04 -46.76,-46.76 0,-25.71 21.04,-46.75 46.76,-46.75zm-94 -119.51l110.99 0c16.1,0 30.73,6.59 41.32,17.19l0.51 0.54c10.31,10.58 16.68,24.99 16.68,40.78l0 33.04 -18.71 0 0 -33.04c0,-10.75 -4.3,-20.53 -11.26,-27.69l-0.44 -0.41c-7.21,-7.22 -17.16,-11.7 -28.1,-11.7l-110.99 0c-10.73,0 -20.52,4.3 -27.7,11.26l-0.4 0.44c-7.22,7.21 -11.7,17.17 -11.7,28.1l0 394.87c0,10.94 4.48,20.89 11.7,28.11l0 0.03c7.19,7.2 17.14,11.67 28.1,11.67l110.99 0c10.93,0 20.89,-4.49 28.1,-11.7 7.22,-7.2 11.7,-17.16 11.7,-28.11l0 -212.41 18.71 0 0 212.41c0,16.07 -6.59,30.69 -17.19,41.29l0 0.04c-10.59,10.6 -25.23,17.19 -41.32,17.19l-110.99 0c-16.06,0 -30.69,-6.59 -41.31,-17.21 -10.61,-10.58 -17.2,-25.21 -17.2,-41.31l0 -394.87c0,-16.09 6.58,-30.73 17.18,-41.33l0.54 -0.5c10.57,-10.3 24.98,-16.68 40.79,-16.68zm9.39 355.74c-4.04,3.57 -10.23,3.19 -13.79,-0.84 -3.57,-4.05 -3.19,-10.23 0.85,-13.8 18.87,-16.69 39.03,-25.23 59.55,-24.89 20,0.33 39.89,9.08 58.76,26.85 3.94,3.7 4.12,9.9 0.42,13.83 -3.69,3.93 -9.9,4.12 -13.83,0.42 -15.18,-14.3 -30.61,-21.32 -45.66,-21.56 -15.47,-0.27 -31.16,6.6 -46.3,19.99zm46.1 33.69c9,0 16.29,7.29 16.29,16.29 0,8.99 -7.29,16.29 -16.29,16.29 -9,0 -16.29,-7.3 -16.29,-16.29 0,-9 7.29,-16.29 16.29,-16.29zm-24.22 -6.45c-4.17,3.4 -10.35,2.77 -13.75,-1.42 -3.4,-4.18 -2.76,-10.35 1.42,-13.76 11.42,-9.27 23.91,-14.11 36.66,-14.14 12.46,-0.04 24.87,4.51 36.44,13.96 4.18,3.41 4.82,9.57 1.42,13.76 -3.41,4.18 -9.58,4.82 -13.76,1.42 -7.95,-6.5 -16.16,-9.62 -24.1,-9.6 -8.13,0.02 -16.42,3.37 -24.33,9.78zm277.38 -229.94c7.31,0 13.23,5.92 13.23,13.22 0,7.3 -5.92,13.23 -13.23,13.23 -7.3,0 -13.22,-5.93 -13.22,-13.23 0,-7.3 5.92,-13.22 13.22,-13.22z"/>
 </g>
</svg>
