<svg id="Layer_1" data-name="Layer 1" xmlns="http://www.w3.org/2000/svg" viewBox="0 0 100.47 122.88"><title>snow-globe</title><path d="M50.24,0a50.21,50.21,0,0,1,33,88.07l.16.16a9.87,9.87,0,0,1,2.93,7,2.42,2.42,0,0,1-.26,1.11h5.17a4.34,4.34,0,0,1,3.07,1.28h0a4.38,4.38,0,0,1,1.28,3.07v17.8a4.34,4.34,0,0,1-1.28,3.07h0a4.36,4.36,0,0,1-3.07,1.28H8a4.34,4.34,0,0,1-3.07-1.28h0a4.34,4.34,0,0,1-1.28-3.07v-17.8A4.34,4.34,0,0,1,4.9,97.65h0A4.34,4.34,0,0,1,8,96.36h5.17a2.43,2.43,0,0,1-.27-1.11,9.91,9.91,0,0,1,2.93-7l.15-.14c.2-.19.41-.38.63-.56A50.23,50.23,0,0,1,50.24,0ZM85.18,27a1.71,1.71,0,1,1-1.7,1.71A1.72,1.72,0,0,1,85.18,27ZM41.83,10.37a1.7,1.7,0,1,1-1.7,1.7,1.7,1.7,0,0,1,1.7-1.7Zm20.72,9.46a1.7,1.7,0,1,1-1.7,1.7,1.7,1.7,0,0,1,1.7-1.7ZM85.42,61.89a1.7,1.7,0,1,1-1.7,1.7,1.7,1.7,0,0,1,1.7-1.7ZM80.93,51.08a1.7,1.7,0,1,1-1.7,1.7,1.7,1.7,0,0,1,1.7-1.7ZM23,73.58a1.71,1.71,0,1,1-1.7,1.71A1.71,1.71,0,0,1,23,73.58ZM14,61.92a2.73,2.73,0,1,1-2.73,2.73A2.73,2.73,0,0,1,14,61.92Zm-.53-13.33a1.71,1.71,0,1,1-1.7,1.71,1.71,1.71,0,0,1,1.7-1.71Zm1.6-10.28A1.71,1.71,0,1,1,13.35,40a1.71,1.71,0,0,1,1.71-1.71ZM19.13,25.2a1.7,1.7,0,1,1-1.7,1.7,1.7,1.7,0,0,1,1.7-1.7Zm6.25,13.09a2,2,0,1,1-2,2,2,2,0,0,1,2-2Zm51.88-2.6a2.16,2.16,0,1,1-2.16,2.16,2.16,2.16,0,0,1,2.16-2.16Zm14,10a1.7,1.7,0,1,1-1.7,1.7,1.7,1.7,0,0,1,1.7-1.7ZM66.54,30.28a1.86,1.86,0,1,1-1.85,1.85,1.85,1.85,0,0,1,1.85-1.85ZM49.27,20.19a1.71,1.71,0,1,1-1.7,1.7,1.7,1.7,0,0,1,1.7-1.7Zm-12,5.15a1.7,1.7,0,1,1-1.7,1.7,1.7,1.7,0,0,1,1.7-1.7ZM29,63l-8-1.53a1.22,1.22,0,1,1,.46-2.4l4.26.81L23,57.31a1.22,1.22,0,0,1,1.68-1.77l2.76,2.62L26.5,54a1.22,1.22,0,1,1,2.38-.55l1.8,7.74L34.62,65a14.28,14.28,0,0,1,1.26-1.64,2.57,2.57,0,0,1-.23-1.07h0a2.67,2.67,0,0,1,2.67-2.66h1.4l-.49-.46a10.53,10.53,0,0,1-3.1-7.48,10.66,10.66,0,0,1,.67-3.71A10.41,10.41,0,0,1,38,45.67h-4.5a.74.74,0,0,1,0-1.47H38.3V39.34a3.63,3.63,0,0,1,1.07-2.58A3.68,3.68,0,0,1,42,35.68h9.66a3.67,3.67,0,0,1,3.66,3.66V44.2h4.39a.74.74,0,0,1,0,1.47H55.44a10.56,10.56,0,0,1,1.18,2.26v0a10.58,10.58,0,0,1-2.44,11.16l-.49.46h1.58a2.67,2.67,0,0,1,2.66,2.66h0a2.63,2.63,0,0,1-.19,1A15.37,15.37,0,0,1,59.1,65l4-3.76,1.8-7.74a1.22,1.22,0,1,1,2.38.55l-1,4.13L69,55.54a1.22,1.22,0,1,1,1.69,1.77L68,59.92l4.25-.81a1.22,1.22,0,0,1,.46,2.4l-8,1.53L60.31,67.2a14.68,14.68,0,0,1-3.07,16.26A15.31,15.31,0,0,1,55,85.3H69.42V83H64c-.91.08-1.09-.64-.7-1.24l3.48-4.08-.1-.1H64.78c-.67.1-.92-.63-.51-1.14L68,72h-1.1c-.68,0-.85-.62-.41-1.21l3.41-4.06c.23-.27.48-.68.89-.67s.56.34.77.58l3.63,4.23A.7.7,0,0,1,74.58,72h-1l3.72,4.37A.72.72,0,0,1,77,77.65H74.86l3.25,3.81c.38.45.92,1.39-.1,1.51H72.17V85.3H79a45.39,45.39,0,1,0-57.57,0H38.71a15.23,15.23,0,0,1-2.24-1.84A14.71,14.71,0,0,1,33.4,67.18L29,63ZM46.78,76a1.17,1.17,0,1,1-1.18,1.17A1.17,1.17,0,0,1,46.78,76Zm0-5.21a1.17,1.17,0,1,1-1.18,1.17,1.17,1.17,0,0,1,1.18-1.17Zm0-16.67a1.18,1.18,0,1,1-1.18,1.17,1.17,1.17,0,0,1,1.18-1.17ZM50,49.81A1.17,1.17,0,1,1,48.87,51,1.17,1.17,0,0,1,50,49.81Zm-6.5,0A1.17,1.17,0,1,1,42.37,51a1.17,1.17,0,0,1,1.17-1.17Zm11.61,15.1v6.73a.79.79,0,0,1-.78.78h-4.5a.79.79,0,0,1-.78-.78V64.91H38.32a3.1,3.1,0,0,1-.54,0A12.1,12.1,0,0,0,36,67.39v0l-.06.11A12.25,12.25,0,0,0,46.18,85.3h1.34a12.25,12.25,0,0,0,8.39-20.46,3.29,3.29,0,0,1-.63.07Zm-8.3-6.52a14.82,14.82,0,0,1,4.92.84,8.84,8.84,0,0,0,1.38-1.13,9.09,9.09,0,0,0,2.67-6.45,9.19,9.19,0,0,0-.56-3.17l0,0a9.06,9.06,0,0,0-1.63-2.75l0,0H39.83a9.14,9.14,0,0,0,.43,12.43,10,10,0,0,0,1.49,1.2,14.64,14.64,0,0,1,5.1-.91ZM30.71,17.63a2,2,0,1,1-2,2,2,2,0,0,1,2-2Zm17.63-6.51a1.46,1.46,0,0,1,.11-2.91c.86,0,1.73.09,2.61.17s1.71.17,2.59.29a1.46,1.46,0,1,1-.41,2.89c-.78-.11-1.59-.2-2.43-.28s-1.63-.13-2.47-.16Zm12.41,2.16a1.46,1.46,0,0,1,.88-2.78A49.21,49.21,0,0,1,79.55,20.78a1.46,1.46,0,1,1-2,2.17,46,46,0,0,0-16.85-9.67Zm21,83.08a2.43,2.43,0,0,1-.27-1.11,5.1,5.1,0,0,0-4.85-5.08l-54.21,0a5,5,0,0,0-3.08,1.37l-.1.1a5.11,5.11,0,0,0-1.5,3.59,2.42,2.42,0,0,1-.26,1.11Zm9,4.87H8.49V118H90.76V101.23Z"/></svg>