<svg xmlns="http://www.w3.org/2000/svg" shape-rendering="geometricPrecision" text-rendering="geometricPrecision" image-rendering="optimizeQuality" fill-rule="evenodd" clip-rule="evenodd" viewBox="0 0 512 459.07"><path fill="#EAB02B" d="M468.8 97.51c25.3 40.75 45.27 85.35 43.03 126.31-5.21 95.29-120.15 108.3-177.54 141.2-48.64 27.88-101.6 97.57-172.42 93.91-25.39-1.32-46.12-10.94-63.7-25.39-20.59-16.92-36.88-40.46-51.33-65.05-8.56-9.56-16.16-20.1-22.63-31.3C5.32 304.46-3.88 266.07 1.54 230.52c3.76-24.75 13.95-44.66 28.83-60.75 24.63-26.66 56.71-38.26 89.65-50.09 47.46-17.05 65.05-31.6 88.87-51.29 11.16-9.22 23.67-19.56 41.46-32.01 25.51-17.85 50.86-31.03 76.58-35.08 26.14-4.11 52.4 1.19 79.16 20.47 25.17 18.14 47.48 45.18 62.53 75.37l.18.37z"/><path fill="#FCD95B" d="M6.86 231.32c7.19-47.22 38.82-75.89 81.66-93.94 12.97-5.21 23.9-9.27 33.31-12.66 70.69-25.39 76.28-45.24 131.59-83.94 49.8-34.86 98.56-51.39 149.54-14.65 47.56 34.27 84.74 101.51 80.01 160.55-3.91 48.77-39.33 77.79-87.44 100.24-61.17 28.54-81.16 23.47-138.5 71.99a954.998 954.998 0 0 1-27.61 22.51c-37.05 28.08-77.7 41.14-122.19 23.75C42.53 379.89-3.6 299.99 6.86 231.32zm150.46-7.06c8.91-5.15 20.31-2.1 25.45 6.82 5.15 8.91 2.1 20.31-6.82 25.46-8.91 5.14-20.31 2.09-25.46-6.83-5.14-8.91-2.09-20.31 6.83-25.45zm-31.7-56.73c5.38-3.1 12.26-1.26 15.36 4.12 3.11 5.37 1.26 12.25-4.11 15.35-5.38 3.11-12.26 1.27-15.36-4.11-3.11-5.38-1.27-12.25 4.11-15.36zm181.77 81.93c8.18-4.72 18.63-1.92 23.35 6.26 4.72 8.17 1.91 18.62-6.26 23.34-8.17 4.72-18.62 1.92-23.34-6.25-4.72-8.18-1.92-18.63 6.25-23.35zm-71.66-139.09c4.91-2.83 11.18-1.15 14.02 3.76 2.83 4.91 1.15 11.18-3.76 14.02-4.91 2.83-11.18 1.15-14.02-3.76-2.83-4.91-1.15-11.19 3.76-14.02zm1.5 109.35c5.44-3.14 12.41-1.27 15.55 4.17 3.14 5.45 1.28 12.41-4.17 15.55-5.44 3.15-12.4 1.28-15.55-4.16-3.14-5.45-1.28-12.41 4.17-15.56zm-52.86-76.78c5.45-3.14 12.41-1.28 15.55 4.16 3.15 5.45 1.28 12.41-4.17 15.56-5.44 3.14-12.4 1.27-15.55-4.17-3.14-5.44-1.27-12.41 4.17-15.55zM81.94 204.59c6.1-3.52 13.9-1.43 17.42 4.67 3.52 6.1 1.43 13.9-4.67 17.42-6.1 3.53-13.9 1.44-17.42-4.67-3.53-6.09-1.43-13.89 4.67-17.42zm315.62-70.34c5.21-3.01 11.87-1.22 14.88 3.99 3.01 5.21 1.22 11.88-3.99 14.89-5.21 3-11.87 1.22-14.88-3.99-3.01-5.22-1.23-11.88 3.99-14.89zm-28.55-66.58c6.18-3.57 14.08-1.45 17.65 4.73 3.57 6.18 1.45 14.08-4.73 17.65-6.18 3.57-14.08 1.45-17.65-4.73-3.57-6.18-1.45-14.08 4.73-17.65zM400.37 205c4.86-2.8 11.07-1.14 13.88 3.72 2.8 4.86 1.14 11.08-3.72 13.89-4.86 2.8-11.08 1.14-13.89-3.73a10.161 10.161 0 0 1 3.73-13.88zm-77.88-84.61c5.38-3.11 12.26-1.27 15.36 4.11 3.11 5.38 1.26 12.26-4.11 15.36-5.38 3.11-12.26 1.26-15.36-4.11-3.11-5.38-1.26-12.26 4.11-15.36zM288.28 69.5c7.04-4.07 16.04-1.65 20.1 5.38 4.07 7.04 1.66 16.04-5.38 20.11-7.04 4.06-16.04 1.65-20.11-5.39-4.06-7.04-1.65-16.04 5.39-20.1zm-29.78 89.69c7.04-4.06 16.04-1.65 20.11 5.39 4.06 7.04 1.65 16.04-5.39 20.1-7.04 4.07-16.04 1.66-20.11-5.38-4.06-7.04-1.65-16.04 5.39-20.11zM118.02 337.73c6.09-3.53 13.89-1.43 17.42 4.67 3.52 6.1 1.43 13.9-4.67 17.42-6.1 3.52-13.9 1.43-17.42-4.67-3.53-6.1-1.44-13.9 4.67-17.42zm-24.9-67.42c9.15-5.29 20.86-2.15 26.15 7.01 5.28 9.15 2.15 20.86-7.01 26.15-9.16 5.28-20.87 2.15-26.15-7.01-5.29-9.15-2.15-20.87 7.01-26.15zm88.81 59.41c6.1-3.53 13.9-1.44 17.42 4.66 3.52 6.11 1.43 13.91-4.67 17.43-6.1 3.52-13.9 1.43-17.42-4.67-3.53-6.1-1.43-13.9 4.67-17.42zm22.92-57.41c6.11-3.53 13.91-1.44 17.43 4.67 3.52 6.1 1.43 13.9-4.67 17.42-6.1 3.52-13.9 1.43-17.42-4.67-3.52-6.1-1.44-13.9 4.66-17.42zm122.97-97.05c8.91-5.15 20.31-2.1 25.46 6.82 5.14 8.91 2.09 20.31-6.82 25.46-8.92 5.14-20.32 2.09-25.46-6.83-5.15-8.91-2.1-20.31 6.82-25.45z"/></svg>