<svg id="Layer_1" data-name="Layer 1" xmlns="http://www.w3.org/2000/svg" viewBox="0 0 122.24 122.88"><title>stool-chair</title><path d="M11.8,95.21a5.75,5.75,0,0,1-5-10.35C20,78.5,28.9,76.36,43.41,74.25q5.34-.78,10.68-1.09V42.91C50.14,40,37,39.07,35.83,35H3.7L3.61,9.38C3.61,4.22,8.14,0,13.69,0h93.67c5.54,0,10.08,4.22,10.08,9.38V35H85.9c-1.08,4.82-14,4.4-18.37,7.38V73.13A124.91,124.91,0,0,1,81.47,74.7c12.65,2.17,20.35,3.91,33,10.18a5.76,5.76,0,0,1-5.13,10.31C97.69,89.41,91.06,88,79.53,86.05a108.9,108.9,0,0,0-12-1.39v8.59a6.72,6.72,0,0,1-13.44,0V84.69q-4.53.28-9.06.94c-13.23,1.93-21.2,3.78-33.23,9.58Zm100.59,8a9.85,9.85,0,1,1-9.84,9.84,9.85,9.85,0,0,1,9.84-9.84Zm-51.27,0A9.85,9.85,0,1,1,51.28,113a9.85,9.85,0,0,1,9.84-9.84Zm-51.27,0A9.85,9.85,0,1,1,0,113a9.85,9.85,0,0,1,9.85-9.84Z"/></svg>