<svg id="Layer_1" data-name="Layer 1" xmlns="http://www.w3.org/2000/svg" viewBox="0 0 120.68 122.88"><title>stool</title><path d="M18.62,0h82.86c9.09,0,15,4.79,17.67,10.9a18.84,18.84,0,0,1,1.53,7.39,18.58,18.58,0,0,1-1.52,7.41c-2.63,6-8.52,10.76-17.68,10.76H92.26l12.26,64.82A6.88,6.88,0,0,1,91,103.82L78.31,36.74l0-.28H68v78.76a7.67,7.67,0,0,1-15.33,0V36.46H42l0,.18L29.69,103.86a6.87,6.87,0,0,1-13.53-2.43L28,36.46H18.62c-8.75,0-14.56-4.91-17.15-11.13A19.58,19.58,0,0,1,0,18a18.58,18.58,0,0,1,1.42-7.35C3.93,4.64,9.61,0,18.62,0Zm82.86,9.2H18.62c-4.69,0-7.54,2.18-8.72,5A9.54,9.54,0,0,0,9.16,18,10.4,10.4,0,0,0,10,21.81a8.91,8.91,0,0,0,8.67,5.45h82.86c4.93,0,8-2.29,9.27-5.23a9.23,9.23,0,0,0,.76-3.74,9.55,9.55,0,0,0-.77-3.76c-1.3-3-4.38-5.33-9.26-5.33Z"/></svg>