<svg id="Layer_1" data-name="Layer 1" xmlns="http://www.w3.org/2000/svg" viewBox="0 0 94.98 122.88"><defs><style>.cls-1{fill-rule:evenodd;}</style></defs><title>table-lamp</title><path class="cls-1" d="M0,56.21,3,47.8h88.6L95,56.21H52.67c.64,3.77,2.24,9,4.75,10.27v2.34c15.45,4.51,11.73,20.38.69,40.59H78.78a1.75,1.75,0,0,1,1.73,1.74v10a1.76,1.76,0,0,1-1.73,1.74H16.21a1.75,1.75,0,0,1-1.74-1.74v-10a1.74,1.74,0,0,1,1.74-1.74H36.43c-10.84-21-13.92-36.9,1-40.7h.14V66.33c1.68-.86,3.12-6.15,3.78-10.12ZM4.65,43.05,15.22,13.16H77.53L89.65,43.05ZM16.9,8.41l3-8.41H72.19L75.6,8.41Z"/></svg>