<svg xmlns="http://www.w3.org/2000/svg" shape-rendering="geometricPrecision" text-rendering="geometricPrecision" image-rendering="optimizeQuality" fill-rule="evenodd" clip-rule="evenodd" viewBox="0 0 512 429.12"><path fill-rule="nonzero" d="m356.18 143.48-200.46-1.52c-32.53 16.64-55.21 45.12-67.01 77.2-6.83 18.57-10.04 38.3-9.41 57.6.61 19.23 5.03 38.05 13.42 54.91 12.06 24.21 32.43 44.35 61.65 55.64h202.15c.35 0 .69.03 1.03.09 23.31-10.03 40.51-24.93 52.14-42.64 7.19-10.97 12.27-23.03 15.36-35.7 3.82-18.11 4.22-40.15-.72-67.08l-.04-.27c-1.99-8.12-4.62-16.17-7.87-24.03-12.05-29.09-32.62-55.64-60.24-74.2zM483.49 0c-3.11 13.41-4.41 23.18-4.23 31.15.44 19.05 9.35 27.79 22.27 51.07 9.85 17.75 12.03 35.19 8.29 51.65h-14.06c.85-10.13.01-19.57-3.1-29.58-2.13-6.87-4.98-12.69-8.06-18.3-8.41-15.3-17.5-27.94-16.72-46.45.61-14.27 7.03-28.34 15.61-39.54zm-25.82 43.31c-3.1 20.67-.38 26.94 6.4 36.61 7.51 10.71 13.81 19.04 15.67 29.56 1.43 8.11.02 16.55-3.04 24.39h-7.76c2.36-49.02-38.69-40.5-11.27-90.56zm-201.01-8.34c-4.62 0-8.78 1.86-11.77 4.85l-.03.03a16.584 16.584 0 0 0-4.85 11.77c0 2.51.55 4.87 1.52 6.97.69 1.52 1.62 2.91 2.71 4.13 3.99-.18 8.11-.25 12.29-.2 4.08.06 8.18.24 12.24.54 1.19-1.26 2.19-2.7 2.94-4.27 1.02-2.13 1.59-4.56 1.59-7.17 0-4.62-1.86-8.78-4.85-11.77l-.02-.03c-3-2.99-7.16-4.85-11.77-4.85zm-20.35-3.68.02-.02c5.22-5.21 12.41-8.43 20.33-8.43 7.91 0 15.09 3.22 20.3 8.42l.04.03c5.21 5.22 8.43 12.41 8.43 20.33 0 4.39-1.01 8.6-2.82 12.39-.44.9-.92 1.77-1.43 2.62 6.48 1.12 12.53 2.68 17.77 4.7 9.39 3.61 17.56 7.09 24.69 11.9 6.94 4.68 12.85 10.54 17.83 18.78h3.96c4.68 0 8.94 1.91 12.03 4.99 3.08 3.09 4.99 7.35 4.99 12.04v14.06c29.89 19.94 52.14 48.58 65.15 79.98 1.34 3.24 2.58 6.51 3.72 9.8l32.53-76.99c.87-2.2 3.01-3.78 5.53-3.82l36.24-.65c.83-.05 1.69.08 2.51.4a6.038 6.038 0 0 1 3.46 7.82c-5.08 13.08-8.64 26.75-11.11 40.86-2.48 14.22-3.83 28.77-4.46 43.51-.27 6.23-.42 11.6-.56 16.64-.87 31.97-1.39 51.12-23.53 86.15-9.25 14.64-21.51 25.59-35.24 33.38-15.35 8.71-32.55 13.46-49.42 15.01-.25.03-.51.05-.76.06-7.22 4.95-15.18 9.36-23.93 13.15v9.66c0 5.8-2.37 11.06-6.18 14.88-3.81 3.81-9.08 6.18-14.87 6.18h-173.7c-6.31 0-12.04-2.58-16.19-6.74l.01-.01c-4.16-4.16-6.74-9.89-6.74-16.18v-9.66c-27.12-11.73-46.9-30.63-59.73-53.25-48.44-7.81-73.88-36.35-82.15-68.13-4.11-15.79-3.92-32.36-.15-47.54 3.8-15.31 11.24-29.31 21.58-39.8 17.8-18.07 43.81-25.87 74.34-12.79 12.55-17 28.72-31.6 48.32-42.22v-13.76c0-4.69 1.92-8.95 5-12.04 3.08-3.08 7.34-4.99 12.03-4.99h3.78c5.79-9.88 12.9-16.72 21.34-21.85 8.74-5.32 18.71-8.69 30.08-11.73 3.78-1.01 7.96-1.83 12.38-2.46a28.645 28.645 0 0 1-3.85-14.35c0-7.92 3.22-15.1 8.42-20.31l.01-.02zm-52.81 69.5h142.08c-2.65-2.93-5.55-5.38-8.72-7.52-6.29-4.24-13.68-7.38-22.22-10.67-9.28-3.56-21.82-5.52-34.62-5.97-13.53-.47-27.2.74-37.55 3.51-10.4 2.78-19.41 5.79-26.9 10.34-4.48 2.73-8.51 6.07-12.07 10.31zm166.82 30.57v-12.32c0-1.35-.55-2.57-1.44-3.46a4.87 4.87 0 0 0-3.45-1.44H164.15c-1.34 0-2.57.55-3.45 1.44a4.86 4.86 0 0 0-1.45 3.46v10.87l191.07 1.45zM90.58 187.34c-23.04-8.88-42.46-2.86-55.77 10.65-8.5 8.62-14.65 20.26-17.83 33.08-3.22 12.96-3.39 27.06.09 40.45 6.36 24.41 25.13 46.59 60.25 55.34-6.22-15.66-9.56-32.55-10.11-49.72-.67-20.88 2.77-42.17 10.13-62.15 3.52-9.57 7.94-18.85 13.24-27.65zm346.2 124.68c-1.68 7.84-3.95 15.03-6.67 21.63-6.07 14.67-14.35 26.38-23.42 35.83 8.31-2.27 16.43-5.5 24.03-9.82 12.09-6.86 22.87-16.47 30.98-29.3 20.38-32.25 20.87-50.14 21.68-80 .15-5.34.3-11.05.55-16.87.67-15.36 2.06-30.44 4.61-45.08 2.07-11.82 4.9-23.43 8.73-34.75l-23.76.42-36.88 87.29c3.27 14.32 4.66 28.85 4.04 43.08-.42 9.37-1.7 18.6-3.89 27.57z"/></svg>