<svg id="Layer_1" data-name="Layer 1" xmlns="http://www.w3.org/2000/svg" viewBox="0 0 122.88 98.54"><title>television-cabinet</title><path d="M21.21,88.93l0,9.61H11.26l2-9.61H5.71a5.66,5.66,0,0,1-4-1.68l-.09-.1A5.71,5.71,0,0,1,0,83.22V51.36a1.65,1.65,0,0,1,1.64-1.65H41.48V47.27H51.56V44.51H24.16V0H98.72V44.51H71.23v2.76H81.31v2.44h39.93a1.65,1.65,0,0,1,1.64,1.65V83.22a5.74,5.74,0,0,1-1.68,4,5.68,5.68,0,0,1-4,1.68h-7.52l2,9.61h-9.91l0-9.61Zm80.26-11.88c3.37,0,6.11.58,6.11,1.3s-2.74,1.3-6.11,1.3-6.11-.59-6.11-1.3,2.74-1.3,6.11-1.3Zm0-18.62c3.37,0,6.11.59,6.11,1.31s-2.74,1.3-6.11,1.3-6.11-.59-6.11-1.3,2.74-1.31,6.11-1.31Zm-18.7,9.23h36.82V53H82.77V67.66Zm36.82,2.15H82.77V85.65h34.4a2.44,2.44,0,0,0,2.42-2.43V69.81ZM80.64,85.65V53H42.24V85.65Zm-59.23-8.6c3.37,0,6.1.58,6.1,1.3s-2.73,1.3-6.1,1.3-6.11-.59-6.11-1.3,2.74-1.3,6.11-1.3Zm0-18.62c3.37,0,6.1.59,6.1,1.31S24.78,61,21.41,61s-6.11-.59-6.11-1.3,2.74-1.31,6.11-1.31ZM3.29,67.66H40.11V53H3.29V67.66Zm36.82,2.15H3.29V83.22a2.44,2.44,0,0,0,.65,1.65l.06.06a2.43,2.43,0,0,0,1.71.72h34.4V69.81ZM96.2,2.52H26.68V42H96.2V2.52Z"/></svg>