<svg id="Layer_1" data-name="Layer 1" xmlns="http://www.w3.org/2000/svg" viewBox="0 0 122.88 92.87"><defs><style>.cls-1{fill-rule:evenodd;}</style></defs><title>television-cabinet-stereo</title><path class="cls-1" d="M5.19,23.81H17.62a.79.79,0,0,1,.78.79V46.85H42.63v-2.3h9.5V42H26.31V0H96.57V42H70.66v2.6h9.5v2.3h24.32V24.6a.78.78,0,0,1,.78-.79h12.43a.79.79,0,0,1,.78.79V46.85h2.86a1.54,1.54,0,0,1,1.55,1.55v30a5.38,5.38,0,0,1-1.58,3.8l-.09.09a5.37,5.37,0,0,1-3.71,1.5H106.87l1.86,9.06H99.39l0-9.06H23.53l0,9.06H14.15L16,83.81H5.38a5.38,5.38,0,0,1-3.8-1.59l-.08-.09A5.35,5.35,0,0,1,0,78.42v-30a1.54,1.54,0,0,1,1.55-1.55H4.41V24.6a.78.78,0,0,1,.78-.79Zm89-21.44H28.68v37.2H94.19V2.37Zm17.28,24.22a3,3,0,0,1,2.17.9,3.08,3.08,0,0,1-2.17,5.26,3.11,3.11,0,0,1-2.18-.9,3.08,3.08,0,0,1,2.18-5.26Zm1.67,1.4a2.38,2.38,0,0,0-3.35,0,2.37,2.37,0,0,0,0,3.36,2.4,2.4,0,0,0,1.68.69A2.37,2.37,0,0,0,113.15,28Zm-1.67.81a.87.87,0,1,1-.87.87.86.86,0,0,1,.87-.87Zm0,6.72a5.14,5.14,0,1,1-3.62,1.5,5.09,5.09,0,0,1,3.62-1.5Zm2.7,2.44a3.81,3.81,0,1,0,1.11,2.69A3.81,3.81,0,0,0,114.17,38Zm-2.7,1.21A1.48,1.48,0,1,1,110,40.65a1.48,1.48,0,0,1,1.47-1.48ZM99.16,72.61c3.18,0,5.76.55,5.76,1.22s-2.58,1.23-5.76,1.23-5.75-.55-5.75-1.23,2.58-1.22,5.75-1.22Zm0-17.54c3.18,0,5.76.55,5.76,1.22s-2.58,1.23-5.76,1.23-5.75-.55-5.75-1.23,2.58-1.22,5.75-1.22ZM81.54,63.76h38.24V50H81.54V63.76Zm38.24,2H81.54V80.71h36a2.25,2.25,0,0,0,1.55-.61l.06-.06a2.32,2.32,0,0,0,.67-1.62V65.79ZM79.54,80.71V50H43.34V80.71Zm-55.83-8.1c3.18,0,5.76.55,5.76,1.22s-2.58,1.23-5.76,1.23S18,74.51,18,73.83s2.58-1.22,5.75-1.22Zm0-17.54c3.18,0,5.76.55,5.76,1.22s-2.58,1.23-5.76,1.23S18,57,18,56.29s2.58-1.22,5.75-1.22ZM3.1,63.76H41.34V50H3.1V63.76Zm38.24,2H3.1V78.42A2.29,2.29,0,0,0,3.71,80l.06.06a2.31,2.31,0,0,0,1.61.67h36V65.79ZM11.41,39.17a1.48,1.48,0,1,1-1.48,1.48,1.48,1.48,0,0,1,1.48-1.48Zm0-12.58a3,3,0,0,1,2.17.9l0,0a3.08,3.08,0,0,1-2.19,5.24,3.11,3.11,0,0,1-2.18-.9,3.08,3.08,0,0,1,2.18-5.26ZM13.08,28A2.38,2.38,0,0,0,9,29.67,2.38,2.38,0,1,0,13.1,28Zm-1.67.81a.87.87,0,1,1-.87.87.87.87,0,0,1,.87-.87Zm0,6.72A5.14,5.14,0,1,1,7.78,37a5.08,5.08,0,0,1,3.63-1.5ZM14.1,38a3.81,3.81,0,1,0,1.11,2.69A3.8,3.8,0,0,0,14.1,38Z"/></svg>