<svg id="Layer_1" data-name="Layer 1" xmlns="http://www.w3.org/2000/svg" viewBox="0 0 122.88 122.84"><title>tube-light</title><path d="M99.75,4l.83.83,4-4a2.82,2.82,0,1,1,4,4l-4,4,9.52,9.52,4-4a2.82,2.82,0,1,1,4,4l-4,4,.88.88a5.41,5.41,0,0,1,0,7.62L30.89,118.87a5.41,5.41,0,0,1-7.62,0l-.9-.9-4,4a2.82,2.82,0,0,1-4-4l4-4-9.52-9.52-4,4a2.82,2.82,0,0,1-4-4l4-4-.81-.8a5.41,5.41,0,0,1,0-7.62L92.13,4a5.41,5.41,0,0,1,7.62,0ZM115.68,59a2.77,2.77,0,0,1,1.22,1.57A2.76,2.76,0,0,1,115.06,64a2.78,2.78,0,0,1-2.07-.19l-6.9-3.44-.15-.09a2.76,2.76,0,0,1-1-3.65l0-.08a2.74,2.74,0,0,1,3.66-1.07l6.9,3.44.15.08ZM60.85,116.7a2.67,2.67,0,0,1-1.58-1.25l-3.7-6.82a2.73,2.73,0,0,1,1-3.66l.12-.07a2.74,2.74,0,0,1,2.09-.21,2.7,2.7,0,0,1,1.58,1.24c1.31,2.2,2.43,4.61,3.71,6.84a2.75,2.75,0,0,1-3.22,3.93ZM91.37,93.44a2.74,2.74,0,0,1-1.92-.87l-7.08-7.38a2.75,2.75,0,1,1,4-3.75l7.08,7.38a2.75,2.75,0,0,1-2.11,4.62ZM62.49,6.2a2.79,2.79,0,0,1,1.57,1.22l.09.15,3.43,6.89a2.76,2.76,0,0,1,.21,2.08,2.71,2.71,0,0,1-1.26,1.59l-.09.05a2.75,2.75,0,0,1-3.65-1L62.7,17l-3.44-6.91A2.76,2.76,0,0,1,62.49,6.2ZM7.65,63.84a2.7,2.7,0,0,1-1.24-1.58A2.75,2.75,0,0,1,10.34,59c2.23,1.28,4.65,2.4,6.84,3.71a2.71,2.71,0,0,1,1.24,1.57,2.77,2.77,0,0,1-1.84,3.44,2.81,2.81,0,0,1-2.1-.21c-2.22-1.28-4.63-2.41-6.83-3.71ZM30.54,33.66a2.76,2.76,0,0,1,3.75-4l7.38,7.09a2.75,2.75,0,1,1-3.75,4l-7.38-7.08ZM18.14,86,37,104.79l67.9-67.9L86,18.06,18.14,86ZM33,108.78,14.15,89.94,8.24,95.85l18.84,18.84L33,108.78ZM90,14.06,108.87,32.9,114.78,27,95.94,8.15,90,14.06Z"/></svg>