<svg xmlns="http://www.w3.org/2000/svg" shape-rendering="geometricPrecision" text-rendering="geometricPrecision" image-rendering="optimizeQuality" fill-rule="evenodd" clip-rule="evenodd" viewBox="0 0 244 512.22"><path fill-rule="nonzero" d="M.34 397.4 115.38 4.38c.93-3.22 4.3-5.07 7.52-4.14 2.06.6 3.57 2.2 4.13 4.12l116.72 393.36c.95 3.22-.9 6.6-4.12 7.54-2.93.86-5.99-.59-7.23-3.28-3.23-6.99-9.81-11.66-17.64-14.15-5.63-1.79-11.92-2.46-18.16-2.07-6.19.38-12.27 1.83-17.53 4.27-7.05 3.26-12.57 8.28-14.65 14.84-1.01 3.19-4.43 4.96-7.62 3.95a6.06 6.06 0 0 1-3.92-3.89l-.03.01c-2.59-7.86-8.21-12.89-15.03-15.63-3.02-1.21-6.27-2-9.63-2.4v33.36c3.97 2.29 6.64 6.58 6.64 11.5v40.78h-.05c.02 16.05-11.23 28.76-26.04 35.16-5.82 2.51-12.31 4.06-18.88 4.42-6.7.37-13.53-.52-19.91-2.91-14.54-5.44-26.22-18.01-28.29-40.06-.66-7.27 4.7-13.7 11.98-14.36 7.27-.66 13.7 4.7 14.36 11.97.95 10.08 5.54 15.55 11.18 17.66 2.81 1.05 5.99 1.44 9.22 1.26 3.36-.19 6.76-1.01 9.87-2.35 5.72-2.47 10.06-6.47 10.06-10.79h-.05v-40.78c0-4.92 2.67-9.21 6.63-11.5v-33.12c-5.79.88-11.29 2.73-15.76 5.31-5.27 3.05-8.96 7.01-9.55 11.36a6.073 6.073 0 0 1-6.83 5.21 6.079 6.079 0 0 1-5.2-5.11c-.52-3.39-3.42-6.57-7.69-9.19-4.3-2.64-9.82-4.61-15.81-5.7-6.09-1.1-12.65-1.29-18.94-.34-9.88 1.49-18.93 5.83-23.87 13.87-1.74 2.86-5.48 3.77-8.35 2.02a6.075 6.075 0 0 1-2.57-7.18zm149.95-15.16-13.21-168.5a6.09 6.09 0 0 1 5.62-6.52 6.09 6.09 0 0 1 6.52 5.62L162.8 386.2c3.25-2.89 7.03-5.3 11.17-7.21 6.64-3.07 14.23-4.89 21.92-5.37 7.62-.47 15.42.38 22.54 2.64 2.47.79 4.86 1.75 7.13 2.87L121.24 27.55 17.68 381.37c4.85-2.35 10.17-3.89 15.64-4.72 7.56-1.14 15.5-.91 22.89.44 7.49 1.36 14.46 3.87 20 7.27.88.54 1.73 1.11 2.55 1.7L94.88 212.6c.31-3.34 3.26-5.8 6.6-5.5 3.33.31 5.79 3.26 5.49 6.6L91.22 383.06c.6-.38 1.21-.75 1.84-1.12 6.69-3.87 15.08-6.43 23.71-7.24 8.66-.8 17.66.16 25.57 3.33 2.8 1.13 5.47 2.52 7.95 4.21z"/></svg>