<svg id="Layer_1" data-name="Layer 1" xmlns="http://www.w3.org/2000/svg" viewBox="0 0 90.12 122.88"><title>wardrobe</title><path d="M22.94,118.53l0,4.35H13l.9-4.35H7.07a7.05,7.05,0,0,1-5-2.08l-.1-.11a7,7,0,0,1-2-4.88V1.63A1.63,1.63,0,0,1,1.63,0H88.49a1.63,1.63,0,0,1,1.63,1.63V111.46a7.12,7.12,0,0,1-7.07,7.07H76.22l.89,4.35H67.19l0-4.35ZM70.85,36.68V35.56h-7.4v1.16A5.06,5.06,0,0,1,67,38.2a5.64,5.64,0,0,1,3.82-1.52Zm0-2.77v-.23a.77.77,0,0,1,1.53,0v.23h4.21a1.65,1.65,0,0,0,.73-.14.34.34,0,0,0,.12-.12.31.31,0,0,0,0-.18,1.57,1.57,0,0,0-.47-.68l-.18-.16c-3.24-2.51-6.44-5.17-9.64-7.74l-10,8a1.25,1.25,0,0,0-.47.55.26.26,0,0,0,0,.17v0a.39.39,0,0,0,.09.11,1.36,1.36,0,0,0,.74.17h4.45v-.23a.76.76,0,1,1,1.52,0v.23Zm1.53,1.65V37l.43.22a3.45,3.45,0,0,1,1.32,1.36,3.37,3.37,0,0,1,0,3L73.54,43l-1.31,2.89a4.87,4.87,0,0,0-.29,1,2.36,2.36,0,0,0,0,.92,2.21,2.21,0,0,0,.27.59,2.82,2.82,0,0,0,.55.63l0,0a31.23,31.23,0,0,1,5.87,7c2,3.33,5,11.17,2.08,15.14a3.29,3.29,0,0,1-2.25,1.4,4.44,4.44,0,0,1-2.21-.33,5.06,5.06,0,0,1-2.74,1.61,5.9,5.9,0,0,1-3.49-.48,4.74,4.74,0,0,1-3.13,1.1,5.44,5.44,0,0,1-3.11-1.25,5.17,5.17,0,0,1-3.17.59,6,6,0,0,1-3.19-1.65,7.64,7.64,0,0,1-1.25.16,4.55,4.55,0,0,1-1.71-.25c-2.51-.86-2.46-2.14-2.4-4,0-.22,0-.45,0-.81a24.7,24.7,0,0,1,4.54-13.52,26,26,0,0,1,2.75-3.37c.38-.4.73-.74,1.07-1,1.15-1.08,1.88-1.77.83-3.82l0-.08-1-2.36-.52-1.29A3.42,3.42,0,0,1,60,38.6a3.84,3.84,0,0,1,1.42-1.35,4.31,4.31,0,0,1,.49-.22V35.56H57.48a2.83,2.83,0,0,1-1.7-.49,1.91,1.91,0,0,1-.68-.87l0-.1a1.9,1.9,0,0,1,0-1.2,2.92,2.92,0,0,1,1.07-1.36l10.16-8.11V21.92H46.42V85.7H86.86V21.92H69.52a4.21,4.21,0,0,1-1.56.76v.76l9.59,7.71.27.2.27.24A3.29,3.29,0,0,1,79,33a1.82,1.82,0,0,1-.89,2.21,3.12,3.12,0,0,1-1.53.35Zm10.7,71.54a1.78,1.78,0,0,1,.21.27,3.93,3.93,0,0,1,.72,2.09,4,4,0,0,1-.71,2.09,2.19,2.19,0,0,1-1.73,1H51.89a2.19,2.19,0,0,1-1.73-1,3.43,3.43,0,0,1,0-4.18,2.88,2.88,0,0,1,.22-.27,1.3,1.3,0,0,1-.18-.23l0,0a3.43,3.43,0,0,1,0-4.18,2,2,0,0,1,.22-.27,3,3,0,0,1-.22-.28,3.42,3.42,0,0,1,0-4.17,3,3,0,0,1,.22-.28,2.88,2.88,0,0,1-.22-.27,3.43,3.43,0,0,1,0-4.18,2.19,2.19,0,0,1,1.73-1H81.57a2.19,2.19,0,0,1,1.73,1,3.43,3.43,0,0,1,0,4.18,2,2,0,0,1-.22.27,2.47,2.47,0,0,1,.21.27A4,4,0,0,1,84,100a4,4,0,0,1-.71,2.09,3,3,0,0,1-.22.28,2,2,0,0,1,.22.27,3.42,3.42,0,0,1,0,4.13l0,0-.22.27Zm-31.19.78c-.13,0-.3.16-.45.38a2.31,2.31,0,0,0-.43,1.2,2.28,2.28,0,0,0,.43,1.19c.15.23.32.39.45.39H81.57c.13,0,.3-.16.45-.38a1.89,1.89,0,0,0,0-2.4c-.15-.22-.32-.38-.45-.38Zm29.69-11c.13,0,.29-.17.44-.38a1.89,1.89,0,0,0,0-2.4c-.15-.22-.32-.38-.45-.38H51.89c-.13,0-.3.16-.45.38a2.34,2.34,0,0,0-.43,1.2,2.31,2.31,0,0,0,.43,1.2c.15.21.31.37.44.38h29.7Zm0,1.56H51.88c-.13,0-.29.17-.44.39A2.28,2.28,0,0,0,51,100a2.31,2.31,0,0,0,.43,1.2c.15.22.32.39.45.39H81.57c.13,0,.3-.17.45-.39a2.31,2.31,0,0,0,.43-1.2A2.28,2.28,0,0,0,82,98.82c-.15-.22-.31-.38-.44-.39h0Zm-29.68,7.89H81.57c.13,0,.3-.17.45-.39l0,0a2.34,2.34,0,0,0,.4-1.16,2.31,2.31,0,0,0-.43-1.2c-.15-.22-.32-.38-.45-.38H51.89c-.13,0-.3.16-.45.38a1.88,1.88,0,0,0,0,2.39l0,0c.15.2.31.35.43.35ZM69.13,19.07c0-.06,0-.13,0-.19a2.17,2.17,0,0,0-.35-.88,2,2,0,0,0-2.09-.83,1.85,1.85,0,0,0-1,.66,2.62,2.62,0,0,0-.54,1.24Zm-5.71,0v0a4.5,4.5,0,0,1,.93-2.26,3.46,3.46,0,0,1,2-1.24,3.57,3.57,0,0,1,3.78,1.53,3.91,3.91,0,0,1,.61,1.53,3.57,3.57,0,0,1,0,.46H86.86V3.26H46.42V19.07ZM37.52,44.53c0,3.27-.57,5.93-1.27,5.93S35,47.8,35,44.53s.56-5.94,1.26-5.94,1.27,2.66,1.27,5.94Zm0,57.32c0,3.28-.57,5.93-1.27,5.93S35,105.13,35,101.85s.56-5.93,1.26-5.93,1.27,2.65,1.27,5.93Zm6-16.15V3.26H3.26V85.7Zm43.29,2.85H46.42v26.72H83.05a3.82,3.82,0,0,0,3.81-3.81V88.55Zm-43.29,0H3.26v22.91a3.81,3.81,0,0,0,1,2.62l.07.06a3.78,3.78,0,0,0,2.69,1.13h36.5V88.55Z"/></svg>