<svg id="Layer_1" data-name="Layer 1" xmlns="http://www.w3.org/2000/svg" viewBox="0 0 122.88 115.63"><title>window-curtain</title><path d="M10.06,15.14a1.54,1.54,0,0,1,.47-.26c.6-.22,1.37-.54,2.21-.9l.09,0a39.81,39.81,0,0,1,7.6-2.56A8.67,8.67,0,0,1,19.64,9H7.54a4.07,4.07,0,0,1-3.42,1.91A4.22,4.22,0,0,1,0,6.56,4.22,4.22,0,0,1,4.12,2.25,4.11,4.11,0,0,1,7.77,4.56h12a8.75,8.75,0,0,1,.83-2.21A4.06,4.06,0,0,1,24,0a4.06,4.06,0,0,1,3.44,2.35,8.75,8.75,0,0,1,.83,2.21h16a8.38,8.38,0,0,1,.83-2.21,3.69,3.69,0,0,1,6.87,0,8.76,8.76,0,0,1,.84,2.21h15.7a8.75,8.75,0,0,1,.83-2.21,3.69,3.69,0,0,1,6.88,0,8.75,8.75,0,0,1,.83,2.21H93.55a8.76,8.76,0,0,1,.84-2.21,3.69,3.69,0,0,1,6.87,0,8.38,8.38,0,0,1,.83,2.21h13a4.11,4.11,0,0,1,3.65-2.31,4.22,4.22,0,0,1,4.12,4.31,4.22,4.22,0,0,1-4.12,4.31A4.07,4.07,0,0,1,115.34,9H102.19a9.05,9.05,0,0,1-.45,1.65,32.22,32.22,0,0,1,10.71,2.88,1.77,1.77,0,0,1,1.07,1.63v95.63a1.78,1.78,0,0,1-.87,1.53,21.82,21.82,0,0,1-4.43,2.47,12.27,12.27,0,0,1-4.4.88,57.33,57.33,0,0,1-7.93-.79,21.76,21.76,0,0,1-5.7-1.59c-5.24-2.69-6.73-1.93-9.06-.74A22.62,22.62,0,0,1,75,114.78a15.48,15.48,0,0,1-2.12.29,15,15,0,0,1-2.31,0h0a6,6,0,0,1-2.15-.67c-.55-.28-1.1-.62-1.55-.9-2.42-1.52-4.19-2.64-5.87-2.87s-3.47.33-6.26,2.08a13.93,13.93,0,0,1-2.87,1.41,11.35,11.35,0,0,1-3.68.61c-1.57,0-3.35-.84-5.24-1.74-.7-.33-1.41-.67-2-.92-6.13-2.58-7.61-1.37-9.21-.06a9.19,9.19,0,0,1-7.17,2.59,20.45,20.45,0,0,1-7.3-2.09l-1-.43a12.74,12.74,0,0,0-2.88-.79,10.85,10.85,0,0,0-2.8-.12,1.79,1.79,0,0,1-2-1.54v-.23h0V16.9a1.78,1.78,0,0,1,1.49-1.76ZM28.38,9a8.64,8.64,0,0,1-.92,2.68,18.13,18.13,0,0,1,3.61,1.79c2.29,1.38,4.47,2.68,9.89.4.59-.25,1.31-.59,2-.92s1.55-.74,2.3-1l-.13-.21A8.67,8.67,0,0,1,44.2,9ZM52.94,9a8.68,8.68,0,0,1-.94,2.7l-.07.14a14,14,0,0,1,2.82,1.39c2.79,1.75,4.64,2.31,6.26,2.08s3.45-1.34,5.87-2.87c.45-.28,1-.62,1.55-.9.23-.11.46-.22.7-.31A9.1,9.1,0,0,1,68.44,9ZM77.18,9a8.78,8.78,0,0,1-.8,2.46,25.59,25.59,0,0,1,4.85,1.91,8.57,8.57,0,0,0,3.59,1.17,12.42,12.42,0,0,0,4.75-1.37,38.54,38.54,0,0,1,4.68-1.73A9.2,9.2,0,0,1,93.45,9ZM22.59,4.56h2.84a4.31,4.31,0,0,0-.38-.87c-.32-.58-.7-.94-1-.94s-.72.36-1,.94a4.31,4.31,0,0,0-.38.87Zm24.55,0H50a5,5,0,0,0-.38-.87c-.33-.58-.7-.94-1-.94s-.72.36-1,.94a5.84,5.84,0,0,0-.38.87Zm24.25,0h2.84a5,5,0,0,0-.37-.87c-.33-.58-.71-.94-1-.94s-.71.36-1,.94a4.31,4.31,0,0,0-.38.87Zm25,0h2.85a5.84,5.84,0,0,0-.38-.87c-.33-.58-.71-.94-1.05-.94s-.71.36-1,.94a5,5,0,0,0-.38.87Zm3,4.4H96.26a5.58,5.58,0,0,0,.52,1.36,2.83,2.83,0,0,0,.31.46c.51-.07,1-.13,1.6-.17l.18-.29A6,6,0,0,0,99.39,9Zm-25,0H71.24a5.59,5.59,0,0,0,.53,1.36,2.52,2.52,0,0,0,.3.45c.28,0,.55,0,.82,0l.6,0a2.88,2.88,0,0,0,.37-.53A6,6,0,0,0,74.38,9ZM50.13,9H47a6,6,0,0,0,.52,1.36,2.19,2.19,0,0,0,.73.85l.6,0a2.16,2.16,0,0,0,.76-.87A5.58,5.58,0,0,0,50.13,9ZM25.58,9H22.44A5.59,5.59,0,0,0,23,10.32a2.49,2.49,0,0,0,.56.73l.94,0a2.5,2.5,0,0,0,.58-.75A5.59,5.59,0,0,0,25.58,9ZM110,89.22V16.3c-9.56-3.87-14.9-1.62-19,.11-2.2.92-4.1,1.72-6.24,1.65a11.46,11.46,0,0,1-5-1.53,21,21,0,0,0-5.37-2,11.72,11.72,0,0,0-1.62-.22,9.87,9.87,0,0,0-1.63,0h-.15a2.68,2.68,0,0,0-.87.32,12.43,12.43,0,0,0-1.24.71C66,17.18,63.93,18.46,61.5,18.8s-5-.35-8.64-2.6a10.28,10.28,0,0,0-2.13-1,7.62,7.62,0,0,0-2.53-.42,12.15,12.15,0,0,0-3.72,1.39c-.66.31-1.35.64-2.14,1-7.08,3-10,1.23-13.1-.62a9.92,9.92,0,0,0-5.95-1.87c-3.1.12-6.43,1.51-9.08,2.61l-.09.05c-.69.29-1.34.56-2,.8v89.48a16.89,16.89,0,0,1,1.78.19,16.17,16.17,0,0,1,3.7,1l1.06.45a17.84,17.84,0,0,0,6,1.8,6.21,6.21,0,0,0,4.77-1.77c2.46-2,4.74-3.9,12.85-.47.8.33,1.48.66,2.14,1a12.15,12.15,0,0,0,3.72,1.39,7.62,7.62,0,0,0,2.53-.42,10.28,10.28,0,0,0,2.13-1c3.6-2.25,6.16-2.94,8.64-2.6s4.49,1.63,7.28,3.39a12.43,12.43,0,0,0,1.24.71,2.68,2.68,0,0,0,.87.32h0a10.6,10.6,0,0,0,1.78,0,10.37,10.37,0,0,0,1.62-.22,19.57,19.57,0,0,0,5.23-2c3.32-1.69,5.43-2.77,12.3.76a19.12,19.12,0,0,0,4.67,1.23,52,52,0,0,0,7.32.75,8.61,8.61,0,0,0,3.12-.64,16.75,16.75,0,0,0,3-1.62V89.22ZM98.42,78.74a1.38,1.38,0,0,1,2.75,0V97.59a1.38,1.38,0,0,1-2.75,0V78.74Zm0-57.9a1.38,1.38,0,0,1,2.75,0v51a1.38,1.38,0,0,1-2.75,0v-51ZM71.76,88.09a1.38,1.38,0,0,1,2.75,0v13.63a1.38,1.38,0,0,1-2.75,0V88.09Zm0-61.72a1.38,1.38,0,0,1,2.75,0V78.9a1.38,1.38,0,0,1-2.75,0V26.37ZM47,68.61a1.38,1.38,0,1,1,2.75,0V87.45a1.38,1.38,0,1,1-2.75,0V68.61Zm0-46.73a1.38,1.38,0,1,1,2.75,0V61.72a1.38,1.38,0,0,1-2.75,0V21.88ZM22.57,67.7a1.38,1.38,0,0,1,2.75,0V97a1.38,1.38,0,0,1-2.75,0V67.7Zm0-36.51a1.38,1.38,0,0,1,2.75,0V60.81a1.38,1.38,0,1,1-2.75,0V31.19Z"/></svg>