<svg id="Layer_1" data-name="Layer 1" xmlns="http://www.w3.org/2000/svg" viewBox="0 0 122.88 112.77"><defs><style>.cls-1{fill-rule:evenodd;}</style></defs><title>small-table</title><path class="cls-1" d="M10.19,110a177.9,177.9,0,0,1,6.06-43.21,166.45,166.45,0,0,1,11-29.37H7.53A7.54,7.54,0,0,1,0,29.88V7.53A7.53,7.53,0,0,1,7.53,0H115.35a7.53,7.53,0,0,1,7.53,7.53V29.88a7.54,7.54,0,0,1-7.53,7.54H95.62a166.45,166.45,0,0,1,11,29.37A177.9,177.9,0,0,1,112.69,110h1.66a.48.48,0,0,1,.48.48v1.8a.49.49,0,0,1-.48.49H99a.49.49,0,0,1-.48-.49v-1.8A.48.48,0,0,1,99,110h1.4a166.88,166.88,0,0,0-2.15-23.71H24.62A166.88,166.88,0,0,0,22.47,110h1.4a.48.48,0,0,1,.48.48v1.8a.49.49,0,0,1-.48.49H8.53a.49.49,0,0,1-.48-.49v-1.8a.48.48,0,0,1,.48-.48ZM41.06,37.42A152.91,152.91,0,0,0,28.15,70c-.36,1.33-.71,2.66-1,4H95.76c-.32-1.34-.67-2.67-1-4A152.91,152.91,0,0,0,81.82,37.42ZM7.53,7.53H115.35V29.88H7.53V7.53Z"/></svg>