<svg xmlns="http://www.w3.org/2000/svg" shape-rendering="geometricPrecision" text-rendering="geometricPrecision" image-rendering="optimizeQuality" fill-rule="evenodd" clip-rule="evenodd" viewBox="0 0 503 511.72"><path fill-rule="nonzero" d="M250.58 473.99c10.41 0 18.86 8.45 18.86 18.86 0 10.42-8.45 18.87-18.86 18.87-69.2 0-131.85-28.05-177.19-73.39S0 330.33 0 261.14c0-69.2 28.05-131.85 73.39-177.19 45.34-45.35 107.99-73.39 177.19-73.39 24.01 0 47.38 3.44 69.65 9.88a248.535 248.535 0 0 1 50.81 20.99l-5.44-11.28c-5.02-10.47-.61-23.05 9.86-28.07 10.47-5.03 23.04-.62 28.07 9.85l25.44 52.8a21.1 21.1 0 0 1 1.88 6.3c2.54 10.05-2.71 20.66-12.59 24.6l-54.41 21.78c-10.76 4.28-22.96-.96-27.24-11.74-4.27-10.76.99-22.95 11.74-27.24l6.86-2.74c-14.23-8.05-29.46-14.52-45.45-19.13-18.62-5.38-38.48-8.27-59.18-8.27-58.77 0-111.99 23.83-150.51 62.35-38.5 38.5-62.33 91.73-62.33 150.5 0 58.77 23.83 111.99 62.33 150.5 38.52 38.52 91.74 62.35 150.51 62.35zm-76.22-196.08V175.44h-21.41v-22.49l25.4-10.88h31.19v135.84h-35.18zm-28.53 102.06 9.14-77.15h18.89l15.89 54.2 15.89-54.2h18.69l9.23 77.15h-19.41l-4.95-41.6-10.21 41.6h-18.9l-10.07-40.74-4.78 40.74h-19.41zm99.68 0v-77.15h20.14v77.15h-20.14zm34.16 0v-77.15h15.99l27.1 42.98v-42.98h20.14v77.15h-15.99l-27.1-42.99v42.99h-20.14zM270.85 279c-8.23 0-15.09-1.45-20.59-4.35-5.5-2.91-9.58-7.11-12.24-12.61-2.66-5.5-3.99-12.06-3.99-19.68v-61.84c0-8.34 1.42-15.36 4.26-21.04 2.85-5.69 7.05-10.01 12.61-12.97 5.56-2.96 12.27-4.44 20.13-4.44h29.38c7.62 0 14.06 1.48 19.32 4.44 5.26 2.96 9.25 7.28 11.97 12.97 2.72 5.68 4.08 12.7 4.08 21.04v61.84c0 11.37-3.05 20.31-9.16 26.84-6.11 6.53-14.9 9.8-26.39 9.8h-29.38zm8.7-31.56h10.88c3.27 0 5.78-.82 7.53-2.45 1.75-1.63 2.63-4.32 2.63-8.07v-52.78c0-4.23-.85-7.04-2.53-8.43-1.7-1.39-3.75-2.09-6.17-2.09h-13.6c-3.15 0-5.45.85-6.9 2.54-1.45 1.69-2.17 4.36-2.17 7.98v52.6c0 3.87.84 6.62 2.54 8.25 1.69 1.63 4.29 2.45 7.79 2.45zm42.08 212.55c-22.37 7.46-16.66 42.92 9.7 40.41 1.45-.21 2.72-.53 4.11-.99 13.51-4.37 29.05-11.75 41.37-18.85 21.81-12.62 6.84-46.27-17.65-37.7-1.03.41-2.02.84-3 1.41-10.6 5.96-22.96 11.98-34.53 15.72zm92.03-64.35c-14.67 17.81 7.14 43.16 27.08 30.98 2.21-1.43 3.71-2.68 5.39-4.71 9.66-11.98 17.93-24.27 25.35-37.76 11.52-21.88-17.39-42.77-34.61-23.09-.8 1.05-1.37 1.92-2.05 3.09-6.34 11.36-12.99 21.36-21.16 31.49zm45.23-103.31c-3.3 24.22 30.41 33.71 40.07 10.77.57-1.63 1.02-2.98 1.26-4.71 2.2-14.89 3.17-30.32 2.63-45.36-1.17-25.76-39.14-27.59-41.72-.48l.02 3.4c.28 12.26-.46 24.25-2.26 36.38zm-13.62-111.87c6.76 16.89 31.35 17.22 38.43.4 2.43-4.85 2.17-11.35.18-16.32-5.83-14.16-12.85-27.4-21.07-40.31-14.67-21.99-48.51-2.68-35.67 21.7l.56.92c6.82 10.49 12.81 22.04 17.57 33.61z"/></svg>