<svg id="Layer_1" data-name="Layer 1" xmlns="http://www.w3.org/2000/svg" viewBox="0 0 122.88 97.58"><defs><style>.cls-1{fill-rule:evenodd;}</style></defs><title>13-times</title><path class="cls-1" d="M71.43,25.08a4.31,4.31,0,0,1,4.82-3.75h0A4.32,4.32,0,0,1,80,26.16L77.16,48.74,92.78,60.88a4.33,4.33,0,0,1,.77,6.06,4.38,4.38,0,0,1-2.87,1.64,4.27,4.27,0,0,1-3.18-.87L70,54.12a4.29,4.29,0,0,1-1.74-4l3.15-25ZM80.18.39A48.78,48.78,0,0,1,104,87.29l-.06,0a48.75,48.75,0,0,1-68.39-8.58l0,0a49.53,49.53,0,0,1-5.48-8.86,40.36,40.36,0,0,0,9.08-1.3,39.67,39.67,0,0,0,3.25,4.87A40.09,40.09,0,1,0,64.67,9.79a40.92,40.92,0,0,0-5.26-7.52c.59-.19,1.19-.36,1.79-.53a48.6,48.6,0,0,1,19-1.35ZM0,31V27.3A28.92,28.92,0,0,1,28.85.22h0A28.93,28.93,0,1,1,0,31Zm27.39,8.65H11.91V34.09h5.51v-9.2l-5.51.41V19.75L19,17.94h4.89V34.09h3.47v5.56ZM39.24,25.58V23.32a19,19,0,0,0-3-.17,23,23,0,0,0-5.17.73l-.81-5.14a22.1,22.1,0,0,1,7.31-1.32,16.37,16.37,0,0,1,4.39.42,5.21,5.21,0,0,1,2,1,5.42,5.42,0,0,1,1.43,4.1,5.37,5.37,0,0,1-2.57,5v.18a5.2,5.2,0,0,1,3.06,5.17,8.57,8.57,0,0,1-.51,3.14,5.45,5.45,0,0,1-1.28,2,5.65,5.65,0,0,1-2.05,1.13,18.64,18.64,0,0,1-5.3.59,26.57,26.57,0,0,1-6.86-.91l.87-5.73a19.25,19.25,0,0,0,5,.8,25,25,0,0,0,3.5-.21V31.9l-5.33-.59v-5l5.33-.7Z"/></svg>