<svg id="Layer_1" data-name="Layer 1" xmlns="http://www.w3.org/2000/svg" viewBox="0 0 122.88 97.58"><defs><style>.cls-1{fill-rule:evenodd;}</style></defs><title>15-times</title><path class="cls-1" d="M71.43,25.08a4.31,4.31,0,0,1,4.82-3.75h0A4.32,4.32,0,0,1,80,26.16L77.16,48.74,92.78,60.88a4.33,4.33,0,0,1,.77,6.06,4.38,4.38,0,0,1-2.87,1.64,4.27,4.27,0,0,1-3.18-.87L70,54.12a4.29,4.29,0,0,1-1.74-4l3.15-25ZM80.18.39A48.78,48.78,0,0,1,104,87.29l-.06,0a48.75,48.75,0,0,1-68.39-8.58l0,0a49.53,49.53,0,0,1-5.48-8.86,40.36,40.36,0,0,0,9.08-1.3,39.67,39.67,0,0,0,3.25,4.87A40.09,40.09,0,1,0,64.67,9.79a40.92,40.92,0,0,0-5.26-7.52c.59-.19,1.19-.36,1.79-.53a48.6,48.6,0,0,1,19-1.35ZM0,31V27.3A28.92,28.92,0,0,1,28.85.22h0A28.93,28.93,0,1,1,0,31Zm27.31,8.75H11.83V34.19h5.51V25l-5.51.41V19.85L19,18h4.89V34.19h3.47v5.56Zm2.35-.39.87-5a19.65,19.65,0,0,0,5.15.8,25.85,25.85,0,0,0,3.64-.21V32.49L37,32.21q-3.83-.45-5.21-1.48T30.4,27.07c0-.25.11-3.26.31-9H44.79l-.46,5.25L37,22.81V25.3l1.83.24q4.05.55,5.6,2.24A6.7,6.7,0,0,1,46,32.49a11.36,11.36,0,0,1-.53,3.7,6.59,6.59,0,0,1-1.25,2.29,4.69,4.69,0,0,1-2.06,1.2,11.84,11.84,0,0,1-2.33.5c-.68.06-1.57.09-2.68.09a28.94,28.94,0,0,1-7.46-.91Z"/></svg>