<svg id="Layer_1" data-name="Layer 1" xmlns="http://www.w3.org/2000/svg" viewBox="0 0 122.88 97.58"><defs><style>.cls-1{fill-rule:evenodd;}</style></defs><title>18-times</title><path class="cls-1" d="M80.18.39A48.78,48.78,0,0,1,104,87.29l-.06,0a48.75,48.75,0,0,1-68.39-8.58l0,0a49.53,49.53,0,0,1-5.48-8.86,40.36,40.36,0,0,0,9.08-1.3,39.67,39.67,0,0,0,3.25,4.87A40.09,40.09,0,1,0,64.67,9.79a40.92,40.92,0,0,0-5.26-7.52c.59-.19,1.19-.36,1.79-.53a48.6,48.6,0,0,1,19-1.35ZM71.43,25.08a4.31,4.31,0,0,1,4.82-3.75h0A4.32,4.32,0,0,1,80,26.16L77.16,48.74,92.78,60.88a4.33,4.33,0,0,1,.77,6.06,4.38,4.38,0,0,1-2.87,1.64,4.27,4.27,0,0,1-3.18-.87L70,54.12a4.29,4.29,0,0,1-1.74-4l3.15-25ZM0,31V27.3A28.92,28.92,0,0,1,28.85.22h0A28.93,28.93,0,1,1,0,31Zm27.6,8.65H12.13V34.09h5.51v-9.2l-5.51.41V19.75l7.12-1.81h4.89V34.09H27.6v5.56ZM33.76,18a11.64,11.64,0,0,1,3.71-.54,11.71,11.71,0,0,1,3.72.54,5.59,5.59,0,0,1,2.72,2A6,6,0,0,1,45,23.71a6.11,6.11,0,0,1-2.08,5V29a5,5,0,0,1,1.95,1.94,5.44,5.44,0,0,1,.77,2.82q0,6.45-8.2,6.46t-8.2-6.46a5.45,5.45,0,0,1,.78-2.82A5,5,0,0,1,32,29v-.24a6,6,0,0,1-2.08-5A6,6,0,0,1,31,20a5.59,5.59,0,0,1,2.72-2ZM39,32.67l-2.13-1.15a1.74,1.74,0,0,0-.62-.21c-.23,0-.34.2-.34.59v3H37.2a2.72,2.72,0,0,0,1.42-.26c.27-.17.4-.57.4-1.2v-.79ZM35.93,25l2,1.18a1,1,0,0,0,.46.14.55.55,0,0,0,.62-.63V22.84H37.75a2.72,2.72,0,0,0-1.42.26c-.27.17-.4.57-.4,1.2V25Z"/></svg>