<svg id="Layer_1" data-name="Layer 1" xmlns="http://www.w3.org/2000/svg" viewBox="0 0 122.88 97.58"><defs><style>.cls-1{fill-rule:evenodd;}</style></defs><title>20-times</title><path class="cls-1" d="M80.18.39A48.78,48.78,0,0,1,104,87.29l-.06,0a48.75,48.75,0,0,1-68.39-8.58l0,0a49.53,49.53,0,0,1-5.48-8.86,40.36,40.36,0,0,0,9.08-1.3,39.67,39.67,0,0,0,3.25,4.87A40.09,40.09,0,1,0,64.67,9.79a40.92,40.92,0,0,0-5.26-7.52c.59-.19,1.19-.36,1.79-.53a48.6,48.6,0,0,1,19-1.35ZM0,31V27.3A28.92,28.92,0,0,1,28.85.22h0A28.93,28.93,0,1,1,0,31Zm12.61-6.73L11.8,19.1a24.11,24.11,0,0,1,7.77-1.32c1,0,1.89,0,2.59.1a8.65,8.65,0,0,1,2.15.53,4.21,4.21,0,0,1,1.76,1.14,7.5,7.5,0,0,1,1.49,5.11q0,3.43-1.74,5.07c-1.15,1.08-3.59,2.33-7.3,3.75v1h8.73V40H11.37V35.67A10.78,10.78,0,0,1,12,32a7.62,7.62,0,0,1,2-2.43A9.9,9.9,0,0,1,16.21,28l2.67-1.37c.83-.43,1.51-.78,2-1.06V23.68a22,22,0,0,0-2.57-.17,22.22,22.22,0,0,0-5.72.76ZM31.44,37.63a10.16,10.16,0,0,1-1.22-3.49,29.92,29.92,0,0,1-.34-5,29.87,29.87,0,0,1,.34-5,10.16,10.16,0,0,1,1.22-3.49A5.19,5.19,0,0,1,34,18.47a11,11,0,0,1,4.19-.69,10.9,10.9,0,0,1,4.18.69,5.32,5.32,0,0,1,2.54,2.21,10.16,10.16,0,0,1,1.22,3.49,32.7,32.7,0,0,1,.32,5,32.14,32.14,0,0,1-.32,5,10.18,10.18,0,0,1-1.22,3.48,5.3,5.3,0,0,1-2.54,2.2,10.69,10.69,0,0,1-4.18.7,10.75,10.75,0,0,1-4.19-.7,5.17,5.17,0,0,1-2.54-2.2Zm4.81-12.42v9.73h1.3a4.1,4.1,0,0,0,2-.33c.37-.22.56-.73.56-1.51V23.37H38.6a3.9,3.9,0,0,0-1.85.31c-.33.21-.5.72-.5,1.53Zm35.18-.13a4.31,4.31,0,0,1,4.82-3.75h0A4.32,4.32,0,0,1,80,26.16L77.16,48.74,92.78,60.88a4.33,4.33,0,0,1,.77,6.06,4.38,4.38,0,0,1-2.87,1.64,4.27,4.27,0,0,1-3.18-.87L70,54.12a4.29,4.29,0,0,1-1.74-4l3.15-25Z"/></svg>