<svg id="Layer_1" data-name="Layer 1" xmlns="http://www.w3.org/2000/svg" viewBox="0 0 122.88 97.58"><defs><style>.cls-1{fill-rule:evenodd;}</style></defs><title>22-times</title><path class="cls-1" d="M80.18.39A48.78,48.78,0,0,1,104,87.29l-.06,0a48.75,48.75,0,0,1-68.39-8.58l0,0a49.53,49.53,0,0,1-5.48-8.86,40.36,40.36,0,0,0,9.08-1.3,39.67,39.67,0,0,0,3.25,4.87A40.09,40.09,0,1,0,64.67,9.79a40.92,40.92,0,0,0-5.26-7.52c.59-.19,1.19-.36,1.79-.53a48.6,48.6,0,0,1,19-1.35ZM0,31V27.3A28.92,28.92,0,0,1,28.85.22h0A28.93,28.93,0,1,1,0,31Zm12.76-7.09L12,18.74a24.11,24.11,0,0,1,7.77-1.32c1,0,1.89,0,2.58.1a8.54,8.54,0,0,1,2.15.53,4.3,4.3,0,0,1,1.76,1.14c1,1.11,1.49,2.81,1.49,5.11s-.58,4-1.73,5.07-3.59,2.34-7.31,3.75v1H27.4v5.56H11.52V35.31a10.78,10.78,0,0,1,.65-3.72,7.62,7.62,0,0,1,1.95-2.43,10,10,0,0,1,2.25-1.53L19,26.26l2-1.06V23.32a22.12,22.12,0,0,0-2.57-.17,22.68,22.68,0,0,0-5.73.76Zm18.57,0-.8-5.17a24.1,24.1,0,0,1,7.76-1.32c1,0,1.9,0,2.59.1a8.54,8.54,0,0,1,2.15.53,4.3,4.3,0,0,1,1.76,1.14,7.5,7.5,0,0,1,1.49,5.11q0,3.43-1.73,5.07c-1.16,1.09-3.59,2.34-7.31,3.75v1H46v5.56H30.09V35.31a10.78,10.78,0,0,1,.65-3.72,7.62,7.62,0,0,1,1.95-2.43,10,10,0,0,1,2.25-1.53l2.66-1.37c.83-.43,1.51-.78,2-1.06V23.32a21.82,21.82,0,0,0-2.56-.17,22.68,22.68,0,0,0-5.73.76Zm40.1,1.17a4.31,4.31,0,0,1,4.82-3.75h0A4.32,4.32,0,0,1,80,26.16L77.16,48.74,92.78,60.88a4.33,4.33,0,0,1,.77,6.06,4.38,4.38,0,0,1-2.87,1.64,4.27,4.27,0,0,1-3.18-.87L70,54.12a4.29,4.29,0,0,1-1.74-4l3.15-25Z"/></svg>