<svg id="Layer_1" data-name="Layer 1" xmlns="http://www.w3.org/2000/svg" viewBox="0 0 120.88 122.88"><title>26-seconds</title><path d="M60.22,113.81a4.54,4.54,0,0,1,0,9.07A60.23,60.23,0,1,1,89.71,10.16l-1.26-3.3a5.06,5.06,0,1,1,9.45-3.6l5,13.15a5,5,0,0,1,.32,1.55,5,5,0,0,1-3.51,5.64L86.27,27.72a5,5,0,0,1-2.92-9.65l1.28-.39a50.55,50.55,0,0,0-10.19-4.19A51.17,51.17,0,1,0,60.22,113.81ZM42.78,91.21c-.6,0-1.18,0-1.75-.06s-1.12-.09-1.67-.16-1.08-.15-1.58-.24-1-.2-1.46-.33V86.26c.61,0,1.27.1,2,.14l2.17.08,2,0A6.82,6.82,0,0,0,44,86.37a1.89,1.89,0,0,0,.9-.43,1.13,1.13,0,0,0,.29-.81V84.8a1,1,0,0,0-.42-.89,1.61,1.61,0,0,0-1-.3H42.35a7.17,7.17,0,0,1-4.76-1.38Q36,80.85,36,77.61v-.89a5.45,5.45,0,0,1,1.78-4.45,7.89,7.89,0,0,1,5.14-1.47,22.61,22.61,0,0,1,2.39.12c.75.08,1.45.18,2.11.3s1.24.24,1.77.36v4.17c-.83-.08-1.76-.13-2.8-.18s-2-.07-2.82-.07a7.88,7.88,0,0,0-1.36.11,1.76,1.76,0,0,0-.92.43,1.31,1.31,0,0,0-.32.95v.27a1.25,1.25,0,0,0,.43,1,2.11,2.11,0,0,0,1.33.35h1.78a6.38,6.38,0,0,1,3.15.71,4.67,4.67,0,0,1,1.89,2,6,6,0,0,1,.64,2.8V85a7.08,7.08,0,0,1-.9,3.92,4.34,4.34,0,0,1-2.54,1.82,14.15,14.15,0,0,1-3.94.48Zm16.15,0a10.92,10.92,0,0,1-1.56-.14,5.41,5.41,0,0,1-1.75-.59,3.72,3.72,0,0,1-1.42-1.42,5.17,5.17,0,0,1-.57-2.64V75.93a5.63,5.63,0,0,1,.46-2.43A4,4,0,0,1,55.28,72a4.7,4.7,0,0,1,1.62-.79A7,7,0,0,1,58.63,71c1.51,0,2.82,0,3.91.07s2,.09,2.83.15,1.51.12,2.13.19V75.8H60.25a1.51,1.51,0,0,0-1,.3,1.08,1.08,0,0,0-.36.89v1.68l7.27.27V83.1l-7.27.27v1.51a1.84,1.84,0,0,0,.15.8,1,1,0,0,0,.42.46,1.21,1.21,0,0,0,.6.15H67.5v4.43c-.78.11-1.66.2-2.65.27s-2,.13-3,.16-2,.06-2.89.06Zm18.9,0a10.62,10.62,0,0,1-3-.41,5.06,5.06,0,0,1-2.33-1.49A7.29,7.29,0,0,1,71,86.21a22.24,22.24,0,0,1-.52-5.27A20.22,20.22,0,0,1,71,75.8a7.51,7.51,0,0,1,1.53-3.09,5.2,5.2,0,0,1,2.34-1.52,10,10,0,0,1,3-.42,21.46,21.46,0,0,1,3,.18,18.67,18.67,0,0,1,2.19.42,9.78,9.78,0,0,1,1.45.48v4.08c-.35-.07-.79-.14-1.33-.21s-1.15-.13-1.85-.18-1.44-.06-2.26-.06a5.74,5.74,0,0,0-1.55.18,1.82,1.82,0,0,0-1,.76,4.17,4.17,0,0,0-.56,1.66A20.28,20.28,0,0,0,75.7,81a22.52,22.52,0,0,0,.13,2.7,4.41,4.41,0,0,0,.49,1.69,1.92,1.92,0,0,0,1,.87,4.89,4.89,0,0,0,1.72.25c1.37,0,2.48,0,3.34-.06s1.53-.11,2-.18v4.08a10,10,0,0,1-1.58.46,17.32,17.32,0,0,1-2.13.3c-.81.07-1.77.11-2.89.11ZM35.8,65V58.28L45.84,48a21.49,21.49,0,0,0,1.6-1.78,8.47,8.47,0,0,0,1-1.61A3.81,3.81,0,0,0,48.83,43a3,3,0,0,0-.34-1.5,1.94,1.94,0,0,0-1.07-.84,5.34,5.34,0,0,0-1.85-.26H36.32v-6.7c1.42-.31,3-.61,4.76-.89a40.38,40.38,0,0,1,6.1-.41,14.34,14.34,0,0,1,6,1,6.28,6.28,0,0,1,3.13,3.09,12,12,0,0,1,.93,5,11.86,11.86,0,0,1-2.19,7.12,22.6,22.6,0,0,1-2.59,3l-5.56,5.69H58.13V65Zm35.33.26a12.72,12.72,0,0,1-4.48-.72,6.83,6.83,0,0,1-3.17-2.45,12.46,12.46,0,0,1-1.89-4.8A39.39,39.39,0,0,1,61,49.54a34.12,34.12,0,0,1,.85-8.32A12.71,12.71,0,0,1,64.31,36a9.05,9.05,0,0,1,4-2.74,16.67,16.67,0,0,1,5.35-.8c1.53,0,3,.07,4.45.2a22.12,22.12,0,0,1,3.89.67V40H74.65c-2,0-3.34.49-4.11,1.48a6.61,6.61,0,0,0-1.15,4.17A8.45,8.45,0,0,1,71,45a11.66,11.66,0,0,1,1.89-.26c.72,0,1.62-.06,2.69-.06a10.6,10.6,0,0,1,5.2,1,5.34,5.34,0,0,1,2.45,2.83,11.25,11.25,0,0,1,.65,3.95v4.69a9.1,9.1,0,0,1-1,4.59A6.1,6.1,0,0,1,80,64.4a10.78,10.78,0,0,1-4.39.83Zm1.74-7.56h.74a2,2,0,0,0,1.12-.26,1.47,1.47,0,0,0,.57-.76,3.62,3.62,0,0,0,.17-1.2V54.23a4.19,4.19,0,0,0-.19-1.45,1.27,1.27,0,0,0-.7-.72,3.9,3.9,0,0,0-1.45-.21H69.39a20.3,20.3,0,0,0,.17,2.86,4.75,4.75,0,0,0,.59,1.78,2.26,2.26,0,0,0,1.09.92,4.6,4.6,0,0,0,1.63.26Zm38.35-27.91c-3.52-5.29-11.65-.65-8.57,5.21l.14.22A50,50,0,0,1,107,43.27a5,5,0,1,0,9.28-3.83,61.08,61.08,0,0,0-5.07-9.68ZM77.27,110.47a5,5,0,1,0,3.36,9.46,60.29,60.29,0,0,0,9.94-4.55,5,5,0,0,0-5-8.7,55.52,55.52,0,0,1-8.3,3.79ZM99.4,95c-3.66,4.44,2.09,10.86,7.08,7a5.37,5.37,0,0,0,.71-.72,64.19,64.19,0,0,0,6.11-9.06,5,5,0,0,0-8.48-5.34A77.5,77.5,0,0,1,99.4,95Zm10.88-24.81a5,5,0,0,0,9.63,2.58,4.83,4.83,0,0,0,.3-1.13,60.28,60.28,0,0,0,.64-10.9c-.28-6.19-9.41-6.63-10-.12v.82a52.28,52.28,0,0,1-.55,8.75Z"/></svg>