<svg id="Layer_1" data-name="Layer 1" xmlns="http://www.w3.org/2000/svg" viewBox="0 0 120.88 122.88"><title>29-seconds</title><path d="M60.22,113.81a4.54,4.54,0,0,1,0,9.07A60.23,60.23,0,1,1,89.71,10.16l-1.26-3.3a5.06,5.06,0,1,1,9.45-3.6l5,13.15a5,5,0,0,1,.32,1.55,5,5,0,0,1-3.51,5.64L86.27,27.72a5,5,0,0,1-2.92-9.65l1.28-.39a50.55,50.55,0,0,0-10.19-4.19A51.17,51.17,0,1,0,60.22,113.81ZM42.37,91.21c-.6,0-1.18,0-1.75-.06S39.5,91.06,39,91s-1.08-.15-1.58-.24-1-.2-1.46-.33V86.26c.61,0,1.27.1,2,.14l2.16.08,2.05,0a6.82,6.82,0,0,0,1.48-.13,1.81,1.81,0,0,0,.89-.43,1.09,1.09,0,0,0,.3-.81V84.8a1,1,0,0,0-.42-.89,1.65,1.65,0,0,0-1-.3H41.93a7.14,7.14,0,0,1-4.75-1.38c-1.09-.92-1.62-2.46-1.62-4.62v-.89a5.45,5.45,0,0,1,1.78-4.45,7.88,7.88,0,0,1,5.13-1.47,22.67,22.67,0,0,1,2.4.12c.74.08,1.45.18,2.1.3s1.25.24,1.77.36v4.17c-.82-.08-1.76-.13-2.79-.18s-2-.07-2.83-.07a7.84,7.84,0,0,0-1.35.11,1.76,1.76,0,0,0-.92.43,1.31,1.31,0,0,0-.32.95v.27a1.25,1.25,0,0,0,.43,1,2.1,2.1,0,0,0,1.32.35h1.79a6.38,6.38,0,0,1,3.15.71,4.67,4.67,0,0,1,1.89,2,6,6,0,0,1,.63,2.8V85a7.09,7.09,0,0,1-.89,3.92,4.34,4.34,0,0,1-2.54,1.82,14.2,14.2,0,0,1-3.94.48Zm16.15,0A10.92,10.92,0,0,1,57,91.07a5.41,5.41,0,0,1-1.75-.59,3.65,3.65,0,0,1-1.42-1.42,5.17,5.17,0,0,1-.57-2.64V75.93a5.63,5.63,0,0,1,.46-2.43A3.91,3.91,0,0,1,54.87,72a4.53,4.53,0,0,1,1.62-.79A7,7,0,0,1,58.22,71c1.51,0,2.81,0,3.9.07s2,.09,2.84.15,1.51.12,2.12.19V75.8H59.84a1.56,1.56,0,0,0-1,.3,1.11,1.11,0,0,0-.35.89v1.68l7.27.27V83.1l-7.27.27v1.51a1.84,1.84,0,0,0,.15.8,1,1,0,0,0,.42.46,1.2,1.2,0,0,0,.59.15h7.46v4.43c-.77.11-1.65.2-2.65.27s-2,.13-3,.16-2,.06-2.89.06Zm18.9,0a10.62,10.62,0,0,1-3-.41A5.06,5.06,0,0,1,72,89.31a7.18,7.18,0,0,1-1.48-3.1A21.73,21.73,0,0,1,70,80.94a20.22,20.22,0,0,1,.54-5.14,7.39,7.39,0,0,1,1.53-3.09,5.2,5.2,0,0,1,2.34-1.52,10,10,0,0,1,3-.42,21.56,21.56,0,0,1,3,.18,18.67,18.67,0,0,1,2.19.42,10.2,10.2,0,0,1,1.45.48v4.08c-.35-.07-.79-.14-1.33-.21s-1.16-.13-1.85-.18-1.45-.06-2.26-.06a5.74,5.74,0,0,0-1.55.18,1.88,1.88,0,0,0-1,.76,4.34,4.34,0,0,0-.55,1.66A18.91,18.91,0,0,0,75.29,81a22.52,22.52,0,0,0,.13,2.7,4.41,4.41,0,0,0,.49,1.69,1.92,1.92,0,0,0,1,.87,4.85,4.85,0,0,0,1.72.25q2.06,0,3.33-.06c.86,0,1.54-.11,2-.18v4.08a10.16,10.16,0,0,1-1.59.46,17.14,17.14,0,0,1-2.12.3c-.81.07-1.77.11-2.89.11ZM35.8,65V58.28L45.84,48a21.49,21.49,0,0,0,1.6-1.78,8.47,8.47,0,0,0,1-1.61A3.81,3.81,0,0,0,48.83,43a3,3,0,0,0-.34-1.5,1.94,1.94,0,0,0-1.07-.84,5.34,5.34,0,0,0-1.85-.26H36.32v-6.7c1.42-.31,3-.61,4.76-.89a40.38,40.38,0,0,1,6.1-.41,14.34,14.34,0,0,1,6,1,6.28,6.28,0,0,1,3.13,3.09,12,12,0,0,1,.93,5,11.86,11.86,0,0,1-2.19,7.12,22.6,22.6,0,0,1-2.59,3l-5.56,5.69H58.13V65Zm35.28.26A42.25,42.25,0,0,1,66.65,65a28.2,28.2,0,0,1-3.91-.65V57.67h7.35c2,0,3.33-.49,4.1-1.48A6.63,6.63,0,0,0,75.34,52a9.75,9.75,0,0,1-3.52.85c-.72,0-1.62.06-2.69.06a10.44,10.44,0,0,1-5.17-1,5.49,5.49,0,0,1-2.46-2.83,11,11,0,0,1-.67-4V40.42a9.07,9.07,0,0,1,1-4.59,6.1,6.1,0,0,1,2.89-2.58,10.81,10.81,0,0,1,4.39-.83h4.48a12.66,12.66,0,0,1,4.47.72,6.72,6.72,0,0,1,3.17,2.45,12.46,12.46,0,0,1,1.89,4.8,39.39,39.39,0,0,1,.63,7.72,34.68,34.68,0,0,1-.84,8.32,13,13,0,0,1-2.5,5.26,9.08,9.08,0,0,1-4,2.74,16.67,16.67,0,0,1-5.35.8Zm.53-19.43h3.73a18.89,18.89,0,0,0-.17-2.86,4.7,4.7,0,0,0-.59-1.79,2.27,2.27,0,0,0-1.06-.91A4.6,4.6,0,0,0,71.87,40h-.74a2.1,2.1,0,0,0-1.11.26,1.5,1.5,0,0,0-.59.74,3.81,3.81,0,0,0-.17,1.22v1.21a4.28,4.28,0,0,0,.19,1.44,1.31,1.31,0,0,0,.72.74,4,4,0,0,0,1.44.21Zm39.61-16c-3.52-5.29-11.65-.65-8.57,5.21l.14.22A50,50,0,0,1,107,43.27a5,5,0,1,0,9.28-3.83,61.08,61.08,0,0,0-5.07-9.68ZM77.27,110.47a5,5,0,1,0,3.36,9.46,60.29,60.29,0,0,0,9.94-4.55,5,5,0,0,0-5-8.7,55.52,55.52,0,0,1-8.3,3.79ZM99.4,95c-3.66,4.44,2.09,10.86,7.08,7a5.37,5.37,0,0,0,.71-.72,64.19,64.19,0,0,0,6.11-9.06,5,5,0,0,0-8.48-5.34A77.5,77.5,0,0,1,99.4,95Zm10.88-24.81a5,5,0,0,0,9.63,2.58,4.83,4.83,0,0,0,.3-1.13,60.28,60.28,0,0,0,.64-10.9c-.28-6.19-9.41-6.63-10-.12v.82a52.28,52.28,0,0,1-.55,8.75Z"/></svg>