<svg id="Layer_1" data-name="Layer 1" xmlns="http://www.w3.org/2000/svg" viewBox="0 0 122.88 97.53"><defs><style>.cls-1{fill-rule:evenodd;}</style></defs><title>3-time</title><path class="cls-1" d="M28.91.22A28.92,28.92,0,1,1,0,29.14,28.91,28.91,0,0,1,28.91.22Zm51.3.17a48.59,48.59,0,0,1,32.43,18.48h0A48.73,48.73,0,0,1,104,87.29h0A48.72,48.72,0,0,1,35.6,78.67h0a49.18,49.18,0,0,1-5.48-8.86,40.43,40.43,0,0,0,9.07-1.3,40.84,40.84,0,0,0,3.25,4.87A40.08,40.08,0,1,0,64.7,9.78a41,41,0,0,0-5.25-7.51c.59-.19,1.19-.36,1.79-.53a48.29,48.29,0,0,1,19-1.35ZM71.46,25.07a4.32,4.32,0,0,1,4.83-3.75A4.32,4.32,0,0,1,80,26.15L77.19,48.72,92.8,60.85a4.32,4.32,0,0,1,.77,6.06h0a4.33,4.33,0,0,1-2.87,1.64,4.26,4.26,0,0,1-3.18-.87h0L70.05,54.1a4.32,4.32,0,0,1-1.39-1.7,4.41,4.41,0,0,1-.35-2.32l3.15-25Zm-40.8.34V22.79a27.1,27.1,0,0,0-3.9-.2,33.5,33.5,0,0,0-6.73.85l-1-6A31.86,31.86,0,0,1,28.49,16a24.19,24.19,0,0,1,5.72.48,7.1,7.1,0,0,1,2.61,1.17,5.87,5.87,0,0,1,1.85,4.75,6.06,6.06,0,0,1-3.34,5.8v.2a6,6,0,0,1,4,6A9,9,0,0,1,38.66,38,6.25,6.25,0,0,1,37,40.33a7.55,7.55,0,0,1-2.65,1.31,27.38,27.38,0,0,1-6.91.68,38.94,38.94,0,0,1-8.92-1l1.13-6.64a28.23,28.23,0,0,0,6.48.93,36.75,36.75,0,0,0,4.55-.24V32.74l-6.92-.69V26.22l6.92-.81Z"/></svg>