<svg id="Layer_1" data-name="Layer 1" xmlns="http://www.w3.org/2000/svg" viewBox="0 0 116.49 122.88"><title>365-days</title><path d="M101.33,25.49A4.84,4.84,0,1,0,94.16,32a44.35,44.35,0,0,1,5.3,7,4.77,4.77,0,0,0,1.81,1.7,4.84,4.84,0,0,0,6.4-6.8l-.12-.21a59,59,0,0,0-6.22-8.2ZM31,73.39h7q3.16,0,3.17,2.88V88.85q0,2.87-3.17,2.87H31V73.39ZM37.76,88.5V76.61a.83.83,0,0,0-.18-.62.93.93,0,0,0-.64-.16H34.33V89.28h2.61a.93.93,0,0,0,.64-.16.82.82,0,0,0,.18-.62ZM53.9,91.72l-.7-3.8h-4l-.64,3.8H45.21L48.9,73.39h4.5l3.87,18.33Zm-4.27-6.33h3.1l-1.59-8.78-1.51,8.78Zm18.14,6.33H64.43V85.91L60.16,73.39h3.4l2.5,9.41,2.35-9.41h3.4l-4,12.43v5.9Zm13.91-3.34V84.46a.85.85,0,0,0-.18-.63,1,1,0,0,0-.64-.16H78.51c-2,0-3-1-3-2.9v-4.5q0-2.88,3.13-2.88h3.2q3.14,0,3.14,2.88v2.55H81.62V76.73a.8.8,0,0,0-.18-.62A.93.93,0,0,0,80.8,76H79.7a1,1,0,0,0-.67.16.81.81,0,0,0-.17.62v3.69a.85.85,0,0,0,.17.63,1.07,1.07,0,0,0,.67.16H82c2,0,3.05.94,3.05,2.84v4.8q0,2.87-3.16,2.87H78.74q-3.17,0-3.17-2.87V86.32h3.34v2.06a.85.85,0,0,0,.18.63,1.08,1.08,0,0,0,.67.15h1.1A1,1,0,0,0,81.5,89a.85.85,0,0,0,.18-.63ZM35.48,46.86v2.62H28.2V45.9q0-5.16,6.12-5.16h5.11q6.1,0,6.11,5.16v3.24q0,3.61-2,4.7a2.76,2.76,0,0,1,1.57,1.52,7.41,7.41,0,0,1,.42,2.76v4.16q0,5.16-6.11,5.16H34.32q-6.12,0-6.12-5.16V58.71h7.28v2.62c0,.6.35.91,1,.91h.83c.69,0,1-.31,1-.91V57.21c0-.61-.35-.92-1-.92H34V51.51h3.37c.69,0,1-.3,1-.91V46.86c0-.61-.35-.92-1-.92h-.83c-.69,0-1,.31-1,.92ZM56,51.43h4.57c4.08,0,6.11,1.72,6.11,5.16v5.69c0,3.44-2,5.16-6.11,5.16H55.06Q49,67.44,49,62.28V45.9q0-5.16,6.11-5.16h5.12q6.1,0,6.11,5.16v3H59.22v-2c0-.61-.35-.92-1-.92H57.06c-.69,0-1,.31-1,.92v4.57Zm3.62,9.9v-4c0-.61-.35-.91-1-.91H56v4.91c0,.6.35.91,1,.91H58.6c.69,0,1-.31,1-.91ZM77.51,49.85h4.2q6.12,0,6.12,5.16v7.27q0,5.16-6.12,5.16H76.14Q70,67.44,70,62.28v-4.2h7.28v3.25c0,.6.34.91,1,.91h1.29c.69,0,1-.31,1-.91V56c0-.61-.35-.91-1-.91H70.36V40.74h17v5.2h-9.9v3.91Zm13.8-35.74a4.57,4.57,0,0,1,.5,1.19,4.87,4.87,0,0,1-2.36,6.16L77.3,27.51A4.87,4.87,0,0,1,73,18.78l1.15-.58a49.32,49.32,0,1,0-8,95.28,4.36,4.36,0,0,1,1.43,8.6A58,58,0,1,1,64.79,7.18a57.38,57.38,0,0,1,13,3.09L76.07,7.32A4.86,4.86,0,0,1,84.45,2.4l6.86,11.71Zm-9.49,93.48c-4.8,2.64-2.12,10.21,3.53,8.92a4.6,4.6,0,0,0,1.16-.46,55.89,55.89,0,0,0,8.73-5.89,4.84,4.84,0,0,0-6.13-7.48,47.23,47.23,0,0,1-7.29,4.91Zm18.59-18.24c-2.82,5.12,4,9.89,7.86,5.56a6.08,6.08,0,0,0,.55-.78,60.82,60.82,0,0,0,4.36-9.58c1.75-4.8-4.47-8.77-8.13-4.87a5,5,0,0,0-1,1.67,50.6,50.6,0,0,1-3.64,8Zm6.41-25.3a4.84,4.84,0,0,0,9.67-.2,55.81,55.81,0,0,0-1.12-10.47,4.84,4.84,0,0,0-9.48,1.93,43.23,43.23,0,0,1,.93,8.74Z"/></svg>