<svg id="Layer_1" data-name="Layer 1" xmlns="http://www.w3.org/2000/svg" viewBox="0 0 122.88 97.53"><defs><style>.cls-1{fill-rule:evenodd;}</style></defs><title>5-times</title><path class="cls-1" d="M28.91.22A28.92,28.92,0,1,1,0,29.14,28.91,28.91,0,0,1,28.91.22Zm51.3.17a48.59,48.59,0,0,1,32.43,18.48h0A48.73,48.73,0,0,1,104,87.29h0A48.72,48.72,0,0,1,35.6,78.67h0a49.18,49.18,0,0,1-5.48-8.86,40.43,40.43,0,0,0,9.07-1.3,40.84,40.84,0,0,0,3.25,4.87A40.08,40.08,0,1,0,64.7,9.78a41,41,0,0,0-5.25-7.51c.59-.19,1.19-.36,1.79-.53a48.29,48.29,0,0,1,19-1.35ZM71.46,25.07a4.32,4.32,0,0,1,4.83-3.75A4.32,4.32,0,0,1,80,26.15L77.19,48.72,92.8,60.85a4.32,4.32,0,0,1,.77,6.06h0a4.33,4.33,0,0,1-2.87,1.64,4.26,4.26,0,0,1-3.18-.87h0L70.05,54.1a4.32,4.32,0,0,1-1.39-1.7,4.41,4.41,0,0,1-.35-2.32l3.15-25ZM18.3,41l1.13-6a29.31,29.31,0,0,0,6.7.92,38,38,0,0,0,4.73-.24V33l-3-.32c-3.32-.35-5.59-.92-6.78-1.71s-1.79-2.21-1.79-4.25q0-.45.4-10.47H38l-.6,6.31L27.84,22v2.68l2.38.28q5.27.64,7.29,2.59a7.27,7.27,0,0,1,2,5.46,11.76,11.76,0,0,1-.69,4.29,7.16,7.16,0,0,1-1.63,2.65,6.13,6.13,0,0,1-2.67,1.39,15.92,15.92,0,0,1-3,.59c-.88.06-2,.1-3.49.1A42.42,42.42,0,0,1,18.3,41Z"/></svg>