<svg id="Layer_1" data-name="Layer 1" xmlns="http://www.w3.org/2000/svg" viewBox="0 0 122.88 97.53"><defs><style>.cls-1{fill-rule:evenodd;}</style></defs><title>6-times</title><path class="cls-1" d="M28.91.22A28.92,28.92,0,1,1,0,29.14,28.91,28.91,0,0,1,28.91.22Zm51.3.17a48.59,48.59,0,0,1,32.43,18.48h0A48.73,48.73,0,0,1,104,87.29h0A48.72,48.72,0,0,1,35.6,78.67h0a49.18,49.18,0,0,1-5.48-8.86,40.43,40.43,0,0,0,9.07-1.3,40.84,40.84,0,0,0,3.25,4.87A40.08,40.08,0,1,0,64.7,9.78a41,41,0,0,0-5.25-7.51c.59-.19,1.19-.36,1.79-.53a48.29,48.29,0,0,1,19-1.35ZM71.46,25.07a4.32,4.32,0,0,1,4.83-3.75A4.32,4.32,0,0,1,80,26.15L77.19,48.72,92.8,60.85a4.32,4.32,0,0,1,.77,6.06h0a4.33,4.33,0,0,1-2.87,1.64,4.26,4.26,0,0,1-3.18-.87h0L70.05,54.1a4.32,4.32,0,0,1-1.39-1.7,4.41,4.41,0,0,1-.35-2.32l3.15-25ZM30.92,35.17V30.75H29.27a4,4,0,0,0-1.85.3c-.35.2-.52.67-.52,1.39v4.42h1.65a4,4,0,0,0,1.85-.3c.35-.2.52-.67.52-1.39Zm7.86-6a10.93,10.93,0,0,1,.8,4.45,10.92,10.92,0,0,1-.8,4.44,5.59,5.59,0,0,1-2.38,2.68A10.78,10.78,0,0,1,33.08,42a23.9,23.9,0,0,1-4.17.32q-6.07,0-8.37-3.14t-2.3-10a26.59,26.59,0,0,1,.53-5.8,9.81,9.81,0,0,1,1.89-4Q23.27,16,30.88,16a31.19,31.19,0,0,1,4.05.34,25.18,25.18,0,0,1,3.72.71l-1.2,5.54A36.24,36.24,0,0,0,31.23,22a18.51,18.51,0,0,0-4.33.37v3.29h2a23.9,23.9,0,0,1,4.17.32,10.62,10.62,0,0,1,3.32,1.21c1.05.59,1.84.86,2.38,2.06Z"/></svg>