<svg id="Layer_1" data-name="Layer 1" xmlns="http://www.w3.org/2000/svg" viewBox="0 0 122.88 97.53"><defs><style>.cls-1{fill-rule:evenodd;}</style></defs><title>8-times</title><path class="cls-1" d="M28.91.22A28.92,28.92,0,1,1,0,29.14,28.91,28.91,0,0,1,28.91.22Zm51.3.17a48.59,48.59,0,0,1,32.43,18.48h0A48.73,48.73,0,0,1,104,87.29h0A48.72,48.72,0,0,1,35.6,78.67h0a49.18,49.18,0,0,1-5.48-8.86,40.43,40.43,0,0,0,9.07-1.3,40.84,40.84,0,0,0,3.25,4.87A40.08,40.08,0,1,0,64.7,9.78a41,41,0,0,0-5.25-7.51c.59-.19,1.19-.36,1.79-.53a48.29,48.29,0,0,1,19-1.35ZM71.46,25.07a4.32,4.32,0,0,1,4.83-3.75A4.32,4.32,0,0,1,80,26.15L77.19,48.72,92.8,60.85a4.32,4.32,0,0,1,.77,6.06h0a4.33,4.33,0,0,1-2.87,1.64,4.26,4.26,0,0,1-3.18-.87h0L70.05,54.1a4.32,4.32,0,0,1-1.39-1.7,4.41,4.41,0,0,1-.35-2.32l3.15-25ZM24,16.57A17.16,17.16,0,0,1,28.81,16a17.11,17.11,0,0,1,4.83.62,7.31,7.31,0,0,1,3.54,2.32,6.44,6.44,0,0,1,1.45,4.35A6.7,6.7,0,0,1,35.94,29v.29a6.12,6.12,0,0,1,2.53,2.25,5.85,5.85,0,0,1,1,3.26q0,7.49-10.67,7.49T18.14,34.83a5.85,5.85,0,0,1,1-3.26,6.12,6.12,0,0,1,2.53-2.25V29A6.6,6.6,0,0,1,19,23.24a6.44,6.44,0,0,1,1.45-4.35A7.31,7.31,0,0,1,24,16.57Zm7.46,17-4-1.32a4,4,0,0,0-.81-.25c-.29,0-.44.24-.44.69v4.74h1.65a12.69,12.69,0,0,0,3.09-.3c.35-.2.52-.67.52-1.39V33.62Zm-5.26-8.93L30,26.06a2.3,2.3,0,0,0,.61.16c.53,0,.8-.24.8-.73V21H29.79a13.21,13.21,0,0,0-3.09.3c-.35.2-.52.67-.52,1.39v2Z"/></svg>