<svg id="Layer_1" data-name="Layer 1" xmlns="http://www.w3.org/2000/svg" viewBox="0 0 122.88 97.53"><defs><style>.cls-1{fill-rule:evenodd;}</style></defs><title>9-times</title><path class="cls-1" d="M28.91.22A28.92,28.92,0,1,1,0,29.14,28.91,28.91,0,0,1,28.91.22Zm51.3.17a48.59,48.59,0,0,1,32.43,18.48h0A48.73,48.73,0,0,1,104,87.29h0A48.72,48.72,0,0,1,35.6,78.67h0a49.18,49.18,0,0,1-5.48-8.86,40.43,40.43,0,0,0,9.07-1.3,40.84,40.84,0,0,0,3.25,4.87A40.08,40.08,0,1,0,64.7,9.78a41,41,0,0,0-5.25-7.51c.59-.19,1.19-.36,1.79-.53a48.29,48.29,0,0,1,19-1.35ZM71.46,25.07a4.32,4.32,0,0,1,4.83-3.75A4.32,4.32,0,0,1,80,26.15L77.19,48.72,92.8,60.85a4.32,4.32,0,0,1,.77,6.06h0a4.33,4.33,0,0,1-2.87,1.64,4.26,4.26,0,0,1-3.18-.87h0L70.05,54.1a4.32,4.32,0,0,1-1.39-1.7,4.41,4.41,0,0,1-.35-2.32l3.15-25Zm-45.18-2v4.1h1.65A13.21,13.21,0,0,0,31,26.9c.34-.2.52-.67.52-1.39v-4.1H29.27a7.73,7.73,0,0,0-2.47.3c-.34.2-.52.67-.52,1.39ZM31.54,33l-2.63,0c-4.29-.07-7.16-.84-8.62-2.26s-2.05-3.34-2.05-6.07c0-3.55,1.06-5.92,3.18-7.13a10.87,10.87,0,0,1,3.32-1.21A23.9,23.9,0,0,1,28.91,16q6.07,0,8.37,3.14t2.3,10.05q0,6.9-2.3,10t-8,3.14a44.87,44.87,0,0,1-10.22-1l1.12-6a27.91,27.91,0,0,0,6.37.93,44.28,44.28,0,0,0,5-.25V33Z"/></svg>