<svg xmlns="http://www.w3.org/2000/svg" shape-rendering="geometricPrecision" text-rendering="geometricPrecision" image-rendering="optimizeQuality" fill-rule="evenodd" clip-rule="evenodd" viewBox="0 0 512 343.98"><path fill-rule="nonzero" d="M148.22 238.36H103.4l34.41-132.74h65.62l34.41 132.74h-44.81l-4.89-21.02H153.1l-4.88 21.02zM64.41 0h383.18C482.98 0 512 29.02 512 64.41v215.17c0 35.39-29.02 64.4-64.41 64.4H64.41c-35.4 0-64.41-29.03-64.41-64.4V64.41C0 29.03 29.04 0 64.41 0zm383.18 26.42H64.41c-20.94 0-37.99 17.05-37.99 37.99v215.17c0 20.86 17.1 37.98 37.99 37.98h383.18c20.82 0 37.99-17.16 37.99-37.98V64.41c0-20.86-17.12-37.99-37.99-37.99zM167.57 146.4l-6.83 37.17h19.55l-6.61-37.17h-6.11zm123.8 91.96h-44.4l8.08-132.74h55.43l16.56 67.54h1.49l16.57-67.54h55.43l8.07 132.74h-44.39l-2.55-64.35h-1.48l-16.15 64.35h-32.49l-16.35-64.35h-1.28l-2.54 64.35z"/></svg>