<svg xmlns="http://www.w3.org/2000/svg" shape-rendering="geometricPrecision" text-rendering="geometricPrecision" image-rendering="optimizeQuality" fill-rule="evenodd" clip-rule="evenodd" viewBox="0 0 512 506.47"><path fill-rule="nonzero" d="M294.79 17.14C294.79 7.7 304.1 0 315.69 0c11.6 0 20.91 7.66 20.91 17.14v74.99c0 9.43-9.31 17.14-20.91 17.14-11.59 0-20.9-7.66-20.9-17.14V17.14zm83.74 222.38c36.85 0 70.23 14.94 94.37 39.09C497.06 302.76 512 336.14 512 373c0 36.8-14.94 70.17-39.1 94.33l-.04.04c-24.19 24.17-57.55 39.1-94.33 39.1-36.86 0-70.24-14.94-94.39-39.1-24.15-24.14-39.09-57.52-39.09-94.37 0-36.83 14.95-70.19 39.09-94.35l.04-.04c24.16-24.14 57.52-39.09 94.35-39.09zm7.54 70.53-11.12 56.52-11.28-16.99c-24.29 9.74-37.92 25.82-39.94 50.57-19.96-34.89-7.84-66.15 17.44-84.47l-11.5-17.33 56.4 11.7zm-18.05 129.32 11.13-56.52 11.28 16.99c24.28-9.75 37.92-25.82 39.94-50.57 19.95 34.88 7.83 66.14-17.44 84.46l11.5 17.33-56.41-11.69zm90.07-145.95c-20.36-20.36-48.49-32.96-79.56-32.96-31.09 0-59.24 12.6-79.6 32.94-20.34 20.36-32.94 48.51-32.94 79.6 0 31.07 12.6 59.2 32.96 79.57 20.37 20.36 48.5 32.96 79.58 32.96 31.1 0 59.24-12.59 79.56-32.92l.05-.04c20.33-20.33 32.92-48.47 32.92-79.57 0-31.08-12.6-59.21-32.97-79.58zM56.92 242.74c-1.19 0-2.25-5.21-2.25-11.6 0-6.38.93-11.55 2.25-11.55h57.04c1.19 0 2.25 5.21 2.25 11.55 0 6.39-.94 11.6-2.25 11.6H56.92zm90.94 0c-1.18 0-2.24-5.21-2.24-11.6 0-6.38.93-11.55 2.24-11.55h57.05c1.18 0 2.24 5.21 2.24 11.55 0 6.39-.93 11.6-2.24 11.6h-57.05zm90.94 0c-1.18 0-2.24-5.21-2.24-11.6 0-6.38.93-11.55 2.24-11.55h57.05c1.18 0 2.24 5.17 2.24 11.51-5.71 3.55-11.21 7.45-16.46 11.64H238.8zM57.05 309.1c-1.19 0-2.25-5.21-2.25-11.6s.93-11.6 2.25-11.6h57.04c1.18 0 2.24 5.21 2.24 11.6s-.93 11.6-2.24 11.6H57.05zm90.93 0c-1.18 0-2.23-5.21-2.23-11.6s.93-11.6 2.23-11.6h57.05c1.19 0 2.24 5.21 2.24 11.6s-.92 11.6-2.24 11.6h-57.05zm-90.81 66.39c-1.18 0-2.24-5.2-2.24-11.59s.93-11.6 2.24-11.6h57.04c1.19 0 2.25 5.21 2.25 11.6s-.93 11.59-2.25 11.59H57.17zm90.94 0c-1.18 0-2.24-5.2-2.24-11.59s.93-11.6 2.24-11.6h57.05c1.19 0 2.24 5.21 2.24 11.6s-.93 11.59-2.24 11.59h-57.05zM107.02 17.14C107.02 7.7 116.33 0 127.93 0c11.59 0 20.9 7.66 20.9 17.14v74.99c0 9.43-9.35 17.14-20.9 17.14-11.6 0-20.91-7.66-20.91-17.14V17.14zm-84 146.8h398.13V77.61c0-2.96-1.18-5.54-3.09-7.44-1.9-1.91-4.61-3.1-7.44-3.1h-38.18c-6.38 0-11.59-5.2-11.59-11.59s5.21-11.6 11.59-11.6h38.18c9.35 0 17.73 3.77 23.86 9.91 6.14 6.14 9.91 14.51 9.91 23.87v137.06c-7.62-2.62-15.45-4.74-23.49-6.3V187h.25H23.02v223.57c0 2.96 1.19 5.54 3.09 7.45 1.91 1.9 4.61 3.09 7.45 3.09h189.2c2.16 8.04 4.87 15.87 8.13 23.4H33.77c-9.31 0-17.73-3.76-23.87-9.9-6.13-6.1-9.9-14.47-9.9-23.83V77.69c0-9.3 3.77-17.72 9.9-23.86 6.14-6.14 14.52-9.9 23.87-9.9h40.75c6.39 0 11.6 5.2 11.6 11.59s-5.21 11.6-11.6 11.6H33.77c-2.96 0-5.55 1.18-7.45 3.08-1.9 1.91-3.09 4.62-3.09 7.46v86.33h-.21v-.05zm159.25-96.87c-6.39 0-11.6-5.2-11.6-11.59s5.21-11.6 11.6-11.6h77.69c6.39 0 11.59 5.21 11.59 11.6s-5.2 11.59-11.59 11.59h-77.69z"/></svg>