<?xml version="1.0" encoding="UTF-8"?>
<!DOCTYPE svg PUBLIC "-//W3C//DTD SVG 1.1//EN" "http://www.w3.org/Graphics/SVG/1.1/DTD/svg11.dtd">
<!-- Creator: CorelDRAW 2021 (64-Bit) -->
<svg xmlns="http://www.w3.org/2000/svg" xml:space="preserve" width="500px" height="512px" version="1.1" shape-rendering="geometricPrecision" text-rendering="geometricPrecision" image-rendering="optimizeQuality" fill-rule="evenodd" clip-rule="evenodd"
viewBox="0 0 500 512.36"
 xmlns:xlink="http://www.w3.org/1999/xlink"
 xmlns:xodm="http://www.corel.com/coreldraw/odm/2003">
 <g id="Layer_x0020_1">
  <metadata id="CorelCorpID_0Corel-Layer"/>
  <path fill="black" fill-rule="nonzero" d="M46.87 47.16l43.23 0 0 57.68c0,16.04 7.46,30.21 19.49,40.07 10.17,8.33 23.7,13.51 38.16,13.51 14.46,0 27.99,-5.18 38.16,-13.51 12.04,-9.86 19.5,-24.03 19.5,-40.07l0 -57.68 87.28 0 0 57.68c0,16.04 7.46,30.21 19.5,40.07 10.16,8.33 23.69,13.51 38.15,13.51 14.46,0 28,-5.18 38.17,-13.51 12.03,-9.86 19.49,-24.03 19.49,-40.07l0 -57.68 45.13 0c25.74,0 46.87,21.13 46.87,46.87l0 88.83 0 20.02 0 262.6c0,12.9 -5.28,24.62 -13.77,33.11 -8.52,8.48 -20.24,13.77 -33.1,13.77l-406.26 0c-12.85,0 -24.56,-5.28 -33.07,-13.77 -8.52,-8.54 -13.8,-20.25 -13.8,-33.1l0 -262.61 0 -20.02 0 -88.83c0,-25.74 21.12,-46.87 46.87,-46.87zm181.25 371.44c-11.93,-0.83 -27.13,-3.77 -38.83,-6.91l0 -36.7c15.53,1.26 53.78,4.52 67.88,1.33 10.58,-2.4 9.41,-19.11 2.44,-21.2 -8.39,-2.61 -25.95,0.52 -40.07,-3.57 -7.21,-2.09 -13.29,-5.24 -18.25,-9.45 -5.06,-4.32 -8.85,-10.04 -11.34,-17.15 -2.43,-6.92 -3.65,-15.16 -3.65,-24.71l0 -12.58c0,-26.89 14.83,-42.91 41.82,-47.42l0 -23.51 38.46 0 0 22.76c11.93,0.95 26.77,4 38.61,6.87l0 36.76c-16.14,-1.42 -46.75,-4.31 -62.06,-1.53 -1.36,0.25 -2.59,0.63 -3.63,1.12 -6.29,2.98 -6.04,20.17 1.66,22.21 5.04,1.32 15.37,0.62 20.88,0.62 5.57,0 10.74,0.55 15.48,1.62 4.79,1.09 9.12,2.74 12.96,4.93 16.11,9.18 23.21,25.37 23.21,43.25l0 12.59c0,7.47 -0.67,14.14 -1.99,19.97 -5.26,23.13 -23.2,28.12 -45.12,30.52l0 25.02 -38.46 0 0 -24.84zm99.59 -400.05c0,-10.23 10.12,-18.55 22.63,-18.55 12.52,0 22.64,8.32 22.64,18.55l0 86.29c0,10.24 -10.12,18.55 -22.64,18.55 -12.51,0 -22.63,-8.31 -22.63,-18.55l0 -86.29zm-202.59 0c0,-10.23 10.12,-18.55 22.63,-18.55 12.51,0 22.64,8.32 22.64,18.55l0 86.29c0,10.24 -10.13,18.55 -22.64,18.55 -12.51,0 -22.63,-8.31 -22.63,-18.55l0 -86.29zm-63.24 468.78l376.23 0c20.28,0 36.87,-16.64 36.87,-36.86l0 -267.61 -449.96 0 0 267.62c0,20.26 16.59,36.85 36.86,36.85z"/>
 </g>
</svg>
