<svg xmlns="http://www.w3.org/2000/svg" shape-rendering="geometricPrecision" text-rendering="geometricPrecision" image-rendering="optimizeQuality" fill-rule="evenodd" clip-rule="evenodd" viewBox="0 0 482 511.64"><path fill-rule="nonzero" d="M235.76.01c67.27-.71 128.47 25.9 173.03 69.52 44.55 43.61 72.48 104.23 73.2 171.5.71 67.27-25.9 128.47-69.51 173.02-7.09 7.23-22.14 18.93-31.38 26.08l-.01-.58-.07-2.16c-.61-9.29-2.79-18.25-6.84-26.48 7.14-5.63 14.35-11.62 18.68-16.05 38.71-39.53 62.33-93.84 61.68-153.54-.64-59.7-25.41-113.49-64.94-152.18-39.54-38.7-93.85-62.32-153.54-61.68-59.7.64-113.49 25.41-152.18 64.95-15.49 15.81-28.56 34-38.62 53.96-11.72.95-23.12 3.78-33.76 8.3 12.04-30.66 30.11-58.3 52.77-81.45C107.88 28.66 168.49.74 235.76.01zM100.08 331.76c11.12 16.85 23.7 32.91 39.16 47.53 17.82 16.96 39.67 32.07 67.61 44.47 2.06.88 3.97.79 5.63 0 5.72-2.57 10.81-10.15 14.18-15.26 9.69-14.31 21.71-32.07 40.43-24.52.43.18.73.36 1.14.54l62.8 31.73c.21.1.42.29.63.37 8.32 5.09 12.09 13.44 12.72 23.07.52 9.83-2.49 21.07-7.31 30.69-19.47 38.94-80.41 47.22-118.95 37.61-26.41-6.63-63.76-25.92-87.68-41.88-36.44-24.5-74.13-60.7-99.57-101.4C9.5 330.53-3.17 293.08.69 256.55c2.14-20.05 9.7-38.58 23.9-51.31 12.39-11.14 29.54-17.8 52.23-17.01 2.6.06 5 1.45 6.32 3.58l42.59 63.92c6.13 7.12 7.22 14.41 4.51 21.91-2.28 6.15-7.21 11.96-14.05 17.56-6.71 6.4-23.39 16.39-21.72 26.62.52 3.2 3.66 6.98 5.61 9.94zm137.08-95.78c5.04 2.55 9.21 6.49 12.03 11.34l40.92.01c-1.49-3.55-1.09-7.78 1.43-11.03 3.72-4.82 10.62-5.7 15.44-2l24.33 18.78c2.78 2.14 4.24 5.37 4.28 8.64v.28c-.04 3.26-1.5 6.48-4.28 8.63l-24.33 18.79a11.014 11.014 0 0 1-15.44-1.99 11.01 11.01 0 0 1-1.43-11.02l-40.92-.01c-5.03 8.63-14.38 14.43-25.07 14.43-16 0-28.96-12.98-28.96-28.98 0-10.02 5.09-18.85 12.83-24.06l.35-55.98c-3.66 1.6-8.06 1.16-11.36-1.53-4.72-3.83-5.43-10.76-1.62-15.47l19.31-23.9c2.1-2.58 5.13-3.96 8.21-4.06l.03-.01h.22c3.46-.05 6.9 1.51 9.09 4.5l18.23 24.73c3.59 4.89 2.53 11.79-2.36 15.38-3.17 2.33-7.18 2.7-10.58 1.35l-.35 53.18zM120.13 106.11c-3.36-5.84-1.34-13.29 4.5-16.65 5.84-3.36 13.29-1.33 16.64 4.5l9.13 15.79c3.35 5.85 1.34 13.31-4.5 16.67-5.84 3.35-13.31 1.34-16.65-4.5l-9.12-15.81zM392.07 344.7c5.84 3.38 7.83 10.87 4.43 16.7-3.37 5.84-10.85 7.83-16.69 4.44l-15.79-9.11c-5.84-3.39-7.84-10.87-4.46-16.72 3.39-5.81 10.87-7.81 16.71-4.43l15.8 9.12zm18.89-95.04c6.74 0 12.21 5.46 12.21 12.19 0 6.73-5.47 12.2-12.21 12.2h-18.23c-6.74 0-12.21-5.47-12.21-12.2 0-6.73 5.47-12.19 12.21-12.19h18.23zm-31.11-91.8c5.85-3.36 13.31-1.35 16.65 4.5 3.37 5.82 1.34 13.29-4.49 16.64l-15.81 9.11c-5.83 3.36-13.28 1.35-16.64-4.49-3.36-5.83-1.35-13.3 4.5-16.65l15.79-9.11zm-72.88-63.94c3.37-5.84 10.86-7.84 16.7-4.45 5.83 3.38 7.82 10.85 4.44 16.7l-9.12 15.8c-3.38 5.84-10.87 7.82-16.71 4.45-5.82-3.39-7.82-10.87-4.44-16.71l9.13-15.79zm-95.05-18.91c0-6.73 5.46-12.19 12.2-12.19 6.73 0 12.19 5.46 12.19 12.19v18.25c0 6.73-5.46 12.19-12.19 12.19-6.74 0-12.2-5.46-12.2-12.19V75.01z"/></svg>