<svg xmlns="http://www.w3.org/2000/svg" shape-rendering="geometricPrecision" text-rendering="geometricPrecision" image-rendering="optimizeQuality" fill-rule="evenodd" clip-rule="evenodd" viewBox="0 0 383 511.82"><path fill-rule="nonzero" d="M143.35 47.8c-1.92 4.33-7.02 6.27-11.35 4.35-4.33-1.93-6.27-7.02-4.34-11.35l2.67-5.93c-33.4 12.51-61.98 34.95-82.05 63.72-19.67 28.2-31.2 62.52-31.11 99.52.09 33.35 9.96 64.46 26.55 90.92 17.56 27.99 42.68 50.81 71.76 65.59 4.24 2.16 5.93 7.35 3.78 11.58-2.15 4.24-7.35 5.93-11.58 3.78-31.81-16.18-59.29-41.14-78.51-71.79C10.93 269.13.1 234.89 0 198.11c-.1-40.63 12.57-78.34 34.21-109.35 21.95-31.47 53.14-56.06 89.53-69.82l-6.59-2.2c-4.5-1.49-6.95-6.35-5.46-10.85 1.49-4.5 6.35-6.94 10.85-5.45l28.39 9.49c4.33 1.93 6.27 7.02 4.34 11.35L143.35 47.8zm159.59 312.32c4.64.97 7.63 5.53 6.66 10.17-.96 4.64-5.52 7.63-10.16 6.66l-28.46-5.99c-4.64-.96-7.63-5.52-6.67-10.17l9.05-28.54c1.43-4.52 6.26-7.02 10.78-5.6 4.52 1.43 7.02 6.26 5.59 10.78l-1.9 5.97c3.43-2.27 6.75-4.67 9.97-7.15a175.034 175.034 0 0 0 50.17-61.29c11.38-23.13 17.79-49.23 17.79-76.85 0-37.26-11.69-71.78-31.57-100.07-20.47-29.14-49.62-51.74-83.67-63.98-4.46-1.59-6.78-6.52-5.18-10.98 1.59-4.46 6.52-6.78 10.98-5.19 37.45 13.47 69.49 38.28 91.95 70.25C370.15 119.27 383 157.21 383 198.11c0 30.28-7.06 58.96-19.61 84.47-13 26.43-31.96 49.44-55.08 67.27-4.02 3.11-8.15 6.05-12.38 8.79l7.01 1.48zm-57.88 86.55c0-2.15 1.74-3.89 3.89-3.89 2.14 0 3.89 1.74 3.89 3.89v17.78a3.9 3.9 0 0 1-3.89 3.89c-2.15 0-3.89-1.75-3.89-3.89v-17.78zm-22.98-7.86a3.9 3.9 0 0 1 3.89-3.89c2.15 0 3.89 1.75 3.89 3.89v25.64c0 2.14-1.74 3.89-3.89 3.89a3.9 3.9 0 0 1-3.89-3.89v-25.64zm-57.75-15.74a5.05 5.05 0 0 1-.76-.51l-21.46-17.54c-2.29-1.89-4.92-3.21-7.36-3.69-1.58-.31-3.03-.27-4.14.17-.91.37-1.71 1.12-2.24 2.3-.69 1.53-1.01 3.72-.82 6.68.17 2.62 1.09 5.49 2.3 8.24 1.78 4.05 4.22 7.79 6.02 10.19l36.44 55.14c.42.64.67 1.35.75 2.06.72 5.95 1.99 10.41 3.86 13.2 1.34 2.02 3.11 3.06 5.29 3 18.3 0 38.77-.89 56.79 0 3.51-.05 6.74-1.1 9.65-3.11 3.23-2.23 6.19-5.7 8.84-10.35l.68-1.18c7.03-12.11 13.85-23.87 14.56-37.82-.16-6.89-.41-13.77-.37-20.66.14-11.84.34-29.97-9.47-31.77h-6.41c.19 5.05-.1 10.29-.37 15.03-.15 2.79-.3 5.4-.3 7.82a4.765 4.765 0 0 1-9.53 0c0-2.23.17-5.17.35-8.33.66-11.79 1.54-27.55-6.66-29.14h-6.27c-.42 0-.82-.05-1.2-.15.39 5.68.05 11.69-.26 17.08-.15 2.79-.3 5.4-.3 7.82a4.765 4.765 0 0 1-9.53 0c0-2.22.17-5.17.35-8.33.66-11.79 1.54-27.55-6.66-29.15h-6.27c-.42 0-.85-.05-1.24-.16v24.56c0 2.63-2.14 4.77-4.76 4.77-2.63 0-4.77-2.14-4.77-4.77v-54.02c0-7.49-3.33-12.26-7.57-14.26-1.58-.74-3.33-1.12-5.08-1.12-1.72-.02-3.47.36-5.07 1.11-4.21 1.99-7.5 6.78-7.5 14.47l.02 91.21c0 2.62-2.14 4.76-4.76 4.76-2.63 0-4.77-2.14-4.77-4.76v-8.79zm91.02-35.01c.4-.11.83-.17 1.27-.17h6.56l1.15.14c17.96 2.91 17.69 26.1 17.52 41.21-.05 7 .29 13.97.38 20.97-.81 16.34-8.22 29.09-15.83 42.22l-.67 1.15c-3.36 5.88-7.27 10.38-11.69 13.42-4.52 3.13-9.52 4.73-14.99 4.8l-56.73.02c-5.66.09-10.06-2.39-13.29-7.23-2.6-3.89-4.33-9.35-5.27-16.23l-35.53-53.78c-2.09-2.79-4.95-7.18-7.08-12.04-1.61-3.63-2.84-7.6-3.09-11.47-.29-4.58.34-8.28 1.65-11.18 1.63-3.59 4.21-5.93 7.33-7.2 2.92-1.18 6.23-1.36 9.55-.7 3.95.79 8.05 2.81 11.55 5.7l16.19 13.23v-70.27c.03-11.93 5.7-19.63 12.95-23.06a21.36 21.36 0 0 1 9.13-2.03c3.1-.02 6.24.68 9.14 2.04 7.31 3.44 13.04 11.14 13.04 22.85v20.26c.39-.11.82-.17 1.24-.17h6.56l1.15.15c7.84 1.28 11.75 6.52 13.61 13.33a4.71 4.71 0 0 1 2.55-.75h6.56l1.14.13c8.35 1.36 12.25 7.21 13.95 14.66zm-56.14-200.52c2.68 1.06 5.04 2.75 6.88 4.9l28.54.01a6.87 6.87 0 0 1 .26-8.05 6.895 6.895 0 0 1 9.67-1.25l15.23 11.75a6.891 6.891 0 0 1 2.67 5.4v.19a6.91 6.91 0 0 1-2.67 5.41l-15.23 11.75a6.894 6.894 0 0 1-9.67-1.24 6.903 6.903 0 0 1-.28-8.05h-24.85c-1.97 7.56-8.85 13.15-17.03 13.15-9.73 0-17.61-7.88-17.61-17.6 0-6.23 3.23-11.7 8.11-14.82l.24-41.17c-2.45 1.71-5.84 1.68-8.28-.3a6.89 6.89 0 0 1-1-9.69l12.09-14.96c1.3-1.61 3.2-2.48 5.13-2.54h.17c2.15-.04 4.31.93 5.68 2.81l11.41 15.48a6.888 6.888 0 0 1-1.48 9.63 6.866 6.866 0 0 1-7.76.26l-.22 38.93zm45.18 117.95-5.3-9.17 13.64-7.9 5.3 9.17c6.49-4.35 12.55-9.32 18.06-14.83 5.52-5.53 10.51-11.6 14.88-18.11l-9.16-5.3 7.9-13.64 9.15 5.29c6.77-13.72 10.98-28.93 12.02-45h-10.54v-15.8h10.54a118.777 118.777 0 0 0-12.03-44.99l-9.15 5.28-7.9-13.64 9.16-5.29c-4.36-6.51-9.34-12.56-14.86-18.08a120.146 120.146 0 0 0-18.09-14.85l-5.28 9.15-13.64-7.91 5.28-9.14c-13.71-6.76-28.92-10.97-45-12.02v10.54h-15.8V78.71c-16.06 1.05-31.27 5.26-44.97 12.02l5.28 9.14-13.65 7.91-5.28-9.15a119.71 119.71 0 0 0-17.68 14.44l-.4.43a119.499 119.499 0 0 0-14.86 18.09l9.11 5.26-7.83 13.64-9.16-5.28c-6.78 13.72-11 28.92-12.04 44.99h10.53v15.81H72.09c1.04 16.06 5.26 31.26 12.03 44.97l9.14-5.27 7.9 13.64-9.15 5.28c4.36 6.51 9.34 12.57 14.86 18.09a120.15 120.15 0 0 0 18.08 14.88l5.28-9.14 13.64 7.84-5.3 9.18c5.2 2.56 10.61 4.76 16.19 6.56a47.044 47.044 0 0 0-10 14.77c-19-6.91-36.04-17.9-50.06-31.92-24.78-24.75-40.11-58.99-40.11-96.78s15.33-72.03 40.09-96.8l.51-.47c24.75-24.5 58.77-39.63 96.29-39.63 37.76 0 71.98 15.33 96.76 40.1l.06.06c24.76 24.78 40.08 58.99 40.08 96.74 0 37.76-15.33 71.98-40.1 96.77l-.06.05c-15.62 15.61-34.98 27.46-56.62 34.09-2.08-5.68-5.26-10.85-9.25-15.26 7.67-2.04 15.05-4.83 22.04-8.27z"/></svg>