<svg xmlns="http://www.w3.org/2000/svg" shape-rendering="geometricPrecision" text-rendering="geometricPrecision" image-rendering="optimizeQuality" fill-rule="evenodd" clip-rule="evenodd" viewBox="0 0 512 411.74"><path fill-rule="nonzero" d="M342.41 411.74H35.42c-9.72 0-18.56-3.99-24.99-10.4C3.99 394.89 0 386.04 0 376.32V71.06c0-9.71 3.99-18.56 10.4-24.99 6.46-6.44 15.31-10.43 25.02-10.43h32.66v43.58c0 12.2 5.64 22.93 14.73 30.38l.05-.06c7.69 6.28 17.88 10.17 28.79 10.17 11.01 0 21.22-3.86 28.83-10.1v-.1c9.1-7.47 14.73-18.18 14.73-30.29V35.64h65.96v43.58c0 11 4.65 20.83 12.32 28.15l2.41 2.24c7.61 6.23 17.82 10.1 28.83 10.1 9.69 0 18.82-3.07 26.12-8.16l2.72-1.95c9.09-7.45 14.73-18.18 14.73-30.38V35.64h34.11c9.71 0 18.57 3.99 24.99 10.42 6.43 6.4 10.42 15.26 10.42 25v102c-3.77 3.37-7.56 6.79-11.35 10.23v-45.11H11.35v234.36c0 15.31 12.53 27.85 27.85 27.85h299.42c15.32 0 27.85-12.56 27.85-27.85v-38.7l11.35 10.19v32.29c0 9.75-3.99 18.61-10.4 25.02-6.44 6.41-15.3 10.4-25.01 10.4zm97.02-68.76c-1.48-14.86-2.7-32.58-3.6-46.68H512v-72.15h-77.72c.39-14.11 1.17-31.87 2.36-46.76.96-5.95-6.04-9.76-10.55-5.92l-91.24 83.3c-2.7 2.32-3.02 6.41-.7 9.11l.74.74 94.01 84.37c4.61 3.91 11.51-.2 10.53-6.01zM247.64 14.02c0-7.73 7.64-14.02 17.09-14.02 9.46 0 17.11 6.29 17.11 14.02v65.2c0 7.74-7.65 14.02-17.11 14.02-9.45 0-17.09-6.28-17.09-14.02v-65.2zm-153.1 0C94.54 6.29 102.2 0 111.65 0s17.1 6.29 17.1 14.02v65.2c0 7.74-7.65 14.02-17.1 14.02-9.45 0-17.11-6.28-17.11-14.02v-65.2zM63.75 287.07h50.75c3.55 0 6.46 2.93 6.46 6.47v42.21c0 3.54-2.93 6.47-6.46 6.47H63.75c-3.54 0-6.47-2.92-6.47-6.47v-42.21c0-3.56 2.92-6.47 6.47-6.47zm199.18-98.98h50.75c3.55 0 6.46 2.92 6.46 6.46v32.13l-6.83 6.57a36.773 36.773 0 0 0-7.32 9.98h-43.06c-3.54 0-6.47-2.91-6.47-6.47v-42.21c0-3.56 2.92-6.46 6.47-6.46zm0 98.98h50.75l.76.05.19.16 5.34 4.8c.11.47.17.95.17 1.46v42.21c0 3.54-2.93 6.47-6.46 6.47h-50.75c-3.54 0-6.47-2.92-6.47-6.47v-42.21c0-3.56 2.92-6.47 6.47-6.47zm-98.86-98.98h50.74c3.55 0 6.46 2.92 6.46 6.46v42.21c0 3.54-2.92 6.47-6.46 6.47h-50.74c-3.54 0-6.47-2.91-6.47-6.47v-42.21c0-3.56 2.91-6.46 6.47-6.46zm-100.32 0h50.75c3.55 0 6.46 2.92 6.46 6.46v42.21c0 3.54-2.93 6.47-6.46 6.47H63.75c-3.54 0-6.47-2.91-6.47-6.47v-42.21c0-3.56 2.92-6.46 6.47-6.46zm100.32 98.98h50.74c3.55 0 6.46 2.93 6.46 6.47v42.21c0 3.54-2.92 6.47-6.46 6.47h-50.74c-3.54 0-6.47-2.92-6.47-6.47v-42.21c0-3.56 2.91-6.47 6.47-6.47z"/></svg>