<svg xmlns="http://www.w3.org/2000/svg" shape-rendering="geometricPrecision" text-rendering="geometricPrecision" image-rendering="optimizeQuality" fill-rule="evenodd" clip-rule="evenodd" viewBox="0 0 512 320.45"><path d="M106.88 320.45h298.29c2.12 0 3.86-1.74 3.86-3.87v-26.7h84.63c5.03 0 9.63-2.09 12.94-5.4 3.31-3.32 5.4-7.92 5.4-12.94V18.34c0-5.02-2.07-9.63-5.4-12.96-3.3-3.3-7.88-5.38-12.94-5.38H18.34C13.33 0 8.78 2.05 5.42 5.38l-.04.04C2.06 8.76 0 13.33 0 18.34v253.2c0 5.05 2.08 9.64 5.38 12.94 3.32 3.32 7.94 5.4 12.96 5.4h84.62v26.65c0 2.15 1.77 3.92 3.92 3.92zm64.38-247.54v94.16h10.2v24.58h-10.2v25.32h-35.88v-25.32H92.15v-24.58l31.11-94.16h48zm-35.88 94.16v-61.29l-15.96 61.29h15.96zm96.65-43.9v29.32H204.9v-29.32h27.13zm0 64.48v29.32H204.9v-29.32h27.13zm79.49-114.74v144.06h-35.87v-77.34c0-11.17-.28-17.91-.79-20.16-.55-2.25-2.01-3.97-4.4-5.13-2.4-1.15-7.74-1.73-16.03-1.73h-3.55V95.89c17.36-3.71 30.54-11.38 39.52-22.98h21.12zm108.32 48.78v48.02c0 10.92-.61 18.85-1.79 23.82-1.19 5.01-3.64 9.65-7.38 14-3.73 4.3-8.22 7.43-13.5 9.31-5.25 1.92-11.14 2.86-17.67 2.86-8.59 0-15.72-1.01-21.43-2.98-5.68-2-10.2-5.1-13.6-9.28-3.36-4.22-5.77-8.66-7.19-13.3-1.43-4.67-2.12-12.08-2.12-22.22v-50.23c0-13.24 1.15-23.13 3.43-29.72 2.27-6.58 6.79-11.87 13.59-15.84 12.76-7.49 32.36-7.79 45.8-1.82 6.23 2.76 10.87 6.13 13.94 10.1 3.09 3.98 5.19 8.44 6.28 13.42 1.09 4.98 1.64 12.93 1.64 23.86zm-35.88-12.05c0-7.65-.36-12.42-1.12-14.36-1.51-3.96-8.77-3.98-10.5.18-.89 2.03-1.31 6.77-1.31 14.18v70.17c0 8.35.39 13.39 1.22 15.09.78 1.73 2.52 2.58 5.22 2.58 2.67 0 4.4-1 5.25-3.04.82-2 1.24-6.52 1.24-13.56v-71.24zm104.5-86.1H23.54v242.8h464.92V23.54z"/></svg>