<svg id="Layer_1" data-name="Layer 1" xmlns="http://www.w3.org/2000/svg" viewBox="0 0 101.5 122.88"><title>first-half</title><path d="M56.84,21.74a50.83,50.83,0,1,1-9.59-.24V13c0-.13,0-.26,0-.39h-9.5a2.83,2.83,0,0,1-2.83-2.83V2.83A2.84,2.84,0,0,1,37.76,0H66.33a2.84,2.84,0,0,1,2.83,2.83V9.77a2.83,2.83,0,0,1-2.83,2.83H56.82c0,.13,0,.26,0,.39v8.75Zm-6.09,86a35.32,35.32,0,0,0,0-70.64v70.64ZM96.33,37.07c2-4.7,1.73-9.62-1.09-12.92-3.38-4-9.49-4.41-15.17-1.63A82.53,82.53,0,0,1,96.33,37.07Zm-91.16,0c-2-4.7-1.74-9.62,1.08-12.92,3.38-4,9.5-4.41,15.18-1.63A82,82,0,0,0,5.17,37.07ZM80.87,42A42.59,42.59,0,1,0,93.35,72.13,42.47,42.47,0,0,0,80.87,42Z"/></svg>