<svg xmlns="http://www.w3.org/2000/svg" shape-rendering="geometricPrecision" text-rendering="geometricPrecision" image-rendering="optimizeQuality" fill-rule="evenodd" clip-rule="evenodd" viewBox="0 0 512 343.99"><path fill-rule="nonzero" d="M64.41 0H447.6c17.67 0 33.77 7.26 45.43 18.92h.05C504.75 30.59 512 46.71 512 64.41v215.17c0 17.7-7.26 33.81-18.93 45.48-11.67 11.67-27.78 18.93-45.47 18.93H64.41c-17.69 0-33.82-7.25-45.49-18.93l-.74-.79C6.95 312.67 0 296.88 0 279.58V64.41c0-17.67 7.25-33.76 18.91-45.45l.05-.05C30.68 7.23 46.76 0 64.41 0zm117.68 206.3h-27.61v32.07H112V105.62h66.91c30.44 0 45.66 16.36 45.66 49.07 0 17.98-3.97 31.29-11.89 39.93-2.98 3.25-7.08 6.01-12.32 8.28-5.24 2.26-11.33 3.4-18.27 3.4zm-27.61-66.69v32.7h11.66c5.09 0 8.81-.53 11.15-1.59 2.33-1.06 3.51-3.5 3.51-7.33v-14.86c0-3.83-1.18-6.27-3.51-7.33-2.34-1.06-6.06-1.59-11.15-1.59h-11.66zm128.28 98.76h-44.39l8.07-132.75h55.44l16.56 67.54h1.49l16.57-67.54h55.43L400 238.37h-44.39l-2.55-64.36h-1.48l-16.15 64.36h-32.49l-16.36-64.36h-1.27l-2.55 64.36zM447.6 26.42H64.41c-10.47 0-19.97 4.27-26.82 11.12l-.05.05c-6.85 6.85-11.12 16.35-11.12 26.82v215.17c0 10.16 4.05 19.43 10.59 26.26l.58.55c6.9 6.89 16.4 11.17 26.82 11.17H447.6c10.4 0 19.9-4.29 26.79-11.18 6.9-6.89 11.19-16.39 11.19-26.8V64.41c0-10.42-4.29-19.92-11.18-26.82-6.86-6.89-16.36-11.17-26.8-11.17z"/></svg>