<svg xmlns="http://www.w3.org/2000/svg" viewBox="0 0 512 435.62">
 <defs>
  <style type="text/css">
   <![CDATA[
    .fil0 {fill:black;fill-rule:nonzero}
    .fil1 {fill:#FE0000;fill-rule:nonzero}
   ]]>
  </style>
 </defs>
   <path class="fil0" d="M174.84 343.06c-7.31,-13.12 -13.03,-27.28 -16.89,-42.18 -3.76,-14.56 -5.77,-29.71 -5.77,-45.17 0,-11.94 1.19,-23.66 3.43,-35.03 2.29,-11.57 5.74,-22.83 10.2,-33.63 13.7,-33.14 37.01,-61.29 66.42,-80.96 25.38,-16.96 55.28,-27.66 87.45,-29.87l0 -30.17c0,-0.46 0.02,-0.92 0.06,-1.37l-33.7 0c-5.53,0 -10.05,-4.52 -10.05,-10.04l0 -24.59c0,-5.53 4.52,-10.05 10.05,-10.05l101.27 0c5.53,0 10.05,4.52 10.05,10.05l0 24.59c0,5.52 -4.52,10.04 -10.05,10.04l-33.69 0c0.03,0.45 0.05,0.91 0.05,1.37l0 31.03 -0.1 0c41.1,4.89 77.94,23.63 105.73,51.42 32.56,32.55 52.7,77.54 52.7,127.21 0,49.67 -20.14,94.66 -52.7,127.21 -32.55,32.55 -77.54,52.7 -127.21,52.7 -33.16,0 -64.29,-9.04 -91.05,-24.78 -27.66,-16.27 -50.59,-39.73 -66.2,-67.78zm144.56 -116.95l-31.01 80.33 -36.31 0 28.76 -72.46 -38.55 0.48 -2.41 -28.43 79.52 0 0 20.08zm46.27 -20.08l11.08 26.83 1.61 0 11.09 -26.83 34.85 0 -22.33 48.52 22.33 51.89 -35.66 0 -12.05 -28.92 -1.45 0 -11.88 28.92 -34.06 0 21.85 -50.93 -21.85 -49.48 36.47 0zm128.01 -74.6c6.98,-16.66 6.15,-34.13 -3.84,-45.82 -12,-14.03 -33.67,-15.64 -53.8,-5.77 21.32,14.62 40.68,31.63 57.64,51.59zm-323.17 0c-6.98,-16.66 -6.16,-34.13 3.84,-45.82 11.99,-14.03 33.67,-15.64 53.79,-5.77 -21.32,14.62 -40.68,31.63 -57.63,51.59zm15.31 162.23c3.23,12.5 8.04,24.39 14.18,35.42 13.13,23.58 32.39,43.29 55.6,56.94 22.37,13.16 48.52,20.71 76.49,20.71 41.71,0 79.47,-16.9 106.8,-44.23 27.32,-27.32 44.23,-65.08 44.23,-106.79 0,-41.71 -16.91,-79.47 -44.23,-106.8 -27.33,-27.32 -65.09,-44.23 -106.8,-44.23 -31.07,0 -59.91,9.34 -83.84,25.33 -24.74,16.54 -44.33,40.19 -55.82,67.98 -3.68,8.91 -6.56,18.35 -8.5,28.22 -1.87,9.49 -2.86,19.36 -2.86,29.5 0,13.24 1.65,25.96 4.75,37.95z"/>
   <path class="fil1" d="M55.23 188.52c-7.98,0 -14.45,-6.47 -14.45,-14.44 0,-7.98 6.47,-14.45 14.45,-14.45l63.94 0c7.98,0 14.45,6.47 14.45,14.45 0,7.97 -6.47,14.44 -14.45,14.44l-63.94 0zm0.72 167.68c-7.97,0 -14.44,-6.47 -14.44,-14.45 0,-7.97 6.47,-14.45 14.44,-14.45l64.58 0c7.97,0 14.45,6.48 14.45,14.45 0,7.98 -6.48,14.45 -14.45,14.45l-64.58 0zm-41.5 -84.94c-7.98,0 -14.45,-6.47 -14.45,-14.45 0,-7.97 6.47,-14.44 14.45,-14.44l89.12 0c7.98,0 14.45,6.47 14.45,14.44 0,7.98 -6.47,14.45 -14.45,14.45l-89.12 0z"/>
</svg>
