<svg id="Layer_1" data-name="Layer 1" xmlns="http://www.w3.org/2000/svg" viewBox="0 0 122.88 104.55"><defs><style>.cls-1{fill:#fe0000;}</style></defs><title>speed-5x</title><path d="M42,82.34a42.82,42.82,0,0,1-4.05-10.13A43.2,43.2,0,0,1,76.72,18.29V11.05c0-.11,0-.22,0-.33H68.65a2.41,2.41,0,0,1-2.41-2.41V2.41A2.41,2.41,0,0,1,68.65,0H93a2.42,2.42,0,0,1,2.42,2.41v5.9A2.42,2.42,0,0,1,93,10.72H84.87c0,.11,0,.22,0,.33V18.5h0A43.17,43.17,0,1,1,42,82.34ZM88.22,49.61l2.66,6.44h.39l2.66-6.44h8.37L96.94,61.26l5.36,12.45H93.74l-2.9-6.94H90.5l-2.86,6.94H79.47l5.24-12.22L79.47,49.61ZM57.38,73.29l1.08-6.37a27.82,27.82,0,0,0,6.42.89,37.25,37.25,0,0,0,4.53-.23V65.65l-2.89-.31q-4.78-.5-6.5-1.64c-1.15-.75-1.72-2.11-1.72-4.06q0-.44.39-10H76.23l-.58,6.63-9.13-.54v2l2.27.27c3.37.41,5.69,1.24,7,2.49a6.94,6.94,0,0,1,1.93,5.22A11.28,11.28,0,0,1,77,69.76a7.09,7.09,0,0,1-1.56,2.54,6,6,0,0,1-2.56,1.33,15.08,15.08,0,0,1-2.92.56c-.83.06-1.94.1-3.33.1a41.15,41.15,0,0,1-9.29-1Zm61.1-41.75c1.68-4,1.48-8.19-.92-11-2.88-3.37-8.08-3.76-12.91-1.39a69.74,69.74,0,0,1,13.83,12.38Zm-77.56,0c-1.67-4-1.48-8.19.92-11,2.88-3.37,8.08-3.76,12.91-1.39A70,70,0,0,0,40.92,31.54ZM44.6,70.48A36,36,0,0,0,48,79a35.91,35.91,0,1,0-3.4-8.5Z"/><path class="cls-1" d="M13.25,45.25a3.47,3.47,0,0,1,0-6.94H28.6a3.47,3.47,0,0,1,0,6.94Zm.18,40.24a3.47,3.47,0,1,1,0-6.94h15.5a3.47,3.47,0,0,1,0,6.94ZM3.47,65.1a3.47,3.47,0,1,1,0-6.93H24.86a3.47,3.47,0,0,1,0,6.93Z"/></svg>