<svg id="Layer_1" data-name="Layer 1" xmlns="http://www.w3.org/2000/svg" viewBox="0 0 122.88 120.76"><defs><style>.cls-1{fill:#ef4136;}.cls-2{fill:#1a1a1a;}</style></defs><title>three-weeks</title><path class="cls-1" d="M33.42,84.19h6.39l-3,19.12h-8l-1.41-7h-.37l-1.37,7h-8l-3-19.12h6.4l1.43,10.68h.19l2.2-10.68h4.68l2.18,10.68H32l1.47-10.68Zm20.39,11.9H47.69v2.33h7.49v4.89H41.57V84.19H55l-.76,4.9H47.69v2.57h6.12v4.43Zm16.44,0H64.13v2.33h7.5v4.89H58V84.19H71.48l-.77,4.9H64.13v2.57h6.12v4.43ZM80.58,95v8.32H74.46V84.19h6.12V92h.12A4.25,4.25,0,0,1,81,90.52l3-6.33h6.61L86,93.58l4.75,9.73H84.16L81,96.46A4.25,4.25,0,0,1,80.7,95Zm11.48,8,.86-5a21.09,21.09,0,0,0,5.06.7,29.25,29.25,0,0,0,3.63-.18V96.92l-2.75-.25q-3.73-.33-5.13-1.79a6,6,0,0,1-1.39-4.29q0-3.91,1.7-5.39t5.77-1.47a32.31,32.31,0,0,1,7.34.77l-.77,4.89a30.78,30.78,0,0,0-4.56-.46,21.63,21.63,0,0,0-2.9.16v1.5l2.2.21c2.67.27,4.52.9,5.54,1.91a5.67,5.67,0,0,1,1.53,4.21,9.17,9.17,0,0,1-.52,3.26,5.59,5.59,0,0,1-1.24,2,4.69,4.69,0,0,1-2,1,11.86,11.86,0,0,1-2.32.45c-.66,0-1.54.07-2.64.07a32.43,32.43,0,0,1-7.38-.79Z"/><path class="cls-2" d="M82.69,4.21C82.69,1.87,85,0,87.84,0S93,1.91,93,4.21v18.5c0,2.34-2.3,4.21-5.16,4.21s-5.15-1.9-5.15-4.21V4.21Zm-19,43.09V43.42a30.41,30.41,0,0,0-5-.3,37.43,37.43,0,0,0-8.6,1.26l-1.34-8.83A35.54,35.54,0,0,1,60.9,33.28a26.63,26.63,0,0,1,7.32.71,8.89,8.89,0,0,1,3.35,1.73c1.58,1.56,2.37,3.9,2.37,7.05q0,6-4.28,8.59v.3q5.1,2.45,5.1,8.89a15.15,15.15,0,0,1-.85,5.4,9.11,9.11,0,0,1-2.14,3.47,9.21,9.21,0,0,1-3.4,1.94,30.29,30.29,0,0,1-8.84,1,43.6,43.6,0,0,1-11.41-1.55L49.56,61a31.49,31.49,0,0,0,8.3,1.37A40.36,40.36,0,0,0,63.68,62V58.17l-8.86-1V48.5l8.86-1.2Zm-34-43.09C29.67,1.87,32,0,34.83,0S40,1.91,40,4.21v18.5c0,2.34-2.3,4.21-5.16,4.21s-5.16-1.9-5.16-4.21V4.21ZM6.76,111.3a2.66,2.66,0,0,0,.76,1.87,2.56,2.56,0,0,0,1.87.75h104a2.65,2.65,0,0,0,1.86-.75,2.56,2.56,0,0,0,.75-1.87v-91a2.56,2.56,0,0,0-2.57-2.58h-8.33c-1.59,0-2.86-2.35-2.86-3.94a2.85,2.85,0,0,1,2.86-2.86h9.41a8.4,8.4,0,0,1,8.34,8.34v93.2a8.38,8.38,0,0,1-8.34,8.34H8.34a8.28,8.28,0,0,1-5.88-2.45A8.37,8.37,0,0,1,0,112.42V19.22a8.29,8.29,0,0,1,2.46-5.88,8.35,8.35,0,0,1,5.88-2.46H18.43a2.85,2.85,0,0,1,2.86,2.86c0,1.59-1.27,3.94-2.86,3.94h-9a2.69,2.69,0,0,0-1.87.75A2.59,2.59,0,0,0,6.8,20.3c0,28.81,0,62.06,0,91ZM51.55,17.64c-1.59,0-2.86-2.35-2.86-3.94a2.85,2.85,0,0,1,2.86-2.86H70.77a2.84,2.84,0,0,1,2.85,2.86c0,1.59-1.26,3.94-2.85,3.94Z"/></svg>