<svg id="Layer_1" data-name="Layer 1" xmlns="http://www.w3.org/2000/svg" viewBox="0 0 110.47 122.88"><defs><style>.cls-1{fill-rule:evenodd;}</style></defs><title>atm</title><path class="cls-1" d="M20,86H10A10,10,0,0,1,0,76V10A10,10,0,0,1,2.94,3v0A10,10,0,0,1,10,0h90.41a10.05,10.05,0,0,1,10,10V76a10,10,0,0,1-3,7.08h0a10,10,0,0,1-7.07,3H90.34a28.25,28.25,0,0,0-1.56-9.48h8.67a3.64,3.64,0,0,0,3.63-3.63V46.43a3.64,3.64,0,0,0-3.63-3.63H13a3.64,3.64,0,0,0-3.63,3.63v26.5A3.64,3.64,0,0,0,13,76.56h8.86A23.91,23.91,0,0,0,20,86Zm59.65-5v41.82H30.83V81.06h48.8Zm-42.75,0v29.36a5.71,5.71,0,0,1,5.7,5.7H68.07a5.7,5.7,0,0,1,5.69-5.7V81.06H64a11.34,11.34,0,1,1-17.58,0ZM32.34,64.32h8a1.21,1.21,0,0,1,1.21,1.21V71a1.21,1.21,0,0,1-1.21,1.21h-8A1.21,1.21,0,0,1,31.13,71V65.53a1.21,1.21,0,0,1,1.21-1.21Zm18.91,0h8.06a1.22,1.22,0,0,1,1.21,1.21V71a1.21,1.21,0,0,1-1.21,1.21H51.25A1.21,1.21,0,0,1,50,71V65.53a1.22,1.22,0,0,1,1.21-1.21Zm18.92,0h8a1.21,1.21,0,0,1,1.21,1.21V71a1.21,1.21,0,0,1-1.21,1.21h-8A1.21,1.21,0,0,1,69,71V65.53a1.21,1.21,0,0,1,1.21-1.21ZM32.34,49.24h8a1.21,1.21,0,0,1,1.21,1.2V55.9a1.21,1.21,0,0,1-1.21,1.21h-8a1.21,1.21,0,0,1-1.21-1.21V50.44a1.21,1.21,0,0,1,1.21-1.2Zm18.91,0h8.06a1.21,1.21,0,0,1,1.21,1.2V55.9a1.22,1.22,0,0,1-1.21,1.21H51.25A1.22,1.22,0,0,1,50,55.9V50.44a1.21,1.21,0,0,1,1.21-1.2Zm18.92,0h8a1.21,1.21,0,0,1,1.21,1.2V55.9a1.21,1.21,0,0,1-1.21,1.21h-8A1.21,1.21,0,0,1,69,55.9V50.44a1.21,1.21,0,0,1,1.21-1.2ZM15.73,35.51l5.8-26.24H35.28l5.91,26.24H32l-.75-3h-6l-.63,3ZM28,16.4l-1.49,9.16h3.88L28.93,16.4Zm12.81.27V9.27H60.34v7.4H55.25V35.51H46.17V16.67ZM63.6,35.51V9.27H77.11l2,10,1.68-10h13.9V35.51H85.65V22h-.43L82.94,35.24H75.35L73.11,22h-.43V35.51Z"/></svg>