<svg id="Layer_1" data-name="Layer 1" xmlns="http://www.w3.org/2000/svg" viewBox="0 0 80.63 122.88"><defs><style>.cls-1{fill-rule:evenodd;}</style></defs><title>cost-reduction-dollar</title><path class="cls-1" d="M80.63,40.31A40.33,40.33,0,0,1,54.9,77.9v6H68.33c2.24.1,3.84.84,4.76,2.24,2.49,3.74-.92,7.44-3.28,10-6.71,7.36-21.9,20.7-25.21,24.59a5.48,5.48,0,0,1-8.59,0c-3.43-4-19.45-18.14-25.82-25.3C8,93,5.24,89.61,7.54,86.16c.94-1.4,2.52-2.14,4.76-2.24H25.69v-6A40.32,40.32,0,1,1,80.63,40.31Zm-27,5.75a11.11,11.11,0,0,1-2.39,7,12.4,12.4,0,0,1-7.28,4.26l-.51,4.44H36l-.91-1,.45-3.1A48.58,48.58,0,0,1,27,56l1.74-10.38,1.09-.84a24.39,24.39,0,0,0,5.48,3.29,13,13,0,0,0,4.9,1.29c1,0,1.55-.34,1.55-1a1.44,1.44,0,0,0-.88-1.26,26.86,26.86,0,0,0-3.06-1.32A34.24,34.24,0,0,1,33,43.62a10.5,10.5,0,0,1-3.48-3.19A9,9,0,0,1,28,35.11a10.73,10.73,0,0,1,2.44-7A12.79,12.79,0,0,1,37.35,24l.45-5.06H45l1.09,1-.38,3.58A29.81,29.81,0,0,1,53,25.06L51.27,35l-1.68.45a23.11,23.11,0,0,0-4.67-2.38,11.73,11.73,0,0,0-3.77-.9c-.9,0-1.35.27-1.35.83a1.55,1.55,0,0,0,.93,1.36,28.61,28.61,0,0,0,3.13,1.35,36.52,36.52,0,0,1,4.86,2.09,10.13,10.13,0,0,1,3.42,3.1,8.74,8.74,0,0,1,1.45,5.18ZM40.31,8.55A31.77,31.77,0,1,1,8.55,40.31,31.76,31.76,0,0,1,40.31,8.55Z"/></svg>