<svg id="Layer_1" data-name="Layer 1" xmlns="http://www.w3.org/2000/svg" viewBox="0 0 122.88 120.48"><defs><style>.cls-1{fill-rule:evenodd;}</style></defs><title>crypto-exchange</title><path class="cls-1" d="M15.76,64.55c-1.41,20.5,1.74,33.09,24.15,33.09h3.28v6.25c0,3.12.73,3.66,3,1.52L58.35,93.85c1.47-1.39,1.26-2.3-.14-3.65l-12-11.51c-2.1-2.13-3-1.53-3,1.4v7.35c-20.15,1.27-17.12-11-17.12-22.89Zm91.15-8.45C108.32,35.6,105.17,23,82.76,23H79.48V16.76c0-3.12-.74-3.66-3-1.52L64.32,26.8c-1.47,1.39-1.26,2.3.14,3.65L76.47,42c2.1,2.12,3,1.52,3-1.4V33.21c20.16-1.27,17.13,11,17.13,22.89ZM94.83,64.38a28.06,28.06,0,1,0,19.83,8.22,27.92,27.92,0,0,0-19.83-8.22ZM86.46,99.24V85.6c.08-1-.61-1.39-1.71-1.35H82.11V80.57H87.8V76H91v4.61h2.83V76h3.22v4.67c.71,0,1.11.05,1.76.09,2.93.17,5,.64,6.27,3.5a6,6,0,0,1,.55,2.49,4.47,4.47,0,0,1-.8,2.63,4.84,4.84,0,0,1-2.35,2c7.67,1,6.26,11.87-1.77,12.72-.68.07-2,.16-3.66.21v4.66H93.85v-4.6H91v4.6H87.79v-4.6H82.1l.79-3.56h2.54c.82.12,1.1-.46,1-1.5ZM97.07,84.87v5.36c3.83-.93,3.58-4.37,0-5.36Zm0,8.65v6.63a4.4,4.4,0,0,0,.73-.15c3.89-.73,4.78-5.26.14-6.29a5,5,0,0,0-.87-.19Zm-3.22,6.75V93.4H92.22v6.87Zm0-9.81V84.6H92.22v5.86ZM28.05,0A28.06,28.06,0,1,0,47.88,8.22,27.92,27.92,0,0,0,28.05,0ZM30.9,13.53a10.86,10.86,0,0,1,2.71.82l.18-.09a2.77,2.77,0,0,1,3.25.59h0a2.84,2.84,0,0,1,.6,1.16,14.08,14.08,0,0,1,0,4.67,2.84,2.84,0,0,1-.6,1.16c-1.14,1.52-3.83,1-4.58-.8a3.59,3.59,0,0,1-.26-1,5.46,5.46,0,0,0-1.56-.79,7.12,7.12,0,0,0-2.13-.3,9.35,9.35,0,0,0-2.13.21c-2.33.58-3.61,3-.84,4.06a11.92,11.92,0,0,0,1.87.51l3.11.67a18.84,18.84,0,0,1,3.48,1,8.34,8.34,0,0,1,2.41,1.49,7.12,7.12,0,0,1,1.8,2.54,8.46,8.46,0,0,1,.59,3.21,8.09,8.09,0,0,1-.54,3,8.78,8.78,0,0,1-1.63,2.6,9.34,9.34,0,0,1-2.62,2,13.24,13.24,0,0,1-3.11,1.09v1.83a3.86,3.86,0,0,1-.2,1.39,2.37,2.37,0,0,1-.58.88,2.6,2.6,0,0,1-.92.66,3,3,0,0,1-2.26,0,2.6,2.6,0,0,1-.92-.66,2.65,2.65,0,0,1-.58-.88,4.09,4.09,0,0,1-.19-1.39V41.32c-.5-.12-1-.26-1.51-.43s-1.08-.39-1.62-.62a4,4,0,0,1-.83.51,2.59,2.59,0,0,1-1.08.26A3.19,3.19,0,0,1,19,40.83a2.59,2.59,0,0,1-.94-.66,2.68,2.68,0,0,1-.6-1.15,6.11,6.11,0,0,1-.18-1.57v-3a6.13,6.13,0,0,1,.18-1.58,2.74,2.74,0,0,1,5-.77c.4.68.42,1.59,1,2.16a7.09,7.09,0,0,0,4.67,1.56,6.48,6.48,0,0,0,4.08-1.26,2.63,2.63,0,0,0,.75-.86,2.24,2.24,0,0,0-1.45-3.25,12.73,12.73,0,0,0-2-.54l-3.53-.71a13.74,13.74,0,0,1-3.35-1.07,8,8,0,0,1-2.4-1.76,7.6,7.6,0,0,1,.14-10.13,8.29,8.29,0,0,1,2.34-1.82,9.85,9.85,0,0,1,2.58-.92V13a4.28,4.28,0,0,1,.19-1.4,2.82,2.82,0,0,1,5.27,0A4.28,4.28,0,0,1,30.9,13v.52Z"/></svg>