<svg id="Layer_1" data-name="Layer 1" xmlns="http://www.w3.org/2000/svg" viewBox="0 0 122.88 89.33"><defs><style>.cls-1{fill-rule:evenodd;}</style></defs><title>economy-down</title><path class="cls-1" d="M36.21,79.84c0,5.24-8.11,9.49-18.1,9.49S0,85.08,0,79.84A5.47,5.47,0,0,1,.83,77c2.3,3.85,9.17,6.65,17.28,6.65,5.35,0,14.25-1.58,17.27-6.65a5.49,5.49,0,0,1,.83,2.84ZM113.21,0,75.84,37C68.44,29.76,61.27,21,54,13.77L28.31,39.54l8.6,8.59L9.77,49,11,22.29l8.86,8.79c5.92-6,18.88-18.17,24.8-24.09C52.13-.5,55.7-.64,63.2,6.85L75.84,20.93,98,0l15.22,0ZM24.1,55l-.22,2.4-9-.79a8.17,8.17,0,0,1,1.54,3.24l-2.17-.19a6.82,6.82,0,0,0-1-2.13,4.47,4.47,0,0,0-1.87-1.68l.18-1.93L24.1,55ZM79.78,79.7c0,5.32-8.23,9.63-18.37,9.63S43.05,85,43.05,79.7a5.62,5.62,0,0,1,.84-2.88c2.34,3.91,9.3,6.75,17.52,6.75,5.44,0,14.47-1.61,17.53-6.75a5.55,5.55,0,0,1,.84,2.88Zm0-10.37c0,5.31-8.23,9.63-18.37,9.63s-18.36-4.32-18.36-9.63a5.62,5.62,0,0,1,.84-2.88c2.34,3.91,9.3,6.75,17.52,6.75,5.44,0,14.47-1.61,17.53-6.75a5.55,5.55,0,0,1,.84,2.88ZM68.05,43.5l-.22,2.39-9-.79a8.21,8.21,0,0,1,1.54,3.25l-2.17-.19a6.67,6.67,0,0,0-1-2.13,4.36,4.36,0,0,0-1.88-1.68l.18-1.93L68.05,43.5ZM62.4,39.77c7.87.2,14.11,2.77,14.11,5.91s-6.76,5.92-15.1,5.92-15.09-2.66-15.09-5.92,6.33-5.75,14.29-5.91c.6,0,1.19,0,1.79,0Zm-.08-2c9.72.25,17.46,4.47,17.46,9.62,0,5.32-8.23,9.63-18.37,9.63s-18.36-4.31-18.36-9.63,7.8-9.4,17.58-9.62ZM79.78,58.57c0,5.31-8.23,9.62-18.37,9.62s-18.36-4.31-18.36-9.62a5.41,5.41,0,0,1,.77-2.77c2.27,4,9.28,6.87,17.59,6.87C66.85,62.67,76,61,79,55.8a5.63,5.63,0,0,1,.77,2.77Zm43,21.27c0,5.24-8.11,9.49-18.11,9.49s-18.1-4.25-18.1-9.49A5.58,5.58,0,0,1,87.39,77c2.31,3.86,9.17,6.65,17.28,6.65,5.36,0,14.26-1.58,17.28-6.65a5.49,5.49,0,0,1,.83,2.84Zm0-9.81c0,5.24-8.11,9.49-18.11,9.49S86.57,75.27,86.57,70a5.55,5.55,0,0,1,.82-2.84c2.31,3.85,9.17,6.65,17.28,6.65,5.36,0,14.26-1.58,17.28-6.65a5.49,5.49,0,0,1,.83,2.84ZM110.51,26.55l-.2,2.21L102,28a7.64,7.64,0,0,1,1.42,3l-2-.18a6.44,6.44,0,0,0-.9-2,4,4,0,0,0-1.73-1.55L99,25.55l11.56,1ZM122.78,60.3c0,5.23-8.11,9.49-18.11,9.49s-18.1-4.26-18.1-9.49a5.55,5.55,0,0,1,.82-2.84c2.31,3.85,9.17,6.65,17.28,6.65,5.36,0,14.26-1.59,17.28-6.65a5.49,5.49,0,0,1,.83,2.84Zm.1-9.89c0,5.24-8.11,9.5-18.1,9.5s-18.11-4.26-18.11-9.5a5.52,5.52,0,0,1,.83-2.84c2.3,3.86,9.17,6.66,17.28,6.66,5.35,0,14.25-1.59,17.27-6.66a5.52,5.52,0,0,1,.83,2.84ZM105.05,22.08c8.08,0,14.6,2.66,14.6,5.84s-6.66,5.84-14.87,5.84c-6.86,0-12.64-1.83-14.36-4.3l-3,2.94c2.26,3.89,9.16,6.73,17.33,6.73,10,0,18.1-4.25,18.1-9.49s-8-9.48-17.89-9.49h-.42a32,32,0,0,0-5.18.42L97,22.93a33.56,33.56,0,0,1,7.38-.85Zm17.83,18.13c0,5.24-8.11,9.5-18.1,9.5s-18.11-4.26-18.11-9.5a5.27,5.27,0,0,1,.77-2.72c2.23,3.91,9.14,6.77,17.34,6.77,5.36,0,14.39-1.62,17.33-6.77a5.45,5.45,0,0,1,.77,2.72ZM28.43,53.13C31.23,54.2,33,55.7,33,57.35c0,3.22-6.66,5.83-14.87,5.83S3.23,60.56,3.23,57.35c0-1.6,1.64-3.06,4.29-4.11A4.88,4.88,0,0,1,5.92,52C2.28,53.78,0,56.29,0,59.07c0,5.23,8.11,9.49,18.11,9.49s18.1-4.26,18.1-9.49c0-2.3-1.56-4.41-4.14-6.06l-3.64.12Zm7.78,16.51c0,5.24-8.11,9.49-18.1,9.49S0,74.88,0,69.64a5.24,5.24,0,0,1,.77-2.72c2.23,3.9,9.14,6.76,17.34,6.76,5.36,0,14.39-1.61,17.33-6.76a5.45,5.45,0,0,1,.77,2.72Z"/></svg>