<svg id="Layer_1" data-name="Layer 1" xmlns="http://www.w3.org/2000/svg" viewBox="0 0 102.34 122.88"><defs><style>.cls-1{fill-rule:evenodd;}</style></defs><title>fund-transfer</title><path class="cls-1" d="M0,84V36.22H102.34V84ZM15.34,2.76a2.45,2.45,0,0,0-2.09-.93c-1.83.22-2.19,2.12-2.38,3.58-.57,4.2-3.26,17.11-3.61,19.41a2.41,2.41,0,0,0,.53,2.05,2.45,2.45,0,0,0,1.94.84C12,27.69,24.64,27,29,27.08c1.55,0,3.78.12,4.32-1.8a2.44,2.44,0,0,0-.6-2.21l-5-5.87a48.38,48.38,0,0,1,57.6,8.14c1.18,1.18,2.29,2.41,3.32,3.67h13.61A59.66,59.66,0,0,0,55.92.19,59.5,59.5,0,0,0,20.33,8.58l-5-5.82Zm78,116.48a2.44,2.44,0,0,0,2.12.86c1.81-.28,2.12-2.18,2.27-3.65.44-4.22,2.73-17.2,3-19.52a2.42,2.42,0,0,0-2.56-2.8c-2.26.09-14.88,1.21-19.29,1.21-1.55,0-3.78,0-4.26,1.93a2.45,2.45,0,0,0,.67,2.19l5.37,5.89a48.4,48.4,0,0,1-58.19-7.81A49.72,49.72,0,0,1,18,92.29H4.67a59.53,59.53,0,0,0,83.7,21.47l5,5.48ZM60.52,65a11.39,11.39,0,1,1-5.1-15.27A11.38,11.38,0,0,1,60.52,65ZM86.13,76.58l-69.77-.47a7.41,7.41,0,0,0-7.51-7.28l-.3-17.48a7.42,7.42,0,0,0,7.29-7.51l69.78.46a7.42,7.42,0,0,0,7.51,7.29l.3,17.48a7.41,7.41,0,0,0-7.3,7.51Z"/></svg>