<svg id="Layer_1" data-name="Layer 1" xmlns="http://www.w3.org/2000/svg" viewBox="0 0 98.61 122.88"><defs><style>.cls-1{fill-rule:evenodd;}</style></defs><title>ipo</title><path class="cls-1" d="M91.82,33.58V75.7a1.48,1.48,0,0,1-1.46,1.46H77.79a1.47,1.47,0,0,1-1.46-1.46V45.75c2.39-2.32,5.19-5,8-7.77l5.94-5.73a11.15,11.15,0,0,0,1.5,1.33ZM0,113.89H4.63v-19H0V86.71H20.57v8.15H15.94v19h4.63V122H0v-8.14Zm45-.39H37.67V122H26.37V86.71h17.8q12.15,0,12.14,13.06,0,7.17-3.16,10.62a9.43,9.43,0,0,1-3.28,2.21,12.18,12.18,0,0,1-4.86.9ZM37.67,95v9.82h2.6a7.69,7.69,0,0,0,3-.42c.62-.28.94-.93.94-2V97.38a1.92,1.92,0,0,0-.94-1.95,7.69,7.69,0,0,0-3-.42ZM59,104.4q0-9.66,3.61-14.1t13.06-4.43q9.44,0,13.05,4.43t3.62,14.1a36.15,36.15,0,0,1-.77,8.08,14.61,14.61,0,0,1-2.62,5.71,10.69,10.69,0,0,1-5.14,3.56,25.36,25.36,0,0,1-8.14,1.13,25.36,25.36,0,0,1-8.14-1.13,10.64,10.64,0,0,1-5.14-3.56,14.77,14.77,0,0,1-2.63-5.71A36.22,36.22,0,0,1,59,104.4Zm11.77-5.5v13.94h4.69a12.34,12.34,0,0,0,4.11-.53q1.05-.54,1-2.46V95.9h-5.5a7.55,7.55,0,0,0-3.3.54q-1.05.54-1,2.46ZM.48,41.39,33.7,12.33c7.35,7.21,14.48,15.91,21.76,23.11L82,8.77,73.45.23,98.61,0V25.38l-8.2-8.2c-5.88,6-19.8,19.1-25.69,25-7.45,7.44-11,7.58-18.45.13l-12.57-14L19,41.39ZM16,51.78V75.7a1.47,1.47,0,0,1-1.45,1.46H1.94A1.47,1.47,0,0,1,.48,75.7V51.78Zm25.29.44V75.7a1.48,1.48,0,0,1-1.46,1.46H27.22a1.47,1.47,0,0,1-1.46-1.46V49.54a7,7,0,0,0,.75-.6l6.28-5.57L37.85,49l.39.4c1,1,2,2,3,2.81Zm25.28,2.35V75.7a1.48,1.48,0,0,1-1.45,1.46H52.51a1.47,1.47,0,0,1-1.46-1.46v-18a18.51,18.51,0,0,0,4.57.5,19.14,19.14,0,0,0,10.91-3.61Z"/></svg>