<svg id="Layer_1" data-name="Layer 1" xmlns="http://www.w3.org/2000/svg" viewBox="0 0 94.82 122.88"><defs><style>.cls-1{fill-rule:evenodd;}</style></defs><title>ledger</title><path class="cls-1" d="M18.12.05h72.3V57H49.22A7.21,7.21,0,0,0,42,64.19V90.05H17.11c-6.74.61-4.35,9.6,0,9.13H42v5.51H17.4c-10.12.14-13.47-.4-13.47-7.81V88.7a4.76,4.76,0,0,1,0-9.37V71.82a4.76,4.76,0,0,1,0-9.37V54.94a4.76,4.76,0,0,1,0-9.37V38.06A4.47,4.47,0,0,1,0,33.37a4.49,4.49,0,0,1,3.93-4.69v-7.5A4.48,4.48,0,0,1,0,16.49,4.48,4.48,0,0,1,3.93,11.8C3.94,2,4.5-.38,18.12.05ZM53.21,64.61H91.49a3.35,3.35,0,0,1,3.33,3.33v51.61a3.32,3.32,0,0,1-1,2.35,3.28,3.28,0,0,1-2.35,1H53.21a3.35,3.35,0,0,1-3.33-3.33V67.94a3.35,3.35,0,0,1,3.33-3.33Zm34.11,8.22H57.39v9.06H87.32V72.83ZM81.67,99.92H87a.83.83,0,0,1,.83.83v4.51a.83.83,0,0,1-.83.83H81.67a.84.84,0,0,1-.84-.83v-4.51a.84.84,0,0,1,.84-.83Zm0-10.7H87a.84.84,0,0,1,.83.84v4.5a.83.83,0,0,1-.83.83H81.67a.84.84,0,0,1-.84-.83v-4.5a.85.85,0,0,1,.84-.84Zm0,21.4H87a.83.83,0,0,1,.83.83V116a.84.84,0,0,1-.83.84H81.67a.84.84,0,0,1-.84-.84v-4.5a.85.85,0,0,1,.84-.83Zm-12-10.7H75a.84.84,0,0,1,.84.83v4.51a.84.84,0,0,1-.84.83H69.63a.84.84,0,0,1-.84-.83v-4.51a.84.84,0,0,1,.84-.83Zm0-10.7H75a.85.85,0,0,1,.84.84v4.5a.84.84,0,0,1-.84.83H69.63a.84.84,0,0,1-.84-.83v-4.5a.85.85,0,0,1,.84-.84Zm0,21.4H75a.84.84,0,0,1,.84.83V116a.85.85,0,0,1-.84.84H69.63a.84.84,0,0,1-.84-.84v-4.5a.85.85,0,0,1,.84-.83ZM57.81,89.22h5.33a.84.84,0,0,1,.84.84v4.5a.84.84,0,0,1-.84.83H57.81a.83.83,0,0,1-.83-.83v-4.5a.84.84,0,0,1,.83-.84Zm0,21.4h5.33a.84.84,0,0,1,.84.83V116a.84.84,0,0,1-.84.84H57.81A.84.84,0,0,1,57,116v-4.5a.84.84,0,0,1,.83-.83Zm0-10.7h5.33a.84.84,0,0,1,.84.83v4.51a.84.84,0,0,1-.84.83H57.81a.83.83,0,0,1-.83-.83v-4.51a.83.83,0,0,1,.83-.83ZM91.49,66.83H53.21a1.11,1.11,0,0,0-1.1,1.11v51.61a1.11,1.11,0,0,0,1.1,1.11H91.49a1.13,1.13,0,0,0,1.11-1.11V67.94a1.13,1.13,0,0,0-1.11-1.11ZM48.26,21.27a2,2,0,0,1-1.72-2.15A2,2,0,0,1,48.26,17H78.53a2,2,0,0,1,1.72,2.15,2,2,0,0,1-1.72,2.15Zm0,21.79a2.2,2.2,0,0,1,0-4.3h19.9a2.2,2.2,0,0,1,0,4.3Zm0-10.9A2,2,0,0,1,46.54,30a2,2,0,0,1,1.72-2.14H72.31A2,2,0,0,1,74,30a2,2,0,0,1-1.72,2.15ZM27,43.31c-.85-.05-1-.12-1.81-.23s-1.42-.2-2.09-.32-1.31-.27-1.93-.43V36.82c.81.07,1.69.13,2.63.17s1.89.09,2.86.11,1.87,0,2.7,0a9,9,0,0,0,2-.18,2.37,2.37,0,0,0,1.18-.57,1.48,1.48,0,0,0,.4-1.08v-.43a1.36,1.36,0,0,0-.56-1.18,2.21,2.21,0,0,0-1.31-.39H29.17q-4.16,0-6.3-1.83t-2.15-6.12V24.18a7.2,7.2,0,0,1,2.36-5.88A6.51,6.51,0,0,1,27,16.47V14.19h5.36v2.2a30.17,30.17,0,0,1,5.81,1v5.51c-1.1-.09-2.33-.17-3.71-.23s-2.62-.09-3.74-.09a9.65,9.65,0,0,0-1.79.15,2.15,2.15,0,0,0-1.21.57,1.66,1.66,0,0,0-.43,1.25v.36a1.66,1.66,0,0,0,.57,1.36,2.75,2.75,0,0,0,1.75.46H32a8.31,8.31,0,0,1,4.16,1,6.17,6.17,0,0,1,2.51,2.58,7.94,7.94,0,0,1,.84,3.7v1.18a9.4,9.4,0,0,1-1.18,5.19A5.8,5.8,0,0,1,35,42.74a9.74,9.74,0,0,1-2.59.56v2.55H27V43.31Z"/></svg>