<svg id="Layer_1" data-name="Layer 1" xmlns="http://www.w3.org/2000/svg" viewBox="0 0 110.46 122.88"><defs><style>.cls-1{fill-rule:evenodd;}</style></defs><title>legal-contract-paper</title><path class="cls-1" d="M78.06,80.32a2.94,2.94,0,0,1,1.8.56c.7.45,1.49,1.33,2.47,1.88,1.38.79,3.93-.29,5.23,1.65a5.11,5.11,0,0,1,.85,2.89,5,5,0,0,0,1.2,3.08c1.6,2.12,1.93,3.53,1.11,5-.57,1-1.75,1.56-2,2.19-.58,1.35.06,2.36-.73,3.94a4.19,4.19,0,0,1-2.55,2.17c-1,.31-1.93-.14-2.7.19-1.35.57-2.34,1.89-3.42,2.23a4.06,4.06,0,0,1-1.24.19,4.11,4.11,0,0,1-1.24-.19c-1.08-.33-2.07-1.66-3.42-2.23-.77-.32-1.73.12-2.7-.19a4.11,4.11,0,0,1-2.54-2.17c-.8-1.58-.16-2.59-.74-3.94-.27-.64-1.45-1.2-2-2.19-.83-1.47-.5-2.88,1.11-5a5.06,5.06,0,0,0,1.2-3.08,5.07,5.07,0,0,1,.85-2.89c1.3-1.94,3.86-.85,5.23-1.65,1-.55,1.77-1.44,2.47-1.88a3,3,0,0,1,1.8-.56ZM15.63,122.87c-3.94.06-7.4-.11-10.13-1.39C2.05,119.86,0,116.8,0,111v-5.29H15.1V13.39c-.22-5.31,1.07-8.61,3.44-10.67S24.11.08,27.89,0c.18-.09,74.82,0,82.57,0V110.15c0,4.46-1.1,7.62-3.36,9.73s-5.46,3-9.78,3ZM34.05,23.51a2.13,2.13,0,1,1,0-4.26H72.9a2.13,2.13,0,0,1,0,4.26Zm0,14.51a2.13,2.13,0,0,1,0-4.26h57.1a2.13,2.13,0,0,1,0,4.26Zm0,43.5a2.12,2.12,0,0,1,0-4.24H53.76a2.12,2.12,0,0,1,0,4.24Zm0-14.49a2.13,2.13,0,0,1,0-4.26h57.1a2.13,2.13,0,0,1,0,4.26Zm0-14.54a2.1,2.1,0,1,1,0-4.2H91.48a2.1,2.1,0,1,1,0,4.2ZM33,96.81c4.94-6.49,9.15-3.55,15,.55l.87.61c1.61,1.12,3.48-.53,5.25-2.1a22,22,0,0,1,2.62-2.09l1.82,2.87a18.92,18.92,0,0,0-2.18,1.76c-2.76,2.43-5.65,5-9.44,2.35l-.89-.62c-4.31-3-7.4-5.17-10.37-1.27L33,96.81ZM15.1,110H4.26v1c0,3.83,1.14,5.74,3,6.63s4.61,1,7.81,1V110Zm91.11.18V4.3H27.91c-2.83,0-5.15.39-6.59,1.63s-2.14,3.47-2,7.36V118.61h78c3.22,0,5.51-.56,6.88-1.85s2-3.4,2-6.61ZM78.06,85.52a7.78,7.78,0,1,1-7.77,7.78,7.78,7.78,0,0,1,7.77-7.78Z"/></svg>