<svg xmlns="http://www.w3.org/2000/svg" shape-rendering="geometricPrecision" text-rendering="geometricPrecision" image-rendering="optimizeQuality" fill-rule="evenodd" clip-rule="evenodd" viewBox="0 0 415 512.17"><path d="M25.03 47.34h60.01l-2.61 24.38H42.07c-11.3 0-21.12 9.83-21.12 21.12V447.2c0 11.23 9.52 21.14 21.12 21.14h182.75c3.03 7.57 6.86 14.73 11.37 21.38H25.03C11.36 489.72 0 478.47 0 464.7V72.37C0 58.6 11.26 47.34 25.03 47.34zm88.2 151.14H74.32V137.7h19.46v45.22h19.45v15.56zm5.35-30.34c0-11.09 2.07-19.18 6.22-24.27s11.64-7.64 22.47-7.64c10.82 0 18.31 2.55 22.47 7.64 4.14 5.09 6.22 13.18 6.22 24.27 0 5.51-.44 10.14-1.31 13.9-.88 3.76-2.39 7.04-4.53 9.83-2.13 2.78-5.09 4.83-8.85 6.12-3.76 1.3-8.43 1.95-14 1.95-5.58 0-10.25-.65-14.01-1.95-3.76-1.29-6.71-3.34-8.85-6.12-2.14-2.79-3.65-6.07-4.52-9.83-.88-3.76-1.31-8.39-1.31-13.9zm20.91-10.12v25.29h8.07c2.66 0 4.58-.31 5.78-.93 1.21-.61 1.81-2.03 1.81-4.23v-25.28h-8.17c-2.6 0-4.5.31-5.69.92-1.2.62-1.8 2.02-1.8 4.23zm60.69 40.46h-20.52l15.75-60.78h30.05l15.76 60.78H220.7l-2.24-9.63h-16.05l-2.23 9.63zm7.64-43.42-3.21 19.63h11.55l-3.1-19.63h-5.24zm75.71 43.42-14.89-21.59c-.51-.71-.84-2.27-.97-4.67h-.38v26.26h-19.46V137.7h18.29L281 159.29c.52.71.84 2.26.97 4.67h.39V137.7h19.45v60.78h-18.28zm71.59 118.48V92.84c0-11.59-9.83-21.12-21.13-21.12h-42.9V47.34h60.01c13.77 0 25.03 11.38 25.03 25.03v251.78a112.2 112.2 0 0 0-21.01-7.19zM74.99 420.36c-4.85 0-8.8-3.94-8.8-8.8 0-4.85 3.95-8.79 8.8-8.79h144.36c-1.24 5.72-2.03 11.59-2.36 17.59h-142zm0-53.16c-4.85 0-8.8-3.94-8.8-8.8 0-4.85 3.95-8.79 8.8-8.79h172.26a112.79 112.79 0 0 0-13.5 17.59H74.99zm0-53.16c-4.85 0-8.8-3.94-8.8-8.79s3.95-8.79 8.8-8.79h179.14c4.85 0 8.79 3.94 8.79 8.79s-3.94 8.79-8.79 8.79H74.99zm0-53.16c-4.85 0-8.8-3.94-8.8-8.79s3.95-8.79 8.8-8.79h226.16c4.85 0 8.79 3.94 8.79 8.79s-3.94 8.79-8.79 8.79H74.99zM119.7 34.95h28.36C150.45 15.24 166.36 0 185.65 0c19.16 0 35 15.04 37.56 34.54l33.19.41c2.32 0 4.18 1.86 4.18 4.17v44.82c0 2.31-1.86 4.17-4.18 4.17H119.73c-2.26 0-4.17-1.86-4.17-4.17V39.12c-.04-2.31 1.82-4.17 4.14-4.17zm50.42 17.14c2.56 3.51 6.23 6.98 10.12 8.76 3.18.96 6.65 1.04 9.86.16 5.06-2.31 9.68-7.88 11.83-12.55.24-1.32.42-2.68.42-4.17 0-9.88-7.57-17.89-16.91-17.89-9.33 0-16.9 8.01-16.9 17.89.06 2.97.58 5.61 1.58 7.8z"/><path fill="#00A912" d="M329.42 341c47.28 0 85.58 38.33 85.58 85.58 0 47.28-38.32 85.59-85.58 85.59-47.28 0-85.58-38.33-85.58-85.59 0-47.28 38.32-85.58 85.58-85.58z"/><path fill="#fff" d="m302.86 412.98 15.17 14.33 35.85-36.34c2.97-3.01 4.83-5.43 8.49-1.66l11.89 12.18c3.9 3.85 3.7 6.12.02 9.71l-49.47 48.67c-7.76 7.61-6.41 8.07-14.28.26l-27.68-27.52c-1.64-1.77-1.46-3.57.33-5.34l13.8-14.31c2.09-2.2 3.76-2.01 5.88.02z"/></svg>