<svg xmlns="http://www.w3.org/2000/svg" shape-rendering="geometricPrecision" text-rendering="geometricPrecision" image-rendering="optimizeQuality" fill-rule="evenodd" clip-rule="evenodd" viewBox="0 0 393 511.7"><path d="M26.15 49.46h62.7l-2.72 25.48H43.96c-11.81 0-22.08 10.27-22.08 22.07v370.26c0 11.74 9.95 22.08 22.08 22.08h305.02c12.12 0 22.07-9.96 22.07-22.08V97.01c0-12.12-10.27-22.07-22.07-22.07h-44.83V49.46h62.7c14.38 0 26.15 11.89 26.15 26.15v409.94c0 14.29-11.86 26.15-26.15 26.15H26.15C11.86 511.7 0 499.94 0 485.55V75.61c0-14.38 11.77-26.15 26.15-26.15zm52.2 389.76c-5.08 0-9.19-4.11-9.19-9.19 0-5.07 4.11-9.18 9.19-9.18h164.29c5.07 0 9.19 4.11 9.19 9.18 0 5.08-4.12 9.19-9.19 9.19H78.35zm0-55.54c-5.08 0-9.19-4.12-9.19-9.19 0-5.07 4.11-9.19 9.19-9.19h220.84c5.08 0 9.19 4.12 9.19 9.19 0 5.07-4.11 9.19-9.19 9.19H78.35zm0-55.55c-5.08 0-9.19-4.11-9.19-9.19 0-5.07 4.11-9.18 9.19-9.18h236.3c5.08 0 9.19 4.11 9.19 9.18 0 5.08-4.11 9.19-9.19 9.19H78.35zm0-55.54c-5.08 0-9.19-4.12-9.19-9.19 0-5.07 4.11-9.19 9.19-9.19h236.3c5.08 0 9.19 4.12 9.19 9.19 0 5.07-4.11 9.19-9.19 9.19H78.35zm39.95-65.21H77.65v-63.51h20.33v47.25h20.32v16.26zm5.59-31.7c0-11.59 2.17-20.04 6.51-25.36 4.33-5.31 12.16-7.97 23.47-7.97 11.32 0 19.14 2.66 23.48 7.97 4.33 5.32 6.5 13.77 6.5 25.36 0 5.76-.46 10.6-1.37 14.53-.92 3.93-2.49 7.35-4.73 10.26-2.23 2.92-5.31 5.05-9.25 6.41-3.92 1.35-8.8 2.03-14.63 2.03-5.82 0-10.7-.68-14.63-2.03-3.93-1.36-7.01-3.49-9.25-6.41-2.24-2.91-3.81-6.33-4.72-10.26-.92-3.93-1.38-8.77-1.38-14.53zm21.85-10.57v26.42h8.44c2.77 0 4.79-.32 6.04-.97 1.26-.64 1.88-2.11 1.88-4.42v-26.42h-8.53c-2.71 0-4.69.33-5.95.97-1.25.64-1.88 2.12-1.88 4.42zm63.42 42.27h-21.45l16.47-63.51h31.4l16.46 63.51H230.6l-2.34-10.06h-16.77l-2.33 10.06zm7.98-45.36-3.35 20.51h12.07l-3.25-20.51h-5.47zm79.11 45.36-15.55-22.55c-.54-.75-.88-2.38-1.02-4.88h-.4v27.43h-20.33v-63.51h19.11l15.54 22.56c.55.75.88 2.37 1.02 4.88h.41v-27.44h20.32v63.51h-19.1zM125.07 36.52h29.63C157.2 15.92 173.83 0 193.98 0c20.02 0 36.56 15.71 39.24 36.09l34.68.43c2.42 0 4.37 1.94 4.37 4.35v46.84c0 2.41-1.95 4.35-4.37 4.35H125.1c-2.37 0-4.36-1.94-4.36-4.35V40.87c-.04-2.41 1.91-4.35 4.33-4.35zm52.68 17.91c2.67 3.67 6.51 7.3 10.58 9.15 3.32 1 6.94 1.09 10.3.17 5.28-2.41 10.11-8.24 12.35-13.11.26-1.39.44-2.81.44-4.37 0-10.32-7.9-18.69-17.66-18.69-9.75 0-17.66 8.37-17.66 18.69.06 3.1.61 5.87 1.65 8.16z"/></svg>