<svg xmlns="http://www.w3.org/2000/svg" shape-rendering="geometricPrecision" text-rendering="geometricPrecision" image-rendering="optimizeQuality" fill-rule="evenodd" clip-rule="evenodd" viewBox="0 0 415 512.17"><path d="M25.03 47.34h60.01l-2.61 24.38H42.07c-11.3 0-21.12 9.83-21.12 21.12v354.37c0 11.23 9.52 21.13 21.12 21.13h182.75c3.03 7.56 6.86 14.73 11.37 21.38H25.03C11.35 489.72 0 478.47 0 464.7V72.37C0 58.6 11.26 47.34 25.03 47.34zm88.19 151.14h-38.9V137.7h19.46v45.22h19.44v15.56zm5.35-30.34c0-11.09 2.08-19.18 6.23-24.27s11.64-7.64 22.46-7.64c10.83 0 18.32 2.55 22.48 7.64 4.14 5.09 6.22 13.18 6.22 24.27 0 5.51-.44 10.14-1.32 13.91-.88 3.75-2.38 7.03-4.52 9.82-2.14 2.79-5.09 4.83-8.85 6.12-3.76 1.3-8.43 1.95-14.01 1.95-5.57 0-10.24-.65-14-1.95-3.76-1.29-6.71-3.33-8.85-6.12-2.14-2.79-3.65-6.07-4.52-9.82-.88-3.77-1.32-8.4-1.32-13.91zm20.92-10.12v25.29h8.07c2.65 0 4.58-.31 5.78-.93 1.21-.61 1.8-2.03 1.8-4.23v-25.28h-8.17c-2.59 0-4.49.31-5.69.92-1.19.62-1.79 2.03-1.79 4.23zm60.69 40.46h-20.52l15.75-60.78h30.05l15.76 60.78H220.7l-2.24-9.63h-16.05l-2.23 9.63zm7.64-43.42-3.21 19.63h11.55l-3.1-19.63h-5.24zm75.71 43.42-14.89-21.59c-.51-.71-.84-2.27-.97-4.67h-.39v26.26h-19.45V137.7h18.29l14.87 21.59c.52.71.84 2.26.97 4.67h.4V137.7h19.45v60.78h-18.28zm-208.55 62.4c-4.85 0-8.79-3.94-8.79-8.79s3.94-8.79 8.79-8.79h226.16c4.85 0 8.79 3.94 8.79 8.79s-3.94 8.79-8.79 8.79H74.98zm280.14 56.07V92.84c0-11.59-9.83-21.12-21.13-21.12h-42.9V47.34h60.01c13.77 0 25.02 11.38 25.02 25.03v251.78c-6.68-3.06-13.7-5.49-21-7.2zM74.98 420.36c-4.85 0-8.79-3.94-8.79-8.79 0-4.86 3.94-8.8 8.79-8.8h144.37c-1.24 5.72-2.03 11.59-2.36 17.59H74.98zm0-53.16c-4.85 0-8.79-3.94-8.79-8.79 0-4.86 3.94-8.8 8.79-8.8h172.27a112.79 112.79 0 0 0-13.5 17.59H74.98zm0-53.16c-4.85 0-8.79-3.94-8.79-8.79s3.94-8.79 8.79-8.79h179.14c4.86 0 8.8 3.94 8.8 8.79s-3.94 8.79-8.8 8.79H74.98zm44.71-279.09h28.37C150.45 15.24 166.36 0 185.65 0c19.16 0 34.99 15.04 37.55 34.54l33.2.41c2.31 0 4.17 1.87 4.17 4.17v44.82c0 2.31-1.86 4.17-4.17 4.17H119.73c-2.27 0-4.17-1.86-4.17-4.17V39.12c-.04-2.3 1.82-4.17 4.13-4.17zm50.43 17.14c2.56 3.51 6.23 6.98 10.12 8.76 3.17.96 6.65 1.04 9.86.16 5.05-2.31 9.68-7.88 11.82-12.55.25-1.32.42-2.68.42-4.17 0-9.88-7.56-17.89-16.9-17.89-9.33 0-16.9 8.01-16.9 17.89.05 2.97.59 5.61 1.58 7.8z"/><path fill="#F44336" d="M329.42 341c47.28 0 85.58 38.33 85.58 85.58 0 47.29-38.33 85.59-85.58 85.59-47.29 0-85.59-38.33-85.59-85.59 0-47.28 38.33-85.58 85.59-85.58z"/><path fill="#fff" d="M293.12 410.26c-3.02-2.97-5.44-4.83-1.67-8.49l12.18-11.89c3.86-3.91 6.12-3.71 9.71-.02l16.42 16.41 16.31-16.31c2.97-3.02 4.83-5.44 8.49-1.67l11.89 12.18c3.9 3.86 3.71 6.12.02 9.71l-16.4 16.4 16.4 16.4c3.69 3.6 3.88 5.86-.02 9.72l-11.89 12.18c-3.66 3.77-5.52 1.35-8.49-1.67l-16.31-16.31-16.42 16.41c-3.59 3.69-5.85 3.88-9.71-.02l-12.18-11.89c-3.77-3.66-1.35-5.52 1.67-8.49l16.32-16.33-16.32-16.32z"/></svg>