<svg xmlns="http://www.w3.org/2000/svg" shape-rendering="geometricPrecision" text-rendering="geometricPrecision" image-rendering="optimizeQuality" fill-rule="evenodd" clip-rule="evenodd" viewBox="0 0 415 512.16"><path fill-rule="nonzero" d="M74.98 260.88c-4.85 0-8.79-3.94-8.79-8.79s3.94-8.79 8.79-8.79h226.16c4.85 0 8.79 3.94 8.79 8.79s-3.94 8.79-8.79 8.79H74.98zm0 53.16c-4.85 0-8.79-3.94-8.79-8.79s3.94-8.79 8.79-8.79h179.14c4.85 0 8.79 3.94 8.79 8.79s-3.94 8.79-8.79 8.79H74.98zm0 53.16c-4.85 0-8.79-3.95-8.79-8.8 0-4.85 3.94-8.79 8.79-8.79h172.26c-5.05 5.39-9.57 11.28-13.49 17.59H74.98zm0 53.15c-4.85 0-8.79-3.94-8.79-8.79s3.94-8.79 8.79-8.79h144.37c-1.24 5.71-2.04 11.59-2.36 17.58H74.98zm38.24-221.87h-38.9v-60.79h19.45v45.23h19.45v15.56zm5.35-30.34c0-11.09 2.08-19.18 6.23-24.27s11.64-7.64 22.46-7.64c10.83 0 18.32 2.55 22.47 7.64 4.15 5.09 6.22 13.18 6.22 24.27 0 5.5-.43 10.14-1.31 13.9-.88 3.76-2.38 7.04-4.52 9.82-2.14 2.79-5.09 4.84-8.85 6.13-3.76 1.3-8.43 1.95-14.01 1.95-5.57 0-10.24-.65-14-1.95-3.76-1.29-6.71-3.34-8.85-6.13-2.14-2.78-3.65-6.06-4.52-9.82-.88-3.76-1.32-8.4-1.32-13.9zm20.92-10.12v25.29h8.07c2.65 0 4.58-.31 5.78-.93 1.21-.61 1.8-2.03 1.8-4.23v-25.28h-8.17c-2.59 0-4.49.31-5.69.92-1.19.61-1.79 2.02-1.79 4.23zm60.69 40.46h-20.52l15.75-60.79h30.05l15.76 60.79H220.7l-2.24-9.63h-16.05l-2.23 9.63zm7.64-43.42-3.21 19.63h11.55l-3.1-19.63h-5.24zm75.7 43.42-14.88-21.59c-.51-.71-.84-2.27-.97-4.67h-.39v26.26h-19.45v-60.79h18.29l14.87 21.6c.52.71.84 2.26.97 4.66h.4v-26.26h19.45v60.79h-18.29zM25.03 47.34h60.01l-2.61 24.38H42.07c-11.3 0-21.12 9.83-21.12 21.12V447.2c0 11.23 9.52 21.13 21.12 21.13h182.75c3.02 7.57 6.85 14.74 11.37 21.39H25.03C11.35 489.72 0 478.47 0 464.69V72.37C0 58.6 11.26 47.34 25.03 47.34zm330.08 269.61V92.84c0-11.59-9.82-21.12-21.12-21.12h-42.9V47.34h60.01c13.76 0 25.02 11.38 25.02 25.03v251.77c-6.68-3.06-13.71-5.48-21.01-7.19zm-235.42-282h28.37C150.45 15.24 166.36 0 185.65 0c19.16 0 34.99 15.04 37.55 34.54l33.2.41c2.31 0 4.17 1.86 4.17 4.17v44.82c0 2.31-1.86 4.17-4.17 4.17H119.73c-2.27 0-4.17-1.86-4.17-4.17V39.12c-.04-2.31 1.82-4.17 4.13-4.17zm50.43 17.14c2.56 3.51 6.23 6.98 10.12 8.76 3.17.96 6.64 1.04 9.86.16 5.05-2.31 9.68-7.88 11.82-12.55.25-1.32.42-2.68.42-4.17 0-9.88-7.56-17.89-16.9-17.89-9.33 0-16.9 8.01-16.9 17.89.05 2.97.58 5.61 1.58 7.8z"/><path fill="#FF7900" d="M329.42 341c47.26 0 85.58 38.32 85.58 85.58 0 47.27-38.32 85.58-85.58 85.58s-85.58-38.31-85.58-85.58c0-47.26 38.32-85.58 85.58-85.58zm-10.06 52.45c0-13.13 20.01-13.15 20.01.02v35.87l22.61 11.96c.12.06.23.13.33.2l.2.14c10.49 6.88.73 23.42-10.5 16.92l-.04-.03-27.35-14.63c-3.21-1.72-5.29-5.11-5.29-8.76h.01l.02-41.69z"/></svg>