<svg id="Layer_1" data-name="Layer 1" xmlns="http://www.w3.org/2000/svg" viewBox="0 0 122.88 105.47"><defs><style>.cls-1{fill-rule:evenodd;}</style></defs><title>money-fly</title><path class="cls-1" d="M74.74,64.24H75c9.78-.24,17.84,3,27,3.84,4.55.44,10.41.24,20.88-1.34C121.64,74.28,108.43,80,93.29,78.24c3.66,2.31,8.37,3.49,14.42,3.19-4.85,7.71-13.86,9-28.72,2.9,2.34,2.64,5.77,4.69,10.92,6-9.63,9.09-18.8-1-28.88-2.33L74.74,64.24ZM84,39.92,46.13,105.47,12,85.8,49.89,20.25,84,39.92ZM58,68.65a11.58,11.58,0,1,1-4.24-15.82A11.57,11.57,0,0,1,58,68.65ZM72.45,47.88,47.29,91.46a5.83,5.83,0,0,0-7.94,2.13L25.88,85.81a5.83,5.83,0,0,0-2.13-7.94L48.91,34.29a5.83,5.83,0,0,0,7.94-2.13l13.48,7.78a5.82,5.82,0,0,0,2.12,7.94ZM33.26,40.72,33,40.2c-4.68-8.59-11.48-14-16.81-21.44C13.5,15,10.75,9.86,6.89,0,1,4.85,2.66,19.13,11.71,31.38c-3.83-2-7.2-5.5-10-10.9C-2.51,28.55.89,37,13.59,46.81c-3.46-.71-6.95-2.65-10.65-6.46-3.08,13,10.51,15.85,16.63,24.08L33.26,40.72Z"/></svg>