<svg id="Layer_1" data-name="Layer 1" xmlns="http://www.w3.org/2000/svg" viewBox="0 0 105.05 122.88"><defs><style>.cls-1{fill-rule:evenodd;}</style></defs><title>money-saving</title><path class="cls-1" d="M68.11,51.49a18.57,18.57,0,0,1,3.74-1.91A40.38,40.38,0,0,1,79.39,49c3.64-.09,7.27.23,7.63,1a4,4,0,0,1,.41,2.1,4.73,4.73,0,0,1-.68,2A13.94,13.94,0,0,1,82.44,58c-1.66,1.14-3.18,2.19-2.93,3,0,.07.18.2.42.4a15.56,15.56,0,0,0,1.44,1,22.17,22.17,0,0,1,5.37,4.44,27.81,27.81,0,0,1,3.8,5.89c.34.67.67,1.37,1,2.09s.66,1.54,1,2.33l.06.25a6.8,6.8,0,0,0,.74,2.39c.15.25.3.37.44.37h1.76l.69,0c1.64-.12,2.56-.18,3.51,2.28a16.84,16.84,0,0,1,.79,6.43,23.5,23.5,0,0,1-1.25,6.91,4.8,4.8,0,0,1-1.61,2.79,5.61,5.61,0,0,1-3.25,1.19h-2c-.83,0-1.56,0-2.1,0s-.62-.09-.69-.05,0,.05-.11.23a19.77,19.77,0,0,1-2,2.42c-.82.85-1.78,1.79-2.7,2.66s-1.7,1.56-2.4,2.15l-.43.36a7.37,7.37,0,0,0-1.2,1.07,7.57,7.57,0,0,0,.67,1.88c.2.48.32.76.36.87.47,1.15.94,2.26,1.36,3.23.71,1.64,1.5,3.38,1.75,4l0,.06c.58,1.47.45,2.59-.36,3.39a4,4,0,0,1-3.24.83H74.33a4.79,4.79,0,0,1-2.74-.63,7.16,7.16,0,0,1-2.24-2.11l-.06-.11a18.13,18.13,0,0,1-.8-1.64c-.67-1.51-1.51-3.38-2.19-3.11a42.35,42.35,0,0,1-14.19,3.08,49.66,49.66,0,0,1-16.17-2.41c-1.73-.24-2.08.49-2.64,1.65-.16.33-.32.68-.55,1.12h0c-.14.28-.19.4-.24.5-.8,1.71-1.57,3.36-4,3.85l-.26,0-8.91-.07h-.09a3.54,3.54,0,0,1-1.45-.39,2.65,2.65,0,0,1-1.14-1.11c-.79-1.45-.26-2.54.28-3.65h0l.21-.43h0l3.13-6.85.06-.12a2.09,2.09,0,0,0,.38-1.39,2,2,0,0,0-.77-1h0c-.62-.44-1.23-.9-1.81-1.36s-1.17-1-1.73-1.49a32.21,32.21,0,0,1-5-5.84A30.67,30.67,0,0,1,8,92.41a25.73,25.73,0,0,1-1.36-5.67c0-.44-.09-.89-.12-1.34a11.22,11.22,0,0,1-5.9-7.13c-1-3.33-.87-7.47.61-12.08l2.5.8a18,18,0,0,0-.59,10.52A8.86,8.86,0,0,0,6.59,82.4c0-.39.08-.79.13-1.18A28.77,28.77,0,0,1,11.38,69.4,36.27,36.27,0,0,1,23.73,58l.2.14L39.64,68a47.29,47.29,0,0,0-8.16,2,3.74,3.74,0,0,0,2.44,7.07A40,40,0,0,1,47.23,75,47.49,47.49,0,0,1,61,77.19,3.75,3.75,0,0,0,63.18,70a59.27,59.27,0,0,0-6.1-1.55l11-17ZM104.17,4.61H95.29a.89.89,0,0,0-.88.87V27.05a.88.88,0,0,0,.88.87h8.88a.88.88,0,0,0,.88-.87V5.48a.88.88,0,0,0-.88-.87Zm-12,3.85a1.68,1.68,0,0,0-.28-1.05c-.57-.77-2-.54-2.85-.54a12.58,12.58,0,0,1-2.73-.22,31.09,31.09,0,0,1-3.89-1.29c-4.83-1.73-8.94-2.8-14-5a3.88,3.88,0,0,0-3.25,0A84.62,84.62,0,0,0,51.59,6.73a5.43,5.43,0,0,0-1.16.84,5.16,5.16,0,0,0-.87,1.17c-2.79,4-5.18,8.16-7.47,12.27-.77,1.44-1.09,2.81-.56,3.67,2.15,3.54,6-1.49,10.2-4.84,1.76-1.41,4.15-2.66,6.2-4.09,2.64-1.1,3.87-2.15,6.7-2.74,4.34-.38,4.7,5.85-1,6.08-3.87.15-11.85,3.66-14.09,6.9-2.09,3-.94,6,3.32,5.87l3.56-.66c5.66-1.07,5.5-1.28,11.41-.18,3.17.58,6.49,1.2,9.75.59,2-.37,3-1.17,4.81-2.52a16.37,16.37,0,0,1,2.83-2A10.82,10.82,0,0,1,87.8,26c1.36-.32,3.27.14,4.06-1a2.23,2.23,0,0,0,.33-1.17V8.46ZM47.89,36.32a6.29,6.29,0,1,0,7.48.57c-.62.13-1.17.26-1.52.32h0a6.4,6.4,0,0,1-.88.09,11.14,11.14,0,0,1-5.08-1Zm-6.63-4.9L27.08,53.25l23.39,14.8L70.63,37c-1.33-.18-2.57-.41-3.79-.63l-.78-.15-14.49,22a4.09,4.09,0,0,0-5.64,1.26l-9.24-5.86A4.09,4.09,0,0,0,35.43,48l9.31-14.13a8.22,8.22,0,0,1-1.2-2.2,5.83,5.83,0,0,1-2.28-.2Zm36.11,44a4.27,4.27,0,1,1-3,1.25,4.17,4.17,0,0,1,3-1.25Z"/></svg>