<svg xmlns="http://www.w3.org/2000/svg" shape-rendering="geometricPrecision" text-rendering="geometricPrecision" image-rendering="optimizeQuality" fill-rule="evenodd" clip-rule="evenodd" viewBox="0 0 512 332"><path d="M10.58 310.88h52.46c-3.87-1.01-6.79-4.59-6.79-8.75V85.46c0-4.96 4.08-9.05 9.04-9.05h71.26v14.17H71.71v208.96h367.46V90.58h-63.72V76.41h68.88c4.96 0 9.04 4.09 9.04 9.05v216.62c0 4.21-2.87 7.75-6.79 8.75h54.84c5.83 0 10.58 4.75 10.58 10.59 0 5.83-4.75 10.58-10.58 10.58H10.58C4.75 332 0 327.25 0 321.42c0-5.79 4.75-10.54 10.58-10.54zm169.41-41.76H147.3v-51.09h16.34v38.01h16.35v13.08zm4.5-25.51c0-9.31 1.74-16.11 5.22-20.39 3.49-4.27 9.79-6.41 18.89-6.41 9.1 0 15.39 2.14 18.88 6.41 3.48 4.28 5.23 11.08 5.23 20.39 0 4.64-.37 8.53-1.11 11.69-.73 3.16-2 5.92-3.8 8.26-1.8 2.34-4.28 4.06-7.43 5.15-3.16 1.09-7.09 1.63-11.77 1.63-4.69 0-8.61-.54-11.77-1.63-3.16-1.09-5.64-2.81-7.44-5.15-1.8-2.34-3.07-5.1-3.8-8.26-.74-3.16-1.1-7.05-1.1-11.69zm17.28-8.49v21.24h6.79c2.23 0 4.42-.25 5.43-.77 1-.51 1.51-1.7 1.51-3.56v-21.24h-7.43c-2.17 0-3.78.25-4.78.77-1.01.51-1.52 1.71-1.52 3.56zm65.27 18.96v-2.78h-4.17v-11.93h19.69v27.3a56.372 56.372 0 0 1-20.1 3.67c-9.32 0-15.72-2.26-19.21-6.78-1.8-2.34-3.05-5.1-3.76-8.26s-1.06-7.06-1.06-11.73c0-4.66.36-8.55 1.1-11.68.73-3.14 2.06-5.88 3.97-8.22 3.59-4.57 10.54-6.86 20.84-6.86 2.12 0 4.89.21 8.29.65 3.41.44 5.9.93 7.48 1.47l-2.45 12.51c-4.41-.76-8.41-1.15-11.97-1.15-3.58 0-6.93.28-8.37.82-1.44.54-2.17 1.64-2.17 3.27v23.13h6.24c1.97 0 3.4-.2 4.3-.61.89-.41 1.35-1.35 1.35-2.82zm25.33 15.04v-51.09h16.34v51.09h-16.34zm56.97 0-12.51-18.15c-.44-.6-.71-1.91-.82-3.92h-.32v22.07h-16.35v-51.09h15.37l12.5 18.15c.44.6.71 1.91.82 3.92h.32v-22.07h16.35v51.09h-15.36zM158.74 68.97 256 0l97.76 68.97H158.74zm-4.63 103.58h11.31v-10.5h5.94v-5h6.38V96.96h-13.05V82.57H347.3v14.39h-13.04v60.09h6.39v5h5.93v10.5h11.31v10.99H154.11v-10.99zm54.05-10.5h7.36v-5h6.38V96.96h-20.13v60.09h6.39v5zm44.16 0h7.38v-5h6.37V96.96h-20.14v60.09h6.39v5zm44.16 0h7.38v-5h6.39V96.96H290.1v60.09h6.38v5zM223.25 51.58l32.9-25.25 33.09 25.25h-65.99zm17.88 263.25h29.74c2.8 0 5.09 2.29 5.09 5.09 0 2.79-2.29 5.08-5.09 5.08h-29.74c-2.8 0-5.09-2.29-5.09-5.08 0-2.84 2.29-5.09 5.09-5.09z"/></svg>