<svg xmlns="http://www.w3.org/2000/svg" viewBox="0 0 467.77 94.07"><defs><style>.a{fill:#f0b90b;}</style></defs><title>binance</title><path class="a" d="M21.22,47,10.66,57.6,0,47,10.66,36.38ZM47,21.22,65.22,39.41,75.88,28.75,47,0,18.19,28.85,28.85,39.5ZM83.41,36.38,72.85,47,83.5,57.69,94.16,47ZM47,72.85,28.85,54.57,18.19,65.22,47,94.07,75.88,65.22,65.22,54.57ZM47,57.6,57.69,46.94,47,36.38,36.38,47,47,57.6Zm112.08,1.1v-.18c0-6.89-3.68-10.38-9.65-12.68,3.67-2,6.8-5.33,6.8-11.12v-.18c0-8.08-6.52-13.32-17-13.32h-24V72.76h24.53c11.66.09,19.29-4.69,19.29-14.06ZM145,36.66c0,3.85-3.13,5.41-8.18,5.41H126.31V31.14h11.21c4.78,0,7.44,1.93,7.44,5.33Zm2.85,20.57c0,3.86-3,5.61-8,5.61h-13.5V51.53h13.14c5.79,0,8.36,2.12,8.36,5.61v.09ZM182.9,72.85V21.22H171.51V72.76H182.9v.09Zm61,0V21.22H232.69V53L208.53,21.22H198.06V72.76h11.21V40.05l25,32.8h9.65Zm62.83,0L284.59,21H274.13L252,72.85h11.67l4.69-11.58h21.77l4.68,11.58h11.94ZM286.06,51.26H272.37l6.89-16.72Zm74.78,21.59V21.22H349.63V53L325.47,21.22H315V72.76h11.21V40.05l25,32.8Zm58.51-8.36-7.25-7.26c-4.05,3.67-7.63,6.06-13.6,6.06-8.82,0-15-7.35-15-16.17v-.27c0-8.82,6.24-16.07,15-16.07,5.14,0,9.19,2.2,13.23,5.78L419,28.2c-4.78-4.68-10.57-8-20.3-8-15.8,0-26.92,12-26.92,26.64V47a26.09,26.09,0,0,0,26.46,26.55c9.92.09,15.8-3.4,21.12-9.09Zm48.42,8.36V62.74h-28V51.9h24.34V41.8H439.75V31.32H467.4V21.22H428.54V72.76h39.23v.09Z"/></svg>