<svg id="Layer_1" data-name="Layer 1" xmlns="http://www.w3.org/2000/svg" viewBox="0 0 122.88 122.39"><defs><style>.cls-1{fill:#10b7f4;}.cls-1,.cls-2{fill-rule:evenodd;}.cls-2{fill:#fff;}</style></defs><title>botim</title><path class="cls-1" d="M27.4,0H95.48a27.48,27.48,0,0,1,27.4,27.4V95a27.48,27.48,0,0,1-27.4,27.41H27.4A27.48,27.48,0,0,1,0,95V27.4A27.48,27.48,0,0,1,27.4,0Z"/><path class="cls-2" d="M37.07,32.34A14.41,14.41,0,1,1,22.66,46.75,14.41,14.41,0,0,1,37.07,32.34Z"/><path class="cls-2" d="M85.74,32.34A14.41,14.41,0,1,1,71.33,46.75,14.41,14.41,0,0,1,85.74,32.34Z"/></svg>