<svg id="Layer_1" data-name="Layer 1" xmlns="http://www.w3.org/2000/svg" viewBox="0 0 122.88 87.77"><defs><style>.cls-1{fill-rule:evenodd;}</style></defs><title>ce-certification</title><path class="cls-1" d="M48.27,87.55a42.68,42.68,0,0,1-4.38.22h0A43.89,43.89,0,1,1,43.89,0h0c1.46,0,2.93.08,4.38.22V13.39a30.83,30.83,0,0,0-3.72-.23h-.66a30.72,30.72,0,0,0,0,61.44h.66a30.83,30.83,0,0,0,3.72-.23V87.55Zm74.61,0a42.87,42.87,0,0,1-4.39.22h0a43.89,43.89,0,0,1,0-87.77h0c1.46,0,2.94.08,4.39.22V13.39a30.87,30.87,0,0,0-3.73-.23h-.66a30.72,30.72,0,0,0-30,24.13H114.1V50.47H88.48a30.73,30.73,0,0,0,30,24.14h.66a30.87,30.87,0,0,0,3.73-.23V87.55Z"/></svg>