<svg xmlns="http://www.w3.org/2000/svg" shape-rendering="geometricPrecision" text-rendering="geometricPrecision" image-rendering="optimizeQuality" fill-rule="evenodd" clip-rule="evenodd" viewBox="0 0 512 421.62"><g fill-rule="nonzero"><path fill="#1F1F1A" d="M112.13 283.69c-7.68 4.75-48.36 26.06-57.55 29.45-6.56 2.44-13.67 1.85-17.86-10.54-5.14-15.32 2.08-18.94 12.36-22.93 9.09-3.52 46.81-17.16 55.57-19.53 6.16-1.65 10.44.43 13.41 7.84 3.25 8.14 1.02 11.4-5.93 15.71zm15.94-114.73c6.88 22.83 15.22 44.24 24.28 64.89 15.58 37 26.09 56.56 40.61 80.84 17.76 28.99 37.36 62 69.61 83.37 23.55 15.58 52.21 23.56 79.75 23.56 38.81 0 72.14-17.03 93.55-37 21.02-19.56 48.23-57.28 48.23-130.87 0-25.37 11.23-47.14 19.57-64.54 0-.36.36-1.08 1.08-2.53 3.26-7.25 7.25-16.67 7.25-26.09 0-6.89-1.81-14.86-6.52-21.74-7.25-12.32-20.29-16.67-32.28-16.67-27.9 0-47.14 19.57-56.93 39.53l-3.26 6.52c-3.98-5.8-7.97-11.96-11.23-17.39-10.15-17.76-15.94-29.72-21.02-44.97-3.98-11.95-7.24-25.72-9.42-36.99-6.16-35.54-16.3-47.14-33.01-51.49-12.32-3.26-26.81-.72-37.35 6.16C293.76 7.25 281.44 0 265.11 0c-23.2 0-44.25 15.22-44.25 40.98 0 3.26.37 6.52.73 10.51-2.9-.73-6.16-1.09-9.42-1.09-25 0-43.52 17.39-43.52 40.98 0 5.44.73 11.6 2.54 18.84-2.17-.36-4.35-.36-6.52-.36-12.32.73-23.56 5.44-31.56 15.22-7.94 9.42-11.2 23.91-5.04 43.88zm-43.85-63.58c-12.52-3.95-49.67-26.45-59.36-32.25-8.76-5.27-9.88-10.01-3.78-21.58 5.4-10.21 11.39-11.99 20.29-7.38 10.31 5.37 46.71 33.7 53.66 39.3 6.72 5.41 5.8 8.21 2.27 15.16-3.52 6.95-6.82 8.73-13.08 6.75zm-5.63 91.97c-10.94.3-56.36-1.64-66.74-2.67-9.02-.89-12.68-4.87-11.69-17.95 1.05-14.03 6.52-14.89 15.38-14.03 10.28.98 57.88 8.73 65.46 11.07 7.84 2.43 8.92 5.99 7.97 12.84-1.22 8.9-5.24 10.58-10.38 10.74z"/><path fill="#FFE450" d="M148.72 162.43c-3.26-10.5-2.9-18.48 1.09-23.55 3.99-4.71 9.42-6.88 15.94-7.25 11.24-.36 15.58 7.61 22.11 28.27 3.98 13.04 11.95 31.92 16.67 42.43 6.16 12.68 14.85 29.71 18.84 35.54 3.26 5.07 6.16 6.52 9.42 6.52 5.8 0 10.15-3.26 10.15-9.06 0-3.26-3.27-8.69-5.08-11.95-3.26-6.17-10.14-18.49-14.85-28.99-5.08-11.6-10.88-26.09-15.59-39.17-2.89-7.61-6.16-18.48-9.42-29.35-5.07-16.67-7.61-26.82-7.61-34.46 0-11.59 8.7-19.2 21.74-19.2 9.43 0 15.59 4.71 19.57 21.74 3.26 15.58 9.06 40.98 17.4 60.91 5.43 13.04 13.4 30.47 18.11 39.17 2.9 5.07 6.16 9.42 6.16 11.23 0 2.54-4.71 6.52-8.69 11.96-2.54 3.26-3.63 5.43-3.63 7.97 0 2.17 1.45 4.35 3.63 7.25 2.17 2.89 4.35 5.79 6.88 5.79 1.81 0 2.9-.72 3.99-2.17 11.23-14.13 23.55-23.92 37.71-31.92 16.67-9.42 33.74-14.13 47.14-17.03 6.53-1.45 8.34-2.9 8.34-6.52 0-4.35-3.26-6.89-7.61-7.25-3.26-.36-6.16 0-11.24.36-3.62.36-5.43-1.45-7.61-6.16-6.52-13.77-19.2-36.99-26.81-66.71-3.26-12.68-6.16-26.08-7.97-43.51-1.09-7.97.36-10.87 4.35-14.5 5.07-4.34 14.13-6.16 21.01-4.34 8.34 2.17 12.69 8.69 17.03 34.09 2.18 11.96 5.8 27.18 10.15 40.25 5.44 16.67 12.32 30.47 22.83 48.95 5.8 10.15 13.04 20.66 20.65 30.84-1.45 4.35-3.98 7.24-12.32 14.13-8.33 6.88-16.67 14.13-24.28 27.54-5.43 9.78-7.97 20.65-7.97 27.9 0 6.88 1.45 8.33 5.8 8.33 7.61 0 13.77-1.45 14.13-4.71 1.81-13.04 3.99-21.38 11.24-31.19 4.34-5.44 11.95-12.32 18.11-17.76 11.6-9.42 15.58-14.85 19.57-28.26 1.81-6.16 3.99-11.96 6.88-17.39 6.89-12.69 19.21-27.18 38.45-27.18 6.16 0 11.23 1.81 14.49 6.88 1.81 2.9 2.54 6.89 2.54 9.79 0 6.52-4.71 15.58-6.89 19.93-7.97 17.03-21.01 43.15-21.01 73.23 0 65.62-23.19 98.26-41.34 114.93-17.76 16.67-45.69 31.2-78.67 31.2-23.55 0-47.86-6.89-67.79-19.93-27.9-18.49-45.33-47.51-63.08-76.49-14.14-23.56-23.92-42.07-39.17-77.94-8.6-20.79-16.6-41.08-23.49-63.19zm93.19-121.45c0-13.77 12.69-19.21 23.2-19.21 11.23 0 15.21 5.44 18.11 17.04 2.54 9.42 3.63 18.11 4.71 28.26 1.45 10.14 6.52 33.37 7.97 39.17 5.44 19.93 16.31 43.51 29.36 71.78-7.61 2.53-17.76 6.88-24.64 10.5-8.7 4.71-10.51 4.71-14.14-2.17-7.61-14.13-13.04-24.64-17.75-36.99-3.99-10.15-7.97-21.75-11.23-35.18-5.44-22.83-6.16-29.36-10.51-39.9-2.54-10.83-5.08-24.24-5.08-33.3z"/></g></svg>