<svg xmlns="http://www.w3.org/2000/svg" viewBox="0 0 436.99 104.34"><title>creative-commons-logo</title><path d="M114.05,104.1c-8.79-1.37-14.5-6.45-16.68-14.88-1.05-4-.72-11.78.66-15.37A19,19,0,0,1,107.77,63a23.49,23.49,0,0,1,19.89,0c2.57,1.22,6.3,4.59,7.38,6.67l.63,1.23L131,73.37c-4.34,2.25-4.74,2.38-5,1.61-.46-1.45-3.94-4.31-5.64-4.63a8.43,8.43,0,0,0-9.74,4.81c-.83,1.67-1.1,3-1.24,6.08-.38,8.81,2.92,13.59,9.42,13.61,3.41,0,5.79-1.23,7.4-3.84a5.63,5.63,0,0,1,1.41-1.78,58.14,58.14,0,0,1,8.12,4.13c0,1.65-5.26,6.92-8.57,8.59A22,22,0,0,1,114.05,104.1Z"/><path d="M164.29,61.47a36.79,36.79,0,0,0-12.56,0,20.46,20.46,0,0,0-13.25,10.07c-3.23,6.37-3.09,16.09.33,22.5a19.64,19.64,0,0,0,12.92,9.41c1.31.26,2.77.57,3.25.68,1.47.34,8.11-.16,10.4-.77,8-2.18,13.28-8.32,14.51-17C181.66,73.91,175.56,64.16,164.29,61.47ZM162,94.18a11.86,11.86,0,0,1-8.44-.23c-3.66-1.81-5.63-6.72-5.21-13,.26-3.83,1.14-6.16,3.05-8.15a8.32,8.32,0,0,1,6.74-2.66c4.29,0,7,1.8,8.78,5.84.78,1.75,1,2.93.94,6.27C167.87,88.79,166,92.51,162,94.18Z"/><path d="M333.86,60.9c-6.57,0-11.78,1.85-15.81,5.62-6.23,5.83-8,17.77-3.91,26.5a19.1,19.1,0,0,0,13.46,10.44l3.23.68c1.46.33,8.09-.18,10.46-.8,9.32-2.47,14.66-10.18,14.56-21C355.74,68.88,347.54,60.9,333.86,60.9Zm9.77,24c-.64,4.9-2.33,7.74-5.39,9.13-4.1,1.86-9.65.62-11.81-2.65-4.25-6.42-2.56-17.6,3.07-20.32,3.35-1.63,8.45-1,11,1.41S344.28,79.93,343.63,84.89Z"/><path d="M413.55,104.08a25.42,25.42,0,0,1-12.67-5.68l-2.72-2.17L401.9,93l3.74-3.27,1.79,1.42c3.83,3,7,4.24,11.25,4.24,4.64,0,7.3-1.83,6.62-4.56-.4-1.58-2-2.27-9.36-3.94a74.69,74.69,0,0,1-8.63-2.4c-5.78-2.49-7.93-8.64-5.22-15,2.33-5.45,8.28-8.59,16.23-8.58a32,32,0,0,1,16.31,4.59l2,1.23-3.76,3.64L429.15,74l-1.09-1c-3-2.7-10.77-4.21-13.67-2.65-2.56,1.38-2.3,4.08.51,5.26a59.4,59.4,0,0,0,6.35,1.68c9.53,2.07,12.62,3.58,14.6,7.15,1.45,2.62,1.52,7.85.15,10.89a15.26,15.26,0,0,1-6.22,6.44C425.71,103.86,419,104.81,413.55,104.08Z"/><path d="M83.52,32.7A45.52,45.52,0,0,0,49.81,12.59a44.46,44.46,0,0,0-36.9,13.46,47.23,47.23,0,0,0-11.8,21.1C.13,50.81,0,52.16,0,58s.16,7.26,1.16,11A46.47,46.47,0,0,0,35,102.38c1.42.36,3.18.73,3.89.83a66.67,66.67,0,0,0,14.22-.34A46.32,46.32,0,0,0,86,79,46.62,46.62,0,0,0,83.52,32.7ZM81.65,67.62A37.56,37.56,0,0,1,52.77,94.47C30.82,99,9.44,82.4,8.08,59.77c-.88-14.61,8-29.28,21.55-35.71a32.88,32.88,0,0,1,15.55-3.35,33.47,33.47,0,0,1,14.64,2.7c10.56,4.23,18.83,13.8,21.88,25.31C83,53.54,83,62.82,81.65,67.62Z"/><path d="M27.59,71.2c-4.15-1.47-7.33-5.8-7.89-10.72-.83-7.3,1.91-13,7.51-15.51,3-1.38,8.55-1.34,11.82.07,2,.86,5.72,4.23,5.72,5.17a12,12,0,0,1-2.86,1.69L39,53.31l-1.53-1.52a7,7,0,0,0-3-1.8,5.74,5.74,0,0,0-5.39,2c-1.76,2.48-1.89,8.95-.22,11.5a5.18,5.18,0,0,0,3.7,2.36c2.88.22,3.61,0,5.32-1.83l1.72-1.81,2.22,1.23A27.52,27.52,0,0,1,44.5,65c.75.67-2.68,4.18-5.45,5.56-2.34,1.17-3.08,1.33-6.16,1.29A21.53,21.53,0,0,1,27.59,71.2Z"/><path d="M54,71.2c-4.09-1.45-7.22-5.64-7.89-10.56-1-7.13,1.9-13.12,7.51-15.67a16.36,16.36,0,0,1,12.09.25c2,1,5.45,4.14,5.45,5a13,13,0,0,1-3,1.71l-3,1.44-1.54-1.68C62.3,50.2,61.93,50,60,50c-2.62,0-4.3,1-5.2,3.17A17,17,0,0,0,54.65,62a5.71,5.71,0,0,0,9.88,1.91l1.37-1.57,2.64,1.33a10.45,10.45,0,0,1,2.63,1.61c0,1-3.41,4.16-5.7,5.31s-3.08,1.33-6.17,1.3A21.92,21.92,0,0,1,54,71.2Z"/><path d="M182.92,82.51V61.94H195v3l2.48-1.49c3.3-2,5.28-2.5,9.43-2.48s6.57,1,9.28,3.52l1.83,1.74,1.43-1.26c3.22-2.83,9.13-4.56,13.67-4,4.85.57,8,2.35,9.64,5.49.95,1.78,1,2.14,1.1,19.25l.12,17.43H231.9l-.13-14.18c-.11-12.59-.21-14.34-.89-15.59-2.09-3.82-8.41-3.58-10.58.41-.7,1.27-.8,3-.93,15.39l-.14,14H207.17V88.77c0-15.72-.07-16.21-2.58-17.51a8.27,8.27,0,0,0-6.82.19c-2.68,1.63-2.73,2-2.73,17.54v14.09H182.92V82.51Z"/><path d="M247.88,82.51V61.94H260v3.54l1.41-1.18c3.1-2.62,8.84-4.06,13.06-3.28,3.29.61,5.17,1.56,7.06,3.55l1.57,1.66L284.68,65a18.56,18.56,0,0,1,14.4-4c3.53.56,5.55,1.44,7.29,3.18,2.8,2.8,2.79,2.71,2.93,21.68l.13,17.22H297.32l-.14-14c-.16-15.57-.32-16.5-3-17.88a7.17,7.17,0,0,0-7.31.87c-1.92,1.83-2.18,4-2.18,18.22v12.76H272.61l-.12-14.62c-.12-13.23-.21-14.73-.91-15.77-1.09-1.6-2.91-2.24-5.75-2-3,.25-4.86,1.85-5.41,4.72-.2,1-.38,7.7-.39,14.78l0,12.89H247.89V82.51Z"/><path d="M359.2,82.51V61.94h12.12v3.54l1.32-1.11c5.74-4.83,17.17-4.66,21,.31,2.28,3,2.41,4.2,2.41,22v16.39H383.88V89c0-15.53-.13-16.47-2.54-17.71a7.83,7.83,0,0,0-7,.31c-2.71,1.82-2.75,2.09-2.91,17.52l-.14,14H359.2V82.51Z"/><path d="M115.13,56.46c-7-.65-13.24-4.61-16-10.12-2.3-4.55-3.12-13-1.77-18.13a19.77,19.77,0,0,1,13.06-14.14c7.11-2.18,15.63-.74,20.82,3.51,1.69,1.38,4.78,5.27,4.41,5.55-.6.45-8.69,4.59-9,4.59s-.88-.78-1.51-1.73c-3.13-4.73-10.71-4.71-13.79,0-1.59,2.45-2.22,5.64-2,10,.37,6.89,3.31,10.69,8.58,11.07a13,13,0,0,0,4-.32c1.42-.47,3.75-2.66,4.89-4.61.47-.79.69-.73,4.66,1.23a19.29,19.29,0,0,1,4.17,2.42c0,.66-2.41,3.71-4.21,5.32A21.75,21.75,0,0,1,115.13,56.46Z"/><path d="M203.71,37.25V35.34a37.42,37.42,0,0,0-2.14-10.59c-2.8-7.07-8.42-11.09-16.25-11.61a25.79,25.79,0,0,0-11.88,2.09c-4.32,2.09-8.11,7.3-9.38,12.92-3.38,14.94,3.15,26.41,16,28.15,8.52,1.15,16.91-2,21.29-7.93a10.28,10.28,0,0,0,1.78-3,25.63,25.63,0,0,0-4.34-2.64l-4.2-2.24-2.7,3c-3,3.32-4.55,4.17-7.59,4.15-5,0-8-3-9-8.76l-.27-1.62h28.63ZM175,29.89l.28-1.41c1.11-5.54,7.92-8.33,12.73-5.21a7.6,7.6,0,0,1,3.4,5.28l.27,1.34H175Z"/><path d="M244.16,54.68c-.19-.42-.46-8-.6-16.78-.25-15.66-.28-16.07-1.27-18.1-2.08-4.26-6.37-6.23-14.52-6.67-7.71-.41-12.71.81-16.21,4A12.29,12.29,0,0,0,208,24.7V26h11.59l.28-1.49c.57-3,4.47-4.77,8.29-3.7,2.75.77,3.43,1.73,3.44,4.86v2.62l-5.89,1c-11.3,1.91-16.14,4.41-18.59,9.61A15.11,15.11,0,0,0,207,49.4c1.54,3.46,5.3,6.15,9.66,6.91s10.81-.74,13.76-3.27c2.07-1.77,2.26-1.81,2.27-.52a9.25,9.25,0,0,0,.27,1.94c.25.95.42,1,5.89,1C244.09,55.44,244.49,55.38,244.16,54.68ZM231.38,41.16a8.63,8.63,0,0,1-4.59,5.9,11.16,11.16,0,0,1-3.52.58c-5.37,0-7.59-5.3-3.49-8.34,1-.76,10.22-3.77,11.54-3.78C232,35.52,232,38.14,231.38,41.16Z"/><path d="M261.4,56.28c-3.9-.69-6.23-2.44-7.75-5.82-.69-1.52-.8-3.34-.92-15.05l-.14-13.32h-6l.12-3.57.13-3.58,2.92-.13,2.93-.12V3h12.12v11.7h7.37v7.33l-3.58.12-3.57.13-.13,10c-.07,5.48,0,10.6.13,11.39.43,2.35,1.55,3.12,4.55,3.12h2.59v9.53h-2.05c-1.13,0-3,.09-4.22.19A21.08,21.08,0,0,1,261.4,56.28Z"/><path d="M362,40.72a9.66,9.66,0,0,0-2.44,2.53c-2.35,3-4.83,4.4-7.94,4.38a8.63,8.63,0,0,1-8.63-7c-.16-1-.38-2.17-.5-2.58-.2-.71.68-.76,14.17-.76H371l-.26-3.36C369.67,19.3,360.7,11.4,347.42,13.33c-8.67,1.27-14.17,6.41-16.19,15.12a36.82,36.82,0,0,0-.2,13.13c1.93,8.16,7.86,13.53,16.25,14.72a25.24,25.24,0,0,0,15-2.45,18.29,18.29,0,0,0,7.25-6.64l1.31-1.94L366.63,43A36.46,36.46,0,0,0,362,40.72Zm-19.47-12a8.64,8.64,0,0,1,12.16-5.92,8.12,8.12,0,0,1,4,5.54l.26,1.58H342.21Z"/><path d="M138.84,34.76,139,14.08l5.93-.12,5.93-.12L151,16l.13,2.16L153,16.9a21.29,21.29,0,0,1,7.72-2.76c1.78-.32,1.88,0,1.88,5.76v4.67l-3.36.52a23.85,23.85,0,0,0-5.15,1.38c-3.09,1.46-3.19,1.94-3.19,16.36V55.44H138.73Z"/><polygon points="276.9 34.64 276.9 13.84 282.86 13.96 288.81 14.08 288.93 34.76 289.04 55.44 282.97 55.44 276.9 55.44 276.9 34.64"/><path d="M298.47,35.41c-3.74-11-6.85-20.33-6.92-20.68-.12-.55.84-.67,6.2-.77,4.84-.09,6.38,0,6.54.43s1.72,6.84,3.6,14.52,3.51,14,3.64,14,1.81-6.49,3.74-14.41l3.5-14.39,6.35-.12c3.81-.07,6.36,0,6.36.29s-2.56,7.88-5.68,17-6.26,18.31-7,20.39l-1.29,3.79H305.26Z"/><polygon points="276.9 4.78 276.9 0 282.98 0 289.06 0 288.94 4.66 288.81 9.31 282.86 9.43 276.9 9.55 276.9 4.78"/></svg>