<svg xmlns="http://www.w3.org/2000/svg" shape-rendering="geometricPrecision" text-rendering="geometricPrecision" image-rendering="optimizeQuality" fill-rule="evenodd" clip-rule="evenodd" viewBox="0 0 512 512"><path fill="#FF00AF" d="M256 0c141.51 0 256 114.49 256 256 0 140.09-112.36 253.87-251.73 256H256V296.53l-32.71 32.71-4.27 81.07L253.16 512c-19.92 0-39.12-2.84-58.32-7.82l-4.97-1.42-16.36-49.07-46.22 23.47c-17.07-9.96-32.71-21.34-46.94-34.85l-3.55-3.56 86.04-43.37 2.85-49.07-49.07 2.85-43.38 86.04c-13.51-14.22-25.6-29.87-35.55-46.22l-2.85-4.27 23.47-46.22-49.07-16.36c-4.98-19.2-7.82-38.4-8.53-57.6v-4.98l102.4 34.14 81.07-4.27 32.71-32.71L184.18 224l-81.07-4.27L0 253.16c0-19.92 2.84-39.83 7.11-58.32l1.42-4.97 49.07-16.36-23.47-46.22c9.96-17.07 21.34-32.71 34.85-46.94l3.55-3.55 43.38 86.04 49.07 2.85-2.85-49.07-86.04-43.38c14.22-13.51 29.87-25.6 46.22-35.55l4.27-2.85 46.22 23.47 16.36-49.07c19.2-4.98 38.4-7.82 57.6-8.53h4.98L217.6 102.4l4.27 81.06 32.71 32.72C256 215.47 256 0 256 0zm56.89 65.42v381.87C394.67 422.4 455.11 346.31 455.11 256c0-88.89-59.02-164.27-139.38-189.87l-2.84-.71z"/></svg>