<svg id="Layer_1" data-name="Layer 1" xmlns="http://www.w3.org/2000/svg" xmlns:xlink="http://www.w3.org/1999/xlink" viewBox="0 0 499.86 133.78"><defs><style>.cls-1{fill:none;}.cls-2{clip-path:url(#clip-path);}.cls-3{fill:#ef6c00;}.cls-4{fill:#ff9800;}.cls-5{fill:#757575;}</style><clipPath id="clip-path" transform="translate(0 1.37)"><path class="cls-1" d="M98.53,25.77,56,1.2A8.91,8.91,0,0,0,47,1.2L4.45,25.77A9,9,0,0,0,0,33.51V82.68A8.94,8.94,0,0,0,4.45,90.4l21.3,12.31v25.1a2.68,2.68,0,0,0,4,2.31l68.81-39.7A8.93,8.93,0,0,0,103,82.7V33.5a9,9,0,0,0-4.5-7.73Z"/></clipPath></defs><title>dialogflow</title><g class="cls-2"><path class="cls-3" d="M103,28.36,51.51,58.09,0,28.36V87.82l25.75,14.85v29.74L103,87.82Z" transform="translate(0 1.37)"/><path class="cls-4" d="M51.51,58.09,0,28.36,51.51-1.37,103,28.36Z" transform="translate(0 1.37)"/><path class="cls-4" d="M50.59,57.18.33,28.16l-.33.2L51.51,58.09,103,28.36l-1.21-.72Z" transform="translate(0 1.37)"/><path class="cls-4" d="M51.51,58.46v-.37L.33,28.53l-.33.2Z" transform="translate(0 1.37)"/></g><path class="cls-5" d="M486.92,87.7h-7.67L469.28,57,459.39,87.7H451.8l-12.91-40h7.85l8.9,30.22h.08l9.88-30.22h7.75l9.89,30.22h.08l8.86-30.22h7.68ZM402.46,52.46a21,21,0,0,1,29.56,0,21.17,21.17,0,0,1,5.79,15.2A21.18,21.18,0,0,1,432,82.87a21,21,0,0,1-29.56,0,21.14,21.14,0,0,1-5.8-15.21A21.13,21.13,0,0,1,402.46,52.46Zm5.59,25.73a12.65,12.65,0,0,0,17.87.51c.18-.16.35-.34.52-.51q3.87-4,3.88-10.5T426.44,57.2a12.64,12.64,0,0,0-17.87-.52c-.18.17-.35.34-.52.52a14.38,14.38,0,0,0-3.88,10.49q0,6.54,3.88,10.5ZM390.93,87.7h-7.51V29.23h7.51Zm-19.2-59a15.1,15.1,0,0,1,6,1.06l-2.61,6.45a7.81,7.81,0,0,0-3.44-.65,6.77,6.77,0,0,0-4.81,1.76A6.57,6.57,0,0,0,365,42.41v5.07h10.46v6.86H365V87.53h-7.51V54.37H350V47.51h7.51V42.2a12.81,12.81,0,0,1,3.92-9.8,14.47,14.47,0,0,1,10.29-3.68Zm-48,77.76q-7.11,0-11.59-3.55a21,21,0,0,1-6.46-8.13l6.86-2.86a11.32,11.32,0,0,0,4.21,5.48,11.69,11.69,0,0,0,7,2.17q6.21,0,9.77-3.72T337,85.78V82h-.32a15.43,15.43,0,0,1-5.56,4.9,16.54,16.54,0,0,1-8.09,2,17.63,17.63,0,0,1-13.4-6.12A21.67,21.67,0,0,1,304,67.48a21.67,21.67,0,0,1,5.63-15.21,17.54,17.54,0,0,1,13.4-6.13,16.65,16.65,0,0,1,8.09,2A15.36,15.36,0,0,1,336.7,53H337V47.45h7.19v38q0,10.29-6,15.64a21,21,0,0,1-14.55,5.41Zm.57-24.5a12,12,0,0,0,9-3.92Q337,74.15,337,67.53T333.29,57A12.26,12.26,0,0,0,316,56.35l-.68.68q-3.76,4-3.76,10.5T315.28,78a11.93,11.93,0,0,0,9,4Zm-60.95-29.7a21,21,0,0,1,29.57,0,21.21,21.21,0,0,1,5.79,15.21,21.21,21.21,0,0,1-5.79,15.21,21.08,21.08,0,0,1-29.57,0,21.19,21.19,0,0,1-5.79-15.21A21.38,21.38,0,0,1,263.32,52.28ZM268.92,78a12.64,12.64,0,0,0,17.87.52c.17-.17.35-.34.51-.52q3.88-4,3.88-10.49T287.3,57a12.63,12.63,0,0,0-17.86-.52c-.18.17-.35.34-.52.52Q265,61,265,67.52T268.94,78Zm-17.83,9.52h-7.51V29.05h7.52Zm-34.5,1.3a15.75,15.75,0,0,1-10.66-3.68,12.18,12.18,0,0,1-4.29-9.71,12,12,0,0,1,5.07-10.25,20.53,20.53,0,0,1,12.49-3.72,21.57,21.57,0,0,1,10.87,2.45V62.78a8.94,8.94,0,0,0-3-7.07,10.84,10.84,0,0,0-7.43-2.66,11.53,11.53,0,0,0-5.93,1.55,8,8,0,0,0-3.62,4.24l-6.86-2.92a15.31,15.31,0,0,1,5.48-6.66q4.08-3,10.78-3.06a18.5,18.5,0,0,1,12.74,4.49q5.07,4.48,5.07,12.66V87.53H230.1V82h-.33q-4.52,6.85-13.18,6.85ZM217.81,82a12.27,12.27,0,0,0,8.46-3.5,10.78,10.78,0,0,0,3.8-8.21q-3.19-2.61-9.56-2.61-5.47,0-8.25,2.37a7.1,7.1,0,0,0-2.78,5.55A5.38,5.38,0,0,0,212,80.24a10.14,10.14,0,0,0,5.8,1.74ZM194.52,37.46a5.31,5.31,0,1,1,1.55-3.75A5.09,5.09,0,0,1,194.52,37.46Zm0,50.07H187v-40h7.49Zm-61.11,0V29.05H151.3q13.47,0,21.56,8.12T181,58.29q0,13-8.09,21.11T151.3,87.53Zm7.52-7.18H151.3q10.14,0,16-5.8t5.92-16.25q0-10.36-5.92-16.22t-16-5.83H140.93Z" transform="translate(0 1.37)"/></svg>