<svg id="Layer_1" data-name="Layer 1" xmlns="http://www.w3.org/2000/svg" viewBox="0 0 511.16 511.16"><defs><style>.cls-1{fill:#988430;}.cls-2{fill:#7a6a2a;}.cls-3{fill:#ba9f33;}.cls-4{fill:#cfb66c;}.cls-10,.cls-11,.cls-12,.cls-13,.cls-14,.cls-15,.cls-16,.cls-17,.cls-18,.cls-19,.cls-20,.cls-21,.cls-22,.cls-23,.cls-24,.cls-25,.cls-26,.cls-27,.cls-28,.cls-29,.cls-30,.cls-31,.cls-32,.cls-33,.cls-34,.cls-35,.cls-36,.cls-37,.cls-38,.cls-39,.cls-4,.cls-40,.cls-41,.cls-42,.cls-43,.cls-44,.cls-45,.cls-46,.cls-47,.cls-48,.cls-49,.cls-5,.cls-50,.cls-51,.cls-52,.cls-53,.cls-54,.cls-55,.cls-56,.cls-57,.cls-58,.cls-59,.cls-6,.cls-60,.cls-61,.cls-62,.cls-63,.cls-64,.cls-65,.cls-66,.cls-67,.cls-68,.cls-69,.cls-7,.cls-70,.cls-71,.cls-72,.cls-73,.cls-74,.cls-75,.cls-76,.cls-77,.cls-78,.cls-79,.cls-8,.cls-80,.cls-81,.cls-82,.cls-83,.cls-84,.cls-85,.cls-86,.cls-87,.cls-88,.cls-89,.cls-9,.cls-90,.cls-91,.cls-92,.cls-94,.cls-95,.cls-96,.cls-97,.cls-98{fill-rule:evenodd;}.cls-5{fill:#e2cc85;}.cls-6{fill:#f1d789;}.cls-7{fill:#f4ecb4;}.cls-8{fill:#f3e19d;}.cls-9{fill:#f2e8b0;}.cls-10{fill:#f5eec0;}.cls-11{fill:#e6db9d;}.cls-12{fill:#e5cb7a;}.cls-13{fill:#d8c173;}.cls-14{fill:#e0cd81;}.cls-15{fill:#dfc57c;}.cls-16{fill:#e5cc7c;}.cls-17{fill:#d2c281;}.cls-18{fill:#e2c270;}.cls-19{fill:#ccb360;}.cls-20{fill:#d5b457;}.cls-21{fill:#d2b257;}.cls-22{fill:#d2b159;}.cls-23{fill:#c2a44d;}.cls-24{fill:#caa13e;}.cls-25{fill:#b59544;}.cls-26{fill:#c89d3a;}.cls-27{fill:#ceb052;}.cls-28{fill:#cca847;}.cls-29{fill:#c39d3c;}.cls-30{fill:#d2ba6b;}.cls-31{fill:#c0993a;}.cls-32{fill:#a88f33;}.cls-33{fill:#e3c571;}.cls-34{fill:#d8b65b;}.cls-35{fill:#d3ae4d;}.cls-36{fill:#f4efc8;}.cls-37{fill:#ebcc73;}.cls-38{fill:#e5c66b;}.cls-39{fill:#e6bd62;}.cls-40{fill:#b6933f;}.cls-41{fill:#c49937;}.cls-42{fill:#dfc068;}.cls-43{fill:#c99e3d;}.cls-44{fill:#b58634;}.cls-45{fill:#e6c367;}.cls-46{fill:#dcba5a;}.cls-47{fill:#e9ce77;}.cls-48{fill:#cdae50;}.cls-49{fill:#d2a83e;}.cls-50{fill:#c29637;}.cls-51{fill:#ac8132;}.cls-52{fill:#a67a2e;}.cls-53{fill:#8c6228;}.cls-54{fill:#cba94c;}.cls-55{fill:#be9c44;}.cls-56{fill:#a17c34;}.cls-57{fill:#92723a;}.cls-58{fill:#b18e3e;}.cls-59{fill:#543e26;}.cls-60{fill:#806031;}.cls-61{fill:#b6903c;}.cls-62{fill:#685026;}.cls-63{fill:#d4b968;}.cls-64{fill:#cca849;}.cls-65{fill:#585136;}.cls-66{fill:#252211;}.cls-67{fill:#c3b378;}.cls-68{fill:#e6d89c;}.cls-69{fill:#6f674d;}.cls-70{fill:#ac924c;}.cls-71{fill:#9f8e57;}.cls-72{fill:#eac970;}.cls-73{fill:#d7bc6b;}.cls-74{fill:#453a25;}.cls-75{fill:#84754b;}.cls-76{fill:#f7f7e7;}.cls-77{fill:#f8f6de;}.cls-78{fill:#d4c38b;}.cls-79{fill:#e2d59d;}.cls-80{fill:#cbac5a;}.cls-81{fill:#d6bc6f;}.cls-82{fill:#dfc677;}.cls-83{fill:#c4a859;}.cls-84{fill:#927d49;}.cls-85{fill:#6e6342;}.cls-86{fill:#39331f;}.cls-87{fill:#292311;}.cls-88{fill:#3f3824;}.cls-89{fill:#2d2815;}.cls-90{fill:#82764f;}.cls-91{fill:#2d2816;}.cls-92{fill:#574f35;}.cls-93{fill:none;}.cls-94{fill:#dec270;}.cls-95{fill:#cbaf59;}.cls-96{fill:#e3c677;}.cls-97{fill:#ecd592;}.cls-98{fill:#fff;fill-opacity:0.8;}</style></defs><title>dogecoin-doge</title><g id="Layer_2" data-name="Layer 2"><g id="Layer_1-2" data-name="Layer 1-2"><g id="Layer_1-3" data-name="Layer 1-3"><circle class="cls-1" cx="255.58" cy="255.58" r="255.58"/><circle class="cls-2" cx="255.58" cy="255.58" r="247.39"/><circle class="cls-3" cx="255.58" cy="255.58" r="242.18"/><path class="cls-4" d="M112.48,229.12c-1.45-1.32-3-2.64-4.38-4s-2.85-2.65-4.3-4l-4.3-4.09c-.71-.71-1.45-1.33-2.15-2s-1.53-1.32-2.24-1.95C89.4,207.71,83.66,202.29,78,196.87c5.83,5.34,11.54,10.63,17.37,16l2,2c.7.7,1.45,1.32,2.15,2l4.3,4c1.45,1.32,2.85,2.65,4.3,4.09s2.86,2.77,4.3,4.09Zm-75.76-.81s20.76,2.15,30.89,3.59c9.39,1.33,38.75,5.83,38.75,5.83Zm0,0c5.83.49,11.66,1.11,17.49,1.73,3,.29,5.83.62,8.69.91l4.38.5,4.3.62L89,234.84l8.68,1.45c2.86.49,5.71,1,8.69,1.53-2.85-.29-5.83-.7-8.69-1.12L89,235.46,71.58,232.9c-1.45-.21-2.85-.5-4.3-.71l-4.39-.5c-2.85-.29-5.83-.7-8.68-1-5.83-.7-11.66-1.44-17.5-2.35Zm67.57,14.83s-22.16,5.63-29.65,7.78S45,259.73,45,259.73l59.3-16.58Z" transform="translate(-0.74 -0.84)"/><path class="cls-4" d="M104.29,243.14c-4.92,1.45-9.81,2.86-14.8,4.18l-14.81,4c-4.92,1.45-9.81,2.86-14.72,4.3l-7.36,2c-2.44.7-4.92,1.32-7.44,2,2.43-.82,4.92-1.66,7.36-2.36l7.36-2.36c4.92-1.53,9.81-3,14.72-4.51,5-1.24,9.92-2.56,14.93-3.76,4.75-1.2,9.76-2.4,14.76-3.51h0Zm-56.2,30.24c2.44-.91,30.56-14,37.1-17.08,3.27-1.54,12.78-4.91,12.78-4.91Z" transform="translate(-0.74 -0.84)"/><path class="cls-4" d="M48.09,273.38c2.15-.82,4.18-1.82,6.24-2.77l6.12-2.86,12.29-5.91c4.09-1.94,8.06-4.09,12.28-5.92,2.15-.9,4.3-1.65,6.45-2.35l3.27-1c1.12-.28,2.15-.62,3.27-.91-4.09,1.95-8.39,3.6-12.49,5.5s-8.27,3.69-12.49,5.5l-12.49,5.5c-4.19,1.7-8.28,3.52-12.45,5.26Zm2.73,11.45S76.29,269.9,85.06,265.1c4.59-2.56,19.44-9.93,19.44-9.93Z" transform="translate(-0.74 -0.84)"/><path class="cls-4" d="M50.82,284.83c4.3-2.65,8.68-5.33,13.07-8.06l6.54-4c2.23-1.33,4.38-2.57,6.66-3.89s4.38-2.65,6.66-3.89a23.5,23.5,0,0,1,3.39-1.73l3.47-1.74c4.59-2.23,9.18-4.51,14-6.45-4.38,2.77-8.89,5.13-13.4,7.57-2.23,1.24-4.51,2.35-6.74,3.59s-4.38,2.57-6.66,3.77-4.38,2.56-6.66,3.76l-6.74,3.68-13.6,7.36h0Zm53.47-26.38s-15.84,12.15-21,16S63.1,289.3,63.1,289.3Z" transform="translate(-0.74 -0.84)"/><polygon class="cls-5" points="194.46 355.66 186.35 340.32 191.06 321.13 224.69 308.14 210.38 278.78 217.45 249.13 230.73 222.58 271.75 216.13 301.9 187.38 367 192.31 379.77 261.91 355.17 349.54 341.15 394.91 284.32 397.06 257.94 378.78 227.04 365.88 194.46 355.66"/><path class="cls-6" d="M294.86,356s-7.86,3.6-21.26,2.77c-3.88-5.21-31.05-7.65-31.05-7.65s-3.39-1-9.39,1.45-11.74,2.15-17.08,3.48-10.63-5.63-14.72-7.08a57.4,57.4,0,0,1-9.51-5.21l-11.45-1.11-23-9.72-36.53-36.39L111,312.07l-3.06,19.24,11,22.78,29.74,27.09,58,14.72L241,385.78l43-18.2L294.86,356Z" transform="translate(-0.74 -0.84)"/><polygon class="cls-7" points="88.13 226.55 95.49 204.26 104.26 189.87 132.5 187.51 124.03 212.24 100.41 254.26 110.21 291.77 92.85 300.45 87.51 292.26 83.21 273.49 82.92 252.4 88.13 226.55"/><path class="cls-8" d="M120.55,354.48l-5.42-7.57a12.4,12.4,0,0,1-.62-6.74c.82-3.19.7-3.4.29-4.6s-3.89-5.33-3.68-8.89-.29-4.8,2.35-7.65,2-7.57,2-7.57l3.6,2.24.81-1.24a3.66,3.66,0,0,1,1.33,2.64c.28-2.23-.91-12.57,1.81-14.93s7.57,11.05,7.57,11.05l-3-19.44-7.66-19.93-13.6-18.2-.82-20.06v-1.74s-6.25,9.6-8,17.18c-1.24,5.21,1.73,11.54,1.11,19s-1.11,6.87.7,9.82,6.25,9,4.51,13.4c-1.53,3.76-6.74,1.11-6.74,1.11s-1,3.06-2.44,4.18a9.2,9.2,0,0,0-2-4.09c-.09.7-.29,1.66-.29,1.66s-.91-2.86-1.82-6.46c-1.24-4.79-2.57-11.12-3.77-14.51C86.26,275.1,85,281,85,281l.7,9.1,3.39,12.48,3.27,8.18,3.19,10,2.76,6.72,2.24,5.13,1.94,11.54,9.39,9.92,5,2.24,3.64-1.86h0Z" transform="translate(-0.74 -0.84)"/><path class="cls-9" d="M93.79,209.19s-6.74,11.45-8.69,23-3.68,23.74-2.45,39.46a163.41,163.41,0,0,0,5.5,32.5c3.27,11.54,11.75,27.59,11.75,27.59l.29-.62a43.8,43.8,0,0,1-3.4-8.48c-1.11-4.38-1.53-9.59-2.56-11.95s-2.44-4.38-3.18-7.28-.82-7.15-3-10.42c-.91-1.32-2-4.8-2.36-8.27-.41-5.21.21-11-.29-15.84-.91-8-1.53-13.4-.7-17.58s5.13-16,7.78-25.47c1.73-6,.7-11.13,3.88-16.38a46.29,46.29,0,0,0,5.83-13c.82-2.89-8.43,12.74-8.43,12.74h0Z" transform="translate(-0.74 -0.84)"/><path class="cls-10" d="M125.76,204.6s-3.48,1-5.13,2.85-2.36,3.19-4.59,6.12-2.36,5.34-4.18,9-5.83,9-6.33,11-1.32,11-2.35,15.34,1,9.6,1,9.6l2.36-.5a7.44,7.44,0,0,0,2.35,5.13c2.36,2,2.77-6.87,2.77-6.87l8.81-29.73,13.28-9,1.44-7.28-9.47-5.62h0Z" transform="translate(-0.74 -0.84)"/><path class="cls-11" d="M132.21,218.08s-6.25.42-9.31,2.65c-1.24.91-1.73,1.65-3.06,2.77-2.44,2-4.92,3.89-6.12,6.54S111,236.7,110,244.27c-.41,3.18-.41,6.12-.7,8.68-.42,3.48-1,6.25-.71,8.18.42,4,4.51,6,4.91,10.55l8.48-4.3,8-31.48,17-10.63-9.6-10.75-5.08,3.54h0Z" transform="translate(-0.74 -0.84)"/><path class="cls-12" d="M87.48,430c0-.31.07-.62.11-.94,1.23-10.63,1.44-18.69,2.35-23.74,1.32-7.15,2.23-9.81,2-12.49-.29-4.3-.62-7.44-.21-10.75.62-4.38,4.92-9.59,4.8-13.19-.08-2.86-1.53-4.72-2.77-6.45s-2.24-3.19-2.24-3.19S100,353.44,100,330a2.41,2.41,0,0,1,.5.21L104.62,342l2.86,3.48,11,20.43,14.1,13.69,20.84,14,13.07,14.22,1.32,37.92L150.69,468,147.9,473a243.07,243.07,0,0,1-60.42-43Z" transform="translate(-0.74 -0.84)"/><path class="cls-13" d="M139.65,466.3a11.67,11.67,0,0,1,4.18-7.77,4.65,4.65,0,0,1,.91,2.77,24.63,24.63,0,0,1,16.75-11.25c11.13-2,13.81-10.13,13.81-10.13l23.62-21.47,27-24.85,32.84-11.54,15.34-3.77a8.46,8.46,0,0,1-.29,3.6c2.86-.2,9.18-1.65,15.76-4,2.65-1,5.13-1.44,6.45-.08,2,1.82,2.23,6.12,2.36,8.68,3.18-.7,6.86-3.76,9.81-3.47,4.72.5,8.89,6,13.69,6,6.33,0,9.18-3.89,13.61-6.95,2.65-1.82,6.45-4.09,8.6-5.62,5.13-3.77,59.39-20.35,59.39-20.35l19,1.24,3.06,20.43-1.63,53.4-.61.59L336.82,477l-119.9,18.38A240.46,240.46,0,0,1,140.27,469l-.61-2.72h0Z" transform="translate(-0.74 -0.84)"/><path class="cls-6" d="M94.75,436.81c1.7-3.56,3.24-6.54,3.51-7.6.21,2.14.6,6.86,1.38,11.87-1.64-1.4-3.28-2.83-4.89-4.27Z" transform="translate(-0.74 -0.84)"/><path class="cls-14" d="M182.33,487.07l15.51-4.31,1.32.42s.71.41.71,1.81c1.94-1.11,3.6-.91,4.79-1.65.62,1.32,1.24,5.71,4,6.25s5.92-1.25,9-3.6,6.54-5.5,9.18-6.74a48.17,48.17,0,0,1,2.56,5.5c3.48-2.77,9.52-14,18.12-13.82a32.65,32.65,0,0,1,11.94-14.43c8-5.42,13-5.83,19.23-5.33a32.8,32.8,0,0,1,9-8.07c1,.42,3.89,2.15,7.44.5s7.65-8.07,13-8.89a12.56,12.56,0,0,1,8.27,1.73s15.54-15.42,26.26-20.55c-.41-1.24-1.24-5.91,11.33-16.26.71.63.21,2.36.71,2.46a29.21,29.21,0,0,0,7.15-4.3c4.8-3.6,10.54-7.36,14-8.4,6.54-1.94,13.48,2,13.48,2a6.15,6.15,0,0,1,1.94-.91,25.8,25.8,0,0,0,3.77-.82c-.09,2.15,1.11,5.83,0,9a19.43,19.43,0,0,0,4.09,1.74c-.7,1.53-2.24,5.42-4.8,7.28,2.15,1,2.44,2.23,5.5,3.27a62.58,62.58,0,0,0-4.18,6.54c-.91,2-4.18,10-5.62,13.07s-3.6,8.69-4.6,9.82-4.59,5.91-7.36,8.26c2.46-.91,12.5-4,16.75-5.12L381,464.12a242.68,242.68,0,0,1-198.65,23Z" transform="translate(-0.74 -0.84)"/><path class="cls-15" d="M133.23,217s-3.6,0-4.3.49,3.6,1.53,4.92,2,4.18,2.77,4.92,4.59S164.62,236,164.62,236L182.4,235l6.13-8.47-11.66-10.22,8.18-24.11L174.22,194l-26.06,15.54-13.07,5L133.23,217Z" transform="translate(-0.74 -0.84)"/><path class="cls-16" d="M172.28,225a2.79,2.79,0,0,0,2.46,1.32c3.68,0,7.07.91,8.47,2.77,2.36,3,8.9,12.49,8.9,12.49l15.63,5.63,1-18.41-17.08-11.87L172.23,224V225h.05Z" transform="translate(-0.74 -0.84)"/><path class="cls-17" d="M169.22,231.77a16.91,16.91,0,0,0,6.45-1.12c3.59-1.32,9.51-4.17,12.07-3.05,3.6,1.52,2.85,6.32,6.75,10.63,2.35,2.64,6.65,2.56,9.09,5.42s10.84,1.53,10.84,1.53l3.18,17.17-12.78,16.38-4.18,20.35H183.36l-15.78-6.27L159.81,274l3.88-19,5.53-23.21Z" transform="translate(-0.74 -0.84)"/><path class="cls-18" d="M202.64,232.6a4.92,4.92,0,0,0,1.32.21c-.49.41-1.53,1.32-1.12,3.68s1.74,5.33.63,7.15a8.91,8.91,0,0,1,1.94,3.39c.7,2,.91,3.89,5.5,4.18a9.43,9.43,0,0,0-1.82,1.45,30.5,30.5,0,0,1,4.8,5.33,39.44,39.44,0,0,0,6-1.43l.91.62,1.95-.82s-1.82-.7-.5-5.13c1.24-3.89,2.36-3.68,2.45-4a39.73,39.73,0,0,0,.92-6,73.86,73.86,0,0,0,1.11-8.68l-1.32-14.43L218,213.6l-6.06-5.84-5.71,10.75-3.75,3.75-.29,9.3.45,1Z" transform="translate(-0.74 -0.84)"/><path class="cls-19" d="M220.54,220.52a50.5,50.5,0,0,1,1.83,6.66,6.39,6.39,0,0,0,.28-1.74s1,5.71,1.24,8.07c.42-.08.82-.21.91.21a33.65,33.65,0,0,1,.82,7.56,20.6,20.6,0,0,1,6.95-6.94,12.16,12.16,0,0,1,5.62-2.24c3.19-.08,5.5,2,9.31,2,9.18,0,17.49-6.74,23.61-8.81,4.51-1.53,8.4-2.65,11.13-5.13a29,29,0,0,0,5.83-7.28c2.85-4.9,5.83-9.18,8.81-9.71a19.33,19.33,0,0,1-4.09.29,32,32,0,0,1,2.45-2.16c1.55-1.24,3.39-2.77,6-2.77,4.71,0,7.07.7,9.72.7a13.16,13.16,0,0,0,4.17-.7s2.78,1.95,9,1.95,10.42.62,13.69.91,14.23-.91,17.37-.82a15.12,15.12,0,0,1,5.91,1.45L351,172.61l-36.4-31.82L293,156.13l-33.34,33.34-32.25,11.95L220.63,209v11.53Z" transform="translate(-0.74 -0.84)"/><path class="cls-20" d="M292.92,203.65s.91-.91,2.44-2.15,3.39-2.77,6-2.77c4.71,0,7.07.7,9.71.7a13.19,13.19,0,0,0,4.18-.7s2.78,1.94,9,1.94,10.42.62,13.69.91,14.22-.91,17.37-.82a15.17,15.17,0,0,1,5.91,1.45l-4.59-13.28-5.33-10.13-15.22-16.67L317.73,151.3c-.08-.08-6.33-1.74-6.33-1.74l-16.54,10-15,38.83-.29,8.18,9.72,4.59c2.44-4.09,5.13-7.36,7.65-7.77-2.28.25-4,.25-4,.25Z" transform="translate(-0.74 -0.84)"/><path class="cls-21" d="M292.71,206.42c-1.45.08-2.64-.21-3-1.24-1.24-3.47-2.24-4-3.28-4s-2.44,2.23-3.27,2.44-1.82-2.56-1.82-2.56l-.91-.42a55.18,55.18,0,0,0-9.09,7.57c-3.77,4.09-9.93,11-12.7,12.28s-12.28,1.66-15.54,2.36a20.1,20.1,0,0,0-7.36,3.6c-.5.53,1.45,1.11,1.74,1.65s-3.19.29-3.48.82.82,2.77,1.33,4a6.89,6.89,0,0,1,2.85-.71c3.18-.08,5.5,2,9.3,2,9.19,0,17.5-6.74,23.62-8.81,4.51-1.53,8.4-2.65,11.12-5.13a29,29,0,0,0,5.84-7.28,51.51,51.51,0,0,1,4.63-6.61h0Z" transform="translate(-0.74 -0.84)"/><path class="cls-22" d="M161,411.09s-.82-3.06-8.4-11c-2.15-2.23-3.47-4.09-4.92-5.41-3.6-3.4-5.71-4.31-8.27-6.25-5.63-4.18-11.75-4.18-16.46-9.3s-10.21-14.93-14-24.94-4.8-13.19-4.8-13.48,1-2.24,2.36-1.95,1.32,2.85,1.65,3.48a21.87,21.87,0,0,0,2.23,2.85c2,2.23,4.72,4.9,6.13,8.89a40.14,40.14,0,0,0-1.45-7.15s7.28,4.59,13.48,9.38,8.81,6.46,10.63,9.51,6.12,11.13,8.18,13.49,30.26,11.25,30.26,11.25l13.42,10,6.66,14.6-5.22,8.18-10,2.15-16.26-7.28-5.2-7.06Z" transform="translate(-0.74 -0.84)"/><path class="cls-23" d="M124.93,360.8s3.39,5.42,11.66,10.55c7.45,4.51,19.23,8.6,29.74,11A83.37,83.37,0,0,0,183.82,385c14.6.2,24.65-4,37.1-5.34,6.74-.7,15-1.24,23.61-3.27,11-2.65,17.58-5.62,26.47-9.81,6.45-3,12.37-5.21,17.16-8.07,6.74-4,11.67-8.39,17.37-9.71-.7,1.94-1.44,5.41-7.07,9,3-.08,7.07-.29,7.07-.29s-4,2.36-11,7.65c-4.3,3.28-10,8.81-15.83,12.49-3.77,2.36-7.86,4.09-10.55,5.5-6.55,3.6-9.18,5.42-13.48,9.82a5.9,5.9,0,0,1,1.65,0,32,32,0,0,0-9.3,2.77,12.64,12.64,0,0,0-4.72.41c-1.94.62-4.51,2-7.15,2.77-3.77,1.12-5,.62-5,.62l.62,1.24s-4.9-.08-6.54.09c.29.08.21.2.21.2a2.59,2.59,0,0,0-.82.29,8.6,8.6,0,0,1-2.56,1.12c-.5.08-.91.08-1.53.2.2.5,1.82,3.28,2.56,4.91-.62.42-9.93,7.45-9.93,7.45a7.14,7.14,0,0,1,.71,1.44c.29.91.41,2.24.7,2.86.7,1.24,1.12,1.44,1.12,1.44s-1.12.21-3.07.71a55.62,55.62,0,0,1-6.54,1.53,26,26,0,0,1-2.65.2,7.22,7.22,0,0,1-1.11,8.4c-3.35,4-4.39,4.59-5.42,7.15a10.84,10.84,0,0,0-1.65-1c-1.12-.5-2.65-1.24-3.19-2.23a26.53,26.53,0,0,1-1.24,3.88c-1,2.77-2.56,5.5-2.85,7.57-1.12-1.24-3.19-3.68-6-3.18s-5.13,4.38-5.62,5.5c0-.71-.5-1.24-.62-.42A31.53,31.53,0,0,1,164.3,467c-.09-1.95-.09-6.25-.29-7.65-.82.81-1.82,2-7.78,4.59s-4.91,5.13-4.91,5.13a12.87,12.87,0,0,1,2.65-8.4c3.19-4.3,5.13-6.33,5.13-6.66a1.86,1.86,0,0,0-.42-.91c-.41-.41-1.24-.91-1.24-1.24.5-.2,5.42-2.56,5.13-7.44a13.21,13.21,0,0,0-3.47-8.27c-.21-.21,2-1.74,1.65-2.24-.2-.29-2.85-2.23-3.18-3.27a10.41,10.41,0,0,1,.41-1.82,5.18,5.18,0,0,0,.42-2.15,17.31,17.31,0,0,0-1.66-4.17,23,23,0,0,0,2.36,0,20.51,20.51,0,0,1-1.94-3.89,52.48,52.48,0,0,0-1.25-5.13c.71.08,2.44.21,2.44,0,.09-.62-1.52-1.65-.81-2.45a4.14,4.14,0,0,1,2.35,1.65c-.49-1.32-1.32-3.89-3.06-4.92a7.54,7.54,0,0,1,6,.41,8.12,8.12,0,0,1,3.27,3.48s1.45,1.11,3.68,2.77c2.57,2,5.83,4.91,11.05,6.95,1.11.62,4,.62,6,.2a9.23,9.23,0,0,0,2.57-1,4.71,4.71,0,0,1,.91-.42,20.61,20.61,0,0,0-1.53-2.56c.7,0,1.53.08,1.53.08s.49-1.11-1.74-3.27c.5-.49,1.12-.82,1.12-1.65a4.82,4.82,0,0,1-2.23-1.53c.41-.29,1-1.24,1.73-1.53-.62-.5-2.15-2.57-2.85-2.77a12.69,12.69,0,0,0,1.94-.91,23.56,23.56,0,0,1-4.59-1.66,27.81,27.81,0,0,0-3.76-2.64c-1-.42-2.86-.62-3.6-1.45a11.17,11.17,0,0,0,2.65,0c.62,0,.91.08,1.11.08-.08-.29-.08-.91,1.53-1.11a7.7,7.7,0,0,0,2.24-.71,5.68,5.68,0,0,1-3.27-1.73c-1.74-1.66-3.19-3-4.18-3.19s-3,.7-4.18.62a3.78,3.78,0,0,1-2.36-1s-5.49.49-17.69-6.95c-10.55-6.45-15.14-12.16-15.14-12.16a18.42,18.42,0,0,1-2.85-1.32c-4-2.07-9.48-6.37-9.31-12h0Z" transform="translate(-0.74 -0.84)"/><path class="cls-24" d="M277.08,112.58a5.42,5.42,0,0,1,2.45,1.66c2,2.23,3.19,6.45-1.24,11a7.14,7.14,0,0,0,4,.62c-1.53,1.82-5,5.7-5.21,9.1-.21,2.77,1.53,3.59,1.53,3.59a13.74,13.74,0,0,0-2.77,8.18,32.61,32.61,0,0,1,4.09-3.88A109.7,109.7,0,0,1,290,135.86a5.8,5.8,0,0,0,.29,2.15s5.33-4.39,9.82-2.44c2,.91,1.11,3.76,1.11,3.76a4.75,4.75,0,0,1,4.72.91c1.94,1.95,4.69,7,6.1,8.9a64.54,64.54,0,0,1,3.88,5.34,67.51,67.51,0,0,1,5.63,11.87c.08-2.15.62-5.5,6.74-3.4s13.07,6.66,18.9,15.54,7.28,18.91,10.21,22.72,6,9.8,6.25,12.37-.91,10.83,5.21,33.21c1.73-6.95,4.38-22.38,4.38-22.38l1.45-13.6,1.65-42.1-44-36.53L298,107.24l-22.37,2.16,1.41,3.18Z" transform="translate(-0.74 -0.84)"/><path class="cls-25" d="M358.76,175.24s-.62-4.09-11-11-18.41-6.87-25.85-12.7c-5.71-4.59-11.66-15.14-15.54-18.61S302,119.53,302,119.53l12.69-10.63,18.89-27.29,16-17.58,7.65,10.63,10.63,12.49,5.91,25.06,2.15,36.69-17.17,26.34Z" transform="translate(-0.74 -0.84)"/><path class="cls-26" d="M371.54,219.21a46.77,46.77,0,0,0-2-16.46,303.51,303.51,0,0,0-11.45-29.17c-1.12-6.25-.29-6.74.91-7.45s5.71-3.27,8.18-12.28,10.13-9.3,10.13-9.3l4.72-3.48L389.15,159l6.24,16.17,1.95,12.37,1.45,10.54-3.4,22.29-16.74,15.14-7.12-16.28h0Z" transform="translate(-0.74 -0.84)"/><path class="cls-27" d="M137.83,467.67v-.46a3.39,3.39,0,0,0,.91-.82c.29-.41.5-.91.71-1a7.65,7.65,0,0,1,3.39-.62c1,.19,3.76,1.32,5.21,1.24,3-.08,6.45-2.36,11.95-1.32,8.27,1.53,10.22,7.15,15,10.33a9.53,9.53,0,0,0,7.16,1.25h1.11c.21,0,1.74-1.74,2.57-1.66,1.65.08,1.82,1.45,2.85,1.53,2.44.29,7.16-1.24,9.51-.62a4.56,4.56,0,0,1,1.86,7.57c-2.56,2.35-5,4.59-5.49,6.54.63.48,1.23,1,1.81,1.54a240.73,240.73,0,0,1-58.56-23.45Z" transform="translate(-0.74 -0.84)"/><path class="cls-28" d="M358.05,385s6.45-8.6,8.69-12.86-7.07-60-7.07-60l18.69-61.25-.5-19.93s.91-18.4,3.06-26.39c2.57,4.59,10.55,10.14,12.29,13.07.82-5.62,3.59-17.49,3.18-30.15,1.53,2.36,5.21,26.06,5.21,26.06l3.68,16,4.8,17,5.34,17.9,3.18,12.37,1.82,3L422,285l1.45,5.62,4.17,13.2L430,314.61,432,334.26a29.59,29.59,0,0,1,.91,4.59,19.23,19.23,0,0,1-.29,3.76,44.73,44.73,0,0,1,.42,8c-.42,3.27-.42,5.83-3,8.18s-4.18,16.38-4.18,16.38l-4.59-3.06a12.46,12.46,0,0,0-1.24-8,8.06,8.06,0,0,0-8.69-4c-2.35.49-7.06,1.24-8.6,2.56s-5,5.42-8.27,7.28c-4.09,2.45-10.75,2.65-14.3,3.47s-7.57,3.27-11.75,6.12A65.4,65.4,0,0,1,358.07,385h0Z" transform="translate(-0.74 -0.84)"/><path class="cls-29" d="M358.05,475.4s.28.18.8.47a243,243,0,0,0,77.43-57.39c-.24-8.37-.55-17-.89-20.13-.7-6.74-.2-13.6-.41-17.57s-2.44-20.14-3.47-24.32-3.27-6.25-3.6-6.25-2,7.86-2,9.82-.41,6.66-.41,7.86c-.29-.09-.41-.82-.41-1.12-.42,1-.92,2.85-1.12,3.06s.29-1.73,0-2.15-.82-.21-.71-1.24a12.53,12.53,0,0,1,.29-1.82s-1.24,1.82-2.14,6.45-.92,4.72-1.25,5.13-1.94,2.15-2,2.77c-.09,1.12,1.53,2.24,1.65,2.85.08,1-1.45,5.84-1.94,8.18s-.29,6.95-.82,9.31c-.41,2.15-.82,3.39-2.23,4.3,1,.2,2,.49,2,.49a15.3,15.3,0,0,1-2.23,11.34c-1.32,1.81-1.65,2.64-3.06,4.3-2.77,3.06-4.92,6.54-5.13,8.81a15.5,15.5,0,0,1-.29-2,96.45,96.45,0,0,0-6.12,7.86c-2.35,3.68-5.62,3.47-6.54,4.38a4.35,4.35,0,0,0-.82,3.89c-.82.2-2.36.49-3.39,3.68a7.76,7.76,0,0,1-3.68,4.38,19.76,19.76,0,0,1-5.5,1.74,6.74,6.74,0,0,1,1.94.62c-.62,1-3.47,2.65-6.66,4.71a14,14,0,0,0-5.5,6.66,4.74,4.74,0,0,1-4,3.06c.82.5,2,1.66,2.65,2a9.27,9.27,0,0,0-5.21,2.56c-2.9,2.4-3.89,3.11-5.21,3.31h0Z" transform="translate(-0.74 -0.84)"/><path class="cls-30" d="M300.51,494.57a23.38,23.38,0,0,1,5.11-2.71c6.45-2.56,13.27-3.06,16-3.89s4.59-1.94,7.77-2.56c-.08.72-.15,1.41-.23,2a243.15,243.15,0,0,1-28.62,7.11Z" transform="translate(-0.74 -0.84)"/><path class="cls-31" d="M419.48,324.91s-1.32,7.15-3.68,11.66-4.91,10.75-4.91,10.75a19.58,19.58,0,0,1,.5-4.18c-3,1.74-10.22,5.92-12.27,7.78s-5.21,4.8-6,6.24c1.95-5.7,4-10.83,4.3-13.19-3,2.15-16.87,13.61-24.11,21.18l-22.54,18.23a77,77,0,0,1-8,3.76c-3.88,1.65-8.47,3.06-11.87,4.38a18.82,18.82,0,0,1,4.39-6.66c2.15-2,8.6-9,9.59-12.26.91-3.4,1.12-5.42-.08-8.28-1.12.29-3.68.42-5.42.92a10.6,10.6,0,0,0-3.6,2.35,85.25,85.25,0,0,1,4.18-14.72c-2.15.08-5.83.7-5.83.7A52.58,52.58,0,0,1,348,339a45.48,45.48,0,0,0-7.85,2.44c-5.13,2.15-10.76,5.34-14.93,7.07,2.35-3.27,18.89-26.88,28.74-48.88s13.48-27.58,15.63-39.37c1.12-5.83.82-14.45,1.12-22.17s1.24-14.51.62-19.1c2.56,3.18,12.16,12.15,12.49,32.21s-9.18,47.15-19.23,61.75c2.45.7,8.81,1.53,15.34-9.82s6.45-14.51,8.81-19.23a16.62,16.62,0,0,1,.2,3.19s9.52-11.54,14-26.06c.91,6.25,3.59,11.75-.63,23.2-3.76,10.34-8.68,12.87-8.68,12.87a19.73,19.73,0,0,0,6-2.57c.62,1.53.5,3.27,1.53,3.89s2.44,1.65,2.65,2.65c1.11-1.66,2.85-3.77,3.39-5.34-.42,3.27-.71,17.58.81,24.86,3.19-.29,6.46-.5,8.69-6.25a25.59,25.59,0,0,0-.5,13.81,16.09,16.09,0,0,0,3.23-3.22h0Z" transform="translate(-0.74 -0.84)"/><path class="cls-32" d="M312,97a24.38,24.38,0,0,1-8.6,1.32c-4.71,0-3.39-1.82-10.75-1.82-11.33,0-50.91,6.55-57.86,6.45-4.51-.08,15.22,1.95,15.22,1.95l50.42.7,10.13-.82,3.76-7.66Z" transform="translate(-0.74 -0.84)"/><path class="cls-33" d="M181.3,195.5s-6.45,4.92-9.18,8.69-4.18,6.24-7.28,9.3a6.28,6.28,0,0,0,2.15-.29s0,.82-.5,1a2.9,2.9,0,0,1,2.36.81c-.91.5-3.39,3-1.45,5.92,1.45,2.23,4.51,2.44,4.51,2.44s-.7,2,2.23,1.82c6.33-.29,13.4-3.06,16.67-2.36s5.13,1.12,7.44,5.13c2.46,4,4.59,4.59,4.59,4.59a23.42,23.42,0,0,0,1.12-9.18,27.23,27.23,0,0,0,1.95-9.3l-2.16-15.84-9.38-11.87-12.16,6.74-.91,2.35Z" transform="translate(-0.74 -0.84)"/><path class="cls-34" d="M192.84,193.14s.91,2.16,4.71,2.36a2.19,2.19,0,0,0-.29,1.74c.08.7.21,1.73.21,1.73a3.92,3.92,0,0,0,1.12-.81c.2.91-.21,2.35,0,3.39a7.36,7.36,0,0,0,.61,1.82,3.29,3.29,0,0,1,.21-.42,15.94,15.94,0,0,0,2.86,4.09,1.61,1.61,0,0,1,.2-.82,2.81,2.81,0,0,0,.5,1.45,1.37,1.37,0,0,1-.42-.29s.21,6.55,1.33,9.93a4.88,4.88,0,0,0,.49-.7c0-.21-.08,1.82-.29,3.27a14.16,14.16,0,0,0-.08,3.47,11.15,11.15,0,0,1,2.44-1.45c1.24-.5,3.27-2,4.51-5.42a35.75,35.75,0,0,0,1.65-5.91,8.23,8.23,0,0,1,.82,2.45c.09,1,2,.5,2,.5l.41-4.51,2.46-10.21,2.23-6.33,10.75-16.75,19.43-15,17,3.89L282,145.21,257.35,130.4,234,132.84l-21.17,29.32-16.95,26.6-3.06,4.38Z" transform="translate(-0.74 -0.84)"/><path class="cls-35" d="M315,150.71a26.78,26.78,0,0,0-5.62,2.46c-4.18,2.16-7.07,2.85-8.69,6a15.67,15.67,0,0,0-1.73,5.71,38.94,38.94,0,0,1,4.5-1.65c1.74-.41,3.68-.29,3.48.41a4.87,4.87,0,0,1-.82,1.32s3.27-.08,3.18,1.54a8.41,8.41,0,0,1-1.23,4.17c-.63.82-3.19,2-3.48,3-.7,1.95.29,2-.08,3.6s-1.65,4.51-6.12,9.72a52,52,0,0,0-6.54,8.89,56.53,56.53,0,0,1-3.4-7.78c-.81.42-5.21,2.86-5.21,2.86l-10.17-35.44.2-2.36a6.27,6.27,0,0,0,1.12-3.19c-1.53-.49-1.73-.91-3.76-2.85s-3.68-4.3-7.07-5.91a4.51,4.51,0,0,0-3.6-2.65c-2.48-.5-4-.91-4-.91a4.33,4.33,0,0,0,1.94-1.53,25.56,25.56,0,0,1-6.12.62c-3.39-.08-3.76-.21-5.62.08s-4.09,1.12-4.92-1.73c-.91-.71-2.86-.09-4.51,2.35s-2.23,4.38-5.42,5.34a11.09,11.09,0,0,1-1.44,4,44.85,44.85,0,0,1-4.31,5.33c-3.06,3.6-2.56,9.51-7.44,14s.82-12.49.82-12.49l7.85-18.81,22.38-21.88,34.74-2.35,3.39,18,17,5.83L315,150.74h0Z" transform="translate(-0.74 -0.84)"/><path class="cls-24" d="M320.5,154.68l-14.6-21.05-10.21-7.86s-7.28-13.39-7.78-13.81-7.27-1-11.66-1.32l.82,2a5.3,5.3,0,0,1,2.45,1.65c2,2.23,3.19,6.45-1.24,11a7.06,7.06,0,0,0,4,.62c-1.53,1.82-5,5.71-5.21,9.1-.2,2.77,1.53,3.6,1.53,3.6a13.73,13.73,0,0,0-2.77,8.17,33.35,33.35,0,0,1,4.09-3.88A104.08,104.08,0,0,1,290,135.94a6,6,0,0,0,.29,2.15s5.34-4.38,9.82-2.44c2,.91,1.11,3.76,1.11,3.76a4.74,4.74,0,0,1,4.72.91c1.94,2,4.71,7,6.12,8.9a63.82,63.82,0,0,1,3.88,5.33,66.8,66.8,0,0,1,5.63,11.87c.08-1.66.42-4,3.27-4l-4.34-7.77Z" transform="translate(-0.74 -0.84)"/><path class="cls-36" d="M101.65,214.49s-1-2.57,0-7.57,2.64-7.36,3.18-14.72,5.34-16.55,5.34-16.55l13.27-6,9.39,2.56,2.77,12.57-11.87,6.55a9.11,9.11,0,0,1-4,5c-3.35,2.23-8,4-9.1,6.24a18.37,18.37,0,0,0-1.44,4.39s-3.4-.71-5.42,1.53-2.07,4.3-2.15,6Z" transform="translate(-0.74 -0.84)"/><path class="cls-37" d="M128.45,211.13a6.12,6.12,0,0,0-1.95,2.46c-.82-1.32-2.77-9.18-2.85-16.26s-.51-8.82,1.13-11.26,8.05-5,7.14-9.39c-.91-4.18-4.72-5.91-9.39-4.72-3.27.82-5.71,7.78-9.1,11.25-2.56,2.65-5.62,2.24-6.45,3.68-1.12,2-.08,3.89-.41,5.13a25,25,0,0,1-3,5.34c-3.76,5.41-10.13,13.07-11,19.93.29-3.89.08-4,1.12-8.27l-.62-1,4.08-13.4,2.65-11,5.92-18.49,10.42-18.9,10.13-11.33,10.55.7,1.24,15.84,6,29.74,12.7,15.63L136.5,210.43l-8.06.7h0Z" transform="translate(-0.74 -0.84)"/><path class="cls-38" d="M134.77,216.75a5.09,5.09,0,0,1-2.35.09c-.63-.33-1.24-.71-1-1.12s1.32-1.11,1.32-1.45a1.16,1.16,0,0,0-1-1.24,1.13,1.13,0,0,0-1.24.5,4.72,4.72,0,0,0-1.65-.82,11.69,11.69,0,0,1,1.32-.08,12.83,12.83,0,0,0-3.6-1c1-.62,3.06-2.44,4.39-2.44s2.15-.2,1.94-.91a4.25,4.25,0,0,0-2.36-2.15c.42-.49.71-1.24-.28-3.27s-.63-3.39-.29-3.88a27.2,27.2,0,0,1,1.81-2.44,6.66,6.66,0,0,1,1.74-2.15,22.67,22.67,0,0,1,3.06-1.33c1.45-.49,2.65-1.11,3.48-.49a1.13,1.13,0,0,1,.49,1.45,7.45,7.45,0,0,1,5.42.29c2.56,1.23,8.81,2,8.81,2L157,200.8l-14.81,12.7L136,216.56l-1.24.2h0Z" transform="translate(-0.74 -0.84)"/><path class="cls-39" d="M155.33,196a57.22,57.22,0,0,0-5.63,4.18c.62.08,1.65.49,1.24,1.11s-3.47,2.77-5.13,4.8a32.25,32.25,0,0,0-4,5.83c-.62,1.12-5.33,4.39-6.94,4.8,3.39,0,10.21-4.18,12.77-4.18a2.53,2.53,0,0,0,2.15,2.77,16.1,16.1,0,0,0,11.25-2.56c5.63-3.39,3.77-5.92,6.12-7.57,4.51-3,6.33-5.63,8.81-7.28a16.2,16.2,0,0,1,3.77-2s.08-1.24.81-1.11a1.11,1.11,0,0,1,.91.7,25.49,25.49,0,0,1,9.82-3.89.57.57,0,0,1-.29-.28s.41-.21.5-.42c0,0,.29-.41.49-.21s.5,1.74.91,2.36c.91-.41,2.65-4.3,2.65-4.3l4.18-11.95V165.85l-3.27.62-24.54,10.42-14.89,15.43L155.32,196Z" transform="translate(-0.74 -0.84)"/><path class="cls-40" d="M226,142.44a14,14,0,0,0,3.78-1.53,17.22,17.22,0,0,1-2.65,5.92,50.54,50.54,0,0,0-4,6.86c-1.74,3.39-1.94,8.27-3.6,10.42a7.48,7.48,0,0,1,2.36-.7,11.06,11.06,0,0,0-2.36,3c-.7,1.53-1.94,4.71-5,6.66s-7,3.18-11.13,7.77-8.47,10.22-10.63,12.27a30.37,30.37,0,0,0,3.06-8.39c.42-2.57-.08-5.63.62-9s.71-5.83,4.09-11.75,9.18-26.47,9.18-26.47l12.49-4,3.77,8.93h0Z" transform="translate(-0.74 -0.84)"/><path class="cls-41" d="M217,134.87s-3.77,5.42-4.8,10.22-.08,4.38-.7,6.74a8.82,8.82,0,0,0,0,4.39,15.58,15.58,0,0,1,5.2-5.14c3.56-2.14,6.45-3.68,8.18-5.49s3.18-5.13,6.95-7.57c-1.53-.21-3.68-.91-4.09-.82,1.53-1.74,6.12-4.38,10.75-7.57s4.3-4.59,11.75-7.85c-2.44.41-3.6-.21-5.63,0,.82-1.74,3.68-2.57,6.54-5.42s-1.82-7.07-1.82-7.07l-21.81,13.19-10.54,12.41Z" transform="translate(-0.74 -0.84)"/><polygon class="cls-42" points="157.03 124.19 157.53 120.22 163.77 110.21 170.31 92.64 170.31 68.61 169.81 54.72 170.84 45.62 171.63 42.72 172.46 41.6 177.79 44.37 185.15 54.38 185.85 73.7 178.7 104.18 158.27 126.47 157.03 124.19"/><path class="cls-32" d="M174,41.33s-3.27.08-4,13.69-1,20.76-1.53,27.5-1.65,10.83-2.23,14.8-.92,9.39-2.77,12.7c-.82,1.53-2.57,6.33-6.66,9.93a41.2,41.2,0,0,1-12.49,7c-1.82.41-11.05,1.32-14.81,3.39a22.56,22.56,0,0,0-6.12,3.88A78.28,78.28,0,0,0,107,156.46C99.62,171,92.26,212,92.26,212l1.65-2.77s.21-3.68,3.89-10.13,2.57-13.69,7.57-26.05a140.17,140.17,0,0,1,7.36-16c4.72-8.48,10.42-15.76,16.17-19.73a51.07,51.07,0,0,1,19.73-7.85L159.75,122s1.95-3.77,4.51-8.07c3.6-6,8.18-12.78,9.18-22.58,1.53-14.51-2.15-24-1.94-32.63s.29-14.93,2-16.46.49-1,.49-1Z" transform="translate(-0.74 -0.84)"/><path class="cls-43" d="M174,106.26a157.39,157.39,0,0,0,7.15-22.79c.42-2.15,1.24-4.3,1.45-6,1-10.13,1.32-14.31,0-19.85-1-4.09-5-7.78-7.07-10.63s-3-4.09-2.56-4.72a4.56,4.56,0,0,1,3.59-1.53,12.31,12.31,0,0,1,8.81,4.09C188.58,48.47,191.1,61,191.1,61l2.65,16.48,6.74,20.76L174,106.27h0Z" transform="translate(-0.74 -0.84)"/><path class="cls-44" d="M220.13,93.68a4.11,4.11,0,0,1-2.56,0,3.71,3.71,0,0,1-1.66,3.48c-1.73-.71-18,.7-18,.7s-7.57-1.32-9.93-11.33c-1.65-6.66,1.24-15.84.29-21.88-1.44-8.89-3.47-10.63-3.68-13.4s-.41-3.47-.41-5.21a9.46,9.46,0,0,0-2.36-.49c-.2-.82.21-1.54-.7-3A16.37,16.37,0,0,1,189,47a14.69,14.69,0,0,1,3.76,4.8c.62.62,5.63,4.91,7.78,9.18s6.32,17.91,7.28,20.14c.28.91.91,1.82,2.45,3.89,2.4,3,5.91,7.9,9.88,8.72h0Z" transform="translate(-0.74 -0.84)"/><path class="cls-32" d="M193.33,52a112.36,112.36,0,0,1,6.74,12.57c2.44,5.5,3.89,10,7,13.69-1.65-4.8-4.59-14.23-6.32-17.58-1.95-3.54-5.92-7.36-7.37-8.68Z" transform="translate(-0.74 -0.84)"/><path class="cls-45" d="M165.21,120s-4.18,1-12,5.12c-2.57,1.33-5,2.44-7.36,3.48A128.47,128.47,0,0,1,128,135.29a8.68,8.68,0,0,0,.62.7,5.18,5.18,0,0,0,1.12,3.18c-.62.63-8.9,6.25-6.45,25.07,1.65-.62,3.59-1.45,3.88-1.45.5.08.62,1.45,1.24,1.45s2.65-.82,4.8-3.6c-.08,1.12-1.32,12.36,5.34,19.93,1.24-1.45,4.38-6.24,4.38-6.24l.08-1.53a41.55,41.55,0,0,1,2-10.22,27.17,27.17,0,0,1,5.13-8.48l17.69-25.27-2.64-8.89h0Z" transform="translate(-0.74 -0.84)"/><path class="cls-46" d="M148.67,157.05a9.66,9.66,0,0,1-2.65,1.32,10.22,10.22,0,0,1,1.74-8.06c2.85-4.18,9.1-9.6,10.83-13.91,1.12-2.77.62-9.71,10.55-18.61s13.81-12,13.81-12L199,97.78l19.72,7.77L208.92,144l-7.61,18-30.26-5.71-22.38.8Z" transform="translate(-0.74 -0.84)"/><path class="cls-47" d="M160.22,146.62l3.76-4.71v-3.35s4.18-1.12,8.69-5.71,10.75-13.4,16.25-12.87,6,12,6.25,15.14.91,10.42,2,14.31S183.79,168,183.79,168l-9.94,7.57-13.63-29Z" transform="translate(-0.74 -0.84)"/><path class="cls-48" d="M171.87,185.87s3.06-4.8.82-5.84a35.57,35.57,0,0,1,3.76-6.12s1.74-4.3,7.36-9.59,9.1-8.81,10-12.37a32.3,32.3,0,0,0,.91-7.07,13.27,13.27,0,0,0,1.94,1.32c.91.42,5.21,4,4.6,11.13S198,167.46,198,167.46a47.43,47.43,0,0,1-4.38,3.89c-1.94,1.32-2.64,2.85-5.91,3a3.68,3.68,0,0,1,1.11-.62s-3.39-.41-5.21,1.24-5.69,6.74-7.63,8.27c-1.95,1.24-4.09,2.65-4.09,2.65h0Z" transform="translate(-0.74 -0.84)"/><path class="cls-49" d="M309.38,105.43a49.8,49.8,0,0,0-15.22-3c-8.69-.29-21.38.21-33.83.29-13.4.08-25.56-4.59-42.43-5.42-2.77-1.65-9.81-8.89-31.8,6.45,1.32-.08,16-3.39,21.05,3s3.68,17.08,3,19.64c-1.33,5.71-5.63,14-7.37,19.86s-1.32,8.89-2.56,13-4,6.12-2.36,10.83c2.15-1.32,3.27-1.32,6.87-9.38s2.85-13.82,8.81-20.64,15.54-16.25,19.23-18.61,33-17.58,63.69-3.06c7.4-.78,12.94-13,12.94-13h0Z" transform="translate(-0.74 -0.84)"/><path class="cls-50" d="M198.46,99.8a4,4,0,0,0-.2-.91,6.92,6.92,0,0,0-1.12-1.66s-7.28-1.32-11-.91c-6.45.71-12.29,8.69-15,12.78s-6.13,10.42-9.81,13.69a1.38,1.38,0,0,0-.2-.91s.2.29-.21.71-.41.61-.2.81l.62.62c.2,0,5.91-2.56,13.69-9.81,8.27-7.57,14.59-11.45,17.9-12.78a25.19,25.19,0,0,1,5.5-1.63Z" transform="translate(-0.74 -0.84)"/><path class="cls-51" d="M339.65,68.7s-1.32,1.66-3,3.48C333,76.07,328.19,80.45,324.1,85c-3.89,4.3-8.27,7.65-13.19,13.27s-10.64,11.87-12.08,13.69a13.52,13.52,0,0,0-2.36,6.33c-.7-.5-1.52-1-1.52-1a10.16,10.16,0,0,0,1.24,1.83c1,1.44,2.64,3.27,3.47,4.38a13.34,13.34,0,0,1,2.15,4.71c.49.08,3.68.71,7.65-5.83s9.18-13.69,9.18-13.69l8.27-12.28,5.21-10.42,6.55-11.66,1-5.55h0Z" transform="translate(-0.74 -0.84)"/><path class="cls-32" d="M348.13,60.35a63.85,63.85,0,0,0-6.95,6.54c-1.94,2.46-6.54,8.9-6.54,8.9l1.65-.21,8.4-7.44L348,62.31l.17-2Z" transform="translate(-0.74 -0.84)"/><path class="cls-52" d="M346.6,389s-.08-3.39,1.82-5.42,6.86-5,11.66-16.17,5.33-13.69,5.33-13.69-8.6,7.36-13.9,9.1c1.24-2.57,1.94-4.39,2.57-5.71-.71-.62-3.68-1.32-4-1.65,1.65-1.66,2.56-5.71,5.91-8.4,4.3-3.27,12.16-8.89,18.27-13.9s18.11-16.67,19.64-20.06a7.59,7.59,0,0,1,1.12,2.15s-6,7.86-9.18,12.86c-2.78,4.3-2.57,6.74-2.57,6.74l5.71-2.45s1.65,6.12-5.83,15.43c3.27-1.24,4.59-.5,6.45-1.54a29.08,29.08,0,0,0-11.25,11.87c-3.89,7.28-9.18,15.76-18.11,21.05A150.78,150.78,0,0,0,346.58,389h0Z" transform="translate(-0.74 -0.84)"/><path class="cls-53" d="M324.18,109.73s-3.39,7.07-3.88,12.57c-.09,1.33-.42,2.36-.42,3.89-.08,4.92.29,10.42-.82,13a6.83,6.83,0,0,0-1-2.14c-.62,1.73-1.74,7.15-2.65,9.17a43.35,43.35,0,0,1-1.24-11.33c.09-5.41.21-6.45.21-7.56-.21,1.65-1.32,3.88-1.74,5.21-.62-1.12-1.32-2.57-2.15-3.77a24.75,24.75,0,0,1-1.65,2.65,36.56,36.56,0,0,1-.42-3.68,54.35,54.35,0,0,1-.08-5.5,25,25,0,0,1,5.63-9.51c4.38-4.8,8.89-14,10.21-16.87s7-14.73,7-14.73h4.3l-6.25,14.23s-3.76,7.77-5.7,10.63-6,11-7.86,14.23c1.32-1.74,2.44-2.65,3.76-4.3a68.77,68.77,0,0,0,4.84-6.16h0Z" transform="translate(-0.74 -0.84)"/><path class="cls-54" d="M348.21,59.81a17.82,17.82,0,0,1-3.27,5.92c-2.56,3.06-8.07,7.15-10.75,10.42-2.45,3.18-7.36,11.87-5.13,22.16a37.37,37.37,0,0,1,6.45-11.66c4.1-5,8.48-10.75,10.63-15.22a25.59,25.59,0,0,0,2.44-8.06l.82-1L348.9,60l-.7-.17Z" transform="translate(-0.74 -0.84)"/><path class="cls-32" d="M432,334.13a44.77,44.77,0,0,1-2.15-8.6c-.5-4.1.82-4.91-.71-9.6-.91-2.85-2.56-2.45-3-2.85s-.71-4.72-.62-7.07a26.82,26.82,0,0,0-.5-6.75c-.62-.49-1-.91-1.94-4a43.07,43.07,0,0,0-2-5.5c-.5-.91-2-1.74-2-2.65,0-1.82,1.66-2.77,1.66-3.27-.08-1-1.32-.21-1.66-.5-.41-.49,1-3.47.5-3.89-.21-.2-1.65,1.54-2,1s-.91-5.42-1.65-8.69-1.45-5.49-1.53-6.45-5.71-16.95-7.07-20.84a97,97,0,0,1-2.77-10c-.42-1.94-.71-5.91-.91-5.5s-.08,2.44-.42,2.36-1.32-7.15-1.65-8.27-2-4.91-2.45-7.65-1.32-10-1.95-14.93-.91-7-.91-8.18a51.34,51.34,0,0,0-.49-9,84.66,84.66,0,0,0-3.89-15.22c-2.77-6.94-10.13-24.73-11.45-29.15,0-1.12,1.45-.5,1.45-.5s3.59,9,6.24,16,5,13.07,5.63,13.69,4.38,7.45,6.12,18.61,2.35,21.47,3.39,28.33a73.47,73.47,0,0,0,1.94,10.22c1.12,3.76,2.85,7.65,5.13,13.6a91.35,91.35,0,0,1,4.18,12.78c.91,4.59.91,8.07,1.44,10.34.5,1.95,1.24,5.83,3,11.45s4.3,12.87,6,17.37a96.23,96.23,0,0,1,5.42,20.56c.45,4.13,2,18.44,1.57,22.74h0Z" transform="translate(-0.74 -0.84)"/><path class="cls-55" d="M348.42,59.32l-.21.49a.88.88,0,0,1,.5,1,24.11,24.11,0,0,1-.21,3.39c-.2,1.45-.62,2.56-.7,3.47,0,2,.29,4.18-2.45,9.72-.82,1.53-1.33,2.85-1.74,3.76a11,11,0,0,1-2.15,3.6c1.45-.82,6.66-4.09,9.3-3.6a19.57,19.57,0,0,0-6.32,5.71,14.07,14.07,0,0,0,4.9,0c4.59-.7,9.72-2.36,14.23-2,4.92.29,3-5.91,3-5.91l-5.68-12.49-10.75-7.56-1.7.41Z" transform="translate(-0.74 -0.84)"/><path class="cls-56" d="M376.46,152.87s-4.8-4.8-6.74-21.27-1.53-40.89-1.53-40.89L364.3,81.2s-.82-6.33-2.85-8.69-6-6.32-7.86-8.27-3.89-4.59-5.13-5c.62-1,3.39-6.87,14-7s13.9,5.83,15,8,6.12,11.45,8,29.17,1.82,19,1.53,25.15a140.78,140.78,0,0,1-3.27,19.64c-1.78,7.11-3.72,15.06-7.28,18.65Z" transform="translate(-0.74 -0.84)"/><path class="cls-53" d="M361.41,167a8.16,8.16,0,0,0,4.59-1c1.53-.08,7.08.62,11.33-4.79.29,1.23,1,4.59-.91,7.56,1-1,2.57-1.44,2.78-1.73.08,1.53,1.52,6.24-4.6,17.7,1.66-1.82,3.6-1.74,5.34-1.95.08,2.15,1.24,9.39-1.82,13.28a5.39,5.39,0,0,1-5.34,1.82,10.11,10.11,0,0,0,0-1.74c-.08-1.12-.49-2.23-.2-3a14.73,14.73,0,0,1-4.3-3c-3.6-3.39-8.27-9.18-8.6-13.48a5.31,5.31,0,0,1,3.88-5.83,4.7,4.7,0,0,1-.91-1.12,6.14,6.14,0,0,0-1.24-2.72Z" transform="translate(-0.74 -0.84)"/><path class="cls-57" d="M329.52,114.94s-.21-.29-1.33,1c.21-1.32.42-2.56.5-3.76a13,13,0,0,1,2-3.06c-.62,1.24-1,2.36-1,2.36a16.48,16.48,0,0,1,3.77-4.59c1.53-1.25,3.47-1.82,4.3-3a7.67,7.67,0,0,0,.91-1.66,25.59,25.59,0,0,0,5.13-5.21c.41-.5,1-1,1.45-1.53.7-.29,2.35-1,4.29-2s4.31-2.64,5.71-3.27C358,89,361,89.13,362.31,87.18c1-.29,2.15-3.39,1.95-6,1.53.62,9.38,5.5,12.08,16.17,1.94,7.57-1.54,19.23-3,24.86s-1.66,9.8-3.68,12.36c-2.57,3.4-10.84,8.18-12.87,10.55-1.73,1.95-6.94,6.87-6.74,10.42.21,2.65,3.47,4.09,4.18,4.59s.7,1.12,2,.82,1.81-.91,2.35-.91.62.21.91.21a3.2,3.2,0,0,0,.62-.09s-.2,3.77-9,4.91c-.62.08-1.24.29-2,.41a5,5,0,0,0,2.77-2c-1.24-.21-4.8-.42-5.71-.71a11.1,11.1,0,0,1,2-2.44c.7-.61-.08-.81-.7-.49a31.82,31.82,0,0,0-3.06,2.35,30.72,30.72,0,0,1-3.6,3.28,8.06,8.06,0,0,1,1.53-7.08c-.5.09-1.45,1.53-2.36,1.24a13.36,13.36,0,0,1,.29-4.5c.5-1.87,3.19-5.13,3.19-5.13l13-23.21,2.77-17.57-29.73,5.78Z" transform="translate(-0.74 -0.84)"/><path class="cls-58" d="M328.82,115.93s-.71.5.7,1.45a15.71,15.71,0,0,1-1.33,2c-.7.81-1.44,1.32-1.73,2a11.27,11.27,0,0,0-1.12,3.07c0,.62-.2,4.59-1.94,7.15a30,30,0,0,0-1.82,3.47,24.54,24.54,0,0,0-2.15,4.09,41.37,41.37,0,0,0-.7,5.42L320,143.1a11.91,11.91,0,0,1-1.82,3c.49-.42,1.94-1.45,4.38-3.6,3.39-2.85,8.68-7.65,15.14-11.45a22.54,22.54,0,0,1-4.92.91c1-1,10.33-12,15.21-13a1.9,1.9,0,0,0,.42-1.32l-4.18-.41L335.72,119l-1.24-6.55-5.66,3.44Z" transform="translate(-0.74 -0.84)"/><path class="cls-59" d="M342.3,153.15a11.5,11.5,0,0,0-2.15,3.89,12.82,12.82,0,0,1-2-2.77c-1.53-2.56-3.88-5.83-9.39-4a17.9,17.9,0,0,1,0-3.89c.91-.2,3.68-2.44,6.45-5.7a26.41,26.41,0,0,0,5-8.07c.82-.62,2.23-1.65,4.09-2.85,2.65-1.82,5.83-4.3,6.33-7.07a17.06,17.06,0,0,1-7.86,1.53c1.53-.71,3.88-1.45,3.59-4.51.63-.42,1.12-.7,1.12-.7a3.93,3.93,0,0,0-1.45-.21c-.08-.29-.2-.7-.91-.5s-.81.21-.91.5a4.3,4.3,0,0,0-1.94.5,28.72,28.72,0,0,1-3.39,2.43c.29-.49.7-1.23.7-1.23a14.26,14.26,0,0,0-3.47.81,73.49,73.49,0,0,0-8.81,4.18c.29-.49.41-.82.62-.91s.7-.2.7-.29a3,3,0,0,1-.08-1.11,38,38,0,0,1,3.27-5.63,10.91,10.91,0,0,0,1.74-4.71l6.32-3.19,17.79-4.09,11.54.71-1.45,8-6.82,13.93-5.83,12.7-6.66,7.78-6.12,4.46Z" transform="translate(-0.74 -0.84)"/><path class="cls-60" d="M371.12,118.61s-6.95,8.6-8.89,9.93c1.24-2.65,8.89-18.41,11.66-22.79-.62-.5-1.44-.5.5-8.18-1.65,3.88-2.23,5.91-3.6,7a2.56,2.56,0,0,1-2.45.7,1.7,1.7,0,0,0,.2-1s-5.83-.71-9.81-.71-11.87,2.15-16.25,3.89c-3.48,1.45-5.42,1.45-6.66,2.36s-1.94,2.15-2.57,2.44-2.85,1-3.39,1.81-1.32,1.74-1.32,2-.21.5.41.29c.21-.08,1.74-.91,3.48-2,2.35-1.32,5.21-2.85,7.28-3.76,5.91-2.36,7.77-1.94,10.42-2.44s6.74-1.65,9.38-1.65a78.75,78.75,0,0,1,8.81.2c-.49.42-.91.91-.7,2.65a12.33,12.33,0,0,1-.82,2.23c-1.24,3.39-3.59,9-4.9,11.87-1.82,3.89-3.89,7.16-4.91,9.18s-3.27,7.36-5.5,10.22-3.39,4.59-4.09,5.21-5.71,4.3-5.34,5.62a27.58,27.58,0,0,0,10.84-7.15c4.17-4.7,5-7.57,8.27-10.13s5.83-6.87,7.36-10.42c1.28-3.31,1-4.35,2.6-7.28h0Z" transform="translate(-0.74 -0.84)"/><path class="cls-61" d="M221.37,182.81s-.91,3.76-3,5.62-5.62,3.39-6,6.45,3.6,4.59,3.6,4.59-2.24,3.69-2.24,6.45a42.66,42.66,0,0,0,.21,6.13,2.75,2.75,0,0,0-.82.81,6.72,6.72,0,0,0,2.23,4.3c2,1.65,3.77,2.65,4.8,2.24a9.2,9.2,0,0,1,.41,1s1.54-3.89,2.57-7.28,1.94-3,2.35-7.65,4.91-12.7,4.91-12.7l3.07-6.85-5-3.89-7.08.74Z" transform="translate(-0.74 -0.84)"/><path class="cls-62" d="M230.68,189.55a28.89,28.89,0,0,0-2.85,3.39c-1.32,1.82-2.36,3.47-4.3,4.18s-3.18.7-3.06,2.64,1.94,2.77,3,3.77a4.86,4.86,0,0,1,1.53,4.71,4.74,4.74,0,0,0,2.77-2.85c1-2.23,8.26-15.84,8.26-15.84Z" transform="translate(-0.74 -0.84)"/><path class="cls-63" d="M259.18,158.16a4.08,4.08,0,0,0,0-2.85c-.62-1.25-4.38-1.66-6.25-3.07s-4.3-2.45-6.24-1.81c.29-.71,1.45-2.24.5-2.57s-4.3,1.24-5.21,1.94-3,1.53-3.4,2-1.11,1.45-1.53,1-.62-1-1.32-.63-4.09,3.19-4.71,4.8a24.64,24.64,0,0,1-6.25,9.31c-4.22,4.09-6,6.74-4.8,8.27s1.82.41,2,1.73a11.06,11.06,0,0,1-.21,3.89c-.49,2.15-1.32,4.18-.2,4.59,2.85.91,5.62-.82,6.24-.29,1.24,1.12-.7,5.13,2.23,5.92a9.18,9.18,0,0,0,5.92-.71l10.83-5.83,10.43-5.5,5.33-10.54-2.86-8.81-.55-.91Z" transform="translate(-0.74 -0.84)"/><path class="cls-64" d="M249,183.34a4.35,4.35,0,0,1,.41-5.21c2.24-2.44,5.42-3.47,6.66-5a1.91,1.91,0,0,0-.91-.62,8.19,8.19,0,0,1,3.6-3.39,3.45,3.45,0,0,0-2.36-1.12c-2,0-3.27,1.24-5.13,1.24s-2-.91-2-.91,3.06-.29,2.76-1.65-.81-1.45-.81-1.45,5.91-2.46,6.94-3.76.91-2.86,1.12-3.48c.7,0,4.8-2.15,6.45-1.24s.5,3.39.5,3.39,5-3.76,7.56-7.45c2.23.21,3.27-1.53,4.9-1.53,2,0,5.22,2.77,5.84,8.68.41,3.39,1,5.34.41,11.33-.29,3.4-.21,10.64.82,14.23.7,2.85,2.35,2.56,2.35,2.56a4.63,4.63,0,0,1-1.44,2.24c-1.12,1-1.24,3.76-1.12,4.8a19.41,19.41,0,0,0,.62,2.23,10.59,10.59,0,0,0-1.66,2.56,2.88,2.88,0,0,1-2.64,1.74,13.58,13.58,0,0,0-1.82,0c-1.32.08-1.74.29-2.57,0s-1.44-.62-1.11-3.27-10.22-8.81-10.22-8.81l-17.17-6.12h0Z" transform="translate(-0.74 -0.84)"/><path class="cls-65" d="M229.23,209.48s3.76,5,19.23,5c7.36,0,9.93-.71,11.45-1.12s7.86-2.85,14.1-10.22c5.63-6.65,4.39-9.38,4.39-9.38l-3.27-.5-10.64,1.45L233,208.12l-3.81,1.36Z" transform="translate(-0.74 -0.84)"/><path class="cls-66" d="M240.77,210.72s-13.4,3-13.4-5.5c0-8.27,8.27-17,10.34-18.48s7.28-3.28,7.28-3.28h12.36l2.36,6.25-1,13.48-17.91,7.53Z" transform="translate(-0.74 -0.84)"/><path class="cls-67" d="M253.13,186s-2.56-2.36-8.39.82-10.55,9.81-10.84,15.84c-.29,5.33,4.39,9.31,11.67,9.51a36.62,36.62,0,0,0,10.34-.82c-.42-.49-2.57-3.18-2.57-3.18l-.2-22.17h0Z" transform="translate(-0.74 -0.84)"/><path class="cls-68" d="M250.61,187.31s-.62-.5-2.45.5c-1.53.81-3.76,3-5.5,4.51a22.15,22.15,0,0,0-2.45,2c-2.57,3.06-4.72,8.07-3.48,10.55s5.34,5.33,15.76,3.39l-1.91-21h0Z" transform="translate(-0.74 -0.84)"/><path class="cls-66" d="M247.22,192.44a13.22,13.22,0,0,0-1.65,6.66c0,4.18,2.35,10.84,11,11.33,6.66.42,11.12-9.59,16-13.48,3.68-3,5.91-3.06,5.91-3.06s-3.76-4.09-13.81-9.39-21.05-6-27.09,2.15c2.86-.2,12.08-2.56,12.08-2.56l4.51,1.45-6.95,6.9Z" transform="translate(-0.74 -0.84)"/><path class="cls-69" d="M260.21,197.86c-.29-.62-.5-1.45.7-1.65s1.74-.09,2.15.81.82,1.66.2,2a2.86,2.86,0,0,1-3.06-1.2ZM258.26,192s-.41.29-.21-.29.63-2,1.95-1.65,1,1.73.82,2.15a2.16,2.16,0,0,1-2.15.81.68.68,0,0,1-.5-.83.7.7,0,0,1,.08-.2Z" transform="translate(-0.74 -0.84)"/><path class="cls-70" d="M146.32,194.67a12.82,12.82,0,0,0,7.07,2.36c3.76-.09,8.6-4,10.83-6.45,1.32-1.45,2.46-3,3.68-4.18a20.88,20.88,0,0,0,2.23-2.23c.71-.82,1.45-2.36,1.83-2.86a38.14,38.14,0,0,1-3.6,2.78,44.24,44.24,0,0,1-5.34,2.77c-1.11.41-12.69,6.54-12.69,6.54l-4,1.27Z" transform="translate(-0.74 -0.84)"/><path class="cls-71" d="M151.32,164.11a16.45,16.45,0,0,1,5.33-2,99.15,99.15,0,0,1,10.22-1.45l5.62,2.45,2.23,8.48-4.09,8.81-5.21,3.27-5.91-9.51-8.18-10h0Z" transform="translate(-0.74 -0.84)"/><path class="cls-72" d="M144,171.68l-2,1.45a12.58,12.58,0,0,0,.91-3.68c.41-2.77,2.56-9.51,5.71-13.4a44.73,44.73,0,0,1,3.06-3.68,2.11,2.11,0,0,0-1.66.42,20,20,0,0,1,5.71-5.83c2.65-1.63,3.68-2.15,6.45-.81s3.48,2,5.5,1.94,3.77-2.23,3.77-2.23.41,1.32-1.12,4.38-7.57,9.3-7.57,9.3l-12.57,8.61L144,171.69h0Z" transform="translate(-0.74 -0.84)"/><path class="cls-73" d="M153.26,163.08s9.1,1.24,11.87-1.32c.08.29.41.29.41.49a.7.7,0,0,1-.21.42,7.19,7.19,0,0,1,.91-.09,5.39,5.39,0,0,0,1.12.21,6.84,6.84,0,0,0,.91-.08,1.53,1.53,0,0,1-.62,1c.42,0,.82.08.82.41s.08,1.33-.42,1.54a1.89,1.89,0,0,1-1.24-.09,5.2,5.2,0,0,0,.63,2.24c.81,1.53,2.56,3.27,4.9,2.77,0,0,1.24,3-4,9.59-.7.91-1.45,2.15-2.35,3.18a11.87,11.87,0,0,0-.82,2.44s8.81-3.39,11.33-11.12a58.48,58.48,0,0,0,2.57-22.58,11.86,11.86,0,0,0-.91-4.51c-1.25-2.56-4.72-2.15-6.13-.7-2,2-5.41,7.07-10.13,10.54s-5,4.09-8.68,5.63h0Z" transform="translate(-0.74 -0.84)"/><path class="cls-65" d="M142.34,174.25s-1.74,1-2.65,4.9.82,8.81,1.82,10.34,3.27,5.71,8,5.92a8.85,8.85,0,0,0,3.4-.71,21.58,21.58,0,0,0,4.59-2.85c2-1.53,3.68-2.85,3.47-3-.5-.2-12.49-10.13-12.49-10.13l-4.51-5-1.61.54Z" transform="translate(-0.74 -0.84)"/><path class="cls-74" d="M153.68,190.7a10.4,10.4,0,0,0,3.88-1.11c1.45-.91-8.47-10.75-8.47-10.75l.7,10.63Z" transform="translate(-0.74 -0.84)"/><path class="cls-75" d="M143.13,173.5a14.37,14.37,0,0,0-1.24,3,51.75,51.75,0,0,0,.91,10.42c.49,2.15,3.18,5.42,6.66,5.42,2.14,0,5.12-1.33,5.12-1.66s-3.06-.81-3.88-2.35c-.5-.82-.71-2.86-.82-4.91-.08-1.32-.08-2.77.41-3.27,1.12-1.24,1.33-4.8,1.33-4.8l4-7.38h-5.22l-6.24,3.89Z" transform="translate(-0.74 -0.84)"/><path class="cls-66" d="M141.6,175.78s4.09-5.42,7.77-6.66,5.34-.5,5.34-.5l-2.15,5.5-3.07,3.39.21,1.74s-.5,4.59,2.56,7.77,5.34,3.07,6.66,3.07,5.13-1.12,7.08-5.71c1.73-4.3,3.18-9.82-.29-15.35a12.5,12.5,0,0,0-10.55-5.71c-1.16,0-10.26.46-13.56,12.45h0Z" transform="translate(-0.74 -0.84)"/><path class="cls-76" d="M246.6,194.18c-1.53-.71-.08-5,1.45-6.33a10.8,10.8,0,0,1,6.86-3.06c1.24-.08,2.44.7,2.24,1.53-.29,1.53-2.44,3.68-4.39,5.21C250.07,193.64,248.34,195,246.6,194.18Z" transform="translate(-0.74 -0.84)"/><path class="cls-77" d="M163.89,170.73a3,3,0,0,1,2.85,2c.29,1.32-.7,4-2.85,4-1.74,0-2.65-2.15-2.65-2.77a3.19,3.19,0,0,1,.41-1.45A2.38,2.38,0,0,1,163.89,170.73Z" transform="translate(-0.74 -0.84)"/><path class="cls-78" d="M147.76,171.68a9.58,9.58,0,0,0-4.18,4.09,10.9,10.9,0,0,0-.82,6.54,15.86,15.86,0,0,0,2,4.51,3.12,3.12,0,0,0,2.36,1.45c.7-.09,2.14-2,2.14-3.06s.09-5.83,1.45-8.4c1.2-2.56-2.89-5.13-2.89-5.13h0Z" transform="translate(-0.74 -0.84)"/><path class="cls-79" d="M148.17,171.47c-.49.29-1.32.71-1.12,1.24s1.95.82,2.57,2a4.41,4.41,0,0,1,.5,3.19,5,5,0,0,0,1.44-1c.91-1,2-2.44,3-2.44.62,0,1.24.29,1.82.29.91,0,1.82-.29,1.95-1.24.2-1.24-1.74-2.36-2.86-2.15.21-.82.5-2-.41-2.85s-3.77.62-4.39,1-2.48,1.95-2.48,1.95h0Z" transform="translate(-0.74 -0.84)"/><path class="cls-80" d="M213.89,258.36l6.12-1.8,1.73,1.24s1.24,2.64,3.19,3c-.62,1.33-2.24,2.46-2.15,3.39a2.85,2.85,0,0,0,.91,1.66s-5.5,9.1,5.33,18.26c-2.56,1-5.83,2.46-7.56,3.28,1.23.29,3.88.81,5,1.82s1.12,1.32,2.15,1.94,1.65,1.45,1.45,1.82c-.71-.41-3.07-1.65-3.48-.5s-10.21.71-10.21.71l-16.54,3.18a3,3,0,0,0-1.12-3.18c-2-1.82-4.51.08-7.16-1.95-3.47-2.64-3.59-5.71-4.71-6.86,1.12-.7,3.39-1.74,8.81-2.46a3.63,3.63,0,0,1-.5-2.76c.5-1.45,2.57-2.36,1.95-4.09.91-.21,1.32-.21,3.6-3.07s3.47-3.47,5.12-3.68,2.65,0,5.71-2.85c2.15-2,1.45-3.76,1.45-3.76s1.4-.46.91-3.31Z" transform="translate(-0.74 -0.84)"/><path class="cls-81" d="M195.82,259.28c.08-.41.41-.62,2.64-.41s16.38-1.32,20.23-1.53,17.57-.09,24.23,1.32,13.4,3.06,16.67,3.89,4.3,1.24,4.17,1.65a1.19,1.19,0,0,1-1.24.7c-.41-.08-11.25-3.39-14.59-4.09s-14.93-2.56-21.27-2.45c-5.91.09-8.27-.08-13.27.5s-13.28,1.44-15.76,1.11-1.95-.28-1.82-.7h0Z" transform="translate(-0.74 -0.84)"/><path class="cls-82" d="M229.1,291.7s8.48,4.59,11.54,10.21c2.24,4.18-1.32,6.25-1.32,6.25s4.8,0,4.18,2.64c-.29,1.66-8.27,6.12-13.61,8.48s-5.21,2.24-7.85,2.65-9.6-.82-11,1.24-.82,4.18-.41,4.51a23.07,23.07,0,0,0,3.76.7s-.7,1.94-7.65,2.15-8.68.7-9.1,1.45,1.33.29,4.51.82,7.65.81,7.65.81a14.2,14.2,0,0,1-5.21,2.24c-4.3,1.11-11,2.15-13.07,3.39a12.3,12.3,0,0,0,3.27,1.82,20.62,20.62,0,0,0-4.59,1.65c.62.42,1.45.91,1.45.91s-3.48,4.18-5.5,5.21-13.69,6.45-17.7,5.42c-10-2.65-11.25-13.6-13.69-14.43-3.68-1.24-5.42,1.24-8.69-.5a21.07,21.07,0,0,1,3.77-2.36c-1.66-.81-10.22-6.24-10.22-6.24a61.8,61.8,0,0,0-3-5.71c-1.66-2.85-4.09-6.66-5.92-10-4-7.36-4.18-10.75-7.77-14.93.62-.81,2.77-.7,2.77-.7l30.15,9.93,53.46,1.55L223.19,291l5.92.7Z" transform="translate(-0.74 -0.84)"/><path class="cls-83" d="M149.91,322a4.86,4.86,0,0,0,1.11.91,15.88,15.88,0,0,1,3.6,2.77c.42-.62,1.45-1.74,3.27,0s4.09.5,5.5.91,1.53.7,1.53.7a10.58,10.58,0,0,1,2.65-1.45c1.12-.41,2.44-.7,3.89-1.11a21.62,21.62,0,0,1,3.76-.7c.91.62,4.18,4.09,17.29-1,12.36-4.8,15.22-5.33,17.29-4.59.2-.5.41-1.45,3.59-1.32,0-1.32-2.64-5.83-2.64-5.83l-14.6-5h-8l-23.94,4.39L151,318.17l-1,3.81Z" transform="translate(-0.74 -0.84)"/><path class="cls-84" d="M141.93,313.57s.29,2.24,3.6,4.6a20.32,20.32,0,0,1,4.29,3.76,19,19,0,0,0,1.12-1.65c.5-.92.91-1.95,1.74-2.24,1.65-.7,5.42.62,6.24.41s.5-1.65,1.24-1.65c1.74-.08,2.86,1.12,3.48,1.12s2.15-.08,2.35-.41.29-3.77,2.65-5.42a7,7,0,0,1,6.54-.62c0,.62.09,2.15,1.74,2.23s1.82-.21,3.27.29,3.19-.08,4,2.35c.7-.2,2.36-.41,1.94-2.77a11.82,11.82,0,0,0,3.28-3.47c.41-.62,1.11-1.32,1.65-2.23a6.75,6.75,0,0,1,5.5,1.73c-.7.5-1.12.82-1.32,1.33a15.24,15.24,0,0,1,1.65,1.94c.62.82,1,1.82,1.82,2,1.74.5,4.59-.21,7.78,0a15.75,15.75,0,0,1,6.74,2c.41-.2.41-.28,1.45-.08s1.81.29.7-1c.62.29,1.32.91,1.94.29a4.08,4.08,0,0,1,2.85-1.74c1.74-.21,2.36.08,3.07-1.73.91-2.24-2.24-2.24-2.24-2.24s1.45-1.32,3.06-3.06c1.95-1.82,4.18-4.18,4.72-7.07.91-5.34-4.3-6-4.3-6L199.18,302l-30.89-1.53-26.35,13.11h0Z" transform="translate(-0.74 -0.84)"/><path class="cls-85" d="M119.22,240.58a9,9,0,0,0-1.32,3.47c-.5,2.44-.29,2.15-.7,3.89s-5.51,19-3.6,24.86,5.21,8,7.28,12.69a18.1,18.1,0,0,1,1,2.57c.71,3.06.09,5.41.91,8.48A9.37,9.37,0,0,0,125,300c2.45,2.56,6.45,5,8.17,6.74,2.44,2.56,5.92,7.78,10.34,8.27,2.36.29,5.71-.7,8.48-2.36,2.45-1.53,4-3.68,6.54-4.9a29.61,29.61,0,0,1,14.31-2.07c3,.62,10,2.77,13.91,2.77a38.07,38.07,0,0,0,9-1.24c5.91-1.74,13.07-4.72,17.78-6,2.77-.82,5-1,7.28-1.53,3.89-.91,7.16-2.15,9-4.51-1.24-1.45-2.77-3.68-11-3.6-9.39.21-20.23,5.42-25.56,6.25s-7.65,1.53-13.61-.62-6-3.61-6-3.61-6.13-4.29-8.7-15.22,0-18.9,6.66-26.47a4.35,4.35,0,0,0,1.32-3.68s4.39-5.91,3.19-11.45-9.8-4.38-9.8-4.38l-47,8.22h0Z" transform="translate(-0.74 -0.84)"/><path class="cls-86" d="M126.29,259a4.35,4.35,0,0,0-.49,2.24c.08,1.11.41,2.56,3.76,5.83a7.1,7.1,0,0,1,2.23,6s1.44.29,5.34-1.53c3.06-1.45,4.09,1.12,4.09,1.12a8.49,8.49,0,0,1,2.85-.91,6.37,6.37,0,0,0,2.56-.82,36.9,36.9,0,0,0,6.75,5.42c2.85,1.53,4.51,2.56,5.91,1.53s1.32-2.77,1.24-3.6a10.72,10.72,0,0,0-1.24-2.15c-.91-1.32-2.36-2.86-2.45-4.09-.21-2.85,2.15-6.25,1.65-7.07s-2.35-1-7,.62c-4.75,1.57-25.26-2.61-25.26-2.61h0Z" transform="translate(-0.74 -0.84)"/><path class="cls-87" d="M137.13,277.47s-2.36-2.23-1.53-13.07a13.57,13.57,0,0,1,3,.29S139.86,273.09,137.13,277.47Z" transform="translate(-0.74 -0.84)"/><path class="cls-66" d="M120.34,232.31a6.42,6.42,0,0,0,.91-.82c-.82,1.53-4.59,7.65-1.53,17.29s10.75,16.74,20.22,17.08,14.45-4.3,20.14-11.25c2.24-2.77,4.8-6.25,7.07-8.6,3.4-3.68,6-4.72,6-8.27,0-7.28-7.44-10.55-18.4-13.82s-20.85-2.86-26-.62c-5,2.43-7.16,5-8.48,9Z" transform="translate(-0.74 -0.84)"/><path class="cls-88" d="M155.53,280.74l.82-.42s.21-3.27,1.53-3.18a2.58,2.58,0,0,1,1.82,2.56,1.53,1.53,0,0,1-1.74,1.53,4.09,4.09,0,0,1-2.43-.49Z" transform="translate(-0.74 -0.84)"/><path class="cls-89" d="M151.85,266.84s.82-.29,1.82.71c.82,0,4.38-.42,5.5.28a4.22,4.22,0,0,1,1.45,1.33s-4.18.91-6.45,0S151.85,266.84,151.85,266.84Z" transform="translate(-0.74 -0.84)"/><path class="cls-90" d="M170.26,267.46a10.17,10.17,0,0,0-4.59-2.23c-.42-.09-.5.2-.82.2s-.29-.7-.29-.7l-1.34.71s-.21.28.49.81,1.66.91,1.95,1.74a8.1,8.1,0,0,0,.41,1.24,4.51,4.51,0,0,0,2.24-.41c.7-.42,2-1.09,1.94-1.37h0Z" transform="translate(-0.74 -0.84)"/><path class="cls-91" d="M149.37,275.86a3.49,3.49,0,0,1,3.19-3,3.19,3.19,0,0,1,3.39,2.56l-1.66,1.66s-1.24-1.78-4.9-1.24Z" transform="translate(-0.74 -0.84)"/><path class="cls-92" d="M167.36,263.57a8.59,8.59,0,0,1-4.92,2.15,2,2,0,0,1,0-2.56c.91-1.32,1.95-1.74,3-1.32A2.4,2.4,0,0,1,167.36,263.57Z" transform="translate(-0.74 -0.84)"/><path class="cls-90" d="M173.61,265.6c.08-.41-.21-.49,0-.7s1.32-.62,1.53-.42,0,.42,0,.82a2,2,0,0,1-.21,1.12,1.69,1.69,0,0,1-1.53.5c-.41-.13-.5-.71-.5-.82C173.11,266,173.61,265.81,173.61,265.6Zm7.06-4.46c0-.21.7-.63,1.11-.63.62,0,.62.5.71.63s.2-.09.41.28.5,1,.29,1.45a1.51,1.51,0,0,1-1.24.62A11,11,0,0,1,180.67,261.14Z" transform="translate(-0.74 -0.84)"/><path class="cls-85" d="M166.45,266.55a5.88,5.88,0,0,1,2.15,1.24,11.75,11.75,0,0,1-1,.62,3.14,3.14,0,0,0-1.12-1.86Z" transform="translate(-0.74 -0.84)"/><path class="cls-65" d="M164.43,257.45c-.21-.2.61-.7,1.11-.62s.7.42,1.24.5.62-.21.82-.41.91-.09,1,0a1.86,1.86,0,0,1,.21.28,1.16,1.16,0,0,1,.41-.81,1.28,1.28,0,0,1,1.12-.21,5.84,5.84,0,0,1,.41,1.53c-.08.21-1.32.5-1.53.29a14.72,14.72,0,0,0,1.24,1.73c.12.21-.91.71-1.32.63a16.6,16.6,0,0,1-4.75-2.9Zm5.41-6.86a.92.92,0,0,0-.41-.5c-.29-.08-1.24,0-1.24.5a15.52,15.52,0,0,0,1.73,4.71c1,1.45,1.74,2.65,2.44,3a1,1,0,0,0,1.25-.41,25.8,25.8,0,0,0,.2-5.34c-.08-3.6-.2-7.07-.41-7.28a1.11,1.11,0,0,0-1.32.21,37.82,37.82,0,0,0-2.24,5.13Z" transform="translate(-0.74 -0.84)"/><path class="cls-92" d="M166.16,271.76a3.34,3.34,0,0,0-2.85-.29c-1.32.63-1.24,3.07-1.24,3.07a2,2,0,0,0,1.82-.21,5.51,5.51,0,0,0,2.27-2.56Z" transform="translate(-0.74 -0.84)"/><path class="cls-90" d="M168.89,275c-.08-.82-.82-.82-.82-1.24a.93.93,0,0,1,.91-.7c.42,0,.82.49,1.33.82s1.24.81,1.32,1.44-.82,2.36-1.82,2.36-.7-1.86-.91-2.69Zm8-1.12s-1.65.5-1.53,0,.5-.62,1-.62a1.62,1.62,0,0,1,1-.49.86.86,0,0,1,.62.2s1.12-.49,1.45-.2.08.28.29.62a2.93,2.93,0,0,1,.5,1.24c0,.33-1.25,1-2.24.91C176.87,275.32,177.08,274.12,176.87,273.91Zm9.64-1.86s.49.29.08.62a6.66,6.66,0,0,1-3,.91c-1.24,0-2.35.21-2.35-.2s1-1.24,1.65-1.45a1.31,1.31,0,0,1,1-.5c.49,0,2.43-.2,3-.29s.91.21.62.62c-.12.29-1,.29-1,.29Zm2.85-12.77s-.62,1.32-1.32,1.32-.7-.28-.7-.49.7-1,.62-1.24c-.21,0-.71,0-.62-.5s.7-.91,1.32-.82a2.78,2.78,0,0,1,1.65-.62c.71,0,1.33.21,1.33.62s-.82,1.33-1.12,1.54-.75.54-1.16.2Zm-9.43,24.44s-.82.09-.82.5c0,.21.21.21.5.08a2.09,2.09,0,0,0,.5-.08c.08.08.08.49.7.49a3.78,3.78,0,0,0,1.45-.49c.49-.21.91-.42.91-.82a1.24,1.24,0,0,0-1.24-1,1.68,1.68,0,0,0-.91.21s-.21-.41-.91,0-.62.42-.42.62c.37.33.25.55.25.55Zm-4.67,4.3c0-.2,1-.62,1.32-.49a5.23,5.23,0,0,1,1.12,1.82c0,.2-1,.7-1.45.7a1.92,1.92,0,0,1-1.12-.82c0-.08.5-.2.5-.29s-.37-.7-.37-.91ZM172,282c.21-.09.21-.29.49-.5a.74.74,0,0,1,.63-.08,1,1,0,0,1,.7-.5c.5-.08.91,0,.82.21,0,.62.41,1,.41,1.53s-.29,1.11-1.32,1.53a7.06,7.06,0,0,1-2.65.2,1.37,1.37,0,0,1-.2-1.32A3.33,3.33,0,0,1,172,282h0Z" transform="translate(-0.74 -0.84)"/><path class="cls-85" d="M173.31,282.27s-.71.41-.71.62a1.86,1.86,0,0,0-.08.62c0,.12.91-.08,1-.21S173.31,282.48,173.31,282.27Z" transform="translate(-0.74 -0.84)"/><path class="cls-65" d="M167.15,280.32a9,9,0,0,1,1.66.21c.41.21.7.62.29,1.12s-.82,1.24-1.74,1.11-2-.62-2-1a2,2,0,0,1,.5-1.45c.41-.33.62-.12,1.32,0Z" transform="translate(-0.74 -0.84)"/><path class="cls-92" d="M166.66,280.74a11.93,11.93,0,0,0-1.66,1.53c-.41.5-2.44,3.06-3.05,3.6a7.28,7.28,0,0,1,.7-1,4.19,4.19,0,0,0-1.74,2.23c-.5,1.54,2.77,2.36,4.92,3s3,.82,3,.82a23.51,23.51,0,0,1-2-3.76c-.82-1.94-1.24-2.15-.7-3.06s1-1.53,1-2.23A10.31,10.31,0,0,0,166.66,280.74Z" transform="translate(-0.74 -0.84)"/><path class="cls-66" d="M119.51,284a2.78,2.78,0,0,0,.91,0c.62-.09,7.07-2.46,13.82-2a73.19,73.19,0,0,1,14.92,2.45c8.48,2.23,19,6.66,25.85,9.18,1.82.7,3.6,1.95,4.91,2.44,5.21,2,5.42,2,8.48,2.57,3.6.49,7.28-.71,11.12-1.53,4.72-1,12.78-1.54,19.85-2.57a40.85,40.85,0,0,0,6.74-1.53s-5.62,5.63-19.1,7.65a59.7,59.7,0,0,1-16.46.21,50.61,50.61,0,0,1-9.31-1.66c-2.44-.7-7.44-2.56-13.6-4.09-4.3-1.11-9.1-1.94-14.6-3-13.57-2.49-28.29-5.34-33.53-8.11Z" transform="translate(-0.74 -0.84)"/><line class="cls-93" x1="111.74" y1="230.73" x2="77.29" y2="198.55"/><path class="cls-4" d="M104.29,258.45c-3.27,2.77-6.74,5.41-10.13,8L84,274.28c-3.48,2.56-6.87,5.21-10.34,7.77s-7,5-10.64,7.36c3.27-2.77,6.75-5.33,10.22-7.85s7.07-5,10.42-7.56l10.22-7.86c3.51-2.56,6.9-5.21,10.46-7.69ZM86.22,287.4s3.68-3.06,8.27-7.36c5.71-5.34,12.7-12.16,14.93-13.4L86.22,287.4Z" transform="translate(-0.74 -0.84)"/><path class="cls-4" d="M86.22,287.39c1.82-1.81,3.76-3.59,5.71-5.33l3-2.56c.91-.82,1.94-1.74,2.85-2.65,1.82-1.82,3.6-3.77,5.42-5.62a34,34,0,0,1,2.85-2.65,8,8,0,0,1,1.65-1.12,4.81,4.81,0,0,1,1.74-.91c-.41.62-.91.91-1.32,1.45a18.25,18.25,0,0,0-1.32,1.32c-.92.91-2,1.74-2.86,2.57-1.94,1.65-4,3.27-5.91,5s-3.76,3.6-5.71,5.33c-2.11,1.78-4,3.52-6.08,5.18ZM111,270.85s-13.48,13.2-16.25,15.34Z" transform="translate(-0.74 -0.84)"/><path class="cls-4" d="M111,270.85a42.88,42.88,0,0,1-3.89,4L103,278.71c-1.32,1.32-2.57,2.65-4,4s-2.77,2.45-4.3,3.6l4-3.89c1.32-1.32,2.77-2.44,4.18-3.76l4-3.89C108.18,273.38,109.5,272.05,111,270.85Zm.62,7.16a87.19,87.19,0,0,1-4.38,10.13c-3.48,6.95-8.69,15.63-11,20.06L111.57,278Z" transform="translate(-0.74 -0.84)"/><path class="cls-4" d="M111.57,278a11.48,11.48,0,0,1-.91,4.17,38.13,38.13,0,0,1-1.65,3.89c-.62,1.24-1.33,2.57-2,3.77s-1.53,2.43-2.15,3.68l-4.18,7.36c-1.45,2.45-2.85,4.92-4.38,7.28a67.5,67.5,0,0,1,3.76-7.57c1.45-2.45,2.77-4.91,4.09-7.45a39.61,39.61,0,0,0,1.74-3.88c.62-1.33,1.24-2.57,1.74-3.77s1.11-2.56,1.73-3.76a23.85,23.85,0,0,1,2.24-3.72Z" transform="translate(-0.74 -0.84)"/><path class="cls-94" d="M126.29,311.92a20.55,20.55,0,0,0-3.68,12.28C123.73,320.6,125.14,315.1,126.29,311.92Zm3.89,5.43s-1.45,14.72-2.64,22C129.23,330.94,129.56,331.65,130.18,317.35Zm27.09,22.83s-6.12,18-6.25,23c1.33-5.14,3.89-15.64,6.25-23Z" transform="translate(-0.74 -0.84)"/><path class="cls-95" d="M171.58,310.81s9.93,16.37,17.37,30.35C186.94,334.13,182.3,321.23,171.58,310.81Z" transform="translate(-0.74 -0.84)"/><path class="cls-96" d="M198.26,334.91A302,302,0,0,1,213,364.65C212.15,357.62,209.92,345.59,198.26,334.91Z" transform="translate(-0.74 -0.84)"/><path class="cls-97" d="M276.67,359.06c1.65-1,4.92-6.66,7.77-8.06s5-1.74,7.57-4.59,3.27-4.8,8.89-7.16c7.86-3.39,2.45-7.78,2.45-7.78a25.86,25.86,0,0,1,2.77-2.35c2-1.53,4.39-3.39,4.18-6.66C310,317,309,309,304.47,304.35c4.38-.91,12.78-1.53,18-2.86,6-1.53,8.81-3.68,8.81-3.68s-3.47-5.91,2.15-11.87,10.22-9.51,13.61-16.17c-3.89-.49-9.82-2.56-24.94,3.19a18.21,18.21,0,0,1,2.36,1.32s-9.31,2.56-12.7,5.42c-5.91,5-6.66,9.1-13.07,12.16s-12.86,2.23-18.19,4.71-6.12,4.59-8.07,5.5c.42.5-.08,1.32.7,2-.49.7-3.39,5.41-6.32,5.41.29,1.12,2.77,1.95,2.77,1.95s-1.82,1.32-6.45,1.65a46.73,46.73,0,0,0,10.75,9c-.5,1-2.57,2.56-1.74,4.51s3.27,4.59,12.7,6.74c-4.8.2-10.42,1.32-18,.29s-8.81-1.45-13.49-.29c.5.5,1.82.5,3,1.82-1.24.08-9-.91-11.66,2.56s-4,9.52-3.76,13.48c-1.45.71-2.86,1.95-2.15,4.51s4.38,3.4,6.74,5,2.56,2.35,4.8,1.94,5.82-2.85,7.85-2.85a5.3,5.3,0,0,1,3.48,1.53s5.5-2.65,6-2.15.09,3.68.62,4.17,6.74-3.3,8.4-4.34Z" transform="translate(-0.74 -0.84)"/><path class="cls-98" d="M396.89,193.56c-25.85-66.75-89.75-79.12-89.75-79.12H124.85l.7,68h36.31V334.25h-37v67.87H302.1c42.72,0,77-42.93,77-42.93,54.84-77.83,17.83-165.63,17.83-165.63ZM303.05,313.45s-13.9,20.06-29,20.06H243.76L243,182.6h38.84s18,3.76,30.56,39.37C312.44,222,329.1,273,303.05,313.45Z" transform="translate(-0.74 -0.84)"/></g></g></g></svg>