<svg id="Layer_1" data-name="Layer 1" xmlns="http://www.w3.org/2000/svg" viewBox="0 0 507.3 507.31"><defs><style>.cls-1{fill:#0090ff;}.cls-1,.cls-2{fill-rule:evenodd;}.cls-2{fill:#fff;}</style></defs><title>filecoin-fil</title><path class="cls-1" d="M253.65,507.31C114.14,507.31,0,393.17,0,252.39,1.27,112.88,114.14-1.26,254.92,0,394.43,1.28,507.3,114.15,507.3,256.2,506,394.44,393.16,507.31,253.65,507.31"/><path class="cls-2" d="M277.75,223.22l-7.61,40.59L342.43,274l-5.08,19-71-10.15c-5.07,16.49-7.61,34.24-13.95,49.46-6.34,17.76-12.68,35.51-20.29,52-10.15,21.56-27.9,36.78-52,40.58-14,2.54-29.17,1.27-40.58-7.61-3.81-2.53-7.61-7.6-7.61-11.41,0-5.07,2.53-11.41,6.34-14,2.54-1.27,8.88,0,12.68,1.27a56.24,56.24,0,0,1,10.15,13.95c7.61,10.14,17.75,11.41,27.9,3.8,11.41-10.14,17.75-24.09,21.56-38,7.61-30.44,15.22-59.61,21.56-90.05v-5.07l-67.22-10.15,2.54-19,69.75,10.14L246,219.42,173.75,208l2.54-20.29,74.82,10.15c2.54-7.61,3.81-14,6.34-20.29,6.35-22.83,12.69-45.66,27.91-65.95s33-33,59.6-31.71c11.42,0,22.83,3.8,30.44,12.68,1.27,1.27,3.81,3.81,3.81,6.34,0,5.08,0,11.42-3.81,15.22-5.07,3.81-11.41,2.54-16.49-2.53-3.8-3.81-6.34-7.61-10.14-11.42-7.61-10.14-19-11.41-27.9-2.53a81.1,81.1,0,0,0-16.49,24.09c-8.88,26.64-15.22,54.54-24.1,82.44L350,214.34l-5.08,19-67.21-10.15"/></svg>