<svg id="Layer_1" data-name="Layer 1" xmlns="http://www.w3.org/2000/svg" xmlns:xlink="http://www.w3.org/1999/xlink" viewBox="0 0 511.66 511.66"><defs><style>.cls-1{fill:url(#linear-gradient);}.cls-2{fill:#fff;}</style><linearGradient id="linear-gradient" x1="218.64" y1="381.75" x2="218.64" y2="199.97" gradientTransform="matrix(2.17, 0, 0, -2.17, -219.58, 892.2)" gradientUnits="userSpaceOnUse"><stop offset="0" stop-color="#bf0000"/><stop offset="1" stop-color="#8f0000"/></linearGradient></defs><title>filezilla</title><path id="path2312" class="cls-1" d="M0,17.13V39.72A17.15,17.15,0,0,1,17.13,56.85,17.14,17.14,0,0,1,0,74V96.57A17.14,17.14,0,0,1,17.13,113.7,17.15,17.15,0,0,1,0,130.83v22.59a17.15,17.15,0,0,1,17.13,17.14A17.14,17.14,0,0,1,0,187.69v22.59a17.14,17.14,0,0,1,17.13,17.13A17.14,17.14,0,0,1,0,244.54v22.59a17.14,17.14,0,0,1,17.13,17.13A17.14,17.14,0,0,1,0,301.39V324a17.14,17.14,0,0,1,17.13,17.13A17.15,17.15,0,0,1,0,358.24v22.59A17.14,17.14,0,0,1,17.13,398,17.15,17.15,0,0,1,0,415.09v22.58A17.14,17.14,0,0,1,17.13,454.8,17.14,17.14,0,0,1,0,471.93v22.6a17.28,17.28,0,0,1,12.12,5,17.26,17.26,0,0,1,5,12.11H39.72a17.13,17.13,0,0,1,34.26,0H96.57a17.13,17.13,0,0,1,34.26,0h22.59a17.13,17.13,0,1,1,34.26,0h22.59a17.13,17.13,0,0,1,34.26,0h22.59a17.13,17.13,0,1,1,34.26,0H324a17.13,17.13,0,1,1,34.26,0h22.59a17.13,17.13,0,1,1,34.26,0h22.59a17.13,17.13,0,1,1,34.26,0h22.6a17.14,17.14,0,0,1,17.13-17.13V472a17.13,17.13,0,1,1,0-34.26V415.1a17.13,17.13,0,1,1,0-34.26V358.25a17.13,17.13,0,0,1,0-34.26V301.4a17.13,17.13,0,0,1,0-34.26V244.55a17.13,17.13,0,0,1,0-34.26V187.71a17.14,17.14,0,0,1,0-34.28V130.84a17.13,17.13,0,0,1,0-34.26V74a17.13,17.13,0,0,1,0-34.26V17.13a17.27,17.27,0,0,1-12.11-5,17.26,17.26,0,0,1-5-12.12H471.94a17.14,17.14,0,0,1-17.13,17.13A17.14,17.14,0,0,1,437.68,0H415.09A17.14,17.14,0,0,1,398,17.13,17.14,17.14,0,0,1,380.83,0H358.24a17.14,17.14,0,0,1-17.13,17.13A17.15,17.15,0,0,1,324,0H301.39a17.14,17.14,0,0,1-17.13,17.13A17.15,17.15,0,0,1,267.13,0H244.54a17.14,17.14,0,0,1-17.13,17.13A17.15,17.15,0,0,1,210.28,0H187.69a17.14,17.14,0,0,1-17.13,17.13A17.15,17.15,0,0,1,153.43,0H130.84a17.14,17.14,0,0,1-17.13,17.13A17.15,17.15,0,0,1,96.58,0H74A17.14,17.14,0,0,1,56.86,17.13,17.15,17.15,0,0,1,39.73,0H17.13a17.3,17.3,0,0,1-5,12.12A17.31,17.31,0,0,1,0,17.13Z"/><path id="path2314" class="cls-2" d="M435.87,204.73H180.55l13.33-62.34H349.49l14.28-67.1H140.1L69.66,407.46h67.58l30.93-145.15H330.26L189.41,401.74l24.75,43.78c11.42-7.61,30-8.56,42.83-8.56,22.84,0,45.21,7.61,68.52,7.61,21.38,0,43.26-1.42,79-18.56l12.47-58.53c-24.28,10-60.19,19.51-91.43,19.51-12.84,0-24.74-2.85-37.11-4.76L424.93,249.47l10.94-44.74Z"/></svg>