<svg xmlns="http://www.w3.org/2000/svg" shape-rendering="geometricPrecision" text-rendering="geometricPrecision" image-rendering="optimizeQuality" fill-rule="evenodd" clip-rule="evenodd" viewBox="0 0 512 186.63"><path fill-rule="nonzero" d="M33 0h446c9.08 0 17.34 3.72 23.31 9.69C508.28 15.66 512 23.92 512 33v120.63c0 9.08-3.72 17.34-9.69 23.32-5.97 5.97-14.23 9.68-23.31 9.68H33c-9.08 0-17.34-3.71-23.31-9.68C3.72 170.97 0 162.71 0 153.63V33c0-9.08 3.72-17.34 9.69-23.31C15.66 3.72 23.92 0 33 0zm185.17 120.87V69.63h32v9.59h-19.18v12.2h14.55v9.52h-14.55v19.93h-12.82zm51.93.55c-3.54 0-6.54-.55-9.01-1.64-2.47-1.09-4.46-2.59-5.95-4.5-1.5-1.9-2.57-4.1-3.24-6.57-.67-2.47-.99-5.08-.97-7.84.07-4.09.95-7.54 2.66-10.34 1.7-2.81 4.03-4.94 7-6.38 2.96-1.45 6.37-2.18 10.2-2.18 4.74 0 8.53.94 11.34 2.83 2.81 1.88 4.83 4.38 6.05 7.49 1.21 3.1 1.79 6.49 1.72 10.17-.04 4.11-.91 7.57-2.59 10.39-1.7 2.82-4.03 4.95-7 6.4-2.96 1.45-6.36 2.17-10.21 2.17zm.28-8.62c2.46 0 4.17-.91 5.13-2.71.95-1.81 1.43-4.53 1.43-8.19 0-2.06-.2-3.96-.59-5.67-.39-1.72-1.05-3.09-1.96-4.11-.93-1.02-2.19-1.53-3.8-1.53-2.51 0-4.24.91-5.22 2.73-.98 1.82-1.47 4.47-1.47 7.96 0 2.12.21 4.05.61 5.8.4 1.74 1.06 3.13 2.01 4.17.94 1.04 2.23 1.55 3.86 1.55zm25.59 8.07v-56h12.49v56h-12.49zm21.11 0v-56h12.49v56h-12.49zm37.74.55c-3.54 0-6.55-.55-9.02-1.64-2.47-1.09-4.46-2.59-5.95-4.5-1.5-1.9-2.57-4.1-3.24-6.57-.67-2.47-.99-5.08-.97-7.84.07-4.09.95-7.54 2.66-10.34 1.7-2.81 4.03-4.94 7-6.38 2.96-1.45 6.37-2.18 10.21-2.18 4.73 0 8.52.94 11.33 2.83 2.81 1.88 4.83 4.38 6.05 7.49 1.21 3.1 1.79 6.49 1.72 10.17-.04 4.11-.91 7.57-2.59 10.39-1.7 2.82-4.03 4.95-7 6.4-2.96 1.45-6.36 2.17-10.2 2.17zm.27-8.62c2.46 0 4.17-.91 5.13-2.71.96-1.81 1.43-4.53 1.43-8.19 0-2.06-.2-3.96-.59-5.67-.39-1.72-1.05-3.09-1.97-4.11-.92-1.02-2.18-1.53-3.79-1.53-2.51 0-4.24.91-5.22 2.73-.98 1.82-1.47 4.47-1.47 7.96 0 2.12.21 4.05.61 5.8.4 1.74 1.06 3.13 2.01 4.17.94 1.04 2.23 1.55 3.86 1.55zm31.73 8.62-11.51-38.97h12.13l3.52 15.53 3.31 15.99h-2.62l3.73-15.99 4.55-15.53h11.17l4.55 15.53 3.45 15.92h-2.48l3.24-15.92 3.66-15.53h11.58l-12.13 38.97h-10.9l-5.59-18.9L404 90.25h2.07l-2.56 12.27-5.38 18.9h-11.31zm-286.73-39.1c-1.66-2.64-4.76-6.23-4.76-9.32 0-1.75 1.37-4.03 3.35-4.54-.22-3.62-.31-5.95-.18-9.58.46-5.11 3.55-9.7 7.95-12.31 1.26-.79 2.63-1.42 4.03-1.92 2.55-.93 1.83-4.2 4.62-4.25 6.53-.17 16.76 4.78 20.95 9.31 2.66 2.95 4.18 6.77 4.27 10.74l-.26 8.45c1.16.28 2.46 1.19 2.74 2.35.9 3.6-2.85 8.1-4.59 10.97-.98 1.62-3.63 5.79-5.56 8.83-1.23 1.94-2.76 3.23-1.97 5.39a33.154 33.154 0 0 0-4.34 16.43c0 5.99 1.58 11.62 4.35 16.48H71.6c0-27.97 30.74-24.21 35.55-32.4 1.47-2.48-.05-3.62-1.44-5.8-2.13-3.38-5.21-8.18-5.62-8.83zM479 12.96H33c-5.5 0-10.52 2.26-14.15 5.89-3.63 3.63-5.89 8.64-5.89 14.15v120.63c0 5.5 2.26 10.53 5.89 14.16 3.63 3.62 8.65 5.89 14.15 5.89h446c5.5 0 10.52-2.27 14.15-5.89 3.63-3.63 5.89-8.66 5.89-14.16V33c0-5.51-2.26-10.52-5.89-14.15-3.63-3.63-8.65-5.89-14.15-5.89z"/><path fill="#00A912" d="M159.73 86.11c14.78 0 26.76 11.99 26.76 26.76 0 14.78-11.98 26.76-26.76 26.76-14.77 0-26.75-11.98-26.75-26.76 0-14.77 11.98-26.76 26.75-26.76zm4.74 11.97v10.06h10.05v9.46h-10.05v10.06H155V117.6h-10.06v-9.46H155V98.08h9.47z"/></svg>