<svg xmlns="http://www.w3.org/2000/svg" shape-rendering="geometricPrecision" text-rendering="geometricPrecision" image-rendering="optimizeQuality" fill-rule="evenodd" clip-rule="evenodd" viewBox="0 0 512 171.75"><path fill="#ff4500" d="M499.23 0H12.77C5.74 0 0 5.74 0 12.76v146.22c0 7.03 5.74 12.77 12.77 12.77h486.46c7.03 0 12.77-5.74 12.77-12.77V12.76C512 5.74 506.26 0 499.23 0z"/><path fill="#B5041E" fill-rule="nonzero" d="M238.74 116.26c3.57 5.55 7.14 10.7 10.7 15.46l-.22 1.63c-5.05 1.53-10.03 2.45-14.93 2.75l-1.42-1.19-.89-1.86c-.39-.79-1.19-2.47-2.38-5.02a138.08 138.08 0 0 1-3.12-7.17h-4.98l.52 14.35h-14.93l.74-14.12-.74-33.96 22.81-.08c5.4 0 9.56 1.28 12.49 3.83 2.92 2.55 4.38 6.23 4.38 11.04 0 2.82-.71 5.47-2.12 7.95-1.41 2.47-3.38 4.6-5.91 6.39zm-7.65-12.86c0-1.98-.51-3.45-1.52-4.42-1.02-.97-2.67-1.5-4.95-1.6l-2.67.22-.3 12.41 5.43.3c1.39-.64 2.4-1.51 3.04-2.6.65-1.09.97-2.52.97-4.31zm56.85 19.92.81 1.04-.89 10.85h-33.88l.74-14.12-.74-33.96h34.48l.82 1.04-.97 10.85-11.82-.45h-7.65l-.15 6.76h7.36l7.72-.22.82 1.04-.89 10.85-8.62-.22h-6.69l-.07 2.82.15 4.16h7.13l12.34-.44zm27.94-36.49c7.08 0 12.52 1.92 16.31 5.76 3.79 3.84 5.69 9.38 5.69 16.61 0 8.57-2.21 15.16-6.62 19.76-4.41 4.61-10.72 6.91-18.95 6.91-5.15 0-11.19-.22-18.13-.66l.74-14.12-.74-33.96 21.7-.3zm-.75 37.97c2.33 0 4.1-.92 5.32-2.78 1.21-1.86 1.82-4.92 1.82-9.18 0-3.62-.25-6.47-.74-8.55-.5-2.08-1.29-3.58-2.38-4.49-1.09-.92-2.6-1.38-4.54-1.38-1.88 0-3.74.1-5.57.3l-.52 20.88.15 4.61c2.97.39 5.13.59 6.46.59zm49.35-37.97c7.08 0 12.52 1.92 16.31 5.76 3.79 3.84 5.68 9.38 5.68 16.61 0 8.57-2.2 15.16-6.61 19.76-4.41 4.61-10.72 6.91-18.95 6.91-5.15 0-11.2-.22-18.13-.66l.74-14.12-.74-33.96 21.7-.3zm-.75 37.97c2.33 0 4.1-.92 5.32-2.78 1.21-1.86 1.82-4.92 1.82-9.18 0-3.62-.25-6.47-.74-8.55-.5-2.08-1.29-3.58-2.38-4.49-1.09-.92-2.6-1.38-4.54-1.38-1.88 0-3.74.1-5.57.3l-.52 20.88.15 4.61c2.97.39 5.13.59 6.46.59zm41.99-5.2.6 15.61h-14.94l.74-14.12-.74-33.96h15.16l-.82 32.47zm43.62-31.43-.82 10.85-9.81-.45h-.89l-.37 21.03.6 15.61h-14.87l.75-14.12-.38-22.52h-.96l-9.88.45-.9-1.04.82-10.85h35.89l.82 1.04zM213.29 42.28l-.11 5.72h3.09l4.26-.12.35.46-.38 4.57-4.69-.11h-2.71l-.03 1.33.22 7.89h-6.2l.34-7.28-.34-17.29h15.39l.34.45-.42 4.57-5.94-.23-3.17.04zm22.51-5.22c3.51 0 6.21 1.05 8.12 3.15 1.9 2.09 2.86 5.07 2.86 8.93 0 4.22-1.05 7.49-3.13 9.81-2.08 2.32-5.02 3.49-8.8 3.49-3.48 0-6.17-1.07-8.08-3.22-1.9-2.15-2.85-5.19-2.85-9.12 0-4.17 1.03-7.38 3.1-9.64 2.07-2.27 5-3.4 8.78-3.4zm-.53 4.96c-1.19 0-2.15.23-2.86.7s-1.23 1.23-1.56 2.29c-.33 1.05-.49 2.48-.49 4.28 0 2.16.16 3.86.49 5.09.33 1.23.86 2.12 1.58 2.65.73.53 1.71.8 2.96.8 1.21 0 2.18-.24 2.89-.71s1.22-1.24 1.54-2.3c.32-1.07.48-2.53.48-4.38 0-2.14-.17-3.81-.5-5.03-.33-1.22-.85-2.09-1.56-2.61-.71-.52-1.7-.78-2.97-.78zm29.71 15.39-.42 4.61h-13.83l.34-7.28-.34-17.29h6.28l-.34 16.68.11 2.82h7.82l.38.46zm17.63 0-.42 4.61h-13.83l.34-7.28-.34-17.29h6.28l-.34 16.68.11 2.82h7.82l.38.46zm12.6-20.35c3.5 0 6.21 1.05 8.11 3.15 1.91 2.09 2.86 5.07 2.86 8.93 0 4.22-1.04 7.49-3.12 9.81-2.09 2.32-5.02 3.49-8.8 3.49-3.48 0-6.17-1.07-8.08-3.22-1.9-2.15-2.86-5.19-2.86-9.12 0-4.17 1.04-7.38 3.11-9.64 2.07-2.27 5-3.4 8.78-3.4zm-.53 4.96c-1.2 0-2.15.23-2.86.7s-1.23 1.23-1.56 2.29c-.33 1.05-.5 2.48-.5 4.28 0 2.16.17 3.86.5 5.09.33 1.23.85 2.12 1.58 2.65.72.53 1.71.8 2.95.8 1.22 0 2.18-.24 2.89-.71.72-.47 1.23-1.24 1.55-2.3.31-1.07.47-2.53.47-4.38 0-2.14-.16-3.81-.49-5.03-.33-1.22-.85-2.09-1.56-2.61-.71-.52-1.71-.78-2.97-.78zm38.92 20h-6.51L324 51.43h-.38l-3.05 10.59h-6.55l-6.44-24.57h6.02l.38 3.35 3.55 14.93h.38l3.61-12.42-1.52-5.86h6.25l.53 3.96 3.7 14.32h.38l4.15-14.59.65-3.69h5.71l-7.77 24.57zm37.28-12.12-.04 3.55c.03 2.87-.85 5.08-2.64 6.62-1.8 1.56-4.34 2.33-7.65 2.33-3.19 0-5.64-.76-7.33-2.29-1.69-1.52-2.49-3.71-2.42-6.55l.08-3.73-.15-12.38h6.17l-.27 15.27c-.02 1.63.31 2.82.99 3.58.69.76 1.75 1.15 3.2 1.15 1.48 0 2.56-.38 3.26-1.13.7-.75 1.03-1.9 1.01-3.44l-.27-15.43h6.29l-.23 12.45zm14.28-12.84c2.18 0 4.39.44 6.63 1.3l-.99 5.18-.92.34c-.96-.63-1.93-1.13-2.89-1.48-.97-.36-1.81-.54-2.52-.54-.83 0-1.5.21-2 .63-.49.42-.74.91-.74 1.47 0 .63.31 1.17.93 1.62.62.44 1.61.97 2.95 1.58 1.43.66 2.58 1.26 3.45 1.81.88.55 1.64 1.28 2.29 2.19.65.92.97 2.03.97 3.35 0 1.48-.4 2.81-1.2 4-.8 1.2-1.94 2.14-3.41 2.84-1.47.7-3.17 1.05-5.1 1.05-2.57 0-5.11-.51-7.62-1.52l.87-5.53.65-.38c1.07.89 2.23 1.58 3.49 2.08 1.25.49 2.34.74 3.25.74.97 0 1.7-.22 2.19-.65.5-.43.75-.94.75-1.52 0-.69-.32-1.26-.96-1.72-.63-.45-1.62-.99-2.97-1.6-1.37-.63-2.49-1.22-3.37-1.77-.88-.54-1.63-1.27-2.27-2.19-.63-.91-.95-2.03-.95-3.35 0-1.5.4-2.85 1.2-4.06.8-1.21 1.92-2.15 3.35-2.84 1.44-.68 3.08-1.03 4.94-1.03zm28.25 0c3.5 0 6.21 1.05 8.11 3.15 1.91 2.09 2.86 5.07 2.86 8.93 0 4.22-1.04 7.49-3.12 9.81-2.09 2.32-5.02 3.49-8.8 3.49-3.48 0-6.17-1.07-8.08-3.22-1.9-2.15-2.86-5.19-2.86-9.12 0-4.17 1.04-7.38 3.11-9.64 2.07-2.27 5-3.4 8.78-3.4zm-.54 4.96c-1.19 0-2.14.23-2.85.7s-1.23 1.23-1.56 2.29c-.33 1.05-.5 2.48-.5 4.28 0 2.16.17 3.86.5 5.09.33 1.23.85 2.12 1.58 2.65.72.53 1.71.8 2.95.8 1.22 0 2.18-.24 2.89-.71.72-.47 1.23-1.24 1.55-2.3.31-1.07.47-2.53.47-4.38 0-2.14-.16-3.81-.49-5.03-.33-1.22-.85-2.09-1.56-2.61-.71-.52-1.7-.78-2.98-.78zm36.65 12.23.22 7.77h-6.7l-8.73-15.2h-.38l-.03 6.55.23 8.65h-5.61l.31-7.24-.31-17.33h6.67l8.76 15.2h.38l-.15-14.98 5.68-.34-.34 16.92z"/><path fill="#fff" fill-rule="nonzero" d="m213.29 40.87-.11 5.71h3.09l4.26-.11.35.46-.38 4.57-4.69-.12h-2.71l-.03 1.34.22 7.88h-6.2l.34-7.27-.34-17.3h15.39l.34.46-.42 4.57-5.94-.23-3.17.04zm22.51-5.22c3.51 0 6.21 1.05 8.12 3.14 1.9 2.1 2.86 5.08 2.86 8.94 0 4.21-1.05 7.48-3.13 9.81-2.08 2.32-5.02 3.48-8.8 3.48-3.48 0-6.17-1.07-8.08-3.22-1.9-2.14-2.85-5.18-2.85-9.12 0-4.17 1.03-7.38 3.1-9.64 2.07-2.26 5-3.39 8.78-3.39zm-.53 4.95c-1.19 0-2.15.24-2.86.71s-1.23 1.23-1.56 2.28c-.33 1.06-.49 2.49-.49 4.29 0 2.16.16 3.85.49 5.09.33 1.23.86 2.11 1.58 2.64.73.54 1.71.8 2.96.8 1.21 0 2.18-.23 2.89-.7s1.22-1.24 1.54-2.31c.32-1.06.48-2.52.48-4.38 0-2.13-.17-3.81-.5-5.03-.33-1.22-.85-2.09-1.56-2.61-.71-.52-1.7-.78-2.97-.78zm29.71 15.39-.42 4.61h-13.83l.34-7.27-.34-17.3h6.28l-.34 16.69.11 2.82h7.82l.38.45zm17.63 0-.42 4.61h-13.83l.34-7.27-.34-17.3h6.28l-.34 16.69.11 2.82h7.82l.38.45zm12.6-20.34c3.5 0 6.21 1.05 8.11 3.14 1.91 2.1 2.86 5.08 2.86 8.94 0 4.21-1.04 7.48-3.12 9.81-2.09 2.32-5.02 3.48-8.8 3.48-3.48 0-6.17-1.07-8.08-3.22-1.9-2.14-2.86-5.18-2.86-9.12 0-4.17 1.04-7.38 3.11-9.64 2.07-2.26 5-3.39 8.78-3.39zm-.53 4.95c-1.2 0-2.15.24-2.86.71s-1.23 1.23-1.56 2.28c-.33 1.06-.5 2.49-.5 4.29 0 2.16.17 3.85.5 5.09.33 1.23.85 2.11 1.58 2.64.72.54 1.71.8 2.95.8 1.22 0 2.18-.23 2.89-.7.72-.47 1.23-1.24 1.55-2.31.31-1.06.47-2.52.47-4.38 0-2.13-.16-3.81-.49-5.03-.33-1.22-.85-2.09-1.56-2.61-.71-.52-1.71-.78-2.97-.78zm38.92 20h-6.51L324 50.01h-.38l-3.05 10.59h-6.55l-6.44-24.57h6.02l.38 3.35 3.55 14.94h.38l3.61-12.42-1.52-5.87h6.25l.53 3.96 3.7 14.33h.38l4.15-14.59.65-3.7h5.71L333.6 60.6zm37.28-12.11-.04 3.54c.03 2.87-.85 5.08-2.64 6.63-1.8 1.55-4.34 2.32-7.65 2.32-3.19 0-5.64-.76-7.33-2.28-1.69-1.52-2.49-3.71-2.42-6.55l.08-3.74-.15-12.38h6.17l-.27 15.28c-.02 1.62.31 2.82.99 3.58.69.76 1.75 1.14 3.2 1.14 1.48 0 2.56-.37 3.26-1.12.7-.75 1.03-1.9 1.01-3.45l-.27-15.43h6.29l-.23 12.46zm14.28-12.84c2.18 0 4.39.43 6.63 1.3l-.99 5.18-.92.34c-.96-.64-1.93-1.13-2.89-1.49-.97-.35-1.81-.53-2.52-.53-.83 0-1.5.21-2 .63-.49.42-.74.91-.74 1.46 0 .64.31 1.18.93 1.63.62.44 1.61.97 2.95 1.58 1.43.66 2.58 1.26 3.45 1.81.88.54 1.64 1.27 2.29 2.19.65.91.97 2.03.97 3.35 0 1.47-.4 2.81-1.2 4-.8 1.19-1.94 2.14-3.41 2.84-1.47.7-3.17 1.04-5.1 1.04-2.57 0-5.11-.5-7.62-1.52l.87-5.52.65-.38c1.07.89 2.23 1.58 3.49 2.07 1.25.5 2.34.74 3.25.74.97 0 1.7-.21 2.19-.64.5-.43.75-.94.75-1.53 0-.68-.32-1.25-.96-1.71-.63-.46-1.62-.99-2.97-1.6-1.37-.64-2.49-1.23-3.37-1.77-.88-.55-1.63-1.28-2.27-2.19-.63-.92-.95-2.04-.95-3.36 0-1.49.4-2.85 1.2-4.05.8-1.21 1.92-2.16 3.35-2.84 1.44-.69 3.08-1.03 4.94-1.03zm28.25 0c3.5 0 6.21 1.05 8.11 3.14 1.91 2.1 2.86 5.08 2.86 8.94 0 4.21-1.04 7.48-3.12 9.81-2.09 2.32-5.02 3.48-8.8 3.48-3.48 0-6.17-1.07-8.08-3.22-1.9-2.14-2.86-5.18-2.86-9.12 0-4.17 1.04-7.38 3.11-9.64 2.07-2.26 5-3.39 8.78-3.39zm-.54 4.95c-1.19 0-2.14.24-2.85.71s-1.23 1.23-1.56 2.28c-.33 1.06-.5 2.49-.5 4.29 0 2.16.17 3.85.5 5.09.33 1.23.85 2.11 1.58 2.64.72.54 1.71.8 2.95.8 1.22 0 2.18-.23 2.89-.7.72-.47 1.23-1.24 1.55-2.31.31-1.06.47-2.52.47-4.38 0-2.13-.16-3.81-.49-5.03-.33-1.22-.85-2.09-1.56-2.61-.71-.52-1.7-.78-2.98-.78zm36.65 12.23.22 7.77h-6.7l-8.73-15.2h-.38l-.03 6.56.23 8.64h-5.61l.31-7.23-.31-17.34h6.67l8.76 15.2h.38l-.15-14.97 5.68-.34-.34 16.91zm-210.78 61.25c3.57 5.55 7.14 10.7 10.7 15.46l-.22 1.64c-5.05 1.53-10.03 2.45-14.93 2.74l-1.42-1.18-.89-1.86c-.39-.79-1.19-2.47-2.38-5.02a138.08 138.08 0 0 1-3.12-7.17h-4.98l.52 14.34h-14.93l.74-14.12-.74-33.95 22.81-.08c5.4 0 9.56 1.28 12.49 3.83 2.92 2.55 4.38 6.23 4.38 11.03 0 2.83-.71 5.48-2.12 7.95-1.41 2.48-3.38 4.61-5.91 6.39zm-7.65-12.85c0-1.98-.51-3.46-1.52-4.42-1.02-.97-2.67-1.5-4.95-1.6l-2.67.22-.3 12.41 5.43.3c1.39-.65 2.4-1.51 3.04-2.6.65-1.09.97-2.53.97-4.31zm56.85 19.91.81 1.04-.89 10.85h-33.88l.74-14.12-.74-33.95h34.48l.82 1.03-.97 10.85-11.82-.44h-7.65l-.15 6.76h7.36l7.72-.22.82 1.04-.89 10.85-8.62-.23h-6.69l-.07 2.83.15 4.16h7.13l12.34-.45zm27.94-36.48c7.08 0 12.52 1.92 16.31 5.76 3.79 3.84 5.69 9.37 5.69 16.61 0 8.56-2.21 15.15-6.62 19.76-4.41 4.61-10.72 6.91-18.95 6.91-5.15 0-11.19-.22-18.13-.67l.74-14.12-.74-33.95 21.7-.3zm-.75 37.97c2.33 0 4.1-.93 5.32-2.79 1.21-1.85 1.82-4.91 1.82-9.17 0-3.62-.25-6.47-.74-8.55-.5-2.08-1.29-3.58-2.38-4.49-1.09-.92-2.6-1.38-4.54-1.38-1.88 0-3.74.1-5.57.3l-.52 20.88.15 4.6c2.97.4 5.13.6 6.46.6zm49.35-37.97c7.08 0 12.52 1.92 16.31 5.76 3.79 3.84 5.68 9.37 5.68 16.61 0 8.56-2.2 15.15-6.61 19.76-4.41 4.61-10.72 6.91-18.95 6.91-5.15 0-11.2-.22-18.13-.67l.74-14.12-.74-33.95 21.7-.3zm-.75 37.97c2.33 0 4.1-.93 5.32-2.79 1.21-1.85 1.82-4.91 1.82-9.17 0-3.62-.25-6.47-.74-8.55-.5-2.08-1.29-3.58-2.38-4.49-1.09-.92-2.6-1.38-4.54-1.38-1.88 0-3.74.1-5.57.3l-.52 20.88.15 4.6c2.97.4 5.13.6 6.46.6zm41.99-5.2.6 15.6h-14.94l.74-14.12-.74-33.95h15.16l-.82 32.47zm43.62-31.44-.82 10.85-9.81-.44h-.89l-.37 21.03.6 15.6h-14.87l.75-14.12-.38-22.51h-.96l-9.88.44-.9-1.04.82-10.84h35.89l.82 1.03z"/><path fill="#D63900" fill-rule="nonzero" d="M1.97 155.49c0 3.24 1.32 6.18 3.46 8.32 2.13 2.13 5.07 3.46 8.32 3.46h139.8V0h8.37v167.27h336.33c3.25 0 6.19-1.33 8.32-3.46 2.14-2.14 3.46-5.08 3.46-8.32L512 10.81v144.68c0 3.78-1.55 7.22-4.04 9.71a13.705 13.705 0 0 1-9.71 4.03H13.75c-3.78 0-7.22-1.54-9.71-4.03-2.49-2.49-4.04-5.93-4.04-9.71V10.81l1.97 144.68z"/><path fill="#fff" fill-rule="nonzero" d="M123.93 86.41c0-5.68-4.61-10.29-10.28-10.29-2.8 0-5.27 1.07-7.08 2.88-6.99-5.01-16.7-8.31-27.39-8.72l4.69-21.96 15.21 3.21c.17 3.86 3.38 6.99 7.33 6.99 4.03 0 7.32-3.29 7.32-7.32s-3.29-7.32-7.32-7.32c-2.88 0-5.35 1.64-6.5 4.11l-17.03-3.62c-.49-.08-.99 0-1.4.25-.41.24-.66.66-.82 1.15l-5.19 24.51c-10.94.33-20.73 3.54-27.8 8.72-1.81-1.72-4.36-2.88-7.07-2.88-5.68 0-10.29 4.61-10.29 10.29 0 4.19 2.47 7.73 6.09 9.38-.17.98-.25 2.05-.25 3.12 0 15.8 18.35 28.55 41.05 28.55 22.71 0 41.05-12.75 41.05-28.55 0-1.07-.08-2.06-.25-3.04 3.38-1.65 5.93-5.27 5.93-9.46zm-70.34 7.32c0-4.03 3.29-7.32 7.32-7.32 4.04 0 7.33 3.29 7.33 7.32s-3.29 7.32-7.33 7.32c-4.03 0-7.32-3.29-7.32-7.32zm40.89 19.33c-5.02 5.02-14.56 5.35-17.36 5.35-2.8 0-12.42-.41-17.36-5.35-.74-.74-.74-1.97 0-2.71s1.98-.74 2.72 0c3.12 3.12 9.87 4.27 14.72 4.27 4.86 0 11.52-1.15 14.73-4.27.74-.74 1.97-.74 2.71 0 .58.82.58 1.97-.16 2.71zm-1.32-12.01c-4.03 0-7.32-3.29-7.32-7.32s3.29-7.32 7.32-7.32 7.32 3.29 7.32 7.32-3.29 7.32-7.32 7.32z"/></svg>