<svg xmlns="http://www.w3.org/2000/svg" shape-rendering="geometricPrecision" text-rendering="geometricPrecision" image-rendering="optimizeQuality" fill-rule="evenodd" clip-rule="evenodd" viewBox="0 0 439 90.41"><path fill="#1F38C5" fill-rule="nonzero" d="m11.65 9.3 28.98 28.99-1.62 1.61.05.05-28.99 28.98L0 58.86l20.53-20.53L1.58 19.37 11.65 9.3zm127.06-1.03v11.48h-24.48v13.09h18.91v10.97h-18.91v24.15H99.8V8.27h38.91zm22.22 21.45c1.8-2.87 4.12-5.15 6.96-6.84 2.85-1.69 5.93-2.53 9.25-2.53v15.44H173c-3.83 0-6.8.82-8.91 2.45-2.11 1.63-3.16 4.39-3.16 8.27v21.45h-14.44V20.85h14.44v8.87zm44.67-9.46c4.67 0 8.85.97 12.54 2.91 3.68 1.95 6.58 4.74 8.69 8.4 2.11 3.66 3.17 7.94 3.17 12.83 0 4.9-1.06 9.18-3.17 12.84-2.11 3.65-5.01 6.45-8.69 8.39-3.69 1.95-7.87 2.92-12.54 2.92-4.67 0-8.86-.97-12.58-2.92-3.71-1.94-6.63-4.74-8.74-8.39-2.11-3.66-3.16-7.94-3.16-12.84 0-4.89 1.05-9.17 3.16-12.83 2.11-3.66 5.03-6.45 8.74-8.4 3.72-1.94 7.91-2.91 12.58-2.91zm0 12.49c-2.76 0-5.08 1-6.96 3-1.89 2-2.83 4.88-2.83 8.65 0 3.77.94 6.64 2.83 8.61 1.88 1.97 4.2 2.96 6.96 2.96s5.07-.99 6.92-2.96c1.86-1.97 2.79-4.84 2.79-8.61 0-3.77-.93-6.65-2.79-8.65-1.85-2-4.16-3-6.92-3zm62.15-12.4c5.4 0 9.69 1.8 12.87 5.4 3.18 3.6 4.77 8.55 4.77 14.86v27.35h-14.44V42.29c0-3.15-.83-5.61-2.49-7.38-1.66-1.78-3.87-2.66-6.62-2.66-2.93 0-5.25.93-6.97 2.78-1.71 1.86-2.57 4.51-2.57 7.94v24.99h-14.44V20.85h14.44v8.61c1.35-2.81 3.36-5.03 6.03-6.67 2.68-1.63 5.81-2.44 9.42-2.44zm54.21 35.2v12.41h-6.5c-5.52 0-9.81-1.37-12.88-4.1-3.06-2.73-4.6-7.24-4.6-13.55v-17.3h-6.33V20.85h6.33V9.29h14.44v11.56h9.45v12.16h-9.45v17.56c0 1.85.38 3.15 1.14 3.88.76.73 2.04 1.1 3.84 1.1h4.56zm7.1-47.95c0-2.2.79-4.01 2.36-5.45C333 .72 335.08 0 337.67 0s4.67.72 6.25 2.15c1.57 1.44 2.36 3.25 2.36 5.45 0 2.14-.79 3.92-2.36 5.36-1.58 1.43-3.66 2.15-6.25 2.15s-4.67-.72-6.25-2.15c-1.57-1.44-2.36-3.22-2.36-5.36zm15.79 13.25v47.11h-14.44V20.85h14.44zm36.99 34.7v12.41h-6.5c-5.52 0-9.81-1.37-12.88-4.1-3.07-2.73-4.6-7.24-4.6-13.55v-17.3h-6.33V20.85h6.33V9.29h14.44v11.56h9.45v12.16h-9.45v17.56c0 1.85.38 3.15 1.14 3.88.76.73 2.04 1.1 3.84 1.1h4.56zm19.34-34.7 11.31 28.87 10.56-28.87H439l-29.38 69.56h-15.87l11.06-24.23-19.75-45.33h16.12zM44.75 9.3l28.99 28.99-1.63 1.61.05.05-28.98 28.98-10.07-10.07 20.52-20.53-18.95-18.96L44.75 9.3z"/></svg>