<svg xmlns="http://www.w3.org/2000/svg" shape-rendering="geometricPrecision" text-rendering="geometricPrecision" image-rendering="optimizeQuality" fill-rule="evenodd" clip-rule="evenodd" viewBox="0 0 512 469.34"><g fill-rule="nonzero"><path fill="#669DF6" d="M448 341.33H262.1c-45.02 0-70.1 31.06-70.1 64.01 0 30.47 21.33 64 70.1 64H448V341.33z"/><circle fill="#1A73E8" cx="448" cy="405.34" r="64"/><path fill="#669DF6" d="M256 170.67H70.09c-45.01 0-70.09 31.05-70.09 64 0 30.47 21.33 64 70.09 64H256v-128z"/><circle fill="#1A73E8" cx="256" cy="234.67" r="64"/><path fill="#669DF6" d="M448 0H262.09C217.08 0 192 31.06 192 64c0 30.48 21.33 64 70.09 64H448V0z"/><circle fill="#1A73E8" cx="448" cy="64" r="64"/></g></svg>