<svg xmlns="http://www.w3.org/2000/svg" shape-rendering="geometricPrecision" text-rendering="geometricPrecision" image-rendering="optimizeQuality" fill-rule="evenodd" clip-rule="evenodd" viewBox="0 0 512 115.23"><path fill-rule="nonzero" d="M382.12 31.56c-6.41 0-12.57 2.66-17.04 7.33v-24.7c0-.77-.65-1.42-1.43-1.42h-8.69c-.77 0-1.42.65-1.42 1.42v66.76c0 .78.65 1.42 1.42 1.42h8.69c.78 0 1.43-.64 1.43-1.42v-4.6c4.47 4.66 10.56 7.32 17.04 7.32 13.55 0 24.5-11.67 24.5-26.05 0-14.39-10.95-26.06-24.5-26.06zM64.23 33.77l-5.64 11.6-11.6 5.64 11.6 5.63 5.64 11.61 5.63-11.61 11.61-5.63-11.61-5.64-5.63-11.6zM57.62 0C25.8 0 0 25.79 0 57.62c0 31.82 25.79 57.61 57.62 57.61 31.82 0 57.61-25.79 57.61-57.61C115.23 25.79 89.44 0 57.62 0zm27.35 71.75c-19.71 19.7-54.9 13.41-54.9 13.41s-6.35-35.12 13.42-54.89c10.95-10.96 29.1-10.5 40.57.9 11.47 11.41 11.86 29.62.91 40.58zm426.84 8.61-15.04-22.87 14.91-22.69c.38-.58.19-1.42-.39-1.81-.2-.13-.46-.2-.72-.2h-10.04c-.78 0-1.49.39-1.88 1.04l-8.75 14.71-8.75-14.64c-.39-.65-1.1-1.04-1.88-1.04h-10.04c-.72 0-1.3.58-1.3 1.3 0 .26.06.51.19.71l14.91 22.68L468 80.43c-.39.58-.2 1.43.38 1.82.2.12.46.19.72.19h10.04c.78 0 1.49-.39 1.88-1.04l8.94-14.9 8.95 14.9c.39.65 1.1 1.04 1.88 1.04h9.91c.72 0 1.3-.58 1.3-1.3 0-.26-.06-.52-.19-.78zm-312.97-48.8c-6.48.07-12.38 3.83-15.17 9.72-3.17-6.02-9.52-9.78-16.33-9.72-5.31 0-10.3 2.6-13.42 6.87v-4.14c0-.78-.64-1.43-1.42-1.43h-8.69c-.77 0-1.42.65-1.42 1.43v46.66c0 .78.65 1.42 1.42 1.42h8.69c.78 0 1.42-.64 1.42-1.42V53.02c.33-6.23 4.67-11.22 9.98-11.22 5.51 0 10.11 4.6 10.11 10.63v28.52c0 .78.65 1.43 1.43 1.43h8.75c.78 0 1.43-.65 1.43-1.43l-.07-29.04c.78-5.7 4.86-10.11 9.85-10.11 5.51 0 10.11 4.6 10.11 10.63v28.52c0 .78.65 1.43 1.43 1.43h8.75c.77 0 1.42-.65 1.42-1.43l-.06-32.08c0-9.59-8.17-17.31-18.21-17.31zm121 0c-6.42 0-12.57 2.66-17.05 7.33v-4.6c0-.78-.65-1.43-1.42-1.43h-8.69c-.77 0-1.42.65-1.42 1.43v66.75c0 .78.65 1.43 1.42 1.43h8.69c.77 0 1.42-.65 1.42-1.43V76.35c4.48 4.66 10.57 7.32 17.05 7.32 13.54 0 24.5-11.67 24.5-26.05 0-14.39-10.96-26.06-24.5-26.06zm-2.01 41.68c-8.23 0-14.91-6.87-14.97-15.43v-.39c.13-8.55 6.74-15.42 14.97-15.42 8.29 0 14.97 7 14.97 15.62s-6.68 15.62-14.97 15.62zm-41.35-40.38h-8.68c-.78 0-1.43.65-1.43 1.43v4.6c-4.47-4.67-10.56-7.33-17.05-7.33-13.54 0-24.49 11.67-24.49 26.06 0 14.38 10.95 26.05 24.49 26.05 6.42 0 12.58-2.66 17.05-7.32v4.6c0 .78.65 1.42 1.43 1.42h8.68c.78 0 1.43-.64 1.43-1.42V34.29c0-.78-.65-1.43-1.43-1.43zm-25.15 40.38c-8.29 0-14.97-7-14.97-15.62S243.1 42 251.33 42c8.24 0 14.91 6.87 14.98 15.42v.39c-.07 8.56-6.75 15.43-14.98 15.43zm187.24-41.68c-14.65 0-26.51 11.67-26.51 26.06 0 14.38 11.86 26.05 26.51 26.05 14.65 0 26.51-11.67 26.51-26.05 0-14.39-11.86-26.06-26.51-26.06zm-.06 41.68c-8.3 0-14.98-7-14.98-15.62S430.27 42 438.51 42c8.23 0 14.97 7 14.97 15.62s-6.74 15.62-14.97 15.62zm-58.4 0c-8.23 0-14.9-6.87-14.97-15.43v-.39c.13-8.55 6.74-15.42 14.97-15.42 8.3 0 14.97 7 14.97 15.62s-6.74 15.62-14.97 15.62z"/></svg>