<svg id="Layer_1" data-name="Layer 1" xmlns="http://www.w3.org/2000/svg" viewBox="0 0 498.65 504.4"><defs><style>.cls-1{fill:#f00500;}.cls-2{fill:#fff;}.cls-3{fill:none;}.cls-4{fill:#ffa409;}.cls-5{fill:#ff9300;}.cls-6{fill:#ff8300;}</style></defs><g id="Group_938" data-name="Group 938"><g id="Group_931" data-name="Group 931"><path id="Path_8573" data-name="Path 8573" class="cls-1" d="M373.45,48.4A321.16,321.16,0,0,0,338,90.45l-3.34-1.09a242.38,242.38,0,0,0-59.38-11.5c-6.06-.47-28.67-.47-36.05,0-22.31,1.47-39.4,4.81-58.83,11.58-.78.31-1.48.54-2.18.77a316.68,316.68,0,0,0-36.6-41.73,254.43,254.43,0,0,1,207.49-11c7.23,2.72,14.3,5.91,21.22,9.33Z" transform="translate(-8.41 -4)"/><path id="Path_8574" data-name="Path 8574" class="cls-1" d="M493.74,343.17a242.8,242.8,0,0,1-43.51,76.31,270.74,270.74,0,0,1-34,33.34A251.12,251.12,0,0,1,318,501.23a257.19,257.19,0,0,1-120.61,0,250.45,250.45,0,0,1-98.15-48.41,270.07,270.07,0,0,1-34-33.34A239.83,239.83,0,0,1,21.72,185.72,254.16,254.16,0,0,1,41.53,143c3.66-6.22,8.16-13.21,10.34-16.09C59.33,159,68.5,187.2,71.92,197.38a18.1,18.1,0,0,1-.85,1.71c-18.11,36.68-27.9,72-30.23,109.65,0,.47-.08,1-.08,1.48-.62,11.26-.31,16.63,1.55,23.7,5.83,22.15,23.78,46.55,51.91,70.48,46.09,39.17,108.57,67.46,155.9,70.72,49.34,3.34,122.16-25.49,170.65-67.61A243.35,243.35,0,0,0,442.22,386c4.82-5.6,12-15.24,11.42-15.24-.15,0,0-.15.32-.31s.46-.38.31-.54.07-.31.31-.39.39-.23.31-.39,0-.31.31-.39a.34.34,0,0,0,.23-.46c-.08-.16,0-.31.16-.31s.31-.24.31-.39.15-.39.31-.39a.34.34,0,0,0,.31-.31,8.14,8.14,0,0,1,1-1.79c1.17-1.79,5.83-10.1,6.45-11.5,4.43-10,7.23-19,8.55-27.9.62-4.27,1-12.12.7-14-.08-.31-.08-.85-.16-1.71-.15-1.55-.23-3.88-.39-6.21-.15-3.5-.46-8.4-.7-10.81-3.34-35.28-12.35-64.11-29.45-94.65a27.59,27.59,0,0,1-1.71-3.26,5.91,5.91,0,0,1-.31-.63h0c2.41-7.22,12.28-37.45,20.13-72l.15.15,1.17,1.55c2,2.72,7.38,10.81,9.79,14.69a238.68,238.68,0,0,1,22,204.39Z" transform="translate(-8.41 -4)"/><path id="Path_8575" data-name="Path 8575" d="M392.87,250.3c-.23,1.24-3.88,5-7.53,7.69-10.73,7.85-29.92,15.16-49.43,18.65-11.11,2-22.23,2.34-25.57.7-2.17-1.08-2.48-1.94-1.71-4.74,1.63-5.82,6.92-12.2,15.16-18.18,4.19-3,21.21-13.37,29.14-17.72,13.05-7.15,23.62-11.42,30.77-12.43,2.26-.31,5-.39,5.83,0,1.4.54,3,4.66,3.58,9.63A126.75,126.75,0,0,1,392.87,250.3Z" transform="translate(-8.41 -4)"/><path id="Path_8576" data-name="Path 8576" d="M209.78,276c-.46.94-2.79,2-5.44,2.33s-10.72.16-15.31-.38c-16.47-2.18-34-7.23-46.7-13.45-7.15-3.5-12.28-7-16.09-10.8l-2.17-2.25-.24-3c-.39-5.13-.31-13.21.31-16.08a21.3,21.3,0,0,1,2.41-6.84c.62-.78.62-.78,3.42-.78a33.54,33.54,0,0,1,11,2c9.56,2.95,23.78,10.1,41.11,20.52,14.3,8.55,19.66,12.74,23.78,18.49C208.62,269.42,210.48,274.47,209.78,276Z" transform="translate(-8.41 -4)"/><path id="Path_8577" data-name="Path 8577" d="M319.82,384.2c0,.23-.93,4-2.09,8.39s-2.1,8-2.1,8.16a13,13,0,0,1-2.49.08h-2.49l-3.42,8.08c-1.86,4.43-3.57,8.55-3.8,9.17l-.47,1.09-1.63-2.64-1.63-2.65V392.36l-.63.15c-1.32.31-10.72,1.56-14.84,1.95a211.77,211.77,0,0,1-51.06-1.09,50.79,50.79,0,0,0-5.12-.62c-.08.07,0,5.05.15,11.19l.23,11-1.32,2c-.7,1.09-1.4,2-1.4,2.1-.23.23-1-1-2.79-4.58a52.22,52.22,0,0,1-4.36-11.82l-.54-2.25-2.41.16-2.41.23-.62-2.88c-.31-1.55-.7-4-.85-5.28l-.24-2.49-2-1.78c-1.16-1-2.33-2-2.56-2.18a1.71,1.71,0,0,1-.55-1.32V384l9.72.07,9.71.08.31,1,.31,1,3.35.16c1.86.07,7.77.23,13.05.39l9.71.23L255,383l2.57-3.88h3.26l-.08-8.08-.08-8.09-4.27-1.86c-13.75-6.06-21.84-13-24.87-21.37-.62-1.71-.62-2.33-.77-10.11s-.08-8.39.46-10.1a11.33,11.33,0,0,1,8-7.93c1.32-.38,4.81-.38,23.15-.38l21.61.07,2.41,1.17a13.64,13.64,0,0,1,5.83,4.58c1.86,2.49,2.41,4.43,2.41,9.17,0,6.77-.47,12.59-1.17,14.93a32.35,32.35,0,0,1-4.51,8.93,41.28,41.28,0,0,1-17.41,12.2l-1.86.7.08,8.16.07,8.16,1.71.16,1.71.15,2.34,3.5,2.25,3.5h10.41c5.75,0,10.8.08,11.27.15.78.16.93.08,1.71-1.24l.93-1.4h8.94C317.8,383.81,319.82,384,319.82,384.2Z" transform="translate(-8.41 -4)"/><path id="Path_8578" data-name="Path 8578" d="M278.79,406.5c-1.48.86-2.49,1.25-2.72,1.09s-1.32-1-2.49-1.86L271.49,404l-2.18,2.33c-4.74,5.13-4.9,5.36-6.29,5.44-2.18.23-2.65-.16-5.29-4.12-1.4-2-2.49-3.73-2.49-3.73s-1-.16-2.17-.24l-2.18-.23-1,2.1-1,2.1-1.79-.55a37.37,37.37,0,0,1-4.11-1.63l-2.34-1.16V399.9l20.68.07,20.67.08.08,2.1C282.13,404.64,282.21,404.56,278.79,406.5Z" transform="translate(-8.41 -4)"/></g><path id="Path_8579" data-name="Path 8579" class="cls-2" d="M473.07,311.69a16,16,0,0,1-.15-1.71c-18.65-2-71.89-3.26-121.31,37.54,0,0-15.93-73-90.54-73s-102.27,73-102.27,73c-41.81-45-97.76-41.73-118-38.78,0,.47-.08,1-.08,1.48-.62,11.26-.31,16.63,1.55,23.7,5.83,22.15,23.78,46.55,51.91,70.48,46.09,39.17,108.57,67.46,155.9,70.72,49.34,3.34,122.16-25.49,170.65-67.61A243.35,243.35,0,0,0,442.22,386c4.82-5.6,12-15.24,11.42-15.24-.15,0,0-.15.32-.31s.46-.39.31-.54.07-.31.31-.39.39-.23.31-.39,0-.31.31-.39a.34.34,0,0,0,.23-.46c-.08-.16,0-.31.16-.31s.31-.24.31-.39.15-.39.31-.39a.34.34,0,0,0,.31-.31,8.14,8.14,0,0,1,1-1.79c1.17-1.79,5.83-10.1,6.45-11.5,4.43-10,7.23-19,8.55-27.9C473,321.41,473.38,313.56,473.07,311.69ZM278.79,406.5c-1.48.86-2.49,1.25-2.72,1.09s-1.32-1-2.49-1.86L271.49,404l-2.18,2.33c-4.74,5.13-4.9,5.36-6.29,5.44-2.18.23-2.65-.16-5.29-4.12-1.4-2-2.49-3.73-2.49-3.73s-1-.16-2.17-.24l-2.18-.23-1,2.1-1,2.1-1.79-.55a37.37,37.37,0,0,1-4.11-1.63l-2.34-1.16V399.9l20.68.07,20.67.08.08,2.1C282.13,404.64,282.21,404.56,278.79,406.5Zm38.86-14c-1.17,4.43-2.1,8-2.1,8.16a13,13,0,0,1-2.49.08h-2.48l-3.35,8.16c-1.86,4.43-3.57,8.55-3.8,9.17l-.47,1.09-1.63-2.64-1.63-2.65V392.36l-.63.15c-1.32.31-10.72,1.56-14.84,1.95a211.77,211.77,0,0,1-51.06-1.09,50.79,50.79,0,0,0-5.12-.62c-.08.07,0,5.05.15,11.19l.23,11-1.32,2c-.7,1.09-1.4,2-1.4,2.1-.23.23-1-1-2.79-4.58a52.22,52.22,0,0,1-4.36-11.82l-.54-2.25-2.41.16-2.41.23-.62-2.88c-.31-1.55-.7-4-.85-5.28l-.24-2.49-2-1.78c-1.16-1-2.33-2-2.56-2.18a1.71,1.71,0,0,1-.55-1.32V384l9.72.07,9.71.08.31,1,.31,1,3.35.16c1.86.07,7.77.23,13.05.39l9.71.23L255,383l2.57-3.88h3.26l-.08-8.08-.08-8.09-4.27-1.86c-13.75-6.06-21.84-13-24.87-21.37-.62-1.71-.62-2.33-.77-10.11s-.08-8.39.46-10.1a11.33,11.33,0,0,1,8-7.93c1.32-.38,4.81-.38,23.15-.38l21.61.07,2.41,1.17a13.64,13.64,0,0,1,5.83,4.58c1.86,2.49,2.41,4.43,2.41,9.17,0,6.77-.47,12.59-1.17,14.93a32.35,32.35,0,0,1-4.51,8.93,41.28,41.28,0,0,1-17.41,12.2l-1.86.7.08,8.16.07,8.16,1.71.16,1.71.15,2.34,3.5,2.25,3.5h10.41c5.75,0,10.8.08,11.27.15.78.16.93.08,1.71-1.24l.93-1.4h8.94c6.92,0,8.94.08,8.94.31C319.82,384.35,318.81,388.16,317.65,392.51Z" transform="translate(-8.41 -4)"/><path id="Path_8580" data-name="Path 8580" class="cls-3" d="M40.68,308.74a71.05,71.05,0,0,0-7.77,1.48" transform="translate(-8.41 -4)"/><path id="Path_8581" data-name="Path 8581" class="cls-3" d="M479.83,311s-2.48-.54-6.91-1" transform="translate(-8.41 -4)"/><path id="Path_8582" data-name="Path 8582" class="cls-4" d="M472.45,303.77c-.15-3.5-.47-8.4-.7-10.81-3.34-35.28-12.35-64.11-29.45-94.65a27.59,27.59,0,0,1-1.71-3.26,4.46,4.46,0,0,1-.31-.63h0c2.41-7.22,12.28-37.45,20.13-72,10.64-46.94,17.4-101.81-3.27-118.28,0,0-35.75-2.65-83.62,44.29a321.09,321.09,0,0,0-35.43,42.05l-3.35-1.09a242.21,242.21,0,0,0-59.37-11.5c-6.06-.47-28.67-.47-36.06,0-22.3,1.47-39.4,4.81-58.82,11.58-.78.31-1.48.54-2.18.77a316.68,316.68,0,0,0-36.6-41.73C91.89,1.31,54.82,4,54.82,4c-21.91,17-14.45,74.37-3.1,122.86,7.46,32.1,16.63,60.31,20,70.49-.24.54-.55,1.16-.86,1.71-18.11,36.68-27.9,72-30.23,109.65,20.28-2.95,76.16-6.29,118,38.78,0,0,27.66-73,102.27-73s90.53,73,90.53,73A165.66,165.66,0,0,1,472.84,310C472.76,308.43,472.61,306.1,472.45,303.77Zm-386-135.69S57.39,95.42,64.85,53.92h0c1.24-7,3.57-13.13,7.23-17.8,0,0,33,3.27,86.1,62.33,0,0-10.1,4.9-23.62,15.31a.28.28,0,0,1-.16.08,186.9,186.9,0,0,0-47.95,54.24ZM209.78,276c-.46.94-2.79,2-5.44,2.33s-10.72.16-15.31-.38c-16.47-2.18-34-7.23-46.7-13.45-7.15-3.5-12.28-7-16.09-10.8l-2.17-2.25-.24-3c-.39-5.13-.31-13.21.31-16.08a21.3,21.3,0,0,1,2.41-6.84c.62-.78.62-.78,3.42-.78a33.54,33.54,0,0,1,11,2c9.56,2.95,23.78,10.1,41.11,20.52,14.3,8.55,19.66,12.74,23.78,18.49C208.62,269.42,210.48,274.47,209.78,276ZM392.87,250.3c-.23,1.24-3.88,5-7.53,7.69-10.73,7.85-29.92,15.16-49.43,18.65-11.11,2-22.23,2.34-25.57.7-2.17-1.08-2.48-1.94-1.71-4.74,1.63-5.82,6.92-12.2,15.16-18.18,4.19-3,21.21-13.37,29.14-17.72,13.05-7.15,23.62-11.42,30.77-12.43,2.26-.31,5-.39,5.83,0,1.4.54,3,4.66,3.58,9.63A126.75,126.75,0,0,1,392.87,250.3ZM380,113.76l-.15-.08C366.76,103.27,357,98.37,357,98.37c51.37-59.06,83.15-62.32,83.15-62.32,3.5,4.74,5.75,10.8,7,17.79h0c7.22,41.5-20.83,114.24-20.83,114.24A185,185,0,0,0,380,113.76Z" transform="translate(-8.41 -4)"/><path id="Path_8583" data-name="Path 8583" class="cls-3" d="M338,90.45c-.16.15-.23.38-.39.54" transform="translate(-8.41 -4)"/><path id="Path_8584" data-name="Path 8584" class="cls-3" d="M440.2,194.35c-.39,1.08-.54,1.63-.54,1.63" transform="translate(-8.41 -4)"/><g id="Group_934" data-name="Group 934"><g id="Group_933" data-name="Group 933"><g id="Group_932" data-name="Group 932"><path id="Path_8585" data-name="Path 8585" class="cls-5" d="M447.19,53.84c-6.06-.77-34.73-.93-67.22,59.92l-.15-.08C366.76,103.27,357,98.37,357,98.37c51.37-59.06,83.15-62.32,83.15-62.32C443.7,40.79,446,46.85,447.19,53.84Z" transform="translate(-8.41 -4)"/></g><path id="Path_8586" data-name="Path 8586" class="cls-6" d="M426.37,168.08A184.29,184.29,0,0,0,380,113.76c32.49-60.85,61.09-60.69,67.22-59.92h0C454.42,95.42,426.37,168.08,426.37,168.08Z" transform="translate(-8.41 -4)"/><path id="Path_8587" data-name="Path 8587" class="cls-6" d="M448.36,54.08l-1.17-.24Z" transform="translate(-8.41 -4)"/></g></g><path id="Path_8588" data-name="Path 8588" class="cls-3" d="M180.64,93.48c-.78-1.09-1.63-2.18-2.41-3.27" transform="translate(-8.41 -4)"/><path id="Path_8589" data-name="Path 8589" class="cls-3" d="M71.77,197.38c.85,2.64,1.39,4,1.39,4" transform="translate(-8.41 -4)"/><g id="Group_937" data-name="Group 937"><g id="Group_936" data-name="Group 936"><g id="Group_935" data-name="Group 935"><path id="Path_8590" data-name="Path 8590" class="cls-5" d="M158.18,98.37s-10.1,4.9-23.62,15.31a.28.28,0,0,1-.16.08C100.75,52.83,71.14,53.07,64.77,53.84c1.24-7,3.58-13.13,7.23-17.79C72.08,36.05,105,39.31,158.18,98.37Z" transform="translate(-8.41 -4)"/></g><path id="Path_8591" data-name="Path 8591" class="cls-6" d="M134.48,113.76c-14.77,11.35-33.57,29.14-48,54.32,0,0-29.06-72.66-21.6-114.24h0C71.14,53.07,100.83,52.91,134.48,113.76Z" transform="translate(-8.41 -4)"/><path id="Path_8592" data-name="Path 8592" class="cls-6" d="M64.85,53.84l-1.24.24Z" transform="translate(-8.41 -4)"/></g></g><path id="Path_8593" data-name="Path 8593" class="cls-2" d="M347.72,208.41S322.85,210,326,190.54s22.54-21.76,28-21,27.2,8.55,23.31,24.86-9.32,13.22-12.43,14S347.72,208.41,347.72,208.41Z" transform="translate(-8.41 -4)"/><path id="Path_8594" data-name="Path 8594" class="cls-2" d="M164.32,208.41s-24.87,1.56-21.76-17.87,22.54-21.76,28-21,27.2,8.55,23.31,24.86-9.32,13.22-12.43,14S164.32,208.41,164.32,208.41Z" transform="translate(-8.41 -4)"/></g></svg>