<svg id="Layer_1" data-name="Layer 1" xmlns="http://www.w3.org/2000/svg" viewBox="0 0 508.94 430.63"><title>stellar-xlm</title><g id="Layer_2" data-name="Layer 2"><g id="Layer_1-2" data-name="Layer 1-2"><path d="M437.11,56.37,375.83,87.59,79.91,238.32A176.26,176.26,0,0,1,340.64,61.62l35.08-17.87L381,41.08C284.71-28.78,150.06-7.38,80.21,88.86a215.32,215.32,0,0,0-41.06,126.5q0,8.23.62,16.39A39.17,39.17,0,0,1,18.5,269.6L0,279v44l54.46-27.76h0l17.63-9,17.38-8.85h0l312-159,35.06-17.85,72.45-36.93v-44Z"/><path d="M508.94,107.7,107.19,312.26,72.13,330.15,0,366.91v43.95l71.64-36.5,61.28-31.22L429.14,192.19a179.69,179.69,0,0,1,1.51,23.17A176.29,176.29,0,0,1,168.15,369L166,370.16l-38,19.38C224.2,459.41,358.85,438,428.72,341.8A215.41,215.41,0,0,0,469.8,215.36c0-5.53-.22-11.06-.63-16.53A39.2,39.2,0,0,1,490.42,161l18.52-9.43Z"/></g></g></svg>