<svg id="Layer_1" data-name="Layer 1" xmlns="http://www.w3.org/2000/svg" viewBox="0 0 371.81 506.27"><defs><style>.cls-1{fill:#2c7df7;}</style></defs><title>tezos-xtz</title><g id="Layer_2" data-name="Layer 2"><path class="cls-1" d="M240.16,506.27q-54.18,0-79.1-26.1a80.6,80.6,0,0,1-24.84-56.25,37.3,37.3,0,0,1,4.35-18.6,32.26,32.26,0,0,1,11.87-11.87,41.39,41.39,0,0,1,36.94,0,31.68,31.68,0,0,1,11.79,11.87,36.49,36.49,0,0,1,4.51,18.6,35.53,35.53,0,0,1-6.33,21.75,29.41,29.41,0,0,1-15,11,41.06,41.06,0,0,0,23.73,14.8,117.63,117.63,0,0,0,32.35,4.66A72.08,72.08,0,0,0,281.14,464a71.18,71.18,0,0,0,26.58-36,156.24,156.24,0,0,0,8.7-53.87,147.66,147.66,0,0,0-9.49-56,69.17,69.17,0,0,0-27.45-34.81A73.08,73.08,0,0,0,239.93,272a75.36,75.36,0,0,0-34.25,11.63l-25.4,12.74V283.59L294.43,130.46H136.22V289.37a56.88,56.88,0,0,0,8.7,32.51,30,30,0,0,0,26.58,12.73,44.41,44.41,0,0,0,26.26-9.25,94.71,94.71,0,0,0,22-22.63,8,8,0,0,1,2.86-3.79,5.83,5.83,0,0,1,3.82-1.42,13.12,13.12,0,0,1,7.43,3.16,15.8,15.8,0,0,1,4,10.76,62.77,62.77,0,0,1-1.43,7.91A76.56,76.56,0,0,1,209.34,353a67.23,67.23,0,0,1-38.06,11.57q-51.39,0-71.19-20.25A75.91,75.91,0,0,1,80.47,289V130.46H0V100.94H80.84V33.62L62.34,15.1V0h53.71l20.17,10.44v90.5l209-.64L366,121.18,237.87,250a86.26,86.26,0,0,1,24.2-5.86,105,105,0,0,1,46.84,13.37,96.23,96.23,0,0,1,40.35,36,127,127,0,0,1,18.19,43.43,182.4,182.4,0,0,1,4.35,37.18A155.35,155.35,0,0,1,356,443a101,101,0,0,1-47.46,47.47A153.58,153.58,0,0,1,240.16,506.27Z"/></g></svg>