<svg xmlns="http://www.w3.org/2000/svg" shape-rendering="geometricPrecision" text-rendering="geometricPrecision" image-rendering="optimizeQuality" fill-rule="evenodd" clip-rule="evenodd" viewBox="0 0 512 167.52"><path fill-rule="nonzero" d="M29.62 0h452.76c8.14 0 15.54 3.35 20.9 8.71 5.37 5.37 8.72 12.79 8.72 20.91V137.9c0 8.11-3.36 15.52-8.73 20.89-5.37 5.37-12.78 8.73-20.89 8.73H29.62c-8.12 0-15.54-3.34-20.91-8.72C3.35 153.44 0 146.05 0 137.9V29.62C0 21.47 3.34 14.06 8.7 8.7 14.06 3.34 21.47 0 29.62 0zm173.92 108.98c-4.74 0-8.54-.82-11.39-2.47-2.85-1.65-4.9-3.97-6.16-6.93-1.26-2.98-1.89-6.45-1.89-10.41l.12-26.68h11.46l-.12 25.32c-.03 3.22.26 5.7.85 7.44.59 1.74 1.47 2.95 2.63 3.62 1.17.67 2.6 1.01 4.32 1.01 1.73 0 3.18-.34 4.33-1.05 1.16-.7 2.02-1.93 2.6-3.68.58-1.76.87-4.2.87-7.34V62.49h11.39v26.87c0 6.15-1.51 10.96-4.53 14.42-3.02 3.47-7.86 5.2-14.48 5.2zm27-.49V74h10.22l.24 4.03c.72-.72 1.67-1.43 2.85-2.11a19.49 19.49 0 0 1 3.93-1.7c1.45-.45 2.94-.69 4.49-.71 3.51-.06 6.14.89 7.89 2.86 1.76 1.97 2.63 5.44 2.63 10.39v21.73h-11.2V88.8c0-2.52-.32-4.25-.96-5.19-.64-.94-1.79-1.37-3.44-1.31-.53 0-1.13.09-1.79.25-.66.16-1.31.41-1.96.74-.65.33-1.24.74-1.75 1.24v23.96h-11.15zm42.36 0V81.37h-4.28v-6.5l4.28-.87v-3.52c0-2.48.39-4.55 1.17-6.22.78-1.66 1.84-2.97 3.15-3.94 1.31-.97 2.75-1.67 4.33-2.09 1.58-.42 3.15-.63 4.72-.63 1.77 0 3.24.08 4.38.26 1.15.17 1.91.32 2.3.42v7.68c-.39-.19-.96-.36-1.7-.52-.74-.15-1.66-.23-2.75-.23-1.3 0-2.35.45-3.14 1.34-.79.88-1.2 2.34-1.2 4.36V74h7.5v7.37h-7.5v27.12H272.9zm38.45.49c-3.18 0-5.87-.49-8.09-1.47-2.22-.98-4.01-2.32-5.34-4.04-1.35-1.71-2.32-3.68-2.92-5.9-.59-2.21-.88-4.56-.86-7.03.06-3.68.85-6.77 2.38-9.29 1.52-2.52 3.62-4.43 6.28-5.73 2.66-1.3 5.72-1.95 9.17-1.95 4.25 0 7.65.85 10.17 2.54 2.53 1.69 4.34 3.93 5.43 6.72 1.09 2.78 1.61 5.83 1.55 9.13-.04 3.69-.82 6.8-2.33 9.33-1.52 2.53-3.62 4.44-6.28 5.74-2.66 1.3-5.71 1.95-9.16 1.95zm.25-7.73c2.21 0 3.74-.82 4.6-2.44.86-1.62 1.28-4.07 1.28-7.35 0-1.85-.18-3.56-.53-5.09-.35-1.54-.94-2.77-1.76-3.69-.83-.91-1.96-1.37-3.41-1.37-2.25 0-3.81.82-4.68 2.45-.88 1.63-1.32 4.01-1.32 7.15 0 1.9.18 3.63.54 5.2.36 1.56.96 2.81 1.81 3.75.84.92 2 1.39 3.47 1.39zm22.97 7.24V58.22h11.21v50.27h-11.21zm18.95 0V58.22h11.21v50.27h-11.21zm33.87.49c-3.18 0-5.87-.49-8.09-1.47-2.22-.98-4-2.32-5.34-4.04-1.35-1.71-2.31-3.68-2.92-5.9-.59-2.21-.88-4.56-.86-7.03.06-3.68.85-6.77 2.38-9.29 1.53-2.52 3.62-4.43 6.29-5.73 2.65-1.3 5.72-1.95 9.16-1.95 4.25 0 7.65.85 10.17 2.54 2.53 1.69 4.34 3.93 5.43 6.72 1.09 2.78 1.61 5.83 1.55 9.13-.04 3.69-.82 6.8-2.33 9.33-1.52 2.53-3.62 4.44-6.28 5.74-2.66 1.3-5.71 1.95-9.16 1.95zm.25-7.73c2.21 0 3.74-.82 4.6-2.44.86-1.62 1.28-4.07 1.28-7.35 0-1.85-.17-3.56-.53-5.09-.35-1.54-.94-2.77-1.76-3.69-.83-.91-1.96-1.37-3.41-1.37-2.25 0-3.81.82-4.68 2.45-.88 1.63-1.32 4.01-1.32 7.15 0 1.9.19 3.63.55 5.2.36 1.56.95 2.81 1.8 3.75.85.92 2 1.39 3.47 1.39zm28.48 7.73L405.78 74h10.9l3.16 13.94 2.97 14.36h-2.35l3.34-14.36L427.88 74h10.04L442 87.94l3.09 14.29h-2.22l2.91-14.29L449.06 74h10.4l-10.9 34.98h-9.78l-5.01-16.96L431.54 81h1.85l-2.29 11.02-4.83 16.96h-10.15zM78.11 73.89c-1.49-2.38-4.28-5.59-4.28-8.37 0-1.57 1.24-3.62 3.01-4.08-.2-3.25-.28-5.34-.16-8.6.41-4.58 3.19-8.71 7.14-11.05 1.13-.71 2.36-1.27 3.61-1.72 2.29-.83 1.64-3.77 4.15-3.82 5.86-.15 15.04 4.29 18.81 8.36a14.89 14.89 0 0 1 3.83 9.64l-.23 7.59c1.04.25 2.21 1.06 2.46 2.11.8 3.23-2.56 7.27-4.12 9.85-.88 1.44-3.26 5.19-4.99 7.92-1.11 1.74-2.48 2.9-1.77 4.84-2.48 4.36-3.9 9.39-3.9 14.75 0 5.37 1.42 10.43 3.91 14.79H52.54c0-25.11 27.59-21.73 31.91-29.08 1.31-2.23-.05-3.25-1.3-5.22-1.91-3.02-4.67-7.33-5.04-7.91zm404.27-62.27H29.62c-4.95 0-9.46 2.03-12.71 5.29a17.93 17.93 0 0 0-5.29 12.71V137.9c0 4.94 2.04 9.44 5.3 12.69 3.27 3.27 7.79 5.31 12.7 5.31h452.76c4.9 0 9.41-2.05 12.68-5.32 3.27-3.27 5.32-7.77 5.32-12.68V29.62c0-4.91-2.04-9.43-5.31-12.7-3.26-3.26-7.76-5.3-12.69-5.3z"/><path fill="#F44336" d="M131.65 77.29c13.26 0 24.02 10.75 24.02 24.02 0 13.26-10.76 24.02-24.02 24.02s-24.02-10.76-24.02-24.02c0-13.27 10.76-24.02 24.02-24.02zm13.27 19.77v8.49h-26.55v-8.49h26.55z"/></svg>