<svg xmlns="http://www.w3.org/2000/svg" shape-rendering="geometricPrecision" text-rendering="geometricPrecision" image-rendering="optimizeQuality" fill-rule="evenodd" clip-rule="evenodd" viewBox="0 0 512 154.28"><path fill-rule="nonzero" d="M93.61 68.05c-1.37-2.19-3.94-5.15-3.94-7.71 0-1.45 1.14-3.33 2.77-3.75-.18-2.99-.26-4.92-.14-7.92.38-4.23 2.93-8.02 6.57-10.18 1.04-.66 2.17-1.17 3.33-1.59 2.1-.76 1.51-3.47 3.82-3.52 5.4-.13 13.85 3.96 17.31 7.71 2.21 2.43 3.46 5.59 3.54 8.87l-.22 6.99c.96.23 2.04.98 2.27 1.94.74 2.98-2.36 6.7-3.8 9.07-.81 1.33-3 4.79-4.59 7.3-1.02 1.6-2.29 2.67-1.64 4.46a27.509 27.509 0 0 0-3.58 13.58c0 4.95 1.31 9.6 3.6 13.62H70.06c0-23.12 25.41-20.01 29.39-26.78 1.21-2.06-.05-2.99-1.2-4.81-1.76-2.78-4.3-6.75-4.64-7.28zM77.14 0h357.72c21.21 0 40.49 8.69 54.46 22.67C503.31 36.65 512 55.96 512 77.14c0 21.16-8.7 40.45-22.7 54.44-13.97 14-33.27 22.7-54.44 22.7H77.14c-21.17 0-40.47-8.69-54.45-22.67C8.69 117.63 0 98.35 0 77.14c0-21.19 8.68-40.48 22.66-54.46C36.67 8.68 55.95 0 77.14 0zm357.72 10.71H77.14c-18.28 0-34.89 7.48-46.91 19.5-12.04 12.04-19.52 28.65-19.52 46.93 0 18.25 7.49 34.86 19.53 46.89 12.04 12.05 28.66 19.54 46.9 19.54h357.72c18.22 0 34.83-7.5 46.88-19.55 12.06-12.03 19.55-28.65 19.55-46.88 0-18.23-7.49-34.85-19.54-46.9-12.04-12.04-28.64-19.53-46.89-19.53zm-225.74 89.66c-4.37 0-7.87-.76-10.49-2.28-2.62-1.52-4.52-3.65-5.68-6.39-1.15-2.73-1.73-5.93-1.73-9.58l.11-24.57h10.55l-.11 23.32c-.03 2.96.24 5.24.78 6.85.55 1.6 1.35 2.72 2.43 3.33 1.07.62 2.39.94 3.97.94 1.6 0 2.93-.32 3.99-.97 1.07-.65 1.86-1.78 2.39-3.39.53-1.62.8-3.87.8-6.76V57.55h10.49V82.3c0 5.66-1.38 10.09-4.17 13.28-2.78 3.19-7.23 4.79-13.33 4.79zm24.86-.46V68.15h9.41l.23 3.71c.66-.67 1.54-1.31 2.62-1.94 1.08-.63 2.29-1.15 3.62-1.56 1.33-.42 2.71-.64 4.13-.66 3.23-.06 5.65.82 7.27 2.63 1.62 1.82 2.42 5.01 2.42 9.57v20.01h-10.31V81.78c0-2.32-.3-3.91-.89-4.78-.58-.86-1.64-1.26-3.16-1.2-.5 0-1.05.07-1.66.22-.6.15-1.2.38-1.8.69-.6.3-1.14.68-1.62 1.14v22.06h-10.26zm39.01 0V74.94h-3.94v-5.99l3.94-.8v-3.24c0-2.29.35-4.19 1.08-5.73.72-1.52 1.69-2.73 2.89-3.62 1.21-.9 2.54-1.55 4-1.93 1.45-.39 2.89-.58 4.34-.58 1.64 0 2.98.07 4.04.23s1.76.3 2.12.39v7.07c-.36-.17-.89-.33-1.57-.47-.69-.14-1.53-.21-2.53-.21-1.21 0-2.16.41-2.89 1.23-.74.81-1.11 2.15-1.11 4.02v2.84h6.9v6.79h-6.9v24.97h-10.37zm35.41.46c-2.93 0-5.41-.46-7.45-1.36-2.05-.91-3.69-2.14-4.92-3.72-1.24-1.57-2.13-3.39-2.69-5.43-.55-2.04-.81-4.2-.79-6.48.05-3.38.78-6.23 2.19-8.55 1.41-2.32 3.34-4.08 5.79-5.28 2.45-1.19 5.27-1.79 8.44-1.79 3.91 0 7.04.77 9.37 2.33 2.32 1.56 3.99 3.62 4.99 6.19 1.01 2.57 1.49 5.37 1.43 8.41-.04 3.4-.75 6.26-2.15 8.59-1.39 2.33-3.33 4.09-5.78 5.29-2.45 1.2-5.26 1.8-8.43 1.8zm.22-7.13c2.04 0 3.45-.75 4.24-2.24.79-1.49 1.18-3.75 1.18-6.77 0-1.71-.16-3.28-.48-4.69-.33-1.42-.87-2.55-1.63-3.39-.76-.85-1.8-1.27-3.14-1.27-2.07 0-3.5.75-4.31 2.26-.81 1.5-1.21 3.69-1.21 6.58 0 1.75.17 3.35.5 4.79.33 1.44.88 2.59 1.66 3.45.78.86 1.85 1.28 3.19 1.28zm21.16 6.67V53.62h10.32v46.29h-10.32zm17.45 0V53.62h10.32v46.29h-10.32zm31.19.46c-2.93 0-5.41-.46-7.45-1.36-2.04-.91-3.69-2.14-4.92-3.72-1.24-1.57-2.13-3.39-2.68-5.43-.55-2.04-.82-4.2-.8-6.48.06-3.38.79-6.23 2.2-8.55 1.4-2.32 3.33-4.08 5.78-5.28 2.45-1.19 5.27-1.79 8.44-1.79 3.92 0 7.05.77 9.37 2.33 2.33 1.56 3.99 3.62 5 6.19 1 2.57 1.48 5.37 1.42 8.41-.03 3.4-.75 6.26-2.14 8.59-1.4 2.33-3.33 4.09-5.78 5.29-2.45 1.2-5.26 1.8-8.44 1.8zm.23-7.13c2.03 0 3.45-.75 4.24-2.24.79-1.49 1.18-3.75 1.18-6.77 0-1.71-.16-3.28-.49-4.69-.32-1.42-.87-2.55-1.62-3.39-.76-.85-1.81-1.27-3.14-1.27-2.07 0-3.51.75-4.31 2.26-.81 1.5-1.22 3.69-1.22 6.58 0 1.75.17 3.35.51 4.79.33 1.44.88 2.59 1.66 3.45.77.86 1.84 1.28 3.19 1.28zm26.23 7.13-9.52-32.22h10.03l2.91 12.83 2.74 13.23h-2.17l3.08-13.23 3.76-12.83h9.24l3.76 12.83 2.85 13.17h-2.05l2.68-13.17 3.02-12.83h9.58l-10.03 32.22h-9.01l-4.62-15.62-2.05-10.15h1.71l-2.11 10.15-4.45 15.62h-9.35z"/><path fill="#F44336" d="M142.91 71.18c12.22 0 22.12 9.9 22.12 22.12 0 12.21-9.9 22.11-22.12 22.11-12.21 0-22.11-9.9-22.11-22.11 0-12.22 9.9-22.12 22.11-22.12zm12.23 18.21v7.82h-24.46v-7.82h24.46z"/></svg>