<svg id="Layer_1" data-name="Layer 1" xmlns="http://www.w3.org/2000/svg" viewBox="0 0 425.18 505.98"><defs><style>.cls-1{fill:#300;}.cls-2{fill:#ffbe00;}</style></defs><title>ups</title><path class="cls-1" d="M63.27,418.06C27.33,388.63,8.35,346.28,8.35,295.7V55.27C65.1,25.18,133.81,9.94,212.59,9.94s147.5,15.24,204.24,45.33V295.7c0,50.58-19,92.9-54.92,122.36C329,445,224.58,490.84,212.58,496.05,200.6,490.84,96.14,445,63.27,418.06Z"/><path class="cls-2" d="M405.64,52.44c-26.25-2.44-53.53-4-81.31-4-103,0-213.48,22.15-304.79,105.9V297.45c0,46.62,17.24,85.56,50,112.26,28.93,23.54,118,63.85,143.05,74.93,24.78-10.91,113.57-50.69,143-74.93,33-27.16,50-65.2,50-112.26v-245M38.41,282.55V166.29h37v117.9c0,10.5,2.53,26,19.49,26a31,31,0,0,0,17.46-4.56V166.29h36.92V326.75A98.31,98.31,0,0,1,93.52,341.6c-36.59,0-55.15-19.86-55.15-59.05m166.9,134.2h-37v-241a89.31,89.31,0,0,1,49.85-13.15c44.15,0,68.41,33.49,68.41,87.41S263,341,221.93,341a58.84,58.84,0,0,1-16.65-2.1Zm0-108.12a35.15,35.15,0,0,0,12,2.24c21.26,0,31.45-19.54,31.45-60,0-41.43-8.89-58.56-30.37-58.56a32.22,32.22,0,0,0-13.1,2.66Zm89.65-97.88a49.09,49.09,0,0,1,49.63-48.2,63.32,63.32,0,0,1,40.58,12v32.17A49.52,49.52,0,0,0,352,191.54c-10.49-.09-21.4,4.52-21.75,17.67-.36,13.46,10.53,18.78,24.29,26.87,30.9,18.16,36.87,34.48,36.16,56-.71,23.66-17,49.48-53.55,49.48a80.94,80.94,0,0,1-40.66-11.48V296.07a58.92,58.92,0,0,0,35.35,15.05c13.57.06,22.5-7.71,22.18-20.61-.28-11.61-6.84-17.92-23.11-27.48-30.49-17.89-36-32.61-36-52.28m-237.73,214C19.74,394.14,0,350.1,0,297.45V47.18C59.06,15.87,130.59,0,212.59,0S366.12,15.87,425.18,47.18V297.45c0,52.65-19.74,96.69-57.17,127.35-34.21,28-142.94,75.75-155.42,81.18C200.11,500.55,91.38,452.84,57.16,424.79Zm291.13,52.46V499h3.92V489.9h.55c.3.44,5.9,9.07,5.9,9.07h4.74s-5.95-8.71-6.56-9.53a5.78,5.78,0,0,0,4.81-5.77,6.32,6.32,0,0,0-6.2-6.45,5.94,5.94,0,0,0-1,.06Zm5.71,3.17c3.33,0,3.79,1.63,3.79,3,0,2-.87,3.41-5.07,3.41h-.51V480.4Zm15.33,7.74a14.71,14.71,0,1,1-14.72-14.73,14.69,14.69,0,0,1,14.72,14.73v0m-14.76-17.88a17.85,17.85,0,1,0,17.87,17.88,17.86,17.86,0,0,0-17.87-17.88"/></svg>