<?xml version="1.0" encoding="UTF-8"?>
<!DOCTYPE svg PUBLIC "-//W3C//DTD SVG 1.1//EN" "http://www.w3.org/Graphics/SVG/1.1/DTD/svg11.dtd">
<!-- Creator: CorelDRAW 2021 (64-Bit) -->
<svg xmlns="http://www.w3.org/2000/svg" xml:space="preserve" width="512px" height="94px" version="1.1" shape-rendering="geometricPrecision" text-rendering="geometricPrecision" image-rendering="optimizeQuality" fill-rule="evenodd" clip-rule="evenodd"
viewBox="0 0 512 94.33"
 xmlns:xlink="http://www.w3.org/1999/xlink"
 xmlns:xodm="http://www.corel.com/coreldraw/odm/2003">
 <g id="Layer_x0020_1">
  <metadata id="CorelCorpID_0Corel-Layer"/>
  <path fill="#0078D4" fill-rule="nonzero" d="M184.9 75.25l-11.64 0 -11.35 -43.21 -11.48 43.21 -11.9 0 -15.6 -56.16 10.56 0 11.25 44.67 12.29 -44.67 10.66 0 11.55 44.93 10.69 -44.93 10.2 0 -15.23 56.16zm327.1 -57.8l0 57.8 -9.65 0 0 -46.11c0,0 -3.31,3.06 -11.81,5.28l0 -8.23c12.63,-4.67 17.16,-8.74 17.16,-8.74l4.3 0zm-462.38 76.88l44.71 0 0 -44.71 -44.71 0 0 44.71zm-49.62 0l44.71 0 0 -44.71 -44.71 0 0 44.71zm49.62 -49.62l44.71 0 0 -44.71 -44.71 0 0 44.71zm-49.62 0l44.71 0 0 -44.71 -44.71 0 0 44.71zm483.49 -27.26l0 57.8 -9.66 0 0 -46.11c0,0 -3.31,3.06 -11.8,5.28l0 -8.23c12.62,-4.67 17.16,-8.74 17.16,-8.74l4.3 0zm-37.12 46.53c0,9.01 -8.18,12.53 -16.37,12.53 -5.33,0 -10.64,-2.06 -10.64,-2.06l0 -9.58c0,0 4.61,4.02 11.06,4.07 4.43,0 6.42,-1.4 6.42,-4.05 0.11,-2.13 -1.19,-3.3 -2.74,-4.18 -1.07,-0.64 -2.73,-1.43 -5,-2.36 -2.66,-1.15 -4.64,-2.25 -5.95,-3.32 -1.28,-1.06 -2.23,-2.32 -2.88,-3.75 -0.61,-1.44 -1.06,-3.02 -1.06,-4.94 0,-7.28 6.07,-12.42 15.77,-12.42 6.41,0 9.19,1.57 9.19,1.57l0 9.11c0,0 -4.56,-3.15 -9.29,-3.18 -3.39,0 -5.96,1.24 -6,4.03 -0.03,3.6 4.38,5.36 7.02,6.43 3.83,1.54 6.64,3.19 8.21,5.08 1.57,1.89 2.26,3.8 2.26,7.02zm-41.24 11.27l-10.41 0 -7.96 -29.29 -8.54 29.29 -10.11 0 -11.77 -40.35 9.88 0 7.69 31.35 8.98 -31.35 9.27 0 8.01 31.26 7.5 -31.26 9.06 0 -11.6 40.35zm-50.64 -20.42c0,14.02 -8.38,21.62 -20.96,21.62 -13.69,0 -20.7,-8.2 -20.7,-20.74 0,-14.35 8.4,-21.81 21.7,-21.81 12.17,0 19.96,7.78 19.96,20.93l0 0zm-9.83 0.32c0,-6.23 -2.21,-13.17 -10.65,-13.17 -8.1,0 -11.25,6.03 -11.25,13.41 0,8.02 3.78,13.13 11.19,13.13 7.93,0 10.65,-6.09 10.71,-13.37zm-48.04 20.1l0 -5.21 -0.16 0c-2.93,4.93 -8.92,6.06 -13.08,6.06 -12.4,0 -16.95,-9.63 -16.95,-19.87 0,-6.79 1.7,-12.23 5.08,-16.3 3.41,-4.1 7.96,-5.88 13.66,-5.88 8.88,0 11.29,4.94 11.29,4.94l0.16 0 0 -23.42 9.57 0 0 59.68 -9.57 0zm0.08 -23.06c0,-4.89 -3.15,-10.45 -9.78,-10.45 -7.58,0 -10.53,6.6 -10.53,14.21 0,6.64 2.78,12.67 10,12.77 7.09,0 10.25,-6.75 10.3,-12.33l0.01 -4.2zm-46.43 23.06l0 -22.54c0,-5.9 -1.83,-10.99 -7.78,-10.99 -5.92,0 -9.67,5.33 -9.67,10.72l0 22.81 -9.23 0 0 -40.48 9.23 0 0 5.73 0.16 0c3.06,-4.74 7.49,-6.41 13.27,-6.41 4.34,0 7.69,1.07 10.07,3.84 2.39,2.77 3.45,6.98 3.45,12.63l0 24.69 -9.5 0zm-35.22 -52.05c0,1.51 -0.56,2.78 -1.68,3.79 -1.09,1.01 -2.42,1.52 -3.99,1.52 -1.58,0 -2.91,-0.51 -4,-1.52 -1.09,-1.01 -1.64,-2.28 -1.64,-3.79 0,-1.55 0.55,-2.84 1.64,-3.88 1.12,-1.04 2.45,-1.56 4,-1.56 1.62,0 2.97,0.54 4.03,1.6 1.09,1.07 1.64,2.34 1.64,3.84l0 0zm-10.53 52.05l0 -40.48 9.44 0 0 40.48 -9.44 0z"/>
 </g>
</svg>
