<svg xmlns="http://www.w3.org/2000/svg" shape-rendering="geometricPrecision" text-rendering="geometricPrecision" image-rendering="optimizeQuality" fill-rule="evenodd" clip-rule="evenodd" viewBox="0 0 512 94.4"><path fill="#0078D6" fill-rule="nonzero" d="m0 13.47 38.47-5.28v37.18H0v-31.9zm43.1-6.03L94.08 0v45.05H43.1V7.44zM0 49.29h38.47v37.29L0 81.19v-31.9zm43.1.5h50.98V94.4L43.1 87.18V49.79zm79.75-31.47 7.28.04 11.32 41.06c.81 2.87 1.4 5.8 1.77 8.77 3.94-16.81 9.33-33.19 13.9-49.78l6.3.02 9.74 35.56c1.22 4.72 2.8 9.38 3.29 14.22 3.56-16.81 8.65-33.19 12.72-49.78l7.17-.03-15.95 57.11h-7.75L161.1 34.45c-.64-2.21-.91-4.49-1.12-6.79-.3 1.98-.58 3.97-1.07 5.9l-11.64 41.81c-2.59.14-5.17.15-7.76.13l-16.6-57.11-.06-.07zm77.59.43a4.31 4.31 0 0 1 4.28-3.77 4.31 4.31 0 0 1 0 8.62 4.31 4.31 0 0 1-4.28-3.77v-1.08zm.97 15.73h6.46v40.95h-6.46V34.48zm23.88 6.6c3.69-6.57 12.32-9.61 19.27-6.57 5.52 2.15 7.58 8.55 7.75 14.01.31 8.96.06 17.94.13 26.9-2.15 0-4.31 0-6.46-.01-.11-8.62.21-17.24-.15-25.86-.17-4.27-1.98-9.4-6.63-10.49-6.79-2.04-13.54 4.07-13.76 10.78-.19 8.51-.01 17.06-.08 25.58h-6.46V34.48h6.46l-.08 6.6h.01zm65.67-25.99h6.46v60.34h-6.44l-.18-6.57c-4.67 8.38-17.14 10.24-24.25 4.02-5.1-4.39-6.65-11.53-6.38-18 .05-6.55 2.21-13.47 7.44-17.78 6.79-5.58 18.75-5.26 23.49 2.95l-.04-25.01-.1.05zm-13.81 23.77c-5.17.82-8.67 5.54-9.64 10.42-1.27 5.88-1.05 12.72 2.66 17.67 4.01 5.33 12.82 5.44 17.14.41 2.91-3.04 3.75-7.39 3.77-11.42.03-4.31.4-9.16-2.46-12.72-2.52-3.58-7.22-5.2-11.42-4.31l-.05-.05zm45.06-5.33c5.76-.51 12.18.39 16.49 4.56 4.89 4.53 6.35 11.53 6.07 17.89-.07 5.77-2.2 11.64-6.43 15.63-8.81 8.02-25.22 6.25-30.82-4.76-4.4-9.24-3.51-21.99 4.53-28.99 2.87-2.44 6.52-3.56 10.13-4.36l.03.03zm-1.2 5.84c-9.48 2.91-11.1 15.3-8.13 23.49 2.37 7.24 11.53 10.45 18.21 7.07 4.47-2.05 6.51-7.12 6.94-11.75.48-5.39.05-11.53-3.77-15.73-3.24-3.64-8.71-4.42-13.26-3.09l.01.01zm27.06-4.89h6.75l7.97 29.32c.54 1.83.76 3.73.95 5.62 3.05-11.75 6.9-23.28 10.37-34.91l5.89.03c2.97 11.64 6.65 23.06 9.11 34.91 2.53-11.63 6.14-23.17 8.94-34.7 2.16-.1 4.33-.14 6.51-.16l-12.18 40.95h-6.7c-2.91-11.1-6.68-21.98-9.05-33.19-2.8 11.21-6.71 22.09-9.92 33.19h-6.46l-12.18-40.95v-.11zm72.2-1.07c4.04-.28 8.16.11 11.97 1.59 1.05 2.01.23 4.64.48 6.9-4.53-2.84-10.78-4.63-15.73-1.76-3.38 1.83-3.54 7.25-.25 9.27 4.71 3.05 10.69 3.85 14.87 7.76 4.61 4.44 3.49 12.93-1.91 16.27-6.57 4.18-15.19 3.77-22.09.58l-.05-7.24c4.89 3.73 11.74 5.8 17.67 3.15 3.42-1.73 3.59-6.96.58-9.16-4.71-3.47-11.21-4.02-15.3-8.35-4.13-4.16-3.38-11.86 1.22-15.31 2.37-2.18 5.6-2.84 8.62-3.69l-.08-.01zm45.26-15.95 2.27-.33v58.3h-6.38l.07-48.6c-4.06 2.81-8.45 5.22-13.25 6.56l.07-6.47c6.25-2.12 11.96-5.55 17.14-9.55l.08.09zm25.87-.11c5.6-.94 11.85 1.11 15.19 5.87 4.74 6.68 5.17 15.31 5.41 23.17-.16 8.34-1.08 17.35-6.4 24.14-4.9 6.43-14.98 7.94-21.55 3.21-5.34-3.84-7.44-10.56-8.38-16.81-1.07-9.23-.97-18.96 2.24-27.69 2.02-5.98 7.02-11.1 13.47-11.86l.02-.03zm-1.02 5.82c-5.74 2.33-7.39 9.12-8.19 14.65-.84 7.7-1.03 15.63.8 23.17.92 3.73 2.85 7.69 6.54 9.32 4.21 2.12 9.81.3 11.96-3.84 3.53-6.09 3.61-13.37 3.67-20.26-.14-6.68-.41-13.8-4.1-19.61-2.18-3.54-6.89-4.96-10.71-3.43h.03zm0 0z"/></svg>