<svg xmlns="http://www.w3.org/2000/svg" viewBox="0 0 479.73 440.98"><defs><style>.a{fill:#cb171e;}</style></defs><title>yaml</title><polygon points="220.93 0 134.9 129 134.9 210.77 82.17 210.77 82.17 129 0 0 59.26 0 111.52 83.06 164.2 0 220.93 0 220.93 0"/><path class="a" d="M309.48,164.39H214l-19.42,46.87H152.36L241.73.49H285L370.7,211.26H325.54l-16.06-46.87Zm-15.86-42.08L264.37,45l-32.65,77.34Z"/><polygon points="82.17 234.41 82.17 440.99 126.5 440.99 126.5 298.49 172.88 394.27 207.77 394.27 255.74 295.13 255.74 440.94 298.26 440.94 298.26 234.41 240.2 234.41 188.69 327.83 139.63 234.41 82.17 234.41 82.17 234.41"/><polygon points="479.73 396.09 370.7 396.09 370.7 234.36 325.54 234.36 325.54 440.05 479.73 440.05 479.73 396.09 479.73 396.09"/></svg>