<svg xmlns="http://www.w3.org/2000/svg" viewBox="0 0 107.87 122.88"><defs><style>.a{fill:#00a62a;fill-rule:evenodd;}</style></defs><title>aloevera</title><path class="a" d="M56.46,122.71c-11.17,1.08-22.56-3-29.4-13.13,12.6,1.9,27.73-10.4,41.94-25l-.17-3,1.89,1.18c1.07-1.11,2.12-2.24,3.17-3.37l-.2-3.49,2.17,1.36q1.38-1.5,2.73-3l-.22-3.91,2.39,1.5L83,69.38l-.21-3.63L85,67.13l1.35-1.51-.22-3.72,2.26,1.41,2.65-3-.27-4.64,2.84,1.78,1.49-1.63-.29-5,3.15,2L99.62,51l-.24-4.11,2.69,1.68q.68-.65,1.32-1.23l-.22-3.7,2.6,1.62c1.09-1.3,2.8-.83,1.79,1.36-3.68,12-7.37,24.14-11.89,35.13-7.86,19.09-15.68,38.69-39.21,41ZM44.42,33l-2.17.8L44,35.86a41.77,41.77,0,0,0-.1,10.86c.7,4.47,3.89,10,5.77,14.39l2.43,5.65c1.39,4.62,2.81,3.17,4.07.17,2.14-5.11,3.51-10,5.92-15.42a41.77,41.77,0,0,0,1.31-15.09l2.27-2.62-2.65-1q-.29-2.19-.69-4.38l2.74-3.15-3.67-1.35c-.24-1-.49-2.08-.75-3.11l2.39-2.75L59.62,16.8c-.3-1.09-.61-2.16-.92-3.23l2.35-2.7-3.52-1.3-.8-2.7-.12-.43L59,3.66,55.42,2.33C55,1.15,54.44-.12,53.58,0c-.46.06-.88.63-1.27,1.7-.72,2.27-1.58,5-2.47,8.08l-2.93,1.08,2,2.27c-.35,1.25-.7,2.54-1,3.85l-3,1.09L47,20.47c-.3,1.2-.58,2.41-.85,3.62l-3.26,1.2,2.43,2.79c-.33,1.66-.62,3.31-.86,4.92ZM60.85,67l-2.6.16L59.55,70c-2.7,6.28-5.38,12.58-8.11,18.82-1.12,9.32,8.57,1,17.68-9.3C85,61.57,84.24,54,85.68,31.63c.89-13.86,1.79-17.7-4.29-8.41q-1,1.84-2,3.72l-4,.25,1.82,4-.74,1.47-3.53.22,1.64,3.62c-.31.63-.61,1.26-.91,1.89l-3.18.2L72,41.93c-.35.74-.69,1.47-1,2.21L68,44.32l1.41,3.11-1.09,2.43L65.59,50l1.35,3-1.13,2.56-2.67.17,1.32,2.9-1.15,2.65-2.61.16L62,64.32,60.85,67ZM44.6,63.1l2.19.14-1.08,2.39c2.15,4.77,5.11,11.1,4.75,15.47a8.69,8.69,0,0,1-3.18,6.15,83.88,83.88,0,0,1-12.22-12C24.25,62.16,24.88,58.87,23.28,43L21.17,22c-.39-2.37-.34-3.8.21-4.14,1.17-.71,3.54,3.9,4.26,5.21l4,.25-1.73,3.82c.3.56.6,1.12.89,1.68L32.1,29l-1.5,3.31c.37.74.73,1.48,1.09,2.22l2.86.18-1.35,3,1.2,2.57,2.6.16-1.25,2.75L37.07,46l2.38.15-1.14,2.5c.35.71.69,1.43,1,2.15l.39.92,2.16.14L40.82,54.2l1.35,3.19,2.17.14-1.09,2.4L44.6,63.1ZM37.39,82.6,40.16,82l-.43,3.1L45.34,91c4.8,4,3.69,7.6-1.53,11C34.22,108.28,26.1,108.21,19,98c-4.57-6.55-7.77-18.75-10.46-26.62L.27,47.12c-.91-2.52.66-2.61,1.81-1.7l.9.95,3.55-.81-.55,4,1.33,1.4,3.4-.78L10.18,54l1.45,1.53,3.25-.74-.5,3.63,1.26,1.32,4-.91L19,63.23l1.1,1.15,3.71-.85-.57,4.16,1.18,1.24,3.22-.74-.5,3.6,1.61,1.7,3.07-.71-.48,3.44L33.06,78,36,77.37l-.45,3.27,1.86,2Z"/></svg>