<svg xmlns="http://www.w3.org/2000/svg" shape-rendering="geometricPrecision" text-rendering="geometricPrecision" image-rendering="optimizeQuality" fill-rule="evenodd" clip-rule="evenodd"
viewBox="0 0 512 217.42">
 <g id="Layer_x0020_1">
  <g id="_2114587032832">
   <path fill="#633816" fill-rule="nonzero" d="M0.3 143.42l15.74 -49.14c0.16,-0.61 0.42,-1.2 0.77,-1.75 1.87,-2.91 5.75,-3.76 8.66,-1.89l66.02 42.51c40,7.35 80.48,13.2 121.57,17.06 41.36,3.9 83.42,5.8 126.33,5.24 28,-4.96 54.31,-10.48 79.33,-16.8 25.01,-6.32 48.8,-13.46 71.75,-21.64 1,-0.41 2.13,-0.56 3.28,-0.39 3.43,0.52 5.79,3.71 5.28,7.14l-7.53 49.42c-0.34,2.15 -1.78,4.07 -3.95,4.9 -20.57,7.97 -45.82,14.95 -73.36,21.35 -27.36,6.36 -57.08,12.17 -86.71,17.82 -0.36,0.06 -0.72,0.09 -1.1,0.1 -23.6,0.21 -47.07,-0.03 -70.32,-1 -23.44,-0.97 -46.67,-2.67 -69.6,-5.37l-114.04 -16.27c-0.87,-0.13 -1.72,-0.43 -2.5,-0.93l-67.04 -43.17c-2.33,-1.5 -3.47,-4.43 -2.58,-7.19z"/>
   <path fill="#572906" fill-rule="nonzero" d="M16.09 93.7l30.15 -79.03c0.95,-2.45 3.28,-4.22 6.06,-4.31l295.23 -10.35c1.54,-0.08 3.13,0.37 4.44,1.39 26.15,20.26 43.29,21.57 61.38,22.96 16.16,1.24 33.01,2.54 56.7,15.21 8.43,3.49 16.24,8 23.15,13.91 7.09,6.06 13.21,13.56 18.05,22.92 0.76,1.48 0.98,3.25 0.47,4.97l-12.65 42.71c-0.58,1.93 -2,3.58 -4.02,4.36 -20.48,7.96 -44,15.12 -69.75,21.69 -25.64,6.54 -53.69,12.55 -83.28,18.2 -0.4,0.07 -0.8,0.11 -1.21,0.11 -23.49,0.21 -46.84,-0.03 -69.97,-0.99 -23.38,-0.98 -46.52,-2.68 -69.3,-5.36l-113.42 -16.26c-0.93,-0.13 -1.84,-0.46 -2.68,-1l-66.45 -42.94c-2.79,-1.62 -4.08,-5.07 -2.9,-8.19z"/>
   <path fill="#D9AF87" d="M52.51 17.06l-30.14 79.03 66.69 43.1 113.27 16.23c45.49,5.37 91.77,6.75 138.43,6.32 58.77,-11.24 111.62,-23.9 151.88,-39.55l12.65 -42.71c-8.85,-17.11 -22.28,-27.35 -38.18,-33.87 -50.3,-27.02 -68.96,0.05 -119.23,-38.91l-295.37 10.36z"/>
   <polygon fill="#572906" fill-rule="nonzero" points="68.4,36.31 52.23,66.59 64.17,30.64 130.9,28.42 "/>
   <g>
    <path fill="#4C8E1E" d="M362.55 122.77c-3.86,1.48 -5.92,3.74 -6.26,6.75l94.18 -8.38c-2.76,-4.02 -7.33,-6.31 -15.22,-5.42l-0.15 0.02c0.61,-6.75 0.64,-13.14 -0.35,-18.9 -1.03,-6.04 -3.18,-11.4 -6.95,-15.77 -0.2,-0.25 -0.5,-0.41 -0.84,-0.44 -0.66,-0.04 -1.23,0.45 -1.27,1.11 -0.44,6.36 0.01,12.75 0.44,19.01l0.09 1.21c0.11,1.64 0.26,3 0.4,4.19 0.37,3.22 0.6,5.24 -0.63,8.82 -2.01,-8.03 -3.58,-16.13 -4.66,-24.36 -1.17,-8.81 -1.79,-17.78 -1.86,-26.99 -0.01,-0.66 -0.55,-1.19 -1.22,-1.19 -0.6,0.01 -1.09,0.46 -1.17,1.04 -1.07,5.75 -1.85,11.64 -2.3,17.69 -0.44,6.07 -0.55,12.29 -0.3,18.68 0,0.05 0.01,0.1 0.01,0.14l0.59 4.72c-3.17,-7.97 -6,-16.06 -7.62,-24.2 -2.16,-10.86 -2.19,-21.82 1.89,-32.74 0.24,-0.61 -0.08,-1.3 -0.7,-1.53 -0.52,-0.19 -1.09,0.01 -1.4,0.45l0 0c-4.58,6.75 -7.18,15.54 -7.75,26.41 -0.58,10.75 0.82,23.55 4.21,38.42 0.01,0.02 0.01,0.05 0.03,0.07l0 0 1.99 6.8 -8.73 0.77 0.93 -8.55 0 0c0.01,-0.03 0,-0.05 0.01,-0.08 0.84,-18.2 -0.22,-33.55 -3.15,-46.07 -2.97,-12.63 -7.86,-22.4 -14.65,-29.35l0 0c-0.38,-0.38 -0.98,-0.47 -1.46,-0.19 -0.57,0.34 -0.76,1.06 -0.42,1.63 7.15,12.03 9.43,24.98 9.18,38.27 -0.2,10.53 -2,21.27 -4.23,31.93l-0.4 -7.5c0,-0.04 -0.01,-0.09 -0.01,-0.14 -1.05,-7.57 -2.5,-14.87 -4.3,-21.91 -1.8,-7.02 -3.96,-13.79 -6.44,-20.32 -0.18,-0.56 -0.74,-0.92 -1.33,-0.81 -0.65,0.11 -1.09,0.72 -0.99,1.38 1.87,10.85 3.04,21.57 3.52,32.19 0.47,10.21 0.32,20.37 -0.4,30.54 -3.23,-4.86 -3.26,-7.38 -3.31,-11.85 -0.01,-1.19 -0.03,-2.52 -0.11,-4.18 -0.18,-3.93 -0.6,-7.89 -1.2,-11.82 -0.61,-4.07 -1.45,-8.13 -2.45,-12.14 -0.16,-0.64 -0.81,-1.02 -1.45,-0.86 -0.33,0.08 -0.59,0.3 -0.75,0.57 -3.48,5.9 -4.88,12.63 -4.81,19.92 0.06,7.19 1.52,14.92 3.77,22.96l0 0z"/>
    <path fill="#69C229" d="M428.38 115.37l4.37 -0.2c0.57,-6.41 0.58,-12.48 -0.35,-17.93 -0.77,-4.49 -2.18,-8.57 -4.48,-12.07 -0.12,5.14 0.24,10.32 0.59,15.42l0.09 1.2c0.11,1.59 0.25,2.92 0.39,4.09 0.39,3.47 0.64,5.68 -0.61,9.49l0 0zm-45.72 4.16l12.01 -1.07 0.89 -8.14 0 0c0.83,-17.94 -0.2,-33.05 -3.09,-45.34 -1.68,-7.13 -3.97,-13.31 -6.9,-18.54 3.32,9.18 4.45,18.71 4.26,28.41 -0.25,13.58 -3.11,27.46 -6.17,41.05 -0.11,0.51 -0.55,0.9 -1.1,0.93 -0.65,0.04 -1.21,-0.47 -1.25,-1.12l-0.86 -16.32c-1.03,-7.46 -2.46,-14.66 -4.24,-21.6 -0.67,-2.64 -1.4,-5.24 -2.17,-7.81 0.79,6.54 1.33,13.04 1.63,19.53 0.48,10.27 0.33,20.47 -0.39,30.67l7.38 -0.65 0 0 0 0zm-18.05 1.7l5.64 -0.74c-2.98,-4.8 -3.02,-7.53 -3.07,-12.14 -0.01,-1.23 -0.03,-2.62 -0.1,-4.1 -0.18,-3.83 -0.58,-7.71 -1.18,-11.58 -0.45,-2.96 -1.01,-5.91 -1.67,-8.82 -2.2,4.81 -3.1,10.18 -3.05,15.94 0.04,6.7 1.37,13.92 3.43,21.44l0 0zm43.32 -3.93l9.88 -0.88 0.01 0 5.94 -0.53c-2.07,-8.22 -3.68,-16.53 -4.8,-24.98 -0.62,-4.64 -1.08,-9.31 -1.4,-14.04 -0.15,1.48 -0.28,2.97 -0.39,4.46 -0.44,5.97 -0.55,12.09 -0.3,18.38l1.7 13.54c0.08,0.65 -0.38,1.25 -1.03,1.33 -0.55,0.07 -1.05,-0.24 -1.25,-0.72 -4.53,-10.74 -8.93,-21.75 -11.16,-32.91 -1.42,-7.16 -1.96,-14.38 -1.05,-21.62 -1.18,4.14 -1.92,8.76 -2.19,13.87 -0.56,10.52 0.81,23.07 4.14,37.69l0 0 1.9 6.41 0 0z"/>
   </g>
   <path fill="#4C8E1E" d="M105.47 121.22c-3.92,0.59 -6.32,2.29 -7.25,5.04l89.96 11.37c-1.77,-4.33 -5.59,-7.41 -13.16,-8.18l-0.15 -0.02c1.95,-6.19 3.29,-12.17 3.53,-17.77 0.27,-5.87 -0.65,-11.34 -3.29,-16.2 -0.14,-0.27 -0.38,-0.49 -0.7,-0.58 -0.61,-0.17 -1.24,0.17 -1.41,0.78 -1.71,5.87 -2.6,11.94 -3.47,17.9l-0.17 1.15c-0.22,1.56 -0.36,2.86 -0.47,4.01 -0.31,3.09 -0.51,5.04 -2.39,8.13 -0.25,-7.93 -0.06,-15.84 0.6,-23.77 0.71,-8.49 1.95,-17.03 3.76,-25.67 0.29,-1.37 -1.72,-1.95 -2.2,-0.62 -2.18,5.16 -4.11,10.52 -5.76,16.1 -1.66,5.59 -3.03,11.4 -4.1,17.44 -0.01,0.05 -0.01,0.09 -0.02,0.14l-0.41 4.54c-1.35,-8.12 -2.34,-16.28 -2.2,-24.23 0.19,-10.62 2.4,-20.9 8.45,-30.29 0.73,-1.12 -0.76,-2.36 -1.75,-1.44l0 0c-5.67,5.39 -9.89,13.09 -12.65,23.16 -2.73,9.95 -4.04,22.23 -3.89,36.86 0,0.02 0,0.04 0.01,0.07l0 0 0.48 6.77 -8.34 -1.05 2.62 -7.83 0 0c0.01,-0.02 0.01,-0.04 0.02,-0.07 4.51,-16.88 6.65,-31.48 6.45,-43.8 -0.21,-12.44 -2.79,-22.59 -7.74,-30.49l0 0c-0.7,-1.13 -2.48,-0.31 -2.05,0.96 4.24,12.73 3.74,25.33 0.79,37.73 -2.34,9.82 -6.21,19.52 -10.48,29.05l1.16 -7.1c0.01,-0.05 0.01,-0.09 0.02,-0.14 0.56,-7.31 0.69,-14.44 0.44,-21.4 -0.25,-6.95 -0.9,-13.73 -1.88,-20.36 -0.14,-1.39 -2.21,-1.34 -2.29,0.06 -0.47,10.56 -1.56,20.83 -3.28,30.88 -1.64,9.66 -3.85,19.15 -6.61,28.53 -2.02,-5.21 -1.54,-7.57 -0.67,-11.77 0.23,-1.12 0.48,-2.37 0.75,-3.94 0.62,-3.72 1.04,-7.52 1.29,-11.32 0.25,-3.94 0.3,-7.92 0.17,-11.87 -0.03,-1.04 -1.32,-1.49 -2,-0.72 -4.47,4.81 -7.14,10.83 -8.58,17.68 -1.41,6.74 -1.61,14.29 -1.14,22.28l0 0z"/>
   <path fill="#69C229" d="M168.65 127.72l4.14 0.7c1.84,-5.89 3.09,-11.57 3.33,-16.87 0.2,-4.37 -0.3,-8.47 -1.74,-12.22 -1.16,4.79 -1.88,9.71 -2.59,14.56l-0.16 1.15c-0.22,1.51 -0.36,2.78 -0.47,3.91 -0.34,3.33 -0.55,5.45 -2.51,8.77l0 0zm-43.68 -5.44l11.47 1.45 2.5 -7.44 0 0c4.44,-16.64 6.55,-31.01 6.35,-43.11 -0.11,-7.03 -1,-13.29 -2.68,-18.78 1.23,9.27 0.35,18.44 -1.8,27.48 -3.02,12.68 -8.53,25.1 -14.16,37.21 -0.21,0.45 -0.7,0.73 -1.22,0.65 -0.62,-0.11 -1.04,-0.69 -0.94,-1.31l2.52 -15.47c0.56,-7.2 0.69,-14.23 0.44,-21.1 -0.1,-2.61 -0.25,-5.19 -0.45,-7.76 -0.59,6.29 -1.41,12.49 -2.45,18.63 -1.65,9.72 -3.88,19.25 -6.63,28.66l7.05 0.89 0 0 0 0zm-17.26 -2.08l5.44 0.45c-1.82,-5.1 -1.3,-7.67 -0.4,-12 0.24,-1.16 0.5,-2.46 0.74,-3.86 0.61,-3.63 1.03,-7.35 1.26,-11.09 0.18,-2.87 0.26,-5.74 0.23,-8.61 -3.04,4.06 -4.97,8.91 -6.11,14.32 -1.32,6.29 -1.56,13.32 -1.16,20.79l0 0zm41.39 5.15l9.43 1.19 0.02 0 5.67 0.72c-0.27,-8.12 -0.07,-16.24 0.6,-24.38 0.37,-4.48 0.88,-8.95 1.55,-13.44 -0.44,1.36 -0.87,2.72 -1.27,4.1 -1.63,5.5 -2.99,11.21 -4.03,17.15l-1.18 13.04c-0.05,0.63 -0.61,1.09 -1.24,1.04 -0.52,-0.06 -0.93,-0.44 -1.01,-0.94 -2.06,-10.99 -3.93,-22.19 -3.74,-33.1 0.12,-7.01 1.09,-13.88 3.42,-20.48 -1.95,3.64 -3.58,7.82 -4.88,12.55 -2.67,9.74 -3.95,21.78 -3.81,36.16l0 0 0.47 6.39 0 0z"/>
   <path fill="#4C8E1E" d="M244.39 135.85c-3.48,0.99 -5.46,2.81 -5.98,5.41l82.83 0c-2.09,-3.72 -5.91,-6.08 -12.86,-5.91l-0.13 0c1.05,-5.83 1.58,-11.41 1.16,-16.51 -0.43,-5.36 -1.89,-10.2 -4.84,-14.31 -0.15,-0.23 -0.4,-0.4 -0.7,-0.44 -0.57,-0.09 -1.11,0.29 -1.19,0.87 -0.88,5.51 -0.99,11.12 -1.1,16.62l-0.02 1.06c-0.02,1.44 0,2.64 0.03,3.69 0.08,2.83 0.12,4.62 -1.23,7.64 -1.14,-7.16 -1.87,-14.35 -2.18,-21.62 -0.33,-7.77 -0.18,-15.65 0.47,-23.69 0.05,-0.58 -0.38,-1.08 -0.96,-1.13 -0.53,-0.04 -0.99,0.31 -1.11,0.82 -1.38,4.92 -2.52,10.01 -3.38,15.25 -0.86,5.26 -1.44,10.68 -1.71,16.28 0,0.04 0,0.08 0,0.12l0.14 4.17c-2.15,-7.21 -3.98,-14.49 -4.76,-21.71 -1.05,-9.65 -0.23,-19.22 4.19,-28.43 0.25,-0.51 0.03,-1.14 -0.49,-1.38 -0.45,-0.21 -0.96,-0.09 -1.26,0.28l0 0c-4.53,5.53 -7.47,13 -8.82,22.44 -1.33,9.34 -1.11,20.62 0.69,33.86 0,0.02 0.01,0.04 0.02,0.06l0 0 1.21 6.08 -7.68 0 1.48 -7.39 0 0c0.01,-0.02 0.01,-0.04 0.01,-0.07 2.15,-15.81 2.42,-29.29 0.83,-40.44 -1.61,-11.25 -5.11,-20.16 -10.5,-26.75l0 0c-0.3,-0.36 -0.82,-0.49 -1.26,-0.28 -0.52,0.25 -0.74,0.87 -0.49,1.39 5.3,11.05 6.29,22.53 5.03,34.11 -0.99,9.17 -3.39,18.4 -6.17,27.53l0.24 -6.57c0,-0.04 0,-0.09 0,-0.13 -0.33,-6.69 -1.02,-13.17 -2.05,-19.45 -1.02,-6.27 -2.39,-12.34 -4.04,-18.24 -0.11,-0.5 -0.58,-0.85 -1.1,-0.8 -0.58,0.04 -1.01,0.54 -0.97,1.12 0.79,9.62 0.97,19.06 0.57,28.37 -0.38,8.94 -1.3,17.79 -2.72,26.61 -2.44,-4.49 -2.27,-6.68 -1.97,-10.59 0.09,-1.04 0.17,-2.2 0.23,-3.66 0.14,-3.44 0.09,-6.93 -0.12,-10.41 -0.23,-3.6 -0.64,-7.2 -1.2,-10.78 -0.09,-0.57 -0.63,-0.95 -1.2,-0.87 -0.29,0.05 -0.54,0.22 -0.7,0.45 -3.5,4.87 -5.24,10.64 -5.75,17.01 -0.51,6.27 0.18,13.14 1.51,20.32l0 0z"/>
   <path fill="#69C229" d="M302.41 134.51l3.83 0.16c0.99,-5.55 1.48,-10.84 1.09,-15.67 -0.33,-3.98 -1.24,-7.65 -2.98,-10.87 -0.5,4.46 -0.59,9.01 -0.68,13.49l-0.02 1.06c-0.02,1.4 0,2.56 0.03,3.6 0.07,3.05 0.12,5 -1.27,8.23l0 0zm-40.22 0.07l10.57 0 1.41 -7.03 0 0c2.11,-15.59 2.38,-28.85 0.82,-39.8 -0.91,-6.35 -2.43,-11.93 -4.58,-16.72 2.18,8.27 2.43,16.68 1.51,25.12 -1.28,11.84 -4.85,23.73 -8.57,35.35 -0.14,0.44 -0.56,0.74 -1.03,0.73 -0.58,-0.03 -1.03,-0.51 -1.01,-1.08l0.52 -14.31c-0.32,-6.59 -1.01,-12.98 -2.02,-19.18 -0.39,-2.35 -0.82,-4.68 -1.3,-6.98 0.19,5.77 0.16,11.49 -0.08,17.17 -0.39,9 -1.31,17.89 -2.73,26.73l6.49 0 0 0 0 0zm-15.88 0.09l4.98 -0.21c-2.23,-4.42 -2.05,-6.8 -1.74,-10.83 0.09,-1.08 0.18,-2.29 0.23,-3.59 0.14,-3.35 0.09,-6.77 -0.12,-10.19 -0.17,-2.62 -0.43,-5.24 -0.78,-7.83 -2.29,4.03 -3.49,8.64 -3.9,13.68 -0.48,5.85 0.11,12.25 1.33,18.97l0 0zm38.1 -0.07l8.69 0 0.02 0 5.22 0c-1.17,-7.33 -1.93,-14.7 -2.25,-22.17 -0.18,-4.1 -0.22,-8.21 -0.13,-12.35 -0.25,1.28 -0.48,2.57 -0.69,3.86 -0.85,5.17 -1.42,10.5 -1.69,16.01l0.43 11.95c0.02,0.58 -0.43,1.06 -1,1.08 -0.48,0.01 -0.9,-0.29 -1.03,-0.73 -3.12,-9.73 -6.1,-19.67 -7.18,-29.58 -0.69,-6.36 -0.6,-12.7 0.76,-18.95 -1.36,3.52 -2.35,7.5 -2.99,11.93 -1.3,9.14 -1.08,20.2 0.68,33.22l0 0 1.16 5.73 0 0z"/>
  </g>
 </g>
</svg>
