<?xml version="1.0" encoding="utf-8"?><svg version="1.1" id="Layer_1" xmlns="http://www.w3.org/2000/svg" xmlns:xlink="http://www.w3.org/1999/xlink" x="0px" y="0px" viewBox="0 0 122.88 102.76" style="enable-background:new 0 0 122.88 102.76" xml:space="preserve"><style type="text/css">.st0{fill-rule:evenodd;clip-rule:evenodd;}</style><g><path class="st0" d="M75.35,52.51v-8.35c0.38-1.61,1.09-2.09,1.88-2.24C79.39,41.58,79.16,52.01,75.35,52.51L75.35,52.51z M46.03,38.26c1.65,0.62,2,2,1.08,2.52c-1.08,0.61-2.45-0.3-3.51-0.64c-2.76-0.88-6.04-0.98-8.43,0.51 c-0.63,0.4-1.28,0.91-1.94,1.54c0.25-0.87,0.62-1.67,1.18-2.37C36.8,36.79,42.82,36.62,46.03,38.26L46.03,38.26z M56.44,38.26 c-1.65,0.62-2,2-1.08,2.52c1.08,0.61,2.45-0.3,3.51-0.64c2.76-0.88,6.04-0.98,8.43,0.51c0.63,0.4,1.28,0.91,1.94,1.54 c-0.25-0.87-0.62-1.67-1.18-2.37C65.67,36.79,59.65,36.62,56.44,38.26L56.44,38.26z M10.78,25.99h14.18 c0.03-3.09,0.31-6.09,0.71-8.98c1.12-8.02,9.55-24.28,20.06-13.27c4.65,4.36,7.96,3.68,12.64,0.23c4.15-3.06,8.89-7.3,14.61,0.34 c3.22,4.29,3.8,10.99,4.47,15.68l0.43,3.02c0.23,0.94,0.44,1.93,0.6,2.98h14.04c2.29,0,4.16,1.75,4.16,3.89l0,0 c0,2.14-1.87,3.89-4.16,3.89H79.06c0,1.66-0.06,3.4-0.19,5.25L77.29,40c1.27-0.09,2.17,0.7,2.7,2.04c0.27,0.67,0.44,1.5,0.5,2.39 c0.06,0.84,0.05,1.77-0.06,2.71c-0.38,3.42-1.95,6.99-4.86,7.42c-0.13,0.02-0.25,0.02-0.38,0.01v0.44c0,0.02,0,0.04,0,0.06 c0.26,6.35-1.87,8.82-5.26,12.05c0.12,0.05,0.23,0.12,0.33,0.21c3.94,3.97,5.06,4.37,8.49,5.58c1.04,0.37,2.29,0.81,3.81,1.41l0,0 c0.03,0.01,0.06,0.03,0.1,0.04c2.59,1.38,5.01,2.95,7.23,4.76c0.24-1.1,0.45-2.21,0.64-3.34l4.69,1.95 c-1.07,1.09-2.06,2.22-2.93,3.5c1.16,1.11,2.24,2.29,3.26,3.55c3.51,4.36,6.16,10.19,7.71,16.76c0.03,0.08,0.04,0.17,0.04,0.27 c0,0.52-0.42,0.93-0.93,0.93l-101.44,0v0c-0.06,0-0.13-0.01-0.19-0.02c-0.5-0.11-0.83-0.6-0.72-1.1 c1.29-6.13,3.49-11.92,6.73-16.29c3.25-4.39,7.52-7.82,12.92-10.2v0c1-0.46,2.08-0.94,3.06-1.38l0,0 c4.18-1.86,6.15-2.73,10.24-6.94c0.02-0.02,0.04-0.04,0.06-0.05l-0.04-0.03c-2.72-2.54-4.01-3.74-5.1-8.94 c-0.02-0.11-0.03-0.21-0.03-0.31h0v-2.93c-0.15,0.03-0.32,0.03-0.48,0c-2.91-0.43-4.49-4-4.86-7.42c-0.1-0.94-0.12-1.87-0.06-2.71 c0.07-0.9,0.24-1.72,0.5-2.39c0.58-1.46,1.58-2.27,3.03-2c0.7,0.13,1.33,0.49,1.86,1.09v-1.19l-1.19-0.67 c-0.27-1.79-0.15-3.65,0.3-5.52H10.78c-2.29,0-4.16-1.75-4.16-3.89l0,0C6.62,27.74,8.49,25.99,10.78,25.99L10.78,25.99z M72.88,33.76H30.03v23.73c1.17,5.63,1.92,5.4,5.53,8.93l6.25,6.12c1.13,0.93,2.4,1.48,3.76,1.8c2.38,0.56,10.36,0.73,12.6,0.02 c1.36-0.44,2.64-1.24,3.82-2.49l4.54-4.41c4.39-4.26,6.67-5.39,6.35-12.44L72.88,33.76L72.88,33.76z M115.34,42.31 c2.84-3.61,5.13-7.51,7.54-11.58c-1.63,3.93-3.29,7.8-5.55,11.57L115.34,42.31L115.34,42.31L115.34,42.31z M108.43,38.52 c1.27-4.41,2.87-8.79,4.77-13.12c-2.34,3.49-4.23,7.4-5.92,11.51L108.43,38.52L108.43,38.52z M119.69,24.6 c-3.02,7.03-2.28,8.01-3.91,13.79c-0.28,1-0.57,1.94-1.18,2.64c-0.35,0.4-0.8,0.72-1.41,0.93c-2.54,0.88-3.73-0.69-3.95-3 c0.04-0.75,0.37-1.55,0.91-2.34c0.71-1.05,1.81-2.11,3.14-3.08C116.7,31.08,117.57,28.29,119.69,24.6L119.69,24.6L119.69,24.6z M102.09,72.45c1.13,0.01,2.27,0,3.36-0.25c0.87-0.2,1.71-0.56,2.5-1.17c-0.48,0.68-0.97,1.34-1.47,2 c-2.08,2.72-4.74,5.83-8.56,5.12c-1.12-0.21-2.09-0.81-2.46-1.98c-0.32-1.01,0.08-2.15,1.32-2.91 C98.41,72.25,100.27,72.42,102.09,72.45L102.09,72.45L102.09,72.45z M105.7,64.96c1.13-0.02,2.27-0.07,3.35-0.35 c0.86-0.23,1.69-0.61,2.46-1.25c-0.46,0.69-0.93,1.37-1.41,2.04c-2,2.78-4.56,5.97-8.41,5.37c-1.13-0.17-2.12-0.75-2.52-1.91 c-0.35-1,0.01-2.15,1.23-2.95C102.02,64.87,103.88,64.99,105.7,64.96L105.7,64.96L105.7,64.96z M108.95,58.08 c1.13-0.08,2.26-0.18,3.33-0.52c0.85-0.27,1.66-0.69,2.4-1.37c-0.42,0.71-0.86,1.42-1.31,2.11c-1.86,2.87-4.26,6.19-8.13,5.79 c-1.14-0.12-2.15-0.64-2.61-1.78c-0.4-0.98-0.1-2.15,1.08-3.01C105.27,58.17,107.14,58.2,108.95,58.08L108.95,58.08L108.95,58.08z M112.69,50.88c1.13-0.03,2.27-0.09,3.35-0.39c0.86-0.24,1.68-0.63,2.45-1.27c-0.45,0.69-0.91,1.38-1.39,2.06 c-1.97,2.8-4.5,6.01-8.35,5.46c-1.13-0.16-2.12-0.73-2.54-1.88c-0.36-1-0.01-2.15,1.2-2.96C109.01,50.83,110.87,50.93,112.69,50.88 L112.69,50.88L112.69,50.88z M116.12,43.82c1.13-0.13,2.25-0.29,3.3-0.69c0.83-0.31,1.62-0.77,2.33-1.49 c-0.39,0.73-0.78,1.46-1.2,2.18c-1.71,2.96-3.94,6.39-7.83,6.19c-1.14-0.06-2.18-0.53-2.7-1.65c-0.45-0.96-0.2-2.14,0.93-3.06 C112.45,44.1,114.31,44.04,116.12,43.82L116.12,43.82L116.12,43.82z M91.73,66.77c-0.64-0.94-1.25-1.89-1.64-2.94 c-0.31-0.83-0.48-1.73-0.4-2.73c-0.3,0.77-0.59,1.55-0.86,2.33c-1.12,3.24-2.25,7.17,0.46,9.97c0.79,0.82,1.83,1.3,3.01,0.96 c1.02-0.29,1.75-1.25,1.7-2.71C93.93,69.72,92.76,68.27,91.73,66.77L91.73,66.77L91.73,66.77z M95.5,59.66 c-0.64-0.94-1.25-1.89-1.64-2.94c-0.31-0.83-0.48-1.73-0.4-2.73c-0.3,0.77-0.59,1.55-0.86,2.33c-1.12,3.24-2.25,7.17,0.46,9.97 c0.79,0.82,1.83,1.3,3.01,0.96c1.02-0.29,1.75-1.25,1.7-2.71C97.69,62.61,96.52,61.16,95.5,59.66L95.5,59.66L95.5,59.66z M99.26,52.55c-0.64-0.94-1.25-1.89-1.64-2.94c-0.31-0.83-0.48-1.73-0.4-2.73c-0.3,0.77-0.59,1.55-0.86,2.33 c-1.12,3.24-2.25,7.17,0.46,9.97c0.79,0.82,1.83,1.3,3.01,0.96c1.02-0.29,1.75-1.25,1.7-2.71C101.45,55.5,100.28,54.05,99.26,52.55 L99.26,52.55L99.26,52.55z M102.89,45.38c-0.64-0.94-1.25-1.89-1.64-2.94c-0.31-0.83-0.48-1.73-0.4-2.73 c-0.3,0.77-0.59,1.55-0.86,2.33c-1.12,3.23-2.25,7.17,0.46,9.97c0.79,0.82,1.83,1.3,3.01,0.96c1.02-0.29,1.75-1.25,1.7-2.71 C105.09,48.34,103.92,46.89,102.89,45.38L102.89,45.38L102.89,45.38z M106.75,38.27c-0.59-0.97-1.16-1.95-1.49-3.02 c-0.27-0.85-0.39-1.75-0.26-2.75c-0.34,0.76-0.66,1.52-0.97,2.29c-1.28,3.18-2.6,7.05-0.04,9.98c0.75,0.86,1.76,1.39,2.96,1.11 c1.03-0.24,1.81-1.16,1.83-2.62C108.79,41.33,107.7,39.82,106.75,38.27L106.75,38.27L106.75,38.27z M35.23,68.9l-0.02,0.02 c-4.12,4.23-6.09,5.1-10.29,6.96c-0.65,0.29-1.36,0.6-2.12,0.95c2.09,5.02,6.93,8.85,13.19,11.38c4.21,1.7,8.98,2.73,13.81,2.95 c4.82,0.21,9.7-0.38,14.14-1.93c6.5-2.26,11.88-6.4,14.92-13.19c-0.95-0.38-1.76-0.69-2.46-0.95c-3.43-1.3-4.46-1.69-8.32-5.55 c-0.02-0.02-0.04-0.04-0.05-0.06c-0.1-0.1-0.16-0.22-0.2-0.35c-0.11,0.1-0.21,0.21-0.32,0.31l-4.34,4.21 c-0.68,0.71-1.38,1.29-2.11,1.77c-0.75,0.48-1.53,0.85-2.34,1.11c-2.61,0.84-10.72,0.65-13.42,0.02c-0.78-0.18-1.54-0.43-2.27-0.77 c-0.73-0.34-1.44-0.78-2.12-1.34c-0.01-0.01-0.1-0.09-0.1-0.09L35.23,68.9L35.23,68.9z M37.42,44.18 c-0.36,0.14-0.74-0.08-0.86-0.48c-0.12-0.4,0.07-0.84,0.42-0.98c2.73-1.07,5.5-0.99,8.24,0c0.36,0.13,0.55,0.56,0.44,0.97 c-0.11,0.41-0.49,0.63-0.85,0.5c-0.45-0.16-0.91-0.3-1.36-0.41c0.05,0.16,0.07,0.33,0.07,0.51c0,1.05-0.85,1.91-1.91,1.91 c-1.05,0-1.91-0.85-1.91-1.91c0-0.26,0.05-0.51,0.15-0.73C39.05,43.66,38.24,43.86,37.42,44.18L37.42,44.18L37.42,44.18z M59.54,43.61c-0.08,0.21-0.12,0.44-0.12,0.68c0,1.05,0.85,1.91,1.91,1.91c1.05,0,1.91-0.85,1.91-1.91c0-0.3-0.07-0.59-0.2-0.84 c0.83,0.09,1.67,0.27,2.52,0.55c0.36,0.12,0.74-0.12,0.84-0.53c0.1-0.41-0.11-0.84-0.47-0.96c-1.38-0.45-2.75-0.67-4.12-0.67 c-1.37,0-2.72,0.23-4.07,0.67c-0.36,0.12-0.57,0.55-0.46,0.95c0.1,0.41,0.48,0.64,0.84,0.53C58.59,43.83,59.07,43.71,59.54,43.61 L59.54,43.61L59.54,43.61z M59.94,60.89c-0.93,0.32-1.89,0.58-2.87,0.8v0c-1.01,0.28-1.95,0.45-2.78,0.47 c-0.94,0.02-1.76-0.16-2.4-0.59c-0.2-0.13-0.38-0.27-0.53-0.42c-0.16,0.15-0.33,0.29-0.53,0.42c-0.65,0.43-1.46,0.61-2.4,0.59 c-0.83-0.02-1.76-0.19-2.78-0.47v0c-0.99-0.21-1.94-0.48-2.87-0.8c-0.92-0.31-1.83-0.68-2.71-1.09c-0.43-0.2-0.6-0.68-0.38-1.07 c0.13-0.23,0.37-0.38,0.63-0.43v0c0.47-0.07,0.85-0.13,1.2-0.18l0.03,0c1.14-0.16,2.01-0.28,3.08-0.71 c0.3-0.12,0.59-0.25,0.89-0.39c1.7-0.79,3.56-1.65,5.42-0.17c0.16,0.13,0.31,0.26,0.44,0.4c0.13-0.14,0.28-0.27,0.44-0.4 c1.86-1.48,3.72-0.62,5.42,0.17c0.3,0.14,0.59,0.27,0.89,0.39c1.06,0.43,1.94,0.55,3.08,0.71l0.03,0c0.35,0.05,0.73,0.1,1.2,0.18 l0,0c0.26,0.04,0.5,0.19,0.63,0.43c0.21,0.39,0.04,0.87-0.38,1.07C61.76,60.21,60.86,60.58,59.94,60.89L59.94,60.89L59.94,60.89z M49.11,53.65c-0.37-0.31-0.42-0.87-0.11-1.24c0.31-0.37,0.87-0.42,1.24-0.11c0.44,0.37,0.86,0.57,1.27,0.57 c0.41,0.01,0.85-0.18,1.33-0.57c0.38-0.31,0.93-0.25,1.24,0.12c0.31,0.38,0.26,0.93-0.12,1.24c-0.81,0.67-1.64,0.99-2.47,0.97 C50.66,54.62,49.86,54.28,49.11,53.65L49.11,53.65L49.11,53.65z M46.34,65.3c-0.45-0.24-0.63-0.8-0.39-1.26 c0.24-0.45,0.8-0.63,1.26-0.39c1.43,0.76,2.84,1.15,4.22,1.15c1.38,0,2.77-0.37,4.16-1.14c0.45-0.25,1.01-0.08,1.26,0.37 c0.25,0.45,0.08,1.01-0.37,1.26c-1.66,0.92-3.35,1.37-5.05,1.37C49.73,66.66,48.03,66.2,46.34,65.3L46.34,65.3L46.34,65.3z M27.59,52.51v-8.35c-0.38-1.61-1.09-2.09-1.88-2.24C23.56,41.59,23.76,52.01,27.59,52.51L27.59,52.51z"/></g></svg>