<svg xmlns="http://www.w3.org/2000/svg" shape-rendering="geometricPrecision" text-rendering="geometricPrecision" image-rendering="optimizeQuality" fill-rule="evenodd" clip-rule="evenodd" viewBox="0 0 437 512.09"><path fill-rule="nonzero" d="M123.65 71.27a6.564 6.564 0 0 1-5.43 4.71c-8.75 7.68-17.25 15.58-25.36 24 37.16 9.86 74.19 16.22 111.12 18.79 28.55 1.99 57.04 1.72 85.47-.92 13.06-1.52 26.7-3.54 41.19-6.07.99-.17 1.92-.35 2.8-.54.25-.49.33-1.21.18-2.25-1.02-6.94-6.34-11.99-11.82-17.07l-2.08-1.91c-2.31-2.17-4.7-4.37-7.16-6.59l-.85-.13a6.597 6.597 0 0 1-5.55-5.57l-2.49-2.17a587.18 587.18 0 0 0-16.95-14.15l-2.93-2.36c-16.8-13.56-55.06-44.44-69.75-45.71-19.04-1.62-38.26 14.45-56.65 29.84l-10.42 8.62c-7.9 6.52-15.7 12.95-23.32 19.48zm95.14 282.74 35.84-14.35-32.88 18.87c5.46 5.26 11.85 8.02 19.09 8.5 14.93.99 28.7-5.66 37.92-17.22 1.74-2.18 3.26-4.62 4.59-7.17 1.62-3.1 7.41-13.51 6.58-16-1.23-3.63-18.28-6.14-22.18-6.67-20.26-2.78-45.03.59-50.53 24.41-.26 1.17-.32 2.35-.23 3.55l-1.14.74-1.08-.79c.2-.83.31-1.68.29-2.53-.5-20.54-20.33-27.49-37.48-28.63-3.3-.21-17.76-1.03-19.38 1.75-1.11 1.9 1.91 11.46 2.71 14.28.67 2.32 1.51 4.59 2.57 6.69 5.64 11.06 15.86 18.87 28.32 20.57 6.04.83 11.76-.37 17.15-3.77l-23.89-21.09 25.8 16.82-.01.18c1.21 4.22 1.59 8.6 1.29 13.26-4.25.66-8.82 3.49-9.03 7.77-14.84-10.02-29.23 11.93-27.76 26.09l83.84-4.73c-1.5-15.38-18.42-21.23-29.53-15.32 4.17-11.55-4.67-14-10.99-12.27-.19-.24-.41-.45-.67-.63-.55-4.19-.51-8.38.79-12.31zm-.29-107.89c27.83 0 53.04 11.29 71.28 29.53 18.24 18.24 29.53 43.45 29.53 71.28 0 27.84-11.29 53.04-29.53 71.28-18.24 18.24-43.45 29.53-71.28 29.53-27.84 0-53.04-11.29-71.28-29.53-18.25-18.24-29.53-43.44-29.53-71.28 0-27.83 11.28-53.04 29.53-71.28 18.24-18.24 43.44-29.53 71.28-29.53zm62.08 38.72c-15.88-15.89-37.83-25.71-62.08-25.71s-46.21 9.82-62.09 25.71c-15.89 15.89-25.72 37.84-25.72 62.09s9.83 46.21 25.72 62.09c15.88 15.89 37.84 25.71 62.09 25.71s46.2-9.82 62.08-25.71c15.89-15.88 25.72-37.84 25.72-62.09s-9.83-46.2-25.72-62.09zM195.6 39.58c1.72 0 3.1 1.38 3.1 3.1 0 1.71-1.38 3.1-3.1 3.1-1.71 0-3.1-1.39-3.1-3.1 0-1.72 1.39-3.1 3.1-3.1zm38.25 32.1c1.71 0 3.09 1.39 3.09 3.1a3.094 3.094 0 1 1-6.19 0c0-1.71 1.38-3.1 3.1-3.1zm-31.98 18.08a4.5 4.5 0 0 1 0 9c-2.49 0-4.51-2.01-4.51-4.5s2.02-4.5 4.51-4.5zm154.42 302.5c-.39-3.62 2.22-6.88 5.84-7.28 3.61-.39 6.87 2.21 7.27 5.83.87 7.83 1.87 19.86 1.81 30.59-.05 7.97-.71 15.31-2.47 20.08-1.25 3.42-5.04 5.17-8.46 3.92-3.42-1.25-5.17-5.04-3.92-8.46 1.19-3.24 1.65-9.05 1.69-15.59.06-9.99-.91-21.52-1.76-29.09zm-295.01 11.8c.39-3.62 3.65-6.23 7.27-5.83 3.62.39 6.23 3.65 5.83 7.27-.68 6.12-.85 11.88-.43 17.24.4 5.16 1.37 9.92 2.94 14.2 1.25 3.42-.51 7.21-3.92 8.46-3.42 1.25-7.22-.5-8.47-3.92-2-5.45-3.21-11.38-3.71-17.71-.48-6.15-.29-12.74.49-19.71zM200.23 60.55c1.71 0 3.09 1.39 3.09 3.1a3.094 3.094 0 1 1-6.19 0c0-1.71 1.38-3.1 3.1-3.1zM176.5 71.38c2.49 0 4.5 2.01 4.5 4.5s-2.01 4.5-4.5 4.5-4.5-2.01-4.5-4.5 2.01-4.5 4.5-4.5zm-54.15 22.28c1.33 0 2.4 1.08 2.4 2.41s-1.07 2.4-2.4 2.4c-1.33 0-2.41-1.07-2.41-2.4 0-1.33 1.08-2.41 2.41-2.41zm19.3-3c2.49 0 4.51 2.01 4.51 4.5s-2.02 4.5-4.51 4.5a4.5 4.5 0 0 1 0-9zm24.44 8.94c1.72 0 3.1 1.39 3.1 3.1 0 1.71-1.38 3.1-3.1 3.1-1.71 0-3.1-1.39-3.1-3.1 0-1.71 1.39-3.1 3.1-3.1zm-14.78-31.17a3.495 3.495 0 1 1 0 6.99c-1.94 0-3.5-1.56-3.5-3.5 0-1.93 1.56-3.49 3.5-3.49zM227 38.33c1.49 0 2.7 1.21 2.7 2.7 0 1.5-1.21 2.7-2.7 2.7-1.5 0-2.71-1.2-2.71-2.7 0-1.49 1.21-2.7 2.71-2.7zm6.46 63.49c1.33 0 2.41 1.08 2.41 2.41s-1.08 2.41-2.41 2.41-2.4-1.08-2.4-2.41 1.07-2.41 2.4-2.41zm42.48-37.47c1.33 0 2.4 1.07 2.4 2.4 0 1.33-1.07 2.41-2.4 2.41-1.33 0-2.41-1.08-2.41-2.41s1.08-2.4 2.41-2.4zm-24.06 22.63c2.05 0 3.7 1.65 3.7 3.7 0 2.05-1.65 3.7-3.7 3.7-2.05 0-3.7-1.65-3.7-3.7 0-2.05 1.65-3.7 3.7-3.7zm18.98-4c2.18 0 3.93 1.76 3.93 3.93 0 2.18-1.75 3.94-3.93 3.94-2.17 0-3.93-1.76-3.93-3.94a3.93 3.93 0 0 1 3.93-3.93zm23.94 11.71a2.96 2.96 0 1 1 0 5.92c-1.64 0-2.97-1.33-2.97-2.96 0-1.64 1.33-2.96 2.97-2.96zm-4.36-17.58c1.81 0 3.28 1.47 3.28 3.28 0 1.81-1.47 3.27-3.28 3.27-1.8 0-3.27-1.46-3.27-3.27a3.28 3.28 0 0 1 3.27-3.28zm-15.22 26.42c1.8 0 3.25 1.46 3.25 3.26 0 1.8-1.45 3.26-3.25 3.26-1.81 0-3.26-1.46-3.26-3.26 0-1.8 1.45-3.26 3.26-3.26zM96.26 78.13c-3.39.37-6.7.76-9.79 1.17l-.52.05c-6.25.32-11.26 2.17-15.38 5l-.03.02c-.87.6-1.72 1.25-2.53 1.95.44 1.21 1.42 2.52 2.93 3.9 1.96 1.78 4.65 3.54 8.05 5.28 5.61-6.05 11.37-11.81 17.27-17.37zm250.19 27.58c1.92-1.62 3.23-3.4 4.6-5.28 2.11-2.89 4.33-5.94 7.85-8.99-2.08-.48-4.27-.9-6.55-1.35l-3.94-.77c-4-.77-8.29-1.52-12.67-2.25 4.96 5.03 9.18 10.64 10.71 18.64zm-28.07-34.75c10.43 1.6 22.01 3.39 32.52 5.41l3.95.77c7.71 1.5 14.54 2.84 20.76 6.24 1.35.34 2.58 1.09 3.5 2.19 1.57 1.11 3.1 2.4 4.59 3.9 6.66 6.68 12.35 18.2 16.47 30.46 4.71 14.03 7.49 29.39 7.32 39.41-.18 10-1.99 18.69-5.96 25.67-3.63 6.39-8.93 11.23-16.23 14.2 5.41 14.59 9.92 42.31 13.5 73.81 5.81 51.23 9.33 113.28 10.08 143.82.18 7.35-.2 12.26-.47 15.85-.22 2.86-.35 4.59-.23 4.89.16.38 2.84 1.61 9.58 4.68l.75.35c9.2 4.21 14.77 9.77 17.2 17.8 2.22 7.3 1.5 16.2-1.65 27.74a6.584 6.584 0 0 1-6.48 5.06l-54.49-.73c-40.52 8.22-76.06 14.57-110.69 17.6-35.09 3.09-69.47 2.82-107.4-2.23-18.57-2.47-36.74-5.48-54.11-8.35-13.9-2.3-27.3-4.52-39.86-6.3-7.75-1.09-16.54-.52-25.14.04-9.06.58-17.95 1.16-26.13-.06-2.3-.36-4.35-1.9-5.22-4.23-5.46-14.62-5.72-24.97-2.26-32.56 3.72-8.14 11.09-12.48 20.65-15.05 5.24-1.4 5.22-1.61 4.92-3.97-.34-2.69-.79-6.21-.95-10.95-1.19-35.28.83-88.77 5.26-137.27 3.58-39.18 8.75-75.27 15.12-96.26-10.63-5.39-19.43-11.77-22.64-19.06-4.48-10.16-3.22-23.36.78-36.76 5.38-18.01 15.79-36.81 23.25-48.2 3.9-5.97 8.54-11.33 14.44-15.38 6.01-4.11 13.17-6.8 21.96-7.28 4.93-.65 10.33-1.25 15.71-1.79 3.79-.39 7.95-.78 11.99-1.15 8.44-7.3 17.07-14.41 25.84-21.64l10.32-8.57C169.38 15.94 190.74-1.93 215.14.17c18.69 1.61 59.15 34.27 76.91 48.6l2.93 2.36c5.9 4.75 11.68 9.57 17.31 14.47 2.02 1.75 4.05 3.54 6.09 5.36zm8.49 55.37a530.606 530.606 0 0 1-35.27 4.55c-6.89.81-13.63 1.48-20.24 2.02-19.14 1.56-37.37 1.99-55.64 1.33-21.1-.76-50.3-3.55-77.96-8.44-22.08-3.91-43.36-9.19-59.11-15.92-7.15-3.05-12.69-6.35-16.58-9.9-1.09-.99-2.05-2-2.9-3.04-6.93 10.73-16.28 27.76-21.11 43.91-3.19 10.69-4.39 20.79-1.35 27.68 5.76 13.05 46.6 24.58 63.38 29.32l1.67.47c22.75 6.45 47.02 11.15 71.48 13.86 16.83 1.86 33.75 2.79 50.34 2.7 25.69-.99 52.76-4.18 82.11-9.29 5.43-1.23 10.86-2.58 16.29-4.06l56-13.68c5.65-1.69 9.58-4.9 12.1-9.33 2.82-4.95 4.11-11.55 4.25-19.38.15-8.67-2.37-22.31-6.64-35.02-3.54-10.54-8.19-20.21-13.33-25.35-.4-.4-.82-.78-1.24-1.15-6.3 3.52-8.98 7.18-11.44 10.56-4.12 5.65-7.85 10.75-18.94 14.27-2.48 1.73-5.86 2.5-9.81 3.08l-6.06.81zm-18.74 92.21a396.233 396.233 0 0 1-62.45 8.81c-7.37.44-14.84.68-22.38.71-6.95.25-13.83.36-20.62.3-49.82-.43-95.46-9.51-143.54-29.09-5.75 20.33-10.5 54.2-13.87 91.07-4.38 47.99-6.38 100.85-5.21 135.66.14 4.17.54 7.32.85 9.72 1.64 12.88 1.78 14-14.58 18.37-5.92 1.59-10.3 3.9-12.07 7.77-1.78 3.89-1.58 9.82 1.29 18.68 5.97.41 12.69-.02 19.52-.46 9.24-.6 18.68-1.22 27.77.07 12.62 1.78 26.15 4.02 40.16 6.34 17.46 2.89 35.72 5.92 53.7 8.31 36.78 4.9 70.27 5.14 104.57 2.13 34.57-3.04 69.79-9.34 109.92-17.49.45-.09.91-.13 1.36-.13l49.99.67c1.5-6.74 1.76-11.88.58-15.75-1.24-4.07-4.5-7.1-10.08-9.65l-.75-.34c-10.07-4.61-14.07-6.43-16.24-11.5-1.4-3.29-1.17-6.21-.8-11.03.26-3.46.63-8.19.47-14.57-.74-30.14-4.24-91.61-10.03-142.67-3.4-29.97-7.53-56.08-12.23-69.42-23.04 5.38-44.72 9.9-65.33 13.49z"/></svg>