<?xml version="1.0" encoding="utf-8"?><svg version="1.1" id="Layer_1" xmlns="http://www.w3.org/2000/svg" xmlns:xlink="http://www.w3.org/1999/xlink" x="0px" y="0px" viewBox="0 0 122.88 113.66" style="enable-background:new 0 0 122.88 113.66" xml:space="preserve"><style type="text/css">.st0{fill-rule:evenodd;clip-rule:evenodd;}</style><g><path class="st0" d="M67.11,90.04V71.86c0.18-2.62,0.78-4.9,1.93-6.73c2.68-4.29,3.31-2.97,8.07-2.97V47.99H46.22v14.18 c4.63,0,4.91-1.26,7.72,2.57c1.39,1.89,2.19,4.24,2.28,7.13v18.17H0c0,12.99,10.63,23.61,23.62,23.61h32.6h10.89h32.16 c12.99,0,23.61-10.62,23.62-23.61H67.11L67.11,90.04z M49.04,42.44c0.76,1.44,2.9,0.6,2.52-0.97c-0.03-0.1-0.05-0.18-0.09-0.26 c-0.9-1.76-2.1-3.31-3.54-4.66c-1.02-1.02-2.79,0.18-2.17,1.55c0.08,0.18,0.16,0.27,0.3,0.42C47.27,39.65,48.29,40.96,49.04,42.44 L49.04,42.44L49.04,42.44z M21.42,29.31c-1.49,0.08-1.77,2.37-0.08,2.7c0.11,0.01,0.19,0.01,0.31,0.01 c1.73-0.15,3.52-0.2,5.25-0.14c0.59,0.04,1.12-0.35,1.32-0.9c0.3-0.89-0.29-1.76-1.23-1.81C25.21,29.06,23.22,29.14,21.42,29.31 L21.42,29.31L21.42,29.31z M35.31,30.25c-1.68-0.4-2.4,2.11-0.65,2.63c1.55,0.38,3.52,0.93,4.96,1.59c1.4,0.61,2.67-1.31,1.31-2.36 c-0.08-0.05-0.15-0.1-0.25-0.14C39.23,31.36,36.83,30.51,35.31,30.25L35.31,30.25L35.31,30.25z M62.92,18.3 c0.23,0.4,0.6,0.6,0.98,0.63l0,0h0.01c0.33,0.04,0.68-0.04,0.98-0.27c0.2-0.15,0.38-0.37,0.46-0.63c0.72-1.49,1.65-2.77,2.77-3.98 c1.2-1.42-0.82-3.11-2-1.83c-0.76,0.83-1.44,1.68-2.06,2.6c-0.64-0.95-1.38-1.87-2.06-2.6c-1.17-1.28-3.19,0.41-2,1.83 c1.13,1.23,2.07,2.52,2.79,4.02C62.84,18.16,62.87,18.23,62.92,18.3L62.92,18.3L62.92,18.3L62.92,18.3L62.92,18.3z M10.14,4.32 c-1.49,0.89-0.29,3.12,1.27,2.4c1.54-0.82,2.77-1.43,4.43-2.03c1.65-0.61,0.86-3-0.78-2.59C13.47,2.58,11.59,3.49,10.14,4.32 L10.14,4.32L10.14,4.32z M23.17,0.3C22.34,0.4,21.79,1.17,22,1.99c0.16,0.64,0.8,1.09,1.46,1.01c1.5-0.16,3.79-0.38,5.24-0.27 c1.69,0,1.88-2.49,0.12-2.71C27.08-0.05,24.93,0.11,23.17,0.3L23.17,0.3L23.17,0.3z M37.02,0.68c-0.6-0.11-1.24,0.24-1.46,0.82 c-0.33,0.83,0.16,1.7,1.04,1.87c1.74,0.27,3.47,0.63,5.18,1.06C43.2,4.76,44.09,3,42.95,2.05c-0.15-0.11-0.33-0.2-0.5-0.24 C40.66,1.34,38.85,0.97,37.02,0.68L37.02,0.68L37.02,0.68z M50.35,4.46c-0.3-0.14-0.65-0.15-0.95-0.04 c-1.19,0.4-1.25,2.03-0.12,2.53c1.61,0.69,3.17,1.47,4.67,2.37c1.43,0.86,2.87-1.2,1.51-2.25C54.03,6.11,51.94,5.14,50.35,4.46 L50.35,4.46L50.35,4.46z M61.02,43.27c0.14,0.52,0.54,0.83,0.99,0.94l0.04,0.01c0.34,0.07,0.71,0.01,1.02-0.18l0.01-0.01l0,0 c0.23-0.15,0.42-0.38,0.53-0.71l0.01-0.04c0.03-0.1,0.04-0.18,0.05-0.27c0.14-1.72,0.44-3.38,0.94-5.03 c0.46-1.46-1.62-2.53-2.51-0.99v0.01c-0.75-1.36-2.97-0.52-2.45,1.1c0.59,1.57,1.04,3.39,1.35,5.03l0,0v0.01l0.01,0.05v0.01 L61.02,43.27L61.02,43.27L61.02,43.27z M16.29,15.15c-1.72,0.53-1.04,3.02,0.71,2.62c1.7-0.46,3.38-0.83,5.14-1.08 c0.34-0.04,0.71-0.26,0.91-0.56c0.68-0.98-0.1-2.28-1.29-2.13C19.88,14.27,18.1,14.65,16.29,15.15L16.29,15.15L16.29,15.15z M30.13,13.67c-1.58-0.1-2.04,2.17-0.45,2.66c0.1,0.03,0.18,0.04,0.27,0.04c1.73,0.11,3.47,0.34,5.18,0.69 c1.78,0.31,2.29-2.25,0.56-2.66C33.86,14.04,32,13.78,30.13,13.67L30.13,13.67L30.13,13.67z M43.69,17.02 c-1.68-0.74-2.72,1.72-1.14,2.45c1.58,0.72,3.11,1.55,4.55,2.52c1.43,0.93,2.92-1.08,1.61-2.18 C47.31,18.79,45.28,17.74,43.69,17.02L43.69,17.02L43.69,17.02z M55.03,25.21c-1.19-1.28-3.19,0.41-2,1.83 c1.17,1.27,2.25,2.66,3.19,4.1c0.89,1.38,3.09,0.26,2.34-1.35C57.69,28.3,56.21,26.47,55.03,25.21L55.03,25.21L55.03,25.21z M76.68,41.22c-0.15,0.27-0.19,0.63-0.11,0.93c0.33,1.23,1.92,1.42,2.52,0.3c0.76-1.5,1.77-2.77,2.98-3.92 c1.27-1.27-0.5-3.12-1.81-2C78.84,37.81,77.57,39.49,76.68,41.22L76.68,41.22L76.68,41.22z M106.49,32.01 c1.74,0.11,2.02-2.38,0.33-2.68c-1.7-0.2-3.96-0.24-5.67-0.15c-1.63,0.1-1.76,2.4-0.18,2.68c0.1,0.01,0.18,0.03,0.29,0.01 C102.96,31.79,104.76,31.86,106.49,32.01L106.49,32.01L106.49,32.01z M93.45,32.88c0.71-0.16,1.14-0.85,1.02-1.57 c-0.14-0.76-0.89-1.25-1.65-1.08c-1.53,0.26-3.92,1.12-5.37,1.73c-1.57,0.68-0.69,3.05,0.95,2.53 C89.93,33.94,91.87,33.15,93.45,32.88L93.45,32.88L93.45,32.88z M116.64,6.66c0.53,0.31,1.25,0.22,1.68-0.25 c0.59-0.64,0.44-1.63-0.31-2.1c-1.55-0.89-3.12-1.59-4.81-2.19c-1.47-0.55-2.64,1.63-1.02,2.51 C113.81,5.29,115.09,5.78,116.64,6.66L116.64,6.66L116.64,6.66z M104.68,3c1.62,0.19,2.17-2.26,0.39-2.68 c-1.69-0.25-3.95-0.34-5.67-0.3c-1.65,0-1.85,2.49-0.12,2.7C101.15,2.8,102.81,2.8,104.68,3L104.68,3L104.68,3z M91.55,3.35 c1.7-0.3,1.4-2.79-0.31-2.68c-1.76,0.2-3.81,0.68-5.54,1.12c-1.48,0.35-1.29,2.67,0.35,2.67c0.12-0.01,0.2-0.01,0.31-0.04 C88.07,3.98,89.8,3.63,91.55,3.35L91.55,3.35L91.55,3.35z M78.88,6.94c1.54-0.68,0.71-3.05-0.98-2.52 c-1.66,0.65-3.54,1.65-5.08,2.56c-1.46,0.87-0.3,3.12,1.28,2.38C75.73,8.48,77.15,7.69,78.88,6.94L78.88,6.94L78.88,6.94z M107.92,17.06c1.63,0.29,2.28-2.11,0.61-2.63c-1.73-0.39-3.9-0.59-5.67-0.69c-1.72-0.09-1.99,2.48-0.23,2.7 C104.46,16.58,106.11,16.75,107.92,17.06L107.92,17.06L107.92,17.06z M94.83,16.68c1.61-0.19,1.59-2.59-0.11-2.7 c-0.08,0-0.14,0-0.22,0.01c-1.85,0.22-3.68,0.53-5.49,0.95c-1.54,0.37-1.29,2.67,0.33,2.67c0.11-0.01,0.19-0.01,0.3-0.04 C91.25,17.16,93.2,16.87,94.83,16.68L94.83,16.68L94.83,16.68z M82.17,20.03c0.55-0.23,0.87-0.82,0.8-1.4 c-0.11-0.9-1.06-1.44-1.89-1.08c-1.73,0.75-3.35,1.58-4.97,2.55c-0.3,0.18-0.46,0.41-0.57,0.71c-0.41,1.21,0.9,2.26,1.98,1.61 C79.01,21.51,80.57,20.72,82.17,20.03L82.17,20.03L82.17,20.03z M71.33,27.15c1.2-1.2-0.45-3.05-1.78-2.03 c-1.25,1.1-2.85,3.04-3.79,4.43c-0.9,1.25,0.79,2.9,2.07,1.73c0.07-0.07,0.11-0.12,0.16-0.2C69,29.65,70.09,28.38,71.33,27.15 L71.33,27.15L71.33,27.15z"/></g></svg>