<svg id="Layer_1" data-name="Layer 1" xmlns="http://www.w3.org/2000/svg" viewBox="0 0 122.88 65.72"><title>garden</title><path d="M47.54,61.22V45.53H45.36a4.14,4.14,0,0,1-2.93-1.22,4.1,4.1,0,0,1-1.22-2.93V37.21a4.15,4.15,0,0,1,4.15-4.15h5.08V23H45.57a4.15,4.15,0,0,1-4.15-4.16V7.24a4.15,4.15,0,0,1,4.15-4.15h4.87V.7a.7.7,0,0,1,.7-.7h4.59a.7.7,0,0,1,.7.7V3.09h51V.7a.7.7,0,0,1,.7-.7h4.59a.7.7,0,0,1,.7.7V3.09h5.29a4.17,4.17,0,0,1,4.15,4.15V18.8A4.17,4.17,0,0,1,118.73,23h-5.29v10.1h5.08a4.15,4.15,0,0,1,4.15,4.15v4.17a4.17,4.17,0,0,1-4.15,4.15h-1.25V61.22h5.49v4.5H0v-4.5H3.32a40.67,40.67,0,0,1-.74-10.41,17.41,17.41,0,0,1,3-8.94A.55.55,0,0,1,6,41.64a.54.54,0,0,1,.62.46c.3,1.88.52,3.77.63,5.66a50,50,0,0,1,.07,5.47c0,.77-.08,1.38-.12,1.93a8.05,8.05,0,0,0,1,5.56,118.87,118.87,0,0,0,1.43-14,118.35,118.35,0,0,0-.29-14.91.55.55,0,0,1,1.08-.17,88.41,88.41,0,0,1,2.13,9.58,92.89,92.89,0,0,1,1.07,10.23v.06L13.5,55a79.69,79.69,0,0,0,3.24-14.47,32.35,32.35,0,0,0-2.65-17.93.55.55,0,0,1,.26-.73A.56.56,0,0,1,15,22h0q4.25,5.19,5.52,14.06a78.64,78.64,0,0,1-.44,21.25s0,0,0,0h0l-.77,3.86h4l-.64-3.17h0v0a65.47,65.47,0,0,1-.37-17.79Q23.41,32.78,27,28.43h0a.54.54,0,0,1,.66-.15.55.55,0,0,1,.26.73,27,27,0,0,0-2.21,14.93A64.73,64.73,0,0,0,28.2,55.36l-.08-2.19V53.1a77.72,77.72,0,0,1,.9-8.55,72.58,72.58,0,0,1,1.78-8,.55.55,0,0,1,.58-.43.56.56,0,0,1,.51.59,99.55,99.55,0,0,0,.89,23.82,7.75,7.75,0,0,0,.65-4c0-.55,0-1.18,0-1.94V54A62.53,62.53,0,0,1,34,45.26a.55.55,0,0,1,.63-.46A.58.58,0,0,1,35,45a14.67,14.67,0,0,1,2.54,7.52,33.61,33.61,0,0,1-.61,8.67Zm6.32,0H111V53H53.86v8.2ZM111,50.13v-4.6H53.86v4.6Zm-3.5-17.07V23h-51V33.06Z"/></svg>