<?xml version="1.0" encoding="utf-8"?><svg version="1.1" id="Layer_1" xmlns="http://www.w3.org/2000/svg" xmlns:xlink="http://www.w3.org/1999/xlink" x="0px" y="0px" viewBox="0 0 115.01 122.88" style="enable-background:new 0 0 115.01 122.88" xml:space="preserve"><style type="text/css">.st0{fill-rule:evenodd;clip-rule:evenodd;}</style><g><path class="st0" d="M3.34,77.38h15.08v-59.4c-2.89-1.44-4.88-4.42-4.88-7.85V8.75C13.54,3.94,17.48,0,22.3,0l0,0 c4.82,0,8.75,3.94,8.75,8.75v1.39c0,3.43-2,6.41-4.88,7.85v59.4h15.36c1.69,0,3.07,1.38,3.07,3.07v19.23 c0,12.26-10.03,22.3-22.3,22.3l0,0c-12.26,0-22.3-10.03-22.3-22.3V80.73C0,78.89,1.5,77.38,3.34,77.38L3.34,77.38z M51.2,1.81h3.89 V18.5c0,0.44,0.37,0.82,0.82,0.82h4.48c0.45,0,0.82-0.37,0.82-0.82V1.81h5.91V18.5c0,0.44,0.37,0.82,0.82,0.82h4.48 c0.45,0,0.82-0.37,0.82-0.82V1.81h5.91V18.5c0,0.44,0.37,0.82,0.82,0.82c5.69,0-1.3,0,4.39,0c0.45,0,0.82-0.37,0.82-0.82V1.81h5.91 V18.5c0,0.45,0.37,0.82,0.82,0.82h4.48c0.45,0,0.82-0.37,0.82-0.82V1.81h5.91V18.5c0,0.45,0.37,0.82,0.82,0.82h4.48 c0.45,0,0.82-0.37,0.82-0.82V1.81h3.49c1.24,0,2.25,1.02,2.25,2.25v26.16c0,3.21-2.64,5.85-5.85,5.85H89.55v80.09 c0,3.7-3.03,6.72-6.73,6.72h-0.92c-3.7,0-6.73-3.03-6.73-6.72V36.07H54.8c-3.21,0-5.85-2.63-5.85-5.85V4.06 C48.95,2.82,49.96,1.81,51.2,1.81L51.2,1.81z M22.3,5.27L22.3,5.27c2.13,0,3.87,1.74,3.87,3.87v0.61c0,2.13-1.74,3.87-3.87,3.87h0 c-2.13,0-3.87-1.74-3.87-3.87V9.14C18.42,7.01,20.17,5.27,22.3,5.27L22.3,5.27z"/></g></svg>