<svg xmlns="http://www.w3.org/2000/svg" viewBox="0 0 122.88 113.88"><title>water-pump</title><path d="M35.6,20.12H95.82a27.14,27.14,0,0,1,27.06,27.06V74.13A25.33,25.33,0,0,1,97.62,99.39H92.38l4.17,9.71a3.27,3.27,0,0,1,.34,1.46,3.32,3.32,0,0,1-3.32,3.32H44.43a3.39,3.39,0,0,1-1.12-.2,3.31,3.31,0,0,1-2-4.23l3.6-10H35.6a10.93,10.93,0,0,1-7.75-3.23h0a11,11,0,0,1-3.21-7.75V85H14.7A5.57,5.57,0,0,1,9.14,79.4V65.07H0V54.44H9.14V40.11a5.57,5.57,0,0,1,5.56-5.56h9.92V31.11a11,11,0,0,1,3.22-7.75l0,0a11,11,0,0,1,7.74-3.22Zm-11,58.2V41.19H15.78V78.32ZM31.26,36.8a3.47,3.47,0,0,1,.17,1.07V81.64a3.36,3.36,0,0,1-.17,1.06v5.7a4.33,4.33,0,0,0,1.26,3.07h0a4.27,4.27,0,0,0,3.06,1.27H92.5v-66H35.6A4.27,4.27,0,0,0,32.54,28h0a4.33,4.33,0,0,0-1.26,3.07V36.8ZM56,0H81.86a8,8,0,0,1,7.93,7.93h0a8,8,0,0,1-7.93,7.93H56a8,8,0,0,1-7.93-7.93h0A8,8,0,0,1,56,0ZM85.16,99.39H51.94l-2.81,7.85h39.4l-3.37-7.85ZM44.55,81.58a3.32,3.32,0,0,1,0-6.64h36a3.32,3.32,0,0,1,0,6.64Zm0-18.14a3.32,3.32,0,0,1,0-6.64h36a3.32,3.32,0,0,1,0,6.64Zm0-18.15a3.32,3.32,0,0,1,0-6.64h36a3.32,3.32,0,0,1,0,6.64ZM99.14,27V92.69a18.69,18.69,0,0,0,17.1-18.56V47.18A20.51,20.51,0,0,0,99.14,27Z"/></svg>