<?xml version="1.0" encoding="utf-8"?><svg version="1.1" id="Layer_1" xmlns="http://www.w3.org/2000/svg" xmlns:xlink="http://www.w3.org/1999/xlink" x="0px" y="0px" viewBox="0 0 98.11 122.88" style="enable-background:new 0 0 98.11 122.88" xml:space="preserve"><style type="text/css">.st0{fill-rule:evenodd;clip-rule:evenodd;}</style><g><path class="st0" d="M48.8,25.28v0.97c1.71-2.5,3.7-4.48,5.99-6.05c3.69-2.53,8.1-3.98,13.34-4.9c0.84-0.15,1.64,0.42,1.79,1.26 c0.15,0.84-0.42,1.64-1.26,1.79c-4.82,0.85-8.85,2.16-12.13,4.4c-2.65,1.82-4.84,4.27-6.62,7.64c12.56,1.26,19.99,0.03,25.39-3.9 c5.35-3.9,8.96-10.63,13.69-20.32c-1.38,0.08-2.83,0.15-4.3,0.22c-9.52,0.44-19.94,0.93-26.45,6.65c-1.67,1.46-3.29,3.22-4.88,5.28 C51.83,20.32,50.31,22.64,48.8,25.28L48.8,25.28L48.8,25.28z M0,62.51h45.34v-5.15c-12.69,1.38-20.39,0.22-26.21-3.83 C13.16,49.36,9.42,42.33,4.4,31.96c-0.37-0.77-0.05-1.69,0.72-2.06c0.25-0.12,0.52-0.17,0.79-0.15v0c2.06,0.16,4.16,0.24,6.33,0.33 c9.29,0.37,19.75,0.78,26.36,6.59c3.09,2.72,5.27,4.98,6.76,7.48l0-23.1c-4.79,0.46-9.08,0.4-12.82-0.69 c-4.38-1.27-7.93-3.89-10.53-8.57c-0.02-0.03-0.03-0.06-0.05-0.1l0,0l-4.35-8.99c-0.45-0.94-0.06-2.07,0.88-2.52 c0.3-0.14,0.62-0.2,0.93-0.18v0l14.57,0.9c0.08,0,0.16,0.01,0.24,0.03l0.05,0.01c2.72,0.34,5.7,0.72,8.4,3.09 c2.06,1.81,3.55,4.07,4.55,6.53c1.09,2.69,1.59,5.62,1.59,8.43c0,0.21-0.03,0.41-0.1,0.6c0.74-1.1,1.48-2.14,2.23-3.13 c1.74-2.26,3.5-4.17,5.27-5.73c7.32-6.44,18.32-6.95,28.36-7.41c2.32-0.11,4.58-0.21,6.86-0.41v0c0.27-0.02,0.54,0.02,0.8,0.15 c0.77,0.37,1.09,1.29,0.72,2.06c-5.52,11.4-9.42,19.2-15.82,23.86c-6.24,4.54-14.59,5.9-28.68,4.36v12.37 c5.89-8.21,11.64-8.34,21.04-8.57c2.01-0.05,4.21-0.1,6.71-0.26v0c0.25-0.02,0.52,0.03,0.76,0.15c0.77,0.37,1.09,1.29,0.72,2.06 c-3.84,7.94-6.33,12.86-10.57,15.65c-4.06,2.67-9.41,3.15-18.66,2.15v5.6h49.67v2.95H48.61c0.02,0.13,0.03,0.26,0.02,0.39 c-0.23,4.88,1.05,9.63,3.89,13.11C55,82,58.71,84.08,63.67,84.43c0.96,0.06,1.69,0.89,1.62,1.86c-0.06,0.96-0.9,1.69-1.86,1.62 c-3.24-0.22-6.05-1.07-8.43-2.39c-0.12,0.62-0.18,1.21-0.16,1.77c0.04,1.04,0.33,1.99,0.87,2.86c0.89,1.42,2.16,2.31,3.4,3.18 l0.35,0.25c5.71-2.74,10.64-0.47,15.59,1.82c3.67,1.69,7.36,3.4,11.1,2.53c0.98-0.23,1.93-0.58,2.85-1.06 c0.94-0.48,1.85-1.09,2.72-1.8c0.74-0.61,1.84-0.5,2.45,0.24c0.61,0.74,0.5,1.84-0.24,2.45c-1.07,0.88-2.18,1.62-3.33,2.21 c-1.17,0.6-2.4,1.06-3.67,1.36c-3.34,0.78-6.38,0.11-9.31-1.01c0.78,2.62,2.19,5.03,4.23,7.23c2.92,3.13,7.13,5.83,12.66,8.11 c0.89,0.37,1.31,1.38,0.95,2.27c-0.37,0.89-1.38,1.31-2.27,0.95c-6.01-2.47-10.63-5.46-13.89-8.96c-3.11-3.33-4.98-7.11-5.63-11.32 l-0.07-0.03c-3.69-1.7-7.35-3.39-11.12-2.39c1.23,1.47,2.14,3.47,2.35,6.7c0.1,1.58-0.05,3.3-0.48,5.18 c-0.42,1.83-1.12,3.81-2.11,5.95c-0.4,0.87-1.44,1.26-2.31,0.85c-0.87-0.4-1.26-1.44-0.85-2.31c0.89-1.93,1.51-3.68,1.87-5.27 c0.36-1.54,0.48-2.93,0.4-4.18c-0.27-4.14-2.22-5.5-4.24-6.91c-1.54-1.08-3.12-2.18-4.37-4.19c-0.86-1.38-1.33-2.91-1.39-4.59 c-0.04-1.26,0.15-2.59,0.6-4.01c-0.79-0.68-1.5-1.43-2.16-2.23c-1.55-1.9-2.71-4.09-3.49-6.46c-0.42,1.06-0.87,2.05-1.36,2.97 l-0.11,0.2l1.54,12.52c4.51,3.61,6.18,7.35,5.08,11.21c-0.48,1.7-1.52,3.37-3.12,5.01c1.36,2.31,1.95,4.69,1.68,7.15 c-0.31,2.85-1.79,5.71-4.6,8.6c-0.67,0.69-1.77,0.7-2.46,0.03c-0.69-0.67-0.7-1.77-0.03-2.46c2.23-2.3,3.4-4.48,3.63-6.55 c0.16-1.48-0.15-2.95-0.9-4.41c-1.56,1.19-3.42,2.36-5.57,3.52c-0.85,0.46-1.91,0.14-2.36-0.71c-0.46-0.85-0.14-1.91,0.71-2.36 c2.65-1.43,4.78-2.84,6.36-4.22c0.08-0.09,0.17-0.17,0.28-0.25l0.01-0.01c1.61-1.46,2.61-2.88,3.01-4.28 c0.71-2.49-0.71-5.12-4.3-7.87c-0.43-0.27-0.74-0.72-0.8-1.27l-1.16-9.43c-0.5,0.53-1.01,1.01-1.54,1.45 c-1.45,8.04-6.72,9.61-12.89,11.45l-0.56,0.17c-0.51,3.97-0.5,7.57,0.09,10.75c0.63,3.37,1.93,6.27,4,8.62 c0.63,0.72,0.56,1.82-0.16,2.46c-0.72,0.63-1.82,0.56-2.46-0.16c-2.5-2.85-4.06-6.3-4.8-10.28c-0.58-3.1-0.66-6.52-0.31-10.2 c-4.39,1.63-8.83,4.28-12.02,10.63c-0.43,0.86-1.48,1.21-2.33,0.78c-0.86-0.43-1.21-1.48-0.78-2.33 c4.48-8.92,10.86-11.48,16.68-13.27l0.04-0.01c0.54-0.17,1.08-0.33,1.62-0.49c3.96-1.18,7.47-2.22,9.32-5.51 c-2.73,0.97-5.7,1.13-8.78,0.62c-3.1-0.51-6.33-1.7-9.54-3.41c-0.85-0.45-1.17-1.51-0.72-2.36c0.45-0.85,1.51-1.17,2.35-0.72 c2.88,1.53,5.74,2.59,8.46,3.04c2.92,0.48,5.67,0.24,8.09-0.9c2.23-1.05,4.22-2.89,5.85-5.66c0.04-0.08,0.08-0.16,0.13-0.23 c0.09-0.17,0.19-0.33,0.28-0.51c1.44-2.7,2.56-6.18,3.28-10.56H0V62.51L0,62.51z M44.13,17.37c-0.53-0.71-1.12-1.27-1.77-1.73 c-1.28-0.89-2.86-1.41-4.73-1.82c-0.83-0.18-1.36-1-1.18-1.84c0.18-0.83,1-1.36,1.84-1.18c2.23,0.49,4.16,1.14,5.82,2.29 c-0.12-0.38-0.26-0.75-0.41-1.12c-0.78-1.94-1.95-3.71-3.54-5.11c-1.84-1.62-4.21-1.92-6.37-2.19l-0.05-0.01l-11.34-0.7l2.93,6.06 c2.06,3.68,4.83,5.73,8.25,6.72C36.57,17.61,40.12,17.71,44.13,17.37L44.13,17.37L44.13,17.37z M41.95,54.57 c-2.11-2.78-4.34-4.86-6.71-6.49c-2.91-2-6.09-3.33-9.57-4.43c-0.81-0.26-1.27-1.13-1.01-1.94c0.26-0.81,1.13-1.27,1.94-1.01 c3.74,1.18,7.17,2.63,10.38,4.83c2.79,1.91,5.38,4.37,7.82,7.69c-0.18-2.72-0.7-4.83-1.67-6.72c-1.27-2.47-3.38-4.7-6.58-7.51 c-5.79-5.09-15.67-5.48-24.44-5.83c-1.29-0.05-2.56-0.1-3.77-0.16c4.24,8.62,7.63,14.55,12.56,17.98 C25.6,54.25,31.9,55.38,41.95,54.57L41.95,54.57L41.95,54.57z M49.69,49.42c1.15-1.02,2.46-1.9,3.85-2.64 c3.2-1.7,6.87-2.71,10.26-3.31c0.84-0.15,1.64,0.42,1.79,1.26c0.15,0.84-0.42,1.64-1.26,1.79c-3.12,0.55-6.47,1.46-9.35,2.99 c-2.1,1.11-3.93,2.56-5.21,4.42c7.86,0.79,12.41,0.36,15.64-1.76c3.16-2.08,5.35-5.97,8.34-12.07c-1.47,0.06-2.87,0.09-4.2,0.12 C60.53,40.45,55.26,40.58,49.69,49.42L49.69,49.42L49.69,49.42z"/></g></svg>