<svg xmlns="http://www.w3.org/2000/svg" shape-rendering="geometricPrecision" text-rendering="geometricPrecision" image-rendering="optimizeQuality" fill-rule="evenodd" clip-rule="evenodd" viewBox="0 0 425 511.96"><path d="M0 511.96c52.7-18.33 26.28-70.89 39.07-126.03C-14.26 398.72 14.23 473.61 0 511.96zm385.93-385.93C438.63 107.7 412.22 55.14 425 0c-53.32 12.79-24.84 87.68-39.07 126.03zm-38.59 38.59c52.69-18.32 26.28-70.89 39.07-126.03-53.33 12.79-24.85 87.68-39.07 126.03zm-38.59 38.59c52.69-18.32 26.28-70.89 39.06-126.02-53.32 12.78-24.84 87.68-39.06 126.02zm-38.6 38.6c52.7-18.33 26.29-70.89 39.07-126.03-53.32 12.79-24.84 87.68-39.07 126.03zm-38.59 38.59c52.69-18.32 26.28-70.89 39.07-126.03-53.33 12.79-24.85 87.68-39.07 126.03zm-38.59 38.59c52.69-18.32 26.28-70.89 39.06-126.02-53.32 12.78-24.84 87.68-39.06 126.02zm-38.6 38.6c52.7-18.33 26.29-70.89 39.07-126.03-53.32 12.79-24.84 87.68-39.07 126.03zm-38.59 38.59c52.7-18.33 26.28-70.89 39.07-126.03-53.33 12.79-24.84 87.68-39.07 126.03zm-38.59 38.59c52.69-18.32 26.28-70.89 39.06-126.02-53.32 12.78-24.84 87.68-39.06 126.02zm-38.6 38.6c52.7-18.33 26.29-70.9 39.07-126.03-53.32 12.79-24.84 87.68-39.07 126.03z"/></svg>