<svg id="Layer_1" data-name="Layer 1" xmlns="http://www.w3.org/2000/svg" viewBox="0 0 122.88 100.47"><defs><style>.cls-1{fill:#51b53c;}.cls-1,.cls-2,.cls-3{fill-rule:evenodd;}.cls-2{fill:#1f8e5b;}.cls-3{fill:#8c5d0f;}.cls-4{fill:#af7311;}</style></defs><title>seed-sprouting</title><path class="cls-1" d="M69.54,45.79l3.12-1C79.45,47.12,85.21,65.1,76,69.94c-11.34,6-13.69-8.4-24.38-1.5L46,71.54l-2.24-9.1c4.55-2.06,11.79-6.52,16.68-5.75,2.9.46,5.86,2.38,8.61,3.64,2.58,1.13,5.75-.36,4.1-4.73l-3.65-9.81Z"/><path class="cls-2" d="M29.33,28.41c.55-2,9.76-3.94,11.87-4.36,10.94-2.17,24.55-1.14,28.32,11.66A9.47,9.47,0,0,1,69.17,41L49,34.35l18.53,9.21a16.1,16.1,0,0,1-10.12,5.26,24.29,24.29,0,0,1-21.22-8.15,25.15,25.15,0,0,1-2.74-3.76c-1-1.64-4.47-7.12-4.1-8.5Z"/><path class="cls-2" d="M122.56,1.43c-1.71-2.57-15.51-1-18.65-.57C87.55,2.93,69,10.71,69.67,30.41,69.75,33,71,35.32,72.6,37.58L97.8,18.92,76.13,40.47a23.79,23.79,0,0,0,16.64,2.64A35.88,35.88,0,0,0,118.7,21.8a35.69,35.69,0,0,0,2.07-6.55c.62-2.75,3-12.06,1.79-13.82Z"/><path class="cls-3" d="M18.2,64.16c10-5.8,20.71-7.36,27.77-4.74l-.52,8.08,8.45,2.13c.43,8.07-6.67,18.23-18.18,24.87C21.64,102.63,6.31,102.42,1.47,94S4.12,72.28,18.2,64.16Z"/><path class="cls-4" d="M43.44,58.46a2.27,2.27,0,1,1,4.31-1.4,16.91,16.91,0,0,1,.86,5.6,17.24,17.24,0,0,1-.3,2.86,19.07,19.07,0,0,1,3.71,1,15.36,15.36,0,0,1,5.35,3.42,2.26,2.26,0,0,1-3.17,3.23,10.85,10.85,0,0,0-3.79-2.43,16.23,16.23,0,0,0-5-1,2.25,2.25,0,0,1-2.07-3,13.09,13.09,0,0,0,.77-4.16,12.22,12.22,0,0,0-.64-4.13Z"/></svg>