<svg xmlns="http://www.w3.org/2000/svg" shape-rendering="geometricPrecision" text-rendering="geometricPrecision" image-rendering="optimizeQuality" fill-rule="evenodd" clip-rule="evenodd" viewBox="0 0 511 512.03"><path fill-rule="nonzero" d="m278.65 319.18-25.33-25.31a6.767 6.767 0 0 1-1.27-7.85c17.28-34.23 30.8-74.6 24.54-113.35-8.52-52.72-45.12-88.39-95.97-101.39-59.06-15.11-127.06 2.9-168.89 47.75a6.767 6.767 0 0 1-9.57.35 6.795 6.795 0 0 1-1.7-7.43c12.22-31.13 33.68-56.68 60.19-75.47 41.47-29.4 95.47-42.15 145.74-34.12 73.79 11.77 126.91 67.2 134.15 141.78 4.24 43.8-7.75 87.91-29.35 125.87l8.28 8.34 7.37-7.36c1.99-2 4.62-2.98 7.2-2.98 2.61 0 5.21.98 7.21 2.98l31.53 31.53-71.29 71.29-31.53-31.53c-2-1.99-2.99-4.62-2.99-7.21 0-2.6.99-5.21 2.99-7.2l8.69-8.69zm31.25-31.25-11.97-12.06a6.77 6.77 0 0 1-1.01-8.25c21.76-36.52 34.28-79.52 30.15-122.21-6.64-68.39-55.16-118.9-122.8-129.69-46.79-7.46-97.17 4.43-135.77 31.79C53.69 57.98 40.62 70.73 30.12 85.5c43.93-30.16 102.2-40.59 153.85-27.38 56.12 14.35 96.6 54.33 105.99 112.42 6.49 40.18-6.14 81.34-23.64 117.18l21.91 21.88 21.67-21.67zm75.68 27.39 110.7 110.7.5.54C506.26 436.31 511 449 511 461.67c0 12.91-4.91 25.83-14.72 35.64-9.81 9.81-22.73 14.72-35.64 14.72s-25.84-4.91-35.65-14.71l-110.7-110.71 71.29-71.29z"/></svg>