<svg xmlns="http://www.w3.org/2000/svg" shape-rendering="geometricPrecision" text-rendering="geometricPrecision" image-rendering="optimizeQuality" fill-rule="evenodd" clip-rule="evenodd" viewBox="0 0 512 492.49"><path d="M499.16 80.12c-10.44 23.55-29.6 32.57-32.04 44.89-2.43 12.32.71 25.75 17.44 29.06 16.72 3.3 24.73-7.93 27.16-20.25 2.44-12.32-11.85-27.95-12.56-53.7zM191.29 254.24c-12.97 0-24.71 5.25-33.21 13.75l-.05-.06c-8.46 8.49-13.7 20.25-13.7 33.27 0 12.97 5.26 24.72 13.75 33.21 8.5 8.49 20.24 13.75 33.21 13.75 13.02 0 24.78-5.23 33.27-13.69l-.05-.06c8.49-8.49 13.75-20.24 13.75-33.21 0-13.02-5.24-24.78-13.7-33.27-8.49-8.46-20.25-13.69-33.27-13.69zM330.21 68.29c-23.32-3.49-44.72-4.65-64.28-3.83-63.69 2.66-110.48 26.15-143.29 58.14 21.31-8.2 44.46-12.69 68.65-12.69 52.82 0 100.65 21.41 135.27 56.03 34.61 34.61 56.03 82.44 56.03 135.26 0 52.82-21.42 100.65-56.03 135.26-34.62 34.62-82.45 56.03-135.27 56.03-52.82 0-100.64-21.41-135.26-56.03C21.41 401.85 0 354.02 0 301.2c0-80.24 18.66-150.44 75.46-210.9 42.11-44.83 103.52-78.51 188.26-82.06 23.31-.98 48.19.31 74.64 4.27l-8.15 55.78zm-138.92 98.06c-37.24 0-70.95 15.1-95.35 39.5-24.4 24.39-39.49 58.11-39.49 95.35 0 37.24 15.09 70.96 39.49 95.35 24.4 24.4 58.11 39.5 95.35 39.5 37.24 0 70.96-15.1 95.36-39.5 24.4-24.39 39.49-58.11 39.49-95.35 0-37.24-15.09-70.96-39.49-95.35-24.4-24.4-58.12-39.5-95.36-39.5zm-73.12 61.73c18.72-18.71 44.57-30.29 73.12-30.29 28.48 0 54.3 11.58 73.01 30.29l.11.11c18.72 18.72 30.29 44.54 30.29 73.01 0 28.55-11.57 54.41-30.29 73.12h-.11c-18.71 18.71-44.53 30.29-73.01 30.29-28.55 0-54.4-11.58-73.12-30.29-18.71-18.71-30.29-44.57-30.29-73.12 0-28.47 11.58-54.29 30.29-73.01v-.11zM361.91.08l17.2 2.39c4.73.65 8.06 5.05 7.4 9.78l-9.88 71.29c-.65 4.73-5.05 8.06-9.78 7.41l-17.2-2.39c-4.73-.66-8.06-5.05-7.41-9.78l9.88-71.29c.66-4.73 5.06-8.06 9.79-7.41zm35.34 19.72 106.21 28.1-3.39 25.07-110.85 4.77 8.03-57.94z"/></svg>