<svg id="Layer_1" data-name="Layer 1" xmlns="http://www.w3.org/2000/svg" viewBox="0 0 122.88 103.35"><title>well</title><path d="M109.86,17.85v30.3h10.22a2.81,2.81,0,0,1,2.8,2.8V61.52a2.81,2.81,0,0,1-2.8,2.8H22.45a2.82,2.82,0,0,1-2.81-2.8V51a2.82,2.82,0,0,1,2.81-2.8H32.67V17.85H31a4.78,4.78,0,0,1-4.77-4.77V11.19h-5v5.59a2,2,0,0,1-2,2h-5A1.25,1.25,0,0,1,13,19.84H1.24A1.25,1.25,0,0,1,0,18.6V15.2A1.25,1.25,0,0,1,1.24,14H13a1.25,1.25,0,0,1,1.16.81h3V9.18a2,2,0,0,1,2-2h7V4.77A4.78,4.78,0,0,1,31,0h80.55a4.78,4.78,0,0,1,4.76,4.77v8.31a4.77,4.77,0,0,1-4.76,4.77Zm-49.21,7a17.8,17.8,0,0,1,2.91-7H39v30.3h64.59V17.85H79a17.71,17.71,0,0,1,2.89,7h1.19c.65,0,1.31.55,1.19,1.19L80.87,42.92a1.3,1.3,0,0,1-1.19,1.19H64.54c-.65,0-1-.56-1.18-1.19L58.3,26.05c-.18-.63.54-1.19,1.19-1.19Zm18.65,0a14,14,0,0,0-2.88-6.18,8,8,0,0,0-.82-.83H66.92a8.63,8.63,0,0,0-.8.8,14.07,14.07,0,0,0-2.91,6.21ZM26.85,92.55H44.6a.75.75,0,0,1,.74.75v9.3a.74.74,0,0,1-.74.74H26.85a.75.75,0,0,1-.74-.75V93.29a.74.74,0,0,1,.74-.74Zm66.43,0a.75.75,0,0,1,.74.75v9.3a.75.75,0,0,1-.74.75H69.77a.75.75,0,0,1-.74-.75V93.29a.74.74,0,0,1,.74-.74H93.28Zm3.77,0h17.74a.76.76,0,0,1,.75.75v9.3a.76.76,0,0,1-.75.75H97.05a.76.76,0,0,1-.75-.75V93.29a.75.75,0,0,1,.75-.74Zm12.66-13.08h6.8V90.26h-6.8a.76.76,0,0,1-.75-.75v-9.3a.75.75,0,0,1,.75-.74Zm-21.46,0H106a.74.74,0,0,1,.74.74v9.3a.75.75,0,0,1-.74.75H88.25a.75.75,0,0,1-.74-.75v-9.3a.74.74,0,0,1,.74-.74Zm-3.74,0a.74.74,0,0,1,.74.74v9.3a.75.75,0,0,1-.74.75H61a.75.75,0,0,1-.74-.75v-9.3a.74.74,0,0,1,.74-.74H84.51Zm8.77-13.09a.75.75,0,0,1,.74.75v9.3a.75.75,0,0,1-.74.75H69.77a.75.75,0,0,1-.74-.75v-9.3a.75.75,0,0,1,.74-.75H93.28Zm3.77,0h17.74a.76.76,0,0,1,.75.75v9.3a.76.76,0,0,1-.75.75H97.05a.76.76,0,0,1-.75-.75v-9.3a.76.76,0,0,1,.75-.75ZM48.37,92.55H66.11a.76.76,0,0,1,.75.75v9.3a.75.75,0,0,1-.75.74H48.37a.76.76,0,0,1-.75-.75V93.29a.75.75,0,0,1,.75-.74Zm-8.8-13.08H57.31a.75.75,0,0,1,.75.74v9.3a.76.76,0,0,1-.75.75H39.57a.76.76,0,0,1-.75-.75v-9.3a.75.75,0,0,1,.75-.74Zm-12.81,0h9.06a.75.75,0,0,1,.75.74v9.3a.76.76,0,0,1-.75.75H26.76a.76.76,0,0,1-.75-.75v-9.3a.75.75,0,0,1,.75-.74Zm.09-13.09H44.6a.75.75,0,0,1,.74.75v9.3a.74.74,0,0,1-.74.74H26.85a.75.75,0,0,1-.74-.75v-9.3a.75.75,0,0,1,.74-.75Zm21.52,0H66.11a.76.76,0,0,1,.75.75v9.3a.75.75,0,0,1-.75.74H48.37a.76.76,0,0,1-.75-.75v-9.3a.76.76,0,0,1,.75-.75Z"/></svg>