<svg xmlns="http://www.w3.org/2000/svg" shape-rendering="geometricPrecision" text-rendering="geometricPrecision" image-rendering="optimizeQuality" fill-rule="evenodd" clip-rule="evenodd" viewBox="0 0 449 512.36"><path d="M74.68 0h359.91v401.7c-.65 11.22-15.16 11.48-30.81 10.78H69.36c-52.33 0-52.33 70.41 0 70.41h348.83v-37.72l30.81-.03v49.1c0 9.69-7.92 17.61-17.64 17.61H70.87C28.13 515.6 0 498.59 0 459.6V74.68C0 33.6 33.6 0 74.68 0zm115.23 123.83c-.08-10.21-1.04-17.51 11.64-17.32l41.03.49c13.23-.08 16.74 4.12 16.59 16.52v48.08h47.72c10.21-.08 17.5-1.04 17.29 11.64l-.47 41.02c.08 13.24-4.14 16.75-16.54 16.6h-48v48c.15 12.4-3.36 16.62-16.59 16.54l-41.03.5c-12.68.18-11.72-7.11-11.64-17.32v-47.72h-48.06c-12.42.15-16.62-3.36-16.54-16.6l-.49-41.02c-.19-12.68 7.11-11.72 17.32-11.64h47.77v-47.77z"/></svg>