<svg xmlns="http://www.w3.org/2000/svg" viewBox="0 0 219.54 472.11"><title>beta-greek-symbol</title><path d="M41.93,472.11H0q9.15-42.94,9.15-77.76V117.65q0-43.2,7.62-64.29Q24.65,32.27,47,16.26,69.61,0,103.42,0q40.14,0,67.33,21.34,27.45,21.09,27.44,60.22,0,45.75-43.45,75,64.8,30.49,64.8,95.8,0,35.57-17.28,63.77-17,28-39.64,39.9Q140.26,367.93,109,367.93q-35.58,0-57.94-26.68v47.26Q51.07,437.29,41.93,472.11Zm9.14-153.73q19.83,32.78,55.4,32.78,34.29,0,50.31-24.9,16-25.15,16-61,0-27.43-10.67-55.9-10.41-28.71-26.93-43.7a114.4,114.4,0,0,1-27.44,3.81q-25.67,0-25.67-13.47,0-12.19,21.6-12.19,13.47,0,33.54,6.1a127.92,127.92,0,0,0,18-66.32q0-32-14.23-49-14-17-36.59-17-18,0-31,10.17A52.48,52.48,0,0,0,55.9,52.09q-4.83,14-4.83,46Z"/></svg>