<svg id="Layer_1" data-name="Layer 1" xmlns="http://www.w3.org/2000/svg" viewBox="0 0 122.88 103.9"><defs><style>.cls-1{fill-rule:evenodd;}</style></defs><title>binder-file</title><path class="cls-1" d="M94,.13A4,4,0,0,1,98.9,2.94l23.85,89a4,4,0,0,1-.41,3,3.93,3.93,0,0,1-2.4,1.85L94,103.76a3.92,3.92,0,0,1-3-.4A4,4,0,0,1,89.16,101L67.92,21.68V98a4,4,0,0,1-4,4H4a4,4,0,0,1-4-4V5.87a4,4,0,0,1,4-4H64a4,4,0,0,1,4,4V7.14l.2-.06L94,.13ZM67.92,10v.35l24.37,91,26.12-7a1.9,1.9,0,0,0,1.33-2.3L96.25,4.38A1.9,1.9,0,0,0,94,3.05l-26,7ZM17.44,74.6A8.31,8.31,0,1,1,11.55,77a8.26,8.26,0,0,1,5.89-2.44Zm82.45-.77a8.36,8.36,0,0,1,6.32.83l.08,0A8.32,8.32,0,0,1,104.2,89.9h0a8.3,8.3,0,0,1-6.28-.84L97.8,89A8.27,8.27,0,0,1,94,84v0a8.33,8.33,0,0,1,5.89-10.16Zm4.84,3.38a5.37,5.37,0,0,0-7.89,6l0,.13a5.31,5.31,0,0,0,2.41,3.16l.07,0a5.38,5.38,0,0,0,4,.55l.13,0a5.37,5.37,0,0,0,1.3-9.78l-.07,0ZM50.31,74.6A8.33,8.33,0,1,1,44.43,77a8.3,8.3,0,0,1,5.88-2.44Zm3.8,4.52a5.38,5.38,0,1,0,1.57,3.8,5.37,5.37,0,0,0-1.57-3.8Zm-32.88,0a5.36,5.36,0,1,0,1.58,3.8,5.34,5.34,0,0,0-1.58-3.8ZM9.43,21.4h16v4h-16v-4ZM81.14,34.76,96.6,30.62l1.05,3.9L82.18,38.67l-1-3.91ZM78.39,24.51l15.46-4.14,1.05,3.9L79.44,28.41l-1-3.9ZM76,15.62l15.46-4.14,1,3.9L77.05,19.52l-1-3.9ZM9.43,12.19h16v4h-16v-4ZM42.31,32h16v4h-16V32Zm0-10.61h16v4h-16v-4Zm0-9.21h16v4h-16v-4ZM9.43,32h16v4h-16V32ZM35.5,4.7H63.24a1.89,1.89,0,0,1,1.88,1.88V97.32a1.9,1.9,0,0,1-1.88,1.88H35.5V4.7ZM4.68,4.7H32.07V99.2H4.68A1.9,1.9,0,0,1,2.8,97.32V6.58A1.89,1.89,0,0,1,4.68,4.7Z"/></svg>