<svg xmlns="http://www.w3.org/2000/svg" shape-rendering="geometricPrecision" text-rendering="geometricPrecision" image-rendering="optimizeQuality" fill-rule="evenodd" clip-rule="evenodd" viewBox="0 0 442 512.12"><path d="M73.5 0h354.32v395.44c-.64 11.05-14.91 11.3-30.32 10.62H68.28c-21.33 0-38.77 17.43-38.77 38.76 0 21.34 17.44 38.77 38.77 38.77h343.39v-41.25H442v52.43c0 9.55-7.8 17.35-17.35 17.35H69.78C22.54 511.76 0 494.94 0 456.56V73.5C0 33.07 33.07 0 73.5 0zm107.17 253.02v-10.73c0-12.59 1-22.66 2.95-30.13 1.97-7.48 4.95-13.5 8.88-18.07 3.87-4.52 8.66-8.66 14.31-12.32 4.89-3.23 9.25-6.29 13.12-9.31 3.88-2.95 6.89-6.13 9.15-9.46 2.26-3.39 3.39-7.21 3.39-11.46 0-3.82-.92-7.21-2.75-10.11-1.82-2.91-4.3-5.17-7.42-6.78-3.17-1.56-6.61-2.37-10.43-2.37-4.15 0-7.96.92-11.41 2.85-3.49 1.88-6.29 4.52-8.39 7.91-2.1 3.34-3.12 7.26-3.12 11.67h-58.69c.11-16.78 3.93-30.44 11.46-40.93 7.48-10.55 17.43-18.24 29.8-23.19 12.37-4.95 25.98-7.37 40.78-7.37 16.35 0 30.93 2.37 43.78 7.16 12.86 4.78 22.97 11.94 30.4 21.51 7.37 9.64 11.08 21.58 11.08 35.94 0 9.25-1.56 17.37-4.74 24.37-3.17 6.99-7.58 13.12-13.17 18.45-5.6 5.32-12.16 10.17-19.64 14.52-5.54 3.17-10.16 6.51-13.88 9.9-3.76 3.39-6.59 7.25-8.5 11.57-1.9 4.29-2.85 9.52-2.85 15.65v10.73h-54.11zm27.97 82.28c-8.88 0-16.48-3.1-22.76-9.3-6.3-6.22-9.36-13.83-9.36-22.76 0-8.71 3.07-16.19 9.36-22.38 6.3-6.18 13.88-9.25 22.76-9.25 8.39 0 15.82 3.07 22.27 9.25 6.45 6.19 9.84 13.67 9.84 22.38 0 5.92-1.66 11.35-4.68 16.2-3.01 4.84-6.94 8.7-11.72 11.56-4.85 2.89-10.06 4.3-15.71 4.3zM68.17 452.81h315.37c3.19 0 5.8 2.62 5.8 5.8v3.53c0 3.18-2.61 5.8-5.8 5.8H68.17c-3.18 0-5.79-2.61-5.79-5.8v-3.53c0-3.19 2.6-5.8 5.79-5.8zm0-29.96h315.37c3.19 0 5.8 2.62 5.8 5.8v3.53c0 3.18-2.61 5.8-5.8 5.8H68.17c-3.18 0-5.79-2.61-5.79-5.8v-3.53c0-3.19 2.6-5.8 5.79-5.8z"/></svg>