<svg xmlns="http://www.w3.org/2000/svg" shape-rendering="geometricPrecision" text-rendering="geometricPrecision" image-rendering="optimizeQuality" fill-rule="evenodd" clip-rule="evenodd"
viewBox="0 0 427 511.85">
   <path fill="black" fill-rule="nonzero" d="M57.35 493.94l349.22 0c1.41,0 2.52,-1.1 2.52,-2.52l0 -66.84 -351.74 0c-16.85,0 -27.56,8.86 -32.18,20.19 -1.86,4.54 -2.79,9.51 -2.79,14.5 0,19.75 14.34,34.67 34.97,34.67zm-15.76 -20.96l353.91 0 0 7.85 -350.17 0c-1.51,-2.46 -2.77,-5.09 -3.74,-7.85zm3.74 -35.3c-1.5,2.46 -2.76,5.09 -3.74,7.85l353.91 0 0 -7.85 -350.17 0zm-5.92 17.65c-0.25,2.62 -0.25,5.23 0,7.85l356.09 0 0 -7.85 -356.09 0zm381.57 50.51c-3.72,3.71 -8.83,6.01 -14.41,6.01l-349.22 0c-40.09,0 -57.35,-35.04 -57.35,-70.32l0 -362.31c0,-21.59 8.69,-40.71 22.76,-54.78 14.27,-14.27 34.12,-23.31 56.04,-24.4l11.99 0c0.26,-0.02 0.52,-0.04 0.78,-0.04 0.26,0 0.53,0.02 0.78,0.04l324.32 -0.04c4.95,0 8.96,4.01 8.96,8.96l0 406.95c0.88,1.94 1.37,4.09 1.37,6.34l0 69.17c0,5.58 -2.29,10.67 -5.98,14.38l-0.04 0.04zm-13.26 -99.18l0 -388.75 -307.19 0 0 388.75 307.19 0zm-325.11 0l0 -388.75 -3.39 0c-17.15,0.95 -32.65,8.05 -43.8,19.19 -10.82,10.82 -17.51,25.53 -17.51,42.12l0 343.82c8.84,-9.83 22,-16.38 39.44,-16.38l25.26 0z"/>
</svg>
