<svg xmlns="http://www.w3.org/2000/svg" shape-rendering="geometricPrecision" text-rendering="geometricPrecision" image-rendering="optimizeQuality" fill-rule="evenodd" clip-rule="evenodd" viewBox="0 0 436 512.04"><path fill-rule="nonzero" d="M111.6 512.04c-4.77-3.11-11.61-8.8-20.56-16.94-8.97-8.15-18.69-19.01-29.06-32.6-10.36-13.58-20.25-30.19-29.61-49.87-9.39-19.67-17.15-42.53-23.23-68.7C3.06 317.76 0 288.11 0 255.02c0-29.12 2.97-55.87 8.81-80.24 5.86-24.33 13.33-46.31 22.56-65.9 9.22-19.58 19-36.56 29.28-50.87 10.31-14.31 20-25.92 29.23-34.81 9.22-8.89 16.44-14.98 21.72-18.28l42.48 26.42c-5.27 4.28-12.69 12.2-22.22 23.7-9.56 11.53-19.26 26.59-29.15 45.29-9.86 18.67-18.25 40.98-25.25 66.9-7 25.92-10.7 55.53-11.03 88.79-.33 26.51 1.55 50.62 5.58 72.35 4.03 21.72 9.39 41.23 16.06 58.59 6.67 17.37 13.98 32.51 21.98 45.43 7.97 12.92 15.81 23.86 23.53 32.75 7.72 8.9 14.56 15.73 20.5 20.48l-42.48 26.42zM324.39 0c4.78 3.11 11.7 8.72 20.68 16.87 8.97 8.13 18.58 19 28.97 32.58 10.37 13.59 20.23 30.2 29.62 49.87 9.39 19.68 17.11 42.62 23.2 68.8 6.08 26.17 9.14 55.81 9.14 88.9 0 29.12-2.89 55.87-8.72 80.24-5.84 24.34-13.42 46.31-22.62 65.9-9.22 19.59-18.95 36.56-29.23 50.87-10.28 14.31-20.08 25.92-29.31 34.81-9.2 8.89-16.45 14.98-21.73 18.28l-42.45-26.42c5.25-4.27 12.67-12.19 22.23-23.7 9.53-11.53 19.25-26.67 29.12-45.37 9.89-18.67 18.36-40.98 25.36-66.9 6.97-25.92 10.61-55.45 10.95-88.71.3-26.5-1.5-50.62-5.53-72.35-4.03-21.72-9.39-41.31-16.03-58.67-6.67-17.37-14-32.51-21.98-45.43-8-12.92-15.89-23.78-23.64-32.67-7.73-8.89-14.56-15.73-20.48-20.48L324.39 0z"/></svg>