<svg xmlns="http://www.w3.org/2000/svg" shape-rendering="geometricPrecision" text-rendering="geometricPrecision" image-rendering="optimizeQuality" fill-rule="evenodd" clip-rule="evenodd" viewBox="0 0 512 457.94"><path fill-rule="nonzero" d="M59.61 394.74V281.66c0-5.72-3.33-10.95-10.01-15.65-6.68-4.7-14.63-8.59-23.94-11.7-9.29-3.09-17.88-4.99-25.66-5.8v-41.95c7.78-.78 16.37-2.55 25.66-5.23 9.31-2.71 17.26-6.28 23.94-10.66 6.68-4.37 10.01-9.47 10.01-15.35V62.27c0-22.9 4.13-39.05 12.32-48.34C80.14 4.62 93.08 0 110.9 0c12.89 0 25.58.56 38.14 1.77 12.56 1.18 23.84 2.52 33.87 3.97v37.93H123.3V176.5c0 4.94-.8 9.39-2.39 13.37-1.58 3.97-3.89 7.62-6.92 10.97-3.65 4.3-8.56 8.19-14.84 11.76-6.28 3.57-13.05 6.82-20.3 9.77-7.22 2.92-14.14 5.64-20.66 8.02v-5.26a351.49 351.49 0 0 1 20.5 7.73c7.17 2.93 13.93 6.28 20.21 10.01 6.29 3.74 11.28 7.87 15.09 12.32 3.03 3.04 5.34 6.45 6.92 10.34 1.59 3.89 2.39 8.43 2.39 13.53v135.7h59.61v35.05c-10.03 2.71-21.31 4.7-33.87 6.04a351.147 351.147 0 0 1-38.14 2.09c-17.82 0-30.76-4.85-38.97-14.49-8.19-9.61-12.32-25.82-12.32-48.71zm392.78 0V281.66c0-5.72 3.32-10.95 10.01-15.65 6.65-4.7 14.68-8.59 23.99-11.7 9.29-3.09 17.8-4.99 25.61-5.8v-41.95c-7.81-.78-16.32-2.55-25.61-5.23-9.31-2.71-17.34-6.28-23.99-10.66-6.69-4.37-10.01-9.47-10.01-15.35V62.27c0-22.9-4.06-39.05-12.24-48.34C431.96 4.62 418.92 0 401.1 0c-12.86 0-25.58.56-38.14 1.77-12.57 1.18-23.86 2.52-33.88 3.97v37.93h59.62V176.5c0 4.94.8 9.39 2.38 13.37 1.59 3.97 3.9 7.62 6.93 10.97 3.65 4.3 8.67 8.19 14.95 11.76 6.28 3.57 13.04 6.82 20.26 9.77 7.25 2.92 14.07 5.64 20.59 8.02v-5.26c-6.52 2.23-13.34 4.78-20.51 7.73a153.04 153.04 0 0 0-20.1 10.01c-6.28 3.74-11.38 7.87-15.19 12.32-3.03 3.04-5.34 6.45-6.93 10.34-1.58 3.89-2.38 8.43-2.38 13.53v135.7h-59.62v35.05c10.02 2.71 21.31 4.7 33.88 6.04 12.56 1.37 25.28 2.09 38.14 2.09 17.82 0 30.86-4.85 39.05-14.49 8.18-9.61 12.24-25.82 12.24-48.71z"/></svg>