<svg xmlns="http://www.w3.org/2000/svg" shape-rendering="geometricPrecision" text-rendering="geometricPrecision" image-rendering="optimizeQuality" fill-rule="evenodd" clip-rule="evenodd" viewBox="0 0 449 512.36"><path d="M74.68 0H434.6v401.7c-.66 11.22-15.14 11.48-30.82 10.78H69.36c-52.32 0-52.3 70.41 0 70.41h348.83v-37.72l30.81-.03v49.1c0 9.69-7.92 17.61-17.61 17.61H70.9C28.13 515.6 0 498.59 0 459.6V74.68C0 33.6 33.6 0 74.68 0zm94.03 169.33 35 33.06 71.71-72.83c6.85-6.96 11.15-12.53 19.59-3.83l27.43 28.08c9.01 8.91 8.54 14.12.05 22.42L219.37 277.5c-17.9 17.53-14.8 18.63-32.95.6l-63.87-63.5c-3.77-4.09-3.36-8.23.78-12.32l31.83-33c4.82-5.08 8.68-4.64 13.55.05z"/></svg>