<svg xmlns="http://www.w3.org/2000/svg" shape-rendering="geometricPrecision" text-rendering="geometricPrecision" image-rendering="optimizeQuality" fill-rule="evenodd" clip-rule="evenodd" viewBox="0 0 449 512.36"><path d="M74.68 0H434.6v401.7c-.66 11.22-15.14 11.48-30.82 10.78H69.36c-52.32 0-52.3 70.41 0 70.41h348.83v-37.72l30.81-.03v49.1c0 9.69-7.92 17.61-17.61 17.61H70.9C28.13 515.6 0 498.59 0 459.6V74.68C0 33.6 33.6 0 74.68 0zm229.13 193.19c6.36.26 10.87 2.37 13.47 6.33 7.06 10.6-2.58 21.05-9.27 28.42l-71.4 64.98c-7.11 7.87-17.21 7.87-24.3 0l-73.09-66.96c-6.28-7.06-14.04-16.67-7.5-26.44 2.66-3.96 7.14-6.07 13.49-6.33h38.47v-60.61c0-10.5 8.57-19.07 19.07-19.07h43.68c10.52 0 19.09 8.65 19.09 19.07v60.61h38.29z"/></svg>