<svg xmlns="http://www.w3.org/2000/svg" shape-rendering="geometricPrecision" text-rendering="geometricPrecision" image-rendering="optimizeQuality" fill-rule="evenodd" clip-rule="evenodd" viewBox="0 0 488 512.36"><path d="M388.82 29.26v76.18c0 16.06-13.19 29.25-29.25 29.25H339.2v28.46c8.83 3.38 19.98 6.96 32.02 10.82 42.35 13.56 95.57 30.61 110.51 60.43 5.86 11.7 7.29 24.2 5.61 38.04-1.61 13.3-6.13 27.85-12.32 44.17l-51.67 141.97c-7.12 14.51-15.63 26.39-25.6 35.37-10.11 9.1-21.73 15.26-34.95 18.21-.48.12-.98.2-1.5.2H126.69l-1.2-.14c-13.35-2.91-25.06-9.1-35.25-18.27-9.9-8.92-18.36-20.69-25.44-35.05l-.41-.87-51.42-141.4c-6.04-15.95-10.49-30.2-12.2-43.3-1.76-13.51-.62-25.71 4.6-37.1l.14-.33c14.37-30.88 68.54-48.25 111.46-62 11.96-3.83 23.03-7.38 31.82-10.75v-28.46h-20.37c-16.07 0-29.26-13.18-29.26-29.25V29.26C99.16 13.14 112.3 0 128.42 0h231.15c16.04 0 29.25 13.21 29.25 29.26zm-263.5 340.07v-98.96h31.67v98.96h-31.67zm106.85 0c-2.85-4.14-25.64-42.75-26.44-42.75v42.75h-31.67v-98.96h29.77l26.43 42.74v-42.74h31.68v98.96h-29.77zm77.79-43.07v43.07h-31.67v-98.96h31.67v40.37l17.72-40.37h34.21l-23.75 48.61 24.54 50.35h-34.2l-18.52-43.07zm-65.97-111.97c99.88 0 180.84 47.26 180.84 105.56 0 58.29-80.96 105.55-180.84 105.55-99.87 0-180.83-47.26-180.83-105.55 0-58.3 80.96-105.56 180.83-105.56zM127.98 19.6h16.85v93.47h-16.85V19.6zm215.18 0h16.85v93.47h-16.85V19.6zm-35.86 0h16.84v93.47H307.3V19.6zm-35.87 0h16.85v93.47h-16.85V19.6zm-35.86 0h16.85v93.47h-16.85V19.6zm-35.86 0h16.84v93.47h-16.84V19.6zm-35.87 0h16.85v93.47h-16.85V19.6z"/></svg>