<svg xmlns="http://www.w3.org/2000/svg" shape-rendering="geometricPrecision" text-rendering="geometricPrecision" image-rendering="optimizeQuality" fill-rule="evenodd" clip-rule="evenodd" viewBox="0 0 467 511.72"><path fill-rule="nonzero" d="M141.57 0h183.84c8.72 0 16.69 3.59 22.5 9.37l.09.09c5.76 5.8 9.34 13.76 9.34 22.47v69.68c0 8.73-3.61 16.72-9.41 22.52l.04.04c-4.55 4.54-10.46 7.74-17.07 8.89v41.73c6.5 2.26 14.08 4.7 22.1 7.26 40.56 12.99 91.53 29.32 107.14 60.49 6.36 12.71 7.95 26.03 6.18 40.61-1.59 13.11-5.93 27.17-11.88 42.83L407.45 455.2l-.67 1.51c-7.11 14.5-15.66 26.42-25.76 35.51-10.45 9.41-22.47 15.82-36.16 18.96-1.3.35-2.67.54-4.08.54H126.19c-1.08-.02-2.17-.13-3.27-.37-14.03-3.06-26.31-9.54-36.97-19.13-9.9-8.91-18.31-20.55-25.34-34.67-.42-.74-.79-1.53-1.09-2.35L12.53 325.98C6.75 310.76 2.49 297.02.8 284.08c-1.87-14.41-.59-27.53 5.18-39.92 15.04-32.32 67-48.98 108.17-62.17 7.95-2.54 15.47-4.95 21.92-7.2v-41.73c-6.57-1.16-12.47-4.35-17.01-8.89H119c-5.77-5.77-9.36-13.77-9.36-22.56V31.93c0-8.8 3.59-16.79 9.36-22.56C124.78 3.59 132.77 0 141.57 0zm-21.75 359.64v-95.48h30.56v95.48h-30.56zm103.27 0-23.37-33.92c-.78-1.14-1.32-3.56-1.53-7.33h-.61v41.25h-30.55v-95.48h28.72l23.37 33.91c.79 1.14 1.33 3.56 1.53 7.33h.61v-41.24h30.56v95.48h-28.73zm75.25-41.55v41.55h-30.56v-95.48h30.56v38.95h.61c.2-3.06.67-5.52 1.52-7.33l14.97-31.62h33.01l-22.92 46.9 23.68 48.58h-33l-15.74-34.22c-.83-1.82-1.32-4.28-1.52-7.33h-.61zM71.49 397.58h324l30-82.5c5.11-13.48 8.82-25.28 10.06-35.56 1.07-8.83.32-16.48-3.03-23.16-9.76-19.49-53.87-33.62-88.97-44.86-12.68-4.06-24.3-7.79-33.97-11.74-5.99-2.44-9.61-8.21-9.62-14.3h-.07v-51.92H167.08v51.92c0 7.06-4.72 13.02-11.17 14.89-9.33 3.72-20.35 7.25-32.31 11.09-35.43 11.35-80.15 25.69-89.51 45.8-3.12 6.7-3.75 14.25-2.64 22.85 1.31 10.06 4.99 21.7 10.03 34.98l30.01 82.51zm312.72 31.02H82.76l5.61 15.42c5.21 10.41 11.29 18.87 18.3 25.17 6.23 5.62 13.3 9.51 21.25 11.51h211.13c7.95-2 15.02-5.89 21.26-11.51 7-6.3 13.08-14.76 18.29-25.17l5.61-15.42zm-58.8-397.58H141.57a.92.92 0 0 0-.64.28c-.17.17-.28.4-.28.63v69.68c0 .23.11.46.28.63.14.18.38.28.64.28h183.84c.22 0 .45-.11.63-.28h.06c.13-.14.22-.36.22-.63V31.93c0-.27-.09-.49-.22-.63l-.06-.06c-.14-.14-.36-.22-.63-.22z"/></svg>