<svg xmlns="http://www.w3.org/2000/svg" shape-rendering="geometricPrecision" text-rendering="geometricPrecision" image-rendering="optimizeQuality" fill-rule="evenodd" clip-rule="evenodd" viewBox="0 0 512 275.5"><path d="M7.48 80.53h52.64c4.12 0 7.49 3.37 7.49 7.48v99.53c0 4.11-3.37 7.49-7.49 7.49H7.48c-4.11 0-7.48-3.38-7.48-7.49V88.01c0-4.11 3.37-7.48 7.48-7.48zm283.8 114.44h52.64c4.12 0 7.49-3.37 7.49-7.49V87.96c0-4.12-3.37-7.49-7.49-7.49h-52.64c-4.12 0-7.48 3.37-7.48 7.49v99.52c0 4.12 3.36 7.49 7.48 7.49zm107.95 68.82c1.06 5.34 3.8 8.76 7.57 10.5 3.06 1.41 6.61 1.56 10.32.58 3.22-.84 6.6-2.56 9.85-5.03 8.77-6.68 16.99-19.27 18.04-35.02.32-4.83.23-10.02-.22-15.51-.3-3.62-.78-7.44-1.41-11.42h37.34l.18-.02c6.07-.23 11.94-1.71 16.89-4.31 4.28-2.24 7.9-5.31 10.4-9.14 2.59-3.93 4-8.61 3.79-13.95-.16-3.97-1.22-8.28-3.38-12.87 1.24-5.17 1.81-10.71 1.01-15.57-.67-4.14-2.28-7.81-5.17-10.54.15-6.83-.76-12.56-2.6-17.52-1.89-5.09-4.72-9.32-8.35-13.06-.32-3.27-.85-6.4-1.68-9.33-1.03-3.67-2.54-7.05-4.65-10.02h-.01c-6.36-8.98-11.45-8.77-19.52-8.44-1.12.04-2.33.09-4.2.09h-73.05c-6.57 0-11.73.95-16.45 3.31-4.67 2.33-8.65 5.93-12.91 11.26l-1.09 3.1v85.19l3.71 1c9.42 2.54 16.83 10.59 22.59 20.23 5.91 9.91 10.06 21.53 12.9 30.9v24.64l.1.95zm11.74 1.46c-.81-.38-1.46-1.32-1.86-2.92v-24.84l-.21-1.42c-3.01-10.05-7.51-22.78-14.14-33.88-6.23-10.43-14.32-19.38-24.84-23.53v-76.01c2.88-3.42 5.54-5.75 8.45-7.2 3.22-1.6 7-2.26 12.01-2.26h73.05c1.3 0 3-.06 4.59-.13 4.78-.19 7.8-.32 11.04 4.25v.02c1.39 1.98 2.42 4.32 3.17 6.94.78 2.8 1.24 5.9 1.47 9.21l1.54 3.28c3.21 3.04 5.68 6.48 7.24 10.69 1.61 4.33 2.3 9.56 1.91 16.1l-.17 2.96 2.51 1.56c1.72 1.07 2.65 3.09 3.06 5.56.64 3.92-.04 8.74-1.27 13.22l.4 3.6c2.02 3.88 3 7.33 3.12 10.37.12 3.13-.7 5.86-2.19 8.14-1.56 2.39-3.88 4.33-6.65 5.79-3.6 1.88-7.94 2.97-12.48 3.17v-.01h-49.26l1.11 5.91c1.07 5.71 1.84 11.15 2.27 16.31.43 5.06.51 9.75.23 14.03-.84 12.58-7.28 22.53-14.15 27.76-2.19 1.67-4.37 2.81-6.33 3.33-1.48.38-2.74.4-3.62 0zm-85.13-148.17c5.26 0 9.53-4.26 9.53-9.52s-4.27-9.53-9.53-9.53-9.52 4.27-9.52 9.53 4.26 9.52 9.52 9.52zM115.44 11.71c1.05-5.33 3.8-8.76 7.56-10.5 3.06-1.42 6.62-1.56 10.32-.58 3.22.84 6.6 2.56 9.85 5.03 8.78 6.68 17 19.27 18.04 35.01.33 4.84.24 10.03-.22 15.52-.3 3.63-.77 7.44-1.41 11.42h37.35l.17.02c6.07.24 11.95 1.71 16.9 4.31 4.27 2.24 7.89 5.31 10.4 9.14 2.58 3.93 3.99 8.61 3.79 13.96-.16 3.96-1.22 8.27-3.39 12.86 1.24 5.17 1.81 10.71 1.02 15.57-.68 4.13-2.28 7.81-5.17 10.54.14 6.83-.77 12.56-2.6 17.51-1.89 5.1-4.72 9.32-8.36 13.07-.31 3.27-.85 6.39-1.67 9.33-1.04 3.67-2.54 7.04-4.65 10.02l-.01-.01c-6.37 8.98-11.46 8.78-19.53 8.45-1.12-.04-2.33-.1-4.19-.1h-73.06c-6.57 0-11.73-.94-16.44-3.3-4.68-2.33-8.66-5.93-12.91-11.26l-1.09-3.1V89.43l3.7-1c9.43-2.54 16.84-10.59 22.59-20.23 5.92-9.91 10.07-21.52 12.91-30.91V12.66l.1-.95zm11.73-1.45c-.81.37-1.46 1.31-1.85 2.91V38l-.21 1.43c-3.01 10.05-7.52 22.78-14.14 33.88-6.23 10.43-14.33 19.39-24.85 23.52v76.02c2.89 3.42 5.55 5.75 8.46 7.2 3.21 1.6 6.99 2.25 12 2.25h73.05c1.31 0 3.01.07 4.59.14 4.78.19 7.81.31 11.04-4.25v-.02c1.4-1.98 2.43-4.32 3.17-6.94.79-2.8 1.25-5.9 1.48-9.21l1.54-3.28c3.21-3.04 5.67-6.48 7.23-10.69 1.61-4.34 2.3-9.57 1.92-16.11l-.18-2.95 2.51-1.57c1.72-1.06 2.66-3.08 3.06-5.55.64-3.92-.03-8.75-1.26-13.22l.39-3.6c2.03-3.88 3-7.34 3.12-10.37.12-3.14-.7-5.87-2.18-8.14-1.57-2.39-3.88-4.33-6.66-5.79-3.6-1.89-7.93-2.98-12.47-3.17v.01h-49.27l1.11-5.91c1.08-5.71 1.85-11.15 2.28-16.31.43-5.06.51-9.75.23-14.03-.85-12.57-7.29-22.54-14.16-27.77-2.19-1.66-4.36-2.8-6.33-3.31-1.48-.39-2.73-.41-3.61 0h-.01zM42.05 158.42c5.26 0 9.52 4.26 9.52 9.52s-4.26 9.53-9.52 9.53-9.52-4.27-9.52-9.53 4.26-9.52 9.52-9.52z"/></svg>