<svg xmlns="http://www.w3.org/2000/svg" shape-rendering="geometricPrecision" text-rendering="geometricPrecision" image-rendering="optimizeQuality" fill-rule="evenodd" clip-rule="evenodd" viewBox="0 0 512 512"><path d="M74.98 74.99C124.97 25 190.49 0 256 0s131.02 25 181 74.98c50 50 75 115.51 75 181.02s-25 131.02-74.98 181.01C387.03 487 321.51 512 256 512s-131.04-25-181.02-74.98C25 387.04 0 321.5 0 256c0-65.51 25-131.03 74.98-181.01zM344.1 167.9c11.2 11.2 11.18 29.56 0 40.74L296.74 256l47.36 47.36c11.19 11.2 11.19 29.54 0 40.73l-.01.01c-11.2 11.2-29.55 11.18-40.73 0L256 296.74l-47.36 47.36c-11.18 11.18-29.56 11.19-40.74 0-11.19-11.19-11.21-29.53 0-40.74L215.26 256l-47.37-47.36c-11.18-11.18-11.19-29.56 0-40.74 11.19-11.19 29.53-11.21 40.74 0L256 215.26l47.36-47.36c11.21-11.21 29.54-11.2 40.74 0z"/></svg>