<svg xmlns="http://www.w3.org/2000/svg" shape-rendering="geometricPrecision" text-rendering="geometricPrecision" image-rendering="optimizeQuality" fill-rule="evenodd" clip-rule="evenodd" viewBox="0 0 512 512"><path d="M256 0c70.69 0 134.69 28.66 181.02 74.98C483.34 121.29 512 185.31 512 256c0 70.68-28.66 134.69-74.98 181.02C390.69 483.34 326.68 512 256 512c-70.69 0-134.71-28.66-181.02-74.98C28.66 390.69 0 326.68 0 256c0-70.69 28.66-134.71 74.98-181.02C121.29 28.66 185.31 0 256 0zm0 316.61c17.54 0 31.89 14.38 31.89 31.88s-14.4 31.88-31.89 31.88c-17.5 0-31.89-14.34-31.89-31.88 0-17.53 14.35-31.88 31.89-31.88zm0-185c17.54 0 31.89 14.38 31.89 31.88 0 17.51-14.4 31.89-31.89 31.89-17.5 0-31.89-14.35-31.89-31.89 0-17.52 14.35-31.88 31.89-31.88zm122.47 124.38c0 15.57-12.77 28.31-28.31 28.31H161.85c-15.55 0-28.32-12.76-28.32-28.31 0-15.55 12.74-28.32 28.32-28.32h188.31c15.57 0 28.31 12.75 28.31 28.32z"/></svg>