<svg xmlns="http://www.w3.org/2000/svg" shape-rendering="geometricPrecision" text-rendering="geometricPrecision" image-rendering="optimizeQuality" fill-rule="evenodd" clip-rule="evenodd" viewBox="0 0 512 512"><path d="M256 0c70.69 0 134.69 28.66 181.02 74.98C483.34 121.29 512 185.31 512 256c0 70.68-28.66 134.69-74.98 181.02C390.69 483.34 326.68 512 256 512c-70.69 0-134.71-28.66-181.02-74.98C28.66 390.69 0 326.68 0 256c0-70.69 28.66-134.71 74.98-181.02C121.29 28.66 185.31 0 256 0zm122.47 255.99c0 15.57-12.77 28.31-28.32 28.31H161.84c-15.54 0-28.32-12.76-28.32-28.31 0-15.55 12.75-28.32 28.32-28.32h188.31c15.58 0 28.32 12.75 28.32 28.32z"/></svg>