<svg xmlns="http://www.w3.org/2000/svg" shape-rendering="geometricPrecision" text-rendering="geometricPrecision" image-rendering="optimizeQuality" fill-rule="evenodd" clip-rule="evenodd" viewBox="0 0 512 512"><path fill-rule="nonzero" d="M256 0c70.68 0 134.68 28.66 181.01 74.99C483.34 121.32 512 185.32 512 256c0 70.68-28.66 134.68-74.99 181.01C390.68 483.34 326.68 512 256 512c-70.68 0-134.68-28.66-181.01-74.99C28.66 390.68 0 326.68 0 256c0-70.68 28.66-134.68 74.99-181.01C121.32 28.66 185.32 0 256 0zm78.28 334.27c-9.95 9.95-26.26 9.93-36.2 0l-42.07-42.08-42.09 42.09c-9.93 9.93-26.25 9.93-36.19 0l-.01-.01c-9.93-9.94-9.95-26.24 0-36.19l42.09-42.09-42.09-42.07c-9.93-9.94-9.93-26.27 0-36.2l.01-.01c9.93-9.94 26.24-9.95 36.19 0l42.09 42.09 42.07-42.09c9.96-9.95 26.25-9.94 36.2.01 9.96 9.95 9.94 26.26.01 36.2L292.21 256l42.08 42.08c9.95 9.94 9.94 26.24-.01 36.19zm78.59-235.14C372.73 58.99 317.26 34.16 256 34.16c-61.26 0-116.73 24.83-156.87 64.97S34.16 194.74 34.16 256c0 61.26 24.83 116.73 64.97 156.87s95.61 64.97 156.87 64.97c61.26 0 116.73-24.83 156.87-64.97s64.97-95.61 64.97-156.87c0-61.26-24.83-116.73-64.97-156.87z"/></svg>