<svg xmlns="http://www.w3.org/2000/svg" shape-rendering="geometricPrecision" text-rendering="geometricPrecision" image-rendering="optimizeQuality" fill-rule="evenodd" clip-rule="evenodd" viewBox="0 0 427 512.11">
    <path fill-rule="nonzero" d="M32.03 484.7a8.863 8.863 0 0 1 2.44 4.79c5.78 4.45 13.46 7.22 23.06 7.22h350.26c1.06 0 2.01-.42 2.69-1.1l.03-.03c.67-.67 1.09-1.62 1.09-2.68v-67.38c-.3-.3-.58-.61-.84-.95H57.53c-17.51 0-28.66 9.24-33.48 21.06-1.92 4.71-2.88 9.86-2.88 15.02 0 2.41.21 4.83.63 7.19 2.32 6.58 5.72 12.29 10.23 16.86zm288.24-194.2-35.73-34.28-7.54 46.32c-.13.89-.42 1.82-.84 2.63-.43.8-1.02 1.56-1.78 2.2a7.89 7.89 0 0 1-5.6 1.82 7.85 7.85 0 0 1-5.26-2.67l-54.58-64.67-50.42 45.57v42.22c0 .8.28 1.53.75 2.1l.24.22c.61.61 1.44.99 2.33.99h186.53c.79 0 1.53-.3 2.12-.78l.2-.22c.62-.61 1-1.44 1-2.31v-71.99l-28.28 32.55c-.34.56-.98.9-1.65.9-.6 0-1.1-.21-1.49-.6zm-161.75-23.99c15.2-13.95 30.71-28.7 46.13-41.66 1.57-1.35 3.52-1.95 5.39-1.82 1.94.09 3.85.93 5.25 2.46l.05.09c.08.08.17.16.25.29l48.83 57.77 7.25-44.55a7.76 7.76 0 0 1 3.09-4.87c1.56-1.1 3.56-1.7 5.63-1.36l.21.04c.73.13 1.45.39 2.08.68.72.34 1.35.81 1.95 1.36l36.96 35.39 30.1-36.11V97.25c0-.89-.38-1.72-.99-2.33-.6-.61-1.43-.99-2.33-.99H161.84a3.3 3.3 0 0 0-2.34.95l-.03.03c-.59.58-.95 1.42-.95 2.34v169.26zm126.32-94.13c3.01 0 5.98.64 8.65 1.75 2.8 1.13 5.3 2.83 7.37 4.91 2.08 2.08 3.77 4.58 4.96 7.37 1.1 2.67 1.7 5.64 1.7 8.65 0 3.01-.64 5.97-1.7 8.65a22.607 22.607 0 0 1-4.91 7.37 22.545 22.545 0 0 1-7.38 4.91c-2.67 1.15-5.59 1.74-8.64 1.74-3.01 0-5.98-.63-8.65-1.74-2.8-1.14-5.26-2.84-7.37-4.91a23.227 23.227 0 0 1-4.96-7.37c-1.11-2.68-1.7-5.6-1.7-8.65 0-3.01.64-5.98 1.7-8.65a22.45 22.45 0 0 1 4.91-7.37c2.07-2.08 4.58-3.78 7.38-4.91 2.67-1.15 5.59-1.75 8.64-1.75zm6.83 15.89a9.972 9.972 0 0 0-3.14-2.11c-1.1-.47-2.37-.72-3.69-.72-1.31 0-2.54.25-3.69.72-1.18.5-2.24 1.23-3.13 2.07-.89.89-1.61 1.96-2.07 3.14a9.417 9.417 0 0 0-.73 3.69c0 1.27.25 2.54.73 3.68.5 1.19 1.22 2.25 2.07 3.14.89.89 1.95 1.61 3.13 2.12 1.11.47 2.38.72 3.69.72 1.28 0 2.55-.25 3.69-.72a10.78 10.78 0 0 0 3.14-2.07c.89-.9 1.61-1.95 2.11-3.14a9.6 9.6 0 0 0 .73-3.69c0-1.27-.26-2.54-.73-3.69-.5-1.18-1.22-2.24-2.11-3.14zM161.84 78.53h186.53c5.16 0 9.84 2.12 13.22 5.5 3.39 3.39 5.5 8.09 5.5 13.22v232.39c0 5.12-2.12 9.81-5.51 13.2l-.55.5c-3.34 3.1-7.8 5.01-12.66 5.01H161.84c-5.13 0-9.83-2.11-13.22-5.5l-.51-.56c-3.09-3.34-4.99-7.8-4.99-12.65V97.25c0-5.12 2.11-9.8 5.49-13.2l.03-.03c3.42-3.39 8.08-5.49 13.2-5.49zM41.88 475.34h351.54v8.4H45.88a44.361 44.361 0 0 1-4-8.4zm4-37.8a44.159 44.159 0 0 0-4 8.41h351.54v-8.41H45.88zm-6.34 18.89c-.26 2.81-.26 5.61 0 8.42h353.88v-8.42H39.54zm-17.66 42.68a9 9 0 0 1-2.62-1.85c-6.47-6.55-11.28-14.65-14.48-23.9-3.2-9.25-4.78-19.55-4.78-30.5V79.46C0 57.8 8.72 38.63 22.83 24.51 37.14 10.2 57.05 1.13 79.04.04h12.02c.26-.02.52-.04.79-.04.26 0 .52.02.78.04L417.93 0a8.98 8.98 0 0 1 8.98 8.98v410.17c0 .59-.06 1.16-.16 1.72.16.86.25 1.74.25 2.65v69.38c0 5.25-2.15 10.04-5.62 13.53l-.03.03c-3.51 3.49-8.3 5.65-13.56 5.65H57.53c-15.23 0-27.11-5.08-35.65-13zm387.06-89.94V17.97H100.83v391.2h308.11zm-326.08 0V17.97h-3.4c-17.2.94-32.75 8.07-43.93 19.24-10.86 10.86-17.56 25.6-17.56 42.25v346.82c8.64-10.22 21.84-17.11 39.56-17.11h25.33z"/>
</svg>
