<svg xmlns="http://www.w3.org/2000/svg" shape-rendering="geometricPrecision" text-rendering="geometricPrecision" image-rendering="optimizeQuality" fill-rule="evenodd" clip-rule="evenodd" viewBox="0 0 510 511.62"><path d="M125.77 0h258.46C453.41 0 510 56.59 510 125.77v260.09c0 69.17-56.59 125.76-125.77 125.76H125.77C56.59 511.62 0 455.03 0 385.86V125.77C0 56.59 56.59 0 125.77 0zm255.36 349.9H280.49c-3.07 0-5.3-.69-6.67-2.06-1.38-1.38-2.07-3.6-2.07-6.68v-22.79c0-3.07.69-5.3 2.07-6.67 1.37-1.37 3.59-2.06 6.67-2.06h23.89v-99.41l-22.31 8.19c-2.88 1.05-5.31-.69-6.68-2.07-1.37-1.37-2.05-3.59-2.05-6.66v-32.63c0-3.07.68-5.29 2.05-6.67 1.37-1.37 3.61-1.77 6.68-2.06l70.33-6.55c3.06-.29 5.29.69 6.66 2.06 1.38 1.38 2.07 3.61 2.07 6.67v139.13h20c3.07 0 5.31.69 6.67 2.06 1.37 1.37 2.06 3.6 2.06 6.67v22.79c0 3.07-.69 5.3-2.06 6.68-1.38 1.37-3.6 2.06-6.67 2.06zM203.8 315.43c0 5.81-2.48 8.28-8.28 8.28H167c-5.8 0-8.27-2.46-8.27-8.28v-31.46h-30.32c-5.81 0-8.27-2.47-8.27-8.28v-26.22c0-5.81 2.46-8.27 8.27-8.27h30.32v-31.46c0-5.81 2.46-8.29 8.27-8.29h28.52c5.81 0 8.28 2.48 8.28 8.29v31.46h30.31c5.81 0 8.28 2.47 8.28 8.27v26.22c0 5.81-2.48 8.28-8.28 8.28H203.8v31.46z"/></svg>