<?xml version="1.0" encoding="UTF-8"?>
<!DOCTYPE svg PUBLIC "-//W3C//DTD SVG 1.1//EN" "http://www.w3.org/Graphics/SVG/1.1/DTD/svg11.dtd">
<!-- Creator: CorelDRAW 2021 (64-Bit) -->
<svg xmlns="http://www.w3.org/2000/svg" xml:space="preserve" width="512px" height="424px" version="1.1" shape-rendering="geometricPrecision" text-rendering="geometricPrecision" image-rendering="optimizeQuality" fill-rule="evenodd" clip-rule="evenodd"
viewBox="0 0 512 424.16"
 xmlns:xlink="http://www.w3.org/1999/xlink"
 xmlns:xodm="http://www.corel.com/coreldraw/odm/2003">
 <g id="Layer_x0020_1">
  <metadata id="CorelCorpID_0Corel-Layer"/>
  <path fill="black" d="M300.77 188.82l8.32 4.11c19.84,9.73 39.39,19.32 56.8,30.56 -2.36,2.74 -4.56,5.57 -6.61,8.45 -8.4,-5.42 -17.34,-10.45 -26.58,-15.3 -9.78,44.84 -27.97,90.36 -63.46,120.9 -2.06,1.76 -4.98,1.9 -7.17,0.52 -14.88,-9.37 -28.64,-20.06 -41.06,-32.51 -12.34,12.13 -25.98,22.51 -40.99,31.12 -2.31,1.32 -5.11,0.96 -7.01,-0.7 -36.35,-29.01 -53.67,-76.7 -62.54,-121.17 -47.62,24.16 -89.55,52.1 -93.21,110.76l-6.65 89.83c-0.21,2.93 -2.75,5.13 -5.67,4.92 -2.93,-0.2 -5.13,-2.74 -4.93,-5.67l6.66 -89.76c4.64,-73.81 62.47,-101.94 121.31,-130.56l7.95 -3.87 -36.78 -31.84c-35.48,-29.69 -33.26,-79.49 5.91,-104.46 10.64,-58.09 83.24,-72.35 110.98,-28.52 30.8,-41.97 101.51,-30.13 108.84,24.26 51.26,21.3 55.87,88.85 7.11,112.48l-31.22 26.45zm-4.57 -32.62l0 -30.46c1.3,-5.53 3.73,-8.36 6.46,-8.89 9.44,-1.82 8.05,37.22 -6.46,39.35zm-161.07 0l0 -30.46c-1.3,-5.53 -3.72,-8.38 -6.46,-8.88 -9.51,-1.77 -7.98,37.22 6.46,39.34zm152.37 -37.19l-8.53 0.28 -0.05 0c0.66,2.38 1.01,4.89 1.01,7.48 0,7.68 -3.11,14.63 -8.14,19.67 -5.03,5.04 -11.99,8.16 -19.68,8.16 -7.68,0 -14.63,-3.12 -19.67,-8.15 -5.87,-5.88 -8.78,-13.95 -8.04,-22.21 -3.68,-2.79 -13.89,-2.96 -17.2,0.57l-0.01 0.02c0.04,0.64 0.06,1.29 0.06,1.94 0,7.68 -3.12,14.63 -8.15,19.67 -5.03,5.04 -11.99,8.16 -19.67,8.16 -7.68,0 -14.63,-3.12 -19.67,-8.15 -5.04,-5.05 -8.16,-12 -8.16,-19.68 0,-2.6 0.36,-5.12 1.03,-7.5l-8.7 -0.31 0 52.44c3.08,14.41 6.8,17.89 14.54,25.1 1.63,1.52 3.43,3.2 5.57,5.3l21.45 21c1.57,1.26 3.26,2.29 5.05,3.12 1.82,0.87 3.81,1.51 5.88,2 4.08,0.96 13.51,1.57 22.59,1.58 7.87,0.01 15.33,-0.41 18.46,-1.42 1.94,-0.62 3.87,-1.53 5.74,-2.74 1.88,-1.19 3.73,-2.75 5.54,-4.65l15.8 -15.35 5.14 -4.89c11.3,-10.64 18.59,-17.51 17.83,-36.64l-0.02 -44.8zm-143.57 -8.36l12.57 0.35c0.97,-1.4 2.05,-2.71 3.25,-3.9 5.05,-5.03 12,-8.15 19.68,-8.15 7.68,0 14.64,3.12 19.67,8.15 2.73,2.72 4.89,6.02 6.3,9.68 6.82,-3.03 13.93,-3.23 20.88,-0.37 1.41,-3.52 3.52,-6.68 6.15,-9.31 5.05,-5.03 12,-8.15 19.68,-8.15 7.69,0 14.65,3.12 19.68,8.15 1.22,1.22 2.32,2.55 3.31,3.99l12.39 -0.38 -0.01 -23.81c-2.1,-13.78 -8,-23.7 -16.65,-30.75 -8.96,-7.31 -20.98,-11.77 -34.93,-14.41 -8.38,-1.6 -16.63,-2.48 -24.76,-2.33 -8.06,0.15 -16.1,1.3 -24.16,3.78 -11.42,3.51 -20.83,8.89 -28.05,16.28 -7.07,7.25 -12.13,16.52 -15,27.92l0 23.26zm101.03 68.66c-7.14,2.41 -21,6.83 -27.78,2.33 -0.69,-0.46 -1.31,-0.95 -1.84,-1.46 -0.54,0.51 -1.15,1 -1.84,1.46 -6.79,4.5 -20.63,0.09 -27.79,-2.33 -3.2,-1.09 -6.32,-2.35 -9.35,-3.75 -1.47,-0.68 -2.06,-2.34 -1.32,-3.69 1,-1.82 4.38,-1.79 6.31,-2.07 5.66,-0.78 8.65,-1.54 13.78,-3.81 5.86,-2.71 12.29,-5.68 18.69,-0.58 0.56,0.43 1.06,0.9 1.52,1.38 0.45,-0.48 0.96,-0.95 1.51,-1.38 6.36,-5.05 12.74,-2.18 18.56,0.52 5.2,2.3 8.17,3.08 13.91,3.87l4.16 0.6c0.9,0.15 1.72,0.67 2.16,1.47 0.74,1.35 0.15,3.01 -1.32,3.69 -3.03,1.4 -6.15,2.66 -9.36,3.75zm-46.62 14.65c-1.24,-0.66 -1.71,-2.21 -1.05,-3.45 0.65,-1.23 2.2,-1.7 3.44,-1.05 5.02,2.67 9.99,4.04 14.88,4.05 4.88,0 9.79,-1.33 14.68,-4.03 1.23,-0.67 2.78,-0.22 3.45,1.01 0.67,1.23 0.22,2.77 -1.01,3.45 -5.64,3.11 -11.35,4.65 -17.12,4.63 -5.76,-0.01 -11.53,-1.56 -17.27,-4.61zm9.26 -39.64c-1.29,-1.08 -1.46,-3 -0.38,-4.3 1.08,-1.29 3,-1.46 4.29,-0.38 1.52,1.27 2.99,1.95 4.38,1.97 1.41,0.01 2.94,-0.63 4.59,-1.98 1.3,-1.07 3.22,-0.88 4.28,0.42 1.07,1.29 0.88,3.22 -0.42,4.28 -2.8,2.31 -5.65,3.4 -8.52,3.36 -2.88,-0.03 -5.63,-1.2 -8.22,-3.37zm-7.55 -35.14c-1.1,-3.01 -2.86,-5.72 -5.08,-7.94 -3.98,-3.97 -9.48,-6.44 -15.54,-6.44 -6.07,0 -11.57,2.46 -15.54,6.43 -3.97,3.98 -6.44,9.48 -6.44,15.54 0,6.07 2.46,11.57 6.44,15.54 3.97,3.98 9.47,6.44 15.54,6.44 6.06,0 11.56,-2.47 15.54,-6.44 6.16,-6.15 8,-15.08 5.08,-23.13zm31.24 0.53c-0.41,1.5 -1.04,4.15 -1.11,5.68 -0.38,6.32 1.9,12.44 6.39,16.92 3.97,3.98 9.47,6.44 15.54,6.44 6.06,0 11.57,-2.47 15.54,-6.44 3.97,-3.97 6.43,-9.47 6.43,-15.54 0,-6.06 -2.46,-11.56 -6.43,-15.53 -3.97,-3.97 -9.48,-6.44 -15.54,-6.44 -6.07,0 -11.57,2.46 -15.54,6.43 -2.35,2.36 -4.18,5.25 -5.28,8.48zm-38.24 -41.55c1.52,-0.72 3.34,-0.08 4.07,1.44 0.72,1.52 0.07,3.35 -1.45,4.07l-27.35 13.06c-1.52,0.72 -3.34,0.07 -4.06,-1.45 -0.73,-1.52 -0.08,-3.34 1.44,-4.06l27.35 -13.06zm43.86 5.51c-1.52,-0.72 -2.17,-2.55 -1.45,-4.07 0.72,-1.52 2.55,-2.16 4.07,-1.44l27.35 13.06c1.52,0.72 2.16,2.54 1.44,4.06 -0.72,1.52 -2.55,2.17 -4.07,1.45l-27.34 -13.06zm-16.91 320.53c4.05,0 7.33,3.28 7.33,7.33 0,4.04 -3.28,7.33 -7.33,7.33 -4.05,0 -7.32,-3.29 -7.32,-7.33 0,-4.05 3.27,-7.33 7.32,-7.33zm0 -28.96c4.05,0 7.33,3.28 7.33,7.33 0,4.05 -3.28,7.32 -7.33,7.32 -4.05,0 -7.32,-3.27 -7.32,-7.32 0,-4.05 3.27,-7.33 7.32,-7.33zm0 -28.96c4.05,0 7.33,3.28 7.33,7.33 0,4.04 -3.28,7.32 -7.33,7.32 -4.05,0 -7.32,-3.28 -7.32,-7.32 0,-4.05 3.27,-7.33 7.32,-7.33zm127.31 21.11c-1.1,5.96 -2.51,11.89 -3.83,17.77 13.32,-1.69 25.79,-62.4 37.28,-85.21 15.16,-30.07 33.21,-55.25 58.44,-77.55 13.42,-11.88 30.96,-25.48 48.04,-31.57 4.66,-1.67 9.51,-2.88 14.57,-3.51 -51.81,23.92 -88.83,61.86 -114.16,112.39 -10.33,20.61 -18.42,42.79 -25.3,65.82l21.49 -0.58 -9.51 -2.47 29.79 -11.4c-12.29,-1.63 -23.3,2.1 -27.86,-1.49 31.43,-8.12 56.06,-20.45 71.56,-37.61 -7.01,0.48 -15.05,1.28 -19.55,0.18 28.49,-16.82 42.3,-39.2 61.33,-60.47 -27.96,12.31 -55.23,16.98 -64.24,13.08 52.42,-7.04 82.76,-28.32 86.61,-66.7 0.17,-4.09 -0.38,-8.07 -1.83,-11.89 -9.43,-24.85 -56.76,-23.96 -67.14,0.25 -2.07,4.84 -5.43,9.57 -7.87,15.19l8.54 -29.41c-35.24,20.8 -35.39,35.6 -46.05,82.28 -1.18,-13.28 -0.05,-25.76 2.29,-37.83 -43.54,28.26 -49.65,77.64 -43.94,117.34 -4.24,-13.38 -5.32,-31.08 -4.5,-51.38 -10.91,16.78 -16.91,35.03 -8.66,57.57l-6.93 -1.5 5.95 11.77 -10.41 -2.5 15.89 19.43zm84.29 -20.95l5.06 68.2c0.21,2.93 -2,5.47 -4.92,5.67 -2.93,0.21 -5.47,-1.99 -5.67,-4.92l-4.7 -63.47c1.42,-0.7 2.83,-1.42 4.21,-2.14 2.06,-1.08 4.07,-2.19 6.02,-3.34zm-356.36 71.91l6.65 -69.79c0.28,-2.92 2.87,-5.06 5.78,-4.78 2.91,0.27 5.05,2.86 4.78,5.77l-6.65 69.8c-0.66,6.94 -11.22,5.95 -10.56,-1zm287.53 -20.89l2 20.89c0.27,2.92 -1.87,5.51 -4.78,5.78 -2.92,0.28 -5.5,-1.86 -5.78,-4.78l-1.96 -20.57 10.52 -1.32zm-197.78 -165.08c16.87,30.02 79.19,40.46 115.49,-2.59 -9.6,32.17 -31.45,58.72 -59.54,66.88 -32.76,-13.04 -50.16,-35.59 -55.95,-64.29z"/>
 </g>
</svg>
