<?xml version="1.0" encoding="UTF-8"?>
<!DOCTYPE svg PUBLIC "-//W3C//DTD SVG 1.1//EN" "http://www.w3.org/Graphics/SVG/1.1/DTD/svg11.dtd">
<!-- Creator: CorelDRAW 2021 (64-Bit) -->
<svg xmlns="http://www.w3.org/2000/svg" xml:space="preserve" width="512px" height="376px" version="1.1" shape-rendering="geometricPrecision" text-rendering="geometricPrecision" image-rendering="optimizeQuality" fill-rule="evenodd" clip-rule="evenodd"
viewBox="0 0 512 376.4"
 xmlns:xlink="http://www.w3.org/1999/xlink"
 xmlns:xodm="http://www.corel.com/coreldraw/odm/2003">
 <g id="Layer_x0020_1">
  <metadata id="CorelCorpID_0Corel-Layer"/>
  <path fill="black" d="M428.34 96c23.46,0.73 44.51,9.07 59.58,21.99 15.36,13.17 24.59,31.09 24.06,50.65l0 0.18c-0.6,19.64 -10.91,37.06 -27.09,49.34 -15.87,12.03 -37.43,19.14 -60.93,18.45 -6.58,-0.19 -12.94,-0.98 -18.98,-2.28 -5.55,-1.19 -10.88,-2.83 -15.94,-4.85l-38.23 15.03 12.8 -30.44c-7.14,-6.25 -12.91,-13.53 -16.94,-21.51 -4.48,-8.87 -6.81,-18.61 -6.51,-28.77 0.6,-19.64 10.91,-37.06 27.09,-49.34 15.87,-12.04 37.44,-19.14 60.93,-18.45l0.08 0 0.08 0zm-31.23 58.14c-2.3,-2.26 -4.15,-3.69 -1.27,-6.48l9.3 -9.07c2.94,-2.99 4.67,-2.83 7.41,-0.02l14.05 14.04 13.96 -13.97c2.27,-2.3 3.69,-4.15 6.49,-1.27l9.07 9.3c2.98,2.95 2.83,4.67 0.02,7.41l-14.03 14.04 14.03 14.03c2.81,2.74 2.96,4.47 -0.02,7.42l-9.07 9.29c-2.8,2.88 -4.22,1.04 -6.49,-1.27l-13.96 -13.96 -14.05 14.04c-2.74,2.81 -4.47,2.96 -7.41,-0.02l-9.3 -9.07c-2.88,-2.8 -1.03,-4.22 1.27,-6.49l13.98 -13.97 -13.98 -13.98zm-257.67 115.69c-2.31,-1.79 -2.74,-5.12 -0.95,-7.43 1.79,-2.32 5.11,-2.75 7.43,-0.96 7.31,5.63 12.99,21.24 16.26,30.23 0.72,1.99 1.5,4.01 2.16,6.01 2.62,7.48 5.73,16.17 12.41,21.53 6.88,5.47 15.88,10.09 25.59,13.86 11.94,4.63 24.91,7.96 36.44,10.03 17.96,3.22 33.76,4.08 42.38,-0.18 6.87,-3.4 8.3,-11.61 0.43,-27.25 -0.56,-1.13 -0.68,-2.37 -0.43,-3.51 0.99,-4.48 1.86,-6.16 2.54,-7.48 0.23,-0.46 0.42,-0.82 0.56,-1.92l-33.82 -17.88c-2.58,-1.36 -3.58,-4.57 -2.22,-7.15 0.77,-1.46 2.12,-2.41 3.61,-2.72l33.15 -6.88c0.48,-5.86 0.56,-9.23 0.65,-14.54l-9.24 0.55c-2.92,0.24 -5.48,-1.93 -5.72,-4.85 -0.24,-2.92 1.93,-5.49 4.85,-5.73l15.08 -1.29 0.52 0c0.57,0.01 1.12,0.11 1.64,0.28l16.89 -0.97c1.36,-0.07 2.54,-0.44 3.49,-1.05 0.82,-0.54 1.5,-1.31 1.96,-2.26 0.52,-1.05 0.79,-2.35 0.76,-3.82 -0.05,-2.67 -1.09,-5.87 -3.37,-9.37l-14.61 -29.79c-8.16,-16.69 -8.06,-19.12 -7.68,-28.72 0.13,-3.18 0.29,-7.27 0.1,-13.26 -0.23,-6.9 -0.99,-13.48 -2.46,-19.57 -1.07,-4.45 -2.54,-8.68 -4.49,-12.62 -18.26,5.06 -39.98,-1.55 -60.8,-7.89 -11.22,-3.42 -22.18,-6.75 -31.68,-7.92 5.2,19.75 3.68,35.2 -2.52,47.82 -6.92,14.05 -19.51,24.18 -35.03,32.67l-5.06 -9.3c13.74,-7.51 24.79,-16.28 30.59,-28.06 5.74,-11.69 6.47,-26.77 -0.26,-47.2l-2.26 -6.85 7.24 -0.1c12.57,-0.17 27.09,4.25 42.06,8.81 20.39,6.21 41.71,12.7 57.33,7.02l0.13 -0.08 25.83 -11.31c-57.36,-75.25 -120.87,-96.1 -174.45,-85.54 -31.88,6.29 -60.34,23.66 -81.91,47.25 -21.6,23.63 -36.29,53.48 -40.63,84.68 -6.93,49.92 12.82,103.45 73.46,140.58 -0.21,-4.32 -0.54,-8.71 -1,-13.16 -0.3,-2.91 1.81,-5.52 4.73,-5.81 2.91,-0.3 5.51,1.82 5.81,4.73 1.9,18.49 1.74,35.85 -0.25,52.18 -2,16.38 -5.86,31.8 -11.35,46.34 -1.03,2.74 -4.09,4.13 -6.82,3.1 -2.74,-1.04 -4.13,-4.1 -3.1,-6.83 5.18,-13.73 8.83,-28.33 10.73,-43.89 0.97,-7.98 1.49,-16.2 1.53,-24.69 -0.71,-0.08 -1.41,-0.31 -2.05,-0.69 -67.79,-39.74 -89.8,-98.48 -82.18,-153.31 4.63,-33.33 20.29,-65.18 43.32,-90.37 23.05,-25.21 53.5,-43.78 87.68,-50.52 58.51,-11.54 127.73,11.47 189,94.99 0.23,0.31 0.43,0.65 0.59,1.02 1.16,2.68 -0.06,5.8 -2.74,6.97l-26.08 11.38c2.11,4.43 3.72,9.15 4.92,14.12 1.65,6.83 2.5,14.12 2.75,21.72 0.2,6.4 0.03,10.68 -0.1,14.01 -0.3,7.5 -0.37,9.39 6.6,23.65l14.14 28.91c3.31,5.16 4.83,10.21 4.93,14.7 0.06,3.22 -0.6,6.18 -1.85,8.72 -1.3,2.64 -3.26,4.84 -5.7,6.44 -2.52,1.65 -5.56,2.62 -8.92,2.75l-13.75 0.81c-0.12,7.1 -0.19,10.77 -1.03,19.78 -0.1,2.36 -1.79,4.45 -4.22,4.96l-22.58 4.68 23.84 12.61c1.74,0.92 2.9,2.77 2.83,4.87 -0.23,6.34 -0.92,7.66 -1.96,9.67 -0.32,0.62 -0.72,1.39 -1.2,3.15 10.25,21.42 6.28,33.63 -6.06,39.73 -10.93,5.4 -28.96,4.68 -48.94,1.09 -6.43,-1.15 -13.28,-2.68 -20.17,-4.58 0.01,2.44 0.13,4.86 0.36,7.24 0.44,4.52 1.28,9.05 2.49,13.58 0.74,2.82 -0.95,5.73 -3.78,6.47 -2.82,0.74 -5.73,-0.95 -6.47,-3.77 -1.33,-5.02 -2.28,-10.12 -2.78,-15.28 -0.37,-3.82 -0.5,-7.64 -0.38,-11.46 -2.58,-0.86 -5.14,-1.79 -7.66,-2.76 -10.67,-4.14 -20.63,-9.28 -28.36,-15.45 -9.07,-7.28 -12.73,-17.52 -15.82,-26.31 -0.74,-1.94 -1.41,-3.95 -2.12,-5.91 -2.88,-7.93 -7.89,-21.69 -12.78,-25.45zm225.24 -2.59c-0.39,-3.64 2.25,-6.9 5.88,-7.29 3.64,-0.39 6.9,2.25 7.29,5.89 1.17,10.95 0.03,23.73 -2.32,35.47 -2.68,13.5 -7.09,25.88 -11.51,32.77 -1.98,3.07 -6.08,3.97 -9.16,1.99 -3.08,-1.97 -3.97,-6.08 -2,-9.15 3.58,-5.57 7.28,-16.22 9.68,-28.19 2.13,-10.53 3.16,-21.89 2.14,-31.49zm-38.08 6.5c-0.61,-3.61 1.82,-7.04 5.42,-7.65 3.61,-0.61 7.04,1.81 7.65,5.42 1.24,7.1 0.86,16.01 -0.57,24.19 -1.52,8.6 -4.31,16.74 -7.76,21.54 -2.13,2.96 -6.27,3.63 -9.23,1.5 -2.96,-2.13 -3.63,-6.27 -1.5,-9.23 2.25,-3.14 4.21,-9.25 5.42,-16.09 1.2,-6.84 1.54,-14.11 0.57,-19.68zm-74.76 -93.01c0.84,1.27 1.33,2.79 1.33,4.42 0,4.42 -3.58,8.01 -8.01,8.01 -4.42,0 -8,-3.59 -8,-8.01 0,-1.56 0.45,-3.01 1.22,-4.24 -3.25,0.79 -6.52,2.08 -9.79,3.8 -2.59,1.34 -5.79,0.34 -7.14,-2.25 -1.35,-2.58 -0.34,-5.78 2.24,-7.13 6.9,-3.6 13.91,-5.74 21.04,-5.9 7.26,-0.17 14.53,1.68 21.78,6.04 2.51,1.52 3.31,4.78 1.8,7.29 -1.51,2.51 -4.77,3.32 -7.28,1.8 -3.09,-1.86 -6.15,-3.11 -9.19,-3.83zm-135.38 22.27c0.35,-1.89 0.24,-3.68 -0.21,-5.3 -0.64,-2.26 -2,-4.24 -3.79,-5.76 -1.89,-1.6 -4.24,-2.71 -6.75,-3.17 -2.08,-0.38 -4.28,-0.31 -6.43,0.29 -5.26,1.48 -7.4,3.48 -7.73,5.79 -0.44,3.13 1.28,7.57 3.61,12.47 2.62,5.51 12.69,26.53 22.34,38.98 5.48,7.08 10.85,9.03 11.79,-8.26l10.58 0.54c-2.16,39.7 -16.25,32.92 -30.75,14.2 -10.34,-13.34 -20.82,-35.2 -23.55,-40.93 -3.08,-6.5 -5.32,-12.71 -4.52,-18.45 0.92,-6.55 5.24,-11.68 15.37,-14.54 3.73,-1.05 7.57,-1.17 11.2,-0.5 4.35,0.79 8.41,2.71 11.68,5.48 3.36,2.86 5.92,6.62 7.16,11 0.86,3.09 1.07,6.49 0.41,10.07l-10.41 -1.91z"/>
 </g>
</svg>
