<svg xmlns="http://www.w3.org/2000/svg" shape-rendering="geometricPrecision" text-rendering="geometricPrecision" image-rendering="optimizeQuality" fill-rule="evenodd" clip-rule="evenodd" viewBox="0 0 449 512.36"><path d="M74.68 0H434.6v401.7c-.66 11.22-15.16 11.48-30.82 10.78H69.36c-52.32 0-52.32 70.41 0 70.41h348.83v-37.72l30.81-.03v49.1c0 9.69-7.92 17.61-17.63 17.61H70.87C28.13 515.6 0 498.59 0 459.6V74.68C0 33.6 33.6 0 74.68 0zm66.05 171.65c-7.45-7.34-13.41-11.93-4.11-20.94l30.03-29.3c9.51-9.62 15.08-9.15 23.94-.06l34.77 34.75 34.49-34.51c7.32-7.43 11.9-13.42 20.94-4.12l29.3 30.03c9.64 9.54 9.14 15.11.08 23.94l-34.75 34.75 34.75 34.75c9.06 8.83 9.56 14.43-.05 23.93l-29.33 30.03c-9.04 9.3-13.62 3.31-20.94-4.11l-34.49-34.51-34.77 34.74c-8.83 9.09-14.43 9.56-23.94-.05l-30.03-29.3c-9.3-9.01-3.34-13.62 4.11-20.97l34.52-34.51-34.52-34.54z"/></svg>