<svg xmlns="http://www.w3.org/2000/svg" shape-rendering="geometricPrecision" text-rendering="geometricPrecision" image-rendering="optimizeQuality" fill-rule="evenodd" clip-rule="evenodd" viewBox="0 0 401 512.4"><path fill="#F44336" d="M200.5 64.49c42.22 0 76.43 34.22 76.43 76.43 0 42.22-34.23 76.43-76.43 76.43-42.22 0-76.43-34.23-76.43-76.43 0-42.23 34.23-76.43 76.43-76.43zm-32.42 61.85c-2.69-2.65-4.85-4.32-1.48-7.59l10.87-10.61c3.45-3.49 5.47-3.31 8.68-.02l14.65 14.65 14.57-14.56c2.66-2.7 4.32-4.86 7.59-1.49l10.62 10.88c3.48 3.44 3.3 5.46.02 8.67l-14.65 14.65 14.65 14.65c3.28 3.2 3.46 5.22-.02 8.67l-10.62 10.87c-3.27 3.37-4.93 1.21-7.59-1.48l-14.57-14.57-14.65 14.66c-3.21 3.29-5.23 3.47-8.68-.02l-10.87-10.62c-3.37-3.27-1.21-4.93 1.48-7.59l14.58-14.57-14.58-14.58z"/><path fill-rule="nonzero" d="m261.62 459.97 89.57-94.14h-89.57v94.14zM78.95 375.41h80.17v23.05H78.95v-23.05zm0-58.57h113.79v23.06H78.95v-23.06zm0-58.55h243.1v23.06H78.95v-23.06zM401 353.8 258.23 506.91a14.808 14.808 0 0 1-11.51 5.49H26.81C11.98 512.4 0 500.42 0 485.59V26.8C0 12.01 12 0 26.81 0H374.2C389 0 401 12.01 401 26.8v327zm-26.17-14.14V26.17H26.17v460.19h209.28V354.69c0-8.23 6.67-15.03 15.04-15.03h124.34z"/></svg>