<svg xmlns="http://www.w3.org/2000/svg" shape-rendering="geometricPrecision" text-rendering="geometricPrecision" image-rendering="optimizeQuality" fill-rule="evenodd" clip-rule="evenodd" viewBox="0 0 401 512.4"><path fill-rule="nonzero" d="m261.62 459.97 89.57-94.14h-89.57v94.14zM78.95 258.29h243.1v23.06H78.95v-23.06zm0 58.55h113.79v23.06H78.95v-23.06zm0 58.57h80.17v23.05H78.95v-23.05zM401 353.8 258.23 506.91a14.808 14.808 0 0 1-11.51 5.49H26.81C11.98 512.4 0 500.42 0 485.59V26.8C0 12.01 12 0 26.81 0H374.2C389 0 401 12.01 401 26.8v327zm-26.17-14.14V26.17H26.17v460.19h209.28V354.69c0-8.23 6.67-15.03 15.04-15.03h124.34z"/><path fill="#00A912" d="M200.5 64.49c42.22 0 76.43 34.23 76.43 76.43 0 42.22-34.23 76.42-76.43 76.42-42.22 0-76.43-34.22-76.43-76.42 0-42.23 34.23-76.43 76.43-76.43zm-23.72 64.28 13.55 12.8 32.01-32.45c2.66-2.7 4.32-4.86 7.59-1.49l10.61 10.87c3.49 3.45 3.32 5.47.02 8.68l-44.17 43.46c-6.93 6.8-5.72 7.21-12.76.24l-24.71-24.58c-1.47-1.59-1.31-3.19.29-4.77l12.33-12.78c1.86-1.97 3.35-1.79 5.24.02z"/></svg>