<svg xmlns="http://www.w3.org/2000/svg" shape-rendering="geometricPrecision" text-rendering="geometricPrecision" image-rendering="optimizeQuality" fill-rule="evenodd" clip-rule="evenodd" viewBox="0 0 445 511.76"><path fill-rule="nonzero" d="M0 441.03V67.51c0-17.22 1.51-30.74 4.48-40.52 2.96-9.77 8.14-16.67 15.58-20.79C27.51 2.06 37.92 0 51.35 0 70.9 0 87.3.73 100.56 2.15c13.28 1.45 26.81 2.87 40.61 4.33v41.67H73.14v416.82l68.03.27v39.52c-13.8 1.79-27.33 3.42-40.61 4.85-13.26 1.45-29.66 2.15-49.21 2.15-13.43 0-23.84-2.33-31.29-6.9-7.44-4.57-12.62-12.02-15.58-22.4C1.51 472.05 0 458.25 0 441.03zm445 0V67.51c0-17.22-1.42-30.74-4.39-40.52-2.96-9.77-8.14-16.67-15.58-20.79-7.45-4.14-17.95-6.2-31.39-6.2-19.54 0-35.95.73-49.2 2.15-13.29 1.45-26.81 2.87-40.61 4.33v41.67h68.03v416.82l-68.03.27v39.52c13.8 1.79 27.32 3.42 40.61 4.85 13.25 1.45 29.66 2.15 49.2 2.15 13.44 0 23.94-2.33 31.39-6.9 7.44-4.57 12.62-12.02 15.58-22.4 2.97-10.41 4.39-24.21 4.39-41.43z"/></svg>