<svg xmlns="http://www.w3.org/2000/svg" shape-rendering="geometricPrecision" text-rendering="geometricPrecision" image-rendering="optimizeQuality" fill-rule="evenodd" clip-rule="evenodd" viewBox="0 0 512 291.31"><path d="M194.15 156.28c.86-3.66 2.44-4.73 4.24-5.07 4.93-.76 4.16 22.84-4.24 23.94v-18.87zm220.4-17.59c.99-4.13 2.76-5.33 4.79-5.72 5.58-.86 4.7 25.81-4.79 27.05v-21.33zm9.08-14.62c-.03.49-.05.98-.08 1.5l-4.02 2.52c12.86-.9 10.32 35.01-4.38 37.17-.35.05-.65.05-.96.02 0 1.83.05 3.55-.2 5.41-2.07 15.51-18.36 36.73-31.02 44.2-18.2 10.74-41.4 12.58-62.16-4.62-10.74-8.9-22.36-25.15-26.57-38.79-.93-3.03-.94-3.39-.94-6.2-11.11 2.26-16.31-22.16-12.48-31.95 2.4-6.09 8.42-6.99 12.48-2.32v-3.02l-3.02-1.7c-.36-2.45-.4-4.96-.26-7.48-2.76-4.62-3.51-8.56-2.64-11.9-1.22-1.66-1.97-3.45-2.13-5.39V66.68l53.94 16.48c5.1 1.11 10.29 1.68 15.57 1.67 4.93-.03 9.93-.56 15.02-1.67l56.47-16.31.93 34.36c-.34 3.23-1.24 5.98-2.68 8.25-.19.3-.42.6-.68.89 1.53 3.85 1.59 8.39-.19 13.72zm-98.75 82.41c24.88 18.58 52.96 10.78 71.37-13.11 6.56-8.52 10.91-18.2 11.93-26.95v-42.14c.58 0-.87-2.75-2.56-5.62-17.81 4.9-42.55 7.65-50.97 7.25-10.29-.49-35.56-2.98-52.61-9.54-1.64.99-2.75 2.55-3.24 4.86v46.12c3.12 15.01 14 30.1 26.08 39.13zm37.87-70.93c-.87 1.46-.62 2.99.77 3.76 2.75 1.55 6.27-.76 8.95-1.61 7.04-2.24 15.41-2.51 21.5 1.31 1.62 1.01 3.28 2.32 4.95 3.92-.62-2.22-1.59-4.25-3.01-6.06-5.35-6.82-17.96-7.97-26.47-5.26-2.08.66-5.54 2.07-6.69 3.94zm-19.35.43c.6 1.32.27 2.64-.97 3.33-2.77 1.55-6.27-.76-8.95-1.61-7.04-2.24-15.42-2.51-21.52 1.31-1.62 1.01-3.27 2.32-4.95 3.92.63-2.22 1.61-4.25 3.02-6.06 5.35-6.79 17.83-7.95 26.34-5.3 2.24.7 6.05 2.23 7.03 4.41zm-27.89 10.79c-.32-1.03.17-2.16 1.07-2.51 6.96-2.69 14.05-2.52 21.05 0 .9.35 1.41 1.45 1.13 2.49-.28 1.03-1.27 1.59-2.16 1.28-1.16-.41-2.32-.77-3.48-1.02a4.872 4.872 0 0 1-4.7 6.18c-2.68 0-4.88-2.19-4.88-4.87 0-.67.14-1.29.37-1.86-1.82.19-3.66.61-5.49 1.27-1.15.4-2.35.78-2.91-.96zm58.61 0c-.16.46-.24.97-.24 1.5 0 2.68 2.19 4.87 4.88 4.87a4.876 4.876 0 0 0 4.38-7.01c2.11.23 4.28.7 6.42 1.39.93.31 1.89-.3 2.14-1.37.26-1.05-.28-2.14-1.18-2.44-3.51-1.16-7.01-1.73-10.52-1.71-3.48 0-6.97.6-10.39 1.73-.94.31-1.45 1.39-1.2 2.42.26 1.03 1.25 1.66 2.15 1.35 1.1-.36 2.21-.66 3.31-.9.43-.08.35-.16.25.17zm-27.4 31.29c-.03-.56.13-1.12.52-1.59.81-.95 2.22-1.07 3.18-.28 2.32 1.95 4.3 1.91 6.62-.02.95-.8 2.38-.65 3.17.3.81.96.66 2.38-.3 3.18-3.62 2.99-7.68 3.36-11.56.63-.82-.58-1.56-1.11-1.63-2.22zm-7.45 14.7c-.48-1.95 1.61-3.65 3.41-2.67 7.22 3.82 14.2 4 21.41.03 2.76-1.48 4.98 2.63 2.29 4.15-8.07 4.47-16.53 4.59-24.81.56-.99-.48-1.99-.86-2.3-2.07zm-46.66-32.99v-21.08c-.99-4.13-2.77-5.33-4.81-5.72-5.44-.85-4.98 25.33 4.57 27.01.31.06.24.1.24-.21zm106.53 57.26c39.02 35.11 93.97-9.73 112.86 74.28H195.13c18.95-84.04 75.09-40.3 112.86-74.28 20.33 31.25 77.34 29.95 91.15 0zM450.07 42.1v41.99h1.33c.9 0 1.64.74 1.64 1.65v11.28c0 .9-.74 1.64-1.64 1.64h-1.33v3.96c1.68.31 2.97 1.81 2.97 3.58 0 2-1.64 3.64-3.64 3.64h-6.53a3.64 3.64 0 0 1-.66-7.22v-3.96h-1.33c-.9 0-1.64-.74-1.64-1.64V85.74c0-.91.74-1.65 1.64-1.65h1.33V44.55l-68.72 21.37c-12.45 2.96-24.89 3.16-37.34 0L260.3 43.28l-6.85-2.04c-8.54-3.5-6.41-11.7 1.54-13.58l85.79-25.61c8.85-2.53 17.69-2.92 26.54 0l84.24 25.3c9.16 2.22 10.97 10.71.31 14.19l-1.8.56zm-244.75 81.01-.81-30.4-49.97 14.43c-4.51.98-8.94 1.46-13.3 1.47-4.66.02-9.25-.49-13.77-1.47L79.74 92.55v30.84c.16 1.81.89 3.47 2.07 5.01-1.03 2.57-.45 5.92 2.16 10.28-.14 2.24-.1 4.46.23 6.62l2.66 1.51v2.67c-3.58-4.14-8.92-3.33-11.04 2.06-3.38 8.65 1.22 30.26 11.04 28.26 0 2.49.02 2.8.85 5.5 3.71 12.06 14 26.44 23.49 34.31 18.38 15.21 38.9 13.59 55.01 4.08 11.2-6.6 25.62-25.38 27.44-39.1.22-1.64.18-3.17.18-4.79.27.03.54.03.85-.02 13.01-1.9 15.25-33.68 3.87-32.88l3.56-2.23c.03-.46.04-.9.07-1.33 1.66-4.98 1.52-8.86-.06-11.9.32-.34.61-.68.83-1.03 1.27-2 2.07-4.44 2.37-7.3zM94.6 136.53c15.09 5.81 37.45 8 46.55 8.43 7.44.36 29.34-2.07 45.1-6.4 1.49 2.53 2.78 4.96 2.26 4.96v37.29c-.9 7.74-4.76 16.31-10.56 23.84-16.28 21.14-41.13 28.04-63.14 11.6-10.69-7.98-20.32-21.34-23.08-34.62v-40.8c.43-2.04 1.41-3.42 2.87-4.3zm130.97-65.71v37.15h1.18c.8 0 1.45.65 1.45 1.45v9.98c0 .8-.66 1.46-1.45 1.46h-1.18v3.5a3.24 3.24 0 0 1 2.63 3.17c0 1.77-1.45 3.22-3.23 3.22h-5.76a3.23 3.23 0 0 1-3.22-3.22 3.23 3.23 0 0 1 2.63-3.17v-3.5h-1.18c-.79 0-1.45-.65-1.45-1.46v-9.98c0-.8.65-1.45 1.45-1.45h1.18V72.98l-60.8 18.91c-11.02 2.62-22.03 2.8-33.04 0L57.67 71.86l-6.06-1.81c-7.56-3.09-5.68-10.34 1.36-12.01l75.9-22.67c7.83-2.23 15.66-2.58 23.48 0l74.55 22.39c8.09 1.98 9.7 9.48.27 12.56l-1.6.5zM180.51 225.6c5.77 5.19 11.94 8.39 18.28 10.49-9.39 10.29-17.24 25.71-22.72 49.18-.6 1.91-.93 3.94-.93 6.04H0c16.77-74.36 66.44-35.65 99.86-65.71 17.99 27.63 68.43 26.49 80.65 0zm-32.18-72.1c-.78 1.29-.56 2.65.66 3.33 2.44 1.37 5.55-.67 7.92-1.43 9.03-2.88 16.59-1.87 23.41 4.63-3.11-11.05-16.49-13.07-26.09-10.02-1.84.59-4.9 1.83-5.9 3.49zm-17.13.37c.53 1.17.24 2.35-.87 2.96-2.44 1.37-5.55-.67-7.91-1.43-9.03-2.88-16.6-1.87-23.42 4.63 3.14-11.01 16.36-13.06 25.98-10.05 1.98.62 5.35 1.96 6.22 3.89zm-24.69 9.56c-.28-.92.15-1.92.96-2.22 6.16-2.39 12.43-2.24 18.62 0 .8.3 1.25 1.28 1 2.19-.26.92-1.12 1.41-1.92 1.14-1.02-.36-2.05-.68-3.07-.91.11.37.15.75.15 1.17 0 2.37-1.91 4.31-4.31 4.31-2.38 0-4.31-1.94-4.31-4.31 0-.6.12-1.14.31-1.65-1.61.17-3.23.54-4.85 1.12-1.02.35-2.07.69-2.58-.84zm51.86-.01c-.13.41-.2.86-.2 1.34 0 2.36 1.94 4.3 4.3 4.3 2.38 0 4.32-1.94 4.32-4.3 0-.7-.16-1.33-.44-1.9 1.88.2 3.79.61 5.69 1.23.82.27 1.66-.27 1.89-1.21.23-.93-.25-1.89-1.05-2.17-3.1-1.02-6.2-1.53-9.3-1.5-3.09 0-6.17.52-9.2 1.53-.82.27-1.28 1.22-1.06 2.14.24.91 1.1 1.46 1.91 1.18.96-.3 1.94-.58 2.92-.78.38-.08.31-.14.22.14zm-24.24 27.68c-.02-.48.12-.99.46-1.39.72-.85 1.96-.96 2.81-.25 2.06 1.72 3.81 1.68 5.86-.02.85-.71 2.11-.58 2.81.27.7.84.58 2.1-.27 2.81-3.2 2.64-6.8 2.97-10.22.56-.74-.52-1.39-.98-1.45-1.98zm-6.59 13.01c-.42-1.72 1.42-3.22 3.02-2.36 6.38 3.38 12.56 3.54 18.94.03 2.44-1.31 4.41 2.32 2.03 3.67-7.15 3.95-14.63 4.06-21.95.5-.88-.42-1.77-.77-2.04-1.84zm-41.29-29.19v-18.64c-.87-3.66-2.45-4.73-4.25-5.07-4.81-.74-4.41 22.41 4.04 23.9.27.05.21.1.21-.19z"/></svg>