<svg xmlns="http://www.w3.org/2000/svg" shape-rendering="geometricPrecision" text-rendering="geometricPrecision" image-rendering="optimizeQuality" fill-rule="evenodd" clip-rule="evenodd" viewBox="0 0 512 468.88"><path d="m441.87 339.21-4.41-20.18c18.89 3.51 49.18 41.96 58.98 59.44 4.99 8.93 9.37 18.76 12.95 29.75 7.14 26.59.27 51.47-28.58 57.26-18.08 3.64-51.79 3.89-70.79 2.9-20.45-1.04-52.07-1.02-60.34-22.01-13.32-33.86 11.1-74.21 33.37-98.91 2.94-3.25 5.98-6.27 9.1-9.08 8.1-7.11 16.84-15.58 27.27-19.09l-10.07 18.75 14.63-19.39h7.7l10.19 20.56zm-9.45 13.34v5.64c3.72.4 6.92 1.16 9.57 2.3 5.53 2.39 11.89 9.46 11.89 15.85 0 1.75-.64 3.26-1.91 4.52-1.28 1.26-2.81 1.91-4.62 1.91-3.42 0-5.64-1.85-6.64-5.54-1.16-4.34-3.91-7.24-8.29-8.66v21.69c4.3 1.17 7.76 2.26 10.3 3.23 2.56.97 4.86 2.37 6.87 4.22 4.55 4.03 6.74 9.57 6.74 15.59 0 3.97-.92 7.67-2.79 11.12-4.25 7.89-12.48 11.68-21.12 12.38v12.99c0 2.05-.2 3.54-.61 4.49-.39.94-1.26 1.4-2.63 1.4-1.25 0-2.12-.37-2.63-1.13-.5-.77-.75-1.96-.75-3.56v-14.08c-4.06-.44-7.62-1.41-10.66-2.86-7.33-3.51-13.57-10.69-13.57-19.15 0-7.13 10.81-9.15 13.02-2.35 2.21 6.8 3.82 11.47 11.21 13.56v-24.24c-4.66-1.29-8.54-2.72-11.67-4.3-3.13-1.59-5.68-3.82-7.62-6.74-1.94-2.92-2.92-6.68-2.92-11.27 0-5.97 1.91-10.89 5.71-14.7 3.81-3.82 9.31-6.04 16.5-6.67v-5.53c0-2.92 1.1-4.38 3.29-4.38 2.23 0 3.33 1.42 3.33 4.27zm-6.62 35.77v-19.97c-2.92.88-5.2 2.01-6.83 3.44-1.64 1.42-2.46 3.59-2.46 6.47 0 2.74.77 4.82 2.3 6.23 1.53 1.41 3.86 2.69 6.99 3.83zm6.62 15.48v22.85c6-1.19 11-5.12 11-11.64 0-6.84-5.21-9.39-11-11.21zm-19.14-113.61c-3.33-9.83-6.33-19.77-8.86-29.87 9.43-10.36 45.94-8.98 56.43-.16l-9.71 23.11c5.23-6.87 6.98-9.69 10.1-13.51 1.3.85 2.54 1.81 3.7 2.87 2.76 2.5 5.23 5.26 5.73 9.12.32 2.5-.39 5.04-2.61 7.63l-22.31 25.98c-2.86-.48-5.66-1.16-8.38-2.13 1.26-2.98 2.79-6.25 4.05-9.22l-8.12 8.76c-8.45-1.78-15.25-.72-21.59 2.63l-22.61-27.14c-1.34-1.61-1.95-3.24-1.95-4.85.03-6.56 9.79-12.22 14.92-14.37l11.21 21.15zM142.35 123.43l.76-28.14 80.49 23.25c14.51 3.15 29.1 3.15 43.62 0l76.88-23.5v32.35c0 15.5.95 39.83-6.47 51.94.68.32 1.33.72 1.94 1.18 2.11 1.6 3.76 3.99 4.94 6.97 2.37 5.97 2.5 13.44 1.79 19.76l-.01.08c-.78 7.07-2.93 14.32-6.51 19.79-3.08 4.71-7.24 8.15-12.52 9.22a123.82 123.82 0 0 1-4.68 14.68c-5.39 13.85-13.28 26.94-23.22 37.99 3.37 4.94 7.05 10.35 10.71 15.29 12.54 10.81 36.51 17.42 60.91 23.14-1.03 1.04-2.16 2.24-3.41 3.6l-1.3 1.33c-14.24 15.78-29.35 37.52-37.25 60.93-6.67 19.78-8.28 40.72-.58 60.74H25.55c-21.08-1.61-28.49-14.3-24.53-33.46 4.35-20.95 7.05-36.76 20.94-55.1 6.33-8.35 14.18-14.52 22.88-19.38 25.91-14.45 93.01-19.29 121.59-38.59 4.46-5.76 9.08-12.55 13.21-18.61.8-1.17-4.77-6.38-5.75-7.59-5.57-6.88-17.81-23.96-20.9-32.35-1.75-4.77-2.53-9.46-2.99-12.27l-.04-.57c-4.84-1.26-8.69-4.57-11.58-9-5.39-8.22-7.58-20.68-6.71-30.65.27-3.12.88-6.22 1.98-8.98 1.29-3.26 3.14-5.81 5.55-7.4 2.4-1.57 5.25-2.18 8.55-1.57l.35.07c-1.38-2.44-2.51-5.49-3.42-8.85-4.88-18.01-2.81-28.69-2.33-46.3zm173.56 43.99c-24.08 8.21-56.91 11.4-70.73 12.06-13.74.65-58.03-4.58-83.02-13.56v30.74c0 13.45-1.84 40.69 3.24 52.07 3.97 8.9 13 21.21 19.57 28.57 7.74 8.69 15.77 15.25 23.87 19.9 22.96 13.17 47.68 11.42 68.95-4.14 15.19-11.1 32.02-34.53 36.36-53.1 1.56-6.67 1.76-13.73 1.76-24.42v-48.12zM288.7 299.34a93.504 93.504 0 0 1-9.36 6.94c-22.82 14.79-48.41 16.67-72.53 3.6-5.67-3.07-11.33-7.01-16.96-11.89-5.3 6.61-10.97 14.38-15.72 20.32 24.33 56.93 119.34 58.09 133 3.13-5.8-6.79-12.66-14.54-18.43-22.1zM328 196.46v27.36c3.94-3.14 6.29-10.55 7.08-17.79.46-4.22.54-10.41-1.05-14.4-1.05-2.66-2.21-2.59-3.87-.31-.86 1.17-1.6 2.87-2.16 5.14zm-177.85 27.36v-27.36c-.55-2.25-1.3-3.96-2.16-5.14-1.65-2.28-2.82-2.35-3.87.31-.62 1.57-1.04 3.71-1.22 6.15-.2 2.56-.14 5.4.17 8.25.79 7.23 3.15 14.65 7.08 17.79zm-40.99-163.8v59.85h-1.89a2.35 2.35 0 0 0-2.34 2.34v16.09c0 1.28 1.06 2.34 2.34 2.34h1.89v5.64c-2.4.45-4.23 2.58-4.23 5.1 0 2.85 2.35 5.19 5.19 5.19h9.29c2.85 0 5.2-2.33 5.2-5.19 0-2.53-1.84-4.65-4.24-5.1v-5.64h1.89c1.29 0 2.35-1.05 2.35-2.34v-16.09c0-1.29-1.06-2.34-2.35-2.34h-1.89V63.5l97.95 30.47c17.75 4.22 35.49 4.5 53.23 0L379.67 61.7l9.77-2.92c12.17-4.97 9.13-16.67-2.2-19.36L264.95 2.91c-12.61-3.59-25.22-4.16-37.83 0L107.03 38.98c-13.04 3.18-15.63 15.27-.44 20.24l2.57.8z"/></svg>