<svg xmlns="http://www.w3.org/2000/svg" shape-rendering="geometricPrecision" text-rendering="geometricPrecision" image-rendering="optimizeQuality" fill-rule="evenodd" clip-rule="evenodd" viewBox="0 0 448 512.23"><path fill-rule="nonzero" d="m235.07 18.99 97.56 167.47L448 127.75l-74.79 128.37L448 384.48l-115.37-58.71L224 512.23 115.37 325.77 0 384.48l74.79-128.36L0 127.75l115.37 58.71L224 0l11.07 18.99zm110.48 189.64 12.87 22.09 23.7-40.7-36.57 18.61zm36.57 113.58-23.7-40.69-12.87 22.08 36.57 18.61zm-38.5-66.09-20.9-35.87-70.48 35.87 70.48 35.86 20.9-35.86zm-33.82-58.04L224 50.8l-85.8 147.28 85.8 43.66 85.8-43.66zm0 116.07L224 270.49l-85.8 43.66L224 461.43l85.8-147.28zm-114.04-58.03-70.48-35.87-20.89 35.87 20.89 35.86 70.48-35.86zm-93.31-47.49-36.57-18.61 23.71 40.7 12.86-22.09zm0 94.97-12.86-22.08-23.71 40.7 36.57-18.62z"/></svg>