<svg xmlns="http://www.w3.org/2000/svg" shape-rendering="geometricPrecision" text-rendering="geometricPrecision" image-rendering="optimizeQuality" fill-rule="evenodd" clip-rule="evenodd" viewBox="0 0 424 511.9"><path fill-rule="nonzero" d="M48.08 493.62h355.07c.72 0 1.36-.28 1.81-.73l.03-.03c.45-.45.73-1.09.73-1.81v-47.34H48.08c-12.91 0-21.05 6.36-24.5 14.5-1.38 3.26-2.07 6.83-2.07 10.41 0 3.56.7 7.13 2.09 10.41 3.47 8.18 11.61 14.59 24.48 14.59zm1.35-470.39v402.2h356.2V18.28H70.4c-7.84.44-14.85 2.15-20.97 4.95zM33.77 427.34V34.64l-.99 1.12c-9.52 11.14-14.5 26.94-14.5 45.09v354.62c4.27-3.58 9.43-6.4 15.49-8.13zM224.19 98.62c0-1.26.22-2.42.66-3.48.44-1.07 1.11-2.03 1.99-2.9.88-.87 1.84-1.53 2.88-1.97 1.04-.43 2.17-.66 3.37-.66 1.2 0 2.32.23 3.36.66 1.03.44 1.98 1.1 2.85 1.97.86.87 1.51 1.84 1.94 2.9.43 1.06.65 2.22.65 3.48 0 1.21-.22 2.36-.65 3.42a9.1 9.1 0 0 1-1.94 2.91c-.86.89-1.81 1.55-2.85 2-1.03.45-2.16.67-3.36.67-1.24 0-2.38-.22-3.44-.66-1.04-.44-2-1.11-2.87-1.99a8.834 8.834 0 0 1-1.94-2.91 9.079 9.079 0 0 1-.65-3.44zm3.4 52.63-.19.69-.13.55-.06.37-.01.29c0 .28.03.51.09.71l.01.02c.06.18.14.32.25.45.1.11.24.2.39.26.17.07.38.1.61.1.42 0 .96-.23 1.6-.7.69-.5 1.48-1.26 2.37-2.27.91-1.02 1.85-2.23 2.83-3.63.98-1.39 2-2.99 3.07-4.77.11-.19.36-.25.55-.14l3.62 2.69c.17.12.21.36.1.54-1.66 2.89-3.34 5.41-5.04 7.57-1.72 2.16-3.45 3.96-5.22 5.39l-.02.02c-1.76 1.42-3.56 2.49-5.41 3.21-1.86.72-3.77 1.09-5.72 1.09-1.68 0-3.18-.2-4.48-.6-1.32-.4-2.43-1.02-3.34-1.83-.91-.82-1.6-1.82-2.06-2.99-.45-1.16-.67-2.5-.67-3.99 0-.49.03-1.02.09-1.57s.15-1.14.27-1.74l.01-.02c.11-.59.27-1.26.47-2 .2-.75.45-1.58.73-2.49l6.36-19.62.51-1.84c.14-.52.25-.97.33-1.36.08-.36.14-.69.18-.99.04-.33.05-.61.05-.85 0-.44-.07-.85-.21-1.21l-.01-.03a2.89 2.89 0 0 0-.63-.89c-.29-.26-.64-.47-1.04-.6-.41-.14-.88-.21-1.4-.21h-5.1c-.22 0-.41-.18-.41-.41l.02-.14 1.35-4.87c.04-.19.21-.3.39-.3l26.06-.82c.23-.01.41.17.42.39l-.02.13-11.56 38.41zm-.85-99.73c20.72 0 39.5 8.41 53.1 22 13.62 13.6 22.04 32.39 22.04 53.13 0 20.75-8.42 39.53-22.01 53.13l-.41.38c-13.57 13.37-32.19 21.63-52.72 21.63-20.72 0-39.5-8.42-53.1-22.01-13.62-13.6-22.04-32.38-22.04-53.13 0-20.74 8.42-39.53 22.01-53.13l.41-.37c13.57-13.38 32.19-21.63 52.72-21.63zm43.45 31.68c-11.11-11.11-26.47-17.99-43.45-17.99-16.81 0-32.03 6.74-43.12 17.65l-.33.35c-11.11 11.11-17.99 26.48-17.99 43.44 0 16.97 6.88 32.33 17.99 43.45 11.11 11.11 26.47 17.99 43.45 17.99 16.81 0 32.03-6.74 43.12-17.65l.33-.34c11.11-11.12 17.99-26.48 17.99-43.45 0-16.96-6.88-32.33-17.99-43.45zM150.42 240.65v37.31h5.65c2.01 0 3.39-.26 4.13-.76.75-.5 1.12-1.66 1.12-3.46v-33.09h15.91v27.92c0 4.51-.29 8.14-.88 10.9-.58 2.75-1.67 5.09-3.26 7-1.59 1.9-3.77 3.23-6.52 3.98-2.76.74-6.34 1.11-10.74 1.11s-7.97-.37-10.7-1.11c-2.73-.75-4.89-2.08-6.48-3.98-1.59-1.91-2.68-4.25-3.26-7-.59-2.76-.88-6.39-.88-10.9v-27.92h15.91zm32.77 48.84 2.23-13.13c4.88 1.23 9.26 1.84 13.16 1.84 3.9 0 7.04-.16 9.43-.48v-3.98l-7.16-.63c-6.47-.59-10.91-2.14-13.32-4.66-2.42-2.52-3.62-6.24-3.62-11.17 0-6.79 1.47-11.46 4.41-14 2.95-2.55 7.94-3.82 15-3.82 7.05 0 13.41.66 19.08 1.99l-1.99 12.72c-4.93-.79-8.88-1.19-11.85-1.19-2.97 0-5.48.13-7.55.4v3.9l5.73.55c6.94.69 11.74 2.35 14.39 4.97 2.65 2.63 3.98 6.27 3.98 10.94 0 3.34-.45 6.16-1.35 8.47-.91 2.31-1.98 4.06-3.22 5.25-1.25 1.19-3.01 2.11-5.29 2.74-2.29.64-4.29 1.02-6.01 1.16-1.72.13-4.01.2-6.88.2-6.89 0-13.28-.69-19.17-2.07zm80.89-17.9h-15.91v6.05h19.49v12.72h-35.39v-49.71h35l-1.99 12.73h-17.11v6.68h15.91v11.53zm54.89 18.77h-17.5l-6.52-14.79h-3.43v14.79h-15.9v-49.71h25.05c11.4 0 17.11 5.81 17.11 17.42 0 7.95-2.47 13.2-7.4 15.75l8.59 16.54zm-27.45-36.98v9.94h3.67c1.9 0 3.29-.2 4.17-.59.88-.4 1.31-1.32 1.31-2.75v-3.26c0-1.43-.43-2.35-1.31-2.75-.88-.39-2.27-.59-4.17-.59h-3.67zM95.58 371.01H78.96l3.02-49.71h20.76l6.2 25.29h.56l6.2-25.29h20.76l3.02 49.71h-16.62l-.95-24.1h-.56l-6.04 24.1h-12.18l-6.12-24.1h-.48l-.95 24.1zm61.72 0h-16.78l12.88-49.71h24.58l12.89 49.71h-16.78l-1.84-7.88h-13.12l-1.83 7.88zm7.95-34.44-3.26 13.92h7.32l-3.18-13.92h-.88zm57.83 34.44-12.17-17.66c-.42-.58-.69-1.86-.79-3.82h-.32v21.48h-15.91V321.3h14.96l12.16 17.65c.43.59.69 1.86.8 3.82h.32V321.3h15.91v49.71h-14.96zm37.63-49.71v37.3h5.64c2.02 0 3.4-.25 4.14-.76.74-.5 1.11-1.65 1.11-3.46V321.3h15.91v27.91c0 4.51-.29 8.14-.88 10.9-.58 2.76-1.66 5.09-3.25 7-1.6 1.91-3.77 3.23-6.53 3.98-2.75.74-6.33 1.11-10.73 1.11-4.41 0-7.97-.37-10.71-1.11-2.72-.75-4.89-2.07-6.48-3.98-1.59-1.91-2.67-4.24-3.26-7-.58-2.76-.87-6.39-.87-10.9V321.3h15.91zm45.41 49.71h-16.78l12.89-49.71h24.57l12.89 49.71h-16.78l-1.83-7.88h-13.13l-1.83 7.88zm7.96-34.44-3.26 13.92h7.31l-3.18-13.92h-.87zm60.45 34.44h-31.82V321.3h15.91v36.98h15.91v12.73zM32 474.84h361.16v8.01H35.81c-1.53-2.51-2.82-5.2-3.81-8.01zm3.82-20.36a42.398 42.398 0 0 0-3.82 8.01h361.16v-8.01H35.82zM6.09 484.95c-2.05-5.13-3.58-10.61-4.58-16.34C.5 462.85 0 456.81 0 450.58V80.85c0-22.45 6.5-42.4 18.92-56.94C30.86 9.94 48.06 1.13 69.98.04L70.4 0h353.51v439.65c.06.55.09 1.12.09 1.69v49.71c0 5.69-2.34 10.88-6.1 14.67l-.04.04c-3.81 3.79-9.01 6.14-14.71 6.14H48.08c-21.32 0-35.12-11.33-41.26-25.8l-.5-1.24-.23.09z"/></svg>