<svg id="Layer_1" data-name="Layer 1" xmlns="http://www.w3.org/2000/svg" viewBox="0 0 122.88 80.11"><defs><style>.cls-1{fill:#ffcb00;}.cls-2{fill:#262626;}.cls-3{fill:#fd5;}</style></defs><title>4k</title><path class="cls-1" d="M14.18,0H108.7a14.19,14.19,0,0,1,14.18,14.18V65.93A14.22,14.22,0,0,1,114.12,79a14.05,14.05,0,0,1-5.42,1.08H14.18A14.15,14.15,0,0,1,4.17,76h0A14.15,14.15,0,0,1,0,65.93V14.18A14.19,14.19,0,0,1,14.18,0Z"/><path class="cls-2" d="M16.07,7.25H106.8a6.81,6.81,0,0,1,2.65.52,6.7,6.7,0,0,1,2.25,1.51,7,7,0,0,1,1.52,2.26,6.72,6.72,0,0,1,.52,2.64V65.93a6.9,6.9,0,0,1-.52,2.64,7,7,0,0,1-1.52,2.26,6.88,6.88,0,0,1-2.25,1.52,7,7,0,0,1-2.65.52H16.07a6.81,6.81,0,0,1-4.89-2,7,7,0,0,1-1.52-2.26,6.72,6.72,0,0,1-.52-2.64V14.18a6.72,6.72,0,0,1,.52-2.64,7,7,0,0,1,1.52-2.26,6.7,6.7,0,0,1,2.25-1.51,6.79,6.79,0,0,1,2.64-.52Z"/><path class="cls-3" d="M39.7,53.22H19V43.86L39.7,19.22h9.9V44.41h5.15v8.81H49.6v7.67H39.7V53.22ZM60.46,19.91H73.11V35.39L86.38,19.91h16.84l-15,15.39,15.65,25.59H88.33L79.68,44.06l-6.57,6.85v10H60.46v-41ZM39.7,44.41V31.47l-11,12.94Z"/></svg>