<svg id="Layer_1" data-name="Layer 1" xmlns="http://www.w3.org/2000/svg" viewBox="0 0 122.88 90.46"><defs><style>.cls-1{fill-rule:evenodd;}</style></defs><title>camera-setting</title><path class="cls-1" d="M36.8,51.32a2.15,2.15,0,0,0-3.08,0l-2.35,2.34a16,16,0,0,0-2-1.08,21.31,21.31,0,0,0-2.13-.83V48.14A2.15,2.15,0,0,0,25.07,46H20.55A2.11,2.11,0,0,0,19,46.6a2.09,2.09,0,0,0-.65,1.54v3.31a14.61,14.61,0,0,0-2.19.67,17.92,17.92,0,0,0-2,.93l-2.6-2.56a2,2,0,0,0-1.5-.65,2.14,2.14,0,0,0-1.55.65L5.35,53.66a2.14,2.14,0,0,0,0,3.09L7.69,59.1a15.21,15.21,0,0,0-1.08,2,19.13,19.13,0,0,0-.83,2.13H2.17a2.11,2.11,0,0,0-1.54.63A2.09,2.09,0,0,0,0,65.39v4.53a2.14,2.14,0,0,0,.63,1.52,2.11,2.11,0,0,0,1.54.64h3.3a15.49,15.49,0,0,0,.68,2.19,17.61,17.61,0,0,0,.93,2.07L4.51,78.9a2,2,0,0,0-.65,1.51A2.17,2.17,0,0,0,4.51,82l3.18,3.21a2.25,2.25,0,0,0,3.08,0l2.36-2.39a14.64,14.64,0,0,0,2,1.09c.7.31,1.41.59,2.13.83v3.6a2.09,2.09,0,0,0,.63,1.54,2.05,2.05,0,0,0,1.54.63h4.52a2.19,2.19,0,0,0,2.17-2.17V85a17.38,17.38,0,0,0,2.19-.67,21.48,21.48,0,0,0,2.07-.94L32.93,86a2,2,0,0,0,1.52.65A2,2,0,0,0,36,86l3.21-3.18a2.25,2.25,0,0,0,0-3.08L36.8,77.34a15.33,15.33,0,0,0,1.08-2,19,19,0,0,0,.83-2.12h3.61a2.06,2.06,0,0,0,1.54-.64A2.09,2.09,0,0,0,44.49,71V66.52A2.13,2.13,0,0,0,43.86,65a2.07,2.07,0,0,0-1.54-.65H39a18.08,18.08,0,0,0-.68-2.17,15.37,15.37,0,0,0-.93-2L40,57.53a2,2,0,0,0,.66-1.5A2.11,2.11,0,0,0,40,54.48L36.8,51.32ZM58.63,0H95.5l8.4,15h17.31a1.69,1.69,0,0,1,1.67,1.68V75.06a1.71,1.71,0,0,1-1.67,1.67H49.45a8.89,8.89,0,0,0,1.29-2.21A9.06,9.06,0,0,0,51.45,71V66.52a9.18,9.18,0,0,0-2.59-6.33L48.67,60a9.68,9.68,0,0,0-1.53-1.21A8.86,8.86,0,0,0,47.58,56a9,9,0,0,0-.73-3.55c-.1-.23-.22-.46-.34-.68a9.45,9.45,0,0,0-1.62-2.21l-3.2-3.19a9.13,9.13,0,0,0-2.94-2,6.49,6.49,0,0,0-.74-.26,8.73,8.73,0,0,0-4.84-.2L33,43.62a9,9,0,0,0-1.45-1.91l0,0a8.93,8.93,0,0,0-3-2l-.38-.14a8.93,8.93,0,0,0-3-.53H20.55a8.62,8.62,0,0,0-1.53.13V16.68A1.68,1.68,0,0,1,20.69,15h7.79V9.64h9.61V15H48.54Q51.8,8.57,55.06,2.14C56.38-.48,55.65,0,58.63,0ZM75.35,26.79a16.52,16.52,0,1,1-11.69,4.84,16.47,16.47,0,0,1,11.69-4.84Zm7.4,9.13a10.45,10.45,0,1,0,3.07,7.4,10.45,10.45,0,0,0-3.07-7.4ZM112.06,22.4a5,5,0,1,1-5,5,5,5,0,0,1,5-5Zm-36.71-4a25,25,0,1,1-25,25,25,25,0,0,1,25-25Zm-53.1,41A9,9,0,0,1,25.7,60a9.09,9.09,0,0,1,2.83,1.9,9.19,9.19,0,0,1,1.89,2.82,9,9,0,0,1,0,6.91,9.23,9.23,0,0,1-1.89,2.83,9.36,9.36,0,0,1-2.83,1.89,9,9,0,0,1-6.91,0A9.36,9.36,0,0,1,16,74.5a9.12,9.12,0,0,1-1.89-2.83,9,9,0,0,1,0-6.91A8.8,8.8,0,0,1,18.79,60a9,9,0,0,1,3.46-.68Z"/></svg>