<svg xmlns="http://www.w3.org/2000/svg" shape-rendering="geometricPrecision" text-rendering="geometricPrecision" image-rendering="optimizeQuality" fill-rule="evenodd" clip-rule="evenodd" viewBox="0 0 512 329.79"><path fill-rule="nonzero" d="M63.64 0h256.87c17.41 0 33.28 7.24 44.81 18.77 11.6 11.6 18.82 27.62 18.82 45v2.94L493.42 18.3c6.69-2.94 14.5.1 17.44 6.78.76 1.73 1.13 3.55 1.13 5.33l.01 268.98c0 7.31-5.94 13.25-13.25 13.25-2.28 0-4.42-.58-6.3-1.6l-108.31-50.06v5.05c0 17.33-7.28 33.29-18.88 44.9l-.08.08c-11.55 11.52-27.46 18.78-44.67 18.78H63.64c-17.28 0-33.21-7.19-44.8-18.76C7.23 299.4 0 283.49 0 266.03V63.77c0-17.54 7.18-33.49 18.73-45.05C30.28 7.18 46.18 0 63.64 0zm104.72 229.13c-1.12.48-2.49.26-3.39-.65l-53.52-53.53c-1.19-1.21-1.21-3.18 0-4.38l19.44-19.45c1.21-1.21 3.17-1.19 4.38 0l31.94 31.94 81.65-81.65a3.096 3.096 0 0 1 4.38 0l19.45 19.44a3.105 3.105 0 0 1 0 4.38L169.52 228.4c-.27.27-.57.47-.89.62h-.01l-.12.05-.02.02-.12.04zm216.71-133.9v137.06l100.44 46.42V50.75L385.07 95.23zm-64.56-68.74H63.64a37.36 37.36 0 0 0-26.47 10.96c-6.75 6.75-10.95 16.07-10.95 26.32v202.26c0 10.18 4.22 19.45 10.95 26.16 6.86 6.87 16.28 11.11 26.47 11.11h256.87c10.14 0 19.52-4.29 26.32-11.11 6.83-6.82 11.09-16.11 11.09-26.16V63.77c0-10.11-4.24-19.47-11.04-26.27-6.76-6.75-16.11-11.01-26.37-11.01z"/></svg>