<svg xmlns="http://www.w3.org/2000/svg" shape-rendering="geometricPrecision" text-rendering="geometricPrecision" image-rendering="optimizeQuality" fill-rule="evenodd" clip-rule="evenodd" viewBox="0 0 512 425.3"><path d="M256 196c63.31 0 114.65 51.33 114.65 114.65 0 63.32-51.34 114.65-114.65 114.65-63.32 0-114.65-51.33-114.65-114.65C141.35 247.33 192.68 196 256 196zm103.79-71.3c-3.13 1.55-6.3 3.25-9.42 5.05-9.37 5.49-18.63 12.21-28.08 19.92l-20.17-23.09c6.96-6.45 14.5-12.33 22.5-17.53 6.37-4.17 13.04-7.88 19.92-11.05 2.75-1.38 5.5-2.67 8.33-3.87-13.29-23.55-32.42-40.42-54.09-50.83-43.06-20.62-96.68-16.14-134.61 13.32-21.79 16.88-38.33 42.13-44.71 75.59l-2 10.45-10.42 1.84c-10.21 1.79-19.32 4.25-27.33 7.38-7.75 3-14.66 6.71-20.7 11.08-4.84 3.5-9.01 7.42-12.54 11.66-10.97 13.13-16.05 29.58-15.93 46.26.13 16.9 5.63 33.99 15.8 48.03 3.79 5.21 8.16 10.01 13.16 14.17 5.09 4.2 10.79 7.71 17.21 10.34 6.37 2.62 13.42 4.49 21.21 5.58h11.34c-.31 3.84-.46 7.73-.46 11.64 0 6.45.41 12.8 1.22 19.02h-12.6l-1.92-.16c-11.12-1.42-21.21-4.05-30.37-7.83-9.46-3.93-17.84-8.96-25.21-15.13-7-5.83-13.12-12.46-18.33-19.67C7.67 267.71.17 244.29 0 220.95c-.16-23.58 7.17-47.03 23.01-66.04 5.12-6.16 11.15-11.82 18.07-16.83 8.05-5.83 17.25-10.75 27.68-14.78 7.16-2.8 14.82-5.14 22.91-7.01 9.17-36.41 28.71-64.45 53.83-83.91C192.57-4.1 258.61-9.92 312.04 15.75c29.2 14.05 54.7 37.42 71.25 70.29 6.66-1.04 13.33-1.58 19.95-1.5 69.26.52 109.46 59.53 108.75 124.04-.29 26.29-7.37 52.46-21.88 71.71-9.45 12.54-21.58 22.79-36.12 30.91-13.99 7.84-30.33 13.8-48.66 18.05l-3.34.41a149.188 149.188 0 0 0 .7-31.28c13.69-3.49 25.85-8.07 36.26-13.88 10.96-6.13 19.92-13.59 26.62-22.54 10.42-13.88 15.55-33.5 15.75-53.62.57-47.23-26.49-92.88-78.29-93.21-14.29-.13-29.16 3.33-43.24 9.57zm-59.14 126.4v81.75l.02.18.02.1.04.4.04.32.04.79.02.18v.12l-.02.04c-.02 1.24-.21 2.49-.56 3.67-.34 1.18-.84 2.31-1.43 3.37-2.93 5.12-8.99 9.35-15.95 10.54-1.36.24-2.65.34-3.88.34-3.76 0-7.16-1.01-9.79-2.77-2.87-1.94-4.84-4.74-5.44-8.16l-.01.01v-.02c-.11-.7-.17-1.42-.17-2.12v-.11l.02-.04c.01-1.24.21-2.5.56-3.67.33-1.18.83-2.31 1.43-3.37 2.93-5.13 8.99-9.34 15.95-10.54l.1-.02.97-.15.22-.01.96-.08.17-.02.94-.04h.11v-38.16l-42.62 12.25v52.46l.02.26v.15l.02.46.02.1v.12l-.02.04a15.7 15.7 0 0 1-.64 4.19c-.4 1.31-.96 2.61-1.66 3.85-3.4 5.95-10.46 10.88-18.53 12.27-5.41.91-11.14.33-15.79-2.79-7.06-4.73-8-12.99-4.06-19.83 3.4-5.96 10.44-10.88 18.53-12.28h.05l.35-.06.04-.01c.42-.07.98-.14 1.74-.2.55-.06 1.13-.11 1.71-.11h.02c.9-.01 1.77.02 2.63.08V267.1l73.83-16z"/></svg>