<svg xmlns="http://www.w3.org/2000/svg" shape-rendering="geometricPrecision" text-rendering="geometricPrecision" image-rendering="optimizeQuality" fill-rule="evenodd" clip-rule="evenodd" viewBox="0 0 512 329.79"><path fill-rule="nonzero" d="M63.64 0h256.87c17.41 0 33.28 7.24 44.81 18.77 11.6 11.6 18.82 27.62 18.82 45v2.94L493.42 18.3c6.69-2.94 14.5.1 17.44 6.78.76 1.73 1.13 3.55 1.13 5.33l.01 268.98c0 7.31-5.94 13.25-13.25 13.25-2.28 0-4.42-.58-6.3-1.6l-108.31-50.06v5.05c0 17.33-7.28 33.29-18.88 44.9l-.08.08c-11.55 11.52-27.46 18.78-44.67 18.78H63.64c-17.28 0-33.21-7.19-44.8-18.76C7.23 299.4 0 283.49 0 266.03V63.77c0-17.54 7.18-33.49 18.73-45.05C30.28 7.18 46.18 0 63.64 0zm108.31 227.68-46.14 12.29 6.68-49.51 39.46 37.22zm45.02-136.42c1.19-1.37 3.64-2 5.33-.8l34.96 31.8c1.48 1.48 1.42 3.75-.12 5.34l-75.16 88.83-39.42-37.22 74.41-87.95zm168.1 3.97v137.06l100.44 46.42V50.75L385.07 95.23zm-64.56-68.74H63.64a37.36 37.36 0 0 0-26.47 10.96c-6.75 6.75-10.95 16.07-10.95 26.32v202.26c0 10.18 4.22 19.45 10.95 26.16 6.86 6.87 16.28 11.11 26.47 11.11h256.87c10.14 0 19.52-4.29 26.32-11.11 6.83-6.82 11.09-16.11 11.09-26.16V63.77c0-10.11-4.24-19.47-11.04-26.27-6.76-6.75-16.11-11.01-26.37-11.01z"/></svg>