<svg xmlns="http://www.w3.org/2000/svg" shape-rendering="geometricPrecision" text-rendering="geometricPrecision" image-rendering="optimizeQuality" fill-rule="evenodd" clip-rule="evenodd" viewBox="0 0 512 329.8"><path fill-rule="nonzero" d="M63.64 0h256.87c17.41 0 33.29 7.25 44.81 18.77 11.6 11.6 18.82 27.62 18.82 45v2.94L493.43 18.3c6.68-2.94 14.49.1 17.43 6.78.77 1.73 1.13 3.55 1.13 5.33l.01 268.98c0 7.31-5.93 13.25-13.24 13.25-2.29 0-4.43-.57-6.3-1.6l-108.32-50.06v5.05c0 17.33-7.28 33.29-18.87 44.9l-.09.08c-11.55 11.53-27.44 18.79-44.67 18.79H63.64c-17.28 0-33.21-7.2-44.8-18.77C7.23 299.4 0 283.49 0 266.03V63.77c0-17.53 7.18-33.49 18.73-45.05C30.28 7.18 46.18 0 63.64 0zm321.43 95.23v137.06l100.44 46.42V50.75L385.07 95.23zM197.43 83.27l21.61 52.84 57 4.22c3.2.22 5.61 3.01 5.39 6.22-.11 1.67-.93 3.11-2.11 4.09l-43.54 36.84 13.57 55.48c.75 3.11-1.17 6.26-4.27 7.01a5.93 5.93 0 0 1-4.42-.72l-48.59-30.07-48.6 30.08c-2.72 1.68-6.32.84-7.99-1.88a5.843 5.843 0 0 1-.71-4.44l13.59-55.46-43.59-36.9c-2.46-2.06-2.76-5.75-.69-8.19a5.664 5.664 0 0 1 4.02-2.04l56.99-4.24 21.62-52.84c1.19-2.96 4.59-4.37 7.55-3.18 1.49.6 2.6 1.79 3.17 3.18zm123.08-56.78H63.64a37.36 37.36 0 0 0-26.47 10.96c-6.75 6.75-10.95 16.08-10.95 26.32v202.26c0 10.18 4.22 19.45 10.95 26.17 6.86 6.86 16.28 11.1 26.47 11.1h256.87c10.14 0 19.52-4.29 26.32-11.1 6.83-6.82 11.09-16.12 11.09-26.17V63.77c0-10.11-4.24-19.46-11.04-26.26-6.76-6.76-16.1-11.02-26.37-11.02z"/></svg>