<svg id="Layer_1" data-name="Layer 1" xmlns="http://www.w3.org/2000/svg" viewBox="0 0 122.88 70.53"><defs><style>.cls-1{fill:#ffcb00;}.cls-1,.cls-2{fill-rule:evenodd;}.cls-2,.cls-3{fill:#262626;}.cls-4{fill:#fd5;}</style></defs><title>full-hd-4k</title><path class="cls-1" d="M8.11,0H114.77a8.13,8.13,0,0,1,8.11,8.11V62.42a8.13,8.13,0,0,1-8.11,8.11H8.11A8.13,8.13,0,0,1,0,62.42V8.11A8.13,8.13,0,0,1,8.11,0Z"/><path class="cls-2" d="M3.33,32.08H119.55v-24a4.81,4.81,0,0,0-4.78-4.78H8.11A4.81,4.81,0,0,0,3.33,8.11v24Z"/><path class="cls-3" d="M48.07,59.69H35.24V53.9L48.07,38.65h6.12V54.24h3.19v5.45H54.19v4.75H48.07V59.69Zm0-5.45v-8l-6.78,8ZM60.75,39.07h7.83v9.59l8.21-9.59H87.21L78,48.6l9.69,15.84H78L72.65,54l-4.07,4.24v6.18H60.75V39.07Z"/><path class="cls-4" d="M17.18,13.43l-.09,3.4h2l3.4-.09.32.41-.35,4.27-3.78-.09H17v.38l.24,6.15H11.32l.3-5.56-.3-13.38H24l.32.41-.38,4.28-4.68-.18ZM56,23.47l-.35,4.39H44.35l.29-5.56L44.35,8.92h6L50,21.71l.06,1.35h5.59l.32.41Zm13,0-.35,4.39H57.39l.3-5.56-.3-13.38h6L63,21.71l.06,1.35h5.59l.32.41Zm22.13-1.76.23,6.15H85.49l.29-5.56,0-1.46-3.16-.06-2.72.08,0,.85.24,6.15H74.19l.3-5.56-.3-13.38h6L80,16.09l3,.06,2.7-.06-.15-7.17h6l-.32,12.79Zm11.75-12.9a8.53,8.53,0,0,1,6.43,2.26,9,9,0,0,1,2.24,6.55c0,3.37-.88,6-2.61,7.78s-4.22,2.72-7.46,2.72c-2,0-4.41-.08-7.14-.26l.29-5.56L94.35,8.92l8.54-.11Zm-.29,15a2.33,2.33,0,0,0,2.09-1.1,6.88,6.88,0,0,0,.72-3.61,16.29,16.29,0,0,0-.29-3.37,3.27,3.27,0,0,0-.94-1.77,2.73,2.73,0,0,0-1.79-.54,19.82,19.82,0,0,0-2.19.12L100,21.71l.06,1.82a22.93,22.93,0,0,0,2.55.23ZM42.21,18.52l0,3A6.05,6.05,0,0,1,40,26.48a9.45,9.45,0,0,1-6.12,1.73A8.76,8.76,0,0,1,28,26.48a5.88,5.88,0,0,1-2-4.94l.09-3L26,8.92h5.88l-.26,11.83a3.14,3.14,0,0,0,.57,2.16,2.49,2.49,0,0,0,2,.68,2.57,2.57,0,0,0,2-.68,3,3,0,0,0,.58-2.16L36.44,8.92h6l-.2,9.6Z"/></svg>