<svg id="Layer_1" data-name="Layer 1" xmlns="http://www.w3.org/2000/svg" viewBox="0 0 122.88 89.82"><defs><style>.cls-1{fill:#ffcb00;}.cls-1,.cls-2{fill-rule:evenodd;}.cls-2,.cls-3{fill:#262626;}.cls-4{fill:#fd5;}</style></defs><title>full-hd</title><path class="cls-1" d="M10.32,0H112.56a10.35,10.35,0,0,1,10.32,10.32V79.5a10.33,10.33,0,0,1-10.32,10.32H10.32A10.33,10.33,0,0,1,0,79.5V10.32A10.35,10.35,0,0,1,10.32,0Z"/><path class="cls-2" d="M4.9,41.51H118V11A6.11,6.11,0,0,0,111.9,4.9H11A6.11,6.11,0,0,0,4.9,11V41.51Z"/><path class="cls-3" d="M27.07,49.13h10.4V60.89H48.86V49.13H59.31V82.82H48.86V69.18H37.47V82.82H27.07V49.13Zm37.73,0H80.27a18.46,18.46,0,0,1,7.39,1.24,12,12,0,0,1,4.66,3.56A14.84,14.84,0,0,1,95,59.33a24.76,24.76,0,0,1,.83,6.53,22.69,22.69,0,0,1-1.23,8.38,13.81,13.81,0,0,1-3.41,5,11.16,11.16,0,0,1-4.69,2.69,24.33,24.33,0,0,1-6.21.91H64.8V49.13Zm10.4,7.62v18.4h2.55a10.86,10.86,0,0,0,4.66-.72,4.94,4.94,0,0,0,2.17-2.52,16,16,0,0,0,.78-5.86q0-5.34-1.75-7.32c-1.17-1.32-3.1-2-5.81-2Z"/><path class="cls-4" d="M31.65,17.11l-.11,4.32h2.53l4.33-.11.41.52-.45,5.44-4.81-.11H31.39v.49l.3,7.82h-7.5l.38-7.08-.38-17H40.3l.41.53-.49,5.44-6-.22ZM81.58,29.89l-.44,5.59H66.78l.38-7.08-.38-17h7.61L74,27.66l.07,1.71h7.12l.41.52Zm17.11,0-.45,5.59H83.89l.37-7.08-.37-17h7.6l-.41,16.3.07,1.71h7.12l.42.52Zm-35.07-6.3,0,3.84a7.74,7.74,0,0,1-2.76,6.3C59,35.2,56.42,35.93,53,35.93s-5.75-.73-7.48-2.2a7.54,7.54,0,0,1-2.48-6.3l.12-3.84L43,11.36h7.5l-.34,15.07a4,4,0,0,0,.73,2.75,3.13,3.13,0,0,0,2.48.86,3.25,3.25,0,0,0,2.53-.86,3.92,3.92,0,0,0,.75-2.75l-.34-15.07h7.61l-.27,12.23Z"/></svg>