<svg id="Layer_1" data-name="Layer 1" xmlns="http://www.w3.org/2000/svg" viewBox="0 0 122.88 80.11"><defs><style>.cls-1{fill:#ffcb00;}.cls-2{fill:#262626;}.cls-3{fill:#fd5;}</style></defs><title>hd</title><path class="cls-1" d="M14.18,0H108.7a14.19,14.19,0,0,1,14.18,14.18V65.93A14.22,14.22,0,0,1,114.12,79a14.05,14.05,0,0,1-5.42,1.08H14.18A14.15,14.15,0,0,1,4.17,76h0A14.15,14.15,0,0,1,0,65.93V14.18A14.19,14.19,0,0,1,14.18,0Z"/><path class="cls-2" d="M16.07,7.25H106.8a6.81,6.81,0,0,1,2.65.52,6.7,6.7,0,0,1,2.25,1.51,7,7,0,0,1,1.52,2.26,6.72,6.72,0,0,1,.52,2.64V65.93a6.9,6.9,0,0,1-.52,2.64,7,7,0,0,1-1.52,2.26,6.88,6.88,0,0,1-2.25,1.52,7,7,0,0,1-2.65.52H16.07a6.81,6.81,0,0,1-4.89-2,7,7,0,0,1-1.52-2.26,6.72,6.72,0,0,1-.52-2.64V14.18a6.72,6.72,0,0,1,.52-2.64,7,7,0,0,1,1.52-2.26,6.7,6.7,0,0,1,2.25-1.51,6.79,6.79,0,0,1,2.64-.52Z"/><path class="cls-3" d="M20.21,19.22H32.83V33.5H46.65V19.22H59.33V60.11H46.65V43.55H32.83V60.11H20.21V19.22Zm44.83,0H83.81a22.55,22.55,0,0,1,9,1.5A14.79,14.79,0,0,1,98.43,25a18,18,0,0,1,3.23,6.56,30,30,0,0,1,1,7.92q0,6.56-1.5,10.17A16.81,16.81,0,0,1,97,55.74,13.49,13.49,0,0,1,91.34,59a29.05,29.05,0,0,1-7.53,1.12H65V19.22Zm12.62,9.25V50.8h3.1a13.2,13.2,0,0,0,5.65-.88A6,6,0,0,0,89,46.86a19.15,19.15,0,0,0,.95-7.1c0-4.33-.7-7.29-2.12-8.89s-3.77-2.4-7.05-2.4Z"/></svg>