<svg id="Layer_1" data-name="Layer 1" xmlns="http://www.w3.org/2000/svg" viewBox="0 0 122.88 80.11"><defs><style>.cls-1{fill:#ffcb00;}.cls-2{fill:#262626;}.cls-3{fill:#fd5;}</style></defs><title>hq</title><path class="cls-1" d="M14.18,0H108.7a14.19,14.19,0,0,1,14.18,14.18V65.93A14.22,14.22,0,0,1,114.12,79a14.05,14.05,0,0,1-5.42,1.08H14.18A14.15,14.15,0,0,1,4.17,76h0A14.15,14.15,0,0,1,0,65.93V14.18A14.19,14.19,0,0,1,14.18,0Z"/><path class="cls-2" d="M16.07,7.25h90.74a6.79,6.79,0,0,1,2.64.52,6.7,6.7,0,0,1,2.25,1.51,7,7,0,0,1,1.52,2.26,6.72,6.72,0,0,1,.52,2.64V65.93a6.9,6.9,0,0,1-.52,2.64,7,7,0,0,1-1.52,2.26,6.81,6.81,0,0,1-4.89,2H16.07a6.81,6.81,0,0,1-4.89-2,7,7,0,0,1-1.52-2.26,6.9,6.9,0,0,1-.52-2.64V14.18a6.72,6.72,0,0,1,.52-2.64,7,7,0,0,1,1.52-2.26,6.7,6.7,0,0,1,2.25-1.51,6.79,6.79,0,0,1,2.64-.52Z"/><path class="cls-3" d="M20.59,19.18H32.45V32.59h13V19.18H57.34V57.59H45.43V42h-13V57.59H20.59V19.18ZM96.65,52c1.48,1,2.44,1.68,2.9,1.94.67.38,1.59.83,2.74,1.34L99,61.88A38.08,38.08,0,0,1,94.09,59c-1.63-1.11-2.77-1.94-3.41-2.49a24.94,24.94,0,0,1-9.85,1.7q-8.76,0-13.81-4.56-6-5.39-6-15.15Q61,29,66.27,23.79t14.6-5.25q9.57,0,14.76,5.13t5.21,14.68q0,8.51-4.19,13.61Zm-9.09-6.09Q89,43.34,89,38.28c0-3.87-.72-6.63-2.16-8.3a7.53,7.53,0,0,0-6-2.48A7.24,7.24,0,0,0,75.1,30c-1.48,1.69-2.21,4.33-2.21,7.93q0,6.28,2.15,8.82a7.34,7.34,0,0,0,5.9,2.54,11.15,11.15,0,0,0,2.28-.23,14.72,14.72,0,0,0-4.73-2.73l1.86-4.26a9.92,9.92,0,0,1,2.45.7A30.54,30.54,0,0,1,86.25,45c.4.28.84.56,1.31.86Z"/></svg>