<svg id="Layer_1" data-name="Layer 1" xmlns="http://www.w3.org/2000/svg" viewBox="0 0 89.46 122.88"><defs><style>.cls-1{fill-rule:evenodd;}</style></defs><title>instant-camera</title><path class="cls-1" d="M44.66,18.61a13.13,13.13,0,1,1-9.28,3.85,13.07,13.07,0,0,1,9.28-3.85Zm-5.4,71a5,5,0,0,0-.57.72c-.43.58-.83,1.19-1.22,1.81l-1.92,3.06A5.31,5.31,0,0,0,34.43,98a2.06,2.06,0,0,0,1.31,2c-.07,1.15-.12,2.32-.12,3.48,0,.69,0,1.38,0,2.06a7.68,7.68,0,0,0,.23,1.27A7.35,7.35,0,0,0,39.17,111a8.1,8.1,0,0,0,1.78.85c1.11.43.57,2.13,1.81,2.16,2.88.07,7.62-2.39,9.46-4.39a7.31,7.31,0,0,0,1.89-4.74l-.12-5a1.38,1.38,0,0,0,1-1,4.24,4.24,0,0,0-.54-2.66h0s0,0,0-.08l-2.19-3.62c-.5-.82-1-1.66-1.59-2.42-.69-.92-1.25-.76-.67-1.64,3.67-5,13.56-2.9,16-9.93h4.85v39.29H18.59V78.45h4.86c2.44,7,12.34,4.89,16,9.93.49.72.36.66-.19,1.24ZM13.45,91.51H5.71a5.69,5.69,0,0,1-4-1.67l-.17-.19A5.65,5.65,0,0,1,0,85.82V61.76a5.29,5.29,0,0,1,.07-.9H0V7.73A7.75,7.75,0,0,1,7.73,0h74a7.77,7.77,0,0,1,7.74,7.73V60.86h-.1a5.29,5.29,0,0,1,.08.9V85.82a5.72,5.72,0,0,1-5.7,5.69H76v28a3.35,3.35,0,0,1-1,2.39,2.09,2.09,0,0,1-.28.24,3.33,3.33,0,0,1-2.1.75H16.83a3.38,3.38,0,0,1-2.39-1,3.47,3.47,0,0,1-.25-.29,3.37,3.37,0,0,1-.74-2.1v-28ZM5.16,71.45H84.29V61.76a.53.53,0,0,0-.16-.39.55.55,0,0,0-.39-.16h-78a.55.55,0,0,0-.33.11l0,0a.56.56,0,0,0-.17.39v9.69ZM84.29,76.6H76v9.76h7.73a.55.55,0,0,0,.39-.16.55.55,0,0,0,.16-.38V76.6Zm-70.8,0H5.16v9.22a.55.55,0,0,0,.11.33l.06,0a.53.53,0,0,0,.38.16h7.74v-8.1l0-1.66Zm55-67.74h10a1.3,1.3,0,0,1,1.3,1.29V18a1.3,1.3,0,0,1-1.3,1.3h-10a1.3,1.3,0,0,1-1.3-1.3V10.15a1.3,1.3,0,0,1,1.3-1.29ZM81.72,4.8h-74A2.94,2.94,0,0,0,4.8,7.73V56.06H84.65V7.73A2.94,2.94,0,0,0,81.72,4.8Zm-37.06,7a19.92,19.92,0,1,1-14.08,5.83,19.89,19.89,0,0,1,14.08-5.83Zm12,7.89a17,17,0,1,0,5,12,17,17,0,0,0-5-12Zm-12,7.88a4.15,4.15,0,1,1-4.14,4.15,4.14,4.14,0,0,1,4.14-4.15Z"/></svg>