<svg id="Layer_1" data-name="Layer 1" xmlns="http://www.w3.org/2000/svg" viewBox="0 0 84.06 122.88"><defs><style>.cls-1{fill-rule:evenodd;}</style></defs><title>journalist</title><path class="cls-1" d="M23.12.29a14.45,14.45,0,0,1,16.36,9h-27a14.44,14.44,0,0,1,10.67-9ZM.62,67.38a3,3,0,0,1,.66-.66c1.33-1,4.84-1,6.43-.91,1,0,3.78,0,6.11.11L12.39,76.09c-2.91.09-5.79,0-8.23.2a3.06,3.06,0,0,1-3.07-1.18,7.46,7.46,0,0,1-.95-4c0-.9,0-3,.48-3.69Zm-.16,13a2.84,2.84,0,0,1,.61-.7,4,4,0,0,1,2-.79,21.65,21.65,0,0,1,4.4-.52l4.74-.21c-.36,3.59-1.89,7.82,1.69,10.07-3.26.35-6.58.44-9.32.82a3,3,0,0,1-3.13-1C.14,86.5-.5,81.91.46,80.33ZM2.75,93.39a2.9,2.9,0,0,1,.53-.72,3.86,3.86,0,0,1,1.81-.92,21.45,21.45,0,0,1,4.15-.85c2-.24,9.25-1.28,10.72-1.17a2.38,2.38,0,0,1,2.28,1.7l.91,3.65c.4,1.46-.34,2.61-2,3.35-4.61,1.33-9.82,2-13.79,2.89a2.89,2.89,0,0,1-3.07-.68C3.05,99.39,2,94.94,2.75,93.39Zm4.19,13.43a2.52,2.52,0,0,1,.1-1.64,2.57,2.57,0,0,1,.53-.72,3.91,3.91,0,0,1,1.81-.92,88.64,88.64,0,0,1,12.08-3.15c1.9-.6,3.29-.19,3.88,1.49l1,3c.39,1.46-.34,2.61-2,3.36-8.18,3-14.62,8.34-17.39-1.42ZM18,113.19a23.43,23.43,0,0,0,11.09,3.17,40,40,0,0,1,11-.31c2.15.33,4.12.72,6.33,1l20.54,5.84L84.06,93.19,55.28,92.13c-2.28.07-2,.53-2.49-1.57A64.67,64.67,0,0,0,48.6,78.44C44.05,68.41,42.72,63.55,33,63l.45-4H18.2l.51,4.77c-5.35,3.21-4,13.43-4,20.79,1.3,3.36,9,2,9.82-2.78l1-6.11,4.37.55c-8.71,11.34-2.22,18.42,7.64,25.25C30.52,99,26,95.06,24.93,91a41.15,41.15,0,0,0,2.52,10.26c.34.88.72,1.76,1.13,2.65,2,4.56-1.92,5.78-5.28,7.14-1.79.72-3.68,1.42-5.3,2.11ZM6.33,26.71H45.61a2.23,2.23,0,0,1,2.21,2.22v25a2.22,2.22,0,0,1-2.21,2.21H6.33a2.22,2.22,0,0,1-2.22-2.21v-25a2.23,2.23,0,0,1,2.22-2.22Zm9,9.19v11H12.61l-1.59-5v5H8.46v-11H11l1.7,5v-5Zm1.88,0h5.1v2.21h-2v2.11h1.91v2.09H20.22v2.43h2.25v2.2H17.16v-11Zm18.34,0-1.36,11H30.33c-.35-1.69-.66-3.63-.93-5.79q-.2,1.4-.86,5.79H24.75l-1.37-11h3l.32,3.86L27,43.48q.18-2.88.85-7.58H31c0,.33.15,1.55.33,3.65l.34,4.2q.27-4,.86-7.85Zm7.72,3.35H40.38v-.81a1.51,1.51,0,0,0-.11-.73.39.39,0,0,0-.36-.16.46.46,0,0,0-.41.21,1.11,1.11,0,0,0-.14.64,1.67,1.67,0,0,0,.16.83,2.31,2.31,0,0,0,.86.67,8.46,8.46,0,0,1,2.56,1.88,4,4,0,0,1,.53,2.34,4,4,0,0,1-.29,1.74A2.21,2.21,0,0,1,42,46.8a4.74,4.74,0,0,1-1.95.38,4.65,4.65,0,0,1-2.1-.44,2.22,2.22,0,0,1-1.13-1.11,5.34,5.34,0,0,1-.27-1.91V43h2.84v1.34a1.67,1.67,0,0,0,.12.8.47.47,0,0,0,.42.18.51.51,0,0,0,.46-.23,1.19,1.19,0,0,0,.15-.66,1.92,1.92,0,0,0-.29-1.27,8.79,8.79,0,0,0-1.43-1,14,14,0,0,1-1.5-1,2.3,2.3,0,0,1-.61-.89,3.48,3.48,0,0,1-.25-1.44,3.78,3.78,0,0,1,.35-1.85A2.29,2.29,0,0,1,38,36a4.67,4.67,0,0,1,1.85-.33,5.12,5.12,0,0,1,2,.36A2.05,2.05,0,0,1,43,37a4.62,4.62,0,0,1,.27,1.87v.43ZM40.05,11.14c0,.16.08.32.11.49a15,15,0,0,1,.28,2.73H11.49a14.33,14.33,0,0,1,.39-3.22Zm.29,5.06a14.5,14.5,0,0,1-4,8.33H15.55a14.35,14.35,0,0,1-3.77-7.21,10.87,10.87,0,0,1-.18-1.12Z"/></svg>