<svg id="Layer_1" data-name="Layer 1" xmlns="http://www.w3.org/2000/svg" viewBox="0 0 122.88 70.51"><defs><style>.cls-1{fill-rule:evenodd;}</style></defs><title>laptop-video-play</title><path class="cls-1" d="M2.54,65.44H15.13a2.19,2.19,0,0,1-1.63-2.1V2.17A2.18,2.18,0,0,1,15.67,0h91a2.18,2.18,0,0,1,2.17,2.17V63.33a2.17,2.17,0,0,1-1.63,2.1h13.16A2.54,2.54,0,0,1,122.88,68h0a2.54,2.54,0,0,1-2.54,2.54H2.54A2.54,2.54,0,0,1,0,68H0a2.54,2.54,0,0,1,2.54-2.53ZM61.3,15.85A17.21,17.21,0,1,1,44.09,33.06,17.21,17.21,0,0,1,61.3,15.85Zm6.13,18.27c.88-.56.88-1.19,0-1.69l-9.06-5.21c-.71-.45-1.45-.18-1.44.75l0,10.52c.06,1,.64,1.29,1.49.82l9-5.19ZM61.3,19.34A13.72,13.72,0,1,1,47.59,33.06,13.72,13.72,0,0,1,61.3,19.34ZM17.21,3.4H105.4V62.72H17.21V3.4Zm40.66,63H65a1.22,1.22,0,0,1,1.22,1.22h0A1.22,1.22,0,0,1,65,68.83H57.87a1.22,1.22,0,0,1-1.22-1.22h0a1.22,1.22,0,0,1,1.22-1.22Z"/></svg>