<svg id="Layer_1" data-name="Layer 1" xmlns="http://www.w3.org/2000/svg" viewBox="0 0 102.31 122.88"><defs><style>.cls-1{fill:#242424;}.cls-2{fill:#e74040;fill-rule:evenodd;}</style></defs><title>livestream</title><path class="cls-1" d="M72,58.56a3.07,3.07,0,0,1-4.76-3.87c4.62-5.68,7-11.73,7-17.75s-2.23-11.87-6.92-17.61a3.07,3.07,0,0,1,4.76-3.87c5.61,6.88,8.31,14.18,8.29,21.48,0,7.47-2.9,14.83-8.41,21.62Z"/><path class="cls-1" d="M87,73a3.06,3.06,0,0,1-4.59-4.06c9.2-10.4,13.91-21.26,13.73-32.1-.18-10.55-5-21.24-14.82-31.66A3.07,3.07,0,1,1,85.83,1C96.74,12.55,102.1,24.63,102.3,36.73c.21,12.42-5,24.68-15.26,36.26Z"/><path class="cls-1" d="M35,54.69a3.06,3.06,0,1,1-4.75,3.87c-5.52-6.79-8.39-14.15-8.41-21.62,0-7.3,2.68-14.6,8.29-21.48a3.07,3.07,0,1,1,4.76,3.87C30.23,25.07,28,31.05,28,36.94S30.41,49,35,54.69Z"/><path class="cls-1" d="M19.86,68.93A3.06,3.06,0,0,1,15.27,73C5,61.42-.2,49.15,0,36.73.21,24.63,5.56,12.55,16.47,1a3.07,3.07,0,1,1,4.47,4.2C11.12,15.59,6.31,26.28,6.13,36.83,6,47.67,10.65,58.53,19.86,68.93Z"/><path class="cls-2" d="M18.48,82H83.84a4.64,4.64,0,0,1,4.63,4.62v31.63a4.65,4.65,0,0,1-4.63,4.63H18.48a4.65,4.65,0,0,1-4.63-4.63V86.62A4.64,4.64,0,0,1,18.48,82Zm26.3-38.58a9,9,0,1,1,12.75,0A8.26,8.26,0,0,1,55.34,45a9.36,9.36,0,0,1-10.56-1.62ZM33.06,90.84V109.4H36.9V114H26.67V90.84Zm12.46,0V114H39.13V90.84Zm18.34,0L60.63,114H51l-3.7-23.19H54q1.14,9.6,1.66,16.23.51-6.7,1.05-11.9l.42-4.33Zm1.76,0H76.26v4.64H72v4.43h4v4.39H72v5.11H76.7V114H65.62V90.84Z"/></svg>