<svg xmlns="http://www.w3.org/2000/svg" shape-rendering="geometricPrecision" text-rendering="geometricPrecision" image-rendering="optimizeQuality" fill-rule="evenodd" clip-rule="evenodd" viewBox="0 0 293 511.59"><path fill-rule="nonzero" d="M280.53 178.86c0-10.03-8.14-18.17-18.18-18.17s-18.17 8.14-18.17 18.17c0 35.81-8.57 65.36-25.98 85.11-15.75 17.86-39.55 28.14-71.7 28.14-32.16 0-55.97-10.27-71.71-28.13-17.4-19.74-25.97-49.29-25.97-85.12 0-10.03-8.13-18.17-18.17-18.17-10.04 0-18.18 8.14-18.18 18.17 0 44.64 11.57 82.46 35.06 109.11 17.3 19.62 40.57 32.88 69.92 38.06v29.82H72.93c-7.97 0-14.49 6.52-14.49 14.48v.75h176.12v-.75c0-7.96-6.51-14.48-14.48-14.48h-44.53v-29.82c29.34-5.19 52.62-18.44 69.91-38.07 23.5-26.65 35.07-64.49 35.07-109.09v-.01zM146.51 0c37.07 0 67.4 30.34 67.4 67.41v1.74h-36.26v36.88h36.26v27.92h-36.26v36.89h36.26v21.49c0 37.06-30.33 67.4-67.4 67.4-37.08 0-67.4-30.34-67.4-67.4v-21.49h36.25v-36.89H79.11v-27.92h36.25V69.15H79.11v-1.74C79.11 30.34 109.43 0 146.51 0z"/><path fill="#E74040" d="M15.55 380.15h261.9c8.55 0 15.55 7.02 15.55 15.56v100.33c0 8.53-7.02 15.55-15.55 15.55H15.55c-8.53 0-15.55-7-15.55-15.55V395.71c0-8.56 7-15.56 15.55-15.56zm75.77 98.67H49.16v-65.88h21.08v49.01h21.08v16.87zm7.38 0v-65.88h21.08v65.88H98.7zm69.14-65.88h22.24l-16.33 65.88h-30.78l-16.34-65.88h22.24l8.96 41.84h.95l9.06-41.84zm71.26 41h-21.08v8.01h25.82v16.87h-46.9v-65.88h46.38l-2.64 16.86h-22.66v8.86h21.08v15.28z"/></svg>