<svg xmlns="http://www.w3.org/2000/svg" shape-rendering="geometricPrecision" text-rendering="geometricPrecision" image-rendering="optimizeQuality" fill-rule="evenodd" clip-rule="evenodd" viewBox="0 0 512 411.93"><path d="M438.84 265.71h-50.75c-11.29 0-20.52 9.24-20.52 20.52v15.02h18.62c9.37 0 17.88 3.82 24.04 9.98 1.17 1.17 2.26 2.43 3.25 3.77.99-1.32 2.06-2.56 3.22-3.72l.08-.08c6.18-6.14 14.66-9.95 23.95-9.95h18.62v-15.02c0-11.29-9.23-20.52-20.51-20.52zm-160.38-135.5c3.56-2.31 3.56-4.88 0-6.92l-36.9-21.21c-2.92-1.83-5.96-.75-5.87 3.05l.12 42.87c.24 4.12 2.6 5.25 6.07 3.34l36.58-21.13zM46.13 1.21c69.29 8.69 138.41 12.96 207.36 12.93 68.95-.04 138.08-4.39 207.37-12.93l9.68-1.19v251.69l-9.68-1.18c-69.3-8.47-138.43-12.85-207.37-12.93-69.11-.07-138.22 4.15-207.33 12.89l-9.72 1.23V0l9.69 1.21zm207.36 30.14c-66.74.03-133.33-3.87-199.77-11.81v212.67c66.59-8.02 133.19-11.89 199.77-11.82 66.75.08 133.34 4.09 199.78 11.84V19.52c-66.44 7.82-133.03 11.79-199.78 11.83zm0 24.39c38.74 0 70.14 31.4 70.14 70.13S292.23 196 253.49 196c-38.73 0-70.13-31.4-70.13-70.13s31.4-70.13 70.13-70.13zm0 14.24c30.87 0 55.89 25.02 55.89 55.89s-25.02 55.89-55.89 55.89c-30.86 0-55.88-25.02-55.88-55.89s25.02-55.89 55.88-55.89zm187.24 244.77h50.75c11.29 0 20.52 9.23 20.52 20.51v76.67h-91.79v-76.67c0-11.28 9.23-20.51 20.52-20.51zm-264.48 0h-50.76c-11.28 0-20.51 9.23-20.51 20.51v76.67h91.78v-76.67c0-11.28-9.24-20.51-20.51-20.51zm-155.73 0h50.75c11.28 0 20.52 9.23 20.52 20.51v76.67H0v-76.67c0-11.28 9.23-20.51 20.52-20.51zm209.95 0h50.75c11.28 0 20.52 9.23 20.52 20.51v76.67h-91.79v-76.67c0-11.28 9.23-20.51 20.52-20.51zm155.72 0h-50.75c-11.28 0-20.51 9.23-20.51 20.51v76.67h91.78v-76.67c0-11.28-9.24-20.51-20.52-20.51zM73.16 265.71h50.75c11.29 0 20.52 9.24 20.52 20.52v15.02h-18.94c-9.36 0-17.87 3.82-24.03 9.98a34.45 34.45 0 0 0-3.08 3.53c-.94-1.24-1.97-2.43-3.08-3.53-6.16-6.16-14.66-9.98-24.03-9.98H52.64v-15.02c0-11.29 9.24-20.52 20.52-20.52zm155.73 0h-50.75c-11.29 0-20.52 9.24-20.52 20.52v15.02h18.63c9.36 0 17.87 3.82 24.03 9.98 1.1 1.1 2.13 2.28 3.07 3.53.95-1.25 1.98-2.43 3.08-3.53 6.16-6.16 14.67-9.98 24.04-9.98h18.93v-15.02c0-11.29-9.23-20.52-20.51-20.52zm54.22 0h50.75c11.29 0 20.52 9.24 20.52 20.52v15.02h-18.94c-9.36 0-17.87 3.82-24.03 9.98a34.45 34.45 0 0 0-3.08 3.53c-.94-1.24-1.97-2.43-3.08-3.53-6.16-6.16-14.66-9.98-24.03-9.98h-18.63v-15.02c0-11.29 9.24-20.52 20.52-20.52z"/></svg>