<svg id="Layer_1" data-name="Layer 1" xmlns="http://www.w3.org/2000/svg" viewBox="0 0 108.1 122.88"><defs><style>.cls-1{fill-rule:evenodd;}</style></defs><title>movies</title><path class="cls-1" d="M17.83,9.22A17.84,17.84,0,1,1,5.22,14.45,17.82,17.82,0,0,1,17.83,9.22Zm-.22,38.49H70.19a8.88,8.88,0,0,1,8.86,8.86V95.1A8.89,8.89,0,0,1,70.19,104H53.94l11.8,18.92h-11L41.89,105.59l-13,17.29H17.76L29.48,104H17.61A8.89,8.89,0,0,1,8.75,95.1V56.57a8.88,8.88,0,0,1,8.86-8.86Zm38,30.06c1.86-1.2,1.85-2.53,0-3.59l-19.18-11c-1.52-.95-3.09-.39-3,1.59L33.44,87c.13,2.14,1.35,2.73,3.15,1.74l19-11ZM84.08,90V61.53l24-14.17v57.16L84.08,90ZM60.62,0A22.43,22.43,0,1,1,44.75,6.57,22.38,22.38,0,0,1,60.62,0Z"/></svg>