<svg xmlns="http://www.w3.org/2000/svg" shape-rendering="geometricPrecision" text-rendering="geometricPrecision" image-rendering="optimizeQuality" fill-rule="evenodd" clip-rule="evenodd" viewBox="0 0 512 512"><circle fill="#EF4136" cx="256" cy="256" r="256"/><path fill="#FF7C73" d="M256 9.36c136.12 0 246.46 110.35 246.46 246.46 0 3.22-.08 6.42-.21 9.62C497.2 133.78 388.89 28.59 256 28.59S14.8 133.78 9.75 265.44c-.13-3.2-.21-6.4-.21-9.62C9.54 119.71 119.88 9.36 256 9.36z"/><path fill="#fff" d="M185.75 144.17h39.17c6.48 0 11.77 5.32 11.77 11.78v200.1c0 6.47-5.31 11.78-11.77 11.78h-39.17c-6.46 0-11.77-5.3-11.77-11.78v-200.1c0-6.48 5.29-11.78 11.77-11.78zm101.33 0h39.17c6.48 0 11.77 5.32 11.77 11.78v200.1c0 6.47-5.31 11.78-11.77 11.78h-39.17c-6.46 0-11.77-5.3-11.77-11.78v-200.1c0-6.48 5.29-11.78 11.77-11.78z"/></svg>