<svg xmlns="http://www.w3.org/2000/svg" shape-rendering="geometricPrecision" text-rendering="geometricPrecision" image-rendering="optimizeQuality" fill-rule="evenodd" clip-rule="evenodd" viewBox="0 0 512 329.79"><path fill-rule="nonzero" d="M63.64 303.3h256.87c10.26 0 19.61-4.25 26.37-11.01 6.8-6.8 11.04-16.16 11.04-26.26V63.77c0-10.06-4.26-19.35-11.04-26.12-6.85-6.86-16.23-11.16-26.37-11.16H63.64c-10.19 0-19.61 4.25-26.42 11.06-6.78 6.77-11 16.04-11 26.22v202.26c0 10.24 4.2 19.56 10.95 26.31a37.36 37.36 0 0 0 26.47 10.96zm169.71-112.21h-59.47v-75.02h22.97v52.08h36.5v22.94zM192.07 52.31c31.07 0 59.23 12.62 79.6 32.98 20.37 20.37 32.99 48.53 32.99 79.6 0 31.07-12.62 59.23-32.99 79.6-20.37 20.37-48.53 32.99-79.6 32.99-31.07 0-59.23-12.62-79.6-32.99-20.37-20.37-32.99-48.53-32.99-79.6 0-31.07 12.62-59.23 32.99-79.6 20.37-20.36 48.53-32.98 79.6-32.98zm62.12 50.46c-15.88-15.88-37.86-25.73-62.12-25.73-24.26 0-46.23 9.85-62.12 25.73-15.88 15.89-25.73 37.86-25.73 62.12 0 24.26 9.85 46.24 25.73 62.12 15.89 15.89 37.86 25.73 62.12 25.73 24.26 0 46.24-9.84 62.12-25.73 15.88-15.88 25.73-37.86 25.73-62.12 0-24.26-9.85-46.23-25.73-62.12zm130.88-5.26v137.05l100.44 44.48V51.08L385.07 97.51zm-.93-28.7 108.31-50.06c1.88-1.02 4.02-1.59 6.3-1.59 7.31 0 13.25 5.93 13.25 13.24v268.98c-.01 1.79-.38 3.6-1.14 5.33-2.94 6.69-10.75 9.72-17.44 6.78l-109.28-48.4v2.94c0 17.37-7.22 33.39-18.82 44.99-11.53 11.54-27.4 18.77-44.81 18.77H63.64c-17.46 0-33.36-7.17-44.91-18.72C7.18 299.52 0 283.56 0 266.03V63.77c0-17.46 7.23-33.38 18.76-44.93C30.43 7.2 46.36 0 63.64 0h256.87c17.21 0 33.12 7.26 44.67 18.78l.08.09c11.6 11.61 18.88 27.56 18.88 44.9v5.04z"/></svg>