<svg id="Layer_1" data-name="Layer 1" xmlns="http://www.w3.org/2000/svg" viewBox="0 0 122.88 91.27"><defs><style>.cls-1{fill-rule:evenodd;}</style></defs><title>picture</title><path class="cls-1" d="M87.29,16.88A11.35,11.35,0,1,1,75.94,28.23,11.35,11.35,0,0,1,87.29,16.88Zm27.33,74.39H8.26a8.27,8.27,0,0,1-5.83-2.44h0A8.24,8.24,0,0,1,0,83V8.26A8.26,8.26,0,0,1,2.42,2.42h0A8.26,8.26,0,0,1,8.26,0H114.62a8.26,8.26,0,0,1,5.83,2.43h0a8.26,8.26,0,0,1,2.42,5.84V83a8.24,8.24,0,0,1-2.42,5.83h0a8.27,8.27,0,0,1-5.83,2.44Zm-7.35-9.43L87.6,50.46a4.52,4.52,0,0,0-7.65,0L70.66,65.39,80.77,81.84H76.62l-27.57-44c-2.54-3.39-6.61-3.13-8.88,0l-27,44H9.42V9.42h104V81.84Z"/></svg>