<svg xmlns="http://www.w3.org/2000/svg" shape-rendering="geometricPrecision" text-rendering="geometricPrecision" image-rendering="optimizeQuality" fill-rule="evenodd" clip-rule="evenodd" viewBox="0 0 512 215.11"><path fill-rule="nonzero" d="M0 83.78V41.11c0-11.31 4.62-21.6 12.06-29.05h.05C19.55 4.63 29.82 0 41.11 0h41.53v23.53H41.11c-4.84 0-9.24 1.98-12.43 5.15-3.17 3.21-5.15 7.61-5.15 12.43v42.67H0zm418.09 13.78h-20.34c-.14-1.7-.51-3.22-1.14-4.59-.61-1.37-1.45-2.56-2.52-3.55-1.07-1-2.35-1.77-3.87-2.31-1.51-.54-3.24-.81-5.17-.81-3.35 0-6.19.81-8.51 2.45-2.34 1.63-4.08 3.98-5.28 7.03-1.18 3.06-1.78 6.72-1.78 11 0 4.52.61 8.31 1.83 11.34 1.2 3.05 2.96 5.33 5.28 6.85 2.3 1.53 5.08 2.29 8.33 2.29 1.84 0 3.5-.22 4.97-.7 1.48-.47 2.75-1.15 3.83-2.05 1.08-.88 1.96-1.96 2.64-3.21.69-1.27 1.15-2.69 1.39-4.28l20.34.15c-.24 3.11-1.12 6.29-2.62 9.53-1.53 3.23-3.68 6.23-6.45 8.95-2.78 2.73-6.21 4.93-10.29 6.58-4.1 1.66-8.84 2.49-14.25 2.49-6.77 0-12.85-1.45-18.23-4.37-5.36-2.91-9.61-7.19-12.73-12.84-3.11-5.64-4.67-12.56-4.67-20.73 0-8.23 1.59-15.15 4.76-20.78 3.18-5.64 7.46-9.91 12.84-12.82 5.38-2.89 11.39-4.33 18.03-4.33 4.67 0 8.95.63 12.88 1.91 3.92 1.27 7.36 3.14 10.31 5.57 2.96 2.44 5.34 5.44 7.13 8.99 1.81 3.57 2.9 7.63 3.29 12.24zm-132.13 46.15V69.85h53.23v16.16h-33.17v12.7h30.43v16.14h-30.43v12.7h33.03v16.16h-53.09zm-67.79 0V69.85h31.88c5.49 0 10.27 1 14.39 3 4.11 2 7.31 4.87 9.59 8.61 2.29 3.76 3.42 8.26 3.42 13.49 0 5.3-1.16 9.75-3.52 13.38-2.33 3.63-5.62 6.37-9.83 8.23-4.23 1.84-9.14 2.78-14.77 2.78h-19.04v-15.59h15.01c2.35 0 4.36-.29 6.02-.88 1.68-.59 2.97-1.54 3.86-2.83.91-1.3 1.35-2.99 1.35-5.09 0-2.11-.44-3.84-1.35-5.16-.89-1.34-2.18-2.34-3.86-2.96-1.66-.65-3.67-.97-6.02-.97h-7.08v57.85h-20.05zm43.27-33.9 18.47 33.9h-21.78l-18.03-33.9h21.34zm-178.8 105.3H41.11c-11.29 0-21.58-4.63-29.03-12.08C4.64 195.59 0 185.31 0 174v-42.73h23.53V174c0 4.81 1.99 9.2 5.18 12.39 3.2 3.2 7.6 5.19 12.4 5.19h41.53v23.53zM488.47 83.78V41.11c0-4.82-1.98-9.22-5.17-12.41a17.464 17.464 0 0 0-12.41-5.17h-41.53V0h41.53c11.29 0 21.56 4.63 29 12.06h.05C507.38 19.51 512 29.8 512 41.11v42.67h-23.53zm-59.11 107.8h41.53c4.8 0 9.2-1.99 12.4-5.19 3.19-3.19 5.18-7.58 5.18-12.39v-42.73H512V174c0 11.31-4.64 21.59-12.08 29.03-7.45 7.45-17.74 12.08-29.03 12.08h-41.53v-23.53z"/><path fill="#FE1C1D" d="M138.03 62.67c24.37 0 44.12 19.75 44.12 44.12 0 24.37-19.75 44.12-44.12 44.12-24.37 0-44.12-19.75-44.12-44.12 0-24.37 19.75-44.12 44.12-44.12z"/></svg>