<svg id="Layer_1" data-name="Layer 1" xmlns="http://www.w3.org/2000/svg" viewBox="0 0 122.88 80.11"><defs><style>.cls-1{fill:#ffcb00;}.cls-2{fill:#262626;}.cls-3{fill:#fd5;}</style></defs><title>sd</title><path class="cls-1" d="M14.18,0H108.7a14.19,14.19,0,0,1,14.18,14.18V65.93A14.22,14.22,0,0,1,114.12,79a14.05,14.05,0,0,1-5.42,1.08H14.18A14.15,14.15,0,0,1,4.17,76h0A14.15,14.15,0,0,1,0,65.93V14.18A14.19,14.19,0,0,1,14.18,0Z"/><path class="cls-2" d="M16.07,7.25H106.8a6.81,6.81,0,0,1,2.65.52,6.7,6.7,0,0,1,2.25,1.51,7,7,0,0,1,1.52,2.26,6.72,6.72,0,0,1,.52,2.64V65.93a6.9,6.9,0,0,1-.52,2.64,7,7,0,0,1-1.52,2.26,6.88,6.88,0,0,1-2.25,1.52,7,7,0,0,1-2.65.52H16.07a6.81,6.81,0,0,1-4.89-2,7,7,0,0,1-1.52-2.26,6.72,6.72,0,0,1-.52-2.64V14.18a6.72,6.72,0,0,1,.52-2.64,7,7,0,0,1,1.52-2.26,6.7,6.7,0,0,1,2.25-1.51,6.79,6.79,0,0,1,2.64-.52Z"/><path class="cls-3" d="M21.6,46.35l11.89-.75A8.91,8.91,0,0,0,35.06,50a6.64,6.64,0,0,0,5.53,2.45,6.08,6.08,0,0,0,4.12-1.25,3.79,3.79,0,0,0,1.46-2.92,3.75,3.75,0,0,0-1.37-2.82c-.92-.83-3-1.6-6.4-2.35q-8.24-1.84-11.74-4.92a9.84,9.84,0,0,1-3.53-7.81,10.59,10.59,0,0,1,1.81-5.89,11.91,11.91,0,0,1,5.44-4.36,25.45,25.45,0,0,1,10-1.59q7.77,0,11.85,2.9T57,30.64l-11.78.69a6.36,6.36,0,0,0-2-4,6.32,6.32,0,0,0-4.16-1.26,5.09,5.09,0,0,0-3.3.92,2.86,2.86,0,0,0-1.1,2.26,2.28,2.28,0,0,0,.9,1.74c.57.53,2,1,4.18,1.49q8.2,1.77,11.74,3.58a12.3,12.3,0,0,1,5.17,4.49,11.39,11.39,0,0,1,1.62,6,12.92,12.92,0,0,1-2.15,7.19,13.57,13.57,0,0,1-6,5,24.18,24.18,0,0,1-9.75,1.7q-10.33,0-14.31-4a15.68,15.68,0,0,1-4.5-10.1ZM64,19.22H82.59a22.39,22.39,0,0,1,8.89,1.49A14.53,14.53,0,0,1,97.08,25a17.71,17.71,0,0,1,3.2,6.51,29.83,29.83,0,0,1,1,7.85c0,4.33-.49,7.68-1.48,10.07a16.56,16.56,0,0,1-4.1,6,13.48,13.48,0,0,1-5.65,3.23,29.27,29.27,0,0,1-7.46,1.1H64V19.22Zm12.51,9.17V50.53h3.07a13,13,0,0,0,5.61-.87,6,6,0,0,0,2.6-3,19,19,0,0,0,.94-7c0-4.29-.69-7.23-2.1-8.81s-3.74-2.38-7-2.38Z"/></svg>