<svg xmlns="http://www.w3.org/2000/svg" shape-rendering="geometricPrecision" text-rendering="geometricPrecision" image-rendering="optimizeQuality" fill-rule="evenodd" clip-rule="evenodd" viewBox="0 0 512 329.79"><path d="M182.62 74.79c10.59 0 20.76 2.15 30.05 5.99 9.65 3.97 18.34 9.84 25.6 17.07a78.943 78.943 0 0 1 17.1 25.54 78.82 78.82 0 0 1 5.99 30.14c0 7.77-1.15 15.35-3.29 22.49-1.76 5.9-4.2 11.54-7.23 16.79l27.92 32.71c2.12 2.31 1.98 5.94-.34 8.07l-21.81 19.9c-2.3 2.15-5.95 1.97-8.05-.33l-26.53-31.48c-5.2 3.01-10.78 5.48-16.62 7.23l-.2.05a78.781 78.781 0 0 1-22.59 3.32c-10.57 0-20.76-2.16-30.06-5.99-9.65-3.99-18.36-9.87-25.61-17.07a78.853 78.853 0 0 1-17.09-25.55 78.706 78.706 0 0 1-5.99-30.14c0-10.56 2.16-20.75 5.99-30.05a79.241 79.241 0 0 1 17.08-25.61c7.25-7.25 15.9-13.12 25.53-17.09 9.3-3.85 19.5-5.99 30.15-5.99zM63.64 0h256.87c17.41 0 33.28 7.24 44.81 18.77 11.6 11.6 18.82 27.62 18.82 45v2.94L493.42 18.3c6.69-2.94 14.5.1 17.44 6.78.76 1.73 1.13 3.55 1.13 5.33l.01 268.98c0 7.31-5.94 13.25-13.25 13.25-2.28 0-4.42-.58-6.3-1.6l-108.31-50.06v5.05c0 17.33-7.28 33.29-18.88 44.9l-.08.08c-11.55 11.52-27.46 18.78-44.67 18.78H63.64c-17.28 0-33.21-7.19-44.8-18.76C7.23 299.4 0 283.49 0 266.03V63.77c0-17.53 7.18-33.49 18.73-45.05C30.28 7.18 46.18 0 63.64 0zm321.43 95.23v137.06l100.44 46.42V50.75L385.07 95.23zm-64.56-68.74H63.64a37.36 37.36 0 0 0-26.47 10.96c-6.75 6.75-10.95 16.08-10.95 26.32v202.26c0 10.18 4.22 19.45 10.95 26.17 6.86 6.86 16.28 11.1 26.47 11.1h256.87c10.14 0 19.52-4.29 26.32-11.1 6.83-6.82 11.09-16.12 11.09-26.17V63.77c0-10.11-4.24-19.46-11.04-26.26-6.76-6.76-16.11-11.02-26.37-11.02zM182.77 97.77c30.52 0 55.27 24.77 55.27 55.29s-24.75 55.28-55.27 55.28c-30.54 0-55.3-24.76-55.3-55.28s24.76-55.29 55.3-55.29z"/></svg>