<svg id="Layer_1" data-name="Layer 1" xmlns="http://www.w3.org/2000/svg" viewBox="0 0 122.88 105.96"><defs><style>.cls-1{fill-rule:evenodd;}</style></defs><title>selfie-stick-photography</title><path class="cls-1" d="M39.59,106H1.22L0,55.33c.23-7.59,9.44-13.62,17-13.39l6.82.2a17.82,17.82,0,0,1,7.2,1.49A8.65,8.65,0,0,1,33,44L81.52,59.53l.47.16,15.17-29H93.75a.64.64,0,0,1-.64-.64V26.26H82.31a4.54,4.54,0,0,1-4.54-4.54V6.88a4.56,4.56,0,0,1,4.54-4.55h10.8V.63A.64.64,0,0,1,93.75,0h12.47a.65.65,0,0,1,.64.63v1.7h11.48a4.56,4.56,0,0,1,4.54,4.55h0V21.72a4.54,4.54,0,0,1-4.54,4.54H106.86V30a.66.66,0,0,1-.64.64H104L86.62,64A8.5,8.5,0,0,1,76.39,75.73L39.65,64l0,1.2L39.59,106ZM81.72,11.59a2.06,2.06,0,1,0,2.06,2.05,2.05,2.05,0,0,0-2.06-2.05Zm3.37-7.68V24.69h32.08V3.91Zm-72.93.53A18.68,18.68,0,1,1,5.32,30,18.67,18.67,0,0,1,12.16,4.44Z"/></svg>