<svg id="Layer_1" data-name="Layer 1" xmlns="http://www.w3.org/2000/svg" viewBox="0 0 76.38 122.9"><title>smartphone-selfie-stick</title><path d="M0,122.9,42.14,40.84h-4.6A.85.85,0,0,1,36.7,40V35H22.3a6.06,6.06,0,0,1-6.06-6V9.17A6.08,6.08,0,0,1,22.3,3.11H36.7V.85A.85.85,0,0,1,37.54,0H54.18A.87.87,0,0,1,55,.85V3.11H70.32a6.08,6.08,0,0,1,6.06,6.06h0V29a6.06,6.06,0,0,1-6.06,6H55v5a.87.87,0,0,1-.85.84H51.24l-42.14,82-9.1,0ZM21.51,15.45a2.74,2.74,0,1,0,2.74,2.74,2.74,2.74,0,0,0-2.74-2.74ZM26,5.21V32.92H68.77V5.21Z"/></svg>