<svg id="Layer_1" data-name="Layer 1" xmlns="http://www.w3.org/2000/svg" viewBox="0 0 122.88 57.15"><defs><style>.cls-1{fill:#ffcb00;}.cls-1,.cls-2{fill-rule:evenodd;}.cls-2,.cls-3{fill:#262626;}.cls-4{fill:#fd5;}</style></defs><title>ultra-hd-5k</title><path class="cls-1" d="M6.57,0H116.31a6.59,6.59,0,0,1,6.57,6.57v44a6.59,6.59,0,0,1-6.57,6.57H6.57A6.59,6.59,0,0,1,0,50.58v-44A6.59,6.59,0,0,1,6.57,0Z"/><path class="cls-2" d="M2.7,26H120.18V6.57a3.89,3.89,0,0,0-3.87-3.87H6.57A3.86,3.86,0,0,0,3.84,3.84,3.82,3.82,0,0,0,2.7,6.57V26Z"/><path class="cls-3" d="M43.11,31.66H56.66v4.57H47.48L47,39.3a10.09,10.09,0,0,1,1.88-.67,8.33,8.33,0,0,1,1.84-.22,6.89,6.89,0,0,1,5,1.86A6.27,6.27,0,0,1,57.64,45a7.94,7.94,0,0,1-1,3.82,6.71,6.71,0,0,1-2.8,2.81,9.91,9.91,0,0,1-4.65,1,13.52,13.52,0,0,1-3.48-.39A7.13,7.13,0,0,1,43.25,51a6.89,6.89,0,0,1-1.64-1.74,9.33,9.33,0,0,1-1.06-2.41l5.78-.63a3.49,3.49,0,0,0,1,2.12,2.59,2.59,0,0,0,1.83.72,2.45,2.45,0,0,0,2-.91,4,4,0,0,0,.78-2.69,3.89,3.89,0,0,0-.78-2.69A2.7,2.7,0,0,0,49,41.94a3.25,3.25,0,0,0-1.59.41,4.36,4.36,0,0,0-1.26,1.06l-4.87-.7,1.81-11Zm17.77,0h6.34v7.77l6.66-7.77h8.45l-7.51,7.72,7.85,12.84H74.86l-4.34-8.44-3.3,3.43v5H60.88V31.66Z"/><path class="cls-4" d="M24.25,15l0,2.44a4.92,4.92,0,0,1-1.76,4,7.71,7.71,0,0,1-5,1.4,7.16,7.16,0,0,1-4.75-1.4,4.8,4.8,0,0,1-1.58-4L11.25,15l-.14-7.78h4.77l-.21,9.58a2.49,2.49,0,0,0,.46,1.76,2,2,0,0,0,1.57.54,2.11,2.11,0,0,0,1.62-.54,2.49,2.49,0,0,0,.47-1.76l-.21-9.58h4.84L24.25,15Zm12,4-.29,3.56H26.81l.24-4.51L26.81,7.23h4.84L31.39,17.6l.05,1.09H36l.26.33ZM46.57,7.56,46.31,11l-3.13-.15h-.29l-.12,6.72.19,5H38.22l.24-4.51-.12-7.19H38L34.88,11l-.29-.34.26-3.46H46.31l.26.33Zm11.45,9q1.71,2.66,3.42,4.93l-.07.52a20.38,20.38,0,0,1-4.77.88l-.45-.38-.28-.59c-.13-.25-.38-.79-.76-1.6s-.71-1.58-1-2.29H52.52l.17,4.58H47.92l.24-4.51L47.92,7.23l7.28,0a5.86,5.86,0,0,1,4,1.22A4.43,4.43,0,0,1,60.59,12a5.06,5.06,0,0,1-.68,2.54,6.31,6.31,0,0,1-1.89,2Zm-2.44-4.1A1.89,1.89,0,0,0,55.1,11a2.51,2.51,0,0,0-1.58-.51l-.86.08-.09,4,1.73.09a2.06,2.06,0,0,0,1-.83,2.65,2.65,0,0,0,.31-1.37ZM76.1,22.58H71.28L70.86,20l0-.07-2.32,0-2,.09-.4,2.57H61.51L66.16,7.23H71.9l4.2,15.35Zm-6-6.08-1-5h-.29l-1.33,5,1.33,0,1.33,0Zm24.79,1.1.18,5H90.33l.23-4.51,0-1.19-2.56,0-2.21.07,0,.69.19,5H81.17l.24-4.51L81.17,7.23H86L85.87,13l2.39.05L90.45,13l-.12-5.81h4.84L94.91,17.6Zm9.84-10.46A7,7,0,0,1,110,9a7.26,7.26,0,0,1,1.82,5.31,8.78,8.78,0,0,1-2.11,6.3,8,8,0,0,1-6,2.21c-1.65,0-3.57-.07-5.79-.21l.24-4.51L97.82,7.23l6.93-.09Zm-.24,12.12a1.92,1.92,0,0,0,1.7-.89,5.66,5.66,0,0,0,.58-2.93,12.15,12.15,0,0,0-.24-2.73,2.66,2.66,0,0,0-.76-1.44,2.2,2.2,0,0,0-1.45-.43,17.19,17.19,0,0,0-1.77.09l-.17,6.67,0,1.47a19.17,19.17,0,0,0,2.06.19Z"/></svg>