<svg id="Layer_1" data-name="Layer 1" xmlns="http://www.w3.org/2000/svg" viewBox="0 0 122.88 111.21"><title>videos</title><path d="M9.7,91.11a20.47,20.47,0,0,1-6-5.72A20.15,20.15,0,0,1,0,73.81V20.32A20.26,20.26,0,0,1,6,6l.15-.15A20.25,20.25,0,0,1,20.32,0H87.27a20.27,20.27,0,0,1,14,5.66,20.9,20.9,0,0,1,4.15,5.62l-1.44,0H99.07a15.18,15.18,0,0,0-1.51-1.69,14.82,14.82,0,0,0-8.39-4l-3.1,5.71H80.5l3.17-5.83H62.92l-3.16,5.83H54.2l3.17-5.83H36.05L32.69,11.6a27.74,27.74,0,0,0-6.08,1.74L26,13.6l4.45-8.18H20.32A14.85,14.85,0,0,0,9.92,9.66L9.8,9.8A14.81,14.81,0,0,0,5.42,20.32H16.76a27.66,27.66,0,0,0-4.62,7H5.42V73.81A14.75,14.75,0,0,0,8.08,82.3a15.1,15.1,0,0,0,1.62,2v6.86ZM38.29,19.49h64.49a20.16,20.16,0,0,1,20.1,20.1V91.12a20.16,20.16,0,0,1-20.1,20.09H38.29A20.14,20.14,0,0,1,18.2,91.12V39.59a20.16,20.16,0,0,1,20.09-20.1ZM63.52,58.14l19,13.25a4.16,4.16,0,0,1,.15,7L63.78,91.4A4.18,4.18,0,0,1,57,88.16V61.54h0a4.15,4.15,0,0,1,6.54-3.4ZM86.67,40.06l6.8-14.3h-21l-6.8,14.3Zm12.46-14.3-6.8,14.3h22.24a3.11,3.11,0,0,1,2.05.77V39.59a13.88,13.88,0,0,0-13.84-13.83ZM60,40.06l6.79-14.3H45.21l-6.8,14.3Zm-27.29,0,6.8-14.3H38.29A13.86,13.86,0,0,0,24.46,39.59v.47Zm83.87,5.49a3.11,3.11,0,0,1-2.05.77H24.46v44.8A13.86,13.86,0,0,0,38.29,105h64.49a13.9,13.9,0,0,0,13.84-13.83V45.55Z"/></svg>