<svg id="Layer_1" data-name="Layer 1" xmlns="http://www.w3.org/2000/svg" viewBox="0 0 122.88 107.06"><defs><style>.cls-1{fill-rule:evenodd;}</style></defs><title>video-production</title><path class="cls-1" d="M113.21,57.27a4.25,4.25,0,0,1,1.31,1l3.56,4.09h0a4.53,4.53,0,0,1,.83,1.42,4,4,0,0,1,.21,1.65,4.48,4.48,0,0,1-.45,1.61,3.85,3.85,0,0,1-1,1.26l-2.43,2.12c0,.07.07.15.09.23.17.44.31.91.45,1.35,0,0,0,0,0,.07.15.44.26.93.38,1.44l0,.18,2.76.2a4.12,4.12,0,0,1,2.89,1.48l0,0a3.94,3.94,0,0,1,.8,1.42,4.49,4.49,0,0,1,.21,1.63l-.4,5.47A4.12,4.12,0,0,1,121,86.88a4.09,4.09,0,0,1-3.1,1l-3.21-.23c0,.07-.09.17-.12.24-.21.44-.44.88-.67,1.32s-.5.89-.76,1.28l-.08.14,1.81,2.08.07.08a4.05,4.05,0,0,1,.78,1.44,4.46,4.46,0,0,1-.23,3.19,4.28,4.28,0,0,1-1,1.32l-.05,0-4.12,3.53a4.2,4.2,0,0,1-1.42.86,3.9,3.9,0,0,1-1.68.2,4.66,4.66,0,0,1-1.64-.45,4,4,0,0,1-1.28-1l-2.06-2.42a1,1,0,0,1-.26.08c-.45.15-.91.31-1.4.45s-.95.26-1.44.38a.49.49,0,0,1-.2,0l-.21,2.74a3.93,3.93,0,0,1-.44,1.6,4.11,4.11,0,0,1-1,1.29l0,0a4.12,4.12,0,0,1-1.42.81,4.46,4.46,0,0,1-1.63.2l-5.47-.4a4.18,4.18,0,0,1-3.92-4.55L85,98.88l-.24-.12c-.44-.21-.88-.44-1.31-.68s-.9-.49-1.29-.75l-.14-.08L80,99.06l-.08.07a4.22,4.22,0,0,1-1.44.78,4.4,4.4,0,0,1-1.63.18,4.21,4.21,0,0,1-1.56-.42,4.09,4.09,0,0,1-1.31-1l0,0-3.55-4.17A4.57,4.57,0,0,1,69.53,93a4,4,0,0,1-.21-1.65,4,4,0,0,1,1.5-2.89l2.43-2.07a.67.67,0,0,1-.09-.26c-.14-.44-.31-.9-.45-1.39s-.28-1-.37-1.44l0-.21-2.73-.2A4,4,0,0,1,68,82.49a4.22,4.22,0,0,1-1.29-1l0,0a3.94,3.94,0,0,1-.8-1.42,4.28,4.28,0,0,1-.21-1.63l.4-5.47a4.41,4.41,0,0,1,.42-1.61,4.69,4.69,0,0,1,1-1.31,4.2,4.2,0,0,1,1.45-.82A4.36,4.36,0,0,1,70.6,69l3.21.24c0-.07.08-.17.12-.24.21-.44.44-.88.67-1.32s.5-.89.75-1.28l.09-.14-1.79-2.1a4,4,0,0,1-.82-1.45A4.09,4.09,0,0,1,72.62,61a3.92,3.92,0,0,1,.45-1.6,4.25,4.25,0,0,1,1-1.31l4.09-3.56v0a4.69,4.69,0,0,1,1.43-.83,4,4,0,0,1,1.65-.21,4.34,4.34,0,0,1,1.61.45,4,4,0,0,1,1.26,1l2.12,2.43.2-.09c.45-.17.91-.31,1.4-.48s1-.26,1.44-.37a.78.78,0,0,1,.21,0l.2-2.73a4,4,0,0,1,.44-1.61,4.19,4.19,0,0,1,1-1.28l0,0a3.94,3.94,0,0,1,1.42-.8,4.49,4.49,0,0,1,1.63-.21l5.47.4a4.63,4.63,0,0,1,1.6.43,3.67,3.67,0,0,1,1.32,1,4.16,4.16,0,0,1,.82,1.44,4.36,4.36,0,0,1,.19,1.66L103.42,58l.24.12c.44.21.88.44,1.31.68s.9.49,1.28.75l.15.08,2.1-1.79A3.87,3.87,0,0,1,110,57a4.06,4.06,0,0,1,1.65-.21,3.92,3.92,0,0,1,1.61.45v.05ZM10.78,0H93.24A10.81,10.81,0,0,1,104,10.78V41.1l-.4-.14-.61-.18a11.37,11.37,0,0,0-2.32-.39l-1.87-.14V21.13H5.2V70.38H56.45a11.92,11.92,0,0,0-.21,1.56L56,75.58h-.65V86.91h3.6c.32.35.67.7,1.06,1l.51.45c-.12.32-.22.64-.31,1a12.25,12.25,0,0,0-.4,2l0,.33,0,.37H10.78A10.81,10.81,0,0,1,0,81.32V10.78A10.79,10.79,0,0,1,10.78,0ZM46.46,31,64.7,43.68a2.41,2.41,0,0,1,.74.72,2.58,2.58,0,0,1-.65,3.6L46.62,60.56a2.55,2.55,0,0,1-1.64.59,2.6,2.6,0,0,1-2.6-2.6V33.08s.39-1.37.47-1.49A2.6,2.6,0,0,1,46.46,31Zm3.66,56V75.58H29.18V86.91ZM24,75.58H5.2v5.74a5.6,5.6,0,0,0,5.58,5.59H24V75.58ZM75.69,15.93V5.2H55.32V15.92ZM80.89,5.2V15.92H98.82V10.78A5.6,5.6,0,0,0,93.23,5.2ZM50.12,15.93V5.2H29.18V15.92ZM24,15.93V5.2H10.78A5.6,5.6,0,0,0,5.2,10.78v5.14ZM93.69,72.07A6.38,6.38,0,1,1,87.9,79a6.38,6.38,0,0,1,5.79-6.92ZM93,64.18a14.3,14.3,0,1,1-13,15.5,14.29,14.29,0,0,1,13-15.5Z"/></svg>