<svg xmlns="http://www.w3.org/2000/svg" shape-rendering="geometricPrecision" text-rendering="geometricPrecision" image-rendering="optimizeQuality" fill-rule="evenodd" clip-rule="evenodd" viewBox="0 0 512 329.8"><path fill-rule="nonzero" d="M63.64 0h256.87c17.41 0 33.29 7.25 44.81 18.77 11.6 11.6 18.82 27.62 18.82 45v2.94L493.43 18.3c6.68-2.94 14.49.1 17.43 6.78.77 1.73 1.13 3.55 1.13 5.33l.01 268.98c0 7.31-5.93 13.25-13.24 13.25-2.29 0-4.43-.58-6.3-1.6l-108.32-50.06v5.05c0 17.33-7.28 33.29-18.87 44.9l-.09.08c-11.55 11.53-27.44 18.79-44.67 18.79H63.64c-17.28 0-33.21-7.2-44.8-18.77C7.23 299.4 0 283.49 0 266.03V63.77c0-17.54 7.18-33.49 18.73-45.05C30.28 7.18 46.18 0 63.64 0zm132.07 77.9c6.79 0 12.14 1.97 16.01 5.84 3.85 3.87 5.79 9.2 5.79 16.03 0 6.96-3.32 13.13-9.96 18.54-6.7 5.4-14.48 8.12-23.34 8.12-6.64 0-11.94-1.86-16.01-5.6-4.04-3.79-6.07-8.67-6.07-14.74 0-7.66 3.31-14.25 9.88-19.86 6.6-5.56 14.48-8.33 23.7-8.33zm-33.4 145.23h7.03v-59.55h-19.99c0-27.21 28.27-9.54 65.04-18.83v78.38h10.8v23.44h-62.88v-23.44zm222.76-127.9v137.06l100.44 46.42V50.75L385.07 95.23zm-64.56-68.74H63.64a37.36 37.36 0 0 0-26.47 10.96c-6.75 6.75-10.95 16.07-10.95 26.32v202.26c0 10.18 4.22 19.45 10.95 26.17 6.86 6.86 16.28 11.1 26.47 11.1h256.87c10.14 0 19.52-4.29 26.32-11.1 6.83-6.82 11.09-16.12 11.09-26.17V63.77c0-10.11-4.24-19.47-11.04-26.27-6.76-6.75-16.1-11.01-26.37-11.01z"/></svg>