<svg xmlns="http://www.w3.org/2000/svg" shape-rendering="geometricPrecision" text-rendering="geometricPrecision" image-rendering="optimizeQuality" fill-rule="evenodd" clip-rule="evenodd" viewBox="0 0 512 329.79"><path d="M253.93 93.07c-1.86-1.85-4.04-2.76-6.56-2.76-2.51 0-4.73.91-6.55 2.76l-9.99 9.96c-5.41-3.49-11.42-6.12-17.52-8.12V79.59c0-2.58-.88-4.76-2.67-6.56-1.8-1.8-3.98-2.67-6.55-2.67h-19.24c-2.45 0-4.6.87-6.45 2.67-1.83 1.8-2.74 3.98-2.74 6.56v14.03c-6.24 1.45-12.32 3.75-17.93 6.84l-11.07-10.91c-1.73-1.83-3.84-2.78-6.38-2.78s-4.72.94-6.56 2.78l-13.46 13.48c-1.85 1.86-2.77 4.03-2.77 6.55 0 2.53.92 4.73 2.77 6.56l9.95 10c-3.49 5.43-6.08 11.38-8.12 17.51h-15.32c-2.58 0-4.76.88-6.55 2.68-1.8 1.79-2.68 3.97-2.68 6.56v19.22c0 2.45.88 4.6 2.68 6.46 1.79 1.82 3.97 2.74 6.55 2.74h14.03c1.5 6.36 3.82 12.33 6.84 18.11l-10.91 10.87c-1.83 1.73-2.78 3.85-2.78 6.4 0 2.52.95 4.71 2.78 6.56l13.48 13.65c1.86 1.73 4.04 2.57 6.56 2.57 2.52 0 4.73-.84 6.55-2.57l10-10.15c5.37 3.47 11.45 6.13 17.52 8.12v15.33c0 2.57.87 4.75 2.67 6.55 1.79 1.79 3.98 2.68 6.56 2.68h19.22c2.46 0 4.6-.89 6.45-2.68 1.83-1.8 2.75-3.98 2.75-6.55v-14.03c6.34-1.49 12.35-3.83 18.11-6.84l10.87 10.91c1.74 1.82 3.88 2.77 6.47 2.77 2.62 0 4.75-.95 6.49-2.77l13.65-13.49c1.73-1.87 2.58-4.04 2.58-6.56 0-2.52-.85-4.72-2.58-6.55l-10.15-9.99c3.48-5.39 6.11-11.43 8.12-17.52h15.32c2.58 0 4.76-.89 6.55-2.68 1.8-1.8 2.68-3.98 2.68-6.55v-19.23c0-2.46-.88-4.59-2.68-6.45-1.79-1.84-3.97-2.74-6.55-2.74h-14.02c-1.52-6.21-3.8-12.33-6.84-17.94l10.9-11.06c1.83-1.73 2.78-3.85 2.78-6.39 0-2.53-.94-4.69-2.78-6.55l-13.48-13.47zm130.21-26.36L493.42 18.3c6.69-2.94 14.5.1 17.44 6.78.76 1.73 1.13 3.55 1.13 5.33l.01 268.98c0 7.31-5.94 13.25-13.25 13.25-2.28 0-4.42-.58-6.3-1.6l-108.31-50.06v5.05c0 17.33-7.28 33.29-18.88 44.9l-.08.08c-11.55 11.52-27.46 18.78-44.67 18.78H63.64c-17.28 0-33.21-7.19-44.8-18.76C7.23 299.4 0 283.49 0 266.03V63.77c0-17.53 7.18-33.49 18.73-45.05C30.28 7.18 46.18 0 63.64 0h256.87c17.41 0 33.28 7.24 44.81 18.77 11.6 11.6 18.82 27.62 18.82 45v2.94zm-63.63-40.22H63.64a37.36 37.36 0 0 0-26.47 10.96c-6.75 6.75-10.95 16.08-10.95 26.32v202.26c0 10.18 4.22 19.45 10.95 26.17 6.86 6.86 16.28 11.1 26.47 11.1h256.87c10.14 0 19.52-4.29 26.32-11.1 6.83-6.82 11.09-16.12 11.09-26.17V63.77c0-10.11-4.24-19.46-11.04-26.26-6.76-6.76-16.11-11.02-26.37-11.02zm64.56 68.74v137.06l100.44 46.42V50.75L385.07 95.23zm-193 32.44c5.11 0 9.93.97 14.51 2.9 4.56 1.97 8.52 4.61 11.88 7.94 3.32 3.35 5.96 7.33 7.93 11.87 1.93 4.57 2.9 9.4 2.9 14.5 0 5.12-.97 9.94-2.9 14.53-1.97 4.54-4.61 8.5-7.93 11.86-3.37 3.34-7.32 5.99-11.88 7.95-4.58 1.92-9.4 2.89-14.51 2.89-5.11 0-9.93-.97-14.52-2.89-4.53-1.96-8.5-4.61-11.85-7.95-3.34-3.36-5.99-7.32-7.95-11.86-1.93-4.59-2.89-9.41-2.89-14.53 0-5.1.96-9.93 2.89-14.5 1.96-4.55 4.61-8.52 7.95-11.87 3.35-3.33 7.32-5.97 11.85-7.94 4.58-1.93 9.41-2.9 14.52-2.9z"/></svg>