<svg id="Layer_1" data-name="Layer 1" xmlns="http://www.w3.org/2000/svg" viewBox="0 0 94.76 122.88"><defs><style>.cls-1{fill-rule:evenodd;}</style></defs><title>watch-later</title><path class="cls-1" d="M88,67.63c9-5.85,9-12.36,0-17.53L14.83,2.19C7.5-2.42-.19.3,0,9.92l.3,94c.63,10.45,6.59,13.3,15.37,8.47l5.78-3.57a35.59,35.59,0,0,0,2.94,3.32A36.8,36.8,0,0,0,83.65,70.31L88,67.63ZM44.31,84.7a6.54,6.54,0,0,1,.82-.76,5.7,5.7,0,0,1,.65-.44V67.82a3.53,3.53,0,0,1,1-2.5h0a3.55,3.55,0,0,1,6,2.5V83.49a7,7,0,0,1,1.28,1h0a6.61,6.61,0,0,1,1,1.29h9.45a3.51,3.51,0,0,1,2.5,1h0a3.55,3.55,0,0,1,0,5h0a3.52,3.52,0,0,1-2.5,1H55.17a6.86,6.86,0,0,1-2.34,2.33,6.83,6.83,0,0,1-10.33-6,6.86,6.86,0,0,1,1.81-4.55ZM72.25,64.81C57,49.57,31.29,53.88,22.38,73.08a30.88,30.88,0,1,0,55.82-.51,28.53,28.53,0,0,0-6-7.76Z"/></svg>