<svg id="Layer_1" data-name="Layer 1" xmlns="http://www.w3.org/2000/svg" viewBox="0 0 121.31 122.88"><defs><style>.cls-1{fill-rule:evenodd;}</style></defs><title>add-employee</title><path class="cls-1" d="M97.85,76A23.46,23.46,0,1,1,74.39,99.42,23.46,23.46,0,0,1,97.85,76ZM42.78,65.07c-2.9-2.58-5.2-4.45-5.69-9.81h-.31a4.2,4.2,0,0,1-2.06-.54A5.6,5.6,0,0,1,32.45,52c-1.05-2.4-1.88-8.72.76-10.53l-.5-.33-.05-.7c-.1-1.27-.13-2.81-.15-4.42-.1-5.95-.22-13.15-5-14.6l-2.05-.61,1.35-1.68a78,78,0,0,1,12-12.15c4.6-3.62,9.28-6,13.86-6.73A16.71,16.71,0,0,1,66.12,4a25.3,25.3,0,0,1,3.61,3.63,15.32,15.32,0,0,1,10.8,6.31A22.09,22.09,0,0,1,84,21a24.46,24.46,0,0,1,.94,8,19.35,19.35,0,0,1-5.6,13,4,4,0,0,1,1.75.44c2,1.07,2.05,3.39,1.53,5.33-.52,1.62-1.17,3.51-1.8,5.09-.75,2.13-1.85,2.53-4,2.3-.11,5.28-2.55,6.73-5.83,9.83.13,8-28.45,7-28.27,0ZM41.3,71.62l8.5,24.57,4.28-14.41L52,79.49c-1.57-2.3-1-4.92,1.89-5.39A20.62,20.62,0,0,1,57,74a17.33,17.33,0,0,1,3.47.13c2.72.6,3,3.23,1.65,5.32l-2.1,2.29,4.28,14.41L72,71.62a18.34,18.34,0,0,0,6.7,3.2,31.21,31.21,0,0,0-9.23,37.54H0C1.84,104,1.65,85.69,10.09,81c7.52-4.18,25.05-3.87,31.21-9.41ZM93.59,88.31c0-1.26-.12-2.15,1.43-2.13l5,.06c1.63,0,2.06.51,2.05,2v6.89H109c1.26,0,2.16-.12,2.13,1.43l-.06,5c0,1.63-.5,2.06-2,2h-6.88v6.88c0,1.53-.42,2-2.05,2l-5,.06c-1.55,0-1.44-.87-1.43-2.13v-6.84H86.7c-1.52,0-2-.42-2-2l-.06-5c0-1.55.87-1.44,2.13-1.43h6.85V88.31Z"/></svg>