<?xml version="1.0" encoding="utf-8"?><svg version="1.1" id="Layer_1" xmlns="http://www.w3.org/2000/svg" xmlns:xlink="http://www.w3.org/1999/xlink" x="0px" y="0px" viewBox="0 0 115.65 122.88" style="enable-background:new 0 0 115.65 122.88" xml:space="preserve"><style type="text/css"><![CDATA[
	.st0{fill-rule:evenodd;clip-rule:evenodd;}
]]></style><g><path class="st0" d="M29.73,56.99l5.52-0.14l2.61-0.07l3.97,4.61c0.93,1.08,1.88,2.17,2.92,3.22c-0.74,1.1-4.04,3.91-6.98,6.39 c-1.3,1.1-2.53,2.15-3.48,3c-7.45,2.89-14.73,5.86-20.37,9.41C6.05,88.36,2.06,96.6,0.18,105.5c-0.58,7.83-0.01,7.44,5.5,7.35 c21.68-0.21,43.41,0.11,65.11,0.2c-4.32-9.74-2.49-21.55,5.5-29.54c3.35-3.35,7.37-5.61,11.62-6.8c-2.31-0.96-4.68-1.89-7.08-2.81 c-0.68-0.61-1.44-1.27-2.22-1.95c-2.47-2.16-5.25-4.6-6.38-6c1.77-1.55,3.26-3.33,4.73-5.1l2.49-3c0.04-0.05,0.23-0.27,0.51-0.59 c0.14-0.17,0.29-0.33,0.45-0.53h5.45c8.04-17.2,2.93-42.72-13.48-53.54C67.33-0.13,63.71,0,57.8,0c-6.77,0-10.22,0.22-16.02,4.05 C33.22,9.7,27.97,19.49,25.76,33.07C25.3,39.84,25,51.54,29.73,56.99L29.73,56.99L29.73,56.99L29.73,56.99z M109.61,87.72 c8.04,8.04,8.04,21.08,0,29.13c-8.04,8.04-21.08,8.04-29.13,0s-8.04-21.08,0-29.13C88.53,79.68,101.57,79.68,109.61,87.72 L109.61,87.72L109.61,87.72z M92.88,90.51h4.34c0.59,0,1.08,0.49,1.08,1.08v7.44h7.45c0.59,0,1.08,0.49,1.08,1.08v4.34 c0,0.59-0.49,1.08-1.08,1.08H98.3v7.44c0,0.59-0.49,1.08-1.08,1.08h-4.34c-0.59,0-1.08-0.49-1.08-1.08v-7.44h-7.44 c-0.59,0-1.08-0.49-1.08-1.08v-4.34c0-0.59,0.49-1.08,1.08-1.08h7.44v-7.44C91.8,91,92.29,90.51,92.88,90.51L92.88,90.51z M39.16,54.53c-4.49-15.6-2.31-29.95,9.99-42.23c2.18,7.06,7.07,12.88,15.41,17.18C68.54,32.43,72.4,36,76.12,40.1 c0.66-2.72-1.87-6.03-4.92-9.43c2.84,1.4,5.43,3.35,7.27,7.11c2.14,4.37,2.11,8.05,1.4,12.79c-0.21,1.37-0.49,2.68-0.85,3.93 c-0.25,0.1-0.46,0.24-0.61,0.42c-0.33,0.41-0.68,0.81-0.99,1.18c-0.1,0.12-0.18,0.21-0.52,0.62l-2.49,3 c-1.9,2.29-3.83,4.57-6.26,6.24c-2.33,1.59-5.18,2.64-9.1,2.63c-3.6-0.01-6.34-1.02-8.59-2.53c-2.36-1.57-4.26-3.73-6.08-5.83 l-4.55-5.29C39.66,54.75,39.43,54.62,39.16,54.53L39.16,54.53L39.16,54.53L39.16,54.53z M76.29,73.22 c-2.36-2.06-4.82-4.26-6.03-5.74l-0.09,0.06c-2.85,1.93-6.34,3.24-11.14,3.23c-4.47-0.01-7.84-1.26-10.6-3.09 c-0.66-0.44-1.28-0.91-1.86-1.4c-1.37,1.72-4.43,4.31-7.17,6.63l-0.6,0.51C38.37,88.84,71.78,93.51,76.29,73.22L76.29,73.22 L76.29,73.22L76.29,73.22z"/></g></svg>