<svg id="Layer_1" data-name="Layer 1" xmlns="http://www.w3.org/2000/svg" viewBox="0 0 121.2 122.88"><defs><style>.cls-1{fill-rule:evenodd;}</style></defs><title>add-female-member</title><path class="cls-1" d="M98.26,77A22.94,22.94,0,1,1,75.32,99.94,22.95,22.95,0,0,1,98.26,77Zm-83.9-8.87c9.77-.8,13.36-10.94,14.56-21.47C30.76,30.56,28.21,9.83,47.6,2,63-4.23,82.9,4.15,85.07,26.33,85,41.4,89.22,67,102.71,68.13a4.7,4.7,0,0,1-1,1.53,30.83,30.83,0,0,0-3.48-.19,30.29,30.29,0,0,0-17,5.17c-1.19-.24-2.57-.56-4-.94h0l-.05,0a18.38,18.38,0,0,1-2.91-1,18.35,18.35,0,0,1-3-1.43,3.8,3.8,0,0,1-1.2-1.58A6.33,6.33,0,0,1,68.73,66l-.64-2.29c-.58.39-1.17.73-1.76,1.05l-.07,0c-5.7,3.7-11.61,3.4-17.88-1-.08,1.92-1.22,7.1-3,8.15-2.85,1.74-7.43,2.48-10.79,3-.8.13-1.53.25-2.18.38-1.07.21-2.1.42-3.08.64,9.5,9.23,19.08,14.4,28.71,14.69A30.1,30.1,0,0,0,70,88.5a30.47,30.47,0,0,0,1.13,25.35H1.46A1.47,1.47,0,0,1,0,112.39c0-11.9,6.5-25.58,10.73-30.56,3.06-3.61,7.42-5.86,13.48-7.59-4.86-1.1-8.86-3.33-9.85-6.11ZM71.54,57.91c8.61-9.28,10-16.37,7.46-28.74-6-2.7-9.93-8.65-11.94-17.59C64.67,28.6,43.2,27.87,37.8,31c0,10.22-.33,19.27,7.38,27.36,7.21,7.57,19.54,6.62,26.36-.41ZM94.09,89.08C94.09,87.85,94,87,95.5,87l4.93.06c1.6,0,2,.5,2,2v6.73h6.69c1.23,0,2.11-.12,2.09,1.41l-.06,4.93c0,1.6-.5,2-2,2h-6.73v6.73c0,1.5-.4,2-2,2l-4.93.06c-1.53,0-1.41-.86-1.41-2.08v-6.7H87.36c-1.49,0-2-.4-2-2l-.06-4.93c0-1.53.86-1.41,2.09-1.41h6.69V89.08Z"/></svg>