<svg xmlns="http://www.w3.org/2000/svg" shape-rendering="geometricPrecision" text-rendering="geometricPrecision" image-rendering="optimizeQuality" fill-rule="evenodd" clip-rule="evenodd" viewBox="0 0 512 315.77"><path fill-rule="nonzero" d="M205.68 177.81h76.12c-4.7 4.48-9.38 9.05-13.97 13.69l-1.73 1.76h-60.42c-4.7 0-8.98 1.93-12.08 5.03-3.11 3.11-5.03 7.39-5.03 12.09v72.81c0 4.55 1.79 8.69 4.7 11.77l.33.31c3.11 3.11 7.39 5.04 12.08 5.04h13.35v.03h44.12l.02-.03h43.15c4.69 0 8.97-1.93 12.08-5.03 3.1-3.11 5.03-7.39 5.03-12.09V218.7c4.76-5.64 9.56-11.22 14.36-16.72.72 2.68 1.1 5.5 1.1 8.4v72.81c0 8.93-3.67 17.07-9.57 22.97l-.03.03c-5.91 5.9-14.05 9.58-22.97 9.58H205.68c-8.95 0-17.1-3.67-23.01-9.58l-.43-.47c-5.64-5.86-9.13-13.81-9.13-22.53v-72.81c0-8.97 3.66-17.12 9.56-23.01 5.9-5.9 14.04-9.56 23.01-9.56zM45.12 77.77c-2.81-4.47-8.07-10.54-8.07-15.78 0-2.96 2.33-6.82 5.67-7.68-.27-4.43-.44-8.93-.44-13.38 0-2.63.05-5.29.15-7.9.14-1.65.45-3.29.89-4.88 2.05-6.7 6.53-12.39 12.55-15.96 2.14-1.34 4.45-2.39 6.82-3.25C67.01 7.36 64.92.1 69.65.01c11.05-.29 29.23 9.83 36.32 17.5a28.07 28.07 0 0 1 7.24 18.18l-.45 19.36c1.97.48 4.16 2.01 4.65 3.98 1.51 6.11-4.83 13.72-7.78 18.58-1.71 2.82-6.47 9.63-9.75 14.3-2.18 3.1-4.41 4.1-2.43 7.06 16.13 22.17 56.98 6.33 56.98 50.42H0c0-44.12 40.86-28.25 56.98-50.42 2.17-3.19.36-3.58-2.11-7.13-3.62-5.22-9.04-12.95-9.75-14.07zm357.57 0c-2.81-4.47-8.07-10.54-8.07-15.78 0-2.96 2.33-6.82 5.67-7.68-.27-4.43-.44-8.93-.44-13.38 0-2.63.05-5.29.15-7.9.14-1.65.45-3.29.89-4.88 2.05-6.7 6.53-12.39 12.56-15.96 2.13-1.34 4.44-2.39 6.82-3.25 4.31-1.58 2.22-8.84 6.95-8.93 11.06-.29 29.23 9.83 36.32 17.5a28.019 28.019 0 0 1 7.24 18.18l-.45 19.36c1.97.48 4.17 2.01 4.65 3.98 1.51 6.11-4.83 13.72-7.78 18.58-1.71 2.82-6.47 9.63-9.75 14.3-2.18 3.1-4.41 4.1-2.43 7.06 16.13 22.17 56.98 6.33 56.98 50.42H357.57c0-44.12 40.87-28.25 56.98-50.42 2.17-3.19.36-3.58-2.11-7.13-3.62-5.22-9.04-12.95-9.75-14.07zm-178.79 0c-2.8-4.47-8.07-10.54-8.07-15.78 0-2.96 2.34-6.82 5.67-7.68-.26-4.43-.43-8.93-.43-13.38 0-2.63.05-5.29.14-7.9.15-1.65.45-3.29.89-4.88 2.05-6.7 6.54-12.39 12.56-15.96 2.14-1.34 4.45-2.39 6.82-3.25 4.31-1.58 2.22-8.84 6.95-8.93 11.06-.29 29.23 9.83 36.32 17.5A28.03 28.03 0 0 1 292 35.69l-.45 19.36c1.97.48 4.16 2.01 4.65 3.98 1.51 6.11-4.83 13.72-7.78 18.58-1.72 2.82-6.47 9.63-9.76 14.3-2.18 3.1-4.4 4.1-2.43 7.06 16.13 22.17 56.98 6.33 56.98 50.42H178.79c0-44.12 40.86-28.25 56.98-50.42 2.16-3.19.36-3.58-2.11-7.13-3.62-5.22-9.05-12.95-9.76-14.07zM36.14 177.81h82.14c8.94 0 17.08 3.67 22.99 9.58 5.92 5.89 9.59 14.04 9.59 22.99v72.81c0 8.95-3.68 17.09-9.59 23l-.47.43c-5.88 5.65-13.83 9.15-22.52 9.15H36.14c-8.91 0-17.07-3.68-22.98-9.59-5.92-5.88-9.59-14.03-9.59-22.99v-72.81c0-8.97 3.67-17.12 9.56-23.01 5.9-5.9 14.05-9.56 23.01-9.56zm82.14 15.45H36.14c-4.7 0-8.98 1.93-12.08 5.03-3.1 3.11-5.03 7.39-5.03 12.09v72.81c0 4.69 1.94 8.97 5.04 12.07v.03c3.09 3.1 7.37 5.02 12.07 5.02h82.14c4.54 0 8.68-1.8 11.75-4.71l.32-.34c3.11-3.11 5.05-7.39 5.05-12.07v-72.81c0-4.69-1.94-8.97-5.05-12.08v-.03a17.053 17.053 0 0 0-12.07-5.01zm275.44-15.45h82.14c8.94 0 17.07 3.67 22.98 9.58 5.92 5.89 9.59 14.04 9.59 22.99v72.81c0 8.95-3.68 17.09-9.58 23l-.48.43c-5.87 5.65-13.83 9.15-22.51 9.15h-82.14c-8.93 0-17.07-3.67-22.98-9.58h-.03c-5.89-5.89-9.57-14.04-9.57-23v-72.81c0-8.97 3.67-17.12 9.57-23.01l.47-.44c5.86-5.64 13.81-9.12 22.54-9.12zm82.14 15.45h-82.14c-4.55 0-8.7 1.8-11.78 4.71l-.31.32c-3.1 3.11-5.03 7.39-5.03 12.09v72.81c0 4.69 1.94 8.97 5.04 12.07 3.1 3.12 7.38 5.05 12.08 5.05h82.14c4.53 0 8.68-1.8 11.74-4.71l.32-.34c3.11-3.11 5.05-7.39 5.05-12.07v-72.81c0-4.69-1.93-8.97-5.04-12.08v-.03c-3.09-3.08-7.36-5.01-12.07-5.01zm-241.65 34.18c7.49 4.31 12.37 7.9 18.18 14.31 15.07-24.26 32.08-38.35 53.35-57.43l2.08-.8h23.28c-31.21 34.66-54.41 62.34-77.73 104.13-14.01-23.62-23.45-38.83-43.82-54.64l24.66-5.57z"/></svg>