<svg id="Layer_1" data-name="Layer 1" xmlns="http://www.w3.org/2000/svg" viewBox="0 0 122.88 115.68"><defs><style>.cls-1{fill:#121212;}.cls-2{fill:#d8453e;fill-rule:evenodd;}</style></defs><title>block-user</title><path class="cls-1" d="M37.16,55c-2-3.22-5.8-7.59-5.8-11.35a6.06,6.06,0,0,1,4.08-5.52c-.19-3.19-.32-6.42-.32-9.62,0-1.9,0-3.81.11-5.69a12.65,12.65,0,0,1,.64-2.85,20.22,20.22,0,0,1,9-11.48A25.93,25.93,0,0,1,49.8,6.1c3.1-1.13,1.6-6,5-6.1,8-.2,21,6.75,26.12,12.27a18.52,18.52,0,0,1,5.21,12.41l-.32,13.93a4.57,4.57,0,0,1,3.34,2.86c1.08,4.39-3.47,9.86-5.59,13.36-2,3.22-9.43,12-9.44,12.1a2.85,2.85,0,0,0,.67,1.62,18.48,18.48,0,0,0,2.47,2.74,30.69,30.69,0,0,0-5.11,34.86H0C0,74.42,34.1,84.5,45.69,68.55c.57-.84.84-1.29.83-1.66,0-.2-8.59-10.72-9.36-11.94Z"/><path class="cls-2" d="M99.56,69A23.33,23.33,0,1,1,76.23,92.35,23.32,23.32,0,0,1,99.56,69ZM89.45,88.11,89,87.66c-.69-.71-1-1.3,0-2.28l3.32-3.24a2.31,2.31,0,0,1,1.56-.87,2.27,2.27,0,0,1,1.5.86l4.27,4.27,4.68-4.69c.71-.69,1.31-1,2.29,0L109.86,85a2.22,2.22,0,0,1,.86,1.56,2.25,2.25,0,0,1-.86,1.5l-4.26,4.26,4.26,4.26a2.27,2.27,0,0,1,.86,1.5,2.22,2.22,0,0,1-.86,1.56L106.62,103c-1,1-1.58.69-2.29,0L99.65,98.3l-4.27,4.27a2.27,2.27,0,0,1-1.5.86,2.31,2.31,0,0,1-1.56-.87L89,99.32c-1-1-.69-1.57,0-2.28l4.7-4.69-4.25-4.24Z"/></svg>