<svg id="Layer_1" data-name="Layer 1" xmlns="http://www.w3.org/2000/svg" viewBox="0 0 122.88 85.45"><title>data-transfer</title><path d="M74.69,32.21a.72.72,0,0,0-.52.21.72.72,0,0,0-.2.52v17.5a6.65,6.65,0,0,0-4.35,0V32.94a5.12,5.12,0,0,1,5.09-5.1h43.08a5.12,5.12,0,0,1,5.09,5.1V80.36a5.12,5.12,0,0,1-5.09,5.09H78.45c1.14-1,2.84-2.69,4.55-4.36h34.81a.72.72,0,0,0,.73-.73V32.94a.72.72,0,0,0-.73-.73ZM53.16,73V65.87a2.59,2.59,0,0,1,2.58-2.58H69.61V58.74a2.13,2.13,0,0,1,.86-1.82c1.44-1,2.85.35,3.85,1.25,2.81,2.57,8.49,8.39,10,9.66a2.09,2.09,0,0,1,0,3.28c-1.53,1.31-7.51,7.45-10.25,9.89-1,.85-2.26,1.89-3.58,1a2.14,2.14,0,0,1-.86-1.82V75.62H55.74A2.62,2.62,0,0,1,53.16,73ZM40.92,7.89,54.39,20.51H40.92V7.89ZM13.71,33a2,2,0,0,1,1.47-.68H38.79a1.93,1.93,0,0,1,1.47.66,2.31,2.31,0,0,1,0,3.06,2,2,0,0,1-1.47.68H15.18a2,2,0,0,1-1.48-.67,2.33,2.33,0,0,1-.57-1.53A2.26,2.26,0,0,1,13.71,33Zm0,25.58a2,2,0,0,1,1.47-.67H45.57a2,2,0,0,1,1.43.63l0,0a2.28,2.28,0,0,1,.58,1.53,2.24,2.24,0,0,1-.57,1.53,2,2,0,0,1-1.48.67H15.18a2,2,0,0,1-1.44-.62l0-.05a2.32,2.32,0,0,1,0-3.06ZM46.14,45.13a2,2,0,0,1,1.47.68,2.32,2.32,0,0,1,0,3.06,2,2,0,0,1-1.48.67h-31a2,2,0,0,1-1.48-.67,2.32,2.32,0,0,1,0-3.06l0,0a2,2,0,0,1,1.43-.64ZM13.71,20.23a2,2,0,0,1,1.47-.68h9.38a2,2,0,0,1,1.43.63l0,0a2.25,2.25,0,0,1,.58,1.53,2.29,2.29,0,0,1-.54,1.48l0,.05a2,2,0,0,1-1.47.67H15.18a2,2,0,0,1-1.44-.62l0,0a2.33,2.33,0,0,1-.57-1.54,2.27,2.27,0,0,1,.57-1.51ZM61.89,22.6c0-1.05-1.44-2.26-2.12-2.92L40.4.83A2.19,2.19,0,0,0,38.67,0H4A4,4,0,0,0,0,4V73.08a4,4,0,0,0,4,4H46.79v-4.5H4.51V4.49h31.9V22.76A2.26,2.26,0,0,0,38.67,25H57.39V56.56h4.5v-34ZM84.46,48.65a2.1,2.1,0,0,1-2-2.17,2.07,2.07,0,0,1,2-2.17H108a2.07,2.07,0,0,1,2,2.17,2.1,2.1,0,0,1-2,2.17H84.46ZM91,62.79a2.11,2.11,0,0,1-2-2.17,2.07,2.07,0,0,1,2-2.17h17a2.07,2.07,0,0,1,2,2.17,2.1,2.1,0,0,1-2,2.17H91Z"/></svg>