<svg id="Layer_1" data-name="Layer 1" xmlns="http://www.w3.org/2000/svg" viewBox="0 0 122.88 75.79"><title>file-data-exchange</title><path d="M77.28,31.25a1.86,1.86,0,0,1,1.39-.64H101a1.86,1.86,0,0,1,1.39.63,2.16,2.16,0,0,1,.54,1.45,2.21,2.21,0,0,1-.54,1.45,1.9,1.9,0,0,1-1.39.64H78.67a1.86,1.86,0,0,1-1.39-.63,2.18,2.18,0,0,1-.55-1.46,2.14,2.14,0,0,1,.55-1.44ZM13,31.56a1.87,1.87,0,0,1,1.39-.65H36.71a1.82,1.82,0,0,1,1.39.63A2.14,2.14,0,0,1,38.64,33a2.17,2.17,0,0,1-.48,1.37l-.5.44a1.76,1.76,0,0,1-.95.28H14.36A1.83,1.83,0,0,1,13,34.45a2.17,2.17,0,0,1,0-2.89ZM50.49,39v.07H64.54V50.17H50.38V54.3a.31.31,0,0,1,0,.1,2.13,2.13,0,0,1-.86,1.84,2.35,2.35,0,0,1-2.13.1.77.77,0,0,1-.25-.14c-4.23-3.32-7.15-6.63-11.38-10l-.06-.06a2,2,0,0,1-.74-2A2.8,2.8,0,0,1,36,42.7l10.37-9.19A4.89,4.89,0,0,1,48,32.65a2,2,0,0,1,1.29,0,1.77,1.77,0,0,1,1,1,3.67,3.67,0,0,1,.25,1.45v3.79a.34.34,0,0,1,0,.1ZM68.91,69.35v-.07h-14V58.16H69V54s0-.07,0-.1a2.17,2.17,0,0,1,.86-1.84A2.38,2.38,0,0,1,72,52a.82.82,0,0,1,.26.14c4.23,3.32,7.14,6.64,11.37,10l.06,0a2,2,0,0,1,.75,2,2.79,2.79,0,0,1-1.09,1.52L73,74.83a4.68,4.68,0,0,1-1.54.86,2.07,2.07,0,0,1-1.28,0,1.77,1.77,0,0,1-1-1,3.84,3.84,0,0,1-.24-1.45V69.35ZM13,55.77a1.86,1.86,0,0,1,1.39-.64H38.54c1.49,1.38,3,2.77,4.71,4.16H14.36A1.88,1.88,0,0,1,13,58.7l0,0a2.17,2.17,0,0,1,0-2.89Zm17.62-8.58H14.36A1.86,1.86,0,0,1,13,46.56a2.19,2.19,0,0,1,0-2.9l0,0a1.86,1.86,0,0,1,1.35-.6H30.27l0,.16a6.5,6.5,0,0,0,.2,3.65l0,0,.13.34ZM13,19.45a1.86,1.86,0,0,1,1.39-.64h8.88a1.86,1.86,0,0,1,1.36.59l0,0a2.2,2.2,0,0,1,0,2.85l0,.05a1.88,1.88,0,0,1-1.39.64H14.36a1.89,1.89,0,0,1-1.36-.6l0,0a2.13,2.13,0,0,1-.55-1.45A2.16,2.16,0,0,1,13,19.46ZM51.7,73.28H3.82A3.82,3.82,0,0,1,0,69.46V4.12A3.81,3.81,0,0,1,3.82.31H36.6a2.09,2.09,0,0,1,1.64.78L56.56,18.93c.64.63,2,1.77,2,2.77V34.2H54.36l0-10.22H36.6a2.14,2.14,0,0,1-2.14-2.14V4.55H4.27V69H51.7v4.26Zm71.17-35.65V69.16a3.81,3.81,0,0,1-3.8,3.81H82.36l4.18-3.7c.22-.18.42-.37.62-.56h31.46V37.63h0v-14H100.91a2.14,2.14,0,0,1-2.14-2.15V4.25H68.58v30H64.31V3.82A3.82,3.82,0,0,1,68.13,0h32.78a2.12,2.12,0,0,1,1.64.78l18.32,17.85c.64.62,2,1.77,2,2.76V37.63ZM82.61,54.82H108a1.86,1.86,0,0,1,1.35.6l0,0a2.14,2.14,0,0,1,.55,1.44,2.17,2.17,0,0,1-.54,1.45A1.87,1.87,0,0,1,108,59H87.38a6,6,0,0,0-.44-.43l-.31-.28c-1.46-1.15-2.76-2.3-4-3.46ZM108,42.71a1.88,1.88,0,0,1,1.39.64,2.17,2.17,0,0,1,.55,1.45,2.19,2.19,0,0,1-.54,1.45,1.89,1.89,0,0,1-1.4.63H78.67a1.86,1.86,0,0,1-1.39-.63,2.19,2.19,0,0,1,0-2.9l0,0a1.86,1.86,0,0,1,1.35-.6ZM77.28,19.14a1.9,1.9,0,0,1,1.39-.64h8.88a1.9,1.9,0,0,1,1.36.59l0,0A2.21,2.21,0,0,1,89,22l0,0a1.88,1.88,0,0,1-1.39.64H78.67a1.88,1.88,0,0,1-1.36-.59l0,0a2.18,2.18,0,0,1-.55-1.46,2.2,2.2,0,0,1,.54-1.43Z"/></svg>