<svg id="Layer_1" data-name="Layer 1" xmlns="http://www.w3.org/2000/svg" viewBox="0 0 121.7 122.88"><defs><style>.cls-1{fill-rule:evenodd;}</style></defs><title>find-problem</title><path class="cls-1" d="M53.62,0A53.63,53.63,0,0,1,98.5,83l23.2,25.29-16,14.63L83.32,98.26A53.62,53.62,0,1,1,53.62,0ZM46,63.74V62.47a29.17,29.17,0,0,1,.68-7c1.41-5.28,4.62-6.24,8.4-9.19,1.6-1.22,2.9-2.74,2.9-4.84,0-3.81-4.31-5.53-7.4-3.79a5,5,0,0,0-2.66,4.53H34.35c0-6.87,3-12.23,9.55-14.84a29.12,29.12,0,0,1,19.56-.05c6.05,2.26,9.59,6.73,9.59,13.29A13.61,13.61,0,0,1,72,46.26c-2.66,5.85-6.8,6.26-10.81,9.92-2.49,2.25-2.62,4.48-2.62,7.56Zm6.47,17.82a7.23,7.23,0,0,1-5.26-2.15,7.06,7.06,0,0,1-2.17-5.26A6.94,6.94,0,0,1,47.22,69a7.4,7.4,0,0,1,10.41,0,7,7,0,0,1,2.28,5.18,7.22,7.22,0,0,1-1.08,3.74,8,8,0,0,1-2.72,2.68,6.88,6.88,0,0,1-3.63,1ZM87.3,19.93a47.64,47.64,0,1,0,14,33.69,47.48,47.48,0,0,0-14-33.69Z"/></svg>