<svg xmlns="http://www.w3.org/2000/svg" shape-rendering="geometricPrecision" text-rendering="geometricPrecision" image-rendering="optimizeQuality" fill-rule="evenodd" clip-rule="evenodd" viewBox="0 0 512 459.16"><path d="M0 0h41.58v41.58H0V0zm297.31 186.76h83.68V362.3H186.96v-89.93h-83.68V96.83h194.03v89.93zm-82.62 85.61v62.2h138.57V214.49h-55.95v57.88h-82.62zm-83.68-147.81h138.58v120.08H131.01V124.56zm339.41 293.03H512v41.57h-41.58v-41.57zm0-208.8H512v41.58h-41.58v-41.58zm0-208.79H512v41.58h-41.58V0zM235.21 417.59h41.58v41.57h-41.58v-41.57zm0-417.59h41.58v41.58h-41.58V0zM0 417.59h41.58v41.57H0v-41.57zm0-208.8h41.58v41.58H0v-41.58z"/></svg>