<svg xmlns="http://www.w3.org/2000/svg" shape-rendering="geometricPrecision" text-rendering="geometricPrecision" image-rendering="optimizeQuality" fill-rule="evenodd" clip-rule="evenodd" viewBox="0 0 512 281.62"><path fill-rule="nonzero" d="M256 0c35.46 0 67.59 14.39 90.85 37.64 23.28 23.29 37.67 55.41 37.67 90.88 0 22.57-5.83 43.78-16.06 62.22l56.93 48.2c3.48 2.95 3.91 8.24.94 11.73l-23.85 28.04c-2.98 3.48-8.23 3.89-11.73.94l-57.1-48.34-.25-.22c-21.54 16.29-48.35 25.95-77.4 25.95-35.47 0-67.59-14.39-90.85-37.65-23.28-23.29-37.67-55.41-37.67-90.87 0-35.47 14.39-67.59 37.65-90.85C188.41 14.39 220.53 0 256 0zM72 157.1l33.83 7.67a171.169 171.169 0 0 1-3.88-36.25c0-12.2 1.3-24.11 3.73-35.58l-33.66 8.71.01-32.34a4.63 4.63 0 0 0-1.09-3.73 4.62 4.62 0 0 0-6.51-.45L1.58 124.75l-.52.55c-1.62 1.96-1.35 4.88.61 6.5l62.84 60.19c1.02.82 2.37 1.22 3.76.97 2.5-.45 4.17-2.84 3.72-5.34L72 157.1zm368 0-33.83 7.67c2.53-11.69 3.88-23.81 3.88-36.25 0-12.2-1.3-24.11-3.73-35.58l33.66 8.71-.01-32.34a4.63 4.63 0 0 1 1.09-3.73 4.62 4.62 0 0 1 6.51-.45l62.85 59.62.52.55c1.62 1.96 1.35 4.88-.61 6.5l-62.84 60.19a4.664 4.664 0 0 1-3.76.97 4.604 4.604 0 0 1-3.72-5.34L440 157.1zm-125.35-39.87v22.57c0 4.6-3.76 8.36-8.36 8.36h-30.64v30.64c0 4.6-3.76 8.36-8.37 8.36h-22.56c-4.61 0-8.36-3.76-8.36-8.36v-30.64h-30.63c-4.61 0-8.36-3.76-8.36-8.36v-22.57c0-4.6 3.75-8.36 8.36-8.36h30.63V78.24c0-4.61 3.75-8.36 8.36-8.36h22.56c4.61 0 8.37 3.75 8.37 8.36v30.63h30.64c4.6 0 8.36 3.76 8.36 8.36zm22.12-69.48C316.1 27.1 287.54 14.32 256 14.32c-31.55 0-60.1 12.78-80.77 33.43-20.65 20.66-33.43 49.22-33.43 80.77 0 31.54 12.78 60.1 33.43 80.77 20.67 20.65 49.22 33.42 80.77 33.42 31.54 0 60.1-12.77 80.77-33.42 20.65-20.67 33.43-49.23 33.43-80.77 0-31.55-12.78-60.11-33.43-80.77z"/></svg>