<svg id="Layer_1" data-name="Layer 1" xmlns="http://www.w3.org/2000/svg" viewBox="0 0 122.88 79.11"><defs><style>.cls-1{fill-rule:evenodd;}</style></defs><title>life-change</title><path class="cls-1" d="M30.09,64.36c16.7,18.29,36.9,17.85,50,8l3.22,4.8c1.44,2.12,2.19,2.15,2.72-.34L88.9,63.35c.35-1.63-.21-2.15-1.78-2.41L73.64,58.67c-2.4-.47-2.77.38-1.38,2.35l3.41,4.88c-13.55,11.73-32.56,2.48-39-6l-6.58,4.48ZM93.61,30.55a.58.58,0,0,1-.28-.82.7.7,0,0,1,.9-.25,3.63,3.63,0,0,0,1.53.36,3.52,3.52,0,0,0,1.53-.38.73.73,0,0,1,.92.26.59.59,0,0,1-.29.82,5,5,0,0,1-2.15.51,5.12,5.12,0,0,1-2.16-.5Zm-67.6,0a.58.58,0,0,1-.28-.82.7.7,0,0,1,.9-.25,3.63,3.63,0,0,0,1.53.36,3.52,3.52,0,0,0,1.53-.38.72.72,0,0,1,.91.26.57.57,0,0,1-.28.82,5,5,0,0,1-2.15.51,5.09,5.09,0,0,1-2.16-.5Zm62.32,6.53c3,6.23,12,6.45,14.89,0a16.36,16.36,0,0,1-1.94-2.48l-.28-.41A8.11,8.11,0,0,1,95.77,36a8,8,0,0,1-5.58-2.24l-.26-.24c-.2.58-.47,1.27-.75,1.92a10.93,10.93,0,0,1-.85,1.62ZM86.09,20.52,86,20.44H86a2.38,2.38,0,0,0-1.22.31,1,1,0,0,0-.35.41,1.45,1.45,0,0,0-.12.65,5.84,5.84,0,0,0,1.16,2.81v0h0l2.43,3.86a20.4,20.4,0,0,0,3.26,4.28,6.64,6.64,0,0,0,4.65,1.88,6.86,6.86,0,0,0,4.92-2,21.52,21.52,0,0,0,3.36-4.57l2.73-4.5a4.54,4.54,0,0,0,.58-2.4c-.08-.27-.38-.41-.89-.43h-.33l-.38,0a.71.71,0,0,1-.21,0,2,2,0,0,1-.35,0c-.21.25-.43.47-.51.58a7.1,7.1,0,0,0-.65,1.26,6.21,6.21,0,0,1-1,1.95,2.37,2.37,0,0,1-1.29.83l-.19,0a7.79,7.79,0,0,1-3.23-.17,2.2,2.2,0,0,1-.65-.4,6,6,0,0,1-1-1.7,1.33,1.33,0,0,0-.85-.81,1.25,1.25,0,0,0-.91.77c-.18.37-.43.73-.58,1.07-.5,1.14-1.76,1.34-3.06,1.33a6.32,6.32,0,0,1-1.06-.09c-1.27-.23-1.64-.39-2.16-1.54-.66-1.46-.75-2.23-2-3.39Zm.62-.77.44,0a12.5,12.5,0,0,1,6.58.83c.81.33,1.6,1,2.48.73.59-.15,1.44-.72,2.14-1a13.14,13.14,0,0,1,6.51-.51l.16,0,.72-3.2c-6.95,1.1-12.14-4.06-19.48-1l.45,4.17Zm17.35,16.68c3.18,2.25,10.93,2.79,13.91,4.45a8.15,8.15,0,0,1,2.6,2.2c1.49,2,4.55,9.15-.41,9.53H71.37c-5-.38-1.9-7.55-.4-9.53a8.15,8.15,0,0,1,2.6-2.2c3-1.66,10.68-2.2,13.88-4.44A10.23,10.23,0,0,0,88.18,35c.37-.84.7-1.76.92-2.38a30,30,0,0,1-2.4-3.42l-2.43-3.86a7,7,0,0,1-1.37-3.52,2.7,2.7,0,0,1,.23-1.26,2.38,2.38,0,0,1,.84-1,2.65,2.65,0,0,1,.58-.3,63.84,63.84,0,0,1-.11-6.94,9.45,9.45,0,0,1,.3-1.57,9.32,9.32,0,0,1,4.1-5.23A13.29,13.29,0,0,1,92.28,4c.76-.21-.11-1.95.68-2,3.85-.39,9.54,2.39,12.23,5.3a9.45,9.45,0,0,1,2.37,6l-.15,6.3h0a1.76,1.76,0,0,1,1.28,1.32,5.47,5.47,0,0,1-.66,3.31h0l0,.08-2.77,4.56a24,24,0,0,1-3.39,4.67c.11.18.24.35.36.53A15.35,15.35,0,0,0,104,36.36l.06.07Zm-83.62,0c3.1,6.46,12.5,6.69,15.47,0a16.84,16.84,0,0,1-2-2.58l-.3-.43a8.38,8.38,0,0,1-5.43,1.86,8.27,8.27,0,0,1-5.8-2.32l-.26-.25c-.22.6-.49,1.32-.79,2a12.33,12.33,0,0,1-.88,1.69Zm16.34-.68c3.31,2.33,11.36,2.9,14.45,4.62a8.43,8.43,0,0,1,2.7,2.29c1.55,2,4.74,9.51-.42,9.9H43.8L45,39.26c-2.6-.51-5.27-.57-8.15-2.23-2.85,6.78-13.54,7.76-17.3.1a26.3,26.3,0,0,1-8.17,2.45l1.85,13H2.83c-5.16-.39-2-7.85-.43-9.9a8.53,8.53,0,0,1,2.7-2.29c3.08-1.72,11.1-2.28,14.43-4.61a11.08,11.08,0,0,0,.76-1.48c.38-.87.73-1.82.95-2.47a31,31,0,0,1-2.49-3.55l-2.53-4a7.33,7.33,0,0,1-1.43-3.66A2.89,2.89,0,0,1,15,19.33a2.55,2.55,0,0,1,.87-1,3.17,3.17,0,0,1,.61-.31,61.52,61.52,0,0,1-.12-7.21,9.54,9.54,0,0,1,.31-1.63A9.7,9.7,0,0,1,21,3.74a13.62,13.62,0,0,1,3.57-1.59c.8-.22-.11-2,.71-2.11,4-.41,9.91,2.49,12.7,5.51a9.77,9.77,0,0,1,2.47,6.18l-.16,6.54h0a1.8,1.8,0,0,1,1.33,1.38,5.58,5.58,0,0,1-.69,3.44h0l0,.08L38,27.9a24.8,24.8,0,0,1-3.53,4.86l.38.55a16.56,16.56,0,0,0,1.88,2.42l.06.07ZM18,19.17a2.58,2.58,0,0,0-1.27.33.93.93,0,0,0-.36.43,1.39,1.39,0,0,0-.12.67,6,6,0,0,0,1.2,2.92v0h0l2.52,4A21.73,21.73,0,0,0,23.33,32a7,7,0,0,0,4.84,2,7.13,7.13,0,0,0,5.11-2,22.42,22.42,0,0,0,3.49-4.76l2.84-4.67a4.65,4.65,0,0,0,.6-2.49c-.08-.29-.39-.42-.92-.45H39l-.4,0a.82.82,0,0,1-.22,0,3.46,3.46,0,0,1-.78,0l1-4.3C31.31,16.34,25.91,11,18.28,14.14l.55,5.07a4.82,4.82,0,0,1-.86,0Z"/></svg>