<svg xmlns="http://www.w3.org/2000/svg" shape-rendering="geometricPrecision" text-rendering="geometricPrecision" image-rendering="optimizeQuality" fill-rule="evenodd" clip-rule="evenodd" viewBox="0 0 512 359.24"><path fill-rule="nonzero" d="M314.12 356.1h-78.57l88.53-268.09h99.46L512 356.1h-78.51l-15.5-51.29H329.6l-15.48 51.29zM192.77 106.76l19-26.44c-14.3-5.32-32.06-9.35-50.33-6.95-20.92 2.75-42.78 14.03-61.31 41.73-1.69 2.53-5.11 3.2-7.64 1.51a5.494 5.494 0 0 1-2.39-5.38c1.59-10.85 4.5-20.52 8.43-29.09 11.6-25.29 31.98-40.71 54.39-49.05 22.12-8.24 46.22-9.55 65.64-6.68 6.74 1 12.98 2.52 18.42 4.43l8.11-26.9a5.524 5.524 0 0 1 6.87-3.71c1.76.52 3.06 1.84 3.63 3.45l35.53 82.09c1.2 2.79-.08 6.04-2.87 7.24l-.85.29-89.02 22.32a5.527 5.527 0 0 1-6.7-4.01c-.44-1.77.02-3.54 1.09-4.85zM65.43 359.24c-12.84 0-24.14-2.09-33.97-6.33-9.77-4.24-17.51-10.69-23.1-19.29C2.76 324.96 0 313.96 0 300.63c0-11 1.84-20.39 5.59-28.26 3.81-7.8 9.03-14.19 15.73-19.17 6.76-4.97 14.56-8.72 23.53-11.36 8.9-2.65 18.61-4.3 28.99-5.1 11.25-.86 20.27-1.97 27.16-3.2 6.82-1.29 11.79-3.07 14.86-5.4 3.01-2.28 4.55-5.35 4.55-9.22v-.49c0-5.28-2.03-9.27-6.02-12.1-3.99-2.76-9.15-4.18-15.42-4.18-6.94 0-12.53 1.54-16.83 4.55-4.3 3.01-6.95 7.61-7.8 13.82H7.86c.86-12.22 4.74-23.53 11.67-33.85 6.95-10.38 17.08-18.61 30.48-24.88 13.33-6.27 29.98-9.34 50-9.34 14.38 0 27.28 1.66 38.71 5.04 11.49 3.32 21.19 7.99 29.24 14.01 7.99 5.96 14.13 12.96 18.37 20.95 4.24 7.98 6.33 16.64 6.33 25.98V356.1h-67.52v-28.25h-1.6c-3.99 7.49-8.84 13.57-14.56 18.18-5.71 4.61-12.22 7.98-19.53 10.07-7.25 2.09-15.3 3.14-24.02 3.14zm50.93-58.8c3.07-4.23 4.6-9.46 4.6-15.54v-16.77c-9.35 3.79-18.84 5.82-28.81 7.31-11.7 1.93-24.08 7.22-24.08 20.95 0 5.59 1.97 9.89 5.9 12.84 12.5 9.38 33.63 3.46 42.39-8.79zm285.18-50.12-26.72-88.47h-2.09l-26.69 88.47h55.5z"/></svg>