<svg id="Layer_1" data-name="Layer 1" xmlns="http://www.w3.org/2000/svg" viewBox="0 0 122.88 115.68"><defs><style>.cls-1{fill-rule:evenodd;}</style></defs><title>private-account</title><path class="cls-1" d="M99.56,69A23.33,23.33,0,1,1,76.23,92.35,23.32,23.32,0,0,1,99.56,69ZM37.16,55c-2-3.22-5.8-7.59-5.8-11.35a6.06,6.06,0,0,1,4.08-5.52c-.19-3.19-.32-6.42-.32-9.62,0-1.9,0-3.81.11-5.69a12.65,12.65,0,0,1,.64-2.85,20.22,20.22,0,0,1,9-11.48A25.93,25.93,0,0,1,49.8,6.1c3.1-1.13,1.6-6,5-6.1,8-.2,21,6.75,26.12,12.27a18.52,18.52,0,0,1,5.21,12.41l-.32,13.93a4.57,4.57,0,0,1,3.34,2.86c1.08,4.39-3.47,9.86-5.59,13.36-2,3.22-9.43,12-9.44,12.1a2.85,2.85,0,0,0,.67,1.62,18.48,18.48,0,0,0,2.47,2.74,30.69,30.69,0,0,0-5.11,34.86H0C0,74.42,34.1,84.5,45.69,68.55c.57-.84.84-1.29.83-1.66,0-.2-8.59-10.72-9.36-11.94Zm52.61,34.7h1.94v-3A8.05,8.05,0,0,1,94.07,81h0a8,8,0,0,1,11.36,0h0a8.05,8.05,0,0,1,2.36,5.68v3h1.54a.63.63,0,0,1,.63.63v12.58a.63.63,0,0,1-.63.62H89.77a.63.63,0,0,1-.63-.62V90.28a.63.63,0,0,1,.63-.63Zm5.07,0h9.83V86.6a4.94,4.94,0,0,0-1.44-3.48h0a4.9,4.9,0,0,0-7,0,4.94,4.94,0,0,0-1.44,3.48v3.05Zm5,6.59,1,4.58H98.06l.8-4.64a1.85,1.85,0,1,1,.93,0Z"/></svg>