<svg id="Layer_1" data-name="Layer 1" xmlns="http://www.w3.org/2000/svg" viewBox="0 0 122.88 122.48"><defs><style>.cls-1{fill-rule:evenodd;}</style></defs><title>remove-female-employee</title><path class="cls-1" d="M99.48,75.67A23.41,23.41,0,1,1,76.07,99.08,23.41,23.41,0,0,1,99.48,75.67Zm-20-.45Q77.78,73,75.85,71l6.2,2.35a31.22,31.22,0,0,0-2.52,1.89ZM71.64,113H0C8.94,79.56,9.2,83.16,40.7,71A68.48,68.48,0,0,0,29.38,87l8.75-.21L57.79,102.5l11-8.35A31.19,31.19,0,0,0,71.64,113ZM28.32,63.32a20.12,20.12,0,0,1-9.48-6c6.35-2.39,9.28-9.9,9.69-21.13.3-8.34-1.43-11,1.42-19.2C35.58.7,56.42-4.88,68,4.67c9.1-1,18.28,3.73,20.26,17.77C89.78,32.92,86.64,39.5,90,49.15a15,15,0,0,0,7.76,9.2c-2.48,2.37-6.07,3.94-10.38,5A104.68,104.68,0,0,1,71,65.15v4.92l5.81,7.76a31.27,31.27,0,0,0-4,5.38L58.26,94.71,38.76,79.33,44,70.58V65.29c-6.8-.32-12.55-1-15.65-2Zm82.24,31.51c1.25,0,2.15-.13,2.13,1.43l-.06,5c0,1.62-.51,2-2,2H88.35c-1.52,0-2-.41-2-2l-.06-5c0-1.56.88-1.44,2.13-1.43Z"/></svg>