<svg id="Layer_1" data-name="Layer 1" xmlns="http://www.w3.org/2000/svg" viewBox="0 0 119.48 122.88"><defs><style>.cls-1{fill-rule:evenodd;}</style></defs><title>remove-woman-user</title><path class="cls-1" d="M96.33,76.58A23.15,23.15,0,1,1,73.18,99.73,23.15,23.15,0,0,1,96.33,76.58ZM71,76.33a13.93,13.93,0,0,0,3.08,2.13,30.76,30.76,0,0,0-5.47,34.7H1.42A1.43,1.43,0,0,1,0,111.74c0-32.3,35-27.08,40.62-34.83,1.25-1.74,1.89-5.1,2.18-8.13-7.16-.3-13.26-.94-16.47-2A20,20,0,0,1,17,60.89c6.27-2.37,9.16-9.78,9.57-20.88.3-8.25-1.42-15.06,1.4-23.2C33.5.69,54.09-4.82,65.56,4.61c9-1,18.06,3.68,20,17.55C87,32.52,83.94,43.26,87.21,52.8a14.84,14.84,0,0,0,7.66,9.08c-2.45,2.34-6,3.89-10.25,4.93A100.75,100.75,0,0,1,69,68.57c0,3,.41,6.23,2,7.76ZM107.3,95.52c1.24,0,2.12-.12,2.1,1.42l-.06,5c0,1.61-.5,2-2,2h-22c-1.51,0-2-.41-2-2l-.06-5c0-1.54.87-1.42,2.11-1.42Z"/></svg>