<svg id="Layer_1" data-name="Layer 1" xmlns="http://www.w3.org/2000/svg" viewBox="0 0 121.31 122.88"><defs><style>.cls-1{fill-rule:evenodd;}</style></defs><title>remove-employee</title><path class="cls-1" d="M97.86,76A23.46,23.46,0,1,1,74.4,99.42,23.45,23.45,0,0,1,97.86,76ZM41.3,71.62l8.51,24.57,4.27-14.41L52,79.49c-1.58-2.3-1-4.92,1.88-5.39A20.62,20.62,0,0,1,57,74a17.46,17.46,0,0,1,3.48.13c2.71.6,3,3.23,1.64,5.32l-2.1,2.29,4.28,14.41L72,71.62a18.42,18.42,0,0,0,6.7,3.2,31.18,31.18,0,0,0-9.22,37.54H0C1.84,104,1.65,85.69,10.09,81c7.52-4.18,25.06-3.87,31.21-9.41Zm1.48-6.55c-2.9-2.58-5.2-4.45-5.69-9.81h-.31a4.2,4.2,0,0,1-2.06-.54A5.65,5.65,0,0,1,32.45,52c-1-2.4-1.87-8.72.76-10.53l-.49-.33-.06-.7c-.1-1.27-.13-2.81-.15-4.42-.09-5.95-.22-13.15-5-14.6l-2.05-.61,1.35-1.68a78.46,78.46,0,0,1,12-12.15c4.6-3.62,9.28-6,13.86-6.73A16.71,16.71,0,0,1,66.12,4a25.87,25.87,0,0,1,3.62,3.63,15.3,15.3,0,0,1,10.79,6.31A22.09,22.09,0,0,1,84,21a24.47,24.47,0,0,1,.95,8,19.35,19.35,0,0,1-5.6,13,3.93,3.93,0,0,1,1.74.44c2,1.07,2.06,3.39,1.53,5.33-.52,1.62-1.17,3.51-1.79,5.09-.76,2.13-1.86,2.53-4,2.3-.11,5.28-2.55,6.73-5.83,9.83.13,8-28.45,7-28.27,0ZM109,95.16c1.26,0,2.16-.12,2.14,1.43l-.06,5c0,1.63-.51,2.06-2,2H86.71c-1.53,0-2-.42-2-2l-.06-5c0-1.55.88-1.44,2.14-1.43Z"/></svg>