<svg xmlns="http://www.w3.org/2000/svg" shape-rendering="geometricPrecision" text-rendering="geometricPrecision" image-rendering="optimizeQuality" fill-rule="evenodd" clip-rule="evenodd" viewBox="0 0 487 511.87"><path d="M110.33 254.88c-15.61-5.11-27.46-12.68-35.75-22.54 23.95-9.02 34.96-37.31 36.52-79.66 1.15-31.48-5.39-57.49 5.35-88.55 21.26-61.5 99.81-82.52 143.59-46.53 34.33-3.66 68.9 14.03 76.38 66.97 5.57 39.52-6.26 80.48 6.21 116.89 5.37 15.67 14.68 27.65 29.26 34.65-9.34 8.94-22.88 14.87-39.12 18.83-12.57 3.07-35.27 5.41-61.71 6.83v18.53l25.73 34.37-73.6 58.52-73.51-58 19.64-32.98v-19.92c-25.63-1.21-47.33-3.61-58.99-7.41zm261.28 41.87c25.95 0 50.74 10.27 69.09 28.61 25.34 25.34 34.76 62.7 24.56 97.01a97.047 97.047 0 0 1-9.93 22.45l30.44 33.85a4.676 4.676 0 0 1-.28 6.6l-27.78 25.37a4.652 4.652 0 0 1-6.58-.29l-28.8-32.41c-15.33 9.34-32.76 14.2-50.72 14.2a97.568 97.568 0 0 1-69.07-28.61 97.681 97.681 0 0 1-21.2-31.73c-15.15-36.47-6.54-78.69 21.21-106.42 8.97-9 19.73-16.25 31.7-21.21 11.53-4.79 24.15-7.42 37.36-7.42zm55.12 42.57c-22.24-22.24-55.96-28.94-84.94-16.94-51.99 21.53-63.94 88.58-25.31 127.18 22.29 22.24 55.94 28.95 84.95 16.95 29.17-12.12 48.13-40.49 48.13-72.07 0-10.58-2.09-20.65-5.88-29.8a78.229 78.229 0 0 0-16.95-25.32zM296.3 291.31c-2.22-2.56-4.49-5.09-6.8-7.59 3.64 1.41 7.54 2.82 11.63 4.23l-.48.32c-1.47.98-2.92 2.01-4.35 3.04zm-43.29 150.62H0c8.11-30.32 5.88-61.97 21.08-90.47 6.17-11.57 14.05-18.77 29.31-28.33 23.97-15.04 74.89-27.15 106.58-39.41-16.81 18.22-31.26 37.61-42.65 60.48l32.99-.8 74.09 59.16 22.79-17.34a127.22 127.22 0 0 0 8.82 56.71z"/></svg>