<?xml version="1.0" encoding="UTF-8"?>
<!DOCTYPE svg PUBLIC "-//W3C//DTD SVG 1.1//EN" "http://www.w3.org/Graphics/SVG/1.1/DTD/svg11.dtd">
<!-- Creator: CorelDRAW 2021 (64-Bit) -->
<svg xmlns="http://www.w3.org/2000/svg" xml:space="preserve" width="512px" height="316px" version="1.1" shape-rendering="geometricPrecision" text-rendering="geometricPrecision" image-rendering="optimizeQuality" fill-rule="evenodd" clip-rule="evenodd"
viewBox="0 0 512 315.96"
 xmlns:xlink="http://www.w3.org/1999/xlink"
 xmlns:xodm="http://www.corel.com/coreldraw/odm/2003">
 <g id="Layer_x0020_1">
  <metadata id="CorelCorpID_0Corel-Layer"/>
  <path fill="black" fill-rule="nonzero" d="M383.5 194.11c-4.02,-21.63 -12.33,-42.16 -24.33,-60.3 -17.35,-26.23 -42.47,-47.44 -73.52,-59.63 -11.76,-4.62 -23.28,-7.91 -34.45,-9.94 -38.43,-6.99 -75.72,-0.51 -106.85,16.78 -31.09,17.26 -56.26,45.4 -70.53,81.74 -4.31,10.97 -7.62,22.45 -9.78,34.35 -1.83,10.05 -2.69,20.14 -2.59,30.13 0.1,9.9 1.16,19.82 3.16,29.6l-60.23 12.29c-2.76,-13.51 -4.23,-27.38 -4.37,-41.41 -0.13,-13.78 1.05,-27.67 3.55,-41.45 2.98,-16.39 7.35,-31.73 12.92,-45.92 19.66,-50.05 54.64,-88.99 98,-113.06 43.3,-24.03 94.8,-33.12 147.56,-23.53 15.54,2.83 30.95,7.17 46.01,13.08 43.31,17.01 78.31,46.52 102.44,83 17.23,26.05 28.93,55.69 34.14,86.89l10.73 -13.17c11.1,-13.66 31.2,-15.73 44.87,-4.62 13.66,11.11 15.73,31.2 4.62,44.87l-54.76 67.31c-10.29,14.36 -30.27,17.66 -44.63,7.38l-74.61 -53.42c-14.36,-10.28 -17.66,-30.27 -7.38,-44.63 10.29,-14.35 30.27,-17.65 44.63,-7.37l15.4 11.03zm-173.03 -1.11c33.95,0 61.48,27.53 61.48,61.48 0,33.95 -27.53,61.48 -61.48,61.48 -33.95,0 -61.48,-27.53 -61.48,-61.48 0,-33.95 27.53,-61.48 61.48,-61.48z"/>
 </g>
</svg>
