<svg xmlns="http://www.w3.org/2000/svg" shape-rendering="geometricPrecision" text-rendering="geometricPrecision" image-rendering="optimizeQuality" fill-rule="evenodd" clip-rule="evenodd" viewBox="0 0 512 512"><path fill="#EF4136" d="m380.22 204.39-73.11-73.11c-6.22-6.22-16.09.2-19.04 5.67-.5.94.38 1.79-.42 8.11-.99 7.84-2.77 16.55-5.63 23.46l-32.52 32.51c-12.98 12.99-31.54 7.22-47.37-.65-3.35-1.67-7.64-5.33-11.34-1.63l-13.77 13.77c-2.01 2.01-2.01 5.3 0 7.31l115.55 115.55c2.01 2.01 5.3 2.01 7.32 0l13.76-13.77c3.66-3.66-1.01-8.41-2.92-12.37-7.05-14.58-13.36-34.01-1.62-45.74l33.94-33.95c6.68-2.09 15.29-4.04 23.53-5.34 6.39-1 7.17-.21 8.1-.81 5.59-3.62 11.8-12.75 5.54-19.01z"/><path fill-rule="nonzero" d="M364.35 65.13c-49.1-27.86-104.51-34.72-155.74-23.37.16.44.29.9.42 1.36l112.95 421.53.14.57c50.03-15.79 94.56-49.41 123.11-98.06.4-.86.86-1.68 1.38-2.46 29.79-52.2 35.77-111.59 21.33-165.51-14.44-53.87-49.29-102.28-101.17-132.62-.85-.42-1.66-.9-2.42-1.44zM237.3 301.42l-26.31-26.31-81.85 104.18 3.97 3.98 104.19-81.85zM173.73 52.57c-43.85 17.7-82.32 49.62-107.79 93.73l-.53.86C35.59 199.4 29.59 258.84 44.05 312.8c14.54 54.25 49.78 102.96 102.25 133.25l.86.54c43.85 25.04 92.79 33.27 139.3 26.71L173.73 52.57zm16.03-43.82c62.83-16.84 132.1-9.82 193.06 24.98l1.18.62c61.2 35.34 102.3 92.15 119.25 155.41 16.94 63.25 9.74 133-25.61 194.23-35.4 61.22-92.19 102.32-155.41 119.26-62.84 16.84-132.13 9.81-193.09-25l-1.14-.6C66.8 442.31 25.7 385.5 8.75 322.23c-16.84-62.84-9.82-132.12 24.99-193.08l.61-1.15C69.69 66.8 126.5 25.7 189.76 8.75z"/></svg>