<svg xmlns="http://www.w3.org/2000/svg" shape-rendering="geometricPrecision" text-rendering="geometricPrecision" image-rendering="optimizeQuality" fill-rule="evenodd" clip-rule="evenodd" viewBox="0 0 512 350.3"><path fill-rule="nonzero" d="M382.95 350.3c-13.03 0-24.49-2.12-34.47-6.42-9.91-4.3-17.76-10.85-23.43-19.57-5.67-8.79-8.47-19.94-8.47-33.46 0-11.16 1.87-20.69 5.67-28.67 3.86-7.91 9.16-14.39 15.95-19.44 6.86-5.05 14.77-8.85 23.87-11.53 9.03-2.68 18.88-4.36 29.41-5.17 11.41-.88 20.56-2 27.54-3.24 6.92-1.31 11.97-3.12 15.09-5.49 3.05-2.3 4.61-5.42 4.61-9.34v-.5c0-5.36-2.06-9.41-6.11-12.28-4.05-2.8-9.28-4.24-15.64-4.24-7.04 0-12.71 1.56-17.08 4.62-4.36 3.05-7.04 7.72-7.91 14.02h-67.43c.88-12.4 4.8-23.87 11.84-34.34 7.05-10.53 17.33-18.88 30.91-25.24 13.53-6.35 30.41-9.47 50.73-9.47 14.58 0 27.66 1.68 39.26 5.11 11.65 3.37 21.49 8.1 29.66 14.21 8.1 6.05 14.33 13.15 18.63 21.25 4.3 8.1 6.42 16.89 6.42 26.36v139.65h-68.48v-28.67h-1.62c-4.06 7.6-8.98 13.77-14.78 18.45-5.79 4.67-12.4 8.1-19.81 10.22-7.35 2.12-15.52 3.18-24.36 3.18zm-58.23-245.15 20.81-25.92c-14.18-6.15-31.94-11.19-50.61-9.75-21.34 1.64-44.09 11.87-64.36 38.9a5.585 5.585 0 0 1-7.82 1.12 5.59 5.59 0 0 1-2.08-5.75c2.22-10.88 5.68-20.46 10.08-28.84 13.12-24.98 34.61-39.49 57.76-46.72 22.82-7.12 47.31-7.13 66.86-3.16l.21.05c6.72 1.38 12.88 3.23 18.21 5.43l9.69-26.81c1.03-2.9 4.24-4.41 7.14-3.37 1.62.58 2.81 1.83 3.36 3.33l31.67 85.44c1.06 2.9-.43 6.12-3.33 7.19l-1.11.28-91.17 17.7c-3.03.58-5.97-1.41-6.54-4.44-.34-1.73.17-3.43 1.23-4.68zM79.7 347.12H0L89.8 75.17h100.88l89.74 271.95h-79.64l-15.72-52.04H95.4l-15.7 52.04zm88.67-107.31-27.1-89.74h-2.12l-27.08 89.74h56.3zm254.21 60.82c4.92-2.31 8.91-5.61 12.02-9.97 3.12-4.3 4.68-9.6 4.68-15.77v-17.01c-9.4 3.8-19.23 5.92-29.23 7.42-11.87 1.96-24.43 7.32-24.43 21.25 0 19.23 23.57 20.35 36.96 14.08z"/></svg>