<svg xmlns="http://www.w3.org/2000/svg" shape-rendering="geometricPrecision" text-rendering="geometricPrecision" image-rendering="optimizeQuality" fill-rule="evenodd" clip-rule="evenodd" viewBox="0 0 512 507.91"><path d="m437.84 396.52 60.34 61.11v28.77h-28.54v-21.63h-23.66v-23.65h-22.63l-6.55-21.31c-10.42 6.94-23.06 11.02-36.7 11.02-35.68 0-64.63-27.92-64.63-62.32 0-34.43 28.95-62.33 64.63-62.33 35.7 0 64.63 27.9 64.63 62.33 0 10.06-2.49 19.57-6.89 28.01zm-67.32-54.91c9.88 0 17.9 8.03 17.9 17.91s-8.02 17.91-17.9 17.91c-9.88 0-17.91-8.03-17.91-17.91s8.03-17.91 17.91-17.91zM152.5 256.32c-12.41-16.98-23.52-36.16-34.7-54.05-8.07-11.9-12.32-22.53-12.32-31.04 0-9.08 4.82-19.71 14.44-22.11-1.25-18.29-1.68-36.36-.84-55.93.43-4.68 1.28-9.36 2.56-14.04 5.54-19.57 19.14-35.31 36.15-45.94 5.96-3.83 12.34-6.8 19.58-9.35 12.34-4.7 6.38-23.41 20-23.84 31.89-.84 84.23 26.39 104.64 48.5 11.91 12.75 19.58 29.77 20.85 52.33l-1.27 50.37c5.95 1.71 9.78 5.54 11.47 11.5 1.71 6.8 0 16.17-5.95 29.36 0 .43-.44.43-.44.84-13.11 21.65-26.76 46.67-41.84 66.75-7.57 10.11-13.8 8.3-7.34 18 1.76 2.42 3.6 4.67 5.54 6.84.89-.96 1.8-1.91 2.74-2.83 23.98-23.97 57.12-38.82 93.71-38.82 36.59 0 69.72 14.85 93.69 38.82 24 23.98 38.83 57.12 38.83 93.72 0 13.89-2.17 27.28-6.14 39.9l-22.24-22.54c.94-5.66 1.42-11.46 1.42-17.36 0-58.31-47.25-105.58-105.56-105.58-26.85 0-51.37 10.04-69.99 26.53-44.46 39.31-46.65 106.06-9.46 148.53l.91 1.03c20.03 22.24 48.25 35.04 78.54 35.04 11.48 0 22.54-1.85 32.9-5.25a35.332 35.332 0 0 0 19.41 21.42c-16.06 6.94-33.76 10.79-52.31 10.79-36.52 0-69.62-14.85-93.6-38.82l-.11-.1c-4.49-4.49-8.65-9.3-12.46-14.41H0C0 300.09 114.56 341.5 160.99 277.67c7.11-10.68-1.3-11.5-8.49-21.35z"/></svg>