<svg id="Layer_1" data-name="Layer 1" xmlns="http://www.w3.org/2000/svg" viewBox="0 0 122.88 115.68"><defs><style>.cls-1{fill-rule:evenodd;}</style></defs><title>user-plus</title><path class="cls-1" d="M99.56,69A23.33,23.33,0,1,1,76.23,92.35,23.32,23.32,0,0,1,99.56,69ZM37.16,55c-2-3.22-5.8-7.59-5.8-11.35a6.06,6.06,0,0,1,4.08-5.52c-.19-3.19-.32-6.42-.32-9.62,0-1.9,0-3.81.11-5.69a12.65,12.65,0,0,1,.64-2.85,20.22,20.22,0,0,1,9-11.48A25.93,25.93,0,0,1,49.8,6.1c3.1-1.13,1.6-6,5-6.1,8-.2,21,6.75,26.12,12.27a18.52,18.52,0,0,1,5.21,12.41l-.32,13.93a4.57,4.57,0,0,1,3.34,2.86c1.08,4.39-3.47,9.86-5.59,13.36-2,3.22-9.43,12-9.44,12.1a5.5,5.5,0,0,0,2.5,5,30.71,30.71,0,0,0-4.47,34.17H0c0-32.54,46.73-25.1,46.52-39.26,0-.2-8.59-10.72-9.36-11.94Zm58.48,27.2c0-1.16-.11-2,1.32-2l4.64,0c1.49,0,1.89.47,1.87,1.87v6.33h6.29c1.15,0,2-.12,2,1.31l-.06,4.64c0,1.5-.46,1.9-1.87,1.88h-6.32v6.32c0,1.4-.38,1.88-1.87,1.87l-4.64.05c-1.43,0-1.33-.8-1.32-2V96.27H89.32c-1.4,0-1.88-.38-1.87-1.88l-.06-4.64c0-1.43.81-1.32,2-1.31h6.29V82.15Z"/></svg>