<svg xmlns="http://www.w3.org/2000/svg" shape-rendering="geometricPrecision" text-rendering="geometricPrecision" image-rendering="optimizeQuality" fill-rule="evenodd" clip-rule="evenodd" viewBox="0 0 311 511.32"><path fill-rule="nonzero" d="M128.35 127.31c35.41 0 67.49 14.37 90.72 37.6 23.25 23.25 37.62 55.33 37.62 90.75 0 17.31-3.43 33.83-9.66 48.91l60.48 42.72c3.73 2.63 4.61 7.85 1.96 11.58l-21.28 29.98c-2.65 3.72-7.85 4.59-11.59 1.96l-59.77-42.22c-23.04 21.95-54.2 35.42-88.48 35.42-35.42 0-67.5-14.37-90.73-37.6C14.37 323.16 0 291.08 0 255.66s14.37-67.5 37.59-90.73c23.26-23.25 55.34-37.62 90.76-37.62zm28.54 312.1 7.66-33.77a171.349 171.349 0 0 1-36.2 3.86 171.2 171.2 0 0 1-35.54-3.72l8.71 33.62-32.31-.01a4.61 4.61 0 0 0-3.72 1.08 4.638 4.638 0 0 0-.45 6.51l59.55 62.77.54.51a4.604 4.604 0 0 0 6.49-.61l60.12-62.76c.81-1.01 1.22-2.36.97-3.75a4.604 4.604 0 0 0-5.34-3.71l-30.48-.02zm0-367.5 7.66 33.78a170.697 170.697 0 0 0-36.2-3.87 171.2 171.2 0 0 0-35.54 3.72l8.71-33.62-32.31.01a4.61 4.61 0 0 1-3.72-1.08 4.638 4.638 0 0 1-.45-6.51l59.55-62.77.54-.51a4.613 4.613 0 0 1 6.49.61l60.12 62.76c.81 1.02 1.22 2.36.97 3.75a4.604 4.604 0 0 1-5.34 3.71l-30.48.02zm30.03 172.48v22.54c0 4.59-3.76 8.35-8.35 8.35H78.14c-4.6 0-8.35-3.76-8.35-8.35v-22.54c0-4.6 3.75-8.35 8.35-8.35h100.43c4.59 0 8.35 3.75 8.35 8.35zM209.01 175c-20.64-20.62-49.16-33.38-80.66-33.38-31.51 0-60.03 12.76-80.66 33.38-20.63 20.64-33.39 49.15-33.39 80.66 0 31.5 12.76 60.03 33.39 80.66 20.63 20.62 49.15 33.38 80.66 33.38 31.5 0 60.02-12.76 80.66-33.38 20.62-20.63 33.38-49.16 33.38-80.66 0-31.51-12.76-60.02-33.38-80.66z"/></svg>