<?xml version="1.0" encoding="utf-8"?><svg version="1.1" id="Layer_1" xmlns="http://www.w3.org/2000/svg" xmlns:xlink="http://www.w3.org/1999/xlink" x="0px" y="0px" viewBox="0 0 122.88 87.57" style="enable-background:new 0 0 122.88 87.57" xml:space="preserve"><style type="text/css">.st0{fill-rule:evenodd;clip-rule:evenodd;}</style><g><path class="st0" d="M25.29,38.29c-0.77,1.82-1.36,3.71-1.79,5.66C8.06,25.12,9.91,29.85,8.21,5.56L0,0 c0.28,32.54,3.89,81.46,47.72,87.32c3.66,0.49,8.32,0.25,13.92-0.68c28.17,7.05,57.66-28.25,59.99-53.17 c1.11-11.11,1.58-22.23,1.01-33.34l-7.96,5.68c-1.46,23.72-0.12,19.13-14.78,37.89c-4.44-17.59-34.45-23.75-38.09-17.15 C55.97,18.96,29.19,29.09,25.29,38.29L25.29,38.29z M36.85,49.91c0.58-3.92,2.29-6.46,3.95-8.89c3.21-4.69,5.24-4.38,9.92-3.65 c8.36,1.31,16.67,1.04,24.91-0.75c5.38-0.08,10.9,9.34,10.35,13.71c-0.52,4.12-8.42,9.05-12.64,9.02 c-3.77-0.02-7.74-2.05-11.91-6.15C52.99,61.87,44.34,60.92,36.85,49.91L36.85,49.91z"/></g></svg>