<?xml version="1.0" encoding="utf-8"?><svg version="1.1" id="Layer_1" xmlns="http://www.w3.org/2000/svg" xmlns:xlink="http://www.w3.org/1999/xlink" x="0px" y="0px" viewBox="0 0 48.08 122.88" style="enable-background:new 0 0 48.08 122.88" xml:space="preserve"><g><path d="M43.79,73.13H4.3c-0.04,0-0.08,0.01-0.1,0.03c-0.02,0.02-0.03,0.05-0.03,0.08v34.06h39.76V73.25 c0-0.03-0.01-0.06-0.03-0.08C43.87,73.15,43.83,73.13,43.79,73.13L43.79,73.13z M19.31,2.66c3.27-1.62,6.7-2.51,9.6-2.65 c3.36-0.16,6.13,0.68,7.51,2.54c0.16,0.22,0.3,0.44,0.41,0.67c0.56,1.14,0.56,2.43,0.08,3.76v30.01h1.42 c1.15,0,2.09,0.77,2.09,1.71v30.22h3.36c1.17,0,2.25,0.49,3.03,1.27c0.78,0.78,1.27,1.86,1.27,3.05v45.32 c0,1.19-0.49,2.27-1.27,3.05c-0.78,0.78-1.85,1.27-3.03,1.27H4.3c-1.17,0-2.25-0.49-3.03-1.27C0.49,120.83,0,119.75,0,118.56V73.25 c0-1.19,0.49-2.27,1.27-3.05c0.78-0.78,1.85-1.27,3.03-1.27h3.81V38.71c0-0.95,0.94-1.71,2.09-1.71h0.65V14.25 c-0.68-1.43-0.48-3.09,0.44-4.77c0.82-1.5,2.25-3.04,4.14-4.45C16.57,4.17,17.87,3.37,19.31,2.66L19.31,2.66z M36.24,68.93V40.42 H12.29v28.51H36.24L36.24,68.93z M32.73,12.17c-0.15,0.12-0.3,0.23-0.45,0.35c-1.14,0.85-2.44,1.65-3.87,2.36 c-3.27,1.62-6.7,2.51-9.6,2.65c-1.38,0.06-2.65-0.04-3.78-0.31v19.79h17.7V12.17L32.73,12.17z M32.73,6.1V4.49 c-0.02-0.03-0.04-0.06-0.06-0.09c-0.51-0.69-1.86-0.98-3.62-0.9c-2.21,0.1-4.9,0.82-7.53,2.12c-1.19,0.59-2.25,1.24-3.16,1.92 c-1.44,1.07-2.5,2.21-3.08,3.27c-0.47,0.85-0.61,1.6-0.34,2.15c0.03,0.07,0.07,0.13,0.11,0.18c0.51,0.69,1.86,0.98,3.62,0.9 c2.21-0.1,4.9-0.82,7.53-2.12c1.19-0.59,2.25-1.24,3.16-1.92c1.44-1.07,2.5-2.21,3.08-3.27C32.56,6.51,32.66,6.3,32.73,6.1 L32.73,6.1z"/></g></svg>