<?xml version="1.0" encoding="utf-8"?><svg version="1.1" id="Layer_1" xmlns="http://www.w3.org/2000/svg" xmlns:xlink="http://www.w3.org/1999/xlink" x="0px" y="0px" viewBox="0 0 89.45 122.88" style="enable-background:new 0 0 89.45 122.88" xml:space="preserve"><style type="text/css"><![CDATA[
	.st0{fill-rule:evenodd;clip-rule:evenodd;}
]]></style><g><path class="st0" d="M30.68,3.38c7.75-5.25,16.59-4.09,23.88,1.47c1.92,1.47,3.55,3.27,4.85,5.45c1.1,1.86,3.05,5.66-0.58,6.25 c-1.42,0.22-3.91-1.71-5.84-2.34c-2.47-0.8-5.02-1.31-7.53-1.58c-4.69-0.47-9.32-0.09-13.29,1.01c-2.15,0.6-4.25,1.33-6.26,2.25 c-0.93,0.44-2.85,1.7-3.36,0.07C21.33,12.17,27.9,5.27,30.68,3.38L30.68,3.38L30.68,3.38z M69.22,106.95l4.23-4.4l-3.82-3.82 l-4.23,4.4L69.22,106.95L69.22,106.95z M74.41,103.47l-4.1,4.41c2.23,2.23,12.71,13.54,13.07,13.18l4.22-4.09 c0.09-0.09,0.09-0.24,0-0.33L74.41,103.47L74.41,103.47z M89.07,116.08c0.5,0.5,0.5,1.33,0,1.83l-4.58,4.58 c-0.51,0.51-1.34,0.5-1.84,0l-19-19c-0.04-0.04-0.62-0.23-1.53-0.52c-3.91,4.29-8.4,7.7-13.29,9.5 c-5.07,1.88-10.55,2.01-16.21-0.36c-2.93-1.23-5.93-3.15-8.92-5.84c-2.74-2.47-5.22-5.53-7.47-9.1c-2.08-3.29-3.95-7.04-5.66-11.16 c-0.76-0.22-1.47-0.5-2.14-0.81c-0.96-0.45-1.85-0.98-2.64-1.59c-2.34-1.8-3.9-4.25-4.81-6.95c-1.01-3-1.19-6.33-0.78-9.39 c0.21-1.59,0.66-2.97,1.31-4.12c0.71-1.22,1.63-2.2,2.81-2.94l0,0c0.34-0.21,0.73-0.31,1.09-0.28c-0.65-3.38-0.55-6.62-0.42-10.43 c0.36-9.94,2.88-17.87,10.71-24.76c11.81-10.4,35.2-11.3,48.21-2.35c1.93,1.33,3.72,2.91,5.34,4.75 c5.28,6.06,9.98,19.36,9.88,27.56c-0.03,1.9-0.34,3.83-0.98,5.79c-0.02,0.19-0.07,0.4-0.12,0.64c1.42,0.9,2.54,2,3.37,3.25 c1.21,1.86,1.75,3.99,1.62,6.26c-0.13,2.16-0.87,4.44-2.21,6.67c-1.57,2.58-3.96,5.11-7.14,7.27c-1.33,3.1-2.91,6.2-4.71,9.16 l1.21,3.43L89.07,116.08L89.07,116.08z M58.31,101.78c-3.44-1.06-7.39-2.27-8.12-2.49c-0.26-0.08-0.41-0.34-0.37-0.6 c0.61-3.97,2.56-7.65,5.29-10.37c2.71-2.71,6.17-4.49,9.86-4.73c0.25-0.01,0.48,0.16,0.55,0.4l1.87,5.3 c1.18-2.16,2.24-4.37,3.16-6.58c0.16-0.36,0.4-0.64,0.71-0.84c2.95-1.94,5.1-4.16,6.47-6.41c1.03-1.7,1.59-3.41,1.69-5 c0.08-1.5-0.25-2.9-1.03-4.09c-0.42-0.63-0.95-1.22-1.62-1.72c-1.36,3.08-3.62,7.11-6.55,11.12V57.39 c-8.42-3.9-13.93-12.48-16.74-25.37C50.12,56.57,19.97,55.5,12.4,59.98V74.3c-1.44-2.01-2.72-4.08-3.89-6.16 c-0.98-1.75-1.7-3.36-2.23-4.92l0,0l-0.04,0.03c-0.66,0.42-1.19,0.98-1.59,1.69c-0.44,0.75-0.73,1.69-0.88,2.8 c-0.35,2.56-0.19,5.33,0.63,7.78c0.68,2.06,1.85,3.9,3.58,5.23c0.62,0.46,1.27,0.87,1.98,1.2c0.73,0.34,1.51,0.62,2.36,0.83 c0.58,0.14,1.03,0.55,1.24,1.08c1.7,4.26,3.61,8.09,5.7,11.42c2.06,3.28,4.35,6.08,6.85,8.34c2.68,2.41,5.32,4.12,7.9,5.2 c4.75,2,9.33,1.87,13.58,0.3C51.44,107.71,55.05,105.11,58.31,101.78L58.31,101.78z M36.56,93.26c0.62-0.22,1.3,0.11,1.51,0.73 c0.67,1.28,5.75,1.39,6.71-0.07c0.25-0.6,0.94-0.88,1.55-0.63c0.6,0.25,0.88,0.95,0.63,1.55c-1.71,3.37-9.7,3.28-11.12-0.07 C35.61,94.16,35.95,93.48,36.56,93.26L36.56,93.26z M53.8,73.91l-1.37,1.69c-0.4,0.52-1.16,0.59-1.66,0.19 c-0.52-0.41-0.59-1.16-0.19-1.67l0.95-1.18c-0.52-0.37-0.64-1.09-0.29-1.62c0.37-0.55,1.11-0.69,1.65-0.32 c0.91,0.6,2.43,0.92,4.04,0.9c1.52-0.03,3.06-0.37,4.17-1.08c0.54-0.35,1.28-0.2,1.63,0.36c0.35,0.55,0.19,1.29-0.37,1.64 l-0.11,0.07l1.06,1.17c0.45,0.49,0.4,1.24-0.09,1.68c-0.48,0.45-1.24,0.4-1.67-0.09l-1.64-1.8c-0.56,0.16-1.13,0.25-1.7,0.32v1.67 c0,0.65-0.54,1.19-1.19,1.19c-0.66,0-1.19-0.53-1.19-1.19v-1.62C55.15,74.18,54.45,74.06,53.8,73.91L53.8,73.91L53.8,73.91z M22.65,73.94l-1.34,1.65c-0.4,0.52-1.16,0.59-1.67,0.18c-0.52-0.4-0.58-1.16-0.18-1.66l0.91-1.13l-0.02-0.03 c-0.55-0.36-0.68-1.1-0.32-1.65c0.36-0.55,1.11-0.68,1.65-0.32c0.9,0.6,2.36,0.94,3.95,0.95c0.1-0.02,0.2-0.04,0.31-0.04 c0.09,0,0.18,0.01,0.26,0.03c1.4-0.06,2.82-0.39,3.94-1.05c0.57-0.33,1.3-0.14,1.62,0.44c0.34,0.57,0.14,1.3-0.44,1.62l-0.07,0.04 l0.96,1.06c0.45,0.49,0.4,1.24-0.08,1.68c-0.49,0.45-1.24,0.4-1.68-0.08l-1.58-1.73c-0.57,0.16-1.18,0.25-1.78,0.32v1.6 c0,0.66-0.53,1.19-1.19,1.19c-0.65,0-1.19-0.53-1.19-1.19v-1.57C23.98,74.23,23.29,74.11,22.65,73.94L22.65,73.94L22.65,73.94z M52.65,66.09c-0.53,0.38-1.27,0.25-1.65-0.28c-0.38-0.54-0.25-1.27,0.28-1.65c2.23-1.58,4.51-2.39,6.85-2.41 c2.33-0.01,4.67,0.78,7,2.39c0.54,0.38,0.67,1.12,0.3,1.65c-0.37,0.54-1.12,0.67-1.65,0.3c-1.93-1.32-3.81-1.98-5.65-1.97 C56.29,64.12,54.46,64.79,52.65,66.09L52.65,66.09L52.65,66.09z M19.3,66.09c-0.53,0.38-1.27,0.25-1.65-0.28 c-0.37-0.54-0.25-1.27,0.28-1.65c2.24-1.58,4.51-2.39,6.85-2.41c2.34-0.01,4.67,0.78,7,2.39c0.55,0.38,0.67,1.12,0.31,1.65 c-0.38,0.54-1.12,0.67-1.65,0.3c-1.93-1.32-3.82-1.98-5.65-1.97C22.96,64.12,21.14,64.79,19.3,66.09L19.3,66.09L19.3,66.09z"/></g></svg>