<?xml version="1.0" encoding="utf-8"?><svg version="1.1" id="Layer_1" xmlns="http://www.w3.org/2000/svg" xmlns:xlink="http://www.w3.org/1999/xlink" x="0px" y="0px" viewBox="0 0 122.01 122.88" style="enable-background:new 0 0 122.01 122.88" xml:space="preserve"><g><path d="M109.55,50.54c0.3-1.22,0-8.53,0-10.21c-1.45,1.08-3.22,2.04-5.26,2.9c-10.06,4.21-27.43,6.07-44.5,5.83 c-17.09-0.24-33.99-2.59-43.1-6.78c-1.33-0.61-2.51-1.27-3.52-1.98v10.7c6.63,6.09,26.68,9.32,47.17,9.41 c20.55,0.1,41.31-2.98,49.22-9.49V50.54L109.55,50.54z M21.68,67.73c28.71,8.38,55.02,7.85,79.35,0v33.01 c-23.54,9.31-49.57,10.67-79.35,0V67.73L21.68,67.73z M113.58,47.33c1.98,0.5,3.75,1.53,5.15,2.94c2.02,2.02,3.27,4.81,3.27,7.87 v49.64c0,0.47-0.16,0.91-0.44,1.25c-0.07,0.1-0.14,0.2-0.22,0.3c-5.28,7.02-27.81,12.31-52.55,13.35 c-24.55,1.03-51.52-1.99-66.07-11.48c-0.65-0.43-1.29-0.87-1.91-1.34c-0.52-0.39-0.8-1-0.8-1.61H0V57.67c0-2.94,1.2-5.61,3.13-7.54 c1.59-1.59,3.67-2.68,5.99-3.02V34.96c0-0.69,0.35-1.3,0.88-1.67c3.44-2.75,9.28-5.26,16.44-7.04c6.65-1.65,14.53-2.7,22.74-2.76 c0.04,0,0.08,0,0.13,0c4.28-4.85,6.93-11.82,7.48-21.61c0.06-1.11,1.01-1.96,2.12-1.9c0.09,0,0.18,0.02,0.26,0.03 c9.91,1.3,23.04,5.8,34.02,12.76c8.57,5.43,15.88,12.37,19.5,20.51c0.53,0.36,0.88,0.97,0.88,1.67V47.33L113.58,47.33z M9.13,51.21 c-1.21,0.29-2.29,0.92-3.15,1.77c-1.21,1.21-1.95,2.87-1.95,4.69v49.57c0.29,0.2,0.58,0.4,0.88,0.6 c13.79,9,39.86,11.84,63.72,10.83c23.41-0.99,44.45-5.55,49.34-11.54V58.14c0-1.95-0.8-3.73-2.09-5.02 c-0.66-0.66-1.44-1.19-2.31-1.55v0.25c0,0.64-0.3,1.21-0.77,1.58c-8.24,7.55-30.6,11.12-52.5,11.02 C38.3,64.31,16.5,60.47,9.7,53.21l-0.02-0.02c-0.36-0.39-0.54-0.88-0.54-1.37H9.13V51.21L9.13,51.21z M44.52,27.66 c-6.16,0.34-12,1.24-17.11,2.5c-3.81,0.95-7.17,2.09-9.92,3.34c10.23,0.13,19.11-1.19,25.8-5.09 C43.71,28.18,44.12,27.92,44.52,27.66L44.52,27.66z M91.06,16.19C81.28,10,69.78,5.85,60.65,4.31 c-1.26,14.02-6.8,22.62-15.34,27.59c-7.67,4.46-17.66,5.87-29.07,5.61c0.63,0.38,1.35,0.75,2.13,1.11 c8.61,3.97,24.89,6.19,41.46,6.42c16.58,0.23,33.35-1.53,42.91-5.53c3.05-1.28,5.28-2.73,6.38-4.36 C105.9,27.72,99.09,21.28,91.06,16.19L91.06,16.19z"/></g></svg>