<?xml version="1.0" encoding="utf-8"?><svg version="1.1" id="Layer_1" xmlns="http://www.w3.org/2000/svg" xmlns:xlink="http://www.w3.org/1999/xlink" x="0px" y="0px" viewBox="0 0 61.33 122.88" style="enable-background:new 0 0 61.33 122.88" xml:space="preserve"><style type="text/css">.st0{fill-rule:evenodd;clip-rule:evenodd;}</style><g><path class="st0" d="M14.04,57.18h33.63l-4.02,41.54H18.05L14.04,57.18L14.04,57.18z M52.7,16.38c-0.45,0.14-0.94-0.09-1.09-0.5 c-0.15-0.42,0.1-0.86,0.55-1c1.66-0.51,2.81-0.15,3.82,0.16c0.69,0.22,1.29,0.4,1.89-0.04c0.37-0.27,0.92-0.21,1.21,0.13 s0.23,0.84-0.15,1.12c-1.33,0.96-2.33,0.65-3.5,0.29C54.67,16.31,53.81,16.04,52.7,16.38L52.7,16.38z M52.87,9.34 c-0.45,0.14-0.94-0.09-1.09-0.5c-0.15-0.41,0.1-0.86,0.55-1c1.66-0.51,2.81-0.15,3.82,0.16c0.69,0.22,1.29,0.4,1.89-0.04 c0.37-0.27,0.92-0.21,1.21,0.13c0.29,0.34,0.23,0.84-0.15,1.12c-1.33,0.96-2.33,0.65-3.5,0.29C54.84,9.27,53.98,9,52.87,9.34 L52.87,9.34z M52.87,12.86c-0.45,0.14-0.94-0.09-1.09-0.5c-0.15-0.41,0.1-0.86,0.55-1c1.66-0.51,2.81-0.15,3.82,0.16 c0.69,0.22,1.29,0.4,1.89-0.04c0.37-0.27,0.92-0.21,1.21,0.13c0.29,0.34,0.23,0.84-0.15,1.12c-1.33,0.96-2.33,0.65-3.5,0.29 C54.84,12.79,53.98,12.52,52.87,12.86L52.87,12.86z M20.08,24.47h0.76V3.46c0-0.95,0.39-1.81,1.01-2.44l0,0l0,0 C22.48,0.39,23.34,0,24.3,0h12.91c0.96,0,1.83,0.39,2.47,1.03l0,0l0,0l0,0c0.63,0.64,1.03,1.51,1.03,2.47v2.67h7.49 c0.83,0,1.5,0.67,1.5,1.5v8.44c0,0.83-0.67,1.5-1.5,1.5h-7.49v6.85h0.46c0.83,0,1.5,0.67,1.5,1.5v11.2 c0.74,0.01,1.5,0.07,2.26,0.17c4.33,0.57,8.41,2.6,11.4,5.54c3.04,3,4.99,6.95,4.99,11.31c0,0.61-0.04,1.26-0.13,1.93l-8.63,65.46 c-0.1,0.75-0.74,1.3-1.48,1.3v0h-41c-0.8,0-1.46-0.63-1.5-1.42L0.15,58.1C0.05,57.35,0,56.63,0,55.95c0-4.8,2.14-9.16,5.5-12.46 c3.31-3.26,7.81-5.5,12.59-6.13c0.16-0.02,0.33-0.04,0.49-0.06V25.96C18.58,25.14,19.25,24.47,20.08,24.47L20.08,24.47z M46.71,9.18h-5.89v5.44h5.89V9.18L46.71,9.18z M42.45,40.16H20.87c-0.83,0-1.63,0.05-2.39,0.16c-4.13,0.55-8.02,2.49-10.88,5.3 C4.79,48.38,3,51.99,3,55.95c0,0.6,0.04,1.19,0.11,1.76l8.28,62.17h38.38l8.46-64.15c0.07-0.5,0.1-1.01,0.1-1.55 c0-3.51-1.59-6.72-4.09-9.18c-2.54-2.51-6.01-4.23-9.69-4.71C43.88,40.21,43.18,40.16,42.45,40.16L42.45,40.16z M37.21,3H24.3 c-0.13,0-0.24,0.05-0.32,0.14l0,0c-0.08,0.08-0.13,0.2-0.13,0.33v20.96h13.88V3.51c0-0.14-0.06-0.27-0.14-0.36l-0.01-0.01 C37.48,3.05,37.35,3,37.21,3L37.21,3z M39.68,27.46h-18.1v9.66h18.1V27.46L39.68,27.46z"/></g></svg>