<?xml version="1.0" encoding="utf-8"?><svg version="1.1" id="Layer_1" xmlns="http://www.w3.org/2000/svg" xmlns:xlink="http://www.w3.org/1999/xlink" x="0px" y="0px" viewBox="0 0 85.23 122.88" style="enable-background:new 0 0 85.23 122.88" xml:space="preserve"><g><path d="M18.06,46.43c0.23-0.14,0.48-0.2,0.73-0.18c-0.44-2.26-0.37-4.44-0.28-6.98c0.24-6.65,1.93-11.97,7.17-16.58 c7.91-6.96,23.56-7.56,32.28-1.57c1.29,0.89,2.49,1.94,3.57,3.18c3.54,4.05,6.68,12.96,6.61,18.45c-0.01,1.27-0.22,2.56-0.66,3.87 c-0.02,0.13-0.05,0.27-0.08,0.43c0.95,0.6,1.7,1.34,2.25,2.17c0.82,1.24,1.17,2.68,1.09,4.19c-0.08,1.45-0.58,2.98-1.48,4.46 c-1.05,1.73-2.65,3.41-4.78,4.87c-1.86,4.34-4.47,8.7-7.61,12.18c-2.65,2.94-5.69,5.27-9.01,6.49c-3.4,1.25-7.06,1.35-10.85-0.25 c-1.97-0.82-3.96-2.11-5.97-3.91c-1.84-1.66-3.5-3.7-5.01-6.09c-1.39-2.21-2.65-4.71-3.79-7.48c-0.5-0.15-0.98-0.33-1.43-0.54 c-0.64-0.3-1.23-0.66-1.77-1.07c-1.57-1.2-2.61-2.84-3.22-4.65c-0.67-2.01-0.8-4.24-0.52-6.29c0.14-1.05,0.43-1.97,0.88-2.74 C16.66,47.58,17.28,46.93,18.06,46.43L18.06,46.43z M61.55,87.07c-0.73-0.2-1.17-0.95-0.97-1.68c0.2-0.73,0.95-1.17,1.68-0.97 c0.87,0.23,1.06,0.28,1.28,0.34c5.97,1.58,11.14,2.96,15.53,8.29c3.65,4.43,4,7.75,4.5,12.44c0.08,0.72,0.16,1.48,0.29,2.53 l1.04,8.28c0.08,0.63-0.28,1.2-0.83,1.44c-7.19,3.65-23.39,5.15-39.58,5.15c-19.1,0-38.37-2.12-42.98-5.28 c-0.45-0.31-0.66-0.83-0.58-1.34l0,0l1.76-11.69c1.1-7.32,3.39-11.73,6.98-14.63c3.54-2.86,8.21-4.12,14.19-5.17 c0.75-0.13,1.46,0.37,1.59,1.12c0.13,0.75-0.37,1.46-1.12,1.59c-5.56,0.98-9.87,2.12-12.94,4.6c-3.03,2.45-4.99,6.34-5.98,12.9 l-1.62,10.77c2.52,1.26,7.86,2.31,14.66,3.07c-8.47-16.18,16.97-28.49,24.3-8.39c9.31-20.37,32.99-7.43,24.44,7.74 c-0.17,0.3-0.36,0.59-0.56,0.87c6.46-0.72,11.92-1.83,15.44-3.39l-0.91-7.3c-0.09-0.75-0.19-1.69-0.29-2.58 c-0.45-4.21-0.76-7.19-3.88-10.98c-3.82-4.64-8.6-5.91-14.11-7.37L61.55,87.07L61.55,87.07z M29.59,84.58 c0.93,0,1.69,0.76,1.69,1.69c0,0.93-0.76,1.69-1.69,1.69c-0.93,0-1.69-0.76-1.69-1.69C27.89,85.34,28.65,84.58,29.59,84.58 L29.59,84.58z M56.16,84.58c-0.93,0-1.69,0.76-1.69,1.69c0,0.93,0.76,1.69,1.69,1.69c0.93,0,1.69-0.76,1.69-1.69 C57.86,85.34,57.1,84.58,56.16,84.58L56.16,84.58z M52.9,88.3c-0.93,0-1.69,0.76-1.69,1.69c0,0.93,0.76,1.69,1.69,1.69 c0.93,0,1.69-0.76,1.69-1.69C54.59,89.06,53.83,88.3,52.9,88.3L52.9,88.3z M48.54,90.89c-0.93,0-1.69,0.76-1.69,1.69 c0,0.93,0.76,1.69,1.69,1.69c0.93,0,1.69-0.76,1.69-1.69C50.24,91.65,49.48,90.89,48.54,90.89L48.54,90.89z M42.88,91.29l2.91,2.91 l-2.91,2.91l-2.91-2.91L42.88,91.29L42.88,91.29z M42.88,93.2l1,1l-1,1l-1-1L42.88,93.2L42.88,93.2z M37.21,90.89 c0.93,0,1.69,0.76,1.69,1.69c0,0.93-0.76,1.69-1.69,1.69c-0.93,0-1.69-0.76-1.69-1.69C35.51,91.65,36.27,90.89,37.21,90.89 L37.21,90.89z M32.85,88.3c0.93,0,1.69,0.76,1.69,1.69c0,0.93-0.76,1.69-1.69,1.69c-0.93,0-1.69-0.76-1.69-1.69 C31.16,89.06,31.92,88.3,32.85,88.3L32.85,88.3z M8.79,84.01c0.65,0.39,0.85,1.24,0.46,1.89c-0.39,0.65-1.24,0.85-1.89,0.46 l-6.7-4.1c-0.56-0.34-0.79-1.02-0.59-1.61h0c1.11-3.26,2.15-6.52,3.1-9.79c0.95-3.3,1.83-6.68,2.62-10.17 c0.15-0.68,0.32-1.45,0.5-2.31c0.15-0.73,0.31-1.5,0.47-2.32c0.83-4.21,1.29-8.62,1.75-13.04c1.01-9.78,2.04-19.63,6.99-27.8 c3.32-5.47,7.91-9.8,13.64-12.43c5.32-2.43,11.59-3.39,18.71-2.41c6.37,0.87,12.72,3.82,19.04,9.49c0.07,0.06,0.13,0.13,0.19,0.2 l0,0c1.6,2.16,3.13,4.35,4.41,6.61c1.31,2.3,2.35,4.69,2.97,7.21c1.63,6.7,2.34,13.77,3.07,21.05c1.17,11.67,2.4,23.87,7.58,35.6 c0.27,0.63,0.05,1.34-0.51,1.71l-6.29,4.44c-0.62,0.44-1.48,0.29-1.91-0.33c-0.44-0.62-0.29-1.48,0.33-1.91l5.42-3.82 c-4.98-11.78-6.19-23.85-7.35-35.41c-0.72-7.18-1.42-14.16-3-20.67c-0.54-2.24-1.49-4.39-2.69-6.5c-1.2-2.11-2.63-4.17-4.15-6.22 C59.11,6.6,53.29,3.89,47.49,3.1c-6.58-0.9-12.35-0.03-17.2,2.19c-5.21,2.39-9.4,6.34-12.44,11.35c-4.63,7.63-5.62,17.18-6.6,26.66 c-0.47,4.51-0.93,9.01-1.78,13.29c-0.15,0.75-0.31,1.54-0.49,2.37c-0.15,0.7-0.32,1.48-0.51,2.34c-0.79,3.49-1.68,6.93-2.66,10.32 c-0.88,3.05-1.81,6-2.78,8.88L8.79,84.01L8.79,84.01z M19.38,48.44l-0.03,0.02c-0.44,0.28-0.8,0.66-1.07,1.13 c-0.29,0.51-0.48,1.13-0.58,1.88c-0.23,1.71-0.13,3.56,0.42,5.21c0.46,1.37,1.23,2.61,2.4,3.5c0.41,0.31,0.85,0.58,1.32,0.8 c0.49,0.23,1.01,0.41,1.58,0.55c0.39,0.09,0.7,0.37,0.84,0.72l0,0c1.14,2.86,2.41,5.42,3.81,7.65c1.39,2.2,2.91,4.07,4.59,5.58 c1.79,1.62,3.56,2.76,5.29,3.48c3.18,1.34,6.25,1.26,9.09,0.21c2.93-1.08,5.65-3.18,8.05-5.84c3.04-3.36,5.55-7.61,7.32-11.83 c0.11-0.26,0.3-0.47,0.54-0.59c1.94-1.29,3.37-2.76,4.27-4.26c0.69-1.14,1.07-2.28,1.13-3.35c0.06-1.01-0.17-1.95-0.69-2.74 c-0.28-0.42-0.64-0.81-1.09-1.15c-0.91,2.05-2.42,4.76-4.39,7.45V44.54c-5.64-2.61-9.33-8.35-11.21-16.99 c-2.25,16.43-22.43,15.72-27.51,18.72v9.59c-0.96-1.35-1.82-2.73-2.6-4.13C20.22,50.57,19.73,49.48,19.38,48.44L19.38,48.44z M35.71,8.38C40.9,4.86,46.82,5.64,51.7,9.37c1.29,0.98,2.38,2.19,3.25,3.65c0.74,1.25,2.04,3.79-0.38,4.18 c-0.95,0.15-2.62-1.15-3.91-1.56c-1.66-0.53-3.36-0.88-5.04-1.06c-3.15-0.33-6.24-0.07-8.9,0.66c-1.45,0.4-2.85,0.89-4.19,1.51 c-0.63,0.29-1.9,1.14-2.26,0.05C29.45,14.27,33.84,9.64,35.71,8.38L35.71,8.38z"/></g></svg>