<svg xmlns="http://www.w3.org/2000/svg" shape-rendering="geometricPrecision" text-rendering="geometricPrecision" image-rendering="optimizeQuality" fill-rule="evenodd" clip-rule="evenodd" viewBox="0 0 249 512.82"><path d="m102.18 346.39-1.59 7.31c-1.43 6.55-1.83 13.64-8.96 16.63-4.76 2-10.65.39-17.32-3.76-6.8-2.17-13.68-2.92-20.66-2.17-6.75.71-13.58 2.83-20.51 6.41C12.62 384.1.04 404.53.05 436.25c-1 36.73 14.13 58.52 38.33 71.91 16.72 6.99 31.4 5.86 44.48-1.67 19.95-11.49 30.63-30.41 34.56-52.55 2.49-14.03 2.55-29.18 2.21-45.84l4.87-34.43 4.87 34.43c-.34 16.66-.28 31.81 2.21 45.84 3.93 22.14 14.61 41.06 34.56 52.55 13.08 7.53 27.76 8.66 44.48 1.67 24.2-13.39 39.33-35.18 38.33-71.91.01-31.72-12.57-52.15-33.09-65.44-6.93-3.58-13.76-5.7-20.51-6.41-6.98-.75-13.86 0-20.66 2.17-6.67 4.15-12.56 5.76-17.33 3.76-7.12-2.99-7.52-10.08-8.95-16.63l-1.59-7.31c-.62-14.99 3.59-30.91 4.13-46.71.4-11.76.17-23.81.08-35.24-.7-87.43-6.24-188.93-32.15-264.44-8.22 10.16-16.79 74.16-20.19 155.59-1.95 46.41-1.19 67.8-.9 106.47.09 12.02-.15 24.62.25 36.92.52 16.01 4.76 32.3 4.14 47.41zM118.91 7.22c19.41 52.93 18.51 154.88 27.01 209.49v24.62c-42.67-9.71-34.53-190.57-27.01-234.11zm58.9 383.31c13.45-6.8 26.15-1 35.3 9.67 7.35 8.56 11.3 20.05 12.04 34.3.62 12.02-3.13 28.64-11.31 40.21-15.84 22.4-39.49 14.72-51.91-6.23-5.52-9.31-8.09-19.89-7.46-31.82.43-8.08 2.03-17.03 5.34-25.08 3.67-8.9 9.43-16.72 18-21.05zm-58.53-98.23c-5.53 3.19-7.43 10.27-4.23 15.8 3.19 5.53 10.27 7.43 15.8 4.23 5.53-3.19 7.42-10.27 4.23-15.8-3.19-5.53-10.27-7.42-15.8-4.23zm-48.09 98.23c-13.45-6.8-26.15-1-35.3 9.67-7.35 8.56-11.3 20.05-12.04 34.3-.62 12.02 3.13 28.64 11.31 40.21 15.84 22.4 39.49 14.72 51.91-6.23 5.52-9.31 8.09-19.89 7.46-31.82-.43-8.08-2.03-17.03-5.34-25.08-3.67-8.9-9.43-16.72-18-21.05z"/></svg>