<svg xmlns="http://www.w3.org/2000/svg" shape-rendering="geometricPrecision" text-rendering="geometricPrecision" image-rendering="optimizeQuality" fill-rule="evenodd" clip-rule="evenodd" viewBox="0 0 447 512.44"><path fill-rule="nonzero" d="m219.24.01.61.02c50.18-.92 96.05 18.47 129.7 50.63 33.85 32.35 55.36 77.62 56.5 128.14v.17h.04l-.03.63c.93 50.18-18.46 96.04-50.62 129.7-16.84 17.62-37.19 31.89-59.95 41.69 75.33 5.73 129.48 20.15 132.32 37.19l.16-1.06c3.63 1.09 6.63 2.84 9.13 4.87 10.81 8.76 11.14 35.78 8.57 55.88C434.98 531.15 5.15 538.26.44 443.36c-.97-19.54-1.21-43.25 8.81-51.37 2.47-2 6.22-4.59 9.81-5.69 6.36-16.22 59.26-29.79 131.8-35.31a183.116 183.116 0 0 1-54.06-35.81c-33.85-32.34-55.36-77.62-56.5-128.14v-.17h-.03l.02-.62c-.93-50.18 18.46-96.05 50.62-129.71C123.26 22.7 168.54 1.19 219.06.04h.18V.01zm208.24 392.32c-7.01 21.5-95.79 38.5-204.31 38.5-108.51 0-197.29-17-204.3-38.5-34.33 25.03 86.33 48.92 204.31 50.56 117.98-1.64 238.64-25.53 204.3-50.56zm-262.89-34.28c-69.76 4.54-119.85 16.94-119.85 31.54 0 18.43 79.89 33.38 178.43 33.38 98.55 0 178.44-14.95 178.44-33.38 0-14.59-50.08-27-119.84-31.54-38.9-2.51-78.28-2.47-117.18 0zm95.98-56.72a4.44 4.44 0 0 1-1.52-8.75c12.85-2.28 24.86-8.39 34.91-17 10.4-8.91 18.69-20.48 23.61-33.24.89-2.28 3.45-3.42 5.73-2.54 2.28.88 3.41 3.45 2.53 5.73-5.46 14.13-14.62 26.94-26.11 36.79-11.22 9.61-24.69 16.44-39.15 19.01zm-40.8-269.39c41.69-.94 79.81 15.1 107.74 41.8 27.94 26.7 45.7 64.07 46.64 105.78l.01.41c.83 41.52-15.19 79.49-41.8 107.33-26.7 27.93-64.07 45.69-105.77 46.64h-.42c-41.52.83-79.49-15.19-107.33-41.8-27.94-26.7-45.7-64.07-46.64-105.77-.94-41.69 15.1-79.81 41.79-107.74 26.71-27.94 64.08-45.7 105.78-46.65zM321.4 80.16c-26.3-25.15-62.21-40.25-101.46-39.37-39.23.89-74.4 17.6-99.53 43.9C95.27 111 80.16 146.9 81.05 186.15c.89 39.24 17.6 74.4 43.9 99.54 26.22 25.05 61.98 40.14 101.08 39.36l.46-.02c39.2-.9 74.34-17.6 99.45-43.88 25.06-26.22 40.15-61.98 39.37-101.08l-.03-.46c-.89-39.2-17.6-74.34-43.88-99.45zM219.24 17.78v-.03c-45.52 1.07-86.31 20.49-115.49 51.01-29.06 30.42-46.59 71.86-45.76 117.19l.04.91-.03.01c1.08 45.5 20.49 86.3 51.01 115.47 30.42 29.07 71.87 46.6 117.19 45.77l.91-.05.01.03c45.51-1.07 86.31-20.49 115.48-51.01 29.06-30.41 46.59-71.86 45.77-117.19l-.05-.91.03-.01c-1.08-45.5-20.49-86.3-51.01-115.47-30.42-29.07-71.86-46.59-117.19-45.77l-.91.05z"/></svg>