<svg id="Layer_1" data-name="Layer 1" xmlns="http://www.w3.org/2000/svg" viewBox="0 0 122.64 122.88"><title>cream-tube</title><path d="M12.65,79.16,70.91,9.35a1.74,1.74,0,0,1,.51-1.06,1.76,1.76,0,0,1,.74-.44l6-7.21A1.78,1.78,0,0,1,80.69.42l.11.1h0l41.31,41.31a1.79,1.79,0,0,1,0,2.53,1.62,1.62,0,0,1-.2.18l-7.43,6.26a1.85,1.85,0,0,1-.25.32,1.79,1.79,0,0,1-.59.39L43.86,110.36l-.1.08a9.81,9.81,0,0,1-6.49,2.5,7.74,7.74,0,0,1-3.44-1l-10,10a3.08,3.08,0,0,1-4.35,0h0L.92,103.4h0A3.13,3.13,0,0,1,.92,99h0l10-10a8.16,8.16,0,0,1-.76-2.49c-.3-2.33.47-4.75,2.48-7.29l0,0Zm59-56.72a1.79,1.79,0,1,1,2.9,2.1l-4,5.45a1.79,1.79,0,1,1-2.89-2.1l3.95-5.45ZM60.38,35.59a1.78,1.78,0,0,1,2.77,2.25L34.84,72.74a1.78,1.78,0,1,1-2.76-2.25l28.3-34.9ZM114,38.81l-4.78,4.78L113,47.37,118.21,43,114,38.81Zm-7.3,2.26,4.78-4.78L107.21,32l-4.79,4.79,4.31,4.3ZM99.9,34.25l4.79-4.79-4.31-4.31-4.79,4.79,4.31,4.31Zm-6.83-6.83,4.79-4.79-4.3-4.3-4.79,4.79,4.3,4.3Zm-6.83-6.83L91,15.8l-4.3-4.3-4.79,4.79,4.3,4.3Zm-6.83-6.83L84.2,9,79.66,4.43,75.3,9.65l4.11,4.11Zm30.87,35.92L73,12.41,20.23,75.65l27.11,27.11,62.94-53.08ZM43.41,106.07,16.94,79.6,15.4,81.44c-1.36,1.73-1.89,3.25-1.72,4.61a6.65,6.65,0,0,0,2.54,4l.19.16L33.5,107.25h0l0,0a5.89,5.89,0,0,0,3.88,2.1,6.42,6.42,0,0,0,4.12-1.72l0,0,1.86-1.56Z"/></svg>