<svg id="Layer_1" data-name="Layer 1" xmlns="http://www.w3.org/2000/svg" viewBox="0 0 45.63 122.88"><defs><style>.cls-1{fill-rule:evenodd;}</style></defs><title>electric-trimmer</title><path class="cls-1" d="M7.54,0H9.72V8.84a.2.2,0,0,0,.2.21H13.2a.21.21,0,0,0,.21-.21V0h2.18V8.84a.2.2,0,0,0,.2.21h3.28a.21.21,0,0,0,.21-.21V0h2.18V8.84a.2.2,0,0,0,.2.21h3.28a.21.21,0,0,0,.21-.21V0h2.18V8.84a.2.2,0,0,0,.2.21h3.28A.21.21,0,0,0,31,8.84V0H33.2V8.84a.2.2,0,0,0,.2.21h3.28a.21.21,0,0,0,.21-.21V0h2.18V8.84a.2.2,0,0,0,.2.21h3.29a.2.2,0,0,0,.2-.21V.67a5.49,5.49,0,0,1,2.87,4.82V24.36A12.55,12.55,0,0,0,36,19l-.65,0H10.35c-.34,0-.68,0-1,0A12.89,12.89,0,0,0,1.4,22.65,12.24,12.24,0,0,0,0,24.29V5.5A5.51,5.51,0,0,1,3.85.26V8.84a.2.2,0,0,0,.2.21H7.33a.21.21,0,0,0,.21-.21V0Zm2.81,22.13H35.3c5.09,0,9.53,4.18,9.26,9.25L40.05,115.8A7.25,7.25,0,0,1,33,122.88H15.2c-3.88,0-6.75-3.2-7.08-7.08l-7-84.42c-.42-5.07,4.17-9.25,9.26-9.25ZM22.82,43a4.7,4.7,0,1,1-4.71,4.7A4.7,4.7,0,0,1,22.82,43ZM18,110.45a1.32,1.32,0,0,1,0-2.63H28.05a1.32,1.32,0,1,1,0,2.63Zm-3.48-7.92a1.32,1.32,0,1,1,0-2.63H31.54a1.32,1.32,0,1,1,0,2.63Zm8.34-63.4h0a7.37,7.37,0,0,1,7.35,7.35V57.39a7.37,7.37,0,0,1-7.35,7.35h0a7.37,7.37,0,0,1-7.35-7.35V46.48a7.37,7.37,0,0,1,7.35-7.35Z"/></svg>