<?xml version="1.0" encoding="utf-8"?><svg version="1.1" id="Layer_1" xmlns="http://www.w3.org/2000/svg" xmlns:xlink="http://www.w3.org/1999/xlink" x="0px" y="0px" viewBox="0 0 122.88 101.63" style="enable-background:new 0 0 122.88 101.63" xml:space="preserve"><g><path d="M101.7,62.62l-1.42,8.94c2.94,4.54,5.57,6.24,7.78,6.17c1.48-0.05,2.88-0.94,4.1-2.3c1.38-1.54,2.5-3.65,3.28-5.91 c1.65-4.75,1.87-9.99-0.25-11.62c-0.66-0.5-1.48-0.79-2.39-0.88c-1.1-0.11-2.33,0.05-3.63,0.42c-1.44,0.42-2.48,0.66-3.34,0.87 c-2.71,0.64-3.36,0.8-4.12,4.28L101.7,62.62L101.7,62.62z M110.82,81.43c-0.07-0.16-0.11-0.33-0.13-0.49 c-0.8,0.3-1.64,0.47-2.52,0.5c-3.38,0.11-7.1-1.97-10.8-7.53c-1.58,0.76-3.1,1.05-4.54,0.84c-1.39-0.2-2.65-0.84-3.77-1.93 c-0.59,0.36-1.3,0.52-2.37,0.75c-0.52,0.11-1.16,0.26-2.06,0.49c-2.27,0.6-4.48,1.14-6.55,1.28c-2.3,0.16-4.41-0.17-6.2-1.41 c-1.25-0.86-2.12-2.13-2.66-3.68c-1.05-3.02-0.84-7.2,0.12-11.28c0.42-1.79,0.99-3.59,1.66-5.27c-7.26-1.74-14.61-2.9-22.03-3.55 c-7.6-0.66-15.26-0.77-22.96-0.39c-0.33,2.35-0.59,4.79-0.79,7.31c6.61,0.1,13.1,0.46,19.45,1.06c7.12,0.67,14.08,1.64,20.88,2.9 c1.01,0.18,1.68,1.15,1.49,2.16c-0.18,1.01-1.15,1.68-2.16,1.49c-6.71-1.24-13.56-2.2-20.54-2.86c-6.61-0.62-13.36-0.98-20.24-1.06 L7.22,75.36c21.3-0.23,41.25,1.32,59.76,4.72c17.93,3.3,34.52,8.34,49.71,15.21L110.82,81.43L110.82,81.43z M113.6,79.2 c0.28,0.19,0.5,0.46,0.64,0.8l7.48,17.67l0.12,0.06c0.92,0.45,1.3,1.56,0.85,2.48c-0.23,0.47-0.63,0.8-1.08,0.95 c-0.11,0.07-0.22,0.14-0.35,0.19c-0.22,0.09-0.45,0.14-0.67,0.15v0c-22.56,0.69-43.59-1.14-63.39-5 C37.4,92.61,18.81,86.7,1.14,79.25c-0.94-0.4-1.39-1.49-0.99-2.43c0.11-0.27,0.29-0.5,0.5-0.68l0,0l20.45-17.66 c0.06-0.27,0.19-0.51,0.35-0.72c0.33-4.48,0.84-8.66,1.53-12.56c0.75-4.27,1.72-8.23,2.9-11.89c3.78-11.75,10.27-20.82,18.99-26.52 c8.51-5.56,19.09-7.87,31.28-6.29c6.78,0.88,13.37,3.1,19.02,6.64c5.3,3.32,9.77,7.79,12.84,13.4c1.9,3.48,3.24,7.65,4.08,12.38 c0.88,4.91,1.22,10.45,1.12,16.44c-0.02,1.02-0.86,1.84-1.88,1.83c-1.02-0.02-1.84-0.86-1.83-1.88c0.09-5.72-0.24-11.03-1.08-15.74 c-0.78-4.35-1.98-8.15-3.67-11.24c-2.75-5.02-6.77-9.04-11.54-12.03c-5.19-3.25-11.25-5.29-17.52-6.11 C64.4,2.71,54.67,4.81,46.89,9.89c-8,5.23-13.98,13.63-17.49,24.54c-1.11,3.46-2.04,7.26-2.77,11.4l-0.03,0.19 c7.64-0.34,15.21-0.22,22.69,0.43c7.83,0.68,15.61,1.93,23.31,3.82c0.4-0.73,0.81-1.4,1.23-2.02c1.3-1.88,2.76-3.25,4.28-3.78 c2.32-0.81,4.76-0.12,7.34,2.12c2.06,1.79,4.26,4.64,6.62,8.58c1.52-0.54,2.97-0.72,4.33-0.49c1.4,0.24,2.66,0.87,3.76,1.94 c1.01-1.02,2.44-1.36,4.81-1.92c0.93-0.22,2.04-0.49,3.17-0.81c1.74-0.51,3.45-0.71,5.03-0.55c1.6,0.16,3.06,0.68,4.28,1.62 c3.46,2.65,3.62,9.69,1.5,15.78c-0.94,2.7-2.31,5.26-4.03,7.17C114.5,78.37,114.06,78.81,113.6,79.2L113.6,79.2z M10.52,79.05 c15.04,5.84,30.77,10.53,47.39,13.78c17.48,3.41,35.93,5.22,55.53,5.08C99,91.55,83.27,86.85,66.31,83.73 C48.98,80.55,30.36,79.01,10.52,79.05L10.52,79.05z M88.95,57.19c-2.18-3.67-4.15-6.26-5.93-7.8c-1.49-1.29-2.71-1.76-3.68-1.42 c-0.73,0.25-1.58,1.12-2.45,2.38c-1.63,2.37-3.09,5.89-3.93,9.46c-0.82,3.48-1.04,6.92-0.24,9.22c0.29,0.82,0.7,1.46,1.26,1.85 c0.99,0.68,2.32,0.86,3.85,0.75c1.76-0.12,3.77-0.61,5.85-1.16c0.83-0.22,1.59-0.39,2.2-0.52c0.75-0.17,1.12-0.22,1.15-0.24 c-0.01-0.13,0-0.25,0.02-0.38l-0.01,0l1.81-11.78C88.88,57.43,88.91,57.31,88.95,57.19L88.95,57.19z M92.45,59.02l-1.34,8.43 c-0.01,0.05-0.1,0.66-0.18,1.2c-0.03,0.2-0.06,0.4-0.09,0.58c0.79,1.11,1.62,1.72,2.5,1.84c0.95,0.14,2.07-0.22,3.37-1.05l1.5-9.95 c-0.73-1.01-1.55-1.57-2.44-1.72C94.84,58.19,93.72,58.43,92.45,59.02L92.45,59.02z"/></g></svg>