<?xml version="1.0" encoding="utf-8"?><svg version="1.1" id="Layer_1" xmlns="http://www.w3.org/2000/svg" xmlns:xlink="http://www.w3.org/1999/xlink" x="0px" y="0px" viewBox="0 0 101.7 122.88" style="enable-background:new 0 0 101.7 122.88" xml:space="preserve"><g><path d="M57.4,122.88h-3.31V38.35c0-4.07,0.01,0.25,0.01-1.2c-0.01-8.15-0.03-14.7,5.87-21.92c0.1-0.13,0.22-0.24,0.35-0.32v-2.35 c0-6.12,4.62-9.98,10.57-11.64C73.1,0.3,75.51,0,77.92,0c2.42,0,4.83,0.32,7.06,0.94c6.05,1.7,10.8,5.64,10.8,11.85v2.4 c0.04,0.04,0.08,0.08,0.12,0.13c5.87,7.06,5.84,13.37,5.79,21.25c0,0.05,0,0.08,0,2.01v84.3h-3.31v-84.3 c0-0.56,0.01-0.76,0.01-2.02c0.03-5.82,0.06-10.71-2.61-15.6v0.37c0,12.74-4.51,20.84-10.28,24.42c-2.33,1.45-4.87,2.16-7.42,2.16 c-2.55,0-5.09-0.72-7.42-2.15c-5.81-3.56-10.35-11.55-10.35-23.75v-1.49c-2.94,5.2-2.94,10.4-2.92,16.63c0,2.25,0.01-2.06,0.01,1.2 L57.4,122.88L57.4,122.88L57.4,122.88z M3.31,122.88H0V61.09c0-4.07,0.01,0.25,0-1.2c-0.01-8.15-0.03-14.7,5.87-21.92 c0.1-0.13,0.22-0.24,0.35-0.32V35.3c0-6.12,4.62-9.98,10.57-11.64c2.22-0.62,4.62-0.92,7.03-0.92c2.42,0,4.83,0.32,7.06,0.94 c6.05,1.7,10.8,5.64,10.8,11.85v2.4c0.04,0.04,0.08,0.08,0.12,0.13c5.87,7.06,5.84,13.37,5.79,21.25c0,0.05,0,0.08,0,2.01v61.55 h-3.31V61.32c0-0.56,0.01-0.76,0.01-2.02c0.03-5.82,0.06-10.71-2.61-15.6v0.37c0,12.74-4.51,20.84-10.28,24.42 c-2.33,1.45-4.87,2.16-7.42,2.16c-2.55,0-5.09-0.72-7.42-2.15C10.77,64.94,6.23,56.95,6.23,44.75v-1.49 c-2.94,5.2-2.93,10.4-2.92,16.63c0,2.25,0.01-2.06,0.01,1.2L3.31,122.88L3.31,122.88L3.31,122.88z M14.34,91.03 c-0.76-0.25-1.16-1.07-0.91-1.83c0.25-0.76,1.07-1.16,1.83-0.91c3.85,1.3,6.22,1.87,8.53,1.84c2.3-0.04,4.71-0.69,8.61-1.85 c0.77-0.23,1.57,0.21,1.8,0.97c0.23,0.77-0.21,1.57-0.97,1.8c-4.13,1.23-6.7,1.92-9.4,1.97C21.13,93.05,18.51,92.43,14.34,91.03 L14.34,91.03L14.34,91.03z M11.31,82.63c-0.76-0.25-1.16-1.07-0.91-1.83c0.25-0.76,1.07-1.16,1.83-0.91 c3.86,1.3,7.71,1.87,11.56,1.84c3.86-0.04,7.74-0.69,11.63-1.85c0.77-0.23,1.57,0.21,1.8,0.97c0.23,0.77-0.21,1.57-0.97,1.8 c-4.13,1.23-8.27,1.93-12.44,1.97C19.64,84.65,15.47,84.03,11.31,82.63L11.31,82.63L11.31,82.63z M68.43,70.69 c-0.76-0.25-1.16-1.07-0.91-1.83c0.25-0.76,1.07-1.16,1.83-0.91c3.85,1.3,6.22,1.87,8.53,1.84c2.3-0.04,4.71-0.69,8.61-1.85 c0.77-0.23,1.57,0.21,1.8,0.97c0.23,0.77-0.21,1.57-0.97,1.8c-4.13,1.23-6.7,1.92-9.4,1.97C75.22,72.71,72.6,72.09,68.43,70.69 L68.43,70.69L68.43,70.69z M65.4,62.29c-0.76-0.25-1.16-1.07-0.91-1.83c0.25-0.76,1.07-1.16,1.83-0.91 c3.86,1.3,7.71,1.87,11.56,1.84c3.86-0.04,7.74-0.69,11.63-1.85c0.77-0.23,1.57,0.21,1.8,0.97c0.23,0.77-0.21,1.57-0.97,1.8 c-4.13,1.23-8.27,1.93-12.44,1.97C73.73,64.31,69.56,63.69,65.4,62.29L65.4,62.29L65.4,62.29z"/></g></svg>