<?xml version="1.0" encoding="utf-8"?><svg version="1.1" id="Layer_1" xmlns="http://www.w3.org/2000/svg" xmlns:xlink="http://www.w3.org/1999/xlink" x="0px" y="0px" viewBox="0 0 38.8 122.88" style="enable-background:new 0 0 38.8 122.88" xml:space="preserve"><style type="text/css">.st0{fill-rule:evenodd;clip-rule:evenodd;}</style><g><path class="st0" d="M1.96,67.95h2.97V35.04c0-1.02,0.83-1.85,1.85-1.85h3.54V0c6.6,1.05,12.84,4.65,18.44,12.65v20.54h2.87 c1.02,0,1.85,0.83,1.85,1.85v32.91h3.37c1.08,0,1.96,0.88,1.96,1.96v51.02c0,1.08-0.88,1.96-1.96,1.96H1.96 C0.88,122.88,0,122,0,120.92V69.91C0,68.83,0.88,67.95,1.96,67.95L1.96,67.95z M8.62,67.95h21.16V36.88H8.62V67.95L8.62,67.95z"/></g></svg>