<?xml version="1.0" encoding="utf-8"?><svg version="1.1" id="Layer_1" xmlns="http://www.w3.org/2000/svg" xmlns:xlink="http://www.w3.org/1999/xlink" x="0px" y="0px" viewBox="0 0 96.89 122.88" style="enable-background:new 0 0 96.89 122.88" xml:space="preserve"><style type="text/css">.st0{fill-rule:evenodd;clip-rule:evenodd;}</style><g><path class="st0" d="M52.71,79.97l10.21,16.79c-2.7,5.3-3.66,10.24,0.44,17.35c4.11,7.11,16.12,11.66,24.81,6.65 c8.69-5.01,10.83-17.56,6.65-24.81c-4.19-7.25-9.45-9.07-15.71-9.08L69.09,70.41c5.51-5.25,9.33-11.86,11.23-18.98 c2.69-10.05,1.57-21.11-3.98-30.83c-0.06-0.11-0.12-0.22-0.19-0.33C70.5,10.59,61.48,4.09,51.44,1.4 c-0.07-0.02-0.14-0.03-0.21-0.05c-10.05-2.64-21.1-1.48-30.8,4.12l-0.01,0.01c-9.76,5.64-16.31,14.7-19.02,24.8l-0.01,0 C-1.29,40.33-0.17,51.4,5.39,61.12c0.06,0.11,0.12,0.22,0.19,0.33c5.65,9.68,14.67,16.18,24.71,18.87 c0.07,0.02,0.14,0.03,0.21,0.05C37.67,82.25,45.37,82.2,52.71,79.97L52.71,79.97z M27.43,17.59c-6.42,3.71-10.73,9.67-12.51,16.32 c-1.78,6.64-1.03,13.96,2.68,20.38c3.71,6.42,9.67,10.73,16.32,12.51c6.64,1.78,13.96,1.03,20.38-2.68 c6.42-3.71,10.73-9.67,12.51-16.32c1.78-6.64,1.03-13.96-2.68-20.38C60.42,21,54.46,16.69,47.81,14.91 C41.17,13.13,33.85,13.88,27.43,17.59L27.43,17.59z M47.17,55.61c-2.99,1.16-6.3,1.41-9.51,0.89c-3.32-0.54-6.54-1.92-9.21-3.97 l-1.25,1.62c2.94,2.26,6.47,3.77,10.13,4.37c3.56,0.58,7.23,0.3,10.58-1L47.17,55.61L47.17,55.61z M18.51,34.86 c1.53-5.71,5.25-10.85,10.78-14.04c5.54-3.2,11.84-3.85,17.56-2.32c5.71,1.53,10.85,5.25,14.04,10.78 c3.2,5.54,3.85,11.84,2.32,17.56c-1.53,5.71-5.25,10.85-10.78,14.04c-5.54,3.2-11.84,3.85-17.56,2.32 c-5.71-1.53-10.85-5.25-14.04-10.78C17.63,46.89,16.98,40.58,18.51,34.86L18.51,34.86z M7.31,31.86 c2.3-8.57,7.87-16.28,16.18-21.07l0,0c8.26-4.77,17.65-5.76,26.19-3.52c0.05,0.02,0.11,0.03,0.16,0.05 c8.58,2.3,16.29,7.88,21.09,16.18l0,0c4.8,8.31,5.78,17.78,3.48,26.36c-2.3,8.57-7.87,16.27-16.18,21.07l-0.01,0 c-8.26,4.77-17.65,5.76-26.19,3.52c-0.05-0.02-0.11-0.03-0.16-0.05c-8.58-2.3-16.29-7.87-21.08-16.18l0,0 C6,49.91,5.02,40.45,7.32,31.87L7.31,31.86L7.31,31.86L7.31,31.86z M70.93,23.49L70.93,23.49L70.93,23.49L70.93,23.49z"/></g></svg>