<?xml version="1.0" encoding="utf-8"?><svg version="1.1" id="Layer_1" xmlns="http://www.w3.org/2000/svg" xmlns:xlink="http://www.w3.org/1999/xlink" x="0px" y="0px" viewBox="0 0 86.21 122.88" style="enable-background:new 0 0 86.21 122.88" xml:space="preserve"><g><path d="M54.84,35.81h16L83.59,9.19C78.01,4.6,70.66,2.35,63.07,2.35c-7.71,0-15.66,2.33-22.24,6.89L54.84,35.81L54.84,35.81z M33.98,26.05c0.5,0.14,0.86,0.59,0.86,1.13v92.84c0,0.79-0.32,1.5-0.84,2.02c-0.52,0.52-1.23,0.84-2.02,0.84h-7.39 c-0.78,0-1.5-0.32-2.02-0.84l0,0l0,0l0,0c-0.52-0.52-0.84-1.23-0.84-2.01V27.18c0-0.54,0.37-1,0.86-1.13l0.01-8.87 c0.51-6.92,11.39-5.48,11.35,0.27L33.98,26.05L33.98,26.05z M10.39,26.43c0.17,0.2,0.28,0.47,0.28,0.76v92.84 c0,0.79-0.32,1.5-0.84,2.02c-0.52,0.52-1.23,0.84-2.02,0.84H3.8c-0.79,0-1.5-0.32-2.02-0.84c-0.52-0.52-0.84-1.23-0.84-2.02V27.18 c0-0.38,0.18-0.72,0.46-0.93c-3.02-2.57-0.97-7.23,4.41-11.69C10.3,17.85,13.44,23.61,10.39,26.43L10.39,26.43z M24.07,41.07h8.41 l0.01,0V28.36h-8.42V41.07L24.07,41.07z M32.49,43.41h-0.01h-8.41v76.61c0,0.14,0.06,0.27,0.15,0.36l0,0 c0.09,0.09,0.22,0.15,0.36,0.15h7.39c0.14,0,0.27-0.06,0.36-0.15c0.09-0.09,0.15-0.22,0.15-0.36V43.41L32.49,43.41z M3.28,41.07 h5.04V28.36H3.28V41.07L3.28,41.07z M8.32,43.41H3.28v76.61c0,0.14,0.06,0.27,0.15,0.36c0.09,0.09,0.22,0.15,0.36,0.15h4.01 c0.14,0,0.27-0.06,0.36-0.15c0.09-0.09,0.15-0.22,0.15-0.36V43.41L8.32,43.41z M55.06,55.31h15.32V38.86H55.06V55.31L55.06,55.31z M70.38,57.65H55.06v62.37c0,0.13,0.04,0.24,0.12,0.33l0.04,0.03c0.09,0.09,0.22,0.15,0.36,0.15h14.29c0.14,0,0.27-0.06,0.36-0.15 l0,0c0.09-0.09,0.15-0.22,0.15-0.36V57.65L70.38,57.65z M72.73,37.28v82.74c0,0.78-0.32,1.5-0.84,2.02l0,0l0,0l0,0 c-0.52,0.52-1.23,0.84-2.01,0.84H55.57c-0.79,0-1.5-0.32-2.02-0.84c-0.03-0.03-0.05-0.06-0.08-0.09c-0.47-0.51-0.76-1.19-0.76-1.94 V36.98c0-0.06,0-0.11,0.01-0.17L38.29,9.43c-0.28-0.53-0.11-1.17,0.36-1.5C45.79,2.68,54.57,0,63.07,0c8.44,0,16.63,2.63,22.74,8 c0.43,0.38,0.52,1,0.24,1.47L72.73,37.28L72.73,37.28z"/></g></svg>