<svg xmlns="http://www.w3.org/2000/svg" shape-rendering="geometricPrecision" text-rendering="geometricPrecision" image-rendering="optimizeQuality" fill-rule="evenodd" clip-rule="evenodd" viewBox="0 0 512 489.87"><path fill-rule="nonzero" d="M154.2 169.38h96.72L306.4 48.2c-25.43-20.11-60.13-30.54-96.35-31.61v81.74c0 4.61-3.66 8.35-8.18 8.35s-8.19-3.74-8.19-8.35V16.74c-35.88 1.69-71.92 12.39-100.84 31.79l61.36 120.85zm1.92 260.25h91.78V232.88h-91.78v196.75zm91.78 16.49h-91.78v27.09h91.78v-27.09zm16.49-157.61 71.96-63.69c3.39-3.01 8.58-2.69 11.59.71 3.01 3.39 2.69 8.59-.71 11.59l-82.84 73.34v32.65c.84.23 1.65.61 2.39 1.16a88.901 88.901 0 0 0 24.79 12.7 89.027 89.027 0 0 0 27.55 4.34c24.52 0 46.71-9.93 62.77-26 16.06-16.06 25.99-38.25 25.99-62.76 0-24.51-9.93-46.71-25.99-62.77-16.06-16.06-38.26-26-62.77-26-9.87 0-19.34 1.6-28.12 4.53a88.83 88.83 0 0 0-25.23 13.26c-.44.33-.9.6-1.38.82v33.35l29.97-26.87c3.38-3.03 8.58-2.74 11.6.64 3.02 3.38 2.74 8.57-.64 11.59l-38.91 34.89c-.62.55-1.3 1-2.02 1.33v31.19zm0-103.65c6.84-4.28 14.21-7.78 21.98-10.38 10.34-3.44 21.36-5.32 32.75-5.32 28.55 0 54.4 11.58 73.1 30.29 18.71 18.7 30.29 44.55 30.29 73.1 0 28.55-11.58 54.39-30.29 73.1-18.7 18.71-44.55 30.28-73.1 30.28-11.16 0-21.94-1.79-32.06-5.08-8.02-2.62-15.63-6.2-22.67-10.6v37.9c.49.1.98.25 1.46.45 8.3 3.51 17.01 6.23 26.03 8.05 8.7 1.76 17.82 2.68 27.24 2.68 37.77 0 71.98-15.31 96.73-40.06s40.06-58.95 40.06-96.72c0-37.78-15.31-71.98-40.06-96.73-24.75-24.74-58.95-40.06-96.73-40.06-6.43 0-12.67.43-18.69 1.25-6.23.85-12.33 2.12-18.26 3.78l-.1.03-17.68 38.61v5.43zm25.37-60.85c2.88-.56 5.79-1.05 8.73-1.45 6.83-.93 13.73-1.42 20.63-1.42 41.81 0 79.67 16.95 107.06 44.35 27.4 27.4 44.35 65.25 44.35 107.06 0 41.8-16.95 79.66-44.35 107.06a151.738 151.738 0 0 1-43.88 30.57h122.39c4.04 0 7.31 3.27 7.31 7.31v6.33c0 17.87-7.31 34.11-19.07 45.88-11.8 11.76-28.03 19.07-45.88 19.07H253.36c-1.71.6-3.55.93-5.46.93h-91.78c-4.53 0-8.67-1.85-11.65-4.84-2.98-2.97-4.84-7.1-4.84-11.65V177.63l.02-.58L74.93 49.59c-1.84-3.64-.71-8 2.48-10.33C112.74 13.26 158.98 0 203.79 0c44.5 0 87.85 13.07 118.15 39.71 2.96 2.6 3.6 6.86 1.76 10.17l-33.94 74.13zm-25.4 350.14h182.69c13.85 0 26.43-5.66 35.56-14.78 8.89-8.92 14.5-21.13 14.76-34.57H264.39v48.41l-.03.94zM5.67 289.73h8.6v-72.39c0-2.96 2.4-5.36 5.36-5.36h10.25V104.45c19.1 3.04 37.17 13.46 53.38 36.63v70.9h8.31c2.95 0 5.36 2.4 5.36 5.36v72.39h9.75c3.13 0 5.68 2.55 5.68 5.67v188.8c0 3.13-2.55 5.67-5.68 5.67H5.67c-3.12-.03-5.67-2.57-5.67-5.7V295.4c0-3.12 2.55-5.67 5.67-5.67zm19.28 0h61.26v-67.07H24.95v67.07zm131.17-73.35h91.78v-27.09l-91.78.02v27.07z"/></svg>