<svg id="Layer_1" data-name="Layer 1" xmlns="http://www.w3.org/2000/svg" viewBox="0 0 70.81 122.88"><title>mirror</title><path d="M34.61,0A35.41,35.41,0,0,1,50.38,67.49C45.31,71.67,41.21,76.12,42,84c1,9.68,6.21,14,4.1,26.45-2.72,16-17.71,16.78-20.76,1C23,99.23,28.24,93.18,28.89,83.22,29.4,75.42,24.65,71,19.32,67A35.41,35.41,0,0,1,34.61,0Zm8,58.31a.86.86,0,0,1-.29-1.69,14.44,14.44,0,0,0,6.75-3.29,16.22,16.22,0,0,0,4.57-6.44.86.86,0,0,1,1.6.62,18.07,18.07,0,0,1-5.05,7.12,16.07,16.07,0,0,1-7.58,3.68ZM34.74,6.18a29.23,29.23,0,1,1-20.47,9,29.15,29.15,0,0,1,20.47-9Zm19.67,9.33a27.51,27.51,0,1,0,8.5,19.27,27.41,27.41,0,0,0-8.5-19.27Zm3.09-3.22a32,32,0,1,0,9.87,22.38A31.89,31.89,0,0,0,57.5,12.29Z"/></svg>