<?xml version="1.0" encoding="utf-8"?><svg version="1.1" id="Layer_1" xmlns="http://www.w3.org/2000/svg" xmlns:xlink="http://www.w3.org/1999/xlink" x="0px" y="0px" viewBox="0 0 122.88 31.84" style="enable-background:new 0 0 122.88 31.84" xml:space="preserve"><g><path d="M106.25,25.23c-4.85,1.65-9.85,3.04-15,4.16l0,0c-5.29,1.46-10.17,2.35-14.49,2.44c-4.92,0.1-9.17-0.82-12.55-3.07 c-1.04-0.69-1.96-1.43-2.77-2.21c-0.81,0.78-1.73,1.52-2.77,2.21c-3.38,2.25-7.63,3.18-12.55,3.07c-4.32-0.09-9.2-0.98-14.49-2.44 l0,0c-5.15-1.12-10.14-2.51-15-4.16C11.8,23.6,7.09,21.7,2.48,19.56c-2.22-1.03-3.12-3.53-2-5.57c0.67-1.22,1.91-2.01,3.27-2.22 l0,0c2.46-0.39,4.43-0.66,6.27-0.91l0.15-0.02c5.93-0.82,10.5-1.46,16.06-3.69c1.57-0.63,3.09-1.33,4.64-2.05 c8.88-4.11,18.6-8.6,28.29-0.89c0.84,0.67,1.6,1.36,2.29,2.09c0.69-0.73,1.45-1.42,2.29-2.09c9.69-7.71,19.41-3.21,28.29,0.89 c1.55,0.72,3.07,1.42,4.64,2.05c5.56,2.23,10.12,2.87,16.06,3.69l0.15,0.02c1.84,0.25,3.81,0.53,6.27,0.91l0,0 c1.36,0.22,2.6,1,3.27,2.22c1.12,2.05,0.23,4.54-2,5.57C115.79,21.7,111.08,23.6,106.25,25.23L106.25,25.23z"/></g></svg>