<svg id="Layer_1" data-name="Layer 1" xmlns="http://www.w3.org/2000/svg" viewBox="0 0 99.29 122.88"><title>perfume</title><path d="M34.81,43.94a1.84,1.84,0,0,1-.41,0h-.24c-4.1.15-7,.39-7.58.73C17.4,50.25,11,59.31,7.55,69.23c14.06-2,25.76.28,37.28,2.52,14.68,2.86,29.06,5.66,47.45-1.09l-.11-.34C88.74,59.57,81.82,49.87,71.75,44.78c-1.28-.65-12.84-1-24.12-1-4.63,0-9.15.06-12.82.18ZM40.9,0H59.29a2,2,0,0,1,2,2V7.65a7.37,7.37,0,0,1,5.95,7.21V39.69c3.42.25,5.86.57,6.63,1,11.26,5.69,19,16.42,22.74,28.27a55.72,55.72,0,0,1,2.27,23.91c-1,7.83-3.94,15-8.83,20.44s-11.77,9-20.66,9.59l-.33,0H29.78a30.11,30.11,0,0,1-19.32-8.4C5,109.15,1.76,101.81.54,93.72A55.4,55.4,0,0,1,2.81,68.79c3.67-11.3,10.88-21.71,21.38-28.06.89-.54,3.84-.94,7.89-1.2V14.86a7.37,7.37,0,0,1,6-7.21V2.86A2.87,2.87,0,0,1,40.9,0ZM24.72,21.57a1.89,1.89,0,0,1,0,3.77H8a1.89,1.89,0,0,1,0-3.77Zm-.61,9.36a1.88,1.88,0,0,1,1.22,3.56L11.9,39.1a1.88,1.88,0,1,1-1.22-3.56l13.43-4.61Zm1.22-18.51A1.88,1.88,0,0,1,24.11,16L10.68,11.37A1.88,1.88,0,1,1,11.9,7.81l13.43,4.61Zm21.49,6.34a2.83,2.83,0,1,1,5.65,0V27.4a2.83,2.83,0,0,1-5.65,0V18.76ZM6.11,74.14A49.74,49.74,0,0,0,5.13,93c1.07,7.14,3.9,13.56,8.57,18.13A25.55,25.55,0,0,0,30,118.23H69.06c7.59-.47,13.4-3.49,17.53-8.06s6.76-11,7.68-17.94a50.42,50.42,0,0,0-.8-17.08c-19.41,7-34.31,4.12-49.52,1.15C32.23,74,20.31,71.7,6.11,74.14ZM62.57,39.42V14.86a2.73,2.73,0,0,0-2.71-2.7H39.43a2.71,2.71,0,0,0-1.91.8,2.66,2.66,0,0,0-.79,1.9V39.3c3.36-.13,7.12-.19,10.9-.19,5.17,0,10.46.11,14.94.31Z"/></svg>