<svg id="Layer_1" data-name="Layer 1" xmlns="http://www.w3.org/2000/svg" viewBox="0 0 61.97 122.88"><defs><style>.cls-1{fill-rule:evenodd;}</style></defs><title>man-razor</title><path class="cls-1" d="M23.14,55.58c-.28,1.65-.55,3.21-.73,4.6-2.61,20.73-3.5,38-1.68,49,2.89,17.49,17.33,18.69,20.46.76,1.92-11,1-28.58-1.71-49.79-.31-2.46-.93-5.47-1.38-8.57l-.6-19.44a12.47,12.47,0,0,0,6.15-8.84H59.21c3.48-6,3.88-16.62,0-23.33H2.76c-3.88,6.71-3.48,17.3,0,23.33H18.32a12.43,12.43,0,0,0,5.28,8.29l-.46,24ZM8.28,9.71a1.76,1.76,0,1,1,0-3.51H53.69a1.76,1.76,0,1,1,0,3.51Zm0,7.42a1.76,1.76,0,1,1,0-3.52H53.69a1.76,1.76,0,1,1,0,3.52Z"/></svg>