<svg id="Layer_1" data-name="Layer 1" xmlns="http://www.w3.org/2000/svg" viewBox="0 0 45.95 122.88"><defs><style>.cls-1{fill-rule:evenodd;}</style></defs><title>trimmer</title><path class="cls-1" d="M23,36.72a9.41,9.41,0,0,1,6.67,2.77h0a9.41,9.41,0,0,1,2.77,6.67V56.55a9.45,9.45,0,0,1-18.89,0V46.16A9.4,9.4,0,0,1,16.3,39.5l0,0A9.43,9.43,0,0,1,23,36.72ZM18.19,109.1a1.3,1.3,0,1,1,0-2.59h10a1.3,1.3,0,1,1,0,2.59Zm-3.45-7.81a1.3,1.3,0,0,1,0-2.6H31.59a1.3,1.3,0,1,1,0,2.6Zm31-72.71A9.29,9.29,0,0,1,46,30.64c-1,27.77-3,56-4.46,83.82a9.16,9.16,0,0,1-2.62,6A8.24,8.24,0,0,1,33,122.88H15.46a8.05,8.05,0,0,1-5.79-2.42A9.52,9.52,0,0,1,7,114.51L0,31.19c0-.26,0-.52,0-.76a9.52,9.52,0,0,1,.22-2V5.48A5.52,5.52,0,0,1,4.06.25V8.82a.2.2,0,0,0,.2.2H7.54a.2.2,0,0,0,.2-.2V0H9.91V8.82a.2.2,0,0,0,.21.2h3.27a.2.2,0,0,0,.2-.2V0h2.18V8.82A.2.2,0,0,0,16,9h3.27a.21.21,0,0,0,.21-.2V0h2.17V8.82a.2.2,0,0,0,.2.2H25.1a.2.2,0,0,0,.2-.2V0h2.17V8.82a.2.2,0,0,0,.2.2H31a.2.2,0,0,0,.2-.2V0h2.18V8.82a.2.2,0,0,0,.2.2H36.8a.2.2,0,0,0,.2-.2V0h2.18V8.82a.2.2,0,0,0,.2.2h3.28a.2.2,0,0,0,.2-.2V.67a5.49,5.49,0,0,1,2.86,4.81v23.1Zm-3,.36H3.2A6.14,6.14,0,0,0,3,30.43,4.43,4.43,0,0,0,3,31L10,114.26a6.45,6.45,0,0,0,1.82,4.07,5.09,5.09,0,0,0,3.66,1.53H33a5.24,5.24,0,0,0,3.73-1.56,6.09,6.09,0,0,0,1.75-4c1.46-27.34,4-56.52,4.45-83.67a6.39,6.39,0,0,0-.22-1.7ZM23,42.53a4.64,4.64,0,1,1-4.64,4.64A4.63,4.63,0,0,1,23,42.53Zm0-3.37h0a7,7,0,0,1,7,7V56.55a7,7,0,0,1-7,7h0a7,7,0,0,1-7-7V46.16a7,7,0,0,1,7-7Z"/></svg>