<?xml version="1.0" encoding="utf-8"?><svg version="1.1" id="Layer_1" xmlns="http://www.w3.org/2000/svg" xmlns:xlink="http://www.w3.org/1999/xlink" x="0px" y="0px" viewBox="0 0 81.71 123.38" style="enable-background:new 0 0 81.71 123.38" xml:space="preserve"><g><path d="M36.81,69.75c-0.1-0.29-0.07-0.59,0.05-0.84c0.12-0.26,0.34-0.47,0.63-0.57l0.01,0c0.28-0.1,0.58-0.07,0.84,0.05 c0.26,0.12,0.47,0.34,0.57,0.63c0.04,0.13,0.13,0.24,0.25,0.35l0.01,0.01c0.13,0.12,0.31,0.22,0.5,0.3 c0.18,0.08,0.39,0.14,0.61,0.18l0.02,0.01c0.21,0.04,0.44,0.07,0.67,0.07c0.24,0.01,0.48-0.01,0.71-0.04 c0.23-0.03,0.45-0.09,0.65-0.16c0.25-0.09,0.47-0.2,0.65-0.35c0.15-0.12,0.27-0.27,0.34-0.43c0.12-0.28,0.34-0.49,0.61-0.6 c0.26-0.11,0.57-0.11,0.85,0.01c0.28,0.12,0.49,0.34,0.6,0.61c0.11,0.26,0.11,0.57-0.01,0.85c-0.2,0.48-0.51,0.88-0.89,1.21 c-0.4,0.35-0.89,0.62-1.41,0.81c-0.33,0.12-0.68,0.2-1.04,0.26l-0.01,0c-0.36,0.05-0.73,0.08-1.1,0.07 c-0.37-0.01-0.74-0.05-1.1-0.12c-0.35-0.07-0.7-0.18-1.01-0.31c-0.48-0.2-0.91-0.47-1.26-0.81C37.22,70.59,36.97,70.21,36.81,69.75 L36.81,69.75L36.81,69.75z M40.74,114.11c2.15-3.91,4.72-6.89,7.5-9.07c3.21-2.51,6.7-3.95,10.18-4.5c1.65-0.26,3.29-0.32,4.9-0.21 c1.66,0.12,3.28,0.44,4.82,0.92c1.52,0.48,2.98,1.12,4.33,1.91c1.35,0.79,2.6,1.72,3.71,2.78c0.64,0.62,1.24,1.27,1.79,1.96 c0.35,0.45,0.68,0.91,0.99,1.39c-0.02-2.07-0.17-3.98-0.49-5.73c-0.35-1.88-0.91-3.58-1.74-5.1c-0.82-1.5-1.92-2.85-3.36-4.06 c-1.45-1.21-3.25-2.28-5.46-3.21c-1.02-0.43-2.8-0.8-4.83-1.12c-2.03-0.32-4.34-0.6-6.38-0.84c-1.56-0.19-2.98-0.36-4.1-0.54 c-1.14-0.19-1.97-0.4-2.32-0.67c-0.31-0.24-0.58-0.51-0.8-0.82c-0.22-0.3-0.41-0.64-0.55-1.01c-0.12-0.31-0.22-0.65-0.28-1.01 c-0.06-0.35-0.1-0.72-0.11-1.11c-0.11-1.26-0.01-2.88-0.01-4.17c-1.25,0.7-2.55,1.28-3.94,1.64c-1.53,0.41-3.16,0.56-4.95,0.34 c-0.29-0.04-0.58-0.08-0.89-0.14c-0.29-0.06-0.6-0.13-0.92-0.21c-0.31-0.08-0.63-0.17-0.94-0.27c-0.31-0.1-0.62-0.21-0.93-0.34 l-0.1-0.04c-0.5-0.24-1.01-0.51-1.52-0.79c-0.38-0.21-0.76-0.43-1.13-0.65c0,1.49,0.08,3.16-0.01,4.63 c-0.01,0.39-0.05,0.76-0.11,1.11c-0.06,0.36-0.16,0.7-0.28,1.01c-0.14,0.37-0.33,0.7-0.55,1.01c-0.22,0.31-0.49,0.58-0.8,0.82 c-0.35,0.27-1.17,0.48-2.32,0.67c-1.12,0.19-2.54,0.36-4.1,0.54l-0.01,0c-4.06,0.49-9.17,1.1-11.21,1.96 c-2.22,0.93-4.02,2-5.47,3.21C6.91,95.62,5.82,96.97,5,98.47c-0.83,1.52-1.39,3.22-1.74,5.1c-0.35,1.89-0.49,3.96-0.49,6.21v0.23 c0.48-0.77,1.01-1.49,1.59-2.18c0.8-0.94,1.69-1.81,2.66-2.6c1.21-0.99,2.54-1.84,3.96-2.55c1.42-0.71,2.92-1.27,4.46-1.66 c1.57-0.4,3.2-0.63,4.85-0.67c1.6-0.04,3.21,0.1,4.81,0.43c3.27,0.68,6.47,2.19,9.3,4.65C36.84,107.56,39.03,110.43,40.74,114.11 L40.74,114.11z M80.67,122.88c-0.13,0.11-0.27,0.19-0.43,0.25l-0.01,0c-0.17,0.06-0.36,0.09-0.54,0.07l-77.93,0.17 c-0.13,0-0.26-0.02-0.38-0.05l-0.02-0.01c-0.1-0.03-0.2-0.07-0.29-0.12c-0.3-0.07-0.56-0.24-0.75-0.47 c-0.2-0.24-0.31-0.54-0.31-0.88v-12.06c0-2.46,0.16-4.73,0.57-6.83c0.4-2.11,1.05-4.04,2.01-5.8c0.97-1.79,2.26-3.38,3.94-4.8 c1.67-1.41,3.73-2.64,6.24-3.7c2.39-1,7.72-1.65,11.95-2.15l0.02,0c1.41-0.17,2.69-0.32,3.58-0.44c0.89-0.12,1.45-0.19,1.47-0.21 c0.1-0.08,0.19-0.17,0.27-0.28c0.08-0.11,0.15-0.23,0.2-0.37c0.06-0.16,0.11-0.34,0.15-0.53c0.03-0.2,0.05-0.41,0.06-0.63 c-0.13-1.98,0-4.38,0-6.41c-0.56-0.4-1.11-0.83-1.64-1.26c-0.55-0.44-1.08-0.9-1.6-1.38c-0.52-0.11-1.02-0.22-1.5-0.35 c-0.52-0.14-1.03-0.29-1.52-0.45c-3.66-1.21-6.69-3.11-9.15-5.52c-2.66-2.61-4.63-5.81-5.99-9.34c-1.26-3.27-1.98-6.82-2.22-10.45 c-0.25-3.8,0.02-7.68,0.76-11.41c0.17-0.88,0.38-1.75,0.6-2.62c0.23-0.87,0.48-1.72,0.75-2.55c0.38-1.16,0.82-2.3,1.31-3.41 c0.47-1.07,1-2.1,1.58-3.09c0.56-0.96,1.17-1.88,1.84-2.75c0.64-0.84,1.34-1.64,2.09-2.38c0.35-0.34,0.78-0.73,1.26-1.14 c0.53-0.45,1.12-0.93,1.73-1.4c0.68-0.53,1.37-1.05,2.01-1.51c0.67-0.48,1.29-0.92,1.79-1.24c0.09-0.06,0.18-0.1,0.27-0.14 c0.06-0.02,0.11-0.04,0.17-0.05c0.13-0.21,0.21-0.33,0.26-0.4c0.02-0.03,0.03-0.03,0.03-0.04l0,0c0,0-0.01,0.01-0.01,0 c0-0.08,0-0.22,0.03-0.52c0.33-2.89,1.25-5.31,2.59-7.29c1.47-2.17,3.43-3.81,5.69-4.95c1.29-0.65,2.67-1.14,4.11-1.46 C37.16,0.16,38.7,0,40.24,0c1.52,0,3.04,0.16,4.54,0.47c1.49,0.31,2.95,0.77,4.33,1.37c2.73,1.19,5.18,2.94,7.04,5.21 c1.71,2.08,2.91,4.6,3.38,7.51c0.03,0.16,0.02,0.32-0.01,0.47c-0.02,0.11-0.05,0.21-0.09,0.3c0.05,0.08,0.09,0.17,0.13,0.25 c0.04,0.09,0.09,0.19,0.12,0.28l0.07,0.03c0.06,0.03,0.12,0.06,0.18,0.1c0.49,0.32,1.07,0.72,1.69,1.17 c0.59,0.43,1.21,0.9,1.83,1.38c0.56,0.44,1.11,0.89,1.61,1.32c0.46,0.4,0.88,0.78,1.23,1.12c1.45,1.43,2.69,3.08,3.76,4.86 c1.15,1.92,2.09,4,2.84,6.15c0.81,2.33,1.41,4.76,1.82,7.18c0.44,2.64,0.66,5.26,0.69,7.74c0.03,2.21-0.13,4.37-0.5,6.46 c-0.36,2.05-0.91,4.03-1.66,5.93c-0.74,1.86-1.67,3.65-2.81,5.35c-1.11,1.66-2.42,3.23-3.93,4.71c-0.76,0.74-1.58,1.42-2.45,2.04 c-0.88,0.63-1.82,1.2-2.81,1.7c-0.97,0.5-1.98,0.93-3.01,1.29c-1.02,0.36-2.08,0.66-3.15,0.89c-0.21,0.19-0.42,0.38-0.64,0.56 c-0.23,0.19-0.47,0.38-0.71,0.56c-0.1,0.07-0.2,0.15-0.31,0.22c-0.72,0.53-1.44,1.05-2.16,1.55c0,1.88,0.1,4.03,0,5.88 c0.01,0.22,0.03,0.44,0.06,0.63c0.03,0.19,0.08,0.37,0.14,0.53c0.05,0.14,0.12,0.26,0.2,0.37c0.08,0.11,0.17,0.2,0.27,0.28 c0.02,0.02,0.58,0.09,1.47,0.21c0.89,0.12,2.17,0.27,3.59,0.44c2.1,0.25,4.48,0.54,6.65,0.89c2.17,0.35,4.11,0.76,5.31,1.27 c2.51,1.06,4.57,2.29,6.24,3.7c1.67,1.42,2.96,3.01,3.94,4.8c0.96,1.77,1.61,3.7,2.01,5.8c0.4,2.1,0.57,4.37,0.57,6.83v11.75 c0,0.33-0.12,0.64-0.31,0.88C81.21,122.64,80.96,122.81,80.67,122.88L80.67,122.88z M58.84,103.26c-3.33,0.53-6.7,2.01-9.75,4.64 c-2.73,2.36-5.21,5.65-7.21,10.03c-0.07,0.17-0.18,0.33-0.32,0.47c-0.13,0.13-0.29,0.23-0.48,0.3l-0.02,0.01 c-0.35,0.12-0.71,0.09-1.03-0.05c-0.31-0.15-0.57-0.42-0.7-0.77l0-0.01c-1.5-4.15-3.56-7.32-5.95-9.63 c-2.66-2.58-5.72-4.11-8.85-4.77c-1.39-0.29-2.8-0.41-4.19-0.37c-1.44,0.04-2.87,0.24-4.25,0.59c-1.36,0.35-2.68,0.84-3.91,1.46 c-1.24,0.62-2.4,1.37-3.46,2.23c-2.03,1.66-3.67,3.74-4.69,6.13c-0.92,2.15-1.33,4.55-1.08,7.12l75.71-0.17 c0.38-2.35,0.15-4.58-0.54-6.61c-0.76-2.24-2.09-4.24-3.82-5.89c-0.96-0.92-2.04-1.73-3.21-2.41c-1.17-0.68-2.43-1.24-3.75-1.66 c-1.35-0.42-2.77-0.7-4.22-0.81C61.71,102.98,60.28,103.04,58.84,103.26L58.84,103.26z M29.24,89.3c0.48,0,0.91,0.19,1.22,0.51 l0.01,0.02c0.3,0.31,0.49,0.74,0.49,1.21c0,0.48-0.19,0.91-0.51,1.22c-0.31,0.31-0.74,0.51-1.22,0.51c-0.48,0-0.91-0.19-1.22-0.51 c-0.31-0.31-0.51-0.74-0.51-1.22c0-0.48,0.19-0.91,0.51-1.22C28.33,89.49,28.76,89.3,29.24,89.3L29.24,89.3z M41.03,95.23 l2.55,2.55c0.1,0.1,0.1,0.26,0,0.35l-2.55,2.55c-0.1,0.1-0.26,0.1-0.35,0l-2.55-2.55c-0.1-0.1-0.1-0.26,0-0.35l2.55-2.55 C40.78,95.13,40.94,95.13,41.03,95.23L41.03,95.23z M41.38,97.95l-0.52-0.52l-0.52,0.52l0.52,0.52L41.38,97.95L41.38,97.95z M44.59,95.31c0.31-0.31,0.74-0.51,1.22-0.51c0.47,0,0.89,0.19,1.21,0.49l0.02,0.01c0.31,0.31,0.51,0.74,0.51,1.22 c0,0.48-0.19,0.91-0.51,1.22c-0.31,0.31-0.75,0.51-1.22,0.51c-0.48,0-0.91-0.19-1.22-0.51c-0.31-0.31-0.51-0.75-0.51-1.22 C44.08,96.06,44.28,95.63,44.59,95.31L44.59,95.31z M35.9,94.81c0.48,0,0.91,0.19,1.22,0.51c0.31,0.31,0.51,0.74,0.51,1.22 c0,0.48-0.19,0.91-0.51,1.22c-0.31,0.31-0.74,0.51-1.22,0.51c-0.48,0-0.91-0.19-1.22-0.51c-0.31-0.31-0.51-0.75-0.51-1.22 c0-0.48,0.19-0.91,0.51-1.22l0.02-0.01C35.01,95,35.43,94.81,35.9,94.81L35.9,94.81z M48.39,93.05c0.31-0.31,0.75-0.51,1.22-0.51 c0.48,0,0.91,0.19,1.22,0.51s0.51,0.74,0.51,1.22s-0.19,0.91-0.51,1.22C50.53,95.81,50.09,96,49.62,96s-0.91-0.19-1.22-0.51 c-0.31-0.31-0.51-0.75-0.51-1.22C47.89,93.8,48.08,93.36,48.39,93.05L48.39,93.05z M32.1,92.54c0.48,0,0.91,0.19,1.22,0.51 c0.31,0.31,0.51,0.74,0.51,1.22c0,0.48-0.19,0.91-0.51,1.22C33.01,95.81,32.57,96,32.1,96c-0.48,0-0.91-0.19-1.22-0.51 c-0.31-0.31-0.51-0.74-0.51-1.22s0.19-0.91,0.51-1.22C31.19,92.74,31.62,92.54,32.1,92.54L32.1,92.54z M51.25,89.8 c0.31-0.31,0.75-0.51,1.22-0.51c0.48,0,0.91,0.19,1.22,0.51c0.31,0.31,0.51,0.75,0.51,1.22c0,0.48-0.19,0.91-0.51,1.22 c-0.31,0.31-0.74,0.51-1.22,0.51c-0.47,0-0.89-0.19-1.21-0.49l-0.02-0.01c-0.31-0.31-0.51-0.74-0.51-1.22 C50.74,90.55,50.94,90.12,51.25,89.8L51.25,89.8z M56.01,13.35c0.14,0,0.28,0.01,0.42,0.02l0.02,0c-0.58-1.96-1.59-3.67-2.9-5.12 c-1.51-1.66-3.43-2.97-5.54-3.89c-1.21-0.53-2.49-0.93-3.79-1.2c-1.31-0.27-2.65-0.41-3.98-0.41c-1.33,0-2.65,0.14-3.92,0.42 c-1.23,0.28-2.41,0.69-3.51,1.24c-1.74,0.88-3.26,2.12-4.43,3.74c-1.03,1.43-1.79,3.15-2.17,5.19l0.09,0 c1.09,0,2.08,0.44,2.79,1.16c0.1,0.1,0.2,0.21,0.29,0.32l0-0.17c0-1.13,0.46-2.15,1.2-2.89s1.76-1.2,2.89-1.2 c1.13,0,2.15,0.46,2.89,1.2c0.36,0.36,0.66,0.79,0.86,1.27c0.06-0.99,0.49-1.89,1.15-2.55c0.71-0.72,1.7-1.16,2.79-1.16 s2.08,0.44,2.79,1.16l0.01,0.02c0.64,0.65,1.06,1.52,1.13,2.49c0.21-0.48,0.5-0.91,0.87-1.28c0.74-0.74,1.76-1.2,2.89-1.2 c1.13,0,2.15,0.46,2.89,1.2l0.01,0.02c0.73,0.74,1.18,1.75,1.18,2.87l-0.01,0.23c0.09-0.11,0.19-0.22,0.29-0.32 C53.93,13.79,54.92,13.35,56.01,13.35L56.01,13.35z M30.25,17.18l0,0.12c0,1.09-0.44,2.08-1.16,2.79c-0.72,0.72-1.7,1.16-2.79,1.16 c-0.9,0-1.74-0.3-2.4-0.81c-0.59-0.45-1.05-1.07-1.31-1.78c-0.3,0.21-0.61,0.44-0.93,0.68l-0.01,0.01c-0.4,0.3-0.81,0.61-1.21,0.92 c-0.57,0.45-1.12,0.89-1.6,1.3c-0.44,0.37-0.83,0.72-1.14,1.03c-0.66,0.65-1.27,1.36-1.84,2.11c-0.59,0.78-1.14,1.6-1.65,2.47 c-0.53,0.91-1.01,1.86-1.44,2.83c-0.45,1.02-0.85,2.07-1.21,3.15c-0.26,0.79-0.5,1.59-0.71,2.39c-0.21,0.8-0.4,1.62-0.56,2.45 c-0.69,3.5-0.95,7.13-0.72,10.66c0.22,3.38,0.89,6.67,2.04,9.68c1.17,3.04,2.85,5.81,5.09,8.08c1.87,1.91,4.14,3.47,6.82,4.58 c-0.35-0.46-0.68-0.92-1-1.4c-0.47-0.7-0.89-1.42-1.26-2.14c-0.21-0.4-0.55-1.29-0.96-2.49c-0.37-1.09-0.81-2.45-1.27-3.96 c-1.21-0.16-2.32-0.57-3.28-1.14c-1.09-0.65-1.98-1.52-2.6-2.47c-0.27-0.4-0.49-0.82-0.65-1.25c-0.17-0.42-0.28-0.86-0.35-1.29 c-0.07-0.46-0.07-0.93-0.01-1.38c0.06-0.44,0.19-0.87,0.39-1.28c0.31-0.66,0.8-1.26,1.48-1.75c0.57-0.41,1.28-0.75,2.14-0.99 c-0.14-0.77-0.26-1.51-0.34-2.21c-0.09-0.72-0.16-1.4-0.18-2.01c-0.05-1.16,0.04-2.14,0.32-2.89c0.27-0.72,0.71-1.23,1.34-1.47 l0.03-0.01c0.1-0.04,0.21-0.07,0.32-0.09l0.01,0c0.1-0.02,0.22-0.03,0.33-0.03l0.11,0c1.8,0.08,3.58,0.04,5.31-0.12 c1.67-0.16,3.29-0.43,4.87-0.84c1.49-0.38,2.94-0.89,4.32-1.52c1.33-0.61,2.6-1.34,3.8-2.2c0.34-0.25,1.1-0.94,1.91-1.69l0.01-0.01 c1.56-1.44,3.31-3.05,4.26-3.05c0.98,0,3,1.66,4.45,2.85l0.02,0.01c0.45,0.37,0.83,0.68,1.07,0.86c1.07,0.78,2.13,1.48,3.17,2.1 c1.05,0.62,2.08,1.17,3.11,1.64c1.01,0.46,2.02,0.85,3.03,1.16c1.01,0.31,2.01,0.54,3.02,0.7c0.33,0.05,0.87,0.05,1.45,0.04h0.04 c0.81-0.01,1.67-0.01,2.43,0.12c0.81,0.13,1.51,0.41,1.92,0.99c0.11,0.16,0.22,0.36,0.3,0.59c0.08,0.22,0.14,0.46,0.17,0.72 c0.03,0.2,0.04,0.41,0.05,0.65c0,0.21-0.01,0.44-0.03,0.67c-0.09,0.81-0.19,1.67-0.32,2.55c-0.11,0.79-0.25,1.61-0.39,2.45 c0.9,0.23,1.64,0.57,2.24,0.99c0.71,0.5,1.22,1.11,1.54,1.79c0.2,0.41,0.32,0.84,0.39,1.28c0.06,0.45,0.06,0.92-0.01,1.38 c-0.06,0.43-0.18,0.86-0.35,1.29c-0.17,0.42-0.39,0.84-0.65,1.25c-0.64,0.97-1.56,1.86-2.68,2.51c-0.99,0.58-2.13,0.98-3.38,1.11 c-0.18,0.55-0.37,1.09-0.56,1.61c-0.21,0.57-0.42,1.13-0.65,1.68c-0.59,1.47-1.24,2.89-1.94,4.22c-0.53,1-1.09,1.96-1.69,2.86 l0.5-0.21c0.41-0.18,0.81-0.37,1.2-0.57c0.86-0.44,1.68-0.94,2.45-1.49c0.76-0.54,1.48-1.14,2.14-1.78 c1.37-1.33,2.55-2.76,3.56-4.25c1.03-1.53,1.87-3.15,2.54-4.84c0.69-1.74,1.19-3.55,1.51-5.42c0.33-1.92,0.48-3.9,0.46-5.92 c-0.03-2.33-0.24-4.81-0.65-7.29c-0.38-2.28-0.94-4.56-1.7-6.75c-0.69-1.97-1.54-3.86-2.58-5.6c-0.96-1.61-2.08-3.08-3.37-4.36 c-0.31-0.31-0.69-0.65-1.11-1.01c-0.46-0.4-0.97-0.81-1.48-1.21c-0.41-0.32-0.83-0.64-1.24-0.95c-0.34-0.25-0.67-0.49-0.98-0.71 c-0.31,0.61-0.77,1.14-1.33,1.52c-0.63,0.43-1.39,0.67-2.21,0.67c-1.09,0-2.08-0.44-2.79-1.16l-0.01-0.02 c-0.71-0.71-1.14-1.69-1.14-2.78l0-0.18c-0.1,0.13-0.21,0.25-0.33,0.37c-0.74,0.74-1.76,1.2-2.89,1.2c-1.13,0-2.15-0.46-2.89-1.2 c-0.68-0.68-1.12-1.6-1.19-2.62c-0.2,0.45-0.48,0.86-0.83,1.21c-0.71,0.71-1.7,1.16-2.79,1.16s-2.08-0.44-2.79-1.16 c-0.34-0.34-0.62-0.75-0.82-1.2c-0.05,1.04-0.5,1.98-1.19,2.67c-0.74,0.74-1.76,1.2-2.89,1.2c-1.13,0-2.15-0.46-2.89-1.2 C30.46,17.43,30.35,17.3,30.25,17.18L30.25,17.18z M63.9,58.65c0.66-0.18,1.26-0.46,1.8-0.81l0.01-0.01 c0.68-0.45,1.24-1.01,1.64-1.63c0.17-0.27,0.32-0.54,0.43-0.82c0.11-0.27,0.18-0.54,0.22-0.81c0.04-0.25,0.04-0.5,0.01-0.74 c-0.03-0.23-0.09-0.44-0.19-0.65c-0.17-0.36-0.46-0.69-0.87-0.97c-0.35-0.23-0.78-0.43-1.31-0.58c-0.24,1.19-0.52,2.42-0.83,3.66 C64.53,56.42,64.23,57.54,63.9,58.65L63.9,58.65z M16.59,51.68c-0.49,0.15-0.89,0.34-1.21,0.57c-0.39,0.27-0.67,0.59-0.83,0.94 c-0.1,0.2-0.16,0.42-0.19,0.65c-0.03,0.24-0.03,0.49,0.01,0.74c0.04,0.27,0.11,0.54,0.22,0.81c0.11,0.28,0.25,0.55,0.43,0.82 c0.39,0.6,0.94,1.15,1.6,1.6c0.51,0.34,1.09,0.62,1.72,0.81c-0.31-1.1-0.62-2.26-0.92-3.41c-0.3-1.18-0.58-2.36-0.82-3.5 L16.59,51.68L16.59,51.68z M25.43,53.84c-0.15-0.16-0.25-0.35-0.29-0.55c-0.05-0.28,0-0.58,0.17-0.84l0-0.01 c0.17-0.25,0.43-0.41,0.71-0.47c0.28-0.05,0.58,0,0.83,0.17l0,0c0.69,0.46,1.73,0.66,2.79,0.65c1.16-0.01,2.32-0.28,3.09-0.72 l0.04-0.02c0.26-0.14,0.56-0.17,0.82-0.1c0.27,0.07,0.51,0.24,0.67,0.5l0.02,0.04c0.14,0.26,0.17,0.56,0.1,0.82 c-0.05,0.2-0.16,0.39-0.32,0.53l0.53,0.58c0.2,0.23,0.29,0.51,0.28,0.79c-0.01,0.28-0.13,0.56-0.35,0.76l-0.02,0.02 c-0.23,0.2-0.51,0.29-0.79,0.28c-0.28-0.01-0.56-0.13-0.76-0.35l-1.05-1.16c-0.17,0.04-0.34,0.08-0.51,0.11l-0.02,0 c-0.14,0.03-0.29,0.05-0.43,0.07v0.95c0,0.31-0.13,0.59-0.33,0.79c-0.2,0.2-0.48,0.33-0.79,0.33s-0.59-0.13-0.79-0.33l-0.02-0.02 c-0.19-0.2-0.31-0.47-0.31-0.77v-0.91c-0.19-0.02-0.38-0.04-0.57-0.07c-0.2-0.03-0.41-0.07-0.6-0.12l-0.87,1.08 c-0.19,0.24-0.47,0.38-0.75,0.41c-0.28,0.03-0.58-0.05-0.82-0.24c-0.24-0.19-0.38-0.47-0.41-0.75c-0.03-0.28,0.05-0.58,0.24-0.82 L25.43,53.84L25.43,53.84z M56.67,53.77l0.6,0.66c0.2,0.23,0.29,0.51,0.28,0.79c-0.01,0.28-0.13,0.56-0.35,0.76l-0.02,0.02 c-0.22,0.2-0.51,0.29-0.79,0.28c-0.29-0.01-0.57-0.14-0.77-0.36l-1.09-1.2c-0.16,0.04-0.32,0.07-0.48,0.1 c-0.14,0.03-0.29,0.05-0.43,0.07v0.99c0,0.31-0.13,0.59-0.33,0.79c-0.2,0.2-0.48,0.33-0.79,0.33c-0.31,0-0.59-0.13-0.79-0.33 l-0.02-0.02c-0.19-0.2-0.31-0.47-0.31-0.77v-0.95c-0.18-0.02-0.37-0.04-0.55-0.07c-0.2-0.03-0.4-0.07-0.59-0.12l-0.9,1.11 c-0.19,0.24-0.46,0.38-0.75,0.41c-0.28,0.03-0.58-0.05-0.82-0.24c-0.24-0.19-0.38-0.47-0.41-0.75c-0.03-0.28,0.05-0.58,0.24-0.82 l0.55-0.67c-0.13-0.15-0.22-0.34-0.25-0.53c-0.05-0.27,0-0.57,0.17-0.82c0.17-0.26,0.43-0.42,0.71-0.47c0.28-0.05,0.58,0,0.84,0.17 c0.3,0.2,0.71,0.36,1.18,0.46c0.49,0.11,1.05,0.16,1.63,0.15c0.55-0.01,1.11-0.08,1.63-0.21c0.47-0.12,0.91-0.3,1.28-0.53 c0.26-0.16,0.56-0.21,0.84-0.15c0.27,0.06,0.52,0.22,0.68,0.47l0.02,0.04c0.16,0.26,0.2,0.55,0.14,0.82 C56.95,53.42,56.84,53.62,56.67,53.77L56.67,53.77z M49.43,48.99c-0.25,0.18-0.55,0.24-0.83,0.19c-0.28-0.05-0.54-0.2-0.72-0.45 c-0.18-0.25-0.24-0.55-0.19-0.83c0.05-0.28,0.2-0.54,0.45-0.72c0.83-0.59,1.68-1.04,2.54-1.34c0.85-0.3,1.72-0.45,2.6-0.46 c0.88,0,1.76,0.14,2.64,0.44c0.87,0.3,1.74,0.74,2.61,1.35c0.25,0.17,0.41,0.44,0.46,0.72l0,0.01c0.05,0.28-0.01,0.57-0.18,0.82 c-0.17,0.25-0.44,0.41-0.72,0.46l-0.01,0c-0.28,0.05-0.57-0.01-0.82-0.18c-0.68-0.47-1.35-0.82-2.02-1.05 c-0.66-0.23-1.31-0.34-1.95-0.34c-0.63,0-1.27,0.12-1.91,0.35C50.73,48.18,50.08,48.53,49.43,48.99L49.43,48.99z M25.15,48.99 c-0.25,0.18-0.55,0.24-0.83,0.19c-0.28-0.05-0.54-0.2-0.72-0.45c-0.18-0.25-0.24-0.55-0.19-0.83c0.05-0.28,0.2-0.54,0.45-0.72 c0.83-0.59,1.68-1.04,2.54-1.34c0.85-0.3,1.72-0.45,2.6-0.46c0.88,0,1.75,0.14,2.63,0.44c0.87,0.3,1.74,0.75,2.61,1.35 c0.25,0.17,0.41,0.44,0.46,0.72l0,0.01c0.05,0.28-0.01,0.57-0.18,0.82c-0.17,0.25-0.44,0.41-0.72,0.46l-0.01,0 c-0.28,0.05-0.57-0.01-0.82-0.18c-0.68-0.47-1.35-0.82-2.02-1.05C30.3,47.71,29.64,47.6,29,47.6c-0.63,0-1.27,0.12-1.91,0.35 C26.45,48.18,25.8,48.53,25.15,48.99L25.15,48.99z M28.95,42.48c-1.69,0.43-3.42,0.73-5.19,0.9c-1.78,0.17-3.58,0.22-5.41,0.16 l-0.01,0.31c0,0.32,0.01,0.76,0.03,1.29c0.03,0.74,0.13,1.62,0.28,2.58c0.16,1.05,0.38,2.2,0.63,3.4c0.59,2.76,1.39,5.75,2.15,8.34 c0.98,3.33,1.9,6.01,2.29,6.76c0.6,1.17,1.35,2.31,2.21,3.41c0.92,1.16,1.96,2.27,3.09,3.3c1.2,1.1,2.49,2.12,3.82,3.03 c1.37,0.94,2.79,1.76,4.17,2.44c0.26,0.1,0.51,0.19,0.76,0.27c0.26,0.08,0.5,0.15,0.73,0.21c0.24,0.06,0.48,0.12,0.72,0.16 c0.24,0.04,0.48,0.08,0.73,0.11c2.27,0.28,4.31-0.24,6.24-1.16c1.95-0.93,3.79-2.27,5.63-3.62l0.29-0.21 c1.41-1.03,2.69-2.47,3.84-4.2c1.29-1.93,2.43-4.21,3.41-6.66c1.18-2.93,2.13-6.07,2.87-9.12c0.89-3.65,1.47-7.18,1.78-10.05 c0.01-0.12,0.02-0.24,0.02-0.34c0-0.11-0.01-0.21-0.02-0.3l-0.01-0.1c-0.18-0.02-1.15,0.05-2.06,0.06h-0.06 c-0.71,0-1.37,0.01-1.85-0.06c-1.13-0.17-2.26-0.44-3.39-0.78c-1.13-0.35-2.26-0.78-3.4-1.3c-1.12-0.51-2.24-1.1-3.37-1.77 c-1.13-0.67-2.26-1.42-3.39-2.24c-0.23-0.17-0.67-0.53-1.19-0.96l-0.04-0.03c-1.12-0.92-2.68-2.2-2.69-2.2 c-0.09,0-0.24,0.3-0.7,0.74c-0.49,0.46-1.13,1.06-1.7,1.58l-0.01,0.01c-0.86,0.79-1.65,1.52-2.17,1.89 c-1.34,0.96-2.76,1.78-4.24,2.46C32.22,41.49,30.61,42.05,28.95,42.48L28.95,42.48z"/></g></svg>