<?xml version="1.0" encoding="utf-8"?><svg version="1.1" id="Layer_1" xmlns="http://www.w3.org/2000/svg" xmlns:xlink="http://www.w3.org/1999/xlink" x="0px" y="0px" viewBox="0 0 80.08 122.88" style="enable-background:new 0 0 80.08 122.88" xml:space="preserve"><g><path d="M70.04,95.5c-0.01-0.82,0.65-1.5,1.48-1.51c0.82-0.01,1.5,0.65,1.51,1.48c0.02,1.49-0.18,2.91-0.55,4.26 c-0.37,1.35-0.91,2.63-1.59,3.85c-0.4,0.72-1.31,0.98-2.03,0.58c-0.72-0.4-0.98-1.31-0.58-2.03c0.57-1.02,1.02-2.08,1.32-3.18 C69.9,97.85,70.06,96.71,70.04,95.5L70.04,95.5z M25.69,74.87c1.01,0.48,1.72,1.63,1.72,2.97c0,1.77-1.23,3.21-2.75,3.21 c-1.52,0-2.75-1.44-2.75-3.21c0-1.38,0.75-2.56,1.8-3.01l-0.08,0.01c-2.28,0.21-4.36,1.26-6.23,3.18c-0.58,0.59-1.52,0.6-2.11,0.03 c-0.59-0.58-0.6-1.52-0.03-2.11c2.39-2.45,5.09-3.79,8.1-4.06c2.93-0.27,6.1,0.5,9.5,2.28c0.73,0.38,1.01,1.28,0.63,2.01 c-0.38,0.73-1.28,1.01-2.01,0.63C29.41,75.71,27.48,75.07,25.69,74.87L25.69,74.87z M51.83,74.49c-1.01,0.48-1.72,1.63-1.72,2.97 c0,1.77,1.23,3.21,2.75,3.21s2.75-1.43,2.75-3.21c0-1.38-0.75-2.56-1.8-3.01l0.08,0.01c2.28,0.21,4.35,1.26,6.23,3.18 c0.58,0.59,1.52,0.6,2.11,0.03c0.59-0.58,0.6-1.52,0.03-2.11c-2.39-2.45-5.09-3.79-8.1-4.07c-2.93-0.27-6.1,0.5-9.5,2.28 c-0.73,0.38-1.01,1.28-0.63,2.01c0.38,0.73,1.28,1.01,2.01,0.63C48.11,75.33,50.04,74.69,51.83,74.49L51.83,74.49z M3.97,78.92 c-0.07-0.11-0.13-0.23-0.18-0.36c-1.92-5.81-3.27-11.52-3.67-17.07c-0.41-5.61,0.16-11.03,2.07-16.2 c2.44-6.57,7.39-12.73,13.48-17.4c1.69-1.3,3.47-2.48,5.31-3.53c-2.7-4.25-3.37-8.16-2.61-11.57c0.65-2.9,2.33-5.39,4.67-7.38 c2.26-1.92,5.15-3.39,8.32-4.3c6.85-1.99,15.07-1.44,21.03,2.48c2.34,1.54,4.5,3.35,6.05,5.55c1.61,2.29,2.56,4.97,2.39,8.15 c-0.08,1.52-0.44,3.02-1.06,4.52c-0.38,0.92-0.85,1.83-1.41,2.74c6.56,3.55,12.3,8.65,16.02,14.5c3.24,5.11,5.15,10.96,5.59,17.63 c0.43,6.59-0.58,13.96-3.17,22.2c-0.14,0.45-0.48,0.79-0.89,0.95c0.06,0.21,0.11,0.42,0.15,0.63c0.36,1.76,0.19,3.5-0.38,5.07 c-0.57,1.57-1.55,2.97-2.81,4.06c-1.94,1.66-4.57,2.59-7.48,2.26c-0.17,0.37-0.34,0.74-0.52,1.11c-0.76,1.57-1.65,3.13-2.63,4.66 l0.99,4.19l8.31,14.47l0,0c0.04,0.08,0.08,0.16,0.11,0.25c0.52,1.48,0.32,2.85-0.28,3.94c-0.39,0.71-0.96,1.29-1.61,1.7 c-0.66,0.42-1.43,0.67-2.2,0.7c-1.14,0.06-2.29-0.33-3.2-1.29l0,0c-0.03-0.04-0.06-0.07-0.09-0.11l-9.99-12.91 c-0.07-0.05-0.13-0.11-0.18-0.18l-0.99-0.68c-0.33,0.25-0.68,0.49-1.03,0.73c-0.58,0.4-1.16,0.76-1.72,1.08 c-1.01,0.57-2.07,1.07-3.2,1.48c-1.13,0.41-2.32,0.73-3.58,0.94c-1.51,0.26-3.05,0.38-4.62,0.32c-1.58-0.05-3.17-0.28-4.79-0.71 l0,0c-0.05-0.01-0.09-0.03-0.14-0.04c-7.93-2.95-14.03-8.38-18.17-16.34c-0.55-1.06-1.07-2.17-1.55-3.32 c-2.95,0.36-5.61-0.57-7.57-2.25c-1.27-1.09-2.24-2.49-2.81-4.06c-0.57-1.57-0.74-3.31-0.38-5.07C3.63,79.95,3.78,79.43,3.97,78.92 L3.97,78.92z M28.35,21.06c2.52-0.85,5.08-1.41,7.62-1.65c0.24-0.02,0.48-0.04,0.71-0.06c1.01-0.08,2.01-0.11,3.02-0.1 c4.04,0.05,8.06,0.83,12.05,2.35c1.34,0.47,2.65,1.01,3.95,1.61c0.54-0.84,0.99-1.69,1.33-2.53c0.48-1.18,0.77-2.36,0.83-3.54 c0.14-2.43-0.6-4.49-1.85-6.26c-1.31-1.86-3.19-3.43-5.24-4.78c-5.2-3.42-12.46-3.88-18.56-2.11c-2.77,0.8-5.28,2.07-7.22,3.72 c-1.86,1.58-3.19,3.52-3.69,5.75c-0.61,2.7,0,5.9,2.33,9.49C25.21,22.21,26.78,21.58,28.35,21.06L28.35,21.06z M74.38,76.6 c2.16-7.32,3-13.88,2.62-19.74c-0.4-6.14-2.15-11.52-5.13-16.21c-3.6-5.67-9.28-10.59-15.74-13.91c-0.25,0.01-0.51-0.05-0.74-0.18 l0,0c-1.63-0.88-3.26-1.62-4.88-2.24c-4.47-1.55-9.11-2.3-13.55-2c-2.79,0.22-5.59,0.83-8.4,1.82c-3.87,1.4-7.65,3.51-11.06,6.12 C11.84,34.61,7.25,40.3,5.01,46.34c-1.76,4.74-2.27,9.75-1.9,14.94C3.45,65.91,4.49,70.7,6,75.6c0.92-1.06,2.11-2.05,3.58-2.94 c0.09-0.05,0.18-0.1,0.27-0.13c-0.17-1.91-0.29-3.89-0.36-5.94c-0.74,0.16-1.48,0.31-2.23,0.45c-0.81,0.15-1.59-0.38-1.74-1.19 c-0.15-0.81,0.38-1.59,1.19-1.74c8.01-1.52,15.12-3.78,20.7-7.3c5.46-3.44,9.48-8.11,11.44-14.52c0.24-0.79,1.08-1.23,1.87-0.99 c0.56,0.17,0.94,0.64,1.03,1.18l0,0c1.06,6.19,4.39,10.91,9.61,14.42c5.36,3.61,12.72,5.96,21.65,7.33 c0.82,0.12,1.38,0.89,1.26,1.7c-0.12,0.82-0.89,1.38-1.7,1.26c-0.92-0.14-1.82-0.29-2.71-0.45c-0.04,2.02-0.12,3.93-0.24,5.76 c0.14,0.04,0.27,0.09,0.4,0.17C71.94,73.83,73.38,75.18,74.38,76.6L74.38,76.6z M66.88,66.14c-6.84-1.5-12.64-3.71-17.19-6.76 c-4.58-3.08-7.88-7-9.7-11.9c-2.46,4.99-6.24,8.85-11,11.86c-4.67,2.94-10.29,5.05-16.54,6.59c0.31,11.51,2.36,20.78,6.04,27.86 c3.78,7.26,9.3,12.2,16.47,14.89c1.38,0.36,2.74,0.55,4.07,0.6c1.35,0.05,2.7-0.06,4.04-0.29c1.08-0.18,2.09-0.45,3.05-0.8 c0.96-0.35,1.87-0.77,2.74-1.27c0.53-0.3,1.04-0.62,1.53-0.95l0.09-0.06l-3.64-2.5c-1.62-1.11-2.6-2.23-2.95-3.67 c-0.35-1.41-0.04-2.94,0.93-4.87c0.97-1.93,2.63-3.6,4.68-4.71c1.93-1.05,4.23-1.61,6.61-1.46c4.16,0.27,4.25,0.7,4.94,3.79 c0.02,0.1,0.05,0.21,0.18,0.76l0.04,0.18c0.33-0.59,0.63-1.19,0.92-1.78c0.76-1.55,1.39-3.09,1.86-4.56 c0.94-2.9,1.64-6.12,2.11-9.74C66.58,73.99,66.82,70.28,66.88,66.14L66.88,66.14z M10.21,75.83c-2.23,1.59-3.4,3.43-3.76,5.23 c-0.24,1.2-0.13,2.39,0.26,3.47c0.39,1.08,1.07,2.05,1.95,2.8c1.19,1.02,2.76,1.64,4.52,1.61C11.83,85.03,10.83,80.66,10.21,75.83 L10.21,75.83z M69.33,75.79c-0.07,0.66-0.14,1.3-0.23,1.93c-0.49,3.83-1.23,7.22-2.22,10.28c-0.1,0.31-0.21,0.62-0.32,0.93 c1.69-0.01,3.2-0.62,4.36-1.61c0.88-0.75,1.55-1.72,1.95-2.8c0.39-1.08,0.51-2.27,0.26-3.47C72.77,79.24,71.59,77.38,69.33,75.79 L69.33,75.79z M48.51,100.94l6.71,4.6l4.96-3.59l-1.89-8.01l-0.18-0.8c-0.26-1.16-0.29-1.33-2.21-1.45 c-1.8-0.12-3.54,0.31-5.01,1.1c-1.51,0.82-2.73,2.02-3.42,3.41c-0.63,1.27-0.87,2.16-0.7,2.82 C46.93,99.65,47.52,100.25,48.51,100.94L48.51,100.94z M57.37,107.68l1.27,1.64l3.86-2.77l-1.05-1.83L57.37,107.68L57.37,107.68z M60.47,111.69l6.1,7.88c0.24,0.24,0.55,0.34,0.84,0.32c0.26-0.01,0.52-0.1,0.75-0.25c0.24-0.15,0.45-0.37,0.6-0.62 c0.2-0.36,0.27-0.83,0.11-1.37l-4.88-8.49L60.47,111.69L60.47,111.69z M65.1,94.81c-0.01-0.82,0.65-1.5,1.48-1.51 c0.82-0.01,1.5,0.65,1.51,1.48c0.01,1.19-0.14,2.33-0.44,3.41c-0.3,1.08-0.73,2.1-1.27,3.07c-0.4,0.72-1.31,0.98-2.03,0.58 c-0.72-0.4-0.98-1.31-0.58-2.03c0.43-0.77,0.77-1.57,1-2.4C64.99,96.58,65.11,95.72,65.1,94.81L65.1,94.81z"/></g></svg>