<svg id="Layer_1" data-name="Layer 1" xmlns="http://www.w3.org/2000/svg" viewBox="0 0 85.11 122.88"><defs><style>.cls-1{fill-rule:evenodd;}</style></defs><title>women-hair-care</title><path class="cls-1" d="M61.44,48c13.27-16.35-2-46.13-18.93-45.74-24.82-8.38-38.78,8-41.82,27C-1.45,42.57,1,59.09,13.61,66.31,17.85,72,22,75.76,26.07,78c4.84,2.65,9.46,3.06,13.73,1.74a18.37,18.37,0,0,0,3.6-1.57c-.74,18.94,4.58,33.93,21.44,37.92-3.16-3.38-3.47-7.71-2.23-12,1.91-6.55,5.55-8.32,7.66-12.8A20.72,20.72,0,0,0,72,83.18C71.6,74.69,65.41,66,58.22,58.53A73.12,73.12,0,0,0,61.41,48.4l0-.24V48Zm6.92,61.44v.12a3.76,3.76,0,0,1,3.81,3.56h.12a3.57,3.57,0,0,1,1-2.62,3.53,3.53,0,0,1,2.54-1.19v-.13a3.5,3.5,0,0,1-2.62-1A3.54,3.54,0,0,1,72,105.6h-.12a3.52,3.52,0,0,1-1,2.62,3.6,3.6,0,0,1-2.55,1.2ZM72.85,97v.2A6.17,6.17,0,0,1,79.09,103h.2a6.17,6.17,0,0,1,5.82-6.24v-.2a5.76,5.76,0,0,1-4.29-1.66,5.82,5.82,0,0,1-2-4.16h-.2A6.15,6.15,0,0,1,72.85,97Zm-18.5,19.94,0,.15a4.8,4.8,0,0,0-3.27,5.77l-.15,0a4.8,4.8,0,0,0-5.77-3.27l0-.15a4.78,4.78,0,0,0,3.27-5.77l.15,0a4.8,4.8,0,0,0,5.77,3.27ZM39.08,89.57l.05.18a5.94,5.94,0,0,0-4,7.13l-.18.05a5.94,5.94,0,0,0-7.13-4l-.05-.18a5.94,5.94,0,0,0,4-7.13l.18,0a5.94,5.94,0,0,0,7.13,4Zm2.39,17.77.06.24A7.86,7.86,0,0,0,36.19,117l-.25.06a7.35,7.35,0,0,0-3.64-4.56,7.39,7.39,0,0,0-5.79-.79l-.06-.24a7.84,7.84,0,0,0,5.34-9.43L32,102a7.86,7.86,0,0,0,9.44,5.34ZM28.1,68.81a.86.86,0,0,1-.17-1.33,1.25,1.25,0,0,1,1.56-.15c2.82,1.94,6,2.34,8.7.06a1.24,1.24,0,0,1,1.56,0,.85.85,0,0,1,0,1.34c-3.52,3-7.94,2.59-11.63.06Zm.46-28.3a7.3,7.3,0,0,0,1.07.08.94.94,0,0,1,1,.91,1,1,0,0,1-.89,1,15.93,15.93,0,0,1-3.16-.39l-1.18-.21A43.47,43.47,0,0,1,10,44.22c-1.19.68-1.56,2.19-1.07,4.91.58,3.27,2.38,8.06,5.45,14.86C18.68,70,22.93,74,27,76.23a15.39,15.39,0,0,0,12.25,1.59c3.82-1.19,7.33-3.95,10.39-7.83C54,64.46,57.41,56.7,59.5,48a22,22,0,0,0-4.83-14.19c-3-3.7-7.17-6.67-12.27-9.11A28.56,28.56,0,0,1,30.58,39.39c-.65.4-1.33.77-2,1.12Zm21.31,5a1,1,0,0,1,.56,1.19.81.81,0,0,1-1,.65,10.53,10.53,0,0,0-2.63-.54,1.69,1.69,0,1,1-3.25.28c-.29.07-.57.16-.86.26a.81.81,0,0,1-1-.65,1,1,0,0,1,.56-1.18,11.89,11.89,0,0,1,3.8-.64,11.72,11.72,0,0,1,3.85.63Zm-28.77,2a.79.79,0,0,1-1-.59,1,1,0,0,1,.51-1.21,9.82,9.82,0,0,1,3.87-.74,11.35,11.35,0,0,1,3.84.73,1,1,0,0,1,.53,1.2.81.81,0,0,1-1,.62c-.28-.11-.56-.2-.84-.28a2,2,0,0,1,0,.34,1.69,1.69,0,1,1-3.38,0,1.81,1.81,0,0,1,.14-.69,9.05,9.05,0,0,0-2.63.62Zm30-6.86A1,1,0,0,1,51.25,42a.92.92,0,0,1-1.31.13c-1.23-1-3.79-.57-6-.17a15.93,15.93,0,0,1-3.16.39.94.94,0,0,1-.89-1,.92.92,0,0,1,1-.91,15.33,15.33,0,0,0,2.77-.36c2.58-.48,5.59-1,7.5.57Zm-20,19.63a.87.87,0,0,1-.08-1.35,1.25,1.25,0,0,1,1.57-.06,1.6,1.6,0,0,0,1.28.37,1.8,1.8,0,0,0,1.32-.39,1.24,1.24,0,0,1,1.56.1.86.86,0,0,1-.12,1.34,4.1,4.1,0,0,1-2.75.85,3.84,3.84,0,0,1-2.78-.86Z"/></svg>