<?xml version="1.0" encoding="utf-8"?><svg version="1.1" id="Layer_1" xmlns="http://www.w3.org/2000/svg" xmlns:xlink="http://www.w3.org/1999/xlink" x="0px" y="0px" viewBox="0 0 76.24 122.88" style="enable-background:new 0 0 76.24 122.88" xml:space="preserve"><style type="text/css"><![CDATA[
	.st0{fill-rule:evenodd;clip-rule:evenodd;}
]]></style><g><path class="st0" d="M65.19,50.62C78.98,33.27,62.84,1.97,45.01,2.38C18.73-6.49,3.95,10.86,0.73,30.93 c-2.25,14.03,0.31,31.34,13.36,39.08c4.57,6.18,9.09,10.29,13.44,12.67c5.16,2.83,10.09,3.26,14.65,1.85 c1.29-0.4,2.54-0.95,3.76-1.63c-0.74,19.97,4.91,35.76,22.71,39.98c-3.36-3.58-3.68-8.16-2.37-12.67 c2.03-6.93,5.88-8.81,8.11-13.55c1.12-2.37,1.71-5.24,1.84-8.6c-0.43-8.95-6.92-18.15-14.48-25.98c1.35-3.39,2.5-7.02,3.41-10.81 c0.02-0.09,0.03-0.19,0.03-0.29L65.19,50.62L65.19,50.62z M29.75,72.85c-0.5-0.35-0.58-0.98-0.18-1.41c0.4-0.43,1.14-0.5,1.65-0.16 c2.99,2.05,6.33,2.47,9.21,0.06c0.46-0.39,1.21-0.38,1.66,0.02c0.45,0.4,0.44,1.04-0.02,1.42C38.33,75.92,33.66,75.53,29.75,72.85 L29.75,72.85L29.75,72.85z M30.5,42.92c0.32,0.04,0.62,0.05,0.87,0.04c0.54-0.02,1,0.42,1.02,0.97c0.02,0.55-0.4,1.02-0.95,1.04 c-0.93,0.03-2.09-0.18-3.35-0.41c-0.31-0.06-0.63-0.12-0.95-0.17c-4.78,1.79-10.31,2.63-16.57,2.57c-1.17,0.69-1.53,2.24-1.03,5.02 c0.62,3.45,2.52,8.51,5.76,15.68c4.58,6.38,9.06,10.56,13.34,12.9c4.56,2.5,8.9,2.9,12.86,1.67c4.02-1.24,7.71-4.15,10.93-8.24 c4.6-5.83,8.21-14.02,10.42-23.17c-0.02-5.99-1.85-10.88-5.09-14.92c-3.1-3.86-7.48-6.97-12.8-9.54 c-2.7,6.92-6.9,12.04-12.51,15.45C31.82,42.22,31.17,42.58,30.5,42.92L30.5,42.92z M52.8,48.14c0.46,0.16,0.73,0.71,0.6,1.25 c-0.13,0.54-0.61,0.85-1.07,0.7c-0.94-0.32-1.87-0.51-2.79-0.58c0.07,0.2,0.11,0.42,0.11,0.63c0,1.01-0.8,1.83-1.79,1.83 s-1.79-0.82-1.79-1.83c0-0.12,0.01-0.23,0.03-0.33c-0.3,0.08-0.61,0.17-0.91,0.27c-0.46,0.16-0.94-0.16-1.07-0.69 c-0.13-0.54,0.13-1.1,0.59-1.25c1.33-0.45,2.67-0.68,4.02-0.68C50.09,47.46,51.44,47.69,52.8,48.14L52.8,48.14L52.8,48.14z M22.34,50.27c-0.46,0.18-0.95-0.1-1.1-0.63c-0.16-0.53,0.08-1.11,0.54-1.29c1.36-0.54,2.72-0.8,4.09-0.78 c1.36,0.01,2.71,0.28,4.06,0.78c0.46,0.17,0.71,0.74,0.56,1.27c-0.15,0.53-0.63,0.82-1.09,0.66c-0.3-0.11-0.6-0.21-0.9-0.29 c0.02,0.12,0.03,0.24,0.03,0.36c0,1.01-0.8,1.83-1.79,1.83s-1.79-0.82-1.79-1.83c0-0.26,0.05-0.51,0.15-0.73 C24.2,49.68,23.27,49.9,22.34,50.27L22.34,50.27L22.34,50.27z M54.13,43.01c0.42,0.35,0.48,0.99,0.13,1.42 c-0.34,0.43-0.96,0.49-1.38,0.14c-1.31-1.11-4.02-0.61-6.34-0.18c-1.25,0.23-2.42,0.44-3.35,0.41c-0.54-0.02-0.97-0.48-0.95-1.04 c0.02-0.55,0.47-0.99,1.02-0.97c0.73,0.03,1.79-0.17,2.94-0.38C48.93,41.9,52.11,41.31,54.13,43.01L54.13,43.01L54.13,43.01z M33,63.79c-0.48-0.38-0.52-1.01-0.08-1.42c0.44-0.41,1.18-0.44,1.66-0.07c0.58,0.45,0.85,0.4,1.35,0.39 c0.51-0.01,0.8,0.03,1.39-0.41c0.49-0.36,1.23-0.32,1.65,0.1c0.42,0.42,0.37,1.05-0.12,1.42c-1.02,0.75-1.81,0.89-2.91,0.9 C34.84,64.72,34.04,64.59,33,63.79L33,63.79L33,63.79z"/></g></svg>