<svg id="Layer_1" data-name="Layer 1" xmlns="http://www.w3.org/2000/svg" viewBox="0 0 63.74 122.88"><defs><style>.cls-1{fill-rule:evenodd;}</style></defs><title>women-razor</title><path class="cls-1" d="M2.84,0H60.9c3.34,5.77,3.6,14.33,1.5,20.61A7.43,7.43,0,0,1,60.31,25c-5.07,5.16-13.63,2.29-19,8.58-5,5.8-1.54,17.55-.62,24.81,2.75,21.81,3.74,39.87,1.76,51.21-3.22,18.44-18.07,17.21-21-.78-1.88-11.39-1-29.11,1.72-50.43.92-7.26,4.37-19-.62-24.81-5.41-6.29-14-3.42-19-8.58a7.44,7.44,0,0,1-2.1-4.39C-.75,14.33-.49,5.77,2.84,0ZM8.51,17.45a1.64,1.64,0,0,1,0-3.28H55.23a1.64,1.64,0,1,1,0,3.28Zm0-7.63a1.64,1.64,0,0,1,0-3.27H55.23a1.64,1.64,0,1,1,0,3.27Z"/></svg>