<?xml version="1.0" encoding="utf-8"?><svg version="1.1" id="Layer_1" xmlns="http://www.w3.org/2000/svg" xmlns:xlink="http://www.w3.org/1999/xlink" x="0px" y="0px" viewBox="0 0 93.271 122.881" enable-background="new 0 0 93.271 122.881" xml:space="preserve"><g><path d="M44.818,2.285c3.407,14.549,7.657,23.19,12.372,30.119l-5.811,1.965c-3.438-5.249-6.626-11.488-9.431-20.215 c-5.019,15.66-11.399,23.5-18.099,31.719c-4.859,5.96-9.899,12.14-14.619,21.91c-1.02,2.101-1.85,4.279-2.42,6.55 c-0.56,2.22-0.88,4.521-0.88,6.93c0,4.919,0.88,9.459,2.629,13.629c3.553,8.437,11.232,15.955,19.68,19.449 c4.209,1.74,8.779,2.62,13.72,2.62c4.959,0,9.549-0.88,13.768-2.62c4.221-1.749,8.131-4.39,11.701-7.909 c1.234-1.22,2.361-2.482,3.379-3.784l6.301,1.377c-1.574,2.318-3.422,4.525-5.539,6.618c-4.121,4.05-8.65,7.108-13.6,9.159 c-4.961,2.05-10.301,3.08-16.01,3.08c-5.71,0-11.041-1.03-15.99-3.08c-4.93-2.04-9.45-5.1-13.569-9.159 c-4.11-4.062-7.21-8.55-9.281-13.46C1.039,92.252,0,86.941,0,81.262c0-2.91,0.379-5.699,1.06-8.39c0.67-2.64,1.64-5.18,2.84-7.66 c5.021-10.38,10.29-16.84,15.36-23.069c7.609-9.34,14.79-18.14,19.79-39.849c0.359-1.59,1.949-2.58,3.539-2.22 C43.739,0.344,44.569,1.224,44.818,2.285L44.818,2.285L44.818,2.285z M83.148,42.595c1.336,0.982,1.551,2.81,0.479,4.087 c-1.076,1.265-3.039,1.493-4.391,0.513c-5.156-3.772-8.73-1.447-12.879,1.26c-6.117,4.009-13.143,8.588-25.531,3.687 c-1.577-0.624-2.277-2.327-1.596-3.806c0.697-1.48,2.533-2.162,4.107-1.55c9.226,3.653,14.714,0.062,19.503-3.078 C69.059,39.677,74.398,36.185,83.148,42.595L83.148,42.595L83.148,42.595z M92.107,81.648c1.34,0.982,1.553,2.809,0.479,4.087 c-1.074,1.265-3.037,1.495-4.389,0.514c-5.158-3.786-8.73-1.448-12.879,1.26c-6.119,4.008-13.141,8.588-25.533,3.687 c-1.576-0.624-2.276-2.327-1.594-3.807c0.695-1.479,2.531-2.161,4.107-1.549c9.223,3.653,14.711,0.062,19.502-3.078 C78.016,78.716,83.357,75.224,92.107,81.648L92.107,81.648L92.107,81.648z M88.305,61.368c1.34,0.984,1.555,2.811,0.479,4.088 c-1.074,1.266-3.035,1.496-4.391,0.515c-5.141-3.775-8.729-1.448-12.877,1.26c-6.117,4.007-13.141,8.588-25.533,3.686 c-1.576-0.625-2.276-2.326-1.595-3.806c0.696-1.479,2.533-2.161,4.108-1.55c9.223,3.654,14.713,0.063,19.502-3.077 C74.217,58.437,79.553,54.944,88.305,61.368L88.305,61.368L88.305,61.368z"/></g></svg>