<svg id="Layer_1" data-name="Layer 1" xmlns="http://www.w3.org/2000/svg" viewBox="0 0 122.88 118.01"><defs><style>.cls-1{fill-rule:evenodd;}</style></defs><title>asteroid</title><path class="cls-1" d="M15.77,92.35a15,15,0,0,1-2.38-9.81A23.31,23.31,0,0,1,17.56,71.7c3.85-5.64,7.35-9,11.32-10.24s8.37-.24,13.83,2.91a13.88,13.88,0,0,1,6,5.63c.4.6.87,1.3,1.43,2.11.43.6.85,1.16,1.25,1.68s.78,1,1.14,1.45l.89,1.1C57.24,81,58.55,82.64,55.1,91a22.32,22.32,0,0,1-19.05,13.54A20.25,20.25,0,0,1,26.94,103,22.29,22.29,0,0,1,15.77,92.35ZM116.49,39.78a3.74,3.74,0,0,1,5.29,5.29l-63,63c-11.19,11.19-24.77,12-36.11,7A39.41,39.41,0,0,1,2.9,95.3c-5-11.28-4.13-24.78,7.1-36l58.31-58a3.73,3.73,0,1,1,5.26,5.29l-58.3,58c-8.67,8.62-9.34,19-5.52,27.64a32,32,0,0,0,15.9,16c8.7,3.86,19.15,3.23,27.81-5.42l63-63ZM66.09,57.29A3.74,3.74,0,1,1,60.85,52L111.07,2.32a3.73,3.73,0,1,1,5.24,5.32L66.09,57.29Zm4.2,18.45a3.73,3.73,0,1,1-5.24-5.32l40.36-39.78A3.73,3.73,0,1,1,110.65,36L70.29,75.74ZM48,52.75a3.73,3.73,0,0,1-5.24-5.32L89.66,1.07A3.74,3.74,0,1,1,94.9,6.4L48,52.75ZM33.06,73.58A3.64,3.64,0,1,1,35.63,78a3.63,3.63,0,0,1-2.57-4.45ZM21.15,79.94a2.87,2.87,0,1,1,2,3.52,2.87,2.87,0,0,1-2-3.52Zm12,8.88a4.62,4.62,0,1,1,3.26,5.65,4.61,4.61,0,0,1-3.26-5.65Z"/></svg>