<svg id="Layer_1" data-name="Layer 1" xmlns="http://www.w3.org/2000/svg" viewBox="0 0 110.93 122.88"><defs><style>.cls-1{fill-rule:evenodd;}</style></defs><title>biodiesel</title><path class="cls-1" d="M107.87,28.9a16.33,16.33,0,0,1,2.83,12.17,11.89,11.89,0,0,1-2.22,5.24,13.53,13.53,0,0,1-3,2.89c-.06,1.53-.08,3-.08,4.52,0,1.91.07,3.89.18,5.9.25,4.75,1,9.53,1.67,14.27A139.75,139.75,0,0,1,109,89.32c.27,6.75-.53,12.3-2.76,16.22-2.48,4.38-6.51,6.72-12.45,6.51h0c-7.09-.13-11.45-4.11-13.42-11.46-1.72-6.43-1.46-15.61.49-27.16-.06-9.15-1.25-16.09-3.61-20.76a11.51,11.51,0,0,0-6.27-6v59.93a8.18,8.18,0,0,1,2.3,1.64,8.41,8.41,0,0,1,2.47,6v6A2.74,2.74,0,0,1,73,122.88H2.74A2.74,2.74,0,0,1,0,120.14v-6a8.42,8.42,0,0,1,2.47-6A8.57,8.57,0,0,1,4,107V14.52A14.54,14.54,0,0,1,18.56,0H56.34A14.61,14.61,0,0,1,70.93,14.59V41c4.86,1.06,8.57,4.17,11.15,9.27,2.77,5.47,4.15,13.32,4.19,23.47a2.42,2.42,0,0,1,0,.47h0c-1.85,10.87-2.15,19.35-.63,25,1.27,4.77,4,7.35,8.24,7.41h.05c3.66.12,6.09-1.22,7.52-3.75,1.69-3,2.28-7.55,2-13.31a139.76,139.76,0,0,0-1.68-14.85c-.72-4.82-1.44-9.68-1.71-14.79-.11-2-.17-4.06-.18-6.18,0-1.68,0-3.34.09-5-5.11-4.48-8.22-9-9.18-13.42a14.37,14.37,0,0,1,3-12.17A41.35,41.35,0,0,0,87,19.34c-3.17-1.38-3.19-1.5-6.51-2a2.74,2.74,0,0,1,.88-5.4,23.41,23.41,0,0,1,7.82,2.42c6.49,2.84,14.72,8.63,18.73,14.58ZM22.37,85.62a22.94,22.94,0,0,0-3.49,5.58c-.69,1.87-1,2.73.59.79a33.83,33.83,0,0,1,4.76-5.22l.44.1c17.88,3.55,30.89-4.49,28.6-30.46C39.51,61.17,20,59.23,22,83.65a7.52,7.52,0,0,0,.33,2Zm4.24-3.51C31.28,72,43.28,68.6,49.23,61.72,42.78,74.29,37.51,74.91,26.61,82.11ZM98.18,26.5a9.22,9.22,0,0,0-2,7.7c.67,3.12,3,6.44,6.88,9.95a7.62,7.62,0,0,0,1-1.11,6.29,6.29,0,0,0,1.19-2.84,11.11,11.11,0,0,0-2-8.25,27.12,27.12,0,0,0-5.14-5.45Zm-76.32-14H53.68a6,6,0,0,1,4.24,1.76c.07.08.15.15.22.24a6,6,0,0,1,1.55,4v20.3a6,6,0,0,1-6,6H21.86a6,6,0,0,1-4.23-1.76h0a6,6,0,0,1-1.76-4.24V18.53a6,6,0,0,1,1.76-4.24,2.41,2.41,0,0,1,.24-.21,6,6,0,0,1,4-1.54Zm46.58,98.95H7.26a3,3,0,0,0-.91.62,2.92,2.92,0,0,0-.86,2.07v3.24H70.24v-3.24a3,3,0,0,0-.86-2.07,3.1,3.1,0,0,0-.94-.63Z"/></svg>