<svg id="Layer_1" data-name="Layer 1" xmlns="http://www.w3.org/2000/svg" viewBox="0 0 103.01 122.88"><defs><style>.cls-1{fill:#1a1a1a;}.cls-2{fill:#51b53c;fill-rule:evenodd;}</style></defs><title>cactus-tree</title><path class="cls-1" d="M73.33,28.85l-.07,7.33a13.13,13.13,0,0,1,19-8.64,2.11,2.11,0,0,1,.21-.31l2.53-2.94a1.69,1.69,0,1,1,2.57,2.21L95.1,29.43l-.07.08c.11.09.21.19.31.29a13.12,13.12,0,0,1,3.84,9.28v.09l.72-.84a1.7,1.7,0,1,1,2.58,2.21l-3.22,3.74c0,.51,0,1,0,1.5.07,2.54.15,4.94.11,7.27l.6-.71a1.7,1.7,0,0,1,2.58,2.21L99.38,58.3a1.55,1.55,0,0,1-.33.3c-.75,5.8-2.8,11.53-8,18.41l-.16.2a30.55,30.55,0,0,1-8.62,7.72A32.08,32.08,0,0,1,77,87.45a33.56,33.56,0,0,1-4.46,1.29l-.51,6.44,1.74-1.49a2,2,0,1,1,2.58,3l-4.24,3.66a2,2,0,0,1-.5.32l-.88,11.28,1.9-1.64a2,2,0,0,1,2.59,3L71,117a2,2,0,0,1-.67.38l-.18,2.27a3.54,3.54,0,0,1-3.53,3.28H43.7a3.55,3.55,0,0,1-3.52-3.15l-.39-2.6a1.37,1.37,0,0,1-.24-.18l-4.24-3.66a2,2,0,0,1,2.58-3l1,.86-.72-4.83-.6-.09h0c-.74-.13-6.32-.3-7.13-.5s-1.5-.41-2.25-.65C18.63,102,12.3,93.32,8.45,83.13a75.13,75.13,0,0,1-3.8-14.78,1.67,1.67,0,0,1-1-.57L.41,64A1.69,1.69,0,1,1,3,61.83L4,63a84.51,84.51,0,0,1-.37-9.24L.41,50A1.69,1.69,0,1,1,3,47.81l.88,1c.15-1.58.35-3,.61-4.39a16.8,16.8,0,0,1,2.94-6.77L6,36a1.7,1.7,0,0,1,2.58-2.21l1.18,1.38a14.23,14.23,0,0,1,2.87-2,11.88,11.88,0,0,1,6.17-1.36A10.7,10.7,0,0,1,25,34.3c3.32,2.73,5.83,7.9,6.14,16.2v0c0,1.44,0,3.26,0,5.32-.82,12.31,3.37,25,6.26,19.77-.21-18.95-.81-38-.46-56.95a3.89,3.89,0,0,1,0-.49,21.52,21.52,0,0,1,.67-3.14l-4-3.46a2,2,0,0,1,2.58-3l3.06,2.63a17.11,17.11,0,0,1,7.3-6.85A19.15,19.15,0,0,1,55,2.43a19.66,19.66,0,0,1,4.45.51l.3-1.38a2,2,0,1,1,3.87.84l-.4,1.86.25.12A17.51,17.51,0,0,1,73.17,18.3c0,.12,0,.23,0,.35l.18,5.87,0,4.33Zm-7.11,6,.09-10.13L66.14,19a10.55,10.55,0,0,0-5.76-8.3,12.1,12.1,0,0,0-10.67,0A10.56,10.56,0,0,0,44,19l-.1,5.64.65,58.88a3.15,3.15,0,0,1-.07,1,3.54,3.54,0,0,1-4.19,2.73,15.13,15.13,0,0,1-2-.58c-.7-.26-6.12-.56-6.66-.88-7.87-4.71-7.68-20-7.54-30,0-1.94,0-3.66,0-5v0c-.23-6-1.67-9.45-3.57-11a3.76,3.76,0,0,0-2.15-.88,4.86,4.86,0,0,0-2.51.6,8.92,8.92,0,0,0-4.42,6.3c-1.62,8.42-.86,22.89,3.66,34.87C18.22,89,23.18,96,30.38,98.37c.57.19,6,.36,6.58.52s1.18.27,1.85.39h0a5.72,5.72,0,0,0,.91.09,6.1,6.1,0,0,0,.84,0l.13,0a3.54,3.54,0,0,1,4,3l2,13.51h16.6l2.37-30.42h0a3.52,3.52,0,0,1,3.46-3.26l.46,0L70,82l.14,0a26.68,26.68,0,0,0,4.47-1.2,24.15,24.15,0,0,0,4.07-1.94,24.53,24.53,0,0,0,3.67-2.72,25,25,0,0,0,3-3.21l.13-.19C92.77,63,92.55,55.65,92.25,46c-.07-2.36-.15-4.84-.15-6.89a6,6,0,1,0-12.07,0c0,1.79,0,2.52,0,3.3.14,7.51.31,17-4.24,23.11a12.79,12.79,0,0,1-1.52,1.7,10.09,10.09,0,0,1-1.82,1.37h0c-.33.19-.61.35-.86.47h0c-.29.13-.58.26-.87.37a3.58,3.58,0,0,1-1.31.24,3.54,3.54,0,0,1-3.51-3.56l.3-31.25Z"/><path class="cls-2" d="M69.8,28.82l0,6-.3,31.25a7.66,7.66,0,0,0,1.22-.58A8.18,8.18,0,0,0,73,63.37c4.47-5.94,3.49-17,3.49-24.29a9.58,9.58,0,1,1,19.16,0c0,14.06,2.37,22.84-7.4,35.8a27.22,27.22,0,0,1-7.78,7,28.55,28.55,0,0,1-9.74,3.6,10.44,10.44,0,0,1-1.47.14l-2.63,33.7H43.7l-2.48-16.53a54.68,54.68,0,0,1-7.35,0,30.85,30.85,0,0,1-4.11-1C10,95.26,5.44,60.59,8.42,45.11c2.24-11.67,18.83-16.23,19.65,5.51.26,7.79-1.65,27.7,5.83,32.15.77.46,6,.8,7.08,1l-.6-55-.05-4.2.11-5.88c2.2-17,27-17,29.23,0l.17,5.88,0,4.2Z"/></svg>