<?xml version="1.0" encoding="utf-8"?><svg version="1.1" id="Layer_1" xmlns="http://www.w3.org/2000/svg" xmlns:xlink="http://www.w3.org/1999/xlink" x="0px" y="0px" viewBox="0 0 122.879 87.878" enable-background="new 0 0 122.879 87.878" xml:space="preserve"><g><path fill-rule="evenodd" clip-rule="evenodd" d="M32.636,55.556c2.692,0.233,13.9-1.707,13.9,2.409c0,5.149,2.538,4.527-4.4,9.784 c-3.805,2.873-0.958,3.079-8.256,1.94c-2.977-0.467-7.61-7.351-4.194-11.13C31.135,56.929,31.083,55.428,32.636,55.556 L32.636,55.556L32.636,55.556z M9.805,35.194c6.078-0.359,15.906-1.077,15.906,3.515c0,7.351,3.604,6.473-6.277,13.916 c-3.044,2.297-3.097,3.395-4.406,3.628L5.59,50.6l5.219,5.278L7.67,55.385C3.421,54.722-3.143,44.913,1.718,39.534 C6.344,34.405,2.184,35.642,9.805,35.194L9.805,35.194L9.805,35.194z M34.973,4.08c2.321-2.604,4.855-3.767,7.47-4.08l3.886,8.181 l-0.448-8.157c6.291,0.743,12.697,4.813,17.444,4.378l7.215,9.132l-0.738,2.756l-17.105,4.039l16.156-0.494l-1.673,6.247 L53.901,42.129c-7.611-0.398-12.596-1.878-16.854-6.489l7.71-7.796l-9.463,5.667c-1.226-1.655-2.409-3.616-3.603-5.939 C26.851,18.103,27.155,11.647,34.973,4.08L34.973,4.08L34.973,4.08z M121.819,24.182c1.854,8.811,1.082,12.207-0.837,14.459 l-14.38-8.612l11.223,11.349c-1.926,1.512-4.105,3.432-5.976,7.39c-0.574,1.237-18.202,3.693-22.667-0.771l-6.433-9.845 l10.192-10.307L80.775,35.13l-3.245-4.967l14.343-9.155C110.046,25.321,118.334,7.596,121.819,24.182L121.819,24.182z M83.001,52.988c8.176,4.862,11.271,14.604,9.126,23.54c-0.548,2.288-1.447,4.21-2.608,5.786l-7.191-4.307l5.824,5.89 c-6.951,6.871-20.137,4.552-27.622-4.681l-0.826-0.524l10.665-10.784l-14.231,8.522l-3.692-2.343L50.56,54.899l10.252,0.646 l6.192-6.509L83.001,52.988L83.001,52.988z"/></g></svg>