<svg id="Layer_1" data-name="Layer 1" xmlns="http://www.w3.org/2000/svg" viewBox="0 0 101.83 122.88"><defs><style>.cls-1{fill:#3e9c2a;}.cls-2{fill:#49aa34;}</style></defs><title>clover</title><path class="cls-1" d="M61.86,67.13c1.91,4.91,2.65,9.92,1.38,14.42-2.47,8.77-11.09,10-18.79,3-8.62,8.27-17.66,4.38-19.35-4.76-1.47-8,2.91-17.12,9-24.74-8,6.16-18,10.79-26.39,8.5-8.78-2.4-10-11-3.09-18.78C-3.72,36.18.1,27.1,9.23,25.35c8.08-1.55,17.43,2.93,25.17,9.1-6.3-8-11.1-18.26-8.77-26.76,2.4-8.77,11-10,18.77-3.08C53-3.72,62,.11,63.77,9.23c1.59,8.3-3.19,18-9.63,25.8C62.35,28.6,73,23.61,81.67,26.13S91.54,37.29,84.5,45c8.21,8.67,4.25,17.7-4.89,19.32-4.61.82-9.61-.33-14.47-2.62l-3.28,5.48Zm3.28-5.48Z"/><path class="cls-1" d="M65.14,61.65q8.46,9.63,15.42,19.27a171.49,171.49,0,0,1,21.06,37.83A3,3,0,0,1,96,120.94,165.57,165.57,0,0,0,75.63,84.47q-6.24-8.66-13.77-17.34l3.28-5.48Z"/><path class="cls-2" d="M31.26,58.58c-4.62,7.16-7.56,15.35-5.63,22.36,2.4,8.78,11,10,18.76,3.09V47.68L58.48,57.8c7.16,4.62,15.35,7.55,22.36,5.63,8.78-2.4,10-11,3.09-18.76H44.39V4.6C36.65-2.33,28-1.08,25.63,7.69c-1.93,7,1,15.21,5.63,22.37L41.5,44.32l-.25.35H4.5C-2.43,52.41-1.18,61,7.59,63.43c7,1.92,15.21-1,22.37-5.63L33.8,55l-2.54,3.54Z"/></svg>