<svg id="Layer_1" data-name="Layer 1" xmlns="http://www.w3.org/2000/svg" viewBox="0 0 119.1 122.88"><defs><style>.cls-1{fill:#9a5d26;}.cls-1,.cls-2,.cls-3,.cls-4{fill-rule:evenodd;}.cls-2{fill:#3e9c2a;}.cls-3{fill:#51b53c;}.cls-4{fill:#c97630;}</style></defs><title>coconut-tree-color</title><path class="cls-1" d="M55.38,47.51C63.81,73,60,97.61,51.86,122.88H68.29c6.22-40.21.87-57.57-5.35-73.26l-7.56-2.11Z"/><path class="cls-2" d="M30.15,103.09c2.21-25.86,6.71-47.15,25.23-55.58l7.56,2.11C74.36,56.8,84.54,72.29,94.26,96.9c13.68-25.47,5-44.21-27.47-56.37,18.55-5.76,35.95,1.61,52.31,16-8.73-33-33.66-40.93-55.94-22.11C66.19,10.87,56.47,5.2,43.43,0,49.56,9.35,54.2,19.08,53.51,30.28,33.4,11.82,16.61,18.65,1.16,34.92,16,31.46,31.37,30,44.33,38.68,21.06,35.74,8,48.85,0,66.06c9.73-8.92,18.91-14.7,28.63-15.75-10.21,18.52-5.7,34.86,1.56,52.82l0,0Z"/><path class="cls-3" d="M53.51,30.28l-.13,7.15C39.5,21.25,16.22,25.53,1.14,34.92c15.67-17.47,34.13-21.66,52.37-4.64Z"/><path class="cls-3" d="M0,66.06C9.39,44,32.17,30.6,54.73,42.51,29.66,34.81,14.66,49.13,0,66.06Z"/><path class="cls-3" d="M63.16,34.47c23.21-5.89,42.63-.71,55.94,22.11C113.77,31.1,90.15,12,63.16,34.47Z"/><path class="cls-3" d="M66.79,40.53c30.54,12.12,41.67,27,27.47,56.37,5.5-27.75-8.86-42.14-27.47-56.37Z"/><path class="cls-3" d="M55.38,47.51c-23.64.63-31.5,24.37-25.19,55.62C15.75,72.29,21.55,34.06,55.38,47.51Z"/><path class="cls-4" d="M55.38,47.51c8,26.78,4.41,52.23-3.52,75.37h10c4.15-39.86.62-59-3.52-74.54l-3-.83Z"/></svg>