<svg xmlns="http://www.w3.org/2000/svg" shape-rendering="geometricPrecision" text-rendering="geometricPrecision" image-rendering="optimizeQuality" fill-rule="evenodd" clip-rule="evenodd" viewBox="0 0 319 512.59"><path d="m126.33 205.43-13.74 9.27c-3.17 2.12-4.92 3.93-5.24 5.36-.32 1.44.5 3.64 2.51 6.62l4.7 6.97 21.19-14.29-9.42-13.93zM14.06 132.02 89 88.75c-1.56-2.7-3.84-6.06-4.96-9.08-2.34-6.26-.67-13.35 4.22-17.88 1.76-1.63 3.71-2.65 5.75-3.83l41.74-24.09c1.86-1.08 3.3-1.9 5.5-2.47 2.84-.75 5.77-.72 8.51.02 2.73.74 5.28 2.19 7.35 4.25 1.8 1.81 2.76 3.6 4 5.73l2.47 4.29 72.16-41.66c5.12-2.95 9.35-5.72 15.78-2.77 4.41 2.02 5.92 5.44 8.13 9.26l12.15 21.06c1.64 2.83 1.1 6.34-1.1 8.56-.87.86-1.9 1.39-2.95 1.99L31.37 178.61c-3.41 1.96-7.76.79-9.72-2.6l-.08-.15-13.58-23.51c-5.02-8.71-2.37-15.46 6.07-20.33zm88.2-34.51-82.13 47.42 10.27 17.8 225.53-130.2-10.27-17.81-79.08 45.66c-4.02 2.32-8.71 3.85-11.75-1.42l-6.82-11.8c-.56-.96-.87-1.87-2.15-2.1-1.03-.17-1.6.31-2.42.78L99.31 71.32c-.84.49-1.59.75-1.96 1.74-.48 1.23.06 1.83.62 2.79l6.89 11.95a7.1 7.1 0 0 1-2.6 9.71zm128.19 227.86h-15.86l-9.61 140.02h15.86l9.61-140.02zm-61.17 0h-15.86v140.02h15.86V325.37zm-61.16 0H92.25l9.61 140.02h15.87l-9.61-140.02zm-73.85-46.75h1L.52 240.4c-1.21-1.34-.01-2.91.6-4.61.45-1.22.92-2.4 1.39-3.59 4.54-11.1 10.65-20.42 18.56-27.7-.43-2.21.38-4.59 2.3-6.06 1.88-1.46 4.37-1.62 6.4-.67 9.63-6.2 21.36-10.05 35.39-11.25 1.81-.13 3.62-.88 4.61.6l60.44 91.5h7.4L103.8 228.5c-2.9-4.29-4.11-7.59-3.64-9.88.51-2.28 2.95-4.92 7.42-7.94l15.48-10.44c-4.06-6.03-8.09-9.57-12.15-10.62-4.01-1.09-8.67.15-13.87 3.66-3.85 2.6-7.62 6.99-9.4 11.15l-4.45-8.39c2.13-3.14 6.36-7.27 9.65-9.49 13.94-9.4 26.19-6.31 36.72 9.3l6.79-4.57c4.62-3.12 8.05-4.5 10.2-4.14 2.15.39 4.75 2.81 7.77 7.29l34.06 50.49c2.74 4.09 4.42 8.37 5.02 12.89l43.48-75.31c2.3-4 6.02-6.7 10.14-7.77 4.15-1.13 8.68-.64 12.65 1.65l50.98 29.42c3.99 2.31 6.7 6.04 7.78 10.14 1.11 4.16.63 8.71-1.68 12.67l-29.05 50.34c6.47 1.35 11.78 5.76 12.98 12.2.38 2.14.2 3.5.02 5.52l-19.42 198.78c-.31 3.2-.61 5.7-2.19 8.63-2.7 5.01-7.68 8.51-13.88 8.51l-211.88-.01c-4.53 0-8.2-.98-11.5-3.92-3.16-2.81-5.2-6.91-5.61-11.38L17.01 297.86c-.27-2.99-.64-4.91.24-7.93.72-2.53 2.13-4.79 3.98-6.6 3.97-3.88 8.19-4.71 13.04-4.71zm42.35 0h14.59c.76-.61.88-1.71.31-2.49l-5.68-7.35c-.59-.79-1.72-.93-2.5-.33l-7.72 5.92c-.77.61-.93 1.73-.32 2.52l1.32 1.73zm28.85 0h12.01l-3.38-4.38c-.59-.78-1.71-.93-2.5-.33l-6.13 4.71zm39.52 0h35.55c.87-.86 1.68-1.77 2.42-2.72l3.17-5.5c.73-1.71 1.26-3.53 1.63-5.46 1.4-7.19-.28-10.53-4.4-16.63l-24.95-36.95-40.46 27.3 24.95 36.97 2.09 2.99zm44.31 0h91.64l27.2-47.06-68.79-39.66-50.05 86.72zm95.15 14.24H32.65v-.03c-.85.04-1.82.46-1.76 1.4l19.34 200.74c.08.9.08 2.14.71 2.8.4.41.97.58 1.72.58h212.56c.54 0 1.06-.42 1.37-1.01.4-.92.41-1.37.5-2.31l19.57-200.3c.03-.53.18-.88-.23-1.27-.68-.67-1.19-.6-1.98-.6zM41.03 221.41c9.82-7.58 23.92-5.74 31.49 4.1 7.57 9.84 5.72 23.94-4.12 31.49-9.82 7.58-23.93 5.74-31.49-4.08-7.57-9.86-5.72-23.94 4.12-31.51zm4.57 5.58c1.88-1.44 4.62-1.09 6.07.8l4.34 5.66 5.68-4.35a4.3 4.3 0 0 1 6.03.77c1.45 1.89 1.09 4.62-.78 6.07l-5.66 4.34 4.36 5.68c1.43 1.86 1.07 4.59-.8 6.04-1.9 1.43-4.61 1.09-6.04-.79l-4.36-5.66-5.66 4.35c-1.89 1.44-4.62 1.09-6.06-.79-1.46-1.88-1.09-4.61.78-6.05l5.69-4.35-4.36-5.67c-1.45-1.89-1.11-4.61.77-6.05zm45.14 35.77 7.72-5.94c.78-.6 1.9-.45 2.49.33l5.67 7.36c.6.78.46 1.91-.34 2.5l-7.71 5.94c-.78.6-1.89.47-2.51-.33l-5.65-7.36c-.61-.77-.45-1.91.33-2.5zm40.67-60.75 9.39 13.93 14.24-9.61-4.72-6.97c-2.09-3.11-3.82-4.73-5.19-4.95-1.33-.21-3.68.8-6.94 2.99l-6.78 4.61zm144.78 4.66a6.856 6.856 0 0 1-2.51-9.37 6.85 6.85 0 0 1 9.38-2.53c3.27 1.89 4.44 6.07 2.52 9.39-1.88 3.27-6.06 4.42-9.39 2.51z"/></svg>