<svg xmlns="http://www.w3.org/2000/svg" shape-rendering="geometricPrecision" text-rendering="geometricPrecision" image-rendering="optimizeQuality" fill-rule="evenodd" clip-rule="evenodd" viewBox="0 0 512 447.38"><path fill="#fff" fill-rule="nonzero" d="M200.36 142.66c30.42-36.2 76.19-61.27 121.79-86.23 23.04-12.62 46.03-25.21 65.78-39.03L412.8 0l10.82 28.34c17.71 46.36 27.54 87.76 30.51 124.42 4.31 53.12-5.84 96.62-27.51 131.18a171.21 171.21 0 0 1-16.41 22.03h69.26c17.85 0 32.53 14.69 32.53 32.53v76.35c0 17.75-14.78 32.53-32.53 32.53H32.53C14.68 447.38 0 432.68 0 414.85V338.5c0-17.84 14.69-32.53 32.53-32.53h41.12c-2.55-4.46-4.85-9.09-6.9-13.88-12.6-29.45-15.16-64.44-5.35-105.1 6.68-27.7 19.1-58.04 38.01-91.01l15.12-26.35 21.87 21.06c13.05 12.56 28.61 24.57 44.21 36.59 6.62 5.1 13.24 10.21 19.75 15.38z"/><path fill="#005133" d="M32.53 323.06h446.94c8.49 0 15.45 7.03 15.45 15.44v76.35c0 8.41-7.04 15.44-15.45 15.44H32.53c-8.41 0-15.44-6.95-15.44-15.44V338.5c0-8.49 6.95-15.44 15.44-15.44z"/><path fill="#fff" fill-rule="nonzero" d="M77.97 381.5H65.35v6.31h15.46v8.58H52.74v-39.43h27.75l-1.57 8.58H65.35v6.81h12.62v9.15zm36.27 3.6.94 10.59c-2.64 1.1-5.97 1.64-9.96 1.64-4 0-7.2-.42-9.62-1.26-2.42-.84-4.32-2.16-5.71-3.97-1.39-1.81-2.35-3.93-2.9-6.37-.55-2.44-.82-5.45-.82-9.02 0-3.58.27-6.6.82-9.06.55-2.46 1.51-4.59 2.9-6.4 2.69-3.49 7.63-5.23 14.82-5.23 1.6 0 3.48.16 5.65.47 2.16.32 3.77.71 4.82 1.17l-1.89 9.65c-2.73-.59-5.24-.88-7.5-.88-2.28 0-3.85.2-4.74.63-.88.42-1.32 1.26-1.32 2.52v16.52c1.64.34 3.3.51 4.98.51 3.58 0 6.75-.51 9.53-1.51zm5.36-8.39c0-7.19 1.34-12.44 4.04-15.74 2.69-3.3 7.54-4.95 14.57-4.95 7.02 0 11.87 1.65 14.56 4.95 2.7 3.3 4.04 8.55 4.04 15.74 0 3.57-.28 6.58-.85 9.02-.57 2.44-1.54 4.56-2.93 6.37-1.39 1.81-3.3 3.13-5.74 3.97-2.44.84-5.47 1.26-9.08 1.26-3.62 0-6.65-.42-9.09-1.26-2.44-.84-4.35-2.16-5.74-3.97-1.39-1.81-2.36-3.93-2.93-6.37-.57-2.44-.85-5.45-.85-9.02zm13.56-6.56v16.4h5.23c1.73 0 2.98-.2 3.76-.6.78-.4 1.16-1.32 1.16-2.75v-16.4h-5.29c-1.69 0-2.91.2-3.69.6-.78.4-1.17 1.32-1.17 2.75zm28.38 13.62v-6.81c0-1.14.35-1.86 1.04-2.18.7-.31 1.8-.47 3.32-.47h14.57v6.81c0 1.14-.35 1.86-1.04 2.18-.7.31-1.8.47-3.32.47h-14.57zm48.89-2.02H199.7v14.64h-12.61v-39.43h25.86l-1.58 8.58H199.7v6.81h10.73v9.4zm42.58 14.64h-13.88l-5.17-11.74h-2.72v11.74h-12.61v-39.43h19.87c9.04 0 13.56 4.61 13.56 13.82 0 6.31-1.95 10.47-5.87 12.49l6.82 13.12zm-21.77-29.33v7.88h2.91c1.51 0 2.61-.16 3.31-.47.69-.32 1.04-1.04 1.04-2.18v-2.59c0-1.13-.35-1.86-1.04-2.17-.7-.32-1.8-.47-3.31-.47h-2.91zm28.07 29.33v-39.43h12.62v39.43h-12.62zm46.05-14.89h-12.62v6.31h15.46v8.58h-28.07v-39.43h27.75l-1.57 8.58h-13.57v6.81h12.62v9.15zm33.24 14.89-10.53-17.03v17.03h-12.62v-39.43h11.86l10.53 17.03v-17.03h12.62v39.43H338.6zm20.06 0v-39.43h17.66c7.11 0 11.98 1.52 14.63 4.55 2.65 3.02 3.98 8.08 3.98 15.17 0 7.08-1.33 12.14-3.98 15.17-2.65 3.02-7.52 4.54-14.63 4.54h-17.66zm17.85-29.33h-5.24v19.23h5.24c1.72 0 2.97-.2 3.75-.6.78-.39 1.17-1.31 1.17-2.74V370.4c0-1.43-.39-2.35-1.17-2.75-.78-.39-2.03-.59-3.75-.59zm49.96 29.33h-25.24v-39.43h12.62v29.33h12.62v10.1zm11.41-39.43 3.47 13.88h.44l3.54-13.88h13.93l-11.35 28.7v10.73H435.3v-10.73l-11.36-28.7h13.94z"/><path fill="#01A437" fill-rule="nonzero" d="M376.47 305.97c58.64-49.57 75.51-136.93 25-269.19-58.92 41.23-138.68 68.59-181.74 121.89 27.31 23.74 50.08 49.9 58.12 83.56 36-43.09 74.01-82.95 94.58-127.05-19.56 98.07-48.82 142.74-91.97 190.79h96.01zm-274.5 0c-33.11-44.04-32.89-109.45 18.02-198.22 59.66 57.45 159.2 96.58 130.76 198.22h-46.83c-22.55-43.91-54.47-83.16-66.27-124.09 2.44 59.4 14.15 92.18 33.02 124.09h-68.7z"/></svg>