<svg id="Layer_1" data-name="Layer 1" xmlns="http://www.w3.org/2000/svg" viewBox="0 0 81.64 122.88"><title>energy-saving</title><path d="M25.47,97.64a2.75,2.75,0,0,1-.58-5.45C23.31,83.26,19,78.34,14.47,73.13c-3.54-4-7.21-8.25-10.11-14.44A43.45,43.45,0,0,1,0,39.75,44.59,44.59,0,0,1,5.34,19.49l.07-.13h0A38.53,38.53,0,0,1,24.15,3,41.69,41.69,0,0,1,43.67.18a45,45,0,0,1,18.62,6A38.33,38.33,0,0,1,78.55,24.6a40.62,40.62,0,0,1,3.08,14.32,41.57,41.57,0,0,1-3.16,16.82C75.24,63.72,71,68.68,67,73.33c-3.68,4.27-7.1,8.25-9,14.34a2.76,2.76,0,0,1-.26,5.41l-.93.13q-.26,2-.33,4.26l.31,0a2.76,2.76,0,0,1,.75,5.46l-.94.13c0,.18,0,.37,0,.55h0a22.88,22.88,0,0,1,0,3.09l.16,0a2.76,2.76,0,0,1,.67,5.47l-2,.26a16.49,16.49,0,0,1-7.11,8.41,15.27,15.27,0,0,1-6.8,2.07,13.89,13.89,0,0,1-7-1.37,14.74,14.74,0,0,1-6.41-6.23,2.77,2.77,0,0,1-1.49-2.12,3,3,0,0,1,.08-1.08,24.53,24.53,0,0,1-1.05-4.64H25.6a2.75,2.75,0,1,1-.76-5.45l.66-.1q.06-2.24,0-4.23ZM37.75,69.73c.44,3.06.77,5.65,1.83,7.93s1.54,3.22,1.2.17a42.79,42.79,0,0,1-.39-8.72l.47-.3c18.72-12.51,23.07-30.9-1.63-51.6C31.37,33.39,12.65,48.72,35.75,68.3a9,9,0,0,0,2,1.43ZM38.39,63c-4.71-12.87,2.76-26.37,2-37.58C45.69,42,41.62,47.15,38.39,63ZM30,91.45l22.41-3.18c1.93-8.12,6.12-13,10.66-18.28,3.73-4.34,7.71-9,10.62-16.16a36.58,36.58,0,0,0,2.8-14.77,35.65,35.65,0,0,0-2.72-12.53A33.21,33.21,0,0,0,59.68,10.59a39.54,39.54,0,0,0-16.47-5.3A36.65,36.65,0,0,0,26.08,7.73,33.5,33.5,0,0,0,9.85,21.94,39.38,39.38,0,0,0,5.12,39.79,38.36,38.36,0,0,0,9,56.52c2.59,5.53,6,9.46,9.32,13.24,5.14,5.88,10,11.44,11.7,21.69ZM51.52,94l-20.93,3q.11,2,.06,4.2l20.67-2.93c0-1.5.08-2.91.2-4.24ZM30.75,106.69a20.13,20.13,0,0,0,.64,3.08l20.06-2.47a16.62,16.62,0,0,0,.07-3.33h0v0l0-.2-20.75,2.94Zm3.5,8.29a9.18,9.18,0,0,0,2.55,1.88,9,9,0,0,0,4.45.87,10.23,10.23,0,0,0,4.53-1.39,11.07,11.07,0,0,0,3.49-3.21l-15,1.85Z"/></svg>