<svg id="Layer_1" data-name="Layer 1" xmlns="http://www.w3.org/2000/svg" viewBox="0 0 117.35 122.88"><title>falling-star</title><path d="M6.5,77.29l15.39,6.18L34.63,72.84a1.31,1.31,0,0,1,1.86.16,1.32,1.32,0,0,1,.31.94h0L35.68,90.5l14.06,8.82a1.34,1.34,0,0,1-.44,2.43l-16,4-4,16.1a1.33,1.33,0,0,1-2.41.38h0L18,108.2,1.41,109.33a1.32,1.32,0,0,1-1.07-2.21L11,94.42,4.77,79a1.32,1.32,0,0,1,.73-1.73,1.28,1.28,0,0,1,1,0Zm43-4.37,1.87-7.76-2.84-2.89,61.76-61c3.85-3.79,9.61,2.06,5.76,5.86L49.53,72.92Zm9.95,25.77L58.19,88.36l44.23-43.59c3.85-3.79,9.61,2.07,5.76,5.86L59.48,98.69ZM17.05,71,8,68.38,74.75,2.3c3.83-3.81,9.63,2,5.79,5.83L17.05,71Z"/></svg>