<svg id="Layer_1" data-name="Layer 1" xmlns="http://www.w3.org/2000/svg" viewBox="0 0 122.88 120.68"><title>fern</title><path d="M8.65,119.24a3.15,3.15,0,0,1-4.37.93,3.2,3.2,0,0,1-1-4.39q3.06-4.84,6.21-9.57C5,95-9.16,80.05,9,65,18.43,72.79,20.88,82.28,19.43,92q3.51-4.8,7.15-9.46C27.74,71,5.58,51.91,28.16,35.8,41,48,39,62.74,31.73,76.07q5.73-7,11.86-13.65c1.23-1.34,2.47-2.66,3.73-4-2.44-11.59-18.59-28.63,1.82-43.19,11.28,10.66,11.1,23.33,6,35.27q5.36-5.22,11-10.24C63.39,28.55,52.1,11.82,72.25,0c8.92,10,9.17,20.79,5.1,30.91,3-2.42,4.5-3.17,7.68-5.51C88.47,9,99-4.64,122.67,3.1c2.42,22.17-16.21,30.65-34.35,27.82-4.63,3.43-7.47,5.31-11.79,8.92,11.88-7,25.16-8.93,37.34,1.91-13.93,23.75-34.68,3.83-46,5.63q-4.83,4.35-9.4,8.87c10.72-5,22.29-5.35,33,4.19-12.59,21.48-30.77,7.24-42.53,5.65l-.62.67c-4.88,5.3-9.54,10.75-14,16.35,12.4-7.94,26.52-10.82,39.4.65-13.22,22.55-32.59,5.74-44.23,5.52q-6.29,8.19-12.14,16.79c12.92-9,28-13,41.68-.87-13.44,22.91-33.23,5.18-44.8,5.51q-2.79,4.23-5.51,8.53Z"/></svg>