<svg id="Layer_1" data-name="Layer 1" xmlns="http://www.w3.org/2000/svg" viewBox="0 0 122.88 123.11"><title>flower-bloom</title><path d="M84.62,103.7C99.87,119,116.84,97.92,105,86.11L93.87,75h15.77c17.65,0,17.65-26.87,0-26.87H93.87L105,36.94c12.48-12.48-6.51-31.48-19-19L74.87,29.09V13.32C74.87-4.51,48-4.37,48,13.32V29.09L36.86,17.94c-12.49-12.48-31.48,6.52-19,19L29,48.09H13.24C-4.41,48.09-4.41,75,13.24,75H29L17.86,86.11c-12.48,12.48,6.51,31.48,19,19L48,94v15.77c0,17,26.86,19.19,26.86-1.61l.66-11.87,9.09,7.46ZM61.44,47.57a13.95,13.95,0,1,1-13.95,14,13.95,13.95,0,0,1,13.95-14Z"/></svg>