<?xml version="1.0" encoding="utf-8"?><svg version="1.1" id="Layer_1" xmlns="http://www.w3.org/2000/svg" xmlns:xlink="http://www.w3.org/1999/xlink" x="0px" y="0px" viewBox="0 0 96.857 122.88" enable-background="new 0 0 96.857 122.88" xml:space="preserve"><g><path fill-rule="evenodd" clip-rule="evenodd" d="M13.786,61.393c6.297,7.274,11.94,14.112,15.49,21.078l-12.097,2.417l8.304,4.404 L21.596,99.91l0,0l11.003-8.232c1.552,7.666,0.006,15.755-6.396,24.952c4.47-0.53,9.394,0.448,12.024,5.703 c2.841-3.648,10.99-4.101,13.55,0.547c0.801-4.857,5.033-8.005,9.914-7.681c-5.313-8.598-7.845-16.127-6.997-23.669l10.902,8.787 l0,0L62.098,89.56l8.457-4.104l-13.148-3.12c3.431-7.228,10.03-14.848,20.295-23.746c-11.832-8.573-11.624,1.152-18.694,0.799 c-7.059-0.351-9.031-6.193-14.387-6.53c-8.786-0.553-10.384,10.667-20.429,5.721C19.663,56.35,17.438,57.55,13.786,61.393 L13.786,61.393z M28.494,57.217c-4.501-6.265-8.591-13.173-9.547-20.558c-2.223,6.755-10.346,3.088-8.622-2.149l1.626-4.943 l-4.643,2.344c-5.2,2.625-9.195-5.291-3.996-7.916l4.643-2.343l-4.942-1.627c-5.532-1.82-2.76-10.242,2.771-8.422l4.943,1.626 L8.381,8.581c-2.652-5.254,5.285-9.207,7.916-3.995l2.343,4.643l1.626-4.942c1.821-5.532,10.243-2.761,8.422,2.771L27.062,12 l4.649-2.346c5.199-2.625,9.194,5.291,3.995,7.915l-4.649,2.347L36,21.542c5.532,1.821,2.76,10.242-2.771,8.422l-4.943-1.627 l2.347,4.649c2.535,5.022-5.062,9.647-8.156,3.518C23.929,41.219,28.819,48,33.743,55.084 C32.192,56.293,30.605,57.318,28.494,57.217L28.494,57.217z M69.583,52.382c3.978-5.498,7.434-11.503,8.424-17.944 c2,6.602,9.96,3.233,8.41-1.885l-1.464-4.83l4.448,2.379c4.98,2.665,9.038-4.917,4.057-7.583l-4.447-2.379l4.83-1.463 c5.406-1.637,2.913-9.868-2.493-8.23l-4.83,1.463L88.9,7.456c2.693-5.033-4.911-9.049-7.582-4.057l-2.38,4.447l-1.463-4.83 c-1.638-5.406-9.868-2.913-8.23,2.493l1.463,4.831l-4.453-2.383c-4.981-2.665-9.038,4.917-4.058,7.583l4.453,2.383l-4.829,1.463 c-5.406,1.638-2.914,9.868,2.492,8.23l4.83-1.463l-2.383,4.454c-2.574,4.811,4.686,9.471,7.827,3.6 c-1.881,5.626-8.956,14.206-14.863,22.639c1.421-0.129,2.526-0.952,3.61-1.758C65.173,53.718,66.972,52.379,69.583,52.382 L69.583,52.382z M79.942,15.099c2.174,1.164,2.994,3.871,1.831,6.045s-3.871,2.994-6.045,1.831 c-2.174-1.164-2.994-3.871-1.831-6.044C75.061,14.756,77.768,13.936,79.942,15.099L79.942,15.099L79.942,15.099z M46.354,50.552 c-0.048-1.495,0.046-2.976,0.333-4.423c-2.713,3.623-6.867-0.239-4.763-3.047l1.985-2.65l-3.275,0.47 c-3.669,0.526-4.471-5.059-0.802-5.585l3.276-0.47l-2.651-1.985c-2.966-2.222,0.417-6.737,3.383-4.516l2.65,1.985l-0.471-3.28 c-0.532-3.708,5.058-4.479,5.585-0.802l0.471,3.276l1.984-2.65c2.222-2.966,6.738,0.416,4.517,3.382l-1.985,2.65l3.28-0.471 c3.668-0.526,4.47,5.059,0.802,5.585l-3.28,0.471l2.65,1.985c2.966,2.222-0.417,6.738-3.383,4.516l-2.65-1.985l0.471,3.28 c0.509,3.543-5.012,4.79-5.633,0.465c-0.036,1.383,0.249,3.144,0.71,5.132l-0.045-0.027l-0.012-0.007l-0.034-0.021l-0.046-0.027 l-0.027-0.016l-0.018-0.011L49.33,51.75l-0.043-0.025l-0.003-0.001l-0.046-0.026l-0.046-0.026l-0.014-0.007l-0.033-0.018 L49.1,51.619l-0.03-0.017l-0.017-0.009l-0.046-0.025l-0.047-0.025v0l-0.047-0.025l-0.047-0.025l-0.016-0.008l-0.032-0.016 l-0.047-0.024l-0.033-0.017l-0.015-0.007l-0.047-0.024l-0.048-0.023l-0.001-0.001l-0.046-0.023l-0.048-0.023l-0.048-0.023 l-0.049-0.023l-0.035-0.017l-0.013-0.006l-0.049-0.022l-0.048-0.022l-0.004-0.002l-0.045-0.021l-0.049-0.022l-0.049-0.021 l-0.049-0.021l-0.099-0.042l-0.05-0.021l-0.05-0.021l-0.05-0.021l-0.025-0.01l-0.025-0.01l-0.051-0.02l-0.043-0.017l-0.008-0.003 l-0.051-0.02l-0.051-0.02l-0.051-0.019l-0.052-0.019l-0.052-0.019l-0.052-0.018l-0.013-0.005l-0.04-0.013l-0.052-0.018h-0.001 l-0.104-0.035l-0.053-0.017l-0.053-0.017l-0.054-0.016l-0.107-0.032l-0.054-0.016l-0.05-0.014l-0.004-0.001l-0.055-0.015 l-0.055-0.014l-0.055-0.014l-0.055-0.014h-0.001l-0.055-0.014l-0.056-0.014l-0.056-0.013L46.354,50.552L46.354,50.552z M49.83,33.771c-1.602,0.229-2.714,1.715-2.484,3.317c0.229,1.601,1.714,2.714,3.316,2.484c1.602-0.229,2.714-1.715,2.484-3.316 C52.917,34.654,51.431,33.542,49.83,33.771L49.83,33.771L49.83,33.771z M17.428,16.679c-2.27,1.146-3.181,3.916-2.036,6.186 c1.145,2.269,3.916,3.181,6.185,2.035c2.27-1.146,3.181-3.916,2.036-6.185C22.467,16.445,19.697,15.534,17.428,16.679 L17.428,16.679L17.428,16.679z"/></g></svg>