<svg xmlns="http://www.w3.org/2000/svg" shape-rendering="geometricPrecision" text-rendering="geometricPrecision" image-rendering="optimizeQuality" fill-rule="evenodd" clip-rule="evenodd" viewBox="0 0 512 512"><path d="M322.62 254.95h-20.71v195.41h20.71V254.95zM111.53 2.02l105.89 36.64 3.26-9.41c.11-.32.23-.64.38-.94 3.69-9.25 13.28-14.76 23.08-13.35 2.56.37 4.75 1.19 7.16 2.03l60.97 21.1c.82.28 1.62.53 2.4.91 5.11 2.08 9.07 5.94 11.32 10.59 2.21 4.56 2.8 9.93 1.36 15.13-.17.61-.35 1.25-.55 1.83l-3.07 8.89 106.95 37.01c1.43.49 2.47.88 3.84 1.61 6.86 3.69 10.35 11.45 8.43 19.03-.21.82-.44 1.59-.72 2.38l-12.01 34.71c-1.67 4.85-6.97 7.41-11.81 5.74l-19.61-6.79a81.15 81.15 0 0 1 6.56 28.24c1.22.78 2.35 1.68 3.36 2.68 3.52 3.47 5.81 8.14 5.93 13.34.02 1.1-.11 2.21-.21 3.3L388.9 490.72c-.33 3.6-.93 6.8-2.75 10.18-3.52 6.55-10.03 11.1-18.14 11.1H117.06c-5.32 0-9.19-.47-13.67-3.53-5.28-3.61-8.74-9.7-9.35-16.46L68.66 215.9c-.08-.87-.16-1.82-.13-2.68.18-5.15 2.44-9.76 5.94-13.19 2.78-2.73 6.45-4.74 10.43-5.61-.19-.97-.3-1.96-.3-2.99v-66.36c0-8.26 6.76-15.02 15.02-15.02h78.92c8.25 0 15.01 6.76 15.01 15.02v22.45c12.39-10.17 28.24-16.28 45.52-16.28a71.52 71.52 0 0 1 32.54 7.79c4.18-3.5 8.71-6.6 13.54-9.22L79.45 58.63c-4.85-1.68-7.42-6.97-5.75-11.82l.07-.2 11.29-32.63C89.79.32 98.32-2.56 111.53 2.02zm143.75 252.93h-20.72v195.41h20.72V254.95zm-67.34 0h-20.71v195.41h20.71V254.95zm205.55-42.48H89.89c-1.99 0-2.94.34-2.75 2.45l25.11 273.2c.16 1.69.13 5.33 2.53 5.29h253.25c2.08 0 2.32-2.93 2.46-4.44l25.57-274.23c.16-1.77-.89-2.27-2.57-2.27zm-224.75-23.88h9.8v-52.32c0-5.98-4.9-10.87-10.88-10.87h-57.17c-5.98 0-10.87 4.89-10.87 10.87v52.32h69.12zm100.12 2.44H379.1c-2.52-15.25-11.22-28.4-23.44-36.82l-.15-.11-.23-.15-.38-.26-.38-.25-.02-.01-.37-.25-.39-.24-.26-.17-.13-.08-.4-.24-.39-.24-.11-.06-.29-.17-.4-.23-.36-.21-.04-.02-.4-.23-.41-.22-.41-.22-.41-.21-.41-.22-.06-.03-.35-.17-.42-.21-.32-.16-.09-.04-.42-.2-.43-.2-.16-.07-.26-.12-.43-.19-.42-.18-.01-.01-.42-.17-.71-.29-.16-.06-.84-.33-.02-.01-.12-.05-.32-.12-.44-.16-.4-.14-.04-.01-.45-.16-.44-.15-.24-.07-.21-.07-.45-.15-.45-.13-.06-.02-.39-.12-.45-.13-.35-.1-.11-.03-.45-.12-.46-.12-.18-.05-.28-.07-.46-.11-.46-.11h-.01l-.46-.1-.76-.17-.17-.03-.46-.09-.48-.09-.12-.03-.34-.06-.48-.08-.42-.07-.05-.01-.48-.07-.47-.07-.24-.04-.24-.03-.48-.06-.48-.05-.06-.01-.42-.05-.48-.05-.37-.03-.11-.01-.49-.04-.48-.04-.19-.01-.3-.02c-1.18-.08-2.37-.12-3.57-.12-27.51 0-50.44 19.73-55.12 46.67z"/></svg>