<svg xmlns="http://www.w3.org/2000/svg" viewBox="0 0 122.88 97.05"><title>gardener</title><path d="M89.26,60.7h12.29V21.12C95,17.87,96.74,6.94,104.71,6.94s9.71,10.91,3.15,14.19V60.71h12.52a2.51,2.51,0,0,1,2.5,2.5V78.88a18.22,18.22,0,0,1-18.17,18.17h0A18.23,18.23,0,0,1,86.54,78.88V63.43a2.73,2.73,0,0,1,2.72-2.73Zm-64-39.25.16.1c2.29,1.34,7.26,2.26,12.6,2.58s11.07,0,14.72-1.11a5.9,5.9,0,0,0,3-1.6V12.2a9.51,9.51,0,0,0-9.47-9.47H35.59A10.38,10.38,0,0,0,25.25,13.07v8.38Zm33.16-2.61a29.54,29.54,0,0,1,7.18,2.39c2.24,1.18,3.5,2.63,3.5,4.31,0,2.66-3.47,4.88-9.09,6.32l-.78.19v2.54a21.09,21.09,0,0,1-1.86,9.08A25.72,25.72,0,0,1,53,50c2.09,8,5.18,8.53,9.21,9.27a21.5,21.5,0,0,1,11,4.66c7.43,6.09,7.4,14.72,7.38,23.13v4.79a1.37,1.37,0,0,1-1.36,1.37H1.37A1.37,1.37,0,0,1,0,91.89v-4.7C0,78.77-.06,70.07,7.39,64c4.19-3.44,8-4.09,11.43-4.67,4.24-.73,7.66-1.31,9.75-8.78a18.22,18.22,0,0,1-4.34-6.94A32,32,0,0,1,23,33.41v-1c-.85-.17-1.65-.36-2.42-.55-5.61-1.44-9.08-3.66-9.08-6.32,0-1.68,1.26-3.14,3.5-4.32a30.32,30.32,0,0,1,7.5-2.45v-5.7A13.11,13.11,0,0,1,35.59,0H46.21a12.26,12.26,0,0,1,12.2,12.2v6.64Zm-29,14.54c-1.28-.14-2.51-.3-3.69-.49v.52a29.7,29.7,0,0,0,1.07,9.32A16.08,16.08,0,0,0,31,49.15l.59.59c2.9,2.75,5.84,4.22,8.74,4.33h.06a12.56,12.56,0,0,0,4.51-1,16.46,16.46,0,0,0,4.57-3.29l.54-.55a25,25,0,0,0,4.83-6.74,18.36,18.36,0,0,0,1.61-7.94V32.77a80.32,80.32,0,0,1-15,1.47,82.33,82.33,0,0,1-12-.86ZM46.18,55.54a12.72,12.72,0,0,1-5.61,1.26h-.24a14.12,14.12,0,0,1-9.65-3.87,14.49,14.49,0,0,1-3.41,5.93L40.46,66l13.66-7.38a16,16,0,0,1-3.14-6,21.6,21.6,0,0,1-4.8,2.84Zm10,5.05a1.1,1.1,0,0,1-.28.2l-14.8,8a1.36,1.36,0,0,1-1.3,0L24.75,60.57a13.15,13.15,0,0,1-1.85.67v14.3H56.19v-15Zm-41.61,15h1.51V62.62a17,17,0,0,0-7,3.45C2.67,71.36,2.7,79.4,2.72,87.19v3.33h9V78.42a2.89,2.89,0,0,1,2.88-2.88Zm48.42,0h3a2.9,2.9,0,0,1,2.89,2.88v12.1h9V87.1c0-7.77,0-15.75-6.39-21A18,18,0,0,0,63,62.22V75.54Z"/></svg>