<svg id="Layer_1" data-name="Layer 1" xmlns="http://www.w3.org/2000/svg" viewBox="0 0 122.88 121.38"><defs><style>.cls-1{fill:#8c5d0f;}.cls-2{fill:#af7311;}.cls-3{fill:#56b320;}.cls-4{fill:#4da11d;}</style></defs><title>green-tree</title><path class="cls-1" d="M81.53,72.75l5,3.46c-.81,1.9-1.53,3.57-2.19,5.11-6.13,14.24-7.83,18.19-8.21,38l0,2.06H49.42v-2.09c0-19.82-.54-20.63-8-31.87-1.4-2.11-3.7-5.71-5.68-8.81,1.66-14.28,34.36-12.79,45.81-5.86Z"/><polygon class="cls-2" points="67.62 95.31 67.62 106.38 67.62 108.47 65.53 108.47 62.21 108.47 62.21 104.29 63.44 104.29 63.44 95.32 67.62 95.32 67.62 95.31 67.62 95.31"/><polygon class="cls-2" points="52.94 79.11 61.41 93.13 57.83 95.28 49.35 81.27 52.94 79.11 52.94 79.11 52.94 79.11"/><path class="cls-3" d="M31.47,80.06l4.19-1.55h0a37.64,37.64,0,0,0,10.18-7,43.48,43.48,0,0,0,3.22,3.17c4.29,3.73,8.73,5.74,13.24,5.9s9.07-1.52,13.5-5.19a34.8,34.8,0,0,0,2.87-2.66l5.2,3.61a20.55,20.55,0,0,0,3.44,1.47,14.8,14.8,0,0,0,11-.49,18.36,18.36,0,0,0,8.06-7.81A36.16,36.16,0,0,0,110.55,55c6.31-4.34,10-9.18,11.51-13.89A15.46,15.46,0,0,0,122,30.93a17.3,17.3,0,0,0-6.23-8c-4.39-3.21-10.65-5.13-18.12-4.95-1.23-1.81-2.5-3.49-3.78-5C87.56,5.36,80.88,1.34,74.08.29S60.37,1.16,53.75,5.5C52.6,6.24,51.46,7.08,50.3,8,39.23,3,28.58,2.59,20,5.17A30.22,30.22,0,0,0,6.57,13.22,23.65,23.65,0,0,0,.19,26.45c-.76,5.93.73,12.48,5.15,19C2.45,55,3,63.05,5.74,69.07a20.41,20.41,0,0,0,8.14,9.17A21,21,0,0,0,25.78,81a25.79,25.79,0,0,0,5.69-1Zm0,0Z"/><path class="cls-4" d="M86.17,17.68c-3.54-5.07-7.55-8-11.83-9.18-4.53-1.23-9.28-.44-14.06,2-.81.41-1.64.88-2.47,1.41l2.49,3.27.16.09c.84-.53,1.68-1,2.5-1.42,4.78-2.42,9.53-3.22,14.06-2a19.46,19.46,0,0,1,9.15,5.84ZM9.43,51.21C8,57.72,8.73,63.08,10.86,67a13.93,13.93,0,0,0,4.89,5.22,14.23,14.23,0,0,1-1.65-2.41c-2.15-3.93-2.89-9.33-1.4-15.91l-.09-.11L9.43,51.21ZM19.56,12a20.38,20.38,0,0,0-9.08,5.45,16,16,0,0,0-4.32,9c-.52,4,.49,8.45,3.49,12.87l0,.13,3,2.79A18.53,18.53,0,0,1,9.19,29.38a16.05,16.05,0,0,1,4.32-8.95A20.38,20.38,0,0,1,22.59,15c5.77-1.73,12.91-1.45,20.35,1.84-5.82-6-15.48-7.24-23.38-4.87Z"/></svg>