<svg id="Layer_1" data-name="Layer 1" xmlns="http://www.w3.org/2000/svg" viewBox="0 0 122.88 98.74"><defs><style>.cls-1{fill:#462323;}.cls-1,.cls-2,.cls-3{fill-rule:evenodd;}.cls-2{fill:#313131;}.cls-3{fill:#69c229;}</style></defs><title>greenhouse</title><path class="cls-1" d="M10.52,55.63V53.84a8.44,8.44,0,0,1-5.8.27,6.87,6.87,0,0,1-3.2-2.24A7,7,0,0,1,.05,48.26a9.08,9.08,0,0,1,2.19-6.73h0a1.82,1.82,0,0,1,.31-.31L60,.51a1.91,1.91,0,0,1,2.47-.1L120,41h0a1.51,1.51,0,0,1,.23.21,8.6,8.6,0,0,1,2.44,7.93A7.42,7.42,0,0,1,121,52.36a7.12,7.12,0,0,1-3,2,8,8,0,0,1-6.2-.4h0L105,50.18C97,44.09,65.1,22.06,61.63,19.37,58.25,22,30.3,40.79,19.7,48.55h0c-1.68,1.23-2.93,2.18-3.57,2.75l-5.61,4.32ZM96.28,3.26,112,3.9V25.09L96.28,14.73V3.26Z"/><polygon class="cls-2" points="111.85 53.97 111.85 98.74 106.73 98.74 106.73 51.16 111.85 53.97 111.85 53.97"/><polygon class="cls-2" points="10.52 98.74 10.52 55.63 15.64 51.69 15.64 98.74 10.52 98.74 10.52 98.74 10.52 98.74"/><polygon class="cls-2" points="10.52 96.18 106.73 96.18 106.73 98.74 10.52 98.74 10.52 96.18 10.52 96.18 10.52 96.18"/><path class="cls-3" d="M31,94.18c-2.94.84-4.6,2.37-5,4.56H97c-1.9-4.88-6.52-5.11-12-5h-.12a54.19,54.19,0,0,0,1-13.93,23.52,23.52,0,0,0-4.09-12.07.88.88,0,0,0-.59-.37.87.87,0,0,0-1,.73,103.73,103.73,0,0,0-.92,18,12.47,12.47,0,0,1-1,6.45,158.92,158.92,0,0,1-1.84-18.24,161.58,161.58,0,0,1,.4-20A.88.88,0,0,0,75,54.11,116.45,116.45,0,0,0,72.15,67,120.49,120.49,0,0,0,70.7,80.71v.1l.12,3.52A104.2,104.2,0,0,1,66.8,66c-.88-8.14-.19-16.2,3.54-24a.88.88,0,0,0-1.48-.93h0q-5.73,7-7.44,18.93T62,88.59a.13.13,0,0,0,0,.06h0l1,5.13H56.57l1.24-6.24h0a.11.11,0,0,0,0-.06q2.73-20,.7-34.11T49.66,30.81h0a.88.88,0,0,0-1.48.93c4.48,9.33,5.31,19,4.25,28.77a127.7,127.7,0,0,1-5.2,23.23l.2-5.55v-.1A148,148,0,0,0,45.7,61.68,141.1,141.1,0,0,0,42.29,46.3a.88.88,0,0,0-1.74.26A192.21,192.21,0,0,1,41,70.49a193.81,193.81,0,0,1-2.3,22.45c-2.06-3.78-1.91-5.64-1.66-8.93.07-.88.15-1.86.2-3.09a85.87,85.87,0,0,0-.11-8.78c-.19-3-.54-6.08-1-9.09a.88.88,0,0,0-1-.73.85.85,0,0,0-.59.37A27.89,27.89,0,0,0,29.7,77,66.32,66.32,0,0,0,31,94.18Z"/></svg>