<svg id="Layer_1" data-name="Layer 1" xmlns="http://www.w3.org/2000/svg" viewBox="0 0 112.18 122.88"><defs><style>.cls-1{fill:#34a12e;}.cls-2{fill:#333;fill-rule:evenodd;}</style></defs><title>green-energy</title><path class="cls-1" d="M9.9,45.46a2.75,2.75,0,0,1,.4.26C23.41,30,28.28,29.07,31.75,9.81,26.68,21.23,12.49,30.61,9.9,45.46Zm.4,9A48.33,48.33,0,0,0,9.5,77.8a46,46,0,0,0,13.32,23.46,50,50,0,0,0,16.65,10.53,49.44,49.44,0,0,0,27.58,2.29A45.56,45.56,0,0,0,91,100.93a46.82,46.82,0,0,0,9.74-15.62,54.09,54.09,0,0,0,3.6-22.21A50.25,50.25,0,0,0,98.51,42,47.37,47.37,0,0,0,73.74,20.1a3.9,3.9,0,0,1,2.81-7.28,55.15,55.15,0,0,1,28.84,25.55A58,58,0,0,1,112.1,62.7,62.06,62.06,0,0,1,108,88.09a54.43,54.43,0,0,1-11.4,18.21,53.38,53.38,0,0,1-28,15.42,57.27,57.27,0,0,1-31.92-2.62,58.08,58.08,0,0,1-19.25-12.18A53.8,53.8,0,0,1,1.86,79.45,56.16,56.16,0,0,1,3.23,50.79C-9.5,18,18.31,12.43,35.4,0c13.89,34.43.16,51.19-25.1,54.42Z"/><path class="cls-2" d="M76.89,70.87a2.44,2.44,0,0,0,2.36-2.43V65.61a2.44,2.44,0,0,0-2.43-2.44H69.58v-15a3.88,3.88,0,0,0-3.86-3.86h0a3.87,3.87,0,0,0-3.86,3.86v15H50.53v-15a3.88,3.88,0,0,0-3.86-3.86h0a3.87,3.87,0,0,0-3.86,3.86v15H35.37a2.45,2.45,0,0,0-2.44,2.44v2.83a2.45,2.45,0,0,0,2.36,2.43h2v5.85c0,10.36,4.38,15.43,14.93,16.7V103h8.16V93.32c10.45-1,14.93-7.15,14.93-17.18V70.87h1.59ZM46,73H66.57V76H46V73Z"/></svg>