<svg xmlns="http://www.w3.org/2000/svg" shape-rendering="geometricPrecision" text-rendering="geometricPrecision" image-rendering="optimizeQuality" fill-rule="evenodd" clip-rule="evenodd" viewBox="0 0 512 401.97"><path d="M109.92 159.66v-93.1h50.43v93.1h-50.43zM16.28 0h60.68c8.95 0 16.28 7.35 16.28 16.28v385.69H0V16.28C0 7.33 7.33 0 16.28 0zm162.86 147.3V84.36c149.75-11.77 251.02 42.6 259.4 154.3 2.67 6.78 3.97 12.6 4.03 17.56 8.31-5.29 16.67-10.18 27.41-11.38 13.81-1.52 28.88 4.98 41.7 10.48l.32.16v39.34c-2.75-.81-5.6-1.91-8.54-3.11-2.04-.84-4.14-1.74-6.28-2.65-8.76-3.75-19.08-8.22-23.19-7.77-3.3.36-8.51 3.69-13.81 7.09-1.94 1.23-3.92 2.49-5.89 3.72-9.83 5.98-20.51 11.1-34.58 10.03-11.45-.88-20.77-5.02-30.12-9.19l-.8-.36c-6.99-3.1-14.01-6.11-19.96-5.92-3.66.14-8.9 3.08-14.2 6.18l-1.23.71c-10.52 6.22-21.06 12.42-35.84 11.88-12.07-.46-22.23-5.96-32.22-11.42l-1.26-.68c-5.57-3.04-10.9-5.82-13.46-5.89-7.83-.19-16.85 2.94-25.62 6.18l-1.52.55c-15.33 5.66-29.95 11.03-47.29 6.5-9.32-2.42-16.37-4.56-22.84-6.5l-.19-.07c-13.78-6.76-42.13-7.59-60.1-2.84v-37.59c3.3-.86 6.5-1.61 9.64-2.23 5.55-1.38 10.95-1.93 16.39-1.86 5.44-.07 10.84.48 16.39 1.86 8.75 1.72 17.98 4.49 28.32 7.6 7.02 2.1 14.65 4.4 21.54 6.21 6.15 1.62 15.59-1.88 25.49-5.53 6.86-2.53 13.87-5.11 21.39-6.84C235 211.91 241.5 152.61 179.14 147.3zm135.97-13.57c-3.57-1.31-5.41-5.27-4.1-8.84 1.31-3.57 5.27-5.41 8.84-4.1 24.24 8.98 47.71 27.78 65.57 50.86 17.52 22.63 29.78 49.55 32.26 75.56.35 3.78-2.42 7.14-6.2 7.49-3.78.36-7.14-2.41-7.49-6.19-2.22-23.33-13.43-47.74-29.46-68.45-16.35-21.13-37.62-38.26-59.42-46.33zm-57.13 81.11c-3.07-2.24-3.73-6.55-1.49-9.62a6.877 6.877 0 0 1 9.62-1.48c5.85 4.28 10.98 9.86 15.26 16.14 4.53 6.61 8.15 14.06 10.71 21.61 1.21 3.6-.72 7.51-4.32 8.73a6.886 6.886 0 0 1-8.73-4.31c-2.17-6.41-5.23-12.71-9.03-18.27-3.44-5.05-7.49-9.48-12.02-12.8zm13.58-47.27c-3.58-1.26-5.47-5.2-4.2-8.78 1.26-3.59 5.2-5.47 8.78-4.21 14.96 5.32 32.6 16.75 47.19 31.1 12.96 12.72 23.67 27.9 28.27 43.37 1.07 3.65-1.01 7.48-4.66 8.55-3.64 1.06-7.47-1.02-8.54-4.67-3.88-13.05-13.27-26.2-24.72-37.44-13.18-12.97-28.92-23.23-42.12-27.92zm-87.76 160.1c7.02 2.1 14.65 4.4 21.54 6.21 6.15 1.62 15.59-1.88 25.49-5.53 12.36-4.56 25.23-9.29 40.66-8.9 11.65.3 21.45 5.63 31.35 11.03 6.21 3.4 12.52 6.83 16.01 6.96 4.01.13 9.97-3.37 15.92-6.86 9.7-5.73 19.4-11.45 32.89-11.9 14.5-.49 25.72 4.49 36.85 9.44 6.34 2.82 12.65 5.63 17.92 6.02 4.98.39 11.64-3.88 18.11-7.99 9-5.76 17.83-11.39 29.44-12.68 13.81-1.52 28.88 4.98 41.7 10.48l.32.16v39.34c-2.75-.81-5.6-1.91-8.54-3.11-2.04-.84-4.14-1.74-6.28-2.65-8.76-3.75-19.08-8.22-23.19-7.77-3.3.36-8.51 3.69-13.81 7.09-1.94 1.23-3.92 2.49-5.89 3.72-9.83 5.98-20.51 11.09-34.58 10.03-11.45-.88-20.77-5.02-30.12-9.19l-.8-.36c-6.99-3.1-14.01-6.11-19.96-5.92-3.66.14-8.9 3.08-14.2 6.18l-1.23.71c-10.52 6.21-21.06 12.42-35.84 11.87-12.07-.45-22.23-5.94-32.22-11.41l-1.26-.68c-5.57-3.04-10.9-5.82-13.46-5.89-7.83-.19-16.85 2.94-25.62 6.18l-1.52.55c-15.33 5.66-29.95 11.03-47.29 6.5-9.32-2.42-16.37-4.56-22.84-6.5l-.19-.07c-13.99-7.46-42.27-8.28-60.1-3.13v-37.25c26.02-6.72 36.55-4.95 70.74 5.32z"/></svg>