<svg id="Layer_1" data-name="Layer 1" xmlns="http://www.w3.org/2000/svg" viewBox="0 0 122.88 115.02"><title>heat-wave</title><path d="M121.38,52.72l.24.19a3.52,3.52,0,0,1,.57,4.8L122,58a4,4,0,0,1-2.61,1.36,4.15,4.15,0,0,1-2.86-.72c-2.59-1.87-4.77-2.24-6.81-1.8a20.36,20.36,0,0,0-6.27,3.14l0,0c-3.3,2.13-6.84,4.41-11.25,5.51s-9.74,1-16.48-1.6l-.24-.1a3.7,3.7,0,0,1-1.87-1.91l0,0a3.51,3.51,0,0,1,0-2.59l.12-.27A3.84,3.84,0,0,1,75.81,57a4.25,4.25,0,0,1,3,0c4.79,1.87,8.6,1.89,11.82,1a29.4,29.4,0,0,0,8.46-4.22l0,0c6.81-4.36,12.66-8.12,22.31-1.13ZM62,24.83V90.19a33.6,33.6,0,0,1-4.51.31,33,33,0,0,1,0-66h0a33.49,33.49,0,0,1,4.51.31ZM60.44,3.7a3.7,3.7,0,1,0-7.39,0v9.46a3.7,3.7,0,1,0,7.39,0V3.7ZM33.13,9.45a3.68,3.68,0,1,0-6.38,3.67l4.74,8.19a3.68,3.68,0,0,0,6.38-3.66l-4.74-8.2ZM12.37,28.07a3.69,3.69,0,0,0-3.7,6.38l8.2,4.73a3.68,3.68,0,1,0,3.69-6.37l-8.19-4.74ZM3.7,54.58A3.7,3.7,0,1,0,3.7,62h9.46a3.7,3.7,0,1,0,0-7.39ZM9.45,81.89a3.68,3.68,0,1,0,3.67,6.38l8.19-4.74a3.67,3.67,0,1,0-3.66-6.37l-8.2,4.73Zm18.62,20.76a3.69,3.69,0,1,0,6.38,3.7l4.73-8.2a3.69,3.69,0,0,0-6.38-3.69l-4.73,8.19Zm26.51,8.68a3.7,3.7,0,0,0,7.39,0v-9.47a3.7,3.7,0,0,0-7.39,0v9.47Zm66.82-81,.22.17a3.56,3.56,0,0,1,.57,4.81l-.19.24a4.13,4.13,0,0,1-5.48.64c-2.6-1.87-4.78-2.23-6.81-1.79a20.14,20.14,0,0,0-6.27,3.14h0c-3.29,2.13-6.84,4.41-11.26,5.52s-9.75,1-16.48-1.6l-.25-.1a3.75,3.75,0,0,1-1.86-1.91,3.52,3.52,0,0,1,0-2.65l.12-.27a3.86,3.86,0,0,1,2.15-1.9,4.14,4.14,0,0,1,3,0,18.57,18.57,0,0,0,11.82,1A29.47,29.47,0,0,0,99,31.43l.06,0c6.79-4.34,12.64-8.08,22.28-1.12l0,0Zm0,44.87.24.18a3.56,3.56,0,0,1,.57,4.81l-.19.24a4,4,0,0,1-2.62,1.37,4.15,4.15,0,0,1-2.86-.72c-5.18-3.75-8.83-1.4-13.07,1.33l0,0c-3.29,2.13-6.84,4.41-11.26,5.52s-9.74,1-16.48-1.6l-.25-.1a3.72,3.72,0,0,1-1.86-1.91,3.54,3.54,0,0,1,0-2.64l.11-.24a3.89,3.89,0,0,1,2.17-1.94,4.19,4.19,0,0,1,3,0c4.79,1.87,8.6,1.89,11.82,1a29.4,29.4,0,0,0,8.46-4.22l0,0c6.81-4.37,12.66-8.12,22.31-1.13Z"/></svg>