<svg id="Layer_1" data-name="Layer 1" xmlns="http://www.w3.org/2000/svg" viewBox="0 0 84.02 122.88"><defs><style>.cls-1{fill:#5c9840;fill-rule:evenodd;}.cls-2{fill:#a0ba4c;}</style></defs><title>leaf-green</title><path class="cls-1" d="M37.36,109.06c74.46,5,40.47-74.8,28.22-101-.35-.75-3.5-8.25-3.79-8.09-.18-.3-7,4.9-7.73,5.4C30,22.24-38.2,74,28.42,106.67L26,115.78c-2.9,8.24,7.89,9.59,8.91,2.56l2.48-9.28Z"/><path class="cls-2" d="M34.76,91.64a41.22,41.22,0,0,1-7.66-12,78.33,78.33,0,0,1-5.23-17.26L21,57.47l2.1,5.33c3.5,8.87,8.26,20.94,12.75,25.07l5.24-17.45a48.34,48.34,0,0,1-7.79-11.25,48.63,48.63,0,0,1-4.14-13L28.38,42l1.71,3.95A137.43,137.43,0,0,0,36.38,59a27,27,0,0,0,5.83,7.63L46,54.06a46.52,46.52,0,0,1-7.27-11.19,48.54,48.54,0,0,1-3.75-13l-.67-4.39,1.63,4.13A134.11,134.11,0,0,0,41.7,42.73c1.78,3.36,3.59,6,5.44,7.5L56.81,18l1,.26-6.85,28c2.34-.38,5.2-1.76,8.39-3.76a138.16,138.16,0,0,0,11.54-8.44l3.48-2.76-2.78,3.46a48.83,48.83,0,0,1-9.71,9.35,46.47,46.47,0,0,1-11.87,6L46.86,62.88a28.17,28.17,0,0,0,8.9-3.72,139.62,139.62,0,0,0,12-8.1l3.44-2.53-2.77,3.26a48.64,48.64,0,0,1-10.1,9.09,49.19,49.19,0,0,1-12.39,5.81L41.39,85.25A43.09,43.09,0,0,0,51.45,80a122.25,122.25,0,0,0,14.2-11.11l3-2.77L66.4,69.5A49.73,49.73,0,0,1,55.07,80.93,58.65,58.65,0,0,1,40.41,89.1L33.5,106.41l1.26-14.77Z"/></svg>