<svg id="Layer_1" data-name="Layer 1" xmlns="http://www.w3.org/2000/svg" viewBox="0 0 122.88 86.48"><defs><style>.cls-1{fill-rule:evenodd;}</style></defs><title>hot-springs</title><path class="cls-1" d="M103.76,30.43c11.78,5.92,19.12,14.29,19.12,23.56,0,17.95-27.51,32.49-61.44,32.49S0,71.94,0,54c0-9.7,8-18.4,20.77-24.35C8,37,1.77,49.22,14,60.42,23.16,68.86,41,74.58,61.6,74.58c18.3,0,34.49-4.54,44.3-11.49,14.49-10.27,12.38-23.68-2.14-32.66ZM86,4.33A3.26,3.26,0,0,0,83.73.17a3.66,3.66,0,0,0-4.51,2.07c-4.26,11.7-1.19,20,1.5,27.27C83,35.77,85,41.13,79.82,47.17a3.1,3.1,0,0,0,.6,4.59,3.77,3.77,0,0,0,5-.54c7.62-8.85,5.07-15.76,2.07-23.84-2.36-6.29-5-13.46-1.52-23Zm-22.34,0A3.23,3.23,0,0,0,61.39.17a3.64,3.64,0,0,0-4.51,2.06c-4.25,11.7-1.19,20,1.5,27.27,2.32,6.26,4.31,11.62-.89,17.66a3.09,3.09,0,0,0,.59,4.59,3.79,3.79,0,0,0,5-.54c7.62-8.85,5.06-15.76,2.07-23.83-2.37-6.3-5-13.46-1.53-23.06Zm-22.33,0A3.25,3.25,0,0,0,39.06.18a3.65,3.65,0,0,0-4.51,2.06c-4.26,11.7-1.19,20,1.5,27.27,2.32,6.26,4.3,11.63-.9,17.66a3.1,3.1,0,0,0,.6,4.59,3.77,3.77,0,0,0,5-.54c7.62-8.85,5.06-15.76,2.07-23.83-2.36-6.29-5-13.48-1.52-23.06Z"/></svg>