<svg id="Layer_1" data-name="Layer 1" xmlns="http://www.w3.org/2000/svg" viewBox="0 0 94.14 122.88"><defs><style>.cls-1{fill-rule:evenodd;}</style></defs><title>iceberg</title><path class="cls-1" d="M10.46,67.8l0-.1A14.28,14.28,0,0,0,12,67.41l.3-.08,1.78-.51,1.18-.34A5.2,5.2,0,0,0,16.62,66a10,10,0,0,1,2.77-.29,8.27,8.27,0,0,1,2.77.31,5.31,5.31,0,0,0,.83.33h0l1.65.48,2,.55.58.12a13.38,13.38,0,0,0,5.56,0,25.48,25.48,0,0,0,4.32-1.31l.17-.06.23-.09.29-.13q.45-.16.9-.3l.09,0h0l.35.19a16.21,16.21,0,0,0,8,2.37,16.27,16.27,0,0,0,8.1-2.44l0,0h0l.06,0,.22-.13c.41.12.81.26,1.2.41v0a24,24,0,0,0,4.68,1.44,14,14,0,0,0,6.12-.15h.06l2-.55,1.33-.38a5.32,5.32,0,0,0,1.36-.52,10.18,10.18,0,0,1,2.56-.23,8.81,8.81,0,0,1,2.94.35,5.17,5.17,0,0,0,1,.37l1.37.39,2,.57.07,0h0a14.21,14.21,0,0,0,1.5.3V77l-5.82,5.6-5.38-9.86-6.26,27.77L53.9,122.88l-14.55-6.49L36.21,104.3l-9.85-8.74-.67-17.91-9.18,4.93L10.46,67.8Zm42.12-6.67a8.25,8.25,0,0,1,2.24-1,11.47,11.47,0,0,1,3.89,1c2.34.95,4.89,1.74,7.41,1.08,1.42-.38,2.49-.69,3.47-1h0C72.08,60,77.54,60,80,61.19h0c1,.3,2.06.62,3.46,1,2.66.67,4.88-.14,7.2-1a21.56,21.56,0,0,1,3.46-1v-5.6a17.51,17.51,0,0,0-5.36,1.35c-1.5.56-3,1.09-3.88.84s-2.21-.63-3.28-1c-1.57-.47-3-.89-4.31-1.15a10.07,10.07,0,0,0-2.38-.29,10.37,10.37,0,0,0-2.6.29c-1.34.26-2.74.69-4.31,1.15-1.07.32-2.23.67-3.28,1s-2.37-.28-3.88-.84l-3.94-1.19a5.68,5.68,0,0,0-4.45,0c-2.65,1.4-8.14,1.4-10.79,0a5.71,5.71,0,0,0-4.46,0l-3.94,1.19c-1.51.56-2.94,1.09-3.88.84s-2.21-.63-3.28-1c-1.57-.46-3-.89-4.3-1.15a9.82,9.82,0,0,0-2.35-.29h-.26a10.07,10.07,0,0,0-2.38.29c-1.33.26-2.73.68-4.31,1.15-1.06.32-2.23.67-3.28,1s-2.37-.28-3.87-.84A17.57,17.57,0,0,0,0,54.59v5.6a15.14,15.14,0,0,1,3.22.91l.25.08c2.31.86,4.53,1.67,7.19,1,1.41-.37,2.48-.69,3.46-1h0c2.45-1.15,7.91-1.2,10.36,0h0c1,.3,2.05.61,3.47,1,2.63.69,4.85-.13,7.19-1l.23-.09a11.37,11.37,0,0,1,3.88-1,7.4,7.4,0,0,1,2,.9l.19.11c4.28,2.35,6.75,2.35,11,0ZM79.32,49.59,71.69,25.25,64.24,41.78,51.6,8.36,38.33,24.52l-6,17.25-3.13-2.56-6.27-9.86L14.57,49.66c-1.1.26-2.21.6-3.41,1l-.18.06c-1.3.39-.72.23-1.6.48l-.79.22a1.43,1.43,0,0,1-.27-.09L20.51,21.43,29.4,35.21l3.38-15.66L50.88,0l13,34.68,7.6-18.83,10,34.33c-.76-.22-1.49-.41-2.21-.59ZM55.14,65.69l-.09-.15H55l.08.14.07,0Zm-.23-.18c-.35,0-.07.09.16.16L55,65.53l-.08,0Z"/></svg>