<svg id="Layer_1" data-name="Layer 1" xmlns="http://www.w3.org/2000/svg" viewBox="0 0 113.76 122.88"><defs><style>.cls-1,.cls-3{fill:#5c9840;}.cls-1,.cls-4{fill-rule:evenodd;}.cls-2{fill:#a0ba4c;}.cls-4{fill:#7ebc1b;}.cls-5{fill:#629907;}</style></defs><title>leafs-color</title><path class="cls-1" d="M33.81,98.68C101.18,103.22,70.42,31,59.34,7.33,59,6.65,56.17-.14,55.91,0c-.16-.28-6.36,4.44-7,4.88-21.77,15.23-83.47,62-23.2,91.62l-2.21,8.25c-2.62,7.45,7.14,8.68,8.06,2.32l2.25-8.4Z"/><path class="cls-2" d="M24.92,105.79,31.1,84a27.7,27.7,0,0,0,2.83,6.89L29.7,107.15l0,.06a2.31,2.31,0,0,1-1.73,1,3.16,3.16,0,0,1-1,0,3,3,0,0,1-.93-.36A2.37,2.37,0,0,1,24.91,106v-.09l0-.09Zm5.77-23.7a38.71,38.71,0,0,1-6.17-10,70.77,70.77,0,0,1-4.73-15.62L19,52l1.9,4.82c2.61,6.61,6,15.18,9.37,20.09a27.24,27.24,0,0,0,.43,5.18Zm3.86-21.5a41.57,41.57,0,0,1-4.43-7.05A43.85,43.85,0,0,1,26.37,41.8L25.68,38l1.55,3.57A122.86,122.86,0,0,0,32.92,53.4a35.2,35.2,0,0,0,3,4.55c-.49.88-.94,1.76-1.37,2.64Zm6.91-11.18.15-.5A42,42,0,0,1,35,38.79a44,44,0,0,1-3.38-11.73l-.62-4,1.48,3.74a121.45,121.45,0,0,0,5.23,11.84,22.3,22.3,0,0,0,4.91,6.78L51.4,16.3l.87.24L46.08,41.87a11.74,11.74,0,0,0,2.14-.59c-2.4,2.63-4.68,5.34-6.76,8.13Z"/><path class="cls-3" d="M113.54,72.55c1.67,22.09-5.72,41.06-36.18,41a75.23,75.23,0,0,0-10.86.59,9,9,0,0,1-3.81,0,12,12,0,0,1-3.91-2.18c-1.62-1.14-4.2-3-8.61-5.63C24.23,90.52,27.08,70.54,39.26,52.5c11.4-16.87,31.34-31.83,41.9-39.21l.92-.69c1.65-1.22,4.7-3.49,5.92-4.2,1.73-1,3.22-1.07,4.39.11a5.88,5.88,0,0,1,1,1.4c.63,1.11,2,4.33,2.8,6.13.12.28.17.41.48,1.06h0c5.37,11.46,15.28,34.82,16.84,55.44Z"/><path class="cls-4" d="M77.36,110c55.1.18,26.74-69,16.2-91.47-.32-.68-3.16-7.47-3.43-7.32-.16-.28-6.35,4.44-7,4.88C62.43,30.62,4.92,74.76,52,103.3c18,10.93,4.9,6.68,25.4,6.74Z"/><path class="cls-5" d="M59.24,118.42l6.84-24.19a37.24,37.24,0,0,1-6.9-10.81,71,71,0,0,1-4.73-15.63l-.8-4.44,1.9,4.81c3.16,8,7.47,19,11.54,22.7l4.74-15.79a43.87,43.87,0,0,1-7-10.18A43.62,43.62,0,0,1,61,53.15l-.69-3.82,1.54,3.57a127.51,127.51,0,0,0,5.7,11.86,24.51,24.51,0,0,0,5.27,6.9l3.42-11.39a42,42,0,0,1-6.58-10.12,44.26,44.26,0,0,1-3.38-11.73l-.62-4,1.48,3.73A121.81,121.81,0,0,0,72.39,50a22.22,22.22,0,0,0,4.92,6.78l8.75-29.14.87.23-6.2,25.33a22.26,22.26,0,0,0,7.59-3.4,124.1,124.1,0,0,0,10.45-7.64l3.14-2.5L99.4,42.82a44.24,44.24,0,0,1-8.79,8.45,41.88,41.88,0,0,1-10.74,5.47L77.06,68.25a25.76,25.76,0,0,0,8-3.36A128.46,128.46,0,0,0,96,57.56l3.12-2.3-2.51,3a43.83,43.83,0,0,1-9.14,8.23A44,44,0,0,1,76.21,71.7l-4.1,16.79a39,39,0,0,0,9.1-4.78,110.12,110.12,0,0,0,12.85-10l2.75-2.51-2.07,3.09A44.9,44.9,0,0,1,84.49,84.58,53.33,53.33,0,0,1,71.26,92L64,119.7c-.05.22-.1.46-.15.7l-.11.52c-.32,1.4-.8,2.32-3,1.82s-2.31-1.45-2-2.74c.08-.33.19-.67.31-1l.17-.55Z"/></svg>