<svg id="Layer_1" data-name="Layer 1" xmlns="http://www.w3.org/2000/svg" viewBox="0 0 110.04 122.88"><title>leaf-line</title><path d="M95.79,7.52a225.35,225.35,0,0,0-29.63,8.55c-1.23.46-2.46.94-3.67,1.43-.42,3.1-1,6.14-1.63,9.18a86.35,86.35,0,0,0-2,14.2l1.29-1.36a2,2,0,0,1,.2-.21A297.61,297.61,0,0,1,95.79,7.52ZM66.59,81.05c-13.23,6.26-25.2,6.41-36.21,6.56l-2.94,0q-3.61,5.16-7.14,10.52a2.61,2.61,0,0,1-.19.27l-1.36,2.08c2.15-.41,4.23-.75,6.32-1.1,9.71-1.63,19.47-3.26,35.32-11a91.53,91.53,0,0,0,6.2-7.39ZM31,82.58c12.58-.16,26.48-.53,41.94-10.94,1.36-2.25,2.65-4.53,3.89-6.85-6.6,2-14.36,2.86-22.1,3.7-5,.54-10,1.08-14.64,2-1.28,1.63-2.55,3.29-3.81,5a2,2,0,0,1-.24.33q-2.53,3.38-5,6.84ZM11.21,103l.12-.19c1.31-2.07,2.64-4.12,4-6.15-2.16-5.92-2.45-14-2.72-21.72-.1-2.94-.2-5.85-.41-8.54q-1.39,3.56-2.52,7.22a108.92,108.92,0,0,0-4.38,39q2.94-4.87,5.94-9.59Zm37.7-4.22a120.81,120.81,0,0,1-23,5.6c-3.57.6-7.14,1.2-10.94,2.07-2.12,3.37-4.22,6.78-6.31,10.26,17-4,30-10.2,40.27-17.93ZM16,57.9c1.15,4.67,1.37,10.69,1.58,16.87.2,5.72.41,11.6,1.38,16.35q2.51-3.7,5.05-7.33l.1-.13h0q3.55-5.06,7.19-9.91c-1.95-5.31-1.57-14.29-1.2-23.09.19-4.55.38-9,.24-12.81A82.32,82.32,0,0,0,16,57.9ZM35,33.47c.61,4.7.34,11,.08,17.37S34.57,64,35.21,68.6l1.43-1.84h0a2.34,2.34,0,0,1,.24-.31q6.3-8,12.83-15.53c1.43-1.64,2.86-3.26,4.31-4.86-.82-6.78.54-13.57,1.91-20.37.39-2,.78-3.91,1.11-5.84A94,94,0,0,0,35,33.47Zm9.71,31.15c3.1-.43,6.29-.78,9.49-1.12,9.62-1,19.26-2.09,26-5.38,2.7-5.63,5.16-11.4,7.54-17.22C80.92,42.7,74.47,43,67.9,43.33c-1.53.08-3.07.15-4.75.26q-4.89,5.16-9.67,10.63-4.41,5.07-8.73,10.4ZM59.06,13.49l.3-.12c1.67-.69,3.35-1.36,5-2C78.15,6.23,92.94,2.78,107.06,0a2.55,2.55,0,0,1,1.68.27,2.51,2.51,0,0,1,1,3.4C104.06,14.09,99.55,25.23,95.07,36.3c-15.2,37.55-30.19,74.56-91,86.54l-.14,0a2.52,2.52,0,0,1-2.83-2.15,114.16,114.16,0,0,1,3.8-48.55,101,101,0,0,1,6.2-15.59l0,0,0-.06h0a87,87,0,0,1,16.8-23.28c.88-.86,1.79-1.7,2.72-2.52l0,0c8.09-7.15,17.83-12.69,28.38-17.11Zm9.24,24.8c7.27-.36,14.39-.77,21.9-3.37l.21-.5c3.32-8.2,6.65-16.43,10.51-24.48A287.56,287.56,0,0,0,68.3,38.29Z"/></svg>