<svg id="Layer_1" data-name="Layer 1" xmlns="http://www.w3.org/2000/svg" viewBox="0 0 116.18 122.88"><defs><style>.cls-1{fill:#009345;}</style></defs><title>luck-lucky</title><path class="cls-1" d="M81.21,89c2.09,5.94,2.81,11.94,1.27,17.38C79.26,117.8,68,119.41,58,110.28c-11.24,10.78-23,5.71-25.23-6.21C30.82,93.63,36.53,81.74,44.47,71.8,34,79.83,21,85.87,10.05,82.89-1.4,79.76-3,68.54,6,58.39c-10.88-11.2-5.89-23,6-25.33,10.54-2,22.74,3.82,32.83,11.87C36.65,34.49,30.39,21.11,33.43,10,36.56-1.41,47.77-3,57.91,6c11.22-10.87,23-5.87,25.26,6C85.25,22.86,79,35.51,70.61,45.69c10.71-8.39,24.6-14.9,35.91-11.61s12.88,14.55,3.69,24.61c10.71,11.31,5.55,23.09-6.38,25.2-5.19.92-10.76-.07-16.27-2.28Q99.83,95.76,110,109.9c2.16,2.93,3.11,4.22,5.15,7.23,2.27,3.37-5.75,8.72-9.18,3.68-1.24-1.77-2.51-3.52-3.79-5.27q-9.56-13.26-21-26.55Z"/></svg>