<svg id="Layer_1" data-name="Layer 1" xmlns="http://www.w3.org/2000/svg" viewBox="0 0 122.88 122.03"><defs><style>.cls-1{fill:#25a225;}.cls-1,.cls-2{fill-rule:evenodd;}.cls-2{fill:#71c218;}</style></defs><title>nature-leaf</title><path d="M73.65,8.87C88,4.52,103.43,2,118.16.08A3.92,3.92,0,0,1,122.27,6c-6.55,10.32-11.88,21.38-17.19,32.38C86.82,76.25,68.82,113.54,5,122a2.73,2.73,0,0,1-.51.07,3.9,3.9,0,0,1-4.18-3.63A119,119,0,0,1,7.53,68.18c5.68-15,14.58-28.66,26.7-39.08,11-9.42,24.68-15.77,39.42-20.23Z"/><path class="cls-1" d="M119,3.92C89.76,7.63,57.75,14,36.77,32.08c-24,20.61-34.83,54.62-32.55,86C84.83,107.62,90.29,49.13,119,3.92Z"/><path class="cls-2" d="M119,3.92C78.39,8.53.65,20.32,4.22,118.11,34.18,71,71.06,31.43,119,3.92Z"/><path d="M117.4,2.68A1.56,1.56,0,0,1,119,5.36C97.91,18,78.06,33.79,59.23,52.74S22.54,93.83,5.51,119a1.57,1.57,0,1,1-2.59-1.76C20.07,91.91,38,69.64,57,50.53S96.07,15.41,117.4,2.68Z"/><path d="M69.59,42.16a1.57,1.57,0,0,1,0-3.13c2,0,4,0,6,.06,8.14.13,16.08.26,24.81-2.36a1.57,1.57,0,1,1,.89,3c-9.16,2.74-17.35,2.61-25.75,2.48-2,0-3.94-.07-5.92-.06Z"/><path d="M67.86,14.09a1.56,1.56,0,1,1,3.08.55c-.65,3.64-1.6,7.19-2.56,10.74-1.87,7-3.74,13.91-3.11,20.6a1.56,1.56,0,0,1-3.11.29c-.69-7.26,1.25-14.48,3.19-21.7,1-3.53,1.9-7.07,2.51-10.48Z"/><path d="M44.06,68.35a1.56,1.56,0,0,1-.4-3.1c5.21-.7,10.85-.94,16.49-1.18,10.42-.45,20.86-.9,28.24-4.23a1.57,1.57,0,1,1,1.29,2.86c-7.92,3.57-18.68,4-29.4,4.49-5.57.24-11.14.48-16.22,1.16Z"/><path d="M40.23,71.91a1.57,1.57,0,0,1-2.85,1.32c-2.33-5.06-1.26-15.08-.2-24.9.74-7,1.48-13.88.94-18.44a1.57,1.57,0,0,1,3.12-.37c.58,4.89-.18,12-1,19.14-1,9.4-2,19-.06,23.25Z"/><path d="M22.22,94.45a1.56,1.56,0,1,1-2.94,1.07c-2.25-6.17-2-15-1.73-23.46.19-6.56.38-12.94-.61-17.45a1.56,1.56,0,0,1,3-.67c1.08,4.89.89,11.45.69,18.21-.25,8.19-.5,16.69,1.54,22.3Z"/><path d="M15.67,103.74a1.57,1.57,0,0,1-.54-3.1c4.48-.78,8.59-1.19,12.71-1.61,10.28-1,20.61-2.09,38-9.27a1.58,1.58,0,0,1,2,.86,1.56,1.56,0,0,1-.86,2c-17.77,7.35-28.33,8.42-38.85,9.49-4,.4-8,.81-12.47,1.59Z"/><path d="M79.9,73.21a1.56,1.56,0,0,1,1.6,2.69C63.29,86.74,47.92,85.94,34,85.22c-1.51-.08-3-.16-4.34-.21a1.57,1.57,0,0,1,.12-3.13c1.54.06,3,.14,4.38.21,13.43.7,28.32,1.47,45.7-8.88Z"/></svg>