<svg id="Layer_1" data-name="Layer 1" xmlns="http://www.w3.org/2000/svg" viewBox="0 0 122.88 122.88"><title>paperless</title><path d="M70.8,32.64,83.46,44.49H70.8V32.64Zm-9.36,90.24a61.16,61.16,0,0,0,43.44-18,61.2,61.2,0,0,0,16.83-31.44A61.44,61.44,0,0,0,27.32,10.33a61.7,61.7,0,0,0-17,17,61.41,61.41,0,0,0,51.11,95.56ZM101.55,93,90.49,82V62.58h0V46.2a2.1,2.1,0,0,0-1.53-2L70.32,26a2.08,2.08,0,0,0-1.62-.78H36.17a3.75,3.75,0,0,0-1.92.52l-4.42-4.41a2.65,2.65,0,0,1,0-3.74,2.72,2.72,0,0,1,.51-.4,53.58,53.58,0,0,1,13.24-6.82,52.57,52.57,0,0,1,8.78-2.25A54.09,54.09,0,0,1,72,8.4a53,53,0,0,1,10.11,3.06,53.66,53.66,0,0,1,9.34,5,54.79,54.79,0,0,1,8.21,6.75,54.06,54.06,0,0,1,11.75,17.55,53,53,0,0,1,3.06,10.11,54.17,54.17,0,0,1,1,10.33v.24a54.5,54.5,0,0,1-3,17.86,53.55,53.55,0,0,1-3,6.94,54.82,54.82,0,0,1-4,6.47,2.64,2.64,0,0,1-3.67.62,2.46,2.46,0,0,1-.34-.29ZM86.28,77.78l-15-15a1.53,1.53,0,0,0,.42-.34,1.81,1.81,0,0,0,.46-1.2A1.85,1.85,0,0,0,71.72,60a1.54,1.54,0,0,0-1.13-.51H68l-6.94-6.94a1.54,1.54,0,0,0,.47-.37,1.82,1.82,0,0,0,0-2.41,1.51,1.51,0,0,0-1.12-.51H57.8L51,42.51h2.83A1.52,1.52,0,0,0,55,42a1.76,1.76,0,0,0,.45-1.2,1.78,1.78,0,0,0-.45-1.2v0a1.51,1.51,0,0,0-1.11-.49H47.57l-9.63-9.64H66.57V46.6a2.13,2.13,0,0,0,2.13,2.13H86.27V62.58h0v15.2ZM24.22,26.14l8.16,8.16V93.86a3.74,3.74,0,0,0,1.11,2.68,3.8,3.8,0,0,0,2.68,1.11H86.72a3.79,3.79,0,0,0,3.77-3.79V92.41l6.26,6.25a2.65,2.65,0,0,1,0,3.74,3.31,3.31,0,0,1-.3.25,53.92,53.92,0,0,1-24.79,11.9,54.81,54.81,0,0,1-10.22,1,54.2,54.2,0,0,1-10.57-1,52.74,52.74,0,0,1-10.11-3.06,53.66,53.66,0,0,1-9.34-5,54,54,0,0,1-15-15,53.66,53.66,0,0,1-5-9.34A53,53,0,0,1,8.4,72a54.2,54.2,0,0,1-1-10.57,54.81,54.81,0,0,1,1-10.22,54,54,0,0,1,12-24.93A2.62,2.62,0,0,1,24.06,26l.16.14ZM36.61,38.53,47.38,49.3H45.75a1.49,1.49,0,0,0-1.12.52,1.82,1.82,0,0,0,0,2.41h0a1.48,1.48,0,0,0,1.11.5h5.07l6.79,6.79H45.75a1.49,1.49,0,0,0-1.12.52,1.82,1.82,0,0,0,0,2.41,1.54,1.54,0,0,0,1.13.51h15.3l6.79,6.79H45.76a1.52,1.52,0,0,0-1.12.52,1.83,1.83,0,0,0-.45,1.2,1.78,1.78,0,0,0,.45,1.2,1.48,1.48,0,0,0,1.12.51H71.27l7,7a1.48,1.48,0,0,0-.77-.23H45.76a1.52,1.52,0,0,0-1.12.52,1.85,1.85,0,0,0-.45,1.2,1.8,1.8,0,0,0,.45,1.21v0a1.54,1.54,0,0,0,1.11.49H77.52a1.51,1.51,0,0,0,1.12-.51,1.8,1.8,0,0,0,.45-1.21,1.75,1.75,0,0,0-.28-1l7.47,7.46v5.23H36.61V38.53Z"/></svg>