<svg id="Layer_1" data-name="Layer 1" xmlns="http://www.w3.org/2000/svg" viewBox="0 0 122.88 99.43"><defs><style>.cls-1{fill:#4da11d;}.cls-2{fill:#56b320;}.cls-3{fill:#333;}.cls-4{fill:#8c5d0f;fill-rule:evenodd;}</style></defs><title>pine-trees</title><path class="cls-1" d="M88.77,78.73H73.62V72.16H89.45a7.31,7.31,0,0,0,.8-.05,9.18,9.18,0,0,0,5-2.24,9.37,9.37,0,0,0,2.7-4,9.63,9.63,0,0,0,.47-4.31,9.1,9.1,0,0,0-1.76-4.39q-.15-.21-.33-.42L95,55.12,90.51,49.9a10.9,10.9,0,0,0,1.22-1,9.61,9.61,0,0,0,2.34-4,9.74,9.74,0,0,0-2.25-9.44L84,26.29l6.64-7.88c.87-1,1.79-2.53,3.3-2.5,1.3,0,2.08,1.25,2.85,2.16L110.28,33.8c1.47,2.11.21,4.31-2.33,4.31H104.3l13.84,16.21A2.71,2.71,0,0,1,117,59h-8l12.06,14.14,1.32,1.55a2.57,2.57,0,0,1-1.67,4.06H99l-10.2,0Z"/><path class="cls-2" d="M35.14,65.38c-3.53.32-4.24-2.47-2.73-4.78L45.87,44.81l-.39-.39H38.27c-2.6.38-3.58-2.45-2-4.43l14.5-17H46.54c-2.65.07-3.31-2.37-1.61-4.67L58.15,2.61C59.06,1.54,60,0,61.6,0c1.34,0,2.16,1.31,3,2.24l14,16.38c1.52,2.2.22,4.49-2.44,4.49H72.38L86.78,40a2.82,2.82,0,0,1-1.14,4.82H77.27L89.82,59.54l1.37,1.61a2.67,2.67,0,0,1-1.74,4.22Z"/><path class="cls-1" d="M61.62,0c1.33.05,2.14,1.31,2.94,2.24l14,16.38c1.52,2.2.22,4.49-2.44,4.49H72.38L86.78,40a2.82,2.82,0,0,1-1.14,4.82H77.27L89.81,59.54l1.38,1.61a2.67,2.67,0,0,1-1.74,4.22H73.85L61.62,0Z"/><path class="cls-1" d="M23.58,78.73H3.34C0,79-.73,76.36.72,74.14L13.66,59l-.38-.38H6.36c-2.5.38-3.44-2.34-1.92-4.25L18.37,38H14.31c-2.55.07-3.18-2.27-1.54-4.49L25.46,18.43c.86-1,1.79-2.53,3.3-2.5,1.29,0,2.08,1.25,2.84,2.16l7.27,8.47-7.38,8.65a7,7,0,0,0-.51.58A10.14,10.14,0,0,0,28.8,41.2a9.42,9.42,0,0,0,.94,5.12,8.84,8.84,0,0,0,3,3.42L27.27,56.2h0a7.79,7.79,0,0,0-.54.71,11,11,0,0,0-1.79,6.86,9.39,9.39,0,0,0,1.15,3.73A9.08,9.08,0,0,0,29,70.6a10.18,10.18,0,0,0,5.91,1.57h14.5v6.57H23.58Z"/><polygon class="cls-3" points="12.72 99.43 12.72 94.39 110.87 94.38 110.65 99.42 12.72 99.43 12.72 99.43"/><polygon class="cls-4" points="23.58 78.73 33.79 78.73 36.25 94.39 21.12 94.39 23.58 78.73 23.58 78.73"/><polygon class="cls-4" points="56.21 65.39 66.83 65.39 69.29 94.39 53.75 94.39 56.21 65.39 56.21 65.39"/><polygon class="cls-4" points="88.76 78.73 98.96 78.73 101.42 94.39 86.3 94.39 88.76 78.73 88.76 78.73"/></svg>