<?xml version="1.0" encoding="utf-8"?><svg version="1.1" id="Layer_1" xmlns="http://www.w3.org/2000/svg" xmlns:xlink="http://www.w3.org/1999/xlink" x="0px" y="0px" viewBox="0 0 122.88 122.67" style="enable-background:new 0 0 122.88 122.67" xml:space="preserve"><style type="text/css">.st0{fill-rule:evenodd;clip-rule:evenodd;} .st1{fill-rule:evenodd;clip-rule:evenodd;fill:#FFFFFF;}</style><g><path class="st0" d="M8.78,53.09c-2.23,6.64-2.3,17.87-0.73,25.01c1.81,8.22,5.76,16.07,11.07,22.11l7.6-27.6 c0.13-0.47,0.35-0.93,0.7-1.27c0.39-0.38,0.88-0.62,1.5-0.62h16.64h17.82h20.44c0.57,0,1.02,0.2,1.39,0.53 c0.04,0.03,0.08,0.06,0.11,0.1c0.34,0.34,0.56,0.8,0.69,1.27l6.94,25.19c2.27-3.17,4.2-6.73,5.71-10.69 c1.44-3.77,2.45-7.58,3.01-11.36c1.12-7.5,0.53-20.31,0.53-27.82c-8.07-0.97-11.41-4.85-11.41-12.76v-4.47l0,0h-1.44 c-1.03,0-1.87-0.83-1.87-1.86v-2.16c0-1.03,0.84-1.87,1.87-1.87h5.68V13.39c0-1.62,1.32-2.95,2.95-2.95l0,0 c1.62,0,2.94,1.32,2.94,2.95v11.43h8.66V13.39c0-1.62,1.31-2.95,2.95-2.95l0,0c1.62,0,2.95,1.32,2.95,2.95v11.43h5.52 c1.03,0,1.87,0.84,1.87,1.87v2.16c0,1.03-0.84,1.86-1.87,1.86h-1.15v4.02c0,7.66-3.43,12.37-11.41,13.13 c0,7.73,0.45,20.66-0.63,28.28c-0.61,4.38-1.76,8.8-3.42,13.15c-2.62,6.86-6.38,12.69-10.93,17.47 c-7.36,7.73-16.8,12.7-26.87,14.78c-10.05,2.07-20.73,1.27-30.64-2.52c-6.64-2.55-12.95-6.43-18.48-11.69 C9.99,100.23,4.38,90.07,2.03,79.39c-1.88-8.58-1.67-21.38,1.34-29.43l-0.04-0.09C-9.5,17.58,17.74,12.15,34.44,0 C48.18,34.06,34.14,50.35,8.78,53.09L8.78,53.09L8.78,53.09z M30.91,65.37c-0.96,0-1.75-0.79-1.75-1.74c0-0.96,0.79-1.75,1.75-1.75 h4.46c0.96,0,1.75,0.79,1.75,1.74c0,0.96-0.79,1.75-1.75,1.75H30.91L30.91,65.37L30.91,65.37L30.91,65.37L30.91,65.37z M33.63,52.47c-0.84-0.49-1.11-1.53-0.65-2.37c0.49-0.84,1.53-1.11,2.37-0.65l3.88,2.23c0.84,0.49,1.11,1.53,0.65,2.37 c-0.49,0.84-1.53,1.11-2.37,0.65L33.63,52.47L33.63,52.47L33.63,52.47L33.63,52.47L33.63,52.47L33.63,52.47z M56.34,48.4 c4.3,0,8.2,1.75,11.01,4.56c2.81,2.81,4.56,6.72,4.56,11.01c0,1.29-0.16,2.55-0.45,3.75H41.23c-0.3-1.2-0.45-2.46-0.45-3.75 c0-4.3,1.75-8.2,4.56-11.01C48.18,50.15,52.07,48.4,56.34,48.4L56.34,48.4L56.34,48.4L56.34,48.4L56.34,48.4z M77.71,50.07 c0.84-0.49,1.9-0.21,2.39,0.63c0.47,0.84,0.19,1.9-0.65,2.37l-3.88,2.23c-0.84,0.49-1.9,0.21-2.37-0.63 c-0.49-0.84-0.21-1.9,0.63-2.37L77.71,50.07L77.71,50.07L77.71,50.07L77.71,50.07L77.71,50.07z M81.82,62.6 c0.96,0,1.75,0.79,1.75,1.75c0,0.96-0.79,1.75-1.75,1.75h-4.46c-0.96,0-1.75-0.79-1.75-1.75c0-0.96,0.79-1.75,1.75-1.75H81.82 L81.82,62.6L81.82,62.6L81.82,62.6L81.82,62.6z M42.46,42.66c-0.49-0.84-0.21-1.9,0.6-2.37c0.84-0.49,1.9-0.21,2.37,0.63l2.23,3.88 c0.49,0.84,0.21,1.9-0.63,2.37c-0.84,0.49-1.9,0.21-2.37-0.63L42.46,42.66L42.46,42.66L42.46,42.66L42.46,42.66L42.46,42.66z M54.99,38.55c0-0.96,0.77-1.75,1.75-1.75c0.96,0,1.75,0.79,1.75,1.75v4.46c0,0.96-0.79,1.74-1.75,1.74 c-0.96,0-1.75-0.79-1.75-1.74V38.55L54.99,38.55L54.99,38.55L54.99,38.55L54.99,38.55z M67.9,41.26c0.49-0.84,1.53-1.11,2.37-0.65 c0.84,0.49,1.12,1.53,0.65,2.37l-2.23,3.88c-0.49,0.84-1.53,1.11-2.37,0.65c-0.84-0.49-1.11-1.53-0.65-2.37L67.9,41.26L67.9,41.26 L67.9,41.26L67.9,41.26L67.9,41.26L67.9,41.26z M25.63,106.27c3.9,3.01,8.12,5.35,12.52,7.04c0.37,0.14,0.75,0.28,1.13,0.41h14.27 v-7.45H25.63L25.63,106.27z M71.88,113.72c4.73-1.71,9.18-4.2,13.14-7.45H59.18v7.45H71.88L71.88,113.72z"/><path class="st1" d="M9.51,44.99l0.06,0.04c13.1-15.81,17.91-16.53,21.32-35.49C25.88,20.85,11.67,30.09,9.51,44.99L9.51,44.99 L9.51,44.99z"/><path class="st1" d="M49.21,87.86l-0.59,4.3h13.91l-0.43-4.3H49.21L49.21,87.86L49.21,87.86z M63.27,72.64l0.55,5.56h10.37 l-1.02-5.56H63.27L63.27,72.64L63.27,72.64z M75.87,72.64l1.02,5.56h8.1l-1.52-5.56H75.87L75.87,72.64L75.87,72.64z M85.72,80.87 h-8.35l0.78,4.3h8.75L85.72,80.87L85.72,80.87L85.72,80.87z M87.65,87.86h-9l0.79,4.3h9.4L87.65,87.86L87.65,87.86L87.65,87.86z M89.58,94.83h-9.65l1.47,8.02h10.39L89.58,94.83L89.58,94.83L89.58,94.83z M78.69,102.85l-1.47-8.02H65.47l0.79,8.02H78.69 L78.69,102.85L78.69,102.85z M63.58,102.85l-0.8-8.02H48.26l-1.1,8.02H63.58L63.58,102.85L63.58,102.85z M44.47,102.85l1.1-8.02 h-11.1l-1.86,8.02H44.47L44.47,102.85L44.47,102.85z M29.87,102.85l1.86-8.02h-8.58l-2.21,8.02H29.87L29.87,102.85L29.87,102.85z M23.89,92.15h8.47l0.99-4.3h-8.28L23.89,92.15L23.89,92.15L23.89,92.15z M25.82,85.16h8.15l1-4.3H27L25.82,85.16L25.82,85.16 L25.82,85.16z M27.74,78.19h7.86l1.29-5.56h-7.62L27.74,78.19L27.74,78.19L27.74,78.19z M39.63,72.64l-1.29,5.56h9.5l0.76-5.56 H39.63L39.63,72.64L39.63,72.64z M51.27,72.64c0,0.05,0,0.1-0.01,0.15l-0.75,5.41h10.62l-0.55-5.56H51.27L51.27,72.64L51.27,72.64 L51.27,72.64z M64.08,80.87l0.42,4.3h10.95l-0.79-4.3H64.08L64.08,80.87L64.08,80.87z M37.71,80.87l-1,4.3h10.17l0.58-4.3H37.71 L37.71,80.87L37.71,80.87z M50.16,80.87l-0.59,4.3h12.26l-0.43-4.3H50.16L50.16,80.87L50.16,80.87z M64.77,87.86l0.43,4.3h11.53 l-0.79-4.3H64.77L64.77,87.86L64.77,87.86z M36.09,87.86l-0.99,4.3h10.84l0.58-4.3H36.09L36.09,87.86L36.09,87.86z"/></g></svg>