<svg id="Layer_1" data-name="Layer 1" xmlns="http://www.w3.org/2000/svg" viewBox="0 0 122.88 70.95"><defs><style>.cls-1{fill-rule:evenodd;}</style></defs><title>plastic-in-sea</title><path class="cls-1" d="M97.35,11.2l0,0h0l0,0,1.67-3.74a.53.53,0,0,0,.05-.2A1.09,1.09,0,0,0,99.11,7l0-.13A.4.4,0,0,0,99,6.74a.8.8,0,0,0-.21-.15l-8.86-4a.67.67,0,0,0-.28-.06.84.84,0,0,0-.27,0h0a1,1,0,0,0-.28.16.45.45,0,0,0-.12.16L87.27,6.68l.14.07h0l9.91,4.44ZM0,44.05A43.57,43.57,0,0,1,5.37,25.1C9.1,18.48,14.81,12.74,22.84,8l.08,0h0a41.2,41.2,0,0,1,7.67-3.13A28.76,28.76,0,0,1,38,3.68,19,19,0,0,1,50.09,7.29a14,14,0,0,1,4.71,6.29,12.43,12.43,0,0,1,.3,7.66A15.43,15.43,0,0,1,49,29.56a12.85,12.85,0,0,1-6.21,2.35,10.86,10.86,0,0,1-5.33-.78,10.69,10.69,0,0,1-4.54-3.7A17.22,17.22,0,0,1,30,18.94a1.92,1.92,0,1,1,3.82-.36A13.6,13.6,0,0,0,36,25.19a7,7,0,0,0,2.91,2.4,7.21,7.21,0,0,0,3.47.5,9.05,9.05,0,0,0,4.32-1.67,11.63,11.63,0,0,0,4.69-6.2,8.73,8.73,0,0,0-.21-5.33,10.13,10.13,0,0,0-3.44-4.54C22.12-3.59,8.37,41.07,39.67,45.11l.22-.1a16.46,16.46,0,0,0,7.62-8.43,2.24,2.24,0,0,1,3-1.15,2.21,2.21,0,0,1,1.09,1c2.67,4.83,5.29,8,8.14,9.82a1.18,1.18,0,0,1,.09-.88L68,27.19a1.28,1.28,0,0,1,1.39-.74c.42,0,1.12-1.23.62-1.84a1.29,1.29,0,0,1-.23-1.19,18.53,18.53,0,0,1,.68-2.31,15.19,15.19,0,0,1,1.08-2.36l0,0c3.22-5.84,7.12-6.26,10-6.56,1.2-.13,2.14-.22,2.4-.77l1.28-2.86a2,2,0,0,1-.62-.83,1.77,1.77,0,0,1,0-1.37l2-4.43a2.94,2.94,0,0,1,.75-1A3.17,3.17,0,0,1,88.43.22l.09,0A3.41,3.41,0,0,1,89.71,0,3.26,3.26,0,0,1,91,.28l8.85,4A3.08,3.08,0,0,1,100.9,5a2.72,2.72,0,0,1,.62,1.08,3.54,3.54,0,0,1,.22,1.2,3,3,0,0,1-.27,1.23l-2,4.43a1.81,1.81,0,0,1-1,1l-.07,0a1.87,1.87,0,0,1-.88.06l-1.29,2.88c-.24.58.32,1.36,1,2.34,1.7,2.37,4,5.56,1.72,11.91a14.94,14.94,0,0,1-1,2.34,21.52,21.52,0,0,1-1.31,2.09,1.28,1.28,0,0,1-1,.53c-.63,0-1.08.82-1.06,1.4a.39.39,0,0,0,.1.29,1.3,1.3,0,0,1,.37,1.57L91.61,47a17,17,0,0,0,7,.57,17.72,17.72,0,0,0,10-5,26.31,26.31,0,0,0,5.09-7.08,2.25,2.25,0,0,1,4.09.19,21.39,21.39,0,0,0,5,8.06V49.3a16.31,16.31,0,0,1-1.78-1.15,20.64,20.64,0,0,1-5.59-6.76,28.59,28.59,0,0,1-3.75,4.48,22.11,22.11,0,0,1-12.58,6.18A21.65,21.65,0,0,1,86.69,49.9a21.1,21.1,0,0,1-4.52-3c-7.85,4.36-14,6.28-19.47,5.31-5-.9-9.14-4.17-13-10.15a19.87,19.87,0,0,1-7.8,7,18.66,18.66,0,0,1-8.21,1.89,20.43,20.43,0,0,1-8.21-1.75,22.49,22.49,0,0,1-9.13-7.47A22.64,22.64,0,0,1,11,47.47,19.65,19.65,0,0,1,0,51.35v-7.3ZM69.75,29.44,92.18,39.5,92.4,39a3.17,3.17,0,0,1-.37-1.4,4.08,4.08,0,0,1,.19-1.38A4.18,4.18,0,0,1,92.88,35a3.67,3.67,0,0,1,2-1.33,12.89,12.89,0,0,0,.84-1.37,12.15,12.15,0,0,0,.86-1.95v0c1.82-5.09,0-7.66-1.39-9.57-1.17-1.63-2.09-2.92-1.31-4.82l1.3-2.9L87.53,9.61l-1.28,2.87c-.88,1.84-2.46,2-4.46,2.22-2.33.24-5.47.57-8,5.25l0,.06a12.46,12.46,0,0,0-.9,2c-.19.52-.35,1.05-.49,1.58a4,4,0,0,1-1.11,4.74,3.17,3.17,0,0,1-1.25.64l-.22.5ZM0,65.67a15.92,15.92,0,0,0,5.7-2.13,16.47,16.47,0,0,0,5.92-7,1.82,1.82,0,0,1,2.45-.84,1.87,1.87,0,0,1,.91,1,18.71,18.71,0,0,0,9.12,8.86,16.4,16.4,0,0,0,6.57,1.42,14.42,14.42,0,0,0,6.42-1.48,16.81,16.81,0,0,0,7.82-8.63,1.83,1.83,0,0,1,3.3-.12,24.88,24.88,0,0,0,6.6,8,12.21,12.21,0,0,0,6.62,2.55,13.37,13.37,0,0,0,7.21-1.84,31.49,31.49,0,0,0,9.58-9,1.82,1.82,0,0,1,2.56-.38,1.79,1.79,0,0,1,.58.71,17.7,17.7,0,0,0,8,8.74,14.12,14.12,0,0,0,6,1.51,14.48,14.48,0,0,0,6.21-1.3c3.66-1.66,7.07-4.92,9.6-9.93a1.83,1.83,0,0,1,3.34.16c1.59,4,3.56,6.74,6,8.26a9.79,9.79,0,0,0,2.44,1.11v3.79a13.71,13.71,0,0,1-4.39-1.8,17.4,17.4,0,0,1-5.91-6.72A22.9,22.9,0,0,1,103,69.06a18,18,0,0,1-7.78,1.62,17.7,17.7,0,0,1-7.57-1.9,20.66,20.66,0,0,1-8.3-7.9,32.27,32.27,0,0,1-9,7.76,16.9,16.9,0,0,1-9.17,2.29,15.8,15.8,0,0,1-8.61-3.27,25.77,25.77,0,0,1-5.91-6.41,19.54,19.54,0,0,1-8,7.46,18.4,18.4,0,0,1-8,1.85,20.05,20.05,0,0,1-8-1.72A22.1,22.1,0,0,1,13.3,61a18.56,18.56,0,0,1-5.65,5.65A19.86,19.86,0,0,1,0,69.39V65.67Z"/></svg>