<?xml version="1.0" encoding="UTF-8"?>
<!DOCTYPE svg PUBLIC "-//W3C//DTD SVG 1.1//EN" "http://www.w3.org/Graphics/SVG/1.1/DTD/svg11.dtd">
<!-- Creator: CorelDRAW 2021 (64-Bit) -->
<svg xmlns="http://www.w3.org/2000/svg" xml:space="preserve" width="480px" height="512px" version="1.1" shape-rendering="geometricPrecision" text-rendering="geometricPrecision" image-rendering="optimizeQuality" fill-rule="evenodd" clip-rule="evenodd"
viewBox="0 0 480 512.06"
 xmlns:xlink="http://www.w3.org/1999/xlink"
 xmlns:xodm="http://www.corel.com/coreldraw/odm/2003">
 <g id="Layer_x0020_1">
  <metadata id="CorelCorpID_0Corel-Layer"/>
  <path fill="black" fill-rule="nonzero" d="M117.9 301.83c-29.9,10.01 -55.82,4.9 -75.78,-8.24 -12.66,-8.33 -22.8,-19.85 -29.91,-32.72 -7.08,-12.87 -11.27,-27.14 -12.07,-41 -1.02,-17.77 3.44,-35.02 14.3,-48.27 -9.21,-14.55 -11.22,-31.27 -7.9,-47.48 2.61,-12.75 8.59,-25.17 16.93,-35.86 8.3,-10.65 19.03,-19.68 31.19,-25.68 15.74,-7.78 33.8,-10.6 52.18,-5.64 4.42,-16.54 15.14,-29.6 29.3,-39.07 12.8,-8.57 28.42,-14.1 44.53,-16.49 15.96,-2.37 32.61,-1.7 47.65,2.11 18.19,4.6 34.18,13.79 44.39,27.76 14.98,-10.59 33.81,-14.39 52.86,-12.91 15.09,1.18 30.47,5.73 44.1,12.85 13.84,7.21 25.99,17.11 34.41,28.87 8.79,12.26 13.66,26.44 12.58,41.71 25.06,2.43 43.49,17.7 53.9,37.87 5,9.69 8.09,20.59 9.09,31.73 0.99,11.13 -0.1,22.49 -3.45,33.09 -7.42,23.48 -25.44,43.5 -55.67,50.21 0.72,7.72 -0.56,15.4 -3.35,22.61 -2.92,7.56 -7.54,14.58 -13.26,20.53 -5.67,5.89 -12.49,10.82 -19.87,14.25 -12.69,5.9 -27.16,7.43 -40.71,2.19l8.76 -22.66c6.88,2.65 14.66,1.67 21.76,-1.63 4.63,-2.14 8.94,-5.26 12.54,-9.01 3.55,-3.69 6.39,-7.96 8.11,-12.43 2.36,-6.09 2.65,-12.7 -0.19,-18.81l-7.39 -15.92 17.53 -1.32c27.21,-2.06 42.77,-17.18 48.51,-35.34 2.4,-7.61 3.19,-15.74 2.49,-23.66 -0.71,-7.94 -2.93,-15.74 -6.52,-22.7 -8.19,-15.87 -24,-27.1 -45.8,-24.64l-19.05 2.16 6.2 -18.16c4.46,-13.09 1.42,-25.5 -6.02,-35.88 -6.21,-8.67 -15.34,-16.07 -25.83,-21.54 -10.7,-5.58 -22.79,-9.16 -34.68,-10.08 -17.62,-1.37 -34.56,3.17 -44.99,15.88l-13.75 16.75 -7.11 -20.51c-4.93,-14.23 -18.74,-23.4 -35.5,-27.65 -11.96,-3.03 -25.32,-3.54 -38.22,-1.63 -12.74,1.89 -24.87,6.12 -34.54,12.59 -12.29,8.22 -20.64,20.25 -20.76,35.8l-0.15 19.88 -17.56 -9.11c-15.89,-8.25 -32.11,-6.99 -45.76,-0.24 -8.85,4.36 -16.69,10.99 -22.81,18.82 -6.08,7.79 -10.41,16.72 -12.26,25.77 -2.57,12.54 -0.24,25.38 9.07,35.44l8.81 9.5 -10.04 8.17c-10.35,8.42 -14.59,22.01 -13.76,36.44 0.59,10.33 3.74,21.01 9.06,30.63 5.36,9.6 12.79,18.11 21.96,24.15 14.14,9.29 32.8,12.81 54.73,5.48l7.72 23.04zm-11.59 -87.14c4.55,4.91 4.25,12.59 -0.66,17.14 -4.91,4.55 -12.59,4.25 -17.14,-0.66 -14.82,-16 -18.61,-35.96 -14.67,-55.22 2.54,-12.37 8.33,-24.43 16.43,-34.8 8.05,-10.33 18.47,-19.09 30.27,-24.92 19.57,-9.68 42.85,-11.46 65.73,0.41 5.97,3.08 8.31,10.41 5.24,16.38 -3.08,5.97 -10.41,8.32 -16.38,5.25 -15.22,-7.91 -30.76,-6.7 -43.84,-0.23 -8.48,4.19 -16.02,10.54 -21.88,18.06 -5.83,7.47 -9.98,16.04 -11.76,24.71 -2.45,11.99 -0.24,24.27 8.66,33.88zm139.07 -81c-4.26,5.18 -11.92,5.93 -17.09,1.67 -5.18,-4.26 -5.93,-11.91 -1.67,-17.09 15.61,-19.02 39.45,-25.94 63.68,-24.05 14.63,1.13 29.52,5.55 42.75,12.45 13.43,7 25.22,16.61 33.38,28 11.5,16.05 16.1,35.47 9,56.29 -2.16,6.36 -9.07,9.77 -15.43,7.62 -6.36,-2.15 -9.77,-9.07 -7.62,-15.43 4.26,-12.5 1.36,-24.35 -5.76,-34.28 -5.96,-8.32 -14.73,-15.42 -24.8,-20.68 -10.29,-5.36 -21.9,-8.8 -33.33,-9.69 -16.89,-1.31 -33.13,3.04 -43.11,15.19zm-103.5 108c-3.27,-5.86 -1.15,-13.26 4.71,-16.52 5.86,-3.26 13.27,-1.15 16.53,4.71 19.49,35.15 23.13,63.15 17.96,86.9 -5.16,23.68 -18.88,42.26 -34.32,59.35 -4.16,4.6 -8.85,9.51 -13.5,14.37 -16.83,17.62 -33.19,34.71 -37.41,54.57 -1.39,6.58 -7.85,10.77 -14.43,9.38 -6.57,-1.39 -10.77,-7.85 -9.38,-14.43 5.65,-26.6 24.4,-46.19 43.69,-66.33 4.26,-4.4 8.54,-8.86 13.03,-13.84 13,-14.39 24.49,-29.76 28.51,-48.21 4.01,-18.39 0.79,-40.77 -15.39,-69.95zm137.18 0c-3.26,-5.86 -1.15,-13.26 4.72,-16.52 5.86,-3.26 13.26,-1.15 16.52,4.71 19.5,35.15 23.14,63.15 17.97,86.9 -5.16,23.68 -18.89,42.26 -34.32,59.35 -4.14,4.59 -8.85,9.51 -13.5,14.36 -16.83,17.62 -33.19,34.71 -37.42,54.58 -1.39,6.58 -7.85,10.77 -14.42,9.38 -6.58,-1.39 -10.78,-7.85 -9.38,-14.43 5.65,-26.61 24.4,-46.2 43.7,-66.34 4.25,-4.4 8.53,-8.86 13.02,-13.83 12.99,-14.39 24.49,-29.76 28.51,-48.21 4.01,-18.39 0.78,-40.76 -15.4,-69.95zm-66.79 0c-3.26,-5.86 -1.15,-13.26 4.71,-16.52 5.86,-3.26 13.27,-1.15 16.53,4.71 19.49,35.15 23.14,63.15 17.96,86.9 -5.15,23.68 -18.88,42.26 -34.31,59.35 -4.15,4.59 -8.85,9.5 -13.5,14.35 -27.39,28.66 -53.48,55.91 -26.7,103.46 3.28,5.86 1.19,13.28 -4.67,16.57 -5.86,3.28 -13.29,1.19 -16.57,-4.67 -35.6,-63.21 -3.4,-96.85 30.42,-132.17 4.26,-4.39 8.52,-8.85 13.02,-13.82 12.99,-14.39 24.49,-29.76 28.51,-48.21 4,-18.39 0.78,-40.76 -15.4,-69.95z"/>
 </g>
</svg>
