<svg id="Layer_1" data-name="Layer 1" xmlns="http://www.w3.org/2000/svg" viewBox="0 0 122.88 88"><title>tobacco</title><path d="M4.1,17.69a111.25,111.25,0,0,0,.43,20.65c1,7.78,3.22,15.19,7.54,21.43,4.78,6.89,11.86,12.52,20.12,16.72a81.81,81.81,0,0,0,24.5,7.73Q52.21,80.41,48,76.57c-4.17.38-9.44-.59-14.53-1.52l-3.12-.57a1.19,1.19,0,0,1-1.08-1.37,1.42,1.42,0,0,1,1.65-.89l3.15.56a77.18,77.18,0,0,0,11.5,1.55c-1.45-1.36-2.89-2.73-4.29-4.09a1.59,1.59,0,0,1-.13-.13c-1.81-1.77-3.56-3.53-5.28-5.3-3.69.36-9.48-1.1-15.16-2.53l-3.16-.79a1.14,1.14,0,0,1-.95-1.43,1.45,1.45,0,0,1,1.72-.79l3.19.79c4.48,1.13,9,2.27,12.19,2.47l-1.37-1.47-.11-.12q-2-2.19-4-4.4-3.37-3.84-6.45-7.73c-4.52-.47-8.71-2.15-12.9-3.83l-.06,0a1.08,1.08,0,0,1-.66-1.54,1.54,1.54,0,0,1,1.86-.55l.07,0a59,59,0,0,0,9.6,3.24l-1.06-1.4-.09-.12A161.18,161.18,0,0,1,5.84,24.82a1.09,1.09,0,0,1,.7-1.53,1.52,1.52,0,0,1,1.84.58A156.44,156.44,0,0,0,19.13,40.94l.06-.24a52.18,52.18,0,0,0,1.56-8.08,1.34,1.34,0,0,1,1.5-1.07,1.25,1.25,0,0,1,1.28,1.24,54.3,54.3,0,0,1-1.62,8.37c-.21.87-.43,1.74-.64,2.67q1.21,1.64,2.49,3.24l0,0,0,0q3.18,4.05,6.7,8.06l1.79,2c.25-1.92.6-3.87.94-5.83.45-2.6.91-5.2,1.14-7.67a1.32,1.32,0,0,1,1.49-1.07,1.26,1.26,0,0,1,1.29,1.24c-.24,2.53-.7,5.18-1.17,7.82-.49,2.82-1,5.64-1.18,8.25.88.94,1.77,1.89,2.68,2.84l.1.1h0q2,2,4,4.05l0-.06c1.53-5.23,3.19-10.88,2.09-17.59A1.21,1.21,0,0,1,44.86,48a1.37,1.37,0,0,1,1.56,1c1.18,7.14-.54,13-2.14,18.44l-.49,1.71q2.79,2.7,5.73,5.4l.09.08c.53.49,1.06,1,1.6,1.46.1-1.42.23-2.75.37-4.08a53.19,53.19,0,0,0,.13-13.48A1.24,1.24,0,0,1,53,57.23a1.75,1.75,0,0,1,.73.1C46.39,44.24,33.28,36.18,20,28.05,14.63,24.72,9.2,21.39,4.1,17.69ZM53.87,78.44c1.84,1.62,3.71,3.24,5.63,4.85.26-9.75-1.61-17.64-4.93-24.27a55.68,55.68,0,0,1-.21,13.16c-.21,2-.43,4.1-.49,6.26Zm23-36.32a1.47,1.47,0,0,1-.26-.6c-1.36-7.11-4.1-14-6.86-20.85-1.8-4.51-3.61-9-5.06-13.67a136.88,136.88,0,0,0-4,17.94c-.34,2.18-.62,4.38-.86,6.59l.17-.14a66.82,66.82,0,0,0,8.31-7.83,1.6,1.6,0,0,1,2-.28,1,1,0,0,1,.33,1.62A70.26,70.26,0,0,1,62,33c-.82.69-1.65,1.38-2.48,2.1Q59.33,37,59.22,39a.34.34,0,0,1,0,.1q-.27,4.86-.26,9.84c0,.72,0,1.46,0,2.19,1.56-1.54,3.22-3.1,4.89-4.66a107.55,107.55,0,0,0,8.2-8.22A1.58,1.58,0,0,1,74,37.92a1,1,0,0,1,.33,1.62A107.38,107.38,0,0,1,65.93,48c-2.41,2.25-4.81,4.5-6.86,6.72,0,1.2.1,2.4.17,3.62a1,1,0,0,1-.38.85,46.8,46.8,0,0,1,2.58,7.12c2.78-10.12,8.38-17.75,15.41-24.15ZM56.27,54.29l0-.65c0-1.57-.07-3.14-.08-4.72q0-4.76.24-9.42c-3.34-2.28-5.55-5.45-7.76-8.62l-1.18-1.69A1.06,1.06,0,0,1,48,27.6a1.54,1.54,0,0,1,1.9.4c.6.83.9,1.26,1.21,1.7a37.3,37.3,0,0,0,5.53,6.77c0-.63.09-1.25.15-1.88a.28.28,0,0,1,0-.09q.42-5,1.17-9.84A139.85,139.85,0,0,1,61.4,8.42c-3.33,3.84-6.54,7.8-9.41,11.83-4.33,6.08-7.88,12.33-9.86,18.54h0A60.09,60.09,0,0,1,56.27,54.29ZM39,36.38A74.74,74.74,0,0,1,48.7,18.64,192,192,0,0,1,63.54.71,2,2,0,0,1,64.76,0,1.93,1.93,0,0,1,67,1.27a135,135,0,0,0,6.36,18.38c2.59,6.5,5.18,13,6.67,19.72,6.25-5.11,13.37-9.48,20.52-13.88a205.73,205.73,0,0,0,18.61-12.37,2.18,2.18,0,0,1,2.7.08,1.46,1.46,0,0,1,.51,1,123.81,123.81,0,0,1-.22,24.49c-1.06,8.18-3.42,16-8,22.68C109,68.73,101.46,74.74,92.68,79.21A87.53,87.53,0,0,1,61.84,88a2.67,2.67,0,0,1-.4,0,2.67,2.67,0,0,1-.4,0A87.47,87.47,0,0,1,30.2,79.21C21.41,74.74,13.87,68.73,8.76,61.36c-4.62-6.66-7-14.5-8-22.68A123.81,123.81,0,0,1,.5,14.19a1.42,1.42,0,0,1,.51-1,2.18,2.18,0,0,1,2.7-.08,207,207,0,0,0,18.6,12.37C28,29,33.73,32.5,39,36.38ZM76.46,49A1.37,1.37,0,0,1,78,48a1.21,1.21,0,0,1,1.19,1.3c-1.1,6.71.55,12.36,2.09,17.59l0,.06q2-2,4-4.08l0-.05c.92-.95,1.82-1.91,2.71-2.87-.2-2.6-.69-5.42-1.19-8.24a69.94,69.94,0,0,1-1.31-10.62A1.27,1.27,0,0,1,87,39.91a1.29,1.29,0,0,1,1.4,1.14,68.42,68.42,0,0,0,1.29,10.32c.34,2,.69,3.91.94,5.82l.75-.84q5.52-6.21,10.27-12.52c-.21-.94-.43-1.81-.64-2.67a43.18,43.18,0,0,1-1.73-10.89c-12,7.42-23.41,15.17-30,27.06a1.75,1.75,0,0,1,.73-.1,1.24,1.24,0,0,1,1.24,1.27A53.19,53.19,0,0,0,71.3,72c.14,1.33.27,2.66.37,4.08l1.62-1.47,0,0,0,0h0q3-2.72,5.76-5.44l-.49-1.7C77,62,75.28,56.11,76.46,49Zm5.26,21.15-.11.11q-2.11,2.05-4.3,4.1a77.18,77.18,0,0,0,11.5-1.55c2.31-.42,4.58-.84,6.83-1.13a1.38,1.38,0,0,1,1.59,1v.07A49.69,49.69,0,0,0,110.8,59.77c4.33-6.24,6.55-13.65,7.55-21.43a112.12,112.12,0,0,0,.43-20.65c-5.1,3.7-10.53,7-15.94,10.36l-1.17.72a1.05,1.05,0,0,1,.36.8,40,40,0,0,0,1.66,11.13l.06.24a158.46,158.46,0,0,0,9.41-14.64,1.51,1.51,0,0,1,1.84-.55,1.07,1.07,0,0,1,.67,1.53A162.65,162.65,0,0,1,104.3,44.63l-.08.09-1.06,1.41a58.86,58.86,0,0,0,9.59-3.24l1.33-.53a1.52,1.52,0,0,1,1.85.55,1.08,1.08,0,0,1-.65,1.54L114,45c-4.18,1.68-8.37,3.36-12.89,3.83q-3.55,4.48-7.5,8.92Q92.13,59.35,90.63,61l0,.06-1.4,1.5c3.16-.2,7.71-1.34,12.19-2.47,2-.5,3.95-1,5.86-1.42a1.44,1.44,0,0,1,1.7.83,1.16,1.16,0,0,1-1,1.42c-1.8.39-3.78.89-5.78,1.39C96.49,63.71,90.7,65.17,87,64.81q-2.58,2.66-5.29,5.31ZM69,78.44c-.07-2.16-.28-4.21-.49-6.26A55.68,55.68,0,0,1,68.31,59C65,65.65,63.12,73.54,63.38,83.29c1.92-1.61,3.79-3.23,5.63-4.85Zm26-4.36c-1.73.26-3.66.61-5.62,1C84.32,76,79.05,77,74.88,76.57q-4.2,3.84-8.7,7.65a81.79,81.79,0,0,0,24.51-7.73q2.24-1.14,4.34-2.41Z"/></svg>