<svg id="Layer_1" data-name="Layer 1" xmlns="http://www.w3.org/2000/svg" viewBox="0 0 122.88 80.58"><defs><style>.cls-1{fill:#333;}.cls-1,.cls-2{fill-rule:evenodd;}.cls-2{fill:#8c5d0f;}.cls-3{fill:#56b320;}.cls-4{fill:#4da11d;}.cls-5{fill:#af7311;}</style></defs><title>trees</title><path class="cls-1" d="M114.64,80.58H.48c0-14.17,114.16-14.17,114.16,0Z"/><path class="cls-2" d="M20,74.32l17.83-3.2L35,64.89l9.12-15.53-3-2.92c-.44,0-.88,0-1.3,0l-5.57,9.27L34,52c-1.68-1.24-7.78-5.26-9.24-6.84l-.25,8.08-4.26-8.16L16,47l7.67,12.7L20,74.32Z"/><path class="cls-3" d="M15.11,48.51,17.24,48h0A18.49,18.49,0,0,0,22.57,45,20.9,20.9,0,0,0,24,46.73a10.58,10.58,0,0,0,6.22,3.54l.63-.51c-2.57-1.79-5.67-4-6.28-4.88a18.55,18.55,0,0,1-2.1-4.15c-.07-.17-.14-.34-.2-.52a22.37,22.37,0,0,1-1-8.62A29.89,29.89,0,0,1,22.64,25a23.37,23.37,0,0,1-1.44-5.14,20.49,20.49,0,0,1,.19-7.67c.18-.83.42-1.71.71-2.62a19.79,19.79,0,0,0-9-.44,24.92,24.92,0,0,0-9,4.32C2.18,15.1.86,18.23.29,20.66a13.55,13.55,0,0,0,1.62,9.59C0,34.8-.09,38.78,1,41.87a10.13,10.13,0,0,0,3.56,4.9c1.6,1.17,5.57,1.84,7.73,1.94a12.68,12.68,0,0,0,2.85-.2Zm0,0Z"/><path class="cls-4" d="M5.59,34.68a11.15,11.15,0,0,0,.71,7.79A6.87,6.87,0,0,0,8.71,45a6.91,6.91,0,0,1-.81-1.19A11.09,11.09,0,0,1,7.21,36l0-.06L5.59,34.68Zm5-19.39A10.12,10.12,0,0,0,6.11,18,7.93,7.93,0,0,0,4,22.4,9.15,9.15,0,0,0,5.7,28.76l0,.06L7.16,30.2a9.11,9.11,0,0,1-1.68-6.3,7.86,7.86,0,0,1,2.13-4.42,10.12,10.12,0,0,1,4.48-2.69,14.11,14.11,0,0,1,8.87.43c0-.17,0-.34,0-.51a12.19,12.19,0,0,0-10.41-1.42Z"/><polygon class="cls-5" points="26.12 63.92 25.7 67.46 25.62 68.13 24.98 68.08 23.96 68 24.11 66.67 24.49 66.7 24.84 63.83 26.12 63.93 26.12 63.92 26.12 63.92"/><polygon class="cls-5" points="26.68 57.3 26.15 62.54 24.86 62.47 25.39 57.22 26.68 57.3 26.68 57.3 26.68 57.3"/><path class="cls-2" d="M80.46,71.2l17.15,2.19-3.17-9.08,8.87-15.11-3.67-3.63L93.75,55.4l-.67-11c-1.57,4.5-4.32,5.48-8.65,4.28L84.29,53l-2.47-4.74c-1.75-.35-3.67-.81-5.71-1.33l-.11,0L83.47,59.3l-3,11.9Z"/><path class="cls-3" d="M86.82,49.07a8.66,8.66,0,0,0,3,1,9.59,9.59,0,0,0,6.7-1.85A18,18,0,0,0,98,47.09l2.32,2a9.38,9.38,0,0,0,1.57.86,7.13,7.13,0,0,0,5.27.28c1.61-.56,5-1.71,6.18-3.36a17.37,17.37,0,0,0,2.7-6.77c3.22-1.78,5.21-3.92,6.16-6.1a7.5,7.5,0,0,0,.44-4.86,8.25,8.25,0,0,0-2.6-4.13c-2-1.74-6.82-2.95-10.4-3.22-.5-.92-1-3.75-1.57-4.55-2.66-3.91-5.67-6.14-8.87-7a12.47,12.47,0,0,0-7.09.32,17.19,17.19,0,0,1,5.93,3.33,16,16,0,0,1,2.81,3.49,15.19,15.19,0,0,1,1.74,4.21v0a14.57,14.57,0,0,1,.38,4.14,13.92,13.92,0,0,1-1.17,6.33h0a17.21,17.21,0,0,1-3.73,5.37,23.19,23.19,0,0,1-3.53,2.85,26.69,26.69,0,0,1-1,2.94c-1.48,3.73-2.34,6-6.74,5.83Z"/><polygon class="cls-5" points="85.83 63.37 85.42 66.81 85.34 67.46 84.71 67.41 83.72 67.34 83.87 66.04 84.24 66.06 84.57 63.27 85.83 63.37 85.83 63.37 85.83 63.37"/><polygon class="cls-5" points="86.36 56.92 85.86 62.02 84.6 61.95 85.11 56.85 86.36 56.92 86.36 56.92 86.36 56.92"/><polygon class="cls-2" points="49.04 71.36 68.69 71.1 65.38 64.25 75.87 47.17 71.53 43.07 64.56 54.18 63.77 41.18 53.74 40.33 53.38 51.41 48.48 42.44 43.58 44.61 52.41 58.58 49.04 71.36 49.04 71.36"/><path class="cls-3" d="M43.28,46.09l2.35-.65h0A20.27,20.27,0,0,0,51.5,42c.51.72,1,1.38,1.57,2a11.52,11.52,0,0,0,6.84,4.11,10.38,10.38,0,0,0,7.57-2.21,18,18,0,0,0,1.69-1.36l2.62,2.35a11.31,11.31,0,0,0,1.78,1,7.66,7.66,0,0,0,6,.33c1.82-.66,5.67-2,7-4a21.45,21.45,0,0,0,3-8.08c3.64-2.13,5.89-4.68,7-7.28a9.36,9.36,0,0,0,.5-5.8,10,10,0,0,0-2.94-4.92c-2.21-2.08-7.71-3.52-11.75-3.84-.57-1.1-1.17-4.47-1.78-5.42-3-4.67-6.4-7.33-10-8.32S63.08.36,59.27,2.46c-.66.36-1.32.77-2,1.23C51.55.24,45.82-.6,41,.39a26.63,26.63,0,0,0-9.9,5c-2.07,1.91-3.53,5.54-4.14,8.36A16.5,16.5,0,0,0,28.77,24.9c-2.06,5.28-2.2,9.9-1,13.48a11.69,11.69,0,0,0,3.91,5.69c1.77,1.36,6.13,2.14,8.5,2.25a12.89,12.89,0,0,0,3.13-.23Zm0,0Z"/><path class="cls-4" d="M74.49,11.17c-1.92-2.91-4.1-4.6-6.42-5.26a10,10,0,0,0-7.63,1.14,13.64,13.64,0,0,0-1.35.8l1.35,1.88.09,0A15.18,15.18,0,0,1,61.89,9a10,10,0,0,1,7.64-1.14,10.5,10.5,0,0,1,5,3.34ZM32.82,30.39a13.49,13.49,0,0,0,.78,9,7.9,7.9,0,0,0,2.65,3A8.37,8.37,0,0,1,35.36,41c-1.17-2.25-1.57-5.35-.76-9.12l-.05-.06-1.73-1.47Zm5.5-22.5A11,11,0,0,0,33.39,11a9.44,9.44,0,0,0-2.34,5.13,11.09,11.09,0,0,0,1.89,7.38l0,.08,1.62,1.59a11.07,11.07,0,0,1-1.85-7.31A9.38,9.38,0,0,1,35,12.75,11,11,0,0,1,40,9.62,15.21,15.21,0,0,1,51,10.68c-3.16-3.44-8.41-4.15-12.7-2.79Z"/><polygon class="cls-5" points="55.4 63.18 54.93 67.07 54.85 67.81 54.14 67.75 53.01 67.67 53.19 66.2 53.6 66.23 53.98 63.08 55.4 63.19 55.4 63.18 55.4 63.18"/><polygon class="cls-5" points="56 55.9 55.43 61.66 54.01 61.58 54.59 55.81 56 55.9 56 55.9 56 55.9"/></svg>