<svg id="Layer_1" data-name="Layer 1" xmlns="http://www.w3.org/2000/svg" viewBox="0 0 122.88 122.41"><defs><style>.cls-1{fill:#8c5d0f;fill-rule:evenodd;}.cls-2{fill:#56b320;}.cls-3{fill:#4da11d;}.cls-4{fill:#af7311;}</style></defs><title>tree-color</title><polygon class="cls-1" points="39.64 122.41 72.77 122.41 67.19 103.39 87.62 78.57 77.56 71.42 65.81 90.15 64.48 68.24 47.57 66.8 46.97 85.48 38.7 70.36 27.47 73.34 45.03 95.33 39.64 122.41 39.64 122.41"/><path class="cls-2" d="M28.91,76,33,74.94h0a35.83,35.83,0,0,0,10.22-5.61A41.49,41.49,0,0,0,46,72.6c3.69,3.91,7.68,6.21,11.91,6.78s8.68-.61,13.18-3.64A34.75,34.75,0,0,0,74,73.5l4.56,3.87a20.29,20.29,0,0,0,3.1,1.7A14,14,0,0,0,92,79.62c3.16-1.1,9.85-3.37,12.16-6.61a34.2,34.2,0,0,0,5.31-13.32c6.34-3.5,10.25-7.71,12.11-12a14.71,14.71,0,0,0,.87-9.56A16.43,16.43,0,0,0,117.33,30c-3.84-3.42-13.41-5.81-20.46-6.32-1-1.82-2-7.38-3.09-9C88.55,7,82.64,2.65,76.34,1s-13-.44-19.6,3c-1.15.59-2.3,1.27-3.48,2C43.3.4,33.32-1,25,.64c-5.22,1-13.68,5.17-17.23,8.27S1.64,18,.56,22.7C-.7,28.21.1,34.5,3.66,41.06.06,49.77-.18,57.39,1.86,63.3a19.3,19.3,0,0,0,6.81,9.38c3.07,2.24,10.67,3.53,14.8,3.71A24.17,24.17,0,0,0,28.91,76Zm0,0Z"/><path class="cls-3" d="M82.55,16.68C79.31,12,75.64,9.33,71.73,8.27c-4.15-1.13-8.5-.4-12.88,1.82-.74.37-1.5.8-2.26,1.28l2.28,3,.14.08c.78-.48,1.54-.92,2.3-1.3,4.37-2.21,8.72-2.94,12.87-1.82a17.68,17.68,0,0,1,8.37,5.35ZM12.3,47.37c-1.33,6-.65,10.87,1.31,14.44a12.74,12.74,0,0,0,4.47,4.78,13.35,13.35,0,0,1-1.51-2.2c-2-3.6-2.65-8.55-1.28-14.57l-.08-.1L12.3,47.37Zm9.27-35.94a18.67,18.67,0,0,0-8.31,5,14.7,14.7,0,0,0-4,8.19A17,17,0,0,0,12.5,36.4l0,.12,2.74,2.55a17,17,0,0,1-3.12-11.68,14.68,14.68,0,0,1,4-8.2,18.82,18.82,0,0,1,8.31-5c5.29-1.58,11.83-1.32,18.63,1.69-5.32-5.5-14.17-6.63-21.4-4.46Z"/><polygon class="cls-4" points="50.79 106.3 50 112.86 49.85 114.09 48.66 114 46.77 113.86 47.06 111.38 47.76 111.44 48.4 106.12 50.79 106.3 50.79 106.3 50.79 106.3"/><polygon class="cls-4" points="51.81 94.01 50.84 103.73 48.45 103.59 49.42 93.87 51.81 94.01 51.81 94.01 51.81 94.01"/></svg>