<svg xmlns="http://www.w3.org/2000/svg" shape-rendering="geometricPrecision" text-rendering="geometricPrecision" image-rendering="optimizeQuality" fill-rule="evenodd" clip-rule="evenodd" viewBox="0 0 512 341.46"><path fill-rule="nonzero" d="M1.41 195.06c-3.35-6.86-.51-15.13 6.34-18.48 6.86-3.36 15.13-.52 18.48 6.34 5.58 11.33 14.43 19.48 24.38 23.87 5.54 2.44 11.34 3.71 17.01 3.7 5.58 0 11.12-1.21 16.23-3.73 8.08-3.97 15.28-11.37 20.26-22.65 3.08-7 11.26-10.18 18.26-7.1 3.02 1.33 5.32 3.6 6.72 6.31 5.52 9.92 11.59 17.3 17.98 22.06 5.19 3.85 10.6 5.97 16.07 6.27 5.6.31 11.62-1.24 17.9-4.7 8.81-4.87 17.92-13.32 26.98-25.49a13.72 13.72 0 0 1 5.4-4.36c.73 2.99 1.61 5.96 2.6 8.88 1.76 5.19 4.06 10.52 6.61 15.7.6 1.23 1.21 2.43 1.83 3.6-9.78 11.71-19.91 20.33-30.08 25.95-10.9 6.02-21.92 8.67-32.76 8.07-10.97-.62-21.41-4.55-31.02-11.7-4.67-3.47-9.12-7.7-13.32-12.66-6.23 7.29-13.46 12.8-21.28 16.65-8.99 4.41-18.67 6.55-28.38 6.55-9.63.01-19.24-2.04-28.18-5.98-15.58-6.88-29.4-19.54-38.03-37.1zm383.04-67.22h9.24c1.35.01 2.43 1.1 2.43 2.44 0 .48-.14.95-.41 1.35l-22.03 37.63c-.44.72-1.23 1.16-2.07 1.16-1.34 0-2.43-1.09-2.43-2.43 0-.16.02-.32.05-.47l3.25-23.09-10.97.18h-.04a2.42 2.42 0 0 1-2.42-2.38v-.01c0-.44.12-.87.34-1.25l21.69-37.62c.44-.73 1.23-1.17 2.08-1.17a2.424 2.424 0 0 1 2.41 2.74l-1.12 22.92zm-62.38 17.44c-1.85-.09-3.69-.23-5.53-.41-20.18-1.96-32.6-10.93-50.28-14.96-21.42-4.88-29.21 16.43-27.01 33.99 1.1 8.85 4.44 17.69 8.31 25.59 3.58 7.28 8.05 13.86 13.14 19.96 35.35 42.4 79.1 30.95 101.66-19-20.85-5.86-36.8-23.43-40.29-45.17zm65.53 46.36-.19 1.27c-3.19 20.03-12.88 31.88-17.97 49.28-6.17 21.09 14.62 30.16 32.29 29.02 8.89-.56 17.92-3.36 26.04-6.75 7.48-3.12 14.32-7.19 20.72-11.9 44.69-32.9 35.59-77.56-13.59-103.04-.79-.41-1.59-.78-2.39-1.11-4.84 22.03-22.58 39.22-44.91 43.23zm45.42-64.81 1.12.12c20.14 2.3 32.41 11.46 50.02 15.78 21.34 5.24 29.48-15.93 27.57-33.53-.96-8.86-4.15-17.76-7.89-25.72-3.45-7.34-7.81-13.99-12.8-20.18-34.78-43.13-78.92-32.17-102.23 17.88 22.63 4.58 40.33 22.76 44.21 45.65zM366.29 81.2c.09-1.12.2-2.24.32-3.37 2.26-20.14 11.4-32.43 15.69-50.05 5.18-21.35-16.01-29.44-33.6-27.5-8.86.98-17.75 4.19-25.7 7.95-7.34 3.47-13.98 7.84-20.15 12.84-43.13 34.93-31.98 79.13 18.32 102.31.51.23 1.02.44 1.53.65 4.79-21.53 21.92-38.41 43.59-42.83zM147.83 284.94c5.03-10.2 19.67-10.22 24.76 0l.03.06.03.06c5.57 11.3 14.41 19.43 24.34 23.81 5.54 2.44 11.34 3.71 17.02 3.71 5.58 0 11.13-1.22 16.25-3.73 8.07-3.97 15.28-11.38 20.25-22.65 3.08-7.01 11.26-10.18 18.27-7.1a13.78 13.78 0 0 1 6.72 6.31c5.51 9.91 11.57 17.29 17.96 22.04 5.19 3.86 10.6 5.97 16.06 6.28 5.6.31 11.62-1.24 17.9-4.7 8.81-4.86 17.92-13.31 26.98-25.49.15-.19.29-.38.45-.56 6.54 6.29 14.82 10.68 23.67 13.27 2.22.64 4.49 1.18 6.77 1.61 2.32 2.87 4.85 5.34 7.54 7.4 5.42 4.15 11.53 6.65 17.81 7.41 6.28.75 12.79-.22 19.01-3.03 6.61-2.99 12.98-8.05 18.54-15.32 4.64-6.07 13.33-7.24 19.41-2.6 6.07 4.64 7.24 13.33 2.6 19.41-8.49 11.09-18.52 18.96-29.17 23.77-10.94 4.95-22.47 6.65-33.64 5.31-11.17-1.35-21.93-5.72-31.36-12.94-4.44-3.39-8.56-7.4-12.28-12.01-7.55 7.78-15.26 13.78-23 18.06-10.89 6.01-21.91 8.66-32.75 8.06-10.97-.62-21.41-4.55-31.01-11.7-4.66-3.47-9.11-7.7-13.31-12.66-6.22 7.29-13.47 12.81-21.28 16.65-8.99 4.42-18.67 6.55-28.39 6.56-9.63 0-19.24-2.05-28.19-5.99-9.44-4.17-18.23-10.46-25.61-18.68-7.38 8.22-16.18 14.51-25.62 18.68-8.94 3.94-18.55 5.99-28.18 5.99-9.72-.01-19.4-2.14-28.39-6.56-13.74-6.75-25.7-18.67-33.48-36.3-3.08-7.01.1-15.19 7.1-18.27s15.18.09 18.27 7.1c4.97 11.27 12.18 18.68 20.25 22.65 5.12 2.51 10.66 3.73 16.25 3.73 5.67 0 11.48-1.27 17.01-3.71 9.94-4.38 18.78-12.51 24.35-23.81l.03-.06.03-.06z"/></svg>