<svg xmlns="http://www.w3.org/2000/svg" shape-rendering="geometricPrecision" text-rendering="geometricPrecision" image-rendering="optimizeQuality" fill-rule="evenodd" clip-rule="evenodd" viewBox="0 0 512 380.42"><path fill="#1A1A1A" fill-rule="nonzero" d="m220.13 150.23-.03.07c-1.7 4.75-4.71 8-9.11 10.61-2.5 1.47-5.23 2.61-7.99 3.74-21.74 8.93-43.18 19.69-64.91 28.38-5.22 1.82-9.35-2.76-6.18-7.2l.02-.02c.78-1.09 1.73-1.8 2.77-2.61 19.25-14.95 38.32-30.28 57.45-45.4 3.99-3.15 8.46-6.3 13.73-6.48 10.39-.34 17.63 8.85 14.25 18.91zM12.49 361.11H503.7c1.11 0 2.02.92 2.02 2.02v15.27c0 1.1-.91 2.02-2.02 2.02H12.49c-1.1 0-2.02-.91-2.02-2.02v-15.27c0-1.11.91-2.02 2.02-2.02zm48.07-120.46-.02.05c-.16.43-.34.87-.54 1.29l-.09.21c-.23.47-.51.94-.81 1.39-1.25 1.86-2.89 3.21-4.74 4.3-1.68.99-3.54 1.77-5.42 2.54-14.74 6.04-29.38 12.93-44.04 19.26-4.26 1.46-6.9-2.99-2.98-6.14 12.84-10.58 27.14-20.56 39.66-31.34a38 38 0 0 1 2.68-1.95l.17-.12c.99-.64 2.01-1.2 3.06-1.61l.14-.05c1.01-.38 2.09-.62 3.25-.66 7.17-.22 11.94 6.07 9.68 12.83zm11.94 5.3h9.31c1.26.01 2.35.95 2.5 2.23l11.86 99.08c0 1.39-1.13 2.52-2.52 2.52H62.23l-.26-.02a2.515 2.515 0 0 1-2.24-2.76l10.25-98.58a2.525 2.525 0 0 1 2.52-2.47zm10.69-32.13c1.69.7 3.21 1.72 4.45 2.96 1.25 1.25 2.28 2.78 2.98 4.48.63 1.53.99 3.21 1.01 4.97l.02.25c0 1.84-.37 3.61-1.05 5.24-.69 1.69-1.71 3.2-2.96 4.45a13.852 13.852 0 0 1-4.46 2.96c-1.62.67-3.39 1.03-5.22 1.03a13.8 13.8 0 0 1-5.25-1.03 13.7 13.7 0 0 1-4.45-2.96c-3.89-3.94-5.08-9.8-2.96-14.93.7-1.69 1.71-3.21 2.96-4.46a13.94 13.94 0 0 1 4.48-2.96c1.62-.67 3.38-1.04 5.22-1.04 1.83 0 3.6.37 5.23 1.04zm-14.16-11.9-.02-.05c-1.85-3.94-1.24-8.03-.62-12.18 2.43-15.81 3.78-31.97 6.29-47.73 1.01-4.42 6.17-4.31 6.81.61 2.8 15.63 4.28 33.9 6.29 49.91.04.18.06.37.06.56v.02c.14 1.08.24 2.15.28 3.2.03 1.19-.02 2.36-.2 3.44l-.03.17c-1.85 9.45-14.06 11.81-18.86 2.05zm25.09 35.93c.37-4.5 3.68-7.5 7.99-8.29.53-.09 1.07-.15 1.61-.17.56-.02 1.12-.02 1.64.02 2.18.18 4.12.94 5.94 1.99l.15.08c1.64.96 3.18 2.19 4.74 3.43 12.34 9.5 26.96 19.44 38.35 29.37 3.4 3.32.35 7.22-3.85 5.58l-46.76-19.62c-1.09-.46-2.18-.94-3.21-1.49-1.1-.59-2.13-1.25-3-2.01-2.63-2.26-3.88-5.48-3.6-8.89zm321.3 2.05c2.66 3.56 2.08 8.31-.3 11.84-1.24 1.85-2.89 3.21-4.74 4.3-1.68.99-3.54 1.77-5.41 2.54-14.72 6.03-29.33 13.48-44.03 19.25-3.53 1.23-6.37-1.86-4.2-4.9.3-.41.71-.83 1.22-1.25 12.89-10.2 27.31-20.7 39.65-31.32.86-.68 1.77-1.36 2.74-1.99l.11-.08c.98-.64 2-1.2 3.06-1.61l.14-.05c1.01-.37 2.08-.62 3.25-.66 3.16-.09 6.6 1.36 8.51 3.93zm13.1 14.21h9.31c1.24 0 2.33.93 2.49 2.19l11.82 90.41a2.522 2.522 0 0 1-2.46 3.07h-31.43l-.27-.02a2.525 2.525 0 0 1-2.23-2.78L426 256.51c.06-1.33 1.17-2.4 2.52-2.4zm10.69-32.14c1.7.7 3.21 1.72 4.46 2.96 1.25 1.26 2.27 2.78 2.97 4.48.64 1.53 1 3.21 1.02 4.97l.01.25c0 1.84-.37 3.61-1.04 5.24-.7 1.69-1.71 3.21-2.96 4.45a13.681 13.681 0 0 1-4.47 2.96c-1.62.67-3.38 1.04-5.22 1.04-1.84 0-3.61-.37-5.24-1.04-1.69-.7-3.21-1.71-4.45-2.96a13.745 13.745 0 0 1-4.01-9.69c0-1.84.37-3.61 1.05-5.24.69-1.69 1.71-3.21 2.96-4.46 1.26-1.25 2.78-2.26 4.47-2.96a13.656 13.656 0 0 1 10.45 0zm-4.23-5.58c-2.12.2-4.13-.37-5.89-1.54-1.83-1.21-3.08-2.83-4.04-4.78l-.02-.05c-1.85-3.94-1.24-8.02-.61-12.18 2.43-15.8 3.78-31.98 6.29-47.73.98-4.41 6.16-4.32 6.81.61 2.79 15.63 4.27 33.9 6.28 49.91.05.18.07.37.07.56v.02c.13 1.08.24 2.16.27 3.21.13 3.75-.7 7.05-3.69 9.56-1.54 1.3-3.45 2.22-5.47 2.41zm15.93 26.59c.4-.89.95-1.69 1.62-2.38l.14-.15c3.95-3.94 10.14-3.51 14.66-.9l.15.08c1.7 1.01 3.27 2.25 4.84 3.51 12.3 9.66 26.77 19.29 38.24 29.29.31.3.57.61.77.93l.17.26c1.42 2.54-.37 5.07-3.21 4.8l-.1-.01a5.87 5.87 0 0 1-1.48-.4l-46.76-19.62c-1.09-.46-2.18-.94-3.21-1.49-1.07-.58-2.07-1.22-2.94-1.95l-.05-.05c-3.33-2.84-4.66-7.88-2.84-11.92zm-213.17-84.92h13.72a3.72 3.72 0 0 1 3.68 3.38l17.44 185.14a3.717 3.717 0 0 1-3.66 4.39l-46.62-.01a3.716 3.716 0 0 1-3.41-3.99l15.13-185.33a3.718 3.718 0 0 1 3.72-3.58zm15.75-47.38a20.15 20.15 0 0 1 6.57 4.37c1.85 1.85 3.36 4.09 4.39 6.59.94 2.27 1.47 4.76 1.5 7.36l.01.34c0 2.71-.54 5.33-1.53 7.73a20.054 20.054 0 0 1-4.37 6.56l-.03.02a20.195 20.195 0 0 1-6.55 4.34 20.26 20.26 0 0 1-7.7 1.53c-2.72 0-5.34-.55-7.73-1.53a20.186 20.186 0 0 1-6.56-4.36c-3.77-3.82-5.9-8.91-5.9-14.29 0-2.71.54-5.33 1.53-7.73 1.03-2.48 2.52-4.72 4.37-6.56l.03-.02a20.62 20.62 0 0 1 6.56-4.36 20.26 20.26 0 0 1 7.7-1.53c2.72 0 5.33.55 7.71 1.54zm-6.23-8.22c-3.14.29-6.08-.55-8.7-2.28-2.66-1.76-4.51-4.16-5.91-6.98l-.06-.12c-2.74-5.82-1.83-11.84-.91-17.96 3.52-23.12 5.17-47.65 9.28-70.37 1.46-6.6 9.12-6.35 10.05.95 4.03 23.3 6.27 49.77 9.25 73.52.07.27.1.54.1.82v.03c.6 4.96.92 10.13-1.57 14.64-2.31 4.1-6.81 7.31-11.53 7.75zm22.32 45.76c-.03-.76-.02-1.45.03-2.09.53-6.53 5.24-10.94 11.49-12.19l.33-.07c4.86-.85 9.46.33 13.73 2.85 2.48 1.46 4.72 3.23 6.96 5.03 18.9 13.97 37.53 28.74 56.23 43.03l.34.29a7.97 7.97 0 0 1 1.38 1.77c.5.89.73 1.79.73 2.64 0 .31-.02.62-.1.98-.11.48-.28.94-.6 1.42-.22.33-.5.64-.79.89l-.34.26c-.2.16-.43.3-.68.42-.88.4-1.93.57-3.09.43-.67-.07-1.42-.27-2.23-.59l-68.9-28.92c-1.61-.67-3.21-1.38-4.73-2.2-5.62-3-9.44-7.2-9.76-13.95z"/></svg>