<svg id="Layer_1" data-name="Layer 1" xmlns="http://www.w3.org/2000/svg" viewBox="0 0 100.52 122.88"><title>wind-turbine</title><path d="M36,58.09a7.11,7.11,0,0,1,.72.41l.12.07a6,6,0,0,1,1.43,1.36,5.84,5.84,0,0,1,.89,1.76v0a5.89,5.89,0,0,1,.23,2,7.59,7.59,0,0,1-.37,2l0,0a8,8,0,0,1-.41,1,9.31,9.31,0,0,1-.52.9A9.14,9.14,0,0,1,35,70.32,25.91,25.91,0,0,1,31.55,72c-9.5,3.9-18.87,8.6-28.37,12.4a3.14,3.14,0,0,1-1,.19h0a2.28,2.28,0,0,1-1.25-.32l-.37-.29a2,2,0,0,1-.34-.47l-.1-.24L0,83a1.78,1.78,0,0,1,0-.39v0a2.28,2.28,0,0,1,.47-1.31h0a4.09,4.09,0,0,1,.68-.72C9.51,73.62,18.3,67,26.81,60.23c.6-.48,1.22-.94,1.83-1.34a11.17,11.17,0,0,1,1.93-1l.13,0a6.55,6.55,0,0,1,2.11-.43,6.76,6.76,0,0,1,2.21.32l.1,0a7.33,7.33,0,0,1,.9.35ZM21.64,114.44H38.71l6.4-43.87a1.63,1.63,0,0,1,1.62-1.49h6a1.63,1.63,0,0,1,1.6,1.36l7.4,44H78.88a.89.89,0,0,1,.88.88V122a.89.89,0,0,1-.88.88H21.64a.88.88,0,0,1-.88-.88v-6.68a.88.88,0,0,1,.88-.88Zm32-66.07a9,9,0,0,1,2.87,1.91,8.73,8.73,0,0,1,2.57,6.1v.15a8.77,8.77,0,0,1-2.59,6.24,8.69,8.69,0,0,1-2.87,1.91A8.8,8.8,0,0,1,42.09,59.9a8.84,8.84,0,0,1,0-6.75A8.8,8.8,0,0,1,44,50.28h0a9.15,9.15,0,0,1,2.87-1.9,8.81,8.81,0,0,1,6.74,0Zm0-4.58a5.59,5.59,0,0,1-.8.45,5.82,5.82,0,0,1-1.94.54A5.54,5.54,0,0,1,49,44.63l-.09,0a6.23,6.23,0,0,1-1.8-.83,6.67,6.67,0,0,1-1.39-1.23l-.11-.12a7.71,7.71,0,0,1-.59-.81c-.17-.28-.34-.58-.49-.89l0,0c-1.2-2.54-.8-5.17-.4-7.85,1.8-10,2.25-20.76,4.06-30.76a3.45,3.45,0,0,1,.32-.88l0-.07a2.42,2.42,0,0,1,.85-.86l.06,0a1.69,1.69,0,0,1,.5-.18,1.75,1.75,0,0,1,.42,0A1.89,1.89,0,0,1,51,.13l.32.16a2.31,2.31,0,0,1,.88,1l.06.12a3.94,3.94,0,0,1,.28,1.09c1.76,10.18,2.74,21.75,4,32.13a2.2,2.2,0,0,1,0,.36h0c.08.7.15,1.39.17,2.07a11,11,0,0,1-.13,2.25v.07a6.83,6.83,0,0,1-.72,2,6.51,6.51,0,0,1-1.52,1.83,7.06,7.06,0,0,1-.78.57Zm7,21a7,7,0,0,1,0-.92,5.83,5.83,0,0,1,.5-2,5.43,5.43,0,0,1,1-1.54l.09-.09a6.08,6.08,0,0,1,1.61-1.14,7.46,7.46,0,0,1,1.78-.6l.14,0a7.57,7.57,0,0,1,1-.11,8.14,8.14,0,0,1,1,0h.07a9.28,9.28,0,0,1,3.92,1.33A27.18,27.18,0,0,1,74.93,62c8.12,6.31,16.34,12.51,24.52,18.76l.14.12a3.78,3.78,0,0,1,.61.78,2.44,2.44,0,0,1,.32,1.15l0,.26,0,.17a1.89,1.89,0,0,1-.24.6,2.05,2.05,0,0,1-.39.44l-.14.1a1.75,1.75,0,0,1-.27.16,2.51,2.51,0,0,1-1.36.2,4,4,0,0,1-1-.26L67,71.84c-.7-.29-1.4-.61-2.07-1A11.37,11.37,0,0,1,63,69.63l-.05,0a6.48,6.48,0,0,1-2.22-3.83,6.12,6.12,0,0,1-.11-1Z"/></svg>