<svg xmlns="http://www.w3.org/2000/svg" shape-rendering="geometricPrecision" text-rendering="geometricPrecision" image-rendering="optimizeQuality" fill-rule="evenodd" clip-rule="evenodd" viewBox="0 0 512 512"><path fill="#fff" fill-rule="nonzero" d="M412.19 122.43 122.46 412.16c16.99 14.55 36.35 26.37 57.42 34.78 23.48 9.37 49.17 14.52 76.15 14.52 27.9 0 54.45-5.53 78.61-15.53 25.07-10.39 47.69-25.66 66.68-44.65 18.98-18.98 34.25-41.59 44.63-66.67 10.01-24.17 15.54-50.72 15.54-78.61 0-26.98-5.16-52.67-14.53-76.15-8.4-21.07-20.22-40.43-34.77-57.42zM88.35 374.8 374.83 88.32c-15.54-11.03-32.65-19.95-50.92-26.34-21.19-7.41-44.04-11.44-67.88-11.44-27.9 0-54.44 5.53-78.61 15.53-25.07 10.39-47.69 25.66-66.68 44.65-18.98 18.99-34.25 41.6-44.64 66.68-10.01 24.16-15.54 50.71-15.54 78.6h-.04c0 23.77 4.05 46.61 11.49 67.88 6.39 18.27 15.31 35.38 26.34 50.92z"/><path d="M116.19 241.81c-.68-3.58-.93-7.14-.78-10.62l-15.89-6.75c-4.82-2.05-7.06-7.62-5.01-12.44 2.05-4.82 7.63-7.06 12.45-5.01l13.29 5.64c5.03-10.02 13.67-18.11 24.58-22.27l-2.41-19.6c-.64-5.21 3.06-9.95 8.27-10.59 5.21-.64 9.96 3.06 10.6 8.27l2.33 18.94c10.19.52 19.74 4.44 27.3 10.83l9.46-11.78c3.27-4.08 9.25-4.73 13.33-1.45 4.08 3.28 4.72 9.25 1.45 13.33l-12.38 15.4c1.59 3.39 2.79 7.03 3.53 10.87 3.45 17.98 10.09 31.57 19.2 41.02l8.71-12.12c3.05-4.26 8.98-5.23 13.24-2.18 4.25 3.04 5.23 8.97 2.19 13.23l-8.82 12.26c11.85 5.98 26.66 8.86 43.68 8.79.52 0 1.04.01 1.56.03l7.22-18.89a9.477 9.477 0 0 1 12.23-5.5c4.9 1.85 7.36 7.33 5.51 12.23l-6.38 16.67c15.3 7.38 25.9 23.01 25.98 41.15.01 1.09-.03 2.17-.1 3.24 3.51 1.55 7.06 3.19 10.65 4.86 11.39 5.27 23.09 10.68 32.27 12.48 5.15 1 8.5 5.98 7.51 11.13-1 5.14-5.99 8.5-11.13 7.5-11.45-2.24-24.21-8.15-36.64-13.9-2.65-1.23-5.3-2.46-7.89-3.62-6.98 13.18-20.21 22.56-35.76 24.18l1.88 12.91c.73 5.18-2.86 9.98-8.04 10.72-5.18.74-9.98-2.86-10.72-8.03l-2.28-15.75c-17.66-1.06-34.39-4.22-49.95-9.53l-6.27 16.39c-1.85 4.89-7.33 7.36-12.23 5.5-4.89-1.86-7.36-7.33-5.5-12.23l6.43-16.82a151.549 151.549 0 0 1-29.13-18.2c-.76-.6-1.51-1.22-2.26-1.84l-10.91 15.17c-3.05 4.26-8.98 5.24-13.24 2.19-4.25-3.04-5.23-8.97-2.19-13.23l11.99-16.68.43-.55c-9.73-10.42-18.07-22.36-24.87-35.85l-15.4 5.35c-4.95 1.71-10.36-.93-12.06-5.88-1.7-4.96.93-10.36 5.89-12.06l13.97-4.86c-3.71-9.97-6.7-20.65-8.89-32.05zM293.04 89.04c10.81 0 19.57 8.76 19.57 19.56 0 10.81-8.76 19.56-19.57 19.56-10.8 0-19.55-8.75-19.55-19.56 0-10.8 8.75-19.56 19.55-19.56zm0 11.66c4.37 0 7.9 3.54 7.9 7.9s-3.53 7.9-7.9 7.9c-4.36 0-7.89-3.54-7.89-7.9s3.53-7.9 7.89-7.9zm-88.75-7.74c14.73 0 26.68 11.95 26.68 26.68s-11.95 26.68-26.68 26.68-26.68-11.95-26.68-26.68 11.95-26.68 26.68-26.68zm0 15.91c5.95 0 10.77 4.82 10.77 10.77 0 5.95-4.82 10.77-10.77 10.77-5.95 0-10.77-4.82-10.77-10.77 0-5.95 4.82-10.77 10.77-10.77zm180.61 73.64c13.66 0 24.73 11.07 24.73 24.73s-11.07 24.74-24.73 24.74-24.73-11.08-24.73-24.74c0-13.66 11.07-24.73 24.73-24.73zm0 14.75c5.52 0 9.99 4.47 9.99 9.98 0 5.52-4.47 9.99-9.99 9.99-5.51 0-9.98-4.47-9.98-9.99 0-5.51 4.47-9.98 9.98-9.98zm-32.18 74.36c9.3 0 16.84 7.54 16.84 16.84s-7.54 16.84-16.84 16.84-16.83-7.54-16.83-16.84 7.53-16.84 16.83-16.84zm0 10.04a6.8 6.8 0 0 1 6.8 6.8c0 3.76-3.04 6.8-6.8 6.8-3.75 0-6.79-3.04-6.79-6.8 0-3.75 3.04-6.8 6.79-6.8zm-196.04-62.79c5.56-.68 10.62 3.27 11.31 8.83.68 5.57-3.27 10.63-8.84 11.32-5.56.68-10.62-3.28-11.3-8.84-.69-5.56 3.27-10.62 8.83-11.31zm66 86.88c5.42-.66 10.37 3.19 11.03 8.62.67 5.43-3.19 10.38-8.62 11.04-5.43.67-10.37-3.19-11.04-8.62-.66-5.43 3.2-10.37 8.63-11.04zm60.07 12.23c6.8-.84 13 4.01 13.84 10.82.83 6.81-4 13-10.82 13.84-6.8.84-13-4.01-13.84-10.81-.84-6.81 4-13.01 10.82-13.85zM155.18 206.74c12.27-1.51 23.43 7.21 24.94 19.47 1.51 12.27-7.21 23.43-19.48 24.94-12.26 1.5-23.42-7.21-24.93-19.48-1.51-12.26 7.21-23.43 19.47-24.93zm24.43 62.78c6.35-.78 12.13 3.73 12.91 10.08.78 6.34-3.73 12.12-10.08 12.9-6.34.78-12.12-3.73-12.9-10.08-.78-6.34 3.73-12.12 10.07-12.9zm41.61 24.39c11.97-1.48 22.86 7.04 24.34 19.01 1.47 11.97-7.05 22.86-19.02 24.34-11.96 1.47-22.86-7.04-24.33-19.01-1.47-11.98 7.03-22.87 19.01-24.34z"/><path fill="#D92D27" fill-rule="nonzero" d="M256 512c-34.61 0-67.67-6.9-97.86-19.41-31.4-13-59.6-32.01-83.16-55.57a256.517 256.517 0 0 1-55.57-83.16C6.9 323.66 0 290.61 0 256s6.9-67.67 19.41-97.86A256.41 256.41 0 0 1 158.13 19.41C188.33 6.9 221.39 0 256 0c34.61 0 67.67 6.9 97.86 19.41 31.4 13 59.6 32.01 83.16 55.57a256.304 256.304 0 0 1 55.57 83.16C505.1 188.33 512 221.39 512 256s-6.9 67.67-19.41 97.86c-13 31.4-32.01 59.6-55.57 83.16a256.304 256.304 0 0 1-83.16 55.57C323.67 505.1 290.61 512 256 512zM88.32 374.8 374.8 88.32c-15.54-11.03-32.65-19.95-50.92-26.34-21.19-7.41-44.03-11.44-67.88-11.44-27.89 0-54.44 5.52-78.61 15.53-25.07 10.39-47.69 25.66-66.67 44.65-18.99 18.99-34.26 41.6-44.65 66.68-10.01 24.16-15.54 50.71-15.54 78.6h-.04c0 23.77 4.05 46.62 11.49 67.88 6.39 18.27 15.31 35.38 26.34 50.92zm323.84-252.37L122.43 412.16c16.99 14.55 36.35 26.37 57.42 34.78 23.48 9.36 49.17 14.52 76.15 14.52 27.9 0 54.45-5.52 78.61-15.53 25.08-10.39 47.69-25.66 66.68-44.65 18.98-18.98 34.25-41.6 44.64-66.67 10.01-24.17 15.53-50.71 15.53-78.61 0-26.97-5.15-52.67-14.52-76.15-8.41-21.07-20.23-40.43-34.78-57.42z"/></svg>