<svg id="Layer_1" data-name="Layer 1" xmlns="http://www.w3.org/2000/svg" viewBox="0 0 122.88 122.88"><defs><style>.cls-1{fill:#fff;}.cls-2{fill-rule:evenodd;}.cls-3{fill:#d92d27;}</style></defs><title>anti-corona</title><path class="cls-1" d="M24,29.38,93.49,98.92A49.31,49.31,0,0,1,24,29.38ZM101.68,90,32.92,21.2A49.24,49.24,0,0,1,96.3,26.57a49,49,0,0,1,14.44,34.87h0A49,49,0,0,1,101.68,90Z"/><path class="cls-2" d="M58.25,24.72a3.26,3.26,0,0,0,.74,2c.56.77,1.24,1.21,1.39,2.22A10.61,10.61,0,0,1,60,32a29.46,29.46,0,0,0-8.59,1.71,7.35,7.35,0,0,1-1.58-2.62,2.93,2.93,0,0,1,.2-1.27,5.3,5.3,0,0,0,.25-3.59c-1.13-2.33-7.15.25-6.24,2.67a3.27,3.27,0,0,0,1.46,1.51c.81.49,1.61.63,2.14,1.49a10.45,10.45,0,0,1,.9,3,29.44,29.44,0,0,0-6.93,4.71,7.4,7.4,0,0,1-2.48-1.82,2.88,2.88,0,0,1-.3-1.25,5.27,5.27,0,0,0-1.14-3.42c-1.93-1.71-6.51,3-4.75,4.86a3.28,3.28,0,0,0,1.93.83c.94.15,1.73,0,2.55.56a10.54,10.54,0,0,1,2,2.47,29.86,29.86,0,0,0-4.62,7,7.39,7.39,0,0,1-3-.73,3,3,0,0,1-.76-1.05,5.3,5.3,0,0,0-2.36-2.72c-2.44-.85-4.88,5.23-2.53,6.3a3.33,3.33,0,0,0,2.1,0c.92-.23,1.58-.7,2.57-.46a10.66,10.66,0,0,1,2.77,1.51A29.51,29.51,0,0,0,32,60a7.31,7.31,0,0,1-3,.45,2.76,2.76,0,0,1-1.09-.67c-.78-.71-2.12-1.68-3.22-1.61-2.58.14-2.52,6.69.06,6.78a3.19,3.19,0,0,0,1.95-.77c.77-.56,1.2-1.24,2.21-1.4a10.73,10.73,0,0,1,3.15.34,29.08,29.08,0,0,0,1.66,8.22A7.59,7.59,0,0,1,31.1,73a3.08,3.08,0,0,1-1.27-.21c-1-.36-2.6-.74-3.6-.26-2.32,1.12.24,7.14,2.66,6.25a3.31,3.31,0,0,0,1.51-1.46c.49-.81.63-1.61,1.5-2.14a10.31,10.31,0,0,1,3-.88,29.38,29.38,0,0,0,4.69,7,7.37,7.37,0,0,1-1.83,2.46,2.88,2.88,0,0,1-1.25.3,5.32,5.32,0,0,0-3.42,1.13C31.4,87,36.06,91.6,38,89.85a3.3,3.3,0,0,0,.84-1.92c.15-.94,0-1.73.57-2.55a10.5,10.5,0,0,1,2.46-2,30,30,0,0,0,7,4.65,7.51,7.51,0,0,1-.75,3,2.85,2.85,0,0,1-1,.75c-1,.44-2.36,1.31-2.73,2.35-.86,2.44,5.21,4.9,6.29,2.56a3.27,3.27,0,0,0,0-2.1c-.22-.93-.69-1.59-.45-2.58a10.78,10.78,0,0,1,1.52-2.76,29.19,29.19,0,0,0,8.24,1.62,7.25,7.25,0,0,1,.44,3A3,3,0,0,1,59.7,95c-.71.77-1.68,2.11-1.62,3.21.14,2.58,6.68,2.54,6.79,0a3.36,3.36,0,0,0-.77-2c-.56-.77-1.24-1.2-1.39-2.2a10.3,10.3,0,0,1,.35-3.14,29.2,29.2,0,0,0,8.23-1.64,7.38,7.38,0,0,1,1.56,2.62,2.93,2.93,0,0,1-.21,1.27c-.36,1-.75,2.59-.27,3.59,1.11,2.33,7.14-.21,6.25-2.63a3.26,3.26,0,0,0-1.45-1.52c-.81-.5-1.61-.64-2.13-1.5a10.36,10.36,0,0,1-.87-3,29.62,29.62,0,0,0,7-4.67,7.33,7.33,0,0,1,2.45,1.83,3,3,0,0,1,.29,1.25c0,1,.3,2.68,1.12,3.42,1.92,1.73,6.52-2.92,4.78-4.82a3.36,3.36,0,0,0-1.92-.85c-.94-.15-1.74,0-2.55-.57a10.49,10.49,0,0,1-2-2.47,29.28,29.28,0,0,0,4.67-7,7.43,7.43,0,0,1,3,.76,3,3,0,0,1,.75,1,5.28,5.28,0,0,0,2.34,2.73c2.43.87,4.91-5.19,2.57-6.28a3.33,3.33,0,0,0-2.1-.05c-.92.22-1.59.69-2.57.44a10.55,10.55,0,0,1-2.75-1.52A29.56,29.56,0,0,0,90.85,63a7.4,7.4,0,0,1,3-.43,2.91,2.91,0,0,1,1.09.68,5.34,5.34,0,0,0,3.21,1.64c2.58-.13,2.56-6.68,0-6.79a3.33,3.33,0,0,0-2,.75c-.77.56-1.21,1.25-2.21,1.4a10.93,10.93,0,0,1-3.13-.36,29.54,29.54,0,0,0-1.62-8.24,7.29,7.29,0,0,1,2.62-1.55,2.79,2.79,0,0,1,1.27.21c1,.37,2.59.76,3.59.28,2.34-1.1-.18-7.14-2.61-6.26a3.29,3.29,0,0,0-1.52,1.44c-.5.81-.64,1.61-1.51,2.13a10.36,10.36,0,0,1-3,.87,29.71,29.71,0,0,0-4.65-7,7.25,7.25,0,0,1,1.84-2.45,2.88,2.88,0,0,1,1.25-.29c1,0,2.69-.29,3.43-1.11,1.73-1.91-2.9-6.53-4.81-4.79a3.31,3.31,0,0,0-.85,1.92c-.15.93,0,1.73-.59,2.54a10.44,10.44,0,0,1-2.47,2,29.6,29.6,0,0,0-7-4.68A7.52,7.52,0,0,1,75,32,3,3,0,0,1,76,31.21a5.28,5.28,0,0,0,2.75-2.34c.87-2.43-5.18-4.93-6.28-2.59a3.33,3.33,0,0,0-.05,2.1c.21.93.68,1.59.43,2.58a10.47,10.47,0,0,1-1.54,2.75,29.43,29.43,0,0,0-8.22-1.66,7.45,7.45,0,0,1-.43-3,3,3,0,0,1,.69-1.09A5.29,5.29,0,0,0,65,24.72c-.12-2.58-6.66-2.58-6.78,0ZM65.19,39a4.58,4.58,0,1,1-4.58,4.58A4.58,4.58,0,0,1,65.19,39Zm11.57,9.38a1.17,1.17,0,1,1-1.16,1.17,1.17,1.17,0,0,1,1.16-1.17ZM66.41,81.52a1.17,1.17,0,0,1,0,2.34,1.17,1.17,0,0,1,0-2.34ZM46.86,74a1.17,1.17,0,1,1-1.17,1.16A1.16,1.16,0,0,1,46.86,74Zm29.77-2.25A1.17,1.17,0,1,1,75.46,73a1.17,1.17,0,0,1,1.17-1.17Zm-6.06,2.41a2.16,2.16,0,1,1-2.16,2.16,2.16,2.16,0,0,1,2.16-2.16Zm-12.9-3.13a3,3,0,1,1-3,3,3,3,0,0,1,3-3Zm-.05-8.14a1.17,1.17,0,1,1-1.17,1.17,1.17,1.17,0,0,1,1.17-1.17ZM39,49.64a1.17,1.17,0,1,1-1.17,1.17A1.17,1.17,0,0,1,39,49.64Zm13.69,2.72a1.17,1.17,0,1,1-1.17,1.17,1.17,1.17,0,0,1,1.17-1.17ZM63,53.61a2.13,2.13,0,1,1-2.12,2.13A2.13,2.13,0,0,1,63,53.61Zm20,.74a2.13,2.13,0,1,1-2.12,2.13A2.13,2.13,0,0,1,83,54.35ZM72.55,58.22a2.92,2.92,0,1,1-2.92,2.92,2.92,2.92,0,0,1,2.92-2.92Zm-29.18-.07a4.58,4.58,0,1,1-4.58,4.58,4.58,4.58,0,0,1,4.58-4.58Zm7.46-15.29a3,3,0,1,1-3,3,3,3,0,0,1,3-3Z"/><path class="cls-3" d="M61.44,122.88A61.31,61.31,0,1,0,38,118.22a61.29,61.29,0,0,0,23.49,4.66ZM101.68,90,32.93,21.2a49.44,49.44,0,0,1,47.38-5.34A49.53,49.53,0,0,1,107,42.58a49,49,0,0,1,3.73,18.86h0A48.93,48.93,0,0,1,101.68,90ZM24,29.38,93.5,98.92A49.32,49.32,0,0,1,24,29.38Z"/></svg>