<svg xmlns="http://www.w3.org/2000/svg" viewBox="0 0 105.41 122.88"><path d="M56.72 18.9c-.86 2.06-7.35 2.19-8.15.22-1.02.21-4.97-.23-4.52-2.04.14-.55.69-.9 1.44-.61l2.73 1.14c-.17-.04.08-2.1.63-2.86 2.56 1.18 5.07 1.49 7.44 0 .52 1.12.84 1.77.75 2.86l2.71-1.13c.74-.29 1.3.06 1.43.61.49 1.89-4.63 2.57-4.46 1.81zM25.66 93.37c.05 1.97-.05 3.82-.3 5.55-.25 1.74-.64 3.38-1.15 4.92-.46 1.39-1.02 2.71-1.66 3.94-.6 1.16-1.28 2.27-2.01 3.32 4.19 2.79 9.09 4.88 14.35 6.29 5.68 1.52 11.77 2.27 17.84 2.27 6.25 0 12.44-.78 18.11-2.3 5.41-1.45 10.34-3.57 14.36-6.31-.72-1.2-1.36-2.41-1.93-3.65-.61-1.3-1.14-2.63-1.6-3.98-.52-1.55-.96-3.13-1.29-4.75-.34-1.61-.58-3.25-.74-4.93a1.13 1.13 0 010-.26c0-.07.02-.15.03-.22-.27-5.43.56-10.66 1.99-15.86 1.43-5.2 3.44-10.38 5.53-15.73 2.59-6.65 5.29-13.57 7.03-21.07.1-.43.36-.78.71-1l.02-.01c.35-.21.77-.29 1.2-.2.43.1.78.36 1 .71.22.35.3.78.21 1.21-.89 3.85-2.03 7.54-3.27 11.12-1.24 3.58-2.58 7.02-3.9 10.4-1.76 4.53-3.48 8.94-4.81 13.31-1.24 4.08-2.14 8.13-2.44 12.24 2.89-4.27 5.54-8.63 7.87-13.09 2.47-4.71 4.59-9.54 6.32-14.51 1.94-5.61 3.38-11.4 4.22-17.42.84-6.01 1.07-12.24.62-18.72-.86-5.22-2.5-7.91-4.68-9.36-2.18-1.45-4.93-1.66-7.96-1.9-1.54-.12-3.15-.25-4.82-.51-1.67-.27-3.39-.67-5.14-1.35-.97-.38-1.89-.8-2.78-1.27a25.99 25.99 0 01-4.69-3.19 27.1 27.1 0 01-1.92-1.79c-2.87-.68-5.71-1.19-8.54-1.54-2.84-.36-5.68-.53-8.48-.53-2.81 0-5.6.17-8.38.52-2.75.34-5.49.85-8.2 1.53-.87.86-1.81 1.67-2.82 2.43a28.01 28.01 0 01-3.29 2.11c-1.22.67-2.52 1.27-3.9 1.79s-2.85.98-4.4 1.35c-1.57.38-3.01.63-4.34.81-1.34.18-2.55.28-3.66.38-2.97.26-5.19.45-6.88 2.08-1.7 1.65-2.91 4.78-3.85 10.94.16 6.49.82 12.64 1.91 18.51 1.09 5.87 2.62 11.45 4.53 16.78 1.67 4.67 3.65 9.16 5.87 13.47 2.09 4.05 4.41 7.95 6.93 11.73-.29-4.1-1.15-8.13-2.33-12.17-1.27-4.34-2.9-8.7-4.59-13.2v-.01c-2.46-6.55-5.02-13.39-6.77-20.93v-.01c-.1-.43-.01-.86.21-1.21s.57-.61 1-.71h.01c.43-.1.86-.01 1.21.21l.01.01c.34.22.6.57.7.99 1.71 7.37 4.23 14.09 6.65 20.54l.01.02c2.02 5.39 3.97 10.58 5.33 15.81 1.37 5.25 2.15 10.54 1.83 16.09 0 .06-.01.12-.02.17l-.07.14zm-4.49 9.46c.46-1.39.81-2.88 1.03-4.47.22-1.59.3-3.28.24-5.1-3.25-4.53-6.22-9.24-8.87-14.17-2.66-4.95-4.99-10.13-6.94-15.56-1.97-5.49-3.54-11.24-4.66-17.28C.85 40.2.18 33.86.01 27.17 0 27.11 0 27.04 0 26.98c0-.07.01-.14.02-.2 1.12-7.4 2.63-11.19 4.82-13.23 2.2-2.05 5.04-2.3 8.82-2.63h.01c2.16-.19 4.68-.41 7.52-1.1 1.41-.34 2.75-.75 4-1.23s2.43-1.01 3.52-1.61c1.08-.59 2.1-1.25 3.04-1.96s1.82-1.49 2.63-2.32l.02-.02c.09-.09.2-.18.32-.25.13-.07.26-.13.41-.17h.02c2.92-.75 5.86-1.32 8.82-1.69C46.95.19 49.94 0 52.95 0c3 0 6.01.19 9.04.56 3.03.37 6.07.93 9.14 1.68.16.03.32.09.47.17.14.08.28.18.39.31.59.63 1.21 1.22 1.86 1.78.65.56 1.32 1.08 2.03 1.57.7.48 1.44.93 2.22 1.35.77.41 1.59.78 2.43 1.11 3.04 1.18 6.15 1.42 9.03 1.65h.03c3.68.29 7.02.55 9.73 2.36 2.72 1.81 4.76 5.16 5.82 11.59l.02.12.01.13c.47 6.71.23 13.17-.64 19.4a94.728 94.728 0 01-4.37 18.05c-1.99 5.73-4.48 11.26-7.39 16.62-2.9 5.34-6.21 10.52-9.86 15.59.16 1.42.38 2.82.68 4.2.3 1.41.69 2.79 1.14 4.14a36.304 36.304 0 003.99 8.21l.01.02c.22.35.29.75.22 1.13-.07.39-.28.75-.62 1-4.33 3.25-9.76 5.75-15.75 7.45-6.2 1.76-13 2.67-19.84 2.67-6.64 0-13.33-.86-19.54-2.62-5.84-1.66-11.25-4.12-15.8-7.43l-.11-.08c-.35-.27-.56-.66-.61-1.07-.05-.41.05-.84.33-1.19.88-1.14 1.69-2.33 2.39-3.6l.01-.02c.69-1.25 1.29-2.58 1.76-4.01v-.01zm22.01-34.17c2.05.01 3.63-.89 4.66-2.87.32-.06.63-.12.95-.17-.09-.11-.17-.22-.22-.35-1.02.21-4.97-.23-4.52-2.04.14-.55.69-.9 1.44-.61l2.73 1.14c-.17-.04.08-2.1.63-2.86 2.56 1.18 5.07 1.49 7.44 0 .52 1.12.84 1.77.75 2.86l2.71-1.13c.74-.29 1.3.06 1.43.61.48 1.9-4.64 2.58-4.46 1.82-.08.18-.2.35-.36.5.41.07.81.14 1.22.23.69 1.67 2.05 2.75 4.6 2.82.48.08.54 1.15 0 1.25-2.14-.04-3.75.75-4.6 2.71-3.29-1.23-6.61-1.16-9.96.05-.97-2.11-2.5-2.86-4.44-2.6-.77-.1-.66-1.33 0-1.36zm-.56 33.05c2.17.01 3.85-.94 4.93-3.04 3.41-.66 6.85-.77 10.33 0 .73 1.77 2.18 2.92 4.88 2.98.51.08.57 1.22 0 1.32-2.27-.04-3.97.8-4.88 2.87 1 2.94-11.19 3.16-10.56.06-1.03-2.24-2.65-3.03-4.71-2.75-.81-.11-.7-1.42.01-1.44zm0-8.31c2.17.01 3.85-.94 4.93-3.04 3.41-1.45 6.85-1.53 10.33 0 .73 1.77 2.18 2.92 4.88 2.98.51.08.57 1.22 0 1.32-2.27-.04-3.97.8-4.88 2.87-3.48-1.31-7-1.22-10.56.06-1.03-2.24-2.65-3.03-4.71-2.75-.81-.1-.7-1.41.01-1.44zm0-8.39c2.17.01 3.85-.94 4.93-3.04 3.2-1.13 6.63-1.24 10.33 0 .73 1.77 2.18 2.92 4.88 2.98.51.08.57 1.22 0 1.32-2.27-.04-3.97.8-4.88 2.87-3.48-1.31-7-1.22-10.56.06-1.03-2.24-2.65-3.03-4.71-2.75-.81-.11-.7-1.42.01-1.44zm0-8.39c2.17.01 3.85-.94 4.93-3.04 3.08-1.32 6.52-1.43 10.33 0 .73 1.77 2.18 2.92 4.88 2.98.51.08.57 1.22 0 1.32-2.27-.04-3.97.8-4.88 2.87-3.48-1.31-7-1.22-10.56.06-1.03-2.24-2.65-3.03-4.71-2.75-.81-.1-.7-1.41.01-1.44zm14.1-18.16c-.86 2.06-7.35 2.19-8.15.22-1.02.21-4.97-.23-4.52-2.04.14-.55.69-.9 1.44-.61l2.73 1.14c-.17-.04.08-2.1.63-2.86 2.56 1.18 5.07 1.49 7.44 0 .52 1.12.84 1.77.75 2.86l2.71-1.13c.74-.29 1.3.06 1.43.61.49 1.9-4.63 2.58-4.46 1.81zm0-6.59c-.86 2.06-7.35 2.19-8.15.22-1.02.21-4.97-.23-4.52-2.04.14-.55.69-.9 1.44-.61l2.73 1.14c-.17-.04.08-2.1.63-2.86 2.56 1.18 5.07 1.49 7.44 0 .52 1.12.84 1.77.75 2.86l2.71-1.13c.74-.29 1.3.06 1.43.61.49 1.89-4.63 2.57-4.46 1.81zm0-6.59c-.86 2.06-7.35 2.19-8.15.22-1.02.21-4.97-.23-4.52-2.04.14-.55.69-.9 1.44-.61l2.73 1.14c-.17-.04.08-2.1.63-2.86 2.56 1.18 5.07 1.49 7.44 0 .52 1.12.84 1.77.75 2.86l2.71-1.13c.74-.29 1.3.06 1.43.61.49 1.89-4.63 2.57-4.46 1.81zm0-6.6c-.86 2.06-7.35 2.19-8.15.22-1.02.21-4.97-.23-4.52-2.04.14-.55.69-.9 1.44-.61l2.73 1.14c-.17-.04.08-2.1.63-2.86 2.56 1.18 5.07 1.49 7.44 0 .52 1.12.84 1.77.75 2.86l2.71-1.13c.74-.29 1.3.06 1.43.61.49 1.89-4.63 2.57-4.46 1.81zm0-6.59c-.86 2.06-7.35 2.19-8.15.22-1.02.21-4.97-.23-4.52-2.04.14-.55.69-.9 1.44-.61l2.73 1.14c-.17-.04.08-2.1.63-2.86 2.56 1.18 5.07 1.49 7.44 0 .52 1.12.84 1.77.75 2.86l2.71-1.13c.74-.29 1.3.06 1.43.61.49 1.89-4.63 2.57-4.46 1.81zm0-6.6c-.86 2.06-7.35 2.19-8.15.22-1.02.21-4.97-.23-4.52-2.04.14-.55.69-.9 1.44-.61l2.73 1.14c-.17-.04.08-2.1.63-2.86 2.56 1.18 5.07 1.49 7.44 0 .52 1.12.84 1.77.75 2.86l2.71-1.13c.74-.29 1.3.06 1.43.61.49 1.9-4.63 2.57-4.46 1.81z" fill-rule="evenodd" clip-rule="evenodd"/></svg>