<svg xmlns="http://www.w3.org/2000/svg" shape-rendering="geometricPrecision" text-rendering="geometricPrecision" image-rendering="optimizeQuality" fill-rule="evenodd" clip-rule="evenodd" viewBox="0 0 512 487.83"><path d="M36.66 146.96c-.47-6.95-.1-13.76.99-20.34L9.05 110.1C.38 105.08-2.57 93.98 2.44 85.31c5.02-8.67 16.13-11.63 24.8-6.61l23.92 13.81c11.9-17.85 30.2-31.19 51.87-36.56V18.19C103.03 8.15 111.18 0 121.22 0c10.04 0 18.19 8.15 18.19 18.19v36.49c19.23 3.37 36.46 13.05 49.3 26.95l20.72-20.17c7.18-6.98 18.67-6.82 25.65.36 6.98 7.17 6.82 18.66-.36 25.64l-27.08 26.37c2.22 6.8 3.64 14 4.14 21.46 2.36 34.94 11.79 62.29 26.9 82.37l19.36-20.97c6.79-7.38 18.27-7.85 25.65-1.07 7.37 6.78 7.84 18.26 1.06 25.64l-19.59 21.21c21.1 14.13 48.55 23.06 80.88 26.9.99.11 1.97.26 2.95.41l18.13-34.17c4.67-8.87 15.64-12.27 24.51-7.6 8.86 4.67 12.26 15.65 7.59 24.51l-16 30.17c27.34 17.59 43.8 49.75 39.73 84.2a87.86 87.86 0 0 1-.94 6.13c6.29 3.76 12.66 7.71 19.08 11.7 20.41 12.67 41.36 25.69 58.37 31.24 9.53 3.1 14.74 13.35 11.65 22.88s-13.35 14.74-22.88 11.65c-21.21-6.92-44.06-21.12-66.32-34.94-4.76-2.95-9.49-5.9-14.13-8.72-16.35 23.4-43.65 38.12-73.56 37.57l.55 24.96c.19 10-7.76 18.28-17.76 18.47-10 .19-18.28-7.76-18.47-17.76l-.66-30.42c-33.29-6.14-64.32-16.04-92.63-29.76l-15.72 29.65c-4.67 8.86-15.65 12.27-24.51 7.6-8.87-4.67-12.27-15.65-7.6-24.51l16.14-30.43c-18.54-11.85-35.61-25.63-51.06-41.37-1.3-1.32-2.58-2.68-3.87-4.02l-24.25 26.27c-6.79 7.37-18.27 7.85-25.65 1.07-7.37-6.79-7.84-18.27-1.06-25.65l26.65-28.86.95-.96c-16.04-22.04-29.1-46.66-38.87-73.87l-30.48 6.57c-9.81 2.08-19.45-4.19-21.53-13.99-2.07-9.8 4.19-19.45 13.99-21.52l27.66-5.97c-4.71-19.79-7.89-40.77-9.38-62.94zm82.22-34.09c10.72 0 19.42 8.68 19.42 19.41 0 10.72-8.7 19.41-19.42 19.41-10.72 0-19.41-8.69-19.41-19.41 0-10.73 8.69-19.41 19.41-19.41zm105.04 180.37c10.46 0 18.94 8.48 18.94 18.95 0 10.46-8.48 18.94-18.94 18.94-10.47 0-18.95-8.48-18.95-18.94 0-10.47 8.48-18.95 18.95-18.95zm111.2 37.24c13.13 0 23.77 10.64 23.77 23.77 0 13.12-10.64 23.76-23.77 23.76-13.12 0-23.76-10.64-23.76-23.76 0-13.13 10.64-23.77 23.76-23.77zM118.88 89.47c23.64 0 42.8 19.17 42.8 42.8 0 23.65-19.16 42.81-42.8 42.81-23.64 0-42.8-19.16-42.8-42.81 0-23.63 19.16-42.8 42.8-42.8zm31.73 124.92c12.23 0 22.15 9.92 22.15 22.15 0 12.23-9.92 22.15-22.15 22.15-12.23 0-22.15-9.92-22.15-22.15 0-12.23 9.92-22.15 22.15-22.15zm73.3 56.02c23.08 0 41.78 18.7 41.78 41.78 0 23.07-18.7 41.77-41.78 41.77-23.07 0-41.77-18.7-41.77-41.77 0-23.08 18.7-41.78 41.77-41.78z"/></svg>