<svg id="Layer_1" data-name="Layer 1" xmlns="http://www.w3.org/2000/svg" viewBox="0 0 93.86 122.88"><defs><style>.cls-1{fill-rule:evenodd;}</style></defs><title>bong</title><path class="cls-1" d="M29.85,79.91c16.08,7.75,9.83-1.5,22.52-6.59a33.25,33.25,0,0,1,7.85-2h0c2.48-.35,1.27.14,2.74-1.18L81.18,53.68l.21-.18a2.12,2.12,0,0,1,3,.44l1.35,1.8,3.59-3.22L78.13,39.18l-3.64,3.26,1,1.25a2.12,2.12,0,0,1-.23,3L60,59.83a2.09,2.09,0,0,1-.64.38l-1.15,1a27.38,27.38,0,0,0-9.3-6.08A2.26,2.26,0,0,1,47.31,53V17.54a2.26,2.26,0,0,1,2.25-2.26h2.92a1.21,1.21,0,0,0,.77-.28l.07-.07a1.17,1.17,0,0,0,.35-.84V6.48a1.19,1.19,0,0,0-.34-.84h0a1.15,1.15,0,0,0-.84-.34H23.25a1.19,1.19,0,0,0-.84.34h0a1.15,1.15,0,0,0-.34.84v7.6a1.17,1.17,0,0,0,.35.84h0a1.15,1.15,0,0,0,.84.34h2.26a2.26,2.26,0,0,1,2.26,2.26V52.72h0a2.25,2.25,0,0,1-1.49,2.12A29.41,29.41,0,0,0,12.18,66.06,30.29,30.29,0,0,0,6.86,80.15c6.37-1.43,17.28-3,23-.24ZM70.69,68.85A37.32,37.32,0,1,1,23,51.11V21.34h0a6,6,0,0,1-4.29-1.79h0a6,6,0,0,1-1.79-4.29V6.08a6.06,6.06,0,0,1,1.79-4.29h0A6.08,6.08,0,0,1,23,0H53a6.12,6.12,0,0,1,4.29,1.78h0a6.08,6.08,0,0,1,1.77,4.28v9.19a6.1,6.1,0,0,1-1.78,4.29l-.17.15A6.08,6.08,0,0,1,53,21.34h-.69v30a37.9,37.9,0,0,1,6.66,3.78L71,44.82l-.25-.31h0A3.32,3.32,0,0,1,70,42.06a3.48,3.48,0,0,1,1.14-2.26l5-4.47a3.31,3.31,0,0,1,2.46-.75,3.44,3.44,0,0,1,2.2,1.11L93.08,50.44a3.36,3.36,0,0,1,.77,2.46,3.53,3.53,0,0,1-1.14,2.26l-4.9,4.4-.24.19a3.36,3.36,0,0,1-2.3.64,3.29,3.29,0,0,1-2.17-1.08c-.27-.3-.51-.65-.75-1L70.69,68.85Z"/></svg>