<svg id="Layer_1" data-name="Layer 1" xmlns="http://www.w3.org/2000/svg" viewBox="0 0 122.88 27.56"><defs><style>.cls-1{fill-rule:evenodd;}</style></defs><title>both-eyes</title><path class="cls-1" d="M39,20.26l-.63.74c-2.07,2.39-4.17,4.83-7.34,5.91-4.22,1.44-9,.29-16.92-1.6l-3.14-.74-.48-.1c-1.37-.25-3.67-.68-3.34-2.36.21-1.11,1.51-1.75,2.53-2.25l.61-.32c1.07-.62,2.1-1.27,3.11-1.91,2.8-1.77,5.46-3.46,8.52-4.23a16.76,16.76,0,0,1,4.55-.6c3.84.08,6.32,1.7,9.38,3.82a37.19,37.19,0,0,0,3.53,2.25,8.58,8.58,0,0,0,3.28.82,1.05,1.05,0,0,1,.5.12.69.69,0,0,1,.25,1,.71.71,0,0,1-.85.31v0h0A10.33,10.33,0,0,1,39,20.26Zm70.75,0-.64.74c-2.06,2.39-4.16,4.83-7.33,5.91-4.22,1.44-9,.29-16.93-1.6l-3.13-.74-.49-.1c-1.36-.25-3.66-.68-3.34-2.36.22-1.11,1.52-1.75,2.53-2.25l.62-.32c1.07-.62,2.1-1.27,3.1-1.91,2.8-1.77,5.47-3.46,8.53-4.23a16.71,16.71,0,0,1,4.55-.6c3.84.08,6.32,1.7,9.38,3.82a37.19,37.19,0,0,0,3.53,2.25,8.54,8.54,0,0,0,3.28.82,1.05,1.05,0,0,1,.5.12.69.69,0,0,1,.25,1,.72.72,0,0,1-.85.31v0h0a10.28,10.28,0,0,1-3.56-.84ZM98,14.65a1.94,1.94,0,1,1-1.94,1.94A1.94,1.94,0,0,1,98,14.65ZM70.75,19.18c32.79-16.36,25.37-19.61,52.13-1L113.46,8c-11.67-10.4-14.95-9.51-25.7-3.66-4.59,2.5-13.11,5.19-15,9.94l-2,4.93Zm19.59-3.49c-1,9.41,13,12.3,15.12,1.89l.29.19c.89.62,1.78,1.24,2.69,1.79l-.44.52c-1.94,2.25-3.91,4.54-6.73,5.5-3.84,1.31-8.51.19-16.14-1.63L82,23.2l-.55-.11c-.84-.16-2.27-.43-2.21-.72s1-.89,1.77-1.25l.7-.36c1.08-.63,2.12-1.29,3.14-1.94a44.47,44.47,0,0,1,5.5-3.13ZM113.14,21c-.12-.07.11.07.12.08v0l-.12-.06ZM27.25,14.65a1.94,1.94,0,1,1-1.94,1.94,1.94,1.94,0,0,1,1.94-1.94ZM0,19.18c32.79-16.36,25.37-19.61,52.13-1L42.71,8C31.05-2.43,27.76-1.54,17,4.31,12.42,6.81,3.9,9.5,2,14.25L0,19.18Zm19.6-3.49c-1,9.41,13,12.3,15.12,1.89l.28.19c.89.62,1.78,1.24,2.7,1.79l-.45.52c-1.94,2.25-3.91,4.54-6.72,5.5C26.69,26.89,22,25.77,14.38,24l-3.14-.75-.54-.11c-.85-.16-2.28-.43-2.22-.72s1-.89,1.77-1.25l.7-.36c1.08-.63,2.12-1.29,3.15-1.94a44.47,44.47,0,0,1,5.5-3.13ZM42.4,21c-.13-.07.1.07.11.08v0L42.4,21Z"/></svg>