<svg id="Layer_1" data-name="Layer 1" xmlns="http://www.w3.org/2000/svg" viewBox="0 0 122.88 107.85"><defs><style>.cls-1{fill-rule:evenodd;}</style></defs><title>brush-teeth</title><path class="cls-1" d="M5.72,91.75C23.5,73.82,29,68.45,46.81,50.52,51.27,43,53.38,38.24,57.5,30.41l2.12-1.25,6.94,7.24a1.55,1.55,0,0,0,2.21,0L70.09,35a1.55,1.55,0,0,0,0-2.15l-6.92-7.22.64-.59L71,32.57a1.53,1.53,0,0,0,2.2,0l1.32-1.36a1.55,1.55,0,0,0,0-2.15l-7.11-7.41L68,21l7.3,7.61a1.55,1.55,0,0,0,2.21,0l1.31-1.37a1.54,1.54,0,0,0,0-2.15L71.5,17.5l.62-.58,7.3,7.61a1.53,1.53,0,0,0,2.2,0l1.32-1.36a1.55,1.55,0,0,0,0-2.15l-7.27-7.59.63-.58,7.35,7.65a1.53,1.53,0,0,0,2.2,0l1.32-1.36a1.55,1.55,0,0,0,0-2.15L79.78,9.29l.66-.55,7.44,7.75a1.53,1.53,0,0,0,2.2,0l.52-.53a1.55,1.55,0,0,0,0-2.15L83.12,6c1.25-3.59,1.74-2.88-.9-5.44C81.38-.25,80.8-.15,80,.64L53.76,26h0C48.92,33.15,46.34,37.44,41.93,45l-1.1,1.1L.43,86.59a1.53,1.53,0,0,0,0,2.17l3.13,3a1.5,1.5,0,0,0,2.12,0ZM82.24,53.82a1.73,1.73,0,0,1-3.44-.31,7.86,7.86,0,0,1,1.81-4.32,7.57,7.57,0,0,1,3.9-2.51A1.73,1.73,0,1,1,85.37,50a4.12,4.12,0,0,0-2.11,1.37,4.56,4.56,0,0,0-1,2.42Zm-.61-15c3.71-.52,6.84.39,10.29,1.56,5.33,1.82,4.61,2,10,.11,3.16-1.13,5.8-2.08,9.26-2,6.79.16,11.18,4.47,11.66,11.23A40.2,40.2,0,0,1,121,63.42a43.87,43.87,0,0,1-1.73,4.67q-1,2.19-2.16,4.34c.41,2.63.67,5.13.82,7.49s.17,4.73.09,6.9-.25,4.31-.5,6.23-.56,3.71-.9,5.3a29.52,29.52,0,0,1-1.38,4.68,11.59,11.59,0,0,1-1.81,3.2l0,0a5,5,0,0,1-1.25,1,3.51,3.51,0,0,1-1.5.47h0a3.22,3.22,0,0,1-1.63-.34,4.36,4.36,0,0,1-1.39-1.13,10.3,10.3,0,0,1-1.62-3.14,32.15,32.15,0,0,1-1.2-4.82c-.18-1-.29-2.21-.35-2.78l-.06-.56c-.37-3.81-.75-7.58-1.84-10.37-1.65-4.2-5.47-5.73-9.1-2.85a6.3,6.3,0,0,0-1.88,2.55,16.86,16.86,0,0,0-1,4.22c-.23,1.66-.36,3.56-.5,5.64v.12c0,.29-.06.87-.13,1.64s-.16,1.64-.28,2.37a31.06,31.06,0,0,1-1.16,4.87,9.76,9.76,0,0,1-1.66,3.19v0a4.31,4.31,0,0,1-1.37,1.09,3.28,3.28,0,0,1-1.64.34h0a3.35,3.35,0,0,1-1.48-.45A4.71,4.71,0,0,1,81,106.33a11,11,0,0,1-1.83-3.24,27,27,0,0,1-1.32-4.68q-.44-2.25-.77-5.27-.3-2.83-.47-6.35-.15-3.21-.15-7c0-2.34,0-4.83.14-7.46-.57-1.29-1.1-2.59-1.6-3.9s-1-2.72-1.42-4.09c-1.3-4.2-2.86-11.27-2.19-15.65a11.86,11.86,0,0,1,10.23-9.89Zm.54,3.9a7.89,7.89,0,0,0-6.85,6.56v0c-.72,4.81,1.71,13.3,3.45,17.86.52,1.34,1.07,2.67,1.65,4a1.87,1.87,0,0,1,.13.42,2.08,2.08,0,0,1,0,.43q-.15,4.06-.15,7.62c0,2.49.06,4.81.16,7h0c.1,2.2.25,4.22.45,6s.44,3.56.73,5a24,24,0,0,0,1,3.84A7.64,7.64,0,0,0,84,103.69a7.57,7.57,0,0,0,.9-2,29.24,29.24,0,0,0,.91-4c.2-1.23.33-3,.37-3.65v-.12c.15-2.21.29-4.23.55-6.07A20,20,0,0,1,88,82.81l0-.06a9.87,9.87,0,0,1,4.7-5.15,9.16,9.16,0,0,1,9.45.06,9.71,9.71,0,0,1,3.79,4.56c1.52,3.42,2,7.91,2.41,12.43l0,.53c0,.48.14,1.49.32,2.5a30,30,0,0,0,1,4,7.29,7.29,0,0,0,.86,1.93,8.14,8.14,0,0,0,1.16-2.22,25.74,25.74,0,0,0,1.11-3.86c.33-1.53.63-3.2.85-5s.4-3.75.47-5.84,0-4.33-.1-6.72a74.84,74.84,0,0,0-.87-7.55,2.11,2.11,0,0,1,0-.71,2,2,0,0,1,.25-.66,36.3,36.3,0,0,0,2.22-4.35,37.7,37.7,0,0,0,3.3-16.6,11.92,11.92,0,0,0-.47-2.67v0c-1-3.32-4-4.89-7.34-5-2.86-.06-5.16.81-7.79,1.75-1.56.55-2.7,1-3.61,1.22a9.15,9.15,0,0,1-2.62.43,15.83,15.83,0,0,1-4.74-1.16c-3.26-1.13-6.64-2.44-10.15-2Z"/></svg>