<svg id="Layer_1" data-name="Layer 1" xmlns="http://www.w3.org/2000/svg" viewBox="0 0 122.88 112.09"><title>cholesterol-ldl</title><path d="M0,112.09v-8.32H9c5.05,0,8.75-2.52,12.08-5.66,4.3-4.06,8.51-9.1,12.66-9.82,9-1.56,17.77,5.61,26.66,5.51s17.91-6.68,27.12-5.72c5.07.53,10.2,5.52,15.38,10,3.62,3.16,7.59,5.65,13,5.65h6.93v8.32ZM78.39,75.75a5.17,5.17,0,1,1-5.17,5.17,5.17,5.17,0,0,1,5.17-5.17ZM7.06,84.25a5.22,5.22,0,1,1-5.21,5.21,5.22,5.22,0,0,1,5.21-5.21Zm109.74.53a6.08,6.08,0,1,1-6.08,6.08,6.08,6.08,0,0,1,6.08-6.08ZM96.34,79.89a4.48,4.48,0,1,1-4.48,4.48,4.48,4.48,0,0,1,4.48-4.48ZM118.4,64.32a4.48,4.48,0,1,1-4.48,4.48,4.49,4.49,0,0,1,4.48-4.48Zm-52.05-.13a5.69,5.69,0,1,1-5.69,5.68,5.68,5.68,0,0,1,5.69-5.68ZM58,78.22a5.12,5.12,0,1,1-5.12,5.12A5.12,5.12,0,0,1,58,78.22ZM24.17,75.43a6.25,6.25,0,1,1-6.24,6.25,6.25,6.25,0,0,1,6.24-6.25Zm.72-13.53a4.7,4.7,0,1,1-4.7,4.7,4.69,4.69,0,0,1,4.7-4.7ZM7.58,61.77A6.08,6.08,0,1,1,1.5,67.84a6.08,6.08,0,0,1,6.08-6.07Zm91.79-.56a7.26,7.26,0,1,1-7.26,7.26,7.26,7.26,0,0,1,7.26-7.26Zm-55.87,1a7.95,7.95,0,1,1-8,7.95,8,8,0,0,1,8-7.95ZM42,32.67H21.06V0H31.51V24.31H42v8.36Zm4.05,0V0H60.66c5.88,0,9.93,1.25,12.12,3.76s3.3,6.7,3.3,12.58S75,26.4,72.78,28.91s-6.24,3.76-12.12,3.76ZM60.81,8.36H56.47v16h4.34a7.2,7.2,0,0,0,3.11-.5c.65-.33,1-1.09,1-2.27V11.13c0-1.18-.32-1.94-1-2.27a7.2,7.2,0,0,0-3.11-.5Zm41,24.31H80.91V0H91.37V24.31h10.45v8.36ZM0,44.4v8.32H9c1.64,0,8.63,5.18,17.08,5.75,3.87.26,8.06-1.87,12.16-2.57C54,53.21,62.19,62,75.94,62.53c4.93.19,10.6-2.64,17.59-5.14,8.1-2.88,15.69-4.67,22.42-4.67h6.93V44.4Z"/></svg>