<svg id="Layer_1" data-name="Layer 1" xmlns="http://www.w3.org/2000/svg" viewBox="0 0 122.88 67.69"><title>cholesterol</title><path d="M0,67.69V59.37H9c5.05,0,8.75-2.52,12.08-5.66,4.3-4.06,8.51-9.09,12.66-9.81,9-1.56,17.77,5.6,26.66,5.51s17.91-6.69,27.12-5.73c5.07.53,10.2,5.53,15.38,10,3.62,3.15,7.59,5.64,13,5.64h6.93v8.32ZM78.39,31.35a5.17,5.17,0,1,1-5.17,5.17,5.17,5.17,0,0,1,5.17-5.17ZM7.06,39.85a5.22,5.22,0,1,1-5.21,5.22,5.22,5.22,0,0,1,5.21-5.22Zm109.74.54a6.08,6.08,0,1,1-6.08,6.08,6.08,6.08,0,0,1,6.08-6.08Zm-20.46-4.9A4.48,4.48,0,1,1,91.86,40a4.49,4.49,0,0,1,4.48-4.48ZM118.4,19.92a4.48,4.48,0,1,1-4.48,4.48,4.49,4.49,0,0,1,4.48-4.48Zm-52.05-.13a5.69,5.69,0,1,1-5.69,5.69,5.69,5.69,0,0,1,5.69-5.69ZM58,33.82a5.12,5.12,0,1,1-5.12,5.12A5.12,5.12,0,0,1,58,33.82ZM24.17,31a6.25,6.25,0,1,1-6.24,6.25A6.25,6.25,0,0,1,24.17,31Zm.72-13.53a4.7,4.7,0,1,1-4.7,4.7,4.7,4.7,0,0,1,4.7-4.7ZM7.58,17.37A6.08,6.08,0,1,1,1.5,23.45a6.08,6.08,0,0,1,6.08-6.08Zm91.79-.56a7.27,7.27,0,1,1-7.26,7.27,7.26,7.26,0,0,1,7.26-7.27ZM43.5,17.86a8,8,0,1,1-8,8,8,8,0,0,1,8-7.95ZM0,0V8.32H9c1.64,0,8.63,5.19,17.09,5.76,3.86.26,8-1.88,12.15-2.57C54,8.82,62.19,17.62,75.94,18.13c4.93.19,10.6-2.64,17.59-5.13,8.1-2.89,15.69-4.68,22.42-4.68h6.93V0Z"/></svg>