<svg id="Layer_1" data-name="Layer 1" xmlns="http://www.w3.org/2000/svg" viewBox="0 0 122.88 112.09"><title>cholesterol-hdl</title><path d="M0,52.72V44.4H122.88v8.32ZM104.74,54a5.29,5.29,0,1,1-5.29,5.29A5.29,5.29,0,0,1,104.74,54Zm-65,34.78A6.68,6.68,0,1,1,33,95.45a6.68,6.68,0,0,1,6.67-6.68ZM17.17,91.66a4.48,4.48,0,1,1-4.48,4.48,4.48,4.48,0,0,1,4.48-4.48Zm17.09-59V21.12H26.41V32.67H16V0H26.41V11.55h7.85V0H44.71V32.67Zm16.85,0V0H65.75q8.84,0,12.13,3.76t3.29,12.58q0,8.81-3.29,12.57T65.75,32.67ZM65.91,8.36H61.57v16h4.34a7.23,7.23,0,0,0,3.11-.5c.64-.33,1-1.09,1-2.27V11.14c0-1.19-.33-2-1-2.28a7.23,7.23,0,0,0-3.11-.5Zm41,24.31H86V0H96.46V24.31h10.46v8.36ZM93.48,74.75A4.48,4.48,0,1,1,89,79.23a4.47,4.47,0,0,1,4.48-4.48ZM0,112.09v-8.32H122.88v8.32ZM87.65,59.27a4.48,4.48,0,1,1-4.48,4.48,4.47,4.47,0,0,1,4.48-4.48Zm26.79,8.42a6.25,6.25,0,1,1-6.25,6.25,6.24,6.24,0,0,1,6.25-6.25Zm-45-12a6.25,6.25,0,1,1-6.25,6.24,6.24,6.24,0,0,1,6.25-6.24ZM53.59,82.2a5.17,5.17,0,1,1-5.16,5.16,5.17,5.17,0,0,1,5.16-5.16ZM25.92,75.1a6.25,6.25,0,1,1-6.24,6.25,6.25,6.25,0,0,1,6.24-6.25Zm-1.1-17.73a5.17,5.17,0,1,1-5.17,5.17,5.16,5.16,0,0,1,5.17-5.17ZM8,60.6a6.68,6.68,0,1,1-6.68,6.68A6.68,6.68,0,0,1,8,60.6Zm98.67,22.53a8.81,8.81,0,1,1-8.81,8.81,8.81,8.81,0,0,1,8.81-8.81ZM74,76.35a8.81,8.81,0,1,1-8.81,8.81A8.81,8.81,0,0,1,74,76.35Zm-27.2-20A9.66,9.66,0,1,1,37.09,66a9.66,9.66,0,0,1,9.66-9.66Z"/></svg>