<svg id="Layer_1" data-name="Layer 1" xmlns="http://www.w3.org/2000/svg" viewBox="0 0 82.29 122.88"><title>cigarette-pack</title><path d="M64,9.26H77.4a4.87,4.87,0,0,1,3.46,1.43,4.93,4.93,0,0,1,1.43,3.47V118a5,5,0,0,1-4.93,4.93H4.93A5,5,0,0,1,0,118V14.16A4.93,4.93,0,0,1,4.93,9.24H50.5V5.78A5.8,5.8,0,0,1,56.28,0h1.91A5.8,5.8,0,0,1,64,5.78V9.26ZM41.14,75.62A14.27,14.27,0,1,1,26.87,89.89,14.27,14.27,0,0,1,41.14,75.62Zm0-6.71a21,21,0,1,1-14.83,6.14,20.94,20.94,0,0,1,14.83-6.14ZM54,77a18.19,18.19,0,1,0,5.33,12.87A18.15,18.15,0,0,0,54,77ZM64,35.67a10.45,10.45,0,0,1,1-.44,8.92,8.92,0,0,1,3.37-.66,9.2,9.2,0,0,1,2.28.3,7.68,7.68,0,0,1,1,.31l.79-3.25V19a3.34,3.34,0,0,0-.93-2.3,3,3,0,0,0-2.15-.94h-1.9a3.14,3.14,0,0,0-3.12,3.12,1.36,1.36,0,0,1-.26.79v16Zm6.93,2.12a6.84,6.84,0,0,0-1-.35,6.4,6.4,0,0,0-1.61-.2,6.32,6.32,0,0,0-2.39.46A6.91,6.91,0,0,0,64,38.88v6.88h5l2-8ZM64,14.17a5.74,5.74,0,0,1,3.38-1.1h1.9a5.64,5.64,0,0,1,4.06,1.76A6,6,0,0,1,75,19v5.66h4.72V14.16a2.31,2.31,0,0,0-2.32-2.34H64v2.35ZM75,31.78v.08a1.34,1.34,0,0,1-.18.67l-3.6,14.72A1.27,1.27,0,0,1,70,48.33H19.76a1.44,1.44,0,0,1-.37.05,1.42,1.42,0,0,1-.36-.05H13.76a1.3,1.3,0,0,1-1.24-.94L6.91,27.2H2.57V57.11H79.72V27.2h-3.6L75,31.78ZM50.5,38.69a6.75,6.75,0,0,0-1.7-1,6.44,6.44,0,0,0-4.78,0,6.87,6.87,0,0,0-1.68,1v7.09H50.5V38.69Zm-8.16-3.15c.23-.11.46-.22.7-.31a8.93,8.93,0,0,1,6.74,0,7.55,7.55,0,0,1,.72.32V19.1a1,1,0,0,1,0-.24,3.14,3.14,0,0,0-3.12-3.12h-1.9a3.14,3.14,0,0,0-3.12,3.12V35.54ZM41,15.17a4.48,4.48,0,0,1,.36-.4,5.82,5.82,0,0,1,4.09-1.7h1.9A5.74,5.74,0,0,1,50.5,14V11.8H4.93a2.36,2.36,0,0,0-1.67.7,2.33,2.33,0,0,0-.69,1.66V24.64H7.26V18.86A5.79,5.79,0,0,1,13,13.07h1.9A5.8,5.8,0,0,1,19,14.77a4.48,4.48,0,0,1,.36.4c.12-.14.24-.27.37-.4a5.82,5.82,0,0,1,4.09-1.7h1.9a5.82,5.82,0,0,1,4.09,1.7l.36.4.36-.4a5.82,5.82,0,0,1,4.09-1.7h1.91a5.79,5.79,0,0,1,4.08,1.7c.13.13.25.26.37.4ZM31.53,35.54c.23-.11.47-.22.71-.31a8.91,8.91,0,0,1,6.73,0c.24.09.47.2.7.31V18.86a3.12,3.12,0,0,0-3.11-3.12H34.65a3.14,3.14,0,0,0-3.12,3.12V35.54Zm8.14,3.13a6.87,6.87,0,0,0-1.68-1,6.41,6.41,0,0,0-4.77,0,6.93,6.93,0,0,0-1.69,1v7.09h8.14V38.67Zm-10.8,0a7.06,7.06,0,0,0-1.68-1,6.44,6.44,0,0,0-4.78,0,6.87,6.87,0,0,0-1.68,1v7.09h8.14V38.67Zm-8.14-3.13c.23-.11.46-.22.7-.31a8.91,8.91,0,0,1,6.73,0c.24.09.48.2.71.31V18.86a3.14,3.14,0,0,0-3.12-3.12h-1.9a3.11,3.11,0,0,0-2.2.91h0a3.07,3.07,0,0,0-.92,2.2V35.54Zm-9-.67.56-.13a8.92,8.92,0,0,1,5.1.49c.24.09.47.2.7.31V18.86a3.14,3.14,0,0,0-3.12-3.12H13a3.14,3.14,0,0,0-3.12,3.12V27.8a1.21,1.21,0,0,1-.07.43l1.85,6.64Zm6.36,3.81a6.48,6.48,0,0,0-1.68-1A6.32,6.32,0,0,0,14,37.24a6.08,6.08,0,0,0-1.22.12h0l-.35.08,2.32,8.32h3.33V38.68ZM53.17,22.46l.7-.31a9,9,0,0,1,6.73,0c.24.1.48.2.7.31V5.78a3.11,3.11,0,0,0-3.11-3.11H56.28a3.11,3.11,0,0,0-3.11,3.11V22.46ZM61.3,25.6a6.51,6.51,0,0,0-6.45-1,6.6,6.6,0,0,0-1.68,1V45.76H61.3V25.6ZM2.57,59.68V118a2.36,2.36,0,0,0,2.36,2.36H77.36A2.36,2.36,0,0,0,79.72,118V59.68Z"/></svg>