<?xml version="1.0" encoding="utf-8"?><svg version="1.1" id="Layer_1" xmlns="http://www.w3.org/2000/svg" xmlns:xlink="http://www.w3.org/1999/xlink" x="0px" y="0px" viewBox="0 0 122.88 119.77" style="enable-background:new 0 0 122.88 119.77" xml:space="preserve"><g><path d="M57.39,110c0.02,0.55,0.02,1.09,0,1.65c-0.02,0.64-0.06,1.29-0.13,1.92c-0.08,0.83-0.19,1.65-0.34,2.46 c-0.15,0.82-0.33,1.63-0.55,2.42c-0.13,0.48-0.44,0.87-0.84,1.09c-0.39,0.22-0.87,0.31-1.35,0.18l-0.05-0.01 c-0.47-0.14-0.85-0.44-1.07-0.84c-0.22-0.39-0.31-0.87-0.19-1.35l0.01-0.04c0.19-0.71,0.35-1.42,0.48-2.13 c0.13-0.71,0.23-1.42,0.3-2.13c0.04-0.43,0.07-0.87,0.09-1.31c0.01-0.27,0.02-0.56,0.02-0.83c-0.96,0.26-1.92,0.51-2.87,0.72 c-1.15,0.26-2.29,0.5-3.39,0.69c-2.16,0.39-4.26,0.62-6.21,0.68c-1.88,0.06-3.64-0.06-5.21-0.35c-1.24-0.23-2.36-0.58-3.35-1.05 c-0.96-0.46-1.81-1.04-2.51-1.75c-0.77-0.78-1.35-1.7-1.71-2.75c-0.34-1-0.49-2.13-0.41-3.4c0.06-0.92,0.24-1.9,0.56-2.96 c0.29-0.98,0.7-2.05,1.24-3.18c-0.12-0.58-0.23-1.18-0.33-1.77c-0.11-0.63-0.21-1.29-0.29-1.96c-0.05-0.39-0.1-0.79-0.14-1.18 l8.83-3.28l-9.23-2.38l-0.11-1.93c-0.05-1.33-0.06-2.68-0.08-4.04l-0.01-0.64c-1.41-0.09-2.86-0.14-4.26-0.25 c-0.54-0.02-1.04-0.11-1.52-0.25c-0.49-0.24-0.86-0.31-1.37-0.64l-0.02-0.01c-0.39-0.25-0.74-0.57-1.04-0.91 c-0.31-0.35-0.58-0.74-0.79-1.17c-0.21-0.42-0.36-0.87-0.47-1.35c-0.1-0.47-0.15-0.96-0.14-1.47c0.02-0.75,0.16-1.55,0.43-2.37 c0.26-0.77,0.63-1.56,1.15-2.36l4.48-9.17c1.11-2.26,1.66-3.55,1.91-4.55c0.25-0.98,0.22-1.72,0.18-2.9v-0.02 c-0.04-1.05-0.1-2.42-0.03-4.44c0.04-1.22,0.13-2.41,0.27-3.55c0.15-1.15,0.34-2.28,0.6-3.37c0.21-0.84,0.44-1.66,0.72-2.44 c0.23-0.66,0.5-1.32,0.8-1.95L21.3,33.8c-0.46-0.19-0.79-0.57-0.96-0.99c-0.17-0.43-0.18-0.93,0.03-1.37 c0.03-0.07,0.06-0.13,0.09-0.18l0.02-0.03c0.03-0.05,0.06-0.1,0.09-0.14C29.7,18.65,39.38,10.43,49.02,5.59 c10.94-5.5,21.79-6.66,31.7-4.7c5.33,1.05,10.37,3,15,5.67c4.82,2.78,9.17,6.32,12.92,10.41c3.69,4.05,6.79,8.63,9.15,13.54 c2.31,4.82,3.91,9.97,4.64,15.22c1.28,9.22-0.07,18.79-4.81,27.63c-4.23,7.9-11.17,15.21-21.35,21.17 c-0.16,0.09-0.31,0.16-0.47,0.19c-0.04,0.01-0.08,0.02-0.12,0.03c0.01,1.27,0.05,2.51,0.13,3.75c0.08,1.34,0.21,2.66,0.36,3.97 c0.3,2.48,0.74,4.86,1.31,7.17c0.57,2.32,1.27,4.56,2.09,6.73c0.17,0.47,0.15,0.96-0.05,1.38s-0.54,0.77-1,0.95l0,0 c-0.47,0.18-0.96,0.15-1.37-0.05c-0.42-0.18-0.77-0.54-0.95-1l0,0c-0.87-2.31-1.62-4.7-2.22-7.15c-0.6-2.46-1.07-4.99-1.39-7.59 c-0.31-2.59-0.49-5.27-0.51-8.04c-0.02-2.77,0.13-5.61,0.43-8.56c0.05-0.5,0.3-0.93,0.65-1.21c0.36-0.29,0.83-0.45,1.32-0.4 c0.49,0.05,0.93,0.3,1.21,0.65c0.29,0.36,0.45,0.83,0.4,1.32c-0.08,0.78-0.15,1.56-0.21,2.34c-0.04,0.55-0.08,1.08-0.1,1.61 c8.91-5.5,15.01-12.11,18.75-19.2c4.28-8.09,5.49-16.8,4.33-25.21c-0.68-4.9-2.16-9.69-4.33-14.19c-2.19-4.58-5.1-8.86-8.55-12.64 c-3.49-3.81-7.54-7.11-12.02-9.7c-4.3-2.48-8.98-4.29-13.93-5.27c-9.04-1.75-18.95-0.71-29,4.23c-8.81,4.34-17.72,11.7-26.2,22.8 l7.77,3.39c0.05,0.02,0.1,0.04,0.16,0.07c0.05,0.02,0.1,0.05,0.16,0.08l0.03,0.02c2.45,0.89,5.33,0.83,8.41,0.3 c3.13-0.54,6.45-1.55,9.71-2.53c2.36-0.72,4.68-1.42,6.89-1.95c2.22-0.53,4.37-0.87,6.35-0.86c0.12-0.01,0.23-0.01,0.35,0.01 c0.12,0.01,0.22,0.04,0.34,0.08c0.48,0.16,0.84,0.49,1.04,0.9c0.2,0.41,0.26,0.91,0.11,1.37c-1.07,3.24-1.54,6.05-1.52,8.52 c0.02,2.45,0.54,4.54,1.43,6.38c0.92,1.85,2.23,3.47,3.87,4.92c1.65,1.46,3.62,2.75,5.79,3.95h0.01c0.43,0.23,0.73,0.62,0.86,1.07 c0.13,0.44,0.09,0.94-0.15,1.36v0.01c-0.23,0.43-0.62,0.73-1.07,0.86c-0.44,0.13-0.94,0.09-1.36-0.15 c-2.47-1.35-4.71-2.83-6.6-4.53c-1.91-1.71-3.47-3.65-4.57-5.9c-1.01-2.06-1.64-4.36-1.78-6.95c-0.14-2.44,0.15-5.14,0.93-8.16 c-1.39,0.19-2.88,0.51-4.42,0.91c-1.76,0.46-3.6,1.01-5.45,1.58c-3.34,1.01-6.75,2.06-10.06,2.63c-3.23,0.56-6.35,0.67-9.22-0.1 c-0.27,0.56-0.52,1.14-0.73,1.73c-0.25,0.69-0.47,1.41-0.64,2.15c-0.23,0.96-0.41,1.96-0.54,2.99c-0.13,1.04-0.2,2.11-0.24,3.2 c-0.03,0.96-0.03,1.75-0.02,2.44c0.01,0.67,0.03,1.26,0.06,1.76c0.06,1.53,0.1,2.5-0.21,3.76c-0.3,1.25-0.94,2.77-2.24,5.41 l-4.5,9.21c-0.02,0.05-0.04,0.1-0.07,0.14c-0.02,0.04-0.05,0.08-0.08,0.13c-0.35,0.54-0.6,1.04-0.78,1.53 c-0.18,0.51-0.27,0.97-0.27,1.38c0,0.22,0.01,0.44,0.05,0.63c0.04,0.19,0.1,0.37,0.18,0.53l0.01,0.02 c0.07,0.14,0.15,0.25,0.24,0.36c0.1,0.11,0.21,0.2,0.33,0.28c0.15,0.1,0.3,0.17,0.48,0.22c0.18,0.05,0.37,0.09,0.57,0.1 c1.69,0,3.63,0.2,5.33,0.31c0.07-0.02,0.15-0.04,0.22-0.06c0.1-0.02,0.21-0.03,0.31-0.03h0.12c0.02,0,0.04,0,0.06,0l4.8,0.41 c0.5,0.04,0.93,0.28,1.23,0.63c0.3,0.35,0.47,0.82,0.42,1.32c-0.04,0.5-0.28,0.93-0.63,1.23c-0.35,0.3-0.82,0.47-1.32,0.42 c-0.93-0.08-1.88-0.12-2.81-0.17l0.01,0.39c0.02,2,0.05,2.07,0.18,4.07c3.38-0.64,6.45,1.79,9.39,3.67 c0.42,0.27,0.69,0.68,0.79,1.13c0.1,0.45,0.02,0.94-0.24,1.35c-0.27,0.42-0.68,0.69-1.13,0.79c-1.24,0.27-3.9,1.43-8.55,2.51 c0.16,2.27,0.49,0.63,0.99,2.85v0.02c0.05,0.22,0.05,0.46,0.01,0.67c-0.04,0.22-0.12,0.44-0.23,0.62 c-0.51,1.02-0.89,1.96-1.16,2.82c-0.27,0.88-0.43,1.68-0.48,2.4c-0.05,0.74,0.03,1.38,0.21,1.94c0.19,0.57,0.48,1.05,0.88,1.45 c0.42,0.43,0.96,0.79,1.61,1.08c0.68,0.31,1.47,0.55,2.36,0.71c1.35,0.25,2.88,0.34,4.53,0.29c1.73-0.06,3.62-0.27,5.58-0.62 c1.92-0.34,3.97-0.8,6.02-1.36c1.86-0.51,3.73-1.11,5.53-1.81c1.6-0.62,3.14-1.32,4.55-2.09l0,0c1.31-0.71,2.51-1.47,3.54-2.31 c1.05-0.85,1.83-1.95,2.44-3.14c0.61-1.21,1.07-2.51,1.5-3.71l0.42-1.17l0.25-0.67c0.52-1.42,1.23-3.36,2.09-5.17 c0.88-1.84,1.93-3.56,3.12-4.47c0.39-0.3,0.88-0.42,1.33-0.36c0.46,0.06,0.9,0.29,1.2,0.68c0.3,0.39,0.42,0.88,0.36,1.33 c-0.06,0.46-0.29,0.9-0.68,1.2c-0.75,0.57-1.52,1.94-2.22,3.47c-0.71,1.56-1.35,3.29-1.8,4.56c-0.17,0.42-0.31,0.87-0.47,1.3 l-0.17,0.49c-0.5,1.4-1.03,2.93-1.8,4.41c-0.79,1.49-1.81,2.91-3.28,4.09c-1.19,0.95-2.54,1.81-4,2.61 c-1.57,0.86-3.27,1.63-5.04,2.31c-0.42,0.17-0.85,0.32-1.29,0.48C58.1,109.75,57.75,109.88,57.39,110L57.39,110L57.39,110z M24.21,94.83c0.14-0.06,0.29-0.1,0.44-0.11h0.01c0.15-0.01,0.31,0.02,0.45,0.07c0.15,0.05,0.28,0.13,0.4,0.24 c0.11,0.1,0.21,0.23,0.28,0.38c0.07,0.15,0.11,0.3,0.11,0.46l0,0.01c0.01,0.15-0.02,0.31-0.07,0.45c-0.05,0.15-0.13,0.28-0.24,0.4 l-0.01,0.01c-0.1,0.11-0.23,0.2-0.37,0.27l-8.93,4.24c-0.14,0.06-0.29,0.1-0.44,0.11h-0.01c-0.15,0.01-0.31-0.02-0.45-0.07 c-0.15-0.05-0.29-0.13-0.4-0.24c-0.11-0.1-0.21-0.23-0.28-0.38l-0.01-0.02c-0.06-0.14-0.1-0.29-0.1-0.43l0-0.01 c-0.01-0.15,0.02-0.31,0.07-0.45c0.05-0.15,0.13-0.29,0.24-0.41c0.1-0.11,0.23-0.21,0.38-0.28L24.21,94.83L24.21,94.83z M15.74,83.19l0.06,0.06c0.12,0.12,0.21,0.25,0.28,0.39l0.01,0.01c0.07,0.15,0.11,0.31,0.12,0.47c0.01,0.17-0.02,0.34-0.07,0.5 c-0.05,0.16-0.14,0.31-0.25,0.44l-0.03,0.03c-0.12,0.13-0.26,0.23-0.41,0.29l-0.02,0.01c-0.15,0.07-0.31,0.11-0.47,0.11 c-0.17,0.01-0.35-0.02-0.51-0.07c-0.16-0.05-0.31-0.14-0.44-0.26L14,85.16c-0.34-0.3-0.68-0.57-1.03-0.8 c-0.36-0.23-0.73-0.43-1.09-0.58c-3.34-1.39-6.98,0.58-7.07,4.33c-0.01,0.36,0.01,0.74,0.07,1.13c0.06,0.37,0.15,0.76,0.28,1.17 c0.04,0.14,0.07,0.28,0.06,0.42c0,0.14-0.03,0.29-0.08,0.42c-0.05,0.13-0.11,0.26-0.2,0.37c-0.09,0.11-0.19,0.21-0.31,0.29l-0.01,0 c-0.25,0.18-0.48,0.38-0.69,0.59c-0.21,0.22-0.4,0.47-0.56,0.72l-0.01,0.01c-0.16,0.26-0.3,0.53-0.4,0.82l-0.01,0.02 c-0.68,1.82-0.27,4.01,0.83,5.58c0.22,0.32,0.47,0.61,0.75,0.88c0.27,0.26,0.57,0.5,0.89,0.71c0.31,0.2,0.65,0.37,1,0.51l0.02,0.01 c0.33,0.13,0.69,0.23,1.06,0.29l0.03,0.01c0.12,0.02,0.23,0.06,0.33,0.12c0.11,0.06,0.22,0.13,0.31,0.22 c0.09,0.09,0.17,0.19,0.23,0.3l0.01,0.02c0.06,0.1,0.1,0.21,0.13,0.33c0.1,0.4,0.22,0.76,0.36,1.1c0.14,0.34,0.3,0.65,0.48,0.93 c2.31,3.63,7.19,2.13,8.94-1.24c0.18-0.35,0.33-0.71,0.45-1.1c0.05-0.17,0.13-0.32,0.24-0.45c0.11-0.13,0.25-0.25,0.4-0.33 c0.15-0.08,0.32-0.13,0.49-0.15l0.01,0c0.16-0.01,0.33,0,0.5,0.05c0.17,0.05,0.32,0.13,0.45,0.24c0.13,0.11,0.25,0.25,0.33,0.4 c0.08,0.15,0.13,0.32,0.15,0.49c0.02,0.17,0,0.34-0.05,0.51l-0.01,0.01c-0.17,0.54-0.38,1.05-0.63,1.53 c-0.26,0.5-0.56,0.97-0.9,1.4c-0.34,0.44-0.73,0.85-1.15,1.21c-2.6,2.28-6.47,2.97-9.43,0.95c-0.35-0.24-0.69-0.52-1-0.84 c-0.31-0.31-0.59-0.65-0.85-1.03c-0.25-0.36-0.47-0.74-0.67-1.16l-0.01-0.02c-0.16-0.34-0.31-0.71-0.43-1.09 c-0.41-0.12-0.8-0.26-1.18-0.43c-0.45-0.2-0.87-0.45-1.27-0.72c-0.42-0.29-0.81-0.62-1.17-0.97c-0.36-0.36-0.69-0.75-0.98-1.18 c-0.17-0.24-0.32-0.49-0.47-0.74c-0.14-0.25-0.27-0.51-0.39-0.78l-0.01-0.02c-0.7-1.59-0.95-3.38-0.64-5.09 c0.08-0.43,0.19-0.86,0.34-1.27c0.15-0.41,0.33-0.81,0.54-1.18c0.2-0.35,0.43-0.68,0.7-1.01c0.21-0.25,0.44-0.5,0.69-0.73 c-0.09-0.41-0.16-0.82-0.2-1.22l0-0.01c-0.05-0.48-0.05-0.94-0.02-1.39c0.3-4.65,4.49-7.77,9.06-6.87c0.53,0.1,1.06,0.26,1.6,0.48 c0.51,0.21,1.02,0.47,1.52,0.79C14.82,82.43,15.29,82.78,15.74,83.19L15.74,83.19z M22.56,87.04c0.16-0.01,0.32,0,0.47,0.05 l0.02,0.01c0.15,0.05,0.28,0.12,0.39,0.22l0.03,0.03c0.11,0.09,0.2,0.21,0.26,0.34c0.07,0.13,0.12,0.28,0.13,0.44l0,0.03 c0.01,0.16-0.01,0.31-0.05,0.46c-0.05,0.15-0.12,0.29-0.22,0.41c-0.1,0.12-0.22,0.22-0.36,0.3l-0.02,0.01 c-0.13,0.06-0.27,0.11-0.42,0.12c-3.2,0.27-6.9,0.8-10.04,0.89c-0.15,0.01-0.29-0.01-0.43-0.05l-0.02-0.01 c-0.15-0.05-0.28-0.12-0.39-0.22l-0.02-0.02c-0.11-0.1-0.21-0.22-0.27-0.35c-0.07-0.13-0.11-0.28-0.13-0.44l0-0.02 c-0.01-0.16,0.01-0.31,0.05-0.45c0.05-0.15,0.12-0.29,0.23-0.41l0.04-0.04c0.1-0.1,0.21-0.19,0.34-0.26 c0.13-0.07,0.28-0.11,0.44-0.13L22.56,87.04L22.56,87.04z M21.14,91.38c0.15-0.04,0.31-0.06,0.47-0.04 c0.16,0.02,0.31,0.07,0.45,0.15c0.13,0.08,0.26,0.18,0.36,0.3c0.09,0.12,0.17,0.26,0.21,0.42c0.05,0.16,0.06,0.31,0.04,0.47 c-0.02,0.16-0.07,0.31-0.15,0.45c-0.08,0.14-0.18,0.26-0.3,0.36c-0.12,0.09-0.26,0.17-0.42,0.21l-11.76,3.35 c-0.16,0.04-0.31,0.06-0.47,0.04c-0.16-0.02-0.31-0.07-0.45-0.15c-0.13-0.08-0.26-0.18-0.35-0.3c-0.1-0.12-0.17-0.26-0.21-0.42 c-0.05-0.16-0.06-0.31-0.04-0.47c0.02-0.16,0.07-0.31,0.15-0.45c0.08-0.14,0.18-0.26,0.3-0.36c0.12-0.1,0.26-0.17,0.42-0.21 L21.14,91.38L21.14,91.38z M85.88,64.58c0.09,0.49-0.03,0.97-0.29,1.35c-0.26,0.38-0.67,0.66-1.16,0.75s-0.96-0.03-1.34-0.29 c-0.38-0.26-0.66-0.67-0.75-1.16v-0.01c-0.1-0.57-0.14-1.11-0.12-1.64c0.02-0.55,0.11-1.09,0.25-1.6c0.19-0.69,0.5-1.35,0.88-1.93 c0.4-0.6,0.88-1.15,1.43-1.62c0.53-0.45,1.12-0.83,1.76-1.13c0.63-0.3,1.31-0.52,2.01-0.64h0.01c0.59-0.11,1.2-0.15,1.8-0.13 c0.59,0.03,1.2,0.12,1.78,0.28c1.62,0.46,2.78,1.09,3.57,1.88c0.82,0.81,1.25,1.76,1.39,2.84c0.13,0.94,0.01,1.91-0.26,2.9 c-0.27,0.99-0.69,1.99-1.18,3.02c-0.43,0.91-1.48,3.1-2.83,5.59c-1.36,2.5-3.01,5.3-4.66,7.43c-2.27,2.93-4.55,4.93-6.41,4.61 c-1.87-0.32-3.23-2.93-3.57-9.18c-0.03-0.5,0.16-0.96,0.47-1.3c0.31-0.34,0.75-0.57,1.25-0.59s0.96,0.16,1.3,0.46 c0.34,0.31,0.57,0.75,0.59,1.25c0.16,2.83,0.61,4.06,1.24,4.26c0.58,0.19,1.41-0.56,2.3-1.7c1.52-1.97,3.09-4.62,4.37-7 c1.29-2.39,2.3-4.49,2.71-5.36c0.37-0.79,0.69-1.53,0.91-2.2c0.2-0.64,0.29-1.22,0.23-1.69c-0.05-0.32-0.21-0.63-0.56-0.91 c-0.38-0.31-0.96-0.59-1.81-0.83c-0.33-0.09-0.66-0.15-0.98-0.16c-0.34-0.02-0.67,0.01-1,0.07c-0.39,0.07-0.76,0.19-1.11,0.36 c-0.35,0.17-0.68,0.37-0.97,0.62c-0.28,0.25-0.54,0.52-0.73,0.82c-0.19,0.29-0.34,0.61-0.44,0.96c-0.07,0.25-0.12,0.52-0.13,0.8 C85.8,64.01,85.82,64.29,85.88,64.58L85.88,64.58L85.88,64.58z M50.14,55.68c0.45-0.21,0.95-0.23,1.37-0.08 c0.44,0.15,0.82,0.47,1.03,0.92c0.21,0.45,0.23,0.94,0.08,1.37c-0.15,0.44-0.47,0.82-0.92,1.03c-0.89,0.43-1.78,0.76-2.67,0.98 c-0.68,0.18-1.36,0.29-2.04,0.37c0.05,0.1,0.09,0.21,0.13,0.31c0.11,0.3,0.17,0.63,0.17,0.97c0,0.81-0.32,1.53-0.86,2.06 c-0.53,0.53-1.26,0.86-2.06,0.86c-0.81,0-1.53-0.32-2.06-0.86L42.3,63.6c-0.52-0.53-0.83-1.25-0.83-2.04c0-0.4,0.08-0.78,0.22-1.13 c0.07-0.16,0.15-0.3,0.23-0.44c-0.5-0.1-0.98-0.21-1.48-0.35c-0.69-0.18-1.38-0.4-2.07-0.63c-0.47-0.17-0.83-0.5-1.03-0.92 c-0.2-0.42-0.24-0.91-0.09-1.37c0.17-0.47,0.5-0.83,0.92-1.03c0.42-0.2,0.91-0.24,1.38-0.09c0.93,0.32,1.84,0.59,2.74,0.79 c0.9,0.2,1.79,0.33,2.68,0.36c0.86,0.03,1.71-0.02,2.57-0.19C48.41,56.38,49.27,56.1,50.14,55.68L50.14,55.68L50.14,55.68z"/></g></svg>