<svg xmlns="http://www.w3.org/2000/svg" shape-rendering="geometricPrecision" text-rendering="geometricPrecision" image-rendering="optimizeQuality" fill-rule="evenodd" clip-rule="evenodd" viewBox="0 0 340 512.07"><path fill-rule="nonzero" d="M25.53 241.44c2.86-8.02 6.46-12.41 10.95-14.34C34.22 187.14 41.31 123.09 0 110.59 81.1 10.37 174.58-44.14 244.78 45.02c80.94 4.25 115.47 127.51 59.16 187.67 4.12-.15 7.98.64 11.29 2.46 4.09 2.24 7.18 5.87 8.77 11.04 1.57 5.13 1.56 11.8-.69 20.12l-.25.78c-1.04 3-1.92 6.82-2.83 10.76-3.66 15.87-7.69 33.33-25.55 32.38-1.19-.06-2.37-.21-3.55-.44-.21 14.75-3.46 25.98-8.86 35.63l11.12 16.6c5.43 9.18 9.49 14.68 10.86 25.71.69 5.52.43 11.17-.68 16.62L340 457.44l-11.34 7.59-34.02-49.48c-5.07-7.58-4.94-7.88-3.63-10.84 4.18-9.37.84-23.42-4.68-31.67-18.32-27.4-36.66-54.78-54.98-82.18-5.78-8.63-19.54.56-13.79 9.17l19.27 28.81c.61.89.54 2.02-.4 2.65l-6.97 4.66c-.82.55-1.95.33-2.5-.5l-30.22-45.21c-5.69-8.49-19.56.53-13.76 9.2l30.22 45.21c.56.82.33 1.95-.49 2.5l-7.38 4.93c-.82.55-1.95.34-2.5-.49l-40.44-60.47c-5.71-8.54-19.52.51-13.74 9.15l40.45 60.5c.55.82.33 1.95-.5 2.5l-7.2 4.82c-.83.55-1.95.32-2.5-.5l-30.13-45.07c-5.79-8.65-19.45.69-13.74 9.23 7.31 10.94 15.45 23.24 23.59 35.49 7.16 10.83 14.32 21.6 23.52 35.36 1.45 2.48 14.9 20.6 2.38 20.41-8.86.63-21.04-4.33-28.97-2.42-8.86 2.35-9 11.62-1.77 16.07 4.12 2.54 11.64 3.33 16.54 4.31 13.14 2.6 37.75 7.47 54.64 8.17 5.67.37 11.1 6.17 14.34 11.02l30.41 44.08-11.41 7.63-34.37-50.01c-16.13-.78-37.06-5.25-51.45-8.31-8.04-1.72-19.45-2.93-26.15-7.43-13.31-9.01-12.46-26.46-.15-34.11-14.16-4.96-28.09-13.44-41.44-25.31-3.37-3-5.72-5.03-8.02-7.01-20.91-18.01-38.37-33.06-41.56-69.9-.8.05-1.6.07-2.4.06-4.19-.05-8.22-1-12.01-3.16-19.14-10.89-18.32-44.82-15.71-63.64.09-.64.25-1.24.49-1.81zm222.39-10.34c1.92-.72 4.03.42 4.67 2.61.64 2.2-.37 4.58-2.29 5.31-14.74 5.77-29.75 5.35-44.48 0-1.92-.68-2.98-3.02-2.39-5.22.6-2.19 2.66-3.38 4.58-2.7 6.2 1.86 10.85 3.26 17.46 3.64 7.87.44 15.1-.73 22.45-3.64zm-147.26-.12c-1.91-.72-4.01.41-4.65 2.6-.64 2.19.37 4.56 2.28 5.29 14.68 5.74 29.62 5.33 44.3 0 1.91-.68 2.96-3.01 2.37-5.2-.59-2.18-2.65-3.37-4.56-2.69-6.17 1.85-10.8 3.25-17.38 3.62-7.84.44-15.04-.72-22.36-3.62zm52.93-17.78c7.77 5.46 7.7 13.12 2.19 14.56-6.47 1.7-12.34-4.87-17.4-8.07-13.17-8.34-30.15-13.34-44.56-8.82-3.85 1.22-7.91 3.03-12.19 5.35 2.47-4.21 5.54-7.83 9.35-10.75 16.59-12.44 48.18-5.18 62.61 7.73zm118.77 117.41c3.19-8.57 4.56-18.64 3.49-31.5-.12-1.61.27-3.27 1.22-4.72 2.26-3.42 6.88-4.35 10.3-2.09 1.49.98 2.98 1.76 4.44 2.29 1.25.47 2.47.74 3.63.8 5.42.29 7.98-10.79 10.3-20.86 1.01-4.36 1.98-8.58 3.26-12.27 1.42-5.37 1.57-9.19.79-11.71-.36-1.18-.96-1.95-1.71-2.37-1.08-.59-2.63-.77-4.45-.6-4.17.39-9.16 2.57-13.85 6.09a7.469 7.469 0 0 1-5.85 1.49c-4.05-.69-6.77-4.54-6.08-8.59 7.61-44.36 4.11-73.31-5.36-93.07-8.4-17.5-21.8-28.04-36.31-35.91-31.72 24.4-54.02 27.16-76.26 29.91-18.48 2.28-36.92 4.56-61.37 21.48-11.69 8.08-19.46 17.87-23.43 29.27-4 11.47-4.3 24.79-1.04 39.86.43 1.47.42 3.1-.15 4.65a7.437 7.437 0 0 1-9.55 4.42l-9.32-3.41c-7.98-2.79-12.97-3.68-15.4 2.29-1.47 11.16-3.15 41.33 8.42 47.91 1.48.85 3.12 1.22 4.85 1.24 2.12.03 4.49-.42 7-1.19.64-.2 1.31-.31 2.01-.32 4.09-.1 7.5 3.15 7.59 7.24.89 36.7 17.14 50.7 36.91 67.72 3 2.59 6.08 5.24 8.2 7.12 16.97 15.1 34.73 23.96 52.35 26.21-14.03-21.1-27.89-42.32-41.98-63.39-7.99-11.95.03-28.47 14.15-30.68-15.12-22.61 18.81-44.84 33.64-22.67 8.58-13.33 25.9-13.5 34.89-.05 6.79-9.23 18.98-12.3 27.81-6.74 3.6 2.27 5.19 4.82 7.37 8.08l29.49 44.07zm-77.38-118.96c-8.06 5.09-8.38 12.77-2.93 14.49 6.41 2.03 12.63-4.26 17.85-7.21 13.64-7.69 30.87-11.83 45.15-6.57 3.79 1.41 7.77 3.43 11.94 5.98-2.26-4.35-5.15-8.14-8.83-11.25-15.99-13.32-48.05-7.65-63.18 4.56z"/></svg>