<svg id="Layer_1" data-name="Layer 1" xmlns="http://www.w3.org/2000/svg" viewBox="0 0 122.88 122.88"><defs><style>.cls-1{fill-rule:evenodd;}</style></defs><title>covid-19</title><path class="cls-1" d="M56.36,3.07a5.22,5.22,0,0,0,1.19,3.12c.89,1.23,2,1.93,2.2,3.52s-.35,3.6-.59,5a46.38,46.38,0,0,0-13.64,2.73c-.8-.85-2.42-3.17-2.52-4.17a4.62,4.62,0,0,1,.32-2c.57-1.57,1.16-4.13.4-5.71-1.79-3.7-11.36.4-9.92,4.24a5.16,5.16,0,0,0,2.32,2.4c1.3.78,2.57,1,3.41,2.37S40.62,18,41,19.37a47,47,0,0,0-11,7.49c-1.06-.47-3.47-2-3.94-2.89a4.83,4.83,0,0,1-.48-2c-.07-1.66-.5-4.25-1.81-5.42-3.07-2.73-10.34,4.71-7.54,7.71a5.19,5.19,0,0,0,3.06,1.33c1.49.22,2.75-.06,4.05.89s2.33,2.77,3.17,3.92A47.11,47.11,0,0,0,19.1,41.51c-1.15,0-4-.53-4.73-1.17a4.73,4.73,0,0,1-1.2-1.65c-.7-1.52-2.09-3.75-3.75-4.33-3.87-1.35-7.76,8.3-4,10a5.24,5.24,0,0,0,3.33.06c1.47-.36,2.52-1.11,4.09-.73s3.2,1.66,4.41,2.41a46.82,46.82,0,0,0-2.52,13.08c-1.08.41-3.86,1-4.83.73a4.75,4.75,0,0,1-1.74-1.07C6.91,57.72,4.78,56.18,3,56.28c-4.09.23-4,10.64.11,10.79a5.23,5.23,0,0,0,3.1-1.22c1.22-.89,1.91-2,3.5-2.23s3.6.32,5,.54a46.37,46.37,0,0,0,2.65,13.06c-.85.8-3.18,2.41-4.18,2.51a4.66,4.66,0,0,1-2-.33c-1.56-.58-4.12-1.18-5.71-.41-3.7,1.77.37,11.35,4.22,9.93a5.25,5.25,0,0,0,2.4-2.32c.79-1.29,1-2.56,2.38-3.4s3.44-1.08,4.83-1.41a46.73,46.73,0,0,0,7.45,11c-.48,1.06-2,3.45-2.91,3.92a4.6,4.6,0,0,1-2,.47c-1.66.07-4.26.49-5.43,1.8-2.74,3,4.67,10.35,7.69,7.57a5.24,5.24,0,0,0,1.33-3.06c.24-1.5-.05-2.75.91-4.05s2.77-2.32,3.92-3.15a46.8,46.8,0,0,0,11.1,7.39c0,1.16-.55,3.94-1.19,4.71a4.54,4.54,0,0,1-1.66,1.19c-1.51.7-3.75,2.08-4.33,3.74-1.37,3.87,8.28,7.78,10,4.06a5.2,5.2,0,0,0,.07-3.34c-.35-1.47-1.1-2.52-.71-4.09s1.66-3.18,2.41-4.38a46.92,46.92,0,0,0,13.09,2.56c.41,1.09,1,3.85.71,4.81a4.65,4.65,0,0,1-1.08,1.74c-1.14,1.22-2.67,3.35-2.58,5.11.22,4.1,10.62,4,10.79-.07a5.26,5.26,0,0,0-1.22-3.11c-.88-1.22-2-1.91-2.22-3.51s.33-3.58.56-5a46.9,46.9,0,0,0,13.09-2.61c.79.86,2.38,3.17,2.47,4.16a4.61,4.61,0,0,1-.33,2c-.58,1.57-1.19,4.12-.43,5.71,1.77,3.71,11.36-.33,9.94-4.18a5.18,5.18,0,0,0-2.3-2.41c-1.29-.79-2.56-1-3.4-2.4S82,105,81.66,103.66a47,47,0,0,0,11.09-7.43c1.06.49,3.43,2,3.89,2.91a4.6,4.6,0,0,1,.47,2c.06,1.67.47,4.26,1.78,5.44,3,2.75,10.37-4.64,7.59-7.66a5.14,5.14,0,0,0-3-1.35c-1.5-.24-2.76,0-4.06-.92s-2.29-2.76-3.12-3.92a46.69,46.69,0,0,0,7.43-11.09c1.17.05,3.92.57,4.69,1.2a4.67,4.67,0,0,1,1.19,1.67c.69,1.51,2.07,3.75,3.73,4.34,3.86,1.38,7.8-8.25,4.08-10a5.23,5.23,0,0,0-3.33-.08c-1.47.35-2.53,1.09-4.1.7s-3.16-1.66-4.37-2.42A46.47,46.47,0,0,0,108.18,64c1.1-.4,3.85-1,4.8-.68a4.65,4.65,0,0,1,1.74,1.08c1.22,1.14,3.35,2.68,5.1,2.59,4.1-.2,4.07-10.61,0-10.78a5.22,5.22,0,0,0-3.12,1.2c-1.22.88-1.92,2-3.51,2.21s-3.57-.34-5-.57a46.58,46.58,0,0,0-2.57-13.1c.86-.79,3.18-2.37,4.17-2.46a4.63,4.63,0,0,1,2,.34c1.56.58,4.12,1.2,5.71.45,3.71-1.76-.3-11.36-4.16-10a5.23,5.23,0,0,0-2.41,2.3c-.8,1.29-1,2.55-2.41,3.38s-3.43,1.06-4.81,1.38a46.54,46.54,0,0,0-7.4-11.1c.49-1.06,2-3.43,2.93-3.89a4.59,4.59,0,0,1,2-.46c1.67-.06,4.27-.46,5.45-1.77,2.76-3-4.61-10.38-7.64-7.61a5.21,5.21,0,0,0-1.36,3.05c-.24,1.49,0,2.75-.93,4s-2.78,2.3-3.93,3.12a47,47,0,0,0-11.06-7.45c0-1.16.57-3.94,1.21-4.7a4.67,4.67,0,0,1,1.67-1.19c1.52-.69,3.76-2.05,4.36-3.71,1.39-3.86-8.23-7.84-10-4.12A5.26,5.26,0,0,0,79,8.9c.35,1.47,1.08,2.53.69,4.09S78,16.16,77.2,17.37a46.43,46.43,0,0,0-13.07-2.64c-.4-1.09-1-3.87-.68-4.83a4.65,4.65,0,0,1,1.09-1.73c1.14-1.22,2.69-3.34,2.61-5.1C67-1,56.55-1,56.36,3.07Zm11,22.75a7.28,7.28,0,1,1-7.27,7.28,7.28,7.28,0,0,1,7.27-7.28ZM85.8,40.74a1.86,1.86,0,1,1-1.86,1.85,1.86,1.86,0,0,1,1.86-1.85ZM69.34,93.35a1.86,1.86,0,1,1-1.86,1.86,1.86,1.86,0,0,1,1.86-1.86ZM38.27,81.44a1.86,1.86,0,1,1-1.86,1.86,1.87,1.87,0,0,1,1.86-1.86Zm47.31-3.57a1.86,1.86,0,1,1-1.86,1.86,1.86,1.86,0,0,1,1.86-1.86Zm-9.64,3.84a3.44,3.44,0,1,1-3.43,3.43,3.44,3.44,0,0,1,3.43-3.43Zm-20.49-5a4.73,4.73,0,1,1-4.73,4.73,4.73,4.73,0,0,1,4.73-4.73ZM55.37,63.8a1.86,1.86,0,1,1-1.85,1.85,1.85,1.85,0,0,1,1.85-1.85ZM25.71,42.68a1.86,1.86,0,1,1-1.86,1.86,1.86,1.86,0,0,1,1.86-1.86ZM47.47,47a1.86,1.86,0,1,1-1.86,1.85A1.85,1.85,0,0,1,47.47,47Zm16.39,2a3.38,3.38,0,1,1-3.38,3.37A3.38,3.38,0,0,1,63.86,49Zm31.82,1.17a3.38,3.38,0,1,1-3.38,3.38,3.38,3.38,0,0,1,3.38-3.38ZM79.09,56.32A4.64,4.64,0,1,1,74.46,61a4.64,4.64,0,0,1,4.63-4.64Zm-46.37-.11a7.28,7.28,0,1,1-7.28,7.27,7.28,7.28,0,0,1,7.28-7.27Zm11.86-24.3a4.73,4.73,0,1,1-4.72,4.72,4.72,4.72,0,0,1,4.72-4.72Z"/></svg>