<svg id="Layer_1" data-name="Layer 1" xmlns="http://www.w3.org/2000/svg" viewBox="0 0 86.08 122.88"><defs><style>.cls-1{fill:#262626;}.cls-1,.cls-2,.cls-3,.cls-4{fill-rule:evenodd;}.cls-2{fill:#fff;}.cls-3{fill:#ff4141;}.cls-4{fill:#42a5f5;}</style></defs><title>dehydration</title><path class="cls-1" d="M0,104.8c1.78,11.23,16,7.91,17.23,0,.22-2.84-.11-30.28,6.09-30.12v26.45a18.25,18.25,0,0,0-.1,4.24A18.86,18.86,0,0,0,29,117.08a20.1,20.1,0,0,0,6.43,4.33,20.3,20.3,0,0,0,15.17,0,20.14,20.14,0,0,0,6.28-4.17l.17-.16a18.9,18.9,0,0,0,5.79-11.7,18.28,18.28,0,0,0,0-3.77h0l-.1-27v.68l.12-6a15,15,0,0,1,2.34,3.91,24.81,24.81,0,0,1,1.88,9l2.46,22.63c.71,10.1,16.49,11.55,16.51,0a145.6,145.6,0,0,0-1.6-21.9c-.53-7.33-1.4-12.47-4.64-19.33C71.19,45.29,62.14,45.85,44.39,46c-9.75.08-18.76-1.43-27,5.11C9.62,57.34,5.46,63.53,3.19,73,1.08,81.83,0,95.92,0,104.8ZM44.12,0A20.28,20.28,0,1,1,23.84,20.28,20.29,20.29,0,0,1,44.12,0Z"/><path class="cls-2" d="M43,69.14c3.25,13.91,7.21,14.62,14,25.07,4.49,6.94,4,14.82-2,20.76a16.91,16.91,0,0,1-23.89,0c-6-6-6.49-13.85-2-20.81C35.89,83.74,39.83,83,43,69.14Z"/><polygon class="cls-3" points="43.04 101.33 49.49 94.34 45.48 94.34 45.48 90.1 40.59 90.1 40.59 94.34 36.59 94.34 43.04 101.33 43.04 101.33"/><path class="cls-4" d="M56.21,107.42C50.13,118.89,34.49,118,29.87,105.6c11.23,4.72,23-6.93,26.34,1.82Z"/></svg>