<svg xmlns="http://www.w3.org/2000/svg" shape-rendering="geometricPrecision" text-rendering="geometricPrecision" image-rendering="optimizeQuality" fill-rule="evenodd" clip-rule="evenodd" viewBox="0 0 512 510.87"><path fill-rule="nonzero" d="M246.75 46.07c-4.5.04-8.19-3.58-8.22-8.09-.04-4.5 3.59-8.18 8.09-8.22l9.38-.06v-.04c10.01 0 20.21.26 30.54.74 10.13.48 20.14 1.2 29.98 2.15 4.49.42 7.78 4.4 7.36 8.89-.42 4.48-4.41 7.78-8.89 7.35-9.46-.91-19.22-1.61-29.22-2.08-9.43-.44-19.36-.67-29.77-.67v-.03l-9.25.06zm7.47 227.75h-1.44c0-11.74-4.39-21.99-13.16-30.77-8.78-8.77-19.03-13.16-30.78-13.16v-1.44c11.75 0 22-4.38 30.78-13.18 8.77-8.79 13.16-19.05 13.16-30.75h1.44c0 11.74 4.39 22 13.16 30.77 8.78 8.78 19.03 13.16 30.77 13.16v1.44c-11.74 0-21.99 4.39-30.77 13.16-8.77 8.78-13.16 19.03-13.16 30.77zm130.3-188.24h-1.24c0-10.07-3.76-18.86-11.29-26.39-7.52-7.53-16.32-11.29-26.39-11.29v-1.23c10.07 0 18.87-3.76 26.39-11.31 7.53-7.54 11.29-16.33 11.29-26.37h1.24c0 10.07 3.76 18.87 11.28 26.39 7.53 7.53 16.32 11.29 26.39 11.29v1.23c-10.07 0-18.86 3.76-26.39 11.29-7.52 7.53-11.28 16.32-11.28 26.39zM176.8 76.59h-1.23c0-10.07-3.77-18.87-11.29-26.39-7.53-7.53-16.32-11.29-26.39-11.29v-1.23c10.07 0 18.86-3.77 26.39-11.31 7.53-7.54 11.29-16.34 11.29-26.37h1.23c0 10.07 3.77 18.86 11.29 26.39 7.53 7.53 16.32 11.29 26.39 11.29v1.23c-10.07 0-18.86 3.76-26.39 11.29-7.53 7.52-11.29 16.32-11.29 26.39zM140.4 397.8c3.8 2.44 4.9 7.5 2.46 11.3-2.43 3.8-7.49 4.9-11.29 2.46-4.28-2.74-8.75-4.24-13.39-4.63-3.03-.25-6.15-.05-9.37.57.21 2.69.49 5.36.84 8.01.63 4.8 1.47 9.54 2.49 14.2.44 1.97.12 3.93-.76 5.58-3.62 7.24-5.44 13.26-5.76 18.16-.3 4.75.94 8.29 3.37 10.75 2.82 2.87 7.39 4.79 13.18 5.88 9.58 1.81 21.93 1.24 35.37-1.18 12.92-2.32 27.44-6.05 40.79-11.22 10.79-4.18 20.75-9.3 28.34-15.36 7.17-5.73 10.56-15.38 13.45-23.61l2.35-6.54c3.77-10.38 10.32-28.4 19.09-35.15 3.57-2.76 8.7-2.1 11.46 1.47a8.175 8.175 0 0 1-1.47 11.45c-5.03 3.87-10.55 19.05-13.73 27.8l-2.28 6.34c-3.62 10.3-7.86 22.37-18.7 31.03-8.92 7.13-20.36 13.04-32.62 17.79-2.38.93-4.8 1.81-7.23 2.64.06 3.87-.1 7.74-.48 11.62-.59 6.01-1.67 11.9-3.2 17.64a8.177 8.177 0 0 1-10.02 5.79c-4.36-1.16-6.95-5.64-5.78-10.01 1.34-5.03 2.27-10.02 2.75-14.96.17-1.69.28-3.4.34-5.12-6.9 1.82-13.73 3.3-20.18 4.46-15.35 2.76-29.71 3.36-41.26 1.18-9-1.69-16.51-5.1-21.82-10.49-5.7-5.79-8.66-13.46-8.03-23.22.41-6.38 2.42-13.69 6.31-22-.87-4.24-1.59-8.51-2.16-12.81-.67-5.17-1.13-10.41-1.33-15.71l-.12-1.03c-.93-9.84-1.05-19.39-1.18-29.04l-.01-.62-13.58-.8c-4.19-.19-7.97-1.4-11.11-3.46-3.06-2-5.52-4.77-7.17-8.14-1.57-3.18-2.39-6.86-2.31-10.87.11-5.48 1.93-11.6 5.92-17.79l15.85-32.41c7.64-15.62 7.56-17.65 7.24-25.7-.15-3.79-.35-8.66-.11-15.98.29-8.75 1.27-17.13 3.16-25.01 1.21-4.99 2.78-9.78 4.78-14.33l-18.63-8.13c-7.7-3.08-14.89-6.37-21.52-9.83C19.83 181.29 0 158.95 0 134.11c0-18.97 11.49-36.44 31.79-51.4 19.65-14.48 47.92-26.82 82.04-35.91 4.37-1.15 8.84 1.46 9.98 5.82 1.15 4.36-1.46 8.83-5.82 9.98-32.13 8.57-58.51 20-76.54 33.29-16.01 11.8-25.07 24.83-25.07 38.22 0 18.2 16.55 35.62 44.5 50.2 1.87.98 3.8 1.93 5.76 2.88C135.53 96.26 212.89 71.26 278.55 84.21c39.1 7.71 73.94 28.95 100.3 57.79 15.4 16.84 27.92 36.29 36.71 57.17 12.7-4.27 24.23-9.04 34.35-14.24 28.69-14.7 45.71-32.35 45.71-50.82 0-9.15-4.25-18.15-12.06-26.69-8.83-9.67-22.02-18.66-38.69-26.63a8.155 8.155 0 0 1-3.84-10.87c1.94-4.07 6.81-5.79 10.87-3.84 18.61 8.89 33.52 19.12 43.76 30.33C506.24 108 512 120.68 512 134.11c0 25.16-20.36 47.76-54.67 65.34-10.68 5.48-22.78 10.51-36.08 15.01 3.27 10.07 5.68 20.4 7.13 30.86 8.73 62.79-16.44 130.02-93.96 175.47-.39.23-.8.43-1.22.59.1 8.9.67 17.55 1.7 25.96 2.13 17.44 6.21 33.76 11.99 49.11 1.59 4.22-.55 8.93-4.77 10.52a8.164 8.164 0 0 1-10.52-4.76c-6.26-16.62-10.67-34.21-12.95-52.89-2.27-18.61-2.45-38.39-.28-59.48a8.172 8.172 0 0 1 8.96-7.29c4.48.46 7.75 4.47 7.29 8.96-.37 3.56-.66 7.09-.89 10.58 64.91-41.35 86.06-99.89 78.46-154.53-1.33-9.56-3.53-19.01-6.52-28.24-24.37 7.03-52.03 12.38-81.87 15.62-4.49.48-8.51-2.78-8.99-7.26-.48-4.49 2.78-8.51 7.26-8.99 28.43-3.09 54.71-8.11 77.82-14.68-8.02-18.59-19.28-35.93-33.06-51.01-24.08-26.34-55.83-45.72-91.41-52.74-59.29-11.68-129.57 11.17-193.36 93.66 28.27 11.2 63.87 19.68 103.91 24.32 4.48.51 7.7 4.56 7.19 9.05-.51 4.48-4.57 7.71-9.05 7.2-26.85-3.12-51.87-7.94-74.24-14.16-2.31 4.52-4.04 9.4-5.29 14.57-1.63 6.74-2.47 14.02-2.71 21.68-.22 6.68-.04 11.27.1 14.83.45 11.29.56 14.15-8.9 33.5L77.2 337.36c-.2.51-.46 1.01-.77 1.5-2.35 3.59-3.41 6.79-3.47 9.41-.02 1.3.21 2.43.65 3.32.34.69.85 1.27 1.48 1.68.72.48 1.65.77 2.71.84l.63.01 18.21 1.07a8.12 8.12 0 0 1 2.05-.3l.83.03v-.03l17.05 1.46c4.5.37 7.85 4.33 7.48 8.83-.37 4.5-4.32 7.85-8.83 7.48l-8.07-.48c.08 6.33.17 12.62.51 18.93 4.02-.64 7.98-.82 11.87-.49 7.27.61 14.24 2.94 20.87 7.18zm3.97-103.75a9.042 9.042 0 0 0-4.48 7.81c0 4.99 4.05 9.04 9.05 9.04 5 0 9.05-4.05 9.05-9.04a9.03 9.03 0 0 0-3.61-7.23c6.84-.21 13.71-1.71 20.62-5.09 3.16-1.53 4.47-5.35 2.93-8.51a6.364 6.364 0 0 0-8.51-2.93c-6.18 3.01-12.3 4.05-18.38 3.82-6.3-.24-12.77-1.87-19.3-4.12a6.37 6.37 0 0 0-8.09 3.96 6.376 6.376 0 0 0 3.96 8.08c5.51 1.9 11.08 3.42 16.76 4.21zm152.19 18.57c.63 3.44-1.66 6.76-5.1 7.39-3.45.63-6.77-1.65-7.4-5.1-.75-4.12-.52-8.01.48-11.56 1.42-5.02 4.35-9.33 8.2-12.6 3.75-3.18 8.41-5.38 13.38-6.29 4.16-.76 8.55-.63 12.82.57 11.63 3.28 16.58 9.18 17.64 16.74.92 6.58-1.62 13.66-5.14 21.06-3.08 6.49-14.94 31.22-26.66 46.34-16.71 21.56-32.92 29.39-35.42-16.25-.17-3.51 2.52-6.49 6.02-6.67 3.51-.18 6.5 2.52 6.67 6.02 1.03 18.78 6.79 16.74 12.68 9.14 10.88-14.04 22.25-37.77 25.21-44 2.61-5.48 4.53-10.44 4.05-13.9-.35-2.47-2.7-4.61-8.48-6.23-2.38-.67-4.81-.75-7.1-.33-2.78.51-5.37 1.73-7.45 3.5-1.98 1.68-3.47 3.85-4.17 6.34-.5 1.77-.62 3.74-.23 5.83z"/></svg>