<?xml version="1.0" encoding="utf-8"?><svg version="1.1" id="Layer_1" xmlns="http://www.w3.org/2000/svg" xmlns:xlink="http://www.w3.org/1999/xlink" x="0px" y="0px" viewBox="0 0 122.88 122.88" style="enable-background:new 0 0 122.88 122.88" xml:space="preserve"><g><path d="M63.6,31.5c1.25-1.14,2.86-2.01,4.6-2.51c1.95-0.56,4.11-0.66,6.17-0.16c2.11,0.51,4.1,1.64,5.67,3.54 c1.5,1.82,2.57,4.33,2.91,7.66c5.95,2.33,9.55,6.22,11.31,10.46c0.82,1.98,1.23,4.04,1.29,6.05c0.06,2.01-0.24,3.98-0.85,5.79 c-1.05,3.14-3.03,5.8-5.66,7.38c0.1,1.35,0.05,2.69-0.15,4c-0.56,3.8-2.3,7.36-4.94,10.14c-2.65,2.78-6.21,4.78-10.43,5.45 c-1.46,0.23-2.98,0.3-4.57,0.19c-1.24,2.15-3.62,3.7-6.31,4.43c-1.53,0.41-3.18,0.57-4.78,0.41c-1.66-0.16-3.26-0.66-4.63-1.55 c-1.51-0.98-2.71-2.38-3.36-4.28c-2,1.17-3.89,1.65-5.61,1.61c-1.83-0.04-3.44-0.67-4.74-1.71c-1.26-1.01-2.23-2.39-2.85-4.01 c-0.85-2.22-1.01-4.91-0.3-7.61c-3.54-1.61-5.95-4.16-7.39-7.12c-1.34-2.75-1.83-5.84-1.62-8.84c0.21-2.98,1.13-5.89,2.6-8.31 c1.58-2.6,3.82-4.65,6.55-5.65c0.01-4.87,1.61-8.83,4.11-11.81c1.58-1.87,3.51-3.34,5.63-4.38c2.12-1.04,4.42-1.65,6.73-1.81 C56.67,28.6,60.42,29.45,63.6,31.5L63.6,31.5z M61.44,0c16.96,0,32.31,6.87,43.44,18c11.13,11.13,18,26.48,18,43.44 c0,16.96-6.87,32.31-18,43.44c-11.13,11.13-26.48,18-43.44,18c-16.96,0-32.31-6.87-43.44-18C6.87,93.75,0,78.4,0,61.44 C0,44.48,6.87,29.13,18,18C29.13,6.87,44.48,0,61.44,0L61.44,0z M103.63,27.77L93.5,37.9c-1.48-2.01-3.15-3.88-4.97-5.58 l10.06-10.06c-9.66-9.2-22.76-14.81-37.14-14.81c-14.89,0-28.38,6.05-38.14,15.82C13.53,33.03,7.48,46.52,7.48,61.4 c0,14.39,5.65,27.48,14.81,37.14l10.02-10.02c1.7,1.83,3.57,3.49,5.58,4.97L27.8,103.59c9.23,7.37,20.93,11.77,33.64,11.77 c14.89,0,28.38-6.05,38.14-15.82c9.77-9.77,15.82-23.26,15.82-38.15C115.4,48.67,111,37,103.63,27.77L103.63,27.77L103.63,27.77z M71.1,39.55c0.89-0.45,1.98-0.09,2.43,0.81c0.45,0.89,0.08,1.98-0.81,2.43c-0.89,0.45-1.98,0.08-2.43-0.81 C69.85,41.09,70.21,40,71.1,39.55L71.1,39.55z M42.76,59.8c0.55,0,1,0.45,1,1c0,0.55-0.45,1-1,1c-0.55,0-1-0.45-1-1 C41.76,60.25,42.21,59.8,42.76,59.8L42.76,59.8z M69.9,60.49c0.99,0,1.79,0.8,1.79,1.79c0,0.99-0.8,1.79-1.79,1.79 c-0.99,0-1.79-0.8-1.79-1.79C68.12,61.29,68.92,60.49,69.9,60.49L69.9,60.49z M57.15,75.37c0.89-0.45,1.98-0.09,2.43,0.81 c0.45,0.89,0.09,1.98-0.81,2.43c-0.89,0.45-1.98,0.08-2.43-0.81C55.89,76.91,56.25,75.82,57.15,75.37L57.15,75.37z M65.53,76.42 c1.24-0.62,2.75-0.12,3.37,1.12c0.62,1.24,0.12,2.75-1.12,3.37c-1.24,0.62-2.75,0.12-3.37-1.12 C63.79,78.55,64.29,77.04,65.53,76.42L65.53,76.42z M49.39,44.42c0.81-0.41,1.79-0.08,2.2,0.73c0.4,0.81,0.08,1.79-0.73,2.2 c-0.81,0.41-1.79,0.08-2.2-0.73C48.25,45.81,48.58,44.82,49.39,44.42L49.39,44.42z M76.59,69.16c0.81-0.41,1.79-0.08,2.2,0.73 c0.4,0.81,0.08,1.79-0.73,2.2c-0.81,0.41-1.79,0.08-2.2-0.73C75.45,70.55,75.78,69.57,76.59,69.16L76.59,69.16z M43.83,68.33 c1.04,0,1.88,0.84,1.88,1.88c0,1.04-0.84,1.88-1.88,1.88s-1.88-0.84-1.88-1.88C41.95,69.17,42.79,68.33,43.83,68.33L43.83,68.33z M52.7,57.14c0.91,0,1.64,0.73,1.64,1.64s-0.73,1.64-1.64,1.64c-0.91,0-1.64-0.73-1.64-1.64S51.8,57.14,52.7,57.14L52.7,57.14z M59.78,65.46c1.07,0,1.95,0.87,1.95,1.95c0,1.07-0.87,1.95-1.95,1.95c-1.07,0-1.95-0.87-1.95-1.95 C57.83,66.33,58.7,65.46,59.78,65.46L59.78,65.46z M63.22,48.89c1.75,0,3.17,1.42,3.17,3.17s-1.42,3.17-3.17,3.17 c-1.75,0-3.17-1.42-3.17-3.17S61.47,48.89,63.22,48.89L63.22,48.89z M79.49,51.27c1.75,0,3.17,1.42,3.17,3.17 c0,1.75-1.42,3.17-3.17,3.17c-1.75,0-3.17-1.42-3.17-3.17C76.32,52.69,77.74,51.27,79.49,51.27L79.49,51.27z M40.75,48.3 c0.06,0.68,0.17,1.33,0.34,1.93c0.16,0.57,0.37,1.12,0.66,1.62c0.57,1,0.22,2.28-0.79,2.85c-1,0.57-2.28,0.22-2.85-0.79 c-0.46-0.8-0.8-1.67-1.05-2.58l-0.03-0.12c-1.39,0.75-2.58,1.98-3.49,3.48c-1.13,1.85-1.83,4.11-2,6.43 c-0.16,2.3,0.2,4.65,1.21,6.71c1.22,2.5,3.42,4.61,6.8,5.71c0.1,0.03,0.2,0.06,0.3,0.1c1.06,0.46,1.54,1.69,1.08,2.75 c-1.01,2.3-1.04,4.68-0.34,6.52c0.35,0.91,0.87,1.68,1.54,2.21c0.62,0.49,1.38,0.79,2.24,0.81c1.54,0.04,3.46-0.74,5.64-2.69 c0.38-0.35,0.9-0.56,1.46-0.55c1.15,0.02,2.07,0.98,2.04,2.13c-0.05,2.23,0.78,3.66,2,4.45c0.78,0.5,1.74,0.79,2.75,0.89 c1.07,0.1,2.21-0.01,3.29-0.3c1.98-0.54,3.65-1.65,4.04-3.07c0.23-1.07,1.25-1.79,2.35-1.63c1.76,0.26,3.42,0.25,4.94,0.01 c3.24-0.51,5.99-2.05,8.04-4.2c2.05-2.15,3.4-4.92,3.83-7.86c0.2-1.39,0.21-2.8,0-4.2c-0.18-0.95,0.32-1.94,1.26-2.32 c2.19-0.91,3.87-2.99,4.73-5.58c0.45-1.35,0.68-2.83,0.63-4.35c-0.04-1.52-0.36-3.07-0.98-4.58c-1.46-3.52-4.64-6.75-10.1-8.57 c-0.8-0.27-1.39-1.01-1.42-1.91c-0.11-3.04-0.91-5.17-2.06-6.58c-0.94-1.14-2.15-1.83-3.42-2.13c-1.32-0.32-2.74-0.24-4.04,0.13 c-1.59,0.45-2.95,1.33-3.7,2.46l0,0c-0.12,0.19-0.28,0.36-0.47,0.5c-0.34,0.26-0.69,0.89-0.96,1.68c-0.29,0.84-0.43,1.77-0.35,2.62 c0.12,1.15-0.72,2.17-1.86,2.29c-1.15,0.12-2.17-0.72-2.29-1.86c-0.15-1.47,0.08-3.03,0.54-4.38c0.19-0.55,0.42-1.07,0.68-1.55 c-2.3-1.36-5-1.92-7.65-1.73c-1.8,0.13-3.58,0.6-5.2,1.39c-1.61,0.79-3.08,1.9-4.27,3.31c-2.13,2.53-3.39,6.07-3.07,10.55l0,0 L40.75,48.3L40.75,48.3z"/></g></svg>