<svg id="Layer_1" data-name="Layer 1" xmlns="http://www.w3.org/2000/svg" viewBox="0 0 122.88 71.21"><defs><style>.cls-1{fill-rule:evenodd;}</style></defs><title>e-cigarette</title><path class="cls-1" d="M83.76,50h20.55c1.2,1.85,3.78,3.12,6.76,3.12s5.57-1.27,6.76-3.12h5V69.13h-5.22a9,9,0,0,0-13.17,0H83.76V50ZM3.87,43.4c0-1.11,0-2.11.1-3s.16-1.67.28-2.35c.9-5,5-5.47,9-6,4.74-.58,9.33-1.14,10.93-7.18a11,11,0,0,0-1.57-8.59h0a19.5,19.5,0,0,0-7-6.55l-1.64,4.05A15.62,15.62,0,0,1,19.52,19h0a6,6,0,0,1,1,4.59c-.85,3.21-4.22,3.63-7.7,4.05C7.52,28.25,2,28.93.55,37.11A28.13,28.13,0,0,0,.19,40c-.07,1-.11,2.17-.11,3.4ZM14,45.28c.37-6.35,7.72-6.2,14.85-6.06,8.58.17,16.9.34,17.34-9,.23-5.06-3.69-8-7.73-11-3-2.21-6.07-4.48-6.52-7.25-.13-.8.75-2.47,2.21-4.16a11.32,11.32,0,0,1,5.22-3.53L38.39,0a15.18,15.18,0,0,0-7.13,4.76c-2.33,2.69-3.63,6-3.28,8.11.75,4.65,4.56,7.46,8.26,10.2,3.07,2.27,6,4.46,5.92,7-.23,4.94-6.65,4.82-13.27,4.68-9-.18-18.3-.36-18.91,10.28l4,.28ZM62.71,55.59a4,4,0,1,1-4,4,4,4,0,0,1,4-4ZM8.77,47.94h5.61V71.21H8.77V47.94ZM0,47.94H5.61V71.21H0V47.94Zm16.83,0H76.88V49.7h5.19V69.44H76.88v1.77h-60V47.94Zm45.88,5A6.67,6.67,0,1,1,56,59.57a6.67,6.67,0,0,1,6.67-6.66Zm24.64.25h14.79V66H87.35V53.16Z"/></svg>