<svg id="Layer_1" data-name="Layer 1" xmlns="http://www.w3.org/2000/svg" viewBox="0 0 122.88 64.96"><defs><style>.cls-1{fill-rule:evenodd;}</style></defs><title>eye-watch</title><path class="cls-1" d="M91.82,47.75l-1.51,1.74C85.44,55.14,80.5,60.87,73,63.43c-9.94,3.4-21.33.68-39.89-3.76-1.81-.43-3.71-.89-7.38-1.75-.33-.08-.71-.15-1.15-.23-3.22-.61-8.64-1.63-7.87-5.58.5-2.62,3.57-4.13,6-5.31.56-.28,1.07-.53,1.46-.75,2.52-1.47,4.93-3,7.3-4.49,6.61-4.18,12.9-8.16,20.1-10a39.7,39.7,0,0,1,10.73-1.4c9,.19,14.89,4,22.1,9a91.44,91.44,0,0,0,8.33,5.32,20,20,0,0,0,7.72,1.92,2.38,2.38,0,0,1,1.19.28,1.66,1.66,0,0,1,.59,2.27,1.68,1.68,0,0,1-2,.72v0h0a24,24,0,0,1-8.38-2ZM64.23,34.53a4.58,4.58,0,1,1-4.58,4.57,4.58,4.58,0,0,1,4.58-4.57ZM0,45.2C77.3,6.65,59.8-1,122.88,42.83l-22.2-24C73.18-5.73,65.44-3.64,40.09,10.17,29.27,16.06,9.19,22.4,4.68,33.6L0,45.2ZM46.19,37c-2.38,22.19,30.62,29,35.64,4.45l.67.47c2.09,1.44,4.2,2.9,6.35,4.2l-1,1.22C83.23,52.63,78.58,58,72,60.29c-9.05,3.09-20.07.46-38.05-3.85l-7.4-1.76-1.29-.26c-2-.37-5.35-1-5.22-1.69.19-1,2.43-2.09,4.17-2.95.61-.31,1.18-.59,1.65-.86,2.54-1.47,5-3,7.41-4.56a104.79,104.79,0,0,1,13-7.38ZM99.93,49.55a3.18,3.18,0,0,1,.27.18v0l-.27-.13Z"/></svg>