<svg id="Layer_1" data-name="Layer 1" xmlns="http://www.w3.org/2000/svg" viewBox="0 0 122.88 92.15"><defs><style>.cls-1{fill-rule:evenodd;}</style></defs><title>eye-care</title><path class="cls-1" d="M24.72,78.63V39.68H42.24C49.67,41,57.1,45,64.52,49.71H78.13c6.16.37,9.39,6.61,3.4,10.72-4.77,3.5-11.07,3.3-17.52,2.72-4.46-.22-4.65,5.76,0,5.78,1.61.13,3.36-.25,4.89-.25,8,0,14.69-1.55,18.75-7.91l2-4.76,20.24-10c10.13-3.33,17.34,7.26,9.87,14.64A265.62,265.62,0,0,1,74.71,87.14c-11.17,6.8-22.34,6.56-33.5,0L24.72,78.63ZM80.77,7.48a9.87,9.87,0,1,1-7,2.89,9.84,9.84,0,0,1,7-2.89ZM51.46,15.2a49.77,49.77,0,0,1,5-5.28C63.44,3.57,71.37.18,79.56,0S96.12,2.88,104,9.38a60.15,60.15,0,0,1,6.09,5.83,1.92,1.92,0,0,1,.11,2.45,38.91,38.91,0,0,1-7.45,8,33.75,33.75,0,0,1-21,7.49,36.81,36.81,0,0,1-21.49-7,43.31,43.31,0,0,1-8.89-8.44,1.9,1.9,0,0,1,.1-2.49ZM59,12.75a47.14,47.14,0,0,0-3.69,3.77c13.92,18.48,37.29,20,50.85.13a52.21,52.21,0,0,0-4.62-4.31c-7.16-5.9-14.67-8.66-21.94-8.51S65.33,7,59,12.75ZM78,9.38a3.82,3.82,0,1,1-3.82,3.82A3.81,3.81,0,0,1,78,9.38ZM0,35.93H19.44V82.54H0V35.93Z"/></svg>