<svg xmlns="http://www.w3.org/2000/svg" shape-rendering="geometricPrecision" text-rendering="geometricPrecision" image-rendering="optimizeQuality" fill-rule="evenodd" clip-rule="evenodd" viewBox="0 0 512 384.85"><path d="M79.99 153.37c-6.62 9.97-10.72 23.87-10.73 39.35h.04v.36h-.04c.05 15.57 4.24 29.57 10.96 39.62 13.94 20.81 31.06 18.26 45.34.11 14.42-21.71 14.23-57.7-.24-79.33-13.03-19.47-32.31-19.7-45.33-.11zm217.06 231.48c6.5-2.25 12.17-5.5 16.85-9.93 11.37-10.75 4.41-9.62-.17-22.58-5.51-15.59-7.44-38.26-3.71-53.73 2.25-9.36 4.53-18.99 7.03-27.72 8.01-27.86 5.38-33.23 5.43-59.25.08-38.14 17.22-39.63 21-74.1.35-3.24.59-6.73.93-10.5.38.06.78.07 1.18.05a6 6 0 0 0 5.67-6.33c-.24-4.28-.03-8.3.6-12.11.61-3.67 1.65-7.17 3.08-10.49 1.05-2.43 2.37-4.74 3.91-6.89l.3-.41c6.33 12.05 14.37 21.32 23.29 28.12 3.97 3.03 8.11 5.57 12.34 7.65-8.04 3.54-15.15 9.93-20.79 18.36-17.89 26.74-18.13 69.41-.29 96.25 19.07 28.71 51.65 28.5 70.76-.05 5.52-8.25 9.65-18.54 11.82-30.01.49.53 1 1.01 1.52 1.44 2.12 1.78 4.51 2.82 6.99 3.05 2.05.18 4.07-.17 5.98-1.1l.45-.21c5.91-3.14 11.98-22.79 16.16-36.34 1.18-3.84 2.21-7.15 2.92-9.19l13.61-25.35.38-.87c1.96-5.58 3.53-10.87 4.7-15.89 6-25.55 2.7-45.44-7-60.75-23.09-36.48-75.61-43.59-114.57-39.3-8.67.96-16.31 1.8-23.73.42-8.46-1.57-16.94-5.68-25.68-9.92-18.74-9.08-32.04-13.26-52.72-15.74-17.9-2.16-39.16-1.68-57.08.2-21.97 2.32-34.31 5.89-54.22 15.54-8.74 4.24-17.22 8.34-25.68 9.92-7.42 1.38-15.06.54-23.73-.42-38.97-4.28-91.48 2.82-114.57 39.3-9.7 15.31-13 35.2-7 60.75 1.19 5.06 2.75 10.37 4.7 15.91.12.34.27.66.43.96l13.55 25.23c.72 2.05 1.75 5.36 2.93 9.2 4.18 13.54 10.25 33.19 16.19 36.34a11.4 11.4 0 0 0 6.4 1.31c2.51-.24 4.89-1.27 7-3.03.3-.26.61-.54.91-.83 2.21 11.37 6.34 21.57 11.83 29.78 19.39 28.97 52.58 29.18 71.94.05 18-27.09 17.76-70.06-.29-97.05-5.63-8.41-12.71-14.82-20.73-18.44 3.79-1.9 7.49-4.17 11.05-6.82 9.18-6.82 17.46-16.2 23.93-28.47l.3.41c1.54 2.15 2.86 4.46 3.91 6.89 1.43 3.31 2.47 6.82 3.08 10.52.63 3.77.84 7.8.6 12.08a6 6 0 0 0 5.67 6.33c1.81.1 3.49-.61 4.66-1.83 1.59 4.43 4.15 8.68 4.55 12.28 3.77 34.47 20.91 35.96 20.99 74.1.05 26.02-2.57 31.39 5.43 59.25 2.51 8.73 4.78 18.36 7.04 27.72 3.73 15.47 1.79 38.14-3.72 53.73-4.57 12.96-11.53 11.83-.17 22.58 3.56 3.37 9.23 6.05 15.93 8.14 8.5-22.11 11.52-36.43 10.33-69.99-.54-15.26 21.75-42.51 9.25-107.55-3.01-15.64-8.56-30.76-15.4-43.81-19.64-37.46-20.88-34.89-24.36-79.3-.34-4.19-6.73-10.04-7.53-14.31V50.96c20.88 5.48 44.56 8.47 65.44 8.82 20.88-.35 44.56-3.34 65.44-8.82V68.1c-.8 4.27-7.2 10.12-7.52 14.31-3.49 44.41-4.73 41.84-24.37 79.3-6.84 13.05-12.39 28.17-15.4 43.81-12.49 65.04 9.79 92.29 9.25 107.55-1.17 33.05 2.42 49.65 10.8 71.78zm128.82-239.82a25.22 25.22 0 0 0 3.63 3.79c1.08 1.29 2.12 2.67 3.1 4.15 6.7 10.09 10.84 24.13 10.85 39.74h-.03v.37h.03c-.06 15.71-4.29 29.86-11.08 40.01-13.32 19.9-33.22 20.12-46.52.11-14.58-21.94-14.39-58.25.23-80.12 10.17-15.18 25.93-20.6 39.79-8.05zM72.63 116.05c-2.31-.65-4.01-1.13-5.63-1.04-3.4.19-6.54.74-9.59 1.28-7.49 1.33-14.33 2.53-16.58-7.47-1.17-5.22-.6-10.79 1.79-16.1C53.63 68.22 90.6 64.76 113 68.94c10.33 1.92 20.13 5.56 28.08 10.88-5.58 12.03-13.04 20.91-21.36 27.1-14.87 11.06-30.14 13.95-47.09 9.13zm298.29-36.22c7.96-5.33 17.75-8.97 28.08-10.89 22.4-4.19 59.37-.72 70.38 23.78 2.39 5.31 2.95 10.88 1.79 16.1-2.25 10.01-9.09 8.8-16.58 7.47-3.06-.54-6.19-1.09-9.59-1.28-1.63-.09-3.32.39-5.63 1.04-17.14 4.87-32.64 2.03-47.55-9.36-8.13-6.21-15.41-15.03-20.9-26.86z"/></svg>