<svg id="Layer_1" data-name="Layer 1" xmlns="http://www.w3.org/2000/svg" viewBox="0 0 82.99 122.88"><title>female-body</title><path d="M49.35,1.17A1.07,1.07,0,1,1,51.48,1,7.93,7.93,0,0,0,54,6.3a13.45,13.45,0,0,0,6.34,2.9c.45.12.93.2,1.38.31.87.2,1.73.39,2.57.6h.09a1.09,1.09,0,0,1,.51.15A17.25,17.25,0,0,1,73.58,15a13.45,13.45,0,0,1,2.09,2.89,16,16,0,0,1,1.4,3.62A162.37,162.37,0,0,1,81.3,43.35c.91,7.12,1.39,14.12,1.69,21a1.07,1.07,0,1,1-2.14.09c-.3-6.86-.78-13.79-1.68-20.84A160.87,160.87,0,0,0,75,22.07v0a13.4,13.4,0,0,0-1.2-3.14A11.55,11.55,0,0,0,72,16.48a14.47,14.47,0,0,0-6.67-3.85l-.77,15.5a19.22,19.22,0,0,1,2.23,17.74v0L69.56,64a1.08,1.08,0,1,1-2.13.32l-1.64-10.8c-.12,1.19-.26,2.39-.4,3.59-.33,2.64-.68,4.54-1,6-.8,4.27-1,5.25,2.16,13l.8,1.95c3.84,9.25,8.3,20,3.36,43.86a1.08,1.08,0,1,1-2.11-.43c4-19.18,1.71-29.64-1.3-37.76-8.8,3.71-15.81,9.3-22.19,16.36a1.06,1.06,0,0,1,0,.59A67.32,67.32,0,0,0,44,110.19c-.22,3.63-.26,7.59-.1,11.57a1.07,1.07,0,0,1-1,1.12,1.09,1.09,0,0,1-1.12-1,117.76,117.76,0,0,1,.11-11.79c.17-2.78.44-5.38.81-7.64H39.91a70.2,70.2,0,0,1,.91,7.57,109.52,109.52,0,0,1,.13,11.8,1.09,1.09,0,0,1-1.12,1,1.07,1.07,0,0,1-1-1.11,105.36,105.36,0,0,0-.13-11.57,60,60,0,0,0-1.31-9.4,1.1,1.1,0,0,1,0-.36A58.05,58.05,0,0,0,15.59,84.07c-2.95,8.08-5.12,18.51-1.19,37.46a1.08,1.08,0,1,1-2.11.43c-4.94-23.85-.48-34.61,3.36-43.86l.8-1.95c3.14-7.75,3-8.73,2.16-13-.28-1.51-.63-3.41-1-6.06-.14-1.15-.27-2.3-.38-3.44L15.61,64.32A1.08,1.08,0,0,1,13.48,64l2.93-18.77A19.38,19.38,0,0,1,19,28.46l-1.48-15.8A14.44,14.44,0,0,0,11,16.48l-.05.05a11.35,11.35,0,0,0-1.7,2.38A13.32,13.32,0,0,0,8,22.06v.05A158.47,158.47,0,0,0,3.82,43.62c-.9,7.05-1.37,14-1.67,20.84A1.08,1.08,0,1,1,0,64.37c.3-6.9.78-13.9,1.69-21a163.09,163.09,0,0,1,4.23-21.8v0a15.94,15.94,0,0,1,1.4-3.64,13.72,13.72,0,0,1,2-2.83L9.42,15c3.4-3.59,7.48-4.51,11.84-5.49.46-.11.93-.19,1.39-.31A13.5,13.5,0,0,0,29,6.3,7.92,7.92,0,0,0,31.51,1a1.07,1.07,0,1,1,2.14.19,10,10,0,0,1-3.22,6.72,14.9,14.9,0,0,1-6.63,3.25l1,16.71A27.47,27.47,0,0,1,34,34.75a49.73,49.73,0,0,1,7,10.53h1.47a49.32,49.32,0,0,1,7-10.53,27.47,27.47,0,0,1,9.17-6.9l1-16.62a15.29,15.29,0,0,1-7-3.34,10,10,0,0,1-3.21-6.72ZM63.89,50.52c-.26.28-.53.54-.81.79a11.15,11.15,0,0,1-5.8,2.74c-3.46.52-7.48-.57-11.69-4H37.76c-4.21,3.41-8.22,4.52-11.65,4a10.86,10.86,0,0,1-5.73-2.68,13.75,13.75,0,0,1-1.25-1.28c0,.69.1,1.43.17,2.2.12,1.32.29,2.85.49,4.48.32,2.61.66,4.45.94,5.92.89,4.77,1.09,5.87-2.29,14.2l-.81,2-.07.18a90.78,90.78,0,0,0,27.82,3.24,90.73,90.73,0,0,0,20.09-3.26l-.06-.16-.81-2c-3.38-8.33-3.18-9.43-2.29-14.2.28-1.47.62-3.31.94-5.92.2-1.64.37-3.17.49-4.48.06-.64.11-1.25.15-1.84Zm1.64-7.77A17.46,17.46,0,0,0,62.6,29.06a1.1,1.1,0,0,1-.19-.67l.81-16.33-1.56-.36-1,16.87a1.07,1.07,0,0,1-.66,1,25.16,25.16,0,0,0-9,6.61,47.55,47.55,0,0,0-6.56,9.9c4.64,4.8,9,6.37,12.56,5.84a9,9,0,0,0,4.69-2.22,11,11,0,0,0,1.49-1.62c.2-.27.39-.55.57-.83a22.7,22.7,0,0,0,1.82-4.5Zm-46.61,3a11.69,11.69,0,0,0,2.88,4.06A8.85,8.85,0,0,0,26.41,52c3.53.5,7.88-1.09,12.53-5.91a46.77,46.77,0,0,0-6.56-9.9,25.08,25.08,0,0,0-9-6.61,1.08,1.08,0,0,1-.66-1l-1-17c-.68.16-1.35.3-2,.47l1.55,16.57a1.11,1.11,0,0,1-.19.71,17.49,17.49,0,0,0-2.95,13.81,24.35,24.35,0,0,0,.85,2.59Zm21.64,25a1.08,1.08,0,0,1-.18-2.15l.22,0a2.26,2.26,0,0,0,.83-.35A1.08,1.08,0,1,1,42.71,70a5.8,5.8,0,0,1-.59.36l-.06,0a5.87,5.87,0,0,1-.63.24l-.47.11-.4.05Zm-5.09-38a1.07,1.07,0,1,1,1.33-1.68,17.63,17.63,0,0,1,2.18,2,16.13,16.13,0,0,1,1.73,2.26c.27.42.53.86.78,1.34A1.08,1.08,0,0,1,41,38.15a1.07,1.07,0,0,1-1.44-.46q-.3-.57-.69-1.17a14.81,14.81,0,0,0-1.51-2,15.68,15.68,0,0,0-1.92-1.79Zm10.73-.68a1.07,1.07,0,0,1,1.46,1.57,13.56,13.56,0,0,0-1.22,1.29,12.46,12.46,0,0,0-1,1.38,1.08,1.08,0,0,1-1.8-1.19,19.78,19.78,0,0,1,1.19-1.58,19.16,19.16,0,0,1,1.41-1.47Z"/></svg>