<svg id="Layer_1" data-name="Layer 1" xmlns="http://www.w3.org/2000/svg" viewBox="0 0 108.37 122.88"><title>hair-care</title><path d="M54,105.07a12.38,12.38,0,0,1-2.46-.29,9.34,9.34,0,0,1-6.65-5.65,21.11,21.11,0,0,1-1.44-8.78,41.48,41.48,0,0,1,1.06-8.23,59.52,59.52,0,0,1,3.76-11A74,74,0,0,1,54,60.83l.07-.11A150.22,150.22,0,0,1,77.12,36.93a175.91,175.91,0,0,1,29-19.51,1.54,1.54,0,0,1,1.5,2.69,127.54,127.54,0,0,0-16.9,12.8A109.13,109.13,0,0,0,76.94,47.72c-5.29,6.92-8.23,12-9.85,16.73s-1.94,9.33-2,15.32c0,1.1,0,2.41.07,3.82.05,1.81.12,3.79.07,5.8C65,97.29,63.3,105.28,54,105.07ZM47.68,43.58l-.17.08a6,6,0,0,0-7.65-3.17l-.07-.18A6,6,0,0,0,43,32.67l.17-.08a6,6,0,0,0,7.65,3.17l.07.18a6,6,0,0,0-3.17,7.64Zm38.64-26.8-.27.11a8.53,8.53,0,0,0-4.87-4.75,8.52,8.52,0,0,0-6.8-.08l-.11-.27A8.58,8.58,0,0,0,79,6.91,8.56,8.56,0,0,0,79.1.11L79.37,0a8.61,8.61,0,0,0,4.87,4.76,8.6,8.6,0,0,0,6.8.08l.12.27A8.56,8.56,0,0,0,86.4,10a8.58,8.58,0,0,0-.08,6.81ZM61.49,25l-.33.14a11.3,11.3,0,0,0-14.49-6l-.14-.33a11.29,11.29,0,0,0,6-14.49l.34-.14a11.3,11.3,0,0,0,14.49,6l.14.33a11.3,11.3,0,0,0-6,14.49Zm-53,47.89a2,2,0,1,1-2,2,2.05,2.05,0,0,1,2.05-2ZM99.76,73a2,2,0,1,1-2.05,2,2.05,2.05,0,0,1,2.05-2Zm-11.23.82a2,2,0,1,1-2,2,2.05,2.05,0,0,1,2-2Zm4.24,5.62a2,2,0,1,1-2,2,2.05,2.05,0,0,1,2-2Zm-10.13-.68a2,2,0,1,1-2,2,2,2,0,0,1,2-2ZM77.3,73.28a2,2,0,1,1-2,2,2.05,2.05,0,0,1,2-2ZM31,72.58a2.06,2.06,0,1,1-2.05,2,2.05,2.05,0,0,1,2.05-2Zm-11.24.82a2.06,2.06,0,1,1-2,2.06,2.06,2.06,0,0,1,2-2.06ZM24,79a2.06,2.06,0,1,1-2,2.06A2.05,2.05,0,0,1,24,79Zm-10.14-.68a2.06,2.06,0,1,1-2.05,2,2.05,2.05,0,0,1,2.05-2Zm94.54-8.06V117.4a5.5,5.5,0,0,1-5.49,5.48H5.48A5.5,5.5,0,0,1,0,117.4V70.27a5.5,5.5,0,0,1,5.48-5.48,1.48,1.48,0,0,1,.61.12,46,46,0,0,0,17.8,3.16,66.77,66.77,0,0,0,18.6-3.22,1.55,1.55,0,0,1,1.89,2h0a89.81,89.81,0,0,0-5,17.63c-.79,5.15-.71,9.62.4,13.31a15.76,15.76,0,0,0,9,10.31,14.56,14.56,0,0,0,7.28,1A14.05,14.05,0,0,0,63,106.3c3.56-2.73,6.18-7.45,6.52-14.23.1-1.89,0-3.87-.09-6.06-.07-1.64-.15-3.39-.15-5.4,0-.67,0-1.41-.06-2.16s0-1.55,0-2.41c0-6.7,1.79-9.91,4.83-11.13,2.88-1.16,6.6-.29,10.77,1.06,1.75.57,3.07,1.11,4.18,1.56,3,1.23,3.95,1.62,9.35-.73l.51-.22A14.19,14.19,0,0,1,104.07,65c2.41,0,4.3,1.23,4.3,5.23Zm-3.08,47.13V70.27c0-1.64-.54-2.14-1.22-2.14a11.77,11.77,0,0,0-4,1.28l-.53.24c-6.58,2.85-7.82,2.35-11.73.75-1-.42-2.27-.93-4-1.48-3.58-1.16-6.69-1.93-8.69-1.13-1.84.73-2.94,3.08-2.91,8.26,0,.75,0,1.54,0,2.32s0,1.47,0,2.24c0,1.88.09,3.64.16,5.28.1,2.28.19,4.32.09,6.35-.4,7.79-3.49,13.27-7.73,16.52a17.18,17.18,0,0,1-8.37,3.41A17.8,17.8,0,0,1,47.64,111,18.73,18.73,0,0,1,36.89,98.7c-1.27-4.16-1.38-9.09-.53-14.66a87.39,87.39,0,0,1,4.09-15.4,66.7,66.7,0,0,1-16.52,2.5,49,49,0,0,1-18.7-3.26,2.39,2.39,0,0,0-1.44.69,2.36,2.36,0,0,0-.71,1.69v47.13a2.41,2.41,0,0,0,2.39,2.39h97.41a2.39,2.39,0,0,0,1.69-.7,2.29,2.29,0,0,0,.72-1.68Z"/></svg>