<svg xmlns="http://www.w3.org/2000/svg" shape-rendering="geometricPrecision" text-rendering="geometricPrecision" image-rendering="optimizeQuality" fill-rule="evenodd" clip-rule="evenodd" viewBox="0 0 476 511.89"><path fill-rule="nonzero" d="M130.94 50.07c.34 6.68 1.39 12.72 3.01 18.01 1.67 5.44 3.93 10.07 6.6 13.79l4.71 6.56c-4.5 1.45-9 2.86-13.47 4.42l-10.53 4.28 1.05-9.79c.19-1.81.25-3.76.16-5.76-.27-6.22-1.9-13.13-5.22-18.62-2.96-4.89-7.35-8.58-13.37-9.23-.99-.11-2.01-.14-3.05-.1-5.01.22-8.98 1.59-11.94 3.74-3.2 2.31-5.35 5.62-6.53 9.4-1.52 4.9-1.48 10.62-.02 16.18 1.44 5.54 4.28 10.89 8.34 15.14.84.88 1.71 1.69 2.61 2.41.84.66 1.72 1.26 2.64 1.74l8.45 4.45-7.78 5.55-4.06 2.99-13.81 11.01.25-13.14c-.02-4-2.06-8.48-5.19-12.06-3.05-3.48-7-5.98-10.91-6.13l-.4-.01c-3.84.02-7.01 1.52-9.26 3.77-2.57 2.55-4.01 6.08-4.01 9.53 0 3.1 1.66 6.86 4.14 10.53 3.14 4.65 7.48 8.94 11.56 11.7l5.73 3.87a1928.69 1928.69 0 0 0-16.8 18.15l-2.52-10.91c-.68-2.95-3.42-6.63-6.71-9.66-3.13-2.88-6.42-4.98-8.4-4.98-1.89 0-4.07 1.29-5.83 3.34-1.78 2.09-3 4.91-3 8l-.02.22c.08 3.13 1.98 6.66 4.75 9.49 2.68 2.75 6.06 4.66 9.2 4.66l12.52-.13c-6.2 7.95-12.33 15.87-18.44 23.88l-1.59 5.21c-2.17 7.14-3.66 14.13-4.55 20.95-.87 6.8-1.13 13.47-.83 20.01.86 18.34 7.91 36.99 15.26 56.42 6.36 16.84 12.95 34.27 16.27 53.13 1.6 9.09 2.96 18.74 4.08 28.89 1.12 10.11 2 20.78 2.64 31.97.33 5.7.49 11.73.63 17.72.75 29.69 1.48 58.46 28.35 78.05 14.75 10.77 33.12 13.62 49.75 9.8 6.85-1.57 13.39-4.26 19.22-7.97 5.83-3.71 11.01-8.45 15.13-14.1 9.22-12.63 13.37-30.07 8.47-51.44l-.03-.05c-3.54-16.11-9.12-31.82-14.7-47.52-11.51-32.43-23.01-64.87-17.89-101.85.48-7.88 1.76-16.09 3.61-24.35 2.05-9.16 4.76-18.27 7.88-27.04 3.41-9.56 7.33-18.85 11.4-27.44 4.51-9.5 9.28-18.21 13.78-25.52 2.84-4.6 5.31-9.72 7.31-15.1 4.61-12.38 6.7-26.07 5.09-38.15-1.51-11.37-6.33-21.24-15.5-26.89-1.73-1.07-3.64-2-5.72-2.78l-7.63-2.84 5.75-7.17c6.05-7.79 8.55-17.97 7.92-28.09-.67-10.5-4.71-20.86-11.69-28.37-5.09-5.47-10.19-8.5-15.02-9.59-4.84-1.09-9.59-.24-13.82 1.99-4.51 2.37-8.5 6.31-11.59 11.2-4.39 6.94-6.89 15.71-6.43 24.63zM341.41 269.8c-.43-3.22 1.83-6.19 5.05-6.62 3.22-.43 6.19 1.83 6.62 5.05 1.96 14.41 1.86 28.58 0 42.51-1.86 13.92-5.48 27.57-10.53 41-1.14 3.04-4.54 4.57-7.58 3.43-3.04-1.14-4.58-4.54-3.44-7.58 4.75-12.64 8.15-25.43 9.88-38.37 1.73-12.92 1.82-26.06 0-39.42zm.64-201.72c1.62-5.29 2.67-11.33 3.01-18.01.46-8.92-2.04-17.69-6.43-24.63-3.08-4.89-7.08-8.83-11.59-11.2-4.23-2.23-8.98-3.08-13.82-1.99-4.83 1.09-9.93 4.12-15.02 9.59-6.98 7.51-11.02 17.87-11.69 28.37-.63 10.12 1.87 20.3 7.92 28.09l5.76 7.17-7.64 2.84c-2.08.78-3.99 1.71-5.72 2.78-9.17 5.65-13.99 15.52-15.5 26.89-1.61 12.08.48 25.77 5.09 38.15 2 5.38 4.47 10.5 7.31 15.1 4.5 7.31 9.27 16.02 13.78 25.52 4.07 8.59 7.99 17.88 11.4 27.44 3.12 8.77 5.83 17.88 7.88 27.04 1.85 8.26 3.13 16.47 3.61 24.35 5.13 36.98-6.38 69.42-17.89 101.85-5.57 15.7-11.16 31.41-14.7 47.52l-.03.05c-4.9 21.37-.75 38.81 8.47 51.44 4.12 5.65 9.3 10.39 15.13 14.1 5.83 3.71 12.37 6.4 19.22 7.97 16.63 3.82 35 .97 49.75-9.8 26.87-19.59 27.6-48.36 28.35-78.05.14-5.99.3-12.02.63-17.72.64-11.19 1.52-21.86 2.64-31.97 1.12-10.15 2.48-19.8 4.08-28.89 3.32-18.86 9.91-36.29 16.28-53.13 7.34-19.43 14.39-38.08 15.25-56.42.3-6.54.04-13.21-.83-20.01-.88-6.82-2.39-13.81-4.55-20.95l-1.59-5.23a3227.52 3227.52 0 0 0-18.43-23.86l12.51.16c3.14-.03 6.52-1.94 9.2-4.69 2.77-2.83 4.67-6.36 4.75-9.49v-.22c-.02-3.09-1.24-5.91-3.02-8-1.76-2.05-3.94-3.34-5.83-3.34-1.98 0-5.27 2.1-8.4 4.98-3.29 3.03-6.03 6.71-6.71 9.66l-2.52 10.91c-5.57-6.08-11.14-12.14-16.77-18.16l5.7-3.86c4.09-2.76 8.42-7.05 11.56-11.7 2.48-3.67 4.14-7.43 4.14-10.53 0-3.45-1.44-6.98-4-9.55-2.26-2.23-5.43-3.73-9.27-3.73l-.4-.02c-3.91.16-7.86 2.66-10.91 6.14-3.13 3.58-5.17 8.06-5.17 12.06l.23 13.14-13.81-11.01-11.83-8.54 8.44-4.45c.96-.51 1.84-1.1 2.65-1.73.88-.72 1.76-1.54 2.6-2.42 4.06-4.25 6.9-9.6 8.34-15.14 1.46-5.56 1.5-11.28-.02-16.18-1.18-3.78-3.33-7.09-6.52-9.4-2.97-2.15-6.94-3.52-11.95-3.74-1.04-.04-2.06-.01-3.05.1-6.02.65-10.41 4.34-13.37 9.23-3.32 5.49-4.95 12.4-5.22 18.62-.09 2-.03 3.95.16 5.76l1.06 9.79-10.57-4.3c-4.46-1.53-8.94-2.95-13.43-4.4l4.7-6.56c2.67-3.72 4.93-8.35 6.6-13.79zm14.83-20.56c3.85-2.92 8.49-4.91 14-5.5 1.5-.16 3.11-.22 4.79-.14 7.51.32 13.61 2.51 18.36 5.95 5.37 3.88 8.95 9.3 10.86 15.44 2.06 6.64 2.16 14.16.46 21.43 2.34-.9 4.8-1.45 7.31-1.55l.86-.04c7.25 0 13.27 2.88 17.6 7.21 4.78 4.81 7.48 11.41 7.48 17.88 0 2.33-.43 4.73-1.19 7.12.82-.15 1.62-.23 2.38-.23 5.33 0 10.83 2.89 14.77 7.5 3.49 4.08 5.86 9.6 5.86 15.65l-.03.5c-.07 2.85-.8 5.75-2.01 8.52 2.44.08 4.68.6 6.67 1.47 3.36 1.44 5.98 3.84 7.83 6.73 1.77 2.76 2.8 5.99 3.06 9.3.42 5.48-1.3 11.29-5.35 15.59-2.67 2.83-6.33 4.97-10.97 5.86-1.22.24-2.51.38-3.87.43 1.17 4.87 2.05 9.67 2.66 14.41.96 7.48 1.25 14.81.92 21.98-.94 20.29-8.31 39.77-15.98 60.07-6.17 16.3-12.55 33.18-15.69 51.01-1.57 8.95-2.9 18.35-3.98 28.15-1.11 10.03-1.98 20.49-2.6 31.32-.34 5.99-.49 11.69-.63 17.35-.82 32.64-1.62 64.26-33.18 87.28-17.64 12.88-39.53 16.31-59.3 11.78-8.11-1.86-15.9-5.08-22.91-9.54-7.02-4.46-13.29-10.21-18.31-17.09-11.1-15.22-16.18-35.93-10.45-60.94 3.65-16.67 9.38-32.79 15.1-48.91 11.05-31.14 22.11-62.3 17.31-96.53l-.04-.46c-.45-7.39-1.63-15.06-3.35-22.76-1.9-8.48-4.5-17.14-7.52-25.65-3.27-9.19-7.03-18.1-10.94-26.33-4.36-9.19-8.9-17.5-13.13-24.37-3.26-5.28-6.07-11.09-8.34-17.17-5.24-14.09-7.59-29.78-5.73-43.78 1.95-14.71 8.48-27.66 20.99-35.38l1.07-.63c-5.42-9.27-7.63-20.2-6.96-30.98.82-13.11 5.96-26.11 14.83-35.65C296.38 6.5 303.57 2.37 310.64.78c7.77-1.76 15.26-.46 21.89 3.04 6.35 3.35 11.89 8.74 16.06 15.34 5.09 8.06 8.2 18.05 8.29 28.36zm88.65 119.88-1.65 5.43 5.35 1.32c3.29.81 6.01.91 8.18.49 2.02-.39 3.56-1.24 4.61-2.36 1.65-1.76 2.35-4.24 2.16-6.64-.1-1.39-.53-2.74-1.24-3.86a5.636 5.636 0 0 0-2.54-2.23c-1.84-.79-4.5-.74-7.99.68-.99.4-2.6 1.74-4.11 3.35-1.38 1.46-2.51 2.93-2.77 3.82zM122.92 268.23c.43-3.22 3.4-5.48 6.62-5.05 3.22.43 5.48 3.4 5.05 6.62-1.82 13.36-1.73 26.5 0 39.42 1.73 12.94 5.13 25.73 9.88 38.37 1.14 3.04-.4 6.44-3.44 7.58-3.04 1.14-6.44-.39-7.58-3.43-5.05-13.43-8.66-27.08-10.53-41-1.86-13.93-1.96-28.1 0-42.51zM105.13 42.02c5.5.59 10.14 2.58 13.99 5.5.09-10.31 3.2-20.3 8.29-28.36 4.17-6.6 9.71-11.99 16.06-15.34 6.63-3.5 14.12-4.8 21.89-3.04 7.07 1.59 14.26 5.72 21.05 13.04 8.87 9.54 14.01 22.54 14.83 35.65.67 10.78-1.54 21.71-6.96 30.98l1.07.63c12.51 7.72 19.04 20.67 20.99 35.38 1.86 14-.49 29.69-5.73 43.78-2.27 6.08-5.08 11.89-8.34 17.17-4.23 6.87-8.77 15.18-13.13 24.37-3.91 8.23-7.67 17.14-10.94 26.33-3.02 8.51-5.62 17.17-7.52 25.65-1.72 7.7-2.9 15.37-3.35 22.76l-.04.46c-4.8 34.23 6.26 65.39 17.31 96.53 5.72 16.12 11.45 32.24 15.12 48.9 5.71 25.02.63 45.73-10.47 60.95-5.02 6.88-11.29 12.63-18.31 17.09-7.01 4.46-14.8 7.68-22.9 9.54-19.78 4.53-41.67 1.1-59.31-11.78-31.56-23.02-32.36-54.64-33.18-87.28-.14-5.66-.29-11.36-.63-17.35-.62-10.83-1.49-21.29-2.6-31.32-1.08-9.8-2.41-19.2-3.98-28.15-3.14-17.83-9.52-34.71-15.69-51.01-7.67-20.3-15.04-39.78-15.98-60.07-.33-7.17-.04-14.5.92-21.98.61-4.74 1.49-9.54 2.66-14.41-1.36-.05-2.65-.19-3.87-.43-4.64-.89-8.3-3.03-10.97-5.86-4.05-4.3-5.77-10.11-5.35-15.59.26-3.31 1.29-6.54 3.04-9.3 1.87-2.89 4.49-5.29 7.85-6.73 1.99-.87 4.23-1.39 6.67-1.47-1.21-2.77-1.94-5.67-2.01-8.52l-.03-.5c0-6.05 2.37-11.57 5.86-15.65 3.94-4.61 9.44-7.5 14.77-7.5.76 0 1.56.08 2.38.23-.76-2.39-1.19-4.79-1.19-7.12 0-6.47 2.7-13.07 7.48-17.85 4.33-4.36 10.35-7.24 17.6-7.24.24.06.61.04.86.04 2.51.1 4.97.65 7.31 1.55-1.7-7.27-1.6-14.79.46-21.43 1.91-6.14 5.49-11.56 10.86-15.44 4.75-3.44 10.85-5.63 18.36-5.95 1.69-.08 3.29-.02 4.8.14zM32.12 172.83l-1.65-5.43c-.26-.89-1.39-2.36-2.77-3.82-1.51-1.61-3.11-2.95-4.11-3.35-3.49-1.42-6.15-1.47-7.99-.68-1.08.47-1.95 1.27-2.56 2.22a8.683 8.683 0 0 0-1.22 3.87c-.19 2.4.51 4.88 2.16 6.64 1.05 1.12 2.59 1.97 4.61 2.36 2.17.42 4.89.32 8.18-.49l5.35-1.32z"/></svg>