<svg xmlns="http://www.w3.org/2000/svg" shape-rendering="geometricPrecision" text-rendering="geometricPrecision" image-rendering="optimizeQuality" fill-rule="evenodd" clip-rule="evenodd" viewBox="0 0 512 477.16"><path d="M314.07.04c15.37-.96 28.91 15.56 30.25 36.89 1.35 21.34-10.01 39.41-25.37 40.37-15.36.96-28.9-15.56-30.25-36.9C287.36 19.07 298.71 1 314.07.04zM205.03 178.75c-8.71 13.78-23.52 25.54-36.84 37.81-43.7 40.27-37.47 71.04-3.45 115.94 16.96 22.37 35.59 46.32 35.66 78.2.18 74.9-124.66 99.7-138.42 4.19-5.18-35.98-4.29-83.56-34.42-130.17-32.33-50.02-34.53-121.15 12.7-162.21 48.92-42.53 134.24-53.44 167.76-17.99 14.37 15.19 18.35 40.49-2.99 74.23zM197.93.04c-15.37-.96-28.91 15.56-30.25 36.89-1.35 21.34 10.01 39.41 25.37 40.37 15.36.96 28.9-15.56 30.25-36.9C224.64 19.07 213.29 1 197.93.04zm-64.67 11.68c-10.81.48-19.16 13.04-18.65 28.06.52 15.01 9.7 26.8 20.52 26.31 10.82-.48 19.17-13.04 18.65-28.05-.51-15.02-9.7-26.8-20.52-26.32zm-49.03 11.4c-10.45.86-18.06 13.32-17.01 27.81 1.05 14.5 10.36 25.56 20.8 24.7 10.45-.86 18.06-13.31 17.01-27.81-1.05-14.5-10.36-25.56-20.8-24.7zM37.57 50.83c-8.12 3.52-10.84 15.54-6.08 26.85 4.75 11.31 15.19 17.64 23.31 14.13s10.84-15.53 6.08-26.85c-4.75-11.31-15.19-17.63-23.31-14.13zM5.18 83.08c-6.28 3.99-6.94 14.33-1.48 23.09 5.45 8.76 14.97 12.63 21.24 8.63 6.27-4 6.93-14.34 1.47-23.1-5.45-8.76-14.96-12.62-21.23-8.62zm373.56-71.36c10.81.48 19.16 13.04 18.65 28.06-.52 15.01-9.7 26.8-20.52 26.31-10.82-.48-19.17-13.04-18.65-28.05.51-15.02 9.7-26.8 20.52-26.32zm49.03 11.4c10.45.86 18.06 13.32 17.01 27.81-1.05 14.5-10.36 25.56-20.8 24.7-10.45-.86-18.06-13.31-17.01-27.81 1.05-14.5 10.36-25.56 20.8-24.7zm46.66 27.71c8.12 3.52 10.84 15.54 6.08 26.85-4.75 11.31-15.19 17.64-23.31 14.13s-10.84-15.53-6.08-26.85c4.75-11.31 15.19-17.63 23.31-14.13zm32.39 32.25c6.28 3.99 6.94 14.33 1.48 23.09-5.45 8.76-14.97 12.63-21.24 8.63-6.27-4-6.93-14.34-1.47-23.1 5.45-8.76 14.96-12.62 21.23-8.62zm-199.85 95.67c8.71 13.78 23.52 25.54 36.84 37.81 43.7 40.27 37.47 71.04 3.45 115.94-16.96 22.37-35.59 46.32-35.66 78.2-.18 74.9 124.66 99.7 138.42 4.19 5.18-35.98 4.29-83.56 34.42-130.17 32.33-50.02 34.53-121.15-12.7-162.21-48.92-42.53-134.24-53.44-167.76-17.99-14.37 15.19-18.35 40.49 2.99 74.23z"/></svg>