<svg id="Layer_1" data-name="Layer 1" xmlns="http://www.w3.org/2000/svg" viewBox="0 0 93.35 122.88"><title>male-body</title><path d="M55,1.28a1.2,1.2,0,1,1,2.4-.15A7.64,7.64,0,0,0,58.62,5,7.31,7.31,0,0,0,61.8,7.55a46.46,46.46,0,0,1,6.87,3.07,94.61,94.61,0,0,1,8.4,5.14A20.82,20.82,0,0,1,83.93,19a16.82,16.82,0,0,1,4.82,5.51l0,.05A20.78,20.78,0,0,1,90.54,30a41.77,41.77,0,0,1,.68,6.95,57.12,57.12,0,0,1,2,11.75,106.8,106.8,0,0,1,0,12.77,1.2,1.2,0,1,1-2.39-.12,104.16,104.16,0,0,0,0-12.49,53.41,53.41,0,0,0-1.88-11.35,1.36,1.36,0,0,1-.06-.36,39.14,39.14,0,0,0-.65-6.7,18.06,18.06,0,0,0-1.54-4.77,14.29,14.29,0,0,0-4.12-4.72A18.73,18.73,0,0,0,76.26,18a1.69,1.69,0,0,1-.36-.17,95.63,95.63,0,0,0-8.36-5.13A44,44,0,0,0,61,9.82l-.15-.06A9.79,9.79,0,0,1,56.61,6.3a10.17,10.17,0,0,1-1.59-5ZM78.89,121.67a1.2,1.2,0,1,1-2.39,0,145.81,145.81,0,0,0-3.33-31c-8.92,4-16.1,9.92-22.66,17.28-.07,1.54-.12,3.15-.14,4.78,0,2.8,0,5.71,0,8.55a1.19,1.19,0,0,1-1.19,1.2A1.21,1.21,0,0,1,48,121.3c0-2.86,0-5.79,0-8.6,0-1,0-1.88.06-2.8H45.51c0,.87.07,1.77.1,2.67.08,2.88.13,5.89.16,8.65a1.2,1.2,0,0,1-2.4,0c0-2.72-.07-5.7-.16-8.6-.05-1.52-.11-3-.18-4.44-6.67-7.87-14-13.67-22.88-17.52a145.88,145.88,0,0,0-3.32,30.93,1.2,1.2,0,0,1-2.4,0A150.43,150.43,0,0,1,19.9,81.51a116.37,116.37,0,0,0,2.6-11.87c.79-5.42.69-5.8-.12-8.75-.26-1-.6-2.2-.95-3.68A44,44,0,0,0,20,52.44c-.2,1.43-.43,2.73-.69,3.91a18.39,18.39,0,0,1-2.34,6A1.2,1.2,0,1,1,15,61a16,16,0,0,0,2-5.21,59.73,59.73,0,0,0,1.15-8.35A54.8,54.8,0,0,1,14.78,35a1.2,1.2,0,1,1,2.38-.34A57.2,57.2,0,0,0,21,48.33a59.8,59.8,0,0,1,2.76,8.33c.4,1.67.69,2.75.93,3.6.92,3.39,1,3.82.18,9.72A114.92,114.92,0,0,1,22.23,82.1l-.13.49a96.14,96.14,0,0,0,28.63,3.3,95.61,95.61,0,0,0,20.51-3.2l-.15-.59A116,116,0,0,1,68.44,70c-.86-5.9-.74-6.33.19-9.72.23-.86.53-1.93.92-3.6a59.8,59.8,0,0,1,2.76-8.33,57.63,57.63,0,0,0,3.86-13.64,1.2,1.2,0,1,1,2.37.34,55.26,55.26,0,0,1-3.3,12.38,60.52,60.52,0,0,0,1.14,8.4,16.05,16.05,0,0,0,2,5.21,1.2,1.2,0,0,1-2,1.32,18,18,0,0,1-2.34-6c-.27-1.19-.5-2.51-.7-4a44.28,44.28,0,0,0-1.45,4.82c-.35,1.48-.69,2.71-1,3.68-.81,3-.91,3.33-.12,8.75a115.62,115.62,0,0,0,2.6,11.86,150.18,150.18,0,0,1,5.47,40.17ZM44.94,76a1.2,1.2,0,0,1,.93-2.22,2.39,2.39,0,0,0,.82.2,2.33,2.33,0,0,0,.85-.14,1.2,1.2,0,1,1,.81,2.25,4.58,4.58,0,0,1-1.73.28A4.66,4.66,0,0,1,44.94,76ZM42.7,57.87a1.2,1.2,0,0,1,2.06,1.23,14.65,14.65,0,0,1-3.29,3.95A9.34,9.34,0,0,1,37.63,65a1.2,1.2,0,0,1-.54-2.34A7.07,7.07,0,0,0,40,61.19a12.47,12.47,0,0,0,2.74-3.32ZM42.91,45a1.2,1.2,0,0,1,1.32,2A22.43,22.43,0,0,1,34.15,50.8a20.42,20.42,0,0,1-10.64-1.91,1.21,1.21,0,0,1-.6-1.59,1.2,1.2,0,0,1,1.59-.59,18,18,0,0,0,9.41,1.7,20.12,20.12,0,0,0,9-3.4ZM29.14,43.88a1.2,1.2,0,0,1,1.66.34,1.19,1.19,0,0,1-.34,1.66,3.52,3.52,0,0,1-2,.66,3.12,3.12,0,0,1-2-.71A1.2,1.2,0,1,1,28,43.93a.83.83,0,0,0,.51.22,1.42,1.42,0,0,0,.67-.27ZM43.49,21.16a1.2,1.2,0,0,1-1,2.2,48.45,48.45,0,0,0-8.11-2.75l-.11,0a42.71,42.71,0,0,0-8.2-1.13,1.2,1.2,0,1,1,.09-2.39,45.24,45.24,0,0,1,8.66,1.19l.12,0a50.94,50.94,0,0,1,8.52,2.89Zm-7.56-20a1.2,1.2,0,1,1,2.39.15,10,10,0,0,1-1.59,5A9.7,9.7,0,0,1,32.5,9.76l-.15.06a44,44,0,0,0-6.54,2.91,95.63,95.63,0,0,0-8.36,5.13,1.28,1.28,0,0,1-.36.16,18.94,18.94,0,0,0-6.26,2.9,14.29,14.29,0,0,0-4.12,4.72,17.7,17.7,0,0,0-1.54,4.77,39.14,39.14,0,0,0-.65,6.7,1.35,1.35,0,0,1-.07.36A54,54,0,0,0,2.58,48.82a104.16,104.16,0,0,0,0,12.49,1.2,1.2,0,1,1-2.39.12,106.8,106.8,0,0,1,0-12.77A56.44,56.44,0,0,1,2.12,36.91,42.94,42.94,0,0,1,2.81,30a20.3,20.3,0,0,1,1.76-5.42l0-.05A16.67,16.67,0,0,1,9.41,19a21,21,0,0,1,6.87-3.22,94.61,94.61,0,0,1,8.4-5.14,46.46,46.46,0,0,1,6.87-3.07A7.31,7.31,0,0,0,34.73,5a7.74,7.74,0,0,0,1.2-3.84Zm12.66,58a1.2,1.2,0,0,1,2.06-1.23,12.28,12.28,0,0,0,2.74,3.32,7,7,0,0,0,2.87,1.44A1.2,1.2,0,1,1,55.72,65a9.43,9.43,0,0,1-3.85-1.92,14.63,14.63,0,0,1-3.28-3.95ZM49.12,47a1.2,1.2,0,0,1,1.32-2,20.08,20.08,0,0,0,9,3.4,18,18,0,0,0,9.41-1.7,1.2,1.2,0,0,1,1,2.18A20.43,20.43,0,0,1,59.2,50.8,22.43,22.43,0,0,1,49.12,47Zm13.76-1.14a1.2,1.2,0,0,1,1.33-2,1.42,1.42,0,0,0,.67.27.85.85,0,0,0,.51-.22,1.2,1.2,0,0,1,1.47,1.9,3.12,3.12,0,0,1-2,.71,3.53,3.53,0,0,1-2-.66Zm-12-22.56a1.2,1.2,0,1,1-1.12-2.12,34.52,34.52,0,0,1,8-3,39.63,39.63,0,0,1,9.41-1.1,1.2,1.2,0,0,1,0,2.39,37.75,37.75,0,0,0-8.85,1,32.2,32.2,0,0,0-7.45,2.83Z"/></svg>