<svg id="Layer_1" data-name="Layer 1" xmlns="http://www.w3.org/2000/svg" viewBox="0 0 93.35 122.88"><title>male-body-back</title><path d="M55,1.28a1.2,1.2,0,1,1,2.4-.15A7.64,7.64,0,0,0,58.62,5,7.31,7.31,0,0,0,61.8,7.55a46.46,46.46,0,0,1,6.87,3.07,94.61,94.61,0,0,1,8.4,5.14A20.82,20.82,0,0,1,83.93,19a16.82,16.82,0,0,1,4.82,5.51l0,.05A20.78,20.78,0,0,1,90.54,30a41.77,41.77,0,0,1,.68,6.95,57.12,57.12,0,0,1,2,11.75,106.8,106.8,0,0,1,0,12.77,1.2,1.2,0,1,1-2.39-.12,104.16,104.16,0,0,0,0-12.49,53.41,53.41,0,0,0-1.88-11.35,1.36,1.36,0,0,1-.06-.36,39.14,39.14,0,0,0-.65-6.7,18.06,18.06,0,0,0-1.54-4.77,14.29,14.29,0,0,0-4.12-4.72A18.73,18.73,0,0,0,76.26,18a1.69,1.69,0,0,1-.36-.17,95.63,95.63,0,0,0-8.36-5.13A44,44,0,0,0,61,9.82l-.15-.06A9.79,9.79,0,0,1,56.61,6.3a10.17,10.17,0,0,1-1.59-5ZM78.89,121.67a1.2,1.2,0,1,1-2.39,0A147.63,147.63,0,0,0,73.66,93c-5.8,10.09-13.44,15.26-23.22,16.7,0,1-.06,2-.07,3,0,2.8,0,5.71,0,8.55a1.19,1.19,0,0,1-1.19,1.2A1.21,1.21,0,0,1,48,121.3c0-2.86,0-5.79,0-8.6,0-1,0-1.88.06-2.8H45.51c0,.87.07,1.77.1,2.67.08,2.88.13,5.89.16,8.65a1.2,1.2,0,0,1-2.4,0c0-2.72-.07-5.7-.16-8.6,0-1-.07-2-.11-2.92-9.35-1.34-17.88-4.32-23.46-16.63a148.31,148.31,0,0,0-2.81,28.52,1.2,1.2,0,0,1-2.4,0,147.64,147.64,0,0,1,4.7-37.06l.43-2.62.22,0,.12-.44a116.37,116.37,0,0,0,2.6-11.87c.79-5.42.69-5.8-.12-8.75-.26-1-.6-2.2-.95-3.68A44,44,0,0,0,20,52.44c-.2,1.43-.43,2.73-.69,3.91a18.39,18.39,0,0,1-2.34,6A1.2,1.2,0,1,1,15,61a16,16,0,0,0,2-5.21,59.73,59.73,0,0,0,1.15-8.35A54.8,54.8,0,0,1,14.78,35a1.2,1.2,0,1,1,2.38-.34A57.2,57.2,0,0,0,21,48.33a59.8,59.8,0,0,1,2.76,8.33c.4,1.67.69,2.75.93,3.6.92,3.39,1,3.82.18,9.72A114.92,114.92,0,0,1,22.23,82.1l-.06.23c21.15,3.16,37.14,1.46,49,0l-.07-.25A116,116,0,0,1,68.44,70c-.86-5.9-.74-6.33.19-9.72.23-.86.53-1.93.92-3.6a59.8,59.8,0,0,1,2.76-8.33,57.63,57.63,0,0,0,3.86-13.64,1.2,1.2,0,1,1,2.37.34,55.26,55.26,0,0,1-3.3,12.38,60.52,60.52,0,0,0,1.14,8.4,16.05,16.05,0,0,0,2,5.21,1.2,1.2,0,0,1-2,1.32,18,18,0,0,1-2.34-6c-.27-1.19-.5-2.51-.7-4a44.28,44.28,0,0,0-1.45,4.82c-.35,1.48-.69,2.71-1,3.68-.81,3-.91,3.33-.12,8.75a115.62,115.62,0,0,0,2.6,11.86l.14.56.26,0L74,83.94a147.47,147.47,0,0,1,4.85,37.73ZM35.93,1.13a1.2,1.2,0,1,1,2.39.15,10,10,0,0,1-1.59,5A9.7,9.7,0,0,1,32.5,9.76l-.15.06a44,44,0,0,0-6.54,2.91,95.63,95.63,0,0,0-8.36,5.13,1.28,1.28,0,0,1-.36.16,18.94,18.94,0,0,0-6.26,2.9,14.29,14.29,0,0,0-4.12,4.72,17.7,17.7,0,0,0-1.54,4.77,39.14,39.14,0,0,0-.65,6.7,1.35,1.35,0,0,1-.07.36A54,54,0,0,0,2.58,48.82a104.16,104.16,0,0,0,0,12.49,1.2,1.2,0,1,1-2.39.12,106.8,106.8,0,0,1,0-12.77A56.44,56.44,0,0,1,2.12,36.91,42.94,42.94,0,0,1,2.81,30a20.3,20.3,0,0,1,1.76-5.42l0-.05A16.67,16.67,0,0,1,9.41,19a21,21,0,0,1,6.87-3.22,94.61,94.61,0,0,1,8.4-5.14,46.46,46.46,0,0,1,6.87-3.07A7.31,7.31,0,0,0,34.73,5a7.74,7.74,0,0,0,1.2-3.84Z"/></svg>