<svg xmlns="http://www.w3.org/2000/svg" shape-rendering="geometricPrecision" text-rendering="geometricPrecision" image-rendering="optimizeQuality" fill-rule="evenodd" clip-rule="evenodd" viewBox="0 0 380 511.89"><path d="M198.7 245.92c6.58 2.89 11.09 9.52 13.64 19.93 7.98-12.27 14.29-24.87 27.7-32.7 9.81-5.72 18.85-.68 13.07 11.56-4.28 7-8.24 14.83-11.61 24.21-2.53 7.05-4.73 14.97-6.48 24.06v59.24c0 23.65.26 46.36-1.99 69.97-.34 3.54-.82 7.24-1.35 10.98-4.87 34.44-2.61 25.79-.3 37.89 2.9 15.22-9.69 32.65-22.92 39.13-5.66 2.77-11.96 1.78-19.12-.27-7.15 2.05-13.45 3.04-19.11.27-13.23-6.48-25.83-23.91-22.92-39.13 2.31-12.1 4.57-3.45-.3-37.89-.53-3.74-1.01-7.44-1.35-10.98-2.25-23.61-1.99-46.32-1.99-69.97v-59.24c-1.76-9.09-3.95-17.01-6.49-24.06-3.36-9.38-7.33-17.21-11.61-24.21-5.77-12.24 3.27-17.28 13.07-11.56 13.42 7.83 19.73 20.43 27.71 32.7 2.61-10.67 7.27-17.37 14.09-20.14-20.59 4.27-25.49-13.87-2.29-11.41-26.92-13.35-23.99-40.02-4-44.71-37.78-8.98-62.02-34.83-71.25-67.87-1.84.07-3.71-.35-5.42-1.3-6.25-3.48-11.94-9.12-16.98-16.5-3.66.76-7.12 1.72-10.38 2.84-9.09 3.12-16.51 7.54-22.39 12.79-15.96 14.28-22.13 32.94-22.76 52.62-.66 20.77 4.76 42.95 11.58 62.73 4.49 13.04 9.07 26.33 11.8 41.71 2.86 16.1 3.58 34.07-.14 55.49-1.64 9.44-4.15 19.54-7.72 30.44 5.59-3.7 11.56-6.09 18.28-5.82 27.08 1.08 47.84 34.7 48.26 62.42.44 28.84-15.8 56.96-52.33 56.96-30.19 0-53.09-25.89-54.67-57.74-.94-18.9 23.16-64.07 27.62-89.76 3.25-18.73 2.62-34.39.14-48.4-2.43-13.69-6.75-26.22-10.98-38.5-7.48-21.7-13.4-46.31-12.64-70.18.8-24.96 8.84-48.81 29.69-67.47 7.95-7.12 17.75-13 29.48-17.04 2.3-.78 4.67-1.51 7.12-2.15-.77-1.87-1.5-3.79-2.22-5.75-6.79-18.8-11.26-42.54-12.57-68.16C55.38 5.21 59.8.31 65.55.01c5.74-.29 10.64 4.13 10.93 9.88 1.21 23.64 5.24 45.31 11.35 62.2 1.19 3.31 2.45 6.41 3.77 9.28 2.72-.2 5.52-.34 8.4-.39v.67c8.32-26.6 45.95-36.41 90-38.06 44.05 1.65 81.68 11.46 90 38.06v-.67c2.88.05 5.68.19 8.4.39 1.32-2.87 2.58-5.97 3.77-9.28 6.11-16.89 10.14-38.56 11.35-62.2.29-5.75 5.19-10.17 10.93-9.88 5.75.3 10.17 5.2 9.88 10.94-1.31 25.62-5.78 49.36-12.57 68.16-.72 1.96-1.45 3.88-2.22 5.75 2.45.64 4.82 1.36 7.12 2.15 11.73 4.04 21.53 9.92 29.48 17.04 20.85 18.66 28.89 42.51 29.69 67.47.76 23.87-5.16 48.48-12.63 70.16-4.24 12.3-8.56 24.83-10.99 38.52-2.48 14.01-3.11 29.67.14 48.4 4.46 25.69 28.56 70.86 27.62 89.76-1.58 31.85-24.48 57.74-54.67 57.74-36.53 0-52.77-28.12-52.33-56.96.42-27.72 21.18-61.34 48.26-62.42 6.72-.27 12.69 2.12 18.28 5.82-3.57-10.9-6.08-21-7.72-30.44-3.72-21.42-3-39.39-.14-55.49 2.73-15.38 7.31-28.67 11.8-41.69 6.82-19.8 12.24-41.98 11.58-62.75-.63-19.68-6.8-38.34-22.76-52.62-5.88-5.25-13.3-9.67-22.39-12.79a85.305 85.305 0 0 0-10.38-2.84c-5.04 7.38-10.73 13.02-16.98 16.5a10.32 10.32 0 0 1-5.42 1.3c-9.23 33.04-33.46 58.89-71.25 67.87 25.11 4.07 11.62 36.45-4.45 44.55 19.72-1.16 16.1 13.78-2.7 11.78zm-1.25-77.02v295.62c18.5 0 13.3 16.88 6.36 26.22-4.38 5.9-7.4 7.62-14.45 5.2-7 2.4-10.01.71-14.43-5.09-7.11-9.32-12.43-26.33 7.43-26.33V168.86c-33.1-6.39-52.29-30.59-55.76-60.51-6.42-30.77 25.01-41.05 63.4-42.5 38.39 1.45 69.82 11.73 63.4 42.5-3.47 29.98-22.73 54.22-55.95 60.55z"/></svg>