<svg xmlns="http://www.w3.org/2000/svg" shape-rendering="geometricPrecision" text-rendering="geometricPrecision" image-rendering="optimizeQuality" fill-rule="evenodd" clip-rule="evenodd" viewBox="0 0 368 512.58"><path d="M238.37 313.48c9.38 6.09 19.18 11.63 29.19 16.57 35.84 16.72 65.32 30.54 71.63 86.83 1.15 9.83.65 67.21 0 95.7h-64.78c.64-31.96 1.33-76.83.83-85.52-.42-6.21-4.61-22.66-11.15-25.65-8.73-3.77-17.78-7.17-26.86-10.01-12.67-4.19-23.03-8.43-35.56-11.88-7.1 23.36-8.08 50.62-15.27 77.79-2.14 8.06-6.89 15.97-9.94 23.96l-12.47 31.31H93.76c6.49-17.44 15.24-35.68 21.77-54.35 13.5-38.65 14.7-78.66 24.18-110.17-5.96-7.05-10.95-14.9-14.78-23.3a52.327 52.327 0 0 1-4.79-21.85c0-2.92.25-5.86.74-8.74l10.04-26.05a25.37 25.37 0 0 1-1.84-2.37l-63.11-91.01a25.638 25.638 0 0 1-3.47-5.96c-5.44-13.1.77-28.13 13.87-33.57 33.67-14.08 74.23-10.71 107.45-7.96 6.26.52 12.21 1.02 15.16 1.22 2.01.13 3.95.5 5.8 1.06 19.87 2.66 49.27 10.02 70.13 19.31 1.47.49 2.92 1.11 4.33 1.89l2.64 1.46a85.48 85.48 0 0 1 5.71 3.24c11.51 6.65 22.55 13.66 33.21 20.94 13.01 8.91 25.49 18.29 37.62 27.99 11.04 8.89 12.8 25.05 3.91 36.09-.8 1.01-1.68 1.94-2.6 2.79-14.81 14.26-34.87 28.19-56.31 40.32-21.24 12.02-44.28 22.52-65.05 29.92zm37.09-105.41-16.36 40.92c6.38-3.16 12.75-6.53 18.98-10.05 7.92-4.48 15.54-9.18 22.57-13.99-2.9-2.07-5.83-4.13-8.8-6.16a482 482 0 0 0-16.39-10.72zM18.7 288.5l21.42 14.14L0 331.55l71.91-19.45-18.79-14.27 41.53-27.74L18.7 288.5zm36-61.3 8.04 13.84-31.06 4.16 45.99 10.63-6.23-13.59 31.23-3.28L54.7 227.2zm13.08 110.96 14.82 2.94-16.42 24.61 36.23-25.97-13.52-4.06 17.6-23.75-38.71 26.23zm85.38-127.71 12.74-33.02c-11.97-.88-24.49-1.51-36.33-1.01l23.59 34.03zM240.39 3.27A60.98 60.98 0 0 1 260.03 0c33.5 0 60.67 27.17 60.67 60.67s-27.17 60.66-60.67 60.66c-33.49 0-60.66-27.16-60.66-60.66 0-9.26 2.12-18.41 6.2-26.73a60.527 60.527 0 0 1 34.82-30.67z"/></svg>