<svg id="Layer_1" data-name="Layer 1" xmlns="http://www.w3.org/2000/svg" viewBox="0 0 39.35 122.88"><defs><style>.cls-1{fill-rule:evenodd;}</style></defs><title>maternity-woman</title><path class="cls-1" d="M20.21,15.55a2.93,2.93,0,0,0-4.27-3.89c-1.25-1-2.22-3.84-2.78-5.48a4,4,0,0,0-.94,1.08,24.93,24.93,0,0,0-1,4,.62.62,0,0,1-.12.26l-1,1.45a4.69,4.69,0,0,1-.51.61c-.27.32-.47.56-.23,1a5.59,5.59,0,0,1-.27,4.49c-.21.44-.3.64,1.25,1.2l4.62.88a1,1,0,0,1,.21.07,2.68,2.68,0,0,1,.88.74,5.74,5.74,0,0,1,.55,1.11c2.13,5.08.18,7.54-3.73,11.7a9.87,9.87,0,0,0,2.85.78,6.94,6.94,0,0,0,2.7-.33,1.75,1.75,0,0,1,.06-.33h0a8.59,8.59,0,0,1,3-4.63A9.37,9.37,0,0,1,26,28.73a52.58,52.58,0,0,0-2.24-7c-.64-.34-4.07-5.18-3.55-6.22Zm-5.36,47L2.26,64.64c-2.13-6.33.35-13.59,7.07-15.73-.29-.9.06-.52-.67-1.41a6.77,6.77,0,0,1-1.54-3.68,7.14,7.14,0,0,1,1.24-4.3c.57-.68,1.45-1.57,2.4-2.56q.51-.51,1-1.05A12.51,12.51,0,0,0,15.58,37a8.15,8.15,0,0,0,3-.31l2,14.8a.17.17,0,0,1,0,.07c.16,1.24-.7,4.16-1.59,7.22-.34,1.16-.67,2.34-1,3.48a31.18,31.18,0,0,0-3.19.28ZM11.69,76.62a21.68,21.68,0,0,1-9.07-7.73c-4.5-7-3.36-17.07,4.67-20.84a8,8,0,0,1-1.6-4.15,8.58,8.58,0,0,1,1.48-5.2h0a.35.35,0,0,1,.06-.09C7.84,37.9,8.73,37,9.74,36c3.66-3.76,8.48-7.51,5.14-13.07a.93.93,0,0,0-.29-.27A27.43,27.43,0,0,1,9,21.36c-2.18-.93-1.88-1.6-1.27-2.9A4.09,4.09,0,0,0,8,15.22c-.68-1.29-.16-1.86.5-2.6.13-.16.28-.32.39-.48l.95-1.33A24.94,24.94,0,0,1,11,6.5,5.41,5.41,0,0,1,12.6,4.78l.06,0a11.14,11.14,0,0,1,5.11-1.79,9.62,9.62,0,0,1,4.75.84l5-2.83h0A6.9,6.9,0,0,1,32,.09h0a6.33,6.33,0,0,1,3.84,2.37c1.61,2,1.77,5.39,2,7.61,0,.24,0,.51.09,1L39.34,25.5h0a.22.22,0,0,0,0,.08.73.73,0,0,1-.75.74,9.75,9.75,0,0,1-5.71-1.6,8.37,8.37,0,0,1-3.08-4.45,1.05,1.05,0,0,1,0-.19L29,12.2c-.14-1.39-.18-1.64-.47-1.6l-.74.1c-.28.05-.61.11-1,.16a9.2,9.2,0,0,1-.91,6.54l-.48,2.22.19,1.93c.72,2.63,1.41,4.94,2,7.7a5.91,5.91,0,0,1,.34,1.68c.71,3.62,1.27,7.32,1.71,11.12.77,6.51,1.19,13.29,1.49,20.34,0,0,.1,0,.06.07,8.92,8.79-4.93,26.72-6.47,37.61h-.09a.41.41,0,0,1,0,.11c0,.06,0,.11,0,.15-.57,4.18-.81,11-.9,15.28a3.18,3.18,0,0,1,1.36,1.89,5.05,5.05,0,0,1,.1,2.12,5,5,0,0,1-.62,1.86A2,2,0,0,1,23,122.56H23l-14.31.32a.73.73,0,0,1-.74-.63l-.48-3.09a.73.73,0,0,1,.48-.8h0l6.42-2.16v-16a.41.41,0,0,1,0-.11h0c0-11.38-2.77-15.74-2.63-23.45Zm6.79-8.8a3.09,3.09,0,0,0,.13.66l5,2.8c.79-2.85,1.65-5.54,2.36-8.52,2.79-12,1.85-17,.51-32.69-3.38.38-5.43,1.4-6.64,5.25L22,51.4c.36,3-3.62,12.38-3.52,16.42Zm9-5.68c.83,0,1.57,0,2.16.07-.16-3.64-.35-7.21-.61-10.72a63.58,63.58,0,0,1-1.55,10.65ZM23.1,100.91H15.8v15.83h0a.71.71,0,0,1-.49.68L9,119.54l.29,1.88L23,121.11h0c.1,0,.22-.16.37-.39a3.43,3.43,0,0,0,.43-1.31,3.68,3.68,0,0,0-.07-1.52,1.61,1.61,0,0,0-1-1.15h0a.74.74,0,0,1-.47-.7c.08-4,.35-11.09.83-15.13Z"/></svg>