<svg id="Layer_1" data-name="Layer 1" xmlns="http://www.w3.org/2000/svg" viewBox="0 0 113.57 122.88"><title>mental</title><path d="M33.5,60.57a1.86,1.86,0,0,1-1.42-.13,12.67,12.67,0,0,0-5-1.75,9.22,9.22,0,0,0-5.4,1.7,1.85,1.85,0,0,1-1.42.21,1.86,1.86,0,0,1-1.16-.85,1.88,1.88,0,0,1,.64-2.57,14.54,14.54,0,0,1,3.57-1.55,12.49,12.49,0,0,1,3.58-.43,14.18,14.18,0,0,1,3.48.54,18.16,18.16,0,0,1,3.4,1.39,1.84,1.84,0,0,1,.92,1.1,1.82,1.82,0,0,1-.12,1.42,1.84,1.84,0,0,1-1.1.92ZM88.58,14.06C91.8,10.69,94.06,7.78,99,7.21c9.34-1.07,17.92,8.49,13.21,17.9a29.85,29.85,0,0,1-4.13,5.77v-.25H96l-.43.44-1.93,2-4-7.64-1.32-2.54-1.27,2.57-3.6,7.31-3.58-5.18-1.25-1.82-1.17,1.88-1.67,2.71H68.48c-2.5-3.44-4.26-7.15-4.4-11.15-.27-7.34,5.52-12,12.18-11.94,5.94.07,8.44,3,12.32,6.8Zm17.11,19.47-.55.57C99.82,39.61,94.05,45,88.58,50.4,82.85,44.88,75.9,39.07,70.82,33.25h6.62l.43-.69L78.8,31l3.72,5.4,1.4,2L85,36.26l3.42-7L92,36.18,92.94,38l1.4-1.44,2.9-3ZM39.83,112.81c0,.52,0,1,0,1.57s-.07,1.26-.13,1.89c-.08.85-.2,1.7-.35,2.53s-.34,1.68-.56,2.49a2.14,2.14,0,0,1-2.62,1.52,2.15,2.15,0,0,1-1.29-1,2.11,2.11,0,0,1-.22-1.62v0c.19-.72.35-1.44.48-2.15s.24-1.44.31-2.16c0-.37.06-.76.08-1.14l0-.62c-.92.25-1.83.47-2.73.68-1.12.25-2.23.48-3.31.67a43.88,43.88,0,0,1-6.39.7,25.4,25.4,0,0,1-5.37-.36,14.29,14.29,0,0,1-3.51-1.11,9.45,9.45,0,0,1-2.64-1.84,7.65,7.65,0,0,1-1.81-2.91,9.17,9.17,0,0,1-.43-3.59,13.93,13.93,0,0,1,.56-3,23.45,23.45,0,0,1,1.25-3.24q-.18-.87-.33-1.77c-.1-.63-.2-1.29-.29-2s-.18-1.52-.25-2.27-.11-1.51-.14-2.3c0-.07,0-.17,0-.25-.13-1.4-.21-2.78-.25-4.15s-.07-2.74-.09-4.13v-.38c-1.34-.07-2.76-.11-4.08-.24a6.61,6.61,0,0,1-1.63-.27,5.58,5.58,0,0,1-1.46-.68,5.41,5.41,0,0,1-1.14-1,5.87,5.87,0,0,1-.85-1.27,6.21,6.21,0,0,1-.5-1.45A7.23,7.23,0,0,1,0,76.36a8.59,8.59,0,0,1,.45-2.5,11.24,11.24,0,0,1,1.21-2.47l4.57-9.34a26.69,26.69,0,0,0,1.92-4.58,9,9,0,0,0,.17-2.89h0c0-1.09-.1-2.48,0-4.56,0-1.26.13-2.48.28-3.66a30.31,30.31,0,0,1,.62-3.47c.2-.81.43-1.61.7-2.39s.47-1.27.75-1.88L2.57,35.09a2.13,2.13,0,0,1-1.1-2.81l.1-.21a2.14,2.14,0,0,1,.13-.19h0C11.06,19.12,21,10.69,30.88,5.72,42.1.09,53.24-1.09,63.4.91c.44.08.89.18,1.35.29s.89.2,1.35.32a.41.41,0,0,1,.31.4L65.22,5.17a.42.42,0,0,1-.42.42c-.25,0-.21,0-.56-.12-.55-.13-1.11-.26-1.66-.36A45.71,45.71,0,0,0,33.27,9.32C24.36,13.69,15.35,21.09,6.75,32.26c2.54,1.11,5.55,2.23,8,3.49a17,17,0,0,0,8.45.27A82.39,82.39,0,0,0,33,33.45c2.42-.73,4.8-1.46,7.06-2a28.71,28.71,0,0,1,6.53-.89,2.84,2.84,0,0,1,.41,0,2,2,0,0,1,.41.1,2.12,2.12,0,0,1,1.24,1.06,2.14,2.14,0,0,1,.13,1.63A27,27,0,0,0,47.22,42a14.33,14.33,0,0,0,1.43,6.4,16.12,16.12,0,0,0,3.9,5,31.62,31.62,0,0,0,5.84,4,2.11,2.11,0,0,1,1,1.27A2.13,2.13,0,0,1,58,61.2,2.17,2.17,0,0,1,56.35,61a36.09,36.09,0,0,1-6.8-4.68,20.22,20.22,0,0,1-4.73-6.1,18.43,18.43,0,0,1-1.84-7,27.12,27.12,0,0,1,.84-8.15,40.16,40.16,0,0,0-4.27.92c-1.73.46-3.52,1-5.33,1.55A88.93,88.93,0,0,1,24,40.21a22.65,22.65,0,0,1-9.39,0c-.25.53-.47,1.07-.67,1.63a21.34,21.34,0,0,0-.61,2.07,28.09,28.09,0,0,0-.54,3c-.13,1.05-.21,2.13-.25,3.23-.06,1.92,0,3.23,0,4.25v0a12.87,12.87,0,0,1-.22,3.89,30,30,0,0,1-2.32,5.6L5.39,73.47l-.1.16a7.45,7.45,0,0,0-.76,1.48,4.06,4.06,0,0,0-.26,1.34,2.64,2.64,0,0,0,0,.57,2.16,2.16,0,0,0,.16.47,1.48,1.48,0,0,0,.21.32l0,0a1.49,1.49,0,0,0,.27.23,1.72,1.72,0,0,0,.41.19,2.61,2.61,0,0,0,.5.08c1.69,0,3.69.21,5.41.31l.24,0a1.69,1.69,0,0,1,.33,0c1.58,0,3.51.27,5.12.42a2.14,2.14,0,0,1-.37,4.26c-.84-.07-1.7-.1-2.54-.15v.08c0,1.23,0,2.45.07,3.69s.09,2.27.18,3.44a11.81,11.81,0,0,0,1.67.63,9.2,9.2,0,0,0,1.79.37,7.51,7.51,0,0,0,3.91-.63,2.16,2.16,0,0,1,2.82,1.1h0a2.12,2.12,0,0,1,0,1.62,2.16,2.16,0,0,1-1.13,1.19h0a11.89,11.89,0,0,1-3,.88,12.11,12.11,0,0,1-3.07.08,15.38,15.38,0,0,1-1.63-.27c-.34-.08-.69-.17-1-.28l.09.76c.09.65.19,1.33.31,2s.26,1.37.42,2.06v0a2.05,2.05,0,0,1,0,.78,2.22,2.22,0,0,1-.28.74,20.65,20.65,0,0,0-1.15,2.81,10.23,10.23,0,0,0-.48,2.38,5.22,5.22,0,0,0,.2,1.87,3.34,3.34,0,0,0,.83,1.38,5.12,5.12,0,0,0,1.56,1,9.68,9.68,0,0,0,2.33.7,21.23,21.23,0,0,0,4.58.3,40.87,40.87,0,0,0,5.64-.63c1.95-.36,4-.82,6.12-1.39,1.89-.52,3.79-1.14,5.62-1.84a41.39,41.39,0,0,0,4.61-2.11,24.73,24.73,0,0,0,3.57-2.33,9.42,9.42,0,0,0,2.42-3.13l0,0a32.65,32.65,0,0,0,1.49-3.71l.42-1.2.25-.69c.54-1.46,1.26-3.45,2.16-5.33a13.07,13.07,0,0,1,3.25-4.64,2.11,2.11,0,0,1,1.57-.43,2.13,2.13,0,0,1,1.85,2.39,2.16,2.16,0,0,1-.81,1.42,10,10,0,0,0-2.19,3.46c-.72,1.58-1.36,3.33-1.82,4.61-.23.58-.45,1.23-.66,1.82a32.18,32.18,0,0,1-1.87,4.55,13.13,13.13,0,0,1-3.42,4.25,27.66,27.66,0,0,1-4.12,2.7A44.6,44.6,0,0,1,42.05,112c-.4.16-.81.31-1.24.46l-1,.35Zm66.83-60.37a45.5,45.5,0,0,1-6.72,25.21C95.53,84.87,88.8,91.54,79.36,97.07a1.53,1.53,0,0,1-.39.18l-.06,0c0,1.25,0,2.48.13,3.71s.2,2.62.36,3.91a62.24,62.24,0,0,0,1.33,7.29A60.41,60.41,0,0,0,82.85,119a2.13,2.13,0,0,1-1.25,2.76,2.15,2.15,0,0,1-2.75-1.25,65.15,65.15,0,0,1-2.27-7.34,67.22,67.22,0,0,1-1.43-7.78,71.1,71.1,0,0,1-.51-8.25,80,80,0,0,1,.43-8.77,2.15,2.15,0,0,1,2.34-1.9h0a2.1,2.1,0,0,1,1.42.77,2.17,2.17,0,0,1,.47,1.57c-.07.7-.14,1.41-.19,2.12L79,92.28A52.26,52.26,0,0,0,96.52,75a41.54,41.54,0,0,0,5.87-22.59.41.41,0,0,1,.4-.42h3.46a.41.41,0,0,1,.42.41v0ZM68.91,66.16a2.14,2.14,0,0,1-1.71,2.49,2.16,2.16,0,0,1-1.6-.34,2.11,2.11,0,0,1-.88-1.38,8.08,8.08,0,0,1-.13-1.75,7.84,7.84,0,0,1,.27-1.7,7.63,7.63,0,0,1,.93-2,8.05,8.05,0,0,1,1.52-1.72,8.59,8.59,0,0,1,4-1.87,8.87,8.87,0,0,1,1.93-.14,8.2,8.2,0,0,1,1.89.31,8.54,8.54,0,0,1,3.8,2,5.31,5.31,0,0,1,1.49,3,7.69,7.69,0,0,1-.27,3.06,21.6,21.6,0,0,1-1.23,3.16c-.45.93-1.52,3.17-2.91,5.72a57.1,57.1,0,0,1-4.78,7.62c-2.44,3.15-4.88,5.29-6.88,5s-3.47-3.11-3.83-9.79h0A2.17,2.17,0,0,1,61,76.26l0,0a2.07,2.07,0,0,1,1.45-.67h0a2.22,2.22,0,0,1,1.5.55,2.16,2.16,0,0,1,.7,1.48v0c.14,2.58.55,3.7,1.09,3.9s1.21-.48,2-1.49a54.86,54.86,0,0,0,4.43-7.1c1.31-2.42,2.34-4.57,2.76-5.46a18.12,18.12,0,0,0,.9-2.18,3.94,3.94,0,0,0,.24-1.63,1.22,1.22,0,0,0-.5-.77A5.12,5.12,0,0,0,74,62.12,3.84,3.84,0,0,0,73,62a4.39,4.39,0,0,0-1,.06,4.69,4.69,0,0,0-1.06.34,4.11,4.11,0,0,0-.93.6,3.85,3.85,0,0,0-.69.77,3.14,3.14,0,0,0-.41.89,3.67,3.67,0,0,0-.11.75,3.48,3.48,0,0,0,0,.78Z"/></svg>