<svg xmlns="http://www.w3.org/2000/svg" shape-rendering="geometricPrecision" text-rendering="geometricPrecision" image-rendering="optimizeQuality" fill-rule="evenodd" clip-rule="evenodd" viewBox="0 0 468 512.48"><path fill-rule="nonzero" d="M337.06 68.49c1.6-5.23 2.65-11.2 2.99-17.8.44-8.76-2.01-17.36-6.31-24.17-3.02-4.77-6.91-8.61-11.29-10.92-4.08-2.15-8.63-2.96-13.3-1.91-4.68 1.06-9.64 4.01-14.61 9.35-6.84 7.37-10.82 17.54-11.47 27.87-.62 9.92 1.83 19.9 7.74 27.53l6.38 7.95-8.57 3.19c-2.02.76-3.89 1.67-5.58 2.71-1.34.83-2.58 1.75-3.74 2.75 2.64 6.02 6.6 11.52 11.57 15.69 2.24 1.87 4.69 3.48 7.31 4.73l17.09-15.84c4.11-3.81 10.52-4.08 14.94-.4l16.88 14.02c.62-3.68.64-7.8-.11-11.9-.31-1.61-.73-3.22-1.3-4.78l-6-2.44c-4.77-1.64-9.57-3.16-14.37-4.71l5.28-7.37c2.62-3.65 4.83-8.2 6.47-13.55zm-49.07 56.42a48.503 48.503 0 0 1-5.59-4.05c-4.57-3.83-8.48-8.48-11.59-13.61-1.42 3.51-2.38 7.34-2.91 11.36-1 7.57-.54 15.78 1.09 23.91l19-17.61zm-12.56 37.44v.01l-.24 26.69-.71 79.85c-.04 5.46 4.15 10.03 9.69 10l19.83.2 13.33.13 30.86.31 13.25.13 4.66.05c5.53.11 9.92-4.15 10-9.68l-.13-118.15-52.99-43.99-47.46 43.99-.09 10.46zm-11.5 6.6c-1.23-2.59-2.35-5.26-3.37-7.99-5.27-14.17-7.63-29.96-5.76-44.06 1.23-9.29 4.27-17.9 9.47-24.95-2.4-9.02-2.53-18.51.1-27.08 1.21-3.92 2.99-7.64 5.38-11.04 0-1.25.04-2.5.12-3.75.83-13.24 6.02-26.39 14.99-36.05 6.89-7.42 14.2-11.6 21.4-13.23 7.93-1.8 15.58-.47 22.35 3.1 6.46 3.4 12.09 8.88 16.31 15.58 4.93 7.79 8.01 17.35 8.37 27.28 3.7-2.54 8.08-4.26 13.18-4.81 1.54-.16 3.18-.22 4.9-.14 7.64.33 13.87 2.56 18.73 6.08 5.5 3.98 9.15 9.52 11.1 15.79 2.21 7.08 2.21 15.14.21 22.87 1.12-.18 2.27-.3 3.47-.35.32 0 .95.02 1.22-.05 7.11 0 13.57 2.9 18.22 7.55a25.711 25.711 0 0 1 7.55 18.23c0 1.9-.25 3.84-.73 5.8 5.43.31 10.61 3.13 14.37 7.53 3.61 4.22 5.97 9.96 5.97 16.28-.05.17-.03.65-.03.86-.05 1.68-.22 3.33-.53 4.94h1.46c3.38.17 6.45 1.33 8.85 3.73 4.94 4.94 6.92 10.28 6.76 15.58-.18 5.88-3.05 11.25-7.45 15.64-2.46 2.46-5.4 3.95-8.53 4.67 1.16 4.85 2.04 9.65 2.65 14.39.97 7.52 1.26 14.89.93 22.07-.95 20.37-8.32 39.86-16.01 60.19-6.14 16.23-12.5 33.04-15.61 50.79-1.58 8.94-2.9 18.31-3.98 28.06-1.1 9.99-1.97 20.41-2.59 31.22-.34 5.99-.49 11.67-.63 17.3-.82 32.77-1.63 64.51-33.42 87.7-17.8 12.99-39.87 16.46-59.8 11.88-8.17-1.87-16.03-5.12-23.1-9.62-7.08-4.5-13.4-10.29-18.47-17.25-11.2-15.35-16.33-36.22-10.57-61.42 3.67-16.69 9.39-32.81 15.1-48.91 9.57-26.96 19.14-53.92 18.35-82.83-12-.17-20.9-.32-20.93-.33-5.94-.06-11.17-2.54-14.89-6.44-3.3-3.47-5.42-8.1-5.79-13.17-2.06-30.15-.13-68.37.68-101.64zm54.18 121.76c.77 31.01-9.17 59.04-19.12 87.05-5.56 15.66-11.12 31.34-14.65 47.35l-.02.05c-4.85 21.11-.76 38.32 8.32 50.77 4.06 5.56 9.16 10.23 14.91 13.88 5.75 3.66 12.2 6.32 18.95 7.86 16.42 3.77 34.54.96 49.08-9.65 26.53-19.35 27.25-47.89 27.99-77.35.15-6 .31-12.04.63-17.71.64-11.17 1.52-21.84 2.64-31.96 1.12-10.16 2.48-19.8 4.08-28.88 3.32-18.89 9.92-36.33 16.29-53.17 7.31-19.35 14.33-37.91 15.17-56.1.3-6.49.05-13.12-.82-19.84-.87-6.76-2.36-13.7-4.52-20.8l-1.54-5.09c-6.08-7.96-12.19-15.86-18.35-23.76-5.74-6.26-11.47-12.49-17.27-18.69l6.41-4.34c3.68-2.48 6.9-5.79 9.14-9.31 1.99-3.12 3.19-6.32 3.19-9.09 0-3.45-1.41-6.58-3.67-8.85-2.27-2.27-5.4-3.67-8.85-3.67l-.7-.01c-3.87.16-6.84 1.74-8.8 4.11-2.11 2.51-3.2 6.01-3.2 9.77l.29 15.06-15.02-11.99-12.76-9.19 9.48-5.01c.89-.47 1.74-1.03 2.52-1.65.89-.73 1.74-1.52 2.53-2.35 3.97-4.14 6.74-9.37 8.15-14.78 1.42-5.43 1.46-10.99-.02-15.76-1.13-3.64-3.2-6.8-6.24-9-2.85-2.07-6.67-3.39-11.53-3.6-1-.04-1.98-.01-2.93.09-5.75.63-9.95 4.17-12.79 8.87-2.71 4.47-4.27 9.92-4.87 15.13 5.34 5.68 8.41 12.72 9.73 19.87 1.53 8.25.69 16.77-1.69 23.53l24.87 20.65c2.53 2.07 4.15 5.22 4.15 8.74.02 18.43 2.7 107.81.13 118.38-.11 5.88-2.53 11.12-6.42 14.87-3.57 3.44-8.32 5.6-13.6 5.86-.94.04-2.91.07-5.63.08-.06 6.71-.55 13.35-1.43 19.96-1.87 13.96-5.49 27.64-10.55 41.09a6.627 6.627 0 0 1-8.52 3.86c-3.41-1.29-5.14-5.11-3.86-8.52 4.74-12.58 8.11-25.29 9.83-38.14.81-6.05 1.26-12.15 1.32-18.3-9.04-.06-20.07-.19-30.43-.32zm16.6-156.15c2.68 2.6 4.05 5.76 4.15 9.47.11 3.73-1.13 7-3.71 9.83-2.58 2.66-5.76 4.02-9.52 4.09-3.77.05-7-1.22-9.66-3.79-2.72-2.5-4.14-5.66-4.25-9.46-.1-3.78 1.14-7.02 3.73-9.7 2.64-2.74 5.84-4.15 9.62-4.21 3.75-.06 6.98 1.2 9.64 3.77zm-58.95-53.29.34-.21.45-.28-.91-1.68c.02.72.06 1.44.12 2.17zM118.49 268.41c.48-3.61 3.81-6.15 7.43-5.67 3.61.48 6.15 3.81 5.67 7.43-1.81 13.27-1.72 26.33 0 39.16 1.72 12.85 5.09 25.56 9.82 38.14 1.29 3.41-.44 7.23-3.85 8.52a6.627 6.627 0 0 1-8.52-3.86c-5.06-13.45-8.68-27.13-10.55-41.09-1.87-13.98-1.97-28.18 0-42.63zm9.46-217.72c.33 6.6 1.38 12.57 2.98 17.8 1.64 5.35 3.86 9.9 6.47 13.55l5.3 7.37c-4.81 1.55-9.63 3.05-14.4 4.72l-11.61 4.72 1.18-11c.19-1.77.25-3.68.16-5.64-.26-6.11-1.87-12.87-5.11-18.24-2.84-4.7-7.04-8.24-12.79-8.87-.95-.1-1.93-.13-2.93-.09-4.86.21-8.68 1.53-11.53 3.6-3.05 2.2-5.11 5.36-6.24 9-1.48 4.77-1.44 10.33-.02 15.76 1.41 5.41 4.18 10.64 8.15 14.78.8.84 1.65 1.62 2.54 2.34.82.65 1.67 1.22 2.51 1.66l9.48 5.01-8.73 6.23-4.04 2.96-15.01 11.99.31-15.06c-.02-3.76-1.11-7.26-3.2-9.77-1.99-2.37-4.95-3.95-8.82-4.11l-.7-.02c-3.45.03-6.58 1.43-8.85 3.7-2.27 2.27-3.67 5.4-3.67 8.85 0 2.77 1.2 5.97 3.19 9.09 2.24 3.52 5.46 6.83 9.14 9.31l6.44 4.35c-5.77 6.15-11.46 12.3-17.16 18.52-6.22 7.96-12.36 15.9-18.49 23.94l-1.55 5.07c-2.15 7.1-3.64 14.04-4.51 20.8-.87 6.72-1.13 13.35-.83 19.84.85 18.19 7.87 36.75 15.18 56.1 6.37 16.84 12.97 34.28 16.29 53.17 1.59 9.08 2.96 18.72 4.08 28.88a617.6 617.6 0 0 1 2.64 31.96c.32 5.67.47 11.71.63 17.71.74 29.46 1.46 58 27.99 77.35 14.54 10.61 32.66 13.42 49.08 9.65 6.75-1.54 13.2-4.2 18.95-7.86 5.74-3.65 10.85-8.32 14.91-13.88 9.08-12.45 13.17-29.66 8.32-50.77l-.02-.05c-3.53-16.01-9.09-31.69-14.66-47.35-11.51-32.43-23.01-64.87-17.91-101.94.5-7.91 1.78-16.15 3.63-24.44 2.06-9.19 4.78-18.31 7.9-27.08 3.4-9.56 7.32-18.86 11.4-27.46 4.52-9.52 9.3-18.24 13.8-25.55 2.81-4.56 5.26-9.63 7.24-14.94 4.56-12.26 6.63-25.8 5.04-37.74-1.48-11.13-6.19-20.8-15.14-26.32a32.448 32.448 0 0 0-5.58-2.71l-8.57-3.19 6.37-7.95c5.92-7.63 8.37-17.61 7.75-27.53-.65-10.33-4.63-20.5-11.47-27.87-4.97-5.34-9.94-8.29-14.61-9.35-4.67-1.05-9.22-.24-13.3 1.91-4.38 2.31-8.28 6.15-11.29 10.92-4.3 6.81-6.75 15.41-6.31 24.17zm-26.42-8.74c5.1.55 9.48 2.27 13.18 4.81.36-9.93 3.44-19.49 8.37-27.28 4.22-6.7 9.85-12.17 16.31-15.58C146.16.33 153.8-1 161.74.8c7.2 1.63 14.5 5.81 21.4 13.23 8.96 9.66 14.16 22.81 14.99 36.05.67 10.66-1.46 21.46-6.68 30.7l.45.28c12.7 7.83 19.32 20.94 21.3 35.84 1.87 14.1-.5 29.89-5.77 44.06-2.27 6.12-5.11 11.97-8.38 17.27-4.21 6.84-8.72 15.11-13.07 24.26-3.88 8.18-7.63 17.05-10.88 26.21-3.02 8.48-5.61 17.1-7.49 25.52-1.7 7.64-2.89 15.27-3.33 22.6l-.05.52c-4.76 33.99 6.25 65.01 17.25 96.02 5.72 16.1 11.44 32.22 15.12 48.91 5.75 25.2.62 46.07-10.58 61.42-5.07 6.96-11.39 12.75-18.47 17.25-7.07 4.5-14.93 7.75-23.1 9.62-19.93 4.58-42 1.11-59.8-11.88-31.8-23.19-32.6-54.93-33.43-87.7-.14-5.63-.28-11.31-.63-17.3-.61-10.81-1.48-21.23-2.58-31.22-1.08-9.75-2.4-19.12-3.98-28.06-3.12-17.75-9.47-34.56-15.62-50.79-7.68-20.33-15.05-39.82-16-60.19-.33-7.18-.04-14.55.93-22.07.61-4.74 1.49-9.54 2.65-14.39-3.14-.72-6.08-2.21-8.54-4.67-4.39-4.39-7.26-9.76-7.44-15.62-.16-5.32 1.82-10.66 6.76-15.6 2.4-2.4 5.46-3.56 8.85-3.73h1.46a29.87 29.87 0 0 1-.53-4.94c0-.21.02-.69-.03-.86 0-6.32 2.36-12.06 5.97-16.28 3.76-4.4 8.93-7.22 14.37-7.53-.48-1.96-.73-3.9-.73-5.8 0-7.12 2.89-13.57 7.54-18.23 4.66-4.65 11.11-7.55 18.23-7.55.27.07.9.05 1.22.05 1.19.05 2.35.17 3.47.35-2-7.73-2-15.79.2-22.87 1.96-6.27 5.61-11.81 11.11-15.79 4.86-3.52 11.09-5.75 18.73-6.08 1.71-.08 3.36-.02 4.9.14zM49.35 152.27l-2.33-10.07c-.71-3.08-2.45-6.13-4.6-8.39-1.65-1.72-3.33-2.86-4.57-2.86-1.85 0-3.79 1.11-5.32 2.9-1.66 1.95-2.76 4.66-2.76 7.69l-.02.54c.09 3.08.91 5.87 2.43 7.79 1.21 1.52 3.04 2.49 5.46 2.49l11.71-.09zm-21.72 20.47-1.41-4.68c-.24-.77-1.29-2.14-2.59-3.52-1.46-1.55-2.96-2.83-3.84-3.19-1.38-.54-2.63-.85-3.55-.8-.12 0-.02-.19-.09-.11-2.12 2.11-2.98 4.08-2.94 5.82.07 2.17 1.47 4.5 3.62 6.65.62.62 1.36.99 2.14 1.16 1.26.26 2.67.16 4.09-.2l4.57-1.13zm393.34-30.54-2.32 10.07 11.71.11c2.42-.02 4.24-.99 5.45-2.51 1.53-1.92 2.35-4.71 2.43-7.79l.01-.54c-.02-3.03-1.12-5.74-2.78-7.69-1.53-1.79-3.48-2.9-5.32-2.9-1.25 0-2.93 1.14-4.57 2.86-2.16 2.26-3.9 5.31-4.61 8.39zm20.81 25.86-1.41 4.68 4.57 1.13c1.41.36 2.84.46 4.07.2.8-.17 1.55-.54 2.16-1.16 2.15-2.15 3.55-4.48 3.62-6.65.04-1.74-.83-3.71-2.94-5.82-.08-.08.04.11-.09.11-.92-.04-2.17.26-3.54.82-.89.34-2.39 1.62-3.85 3.17-1.3 1.38-2.36 2.75-2.59 3.52z"/></svg>