<?xml version="1.0" encoding="utf-8"?><svg version="1.1" id="Layer_1" xmlns="http://www.w3.org/2000/svg" xmlns:xlink="http://www.w3.org/1999/xlink" x="0px" y="0px" viewBox="0 0 122.88 91.76" style="enable-background:new 0 0 122.88 91.76" xml:space="preserve"><g><path d="M4.16,89.79c-0.08,1.15-1.07,2.02-2.22,1.94C0.8,91.65-0.07,90.66,0,89.51l0.12-1.8c0.47-7.66,0.68-11.02,7.46-17.55 c4.28-4.13,9.92-5.3,15.61-6.49c8.16-1.7,16.45-3.43,19-15.39c0.28-1.33,0.46-2.73,0.54-4.21c0.08-1.5,0.05-3.09-0.08-4.79 c-0.02-0.28,0.01-0.54,0.09-0.79c-5.54-4.21-10.5-10.53-14.37-19.02c-1.49-3.28-2.57-6.11-3.33-9.09L23.57,0.33l4.16-0.26 c0.23,3.62,0.65,6.53,1.36,9.28c0.71,2.76,1.7,5.37,3.07,8.39c4.75,10.43,11.18,17.22,18.18,20.54c3.39,1.61,6.92,2.41,10.44,2.42 c3.53,0.01,7.09-0.78,10.52-2.35C78.86,34.91,85.86,27.73,90.96,17c1.4-2.95,2.41-5.45,3.07-8.07L95.11,0l4.16,0.07 c-0.07,3.88-0.45,6.96-1.19,9.87c-0.74,2.92-1.84,5.65-3.35,8.84c-3.94,8.3-9,14.67-14.62,19.04c0.1,0.27,0.14,0.56,0.12,0.86 c-0.13,1.69-0.16,3.29-0.08,4.79c0.08,1.48,0.26,2.88,0.54,4.21c2.55,11.96,10.84,13.69,19,15.39c5.69,1.19,11.32,2.36,15.61,6.49 c6.75,6.5,6.99,10.42,7.45,18.06l0.12,1.93c0.07,1.15-0.8,2.14-1.95,2.21c-1.15,0.07-2.14-0.8-2.21-1.95l-0.12-1.95 c-0.4-6.56-0.61-9.93-6.18-15.31c-3.42-3.3-8.47-4.35-13.57-5.41c-9.48-1.98-19.11-3.99-22.23-18.61 c-0.33-1.53-0.53-3.15-0.62-4.86c-0.05-0.99-0.06-2.01-0.04-3.05c-0.96,0.56-1.94,1.06-2.93,1.51c-3.98,1.81-8.12,2.73-12.25,2.72 c-4.15-0.01-8.27-0.93-12.21-2.81c-0.55-0.26-1.09-0.54-1.63-0.84c0.03,1.04,0.01,2.06-0.04,3.06c-0.09,1.71-0.3,3.34-0.62,4.86 c-3.12,14.62-12.75,16.63-22.23,18.61c-5.1,1.06-10.15,2.12-13.57,5.41c-5.61,5.4-5.78,8.27-6.19,14.8L4.16,89.79L4.16,89.79z M56.81,80.35c0.55,0.53,0.57,1.4,0.04,1.95c-0.53,0.55-1.4,0.57-1.95,0.04c-4.66-4.49-12.28-5.12-22.24-5.94 c-1.04-0.09-2.12-0.17-4.2-0.36c-0.76-0.07-1.32-0.73-1.26-1.49c0.07-0.76,0.73-1.32,1.49-1.26c0.79,0.07,2.51,0.21,4.18,0.35 C43.39,74.51,51.44,75.17,56.81,80.35L56.81,80.35z M67.95,82.34c-0.55,0.53-1.42,0.51-1.95-0.04c-0.53-0.55-0.51-1.42,0.04-1.95 c5.37-5.18,13.42-5.84,23.94-6.71c1.66-0.14,3.39-0.28,4.18-0.35c0.76-0.07,1.43,0.5,1.49,1.26c0.07,0.76-0.5,1.43-1.26,1.49 c-2.09,0.19-3.15,0.27-4.2,0.36C80.22,77.22,72.6,77.85,67.95,82.34L67.95,82.34z"/></g></svg>