<svg id="Layer_1" data-name="Layer 1" xmlns="http://www.w3.org/2000/svg" viewBox="0 0 70.28 122.88"><defs><style>.cls-1{fill-rule:evenodd;}</style></defs><title>pregnant-maternity</title><path class="cls-1" d="M30.68,47.64c-1,2.84-4.23,6.64-7.61,10.25a17.84,17.84,0,0,0,5.08,1.39A12.52,12.52,0,0,0,33,58.7a2.9,2.9,0,0,1,.12-.6h0c1.25-4,3-6.53,5.4-8.26a16.78,16.78,0,0,1,8-2.74c-1-4.67-2.35-3.62-4-8.26a.57.57,0,0,1-.24-.29c-1.35-1.56-7.16-8.71-6.1-10.8C39,22,33,17.58,28.54,20.81c-2.24-1.81-4-6.86-5-9.79A7.7,7.7,0,0,0,21.89,13c-.68,1.1-1.27,5.3-1.71,7.16a1.13,1.13,0,0,1-.21.46l-1.84,2.58a8.87,8.87,0,0,1-.91,1.09c-.48.57-.84,1-.42,1.76,1.21,2.38.58,5.71-.48,8-.37.79-.53,1.13,2.24,2.14l8.24,1.57c3,.31,5.08,6.58,3.88,9.91Zm-4.09,57L4.13,108.41a25.41,25.41,0,0,1-1.35-8.19,21.87,21.87,0,0,1,4-12.68,19.4,19.4,0,0,1,10-7.19l-.29-.93.2-.18-.38-.52h0a.43.43,0,0,0-.07-.1l-.29-.89-.35.12a12,12,0,0,1-2.74-6.58c-.26-3.35,4.28-7.2,6.49-9.48.6-.6,1.2-1.23,1.82-1.87a22.63,22.63,0,0,0,6.77,1.95,14.66,14.66,0,0,0,5.35-.56L36.84,85a.23.23,0,0,1,0,.11C37.14,87.29,35.62,92.5,34,98c-.6,2.07-1.2,4.17-1.74,6.21a53.4,53.4,0,0,0-5.69.49Zm0,0ZM7.88,122.88C4.19,119.84-.47,105,0,100.21a24.48,24.48,0,0,1,4.5-14.27,22,22,0,0,1,8.56-7.12,14.32,14.32,0,0,1-2.85-7.4C9.92,66.89,14.6,62.89,17.48,60c4.16-4.27,9.33-9.59,10.63-12.75.95-2.31-.23-5.86-2-6.91L18,38.78c-3.76-.45-5.64-2.52-4.08-5.84a7.38,7.38,0,0,0,.49-5.79c-1.22-2.3-.3-3.32.88-4.64.24-.28.51-.57.71-.85l1.69-2.37c.5-2,1.17-6.4,2-7.69a10,10,0,0,1,2.91-3.08s.06,0,.11-.08a19.83,19.83,0,0,1,9.11-3.2,17.44,17.44,0,0,1,8.49,1.5l8.86-5A12.25,12.25,0,0,1,57.23.16a11.34,11.34,0,0,1,6.86,4.23C67,8,67.24,14,67.56,18c0,.44.07.92.16,1.76l2.56,25.77c.12,3.75-9.79-.17-11.51-1.39a15,15,0,0,1-5.5-7.93c-.62-1.9-1.2-11.68-1.47-14.4-.23-2.49-.31-2.92-.83-2.87-1,.13-2.06.32-3.1.48a16.45,16.45,0,0,1,.36,5.14C47.69,30.41,45,31,45.72,38.44c1.29,4.7,2.52,4.67,3.58,9.6l.59,3c1.28,6.46,2.27,10.3,3.06,17.08,1.37,11.61,2.12,23.71,2.67,36.28,0,0,.17.07.09.13,4.27,4.21,5.62,12.35,5.24,18.35H42.2c1.4-5,2.92-12.54,4.17-17.83,5-21.48,3.3-27.55.92-55.54-6,.67-9.7,2.49-11.86,9.36l3.9,25.92c.66,5.39-6.45,22.08-6.26,29.29h0a5.06,5.06,0,0,0,.22,1.18l8.65,7.62ZM49.16,104c1.49,0,2.82.07,3.87.13Q52.61,94.35,51.94,85a111.32,111.32,0,0,1-2.78,19Z"/></svg>