<svg xmlns="http://www.w3.org/2000/svg" shape-rendering="geometricPrecision" text-rendering="geometricPrecision" image-rendering="optimizeQuality" fill-rule="evenodd" clip-rule="evenodd" viewBox="0 0 240 512.6"><path d="M27.37.04c16.51-1.03 31.05 16.72 32.5 39.63 1.44 22.92-10.76 42.34-27.26 43.37C16.11 84.07 1.56 66.32.12 43.4-1.33 20.49 10.87 1.07 27.37.04zm-7.63 191.98c9.36 14.81 25.27 27.44 39.58 40.63 46.95 43.26 40.25 76.32 3.7 124.55-18.21 24.03-38.23 49.75-38.31 84.01-.19 80.46 133.93 107.11 148.7 4.5 5.57-38.65 4.61-89.77 36.98-139.85 34.73-53.73 37.1-130.14-13.64-174.25C144.2 85.92 52.54 74.2 16.53 112.28c-15.44 16.33-19.72 43.5 3.21 79.74zm214.7-102.77c6.74 4.29 7.45 15.4 1.59 24.81-5.86 9.41-16.08 13.56-22.82 9.26-6.74-4.29-7.45-15.4-1.58-24.81 5.86-9.41 16.07-13.56 22.81-9.26zm-34.8-34.64c8.72 3.77 11.65 16.68 6.54 28.84-5.11 12.15-16.33 18.95-25.05 15.18-8.72-3.77-11.65-16.69-6.54-28.84 5.12-12.15 16.33-18.95 25.05-15.18zm-50.12-29.77c11.21.92 19.4 14.3 18.27 29.88-1.13 15.57-11.13 27.45-22.35 26.53-11.22-.93-19.4-14.31-18.27-29.88 1.13-15.58 11.13-27.46 22.35-26.53zM96.84 12.59c11.62.51 20.59 14.01 20.04 30.14-.56 16.13-10.43 28.79-22.05 28.27-11.62-.51-20.59-14.01-20.04-30.14.56-16.13 10.43-28.79 22.05-28.27z"/></svg>