<svg id="Layer_1" data-name="Layer 1" xmlns="http://www.w3.org/2000/svg" viewBox="0 0 122.88 104.46"><defs><style>.cls-1{fill-rule:evenodd;}</style></defs><title>smoking</title><path class="cls-1" d="M4,81H118.87a4,4,0,0,1,4,4v15.45a4,4,0,0,1-4,4H4a4,4,0,0,1-4-4V85a4,4,0,0,1,4-4ZM106.3,74.83a3.1,3.1,0,0,1-2.67,3.39,3,3,0,0,1-3-3c-.24-4.13-.56-6.33-1.22-7.55-.51-.94-1.62-1.55-3.45-2.43-2.36-1.14-8.71-1.29-16.11-1.46C62.14,63.38,39,62.85,38.26,46.88c-.43-9.14,7.17-13.59,15.05-18.2,6.15-3.6,12.51-7.33,13.4-12.85l0-.08a5.9,5.9,0,0,0-1.65-5C63.47,9,60.76,7.46,56.64,6.31a3.25,3.25,0,0,1-2.09-3.87A2.85,2.85,0,0,1,58,.09c5.17,1.45,8.74,3.57,11,6.05a12.44,12.44,0,0,1,3.3,10.71l0,.13c-1.4,8.62-9,13.08-16.37,17.38C49.72,38,43.71,41.53,44,46.55c.47,10,20.6,10.5,36,10.85,8,.18,14.9.34,18.25,2,2.86,1.39,4.68,2.46,6,5,1.22,2.23,1.75,5.25,2,10.48Zm15.15-3.07a2.37,2.37,0,1,1-4.68,0c0-18.21-5.16-19-15.55-20.49-1.66-.25-3.43-.51-5.43-.86-4.5-.8-9.29-1.83-13.13-3.88C78.31,44.21,75.23,40.68,75,35c-.19-4.16,1.69-7.8,4.54-10.94a42.56,42.56,0,0,1,9.16-7.21A2.16,2.16,0,0,1,91.82,18a3.05,3.05,0,0,1-1,3.74,38.16,38.16,0,0,0-8.14,6.36c-1.89,2.08-3.14,4.31-3,6.57.14,3.16,2.12,5.27,4.92,6.76,3.3,1.76,7.72,2.7,11.91,3.44,1.81.33,3.62.59,5.31.84,13.15,1.93,19.67,2.88,19.67,26Zm-4.1,13.7a1.86,1.86,0,0,1,1.91,1.92c-.65,7.36-7.06-1.92-1.91-1.92Zm-4,5.65a1.19,1.19,0,0,1,1.23,1.23c-.42,4.74-4.54-1.23-1.23-1.23Zm3.8,5.94a1.13,1.13,0,0,1,1.16,1.15c-.39,4.45-4.27-1.15-1.16-1.15Zm-7.34-11.64a.75.75,0,0,1,.77.77c-.26,3-2.84-.77-.77-.77Zm-78.2-.71h71.22L101,87.48l3.23.29c-1.14,1.58-3.49,2.51-5.31,4,4-.41,3.07,2.64,4.6,4-2.4,3.42,2,3.32,3,5h-75v-16Z"/></svg>