<?xml version="1.0" encoding="utf-8"?><svg version="1.1" id="Layer_1" xmlns="http://www.w3.org/2000/svg" xmlns:xlink="http://www.w3.org/1999/xlink" x="0px" y="0px" viewBox="0 0 122.88 44.72" style="enable-background:new 0 0 122.88 44.72" xml:space="preserve"><g><path d="M88.63,14.55c-0.46,0.03-0.81,0.14-1.06,0.3c-0.15,0.1-0.27,0.23-0.34,0.39c-0.08,0.17-0.12,0.39-0.11,0.63 c0.02,0.72,0.4,1.65,1.12,2.73l0.01,0.02l2.36,3.75c0.95,1.5,1.94,3.04,3.17,4.17c1.18,1.08,2.62,1.82,4.52,1.82 c2.06,0.01,3.56-0.76,4.78-1.9c1.27-1.19,2.27-2.82,3.26-4.45l2.66-4.38c0.55-1.26,0.72-2.04,0.53-2.43 c-0.14-0.29-0.66-0.37-1.51-0.29c-0.82,0.07-0.97-0.51-0.63-1.04l0.6-1.3c-4.86-0.06-8.19-0.91-12.12-3.42 c-1.29-0.83-1.68-1.77-2.98-1.68c-0.98,0.19-1.8,0.63-2.45,1.33c-0.63,0.67-1.1,1.59-1.41,2.77l0.6,3.02 C89.3,14.66,88.96,14.65,88.63,14.55L88.63,14.55L88.63,14.55z M76.11,23.55c0.04,0.03,0.08,0.06,0.12,0.09l0,0l0.01,0.01 l0.01,0.01l0.01,0.01l0.02,0.01l0.01,0.01l0.01,0.01l0.01,0.01l0.01,0.01l0.01,0.01l0,0c0.03,0.04,0.06,0.08,0.09,0.11l0.01,0.01 l0.01,0.02c0.02,0.03,0.04,0.06,0.06,0.09l0,0l0,0.01l0.01,0.03l0,0.01l0.01,0.03l0,0l0.01,0.03l0,0l0.01,0.03l0,0l0.01,0.03v0 l0.01,0.03v0l0.01,0.03l0,0l0.01,0.03l0,0l0.01,0.03l0,0l0.02,0.07l0,0l0.01,0.03l0.01,0.07l0,0l0,0.03l0,0.04l0,0.01l0,0.03l0,0 l0,0.03l0,0l0,0.03l0,0.01l0,0.03v0.01l0,0.03v0.01v0.03v0.01l0,0.03v0.01l0,0.03l0,0.01l0,0.03l0,0.01l0,0.03l0,0.01l0,0.03 l0,0.01l0,0.03l0,0.03l0,0l-0.01,0.07l-0.01,0.03l0,0l-0.02,0.07l0,0l-0.01,0.03l0,0l-0.01,0.03l0,0l-0.01,0.03v0L76.6,25.3v0 l-0.01,0.03l0,0l-0.01,0.03l0,0l-0.01,0.03l0,0l-0.01,0.03l0,0.01l-0.01,0.03l0,0.01l0,0c-0.02,0.03-0.04,0.06-0.06,0.09 l-0.01,0.02l-0.01,0.01c-0.03,0.04-0.06,0.08-0.09,0.12l0,0l-0.01,0.01l-0.01,0.02l-0.01,0.01l-0.01,0.01l-0.01,0.01l-0.02,0.01 l-0.01,0.01l-0.01,0.01l-0.01,0.01l0,0c-0.04,0.03-0.08,0.06-0.12,0.09l-0.01,0.01l0,0l-6.68,4.85c-0.65,0.47-1.57,0.33-2.04-0.33 c-0.47-0.65-0.33-1.57,0.33-2.04l3.05-2.21H51.13l3.05,2.21c0.65,0.47,0.8,1.39,0.33,2.04s-1.39,0.8-2.04,0.33l-6.63-4.82 c-0.41-0.26-0.67-0.72-0.67-1.23c0-0.52,0.27-0.97,0.67-1.23l6.63-4.82c0.65-0.47,1.57-0.33,2.04,0.33 c0.47,0.65,0.33,1.57-0.33,2.04l-3.05,2.22h19.62l-3.05-2.22c-0.65-0.47-0.8-1.39-0.33-2.04c0.47-0.65,1.39-0.8,2.04-0.33 l6.68,4.85l0,0L76.11,23.55L76.11,23.55z M90.67,30.32c3.23,8.9,12.43,8.52,15.27,0c2.76,2.48,8.93,2.98,11.97,4.67 c4.54,2.53,4.43,5.3,4.98,9.73H74.72C76.64,29.29,83.26,36.99,90.67,30.32L90.67,30.32z M109.63,13.69 c0.51,0.16,0.89,0.46,1.12,0.92c0.38,0.77,0.23,1.93-0.51,3.6l0,0c-0.01,0.03-0.02,0.05-0.04,0.08l-2.69,4.43 c-1.04,1.71-2.09,3.42-3.5,4.74c-1.46,1.36-3.25,2.27-5.71,2.27c-2.29-0.01-4.02-0.88-5.43-2.18c-1.37-1.25-2.41-2.86-3.4-4.44 l-2.36-3.75c-0.86-1.29-1.31-2.47-1.34-3.44c-0.01-0.45,0.06-0.87,0.23-1.23c0.18-0.38,0.45-0.7,0.81-0.95 c0.17-0.12,0.36-0.21,0.58-0.29c-0.15-2.03-0.21-2.85-0.11-4.99c0.05-0.51,0.15-1.02,0.29-1.53c0.6-2.15,2.12-3.89,3.99-5.08 c0.66-0.42,1.38-0.77,2.15-1.05c4.53-1.64,10.54-0.74,13.76,2.74c1.31,1.42,2.13,3.3,2.31,5.78L109.63,13.69L109.63,13.69 L109.63,13.69z M13.91,14.55c-0.46,0.03-0.81,0.14-1.06,0.3c-0.15,0.1-0.27,0.23-0.34,0.39c-0.08,0.17-0.12,0.39-0.11,0.63 c0.02,0.72,0.4,1.65,1.12,2.73l0.01,0.02l2.36,3.75c0.95,1.5,1.94,3.04,3.17,4.17c1.18,1.08,2.62,1.82,4.52,1.82 c2.06,0.01,3.56-0.76,4.78-1.9c1.27-1.19,2.27-2.82,3.26-4.45l2.66-4.38c0.55-1.26,0.72-2.04,0.53-2.43 c-0.14-0.29-0.66-0.37-1.51-0.29c-0.86,0.08-0.96-0.53-0.63-1.04l0.6-1.3c-4.86-0.06-8.19-0.91-12.12-3.42 c-1.29-0.82-1.68-1.77-2.98-1.68c-0.98,0.19-1.8,0.63-2.45,1.33c-0.63,0.67-1.1,1.59-1.4,2.77l0.6,3.02 C14.58,14.66,14.24,14.65,13.91,14.55L13.91,14.55L13.91,14.55z M15.95,30.32c2.5,6.68,12.92,7,15.27,0 c2.76,2.48,8.93,2.98,11.97,4.68c4.64,2.59,4.39,5.03,4.98,9.73H0c0.59-4.69,0.34-7.14,4.98-9.73C8.02,33.3,13.19,32.8,15.95,30.32 L15.95,30.32L15.95,30.32z M34.91,13.69c0.51,0.16,0.89,0.46,1.12,0.92c0.38,0.77,0.22,1.93-0.51,3.6l0,0 c-0.01,0.03-0.02,0.05-0.04,0.08l-2.69,4.43c-1.04,1.71-2.09,3.42-3.5,4.74c-1.46,1.36-3.25,2.27-5.71,2.26 c-2.29-0.01-4.02-0.88-5.43-2.17c-1.37-1.25-2.41-2.86-3.4-4.44l-2.36-3.75c-0.86-1.29-1.31-2.47-1.34-3.44 c-0.01-0.46,0.06-0.87,0.23-1.23c0.18-0.38,0.45-0.7,0.81-0.95c0.17-0.12,0.36-0.21,0.58-0.29c-0.15-2.03-0.21-2.85-0.11-4.99 c0.05-0.51,0.15-1.02,0.29-1.53c0.6-2.16,2.12-3.89,3.99-5.08c0.66-0.42,1.38-0.77,2.15-1.05c4.53-1.64,10.54-0.74,13.76,2.74 c1.31,1.42,2.13,3.3,2.31,5.79L34.91,13.69L34.91,13.69L34.91,13.69z"/></g></svg>