<?xml version="1.0" encoding="utf-8"?><svg version="1.1" id="Layer_1" xmlns="http://www.w3.org/2000/svg" xmlns:xlink="http://www.w3.org/1999/xlink" x="0px" y="0px" viewBox="0 0 98.87 122.88" style="enable-background:new 0 0 98.87 122.88" xml:space="preserve"><style type="text/css">.st0{fill-rule:evenodd;clip-rule:evenodd;}</style><g><path class="st0" d="M94.94,11.65c2.63,4.01,4.12,8.81,3.91,14.02c-0.18,4.64-1.69,9.57-4.93,14.54c-0.78,1.2-1.67,2.4-2.66,3.6 c-0.99,1.22-2.06,2.45-3.18,3.65c-1.02,1.09-2.14,2.27-3.34,3.44c-1.17,1.17-2.4,2.37-3.62,3.54c-1.77,1.69-3.41,3.23-4.98,4.67 l-0.05,0.05l-0.03,0.03h-0.03c-1.33,1.25-2.61,2.42-4.77,4.54l-57.51,56.86l-0.13,0.1c-1.59,1.49-3.62,2.22-5.66,2.19 c-2.08-0.03-4.12-0.86-5.68-2.45l-0.1-0.13c-1.49-1.59-2.22-3.62-2.19-5.66c0.03-2.09,0.86-4.14,2.45-5.71l57.54-56.88 c0.36-0.34,1.07-1.02,1.95-1.82l3.13-2.92l0.08-0.05c1.62-1.49,3.28-3.08,4.82-4.54c1.09-1.04,2.16-2.09,3.18-3.1 c1.02-1.04,2.03-2.09,3.02-3.15c0.86-0.94,1.67-1.85,2.4-2.74c0.7-0.86,1.33-1.67,1.8-2.4c1.38-2.11,2.06-4.12,2.22-5.92 c0.16-1.9-0.31-3.6-1.2-4.95c-0.36-0.57-0.81-1.09-1.3-1.56c-0.5-0.5-1.07-0.91-1.67-1.28c-0.6-0.36-1.25-0.65-1.93-0.89 c-0.68-0.23-1.38-0.39-2.11-0.47c-1.93-0.21-3.99,0.18-5.94,1.36c-1.82,1.09-3.54,2.81-5.03,5.34c-1.15,1.93-2.95,3.21-4.95,3.73 s-4.2,0.26-6.13-0.89c-1.93-1.15-3.21-2.95-3.73-4.95c-0.52-2.01-0.26-4.2,0.89-6.12l0.05-0.1c3.18-5.37,7.14-9.12,11.42-11.47 c4.87-2.68,10.14-3.54,15.14-3c1.9,0.21,3.75,0.63,5.53,1.23c1.8,0.6,3.52,1.43,5.16,2.42c1.64,0.99,3.15,2.16,4.51,3.47 c1.36,1.3,2.55,2.74,3.57,4.33L94.94,11.65L94.94,11.65z"/></g></svg>