<svg id="Layer_1" data-name="Layer 1" xmlns="http://www.w3.org/2000/svg" viewBox="0 0 94.88 122.88"><title>stress</title><path d="M19.78,95.62a1.5,1.5,0,0,1-1.15,2.76,12.31,12.31,0,0,0-3.71-.91,17.17,17.17,0,0,0-3,0c0,.77.13,1.53.23,2.28.15,1.16.37,2.36.64,3.58a1.51,1.51,0,0,1-.19,1.11,12.63,12.63,0,0,0-1.45,4.65,3.83,3.83,0,0,0,1,3.09,6.71,6.71,0,0,0,3.56,1.62,26.07,26.07,0,0,0,9-.3,56.84,56.84,0,0,0,10.26-2.82,27.53,27.53,0,0,0,7.19-3.9c1.9-1.52,2.77-4,3.52-6.12l.58-1.61c.91-2.53,2.51-6.93,4.57-8.52a1.49,1.49,0,0,1,1.83,2.36c-1.38,1.06-2.79,4.94-3.6,7.17l-.57,1.58c-.87,2.49-1.9,5.41-4.48,7.47a30.76,30.76,0,0,1-8,4.35q-1.07.41-2.16.78a24.75,24.75,0,0,1-.1,3.22,27.13,27.13,0,0,1-.79,4.3,1.49,1.49,0,1,1-2.88-.77,23.16,23.16,0,0,0,.7-3.81,19.63,19.63,0,0,0,.1-2c-1.94.54-3.86,1-5.67,1.29a28.72,28.72,0,0,1-10.07.3A9.59,9.59,0,0,1,10,114.28a6.67,6.67,0,0,1-1.84-5.37,15.21,15.21,0,0,1,1.59-5.43c-.22-1.07-.41-2.18-.56-3.33s-.28-2.54-.33-3.83l0-.33c-.23-2.42-.26-4.78-.29-7.15v-.68l-3.87-.23a5,5,0,0,1-2.51-.77,4.62,4.62,0,0,1-1.6-1.82A5.25,5.25,0,0,1,0,82.89a8,8,0,0,1,1.39-4.13l4-8.14c2-4,1.94-4.54,1.86-6.65,0-.93-.09-2.14,0-3.94A29.85,29.85,0,0,1,8,53.92a20,20,0,0,1,1.38-4L2,46.75a1.5,1.5,0,0,1-.77-2,1.69,1.69,0,0,1,.19-.32c6.79-8.8,13.87-15,21-19.13l.1,3.44A70.48,70.48,0,0,0,5,44.79L12.2,48a1.51,1.51,0,0,1,.51,2,16,16,0,0,0-1.85,4.62,27.3,27.3,0,0,0-.69,5.5c-.05,1.69,0,2.84,0,3.73.1,2.71.13,3.39-2.16,8.08L3.93,80.31A5.13,5.13,0,0,0,3,83,2.35,2.35,0,0,0,3.19,84a1.58,1.58,0,0,0,.56.64,1.92,1.92,0,0,0,1,.29l4.75.28a1.33,1.33,0,0,1,.45-.08l4.4.36a1.5,1.5,0,0,1-.25,3l-2.6-.16v.47c0,1.91.06,3.8.19,5.7a20.62,20.62,0,0,1,3.52,0,15.77,15.77,0,0,1,4.59,1.11Zm5.9-29.34a2.56,2.56,0,1,0,2.56,2.55,2.55,2.55,0,0,0-2.56-2.55Zm7.76-3.15a1.49,1.49,0,1,1-1.39,2.64,12.18,12.18,0,0,0-5.54-1.26,14.18,14.18,0,0,0-5.91,1.27,1.49,1.49,0,1,1-1.26-2.71,17.22,17.22,0,0,1,7.17-1.54,15.24,15.24,0,0,1,6.93,1.6ZM65.13,93.36a1.49,1.49,0,0,1,3,.3c-.13,1.25-.23,2.47-.29,3.68,16-10.14,20.91-24.85,18.69-38.56a39.47,39.47,0,0,0-1.43-6l2.65-1.5a44.58,44.58,0,0,1,1.72,7c2.45,15.12-3.14,31.32-21.11,42.22a1.48,1.48,0,0,1-.59.2,58.18,58.18,0,0,0,.42,7,53.57,53.57,0,0,0,3,12.34,1.49,1.49,0,1,1-2.79,1.06,56.29,56.29,0,0,1-3.19-13,65.28,65.28,0,0,1-.07-14.68ZM59.42,73.53a1.49,1.49,0,0,1-2.94.54,6.4,6.4,0,0,1,.12-2.84,6.3,6.3,0,0,1,2-3.09A7,7,0,0,1,61.9,66.6a6.88,6.88,0,0,1,3.15.14c2.85.8,4.07,2.24,4.32,4.09A9.52,9.52,0,0,1,68.1,76a71.9,71.9,0,0,1-6.62,11.51c-4.08,5.27-8,7.18-8.65-4A1.49,1.49,0,0,1,54.23,82a1.51,1.51,0,0,1,1.58,1.41c.26,4.87,1.77,4.32,3.31,2.33a70.46,70.46,0,0,0,6.29-11,7.36,7.36,0,0,0,1-3.51c-.09-.65-.7-1.21-2.17-1.63a4,4,0,0,0-1.81-.08,4.08,4.08,0,0,0-1.9.89,3.22,3.22,0,0,0-1.12,3.11ZM70,14.19l-8.23,2L63.78,0,52.33,21.74,60,20.41,57.37,36.67,70,14.19ZM92.43,42.75l-8.51-2.54,11-13.48L72.27,39.92,80,43,68.59,56.24,92.43,42.75ZM40.09,12.17l-6.47,6.41L26.88,2.08l.74,26.84,6.59-5.38,5.91,16.8,0-28.17ZM45.23,19c.9,0,1.81,0,2.7.11l-.15.29A5.11,5.11,0,0,0,47.19,22c-.65,0-1.3-.05-2-.06V19ZM69,26.53A47.83,47.83,0,0,1,75.61,32l-2.67,1.55a44.49,44.49,0,0,0-5.44-4.42L69,26.53Z"/></svg>