<svg id="Layer_1" data-name="Layer 1" xmlns="http://www.w3.org/2000/svg" viewBox="0 0 122.88 110.39"><defs><style>.cls-1{fill-rule:evenodd;}.cls-2{fill:#d92d27;}</style></defs><title>sugar-free</title><path class="cls-1" d="M37.55,76.69l31.2.16c15.09,0,16.06-13.85,45.32-11.64,9.15.69,10.58,8.35,7,10.77-2.68,1.83-5.18-.19-7.8-1a29.14,29.14,0,0,0-6.94-1.36C99.6,73,80,79.48,76.92,85c-8.44,15.16-39.48,11.54-39.37-8.28Zm-26-30.5L8.43,43.57A16.68,16.68,0,0,0,11,40.34a25.05,25.05,0,0,0,1.33-2.58l-1.06-.62L9.94,39c-1.15,1.64-2.25,2.58-3.29,2.84A4.79,4.79,0,0,1,3.11,41Q.4,39.47.06,37.7t1.29-4.59a26,26,0,0,1,3.47-4.78l3.09,2.49a23.4,23.4,0,0,0-2.14,3,19.65,19.65,0,0,0-1.06,2.08l1,.6,1-1.44Q8.65,32.41,10.32,32a4.53,4.53,0,0,1,3.53.62,7.14,7.14,0,0,1,2.05,1.67,4.42,4.42,0,0,1,.91,1.67,3.89,3.89,0,0,1-.09,1.83,9.6,9.6,0,0,1-.62,1.78c-.23.48-.56,1.1-1,1.87a26.34,26.34,0,0,1-3.51,4.79Zm-.2-25.94,8,8.29,1.26-1.2a2.41,2.41,0,0,0,.75-1.05c.06-.27-.1-.61-.49-1l-7-7.35,3.54-3.39,5.95,6.2a16.78,16.78,0,0,1,2.13,2.61,5,5,0,0,1,.76,2.25,3.76,3.76,0,0,1-.6,2.28,12.69,12.69,0,0,1-2.15,2.53,13.23,13.23,0,0,1-2.61,2,3.84,3.84,0,0,1-2.29.49,4.83,4.83,0,0,1-2.22-.86,16.75,16.75,0,0,1-2.52-2.23l-6-6.21,3.54-3.39Zm21.89-3.1L33,16.58l-1.08.62L30,14l5.1-3,4.12,7.07a17.11,17.11,0,0,1-4.65,4q-3.61,2.11-6,1.14a6.07,6.07,0,0,1-2.22-1.57,16.36,16.36,0,0,1-2-2.87,15.11,15.11,0,0,1-1.48-3.2,5.89,5.89,0,0,1-.22-2.72c.24-1.73,1.7-3.37,4.36-4.93A20.29,20.29,0,0,1,29.2,6.82a12.78,12.78,0,0,1,2.16-.75l1.25,3.61a21,21,0,0,0-3.27,1.51,7.26,7.26,0,0,0-1.83,1.35.94.94,0,0,0-.06,1.17l3.49,6,1.4-.81a3.37,3.37,0,0,0,1-.81.83.83,0,0,0-.08-.93Zm11,.34-5,1.16.43-15.81L47,1.13l7.31,14-5,1.16-1.09-2.23L44.27,15v2.49Zm0-10.89V11l2.19-.5-1.92-4-.26.06ZM67.6,15.72l-5.39-.17-1.86-4.61-1.05,0-.15,4.56-4.9-.16L54.74,0l7.71.24c3.51.11,5.21,2,5.1,5.53q-.12,3.68-2.43,4.78l2.48,5.17ZM59.51,4.07l-.1,3.06,1.13,0A3.35,3.35,0,0,0,61.83,7c.28-.12.42-.4.43-.84l0-1a.83.83,0,0,0-.37-.86,3.43,3.43,0,0,0-1.28-.22l-1.13,0ZM81.12,14.21l-4-1.32-1.8,5.39-4.64-1.56L75.58,2.2l9.53,3.19L83.28,8.91,79,7.47l-.65,2,4,1.32-1.16,3.47Zm10.81,13-4.57-2.87.73-4.92-.89-.56L84.77,22.7l-4.14-2.61,8.15-13,6.53,4.11q4.45,2.8,1.6,7.35c-1.3,2.08-2.81,3-4.51,2.89l-.47,5.72ZM90.84,13.06l-1.63,2.59,1,.6a3.25,3.25,0,0,0,1.19.53c.29,0,.56-.12.79-.5l.54-.85a.84.84,0,0,0,.11-.93,3.68,3.68,0,0,0-1-.84l-1-.6Zm12.3,18-3.39-3.54-1.34,1.29,4.15,4.33-2.83,2.72-7.54-7.87,11-10.6,7.46,7.78-3.25,2.27-3.65-3.8L102.31,25l3.4,3.54L103.14,31Zm6.92,11.34-2.47-4.24-1.6.94,3,5.19-3.39,2-5.49-9.42,13.23-7.71,5.43,9.31-3.7,1.45-2.65-4.55-1.78,1,2.47,4.24-3.07,1.79ZM50.9,37.8H61.38a3.28,3.28,0,0,1,3.25,3.25V51.33a3.26,3.26,0,0,1-3.25,3.25H50.9a3.24,3.24,0,0,1-2.3-1l-.12-.14a3.19,3.19,0,0,1-.83-2.15V41.05a3.23,3.23,0,0,1,1-2.29h0a3.27,3.27,0,0,1,2.29-1Zm9.93,19.27H71.32a3.24,3.24,0,0,1,3.24,3.25V70.59a3.23,3.23,0,0,1-1,2.3,3.27,3.27,0,0,1-2.29,1H60.83a3.25,3.25,0,0,1-2.29-1l-.13-.14a3.28,3.28,0,0,1-.83-2.16V60.32a3.24,3.24,0,0,1,1-2.29h0a3.22,3.22,0,0,1,2.28-1ZM71,60.66H61.18v9.59H71V60.66ZM41,57.07H51.45a3.26,3.26,0,0,1,3.25,3.25V70.59a3.26,3.26,0,0,1-3.25,3.25H41a3.27,3.27,0,0,1-2.29-1l-.13-.14a3.28,3.28,0,0,1-.83-2.16V60.32a3.24,3.24,0,0,1,1-2.29h0a3.22,3.22,0,0,1,2.28-1ZM51.1,60.66H41.31v9.59H51.1V60.66ZM61,41.39h-9.8V51H61V41.39Z"/><path class="cls-2" d="M58.76,21.32a44.28,44.28,0,0,1,17,3.38A44.51,44.51,0,0,1,103,60.61,51.8,51.8,0,0,0,94.3,62a35.58,35.58,0,0,0-6.37-16.79L38.09,95A35.79,35.79,0,0,0,90.81,81.7a48.94,48.94,0,0,1,6-2.48c1.7-.46,3.32-.84,4.77-1.1a44.55,44.55,0,1,1-42.82-56.8ZM31.59,89.09,82,38.69a35.75,35.75,0,0,0-50.41,50.4Z"/></svg>