<?xml version="1.0" encoding="utf-8"?><svg version="1.1" id="Layer_1" xmlns="http://www.w3.org/2000/svg" xmlns:xlink="http://www.w3.org/1999/xlink" x="0px" y="0px" viewBox="0 0 126.81 96.71" style="enable-background:new 0 0 126.81 96.71" xml:space="preserve"><style type="text/css">.st0{fill-rule:evenodd;clip-rule:evenodd;fill:#D8453E;}</style><g><path class="st0" d="M60.03,64.6c2.67-1.72,6.18-1.21,8.15,1.21c1.16,1.68,2.51,2.6,4.32,1.61c0.95-0.87,1.67-1.87,2.18-2.98 c1.38-3.01,1.08-8.07,0.3-11.34c-1.27-5.31-2.8-3.46-5.6-1.01c-5.26,4.6-6.09,5.03-12,0.04c-2.02-1.71-3.66-4.28-5.12-0.3 c-1.43,3.9-1.61,9.91,0.46,13.59c1.03,1.84,2.33,2.78,3.84,2.23C58.03,67.11,58.51,65.57,60.03,64.6L60.03,64.6z"/><path d="M24.4,2.26c-0.07-1.08,0.75-2.01,1.84-2.08s2.01,0.75,2.08,1.84c0.24,3.76,0.68,6.78,1.41,9.64 c0.73,2.87,1.76,5.58,3.19,8.71c4.94,10.84,11.63,17.9,18.91,21.36c3.54,1.68,7.21,2.51,10.88,2.52c3.69,0.01,7.39-0.82,10.97-2.45 c7.86-3.58,15.15-11.05,20.45-22.2c1.45-3.06,2.5-5.66,3.19-8.39c0.7-2.74,1.05-5.63,1.12-9.28c0.02-1.08,0.91-1.95,1.99-1.93 c1.08,0.02,1.95,0.91,1.93,1.99c-0.08,4-0.46,7.17-1.23,10.18c-0.76,3.01-1.89,5.83-3.45,9.11c-4.06,8.53-9.25,15.09-15.02,19.59 c0,0.04,0,0.07,0,0.11c-0.14,1.8-0.16,3.73-0.08,5.56c0.08,1.75,0.27,3.41,0.56,4.77c2.67,12.51,11.31,14.31,19.82,16.08 c5.86,1.22,11.67,2.43,16.06,6.67c6.93,6.68,7.18,10.71,7.66,18.57l0.13,2c0.07,1.08-0.75,2.01-1.84,2.08 c-1.08,0.07-2.01-0.75-2.08-1.84l-0.13-2.02c-0.42-6.84-0.63-10.36-6.46-15.97c-3.58-3.45-8.84-4.55-14.14-5.65 c-9.75-2.03-19.66-4.1-22.86-19.11c-0.33-1.55-0.54-3.43-0.64-5.4c-0.05-1.02-0.07-2.05-0.05-3.08c-1.08,0.64-2.18,1.22-3.29,1.72 c-4.1,1.87-8.35,2.81-12.6,2.8c-4.26-0.01-8.5-0.96-12.56-2.89c-0.66-0.31-1.31-0.65-1.96-1.02c0.02,1.06,0,2.14-0.05,3.18 c-0.09,1.92-0.31,3.75-0.64,5.3C44.3,67.76,34.4,69.83,24.65,71.86c-5.31,1.11-10.56,2.2-14.14,5.65 c-5.86,5.64-6.04,8.63-6.46,15.44l-0.12,1.9c-0.07,1.08-1.01,1.9-2.09,1.83c-1.08-0.07-1.9-1.01-1.83-2.09l0.12-1.87 c0.49-7.88,0.7-11.33,7.66-18.04c4.39-4.23,10.2-5.45,16.06-6.67c8.5-1.77,17.15-3.58,19.82-16.08c0.29-1.37,0.48-2.98,0.56-4.67 c0.09-1.76,0.06-3.63-0.08-5.41c-0.01-0.09-0.01-0.17,0-0.25c-5.7-4.34-10.81-10.85-14.79-19.6c-1.54-3.38-2.65-6.3-3.43-9.38 C25.13,9.54,24.66,6.29,24.4,2.26L24.4,2.26z M59.38,56.19c0.18-0.21,0.51-0.25,0.74-0.08c0.23,0.17,0.27,0.47,0.09,0.68 c-0.29,0.34-0.46,0.66-0.47,0.97c-0.01,0.29,0.13,0.6,0.45,0.92c0.2,0.2,0.18,0.51-0.04,0.69c-0.22,0.18-0.55,0.17-0.75-0.03 c-0.51-0.52-0.74-1.05-0.72-1.6C58.7,57.21,58.95,56.69,59.38,56.19L59.38,56.19z M70.88,60.07c-0.17-0.22-0.12-0.52,0.12-0.68 c0.24-0.16,0.57-0.11,0.74,0.11c0.39,0.5,0.61,1.01,0.63,1.53c0.01,0.54-0.19,1.06-0.65,1.58c-0.19,0.21-0.52,0.24-0.74,0.07 c-0.23-0.17-0.26-0.48-0.07-0.68c0.29-0.32,0.41-0.64,0.41-0.94C71.3,60.74,71.15,60.41,70.88,60.07L70.88,60.07z M67.81,60.68 c-0.07-0.26,0.11-0.52,0.4-0.59c0.28-0.06,0.57,0.1,0.64,0.36c0.16,0.61,0.16,1.16-0.05,1.65c-0.21,0.51-0.62,0.92-1.28,1.22 c-0.26,0.12-0.58,0.02-0.71-0.22c-0.13-0.24-0.02-0.53,0.24-0.65c0.4-0.18,0.64-0.42,0.76-0.69C67.92,61.47,67.91,61.1,67.81,60.68 L67.81,60.68z M58.11,60.45c0.07-0.26,0.35-0.42,0.64-0.36c0.28,0.06,0.46,0.33,0.39,0.59c-0.11,0.44-0.13,0.81-0.01,1.11 c0.11,0.27,0.35,0.5,0.76,0.67c0.27,0.11,0.39,0.4,0.27,0.64c-0.12,0.25-0.43,0.35-0.7,0.24c-0.69-0.29-1.11-0.7-1.32-1.21 C57.94,61.64,57.95,61.07,58.11,60.45L58.11,60.45z M55.02,59.51c0.17-0.22,0.5-0.27,0.74-0.11c0.24,0.16,0.29,0.46,0.12,0.68 c-0.27,0.34-0.42,0.68-0.43,0.99c-0.01,0.3,0.12,0.61,0.41,0.94c0.19,0.21,0.16,0.51-0.07,0.69c-0.23,0.17-0.56,0.14-0.75-0.06 c-0.46-0.52-0.66-1.05-0.65-1.58C54.41,60.51,54.64,60,55.02,59.51L55.02,59.51z M70.64,54.93c-0.18-0.21-0.14-0.52,0.09-0.68 c0.23-0.17,0.56-0.13,0.74,0.08c0.4,0.47,0.65,0.96,0.7,1.47c0.05,0.53-0.1,1.07-0.51,1.62c-0.17,0.22-0.5,0.27-0.74,0.12 c-0.24-0.15-0.3-0.46-0.13-0.68c0.26-0.34,0.36-0.67,0.33-0.97C71.09,55.58,70.91,55.25,70.64,54.93L70.64,54.93z M66.19,56.75 c-0.16-0.23-0.09-0.53,0.16-0.67c0.25-0.15,0.57-0.08,0.73,0.15c0.34,0.49,0.55,0.99,0.57,1.51c0.02,0.53-0.16,1.06-0.6,1.58 c-0.18,0.21-0.51,0.25-0.74,0.08c-0.23-0.17-0.27-0.47-0.09-0.68c0.28-0.32,0.39-0.64,0.38-0.94 C66.58,57.44,66.43,57.1,66.19,56.75L66.19,56.75z M55.23,54.38c0.14-0.23,0.46-0.32,0.72-0.19c0.26,0.13,0.35,0.43,0.2,0.66 c-0.23,0.38-0.37,0.74-0.39,1.08c-0.01,0.31,0.09,0.61,0.34,0.91c0.18,0.21,0.14,0.52-0.1,0.68s-0.56,0.12-0.74-0.09 c-0.41-0.49-0.58-1-0.56-1.54C54.73,55.39,54.92,54.89,55.23,54.38L55.23,54.38z M70.14,87.16c-0.57,0.55-1.48,0.53-2.02-0.04 c-0.55-0.57-0.53-1.48,0.04-2.02c5.56-5.36,13.89-6.05,24.78-6.94c1.72-0.14,3.51-0.29,4.33-0.36c0.79-0.07,1.48,0.51,1.55,1.3 c0.07,0.79-0.51,1.48-1.3,1.55c-2.16,0.19-3.26,0.28-4.35,0.37C82.85,81.86,74.96,82.51,70.14,87.16L70.14,87.16z M58.61,85.09 c0.57,0.55,0.59,1.45,0.04,2.02c-0.55,0.57-1.45,0.59-2.02,0.04c-4.82-4.65-12.71-5.3-23.02-6.14c-1.08-0.09-2.19-0.18-4.35-0.37 c-0.79-0.07-1.37-0.76-1.3-1.55c0.07-0.79,0.76-1.37,1.55-1.3c0.82,0.07,2.6,0.22,4.33,0.36C44.72,79.05,53.05,79.73,58.61,85.09 L58.61,85.09z"/></g></svg>