<svg xmlns="http://www.w3.org/2000/svg" shape-rendering="geometricPrecision" text-rendering="geometricPrecision" image-rendering="optimizeQuality" fill-rule="evenodd" clip-rule="evenodd" viewBox="0 0 466 512.13"><path fill="#2E2E2E" d="M232.2 0c86.89 55.07 165.39 81.13 232.75 74.97 11.76 237.97-76.11 378.51-231.85 437.16C82.7 457.24-6.25 322.75.34 71.36 79.42 75.5 157.01 58.41 232.2 0zm-37.49 220.26v46.39h7.03c2.51 0 4.22-.31 5.14-.93.92-.63 1.39-2.07 1.39-4.31v-41.15h19.78v34.72c0 5.61-.36 10.12-1.09 13.55-.72 3.44-2.08 6.34-4.05 8.71-1.98 2.38-4.69 4.03-8.11 4.94-3.43.93-7.89 1.39-13.35 1.39-5.48 0-9.92-.46-13.31-1.39-3.4-.91-6.09-2.56-8.06-4.94-1.99-2.37-3.34-5.27-4.07-8.71-.72-3.43-1.09-7.94-1.09-13.55v-34.72h19.79zm75.48 0h20.87l-15.33 61.83h-28.88l-15.34-61.83h20.88l8.4 39.27h.9l8.5-39.27zM232.34 35.15c73.55 46.62 144.15 72.83 201.17 67.61 9.95 201.45-68.58 324.56-200.4 374.21C105.79 430.5 26.34 312.51 31.92 99.7c73.88 3.88 141.58-18.83 200.42-64.55z"/><path fill="#FCC005" d="m378.09 254.62-39.4 19.03 17.36 29.89-32.86 7.05 12.46 41.33-39.94-11.44-6.03 34.07-31-17.74-17.36 40.34-22.55-37.27-26.73 20.88-10.86-33.13-40.5 16.54 9.22-40.49-34.81-3.81 14.76-30.44-31.56-16.34 24.69-23.94-35.05-24.97 43.22-14.2-12.26-32.02 34.07-1.67-6.52-41.06 38.82 17.94 13.09-32.39 26.08 21.81 22.83-35.97 16.62 40.33 31-14.2 4.64 32.95 41.05-9.03-14.97 40.31 33.7 9.19-20.15 28.31 38.94 20.14zm-50.35-3.25c0-26.54-9.38-49.1-28.13-67.75-18.75-18.66-41.39-28.04-67.84-28.04-26.46 0-49.01 9.38-67.67 28.04-18.66 18.65-28.03 41.21-28.03 67.75 0 26.45 9.37 49.1 28.03 67.95 18.66 18.84 41.21 28.31 67.67 28.31 26.45 0 49.09-9.47 67.84-28.31 18.75-18.85 28.13-41.5 28.13-67.94v-.01z"/></svg>