<svg id="Layer_1" data-name="Layer 1" xmlns="http://www.w3.org/2000/svg" viewBox="0 0 122.88 117.66"><defs><style>.cls-1{fill-rule:evenodd;}</style></defs><title>video-content</title><path class="cls-1" d="M19.75,27.31h83.38A4.71,4.71,0,0,1,107.82,32V66.79a4.71,4.71,0,0,1-4.69,4.68H19.75a4.71,4.71,0,0,1-4.69-4.68V32a4.7,4.7,0,0,1,4.69-4.69Zm8.58,55.35H78.78a.89.89,0,0,1,.89.88v3.29a.88.88,0,0,1-.89.88H28.33a.88.88,0,0,1-.88-.88V83.54a.89.89,0,0,1,.88-.88Zm-10.89,0h4.19a.89.89,0,0,1,.88.88v3.29a.88.88,0,0,1-.88.88H17.44a.88.88,0,0,1-.89-.88V83.54a.89.89,0,0,1,.89-.88Zm.34,14.66h88.4c.68,0,1.23.84,1.23,1.84v.67c0,1-.56,1.84-1.23,1.84H17.78c-.67,0-1.23-.83-1.23-1.84v-.67c0-1,.55-1.84,1.23-1.84ZM117.6,19.43H5.28v93.21H117.6V19.43ZM81.68,6.19a3.93,3.93,0,1,1-3.93,3.93,3.92,3.92,0,0,1,3.93-3.93Zm27.58,0a3.93,3.93,0,1,1-3.93,3.93,3.93,3.93,0,0,1,3.93-3.93Zm-13.79,0a3.93,3.93,0,1,1-3.93,3.93,3.93,3.93,0,0,1,3.93-3.93ZM2.64,0h117.6a2.57,2.57,0,0,1,2.64,2.51V115.15a2.58,2.58,0,0,1-2.64,2.51H2.64A2.58,2.58,0,0,1,0,115.15V2.51A2.57,2.57,0,0,1,2.64,0ZM55,36.73,70.43,47.49a2.26,2.26,0,0,1,.67.64,2.3,2.3,0,0,1-.59,3.2L55.14,62a2.31,2.31,0,0,1-3.77-1.8V38.61h0A2.31,2.31,0,0,1,55,36.73Z"/></svg>