<svg id="Layer_1" data-name="Layer 1" xmlns="http://www.w3.org/2000/svg" viewBox="0 0 122.88 89.92"><defs><style>.cls-1{fill:#e20001;fill-rule:evenodd;}</style></defs><title>wound</title><path class="cls-1" d="M73.28,70.52a19.52,19.52,0,0,0,1.42,4.26,17.12,17.12,0,0,0,2.44,3.43l.47.53a7.18,7.18,0,0,1,2.14,4.77A6.13,6.13,0,0,1,77.85,88a6.46,6.46,0,0,1-9.13,0,6.14,6.14,0,0,1-1.91-4.52A7.18,7.18,0,0,1,69,78.74l.47-.53a16.73,16.73,0,0,0,2.44-3.43,19.52,19.52,0,0,0,1.42-4.26ZM62.66,59A20,20,0,0,0,64,63.22a16.76,16.76,0,0,0,2.28,3.39l.45.52a7.3,7.3,0,0,1,2,4.7,6.19,6.19,0,0,1-1.79,4.47,5.84,5.84,0,0,1-8.55,0,6.19,6.19,0,0,1-1.79-4.47,7.25,7.25,0,0,1,2-4.7l.44-.52a16.44,16.44,0,0,0,2.29-3.39A20,20,0,0,0,62.66,59Zm-4,11.89a.64.64,0,0,1,.56-.7.63.63,0,0,1,.67.59,6.34,6.34,0,0,0,.59,2.33A4,4,0,0,0,62,74.79a.66.66,0,0,1,.21.89.6.6,0,0,1-.84.23,5.41,5.41,0,0,1-2-2.18,7.88,7.88,0,0,1-.73-2.83ZM61,53l11.28-2.27c1.58-.34-2,5.37-7.72,6.53L53.18,59.56C51.6,59.9,55.28,54.14,61,53Zm8,29.57a.66.66,0,1,1,1.31-.11,6.15,6.15,0,0,0,.64,2.36,4.12,4.12,0,0,0,1.63,1.69.66.66,0,0,1,.23.9.64.64,0,0,1-.89.23,5.46,5.46,0,0,1-2.14-2.21A7.63,7.63,0,0,1,69,82.56Z"/><path d="M21.69,69.15a8.46,8.46,0,0,1-.25-2.38,7.48,7.48,0,0,1,.13-1.17c-1.29.15-2.19.29-2.83.39a7.56,7.56,0,0,1-1.52.15,4.05,4.05,0,0,1-1.9-.7l-.76-.39a8.38,8.38,0,0,1-2.42-2.18,8.12,8.12,0,0,1-1.4-2.93,8,8,0,0,1-.25-2.51v0a7.07,7.07,0,0,1,.13-1l-.24.06a8.33,8.33,0,0,1-6.31-.92H4a8.62,8.62,0,0,1-2.39-2.16A8.44,8.44,0,0,1,.26,50.41a8.09,8.09,0,0,1-.17-3.24,8.34,8.34,0,0,1,3.25-5.49,8.3,8.3,0,0,1,2.93-1.41l.28-.07a6.38,6.38,0,0,1-.6-.84,8.73,8.73,0,0,1-1-2.28,8.48,8.48,0,0,1-.17-3.24A8.37,8.37,0,0,1,11,26.93L30.53,22l7.88-2,4.22-1.07c.28-.12.57-.23.88-.33s.65-.21,1-.29l.21,0-2.22-1.33a12.39,12.39,0,0,1-4.29-4,8.69,8.69,0,0,1-1.37-5.1,8,8,0,0,1,.4-2.07,7.7,7.7,0,0,1,.92-1.89,8,8,0,0,1,1.37-1.59,8.62,8.62,0,0,1,1.74-1.22A9.62,9.62,0,0,1,47,.09a13.89,13.89,0,0,1,6,2.38c6.68,4.06,14.05,7.85,20.53,12.06a27.22,27.22,0,0,1,2.81,2,23,23,0,0,1,2,1.77L99,10.16a2.45,2.45,0,0,1,1.23-.06,2.54,2.54,0,0,1,1.1.55L122,41.22a2.51,2.51,0,0,1,.86,1.7,2.47,2.47,0,0,1-.59,1.81,2.59,2.59,0,0,1-.56.49,3.13,3.13,0,0,1-.68.3l-32.1,9.87-5.5,1.81a33.25,33.25,0,0,1-5.56,4.95A21.64,21.64,0,0,1,71,65.23l-1.72.44c-.09-.12-.19-.23-.29-.35l-.47-.56h0c-.44-.53-.85-1.08-1.24-1.65a11.23,11.23,0,0,1-.82-1.39q-.1-.23-.21-.48l3.52-.9a16.33,16.33,0,0,0,5.85-2.88,18.06,18.06,0,0,0,4.52-5,.77.77,0,0,1,.5-.37L115.2,42l-16-26.63C92.47,18,89.76,20.08,83,22.11c-3.64,1.1-5,1.51-6.1,1.26A3.76,3.76,0,0,1,75,22.1a20.17,20.17,0,0,0-4.17-3.3c-6.79-4-13.67-7.92-20.4-12a1.48,1.48,0,0,1-.25-.16l-.05,0a9,9,0,0,0-3.57-1.5,4.67,4.67,0,0,0-3,.4,3.31,3.31,0,0,0-1.26,1.11,2.82,2.82,0,0,0-.5,1.47v.07a3.71,3.71,0,0,0,.72,2.24A7.72,7.72,0,0,0,45,12.6l1.54.92c.7.43,1.49.91,2.2,1.36l0,0c.71.45,1.41.92,2,1.35a12.38,12.38,0,0,1,1.53,1.27,2.54,2.54,0,0,1,.44.54,2.25,2.25,0,0,1,.28.67,2.48,2.48,0,0,1-.29,2,27.86,27.86,0,0,0-.17,4,18.12,18.12,0,0,0,.48,3.63,12.35,12.35,0,0,0,1.1,3,9.05,9.05,0,0,0,1.66,2.27,8.07,8.07,0,0,0,2.06,1.47,8.82,8.82,0,0,0,2.52.77,10.6,10.6,0,0,0,2.27.09,13.3,13.3,0,0,0,2.5-.38.82.82,0,0,1,1,.6l.8,3.31a.82.82,0,0,1-.6,1A20.76,20.76,0,0,1,62.9,41a15.72,15.72,0,0,1-3.24-.13,13.56,13.56,0,0,1-4-1.25,12.62,12.62,0,0,1-3.36-2.41h0a14.12,14.12,0,0,1-2.5-3.39,17.91,17.91,0,0,1-1.59-4.26,24.2,24.2,0,0,1-.57-3.77,27,27,0,0,1-.05-3l-2.24.59c-2.55.87-5.45,1.52-8.07,2.23a.72.72,0,0,1-.29,0L12.21,31.84a3.19,3.19,0,0,0-1.11.54,3.32,3.32,0,0,0-.86,1,3.27,3.27,0,0,0-.43,1.2,3.32,3.32,0,0,0,.07,1.29A3.23,3.23,0,0,0,10.43,37a3.28,3.28,0,0,0,1,.86,3.58,3.58,0,0,0,1.22.44h0a3.08,3.08,0,0,0,1.24-.07l25-6.19a.8.8,0,0,1,1,.59c.2,1.06.55,2.29.82,3.33a.81.81,0,0,1-.58,1l-3.56.9c-10.35,2.59-18.77,4.7-29,7.32a3.42,3.42,0,0,0-1.15.56,3.32,3.32,0,0,0-.86,1l0,0a3.71,3.71,0,0,0-.41,1.17v0a3,3,0,0,0,.07,1.23,3.4,3.4,0,0,0,.55,1.15,3.45,3.45,0,0,0,1,.86,3.3,3.3,0,0,0,1.22.43h0a3.17,3.17,0,0,0,1.22-.07l32.61-8.16a.8.8,0,0,1,1,.59l.86,3.37a.81.81,0,0,1-.58,1L18,54.68a3.28,3.28,0,0,0-1.14.56,3.28,3.28,0,0,0-1.3,2.18,3.2,3.2,0,0,0,.06,1.27,3.09,3.09,0,0,0,.56,1.15,3.36,3.36,0,0,0,1,.87,3.19,3.19,0,0,0,1.21.43,3.26,3.26,0,0,0,1.28-.06L27.71,59c5.77-1.44,11.25-2.87,17-4a.82.82,0,0,1,1,.62c.1.41.18.81.26,1.21a15.56,15.56,0,0,0,.46,1.82.82.82,0,0,1-.5,1L29,63.9a3.19,3.19,0,0,0-1.16.55,3.59,3.59,0,0,0-.86,1,3.3,3.3,0,0,0-.43,1.22v.06a3.38,3.38,0,0,0,.07,1.22,3.12,3.12,0,0,0,.56,1.14,3.32,3.32,0,0,0,1,.87,3.38,3.38,0,0,0,1.21.43,3.27,3.27,0,0,0,1.28-.07l11.92-3,15.36-3.92c-.32.45-.68.92-1.08,1.4l-.45.53a12.29,12.29,0,0,0-2,3.19,8.53,8.53,0,0,0-.38,1.07q-11,2.81-22.09,5.58a8.09,8.09,0,0,1-3.24.17,8.58,8.58,0,0,1-3.08-1.08,8.49,8.49,0,0,1-2.42-2.17,8.38,8.38,0,0,1-1.4-2.93Z"/></svg>