<?xml version="1.0" encoding="utf-8"?><svg version="1.1" id="Layer_1" xmlns="http://www.w3.org/2000/svg" xmlns:xlink="http://www.w3.org/1999/xlink" x="0px" y="0px" viewBox="0 0 122.88 121.11" style="enable-background:new 0 0 122.88 121.11" xml:space="preserve"><g><path d="M47.72,43.84c0.81,0.76,0.85,2.03,0.09,2.84c-0.76,0.81-2.03,0.85-2.84,0.09c-2.95-2.77-6.03-4.32-8.95-4.78 c-2.97-0.46-5.8,0.21-8.12,1.88c-4.82,3.47-6.17,10.67-7.32,16.82l-0.38,2.01l-0.41,2.12c-2.48,12.81-5.16,26.64-14.06,33.13 l0.03,0.01c2.23,1,4.8,1.03,7.37,0.22c2.71-0.86,5.4-2.63,7.72-5.19c1.64-1.81,3.09-4.01,4.24-6.55c0.45-1.01,1.64-1.47,2.65-1.01 c1.01,0.45,1.47,1.64,1.01,2.65c-1.32,2.94-3.01,5.49-4.93,7.61c-2.82,3.11-6.13,5.28-9.48,6.34c-3.49,1.1-7.05,1.03-10.21-0.39 c-1.19-0.53-2.32-1.26-3.36-2.19c-0.23-0.18-0.43-0.42-0.57-0.71c-0.48-1-0.06-2.2,0.94-2.68c9.39-4.56,12.16-18.85,14.71-31.99 l0.41-2.14c0.19-0.98,0.29-1.48,0.38-1.98c1.29-6.87,2.8-14.92,8.93-19.33c3.18-2.29,7.03-3.22,11.07-2.59 C40.33,38.6,44.16,40.49,47.72,43.84L47.72,43.84z M61.32,68.31c1.38-1.44,2.35-2.69,4.48-2.93c4-0.46,7.68,3.64,5.66,7.67 c-0.58,1.15-1.75,2.51-3.04,3.86c-1.42,1.47-2.99,2.91-4.1,4.01l-3.01,2.98l-2.48-2.39c-2.99-2.88-7.86-6.5-8.02-10.98 c-0.11-3.14,2.37-5.16,5.22-5.12C58.59,65.43,59.66,66.7,61.32,68.31L61.32,68.31L61.32,68.31z M61.44,14.32 c4.1,0,7.82,1.66,10.51,4.35c2.69,2.69,4.35,6.4,4.35,10.51c0,4.1-1.66,7.82-4.35,10.5c-2.69,2.69-6.4,4.35-10.51,4.35 s-7.82-1.66-10.51-4.35c-2.69-2.69-4.35-6.4-4.35-10.5c0-4.1,1.66-7.82,4.35-10.51C53.62,15.99,57.34,14.32,61.44,14.32 L61.44,14.32z M69.1,21.52c-1.96-1.96-4.67-3.17-7.66-3.17c-2.99,0-5.7,1.21-7.66,3.17c-1.96,1.96-3.17,4.67-3.17,7.66 c0,2.99,1.21,5.7,3.17,7.66c1.96,1.96,4.67,3.17,7.66,3.17c2.99,0,5.7-1.21,7.66-3.17c1.96-1.96,3.17-4.67,3.17-7.66 C72.27,26.19,71.06,23.48,69.1,21.52L69.1,21.52z M45.4,55.34c2.68-4.1,6.06-6.8,9.67-8.24c2.76-1.1,5.64-1.46,8.43-1.15 c2.79,0.31,5.51,1.3,7.94,2.89c3.4,2.22,6.25,5.62,8.01,10.03c2.94,7.38,2.91,14.15,2.88,20.88c-0.02,5.66-0.05,11.29,1.85,17.03 c0.71,2.16,1.63,4.15,2.76,5.96c1.13,1.81,2.46,3.45,4,4.92c0.72,0.69,0.82,1.79,0.27,2.59c-1.1,1.73-2.59,3.24-4.38,4.54 c-5.94,4.34-15.33,6.37-24.76,6.33c-9.39-0.05-18.93-2.16-25.2-6.12c-2.13-1.34-3.91-2.91-5.21-4.71c-0.65-0.89-0.45-2.15,0.44-2.8 l0.08-0.06l0-0.01c2.06-1.35,3.72-3.16,5.01-5.37c1.34-2.28,2.32-5.01,2.99-8.13c0.97-4.54,0.94-9.66,0.92-14.76 C41.05,70.61,41.01,62.07,45.4,55.34L45.4,55.34z M56.55,50.83c-2.87,1.14-5.59,3.34-7.79,6.7c-3.74,5.73-3.7,13.67-3.66,21.63 c0.03,5.34,0.06,10.69-1,15.61c-0.75,3.52-1.88,6.64-3.46,9.32c-1.22,2.07-2.69,3.86-4.44,5.34c0.8,0.78,1.74,1.5,2.8,2.17 c5.64,3.56,14.38,5.46,23.08,5.51c8.66,0.04,17.17-1.75,22.39-5.56c0.94-0.68,1.76-1.43,2.45-2.24c-1.28-1.37-2.41-2.86-3.4-4.45 c-1.3-2.09-2.36-4.37-3.17-6.83c-2.09-6.32-2.06-12.29-2.04-18.3c0.03-6.34,0.06-12.72-2.6-19.38c-1.43-3.6-3.74-6.36-6.47-8.14 c-1.91-1.25-4.03-2.02-6.2-2.26C60.9,49.7,58.67,49.98,56.55,50.83L56.55,50.83z M43.11,15.54c0.6,0.93,0.34,2.17-0.59,2.77 c-0.93,0.6-2.17,0.34-2.77-0.59c-0.47-0.72-0.83-1.47-1.07-2.25c-0.25-0.79-0.38-1.59-0.38-2.4c0-3.86,2.78-7.25,7.27-9.6 C49.67,1.33,55.29,0,61.44,0c6.15,0,11.77,1.33,15.87,3.48c4.49,2.35,7.27,5.74,7.27,9.6c0,0.39-0.03,0.78-0.09,1.18l-0.01,0.07 c-0.06,0.37-0.14,0.73-0.25,1.08c-0.32,1.06-1.44,1.67-2.51,1.34c-1.06-0.32-1.67-1.44-1.34-2.51c0.06-0.18,0.1-0.36,0.13-0.53 l0.01-0.06c0.03-0.19,0.04-0.38,0.04-0.58c0-2.25-1.95-4.39-5.11-6.04c-3.55-1.86-8.5-3-14.02-3s-10.47,1.15-14.02,3 c-3.15,1.65-5.11,3.8-5.11,6.04c0,0.41,0.06,0.82,0.19,1.21C42.64,14.71,42.84,15.13,43.11,15.54L43.11,15.54z M87.21,93.96 c-0.39-1.04,0.13-2.2,1.16-2.59c1.04-0.39,2.2,0.13,2.59,1.16c0.77,2.01,1.92,3.61,3.43,4.83c1.56,1.25,3.52,2.13,5.86,2.65 c1.08,0.24,1.76,1.31,1.52,2.39c-0.24,1.08-1.31,1.76-2.39,1.52c-2.96-0.66-5.48-1.8-7.51-3.44C89.8,98.81,88.24,96.65,87.21,93.96 L87.21,93.96z M33.01,92.53c0.39-1.04,1.56-1.56,2.59-1.16c1.04,0.4,1.56,1.56,1.16,2.59c-1.03,2.69-2.59,4.86-4.67,6.53 c-2.04,1.64-4.55,2.78-7.51,3.44c-1.08,0.24-2.15-0.44-2.39-1.52c-0.24-1.08,0.44-2.15,1.52-2.39c2.34-0.52,4.31-1.4,5.86-2.65 C31.09,96.14,32.24,94.54,33.01,92.53L33.01,92.53z M77.91,46.76c-0.81,0.76-2.08,0.72-2.84-0.09c-0.76-0.81-0.72-2.08,0.09-2.84 c3.56-3.35,7.39-5.24,11.08-5.82c4.04-0.63,7.89,0.3,11.07,2.59c6.13,4.41,7.64,12.46,8.93,19.33c0.09,0.49,0.19,1,0.38,1.98 l0.41,2.14c2.55,13.14,5.32,27.43,14.71,31.99c1,0.48,1.42,1.68,0.94,2.68c-0.14,0.28-0.33,0.52-0.57,0.71 c-1.04,0.93-2.17,1.65-3.36,2.19c-3.16,1.42-6.72,1.49-10.21,0.39c-3.36-1.06-6.67-3.23-9.48-6.34c-1.92-2.12-3.61-4.67-4.93-7.61 c-0.45-1.01,0-2.2,1.01-2.65c1.01-0.45,2.2,0,2.65,1.01c1.14,2.55,2.6,4.75,4.24,6.56c2.32,2.56,5.01,4.33,7.72,5.19 c2.57,0.81,5.14,0.78,7.37-0.22l0.03-0.01c-8.89-6.5-11.57-20.32-14.06-33.13l-0.41-2.12l-0.38-2.01 c-1.15-6.15-2.5-13.35-7.32-16.82c-2.32-1.67-5.14-2.34-8.12-1.88C83.94,42.44,80.86,43.99,77.91,46.76L77.91,46.76z"/></g></svg>