<?xml version="1.0" encoding="utf-8"?><svg version="1.1" id="Layer_1" xmlns="http://www.w3.org/2000/svg" xmlns:xlink="http://www.w3.org/1999/xlink" x="0px" y="0px" viewBox="0 0 122.88 112.23" style="enable-background:new 0 0 122.88 112.23" xml:space="preserve"><style type="text/css"><![CDATA[
	.st0{fill-rule:evenodd;clip-rule:evenodd;fill:#DE4C3C;}
	.st1{fill:#262626;}
]]></style><g><path class="st1" d="M78.9,4.09C78.9,1.81,81.14,0,83.91,0c2.78,0,5.01,1.85,5.01,4.09v17.96c0,2.27-2.24,4.09-5.01,4.09 c-2.78,0-5.01-1.85-5.01-4.09V4.09L78.9,4.09L78.9,4.09z M39.04,66.93l2.7-2.28l-2.7-2.91h12.12v5.19H39.04L39.04,66.93z M71.71,61.74h12.12l-2.71,2.91l2.71,2.28H71.71V61.74L71.71,61.74z M97.62,33.33l-3.36,10.2l3.67,12.39h-6.05l-2.38-9.68v9.68 h-5.88V33.33h5.88v8.78l2.64-8.78H97.62L97.62,33.33z M81.25,43.18h-5.88v-3.92c0-1.14-0.06-1.85-0.18-2.14 c-0.13-0.28-0.4-0.42-0.82-0.42c-0.48,0-0.78,0.17-0.91,0.51c-0.13,0.35-0.2,1.09-0.2,2.23v10.48c0,1.1,0.07,1.81,0.2,2.15 c0.13,0.33,0.42,0.5,0.87,0.5c0.43,0,0.72-0.17,0.85-0.5c0.13-0.33,0.2-1.12,0.2-2.37v-2.84h5.88v0.88c0,2.34-0.17,4-0.49,4.98 c-0.33,0.98-1.06,1.84-2.19,2.57c-1.13,0.74-2.52,1.1-4.18,1.1c-1.72,0-3.14-0.31-4.26-0.93c-1.11-0.62-1.86-1.48-2.22-2.59 c-0.36-1.1-0.54-2.76-0.54-4.97v-6.6c0-1.63,0.06-2.85,0.17-3.66c0.12-0.81,0.44-1.6,1-2.35c0.55-0.75,1.32-1.35,2.3-1.78 s2.11-0.65,3.38-0.65c1.73,0,3.16,0.33,4.28,1c1.13,0.67,1.86,1.5,2.22,2.5c0.35,1,0.53,2.55,0.53,4.66V43.18L81.25,43.18z M62.93,33.33l3.36,22.59h-6l-0.32-4.05h-2.12l-0.32,4.05h-6.08l2.98-22.59H62.93L62.93,33.33z M59.81,47.86 c-0.28-2.56-0.58-5.73-0.89-9.51c-0.58,4.34-0.95,7.51-1.1,9.51H59.81L59.81,47.86z M46.85,33.33v18.08h3.54v4.51h-9.42V33.33 H46.85L46.85,33.33z M24.95,33.33h5.84c1.85,0,3.25,0.14,4.2,0.43c0.95,0.29,1.72,0.87,2.3,1.75c0.59,0.88,0.88,2.29,0.88,4.25 c0,1.32-0.2,2.24-0.62,2.76c-0.41,0.52-1.23,0.92-2.45,1.2c1.36,0.31,2.28,0.82,2.77,1.53c0.49,0.71,0.73,1.8,0.73,3.28v2.09 c0,1.53-0.18,2.66-0.52,3.39c-0.35,0.73-0.9,1.24-1.66,1.51c-0.76,0.27-2.32,0.4-4.68,0.4h-6.78V33.33L24.95,33.33z M30.83,37.18 v5.03c0.25-0.01,0.44-0.01,0.58-0.01c0.56,0,0.92-0.14,1.08-0.42c0.16-0.29,0.23-1.1,0.23-2.44c0-0.71-0.06-1.2-0.19-1.49 c-0.13-0.28-0.29-0.46-0.5-0.54C31.82,37.24,31.42,37.19,30.83,37.18L30.83,37.18z M30.83,45.72v6.34 c0.81-0.03,1.33-0.16,1.55-0.39c0.22-0.23,0.33-0.81,0.33-1.72v-2.11c0-0.97-0.1-1.56-0.3-1.77 C32.22,45.87,31.69,45.75,30.83,45.72L30.83,45.72z M33.76,4.09C33.76,1.81,36,0,38.77,0c2.78,0,5.01,1.85,5.01,4.09v17.96 c0,2.27-2.24,4.09-5.01,4.09c-2.78,0-5.01-1.85-5.01-4.09V4.09L33.76,4.09L33.76,4.09z M6.56,103.05c0,0.69,0.27,1.35,0.73,1.81 c0.46,0.46,1.08,0.73,1.81,0.73H113.7c0.69,0,1.35-0.27,1.81-0.73c0.46-0.46,0.73-1.08,0.73-1.81c0-27.79,0-55.58,0-83.37 c0-0.69-0.27-1.35-0.73-1.77c-0.46-0.46-1.08-0.73-1.77-0.73H97.53c-1.54,0-2.78-2.28-2.78-3.83c0-1.54,1.23-2.78,2.78-2.78h17.26 c2.24,0,4.24,0.93,5.7,2.39c1.47,1.47,2.39,3.51,2.39,5.7v85.48c0,2.24-0.93,4.24-2.39,5.7c-1.47,1.47-3.51,2.39-5.7,2.39H8.1 c-2.24,0-4.24-0.93-5.7-2.39c-1.47-1.46-2.4-3.51-2.4-5.7V18.66c0-2.24,0.93-4.24,2.39-5.7c1.47-1.47,3.51-2.39,5.7-2.39h17.91 c1.55,0,2.78,1.23,2.78,2.78c0,1.55-1.23,3.83-2.78,3.83H9.15c-0.69,0-1.35,0.27-1.81,0.73c-0.46,0.46-0.73,1.08-0.73,1.81 C6.54,47.49,6.56,75.27,6.56,103.05L6.56,103.05z M51.84,17.13c-1.54,0-2.78-2.28-2.78-3.83c0-1.55,1.23-2.78,2.78-2.78H70.5 c1.54,0,2.78,1.23,2.78,2.78c0,1.54-1.23,3.83-2.78,3.83H51.84L51.84,17.13L51.84,17.13z"/><path class="st0" d="M61.44,61.14c1.77,0,3.2,1.43,3.2,3.2s-1.43,3.2-3.2,3.2c-1.77,0-3.2-1.43-3.2-3.2S59.67,61.14,61.44,61.14 L61.44,61.14z M102.13,72.99l-4.58,15.42v8.75h-5.81v-8.75l-4.43-15.42h5.77c0.89,4.73,1.41,7.91,1.53,9.54 c0.36-2.58,0.94-5.76,1.75-9.54H102.13L102.13,72.99z M85.9,72.99l3.6,24.17h-6.42l-0.34-4.34h-2.27l-0.34,4.34h-6.5l3.19-24.17 H85.9L85.9,72.99z M82.57,88.55c-0.3-2.74-0.62-6.13-0.95-10.18c-0.62,4.64-1.01,8.04-1.18,10.18H82.57L82.57,88.55z M58.17,72.99 h4.7c3.03,0,5.08,0.14,6.15,0.42c1.07,0.28,1.88,0.74,2.44,1.38s0.91,1.34,1.04,2.12c0.14,0.79,0.21,2.32,0.21,4.61v8.46 c0,2.17-0.1,3.62-0.31,4.35c-0.2,0.73-0.56,1.31-1.06,1.72c-0.51,0.41-1.13,0.7-1.88,0.87c-0.74,0.16-1.87,0.25-3.37,0.25h-7.92 V72.99L58.17,72.99z M64.47,77.12v15.92c0.89,0,1.44-0.18,1.65-0.54c0.21-0.37,0.31-1.35,0.31-2.97v-9.4c0-1.09-0.04-1.8-0.1-2.11 c-0.07-0.31-0.22-0.54-0.47-0.68C65.6,77.19,65.14,77.12,64.47,77.12L64.47,77.12z M55.66,72.99v24.17h-6.29V72.99H55.66 L55.66,72.99z M32.91,72.99h4.45c2.96,0,4.97,0.11,6.02,0.34c1.05,0.23,1.9,0.82,2.57,1.76c0.66,0.94,0.99,2.44,0.99,4.5 c0,1.88-0.23,3.14-0.7,3.79c-0.46,0.65-1.39,1.03-2.76,1.16c1.24,0.31,2.08,0.72,2.51,1.24c0.43,0.52,0.69,0.99,0.79,1.43 c0.11,0.43,0.16,1.63,0.16,3.57v6.38H41.1v-8.04c0-1.29-0.1-2.09-0.31-2.4c-0.2-0.31-0.73-0.46-1.59-0.46v10.91h-6.29V72.99 L32.91,72.99z M39.21,77.12v5.38c0.7,0,1.19-0.1,1.47-0.29s0.42-0.82,0.42-1.89v-1.33c0-0.77-0.14-1.27-0.41-1.51 C40.42,77.23,39.92,77.12,39.21,77.12L39.21,77.12z M20.75,72.99h10.63v4.83h-4.34v4.61h3.85v4.58h-3.85v10.15h-6.29V72.99 L20.75,72.99z"/></g></svg>