<?xml version="1.0" encoding="utf-8"?><svg version="1.1" id="Layer_1" xmlns="http://www.w3.org/2000/svg" xmlns:xlink="http://www.w3.org/1999/xlink" x="0px" y="0px" viewBox="0 0 122.88 70.58" style="enable-background:new 0 0 122.88 70.58" xml:space="preserve"><style type="text/css"><![CDATA[
	.st0{fill-rule:evenodd;clip-rule:evenodd;}
]]></style><g><path class="st0" d="M90.43,0c2.55,0,4.86,1.04,6.53,2.71c1.68,1.67,2.71,3.98,2.71,6.53s-1.04,4.86-2.71,6.53 c-1.67,1.68-3.98,2.71-6.53,2.71s-4.86-1.04-6.53-2.71c-1.67-1.67-2.71-3.98-2.71-6.53s1.04-4.86,2.71-6.53 C85.57,1.04,87.88,0,90.43,0L90.43,0L90.43,0z M33.65,2.68c2.4,0,4.56,0.97,6.13,2.54c1.57,1.57,2.55,3.74,2.55,6.13 c0,2.4-0.97,4.56-2.55,6.13c-1.57,1.57-3.74,2.54-6.13,2.54s-4.56-0.97-6.13-2.54c-1.57-1.57-2.54-3.74-2.54-6.13 c0-2.4,0.97-4.56,2.54-6.13C29.08,3.65,31.25,2.68,33.65,2.68L33.65,2.68L33.65,2.68z M17.19,27.75l6.17-4.04 c1.39-0.91,5.19-1.44,8.9-1.47c3.46-0.03,6.95,0.38,8.46,1.31l6.22,4.08l0.93,0.62c0.22,0.15,0.39,0.29,0.54,0.41 c0.19-0.19,0.43-0.41,0.75-0.66l1.03-0.81c0.53-0.41,1.05-0.83,1.57-1.28c0.51-0.43,1.03-0.89,1.55-1.37 c0.45-0.41,0.87-0.81,1.28-1.2c0.08-1.11,0.55-2.2,1.39-3.04l0.06-0.06c0.96-0.93,2.2-1.39,3.44-1.37c1.22,0.01,2.42,0.48,3.34,1.4 l0.06,0.06c0.5,0.52,1.02,1.04,1.54,1.55c0.51,0.5,1.05,1.02,1.63,1.54c0.55,0.51,1.11,1,1.65,1.46c0.55,0.48,1.12,0.93,1.68,1.36 c0.36,0.28,0.73,0.59,1.1,0.86c0.34,0.27,0.6,0.5,0.81,0.7c0.14-0.13,0.31-0.26,0.52-0.41c0.38-0.23,0.74-0.45,1.09-0.69l0,0 l6.58-4.31c1.49-0.97,5.53-1.54,9.48-1.56c3.69-0.03,7.41,0.4,9.01,1.4l6.63,4.34l1,0.66c0.23,0.16,0.42,0.31,0.58,0.44 c0.2-0.2,0.46-0.43,0.8-0.7l1.1-0.86c0.56-0.43,1.12-0.89,1.68-1.36c0.55-0.46,1.09-0.95,1.65-1.46c0.58-0.53,1.12-1.04,1.63-1.54 c0.51-0.5,1-1,1.49-1.5l0.06-0.06c0.93-0.94,2.16-1.44,3.4-1.45c1.21-0.01,2.43,0.42,3.38,1.31l0.07,0.06 c0.95,0.93,1.44,2.16,1.45,3.4c0.01,1.24-0.43,2.48-1.36,3.44c-0.58,0.6-1.17,1.19-1.76,1.77c-0.6,0.6-1.21,1.17-1.8,1.71 c-0.62,0.57-1.26,1.14-1.92,1.7c-0.65,0.55-1.33,1.1-2.05,1.66l-1,0.78c-0.01,0.01-0.11,0.09-0.12,0.09 c-2.51,1.96-3.78,2.95-6.07,3.13h-0.04c-1.27,0.09-2.27-0.1-3.33-0.56c-0.95-0.42-1.88-1.03-3.11-1.85l0.53,7.42h4.51 c1.02,0,1.85,0.83,1.85,1.86v24.06c0,1.02-0.83,1.86-1.85,1.86H23.41c-1.02,0-1.86-0.83-1.86-1.86V44.67 c0-1.02,0.83-1.86,1.86-1.86h2.26l-1.3-8.89c-1.01,0.66-2.13,1.33-3.12,2.04c-1.19,0.79-2.09,1.39-3.01,1.79 c-0.99,0.43-1.93,0.61-3.12,0.53c-1.11-0.08-1.98-0.38-2.91-0.91c-0.83-0.47-1.69-1.14-2.82-2.03c-0.35-0.26-0.71-0.55-1.05-0.82 C7.67,34,7.03,33.48,6.42,32.96c-0.62-0.53-1.22-1.06-1.8-1.59c-0.55-0.51-1.11-1.05-1.69-1.61c-0.55-0.55-1.11-1.1-1.65-1.66 c-0.87-0.9-1.3-2.07-1.28-3.23c0.01-1.14,0.45-2.27,1.31-3.14l0.05-0.05c0.9-0.87,2.07-1.3,3.23-1.28 c1.14,0.01,2.27,0.45,3.14,1.31l0.05,0.05c0.47,0.49,0.95,0.97,1.45,1.45c0.48,0.47,0.99,0.95,1.53,1.45 c0.52,0.48,1.04,0.94,1.55,1.37c0.52,0.45,1.05,0.87,1.57,1.28c0.34,0.27,0.69,0.55,1.03,0.81c0.32,0.25,0.57,0.47,0.76,0.66 c0.13-0.12,0.29-0.25,0.49-0.39C16.53,28.18,16.86,27.97,17.19,27.75L17.19,27.75L17.19,27.75z M59.86,30.89l-0.38,0.35 c-0.58,0.53-1.18,1.07-1.8,1.59c-0.61,0.51-1.25,1.03-1.93,1.56l-0.93,0.73c-0.01,0.01-0.1,0.09-0.11,0.09 c-2.35,1.83-3.55,2.77-5.7,2.94h-0.03c-1.19,0.09-2.13-0.09-3.12-0.53c-0.89-0.39-1.77-0.97-2.92-1.73l0.52,6.92H81.9l-1.34-9.52 c-1.07,0.7-2.27,1.42-3.32,2.18c-1.27,0.85-2.22,1.48-3.21,1.9c-1.05,0.46-2.05,0.65-3.33,0.56c-1.18-0.08-2.11-0.41-3.1-0.97 c-0.88-0.5-1.8-1.22-3-2.16c-0.38-0.28-0.75-0.58-1.12-0.87c-0.73-0.55-1.41-1.11-2.05-1.66C60.89,31.81,60.37,31.35,59.86,30.89 L59.86,30.89z M37.16,58.02l3.71,1.19c-0.25,1.1-0.64,2.03-1.18,2.77c-0.54,0.74-1.2,1.3-2,1.67c-0.79,0.38-1.8,0.57-3.03,0.57 c-1.49,0-2.71-0.23-3.65-0.69c-0.94-0.46-1.76-1.27-2.44-2.42c-0.69-1.15-1.03-2.64-1.03-4.44c0-2.4,0.6-4.25,1.81-5.54 c1.21-1.29,2.91-1.94,5.12-1.94c1.72,0,3.08,0.37,4.07,1.11c0.98,0.74,1.72,1.88,2.2,3.42L37,54.58c-0.13-0.44-0.27-0.76-0.41-0.96 c-0.24-0.34-0.53-0.61-0.87-0.79c-0.34-0.19-0.73-0.28-1.15-0.28c-0.96,0-1.7,0.41-2.21,1.23c-0.39,0.61-0.58,1.56-0.58,2.86 c0,1.61,0.23,2.71,0.69,3.31c0.46,0.6,1.11,0.89,1.94,0.89c0.81,0,1.42-0.24,1.84-0.72C36.67,59.63,36.97,58.93,37.16,58.02 L37.16,58.02z M43.25,49.43h4.23v5.08h4.63v-5.08h4.24v14.54H52.1v-5.89h-4.63v5.89h-4.23V49.43L43.25,49.43z M59.48,49.43h11.32 v3.11h-7.07v2.32h6.56v2.96h-6.56v2.86h7.29v3.29H59.48V49.43L59.48,49.43z M73.6,49.43h11.32v3.11h-7.08v2.32h6.56v2.96h-6.56 v2.86h7.29v3.29H73.6V49.43L73.6,49.43z M87.79,63.97V49.43h7.05c1.31,0,2.31,0.12,3,0.36c0.69,0.24,1.25,0.68,1.67,1.32 c0.42,0.65,0.63,1.44,0.63,2.36c0,0.81-0.16,1.5-0.49,2.09c-0.32,0.59-0.77,1.06-1.34,1.43c-0.36,0.23-0.86,0.42-1.48,0.58 c0.5,0.18,0.87,0.36,1.1,0.53c0.15,0.12,0.38,0.38,0.68,0.76c0.29,0.39,0.49,0.69,0.59,0.9l2.06,4.2h-4.78l-2.26-4.43 c-0.29-0.58-0.54-0.95-0.76-1.12c-0.31-0.22-0.65-0.33-1.04-0.33h-0.37v5.89H87.79L87.79,63.97z M92.03,55.34h1.79 c0.19,0,0.57-0.07,1.12-0.2c0.28-0.06,0.51-0.21,0.69-0.46c0.18-0.25,0.27-0.53,0.27-0.85c0-0.47-0.14-0.83-0.42-1.08 c-0.28-0.25-0.81-0.38-1.58-0.38h-1.86V55.34L92.03,55.34z"/></g></svg>