<?xml version="1.0" encoding="utf-8"?><svg version="1.1" id="Layer_1" xmlns="http://www.w3.org/2000/svg" xmlns:xlink="http://www.w3.org/1999/xlink" x="0px" y="0px" viewBox="0 0 82.45 122.88" style="enable-background:new 0 0 82.45 122.88" xml:space="preserve"><style type="text/css"><![CDATA[
	.st0{fill-rule:evenodd;clip-rule:evenodd;fill:#D9C93C;}
	.st1{fill:#51B53C;}
	.st2{fill:#F15642;}
	.st3{fill-rule:evenodd;clip-rule:evenodd;fill:#B36345;}
	.st4{fill:#F43E30;}
	.st5{fill-rule:evenodd;clip-rule:evenodd;fill:#FFEE58;}
	.st6{fill:#3E9C2A;}
	.st7{fill-rule:evenodd;clip-rule:evenodd;fill:#CD8152;}
]]></style><g><path class="st1" d="M4.78,105.6c-4.85,0.44-5.83-3.38-3.76-6.56l18.48-21.67l-0.54-0.54H9.08c-3.58,0.52-4.92-3.36-2.74-6.08 l19.91-23.37h-5.82c-3.65,0.1-4.54-3.26-2.21-6.41l18.15-21.55c1.24-1.46,2.57-3.63,4.72-3.58c1.85,0.04,2.97,1.8,4.08,3.08 l19.28,22.49c2.09,3.01,0.3,6.16-3.34,6.16h-5.21l19.77,23.17c2.38,2.35,1.16,6.11-1.56,6.62H62.62l17.23,20.24l1.89,2.21 c1.44,1.64,0.72,5.43-2.39,5.79C54.49,105.59,29.64,105.6,4.78,105.6L4.78,105.6z"/><path class="st6" d="M41.14,15.84c1.83,0.06,2.94,1.8,4.04,3.08l19.28,22.49c2.09,3.01,0.3,6.16-3.34,6.16h-5.21l19.77,23.17 c2.38,2.35,1.16,6.11-1.56,6.62H62.62l17.23,20.24l1.89,2.21c1.44,1.64,0.72,5.43-2.39,5.79l-38.21,0.01V15.84L41.14,15.84z"/><polygon class="st3" points="33.71,105.63 48.28,105.63 48.28,122.88 33.71,122.88 33.71,105.63"/><polygon class="st7" points="33.71,105.63 48.28,118.18 48.28,122.88 33.71,122.78 33.71,105.63"/><path class="st2" d="M41.62,0.49l3.93,9.2l9.97,0.89c0.44,0.04,0.76,0.43,0.73,0.87c-0.02,0.21-0.12,0.4-0.27,0.53v0l-7.54,6.58 l2.23,9.76c0.1,0.43-0.17,0.86-0.6,0.96c-0.22,0.05-0.44,0-0.62-0.11l-8.56-5.12l-8.59,5.14c-0.38,0.23-0.87,0.1-1.1-0.28 c-0.11-0.18-0.14-0.39-0.09-0.59h0l2.23-9.76l-7.54-6.58c-0.33-0.29-0.37-0.8-0.08-1.13c0.15-0.17,0.35-0.26,0.56-0.27l9.94-0.89 l3.93-9.2c0.17-0.41,0.64-0.6,1.05-0.42C41.4,0.15,41.55,0.31,41.62,0.49L41.62,0.49L41.62,0.49z"/><path class="st4" d="M48.44,18.57l2.23,9.76c0.1,0.43-0.17,0.86-0.6,0.96c-0.22,0.05-0.44,0-0.62-0.11l-8.56-5.12l-8.59,5.14 c-0.38,0.23-0.87,0.1-1.1-0.28c-0.11-0.18-0.14-0.39-0.09-0.59h0l2.23-9.76l-7.54-6.58c-0.33-0.29-0.37-0.8-0.08-1.13 c0.15-0.17,0.35-0.26,0.56-0.27L48.44,18.57L48.44,18.57z"/><path class="st0" d="M58.82,56.44c2.79,0,5.05,2.26,5.05,5.05s-2.26,5.05-5.05,5.05s-5.05-2.26-5.05-5.05S56.03,56.44,58.82,56.44 L58.82,56.44z"/><path class="st5" d="M58.82,57.73c2.08,0,3.77,1.69,3.77,3.77s-1.69,3.77-3.77,3.77s-3.77-1.69-3.77-3.77S56.74,57.73,58.82,57.73 L58.82,57.73z"/><path class="st0" d="M21.76,56.44c2.79,0,5.05,2.26,5.05,5.05s-2.26,5.05-5.05,5.05c-2.79,0-5.05-2.26-5.05-5.05 S18.97,56.44,21.76,56.44L21.76,56.44z"/><path class="st5" d="M21.76,57.73c2.08,0,3.77,1.69,3.77,3.77s-1.69,3.77-3.77,3.77c-2.08,0-3.77-1.69-3.77-3.77 S19.67,57.73,21.76,57.73L21.76,57.73z"/><path class="st0" d="M66.52,90.96c2.79,0,5.05,2.26,5.05,5.05s-2.26,5.05-5.05,5.05s-5.05-2.26-5.05-5.05S63.73,90.96,66.52,90.96 L66.52,90.96z"/><path class="st5" d="M66.52,92.24c2.08,0,3.77,1.69,3.77,3.77s-1.69,3.77-3.77,3.77c-2.08,0-3.77-1.69-3.77-3.77 S64.44,92.24,66.52,92.24L66.52,92.24z"/><path class="st0" d="M15.47,90.96c2.79,0,5.05,2.26,5.05,5.05s-2.26,5.05-5.05,5.05s-5.05-2.26-5.05-5.05S12.68,90.96,15.47,90.96 L15.47,90.96z"/><path class="st5" d="M15.47,92.24c2.08,0,3.77,1.69,3.77,3.77s-1.69,3.77-3.77,3.77c-2.08,0-3.77-1.69-3.77-3.77 S13.39,92.24,15.47,92.24L15.47,92.24z"/><path class="st0" d="M41,72.74c2.79,0,5.05,2.26,5.05,5.05s-2.26,5.05-5.05,5.05c-2.79,0-5.05-2.26-5.05-5.05S38.21,72.74,41,72.74 L41,72.74z"/><path class="st5" d="M41,74.02c2.08,0,3.77,1.69,3.77,3.77s-1.69,3.77-3.77,3.77s-3.77-1.69-3.77-3.77S38.91,74.02,41,74.02 L41,74.02z"/><path class="st0" d="M41.23,45.12c2.79,0,5.05,2.26,5.05,5.05c0,2.79-2.26,5.05-5.05,5.05s-5.05-2.26-5.05-5.05 C36.18,47.38,38.44,45.12,41.23,45.12L41.23,45.12z"/><path class="st5" d="M41.23,46.4c2.08,0,3.77,1.69,3.77,3.77c0,2.08-1.69,3.77-3.77,3.77s-3.77-1.69-3.77-3.77 C37.46,48.09,39.14,46.4,41.23,46.4L41.23,46.4z"/><path class="st0" d="M41.23,23.41c2.79,0,5.05,2.26,5.05,5.05c0,2.79-2.26,5.05-5.05,5.05s-5.05-2.26-5.05-5.05 C36.18,25.67,38.44,23.41,41.23,23.41L41.23,23.41z"/><path class="st5" d="M41.23,24.69c2.08,0,3.77,1.69,3.77,3.77c0,2.08-1.69,3.77-3.77,3.77s-3.77-1.69-3.77-3.77 C37.46,26.37,39.14,24.69,41.23,24.69L41.23,24.69z"/></g></svg>