<svg xmlns="http://www.w3.org/2000/svg" shape-rendering="geometricPrecision" text-rendering="geometricPrecision" image-rendering="optimizeQuality" fill-rule="evenodd" clip-rule="evenodd" viewBox="0 0 512 444.29"><path d="M264.74 0v25.29h28.76v21.64h-28.76v30.29l130.53 102.15c6.45 5.04 7.59 14.36 2.55 20.81-5.03 6.45-14.35 7.59-20.8 2.56l-8.8-6.89v33.68l135.44 50.75c6.63 2.47 10 9.84 7.53 16.46-2.46 6.63-9.83 10-16.46 7.53l-6.69-2.55v142.57H23.96V301.72l-6.69 2.55c-6.62 2.47-13.99-.9-16.46-7.53-2.47-6.62.9-13.99 7.53-16.46l131.28-49.19V196.6l-8.74 6.9c-6.42 5.07-15.73 3.98-20.8-2.44s-3.98-15.74 2.44-20.81l130.58-103V46.93h-27.71V25.29h27.71V0h21.64zM89.62 316.85c-4.74 0-9.06 1.95-12.2 5.08a17.212 17.212 0 0 0-5.08 12.2v40.28h34.56v-40.28c0-4.74-1.94-9.07-5.08-12.2-3.13-3.13-7.45-5.08-12.2-5.08zm0-10.14c7.55 0 14.41 3.08 19.37 8.05 4.97 4.97 8.06 11.83 8.06 19.37v50.42H62.2v-50.42c0-7.53 3.08-14.38 8.05-19.35v-.02c4.97-4.97 11.83-8.05 19.37-8.05zm-55.51-8.85v136.29h105.51V257.64L34.11 297.86zm224.88-19.29v155.58h44.66V328.04c0-13.67-5.6-26.1-14.61-35.12-7.89-7.88-18.39-13.15-30.05-14.35zm-10.14 155.58V278.57c-11.66 1.2-22.16 6.47-30.04 14.35-9.02 9.02-14.61 21.45-14.61 35.12v106.11h44.65zm109.22-246.24-104.12-81.49-104.18 82.18v245.55h44.28V328.04c0-16.47 6.74-31.44 17.58-42.29 10.85-10.85 25.82-17.58 42.29-17.58s31.44 6.73 42.29 17.58c10.85 10.85 17.58 25.82 17.58 42.29v106.11h44.28V187.91zm64.31 118.8c7.54 0 14.4 3.08 19.37 8.05v.02c4.97 4.97 8.05 11.82 8.05 19.35v50.42h-54.85v-50.42c0-7.54 3.09-14.4 8.06-19.37 4.96-4.97 11.82-8.05 19.37-8.05zm0 10.14c-4.75 0-9.07 1.95-12.2 5.08-3.13 3.13-5.08 7.46-5.08 12.2v40.28h34.56v-40.28c0-4.75-1.94-9.08-5.07-12.21-3.14-3.12-7.47-5.07-12.21-5.07zm-54.16-60.79v178.09h109.67V297.86l-109.67-41.8zm-114.4-98.24c9.51 0 18.13 3.87 24.38 10.12l.05.04c6.25 6.25 10.11 14.87 10.11 24.38s-3.86 18.14-10.11 24.39l-.05.04c-6.25 6.25-14.87 10.12-24.38 10.12s-18.13-3.87-24.39-10.12l-.04-.04c-6.25-6.25-10.12-14.88-10.12-24.39s3.87-18.13 10.12-24.38l.04-.04c6.26-6.25 14.88-10.12 24.39-10.12zm9.02 25.53c-2.3-2.29-5.49-3.71-9.02-3.71-3.53 0-6.72 1.42-9.02 3.71a12.702 12.702 0 0 0-3.71 9.01c0 3.54 1.42 6.73 3.71 9.02 2.3 2.29 5.49 3.71 9.02 3.71 3.53 0 6.72-1.42 9.02-3.71 2.29-2.29 3.7-5.48 3.7-9.02 0-3.53-1.41-6.72-3.7-9.01z"/></svg>