<svg id="Layer_1" data-name="Layer 1" xmlns="http://www.w3.org/2000/svg" viewBox="0 0 122.88 87.93"><defs><style>.cls-1{fill-rule:evenodd;}</style></defs><title>movie-ticket</title><path class="cls-1" d="M3.2,34.79h97.89l1.53,1.34L102,38.94h0a.09.09,0,0,0,0,.05.23.23,0,0,0,.23.23.27.27,0,0,0,.12,0l2.48-1.48,2.47,1.47a.17.17,0,0,0,.12,0,.23.23,0,0,0,.23-.23v-.05L107,36.12l1.53-1.33h11.18a3.22,3.22,0,0,1,3.2,3.21V51.24a10.42,10.42,0,0,0,0,20.25V84.73a3.21,3.21,0,0,1-3.2,3.2H107.17l-.2-.87,2.18-1.9h0a.25.25,0,0,0,.08-.18.23.23,0,0,0-.21-.22l-2.88-.26L105,81.85a.23.23,0,0,0-.21-.14.23.23,0,0,0-.22.14l-1.13,2.65-2.87.25a.23.23,0,0,0-.21.23.24.24,0,0,0,.07.18l2.18,1.9-.2.87H3.2A3.21,3.21,0,0,1,0,84.73V71.56a10.42,10.42,0,0,0,8.32-10.2A10.42,10.42,0,0,0,0,51.16V38a3.21,3.21,0,0,1,3.2-3.21Zm27.47,27.9L31,65.94a8.14,8.14,0,0,1-3.05.5A9.11,9.11,0,0,1,25,66.05a3.6,3.6,0,0,1-1.75-1.21,4.82,4.82,0,0,1-.89-2,12.68,12.68,0,0,1-.25-2.76,12.94,12.94,0,0,1,.25-2.78,4.76,4.76,0,0,1,.89-2c.82-1.07,2.34-1.6,4.54-1.6a11.63,11.63,0,0,1,1.73.14,6.22,6.22,0,0,1,1.48.36l-.58,3a11,11,0,0,0-2.3-.27,3.73,3.73,0,0,0-1.45.19.78.78,0,0,0-.41.77V63a7.86,7.86,0,0,0,1.53.15,8.48,8.48,0,0,0,2.92-.46Zm2.08,3.46V54.07h3.87V66.15Zm13.33,0-3-4.29a2.09,2.09,0,0,1-.19-.93h-.08v5.22H39V54.07h3.63l3,4.29a2,2,0,0,1,.19.93h.08V54.07h3.87V66.15Zm13.74-4.56H56v1.47h4.74v3.09h-8.6V54.07h8.5l-.48,3.09H56v1.62h3.87v2.81Zm6.51,4.56h-4L63,54.07h5l1.51,6.14h.13l1.51-6.14h5L77,66.15H73l-.23-5.86h-.14l-1.47,5.86h-3l-1.49-5.86h-.12l-.23,5.86Zm15.44,0H77.69l3.13-12.08h6l3.13,12.08H85.85l-.45-1.91H82.21l-.44,1.91Zm1.93-8.37-.79,3.38h1.78l-.78-3.38ZM20.29.13l99.15,29.73A3.25,3.25,0,0,1,121.08,31H74L32.89,17.39A3.7,3.7,0,0,0,28.28,20L25.22,31H16.06A10.41,10.41,0,0,0,12.81,15L16.34,2.35A3.2,3.2,0,0,1,20.29.13ZM105,64.87l1.13,2.65,2.88.26a.23.23,0,0,1,.13.4h0L107,70.08l.65,2.81v0a.23.23,0,0,1-.23.24.25.25,0,0,1-.12,0l-2.47-1.48-2.48,1.48a.28.28,0,0,1-.12,0A.23.23,0,0,1,102,73a.13.13,0,0,1,0-.06h0l.64-2.81-2.18-1.9a.22.22,0,0,1-.07-.17.23.23,0,0,1,.21-.23l2.87-.26,1.13-2.65a.23.23,0,0,1,.22-.14.23.23,0,0,1,.21.14Zm0-17,1.13,2.65,2.88.26a.23.23,0,0,1,.21.23.21.21,0,0,1-.08.17h0L107,53.1l.65,2.81V56a.23.23,0,0,1-.23.23.25.25,0,0,1-.12,0l-2.47-1.48-2.48,1.49-.12,0A.23.23,0,0,1,102,56a.07.07,0,0,1,0,0h0l.64-2.82-2.18-1.9a.21.21,0,0,1-.07-.17.23.23,0,0,1,.21-.23l2.87-.26,1.13-2.65a.25.25,0,0,1,.22-.14.24.24,0,0,1,.21.14Zm-85-.81h71.8a3.75,3.75,0,0,1,3.74,3.73V69.93a3.76,3.76,0,0,1-3.74,3.74H20a3.75,3.75,0,0,1-3.73-3.74V50.81A3.74,3.74,0,0,1,20,47.08Z"/></svg>