<?xml version="1.0" encoding="utf-8"?><svg version="1.1" id="Layer_1" xmlns="http://www.w3.org/2000/svg" xmlns:xlink="http://www.w3.org/1999/xlink" x="0px" y="0px" viewBox="0 0 122.88 118.08" style="enable-background:new 0 0 122.88 118.08" xml:space="preserve"><g><path d="M90.08,96.01c0.12,0,0.24,0.01,0.35,0.03c0.76-1.32,1.45-2.71,2.07-4.16c0.01-0.03,0.03-0.06,0.04-0.08 c0.94-2.21,1.64-4.51,2.12-6.89c0.37-1.85,0.6-3.74,0.68-5.68H84.18c-0.2,5.67-1.9,11.26-5.05,16.77H90.08L90.08,96.01L90.08,96.01 z M21.25,40.44H20.6c0-5.32-1.99-9.96-5.96-13.93c-3.97-3.97-8.62-5.96-13.93-5.96V19.9c5.32,0,9.96-1.99,13.93-5.97 C18.61,9.94,20.6,5.3,20.6,0h0.65c0,5.32,1.99,9.96,5.96,13.93c3.97,3.97,8.62,5.96,13.94,5.96v0.65c-5.32,0-9.96,1.99-13.94,5.96 C23.24,30.48,21.25,35.13,21.25,40.44L21.25,40.44L21.25,40.44z M9.43,64.79h-0.3c0-2.43-0.91-4.57-2.74-6.39 C4.57,56.57,2.44,55.66,0,55.66v-0.3c2.44,0,4.57-0.91,6.39-2.74c1.82-1.83,2.74-3.96,2.74-6.38h0.3c0,2.44,0.91,4.57,2.73,6.39 c1.82,1.82,3.95,2.74,6.39,2.74v0.3c-2.43,0-4.57,0.91-6.39,2.73C10.33,60.22,9.43,62.35,9.43,64.79L9.43,64.79L9.43,64.79z M113.75,92.27h-0.3c0-2.43-0.91-4.57-2.73-6.39c-1.82-1.82-3.95-2.73-6.39-2.73v-0.3c2.43,0,4.57-0.91,6.39-2.74 c1.82-1.83,2.73-3.96,2.73-6.38h0.3c0,2.44,0.92,4.57,2.74,6.39c1.82,1.82,3.95,2.74,6.39,2.74v0.3c-2.43,0-4.57,0.91-6.39,2.74 C114.66,87.7,113.75,89.83,113.75,92.27L113.75,92.27L113.75,92.27z M97.64,45.05H97.1c0-4.46-1.67-8.36-5-11.7 c-3.33-3.33-7.23-5-11.69-5v-0.54c4.46,0,8.36-1.67,11.69-5.01c3.34-3.34,5-7.24,5-11.69h0.54c0,4.46,1.67,8.36,5,11.69 c3.33,3.33,7.23,5,11.69,5v0.54c-4.46,0-8.36,1.67-11.69,5C99.31,36.7,97.64,40.6,97.64,45.05L97.64,45.05L97.64,45.05z M55.7,6.46 h5.27v27.4h2.9l0.67,3.42c0.66,0.1,1.31,0.21,1.95,0.34c2.6,0.52,5.13,1.3,7.58,2.35c0.03,0.01,0.07,0.02,0.1,0.04 c2.45,1.05,4.76,2.3,6.92,3.76c2.16,1.45,4.16,3.09,5.99,4.93c1.84,1.83,3.48,3.83,4.93,5.99c1.45,2.17,2.7,4.47,3.76,6.92h0 l0,0.01c1.06,2.48,1.86,5.04,2.38,7.67c0.53,2.64,0.79,5.36,0.79,8.16c0,2.8-0.26,5.52-0.79,8.16c-0.52,2.6-1.3,5.13-2.34,7.58 c-0.01,0.03-0.03,0.07-0.04,0.1c-1.05,2.45-2.3,4.76-3.76,6.92c-1.45,2.16-3.09,4.16-4.93,5.99c-1.83,1.84-3.83,3.49-5.99,4.93 c-2.16,1.45-4.47,2.71-6.92,3.76v0l-0.01,0c-2.49,1.06-5.04,1.86-7.67,2.38c-2.64,0.53-5.36,0.79-8.15,0.79 c-2.8,0-5.52-0.26-8.16-0.79c-2.6-0.52-5.13-1.3-7.59-2.34c-0.03-0.01-0.06-0.02-0.1-0.04c-2.45-1.05-4.76-2.3-6.92-3.76 c-2.16-1.45-4.16-3.09-5.99-4.93c-1.84-1.83-3.48-3.83-4.93-5.99c-1.45-2.17-2.7-4.47-3.76-6.92l0,0l0-0.01 c-1.06-2.48-1.86-5.04-2.38-7.68c-0.53-2.64-0.79-5.36-0.79-8.15c0-2.8,0.26-5.51,0.79-8.15c0.52-2.6,1.3-5.13,2.35-7.59 c0.01-0.03,0.02-0.06,0.04-0.1c1.05-2.45,2.3-4.76,3.76-6.92c1.45-2.16,3.09-4.16,4.93-5.99c1.83-1.84,3.83-3.48,5.99-4.93 c2.17-1.45,4.47-2.7,6.92-3.76l0,0l0,0c2.49-1.06,5.05-1.85,7.68-2.38l0,0c0.65-0.13,1.3-0.24,1.95-0.34l0.67-3.42h2.9V6.46 L55.7,6.46z M53.55,114.23c-5.76-4.82-10.36-9.71-13.78-14.66H28.53c1.08,1.46,2.26,2.84,3.56,4.13l0.01,0.01l0,0 c1.67,1.68,3.49,3.17,5.45,4.49c1.96,1.31,4.08,2.46,6.35,3.44c0.03,0.01,0.06,0.03,0.08,0.04c2.21,0.94,4.51,1.65,6.89,2.12 C51.75,113.97,52.65,114.11,53.55,114.23L53.55,114.23L53.55,114.23z M21.31,75.67h11.24c0.41-5.55,2.26-11.14,5.56-16.77h-11.9 c-0.75,1.31-1.43,2.68-2.05,4.12c-0.01,0.03-0.03,0.06-0.04,0.08c-0.94,2.21-1.64,4.51-2.12,6.89 C21.62,71.84,21.4,73.74,21.31,75.67L21.31,75.67L21.31,75.67z M62.86,40.65c5.57,4.92,10.04,9.82,13.42,14.69h11.86 c-1.08-1.46-2.26-2.84-3.56-4.13l-0.01-0.01l0,0c-1.67-1.68-3.49-3.17-5.45-4.49c-1.96-1.31-4.08-2.46-6.35-3.44 c-0.03-0.01-0.06-0.03-0.08-0.04c-2.21-0.94-4.51-1.65-6.89-2.12C64.83,40.92,63.85,40.77,62.86,40.65L62.86,40.65L62.86,40.65z M90.45,58.9h-11.9c3.3,5.63,5.15,11.22,5.56,16.77h11.24c-0.09-1.94-0.32-3.83-0.68-5.68c-0.48-2.41-1.2-4.74-2.16-6.97l0,0 C91.89,61.58,91.21,60.21,90.45,58.9L90.45,58.9L90.45,58.9z M60.11,42.96v12.38H71.9C68.8,51.26,64.88,47.13,60.11,42.96 L60.11,42.96L60.11,42.96z M60.11,79.23v16.77h14.88c3.52-5.55,5.42-11.14,5.64-16.77H60.11L60.11,79.23L60.11,79.23z M60.11,99.57 v12.53c5.05-4.15,9.19-8.33,12.39-12.53H60.11L60.11,99.57L60.11,99.57z M56.55,112.1V99.57H44.16 C47.36,103.77,51.49,107.95,56.55,112.1L56.55,112.1L56.55,112.1z M56.55,96.01V79.23H36.03c0.23,5.63,2.12,11.22,5.64,16.77H56.55 L56.55,96.01L56.55,96.01z M56.55,75.67V58.9H42.27c-3.66,5.67-5.7,11.27-6.16,16.77H56.55L56.55,75.67L56.55,75.67z M56.55,55.34 V42.96c-4.76,4.17-8.69,8.3-11.79,12.38H56.55L56.55,55.34L56.55,55.34z"/></g></svg>