<svg id="Layer_1" data-name="Layer 1" xmlns="http://www.w3.org/2000/svg" viewBox="0 0 73.97 122.88"><defs><style>.cls-1{fill-rule:evenodd;}</style></defs><title>coffin</title><path class="cls-1" d="M22.26,0H51.37a2.14,2.14,0,0,1,1.94,1.23L73.68,35.91a2.13,2.13,0,0,1,.23,1.57L55.17,121.2a2.13,2.13,0,0,1-2.08,1.67H20.54a2.15,2.15,0,0,1-2.11-1.78L.05,37.44a2.12,2.12,0,0,1,.3-1.62L20.41,1.07A2.18,2.18,0,0,1,22.26,0Zm4.81,13.7H46.61a.55.55,0,0,1,.48.3L60.82,37.59a.55.55,0,0,1,.07.37l-14.4,74a.53.53,0,0,1-.52.44H27.72a.54.54,0,0,1-.54-.47L13.09,38a.5.5,0,0,1,.07-.38L26.61,14a.52.52,0,0,1,.46-.27ZM50.15,4.28H23.49L4.41,37.34,22.26,118.6H51.38L69.57,37.35,50.15,4.28ZM34.85,26.83h4.28a.31.31,0,0,1,.3.31v6.64h7.09a.31.31,0,0,1,.31.31v4.28a.31.31,0,0,1-.31.3H39.43V57a.31.31,0,0,1-.3.31H34.85a.3.3,0,0,1-.3-.31V38.67h-7.1a.31.31,0,0,1-.3-.3V34.09a.31.31,0,0,1,.3-.31h7.1V27.14a.3.3,0,0,1,.3-.31Z"/></svg>