<svg id="Layer_1" data-name="Layer 1" xmlns="http://www.w3.org/2000/svg" viewBox="0 0 122.73 122.88"><title>cracker</title><path d="M8.84,62.24,0,3.18A2.78,2.78,0,0,1,2.38,0a2.75,2.75,0,0,1,.81,0l59,9a2.78,2.78,0,0,1,1.56,4.71l-8.82,8.82,64,64a2.77,2.77,0,0,1,0,3.93l-12.34,12.35,15.36,15.35a2.79,2.79,0,0,1-3.94,3.94l-15.35-15.36L90.28,119.05a2.77,2.77,0,0,1-3.93,0l-64-64-8.82,8.82a2.78,2.78,0,0,1-4.73-1.67Zm74.05,45.49,18.33-31-8-8-18.33,31,8,8.06Zm22.39-27L87,111.78l1.37,1.37L113,88.47l-7.72-7.72ZM70.78,95.62l18.33-31-8-8-18.33,31,8.05,8.06ZM58.67,83.51,77,52.47l-8-8-18.33,31,8.05,8.06ZM46.56,71.4l18.34-31-8.06-8-18.33,31,8.05,8.06ZM34.45,59.29l18.33-31L51,26.47,26.32,51.16l8.13,8.13ZM6.08,6.09l7.46,50,6.88-6.88L49,20.57l6.9-6.89L6.08,6.09Z"/></svg>