<?xml version="1.0" encoding="utf-8"?><svg version="1.1" id="Layer_1" xmlns="http://www.w3.org/2000/svg" xmlns:xlink="http://www.w3.org/1999/xlink" x="0px" y="0px" viewBox="0 0 122.88 112.23" style="enable-background:new 0 0 122.88 112.23" xml:space="preserve"><style type="text/css"><![CDATA[
	.st0{fill:#262626;}
	.st1{fill-rule:evenodd;clip-rule:evenodd;fill:#3479D9;}
]]></style><g><path class="st0" d="M78.9,4.09C78.9,1.81,81.14,0,83.91,0c2.78,0,5.01,1.85,5.01,4.09v17.96c0,2.27-2.24,4.09-5.01,4.09 c-2.78,0-5.01-1.85-5.01-4.09V4.09L78.9,4.09L78.9,4.09z M38.38,66.46l1.85-1.88l-1.85-2.38H52.4v4.26H38.38L38.38,66.46z M70.49,62.2H84.5l-1.85,2.38l1.85,1.88H70.49V62.2L70.49,62.2z M83.45,33.31h4.15c2.77,0,4.65,0.1,5.63,0.32 c0.98,0.21,1.78,0.76,2.4,1.64c0.62,0.88,0.93,2.28,0.93,4.2c0,1.76-0.22,2.94-0.66,3.54c-0.43,0.6-1.29,0.97-2.58,1.08 c1.16,0.29,1.95,0.68,2.35,1.16c0.4,0.48,0.65,0.93,0.74,1.33c0.1,0.4,0.15,1.52,0.15,3.34v5.96H91.1v-7.52 c0-1.21-0.09-1.96-0.29-2.25c-0.19-0.29-0.68-0.43-1.49-0.43V55.9h-5.88V33.31L83.45,33.31z M89.33,37.17v5.03 c0.66,0,1.11-0.09,1.38-0.27s0.39-0.77,0.39-1.77v-1.24c0-0.72-0.13-1.19-0.38-1.41C90.47,37.28,90,37.17,89.33,37.17L89.33,37.17z M71.58,33.31h9.8v4.51h-3.91v4.31h3.66v4.28h-3.66v4.97h4.31v4.51h-10.2V33.31L71.58,33.31z M55.82,33.31h5.84 c1.85,0,3.25,0.14,4.2,0.43c0.95,0.29,1.72,0.87,2.3,1.75c0.59,0.88,0.88,2.29,0.88,4.25c0,1.32-0.21,2.24-0.62,2.76 c-0.41,0.52-1.23,0.92-2.45,1.2c1.36,0.31,2.28,0.82,2.77,1.53c0.49,0.71,0.73,1.8,0.73,3.28v2.09c0,1.53-0.18,2.66-0.52,3.39 c-0.35,0.73-0.9,1.24-1.66,1.51c-0.76,0.27-2.32,0.4-4.68,0.4h-6.78V33.31L55.82,33.31z M61.7,37.17v5.03 c0.25-0.01,0.44-0.01,0.58-0.01c0.56,0,0.92-0.14,1.08-0.42c0.16-0.29,0.23-1.1,0.23-2.44c0-0.71-0.06-1.2-0.19-1.49 c-0.13-0.28-0.29-0.46-0.5-0.54C62.69,37.22,62.29,37.18,61.7,37.17L61.7,37.17z M61.7,45.71v6.34c0.81-0.03,1.33-0.16,1.55-0.39 s0.33-0.81,0.33-1.72v-2.11c0-0.97-0.1-1.56-0.3-1.77C63.08,45.85,62.55,45.74,61.7,45.71L61.7,45.71z M54.81,33.31l-4.28,14.41 v8.18H45.1v-8.18l-4.14-14.41h5.39c0.83,4.42,1.31,7.39,1.43,8.91c0.34-2.41,0.88-5.38,1.64-8.91H54.81L54.81,33.31z M40.2,43.17 h-5.88v-3.92c0-1.14-0.06-1.85-0.19-2.14c-0.12-0.28-0.4-0.42-0.82-0.42c-0.48,0-0.78,0.17-0.91,0.51c-0.13,0.35-0.2,1.09-0.2,2.23 v10.48c0,1.1,0.07,1.81,0.2,2.15c0.13,0.33,0.42,0.5,0.87,0.5c0.43,0,0.72-0.17,0.85-0.5c0.13-0.33,0.2-1.12,0.2-2.37v-2.84h5.88 v0.88c0,2.34-0.17,4-0.5,4.98c-0.33,0.98-1.06,1.84-2.19,2.57c-1.13,0.74-2.52,1.1-4.18,1.1c-1.72,0-3.14-0.31-4.25-0.93 c-1.11-0.62-1.86-1.49-2.22-2.59c-0.36-1.1-0.54-2.76-0.54-4.97v-6.6c0-1.63,0.06-2.85,0.17-3.66c0.11-0.81,0.44-1.6,1-2.35 c0.55-0.75,1.32-1.35,2.3-1.78s2.11-0.65,3.38-0.65c1.73,0,3.16,0.33,4.28,1c1.12,0.67,1.86,1.5,2.22,2.5 c0.35,1,0.53,2.55,0.53,4.66V43.17L40.2,43.17z M33.76,4.09C33.76,1.81,36,0,38.77,0c2.78,0,5.01,1.85,5.01,4.09v17.96 c0,2.27-2.24,4.09-5.01,4.09c-2.78,0-5.01-1.85-5.01-4.09V4.09L33.76,4.09L33.76,4.09z M6.56,103.05c0,0.69,0.27,1.35,0.73,1.81 c0.46,0.46,1.08,0.73,1.81,0.73H113.7c0.69,0,1.35-0.27,1.81-0.73c0.46-0.46,0.73-1.08,0.73-1.81c0-27.79,0-55.58,0-83.37 c0-0.69-0.27-1.35-0.73-1.77c-0.46-0.46-1.08-0.73-1.77-0.73h-16.2c-1.55,0-2.78-2.28-2.78-3.83c0-1.54,1.23-2.78,2.78-2.78h17.25 c2.24,0,4.24,0.93,5.7,2.39c1.47,1.47,2.39,3.51,2.39,5.7v85.48c0,2.24-0.93,4.24-2.39,5.7c-1.47,1.47-3.51,2.39-5.7,2.39H8.1 c-2.24,0-4.24-0.93-5.7-2.39c-1.47-1.46-2.4-3.51-2.4-5.7V18.66c0-2.24,0.93-4.24,2.39-5.7c1.47-1.47,3.51-2.39,5.7-2.39h17.91 c1.55,0,2.78,1.23,2.78,2.78c0,1.55-1.23,3.83-2.78,3.83H9.15c-0.69,0-1.35,0.27-1.81,0.73c-0.46,0.46-0.73,1.08-0.73,1.81 C6.54,47.49,6.56,75.27,6.56,103.05L6.56,103.05z M51.84,17.13c-1.55,0-2.78-2.28-2.78-3.83c0-1.55,1.23-2.78,2.78-2.78H70.5 c1.55,0,2.78,1.23,2.78,2.78c0,1.54-1.23,3.83-2.78,3.83H51.84L51.84,17.13L51.84,17.13z"/><path class="st1" d="M34.24,73.91v22.28h-5.07l-0.01-15.04l-2.01,15.04h-3.55l-2.13-14.7l-0.01,14.7h-5.07V73.91h7.49 c0.21,1.35,0.44,2.93,0.69,4.75l0.82,5.66l1.32-10.4H34.24L34.24,73.91z M61.44,61.13c1.77,0,3.2,1.43,3.2,3.2s-1.43,3.2-3.2,3.2 c-1.77,0-3.2-1.43-3.2-3.2S59.67,61.13,61.44,61.13L61.44,61.13z M106.5,73.91l-4.22,14.21v8.07h-5.35v-8.07l-4.08-14.21h5.32 c0.82,4.36,1.29,7.29,1.41,8.79c0.33-2.38,0.87-5.3,1.61-8.79H106.5L106.5,73.91z M91.79,73.91l3.31,22.28h-5.92l-0.31-4h-2.09 l-0.31,4h-6l2.94-22.28H91.79L91.79,73.91z M88.71,88.25c-0.28-2.53-0.57-5.65-0.88-9.38c-0.57,4.28-0.93,7.41-1.09,9.38H88.71 L88.71,88.25z M66.47,73.91h4.33c2.79,0,4.69,0.13,5.67,0.38c0.99,0.26,1.74,0.68,2.25,1.27s0.84,1.24,0.96,1.96 c0.13,0.72,0.19,2.14,0.19,4.25v7.8c0,2-0.09,3.34-0.28,4.01c-0.19,0.68-0.52,1.21-0.98,1.59c-0.47,0.38-1.05,0.64-1.74,0.8 c-0.69,0.15-1.72,0.23-3.11,0.23h-7.3V73.91L66.47,73.91z M72.28,77.71v14.68c0.82,0,1.33-0.17,1.52-0.5 c0.19-0.34,0.29-1.25,0.29-2.74v-8.67c0-1.01-0.03-1.66-0.09-1.94c-0.07-0.29-0.21-0.49-0.44-0.63 C73.32,77.78,72.9,77.71,72.28,77.71L72.28,77.71z M64.4,73.91v22.28h-5.07l-3.01-10.13v10.13h-4.85V73.91h4.85l3.24,10.03V73.91 H64.4L64.4,73.91z M49.54,86.97c0,2.24-0.05,3.82-0.16,4.75c-0.1,0.94-0.43,1.79-0.99,2.55s-1.31,1.36-2.25,1.78 c-0.94,0.41-2.04,0.62-3.3,0.62c-1.19,0-2.26-0.2-3.21-0.59c-0.95-0.39-1.71-0.97-2.29-1.75c-0.58-0.78-0.92-1.63-1.03-2.54 c-0.11-0.92-0.16-2.53-0.16-4.82v-3.81c0-2.24,0.05-3.82,0.16-4.75c0.1-0.94,0.43-1.79,0.99-2.55c0.55-0.77,1.31-1.36,2.25-1.77 c0.94-0.41,2.04-0.62,3.3-0.62c1.19,0,2.26,0.2,3.21,0.59c0.95,0.39,1.71,0.97,2.29,1.75c0.58,0.78,0.92,1.63,1.03,2.54 c0.11,0.92,0.16,2.53,0.16,4.82V86.97L49.54,86.97z M43.74,79.65c0-1.03-0.06-1.7-0.17-1.99c-0.11-0.29-0.34-0.43-0.69-0.43 c-0.3,0-0.52,0.12-0.68,0.35c-0.15,0.23-0.23,0.92-0.23,2.07v10.4c0,1.29,0.05,2.09,0.15,2.39c0.1,0.3,0.34,0.46,0.72,0.46 c0.39,0,0.63-0.17,0.74-0.52c0.11-0.35,0.16-1.18,0.16-2.49V79.65L43.74,79.65z"/></g></svg>