<?xml version="1.0" encoding="utf-8"?><svg version="1.1" id="Layer_1" xmlns="http://www.w3.org/2000/svg" xmlns:xlink="http://www.w3.org/1999/xlink" x="0px" y="0px" viewBox="0 0 122.88 109.79" style="enable-background:new 0 0 122.88 109.79" xml:space="preserve"><style type="text/css">.st0{fill-rule:evenodd;clip-rule:evenodd;}</style><g><path class="st0" d="M3.9,87.91h115.08c2.14,0,3.9,1.75,3.9,3.9v17.98H0V91.81C0,89.66,1.75,87.91,3.9,87.91L3.9,87.91z M39.64,51.01V32.7h9.43c1.75,0,3.09,0.15,4.01,0.45c0.93,0.3,1.67,0.86,2.24,1.67c0.57,0.81,0.85,1.81,0.85,2.98 c0,1.01-0.22,1.89-0.65,2.63c-0.43,0.74-1.03,1.34-1.79,1.8c-0.48,0.29-1.15,0.53-1.99,0.72c0.67,0.23,1.16,0.45,1.47,0.67 c0.2,0.15,0.51,0.47,0.9,0.96c0.39,0.49,0.66,0.87,0.79,1.14l2.75,5.29h-6.4l-3.02-5.59c-0.38-0.72-0.72-1.19-1.02-1.41 c-0.41-0.28-0.87-0.42-1.39-0.42h-0.5v7.42H39.64L39.64,51.01z M45.32,40.14h2.39c0.26,0,0.76-0.09,1.5-0.25 c0.38-0.07,0.68-0.26,0.92-0.58c0.24-0.31,0.36-0.67,0.36-1.07c0-0.59-0.19-1.05-0.56-1.36c-0.38-0.32-1.08-0.48-2.11-0.48h-2.49 V40.14L45.32,40.14z M58.84,32.7h5.68v18.32h-5.68V32.7L58.84,32.7z M67.69,32.7h9.41c2.05,0,3.59,0.49,4.61,1.46 c1.02,0.98,1.53,2.37,1.53,4.17c0,1.85-0.56,3.3-1.67,4.34c-1.11,1.04-2.81,1.56-5.1,1.56h-3.1v6.78h-5.68V32.7L67.69,32.7z M73.36,40.52h1.39c1.1,0,1.87-0.19,2.32-0.57c0.44-0.38,0.67-0.87,0.67-1.46c0-0.58-0.19-1.06-0.58-1.46 c-0.38-0.4-1.11-0.6-2.17-0.6h-1.62V40.52L73.36,40.52z M43.93,0h35.52c10.59,0,19.26,8.67,19.26,19.26v64.45H24.17V19.76 C24.17,8.89,33.06,0,43.93,0L43.93,0z"/></g></svg>