<svg xmlns="http://www.w3.org/2000/svg" shape-rendering="geometricPrecision" text-rendering="geometricPrecision" image-rendering="optimizeQuality" fill-rule="evenodd" clip-rule="evenodd" viewBox="0 0 512 405.08"><path fill="#F7941D" d="M168.52 41.66c-42.28-3.45-85.05-11.09-127.95-20.44l52.44 146.3 75.51-125.86z"/><path fill="#EF5651" d="M320.88 44.17c-42.37 1.97-85.77 3.83-129.51.03l66.14 147.12 63.37-147.15z"/><path fill="#43A047" d="M339.27 43.07c42.28-3.45 90.33-12.02 133.23-21.37l-49.58 148.68-83.65-127.31z"/><path fill="#F7941D" d="M253.7 260.91c-42.42-.23-85.65-4.59-129.14-10.65l63.41 141.89 65.73-131.24z"/><path fill="#43A047" d="M405.94 253.54c-42.11 5.18-85.23 10.34-129.14 9.88l77.14 141.66 52-151.54z"/><path fill="#633" fill-rule="nonzero" d="M0 .02c83.54 22.13 171.5 34.97 255.29 35.3C339.1 35.64 427.6 23.42 512 0v17.59c-85.78 23.82-171.35 35.07-256.71 34.74C169.9 52 84.81 40.09 0 17.62V.02zm95.94 233.39c48.93 10.51 109.34 15.78 165.64 15.86 63.09.09 128.57-5.86 179.68-15.12v17.14c-51.9 9.43-115.57 15.09-179.68 15-57.53-.08-115.45-4.78-165.64-15.52v-17.36z"/></svg>