<?xml version="1.0" encoding="utf-8"?><svg version="1.1" id="Layer_1" xmlns="http://www.w3.org/2000/svg" xmlns:xlink="http://www.w3.org/1999/xlink" x="0px" y="0px" viewBox="0 0 122.73 122.88" style="enable-background:new 0 0 122.73 122.88" xml:space="preserve"><g><path d="M8.84,62.23L0.03,3.18c-0.22-1.52,0.83-2.93,2.35-3.15c0.28-0.04,0.55-0.04,0.81,0L62.2,9.01 c1.52,0.23,2.56,1.64,2.34,3.16c-0.09,0.61-0.38,1.15-0.78,1.55L52.97,24.51l1.34,1.34C54.15,26,54,26.19,53.88,26.39L32.99,61.76 l-8.64-8.64L13.57,63.91c-1.09,1.09-2.85,1.09-3.93,0C9.17,63.44,8.9,62.84,8.84,62.23L8.84,62.23z M100.66,104.74L100.66,104.74 l-12.34,12.34l-2.89-2.89c0.16-0.16,0.31-0.35,0.43-0.55l20.89-35.37l10.19,10.2l-12.34,12.34l0,0l17.32,17.32 c1.09,1.09,1.09,2.85,0,3.93c-1.09,1.09-2.85,1.09-3.93,0L100.66,104.74L100.66,104.74z M58.3,29.83l8.12,8.12 c-0.16,0.16-0.31,0.35-0.43,0.55L45.1,73.87l-8.12-8.12c0.16-0.16,0.31-0.35,0.43-0.55L58.3,29.83L58.3,29.83z M70.41,41.94 l8.12,8.12c-0.16,0.16-0.31,0.35-0.43,0.55L57.21,85.98l-8.12-8.12c0.16-0.16,0.3-0.35,0.43-0.55L70.41,41.94L70.41,41.94z M82.52,54.05l8.12,8.12c-0.16,0.16-0.31,0.35-0.43,0.55L69.32,98.09l-8.12-8.12c0.16-0.16,0.31-0.35,0.43-0.55L82.52,54.05 L82.52,54.05z M94.63,66.16l8.12,8.12c-0.16,0.16-0.31,0.35-0.43,0.55L81.43,110.2l-8.12-8.12c0.16-0.16,0.31-0.35,0.43-0.55 L94.63,66.16L94.63,66.16z"/></g></svg>