<?xml version="1.0" encoding="utf-8"?><svg version="1.1" id="Layer_1" xmlns="http://www.w3.org/2000/svg" xmlns:xlink="http://www.w3.org/1999/xlink" x="0px" y="0px" viewBox="0 0 120.11 122.88" style="enable-background:new 0 0 120.11 122.88" xml:space="preserve"><style type="text/css"><![CDATA[
	.st0{fill-rule:evenodd;clip-rule:evenodd;fill:#7FB757;}
	.st1{fill-rule:evenodd;clip-rule:evenodd;fill:#F2E4CC;}
	.st2{fill-rule:evenodd;clip-rule:evenodd;fill:#FF6600;}
	.st3{fill-rule:evenodd;clip-rule:evenodd;fill:#FF7500;}
	.st4{fill-rule:evenodd;clip-rule:evenodd;fill:#FFFFFF;}
	.st5{fill:#3B1C1C;}
]]></style><g><path class="st5" d="M11.09,103.3c-2.41-2.96-4.54-6.04-6.37-9.26c-1.85-3.24-3.39-6.61-4.59-10.12c-0.27-0.79-0.06-1.64,0.47-2.21 l0.31-0.33c7.86-8.26,32.86-12.44,58.06-12.5c25.14-0.05,50.77,3.98,60.01,12.15l0.46,0.42c0.69,0.65,0.86,1.65,0.5,2.47 c-1.55,4.11-3.45,7.92-5.65,11.48c-2.23,3.61-4.74,6.95-7.49,10.07c-3.11,3.54-6.67,7.26-10.73,10.26 c-4.18,3.09-8.87,5.39-14.1,5.9c-8.01,0.78-16.98,1.29-25.59,1.25c-7.39-0.03-14.5-0.47-20.49-1.48c-4.98-0.84-9.76-3.6-14.04-7.09 C17.69,110.93,14,106.87,11.09,103.3L11.09,103.3z"/><path class="st0" d="M12.8,101.91C8.14,96.18,4.54,89.98,2.21,83.2c14.18-16.04,98.82-16.23,115.7-0.16 c-3,8.01-7.41,14.88-12.77,20.97c-6.07,6.9-13.84,14.49-23.38,15.43c-14.73,1.44-32.7,1.94-45.51-0.21 C27.12,117.69,18.46,108.88,12.8,101.91L12.8,101.91z"/><path class="st5" d="M24.29,71.97c10.13-1.81,22.4-2.62,35.42-3.09c0.21-0.01,0.28-0.01,0.49,0c13.02,0.46,25.3,1.28,35.42,3.09 c10.51,1.88,18.86,4.86,23.65,9.68c0.86,0.86,0.85,2.26-0.01,3.11c-0.22,0.21-0.46,0.38-0.73,0.48c-9.6,3.87-22.24,3.75-33.48,1.4 c-10.83-2.27-20.49-6.71-25.09-11.79c-4.6,5.07-14.27,9.51-25.09,11.79C23.63,89,10.98,89.11,1.39,85.24 c-0.27-0.11-0.52-0.27-0.73-0.48c-0.86-0.86-0.86-2.25-0.01-3.11C5.43,76.83,13.79,73.85,24.29,71.97L24.29,71.97z"/><path class="st1" d="M59.96,71.08C34.03,72,11.06,74.3,2.21,83.2C21.63,91.03,54.57,81.69,59.96,71.08 c25.92,0.92,48.9,3.22,57.75,12.12C98.29,91.03,65.35,81.69,59.96,71.08L59.96,71.08z"/><path class="st5" d="M55.17,0.43c10.46,8.99,18.6,19.9,21.73,31.13c2.78,9.97,1.65,20.16-5.22,29.46l-1.28,1.63 c-0.07,0.09-0.14,0.16-0.22,0.23l-6.94,6.63c-0.66,0.63-1.71,0.6-2.33-0.06c-0.58-0.61-0.6-1.55-0.08-2.18 c5.37-6.56,7.41-13.68,6.94-20.46c-0.43-6.22-2.96-12.19-6.97-17.2c-0.56,2.15-1.69,4.56-2.94,7.23 c-3.96,8.42-9.3,19.79,0.79,30.63c0.62,0.67,0.58,1.71-0.08,2.33c-0.56,0.52-1.39,0.58-2.01,0.19c-2.69-1.7-4.81-3.31-6.72-5.3 c-1.9-1.98-3.56-4.31-5.32-7.46c-7.67-13.68-1.32-27.44,3.85-38.65c3.17-6.88,5.87-12.72,4.2-16.23c-0.39-0.82-0.03-1.81,0.79-2.2 C53.97-0.14,54.69-0.01,55.17,0.43L55.17,0.43z M73.71,32.44c-2.61-9.37-9-18.57-17.39-26.52c-0.34,4.04-2.52,8.76-4.96,14.05 c-4.86,10.53-10.81,23.44-3.97,35.65c1.06,1.9,2.07,3.46,3.12,4.81c-3.05-9.23,1.08-18.02,4.36-24.99 c1.98-4.22,3.61-7.68,2.78-9.42c-0.29-0.61-0.18-1.36,0.32-1.86c0.64-0.65,1.68-0.66,2.33-0.02c6.19,6.11,10.19,14.05,10.77,22.45 c0.27,3.84-0.18,7.78-1.46,11.66C75.28,50.09,76.15,41.18,73.71,32.44L73.71,32.44z"/><path class="st3" d="M54.05,1.65C73.22,18.1,84.38,41.04,70.35,60.04l-1.25,1.59l-6.99,6.69c11.94-14.58,8.26-31.92-2.96-43 c3.38,7.14-18.2,25.56-1.71,43.27c-5.17-3.28-8.1-6.12-11.48-12.17C33.85,34.84,59.04,12.16,54.05,1.65L54.05,1.65L54.05,1.65z"/><path d="M61.41,71.77c0,0.76-0.62,1.38-1.38,1.38s-1.38-0.62-1.38-1.38v-3.73c0-0.76,0.62-1.38,1.38-1.38s1.38,0.62,1.38,1.38 V71.77L61.41,71.77z"/><path class="st4" d="M59.21,95.33c3.67,0,6.65,2.98,6.65,6.65c0,3.67-2.98,6.65-6.65,6.65c-3.67,0-6.65-2.98-6.65-6.65 C52.56,98.31,55.54,95.33,59.21,95.33L59.21,95.33z"/><path class="st2" d="M59.21,99.19c1.54,0,2.8,1.25,2.8,2.79c0,1.54-1.25,2.8-2.8,2.8c-1.54,0-2.8-1.25-2.8-2.8 C56.41,100.44,57.67,99.19,59.21,99.19L59.21,99.19z"/><path class="st4" d="M84.53,98.38c1.99,0,3.61,1.61,3.61,3.6c0,1.99-1.61,3.6-3.61,3.6c-1.99,0-3.6-1.61-3.6-3.6 C80.93,99.99,82.54,98.38,84.53,98.38L84.53,98.38z"/><path class="st2" d="M84.53,100.47c0.84,0,1.52,0.68,1.52,1.52c0,0.84-0.68,1.52-1.52,1.52c-0.84,0-1.52-0.68-1.52-1.52 C83.02,101.14,83.7,100.47,84.53,100.47L84.53,100.47z"/><path class="st4" d="M35.65,98.38c1.99,0,3.6,1.61,3.6,3.6c0,1.99-1.61,3.6-3.6,3.6s-3.6-1.61-3.6-3.6 C32.05,99.99,33.66,98.38,35.65,98.38L35.65,98.38z"/><path class="st2" d="M35.65,100.47c0.84,0,1.52,0.68,1.52,1.52c0,0.84-0.68,1.52-1.52,1.52c-0.84,0-1.52-0.68-1.52-1.52 C34.14,101.14,34.82,100.47,35.65,100.47L35.65,100.47z"/></g></svg>