<?xml version="1.0" encoding="utf-8"?>
<!-- Generator: Adobe Illustrator 16.0.0, SVG Export Plug-In . SVG Version: 6.00 Build 0)  -->
<!DOCTYPE svg PUBLIC "-//W3C//DTD SVG 1.1//EN" "http://www.w3.org/Graphics/SVG/1.1/DTD/svg11.dtd">
<svg version="1.1" id="Layer_1" xmlns="http://www.w3.org/2000/svg" xmlns:xlink="http://www.w3.org/1999/xlink" x="0px" y="0px"
	 width="80.03px" height="122.88px" viewBox="0 0 80.03 122.88" style="enable-background:new 0 0 80.03 122.88;"
	 xml:space="preserve">
<g>
	<path d="M14.29,24.92h12.92L15.1,0.55c-0.09-0.18-0.16-0.36-0.2-0.55h6.2l12.33,24.8l0.06,0.12h12.52L58.43,0h6.22
		c-0.05,0.19-0.12,0.38-0.21,0.56L52.29,24.92h13.45c3.93,0,7.5,1.61,10.09,4.2c2.59,2.59,4.2,6.17,4.2,10.09v69.39
		c0,3.92-1.61,7.49-4.2,10.08s-6.17,4.2-10.09,4.2H14.29c-3.92,0-7.5-1.61-10.09-4.2l-0.11-0.12c-2.52-2.58-4.09-6.1-4.09-9.96
		V39.21c0-3.93,1.61-7.51,4.2-10.09C6.78,26.53,10.36,24.92,14.29,24.92L14.29,24.92z M10.87,97.01c0-12.58,11.87-5.62,12.79-13.33
		c0.1-0.84-1.88-4.04-2.33-5.58c-0.97-1.55-1.32-4.01-0.26-5.64c0.42-0.65,0.24-3.02,0.24-3.92c0-2.53,1.2-3.99,2.81-5.34
		c0.59-0.49,0.69-1.09,1.56-1.29c4.26-1.03,11.24,1.31,11.24,6.63c0,1.13-0.26,3.2,0.35,4.08c0.59,0.86,0.66,2.11,0.45,3.27
		c-0.23,0.18-0.46,0.38-0.69,0.58c-0.51,0.45-1.02,0.95-1.51,1.49c-0.02,0.02-0.04,0.04-0.07,0.06l0,0l0,0
		c-0.24,0.24-0.42,0.54-0.51,0.89c-0.2,0.74,0.05,1.5,0.59,1.98c-0.63,1.17-1.19,2.29-1.1,2.78c0.16,0.79,0.75,1.52,1.58,2.19v0.01
		c0,0.04,0,0.09,0.01,0.12c0.03,0.29,0.07,0.56,0.14,0.81c0.07,0.28,0.18,0.55,0.3,0.8c0.22,0.44,0.52,0.82,0.9,1.13
		c0.19,0.15,0.4,0.28,0.62,0.39c0.06,0.07,0.11,0.13,0.17,0.19l0.09,0.11c-1.73,0.33-2.94,0.65-3.96,1.65
		c-1.12,1.12-1.55,2.68-1.55,5.5c0,0.14,0.02,0.28,0.03,0.41L10.87,97.01L10.87,97.01L10.87,97.01z M47.41,75.46
		c2.14-12.59,14.44-12.29,16.29,0.9c1.22,8.68,6.42,8.37-1.71,8.37h-3.24c-0.01,2.21-0.36,3.34,1.93,4.58
		c2.29,1.24,8.48,1.88,8.48,5.02v2.01c0,0.16-0.13,0.29-0.29,0.29H54.6V96.6c0-2.82-0.43-4.39-1.55-5.5
		c-0.89-0.88-1.92-1.22-3.32-1.52c0.28-0.13,0.54-0.27,0.79-0.41c2.02-1.21,1.67-2.42,1.66-4.43h-0.88
		c-0.01-0.11-0.03-0.2-0.05-0.29h-0.01c-0.09-0.44-0.25-0.87-0.48-1.25c-0.04-0.07-0.08-0.13-0.13-0.2V82.7
		c0.27-1,0.34-2.1,0.17-3.13c-0.19-1.15-0.7-2.23-1.55-3.04c-0.44-0.42-0.94-0.73-1.47-0.94C47.66,75.54,47.54,75.5,47.41,75.46
		L47.41,75.46L47.41,75.46z M36.85,79.43c3.05-3.37,6.57-5.19,9.21-2.2c0.69,0.03,1.31,0.26,1.83,0.75
		c1.09,1.02,1.26,2.93,0.76,4.45v1.32c0.34,0.22,0.55,0.63,0.65,1.11c0.07,0.3,0.08,0.64,0.05,0.96c-0.03,0.33-0.12,0.65-0.25,0.91
		c-0.19,0.38-0.48,0.63-0.87,0.69c-0.38,0.41-0.75,0.84-1.09,1.26c-0.37,0.46-0.68,0.89-0.89,1.25c-0.17,0.28-0.11,0.46-0.05,0.66
		c0.03,0.1,0.06,0.21,0.08,0.32c0.67,0.14,1.27,0.26,1.81,0.36c3.44,0.65,4.51,0.85,4.51,5.32c0,0.23-0.19,0.41-0.41,0.41H35.14
		c-0.23,0-0.41-0.18-0.41-0.41c0-4.48,1.07-4.68,4.51-5.32c0.54-0.1,1.16-0.22,1.83-0.36c0.02-0.09,0.05-0.17,0.08-0.26
		c0.07-0.2,0.13-0.39-0.07-0.73c-0.22-0.36-0.53-0.79-0.89-1.25c-0.33-0.42-0.71-0.85-1.09-1.26c-0.39-0.06-0.68-0.32-0.86-0.69
		c-0.13-0.26-0.21-0.58-0.25-0.91c-0.03-0.32-0.01-0.65,0.05-0.96c0.1-0.47,0.31-0.88,0.65-1.11l-0.45-0.27
		C38.12,82.17,38.47,79.87,36.85,79.43L36.85,79.43L36.85,79.43L36.85,79.43z M40.98,34.98l2.94-5.89H14.29
		c-2.78,0-5.31,1.14-7.14,2.97c-1.83,1.83-2.97,4.36-2.97,7.14v69.39c0,2.73,1.1,5.22,2.87,7.04l0.1,0.09
		c1.83,1.83,4.36,2.97,7.14,2.97h51.45c2.77,0,5.3-1.14,7.13-2.97s2.97-4.36,2.97-7.13V39.21c0-2.77-1.14-5.31-2.97-7.14
		c-1.83-1.83-4.36-2.97-7.14-2.97H50.21l-4.19,8.4c1.59,1.59,2.57,3.8,2.57,6.22c0,4.87-3.95,8.82-8.82,8.82
		c-4.87,0-8.82-3.95-8.82-8.82s3.95-8.82,8.82-8.82C40.18,34.9,40.59,34.93,40.98,34.98L40.98,34.98z"/>
</g>
</svg>
