<?xml version="1.0" encoding="utf-8"?><svg version="1.1" id="Layer_1" xmlns="http://www.w3.org/2000/svg" xmlns:xlink="http://www.w3.org/1999/xlink" x="0px" y="0px" viewBox="0 0 108.62 122.88" style="enable-background:new 0 0 108.62 122.88" xml:space="preserve"><style type="text/css">.st0{fill-rule:evenodd;clip-rule:evenodd;}</style><g><path class="st0" d="M76.79,26.2c-4.25,7.18-14.32,22.98-20.26,30.21c5.31-10.39,14.57-26.93,20.54-36.18L76.79,26.2L76.79,26.2z M53.14,121.1l6.19-2.6l5.09,4.38l-0.56-6.69l5.74-3.48l-6.53-1.54l-1.54-6.53l-3.48,5.74l-6.69-0.55l4.38,5.09L53.14,121.1 L53.14,121.1z M59.42,105.72c-2.23-7.69-3.33-22.23-5.5-31.34c0.21,11.67,1.54,23.37,2.85,34.3L59.42,105.72L59.42,105.72z M47,3.49l6.14,1.38L57.11,0l0.58,6.26l5.86,2.27l-5.78,2.49l-0.35,6.28l-4.15-4.72l-6.08,1.61l3.21-5.41L47,3.49L47,3.49z M54.16,18.05c-0.85,7.96,0.4,33.27-0.14,42.63c-1.83-11.52-2.36-34.09-2.99-45.08L54.16,18.05L54.16,18.05z M34.85,109.89 l-3.67-3.41l-4.69,1.76l2.11-4.54l-3.12-3.92l4.97,0.61l2.76-4.18l0.96,4.92l4.83,1.34l-4.38,2.43L34.85,109.89L34.85,109.89z M102.09,63.68l-1.31,4.54l3.47,3.2l-4.72,0.15l-1.97,4.29l-1.6-4.44l-4.69-0.55l3.73-2.9l-0.93-4.63l3.91,2.65L102.09,63.68 L102.09,63.68z M35.54,95.85c5.09-6.18,11.41-17.82,17.02-25.32C47.74,81.16,42.33,90.11,36.8,99.62L35.54,95.85L35.54,95.85z M90.07,69.21c-7.9-1.33-21.13-0.99-30.44-2.1c11.61-1.13,22.06-0.91,33.07-0.87L90.07,69.21L90.07,69.21z M5.75,72.16l3.38,5.8 l-3.68,5.61l6.56-1.42l4.2,5.24l0.67-6.68l6.28-2.38l-6.14-2.7l-0.32-6.71l-4.47,5.01L5.75,72.16L5.75,72.16z M21.23,76.45 c7.33-3.21,20.26-6.11,29.01-9.45c-11.54,1.73-21.62,4.48-32.29,7.21L21.23,76.45L21.23,76.45z M99.34,98.81l1.19-5.32l5.29-1.31 l-4.69-2.77l0.39-5.43l-4.08,3.6l-5.05-2.05l2.17,5l-3.51,4.17l5.42-0.52L99.34,98.81L99.34,98.81z M91.29,87.04 c-7.59-2.56-25.74-11.96-34.46-15.37c9.7,6.48,25.66,14.08,35.38,19.24L91.29,87.04L91.29,87.04z M6.39,37.77L5.27,43.1L0,44.47 l4.72,2.72L4.4,52.62l4.04-3.65l5.07,1.99l-2.22-4.97l3.46-4.21l-5.42,0.58L6.39,37.77L6.39,37.77z M19.6,9.32l-2.55,6.21 l-6.7,0.49l5.12,4.34l-1.6,6.52l5.71-3.53l5.71,3.54l-1.59-6.52l5.13-4.33l-6.69-0.51L19.6,9.32L19.6,9.32z M16.37,49.44 c7.62,2.47,25.88,11.66,34.64,14.97c-9.78-6.37-25.82-13.78-35.61-18.82L16.37,49.44L16.37,49.44z M27.22,26.74 c5.71,7.87,18.46,27.64,25.01,34.34c-5.62-10.69-17.75-30.45-24.49-39.15L27.22,26.74L27.22,26.74z M100.41,31.87l1.65,6.51 l6.56,1.43l-5.68,3.58l0.67,6.68l-5.16-4.3l-6.15,2.7l2.49-6.23l-4.47-5.01l6.7,0.44L100.41,31.87L100.41,31.87z M81.25,10.87 l2.37,4.59l5.16-0.07l-3.63,3.67l1.66,4.89l-4.61-2.32l-4.14,3.09l0.78-5.1l-4.22-2.98l5.1-0.83L81.25,10.87L81.25,10.87z M89.98,46.52C82.47,49.3,64.6,59.22,55.97,62.88c9.51-6.76,25.24-14.81,34.82-20.25L89.98,46.52L89.98,46.52z"/></g></svg>