<?xml version="1.0" encoding="utf-8"?><svg version="1.1" id="Layer_1" xmlns="http://www.w3.org/2000/svg" xmlns:xlink="http://www.w3.org/1999/xlink" x="0px" y="0px" viewBox="0 0 122.88 99.89" style="enable-background:new 0 0 122.88 99.89" xml:space="preserve"><g><path d="M45.18,20.2L56.46,0.53c0.29-0.5,0.93-0.68,1.44-0.39c0.11,0.06,0.21,0.15,0.28,0.24l15.4,16.5 c0.4,0.43,0.37,1.09-0.05,1.49c-0.17,0.16-0.38,0.25-0.6,0.27l-4.69,0.55l3.98,34.06c0.07,0.58-0.35,1.1-0.93,1.17l-6.28,0.73 c0.01,0.06,0.02,0.11,0.03,0.17l2.43,20.62c0.65-3.22,1.56-6.38,2.67-9.48c2.55-7.1,6.21-13.81,10.44-19.9 c0.46-0.66,1.37-0.83,2.03-0.37c0.66,0.46,0.83,1.37,0.37,2.03c-4.11,5.9-7.65,12.39-10.1,19.21c-1.61,4.48-2.76,9.11-3.31,13.81 c1.36-1.78,3.1-3.84,5.11-5.9c2.95-3.04,6.49-6.15,10.2-8.45l-2.55-3.68c-0.25-0.36-0.16-0.86,0.2-1.1l1.6-1.11l0.02-0.01 l0.02-0.01l0,0l4-2.77l0.03-0.02l12.05-8.36l0.02-0.01l0.02-0.01l3.53-2.45l-2.04-2.94c-0.25-0.36-0.16-0.86,0.2-1.1 c0.15-0.1,0.33-0.15,0.5-0.14l17.09,0.53c0.44,0.01,0.78,0.38,0.77,0.82c0,0.08-0.02,0.16-0.04,0.23l-5.54,16.17 c-0.14,0.42-0.59,0.64-1.01,0.5c-0.18-0.06-0.32-0.18-0.41-0.32l-2.02-2.91l-1.08,0.75l-0.02,0.01l-0.02,0.01l-4,2.77l-0.02,0.01 l-0.02,0.01l0,0l-4.01,2.78l-0.02,0.01l-4,2.77l-0.02,0.01l-0.02,0.01l-3.99,2.77l-0.04,0.03l-0.02,0.01l-4.03,2.8 c-0.36,0.25-0.86,0.16-1.1-0.2l-2.66-3.83c-3.55,2.18-6.97,5.19-9.84,8.15c-2.07,2.13-3.83,4.2-5.12,5.9 c4.37-1.78,9.34-3.21,14.27-4.01c5.87-0.95,11.73-0.98,16.56,0.37c0.77,0.22,1.23,1.02,1.01,1.8c-0.22,0.78-1.02,1.23-1.8,1.01 c-4.4-1.24-9.83-1.19-15.32-0.3c-6.07,0.98-12.2,2.98-17.1,5.39c-0.52,0.71-2.28,0.83-2.92,0.33c-4.3-3.39-11.59-5.82-19.33-7.25 c-9.04-1.68-18.62-1.97-24.78-0.85c-0.79,0.14-1.55-0.38-1.69-1.18c-0.14-0.79,0.38-1.55,1.18-1.69 c6.48-1.18,16.46-0.89,25.82,0.85c6.18,1.14,12.12,2.92,16.68,5.32c-3.44-7.85-8.23-14.68-13.96-20.46 c-7.28-7.34-16.09-13-25.56-16.9c-0.74-0.31-1.1-1.16-0.79-1.9c0.31-0.74,1.16-1.1,1.9-0.79C35.3,46.74,44.43,52.61,52,60.23 c5.03,5.07,9.37,10.92,12.75,17.52l-2.6-22.1c-0.01-0.06-0.01-0.11-0.01-0.17l-6.08,0.71c-0.58,0.07-1.1-0.35-1.17-0.93 l-3.98-34.05l-4.7,0.55c-0.58,0.07-1.1-0.35-1.17-0.93C45.02,20.61,45.07,20.38,45.18,20.2L45.18,20.2z M111.38,99.89H111 c0-3.07-1.15-5.76-3.44-8.05c-2.3-2.3-4.98-3.45-8.05-3.45v-0.38c3.07,0,5.76-1.15,8.05-3.45c2.3-2.3,3.44-4.99,3.44-8.05h0.38 c0,3.07,1.15,5.76,3.45,8.05c2.3,2.3,4.98,3.45,8.05,3.45v0.38c-3.07,0-5.76,1.15-8.05,3.45 C112.53,94.13,111.38,96.81,111.38,99.89L111.38,99.89z M88.59,43.31h-0.38c0-3.07-1.15-5.76-3.45-8.05 c-2.3-2.3-4.98-3.44-8.05-3.44v-0.38c3.07,0,5.76-1.15,8.05-3.45c2.3-2.3,3.44-4.99,3.44-8.05h0.38c0,3.07,1.15,5.76,3.44,8.05 c2.3,2.3,4.98,3.45,8.05,3.45v0.38c-3.07,0-5.76,1.15-8.05,3.45C89.74,37.55,88.59,40.23,88.59,43.31L88.59,43.31z M16.22,48.32 l-0.33,0.19c-1.54-2.66-3.87-4.41-7.01-5.25c-3.14-0.84-6.04-0.49-8.7,1.04L0,43.97c2.66-1.54,4.41-3.87,5.25-7.02 c0.84-3.14,0.49-6.04-1.04-8.69l0.33-0.19c1.54,2.66,3.87,4.41,7.01,5.25c3.14,0.84,6.04,0.49,8.7-1.04l0.19,0.33 c-2.66,1.54-4.41,3.87-5.25,7.01C14.34,42.76,14.69,45.66,16.22,48.32L16.22,48.32z M85.89,61.71l7.81,6.75l2.68-1.86l-7.81-6.75 L85.89,61.71L85.89,61.71z M92.36,69.39l-7.81-6.75l-0.46,0.32l5.7,8.22L92.36,69.39L92.36,69.39z M89.92,58.91l7.81,6.75 l2.68-1.86l-7.81-6.75L89.92,58.91L89.92,58.91z M93.95,56.12l7.81,6.75l2.68-1.86l-7.81-6.75L93.95,56.12L93.95,56.12z M97.98,53.32l7.81,6.75l2.68-1.86l-7.81-6.75L97.98,53.32L97.98,53.32z M102.01,50.53l7.81,6.75l0.59-0.41l-4.59-6.61l-1.11-1.6 L102.01,50.53L102.01,50.53z M105.57,47.09l6.6,9.52l0.01,0.02l1.58,2.27l4.68-13.67l-14.47-0.45L105.57,47.09L105.57,47.09 L105.57,47.09z M56.53,51.09l12.75-4.92l-0.5-4.29L56.02,46.8L56.53,51.09L56.53,51.09z M69.53,48.33l-12.75,4.92l0.09,0.73 l13.14-1.54L69.53,48.33L69.53,48.33z M55.77,44.65l12.75-4.92l-0.5-4.29l-12.75,4.92L55.77,44.65L55.77,44.65z M55.02,38.2 l12.75-4.92l-0.5-4.29l-12.75,4.92L55.02,38.2L55.02,38.2z M54.26,31.75l12.75-4.92l-0.5-4.29l-12.75,4.92L54.26,31.75L54.26,31.75 z M53.51,25.3l12.75-4.92l-0.11-0.95L53,20.97L53.51,25.3L53.51,25.3z M51.71,19l2.31-0.27l16.6-1.94L57.58,2.81l-9.53,16.62 L51.7,19L51.71,19L51.71,19z"/></g></svg>