<?xml version="1.0" encoding="utf-8"?><svg version="1.1" id="Layer_1" xmlns="http://www.w3.org/2000/svg" xmlns:xlink="http://www.w3.org/1999/xlink" x="0px" y="0px" viewBox="0 0 105.81 122.88" style="enable-background:new 0 0 105.81 122.88" xml:space="preserve"><style type="text/css">.st0{fill-rule:evenodd;clip-rule:evenodd;}</style><g><path class="st0" d="M30.63,77.67c-9.43-13.04-12.22-32.41-2.3-41.01c-2.28-8.02-11.02-10.6-18.19-8.23 C-0.23,31.87-0.99,40.02,0.69,48.47c1.56,7.83,7.99,31.71,10.79,37.66c1.24,2.64,2.78,4.04,4.58,4.32c2.54,0.4,5.6-1.43,9.11-5.16 L30.63,77.67L30.63,77.67z M37.21,47.99c5.67,2,6.33,4.37,7.38,9.55c-0.65-0.57-1.25-1.16-1.8-1.77c-0.09,0.07-0.19,0.13-0.29,0.18 c-1.23,0.64-2.8,0.05-3.52-1.32c-0.61-1.17-0.39-2.52,0.45-3.29C38.68,50.22,37.97,49.1,37.21,47.99L37.21,47.99z M55.9,10.26 h-5.63c-0.01-0.81-0.56-1.68-1.22-2.18c2.01-0.47,3.35-1.47,4.14-3.19c0.73,2.02,2.33,2.65,3.96,3.19 C56.35,8.55,55.91,9.51,55.9,10.26L55.9,10.26z M69,47.99c-5.67,2-6.33,4.37-7.38,9.55c0.65-0.57,1.25-1.16,1.8-1.77 c0.09,0.07,0.19,0.13,0.29,0.18c1.23,0.64,2.8,0.05,3.52-1.32c0.61-1.17,0.39-2.52-0.45-3.29C67.52,50.22,68.24,49.1,69,47.99 L69,47.99z M32.91,32.48c12.95-5.35,26.47-5.57,40.62,0c9.35-12.51-24.19-17.86-11.8-25.13C58.32,6.22,54.77,4.22,53.24,0 c-1.65,3.6-4.27,6.38-8.46,7.35C56.82,16.34,22.81,18.58,32.91,32.48L32.91,32.48z M75.17,75.96c9.43-13.04,12.22-32.41,2.3-41.01 c2.28-8.02,11.02-10.6,18.19-8.23c10.37,3.43,11.13,11.58,9.45,20.04c-1.56,7.83-7.99,31.71-10.79,37.66 c-1.24,2.64-2.78,4.04-4.58,4.32c-2.54,0.4-5.6-1.43-9.11-5.16L75.17,75.96L75.17,75.96z M72.8,38.28 c-15.29-4.85-28.42-4.41-38.75-0.21c-7.5,5.47-8.23,14.04-4.73,25.63c2.4,7.94,6.76,10.58,9.01,16.68 c6.44,17.44,3.08,47.17,43.53,41.89c4.55-0.59,8.75-1.77,12.59-3.56c9.99-6.06-3.86-6.69-7.78-6.91 c-21.58-1.25-23.04-8.24-18.05-27.29l2.02-7.71C77.82,58.76,80.49,44.36,72.8,38.28L72.8,38.28z"/></g></svg>