<?xml version="1.0" encoding="utf-8"?><svg version="1.1" id="Layer_1" xmlns="http://www.w3.org/2000/svg" xmlns:xlink="http://www.w3.org/1999/xlink" x="0px" y="0px" viewBox="0 0 122.88 113.1" style="enable-background:new 0 0 122.88 113.1" xml:space="preserve"><style type="text/css">.st0{fill-rule:evenodd;clip-rule:evenodd;}</style><g><path class="st0" d="M75.85,108.54L75.85,108.54c-0.25,0.16-0.49,0.32-0.74,0.47l-0.05,0.03c-8.84,5.47-18.38,5.39-27.21-0.09 c-0.18-0.12-0.37-0.23-0.55-0.35l-0.21-0.14h0c-5.43,1.66-11.3,0.57-17.59-3.14c-0.18,0-0.36,0-0.53-0.01 c-6.03-13.08-8.77-26.37-8.61-39.87c0.17-13.53,3.26-27.29,8.88-41.24c0.15,0,0.3,0,0.45,0.01c7-4.62,14.32-4.85,21.89-1.9 c1.93-2.82,3.54-4.53,6.31-5.25c-0.03-0.27-0.03-0.55,0-0.83c0.35-2.85,1.1-5.47,2.15-7.93c1.03-2.38,2.36-4.63,3.91-6.77 c1.18-1.64,3.47-2.01,5.11-0.83c1.64,1.18,2.01,3.47,0.83,5.11c-1.22,1.69-2.28,3.48-3.11,5.4c-0.78,1.82-1.34,3.75-1.6,5.81 c3.03,0.66,5.04,2.3,7,5.15l0.15,0.08c5.83-2.7,12.81-2.56,21.45,1.76L94,24.01c5.67,14.02,8.79,27.84,8.95,41.43 c0.17,13.52-2.59,26.86-8.65,39.96c-0.26,0.02-0.53,0.03-0.79,0.04C87.73,109.05,81.5,109.93,75.85,108.54L75.85,108.54z M25.08,104.95c-5.32-0.89-9.64-3.35-13.15-7.07C0.97,86.29-2.54,64.75,1.82,49.62C5.1,38.24,13.33,26.43,25.48,24.48 c-5.38,13.8-8.34,27.45-8.51,40.92C16.8,78.8,19.39,91.99,25.08,104.95L25.08,104.95z M97.8,24.4c6.19,1.12,12.33,4.77,18.38,13.3 c10.56,18.36,9.48,51.71-9.34,63.89c-2.71,1.75-5.47,2.81-8.61,3.37c5.69-12.96,8.27-26.16,8.11-39.55 C106.17,51.91,103.21,38.23,97.8,24.4L97.8,24.4z M91.2,74.85c-3.46,12.63-14.6,22.04-28.04,22.76v-7.55h-7.69v7 c-11.45-2.29-20.61-10.97-23.69-22.21c3.72,2.06,7.89,3.74,12.41,4.95v6.3h7.69v-4.73c3.1,0.44,6.32,0.67,9.61,0.67 c3.32,0,6.56-0.23,9.68-0.68v8.56h7.69V79.91h-0.49C83.05,78.69,87.37,76.97,91.2,74.85L91.2,74.85z M54.35,74.17l7.28-12.99 l7.47,12.99H54.35L54.35,74.17z M31.03,58.71L42.3,38.59l11.57,20.12H31.03L31.03,58.71z M69.61,58.71l11.27-20.12l11.57,20.12 H69.61L69.61,58.71z"/></g></svg>