<?xml version="1.0" encoding="utf-8"?><svg version="1.1" id="Layer_1" xmlns="http://www.w3.org/2000/svg" xmlns:xlink="http://www.w3.org/1999/xlink" x="0px" y="0px" viewBox="0 0 122.88 117" style="enable-background:new 0 0 122.88 117" xml:space="preserve"><style type="text/css"><![CDATA[
	.st0{fill:#393939;}
	.st1{fill:#DE4C3C;}
	.st2{fill:#4398D1;}
]]></style><g><path class="st0" d="M79.64,4.26c0-2.37,2.33-4.26,5.22-4.26c2.9,0,5.22,1.93,5.22,4.26v18.73c0,2.37-2.33,4.26-5.22,4.26 c-2.9,0-5.22-1.93-5.22-4.26V4.26L79.64,4.26L79.64,4.26z M32.58,4.26C32.58,1.89,34.92,0,37.8,0c2.9,0,5.22,1.93,5.22,4.26v18.73 c0,2.37-2.34,4.26-5.22,4.26c-2.9,0-5.22-1.93-5.22-4.26V4.26L32.58,4.26L32.58,4.26z M12.7,39.9h5.9v7.97h-5.9v13.23 c-0.28-0.04-0.57-0.07-0.86-0.1c-1.32-0.14-2.63-0.2-3.93-0.2H5.86V19.45c0-2.34,0.97-4.42,2.49-5.95 c1.53-1.53,3.66-2.49,5.95-2.49H24.5c1.61,0,2.9,1.28,2.9,2.9c0,1.61-1.29,3.99-2.9,3.99h-9.1c-0.72,0-1.4,0.28-1.89,0.76 c-0.48,0.48-0.76,1.12-0.76,1.89L12.7,39.9L12.7,39.9z M106.96,39.9h3.14v-19.4c0-0.72-0.28-1.4-0.76-1.85 c-0.48-0.48-1.12-0.76-1.85-0.76h-8.43c-1.61,0-2.9-2.38-2.9-3.99c0-1.61,1.29-2.9,2.9-2.9h9.52c2.33,0,4.42,0.97,5.95,2.49 c1.53,1.53,2.49,3.66,2.49,5.95v46.44c-0.51,0.01-1.02,0.06-1.51,0.16c-0.56-0.11-1.15-0.17-1.75-0.17h-3.67v-18h-3.81l0.67-5.53 c0.07-0.39,0.1-0.8,0.1-1.21C107.06,40.71,107.02,40.3,106.96,39.9L106.96,39.9z M116.96,109.61c-0.24,1.91-1.13,3.6-2.42,4.9 c-1.53,1.53-3.66,2.49-5.95,2.49H14.3c-2.33,0-4.42-0.97-5.95-2.49s-2.5-3.66-2.5-5.95v-1.98h3.23c1.35,0,2.55-0.03,3.62-0.1v0.94 c0,0.72,0.28,1.4,0.76,1.89c0.48,0.48,1.12,0.76,1.89,0.76h92.1c0.43,0,0.84-0.1,1.2-0.28c0.16,0.01,0.31,0.01,0.47,0.01h4.24 c1.13,0,2.26-0.06,3.41-0.18L116.96,109.61L116.96,109.61z M51.43,17.86c-1.61,0-2.9-2.38-2.9-3.99c0-1.61,1.28-2.9,2.9-2.9h19.45 c1.61,0,2.9,1.28,2.9,2.9c0,1.61-1.29,3.99-2.9,3.99H51.43L51.43,17.86L51.43,17.86z"/><path class="st1" d="M0,69.65h7.27c2.3,0,4.04,0.18,5.22,0.54c1.18,0.36,2.14,1.08,2.86,2.17c0.73,1.09,1.09,2.85,1.09,5.28 c0,1.64-0.25,2.78-0.77,3.43c-0.52,0.65-1.53,1.14-3.05,1.49c1.69,0.38,2.84,1.02,3.44,1.9c0.6,0.89,0.91,2.24,0.91,4.08v2.6 c0,1.9-0.22,3.3-0.65,4.22c-0.43,0.91-1.12,1.54-2.07,1.88c-0.95,0.34-2.89,0.5-5.82,0.5H0V69.65L0,69.65z M7.31,74.44v6.25 c0.31-0.01,0.54-0.02,0.72-0.02c0.7,0,1.15-0.18,1.34-0.53c0.2-0.35,0.29-1.37,0.29-3.03c0-0.88-0.08-1.5-0.24-1.85 c-0.16-0.35-0.37-0.57-0.62-0.67C8.54,74.51,8.05,74.46,7.31,74.44L7.31,74.44z M7.31,85.06v7.88c1.01-0.04,1.65-0.2,1.93-0.48 c0.28-0.29,0.41-1.01,0.41-2.14v-2.63c0-1.21-0.12-1.94-0.37-2.2C9.04,85.24,8.38,85.1,7.31,85.06L7.31,85.06z"/><path class="st1" d="M26.6,69.65v3.66h-7.21v-3.66H26.6L26.6,69.65z M26.6,74.73v23.01h-7.21V74.73H26.6L26.6,74.73z"/><path class="st1" d="M36.08,74.73l-0.25,3.03c1.02-2.18,2.5-3.33,4.44-3.46v8.1c-1.28,0-2.23,0.17-2.83,0.52 c-0.6,0.35-0.97,0.83-1.11,1.45c-0.14,0.62-0.21,2.04-0.21,4.28v9.09h-6.99V74.73H36.08L36.08,74.73z"/><path class="st1" d="M49.82,71.67v3.62h1.95v3.66h-1.95v12.3c0,1.51,0.08,2.35,0.24,2.53c0.16,0.17,0.82,0.26,1.99,0.26v3.69h-2.83 c-1.6,0-2.74-0.06-3.43-0.2c-0.68-0.13-1.28-0.44-1.8-0.92c-0.52-0.48-0.85-1.02-0.98-1.64c-0.12-0.62-0.19-2.07-0.19-4.35V78.95 h-1.49V75.3h1.49v-3.62H49.82L49.82,71.67z"/><path class="st1" d="M60.28,69.65v6.33c0.6-0.56,1.25-0.98,1.95-1.25c0.7-0.28,1.45-0.42,2.25-0.42c1.22,0,2.27,0.31,3.13,0.94 c0.86,0.63,1.38,1.34,1.58,2.16c0.19,0.82,0.28,2.31,0.28,4.47v15.87h-7v-16.2c0-1.34-0.06-2.2-0.2-2.58 c-0.14-0.38-0.43-0.57-0.9-0.57c-0.43,0-0.72,0.2-0.88,0.59c-0.15,0.39-0.22,1.17-0.22,2.34v16.42h-6.99V69.65H60.28L60.28,69.65z"/><path class="st1" d="M87.83,69.65v28.08h-6.99v-1.67c-0.67,0.7-1.38,1.22-2.12,1.57c-0.75,0.35-1.52,0.53-2.33,0.53 c-1.09,0-2.04-0.28-2.83-0.86c-0.8-0.57-1.31-1.24-1.54-1.99c-0.22-0.75-0.34-1.98-0.34-3.68V80.86c0-1.77,0.11-3.02,0.34-3.76 c0.22-0.74,0.75-1.39,1.56-1.95c0.81-0.56,1.78-0.84,2.91-0.84c0.87,0,1.66,0.16,2.39,0.47c0.72,0.31,1.38,0.78,1.97,1.41v-6.54 H87.83L87.83,69.65z M80.84,80.52c0-0.84-0.07-1.41-0.22-1.7c-0.15-0.29-0.44-0.43-0.87-0.43c-0.43,0-0.71,0.13-0.86,0.39 c-0.15,0.26-0.22,0.84-0.22,1.74v11.27c0,0.93,0.07,1.55,0.21,1.85s0.41,0.44,0.81,0.44c0.46,0,0.76-0.17,0.91-0.5 c0.15-0.33,0.23-1.13,0.23-2.41V80.52L80.84,80.52z"/><path class="st1" d="M96.58,83.64h-6.57V82.1c0-1.78,0.21-3.15,0.62-4.13c0.41-0.96,1.24-1.82,2.47-2.56 c1.24-0.74,2.84-1.11,4.82-1.11c2.37,0,4.15,0.42,5.36,1.26c1.2,0.83,1.92,1.86,2.17,3.08c0.24,1.22,0.37,3.73,0.37,7.54v11.55H99 v-2.05c-0.43,0.83-0.98,1.44-1.66,1.86s-1.48,0.62-2.42,0.62c-1.22,0-2.35-0.34-3.37-1.03c-1.02-0.69-1.53-2.2-1.53-4.52v-1.89 c0-1.72,0.27-2.89,0.82-3.52c0.54-0.63,1.89-1.36,4.05-2.18c2.3-0.91,3.53-1.51,3.7-1.82c0.16-0.31,0.24-0.95,0.24-1.91 c0-1.2-0.09-1.98-0.27-2.35c-0.18-0.36-0.48-0.54-0.9-0.54c-0.48,0-0.78,0.15-0.89,0.46c-0.12,0.3-0.18,1.1-0.18,2.38V83.64 L96.58,83.64z M98.82,86.79c-1.13,0.82-1.79,1.51-1.96,2.07c-0.18,0.56-0.27,1.35-0.27,2.39c0,1.2,0.08,1.96,0.24,2.31 c0.15,0.35,0.47,0.52,0.93,0.52c0.44,0,0.73-0.14,0.86-0.41c0.14-0.27,0.2-0.98,0.2-2.14V86.79L98.82,86.79z"/><path class="st1" d="M122.88,74.73l-2.01,16.65c-0.32,2.64-0.59,4.44-0.8,5.4c-0.21,0.96-0.57,1.75-1.07,2.37 c-0.49,0.63-1.18,1.08-2.07,1.38c-0.88,0.3-2.29,0.44-4.23,0.44h-4.24v-3.69c1.09,0,1.79-0.05,2.1-0.17 c0.31-0.11,0.47-0.35,0.47-0.73c0-0.19-0.15-0.99-0.44-2.41l-3.83-19.24h6.35l2.3,15.56l1.13-15.56H122.88L122.88,74.73z"/><polygon class="st2" points="38.46,36.92 38.46,60.23 32.39,60.23 32.39,50.45 30.62,50.45 30.62,60.23 24.55,60.23 24.55,36.92 30.62,36.92 30.62,45.26 32.39,45.26 32.39,36.92 38.46,36.92"/><path class="st2" d="M45.92,48.53h-5.45v-1.28c0-1.48,0.17-2.62,0.51-3.42c0.34-0.8,1.03-1.51,2.05-2.12 c1.03-0.61,2.36-0.92,4-0.92c1.96,0,3.45,0.35,4.44,1.05c1,0.69,1.6,1.55,1.8,2.56c0.2,1.01,0.3,3.1,0.3,6.26v9.59h-5.66v-1.7 c-0.35,0.69-0.82,1.2-1.38,1.54c-0.56,0.34-1.23,0.52-2.01,0.52c-1.02,0-1.95-0.28-2.8-0.85c-0.85-0.57-1.27-1.82-1.27-3.75V54.4 c0-1.43,0.23-2.4,0.68-2.92s1.57-1.12,3.36-1.81c1.91-0.75,2.93-1.25,3.07-1.51c0.13-0.26,0.2-0.79,0.2-1.59 c0-1-0.07-1.65-0.23-1.95c-0.15-0.3-0.4-0.45-0.75-0.45c-0.4,0-0.64,0.13-0.74,0.38c-0.1,0.25-0.15,0.91-0.15,1.98V48.53 L45.92,48.53z M47.77,51.15c-0.94,0.68-1.48,1.25-1.63,1.71c-0.15,0.46-0.23,1.12-0.23,1.98c0,0.99,0.06,1.63,0.2,1.92 c0.13,0.29,0.39,0.43,0.78,0.43c0.37,0,0.6-0.11,0.72-0.34s0.17-0.82,0.17-1.78V51.15L47.77,51.15z"/><path class="st2" d="M61.49,41.13l-0.1,1.69c0.52-0.69,1.09-1.2,1.71-1.54c0.62-0.34,1.31-0.51,2.04-0.51 c0.9,0,1.68,0.24,2.34,0.73c0.65,0.49,1.07,1.05,1.23,1.68c0.16,0.63,0.25,1.71,0.25,3.23v8.05c0,1.74-0.1,2.97-0.31,3.71 c-0.21,0.73-0.63,1.32-1.27,1.76c-0.64,0.44-1.41,0.65-2.31,0.65c-0.72,0-1.38-0.17-2-0.51c-0.61-0.34-1.17-0.84-1.68-1.51v4.37 h-5.8v-21.8H61.49L61.49,41.13z M63.15,46.69c0-1.18-0.04-1.9-0.13-2.15c-0.08-0.25-0.32-0.37-0.72-0.37 c-0.39,0-0.63,0.14-0.75,0.43c-0.11,0.28-0.17,0.98-0.17,2.09v7.92c0,1.15,0.06,1.87,0.17,2.16c0.12,0.29,0.37,0.43,0.76,0.43 c0.38,0,0.61-0.13,0.7-0.4c0.09-0.26,0.14-0.9,0.14-1.92V46.69L63.15,46.69z"/><path class="st2" d="M76.78,41.13l-0.1,1.69c0.52-0.69,1.09-1.2,1.71-1.54c0.62-0.34,1.31-0.51,2.04-0.51 c0.9,0,1.68,0.24,2.34,0.73c0.65,0.49,1.07,1.05,1.23,1.68c0.16,0.63,0.25,1.71,0.25,3.23v8.05c0,1.74-0.1,2.97-0.31,3.71 c-0.21,0.73-0.63,1.32-1.27,1.76c-0.64,0.44-1.41,0.65-2.31,0.65c-0.72,0-1.38-0.17-2-0.51s-1.17-0.84-1.68-1.51v4.37h-5.8v-21.8 H76.78L76.78,41.13z M78.44,46.69c0-1.18-0.04-1.9-0.13-2.15c-0.08-0.25-0.32-0.37-0.72-0.37c-0.39,0-0.63,0.14-0.75,0.43 c-0.11,0.28-0.17,0.98-0.17,2.09v7.92c0,1.15,0.06,1.87,0.17,2.16c0.12,0.29,0.37,0.43,0.76,0.43c0.38,0,0.61-0.13,0.7-0.4 c0.09-0.26,0.14-0.9,0.14-1.92V46.69L78.44,46.69z"/><path class="st2" d="M98.33,41.13l-1.67,13.81c-0.27,2.19-0.49,3.68-0.66,4.48c-0.18,0.79-0.47,1.45-0.88,1.97 c-0.41,0.52-0.98,0.9-1.71,1.14c-0.73,0.25-1.91,0.37-3.51,0.37h-3.52v-3.06c0.9,0,1.48-0.04,1.74-0.14 c0.26-0.09,0.39-0.29,0.39-0.61c0-0.16-0.12-0.82-0.36-2l-3.18-15.97h5.27l1.91,12.91l0.94-12.91H98.33L98.33,41.13z"/></g></svg>