<?xml version="1.0" encoding="utf-8"?><svg version="1.1" id="Layer_1" xmlns="http://www.w3.org/2000/svg" xmlns:xlink="http://www.w3.org/1999/xlink" x="0px" y="0px" viewBox="0 0 122.88 91.87" style="enable-background:new 0 0 122.88 91.87" xml:space="preserve"><style type="text/css"><![CDATA[
	.st0{fill-rule:evenodd;clip-rule:evenodd;fill:#7FBA00;}
	.st1{fill:#EF4136;}
	.st2{fill-rule:evenodd;clip-rule:evenodd;fill:#F25022;}
	.st3{fill:#00A4EF;}
	.st4{fill-rule:evenodd;clip-rule:evenodd;fill:#FFB900;}
	.st5{fill-rule:evenodd;clip-rule:evenodd;fill:#00A4EF;}
]]></style><g><path class="st5" d="M68.83,28.78c-1.08,0.61-2.47,1.51-4.05,2.59c-0.76-0.21-1.53-0.32-2.31-0.33c2.38-1.84,4.62-3.57,6.48-5.06 L68.83,28.78L68.83,28.78L68.83,28.78z"/><polygon class="st4" points="58.78,4.9 60.94,7.83 64.53,7.21 62.41,10.17 64.11,13.4 60.64,12.29 58.09,14.91 58.07,11.26 54.8,9.66 58.26,8.51 58.78,4.9 58.78,4.9"/><polygon class="st5" points="74.47,17.41 76.35,21.76 81.08,22.03 77.52,25.16 78.73,29.74 74.65,27.32 70.67,29.89 71.71,25.26 68.03,22.27 72.75,21.83 74.47,17.41 74.47,17.41"/><path class="st0" d="M22.87,21.97c2.26,2.26,5.87,6.15,9.63,10.06c0.63-0.36,1.35-0.58,2.12-0.6c-4.32-5.03-8.85-9.99-11.92-12.87 L22.87,21.97L22.87,21.97L22.87,21.97z"/><polygon class="st0" points="15.61,10.67 14.53,15.29 9.91,16.37 13.96,18.83 13.57,23.55 17.16,20.46 21.54,22.29 19.7,17.92 22.8,14.33 18.08,14.72 15.61,10.67 15.61,10.67"/><path class="st2" d="M40.69,12.92c0.18,3.43,1.6,11.22,2.85,18.29c-0.18,0.03-0.35,0.07-0.53,0.12c-0.2,0.05-0.39,0.1-0.58,0.16 c-1.62-7.2-3.15-15.16-4.19-19.93L40.69,12.92L40.69,12.92L40.69,12.92z"/><polygon class="st2" points="34.07,3.56 38.51,3.84 40.74,0 41.84,4.3 46.17,5.23 42.42,7.61 42.88,12.03 39.46,9.2 35.4,11 37.03,6.87 34.07,3.56 34.07,3.56"/><path class="st4" d="M57.37,16.08c-1.41,3.56-4.12,9.93-6.77,15.52c-0.4,0.12-0.78,0.29-1.13,0.5c-0.11-0.06-0.21-0.12-0.32-0.17 c2.47-6.98,5.5-14.93,7.75-20.05L57.37,16.08L57.37,16.08L57.37,16.08z"/><path class="st5" d="M94.21,66.92c-3.74-2.92-7.76-6.01-10.61-8.39c0.05-0.12,0.09-0.24,0.13-0.36c3.7,2.23,7.93,5.19,11.96,8.1 C95.18,66.45,94.68,66.67,94.21,66.92L94.21,66.92z"/><polygon class="st4" points="122.88,57.69 120.66,60.59 122.26,63.86 118.82,62.65 116.2,65.18 116.29,61.54 113.07,59.82 116.57,58.78 117.2,55.19 119.26,58.2 122.88,57.69 122.88,57.69"/><path class="st0" d="M96.49,27.95C94.13,32.23,89,40.59,85.41,47.29l-0.34,2.84c5.11-7.26,11.74-17.59,14.65-23.3L96.49,27.95 L96.49,27.95L96.49,27.95z"/><polygon class="st0" points="105.33,17.84 100.59,18.08 98.26,13.94 97.03,18.52 92.38,19.46 96.36,22.05 95.81,26.76 99.5,23.78 103.81,25.76 102.12,21.33 105.33,17.84 105.33,17.84"/><path class="st2" d="M110.14,42.54c-4.92,1.71-18.7,8.97-25.65,12.04l0.06-0.41c7.26-4.6,19.9-10.94,26.21-14.37L110.14,42.54 L110.14,42.54L110.14,42.54z"/><polygon class="st2" points="117.29,33.59 118.26,37.93 122.56,39 118.74,41.25 119.05,45.68 115.72,42.74 111.6,44.4 113.37,40.33 110.51,36.93 114.94,37.35 117.29,33.59 117.29,33.59"/><path class="st4" d="M111.75,59.45c-5.87-0.56-18.99-2.24-25.4-3.86c8.24,0.27,21.59,1.21,29.29,2.24L111.75,59.45L111.75,59.45 L111.75,59.45z"/><path class="st3" d="M15.3,31.23v25.65H8.62V46.11H6.68v10.76H0V31.23h6.68v9.18h1.95v-9.18H15.3L15.3,31.23z M23.8,44h-6v-1.41 c0-1.63,0.19-2.88,0.56-3.77c0.37-0.88,1.13-1.66,2.26-2.33s2.59-1.02,4.4-1.02c2.16,0,3.79,0.38,4.89,1.15 c1.1,0.76,1.76,1.7,1.98,2.82c0.22,1.11,0.33,3.41,0.33,6.88v10.55H26V55c-0.39,0.76-0.9,1.32-1.51,1.7 c-0.62,0.38-1.35,0.57-2.21,0.57c-1.12,0-2.15-0.31-3.08-0.94c-0.93-0.63-1.4-2-1.4-4.13v-1.73c0-1.57,0.25-2.64,0.75-3.22 c0.5-0.57,1.73-1.24,3.7-1.99c2.1-0.83,3.23-1.38,3.38-1.66c0.15-0.29,0.22-0.86,0.22-1.75c0-1.1-0.08-1.81-0.25-2.15 c-0.16-0.33-0.44-0.5-0.82-0.5c-0.44,0-0.71,0.14-0.81,0.42c-0.11,0.28-0.16,1.01-0.16,2.18V44L23.8,44z M25.84,46.88 c-1.03,0.75-1.63,1.38-1.79,1.89c-0.17,0.51-0.25,1.23-0.25,2.18c0,1.09,0.07,1.79,0.22,2.11c0.14,0.32,0.43,0.48,0.85,0.48 c0.41,0,0.67-0.12,0.79-0.37s0.18-0.9,0.18-1.96V46.88L25.84,46.88z M41.21,35.86l-0.11,1.86c0.57-0.76,1.2-1.32,1.89-1.69 c0.69-0.37,1.44-0.56,2.25-0.56c0.99,0,1.85,0.27,2.58,0.8c0.72,0.54,1.17,1.15,1.35,1.85c0.18,0.7,0.27,1.88,0.27,3.55v8.86 c0,1.91-0.11,3.27-0.34,4.08c-0.23,0.8-0.69,1.45-1.39,1.93c-0.7,0.48-1.55,0.72-2.55,0.72c-0.79,0-1.52-0.18-2.2-0.56 c-0.67-0.37-1.29-0.92-1.85-1.66v4.81h-6.39V35.86H41.21L41.21,35.86z M43.05,41.98c0-1.3-0.05-2.09-0.15-2.36 c-0.09-0.28-0.36-0.41-0.79-0.41c-0.43,0-0.7,0.16-0.82,0.48c-0.12,0.31-0.18,1.08-0.18,2.3v8.71c0,1.26,0.07,2.06,0.19,2.37 c0.13,0.32,0.41,0.48,0.83,0.48c0.42,0,0.67-0.15,0.77-0.44c0.1-0.29,0.15-0.99,0.15-2.11V41.98L43.05,41.98z M58.33,35.86 l-0.11,1.86c0.57-0.76,1.2-1.32,1.89-1.69c0.69-0.37,1.44-0.56,2.25-0.56c0.99,0,1.85,0.27,2.58,0.8c0.72,0.54,1.17,1.15,1.35,1.85 c0.18,0.7,0.27,1.88,0.27,3.55v8.86c0,1.91-0.11,3.27-0.34,4.08c-0.23,0.8-0.69,1.45-1.39,1.93c-0.7,0.48-1.55,0.72-2.54,0.72 c-0.79,0-1.52-0.18-2.2-0.56c-0.67-0.37-1.29-0.92-1.85-1.66v4.81h-6.39V35.86H58.33L58.33,35.86z M60.16,41.98 c0-1.3-0.05-2.09-0.15-2.36c-0.09-0.28-0.36-0.41-0.79-0.41c-0.43,0-0.7,0.16-0.82,0.48c-0.12,0.31-0.18,1.08-0.18,2.3v8.71 c0,1.26,0.07,2.06,0.19,2.37c0.13,0.32,0.41,0.48,0.83,0.48c0.42,0,0.67-0.15,0.77-0.44c0.1-0.29,0.15-0.99,0.15-2.11V41.98 L60.16,41.98z M82.32,35.86l-1.83,15.2c-0.29,2.41-0.53,4.05-0.73,4.93c-0.19,0.88-0.52,1.6-0.97,2.17 c-0.45,0.57-1.08,0.99-1.89,1.26c-0.8,0.27-2.1,0.41-3.86,0.41h-3.87v-3.37c0.99,0,1.63-0.05,1.91-0.15 c0.29-0.1,0.43-0.32,0.43-0.67c0-0.17-0.13-0.9-0.4-2.2l-3.5-17.57h5.8l2.1,14.21l1.03-14.21H82.32L82.32,35.86z"/><path class="st1" d="M14.88,65.83v25.65H9.05L5.58,79.82v11.66H0V65.83h5.58l3.73,11.55V65.83H14.88L14.88,65.83z M32.14,81.33 h-8.3v4.56c0,0.95,0.07,1.57,0.21,1.84c0.14,0.28,0.41,0.41,0.8,0.41c0.49,0,0.82-0.18,0.98-0.55c0.17-0.37,0.25-1.07,0.25-2.12 V82.7h6.06v1.56c0,1.3-0.08,2.3-0.24,3c-0.17,0.7-0.55,1.44-1.15,2.24c-0.6,0.79-1.37,1.39-2.29,1.79 c-0.92,0.4-2.08,0.59-3.47,0.59c-1.35,0-2.55-0.19-3.58-0.59c-1.03-0.39-1.84-0.92-2.42-1.6c-0.58-0.68-0.97-1.43-1.19-2.25 c-0.22-0.82-0.33-2-0.33-3.57v-6.13c0-1.84,0.25-3.29,0.75-4.35c0.5-1.06,1.31-1.88,2.44-2.44c1.13-0.57,2.43-0.85,3.9-0.85 c1.79,0,3.27,0.34,4.44,1.02c1.17,0.68,1.99,1.58,2.46,2.71c0.47,1.12,0.7,2.7,0.7,4.74V81.33L32.14,81.33z M25.75,77.93v-1.53 c0-1.09-0.06-1.79-0.18-2.11c-0.12-0.32-0.36-0.48-0.73-0.48c-0.45,0-0.74,0.13-0.84,0.41c-0.11,0.27-0.16,0.99-0.16,2.18v1.53 H25.75L25.75,77.93z M55.16,70.47l-2.53,21.01h-6.95c-0.36-2.57-0.8-5.96-1.32-10.17c-0.2,1.85-0.45,3.72-0.77,5.59l-0.68,4.57 h-6.92l-2.7-21.01h5.47c0.06,0.55,0.53,4.57,1.42,12.05c0.09-0.78,0.56-4.8,1.42-12.05h5.3l1.32,12.05 c0.21-3.52,0.7-7.54,1.46-12.05H55.16L55.16,70.47z M76.9,65.83L72.04,82.2v9.28h-6.16V82.2l-4.7-16.36h6.12 c0.95,5.02,1.49,8.39,1.63,10.12c0.38-2.74,1-6.11,1.86-10.12H76.9L76.9,65.83z M91.17,81.33h-8.3v4.56c0,0.95,0.07,1.57,0.21,1.84 c0.14,0.28,0.41,0.41,0.8,0.41c0.49,0,0.82-0.18,0.98-0.55c0.17-0.37,0.25-1.07,0.25-2.12V82.7h6.06v1.56c0,1.3-0.08,2.3-0.24,3 c-0.17,0.7-0.55,1.44-1.15,2.24c-0.6,0.79-1.37,1.39-2.29,1.79c-0.92,0.4-2.08,0.59-3.47,0.59c-1.35,0-2.54-0.19-3.58-0.59 c-1.03-0.39-1.84-0.92-2.42-1.6s-0.97-1.43-1.19-2.25c-0.22-0.82-0.33-2-0.33-3.57v-6.13c0-1.84,0.25-3.29,0.75-4.35 c0.5-1.06,1.31-1.88,2.44-2.44c1.13-0.57,2.43-0.85,3.9-0.85c1.79,0,3.27,0.34,4.44,1.02s1.99,1.58,2.46,2.71 c0.47,1.12,0.7,2.7,0.7,4.74V81.33L91.17,81.33z M84.78,77.93v-1.53c0-1.09-0.06-1.79-0.18-2.11c-0.12-0.32-0.36-0.48-0.73-0.48 c-0.45,0-0.73,0.13-0.84,0.41c-0.11,0.27-0.16,0.99-0.16,2.18v1.53H84.78L84.78,77.93z M99.24,78.61h-6V77.2 c0-1.63,0.19-2.88,0.56-3.77c0.37-0.88,1.13-1.66,2.26-2.33c1.13-0.67,2.59-1.02,4.4-1.02c2.16,0,3.79,0.38,4.89,1.15 c1.1,0.76,1.76,1.7,1.98,2.82c0.22,1.11,0.33,3.41,0.33,6.88v10.55h-6.22v-1.88c-0.39,0.76-0.9,1.32-1.51,1.7 c-0.62,0.38-1.35,0.57-2.21,0.57c-1.12,0-2.14-0.31-3.08-0.94c-0.93-0.63-1.4-2-1.4-4.13v-1.73c0-1.57,0.25-2.64,0.75-3.22 c0.5-0.57,1.73-1.24,3.7-1.99c2.1-0.83,3.23-1.38,3.38-1.66c0.15-0.29,0.22-0.86,0.22-1.75c0-1.1-0.08-1.81-0.25-2.14 c-0.16-0.33-0.44-0.5-0.82-0.5c-0.44,0-0.71,0.14-0.81,0.42c-0.11,0.28-0.16,1.01-0.16,2.18V78.61L99.24,78.61z M101.28,81.49 c-1.03,0.75-1.63,1.38-1.79,1.89c-0.17,0.51-0.25,1.23-0.25,2.18c0,1.09,0.07,1.79,0.22,2.11c0.14,0.32,0.43,0.48,0.85,0.48 c0.41,0,0.67-0.13,0.79-0.37c0.12-0.25,0.18-0.9,0.18-1.96V81.49L101.28,81.49z M116.51,70.47l-0.23,2.77 c0.93-1.99,2.29-3.04,4.05-3.16v7.39c-1.17,0-2.04,0.16-2.59,0.48c-0.55,0.32-0.89,0.76-1.02,1.32c-0.12,0.56-0.19,1.86-0.19,3.91 v8.3h-6.39V70.47H116.51L116.51,70.47z"/></g></svg>