<svg id="Layer_1" data-name="Layer 1" xmlns="http://www.w3.org/2000/svg" viewBox="0 0 58.02 122.88"><defs><style>.cls-1{fill:#231f20;}</style></defs><title>jainism</title><path class="cls-1" d="M28.41,85.34a9,9,0,1,1-9,9,9,9,0,0,1,9-9Zm-2.48,30.08a1.53,1.53,0,1,1,1.54-1.53,1.53,1.53,0,0,1-1.54,1.53Zm1.33-31.68-.27,0L23.19,74l1.56,10.34a7.25,7.25,0,0,0-.87.36l-6.15-8.34,4.2,9.53-.25.2L13.59,79.6l6.49,8.11-.19.24-9.55-4.21,8.38,6.19c-.11.24-.2.48-.3.73L8,89.08l9.89,3.84a1.79,1.79,0,0,0,0,.23L7.34,94.31l10.51,1.16a1.5,1.5,0,0,0,0,.22L8,99.53,18.42,98c.11.27.22.55.34.81L10.34,105,20,100.75l.17.21-6.53,8.17,8.16-6.54.22.17-4.24,9.61L23.94,104c.27.12.53.23.81.33l-1.56,10.34,3.8-9.79.27,0,1.15,10.39,1.15-10.39.28,0,3.8,9.79-1.56-10.34c.27-.1.54-.21.8-.33l6.21,8.41-4.24-9.6.22-.18,8.17,6.54L36.7,101l.17-.22L46.48,105l-8.42-6.21q.18-.37.33-.78l10.23,1.55-9.68-3.76c0-.11,0-.22,0-.33l10.28-1.14L39,93.17c0-.11,0-.22,0-.33l9.68-3.76L38.39,90.63c-.1-.27-.21-.53-.33-.79l8.42-6.2-9.61,4.23-.17-.22,6.54-8.16L35.07,86l-.22-.17,4.24-9.61-6.21,8.42c-.26-.12-.53-.23-.8-.33L33.64,74l-3.8,9.78-.28,0L28.41,73.35,27.26,83.74Zm3.5-7.47a1.54,1.54,0,1,1,1.09-.45,1.53,1.53,0,0,1-1.09.45ZM36,77.64a1.54,1.54,0,0,1-1.09-.45,1.51,1.51,0,0,1-.45-1.08A1.54,1.54,0,0,1,36,74.57,1.51,1.51,0,0,1,37.1,75a1.54,1.54,0,0,1,.45,1.09A1.54,1.54,0,0,1,36,77.64Zm4.52,2.72a1.54,1.54,0,0,1-1.09-.45,1.55,1.55,0,0,1,0-2.17,1.54,1.54,0,0,1,1.09-.45,1.51,1.51,0,0,1,1.08.45,1.53,1.53,0,0,1,0,2.17,1.51,1.51,0,0,1-1.08.45Zm3.36,3.3h0a1.54,1.54,0,1,1,1.54-1.54,1.54,1.54,0,0,1-1.54,1.54Zm-31.07.07a1.54,1.54,0,0,1-1.09-.45,1.52,1.52,0,0,1,0-2.16,1.54,1.54,0,0,1,1.09-.45,1.53,1.53,0,0,1,0,3.06Zm3.31-3.44a1.54,1.54,0,1,1,1.53-1.53,1.53,1.53,0,0,1-1.53,1.53Zm4.68-2.75A1.53,1.53,0,1,1,22.35,76a1.53,1.53,0,0,1-1.53,1.53Zm5.12-1.27a1.54,1.54,0,1,1,1.53-1.53,1.53,1.53,0,0,1-1.53,1.53Zm18,31.74h0a1.51,1.51,0,0,1-1.08-.45,1.53,1.53,0,0,1,0-2.17,1.52,1.52,0,0,1,2.16,0,1.53,1.53,0,0,1,0,2.17,1.51,1.51,0,0,1-1.08.45Zm-13.17,7.41a1.53,1.53,0,1,1,0-3.06,1.53,1.53,0,0,1,0,3.06Zm9.86-4a1.54,1.54,0,0,1-1.53-1.53,1.54,1.54,0,0,1,.45-1.09,1.52,1.52,0,0,1,2.16,0,1.54,1.54,0,0,1,.45,1.09,1.54,1.54,0,0,1-1.53,1.53ZM36,114.05A1.53,1.53,0,0,1,36,111a1.54,1.54,0,0,1,1.09.45,1.55,1.55,0,0,1,0,2.16,1.54,1.54,0,0,1-1.09.45ZM46.65,88.34h0a1.54,1.54,0,1,1,1.53-1.53,1.51,1.51,0,0,1-.45,1.08,1.5,1.5,0,0,1-1.08.45Zm1.27,5.12h0A1.54,1.54,0,1,1,49,93a1.54,1.54,0,0,1-1.09.45Zm.1,4.77h0a1.5,1.5,0,0,1-1.53-1.53,1.5,1.5,0,0,1,.44-1.08A1.54,1.54,0,0,1,48,95.17a1.54,1.54,0,0,1,1.53,1.53,1.54,1.54,0,0,1-.45,1.09,1.5,1.5,0,0,1-1.08.44Zm-1.37,5.26h0a1.54,1.54,0,1,1,0-3.07,1.51,1.51,0,0,1,1.08.45,1.53,1.53,0,0,1,0,2.17,1.51,1.51,0,0,1-1.08.45ZM10.11,88.25a1.53,1.53,0,1,1,0-3.06,1.53,1.53,0,0,1,0,3.06Zm6.13,23.12a1.54,1.54,0,1,1,1.53-1.53,1.53,1.53,0,0,1-1.53,1.53Zm4.58,2.78a1.54,1.54,0,1,1,1.53-1.53,1.54,1.54,0,0,1-1.53,1.53Zm-8-6.13h0a1.53,1.53,0,1,1,1.53-1.53A1.54,1.54,0,0,1,12.81,108Zm-2.75-4.68a1.52,1.52,0,1,1,1.09-.45,1.54,1.54,0,0,1-1.09.45ZM8.79,98.22a1.54,1.54,0,1,1,0-3.07,1.51,1.51,0,0,1,1.08.45,1.53,1.53,0,0,1-1.08,2.62Zm0-4.71a1.54,1.54,0,0,1-1.09-.45,1.55,1.55,0,0,1,0-2.17,1.54,1.54,0,0,1,1.09-.45A1.54,1.54,0,0,1,10.27,92a1.54,1.54,0,0,1-.45,1.09,1.51,1.51,0,0,1-1.08.45Z"/><path class="cls-1" d="M28.41,74.58A19.73,19.73,0,1,1,8.69,94.31,19.73,19.73,0,0,1,28.41,74.58Zm0-2.48A22.21,22.21,0,0,0,8,103,22.2,22.2,0,0,0,44.12,110a22.22,22.22,0,0,0-7.06-36.17,22.24,22.24,0,0,0-8.65-1.74Z"/><path class="cls-1" d="M32.18,90.73s-.07-1.13-.86-1.13h-.93v.81a1,1,0,0,1,.87,1.16l.92-.84ZM31,94.25H29.8a.59.59,0,0,1-.43-.51h-.5s.2,1.13.93,1.13H31v-.62ZM27,88.9s1.52-2.93,3.32,0h1.12a2.54,2.54,0,0,0-2.82-2.33,2.54,2.54,0,0,0-2.8,2.12h0v13.23a8.22,8.22,0,0,0,1.2.34V88.9Zm-6,8.38h.56s-.11.59.68.59V94.64h-.62V94h.62V90.8c-.79,0-.68.58-.68.58h-.56c0-2,2.4-2.31,2.4-2.31v5H24V87.8a8.32,8.32,0,0,1,1.2-.69v14.61A8.32,8.32,0,0,1,24,101V94.64h-.51v5s-2.4-.27-2.4-2.32Zm8.67-3.35h.43v-.48h0c0-.3.2-2.5-1.26-2.5s-1.51,2-1.51,2v1.16a2.38,2.38,0,0,0,1,1.82c-1.13.59-1,1.6-1,3.84S30.12,102,30.12,102v-.56h0c-1.89-.09-2.25-4.92-1.11-4.92s.76,2.33.76,2.33h.44s1.18-2.51-.69-3.55-.9-3.7-.32-3.7.57,1.55.57,1.79v.51Zm-.09-4.33a.77.77,0,0,0-1.54,0,.77.77,0,1,0,1.54,0ZM31,98.26s-.7,1.3-1.66,1.48c0,0,.41,1.71,2.79,1.71V101s-1.1-.08-1.31-.71c0,0,1.37-.59,1.38-1.31h0V94.87h.59v6.35a8.6,8.6,0,0,0,1.2-.88v-12a8.67,8.67,0,0,0-1.2-.89v6.81H32.2V90.59H31v7.67Zm4.77-7.52a8.15,8.15,0,0,0-1.2-1.7V99.9a8.15,8.15,0,0,0,1.2-1.7V90.74Z"/><polygon class="cls-1" points="10.61 67.83 13.96 67.83 13.96 32.18 10.61 32.18 10.61 67.83 10.61 67.83"/><polygon class="cls-1" points="21.21 64.09 24.56 64.09 24.56 12.36 21.21 12.36 21.21 64.09 21.21 64.09"/><polygon class="cls-1" points="31.82 64.05 35.17 64.05 35.17 12.32 31.82 12.32 31.82 64.05 31.82 64.05"/><polygon class="cls-1" points="42.44 67.83 45.79 67.83 45.79 39.06 42.44 39.06 42.44 67.83 42.44 67.83"/><path class="cls-1" d="M28.2,122.88A28.23,28.23,0,0,1,0,94.68V32.18a7,7,0,0,1,7-7,6.91,6.91,0,0,1,3.63,1V12.78a7,7,0,0,1,10.61-6,7,7,0,0,1,14,.16v5.81a6.91,6.91,0,0,1,3.63-1,7,7,0,0,1,7,7V36.64a10.52,10.52,0,0,1,7.08-2.86,1.45,1.45,0,0,1,.36,0h0a4.88,4.88,0,0,1,3.86,1.73c1,1.26,1.19,3,.61,5.2a35.72,35.72,0,0,0-1.31,10.76V94.68a28.22,28.22,0,0,1-28.19,28.2ZM7,28.55a3.63,3.63,0,0,0-3.63,3.63v62.5a24.85,24.85,0,1,0,49.69,0V51.46a38.93,38.93,0,0,1,1.42-11.61,3,3,0,0,0,0-2.31,1.51,1.51,0,0,0-1.08-.42H53a7.23,7.23,0,0,0-7.23,7.23H42.44V18.75a3.63,3.63,0,1,0-7.26,0H31.83V7a3.63,3.63,0,0,0-7.26,0v5.8H21.22a3.63,3.63,0,0,0-7.26,0v19.4H10.61A3.63,3.63,0,0,0,7,28.55Z"/></svg>