<svg xmlns="http://www.w3.org/2000/svg" shape-rendering="geometricPrecision" text-rendering="geometricPrecision" image-rendering="optimizeQuality" fill="#FF6600" fill-rule="evenodd" clip-rule="evenodd" viewBox="0 0 411 512.04"><path d="M228.59 19.52s-.81 88.04-95.61 88.04c-94.79 0-95.61-88.04-95.61-88.04S66.03 74.8 131.14 74.8s97.45-55.28 97.45-55.28zM0 133.77h262.1c0-22.58.6-44.74-.16-66.84-.87-25.45 10.58-42.21 32.82-53.48C337.61-8.26 382.09-3.56 411 26.62c-9.32 0-19.19-2.17-27.62.39-30.14 9.16-42.83 13.16-42.38 52.61 1.13 99.29-.92 198.61 1.01 297.86.81 42.1-17.33 72.36-46.84 97.93-52.57 45.56-107.72 44.35-172.03 19.63-35.97-13.84-65.88-33.58-82.66-69.54-1.89-4.04-3.65-8.18-5.02-12.43-.75-2.32-.56-4.94-1.11-10.64 8.7 9.77 14.87 18.04 22.36 24.86 40.23 36.59 87.48 46.31 139.09 32.6 30.32-8.06 60.97-38.2 62.71-86.31.59-16.46-.25-33.05-.25-50.87H147.19c1.6 3.99 2.6 6.9 3.91 9.66 7.74 16.24 12.44 33.13 1.12 49.1-8.34 11.78-31.56 21.62-59.72 9.12-29.34-13.01-51.32-47.66-48.45-78.44 2.51-26.91 19.68-42.99 46.66-43.08 48.05-.17 96.09-.05 144.14-.05h22.07v-81.1H26.07C16.77 169.98 8.39 153.79 0 137.61v-3.84zM132.04 6.55c18.32 0 33.17 10.59 33.17 23.65 0 13.06-14.85 23.65-33.17 23.65S98.87 43.26 98.87 30.2c0-13.06 14.85-23.65 33.17-23.65z"/></svg>