<?xml version="1.0" encoding="utf-8"?><svg version="1.1" id="Layer_1" xmlns="http://www.w3.org/2000/svg" xmlns:xlink="http://www.w3.org/1999/xlink" x="0px" y="0px" viewBox="0 0 106.34 122.88" style="enable-background:new 0 0 106.34 122.88" xml:space="preserve"><g><path d="M89.23,108.15L63.35,91.54l-14.31,27.38L89.23,108.15L89.23,108.15z M73.57,42.86c4.04-1.08,8.2,1.32,9.28,5.36 c1.08,4.04-1.32,8.2-5.36,9.28c-4.04,1.08-8.2-1.32-9.28-5.36C67.13,48.1,69.52,43.94,73.57,42.86L73.57,42.86z M29.91,54.56 c4.04-1.08,8.2,1.32,9.28,5.36c1.08,4.04-1.32,8.2-5.36,9.28c-4.04,1.08-8.2-1.32-9.28-5.36S25.87,55.64,29.91,54.56L29.91,54.56z M64.5,88.6l6.24,3.11l31.09-51.18c-16.89-8.54-35.32-10.07-52.19-5.88L63.71,88.1L64.5,88.6L64.5,88.6z M72.95,94.02l20.83,13.37 c0.35,0.2,0.62,0.53,0.74,0.95c0.22,0.83-0.27,1.68-1.1,1.9l-46.98,12.59c-0.36,0.09-0.76,0.06-1.12-0.13 c-0.76-0.4-1.05-1.33-0.65-2.09l11.86-22.69L0,67.55L38.75,0l67.59,39.04l-0.7,1.15c-0.02,0.18-0.08,0.35-0.17,0.52 c-0.12,0.22-0.28,0.4-0.47,0.53C94.32,58.84,83.64,76.43,72.95,94.02L72.95,94.02z M87.81,31.91L41.94,5.41l6.91,26.25 C61.4,28.54,74.78,28.46,87.81,31.91L87.81,31.91z M12.63,51.75c9.37-9.1,20.84-15.69,33.24-19.28l-6.98-26.5L12.63,51.75 L12.63,51.75z M46.66,35.45C29.69,40.4,14.53,51.18,4.45,66.43L57.78,95.1l3.08-5.71L46.66,35.45L46.66,35.45z"/></g></svg>