<?xml version="1.0" encoding="utf-8"?><svg version="1.1" id="Layer_1" xmlns="http://www.w3.org/2000/svg" xmlns:xlink="http://www.w3.org/1999/xlink" x="0px" y="0px" viewBox="0 0 119.49 122.88" style="enable-background:new 0 0 119.49 122.88" xml:space="preserve"><g><path d="M10.4,52.79L39.76,0C57.7,10.2,75.65,20.4,93.59,30.6c14.15,1.31,15.67,7.59,17.13,13.64c0.85,3.51,1.67,6.91,6.26,8.49 c0.23,0.08,0.42,0.14,0.56,0.18l0.01,0c0.2,0.06,0.36,0.1,0.48,0.13c1.01,0.23,1.64,1.24,1.4,2.25c-0.23,1.01-1.24,1.64-2.25,1.4 c-0.25-0.06-0.48-0.12-0.7-0.18c-0.26-0.08-0.51-0.16-0.72-0.23c-6.55-2.25-7.61-6.64-8.7-11.16c-1.1-4.57-2.25-9.3-12.44-10.63 c-0.13,0.14-0.27,0.26-0.43,0.36l-4.81,14.62c4.9,0.55,8.2,1.78,10.5,3.4c2.65,1.87,3.95,4.2,4.79,6.65 c0.33,0.98-0.19,2.05-1.17,2.39c-0.98,0.33-2.05-0.19-2.39-1.17c-0.62-1.81-1.55-3.5-3.39-4.8c-1.93-1.37-4.89-2.39-9.54-2.82 L71,105.37c-0.59,10.29,2,13.45,5.89,13.73c3,0.21,6.92-0.98,10.86-2.18c8.34-2.54,16.74-5.09,20.57,3.29 c0.43,0.95,0.01,2.06-0.93,2.49c-0.95,0.43-2.06,0.01-2.49-0.93c-2.46-5.39-9.29-3.31-16.06-1.25c-4.26,1.3-8.51,2.59-12.21,2.33 c-6.06-0.43-10.15-4.54-9.37-17.78L23.86,66.99c-3.29,2.63-4.89,4.93-5.53,7.02c-0.66,2.17-0.3,4.26,0.26,6.31 c0.27,1-0.33,2.03-1.33,2.3c-1,0.27-2.03-0.33-2.3-1.33c-0.71-2.62-1.16-5.33-0.23-8.38c0.81-2.65,2.64-5.43,6.26-8.44l-8.89-7.8 c-0.17-0.01-0.35-0.04-0.51-0.09C3.43,62.82,4.81,67.49,6.13,72c1.31,4.46,2.59,8.8-1.96,14.01c-0.15,0.17-0.32,0.36-0.51,0.56 c-0.18,0.19-0.35,0.36-0.51,0.5c-0.76,0.71-1.95,0.67-2.65-0.09c-0.71-0.76-0.67-1.95,0.09-2.65c0.12-0.11,0.24-0.24,0.36-0.36 c0.1-0.11,0.24-0.26,0.39-0.44c3.19-3.66,2.2-7.03,1.18-10.48C0.78,67.11-1.04,60.95,10.4,52.79L10.4,52.79z M18.06,46.74 c8.88-7.51,18.37-12.82,28.47-15.91L39.91,7.46L18.06,46.74L18.06,46.74z M50.15,29.83c10.39-2.59,21.37-2.88,32.97-0.85 L43.53,6.47L50.15,29.83L50.15,29.83z M90.38,34.41c-13.99-3.67-27.05-3.98-39.2-0.97l18.29,64.53L90.38,34.41L90.38,34.41z M47.56,34.44C35.98,38,25.2,44.66,15.23,54.41L65.8,98.79L47.56,34.44L47.56,34.44z M67.47,41.13c3.7-0.99,7.51,1.2,8.5,4.91 c0.99,3.7-1.21,7.51-4.91,8.5c-3.7,0.99-7.51-1.2-8.5-4.91C61.57,45.93,63.77,42.12,67.47,41.13L67.47,41.13z M38.4,48.92 c3.7-0.99,7.51,1.2,8.5,4.91c0.99,3.7-1.2,7.51-4.91,8.5c-3.7,0.99-7.51-1.2-8.5-4.91C32.5,53.72,34.7,49.91,38.4,48.92L38.4,48.92 z"/></g></svg>