<?xml version="1.0" encoding="utf-8"?><svg version="1.1" id="Layer_1" xmlns="http://www.w3.org/2000/svg" xmlns:xlink="http://www.w3.org/1999/xlink" x="0px" y="0px" viewBox="0 0 122.88 91.73" style="enable-background:new 0 0 122.88 91.73" xml:space="preserve"><style type="text/css"><![CDATA[
	.st0{fill:#EE4856;}
	.st1{fill:#2394E0;}
	.st2{fill-rule:evenodd;clip-rule:evenodd;fill:#EE4856;}
	.st3{fill-rule:evenodd;clip-rule:evenodd;fill:#2394E0;}
]]></style><g><path class="st3" d="M83.2,14.19c-2.2,3.72-7.28,11.7-10.54,15.82H72.5c2.91-5.65,7.71-14.2,10.85-19.05L83.2,14.19L83.2,14.19 L83.2,14.19z M67.06,1.89l3.33,0.75L72.54,0l0.31,3.39l3.17,1.23l-3.13,1.35l-0.19,3.4l-2.25-2.56l-3.29,0.87l1.74-2.93L67.06,1.89 L67.06,1.89L67.06,1.89z M70.94,9.78c-0.39,3.67,0.04,14.12,0,20.29l-0.19,0.03c-0.08,0.02-0.16,0.03-0.24,0.05 c-0.71-6.6-0.97-16.52-1.27-21.7L70.94,9.78L70.94,9.78L70.94,9.78z M45.06,20.46l-0.61,2.89l-2.85,0.74l2.56,1.47l-0.17,2.94 l2.19-1.98l2.75,1.08l-1.2-2.69l1.87-2.28l-2.94,0.31L45.06,20.46L45.06,20.46L45.06,20.46z M52.22,5.05l-1.38,3.36l-3.63,0.27 l2.77,2.35l-0.87,3.53l3.09-1.91l3.09,1.92l-0.86-3.53l2.78-2.35l-3.62-0.28L52.22,5.05L52.22,5.05L52.22,5.05z M50.47,26.78 c1.79,0.58,4.65,1.84,7.71,3.23h2.36c-3.81-1.95-7.71-3.83-10.6-5.31L50.47,26.78L50.47,26.78L50.47,26.78z M56.35,14.48 c2.39,3.29,7.04,10.41,10.67,15.16c0.36,0.03,0.72,0.08,1.07,0.15c-3.37-5.93-8.42-14-11.46-17.92L56.35,14.48L56.35,14.48 L56.35,14.48z M95.99,17.26l0.89,3.53l3.55,0.77l-3.08,1.94l0.36,3.62l-2.79-2.33l-3.33,1.46l1.35-3.38l-2.42-2.71l3.63,0.24 L95.99,17.26L95.99,17.26L95.99,17.26z M85.61,5.89l1.28,2.49l2.79-0.04l-1.96,1.99l0.9,2.65l-2.5-1.26l-2.24,1.67l0.42-2.76 l-2.29-1.61l2.76-0.45L85.61,5.89L85.61,5.89L85.61,5.89z M90.34,25.2c-2.26,0.84-6.26,2.87-10.17,4.85 c-0.35,0.04-0.69,0.13-1.01,0.25c-0.29-0.11-0.59-0.19-0.9-0.24c4.35-2.54,9.14-5.05,12.53-6.97L90.34,25.2L90.34,25.2L90.34,25.2z"/><path class="st2" d="M106.02,47.62c-4.5,0.37-14.59,1.53-19.52,2.71c6.32-0.12,16.57-0.71,22.49-1.43L106.02,47.62L106.02,47.62 L106.02,47.62z M110.45,65.68l0.35-1.48l3.31-0.78l-2.91-1.77l0.28-3.39l-2.58,2.23l-3.14-1.32l1.31,3.14l-2.22,2.58l3.4-0.28 l0.99,1.63l0.21,0.11C109.74,66.08,110.08,65.85,110.45,65.68L110.45,65.68z M104.62,60.58c-4.08-1.47-16.11-8.08-20.8-10.04 c5.18,3.62,16.04,9.23,21.25,12.14L104.62,60.58L104.62,60.58L104.62,60.58z M80.9,61.13c0.09-3.78,0.17-7.58,0.4-10 c0.38,3.08,0.53,6.95,0.6,10.8C81.6,61.61,81.27,61.34,80.9,61.13L80.9,61.13z M90.71,65.76c-2.87-5.04-6.33-11.17-7.5-14.44 c2.88,3.92,7.36,10.79,10.55,16.25c-0.47-0.39-0.99-0.75-1.54-1.07C91.74,66.21,91.23,65.97,90.71,65.76L90.71,65.76z M108.85,34.77l-2.78-2.35l0.86-3.53l-3.09,1.92l-3.09-1.91l0.87,3.53l-2.77,2.36l3.63,0.26l1.38,3.37l1.37-3.37L108.85,34.77 L108.85,34.77L108.85,34.77z M114.54,49.08l-1.68-2.24l1.26-2.5l-2.65,0.9l-1.99-1.97l0.04,2.79l-2.49,1.29l2.67,0.83l0.45,2.76 l1.61-2.29L114.54,49.08L114.54,49.08L114.54,49.08z M99.25,36.38c-3.13,3-12.2,9.35-16.03,12.69c5.55-3.03,13.2-8.78,18.12-12.16 L99.25,36.38L99.25,36.38L99.25,36.38z"/><path class="st0" d="M15.2,65.14v26.19H9.24L5.69,79.42v11.91H0V65.14h5.69L9.5,76.94V65.14H15.2L15.2,65.14z M32.82,80.97h-8.48 v4.65c0,0.97,0.07,1.6,0.21,1.88c0.14,0.28,0.41,0.42,0.82,0.42c0.5,0,0.84-0.19,1-0.56c0.17-0.38,0.25-1.1,0.25-2.17v-2.84h6.19 v1.59c0,1.33-0.08,2.35-0.25,3.06c-0.17,0.71-0.56,1.47-1.18,2.28c-0.61,0.81-1.4,1.42-2.34,1.83c-0.94,0.4-2.12,0.61-3.55,0.61 c-1.38,0-2.6-0.2-3.66-0.6c-1.05-0.4-1.88-0.94-2.47-1.64c-0.59-0.7-0.99-1.46-1.22-2.3c-0.23-0.83-0.34-2.05-0.34-3.65v-6.26 c0-1.88,0.25-3.36,0.76-4.44c0.51-1.08,1.33-1.91,2.49-2.49c1.16-0.58,2.48-0.87,3.98-0.87c1.83,0,3.34,0.35,4.54,1.04 c1.19,0.7,2.03,1.62,2.51,2.76c0.48,1.14,0.72,2.76,0.72,4.84V80.97L32.82,80.97z M26.3,77.49v-1.57c0-1.12-0.06-1.83-0.18-2.15 c-0.12-0.33-0.37-0.49-0.75-0.49c-0.46,0-0.75,0.14-0.86,0.41c-0.11,0.28-0.17,1.02-0.17,2.22v1.57H26.3L26.3,77.49z M56.33,69.88 l-2.59,21.46h-7.1c-0.36-2.62-0.82-6.08-1.35-10.38c-0.2,1.89-0.46,3.8-0.78,5.71l-0.7,4.67h-7.07l-2.76-21.46h5.59 c0.07,0.56,0.55,4.66,1.45,12.31c0.09-0.79,0.57-4.9,1.45-12.31h5.41l1.35,12.31c0.22-3.6,0.71-7.71,1.49-12.31H56.33L56.33,69.88z M78.53,65.14l-4.96,16.71v9.48h-6.29v-9.48l-4.8-16.71h6.25c0.97,5.13,1.52,8.57,1.66,10.34c0.39-2.79,1.02-6.24,1.9-10.34H78.53 L78.53,65.14z M93.09,80.97h-8.48v4.65c0,0.97,0.07,1.6,0.21,1.88c0.14,0.28,0.41,0.42,0.82,0.42c0.5,0,0.84-0.19,1-0.56 c0.17-0.38,0.25-1.1,0.25-2.17v-2.84h6.19v1.59c0,1.33-0.08,2.35-0.25,3.06c-0.17,0.71-0.56,1.47-1.18,2.28 c-0.61,0.81-1.4,1.42-2.34,1.83c-0.94,0.4-2.12,0.61-3.55,0.61c-1.38,0-2.6-0.2-3.66-0.6c-1.05-0.4-1.88-0.94-2.46-1.64 c-0.59-0.7-0.99-1.46-1.22-2.3c-0.23-0.83-0.34-2.05-0.34-3.65v-6.26c0-1.88,0.25-3.36,0.76-4.44c0.51-1.08,1.34-1.91,2.49-2.49 c1.16-0.58,2.48-0.87,3.98-0.87c1.83,0,3.34,0.35,4.54,1.04c1.19,0.7,2.03,1.62,2.51,2.76c0.48,1.14,0.72,2.76,0.72,4.84V80.97 L93.09,80.97z M86.57,77.49v-1.57c0-1.12-0.06-1.83-0.18-2.15c-0.12-0.33-0.37-0.49-0.75-0.49c-0.46,0-0.75,0.14-0.86,0.41 c-0.11,0.28-0.17,1.02-0.17,2.22v1.57H86.57L86.57,77.49z M101.34,78.19h-6.13v-1.44c0-1.66,0.19-2.94,0.57-3.85 c0.38-0.9,1.15-1.69,2.31-2.38c1.15-0.69,2.65-1.04,4.5-1.04c2.21,0,3.87,0.39,4.99,1.18c1.12,0.78,1.79,1.74,2.02,2.87 s0.34,3.48,0.34,7.03v10.77h-6.36v-1.92c-0.4,0.77-0.92,1.35-1.55,1.73c-0.63,0.38-1.38,0.58-2.26,0.58 c-1.14,0-2.19-0.32-3.15-0.96c-0.95-0.65-1.43-2.05-1.43-4.22v-1.77c0-1.61,0.25-2.7,0.76-3.28c0.51-0.59,1.77-1.26,3.77-2.04 c2.15-0.84,3.29-1.41,3.45-1.7c0.15-0.29,0.23-0.88,0.23-1.78c0-1.12-0.08-1.85-0.25-2.19c-0.17-0.34-0.45-0.51-0.84-0.51 c-0.45,0-0.72,0.14-0.83,0.43c-0.11,0.28-0.17,1.03-0.17,2.22V78.19L101.34,78.19z M103.42,81.13c-1.05,0.77-1.67,1.41-1.83,1.93 c-0.17,0.52-0.25,1.26-0.25,2.23c0,1.12,0.07,1.83,0.22,2.15c0.14,0.33,0.44,0.49,0.87,0.49c0.41,0,0.68-0.13,0.81-0.38 s0.19-0.92,0.19-2V81.13L103.42,81.13z M118.97,69.88l-0.23,2.83c0.96-2.03,2.33-3.1,4.14-3.22v7.55c-1.2,0-2.08,0.16-2.64,0.48 s-0.9,0.77-1.04,1.35c-0.13,0.57-0.19,1.9-0.19,3.99v8.48h-6.52V69.88H118.97L118.97,69.88z"/><path class="st1" d="M18.22,29.8v26.19H11.4V45H9.41v10.99H2.59V29.8h6.82v9.37h1.99V29.8H18.22L18.22,29.8z M26.89,42.85h-6.13 v-1.44c0-1.66,0.19-2.94,0.57-3.85c0.38-0.9,1.15-1.69,2.31-2.38s2.65-1.04,4.5-1.04c2.21,0,3.87,0.39,4.99,1.18 c1.12,0.78,1.79,1.74,2.02,2.88c0.23,1.14,0.34,3.48,0.34,7.03v10.77h-6.36v-1.91c-0.4,0.77-0.92,1.35-1.55,1.73 c-0.63,0.39-1.38,0.58-2.26,0.58c-1.14,0-2.19-0.32-3.15-0.96c-0.95-0.65-1.43-2.05-1.43-4.22v-1.77c0-1.61,0.25-2.7,0.76-3.28 c0.51-0.58,1.77-1.26,3.77-2.04c2.15-0.84,3.29-1.41,3.45-1.7c0.15-0.29,0.23-0.88,0.23-1.78c0-1.12-0.08-1.85-0.25-2.19 c-0.17-0.34-0.45-0.51-0.84-0.51c-0.45,0-0.72,0.14-0.83,0.43c-0.11,0.28-0.17,1.03-0.17,2.22V42.85L26.89,42.85z M28.98,45.79 c-1.05,0.77-1.67,1.41-1.83,1.93c-0.17,0.52-0.25,1.26-0.25,2.23c0,1.12,0.07,1.83,0.22,2.15c0.14,0.33,0.44,0.49,0.87,0.49 c0.41,0,0.68-0.13,0.81-0.38c0.13-0.25,0.19-0.92,0.19-2V45.79L28.98,45.79z M44.68,34.54l-0.12,1.9c0.59-0.77,1.23-1.35,1.93-1.73 c0.7-0.38,1.47-0.57,2.3-0.57c1.02,0,1.89,0.27,2.63,0.82c0.73,0.55,1.2,1.18,1.38,1.89c0.18,0.71,0.28,1.92,0.28,3.63v9.04 c0,1.95-0.12,3.34-0.35,4.17c-0.23,0.82-0.71,1.48-1.42,1.97c-0.72,0.49-1.58,0.73-2.6,0.73c-0.81,0-1.56-0.19-2.25-0.57 c-0.69-0.38-1.32-0.94-1.89-1.69v4.91h-6.52v-24.5H44.68L44.68,34.54z M46.55,40.78c0-1.33-0.05-2.13-0.15-2.41 c-0.09-0.28-0.36-0.42-0.81-0.42c-0.44,0-0.71,0.16-0.84,0.49c-0.13,0.32-0.19,1.1-0.19,2.35v8.9c0,1.29,0.07,2.1,0.19,2.42 c0.13,0.33,0.41,0.49,0.85,0.49c0.43,0,0.68-0.15,0.79-0.45c0.11-0.29,0.15-1.02,0.15-2.16V40.78L46.55,40.78z M62.15,34.54 l-0.12,1.9c0.59-0.77,1.22-1.35,1.93-1.73c0.7-0.38,1.47-0.57,2.3-0.57c1.01,0,1.89,0.27,2.63,0.82c0.73,0.55,1.2,1.18,1.38,1.89 c0.18,0.71,0.28,1.92,0.28,3.63v9.04c0,1.95-0.12,3.34-0.35,4.17c-0.23,0.82-0.71,1.48-1.42,1.97c-0.72,0.49-1.58,0.73-2.6,0.73 c-0.81,0-1.56-0.19-2.25-0.57s-1.32-0.94-1.89-1.69v4.91h-6.52v-24.5H62.15L62.15,34.54z M64.02,40.78c0-1.33-0.05-2.13-0.15-2.41 c-0.09-0.28-0.37-0.42-0.81-0.42c-0.44,0-0.71,0.16-0.84,0.49c-0.13,0.32-0.19,1.1-0.19,2.35v8.9c0,1.29,0.07,2.1,0.19,2.42 c0.13,0.33,0.41,0.49,0.85,0.49c0.42,0,0.68-0.15,0.79-0.45c0.11-0.29,0.15-1.02,0.15-2.16V40.78L64.02,40.78z M86.66,34.54 l-1.87,15.52c-0.3,2.46-0.54,4.14-0.74,5.03c-0.2,0.89-0.53,1.63-0.99,2.21c-0.46,0.59-1.1,1.01-1.93,1.29 c-0.82,0.28-2.14,0.41-3.95,0.41h-3.96v-3.44c1.02,0,1.67-0.05,1.95-0.16c0.29-0.1,0.44-0.33,0.44-0.68c0-0.18-0.14-0.92-0.41-2.25 l-3.58-17.94h5.92l2.14,14.51l1.05-14.51H86.66L86.66,34.54z"/></g></svg>