<svg id="Layer_1" data-name="Layer 1" xmlns="http://www.w3.org/2000/svg" viewBox="0 0 122.88 103.68"><defs><style>.cls-1{fill:#2394e0;}.cls-1,.cls-2,.cls-3,.cls-4,.cls-5,.cls-6{fill-rule:evenodd;}.cls-2{fill:#00a4ef;}.cls-3{fill:#ffb900;}.cls-4{fill:#999;}.cls-5{fill:#7fba00;}.cls-6{fill:#f25022;}.cls-7{fill:#ef4136;}</style></defs><title>new-year-2022</title><path class="cls-1" d="M19,53.26c3,1.13,7.47,3.29,12.42,5.79A20.57,20.57,0,0,1,34,57.79c-5.82-3.27-11.44-6.34-15.89-8.9L19,53.26Z"/><path class="cls-2" d="M101.63,53.89c-2.44.78-5.85,2.15-9.7,3.81-.82.24-1.63.5-2.44.79a8.15,8.15,0,0,0-1.84.93,20.23,20.23,0,0,0-2.34-1.28C91.68,55,97.89,52,102.74,49.57l-1.11,4.32Z"/><polygon class="cls-3" points="93.73 13.47 96.15 18.74 101.94 18.93 97.67 22.85 99.27 28.42 94.23 25.58 89.42 28.82 90.57 23.15 86 19.58 91.76 18.92 93.73 13.47 93.73 13.47 93.73 13.47"/><polygon class="cls-4" points="114.1 38.02 115.6 45.41 122.88 47.36 116.32 51.07 116.72 58.59 111.16 53.5 104.13 56.2 107.25 49.35 102.5 43.5 109.99 44.34 114.1 38.02 114.1 38.02 114.1 38.02"/><path class="cls-5" d="M32.33,28.39c4,6.1,11.24,18.33,17.69,28.12a22.9,22.9,0,0,1,3.09.79c-6.28-12-14.64-26.71-20-34.28l-.83,5.37Z"/><polygon class="cls-5" points="24.71 8.46 21.52 15.28 13.98 15.48 19.49 20.61 17.35 27.84 23.94 24.18 30.15 28.45 28.72 21.06 34.7 16.48 27.23 15.55 24.71 8.46 24.71 8.46 24.71 8.46"/><polygon class="cls-1" points="8.39 39.65 6.85 45.56 0.87 46.82 6.02 50.12 5.37 56.19 10.09 52.31 15.67 54.81 13.45 49.12 17.55 44.59 11.44 44.95 8.39 39.65 8.39 39.65 8.39 39.65"/><path class="cls-6" d="M63,20.08c-1.05,6.74-1.27,24.77-1.79,37.64l-1.3.4c-.55-13.47-.2-31.23-.29-41L63,20.08Z"/><polygon class="cls-6" points="55.73 3.38 62.54 5.25 67.25 0 67.57 7.05 74.02 9.9 67.41 12.39 66.68 19.41 62.28 13.9 55.38 15.38 59.26 9.49 55.73 3.38 55.73 3.38 55.73 3.38"/><path class="cls-3" d="M87.92,30.41C84,36.33,76.14,47.6,69.49,56.11c-.62.06-1.24.13-1.86.22,6.49-10.87,15.06-24.39,20.92-32.59l-.63,6.67Z"/><path class="cls-7" d="M26.58,102.92H0v-10l5.05-4.87c1.08-1,2.13-2,3.13-3l2.44-2.44a14.37,14.37,0,0,0,1.8-2.2,6.88,6.88,0,0,0,1-1.83,5.77,5.77,0,0,0,.14-1.25c0-1-.29-1.64-.87-1.91A8,8,0,0,0,9.58,75a42.13,42.13,0,0,0-7.66.64L.7,75.88.12,66a37.39,37.39,0,0,1,12.62-2.15q6.58,0,10.33,3a10,10,0,0,1,3.74,8.3,16.77,16.77,0,0,1-1.74,8.33q-1.74,3-6.5,6.32l-3.89,2.73h11.9v10.44ZM28.93,83.8q0-10.53,3.42-15.2t11.84-4.67q8.41,0,11.73,4.61t3.3,15.2q0,10.61-3.33,15.27t-11.81,4.67q-8.47,0-11.81-4.67T28.93,83.8Zm16.13-8.67a1.82,1.82,0,0,0-2,0,2.41,2.41,0,0,0-.58,1.27,41.28,41.28,0,0,0-.41,7.4,42.68,42.68,0,0,0,.38,7.31c.25,1.11.78,1.66,1.6,1.66s1.34-.55,1.59-1.66a31.6,31.6,0,0,0,.38-6c0-2.9,0-4.92-.09-6a15.44,15.44,0,0,0-.32-2.67,2.34,2.34,0,0,0-.58-1.27Zm42.86,27.79H61.34v-10l5-4.87c1.08-1,2.13-2,3.13-3,0,0,.82-.81,2.44-2.44a14.37,14.37,0,0,0,1.8-2.2,6.88,6.88,0,0,0,1-1.83,5.21,5.21,0,0,0,.14-1.25c0-1-.29-1.64-.87-1.91A8,8,0,0,0,70.92,75a42.13,42.13,0,0,0-7.66.64L62,75.88,61.46,66a37.39,37.39,0,0,1,12.62-2.15q6.58,0,10.33,3a10,10,0,0,1,3.74,8.3,16.77,16.77,0,0,1-1.74,8.33q-1.74,3-6.5,6.32L76,92.48h11.9v10.44Zm30.67,0H92v-10l5-4.87c1.08-1,2.13-2,3.13-3l2.44-2.44a14.37,14.37,0,0,0,1.8-2.2,6.88,6.88,0,0,0,1-1.83,5.21,5.21,0,0,0,.14-1.25c0-1-.29-1.64-.87-1.91a8,8,0,0,0-3.07-.41,42.13,42.13,0,0,0-7.66.64l-1.22.23L92.13,66a37.39,37.39,0,0,1,12.62-2.15q6.59,0,10.33,3a10,10,0,0,1,3.74,8.3,16.77,16.77,0,0,1-1.74,8.33q-1.74,3-6.5,6.32l-3.89,2.73h11.9v10.44Z"/></svg>