<?xml version="1.0" encoding="utf-8"?><svg version="1.1" id="Layer_1" xmlns="http://www.w3.org/2000/svg" xmlns:xlink="http://www.w3.org/1999/xlink" x="0px" y="0px" viewBox="0 0 122.88 110.51" style="enable-background:new 0 0 122.88 110.51" xml:space="preserve"><style type="text/css"><![CDATA[
	.st0{fill-rule:evenodd;clip-rule:evenodd;fill:#7FBA00;}
	.st1{fill:#EF4136;}
	.st2{fill-rule:evenodd;clip-rule:evenodd;fill:#2394E0;}
	.st3{fill-rule:evenodd;clip-rule:evenodd;fill:#F25022;}
	.st4{fill-rule:evenodd;clip-rule:evenodd;fill:#FFB900;}
	.st5{fill-rule:evenodd;clip-rule:evenodd;fill:#00A4EF;}
]]></style><g><path class="st5" d="M102.78,50.97c-1.54,0.49-3.49,1.23-5.7,2.14c-0.8-0.61-1.64-1.15-2.53-1.65c3.39-1.65,6.56-3.2,9.28-4.58 L102.78,50.97L102.78,50.97L102.78,50.97z"/><polygon class="st4" points="95.31,12.74 97.6,17.72 103.07,17.91 99.04,21.61 100.55,26.88 95.78,24.19 91.24,27.26 92.32,21.89 88,18.52 93.45,17.9 95.31,12.74 95.31,12.74"/><path class="st5" d="M114.57,35.96l1.42,6.98l6.88,1.85l-6.2,3.51l0.05,1.05h-4.04v0.03c-2.64,0-5.26,1.18-7,3.44L105.55,53 l-0.41,0.16l2.95-6.48l-4.49-5.54l7.08,0.8L114.57,35.96L114.57,35.96L114.57,35.96z"/><path class="st0" d="M37.24,26.85c3.13,4.78,8.37,13.53,13.54,21.65c0.98,0.09,1.95,0.23,2.91,0.41l0.4,0.09l0.07,0.01 c-5.46-10.17-11.84-21.14-16.12-27.24L37.24,26.85L37.24,26.85L37.24,26.85z"/><path class="st2" d="M27.1,51.4c1.44,0.63,3.09,1.4,4.85,2.27c0.69-0.56,1.43-1.09,2.22-1.58c-3.82-2.12-7.41-4.11-10.42-5.84 l0.81,3.99C25.45,50.57,26.29,50.96,27.1,51.4L27.1,51.4z"/><polygon class="st0" points="30.03,8 27.02,14.45 19.89,14.64 25.1,19.5 23.08,26.33 29.31,22.87 35.18,26.91 33.82,19.92 39.48,15.59 32.41,14.71 30.03,8 30.03,8"/><path class="st2" d="M14.6,37.5l-1.46,5.59l-5.66,1.19l4.87,3.12l-0.11,1.02c0.54-0.03,1.07-0.05,1.6-0.05 c2.31,0,4.49,0.21,6.53,0.63l-0.99-2.54l3.88-4.29l-5.77,0.34L14.6,37.5L14.6,37.5L14.6,37.5z"/><path class="st3" d="M66.23,18.99c-0.97,6.26-1.19,22.8-1.67,34.92c-0.3-0.25-0.62-0.49-0.94-0.72l-0.39-0.28 c-0.41-12.44-0.11-27.96-0.2-36.67L66.23,18.99L66.23,18.99L66.23,18.99z"/><polygon class="st3" points="59.37,3.19 65.81,4.96 70.27,0 70.57,6.67 76.67,9.37 70.41,11.72 69.73,18.36 65.56,13.14 59.04,14.55 62.71,8.97 59.37,3.19 59.37,3.19"/><path class="st4" d="M89.82,28.76c-3.08,4.68-8.8,12.9-14.28,20.18c-0.96,0.19-1.87,0.43-2.74,0.72 c5.78-9.53,12.7-20.34,17.61-27.21L89.82,28.76L89.82,28.76L89.82,28.76z"/><path class="st1" d="M28.15,100.77v8.76H0l0.02-7.33c8.35-13.63,13.31-22.07,14.89-25.31c1.58-3.24,2.37-5.77,2.37-7.58 c0-1.4-0.25-2.43-0.72-3.13c-0.48-0.68-1.2-1.03-2.17-1.03c-0.97,0-1.71,0.38-2.18,1.13c-0.48,0.76-0.71,2.26-0.71,4.51v4.87H0 V73.8c0-2.86,0.15-5.14,0.44-6.79s1.03-3.29,2.18-4.89c1.17-1.6,2.68-2.82,4.54-3.64c1.86-0.82,4.09-1.23,6.68-1.23 c5.09,0,8.94,1.26,11.56,3.78c2.61,2.53,3.91,5.72,3.91,9.58c0,2.94-0.74,6.04-2.21,9.32c-1.47,3.28-5.81,10.22-13,20.85H28.15 L28.15,100.77z M63.31,75.59V92.7c0,3.89-0.21,6.71-0.64,8.49c-0.42,1.78-1.3,3.44-2.63,4.98c-1.33,1.54-2.93,2.65-4.81,3.32 c-1.87,0.68-3.97,1.02-6.29,1.02c-3.06,0-5.6-0.36-7.63-1.06c-2.02-0.71-3.63-1.82-4.84-3.31c-1.2-1.5-2.05-3.08-2.56-4.74 c-0.51-1.67-0.76-4.3-0.76-7.92V75.59c0-4.71,0.41-8.24,1.22-10.58s2.42-4.23,4.84-5.64c2.41-1.42,5.34-2.12,8.78-2.12 c2.81,0,5.32,0.49,7.54,1.47c2.22,0.98,3.87,2.18,4.96,3.6c1.1,1.42,1.85,3.01,2.24,4.78C63.12,68.87,63.31,71.7,63.31,75.59 L63.31,75.59z M50.54,71.3c0-2.73-0.13-4.42-0.4-5.11c-0.26-0.68-0.88-1.03-1.86-1.03c-0.95,0-1.58,0.37-1.88,1.09 c-0.31,0.72-0.47,2.41-0.47,5.05v25c0,2.97,0.14,4.77,0.43,5.37c0.28,0.62,0.9,0.92,1.86,0.92c0.95,0,1.57-0.36,1.87-1.08 c0.29-0.71,0.44-2.32,0.44-4.83V71.3L50.54,71.3z M95.5,100.77v8.76H67.35l0.02-7.33c8.35-13.63,13.31-22.07,14.89-25.31 c1.58-3.24,2.37-5.77,2.37-7.58c0-1.4-0.25-2.43-0.72-3.13c-0.47-0.68-1.2-1.03-2.17-1.03s-1.71,0.38-2.18,1.13 c-0.48,0.76-0.71,2.26-0.71,4.51v4.87H67.35V73.8c0-2.86,0.15-5.14,0.44-6.79c0.29-1.65,1.03-3.29,2.18-4.89 c1.17-1.6,2.68-2.82,4.54-3.64c1.86-0.82,4.09-1.23,6.68-1.23c5.09,0,8.94,1.26,11.56,3.78c2.61,2.53,3.91,5.72,3.91,9.58 c0,2.94-0.73,6.04-2.21,9.32c-1.47,3.28-5.81,10.22-13,20.85H95.5L95.5,100.77z M120.22,58.22v51.31h-12.78V81.98 c0-3.98-0.1-6.38-0.28-7.18c-0.2-0.8-0.71-1.42-1.57-1.83c-0.85-0.41-2.76-0.62-5.71-0.62h-1.26V66.4 c6.18-1.32,10.88-4.06,14.08-8.19H120.22L120.22,58.22z"/></g></svg>