<?xml version="1.0" encoding="utf-8"?><svg version="1.1" id="Layer_1" xmlns="http://www.w3.org/2000/svg" xmlns:xlink="http://www.w3.org/1999/xlink" x="0px" y="0px" viewBox="0 0 120.035 122.879" enable-background="new 0 0 120.035 122.879" xml:space="preserve"><g><path fill-rule="evenodd" clip-rule="evenodd" d="M111.755,35.815l1.269,7.14c8.575,24.312-6.664,24.561-12.684,11.574 c-5.022-1.992-8.236-0.679-9.039,5.068l6.188,28.386l-0.237,24.144l-0.604,8.004l2.013,2.748H85.719 c0.739-0.5,1.467-1.021,2.176-1.565l0,0c-5.735-39.01-61.276-39.396-67.828-1.198c0.931,0.797,1.885,1.551,2.861,2.271v0.493 H10.757c-0.427-0.891,1.416-1.797,1.096-2.713c-0.441-1.264-0.79-2.56-1.039-3.878c-1.351-7.128-0.301-19.751-0.216-27.354 c0.257-2.631,0.88-5.21,1.956-7.724l-5.861,1.174c-2.701,0.537-5.329-1.216-5.866-3.917c-0.537-2.702,1.216-5.33,3.917-5.866 l7.491-1.501l-9.431-4.599c-2.475-1.206-3.505-4.189-2.299-6.664c1.205-2.475,4.189-3.504,6.664-2.299l10.607,5.174l-2.235-7.688 c-0.764-2.636,0.754-5.394,3.39-6.157c2.636-0.764,5.394,0.754,6.158,3.39l3.178,10.932c1.395-0.484,3.038-0.979,5.039-1.521 c0.385,5.714,2.862,10.861,6.664,14.675c4.151,4.151,9.888,6.721,16.224,6.721c6.336,0,12.072-2.569,16.225-6.721 c4.151-4.153,6.72-9.889,6.72-16.225c0-6.335-2.568-12.072-6.72-16.224c-2.841-2.84-6.416-4.933-10.421-5.985 c3.678-6.789,9.832-12.863,19.008-18.102c2.913-1.12,5.957-1.956,9.177-2.401L85.1,7.666c-1.27-2.431-0.326-5.434,2.105-6.704 c2.432-1.269,5.434-0.326,6.704,2.105l4.145,7.941l5.528-8.695c1.474-2.324,4.555-3.013,6.879-1.539S113.474,5.33,112,7.654 l-6.714,10.56c2.428,0.567,4.953,1.352,7.589,2.383c5.036,2.264,7.875,4.538,7.004,6.801c-0.837,2.194-2.421,2.138-4.163,2.625 C112.966,30.792,111.439,32.545,111.755,35.815L111.755,35.815L111.755,35.815z M38.849,61.657h19.154 c-0.791-6.586-0.317-12.819,1.708-18.612c3.394,0.701,6.427,2.387,8.792,4.741c3.146,3.146,5.103,7.501,5.103,12.31 c0,4.807-1.946,9.163-5.103,12.308c-3.146,3.146-7.501,5.103-12.31,5.103c-4.808,0-9.164-1.945-12.31-5.103 C41.078,69.609,39.223,65.854,38.849,61.657L38.849,61.657L38.849,61.657z M104.039,34.785L104.039,34.785 c1.268,0,2.309,1.042,2.309,2.308v2.24c0,1.268-1.041,2.308-2.309,2.308l0,0c-1.267,0-2.307-1.04-2.307-2.308v-2.24 C101.732,35.815,102.761,34.785,104.039,34.785L104.039,34.785L104.039,34.785z"/></g></svg>