<?xml version="1.0" encoding="utf-8"?><svg version="1.1" id="Layer_1" xmlns="http://www.w3.org/2000/svg" xmlns:xlink="http://www.w3.org/1999/xlink" x="0px" y="0px" viewBox="0 0 102.26 122.88" style="enable-background:new 0 0 102.26 122.88" xml:space="preserve"><style type="text/css">.st0{fill:#3A2A23;} .st1{fill-rule:evenodd;clip-rule:evenodd;fill:#E94033;} .st2{fill-rule:evenodd;clip-rule:evenodd;fill:#FFFFFF;} .st3{fill:none;stroke:#3A2A23;stroke-width:5.4705;stroke-linecap:round;stroke-linejoin:round;stroke-miterlimit:22.9256;} .st4{fill-rule:evenodd;clip-rule:evenodd;fill:#FAD9AD;} .st5{fill-rule:evenodd;clip-rule:evenodd;fill:#3A2A23;}</style><g><path class="st0" d="M73.65,43.44c-10.09-1.01-20.59-1.6-31.1-1.65c-9.94-0.05-19.92,0.37-29.61,1.35 c-2.24,0.22-4.22-1.49-4.43-3.82c-0.03-0.29-0.02-0.58,0.01-0.86l-0.01,0c1.15-10.55,4.54-18.88,9.45-25.06 c5.5-6.93,12.86-11.11,21.1-12.69c8.03-1.54,16.86-0.57,25.55,2.78c11.09,4.27,22.01,12.42,30.78,24.15 c1.38,1.85,1.06,4.52-0.72,5.96c-1.08,0.88-2.46,1.1-3.68,0.71c-4.64-1.08-8.31-1.5-10.93-1.25c-1.3,0.13-2.19,0.38-2.64,0.77 c-0.11,0.1-0.17,0.31-0.17,0.66c0,0.77,0.26,1.81,0.79,3.13c0.86,2.17-0.12,4.65-2.2,5.55C75.12,43.48,74.36,43.56,73.65,43.44 L73.65,43.44z M42.58,33.32C150.68,33.89-38.69,32.89,42.58,33.32L42.58,33.32z"/><path class="st1" d="M74.27,39.25c-19.9-2.01-41.46-2.38-61.72-0.33C17.42-5.8,65.3-5.72,92.16,30.25 C77.06,26.67,70.38,29.5,74.27,39.25L74.27,39.25z"/><path class="st0" d="M85.73,26.73l1.52-1.88c0.31-0.41,0.69-0.77,1.14-1.07c0.73-0.49,1.53-0.87,2.36-1.12l0,0.02 c0.86-0.26,1.73-0.4,2.58-0.4c1.07,0,2.11,0.2,3.09,0.57c0.11,0.04,0.22,0.08,0.33,0.12c0.93,0.39,1.79,0.93,2.54,1.6 c0.12,0.1,0.25,0.21,0.36,0.33c0.81,0.81,1.47,1.8,1.93,2.9c0.44,1.07,0.69,2.22,0.69,3.41c0,1.19-0.25,2.35-0.69,3.42 c-0.38,0.93-0.93,1.78-1.6,2.53c-0.1,0.13-0.21,0.25-0.33,0.37c-0.81,0.81-1.8,1.47-2.9,1.93c-1.07,0.44-2.22,0.69-3.42,0.69 c-1.19,0-2.35-0.25-3.41-0.69c-1.1-0.46-2.09-1.12-2.9-1.93l0.01-0.01c-0.83-0.83-1.49-1.81-1.94-2.89l0.01,0l-0.01-0.02 c-0.44-1.07-0.69-2.22-0.69-3.4c0-0.54,0.06-1.1,0.17-1.66c0.07-0.39,0.19-0.79,0.33-1.21C85.06,27.77,85.34,27.22,85.73,26.73 L85.73,26.73z"/><path class="st2" d="M90.93,27.62l-1.61,1.99c-0.19,0.5-0.31,1.03-0.31,1.6c0,1.19,0.49,2.28,1.27,3.06 c0.78,0.78,1.87,1.27,3.05,1.27c1.19,0,2.28-0.49,3.06-1.27c0.78-0.78,1.27-1.87,1.27-3.06c0-1.19-0.49-2.27-1.27-3.05 c-0.78-0.78-1.87-1.27-3.06-1.27C92.45,26.89,91.62,27.16,90.93,27.62L90.93,27.62L90.93,27.62z"/><path class="st0" d="M2.77,58.12l11.41-2.19c23.14-5.58,40.22-2.89,61.59,0.48l5.85,0.9l0,0.01c1.72,0.26,2.99,1.78,2.9,3.55 c-0.19,3.64-0.9,7.02-2.57,10.33c-1.18,2.34-2.83,4.61-5.11,6.86c2.96,3.13,4.95,6.89,5.68,10.57c0.38,1.92,0.42,3.85,0.08,5.7 c-0.35,1.93-1.11,3.75-2.31,5.35c-1.64,2.18-4.05,3.92-7.33,4.94c-1.48,5-3.96,8.35-7.37,10.15c-3.13,1.66-6.83,1.91-11.07,0.86 c-1.42,2.41-3.38,4.21-5.61,5.42c-2.38,1.3-5.06,1.89-7.67,1.81c-2.65-0.09-5.25-0.87-7.45-2.32c-1.78-1.18-3.29-2.79-4.35-4.81 c-4.45,0.91-8.21,0.55-11.26-1.13c-3.36-1.86-5.63-5.15-6.77-9.92c-3.34-1.12-5.86-2.93-7.56-5.19c-1.2-1.59-1.98-3.4-2.34-5.35 c-0.35-1.87-0.29-3.84,0.16-5.84c0.77-3.42,2.73-6.96,5.86-10.21c-1.92-1.38-3.47-3.03-4.67-4.96C0.88,69.95-0.05,66.11,0,61.64 C-0.08,59.97,1.08,58.45,2.77,58.12L2.77,58.12z"/><path class="st2" d="M14.83,59.29L3.41,61.48c-0.16,7.78,3.08,13.17,10.01,15.95c-11.87,8.94-11.68,21.7,0.94,24.55 c1.51,9.72,7.36,12.77,17.2,9.69c2.38,10.25,17.54,10.62,21.11-0.16c9.18,3.36,15.24,0.55,17.51-9.69 c13.1-2.58,11.04-16.65,1.56-23.76c6.95-5.6,9.05-10.97,9.38-17.35C57.23,57.01,39.45,53.32,14.83,59.29L14.83,59.29z"/><path class="st3" d="M12.48,80.27c-2.39-4.97,2.11-15.17,4.51-20.36c6.54-5.42,35.6-4.81,50.33-0.91 c2.71,5.09,8.15,16.01,4.92,21.1L12.48,80.27L12.48,80.27z"/><path class="st4" d="M12.48,80.27c-2.39-4.97,2.11-15.17,4.51-20.36c6.54-5.42,35.6-4.81,50.33-0.91 c2.71,5.09,8.15,16.01,4.92,21.1L12.48,80.27L12.48,80.27z"/><path class="st0" d="M35.05,103.23c-0.85-0.41-1.21-1.43-0.81-2.28c0.41-0.85,1.43-1.21,2.28-0.81c1.79,0.86,3.64,1.28,5.54,1.28 c1.94,0,3.94-0.44,6.01-1.31c0.87-0.37,1.87,0.04,2.23,0.91c0.37,0.87-0.04,1.87-0.91,2.23c-2.51,1.06-4.96,1.59-7.33,1.59 C39.65,104.85,37.31,104.31,35.05,103.23L35.05,103.23z"/><path class="st5" d="M78.05,57.26c-24.53-4.95-49.15-4.58-72.37,0.53c7.34-5.72-1.89-22.63,6.03-21.44L77.15,38 C80.62,37.62,77.72,55.91,78.05,57.26L78.05,57.26z"/><path class="st2" d="M14.29,40.81c18.41-0.79,38.45,1.1,57.36,1.83c0.77,0.03,1.51,0.57,1.46,1.16l-0.68,7.75 c-0.05,0.59-0.73,1.2-1.46,1.16c-18.51-1.15-37.16-2.76-55.99-1.37c-0.72,0.05-1.41-0.52-1.46-1.16l-0.69-8.2 C12.77,41.33,13.54,40.84,14.29,40.81L14.29,40.81z"/><path class="st0" d="M44.09,83.64c1.42-2.78,3.07-5.12,4.97-6.91c2.07-1.95,4.44-3.27,7.17-3.83c4.9-1.01,8.24,0.45,11.67,1.95 c1.85,0.81,3.73,1.63,5.76,1.78c1.03,0.08,2.03,0.02,3-0.16c0.99-0.19,1.99-0.51,2.99-0.97c1.72-0.77,3.74-0.01,4.51,1.71 c0.44,0.98,0.38,2.07-0.07,2.96c-1.52,3.47-4.08,6.68-7.21,9.31c-3.23,2.72-7.08,4.85-11.03,6.03c-4.58,1.37-9.37,1.55-13.46-0.08 c-3.74-1.48-6.79-4.38-8.48-9.09C43.58,85.42,43.67,84.45,44.09,83.64L44.09,83.64z"/><path class="st2" d="M47.12,85.19c2.49-4.85,5.65-8.1,9.79-8.95c6.62-1.36,10.31,3.33,16.49,3.8c2.63,0.2,5.18-0.3,7.65-1.42 c-2.62,6.17-9.22,11.55-16.17,13.62C57.6,94.41,49.97,93.16,47.12,85.19L47.12,85.19z"/><path class="st0" d="M35.47,76.83c1.9,1.78,3.54,4.07,4.94,6.77c0.47,0.83,0.59,1.85,0.25,2.82c-1.67,4.72-4.72,7.63-8.46,9.13 c-4.07,1.63-8.86,1.47-13.46,0.11c-3.97-1.17-7.84-3.28-11.06-5.98c-3.16-2.65-5.75-5.89-7.28-9.4c-0.41-0.87-0.46-1.92-0.03-2.87 c0.77-1.72,2.8-2.48,4.51-1.71c1,0.45,1.99,0.77,2.98,0.95c0.95,0.17,1.93,0.23,2.94,0.16l0.06-0.01c2.02-0.16,3.9-0.99,5.76-1.81 c3.38-1.49,6.69-2.95,11.52-2.01l0.16,0.03C31.01,73.56,33.39,74.88,35.47,76.83L35.47,76.83z"/><path class="st2" d="M37.44,85.27c-2.51-4.84-5.68-8.08-9.82-8.92c-6.62-1.34-10.3,3.36-16.48,3.85c-2.63,0.21-5.18-0.28-7.65-1.4 c2.64,6.16,9.26,11.52,16.22,13.57C26.99,94.53,34.61,93.25,37.44,85.27L37.44,85.27z"/><path class="st1" d="M48.34,72.39c-1.56-1.56-3.7-2.52-6.07-2.52c-2.37,0-4.51,0.96-6.07,2.52c-1.56,1.56-2.52,3.7-2.52,6.07 c0,2.37,0.96,4.51,2.52,6.07c1.56,1.56,3.7,2.52,6.07,2.52c2.37,0,4.51-0.96,6.07-2.52c1.56-1.56,2.52-3.7,2.52-6.07 C50.86,76.09,49.9,73.95,48.34,72.39L48.34,72.39L48.34,72.39z"/><path class="st5" d="M20.2,60.52l-1.98-4.99c6.22-2.13,12.52-2.58,18.88-1.7c-0.31,1.74,1.97,3.48,1.67,5.22 C33.58,58.49,25.67,58.96,20.2,60.52L20.2,60.52z M19.64,68.94c4.4-2.87,9.1-3.18,14.54-0.34c0.65,0.27,0.93,0.15,0.59-0.68 C31.12,62.25,21.89,60.18,19.64,68.94L19.64,68.94z M65.39,68.94c-4.49-2.91-9.21-3.33-14.54-0.34c-0.65,0.27-0.93,0.15-0.59-0.68 C53.9,62.25,63.14,60.18,65.39,68.94L65.39,68.94z M64.84,60.52l1.98-4.99c-6.23-2.13-12.52-2.58-18.88-1.7l-1.67,5.21 C51.46,58.49,59.36,58.96,64.84,60.52L64.84,60.52z"/><path class="st2" d="M46.92,21.5l3.15-3.44c0.5-0.53,1.33-0.57,1.86-0.09c0.54,0.49,0.57,1.33,0.09,1.86l-1.52,1.66h2.06 c0.74,0,1.33,0.59,1.33,1.33c0,0.74-0.59,1.33-1.33,1.33h-1.87l1.44,1.58c0.5,0.53,0.46,1.38-0.09,1.86 c-0.53,0.5-1.38,0.46-1.86-0.09l-3.07-3.34h-1.94v1.82l3.54,3.23c0.53,0.5,0.57,1.33,0.09,1.86c-0.49,0.53-1.33,0.57-1.86,0.09 l-1.76-1.6v1.99c0,0.74-0.59,1.33-1.33,1.33c-0.74,0-1.33-0.59-1.33-1.33v-1.86l-1.49,1.37c-0.53,0.49-1.38,0.45-1.86-0.09 c-0.5-0.53-0.46-1.38,0.09-1.86l3.28-3v-1.94h-1.81l-3.08,3.36c-0.49,0.53-1.33,0.57-1.86,0.09c-0.53-0.49-0.57-1.33-0.09-1.86 l1.45-1.58h-2.01c-0.74,0-1.33-0.59-1.33-1.33c0-0.74,0.59-1.33,1.33-1.33h2.19l-1.52-1.66c-0.49-0.53-0.45-1.38,0.09-1.86 c0.53-0.5,1.38-0.46,1.86,0.09l3.15,3.44h1.61v-1.89l-3.28-3c-0.54-0.5-0.57-1.33-0.09-1.86c0.49-0.53,1.33-0.57,1.86-0.09 l1.49,1.37v-1.92c0-0.74,0.59-1.33,1.33-1.33c0.74,0,1.33,0.59,1.33,1.33v2.04l1.76-1.61c0.53-0.49,1.38-0.45,1.86,0.09 c0.49,0.53,0.45,1.38-0.09,1.86l-3.54,3.23v1.77H46.92L46.92,21.5L46.92,21.5z"/></g></svg>