<?xml version="1.0" encoding="utf-8"?><svg version="1.1" id="Layer_1" xmlns="http://www.w3.org/2000/svg" xmlns:xlink="http://www.w3.org/1999/xlink" x="0px" y="0px" viewBox="0 0 122.74 122.88" style="enable-background:new 0 0 122.74 122.88" xml:space="preserve"><g><path d="M0,0c0,8.77,5.74,14.51,8.77,17.53c3.03,3.03,7.39,1.86,7.39,4.14c0,0,1.38,4.62,5.76,4.62h10.96 c0,2.52,2.19,4.38,2.19,4.38s-2.19,1.23-2.19,4.38H21.92c-4.38,0-4.38,2.19-4.38,4.38c0,4.62,0,8.77,0,8.77 c0,2.1,2.03,4.38,4.38,4.38c2.36,0,10.96,0,10.96,0v8.77H26.3c0,3.56,2.37,6.41,6.58,8.77c0,2.77,0,48.22,0,48.22 c0,5.77,13.15,6.27,13.15,0V52.6h30.69v65.75c0,6.07,13.15,5.64,13.15,0c0,0,0-45.45,0-48.22c4.2-2.73,6.58-5.19,6.58-8.77h-6.58 V52.6c0,0,8.6,0,10.96,0c1.94,0,4.38-2.28,4.38-4.38c0,0,0-4.38,0-8.77c0-4.38-2.41-4.38-4.38-4.38H89.87 c0.21-2.31-2.19-4.38-2.19-4.38s2.19-1.86,2.19-4.38h10.96c4.38,0,4.38-4.38,4.38-4.38c0-2.07,5.11-1.21,8.77-4.38 c3.66-3.17,8.77-8.77,8.77-17.53C70.14,8.77,43.84,8.77,0,0L0,0z M46.03,26.3c0,0,8.77,0,8.77,0v8.77h-8.77 c0-2.52-2.19-4.38-2.19-4.38S46.03,29.03,46.03,26.3L46.03,26.3L46.03,26.3z M67.95,26.3h8.77c0,2.32,2.19,4.38,2.19,4.38 s-2.19,2.07-2.19,4.38h-8.77V26.3L67.95,26.3z"/></g></svg>