<?xml version="1.0" encoding="utf-8"?><svg version="1.1" id="Layer_1" xmlns="http://www.w3.org/2000/svg" xmlns:xlink="http://www.w3.org/1999/xlink" x="0px" y="0px" viewBox="0 0 99.53 122.88" style="enable-background:new 0 0 99.53 122.88" xml:space="preserve"><g><path d="M47.95,2.33c-3.25,4.24-3.85,4.83-11.9,11.11c-0.59,0.46-0.59,0.56-0.16,1.48c1.15,2.2,1.12,2.33-0.79,3.29 c-7.96,4.01-14.33,11.8-16.57,20.18c-1.28,4.7-1.18,10.75,0.23,15.32c2.4,7.86,8.71,15.39,15.75,18.74 c1.45,0.72,2.63,1.38,2.63,1.51c0,0.13-0.49,1.31-1.12,2.7l-1.12,2.43l2.66,1.22c1.48,0.69,3.91,2.1,5.42,3.19l2.7,1.94v3.81 c0,3.42-0.07,3.78-0.56,3.58c-0.3-0.13-2.33-1.28-4.5-2.56c-11.47-6.74-20.87-15.35-25.25-23.11c-5.1-9.01-7.23-21.89-4.73-28.53 c1.45-3.85,2.43-5.36,6.77-10.22c2.37-2.7,4.24-4.93,4.17-5c-0.23-0.26-4.37,1.55-6.61,2.89c-2.7,1.61-7.26,5.85-9.27,8.65 c-2.17,3.09-3.94,7.03-4.9,11.11c-0.82,3.35-0.89,4.11-0.76,8.61c0.2,5.75,0.95,9.4,3.35,15.85c2.53,6.8,4.11,9.53,9.86,17.13 c2.89,3.85,5.75,7.76,6.34,8.71c1.22,1.97,2.3,4.96,2.6,7.2c0.13,0.89,0.3,1.58,0.43,1.58c0.1,0,2.93-2.43,6.28-5.42 c3.35-2.96,6.31-5.39,6.57-5.39c0.76-0.03,4.11,1.45,6.08,2.63L43.35,98l-3.19,1.38c-4.01,1.71-5.49,2.66-7.82,4.96 c-2.27,2.3-3.06,3.94-3.09,6.48c0,1.78,0.1,2.04,1.12,3.06c0.92,0.92,1.35,1.12,2.53,1.12c1.87,0,3.98-1.25,4.73-2.86 c0.56-1.15,0.56-1.35,0.07-3.25c-0.33-1.12-0.56-2.14-0.56-2.2c0-0.3,4.04-2.43,5.26-2.79c0.62-0.2,1.71-0.43,2.4-0.56l1.22-0.2 v4.73c0,4.57-0.03,4.73-0.79,5.46c-2.66,2.5-2.33,6.11,0.72,8.45c1.68,1.32,4.54,1.48,6.77,0.43c1.94-0.89,3.48-3.09,3.48-4.9 c0-1.12-1.41-3.88-2.27-4.41c-0.43-0.26-0.53-9.73-0.1-9.73c1.18,0.03,4.34,1.12,6.18,2.1c1.25,0.69,2.3,1.28,2.37,1.35 c0.07,0.03-0.16,1.08-0.49,2.27c-0.56,2.17-0.56,2.24,0.07,3.42c1.25,2.27,4.87,3.45,6.71,2.17c0.89-0.62,1.68-2.33,1.68-3.68 c0-2.14-1.05-4.11-3.42-6.48c-2.33-2.3-4.93-3.91-9.01-5.59L56.1,98l1.97-1.15c1.05-0.62,2.76-1.41,3.75-1.74 c0.99-0.33,1.94-0.66,2.14-0.72c0.2-0.07,3.16,2.3,6.57,5.29c3.42,2.99,6.31,5.46,6.41,5.46c0.1,0,0.3-0.89,0.39-1.97 c0.3-3.35,2.1-6.61,7.63-13.81c2.73-3.55,5.36-6.97,5.85-7.66c1.45-1.91,4.64-8.84,6.11-13.22c3.09-9.2,3.42-17.72,1.02-25.28 c-2.66-8.28-9.83-15.98-17.75-19.1c-1.15-0.46-2.17-0.76-2.24-0.66c-0.2,0.2,1.74,2.63,5.26,6.54c5.13,5.69,6.31,8.71,6.34,15.98 c0,5.23-0.43,7.89-2.2,13.41c-3.16,9.93-10.39,18.61-22.95,27.42c-2.3,1.61-10.13,6.18-10.59,6.18c-0.13,0-0.26-1.68-0.26-3.71 v-3.68l2.73-1.94c1.48-1.05,3.98-2.53,5.52-3.29l2.83-1.38l-1.25-2.5l-1.25-2.5l1.71-0.69c4.6-1.94,10.32-6.67,13.28-11.05 c3.35-4.96,4.93-9.5,5.26-15.12c0.46-8.58-2.79-16.5-9.47-23.08c-2.63-2.6-6.94-5.52-9.34-6.41l-1.08-0.36l0.76-1.74l0.76-1.71 l-2.01-1.41c-4.57-3.22-7.5-6.08-11.14-10.85L49.73,0L47.95,2.33L47.95,2.33L47.95,2.33z M40.39,28.07 c2.1,7.46,3.32,14.92,3.32,20.18c0,2.96-0.72,8.61-1.48,11.54c-0.43,1.78-2.4,7.79-2.66,8.12c-0.13,0.23-2.99-1.38-5.36-3.02 c-4.44-3.06-8.05-8.25-9.43-13.68c-0.79-3.02-0.69-8.32,0.16-11.6c1.64-6.28,6.34-12.2,12.16-15.32c1.02-0.53,1.87-0.92,1.91-0.89 C39.07,23.44,39.67,25.54,40.39,28.07L40.39,28.07L40.39,28.07z M63.24,24.49c2.93,1.55,7.69,6.21,9.5,9.3 c1.71,2.96,3.16,8.25,3.19,11.6c0,2.3-0.89,5.95-2.1,8.61c-1.15,2.47-4.27,6.8-6.34,8.74c-1.38,1.35-6.97,5.56-7.33,5.56 c-0.26,0-1.51-4.37-3.19-11.01c-0.85-3.35-0.92-4.08-0.89-9.7c0.03-4.6,0.2-7,0.72-9.83c0.85-4.8,3.39-14.5,3.78-14.5 C60.74,23.27,61.92,23.83,63.24,24.49L63.24,24.49z"/></g></svg>