<svg id="Layer_1" data-name="Layer 1" xmlns="http://www.w3.org/2000/svg" viewBox="0 0 122.88 122.56"><defs><style>.cls-1{fill:#ff000b;fill-rule:evenodd;}</style></defs><title>swastik</title><path class="cls-1" d="M117.92,122.22a34.87,34.87,0,0,1-9.47-5.81C94.13,103.65,97.07,90.13,96.42,73L71.51,71.84c-.11,6.5-.25,15.29-.56,21.52-.3,6,.24,14.7-4.41,19.12-8.4,8-39.22-2-57.2,6-2.42,1.09-4.68,3.27-7.24,3-.82-.09-1.95-.57-2.1-1.52.77-9.84,9.77-20.2,24.16-23.09l26.21-1L51.16,72c-6.69-.11-14.62-.25-21.33-.59-6-.3-13.77-.4-18.2-5.06C8.24,62.79,7.2,57.45,7.7,49.89a184.82,184.82,0,0,0,.56-21C8,21.49,7.8,16.75,4.69,9.82,3.6,7.4.82,4.36,1.1,1.81A1.58,1.58,0,0,1,2.61.31c9.48,1.85,21.76,12.52,22.71,24.33l1,25.82H50.76c.19-7.37.27-27,2.18-33.5a12.46,12.46,0,0,1,3.34-5.72c9.85-9.35,39.74.16,57.09-7.63,2.43-1.08,5.46-3.86,8-3.59a1.59,1.59,0,0,1,1.49,1.51C117.7,28.13,92.87,25.2,72,26.4V51.66c6.69.11,14.23.25,20.94.59,6,.3,13.2.31,17.62,5,7.1,7.47,4,27,4.34,37.73.23,7.42-.36,12.18,3.18,18.9.72,1.37,1.87,3,2.8,4.54,1.77,2.94,0,5-2.91,3.83ZM84.06,78.54a6,6,0,1,1-6,6,6,6,0,0,1,6-6Zm-45.28,0a6,6,0,1,1-6,6,6,6,0,0,1,6-6ZM84.06,32.15a6,6,0,1,1-6,6,6,6,0,0,1,6-6Zm-45.28,0a6,6,0,1,1-6,6,6,6,0,0,1,6-6Z"/></svg>