<?xml version="1.0" encoding="utf-8"?><svg version="1.1" id="Layer_1" xmlns="http://www.w3.org/2000/svg" xmlns:xlink="http://www.w3.org/1999/xlink" x="0px" y="0px" viewBox="0 0 122.88 122.88" style="enable-background:new 0 0 122.88 122.88" xml:space="preserve"><g><path d="M61.44,60.39l0.09,2.01c0.37,7.9,3.29,14.5,8.75,19.77c5.44,5.27,12.07,7.9,19.89,7.9c8.07,0,14.87-2.83,20.37-8.5 c5.52-5.69,8.27-12.69,8.27-21.05c0-15.38-5.67-28.64-16.97-39.77C90.5,9.63,77.05,4.08,61.44,4.08c-16,0-29.32,5.33-39.97,15.98 C10.79,30.71,5.01,44.5,4.08,61.41c1.22-9.43,4.25-16.57,9.12-21.47c4.87-4.87,11.39-7.31,19.6-7.31c7.79,0,14.42,2.63,19.83,7.93 C58.07,45.86,60.99,52.46,61.44,60.39L61.44,60.39z M98.24,61.44c0,2.27-0.79,4.22-2.41,5.84c-1.59,1.61-3.51,2.41-5.69,2.41 c-2.27,0-4.22-0.79-5.81-2.41c-1.61-1.61-2.41-3.57-2.41-5.84c0-2.27,0.79-4.22,2.41-5.84c1.59-1.61,3.54-2.41,5.81-2.41 c2.24,0,4.16,0.79,5.75,2.41C97.44,57.22,98.24,59.17,98.24,61.44L98.24,61.44z M40.96,61.44c0-2.27-0.79-4.22-2.35-5.84 c-1.59-1.61-3.51-2.41-5.75-2.41c-2.27,0-4.22,0.79-5.81,2.41c-1.61,1.61-2.41,3.57-2.41,5.84c0,2.27,0.79,4.22,2.41,5.84 c1.59,1.61,3.54,2.41,5.81,2.41c2.18,0,4.11-0.82,5.69-2.46C40.17,65.58,40.96,63.65,40.96,61.44L40.96,61.44z M122.88,61.44 c0,17-6.01,31.47-17.99,43.45c-11.98,11.98-26.46,17.99-43.45,17.99s-31.47-6-43.45-17.99C6.01,92.91,0,78.44,0,61.44 s6.01-31.47,17.99-43.45C29.97,6,44.44,0,61.44,0s31.47,6,43.45,17.99C116.87,29.97,122.88,44.44,122.88,61.44L122.88,61.44z"/></g></svg>