<?xml version="1.0" encoding="utf-8"?><svg version="1.1" id="Layer_1" xmlns="http://www.w3.org/2000/svg" xmlns:xlink="http://www.w3.org/1999/xlink" x="0px" y="0px" viewBox="0 0 101.48 122.88" style="enable-background:new 0 0 101.48 122.88" xml:space="preserve"><style type="text/css">.st0{fill-rule:evenodd;clip-rule:evenodd;}</style><g><path class="st0" d="M31.74,16.1h1.15v-1.4h1.61v-1.69h1.15V0.87c0-0.48,0.39-0.87,0.87-0.87c0.48,0,0.87,0.39,0.87,0.87V2.2 c9.3,5.02,10.14-6.91,19.55,1.69c-3.39-0.09-5.94,1.5-8.91,3.21c-2.9,1.67-5.72,3.24-9.15,3.27c-0.6,0.01-1.11-0.03-1.5-0.07v2.7 h1.11v1.69h1.61v1.4h1.15v3.83h1.47c8.47,13.02,13.17,23.15,14.96,38.51c0.03,0.25,0.06,0.5,0.08,0.75 c2.09-6.12,5.39-11.6,9.53-17.96h1.75v-3.06h0.92v-1.12h1.29v-1.35h0.75v-9.71c0-0.48,0.39-0.87,0.87-0.87s0.87,0.39,0.87,0.87 v1.16c7.27,3.77,8-5.57,15.47,1.26c-2.71-0.07-4.75,1.2-7.12,2.57c-2.32,1.34-4.58,2.59-7.32,2.62c-0.39,0-0.74-0.01-1.02-0.04 v2.14h0.72v1.35h1.29v1.12h0.92v3.06h1.17c6.77,10.42,10.54,18.51,11.96,30.81c0.33,2.88,0.51,5.85,0.48,8.93l4.09,2.29h1.29v0.84 h1.41v0.84h0.96L98,85.76h-4.76l-1.72,1.75c-0.19,1.03-0.16,1.78,0,2.35h1.02v0.7c-1.94,1.02-2.54,2.87-2.54,4.91l0.51,0.34 c-0.27,0.74-0.64,1.34-1.14,1.74v3.13h1.02v1.6h-1.05c0,7.13,0,3.45,0,9.93h2.72v2.37h3v2.58h3.07v1.88h3.35v3.84 c-34.06,0-67.5-0.25-101.48-0.25v-4.81h4.19v-2.36h3.84v-3.23h3.75v-2.97h3.4c0-8.1,0-4.12,0-13.04h-1.31v-2.01h1.27v-3.91 c-0.63-0.49-1.09-1.24-1.43-2.17l0.64-0.42c0-2.55-0.75-4.86-3.18-6.14v-0.87h1.28c0.2-0.71,0.23-1.65,0-2.94l-2.14-2.18H4.36 l-0.08-1.02h1.2v-1.05h1.77v-1.05h1.62l5.11-2.87c-0.04-3.86,0.19-7.57,0.61-11.17c1.78-15.37,6.49-25.49,14.96-38.51h2.19V16.1 L31.74,16.1z M37.35,79.63l3.67,6.74l2.47-7.19c0.19-0.03,0.38-0.05,0.57-0.08c8.02,9.55,4.75,19.03,4.75,31.95H23.65 c0-11.16-2.9-22.74,4.47-32.2c0.02,0.01,0.04,0.01,0.06,0.02c0.54,0.11,1.09,0.22,1.66,0.3l2.93,6.56l3.05-6.1c0.2,0,0.41,0,0.61,0 C36.73,79.64,37.04,79.64,37.35,79.63L37.35,79.63L37.35,79.63z M43.3,78.26c-2.12,0.28-4.49,0.44-6.88,0.44 c-2.64,0-5.29-0.21-7.63-0.67c1.82-2.06,4.2-3.74,7.3-4.86C39.11,74.6,41.46,76.31,43.3,78.26L43.3,78.26z M72.47,83.21 c13.46,6.38,9.74,14.66,9.74,27.84H62.94C62.94,100.21,59.44,87.96,72.47,83.21L72.47,83.21z"/></g></svg>