<?xml version="1.0" encoding="utf-8"?><svg version="1.1" id="Layer_1" xmlns="http://www.w3.org/2000/svg" xmlns:xlink="http://www.w3.org/1999/xlink" x="0px" y="0px" viewBox="0 0 80.97 122.88" style="enable-background:new 0 0 80.97 122.88" xml:space="preserve"><g><path d="M13.79,25.44h14.64L17.6,3.74c-0.64-1.28-0.12-2.83,1.16-3.47c1.28-0.64,2.83-0.12,3.47,1.16l11.97,24h12.12l11.97-24 c0.64-1.28,2.19-1.8,3.47-1.16c1.28,0.64,1.8,2.19,1.16,3.47L52.1,25.44h15.08c3.79,0,7.24,1.55,9.74,4.05s4.05,5.95,4.05,9.74 v69.86c0,3.78-1.55,7.23-4.05,9.73l-0.02,0.02c-2.5,2.5-5.95,4.04-9.72,4.04H13.79c-3.79,0-7.24-1.55-9.74-4.05S0,112.88,0,109.09 V39.23c0-3.79,1.55-7.24,4.05-9.74C6.55,26.99,10,25.44,13.79,25.44L13.79,25.44z M16.85,61.4c-0.97,0-1.76-0.74-1.76-1.66 s0.79-1.66,1.76-1.66h17.92c-0.15,0.53-0.23,1.08-0.23,1.66s0.08,1.13,0.23,1.66H16.85L16.85,61.4z M40.49,56.07 c2.03,0,3.67,1.64,3.67,3.67c0,2.03-1.64,3.67-3.67,3.67c-2.03,0-3.67-1.64-3.67-3.67C36.82,57.71,38.46,56.07,40.49,56.07 L40.49,56.07z M46.2,58.08h17.92c0.97,0,1.76,0.74,1.76,1.66s-0.79,1.66-1.76,1.66H46.2c0.15-0.53,0.23-1.08,0.23-1.66 S46.36,58.61,46.2,58.08L46.2,58.08z M16.85,108.74c-0.97,0-1.76-0.74-1.76-1.66s0.79-1.66,1.76-1.66h17.92 c-0.15,0.53-0.23,1.08-0.23,1.66s0.08,1.13,0.23,1.66H16.85L16.85,108.74z M40.49,103.41c2.03,0,3.67,1.64,3.67,3.67 c0,2.03-1.64,3.67-3.67,3.67c-2.03,0-3.67-1.64-3.67-3.67C36.82,105.06,38.46,103.41,40.49,103.41L40.49,103.41z M46.2,105.42 h17.92c0.97,0,1.76,0.74,1.76,1.66s-0.79,1.66-1.76,1.66H46.2c0.15-0.53,0.23-1.08,0.23-1.66S46.36,105.95,46.2,105.42L46.2,105.42 z M49.19,69.25h7.42c2,0,3.54,0.16,4.62,0.47c1.07,0.32,1.89,0.77,2.43,1.36c0.54,0.6,0.91,1.32,1.1,2.16 c0.19,0.85,0.29,2.15,0.29,3.92v2.46c0,1.8-0.18,3.12-0.56,3.94c-0.37,0.83-1.06,1.47-2.05,1.91c-1,0.44-2.3,0.66-3.9,0.66h-1.97 v11.42h-7.37V69.25L49.19,69.25z M56.56,74.09v7.21c0.21,0.01,0.39,0.02,0.54,0.02c0.67,0,1.14-0.17,1.4-0.5 c0.26-0.33,0.39-1.02,0.39-2.07v-2.33c0-0.97-0.15-1.6-0.45-1.89C58.13,74.23,57.51,74.09,56.56,74.09L56.56,74.09z M44.98,69.25 v28.31h-7.37V69.25H44.98L44.98,69.25z M35.08,69.25l-3.73,28.31H20.2l-4.27-28.31h7.77c0.88,7.81,1.52,14.41,1.92,19.81 c0.39-5.46,0.8-10.3,1.21-14.53l0.49-5.28H35.08L35.08,69.25z M41.12,35.86l2.62-5.24H13.79c-2.37,0-4.52,0.97-6.08,2.53 s-2.53,3.71-2.53,6.08v69.86c0,2.36,0.97,4.52,2.53,6.08c1.56,1.56,3.72,2.53,6.08,2.53h53.39c2.37,0,4.52-0.97,6.08-2.52 l0.01-0.01c1.56-1.56,2.52-3.71,2.52-6.08V39.23c0-2.36-0.97-4.52-2.53-6.08c-1.56-1.56-3.71-2.53-6.08-2.53H49.51l-3.77,7.55 c1.29,1.36,2.08,3.19,2.08,5.21c0,4.18-3.39,7.56-7.56,7.56c-4.18,0-7.56-3.39-7.56-7.56c0-4.18,3.39-7.56,7.56-7.56 C40.55,35.81,40.84,35.83,41.12,35.86L41.12,35.86z"/></g></svg>