<svg id="Layer_1" data-name="Layer 1" xmlns="http://www.w3.org/2000/svg" viewBox="0 0 92.16 122.88"><title>aluminium-recycling</title><path d="M89.94,59.6,83.28,48.07l-8.57,5,6.66,11.52a6.52,6.52,0,0,1-5.61,9.77H51.84v-5L34.7,79.21,51.84,89.1v-5H75.76A16.33,16.33,0,0,0,89.94,59.6ZM32.85,118.17h-5.2l-1.07,4a.5.5,0,0,1-.46.36H21.51a.48.48,0,0,1-.48-.48l0-.18,6.73-21.55a.49.49,0,0,1,.46-.34h4a.5.5,0,0,1,.47.37L39.49,122a.47.47,0,0,1-.32.6l-.14,0H34.37a.49.49,0,0,1-.47-.39l-1-4Zm-4-4.6h2.79l-1.39-5.33-1.4,5.33ZM46.58,118h7.18a.49.49,0,0,1,.48.48v3.62a.49.49,0,0,1-.48.48h-12a.48.48,0,0,1-.48-.48V100.51a.47.47,0,0,1,.48-.48H46.1a.47.47,0,0,1,.48.48V118Zm24.55-17.49v15a9.42,9.42,0,0,1-.51,3.08A6.06,6.06,0,0,1,69.13,121a6.16,6.16,0,0,1-2.4,1.46,10.95,10.95,0,0,1-6.38,0,6.26,6.26,0,0,1-2.42-1.47l0,0a6.27,6.27,0,0,1-1.46-2.36,9.75,9.75,0,0,1-.48-3.18V100.51a.47.47,0,0,1,.48-.48h4.39a.48.48,0,0,1,.48.48v14.87a4,4,0,0,0,.49,2.33,1.31,1.31,0,0,0,.62.43h0a3.57,3.57,0,0,0,1.13.16,3.3,3.3,0,0,0,1.14-.17,1.26,1.26,0,0,0,.61-.42,2.24,2.24,0,0,0,.35-.85,7,7,0,0,0,.15-1.42V100.51a.48.48,0,0,1,.48-.48h4.36a.47.47,0,0,1,.48.48ZM42.85,54.24h1.76a.26.26,0,0,1,.26.26v3.8a.26.26,0,0,1-.26.26H42.85v4.91a.25.25,0,0,1-.25.26H38a.25.25,0,0,1-.26-.26V58.56H30.14a.25.25,0,0,1-.26-.25l-.21-3a.22.22,0,0,1,0-.14l8.05-15.58A.27.27,0,0,1,38,39.5H42.6a.26.26,0,0,1,.25.26V54.24Zm-8.05,0h3.89V46.78L34.8,54.24Zm21.56,9.49H51.73a.26.26,0,0,1-.26-.26V45.73l-4.16,1.61a.26.26,0,0,1-.33-.15l0-.09V43.26a.26.26,0,0,1,.18-.25l8.63-3.52.1,0h.49a.26.26,0,0,1,.26.25V63.47a.26.26,0,0,1-.26.26ZM16.4,84.1H29.72V74.31H16.4a6.52,6.52,0,0,1-5.61-9.76l12-20.76,4.29,2.47V26.47L9.93,36.36l4.28,2.48L2.22,59.6A16.33,16.33,0,0,0,16.4,84.1ZM31.9,8.19,25.24,19.71l8.57,4.95,6.66-11.53a6.48,6.48,0,0,1,11.22,0l12,20.76-4.3,2.47,17.12,9.9V26.47l-4.27,2.47-12-20.75a16.36,16.36,0,0,0-28.35,0Z"/></svg>