<svg id="Layer_1" data-name="Layer 1" xmlns="http://www.w3.org/2000/svg" viewBox="0 0 122.88 122.88"><defs><style>.cls-1{fill:#fff;}.cls-2{fill-rule:evenodd;}.cls-3{fill:#d92d27;}</style></defs><title>avoid-crowds</title><path class="cls-1" d="M19.57,28.7a53.15,53.15,0,0,0,74.61,74.61L19.57,28.7ZM61.44,8.3A53,53,0,0,0,25.18,22.58L100.3,97.7A53.14,53.14,0,0,0,61.44,8.3Z"/><path class="cls-2" d="M79.23,81.8V96.7a3.8,3.8,0,0,0,3.93,3.63h0a3.8,3.8,0,0,0,3.93-3.63V81.8H89V96.7a3.8,3.8,0,0,0,3.94,3.63h0a3.8,3.8,0,0,0,3.93-3.63V81.8h5.61L96.89,55.47c.19.43.38.86.56,1.3a47.51,47.51,0,0,1,2.88,9.63,3.68,3.68,0,1,0,7.24-1.35,54.67,54.67,0,0,0-3.31-11.11,47.85,47.85,0,0,0-5.46-9.76,3.6,3.6,0,0,0-2.24-1.44v0a45.56,45.56,0,0,0-17.07,0v0A3.62,3.62,0,0,0,77,44.22a47.08,47.08,0,0,0-4.89,8.46,47.12,47.12,0,0,0-4.43-8.57,3.62,3.62,0,0,0-2.44-1.58v-.07c-4.36-1.24-12.44-1.29-17.08-.14v.11A3.58,3.58,0,0,0,45.38,44a48,48,0,0,0-5,10l-.16.46a34,34,0,0,0-2.38-4.24A2.76,2.76,0,0,0,35.75,49c-1.33-.57-11.89-.89-13.2.13a2.75,2.75,0,0,0-1.46,1.11,36.34,36.34,0,0,0-3.73,7.49,41.1,41.1,0,0,0-2.09,8.43,2.76,2.76,0,1,0,5.47.75A35.78,35.78,0,0,1,22.41,60V87.43a2.84,2.84,0,0,0,2.9,2.77h0a2.84,2.84,0,0,0,2.9-2.77v-15H30v15a2.84,2.84,0,0,0,2.9,2.77h0a2.84,2.84,0,0,0,2.89-2.77V58.05c.22.51.42,1,.62,1.57a37.59,37.59,0,0,1,1.35,4.71c-.05.31-.1.63-.14.94a3.59,3.59,0,0,0,7.12,1,47.35,47.35,0,0,1,2.41-9.77c.33-.9.68-1.77,1-2.61V72.2h0V96.7a3.8,3.8,0,0,0,3.93,3.63h0a3.8,3.8,0,0,0,3.93-3.63V73.37H57.4V96.7a3.8,3.8,0,0,0,3.93,3.63h0a3.79,3.79,0,0,0,3.93-3.63V54.81c.24.57.46,1.14.67,1.73a47.21,47.21,0,0,1,2.29,8.93,3.68,3.68,0,0,0,7.29,1,47.31,47.31,0,0,1,2.88-9.63c.29-.71.6-1.39.91-2l-5.68,27Zm-50-47.58a6.44,6.44,0,1,1-6.43,6.44,6.44,6.44,0,0,1,6.43-6.44ZM56.5,22.55a8.51,8.51,0,1,1-8.5,8.5,8.5,8.5,0,0,1,8.5-8.5Zm31.3,0a8.51,8.51,0,1,1-8.51,8.5,8.5,8.5,0,0,1,8.51-8.5Z"/><path class="cls-3" d="M61.44,8.3A53,53,0,0,0,25.18,22.58L100.3,97.7A53.14,53.14,0,0,0,61.44,8.3ZM19.57,28.7a53.15,53.15,0,0,0,74.61,74.61L19.57,28.7ZM18,18A61.42,61.42,0,1,1,0,61.44,61.21,61.21,0,0,1,18,18Z"/></svg>