<svg xmlns="http://www.w3.org/2000/svg" shape-rendering="geometricPrecision" text-rendering="geometricPrecision" image-rendering="optimizeQuality" fill-rule="evenodd" clip-rule="evenodd" viewBox="0 0 512 512"><path d="M185.92 112.86h26.29c5.7 0 10.35 4.66 10.35 10.35 0 4.19-2.52 7.83-6.14 9.45v50.13c15.81 12.71 26.68 26.84 26.68 44.02 1.93 5.92.18 151.27.18 168.78 0 1.96-1.61 3.55-3.58 3.55h-82.03c-1.97 0-3.55-1.61-3.55-3.55l.01-168.4c-.15-17.82 11.35-32.34 28-45.44v-48.91c-3.84-1.53-6.56-5.26-6.56-9.63 0-5.69 4.65-10.35 10.35-10.35zm89.23 160.04c21.69 15.95 35.26 9.27 47.89 3.04 9.46-4.66 18.45-9.09 29.75-5.1v-47.4h-77.64v49.46zm45.61 56.99v45.49h15.86c3.31 0 6 2.68 6 6 0 3.31-2.69 6-6 6H292.9c-3.31 0-6-2.69-6-6 0-3.32 2.69-6 6-6h15.86v-45.29c-10.81-1.21-20.53-6.13-27.86-13.46-8.48-8.48-13.75-20.19-13.75-33.07v-64.12c0-2.21 1.79-4 4-4h85.64c2.21 0 4 1.79 4 4v64.12c0 12.88-5.27 24.59-13.76 33.07-6.96 6.97-16.1 11.76-26.27 13.26zm-139.43-86.61h53.45v123.51h-53.45V243.28z"/><path fill="#D92D27" fill-rule="nonzero" d="M256 512c-34.61 0-67.67-6.9-97.86-19.41-31.4-13-59.6-32.01-83.16-55.57a256.517 256.517 0 0 1-55.57-83.16C6.9 323.66 0 290.61 0 256s6.9-67.67 19.41-97.86A256.41 256.41 0 0 1 158.13 19.41C188.33 6.9 221.39 0 256 0c34.61 0 67.67 6.9 97.86 19.41 31.4 13 59.6 32.01 83.16 55.57a256.304 256.304 0 0 1 55.57 83.16C505.1 188.33 512 221.39 512 256s-6.9 67.67-19.41 97.86c-13 31.4-32.01 59.6-55.57 83.16a256.304 256.304 0 0 1-83.16 55.57C323.67 505.1 290.61 512 256 512zM88.32 374.8 374.8 88.32c-15.54-11.03-32.65-19.95-50.92-26.34-21.19-7.41-44.03-11.44-67.88-11.44-27.89 0-54.44 5.52-78.61 15.53-25.07 10.39-47.69 25.66-66.67 44.65-18.99 18.99-34.26 41.6-44.65 66.68-10.01 24.16-15.54 50.71-15.54 78.6h-.04c0 23.77 4.05 46.62 11.49 67.88 6.39 18.27 15.31 35.38 26.34 50.92zm323.84-252.37L122.43 412.16c16.99 14.55 36.35 26.37 57.42 34.78 23.48 9.36 49.17 14.52 76.15 14.52 27.9 0 54.45-5.52 78.61-15.53 25.08-10.39 47.69-25.66 66.68-44.65 18.98-18.98 34.25-41.6 44.64-66.67 10.01-24.17 15.53-50.71 15.53-78.61 0-26.97-5.15-52.67-14.52-76.15-8.41-21.07-20.23-40.43-34.78-57.42z"/></svg>