<svg xmlns="http://www.w3.org/2000/svg" shape-rendering="geometricPrecision" text-rendering="geometricPrecision" image-rendering="optimizeQuality" fill-rule="evenodd" clip-rule="evenodd" viewBox="0 0 512 512"><path fill-rule="nonzero" d="M459.75 256c0-56.27-22.8-107.21-59.67-144.08C363.21 75.05 312.27 52.25 256 52.25c-56.27 0-107.21 22.8-144.08 59.67C75.05 148.79 52.25 199.73 52.25 256c0 56.27 22.8 107.21 59.67 144.08 36.87 36.87 87.81 59.67 144.08 59.67 56.27 0 107.21-22.8 144.08-59.67 36.87-36.87 59.67-87.81 59.67-144.08zm-345.33-32.39h68.44c12.76-27.84 40.6-45.72 71.24-45.72 43.27 0 78.36 35.1 78.36 78.37s-35.09 78.37-78.36 78.37c-30.64 0-58.48-17.88-71.24-45.72h-68.44c15.16 65.01 73.15 111.02 139.91 111.02 79.33 0 143.67-64.34 143.67-143.67 0-79.33-64.34-143.67-143.67-143.67-66.76 0-124.75 46.01-139.92 111.01l.01.01zm322.6-148.63C483.35 121.31 512 185.31 512 256c0 70.69-28.65 134.69-74.98 181.02C390.69 483.35 326.69 512 256 512c-70.69 0-134.69-28.65-181.02-74.98C28.65 390.69 0 326.69 0 256c0-70.69 28.65-134.69 74.98-181.02C121.31 28.65 185.31 0 256 0c70.69 0 134.69 28.65 181.02 74.98z"/></svg>