<svg xmlns="http://www.w3.org/2000/svg" shape-rendering="geometricPrecision" text-rendering="geometricPrecision" image-rendering="optimizeQuality" fill-rule="evenodd" clip-rule="evenodd" viewBox="0 0 512 512.23"><path fill-rule="nonzero" d="M0 247.36c2.36-68.98 31.86-130.83 78.01-175.41C124.16 27.36 186.95 0 255.89 0c70.7 0 134.73 28.67 181.08 75.03C483.33 121.38 512 185.41 512 256.12c0 70.71-28.67 134.73-75.03 181.09-46.35 46.35-110.38 75.02-181.08 75.02-68.94 0-131.72-27.36-177.88-71.95-46.15-44.59-75.64-106.43-78-175.42L0 247.36zm111.21-140.89c-37.49 36.22-61.46 86.43-63.38 142.39l.01 14.5c1.91 55.97 25.88 106.18 63.37 142.4 37.49 36.22 88.56 58.45 144.68 58.45 57.45 0 109.48-23.3 147.13-60.96 37.66-37.65 60.95-89.68 60.95-147.13 0-57.46-23.29-109.49-60.95-147.14-37.65-37.66-89.68-60.95-147.13-60.95-56.12 0-107.19 22.22-144.68 58.44zm48.77 85.62h192.08v48.02H159.98v-48.02zm192.08 136.06H159.98v-48.02h192.08v48.02z"/></svg>