<svg xmlns="http://www.w3.org/2000/svg" shape-rendering="geometricPrecision" text-rendering="geometricPrecision" image-rendering="optimizeQuality" fill-rule="evenodd" clip-rule="evenodd" viewBox="0 0 512 511.99"><path fill-rule="nonzero" d="M256 108.64c-84.52 0-105.77 79.75-105.77 147.36 0 67.62 21.24 147.36 105.77 147.36 84.51 0 105.77-79.75 105.77-147.36 0-67.61-21.26-147.36-105.77-147.36zM255.47 0C184.45 0 124.59 24.72 75.83 74.4c-24.69 24.7-43.54 52.86-56.65 84.26C6.38 189.75 0 222.17 0 256c0 34.14 6.38 66.56 19.18 97.34 12.79 30.8 31.36 58.5 55.75 83.17 24.68 24.39 52.39 43.19 83.18 56.3 31.09 12.81 63.51 19.18 97.35 19.18 33.83 0 66.72-6.61 98.42-19.72 31.7-13.11 59.97-31.95 84.97-56.65 24.09-23.46 42.31-50.37 54.5-80.85C505.84 324 512 291.06 512 256c0-34.74-6.16-67.63-18.64-98.42-12.5-31.08-30.79-58.56-54.86-82.64C388.2 24.95 327.08 0 255.47 0zm1.06 46.07c57.91 0 107.3 20.53 148.44 61.68 19.81 19.81 35 42.48 45.36 67.77s15.59 52.14 15.59 80.48c0 58.83-20.13 107.63-60.05 146.64-20.74 20.13-44.02 35.58-69.92 46.25-25.6 10.67-51.99 15.95-79.42 15.95-27.74 0-54.3-5.22-79.58-15.58-25.31-10.67-48.01-25.9-68.13-45.73-20.12-20.11-35.64-42.82-46.61-68.13-10.67-25.59-16.14-51.98-16.14-79.41 0-27.74 5.47-54.3 16.14-79.59 10.97-25.6 26.49-48.59 46.61-69.02 39.92-40.84 89.2-61.31 147.71-61.31zM256 164.21c3.43 0 6.56.53 9.5 1.26 6.09 5.24 9.07 12.48 3.22 22.58l-56.28 103.44c-1.73-13.09-1.98-25.93-1.98-35.5.01-29.77 2.07-91.78 45.54-91.78zm42.13 47.69c2.98 15.87 3.4 32.45 3.4 44.1 0 29.78-2.06 91.8-45.51 91.8-3.43 0-6.58-.36-9.51-1.09-.56-.17-1.07-.35-1.61-.54-.9-.25-1.84-.54-2.69-.88-9.68-4.12-15.78-11.56-6.99-24.74l62.91-108.65z"/></svg>