<svg xmlns="http://www.w3.org/2000/svg" shape-rendering="geometricPrecision" text-rendering="geometricPrecision" image-rendering="optimizeQuality" fill-rule="evenodd" clip-rule="evenodd" viewBox="0 0 512 512.03"><path d="M249.5.03C111.25 3.53 0 116.93 0 256.03c0 141.31 114.69 256 256 256s256-114.69 256-256S397.31.03 256 .03c-2.22 0-4.31-.07-6.5 0zm191.9 358.82-101.41-45.69c-2.99 13.92-9.91 25.88-20.76 35.89-13.98 13-30.98 23.27-54.87 24.42v35.54h-26v-36.88c-29.23-3.79-60.01-14.97-69.97-32.59l32.13-29.59c16.5 23.07 66.81 24.72 84.09 14.97 6.34-3.59 7.91-14 7.91-21.03 0-4.84-1.26-8.63-3.82-11.4-1.05-1.08-2.74-2.81-4.88-4.65l-20.93-9.43c-35.63-9.94-60.31-21.72-70.44-30.43-1.03-.89-1.99-1.76-2.89-2.61L56.13 185.24C48.28 207.39 44 231.21 44 256.03c0 117.03 94.97 212 212 212 79.73 0 149.2-44.08 185.4-109.18zM76.37 143.44l102.21 46.05c2.67-12.31 8.27-22.86 17.28-31.19 10.45-9.66 24.62-15.53 42.5-17.6v-37.69h26v37.24c22.69 1.65 49.85 8.73 64.09 25.67l-27.62 30.03c-15.6-13.07-27.16-14.25-46.26-14.25-12 0-18.24 1.72-23.34 5.19-5.09 3.31-7.62 7.65-7.62 13.04 0 4.84 2.32 8.84 7 12 4.65 3.33 16.84 8.3 41.16 14.93 27.25 7.44 45.77 16.5 55.53 27.12 1.15 1.28 2.23 2.61 3.25 3.99l128.82 58.04c5.61-19.02 8.63-39.15 8.63-59.98 0-117.03-94.97-212-212-212-2.28 0-4.47-.06-6.75 0-72.84 2.32-136.48 41.46-172.88 99.41z"/></svg>