<svg xmlns="http://www.w3.org/2000/svg" shape-rendering="geometricPrecision" text-rendering="geometricPrecision" image-rendering="optimizeQuality" fill-rule="evenodd" clip-rule="evenodd" viewBox="0 0 512 512"><path fill-rule="nonzero" d="M255.54 0c71.61 0 132.25 24.84 181.94 74.52C487.14 123.9 512 184.39 512 256c0 71.63-24.39 131.65-73.16 180.11C387.34 486.7 326.23 512 255.54 512c-69.19 0-129.22-25.14-180.11-75.43C25.15 386.29 0 326.11 0 256.01c0-69.79 25.15-130.28 75.43-181.48C125.11 24.84 185.14 0 255.54 0zm.92 46.18c-58.21 0-107.43 20.57-147.66 61.72-41.76 42.36-62.63 91.73-62.63 148.1 0 57 20.72 106.06 62.16 147.2 41.45 41.45 90.82 62.17 148.11 62.17 56.98 0 106.67-20.88 149.03-62.63 40.23-39.01 60.35-87.92 60.35-146.74 0-58.51-20.43-107.88-61.25-148.11-40.54-41.15-89.92-61.71-148.11-61.71zm104.23 136.68c3.95 0 7.31 1.36 10.04 4.1 2.76 2.74 4.13 6.1 4.13 10.06v188.34c0 3.96-1.37 7.31-4.13 10.04-2.73 2.75-6.09 4.13-10.04 4.13l-139.43.01c-3.97 0-7.32-1.37-10.07-4.13-2.75-2.75-4.11-6.09-4.11-10.05v-55.78h-55.77c-3.97 0-7.32-1.36-10.06-4.11-2.74-2.73-4.11-6.08-4.11-10.06V127.09c0-3.67 1.21-6.79 3.66-9.37 2.43-2.58 5.48-4.18 9.14-4.8h140.79c3.95 0 7.31 1.37 10.06 4.11 2.74 2.74 4.11 6.11 4.11 10.06v55.78h55.79v-.01zM165.03 301.71h42.05V197.02c0-3.65 1.21-6.77 3.67-9.36 2.43-2.58 5.33-4.19 8.68-4.8h57.59v-41.6H165.03v160.45zm181.94-90.97h-112V371.2h112V210.74z"/></svg>