<svg xmlns="http://www.w3.org/2000/svg" shape-rendering="geometricPrecision" text-rendering="geometricPrecision" image-rendering="optimizeQuality" fill-rule="evenodd" clip-rule="evenodd" viewBox="0 0 512 512"><path fill-rule="nonzero" d="M255.54 0c71.61 0 132.25 24.84 181.94 74.52C487.14 123.9 512 184.39 512 256c0 71.63-24.39 131.65-73.16 180.11C387.34 486.7 326.23 512 255.54 512c-69.19 0-129.22-25.14-180.11-75.43C25.15 386.29 0 326.11 0 256.01c0-69.79 25.15-130.28 75.43-181.48C125.11 24.84 185.14 0 255.54 0zm.92 46.18c-58.21 0-107.43 20.57-147.66 61.72-41.76 42.36-62.63 91.73-62.63 148.1 0 57 20.72 106.06 62.16 147.2 41.45 41.45 90.82 62.17 148.11 62.17 56.98 0 106.67-20.88 149.03-62.63 40.23-39.01 60.35-87.92 60.35-146.74 0-58.51-20.43-107.88-61.25-148.11-40.54-41.15-89.92-61.71-148.11-61.71zm166.85 214.39 5.03 2.29v72.23l-4.57 2.27-62.17 26.52-2.75.92-3.19-.91-133.95-55.32-4.57-1.83-66.28 27.43-65.37-28.35V240l61.25-25.61-.45-.45V141.7l69.49-30.62 156.79 64.91v63.55l50.74 21.03zm-72.69 84.1v-45.24h-.45v-1.83l-117.49-48v46.64l117.49 48.46v-.46l.45.43zm7.77-59.41 41.16-16.92-37.95-16-40.23 16.92 37.02 16zm53.95 39.32v-44.34l-45.72 19.2v44.8l45.72-19.66z"/></svg>