<svg xmlns="http://www.w3.org/2000/svg" shape-rendering="geometricPrecision" text-rendering="geometricPrecision" image-rendering="optimizeQuality" fill-rule="evenodd" clip-rule="evenodd" viewBox="0 0 512 511.99"><path fill-rule="nonzero" d="M437.64 74.24C388.09 24.74 327.43 0 255.67 0 184.75 0 124.73 24.74 75.61 74.24 25.19 125.44 0 186.01 0 255.99c0 69.97 25.19 130.14 75.61 180.46 50.41 50.36 110.42 75.54 180.06 75.54 70.47 0 131.57-25.39 183.26-76.15C487.64 387.62 512 327.66 512 255.99c0-71.69-24.78-132.27-74.36-181.75zM405.6 402.55c-42.29 41.82-92.06 62.7-149.29 62.7-57.25 0-106.59-20.69-148.03-62.08-41.44-41.38-62.16-90.44-62.16-147.18 0-23.99 3.8-46.69 11.29-68.08l67.83 30.03h-4.89v30.42h24.01c0 4.3-.43 8.58-.43 12.86v7.29h-23.58v30.43h27.86c3.86 22.71 12.43 41.13 23.99 55.72 24.01 31.71 62.58 48.85 104.57 48.85 27.44 0 52.28-8.14 66.86-16.29l-10.29-47.57c-9 4.72-29.13 11.14-48.85 11.14-21.43 0-41.56-6.42-55.28-21.85-6.44-7.29-11.14-17.15-14.13-30h93.17l132.39 58.6c-9.18 16.24-20.83 31.26-35.04 45.01zM239.1 268.51l-.56-.42.97.42h-.41zm79.71-20.15h3.83v-30.42h-72.56L220.6 204.9c2.54-5.71 5.54-10.81 9.04-14.81 13.29-16.3 32.14-23.15 52.72-23.15 18.85 0 36.41 5.56 47.56 10.29l12-48.87c-15.44-6.85-38.15-12.84-64.28-12.84-40.28 0-74.57 16.28-99 43.71-5.43 6.26-10.13 13.28-14.39 20.72l-84.19-37.26c8.16-12.23 17.76-23.98 28.86-35.18 40.18-40.97 89.29-61.45 147.39-61.45 58.09 0 107.44 20.48 148.03 61.45 40.99 40.53 61.5 90.01 61.5 148.48 0 19.27-2.2 37.44-6.51 54.57l-140.52-62.2z"/></svg>