<svg xmlns="http://www.w3.org/2000/svg" shape-rendering="geometricPrecision" text-rendering="geometricPrecision" image-rendering="optimizeQuality" fill-rule="evenodd" clip-rule="evenodd" viewBox="0 0 512 512"><path fill-rule="nonzero" d="M256 0C114.62 0 0 114.62 0 256c0 141.36 114.62 256 256 256s256-114.64 256-256C512 114.62 397.38 0 256 0zm0 464c-114.7 0-208-93.32-208-208 0-24.01 4.13-47.07 11.66-68.53l81.35 36.23a172.095 172.095 0 0 0-3.38 33.97c0 102.2 76.28 131 124.27 131 28.31 0 52.8-9.14 71.98-22.54 3.64-2.61 6.94-5.24 9.97-7.92l-37.32-45.34a41.851 41.851 0 0 1-3.4 3.5c-14.52 13.77-30.48 13.77-34.04 13.77-39.05 0-55.39-41.2-55.61-74.2l224.21 99.82c.26.05.48.05.7.09C403.01 420.26 334.52 464 256 464zm200.44-154.85L225.19 205.93c8.35-15.11 21.63-26.46 41.5-26.46 11.52 0 20.66 3.81 27.85 8.63 2.99 2.16 5.58 4.32 7.77 6.49l41.69-42.9c-28-24.07-59.83-28.37-80.65-28.37-48.92 0-83.53 21.14-103.93 53.25l-77.33-34.49C119.3 85.46 183.35 47.99 256 47.99c114.7 0 208.01 93.3 208.01 208.01 0 18.57-2.48 36.54-7.07 53.68-.19-.19-.31-.34-.5-.53z"/></svg>