<svg xmlns="http://www.w3.org/2000/svg" viewBox="0 0 502.14 502.14"><title>creative-commons-sa-share-alike</title><path d="M250.62,0Q356,0,429.06,73.08q73.08,72.63,73.08,178T430.4,427.71q-75.76,74.43-179.78,74.43-101.77,0-176.64-74Q0,354.2,0,251.07q0-102.66,74-178Q147,0,250.62,0Zm.9,45.28q-85.64,0-144.81,60.53Q45.27,168.14,45.28,251.07q0,83.85,61,144.37,61,61,145.26,61,83.84,0,146.16-61.42,59.18-57.39,59.18-143.92,0-86.08-60.08-145.26Q337.14,45.28,251.52,45.28ZM139.43,215.65q7.17-46.17,37.21-71.51t73.09-25.33q59.18,0,94.15,38.11t35,97.74q0,57.82-36.32,96.17t-94.15,38.33q-42.6,0-73.53-25.56T137.64,291h63.21Q203.1,336.7,256,336.7q26.44,0,42.59-22.86t16.14-61q0-39.9-14.79-60.75t-42.59-20.85q-50.22,0-56.5,44.39h18.39l-49.77,49.77-49.76-49.77Z"/></svg>