<svg xmlns="http://www.w3.org/2000/svg" shape-rendering="geometricPrecision" text-rendering="geometricPrecision" image-rendering="optimizeQuality" fill-rule="evenodd" clip-rule="evenodd" viewBox="0 0 512 512"><path fill-rule="nonzero" d="M353.47 270.47v-18.32h-39.83l65-119.76H310.7l-44.75 99.11-23.76-10.58-40.9-88.53h-67.93l28.19 52.63-84.53-37.64c8.79-13.93 19.4-27.23 31.91-39.87 40.16-40.96 89.28-61.44 147.39-61.44 58.08 0 107.43 20.48 148.02 61.44 41 40.54 61.5 90.03 61.5 148.49 0 21.66-2.74 41.93-8.17 60.86l-104.2-46.39zm-6.78 53h-59.46v-19.31l3-5.82 56.46 25.13zm58.92 79.09c-42.3 41.82-92.06 62.72-149.29 62.72-57.25 0-106.6-20.7-148.02-62.09C66.86 361.82 46.14 312.75 46.14 256c0-21.82 3.13-42.54 9.32-62.21l131.06 58.36h-28.84v39.84h59.97l5.86 12.17v19.31h-65.83v39.84h65.83v57.88h63.71v-57.88h66.24v-36.83l83.59 37.22c-8.56 13.92-19.04 26.88-31.44 38.86zm32.05-328.33C388.09 24.74 327.45 0 255.66 0c-70.9 0-130.93 24.74-180.03 74.23C25.2 125.44 0 186.02 0 256c0 69.97 25.2 130.14 75.63 180.49C126.02 486.83 186.04 512 255.66 512c70.5 0 131.6-25.38 183.28-76.16C487.65 387.63 512 327.67 512 256c0-71.68-24.78-132.27-74.34-181.77z"/></svg>