<svg xmlns="http://www.w3.org/2000/svg" shape-rendering="geometricPrecision" text-rendering="geometricPrecision" image-rendering="optimizeQuality" fill-rule="evenodd" clip-rule="evenodd" viewBox="0 0 358 511.86"><path fill-rule="nonzero" d="M123.87 151.26c1.61-.81 3.05-1.31 4.64-1.01.8.15 1.61.45 2.4.89 2.07 1.18 2.68 2.42 3.98 4.32 6.47 9.45 12.62 19.63 18.26 31.01 3.16 4.81 3.1 8.99-1.08 11.96l-7.55 5.09c-3.75 2.24-7.5 1.11-10.9-2.91-14.65-20.35-34.64-33.97-9.75-49.35zm78.97 205.16v17.94h100.29v67.58H202.84v69.92h-67.57v-69.92H34.98v-67.58h100.29v-21.75c-31.87-8-60.34-24.54-82.84-47.04C20.04 273.19 0 228.42 0 179c0-49.43 20.04-94.18 52.43-126.57C84.81 20.04 129.57 0 179 0c49.43 0 94.18 20.04 126.57 52.43C337.96 84.82 358 129.57 358 179c0 49.42-20.04 94.19-52.43 126.57-27.09 27.09-62.84 45.54-102.73 50.85zm65.61-266.87C245.56 66.66 213.93 52.5 179 52.5s-66.57 14.16-89.45 37.05C66.66 112.44 52.5 144.07 52.5 179s14.16 66.56 37.05 89.45a126.833 126.833 0 0 0 39.51 26.81l-4.71-44.86c-1.13-8.88-4.71-19.17-9.5-30.17-2.53-10.39-2.95-19.41.07-33.27 3.19 3.96 6.61 8.63 10.03 13.05 6.39 8.24 12.86 18.03 23.97 9.03 2.13-1.85 4.29-3.59 6.46-5.22 8.95-6.74 18.12-11.69 26.48-15.1-10.32 6.27-17.79 21.83-19 43.35 11.18-32.74 25.71-56.31 64.04-41.06l-1.92-12.58-17.75 2c-13.74 1.54-23.76-18.83-15.47-25.07 24.73-6.93 59.4-22.93 67 5.82l6.16 23.73c8.35 30.86-4.1 38.11-29.48 59.59-9.22 7.81-19.25 15.03-30.32 21.17-5.45 3.02-4.41 1.87-2.42 8.14l3.94 28.66c23.84-5.32 45.14-17.35 61.81-34.02 22.89-22.89 37.05-54.52 37.05-89.45s-14.16-66.56-37.05-89.45zm-40.14 13.1c.8.27 1.61.72 2.35 1.29 3.74 2.94 6.48 12.7 7.6 17.15.72 2.82 2.84 10.54 4.5 17.04l-29.35 4.03c-2.52-7.98-4.59-16.03-7.04-22.67-1.57-3.64-1.17-6.8.87-9.44 2.38-3.05 6.85-4.68 10.45-5.81 2.49-.79 8.25-2.39 10.62-1.59zm-36.05 9.76c.81.22 1.64.62 2.41 1.14 2.06 1.41 2.59 2.77 3.78 4.85 1.95 3.48 3.51 7.51 4.89 11.78.78 2.4 2.52 7.54 4.31 13-10.24 1.82-23.2.92-26.6 12.62-3.55-8.77-6.4-17.9-9.63-25.21-1.8-3.53-1.6-6.7.28-9.47 3.2-4.72 15.41-10.1 20.56-8.71zm-34.44 16.64c.8.14 1.62.45 2.41.89 2.07 1.18 2.68 2.43 3.99 4.32 2.16 3.14 3.96 6.86 5.63 10.83 2.2 5.24 10.85 24.67 11.7 28.83.59 2.86.06 5.54-2.92 7.64l-9.41 5.44c-3.74 2.24-7.5 1.11-10.89-2.92-7.31-11.76-13.23-25.69-18.88-35.98-2.01-3.23-2.08-6.28-.52-9.06 2.48-4.44 14-10.9 18.89-9.99z"/></svg>