<svg id="Layer_1" data-name="Layer 1" xmlns="http://www.w3.org/2000/svg" viewBox="0 0 122.88 105.59"><defs><style>.cls-1{fill:#fff;}.cls-2{fill:#d92d27;}</style></defs><title>flammable</title><polygon class="cls-1" points="12.82 96.3 110.06 96.3 60.48 13.85 12.82 96.3 12.82 96.3"/><path class="cls-2" d="M12.73,96.26H110L60.39,13.81,12.73,96.26Zm105.48,9.33H4.66A4.71,4.71,0,0,1,2.32,105,4.67,4.67,0,0,1,.63,98.59L56.28,2.32A4.74,4.74,0,0,1,57.92.66a4.65,4.65,0,0,1,6.38,1.6L122,98.21a4.66,4.66,0,0,1-3.79,7.38Z"/><path d="M49.33,50.91c.73,5.46,1.87,9.59,3.8,11.11a31.86,31.86,0,0,1,.55-5.45c1.12-5.82,2.91-6.14,4.63-10.45a11.56,11.56,0,0,0,.57-6.83c6.17,1.12,11.91,10.86,13.35,23.25a13.54,13.54,0,0,0,2.63-7.35,17.82,17.82,0,0,1,4.58,10.2c1,7.29-1.12,12-6.77,13.88,1.26-3,1-5.35-.35-8.43a11.1,11.1,0,0,0-2.21-3.4c-.4,3-1,5.26-2.08,6.1a17.31,17.31,0,0,0-.31-3c-.61-3.21-1.59-3.38-2.54-5.74a6.41,6.41,0,0,1-.31-3.75c-3.39.61-6.53,6-7.33,12.75a7.41,7.41,0,0,1-1.44-4,9.81,9.81,0,0,0-2.52,5.6,8.6,8.6,0,0,0,.49,4.94c-4.34-.53-7.26-3.06-9.1-7.15C42.32,67.32,42.8,63,45.3,57.1a20.2,20.2,0,0,1,4-6.19ZM44.57,89.23a2.92,2.92,0,0,1,0-5.83H78.31a2.92,2.92,0,0,1,0,5.83Z"/></svg>