<svg id="Layer_1" data-name="Layer 1" xmlns="http://www.w3.org/2000/svg" viewBox="0 0 111.81 122.88"><defs><style>.cls-1{fill-rule:evenodd;}</style></defs><title>heat-resistant</title><path class="cls-1" d="M55.71,0C76.56,13.21,95.4,19.47,111.56,18c2.82,57.1-18.26,90.82-55.63,104.89C19.84,109.71-1.5,77.44.08,17.12c19,1,37.59-3.11,55.63-17.12ZM38.55,45.7C39.6,53.51,41.22,59.43,44,61.62a46,46,0,0,1,.8-7.81c1.59-8.35,3.94-8.8,6.41-15a16.59,16.59,0,0,0,1-9.79c8.85,1.6,17.07,15.56,19.14,33.31a19.47,19.47,0,0,0,3.77-10.52A25.59,25.59,0,0,1,81.7,66.45c1.46,10.44-1.6,18.37-9.7,21,1.8-4.33,1.38-8.84-.51-13.25a15.82,15.82,0,0,0-3.16-4.86c-.57,4.29-1.47,7.53-3,8.74.41-7.85-6.2-12-4.53-17.88-4.85.87-9.36,8.54-10.5,18.28a10.62,10.62,0,0,1-2.07-5.78C45,76.24,43.16,84.5,45.35,89c-6.23-.75-10.41-5.54-13.05-11.4-3.79-8.4-3.11-14.65.47-23a29,29,0,0,1,5.78-8.87ZM55.75,9.51C73,20.47,89.63,26.63,103,25.4c2.34,47.36-16.12,76.3-47.11,88C26,102.44,7.32,74.71,8.64,24.69,26,25.6,41.92,20.26,55.75,9.51Z"/></svg>