<svg id="Layer_1" data-name="Layer 1" xmlns="http://www.w3.org/2000/svg" viewBox="0 0 122.88 122.88"><title>hypocrisy</title><path d="M47.18,33V28.33a14,14,0,0,1,28.06,0v43.2H86.15V28.42a24.71,24.71,0,0,0-49.42,0V33ZM33,33v-4.6a28.42,28.42,0,0,1,56.84,0V33h4.6a28.42,28.42,0,0,1,0,56.84h-4.6v4.6a28.42,28.42,0,0,1-56.84,0v-4.6h-4.6a28.42,28.42,0,0,1,0-56.84Zm56.84,3.71V47.18h4.69a14,14,0,0,1,0,28.06H50.89V86.15H94.46a24.71,24.71,0,0,0,0-49.42Zm-39,53.13v5a10.32,10.32,0,0,0,20.64,0v-5Zm24.35,0v5a14,14,0,0,1-28.06,0v-44H36.73V94.46a24.71,24.71,0,0,0,49.42,0v-4.6ZM33,86.15V75.24H28a14,14,0,0,1,0-28.06H71.53V36.73H28.42a24.71,24.71,0,0,0,0,49.42ZM71.53,33V28.33a10.32,10.32,0,0,0-20.64,0V33ZM89.86,71.53h4.69a10.32,10.32,0,0,0,0-20.64H89.86V71.53ZM33,50.89H28a10.32,10.32,0,0,0,0,20.64H33V50.89ZM71.53,71.53V50.89H50.89V71.53Z"/></svg>