<svg xmlns="http://www.w3.org/2000/svg" shape-rendering="geometricPrecision" text-rendering="geometricPrecision" image-rendering="optimizeQuality" fill-rule="evenodd" clip-rule="evenodd" viewBox="0 0 475 511.81"><path d="m228.25 94.15 30.28-30.29h131.68v39.94c-3.7 93.09-139.83 77.64-130.36-9.65h-31.6zM391.11 0H226.93l30.48 43.18h133.7V0zM5.03 25.35l75.09 56.63v66.72h21.84V25.35H5.03zm75.09 130.94v56.63L0 152.49V17.76h109.55v138.53H80.12zm299.03 31.1H241.16l-23.11-.13c-12.79-.07-16.33.32-23.91 9.9-19.85 25.09-39.73 47.65-59.6 72.74l-81.92-62.72c-13.43-9.96-34.92-4.61-44.88 8.81-9.95 13.43-7.14 32.39 6.28 42.35l107.74 80.01c13.08 9.7 31.42 7.28 41.56-5.28l64.24-79.24V380.1l151.59-192.71zm-151.59 255.2v69.22H475V227.45c0-21.4-17-39.01-38.16-40.01l.09.07-164.82 209.53h123.76v45.55H227.56z"/></svg>