<svg xmlns="http://www.w3.org/2000/svg" shape-rendering="geometricPrecision" text-rendering="geometricPrecision" image-rendering="optimizeQuality" fill-rule="evenodd" clip-rule="evenodd" viewBox="0 0 512 185.19"><path fill="#EB030B" d="M.02 166.04 27.6 44.51c.07-.19.22-.3.49-.29h29.79c3.71-12.25 15.61-18.51 27.97-19.53 3.55-.29 7.22-.12 10.69.5 3.64.65 7.05 1.77 9.92 3.35 6.11 3.38 10.22 8.62 10.5 15.68h394.75c.2.05.29.14.29.29l-27.92 122.62c-.08.28-.27.45-.59.46H86.85c-.17.35-.36.71-.55 1.08-.56 1.03-1.16 2.02-1.8 2.92a31.996 31.996 0 0 1-7.06 7.36 31.226 31.226 0 0 1-9.07 4.76c-1.94.64-3.79 1.06-5.52 1.27-1.84.23-3.69.27-5.49.12l.01-.03c-1.88-.15-3.6-.47-5.15-.93-1.56-.47-3.14-1.15-4.69-2.03-2.58-1.47-4.84-3.45-6.59-5.9-1.67-2.31-2.89-5.05-3.53-8.19l-.08-.43H1.06c-.87-.09-1.15-.67-1.04-1.55zM145.74 36.39l-17.28-.11 12.66-10.46 4.62 10.57zm-6.5-25.12-15.82 21.99 3.16-25.72 12.66 3.73zM68.76 4.9l-5.61 14.03-3.51-16.99 9.12 2.96zm-32 19.13 18.94 6.83-23.13 5.59 4.19-12.42zm-8.29-11.9 29.42 12.51L41.86 0 28.47 12.13z"/><path fill="#CF1F25" d="M117.85 122.36 126.06 74h22.48l-1.5 8.84h12.82l1.47 1.83c1.09-.61 2.22-1.13 3.39-1.55 2.5-.89 5.19-1.35 8.05-1.35 2.75 0 5.1.3 7.03.88 1.09.33 2.07.75 2.93 1.27 1.15-.52 2.32-.94 3.5-1.27 2.11-.58 4.34-.88 6.65-.88 2.27 0 4.25.22 5.94.65 1.88.47 3.48 1.22 4.78 2.21 1.44 1.11 2.45 2.46 3.02 4.05l.41 1.53 1.26-7.37h13.36l.86 1.5c.78-.43 1.6-.8 2.47-1.13 2.56-.95 5.53-1.44 8.88-1.44 1.78 0 3.39.17 4.82.49 1.54.35 2.94.89 4.18 1.6 1.23.71 2.31 1.58 3.21 2.58.93 1.04 1.65 2.2 2.17 3.48.58 1.45 1.01 3 1.28 4.65 1.38-2.7 3.13-5 5.23-6.86 2.32-2.07 5.11-3.6 8.32-4.59 2.92-.89 6.28-1.35 10.04-1.35 3.74 0 6.94.46 9.57 1.36 2.9.99 5.15 2.51 6.74 4.54 1.4 1.78 2.35 3.98 2.85 6.54l1.92-11.37h13.01l2.11 2.58c.87-.5 1.78-.96 2.72-1.38a32.14 32.14 0 0 1 7.15-2.2l4.31-.8.5-2.95 23.43-5.63-1.75 10.38h4.88l-.3 1.75 1.49-.44c2.75-.81 5.62-1.41 8.6-1.8 2.9-.38 6.04-.58 9.36-.58 11.15 0 17.33 3.31 18.52 9.93l1.51-8.86h12.99l2 2.41a35.18 35.18 0 0 1 5.27-2.12 29.55 29.55 0 0 1 8.86-1.36c2.06 0 3.87.23 5.41.67 1.73.51 3.2 1.3 4.39 2.34 2.15 1.88 1.39 2.18 2.09-1.94h3.54l.8-4.75 23.43-5.63-1.75 10.38h4.88l-2.96 17.43h-4.88l-1.41 8.29 4.37.25-4.27 18.47h-3.93c-3.42 0-6.19-.09-8.29-.27-2.44-.2-4.29-.55-5.52-1.03-1.46-.56-2.67-1.25-3.62-2.06-1.17-1-1.95-2.2-2.31-3.56-.18-.7-.29-1.47-.31-2.27-.01-.72.05-1.52.19-2.38l2.62-15.44h-.86l-4.45 26.24h-55.76l-2.09-2.52a24.1 24.1 0 0 1-4.22 1.96c-1.52.55-2.97.96-4.32 1.21-1.43.28-2.82.42-4.14.42-1.19 0-2.26-.05-3.22-.14-1.05-.11-1.97-.28-2.76-.49-.8-.21-1.62-.52-2.41-.91-.74-.37-1.48-.82-2.19-1.34a8.943 8.943 0 0 1-2.34-2.45l-1.16 5.03h-3.93c-3.42 0-6.19-.09-8.29-.27-2.44-.2-4.29-.55-5.52-1.03-1.46-.56-2.67-1.25-3.62-2.06-1.17-1-1.95-2.2-2.31-3.56-.18-.7-.29-1.47-.31-2.27-.01-.72.05-1.52.19-2.38l2.09-12.34-2.4.1-1.37.16-2.91.73-3.76 22.15h-22.48l1.93-11.38c-1.35 2.54-3.05 4.73-5.07 6.52-2.32 2.05-5.09 3.58-8.3 4.57-2.93.89-6.29 1.35-10.04 1.35-3.74 0-6.94-.46-9.57-1.36-2.9-.99-5.15-2.51-6.75-4.53-1.45-1.86-2.42-4.14-2.89-6.82-1.19 2.33-2.67 4.37-4.42 6.08l-.06.05c-.9.86-1.88 1.63-2.92 2.28-1.02.65-2.15 1.23-3.37 1.73-1.29.52-2.61.92-3.93 1.16-1.3.22-2.67.35-4.1.35h-3.94l-1.75 10.31-22.77 1.68 2.04-11.99h-83.72l.7-4.15zm134.64-3.58c-2.42-3.09-3.1-7.79-2.02-14.11 1.07-6.32 3.34-11.02 6.81-14.11 3.47-3.08 8.51-4.63 15.1-4.63 6.6 0 11.11 1.55 13.53 4.63 2.43 3.09 3.1 7.79 2.03 14.11-1.07 6.32-3.34 11.02-6.82 14.11-3.46 3.08-8.5 4.63-15.1 4.63s-11.11-1.55-13.53-4.63z"/><path fill="#fff" fill-rule="nonzero" d="m122.02 122.35 7.5-44.2h14.14l-7.5 44.2h-14.14zm46.27-24.75h-.98c-1.09 0-1.91.05-2.47.14-1.57.26-2.5 1.63-2.75 3.11l-3.65 21.5h-14.15l6.01-35.36h7.07l2.62 3.26c3.37-2.88 7.38-4.32 12.05-4.32 4.67 0 7.88.97 9.62 2.9 3.2-1.93 6.7-2.9 10.5-2.9 3.79 0 6.62.72 8.51 2.16 1.88 1.44 2.59 3.43 2.16 5.97l-4.8 28.29h-14.14l4.2-24.75h-.99c-2.3 0-4.52.14-5.15 2.83l-3.72 21.92h-14.14l4.2-24.75zm43.46-10.61h7.07l2.01 3.54c2.6-3.07 6.7-4.6 12.3-4.6 2.88 0 5.27.54 7.15 1.63 1.9 1.08 3.22 2.57 3.99 4.46 1.43 3.53 1.72 7.75.89 12.65-1.02 5.99-3.08 10.51-6.19 13.58-1.24 1.18-2.79 2.16-4.67 2.93-1.88.78-3.97 1.17-6.28 1.17h-8.13l-1.8 10.61-14.33 1.05 7.99-47.02zm11.7 11.88-2.41 14.21h2.19c2.51 0 5.72-.03 6.22-2.97l2.36-13.85c-1.51 0-4.07-.09-5.54.14-1.39.21-2.58 1.05-2.82 2.47zm29.04 19.91c-2.42-3.09-3.1-7.79-2.02-14.11 1.07-6.32 3.34-11.02 6.81-14.11 3.47-3.08 8.51-4.63 15.1-4.63 6.6 0 11.11 1.55 13.53 4.63 2.43 3.09 3.1 7.79 2.03 14.11-1.07 6.32-3.34 11.02-6.82 14.11-3.46 3.08-8.5 4.63-15.1 4.63s-11.11-1.55-13.53-4.63zm13.26-19.55-2.35 13.85c1.8 0 6.08.14 7.67-.52.83-.35 1.37-1.17 1.59-2.45l2.35-13.85c-1.8 0-6.07-.14-7.68.53-.83.34-1.37 1.17-1.58 2.44zm31.91-12.24h7.07l3.22 3.96c3.21-2.54 6.99-4.21 11.31-5.02l-1.42 13.37c-1.13.04-2.66.33-4.56.85-1.9.51-3.25 1.17-4.05 1.98l-3.43 20.22h-14.14l6-35.36zm23.91 9.12 1.55-9.12h3.53l.96-5.65 14.74-3.54-1.56 9.19h4.88l-1.54 9.12h-4.88l-2.74 16.13c1.18.23 2.54.4 4.09.49l-2.41 10.39c-6.45 0-10.59-.35-12.4-1.05-2.26-.85-3.57-1.99-3.95-3.4-.24-.85-.26-1.84-.06-2.97l3.32-19.59h-3.53zm47.41-10.18c11.31 0 16.31 3.89 14.99 11.67l-4.2 24.75h-7.07l-3.35-4.03c-1.64 1.6-3.72 2.85-6.22 3.75-2.51.89-4.82 1.34-6.91 1.34-2.1 0-3.76-.17-4.97-.5-1.22-.32-2.37-.89-3.46-1.69-2.4-1.7-3.21-4.86-2.42-9.48 1.44-8.48 8.56-12.72 21.39-12.72h2.82l.43-2.55c-1.48-.09-2.73-.14-3.72-.14-5.32 0-10 .63-14.04 1.9l.02-10.11c4.96-1.46 10.53-2.19 16.71-2.19zm-9.07 24.26-.49 3.31h2.9c2.07 0 3.45-.24 4.11-.7.66-.46 1.08-1.51 1.2-2.26l.56-3.74c-1.93 0-5.01-.18-6.7.53-.82.34-1.4 1.6-1.58 2.86zm40.36-23.2 2.93 3.54c4.91-3.07 9.87-4.6 14.92-4.6 3.3 0 5.77.72 7.41 2.16 1.64 1.44 2.25 3.43 1.82 5.97l-4.8 28.29H408.4l4.21-24.75h-2.19c-1.61 0-2.85.17-3.74.53-.89.35-1.42 1.07-1.6 2.16l-3.75 22.06h-14.14l6-35.36h7.08zm32.39 9.12 1.55-9.12h3.53l.96-5.65 14.74-3.54-1.56 9.19h4.88l-1.54 9.12h-4.88l-2.74 16.13c1.18.23 2.54.4 4.09.49l-2.41 10.39c-6.45 0-10.59-.35-12.4-1.05-2.26-.85-3.57-1.99-3.95-3.4-.24-.85-.26-1.84-.06-2.97l3.32-19.59h-3.53zM55.65 148.96c3.1-2.33 6.43-3.4 9.56-3.44 2.09-.04 4.08.4 5.83 1.21 1.73.82 3.24 2.01 4.38 3.52 2.61 3.45 3.05 8.07 1.26 12.55-.46 1.15-1.05 2.26-1.77 3.28-2.36 3.39-5.51 5.58-8.81 6.66-1.99.66-4.04.89-6.01.74-1.96-.16-3.81-.71-5.41-1.62-2.73-1.56-4.8-4.17-5.52-7.7-.21-1.01-.28-2.09-.22-3.22.14-2.95 1.18-5.61 3.03-8.24 1-1.43 2.27-2.79 3.68-3.74zM81.5 124.6c-3 11.91-23.38 10.8-21.32-1.17 2.26-20.55 4.75-57.55 8.97-76.74 3.73-15.47 38.85-13.13 35.59 2.27l-.15.6L81.5 124.6z"/></svg>