<svg xmlns="http://www.w3.org/2000/svg" shape-rendering="geometricPrecision" text-rendering="geometricPrecision" image-rendering="optimizeQuality" fill-rule="evenodd" clip-rule="evenodd" viewBox="0 0 266 512.94"><path fill-rule="nonzero" d="M110.13 378.56c-.03 23.64-22.28 21.14-23.71 5.02L68.47 142.6c-4.75-41.43 64.97-43.18 61.14-.28l-12.66 142.14c.96-4.79 10.66-17.48 29.09-38.07 35.92-40.22 53.87-76.62 53.88-109.18-.01-27.06-8.56-48.43-25.68-64.11-17.12-15.68-39.81-23.52-68.06-23.52-59.45 0-64.59 22.23-89.79 68.95-3.27 6.58-12.73 9.51-15.08.72C.23 111.03-.55 103.23.49 96 16.65-15.44 158.83-21.44 226.31 35.03 252.77 55.98 266 84.29 266 119.97c0 21.55-5.93 40.88-17.78 58-11.85 17.12-38.85 45.08-80.99 83.86-34 31.13-51.59 52.92-52.79 65.37l-4.31 51.36zm-8.62 134.38c-11.73 0-21.85-4.19-30.35-12.57-8.5-8.38-12.75-18.44-12.75-30.17 0-11.97 4.19-22.15 12.57-30.53 8.38-8.38 18.56-12.57 30.53-12.57 11.97 0 22.15 4.19 30.53 12.57 8.38 8.38 12.57 18.56 12.57 30.53 0 11.97-4.19 22.09-12.57 30.35-8.38 8.26-18.56 12.39-30.53 12.39z"/></svg>