<svg xmlns="http://www.w3.org/2000/svg" shape-rendering="geometricPrecision" text-rendering="geometricPrecision" image-rendering="optimizeQuality" fill-rule="evenodd" clip-rule="evenodd" viewBox="0 0 512 512"><path d="M412.36 51.79h23.85c4.86 0 8.83 3.98 8.83 8.84V93h32.38c4.86 0 8.83 3.98 8.83 8.84v23.85c0 4.86-3.97 8.84-8.83 8.84h-32.38v32.37c0 4.87-3.97 8.84-8.83 8.84h-23.85c-4.86 0-8.84-3.97-8.84-8.84v-32.37h-32.38c-4.86 0-8.84-3.98-8.84-8.84v-23.85c0-4.86 3.98-8.84 8.84-8.84h32.38V60.63c0-4.86 3.98-8.84 8.84-8.84zM235.42 329.41h-87.58c-5 0-7.12-2.23-7.12-7.48v-25.18c0-5.26 2.12-7.49 7.12-7.49h22.2v-69.5H151.8c-5 0-7.12-2.23-7.12-7.49V187.1c0-5.26 2.12-7.49 7.12-7.49h57.47c5.01 0 7.13 2.23 7.13 7.49v102.16h19.02c5.01 0 7.14 2.23 7.14 7.49v25.18c0 5.25-2.13 7.48-7.14 7.48zm77.98 3.13c-12.16 0-22.1-1.01-29.82-3.02-11.71-3.03-23.06-8.98-27.15-21.75-1.65-5.12-2.48-10.88-2.48-17.27v-69.69c0-12.62 3.48-22.89 10.4-30.79 6.94-7.91 19.72-11.86 38.34-11.86h45.58c5 0 7.13 2.25 7.13 7.49v24.55c0 5.24-2.14 7.49-7.13 7.49h-37.05c-4.87 0-8.21.8-9.91 2.39-1.71 1.58-2.58 6.43-2.58 11.54v4.58c3.17-.97 6.85-1.73 11-2.29 4.15-.54 8.88-.83 14.16-.83 17.83 0 30.06 3.16 36.66 9.46 6.6 6.31 9.91 15.66 9.91 27.99v19.97c0 6.38-.83 12.15-2.48 17.27-4.01 12.52-14.95 18.63-26.45 21.75-7.39 2.01-16.78 3.02-28.13 3.02zm-16.05-59.09v13.72c0 2.2.81 4.08 2.38 5.52 1.57 1.44 6.6 2.19 12.28 2.19 5.95 0 11.09-.75 12.66-2.19 1.57-1.44 2.38-3.29 2.38-5.52v-13.72c0-2.08-.81-3.86-2.38-5.31-1.57-1.44-6.71-2.18-12.66-2.18-5.68 0-10.71.74-12.28 2.18-1.57 1.45-2.38 3.26-2.38 5.31z"/><path fill="#EB0100" fill-rule="nonzero" d="M173.37 65.08 380 422.99c8.18-6.08 15.88-12.74 23.07-19.92 37.62-37.63 60.91-89.63 60.91-147.07 0-16.73-1.98-32.99-5.71-48.57 14.97-8.37 26.3-23.98 39.12-36.88C506.85 197.28 512 226.04 512 256c0 70.68-28.66 134.69-74.99 181.01C390.69 483.34 326.68 512 256 512c-70.68 0-134.69-28.66-181.02-74.99C28.66 390.69 0 326.68 0 256c0-70.68 28.66-134.69 74.98-181.02C121.31 28.66 185.32 0 256 0c43.4 0 84.28 10.82 120.1 29.88-16.68 10.8-27.45 21.04-36 35.85-25.71-11.38-54.17-17.71-84.1-17.71-29.36 0-57.31 6.09-82.63 17.06zm165.25 381.84L131.99 89.01a208.41 208.41 0 0 0-23.06 19.92C71.31 146.56 48.02 198.56 48.02 256s23.29 109.44 60.91 147.07c37.63 37.62 89.63 60.91 147.07 60.91 29.36 0 57.29-6.09 82.62-17.06z"/></svg>