<svg xmlns="http://www.w3.org/2000/svg" shape-rendering="geometricPrecision" text-rendering="geometricPrecision" image-rendering="optimizeQuality" fill-rule="evenodd" clip-rule="evenodd" viewBox="0 0 512 512"><path fill="#1E1C1F" d="m353.85 197.39-2.59-2.59 14.81-14.81c14.01-14.02 14.01-36.95 0-50.97l-14.6-14.6c-14.02-14.02-36.95-14.02-50.97 0l-14.81 14.81-2.6-2.6c-3.61-3.6-9.46-3.6-13.06.01l-5.23 5.22c-3.61 3.62-3.61 9.47 0 13.08l8.62 8.62-110.6 110.6c-6.61 25.04-11.08 41.24-11.48 51.12l-4.41 19.07c-1.4 6.1-6.69 14.36-11.56 21.98-6.54 10.25-12.54 19.63-12.54 28.56 0 15.63 8.15 26.24 19.07 31.73 4.75 2.38 9.99 3.71 15.23 3.98 5.21.27 10.52-.49 15.44-2.27 11.63-4.23 21.09-13.89 22.75-28.97l.05-.64c.76-12.6-6.06-23-13.27-33.97l.04-.02c-4.49-6.84-9.19-14-10.69-20.43l-1.45-6.19c10.39-1.26 25.63-5.06 47.06-9.71l110.6-110.6 7.89 7.89c3.61 3.61 9.47 3.61 13.07 0l5.23-5.23a9.24 9.24 0 0 0 0-13.07zm-100.16 66.62-36.72-36.73 53.49-53.49 36.73 36.73-53.5 53.49zm-94.5 73.14c4.41 18.89 24.58 35.15 23.63 50.83-3.08 27.81-47.39 26.78-47.39-3.09 0-10.65 19.97-31.34 23.76-47.74z"/><path fill="#D92D27" fill-rule="nonzero" d="M268.82.33c-34.57-1.74-67.93 3.5-98.71 14.48a256.474 256.474 0 0 0-145.5 131.61c-14 29.53-22.55 62.2-24.28 96.76-1.74 34.57 3.5 67.93 14.48 98.71 11.42 32 28.99 61.12 51.34 85.84 22.35 24.7 49.56 45.1 80.26 59.66 29.54 14 62.21 22.55 96.77 24.28 34.57 1.74 67.93-3.5 98.71-14.48a256.474 256.474 0 0 0 145.5-131.61c14-29.53 22.55-62.2 24.28-96.76 1.74-34.57-3.5-67.93-14.48-98.71a256.488 256.488 0 0 0-51.34-85.84 256.598 256.598 0 0 0-80.27-59.66c-29.53-14-62.2-22.55-96.76-24.28zM94.48 128.96l271.77 300.45a204.786 204.786 0 0 1-52.18 23.76c-21.53 6.34-44.54 9.22-68.36 8.03-27.85-1.4-54.09-8.25-77.73-19.45-24.52-11.63-46.34-28.02-64.35-47.93-18.02-19.91-32.14-43.26-41.25-68.83-8.79-24.63-12.98-51.42-11.58-79.28h-.04c1.19-23.74 6.37-46.35 14.86-67.22 7.3-17.92 17.07-34.57 28.86-49.53zm310.79 268.26L130.42 93.35c17.69-13.68 37.62-24.51 59.09-31.85 23.92-8.19 49.84-12.05 76.78-10.7 27.86 1.4 54.1 8.25 77.73 19.45 24.52 11.63 46.34 28.01 64.35 47.92 18.01 19.92 32.13 43.27 41.25 68.83 8.78 24.63 12.97 51.43 11.58 79.29-1.35 26.94-7.79 52.34-18.32 75.32-9.45 20.62-22.23 39.37-37.61 55.61z"/></svg>