<svg id="Layer_1" data-name="Layer 1" xmlns="http://www.w3.org/2000/svg" viewBox="0 0 122.88 122.88"><defs><style>.cls-1{fill:#fff;}.cls-2{fill-rule:evenodd;}.cls-3{fill:#d92d27;}</style></defs><title>no-beverages</title><path class="cls-1" d="M21.2,32.93,90,101.68A49.29,49.29,0,0,1,12.13,61.44h0A49.12,49.12,0,0,1,21.2,32.93ZM98.92,93.5,29.39,24a49.25,49.25,0,0,1,66.92,2.61A49.23,49.23,0,0,1,98.92,93.5Z"/><path class="cls-1" d="M24,29.38,93.49,98.92A49.31,49.31,0,0,1,24,29.38ZM101.68,90,32.92,21.2A49.24,49.24,0,0,1,96.3,26.57a49,49,0,0,1,14.45,34.87h0A49.12,49.12,0,0,1,101.68,90Z"/><path class="cls-2" d="M74,54.79H42.31l5.84,28.38H74l6.59-28.38ZM42.35,43.15H58.82l3.06-11.93c.52-1.92,2-3,4.69-3.72h6.78a2.21,2.21,0,0,1,1.79,2.16v2.09a2.34,2.34,0,0,1-2.09,1.79H67.4l-2.46,9.61H80.53a2.38,2.38,0,0,1,2.37,2.38v2.7a2.38,2.38,0,0,1-2.37,2.38H42.35A2.38,2.38,0,0,1,40,48.23v-2.7a2.38,2.38,0,0,1,2.37-2.38Zm6.23,44.52L49,92.18a4.48,4.48,0,0,0,3.79,3.2H69.32a4.47,4.47,0,0,0,3.8-3.2l.43-4.51Z"/><path class="cls-3" d="M61.44,122.88A61.31,61.31,0,1,0,38,118.22a61.29,61.29,0,0,0,23.49,4.66ZM101.68,90,32.93,21.2a49.44,49.44,0,0,1,47.38-5.34A49.53,49.53,0,0,1,107,42.58a49,49,0,0,1,3.73,18.86h0A48.93,48.93,0,0,1,101.68,90ZM24,29.38,93.5,98.92A49.32,49.32,0,0,1,24,29.38Z"/></svg>