<svg id="Layer_1" data-name="Layer 1" xmlns="http://www.w3.org/2000/svg" viewBox="0 0 122.88 122.88"><defs><style>.cls-1{fill:#fff;}.cls-2{fill:#d92d27;}</style></defs><title>no-clock</title><path class="cls-1" d="M21.2,32.93,90,101.68A49.29,49.29,0,0,1,12.13,61.44h0A49.12,49.12,0,0,1,21.2,32.93ZM98.92,93.5,29.39,24A49.31,49.31,0,0,1,98.92,93.5Z"/><path d="M61.43,24.73h0a36.65,36.65,0,1,1-.06,0Zm-15,10.81a2,2,0,1,1-1,1.69,2,2,0,0,1,1-1.69Zm-10.95,11a1.92,1.92,0,0,1,1.68-1,1.94,1.94,0,1,1-2,1.94,1.9,1.9,0,0,1,.27-1Zm-4,15a2,2,0,1,1,2,1.95h0a2,2,0,0,1-2-1.95Zm6,16.94A2,2,0,1,1,38.25,77a1.84,1.84,0,0,1,0,.33,2,2,0,0,1-2.67-.72l2,1.93Zm9.06,9a1.92,1.92,0,1,1,1,.27,1.9,1.9,0,0,1-1-.27Zm17.68,3.28h0a2,2,0,1,1,2-2h0a2,2,0,0,1-1.94,2Zm12.32-3.34a1.89,1.89,0,0,1-1,.26,2,2,0,1,1,1.69-2.93,1.95,1.95,0,0,1-.73,2.67ZM88.25,73.76a2,2,0,1,1,.26-1,2,2,0,0,1-.26,1Zm3.26-17.68h0a2,2,0,1,1-2-1.95h0a1.94,1.94,0,0,1,1.94,1.95Zm-4.06-9.65a2,2,0,0,1-1.69,2.93,2,2,0,0,1-1-3.65,2.06,2.06,0,0,1,1-.25,2,2,0,0,1,1.7,1Zm-11-11a2,2,0,0,1,1,1.7,2,2,0,1,1-3.65-1,2,2,0,0,1,2.67-.72Zm-15-4a1.95,1.95,0,1,1-2,1.95,1.95,1.95,0,0,1,2-1.95ZM59.56,54.31h3.88a.44.44,0,0,0,.43-.44h0L61.63,37.58,59.12,53.87a.45.45,0,0,0,.44.44Zm7.93,8.1V60.68h0a.43.43,0,0,1,.43-.43h0l16.31,1.1L67.92,63.28h0a.42.42,0,0,1-.42-.42v-.45Zm-6-4.8h0a4.59,4.59,0,1,1-4.59,4.59c0-.15,0-.29,0-.44a4.6,4.6,0,0,1,4.59-4.59l0,.44ZM85,37.87A33.28,33.28,0,1,0,94.71,61.4v0A33.18,33.18,0,0,0,85,37.87Z"/><path class="cls-2" d="M61.44,0A61.31,61.31,0,1,0,84.93,4.66,61.29,61.29,0,0,0,61.44,0ZM21.2,32.93,90,101.68A49.44,49.44,0,0,1,42.57,107,49.53,49.53,0,0,1,15.86,80.3a49,49,0,0,1-3.73-18.86h0A48.93,48.93,0,0,1,21.2,32.93ZM98.92,93.5,29.38,24A49.32,49.32,0,0,1,98.92,93.5Z"/></svg>