<svg id="Layer_1" data-name="Layer 1" xmlns="http://www.w3.org/2000/svg" viewBox="0 0 122.88 122.88"><defs><style>.cls-1{fill:#fff;}.cls-2{fill-rule:evenodd;}.cls-3{fill:#d92d27;}</style></defs><title>no-coffee-tea</title><path class="cls-1" d="M21.2,32.93,90,101.68A49.42,49.42,0,0,1,42.58,107,49.25,49.25,0,0,1,12.13,61.44h0A49.12,49.12,0,0,1,21.2,32.93ZM98.92,93.5,29.38,24A49.32,49.32,0,0,1,98.92,93.5Z"/><path class="cls-1" d="M24,29.38,93.49,98.92A49.31,49.31,0,0,1,24,29.38ZM101.68,90,32.92,21.2A49.24,49.24,0,0,1,96.3,26.57a49,49,0,0,1,14.45,34.87h0A49.12,49.12,0,0,1,101.68,90Z"/><path class="cls-2" d="M84.46,59H81.62V67.5h2.85A2.12,2.12,0,0,0,86,66.86l.08-.07a2.15,2.15,0,0,0,.56-1.43h0v0h0V61.2h0v0h0A2.19,2.19,0,0,0,84.47,59h0ZM48.58,30.27a1.9,1.9,0,0,1,2.66.6,2,2,0,0,1-.58,2.75C49,34.7,49,35.54,49.51,36.3a17.17,17.17,0,0,0,1.76,2.06,16.35,16.35,0,0,1,2.47,3.09c1.5,2.68,1.37,5.34-3.36,8a1.9,1.9,0,0,1-2.61-.8A2,2,0,0,1,48.54,46c2-1.1,2.22-1.88,1.86-2.52a14.46,14.46,0,0,0-1.9-2.29,21.16,21.16,0,0,1-2.18-2.6c-1.76-2.67-2.07-5.4,2.26-8.27Zm21.72,0a1.91,1.91,0,0,1,2.67.6,2,2,0,0,1-.59,2.75c-1.63,1.08-1.64,1.92-1.14,2.68A17.17,17.17,0,0,0,73,38.36a16.76,16.76,0,0,1,2.47,3.09c1.5,2.68,1.37,5.34-3.35,8a1.9,1.9,0,0,1-2.62-.8A2,2,0,0,1,70.27,46c2-1.1,2.22-1.87,1.86-2.52a14.46,14.46,0,0,0-1.9-2.29,21.16,21.16,0,0,1-2.18-2.6c-1.76-2.67-2.08-5.4,2.25-8.27Zm-10.86,0a1.91,1.91,0,0,1,2.67.6,2,2,0,0,1-.59,2.75c-1.63,1.08-1.64,1.92-1.14,2.68a17.17,17.17,0,0,0,1.76,2.06,16.76,16.76,0,0,1,2.47,3.09c1.5,2.68,1.37,5.34-3.35,8a1.9,1.9,0,0,1-2.62-.8A2,2,0,0,1,59.41,46c2-1.1,2.22-1.88,1.86-2.52a14.46,14.46,0,0,0-1.9-2.29,20.3,20.3,0,0,1-2.18-2.6c-1.77-2.67-2.08-5.4,2.25-8.27ZM33.08,87.51H51.59A19.15,19.15,0,0,1,41,70.42V55H79.18v.2a2.18,2.18,0,0,1,.52-.06h4.8a6,6,0,0,1,4.23,1.76,6,6,0,0,1,1.78,4.25h0v0h0v4.14h0v0h0a6,6,0,0,1-1.63,4.09l-.14.15a6,6,0,0,1-4.26,1.76H79.7a2.35,2.35,0,0,1-.54-.07A19.14,19.14,0,0,1,68.57,87.52H88.11a.81.81,0,0,1,.73.87v3.67a.8.8,0,0,1-.73.86h-55a.8.8,0,0,1-.72-.86V88.39a.79.79,0,0,1,.71-.88Z"/><path class="cls-3" d="M61.44,122.88A61.31,61.31,0,1,0,38,118.22a61.29,61.29,0,0,0,23.49,4.66ZM101.68,90,32.93,21.2a49.44,49.44,0,0,1,47.38-5.34A49.53,49.53,0,0,1,107,42.58a49,49,0,0,1,3.73,18.86h0A48.93,48.93,0,0,1,101.68,90ZM24,29.38,93.5,98.92A49.32,49.32,0,0,1,24,29.38Z"/></svg>