<svg id="Layer_1" data-name="Layer 1" xmlns="http://www.w3.org/2000/svg" viewBox="0 0 122.88 122.88"><defs><style>.cls-1{fill:#fff;}.cls-2{fill:#d92d27;}</style></defs><title>no-fire-flame</title><path class="cls-1" d="M101.68,32.93,32.92,101.68a49.29,49.29,0,0,0,77.83-40.24h0a49.12,49.12,0,0,0-9.08-28.51ZM24,93.5,93.49,24a49.25,49.25,0,0,0-66.92,2.61A49.23,49.23,0,0,0,24,93.5Z"/><path d="M43,46.49c1.12,8.32,2.85,14.62,5.8,16.95a48.67,48.67,0,0,1,.84-8.31c1.71-8.89,4.44-9.37,7.07-16a17.69,17.69,0,0,0,.86-10.42C67,30.47,75.7,45.33,77.9,64.22a20.64,20.64,0,0,0,4-11.2,27.21,27.21,0,0,1,7,15.56C90.46,79.7,87.2,86.9,78.57,89.75c1.92-4.61,1.48-8.17-.54-12.86a16.66,16.66,0,0,0-3.36-5.18c-.61,4.57-1.57,8-3.18,9.31A27.31,27.31,0,0,0,71,76.46c-.94-4.89-2.44-5.15-3.88-8.76A9.76,9.76,0,0,1,66.67,62c-5.16.93-10,9.09-11.18,19.46a11.3,11.3,0,0,1-2.2-6.15,15,15,0,0,0-3.84,8.54,13,13,0,0,0,.75,7.53c-6.63-.79-11.08-4.66-13.89-10.9-4-8.94-3.31-15.6.5-24.53A31.13,31.13,0,0,1,43,46.49Z"/><path class="cls-2" d="M61.44,0A61.31,61.31,0,1,1,38,4.66,61.29,61.29,0,0,1,61.44,0Zm40.24,32.93L32.93,101.68A49.44,49.44,0,0,0,80.31,107,49.53,49.53,0,0,0,107,80.3a49,49,0,0,0,3.73-18.86h0a48.93,48.93,0,0,0-9.08-28.51ZM24,93.5,93.5,24A49.32,49.32,0,0,0,24,93.5Z"/></svg>