<svg id="Layer_1" data-name="Layer 1" xmlns="http://www.w3.org/2000/svg" viewBox="0 0 122.88 122.88"><defs><style>.cls-1{fill:#fff;}.cls-2{fill:#d92d27;}</style></defs><title>no-gambling</title><path class="cls-1" d="M101.68,32.93,32.92,101.68a49.29,49.29,0,0,0,77.83-40.24h0a49.12,49.12,0,0,0-9.08-28.51ZM24,93.5,93.49,24A49.31,49.31,0,0,0,24,93.5Z"/><path d="M27.8,37.81,56.55,30.1l0,1.86-2,.52L33.82,68.42l2,7.29L56.36,40.05l-.07,3.69L36.42,78.14l1.95,7.29L56.06,54.78,56,58.47,39.31,87.38a1,1,0,0,1-.32.32l.46,1.74A2.12,2.12,0,0,0,42,90.93l1.78-.48a.88.88,0,0,1,.12-.41L55.78,69.51l-.07,3.69-9.6,16.63,7.28-2,2.1-3.64-.1,5-12.9,3.45a3.89,3.89,0,0,1-4.76-2.75L25.05,42.57a3.89,3.89,0,0,1,2.75-4.76Zm35.57-4.94H94.08A3.91,3.91,0,0,1,96.83,34,3.87,3.87,0,0,1,98,36.75v49a3.89,3.89,0,0,1-3.89,3.89H63.37a3.89,3.89,0,0,1-2.74-1.14h0a3.89,3.89,0,0,1-1.14-2.75v-49A3.87,3.87,0,0,1,60.62,34l.06,0a3.85,3.85,0,0,1,2.69-1.09ZM88.66,81.21l.36.05,1.51,4.31h1L93,81.26l.36-.05v-.6H91.71v.6l.34.06-.22.68h-1.6L90,81.27l.34-.06v-.6H88.66v.6Zm1.8,1.47h1.13L91,84.43h0l-.55-1.75ZM63.94,41.4l.36-.06L65.81,37h1l1.5,4.31.35.06V42H67V41.4l.35-.06-.22-.69H65.5l-.22.69.35.06V42H63.94V41.4Zm1.8-1.48h1.14l-.56-1.75h0l-.55,1.75Zm16,30.13-1.8-4.14c3.22,3,8.14,1.39,8.25-3.36.09-3.42-3.17-7.87-9.57-13.64C72.24,54.68,69,59.1,69.3,62.55c.42,4.17,4.62,6.07,7.85,3.36l-1.28,4.14Zm12.36-35.4H63.37a2.1,2.1,0,0,0-1.45.58l0,0a2.09,2.09,0,0,0-.61,1.48v49a2.1,2.1,0,0,0,2.1,2.11H94.08a2.13,2.13,0,0,0,1.49-.62,2.1,2.1,0,0,0,.61-1.49v-49a2.1,2.1,0,0,0-2.11-2.1Zm-58.94,3L28.61,49l1.95,7.28L42.42,35.73l-7.29,2ZM28,46.54l4.74-8.21-4.44,1.19a2.11,2.11,0,0,0-1.48,2.58L28,46.54ZM44.85,35.08,31.21,58.7l2,7.29,19-32.86-7.29,1.95Z"/><path class="cls-2" d="M61.44,0A61.31,61.31,0,1,1,38,4.66,61.29,61.29,0,0,1,61.44,0Zm40.24,32.93L32.93,101.68A49.44,49.44,0,0,0,80.31,107a49.26,49.26,0,0,0,30.44-45.58h0a49.12,49.12,0,0,0-9.08-28.51ZM24,93.5,93.5,24A49.32,49.32,0,0,0,24,93.5Z"/></svg>