<svg id="Layer_1" data-name="Layer 1" xmlns="http://www.w3.org/2000/svg" viewBox="0 0 122.88 122.88"><defs><style>.cls-1{fill:#fff;}.cls-2{fill-rule:evenodd;}.cls-3{fill:#d92d27;}</style></defs><title>no-hand-shake</title><path class="cls-1" d="M24,93.5,93.5,24A49.32,49.32,0,0,0,24,93.5Z"/><path class="cls-1" d="M101.68,32.93,32.93,101.68A49.44,49.44,0,0,0,80.31,107,49.53,49.53,0,0,0,107,80.3a49,49,0,0,0,3.73-18.86h0a48.93,48.93,0,0,0-9.08-28.51Z"/><path class="cls-2" d="M24,51l1.48,18.31A7,7,0,0,0,26.68,73a1.83,1.83,0,0,0,1.83.55l.17,0h7.26a2.44,2.44,0,0,0,2.12-.84l0,0a5.39,5.39,0,0,0,.76-3V49.54a1.35,1.35,0,0,1,0-.28v-.08A1.92,1.92,0,0,0,38,47.83a4.69,4.69,0,0,0-2.5-.5c-3,0-6.08.06-9.08,0a2.78,2.78,0,0,0-2.05.75A3.54,3.54,0,0,0,24,50.87V51Zm57.79-.78a6.52,6.52,0,0,1,.06-.91L78.51,47c-.45-.3-1-.68-1.55-1.07a20.26,20.26,0,0,0-6-3.27h0a16.31,16.31,0,0,0-3.82-.53,13.26,13.26,0,0,0-3.51.38,9.26,9.26,0,0,0-1.94.74,6.69,6.69,0,0,0-1.49,1L58,47a1.16,1.16,0,0,1-.28.34l-6.23,7.4A2.78,2.78,0,0,0,52,55.93a2.68,2.68,0,0,0,1.14.81,3.78,3.78,0,0,0,1.63.2,5.32,5.32,0,0,0,2.88-1.21l1.69-1.4c.43-.35.79-.68,1.16-1a16,16,0,0,1,2.44-2c1.94-1.15,3.87-1.19,5.77,2L78.47,71H81.8V50.17Zm.79-2.81a3.18,3.18,0,0,1,.52-.58,5.26,5.26,0,0,1,3.64-1.15h8.51a6.88,6.88,0,0,1,4.23,1.09,4.09,4.09,0,0,1,1.41,4L99,70.19a6.85,6.85,0,0,1-1.41,4l-.06.06a4.37,4.37,0,0,1-3.61,1.36H86.29a3.91,3.91,0,0,1-2.73-.84A5.08,5.08,0,0,1,82.17,73H79.53a4.48,4.48,0,0,1,0,2.91A4.75,4.75,0,0,1,78,78.16a5.5,5.5,0,0,1-2.49,1.1A5,5,0,0,1,72.83,79a7,7,0,0,1-3.16,2,5.57,5.57,0,0,1-3.37-.16,6.66,6.66,0,0,1-3.57,2.23,6.56,6.56,0,0,1-4.26-.62A6,6,0,0,1,57,83.3a5.34,5.34,0,0,1-2.28.41,6.19,6.19,0,0,1-4.21-1.53,12.69,12.69,0,0,1-2.37-3.28l-4.21-7.35H40.65a5.84,5.84,0,0,1-1,2.34l0,.06a4.3,4.3,0,0,1-3.74,1.6H28.74a3.63,3.63,0,0,1-3.56-1.22,8.77,8.77,0,0,1-1.66-4.87v-.08L22,51.13a5.24,5.24,0,0,1,.82-4.31,4.58,4.58,0,0,1,3.48-1.47H35.5a6.47,6.47,0,0,1,3.58.83,3.63,3.63,0,0,1,1.56,2.09h6.14a17.38,17.38,0,0,1,4.59-2.35,12.17,12.17,0,0,1,5.27-.42l2.18-2.59a8.35,8.35,0,0,1,2-1.39,11.17,11.17,0,0,1,2.36-.9,15.31,15.31,0,0,1,4-.44,18.29,18.29,0,0,1,4.29.59h.05a21.45,21.45,0,0,1,6.58,3.56l1.51,1,3,2ZM32.07,65.09a1.71,1.71,0,1,1-1.7,1.71,1.7,1.7,0,0,1,1.7-1.71Zm45.39,7.82a1,1,0,0,1-.56-.65L67,54.37c-1.1-1.84-2.1-1.89-3.06-1.32a14.78,14.78,0,0,0-2.11,1.72c-.43.39-.86.78-1.23,1.09-.58.45-1.14,1-1.72,1.41a7.28,7.28,0,0,1-4,1.65,5.69,5.69,0,0,1-2.48-.33,4.66,4.66,0,0,1-2-1.42,4.83,4.83,0,0,1-1-2.65,1,1,0,0,1,.29-.78l5.36-6.37a9.57,9.57,0,0,0-3.1.43A16.09,16.09,0,0,0,47.7,50a1,1,0,0,1-.61.21H40.84V69.56h3.65a1,1,0,0,1,.88.53l4.49,7.83a11.35,11.35,0,0,0,2,2.79,4.39,4.39,0,0,0,3,1,3.52,3.52,0,0,0,1.47-.26,3.88,3.88,0,0,0,.85-.49l-2.92-5.46a1,1,0,1,1,1.75-.93l3.17,5.94a4.29,4.29,0,0,0,5.71-1l-4.57-7.18a1,1,0,0,1,.3-1.37,1,1,0,0,1,1.37.3l4.82,7.57a3.73,3.73,0,0,0,2.42.21,5.11,5.11,0,0,0,2.22-1.44L67,69.41a1,1,0,1,1,1.76-.93L73.26,77a2.89,2.89,0,0,0,1.93.32,3.48,3.48,0,0,0,1.57-.69,2.9,2.9,0,0,0,.94-1.31,2.7,2.7,0,0,0-.15-1.93,1.08,1.08,0,0,1-.09-.46Zm13.08-8a1.88,1.88,0,1,1-1.88,1.88,1.88,1.88,0,0,1,1.88-1.88Z"/><path class="cls-3" d="M61.44,0A61.31,61.31,0,1,1,38,4.66,61.29,61.29,0,0,1,61.44,0Zm40.24,32.93L32.93,101.68A49.44,49.44,0,0,0,80.31,107,49.53,49.53,0,0,0,107,80.3a49,49,0,0,0,3.73-18.86h0a48.93,48.93,0,0,0-9.08-28.51ZM24,93.5,93.5,24A49.32,49.32,0,0,0,24,93.5Z"/></svg>