<svg id="Layer_1" data-name="Layer 1" xmlns="http://www.w3.org/2000/svg" viewBox="0 0 122.88 122.88"><defs><style>.cls-1{fill:#fff;}.cls-2{fill:#d92d27;}</style></defs><title>no-high-speed</title><path class="cls-1" d="M98.92,29.38,29.39,98.92a49.25,49.25,0,0,0,66.92-2.61,49.23,49.23,0,0,0,2.61-66.93ZM21.2,90,90,21.2a49.24,49.24,0,0,0-63.38,5.37A49,49,0,0,0,12.13,61.44h0A49.12,49.12,0,0,0,21.2,90Z"/><path d="M59.57,59.68,75.81,49.34a.26.26,0,0,1,.36,0L77.74,51a.29.29,0,0,1,0,.38L65.45,65.71c-1.75,1.88-3.61,2.25-5.12,1.76a4.23,4.23,0,0,1-1.9-1.28,4.46,4.46,0,0,1-1-2,4.35,4.35,0,0,1,2.12-4.45Zm-22,30.19a34.61,34.61,0,0,1-4.66-5.38A34.86,34.86,0,0,1,61.44,29.61,34.67,34.67,0,0,1,86.06,39.84a35.11,35.11,0,0,1,7.6,11.34,34.57,34.57,0,0,1-3.17,32.49A36.4,36.4,0,0,1,86.18,89a.3.3,0,0,1-.4,0L84,87.21a.21.21,0,0,1-.1-.06l-4.86-4.86a.28.28,0,0,1,0-.4l2.55-2.55a.3.3,0,0,1,.4,0l3.75,3.76A31.64,31.64,0,0,0,88,79.86a30.35,30.35,0,0,0,4.17-14.75H87a.28.28,0,0,1-.28-.28V61.22a.28.28,0,0,1,.28-.28h5a30.25,30.25,0,0,0-2.68-9.41,31.06,31.06,0,0,0-5.57-8.16L80.35,46.7a.28.28,0,0,1-.4,0l-2.54-2.55a.28.28,0,0,1,0-.4l3.2-3.2a30.7,30.7,0,0,0-8.44-4.83,30.31,30.31,0,0,0-9.5-1.92v4.56a.3.3,0,0,1-.29.29H58.77a.29.29,0,0,1-.28-.29V33.92a30.44,30.44,0,0,0-9.39,2.43,31.05,31.05,0,0,0-8.19,5.28L44.25,45a.3.3,0,0,1,0,.4L41.7,47.91a.28.28,0,0,1-.4,0L38,44.62a30.59,30.59,0,0,0-5.09,8.43,31.11,31.11,0,0,0-2.13,9.61h5.12a.29.29,0,0,1,.29.28v3.61a.29.29,0,0,1-.29.29H30.82a31.1,31.1,0,0,0,.77,4.87,30,30,0,0,0,1.65,5,31,31,0,0,0,2.07,4A29,29,0,0,0,37.74,84l4.11-4.11a.27.27,0,0,1,.39,0l2.55,2.55a.28.28,0,0,1,0,.4c-2.35,2.35-4.59,4.6-6.86,7a.27.27,0,0,1-.39,0Z"/><path class="cls-2" d="M61.44,122.88A61.31,61.31,0,1,0,38,118.22a61.29,61.29,0,0,0,23.49,4.66ZM101.68,90,32.93,21.2a49.44,49.44,0,0,1,47.38-5.34A49.53,49.53,0,0,1,107,42.58a49,49,0,0,1,3.73,18.86h0A48.93,48.93,0,0,1,101.68,90ZM24,29.38,93.5,98.92A49.32,49.32,0,0,1,24,29.38Z"/></svg>