<svg id="Layer_1" data-name="Layer 1" xmlns="http://www.w3.org/2000/svg" viewBox="0 0 122.88 122.88"><defs><style>.cls-1{fill-rule:evenodd;}.cls-2{fill:#d92d27;}</style></defs><title>no-ice-cream</title><path class="cls-1" d="M58.17,101.71,42.83,61.28c13.68-.63,20.36.1,35.67,0l-16,40.43ZM68.75,34.12c-.15-1.76-1.74-3-3.18-4.08a15.86,15.86,0,0,1-1.83-1.55c-1.37-1.43-1.89-3-.11-5.12a10.3,10.3,0,0,0-4.05-.11,8.59,8.59,0,0,0-3.73,1.65,7.52,7.52,0,0,0-2.4,3.25,9.86,9.86,0,0,0-.38,5.51,1,1,0,0,1-.8,1.13h0a7.34,7.34,0,0,0-2.14.66,5.82,5.82,0,0,0-2.65,2.7,6.87,6.87,0,0,0-.52,4,9.11,9.11,0,0,0,1,2.88,1,1,0,0,1-.43,1.31.83.83,0,0,1-.22.08,6.75,6.75,0,0,0-3.41,2,4.63,4.63,0,0,0-1.06,2.09A5.06,5.06,0,0,0,42.9,53a9.2,9.2,0,0,0,3,4.28H76.7a6.47,6.47,0,0,0,2.86-2.86,6.68,6.68,0,0,0,.53-4,7.81,7.81,0,0,0-1.74-3.78,6.76,6.76,0,0,0-3.85-2.3h0A36.53,36.53,0,0,0,70.17,46c-4.52,2-9.68,4.19-14.55,1.77a1,1,0,0,1-.43-1.31A1,1,0,0,1,56.53,46c4,2,8.72,0,12.84-1.81a36.7,36.7,0,0,1,4.51-1.75,6.34,6.34,0,0,0-.53-4.57,6.08,6.08,0,0,0-3.25-2.36A13.55,13.55,0,0,1,65,38.39a7.88,7.88,0,0,1-5.24-.27,1,1,0,0,1-.5-1.28,1,1,0,0,1,1.31-.49,5.82,5.82,0,0,0,3.9.16,11.08,11.08,0,0,0,4.27-2.39ZM55.91,30.83a.76.76,0,1,1-.77.76.76.76,0,0,1,.77-.76Zm4.83,20.24a.86.86,0,1,1-.88.86.87.87,0,0,1,.88-.86ZM49.68,49.54a.86.86,0,1,1-.88.86.88.88,0,0,1,.88-.86Zm24.94.83a.86.86,0,1,1-.88.86.87.87,0,0,1,.88-.86Zm-18,3.21a.49.49,0,0,1,.06-.68.5.5,0,0,1,.69.06l1.13,1.31a.49.49,0,0,1-.06.68.5.5,0,0,1-.69-.06l-1.13-1.31ZM45.53,52.05a.48.48,0,0,1,.06-.67.49.49,0,0,1,.69.06l1.13,1.31a.48.48,0,0,1-.06.67.49.49,0,0,1-.69-.06l-1.13-1.31Zm25,.84a.48.48,0,0,1,.06-.68.49.49,0,0,1,.68.06l1.13,1.31a.48.48,0,0,1-.06.68.5.5,0,0,1-.69-.06l-1.12-1.31ZM66.81,28.51c1.71,1.31,3.59,2.76,3.9,5.2a7.93,7.93,0,0,1,4.35,3.21,8,8,0,0,1,.8,5.79,8.73,8.73,0,0,1,4,2.71,9.73,9.73,0,0,1,2.18,4.71,8.57,8.57,0,0,1-.7,5.13,8.39,8.39,0,0,1-3.9,3.84,1,1,0,0,1-.52.14H45.49a1,1,0,0,1-.64-.23A11.28,11.28,0,0,1,41,53.53a6.93,6.93,0,0,1-.14-3.4,6.52,6.52,0,0,1,1.49-3,8.31,8.31,0,0,1,3.33-2.27A11.17,11.17,0,0,1,45,42.45a8.75,8.75,0,0,1,.69-5.11,7.85,7.85,0,0,1,3.54-3.6A9.1,9.1,0,0,1,51,33.08a11.5,11.5,0,0,1,.62-5.62,9.66,9.66,0,0,1,3-4.07,10.52,10.52,0,0,1,4.61-2,12.45,12.45,0,0,1,6.58.63,1,1,0,0,1,.37.24,1,1,0,0,1,0,1.38c-1.88,1.72-1.73,2.71-.93,3.55a16.48,16.48,0,0,0,1.63,1.35ZM58,92.18l-1.51-4.06,9.6-2.18L64.2,90.77,58,92.18Zm-3.09-8.33-1.51-4.06L69.9,76,68,80.87l-13.15,3Zm-3.09-8.32-1.5-4.07,23.44-5.32L71.87,71,51.79,75.53Z"/><path class="cls-2" d="M61.44,0A61.31,61.31,0,1,1,38,4.66,61.29,61.29,0,0,1,61.44,0Zm40.24,32.93L32.93,101.68A49.44,49.44,0,0,0,80.31,107,49.53,49.53,0,0,0,107,80.3a49,49,0,0,0,3.73-18.86h0a48.93,48.93,0,0,0-9.08-28.51ZM24,93.5,93.5,24A49.32,49.32,0,0,0,24,93.5Z"/></svg>