<svg id="Layer_1" data-name="Layer 1" xmlns="http://www.w3.org/2000/svg" viewBox="0 0 122.88 122.88"><defs><style>.cls-1{fill:#fff;}.cls-2{fill:#d92d27;}</style></defs><title>no-knife</title><path class="cls-1" d="M101.68,32.93,32.92,101.68a49.29,49.29,0,0,0,77.83-40.24h0a49.12,49.12,0,0,0-9.08-28.51ZM24,93.5,93.49,24A49.31,49.31,0,0,0,24,93.5Z"/><path d="M46.37,57l1.19-1.14-6.93-6.59,4.67-8.08c16.89,15.87,31.31,31,47.64,48.2a.92.92,0,0,1,0,1.3.93.93,0,0,1-.94.2h0a100.17,100.17,0,0,1-17.67-8.07c-9.35-5.53-20-16.44-28-24.45A.93.93,0,0,1,46.37,57ZM39.06,47.7,36.33,45,41,36.86l2.71,2.73L39.06,47.7Zm-4.29-4.22L30.34,39.2c-2-2.93,1-8.11,5.05-7.1a5.84,5.84,0,0,1,3,2.09L39.5,35.3l-4.73,8.18Z"/><path class="cls-2" d="M61.44,0A61.31,61.31,0,1,1,38,4.66,61.29,61.29,0,0,1,61.44,0Zm40.24,32.93L32.93,101.68A49.44,49.44,0,0,0,80.31,107,49.53,49.53,0,0,0,107,80.3a49,49,0,0,0,3.73-18.86h0a48.93,48.93,0,0,0-9.08-28.51ZM24,93.5,93.5,24A49.32,49.32,0,0,0,24,93.5Z"/></svg>