<svg id="Layer_1" data-name="Layer 1" xmlns="http://www.w3.org/2000/svg" viewBox="0 0 122.88 122.88"><defs><style>.cls-1{fill:#fff;}.cls-2{fill-rule:evenodd;}.cls-3{fill:#d92d27;}</style></defs><title>no-magnet</title><path class="cls-1" d="M98.92,29.38,29.39,98.92a49.25,49.25,0,0,0,66.92-2.61,49.23,49.23,0,0,0,2.61-66.93ZM21.2,90,90,21.2a49.24,49.24,0,0,0-63.38,5.37A49,49,0,0,0,12.13,61.44h0A49.12,49.12,0,0,0,21.2,90Z"/><path class="cls-2" d="M75.29,65a.64.64,0,0,0,.9,0l9.12-9.13a.63.63,0,0,0,0-.89l-5-4.94-10,10c2.36,2.37,2.59,2.58,4.94,4.94Zm-8,20.55a2,2,0,1,1-.7-3.92,19.66,19.66,0,0,0,9.84-5.57,22.84,22.84,0,0,0,6.17-10.34,2,2,0,0,1,3.89,1,26.88,26.88,0,0,1-7.26,12.22,23.54,23.54,0,0,1-11.94,6.65Zm2.35,8a2,2,0,1,1-.7-3.92c4.74-.86,9.45-3.7,13.32-7.53a30.71,30.71,0,0,0,8.33-13.94,2,2,0,0,1,3.88.94A34.74,34.74,0,0,1,85.05,85c-4.4,4.35-9.85,7.6-15.42,8.6Zm4.84-49.43L65.7,35.42a23.11,23.11,0,0,0-6.33-4.53,16.63,16.63,0,0,0-7.29-1.67,15.94,15.94,0,0,0-6.71,1.33,28.75,28.75,0,0,0-8.11,5.95A61.42,61.42,0,0,0,32.42,42a19.14,19.14,0,0,0-3.36,6,16.62,16.62,0,0,0-.64,6.26A14.58,14.58,0,0,0,30,60.13a27.42,27.42,0,0,0,4.56,6.42l8.78,8.76,10-10-8.72-8.73A8,8,0,0,1,42,51a7.72,7.72,0,0,1,2.59-5.59,7.78,7.78,0,0,1,5.54-2.59,8,8,0,0,1,5.64,2.71l8.72,8.72,10-10Zm-25.21,37L54,85.88l.24.24a.64.64,0,0,0,.9,0l9.08-9.08a.63.63,0,0,0,0-.89l-.25-.25-4.69-4.7-10,10Z"/><path class="cls-3" d="M61.44,122.88a61.31,61.31,0,1,1,23.49-4.66,61.29,61.29,0,0,1-23.49,4.66ZM21.2,90,90,21.2a49.44,49.44,0,0,0-47.38-5.34A49.53,49.53,0,0,0,15.86,42.58a49,49,0,0,0-3.73,18.86h0A48.93,48.93,0,0,0,21.2,90ZM98.92,29.38,29.38,98.92A49.32,49.32,0,0,0,98.92,29.38Z"/></svg>