<svg id="Layer_1" data-name="Layer 1" xmlns="http://www.w3.org/2000/svg" viewBox="0 0 122.88 122.88"><defs><style>.cls-1{fill:#fff;}.cls-2{fill-rule:evenodd;}.cls-3{fill:#d92d27;}</style></defs><title>no-soda-drinks</title><path class="cls-1" d="M21.2,32.93,90,101.68A49.29,49.29,0,0,1,12.13,61.44h0A49.12,49.12,0,0,1,21.2,32.93ZM98.92,93.5,29.39,24a49.25,49.25,0,0,1,66.92,2.61A49.23,49.23,0,0,1,98.92,93.5Z"/><path class="cls-1" d="M24,29.38,93.49,98.92A49.31,49.31,0,0,1,24,29.38ZM101.68,90,32.92,21.2A49.24,49.24,0,0,1,96.3,26.57a49,49,0,0,1,14.45,34.87h0A49.12,49.12,0,0,1,101.68,90Z"/><path class="cls-2" d="M54.8,99.52c-7.32.62-7.63-4.11-5.76-9.12,3.85-10.36-5.1-25.85,2.67-43.33C54.6,40,56.42,37,56.42,29.29c-3.7-.2-4.42-5.57-.41-5.87,1.78-.13,9.11-.21,10.67,0,4,.53,3.57,5.42-.52,5.87,0,7.7,2,10.74,4.86,17.78,7.7,17.32-1,32.66,2.57,43,1.74,5,2.85,10.12-5.66,9.41Zm6.56-41.81A4.4,4.4,0,1,1,57,62.11a4.39,4.39,0,0,1,4.39-4.4ZM50.69,70.66a53,53,0,0,1,.78-17.1h20a53,53,0,0,1,.77,17.1Z"/><path class="cls-3" d="M61.44,122.88A61.31,61.31,0,1,0,38,118.22a61.29,61.29,0,0,0,23.49,4.66ZM101.68,90,32.93,21.2a49.44,49.44,0,0,1,47.38-5.34A49.53,49.53,0,0,1,107,42.58a49,49,0,0,1,3.73,18.86h0A48.93,48.93,0,0,1,101.68,90ZM24,29.38,93.5,98.92A49.32,49.32,0,0,1,24,29.38Z"/></svg>