<svg id="Layer_1" data-name="Layer 1" xmlns="http://www.w3.org/2000/svg" viewBox="0 0 122.88 122.88"><defs><style>.cls-1{fill:#fff;}.cls-2{fill:#d92d27;}</style></defs><title>no-shopping-zone</title><path class="cls-1" d="M24,93.5,93.49,24A49.31,49.31,0,0,0,24,93.5Zm77.72-60.57L32.92,101.68a49.29,49.29,0,0,0,77.83-40.24h0a49.12,49.12,0,0,0-9.08-28.51Z"/><path d="M30.82,40.52a2.19,2.19,0,0,1,0-4.38H34a10.23,10.23,0,0,1,5.28,1.38c2.9,1.84,3.42,4.47,4.16,7.44H92.05a2.17,2.17,0,0,1,2.17,2.17,3,3,0,0,1-.11.66L88.45,70.61a2.14,2.14,0,0,1-2.11,1.66H50.81c.78,2.88,1.55,4.44,2.61,5.16,1.27.83,3.49.89,7.21.83H85.78a2.17,2.17,0,1,1,0,4.33H60.69c-4.61.06-7.44,0-9.72-1.55s-3.55-4.22-4.77-9h0L38.76,43.85c0-.05,0-.05,0-.11A3.91,3.91,0,0,0,37,41.24a5.65,5.65,0,0,0-3-.72H30.82ZM79.29,85.15A5.33,5.33,0,1,1,74,90.48a5.33,5.33,0,0,1,5.33-5.33Zm-23.37,0a5.33,5.33,0,1,1-5.33,5.33,5.33,5.33,0,0,1,5.33-5.33Z"/><path class="cls-2" d="M61.44,0A61.31,61.31,0,1,1,38,4.66,61.29,61.29,0,0,1,61.44,0Zm40.24,32.93L32.93,101.68A49.44,49.44,0,0,0,80.31,107,49.53,49.53,0,0,0,107,80.3a49,49,0,0,0,3.73-18.86h0a48.93,48.93,0,0,0-9.08-28.51ZM24,93.5,93.5,24A49.32,49.32,0,0,0,24,93.5Z"/></svg>