<svg id="Layer_1" data-name="Layer 1" xmlns="http://www.w3.org/2000/svg" viewBox="0 0 122.88 122.88"><defs><style>.cls-1{fill:#fff;}.cls-2{fill:#d92d27;}</style></defs><title>no-selfie</title><path class="cls-1" d="M97.26,95.33,31.3,22.4a49.31,49.31,0,0,1,66,72.93Z"/><path class="cls-1" d="M22.68,31,87.9,103.06A49.29,49.29,0,0,1,12.19,59h0a49.06,49.06,0,0,1,10.5-28Z"/><path d="M62,83.93l3.11-6,3.12,3.44-2.94,5.73a5.67,5.67,0,0,1-7.44,7.42L40.74,87.21l0,19-.38-.18A49.57,49.57,0,0,1,15,78v0c1.71-3.74,6.57-6.41,10.71-6.29l4.55.14a11.71,11.71,0,0,1,4.75,1,5.55,5.55,0,0,1,1.86.44L62,83.93Zm9-17.57,7.52-14.64H76.11a.45.45,0,0,1-.45-.45V48.59H67.93a3.26,3.26,0,0,1-3.26-3.25V34.71a3.26,3.26,0,0,1,3.26-3.25h7.73V30.24a.45.45,0,0,1,.45-.45h8.94a.45.45,0,0,1,.45.45v1.22h8.22A3.24,3.24,0,0,1,97,34.71h0V45.34a3.24,3.24,0,0,1-3.25,3.25H85.5v2.68a.45.45,0,0,1-.45.45H83.47L74.17,69.8l-3.11-3.44ZM22.42,46.73a12.43,12.43,0,1,1-4.55,17,12.42,12.42,0,0,1,4.55-17ZM67.5,38.08A1.48,1.48,0,1,0,69,39.56a1.47,1.47,0,0,0-1.48-1.48Zm2.42-5.49V47.46h23V32.59Z"/><path class="cls-2" d="M64.52.08A61.45,61.45,0,0,0,35.14,117,61.44,61.44,0,1,0,64.52.08ZM22.68,31,87.9,103.06A49.29,49.29,0,0,1,12.19,59h0a49.06,49.06,0,0,1,10.5-28ZM97.26,95.33,31.3,22.4a49.31,49.31,0,0,1,66,72.93Z"/></svg>