<svg id="Layer_1" data-name="Layer 1" xmlns="http://www.w3.org/2000/svg" viewBox="0 0 122.88 122.88"><defs><style>.cls-1{fill:#fff;}.cls-2{fill-rule:evenodd;}.cls-3{fill:#d92d27;}</style></defs><title>no-skating</title><path class="cls-1" d="M21.2,32.93,90,101.68A49.29,49.29,0,0,1,12.13,61.44h0A49.12,49.12,0,0,1,21.2,32.93ZM98.92,93.5,29.39,24a49.25,49.25,0,0,1,66.92,2.61A49.23,49.23,0,0,1,98.92,93.5Z"/><path class="cls-2" d="M33.58,79.79H87.46l5.32-5H72.21l.11-3-10.06,3c-11.38-.69-21.86,1.08-34.13-2.06l5.45,7Z"/><path d="M72.36,65.1q1.5-8.08,6.38-11.48c3.14-2.19,7.29-2.91,12.47-2.22V36.25h-26a20.75,20.75,0,0,1-3.69,10.46,20.3,20.3,0,0,1-8.55,6.61,18.17,18.17,0,0,1-8.07,1.77l-1,0a14.94,14.94,0,0,1,3.33,5.46A18.43,18.43,0,0,1,48,68.52c5.18-.18,10.58-.73,16.15-1.39a45.92,45.92,0,0,0,8.18-2l.06,0ZM92.84,36.25V64.48a.82.82,0,0,1,.08.35V74.5a.82.82,0,0,1-.82.81H73a.82.82,0,0,1-.82-.81V72.05a67.33,67.33,0,0,1-20.69,4,73.88,73.88,0,0,1-22.76-2.73.82.82,0,0,1-.6-.78h0v-4.6a.81.81,0,0,1,.5-.75l.14-.08c.06-3.87,1.08-7,3.2-9.34s5.36-3.73,9.82-4.11c1.14-.09,2.14-.13,3-.16a16.77,16.77,0,0,0,7.48-1.64,18.74,18.74,0,0,0,7.89-6.07,19.25,19.25,0,0,0,3.37-9.51H63a1.48,1.48,0,0,1-1-.44,1.43,1.43,0,0,1-.43-1V30.88A1.47,1.47,0,0,1,63,29.4H93.31a1.43,1.43,0,0,1,1,.43,1.48,1.48,0,0,1,.44,1.05v3.89a1.5,1.5,0,0,1-1.48,1.48ZM91.21,53Q83.91,52,79.67,55c-2.73,1.91-4.57,5.1-5.54,9.61a37.21,37.21,0,0,1,4.35-1.07,24.1,24.1,0,0,1,7-.08,38.59,38.59,0,0,1,5.74,1.21V53ZM41.62,55.28c-3.89.36-6.67,1.59-8.49,3.56s-2.72,4.78-2.77,8.23v0a64.59,64.59,0,0,0,15.77,1.47h.19a17,17,0,0,0-.72-7.44,13.41,13.41,0,0,0-4-5.84Zm49.67,11a37,37,0,0,0-6-1.31,22.69,22.69,0,0,0-6.53.07,45.56,45.56,0,0,0-5.95,1.58,47.14,47.14,0,0,1-8.48,2.07c-6.25.74-12.3,1.35-18.14,1.45a65.61,65.61,0,0,1-16.45-1.58v3.28A72,72,0,0,0,51.39,74.4,65.75,65.75,0,0,0,72.6,70.15a.86.86,0,0,1,.36-.08.81.81,0,0,1,.81.81v2.8H91.29V66.33ZM68,37.32a2.31,2.31,0,0,1,1.66.69,2.35,2.35,0,0,1,.69,1.67A2.36,2.36,0,0,1,68,42a2.36,2.36,0,0,1-2.36-2.35A2.39,2.39,0,0,1,66.34,38h0A2.35,2.35,0,0,1,68,37.32Zm.51,1.84A.72.72,0,0,0,68,39a.76.76,0,0,0-.52.21h0a.74.74,0,0,0,0,1,.76.76,0,0,0,.52.21.72.72,0,0,0,.51-.21.71.71,0,0,0,0-1Zm-2.31,4a2.31,2.31,0,0,1,1.66.69,2.35,2.35,0,0,1,0,3.33h0a2.34,2.34,0,0,1-3.32,0h0a2.35,2.35,0,0,1,0-3.33l.06,0a2.31,2.31,0,0,1,1.61-.64ZM66.72,45a.72.72,0,0,0-.51-.21.76.76,0,0,0-.49.18l0,0a.74.74,0,0,0-.21.52.72.72,0,0,0,.21.51.74.74,0,0,0,.52.21.72.72,0,0,0,.51-.21h0a.73.73,0,0,0,.22-.51.75.75,0,0,0-.22-.52Zm-3.38,2.78a2.36,2.36,0,0,1,2.35,2.35A2.35,2.35,0,0,1,65,51.81s0,0,0,0a2.35,2.35,0,0,1-1.61.64,2.39,2.39,0,0,1-1.67-.69A2.35,2.35,0,0,1,61,50.14a2.31,2.31,0,0,1,.69-1.66,2.35,2.35,0,0,1,1.67-.69Zm.51,1.84a.73.73,0,0,0-1.24.51.74.74,0,0,0,.21.52.72.72,0,0,0,.52.21.75.75,0,0,0,.48-.18l0,0a.74.74,0,0,0,.21-.52.72.72,0,0,0-.21-.51Zm-4.7,1.84a2.36,2.36,0,0,1,1.66.68h0a2.37,2.37,0,0,1,0,3.34l-.05,0a2.38,2.38,0,0,1-3.28,0l0-.06a2.35,2.35,0,0,1,1.72-4Zm.52,1.83a.76.76,0,0,0-.52-.21.73.73,0,0,0-.52.22.72.72,0,0,0-.21.51.76.76,0,0,0,.18.49l0,0a.76.76,0,0,0,.52.21.71.71,0,0,0,.49-.19l0,0a.73.73,0,0,0,.22-.52.69.69,0,0,0-.22-.51Z"/><path class="cls-2" d="M43.94,82.11a2.61,2.61,0,1,1-2.6,2.6,2.6,2.6,0,0,1,2.6-2.6Z"/><path d="M43.94,75.94a8.77,8.77,0,1,1-6.2,2.57,8.74,8.74,0,0,1,6.2-2.57Zm3.55,5.22a5,5,0,0,0-7.1,0,5,5,0,0,0,3.55,8.57,5,5,0,0,0,3.55-8.57Z"/><path class="cls-2" d="M80.41,82.11a2.61,2.61,0,1,1-2.6,2.6,2.6,2.6,0,0,1,2.6-2.6Z"/><path d="M80.41,75.94a8.77,8.77,0,1,1-6.2,2.57,8.72,8.72,0,0,1,6.2-2.57ZM84,81.16a5,5,0,1,0,1.47,3.55A5,5,0,0,0,84,81.16Z"/><path class="cls-3" d="M61.44,0A61.31,61.31,0,1,0,84.93,4.66,61.29,61.29,0,0,0,61.44,0ZM21.2,32.93,90,101.68A49.44,49.44,0,0,1,42.57,107,49.53,49.53,0,0,1,15.86,80.3a49,49,0,0,1-3.73-18.86h0A48.93,48.93,0,0,1,21.2,32.93ZM98.92,93.5,29.38,24A49.32,49.32,0,0,1,98.92,93.5Z"/></svg>