<svg xmlns="http://www.w3.org/2000/svg" shape-rendering="geometricPrecision" text-rendering="geometricPrecision" image-rendering="optimizeQuality" fill-rule="evenodd" clip-rule="evenodd" viewBox="0 0 512 512"><path fill-rule="nonzero" d="M34.78 172.57h160.63l49.61-152.68c-60.9 2.79-115.8 28.61-156.16 68.97-23.52 23.53-42.11 52-54.08 83.71zm232.2-152.68 49.61 152.68h160.63c-11.97-31.71-30.56-60.18-54.08-83.71-40.36-40.36-95.26-66.18-156.16-68.97zM484 193.45l-129.95 94.42 49.62 152.7c6.81-5.45 13.31-11.27 19.47-17.43 42.77-42.78 69.23-101.87 69.23-167.14 0-21.65-2.92-42.62-8.37-62.55zm-98.09 260.04L256 359.11l-129.91 94.38c37.27 24.58 81.92 38.88 129.91 38.88 47.99 0 92.64-14.3 129.91-38.88zm-277.58-12.92 49.62-152.7L28 193.45c-5.45 19.93-8.37 40.9-8.37 62.55 0 65.27 26.46 124.36 69.23 167.14 6.16 6.16 12.66 11.98 19.47 17.43zM437.02 74.98C483.35 121.31 512 185.31 512 256c0 70.69-28.65 134.69-74.98 181.02C390.69 483.35 326.69 512 256 512c-70.69 0-134.69-28.65-181.02-74.98C28.65 390.69 0 326.69 0 256c0-70.69 28.65-134.69 74.98-181.02C121.31 28.65 185.31 0 256 0c70.69 0 134.69 28.65 181.02 74.98zm-221.01 97.59h79.98L256 49.5l-39.99 123.07zm236.35 19.64H322.97l24.71 76.05 104.68-76.05zm-149.99 0h-92.74l-28.64 88.16 75.01 54.5 75.01-54.5-28.64-88.16zm-113.34 0H59.64l104.68 76.05 24.71-76.05zm148.35 107.77-64.7 47.01 104.69 76.06-39.99-123.07zM134.63 423.05l104.69-76.06-64.7-47.01-39.99 123.07z"/></svg>