<svg xmlns="http://www.w3.org/2000/svg" shape-rendering="geometricPrecision" text-rendering="geometricPrecision" image-rendering="optimizeQuality" fill-rule="evenodd" clip-rule="evenodd" viewBox="0 0 512 512"><path fill="#fff" fill-rule="nonzero" d="m431.89 115.78-316.11 316.1c38.46 30.7 87.2 49.05 140.22 49.05 62.11 0 118.35-25.18 159.05-65.89 40.7-40.7 65.88-96.93 65.88-159.04 0-51.12-17.15-100.27-49.04-140.22zM92.87 410.86 410.86 92.87c-40.32-38.29-94.84-61.8-154.86-61.8-62.12 0-118.35 25.18-159.05 65.88-40.7 40.7-65.88 96.93-65.88 159.05 0 60.01 23.51 114.53 61.8 154.86z"/><path d="m244.66 92.77 102.79 27.54a34.973 34.973 0 0 1 21.3 16.36c4.51 7.83 6 17.32 3.5 26.62l-61.93 231.14c-2.51 9.36-8.6 16.87-16.34 21.3-7.84 4.53-17.32 6.01-26.63 3.52L164.56 391.7c-9.36-2.5-16.87-8.6-21.3-16.35-4.52-7.82-6.01-17.31-3.52-26.62l61.95-231.19c2.51-9.35 8.6-16.87 16.35-21.31 7.82-4.51 17.26-5.97 26.62-3.46zM381.7 224.32c-2.16-3.62-.98-8.32 2.64-10.49s8.32-.99 10.49 2.64l17.57 29.3c2.17 3.62.99 8.32-2.63 10.49l-.49.26-21.46 10.88 13.31 18.69c2.45 3.44 1.64 8.22-1.8 10.67-.34.24-.69.45-1.05.63l-21.98 10.93 13.31 22.82c2.12 3.65.87 8.34-2.79 10.46l-.42.23-29.76 17.71c-3.63 2.15-8.31.96-10.46-2.67a7.62 7.62 0 0 1 2.67-10.45l23.72-14.12-13.62-23.35-.24-.45c-1.87-3.79-.32-8.38 3.47-10.25l21.29-10.58-13.13-18.43a7.655 7.655 0 0 1 2.64-11.48l22.07-11.18-13.35-22.26zm-226.15-71.97c3.69-2.05 8.34-.72 10.4 2.97a7.64 7.64 0 0 1-2.97 10.39l-22.69 12.61 13.54 20.75c2.3 3.54 1.29 8.28-2.25 10.58-.39.25-.8.47-1.22.64l-20.58 9.39 13.17 19.84c2.33 3.53 1.36 8.28-2.16 10.61l-.43.26-23.42 13.4 13.48 24.08c2.07 3.69.75 8.36-2.94 10.43-3.69 2.07-8.36.75-10.43-2.94l-17.16-30.65c-2.1-3.67-.83-8.36 2.85-10.46l22.92-13.1-13.59-20.47c-.21-.34-.4-.68-.57-1.05-1.75-3.84-.06-8.38 3.78-10.13l20.88-9.53-13.18-20.18-.27-.45a7.651 7.651 0 0 1 2.97-10.4l29.87-16.59zM225.73 369c7.67 2.06 12.28 9.91 10.2 17.67-2.06 7.68-9.91 12.29-17.67 10.21a14.431 14.431 0 0 1-9.89-9.13c-.93-2.65-1.11-5.6-.32-8.55 2.05-7.66 9.91-12.28 17.68-10.2zm-74.05-31.21L305.46 379l57.57-214.89-153.78-41.21-57.57 214.89z"/><path fill="#D92D27" fill-rule="nonzero" d="M256 0c70.69 0 134.69 28.65 181.02 74.98C483.34 121.31 512 185.31 512 256c0 70.69-28.66 134.69-74.98 181.02C390.7 483.35 326.69 512 256 512c-70.69 0-134.69-28.65-181.02-74.98C28.65 390.69 0 326.69 0 256c0-70.69 28.65-134.69 74.98-181.02C121.31 28.65 185.31 0 256 0zm175.89 115.78-316.11 316.1c38.46 30.7 87.19 49.05 140.22 49.05 62.11 0 118.35-25.18 159.05-65.88 40.7-40.71 65.88-96.94 65.88-159.05 0-51.12-17.15-100.27-49.04-140.22zM92.87 410.86 410.86 92.87c-40.32-38.29-94.84-61.8-154.86-61.8-62.12 0-118.35 25.18-159.05 65.88-40.7 40.7-65.88 96.93-65.88 159.05 0 60.01 23.51 114.53 61.8 154.86z"/></svg>