<svg id="Layer_1" data-name="Layer 1" xmlns="http://www.w3.org/2000/svg" viewBox="0 0 122.88 122.5"><title>reconciliation-sign</title><path d="M53.82,26.4c.16,4.32,0,9,0,13.33H69.06V26.4A26.92,26.92,0,1,1,96,53.82H83.15V68.68H96A26.91,26.91,0,1,1,69.06,96.11V82.77H53.82V96.11A26.91,26.91,0,1,1,26.91,68.68H39.73V53.82H26.91A26.91,26.91,0,1,1,53.82,26.4ZM83.15,82.77V95.59A12.82,12.82,0,1,0,96,82.77ZM69.06,53.82H53.82V68.68H69.06V53.82ZM83.15,27V39.73H96A12.83,12.83,0,1,0,83.15,26.91V27ZM39.73,95.5V82.77H26.91A12.83,12.83,0,1,0,39.73,95.59V95.5Zm0-55.77V26.91A12.83,12.83,0,1,0,26.91,39.73Z"/></svg>