<svg xmlns="http://www.w3.org/2000/svg" shape-rendering="geometricPrecision" text-rendering="geometricPrecision" image-rendering="optimizeQuality" fill-rule="evenodd" clip-rule="evenodd" viewBox="0 0 503 511.51"><path fill-rule="nonzero" d="m70.53 42.33 46.75 46.76 29.13-29.13 29.93 29.93-29.13 29.12 16.42 16.42c24.91-20.5 56.83-32.82 91.62-32.82 32.87 0 63.18 11 87.44 29.5l89.78-89.78h-48.12V0H503v121.68h-42.33v-47.7l-88.43 88.44c17.19 23.75 27.33 52.95 27.33 84.51 0 39.85-16.16 75.94-42.27 102.05-22 22-51.09 36.94-83.54 41.09v35.32h62.82v42.33h-62.82v43.79h-42.33v-43.79h-62.82v-42.33h62.82v-36.1c-30.31-5.04-57.43-19.52-78.22-40.31-26.12-26.11-42.27-62.2-42.27-102.05 0-29.63 8.93-57.17 24.25-80.09l-17.91-17.9-30.06 30.07-29.93-29.93 30.07-30.07-45.03-45.03v47.7H0V0h118.65v42.33H70.53zm256.84 132.48c-18.45-18.45-43.96-29.87-72.12-29.87-28.16 0-53.66 11.42-72.11 29.87-18.46 18.46-29.88 43.96-29.88 72.12 0 28.17 11.42 53.67 29.88 72.12 18.45 18.45 43.95 29.87 72.11 29.87 28.16 0 53.67-11.42 72.12-29.87 18.46-18.45 29.87-43.95 29.87-72.12 0-28.16-11.41-53.66-29.87-72.12z"/></svg>