<svg xmlns="http://www.w3.org/2000/svg" shape-rendering="geometricPrecision" text-rendering="geometricPrecision" image-rendering="optimizeQuality" fill-rule="evenodd" clip-rule="evenodd" viewBox="0 0 372 512.58"><path fill-rule="nonzero" d="m324.14 83.42-56.51 56.51c16.69 23.85 26.48 52.88 26.48 84.2 0 40.6-16.46 77.38-43.07 103.98-21.88 21.88-50.62 36.89-82.71 41.54v30.13h60.04c13.21 0 23.93 10.71 23.93 23.92 0 13.22-10.72 23.93-23.93 23.93h-60.04v41.02c0 13.22-10.72 23.93-23.93 23.93-13.22 0-23.93-10.71-23.93-23.93v-41.02H60.43c-13.22 0-23.93-10.71-23.93-23.93 0-13.21 10.71-23.92 23.93-23.92h60.04v-31c-29.95-5.47-56.74-20.01-77.4-40.67C16.46 301.51 0 264.74 0 224.13c0-40.61 16.46-77.38 43.07-103.99 26.61-26.6 63.38-43.07 103.98-43.07 32.63 0 62.77 10.62 87.16 28.6l57.81-57.81h-41.41c-13.22 0-23.93-10.71-23.93-23.93C226.68 10.71 237.39 0 250.61 0h97.46C361.28 0 372 10.71 372 23.93v100.5c0 13.21-10.72 23.92-23.93 23.92-13.22 0-23.93-10.71-23.93-23.92V83.42zM217.2 153.99c-17.95-17.95-42.75-29.06-70.15-29.06-27.39 0-52.19 11.11-70.14 29.06-17.95 17.94-29.05 42.75-29.05 70.14s11.1 52.2 29.05 70.14c17.95 17.95 42.75 29.06 70.14 29.06 27.4 0 52.2-11.11 70.15-29.06 17.95-17.94 29.05-42.75 29.05-70.14s-11.1-52.2-29.05-70.14z"/></svg>