<?xml version="1.0" encoding="utf-8"?><svg version="1.1" id="Layer_1" xmlns="http://www.w3.org/2000/svg" xmlns:xlink="http://www.w3.org/1999/xlink" x="0px" y="0px" viewBox="0 0 122.88 105.9" style="enable-background:new 0 0 122.88 105.9" xml:space="preserve"><style type="text/css"><![CDATA[
	.st0{fill-rule:evenodd;clip-rule:evenodd;}
]]></style><g><path class="st0" d="M104.26,0c10.28,0,18.62,8.33,18.62,18.62c0,8.96-6.33,16.44-14.76,18.21c0.02,0.14,0.02,0.28,0.02,0.42v5.3 l7.28-0.96c2.45-0.32,4.7,1.41,5.02,3.86c0.32,2.45-1.41,4.7-3.86,5.02l-51.07,6.71l11.31,40.56h6.25c2.25,0,4.08,1.84,4.08,4.08 l0,0c0,2.25-1.84,4.08-4.08,4.08l-42.66,0c-2.25,0-4.08-1.84-4.08-4.08l0,0c0-2.25,1.84-4.08,4.08-4.08h6.22l9.4-39.31L8.66,64.66 c-2.45,0.32-4.7-1.41-5.02-3.86c-0.32-2.45,1.41-4.7,3.86-5.02l7.38-0.97v-5.78c0-0.12,0.01-0.24,0.02-0.36 C6.4,46.94,0,39.42,0,30.41C0,20.13,8.33,11.8,18.62,11.8c10.28,0,18.62,8.33,18.62,18.62c0,9.06-6.48,16.61-15.05,18.27 c0.01,0.11,0.02,0.22,0.02,0.33v4.82l78.65-10.33v-6.26c0-0.11,0.01-0.22,0.02-0.33c-8.65-1.6-15.21-9.19-15.21-18.3 C85.65,8.33,93.98,0,104.26,0L104.26,0L104.26,0z M104.26,11.6c3.83,0,6.94,3.1,6.94,6.94s-3.11,6.94-6.94,6.94 s-6.93-3.1-6.93-6.94S100.43,11.6,104.26,11.6L104.26,11.6z M18.71,23.51c3.83,0,6.93,3.1,6.93,6.94c0,3.83-3.1,6.93-6.93,6.93 c-3.83,0-6.94-3.1-6.94-6.93C11.78,26.61,14.88,23.51,18.71,23.51L18.71,23.51z"/></g></svg>