<?xml version="1.0" encoding="utf-8"?><svg version="1.1" id="Layer_1" xmlns="http://www.w3.org/2000/svg" xmlns:xlink="http://www.w3.org/1999/xlink" x="0px" y="0px" viewBox="0 0 65.61 122.88" style="enable-background:new 0 0 65.61 122.88" xml:space="preserve"><g><path d="M44.3,19.33l-4.91,3.27l0.72,6.17c0.18-0.4,0.38-0.77,0.61-1.13c1.06-1.65,2.65-2.83,4.72-3.58 c0.06-0.02,0.12-0.04,0.19-0.05l0,0l8.36-1.21c1.36-0.2,1.6-0.24,1.58-0.43c-0.03-0.2-0.08-0.46-0.15-0.77 c-0.06-0.27-0.12-0.57-0.19-0.92c-0.33,0.08-0.65,0.15-0.98,0.2c-0.68,0.11-1.34,0.15-2,0.12c-0.71-0.03-1.4-0.14-2.09-0.32 c-0.64-0.17-1.27-0.4-1.89-0.7L44.3,19.33L44.3,19.33z M16.92,87.34l-8.09,1.17l4.69,32.4l2.59-0.37l3.17-5.27 c0.03-0.05,0.05-0.09,0.09-0.13c1.27-1.58,2.03-2.93,2.14-3.99c0.08-0.82-0.34-1.48-1.39-1.95c-0.07-0.03-0.14-0.07-0.21-0.12 l-1.7-1.27l0,0c-0.2-0.15-0.34-0.38-0.37-0.65C17.15,100.14,16.95,93.91,16.92,87.34L16.92,87.34z M1.95,40.92l13.93-2.02 c0.01-0.17,0.07-0.33,0.18-0.48c1.7-2.31,3.59-4.4,5.68-6.27c2.09-1.86,4.39-3.5,6.91-4.91l0,0c0.14-0.08,0.3-0.12,0.47-0.12 c0.51,0.01,0.92,0.43,0.91,0.94l-0.23,10.27l1.93-0.28l0,0c0.03-0.01,0.05-0.01,0.08-0.01l7.39-1.07L37.53,22.7 c-0.02-0.04-0.03-0.09-0.04-0.13c-0.23-0.88-0.82-1.6-1.58-2.07c-0.49-0.31-1.04-0.51-1.61-0.61c-0.57-0.09-1.16-0.08-1.72,0.07 l0,0l0,0c-0.84,0.22-1.62,0.74-2.18,1.6c-0.03,0.05-0.06,0.1-0.1,0.14c-0.32,0.4-0.91,0.46-1.3,0.14c-1.5-1.22-2.66-2.63-3.5-4.23 c-0.76-1.47-1.25-3.09-1.47-4.85l-5.17-0.93c-1.88-0.04-3.44,0.35-4.67,1.19c-1.24,0.85-2.18,2.18-2.8,4l0,0 c-0.01,0.02-0.02,0.05-0.03,0.07l-3.74,8.5l0,0l-0.01,0.01c-0.7,1.53-1.5,2.94-2.3,4.34C3.33,33.44,1.42,36.79,1.95,40.92 L1.95,40.92z M44.12,17.43c2.41-1.76,5.56-3.99,5.87-3.7c2.69,2.5,5.99-2.16,3.94-4.74l4.11-2.9C57.73,5.69,57.3,5.32,56.73,5 c-0.67-0.37-1.53-0.68-2.64-0.89l0,0c-0.11-0.02-0.23-0.07-0.33-0.13l-2.53-1.64c-0.13-0.07-0.24-0.17-0.32-0.3 c-0.02,0.01-0.04,0.02-0.07,0.03c-0.09,0.04-0.17,0.08-0.26,0.14l0,0c-0.06,0.04-0.12,0.06-0.18,0.09 c-2.39,0.83-3.78,0.25-4.75-0.15c-0.39-0.16-0.56-0.23-1.06,1.4l-1.1,3.58l0,0c-0.01,0.03-0.02,0.06-0.03,0.09 c-0.17,0.39-0.43,0.74-0.79,1.04c-0.32,0.26-0.71,0.49-1.18,0.67l-7.19,3.61c-0.02,0.01-0.04,0.02-0.06,0.03 c-1.42,0.74-2.96,1.08-4.58,1.1c-1.18,0.01-2.41-0.15-3.67-0.45c0.22,1.27,0.61,2.45,1.18,3.53c0.58,1.11,1.34,2.12,2.3,3.02 c0.76-0.83,1.68-1.35,2.66-1.61l0,0c0.82-0.21,1.67-0.24,2.49-0.11c0.82,0.13,1.61,0.43,2.3,0.87c0.75,0.47,1.39,1.11,1.85,1.88 l4.83-3.22l0,0C43.73,17.48,43.92,17.43,44.12,17.43L44.12,17.43z M39.4,38.78l-6.48,0.94l5.23,28.96l12.12,1.54l-0.02-0.12 c-0.67-4.87-0.76-5.49-7.05-5.76c-0.47,0.01-0.88-0.34-0.93-0.82L39.4,38.78L39.4,38.78z M40.79,34.7l3.23,27.84 c7.1,0.35,7.23,1.3,8.07,7.32c0.05,0.37,0.1,0.76,0.19,1.31c0.07,0.51-0.28,0.98-0.79,1.05c-0.11,0.02-0.21,0.01-0.31-0.01 l-13.93-1.77c-0.42-0.05-0.74-0.38-0.8-0.78L31.1,40.03l-2.12,0.31c-0.51,0.07-0.98-0.28-1.05-0.79c-0.01-0.07-0.01-0.14-0.01-0.21 l0.22-9.64c-1.85,1.14-3.57,2.42-5.17,3.85c-1.8,1.6-3.44,3.37-4.92,5.31c6.5,6.16,4.9,11.7,2.95,18.43 c-1,3.46-2.09,7.25-2.12,11.59c-0.01,2.66-0.04,5.17-0.06,7.58c-0.1,10.88-0.18,19.64,0.82,30.1l1.29,0.96 c1.84,0.85,2.57,2.14,2.41,3.79c-0.14,1.43-1.03,3.1-2.5,4.93l-3.38,5.62c-0.15,0.25-0.4,0.4-0.66,0.44v0l-3.94,0.57 c-0.51,0.07-0.98-0.28-1.05-0.79L6.98,88.6L0.18,41.67l0-0.01c-0.83-4.97,1.3-8.71,3.53-12.62c0.78-1.36,1.56-2.74,2.22-4.18l0,0 l3.72-8.46c0.76-2.2,1.93-3.83,3.5-4.91c1.57-1.08,3.52-1.58,5.83-1.51c0.06,0,0.11,0.01,0.17,0.02l5.99,1.08 c0.04,0.01,0.07,0.02,0.11,0.03l0,0c1.54,0.48,3.01,0.74,4.39,0.73c1.33-0.02,2.58-0.29,3.74-0.9c0.03-0.01,0.06-0.03,0.08-0.04 l7.24-3.64c0.03-0.02,0.06-0.03,0.09-0.04l0,0c0.29-0.11,0.52-0.24,0.69-0.37c0.12-0.1,0.2-0.2,0.26-0.31L42.82,3 c1.1-3.56,1.86-3.25,3.54-2.56c0.69,0.28,1.68,0.69,3.35,0.14c0.14-0.08,0.27-0.15,0.39-0.2c0.03-0.01,0.06-0.02,0.09-0.03 c0.48-0.2,0.89-0.22,1.24-0.14c0.44,0.1,0.74,0.35,0.95,0.67l2.24,1.45c1.23,0.25,2.22,0.61,3.02,1.06c0.88,0.49,1.52,1.09,2,1.76 l0,0l0,0c1.18,1.68,1.95,3.51,2.19,5.43c0.21,1.66,0.01,3.38-0.65,5.12l3.22,5.12l0,0l0,0c0.97,1.56,1.37,3.26,1.15,4.88 c-0.21,1.59-1,3.09-2.39,4.3c-2.12,1.84-4.07,2.1-6.45,2.41c-0.29,0.04-0.59,0.08-1.05,0.14L40.79,34.7L40.79,34.7z"/></g></svg>