<?xml version="1.0" encoding="utf-8"?><svg version="1.1" id="Layer_1" xmlns="http://www.w3.org/2000/svg" xmlns:xlink="http://www.w3.org/1999/xlink" x="0px" y="0px" viewBox="0 0 122.88 71.01" style="enable-background:new 0 0 122.88 71.01" xml:space="preserve"><g><path d="M24.46,20.51c-1.42-2.68-3.3-6.32-2.96-6.6c2.88-2.32-1.29-6.28-4.15-4.61l-2.36-4.63c-0.47,0.27-0.91,0.65-1.33,1.19 c-0.47,0.62-0.9,1.44-1.28,2.5c-0.03,0.11-0.09,0.21-0.17,0.3l-2.01,2.3c-0.09,0.12-0.22,0.21-0.38,0.26 c0.01,0.04,0.02,0.1,0.04,0.19c0.02,0.08,0.05,0.16,0.09,0.25c0.03,0.07,0.06,0.14,0.07,0.21c0.47,2.45-0.29,3.73-0.81,4.62 c-0.26,0.45-0.38,0.65,1.29,1.44l3.41,1.62l0,0c0.03,0.01,0.05,0.03,0.08,0.04c0.35,0.22,0.65,0.51,0.88,0.9 c0.21,0.35,0.38,0.77,0.49,1.26l2.57,7.71l0.01,0.03c0.53,1.51,0.65,3.06,0.43,4.66c-0.16,1.23-0.53,2.49-1.05,3.75 c1.35-0.02,2.62-0.23,3.82-0.64c1.28-0.44,2.48-1.1,3.59-2c-0.76-0.88-1.16-1.89-1.28-2.92c-0.09-0.83,0-1.66,0.25-2.44 c0.24-0.77,0.65-1.5,1.17-2.12c0.6-0.7,1.35-1.26,2.22-1.58l-2.55-5.36C24.5,20.74,24.46,20.63,24.46,20.51L24.46,20.51z M121.89,67.28c0.59,0.35,0.99,0.99,0.99,1.72c0,1.1-0.9,2-2,2L2,70.52c-1.1,0-2-0.9-2-2c0-1.1,0.9-2,2-2l35.45,0.14 c-2.7-0.97-4.97-2.73-7.3-4.55c-1.24-0.96-2.5-1.94-3.85-2.82l-7.93-4.95c-2.04-1.06-3.47-2.43-4.3-4.12 c-0.84-1.7-1.05-3.69-0.66-5.94c0.01-0.06,0.03-0.12,0.05-0.18l1.87-5.61c0.01-0.06,0.03-0.11,0.05-0.16l0-0.01 c0.01-0.03,0.02-0.06,0.04-0.09l0,0c0.71-1.48,1.18-2.92,1.37-4.3c0.18-1.35,0.08-2.66-0.36-3.92l-0.02-0.05l-2.59-7.77 c-0.01-0.03-0.02-0.05-0.02-0.08l0,0c-0.07-0.32-0.17-0.58-0.29-0.78c-0.09-0.15-0.2-0.27-0.32-0.35l-3.37-1.6 c-3.27-1.55-2.87-2.22-1.99-3.71c0.39-0.67,0.96-1.63,0.63-3.43c-0.06-0.15-0.11-0.28-0.14-0.4c-0.15-0.52-0.12-0.93,0.01-1.27 c0.16-0.4,0.44-0.65,0.77-0.79l1.81-2.06c0.43-1.19,0.92-2.12,1.47-2.84c0.6-0.79,1.28-1.34,2-1.71l0.01,0 c1.82-0.92,3.73-1.42,5.66-1.38c1.69,0.03,3.37,0.48,5,1.4l5.62-2.5l0,0l0,0c1.67-0.73,3.39-0.88,4.94-0.44 c1.52,0.43,2.88,1.42,3.87,2.95c1.51,2.34,1.48,4.3,1.45,6.69c0,0.24-0.01,0.48-0.01,1.07v14.93l27.78,0.05l1.3-2.02l0.05-0.09 c1.5-2.34,2.12-3.31,3.15-3.74c0.73-0.31,1.46-0.26,2.71-0.17c0.77,0.05,1.76,0.12,3.12,0.12c0.44,0,0.8,0.36,0.8,0.8 c0,0.11-0.02,0.22-0.07,0.32l-2.89,8.58c-2.03,6.01-2.3,6-6.73,5.88c-1.02-0.03-2.3-0.06-3.93,0l-21.38,0.77v2.28 c0,0.44-0.36,0.8-0.8,0.8c-0.06,0-0.13-0.01-0.19-0.02l-9.81-1.65c0.89,2.1,1.96,4.08,3.19,5.94c1.36,2.06,2.92,3.98,4.68,5.78 c6.82-5.38,12.77-2.96,19.89-0.05c3.64,1.49,7.6,3.1,12.14,3.79c2.11,0.32,1.34,0.59,3.04,0.85c10.86,1.67,19.61,3.02,30.17,3.53 l1.2-1.2c0.64-0.99,1.4-1.58,2.26-1.81c0.88-0.24,1.83-0.08,2.81,0.42c1.28,0.64,3.59,2.88,5.63,4.84c1.14,1.1,2.19,2.12,2.89,2.69 c0.19,0.16,0.29,0.39,0.29,0.62h0v3.41C122.24,66.9,122.1,67.14,121.89,67.28L121.89,67.28z M26.24,20.02l-0.05,0.52l2.53,5.32 l6.51,0.01c-0.4-0.25-0.78-0.52-1.12-0.82c-1.47-1.28-2.4-3.01-2.84-5.15c-0.01-0.05-0.02-0.11-0.02-0.16h0v-8.51 c0-1.5-0.02-1.76-0.32-1.76c-0.23,0-0.49,0.02-0.8,0.04c-0.31,0.02-0.68,0.05-1.09,0.06c0.05,0.38,0.07,0.75,0.08,1.13 c0.01,0.68-0.05,1.35-0.17,1.99c-0.13,0.69-0.34,1.35-0.62,2c-0.26,0.6-0.58,1.19-0.96,1.77L26.24,20.02L26.24,20.02z M87.55,57.34 v8.48h33.08v-2.23c-0.71-0.61-1.67-1.54-2.69-2.53c-1.96-1.89-4.18-4.04-5.23-4.57c-0.63-0.32-1.2-0.43-1.68-0.3 c-0.48,0.13-0.93,0.5-1.34,1.15c-0.04,0.07-0.08,0.13-0.14,0.19l-1.51,1.51l0,0c-0.15,0.15-0.37,0.24-0.6,0.23 C100.33,58.95,94.1,58.25,87.55,57.34L87.55,57.34z M41.65,65.82V51.39c-0.13-0.03-0.25-0.1-0.36-0.2c-2.05-2.02-3.86-4.2-5.4-6.54 c-1.55-2.35-2.85-4.87-3.88-7.57l0,0c-0.05-0.13-0.07-0.27-0.04-0.42c0.07-0.44,0.49-0.73,0.92-0.66l10.35,1.74v-2 c-0.01-0.06-0.02-0.12-0.02-0.19v-8.05l-14.55-0.03c-0.06,0.02-0.12,0.03-0.18,0.04c-0.95,0.11-1.78,0.61-2.38,1.32 c-0.38,0.45-0.68,0.99-0.86,1.57c-0.18,0.57-0.25,1.18-0.18,1.78c0.1,0.91,0.53,1.81,1.36,2.52c0.03,0.02,0.06,0.05,0.08,0.08 c0.3,0.32,0.28,0.83-0.04,1.13c-1.45,1.35-3.05,2.3-4.79,2.89c-1.55,0.53-3.22,0.76-4.98,0.72l-1.7,5.1 c-0.32,1.9-0.16,3.55,0.52,4.92c0.68,1.37,1.87,2.51,3.6,3.41c0.04,0.02,0.07,0.03,0.11,0.06l7.93,4.95l0,0l0.01,0.01 c1.4,0.9,2.7,1.91,3.98,2.91C34.35,63.35,37.43,65.75,41.65,65.82L41.65,65.82z M44.82,27.5v7.3l21.35-0.77 c1.68-0.06,2.99-0.02,4.03,0c3.32,0.09,3.52,0.1,5.17-4.79l2.56-7.6c-0.85-0.02-1.54-0.07-2.12-0.11 c-1.01-0.07-1.61-0.11-1.99,0.05c-0.56,0.24-1.11,1.08-2.42,3.12l-0.05,0.09l-1.53,2.39l0,0c-0.14,0.22-0.39,0.37-0.67,0.37 L44.82,27.5L44.82,27.5z"/></g></svg>