<?xml version="1.0" encoding="utf-8"?><svg version="1.1" id="Layer_1" xmlns="http://www.w3.org/2000/svg" xmlns:xlink="http://www.w3.org/1999/xlink" x="0px" y="0px" viewBox="0 0 35.69 122.88" style="enable-background:new 0 0 35.69 122.88" xml:space="preserve"><style type="text/css">.st0{fill-rule:evenodd;clip-rule:evenodd;}</style><g><path class="st0" d="M17.91,17.35c-0.57-2.43-0.99-5.87-0.19-6.44c2.71-1.93,1.01-5.43-1.82-5.03c-0.59-1.37-0.83-2.84-0.58-4.43 c-0.4,0.08-0.81,0.23-1.24,0.48c-0.58,0.34-1.2,0.86-1.85,1.61c-0.06,0.07-0.13,0.12-0.21,0.16l0,0l-1.47,0.74 c-0.25,0.13-0.47,0.21-0.68,0.28C9.51,4.87,9.24,4.98,9.25,5.43c0,0.05,0,0.1-0.01,0.15l0,0C8.82,7.68,7.79,8.46,7.09,9 C6.73,9.27,6.57,9.39,7.6,10.52l3.41,2.72c0.06,0.04,0.1,0.1,0.14,0.15c0.2,0.28,0.34,0.61,0.4,0.98l0,0.03 c0.05,0.34,0.05,0.71-0.02,1.12l-0.45,7.03l0,0.04c-0.12,1.55-2.11,3.95-4.23,6.21c1.01,0.41,1.86,0.66,2.71,0.74 c0.8,0.07,1.62-0.02,2.57-0.31c0.01-0.11,0.03-0.22,0.06-0.32l0,0c0.67-2.12,1.61-3.48,2.88-4.4c1.18-0.85,2.57-1.25,4.26-1.46 c-0.41-1.86-0.87-3.7-1.38-5.51C17.91,17.48,17.91,17.42,17.91,17.35L17.91,17.35z M24.25,55.13c8.87,8.74-1.88,15.32-2.72,25.17 c-0.59,6.88-2.66,12.49-3.43,17.94h-0.08c0.01,0.04,0.01,0.07,0.01,0.11c0,0.05-0.01,0.1-0.01,0.14c-0.21,1.52-0.35,3.49-0.44,5.68 c-0.25,5.73-0.3,6.05-0.42,11.79c0.67,0.41,1.08,1.06,1.29,1.8c0.18,0.64,0.2,1.35,0.1,2.01c-0.09,0.66-0.31,1.29-0.59,1.77 c-0.37,0.61-0.87,1-1.47,1.03l-0.04,0l-13.61,0.3c-0.35,0.01-0.65-0.25-0.7-0.6l-0.46-2.94c-0.05-0.34,0.15-0.65,0.46-0.76l0,0 l6.1-2.05V98.35c0-0.04,0-0.07,0.01-0.11H8.22c0-15.2-5.19-24.58-0.63-40.76c-0.02-0.06-0.04-0.12-0.04-0.19l-0.82-8.76l-4.61-6.36 c-1.29-1.51-1.99-3.07-2.1-4.69c-0.12-1.63,0.36-3.28,1.4-4.95l0,0c0.02-0.03,0.04-0.06,0.06-0.08c0.58-0.68,1.43-1.56,2.39-2.53 c2.52-2.59,5.74-5.9,5.83-7.42l0-0.02l0.45-7.05c0-0.03,0-0.06,0.01-0.09c0.05-0.27,0.06-0.51,0.03-0.7l0-0.02 c-0.02-0.13-0.06-0.25-0.12-0.35l-3.36-2.68l0,0c-0.03-0.02-0.05-0.05-0.08-0.07c-2.1-2.29-1.57-2.7-0.38-3.6 c0.53-0.41,1.3-0.99,1.62-2.54c0-1.35,0.67-1.6,1.53-1.92c0.18-0.07,0.37-0.14,0.53-0.22l1.35-0.68c0.72-0.81,1.42-1.39,2.1-1.79 c0.72-0.42,1.41-0.64,2.08-0.71c0.02,0,0.04-0.01,0.07-0.01c1.75-0.15,3.44,0.08,4.96,0.73c1.33,0.57,2.53,1.47,3.54,2.74 l5.29-0.17v0l0,0c1.57-0.04,2.99,0.4,4.09,1.25l0,0l0,0c1.07,0.84,1.84,2.06,2.13,3.6c0.44,2.36-0.21,3.91-1.02,5.81 c-0.09,0.21-0.19,0.44-0.35,0.85l-5.06,12.46l0,0c-0.01,0.02-0.02,0.04-0.03,0.07c-0.18,0.34-0.6,0.46-0.93,0.28 c-1.93-1.03-3.24-2.3-3.99-3.77c-0.75-1.48-0.93-3.14-0.61-4.98c0.01-0.06,0.02-0.12,0.05-0.18l2.76-6.79 c0.49-1.2,0.56-1.42,0.31-1.52c-0.16-0.06-0.38-0.14-0.65-0.23c-0.25-0.08-0.55-0.18-0.89-0.3c-0.09,0.32-0.19,0.63-0.3,0.92 c-0.21,0.55-0.47,1.06-0.78,1.53c-0.33,0.51-0.71,0.97-1.14,1.4c-0.41,0.4-0.86,0.77-1.35,1.11l-1.35,1.62l-0.68,1.66 c0.48,1.78,0.91,3.58,1.3,5.41c0.13,0.18,0.22,0.39,0.24,0.63l0,0.04h0l0.08,0.93c0.68,3.44,1.21,6.96,1.63,10.57 c0.73,6.19,1.13,12.64,1.42,19.34C24.26,55.08,24.28,55.11,24.25,55.13L24.25,55.13z M8.73,55.2c0.6-0.11,1.7-0.19,3.03-0.26 c0.29-1.09,0.61-2.21,0.93-3.31c0.85-2.91,1.66-5.69,1.51-6.87c0-0.02,0-0.04-0.01-0.06l-1.92-14.08c-1.03,0.29-1.94,0.38-2.85,0.3 c-1.14-0.1-2.25-0.47-3.61-1.04c-0.33,0.34-0.65,0.68-0.97,1c-0.91,0.94-1.74,1.79-2.29,2.43c-0.87,1.41-1.27,2.77-1.17,4.09 c0.09,1.33,0.69,2.63,1.8,3.92c0.01,0.01,0.03,0.03,0.04,0.05l0,0l4.72,6.52c0.09,0.12,0.13,0.25,0.13,0.39L8.73,55.2L8.73,55.2z M12.18,60.22c0.02,0.23,0.06,0.45,0.12,0.63l4.73,2.66c0.75-2.71,1.57-5.26,2.24-8.1c2.65-11.45,1.76-16.16,0.49-31.08 c-3.22,0.36-5.17,1.33-6.32,4.99l2.08,15.29C15.87,47.48,12.08,56.38,12.18,60.22L12.18,60.22z M20.76,54.82 c0.79,0.02,1.5,0.04,2.06,0.07c-0.15-3.46-0.34-6.86-0.58-10.19C22.08,47.78,21.63,50.91,20.76,54.82L20.76,54.82z M16.21,104.12 c0.08-1.9,0.19-3.64,0.36-5.08H9.63v17.99h0c0,0.29-0.18,0.56-0.47,0.65l-6.02,2.02l0.28,1.78l13.01-0.29l0.01,0 c0.09,0,0.21-0.15,0.35-0.37c0.2-0.32,0.34-0.77,0.41-1.25c0.07-0.49,0.06-1-0.07-1.44c-0.14-0.5-0.42-0.92-0.9-1.1l0,0 c-0.27-0.1-0.45-0.36-0.45-0.66C15.9,110.49,15.95,110,16.21,104.12L16.21,104.12z"/></g></svg>