<?xml version="1.0" encoding="utf-8"?><svg version="1.1" id="Layer_1" xmlns="http://www.w3.org/2000/svg" xmlns:xlink="http://www.w3.org/1999/xlink" x="0px" y="0px" viewBox="0 0 122.88 26.18" style="enable-background:new 0 0 122.88 26.18" xml:space="preserve"><g><path d="M65.04,23.53c6.73-0.3,13.23-0.71,19.49-1.45c3.92-0.46,7.75-1.04,11.48-1.8l0-0.01l0-0.02L85.24,21.6 c-8.51,1.06-13.99,0.75-20.12-0.44C65.1,22.08,65.07,22.89,65.04,23.53L65.04,23.53z M103.61,18.46c2.5-0.59,6.05-1.02,6.64-0.19 c1.99,2.8,5.6,1.04,5.18-1.87c1.16-0.5,2.93-0.76,4.55-0.69c-0.08-0.38-0.24-0.78-0.48-1.19c-0.35-0.6-0.89-1.23-1.66-1.91 c-0.07-0.06-0.13-0.13-0.17-0.21l0,0c-0.14-0.28-0.27-0.6-0.41-0.93c-0.38-0.91-0.81-1.95-1.35-1.94c-0.05,0-0.1,0-0.15-0.01l0,0 c-2.17-0.43-2.97-1.49-3.53-2.22c-0.28-0.36-0.41-0.53-1.58,0.53l-2.8,3.51c-0.05,0.06-0.1,0.11-0.16,0.15 c-0.29,0.21-0.62,0.35-1.01,0.41l-0.03,0c-0.35,0.05-0.73,0.05-1.15-0.02l-7.25-0.47c-0.01,0-0.03,0-0.04,0 c-1.6-0.12-4.07-2.18-6.4-4.37c-0.42,1.04-0.68,1.92-0.76,2.79c-0.09,0.97,0.06,1.95,0.49,3.17c1.9,0.7,3.42,1.76,4.44,2.97 c1.03,1.23,1.56,2.62,1.49,3.98c2.01-0.44,4-0.93,5.96-1.48C103.49,18.47,103.55,18.46,103.61,18.46L103.61,18.46z M121.45,15.88 c0.11,0.02,0.23,0.05,0.34,0.07c5.04,5.22-8.59,15.8-15.37,6.6c-0.07-0.1-0.15-0.2-0.22-0.32l-1.37-1.14 c-0.62-0.35-1.3-0.66-2-0.96c-5.8,1.57-11.84,2.62-18.12,3.36c-7.23,0.85-14.5,1.1-21.71,1.67c-20.22,1.59-29.77-4.48-41.83-6.38 c-0.78-0.12-1.26-0.23-2.1-0.32c-1.9-0.19-4.3-0.27-6.89-0.35c-1.77-0.05,0.3-0.11-1.49-0.21l-3.86-0.21 c-0.42,0.69-1.09,1.1-1.85,1.32c-0.66,0.18-1.39,0.2-2.07,0.11c-0.68-0.1-1.33-0.32-1.83-0.61c-0.63-0.38-1.03-0.9-1.06-1.51 l0-0.03h0V3.2c0-0.34,0.24-0.63,0.56-0.7l2.67-0.75c0.38-0.11,0.77,0.11,0.87,0.49l2.11,6.26H20.1c0.08,0,0.16,0.01,0.23,0.04V8.47 c15.65,0,25.32-5.34,41.97-0.67l0,0c0.04-0.01,0.09-0.02,0.14-0.03l9.03-0.84l6.56-4.75c1.56-1.33,3.17-2.05,4.83-2.17 c1.68-0.12,3.38,0.37,5.11,1.45l0,0c0.03,0.02,0.06,0.04,0.09,0.06c0.7,0.6,1.6,1.48,2.61,2.46c2.67,2.6,6.09,5.92,7.65,6.02 l0.02,0l7.27,0.47c0.03,0,0.07,0,0.1,0.01c0.28,0.05,0.52,0.06,0.72,0.03l0.02,0c0.14-0.02,0.26-0.07,0.36-0.13l2.76-3.46l0,0 c0.02-0.03,0.05-0.06,0.08-0.08c2.36-2.17,2.78-1.61,3.71-0.4c0.42,0.55,1.02,1.34,2.62,1.67c1.44,0.03,2.06,1.51,2.6,2.82 c0.1,0.25,0.2,0.49,0.31,0.71c0.83,0.74,1.43,1.46,1.84,2.16C121.14,14.51,121.37,15.2,121.45,15.88L121.45,15.88z M95.32,17.48 c-0.13-0.2-0.27-0.39-0.43-0.59c-0.84-1-2.09-1.88-3.67-2.49l-15.59,2.13c-0.01,0-0.03,0.01-0.04,0.01 c-1.58,0.19-4.64-0.7-7.83-1.63c-1.37-0.4-2.76-0.8-4.05-1.13l0,0.01c-0.5-0.12-0.98-0.23-1.45-0.34l0-0.01 c-1.52-0.32-2.79-0.46-3.55-0.25l-4.89,4.19l1.18,0.3c3.01,0.76,5.64,1.43,8.1,1.97c0.39,0.08,0.79,0.17,1.18,0.25v0 c6.48,1.34,12,1.73,20.84,0.64l10.61-1.33C95.62,18.54,95.5,17.97,95.32,17.48L95.32,17.48z M90.19,13.46 c-0.49-1.41-0.66-2.57-0.56-3.74c0.1-1.18,0.48-2.32,1.08-3.72c-0.35-0.34-0.7-0.67-1.03-1c-0.97-0.94-1.84-1.79-2.5-2.36 c-1.45-0.9-2.86-1.31-4.21-1.21c-1.37,0.1-2.72,0.71-4.04,1.85c-0.02,0.01-0.03,0.03-0.05,0.04l0,0L72.15,8.2 c-0.12,0.09-0.26,0.13-0.4,0.13l-7.04,0.66c0.13,0.75,0.24,2.24,0.31,4.03c0.99,0.27,2.02,0.57,3.03,0.86 c3.08,0.9,6.04,1.76,7.41,1.59l0.02,0L90.19,13.46L90.19,13.46z M12.19,16.71c2.71,0.08,5.23,0.16,7.2,0.37V9.93H5.71v0 c-0.3,0-0.57-0.19-0.67-0.48L2.97,3.31L1.42,3.74v13.22c0.02,0.09,0.16,0.21,0.38,0.34c0.34,0.2,0.79,0.35,1.29,0.42 c0.5,0.07,1.03,0.06,1.49-0.07c0.51-0.14,0.94-0.43,1.13-0.93c0.1-0.29,0.38-0.48,0.7-0.47l4.32,0.23 C12.57,16.6,10.46,16.65,12.19,16.71L12.19,16.71z"/></g></svg>