<svg id="Layer_1" data-name="Layer 1" xmlns="http://www.w3.org/2000/svg" viewBox="0 0 122.88 103.05"><defs><style>.cls-1{fill:#38ae48;fill-rule:evenodd;}.cls-2{fill:#1a1a1a;}</style></defs><title>health-and-fitness</title><path class="cls-1" d="M61.07,10.49C66,5.39,69.38,1,76.91.12,91-1.5,104.05,13,96.91,27.22c-2,4.06-6.17,8.89-10.75,13.62C81.14,46,75.58,51.13,71.69,55L61.07,65.53,52.3,57.08C41.74,46.92,24.53,34.12,24,18.27,23.57,7.17,32.33.05,42.41.18c9,.12,12.79,4.6,18.66,10.31ZM47.94,31.33a3.42,3.42,0,0,1,4.73-4.93l5.2,5L70.23,19.9l.42.32-.42-.32a.57.57,0,0,1,.11-.11A3.46,3.46,0,0,1,72.76,19h0A3.39,3.39,0,0,1,76,22.56h0v0a3.41,3.41,0,0,1-1.1,2.28L60.19,38.59h0a.34.34,0,0,1-.09.08,3.4,3.4,0,0,1-4.61-.1l-7.55-7.24Z"/><path class="cls-2" d="M4.08,61.55H9.72l.44,0v-4h0c0-.06,0-.12,0-.18a4.07,4.07,0,0,1,4.07-3.88h5.64l.44,0v-4h0a4.08,4.08,0,0,1,4.07-4.07H30a4.1,4.1,0,0,1,4.07,4.07V99A4.08,4.08,0,0,1,30,103.05H24.21a4.07,4.07,0,0,1-2.7-1.18A4.14,4.14,0,0,1,20.32,99h0V95.55a3.11,3.11,0,0,1-.43,0H14.06a4.08,4.08,0,0,1-2.69-1.19,4,4,0,0,1-1.19-2.87h0V86.83l-.44,0H4.09a4,4,0,0,1-2.87-1.2A4,4,0,0,1,0,82.78L0,65.63a4.08,4.08,0,0,1,4.08-4.08ZM98.49,49h-5.7a.43.43,0,0,0-.26.13.44.44,0,0,0-.13.31h0V99a.48.48,0,0,0,.13.31.51.51,0,0,0,.31.13h5.7a.5.5,0,0,0,.26-.13.47.47,0,0,0,.14-.31h0q0-24.77,0-49.55h0a.43.43,0,0,0-.13-.31.42.42,0,0,0-.3-.13ZM81.32,69.32V79.87H42.15V69.31Zm37.48-4.13h-5.64a.44.44,0,0,0-.32.12.42.42,0,0,0-.12.26v.06h0V82.76h0v0a.44.44,0,0,0,.13.25.49.49,0,0,0,.31.13h5.64a.44.44,0,0,0,.32-.13.44.44,0,0,0,.13-.31h0V65.63h0a.44.44,0,0,0-.44-.44Zm-5.64-3.64h5.65a4.1,4.1,0,0,1,4.07,4.07h0V82.75h0a4.1,4.1,0,0,1-4.07,4.07h-5.64l-.44,0v4.68a4.07,4.07,0,0,1-1.2,2.87,4.11,4.11,0,0,1-2.88,1.2H103a3.15,3.15,0,0,1-.44,0V99h0A4.05,4.05,0,0,1,98.68,103H92.86A4.1,4.1,0,0,1,90,101.83,4.06,4.06,0,0,1,88.79,99l0-49.53h0A4.08,4.08,0,0,1,90,46.54a4,4,0,0,1,2.7-1.19h5.82a4.08,4.08,0,0,1,4.07,4.07h0v4.05a2.13,2.13,0,0,1,.44,0h5.65a4.1,4.1,0,0,1,2.88,1.19,4.06,4.06,0,0,1,1.19,2.88v4.05Zm-4.52-4.46H103a.4.4,0,0,0-.31.13.42.42,0,0,0-.13.3h0v34h0a.44.44,0,0,0,.43.44h5.65a.43.43,0,0,0,.31-.13.44.44,0,0,0,.13-.31v-34a.44.44,0,0,0-.13-.31.37.37,0,0,0-.31-.13ZM24,99h0a.41.41,0,0,0,.14.3.44.44,0,0,0,.25.14H30a.41.41,0,0,0,.31-.14.42.42,0,0,0,.13-.31V49.42a.4.4,0,0,0-.13-.31A.44.44,0,0,0,30,49H24.39a.49.49,0,0,0-.31.13.46.46,0,0,0-.13.31h0V99Zm-3.64-7.4v-34h0v-.06a.37.37,0,0,0-.12-.25.44.44,0,0,0-.32-.13H14.23a.45.45,0,0,0-.31.14.43.43,0,0,0-.13.25v.06h0v34h0a.44.44,0,0,0,.13.31.5.5,0,0,0,.26.13h5.7a.48.48,0,0,0,.43-.38ZM9.72,65.19H4.07a.43.43,0,0,0-.31.13.44.44,0,0,0-.13.31V82.76a.48.48,0,0,0,.13.31.51.51,0,0,0,.31.13H9.72a.44.44,0,0,0,.44-.44V65.62h0a.43.43,0,0,0-.13-.3.42.42,0,0,0-.3-.12Z"/></svg>