<svg id="Layer_1" data-name="Layer 1" xmlns="http://www.w3.org/2000/svg" viewBox="0 0 122.88 107.41"><defs><style>.cls-1{fill:#e5273a;fill-rule:evenodd;}</style></defs><title>healthy-food</title><path class="cls-1" d="M60.83,17.19c8-8.35,13.62-15.57,26-17C110-2.46,131.27,21.26,119.57,44.62c-3.34,6.65-10.11,14.56-17.61,22.32C95.34,73.79,88.15,80.53,82.27,86.2L66,67.66l8-10.13c13.77,6.66,33.38-20.25,20.19-31.41C83.34,16.94,60.94,36.9,67,51.89l-7.16,8.68-7.36-8.39a8.23,8.23,0,0,0,1.75-2.63c1.26-4.11.68-7.64-4.06-12.86L38.56,22.75c-1.65-1.93-5.53.9-3.9,3.24l9.26,11.42c1.75,2.13-1.51,5-3.31,2.76L31,28.36c-1.78-2.05-5.47.66-3.61,3,2.7,3.24,6.89,8.56,9.59,11.81a1.86,1.86,0,1,1-2.83,2.35L24.65,33.79c-1.39-1.52-3.67-.57-4.28,1.2s.95,3.27,2,4.68L33,53.39c3.29,3.81,7,6.08,11.26,4.8a10.56,10.56,0,0,0,2.32-1.13l7.85,10L38.72,86.16l-.09.12C21.77,70.91.82,52.28,0,30-.63,11.75,13.73.09,30.25.31,45,.5,51.22,7.84,60.83,17.19ZM75,93.32l-14.2,14.09L46.46,93.56,46,93.11c.12-.14.25-.28.37-.43l14.11-18L75,93.32Z"/></svg>