<?xml version="1.0" encoding="utf-8"?><svg version="1.1" id="Layer_1" xmlns="http://www.w3.org/2000/svg" xmlns:xlink="http://www.w3.org/1999/xlink" x="0px" y="0px" viewBox="0 0 122.88 96.52" style="enable-background:new 0 0 122.88 96.52" xml:space="preserve"><g><path d="M116.76,48.49l1.53-0.88l0,0c0.3-0.18,0.65-0.21,0.97-0.13c0.31,0.08,0.6,0.29,0.77,0.59v0l2.68,4.64l0,0l0,0 c0.17,0.3,0.21,0.65,0.12,0.96c-0.08,0.32-0.29,0.6-0.59,0.77l-1.53,0.88c-0.04,0.02-0.08,0.04-0.12,0.06l0.73,1.27 c0.18,0.3,0.21,0.65,0.13,0.97c-0.08,0.31-0.29,0.6-0.59,0.77l-1.53,0.88l0,0l0,0c-0.04,0.02-0.08,0.04-0.12,0.06l0.54,0.93l0,0 l0,0c0.18,0.3,0.21,0.65,0.13,0.96c-0.08,0.3-0.27,0.57-0.55,0.74c-0.01,0.01-0.03,0.02-0.05,0.03l-1.53,0.88 c-0.3,0.18-0.65,0.21-0.97,0.13c-0.32-0.08-0.6-0.29-0.77-0.59l-7.75-13.42c-0.18-0.3-0.21-0.65-0.13-0.97 c0.08-0.3,0.27-0.57,0.55-0.74c0.01-0.01,0.03-0.02,0.05-0.03l1.53-0.88l0,0l0,0c0.3-0.18,0.65-0.21,0.96-0.13 c0.32,0.08,0.6,0.29,0.77,0.59l0.63,1.1c0.04-0.03,0.08-0.05,0.12-0.08l1.53-0.88c0.3-0.18,0.65-0.21,0.97-0.13 c0.32,0.08,0.6,0.29,0.77,0.59l0.63,1.1C116.69,48.54,116.72,48.51,116.76,48.49L116.76,48.49L116.76,48.49z M108.79,56.4 c0.28-0.15,0.6-0.18,0.89-0.1c0.3,0.08,0.57,0.27,0.74,0.57l0,0c0.17,0.29,0.2,0.62,0.12,0.92c-0.08,0.3-0.27,0.57-0.57,0.74l0,0 l-5.07,2.93c-0.27,0.16-0.73,0.27-1.13,0.25c-0.39-0.02-0.75-0.15-0.93-0.46l0,0c-0.17-0.29-0.2-0.62-0.12-0.92 c0.08-0.3,0.28-0.57,0.57-0.74l5.48-3.16L108.79,56.4L108.79,56.4z M91.13,63.29l1.53-0.88c0.04-0.02,0.08-0.04,0.12-0.06 l-0.63-1.1c-0.01-0.02-0.02-0.03-0.03-0.05c-0.15-0.29-0.18-0.62-0.1-0.92c0.08-0.31,0.29-0.6,0.59-0.77l0,0l0,0l1.53-0.88 c0.04-0.02,0.08-0.04,0.12-0.06l-0.63-1.1c-0.18-0.3-0.21-0.65-0.13-0.97c0.08-0.31,0.29-0.6,0.59-0.77l0,0l0,0l1.53-0.88 c0.3-0.18,0.65-0.21,0.97-0.13c0.31,0.08,0.6,0.29,0.77,0.59l7.75,13.42c0.18,0.3,0.21,0.65,0.13,0.97 c-0.08,0.31-0.29,0.6-0.59,0.77l-1.53,0.88c-0.02,0.01-0.03,0.02-0.05,0.03c-0.29,0.15-0.62,0.18-0.92,0.1 c-0.31-0.08-0.6-0.29-0.77-0.59l0,0l0,0l-0.54-0.93c-0.04,0.03-0.07,0.05-0.11,0.07l0,0l0,0l-1.53,0.88 c-0.02,0.01-0.03,0.02-0.05,0.03c-0.29,0.15-0.62,0.18-0.92,0.1c-0.31-0.08-0.6-0.29-0.77-0.59l0,0l0,0l-0.73-1.27 c-0.04,0.03-0.08,0.05-0.12,0.08l-1.53,0.88c-0.3,0.18-0.65,0.21-0.97,0.13c-0.31-0.08-0.6-0.29-0.77-0.59l-2.68-4.64 c-0.18-0.3-0.21-0.65-0.13-0.97C90.62,63.75,90.83,63.47,91.13,63.29L91.13,63.29L91.13,63.29z M50.09,83.33 c3.27,9.62,16.94,9.98,20.01,0c3.62,3.25,14.32,3.91,18.3,6.13c1.26,0.7,2.4,1.6,3.31,2.8c0.61,0.81,1.43,2.31,2.05,3.98H26.42 c0.62-1.67,1.44-3.17,2.05-3.98c0.92-1.21,2.05-2.1,3.31-2.8C35.77,87.24,46.47,86.58,50.09,83.33L50.09,83.33L50.09,83.33z M47.58,63.39c-0.69,0.03-1.2,0.17-1.56,0.41c-0.2,0.14-0.35,0.31-0.45,0.52c-0.11,0.23-0.16,0.51-0.15,0.83 c0.03,0.94,0.52,2.17,1.47,3.59l0.01,0.02l0,0l3.09,4.92c1.24,1.97,2.54,3.98,4.16,5.46c1.55,1.42,3.44,2.38,5.93,2.39 c2.7,0.01,4.68-0.99,6.28-2.49c1.67-1.56,2.98-3.7,4.28-5.83l3.48-5.74c0.65-1.48,0.89-2.47,0.74-3.06 c-0.09-0.35-0.47-0.52-1.12-0.55c-0.14-0.01-0.28-0.01-0.42,0c-0.16,0-0.32,0.01-0.49,0.03c-0.09,0.01-0.18,0-0.27-0.02 c-0.31,0.02-0.63,0-0.96-0.05l1.19-4.79c-8.85,1.4-15.48-5.18-24.84-1.32l0.67,5.73C48.27,63.45,47.91,63.44,47.58,63.39 L47.58,63.39L47.58,63.39z M74.94,62.28c0.86,0.26,1.41,0.81,1.63,1.69c0.25,0.97-0.02,2.35-0.85,4.23l0,0 c-0.02,0.03-0.03,0.07-0.05,0.1l-3.53,5.81c-1.36,2.24-2.74,4.48-4.58,6.2c-1.91,1.78-4.26,2.97-7.47,2.97 c-3-0.01-5.26-1.15-7.11-2.85c-1.79-1.64-3.16-3.75-4.46-5.82l-3.09-4.92c-1.13-1.69-1.72-3.23-1.75-4.49 c-0.02-0.6,0.08-1.14,0.3-1.61c0.23-0.5,0.59-0.91,1.06-1.24c0.22-0.15,0.47-0.28,0.75-0.38c-0.2-2.67-0.28-5.54-0.15-8.35 c0.07-0.67,0.19-1.34,0.38-2c0.79-2.83,2.77-4.12,5.23-5.68c1.35-0.86,2.84-1.51,4.38-1.95c0.98-0.28-0.84-3.42,0.18-3.52 c4.91-0.5,12.86,3.98,16.29,7.69c1.72,1.86,2.79,3.34,3.03,6.6L74.94,62.28L74.94,62.28L74.94,62.28z M56.25,6.91 c1.18,0.14,2.45-0.13,3.82-0.87c-0.13,1.02-0.15,2.13-0.02,3.33c-0.66-0.05-1.33-0.19-1.99-0.39c-7.91-2.48-12.29,6.61-8.19,13.82 c1.23,2.16,2.71,4.38,5.02,6.39c2.19,1.57,4.12,1.36,5.91,0.38c1.42,0.67,2.92,0.94,4.53,0.34c2.37-0.89,4.79-4.41,5.93-6.59 c2.49-4.76,3.33-10.86-2.21-13.83c-1.52-0.81-3.41-1.05-5.8-0.51c-0.57,0.2-1.14,0.32-1.71,0.38c0-0.01,0-0.02,0-0.04 c-0.2-1.84-0.06-3.41,0.38-4.75c0.43-1.31,1.15-2.4,2.13-3.3c0.3-0.28,0.32-0.74,0.04-1.04c-0.28-0.3-0.74-0.32-1.04-0.04 c-1.16,1.07-2.02,2.37-2.53,3.93c-0.07,0.2-0.13,0.41-0.18,0.62c-1.48-2.63-3.99-3.99-8.13-3.36l-1.62,0.17 C51.76,4.03,53.22,6.54,56.25,6.91L56.25,6.91L56.25,6.91z M15,93.36c0.51,1.13,0,2.46-1.13,2.97c-1.13,0.51-2.46,0-2.97-1.13 c-1.26-2.81-2.29-5.74-3.04-8.75c-0.74-2.96-1.24-6.03-1.46-9.17c-0.04-0.55-0.07-1.19-0.1-1.91c-0.03-0.77-0.04-1.41-0.04-1.91 c0-1.24,1.01-2.25,2.25-2.25c1.24,0,2.25,1.01,2.25,2.25c0,0.73,0.01,1.31,0.02,1.75c0.02,0.5,0.05,1.09,0.1,1.75 c0.2,2.87,0.66,5.68,1.34,8.39C12.92,88.13,13.85,90.81,15,93.36L15,93.36z M13.91,46.94c1.83-1.91,3.11-3.56,5.94-3.89 c5.3-0.61,10.17,4.82,7.5,10.16c-0.5,1-1.34,2.12-2.34,3.27v-0.14h-6.86L17.9,56.6l-1.1,1.13l-2.26-4.34l-0.75-1.44l-0.72,1.46 l-2.05,4.15l-2.03-2.94l-0.71-1.03l-0.66,1.07l-0.95,1.54H2.5c-1.42-1.95-2.42-4.06-2.5-6.33c-0.15-4.16,3.14-6.83,6.91-6.78 C10.29,43.12,11.71,44.81,13.91,46.94L13.91,46.94L13.91,46.94z M23.63,58c-0.1,0.11-0.21,0.21-0.31,0.32 c-1.88,1.95-3.97,3.86-5.43,5.31l-3.98,3.95l-3.29-3.17c-2-1.93-4.65-4.11-6.8-6.57h3.76l0.24-0.39l0.53-0.86l2.11,3.06l0.8,1.15 l0.62-1.26l1.95-3.95l2.03,3.91l0.53,1.01l0.79-0.82l1.65-1.7H23.63L23.63,58L23.63,58z M24.95,39.11 c-0.87,0.88-2.3,0.88-3.18,0.01c-0.88-0.87-0.88-2.3-0.01-3.18c2.16-2.16,5-4.56,8.01-6.65c2.65-1.83,5.45-3.43,8.09-4.45 c1.16-0.45,2.46,0.13,2.9,1.28c0.45,1.16-0.13,2.46-1.28,2.9c-2.29,0.89-4.77,2.31-7.16,3.96C29.55,34.91,26.93,37.12,24.95,39.11 L24.95,39.11z M79.38,29.11c-1.13-0.51-1.64-1.84-1.13-2.97c0.51-1.13,1.84-1.64,2.97-1.13c4.12,1.86,7.97,4.24,11.45,7.04 c3.51,2.82,6.65,6.09,9.34,9.71c0.74,1,0.53,2.4-0.47,3.14c-1,0.74-2.4,0.53-3.14-0.47c-2.46-3.31-5.34-6.29-8.55-8.88 C86.68,32.99,83.16,30.82,79.38,29.11L79.38,29.11z M107.87,77.11c0.09-1.24,1.16-2.17,2.4-2.09c1.24,0.09,2.17,1.16,2.09,2.4 c-0.23,3.07-0.72,6.06-1.44,8.95c-0.74,2.96-1.73,5.82-2.94,8.55c-0.5,1.14-1.83,1.65-2.97,1.15c-1.14-0.5-1.65-1.83-1.15-2.97 c1.11-2.51,2.02-5.13,2.69-7.83C107.22,82.65,107.66,79.91,107.87,77.11L107.87,77.11z M52.26,19.96c0.29-0.1,0.61,0.06,0.71,0.35 c0.32,0.95,0.79,1.8,1.38,2.57c0.6,0.79,1.32,1.5,2.13,2.15c0.24,0.2,0.28,0.55,0.08,0.79c-0.2,0.24-0.55,0.28-0.79,0.08 c-0.87-0.71-1.66-1.48-2.31-2.34c-0.66-0.87-1.19-1.83-1.55-2.9C51.81,20.37,51.97,20.05,52.26,19.96L52.26,19.96L52.26,19.96z"/></g></svg>