<?xml version="1.0" encoding="utf-8"?><svg version="1.1" id="Layer_1" xmlns="http://www.w3.org/2000/svg" xmlns:xlink="http://www.w3.org/1999/xlink" x="0px" y="0px" viewBox="0 0 116.65 122.88" style="enable-background:new 0 0 116.65 122.88" xml:space="preserve"><g><path d="M64.87,0.59c0.91-0.84,2.33-0.78,3.17,0.13c0.84,0.91,0.78,2.33-0.13,3.17c-3.99,3.69-6.95,8.15-8.7,13.5 c-1.62,4.92-2.24,10.62-1.74,17.18c0.83-0.07,1.66-0.17,2.49-0.31c1.5-0.26,3.01-0.64,4.53-1.16l0,0c0.08-0.03,0.16-0.05,0.24-0.07 c5.03-1.13,9.55-1.44,13.63-1.04c4.15,0.4,7.84,1.54,11.12,3.3C100.1,41,105.25,49.4,106.75,58.78c0.17,1.04,0.29,2.1,0.36,3.16 h2.64c0.88,0,1.6,0.72,1.6,1.6c0,0.15-0.02,0.29-0.06,0.43l-5.39,22.7c-0.17,0.74-0.83,1.23-1.55,1.23h-2.37 c-0.83,1.95-1.75,3.86-2.72,5.73c-0.35,0.66-0.72,1.35-1.12,2.06l16.91,0c0.88,0,1.6,0.72,1.6,1.6c0,0.55-0.28,1.04-0.71,1.33 l-12.84,9.68l12.96,10.52c0.68,0.56,0.79,1.56,0.23,2.24c-0.31,0.39-0.77,0.59-1.24,0.59v0.01H72.47c-2.9,0.82-5.72,1.03-8.47,0.75 c-2.93-0.29-5.76-1.13-8.49-2.33c-3.59,1.8-7.34,2.87-11.31,2.79c-4.37-0.09-8.92-1.57-13.69-4.99l0-0.01 c-0.06-0.04-0.12-0.09-0.17-0.14c-4.75-4.15-8.64-8.5-11.97-12.91c-3.31-4.38-6.08-8.84-8.58-13.24c-0.69-1.22-1.33-2.45-1.91-3.69 H3.52c-0.86,0-1.56-0.68-1.6-1.52L0.01,63.68c-0.07-0.88,0.58-1.65,1.46-1.72l0.13-0.01h1.94c0.78-6.63,3.02-12.76,6.49-17.77 c3.91-5.65,9.37-9.86,16.05-11.75c5.6-1.59,12.02-1.54,19.06,0.67l0,0.01c1.72,0.52,3.45,0.93,5.16,1.19 c0.89,0.14,1.77,0.24,2.66,0.3c-0.29-4.15-0.17-7.99,0.34-11.55c-5.77,3.27-11.11,4.49-16.05,3.89 C25.15,25.45,19.3,15.39,14.55,5.53l6.48-0.67c17-2.6,27.15,3.24,33,14.36c0.26-1.09,0.56-2.16,0.9-3.19 C56.94,9.89,60.32,4.8,64.87,0.59L64.87,0.59L64.87,0.59z M97.06,84.71v-4.83c0-0.89,0.72-1.6,1.6-1.6c0.89,0,1.6,0.72,1.6,1.6 v4.83h2.81l4.65-19.57H3.34l1.65,19.57h3.97v-7.75c0-0.88,0.72-1.6,1.6-1.6c0.88,0,1.6,0.72,1.6,1.6v7.75h6.66v-4.83 c0-0.89,0.72-1.6,1.6-1.6c0.89,0,1.6,0.72,1.6,1.6v4.83h6.19v-7.75c0-0.88,0.72-1.6,1.6-1.6c0.88,0,1.6,0.72,1.6,1.6v7.75h6.66 v-4.83c0-0.89,0.72-1.6,1.6-1.6s1.6,0.72,1.6,1.6v4.83h7.34v-7.75c0-0.88,0.72-1.6,1.6-1.6c0.88,0,1.6,0.72,1.6,1.6v7.75h6.66 v-4.83c0-0.89,0.72-1.6,1.6-1.6s1.6,0.72,1.6,1.6v4.83h6.19v-7.75c0-0.88,0.72-1.6,1.6-1.6c0.88,0,1.6,0.72,1.6,1.6v7.75h6.66 v-4.83c0-0.89,0.72-1.6,1.6-1.6s1.6,0.72,1.6,1.6v4.83h6.27v-7.75c0-0.88,0.72-1.6,1.6-1.6c0.88,0,1.6,0.72,1.6,1.6v7.75H97.06 L97.06,84.71z M88.85,87.91l-0.05,0l-0.05,0l-9.28,0c-0.05,0-0.1,0.01-0.15,0.01c-0.05,0-0.1,0-0.15-0.01h-9.68l-0.04,0l-0.04,0 l-9.21,0c-0.05,0-0.09,0.01-0.14,0.01c-0.05,0-0.09,0-0.14-0.01h-9.71H50.2H39.82c-0.05,0-0.09,0.01-0.14,0.01 c-0.05,0-0.09,0-0.14-0.01h-9.72h-0.01h-2.15c0.62,0.99,1.29,1.95,2.01,2.89c2.4,3.14,5.29,5.98,8.51,8.61 c0.96,0.78,1.11,2.19,0.33,3.16c-0.78,0.96-2.19,1.11-3.16,0.32c-3.49-2.85-6.63-5.93-9.25-9.37c-1.35-1.77-2.57-3.64-3.63-5.61 h-1.91c-0.05,0-0.09,0.01-0.14,0.01c-0.05,0-0.09,0-0.14-0.01h-7.39c0.26,0.49,0.52,0.98,0.8,1.47c2.41,4.23,5.07,8.52,8.26,12.75 c3.14,4.16,6.79,8.25,11.21,12.13c3.98,2.84,7.66,4.07,11.12,4.14c3.49,0.07,6.84-1.01,10.09-2.77c0.65-0.36,1.4-0.35,2.03-0.06 l0,0c2.62,1.24,5.3,2.11,8.04,2.39c2.69,0.27,5.46-0.03,8.34-1.11c3.67-1.38,7.46-4.59,10.95-8.47c3.17-3.52,6.06-7.56,8.38-11.28 l0.19-0.43c0.1-0.23,0.25-0.42,0.42-0.57c0.97-1.6,1.83-3.13,2.56-4.52c0.63-1.2,1.23-2.42,1.79-3.65H88.85L88.85,87.91z M102.62,61.95c-0.07-0.83-0.17-1.65-0.3-2.46c-1.29-8.06-5.75-15.29-14.96-20.22c-2.77-1.49-5.9-2.45-9.44-2.79 c-3.58-0.35-7.58-0.07-12.07,0.92c-1.71,0.58-3.43,1.01-5.16,1.31c-1.67,0.28-3.36,0.43-5.06,0.46l0,0c-0.13,0.01-0.26,0.01-0.38,0 c-1.88,0.01-3.76-0.14-5.63-0.44c-1.94-0.3-3.87-0.75-5.8-1.34l-0.02-0.01l0,0.01c-6.17-1.94-11.72-2-16.51-0.64 c-5.63,1.6-10.24,5.17-13.57,9.98C10.76,51,8.81,56.24,8.07,61.95L102.62,61.95L102.62,61.95z M110.27,98.9H96.26 c-2.51,4.09-5.69,8.58-9.19,12.47c-2.48,2.75-5.14,5.23-7.88,7.09h31.35l-10.97-8.91c-0.13-0.09-0.25-0.2-0.35-0.34 c-0.53-0.7-0.39-1.7,0.31-2.24L110.27,98.9L110.27,98.9z"/></g></svg>