<?xml version="1.0" encoding="utf-8"?><svg version="1.1" id="Layer_1" xmlns="http://www.w3.org/2000/svg" xmlns:xlink="http://www.w3.org/1999/xlink" x="0px" y="0px" viewBox="0 0 122.88 94.15" style="enable-background:new 0 0 122.88 94.15" xml:space="preserve"><g><path d="M6.33,50.34l-1.56,0.83c0,0-0.01,0.01-0.01,0.01c-0.11,0.05-0.23,0.07-0.35,0.04c-0.12-0.03-0.23-0.09-0.31-0.2 c0,0-0.01-0.01-0.01-0.01l-3.96-5.16l0,0c0,0-0.01-0.01-0.02-0.02c-0.01-0.01-0.01-0.02-0.02-0.03l0-0.01 c-0.08-0.12-0.1-0.26-0.08-0.39c0.02-0.13,0.1-0.26,0.22-0.34l8.79-6.05c0.02-0.02,0.04-0.03,0.06-0.04 c0.11-0.06,0.24-0.08,0.36-0.06c0.12,0.02,0.23,0.09,0.31,0.19c0.02,0.02,0.03,0.05,0.05,0.07c0.51,0.91,1.06,1.67,1.63,2.27 c0.58,0.61,1.17,1.06,1.77,1.34c0.27,0.13,0.54,0.22,0.8,0.28c0.27,0.06,0.53,0.08,0.79,0.08c0.26-0.01,0.52-0.05,0.78-0.12 c0.26-0.07,0.51-0.18,0.77-0.33c0.53-0.3,1.04-0.74,1.52-1.33c0.47-0.58,0.92-1.3,1.33-2.16c0,0,0-0.01,0-0.01 c0-0.01,0.01-0.02,0.01-0.03c0.01-0.01,0.01-0.03,0.02-0.04l0,0c0.08-0.12,0.2-0.2,0.34-0.23c0.13-0.03,0.28,0,0.4,0.08l0,0 l9.05,6.01c0,0,0.01,0,0.01,0.01l0,0l0,0v0l0.01,0.01l0,0l0,0l0,0c0.12,0.09,0.19,0.22,0.2,0.35c0.02,0.13-0.02,0.28-0.1,0.39 l-3.99,5.24l0,0c-0.07,0.1-0.18,0.17-0.29,0.2c-0.12,0.03-0.24,0.02-0.36-0.03l-1.76-0.81c-0.21,1.06-0.36,2.11-0.46,3.15 c-0.1,1.11-0.15,2.22-0.14,3.31c0.01,1.16,0.08,2.32,0.2,3.48c0.12,1.15,0.29,2.31,0.49,3.47c0,0.01,0,0.02,0,0.02 c0,0.01,0,0.01,0,0.02l0,0.01c0,0.01,0,0.03,0,0.04c0,0.15-0.06,0.28-0.16,0.38l0,0v0l0,0c-0.1,0.1-0.23,0.16-0.38,0.16v0 L6.86,64.43c-0.02,0-0.05,0-0.07,0c-0.02,0-0.05-0.01-0.07-0.01c-0.14-0.03-0.26-0.12-0.33-0.23c-0.07-0.11-0.1-0.26-0.07-0.4 c0.24-1.08,0.44-2.18,0.57-3.3c0.13-1.12,0.21-2.26,0.21-3.42c0-1.1-0.06-2.22-0.19-3.38C6.78,52.6,6.59,51.49,6.33,50.34 L6.33,50.34L6.33,50.34z M107.47,42.48L92.06,56.35l3.56,1.87l11.76-11.07l11.95,11.07l3.56-1.87L107.47,42.48L107.47,42.48z M97.22,59.42L97.22,59.42l10.26-9.85l10.23,9.85h0v10.07h-7.48v-7.12h-5.61v7.12h-7.41V59.42L97.22,59.42z M56.96,6.98 c1.19,0.15,2.47-0.13,3.85-0.87c-0.14,1.03-0.15,2.15-0.02,3.37c-0.67-0.06-1.34-0.19-2.01-0.4c-7.98-2.51-12.4,6.67-8.26,13.94 c1.24,2.18,2.74,4.42,5.07,6.45c2.21,1.59,4.16,1.37,5.96,0.39c1.43,0.68,2.95,0.95,4.58,0.34c2.39-0.9,4.83-4.45,5.98-6.65 c2.51-4.8,3.36-10.96-2.24-13.96c-1.53-0.82-3.44-1.06-5.86-0.52c-0.58,0.2-1.15,0.32-1.72,0.38c0-0.01,0-0.02,0-0.04 c-0.2-1.86-0.06-3.44,0.38-4.79c0.43-1.32,1.16-2.42,2.15-3.33c0.3-0.28,0.32-0.75,0.04-1.05c-0.28-0.3-0.75-0.32-1.05-0.04 c-1.17,1.08-2.04,2.39-2.56,3.97c-0.07,0.2-0.13,0.41-0.18,0.63c-1.49-2.65-4.03-4.03-8.2-3.39l-1.64,0.17 C52.43,4.06,53.91,6.6,56.96,6.98L56.96,6.98L56.96,6.98z M52.94,20.14c0.3-0.1,0.62,0.06,0.72,0.36c0.32,0.96,0.8,1.82,1.39,2.6 c0.61,0.79,1.33,1.51,2.15,2.17c0.24,0.2,0.28,0.55,0.08,0.8c-0.2,0.24-0.55,0.28-0.8,0.08c-0.88-0.72-1.67-1.5-2.33-2.36 c-0.67-0.88-1.21-1.84-1.57-2.93C52.48,20.56,52.64,20.24,52.94,20.14L52.94,20.14L52.94,20.14z M16,90.96 c0.51,1.14,0,2.48-1.15,2.99c-1.14,0.51-2.48,0-2.99-1.15c-1.27-2.84-2.31-5.79-3.07-8.83c-0.75-2.99-1.25-6.08-1.48-9.25 c-0.04-0.56-0.07-1.2-0.1-1.92c-0.03-0.78-0.04-1.42-0.04-1.93c0-1.26,1.02-2.27,2.27-2.27c1.26,0,2.27,1.02,2.27,2.27 c0,0.73,0.01,1.32,0.02,1.77c0.02,0.51,0.05,1.1,0.1,1.76c0.21,2.9,0.66,5.73,1.35,8.47C13.9,85.68,14.84,88.38,16,90.96L16,90.96z M28.01,34.35c-0.93,0.83-2.36,0.75-3.2-0.18c-0.83-0.93-0.75-2.36,0.18-3.2c2.12-1.89,4.6-3.83,7.16-5.5 c2.29-1.5,4.67-2.79,6.93-3.67c1.17-0.45,2.48,0.13,2.93,1.3c0.45,1.17-0.13,2.48-1.3,2.93c-1.94,0.75-4.04,1.9-6.09,3.24 C32.24,30.82,29.95,32.61,28.01,34.35L28.01,34.35z M80.97,26.12c-1.14-0.51-1.65-1.86-1.14-3c0.52-1.14,1.86-1.65,3-1.14 c3.55,1.61,6.9,3.58,9.98,5.88c3.1,2.31,5.95,4.96,8.5,7.9c0.82,0.95,0.72,2.38-0.23,3.2c-0.95,0.82-2.38,0.72-3.2-0.23 c-2.31-2.67-4.93-5.1-7.79-7.23C87.26,29.39,84.21,27.58,80.97,26.12L80.97,26.12z M109.43,77.38c0.16-1.24,1.3-2.12,2.54-1.95 c1.24,0.16,2.12,1.3,1.95,2.54c-0.34,2.56-0.85,5.04-1.53,7.44c-0.69,2.47-1.56,4.85-2.57,7.14c-0.51,1.15-1.85,1.67-2.99,1.16 c-1.15-0.51-1.67-1.85-1.16-2.99c0.94-2.11,1.73-4.3,2.36-6.54C108.66,81.96,109.13,79.69,109.43,77.38L109.43,77.38z M51.4,80.84 c3.3,9.71,17.09,10.07,20.19,0c3.65,3.28,14.45,3.94,18.47,6.18c1.27,0.71,2.42,1.61,3.34,2.83c0.62,0.82,1.45,2.33,2.07,4.02 H27.52c0.63-1.69,1.45-3.2,2.07-4.02c0.92-1.22,2.07-2.12,3.34-2.83C36.95,84.78,47.75,84.12,51.4,80.84L51.4,80.84L51.4,80.84z M48.87,60.71c-0.69,0.03-1.22,0.17-1.57,0.41c-0.2,0.14-0.35,0.31-0.45,0.52c-0.11,0.23-0.16,0.51-0.15,0.84 c0.03,0.95,0.53,2.19,1.49,3.62l0.01,0.02l0,0l3.12,4.96c1.25,1.99,2.56,4.02,4.2,5.51c1.57,1.43,3.47,2.4,5.99,2.41 c2.72,0.01,4.72-1,6.33-2.52c1.68-1.58,3.01-3.73,4.32-5.89l3.52-5.79c0.66-1.5,0.89-2.5,0.74-3.08c-0.09-0.35-0.48-0.52-1.13-0.55 c-0.14-0.01-0.28-0.01-0.43,0c-0.16,0-0.32,0.02-0.49,0.03c-0.09,0.01-0.18,0-0.27-0.02c-0.31,0.02-0.63,0-0.96-0.05l1.2-4.83 c-8.94,1.41-15.62-5.23-25.07-1.33l0.68,5.79C49.57,60.77,49.21,60.76,48.87,60.71L48.87,60.71L48.87,60.71z M76.49,59.59 c0.87,0.26,1.42,0.81,1.65,1.7c0.25,0.98-0.02,2.37-0.86,4.26l0,0c-0.02,0.03-0.03,0.07-0.05,0.1l-3.56,5.86 c-1.37,2.26-2.76,4.52-4.62,6.26c-1.92,1.8-4.29,3-7.54,2.99c-3.03-0.01-5.31-1.16-7.18-2.87c-1.81-1.65-3.19-3.78-4.5-5.87 l-3.12-4.96c-1.14-1.7-1.73-3.26-1.77-4.54c-0.02-0.6,0.08-1.15,0.31-1.62c0.23-0.5,0.59-0.92,1.07-1.25 c0.23-0.15,0.48-0.28,0.76-0.39c-0.2-2.69-0.28-5.59-0.15-8.43c0.07-0.67,0.2-1.35,0.38-2.02c0.8-2.85,2.8-4.15,5.27-5.73 c1.36-0.87,2.86-1.53,4.42-1.97c0.99-0.28-0.84-3.45,0.18-3.56c4.96-0.51,12.98,4.02,16.44,7.76c1.73,1.88,2.82,3.37,3.06,6.66 L76.49,59.59L76.49,59.59L76.49,59.59z"/></g></svg>