<?xml version="1.0" encoding="utf-8"?><svg version="1.1" id="Layer_1" xmlns="http://www.w3.org/2000/svg" xmlns:xlink="http://www.w3.org/1999/xlink" x="0px" y="0px" viewBox="0 0 122.88 64.3" style="enable-background:new 0 0 122.88 64.3" xml:space="preserve"><style type="text/css">.st0{fill-rule:evenodd;clip-rule:evenodd;}</style><g><path class="st0" d="M30.17,0c6.12,0,11.08,2.71,11.08,6.06c0,3.35-4.96,6.06-11.08,6.06c-6.12,0-11.08-2.71-11.08-6.06 C19.09,2.71,24.05,0,30.17,0L30.17,0z M4.81,55.41c-1.29,0-2.33-1.04-2.33-2.33s1.04-2.33,2.33-2.33h56.17 c1.29,0,2.33,1.04,2.33,2.33s-1.04,2.33-2.33,2.33H4.81L4.81,55.41z M58.18,0c6.12,0,11.08,2.71,11.08,6.06 c0,3.35-4.96,6.06-11.08,6.06S47.1,9.41,47.1,6.06C47.1,2.71,52.06,0,58.18,0L58.18,0z M54.49,9.34c-0.42-0.1-0.68-0.52-0.58-0.93 c0.1-0.42,0.52-0.67,0.93-0.58c1.21,0.29,2.73,0.37,4.2,0.28c1.47-0.09,2.87-0.35,3.85-0.76c0.39-0.17,0.85,0.02,1.01,0.41 c0.17,0.39-0.02,0.85-0.41,1.01c-1.14,0.48-2.73,0.79-4.36,0.88C57.52,9.76,55.84,9.66,54.49,9.34L54.49,9.34z M105.25,9.97 c9.13,0,16.53,7.4,16.53,16.53c0,9.13-7.4,16.53-16.53,16.53c-9.13,0-16.53-7.4-16.53-16.53C88.72,17.37,96.12,9.97,105.25,9.97 L105.25,9.97z M77.83,28.24c-0.41-2.55-1.13-4.64-2.52-5.99c-1.38-1.34-3.58-2.1-7.06-2.1H14.4c-4.69,0-7.68,2.51-8.97,5.73 c-0.52,1.28-0.77,2.69-0.77,4.11c0,1.42,0.26,2.83,0.77,4.11c1.29,3.22,4.28,5.73,8.97,5.73h51.77c2.78,0,4.86,1.36,6.5,3.41 c1.41,1.75,2.45,3.97,3.35,6.19c4.33,10.64,8.27,10.47,17.09,10.07c2.22-0.1,4.71-0.21,7.31-0.21h15.45 c1.18-0.17,1.86-0.98,2.16-1.99c0.18-0.64,0.24-1.37,0.19-2.12c-0.05-0.78-0.21-1.56-0.47-2.25c-0.46-1.23-1.13-2.17-1.8-2.17 h-0.02v0.01H94.88v-0.01c-4.79,0.01-8.38-2.59-11.04-6.29C80.42,39.69,78.6,33.03,77.83,28.24L77.83,28.24z M78.55,18.92 c2.23,2.17,3.3,5.11,3.87,8.6c0.69,4.27,2.27,10.16,5.2,14.23c1.84,2.56,4.23,4.36,7.27,4.36V46.1h21.05v0.01 c2.86-0.02,5.06,2.24,6.16,5.19c0.42,1.13,0.68,2.36,0.76,3.58c0.08,1.25-0.03,2.52-0.38,3.7c-0.79,2.74-2.71,4.91-6.1,5.32 c-0.15,0.03-0.29,0.04-0.45,0.04h-15.51c-2.79,0-5.07,0.1-7.11,0.19c-11.08,0.5-16.03,0.72-21.6-12.96 c-0.76-1.88-1.62-3.73-2.66-5.02c-0.8-1-1.74-1.66-2.88-1.66H14.4c-6.9,0-11.33-3.8-13.29-8.66C0.37,33.97,0,31.97,0,29.99 S0.37,26,1.12,24.14c1.95-4.86,6.39-8.66,13.29-8.66h53.84C73.06,15.49,76.3,16.73,78.55,18.92L78.55,18.92z M27.13,9.47 C26.7,9.4,26.42,9,26.49,8.57c0.07-0.42,0.48-0.7,0.9-0.63c0.86,0.15,1.82,0.22,2.79,0.2c0.99-0.01,1.99-0.11,2.9-0.28 c0.42-0.08,0.83,0.2,0.91,0.62c0.08,0.42-0.2,0.83-0.62,0.91c-0.98,0.19-2.08,0.29-3.17,0.31C29.12,9.71,28.06,9.64,27.13,9.47 L27.13,9.47z"/></g></svg>