<svg xmlns="http://www.w3.org/2000/svg" shape-rendering="geometricPrecision" text-rendering="geometricPrecision" image-rendering="optimizeQuality" fill-rule="evenodd" clip-rule="evenodd" viewBox="0 0 512 402.44"><path fill-rule="nonzero" d="M58.57 402.44c-16.06-118.75 8.9-178.99 30.75-231.69 7.8-18.81 21.58-53.69 26.42-89.27 4.04-29.63 1.08-59.75-.63-81.48h11.4c1.76 23.34 4.49 55.06.14 85.92-5.01 35.62-18.9 70.1-26.82 89.2-.84 2.02-1.68 4.04-2.52 6.09 113.01 34.75 218.28 32.77 317.03-.22l-2.11-5.12c-7.64-18.58-27.67-51.69-32.69-86.31-4.63-31.97 2.86-65.24 5.69-89.56h11.42c-2.76 23.17-10.43 55.66-5.96 87 4.86 33.96 24.65 66.57 32.05 84.54 21.79 52.95 46.64 113.35 30.79 230.9h-11.48c12.79-93.49-.65-150.03-17.53-195.62-57.96 24.25-103.96 61.12-145.8 107.66.17.77.18 1.58.01 2.4-3.61 17.04-6.19 38.27-7.61 61.71-.47 7.74-.81 15.72-1.02 23.85h-11.38c.21-8.37.57-16.57 1.05-24.52 1.1-18.12 2.87-35 5.28-49.74h-20.7c2.71 14.74 4.7 31.45 5.93 49.31.56 8.1.96 16.44 1.21 24.95h-11.38c-.25-8.24-.64-16.33-1.18-24.19-1.59-23.03-4.46-44.05-8.56-61.24l-.09-.47c-41.75-48.97-87.88-84.68-143.74-108-16.47 45.02-29.2 101.26-16.51 193.9H58.57zM441.43 77.52l25.02 32.4 13.89-11.16-14.32-19.2 45.98.01V61.78l-45.99-.02 14.32-19.21-13.89-11.17-24.77 32.07c-4.14 5.36-4.47 8.6-.24 14.07zm-370.85 0-25.03 32.4-13.89-11.16 14.32-19.2L0 79.57V61.78l45.99-.02-14.32-19.21 13.9-11.17 24.76 32.07c4.15 5.36 4.47 8.6.25 14.07zM256 157.35c6.36 0 11.51 3.85 11.51 8.59 0 4.75-5.15 8.6-11.51 8.6-6.36 0-11.51-3.85-11.51-8.6 0-4.74 5.15-8.59 11.51-8.59z"/></svg>