<svg xmlns="http://www.w3.org/2000/svg" shape-rendering="geometricPrecision" text-rendering="geometricPrecision" image-rendering="optimizeQuality" fill-rule="evenodd" clip-rule="evenodd" viewBox="0 0 512 241.67"><path fill-rule="nonzero" d="M324.06 81.42c-3.88-1.73-7.73-3.6-11.53-5.59-4.89 12.66-13.63 21.53-27.02 25.21-5.81 1.58-11.8-1.84-13.38-7.65-1.58-5.81 1.84-11.8 7.65-13.39 7.94-2.18 11.41-8.06 13.49-15.4l-1.4-.9c-4.7-3.06-9.27-6.24-13.68-9.47-4.79 12.8-13.37 22.06-27.21 25.87-5.81 1.61-11.82-1.8-13.43-7.61-1.61-5.81 1.8-11.82 7.61-13.43 9.44-2.59 12.75-10.68 14.51-19.45-2.33-1.97-4.58-3.94-6.75-5.88-1.18-1.06-2.34-2.11-3.47-3.15l-2.83-2.4c-9.27-7.87-15.61-13.26-21.69-13.18-11.11.14-18.96 10.36-26.67 20.38-3.43 4.46-6.84 8.91-10.71 12.84-29.93 30.47-67.35 18.83-101.32 2.8-14.54-5.09-24.12-5.32-30.03-1.19-6.09 4.26-9.49 13.71-11.33 27.69-.72 6.52-1.5 11.84-2.43 16.49l22.71 2.05c2.41-.01 4.1.84 4.1 3.69v20.37c.29 5.9-1.97 8.73-6.84 8.44l-32.32-1.07-.37.79c-4.9 10.39-10.07 21.06-12.84 32.25 11.81 4.68 23.62 8.38 35.41 11.12 30.88 7.2 60.16 8.11 91.29 1.42 42.59-9.15 63.02-4.18 105.04 5.21 42.9 9.59 93.3 4.55 138.58.03l15.35-1.52c20.08-1.92 40.06-4.14 57.32-6.5 14.94-2.05 27.71-4.19 36.49-6.31l.07-.01-.25-1.63c-6.76-40.73-22.81-41.12-47.14-41.7-15.18-.36-33.06-.79-53.84-8.28-14.79-5.33-28.29-11.75-39.92-17.29-3.9-1.86-7.59-3.62-10.97-5.17-4.58 14.01-13.43 24.17-28.09 28.2-5.81 1.58-11.8-1.84-13.38-7.65-1.58-5.81 1.85-11.81 7.66-13.39 8.01-2.2 11.49-8.22 13.56-15.64zm32.59 141.2-.9-7.8 13.58-1.55.95 8.3c6.59-.55 13.17-1.18 19.75-1.73l-1.25-7.69 13.47-2.2 1.4 8.65c6.07-.61 12.56-1.34 19.18-2.26l-1.43-7.86 13.41-2.4 1.48 8.12c6.69-1.22 13.33-2.66 19.6-4.41l-2-6.99 13.15-3.75 1.85 6.45c12.84-5.07 22.7-11.94 26.07-21.39.56-1.58 1.01-3.23 1.34-4.94-9.03 1.97-20.93 3.93-34.46 5.78-17.3 2.37-37.5 4.61-57.9 6.56l-15.29 1.52c-46.37 4.63-97.99 9.8-143.22-.32-39.89-8.92-58.33-13.84-98.78-5.15-33.14 7.13-64.84 6.19-97.73-1.48-11.26-2.62-22.56-6.07-33.88-10.38 0 14.77 5.7 26.36 18.08 34.93 2.5 1.73 5.21 3.29 8.12 4.71l1.36-6.26 13.37 2.89-1.83 8.35c6.65 2.02 13.39 3.35 20.25 4.35l.98-9.77 13.58 1.34-.99 9.84c6.42.44 13 .61 19.62.54l.64-9.23 13.63.91-.55 7.86c6.59-.37 13.13-.94 19.53-1.66l.27-9.4 13.63.38-.21 7.3c4.62-.63 9.1-1.26 13.19-1.84 30.51-4.3 39.16-5.52 88.27 1.82 11.84 1.77 29.71 2.4 50.27 2.09 15.73-.23 33.01-1.01 50.4-2.23zM327.63 66.56c2.18-3.37 6.16-5.41 10.42-4.92 6 .68 10.31 6.1 9.62 12.1l-.13 1.12c4.41 1.95 9.13 4.2 14.21 6.62 11.56 5.5 24.96 11.88 38.5 16.77 18.51 6.67 35.08 7.07 49.15 7.4 31.81.76 52.8 1.26 61.6 54.27 1.61 9.72 1.47 19.9-1.87 29.25-8.05 22.56-38.26 33.6-68.79 39.46-23.35 4.48-54 7.47-82.99 9.24-18.4 1.12-36.13 1.76-50.92 1.98-21.45.32-40.16-.35-52.63-2.21-47.06-7.04-55.23-5.88-84.03-1.82-19.69 2.78-38.51 5.36-58.52 5.78-37.23.81-94.59-4.91-108.34-46.83-3.13-9.54-3.63-20.05-1.99-31.06 2.16-14.47 9-28.67 15.22-41.84 4.6-9.74 7.64-16.17 9.85-23.89 4.62-16.16 3.24-33.23 11.36-48.49 2.67-5 6.04-9 10.26-11.95 10.18-7.11 24.23-7.54 43.93-.59l.7.3c27.48 13 59.93 25.58 84.61.44 3.23-3.28 6.38-7.38 9.54-11.48C196.27 13.35 206.34.24 224.75 0c11.73-.15 19.79 6.7 31.57 16.71l3.21 2.72c2.03 1.88 4.16 3.78 6.35 5.7 1.99-1.2 4.39-1.78 6.88-1.49 6 .68 10.31 6.1 9.62 12.1-.1.88-.22 1.76-.34 2.62 4.83 3.7 9.88 7.34 15.09 10.83 2.23-3.19 6.08-5.09 10.21-4.61 5.99.68 10.3 6.1 9.62 12.1-.17 1.43-.36 2.83-.57 4.21 3.7 2.01 7.46 3.91 11.24 5.67z"/></svg>