<svg id="Layer_1" data-name="Layer 1" xmlns="http://www.w3.org/2000/svg" viewBox="0 0 122.88 54.93"><defs><style>.cls-1{fill-rule:evenodd;}</style></defs><title>strong-robust-sturdy</title><path class="cls-1" d="M68.18,25V54.93c3.25-.47,7.68-3.53,11.89-8.56,10.12,5.7,19.83,4.44,29.23-2.1,12-1.78,16.12-7,12.06-15.73L105.48,5.73h0l0,0h0l-4.13-3.59C100.08.13,98.53-.39,96.7.27L92.55,1.63c-2.67,1.05-3.44,2.49-2.34,4.31l1.26,2c.68,1.7,1.73,2.48,3.43,1.69l.25-.08a.63.63,0,0,1,0-.36l.25-1.07a6.6,6.6,0,0,0,.32-1.64c0-.08-.41.29-1.54.75a.64.64,0,0,1-.83-.36.65.65,0,0,1,.35-.83c2-.79,2.84-.93,3.21,0a4.6,4.6,0,0,1-.27,2.41l-.17.71.17-.06-.2.08c4-1.52,3.35.76,6,4.72a31.5,31.5,0,0,1,5.06,17.78c-6.08-5.14-13-5-20.58-1.45-3.2-4.72-11-7.74-18.7-5.24ZM26.26,9.11l.17.06-.17-.71A4.6,4.6,0,0,1,26,6.05c.37-.9,1.23-.76,3.21,0a.65.65,0,0,1,.35.83.64.64,0,0,1-.83.36c-1.13-.46-1.51-.83-1.55-.75a6.89,6.89,0,0,0,.33,1.64l.25,1.07a.63.63,0,0,1,0,.36l.25.08c1.7.79,2.75,0,3.43-1.69l1.26-2c1.1-1.82.33-3.26-2.34-4.31L26.18.27C24.35-.39,22.8.13,21.57,2.09L17.44,5.68h0l0,0h0L1.52,28.54c-4.06,8.74,0,14,12.06,15.73,9.4,6.54,19.11,7.8,29.23,2.1,4.21,5,8.64,8.09,11.89,8.56V25c-7.65-2.5-15.5.52-18.7,5.24-7.53-3.51-14.5-3.69-20.58,1.45a31.5,31.5,0,0,1,5.06-17.78c2.63-4,2-6.24,6-4.72l-.2-.08Z"/></svg>