<?xml version="1.0" encoding="UTF-8"?>
<!DOCTYPE svg PUBLIC "-//W3C//DTD SVG 1.1//EN" "http://www.w3.org/Graphics/SVG/1.1/DTD/svg11.dtd">
<!-- Creator: CorelDRAW 2021 (64-Bit) -->
<svg xmlns="http://www.w3.org/2000/svg" xml:space="preserve" width="512px" height="429px" version="1.1" shape-rendering="geometricPrecision" text-rendering="geometricPrecision" image-rendering="optimizeQuality" fill-rule="evenodd" clip-rule="evenodd"
viewBox="0 0 512 428.64"
 xmlns:xlink="http://www.w3.org/1999/xlink"
 xmlns:xodm="http://www.corel.com/coreldraw/odm/2003">
 <g id="Layer_x0020_1">
  <metadata id="CorelCorpID_0Corel-Layer"/>
  <path fill="black" d="M393.86 111.07l53.53 218.89c-20.6,11.07 -39.72,25.03 -57.93,36.84l-381.19 0c-4.52,0 -8.27,3.76 -8.27,8.27l0 30.9 512 0c0,-27.94 0,-55.88 0,-83.81 -0.47,-4.95 -1.55,-7.43 -3.59,-9.19 -3.94,-3.4 -25.23,2.05 -29.78,3.49 -2.57,0.81 -5.12,1.7 -7.65,2.66l-53.68 -209.08 80.68 -102.8 -22 -6.23c-11.56,-3.1 -16.32,0.98 -24.65,11.47 -24.99,31.49 -21.94,72.68 -82.25,74.7l-70.99 2.15c-9.33,0.3 -8.7,19.02 0,19l95.77 2.74zm-369.09 299.51l48.64 0 0 13.23c0,2.62 -2.21,4.83 -4.83,4.83l-39.81 0c-2.16,0 -4,-1.8 -4,-4l0 -14.06zm339.5 0l147.73 0 0 13.23c0,2.65 -2.18,4.83 -4.83,4.83l-138.9 0c-2.19,0 -4,-1.8 -4,-4l0 -14.06z"/>
 </g>
</svg>
