<?xml version="1.0" encoding="utf-8"?><svg version="1.1" id="Layer_1" xmlns="http://www.w3.org/2000/svg" xmlns:xlink="http://www.w3.org/1999/xlink" x="0px" y="0px" viewBox="0 0 90.66 122.88" style="enable-background:new 0 0 90.66 122.88" xml:space="preserve"><g><path d="M33.53,71.7c2.2-1.03,4.53-2.11,6.85-3.51l-2.43-15.44c-2.04,2.06-4.4,4.06-8.37,5.59l-0.23,0.08 c-6.81,1.68-10.64,0.32-15.93-1.56C8.95,55.27,4.47,53.7,0,52.12l4.9-14.75l12.61,4.44l1.76,0.67c0.93,0.26,1.81,0.63,2.64,0.98 c1.07,0.45,2.02,0.85,2.3,0.72c1.36-0.65,2.74-2.2,4.34-4c3.94-4.43,9.02-10.13,19.94-10.84C68.9,28,68.46,29.04,83.02,43.76 l7.64,9.67l-9.63,9.19c-4.22-4.26-7.75-9.51-11.75-14c-1.57-1.77-2.97-3.34-4.62-4.07c-1.01-0.44-2.49-0.44-4.22-0.4l3.88,20.97 c0.44,2.32,0.51,4.53,0.13,6.59c-0.33,1.8-1.01,3.47-2.08,5c1.96,6.46,4.56,14.38,7.26,22.13c2.71,7.78,5.55,15.45,7.96,21.37 l1.09,2.67l-16.15-0.09l-0.54-1.04c-2.44-4.71-5.07-10.89-7.54-17.35c-2.61-6.82-5.05-13.97-6.91-20.05 c-2.26,0.65-4.72,1.4-6.99,2.14c-2.26,0.74-4.23,1.46-5.43,2.02c-0.26,0.12-0.6,0.87-0.97,1.68l-0.11,0.24 c-0.35,0.75-0.5,1.56-0.55,2.43c-0.06,0.98,0,2.07,0.06,3.25c0,8.78,0.59,17.91,0.87,26.72l-15.34-0.05l-0.98-24.41 c-0.03-0.72-0.05-1.08-0.07-1.42l0-0.03c-0.06-1.04-0.11-2.04-0.13-3.14c-0.01-1.09,0.02-2.17,0.14-3.24 C19.44,78.27,25.8,75.3,33.53,71.7L33.53,71.7z M33.23,1.4c3.15-1.54,6.88-1.89,10.44-0.67c3.58,1.22,6.32,3.78,7.86,6.93 c1.54,3.15,1.89,6.88,0.67,10.44c-1.22,3.58-3.78,6.32-6.93,7.86c-3.15,1.54-6.88,1.89-10.44,0.67c-3.58-1.22-6.32-3.78-7.86-6.93 c-1.54-3.15-1.89-6.88-0.67-10.44C27.52,5.69,30.08,2.95,33.23,1.4L33.23,1.4z"/></g></svg>