<?xml version="1.0" encoding="utf-8"?><svg version="1.1" id="Layer_1" xmlns="http://www.w3.org/2000/svg" xmlns:xlink="http://www.w3.org/1999/xlink" x="0px" y="0px" viewBox="0 0 122.88 109.57" style="enable-background:new 0 0 122.88 109.57" xml:space="preserve"><g><path d="M8.29,109.57c-4.37-32.33,2.43-48.73,8.37-63.08c2.12-5.12,5.87-14.62,7.19-24.31c1.1-8.07,0.29-16.27-0.17-22.18h3.1 c0.48,6.36,1.22,14.99,0.04,23.39c-1.37,9.7-5.15,19.08-7.3,24.29c-0.23,0.55-0.46,1.1-0.69,1.66c30.77,9.46,59.43,8.92,86.32-0.06 l-0.57-1.4c-2.08-5.06-7.53-14.07-8.9-23.5C94.42,15.68,96.46,6.62,97.23,0h3.11c-0.75,6.31-2.84,15.15-1.62,23.69 c1.32,9.24,6.71,18.12,8.72,23.02c5.93,14.42,12.7,30.86,8.38,62.86h-3.13c3.48-25.45-0.18-40.85-4.77-53.26 c-15.78,6.6-28.31,16.64-39.7,29.31c0.05,0.21,0.05,0.43,0,0.65c-0.98,4.64-1.68,10.42-2.07,16.8c-0.13,2.11-0.22,4.28-0.28,6.49 h-3.1c0.06-2.28,0.15-4.51,0.29-6.68c0.3-4.93,0.78-9.53,1.44-13.54h-5.63c0.74,4.01,1.28,8.56,1.61,13.43 c0.15,2.2,0.26,4.47,0.33,6.79h-3.1c-0.07-2.24-0.17-4.45-0.32-6.59c-0.43-6.27-1.21-11.99-2.33-16.67 c-0.01-0.04-0.02-0.09-0.02-0.13C43.67,72.85,31.11,63.13,15.9,56.78c-4.49,12.26-7.95,27.57-4.49,52.79H8.29L8.29,109.57z M15.6,22.1l-5.83,5.66c-0.49,0.48-1.27,0.47-1.75-0.02c-0.48-0.49-0.47-1.27,0.02-1.75l3.71-3.6H1.24C0.56,22.39,0,21.83,0,21.15 s0.56-1.24,1.24-1.24h10.51l-3.71-3.6c-0.49-0.48-0.5-1.26-0.02-1.75c0.48-0.49,1.26-0.5,1.75-0.02l5.83,5.67 c0.27,0.23,0.45,0.57,0.45,0.95C16.05,21.53,15.88,21.87,15.6,22.1L15.6,22.1z M111.13,22.39l3.71,3.6 c0.49,0.48,0.5,1.26,0.02,1.75c-0.48,0.49-1.26,0.5-1.75,0.02l-5.83-5.66c-0.27-0.23-0.45-0.57-0.45-0.95 c0-0.38,0.17-0.72,0.45-0.95l5.83-5.67c0.49-0.48,1.27-0.47,1.75,0.02c0.48,0.49,0.47,1.27-0.02,1.75l-3.71,3.6h10.51 c0.69,0,1.24,0.56,1.24,1.24s-0.56,1.24-1.24,1.24H111.13L111.13,22.39z M62.04,43.71c1.09,0,1.98,0.66,1.98,1.47 c0,0.81-0.88,1.47-1.98,1.47s-1.98-0.66-1.98-1.47C60.07,44.37,60.95,43.71,62.04,43.71L62.04,43.71z"/></g></svg>