<svg id="Layer_1" data-name="Layer 1" xmlns="http://www.w3.org/2000/svg" viewBox="0 0 122.88 112.6"><defs><style>.cls-1{fill-rule:evenodd;}</style></defs><title>advantages</title><path class="cls-1" d="M101.63,67.6A21.25,21.25,0,1,1,80.38,88.85,21.26,21.26,0,0,1,101.63,67.6ZM31.1,49.4h9.18a1.91,1.91,0,0,1,1.91,1.9V76.46a1.92,1.92,0,0,1-1.91,1.91H31.1a1.92,1.92,0,0,1-1.91-1.91V51.29a1.91,1.91,0,0,1,1.91-1.9ZM55.2,30.52c1-5,9.24-.4,9.82,7.75a34.8,34.8,0,0,1-.7,8.64H76.15c4.91.19,9.21,3.72,6.18,9.53.69,2.52.79,5.47-1.09,6.67.24,4-.86,6.43-2.92,8.38a10,10,0,0,1-1.5,5.08c-1.61,2.27-2.85,1.7-5.4,1.7h-20c-3.17,0-4.9-.87-7-3.47V52.56c6-1.61,9.13-9.76,10.72-15.11V30.52ZM56.29,0A56.3,56.3,0,0,1,112.6,56.28q0,2.94-.29,5.79a28.63,28.63,0,0,0-9-2c.1-1.26.16-2.53.16-3.8A47.19,47.19,0,1,0,74.9,99.66a28.69,28.69,0,0,0,4.78,7.87,56.31,56.31,0,0,1-63.19-91A56.06,56.06,0,0,1,56.29,0ZM99,76.69h5.23a1.3,1.3,0,0,1,1.3,1.3v7h6.95a1.3,1.3,0,0,1,1.3,1.3v5.23a1.3,1.3,0,0,1-1.3,1.3h-6.95v6.94a1.31,1.31,0,0,1-1.3,1.31H99a1.31,1.31,0,0,1-1.3-1.31V92.77H90.77a1.3,1.3,0,0,1-1.3-1.3V86.24a1.3,1.3,0,0,1,1.3-1.3h6.94V78a1.32,1.32,0,0,1,1.3-1.3Z"/></svg>