<svg id="Layer_1" data-name="Layer 1" xmlns="http://www.w3.org/2000/svg" viewBox="0 0 122.88 107.77"><title>advice</title><path d="M75.16,0h36.9a10.82,10.82,0,0,1,10.82,10.81V34.62a10.82,10.82,0,0,1-10.82,10.81H93.67L77.5,59.34a1.94,1.94,0,0,1-3.2-1.6l.85-12.31a10.82,10.82,0,0,1-10.8-10.81V10.81A10.82,10.82,0,0,1,75.16,0ZM27.62,94.74V57.24H44.5C51.65,58.52,58.8,62.4,66,66.9H79.06c5.93.36,9,6.37,3.27,10.32-4.59,3.38-10.66,3.18-16.88,2.62-4.28-.21-4.46,5.55,0,5.57,1.56.12,3.24-.24,4.72-.24,7.75,0,14.14-1.5,18-7.62l2-4.59,19.49-9.66c9.76-3.21,16.7,7,9.5,14.09a254,254,0,0,1-43.41,25.55c-10.75,6.55-21.51,6.32-32.26,0l-15.88-8.2ZM0,53.63H22.54V98.51H0V53.63ZM80.43,32.51a2.61,2.61,0,1,1,0-5.22H99.26a2.61,2.61,0,0,1,0,5.22Zm0-13.36a2.62,2.62,0,1,1,0-5.23h26.69a2.62,2.62,0,1,1,0,5.23ZM112.06,3.88H75.16a7,7,0,0,0-6.93,6.93V34.62a7,7,0,0,0,6.93,6.93h2.2a1.94,1.94,0,0,1,1.81,2.06l-.68,9.75L91.6,42.1A1.94,1.94,0,0,1,93,41.55h19.11A7,7,0,0,0,119,34.62V10.81a7,7,0,0,0-6.94-6.93Z"/></svg>