<?xml version="1.0" encoding="utf-8"?><svg version="1.1" id="Layer_1" xmlns="http://www.w3.org/2000/svg" xmlns:xlink="http://www.w3.org/1999/xlink" x="0px" y="0px" viewBox="0 0 122.88 53.28" style="enable-background:new 0 0 122.88 53.28" xml:space="preserve"><style type="text/css">.st0{fill-rule:evenodd;clip-rule:evenodd;}</style><g><path class="st0" d="M93.05,40.47V3.55H76.44c-7.04,1.26-14.08,5.08-21.12,9.51h-12.9c-5.84,0.35-8.9,6.27-3.22,10.16 c4.52,3.32,10.49,3.13,16.61,2.58c4.22-0.21,4.4,5.46,0,5.48c-1.53,0.12-3.19-0.24-4.64-0.24c-7.63-0.01-13.92-1.47-17.77-7.5 l-1.93-4.51L12.27,9.51C2.67,6.35-4.15,16.4,2.92,23.38c13.9,10.11,28.15,18.43,42.73,25.15c10.59,6.44,21.18,6.22,31.76,0 L93.05,40.47L93.05,40.47z M122.88,0H98.05v44.18h24.83V0L122.88,0z"/></g></svg>