<svg id="Layer_1" data-name="Layer 1" xmlns="http://www.w3.org/2000/svg" viewBox="0 0 122.88 73.47"><title>criticism</title><path d="M28.05,3.31a3.85,3.85,0,0,1,2.14-3A4.23,4.23,0,0,1,33.1.18,8.11,8.11,0,0,1,35.89,1.6,13.78,13.78,0,0,1,41,11.5a29.57,29.57,0,0,1-.06,4.39c-.09,1-.22,2.1-.4,3.23H51.14a11.26,11.26,0,0,1,4.77,1.22,7.68,7.68,0,0,1,2.94,2.58,6.61,6.61,0,0,1,1.07,3.95,9.38,9.38,0,0,1-1,3.64,11.6,11.6,0,0,1,.29,4.4,5.1,5.1,0,0,1-1.47,3,13.08,13.08,0,0,1-.73,5,10.65,10.65,0,0,1-2.36,3.7,14.58,14.58,0,0,1-.48,2.63A9,9,0,0,1,52.91,52h0c-1.8,2.53-3.24,2.48-5.52,2.38l-1.19,0H25.54a10,10,0,0,1-4.65-.93,11.15,11.15,0,0,1-3.65-3.18l-.3-.88V25.28L18,25c2.67-.72,4.76-3,6.39-5.72A40,40,0,0,0,28,10.54v-7l0-.27ZM94.83,70.16a3.85,3.85,0,0,1-2.14,3,4.29,4.29,0,0,1-2.91.17A8.15,8.15,0,0,1,87,71.87a13.78,13.78,0,0,1-5.1-9.9A29.42,29.42,0,0,1,82,57.59c.09-1,.22-2.11.4-3.23H71.74A11.26,11.26,0,0,1,67,53.13a7.79,7.79,0,0,1-3-2.58A6.74,6.74,0,0,1,63,46.6a9.5,9.5,0,0,1,1-3.63,11.67,11.67,0,0,1-.29-4.41,5.1,5.1,0,0,1,1.47-3,13.08,13.08,0,0,1,.73-4.95,10.61,10.61,0,0,1,2.36-3.69,14.53,14.53,0,0,1,.48-2.64A8.94,8.94,0,0,1,70,21.47h0c1.8-2.54,3.24-2.48,5.52-2.39.32,0,.66,0,1.19,0H97.33A10,10,0,0,1,102,20a11.15,11.15,0,0,1,3.65,3.18l.3.88V48.19l-1,.28c-2.67.72-4.76,3-6.39,5.72a40.22,40.22,0,0,0-3.65,8.74v7l0,.27ZM120.76,50.7H110.47a2.13,2.13,0,0,1-2.12-2.11V20.45a2.13,2.13,0,0,1,2.12-2.12h10.29a2.12,2.12,0,0,1,2.12,2.12V48.59a2.12,2.12,0,0,1-2.12,2.11ZM91.51,70.57a1.12,1.12,0,0,0,.53-.82v-7l.06-.41a42.83,42.83,0,0,1,4-9.57c1.76-3,4.05-5.49,7-6.66V24.6a7.7,7.7,0,0,0-2.39-2,7.33,7.33,0,0,0-3.39-.64H76.68c-.37,0-.85,0-1.3,0-1.35-.05-2.2-.09-3.12,1.2h0a6.52,6.52,0,0,0-.89,2,12.85,12.85,0,0,0-.42,2.6l-.43.93a7.84,7.84,0,0,0-2,3,11,11,0,0,0-.54,4.56L68,37l-.71.44A2.2,2.2,0,0,0,66.4,39a9.25,9.25,0,0,0,.36,3.74l-.11,1a6.88,6.88,0,0,0-.88,2.93A3.85,3.85,0,0,0,66.38,49a5,5,0,0,0,1.89,1.63,8.36,8.36,0,0,0,3.52.9H85.72l-.31,1.66a46.51,46.51,0,0,0-.65,4.62,26.58,26.58,0,0,0-.06,4,10.88,10.88,0,0,0,4,7.85,5.09,5.09,0,0,0,1.79.94,1.53,1.53,0,0,0,1,0ZM2.12,22.77H12.41a2.12,2.12,0,0,1,2.11,2.11V53a2.12,2.12,0,0,1-2.11,2.12H2.12A2.12,2.12,0,0,1,0,53V24.88a2.12,2.12,0,0,1,2.12-2.11ZM31.36,2.9a1.14,1.14,0,0,0-.52.82v7l-.06.41a43.09,43.09,0,0,1-4,9.58c-1.76,2.95-4.05,5.48-7,6.65V48.87a7.64,7.64,0,0,0,2.39,2,7.47,7.47,0,0,0,3.39.63H46.2c.37,0,.85,0,1.3,0,1.35.06,2.2.09,3.12-1.2h0a6.41,6.41,0,0,0,.89-2,13.59,13.59,0,0,0,.42-2.6l.43-.93a7.84,7.84,0,0,0,2-3A11,11,0,0,0,55,37.31l-.05-.84.71-.44a2.18,2.18,0,0,0,.87-1.57,9.25,9.25,0,0,0-.36-3.74l.11-1a7,7,0,0,0,.88-2.93,3.8,3.8,0,0,0-.61-2.3,5,5,0,0,0-1.89-1.64,8.52,8.52,0,0,0-3.52-.9H37.16l.31-1.67a46.51,46.51,0,0,0,.65-4.62,26.58,26.58,0,0,0,.06-4,10.9,10.9,0,0,0-4-7.85,5.26,5.26,0,0,0-1.79-.94,1.53,1.53,0,0,0-1,0Z"/></svg>