<svg id="Layer_1" data-name="Layer 1" xmlns="http://www.w3.org/2000/svg" viewBox="0 0 122.88 122.88"><title>dislike-button-line</title><path d="M61.44,0A61.46,61.46,0,1,1,18,18,61.21,61.21,0,0,1,61.44,0ZM35,71.68h9.64a2,2,0,0,0,2-2V43.27a2,2,0,0,0-2-2H35a2,2,0,0,0-2,2V69.69a2,2,0,0,0,2,2ZM60.3,91.5c1.05,5.3,9.74.42,10.31-8.14a36.51,36.51,0,0,0-.74-9.06H82.29c5.16-.21,9.67-3.9,6.49-10,.72-2.64.83-5.75-1.14-7,.25-4.18-.91-6.77-3.07-8.81A10.46,10.46,0,0,0,83,43.17c-1.67-2.36-3-1.8-5.65-1.8h-21c-3.32,0-5.14.92-7.31,3.64V68.37c6.25,1.68,9.58,10.24,11.25,15.85V91.5Zm37-65.92a50.72,50.72,0,1,0,14.85,35.86A50.59,50.59,0,0,0,97.3,25.58Z"/></svg>