<svg id="Layer_1" data-name="Layer 1" xmlns="http://www.w3.org/2000/svg" viewBox="0 0 122.88 67.54"><defs><style>.cls-1{fill-rule:evenodd;}</style></defs><title>dissatisfied-customer</title><path class="cls-1" d="M23.31,1.08A31.45,31.45,0,1,1,1.08,39.59,31.45,31.45,0,0,1,23.31,1.08ZM92.5,65.38a3.51,3.51,0,0,0,1.75,1.84,4.13,4.13,0,0,0,2.81.15A7.59,7.59,0,0,0,99.74,66a13.19,13.19,0,0,0,4.91-9.52,28.77,28.77,0,0,0-.06-4.23c-.08-1-.21-2-.38-3.1h10.2A11.09,11.09,0,0,0,119,48a7.45,7.45,0,0,0,2.83-2.49,6.27,6.27,0,0,0,1-3.8,9,9,0,0,0-.92-3.49,11,11,0,0,0,.28-4.24,4.93,4.93,0,0,0-1.41-2.87,12.79,12.79,0,0,0-.71-4.77,10,10,0,0,0-2.27-3.55,15.46,15.46,0,0,0-.45-2.54,8.7,8.7,0,0,0-1.27-2.72h0c-1.73-2.45-3.12-2.39-5.31-2.3-.31,0-.63,0-1.14,0H89.79a9.69,9.69,0,0,0-4.48.9,10.66,10.66,0,0,0-3.51,3.06l-.29.84V43.21l1,.27c2.56.69,4.58,2.88,6.14,5.5a39.23,39.23,0,0,1,3.52,8.41v6a3.85,3.85,0,0,0,.32,2ZM65.77,15.26H76.48a2,2,0,0,1,2,2V44.37a2,2,0,0,1-2,2H66.32a37.76,37.76,0,0,0,1.81-24.68l0-.09a37.56,37.56,0,0,0-2.33-6.38ZM95.39,64.75a1.09,1.09,0,0,1-.51-.79V57.2l-.06-.38A41.77,41.77,0,0,0,91,47.6c-1.7-2.84-3.9-5.28-6.76-6.4V20.51a7.45,7.45,0,0,1,2.3-2,7.13,7.13,0,0,1,3.27-.61h19.88l1.25,0c1.3-.05,2.12-.09,3,1.15h0a6.07,6.07,0,0,1,.86,1.89,12.57,12.57,0,0,1,.4,2.5l.42.89a7.64,7.64,0,0,1,2,2.91,10.57,10.57,0,0,1,.52,4.39l0,.8.68.42a2.07,2.07,0,0,1,.83,1.52,9,9,0,0,1-.34,3.59l.1,1a6.68,6.68,0,0,1,.85,2.82,3.67,3.67,0,0,1-.59,2.21,4.9,4.9,0,0,1-1.81,1.58,8.13,8.13,0,0,1-3.4.86H101l.3,1.61c.29,1.55.5,3,.62,4.44a24.6,24.6,0,0,1,.06,3.81,10.47,10.47,0,0,1-3.85,7.55,5,5,0,0,1-1.72.91,1.5,1.5,0,0,1-1,0ZM14.64,48.48c8.55-11.07,26.12-10.83,33.68,0l1.23-1.22c-8.47-14.37-26.4-14.88-36.19-.08l1.28,1.28Zm24.83-32c2.2,0,4,2.59,4,5.77s-1.78,5.77-4,5.77-4-2.58-4-5.77,1.79-5.77,4-5.77Zm-16,0c2.2,0,4,2.59,4,5.77s-1.78,5.77-4,5.77-4-2.58-4-5.77,1.79-5.77,4-5.77Z"/></svg>