<svg id="Layer_1" data-name="Layer 1" xmlns="http://www.w3.org/2000/svg" viewBox="0 0 122.88 112.6"><defs><style>.cls-1{fill-rule:evenodd;}</style></defs><title>drawback </title><path class="cls-1" d="M101.63,67.6A21.25,21.25,0,1,1,80.38,88.85,21.26,21.26,0,0,1,101.63,67.6ZM56.28,0A56.3,56.3,0,0,1,112.6,56.28q0,2.94-.29,5.79a28.79,28.79,0,0,0-9-2c.11-1.29.16-2.59.16-3.89a47.2,47.2,0,1,0-28.63,43.4,28.67,28.67,0,0,0,4.81,7.94A56.31,56.31,0,1,1,56.28,0ZM32.06,65.66H40.9a1.83,1.83,0,0,0,1.83-1.83V39.64a1.83,1.83,0,0,0-1.83-1.83H32.06a1.83,1.83,0,0,0-1.83,1.83v24.2a1.83,1.83,0,0,0,1.83,1.83ZM55.24,83.82c1,4.85,8.92.38,9.44-7.46a33.07,33.07,0,0,0-.67-8.3H75.38c4.73-.19,8.86-3.57,6-9.16.66-2.42.76-5.26-1-6.41.23-3.83-.83-6.2-2.81-8.07A9.54,9.54,0,0,0,76,39.55c-1.53-2.17-2.74-1.65-5.17-1.65H51.62c-3,0-4.71.84-6.69,3.33v21.4c5.72,1.54,8.77,9.38,10.3,14.52v6.67Zm57.25,1.12a1.3,1.3,0,0,1,1.3,1.3v5.23a1.3,1.3,0,0,1-1.3,1.3H90.77a1.3,1.3,0,0,1-1.3-1.3V86.24a1.3,1.3,0,0,1,1.3-1.3Z"/></svg>