<svg id="Layer_1" data-name="Layer 1" xmlns="http://www.w3.org/2000/svg" viewBox="0 0 112.06 122.88"><defs><style>.cls-1{fill-rule:evenodd;}</style></defs><title>durable</title><path class="cls-1" d="M56.73.29a127.8,127.8,0,0,0,28.76,14c8.82,2.85,17.07,4,24.68,3.26a1.52,1.52,0,0,1,1.64,1.36V19c1.36,27.42-2.89,49.42-11.89,66.39-9.52,17.94-24.32,30.25-43.36,37.41a1.49,1.49,0,0,1-1,0c-17.93-6.55-32.2-17.87-41.8-35S-.7,47.84.08,18.15a1.51,1.51,0,0,1,1.54-1.47h0a81.65,81.65,0,0,0,28.18-3.15A77.16,77.16,0,0,0,54.91.32a1.5,1.5,0,0,1,1.82,0Zm24.46,23.9A115.66,115.66,0,0,1,56,12,70.74,70.74,0,0,1,32.54,23.92,74.66,74.66,0,0,1,9.28,26.58c0,23.64,4.22,42,12.12,55.78a62.92,62.92,0,0,0,28.26,26.05L43.74,91c-.87-2.06-1.52-4-2.32-6a40.6,40.6,0,0,0-5.8-9.41A23.65,23.65,0,0,1,32.8,64.27h0c1.42,1.08,3,2.37,4.52,3.57,2.87,2.25,5.89,5,8.89,1,.57-.81,1.15-1.59,1.74-2.32a41.18,41.18,0,0,1,7.69-7.38c-3,3-4.17,8.92-2.74,16.31,1-12,3.91-21.28,18.2-19.4L69.37,52l-5.84,2.2C59,55.87,53.87,49.83,56.15,47c7.78-4.46,18.16-12.84,23.19-3.75l4.12,7.51c5.46,9.75,1.86,13.27-4.9,22.72a65.54,65.54,0,0,1-8.47,9.76c-1.59,1.49-1.33,1-.12,3l7.1,12.63A63.22,63.22,0,0,0,91.12,81.71C98.88,68,102.77,50,102.58,27.33a59.34,59.34,0,0,1-21.39-3.14ZM32.79,51.42a2.44,2.44,0,0,1,1.48-.74,2.52,2.52,0,0,1,.89.1,3.93,3.93,0,0,1,1.72,1.12,88.07,88.07,0,0,1,8.84,8.94c1.48,1.37,1.82,2.78.65,4.15l-2.12,2.37c-1.07,1.08-2.44,1-3.93-.06-6.72-5.64-14.65-8.55-7.53-15.88ZM64,26a2.74,2.74,0,0,1,.9.24c1.52.67,3.28,3.74,4,5.15.48.9,1.86,3.34,3,5.39l-9.6,3.87c-1.54-2.48-2.93-5-4.33-7.07a3.07,3.07,0,0,1-.51-3.27,7.45,7.45,0,0,1,3-2.87C61.34,27,63.15,26,64,26ZM52.64,32.41a2.83,2.83,0,0,1,.92.18,4,4,0,0,1,1.68,1.32,22.43,22.43,0,0,1,2.67,3.57c.47.74,1.5,2.34,2.57,4-3.31,1.49-7.77,2.29-7.93,6.54-1.95-2.67-3.7-5.52-5.42-7.71a3.08,3.08,0,0,1-.71-3.24c.69-1.87,4.36-4.73,6.22-4.7ZM42.4,41a2.8,2.8,0,0,1,.89.1A3.84,3.84,0,0,1,45,42.21a21.75,21.75,0,0,1,2.84,3.19C49,47,53.61,52.83,54.27,54.17A2.42,2.42,0,0,1,53.93,57l-2.72,2.64c-1.08,1.08-2.45,1-3.94-.06C43.79,56.24,40.6,52,37.8,49a2.94,2.94,0,0,1-.95-3c.46-1.72,3.81-4.89,5.55-5Z"/></svg>