<svg id="Layer_1" data-name="Layer 1" xmlns="http://www.w3.org/2000/svg" viewBox="0 0 88.97 122.88"><title>finger-bow</title><path d="M30.27,79.56a2.58,2.58,0,0,1-5.16,0V74.8a2,2,0,0,1-.39-.26Q18.87,69.8,13.06,65a9.52,9.52,0,0,0-4-2,4,4,0,0,0-2.23.1,2.31,2.31,0,0,0-1.22,1.24A7.73,7.73,0,0,0,5.18,68a13.85,13.85,0,0,0,1.24,4.47A29.77,29.77,0,0,0,9.68,78l19.74,29.87a2.5,2.5,0,0,1,.41,1.12c.4,3.23,1.08,5.64,2.09,7.15a3.24,3.24,0,0,0,2.87,1.63c10,0,20.8-.38,30.76,0A9.3,9.3,0,0,0,70.78,116a16.92,16.92,0,0,0,4.8-5.61l.37-.65c3.81-6.55,7.5-12.91,7.88-20.47l-.19-8.78,0-.37,0-2.06c.07-6.41.18-16.24-5.15-17.2H75c.1,2.74-.06,5.57-.2,8.14-.09,1.53-.17,2.94-.17,4.24a2.58,2.58,0,0,1-5.16,0c0-1.23.09-2.81.19-4.52.36-6.39.84-14.94-3.62-15.79H62.69a2.27,2.27,0,0,1-.65-.08,79,79,0,0,1-.14,9.26c-.09,1.52-.17,2.94-.17,4.24a2.58,2.58,0,1,1-5.16,0c0-1.23.09-2.82.19-4.52.36-6.39.84-14.94-3.62-15.79H49.75a2.52,2.52,0,0,1-.67-.09V59.3a2.58,2.58,0,0,1-5.16,0V33.46c.29.44.57.87.83,1.31a45.9,45.9,0,0,1,2.3,4.2,3.76,3.76,0,0,0,2,1.9V41a3,3,0,0,1,.67-.09h3.56a2.88,2.88,0,0,1,.59.07c4.27.69,6.4,3.53,7.41,7.23a2.51,2.51,0,0,1,1.38-.4h3.55a2.27,2.27,0,0,1,.59.07c4.55.73,6.67,3.9,7.59,7.94a2.54,2.54,0,0,1,.68-.09h3.56a2.32,2.32,0,0,1,.59.07c9.76,1.56,9.62,14.13,9.53,22.33,0,3.79.15,7.57.19,11.36-.43,8.84-4.44,15.75-8.56,22.86l-.36.63a21.83,21.83,0,0,1-6.34,7.28,14.32,14.32,0,0,1-8.14,2.6H34.85a8.07,8.07,0,0,1-7.2-3.92,20.94,20.94,0,0,1-2.85-8.8L5.55,81a34.64,34.64,0,0,1-3.84-6.53A18.8,18.8,0,0,1,0,68.3a12.63,12.63,0,0,1,.89-6.06,7.34,7.34,0,0,1,4-3.9A9,9,0,0,1,10.07,58a14.46,14.46,0,0,1,6.27,3.09l8.77,7.17V40.87a3.82,3.82,0,0,0,2-1.9,45.7,45.7,0,0,1,2.29-4.2c.27-.43.54-.87.83-1.31v46.1ZM18.84,25.27a23.07,23.07,0,0,0,8.46-1.85,26.06,26.06,0,0,0,3.86-2H22.5a2,2,0,1,1,0-4.05h8.43c-1.38-.94-2.76-1.83-4.16-2.65l-.14-.09a45.6,45.6,0,0,0-9-4.11c-4.84-1.56-8.13-.86-9.94.88A5.86,5.86,0,0,0,6,15.05a8.12,8.12,0,0,0,1,4.62l0,.09c1.76,3.16,5.67,5.7,11.81,5.51ZM52.35,36.5a2,2,0,0,1-1,2.69,2.07,2.07,0,0,1-2.73-1,53.1,53.1,0,0,0-5.36-8.77A71.28,71.28,0,0,0,37.1,22.2a71.43,71.43,0,0,0-6.2,7.25,53.79,53.79,0,0,0-5.36,8.77,2.06,2.06,0,0,1-2.72,1,2,2,0,0,1-1-2.69A57.69,57.69,0,0,1,27,27.85,27.57,27.57,0,0,1,19,29.31C11,29.55,5.87,26,3.45,21.7l-.07-.12a12.11,12.11,0,0,1-1.47-6.91,9.79,9.79,0,0,1,2.92-6.2c2.81-2.71,7.54-3.92,14.06-1.83a49.81,49.81,0,0,1,9.82,4.5l.14.07a82.27,82.27,0,0,1,8.25,5.6,82.16,82.16,0,0,1,8.24-5.6l.14-.07a49.81,49.81,0,0,1,9.82-4.5c6.52-2.09,11.25-.88,14.06,1.83a9.79,9.79,0,0,1,2.92,6.2,12.11,12.11,0,0,1-1.47,6.91l-.07.12c-2.41,4.34-7.59,7.85-15.51,7.61a27.57,27.57,0,0,1-8.06-1.46,56.06,56.06,0,0,1,5.18,8.65ZM43.26,17.34h4.28a2,2,0,1,1,0,4.05H43a25.67,25.67,0,0,0,3.87,2,23,23,0,0,0,8.46,1.85c6.13.19,10-2.35,11.8-5.51l0-.09a8.11,8.11,0,0,0,1-4.62,5.76,5.76,0,0,0-1.7-3.68c-1.8-1.74-5.1-2.44-9.94-.88a45.6,45.6,0,0,0-9,4.11l-.14.09c-1.39.82-2.78,1.71-4.16,2.65Zm-17-9.55a12.22,12.22,0,0,1,5.79-6.6l.17-.07a11,11,0,0,1,9.85.08,12.29,12.29,0,0,1,5.86,6.59C46.82,8.36,45.7,9,44.59,9.61l-.15.09-1.08.64a7.46,7.46,0,0,0-3.6-4.55,6,6,0,0,0-2.7-.65,5.9,5.9,0,0,0-2.55.58l-.12.07a7.35,7.35,0,0,0-3.55,4.55L29.76,9.7l-.16-.09C28.49,9,27.38,8.35,26.26,7.79Z"/></svg>