<svg id="Layer_1" data-name="Layer 1" xmlns="http://www.w3.org/2000/svg" viewBox="0 0 122.88 114.48"><defs><style>.cls-1{fill-rule:evenodd;}</style></defs><title>freedom</title><path class="cls-1" d="M0,69.54H19.25V106.8H0V69.54ZM120.72,41.43c-2.27.9-4.36,1.4-5.55,3.71-1.44,2.78.6,8-1,13.18-3.13,9.94-11.31,14.17-23.06,11-5.68-1.52-11.53-4.13-16.35-3.72-5.29.45-9.45,3.86-13.79,8.33-4-1.49-4.82-4.14-3.09-8.31-8.12,5.81-13.55-8.45-5-12.57-3.72-3.3-5.15-7.3-2.46-12.56C55.42,52.08,66.6,54.09,80.89,51.25,70.38,46.54,64.18,38.92,66.34,25.61c-1.58-9.1.06-17.13,6-23.77A10.79,10.79,0,0,1,74.15,0c2.2,11.58,9,17.73,15.57,23.64,6,5.36,11.67,10.53,13.09,19.48a1.24,1.24,0,1,0,2.45-.38c-1.55-9.84-7.59-15.29-13.87-21C86.51,17.39,81.48,12.86,78.54,6a17.1,17.1,0,0,0,2.51-1.52c1.26-1,1.91-2.13,3.27-3C84.91,1,85.54.76,86,1.1a2.71,2.71,0,0,1,.57,2c1.4,13.57,12.57,17.54,16.62,23.66a23.72,23.72,0,0,1,3.38,10.53,16.4,16.4,0,0,1,1.13-1.9c2-2.81,5.32-5,8.81-3.56a6.52,6.52,0,0,1,3.15,2.92,9.18,9.18,0,0,1,.84,2.34l.89,1.32.5.75c1.81,2.49,1.13,1.42-1.12,2.3Zm-3.81-5.81a.9.9,0,1,1-1.1.63.89.89,0,0,1,1.1-.63ZM23.47,103.67V72.54h14c5.93,1.06,11.87,4.28,17.81,8H66.16c4.93.3,7.51,5.29,2.72,8.57-3.81,2.8-8.85,2.64-14,2.18-3.56-.18-3.71,4.6,0,4.62,1.29.1,2.69-.2,3.91-.2,6.45,0,11.74-1.24,15-6.33l1.63-3.8,16.18-8c8.09-2.67,13.84,5.8,7.88,11.7a211.59,211.59,0,0,1-36,21.2c-8.93,5.43-17.86,5.25-26.78,0l-13.18-6.8Z"/></svg>