<svg id="Layer_1" data-name="Layer 1" xmlns="http://www.w3.org/2000/svg" viewBox="0 0 92.35 122.88"><defs><style>.cls-1{fill-rule:evenodd;}</style></defs><title>good-quality</title><path class="cls-1" d="M46.18,0a9.26,9.26,0,0,1,5.61,1.76C54,3.16,56.45,5.91,59.5,7.65c4.28,2.45,12.22-.93,16.29,5.11,2.37,3.52,2.48,6.28,2.66,9a15.84,15.84,0,0,0,3.72,9.64c5,6.59,6,11,3.45,15.56-1.75,3.11-5.44,4.85-6.29,6.82-1.82,4.21.19,7.37-2.3,12.27a13.05,13.05,0,0,1-7.93,6.78c-3,1-6-.43-8.39.58C56.5,75.19,53.39,79.3,50,80.34a13,13,0,0,1-7.73,0c-3.35-1-6.46-5.15-10.66-6.92-2.4-1-5.4.39-8.39-.58a13,13,0,0,1-7.94-6.78c-2.49-4.9-.48-8.06-2.3-12.27-.85-2-4.54-3.71-6.29-6.82-2.57-4.58-1.53-9,3.46-15.56a16,16,0,0,0,3.72-9.64c.17-2.73.28-5.49,2.66-9,4.06-6,12-2.66,16.29-5.11,3-1.74,5.51-4.49,7.7-5.88A9.29,9.29,0,0,1,46.18,0Zm-.55,25.87c.56-2.84,5.21-.23,5.51,4.34a19.52,19.52,0,0,1-.4,4.85h6.64c2.76.11,5.17,2.09,3.47,5.33.39,1.42.45,3.08-.61,3.73a5.45,5.45,0,0,1-1.64,4.71,5.58,5.58,0,0,1-.85,2.87c-.89,1.26-1.62,1-3,1H43.52a4.3,4.3,0,0,1-3.9-2V38.24c3.34-.9,5.11-5.48,6-8.48V25.88ZM31.76,36.47h5.08a1.06,1.06,0,0,1,1.06,1.06V51.65a1.06,1.06,0,0,1-1.06,1.07H31.76a1.07,1.07,0,0,1-1.06-1.07V37.53a1.07,1.07,0,0,1,1.06-1.06Zm2.92,9.37a1.34,1.34,0,1,1-1.34,1.34,1.34,1.34,0,0,1,1.34-1.34ZM3.39,113.07,15,111l5.73,10.25c4.15,5.15,6.79-3.31,8-6.26L39.78,94c-2.57-.89-5.66-3.47-8.85-6.35-6.35.13-12.27-1-16.62-6.51L1.5,105.85.38,108.23c-.87,3.09-.41,5.13,3,4.84Zm85.57,0L77.41,111l-5.73,10.25c-4.16,5.15-6.8-3.31-8-6.26L52.57,94c2.57-.89,5.67-3.47,8.85-6.35,6.35.13,12.27-1,16.62-6.51l12.82,24.75L92,108.23c.87,3.09.41,5.13-3,4.84ZM46.18,15.33A25.14,25.14,0,1,1,21,40.47,25.13,25.13,0,0,1,46.18,15.33Z"/></svg>