<svg id="Layer_1" data-name="Layer 1" xmlns="http://www.w3.org/2000/svg" viewBox="0 0 122.88 79.63"><title>good-quality-thumbs-up</title><path d="M91.4,2.81A3.59,3.59,0,0,1,93.21.91,4.23,4.23,0,0,1,96.12.75,8,8,0,0,1,98.9,2.17,13.71,13.71,0,0,1,104,12a29.48,29.48,0,0,1-.07,4.38c-.08,1-.21,2.1-.39,3.22h10.58a11.37,11.37,0,0,1,4.76,1.22,7.76,7.76,0,0,1,2.94,2.58,6.51,6.51,0,0,1,1.06,3.93,9.29,9.29,0,0,1-1,3.63,11.36,11.36,0,0,1,.28,4.39,5.11,5.11,0,0,1-1.45,3A13.21,13.21,0,0,1,120,43.3,10.45,10.45,0,0,1,117.66,47a15.21,15.21,0,0,1-.47,2.62,9,9,0,0,1-1.32,2.83h0c-1.79,2.53-3.23,2.47-5.5,2.38-.32,0-.65,0-1.18,0H88.59A10,10,0,0,1,84,53.86a11,11,0,0,1-3.64-3.17L80,49.81v-24l1-.28c2.65-.71,4.74-3,6.37-5.7a40,40,0,0,0,3.64-8.72V4.85a3.94,3.94,0,0,1,.34-2ZM29.51,1.36A39.88,39.88,0,0,1,71.75,16H65.31A34.87,34.87,0,0,0,9.7,22.26l-.07.13A34.88,34.88,0,0,0,22.26,69.94l.13.07A34.9,34.9,0,0,0,66,62.81H72.3A39.78,39.78,0,0,1,19.91,74.29l-.14-.09A39.77,39.77,0,0,1,5.35,19.91l.09-.14A39.65,39.65,0,0,1,29.51,1.36ZM18.94,18.93l4.28,1.46,3.62-2.71-.06,4.52,3.7,2.61-4.32,1.34-1.34,4.32-2.61-3.7-4.52.06,2.71-3.62-1.46-4.28ZM10.58,39.81l4.06-2,.64-4.48,3.15,3.24,4.46-.76-2.11,4,2.11,4L18.43,43l-3.15,3.24-.64-4.48-4.06-2Zm8.36,20.87,1.45-4.28-2.7-3.62,4.52.06,2.6-3.69,1.34,4.32,4.32,1.33-3.69,2.61.06,4.52-3.62-2.71-4.28,1.46ZM39.81,69l-2-4.05-4.47-.65,3.24-3.15-.77-4.46,4,2.11,4-2.11L43,61.19l3.24,3.15L41.8,65l-2,4.05Zm0-58.46,2,4.05,4.47.65-3.24,3.15.77,4.46-4-2.11-4,2.11.77-4.46-3.24-3.15,4.47-.65,2-4.05Zm28.54,22.9a2.21,2.21,0,1,0-2.21-2.21,2.21,2.21,0,0,0,2.21,2.21ZM54.09,23.28h20.7a2.12,2.12,0,0,1,2.11,2.11V53.46a2.12,2.12,0,0,1-2.11,2.11H49.59a2.12,2.12,0,0,1-2.11-2.11c2.3-9.36,2.2-18.71,4.5-28.07a2.12,2.12,0,0,1,2.11-2.11ZM94.39,3.47a1.12,1.12,0,0,0-.53.82v7l-.06.4a43.53,43.53,0,0,1-4,9.55c-1.76,2.94-4,5.47-7,6.64V49.31a7.53,7.53,0,0,0,2.39,2,7.41,7.41,0,0,0,3.39.63h20.6c.37,0,.84,0,1.29,0,1.35,0,2.2.09,3.11-1.2h0a6.35,6.35,0,0,0,.9-2,12.86,12.86,0,0,0,.41-2.6l.44-.92a8.12,8.12,0,0,0,2-3,11.1,11.1,0,0,0,.54-4.54l0-.84.71-.44a2.15,2.15,0,0,0,.86-1.56,9.2,9.2,0,0,0-.36-3.73l.11-1a7.13,7.13,0,0,0,.89-2.92,3.87,3.87,0,0,0-.62-2.3,5,5,0,0,0-1.88-1.63,8.36,8.36,0,0,0-3.52-.89H100.17l.31-1.66c.3-1.61.52-3.15.65-4.6a26.58,26.58,0,0,0,.06-4,10.84,10.84,0,0,0-4-7.82,5.41,5.41,0,0,0-1.78-.94,1.56,1.56,0,0,0-1,0Z"/></svg>