<svg id="Layer_1" data-name="Layer 1" xmlns="http://www.w3.org/2000/svg" viewBox="0 0 104.49 122.88"><title>hand-pointer</title><path d="M35.54,72a3,3,0,1,1-6.05,0v-5.6a2.34,2.34,0,0,1-.47-.3c-1.92-1.54-4-3.25-5.85-4.74-2.66-2.17-5.71-4.68-7.84-6.44a10.92,10.92,0,0,0-4.67-2.35A4.66,4.66,0,0,0,8,52.7a2.64,2.64,0,0,0-1.42,1.46,9,9,0,0,0-.53,4.25,16.22,16.22,0,0,0,1.46,5.24,34.83,34.83,0,0,0,3.83,6.48c.07.09.13.19.19.28l23,34.8a3,3,0,0,1,.48,1.31c.46,3.79,1.27,6.63,2.45,8.4a3.83,3.83,0,0,0,3.37,1.92H77a10.87,10.87,0,0,0,6.15-2,19.67,19.67,0,0,0,5.63-6.59l.44-.75c4.47-7.7,8.8-15.18,9.26-24.05l-.23-10.3a2.12,2.12,0,0,1,0-.44l0-2.42c.08-6.81.18-15.23-6-16.3h-4c0,1.92-.15,3.88-.27,5.77-.1,1.68-.21,3.31-.21,4.87a3,3,0,0,1-6,0c0-1.56.11-3.37.23-5.25.41-6.41.87-13.77-4.26-14.69h-4a2.81,2.81,0,0,1-.65-.07c0,2.32-.11,4.73-.26,7-.11,1.68-.21,3.31-.21,4.86a3,3,0,0,1-6.06,0c0-1.55.12-3.36.24-5.24.4-6.41.87-13.77-4.26-14.69h-4a2.9,2.9,0,0,1-.79-.11V48.23a3,3,0,0,1-6.06,0V16.78c0-5.27-2.15-8.59-4.9-10a6.87,6.87,0,0,0-6.3,0c-2.72,1.39-4.84,4.72-4.84,10.12V72Zm45.3,9.42a2.48,2.48,0,0,1,5,0V92.74a2.48,2.48,0,0,1-5,0V81.43Zm-14.62-5a2.48,2.48,0,0,1,5,0V92.74a2.48,2.48,0,0,1-5,0V76.43ZM51.61,72.9a2.47,2.47,0,1,1,4.94,0V92.74a2.47,2.47,0,0,1-4.94,0V72.9ZM29.49,58.72V16.91c0-8,3.57-13.18,8.15-15.51a13,13,0,0,1,11.77,0c4.61,2.33,8.23,7.5,8.23,15.37V30.66a2.9,2.9,0,0,1,.79-.11H62.6a3.08,3.08,0,0,1,.68.08c5.56.86,8,4.11,9.06,8.3a2.85,2.85,0,0,1,1.27-.29h4.18a2.93,2.93,0,0,1,.67.08c6,.93,8.4,4.61,9.27,9.26a3.44,3.44,0,0,1,.46,0h4.18A2.93,2.93,0,0,1,93,48c11.46,1.77,11.32,13.16,11.21,22.35,0,.32,0,.66,0,2.31l.24,10.66a1.93,1.93,0,0,1,0,.34c-.51,10.39-5.21,18.5-10.06,26.86l-.42.72a25.55,25.55,0,0,1-7.45,8.56A16.76,16.76,0,0,1,77,122.87H40.92a9.43,9.43,0,0,1-8.45-4.59c-1.66-2.48-2.76-6-3.35-10.33L6.52,73.75A41.28,41.28,0,0,1,2,66.09,22.1,22.1,0,0,1,.05,58.78a14.85,14.85,0,0,1,1-7.11,8.63,8.63,0,0,1,4.67-4.58,10.6,10.6,0,0,1,6.06-.44,17.07,17.07,0,0,1,7.37,3.62c1.83,1.52,4.87,4,7.81,6.41l2.49,2Z"/></svg>