<svg id="Layer_1" data-name="Layer 1" xmlns="http://www.w3.org/2000/svg" viewBox="0 0 105.92 122.88"><title>hands-up</title><path d="M46,55.17a6.6,6.6,0,0,1,6.35,1.54,6.25,6.25,0,0,1,1.41,2,6.09,6.09,0,0,1,.49,2.37h0V90.83L54,95.17a15.61,15.61,0,0,1-1.43,4.36,16.26,16.26,0,0,1-3.11,4.26h0v19.09H45.13v-17.7c0-2.9.09-3,.95-3.51a6.14,6.14,0,0,0,1.8-1.73,12.1,12.1,0,0,0,1.9-3.52,11.92,11.92,0,0,0,.66-3.93q0-15.69,0-31.39a2.36,2.36,0,0,0-.18-.92v0a2.53,2.53,0,0,0-.57-.82,2.77,2.77,0,0,0-.83-.54h0a2.78,2.78,0,0,0-2,0,2.35,2.35,0,0,0-.86.55,2.83,2.83,0,0,0-.57.81,2.47,2.47,0,0,0-.19.94h0V72.15a.58.58,0,0,1-.57.57H41.94a.58.58,0,0,1-.58-.57V54.88a2.29,2.29,0,0,0-.19-.94,2.39,2.39,0,0,0-.57-.81h0a2.82,2.82,0,0,0-.85-.55,2.75,2.75,0,0,0-1-.19,2.79,2.79,0,0,0-1,.19,2.64,2.64,0,0,0-.86.55,2.83,2.83,0,0,0-.57.81,2.47,2.47,0,0,0-.19.94V72.15a.58.58,0,0,1-.57.57H32.72a.58.58,0,0,1-.57-.57V49.06a2.51,2.51,0,0,0-.18-.92v0a2.47,2.47,0,0,0-.57-.81,2.53,2.53,0,0,0-.86-.55,2.56,2.56,0,0,0-1-.19,2.63,2.63,0,0,0-1,.18h0a2.4,2.4,0,0,0-.85.55,2.33,2.33,0,0,0-.76,1.75v23.1a.58.58,0,0,1-.58.57H23.58a.58.58,0,0,1-.57-.57V54.94a2.43,2.43,0,0,0-.19-.94,2.63,2.63,0,0,0-.57-.81,2.44,2.44,0,0,0-.86-.55,2.75,2.75,0,0,0-1-.19,2.83,2.83,0,0,0-1,.19,2.5,2.5,0,0,0-.83.53l0,0A2.25,2.25,0,0,0,18,54a2.29,2.29,0,0,0-.19.94c0,4.18,0,8.86,0,13.53,0,4.12,0,8.23,0,13.48-.06.91.3,8.06-3,5.8a10.3,10.3,0,0,1-1.21-.85c-.47-.38-.95-.8-1.42-1.21-1-.9-2.05-1.9-2.44-2.28h0A6.16,6.16,0,0,0,7.5,82a2.58,2.58,0,0,0-3.58,1.66A3.34,3.34,0,0,0,4.2,86c.63,1.39,2.48,2.93,3.6,4,3,3,8.64,8.63,13,11.8l.13.11a8.67,8.67,0,0,1,.8,1.11,7.79,7.79,0,0,1,.58,1.24,5.49,5.49,0,0,1,.28,1.13,6.4,6.4,0,0,1,.07,1.18h0v16.3H18.26V105c-4.12-3-8.85-7.92-12.11-11.27C4.33,91.83,1.53,89.5.56,87.12A6.9,6.9,0,0,1,.19,82.8a6.48,6.48,0,0,1,.57-1.48A6.26,6.26,0,0,1,1.69,80a5.92,5.92,0,0,1,1.24-1,7,7,0,0,1,1.47-.66,7,7,0,0,1,4.06.05,9.63,9.63,0,0,1,3.82,2.34l.94.9.61.57V82c0-.25,0-.49,0-.75s.05-.45.08-.7V54.94a6.09,6.09,0,0,1,.49-2.37,6.25,6.25,0,0,1,1.41-2,6.17,6.17,0,0,1,2.09-1.33,6.43,6.43,0,0,1,2.44-.47,6.89,6.89,0,0,1,1.88.27,6,6,0,0,1,.84.31v-.29A6,6,0,0,1,25,44.67a6.41,6.41,0,0,1,2.08-1.34,6.77,6.77,0,0,1,2.46-.47,6.64,6.64,0,0,1,2.45.47,6.8,6.8,0,0,1,2.09,1.34,6.12,6.12,0,0,1,1.4,2,5.92,5.92,0,0,1,.5,2.37h0v.24a8.71,8.71,0,0,1,.85-.32,6.57,6.57,0,0,1,1.92-.29h0a6.72,6.72,0,0,1,2.45.47,6.55,6.55,0,0,1,2.08,1.33,6.25,6.25,0,0,1,1.41,2,6.09,6.09,0,0,1,.49,2.37v.57a8.34,8.34,0,0,1,.8-.26ZM97.65,12.3a6.89,6.89,0,0,1,1.82-.25,6.44,6.44,0,0,1,2.45.47A6.6,6.6,0,0,1,104,13.85a6.23,6.23,0,0,1,1.4,2,6.09,6.09,0,0,1,.49,2.37h0l0,29.74-.24,4.34a15.63,15.63,0,0,1-1.44,4.36,16,16,0,0,1-3.11,4.26h0v62H96.8V62.32c0-2.9.09-3,1-3.51a6,6,0,0,0,1.8-1.73,12.37,12.37,0,0,0,1.91-3.52,12,12,0,0,0,.65-3.93q0-15.69,0-31.39a2.55,2.55,0,0,0-.18-.92v0a2.88,2.88,0,0,0-.57-.82,2.53,2.53,0,0,0-.83-.54h0a2.75,2.75,0,0,0-1-.19,2.83,2.83,0,0,0-1,.19,2.31,2.31,0,0,0-.85.55,2.39,2.39,0,0,0-.57.81,2.26,2.26,0,0,0-.2.94h0V29.29a.57.57,0,0,1-.57.57H93.61a.58.58,0,0,1-.57-.57V12a2.47,2.47,0,0,0-.19-.94,2.7,2.7,0,0,0-.57-.81h0a2.69,2.69,0,0,0-1.87-.74,2.83,2.83,0,0,0-1,.19,2.6,2.6,0,0,0-.85.55,2.49,2.49,0,0,0-.57.81,2.29,2.29,0,0,0-.19.94V29.29a.58.58,0,0,1-.58.57H84.4a.58.58,0,0,1-.58-.57V6.2a2.32,2.32,0,0,0-.18-.92v0a2.26,2.26,0,0,0-.57-.8A2.71,2.71,0,0,0,81.2,3.7a2.8,2.8,0,0,0-1,.18h0a2.64,2.64,0,0,0-.86.55,2.83,2.83,0,0,0-.57.81,2.48,2.48,0,0,0-.19,1v23.1a.58.58,0,0,1-.57.57H75.26a.57.57,0,0,1-.57-.57V12.08a2.26,2.26,0,0,0-.2-.94,2.33,2.33,0,0,0-.57-.81,2.4,2.4,0,0,0-.85-.55,2.56,2.56,0,0,0-1-.19,2.59,2.59,0,0,0-1,.19,2.32,2.32,0,0,0-.83.53l0,0a2.52,2.52,0,0,0-.57.82,2.43,2.43,0,0,0-.19.94c0,4.18,0,8.86,0,13.53,0,4.12,0,8.23,0,13.48,0,.91.3,8.06-3,5.8a9.53,9.53,0,0,1-1.21-.85c-.47-.38-1-.8-1.43-1.21-1-.9-2-1.9-2.43-2.28h0a6.28,6.28,0,0,0-2.15-1.4,2.57,2.57,0,0,0-3.58,1.66,3.37,3.37,0,0,0,.28,2.26c.64,1.4,2.48,2.94,3.6,4.06,3,3,8.65,8.63,13,11.8a.67.67,0,0,1,.14.11,7.73,7.73,0,0,1,.79,1.11,6.16,6.16,0,0,1,.87,2.37,6.43,6.43,0,0,1,.06,1.18h0v59.16H69.94V62.11c-4.12-3-8.86-7.92-12.12-11.27C56,49,53.21,46.63,52.23,44.26a6.55,6.55,0,0,1,.21-5.8,6.11,6.11,0,0,1,2.16-2.28,7.24,7.24,0,0,1,1.47-.66,7.06,7.06,0,0,1,4.07,0A9.68,9.68,0,0,1,64,37.91l1,.9.6.57V39.1a6.39,6.39,0,0,1,0-.75c0-.23,0-.45.07-.7V12.08a5.92,5.92,0,0,1,.5-2.37,6.12,6.12,0,0,1,1.4-2A6.26,6.26,0,0,1,69.6,6.37a6.45,6.45,0,0,1,2.45-.48,6.76,6.76,0,0,1,1.87.27,6.06,6.06,0,0,1,.84.32V6.19a5.92,5.92,0,0,1,.5-2.37,6,6,0,0,1,1.4-2A6.45,6.45,0,0,1,78.75.47a6.57,6.57,0,0,1,7,1.34,6,6,0,0,1,1.9,4.38h0v.24a8.71,8.71,0,0,1,.85-.32,6.58,6.58,0,0,1,1.92-.3h0a6.45,6.45,0,0,1,2.45.48A6.6,6.6,0,0,1,95,7.62a6.23,6.23,0,0,1,1.4,2,5.92,5.92,0,0,1,.5,2.37v.57c.24-.09.51-.19.79-.27Z"/></svg>