<?xml version="1.0" encoding="utf-8"?><svg version="1.1" id="Layer_1" xmlns="http://www.w3.org/2000/svg" xmlns:xlink="http://www.w3.org/1999/xlink" x="0px" y="0px" viewBox="0 0 89.78 122.88" style="enable-background:new 0 0 89.78 122.88" xml:space="preserve"><style type="text/css">.st0{fill-rule:evenodd;clip-rule:evenodd;}</style><g><path class="st0" d="M36.66,29.82h0.41c3.18,0,5.78,2.6,5.78,5.78v37.18h3.74V57.21c0-2.95,2.42-5.37,5.37-5.37h0.41 c3.18,0,5.78,2.6,5.78,5.78v15.57l0.18-0.06h4.05V61.28c0-2.95,2.42-5.37,5.37-5.37h0.41c3.18,0,5.78,2.6,5.78,5.78v10.83 l0.05,0.02L78,72.51v-7.65c0-2.95,2.42-5.37,5.37-5.37h0.41c3.18,0,5.78,2.6,5.78,5.78v16.2c0,0.2-0.01,0.4-0.03,0.59l0.19,0.16 c0.35,10.44-0.36,25.4-8.95,32.87c-8.52,6.92-17.05,8.74-25.89,7.35c-12.07-1.9-18.35-8.44-24.07-18.82L8.18,67.74 C7,64.97,7.16,63.08,8.35,61.88c5.1-3.31,13.41,3.72,22.62,13.67l0.33-0.08V35.19C31.29,32.24,33.71,29.82,36.66,29.82L36.66,29.82 z M40.17,14.29c0,1.57-1.27,2.84-2.84,2.84c-1.57,0-2.84-1.27-2.84-2.84L34.47,2.84c0-1.57,1.27-2.84,2.84-2.84 c1.57,0,2.84,1.27,2.84,2.84L40.17,14.29L40.17,14.29z M14.29,37.76c1.57,0,2.84,1.27,2.84,2.84c0,1.57-1.27,2.84-2.84,2.84 L2.84,43.44C1.27,43.44,0,42.17,0,40.6c0-1.57,1.27-2.84,2.84-2.84L14.29,37.76L14.29,37.76z M22.41,20.77 c1.11,1.11,1.1,2.92-0.01,4.02c-1.11,1.11-2.92,1.1-4.02-0.01l-8.09-8.1c-1.11-1.11-1.1-2.92,0.01-4.02 c1.11-1.11,2.92-1.1,4.02,0.01L22.41,20.77L22.41,20.77z M59.8,43.45c-1.57,0-2.84-1.27-2.84-2.84c0-1.57,1.27-2.84,2.84-2.84 l11.45-0.01c1.57,0,2.84,1.27,2.84,2.84c0,1.57-1.27,2.84-2.84,2.84L59.8,43.45L59.8,43.45z M55.72,24.16 c-1.11,1.11-2.91,1.12-4.02,0.01c-1.11-1.11-1.12-2.91-0.01-4.02l8.09-8.1c1.11-1.11,2.91-1.12,4.02-0.01 c1.11,1.11,1.12,2.91,0.01,4.02L55.72,24.16L55.72,24.16z"/></g></svg>