<svg id="Layer_1" data-name="Layer 1" xmlns="http://www.w3.org/2000/svg" viewBox="0 0 85.55 122.88"><defs><style>.cls-1{fill:#231f20;}</style></defs><title>hand-mouse-cursor</title><path class="cls-1" d="M31.66,83.11a2.37,2.37,0,0,1-4.74,0V78.74a2.82,2.82,0,0,1-.36-.24C25.06,77.3,23.4,76,22,74.77c-2.07-1.69-4.45-3.64-6.1-5a8.76,8.76,0,0,0-3.65-1.84,3.78,3.78,0,0,0-2.06.09A2.15,2.15,0,0,0,9,69.15a7.27,7.27,0,0,0-.41,3.33,12.62,12.62,0,0,0,1.15,4.1,27.12,27.12,0,0,0,3,5.06l.15.22,18,27.21a2.36,2.36,0,0,1,.38,1,15.66,15.66,0,0,0,1.92,6.57,2.94,2.94,0,0,0,2.63,1.49H64.05a8.39,8.39,0,0,0,4.8-1.55,15.29,15.29,0,0,0,4.4-5.15l.34-.58c3.5-6,6.89-11.87,7.24-18.81l-.18-8c0-.11,0-.23,0-.35l0-1.89c.07-5.32.15-11.9-4.72-12.73H72.78c0,1.5-.11,3-.2,4.5-.09,1.32-.17,2.6-.17,3.81a2.37,2.37,0,0,1-4.73,0c0-1.22.09-2.64.18-4.1.32-5,.68-10.77-3.33-11.49H61.42a2.76,2.76,0,0,1-.51,0c0,1.81-.09,3.69-.2,5.5-.09,1.32-.17,2.6-.17,3.81a2.37,2.37,0,1,1-4.73,0c0-1.22.09-2.63.18-4.1.32-5,.68-10.77-3.33-11.49H49.55a2.11,2.11,0,0,1-.62-.08v9.17a2.37,2.37,0,0,1-4.74,0V39.93c0-4.11-1.68-6.71-3.82-7.8a5.48,5.48,0,0,0-2.47-.6,5.38,5.38,0,0,0-2.46.6c-2.13,1.08-3.78,3.69-3.78,7.9V83.11ZM11.92,37.63a3.12,3.12,0,1,1,0,6.23H3.11a3.12,3.12,0,0,1,0-6.23ZM20.82,19a3.12,3.12,0,0,1-4.43,4.39l-7-7A3.11,3.11,0,1,1,13.82,12l7,7Zm41,24.84a3.12,3.12,0,0,1,0-6.23h8.81a3.12,3.12,0,1,1,0,6.23ZM57.3,22.73a3.12,3.12,0,0,1-4.42-4.4l7-7a3.12,3.12,0,0,1,4.42,4.4l-7,7Zm-17-10.81a3.12,3.12,0,1,1-6.23,0V3.11a3.12,3.12,0,0,1,6.23,0v8.81Zm26.8,78.56a1.94,1.94,0,1,1,3.87,0v8.84a1.94,1.94,0,0,1-3.87,0V90.48ZM55.64,86.57a1.94,1.94,0,0,1,3.87,0V99.32a1.94,1.94,0,0,1-3.87,0V86.57ZM26.92,72.72V40c0-6.26,2.8-10.3,6.37-12.12a10.21,10.21,0,0,1,9.2,0c3.61,1.82,6.44,5.86,6.44,12V50.78a2.51,2.51,0,0,1,.62-.08h3.26a2.33,2.33,0,0,1,.53.06,7.89,7.89,0,0,1,7.08,6.49,2.36,2.36,0,0,1,1-.22h3.26a2.33,2.33,0,0,1,.53.06c4.68.72,6.57,3.6,7.24,7.24a2.22,2.22,0,0,1,.37,0h3.26a2.33,2.33,0,0,1,.53.06c9,1.38,8.85,10.29,8.76,17.47,0,3.38.1,6.76.18,10.14a2.43,2.43,0,0,1,0,.27c-.4,8.12-4.08,14.46-7.87,21l-.32.57a20.15,20.15,0,0,1-5.82,6.69,13.15,13.15,0,0,1-7.47,2.38H35.86a7.35,7.35,0,0,1-6.6-3.58,19.2,19.2,0,0,1-2.62-8.08L9,84.47a32,32,0,0,1-3.52-6,17.06,17.06,0,0,1-1.53-5.71,11.59,11.59,0,0,1,.82-5.56,6.7,6.7,0,0,1,3.64-3.58,8.25,8.25,0,0,1,4.74-.35,13.42,13.42,0,0,1,5.76,2.84c1.43,1.18,3.79,3.12,6.09,5l2,1.61Z"/></svg>