<svg id="Layer_1" data-name="Layer 1" xmlns="http://www.w3.org/2000/svg" viewBox="0 0 122.88 122.39"><defs><style>.cls-1,.cls-2{fill:#1a1a1a;}.cls-2,.cls-3,.cls-4{fill-rule:evenodd;}.cls-3,.cls-5{fill:#fff;}.cls-4{fill:#01a601;}</style></defs><title>insurance-protection</title><path class="cls-1" d="M32.66,110.85h.19a1.65,1.65,0,0,1,.31,0H56.6a1.56,1.56,0,0,1,1.56,1.56v8.45a1.56,1.56,0,0,1-1.56,1.57H32a1.56,1.56,0,0,1-1.56-1.57v-8.45A1.56,1.56,0,0,1,32,110.81h.33a1.5,1.5,0,0,1,.37,0Zm23.88-3.71h-23a1.55,1.55,0,0,1-1.18-.54c-.89-.88-1.82-1.78-2.79-2.71l-3-2.87c-2.16-2-4.36-4.12-6.64-6.4S15.36,90,13,87.25a35.8,35.8,0,0,1-5.33-7.46,38.47,38.47,0,0,1-2.45-7.33l-.48-1.8-.6-2.13C3.23,65.29,2.34,62,1.38,58.77a25.33,25.33,0,0,1-1.29-5.4A9.47,9.47,0,0,1,.45,49a4.41,4.41,0,0,1,.5-1,3.15,3.15,0,0,1,.82-.81,2.72,2.72,0,0,1,.9-.37,2.84,2.84,0,0,1,.92,0,4.28,4.28,0,0,1,1.77.6,6.35,6.35,0,0,1,1.48,1.22,1.29,1.29,0,0,1,.29.45l8.2,19.5,0,.08a1.43,1.43,0,0,1,.14.2A7.93,7.93,0,0,0,16.25,70a9.92,9.92,0,0,0,.94,1l16.28,15.5.11.13a.58.58,0,0,0,.37.15.55.55,0,0,0,.37-.1l.1-.09a.64.64,0,0,0,.14-.35.56.56,0,0,0-.1-.36l-.14-.16c-4.62-5.39-9.94-12.29-14.78-17.22A8.48,8.48,0,0,1,18.26,67a6.05,6.05,0,0,1-.8-1.78,4.11,4.11,0,0,1,.12-2.69,3.7,3.7,0,0,1,1.12-1.46,4.37,4.37,0,0,1,1.53-.75,5.28,5.28,0,0,1,3.34.25,9.49,9.49,0,0,1,2.22,1.34,15.09,15.09,0,0,1,2,2h0s0,0,0,0c1.74,1.79,3.66,3.56,5.45,5.31,1.18,1.12,2.52,2.54,4,4.06,3.35,3.55,7.26,7.68,10.38,9.39a8.77,8.77,0,0,1,.91.55c.31.2.59.4.86.61s.54.42.85.67c0,0,.76.65.79.65a23.05,23.05,0,0,1,3.17,3.18,12.43,12.43,0,0,1,1.86,3.18l0,.08A17.39,17.39,0,0,1,57,95.15c.23,1.29.4,2.75.59,4.42.07.57.14,1.25.21,2s.13,1.43.16,2l.11,1.92a1.55,1.55,0,0,1-1.49,1.62Z"/><path class="cls-1" d="M90.15,110.85h.07a1.47,1.47,0,0,1,.36,0h.34a1.56,1.56,0,0,1,1.56,1.56v8.45a1.56,1.56,0,0,1-1.56,1.57H66.28a1.56,1.56,0,0,1-1.56-1.57v-8.45a1.56,1.56,0,0,1,1.56-1.56H89.72a1.65,1.65,0,0,1,.31,0Zm-.83-3.7H66.26a1.56,1.56,0,0,1-1.48-1.63l.11-1.91c0-.58.09-1.25.16-2s.14-1.45.21-2c.19-1.67.36-3.13.59-4.42a17.82,17.82,0,0,1,1-3.65,12.43,12.43,0,0,1,1.86-3.18,23.05,23.05,0,0,1,3.17-3.18l.79-.65c.26-.22.54-.44.85-.67s.55-.41.86-.61a8.77,8.77,0,0,1,.91-.55c3.12-1.71,7-5.84,10.38-9.39,1.43-1.52,2.77-2.94,4-4.06,1.79-1.75,3.71-3.52,5.45-5.31,0,0,0,0,0,0h0a14.1,14.1,0,0,1,2-2,9.49,9.49,0,0,1,2.22-1.34,5.28,5.28,0,0,1,3.34-.25,4.37,4.37,0,0,1,1.53.75,3.7,3.7,0,0,1,1.12,1.46,4.11,4.11,0,0,1,.12,2.69,6.17,6.17,0,0,1-.8,1.78,8.27,8.27,0,0,1-1.29,1.56c-4.94,5.37-9.85,12.29-14.87,17.31a.6.6,0,0,0-.14.42.58.58,0,0,0,.19.4.61.61,0,0,0,.79,0l.11-.13L105.69,71a9.92,9.92,0,0,0,.94-1,8.92,8.92,0,0,0,.74-1.11,1.43,1.43,0,0,1,.14-.2l0-.08,8.19-19.5a1.48,1.48,0,0,1,.3-.45,6.35,6.35,0,0,1,1.48-1.22,4.24,4.24,0,0,1,1.77-.6,2.84,2.84,0,0,1,.92,0,2.72,2.72,0,0,1,.9.37,3.15,3.15,0,0,1,.82.81,4.41,4.41,0,0,1,.5,1,9.47,9.47,0,0,1,.36,4.35,25.42,25.42,0,0,1-1.31,5.45l-2.76,9.71-.59,2.13-.48,1.8a38.47,38.47,0,0,1-2.45,7.33,35.54,35.54,0,0,1-5.34,7.46c-2.34,2.7-4.65,5.12-6.91,7.38S98.47,99,96.31,101l-3,2.79-.07.08c-1,.93-1.9,1.83-2.79,2.71a1.55,1.55,0,0,1-1.18.54Z"/><path class="cls-2" d="M95.43,11c1.72,34.87-11.16,55.47-34,64.06-22-8.05-35.06-27.75-34.1-64.59,11.59.61,23-1.89,34-10.45C71.1,6.2,83.56,12.07,95.43,11Zm-3.76,2.94c1.53,31-9.92,49.33-30.22,57-19.6-7.16-31.19-24.68-30.33-57.44a43.4,43.4,0,0,0,30.22-9.3C70,9.66,81.12,14.88,91.67,13.92Z"/><path class="cls-3" d="M91.67,13.92c1.53,31-9.92,49.33-30.22,57-19.6-7.16-31.19-24.68-30.33-57.44a43.4,43.4,0,0,0,30.22-9.3C70,9.66,81.12,14.88,91.67,13.92Z"/><path class="cls-4" d="M85.85,18.47c1.24,25-8,39.82-24.4,46C45.62,58.68,36.27,44.53,37,18.08a35,35,0,0,0,24.4-7.5c7,4.45,16,8.66,24.49,7.89Z"/><path class="cls-5" d="M47.35,34.91l5-.06h.08l.38.09.09,0c.51.29,1,.61,1.49.94s.94.7,1.38,1.07.63.55,1,.86l.62.62c.81-1.29,1.66-2.55,2.52-3.76s2-2.63,3-3.85,2.24-2.61,3.42-3.83,2.37-2.37,3.6-3.47l.1-.07.48-.18a.25.25,0,0,1,.12,0h5.42a.33.33,0,0,1,.33.33.33.33,0,0,1-.1.23l-1.08,1.2c-1.68,1.86-3.27,3.75-4.79,5.66s-3,3.9-4.36,5.89-2.67,4-3.9,6-2.4,4.15-3.5,6.27l-.68,1.32a.33.33,0,0,1-.43.14.36.36,0,0,1-.15-.15l-.62-1.35a32.18,32.18,0,0,0-1.9-3.53v0a30.27,30.27,0,0,0-2.25-3.18,26.62,26.62,0,0,0-2.66-2.85,27,27,0,0,0-3.1-2.48.32.32,0,0,1-.12-.35l.4-1.33a.31.31,0,0,1,.32-.23Z"/></svg>