<svg xmlns="http://www.w3.org/2000/svg" shape-rendering="geometricPrecision" text-rendering="geometricPrecision" image-rendering="optimizeQuality" fill-rule="evenodd" clip-rule="evenodd" viewBox="0 0 512 232.83"><path fill="#048531" fill-rule="nonzero" d="M116.41 0c32.11 0 61.19 13.03 82.26 34.1h.06c21.06 21.06 34.1 50.17 34.1 82.31 0 32.1-13.04 61.19-34.1 82.26l-.06.06c-21.07 21.06-50.15 34.1-82.26 34.1-32.1 0-61.19-13.04-82.25-34.1l-.06-.06C13.03 177.6 0 148.51 0 116.41 0 84.27 13.04 55.16 34.1 34.1 55.16 13.04 84.27 0 116.41 0z"/><path fill="#10A64A" d="M116.41 14.34c56.38 0 102.08 45.7 102.08 102.07 0 56.37-45.7 102.08-102.08 102.08-56.37 0-102.07-45.71-102.07-102.08S60.04 14.34 116.41 14.34z"/><path fill="#fff" d="M67.01 103.55h17.48c1.97 0 3.59 1.62 3.59 3.61v47.9c0 1.98-1.62 3.61-3.59 3.61H67.01c-1.98 0-3.6-1.62-3.6-3.61v-47.9c0-1.99 1.62-3.61 3.6-3.61zm48.13-35.93c1.89-9.62 17.65-.76 18.69 14.75.31 4.75-.18 10.27-1.34 16.44H155c9.37.36 17.54 7.07 11.76 18.08 1.32 4.8 1.51 10.43-2.05 12.65.44 7.57-1.65 12.26-5.58 15.97-.25 3.79-1.06 7.15-2.89 9.74-3.02 4.27-5.47 3.25-10.24 3.25h-38.01c-6.03 0-9.31-1.66-13.26-6.6v-42.34c11.34-3.06 17.36-18.57 20.41-28.74v-13.2z"/><path fill="#D9271A" fill-rule="nonzero" d="M395.59 0c32.1 0 61.19 13.03 82.25 34.1h.06c21.06 21.06 34.1 50.17 34.1 82.31 0 32.1-13.03 61.19-34.1 82.26l-.06.06c-21.06 21.06-50.15 34.1-82.25 34.1-32.11 0-61.19-13.04-82.26-34.1l-.06-.06c-21.06-21.07-34.1-50.16-34.1-82.26 0-32.14 13.04-61.25 34.1-82.31C334.33 13.04 363.44 0 395.59 0z"/><path fill="#F44336" d="M395.59 14.34c56.37 0 102.07 45.7 102.07 102.07 0 56.37-45.7 102.08-102.07 102.08-56.38 0-102.08-45.71-102.08-102.08s45.7-102.07 102.08-102.07z"/><path fill="#fff" d="M346.05 134.11h17.52c1.99 0 3.61-1.62 3.61-3.61V82.46c0-1.99-1.62-3.62-3.61-3.62h-17.52c-1.99 0-3.61 1.62-3.61 3.62v48.04c0 1.99 1.62 3.61 3.61 3.61zm48.26 36.04c1.9 9.65 17.7.76 18.75-14.8.31-4.76-.19-10.3-1.35-16.48h22.58c9.39-.37 17.58-7.09 11.79-18.14 1.32-4.81 1.52-10.45-2.06-12.68.44-7.59-1.66-12.3-5.59-16.02-.26-3.79-1.07-7.17-2.9-9.76-3.03-4.28-5.49-3.26-10.27-3.26h-38.12c-6.04 0-9.34 1.66-13.29 6.62v42.46c11.36 3.07 17.4 18.62 20.46 28.82v13.24z"/></svg>