<svg xmlns="http://www.w3.org/2000/svg" shape-rendering="geometricPrecision" text-rendering="geometricPrecision" image-rendering="optimizeQuality" fill-rule="evenodd" clip-rule="evenodd" viewBox="0 0 512 235.21"><path d="M65.38 104.17h21.55c1.99 0 3.63 1.64 3.63 3.64v48.3c0 2-1.64 3.64-3.63 3.64H65.38c-2 0-3.63-1.63-3.63-3.64v-48.3c0-2 1.63-3.64 3.63-3.64zm276.79 32.15h21.55c2 0 3.63-1.63 3.63-3.64v-48.3c0-2-1.63-3.63-3.63-3.63h-21.55c-2 0-3.63 1.63-3.63 3.63v48.3c0 2.01 1.63 3.64 3.63 3.64zM394.4 0c32.46 0 61.88 13.17 83.15 34.45l.41.44C499 56.15 512 85.37 512 117.6c0 32.46-13.17 61.85-34.45 83.13-21.27 21.3-50.69 34.48-83.15 34.48-32.46 0-61.85-13.18-83.13-34.45-21.31-21.31-34.48-50.7-34.48-83.16 0-32.45 13.17-61.84 34.45-83.12C332.55 13.17 361.94 0 394.4 0zm72.05 45.55C448.02 27.11 422.54 15.7 394.4 15.7c-28.15 0-53.64 11.41-72.08 29.83-18.42 18.43-29.82 43.93-29.82 72.07 0 28.15 11.4 53.64 29.82 72.08 18.44 18.41 43.93 29.82 72.08 29.82 28.14 0 53.62-11.41 72.05-29.84 18.44-18.42 29.85-43.91 29.85-72.06 0-27.97-11.27-53.31-29.48-71.71l-.37-.34zM353.48 89.56c2.57 0 4.65 2.08 4.65 4.65 0 2.57-2.08 4.65-4.65 4.65-2.57 0-4.65-2.08-4.65-4.65 0-2.57 2.08-4.65 4.65-4.65zm38.84 83c1.91 9.7 17.8.76 18.85-14.88.31-4.78-.18-10.36-1.35-16.57h22.7c9.44-.37 17.68-7.13 11.86-18.24 1.33-4.83 1.52-10.51-2.08-12.75.46-7.64-1.66-12.37-5.61-16.1-.26-3.83-1.08-7.22-2.92-9.83-3.05-4.3-5.52-3.27-10.33-3.27h-38.33c-6.08 0-9.39 1.66-13.36 6.65v42.7c11.43 3.08 17.5 18.72 20.57 28.98v13.31zM117.6 0c32.46 0 61.85 13.17 83.13 34.45 21.31 21.31 34.48 50.7 34.48 83.15 0 32.46-13.17 61.85-34.45 83.13-21.31 21.3-50.7 34.48-83.16 34.48-32.45 0-61.84-13.18-83.12-34.45C13.17 179.45 0 150.06 0 117.6c0-32.45 13.17-61.84 34.45-83.12C55.76 13.17 85.15 0 117.6 0zm72.08 45.53C171.24 27.11 145.75 15.7 117.6 15.7c-28.14 0-53.63 11.41-72.07 29.83C27.11 63.96 15.7 89.46 15.7 117.6c0 28.15 11.41 53.64 29.83 72.08 18.44 18.41 43.93 29.82 72.07 29.82 28.15 0 53.64-11.41 72.08-29.82 18.42-18.44 29.82-43.93 29.82-72.08 0-28.14-11.4-53.64-29.82-72.07zM75.94 139.24c2.57 0 4.65 2.08 4.65 4.65 0 2.57-2.08 4.65-4.65 4.65-2.57 0-4.65-2.08-4.65-4.65 0-2.57 2.08-4.65 4.65-4.65zm39.59-71.3c1.91-9.7 17.8-.77 18.84 14.88.32 4.78-.18 10.35-1.35 16.57h22.7c9.45.37 17.69 7.13 11.86 18.23 1.33 4.84 1.53 10.52-2.07 12.76.45 7.64-1.66 12.36-5.61 16.1-.27 3.82-1.08 7.22-2.92 9.82-3.05 4.31-5.53 3.28-10.33 3.28h-38.34c-6.07 0-9.39-1.67-13.36-6.66v-42.69c11.43-3.09 17.51-18.72 20.58-28.99v-13.3z"/></svg>