<svg id="Layer_1" data-name="Layer 1" xmlns="http://www.w3.org/2000/svg" viewBox="0 0 47.36 122.88"><defs><style>.cls-1{fill-rule:evenodd;}</style></defs><title>raised-hand</title><path class="cls-1" d="M14,64.72l-1.82,58.16,35.22-3.62L46.25,64.72h-5.1l-.58-9.18a3.15,3.15,0,0,0,.22-.29l0,0,.41-.42.38-.44a14.56,14.56,0,0,0,2.51-4.35,14.84,14.84,0,0,0,.84-4h0V16.58a4.32,4.32,0,0,0-2.42-4.16,4,4,0,0,0-4.75,1v-3A4.32,4.32,0,0,0,35.1,6.22a5.07,5.07,0,0,0-1.85-.35,4.82,4.82,0,0,0-1.84.35,4.26,4.26,0,0,0-1.68,1.17V5.19A4.94,4.94,0,0,0,26.82.41a5,5,0,0,0-4,0,5,5,0,0,0-2.9,4.82V7.42a4.31,4.31,0,0,0-1.63-1.14,4.82,4.82,0,0,0-1.84-.35,5.11,5.11,0,0,0-1.85.35,4.32,4.32,0,0,0-2.79,4.16V34c-.6-1-1.26-2.27-1.56-2.82l0-.09a10.53,10.53,0,0,0-.78-1.24,7.59,7.59,0,0,0-.92-1,5.56,5.56,0,0,0-3.19-1.52,4.85,4.85,0,0,0-2.11.23,4.49,4.49,0,0,0-1.81,1.17A5.34,5.34,0,0,0,0,31.81,7.41,7.41,0,0,0,0,33.3a9,9,0,0,0,.33,1.54l.21.58L.82,36a13,13,0,0,0,1.12,1.91l.28.43c.85,1.3,1.72,2.76,2.65,4.31C8.3,48.41,12.48,55.41,17.57,58l-.28,6.75Zm25.31,0H19.17l.29-7.3,0-.64-.6-.26c-4.79-2.05-9-9.08-12.41-14.83-1-1.62-1.88-3.15-2.69-4.38l-.29-.44a10.83,10.83,0,0,1-1-1.66l-.2-.47-.17-.47a6,6,0,0,1-.25-1.17A5.7,5.7,0,0,1,1.9,32a3.48,3.48,0,0,1,.88-2.08,2.68,2.68,0,0,1,1.05-.68,3.11,3.11,0,0,1,1.29-.13,3.71,3.71,0,0,1,2.12,1,6.3,6.3,0,0,1,.7.79,10.17,10.17,0,0,1,.63,1l0,.1c.31.57,1,1.85,1.63,2.95l.51.86.5.78.42.61c.13.18.26.34.39.49l1.64,1.85V10.45A2.51,2.51,0,0,1,15.31,8a3.27,3.27,0,0,1,1.16-.22A3,3,0,0,1,17.6,8a2.47,2.47,0,0,1,1.52,2.45V26.72a4.9,4.9,0,0,0,.35,2.13,1.09,1.09,0,0,0,2,0,4.79,4.79,0,0,0,.36-2.15V5.23a3.15,3.15,0,0,1,1.76-3.1,3.14,3.14,0,0,1,1.25-.25,3.05,3.05,0,0,1,1.24.25,3.13,3.13,0,0,1,1.78,3.06V26.64a3.81,3.81,0,0,0,.4,1.95,1.1,1.1,0,0,0,.95.55,1.11,1.11,0,0,0,.95-.54,3.63,3.63,0,0,0,.39-1.91V10.39A2.47,2.47,0,0,1,32.11,8a3,3,0,0,1,1.14-.22A3.22,3.22,0,0,1,34.4,8,2.51,2.51,0,0,1,36,10.41V26.69a3.79,3.79,0,0,0,.39,1.93,1.07,1.07,0,0,0,1,.55,1.09,1.09,0,0,0,.95-.56,3.92,3.92,0,0,0,.39-2V16.57A2.54,2.54,0,0,1,40,14.11a2.18,2.18,0,0,1,.91-.19,2.26,2.26,0,0,1,.91.2,2.54,2.54,0,0,1,1.32,2.46v17.1h0c.06,3.69-.29,8,0,11.42a12.94,12.94,0,0,1-.77,4.33,12.51,12.51,0,0,1-2.18,3.79l-.33.38-.62.64v0h0l-.56.52.62,9.94Zm-.06-10.46s0,.42,0,.38v-.36l0,0ZM39,71.11a2.39,2.39,0,0,1,.66.09h.09l0,0H40l0,0h0l0,0h0l0,0h0l0,0,0,0h0l0,0h0l0,0h0l0,0h0l0,0,0,0h0l0,0h0l0,0h0l0,0h0l0,0v0h0l0,0h0l0,0h0l0,0h0l0,0h0l0,0,0,0h0l0,0h0l0,0h0l0,0v0l0,0v0l0,0v0h0l0,0h0l0,0h0l0,0v0l0,0v0h0l0,0h0l0,0h0l0,0h0l0,0v.08l0,0h0l0,0h0v.16h0v0h0v0h0v.12h0v0h0v0h0v.18h0v.17h0v0h0v0h0v.06h0v0h0v.11h0v0h0v.11h0v0h0v.06h0v0h0l0,0h0v.06h0l0,0h0v.1h0l0,0h0l0,0v0l0,0h0l0,0h0v0l0,0v0l0,0h0l0,0h0l0,0h0l0,0,0,0h0l0,0h0l0,0,0,0h0l0,0h0l0,0h0l0,0,0,0h0l0,0,0,0h0l0,0,0,0h0l0,0h0l0,0h0l0,0h0l0,0h0l0,0h0l0,0h0l0,0h0l0,0H40a2.22,2.22,0,0,1-.93.2,2.31,2.31,0,1,1,0-4.62Z"/></svg>