<svg id="Layer_1" data-name="Layer 1" xmlns="http://www.w3.org/2000/svg" viewBox="0 0 122.88 62.91"><defs><style>.cls-1{fill-rule:evenodd;}</style></defs><title>satisfied-customer</title><path class="cls-1" d="M23.31,1.08A31.45,31.45,0,1,1,1.08,39.59,31.45,31.45,0,0,1,23.31,1.08Zm45.16,22h8a2,2,0,0,1,2,2V52.24a2,2,0,0,1-2,2H61.76a39.37,39.37,0,0,0,2.54-3.85,37.85,37.85,0,0,0,4.17-27.3Zm24-19.75a3.47,3.47,0,0,1,1.75-1.84,4.13,4.13,0,0,1,2.81-.15,7.43,7.43,0,0,1,2.68,1.37,13.19,13.19,0,0,1,4.91,9.52,28.77,28.77,0,0,1-.06,4.23c-.08,1-.21,2-.38,3.1h10.2a10.94,10.94,0,0,1,4.6,1.17,7.42,7.42,0,0,1,2.83,2.48,6.28,6.28,0,0,1,1,3.8,9,9,0,0,1-.92,3.5,11,11,0,0,1,.28,4.24,5,5,0,0,1-1.41,2.87,12.73,12.73,0,0,1-.71,4.76A10,10,0,0,1,117.84,46a15.46,15.46,0,0,1-.45,2.54,8.7,8.7,0,0,1-1.27,2.72h0c-1.73,2.45-3.12,2.39-5.31,2.3-.31,0-.63,0-1.14,0H89.79a9.69,9.69,0,0,1-4.48-.9,10.66,10.66,0,0,1-3.51-3.06l-.29-.85V25.55l1-.27c2.56-.69,4.58-2.88,6.14-5.51a39,39,0,0,0,3.52-8.4v-6a3.85,3.85,0,0,1,.32-2ZM95.39,4a1.09,1.09,0,0,0-.51.79v6.76l-.06.38A41.77,41.77,0,0,1,91,21.16c-1.7,2.84-3.9,5.28-6.76,6.4V48.25a7.45,7.45,0,0,0,2.3,2,7.26,7.26,0,0,0,3.27.61h19.88l1.25,0c1.3,0,2.12.09,3-1.15h0a6.07,6.07,0,0,0,.86-1.89,12.57,12.57,0,0,0,.4-2.5l.42-.9a7.6,7.6,0,0,0,2-2.9,10.62,10.62,0,0,0,.52-4.39l0-.8.68-.42a2.11,2.11,0,0,0,.83-1.52,9,9,0,0,0-.34-3.59l.1-1a6.68,6.68,0,0,0,.85-2.82,3.67,3.67,0,0,0-.59-2.21,4.9,4.9,0,0,0-1.81-1.58,8.13,8.13,0,0,0-3.4-.86H101l.3-1.61c.29-1.55.5-3,.62-4.44a24.6,24.6,0,0,0,.06-3.81A10.47,10.47,0,0,0,98.1,4.91,5.11,5.11,0,0,0,96.38,4a1.5,1.5,0,0,0-1,0ZM14.73,36.25a20.49,20.49,0,0,0,4.53,4.31A21.92,21.92,0,0,0,32,44.42a20.68,20.68,0,0,0,12.35-4.16,18.41,18.41,0,0,0,3.84-4,.1.1,0,0,1,.15,0l1.25,1.23a.12.12,0,0,1,0,.14,23.58,23.58,0,0,1-7.21,7.77,19.24,19.24,0,0,1-10.27,3.26,20,20,0,0,1-10.59-2.84,25.69,25.69,0,0,1-8.32-8.11.12.12,0,0,1,0-.14l1.29-1.28a.12.12,0,0,1,.16,0ZM39.47,16.52c2.2,0,4,2.59,4,5.77s-1.78,5.77-4,5.77-4-2.58-4-5.77,1.79-5.77,4-5.77Zm-16,0c2.2,0,4,2.59,4,5.77s-1.78,5.77-4,5.77-4-2.58-4-5.77,1.79-5.77,4-5.77Z"/></svg>