<svg id="Layer_1" data-name="Layer 1" xmlns="http://www.w3.org/2000/svg" viewBox="0 0 104.17 122.88"><title>slide-top-bottom</title><path d="M32.2,70.68a2.28,2.28,0,0,1-.45-.29c-1.84-1.46-3.86-3.09-5.6-4.52-2.54-2.09-5.46-4.49-7.52-6.2a10.66,10.66,0,0,0-4.49-2.26,4.8,4.8,0,0,0-2.53.1,2.66,2.66,0,0,0-1.36,1.4A8.9,8.9,0,0,0,9.73,63,15.67,15.67,0,0,0,11.13,68a31.59,31.59,0,0,0,3.68,6.22.91.91,0,0,1,.17.28L37,106a2.58,2.58,0,0,1,.49,1.32c.46,3.62,1.22,6.36,2.33,8.07a3.6,3.6,0,0,0,3.24,1.84H77.71a10.39,10.39,0,0,0,5.91-1.92A18.89,18.89,0,0,0,89,109a.71.71,0,0,1,.1-.14c.62-1.08,1.46-2.48,2.26-3.8,3.52-5.77,6.58-10.81,6.93-18l-.21-9.89a1.43,1.43,0,0,1,0-.41c0-.14,0-1.08,0-2.33.07-6.54.17-14.61-5.81-15.62H88.43c0,1.84-.14,3.73-.24,5.54C88.08,66,88,67.52,88,69a2.89,2.89,0,0,1-5.77,0c0-1.5.1-3.24.2-5.05.39-6.16.84-13.22-4.07-14.09H74.51c-.21,0-.41,0-.62-.06,0,2.22-.1,4.52-.25,6.75-.1,1.63-.2,3.17-.2,4.66a2.89,2.89,0,0,1-5.77,0c0-1.5.1-3.24.2-5C68.26,50,68.7,43,63.8,42.08H60a3,3,0,0,1-.76-.1V53.22a2.89,2.89,0,0,1-5.78,0V16.5c0-5.05-2-8.25-4.69-9.57a6.77,6.77,0,0,0-3-.72,6.88,6.88,0,0,0-3,.72c-2.61,1.32-4.63,4.53-4.63,9.71V76a2.89,2.89,0,1,1-5.77,0V70.68ZM21.75,39.1A2.69,2.69,0,1,0,18,35.21l-4,3.71V27.36a2.69,2.69,0,0,0-5.37,0V38.91l-4.09-3.7A2.68,2.68,0,0,0,.83,39.1l8.62,8a2.72,2.72,0,0,0,3.71,0l8.59-8Zm0-30.34A2.69,2.69,0,1,1,18,12.65L14,9V19.51a2.69,2.69,0,1,1-5.37,0V9l-4.09,3.7A2.68,2.68,0,0,1,.83,8.76l8.62-8a2.7,2.7,0,0,1,3.71,0l8.59,8ZM59.2,36.37a2.68,2.68,0,0,1,.76-.11h4a4.93,4.93,0,0,1,.66.07c5.32.84,7.72,3.93,8.69,8A3.11,3.11,0,0,1,74.53,44h4a4.93,4.93,0,0,1,.66.07c5.74.91,8,4.41,8.87,8.88a1.72,1.72,0,0,1,.46,0h4c.2,0,.45,0,.66.06,11,1.71,10.85,12.63,10.75,21.43V76.7l.24,10.16v.31c-.41,8.67-3.83,14.26-7.76,20.74-.66,1.08-1.32,2.19-2.23,3.73,0,0,0,.06-.06.1A24.77,24.77,0,0,1,87,120a16,16,0,0,1-9.15,2.93H43.23a9.1,9.1,0,0,1-8.11-4.39c-1.61-2.37-2.64-5.7-3.2-9.88L10.35,77.81l-.1-.11A39.87,39.87,0,0,1,5.9,70.37a21.88,21.88,0,0,1-1.88-7,14.31,14.31,0,0,1,1-6.82,8.16,8.16,0,0,1,4.49-4.39,9.93,9.93,0,0,1,5.81-.41,16.22,16.22,0,0,1,7.07,3.48c1.73,1.46,4.65,3.83,7.51,6.16l2.37,2V16.66C32.28,9,35.69,4,40.11,1.81A12.33,12.33,0,0,1,45.74.45a12.47,12.47,0,0,1,5.64,1.36C55.8,4,59.27,9,59.27,16.56V36.4l-.07,0Z"/></svg>