<svg xmlns="http://www.w3.org/2000/svg" shape-rendering="geometricPrecision" text-rendering="geometricPrecision" image-rendering="optimizeQuality" fill-rule="evenodd" clip-rule="evenodd" viewBox="0 0 403 512.07"><path d="M49.86 275.84h123.7c-.71-6.28-2.15-11.96-4.5-16.72-20.37-41.25-41.12-57.68-71.19-63.01-9.38-1.66-16.8-.39-30.74-.49 26.11-53.74 92.96-14.7 105.75 8.07 1.27 2.26 4.12-2.77 4.9-9.03l13.16-43.95c1.08-3.62 3.33-14.71 6.24-15.84 1.18-.46 2.51.08 3.97 1.44 4.16 3.89 3.77 7.89 4.65 13.3-1.27 26.49 2.63 45.86 9.88 60.63 27.52-20.92 55.28-31.9 83.6-19.73 6.01 2.14 10.1 6.91 9.9 13.8-22.95.47-47.14 2.05-59.35 10.53-15.95 11.07-37.25 37.8-46.85 61h176.69c12.83 0 23.33 10.5 23.33 23.33V415.6H3.2v-93.1c0-25.67 20.99-46.66 46.66-46.66zm4.8 213.8 1.73 19.42c-4.85 2.01-10.94 3.01-18.27 3.01-7.32 0-13.2-.77-17.63-2.31s-7.92-3.97-10.47-7.29c-2.54-3.31-4.31-7.21-5.32-11.67-1-4.47-1.5-9.99-1.5-16.54 0-6.55.5-12.08 1.5-16.59 1.01-4.51 2.78-8.43 5.32-11.74 4.94-6.4 14-9.6 27.18-9.6 2.93 0 6.38.29 10.35.87 3.97.58 6.92 1.29 8.84 2.14l-3.47 17.69c-5.01-1.08-9.59-1.62-13.76-1.62-4.16 0-7.05.39-8.67 1.16-1.62.77-2.43 2.31-2.43 4.62v30.3c3.01.62 6.05.92 9.14.92 6.55 0 12.37-.92 17.46-2.77zm8.96-15.38c0-13.18 2.47-22.8 7.4-28.85 4.93-6.05 13.84-9.08 26.71-9.08 12.88 0 21.78 3.03 26.71 9.08 4.94 6.05 7.4 15.67 7.4 28.85 0 6.55-.52 12.07-1.56 16.54-1.04 4.46-2.83 8.36-5.38 11.67-2.54 3.32-6.05 5.75-10.52 7.29s-10.02 2.31-16.65 2.31c-6.63 0-12.18-.77-16.65-2.31-4.47-1.54-7.98-3.97-10.52-7.29-2.55-3.31-4.34-7.21-5.38-11.67-1.04-4.47-1.56-9.99-1.56-16.54zM87 462.23v30.07h11.08c3.16 0 6.93-.37 8.35-1.1 1.43-.73 2.14-2.41 2.14-5.03V456.1H97.38c-3.07 0-6.81.37-8.24 1.1-1.42.73-2.14 2.41-2.14 5.03zm106.99-5.66h-16.76v53.77H154.1v-53.77h-16.77v-18.5h56.66v18.5zm60.42 0h-16.77v53.77h-23.12v-53.77h-16.77v-18.5h56.66v18.5zm5.49 17.69c0-13.18 2.47-22.8 7.4-28.85 4.94-6.05 13.84-9.08 26.72-9.08 12.87 0 21.77 3.03 26.7 9.08 4.94 6.05 7.41 15.67 7.41 28.85 0 6.55-.53 12.07-1.56 16.54-1.05 4.46-2.84 8.36-5.38 11.67-2.55 3.32-6.05 5.75-10.52 7.29-4.48 1.54-10.02 2.31-16.65 2.31-6.64 0-12.18-.77-16.66-2.31-4.47-1.54-7.98-3.97-10.52-7.29-2.54-3.31-4.33-7.21-5.38-11.67-1.04-4.47-1.56-9.99-1.56-16.54zm23.39-12.03v30.07h12.55c3.16 0 5.45-.37 6.88-1.1 1.42-.73 2.14-2.41 2.14-5.03V456.1h-9.71c-3.08 0-8.3.37-9.73 1.1-1.42.73-2.13 2.41-2.13 5.03zm97.97 48.11-17.69-25.67c-.62-.85-1.01-2.7-1.16-5.55h-.46v31.22h-23.13v-72.27h21.74l17.69 25.67c.62.84 1.01 2.7 1.16 5.55h.46v-31.22H403v72.27h-21.74zM94.48 232.48c5.08.15 9.06 4.4 8.91 9.48-.16 5.08-4.41 9.06-9.49 8.9-45.15-1.56-74.72-26.97-87.2-58.16-5.01-12.53-7.24-26-6.59-39.22.65-13.35 4.22-26.46 10.78-38.14 14.87-26.46 44.77-45.61 90.58-43.61C117.45 24.17 151.81 3.26 188.1.35c24.53-1.97 49.9 4.5 70.86 16.61 21.24 12.27 38.11 30.46 45.28 51.73 2.48 7.34 3.81 15 3.8 22.86 14.7 3.97 31.89 14.54 44.65 29.35 11.47 13.29 19.62 30.12 19.74 48.91.09 14.77-5.11 30.28-13.86 43.47-6.5 9.79-14.98 18.4-24.73 24.59-10.03 6.36-21.48 10.22-33.64 10.29-11.46.08-23.36-3.23-35.04-10.98-4.24-2.81-5.41-8.52-2.6-12.76s8.52-5.41 12.76-2.6c8.46 5.61 16.86 8 24.81 7.95 8.4-.05 16.53-2.85 23.83-7.48 7.56-4.8 14.16-11.51 19.25-19.17 6.84-10.31 10.9-22.18 10.83-33.24-.09-13.89-6.39-26.66-15.26-36.94-9.74-11.3-22.33-19.48-33.25-22.98-4.4 16.11-14.78 32.65-32.81 48.68-3.8 3.39-9.63 3.05-13.01-.75-3.39-3.81-3.05-9.64.76-13.02 27.55-24.51 33.37-49.43 26.32-70.34-5.66-16.82-19.49-31.49-37.06-41.64-17.84-10.3-39.4-15.82-60.19-14.15-30.59 2.46-59.6 21-72.13 63.67-.29.99-.73 1.88-1.29 2.68-.01 7.24 1.15 15.14 3.09 22.39 2.19 8.18 5.23 15.2 8.5 19 3.3 3.86 2.85 9.68-1.01 12.98-3.87 3.3-9.68 2.85-12.98-1.01-5.08-5.91-9.47-15.55-12.32-26.21-1.89-7.06-3.16-14.73-3.56-22.17-36.17-.76-59.47 14.01-70.87 34.29-5.16 9.17-7.96 19.48-8.47 29.98-.52 10.63 1.27 21.45 5.3 31.51 9.99 24.99 33.93 45.36 70.68 46.63zm14.81 147.96H53.74v-17.78h19.78v-29.45l-19.78 1.34v-17.78l25.55-5.78h17.56v51.67h12.44v17.78zm17.23-7.61c-2.11-3.23-3.58-6.95-4.39-11.17-.82-4.22-1.23-9.54-1.23-15.94 0-6.41.41-11.73 1.23-15.95.81-4.22 2.28-7.94 4.39-11.17 2.11-3.22 5.14-5.57 9.11-7.05 3.96-1.48 8.98-2.22 15.05-2.22 6.08 0 11.08.74 15 2.22 3.93 1.48 6.97 3.83 9.12 7.05 2.14 3.23 3.61 6.95 4.38 11.17.78 4.22 1.17 9.56 1.17 16 0 6.45-.39 11.76-1.17 15.95-.77 4.18-2.24 7.88-4.38 11.11-2.15 3.22-5.19 5.57-9.12 7.05-3.92 1.48-8.92 2.23-15 2.23-6.07 0-11.09-.75-15.05-2.23-3.97-1.48-7-3.83-9.11-7.05zm15.8-39.73v31.12h4.66c3.34 0 8.63-.36 9.96-1.06 1.33-.7 2-2.31 2-4.83v-31.11h-5.22c-3.26 0-8.44.33-9.62 1-1.19.66-1.78 2.29-1.78 4.88zm55.03 39.73c-2.11-3.23-3.57-6.95-4.39-11.17-.81-4.22-1.22-9.54-1.22-15.94 0-6.41.41-11.73 1.22-15.95.82-4.22 2.28-7.94 4.39-11.17 2.11-3.22 5.15-5.57 9.11-7.05 3.96-1.48 8.98-2.22 15.06-2.22 6.07 0 11.07.74 15 2.22 3.92 1.48 6.96 3.83 9.11 7.05 2.15 3.23 3.61 6.95 4.39 11.17.78 4.22 1.16 9.56 1.16 16 0 6.45-.38 11.76-1.16 15.95-.78 4.18-2.24 7.88-4.39 11.11-2.15 3.22-5.19 5.57-9.11 7.05-3.93 1.48-8.93 2.23-15 2.23-6.08 0-11.1-.75-15.06-2.23-3.96-1.48-7-3.83-9.11-7.05zm15.8-39.73v31.12h4.67c3.33 0 8.62-.36 9.95-1.06 1.33-.7 2-2.31 2-4.83v-31.11h-5.22c-3.26 0-8.44.33-9.62 1-1.19.66-1.78 2.29-1.78 4.88zm118.98-22.11-38.33 66.67c-.75 1.26-1.39 2.04-1.95 2.33-.55.3-1.72.45-3.5.45h-7.22l38.33-66.67c.74-1.26 1.39-2.04 1.95-2.33.55-.3 1.72-.45 3.5-.45h7.22zm-15.95 66.06c-3.22-3.37-4.83-8.54-4.83-15.5 0-6.96 1.61-12.13 4.83-15.5 3.23-3.37 8.47-5.06 15.73-5.06s12.5 1.69 15.72 5.06c3.22 3.37 4.83 8.54 4.83 15.5 0 6.96-1.61 12.13-4.83 15.5-3.22 3.37-8.46 5.06-15.72 5.06s-12.5-1.69-15.73-5.06zm11.25-19.83v11.88h3.92c1.56 0 4.02-.16 4.42-.49.41-.34.61-1.25.61-2.73v-11.89h-3.92c-1.55 0-4.01.17-4.42.5-.41.33-.61 1.25-.61 2.73zm-61.47-11.84c-3.22-3.37-4.83-8.54-4.83-15.5 0-6.96 1.61-12.13 4.83-15.5 3.22-3.37 8.47-5.05 15.73-5.05 7.25 0 12.49 1.68 15.72 5.05 3.22 3.37 4.83 8.54 4.83 15.5 0 6.96-1.61 12.13-4.83 15.5-3.23 3.37-8.47 5.06-15.72 5.06-7.26 0-12.51-1.69-15.73-5.06zm11.25-19.83v11.89h3.92c1.55 0 4.01-.17 4.42-.5.41-.33.61-1.24.61-2.72v-11.89h-3.92c-1.55 0-4.02.16-4.42.5-.41.33-.61 1.24-.61 2.72z"/></svg>