<svg xmlns="http://www.w3.org/2000/svg" shape-rendering="geometricPrecision" text-rendering="geometricPrecision" image-rendering="optimizeQuality" fill-rule="evenodd" clip-rule="evenodd" viewBox="0 0 503 511.64"><path d="M175.08 118.96h5.3V59.19c0-28.61 18.68-46.84 42.59-54.75C231.93 1.48 241.62 0 251.27 0c9.66 0 19.35 1.48 28.31 4.44 23.9 7.91 42.58 26.14 42.58 54.75v59.77h2.03c5.64 0 10.22 4.58 10.22 10.21l-.01.32c1.28 26.72 5.75 48.91 16.72 64.98 10.66 15.62 28.13 25.94 55.86 29.69 5.12.69 8.83 5.07 8.86 10.09v49.35c6.22 0 12.36-.21 18.39-1.14 6.2-.96 12.21-2.71 17.91-5.85 5.31-2.93 9.96-6.8 13.93-11.63 3.95-4.8 7.27-10.57 9.94-17.31l-2.08-15.7L503 254.25l-15.17 2c-2.98 6.76-6.57 12.68-10.76 17.77-5.16 6.27-11.19 11.3-18.06 15.09-7.36 4.07-14.91 6.29-22.61 7.48-6.68 1.02-13.56 1.25-20.56 1.25v203.59c0 5.63-4.57 10.21-10.21 10.21H96.91c-5.64 0-10.21-4.58-10.21-10.21V297.84c-6.71 0-13.33-.24-19.76-1.2-24.61-3.7-41.83-17.84-51.77-40.39l-15.17-2 29.07-22.28-2.08 15.7c7.71 19.49 21.05 31.68 42.07 34.84 5.77.87 11.66 1.08 17.64 1.09v-49.35c0-5.24 3.95-9.55 9.03-10.14 26.13-4.03 44.1-13.18 54.99-28.06 11.17-15.27 15.54-37.22 14.19-66.44-.24-5.61 4.12-10.36 9.73-10.61l.44-.04zm19.59 0h113.19V59.19c0-21.35-14.36-35.1-32.75-41.18-7.48-2.48-15.65-3.71-23.84-3.71-8.18 0-16.35 1.23-23.83 3.71-18.4 6.08-32.77 19.83-32.77 41.18v59.77zM198.96 299h104.62c1.77 0 3.38.73 4.53 1.88a6.386 6.386 0 0 1 1.88 4.53v52.14c0 16.1-6.58 30.74-17.19 41.35-22.94 22.93-60.12 22.93-83.06 0-10.61-10.61-17.2-25.25-17.2-41.35v-52.14c0-1.76.73-3.37 1.89-4.53a6.393 6.393 0 0 1 4.53-1.88zm3.8 20.86h97.02v-10.65h-97.02v10.65zm97.02 10.21h-97.02v27.48c0 13.29 5.43 25.37 14.2 34.13 18.94 18.95 49.68 18.95 68.62 0 8.76-8.76 14.2-20.84 14.2-34.13v-27.48zm11.57-184.25c-.49-5.41-8.16-5.06-8.16.37.1 2.07.19 4.17.35 6.23.51 5.61 8.62 4.58 8.15-.54-.19-1.95-.24-4.09-.34-6.06zM182.7 218.28c4.96-13.12-10.83 1.29-11.85 2.5-3.43 3.93 2.57 9.47 6.23 5.28 1.51-1.8 4.73-5.74 5.62-7.78zm130.55-50.43c-.97-5.33-8.59-4.31-8.1 1.11.38 2.75.79 5.52 1.29 8.25.96 5.29 9 3.83 8.04-1.47-.46-2.63-.87-5.24-1.23-7.89zm4.87 23.33c-1.54-5.13-9.38-2.82-7.82 2.37.81 2.71 1.72 5.37 2.73 8.01 2.05 5.13 9.57 1.94 7.62-2.93-.94-2.45-1.78-4.93-2.53-7.45zm9.35 21.43c-3.18-4.78-9.73.1-6.94 4.28a74.96 74.96 0 0 0 4.89 7.09c3.29 4.23 9.75-.76 6.44-5.02a70.317 70.317 0 0 1-4.39-6.35zm15.12 17.34c-4.18-3.25-9.29 2.71-5.13 6.35 2.26 1.81 4.57 3.51 7.01 5.06 4.26 2.84 9.05-3.78 4.35-6.91a78.81 78.81 0 0 1-6.23-4.5zm20.09 11.52c-4.92-1.97-8.04 5.58-2.97 7.61 2.67 1.03 5.28 1.93 8.01 2.79 5.19 1.56 7.49-6.28 2.38-7.82-2.53-.78-4.95-1.62-7.42-2.58zm22.81 6.16c-5.18-.94-6.78 7.07-1.37 8.06l1.67.26c1.4 12.01 15.96-5.91 4.65-7.52l-.04-.05c-1.64-.23-3.27-.47-4.91-.75zm8.45 24.19c0-5.38-8.17-5.38-8.17 0v8.17c0 5.37 8.17 5.37 8.17 0v-8.17zm0 24.5c0-5.38-8.17-5.38-8.17 0v8.17c0 5.38 8.17 5.38 8.17 0v-8.17zm0 24.5c0-5.37-8.17-5.37-8.17 0v8.17c0 5.38 8.17 5.38 8.17 0v-8.17zm0 24.51c0-5.38-8.17-5.38-8.17 0v8.16c0 5.38 8.17 5.38 8.17 0v-8.16zm0 24.5c0-5.38-8.17-5.38-8.17 0v8.16c0 5.38 8.17 5.38 8.17 0v-8.16zm0 24.5c0-5.38-8.17-5.38-8.17 0v8.17c0 5.37 8.17 5.37 8.17 0v-8.17zm0 24.5c0-5.38-8.17-5.38-8.17 0V427c0 5.38 8.17 5.38 8.17 0v-8.17zm0 24.5c0-5.37-8.17-5.37-8.17 0v8.17c0 5.38 8.17 5.38 8.17 0v-8.17zm0 24.51c0-5.38-8.17-5.38-8.17 0V476c0 5.38 8.17 5.38 8.17 0v-8.16zm-14.32 18.35c5.37 0 5.37-8.17 0-8.17h-8.17c-5.38 0-5.38 8.17 0 8.17h8.17zm-24.51 0c5.38 0 5.38-8.17 0-8.17h-8.16c-5.38 0-5.38 8.17 0 8.17h8.16zm-24.5 0c5.38 0 5.38-8.17 0-8.17h-8.17c-5.37 0-5.37 8.17 0 8.17h8.17zm-24.5 0c5.38 0 5.38-8.17 0-8.17h-8.17c-5.38 0-5.38 8.17 0 8.17h8.17zm-24.5 0c5.37 0 5.37-8.17 0-8.17h-8.17c-5.38 0-5.38 8.17 0 8.17h8.17zm-24.5 0c5.37 0 5.37-8.17 0-8.17h-8.17c-5.38 0-5.38 8.17 0 8.17h8.17zm-24.51 0c5.38 0 5.38-8.17 0-8.17h-8.16c-5.38 0-5.38 8.17 0 8.17h8.16zm-24.5 0c5.38 0 5.38-8.17 0-8.17h-8.17c-5.37 0-5.37 8.17 0 8.17h8.17zm-24.5 0c5.38 0 5.38-8.17 0-8.17h-8.17c-5.38 0-5.38 8.17 0 8.17h8.17zm-24.5 0c5.37 0 5.37-8.17 0-8.17h-8.17c-5.38 0-5.38 8.17 0 8.17h8.17zm-24.51 0c5.38 0 5.38-8.17 0-8.17h-8.16c-5.38 0-5.38 8.17 0 8.17h8.16zm-24.76-7.92c0 5.38 8.17 5.38 8.17 0v-8.16c0-5.38-8.17-5.38-8.17 0v8.16zm0-24.5c0 5.38 8.17 5.38 8.17 0v-8.17c0-5.37-8.17-5.37-8.17 0v8.17zm0-24.5c0 5.38 8.17 5.38 8.17 0v-8.17c0-5.37-8.17-5.37-8.17 0v8.17zm0-24.5c0 5.38 8.17 5.38 8.17 0v-8.17c0-5.38-8.17-5.38-8.17 0v8.17zm0-24.5c0 5.37 8.17 5.37 8.17 0v-8.17c0-5.38-8.17-5.38-8.17 0v8.17zm0-24.51c0 5.38 8.17 5.38 8.17 0v-8.16c0-5.38-8.17-5.38-8.17 0v8.16zm0-24.5c0 5.38 8.17 5.38 8.17 0v-8.17c0-5.37-8.17-5.37-8.17 0v8.17zm0-24.5c0 5.38 8.17 5.38 8.17 0v-8.17c0-5.37-8.17-5.37-8.17 0v8.17zm0-24.5c0 5.38 8.17 5.38 8.17 0v-8.17c0-5.38-8.17-5.38-8.17 0v8.17zm0-24.5c0 5.37 8.17 5.37 8.17 0v-1.91c5.71-1.82 1.88-14.91-8.17-3.43v5.34zm21.67-13.28c-5.01 1.37-3.08 9.31 2.29 7.85 2.71-.79 5.38-1.64 8.04-2.61 5.26-2.11 1.91-9.56-2.82-7.67-2.49.91-4.97 1.7-7.51 2.43zm21.65-8.98c-4.67 3.11-.45 9.58 4.13 7.04 2.49-1.44 4.86-3.01 7.19-4.7 4.19-3.26-.24-9.65-4.85-6.58a74.972 74.972 0 0 1-6.47 4.24zm29.24-34.59c-1.92 4.8 5.57 8.06 7.65 2.87 1-2.67 1.89-5.32 2.68-8.07 1.44-5.29-6.48-7.31-7.86-2.22-.71 2.52-1.55 4.97-2.47 7.42zm5.62-22.84c-.53 5.78 7.65 6.02 8.1 1.07.37-2.81.58-5.55.88-8.35.47-5.2-7.65-6.13-8.15-.61-.12 2.56-.5 5.34-.83 7.89zm1.33-23.86c0 5.26 8.17 5.41 8.17-.09 0-2.75-.12-5.56-.24-8.31-.49-5.38-8.16-5.06-8.16.38.12 2.65.23 5.37.23 8.02zm-14.26-25.04h149.11c2.64 57.72 19.59 96.71 81.44 105.08v267.18H96.91V234.25c58.26-8.87 81.1-41.92 78.17-105.08z"/></svg>