<svg id="Layer_1" data-name="Layer 1" xmlns="http://www.w3.org/2000/svg" viewBox="0 0 109.06 122.88"><defs><style>.cls-1{fill-rule:evenodd;}</style></defs><title>bracelet</title><path class="cls-1" d="M80.54,12.79c.72,1.58,4,6,2.18,8.34.61.42,1.21.86,1.79,1.31-.19-2.66,1.33-5.28,1.85-6.32.62,1.39,3.06,6.43.85,8.54.78.69,1.53,1.41,2.27,2.15,0-2.42,1.5-4.45,2.19-5.74.44,1.16,3,6.76.51,8.71l.57.68c.3.38.61.77.9,1.16.33-2.39,2.12-4.16,3.14-5.63.16,1.79,1.83,7.27-.91,8.84.35.55.69,1.1,1,1.66.53-2.07,2.09-3.66,3-5,.16,1.81,1.86,7.39-1,8.89.37.81.72,1.64,1,2.47.87-1.94,2.64-3.25,3.76-4.42-.13,1.82.67,7.57-2.31,8.7.18.65.35,1.3.51,2,1.1-1.88,3.06-3,4.33-4.06-.35,1.84-.2,7.87-3.49,8.52.11.78.2,1.56.26,2.36,1.44-1.79,3.68-2.6,5.19-3.46-.68,1.8-1.58,7.92-5,8,0,.69,0,1.38-.07,2.06,1.73-1.69,4.22-2.12,5.92-2.75-1,1.68-2.91,7.62-6.35,7-.13.92-.29,1.82-.48,2.72,2-1.39,4.55-1.38,6.34-1.7-1.24,1.47-4.15,6.91-7.4,5.86-.23.74-.48,1.47-.74,2.2,2.2-1.22,4.8-.87,6.66-1-1,1.35-5,6.49-8.24,4.78-.37.81-.77,1.6-1.19,2.38,2.47-1,5.18-.4,7.07-.22-1.48,1.28-5.89,6.12-9.11,3.67-.47.73-1,1.44-1.47,2.14,2.5-.75,5,.13,6.82.56-1.67,1.08-6.39,5.78-9.35,2.6-.72.83-1.47,1.64-2.25,2.42,3.29-.81,5.83.64,7.17,1.26-1.82,1-7.49,5.13-9.86,1.24-.74.64-1.51,1.26-2.29,1.86,3-.28,5.53,1.28,7.45,2.18-2.08.65-8.48,4.15-10.68.07-.66.43-1.34.84-2,1.24,2.81.27,4.74,2.41,6.5,3.48-1.65.59-8.24,2.82-10.16-1.58l-1.13.51a6.93,6.93,0,1,1-7.82,2.64,48.1,48.1,0,0,1-6.4,1.14,8.75,8.75,0,1,1-10.95,0,49.09,49.09,0,0,1-6.8-1.23,6.94,6.94,0,1,1-6.77-2.28c-.67-.27-1.32-.57-2-.87-1.87,4.52-8.54,2.26-10.2,1.67,1.8-1.09,3.78-3.32,6.7-3.5-.74-.42-1.46-.87-2.18-1.33-2.13,4.25-8.64.7-10.73,0,2-.93,4.58-2.55,7.72-2.15-.85-.65-1.68-1.32-2.49-2-2.31,4.12-8.09-.15-9.93-1.11,1.38-.64,4-2.16,7.48-1.17-.85-.85-1.67-1.73-2.45-2.64-2.94,3.43-7.77-1.38-9.46-2.47,1.92-.45,4.52-1.38,7.12-.46-.56-.77-1.1-1.56-1.62-2.36-3.23,2.72-7.76-2.25-9.27-3.55,2-.19,4.84-.87,7.38.36-.46-.86-.9-1.74-1.31-2.63C7.15,81.65,3,76.33,2,75c1.94.09,4.69-.3,7,1.12-.3-.81-.57-1.62-.82-2.45C4.76,75,1.75,69.35.48,67.85c1.88.33,4.57.31,6.62,1.9-.21-1-.39-2-.53-3C3,67.65,1,61.49,0,59.78c1.78.66,4.42,1.1,6.16,3,0-.76-.07-1.53-.08-2.31-3.62.18-4.55-6.17-5.24-8,1.58.9,4,1.75,5.39,3.73.07-.88.17-1.74.28-2.6C3,53.19,3.15,46.92,2.8,45c1.34,1.11,3.43,2.29,4.49,4.35.17-.73.35-1.46.56-2.17-3.23-.95-2.39-6.92-2.52-8.78,1.17,1.23,3.06,2.61,3.88,4.7.34-.9.72-1.79,1.12-2.66-3.11-1.36-1.34-7.13-1.18-9,1,1.39,2.63,3.06,3.08,5.28.38-.67.78-1.33,1.19-2-2.86-1.71-.53-7.21-.18-9,.83,1.51,2.34,3.38,2.52,5.67l.62-.79c.24-.3.48-.6.73-.89-2.62-2.1.68-7.61,1.25-8.75.53,1.3,1.73,3.34,1.61,5.63.67-.67,1.36-1.33,2.07-2-2.33-2.19.55-7.22,1.29-8.6.44,1.07,1.76,3.74,1.42,6.37.57-.44,1.16-.87,1.76-1.29-1.89-2.48,1.79-6.76,2.64-8.31.34,1.7,1.23,4,.61,6.22,1.23-.72,2.49-1.38,3.78-2-1.71-2.49,1.89-6.67,2.72-8.2.37,1.86,1.4,4.4.39,6.86,4.46-1.75,9.91-2.47,14.53-4.59a49.71,49.71,0,0,1-8.07-5.73c-5.51-4.21-1-8.54,3.79-2.26a33.64,33.64,0,0,0,7.79,6.13,31.56,31.56,0,0,0,7.05-5.71c4.51-6,8.83-1.93,3.62,2.12A46.85,46.85,0,0,1,58.08,11,63.52,63.52,0,0,0,68,14.19l1.29.27c-1.57-3.1.22-5.94,1-8,.62,1.72,3.76,6.77,1.08,8.82.91.32,1.81.68,2.69,1.06-.77-2.7.72-5.15,1.39-7,.57,1.6,3.34,6.1,1.55,8.36.86.44,1.71.9,2.54,1.39-.53-2.34.54-4.59,1-6.3Zm-26,.1c-14,6.72-23.12,3.8-35.79,19.67a43.93,43.93,0,0,0,3.68,59,46.2,46.2,0,0,0,64.38,0,43.93,43.93,0,0,0,3.54-59.14C77.86,16.88,68.58,19.44,54.56,12.89Z"/></svg>