<svg id="Layer_1" data-name="Layer 1" xmlns="http://www.w3.org/2000/svg" viewBox="0 0 122.88 117.82"><defs><style>.cls-1,.cls-2{fill-rule:evenodd;}.cls-2{fill:#ffe256;}</style></defs><title>cap-merchandise</title><path class="cls-1" d="M118.19,111.63,115,88.35C95.89,80,77.51,76.58,59.7,77s-35,4.55-51.77,11.43L4.71,111.61c14.53-8.68,35.59-13,56.64-13s42.13,4.34,56.84,13.06ZM61.58,0h0a7.67,7.67,0,0,1,7.65,7.65v3.68a58.35,58.35,0,0,1,33.59,16.18,54.21,54.21,0,0,1,16.55,38.87c0,.28,0,.75,0,1.42l-.49,18.62a2.08,2.08,0,0,1,.07.61l3.93,28.41a2,2,0,0,1-.35,1.51,2.05,2.05,0,0,1-2.86.5c-14-9.86-36.15-14.78-58.3-14.78S17.06,107.6,3.28,117.41a2.09,2.09,0,0,1-1.51.39A2.06,2.06,0,0,1,0,115.49L4,86.9a2.21,2.21,0,0,1,0-.37L2.91,68.74c-.07-1.14-.11-2.23-.11-3.27,0-14.66,6.32-27.82,16.31-37.56a60.6,60.6,0,0,1,34.82-16.6V7.65A7.68,7.68,0,0,1,61.58,0Zm53.25,83.83.42-16.14c0-.25,0-.69,0-1.32A50.21,50.21,0,0,0,100,30.42,54.24,54.24,0,0,0,63.43,15H61.14c-1.23,0-2.41,0-3.55.11A56.5,56.5,0,0,0,22,30.85C12.74,39.84,6.91,52,6.91,65.47c0,1,0,2,.09,3L8,84c16.7-6.67,33.88-10.7,51.63-11.08a133,133,0,0,1,55.21,11Z"/><path d="M61.44,24.37a15.28,15.28,0,0,1,10.82,4.48l.26.28a15.25,15.25,0,0,1-.27,21.36h0a15.28,15.28,0,0,1-21.64,0l-.25-.27A15.3,15.3,0,0,1,61.44,24.37Z"/><path class="cls-2" d="M61.44,28.66a11,11,0,1,1-11,11,11,11,0,0,1,11-11Z"/><path d="M52.84,63.89a2.13,2.13,0,1,1,0-4.26H70a2.13,2.13,0,0,1,0,4.26Z"/></svg>