<svg id="Layer_1" data-name="Layer 1" xmlns="http://www.w3.org/2000/svg" viewBox="0 0 120.06 122.88"><title>cloth-pocket</title><path d="M4.1,0H116a4.11,4.11,0,0,1,4.1,4.1v82a4.1,4.1,0,0,1-2.22,3.65l-53,32.51a4.09,4.09,0,0,1-4.28,0L2.12,89.69A4.08,4.08,0,0,1,0,86.12H0V4.1A4.11,4.11,0,0,1,4.1,0ZM8.2,27.69h2.22a5.85,5.85,0,0,1,.59,0l.55.1h0a4.49,4.49,0,0,1,3.17,2.87A4.8,4.8,0,0,1,14.16,35a4.41,4.41,0,0,1-3.74,1.92H8.2V83.73l54.41,30.32,49.25-30.21V36.9H109a5.85,5.85,0,0,1-.59,0,5.35,5.35,0,0,1-.55-.11h0a4.5,4.5,0,0,1-3.16-2.86,4.74,4.74,0,0,1-.21-2.21,4.81,4.81,0,0,1,.79-2.06A4.43,4.43,0,0,1,109,27.69h2.88V8.2H8.2V27.69ZM98.64,35A4.43,4.43,0,0,1,94.9,36.9h-7a5.85,5.85,0,0,1-.59,0,5.35,5.35,0,0,1-.55-.11h0a4.48,4.48,0,0,1-3.17-2.86,4.8,4.8,0,0,1,.59-4.27,4.41,4.41,0,0,1,3.74-1.92h7c.19,0,.38,0,.58,0l.55.1h0a4.45,4.45,0,0,1,3.16,2.87,4.62,4.62,0,0,1,.21,2.21A4.86,4.86,0,0,1,98.64,35ZM77.52,35a4.41,4.41,0,0,1-3.74,1.92h-7c-.19,0-.39,0-.59,0s-.36-.06-.55-.11h0a4.5,4.5,0,0,1-3.17-2.86,4.88,4.88,0,0,1-.21-2.21,4.7,4.7,0,0,1,.8-2.06,4.41,4.41,0,0,1,3.74-1.92h7c.19,0,.38,0,.58,0l.55.1h0a4.47,4.47,0,0,1,3.16,2.87,4.62,4.62,0,0,1,.21,2.21A4.86,4.86,0,0,1,77.52,35ZM56.4,35a4.41,4.41,0,0,1-3.74,1.92h-7c-.19,0-.39,0-.59,0s-.36-.06-.55-.11h0a4.48,4.48,0,0,1-3.17-2.86,4.88,4.88,0,0,1-.21-2.21,4.83,4.83,0,0,1,.8-2.06,4.41,4.41,0,0,1,3.74-1.92h7c.19,0,.39,0,.59,0l.54.1h0A4.49,4.49,0,0,1,57,30.71,4.8,4.8,0,0,1,56.4,35ZM35.28,35a4.41,4.41,0,0,1-3.74,1.92h-7c-.19,0-.38,0-.58,0a5.54,5.54,0,0,1-.56-.11h0a4.46,4.46,0,0,1-3.16-2.86A4.75,4.75,0,0,1,20,31.67a5,5,0,0,1,.8-2.06,4.41,4.41,0,0,1,3.74-1.92h7c.19,0,.39,0,.59,0l.55.1h0a4.51,4.51,0,0,1,3.17,2.87,4.88,4.88,0,0,1,.21,2.21,4.75,4.75,0,0,1-.8,2.06Z"/></svg>