<svg xmlns="http://www.w3.org/2000/svg" shape-rendering="geometricPrecision" text-rendering="geometricPrecision" image-rendering="optimizeQuality" fill-rule="evenodd" clip-rule="evenodd" viewBox="0 0 512 331.11"><path d="M282.89 123.78c11.1.76 14.14 6.89 17.39 15.5 3.66 8.39 8.71 16.35 15.08 23.88 35.34 41.78 149.06 93.11 187.86 132.85 9.43 8.4 12.52 34.21 2.95 35.09-2.69.24-6.83-3.16-11.51-8.04H17.34c-4.68 4.88-8.82 8.28-11.51 8.04-9.57-.88-6.48-26.69 2.95-35.09 38.8-39.74 152.52-91.07 187.86-132.85 6.37-7.53 11.42-15.49 15.08-23.88 3.25-8.61 6.29-14.74 17.39-15.5h53.78zm201.15 187.3c-5.42-6.33-10.76-12.55-14.9-15.94-17.65-14.42-38.45-27.12-58.16-39.15l-70.35-41.02-75.65-42.83h-17.96l-75.65 42.83-70.35 41.02c-19.71 12.03-40.51 24.73-58.16 39.15-4.14 3.39-9.48 9.61-14.9 15.94h456.08zM242.91 97.09h26.18c1.76 0 3.2 1.45 3.2 3.2v13.87c0 1.74-1.45 3.19-3.2 3.19h-26.18c-1.75 0-3.2-1.43-3.2-3.19v-13.87c0-1.76 1.44-3.2 3.2-3.2zm-15.12-60.93a7.465 7.465 0 0 1-9.76 3.98c-3.8-1.6-5.58-5.97-3.98-9.76 3.88-9.25 8.78-16.11 14.12-20.93 5.56-5.01 11.66-7.88 17.69-8.96 6.17-1.1 12.24-.31 17.65 1.96l.66.31c4.09 1.83 7.76 4.5 10.76 7.83 1.74 1.94 3.23 4.08 4.46 6.36 4.58 8.52 4.91 18.32 2.34 27.48-2.46 8.77-7.63 17.05-14.22 22.99-1.27 1.14-2.6 2.21-3.99 3.18v16.65h-14.96V66.46c.02-2.66 1.44-5.23 3.94-6.57 1.73-.93 3.42-2.15 5.01-3.58 4.56-4.11 8.14-9.84 9.84-15.91 1.59-5.67 1.49-11.54-1.1-16.38-.61-1.16-1.42-2.31-2.43-3.43-1.6-1.79-3.53-3.21-5.62-4.17l-.47-.18c-2.84-1.19-6.04-1.6-9.29-1.02-3.39.6-6.91 2.31-10.27 5.34-3.84 3.46-7.43 8.55-10.38 15.6z"/></svg>