<?xml version="1.0" encoding="utf-8"?><svg version="1.1" id="Layer_1" xmlns="http://www.w3.org/2000/svg" xmlns:xlink="http://www.w3.org/1999/xlink" x="0px" y="0px" viewBox="0 0 122.879 116.042" enable-background="new 0 0 122.879 116.042" xml:space="preserve"><g><path fill="#672F1B" d="M75.311,0h28.192c2.401,0,4.604,1.001,6.218,2.613c1.693,1.695,2.746,4.058,2.746,6.678 c0,2.621-1.053,4.983-2.746,6.678c-1.613,1.611-3.816,2.613-6.218,2.613h-0.646v5.483c0.228,0.01,0.446,0.019,0.665,0.039 c0.409,0.028,0.837,0.076,1.274,0.133c2.368,0.313,4.668,1.018,6.779,2.044c2.148,1.047,4.116,2.425,5.78,4.061 c1.73,1.701,3.138,3.689,4.098,5.866c0.913,2.073,1.426,4.316,1.426,6.666c0,0.333-0.009,0.694-0.037,1.075 c-0.019,0.341-0.058,0.704-0.104,1.074c-3.071,20.452-1.36,41.645-4.925,61.944c-0.076,0.523-0.344,0.969-0.714,1.303 c-0.38,0.342-0.884,0.542-1.426,0.542H62.971c-0.571,0-1.102-0.229-1.492-0.6c-0.381-0.361-0.628-0.855-0.676-1.406l-4.707-59.691 c-0.058-0.409-0.095-0.798-0.124-1.178c-0.02-0.4-0.038-0.79-0.038-1.161c0-2.586,0.561-5.058,1.569-7.331 c1.055-2.396,2.605-4.573,4.506-6.437c1.835-1.807,4.003-3.328,6.361-4.479c2.329-1.131,4.858-1.911,7.473-2.253l0.038-0.009 v-5.684h-0.571c-2.403,0-4.605-1.001-6.218-2.613c-1.693-1.695-2.747-4.058-2.747-6.678c0-2.621,1.054-4.983,2.747-6.678 C70.705,1.001,72.907,0,75.311,0L75.311,0z"/><path fill="#FFFFFF" d="M101.745,29.348H79.163c-0.436,0-0.853,0.009-1.242,0.037c-0.398,0.028-0.797,0.065-1.177,0.121h-0.036 c-2.067,0.278-4.088,0.908-5.95,1.807c-1.899,0.927-3.632,2.14-5.096,3.577c-1.464,1.455-2.65,3.114-3.466,4.93 c-0.759,1.714-1.186,3.568-1.186,5.504c0,0.306,0.009,0.603,0.027,0.88v0.009c0.02,0.288,0.047,0.574,0.084,0.871l4.354,56.414 h47.686l4.55-58.518c0.027-0.241,0.056-0.482,0.073-0.723c0.019-0.241,0.019-0.509,0.019-0.797c0-1.714-0.38-3.354-1.046-4.865 c-0.715-1.602-1.771-3.076-3.067-4.354c-1.298-1.279-2.827-2.354-4.513-3.179c-1.659-0.806-3.457-1.362-5.31-1.604 c-0.344-0.037-0.695-0.074-1.048-0.092C102.487,29.366,102.125,29.348,101.745,29.348L101.745,29.348L101.745,29.348z"/><path fill="#F1D45F" d="M63.024,72.314l2.449,31.736h47.686l4.552-59.07C99.482,54.092,49.194,34.705,63.024,72.314L63.024,72.314z"/><path fill="#672F1B" d="M71.565,45.543h36.102c0.304,0,0.561,0.247,0.561,0.561l0.028,44.649c-0.028,0.285-0.266,0.504-0.552,0.504 H71.537c-0.304,0-0.552-0.248-0.562-0.552l0.048-44.544c-0.029-0.304,0.199-0.581,0.504-0.608L71.565,45.543L71.565,45.543 L71.565,45.543z"/><path fill="#692E19" d="M17.831,53.401c9.488-8.256,21.343-13.705,31.536-12.905c4.952,0.389,8.344,1.747,11.096,4.024 c2.649,2.194,4.521,5.109,6.596,8.793c2.905,5.163,5.056,10.008,6.515,14.561c1.479,4.613,2.24,8.927,2.35,12.965 c0.136,5.004-0.771,9.616-2.488,13.743c-2.7,6.494-7.401,11.774-13.194,15.477c-5.744,3.669-12.574,5.779-19.593,5.97 c-5.176,0.14-10.453-0.762-15.471-2.849c-3.374-1.402-6.708-3.335-9.999-5.804c-3.255-2.442-6.443-5.389-9.56-8.847 c-2.323-2.577-3.816-4.384-4.723-6.684c-0.912-2.314-1.084-4.804-0.711-8.634C1.212,72.659,8.415,61.594,17.831,53.401 L17.831,53.401z"/><path fill-rule="evenodd" clip-rule="evenodd" fill="#84462D" d="M49.151,43.231C30.338,41.755,4.825,63.794,2.909,83.47 c-0.656,6.741,0.513,8.526,4.748,13.226c6.025,6.685,12.218,11.311,18.571,13.953c21.331,8.872,47.621-5.333,46.96-29.745 c-0.204-7.545-2.877-16.219-8.521-26.249C60.818,47.815,57.814,43.912,49.151,43.231L49.151,43.231z"/><path fill-rule="evenodd" clip-rule="evenodd" fill="#672F1B" d="M49.151,43.231C30.338,41.755,4.825,63.794,2.909,83.47 c-0.656,6.741,0.513,8.526,4.748,13.226c1.73,1.168,3.353,2.014,4.876,2.571c8.068,2.95,8.159-1.586,14.29-4.231 c7.012-3.026,9.122,0.659,19.276-6.795c3.441-2.525,6.781-5.649,9.56-8.945c7.371-8.742,8.886-16.161,7.331-27.486 C59.804,46.73,56.53,43.811,49.151,43.231L49.151,43.231z"/><path fill-rule="evenodd" clip-rule="evenodd" fill="#FBFBFB" d="M11.364,81.072c0.423-2.76,1.267-5.231,2.39-7.506 c3.607-7.311,16.438-21.495,28.942-23.79c8.739-1.603,14.084,2.044,13.501,11.467c-0.278,4.479-1.86,9.242-3.804,12.182 c-1.688,2.552-3.933,4.941-6.667,7.188c-3.187,2.619-5.028,3.964-7.416,4.879c-3.998,1.531-7.979,0.959-11.331,2.51 c-3.626,1.679-6.001,4.766-8.999,4.834C11.558,92.983,10.616,85.959,11.364,81.072L11.364,81.072z"/><path fill-rule="evenodd" clip-rule="evenodd" fill="#EAF0F4" d="M56.009,58.737c0.044,0.77,0.041,1.588-0.012,2.456 c-0.277,4.479-1.86,9.242-3.804,12.182c-1.688,2.552-3.934,4.941-6.667,7.188c-3.186,2.619-5.027,3.964-7.415,4.879 c-3.998,1.531-7.98,0.959-11.331,2.51c-2.957,1.368-5.082,3.674-7.392,4.516c0.029-0.734,0.1-1.453,0.204-2.131 c0.423-2.759,1.267-5.23,2.39-7.506c3.607-7.311,16.438-21.494,28.942-23.789C52.78,58.701,54.483,58.6,56.009,58.737 L56.009,58.737z"/><path fill-rule="evenodd" clip-rule="evenodd" fill="#692E19" d="M21.29,97.554l2.549-0.964 c2.167,3.673,11.907,10.102,15.357,11.987C34.447,109.287,23.933,102.762,21.29,97.554L21.29,97.554z"/><path fill-rule="evenodd" clip-rule="evenodd" fill="#692E19" d="M32.771,93.745l2.549-0.963 c2.167,3.672,11.907,10.101,15.357,11.987C45.928,105.479,35.414,98.953,32.771,93.745L32.771,93.745z"/><path fill-rule="evenodd" clip-rule="evenodd" fill="#692E19" d="M62.54,66.688l-1.277,2.902c2.759,3.25,5.645,14.559,6.298,18.436 C69.786,83.771,66.596,70.89,62.54,66.688L62.54,66.688z"/><path fill-rule="evenodd" clip-rule="evenodd" fill="#692E19" d="M55.65,77.099l-1.745,2.093c2.761,3.25,5.646,14.558,6.298,18.436 C62.429,93.372,59.706,81.301,55.65,77.099L55.65,77.099z"/><path fill="#9B5A3A" d="M76.734,52.089h25.764c0.217,0,0.4,0.177,0.4,0.4l0.02,31.863c-0.02,0.204-0.189,0.36-0.394,0.36H76.714 c-0.217,0-0.394-0.177-0.4-0.394l0.034-31.789C76.322,52.258,76.507,52.145,76.734,52.089L76.734,52.089L76.734,52.089z"/></g></svg>