<svg xmlns="http://www.w3.org/2000/svg" shape-rendering="geometricPrecision" text-rendering="geometricPrecision" image-rendering="optimizeQuality" fill-rule="evenodd" clip-rule="evenodd" viewBox="0 0 512 512"><path d="M8.67 148.09c-4.95 3.02-9.47-2.72-8.55-6.42C22.44 85.3 69.22 20.18 122.27 3.58c20.46-6.4 18.86-4.71 32.63 9.07l167.22 167.21 10.02 10.02L499.35 357.1c13.78 13.77 15.47 12.17 9.07 32.63-16.6 53.05-81.72 99.83-138.09 122.15-3.7.92-9.44-3.6-6.42-8.55l88.39-88.39-8.69-8.69-86.85 86.85c-2.77 2.76-7.29 2.72-10.1-.1-2.82-2.82-2.87-7.34-.11-10.1l86.85-86.85-11.5-11.5-86.85 86.84c-2.76 2.76-7.28 2.72-10.1-.1-2.82-2.81-2.86-7.34-.1-10.1l86.85-86.85-9.86-9.85-86.85 86.85c-2.76 2.76-7.28 2.71-10.1-.1-2.81-2.82-2.86-7.34-.1-10.1l86.85-86.85-9.85-9.85-86.85 86.85c-2.76 2.76-7.28 2.71-10.1-.11-2.82-2.81-2.86-7.34-.1-10.1l86.85-86.85-9.85-9.85-86.86 86.85c-2.76 2.76-7.28 2.71-10.09-.1-2.82-2.82-2.87-7.34-.11-10.1l86.85-86.85-9.85-9.85-86.85 86.85c-2.76 2.76-7.28 2.71-10.1-.11-2.82-2.81-2.86-7.34-.1-10.1l86.85-86.85-9.86-9.85-86.84 86.85c-2.77 2.76-7.29 2.71-10.1-.1-2.82-2.82-2.87-7.34-.11-10.1l86.85-86.85-9.85-9.85-86.85 86.85c-2.76 2.76-7.28 2.71-10.1-.11-2.82-2.81-2.86-7.34-.1-10.1l86.85-86.85-11.68-11.67-86.85 86.85c-2.76 2.76-7.28 2.71-10.1-.11-2.81-2.81-2.86-7.33-.1-10.09l86.85-86.85-11.5-11.51-86.85 86.85c-2.76 2.76-7.29 2.72-10.1-.1-2.82-2.82-2.87-7.34-.11-10.1l86.85-86.85-9.85-9.85-86.85 86.85c-2.76 2.76-7.28 2.71-10.1-.11-2.81-2.81-2.86-7.34-.1-10.1l86.85-86.84-9.85-9.86-86.85 86.85c-2.76 2.76-7.29 2.72-10.1-.1-2.82-2.82-2.87-7.34-.11-10.1l86.85-86.85-9.85-9.85-86.85 86.85c-2.76 2.76-7.28 2.71-10.1-.11-2.81-2.81-2.86-7.33-.1-10.09l86.85-86.86-9.85-9.85-86.85 86.85c-2.76 2.76-7.29 2.72-10.1-.1-2.82-2.82-2.87-7.34-.11-10.1l86.85-86.85-9.85-9.85-86.85 86.85c-2.76 2.76-7.28 2.71-10.1-.1-2.81-2.82-2.86-7.34-.1-10.1l86.85-86.85-9.85-9.86-86.85 86.85c-2.76 2.76-7.29 2.72-10.1-.1-2.82-2.82-2.86-7.34-.1-10.1l86.84-86.85-11.5-11.5-86.85 86.85c-2.76 2.76-7.28 2.71-10.1-.11-2.82-2.81-2.86-7.34-.1-10.1l86.85-86.85-8.69-8.69-88.39 88.39z"/></svg>