<svg id="Layer_1" data-name="Layer 1" xmlns="http://www.w3.org/2000/svg" viewBox="0 0 115.47 122.88"><title>crop-top</title><path d="M99.44,88.05v0a25.84,25.84,0,0,1-11.88,1.35,28,28,0,0,1-12.83-5.35,2.16,2.16,0,1,0-2.53,3.49A32.2,32.2,0,0,0,87,93.7a29.37,29.37,0,0,0,11.41-.81c-1.84,10.28-1.14,18.34,2,30h-82c2.7-11.44,2.89-19.68-.7-29.71A29.24,29.24,0,0,0,28,93.7a32.16,32.16,0,0,0,14.82-6.13,2.16,2.16,0,1,0-2.53-3.49,28,28,0,0,1-12.83,5.35,25.69,25.69,0,0,1-11.79-1.32L15.62,88a26.69,26.69,0,0,1-7.45-6.38,37.06,37.06,0,0,1-7.85-19,43,43,0,0,1,.91-15.62A42.64,42.64,0,0,1,7.47,33.5L5.92,3.37a.9.9,0,0,1,.68-.92C10,1.62,13.43,1,16.81.1A.9.9,0,0,1,17.9.75a.4.4,0,0,1,0,.15l2.52,32.74c6.84,3.16,13.61,8.4,19.6,14.52a95,95,0,0,1,16.15,22h2.59a95.24,95.24,0,0,1,16.15-22c6-6.11,12.76-11.35,19.6-14.51L96.77.84a.9.9,0,0,1,1-.84A1,1,0,0,1,98,.07a52,52,0,0,0,10.79,2.45.9.9,0,0,1,.81,1l-2.1,30.05a63.92,63.92,0,0,1,3.16,5.6c4.71,9.51,6.31,18.9,3.16,29.38C111.42,76.57,107,84,99.44,88.05Z"/></svg>