<?xml version="1.0" encoding="utf-8"?><svg version="1.1" id="Layer_1" xmlns="http://www.w3.org/2000/svg" xmlns:xlink="http://www.w3.org/1999/xlink" x="0px" y="0px" viewBox="0 0 122.88 89" style="enable-background:new 0 0 122.88 89" xml:space="preserve"><g><path d="M7.25,0h108.39c1.99,0,3.79,0.81,5.11,2.13l0.01,0.01c1.31,1.31,2.13,3.12,2.13,5.11v37.03c0,12.3-5.03,23.48-13.14,31.59 C101.64,83.96,90.46,89,78.16,89H44.72c-12.3,0-23.48-5.03-31.59-13.14C5.03,67.76,0,56.57,0,44.27V7.25c0-1.99,0.82-3.8,2.13-5.11 l0.01,0L2.13,2.13C3.44,0.81,5.25,0,7.25,0L7.25,0z M117.01,43.99c-10.85,1.47-20.25,5.98-27.06,12.9 c-6.56,6.66-10.75,15.6-11.57,26.24c10.59-0.06,20.22-4.42,27.21-11.41c7.04-7.04,11.42-16.76,11.42-27.44V43.99L117.01,43.99z M72.53,83.13c0.84-12.28,5.66-22.62,13.25-30.34c7.9-8.02,18.76-13.18,31.23-14.71v-8h-21.2c-3.11,0-5.65-2.54-5.65-5.65v-5.66 c0-3.11,2.54-5.66,5.66-5.66h21.2V7.24c0-0.38-0.15-0.72-0.4-0.97c-0.25-0.25-0.59-0.4-0.97-0.4H7.25c-0.38,0-0.72,0.16-0.97,0.41 L6.27,6.27c-0.25,0.25-0.4,0.6-0.4,0.98v5.87h21.06c3.11,0,5.66,2.54,5.66,5.66v5.66c0,3.11-2.54,5.65-5.65,5.65H5.87v8 c12.47,1.53,23.34,6.68,31.23,14.71c7.6,7.72,12.42,18.06,13.25,30.34H72.53L72.53,83.13z M44.49,83.13 c-0.82-10.64-5.01-19.58-11.57-26.24c-6.81-6.92-16.21-11.43-27.06-12.9v0.28c0,10.68,4.37,20.4,11.42,27.44 C24.28,78.71,33.9,83.06,44.49,83.13L44.49,83.13z"/></g></svg>