<svg id="Layer_1" data-name="Layer 1" xmlns="http://www.w3.org/2000/svg" viewBox="0 0 112.46 122.88"><defs><style>.cls-1{fill-rule:evenodd;}</style></defs><title>earrings</title><path class="cls-1" d="M24.7,56.59a4.61,4.61,0,1,1-4.6,4.6,4.6,4.6,0,0,1,4.6-4.6ZM87.76,73.48h.09l12.29-12.29L87.89,49h-.25L75.39,61.19,87.68,73.48Zm6,.75a24.71,24.71,0,1,1-12.09,0l-13-13L82.37,47.51a10.84,10.84,0,0,1,3.06-20v-4.7a2.36,2.36,0,0,1,2.35-2.36,7.87,7.87,0,1,0-7.88-7.87,2.35,2.35,0,1,1-4.7,0,12.59,12.59,0,1,1,21.48,8.89h0A12.55,12.55,0,0,1,90.14,25v2.57a10.85,10.85,0,0,1,3,20l13.68,13.68-13,13Zm-6-41.33a5.21,5.21,0,1,1-5.2,5.21,5.21,5.21,0,0,1,5.2-5.21Zm0,50.22A15.06,15.06,0,1,1,72.71,98.18,15.06,15.06,0,0,1,87.76,83.12Zm0-26.53a4.61,4.61,0,1,1-4.6,4.6,4.6,4.6,0,0,1,4.6-4.6ZM24.7,73.48h.08L37.07,61.19,24.82,49h-.24L12.33,61.19,24.62,73.48Zm6,.75a24.7,24.7,0,1,1-12.08,0l-13-13L19.3,47.51a10.84,10.84,0,0,1,3.06-20v-4.7a2.36,2.36,0,0,1,2.36-2.36,7.87,7.87,0,1,0-7.88-7.87,2.36,2.36,0,0,1-4.71,0,12.59,12.59,0,1,1,21.49,8.89h0A12.55,12.55,0,0,1,27.07,25v2.57a10.85,10.85,0,0,1,3,20L43.78,61.19l-13,13Zm-6-41.33a5.21,5.21,0,1,1-5.21,5.21A5.21,5.21,0,0,1,24.7,32.9Zm0,50.22A15.06,15.06,0,1,1,9.64,98.18,15.07,15.07,0,0,1,24.7,83.12Z"/></svg>