<svg id="Layer_1" data-name="Layer 1" xmlns="http://www.w3.org/2000/svg" viewBox="0 0 122.88 91.21"><defs><style>.cls-1{fill-rule:evenodd;}</style></defs><title>eyeglasses</title><path class="cls-1" d="M27.52,36.17a27.54,27.54,0,0,1,26,18.34,15.45,15.45,0,0,1,7.59-2.34,16.06,16.06,0,0,1,8.44,2.08,27.53,27.53,0,0,1,41.59-13.14l-5.47-22.65c-.2-.84-.32-1.41-.42-1.89-.29-1.36-.35-1.65-1.89-3.23L95.89,5.68A3.35,3.35,0,0,1,100.69,1l7.43,7.66c2.89,3,3,3.6,3.64,6.51h0c.1.51.23,1.11.37,1.69l8.58,35.53a3.37,3.37,0,0,1,.09.77,27.52,27.52,0,1,1-53,10.51A25.8,25.8,0,0,1,68,60.9a10.19,10.19,0,0,0-6.66-2.5A9.67,9.67,0,0,0,55,61.48c0,.73.08,1.47.08,2.21a27.52,27.52,0,1,1-53-10.51,2.91,2.91,0,0,1,.1-.77l8.57-35.53c.14-.58.27-1.18.37-1.68.62-2.92.75-3.55,3.64-6.52L22.2,1A3.35,3.35,0,0,1,27,5.68l-7.44,7.67C18,14.93,18,15.21,17.68,16.56c-.1.48-.22,1.05-.42,1.9L11.79,41.11a27.33,27.33,0,0,1,15.73-4.94Zm67.84,6.32a21.21,21.21,0,0,1,18.83,11.45V54a3.28,3.28,0,0,0,.62,1.27A21.2,21.2,0,1,1,95.36,42.49ZM8.68,54a3.14,3.14,0,0,1-.62,1.27,21.26,21.26,0,1,0,.63-1.32V54ZM16,62a2,2,0,0,1-3.83-1A17.63,17.63,0,0,1,23.6,48.74a2,2,0,1,1,1.25,3.73A13.61,13.61,0,0,0,16,62Z"/></svg>