<svg xmlns="http://www.w3.org/2000/svg" shape-rendering="geometricPrecision" text-rendering="geometricPrecision" image-rendering="optimizeQuality" fill-rule="evenodd" clip-rule="evenodd" viewBox="0 0 342 511.61"><path fill-rule="nonzero" d="M108 228.69c-4.2 11.43-14.18 29.23-26.2 50.62-18.85 33.59-42.86 76.35-55.65 113.43-12.53 36.29-14.44 67.02 11.26 75.89 4.19 1.45 8.58 1.96 13.11 1.82 3.44-.11 6.99-.61 10.61-1.37 1.08-22.86 7.46-55.83 16.04-87.17 9.42-34.36 21.6-67.09 32.51-82.85 2.08-3.01 6.21-3.77 9.22-1.69a6.628 6.628 0 0 1 1.68 9.22c-10.06 14.54-21.57 45.73-30.63 78.79-8.54 31.17-14.83 63.78-15.65 85.57 9.74 9.65 19.39 14.98 28.94 16.37 8.46 1.24 17.16-.59 26.05-5.21-1.64-19.07-.96-45.86 1.06-73.08 2.66-35.82 7.66-72.65 12.77-93.63.86-3.55 4.45-5.73 8-4.88 3.56.86 5.74 4.45 4.88 8-4.93 20.24-9.8 56.22-12.41 91.44-1.98 26.58-2.66 52.57-1.1 70.78l.27.22c10.07 8.62 19.76 13.25 29.04 13.59 8.94.33 18.02-3.38 27.23-11.4 1.68-17.28.8-41.91-1.45-67.36-3.09-34.86-8.71-70.91-13.81-91.83-.86-3.55 1.33-7.14 4.88-7.99a6.623 6.623 0 0 1 8 4.88c5.27 21.62 11.04 58.46 14.17 93.8 2.25 25.52 3.15 50.45 1.52 68.63 11.19 4.88 21.08 6.36 29.73 4.64 8.84-1.76 16.74-6.98 23.75-15.44-.57-21.78-6.95-55.19-15.69-87.1-9.07-33.06-20.58-64.25-30.64-78.79-2.08-3.01-1.32-7.14 1.69-9.22 3.01-2.08 7.14-1.32 9.22 1.69 10.9 15.76 23.08 48.49 32.5 82.85 8.63 31.47 15.02 64.58 16.06 87.45 7.5 3.42 14.05 4.85 19.55 4.11 5.26-.72 9.88-3.64 13.81-8.95 39.7-53.62-23.5-145.49-59.7-198.09-11.26-16.37-20.13-29.25-23.36-37.74H108zm-.22-38.14h121.79c1.62-23.74 6.14-38.59 13.54-62.93l2.89-9.63-7.99-25.68 15.27-4.75 6.48 20.82 50.03-12.49c-8.01-22.06-15.76-37.94-26.82-49.71C271.82 34.3 256.78 26.12 234 19.33c-7.19 17.13-17.49 30.07-29.29 38.58-11.04 7.97-23.42 12.09-35.88 12.2-12.48.11-24.95-3.8-36.13-11.89-11.66-8.43-21.92-21.41-29.26-39.06-22.21 6.05-37.76 14.48-49.39 26.71C42.5 58.02 34.41 74.25 27.27 95.82l50.59 12.63 7.46-21.17 15.09 5.32-9.02 25.55 2.86 9.52c7.41 24.34 11.92 39.15 13.53 62.88zm141.92 40.94c3.9 6.3 9.9 15.02 16.94 25.25 38.72 56.27 106.31 154.52 59.37 217.93-6.81 9.21-15.27 14.34-25.23 15.69-7.61 1.04-15.87-.26-24.73-3.72-8.92 9.66-19.13 15.75-30.71 18.04-11.87 2.36-24.87.64-39.05-5.4-11.37 8.73-23.08 12.74-35.09 12.3-11.74-.44-23.37-5.16-34.89-13.91-11.82 5.98-23.67 8.29-35.54 6.55-12.21-1.79-24.15-7.84-35.75-18.55-4.66 1-9.32 1.66-13.96 1.8-6.49.21-12.9-.57-19.19-2.74-38.07-13.14-37.48-52.18-21.82-97.54 13.38-38.77 37.73-82.15 56.86-116.22 9.71-17.29 18.02-32.11 22.59-42.03 4.73-10.21 3.03-18.31 2.46-29.61-1.18-23.28-4.76-40.05-12.97-67.03l-2.34-7.69-69.64-17.37 2.45-8.04c8.52-27.99 18.13-48.7 33.02-64.35C57.53 19.02 77.5 8.74 106.5 1.86l7-1.66 2.39 6.82c6.27 17.92 15.55 30.59 26.14 38.24 8.36 6.05 17.56 8.97 26.68 8.89 9.14-.08 18.35-3.19 26.68-9.2 10.83-7.82 20.21-20.52 26.23-37.9L224.07 0l7.16 1.92c29.75 7.99 48.93 17.92 63.38 33.3 14.32 15.24 23.42 35.25 33.22 63.7l2.84 8.23-69.97 17.46-2.32 7.64c-8.27 27.19-11.86 44.02-13.01 67.57-.71 14.51-2.91 19.99 4.33 31.67z"/></svg>