<svg id="Layer_1" data-name="Layer 1" xmlns="http://www.w3.org/2000/svg" viewBox="0 0 110.41 122.88"><title>gumboot</title><path d="M57.9,0h50.33a2.19,2.19,0,0,1,2.18,2.18V13.94a2.2,2.2,0,0,1-2.18,2.19h-.06V80.74c-9-1.32-16.49.38-22.21,4.62S76.15,96.7,74.45,105.8c-24.91,5-41.77,11.45-72.24,2.73,1.23-12,6-19.63,20.39-20.83C42.93,86,57.21,80.13,58.94,56.09v-40h-1a2.2,2.2,0,0,1-2.18-2.19V2.18A2.19,2.19,0,0,1,57.9,0ZM0,116.71l1.54-5.66c19,8.36,44.44,6,72.41-.85,6.24-1.53,7.5-2.58,14.48-2.52,6.68.06,13.32.26,19.87.76l-1.48,8.39H95.17l0-2.1H91V117H82.86v-5.8c-3.9.08-2.93.13-4.67,3.87a121.22,121.22,0,0,1-11.82,3.16l-.94-1.93-5.27,1.36.61,1.79q-5.06,1.21-11.47,2.19L49,119.93l-5.45.69.05,1.5c-4.2.35-8.17.62-12.49.6l.43-1.59L25.82,121l-.32,1.91A72.54,72.54,0,0,1,13,121.18l1.42-1.81-5.27-1.26L8.05,120c-3.51-1.13-6.26-1.65-8-3.28ZM108.17,83.88V105.2c-7.3-2.22-16.85-2.37-24.38-1.13q-3.11.51-6,1.08c1.66-7.71,5.09-13.62,10.06-17.3,5.15-3.82,12-5.29,20.36-4Z"/></svg>