<svg id="Layer_1" data-name="Layer 1" xmlns="http://www.w3.org/2000/svg" viewBox="0 0 122.88 101.27"><title>hanger</title><path d="M61.91,46,10.1,87.4l-.25.18a7,7,0,0,0-2.69,3.2,1.9,1.9,0,0,0,.77,2.43,7.3,7.3,0,0,0,4.25,1h98.16l.32,0a8.82,8.82,0,0,0,4.16-.84,2.07,2.07,0,0,0,1-1,2.31,2.31,0,0,0,0-1.46,9.15,9.15,0,0,0-2.63-3.81c-.34-.32-.66-.61-1-.88s-.74-.58-1.13-.87l-.15-.11L61.91,46ZM5.75,81.9,58.43,39.83v-7a3.52,3.52,0,0,1,3.23-3.5c6.36-.81,9.78-4,10.91-7.66a11.31,11.31,0,0,0,.29-5A12.27,12.27,0,0,0,71,11.86,10.87,10.87,0,0,0,59.4,7.28a10,10,0,0,0-5.79,3.63,15.17,15.17,0,0,0-3.12,7.78,3.5,3.5,0,0,1-6.94-.88A22.15,22.15,0,0,1,48.18,6.49,16.94,16.94,0,0,1,58.06.4,17.63,17.63,0,0,1,76.78,8a19.27,19.27,0,0,1,3,7.59,18,18,0,0,1-.51,8.18C77.59,29.22,73.2,34,65.46,35.8v4.08l49.75,40c.48.34.92.69,1.34,1s1,.83,1.37,1.2A16.27,16.27,0,0,1,122.45,89a9.13,9.13,0,0,1-.15,6,8.92,8.92,0,0,1-4.08,4.53,15.68,15.68,0,0,1-7.58,1.71l-.3,0H12.18a14.11,14.11,0,0,1-8.34-2.38A9,9,0,0,1,.41,94.26a9.15,9.15,0,0,1,.11-5.73A13.91,13.91,0,0,1,5.75,81.9Z"/></svg>