<svg id="Layer_1" data-name="Layer 1" xmlns="http://www.w3.org/2000/svg" viewBox="0 0 122.88 112.75"><defs><style>.cls-1{fill:#ffe256;fill-rule:evenodd;}</style></defs><title>hoodie-merchandise</title><path d="M37.85,8.68l23.59,7.73,7.09-2.35C74,12.25,79.4,10.43,84.71,8.78a7.85,7.85,0,0,0,3.9-2.21,1.05,1.05,0,0,0,.27-.64.81.81,0,0,0-.28-.49A6.66,6.66,0,0,0,85,4.17,184.1,184.1,0,0,0,60.89,2.56,173.23,173.23,0,0,0,37.3,4.22,6.09,6.09,0,0,0,34,5.38a.73.73,0,0,0-.25.43,1.14,1.14,0,0,0,.28.65,7.83,7.83,0,0,0,3.79,2.22Zm-19.28,9,.07-.11a20.19,20.19,0,0,1,8.18-6.32,23,23,0,0,1,6.91-1.67A6.62,6.62,0,0,1,32,8a3.69,3.69,0,0,1-.81-2.26,3.13,3.13,0,0,1,1-2.23A8.41,8.41,0,0,1,37,1.66,174.55,174.55,0,0,1,60.88,0,183.86,183.86,0,0,1,85.32,1.63a9,9,0,0,1,5.06,2,3.27,3.27,0,0,1,1.07,2.23,3.51,3.51,0,0,1-.79,2.31,6.51,6.51,0,0,1-1.57,1.44,22.45,22.45,0,0,1,7.1,1.67,20.09,20.09,0,0,1,8.07,6.32,1.37,1.37,0,0,1,.13.2v0l18.27,27.72a1.27,1.27,0,0,1,.2.86l-5.64,47.29A1.3,1.3,0,0,1,116,94.8H102.72a1.29,1.29,0,0,1-1.29-1.29v-.1q-.18-18.55-.34-37.1l-7.17-8.46v63.61a1.29,1.29,0,0,1-1.29,1.29H30.17a1.29,1.29,0,0,1-1.29-1.29v-64l-7.1,8.82q-.18,18.56-.35,37.12h0a1.29,1.29,0,0,1-1.29,1.29H6.93a1.29,1.29,0,0,1-1.28-1.14L0,46.37H0a1.34,1.34,0,0,1,.2-.86L18.49,17.8a.91.91,0,0,1,.08-.13Zm17.94-5.62a21.82,21.82,0,0,0-8.69,1.58,17.49,17.49,0,0,0-6.33,4.53,22.72,22.72,0,0,1,7.7,9c1.82,4,2.59,9.18,2.26,16.57v60.85H91.34V45.16h0c0-1.29,0-2.55,0-3.77,0-5.84.8-10.17,2.4-13.71a25.07,25.07,0,0,1,7.17-9l.53-.45h0a17.31,17.31,0,0,0-6.27-4.59,20.9,20.9,0,0,0-8.63-1.54c-1,3.23-3.94,6.08-7.64,8.44a55.35,55.35,0,0,1-16.11,6.59V38H60.2V27.09a55.29,55.29,0,0,1-16.05-6.57c-3.7-2.37-6.66-5.23-7.64-8.47Zm2.64-.22c.94,2.37,3.37,4.59,6.39,6.52a52.05,52.05,0,0,0,14.67,6.09V18.73l-21.06-6.9ZM62.8,18.68v5.77a52.35,52.35,0,0,0,14.72-6.11C80.58,16.39,83,14.13,84,11.72,79,13.27,74.18,14.89,69.34,16.5c-2.28.77-4.57,1.53-6.54,2.18Zm41.13,63.84h12l4.29-36L103,20.32l-.51.43A23.84,23.84,0,0,0,96,30.07a34.68,34.68,0,0,0-2.1,11.33c0,.81,0,1.65,0,2.52L103.38,55a1.22,1.22,0,0,1,.3.82l.25,26.7Zm-97,0H19l.25-26.7a1.32,1.32,0,0,1,.28-.8h0L28.9,43.33c.27-6.81-.43-11.52-2.06-15.13a20.3,20.3,0,0,0-6.88-8L2.63,46.53l4.29,36Z"/><path d="M61.44,42a15.87,15.87,0,0,1,11.21,4.65l0,0a15.83,15.83,0,0,1,0,22.4l0,0a15.83,15.83,0,0,1-22.4,0l0,0a15.83,15.83,0,0,1,0-22.4l0,0A15.82,15.82,0,0,1,61.44,42Z"/><path class="cls-1" d="M61.44,46.49A11.43,11.43,0,1,1,50,57.91,11.42,11.42,0,0,1,61.44,46.49Z"/><path d="M51.08,87.07a2.57,2.57,0,1,1,0-5.13H71.8a2.57,2.57,0,1,1,0,5.13Z"/></svg>