<svg id="Layer_1" data-name="Layer 1" xmlns="http://www.w3.org/2000/svg" viewBox="0 0 122.88 122.84"><defs><style>.cls-1{fill:#ffe256;fill-rule:evenodd;}</style></defs><title>keychain-merchandise</title><path d="M53.4,53.36A38.74,38.74,0,0,1,57,50.15l-.4-.41a4.89,4.89,0,0,0-6.19-.56.89.89,0,0,1-1.24,1.24,4.89,4.89,0,0,0,.56,6.19l.41.41a41.3,41.3,0,0,1,3.25-3.66ZM66.89,66.85A16.77,16.77,0,0,1,90.6,90.56l-.3.28a16.76,16.76,0,0,1-23.41-24Zm25.9,39.22a2.33,2.33,0,0,1-3.3-3.29l13.33-13.33a2.33,2.33,0,1,1,3.3,3.3L92.79,106.07ZM45.12,45.12a1.09,1.09,0,0,1,1.1-.11,2.25,2.25,0,0,0,.06-.74,3.21,3.21,0,0,0-1-1.94,3.12,3.12,0,0,0-1.93-.94,1.75,1.75,0,0,0-2,2,3.12,3.12,0,0,0,.94,1.93,3.21,3.21,0,0,0,1.94,1,2.25,2.25,0,0,0,.74-.06,1.09,1.09,0,0,1,.11-1.1Zm3.48,1.43.15.15.16.16a7.64,7.64,0,0,1,9.66.93l.7.7A40.7,40.7,0,1,1,48.5,59.28l-.71-.71a7.59,7.59,0,0,1-2.23-5.39,7.7,7.7,0,0,1,1.3-4.27l-.16-.16-.15-.15a4.77,4.77,0,0,1-2.51.45,6.09,6.09,0,0,1-5.42-5.42,4.83,4.83,0,0,1,.47-2.58l-.83-.84a4.58,4.58,0,0,1-2.37.42,5.74,5.74,0,0,1-5.11-5.11A4.43,4.43,0,0,1,31.26,33l-.15-.09a18.54,18.54,0,0,1-12.3,4.56A18.86,18.86,0,0,1,0,18.7,18.61,18.61,0,0,1,18.7,0,18.86,18.86,0,0,1,37.5,18.81a18.54,18.54,0,0,1-4.56,12.3l.09.15a4.43,4.43,0,0,1,2.49-.48,5.74,5.74,0,0,1,5.11,5.11,4.58,4.58,0,0,1-.42,2.37l.84.83a4.81,4.81,0,0,1,2.58-.47A6.09,6.09,0,0,1,49.05,44a4.77,4.77,0,0,1-.45,2.51ZM28.47,28.47c.31-.3.9-.26,1.58.05a14.72,14.72,0,0,0,3.59-9.71A15,15,0,0,0,18.7,3.86,14.78,14.78,0,0,0,3.86,18.7a15,15,0,0,0,15,14.94,14.72,14.72,0,0,0,9.71-3.59c-.31-.68-.35-1.27-.05-1.58Zm6.82,5.08a1.51,1.51,0,0,0-1.74,1.74A2.78,2.78,0,0,0,34.39,37a2.82,2.82,0,0,0,1.72.85,1.53,1.53,0,0,0,1.75-1.75,3,3,0,0,0-2.57-2.56ZM56.91,56.87A35.74,35.74,0,1,0,82.18,46.41,35.65,35.65,0,0,0,56.91,56.87Z"/><path class="cls-1" d="M70.21,70.17a12.07,12.07,0,1,1,0,17.07,12.06,12.06,0,0,1,0-17.07Z"/></svg>