<?xml version="1.0" encoding="utf-8"?><svg version="1.1" id="Layer_1" xmlns="http://www.w3.org/2000/svg" xmlns:xlink="http://www.w3.org/1999/xlink" x="0px" y="0px" viewBox="0 0 92.75 122.88" style="enable-background:new 0 0 92.75 122.88" xml:space="preserve"><g><path d="M46.37,0c12.8,0,24.4,5.19,32.79,13.58c8.39,8.39,13.58,19.99,13.58,32.79s-5.19,24.4-13.58,32.79 c-8.39,8.39-19.99,13.58-32.79,13.58s-24.4-5.19-32.79-13.58C5.19,70.77,0,59.18,0,46.37s5.19-24.4,13.58-32.79 C21.98,5.19,33.57,0,46.37,0L46.37,0z M4.99,122.88c-2.04,0-3.7-1.66-3.7-3.7c0-2.04,1.66-3.7,3.7-3.7h82.77 c2.05,0,3.7,1.66,3.7,3.7c0,2.05-1.66,3.7-3.7,3.7H4.99L4.99,122.88z M4.99,106.72c-2.04,0-3.7-1.66-3.7-3.7 c0-2.04,1.66-3.7,3.7-3.7h82.77c2.05,0,3.7,1.66,3.7,3.7c0,2.04-1.66,3.7-3.7,3.7H4.99L4.99,106.72z M32.07,64.99l-8.01-34.06h7.09 l5.07,23.4l6.22-23.4h8.2l5.95,23.79l5.19-23.79h6.92l-8.21,34.06h-7.37L46.4,39.53l-6.76,25.47H32.07L32.07,64.99z M72.15,20.59 C65.56,14,56.44,9.92,46.37,9.92c-10.07,0-19.18,4.08-25.78,10.68C14,27.19,9.92,36.31,9.92,46.37c0,10.07,4.08,19.18,10.68,25.78 c6.6,6.6,15.71,10.68,25.78,10.68s19.18-4.08,25.78-10.68c6.6-6.6,10.68-15.71,10.68-25.78C82.83,36.31,78.75,27.19,72.15,20.59 L72.15,20.59z"/></g></svg>