<?xml version="1.0" encoding="utf-8"?><svg version="1.1" id="Layer_1" xmlns="http://www.w3.org/2000/svg" xmlns:xlink="http://www.w3.org/1999/xlink" x="0px" y="0px" viewBox="0 0 106.79 122.88" style="enable-background:new 0 0 106.79 122.88" xml:space="preserve"><g><path d="M53.39,0c14.74,0,28.09,5.98,37.75,15.64c9.66,9.66,15.64,23.01,15.64,37.75c0,14.74-5.98,28.09-15.64,37.75 c-9.66,9.66-23.01,15.64-37.75,15.64c-14.74,0-28.09-5.98-37.75-15.64C5.98,81.49,0,68.14,0,53.39C0,38.65,5.98,25.3,15.64,15.64 C25.3,5.98,38.65,0,53.39,0L53.39,0z M5.75,122.88c-2.35,0-4.26-1.91-4.26-4.26c0-2.35,1.91-4.26,4.26-4.26h95.29 c2.35,0,4.26,1.91,4.26,4.26c0,2.35-1.91,4.26-4.26,4.26H5.75L5.75,122.88z M36.92,74.83L27.7,35.61h8.16l5.83,26.94l7.16-26.94 h9.44l6.85,27.4l5.97-27.4h7.97l-9.45,39.22h-8.48l-7.73-29.32l-7.79,29.32H36.92L36.92,74.83z M83.08,23.71 c-7.6-7.6-18.09-12.29-29.68-12.29c-11.59,0-22.09,4.7-29.68,12.29c-7.6,7.6-12.29,18.09-12.29,29.68 c0,11.59,4.7,22.09,12.29,29.68c7.6,7.6,18.09,12.29,29.68,12.29c11.59,0,22.09-4.7,29.68-12.29c7.6-7.6,12.29-18.09,12.29-29.68 C95.37,41.8,90.67,31.31,83.08,23.71L83.08,23.71z"/></g></svg>