<?xml version="1.0" encoding="utf-8"?><svg version="1.1" id="Layer_1" xmlns="http://www.w3.org/2000/svg" xmlns:xlink="http://www.w3.org/1999/xlink" x="0px" y="0px" viewBox="0 0 122.88 121.8" style="enable-background:new 0 0 122.88 121.8" xml:space="preserve"><g><path d="M5.43,0h112.02c3,0,5.43,2.43,5.43,5.43v110.94c0,3-2.43,5.43-5.43,5.43H5.43c-3,0-5.43-2.43-5.43-5.43V5.43 C0,2.43,2.43,0,5.43,0L5.43,0z M10.86,30.48l19.62-19.62H10.86V30.48L10.86,30.48z M39.25,10.86L10.86,39.25V55.5L55.5,10.86H39.25 L39.25,10.86z M64.28,10.86L10.86,64.28v46.66h101.16V10.86H64.28L64.28,10.86z"/></g></svg>