<?xml version="1.0" encoding="utf-8"?><svg version="1.1" id="Layer_1" xmlns="http://www.w3.org/2000/svg" xmlns:xlink="http://www.w3.org/1999/xlink" x="0px" y="0px" viewBox="0 0 122.88 122.88" style="enable-background:new 0 0 122.88 122.88" xml:space="preserve"><g><path d="M61.44,0c16.97,0,32.33,6.88,43.44,18c11.12,11.12,18,26.48,18,43.44c0,16.97-6.88,32.33-18,43.44 c-11.12,11.12-26.48,18-43.44,18c-16.96,0-32.33-6.88-43.44-18C6.88,93.76,0,78.4,0,61.44C0,44.47,6.88,29.11,18,18 C29.11,6.88,44.47,0,61.44,0L61.44,0z M42.49,86.11L31.88,40.98h9.39l6.71,31l8.24-31h10.86l7.88,31.52l6.87-31.52H91L80.13,86.11 h-9.76l-8.9-33.74l-8.96,33.74H42.49L42.49,86.11z M95.6,27.28c-8.74-8.74-20.82-14.15-34.16-14.15 c-13.34,0-25.41,5.41-34.16,14.15c-8.74,8.74-14.15,20.82-14.15,34.16c0,13.34,5.41,25.41,14.15,34.16 c8.74,8.74,20.82,14.15,34.16,14.15c13.34,0,25.41-5.41,34.16-14.15c8.74-8.74,14.15-20.82,14.15-34.16 C109.74,48.1,104.34,36.03,95.6,27.28L95.6,27.28z"/></g></svg>