<svg id="Layer_1" data-name="Layer 1" xmlns="http://www.w3.org/2000/svg" viewBox="0 0 109.79 122.88"><defs><style>.cls-1{fill-rule:evenodd;}.cls-2{fill:#fff;}</style></defs><title>leather</title><path class="cls-1" d="M65.55,0a19.11,19.11,0,0,0,19,17.66,19,19,0,0,0,12.28-4.48L108,30.3A32.69,32.69,0,0,0,89.74,60c0,13.93,8.33,25.81,20.05,30.47l-10.74,18.1c-6.13-3-14.29-3.87-22.57-1.69-9.93,2.61-17.52,8.87-20.57,16l-2.06-.07c-3.07-7.12-10.64-13.35-20.54-16-8.14-2.14-16.16-1.39-22.25,1.54L0,90.49C0,90.43,19.45,81.3,19.45,60A32.74,32.74,0,0,0,1.84,30.6v-.13L12.65,13.39c.49-.21,7.64,4.27,12.9,4.27A19.11,19.11,0,0,0,44.59,0Z"/><path class="cls-2" d="M53.5,114.08l.67,1.56,3.15-1.36-.37-.87c.38-.77.85-1.53,1.28-2.27l-3-1.72-.21.37-.23-.38-2.95,1.74a24.53,24.53,0,0,1,1.62,2.93Zm6-9.13-1.3,1.12,2.23,2.6a46.4,46.4,0,0,1,5.46-4.11L64,101.7A41.38,41.38,0,0,0,59.48,105Zm10-5.74-1.62.57L69,103a55.78,55.78,0,0,1,6.59-1.91l-.78-3.34a49.56,49.56,0,0,0-5.34,1.45ZM80.53,97l-1.71.14.29,3.42c2.51-.21,4.38-.3,6.9-.28l0-3.43c-1.89,0-3.62,0-5.5.15ZM92,97.87l-1.62-.53-1.07,3.26a22.51,22.51,0,0,0,3.11,1.11,1.65,1.65,0,0,0,1.86-.24,1.89,1.89,0,0,0,.32-.37l1.91-3-2.87-1.85L92.52,98l-.5-.17Zm4.65-6.26-.93,1.44,2.88,1.86,1.91-3a1.9,1.9,0,0,0,.22-.5,1.57,1.57,0,0,0,0-.48h-.28v-.91a2.33,2.33,0,0,0-.34-.37h0l0,0h0l0,0h0l-.06-.06h0l-.07-.06c-.34-.29-.71-.61-1-.92l-1.27-1.16L95.38,90l1.47,1.33-.18.28Zm-4.59-5.25,1.1,1.31,2.62-2.2c-1.47-1.76-2.66-3.27-4-5.12l-2.76,2c1,1.37,2,2.68,3.06,4ZM86.5,78.11l.78,1.52,3-1.56c-1.08-2.1-1.83-3.7-2.73-5.88L84.43,73.5c.66,1.59,1.28,3.08,2.07,4.61Zm-3.45-9.38.38,1.67,3.34-.77c-.52-2.28-.86-4-1.2-6.37l-3.39.49c.25,1.72.49,3.29.87,5ZM82,58.8l0,1.71,3.42.05c0-2.33.13-4.16.34-6.48l-3.41-.32c-.16,1.7-.32,3.34-.33,5Zm1.26-9.88-.4,1.66,3.32.81c.55-2.22,1.08-4.11,1.75-6.28l-3.28-1c-.29.94-.58,1.88-.86,2.83l3.29,1-.49,1.85-2.8-2.8c-.19.66-.37,1.32-.53,2Zm3.21-9.39-.72,1.55,3.1,1.45a47.41,47.41,0,0,1,3-5.66L89,35.07a44.47,44.47,0,0,0-2.5,4.46Zm6.31-8.24-1.4,1,2,2.8A24.17,24.17,0,0,1,96,33.34h0a1.67,1.67,0,0,0,.93-1.68,1.8,1.8,0,0,0-.23-.71L95,28,92,29.73l.87,1.49-.11.07Zm-2.8-5,.88,1.48,3-1.74-1.74-2.95h0a1.72,1.72,0,0,0-.23-.32,1.68,1.68,0,0,0-.57-.38l-.13-.05a15.84,15.84,0,0,0-4.09.12l.3,3.41,2.28-.2.37.64Zm-7.32-.2,1.71,0,0-3.43c-2.27,0-4.16,0-6.43-.13l-.19,3.42c1.69.1,3.27.18,5,.16Zm-9.78-1,1.66.43.86-3.32a34.86,34.86,0,0,1-6-2l-1.33,3.15a30.69,30.69,0,0,0,4.78,1.73Zm-9-4.87,1.19,1.23,2.46-2.38a18.63,18.63,0,0,1-3.73-4.86l-2.95,1.74a19.31,19.31,0,0,0,3,4.27Zm-4.42-9.29.26,1.7,3.38-.51C63,11,62.79,9.94,62.7,8.83h0a1.67,1.67,0,0,0-1.14-1.49,1.85,1.85,0,0,0-.57-.1H57.22v3.43h2.23l0,.24Zm-8.81-.24h1.71V7.24H48.61a1.69,1.69,0,0,0-1.7,1.58c-.09,1.12-.27,2.13-.45,3.24l3.38.55c.11-.65.22-1.3.31-1.95Zm-2.87,6.81L48.7,16l-2.92-1.79A19.19,19.19,0,0,1,42,19.09l2.43,2.41a20.31,20.31,0,0,0,3.39-4Zm-8,6.63,1.58-.66-1.32-3.16a37.46,37.46,0,0,1-6,2L35,25.62a34,34,0,0,0,4.88-1.51ZM30,26.2l1.71-.11-.2-3.42c-2.28.14-4.19.19-6.47.18l0,3.43c1.69,0,3.3,0,5-.08ZM20.34,26l1.71.13.26-3.42a19.35,19.35,0,0,0-4-.11,1.74,1.74,0,0,0-1,.78l-1.75,2.95L18.48,28l1.27-2.12.59,0ZM16.7,31l.88-1.47L14.63,27.8l-.87,1.48,1.42.84-1.42-.84-.88,1.47a1.71,1.71,0,0,0,.18,2,1.55,1.55,0,0,0,.52.4,21.83,21.83,0,0,1,2.63,1.75l2-2.78c-.51-.36-1-.73-1.52-1.08Zm4.82,5.37-.89-1.47-2.92,1.79a48.21,48.21,0,0,1,3,5.68L23.84,41a40.68,40.68,0,0,0-2.32-4.56Zm3.93,9.25L25,44l-3.28,1c.67,2.18,1.2,4.07,1.74,6.3l3.33-.8c-.4-1.65-.79-3.24-1.29-4.86Zm.89,3.2-3.33.8,3.33-.8Zm1.1,6.59-.15-1.71-3.42.3c.21,2.32.31,4.17.34,6.5l3.42,0c0-1.73,0-3.33-.19-5.05Zm-.25,10,.24-1.7L24,63.27c-.33,2.33-.66,4.1-1.18,6.39l3.34.76c.38-1.67.75-3.27,1-5Zm-2.62,9.69.65-1.58-3.17-1.31c-.9,2.18-1.64,3.81-2.71,5.91l3.05,1.56c.79-1.54,1.52-3,2.18-4.58ZM19.68,83.9l1-1.39-2.79-2c-1.34,1.87-2.51,3.41-4,5.19l2.66,2.17c1.08-1.33,2.09-2.58,3.1-4Zm-6.54,7.52,1.25-1.17L12,87.75l-1.25,1.17c-.33.32-.66.63-1,.93h0l-.2.18,0,0-.07.07,0,0-.1.1h0a1.15,1.15,0,0,0-.16.19,1.71,1.71,0,0,0-.07,2l1.89,2.91L14,93.31l-1.09-1.69.21-.2Zm3.77,6.35L16,96.33,13.1,98.19c.19.28,1.89,2.91,1.89,2.91a1.66,1.66,0,0,0,1.57.78,1.84,1.84,0,0,0,.61-.16,23.15,23.15,0,0,1,3.12-1.11l-1-3.26c-.72.22-1.45.44-2.16.69l-.18-.27Zm.71.09,1,3.27-1-3.27Zm7.76-1.07H23.67v3.42a66.82,66.82,0,0,1,6.93.31l.3-3.42c-1.89-.17-3.63-.32-5.53-.32ZM36.7,98.2,35,97.8l-.8,3.33a57.21,57.21,0,0,1,6.63,2L42,99.86A50.91,50.91,0,0,0,36.7,98.2Zm10.63,4.49-1.44-.93L44,104.64a50.5,50.5,0,0,1,5.57,4.06l2.18-2.64a43.7,43.7,0,0,0-4.45-3.37Z"/></svg>