<svg xmlns="http://www.w3.org/2000/svg" shape-rendering="geometricPrecision" text-rendering="geometricPrecision" image-rendering="optimizeQuality" fill-rule="evenodd" clip-rule="evenodd" viewBox="0 0 366 512.7"><path fill-rule="nonzero" d="M11.94 368.86v28c39.83 2.04 72.26 10.91 96.07 27.75 24.16 17.08 39.33 42.1 44.24 76.15h60.85c4.06-30.4 17.49-54.78 40.88-72.77 23.36-17.97 56.53-29.36 100.08-33.79v-25.34H11.94zm221.11-148.93a3.487 3.487 0 0 1-4.9.6 3.486 3.486 0 0 1-.6-4.9c7.03-9.02 14.6-17.42 22.8-25.09 8.22-7.7 17.02-14.63 26.47-20.69a3.484 3.484 0 0 1 4.83 1.05c1.05 1.63.58 3.79-1.05 4.83-9.15 5.88-17.62 12.54-25.49 19.9-7.88 7.38-15.22 15.52-22.06 24.3zm-96.51-6.72c1.2 1.51.96 3.71-.55 4.91-1.5 1.2-3.7.95-4.9-.55-6.58-8.22-13.65-15.89-21.28-22.92-7.58-6.99-15.71-13.33-24.41-18.92a3.482 3.482 0 0 1-1.05-4.83 3.484 3.484 0 0 1 4.83-1.05c9.05 5.81 17.49 12.39 25.37 19.65 7.83 7.22 15.14 15.15 21.99 23.71zm38.45 30.77c-14.33-29.08-31.46-54.61-52.82-74.71-21.43-20.15-47.21-34.9-78.84-42.36-10.67 19.75-19.46 38.58-22.4 57.22-3.07 19.37.17 38.96 14.28 59.98 4.5 6.7 9.59 11.93 15.16 15.88 5.52 3.92 11.54 6.61 17.92 8.28 16 4.18 34.53 2.02 53.61-3.36 17.73-5 35.92-12.79 53.09-20.93zM45.86 114.9c34.01 7.98 61.71 23.8 84.71 45.43 21.04 19.79 38.09 44.4 52.43 72.27 14.34-27.87 31.39-52.48 52.42-72.27 23.01-21.63 50.71-37.45 84.72-45.43 1.72-21.43 1.05-41.22-3.07-58.63-4.29-18.1-12.37-33.6-25.47-45.62a6.125 6.125 0 0 1-.36-8.67c2.29-2.49 6.18-2.65 8.67-.36 15.05 13.81 24.28 31.4 29.12 51.82 4.6 19.41 5.2 41.41 3.1 65.15 11.8 21.66 21.69 42.38 25.05 63.62 3.53 22.31-.13 44.78-16.2 68.72-5.37 7.99-11.5 14.27-18.24 19.05-6.78 4.82-14.15 8.12-21.95 10.15-18.4 4.8-39.04 2.5-60-3.4-19.51-5.5-39.31-14.12-57.79-22.97-18.48 8.85-38.28 17.47-57.79 22.97-20.96 5.9-41.6 8.2-60 3.4-7.8-2.03-15.17-5.33-21.95-10.15-6.74-4.78-12.87-11.06-18.24-19.05-16.07-23.94-19.73-46.41-16.2-68.72 3.36-21.24 13.25-41.96 25.05-63.62-2.1-23.74-1.5-45.74 3.1-65.15 4.84-20.42 14.07-38.01 29.12-51.82 2.49-2.29 6.38-2.13 8.67.36 2.29 2.49 2.13 6.38-.36 8.67-13.1 12.02-21.18 27.52-25.47 45.62-4.13 17.41-4.79 37.2-3.07 58.63zm276.81 12.01c-31.63 7.46-57.42 22.21-78.84 42.36-21.37 20.1-38.49 45.63-52.82 74.71 17.17 8.14 35.36 15.93 53.09 20.93 19.08 5.38 37.61 7.54 53.61 3.36 6.38-1.67 12.4-4.36 17.92-8.28 5.57-3.95 10.66-9.18 15.16-15.88 14.11-21.02 17.35-40.61 14.28-59.98-2.95-18.64-11.74-37.47-22.4-57.22zM366 351.13v48.5a5.98 5.98 0 0 1-5.46 5.95c-43.95 3.81-76.83 14.56-99.29 31.83-21.89 16.84-33.99 40.11-36.88 69.42a5.965 5.965 0 0 1-5.97 5.87h-71.39c-3-.01-5.59-2.27-5.92-5.32-3.66-33.15-17.41-57.1-39.94-73.03-22.89-16.19-54.99-24.41-94.91-25.83l-.27.01c-3.3 0-5.97-2.68-5.97-5.97v-50.85c.03-3.9 2.45-5.95 5.97-5.95l354.06-.61a5.95 5.95 0 0 1 5.97 5.98z"/></svg>