<svg id="Layer_1" data-name="Layer 1" xmlns="http://www.w3.org/2000/svg" viewBox="0 0 122.88 53.06"><defs><style>.cls-1{fill-rule:evenodd;}</style></defs><title>cap-hat</title><path class="cls-1" d="M34.42,4.6C40-2.08,42.12,0,48.9,1.81c8.46,2.29,16.72,2.85,25.49.32C80.92.25,83.78-2.36,89.68,4.21,94,9,96.69,16.78,98.3,21.64a96.32,96.32,0,0,1,4,17.85H22.73C25.57,25.21,29,12.38,34.42,4.6ZM4.48,44.1H118.4a4.49,4.49,0,0,1,4.48,4.48h0a4.5,4.5,0,0,1-4.48,4.48H4.48A4.5,4.5,0,0,1,0,48.58H0A4.49,4.49,0,0,1,4.48,44.1Z"/></svg>