<svg id="Layer_1" data-name="Layer 1" xmlns="http://www.w3.org/2000/svg" viewBox="0 0 40.93 122.88"><defs><style>.cls-1{fill-rule:evenodd;}</style></defs><title>mannequin</title><path class="cls-1" d="M37.39,75.3h1.68c1.74-5.4,2.19-5.62,1.65-9.69-1.32-9.92-10.16-15-9.58-21.18.67-7.09,3.81-9.28,5.4-15.29.82-3.14,3-12.14,1.23-14.94-1.12-1.77-3.61-2.15-5.51-3C26,8.35,24.09,5.4,24.64,0H16.29c.56,5.4-1.37,8.35-7.61,11.19-1.9.86-4.39,1.24-5.52,3C1.38,17,3.57,26,4.4,29.14c1.58,6,4.72,8.2,5.39,15.29.59,6.19-8.26,11.26-9.58,21.18C-.32,69.68.12,69.9,1.87,75.3H3.64v1.5a1,1,0,0,0,1,1H18.84V99L.93,118.59c-.61.62,1.57,2.91,2.23,2.24l15.68-17.17V121.3c0,2,3.17,2.19,3.17,0V103.47l15.85,17.36c.67.67,2.85-1.62,2.24-2.24L22,98.79v-21h14.4a1,1,0,0,0,1-1V75.3Z"/></svg>