<svg id="Layer_1" data-name="Layer 1" xmlns="http://www.w3.org/2000/svg" viewBox="0 0 122.88 112.75"><defs><style>.cls-1{fill:#fff;}.cls-2{fill:#ffe256;}</style></defs><title>men-hoodie-jacket</title><path d="M18.57,17.67l.07-.11a20.19,20.19,0,0,1,8.18-6.32,23,23,0,0,1,6.91-1.67A6.46,6.46,0,0,1,32,8a3.63,3.63,0,0,1-.81-2.26,3.13,3.13,0,0,1,1-2.23A8.41,8.41,0,0,1,37,1.66,174.55,174.55,0,0,1,60.88,0,183.86,183.86,0,0,1,85.32,1.63a9,9,0,0,1,5.06,2,3.27,3.27,0,0,1,1.07,2.23,3.51,3.51,0,0,1-.79,2.31,6.51,6.51,0,0,1-1.57,1.44,22.45,22.45,0,0,1,7.1,1.67,20.09,20.09,0,0,1,8.07,6.32,1.37,1.37,0,0,1,.13.2v0l18.27,27.72a1.27,1.27,0,0,1,.2.86l-5.64,47.29A1.3,1.3,0,0,1,116,94.8H102.72a1.29,1.29,0,0,1-1.29-1.29v-.1q-.18-18.55-.34-37.1l-7.17-8.46v63.61a1.29,1.29,0,0,1-1.29,1.29H30.17a1.29,1.29,0,0,1-1.29-1.29v-64l-7.1,8.82q-.18,18.56-.35,37.12h0a1.29,1.29,0,0,1-1.29,1.29H6.93a1.29,1.29,0,0,1-1.28-1.14L0,46.37H0a1.34,1.34,0,0,1,.2-.86L18.49,17.8a.91.91,0,0,1,.08-.13Z"/><path class="cls-1" d="M62.8,18.68v5.77a52.35,52.35,0,0,0,14.72-6.11C80.58,16.39,83,14.13,84,11.72,79,13.27,74.18,14.89,69.34,16.5c-2.28.77-4.57,1.53-6.54,2.18Z"/><path class="cls-1" d="M39.15,11.83c.94,2.37,3.37,4.59,6.39,6.52a52.05,52.05,0,0,0,14.67,6.09V18.73l-21.06-6.9Z"/><path class="cls-2" d="M36.51,12.05a21.87,21.87,0,0,0-8.7,1.58,17.54,17.54,0,0,0-6.32,4.53,22.72,22.72,0,0,1,7.7,9c1.82,4,2.58,9.18,2.26,16.57v60.85H91.34V45.16h0c0-1.29,0-2.55,0-3.77,0-5.84.8-10.17,2.4-13.71a25.07,25.07,0,0,1,7.17-9l.53-.45h0a17.31,17.31,0,0,0-6.27-4.59,20.9,20.9,0,0,0-8.63-1.54c-1,3.23-3.94,6.08-7.64,8.44a55.35,55.35,0,0,1-16.11,6.59v77.44H60.2V27.09a55.29,55.29,0,0,1-16.05-6.57c-3.7-2.37-6.66-5.23-7.64-8.47Z"/></svg>