<svg id="Layer_1" data-name="Layer 1" xmlns="http://www.w3.org/2000/svg" viewBox="0 0 122.88 98.61"><defs><style>.cls-1{fill:#ffe256;}.cls-2{fill:#fff;}</style></defs><title>men-polo-shirt</title><path d="M42.56.26a92.25,92.25,0,0,0,19,2A91.61,91.61,0,0,0,79.93.33,1.49,1.49,0,0,1,81.44.11L121.9,16.8a1.44,1.44,0,0,1,.92,1.77l-5.71,21.48a1.51,1.51,0,0,1-1.47,1.22H98.79V97.1a1.51,1.51,0,0,1-1.51,1.51h-72a1.51,1.51,0,0,1-1.51-1.51V40.87H6.3a1.49,1.49,0,0,1-1.47-1.18L0,17.91A1.48,1.48,0,0,1,1,16.21L41.49.23a1.33,1.33,0,0,1,1.07,0v0Z"/><path class="cls-1" d="M36.62,5.42,3.24,18.58,7.48,38H25.2a1.51,1.51,0,0,1,1.51,1.51V95.7H95.77V39.88a1.51,1.51,0,0,1,1.51-1.51h17.21l5.09-19.24L86.52,5.5,72.89,30.22l-10-7.81-.07.07a1.47,1.47,0,0,1-2.1,0l0,0-.07-.07L50.41,30.3,36.7,5.38l-.08,0Z"/><path class="cls-2" d="M46.57,4,49.7,7.19l12,12L76.31,4A94,94,0,0,1,61.54,5.2,97.2,97.2,0,0,1,46.57,4Z"/><path d="M61.44,37.41a1.93,1.93,0,0,1,0,3.85,1.93,1.93,0,1,1,0-3.85Z"/><path d="M61.44,29.06a1.89,1.89,0,0,1,1.9,1.9,1.93,1.93,0,1,1-3.85,0,1.89,1.89,0,0,1,1.95-1.9Z"/><path d="M61.47,20a1.87,1.87,0,0,1,1.89,1.89,1.93,1.93,0,0,1-1.89,2,2,2,0,0,1-2-2,1.89,1.89,0,0,1,2-1.89Z"/></svg>