<svg id="Layer_1" data-name="Layer 1" xmlns="http://www.w3.org/2000/svg" viewBox="0 0 122.88 117.82"><defs><style>.cls-1,.cls-2{fill-rule:evenodd;}.cls-2{fill:#ffe256;}</style></defs><title>men-cap</title><path class="cls-1" d="M61.58,0h0a7.67,7.67,0,0,1,7.65,7.65v3.68a58.38,58.38,0,0,1,33.59,16.18,54.21,54.21,0,0,1,16.55,38.87c0,.28,0,.75,0,1.42l-.49,18.62a2.08,2.08,0,0,1,.07.61l3.93,28.41a2,2,0,0,1-.35,1.51,2.05,2.05,0,0,1-2.86.5c-14-9.86-36.16-14.78-58.3-14.78S17.06,107.6,3.28,117.41a2.09,2.09,0,0,1-1.51.39A2.06,2.06,0,0,1,0,115.49L4,86.9a2.21,2.21,0,0,1,0-.37L2.91,68.74c-.07-1.14-.11-2.23-.11-3.27,0-14.66,6.32-27.82,16.31-37.56a60.6,60.6,0,0,1,34.82-16.6V7.65A7.68,7.68,0,0,1,61.58,0Z"/><path class="cls-2" d="M112.78,82.51l.4-15.52c0-.24,0-.66,0-1.27A48.26,48.26,0,0,0,98.47,31.15,52.14,52.14,0,0,0,63.34,16.32H61.13c-1.18,0-2.31,0-3.41.1A54.4,54.4,0,0,0,23.47,31.56,46.39,46.39,0,0,0,9,64.86c0,1,0,2,.09,2.89L10,82.63C26.08,76.21,42.6,72.34,59.67,72a128.13,128.13,0,0,1,53.11,10.54Z"/><path class="cls-2" d="M116,111l-3.09-22.39c-18.35-8-36-11.32-53.17-10.94S26.11,82,10,88.62L6.88,110.94c14-8.34,34.23-12.54,54.47-12.54S101.88,102.58,116,111Z"/><path d="M61.09,34.16A15.31,15.31,0,0,1,71.91,60.29l-.27.25a15.25,15.25,0,0,1-21.36-.25h0a15.28,15.28,0,0,1,0-21.62h0a15.23,15.23,0,0,1,10.83-4.49Z"/></svg>