<svg id="Layer_1" data-name="Layer 1" xmlns="http://www.w3.org/2000/svg" viewBox="0 0 117.27 122.88"><title>mens-shirts-half-sleeve</title><path d="M25.27,111.77a11.58,11.58,0,0,0,2,1.7c6.17,4.32,18.61,6.63,31.18,6.77V33L53.54,19.49l-.87-.91L44.94,32.26A1.28,1.28,0,0,1,42.52,32L38.59,15.17,22.93,20.81c-.79.28-1.43.5-2,.67a6.65,6.65,0,0,0-2,.84,7.89,7.89,0,0,0-1.21,2.36C13.22,35.37,7.89,46.13,3,56.71L20.07,64l5-11.11a1.28,1.28,0,0,1,2.44.65l-2.28,58.2Zm39.66-6.72a2,2,0,1,1-2,2,2,2,0,0,1,2-2Zm0-13.59a2,2,0,1,1-2,2,2,2,0,0,1,2-2Zm0-13.59a2,2,0,1,1-2,2,2,2,0,0,1,2-2Zm0-13.59a2,2,0,1,1-2,2,2,2,0,0,1,2-2Zm0-13.59a2,2,0,1,1-2,2,2,2,0,0,1,2-2Zm0-13.59a2,2,0,1,1-2,2,2,2,0,0,1,2-2Zm1.16-21.53a.69.69,0,0,1,.13-.11l0-.05,3.5-3.88A31.1,31.1,0,0,0,59.17,9.68a24.54,24.54,0,0,0-9.46,1.58l3.74,4.15a1.27,1.27,0,0,1,.31.61l1.81,1.89a1.15,1.15,0,0,1,.3.52l3.84,10.62,3.84-10.62a1.15,1.15,0,0,1,.3-.52l2.24-2.34Zm.85,2.82-1.06,1.1L61,33v87.2c12.55-.15,24.71-2.48,30.35-7.11A10.69,10.69,0,0,0,93,111.51l-2.85-58a1.28,1.28,0,0,1,2.43-.61l5.41,11.17,16.36-6.71c-4.67-10.93-9.73-22-14-33a6.82,6.82,0,0,0-.9-1.92,7.43,7.43,0,0,0-2.12-1l-1.41-.54L81.13,15.13,77.19,32a1.28,1.28,0,0,1-1.54,1,1.27,1.27,0,0,1-.87-.72L66.94,18.39ZM60.15,122.8a1.25,1.25,0,0,1-.88,0c-13.31,0-26.74-2.51-33.48-7.23A13.82,13.82,0,0,1,23,113a1.28,1.28,0,0,1-.29-.86l2-52.25-2.85,6.3a1.29,1.29,0,0,1-1.67.65L.74,58.53a1.28,1.28,0,0,1-.62-1.7l14.78-32,.51-1.19c.74-1.76,1.1-2.6,1.85-3.27a7.56,7.56,0,0,1,2.89-1.35c.53-.18,1.17-.39,1.92-.66L38.4,12.53a1.34,1.34,0,0,1,.38-.37l2.75-7.53a1.23,1.23,0,0,1,.58-.75C46.56,1.28,52.3,0,58.42,0A48.37,48.37,0,0,1,77,3.81a1.31,1.31,0,0,1,.67.66l3.55,7.93,0,0,15.51,6.06,1.39.53a7.75,7.75,0,0,1,3,1.56,7.4,7.4,0,0,1,1.48,2.81l.65,1.64,13.88,32.52a1.27,1.27,0,0,1-.7,1.67L97.84,66.86a1.28,1.28,0,0,1-1.68-.6L93,59.65l2.56,52.19a1.22,1.22,0,0,1-.23.79A12.49,12.49,0,0,1,93,115.1c-6.25,5.13-19.46,7.64-32.82,7.7ZM71.59,9.51,75,5.75A45.84,45.84,0,0,0,58.42,2.57,31.21,31.21,0,0,0,44.5,5.5l3.41,3.77A25.89,25.89,0,0,1,59.18,7.13,32.89,32.89,0,0,1,71.59,9.51ZM43.11,7.77l-2.2,6,3.36,14.45,6.67-11.8L43.11,7.77Zm35.77,5.69L76.43,8l-7.66,8.48,6.67,11.8,3.44-14.78Z"/></svg>