<svg id="Layer_1" data-name="Layer 1" xmlns="http://www.w3.org/2000/svg" viewBox="0 0 108.99 122.88"><defs><style>.cls-1{fill:#ffe256;}.cls-2{fill:#fff;}</style></defs><title>men-shirt</title><path d="M88.5,21.78H102a7,7,0,0,1,7,7V115.9a7,7,0,0,1-7,7H7a7,7,0,0,1-7-7V28.76a7,7,0,0,1,7-7H20.24l.28,0c0-4.74,0-9.82.05-15.06C20.57,2.37,23,.06,27.24.06L83.63,0c3.25,0,4.81,4,4.81,6.74.09,0,0,13.6.06,15Z"/><polygon points="20.55 6.74 20.55 6.74 20.55 6.74 20.55 6.74"/><path class="cls-1" d="M84.43,9,57.37,37.32,81.75,48.43c1.33.64,2.69-1.21,2.69-2.69V9Z"/><path class="cls-1" d="M50.05,37.33,24.56,9.05V45.74c0,1.85,1.82,1.85,4,1.08,6.23-2.21,18.36-8,21.51-9.49Z"/><path class="cls-1" d="M51.87,118.38V41.83L25.8,52c-2.38.93-4.38.14-4.69-6.16-.23-4.68-.45-11.53-.55-19.6a1.83,1.83,0,0,1-.33,0H7A2.49,2.49,0,0,0,4.5,28.76V115.9A2.49,2.49,0,0,0,7,118.38Z"/><path class="cls-1" d="M57,42.33v76.05H102a2.49,2.49,0,0,0,2.48-2.48V28.76A2.49,2.49,0,0,0,102,26.28H88.52c0,10-.18,18.42-1.29,22.68-1.47,5.66-6.3,3.54-10.14,1.91L57,42.33Z"/><polygon class="cls-2" points="25.77 4.48 53.72 35.39 83.18 4.48 25.77 4.48 25.77 4.48"/></svg>