<svg id="Layer_1" data-name="Layer 1" xmlns="http://www.w3.org/2000/svg" viewBox="0 0 122.88 89.78"><title>mens-suit</title><path d="M84.42,20.74,73.79,4.1,63.24,54.61l14-24.83-1.85-8.2a1,1,0,0,1,.79-1.21,1.09,1.09,0,0,1,.36,0l7.87.39ZM66.79,79.79a1.7,1.7,0,1,1-1.69,1.7,1.7,1.7,0,0,1,1.69-1.7Zm0-12.24a1.7,1.7,0,1,1-1.69,1.7,1.7,1.7,0,0,1,1.69-1.7Zm15.39,5.9a1.23,1.23,0,0,1,0,2.46H72.08a1.23,1.23,0,0,1,0-2.46Zm-28.37,0a1.23,1.23,0,0,1,0,2.46h-13a1.23,1.23,0,0,1,0-2.46Zm66.6-11.12L97.76,14.82,78.4,2.08H75L87.23,21.31a1,1,0,0,1,.15.59,1,1,0,0,1-1.08,1l-8.57-.41,1.63,7.27a1,1,0,0,1-.11.7L62,61.11a1,1,0,0,1-.42.41,1.05,1.05,0,0,1-1.41-.4l-17-30.26a1,1,0,0,1-.14-.7l1.4-7.71-7.82.41a1,1,0,0,1-.94-1.53L47.45,2.08H46.1L25.29,14.76,2.46,61.81l12.8,4.94L34.07,36.2a1,1,0,0,1,1.92.58L34.17,87.71l26-.12V66.5a1.23,1.23,0,0,1,2.46,0V87.57l26.27-.12L86.66,36.79a1,1,0,0,1,1.91-.6l19.66,30.58,12.18-4.44ZM72.1,2.08H50.27L61.05,55l11-52.92ZM58.86,54.64,48.58,4.18,38.42,20.73l7.17-.38a1,1,0,0,1,1.09,1,.87.87,0,0,1,0,.23l-1.56,8.62L58.86,54.64Zm40.65-41,23.27,48.8,0,.09a1,1,0,0,1-.62,1.33l-14,5.1a1,1,0,0,1-1.27-.4l-18-28.05,2.15,47.94a1,1,0,0,1-1,1l-57,.26a1,1,0,0,1-1-1.07l1.72-48.08L16.59,68.54a1,1,0,0,1-1.27.45L.59,63.3A1,1,0,0,1,.1,61.92L23.55,13.6a1,1,0,0,1,.4-.46L45.21.19a1,1,0,0,1,.6-.19H78.7a1,1,0,0,1,.57.18l19.8,13a1,1,0,0,1,.44.46Z"/></svg>