<svg id="Layer_1" data-name="Layer 1" xmlns="http://www.w3.org/2000/svg" viewBox="0 0 122.88 98.61"><defs><style>.cls-1{fill:#ffe256;fill-rule:evenodd;}</style></defs><title>polo-t-shirts-merchandise</title><path d="M36.62,5.42,3.24,18.58,7.48,38H25.2a1.51,1.51,0,0,1,1.51,1.51V95.7H95.77V39.88a1.51,1.51,0,0,1,1.51-1.51h17.21l5.09-19.24L86.52,5.5,72.89,30.22l-10-7.81-.07.07a1.47,1.47,0,0,1-2.1,0l0,0-.07-.07L50.41,30.3,36.7,5.38l-.08,0ZM61.44,44.1a13.87,13.87,0,0,1,9.8,4.07l0,0a13.85,13.85,0,0,1,0,19.6l0,0a13.83,13.83,0,0,1-19.59,0l0,0a13.85,13.85,0,0,1,0-19.59l0,0a13.84,13.84,0,0,1,9.79-4.06ZM52.38,83.49a2.25,2.25,0,0,1,0-4.49H70.5a2.25,2.25,0,0,1,0,4.49Zm9-55.7A1.24,1.24,0,0,1,62.68,29a1.27,1.27,0,1,1-2.54,0,1.25,1.25,0,0,1,1.29-1.25Zm0,7.3a1.27,1.27,0,0,1,0,2.54,1.27,1.27,0,1,1,0-2.54ZM42.56.26a92.25,92.25,0,0,0,19,2A91.61,91.61,0,0,0,79.93.33,1.49,1.49,0,0,1,81.44.11L121.9,16.8a1.44,1.44,0,0,1,.92,1.77l-5.71,21.48a1.51,1.51,0,0,1-1.47,1.22H98.79V97.1a1.51,1.51,0,0,1-1.51,1.51h-72a1.51,1.51,0,0,1-1.51-1.51V40.87H6.3a1.49,1.49,0,0,1-1.47-1.18L0,17.91A1.48,1.48,0,0,1,1,16.21L41.49.23a1.33,1.33,0,0,1,1.07,0v0Zm4,3.76L49.7,7.19l12,12L76.31,4A94,94,0,0,1,61.54,5.2,97.2,97.2,0,0,1,46.57,4Z"/><path class="cls-1" d="M61.44,48a10,10,0,1,1-10,10,10,10,0,0,1,10-10Z"/></svg>