<svg id="Layer_1" data-name="Layer 1" xmlns="http://www.w3.org/2000/svg" viewBox="0 0 107.69 122.88"><title>raincoat</title><path d="M75.2,59.24c.07-3.67.34-7.57.61-11.47.55-7.84,1.1-15.72,0-20.48a46.87,46.87,0,0,0-3.31-10,28.45,28.45,0,0,0-4.59-7,21.94,21.94,0,0,0-1.6-1.6A18.63,18.63,0,0,0,53.72,3.79,19,19,0,0,0,41.13,8.9C40.55,9.43,40,10,39.5,10.53a28.83,28.83,0,0,0-4.68,7.32,45.69,45.69,0,0,0-3,9.32c-.71,6.12-.16,13.58.39,21,.28,3.71.56,7.42.68,11.13a1.89,1.89,0,0,1-1.45,1.9c-7.93,2-14.14,4.57-18.68,8.77S5.34,79.85,3.81,88.14v30.93H19.37V99.82a1.91,1.91,0,1,1,3.81,0v19.25H51.94V59.56L41.64,56.8a5,5,0,0,1-2.27-1.25l-.13-.14a4.16,4.16,0,0,1-1-2.2,75.29,75.29,0,0,1,0-22.48,10,10,0,0,1,2.7-5.63,7.51,7.51,0,0,1,5.44-2.27H61.22a7.39,7.39,0,0,1,5.37,2.24,10.43,10.43,0,0,1,2.76,5.61,64.77,64.77,0,0,1,1,11.63,67.43,67.43,0,0,1-1,11,4,4,0,0,1-1.14,2.25l-.13.12A4.87,4.87,0,0,1,66,56.8L55.75,59.53v59.54H84V99.82a1.91,1.91,0,1,1,3.81,0v19.25h16.1v-31C103,79.66,100,74.2,95.43,70.27s-11.19-6.6-18.92-9.1a1.88,1.88,0,0,1-1.31-1.93ZM45.55,106.49a3,3,0,1,1-3,3,3,3,0,0,1,3-3Zm0-20.06a3,3,0,1,1-3,3,3,3,0,0,1,3-3Zm16.59,20.06a3,3,0,1,1-3,3,3,3,0,0,1,3-3Zm0-20.06a3,3,0,1,1-3,3,3,3,0,0,1,3-3Zm-.92-60H46.34a4,4,0,0,0-2.89,1.21h0a6.32,6.32,0,0,0-1.68,3.58,71.87,71.87,0,0,0,0,21.42.76.76,0,0,0,.11.29l0,0a1.52,1.52,0,0,0,.65.31l11.21,3,11.31-3a1.59,1.59,0,0,0,.52-.22l0,0a.53.53,0,0,0,.14-.3,64.43,64.43,0,0,0,.93-10.44,62,62,0,0,0-.93-11A6.75,6.75,0,0,0,64,27.63a3.86,3.86,0,0,0-2.81-1.18ZM79.6,48c-.24,3.45-.48,6.89-.58,10,7.57,2.5,14,5.18,18.9,9.4,5.27,4.55,8.69,10.77,9.74,20.27a1.87,1.87,0,0,1,0,.34v33a1.9,1.9,0,0,1-1.9,1.9H1.9A1.9,1.9,0,0,1,0,121V88H0a1.84,1.84,0,0,1,0-.33c1.68-9.28,5-15.77,10.14-20.5C15,62.78,21.2,60,29,57.91c-.14-3-.38-6.22-.62-9.45h0c-.57-7.63-1.14-15.32-.37-21.8l0-.17a50.07,50.07,0,0,1,3.29-10.21A32.4,32.4,0,0,1,36.68,8a24.63,24.63,0,0,1,1.89-1.92A22.68,22.68,0,0,1,53.69,0,22.37,22.37,0,0,1,68.87,5.9a25.7,25.7,0,0,1,1.89,1.87A31.93,31.93,0,0,1,76,15.68a50.53,50.53,0,0,1,3.58,10.79c1.18,5.33.62,13.46,0,21.55Z"/></svg>