<svg id="Layer_1" data-name="Layer 1" xmlns="http://www.w3.org/2000/svg" viewBox="0 0 115.67 122.88"><title>rubber-boots</title><path d="M91.71,13.77h21.77a2.18,2.18,0,0,1,1.54.65h0a2.18,2.18,0,0,1,.64,1.55V27.8a2.07,2.07,0,0,1-.1.66V85.22a1.54,1.54,0,0,1,.07.74,1.28,1.28,0,0,1-.07.28v18.22a1.51,1.51,0,0,1-.06.37,1.18,1.18,0,0,1-.23.43v6.24a.89.89,0,0,1-.89.89h-1.21l-1,5.5h-9.6l0-1.73H99.15V118h-6.7v-4.78l-2.39.05L88.6,116.4a99.64,99.64,0,0,1-9.75,2.6l-.77-1.58-4.34,1.11.5,1.48q-4.17,1-9.46,1.81l-.27-1.37L60,121l0,1.23c-3.46.29-6.73.52-10.3.5l.36-1.31-4.68-.14-.27,1.58a60.37,60.37,0,0,1-10.3-1.4L36,120l-4.35-1-.92,1.54a19.3,19.3,0,0,1-6.8-3.34l1.19-3.33a.76.76,0,0,1,0-.15l.27-2.61-4-.12-.26,1.58a60.35,60.35,0,0,1-10.31-1.4l1.18-1.49-4.35-1-.92,1.55A19.13,19.13,0,0,1,0,106.79l1.19-3.33a.76.76,0,0,1,0-.15l.61-5.85a1.35,1.35,0,0,1-.13-.63C1.61,91.1,3,86.44,6.11,83.08c3-3.2,7.42-5.17,13.56-5.68,8.14-.68,14.74-2.18,19.4-5.85s7.41-9.49,8.1-19V15.29a1.28,1.28,0,0,1,.09-.48,2.31,2.31,0,0,1-.15-.79V2.19A2.15,2.15,0,0,1,47.76.65,2.15,2.15,0,0,1,49.3,0H89.52a2.2,2.2,0,0,1,1.54.64h0a2.19,2.19,0,0,1,.65,1.54V13.77ZM27.27,110.6v1.79h-.18l-.08.75a99.51,99.51,0,0,0,27.16,3.54,95.56,95.56,0,0,0,14.2-1.18c4.51-1,8.9-2.2,13.23-3.16,4.6-1.46,5.16-1.64,9.61-1.67a51.64,51.64,0,0,1,5.83-.32q5.42,0,10.79.28l5.67,0v-5a54.47,54.47,0,0,0-10-1.93,35.83,35.83,0,0,0-9.12.16,43.29,43.29,0,0,0-5.35,1.31,1.56,1.56,0,0,1-.52.15l-2.28.7a64.21,64.21,0,0,1-11.65,2.84,246,246,0,0,1-24.89,2,90.53,90.53,0,0,1-22.24-2.08l-.2,1.9Zm-1.62-4.34a24.88,24.88,0,0,1,.75-5.85,111,111,0,0,1-11.61-.32A76.7,76.7,0,0,1,3.5,98.34L3,102.78a97.2,97.2,0,0,0,11.42,2.42,99.45,99.45,0,0,0,11.19,1.06Zm1.62-8.43a15.25,15.25,0,0,1,2.81-4.39c3-3.21,7.41-5.17,13.56-5.69,8.14-.68,14.74-2.17,19.4-5.85s7.41-9.48,8.1-19V28.29a2,2,0,0,1-.06-.49V16.21H49.73V52.7C49,63,45.84,69.47,40.65,73.56S28.49,79.23,19.88,80c-5.47.46-9.37,2.14-11.89,4.86S4.33,91.24,4.24,95.89A75.62,75.62,0,0,0,15,97.54a110.76,110.76,0,0,0,12.27.29ZM89.14,2.56H49.68V13.65H89.14V2.56ZM87,103.05c1.39-7.44,4.34-12.71,8.88-15.87,4.33-3,10-4,17.15-3.12V30H73.7V63.06C73,73.37,69.8,79.83,64.62,83.91s-12.16,5.68-20.77,6.4c-5.47.45-9.37,2.13-11.89,4.86s-3.67,6.43-3.76,11.08a88.23,88.23,0,0,0,21.47,2,244.22,244.22,0,0,0,24.63-2,62.45,62.45,0,0,0,11.19-2.74l1.49-.46Zm26-16c-6.53-.9-11.67-.06-15.45,2.58-3.57,2.48-6,6.62-7.33,12.46a37.17,37.17,0,0,1,3.75-.83,38.26,38.26,0,0,1,9.78-.18,57.17,57.17,0,0,1,9.25,1.68V87.06ZM73.64,26.12a1.16,1.16,0,0,1,.06.38v.93H113v-.74a1.45,1.45,0,0,1,.1-.51V16.34H73.64v9.78Z"/></svg>