<svg id="Layer_1" data-name="Layer 1" xmlns="http://www.w3.org/2000/svg" viewBox="0 0 122.78 122.88"><defs><style>.cls-1{fill-rule:evenodd;}</style></defs><title>sanitary-pad</title><path class="cls-1" d="M102.68,20.56h0c8.11,8.1,9.52,23.09,0,29.47q-6.74,4.53-12.9,9.31c-16.57,12.86-30,27.21-39.71,43.31-5.93,9.81-21.37,8.11-29.48,0h0c-8.1-8.11-9.73-23.42,0-29.48A164,164,0,0,0,63.9,33.72q4.86-6.28,9.31-13.16c6.22-9.63,21.37-8.11,29.47,0Zm2.66,41.76.32.41,1.8,2.23a13.18,13.18,0,0,1,3,8.15,10.62,10.62,0,0,1-3.16,7.66L80.68,107.39a10.88,10.88,0,0,1-7.77,3.2,12.56,12.56,0,0,1-8.11-3.08l-2.22-1.92-.66-.57c-1.88,2.85-3.8,5.92-5.84,9.3a16.34,16.34,0,0,1-2.44,3.12h0c-4.29,4.29-10.6,5.81-17.28,5.35a43.29,43.29,0,0,1-18.76-6.07A35,35,0,0,1,11,111.6a34.38,34.38,0,0,1-4.77-6.08A41.59,41.59,0,0,1,.06,86.75c-.41-6.68,1.18-13,5.54-17.39a17.64,17.64,0,0,1,3.06-2.42c3.37-2.09,6.43-4,9.27-5.94l-.23-.28-2-2.3a12.6,12.6,0,0,1-3.07-8.11,10.84,10.84,0,0,1,3.2-7.77L42.45,15.93a10.57,10.57,0,0,1,7.62-3.14,13.5,13.5,0,0,1,8.16,2.94c.87.67,1.62,1.27,2.26,1.77l.31.25.36-.52q3-4.31,5.87-8.66a16.58,16.58,0,0,1,2.3-2.85h0c4.47-4.47,11-6.09,17.8-5.64a41.25,41.25,0,0,1,19,6.43,31.82,31.82,0,0,1,9.6,9.44,42.44,42.44,0,0,1,6.91,19.52c.57,7-1,13.78-5.59,18.37l-.15.13a16.64,16.64,0,0,1-2.46,2q-4.38,2.94-8.54,5.93l-.59.43ZM64.64,101l1.07.94,2.21,1.9a7.75,7.75,0,0,0,5,1.92,6.1,6.1,0,0,0,4.37-1.8l26.61-26.61a5.92,5.92,0,0,0,1.75-4.26A8.34,8.34,0,0,0,103.72,68l-1.78-2.2-.47-.57c-1.18.89-2.38,1.81-3.58,2.74-10.64,8.27-18,14.73-24.21,21.66a121.8,121.8,0,0,0-9,11.44ZM58,21.64l-.47-.38L55.3,19.53a8.71,8.71,0,0,0-5.23-1.93,5.85,5.85,0,0,0-4.22,1.73L19.24,45.94a6.09,6.09,0,0,0-1.79,4.37,7.74,7.74,0,0,0,1.91,5l2,2.29.6.69a133.83,133.83,0,0,0,12-9.34c7-6.15,13.28-13.23,21.2-23.48,1-1.25,1.94-2.53,2.9-3.82Zm50.28-7.34a28.74,28.74,0,0,0-4.71-3.77A36.1,36.1,0,0,0,86.81,4.87c-5.51-.37-10.68.84-14.08,4.24h0a12.74,12.74,0,0,0-1.68,2.08q-3,4.56-6,8.81c-2,2.84-4.08,5.64-6.21,8.41C50.77,38.87,44.27,46.16,37.06,52.53S22,64.3,11.2,71A12.54,12.54,0,0,0,9,72.77c-3.29,3.29-4.48,8.31-4.14,13.7A36.61,36.61,0,0,0,10.26,103a29.42,29.42,0,0,0,4.09,5.22,30,30,0,0,0,5.73,4.41,38.14,38.14,0,0,0,16.6,5.4c5.37.37,10.35-.76,13.56-4h0A12,12,0,0,0,52,111.84C58.33,101.3,63.64,93.6,70.11,86.38s14-13.85,24.83-22.26c2.55-2,5.29-4,8.19-6.12s5.74-4.06,8.67-6a12.4,12.4,0,0,0,1.76-1.44l.11-.12c3.5-3.49,4.67-8.87,4.2-14.59a37.4,37.4,0,0,0-6.1-17.22,28.07,28.07,0,0,0-3.51-4.31ZM98.33,24.69a3.66,3.66,0,1,1-5.17,0,3.66,3.66,0,0,1,5.17,0ZM28,77a3.66,3.66,0,1,0,0,5.17A3.65,3.65,0,0,0,28,77Zm5.9-5.9a3.66,3.66,0,1,1,5.17,0,3.65,3.65,0,0,1-5.17,0ZM50.11,54.84a3.66,3.66,0,1,0,0,5.17,3.65,3.65,0,0,0,0-5.17ZM72.25,32.7a3.66,3.66,0,1,1-5.17,0,3.65,3.65,0,0,1,5.17,0ZM56,48.94a3.66,3.66,0,1,0,0-5.17,3.65,3.65,0,0,0,0,5.17ZM78.15,26.8a3.66,3.66,0,1,0,0-5.17,3.65,3.65,0,0,0,0,5.17ZM46.05,95.05a3.66,3.66,0,1,0,0,5.18,3.66,3.66,0,0,0,0-5.18Zm5.89-5.89a3.66,3.66,0,1,1,5.18,0,3.66,3.66,0,0,1-5.18,0ZM68.19,72.91a3.66,3.66,0,1,0,0,5.18,3.66,3.66,0,0,0,0-5.18ZM90.33,50.77a3.66,3.66,0,1,1-5.18,0,3.66,3.66,0,0,1,5.18,0ZM74.08,67a3.66,3.66,0,1,0,0-5.18,3.66,3.66,0,0,0,0,5.18ZM96.22,44.88a3.66,3.66,0,1,0,0-5.18,3.66,3.66,0,0,0,0,5.18ZM64.69,58.34a3.66,3.66,0,1,0,0,5.17,3.66,3.66,0,0,0,0-5.17ZM37.08,86a3.66,3.66,0,1,1,5.17,0,3.66,3.66,0,0,1-5.17,0ZM25.86,97.16a3.66,3.66,0,1,1,5.18,0,3.65,3.65,0,0,1-5.18,0Zm27.61-27.6a3.66,3.66,0,1,0,0,5.17,3.66,3.66,0,0,0,0-5.17ZM81.94,41.08a3.66,3.66,0,1,0,0-5.17,3.66,3.66,0,0,0,0,5.17ZM70.73,52.3a3.66,3.66,0,1,0,0-5.18,3.65,3.65,0,0,0,0,5.18Z"/></svg>