<svg id="Layer_1" data-name="Layer 1" xmlns="http://www.w3.org/2000/svg" viewBox="0 0 122.88 111.83"><title>scrunchie</title><path d="M107.19,47.79a3,3,0,0,1-.66-.5c-4.83-3.5-10.7-4-16.16,1.48A75.8,75.8,0,0,0,78.54,64.54L81,69.72a22.33,22.33,0,0,1,4.41-5.16A41.71,41.71,0,0,1,95.92,58a1.22,1.22,0,1,1,1,2.22C91.64,62.58,85,66.7,82.42,72.13c6.71,1.56,12.86-.39,18.82-3.46a1.22,1.22,0,0,1,1.12,2.17,38.5,38.5,0,0,1-10.54,3.84,23.86,23.86,0,0,1-8.52.11l2.53,5.44a75,75,0,0,0,19.22,1.26c18.14-1.31,13-25,2.14-33.7Zm0-6.18a34.84,34.84,0,0,0,2.76-11.9,21.83,21.83,0,0,0-2.78-11.87C102.6,10,93.07,5.85,81.33,5.54,69.18,5.22,54.78,9,41,16.89a2.3,2.3,0,0,1-.43.25c-13.74,8-24.2,18.57-30,29.26C5,56.71,3.77,67,8.32,74.9A21.38,21.38,0,0,0,16,82.54a31.29,31.29,0,0,0,8.9,3.52c-.1-8.48,4.46-16,16.29-17a78.24,78.24,0,0,1,20.32,1.15l14.94-6.94A78.17,78.17,0,0,1,88.64,47.05c6.38-6.44,12.9-7.5,18.52-5.44ZM25.62,91.87a37.55,37.55,0,0,1-12.51-4.6,26.76,26.76,0,0,1-9.57-9.6C-2,68-.8,55.76,5.71,43.76,12,32.19,23.26,20.77,38,12.25h0C52.78,3.72,68.3-.32,81.46,0c13.65.36,24.89,5.41,30.46,15.08a27.31,27.31,0,0,1,3.52,14.8A40.74,40.74,0,0,1,112,44.31c13.34,10.11,17.84,37.83-6.79,39.61a77.63,77.63,0,0,1-20-1.31L70.52,89.47a77.78,77.78,0,0,1-11.88,16.1c-14.27,14.63-29.51.92-33-13.7ZM60.84,72.63a75.15,75.15,0,0,0-19.47-1.09c-25.35,2-2.58,50.89,15.53,32.32A74.93,74.93,0,0,0,68.23,88.55l-2.8-6a25.6,25.6,0,0,1-5.49,6.71A34.64,34.64,0,0,1,50.31,95a1.22,1.22,0,0,1-.94-2.25c6.17-2.56,11.32-6.3,14.43-12.34-5.86-.72-12.89,1.23-18.28,3.41a1.21,1.21,0,0,1-1.58-.68,1.2,1.2,0,0,1,.67-1.58,53,53,0,0,1,11.58-3.32,29.25,29.25,0,0,1,7.11-.33l-2.46-5.3Z"/></svg>