<svg xmlns="http://www.w3.org/2000/svg" shape-rendering="geometricPrecision" text-rendering="geometricPrecision" image-rendering="optimizeQuality" fill-rule="evenodd" clip-rule="evenodd" viewBox="0 0 512 482.87"><path fill-rule="nonzero" d="m118.77 66.23-1.54 176.89c1.13-.35 2.22-.74 3.28-1.17 3.39-1.38 6.38-3.2 8.99-5.43 6.42-5.51 9-12.15 11.59-18.83 11.79-30.36 30.53-40.13 63.86-39.88 12.93-.01 25.35 5.13 32.97 16.09 5.33 7.67 7.14 17.06 7.17 26.26l.03 98.82c.91 17.87-1.11 31.83-6.97 41.36-6.6 10.73-17.18 15.77-32.7 14.45H96.05l-6.39-.05c-21.68-.14-42.32-.27-58.78 15.36-8.91 8.45-12.86 19.52-14.53 31.57h442.78V91.12c0-2.61-.46-5.19-1.29-7.6-.87-2.53-2.2-4.98-3.87-7.2-2.08-2.75-4.67-5.07-7.59-6.65-2.64-1.43-5.56-2.28-8.58-2.32l-78.86-1.15-240.17.03zM95.49 28.19v11.94h10.63c4.01 0 7.26 3.42 7.26 7.64v3.17c53.66 0 107.25-.1 160.84-.01v-23.3h20.38v23.35l15.85.04v-36.7h20.39v36.8c19.37.09 38.74.22 58.12.41V21.02H375a6.696 6.696 0 0 1 0-13.39c14.55-10.13 29.1-10.22 43.64 0a6.696 6.696 0 0 1 0 13.39h-13.95v30.67c11.09.13 22.19.27 33.29.43 5.66.08 10.95 1.59 15.63 4.12 4.92 2.66 9.19 6.44 12.55 10.89 2.57 3.41 4.65 7.3 6.07 11.43 1.42 4.09 2.19 8.35 2.19 12.56v20.36h16.88c5.7 0 10.88 2.33 14.63 6.07 3.74 3.74 6.07 8.93 6.07 14.63v128.58c0 5.69-2.33 10.88-6.07 14.62-3.75 3.75-8.93 6.08-14.63 6.08h-16.88v186.06c0 8.41-6.94 15.35-15.35 15.35H15.92c-8.43 0-15.49-6.94-15.49-15.5 0-5.25-.1-9.04-.19-12.85-.67-26.66-1.39-55.05 20.13-75.47 20.9-19.84 44.52-19.7 69.35-19.54h115.77l.72.06c9.38.9 15.49-1.64 18.92-7.23 4.15-6.74 5.52-17.78 4.76-32.55l-.06-.96v-98.67c.02-6.04-.94-12.48-4.45-17.54-4.71-6.77-12.6-9.5-20.52-9.58-26.8-.2-40.15 5.92-49.56 30.15-3.29 8.48-6.56 16.92-15.89 24.91-3.88 3.33-8.26 6-13.17 8-3.93 1.61-8.22 2.78-12.86 3.51v27.68c0 4.21-3.25 7.64-7.26 7.64H91.99v44.64H78.61v-44.64H64.48c-4.01 0-7.26-3.43-7.26-7.64v-27.22H8.03a7.64 7.64 0 0 1-7.64-7.64L.46 91.12c0-10.06 4.15-19.95 10.81-27.18 6.58-7.15 15.64-11.85 25.68-11.85h20.27v-4.32c0-4.22 3.25-7.64 7.26-7.64h10.63V28.19h20.38zM299.5 292.88h107.68c2.73 0 4.96 2.23 4.96 4.96v39.33c0 2.73-2.23 4.96-4.96 4.96H299.5c-2.73 0-4.96-2.23-4.96-4.96v-39.33c0-2.73 2.23-4.96 4.96-4.96zm174.92-26.71h16.88c1.48 0 2.83-.61 3.82-1.6.98-.98 1.59-2.34 1.59-3.81V132.18c0-1.48-.61-2.84-1.59-3.82a5.407 5.407 0 0 0-3.82-1.59h-16.88v139.4zM301.25 374.15c-3.7 0-6.69-3-6.69-6.69 0-3.7 2.99-6.69 6.69-6.69H405.5c3.7 0 6.7 2.99 6.7 6.69 0 3.69-3 6.69-6.7 6.69H301.25zM57.22 244.79V67.38H36.95c-5.51 0-10.63 2.73-14.45 6.89-4.2 4.55-6.82 10.69-6.82 16.85l-.03 153.67h41.57zM98.86 55.41H71.74v1.94c.25.75.38 1.55.38 2.38 0 .84-.13 1.64-.38 2.39v187.92c.25.76.38 1.56.38 2.39 0 .83-.13 1.64-.38 2.39v24.82h27.12V55.41zm254.52 84.42c20.33 0 36.81 16.48 36.81 36.81 0 20.33-16.48 36.81-36.81 36.81-20.33 0-36.81-16.48-36.81-36.81 0-20.33 16.48-36.81 36.81-36.81zm0-43.55c22.18 0 42.28 9 56.82 23.54s23.54 34.64 23.54 56.82c0 22.19-9 42.28-23.54 56.82-14.54 14.55-34.64 23.55-56.82 23.55-22.19 0-42.28-9-56.82-23.55-14.55-14.54-23.54-34.63-23.54-56.82 0-22.17 8.99-42.25 23.54-56.8l.02-.02c14.54-14.54 34.63-23.54 56.8-23.54zm47.81 32.54c-12.23-12.23-29.14-19.8-47.81-19.8-18.69 0-35.6 7.57-47.83 19.79-12.23 12.24-19.79 29.15-19.79 47.83s7.57 35.59 19.8 47.82c12.23 12.23 29.14 19.8 47.82 19.8 18.67 0 35.58-7.57 47.82-19.8 12.23-12.23 19.8-29.14 19.8-47.82 0-18.67-7.57-35.58-19.81-47.82zM15.32 435.05c-.18 6.34-.02 12.78.14 19.11l.25 13.21 443.42.19v-32.51H15.32z"/></svg>