<svg id="Layer_1" data-name="Layer 1" xmlns="http://www.w3.org/2000/svg" viewBox="0 0 108.99 122.88"><defs><style>.cls-1{fill:#ffe256;fill-rule:evenodd;}</style></defs><title>shirt-merchandise</title><path d="M25.77,4.5l28,30.89L83.18,4.48a2.73,2.73,0,0,0-1.44-.42H61.61l-35.08.1a2.6,2.6,0,0,0-.76.34Zm45.35,97.41a2.24,2.24,0,0,1,0-4.48H89.19a2.24,2.24,0,1,1,0,4.48Zm9-41.52a16.07,16.07,0,0,1,11.37,4.72h0a16.07,16.07,0,0,1,0,22.73l0,0a16.07,16.07,0,0,1-22.72,0l-.27-.29A16.08,16.08,0,0,1,80.15,60.39ZM57,42.33v76.05H102a2.49,2.49,0,0,0,2.48-2.48V28.76A2.49,2.49,0,0,0,102,26.28H88.52c0,10-.18,18.42-1.29,22.68-1.47,5.66-6.3,3.54-10.14,1.91L57,42.33Zm-5.09,76.05V41.83L25.8,52c-2.38.93-4.38.14-4.69-6.16-.23-4.68-.45-11.53-.55-19.6a1.83,1.83,0,0,1-.33,0H7A2.49,2.49,0,0,0,4.5,28.76V115.9A2.49,2.49,0,0,0,7,118.38ZM88.5,21.78H102a7,7,0,0,1,7,7V115.9a7,7,0,0,1-7,7H7a7,7,0,0,1-7-7V28.76a7,7,0,0,1,7-7H20.24l.28,0c0-4.74,0-9.82.05-15.06a6.65,6.65,0,0,1,1-3.51A4,4,0,0,1,25.45.16h.65a7.11,7.11,0,0,1,1.14-.1V0H67.59l16,0h0a4,4,0,0,1,4,3.49,6.71,6.71,0,0,1,.84,3.25h0c0,5.13,0,10.22.06,15ZM50.05,37.33,24.56,9.05V45.74c0,1.85,1.82,1.85,4,1.08,6.23-2.21,18.36-8,21.51-9.49ZM84.43,9,57.37,37.32,81.75,48.43c1.33.64,2.69-1.21,2.69-2.69V9ZM20.55,6.74Z"/><path class="cls-1" d="M80.15,64.89A11.59,11.59,0,1,1,68.57,76.48,11.58,11.58,0,0,1,80.15,64.89Z"/></svg>