<svg xmlns="http://www.w3.org/2000/svg" shape-rendering="geometricPrecision" text-rendering="geometricPrecision" image-rendering="optimizeQuality" fill-rule="evenodd" clip-rule="evenodd" viewBox="0 0 512 487.58"><path fill-rule="nonzero" d="M395.52 55.15c.89 1.46 1.5 3.12 1.74 4.91.82 5.96 11.17 23.87 25.08 47.94 47.45 82.11 133.2 230.49 63.21 325.07-10.07 13.59-22.55 21.16-37.25 23.15-11.23 1.53-23.43-.38-36.5-5.49-13.16 14.25-28.24 23.24-45.32 26.63-17.52 3.47-36.71.93-57.64-7.97-16.78 12.87-34.06 18.8-51.79 18.14-17.33-.64-34.49-7.61-51.49-20.53-17.46 8.83-34.94 12.23-52.46 9.67l-.46-.08c-17.89-2.73-35.34-11.64-52.3-27.3-6.88 1.48-13.76 2.45-20.61 2.66-9.65.31-19.12-.83-28.33-4l-1.22-.5c-65.49-23.6-57.45-101.67-29.01-184.09 17.07-49.45 41.03-99.81 60.06-139.8 15.04-31.62 26.95-56.63 29.09-67.23.18-.91.46-1.78.82-2.59V8.52c0-4.69 3.83-8.52 8.52-8.52h267.33c4.69 0 8.53 3.83 8.53 8.52v46.63zM129.07 79.36c-5.69 14.31-14.66 33.16-25.07 55.04-18.91 39.75-42.73 89.79-59.07 137.14-24.13 69.9-33.13 135.35 13.9 152.33l.76.23c6.27 2.16 12.75 2.93 19.35 2.72 5.08-.16 10.31-.89 15.66-2.02 1.59-33.73 11.01-82.39 23.68-128.66 13.9-50.71 31.87-99.01 47.97-122.27 3.07-4.44 9.17-5.56 13.61-2.49 4.44 3.07 5.55 9.16 2.49 13.6-14.85 21.46-31.84 67.49-45.22 116.3-12.6 46-21.88 94.12-23.1 126.29 14.28 14.14 28.41 22 42.37 24.12l.35.05c12.48 1.82 25.32-.88 38.45-7.7-2.42-28.15-1.42-67.69 1.56-107.87 3.92-52.85 11.31-107.22 18.86-138.17 1.26-5.25 6.55-8.47 11.8-7.21 5.24 1.27 8.46 6.56 7.2 11.8-7.28 29.88-14.47 82.98-18.32 134.96-2.91 39.23-3.92 77.59-1.62 104.47l.39.33c14.87 12.72 29.18 19.54 42.87 20.05 13.19.48 26.6-5 40.19-16.82 2.48-25.51 1.17-61.87-2.15-99.42-4.55-51.45-12.85-104.66-20.37-135.53-1.27-5.25 1.95-10.54 7.2-11.81 5.25-1.26 10.53 1.96 11.8 7.21 7.78 31.91 16.3 86.29 20.91 138.44 3.33 37.67 4.66 74.46 2.26 101.31 16.51 7.18 31.1 9.37 43.87 6.84 13.04-2.59 24.71-10.31 35.06-22.8-.84-32.14-10.26-81.45-23.17-128.54-13.37-48.81-30.36-94.84-45.21-116.3-3.07-4.44-1.95-10.53 2.49-13.6 4.44-3.07 10.53-1.95 13.6 2.49 16.1 23.26 34.08 71.56 47.98 122.27 12.72 46.46 22.16 95.33 23.7 129.08 11.06 5.06 20.73 7.17 28.85 6.07 7.76-1.06 14.59-5.37 20.39-13.2 60.15-81.28-20.28-220.46-64.78-297.47-9.58-16.57-17.62-30.48-22.67-41.26H129.07z"/></svg>