<svg xmlns="http://www.w3.org/2000/svg" shape-rendering="geometricPrecision" text-rendering="geometricPrecision" image-rendering="optimizeQuality" fill-rule="evenodd" clip-rule="evenodd" viewBox="0 0 422 511.43"><path fill-rule="nonzero" d="M25.03 325.99c2.8 12.19 5.7 26.6 8.77 44.54l126.49-5.28c-3.27-44.74 8.61-107.72 17.79-145.06 10.76-45.98 11.56-88.65-22.79-125.21-19.65-20.97-48.58-29.54-76.65-21.19-18.54 5.55-35.3 17.98-47.54 35C9.01 139.62-1.93 186.12.28 223.41c2.08 36.15 16.66 67.4 24.75 102.58zm371.94-70.64c-2.8 12.17-5.7 26.59-8.77 44.51l-126.49-5.26c3.27-44.75-8.61-107.71-17.79-145.04-10.76-45.99-11.56-88.66 22.8-125.22 36.61-39.09 93.67-28.63 124.18 13.8 22.09 30.83 33.03 77.34 30.82 114.63-2.08 36.14-16.66 67.4-24.75 102.58zm-10.71 71.22c-.01 3.18.03 6.38.12 9.59.12 4.47.31 8.41.5 12.23 1.23 26.89 2.1 46.7-21.23 70.3-11.62 11.77-26.31 18.66-41.45 21.11-11.43 1.83-23.07 1.11-33.81-1.99-10.67-3.1-20.43-8.53-28.18-16.21-8.54-8.42-14.62-19.55-16.79-33.17-1.65-10.29-.97-20.53.99-30.64 1.98-10.31 5.35-20.6 8.91-30.63.7-1.97 1.34-3.96 1.91-5.97l129.03 5.38zM35.75 397.22c0 3.19-.05 6.37-.13 9.58-.12 4.47-.31 8.41-.5 12.24-1.23 26.88-2.1 46.69 21.23 70.29C67.97 501.1 82.66 508 97.8 510.44c11.44 1.84 23.07 1.1 33.81-1.99 10.67-3.1 20.43-8.53 28.19-16.22 8.53-8.41 14.61-19.54 16.78-33.15 1.65-10.29.97-20.54-.99-30.64-1.98-10.33-5.35-20.61-8.91-30.64-.7-1.96-1.33-3.94-1.9-5.96l-129.03 5.38z"/></svg>