<svg id="Layer_1" data-name="Layer 1" xmlns="http://www.w3.org/2000/svg" viewBox="0 0 122.88 102.99"><defs><style>.cls-1{fill:#ffe256;fill-rule:evenodd;}</style></defs><title>sweater-merchandise</title><path d="M18.46,46.05,29,33.79a2.65,2.65,0,0,1,2.73-.19,1.29,1.29,0,0,1,.48,1h0V95.67H91V34.05c0-.72,1.48-1.31,2.2-1.31a2.16,2.16,0,0,1,1.56.64l9.39,13.24a1.26,1.26,0,0,1,.24.83l-.23,25h11.64l3.06-34.64C110.3,20.74,101,4.42,80.1,3.54,78,24,47.63,28.33,42.4,3.55,22.69,4.61,12.54,21.6,4,37.51L7,73h11l.24-26.1a1.27,1.27,0,0,1,.29-.81Zm43-6.89A14.91,14.91,0,0,1,72,43.54a3.33,3.33,0,0,1,.25.28A14.9,14.9,0,0,1,72,64.68h0A15,15,0,1,1,61.44,39.16ZM53,77.76a2.08,2.08,0,0,1,0-4.16h16.8a2.08,2.08,0,0,1,0,4.16ZM5.74,84.47l-1.22-10a.49.49,0,0,1,0-.12L0,37.4H0a1.31,1.31,0,0,1,.14-.77C6.2,25.33,12.72,16.29,19.83,10s15-9.85,23.5-10a1.31,1.31,0,0,1,1.42,1.08c4.14,23.65,32.09,18.69,32.84.17h0A1.32,1.32,0,0,1,78.9,0c22,.17,35,19.26,43.84,37h0a1.33,1.33,0,0,1,.13.74l-4.59,36.18h0L117,84.19a1.31,1.31,0,0,1-1.31,1.26H102.33A1.3,1.3,0,0,1,101,84.13l.09-10.26h0v-.1a.62.62,0,0,1,0-.13l.24-25.86-6.83-9.63v63.53A1.31,1.31,0,0,1,93.24,103H30a1.31,1.31,0,0,1-1.31-1.31V38.74l-7,8.6-.33,36.88v.1A1.31,1.31,0,0,1,20,85.63H7a1.31,1.31,0,0,1-1.3-1.16Z"/><path class="cls-1" d="M61.44,43.35A10.77,10.77,0,1,1,50.67,54.12,10.77,10.77,0,0,1,61.44,43.35Z"/></svg>