<svg id="Layer_1" data-name="Layer 1" xmlns="http://www.w3.org/2000/svg" viewBox="0 0 68.26 122.88"><defs><style>.cls-1{fill-rule:evenodd;}</style></defs><title>swimwear-swimsuit</title><path class="cls-1" d="M59.62,75.37H10.54l-6,16.95c-.91,2.44-.56,4.56,1.91,6.12,12.45,2.81,20.53,10,23.45,23.7a19.78,19.78,0,0,0,10.71,0c3.25-11.6,10.22-19.92,22.31-23.7C65.77,97,66.87,95,65.61,92.32l-6-16.95ZM8.7,49.12,8.47,49c3.78,8,4,13.47,2.07,21.77H59.79c-2.27-8.31-2.44-13.57-.45-21.63a14.9,14.9,0,0,0,2.5-1.84,16.13,16.13,0,0,0,2.09-2.27,24.18,24.18,0,0,0,4.33-13.39A19.55,19.55,0,0,0,67,24.5a32.63,32.63,0,0,0-3.51-7.22L64.75,1.51A32.05,32.05,0,0,1,58.11,0L56.75,17.57C48,21.48,39.39,31.22,35.09,39.66H32.88C28.58,31.22,20,21.48,11.22,17.57L9.69,0c-2,.52-4.1.92-6.13,1.42L4.5,17.28A23.83,23.83,0,0,0,.19,34.51C.82,40.17,3.84,46.14,8.7,49.12Z"/></svg>