<svg id="Layer_1" data-name="Layer 1" xmlns="http://www.w3.org/2000/svg" viewBox="0 0 122.88 105.84"><defs><style>.cls-1{fill:#ffe256;fill-rule:evenodd;}</style></defs><title>t shirt-merchandise</title><path d="M78.36,4.62H44.51c1.87,20.53,32.12,20.27,33.85,0ZM9.28,37.07l16.57.72A2.31,2.31,0,0,1,28.05,40a.57.57,0,0,1,0,.13v61.13H95.41V39.69a2.31,2.31,0,0,1,2.3-2.3c5.47,0,11-.12,16.43-.18l3.78-17.59-35-14.29C80.28,30.74,42.87,30.93,40,5.57L5,20,9.28,37.07Zm14.17,5.22-16-.7a2.29,2.29,0,0,1-1.4-.47l-.06,0a2.31,2.31,0,0,1-.78-1.22L.07,19.17s0-.05,0-.08a2.3,2.3,0,0,1,1.38-2.6L40.83.25A2.53,2.53,0,0,1,42.16,0H80.72a4.36,4.36,0,0,1,1.76.18l39,15.9.06,0a2.32,2.32,0,0,1,1.11,1,2.37,2.37,0,0,1,.22,1.56L118.26,40s0,.06,0,.09a2.24,2.24,0,0,1-.78,1.21,2.32,2.32,0,0,1-1.43.52L100,42v61.56a2.31,2.31,0,0,1-.68,1.63h0a2.29,2.29,0,0,1-1.63.68h-72a2.31,2.31,0,0,1-1.63-.68h0a2.29,2.29,0,0,1-.68-1.63V42.29Z"/><path d="M61.44,41.21A14.87,14.87,0,0,1,72,45.58l0,0a14.85,14.85,0,0,1,0,21l0,0a14.87,14.87,0,0,1-21,0l0,0a14.86,14.86,0,0,1,0-21l0,0a14.87,14.87,0,0,1,10.51-4.36Z"/><path class="cls-1" d="M61.44,45.38A10.73,10.73,0,1,1,50.71,56.11,10.74,10.74,0,0,1,61.44,45.38Z"/><path d="M51.71,83.48a2.41,2.41,0,0,1,0-4.82H71.17a2.41,2.41,0,0,1,0,4.82Z"/></svg>