<svg id="Layer_1" data-name="Layer 1" xmlns="http://www.w3.org/2000/svg" viewBox="0 0 121.63 122.88"><title>textile</title><path d="M.34,61.28h0v0h0l0-.14c1.25-3,3.16-3.41,5-3.82,1.23-.28,2.43-.55,2.65-4.17a11.37,11.37,0,0,1,.53-2.94l0-.1A6.08,6.08,0,0,1,10,47.88c1.68-1.75,3.63-1.73,5.68-1.7a6.33,6.33,0,0,0,3.18-.47c.31-.18.38-1.41.46-2.74.12-2.17.26-4.52,1.88-6.31,1.87-2.09,4.26-2.12,6.52-2.15,1.45,0,2.81,0,3.11-1.06a8.68,8.68,0,0,0,.09-2.7c-.11-2-.22-4.05,1.18-5.72,1.62-2,3.53-2,5.59-2a5.34,5.34,0,0,0,3.88-1.07,2,2,0,0,0,.49-.7.94.94,0,0,0,0-.5,6.84,6.84,0,0,1,.15-3.57,7.79,7.79,0,0,1,1.91-3.11c1.91-1.94,3.87-2.12,5.73-2.3,1.12-.1,2.18-.21,2.78-1a7.16,7.16,0,0,0,.79-2.83,9.27,9.27,0,0,1,1.45-4.45,10.32,10.32,0,0,1,4.06-3,5.46,5.46,0,0,1,4-.09,1.89,1.89,0,0,1,.54.25h0a1.83,1.83,0,0,1,.71.75,9.18,9.18,0,0,1,1.87,5.81c.06,1.28.11,2.2,3.69,2.3a10.19,10.19,0,0,1,2.92.47l.1,0a6.21,6.21,0,0,1,2.29,1.37C76.83,13,76.81,15,76.79,17a6.36,6.36,0,0,0,.46,3.19c.19.31,1.41.38,2.75.46,2.16.12,4.51.26,6.31,1.88,2.08,1.87,2.11,4.26,2.15,6.52,0,1.45,0,2.81,1.06,3.11a9,9,0,0,0,2.7.09c2-.11,4-.22,5.72,1.17,2,1.62,2,3.54,2,5.6,0,1.34,0,2.79,1.07,3.88a2,2,0,0,0,.71.49l.08,0a.81.81,0,0,0,.41,0,6.94,6.94,0,0,1,3.57.16,7.92,7.92,0,0,1,3.12,1.9c1.93,1.92,2.12,3.88,2.29,5.74v.05a3.77,3.77,0,0,0,.86,2.59,8.88,8.88,0,0,0,2.31.25c3.1.09,6.17.17,7.13,5.11a6.61,6.61,0,0,1-1.55,5.6A10.76,10.76,0,0,1,114.89,68a4,4,0,0,0-.83,2.6c-.17,1.86-.36,3.83-2.3,5.74a7.59,7.59,0,0,1-3.11,1.9,6.74,6.74,0,0,1-3.57.16.93.93,0,0,0-.5,0,2.12,2.12,0,0,0-.7.5c-1,1.08-1.06,2.54-1.07,3.88,0,2.06-.06,4-2,5.59-1.68,1.4-3.7,1.28-5.73,1.17a9,9,0,0,0-2.7.1c-1,.3-1,1.66-1.06,3.11,0,2.26-.06,4.64-2.14,6.52-1.8,1.62-4.15,1.76-6.32,1.88-1.33.08-2.56.15-2.74.45a6.5,6.5,0,0,0-.47,3.19c0,2,0,4-1.7,5.68a6.49,6.49,0,0,1-2.39,1.4,9.84,9.84,0,0,1-2.92.48c-3.58.09-3.63,1-3.7,2.3a9.07,9.07,0,0,1-2.22,6.25,5.69,5.69,0,0,1-2.91,1.78,7.9,7.9,0,0,1-3.44.06,7.21,7.21,0,0,1-2.79-.89,6.34,6.34,0,0,1-1.72-1.47,1.89,1.89,0,0,1-.73-1.63,1.82,1.82,0,0,1,.08-.52,4.12,4.12,0,0,0,0-1.59,1.93,1.93,0,0,0-.62-1,5.86,5.86,0,0,0-3.95-1.29c-3.31-.17-5.69-.3-5.88-7.38a6,6,0,0,0-.28-1.79l0-.07a2.57,2.57,0,0,0-.55-.94c-.54-.56-1.69-.55-2.89-.53a9.19,9.19,0,0,1-5.16-1c-2-1.21-2.16-3.4-2.3-5.78-.08-1.53-.18-3.18-.92-4s-2.31-.88-3.76-.9c-2.89,0-5.59-.08-6.68-3.75a11.38,11.38,0,0,1-.24-4c.07-1.28.14-2.55-.32-3.1s-1.58-.64-2.73-.66c-2.06,0-4.28-.06-6.43-2.1A5.72,5.72,0,0,1,11,76.16l-.06-.2a4.48,4.48,0,0,1-.1-2.39A2.94,2.94,0,0,0,10.74,72a4.09,4.09,0,0,0-1-1.59,5.08,5.08,0,0,0-3.42-1.2h0c-2-.19-3.85-.38-5.43-2.59a1.44,1.44,0,0,1-.23-.42,9.53,9.53,0,0,1-.42-1.24A6.21,6.21,0,0,1,0,63.53a6,6,0,0,1,.06-1.19v-.07a6.54,6.54,0,0,1,.26-1ZM87.48,68a2.94,2.94,0,1,0,4.16,0,2.94,2.94,0,0,0-4.16,0Zm6.92-6.92a2.94,2.94,0,1,0,4.16,0,2.94,2.94,0,0,0-4.16,0ZM80.67,74.85a2.94,2.94,0,1,1,0,4.16,2.94,2.94,0,0,1,0-4.16Zm-6.92,6.92a2.94,2.94,0,1,1,0,4.16,2.94,2.94,0,0,1,0-4.16Zm-6.93,6.92a2.94,2.94,0,1,1,0,4.16,2.94,2.94,0,0,1,0-4.16ZM59.9,95.61a2.94,2.94,0,1,1,0,4.16,3,3,0,0,1,0-4.16ZM78.34,58.9a2.94,2.94,0,1,0,4.16,0,2.94,2.94,0,0,0-4.16,0ZM85.26,52a2.94,2.94,0,1,0,4.16,0,2.94,2.94,0,0,0-4.16,0ZM71.53,65.71a2.94,2.94,0,1,1,0,4.16,2.94,2.94,0,0,1,0-4.16Zm-6.92,6.92a2.94,2.94,0,1,1,0,4.16,2.94,2.94,0,0,1,0-4.16Zm-6.93,6.92a2.94,2.94,0,1,1,0,4.16,2.94,2.94,0,0,1,0-4.16Zm-6.92,6.92a2.94,2.94,0,1,1,0,4.16,3,3,0,0,1,0-4.16ZM69.2,49.76a2.94,2.94,0,1,0,4.16,0,2.94,2.94,0,0,0-4.16,0Zm6.92-6.92a2.94,2.94,0,1,0,4.16,0,2.94,2.94,0,0,0-4.16,0ZM62.39,56.57a2.94,2.94,0,1,1,0,4.16,2.94,2.94,0,0,1,0-4.16Zm-6.92,6.92a2.94,2.94,0,1,1,0,4.16,2.94,2.94,0,0,1,0-4.16Zm-6.93,6.92a2.94,2.94,0,1,1,0,4.16,2.94,2.94,0,0,1,0-4.16Zm-6.92,6.92a2.94,2.94,0,1,1,0,4.16,3,3,0,0,1,0-4.16ZM60.06,40.62a2.94,2.94,0,1,0,4.16,0,2.94,2.94,0,0,0-4.16,0ZM67,33.7a2.94,2.94,0,1,0,4.16,0,2.94,2.94,0,0,0-4.16,0ZM53.25,47.43a2.94,2.94,0,1,1,0,4.16,2.94,2.94,0,0,1,0-4.16Zm-6.92,6.92a2.94,2.94,0,1,1,0,4.16,2.94,2.94,0,0,1,0-4.16ZM39.4,61.27a2.94,2.94,0,1,1,0,4.16,2.94,2.94,0,0,1,0-4.16Zm-6.92,6.92a2.94,2.94,0,1,1,0,4.16,3,3,0,0,1,0-4.16ZM50.92,31.48a2.94,2.94,0,1,0,4.16,0,2.94,2.94,0,0,0-4.16,0Zm6.92-6.92a2.94,2.94,0,1,0,4.16,0,2.94,2.94,0,0,0-4.16,0ZM44.11,38.29a2.94,2.94,0,1,1,0,4.16,2.94,2.94,0,0,1,0-4.16Zm-6.92,6.92a2.94,2.94,0,1,1,0,4.16,2.94,2.94,0,0,1,0-4.16Zm-6.93,6.92a2.94,2.94,0,1,1,0,4.16,2.94,2.94,0,0,1,0-4.16Zm-6.92,6.92a2.94,2.94,0,1,1,0,4.16,3,3,0,0,1,0-4.16Zm38-55.26A2.31,2.31,0,0,0,60.26,4a5.76,5.76,0,0,0-2.34,1.71,6.71,6.71,0,0,0-.77,2.76,9.69,9.69,0,0,1-1.46,4.49c-1.6,2.23-3.48,2.4-5.49,2.59a5,5,0,0,0-3.41,1.21,3.84,3.84,0,0,0-1,1.59,3,3,0,0,0-.09,1.6,4.55,4.55,0,0,1-.15,2.6,5.61,5.61,0,0,1-1.45,2.16c-2.15,2-4.37,2.08-6.44,2.11-1.14,0-2.21,0-2.72.65s-.39,1.83-.32,3.11a11.64,11.64,0,0,1-.24,4c-1.09,3.66-3.79,3.7-6.68,3.74-1.45,0-3,0-3.76.91s-.84,2.47-.93,4c-.13,2.38-.26,4.57-2.29,5.78a9.26,9.26,0,0,1-5.16,1c-1.2,0-2.35,0-2.89.54h0a2.21,2.21,0,0,0-.48.84l0,.08a7.45,7.45,0,0,0-.34,1.93c-.39,6.45-2.95,7-5.58,7.62a2.84,2.84,0,0,0-2.32,1.49l0,.1a1.54,1.54,0,0,0-.1.33v0a3,3,0,0,0,0,.42,3.35,3.35,0,0,0,.11.63,2.76,2.76,0,0,0,.16.54,3.8,3.8,0,0,0,2.62.89h0c1.85.18,3.82.36,5.73,2.3a7.73,7.73,0,0,1,1.9,3.11,6.77,6.77,0,0,1,.16,3.58.9.9,0,0,0,0,.4l0,.09a1.69,1.69,0,0,0,.49.7c1.08,1,2.54,1.06,3.88,1.08,2.06,0,4,0,5.59,2,1.39,1.68,1.28,3.7,1.17,5.72a8.93,8.93,0,0,0,.1,2.7c.3,1,1.66,1,3.11,1.06,2.25,0,4.64.07,6.52,2.15,1.62,1.8,1.76,4.14,1.88,6.31.08,1.33.15,2.56.45,2.74a6.39,6.39,0,0,0,3.19.47c2,0,4,0,5.67,1.7a6.5,6.5,0,0,1,1.38,2.3l0,.1a9.77,9.77,0,0,1,.48,2.91c.09,3.58,1,3.63,2.3,3.7A9.09,9.09,0,0,1,57,112.77a5.66,5.66,0,0,1,1.78,2.9,7.52,7.52,0,0,1,.18,2.54,3.09,3.09,0,0,0,.47.36,3.57,3.57,0,0,0,1.36.41l.14,0a4.49,4.49,0,0,0,1.9,0,1.87,1.87,0,0,0,1-.62,5.87,5.87,0,0,0,1.3-4c.17-3.31.3-5.69,7.37-5.87a6.33,6.33,0,0,0,1.8-.29,2.58,2.58,0,0,0,1-.57c.57-.54.55-1.69.54-2.89a9.26,9.26,0,0,1,1-5.16c1.21-2,3.4-2.16,5.78-2.29,1.53-.09,3.18-.19,4-.93s.89-2.31.91-3.76c0-2.89.08-5.59,3.75-6.68a11.57,11.57,0,0,1,4-.24c1.28.07,2.56.14,3.11-.32s.64-1.58.65-2.73c0-2.06.06-4.28,2.11-6.43a5.61,5.61,0,0,1,2.16-1.45,4.65,4.65,0,0,1,2.6-.15,3,3,0,0,0,1.61-.09,4,4,0,0,0,1.59-1,5.07,5.07,0,0,0,1.2-3.41c.19-2,.37-3.89,2.59-5.49a2,2,0,0,1,.72-.32,7,7,0,0,0,3.46-2,2.92,2.92,0,0,0,.73-2.43c-.39-2-2-2-3.53-2.08a10.31,10.31,0,0,1-3.87-.6,2.71,2.71,0,0,1-.37-.21c-2.2-1.59-2.4-3.46-2.58-5.44v-.05a5.07,5.07,0,0,0-1.2-3.41,4,4,0,0,0-1.59-1,3.14,3.14,0,0,0-1.61-.08,4.63,4.63,0,0,1-2.4-.09l-.19-.06a5.57,5.57,0,0,1-2.17-1.45c-2.05-2.15-2.08-4.38-2.11-6.44,0-1.14,0-2.21-.65-2.73S93.7,36,92.42,36a11.58,11.58,0,0,1-4-.24c-3.67-1.1-3.71-3.8-3.75-6.68,0-1.45,0-3-.91-3.77s-2.47-.83-4-.92c-2.39-.14-4.58-.26-5.78-2.3A9.14,9.14,0,0,1,73,17c0-1.2,0-2.36-.54-2.9a2.56,2.56,0,0,0-.93-.54l-.07,0a6,6,0,0,0-1.79-.29c-7.08-.18-7.21-2.56-7.38-5.87a6.18,6.18,0,0,0-1-3.56Z"/></svg>