<svg xmlns="http://www.w3.org/2000/svg" shape-rendering="geometricPrecision" text-rendering="geometricPrecision" image-rendering="optimizeQuality" fill-rule="evenodd" clip-rule="evenodd" viewBox="0 0 512 398.17"><path d="M20.64 43.89h16.47c3.18-13.32 10.74-24.14 21.18-31.75C70.48 3.26 86.51-1.11 103.85.24l256.64.03c24.29.28 42.42 5.41 54.83 17.52 12.41 12.11 18.48 30.58 18.55 57.44l.03 312.87c0 2.78-1.12 5.3-2.95 7.12a10.003 10.003 0 0 1-7.12 2.95H145.11c-2.36 0-4.52-.83-6.23-2.19l-.88-.76c-1.82-1.83-2.96-4.38-2.96-7.12l.03-313.03c.4-17.36-3.15-31.94-9.26-42.41-5.76-9.89-13.78-15.89-22.67-16.64-13.8-1.18-26.33 2.08-35.6 8.83-6.45 4.7-11.37 11.16-14.05 19.04h55.88c3.35 10.59 5.11 22.95 4.79 37.11v4.18H50.68l.04 132.07h42.52c4.36 0 7.9 3.54 7.9 7.9 0 4.35-3.54 7.89-7.9 7.89H42.82c-4.35 0-7.89-3.54-7.89-7.89l.02-139.97H20.64C9.31 85.18 0 75.89 0 64.54v-.01c0-11.35 9.28-20.64 20.64-20.64zm130.18 281.43a67.446 67.446 0 0 1 27.85-5.98c12.21 0 24.43 3.3 35.17 9.88a67.264 67.264 0 0 1 35.18-9.92c12.19 0 24.41 3.31 35.18 9.92 10.74-6.58 22.96-9.88 35.18-9.88 12.21-.01 24.43 3.29 35.18 9.87 10.77-6.59 23.02-9.89 35.25-9.87 9.68 0 19.36 2.08 28.3 6.23v-44.26c-8.5-5.67-18.39-8.51-28.29-8.51-10.7 0-21.38 3.31-30.31 9.94-2.99 2.21-7 2.08-9.82-.07-8.91-6.58-19.56-9.87-30.23-9.87v-.04c-10.67 0-21.35 3.32-30.32 9.97a8.173 8.173 0 0 1-9.81-.07c-8.96-6.61-19.63-9.91-30.29-9.9-10.69.02-21.38 3.37-30.36 10.05-2.99 2.22-7.02 2.08-9.84-.09-8.87-6.57-19.52-9.87-30.19-9.87v-.03c-9.71 0-19.43 2.75-27.83 8.25v44.25zm267.29 18.92c-8.53-5.72-18.42-8.59-28.3-8.6-10.67-.01-21.34 3.29-30.3 9.9a8.158 8.158 0 0 1-9.81.06c-8.97-6.64-19.65-9.96-30.32-9.96-10.64 0-21.29 3.31-30.23 9.91a8.188 8.188 0 0 1-9.82.07c-8.93-6.63-19.61-9.94-30.31-9.94-10.66 0-21.31 3.29-30.22 9.87a8.188 8.188 0 0 1-9.82.07c-8.96-6.65-19.64-9.98-30.31-9.98-9.71 0-19.42 2.75-27.84 8.24v38.5h267.28v-38.14zM150.82 262.5c8.8-3.99 18.32-5.99 27.83-5.99v-.03c12.21 0 24.43 3.31 35.17 9.92 10.74-6.61 22.98-9.93 35.22-9.94 12.22-.01 24.47 3.28 35.24 9.88 10.75-6.59 22.97-9.89 35.18-9.88v-.04c12.2 0 24.42 3.31 35.18 9.92a67.264 67.264 0 0 1 35.18-9.92c9.66 0 19.34 2.08 28.29 6.23V75.23c-.03-22.31-4.54-37.15-13.77-46.15-9.23-9.01-23.81-12.84-43.91-13.08l-227.08.03c2.21 2.61 4.25 5.5 6.1 8.67 7.46 12.78 11.8 30.17 11.35 50.53l.02 187.27zM452.39 43.89h38.97c11.35 0 20.64 9.33 20.64 20.64v.01c0 11.31-9.32 20.64-20.64 20.64h-34.33V81c-.04-14.55-1.58-26.83-4.64-37.11z"/></svg>