<svg id="Layer_1" data-name="Layer 1" xmlns="http://www.w3.org/2000/svg" viewBox="0 0 122.88 97.11"><defs><style>.cls-1{fill-rule:evenodd;}</style></defs><title>witch-cap</title><path class="cls-1" d="M85.8,68.42c21.82,2.3,37.08,7.58,37.08,13.74,0,8.26-27.51,15-61.44,15S0,90.42,0,82.16C0,76,15.1,70.78,36.72,68.46,38.39,58.1,40.89,48.19,43,38.6,49.6,7.77,73-18.93,93.94,17.8c-5-2.65-9.37-4.45-12.76-4.75-10.41-.92-6.89,16.42-5.87,22.87A122.37,122.37,0,0,0,85.8,68.42ZM59.51,73.16h4.77a1.47,1.47,0,0,1,1.47,1.47v2.88A1.47,1.47,0,0,1,64.28,79H59.51A1.47,1.47,0,0,1,58,77.51V74.63a1.47,1.47,0,0,1,1.47-1.47ZM38.69,69.7l14.24,1.56-.36,8.09L37.19,77.66l1.5-8Zm19,1.23H66.1a2.61,2.61,0,0,1,2.59,2.6v5.08A2.6,2.6,0,0,1,66.1,81.2H57.69a2.6,2.6,0,0,1-2.59-2.59V73.53a2.6,2.6,0,0,1,2.59-2.6Zm27-1.23-13.47,2,.36,8.09,14.61-2.12-1.5-8Z"/></svg>