<svg id="Layer_1" data-name="Layer 1" xmlns="http://www.w3.org/2000/svg" viewBox="0 0 114.52 122.88"><title>woman-outfit-crop-top</title><path d="M107.26,81.87a27.82,27.82,0,0,1-3.51,3.82,24.91,24.91,0,0,1-4.41,3.2c-3.12,12.83-2.76,20.36,1,34H17.67c3.21-13.61,2.9-21.33-3-34.17-8.18-5-13.26-15-14.31-24.53C-.94,52.84,1.54,41.84,7.54,33.1L6,2.44C9.38,1.6,12.86.94,16.26.07l2.57,33.51A61.15,61.15,0,0,1,39.5,49.08,111,111,0,0,1,55.16,72.82h3.71A111,111,0,0,1,74.53,49.08,61.15,61.15,0,0,1,95.2,33.58L97.48,0a54.25,54.25,0,0,0,11.14,2.54L106.49,33.1a54.8,54.8,0,0,1,5.89,12.11,45.13,45.13,0,0,1,2.13,14.2c-.1,6.79-1.75,14-7.25,22.46Zm-4.58-47c-8.56,2.29-19.34,10.54-25.06,16.94A106,106,0,0,0,62.74,74.36c10.33,10.77,20,14.35,27.8,13.24a19.6,19.6,0,0,0,10.43-5c13.25-12,10.94-34.48,1.71-47.71Zm-91.33,0C2.81,47.16,1.91,61.43,6.05,72.11a27.29,27.29,0,0,0,7,10.49,19.54,19.54,0,0,0,10.43,5c7.84,1.11,17.47-2.47,27.8-13.24A106,106,0,0,0,36.41,51.84c-6.4-7.16-15.77-14-25.06-16.94Z"/></svg>