<svg xmlns="http://www.w3.org/2000/svg" shape-rendering="geometricPrecision" text-rendering="geometricPrecision" image-rendering="optimizeQuality" fill-rule="evenodd" clip-rule="evenodd" viewBox="0 0 294 511.14"><path d="M119.01 86.8c0-5.43 1.55-10.47 4.23-14.76h47.52c2.68 4.26 4.23 9.33 4.23 14.76 0 15.45-12.54 27.98-27.99 27.98s-27.99-12.53-27.99-27.98zM54.87 226.44c-3.84 0-6.96-3.11-6.96-6.96 0-3.83 3.12-6.95 6.96-6.95h184.26c3.84 0 6.96 3.12 6.96 6.95 0 3.85-3.12 6.96-6.96 6.96H54.87zm0 41.04c-3.84 0-6.96-3.11-6.96-6.95 0-3.84 3.12-6.96 6.96-6.96h177.46c3.84 0 6.96 3.12 6.96 6.96s-3.12 6.95-6.96 6.95H54.87zm0 41.05c-3.84 0-6.96-3.12-6.96-6.96s3.12-6.95 6.96-6.95h151.55c3.84 0 6.96 3.11 6.96 6.95 0 3.84-3.12 6.96-6.96 6.96H54.87zm0 82.09c-3.84 0-6.96-3.12-6.96-6.96s3.12-6.96 6.96-6.96h48.41c3.84 0 6.96 3.12 6.96 6.96s-3.12 6.96-6.96 6.96H54.87zm0-41.05c-3.84 0-6.96-3.11-6.96-6.95 0-3.84 3.12-6.96 6.96-6.96h77c3.84 0 6.96 3.12 6.96 6.96s-3.12 6.95-6.96 6.95h-77zM55.22 0h183.57C269.28 0 294 24.76 294 55.23v400.69c0 30.49-24.72 55.22-55.21 55.22H55.22C24.73 511.14 0 486.41 0 455.92V55.16C0 24.6 24.68 0 55.22 0zm-36.2 434.43H274.9V54.7H19.02v379.73zm127.91 17.28c12.49 0 22.7 10.06 22.7 22.7 0 12.51-10.05 22.71-22.7 22.71-12.49 0-22.71-10.05-22.71-22.71 0-12.48 10.06-22.7 22.71-22.7zm33.08-61.55a5.885 5.885 0 0 1 .55 8.3c-2.13 2.44-5.85 2.68-8.29.55l-18.53-16.24c-2.44-2.13-2.68-5.85-.55-8.29l.6-.59 18.48-16.19a5.873 5.873 0 0 1 8.29.55 5.874 5.874 0 0 1-.55 8.29l-13.48 11.81 13.48 11.81zm44.46 8.85a5.883 5.883 0 0 1-8.29-.55c-2.13-2.45-1.89-6.16.55-8.3l13.48-11.81-13.48-11.81a5.874 5.874 0 1 1 7.74-8.84l18.49 16.19.59.59a5.873 5.873 0 0 1-.55 8.29l-18.53 16.24zm-27.17-44.67c.74-3.16 3.91-5.13 7.08-4.4 3.16.74 5.13 3.91 4.4 7.08l-10.59 45.34c-.74 3.16-3.91 5.14-7.07 4.4a5.903 5.903 0 0 1-4.41-7.07l10.59-45.35zm30.48-266.48v5.86c0 5.48-4.48 9.97-9.97 9.97h-10.2c-1.3 5.75-3.39 11.2-6.15 16.23l6.81 6.81c3.87 3.88 3.87 10.22 0 14.1l-8.29 8.29c-3.88 3.88-10.22 3.88-14.1 0l-6.21-6.2a62.015 62.015 0 0 1-16.84 7.28v8.47c0 5.48-4.49 9.97-9.97 9.97h-11.72c-5.49 0-9.97-4.49-9.97-9.97v-8.35a61.932 61.932 0 0 1-17.01-7.24l-6.04 6.04c-3.88 3.88-10.23 3.88-14.1 0l-8.29-8.29c-3.88-3.87-3.88-10.22 0-14.1l6.53-6.52a61.747 61.747 0 0 1-6.31-16.52h-9.77c-5.48 0-9.97-4.49-9.97-9.97V82c0-5.33 4.23-9.71 9.5-9.96h33.38a40.054 40.054 0 0 0-2.41 13.74c0 .69.01 1.39.05 2.08-.04.69-.05 1.38-.05 2.07 0 22.15 17.95 40.11 40.1 40.11 22.15 0 40.1-17.96 40.1-40.11 0-.69-.01-1.38-.05-2.07.04-.69.05-1.39.05-2.08 0-4.83-.85-9.46-2.41-13.74h33.82c5.26.25 9.49 4.63 9.49 9.96v5.86z"/></svg>