<svg id="Layer_1" data-name="Layer 1" xmlns="http://www.w3.org/2000/svg" viewBox="0 0 95.17 122.88"><defs><style>.cls-1{fill-rule:evenodd;}</style></defs><title>confirm-password</title><path class="cls-1" d="M6.37,47.11H8.53V40.48A41.15,41.15,0,0,1,19.92,12a37.93,37.93,0,0,1,55.33,0,41.16,41.16,0,0,1,11.4,28.5v6.63H88.8a6.39,6.39,0,0,1,6.37,6.37v63a6.39,6.39,0,0,1-6.37,6.37H6.37A6.39,6.39,0,0,1,0,116.51v-63a6.39,6.39,0,0,1,6.37-6.37Zm14.22,0h54V40.48a29.07,29.07,0,0,0-8-20.16,26,26,0,0,0-38,0,29,29,0,0,0-8,20.16v6.63ZM35.3,77l7,6.53L58.84,66.72c1.47-1.5,2.39-2.69,4.21-.83l5.9,6c1.93,1.92,1.83,3,0,4.83L45.62,99.69c-3.85,3.78-3.19,4-7.08.13L25.37,86.74a1.71,1.71,0,0,1,.16-2.65L32.38,77c1-1.07,1.85-1,2.92,0Z"/></svg>