<svg xmlns="http://www.w3.org/2000/svg" shape-rendering="geometricPrecision" text-rendering="geometricPrecision" image-rendering="optimizeQuality" fill-rule="evenodd" clip-rule="evenodd" viewBox="0 0 512 411.21"><path d="M8.42 237.08h495.16c4.63 0 8.42 3.86 8.42 8.42v38.68c0 4.57-3.86 8.42-8.42 8.42H8.42c-4.56 0-8.42-3.78-8.42-8.42V245.5c0-4.64 3.78-8.42 8.42-8.42zm236.54-117.76h258.65c4.62 0 8.39 3.8 8.39 8.39v38.58c0 4.59-3.8 8.39-8.39 8.39H244.96c-4.6 0-8.4-3.77-8.4-8.39v-38.58c0-4.62 3.77-8.39 8.4-8.39zm0-119.32h258.65c4.62 0 8.39 3.8 8.39 8.39v38.58c0 4.59-3.8 8.39-8.39 8.39H244.96c-4.6 0-8.4-3.77-8.4-8.39V8.39c0-4.62 3.77-8.39 8.4-8.39zM8.39 0h157.9c4.61 0 8.39 3.77 8.39 8.39v157.9c0 4.62-3.78 8.39-8.39 8.39H8.39c-4.63 0-8.39-3.77-8.39-8.39V8.39C0 3.77 3.76 0 8.39 0zm.03 355.69h495.16c4.64 0 8.42 3.86 8.42 8.42v38.69c0 4.57-3.85 8.41-8.42 8.41H8.42c-4.56 0-8.42-3.78-8.42-8.41v-38.69c0-4.63 3.79-8.42 8.42-8.42z"/></svg>