<svg xmlns="http://www.w3.org/2000/svg" shape-rendering="geometricPrecision" text-rendering="geometricPrecision" image-rendering="optimizeQuality" fill-rule="evenodd" clip-rule="evenodd" viewBox="0 0 512 489.34"><path d="M331.41 483.51v-239.2a7.347 7.347 0 0 0-2.01-3.78 7.224 7.224 0 0 0-5.11-2.15H187.75a7.338 7.338 0 0 0-7.26 7.26v236.47c0 1.91.77 3.75 2.15 5.08a6.81 6.81 0 0 0 4.96 2.15h136.82c1.92-.01 3.77-.79 5.11-2.15a7.775 7.775 0 0 0 1.98-3.82l-.1.14zm88.95-198.87c-2.3 0-4.18-1.87-4.18-4.18 0-2.3 1.88-4.17 4.18-4.17h33.02a4.176 4.176 0 1 1 0 8.35h-33.02zm0-23.23c-2.3 0-4.18-1.87-4.18-4.18 0-2.3 1.88-4.17 4.18-4.17h56.08a4.176 4.176 0 0 1 0 8.35h-56.08zm0-23.23c-2.3 0-4.18-1.87-4.18-4.17 0-2.31 1.88-4.18 4.18-4.18h65.59a4.176 4.176 0 0 1 0 8.35h-65.59zm43.41-70.13c1.16 0 2.21.48 2.97 1.24l43.8 37.85c.63.54 1.06 1.24 1.28 1.98.2.7.18 1.36.18 2.08v93.92c0 2.22-.94 4.27-2.4 5.74-1.49 1.49-3.54 2.42-5.76 2.42H402.48c-2.23 0-4.29-.92-5.77-2.4a8.15 8.15 0 0 1-2.39-5.76V176.21c0-2.24.92-4.29 2.4-5.75a8.074 8.074 0 0 1 5.76-2.41h61.29zm39.84 46.55-39.73 1.09c-2.3.06-4.23-1.76-4.29-4.06l-.02-35.19H402.7V304.9h100.91v-90.3zm-6.68-8.18-28.97-25.02v25.82l28.97-.8zM26.05 284.64a4.176 4.176 0 1 1 0-8.35h33.02a4.176 4.176 0 0 1 0 8.35H26.05zm0-23.23a4.176 4.176 0 1 1 0-8.35h56.07c2.3 0 4.18 1.87 4.18 4.17 0 2.31-1.88 4.18-4.18 4.18H26.05zm0-23.23a4.176 4.176 0 1 1 0-8.35h65.58c2.3 0 4.18 1.87 4.18 4.18 0 2.3-1.88 4.17-4.18 4.17H26.05zm46.37-68.89 43.81 37.85c.72.62 1.17 1.44 1.35 2.3.13.69.09 1.28.1 2v93.68c0 4.44-3.7 8.16-8.15 8.16H8.16c-4.48 0-8.16-3.68-8.16-8.16V176.21c0-2.24.93-4.29 2.41-5.75a8.068 8.068 0 0 1 5.75-2.41H68c.48 0 .97.02 1.45 0 1.16 0 2.21.48 2.97 1.24zm36.88 45.31-39.73 1.09a4.178 4.178 0 0 1-4.29-4.06l-.02-35.19H8.39V304.9H109.3v-90.3zm-6.69-8.18L73.64 181.4v25.82l28.97-.8zm147.84 16.35c-.5-.32-.97-.72-1.39-1.18l-16.04-17.37c-2.76-3.01-2.57-7.71.44-10.48 3.01-2.76 7.71-2.57 10.47.44l4.64 5.02v-31.26c0-4.1 3.33-7.43 7.43-7.43s7.43 3.33 7.43 7.43v32.7l5.36-4.47a7.404 7.404 0 0 1 10.42.96 7.392 7.392 0 0 1-.96 10.41l-18.29 15.26c-2.8 2.33-6.83 2.25-9.51-.03zM223.2 116.59c-2.3 0-4.17-1.88-4.17-4.18s1.87-4.18 4.17-4.18h33.02c2.31 0 4.18 1.88 4.18 4.18s-1.87 4.18-4.18 4.18H223.2zm0-23.23a4.174 4.174 0 0 1 0-8.35h56.07c2.31 0 4.18 1.87 4.18 4.17s-1.87 4.18-4.18 4.18H223.2zm0-23.23a4.176 4.176 0 0 1 0-8.35h65.59a4.176 4.176 0 0 1 0 8.35H223.2zm46.38-68.9 43.8 37.86a4.07 4.07 0 0 1 1.35 2.27c.11.5.11 1 .11 1.51v94.2c0 2.22-.94 4.26-2.4 5.74-1.49 1.48-3.54 2.42-5.76 2.42H205.31c-2.22 0-4.28-.93-5.76-2.4a8.15 8.15 0 0 1-2.39-5.76V8.15c0-2.24.92-4.29 2.4-5.75a8.06 8.06 0 0 1 5.75-2.4h60.68l.31.01.31-.01c1.16 0 2.21.47 2.97 1.23zm36.87 45.32-39.73 1.09c-2.3.06-4.23-1.76-4.29-4.07l-.02-35.19h-56.87v128.46h100.91V46.55zm-6.68-8.18L270.8 13.34v25.83l28.97-.8zM147.26 395.44c-.35.5-.76.96-1.24 1.38l-17.37 15.07c-3.09 2.67-7.78 2.33-10.45-.76-2.67-3.09-2.33-7.77.76-10.44l4.85-4.21c-5.75-.14-11.53-.89-17.2-2.3-7.11-1.75-14.11-4.54-20.8-8.4-8.65-4.99-16-11.32-21.91-18.53a80.083 80.083 0 0 1-13.88-25.16c-1.3-3.87.79-8.07 4.67-9.37 3.87-1.29 8.07.8 9.37 4.68a65.197 65.197 0 0 0 11.33 20.44 64.86 64.86 0 0 0 17.79 15.12c5.42 3.13 11.14 5.4 16.97 6.84 4.6 1.14 9.28 1.75 13.92 1.87l-3.17-3.6c-2.71-3.07-2.41-7.76.66-10.47 3.08-2.7 7.77-2.4 10.47.67l15.26 17.33c2.51 2.85 2.44 7.09-.03 9.84zm218.72 1.38c-.48-.42-.89-.88-1.24-1.38-2.46-2.75-2.54-6.99-.03-9.84l15.26-17.34a7.408 7.408 0 0 1 10.46-.66 7.4 7.4 0 0 1 .67 10.46l-3.17 3.61c4.64-.12 9.32-.73 13.92-1.87a65.23 65.23 0 0 0 16.98-6.84 64.892 64.892 0 0 0 17.92-15.25 64.983 64.983 0 0 0 11.3-20.69 7.427 7.427 0 0 1 9.37-4.73c3.9 1.28 6.01 5.48 4.73 9.37a79.914 79.914 0 0 1-13.92 25.39c-5.95 7.32-13.35 13.72-22.04 18.73-6.68 3.86-13.69 6.65-20.79 8.4a79.401 79.401 0 0 1-17.21 2.3l4.85 4.21c3.09 2.67 3.43 7.35.76 10.44s-7.36 3.43-10.44.76l-17.38-15.07zM256 414.14c11.68 0 21.15 9.47 21.15 21.15 0 11.68-9.47 21.15-21.15 21.15-11.68 0-21.15-9.47-21.15-21.15 0-11.68 9.47-21.15 21.15-21.15zm48.65-134.31v18.16h-97.24v-18.16h97.24zm0 50.24v18.16h-47.92l-.47-1.6-.62 1.5h-48.23v-18.06h97.24z"/></svg>