<svg xmlns="http://www.w3.org/2000/svg" shape-rendering="geometricPrecision" text-rendering="geometricPrecision" image-rendering="optimizeQuality" fill-rule="evenodd" clip-rule="evenodd" viewBox="0 0 512 428.81"><path d="M47.97 428.72V245.41c-9.75 3.75-18.88 3.83-26.46 1.25-5.91-2-10.91-5.59-14.58-10.21-3.67-4.63-6-10.25-6.71-16.46-1.08-9.62 1.79-20.5 10-30.7.42-.5.87-1 1.42-1.42L249.37 2.3c3.08-2.83 7.83-3.12 11.24-.46l238.28 185.24c.37.29.7.58 1.04.96 11.04 11.87 13.79 25.04 11.12 36.16a33.765 33.765 0 0 1-7.58 14.5 32.825 32.825 0 0 1-13.5 9.12c-8.33 3-18.25 2.92-28.29-1.83v182.23h-23.33V235.74c0-4.21-163.45-133.4-181.49-147.45C237.74 102.83 71.3 230.99 71.3 236.41v192.4l-23.33-.09zm314.7-210.11H149.33c-2.99 0-5.32 2.12-5.32 5.19v63.31c0 1.46.61 2.79 1.57 3.76.97.97 2.29 1.57 3.75 1.57h213.34c2.89 0 5.32-2.43 5.32-5.33V223.8c0-3.06-2.28-5.19-5.32-5.19zM206.88 399.34v29.47h-30.41v-29.47h30.41zm128.65 0v29.47h-30.41v-29.47h30.41zm-11.54-158.19c8.75 0 15.84 7.1 15.84 15.84 0 8.75-7.09 15.84-15.84 15.84s-15.84-7.09-15.84-15.84c0-8.74 7.09-15.84 15.84-15.84zm38.68 68.4H149.33c-2.99 0-5.32 2.14-5.32 5.19v63.31c0 2.92 2.4 5.32 5.32 5.32h213.34c2.9 0 5.32-2.41 5.32-5.32v-63.31c0-3.13-2.33-5.19-5.32-5.19zM166.6 329.16h13.31v34.47H166.6v-34.47zm36.82 0h13.32v34.47h-13.32v-34.47zm36.82 0h13.32v34.47h-13.32v-34.47zm-73.64-90.93h13.31v34.47H166.6v-34.47zm36.82 0h13.32v34.47h-13.32v-34.47zm36.82 0h13.32v34.47h-13.32v-34.47z"/></svg>