<svg id="Layer_1" data-name="Layer 1" xmlns="http://www.w3.org/2000/svg" viewBox="0 0 122.88 122.49"><defs><style>.cls-1{fill:#39b54a;}</style></defs><title>customizable</title><path d="M82.25,19c-1-.5-2.06-1-3.16-1.4-2-.79-3.88-1.46-5.9-2l-.38-9.88A6,6,0,0,0,71,1.53,5.59,5.59,0,0,0,66.68,0L54.29.57a6.11,6.11,0,0,0-4.11,1.88,5.64,5.64,0,0,0-1.62,4.27l.38,9A38.3,38.3,0,0,0,43,17.88a48.8,48.8,0,0,0-5.49,2.81L30.06,14a5.51,5.51,0,0,0-4.17-1.61,6,6,0,0,0-4.12,2l-8.32,9a5.78,5.78,0,0,0,.35,8.39L20.48,38a36.35,36.35,0,0,0-2.74,5.6c-.79,2-1.46,3.88-2,5.91l-9.87.37C-2.57,50.3.5,62.65.76,68.37a6.18,6.18,0,0,0,1.84,4.1,5.64,5.64,0,0,0,4.28,1.62l9-.37A40.5,40.5,0,0,0,18,79.65c.81,1.89,1.82,3.78,2.8,5.6L14.1,92.6a5.47,5.47,0,0,0-1.6,4.17,6,6,0,0,0,1.94,4.12l9.13,8.4a5.7,5.7,0,0,0,4.29,1.52,6.37,6.37,0,0,0,4.2-1.83l6.24-6.78a35.91,35.91,0,0,0,5.6,2.74c2,.79,3.87,1.46,5.9,2l.37,9.87A6.11,6.11,0,0,0,52,121a5.58,5.58,0,0,0,4.29,1.51l12.39-.56a6.16,6.16,0,0,0,4.1-1.84,5.64,5.64,0,0,0,1.62-4.28l-.38-9A38.59,38.59,0,0,0,80,104.65a56.23,56.23,0,0,0,5.6-2.8l7.35,6.73a5.64,5.64,0,0,0,4.28,1.62,5.82,5.82,0,0,0,4.12-1.94l8.4-9.13a5.7,5.7,0,0,0,1.52-4.29,6.33,6.33,0,0,0-1.86-4.21l-6.8-6.14a35.91,35.91,0,0,0,2.74-5.6c.79-2,1.46-3.87,2.05-5.9l9.87-.37a5.94,5.94,0,0,0,4.11-1.88,5.59,5.59,0,0,0,1.52-4.29l-.57-12.39a6.11,6.11,0,0,0-1.84-4.1,5.64,5.64,0,0,0-4.27-1.62l-9,.38A53,53,0,0,0,105,42.79l-1.3-2.56-2.23,2.91c-2.06,2.72-4,5.39-5.87,8a35.13,35.13,0,0,1,.89,4,37.06,37.06,0,0,1-.31,14.27A37.83,37.83,0,0,1,90.7,81.94a37.63,37.63,0,0,1-10,9.53,33.42,33.42,0,0,1-13.19,5,37.06,37.06,0,0,1-14.27-.31A37.83,37.83,0,0,1,40.67,90.7a37.63,37.63,0,0,1-9.53-10,33.36,33.36,0,0,1-5.05-13.19,37.06,37.06,0,0,1,.31-14.27,37.62,37.62,0,0,1,5.51-12.57,37.63,37.63,0,0,1,10-9.53,34.4,34.4,0,0,1,13.18-5.05h0a37.12,37.12,0,0,1,14.28.31,38.23,38.23,0,0,1,4.53,1.37c2.48-2.71,5.46-5.89,8.35-8.82Z"/><path class="cls-1" d="M38.22,49.86l12-.16.9.24A46.06,46.06,0,0,1,62.42,59,173.31,173.31,0,0,1,76.2,39.83c3.35-4,19.08-21.24,22.93-22.73l9.52,2.2L106,22.24c-8.14,9.05-16.75,20.88-23.42,30.52a273,273,0,0,0-18,29.86L63,85.81l-1.52-3.25A78.44,78.44,0,0,0,51.31,66.11a66.32,66.32,0,0,0-14.08-13l1-3.22Z"/></svg>