<svg xmlns="http://www.w3.org/2000/svg" shape-rendering="geometricPrecision" text-rendering="geometricPrecision" image-rendering="optimizeQuality" fill-rule="evenodd" clip-rule="evenodd" viewBox="0 0 512 411.23"><path d="m242.22 239.58 264.13.06c3.11 0 5.65 2.64 5.65 5.65v21.24c0 3.01-2.64 5.65-5.65 5.65l-264.13-.06c-3.01 0-5.65-2.54-5.65-5.65v-21.24c0-3.11 2.54-5.65 5.65-5.65zM8.39 236.54H166.3c4.61 0 8.39 3.77 8.39 8.38v157.92c0 4.61-3.78 8.39-8.39 8.39H8.39c-4.62 0-8.39-3.78-8.39-8.39V244.92c0-4.61 3.77-8.38 8.39-8.38zM8.39 0H166.3c4.61 0 8.39 3.77 8.39 8.39V166.3c0 4.61-3.78 8.39-8.39 8.39H8.39c-4.62 0-8.39-3.78-8.39-8.39V8.39C0 3.77 3.77 0 8.39 0zm233.83 71.05 264.13.05c3.11 0 5.65 2.64 5.65 5.65v21.24c0 3.01-2.64 5.65-5.65 5.65l-264.13-.06c-3.01 0-5.65-2.53-5.65-5.65V76.7c0-3.12 2.54-5.65 5.65-5.65zm0 68.01 264.13.05c3.11 0 5.65 2.64 5.65 5.65V166c0 3.01-2.64 5.65-5.65 5.65l-264.13-.06c-3.01 0-5.65-2.53-5.65-5.65V144.7c0-3.11 2.54-5.64 5.65-5.64zm0-139.06 264.13.06c3.11 0 5.65 2.63 5.65 5.64v21.24c0 3.01-2.64 5.65-5.65 5.65l-264.13-.05c-3.01 0-5.65-2.54-5.65-5.65V5.65c0-3.11 2.54-5.65 5.65-5.65zm0 310.63 264.13.05c3.11 0 5.65 2.64 5.65 5.65v21.24c0 3.01-2.64 5.65-5.65 5.65l-264.13-.05c-3.01 0-5.65-2.54-5.65-5.65v-21.24c0-3.11 2.54-5.65 5.65-5.65zm0 68.01 264.13.05c3.11 0 5.65 2.64 5.65 5.65v21.24c0 3.01-2.64 5.65-5.65 5.65l-264.13-.05c-3.01 0-5.65-2.54-5.65-5.65v-21.24c0-3.11 2.54-5.65 5.65-5.65z"/></svg>