<svg xmlns="http://www.w3.org/2000/svg" shape-rendering="geometricPrecision" text-rendering="geometricPrecision" image-rendering="optimizeQuality" fill-rule="evenodd" clip-rule="evenodd" viewBox="0 0 267 512.45"><path fill-rule="nonzero" d="M133.5 490.89c30.81 0 58.79-12.59 79.05-32.85 20.3-20.29 32.89-48.28 32.89-79.09V227.74c0-30.8-12.59-58.79-32.85-79.05-20.3-20.3-48.28-32.89-79.09-32.89-30.81 0-58.8 12.59-79.05 32.85-20.31 20.3-32.89 48.29-32.89 79.09v151.21c0 30.81 12.58 58.8 32.85 79.05 20.29 20.3 48.28 32.89 79.09 32.89zM83.55 49.9 133.44 0l49.98 49.9-15.16 15.23-34.77-34.71-34.7 34.71L83.55 49.9zm49.95 146.13c12.5 0 22.73 10.22 22.73 22.73v30.34c0 12.5-10.23 22.73-22.73 22.73s-22.73-10.23-22.73-22.73v-30.34c0-12.51 10.23-22.73 22.73-22.73zm0 316.42c-36.66 0-70.03-15.01-94.23-39.19l-.06-.06C15.03 449 0 415.62 0 378.95V227.74c0-36.66 15.01-70.03 39.19-94.22l.06-.07c24.2-24.18 57.58-39.21 94.25-39.21 36.66 0 70.03 15.02 94.22 39.19l.07.06c24.18 24.2 39.21 57.58 39.21 94.25v151.21c0 36.66-15.01 70.03-39.19 94.23l-.06.06c-24.2 24.18-57.58 39.21-94.25 39.21z"/></svg>