<svg id="Layer_1" data-name="Layer 1" xmlns="http://www.w3.org/2000/svg" viewBox="0 0 122.88 101.91"><defs><style>.cls-1{fill:#141414;}.cls-2{fill:#fe0000;}</style></defs><title>speed</title><path class="cls-1" d="M44,80.26A42.1,42.1,0,0,1,77.89,17.83V10.77c0-.11,0-.21,0-.32H70A2.35,2.35,0,0,1,67.67,8.1V2.35A2.36,2.36,0,0,1,70,0H93.71a2.36,2.36,0,0,1,2.35,2.35V8.1a2.35,2.35,0,0,1-2.35,2.35H85.83c0,.11,0,.21,0,.32V18h0A42.09,42.09,0,1,1,44,80.26ZM84.17,53.53a7.14,7.14,0,1,1-6.76,0V37.18a3.38,3.38,0,1,1,6.76,0V53.53Zm34.42-22.78c1.64-3.9,1.44-8-.89-10.72-2.81-3.28-7.88-3.66-12.59-1.35a67.74,67.74,0,0,1,13.48,12.07Zm-75.6,0c-1.63-3.9-1.44-8,.9-10.72,2.81-3.28,7.88-3.66,12.59-1.35A68.07,68.07,0,0,0,43,30.75Zm3.59,38a35.51,35.51,0,1,0-.45-15.78,35.81,35.81,0,0,0,.45,15.78Z"/><path class="cls-2" d="M12.92,44.1a3.38,3.38,0,0,1,0-6.76H31a3.38,3.38,0,1,1,0,6.76Z"/><path class="cls-2" d="M3.38,63.46a3.38,3.38,0,0,1,0-6.76h24a3.38,3.38,0,1,1,0,6.76Z"/><path class="cls-2" d="M13.09,83.33a3.38,3.38,0,1,1,0-6.76H31.3a3.38,3.38,0,0,1,0,6.76Z"/></svg>