<svg xmlns="http://www.w3.org/2000/svg" shape-rendering="geometricPrecision" text-rendering="geometricPrecision" image-rendering="optimizeQuality" fill-rule="evenodd" clip-rule="evenodd" viewBox="0 0 512 213.56"><path fill-rule="nonzero" d="M83.89 0h293.09c23.07 0 44.06 9.44 59.26 24.64a84.708 84.708 0 0 1 17.9 26.4c-4.38-.66-8.66.17-12.33 2.11a72.311 72.311 0 0 0-14.13-19.96c-13.01-13.01-30.96-21.09-50.7-21.09H83.89c-19.73 0-37.68 8.08-50.7 21.09C20.18 46.21 12.1 64.16 12.1 83.89c0 19.74 8.08 37.69 21.09 50.71 13.02 13.01 30.97 21.09 50.7 21.09h293.09c1.98 0 3.95-.08 5.9-.24l-1.39 1c-.82.49-1.59 1.06-2.32 1.71a20.139 20.139 0 0 0-6.27 9.63H83.89c-23.07 0-44.05-9.44-59.25-24.64C9.44 127.95 0 106.97 0 83.89c0-23.07 9.44-44.05 24.64-59.25C39.84 9.44 60.82 0 83.89 0zM99.1 106.72l2.12-11.95c4.65 1.16 8.82 1.74 12.53 1.74 3.71 0 6.7-.15 8.97-.45v-4.33l-6.81-.6c-6.16-.56-10.38-2.03-12.68-4.43-2.3-2.4-3.44-5.95-3.44-10.64 0-6.46 1.4-10.9 4.2-13.32 2.8-2.43 7.55-3.64 14.27-3.64 6.71 0 12.76.64 18.17 1.9l-1.9 11.57c-4.69-.76-8.45-1.14-11.28-1.14-2.82 0-5.22.13-7.19.38v4.25l5.45.53c6.61.66 11.18 2.23 13.71 4.73 2.52 2.5 3.78 5.97 3.78 10.41 0 3.18-.43 5.87-1.29 8.07-.86 2.19-1.88 3.86-3.06 4.99-1.19 1.14-2.87 2.01-5.04 2.61-2.17.61-4.07.97-5.71 1.1-1.65.13-3.83.19-6.55.19-6.56 0-12.64-.65-18.25-1.97zm61.29-46.48v35.5h5.37c1.92 0 3.23-.23 3.94-.71s1.06-1.58 1.06-3.3V60.24h15.14v26.57c0 4.29-.28 7.75-.83 10.37-.56 2.63-1.59 4.85-3.1 6.67-1.52 1.81-3.59 3.07-6.21 3.78-2.63.71-6.03 1.06-10.22 1.06s-7.59-.35-10.18-1.06c-2.61-.71-4.66-1.97-6.18-3.78-1.51-1.82-2.54-4.04-3.1-6.67-.56-2.62-.83-6.08-.83-10.37V60.24h15.14zm33.65 47.32V60.24h24.53c4.54 0 7.79.88 9.73 2.65 1.94 1.76 2.91 4.34 2.91 7.72s-.62 5.99-1.85 7.84c-1.24 1.84-2.89 3.04-4.96 3.59v.46c6.11 1.06 9.16 5.22 9.16 12.49 0 3.78-1.01 6.83-3.03 9.12-2.02 2.3-5.12 3.45-9.31 3.45h-27.18zm21.05-19.12h-6.45v8.26h6.37c2.12 0 3.18-1.56 3.18-4.13 0-2.58-1.04-4.13-3.1-4.13zm-1.14-18.1h-5.31v7.58h5.23c1.92 0 2.88-1.71 2.88-4.06 0-2.34-.94-3.52-2.8-3.52zm40.54 37.22h-15.82l2.88-47.32h19.76l5.9 24.07h.53l5.91-24.07h19.76l2.87 47.32h-15.82l-.91-22.94h-.53l-5.75 22.94h-11.58l-5.83-22.94h-.46l-.91 22.94zm49.17 0V60.24h15.15v47.32h-15.15zm58.11-35.21h-10.98v35.21h-15.14V72.35h-10.98V60.24h37.1v12.11zm124.38 140.33c-.66.37-1.35.63-2.05.76l-.14.02c-.72.12-1.44.13-2.14.02-.81-.13-1.62-.42-2.33-.85-.69-.41-1.32-.98-1.82-1.66l-14.21-19.59-9.88 13.66c-.81 1.12-1.7 2.13-2.62 2.97-5.89 5.4-13.19 4.03-14.71-4.67l-13.71-85.48c-.8-3.81 3.07-6.84 6.62-5.28 21.13 8.44 55.52 28.19 77.32 40.06 10.47 5.74 4.26 14.41-3.82 16.96-4.9 1.87-11 3.47-16.1 5.09l14.17 19.73c.46.67.79 1.41.96 2.17.18.82.2 1.66.07 2.47-.13.79-.41 1.58-.82 2.29a6.52 6.52 0 0 1-1.58 1.83c-3.81 2.71-9.39 7.43-13.21 9.5zm-3.11-6.62 11.29-8.16c-3.66-5-16.04-20.13-17.75-24.64-.6-1.89.48-3.94 2.37-4.53 6.86-2.12 14.04-4.01 20.97-5.97 1.59-.51 3.01-1.19 4.09-2.49-.55-.56-.88-.82-1.58-1.21l-71.17-36.94 12.66 78.99c.04.22.46 1.92.56 2.03 1.69-1.01 2.53-1.64 3.74-3.3 2.46-3.67 9.66-16.04 12.48-18.17 1.61-1.1 3.84-.74 4.99.85l17.35 23.54zM419.42 94.43c1.7 2.36 1.12 5.6-1.17 7.26-2.36 1.7-5.6 1.12-7.26-1.17L398.7 83.5a5.2 5.2 0 0 1 1.17-7.26 5.211 5.211 0 0 1 7.26 1.18l12.29 17.01zm-13.25 62.6a5.2 5.2 0 0 1 7.26 1.17c1.69 2.35 1.12 5.59-1.18 7.25l-17.01 12.29a5.2 5.2 0 0 1-7.26-1.17c-1.7-2.35-1.12-5.6 1.17-7.26l17.02-12.28zm-6.18-33.92c2.83.45 4.77 3.13 4.31 5.96-.46 2.83-3.14 4.77-5.96 4.31l-20.68-3.39c-2.83-.45-4.76-3.13-4.31-5.96.46-2.83 3.14-4.76 5.97-4.31l20.67 3.39zm79.79-6.41c-2.35 1.69-5.6 1.12-7.26-1.18-1.7-2.35-1.12-5.59 1.17-7.25l17.02-12.28c2.36-1.71 5.6-1.13 7.26 1.16a5.211 5.211 0 0 1-1.18 7.26l-17.01 12.29zm-26.74-24.24c-.45 2.83-3.14 4.77-5.96 4.31-2.83-.45-4.77-3.14-4.31-5.96l3.29-20.69c.46-2.83 3.14-4.77 5.97-4.31 2.83.46 4.76 3.14 4.3 5.96l-3.29 20.69z"/></svg>