<svg xmlns="http://www.w3.org/2000/svg" shape-rendering="geometricPrecision" text-rendering="geometricPrecision" image-rendering="optimizeQuality" fill-rule="evenodd" clip-rule="evenodd" viewBox="0 0 424 511.65"><path d="M28.21 53.37h67.64v43.72H66.68c-13.03 0-23.82 10.8-23.82 23.82v326.57c0 13.04 10.73 23.82 23.82 23.82h290.64c13.09 0 23.82-10.75 23.82-23.82V120.91c0-13.08-10.79-23.82-23.82-23.82h-29.17V53.37h67.64c15.52 0 28.21 12.77 28.21 28.21v401.86c0 15.46-12.75 28.21-28.21 28.21H28.21C12.75 511.65 0 498.96 0 483.44V81.58c0-15.52 12.69-28.21 28.21-28.21zM212 379.45H111.25c-1.64 0-2.98-1.33-2.98-2.98 0-.85.12-1.68.33-2.52 4.77-37.82 24.32-38.49 45.36-43.98 6.29-1.65 17.76-5.14 24.44-10.99 3.66-3.23 5.9-7.17 5.01-11.92-5.09-4.71-8.99-9.8-9.88-19.52l-.6.01c-1.42-.02-2.78-.34-4.05-1.06-2.8-1.59-4.34-4.65-5.08-8.14-.94-4.41-.63-9.64-.17-12.96l.17-.64c.98-2.73 2.19-4.21 3.73-4.85l.04-.02c-.7-13.13 1.52-33.93-11.97-38.01 26.62-32.9 57.32-50.79 80.36-21.53 25.68 1.35 37.13 39.2 21.19 59.56h-.68c1.54.64 2.75 2.12 3.73 4.85l.17.64c.46 3.32.77 8.55-.17 12.96-.74 3.49-2.28 6.55-5.08 8.14-1.27.72-2.63 1.04-4.05 1.06l-.6-.01c-.89 9.72-4.79 14.81-9.88 19.52-.89 4.75 1.35 8.69 5.01 11.92 6.68 5.85 18.15 9.34 24.44 10.99 21.04 5.49 40.59 6.16 45.36 43.98.21.84.33 1.67.33 2.52 0 1.65-1.34 2.98-2.98 2.98H212zM134.93 39.4h31.97C169.6 17.18 187.53 0 209.28 0c21.6 0 39.44 16.95 42.33 38.93l37.42.47c2.62 0 4.71 2.09 4.71 4.7v63.84c0 2.6-2.09 4.7-4.71 4.7H134.97c-2.56 0-4.7-2.1-4.7-4.7V44.1c-.05-2.61 2.05-4.7 4.66-4.7zm56.84 19.33c2.89 3.96 7.03 7.86 11.41 9.87 3.58 1.07 7.49 1.17 11.13.18 5.68-2.61 10.9-8.89 13.31-14.15.29-1.49.48-3.03.48-4.71 0-11.13-8.53-20.16-19.06-20.16-10.52 0-19.04 9.03-19.04 20.16.05 3.36.65 6.34 1.77 8.81z"/></svg>