<svg id="Layer_1" data-name="Layer 1" xmlns="http://www.w3.org/2000/svg" viewBox="0 0 121.7 122.88"><title>zoom-5x</title><path d="M53.62,0A53.63,53.63,0,0,1,98.5,83l23.2,25.3-16,14.62L83.32,98.26A53.62,53.62,0,1,1,53.62,0ZM26.55,67.93l1.3-7.62a33,33,0,0,0,7.68,1.06A42.42,42.42,0,0,0,41,61.09v-2.3l-3.47-.37q-5.72-.6-7.77-2c-1.37-.9-2.06-2.53-2.06-4.87q0-.51.46-12h21l-.69,7.94-10.95-.65v2.36l2.73.32c4,.5,6.82,1.49,8.35,3a8.31,8.31,0,0,1,2.31,6.26,13.59,13.59,0,0,1-.78,4.91,8.38,8.38,0,0,1-1.87,3,7.23,7.23,0,0,1-3.07,1.59,18.68,18.68,0,0,1-3.49.67q-1.5.12-4,.12a48.82,48.82,0,0,1-11.13-1.2ZM63.83,39.58,67,47.29h.46l3.18-7.71h10L74.26,53.52l6.42,14.91H70.43L67,60.12h-.41l-3.42,8.31H53.35L59.63,53.8,53.35,39.58ZM87.3,19.94a47.63,47.63,0,1,0,14,33.68,47.49,47.49,0,0,0-14-33.68Z"/></svg>