<svg id="Layer_1" data-name="Layer 1" xmlns="http://www.w3.org/2000/svg" viewBox="0 0 121.7 122.88"><title>zoom-3x</title><path d="M53.62,0A53.63,53.63,0,0,1,98.5,83l23.2,25.3-16,14.62L83.32,98.26A53.62,53.62,0,1,1,53.62,0ZM64,39.58l3.19,7.71h.46l3.18-7.71h10L74.43,53.52l6.41,14.91H70.59l-3.46-8.31h-.41L63.3,68.43H53.51L59.79,53.8,53.51,39.58ZM40.89,49.74v-3a29.77,29.77,0,0,0-4.48-.23,39.19,39.19,0,0,0-7.71,1l-1.2-6.83a36.53,36.53,0,0,1,10.89-1.75,27.6,27.6,0,0,1,6.56.55,8.37,8.37,0,0,1,3,1.34,6.74,6.74,0,0,1,2.12,5.45,7,7,0,0,1-3.83,6.65v.23A6.86,6.86,0,0,1,50.81,60a10.25,10.25,0,0,1-.76,4.17,7.13,7.13,0,0,1-1.91,2.68,8.69,8.69,0,0,1-3,1.5,31.13,31.13,0,0,1-7.92.79,44.78,44.78,0,0,1-10.23-1.2l1.3-7.62a32.33,32.33,0,0,0,7.43,1.06,41,41,0,0,0,5.22-.28v-3L33,57.35V50.66l7.94-.92ZM87.3,19.94a47.63,47.63,0,1,0,14,33.68,47.49,47.49,0,0,0-14-33.68Z"/></svg>