<svg xmlns="http://www.w3.org/2000/svg" shape-rendering="geometricPrecision" text-rendering="geometricPrecision" image-rendering="optimizeQuality" fill-rule="evenodd" clip-rule="evenodd" viewBox="0 0 512 500.38"><path fill-rule="nonzero" d="m262.15 281.68 101.35-15.51c3.8-.57 7.81.46 10.93 3.18 5.65 4.93 6.25 13.51 1.33 19.16L195.24 495.74l-1.6 1.53c-5.76 4.77-14.32 3.96-19.09-1.8L3.08 288.24C.67 285.25-.51 281.28.21 277.2c1.32-7.34 8.36-12.23 15.7-10.92l85.9 15.46c2.1-17.97 6.57-37.61 13.36-57.82 17.7-52.68 51.45-110.05 100.41-153.44C265.02 26.66 329.88-3.02 409.34.25c28.95 1.17 59.78 6.76 92.41 17.64 5.29 1.35 9.47 5.83 10.15 11.57.88 7.43-4.44 14.19-11.88 15.07-100.17 11.94-158.24 50.57-191.94 98.33-30.15 42.69-41.4 93.26-45.93 138.82z"/></svg>