<svg xmlns="http://www.w3.org/2000/svg" shape-rendering="geometricPrecision" text-rendering="geometricPrecision" image-rendering="optimizeQuality" fill-rule="evenodd" clip-rule="evenodd" viewBox="0 0 512 500.38"><path fill-rule="nonzero" d="m148.51 266.17 101.34 15.51c-4.53-45.55-15.79-96.12-45.92-138.82-33.7-47.76-91.78-86.39-191.95-98.33C4.54 43.65-.78 36.89.1 29.46c.68-5.74 4.86-10.22 10.14-11.57C42.88 7.01 73.71 1.42 102.65.25c79.47-3.27 144.33 26.41 193.78 70.23 48.96 43.39 82.71 100.76 100.41 153.45 6.79 20.19 11.26 39.83 13.36 57.82l85.89-15.47c7.34-1.31 14.38 3.58 15.7 10.92.72 4.08-.46 8.05-2.9 11.01L337.46 495.47c-4.77 5.76-13.33 6.57-19.09 1.8l-1.59-1.54-180.53-207.22c-4.92-5.65-4.32-14.23 1.33-19.16 3.12-2.72 7.13-3.75 10.93-3.18z"/></svg>