<svg xmlns="http://www.w3.org/2000/svg" shape-rendering="geometricPrecision" text-rendering="geometricPrecision" image-rendering="optimizeQuality" fill-rule="evenodd" clip-rule="evenodd" viewBox="0 0 500 511.61"><path fill-rule="nonzero" d="m218.54 261.95 15.5 101.27c.56 3.8-.47 7.81-3.19 10.93-4.92 5.64-13.5 6.24-19.14 1.32L4.64 195.09l-1.53-1.59c-4.77-5.76-3.96-14.32 1.8-19.08L211.98 3.08c2.99-2.41 6.96-3.59 11.03-2.87 7.34 1.31 12.22 8.35 10.91 15.69l-15.44 85.83c17.97 2.09 37.59 6.57 57.77 13.36 52.66 17.69 109.96 51.41 153.32 100.33 43.79 49.39 73.45 114.21 70.18 193.61-1.17 28.92-6.76 59.73-17.63 92.34-1.34 5.29-5.82 9.46-11.55 10.14-7.44.88-14.19-4.44-15.06-11.87-11.94-100.09-50.53-158.11-98.25-191.8-42.66-30.12-93.19-41.36-138.72-45.89z"/></svg>