<svg xmlns="http://www.w3.org/2000/svg" shape-rendering="geometricPrecision" text-rendering="geometricPrecision" image-rendering="optimizeQuality" fill-rule="evenodd" clip-rule="evenodd" viewBox="0 0 512 512"><path fill-rule="nonzero" d="M346.97 416.88 95.13 165.03c-9.91 9.92-26.62 26.63-36.54 36.55-4.51 4.5-8.76 7.43-12.76 9.03-5.61 2.22-10.66 2.03-15.15-.09-4.13-1.92-7.32-5.29-9.68-9.67-2.61-4.87-4.28-11.22-5.1-18.02L.32 28.84C-1.67 12.1 5.55-.87 24.01.05l.82.06c56.8 6.84 110.46 10.6 167.22 17.47 1.01.13 1.98.41 2.96.88 8.83 4.34 13.93 9.96 15.28 16.73 1.39 6.74-1.1 13.51-7.34 20.31l-38.62 38.63 253.54 253.54 38.63-38.62c6.8-6.23 13.57-8.73 20.31-7.34 6.78 1.36 12.39 6.45 16.73 15.28.47.98.75 1.95.88 2.96 6.87 56.76 10.64 110.43 17.47 167.22l.06.82c.93 18.48-12.04 25.69-28.79 23.69L329.17 496.1c-6.8-.82-13.14-2.48-18.02-5.11-4.38-2.36-7.74-5.53-9.66-9.66-2.13-4.51-2.31-9.54-.1-15.16 1.6-4 4.54-8.24 9.04-12.75l36.54-36.54z"/></svg>