<svg xmlns="http://www.w3.org/2000/svg" shape-rendering="geometricPrecision" text-rendering="geometricPrecision" image-rendering="optimizeQuality" fill-rule="evenodd" clip-rule="evenodd" viewBox="0 0 428 512.54"><path fill-rule="nonzero" d="m72.21 334.61 319.82 150.95V334.61H72.21zm-56.56-94.06c-18.2 0-21.91 26.27-3.74 31.01 1.29.28 2.4.45 3.74.45h19.23c18.2 0 21.91-26.27 3.74-31.01-1.29-.28-2.4-.45-3.74-.45H15.65zm82.14 0c-18.2 0-21.91 26.27-3.74 31.01 1.29.28 2.4.45 3.74.45h31.46c18.19 0 21.91-26.27 3.74-31.01-1.29-.28-2.4-.45-3.74-.45H97.79zm94.37 0c-18.2 0-21.91 26.27-3.74 31.01 1.29.28 2.4.45 3.74.45h31.45c18.2 0 21.92-26.27 3.74-31.01-1.28-.28-2.39-.45-3.74-.45h-31.45zm94.37 0c-18.2 0-21.92 26.27-3.74 31.01 1.28.28 2.39.45 3.74.45h31.45c18.2 0 21.91-26.27 3.74-31.01-1.29-.28-2.4-.45-3.74-.45h-31.45zm94.36 0c-18.19 0-21.91 26.27-3.74 31.01 1.29.28 2.4.45 3.74.45h31.46c18.2 0 21.91-26.27 3.74-31.01-1.29-.28-2.4-.45-3.74-.45h-31.46zM21.02 178.98 397.41 1.33c1.51-.85 3.25-1.33 5.1-1.33C408.3 0 413 4.7 413 10.49v177.96c0 5.79-4.7 10.48-10.49 10.48H25.49c-3.92-.03-7.68-2.25-9.47-6.03-2.46-5.22-.22-11.46 5-13.92zm377.03 332.56L21.69 333.9c-3.91-1.53-6.69-5.33-6.69-9.78 0-5.79 4.7-10.48 10.49-10.48h377.02c5.79 0 10.49 4.69 10.49 10.48v177.95c-.02 1.5-.35 3.02-1.03 4.47-2.46 5.22-8.7 7.46-13.92 5z"/></svg>