<svg xmlns="http://www.w3.org/2000/svg" shape-rendering="geometricPrecision" text-rendering="geometricPrecision" image-rendering="optimizeQuality" fill-rule="evenodd" clip-rule="evenodd" viewBox="0 0 512 459.83"><path fill-rule="nonzero" d="M325.93 296.7H200.11v79.4c-.52 11.72-4.38 20.04-11.71 24.86-19.52 13.02-39.78-3.82-52.44-17.13L10.85 252.37c-14.47-13.1-14.47-31.77 0-44.85l128.81-134.8c12.01-12.56 30.73-25.82 48.74-13.81 7.33 4.82 11.19 13.14 11.71 24.86v79.4h125.82V296.7zM405.82 0h79.94C499.93 0 512 12.07 512 26.24v407.35c0 14.18-11.8 26.24-26.24 26.24h-79.94c-14.46 0-26.24-11.8-26.24-26.24V26.24C379.58 11.8 391.88 0 405.82 0z"/></svg>