<svg xmlns="http://www.w3.org/2000/svg" shape-rendering="geometricPrecision" text-rendering="geometricPrecision" image-rendering="optimizeQuality" fill-rule="evenodd" clip-rule="evenodd" viewBox="0 0 460 512.19"><path fill-rule="nonzero" d="M296.81 186.14v125.87h79.43c11.72.52 20.05 4.37 24.87 11.7 13.03 19.54-3.82 39.8-17.14 52.47L252.46 501.33c-13.11 14.47-31.78 14.47-44.86 0L72.75 372.47c-12.57-12.01-25.83-30.74-13.82-48.76 4.82-7.33 13.15-11.18 24.87-11.7h79.43V186.14h133.58zM0 106.22V26.25C0 12.07 12.07 0 26.25 0h407.5C447.93 0 460 11.8 460 26.25v79.97c0 14.47-11.8 26.25-26.25 26.25H26.25C11.8 132.47 0 120.17 0 106.22z"/></svg>