<svg xmlns="http://www.w3.org/2000/svg" shape-rendering="geometricPrecision" text-rendering="geometricPrecision" image-rendering="optimizeQuality" fill-rule="evenodd" clip-rule="evenodd" viewBox="0 0 460 512.19"><path fill-rule="nonzero" d="M296.81 326.04V200.18h79.43c11.72-.52 20.05-4.38 24.87-11.71 13.03-19.53-3.82-39.8-17.14-52.46L252.46 10.85c-13.11-14.47-31.78-14.47-44.86 0L72.75 139.71c-12.57 12.01-25.83 30.74-13.82 48.76 4.82 7.33 13.15 11.19 24.87 11.71h79.43v125.86h133.58zM0 405.97v79.96c0 14.19 12.07 26.26 26.25 26.26h407.5c14.18 0 26.25-11.81 26.25-26.26v-79.96c0-14.47-11.8-26.25-26.25-26.25H26.25C11.8 379.72 0 392.02 0 405.97z"/></svg>