<svg xmlns="http://www.w3.org/2000/svg" shape-rendering="geometricPrecision" text-rendering="geometricPrecision" image-rendering="optimizeQuality" fill-rule="evenodd" clip-rule="evenodd" viewBox="0 0 512 459.83"><path fill-rule="nonzero" d="M186.07 296.7h125.82v79.4c.52 11.72 4.38 20.04 11.71 24.86 19.52 13.02 39.78-3.82 52.44-17.13l125.11-131.46c14.47-13.1 14.47-31.77 0-44.85L372.34 72.72c-12.01-12.56-30.73-25.82-48.74-13.81-7.33 4.82-11.19 13.14-11.71 24.86v79.4H186.07V296.7zM106.18 0H26.24C12.07 0 0 12.07 0 26.24v407.35c0 14.18 11.8 26.24 26.24 26.24h79.94c14.46 0 26.24-11.8 26.24-26.24V26.24C132.42 11.8 120.12 0 106.18 0z"/></svg>