<svg xmlns="http://www.w3.org/2000/svg" shape-rendering="geometricPrecision" text-rendering="geometricPrecision" image-rendering="optimizeQuality" fill-rule="evenodd" clip-rule="evenodd" viewBox="0 0 512 512"><path d="M74.99 74.98C121.32 28.66 185.33 0 256 0c70.68 0 134.68 28.66 181.01 74.98C483.33 121.31 512 185.32 512 256c0 70.67-28.66 134.68-74.98 181.01C390.69 483.33 326.68 512 256 512s-134.68-28.67-181.01-74.99C28.68 390.62 0 326.61 0 256c0-70.68 28.67-134.69 74.99-181.02zm131.05 79.41c7.48-3.28 15.3-5.79 23.31-7.49l.66-.13c8.46-1.73 17.11-2.64 25.8-2.64 34.79 0 66.32 14.14 89.15 36.96 22.9 22.83 37.04 54.4 37.04 89.24 0 34.78-14.15 66.34-37.01 89.19-22.79 22.87-54.34 37-89.18 37-32.78 0-62.71-12.58-85.19-33.19-22.67-20.77-37.76-49.72-40.55-82.06-.83-9.71 6.36-18.27 16.07-19.11 9.7-.83 18.27 6.36 19.1 16.07 2.02 23.39 12.85 44.25 29.11 59.16 16.14 14.79 37.72 23.82 61.46 23.82 25.08 0 47.81-10.18 64.26-26.62 16.46-16.38 26.62-39.12 26.62-64.26 0-25.1-10.18-47.83-26.62-64.27-16.41-16.44-39.15-26.62-64.26-26.62-6.51 0-12.76.63-18.62 1.81l-.54.13c-6.11 1.3-11.95 3.19-17.35 5.63l18.36 7.4c9.02 3.61 13.4 13.88 9.79 22.9-3.61 9.02-13.88 13.4-22.9 9.79l-57.44-23.18c-9.03-3.61-13.4-13.88-9.79-22.9l22.09-54.75c3.61-9.02 13.88-13.4 22.9-9.79 9.02 3.61 13.4 13.88 9.79 22.9l-6.06 15.01z"/></svg>