<svg id="Layer_1" data-name="Layer 1" xmlns="http://www.w3.org/2000/svg" viewBox="0 0 77.56 122.88"><defs><style>.cls-1{fill-rule:evenodd;}</style></defs><title>5-speed-manual-transmission</title><path class="cls-1" d="M13.41,39.22V58H34V39.22a8.67,8.67,0,1,1,9.51,0V58H64.15V39.22a8.66,8.66,0,1,1,9.51,0V62.07a4.49,4.49,0,0,1,0,.64,4.58,4.58,0,0,1,0,.64V85.1a8.66,8.66,0,1,1-9.51,0V67.46H43.53V85.1a8.66,8.66,0,1,1-9.51,0V67.46H13.41V85.1a8.66,8.66,0,1,1-9.51,0V39.22a8.66,8.66,0,1,1,9.51,0Zm49.35,83.66v-16H69.6a7,7,0,0,1,1.94.26,3.64,3.64,0,0,1,1.53.87,4,4,0,0,1,1,1.65,9.33,9.33,0,0,1,.19,4.34,4.59,4.59,0,0,1-.47,1.24,3.06,3.06,0,0,1-.69.85,5.72,5.72,0,0,1-.85.61L75,122.88H70.78l-2.24-5.52h-1.6v5.52ZM66.94,114h1.9a1.8,1.8,0,0,0,.6-.09,1,1,0,0,0,.45-.32,1.35,1.35,0,0,0,.27-.55,3.69,3.69,0,0,0,.08-.81,3.5,3.5,0,0,0-.08-.79,1,1,0,0,0-.72-.78,1.8,1.8,0,0,0-.6-.09h-1.9V114Zm-27.2,8.85v-3H33.07l-.73-1.87L37,106.85h4.27l-3.93,9.53h2.42V114l.8-2.07h3.39v4.44h1.29v2.9l-1.29.64v3Zm-36.63,0v-3.32l5-5.1a8.63,8.63,0,0,0,.8-.88,3.81,3.81,0,0,0,.51-.8,1.87,1.87,0,0,0,.18-.8,1.47,1.47,0,0,0-.17-.74,1,1,0,0,0-.53-.42,2.64,2.64,0,0,0-.92-.13H3.37v-3.32c.7-.16,1.49-.31,2.36-.45a20.68,20.68,0,0,1,3-.2,7,7,0,0,1,3,.52,3,3,0,0,1,1.55,1.53,5.93,5.93,0,0,1,.47,2.48,6.4,6.4,0,0,1-.28,1.92,6.3,6.3,0,0,1-.81,1.62,12.23,12.23,0,0,1-1.29,1.51l-2.76,2.82H14.2v3.76ZM68.82,16.3a26.16,26.16,0,0,1-2.66-.15c-1-.09-1.92-.18-2.84-.29V12.54H69a1.41,1.41,0,0,0,.93-.23.87.87,0,0,0,.3-.53,3.79,3.79,0,0,0,0-.53v-.67a1.53,1.53,0,0,0-.2-.84.9.9,0,0,0-.79-.3h-1a1.11,1.11,0,0,0-.74.19.81.81,0,0,0-.27.56h-4l.45-10h10V3.89H67.4l-.11,2.44A1.87,1.87,0,0,1,68.18,6a7.13,7.13,0,0,1,1-.07h1.64a3.73,3.73,0,0,1,2.05.51,3.21,3.21,0,0,1,1.19,1.41,4.86,4.86,0,0,1,.39,2v2.35a4.22,4.22,0,0,1-.62,2.39A3.55,3.55,0,0,1,72,15.88a10.51,10.51,0,0,1-3.18.42Zm-29.2,0c-1.15,0-2.27-.06-3.35-.16a27.53,27.53,0,0,1-3-.43V12.35H38a7.33,7.33,0,0,0,1.31-.09,1.12,1.12,0,0,0,.63-.28.76.76,0,0,0,.17-.54V11a.92.92,0,0,0-.19-.62,1.19,1.19,0,0,0-.56-.36,3.28,3.28,0,0,0-.91-.14l-3.84-.17V6.5l3.65-.24A3.71,3.71,0,0,0,39.51,6a.69.69,0,0,0,.41-.69V5.12a.93.93,0,0,0-.43-.88A3.32,3.32,0,0,0,37.89,4h-4.4V.61c.94-.16,1.92-.3,3-.44A19.33,19.33,0,0,1,39.6,0,6.12,6.12,0,0,1,42,.47a3.31,3.31,0,0,1,1.54,1.34,4.33,4.33,0,0,1,.54,2.27V5.16a5.34,5.34,0,0,1-.09,1,2.82,2.82,0,0,1-.32.84,2.34,2.34,0,0,1-.56.66,3,3,0,0,1-.84.45,2.37,2.37,0,0,1,.9.48,3,3,0,0,1,.62.79,3.93,3.93,0,0,1,.38,1,5.25,5.25,0,0,1,.13,1.22v.62a3.68,3.68,0,0,1-1.24,3,5.19,5.19,0,0,1-3.42,1ZM7.84,16.17V4H5.3V1.3L8.32,0H12V16.17Z"/></svg>