<svg xmlns="http://www.w3.org/2000/svg" shape-rendering="geometricPrecision" text-rendering="geometricPrecision" image-rendering="optimizeQuality" fill-rule="evenodd" clip-rule="evenodd" viewBox="0 0 512 357.25"><path fill-rule="nonzero" d="M256 0c49.32 0 93.98 20 126.31 52.32 32.32 32.32 52.32 76.99 52.32 126.31 0 49.32-20 93.98-52.32 126.3-32.33 32.32-76.99 52.32-126.31 52.32-49.32 0-93.98-20-126.31-52.32-32.32-32.32-52.32-76.98-52.32-126.3 0-49.32 20-93.99 52.32-126.31C162.02 20 206.68 0 256 0zm76.22 201.29v-11.85c0-1.91-1.09-2.87-3.26-2.87h-12.51c-6.42 0-10.96-1.41-13.61-4.23-2.65-2.83-3.97-6.89-3.97-12.19v-17.19c0-10.77 6.33-16.16 19.02-16.16h17.85c12.68 0 19.02 5.42 19.02 16.16v8.22h-22.8v-5.23c0-1.91-1.12-2.86-3.26-2.86h-3.78c-2.17 0-3.25.95-3.25 2.86v12.38c0 1.91 1.08 2.87 3.25 2.87h12.25c6.43 0 11.01 1.34 13.74 4.04 2.74 2.69 4.11 6.64 4.11 11.85v17.2c0 10.77-6.34 16.16-19.02 16.16h-17.72c-12.75 0-19.16-5.39-19.16-16.16v-9.04h22.81v6.04c0 1.9 1.08 2.87 3.25 2.87h3.78c2.17 0 3.26-.96 3.26-2.87zm-64.23-33.09v-13.55c0-1.91-1.1-2.86-3.26-2.86h-11.78v19.28h11.78c2.17 0 3.26-.96 3.26-2.87zm0 34.4v-13.68c0-1.91-1.1-2.87-3.26-2.87h-11.78v19.42h11.78c2.17 0 3.26-.96 3.26-2.87zm-35.05-65.8h38.31c12.76 0 19.15 5.39 19.15 16.16v10.68c0 7.56-2.09 12.47-6.26 14.72 2.44 1.05 4.09 2.63 4.95 4.76.87 2.13 1.31 5.02 1.31 8.66v12.51c0 10.77-6.39 16.16-19.15 16.16h-38.31V136.8zm-28.14 83.65-2.61-12.51h-20.06l-2.74 12.51h-22.41l21.5-83.65h27.75l21.5 83.65H204.8zm-19.96-28.67h14.63l-7.18-30.09-7.45 30.09zM457.41 20.63c17.31 22.05 31.12 47.16 40.54 74.45 9.1 26.36 14.05 54.48 14.05 83.55 0 28.76-4.79 56.49-13.61 82.44-9.12 26.79-22.59 51.64-39.57 73.67l-33.77-26.08a212.786 212.786 0 0 0 32.87-61.3c7.3-21.48 11.27-44.6 11.27-68.73 0-24.58-4.06-48.02-11.54-69.67-7.76-22.48-19.29-43.37-33.86-61.91l33.62-26.42zM53.26 334.84c-17-22.03-30.49-46.89-39.62-73.72C4.8 235.16 0 207.41 0 178.63c0-29.28 5-57.56 14.18-84.02A256.305 256.305 0 0 1 55.2 19.98L88.64 46.4C74 64.9 62.36 85.88 54.48 108.58v.08c-7.56 21.77-11.67 45.32-11.67 69.97 0 24.15 3.97 47.29 11.29 68.78a212.606 212.606 0 0 0 32.93 61.35l-33.77 26.08zM352.04 82.59C327.46 58.01 293.51 42.81 256 42.81c-37.51 0-71.47 15.2-96.04 39.78-24.58 24.57-39.78 58.53-39.78 96.04 0 37.51 15.2 71.46 39.78 96.04 24.57 24.57 58.53 39.78 96.04 39.78 37.51 0 71.46-15.21 96.04-39.78 24.58-24.58 39.78-58.53 39.78-96.04 0-37.51-15.2-71.47-39.78-96.04z"/></svg>