<svg id="Layer_1" data-name="Layer 1" xmlns="http://www.w3.org/2000/svg" viewBox="0 0 122.88 99.59"><defs><style>.cls-1{fill-rule:evenodd;}</style></defs><title>bike-accident</title><path class="cls-1" d="M65.61,53.62c9.1-2.2,19.89-2.18,28.34-1.44-7.23,12.89-22.8,11.1-28.34,1.44ZM11.77,56.51l2-3.54L0,50.74l12.71-4.37L2,34.69l14.81,5.7L12.45,22l9.86,15.86,3.62-5.92,4.63,10.57A33.47,33.47,0,0,1,39.07,37l1.24,2.05A37.14,37.14,0,0,0,33.43,51a16.5,16.5,0,0,0,2.21,1.34l1.3-2.79a1.28,1.28,0,0,1,1-.73l.9-.19a2.1,2.1,0,0,1,.15-.3c.89-1.57,2.71-2,4.47-2.32,1.07-.23,2.28-.68,3.34-.29a1.87,1.87,0,0,1,1,2.78C47,50.28,46,50.22,44.33,50.65l-1.08.27A5.66,5.66,0,0,1,40,51l-1,.2-.94,2c3.84.94,7.37-.55,10.67-3.88A23.12,23.12,0,0,1,62.38,51.1a16.87,16.87,0,0,0,3.5,9.36c5.85,7.08,16.79,6.5,24.05,1.94a25.52,25.52,0,0,0,8.49-9.14,92.85,92.85,0,0,1,14.78,1l1.44,3.29C96.68,57.83,86,70.42,81.79,90H50.06c-2.12-12.34-8.1-20.4-16.59-25.7L35.79,66,34.2,69.66a16,16,0,1,1-10.77-1.77A50,50,0,0,0,9,72.25L7.86,70.1c4.78-4.33,12.11-7,22.86-7.38a57.42,57.42,0,0,0-11.87-4.53A53.67,53.67,0,0,1,29.17,43.78l-3.5-8-3.35,5.48-5.61-9,2.62,11L8.44,39.08l7.43,8.09L7.29,50.12l9.27,1.5-3.24,5.76-1.55-.87ZM97.83,0A7.67,7.67,0,1,1,91,8.49,7.67,7.67,0,0,1,97.83,0ZM95.4,16.76l-8.13-.33L83.7,14.81,76.38,9.27a3,3,0,0,0-3.7,4.34l5.23,5.32c2.78,2.84,2.35,2.93,6.24,3.9,2.23.55,4.86,1.09,7.34,1.46L86,35l-13.7-5.66c-1.69-.58-2.77-.15-4.44.72L54,38.76c-1.87,2.09.48,7.14,3.83,5.8l12.8-6,13.14,8.22c5.54,2.47,10,2,12.56-3.74l5.72-11.72c.94.35,1.64.55,2,1.37L99.91,45.26c-1.08,3.51,4.08,6,5.15,2.53l6.43-13.18c1.09-1.61.74-3.33-.79-5.15l-7.16-8.82c-1.26-1.56-1.56-2.38-3.48-3.09a13.91,13.91,0,0,0-4.66-.79ZM49.82,40.26A.86.86,0,1,1,49.91,42l-3.9.21a.86.86,0,0,1-.08-1.71l3.89-.21Zm1.11,2.91a.86.86,0,0,1,1.21.11.85.85,0,0,1-.12,1.2l-2.53,2.1a.85.85,0,1,1-1.09-1.31l2.53-2.1Zm-.63-6.75A.86.86,0,0,1,49.75,38L47,37.11A.87.87,0,0,1,46.48,36a.84.84,0,0,1,1.08-.53l2.74.93ZM31.44,91l-3.87-3.86v5.35A8.88,8.88,0,0,0,31.44,91ZM25,92.41V87.09l-3.78,3.77A8.85,8.85,0,0,0,25,92.41Zm-5.64-3.33,3.82-3.82H17.63a9,9,0,0,0,1.72,3.82Zm-1.83-6.4h5.65L19,78.56a8.9,8.9,0,0,0-1.52,4.12Zm3.28-6L25,80.86V74.8a8.93,8.93,0,0,0-4.19,1.86Zm6.77-1.89v6.09l4.29-4.29a8.81,8.81,0,0,0-4.29-1.8Zm6.08,3.66L29.4,82.68h5.85a8.87,8.87,0,0,0-1.6-4.25Zm1.5,6.83H29.4l3.93,3.93a8.89,8.89,0,0,0,1.82-3.93Zm76.53,5.86-4-4v5.4a8.92,8.92,0,0,0,4-1.37Zm-6.62,1.21V87.09l-3.59,3.59a8.88,8.88,0,0,0,3.59,1.65Zm-5.39-3.5L102.52,86l-4.11.38a9,9,0,0,0,1.26,2.47ZM99.58,79l-.21-.21-.07.12.28.09Zm1.49-2.17,3.66,3.66a2,2,0,0,1,.33-.24v-5.4a8.89,8.89,0,0,0-4,2Zm6.57-2.14v5a3.87,3.87,0,0,1,.9.25l3.58-3.58a8.94,8.94,0,0,0-4.48-1.66ZM114,78.18l-3.55,3.55a3.55,3.55,0,0,1,.32,1h5a9,9,0,0,0-1.79-4.5Zm1.68,7.08H110.3a2.85,2.85,0,0,1-.34.49l3.68,3.68a8.84,8.84,0,0,0,2-4.17Zm-4.37-26,3.33-.46,7.91,8.33-2.09.73-9.15-8.6Zm-4.39,8.4A16,16,0,1,1,91.27,87l-5.69.52a39.41,39.41,0,0,1,4-11.54l2.87.87a16,16,0,0,1,14.49-9.24Z"/></svg>