<svg id="Layer_1" data-name="Layer 1" xmlns="http://www.w3.org/2000/svg" viewBox="0 0 122.88 87.76"><defs><style>.cls-1{fill-rule:evenodd;}</style></defs><title>car-report</title><path class="cls-1" d="M9.31,42c-10-5.11-8.9-10.8,1.2-10.21l2.26,4.24,4.66-14.49c1.83-5.7,4.87-10.87,10.85-10.87H64.64v5.7H30.26c-4.55,0-6.88,3.94-8.29,8.28L17.6,39.24v0h47V65.4a8.6,8.6,0,0,0,8.53,8.53H112l-.27,4.42v6a3.4,3.4,0,0,1-3.4,3.39H93.88a3.4,3.4,0,0,1-3.4-3.39V81.64H22v2.73a3.4,3.4,0,0,1-3.39,3.39H4.12a3.4,3.4,0,0,1-3.4-3.39V76.54a4.73,4.73,0,0,1,0-.53C-.34,62-1.88,49.26,9.31,42ZM75.11,6.44h8.16v5.28H79.75a2.9,2.9,0,0,0-2.88,2.87v44.3a2.89,2.89,0,0,0,2.88,2.87h35.08a2.89,2.89,0,0,0,2.88-2.87V14.59a2.9,2.9,0,0,0-2.88-2.87h-3.52V6.44h8.16a3.43,3.43,0,0,1,3.41,3.41V63.23a3.43,3.43,0,0,1-3.41,3.4H75.11a3.43,3.43,0,0,1-3.41-3.4V9.85a3.41,3.41,0,0,1,3.41-3.41ZM90.7,50.63a1.83,1.83,0,1,1,0-3.66h13.19a1.83,1.83,0,0,1,0,3.66Zm-3.9-11a1.83,1.83,0,1,1,0-3.66h21a1.83,1.83,0,0,1,0,3.66ZM83.36,28.54a1.83,1.83,0,1,1,0-3.65h27.86a1.83,1.83,0,1,1,0,3.65ZM88,4.75h3.86a5.13,5.13,0,0,1,10.22,0l4.52,0a.58.58,0,0,1,.57.57V13a.58.58,0,0,1-.57.57H88a.58.58,0,0,1-.57-.57V5.32A.57.57,0,0,1,88,4.75Zm6.86,2.34a3.85,3.85,0,0,0,1.38,1.19,2.44,2.44,0,0,0,1.34,0,3.75,3.75,0,0,0,1.61-1.71,3.33,3.33,0,0,0,0-.56,2.3,2.3,0,1,0-4.6,0,2.67,2.67,0,0,0,.22,1.06Zm-67,51.61L14.94,57.08c-3-.34-3.86.94-2.82,3.56L13.51,64A4.86,4.86,0,0,0,15.25,66a5.83,5.83,0,0,0,2.88.79l11.48.09c2.77,0,4-1.11,3.1-3.66a6.18,6.18,0,0,0-4.9-4.48Z"/></svg>