<svg xmlns="http://www.w3.org/2000/svg" shape-rendering="geometricPrecision" text-rendering="geometricPrecision" image-rendering="optimizeQuality" fill-rule="evenodd" clip-rule="evenodd" viewBox="0 0 512 340.01"><path fill-rule="nonzero" d="m51.79 246.01-.01.22c7.07 5.56 13.62 13.68 18.44 24.63V97.1a39.787 39.787 0 0 0-6.93 5.53c-7.1 7.1-11.5 16.89-11.5 27.65v115.73zM377.15 71.73v10.16h42.04c13.31 0 25.42 5.45 34.18 14.21 8.77 8.77 14.22 20.88 14.22 34.18v109.21c.41-.19.83-.38 1.25-.57 6.14-2.65 12.64-3.64 18.69-2.72 6.28.95 12.04 3.93 16.44 9.19 8.29 9.91 11.49 28.04 3.12 56.12-1.82 7.15-3.49 14.77-5.54 21.81-.81 2.72-1.29 4.71-1.68 6.3-.94 3.87-1.47 6.05-3.52 7.93-2.63 2.44-5.52 2.43-12.11 2.42h-1.61v.01l-443.94.01c-15.65.12-23.32.18-27.9-17.96l-4.58-21.48c-.49-1.92-.89-3.45-1.3-4.99-4.29-16.21-9.41-35.53 2.22-50.48 2.5-3.22 5.92-5.57 9.94-6.97 4.91-1.71 10.73-1.97 16.78-.62a42 42 0 0 1 8.7 3V130.28c0-13.31 5.44-25.41 14.21-34.18 8.77-8.76 20.87-14.21 34.18-14.21h42.05V71.73H122.5c-1.53 0-3.1-.17-4.68-.5-4.71-.97-9.15-3.35-12.42-6.61-3.47-3.47-5.7-7.98-5.7-12.97 0-1.07.12-2.2.37-3.39l5.5-26.63c1.23-5.97 3.85-11.54 7.82-15.51C117.17 2.34 122.05 0 128 0h71.92c5.96 0 10.85 2.34 14.61 6.1l.26.29c3.83 3.95 6.37 9.4 7.57 15.24l5.5 26.63c.24 1.19.36 2.32.36 3.39 0 4.98-2.23 9.47-5.71 12.96-3.25 3.27-7.7 5.65-12.41 6.62-1.58.33-3.15.5-4.68.5h-10.49v10.16h120.28V71.73h-10.49c-1.53 0-3.11-.17-4.69-.5-4.7-.97-9.15-3.35-12.41-6.61-3.47-3.47-5.7-7.98-5.7-12.97 0-1.07.12-2.2.36-3.39l5.5-26.63c1.23-5.97 3.86-11.54 7.83-15.51C299.38 2.34 304.27 0 310.22 0h71.92c5.96 0 10.84 2.34 14.6 6.1l.27.29c3.82 3.95 6.36 9.4 7.56 15.24l5.5 26.63c.25 1.19.36 2.32.36 3.39 0 4.98-2.23 9.47-5.71 12.96-3.25 3.27-7.69 5.65-12.4 6.62-1.58.33-3.16.5-4.69.5h-10.48zm-9.24 10.16V71.73h-43.46v10.16h43.46zm14.23-72.65h-71.92c-3.3 0-6 1.29-8.08 3.38-2.66 2.65-4.45 6.56-5.34 10.85l-5.5 26.63c-.09.48-.14 1.01-.14 1.55 0 2.37 1.17 4.61 2.99 6.44 2.04 2.03 4.8 3.51 7.72 4.12.9.18 1.86.28 2.85.28h82.91c1 0 1.95-.1 2.85-.28 2.92-.61 5.69-2.09 7.72-4.12h.02c1.81-1.82 2.98-4.06 2.98-6.44 0-.55-.05-1.07-.15-1.55l-5.5-26.63c-.86-4.17-2.58-7.99-5.13-10.64l-.21-.2c-2.09-2.09-4.79-3.39-8.07-3.39zM185.69 81.89V71.73h-43.46v10.16h43.46zm14.23-72.65H128c-3.29 0-5.99 1.29-8.08 3.38-2.65 2.65-4.45 6.56-5.33 10.85l-5.5 26.63c-.1.48-.15 1.01-.15 1.55 0 2.37 1.17 4.61 3 6.44 2.03 2.03 4.8 3.51 7.71 4.12.9.18 1.86.28 2.85.28h82.92c.99 0 1.95-.1 2.85-.28 2.92-.61 5.68-2.09 7.72-4.12h.01c1.82-1.82 2.98-4.06 2.98-6.44 0-.55-.05-1.07-.15-1.55l-5.49-26.63c-.86-4.17-2.59-7.99-5.13-10.64l-.21-.2c-2.09-2.09-4.8-3.39-8.08-3.39zm230.75 229.41H79.46v33.19c30.81-3.93 97.55-5.73 166.25-5.73 72.74 0 147.89 2 184.96 5.61v-33.07zm-351.21-9.24h351.21v-95.58H79.46v95.58zm360.45 43.35c.89.12 1.74.24 2.56.36 2.08-11.79 8.19-21.29 15.94-27.74-.04-.24-.06-.48-.06-.72V130.28c0-10.75-4.41-20.55-11.51-27.64-2.09-2.1-4.42-3.95-6.93-5.53v175.65zm-9.24-179.9a38.905 38.905 0 0 0-11.48-1.73H90.94c-3.99 0-7.84.6-11.48 1.73v31.73h351.21V92.86zM20.1 246.81c-2.33.81-4.29 2.14-5.68 3.93-8.83 11.36-4.36 28.28-.6 42.47 2.31 8.83 4.02 17.69 5.93 26.62 2.81 11.08 8.09 11.04 18.87 10.95l3.75-.03h440.26v.01l7.48.01.81-3.32c.44-1.82 1-4.1 1.77-6.71l5.53-21.76c7.38-24.69 5.17-39.9-1.32-47.67-2.86-3.42-6.63-5.36-10.74-5.98-4.33-.66-9.09.1-13.68 2.08-10.72 4.63-20.24 15.83-21.43 31.31a4.614 4.614 0 0 1-5.5 4.27c-24.71-4.88-113.84-7.64-199.84-7.64-79.58 0-156.22 2.35-176.21 7.55-2.32.65-4.78-.61-5.58-2.92-4.3-12.34-10.88-21.07-18.03-26.63-4.64-3.61-9.48-5.86-14.03-6.88-4.36-.97-8.43-.82-11.76.34z"/></svg>