<svg id="Layer_1" data-name="Layer 1" xmlns="http://www.w3.org/2000/svg" viewBox="0 0 122.88 86.34"><defs><style>.cls-1{fill-rule:evenodd;}</style></defs><title>car-document</title><path class="cls-1" d="M8.51,44.49c-9.19-4.67-8.13-9.88,1.1-9.34L11.68,39l4.26-13.25c1.68-5.22,4.46-10,9.93-10H59.13v5.22H27.68c-4.16,0-6.3,3.6-7.58,7.57L16.1,42v0h43V65.88a7.86,7.86,0,0,0,7.81,7.8h35.54l-.25,4v5.51a3.11,3.11,0,0,1-3.1,3.11H85.87a3.12,3.12,0,0,1-3.1-3.11V80.74H20.13v2.49A3.12,3.12,0,0,1,17,86.34H3.77A3.12,3.12,0,0,1,.66,83.23V76.07a3.88,3.88,0,0,1,0-.48c-1-12.87-2.42-24.47,7.81-31.1Zm62.89-37H69a2.9,2.9,0,0,0-2.92,2.92V64.67A2.9,2.9,0,0,0,69,67.58h40a2.9,2.9,0,0,0,2.92-2.91V62h-3.26v2.35H69.37V10.72h2V7.48ZM84.67,49.74h28.56V47H84.67v2.74Zm0-8.37h28.56V38.63H84.67v2.74Zm0-25.12h9.51V13.52H84.67v2.73Zm0,8.37h13.5V21.89H84.67v2.73Zm0,8.37h28.84V30.26H84.67V33ZM106.34,6.22,117,17.39H106.34V6.22Zm16.54,12.6a1.76,1.76,0,0,0-1.29-1.71L105.94.65A1.75,1.75,0,0,0,104.58,0H78.48A3.18,3.18,0,0,0,75.3,3.18V55.43a3.2,3.2,0,0,0,.93,2.25,3.24,3.24,0,0,0,2.25.93H119.7a3.18,3.18,0,0,0,3.18-3.18V18.82Zm-3.55,2.12V55.05H78.86V3.54h23.93V19.16a1.79,1.79,0,0,0,1.79,1.78ZM25.44,59.75,13.66,58.27c-2.78-.31-3.52.86-2.58,3.25l1.28,3.09A4.41,4.41,0,0,0,14,66.39a5.46,5.46,0,0,0,2.64.73l10.49.08c2.54,0,3.64-1,2.84-3.35a5.67,5.67,0,0,0-4.48-4.1Z"/></svg>