<svg xmlns="http://www.w3.org/2000/svg" shape-rendering="geometricPrecision" text-rendering="geometricPrecision" image-rendering="optimizeQuality" fill-rule="evenodd" clip-rule="evenodd" viewBox="0 0 512 509.01"><path fill-rule="nonzero" d="M220.15 375.15 88.5 506.8a7.588 7.588 0 0 1-5.36 2.21c-1.94 0-3.89-.73-5.37-2.21L2.22 431.25A7.622 7.622 0 0 1 0 425.88c0-1.94.75-3.89 2.22-5.36l131.65-131.65-2.59-2.59-.33-.36a16.33 16.33 0 0 1-4.45-11.2c0-4.18 1.6-8.38 4.78-11.56l14.95-14.96c3.19-3.18 7.38-4.78 11.57-4.78s8.38 1.6 11.56 4.78l6.56 6.56 30.57-5.31 13.33-13.33-9.94-9.93a15.793 15.793 0 0 1-4.63-11.2c0-4.04 1.55-8.1 4.63-11.2L230.67 183a16.377 16.377 0 0 1 1.78-21.01l22.63-22.64c3.19-3.18 7.38-4.78 11.57-4.78 4.18 0 8.37 1.6 11.56 4.78l4.08 4.08L423.5 2.22A7.622 7.622 0 0 1 428.87 0c1.93 0 3.88.75 5.36 2.22l75.55 75.55a7.554 7.554 0 0 1 2.22 5.37c0 1.93-.74 3.89-2.22 5.36L368.57 229.71l4.08 4.08a16.3 16.3 0 0 1 4.78 11.56c0 4.19-1.59 8.38-4.78 11.57l-22.63 22.63c-3.19 3.19-7.38 4.78-11.57 4.78-2.92 0-5.84-.77-8.42-2.32l-20.97 20.97a15.795 15.795 0 0 1-11.19 4.63c-4.05-.02-8.1-1.56-11.17-4.62l-13.04-13.03-13.67 13.67-2.94 32.26 6.75 6.75c3.18 3.19 4.78 7.38 4.78 11.57 0 4.18-1.6 8.37-4.78 11.56l-14.95 14.95c-3.17 3.17-7.37 4.76-11.56 4.76-4.19.02-8.38-1.57-11.57-4.75l-5.57-5.58zm94.94-21.33a6.343 6.343 0 0 1 0-8.96c2.48-2.47 6.49-2.47 8.96 0l24.29 24.3a6.331 6.331 0 0 1 0 8.95 6.331 6.331 0 0 1-8.95 0l-24.3-24.29zm-29.34 16.06a6.293 6.293 0 0 1 3.04-8.38c3.15-1.48 6.91-.11 8.38 3.04l15.23 32.57c1.47 3.15.11 6.91-3.05 8.38-3.15 1.48-6.91.11-8.38-3.04l-15.22-32.57zm49.02-42.94c-3.15-1.47-4.52-5.23-3.04-8.38a6.306 6.306 0 0 1 8.38-3.05l32.57 15.22a6.304 6.304 0 0 1 3.04 8.39c-1.47 3.15-5.23 4.52-8.38 3.04l-32.57-15.22zM167.99 188.81a6.331 6.331 0 0 1 0 8.95 6.331 6.331 0 0 1-8.95 0l-24.3-24.29c-2.47-2.47-2.47-6.48 0-8.96 2.48-2.47 6.49-2.47 8.96 0l24.29 24.3zm-19.68 26.87c3.16 1.47 4.52 5.23 3.05 8.39a6.321 6.321 0 0 1-8.39 3.04l-32.57-15.22a6.321 6.321 0 0 1-3.04-8.39c1.48-3.15 5.23-4.52 8.39-3.04l32.56 15.22zm49.03-42.94c1.47 3.15.11 6.91-3.04 8.39a6.317 6.317 0 0 1-8.39-3.05l-15.22-32.56c-1.47-3.16-.11-6.92 3.05-8.39 3.15-1.47 6.91-.11 8.38 3.04l15.22 32.57zm-55.92 123.68L11.95 425.88l71.19 71.19L212.6 367.61l-71.18-71.19zm12.36-40.67-14.95 14.95a5.668 5.668 0 0 0-1.65 4.02c0 1.38.48 2.75 1.44 3.82l94.65 94.63c1.1 1.11 2.56 1.65 4.02 1.65 1.44.03 2.9-.53 4.01-1.64l14.95-14.96c1.1-1.1 1.65-2.55 1.65-4.01s-.55-2.92-1.64-4.01l-94.45-94.45a5.628 5.628 0 0 0-4.01-1.65c-1.46 0-2.92.55-4.02 1.65zM461.7 74.38c2.08-2.08 5.46-2.08 7.55 0 2.08 2.09 2.08 5.47 0 7.55l-94.17 94.17c-2.09 2.08-5.47 2.08-7.55 0a5.33 5.33 0 0 1 0-7.55l94.17-94.17zm-31.63-31.62a5.33 5.33 0 0 1 7.55 0c2.08 2.08 2.08 5.46 0 7.55l-94.17 94.17c-2.08 2.08-5.46 2.08-7.55 0-2.08-2.09-2.08-5.47 0-7.55l94.17-94.17zm-69.05 179.4L500.05 83.14l-71.18-71.19-139.03 139.03 71.18 71.18zm-98.39-75.26L240 169.53c-1.11 1.09-1.65 2.55-1.65 4.02 0 1.46.55 2.92 1.65 4.02l94.44 94.44a5.67 5.67 0 0 0 4.01 1.65c1.46 0 2.92-.56 4.02-1.65l22.63-22.64c1.1-1.1 1.65-2.56 1.65-4.02 0-1.46-.55-2.91-1.65-4.01l-94.44-94.44a5.662 5.662 0 0 0-4.01-1.65c-1.46 0-2.92.55-4.02 1.65zm3.48 135.51-7.09-7.1-11.09 11.1a9.988 9.988 0 0 1-7.06 2.91 9.97 9.97 0 0 1-7.06-2.91l-8.21-8.21a9.998 9.998 0 0 1 0-14.12l11.09-11.09-9.33-9.32-14.51 14.51c-.76.75-1.74 1.29-2.87 1.48l-24.66 4.29 61.96 61.96 2.25-24.74c.01-1.35.53-2.7 1.56-3.74l15.02-15.02zm-14.64-14.64-7.23-7.23-10.61 10.61 7.23 7.23 10.61-10.61zm-14.03-76.44-20.01 20.01c-1.01.98-1.5 2.31-1.5 3.65 0 1.33.5 2.65 1.5 3.65l76.79 76.79c1 1.02 2.33 1.52 3.65 1.52 1.33-.02 2.65-.52 3.64-1.51l20.02-20.02-84.09-84.09zM81.93 466.26a5.33 5.33 0 0 1-7.55 0c-2.08-2.08-2.08-5.46 0-7.55l94.17-94.16a5.33 5.33 0 0 1 7.55 0 5.335 5.335 0 0 1 0 7.54l-94.17 94.17zm-31.62-31.62c-2.09 2.08-5.47 2.08-7.55 0a5.33 5.33 0 0 1 0-7.55l94.17-94.17c2.08-2.08 5.46-2.08 7.55 0a5.348 5.348 0 0 1 0 7.55l-94.17 94.17z"/></svg>