<svg xmlns="http://www.w3.org/2000/svg" shape-rendering="geometricPrecision" text-rendering="geometricPrecision" image-rendering="optimizeQuality" fill-rule="evenodd" clip-rule="evenodd" viewBox="0 0 511.86 464"><path d="M381.73 61.12c3.65-9.75 10.9-17.1 19.66-21.08 8.35-3.8 18.12-4.53 27.48-1.39.86.22 1.69.53 2.46.93a37.523 37.523 0 0 1 19.84 19.17c3.8 8.35 4.53 18.13 1.38 27.48-.2.77-.47 1.52-.81 2.23l-4.48 12.01 16.86 51.82a18.906 18.906 0 0 1 16.84 10.52c2.14 4.32 2.64 9.47.97 14.41l-6.1 17.96 36.03 13.06v32.31l-45.78-16.66-5.38 15.83a18.88 18.88 0 0 1-9.4 10.55 18.807 18.807 0 0 1-14.41.97c-.74-.25-1.45-.54-2.14-.87l-49.82 17.22-1.63 4.37a37.508 37.508 0 0 1-19.67 21.08c-8.71 3.96-18.97 4.59-28.69.95-9.75-3.65-17.09-10.9-21.08-19.66l-.33-.81c-3.64-8.57-4.14-18.5-.63-27.89l68.83-184.51zM2.64 96.72C-2.66 68.04.1 46.28 10.25 30.36 20.59 14.14 38.18 4.46 62.32.11a7.092 7.092 0 0 1 8.2 5.59l15.37 75.95c.99 5.52.73 10.53-1.21 14.83-2.15 4.75-6.05 8.26-12.13 10.16-.51.15-1.02.25-1.53.29l-43.7 5.99c-6.8 1.62-12.21.75-16.47-2.15-4.28-2.91-6.85-7.56-8.12-13.51l-.09-.54zm72.43 250.26c15.98 0 30.46 6.48 40.94 16.96a57.904 57.904 0 0 1 14.66 24.73l18.1-3.16 4.93-2.14c7.46-3.24 13.19-7.2 14.28-11.49.92-3.68.56-10.81-.37-18.75-1.5-12.75-4.5-27.04-6.23-33.86-11.16-44.09-38.87-96.58-63.82-143.87-6.53-12.38-12.89-24.42-19.01-36.47l-50.15 5.36 40.79 202.98c1.93-.19 3.89-.29 5.88-.29zm57.9 58.38c.02.99 0 1.98-.03 2.96-.57 14.62-7.18 27.78-16.93 37.51-.73.73-1.48 1.43-2.25 2.12 3.42.88 7.44 1.25 11.97 1.02l240.1.84c8.13.04 14.89-2.49 19.66-6.81 4.71-4.25 7.58-10.34 7.96-17.48v-40.51c-.05-1.14-.16-2.27-.31-3.38-.98-7.06-4.02-11.99-8.35-15.02-4.62-3.23-10.91-4.62-17.99-4.4h-.06c-1.63.05-3.35.2-5.12.44l-208.82 36.6c-3.24 1.38-14.5.16-18.26 1.16-2.3.61-1.64 1.18-1.57 4.95zm-33.31 51.96a57.654 57.654 0 0 1-24.59 5.47c-15.99 0-30.47-6.49-40.95-16.96l-.84-.92c-9.98-10.43-16.12-24.53-16.12-40.03 0-15.98 6.49-30.46 16.96-40.94a57.825 57.825 0 0 1 21.23-13.51L12.84 138.8c-.42-3.9 2.41-7.41 6.31-7.82l62.76-6.71c2.86-.28 5.74 1.18 7.1 3.9 6.15 12.23 13.51 26.19 21.12 40.62 25.34 48.01 53.47 101.31 65.05 147.03 1.82 7.19 4.98 22.25 6.56 35.69 1.11 9.45 1.44 18.33.04 23.84-.42 1.64-1.05 3.2-1.86 4.7l179.52-31.45c2.28-.31 4.58-.51 6.86-.58l.06-.01c10.04-.31 19.29 1.89 26.55 6.97 7.53 5.27 12.74 13.4 14.3 24.7.21 1.5.36 3.11.42 4.81l.06.86-.03 40.48c-.48 11.17-5.06 20.83-12.65 27.69-7.33 6.63-17.41 10.53-29.18 10.48l-239.46-.84c-10.88.54-19.99-1.65-26.71-5.84zM22.21 37.99c-8.16 12.8-10.22 31.2-5.6 56.18l.04.14c.5 2.39 1.22 4.04 2.22 4.72.93.63 2.68.68 5.4.01l44.5-6.13c1.58-.57 2.52-1.34 2.94-2.28.67-1.48.67-3.73.18-6.53L58.03 15.5c-16.62 4.05-28.71 11.33-35.82 22.49zm52.86 323.23c24.11 0 43.66 19.55 43.66 43.66 0 24.12-19.55 43.67-43.66 43.67-24.12 0-43.66-19.55-43.66-43.67 0-24.11 19.54-43.66 43.66-43.66zM446.24 164.8c1.01-2.81 2.62-5.23 4.62-7.17l-11.68-35.49-47.82 128.2 33.45-11.56c-1.09-3.62-1.11-7.61.19-11.47l21.24-62.51zm-53.25-99.49c4.95-13.22 19.68-19.91 32.9-14.96 13.22 4.95 19.92 19.69 14.97 32.9l-68.82 184.51c-4.96 13.22-19.69 19.92-32.91 14.97-13.21-4.96-19.91-19.69-14.96-32.9l68.82-184.52z"/></svg>