<svg id="Layer_1" data-name="Layer 1" xmlns="http://www.w3.org/2000/svg" viewBox="0 0 122.88 81.96"><defs><style>.cls-1{fill-rule:evenodd;}</style></defs><title>car-insurance-document</title><path class="cls-1" d="M8.77,38.84C-.7,34,.39,28.66,9.9,29.22l2.13,4,4.39-13.65C18.15,14.18,21,9.31,26.66,9.31H57.77v5.38H28.52c-4.29,0-6.49,3.71-7.81,7.8L16.59,36.22v0H57.77v9.24A10.34,10.34,0,0,0,58.38,49l.21.57a10.62,10.62,0,0,0,2.27,3.4l.08.09a10.56,10.56,0,0,0,3.4,2.25h0a10.89,10.89,0,0,0,1.94.6,11.41,11.41,0,0,0,.53,2.24l.21.57a10.79,10.79,0,0,0,2.3,3.42l.05.06a10.6,10.6,0,0,0,3.41,2.25h0a10.53,10.53,0,0,0,4,.82H88.65a7,7,0,0,0,2.57-.48,30.46,30.46,0,0,0,12.15,8,6.93,6.93,0,0,0,2,.48v5.49a3.21,3.21,0,0,1-3.2,3.2H88.48a3.21,3.21,0,0,1-3.2-3.2V76.19H20.74v2.57a3.21,3.21,0,0,1-3.2,3.2H3.88a3.21,3.21,0,0,1-3.2-3.2V71.38a4.21,4.21,0,0,1,0-.5c-1-13.26-2.5-25.21,8-32Zm114-4.31c.86,17.25-5.51,27.44-16.8,31.68-10.9-4-17.34-13.72-16.87-31.94a24.15,24.15,0,0,0,16.81-5.17c4.83,3.07,11,6,16.86,5.43Zm-16.33,5.2a9.45,9.45,0,0,1,8.6,7.48h0l-1.21,1.48-1.15-1.48h-.16l-1.21,1.49-1.15-1.49h-.29l-1.21,1.48-1.15-1.48h-.15v0a.9.9,0,0,1-.69.79v5.36a3,3,0,0,1-.83,2.09,2.77,2.77,0,0,1-2,.86h0a2.77,2.77,0,0,1-2-.86h0a3,3,0,0,1-.83-2.08v-.27h1.21v.27a1.7,1.7,0,0,0,.47,1.19h0a1.6,1.6,0,0,0,1.14.49h0a1.55,1.55,0,0,0,1.14-.5,1.67,1.67,0,0,0,.48-1.19V48a.84.84,0,0,1-.55-.73v0h-.49l-1.15,1.48-1.2-1.48h-.29l-1.16,1.49-1.21-1.48h-.16l-1.15,1.48-1.2-1.48h0a9.44,9.44,0,0,1,8.49-7.47L106,39l.5.75ZM73.93,30a1.4,1.4,0,0,1,0-2.8H88.22a1.4,1.4,0,1,1,0,2.8Zm0-8.57a1.4,1.4,0,0,1,0-2.8H95.58a1.4,1.4,0,1,1,0,2.8Zm0-8.57a1.4,1.4,0,0,1,0-2.8H99.87a1.4,1.4,0,0,1,0,2.8Zm0,25.71a1.4,1.4,0,1,1,0-2.79H81a1.4,1.4,0,1,1,0,2.79ZM109.05,9.15H114a3.53,3.53,0,0,1,3.53,3.53c0,5.91,2.54,16.63-3,14.23V12.68a.44.44,0,0,0-.15-.35.48.48,0,0,0-.35-.16h-4.94v12c-1-.56-2-1.17-3-1.81h0V3.53a.48.48,0,0,0-.16-.35.48.48,0,0,0-.35-.16H68.4a.48.48,0,0,0-.35.16.47.47,0,0,0-.15.35V45.46a.44.44,0,0,0,.15.35.48.48,0,0,0,.35.16h16c.21,1,.44,2,.7,3H76.36v5.62a.45.45,0,0,0,.15.35.48.48,0,0,0,.36.16H87.18c.45,1.05.95,2.06,1.47,3H76.87a3.53,3.53,0,0,1-3.54-3.53V49H68.4a3.53,3.53,0,0,1-3.53-3.53V3.53A3.53,3.53,0,0,1,68.4,0h37.12a3.53,3.53,0,0,1,3.53,3.53V9.15ZM106,31.72c5.4,3.42,10.29,5.05,14.48,4.66.73,14.81-4.73,23.56-14.43,27.22-9.36-3.42-14.89-11.79-14.49-27.44A20.74,20.74,0,0,0,106,31.72ZM26.21,54.56,14.08,53c-2.87-.31-3.63.89-2.66,3.36l1.31,3.18a4.67,4.67,0,0,0,1.64,1.83,5.47,5.47,0,0,0,2.72.75l10.82.09c2.61,0,3.74-1.05,2.92-3.45a5.85,5.85,0,0,0-4.62-4.23Z"/></svg>