<svg xmlns="http://www.w3.org/2000/svg" shape-rendering="geometricPrecision" text-rendering="geometricPrecision" image-rendering="optimizeQuality" fill-rule="evenodd" clip-rule="evenodd" viewBox="0 0 512 287.8"><path fill-rule="nonzero" d="M369.68 237.85V93.28c0-15.76-7.86-32.61-25.01-45.49-15.38-11.53-38.08-19.92-69.17-21.93H72.37l-1.27-.07c-5.68-.02-10.8.42-15.38 1.27-10.79 2.01-18.29 6.36-22.98 12.21-4.65 5.81-6.85 13.46-6.98 22.02-.06 4.08.34 8.4 1.18 12.85 1.15 6.21 6.55 20.09 13.82 36.73 8.53 19.51 19.39 42.11 29.09 60.7 13.51 25.86 27.46 42.51 45.39 52.46 18.11 10.05 41.28 13.82 73.01 13.82h181.43zM123.5 85.75a7.77 7.77 0 0 1 10.93-1.19c3.34 2.69 3.87 7.58 1.18 10.93l-15.93 19.86c-2.68 3.34-7.58 3.87-10.92 1.18-3.35-2.69-3.87-7.58-1.19-10.92l15.93-19.86zm-15.19-40.18c2.67-3.34 7.55-3.89 10.89-1.22 3.34 2.68 3.89 7.56 1.22 10.9l-41.34 51.69c-2.68 3.35-7.56 3.89-10.9 1.22a7.754 7.754 0 0 1-1.21-10.9l41.34-51.69zm287.23 93.01c18.71 14.87 40.2 22.55 63.35 21.05v-6.67c0-10.23 10.19-18.6 22.63-18.6H512V287.8h-30.48c-12.45 0-22.63-8.37-22.63-18.6v-6.9h-70.41c-1.76.91-3.76 1.41-5.87 1.41H188.25c-36.02 0-63.05-4.68-85.54-17.16-22.67-12.58-39.75-32.56-55.68-63.06-10.11-19.37-21.27-42.58-29.9-62.32-7.96-18.21-14-34.07-15.54-42.38C.46 72.77-.08 66.8.01 60.98c.21-14.21 4.18-27.32 12.63-37.87C21.07 12.6 33.67 4.95 51.07 1.71 57.18.57 63.94-.01 71.36.04L72.37 0H275.5l.76.05c36.96 2.26 64.6 12.69 83.86 27.14 24.3 18.23 35.42 42.77 35.42 66.09v45.3z"/></svg>