<svg xmlns="http://www.w3.org/2000/svg" shape-rendering="geometricPrecision" text-rendering="geometricPrecision" image-rendering="optimizeQuality" fill-rule="evenodd" clip-rule="evenodd" viewBox="0 0 400 511.98"><path fill-rule="nonzero" d="m210.82 234.05-8.1-8.09-34.02 34.01 8.1 8.1c.8.81 2.15.81 2.95 0l31.07-31.06c.8-.81.8-2.15 0-2.96zM150.54 0h97.63c10.14 0 19.37 4.15 26.05 10.83l.46.51c6.41 6.64 10.37 15.66 10.37 25.55v42.69c0 8.73-3.1 16.81-8.26 23.16 17.72 2.19 33.64 10.36 45.69 22.41 14.19 14.18 23 33.76 23 55.31v171.52c7.13-2.77 14.46-3.71 21.38-2.63 8.98 1.41 17.1 6.12 23.13 14.57 11.24 15.71 14.88 45.17 1.08 91.3l-8.8 29.44c-1.32 4.41-2.1 7.59-2.71 10.12-4.01 16.5-8.74 17.19-25.78 17.16-3.93 0-7.86.03-11.82.03H45.19c-25.19.23-22.02-6.17-27.87-29.34l-7.33-29.07c-.77-3.08-1.43-5.56-2.1-8.08-6.92-26.13-15.16-57.28 3.7-81.54 4.48-5.76 10.05-9.83 16.34-12.02 5.86-2.04 12.23-2.4 18.79-.91 1.28.29 2.56.65 3.84 1.07V180.46c0-10.96 2.28-21.41 6.39-30.91l-3.25-3.21c-.54-.54-.8-1.25-.8-1.94 0-.62.21-1.25.63-1.76l30.73-30.75c.53-.53 1.23-.8 1.94-.8.69 0 1.39.27 1.93.79l1.11 1.1a77.65 77.65 0 0 1 32.43-10.5c-5.01-6.3-8.01-14.27-8.01-22.9V36.89c0-10.15 4.14-19.38 10.82-26.06l.51-.46C131.65 3.96 140.67 0 150.54 0zm-.64 241.26-80.23-79.15a61.536 61.536 0 0 0-2.79 18.35V361.4c10.84 8.95 21.41 23.67 30 44.93 30.67-15.72 63.42-23.21 98.12-23 34.58.2 71.02 8.08 109.17 23.09.65-3.34 1.48-6.55 2.47-9.64l-96.7-96.69-2.48 2.48c-2.56 2.56-6.79 2.56-9.35 0l-6.05-6.05c-2.56-2.56-2.56-6.79 0-9.35l2.73-2.73-1.19-13.06-5.53-5.52-5.26 5.27c-2.49 2.47-6.58 2.47-9.06 0l-8.48-8.49c-2.59 1.55-5.95 1.15-8.09-.99l-9.15-9.16c-2.56-2.56-2.56-6.79 0-9.35l1.87-1.88zm-48.53-116.31 82.97 81.87 1.89-1.89c2.56-2.56 6.79-2.56 9.35 0l9.16 9.16c2.26 2.29 2.58 5.87.72 8.5l8.41 8.41c2.48 2.48 2.48 6.58 0 9.06l-4.02 4.02 5.38 5.38 12.38 2.16 2.65-2.65c2.56-2.57 6.79-2.57 9.36 0l6.05 6.04c2.51 2.52 2.57 6.64.12 9.22l-1.41 1.41c22.82 22.71 60.74 56.73 84.78 82.98V180.46c0-17.04-6.98-32.54-18.22-43.78-11.23-11.23-26.74-18.21-43.77-18.21h-138.3c-9.86 0-19.2 2.33-27.5 6.48zm141.24 133.12-6.05-6.05c-.88-.89-2.36-.89-3.25 0l-38.2 38.2c-.88.88-.88 2.37 0 3.25l6.05 6.05c.88.88 2.37.88 3.25 0l38.29-38.28c.81-.9.77-2.32-.09-3.17zm-40.92-40.93-9.16-9.16c-.88-.88-2.36-.88-3.25 0l-38.2 38.21c-.89.88-.89 2.36 0 3.25l9.16 9.16c.88.88 2.36.88 3.24 0l38.21-38.21c.88-.88.89-2.37 0-3.25zm1.34 33.76 4.48 4.49c.79.79 1.18 1.82 1.18 2.85s-.39 2.06-1.18 2.85l-3.32 3.33c-.79.79-1.83 1.18-2.86 1.18-1.03 0-2.06-.39-2.85-1.18l-4.48-4.49-2.88 2.88 6.08 6.07c.41.41.62.95.63 1.49l.91 10.03 25.07-25.07-9.98-1.73c-.49-.09-.92-.34-1.24-.69l-5.79-5.78-3.77 3.77zm-5.98 5.98 4.29 4.29 2.92-2.93-4.28-4.28-2.93 2.92zM56.06 373.62a8.222 8.222 0 0 1-3.82-2.76c-3.14-2.01-6.19-3.32-9.09-3.98-3.53-.8-6.87-.64-9.87.4-3.26 1.14-6.27 3.4-8.81 6.67-13.93 17.91-6.81 44.81-.83 67.38.81 3.07 1.6 6.06 2.16 8.28l7.33 29.07c.4 1.59 3.65 17.32 3.66 17.33.03.02 12.07-.36 14.24-.36h291.18c3.88 0 7.72.03 11.57.04 5.96.01 8.35.4 8.83.27l.06-.07c.07-.06 3.54-14.43 3.98-15.88l8.8-29.44c12.14-40.59 9.92-65.14 1.28-77.22-3.31-4.63-7.64-7.2-12.35-7.93-5.11-.8-10.86.39-16.51 3.32-14.21 7.36-27.07 25.12-28.91 49.78h-.02c-.07.85-.27 1.71-.62 2.55-1.74 4.13-6.51 6.07-10.65 4.33-39.77-16.79-77.41-25.61-112.74-25.82-35-.21-67.85 8.05-98.37 25.41-.42.23-.87.44-1.34.6a8.136 8.136 0 0 1-10.36-5c-8.16-23.4-18.46-38.65-28.8-46.97zm194.1-359.3H148.54A20.49 20.49 0 0 0 134.37 20l-.35.37c-3.73 3.73-6.04 8.87-6.04 14.52v46.68c0 5.65 2.32 10.79 6.05 14.52 3.71 3.74 8.86 6.05 14.51 6.05h101.62c5.65 0 10.79-2.32 14.52-6.05h.03a20.49 20.49 0 0 0 6.02-14.52V34.89c0-5.48-2.17-10.48-5.69-14.18l-.36-.34c-3.73-3.73-8.87-6.05-14.52-6.05z"/></svg>