<svg id="Layer_1" data-name="Layer 1" xmlns="http://www.w3.org/2000/svg" viewBox="0 0 122.88 119.86"><defs><style>.cls-1{fill-rule:evenodd;}</style></defs><title>car-spark</title><path class="cls-1" d="M54.49,42.39l1,1,4-4a4.54,4.54,0,0,1,3.22-1.32h.1a4.61,4.61,0,0,1,2.16.59L73,32.39a5.16,5.16,0,0,1,1.46-2.17A4.8,4.8,0,0,1,76.84,29l1.27-1.1.06-.26a4.87,4.87,0,0,1,1.49-2.29,4.56,4.56,0,0,1,2.46-1.22l.22,0,.87-.75a3.69,3.69,0,0,1,.3-1.25,5.09,5.09,0,0,1,1.29-1.72,4.94,4.94,0,0,1,1.87-1.06,3.43,3.43,0,0,1,1.19-.12l.52-.45a3.6,3.6,0,0,1,.56-2,5,5,0,0,1,1-1.24,4.93,4.93,0,0,1,1.37-.86,3.43,3.43,0,0,1,2-.24l.84-.66a15.57,15.57,0,0,1,5.59-3.17l.11,0a5,5,0,0,1,2.44,0,4.74,4.74,0,0,1,.6-.74A6,6,0,0,1,104,8.87s0,0,0,0l.18-.26a3.82,3.82,0,0,1,.66-.72,5.73,5.73,0,0,1,.67-.48l.17-.1a7.55,7.55,0,0,1,1.46-.53,5.29,5.29,0,0,1,1-.15l.64-.64a6.56,6.56,0,0,1,.51-1.93A6.9,6.9,0,0,1,113.47.31a6.42,6.42,0,0,1,3.16-.2,7.75,7.75,0,0,1,3.9,2.1,7.84,7.84,0,0,1,2.2,3.85,6.4,6.4,0,0,1-.13,3.25,6.83,6.83,0,0,1-3.79,4.22,6.58,6.58,0,0,1-1.93.52l-.64.64a7.83,7.83,0,0,1-.15,1,7,7,0,0,1-.54,1.46l0,.08A6.73,6.73,0,0,1,115,18a4.41,4.41,0,0,1-.71.66l-.22.14,0,.08A6.48,6.48,0,0,1,113.1,20a5.35,5.35,0,0,1-.88.69,5.33,5.33,0,0,1-.07,2.62A17.2,17.2,0,0,1,109,28.9l-.24.32a3.21,3.21,0,0,1-.06,2.91,4.81,4.81,0,0,1-.84,1.25,5.75,5.75,0,0,1-1.16.95,3.59,3.59,0,0,1-2.68.51,3.36,3.36,0,0,1-.1,2.12,4.75,4.75,0,0,1-.93,1.55,5,5,0,0,1-1.4,1.12,3.54,3.54,0,0,1-2.35.4l-.1.11a3.21,3.21,0,0,1,0,1.54,4.83,4.83,0,0,1-1.06,2,5,5,0,0,1-1.79,1.3l-.09,0a3.4,3.4,0,0,1-1.54.22l-.32.37a3.41,3.41,0,0,1-.19,1.69,5.34,5.34,0,0,1-2.34,2.68A3.73,3.73,0,0,1,90,50.4L84.21,58a4.56,4.56,0,0,1-.73,5.48l-4,4,1,1a3,3,0,0,1,.87,2.1v.08a3,3,0,0,1-.87,2L73.6,79.46a3,3,0,0,1-4.19,0l-.67-.67-4.45,4.45.22.23a3.47,3.47,0,0,1,1,2.46V86a3.44,3.44,0,0,1-1,2.36L61.2,91.71l-.91.91-2,2a3.49,3.49,0,0,1-4.93,0l-1.2-1.2-.69.68a1,1,0,0,1-1,1l-1.35,1.36a1,1,0,0,1-1,1l-1.35,1.36a1,1,0,0,1-.29.75,1,1,0,0,1-.75.29l-1.35,1.35a1,1,0,0,1-1,1l-1.35,1.35a1,1,0,0,1-.29.75,1,1,0,0,1-.75.29L39.54,106a1,1,0,0,1-1,1l-1.35,1.36a1,1,0,0,1-1,1l-1.35,1.36a1,1,0,0,1-.29.75,1,1,0,0,1-.75.29l-1.35,1.35a1,1,0,0,1-1,1L30,115.6a1,1,0,0,1-.29.75,1,1,0,0,1-.75.29l-.22.22a1.38,1.38,0,0,1-.45.29l.11.3-.74.29L27,118c-1.8.79-2.9,1.27-4.86-.69l-3.72-3.72a5.35,5.35,0,0,1-1.5.52,4.51,4.51,0,0,1-1.83,0l-.23.23a2.81,2.81,0,0,1,.15,1.71,4.32,4.32,0,0,1-1.37,2.17l-.22.22a3.43,3.43,0,0,1-2.77,1.4,3,3,0,0,1-1.1-.21,4,4,0,0,1-.94-.53L8.43,119c-.66-.66-1.09-1.07-1.53-1.49C3.23,114-1,110,.2,104.23a14.06,14.06,0,0,1,2.11-5,27.6,27.6,0,0,1,4-4.76,1.15,1.15,0,0,1,.05-1.45,1,1,0,0,1,1-.26l1.16-1.17a1.07,1.07,0,0,1,.26-1,1,1,0,0,1,1-.25l1.17-1.17a1,1,0,0,1,.26-1,1.06,1.06,0,0,1,1-.26l1.16-1.16a1,1,0,0,1,.26-1,1.06,1.06,0,0,1,1-.26l1.16-1.16a1.06,1.06,0,0,1,.26-1,1,1,0,0,1,1-.26l1.16-1.16a1.06,1.06,0,0,1,.26-1,1,1,0,0,1,1-.26l1.16-1.17a1.07,1.07,0,0,1,.26-1,1,1,0,0,1,1-.25l1.17-1.17a1,1,0,0,1,.26-1,1.06,1.06,0,0,1,1-.26l1.16-1.16a1,1,0,0,1,.26-1,1.06,1.06,0,0,1,1-.26l1.16-1.16a1.06,1.06,0,0,1,.26-1,1,1,0,0,1,1-.26l.59-.59-1.2-1.2a3.5,3.5,0,0,1-1-2.46h0a3.42,3.42,0,0,1,1-2.46l2-2,.91-.91,3.31-3.31a3.45,3.45,0,0,1,2.46-1h0a3.43,3.43,0,0,1,2.46,1l.23.22,4.45-4.45-.68-.67a3,3,0,0,1-.86-2.1,3,3,0,0,1,.86-2.09l6.89-6.89a3,3,0,0,1,2.09-.86,3,3,0,0,1,2.1.86ZM26.57,114.77l-18-18A24.73,24.73,0,0,0,5,101a11,11,0,0,0-1.66,3.83c-.82,4.09,2.7,7.44,5.78,10.37l1.51,1.46.06,0a2.55,2.55,0,0,0,.46-.42,2.26,2.26,0,0,0,.26-.29,2.6,2.6,0,0,0,.52-.58s-.06,0-.2-.16L8,111.52c-1.67-1.63-3-2.94-2.85-6A8.07,8.07,0,0,1,5.69,103,13.63,13.63,0,0,1,7,100.5l1.07-1.62,5.69,5.69-1.2,1.12a2.24,2.24,0,0,0-.71,1.09,2.49,2.49,0,0,0,0,1.32l.24.89L11,110.1l1.79,1.8,1.53-1.53,1,.53a1.4,1.4,0,0,0,.93.14,3.69,3.69,0,0,0,1.4-.69l1.1-.8,5.55,5.55c.43.43.78.28,1.35,0l.87-.36Zm-18.3-9a3,3,0,0,0,.35,1.68,5,5,0,0,1,.73-2.77L8.7,104l-.06.14a5.25,5.25,0,0,0-.37,1.61ZM30.85,72.92,50,92l.43-.44L31.29,72.48l-.44.44ZM48.42,93.57,29.31,74.46l-.85.85L47.57,94.42l.85-.85ZM46,96,26.92,76.85l-.85.85L45.18,96.81,46,96Zm-2.4,2.39L24.52,79.24l-.84.85L42.78,99.2l.85-.85Zm-2.39,2.4L22.13,81.64l-.85.85,19.11,19.1.85-.84Zm-2.39,2.39L19.74,84l-.85.85L38,104l.85-.85Zm-2.39,2.39L17.35,86.42l-.85.85,19.11,19.11.85-.85Zm-2.39,2.39L15,88.81l-.85.85,19.11,19.11.85-.85Zm-2.4,2.39L12.57,91.2l-.85.85,19.1,19.11.85-.85Zm-2.39,2.4L10.17,93.6l-.85.84,19.11,19.11.85-.84Zm28.31-21L31.15,65.28l-1.06,1.07a.94.94,0,0,0-.28.67.92.92,0,0,0,.28.67l25.09,25.1a1,1,0,0,0,1.35,0l1.06-1.07Zm4.06-7.53-.06,0L38.74,61.28l-.06-.05-1.06-1.07a1,1,0,0,0-1.35,0L33,63.47v0L59.39,89.93h0l3.32-3.32A.92.92,0,0,0,63,86v-.06a1,1,0,0,0-.27-.67l-1.07-1.07ZM41.43,60.39,62.49,81.45l4.17-4.17L45.59,56.22l-4.16,4.17ZM57.26,45.16,77.71,65.62l4-4a2,2,0,0,0,.21-2.59L81.82,59l-.12-.1L64,41.18a1,1,0,0,1-.18-.22,1.94,1.94,0,0,0-1.08-.36h-.07a2,2,0,0,0-1.43.59l-4,4Zm9.59-4.79L82.51,56l5.93-7.7a1.27,1.27,0,0,1,1.48-.48.86.86,0,0,0,.63-.14,2.74,2.74,0,0,0,.71-.58,2.38,2.38,0,0,0,.46-.75.67.67,0,0,0,0-.51,1.26,1.26,0,0,1,.16-1.43L93.21,43a1.26,1.26,0,0,1,1.52-.3.68.68,0,0,0,.5,0l0,0a2.54,2.54,0,0,0,.85-.64,2.35,2.35,0,0,0,.5-.89.66.66,0,0,0,0-.42,1.27,1.27,0,0,1,.07-1.58l1.2-1.39a1.26,1.26,0,0,1,1.68-.2.82.82,0,0,0,.8-.08,2.43,2.43,0,0,0,.69-.56,2.37,2.37,0,0,0,.45-.73.72.72,0,0,0,0-.66,1.26,1.26,0,0,1,0-1.72l1.17-1.36a1.28,1.28,0,0,1,1.79-.11c.22.2.6.11,1-.11a3.09,3.09,0,0,0,.6-.48,2.61,2.61,0,0,0,.41-.61c.14-.31.18-.62,0-.79l-.09-.07a1.27,1.27,0,0,1-.17-1.73l.84-1.1a15,15,0,0,0,2.73-4.74,2.79,2.79,0,0,0-.4-2.42,31.35,31.35,0,0,0-3.07-3.42,35.31,35.31,0,0,0-3.59-3.33,2.62,2.62,0,0,0-2.19-.5l-.07,0a13.77,13.77,0,0,0-4.62,2.7l-1.36,1.07a1.26,1.26,0,0,1-1.46.12.77.77,0,0,0-.62.05,2.86,2.86,0,0,0-.66.43,2.61,2.61,0,0,0-.53.63,1,1,0,0,0-.2.7,1.27,1.27,0,0,1-.33,1.48L89,21.52a1.3,1.3,0,0,1-1.34.2.55.55,0,0,0-.33,0,2.35,2.35,0,0,0-.88.51,2.65,2.65,0,0,0-.65.85.83.83,0,0,0-.1.39,1.25,1.25,0,0,1-.37,1.33L83.6,26.34a1.23,1.23,0,0,1-1.14.27H82.4a2.15,2.15,0,0,0-1.05.58,2.37,2.37,0,0,0-.73,1l0,.09a1.26,1.26,0,0,1-.42,1.11l-2,1.74a1.25,1.25,0,0,1-.92.3h-.07a2.09,2.09,0,0,0-1,.6,2.34,2.34,0,0,0-.74,1v0a1.27,1.27,0,0,1-.49,1l-8.08,6.27ZM116.16,2.6a3.87,3.87,0,0,0-1.91.11,4.18,4.18,0,0,0-1.7,1.08,4.39,4.39,0,0,0-.89,1.29,4.1,4.1,0,0,0-.34,1.54,1.35,1.35,0,0,1-.37.85l-1.32,1.32a1.27,1.27,0,0,1-1,.37,3.2,3.2,0,0,0-.81.09,5,5,0,0,0-.91.33,3.59,3.59,0,0,0-.33.25,1.72,1.72,0,0,0-.27.27l-.15.22a1.74,1.74,0,0,1-.72.66,5.27,5.27,0,0,0-.63.49l6.6,6.6a4,4,0,0,0,.5-.63,1.78,1.78,0,0,1,.71-.75l.16-.11a2.37,2.37,0,0,0,.28-.27,2.62,2.62,0,0,0,.24-.34,4.81,4.81,0,0,0,.34-.91,3.22,3.22,0,0,0,.09-.87,1.27,1.27,0,0,1,.37-.94l1.32-1.32a1.23,1.23,0,0,1,.93-.37,4.24,4.24,0,0,0,2.75-1.24,4.29,4.29,0,0,0,1.09-1.75,3.87,3.87,0,0,0,.07-2A5.25,5.25,0,0,0,118.76,4a5.17,5.17,0,0,0-2.6-1.41Zm-40,65.25,3,3-7.28,7.28-3-3a1.5,1.5,0,0,1,0-2.1l5.18-5.18a1.5,1.5,0,0,1,2.1,0ZM59.27,51,71.91,63.61a1.48,1.48,0,0,1,0,2.1l-5.18,5.18a1.48,1.48,0,0,1-2.1,0L52,58.25a1.5,1.5,0,0,1,0-2.11L57.17,51a1.48,1.48,0,0,1,2.1,0ZM52,43.74l3.18,3.17a1.5,1.5,0,0,1,0,2.11L50,54.19a1.5,1.5,0,0,1-2.11,0L44.76,51,52,43.74Z"/></svg>