<svg id="Layer_1" data-name="Layer 1" xmlns="http://www.w3.org/2000/svg" viewBox="0 0 122.88 54.24"><title>car-windscreen</title><path d="M21.2,14.87,6.44,48.73q7.77-1.11,15.44-1.93l20.77-16a2.51,2.51,0,0,1,3.16.68c.94,1,1,2.33.25,2.95L31.14,45.92q14.64-1.2,29-1.3L78.05,30.8a2.51,2.51,0,0,1,3.16.68c.94,1,1.05,2.33.25,2.95L68.18,44.65a352.25,352.25,0,0,1,48.23,4L101.2,13.8a7,7,0,0,0-1.91-3c-.94-.7-2.55-1.26-5.49-2A127.69,127.69,0,0,0,62,4.88,145.37,145.37,0,0,0,30.17,8.62c-3.13.71-5.06,1.46-6.33,2.44a9,9,0,0,0-2.64,3.81Zm.85,20.69h-.11a3.36,3.36,0,0,0-1-2.43,3.32,3.32,0,0,0-2.43-1V32a3.29,3.29,0,0,0,2.43-1,3.33,3.33,0,0,0,1-2.43h.11a3.33,3.33,0,0,0,1,2.43,3.29,3.29,0,0,0,2.43,1v.12a3.32,3.32,0,0,0-2.43,1,3.36,3.36,0,0,0-1,2.43Zm11.44-6.09h-.18a5.84,5.84,0,0,0-5.71-5.71v-.19a5.49,5.49,0,0,0,4-1.71,5.51,5.51,0,0,0,1.71-4h.18a5.48,5.48,0,0,0,1.72,4,5.47,5.47,0,0,0,4,1.71v.19a5.86,5.86,0,0,0-5.72,5.71Zm55,10.23h-.1a3.14,3.14,0,0,0-3.07-3.07v-.1a3.14,3.14,0,0,0,3.07-3.06h.1a3.14,3.14,0,0,0,3.06,3.06v.1a3,3,0,0,0-2.14.92,2.91,2.91,0,0,0-.92,2.15Zm9.58-5.8h-.17a5.3,5.3,0,0,0-5.17-5.16v-.17a5.3,5.3,0,0,0,5.17-5.17h.17a5.3,5.3,0,0,0,5.17,5.17v.17a5.3,5.3,0,0,0-5.17,5.16ZM.2,50.82l16.53-37.9a13.35,13.35,0,0,1,4.14-5.75c1.86-1.42,4.37-2.44,8.23-3.31A150.36,150.36,0,0,1,62,0,132.58,132.58,0,0,1,95,4c3.58.91,5.68,1.69,7.23,2.85,1.7,1.27,2.48,2.72,3.46,5l16.95,38.86a2.51,2.51,0,0,1,.22,1.49,2.46,2.46,0,0,1-2.82,2,346.39,346.39,0,0,0-57.17-4.72,390,390,0,0,0-60,4.7A2.38,2.38,0,0,1,1.47,54,2.44,2.44,0,0,1,.2,50.82Z"/></svg>