<svg xmlns="http://www.w3.org/2000/svg" shape-rendering="geometricPrecision" text-rendering="geometricPrecision" image-rendering="optimizeQuality" fill-rule="evenodd" clip-rule="evenodd" viewBox="0 0 512 264.31"><path d="m319.4 234.03-31.17-107.95h15.36l33.89 107.95H319.4zM466.11 95.84c4.72-.02 9.02.35 12.91 1.08 11.22 2.09 19.35 7.03 24.8 13.83 5.47 6.82 8.04 15.28 8.17 24.45.06 3.74-.29 7.58-1.01 11.43-.99 5.33-4.84 15.43-9.9 27.03-5.47 12.51-12.53 27.19-18.93 39.45-10.06 19.25-19.08 31.88-31.83 39.99-12.82 8.15-28.5 11.21-51.71 11.21H113.39c-23.21 0-38.89-3.06-51.71-11.21-12.75-8.11-21.77-20.74-31.83-39.99-6.4-12.26-13.46-26.94-18.93-39.45-5.06-11.6-8.91-21.7-9.9-27.03-.72-3.85-1.07-7.69-1.01-11.43.14-9.17 2.7-17.63 8.17-24.45 5.45-6.8 13.58-11.74 24.8-13.83 4.09-.77 8.63-1.14 13.63-1.07v-.04h189.02V72.3H208.9c-29.1 0-48.55-11.79-59.76-33.84h-32.76c-4.09 0-7.43-3.34-7.43-7.43V7.43c0-4.09 3.34-7.43 7.43-7.43h279.24c4.09 0 7.43 3.34 7.43 7.43v23.6c0 4.09-3.34 7.43-7.43 7.43h-32.98c-10.81 20.78-29.42 33.84-56.36 33.84h-29.11v23.51h188.22l.72.03zm9.68 18.72c-2.84-.53-6-.81-9.51-.79l-.89.04H46.61v-.04h-.11c-3.82-.06-7.24.22-10.29.79-6.61 1.23-11.19 3.88-14.04 7.43-2.83 3.53-4.16 8.19-4.24 13.42-.04 2.53.21 5.21.73 7.99.72 3.87 4.12 12.6 8.71 23.09 5.38 12.31 12.23 26.57 18.37 38.32 8.57 16.42 15.91 26.97 25.57 33.11 9.61 6.1 22.41 8.39 42.08 8.39h285.22c19.67 0 32.48-2.29 42.08-8.39 9.66-6.14 17-16.69 25.57-33.11 6.14-11.75 12.99-26.01 18.37-38.32 4.59-10.49 7.99-19.22 8.71-23.09.52-2.78.77-5.46.73-7.99-.08-5.23-1.41-9.89-4.24-13.42-2.85-3.55-7.43-6.2-14.04-7.43zm-225.34 19.41h10.97l1.07 26.12h-13.65l1.61-26.12zm-2.78 49.84h16.12l1.68 37.03h-19.61l1.81-37.03zm-43.25 50.22 23.7-107.95h55.39l24.27 107.95H204.42zm-29.9 0L209 126.08h14.36l-30.78 107.95h-18.06z"/></svg>