<svg xmlns="http://www.w3.org/2000/svg" shape-rendering="geometricPrecision" text-rendering="geometricPrecision" image-rendering="optimizeQuality" fill-rule="evenodd" clip-rule="evenodd" viewBox="0 0 512 447.24"><path d="M157.73 203.22c-22.05-11.2-19.52-23.69 2.63-22.38l4.96 9.29 10.22-31.79c4.01-12.5 10.7-23.85 23.81-23.85h126.36c13.11 0 20.66 11.12 23.83 23.83l7.67 30.83 4.42-8.31c22.77-1.33 24.8 11.9.7 23.33l3.92 6c15.84 16.28 14.35 32.54 11.88 72.76v13.21c0 4.1-3.35 7.45-7.45 7.45H338.9c-4.1 0-7.45-3.35-7.45-7.45v-5.98H185.57v5.98c0 4.1-3.35 7.45-7.44 7.45h-31.79c-4.1 0-7.45-3.35-7.45-7.45v-17.16c0-.4.04-.79.08-1.17-2.41-30.86-5.8-58.69 18.76-74.59zM26.28 226.13c4.02-5.87 11.91-7.85 18.29-4.38l47.04 25.71c6.81 3.71 9.32 12.24 5.61 19.05-3.71 6.81-12.24 9.33-19.05 5.62l-12.49-6.83c3.88 17 10.02 33.61 18.42 49.33a199.116 199.116 0 0 0 32.72 44.88l1.17 1.2c37.77 38.36 87.23 57.99 136.83 58.69 49.61.71 99.42-17.48 137.87-54.73l1.18-1.14c12.04-11.86 22.24-24.9 30.56-38.73 8.56-14.22 15.19-29.4 19.88-45.13 2.2-7.38 10.03-11.6 17.48-9.43 7.46 2.17 11.72 9.92 9.52 17.3-5.3 17.79-12.9 35.12-22.76 51.51a224.465 224.465 0 0 1-34.89 44.23c-.16.16-1.28 1.12-1.28 1.26-44.03 42.65-101.07 63.49-157.9 62.68-56.85-.81-113.49-23.26-156.68-67.12-.15-.16-1.14-1.31-1.27-1.3-15.15-15.64-27.6-32.88-37.34-51.14a226.58 226.58 0 0 1-21.7-59.42l-.13-.69-10.51 22.8c-3.26 7.05-11.62 10.13-18.67 6.88-7.05-3.25-10.14-11.61-6.88-18.66l22.45-48.69c.65-1.41 1.51-2.67 2.53-3.75zm461.97-8.77a13.82 13.82 0 0 1-2.53 3.75c-4.02 5.87-11.91 7.85-18.29 4.38l-47.04-25.71c-6.81-3.71-9.32-12.24-5.61-19.05 3.71-6.81 12.24-9.33 19.05-5.62l12.49 6.83c-3.88-17-10.02-33.61-18.42-49.33a199.34 199.34 0 0 0-32.72-44.88l-1.17-1.2c-37.77-38.36-87.23-57.99-136.83-58.69-49.61-.71-99.42 17.48-137.87 54.73l-1.18 1.15c-11.28 11.1-20.91 23.2-28.89 35.99a196.37 196.37 0 0 0-19.66 41.79c-2.43 7.3-10.39 11.25-17.76 8.84-7.37-2.42-11.36-10.29-8.92-17.59 5.5-16.47 12.98-32.47 22.43-47.61 9.2-14.74 20.21-28.58 33.01-41.18.16-.16 1.28-1.12 1.28-1.26C143.65 20.05 200.69-.79 257.52.02c56.85.81 113.49 23.26 156.68 67.12.15.16 1.14 1.31 1.27 1.3 15.15 15.64 27.6 32.88 37.34 51.14a226.192 226.192 0 0 1 21.61 59c.08.37.15.74.22 1.11l10.51-22.8c3.26-7.05 11.62-10.13 18.67-6.88 7.05 3.25 10.14 11.61 6.88 18.66l-22.45 48.69zm-289.94 22.46-28.24-3.55c-6.66-.74-8.45 2.07-6.18 7.81l3.05 7.41c.99 1.91 2.29 3.29 3.82 4.25 1.79 1.11 3.93 1.65 6.32 1.75l25.18.2c6.08-.02 8.72-2.45 6.81-8.03-1.57-5.24-5.14-8.53-10.76-9.84zm120.37 0 28.23-3.55c6.66-.74 8.45 2.07 6.18 7.81l-3.05 7.41c-.98 1.91-2.29 3.29-3.81 4.25-1.79 1.11-3.94 1.65-6.33 1.75l-25.18.2c-6.08-.02-8.71-2.45-6.81-8.03 1.57-5.24 5.14-8.53 10.77-9.84zm27.21-42.68-7.7-31.97c-2.1-9.74-8.17-18.17-18.17-18.17H203.69c-9.98 0-15.1 8.65-18.17 18.17l-9.6 31.97h169.97z"/></svg>