<svg xmlns="http://www.w3.org/2000/svg" shape-rendering="geometricPrecision" text-rendering="geometricPrecision" image-rendering="optimizeQuality" fill-rule="evenodd" clip-rule="evenodd" viewBox="0 0 512 394.23"><path d="M38.2 128.57c-41.24-20.96-36.51-44.32 4.92-41.88l9.28 17.39 19.12-59.46C79.03 21.22 91.54 0 116.06 0h294.99c24.53 0 38.65 20.81 44.59 44.59l14.35 57.65 8.26-15.55c42.59-2.48 46.39 22.27 1.31 43.65l7.33 11.23c29.63 30.46 26.86 60.87 22.24 136.11v24.71c0 7.66-6.28 13.94-13.94 13.94h-59.46c-7.66 0-13.93-6.28-13.93-13.94V291.2h-21.73c-2.37-7.43-5.21-14.73-8.32-21.84-3.71-8.47-7.6-16.29-11.64-23.5-9.32-16.65-29.88-44.78-51.44-66.52-4.7-4.74-9.53-9.22-14.42-13.32l20.35-23.7c4.02-4.7 6.77-9.63 8.43-14.74 1.13-3.46 1.74-6.92 1.87-10.39h103.9l-14.38-59.8c-3.95-18.21-15.29-33.99-34-33.99H124.18c-18.67 0-28.25 16.19-34 33.99l-17.95 59.8v2.82-2.82H167c.11 4.15.98 8.35 2.68 12.56 1.46 3.63 3.58 7.18 6.41 10.57l21.68 26.03c-14.21 11.88-26.88 23.93-38.76 38.3-18.03 21.83-35.79 49.4-45.67 78.67-.88 2.62-1.7 5.24-2.45 7.88H90.3v11.19c0 7.66-6.27 13.94-13.94 13.94H16.91c-7.67 0-13.94-6.28-13.94-13.94v-32.11c0-.75.07-1.46.15-2.18-4.51-57.73-10.86-109.78 35.08-139.53zm237.16 71.32-6.61-30.25c28.32 5.28 73.72 62.9 88.39 89.1 7.49 13.37 14.05 28.11 19.42 44.58 10.7 39.85.4 77.13-42.84 85.81-27.09 5.45-77.61 5.83-106.1 4.35-30.64-1.57-78.03-1.53-90.41-32.98-19.98-50.76 16.63-111.23 50.01-148.24 4.4-4.87 8.95-9.4 13.63-13.61 12.14-10.66 25.24-23.35 40.87-28.61l-15.1 28.1 21.94-29.07h11.54l15.26 30.82zm-14.16 20v8.45c5.58.59 10.38 1.74 14.35 3.44 4 1.73 7.47 4.32 10.45 7.82 2.35 2.66 4.16 5.41 5.44 8.21 1.28 2.83 1.92 5.39 1.92 7.74 0 2.61-.96 4.87-2.85 6.77-1.92 1.89-4.22 2.85-6.94 2.85-5.11 0-8.45-2.78-9.94-8.29-1.74-6.51-5.87-10.86-12.43-12.99v32.51c6.46 1.76 11.63 3.39 15.44 4.85a31.3 31.3 0 0 1 10.29 6.32c3.23 2.85 5.74 6.29 7.5 10.27 1.73 4 2.61 8.34 2.61 13.09 0 5.95-1.38 11.5-4.18 16.67-2.81 5.2-6.91 9.41-12.32 12.72-5.45 3.28-11.87 5.22-19.34 5.84v19.47c0 3.06-.29 5.3-.91 6.71-.58 1.42-1.89 2.11-3.94 2.11-1.87 0-3.18-.56-3.95-1.7-.74-1.15-1.12-2.94-1.12-5.34v-21.09c-6.08-.67-11.41-2.11-15.97-4.3-4.56-2.18-8.37-4.9-11.42-8.16-3.04-3.28-5.3-6.66-6.74-10.16-1.47-3.52-2.19-6.98-2.19-10.37 0-2.48.96-4.75 2.94-6.74 1.94-2 4.37-3.02 7.27-3.02 2.35 0 4.33.53 5.95 1.63 1.6 1.09 2.72 2.64 3.36 4.61 1.39 4.27 2.62 7.55 3.65 9.82 1.07 2.26 2.64 4.34 4.75 6.21 2.11 1.86 4.91 3.3 8.4 4.29v-36.32c-6.99-1.95-12.8-4.08-17.49-6.45-4.7-2.38-8.51-5.73-11.41-10.11-2.91-4.37-4.38-10-4.38-16.88 0-8.96 2.85-16.32 8.56-22.03 5.71-5.73 13.95-9.06 24.72-10v-8.29c0-4.38 1.66-6.56 4.93-6.56 3.34 0 4.99 2.13 4.99 6.4zm-9.92 53.6v-29.92c-4.37 1.31-7.79 3.01-10.24 5.14-2.45 2.14-3.68 5.39-3.68 9.71 0 4.11 1.15 7.23 3.44 9.34 2.29 2.1 5.79 4.02 10.48 5.73zm9.92 23.2v34.24c5.25-1.04 9.31-3.15 12.19-6.32 2.85-3.2 4.29-6.88 4.29-11.12 0-4.53-1.39-8.03-4.18-10.51-2.78-2.47-6.88-4.59-12.3-6.29zm-28.68-170.27c-4.99-14.72-9.5-29.62-13.28-44.76 14.14-15.52 68.85-13.45 84.58-.23l-14.56 34.62c7.83-10.28 10.46-14.51 15.13-20.24 1.96 1.28 3.81 2.72 5.55 4.3 4.14 3.75 7.84 7.89 8.59 13.67.48 3.74-.59 7.56-3.91 11.44l-33.43 38.92c-4.29-.71-8.49-1.73-12.57-3.18 1.89-4.47 4.18-9.37 6.07-13.83l-12.17 13.14c-12.67-2.68-22.86-1.09-32.36 3.94l-33.88-40.68c-2.01-2.41-2.92-4.85-2.92-7.26.04-9.84 14.68-18.32 22.36-21.53l16.8 31.68zm-118.41 70.61-52.81-6.64C48.83 189 45.49 194.26 49.73 205l5.71 13.86c1.84 3.57 4.28 6.16 7.14 7.96 3.34 2.07 7.36 3.08 11.83 3.27l47.1.38c11.38-.04 16.3-4.59 12.73-15.03-2.92-9.8-9.61-15.96-20.13-18.41zm283.8 0 52.81-6.64c12.47-1.39 15.81 3.87 11.57 14.61l-5.71 13.86c-1.84 3.57-4.28 6.16-7.14 7.96-3.34 2.07-7.36 3.08-11.83 3.27l-47.1.38c-11.38-.04-16.3-4.59-12.74-15.03 2.93-9.8 9.62-15.96 20.14-18.41z"/></svg>