<svg xmlns="http://www.w3.org/2000/svg" shape-rendering="geometricPrecision" text-rendering="geometricPrecision" image-rendering="optimizeQuality" fill-rule="evenodd" clip-rule="evenodd" viewBox="0 0 512 352.15"><path fill-rule="nonzero" d="M280.41 232.83c19.23 1.42 38.6 4.36 58.1 8.88 18.32 4.25 36.81 9.9 55.48 17.01L476.14 92.6C401.05 48.67 325 27.57 251.32 27.57c-75.63 0-148.92 22.2-216.24 64.71l78.77 166.3c17.78-6.85 35.73-12.44 53.83-16.7 16.73-3.94 33.66-6.76 50.78-8.39L179.65 86.34c-2.2-8.4 2.81-17 11.21-19.21 8.39-2.2 16.99 2.81 19.2 11.21l53.43 202.61.11.41c15.19 4.24 26.34 18.19 26.34 34.73 0 19.92-16.14 36.06-36.05 36.06-19.92 0-36.06-16.14-36.06-36.06 0-11.94 5.81-22.52 14.75-29.08l-7-26.54c-17.3 1.42-34.51 4.19-51.65 8.23-20.76 4.89-41.32 11.65-61.69 20.18l-12.08 5.05L0 82.47l9.86-6.58C84.54 26.07 166.52 0 251.32 0c82.22 0 166.93 24.48 250 75.57L512 82.13 407.34 293.77l-11.86-4.89c-21.24-8.77-42.27-15.52-63.11-20.35-15.31-3.55-30.48-6.05-45.5-7.54l-6.46-28.16zm114.11-116.36c6.73 0 12.18 5.45 12.18 12.17 0 6.73-5.45 12.18-12.18 12.18-6.72 0-12.17-5.45-12.17-12.18 0-6.72 5.45-12.17 12.17-12.17zM331.8 171.7c9.37 0 16.96 7.6 16.96 16.97s-7.59 16.97-16.96 16.97c-9.37 0-16.97-7.6-16.97-16.97s7.6-16.97 16.97-16.97zm-26.29-73.52c11.33 0 20.51 9.18 20.51 20.51 0 11.32-9.18 20.5-20.51 20.5-11.32 0-20.5-9.18-20.5-20.5 0-11.33 9.18-20.51 20.5-20.51zm-185.87 88.35h-.61c0-4.98-1.86-9.33-5.58-13.06-3.73-3.72-8.08-5.59-13.06-5.59v-.61c4.98 0 9.33-1.86 13.06-5.59 3.72-3.73 5.58-8.09 5.58-13.05h.61c0 4.98 1.86 9.33 5.59 13.06 3.72 3.72 8.07 5.58 13.06 5.58v.61c-4.98 0-9.34 1.87-13.06 5.59-3.73 3.73-5.59 8.08-5.59 13.06zm11.16-47.38h-1c0-8.21-3.07-15.38-9.2-21.52-6.13-6.12-13.3-9.19-21.51-9.19v-1c8.21 0 15.38-3.07 21.51-9.22 6.13-6.16 9.2-13.33 9.2-21.51h1c0 8.21 3.08 15.39 9.2 21.51 6.14 6.13 13.3 9.2 21.51 9.2v1.01c-8.21 0-15.37 3.06-21.51 9.2-6.12 6.14-9.2 13.31-9.2 21.52z"/></svg>