<svg id="Layer_1" data-name="Layer 1" xmlns="http://www.w3.org/2000/svg" viewBox="0 0 111.79 122.88"><defs><style>.cls-1{fill-rule:evenodd;}</style></defs><title>car-vehicle-road-tax</title><path class="cls-1" d="M0,110.14,19.73,0h6.63L23.78,17.73a4.39,4.39,0,0,0-.47.27A5.12,5.12,0,0,0,21,21.2,5.25,5.25,0,0,0,21.55,25a6.57,6.57,0,0,0,.85,1.22C19,30.73,19.47,36.53,20,42.86l.06.65v.11l-9.67,66.52ZM111.79,88.82,79.23,122.88l-18-16.76,1.86-2.62,13.22,12.18.17.16a3.09,3.09,0,0,0,4.36-.21l1.06-1.17,0,0,5-5.57,22.19-22.64,2.72,2.53ZM110.91,80,78.35,114.07,60.3,97.3,92.86,63.24l18,16.77ZM90.35,87.2a5.6,5.6,0,1,1-7.17-3.37,5.61,5.61,0,0,1,7.17,3.37Zm12.42-3.94L81,105.68a3.65,3.65,0,0,0-5.14.2l-7.14-6.63a3.63,3.63,0,0,0-.19-5.13L90.3,71.68a3.65,3.65,0,0,0,5.14-.19l7.14,6.62a3.65,3.65,0,0,0,.19,5.15ZM28.25,25.91c-5.2-2.64-4.61-5.59.62-5.28L30,22.82l2.41-7.5c.95-3,2.52-5.63,5.62-5.63H68.9c3.1,0,4.88,2.63,5.63,5.63l1.81,7.27,1-2c5.37-.32,5.85,2.81.16,5.5l.93,1.42c3.73,3.84,3.38,7.67,2.8,17.16v3.12a1.76,1.76,0,0,1-1.76,1.76H72a1.76,1.76,0,0,1-1.76-1.76V46.42H34.82v1.41a1.76,1.76,0,0,1-1.76,1.76h-7.5a1.77,1.77,0,0,1-1.76-1.76v-4a2.13,2.13,0,0,1,0-.27c-.57-7.29-1.37-13.85,4.43-17.6Zm9.57,8.63-6.66-.84c-1.57-.17-2,.49-1.46,1.85l.72,1.74a2.48,2.48,0,0,0,.9,1,3,3,0,0,0,1.49.41l5.94,0c1.44,0,2.06-.58,1.61-1.9a3.22,3.22,0,0,0-2.54-2.32Zm29.43,0,6.66-.84c1.57-.17,2,.49,1.46,1.85l-.72,1.74a2.57,2.57,0,0,1-.91,1,3,3,0,0,1-1.49.41l-5.94,0c-1.43,0-2-.58-1.6-1.9a3.22,3.22,0,0,1,2.54-2.32ZM32.54,24.47H73.66l-1.81-7.54c-.5-2.29-1.93-4.28-4.29-4.28H39.09c-2.35,0-3.56,2-4.29,4.28l-2.26,7.54v0ZM55.2,50.21l.27,6H49.41l.41-6ZM47.46,88.39h10l.36,3.84L55,95.12a3.81,3.81,0,0,0,.2,5.39l2.27,2.11-1.74,2.45a3.76,3.76,0,0,0-.75,2.76H45.83l1.63-19.44ZM49,65h7.14l.74,14.61H48.2L49,65ZM85.93,0l10,57.4a3.81,3.81,0,0,0-5.16.33l-2.89,3-2.69-18c.46-7.65.55-11.73-2.19-15.64a7.85,7.85,0,0,0,1.63-1.95,5.32,5.32,0,0,0,.67-3.77A5.06,5.06,0,0,0,83,18.05a6.47,6.47,0,0,0-1.61-.75L78.82,0Z"/></svg>