<svg xmlns="http://www.w3.org/2000/svg" shape-rendering="geometricPrecision" text-rendering="geometricPrecision" image-rendering="optimizeQuality" fill-rule="evenodd" clip-rule="evenodd" viewBox="0 0 512 343.79"><path d="M59.18 227.03c2.68-15.04 10.22-24.33 25.15-24.89-.2-2.57-.3-5.08-.28-7.52-16.39 3.34-31.79-1.01-46.48-11.52C11.6 164.52 3.24 144.53.45 113.03-.69 100.24.3 87.97 3.71 76.31 20.1 97.94 35.15 112.88 47.5 114.6c-4.29-8.05-7.85-16.34-10.59-24.85-8.97-27.91-1.66-33.75-4.23-56.63-1.27-11.24-5.65-21.55-13.86-30.83C49.32-8.4 98.53 19.13 134.76 68.83c1.88-12.91.2-25.66-5.77-38.22 19.26 5.73 33.68 17.26 45.1 32.39 17.41 22.7 22.15 43.48 13.12 62.16 12.73-2.02 25.46-3.8 38.19-5.32 25.01-2.97 50.02-4.91 75.02-5.62 11.59-.34 8.81.31 17.99-6.8 44.99-34.79 93.97-63.28 145.35-88.01 13.39-6.63 29.61-10.74 48.24-12.7v18.67c-24.62 3.12-32.04 5.64-59.12 20.02-25.22 13.39-48.23 28.09-72.74 44.13-5.14 3.36-10.24 6.77-15.3 10.25v30.47H512v175.78H322.16c20.29-93.34-40.06-131.36-95.49-125.92-71.34 7-90.11 64.21-77.86 127.04H87.04c-17.63.74-25.82-13.32-27.86-37.06v-43.06zm26.52-47.39c1.45-6.34 3.84-12.12 7.16-17.35 3.22-5.05 7.31-9.59 12.27-13.63 17.31-14.05 36.89-15.56 58.21-19.43 3.61-.66 7.23-1.3 10.85-1.92-3.38-9.13-9.62-15.89-19.1-22.98-5.65-4.21-11.66-7.3-18.09-9.07 5.37 13.89 8.01 25.22 5.25 31.49-2.52-4.33-5.36-8.38-8.55-12.11-10.44-12.24-15.27-10.51-25.21-18.31-4.88-3.83-8.43-8.86-10.4-15.36-13.79 11.15-15.13 42.07-2.37 73.31-6.57-2.84-12.04-7.3-16.18-13.71-2.89 10.64-1.65 20.7 2.12 30.39 1.21 3.21 2.56 6.1 4.04 8.68zm158.7 59.42v25.53h25.52c-3.08-12.56-12.96-22.45-25.52-25.53zm25.52 42.16H244.4v25.52c12.56-3.07 22.44-12.96 25.52-25.52zm-42.15 25.52v-25.52h-25.53c3.08 12.56 12.96 22.45 25.53 25.52zm-25.53-42.15h25.53v-25.53c-12.56 3.08-22.45 12.97-25.53 25.53zm33.84-62.57c39.15 0 70.88 31.74 70.88 70.88 0 39.15-31.73 70.89-70.88 70.89-39.14 0-70.88-31.74-70.88-70.89 0-39.14 31.74-70.88 70.88-70.88z"/></svg>