<svg xmlns="http://www.w3.org/2000/svg" shape-rendering="geometricPrecision" text-rendering="geometricPrecision" image-rendering="optimizeQuality" fill-rule="evenodd" clip-rule="evenodd" viewBox="0 0 512 474.07"><path fill="#1A1A1A" fill-rule="nonzero" d="M404.69 79.19c14.48-13.87 41.46-15.16 44.72-1.14l62.23 219.08c1.71 6.06-2.91 12.04-9.13 12.04l-166.53.02c-8.33 0-15.07-6.41-19.09-14.99-10.17 4.32-19.81 6.39-28.92 6.59h-.11c-10.55.21-20.15-2.1-28.82-6.34l.01-.04c-5.56-2.71-10.71-6.04-15.46-9.87-27.5-22.19-43.91-63.01-49.2-106.42-5.2-42.67.27-88.48 16.47-121.61 3.9-7.98 8.4-15.23 13.49-21.53 13.82-17.12 29.94-27.36 46.94-32.01 18.81-5.16 38.38-3.36 56.83 3.58 19.15 7.19 34.88 18.44 47.99 32.21 11.37 11.95 20.72 25.76 28.58 40.43z"/><path fill-rule="nonzero" d="M82.42 436.97c2.89-8.91 9.95-18.72 21.97-28.29.85-.8 1.93-1.37 3.17-1.58l227.5-39.86c2.14-.29 4.29-.48 6.44-.55 9.29-.28 17.82 1.75 24.51 6.42 6.92 4.85 11.72 12.33 13.16 22.75.19 1.44.32 2.93.39 4.5l.05.74-.03 37.74c-.44 10.31-4.66 19.24-11.65 25.56-6.77 6.12-16.07 9.71-26.95 9.67l-223.5-.78c-10.17.5-18.67-1.58-24.87-5.52-5.12-3.25-8.72-7.77-10.53-13.2-1.74-5.26-1.73-11.26.34-17.6z"/><path fill-rule="nonzero" d="m106.47 417.91-50.83-37.7a6.256 6.256 0 0 1-2.38-3.76L11.98 170.96c-.36-3.4 2.1-6.46 5.51-6.82l58.57-6.26c2.49-.25 5 1.03 6.19 3.4 5.76 11.48 12.63 24.48 19.72 37.91 23.63 44.79 49.87 94.51 60.67 137.12 1.69 6.71 4.63 20.75 6.11 33.27 1 8.59 1.31 16.66.11 21.76l-.07.33c-2.13 8.39-10.33 14.84-20.7 19.33-11.66 5.06-26.51 7.88-37.63 8.12-1.39.07-2.79-.32-3.99-1.21zM2.48 131.75c-4.96-26.7-2.4-46.94 7.02-61.71 9.57-15.03 25.89-24 48.3-28.04 3.35-.6 6.57 1.63 7.18 4.97l14.31 70.78c.91 5.06.68 9.66-1.1 13.58-1.95 4.33-5.5 7.52-11.05 9.24-.44.14-.88.23-1.33.26l-40.83 5.6c-6.23 1.48-11.17.7-15.04-1.94-3.89-2.66-6.24-6.9-7.39-12.34l-.07-.4z"/><path fill="#fff" fill-rule="nonzero" d="M111.22 419.05c-9.42 7.7-14.87 15.19-17.01 21.75-1.22 3.76-1.3 7.12-.38 9.89.87 2.63 2.73 4.89 5.43 6.6 4.14 2.63 10.15 4 17.67 3.62l224.05.79c7.69.03 14.12-2.38 18.65-6.47 4.49-4.06 7.22-9.86 7.57-16.64l-.01-37.77c-.05-1.12-.15-2.21-.29-3.26-.93-6.71-3.83-11.4-7.98-14.31-4.38-3.06-10.33-4.39-17.03-4.18-1.56.04-3.21.19-4.92.42l-225.75 39.56zm-46.3-47.37 47.19 35c9.51-.47 21.54-2.9 31.08-7.03 7.07-3.06 12.51-6.87 13.57-11.04l.05-.19c.81-3.52.47-10.11-.39-17.43-1.4-11.91-4.2-25.29-5.82-31.67-10.43-41.19-36.3-90.2-59.6-134.35-6.15-11.68-12.14-23.01-17.87-34.31l-47.59 5.09 39.38 195.93zM19.93 76.69c-7.69 12.06-9.63 29.36-5.27 52.82l.01.06c.5 2.35 1.23 3.98 2.26 4.68.98.67 2.72.74 5.39.07l41.53-5.72c1.62-.57 2.59-1.38 3.04-2.37.66-1.46.67-3.65.2-6.35L54.07 55.42c-15.86 3.77-27.38 10.66-34.14 21.27z"/><path fill-rule="nonzero" d="M69.62 366.16c14.65 0 27.93 5.95 37.55 15.57l.05.05c9.62 9.62 15.57 22.9 15.57 37.55 0 14.65-5.95 27.93-15.57 37.55l-.05.05c-9.62 9.62-22.9 15.58-37.55 15.58-14.68 0-27.98-5.96-37.6-15.58l-.71-.78c-9.2-9.56-14.86-22.54-14.86-36.82 0-14.65 5.95-27.93 15.57-37.55v-.05c9.62-9.62 22.92-15.57 37.6-15.57zm20.05 33.12a28.287 28.287 0 0 0-20.05-8.27c-7.81 0-14.91 3.18-20.02 8.29-5.14 5.11-8.3 12.2-8.3 20.03 0 7.57 2.95 14.44 7.75 19.52l.55.51c5.11 5.12 12.21 8.3 20.02 8.3 7.84 0 14.93-3.17 20.05-8.27a28.329 28.329 0 0 0 8.27-20.06c0-7.83-3.16-14.92-8.27-20.05z"/><circle fill="#fff" cx="69.62" cy="419.33" r="40.75"/><path fill="#E6E6E6" d="M397.25 90.08c-15.96-31.69-38.45-59.59-73.22-72.66-30.91-11.62-64.93-7-90.63 24.84-47.62 59.01-37.03 208.59 30.73 241.73 13.73 6.71 30.06 7.52 49.28-.96-1.24-7.28-.69-14.81 2.16-20.79l81.68-172.16z"/><path fill-rule="nonzero" d="M299.8 28.43a4.655 4.655 0 1 1 1.56 9.18c-9.05 1.57-17.68 4.77-25.5 9.8-7.36 4.72-14.04 11.1-19.73 19.29a4.677 4.677 0 0 1-6.49 1.17 4.666 4.666 0 0 1-1.16-6.49c6.4-9.21 13.97-16.42 22.35-21.81 8.91-5.72 18.71-9.36 28.97-11.14z"/></svg>