<svg id="Layer_1" data-name="Layer 1" xmlns="http://www.w3.org/2000/svg" viewBox="0 0 122.54 122.88"><defs><style>.cls-1{fill-rule:evenodd;}</style></defs><title>crowded-street</title><path class="cls-1" d="M0,122.88,6.49,95.79l.19.25a7.65,7.65,0,0,0,5.05,3,7.34,7.34,0,0,0,1.4.07v15.19l-1.78,8.62Zm81.13-14.42v14.42h8.78V108.46H92v14.42h8.78V108.46h6.27l-6.2-29.39c.21.47.42,1,.63,1.45a53.37,53.37,0,0,1,3.21,10.75,4.11,4.11,0,1,0,8.09-1.51,62,62,0,0,0-3.7-12.4A54,54,0,0,0,103,66.45a4.06,4.06,0,0,0-2.51-1.6v0a51.25,51.25,0,0,0-19,0v.06a4.07,4.07,0,0,0-2.74,1.65A53.06,53.06,0,0,0,73.23,76a53.29,53.29,0,0,0-5-9.57,4,4,0,0,0-2.72-1.76v-.08c-4.87-1.39-13.89-1.44-19.07-.16v.12a4,4,0,0,0-3.15,1.8,53.78,53.78,0,0,0-5.55,11.16l-.18.51A38.42,38.42,0,0,0,35,73.24a3.06,3.06,0,0,0-2.37-1.38c-1.49-.64-13.27-1-14.74.14a3,3,0,0,0-1.63,1.24,40,40,0,0,0-4.17,8.36A46.61,46.61,0,0,0,9.73,91a3.08,3.08,0,1,0,6.1.84A39.07,39.07,0,0,1,17.7,84.1v30.65h6.47V98h2v16.78h6.47V82c.24.57.47,1.15.69,1.75A39.93,39.93,0,0,1,34.84,89L34.69,90a4,4,0,1,0,7.94,1.09,53.76,53.76,0,0,1,2.7-10.91c.36-1,.75-2,1.16-2.91V97.75h0v25.13h8.78V99.05h1.49v23.83h8.78V78.33c.26.63.51,1.28.75,1.93a53.33,53.33,0,0,1,2.55,10A4.12,4.12,0,0,0,77,91.33,52.83,52.83,0,0,1,80.2,80.57q.48-1.17,1-2.28l-6.35,30.17ZM25.27,55.34a7.19,7.19,0,1,1-7.19,7.19,7.19,7.19,0,0,1,7.19-7.19Zm30.49-13a9.5,9.5,0,1,1-9.5,9.49,9.5,9.5,0,0,1,9.5-9.49Zm34.94,0a9.5,9.5,0,1,1-9.5,9.49,9.49,9.49,0,0,1,9.5-9.49ZM12.55,70.54l1.27-5.31A11.67,11.67,0,0,0,15,68.3a7.48,7.48,0,0,0-.84.54h0a7.39,7.39,0,0,0-1.63,1.71Zm3.74-15.6L29.46,0h7.2L26.19,50.81c-.3,0-.61,0-.92,0a11.74,11.74,0,0,0-8,3.15q-.16.13-.33.3-.35.35-.66.72ZM59.7,0h3.19l.9,14.14H58.58L59.7,0ZM58.18,23.56h6.23l.7,13.29H57.44l.74-13.29ZM86,0h7.74l16.08,68.63a53.47,53.47,0,0,0-3.16-4.86,8.62,8.62,0,0,0-2.32-2.2,8.94,8.94,0,0,0-1.95-.92,4.07,4.07,0,0,0-.58-.22A14.07,14.07,0,0,0,94,38.12L86,0Zm30,95.17,6.49,27.71H111.76l-2.22-10.58a4.6,4.6,0,0,0,1.9-5.12l-1.7-8.05h.12a4.84,4.84,0,0,0,1-.18,8.68,8.68,0,0,0,5.09-3.53l.15-.24Z"/></svg>