<svg xmlns="http://www.w3.org/2000/svg" shape-rendering="geometricPrecision" text-rendering="geometricPrecision" image-rendering="optimizeQuality" fill-rule="evenodd" clip-rule="evenodd" viewBox="0 0 512 478.46"><path fill-rule="nonzero" d="M85.94 439.18c3.04-9.34 10.44-19.64 23.01-29.67.95-.9 2.17-1.54 3.55-1.78l237.18-41.55c2.25-.31 4.51-.5 6.77-.57 9.78-.31 18.76 1.84 25.81 6.77 7.33 5.14 12.4 13.03 13.92 24.03.2 1.5.34 3.07.41 4.71l.05.81-.03 39.36c-.46 10.87-4.92 20.29-12.3 26.96-7.14 6.46-16.94 10.25-28.39 10.2l-232.97-.81c-10.7.53-19.65-1.66-26.19-5.82-5.43-3.45-9.25-8.24-11.16-14-1.86-5.58-1.84-11.93.34-18.64zM2.59 121.27C-2.6 93.29.09 72.08 9.97 56.57c10.06-15.79 27.17-25.21 50.66-29.44 3.75-.67 7.34 1.83 8.02 5.58 3.34 23.39 10.29 50.11 14.91 73.76.97 5.36.71 10.24-1.17 14.41-2.1 4.64-5.89 8.05-11.8 9.89-.49.15-.97.24-1.46.29l-42.57 5.83c-6.61 1.57-11.87.72-16-2.1-4.16-2.84-6.67-7.35-7.9-13.15l-.07-.37z"/><path fill-rule="nonzero" d="m111.18 419.82-52.99-39.3a6.846 6.846 0 0 1-2.65-4.2L12.49 162.06c-.4-3.79 2.35-7.2 6.15-7.6l61.06-6.53c2.78-.28 5.58 1.14 6.9 3.79 5.93 11.81 13.13 25.44 20.56 39.51 24.64 46.71 52.01 98.56 63.28 143.05 1.77 7.01 4.84 21.67 6.38 34.74 1.06 8.98 1.38 17.43.12 22.81l-.08.38c-2.27 8.91-10.92 15.72-21.85 20.46-12.26 5.31-27.88 8.27-39.53 8.51h-.05a6.84 6.84 0 0 1-4.25-1.36z"/><path fill="#fff" fill-rule="nonzero" d="M116.59 421.08c-9.69 7.93-15.3 15.63-17.49 22.38-1.24 3.82-1.33 7.23-.4 10.03.87 2.63 2.75 4.91 5.47 6.63 4.24 2.7 10.42 4.1 18.16 3.71l233.59.82c7.91.03 14.5-2.43 19.14-6.63 4.58-4.13 7.37-10.07 7.73-17v-39.38c-.05-1.14-.16-2.26-.3-3.34-.96-6.86-3.91-11.65-8.13-14.6-4.48-3.14-10.59-4.49-17.48-4.29-1.6.05-3.3.2-5.06.44l-235.23 41.23zM68.54 371l48.93 36.29c9.84-.51 22.23-3.02 32.07-7.29 7.25-3.14 12.83-7 13.89-11.2l.06-.21c.83-3.62.47-10.42-.42-18-1.46-12.4-4.37-26.31-6.05-32.95-10.86-42.88-37.82-93.95-62.1-139.96-6.34-12.02-12.5-23.69-18.49-35.49l-48.8 5.21L68.54 371zM21.61 63.98c-7.95 12.48-9.95 30.42-5.41 54.79.49 2.33 1.19 3.94 2.16 4.6.91.62 2.61.67 5.25.01l.74-.14 42.56-5.83c1.54-.55 2.45-1.3 2.86-2.21.65-1.44.65-3.63.17-6.36L56.47 42.11c-16.18 3.94-27.94 11.02-34.86 21.87z"/><path fill-rule="nonzero" d="M73.03 364.6c15.52 0 29.59 6.31 39.79 16.5l.05.05c10.19 10.2 16.5 24.27 16.5 39.79s-6.31 29.58-16.5 39.78l-.05.06c-10.2 10.19-24.27 16.5-39.79 16.5-15.55 0-29.64-6.31-39.83-16.5l-.81-.88c-9.72-10.12-15.69-23.86-15.69-38.96 0-15.52 6.31-29.59 16.5-39.79v-.05c10.19-10.19 24.28-16.5 39.83-16.5zm20.27 36.07c-5.17-5.16-12.35-8.35-20.27-8.35-7.9 0-15.06 3.2-20.23 8.38-5.19 5.15-8.38 12.31-8.38 20.24 0 7.62 2.95 14.55 7.78 19.67l.6.57a28.539 28.539 0 0 0 20.23 8.38c7.92 0 15.1-3.2 20.27-8.36 5.16-5.17 8.35-12.34 8.35-20.26 0-7.93-3.19-15.09-8.35-20.27z"/><circle fill="#fff" cx="73.03" cy="420.94" r="42.48"/><path fill="#E6E6E6" d="M401.09 92.91C384.54 61 361.4 33.13 326.14 19.87c-32.22-12.11-67.68-7.29-94.47 25.9-49.64 61.51-38.6 217.44 32.03 251.99 13.61 6.65 29.68 7.74 48.45.23a38.287 38.287 0 0 1 2.99-23.94l85.95-181.14z"/><path fill-rule="nonzero" d="M410.13 80.51c3.82-3.48 8.27-6.12 13.05-7.82 9.07-3.22 19.33-3.05 28.73 1.23l1.16.55c9.26 4.6 15.89 12.49 19.12 21.6 3.22 9.06 3.05 19.33-1.24 28.72l-6.41 13.25 12.64 54.33c2 .19 4.01.69 5.95 1.54 4.89 2.12 8.46 6.04 10.27 10.64 1.79 4.58 1.84 9.87-.29 14.76L485.35 237 512 249.35v34.51l-39.11-18.44-6.69 15.26a19.254 19.254 0 0 1-10.65 10.25 19.247 19.247 0 0 1-14.2-.05c-.38-.12-.73-.28-1.07-.46-.53-.25-1.05-.53-1.54-.82l-52.26 13.18-2.24 4.84c-4.6 9.27-12.49 15.9-21.6 19.13-9.07 3.22-19.33 3.06-28.73-1.23l-1.14-.54a38.29 38.29 0 0 1-15.55-14.12c-8.64 3.46-16.9 5.39-24.76 5.98-12.73.97-24.32-1.55-34.82-6.68-5.91-2.89-11.38-6.42-16.43-10.49-29.03-23.43-46.35-66.41-51.91-112.07-5.46-44.78.31-92.9 17.34-127.73 4.12-8.44 8.88-16.1 14.26-22.76 14.64-18.15 31.76-29.01 49.82-33.95 19.98-5.48 40.74-3.58 60.29 3.77 27.52 10.35 48.3 28.53 64.49 50.56 5.37 7.31 10.22 15.04 14.63 23.02zm-97.98 217.48a38.287 38.287 0 0 1 2.99-23.94l85.95-181.14C384.54 61 361.4 33.13 326.14 19.87c-32.22-12.11-67.68-7.29-94.47 25.9-49.64 61.51-38.6 217.44 32.03 251.99 13.61 6.65 29.68 7.74 48.45.23zm142.31-139.06c-20.27 42.08-40.44 84.57-60.1 126.86l35.24-8.89c-.75-3.6-.48-7.45.99-11.1l27.14-61.91a19.17 19.17 0 0 1 5.5-7.26l-8.77-37.7z"/><path fill="#fff" fill-rule="nonzero" d="M412.44 97.66c6.19-13.01 21.76-18.54 34.78-12.34 13.01 6.2 18.54 21.77 12.34 34.78l-86.18 181.68c-6.19 13.02-21.76 18.54-34.78 12.35-13.01-6.2-18.53-21.77-12.34-34.79l86.18-181.68z"/><path fill-rule="nonzero" d="M303.8 35.32a4.842 4.842 0 0 1 4.91 4.76c.04 2.67-2.09 4.88-4.76 4.92-9.57.17-18.98 2.1-27.85 6.04-8.32 3.69-16.22 9.21-23.39 16.74a4.848 4.848 0 0 1-6.85.17c-1.94-1.84-2.01-4.91-.17-6.85 8.06-8.46 17.01-14.69 26.51-18.91 10.08-4.48 20.76-6.67 31.6-6.87z"/></svg>