<svg id="Layer_1" data-name="Layer 1" xmlns="http://www.w3.org/2000/svg" viewBox="0 0 122.88 68.65"><defs><style>.cls-1{fill-rule:evenodd;}</style></defs><title>drop-off</title><path class="cls-1" d="M58.49,6.91c-4.79,0-7.23,4.14-8.69,8.71l-3.74,11.6-1.8-3.39c-8.09-.48-9,4.08-1,8.17h0c-9,5.81-7.72,16-6.84,27.24a2.77,2.77,0,0,0,0,.42v6.27a2.73,2.73,0,0,0,2.72,2.72h11.6a2.73,2.73,0,0,0,2.72-2.72V63.74h51.81v2.19A2.74,2.74,0,0,0,108,68.65H119.6a2.74,2.74,0,0,0,2.72-2.72V61.11c.9-14.69,1.44-20.62-4.34-26.57l-1.43-2.19c8.8-4.17,8.06-9-.26-8.52l-1.61,3-2.8-11.25c-1.16-4.64-3.92-8.7-8.7-8.7Zm-.93,20.45c1.2-.94,10.9-.64,12.12-.11a2.49,2.49,0,0,1,1.95,1.13,25.93,25.93,0,0,1,2.71,4.16h36.21l-2.81-14.43c-.77-3.55-3-6.63-6.64-6.63h-41A5.33,5.33,0,0,0,56.26,13a5.1,5.1,0,0,0-1.32,1.67,16,16,0,0,0-1.5,3.42l-3.5,14.43h3.57a26.59,26.59,0,0,1,2.7-4.16,2.52,2.52,0,0,1,1.35-1Zm6.1-13.24A5.92,5.92,0,1,1,57.75,20a5.92,5.92,0,0,1,5.91-5.91ZM16.84,0A7.58,7.58,0,1,1,9.26,7.58,7.58,7.58,0,0,1,16.84,0ZM6.93,19.15a3.2,3.2,0,0,1,2.52-1.44v-.1a36.57,36.57,0,0,1,15.21.13v.07a3.13,3.13,0,0,1,2.17,1.4,42.23,42.23,0,0,1,4.43,8.9,49,49,0,0,1,2.48,10A3.2,3.2,0,1,1,27.4,39a43.09,43.09,0,0,0-2.15-8.7c-.2-.53-.39-1-.6-1.54V63.88c0,4.14-6.82,4.44-6.82,0V42.81H16.27V63.88c0,4.44-6.82,4.14-6.82,0v-36c-.33.74-.64,1.52-.93,2.32a42.53,42.53,0,0,0-2.15,8.71A3.2,3.2,0,0,1,0,38.06a49.2,49.2,0,0,1,2.48-10,43,43,0,0,1,4.42-8.9ZM58.11,45.37,47.8,44.07c-2.43-.27-3.08.75-2.26,2.85l1.12,2.71a3.91,3.91,0,0,0,1.39,1.55,4.79,4.79,0,0,0,2.31.64l9.19.07c2.22,0,3.19-.89,2.49-2.93a5,5,0,0,0-3.93-3.59Zm42.5,0,10.31-1.3c2.43-.27,3.09.75,2.26,2.85l-1.12,2.71a3.91,3.91,0,0,1-1.39,1.55,4.79,4.79,0,0,1-2.31.64l-9.19.07C97,51.88,96,51,96.68,49a5,5,0,0,1,3.93-3.59Z"/></svg>