<svg id="Layer_1" data-name="Layer 1" xmlns="http://www.w3.org/2000/svg" viewBox="0 0 81.04 122.88"><title>electric-scooter</title><path d="M47.47,22.41a10.05,10.05,0,1,0-13.9,0,10,10,0,0,0,13.9,0ZM43.11,46.25h4.16a1.09,1.09,0,0,1,1.09,1.09,1,1,0,0,1-.19.6l-9.9,16.9a1.09,1.09,0,0,1-2-.78l1.46-10.37-4.93.09a1.09,1.09,0,0,1-1.1-1.07,1.1,1.1,0,0,1,.15-.57l9.74-16.89a1.09,1.09,0,0,1,2,.7l-.5,10.3ZM32.82,104.67h15.4v10.51a7.72,7.72,0,0,1-7.7,7.7h0a7.72,7.72,0,0,1-7.7-7.7V104.67Zm5-33.74H43.2A11.88,11.88,0,0,1,55.05,82.79v17a2,2,0,0,1-2,2H28a2,2,0,0,1-2-2v-17A11.9,11.9,0,0,1,37.85,70.93Zm5.35,4H37.85A7.89,7.89,0,0,0,30,82.79v15H51.06v-15a7.89,7.89,0,0,0-7.86-7.87ZM54.89,23.38A20.38,20.38,0,0,1,70.53,43.12v37.6a20.21,20.21,0,0,1-6,14.32,20.8,20.8,0,0,1-3.43,2.77V92.43l.42-.4a16,16,0,0,0,4.71-11.31V43.12a16.09,16.09,0,0,0-15.68-16,15.09,15.09,0,0,1-9.66,3c-5,0-8-1.34-10.41-3a16.05,16.05,0,0,0-15.72,16v37.6a16,16,0,0,0,4.6,11.21l.1.1.42.4v5.38A20.8,20.8,0,0,1,16.48,95l-.12-.12a20.25,20.25,0,0,1-5.84-14.2V43.12a20.18,20.18,0,0,1,6-14.32h0a20.39,20.39,0,0,1,9.66-5.41,11.12,11.12,0,0,0-7.8-3.1H5.17c-6.89,0-6.89-10.42,0-10.42H18.34C28,9.86,27.43,0,40.92,0,53.21,0,53.16,9.86,62.7,9.86H75.88c6.89,0,6.89,10.42,0,10.42H62.7a11.24,11.24,0,0,0-7.81,3.1Z"/></svg>