<svg id="Layer_1" data-name="Layer 1" xmlns="http://www.w3.org/2000/svg" viewBox="0 0 122.88 108.8"><defs><style>.cls-1{fill-rule:evenodd;}</style></defs><title>electric-kick-scooter</title><path class="cls-1" d="M60.06,50.74A13.37,13.37,0,1,1,46.69,64.1,13.36,13.36,0,0,1,60.06,50.74ZM19.16,75.2A16.81,16.81,0,0,1,35.88,90.31H58.63c21.2,0,19.24-.29,23.52-17.3l1.16-4.52,5.14-19.92a2.54,2.54,0,0,1,.3-.67L82.64,28.78a2.34,2.34,0,1,1,4.46-1.45l15.66,48.2a16.47,16.47,0,0,1,3.32-.33,16.82,16.82,0,1,1-7.74,1.89l-7-21.16L87.84,69.65l-1.14,4.5C81.53,94.66,83.48,95,58.63,95H35.7A16.81,16.81,0,1,1,19.16,75.2ZM71.83,1.27a3.9,3.9,0,0,1,1.59.33,3.52,3.52,0,0,1,.36-.41A4,4,0,0,1,76.65,0a4.06,4.06,0,0,1,3.43,6.25L83.82,17.3a4,4,0,0,1,2.79,3.86A4.06,4.06,0,0,1,85.42,24h0a4.07,4.07,0,0,1-5.74,0,4,4,0,0,1-1.19-2.87,4.1,4.1,0,0,1,.85-2.5L75.74,8a4,4,0,0,1-2-1.08,3.38,3.38,0,0,1-.31-.35,4,4,0,0,1-1.64.35,3.71,3.71,0,0,1-2.38-.82,2.6,2.6,0,0,1-1-2,2.58,2.58,0,0,1,1-2,3.71,3.71,0,0,1,2.38-.82ZM48.47,81.41H70.78v3.84H48.47V81.41ZM0,75.74A25.85,25.85,0,0,1,11.13,67.4,23.1,23.1,0,0,1,22.28,66,21.77,21.77,0,0,1,33,70.49a28.39,28.39,0,0,1,8.9,12.58l-3.58,1.37a24.65,24.65,0,0,0-7.66-10.92,18.15,18.15,0,0,0-8.86-3.71A19.35,19.35,0,0,0,12.49,71,21.94,21.94,0,0,0,3,78.08L0,75.74Zm104.1,3.89,1.3,3.93A2.34,2.34,0,1,1,100.94,85l-1.25-3.79a12.53,12.53,0,1,0,6.39-1.75,11.84,11.84,0,0,0-2,.16ZM27.63,95a2.35,2.35,0,1,1,0-4.7h3.95a12.5,12.5,0,1,0-.25,4.7Zm78.45-7.38A4.39,4.39,0,0,1,110.46,92a4.4,4.4,0,0,1-1.29,3.1,4.37,4.37,0,1,1-3.09-7.47Zm-86.92,0a4.37,4.37,0,1,1-3.09,1.28,4.39,4.39,0,0,1,3.09-1.28ZM61.87,61.87h2.46a.64.64,0,0,1,.53,1L59,72.83a.64.64,0,0,1-1.18-.46l.86-6.11-2.9,0a.64.64,0,0,1-.65-.63.56.56,0,0,1,.09-.34l5.74-10a.64.64,0,0,1,.88-.23.67.67,0,0,1,.31.65l-.3,6.07Z"/></svg>