<svg xmlns="http://www.w3.org/2000/svg" shape-rendering="geometricPrecision" text-rendering="geometricPrecision" image-rendering="optimizeQuality" fill-rule="evenodd" clip-rule="evenodd" viewBox="0 0 512 395.5"><path fill-rule="nonzero" d="M.14 106.26C-.49 94.27 1 82.72 4.42 71.58c3.38-11.02 8.65-21.61 15.6-31.79l.06-.1.06-.07.01-.03c.27-.39.59-.74.96-1.04l.02-.01.19-.15c.12-.09.24-.17.37-.24l.04-.03.04-.02a5 5 0 0 1 1.35-.53l95.41-22.51.31-.07 51.61-12.17C181.06.49 191.32-.46 201.16.21c10.08.68 19.76 3.05 28.96 7.36 36.11 16.92 48.02 52.64 59.63 87.45 2.08 6.24 4.16 12.47 6.5 18.88l30.41 83.26c4.53 12.33 7.64 25.35 9.11 38.2 1.44 12.59 1.32 25.07-.58 36.66-1.66 10.17-4.52 19.24-8.43 26.93-2.88 5.66-6.34 10.61-10.34 14.74 22.43 33.35 50.99 51.35 78.64 57.34 12.74 2.75 25.27 2.98 36.87.99 11.47-1.96 22.03-6.06 30.97-11.97 13.79-9.11 23.82-22.61 27.43-39.24l21.67 4.68c-4.89 22.57-18.37 40.8-36.87 53.03-11.53 7.61-24.98 12.87-39.47 15.35-14.34 2.45-29.74 2.2-45.28-1.17-32.92-7.13-66.64-28.22-92.65-67.12-7.13 2.35-15.04 2.95-23.61 1.55-7.04-1.15-14.49-3.64-22.28-7.6-21.96-11.17-36.21-22.97-46.82-37.42-10.51-14.3-17.25-30.99-24.35-52.16l-17.38-51.84-61.12 14.74a64.73 64.73 0 0 1-26.29 4.32c-16.6-.73-32.99-7.77-46.38-20.54a83.985 83.985 0 0 1-5.02-5.23c-7.39-8.37-13.06-18.28-17.07-29.07-4.2-11.3-6.6-23.58-7.27-36.07zm141.81-86.49 51.68 11.67.11.02h.01l.11.03h.01l.11.03.12.04h.01l.11.03.01.01.1.03.02.01.09.03.02.01.09.04.03.01.09.04.02.01.09.04.02.01.09.04.02.01.08.05.03.01.08.05.03.01.08.05.02.01.08.05.03.02.08.05.02.02.08.05.02.02.08.05.02.02.08.06.01.01.09.07.09.08.01.01.09.08.08.08.01.01.08.07.01.02.07.07c15.81 16.08 23.44 36.45 24.15 59.14.72 23.16-5.83 48.72-18.25 74.53l40.18 98.79c31.76-1.92 59.82-13.07 82.29-37.42-1.6-9.25-4.07-18.48-7.32-27.34l-30.42-83.31c-2.2-6.02-4.39-12.57-6.58-19.15-10.94-32.8-22.16-66.45-54.41-81.56-8-3.75-16.5-5.82-25.4-6.42-8.93-.61-18.25.26-27.91 2.37l-30.64 7.24zm49.23 22.24-45.03 14.46c6.98 15.55 10.52 29.2 11.31 41.93.89 14.43-1.75 27.62-6.9 41.03-2.54 6.61-5.74 13.11-9.52 19.2-3.63 5.88-7.83 11.41-12.54 16.35-.55.57-1.1 1.13-1.67 1.69l38.27-9.23c.17-.05.35-.09.53-.13l27.69-5.34c11.66-24.3 17.8-48.2 17.14-69.66-.6-19.19-6.71-36.46-19.28-50.3zm-51 5.92 33.57-10.77-53.91-12.17-64.56 15.23 84.06 7.56c.29.03.57.08.84.15zm91.51 217.74-38.06-93.61-20.54 3.97 17.03 50.76c4.8 14.34 9.41 26.49 15.15 37.07 9.03 1.17 17.85 1.79 26.42 1.81zM98.19 118.41c5.18 0 9.7 3.01 12.83 7.85 5.88 9.03 5.87 23.13.03 32.17l-.29.41c-3.12 4.6-7.54 7.44-12.57 7.44-5.17 0-9.7-3-12.83-7.85-5.87-9.02-5.86-23.13-.02-32.17l.29-.4c3.12-4.61 7.54-7.45 12.56-7.45zm4.48 13.23c-1.29-2-2.89-3.24-4.48-3.24-1.51 0-3.03 1.13-4.29 2.95l-.17.3c-3.72 5.75-3.72 15.64 0 21.4 1.28 2 2.88 3.25 4.46 3.25 1.52 0 3.04-1.13 4.29-2.96l.18-.29c3.72-5.77 3.71-15.63.01-21.41zM57.8 118.41c5.18 0 9.7 3.01 12.83 7.85 5.88 9.03 5.87 23.13.03 32.17l-.29.41c-3.12 4.6-7.54 7.44-12.57 7.44-5.17 0-9.7-3-12.83-7.85-5.87-9.02-5.86-23.13-.02-32.17l.29-.4c3.12-4.61 7.54-7.45 12.56-7.45zm4.48 13.23c-1.29-2-2.89-3.24-4.48-3.24-1.51 0-3.03 1.13-4.29 2.95l-.17.3c-3.72 5.75-3.72 15.64 0 21.4 1.28 2 2.88 3.25 4.46 3.25 1.52 0 3.04-1.13 4.3-2.96l.17-.29c3.72-5.77 3.71-15.63.01-21.41zm56.41-60.1c5.17 0 9.7 3.01 12.83 7.85 5.87 9.03 5.86 23.13.02 32.17l-.29.41c-3.12 4.6-7.54 7.44-12.56 7.44-5.18 0-9.71-3-12.84-7.85-5.87-9.03-5.86-23.13-.02-32.17l.29-.4c3.12-4.61 7.54-7.45 12.57-7.45zm4.47 13.23c-1.29-2-2.88-3.24-4.47-3.24-1.51 0-3.04 1.12-4.29 2.95l-.18.29c-3.72 5.76-3.72 15.65 0 21.41 1.28 2 2.88 3.24 4.47 3.24 1.51 0 3.03-1.12 4.29-2.95l.17-.29c3.72-5.77 3.71-15.64.01-21.41zM78.3 71.54c5.17 0 9.7 3.01 12.83 7.85 5.87 9.03 5.86 23.13.02 32.17l-.29.41c-3.12 4.6-7.54 7.44-12.56 7.44-5.18 0-9.7-3-12.83-7.85-5.88-9.03-5.86-23.13-.03-32.17l.29-.4c3.12-4.61 7.54-7.45 12.57-7.45zm4.47 13.23c-1.29-2-2.89-3.24-4.47-3.24-1.51 0-3.04 1.12-4.29 2.95l-.18.29c-3.72 5.76-3.72 15.65 0 21.41 1.28 2 2.88 3.24 4.47 3.24 1.51 0 3.03-1.12 4.29-2.95l.17-.29c3.72-5.77 3.71-15.64.01-21.41zM37.91 71.54c5.17 0 9.7 3.01 12.83 7.85 5.87 9.03 5.86 23.13.02 32.17l-.29.41c-3.12 4.6-7.54 7.44-12.56 7.44-5.17 0-9.7-3-12.83-7.85-5.88-9.03-5.86-23.13-.03-32.17l.29-.4c3.12-4.61 7.54-7.45 12.57-7.45zm0 9.99c-9.4 0-9.44 27.89 0 27.89 9.4 0 9.42-27.89 0-27.89zM13.94 74.5c-3.08 10.02-4.42 20.44-3.85 31.26.62 11.52 2.81 22.8 6.64 33.1 3.59 9.68 8.65 18.53 15.2 25.95 1.39 1.58 2.88 3.12 4.44 4.6 11.62 11.08 25.73 17.19 39.94 17.81 14.15.62 28.5-4.2 40.67-14.95 1.42-1.26 2.86-2.65 4.3-4.16 4.21-4.42 8-9.41 11.3-14.73 3.47-5.58 6.39-11.51 8.7-17.5 4.64-12.1 7.03-23.96 6.23-36.89-.77-12.39-4.46-25.86-11.86-41.55l-108.89-9.8c-5.67 8.69-9.99 17.63-12.82 26.86z"/></svg>