<svg id="Layer_1" data-name="Layer 1" xmlns="http://www.w3.org/2000/svg" viewBox="0 0 74.58 122.88"><defs><style>.cls-1{fill-rule:evenodd;}</style></defs><title>fuel-can</title><path class="cls-1" d="M15.13,65.51h44.3a3.1,3.1,0,0,1,3.09,3.09v39.61a3.11,3.11,0,0,1-3.09,3.09H15.13a3.1,3.1,0,0,1-3.08-3.09V68.6a3.09,3.09,0,0,1,3.08-3.09ZM36.73,14V1.55A1.55,1.55,0,0,0,35.18,0H17.36a1.56,1.56,0,0,0-1.55,1.55V13.93a34.07,34.07,0,0,0-12,15.24C1.08,35.62-.19,43.33,0,52.08v63.18a7.63,7.63,0,0,0,7.58,7.62H67a7.63,7.63,0,0,0,7.58-7.62V62.5c-.93-13.43-5.32-23.84-12.26-31.85C55.76,23.1,47,17.72,36.73,14ZM57,59.73c-3,2.15-7.35,2.18-11.94.5A33,33,0,0,1,32.5,51.5a35.65,35.65,0,0,1-2.74-3.35,24.39,24.39,0,0,1-4.54-10.42l0-.17c-.44-3.42.36-6.39,2.51-8.36l.11-.1a6,6,0,0,1,.63-.5c3-2.15,7.35-2.19,12-.51A33.29,33.29,0,0,1,53,36.82a35.3,35.3,0,0,1,2.73,3.36A24.24,24.24,0,0,1,60.24,50.6c.49,3.48-.3,6.52-2.48,8.53l-.13.11a7,7,0,0,1-.62.49ZM46.48,57c3.27,1.2,6.2,1.29,8,0l.31-.24.08-.08c1.32-1.22,1.78-3.25,1.43-5.68A20.9,20.9,0,0,0,52.37,42a32,32,0,0,0-2.44-3,29.08,29.08,0,0,0-11-7.67c-3.27-1.19-6.2-1.28-8,0l-.31.24-.07.07c-1.3,1.2-1.76,3.17-1.46,5.53l0,.15A20.9,20.9,0,0,0,33.1,46.3a30.52,30.52,0,0,0,2.44,3A28.94,28.94,0,0,0,46.48,57ZM59.4,33.28C53.05,26,44.34,20.8,34.11,17.27H17.91A30.08,30.08,0,0,0,7.34,30.73C4.87,36.65,3.71,43.81,3.91,52v63.28A3.61,3.61,0,0,0,5,117.82,3.65,3.65,0,0,0,7.6,118.9H67a3.65,3.65,0,0,0,2.61-1.08,3.61,3.61,0,0,0,1.07-2.56V62.68c-.88-12.45-4.92-22.06-11.28-29.4ZM37.24,72.65c1.22,5.26,5.48,9.66,8.19,14.56,4.59,8.31,1.13,17-8.19,17-10.15,0-12.64-9.39-7.59-18,2.7-4.59,6.48-8.67,7.59-13.56Zm-7,19.3a1.07,1.07,0,1,1,2.14-.2,10.71,10.71,0,0,0,1,3.93,6.94,6.94,0,0,0,2.68,2.79c2,1.21-1.38,4.42-4.58-1.78A12.71,12.71,0,0,1,30.21,92Z"/></svg>