<svg id="Layer_1" data-name="Layer 1" xmlns="http://www.w3.org/2000/svg" viewBox="0 0 122.88 94.59"><defs><style>.cls-1{fill-rule:evenodd;}</style></defs><title>gearbox</title><path class="cls-1" d="M43.58,92.2,31.9,80.53h-8a5.13,5.13,0,0,1-5.11-5.12V66.72H13.88V76.9a4,4,0,0,1-4,3.95H4A4,4,0,0,1,0,76.9V42.4a4,4,0,0,1,4-3.95h6a4,4,0,0,1,4,3.95V52.58h4.87V43.22a5.13,5.13,0,0,1,5.11-5.11H32.4L44.47,25.28a7.48,7.48,0,0,1,5.42-1.56H99.63a4.93,4.93,0,0,1,3.83,2.09c.79,1.23.67,1.91.67,3.28V52.58H109V42.4a4,4,0,0,1,4-3.95h6a4,4,0,0,1,3.95,3.95V76.9a4,4,0,0,1-3.95,3.95h-6a4,4,0,0,1-4-3.95V66.72h-4.87v.91c0,2.73.08,4.38-1.66,6.65a10.45,10.45,0,0,1-1.1,1.21L83.53,93a5.62,5.62,0,0,1-4,1.64H49.11a7.7,7.7,0,0,1-5.53-2.39ZM52,0h34.5a4,4,0,0,1,4,4v6a4,4,0,0,1-4,4H76.3v5H62.16v-5H52a4,4,0,0,1-3.95-4V4A4,4,0,0,1,52,0Zm9.89,41A1.58,1.58,0,0,1,63,40.4a1.56,1.56,0,0,1,1.18.38L66,42.35a11.22,11.22,0,0,1,1.39-.93,16.23,16.23,0,0,1,1.51-.74L68.68,38a1.58,1.58,0,0,1,1.46-1.73l3.32-.3a1.6,1.6,0,0,1,1.15.37,1.49,1.49,0,0,1,.57,1.09l.22,2.42a12.12,12.12,0,0,1,3.2.91l1.74-2.06a1.47,1.47,0,0,1,1.07-.57,1.55,1.55,0,0,1,1.17.38l2.53,2.12a1.58,1.58,0,0,1,.2,2.26L83.74,44.8a12,12,0,0,1,.93,1.39,15,15,0,0,1,.74,1.51l2.65-.23a1.54,1.54,0,0,1,1.17.36,1.48,1.48,0,0,1,.56,1.09l.3,3.32A1.61,1.61,0,0,1,88.63,54l-2.42.21a11.37,11.37,0,0,1-.35,1.66c-.16.54-.34,1.06-.55,1.58l2,1.71a1.43,1.43,0,0,1,.57,1.06,1.56,1.56,0,0,1-.37,1.17l-2.12,2.57a1.61,1.61,0,0,1-1.1.54,1.59,1.59,0,0,1-1.17-.34l-1.88-1.6a11.15,11.15,0,0,1-1.39.92,15.14,15.14,0,0,1-1.51.75l.23,2.64a1.58,1.58,0,0,1-1.45,1.74l-3.32.29a1.53,1.53,0,0,1-1.15-.36,1.5,1.5,0,0,1-.58-1.09L71.91,65a12.86,12.86,0,0,1-1.66-.35,14.82,14.82,0,0,1-1.58-.56l-1.71,2a1.45,1.45,0,0,1-1.07.58,1.47,1.47,0,0,1-1.16-.38l-2.57-2.12a1.63,1.63,0,0,1-.54-1.09A1.58,1.58,0,0,1,62,62l1.6-1.88a12.07,12.07,0,0,1-.92-1.4,15,15,0,0,1-.75-1.5l-2.64.23a1.53,1.53,0,0,1-1.17-.36A1.57,1.57,0,0,1,57.51,56l-.29-3.32a1.59,1.59,0,0,1,1.45-1.73l2.42-.22a14.2,14.2,0,0,1,.36-1.64A11.93,11.93,0,0,1,62,47.49l-2-1.74a1.48,1.48,0,0,1-.58-1.06,1.56,1.56,0,0,1,.38-1.18L61.87,41ZM45.08,60.44a.87.87,0,0,1,.65-.21.84.84,0,0,1,.6.31l.87,1A7.91,7.91,0,0,1,48,61.2a9.07,9.07,0,0,1,.89-.26l.12-1.46a.84.84,0,0,1,.31-.6.83.83,0,0,1,.64-.2l1.83.15a.82.82,0,0,1,.59.31.83.83,0,0,1,.21.64l-.11,1.34a6,6,0,0,1,.86.35,6.69,6.69,0,0,1,.79.44L55.31,61a.81.81,0,0,1,.63-.21.86.86,0,0,1,.6.32l1.17,1.39a.86.86,0,0,1,.21.64.85.85,0,0,1-.31.61l-1,.87a7.11,7.11,0,0,1,.37.84,9.07,9.07,0,0,1,.26.89l1.46.12a.84.84,0,0,1,.6.31.83.83,0,0,1,.2.64l-.15,1.83a.82.82,0,0,1-.31.59.83.83,0,0,1-.64.21L57,69.9a6,6,0,0,1-.35.86,7.89,7.89,0,0,1-.44.81l.95,1.12a.81.81,0,0,1,.21.63.86.86,0,0,1-.32.6l-1.39,1.19a.88.88,0,0,1-.64.19.89.89,0,0,1-.61-.3l-.87-1a7.11,7.11,0,0,1-.84.37,9.07,9.07,0,0,1-.89.26l-.12,1.46a.84.84,0,0,1-.31.6.83.83,0,0,1-.64.2l-1.83-.15a.84.84,0,0,1-.59-.31.83.83,0,0,1-.21-.64l.11-1.34a6,6,0,0,1-.86-.35,7.89,7.89,0,0,1-.81-.44l-1.12.95a.85.85,0,0,1-1.23-.11L43,73.07a.9.9,0,0,1-.19-.65.87.87,0,0,1,.3-.6l1-.87a7.91,7.91,0,0,1-.37-.84,9.07,9.07,0,0,1-.26-.89L42.1,69.1a.84.84,0,0,1-.6-.31.83.83,0,0,1-.2-.64l.15-1.83a.86.86,0,0,1,.31-.6.85.85,0,0,1,.65-.2l1.33.11a6.91,6.91,0,0,1,.35-.85,6.11,6.11,0,0,1,.44-.8l-1-1.14a.81.81,0,0,1-.21-.63.86.86,0,0,1,.32-.6l1.39-1.17Zm5.58,4.11a3.24,3.24,0,0,0-1.28.15,3.2,3.2,0,0,0-1.85,1.56,3.22,3.22,0,0,0-.21,2.51,3.09,3.09,0,0,0,.6,1.08,3.17,3.17,0,0,0,1,.77,3.24,3.24,0,0,0,1.23.36,3.07,3.07,0,0,0,1.28-.15,3.11,3.11,0,0,0,1.85-1.56,3.22,3.22,0,0,0,.21-2.51,3.11,3.11,0,0,0-1.56-1.85,3.24,3.24,0,0,0-1.23-.36ZM73.08,45.94a6.3,6.3,0,0,0-2.49.73,6.4,6.4,0,0,0-2,1.57,6.69,6.69,0,0,0-1.21,2.19A6.58,6.58,0,0,0,67.15,53a6.42,6.42,0,0,0,.73,2.49,6.72,6.72,0,0,0,1.57,2,6.62,6.62,0,0,0,2.2,1.2,6.4,6.4,0,0,0,2.58.28,6.47,6.47,0,0,0,2.49-.73,6.81,6.81,0,0,0,2-1.57,6.6,6.6,0,0,0,.76-7.27,6.84,6.84,0,0,0-1.58-1.95,6.57,6.57,0,0,0-2.19-1.2,6.4,6.4,0,0,0-2.58-.28Z"/></svg>