<svg xmlns="http://www.w3.org/2000/svg" shape-rendering="geometricPrecision" text-rendering="geometricPrecision" image-rendering="optimizeQuality" fill-rule="evenodd" clip-rule="evenodd" viewBox="0 0 512 207.24"><path fill-rule="nonzero" d="M21.07 0h469.86c5.76 0 11.02 2.38 14.83 6.19l.05.04c3.83 3.85 6.19 9.12 6.19 14.84v165.1c0 5.78-2.39 11.07-6.2 14.87-3.8 3.81-9.08 6.2-14.87 6.2H21.07c-5.78 0-11.07-2.37-14.89-6.19-3.8-3.8-6.18-9.07-6.18-14.88V21.07c0-5.8 2.37-11.08 6.18-14.89C9.99 2.37 15.26 0 21.07 0zm43.21 29.59c5.89 0 10.67 4.77 10.67 10.67 0 5.89-4.78 10.67-10.67 10.67-5.9 0-10.68-4.78-10.68-10.67 0-5.9 4.78-10.67 10.68-10.67zm0 119.24c5.89 0 10.67 4.77 10.67 10.67 0 5.89-4.78 10.67-10.67 10.67-5.9 0-10.68-4.78-10.68-10.67 0-5.9 4.78-10.67 10.68-10.67zM447.73 29.59c5.89 0 10.67 4.77 10.67 10.67 0 5.89-4.78 10.67-10.67 10.67-5.9 0-10.67-4.78-10.67-10.67 0-5.9 4.77-10.67 10.67-10.67zm0 119.24c5.89 0 10.67 4.77 10.67 10.67 0 5.89-4.78 10.67-10.67 10.67-5.9 0-10.67-4.78-10.67-10.67 0-5.9 4.77-10.67 10.67-10.67zM93.4 76.3l5.87 14.21h.85l5.87-14.21h18.48L112.63 102l11.84 27.49h-18.9l-6.38-15.32h-.77l-6.3 15.32H74.08l11.57-26.98L74.08 76.3H93.4zm51.15 0 4.68 18.72h.59l4.77-18.72h18.81l-15.31 38.73v14.46h-17.03v-14.46L125.74 76.3h18.81zm78.13 53.19h-45.87v-10.64l21.79-28.42-.26-.51h-17.87l-1.53-13.62h43.4v10.64l-21.53 28.43.25.51h21.62v13.61zm19.57-17.02v-9.19c0-1.53.48-2.51 1.41-2.94.94-.42 2.43-.63 4.47-.63h19.66v9.19c0 1.53-.47 2.51-1.4 2.93-.94.43-2.43.64-4.47.64h-19.67zm91.16 17.02h-42.56v-13.61H306V93.32l-15.15 1.02V80.72l19.58-4.42h13.45v39.58h9.53v13.61zm10.55-38.55-2.21-12.69c7.15-2.15 14.27-3.23 21.37-3.23 2.83 0 5.2.09 7.1.26 1.9.17 3.87.6 5.92 1.28 2.04.68 3.65 1.61 4.85 2.8 2.72 2.72 4.08 6.9 4.08 12.51 0 5.63-1.59 9.76-4.76 12.43-3.18 2.67-9.88 5.73-20.09 9.19v2.39h24v13.61h-43.66v-10.64c0-3.17.6-6.2 1.78-9.1.75-1.65 2.53-3.64 5.37-5.96 1.53-1.31 3.59-2.55 6.17-3.74 2.58-1.2 5.02-2.32 7.32-3.36 2.3-1.05 4.15-1.92 5.58-2.6v-4.6c-2.56-.28-4.91-.42-7.07-.42-5.22 0-10.47.62-15.75 1.87zm75.67 4.08v-6.27c-1.7-.29-4.45-.43-8.26-.43-3.8 0-8.54.59-14.21 1.79l-2.21-11.86c6.92-2.15 13.62-3.23 20.09-3.23 5.55 0 9.58.34 12.08 1.02 2.5.68 4.34 1.51 5.53 2.47 2.61 2.21 3.92 5.57 3.92 10.04 0 5.68-2.36 9.77-7.07 12.26v.43c5.62 2.32 8.43 6.55 8.43 12.68 0 3-.47 5.57-1.41 7.7-.93 2.13-2.11 3.78-3.53 4.94-1.42 1.16-3.29 2.08-5.62 2.76-3.46.97-8.32 1.45-14.59 1.45s-12.55-.74-18.86-2.22l2.39-13.29c5.39 1.31 9.96 1.96 13.7 1.96 3.74 0 6.95-.17 9.62-.51v-6.2l-14.64-1.44V96.73l14.64-1.71zm43.35 89.27 26.08-26.07V49.02l-26.08-26.08H49.02L22.94 49.02v109.19l26.08 26.08h413.96z"/></svg>