<svg id="Layer_1" data-name="Layer 1" xmlns="http://www.w3.org/2000/svg" viewBox="0 0 122.88 122.88"><title>manual-transmission</title><path d="M61.44,0A61.46,61.46,0,1,1,18,18,61.23,61.23,0,0,1,61.44,0Zm4.07,82.09a6.67,6.67,0,1,1-8.14,0V68.62H42.31V82.09a6.67,6.67,0,1,1-8.14,0V46.17a6.67,6.67,0,1,1,8.14,0V60.48H57.37V46.17a6.67,6.67,0,1,1,8.14,0V60.48H80.57V46.17a6.67,6.67,0,1,1,8.14,0V64a4.41,4.41,0,0,1,0,.52,4.07,4.07,0,0,1-4.07,4.07H65.51V82.09Zm33-57.76a52.46,52.46,0,1,0,15.38,37.11A52.29,52.29,0,0,0,98.55,24.33Z"/></svg>