<svg xmlns="http://www.w3.org/2000/svg" shape-rendering="geometricPrecision" text-rendering="geometricPrecision" image-rendering="optimizeQuality" fill-rule="evenodd" clip-rule="evenodd" viewBox="0 0 512 399.15"><path d="M159.98 206.17c13.26-1.32 37.95 16.78 45.94 24.64 7.35 7.21 17.82 16.99 28.74 27.79-5.85 5.27-11.71 10.19-17.36 14.4-17.24 12.85-21.68 14.42-42.39 14.13l-.75-.03c-7.88 0-15.75 1.8-22.96 5.4l-10.91-10.91a3.73 3.73 0 0 0-5.28 0l-17.53 17.52a3.76 3.76 0 0 0 0 5.29l10.87 10.86a51.397 51.397 0 0 0-5.48 22.4l-.03.77c0 13.13 5 26.27 15.02 36.28 9.98 9.98 23.1 14.99 36.28 15.01h.04c7.95-.01 15.88-1.84 23.13-5.49l10.87 10.87c1.45 1.45 3.83 1.45 5.29 0l17.52-17.53c1.45-1.45 1.45-3.82 0-5.28l-10.92-10.92c3.61-7.2 5.41-15.08 5.41-22.95 0-21.77 1.08-26.35 14.85-44.56 3.9-5.18 8.4-10.5 13.18-15.81 6.24 6.79 12.08 13.63 16.98 20.2 12.85 17.23 14.42 21.67 14.13 42.39l-.03.75c0 7.87 1.8 15.74 5.4 22.95l-10.91 10.91a3.742 3.742 0 0 0 0 5.29l17.52 17.52a3.742 3.742 0 0 0 5.29 0l10.86-10.87c7.02 3.54 14.7 5.37 22.4 5.49l.76.03c13.13 0 26.28-5.01 36.29-15.03 9.98-9.98 14.99-23.1 15.01-36.27v-.04a51.482 51.482 0 0 0-5.5-23.14l10.88-10.86c1.45-1.46 1.45-3.84 0-5.29l-17.53-17.52a3.73 3.73 0 0 0-5.28 0l-10.92 10.91a51.34 51.34 0 0 0-22.95-5.4c-21.77 0-26.35-1.09-44.56-14.86-6.33-4.77-12.87-10.41-19.36-16.41 12.14-12.05 24.08-23.02 32.15-30.95 7.99-7.87 32.68-24.66 45.94-24.65l-40.7-40.71c1.32 13.27-16.79 37.95-24.64 45.95-7.99 8.12-19.12 20.09-31.29 32.24-10.92-11.13-20.81-21.85-28.12-29.28-7.86-7.99-24.65-32.68-24.64-45.94l-40.71 40.71zM.7 119.03C29.26 67.32 65.1 31.11 115.2 4.54c1.37-.74 2.91-1.11 4.01 0l12.95 12.94L13.65 135.99.7 123.05c-1.1-1.11-.74-2.66 0-4.02zm105.92-8.58c9.39-9.39 24.62-9.39 34.01 0 9.39 9.39 9.39 24.62 0 34.01-9.39 9.39-24.62 9.39-34.01 0-9.39-9.39-9.39-24.62 0-34.01zm34.01-84.5 7.85 7.85L29.97 152.31l-7.85-7.85L140.63 25.95zm16.32 16.32 75.07 75.07c1.07 1.08 1.07 2.93-.01 4.01l-17.97 17.97-4.22-4.22c-9.87-9.87-13.12-.13-22.95 9.7l-45.89 45.89c-9.84 9.84-19.54 13.13-9.71 22.96l4.22 4.22-17.97 17.98c-1.09 1.08-2.91 1.1-4.02 0l-75.06-75.07L156.95 42.27zM396.81.7c51.69 28.57 87.91 64.41 114.5 114.5.73 1.36 1.1 2.91 0 4.01l-12.95 12.94L379.85 13.64 392.8.7c1.1-1.11 2.68-.74 4.01 0zm8.23 106.28c8.76 8.76 8.76 22.96-.01 31.74-8.76 8.76-22.97 8.76-31.73 0-8.77-8.77-8.77-22.98-.01-31.74 8.77-8.77 22.98-8.77 31.75 0zm84.86 33.64-7.86 7.85L363.53 29.96l7.85-7.84 118.52 118.5zm-16.33 16.33-74.26 74.26c-1.07 1.07-2.93 1.07-4.01-.01l-17.97-17.97 4.22-4.21c9.87-9.88.93-13.95-8.9-23.78l-45.88-45.89c-9.82-9.81-13.96-18.7-23.78-8.89l-4.22 4.21-17.97-17.96c-1.07-1.07-1.1-2.91 0-4.01l74.26-74.26 118.51 118.51zM193.99 338.37c0 10.8-8.76 19.55-19.55 19.55-10.79 0-19.54-8.75-19.54-19.55 0-10.79 8.75-19.54 19.54-19.54s19.55 8.75 19.55 19.54zm141.87-16.81c10.79 0 19.54 8.75 19.54 19.54s-8.75 19.55-19.54 19.55-19.54-8.76-19.54-19.55c0-10.79 8.75-19.54 19.54-19.54z"/></svg>