<svg xmlns="http://www.w3.org/2000/svg" shape-rendering="geometricPrecision" text-rendering="geometricPrecision" image-rendering="optimizeQuality" fill-rule="evenodd" clip-rule="evenodd" viewBox="0 0 319 511.56"><path d="M286.38 37.34c17.84 19.48 28.87 46.16 30.61 75.36 2.89 48.49 4.2 255.5-7.04 304.15-7.16 30.95-17.19 55.6-31.26 71.3-28.7 32.02-207.42 30.34-235.64.17-16.17-17.29-27.43-43.4-35.09-75.88C-2.98 366.08-.25 159.5 2.24 113.03 3.76 84.59 14.49 57.78 31.9 38c46.73-53.07 211.12-48 254.48-.66zM138.01 359.81h4.04v-5.97c0-9.85 8.06-17.89 17.91-17.89 8.7 0 16 6.29 17.58 14.55h-7.14c-1.39-4.45-5.57-7.71-10.46-7.71-6.01 0-10.94 4.93-10.94 10.94v6.08h32.29c.76 0 1.4.63 1.4 1.4v32.92c0 .77-.64 1.4-1.4 1.4h-43.58c-.77 0-1.4-.63-1.4-1.4v-32.94a1.4 1.4 0 0 1 .97-1.31c.26-.09.47-.07.73-.07zm0-147.05h4.04v-5.97c0-9.86 8.06-17.89 17.91-17.89 9.84 0 17.89 8.05 17.89 17.89v5.97h3.44c.76 0 1.4.63 1.4 1.4v32.92c0 .76-.64 1.4-1.4 1.4h-43.58c-.77 0-1.4-.64-1.4-1.4v-32.95c.01-.6.41-1.12.97-1.31.26-.08.47-.06.73-.06zm32.88 0v-6.08c0-6.01-4.93-10.95-10.95-10.95-6.01 0-10.94 4.94-10.94 10.95v6.08h21.89zm-73.57-47.97h124.36c4.05 0 7.36 3.34 7.36 7.36v93.08c0 4.02-3.33 7.35-7.36 7.35H97.32c-4.02 0-7.36-3.3-7.36-7.35v-93.08c0-4.05 3.31-7.36 7.36-7.36zm0 147.06h124.36c4.05 0 7.36 3.33 7.36 7.35v93.08c0 4.02-3.33 7.35-7.36 7.35H97.32c-4.02 0-7.36-3.3-7.36-7.35V319.2c0-4.04 3.31-7.35 7.36-7.35zm62.18-261.4c36.71 0 66.47 11.32 66.47 25.3 0 13.97-29.76 25.3-66.47 25.3-36.71 0-66.46-11.33-66.46-25.3 0-13.98 29.75-25.3 66.46-25.3z"/></svg>