<svg id="Layer_1" data-name="Layer 1" xmlns="http://www.w3.org/2000/svg" viewBox="0 0 119.9 122.88"><defs><style>.cls-1{fill-rule:evenodd;}</style></defs><title>government-road-tax</title><path class="cls-1" d="M0,118.64,37.27,0h6.95L11,118.64Zm85.51-2.32c0,3.62-5.6,6.56-12.51,6.56s-12.52-2.94-12.52-6.56a3.81,3.81,0,0,1,.58-2C62.65,117,67.39,119,73,119c3.7,0,9.86-1.1,11.94-4.6a3.79,3.79,0,0,1,.57,2Zm34.31-1.48c0,4.44-6.87,8-15.34,8s-15.33-3.6-15.33-8a4.76,4.76,0,0,1,.7-2.41c2,3.27,7.76,5.64,14.63,5.64,4.54,0,12.08-1.34,14.64-5.64a4.79,4.79,0,0,1,.7,2.41Zm.08-8.37c0,4.44-6.87,8-15.33,8s-15.34-3.6-15.34-8a4.76,4.76,0,0,1,.7-2.41c2,3.27,7.77,5.64,14.64,5.64,4.53,0,12.08-1.34,14.63-5.64a4.69,4.69,0,0,1,.7,2.41ZM110.11,85.6l-.18,2-7.53-.66a6.88,6.88,0,0,1,1.29,2.71l-1.81-.16a5.65,5.65,0,0,0-.82-1.78,3.65,3.65,0,0,0-1.56-1.4l.14-1.62,10.47.91Zm-5.31-3.13c6.85,0,12.37,2.25,12.37,5s-5.65,4.94-12.6,4.94S92,90.14,92,87.42s5.46-4.89,12.27-4.94Zm0-1.64c8.38,0,15.15,3.64,15.15,8s-6.87,8-15.33,8-15.34-3.6-15.34-8,6.78-8,15.16-8Zm15.15,17c0,4.44-6.87,8-15.33,8s-15.34-3.6-15.34-8a4.59,4.59,0,0,1,.65-2.31c1.89,3.31,7.75,5.74,14.69,5.74,4.54,0,12.19-1.37,14.68-5.74a4.6,4.6,0,0,1,.65,2.31Zm-42.38.89-.15,1.63-6.14-.53a5.45,5.45,0,0,1,1,2.21l-1.48-.14a4.77,4.77,0,0,0-.66-1.45,3,3,0,0,0-1.28-1.14L69,98l8.54.74Zm-3.85-2.54c5.36.12,9.61,1.89,9.61,4s-4.6,4-10.28,4-10.28-1.81-10.28-4,4.31-3.93,9.73-4c.4,0,.83,0,1.22,0Zm-.06-1.34c6.63.15,11.9,3,11.9,6.56S79.91,108,73,108,60.48,105,60.48,101.4s5.32-6.42,12-6.56c.38,0,.78,0,1.15,0ZM85.51,109c0,3.62-5.6,6.56-12.51,6.56S60.48,112.61,60.48,109A3.7,3.7,0,0,1,61,107.1c1.55,2.7,6.32,4.68,12,4.68,3.7,0,10-1.11,12-4.68a3.82,3.82,0,0,1,.53,1.89Zm-32-46.23H64.61L65.71,84H52.61l.89-21.23Zm1.72-30.35h7.94L64,51H54.33l.89-18.54Zm1.37-25H62l.52,13.08H55.8l.79-13.08ZM46.34,0H72.1L89.58,79c-3.78,2.43-6.06,5.86-6.06,9.85a10.4,10.4,0,0,0,.31,2.51,25.34,25.34,0,0,0-10.1-2.23H72.35a24.64,24.64,0,0,0-11.11,2.71c-4,2.19-6.47,5.53-6.47,9.54a9.29,9.29,0,0,0,.82,3.82,8.52,8.52,0,0,0-.82,3.77,9.38,9.38,0,0,0,.76,3.7,11,11,0,0,0-.37,1.06,9,9,0,0,0-.1,4.89H20.73L46.34,0ZM74.21,0h7.48l23.2,75.15a33.11,33.11,0,0,0-9,1.13L74.21,0Z"/></svg>