<svg id="Layer_1" data-name="Layer 1" xmlns="http://www.w3.org/2000/svg" viewBox="0 0 122.88 117.62"><defs><style>.cls-1{fill-rule:evenodd;}</style></defs><title>road-traffic</title><path class="cls-1" d="M0,117.62,30,0h7.08l-26,117.62ZM39.44,28.37c-4.71-2.4-4.17-5.07.56-4.79l1.06,2,2.18-6.79c.86-2.68,2.29-5.1,5.09-5.1H76.27c2.81,0,4.42,2.38,5.1,5.09L83,25.36,84,23.58c4.87-.28,5.3,2.55.15,5l.84,1.28c3.38,3.48,3.07,7,2.54,15.55v2.83a1.6,1.6,0,0,1-1.59,1.59h-6.8a1.6,1.6,0,0,1-1.59-1.59V47H45.39v1.28a1.6,1.6,0,0,1-1.59,1.59H37a1.6,1.6,0,0,1-1.59-1.59V44.56a2,2,0,0,1,0-.25c-.52-6.6-1.24-12.54,4-15.94Zm8.67,7.82-6-.76c-1.43-.16-1.81.44-1.32,1.67l.65,1.58a2.27,2.27,0,0,0,.81.91,2.74,2.74,0,0,0,1.36.38L49,40c1.3,0,1.86-.52,1.45-1.72a2.9,2.9,0,0,0-2.3-2.1Zm26.66,0,6-.76c1.43-.16,1.81.44,1.33,1.67l-.66,1.58a2.27,2.27,0,0,1-.81.91,2.7,2.7,0,0,1-1.35.38l-5.38,0c-1.31,0-1.87-.52-1.46-1.72a2.92,2.92,0,0,1,2.3-2.1ZM43.33,27.07H80.59l-1.65-6.83c-.45-2.09-1.74-3.89-3.88-3.89H49.26c-2.13,0-3.23,1.85-3.88,3.89l-2.05,6.83v0ZM29.17,86.15c-6.91-3.51-6.11-7.42.83-7l1.55,2.91,3.21-10c1.25-3.92,3.35-7.48,7.46-7.48h41c4.11,0,6.48,3.49,7.47,7.47l2.41,9.66,1.38-2.6c7.14-.42,7.78,3.73.22,7.31l1.23,1.88c5,5.11,4.5,10.2,3.73,22.81v4.14a2.35,2.35,0,0,1-2.34,2.34h-10A2.35,2.35,0,0,1,85,115.28v-1.87H37.9v1.87a2.35,2.35,0,0,1-2.33,2.34h-10a2.35,2.35,0,0,1-2.33-2.34V109.9c0-.13,0-.25,0-.37-.75-9.67-1.81-18.39,5.88-23.38ZM41.89,97.63,33,96.51c-2.09-.23-2.65.65-1.94,2.45l1,2.32a3.36,3.36,0,0,0,1.2,1.34,4.2,4.2,0,0,0,2,.55l7.89.06c1.91,0,2.73-.77,2.14-2.52a4.28,4.28,0,0,0-3.38-3.08Zm39.1,0,8.85-1.12c2.09-.23,2.65.65,1.94,2.45l-1,2.32a3.41,3.41,0,0,1-1.19,1.34,4.24,4.24,0,0,1-2,.55l-7.89.06c-1.91,0-2.73-.77-2.13-2.52A4.27,4.27,0,0,1,81,97.63ZM34.88,84.25H89.52l-2.41-10c-.66-3.06-2.56-5.7-5.7-5.7H43.58c-3.13,0-4.73,2.71-5.7,5.7l-3,10v0ZM64.15,0l.38,9.34H58.19L58.75,0Zm2.63,51.17.56,8H55.47l.45-8ZM93.54,0l29.34,117.62h-10.5L86,0Z"/></svg>