<svg xmlns="http://www.w3.org/2000/svg" shape-rendering="geometricPrecision" text-rendering="geometricPrecision" image-rendering="optimizeQuality" fill-rule="evenodd" clip-rule="evenodd" viewBox="0 0 512 455.17"><path d="M240.39 0c22.4 0 40.56 18.16 40.56 40.56 0 22.4-18.16 40.56-40.56 40.56-22.4 0-40.56-18.16-40.56-40.56 0-22.4 18.16-40.56 40.56-40.56zM8.17 390.11c-4.28.22-7.94-3.07-8.16-7.36-.21-4.29 3.08-7.94 7.37-8.16 10.46-.57 18.12-3.72 24.26-9.04 6.48-5.62 11.64-13.93 16.71-24.34a7.775 7.775 0 0 1 10.41-3.59c1.81.88 3.13 2.38 3.82 4.11 6.09 12.05 16.32 20.95 28.12 26.16 7.87 3.47 16.39 5.3 24.79 5.31 8.37.01 16.65-1.73 24.11-5.4a48.47 48.47 0 0 0 13.37-9.71c-59.55-9.35-111.75-37.3-144.36-92.62-7.39-13.55-2.31-22.34 7.87-22.22l203.3.08c-2.2-10.87.38-8.82-14.06-8.82-14.3 1.11-28.46 1.9-42.55 1.66-36.37-.59-71.58-14.79-49.5-54.85l50.3-91.27c8.68-14.03 27.26-18.42 41.3-9.73l12.62 7.8c10.93 6.78 14.64 13.4 15.6 20.18l36.49 33.97 51.5 5.69c1.78.19 3.47.63 5.04 1.28l13.08-24.13c4.81-8.04 15.23-10.65 23.27-5.85 8.04 4.81 10.65 15.23 5.85 23.27L263.16 337.26c-.3.5-.62.99-.97 1.45 8.5 11.11 7.1 27.92 1.57 43.92-10.23 29.55-34.27 63.43-70.06 48.24-14.66-6.23-25.48-20.69-21.64-42.15 6.64-19.42 27.33-63.14 60.79-66.48.33-.82.72-1.62 1.2-2.4l73.61-135.8-47.93-5.29c-3.85-.43-7.62-2.06-10.68-4.9l-26.67-24.84-21.11 33.55c-1.6 2.49-2.49 5.06-2.83 7.68h40.08c10.78 0 19.62 8.84 19.62 19.62l3.17 18.39-8.18 15.09-23.83 43.97-9.5 17.53c-13.88 4.05-25.59 12.72-35.25 23.28-13.88 15.18-23.51 34.5-28.83 48.05a64.269 64.269 0 0 1-9.3 5.57c-9.64 4.74-20.26 7-30.93 6.99-10.63-.02-21.29-2.29-31.06-6.6-11-4.85-20.95-12.31-28.55-22.1-4.12 6.77-8.65 12.56-14.07 17.27-8.74 7.58-19.38 12.04-33.64 12.81zm328.3-146.73 157.81.06c10.65 2.24 10.17 9.59 6.22 15.19-3.52 4.98-43.87 30.94-50.37 34.53-37.57 20.74-82.01 39.11-128.4 51.61 4.91 9.17 12.91 16.28 22.54 21.13 9.6 4.84 20.79 7.44 32.19 7.67 11.41.23 23.01-1.93 33.45-6.65 12.39-5.6 23.09-14.84 29.71-27.98 1.93-3.83 6.61-5.37 10.44-3.44 1.78.9 3.07 2.39 3.74 4.11h.01c4.89 12.43 12.02 21.7 20.56 27.39 8.33 5.56 18.18 7.76 28.72 6.2 4.25-.62 8.2 2.32 8.82 6.58.63 4.25-2.31 8.2-6.57 8.83-14.42 2.12-28.01-.96-39.62-8.7-7.77-5.18-14.57-12.44-20.05-21.6-7.91 10.14-18.09 17.7-29.37 22.8-12.53 5.66-26.46 8.26-40.15 7.99-13.71-.28-27.22-3.44-38.88-9.32-10.01-5.04-18.71-12.07-25.1-20.98-7.15 7.57-15.27 13.73-23.94 18.52-.97.53-1.93 1.04-2.91 1.54 1.57-6.48 2.54-13.11 2.57-19.6 3.75-2.59 7.32-5.52 10.67-8.79-3.65.82-7.31 1.59-10.96 2.32-.45-4.73-1.43-9.31-3.03-13.67l51.9-95.74zM8.17 455.16c-4.28.21-7.94-3.08-8.16-7.37-.21-4.29 3.08-7.94 7.37-8.16 10.46-.57 18.12-3.72 24.26-9.04 6.48-5.62 11.64-13.93 16.71-24.34a7.788 7.788 0 0 1 10.41-3.6c1.81.89 3.13 2.38 3.82 4.13 6.09 12.04 16.32 20.94 28.12 26.15 7.87 3.47 16.39 5.29 24.79 5.31 8.37.02 16.65-1.74 24.11-5.4 6.17-3.03 11.8-7.41 16.49-13.24.5 1.17 1.05 2.33 1.63 3.47 1.95 3.8 4.28 7.26 6.9 10.38a64.119 64.119 0 0 1-18.2 13.33c-9.64 4.74-20.26 7.01-30.93 6.99-10.63-.02-21.29-2.29-31.06-6.6-11-4.85-20.95-12.31-28.55-22.1-4.12 6.77-8.65 12.57-14.07 17.27-8.74 7.58-19.38 12.04-33.64 12.82zm242.67-16.51c10.28-1.44 20.48-4.73 29.89-9.93 9.98-5.5 19.06-13.14 26.37-22.96 2.55-3.45 7.42-4.17 10.87-1.62a7.81 7.81 0 0 1 2.45 3.05h.01c4.73 10.45 13.31 18.45 23.84 23.75 9.6 4.83 20.79 7.45 32.19 7.67 11.41.23 23.01-1.93 33.45-6.65 12.4-5.6 23.09-14.85 29.71-27.98 1.93-3.84 6.61-5.37 10.44-3.44 1.78.9 3.07 2.39 3.74 4.11h.01c4.89 12.44 12.02 21.69 20.56 27.39 8.33 5.56 18.18 7.76 28.72 6.2 4.25-.62 8.2 2.32 8.82 6.57a7.767 7.767 0 0 1-6.57 8.83c-14.42 2.14-28.01-.94-39.62-8.69-7.77-5.19-14.57-12.44-20.05-21.6-7.91 10.14-18.09 17.7-29.37 22.8-12.53 5.66-26.46 8.27-40.15 7.99-13.71-.27-27.22-3.45-38.88-9.32-10.01-5.04-18.71-12.07-25.1-20.98a97.924 97.924 0 0 1-23.94 18.52c-16.67 9.2-35.46 13.33-53.56 12.58-5.12-.21-10.19-.82-15.14-1.81 10.28-1.56 20.3-5.69 28.88-12.48.82-.65 1.63-1.32 2.43-2z"/></svg>