<?xml version="1.0" encoding="UTF-8"?>
<!DOCTYPE svg PUBLIC "-//W3C//DTD SVG 1.1//EN" "http://www.w3.org/Graphics/SVG/1.1/DTD/svg11.dtd">
<!-- Creator: CorelDRAW 2021 (64-Bit) -->
<svg xmlns="http://www.w3.org/2000/svg" xml:space="preserve" width="353px" height="512px" version="1.1" shape-rendering="geometricPrecision" text-rendering="geometricPrecision" image-rendering="optimizeQuality" fill-rule="evenodd" clip-rule="evenodd"
viewBox="0 0 353 512.05"
 xmlns:xlink="http://www.w3.org/1999/xlink"
 xmlns:xodm="http://www.corel.com/coreldraw/odm/2003">
 <g id="Layer_x0020_1">
  <metadata id="CorelCorpID_0Corel-Layer"/>
  <path fill="black" d="M175.64 511.54c-6.92,-6.95 -9.76,-17.68 -10.94,-31.71l-60.66 13.67c-3.36,1.32 -4.75,-0.17 -5.06,-3.21l1.16 -14.59c0.56,-2.32 1.7,-4.2 3.77,-5.38l53.61 -38.1 -3.17 -56.79 -149.54 33.92c-3.58,0.93 -5.28,-0.39 -4.7,-4.44l2.6 -23.14 148.96 -78.51 -2.37 -54.35c1.56,-21.49 8.31,-37.16 19,-43.64 5.92,-3.57 9,-3.83 14.9,-0.83 11.56,5.88 18.87,21.99 20.5,44.47l-2.37 54.35 148.96 78.51 2.6 23.14c0.58,4.05 -1.12,5.37 -4.7,4.44l-149.53 -33.92 -3.18 56.79 53.61 38.1c2.07,1.18 3.22,3.06 3.77,5.38l1.16 14.59c-0.31,3.04 -1.7,4.53 -5.05,3.21l-60.67 -13.67c-1.18,14.08 -4.03,24.82 -11.02,31.78 -0.65,0.65 -1.02,0.54 -1.64,-0.07zm-172.32 -155.88l91.69 -355.66 18.34 0 -77.75 338.64 -32.28 17.02zm179.3 -355.66l0.85 32.88 -16.25 0 1.4 -32.88 14 0zm-21.07 135.19l27.57 0 2.71 47.85 -0.38 0c-5.75,-2.64 -10.94,-3.79 -17.03,-3.43 -4.74,0.29 -8.81,1.43 -13.02,3.43l-2.05 0 2.2 -47.85zm5.27 -81.84l17.7 0 3.07 54.63 -23.99 0 3.22 -54.63zm92.92 -53.35l88.03 354.65 -30.7 -16.18 -77 -338.47 19.67 0z"/>
 </g>
</svg>
