<svg id="Layer_1" data-name="Layer 1" xmlns="http://www.w3.org/2000/svg" viewBox="0 0 81.13 122.88"><title>scooter-vespa-moped</title><path d="M34.08,22.83l.09.07h0l.08.06.08.07,0,0,.06,0,.08.07,0,0,0,0,.09.07.07.05h0l.09.06.16.11h0l.09.06,0,0,.06,0,.09.06.05,0,0,0,.1.06.07,0h0l.09.06.1,0h0l.09.05.1.05h0l.07,0,.09.05.06,0,0,0,.1.05.08,0h0l.1.05.1,0h0l.1,0,.1,0,0,0,.07,0,.1,0,.06,0,0,0,.1,0,.08,0h0l.11,0,.1,0h0l.11,0,.1,0h0l.08,0,.11,0,0,0h.05l.11,0,.08,0h0l.22.05h0l.11,0,.1,0h.11l.11,0h.12l.11,0h.11l.22,0h0l.23,0h0l.25,0h1l.25,0h0l.23,0h0l.22,0h.12l.11,0h.11l.11,0h.11l.11,0,.11,0h0l.22-.05h0l.08,0,.11,0h0l.06,0,.11,0h0l.1,0,.11,0,.1,0h0l.11,0,.1,0h0l.09,0,.1,0,.05,0,0,0,.1,0,.08,0,0,0,.11,0,.09,0h0l.1,0,.1-.05h0l.07,0,.1-.05.05,0,0,0,.1-.05.07,0h0l.1-.05.09-.05h0l.09,0,.09-.06h0l.08,0,.09-.06,0,0,0,0,.09-.06.07,0,0,0,.08-.06h0l.16-.11.09-.06h0l.07-.05.09-.07,0,0,0,0,.09-.07.06,0,0,0,.08-.07.08-.06h0l.08-.07a10.05,10.05,0,1,0-13,0Zm4.35,15.49a2.13,2.13,0,1,1,4.26,0V57.84a2.13,2.13,0,1,1-4.26,0V38.32Zm-5.64,66.35h15.4v10.51a7.72,7.72,0,0,1-7.7,7.7h0a7.72,7.72,0,0,1-7.7-7.7V104.67Zm5-33.74h5.34A11.88,11.88,0,0,1,55,82.79v17a2,2,0,0,1-2,2H28a2,2,0,0,1-2-2v-17A11.88,11.88,0,0,1,37.82,70.93Zm5.34,4H37.82A7.89,7.89,0,0,0,30,82.79v15H51v-15a7.89,7.89,0,0,0-7.87-7.87ZM55.21,23.14A20.39,20.39,0,0,1,72,43.12v37.6A20.4,20.4,0,0,1,61.17,98.64v-5A16.31,16.31,0,0,0,63,92a16,16,0,0,0,4.71-11.31V43.12a16.08,16.08,0,0,0-16-16H50.63a15.18,15.18,0,0,1-9.67,3,16.77,16.77,0,0,1-10.3-3A16.05,16.05,0,0,0,16.25,43.12v37.6A15.91,15.91,0,0,0,20,90.94v5.87a17.9,17.9,0,0,1-2-1.77l-.12-.12A20.25,20.25,0,0,1,12,80.72V43.12a20.18,20.18,0,0,1,6-14.32h0a20.39,20.39,0,0,1,8.56-5.12c-2.12-1.86-4.33-3.39-8.13-3.39H5.21A5.22,5.22,0,0,1,0,15.08H0a5.22,5.22,0,0,1,5.21-5.2H18.38C28,9.86,27.47,0,41,0,53.25,0,53.2,9.86,62.74,9.86H75.92a5.22,5.22,0,0,1,5.21,5.2h0a5.22,5.22,0,0,1-5.21,5.2H62.74a11,11,0,0,0-7.53,2.86Z"/></svg>