<svg xmlns="http://www.w3.org/2000/svg" shape-rendering="geometricPrecision" text-rendering="geometricPrecision" image-rendering="optimizeQuality" fill-rule="evenodd" clip-rule="evenodd" viewBox="0 0 333 512.43"><path d="M165.99 0c43.58 0 78.98 35.33 78.98 78.99 0 43.58-35.32 78.99-78.98 78.99-43.59 0-79-35.32-79-78.99 0-43.66 35.33-78.99 79-78.99zm155.87 422.15H11.14c-2.04 0-3.64 1.69-3.64 3.64v82.9c0 2.05 1.69 3.65 3.64 3.65 261.59 0 52.5.09 310.72.09 1.95 0 3.65-1.69 3.65-3.65v-82.9c0-2.03-1.59-3.73-3.65-3.73zM278.4 157.33c22.13-26.46 62.41 7.25 40.28 33.7L144.27 400.35H75.9l202.5-243.02zM43.5 230.28c-14.57 18.63-24.63 40.68-30.87 63.69C6.29 317.3 1.1 333.67.11 358.11c-.79 19.77 2.21 41.55 29.18 41.5 33.01-.06 35.32-20.69 38.04-43.52 4.46-17.83 5.58-39 12.22-54.68 2.53-5.95 5.58-11.07 9.15-15.24.49 22.19.68 44.37.74 66.56 44.73-53.48 99.72-119.55 136.57-164.08-62.49-19.54-144.96-6.35-182.51 41.63zm199.63 170.07c.12-29.37.2-58.73.6-88.08-24.21 29-49.95 59.89-73.37 88.08h72.77zm10.03-99.38.19.44c6.64 15.68 7.76 36.85 12.23 54.68 2.7 22.83 5.02 43.46 38.04 43.52 26.97.05 30.07-21.73 29.27-41.5-.95-23.15-5.95-37.82-11.57-60.17-4.66-18.49-11.71-36.45-21.54-52.62-13.56 16.13-29.57 35.25-46.62 55.65z"/></svg>