<svg xmlns="http://www.w3.org/2000/svg" shape-rendering="geometricPrecision" text-rendering="geometricPrecision" image-rendering="optimizeQuality" fill-rule="evenodd" clip-rule="evenodd" viewBox="0 0 512 339.39"><path fill-rule="nonzero" d="m512 338.14-.16.01c-16.39.8-29.76-7.45-40.07-19.56a56.029 56.029 0 0 1-5.42 5.56c-20.33 18.03-49.61 16.94-70.35.17h-.02a60.016 60.016 0 0 1-6.78-6.41c-.84 1.04-1.7 2.03-2.59 2.97-19.94 21.46-58.59 25.66-78.65 1.85a60.875 60.875 0 0 1-2.99-3.91 64.277 64.277 0 0 1-6.81 6.72c-20.63 17.54-49.14 17.82-69.28-.64a59.19 59.19 0 0 1-6.15-6.56 97.412 97.412 0 0 1-6.89 6.47c-22.67 19.1-49.22 20.37-70.33-1.73a73.822 73.822 0 0 1-2.98-3.32 53.975 53.975 0 0 1-5.44 5.55c-22.61 20.16-56.54 16.39-77.14-6.22-.85 1.03-1.71 2.02-2.6 2.96C39.56 341.19 18.1 343.13 0 330.26v-32.97c5.64 9.83 16.79 22.45 28.44 18.32 10.2-3.55 16.65-11.9 21.24-21.31l.27-.48c4.54-8.2 16.06-7.22 19.69.83 10.32 20.41 37.92 31.1 55.4 11.7 2.68-2.96 5.07-6.65 7.04-11.1 3.76-8.55 15.52-8.69 19.76-.77 19.1 34.44 42.56 26.65 63.52-1.36l.25-.33c5.28-6.58 15.22-4.84 18.6 2.33l.11.27c14.42 31.45 47.32 26.25 61.96-2.89 4.35-8.65 16.66-7.76 20.06.93 1.82 4.63 3.82 8.62 6.05 11.91 12.16 18.08 38.78 12.98 50.57-2.37 2.18-2.82 4.16-6.12 5.97-9.83l.28-.5c1.08-1.96 2.6-3.42 4.33-4.36 1.94-.4 3.88-.84 5.81-1.32 3.84.19 7.62 2.37 9.55 6.51 2.21 4.39 5.03 8.17 8.25 11.31 13.36 12.89 34.12 14.88 47.14.4 2.68-2.96 5.07-6.64 7.03-11.11a11.09 11.09 0 0 1 6.08-5.82c5.25-2.04 11.09.19 13.69 5.05 5.53 10 14.86 22.15 27.43 22.9.94.05 1.95.03 3-.05l.48-.05v22.04zm-218.93-82.88a113.91 113.91 0 0 1-11.83-8.48c-27.91-20.13-47.38-54.65-47.09-104.87a5.085 5.085 0 0 1 3.63-5.25l20.6-6.19-.02-32.25c0-11.49 4.71-21.94 12.28-29.53l.05-.04c7.59-7.57 18.03-12.27 29.51-12.27h15.54V11.77c0-3.22 1.32-6.16 3.45-8.29 2.16-2.16 5.1-3.48 8.32-3.48h50.32c3.24 0 6.19 1.33 8.31 3.45 2.13 2.13 3.45 5.08 3.45 8.32v44.61h33.02c6.69 0 12.78 2.75 17.19 7.15 4.43 4.43 7.18 10.53 7.18 17.22v49.8c6.67 1.87 13.33 3.62 19.98 5.19a5.11 5.11 0 0 1 3.93 4.65c1.6 24.59-2.93 45.88-11.74 63.67-10 21.71-25.13 38.42-42.93 49.88-18.44 11.88-39.75 18.1-61.2 18.41-21.44.31-43.01-5.3-61.95-17.09zm126.61-122.2-66.91-17.85-70.78 18.82-37.66 11.3c.15 11.66 1.47 22.36 3.77 32.14l102.26-21.5a5.23 5.23 0 0 1 2.16-.02l105.22 22.08c2.48-10.18 3.63-21.28 3.17-33.26-13.77-3.39-27.5-7.47-41.23-11.71zm-92.46-76.68h50.89V26.87h-50.89v29.51zm95.39 13.77H300.2c-7.72 0-14.74 3.16-19.81 8.23-5.1 5.1-8.26 12.12-8.26 19.84v24.21l78.89-20.98c1.11-.29 2.31-.31 3.5 0l78.68 20.99V80.75c0-2.92-1.19-5.57-3.09-7.47-1.92-1.92-4.58-3.13-7.5-3.13zM0 10.62h154.25c6.47 0 11.73 5.26 11.73 11.73v61.09h6.04c15.14 0 27.53 12.38 27.53 27.52 0 12-7.79 22.28-18.55 26.02v78.6l.05-.06c2.44-3.04 6.05-4.37 9.52-4.06 9.34.84 10.79 11.55 16.33 17.66 9.11 9.98 21 12.51 31.86 8.6 5.19 6 10.81 11.43 16.79 16.29-19.57 11.56-43.6 9.8-61.24-6.38a58.424 58.424 0 0 1-6.15-6.57c-24.71 25.61-55.8 29.99-80.21 1.43-22.29 26.16-60.12 23.88-82.58-.67-1.56-1.59-1.15-2.57-2.66 0-6.29 6.91-14.09 12.3-22.71 15.62v-24.85c1.68-1.18 3.28-2.49 4.76-3.91 3.23-3.14 6.05-6.92 8.26-11.3 2.39-5.32 8.49-7.45 13.81-6.34v-72.55H0V83.44h60.58V34.08H0V10.62zm130.98 223.84v-95.97H76.85v99.4c4.97-1.51 9.65-4.4 13.62-8.81 2.68-2.96 5.06-6.65 7.04-11.11a11.04 11.04 0 0 1 6.07-5.82c2.62-1.03 5.64-1.06 8.42.17 1.17.52 2.22 1.21 3.11 2.06l.33.34a11 11 0 0 1 1.82 2.48c4.37 7.88 8.97 13.54 13.72 17.26zm11.54-151.02V34.08H84.04v49.36h58.48zm325.06 154.03c14.38 5.43 28.58-5.4 39.9-19.49 1.46-1.81 2.72-3.83 4.52-5.31v32.42c-.89.78-1.78 1.54-2.68 2.27-18.47 15.06-39.38 18.03-57.64 6.72 5.64-5.04 10.97-10.58 15.9-16.61z"/></svg>