<svg xmlns="http://www.w3.org/2000/svg" shape-rendering="geometricPrecision" text-rendering="geometricPrecision" image-rendering="optimizeQuality" fill-rule="evenodd" clip-rule="evenodd" viewBox="0 0 512 235.52"><path d="M445.71 102.94c36.61 0 66.29 29.69 66.29 66.3 0 36.6-29.68 66.28-66.29 66.28-36.6 0-66.29-29.68-66.29-66.28 0-23.61 12.35-44.34 30.93-56.08l-15.63-24.08-63.63 59.91c3.29 4.09 5.26 9.27 5.26 14.88 0 6.52-2.66 12.46-6.97 16.78l-.06.06a23.928 23.928 0 0 1-11.44 6.35v14.87h13.14v13.58H294.1v-13.58h13.13v-14.87c-4.4-1.02-8.35-3.27-11.46-6.37l-.06-.06c-1.67-1.68-3.09-3.6-4.2-5.71h-83.33a24.117 24.117 0 0 1-4.22 5.73l-.07.06c-3.11 3.09-7.04 5.33-11.43 6.35v14.87h13.13v13.58h-36.92v-13.58h13.14v-14.87c-4.4-1.02-8.35-3.27-11.46-6.37l-.06-.06a24.17 24.17 0 0 1-4.21-5.71h-33.74c-2.88 33.94-31.35 60.6-66.04 60.6-36.6 0-66.3-29.68-66.3-66.28 0-36.61 29.7-66.3 66.3-66.3 3.07 0 6.1.21 9.06.62l7.35-17.61-30.91.46a9.26 9.26 0 0 1-9.37-9.15c-.06-5.11 4.03-9.31 9.15-9.37l44.46-.67c.39-.04.78-.07 1.17-.07l41.92-.81-10.22-26.23c-.44-1.1-.64-2.25-.64-3.37h-17.02v-.01c-16.37 0-16.41-29.78 0-29.81v-.01h52.59v.01c16.38 0 16.41 29.78 0 29.81v.01h-16.33l11.4 29.22 98.28-1.9-12.08-27.31h-14.73v-.01c-16.34-.03-16.29-29.81.01-29.81v-.01h52.59v.01c16.34.02 16.3 29.81 0 29.81v.01h-17.57l11.92 26.92 117.85-2.27c.59 0 1.16.05 1.72.15l6.86-6.46 16.44-35.04.03-.05h-35.44c-5.04-.53-8.97-4.8-8.97-9.97 0-5.54 4.49-10.03 10.03-10.03h50.08v.04h.07c1.39.01 2.81.31 4.16.94 4.99 2.34 7.15 8.28 4.82 13.27l-31.46 67.07 15.42 23.76a66.733 66.733 0 0 1 16.77-2.14zm-258.58 47.21c7.58 0 13.72 6.14 13.72 13.72 0 7.58-6.14 13.72-13.72 13.72-7.58 0-13.72-6.14-13.72-13.72 0-7.58 6.14-13.72 13.72-13.72zm125.43 0c7.58 0 13.72 6.14 13.72 13.72 0 7.58-6.14 13.72-13.72 13.72-7.58 0-13.72-6.14-13.72-13.72 0-7.58 6.14-13.72 13.72-13.72zm0-10.08c.3 0 .61.01.91.02l61.99-58.35-89.35 1.79 25.04 56.59c.46-.03.93-.05 1.41-.05zm-22.02 14.8a23.82 23.82 0 0 1 3.97-6.46l-28.52-64.47-99.29 1.99 21.12 54.15c6.25.18 11.93 2.81 16.1 6.97l.06.06c2.2 2.21 3.97 4.84 5.17 7.76h81.39zm-125.42 0c1.2-2.93 2.98-5.57 5.19-7.79l.06-.06.17-.16-23.61-60.53-43.2.87-9.03 22.12c18.22 8.66 31.87 25.38 36.33 45.55h34.09zm-54.85 0H74.56l12.03-27.2c11.14 5.46 19.78 15.26 23.68 27.2zm-55.99 13.76-.25.31c1.65 3.74 5.31 5.97 9.16 5.97v.01h49.01c-2.81 22.85-22.29 40.56-45.9 40.56-25.54 0-46.24-20.72-46.24-46.24 0-25.54 20.7-46.25 46.24-46.25h.46L51.7 157.05c-1.8 4.11-.64 8.77 2.58 11.58zm386.45-45.37 16.08 24.77c3.01 4.63 1.69 10.82-2.94 13.82-4.62 3.02-10.81 1.7-13.82-2.93l-18.78-28.94c-13.09 8.17-21.8 22.7-21.8 39.26 0 25.52 20.71 46.24 46.24 46.24 25.54 0 46.24-20.72 46.24-46.24 0-25.54-20.7-46.25-46.24-46.25-1.68 0-3.34.09-4.98.27z"/></svg>