<svg id="Layer_1" data-name="Layer 1" xmlns="http://www.w3.org/2000/svg" viewBox="0 0 122.88 117.62"><defs><style>.cls-1{fill-rule:evenodd;}</style></defs><title>taxi-car-driving-on-road</title><path class="cls-1" d="M0,117.62,30,0h7.08l-26,117.62ZM64.15,0l.43,10.6H58.11L58.75,0ZM28.35,89.09c-6.27-3.19-5.55-6.74.74-6.37l1.41,2.65,2.91-9c1.14-3.55,3-6.78,6.77-6.78h2.1V60.76a3.19,3.19,0,0,1,3.18-3.18h32a3.19,3.19,0,0,1,3.18,3.18v8.79H85c3.73,0,5.87,3.16,6.77,6.78L94,85.09l1.26-2.37c6.47-.37,7.05,3.39.2,6.64l1.11,1.7c4.51,4.63,4.08,9.25,3.38,20.68v3.76a2.13,2.13,0,0,1-2.12,2.12h-9a2.13,2.13,0,0,1-2.12-2.12v-1.7H36.26v1.7a2.13,2.13,0,0,1-2.12,2.12h-9A2.13,2.13,0,0,1,23,115.5v-4.88a1.76,1.76,0,0,1,0-.33c-.69-8.77-1.65-16.68,5.33-21.2ZM53.93,63.15H51.84v6.7H49v-6.7H46.87v-2.3h7.06v2.3Zm3,6.7h-3l2.33-9h4.45l2.34,9h-3l-.33-1.43H57.23l-.33,1.43Zm1.44-6.24-.59,2.52h1.32l-.57-2.52Zm8.27-2.76,1,2.4h.14l1-2.4h3.13l-2,4.34,2,4.66h-3.2l-1.08-2.6h-.13l-1.06,2.6H63.34l2-4.57-2-4.43Zm6.52,9v-9H76v9Zm4.4,3.26H41.41c-2.84,0-4.29,2.46-5.17,5.16l-2.72,9.09v0H90.73l-2.18-9.09c-.6-2.77-2.32-5.16-5.17-5.16ZM37.88,99.24l-6-.76c-1.9-.21-2.41.59-1.76,2.22.84,2,1.15,3.7,3.75,3.81l7.15.06c1.73,0,2.48-.7,1.94-2.28-.81-2.71-2.83-2.77-5.06-3.05ZM83,99.49l8-1c1.89-.21,2.4.59,1.75,2.22l-.86,2.11A3.07,3.07,0,0,1,90.83,104a3.74,3.74,0,0,1-1.8.49l-7.15.06c-1.73,0-2.48-.7-1.94-2.28A3.87,3.87,0,0,1,83,99.49ZM56,44.13H66.66l.56,8H55.57l.45-8Zm1.64-25.54h7.62l.79,17.63H56.81l.85-17.63ZM93.54,0l29.34,117.62h-10.5L86,0Z"/></svg>