<svg id="Layer_1" data-name="Layer 1" xmlns="http://www.w3.org/2000/svg" viewBox="0 0 104.2 122.88"><defs><style>.cls-1{fill-rule:evenodd;}</style></defs><title>trolleybus</title><path class="cls-1" d="M89.45,109H84.32v8.09a5.76,5.76,0,0,1-5.75,5.75H75.19a5.77,5.77,0,0,1-5.76-5.75V109H34.61v8.09a5.77,5.77,0,0,1-5.75,5.75H25.48a5.78,5.78,0,0,1-5.76-5.75V109H15.34c-3-.05-4.43-1.65-4.66-4.48v-66c-1.67.16-2.5.55-2.9,1.42V58.86H4.13A4.14,4.14,0,0,1,0,54.73V43.58a4.15,4.15,0,0,1,4-4.13c.35-3.24,1.75-4.17,6.79-4.42q1-8.48,11.55-12.54a155.07,155.07,0,0,1,20.4-2L49.78,0h6l-7,20.34c3.13,0,6.29,0,9.41,0L65.23,0h6L64.2,20.6a133.66,133.66,0,0,1,17.64,1.89C88.87,25.2,92.7,29.38,93.4,35c5,.25,6.44,1.2,6.79,4.41a4.15,4.15,0,0,1,4,4.13V54.73a4.14,4.14,0,0,1-4.13,4.13H96.42V39.94c-.41-.85-1.24-1.23-2.91-1.38v65.35c0,3.79-1.22,5.14-4.06,5.13ZM14.13,92.4l.23-5.6c.13-1,.65-1.42,1.58-1.27a110.37,110.37,0,0,1,13.49,8.52c.91.61.55,1.78-.65,1.56L16.1,94.68a2.28,2.28,0,0,1-2-2.28Zm75.94,0-.24-5.6c-.13-1-.65-1.42-1.57-1.27a111.26,111.26,0,0,0-13.5,8.52c-.91.61-.54,1.78.66,1.56l12.68-.93a2.29,2.29,0,0,0,2-2.28Zm-73,7.23a2.11,2.11,0,1,1-2.1,2.1,2.1,2.1,0,0,1,2.1-2.1Zm69.27,0a2.11,2.11,0,1,1-2.1,2.1,2.1,2.1,0,0,1,2.1-2.1Zm-42.19,0H60.36a.79.79,0,0,1,.79.79v2.71a.79.79,0,0,1-.79.79H44.17a.79.79,0,0,1-.8-.79v-2.71a.79.79,0,0,1,.8-.79ZM40.86,25.5H63.34a1.38,1.38,0,0,1,1.37,1.37v3.58a1.38,1.38,0,0,1-1.37,1.37H40.86a1.37,1.37,0,0,1-1.37-1.37V26.87a1.38,1.38,0,0,1,1.37-1.37ZM17.23,36.35H86.66A1.69,1.69,0,0,1,88.34,38V74.66c0,.92-.75,1.43-1.68,1.68-23.81,7.23-45.62,6.93-69.43,0-.94-.25-1.68-.76-1.68-1.68V38a1.67,1.67,0,0,1,1.68-1.68Z"/></svg>