<svg xmlns="http://www.w3.org/2000/svg" shape-rendering="geometricPrecision" text-rendering="geometricPrecision" image-rendering="optimizeQuality" fill-rule="evenodd" clip-rule="evenodd" viewBox="0 0 358 511.55"><path d="M358 178.8v161.92c0 4.26-3.46 7.72-7.72 7.72h-58.96c-4.25 0-7.71-3.46-7.71-7.72V180.87c0-31.61-11.58-56.19-29.14-73.43l-.59-.57a7.845 7.845 0 0 1-2.55-1.89c-.37-.42-.69-.87-.96-1.34-19.6-17.18-45.5-26.2-71.04-26.72l-.33.01-.61-.02-.78-.01-.61.03c-26.14 0-52.81 8.88-72.94 26.25-20.02 17.28-33.62 43.08-33.78 77.04l.02 160.5c0 4.26-3.45 7.72-7.71 7.72H7.72c-4.26 0-7.72-3.46-7.72-7.72V178.8l.03-1.12c.3-58.28 22.81-102.7 56.43-132.6C90 15.25 134.56 0 179.05 0l.15.01h.21l.59.02c47.47.24 94.87 17.83 128.82 51.93C338.6 81.88 358 124.37 358 178.8zM39.55 511.55l51.51-199.04V186.19c0-48.37 39.57-87.94 87.94-87.94s87.95 39.57 87.95 87.94v116.09l52.95 209.27h-25.97L250.2 318.68h-8.06l30.87 192.87H87.66l29.8-192.87h-8.15L66.32 511.55H39.55zm24.7-452.72 33.37 29.72c21.02-16.7 47.43-25.78 73.67-26.93V15.57c-38.25 1.68-75.9 15.51-104.58 41.02-.83.74-1.65 1.49-2.46 2.24zm21.91 40.15L53.51 69.91C30.39 96.4 15.63 132.45 15.4 177.71l.03 155.3h39.44c0-50.94-.19-101.94.04-152.85.17-34.36 12.45-61.53 31.25-81.18zm100.56-83.41v46.32c25.3 1.89 50.49 11.14 70.58 27.46l35.4-31.52c-28.87-26.34-67.13-40.61-105.98-42.26zm116.83 53.24-34.93 31.1c18.46 19.74 30.42 46.85 30.42 80.96v152.14h43.53V178.8c0-46.43-15.19-83.22-39.02-109.99zM173.21 309.75h13.33l1.29 32.25h-16.57l1.41-23.32.54-8.93zm-3.37 61.55h19.57l2.04 45.72h-23.81l2.2-45.72zm-4.25 74.82h27.4l2.71 41.68h-32.31l2.2-41.68z"/></svg>