<svg xmlns="http://www.w3.org/2000/svg" shape-rendering="geometricPrecision" text-rendering="geometricPrecision" image-rendering="optimizeQuality" fill-rule="evenodd" clip-rule="evenodd" viewBox="0 0 512 182.14"><path fill-rule="nonzero" d="M45.18 0h28.68c12.43 0 23.73 5.08 31.91 13.27l.45.48c7.92 8.15 12.82 19.27 12.82 31.43v32.99h50.52c21.67 0 28.02-34.63 86.44-34.63 59.47 0 63.02 34.63 88.16 34.63h48.8V45.18c0-12.4 5.09-23.7 13.28-31.9C414.41 5.08 425.7 0 438.13 0h28.69c12.39 0 23.69 5.08 31.88 13.27l.03.03C506.92 21.51 512 32.8 512 45.18v91.79c0 12.43-5.08 23.72-13.27 31.91l-.48.44c-8.15 7.92-19.27 12.82-31.43 12.82h-28.69c-12.43 0-23.72-5.08-31.91-13.26-8.18-8.19-13.26-19.48-13.26-31.91v-32.99h-48.79c-25.18 0-28.69 34.62-88.17 34.62-58.56 0-64.54-34.62-86.66-34.62h-50.3v32.99c0 12.43-5.08 23.72-13.27 31.91-8.18 8.18-19.48 13.26-31.91 13.26H45.18c-12.4 0-23.7-5.08-31.9-13.28C5.08 160.69 0 149.4 0 136.97V45.18C0 32.79 5.08 21.49 13.27 13.3l.03-.03C21.51 5.08 32.8 0 45.18 0zm450.74 141.1-16.21 8.67a7.858 7.858 0 0 1-10.63-3.24c-2.04-3.82-.59-8.59 3.23-10.63l23.91-12.78v-11.45l-16.51 8.83a7.858 7.858 0 0 1-10.63-3.24c-2.04-3.82-.59-8.59 3.23-10.63l23.91-12.78v-11.8l-16.51 8.84a7.858 7.858 0 0 1-10.63-3.24c-2.04-3.83-.59-8.59 3.23-10.63l23.91-12.79V52.44l-16.51 8.83a7.858 7.858 0 0 1-10.63-3.24c-2.04-3.83-.59-8.59 3.23-10.63l22.27-11.91a29.404 29.404 0 0 0-6.97-11.07l-.03-.03c-5.31-5.31-12.66-8.61-20.76-8.61h-28.69c-8.07 0-15.42 3.31-20.75 8.64a29.227 29.227 0 0 0-7 11.07l22.26 11.91a7.858 7.858 0 0 1-7.39 13.87l-16.51-8.83v11.79l23.9 12.79a7.858 7.858 0 0 1-7.39 13.87l-16.51-8.84v11.8l23.9 12.78a7.858 7.858 0 0 1-7.39 13.87l-16.51-8.83v11.45l23.9 12.78a7.858 7.858 0 0 1-7.39 13.87l-16.22-8.67c.92 6.43 3.94 12.22 8.35 16.62 5.33 5.33 12.68 8.64 20.75 8.64h28.69c7.93 0 15.13-3.15 20.41-8.26l.35-.38c4.4-4.4 7.43-10.19 8.34-16.62zm-392.95 0-16.22 8.67a7.858 7.858 0 0 1-7.39-13.87l23.9-12.78v-11.45l-16.51 8.83a7.858 7.858 0 0 1-7.39-13.87l23.9-12.78v-11.8l-16.51 8.84a7.858 7.858 0 0 1-7.39-13.87l23.9-12.79V52.44l-16.51 8.83a7.858 7.858 0 0 1-7.39-13.87l22.26-11.91c-1.42-4.05-3.7-7.7-6.62-10.72l-.38-.35c-5.33-5.33-12.68-8.64-20.76-8.64H45.18c-8.1 0-15.46 3.3-20.76 8.61l-.03.03a29.404 29.404 0 0 0-6.97 11.07L39.68 47.4a7.858 7.858 0 0 1-7.39 13.87l-16.51-8.83v11.79l23.9 12.79a7.858 7.858 0 0 1-7.39 13.87l-16.51-8.84v11.8l23.9 12.78a7.858 7.858 0 0 1-7.39 13.87l-16.51-8.83v11.45l23.9 12.78a7.858 7.858 0 0 1-7.39 13.87l-16.22-8.67c.92 6.43 3.94 12.22 8.35 16.62a29.18 29.18 0 0 0 20.76 8.64h28.68c8.08 0 15.43-3.31 20.76-8.64 4.41-4.4 7.43-10.19 8.35-16.62z"/></svg>