<svg xmlns="http://www.w3.org/2000/svg" shape-rendering="geometricPrecision" text-rendering="geometricPrecision" image-rendering="optimizeQuality" fill-rule="evenodd" clip-rule="evenodd" viewBox="0 0 512 505.76"><path d="M511.95 165.28c-1.06 24.28-11.24 48.8-29.12 68.96-29.67 33.44-41.67 47.15-80.66 71.49-43 26.84-79.24 35.74-103.85 13.79L187.77 208.97c-13.04-28.56-3.38-63.55 20.76-102.62 23.05-37.31 37.39-48.1 69.27-76.72C297.32 12.11 321.73 1.65 345.92.11c64.94-4.13 168.62 106.14 166.03 165.17zM82.64 505.76H1.45L0 423.69l62.47 1.45 1.44-65.37 65.37-1.44v-63.92l56.15-17.23 20.58-20.58 62.89 62.9L82.64 505.76zM291.67 139.5l80.93 80.93c2.63 2.63 2.62 6.94 0 9.56l-22.4 22.4c-2.62 2.62-6.94 2.62-9.56 0l-80.94-80.93c-2.62-2.62-2.63-6.93 0-9.56l22.41-22.4c2.63-2.64 6.93-2.64 9.56 0zm129.19-48.26c23.89 23.89 35.88 50.63 26.79 59.72-9.1 9.09-35.83-2.9-59.72-26.79-23.89-23.88-35.88-50.62-26.78-59.71 9.09-9.1 35.82 2.89 59.71 26.78z"/></svg>