<svg xmlns="http://www.w3.org/2000/svg" shape-rendering="geometricPrecision" text-rendering="geometricPrecision" image-rendering="optimizeQuality" fill-rule="evenodd" clip-rule="evenodd" viewBox="0 0 512 317.85"><path fill-rule="nonzero" d="m15.42 235.77.78-.7c1.51-1.33 3.08-2.51 4.67-3.57 3.33-2.21 6.88-3.9 10.63-5.22 3.18-1.12 6.55-1.99 10.1-2.71V14.62c-26.57 4.06-26.4 30.74-26.25 55.57.22 1.29.05 4.8.06 6.34l.01 159.24zm366.5-101.35c-12.23 5.46-22.12 13.96-24.81 33.97-.29 2.21-2.39 3.75-4.68 3.49-2.3-.29-3.92-2.3-3.63-4.49 3.13-23.32 15.09-33.9 29.89-40.38 7.45-3.27 15.59-4.57 23.64-4.11 24.43 1.36 49.53 18.59 50.66 44.87.09 2.22-1.71 4.09-4.03 4.18-2.31.09-4.25-1.64-4.34-3.86-.69-16.36-10.4-25.14-23.13-31.75-2.13-1.1-1.21-.52-3.15-.58-7.29-.18-4.82 28.06-4.82 35.44 0 2.26-1.87 4.09-4.16 4.09-2.3 0-4.17-1.83-4.17-4.09 0-11.56-1.97-30.87 4.04-39.26-2.44-.51-4.91-.85-7.38-.99-3.12-.18-6.24-.04-9.3.41 5.68 8.81 3.76 28.05 3.76 39.84 0 2.24-1.82 4.06-4.06 4.06-2.25 0-4.06-1.82-4.06-4.06 0-5.54 2.13-30.24-2.93-35.66-1.2-1.29-1.98-.67-3.34-1.12zm67.5 51.18c1.49 3.62 2.19 6.71 3.09 10.5.14.6.21.92.25 1.35.05.43.03.82.01 1.65-.18 7.11-2.06 21.47-10.41 23.84l-.3 1.08-.52 2.02c-2.72 10.04-8.11 18.86-15.38 24.99-14.64 12.35-35.91 11.82-50.23-.78-6.52-5.75-11.47-13.65-14.81-22.6-.68-1.82-1.22-3.62-1.82-5.46l-.09-.26c-6.72-1.22-9.77-11.98-10.33-17.68-.58-5.72 1.59-12.23 3.77-17.48-.68-.38-1.34-.75-1.97-1.15-4.18-2.62-7.35-5.8-9.13-9.56l7.62-3.33c1.09 2.3 3.21 4.36 6.09 6.16 9.31 5.82 25.68 8.62 42.6 8.67 17.05.05 34.42-2.72 45.57-8.01 4.4-2.08 7.69-4.5 9.38-7.21l7.19 4.13c-2.21 3.55-5.88 6.6-10.58 9.13zm-88.36 4.8-.09.08c-5.43 4.85-5.68 19.39.05 24.49.42.38.8.57 1.11.52 3.64-1.13 4.4 3.93 5.08 6.2 3.39 10.77 9.54 18.63 16.82 23.43 5.47 3.61 11.59 5.49 17.66 5.57 6.05.08 12.06-1.62 17.34-5.19 6.42-4.34 11.77-11.43 14.81-21.41.62-2.39 1.33-8.19 4.93-7.47h.02c2.94.42 5.86-11.64 6.06-13.98.22-2.43-.42-4.04-1.11-5.79-.93-2.32-1.57-4.66-2.54-6.98a1.63 1.63 0 0 1-.12-.65c-21.53 7.54-57.27 8.93-80.02 1.18zM512 316.19c-2.35-30.59 3.65-28.97-21.97-38.59-12.79-4.79-34.95-10.86-46.71-18.17l-21.95 56.76H512zm-219.15 0c2.35-30.59-3.64-28.97 21.98-38.59 12.78-4.79 34.95-10.86 46.7-18.17l21.95 56.76h-90.63zm115.73-30.03h3.05c2.77 0 5.04-2.26 5.04-5.03v-8.18c0-2.76-2.27-5.02-5.04-5.02h-18.21c-2.76 0-5.02 2.26-5.02 5.02v8.18c0 2.77 2.26 5.03 5.02 5.03h3.1l-5.94 30.03h23.73l-5.73-30.03zm-115.03-88.71h-20.46c-4.01 0-7.27-3.26-7.27-7.28 0-4.01 3.26-7.27 7.27-7.27h20.46v-75.85h-77.82v75.85h27.73c4.01 0 7.27 3.26 7.27 7.27 0 4.02-3.26 7.28-7.27 7.28h-27.73v7.46a7.27 7.27 0 0 1-7.27 7.27c-4.02 0-7.27-3.25-7.27-7.27v-97.86h-95.95v50.88h46.99c4.01 0 7.27 3.26 7.27 7.27v86.06h41.43V230.8c0-4.01 3.26-7.27 7.27-7.27s7.27 3.26 7.27 7.27v20.46h2.22c4.01 0 7.27 3.26 7.27 7.27a7.27 7.27 0 0 1-7.27 7.27H97.97c-4.02 0-7.27-3.25-7.27-7.27V99.79c0-4.02 3.25-7.28 7.27-7.28h202.85a7.28 7.28 0 0 1 7.28 7.28v158.74c0 4.02-3.26 7.27-7.28 7.27h-57.24a7.27 7.27 0 0 1-7.27-7.27c0-4.01 3.26-7.27 7.27-7.27h49.97v-53.81zm-188.31-24.98v78.79h39.72v-78.79h-39.72zm-49.57 57.4c-.09 1.56-.7 3.01-1.69 4.16a7.028 7.028 0 0 1-4.28 2.36l-.16.02c-4.14.64-7.97 1.42-11.47 2.5-3.46 1.06-6.63 2.44-9.45 4.3-2.67 1.77-5.11 4.04-7.33 6.97-2.21 2.92-4.21 6.52-6.01 10.95-.94 24.68 8.7 38.44 32.9 42.55h227.78c-.09 2.6-.24 5.8-.56 10.24-.1.74-.15 1.5-.15 2.27 0 .56.03 1.11.08 1.66H47.75c-31.58 0-47.81-30.64-46.45-58.32 0-61.09-2.93-129.23.01-189.44C1.19 53.74 1.1 36.73 6.8 23.5 12.67 9.89 24.42.44 47.93.01c4.23-.18 7.79 2.63 7.79 7.02v33.43H395.5c5.57 0 10.2 4.58 10.2 10.2v54.89c-.81-.07-1.61-.13-2.41-.18-3.93-.22-7.86-.13-11.74.28l.01-51.09H55.72l-.05 175.31z"/></svg>