<svg id="Layer_1" data-name="Layer 1" xmlns="http://www.w3.org/2000/svg" viewBox="0 0 122.88 93.25"><title>architectural</title><path d="M79.72,77.34a2.13,2.13,0,1,1,0-4.26h4V57.29H79.84a2.14,2.14,0,0,1,0-4.27h3.87V30.77H67.28V53h3.87a2.14,2.14,0,0,1,0,4.27H67.28v4.32a2.14,2.14,0,0,1-4.27,0V30.77H34.87V45.7H48.65a2.13,2.13,0,0,1,2.13,2.13V73.08H62.94V69.21a2.14,2.14,0,1,1,4.27,0v3.87h4.91a2.13,2.13,0,1,1,0,4.26H32.74a2.13,2.13,0,0,1-2.13-2.13V28.64a2.13,2.13,0,0,1,2.13-2.13H85.85A2.13,2.13,0,0,1,88,28.64V75.21a2.13,2.13,0,0,1-2.13,2.13ZM122.79,28V91.75H105.54V28h-.07l.59-1.19,7.12-14.63.72-1.5.76,1.47,7.58,14.64.64,1.21Zm-14.65-1.67h12l-4.78-9.2h-2.76l-4.48,9.2Zm-7.93,64V92h0a5,5,0,0,0,.21,1.24H14a13.34,13.34,0,0,1-6-1.78,14.9,14.9,0,0,1-5-4.19A14,14,0,0,1,.82,82.2a22.75,22.75,0,0,1-.44-6.06c0-17.92-.86-37.91,0-55.57C.35,15.77.32,10.78,2,6.9S7.16.13,14.06,0h.21a2.11,2.11,0,0,1,1.47.6,2.11,2.11,0,0,1,.6,1.47v9.81h91.07l-.61,1.24v0l-.12.25-.13.25-.12.25-.12.25-.12.26-.13.25,0,.11L105.39,16h-89V67.44a2.13,2.13,0,0,1-.49,1.22,2,2,0,0,1-1.26.69h-.05a25,25,0,0,0-3.36.73A10.62,10.62,0,0,0,8.4,71.35,8.64,8.64,0,0,0,6.25,73.4a14.1,14.1,0,0,0-1.77,3.21,18.83,18.83,0,0,0,.35,4.62,10.14,10.14,0,0,0,1.54,3.66l0,0a8.82,8.82,0,0,0,3,2.61l0,0a15,15,0,0,0,4.73,1.54h86.08v1.24ZM4.52,69.17l.23-.2a13.14,13.14,0,0,1,1.37-1,14.11,14.11,0,0,1,3.12-1.53,21.7,21.7,0,0,1,3-.8V4.29c-7.79,1.2-7.74,9-7.7,16.31a16.3,16.3,0,0,1,0,1.86V69.17ZM34.87,50V73.08H46.52V50Z"/></svg>