<svg id="Layer_1" data-name="Layer 1" xmlns="http://www.w3.org/2000/svg" viewBox="0 0 106.23 123.12"><defs><style>.cls-1{stroke:#000;stroke-miterlimit:22.93;stroke-width:0.48px;fill-rule:evenodd;}</style></defs><title>balcony</title><path d="M53.12,0A32.26,32.26,0,0,1,85.28,32.16V58.78H79.69V37.84H55.91V58.78H50.32V37.84H26.55V58.78H21V32.16A32.25,32.25,0,0,1,53.12,0Zm2.79,5.74v26.5H79.69v-.08A26.68,26.68,0,0,0,55.91,5.74Zm-5.59,26.5V5.74A26.66,26.66,0,0,0,26.55,32.16v.08Z"/><path class="cls-1" d="M2.45,55.47H103.79a2.22,2.22,0,0,1,2.2,2.21v2a2.22,2.22,0,0,1-2.2,2.21H2.45A2.22,2.22,0,0,1,.24,59.64v-2a2.22,2.22,0,0,1,2.21-2.21Z"/><path class="cls-1" d="M8.21,103.27H98.15A1.72,1.72,0,0,1,99.86,105v8.09a9.83,9.83,0,0,1-9.8,9.8H16.29a9.83,9.83,0,0,1-9.8-9.8V105a1.73,1.73,0,0,1,1.72-1.72Z"/><polygon class="cls-1" points="13.87 61.85 18.89 61.85 18.89 103.85 13.87 103.85 13.87 61.85 13.87 61.85"/><polygon class="cls-1" points="32.24 61.85 37.26 61.85 37.26 103.85 32.24 103.85 32.24 61.85 32.24 61.85"/><polygon class="cls-1" points="50.62 61.85 55.63 61.85 55.63 103.85 50.62 103.85 50.62 61.85 50.62 61.85"/><polygon class="cls-1" points="68.99 61.85 74.01 61.85 74.01 103.85 68.99 103.85 68.99 61.85 68.99 61.85"/><polygon class="cls-1" points="87.36 61.85 92.38 61.85 92.38 103.85 87.36 103.85 87.36 61.85 87.36 61.85"/></svg>