<svg id="Layer_1" data-name="Layer 1" xmlns="http://www.w3.org/2000/svg" viewBox="0 0 122.88 72.94"><defs><style>.cls-1{fill-rule:evenodd;}</style></defs><title>bricks</title><path class="cls-1" d="M43.93,0H79a1.47,1.47,0,0,1,1.47,1.47V19.83A1.48,1.48,0,0,1,79,21.3h-35a1.48,1.48,0,0,1-1.47-1.47V1.47A1.47,1.47,0,0,1,43.93,0ZM86.39,51.64h35a1.48,1.48,0,0,1,1.47,1.47V71.47a1.47,1.47,0,0,1-1.47,1.47h-35a1.47,1.47,0,0,1-1.47-1.47V53.11a1.48,1.48,0,0,1,1.47-1.47Zm-42.46,0H79a1.48,1.48,0,0,1,1.47,1.47V71.47A1.47,1.47,0,0,1,79,72.94h-35a1.47,1.47,0,0,1-1.47-1.47V53.11a1.48,1.48,0,0,1,1.47-1.47Zm-7.44,0h-35A1.48,1.48,0,0,0,0,53.11V71.47a1.47,1.47,0,0,0,1.47,1.47h35A1.47,1.47,0,0,0,38,71.47V53.11a1.48,1.48,0,0,0-1.47-1.47ZM22.76,25.82h35a1.48,1.48,0,0,1,1.47,1.47V45.65a1.47,1.47,0,0,1-1.47,1.47h-35a1.47,1.47,0,0,1-1.47-1.47V27.29a1.47,1.47,0,0,1,1.47-1.47Zm42.34,0h35a1.48,1.48,0,0,1,1.47,1.47V45.65a1.47,1.47,0,0,1-1.47,1.47h-35a1.47,1.47,0,0,1-1.47-1.47V27.29a1.47,1.47,0,0,1,1.47-1.47Z"/></svg>