<svg id="Layer_1" data-name="Layer 1" xmlns="http://www.w3.org/2000/svg" viewBox="0 0 122.88 115.38"><defs><style>.cls-1{fill-rule:evenodd;}</style></defs><title>builder</title><path class="cls-1" d="M43.84,71.27l9.74,28.64,4.89-17-2.4-2.62c-1.08-1.58-1.32-3-.71-4.15,1.3-2.58,4-2.1,6.5-2.1s5.88-.49,6.71,2.8a4.38,4.38,0,0,1-.84,3.45l-2.4,2.62,4.89,17L79,71.27c6.36,5.72,25.19,6.87,32.2,10.78A18.28,18.28,0,0,1,117.07,87c4.36,5.76,4.69,15,5.81,22.11-.36,3.79-2.5,6-6.73,6.29H6.73c-4.23-.32-6.37-2.5-6.73-6.29C1.12,101.94,1.45,92.74,5.81,87a18.17,18.17,0,0,1,5.83-4.93c7-3.91,25.84-5.06,32.2-10.78ZM53.11,6a2,2,0,0,1-.7-.1C46.19,8.69,41.16,14.8,39.79,25a2.12,2.12,0,0,1-2.38,1.77,2.06,2.06,0,0,1-1.85-2.28c1.59-11.86,7.68-19,15.21-22.33a26,26,0,0,1,12-2.09A29.18,29.18,0,0,1,74.56,3.27c7.71,4,13.58,11.46,14,21.39a2.13,2.13,0,0,1-4.26.16A21,21,0,0,0,72.54,6.88c-.28-.14-.55-.28-.84-.41a2.09,2.09,0,0,1-.76.11C69,6.54,68.5,10,68.38,14.64c0,2.09,0,4.39,0,6.73,0,1.87.08,3.77.08,5a2.12,2.12,0,0,1-4.24,0c0-2.07,0-3.53-.06-5,0-2.4-.09-4.74,0-6.89.11-4.21.61-7.76,2.15-9.9a24.09,24.09,0,0,0-3.76-.51,23.34,23.34,0,0,0-4.73.21c1.41,2.19,1.89,5.69,2,9.82.06,2.22,0,4.65,0,7.14,0,1.49-.05,3-.05,5.1a2.07,2.07,0,0,1-4.13,0c0-1.31,0-3.25.07-5.16,0-2.45.09-4.83,0-7C55.6,9.49,55.08,6,53.11,6ZM86.53,33.85q.24.59.45,1.17v0c.22.6.42,1.22.61,1.84v.06c.24,1.21.38,1.82.47,2.19v0a4.43,4.43,0,0,1,.13.63c0,.19,0,.39,0,.8s0,1.06,0,2.14v0A16.67,16.67,0,0,1,87.84,45a23.4,23.4,0,0,1-.67,2.39v0a11.35,11.35,0,0,1-2,3.59A4.41,4.41,0,0,1,83,52.53l-.45,1.7a25,25,0,0,1-7.75,12.6l0,0a18.46,18.46,0,0,1-12.53,4.46,19.21,19.21,0,0,1-12.66-4.88,29.24,29.24,0,0,1-8.14-13.36c-.09-.34-.23-.73-.34-1.08a4.61,4.61,0,0,1-3.2-2.48,16.47,16.47,0,0,1-2-6.32,13.5,13.5,0,0,1,.5-4.75,30.89,30.89,0,0,1,1.39-4c-.43-.22-.83-.45-1.22-.7a12,12,0,0,1-4.65-4.86l3.88-1.69h0a7.84,7.84,0,0,0,3.1,3.13c4.73,3,13.06,4.38,21.67,4.41S78,33.35,83.7,30.66A11.17,11.17,0,0,0,88.47,27l3.66,2.1a14.17,14.17,0,0,1-5.6,4.76Zm-45,2.24c-1.39,1.39-1.81,3.88-1.65,6.31a15.06,15.06,0,0,0,.82,4.1,5.16,5.16,0,0,0,1.4,2.34l0,0a.54.54,0,0,0,.42.12,1.24,1.24,0,0,1,1,.12,1.39,1.39,0,0,1,.63.75c.24.67.45,1.44.66,2.13A22.25,22.25,0,0,0,53.47,64.1a16.75,16.75,0,0,0,9,2.86,15.28,15.28,0,0,0,8.82-2.65,19.94,19.94,0,0,0,7.57-11c.17-.65.34-1.24.53-1.9l.22-.75a1.42,1.42,0,0,1,.53-.75l0,0a1.21,1.21,0,0,1,.92-.2c.36.06.8-.21,1.24-.7a8.51,8.51,0,0,0,1.49-2.62,15.5,15.5,0,0,0,.4-5.47,26.58,26.58,0,0,0-1.41-5.1.54.54,0,0,1,0-.25v-.05c-11,4-29.57,4.68-41.22.61Z"/></svg>