<svg xmlns="http://www.w3.org/2000/svg" shape-rendering="geometricPrecision" text-rendering="geometricPrecision" image-rendering="optimizeQuality" fill-rule="evenodd" clip-rule="evenodd" viewBox="0 0 465 511.52"><path fill="#FED049" d="M286.54 25.81C374.95 49 440.31 127.86 441.6 223.4H278.17c-1.18 9.1-8.54 16.29-17.86 16.29h-55.62c-9.32 0-16.68-7.2-17.86-16.29H23.39C24.69 127.86 90.05 49 178.46 25.81l-.32-7.79C177.72 8.14 186.27 0 196.15 0h72.7c9.88 0 18.43 8.12 18.01 18.02l-.32 7.79z"/><path fill="#E8AE00" d="M285.78 43.84c20.66 5.8 40.13 14.63 57.59 25.98l-28.45 150.15h-36.53l7.39-176.13zm-99.17 176.13h-42.24L116.42 67.93c19.11-11.97 40.11-20.95 62.71-26.31l7.48 178.35z"/><path fill="#4E5460" d="M450.11 282.46v24.83c0 14.94-12.25 27.17-27.17 27.17h-34.45a168.86 168.86 0 0 1-15.65 38.76l24.07 24.07c10.57 10.56 10.57 27.86 0 38.42l-22.61 22.61c-10.56 10.56-27.86 10.56-38.42 0l-22.74-22.74c-12.4 7.63-25.85 13.7-40.09 17.97v30.79c0 14.94-12.23 27.18-27.17 27.18h-31.97c-14.93 0-27.17-12.23-27.17-27.18v-27.82a169.041 169.041 0 0 1-44.26-16.76l-18.56 18.56c-10.57 10.56-27.87 10.56-38.43 0l-22.61-22.61c-10.56-10.56-10.57-27.86 0-38.42l16.93-16.93a169.276 169.276 0 0 1-19.87-45.9H36.85c-14.93 0-27.16-12.23-27.17-27.17l.01-29.1c6.01 6.05 14.33 9.81 23.47 9.81h102.92l-.02 2.7c0 48.69 39.48 88.17 88.16 88.17s88.16-39.49 88.16-88.17l-.02-2.7h119.48c6.73 0 13.02-2.04 18.27-5.54z"/><path fill="#FED049" d="M33.16 221.67h398.68c18.24 0 33.16 14.94 33.16 33.16v.01c0 18.22-14.94 33.16-33.16 33.16H33.16C14.94 288 0 273.08 0 254.84v-.01c0-18.23 14.92-33.16 33.16-33.16z"/></svg>