<svg xmlns="http://www.w3.org/2000/svg" shape-rendering="geometricPrecision" text-rendering="geometricPrecision" image-rendering="optimizeQuality" fill-rule="evenodd" clip-rule="evenodd" viewBox="0 0 512 350.14"><path d="M250.38 250.51c-27.51 0-49.82 22.3-49.82 49.82 0 27.51 22.31 49.81 49.82 49.81s49.81-22.3 49.81-49.81c0-27.52-22.3-49.82-49.81-49.82zm180.05-1.39c-27.89 0-50.51 22.61-50.51 50.51 0 27.89 22.62 50.51 50.51 50.51 27.9 0 50.51-22.62 50.51-50.51 0-27.9-22.61-50.51-50.51-50.51zm0 31.09c-10.72 0-19.41 8.69-19.41 19.42 0 10.72 8.69 19.42 19.41 19.42s19.42-8.7 19.42-19.42c0-10.73-8.7-19.42-19.42-19.42zM384.29 70.15h63.86l63.35 68.17.5 1.26v99.08c0 9.33-3.78 17.37-9.88 23.14-4.76 4.49-10.92 7.59-17.79 8.81l-.09-.15-.05-.1-.13-.24-.14-.25-.03-.06-.11-.18-.13-.24-.13-.22-.01-.03-.14-.24-.15-.24-.07-.13-.07-.11-.14-.24-.14-.24-.03-.04-.12-.2-.15-.24-.12-.19-.02-.04-.15-.24-.15-.24-.07-.1-.08-.13-.16-.24-.15-.23-.01-.02-.14-.21-.16-.24-.11-.17-.04-.06-.16-.23-.16-.23-.06-.09-.1-.13-.16-.23-.16-.23v-.01l-.16-.22-.16-.22-.17-.23-.16-.22-.17-.23-.05-.07-.11-.15-.17-.22-.16-.21-.01-.01-.17-.22-.17-.22-.1-.13-.07-.09-.18-.22-.17-.22-.04-.05-.13-.17-.18-.21-.16-.19-.02-.03-.17-.21-.18-.21-.09-.11-.09-.11-.18-.21-.18-.21-.03-.03-.16-.18-.18-.21-.15-.16-.04-.04-.18-.21-.19-.21-.08-.09-.1-.12-.19-.2-.19-.2-.01-.02-.18-.19-.19-.2-.14-.14-.05-.06-.2-.2-.19-.2-.07-.07-.12-.13-.2-.2-.19-.19c-11.08-11.08-26.38-17.93-43.28-17.93-13.4 0-25.85 4.32-35.94 11.67l-.08.05-.05.04-.12.09-.12.08-.12.09-.12.1-.24.18-.12.09-.12.09-.12.09-.05.03-.07.06-.12.09-.12.1-.12.09-.12.09-.03.03-.09.07-.12.09-.11.09-.12.1-.12.09-.02.01-.1.08-.11.1-.12.1-.12.09-.11.1-.12.09-.12.1-.11.1-.12.09-.1.09-.01.01-.12.1-.11.1-.12.09-.11.1-.09.08-.02.02-.12.1-.11.1-.11.1-.12.1-.07.06-.04.04-.11.1-.12.1-.11.1-.11.1-.06.05-.05.05-.11.1-.11.1-.11.11-.11.1-.05.04-.06.06-.11.1-.11.11-.11.1-.11.1-.03.03-.08.08-.11.1-.11.11-.11.1-.1.11-.02.01-.2.2-.11.1-.1.11-.11.11-.2.2-.09.08-.12.13-.11.11-.05.05-.04.04-.2.21-.04.04-.16.17-.01.02-.11.11-.08.07-.19.21-.01.01-.12.13-.07.08-.09.09-.1.12-.17.18-.03.03-.04.04-.2.23-.15.16-.12.14-.02.02-.05.05-.19.22-.01.02-.18.2-.05.06-.04.04-.1.11-.16.2-.02.03-.16.18-.03.03-.06.07-.13.15-.13.16-.05.07-.07.08-.11.14-.03.03-.16.19-.09.12-.07.09-.02.02-.17.21-.01.01-.18.23-.06.07-.02.04-.23.29-.04.05-.18.23v.01l-.03.03-.14.19-.1.13-.08.1-.1.13-.07.1-.17.23-.07.09-.1.15-.02.03-.12.15-.2.28-.04.05-.07.11-.06.08-.1.14-.22.31-.01.02v.01l-.04.04-.12.19-.07.1-.1.14-.12.18-.01.02-.03.04-.16.24-.04.06-.12.18-.05.07-.06.09-.05.08-.16.25-.01.01-.12.19-.03.04-.07.11-.22.35-.02.03-.06.1-.13.21-.11.18-.11.17-.03.06-.01.02-.15.25-.02.02-.13.22-.07.13-.08.12-.13.23-.01.02-.15.26-.01.01-.04.06-.09.18-.11.18-.04.07-.08.15-.06.1-.02.04-.12.22-.07.14-.07.11-.02.04-.11.2-.01.02-.13.25-.05.09-.05.09-.04.08a62.246 62.246 0 0 0-3.12 6.96h-66.44a61.082 61.082 0 0 0-13.53-20.59l.02-.02c-10.95-10.94-26.08-17.72-42.78-17.72-16.71 0-31.84 6.78-42.78 17.72l-.61.66a60.91 60.91 0 0 0-12.9 19.95h-17.57a61.082 61.082 0 0 0-13.53-20.59l.02-.02c-10.95-10.94-26.07-17.72-42.78-17.72s-31.84 6.78-42.78 17.72l-.61.66a60.91 60.91 0 0 0-12.9 19.95h-6.9c-7.07 0-12.86-5.55-12.86-12.25v-31.62c0-6.7 5.83-12.25 12.86-12.25h302.37L375.5 79.08c.26-2.37 1.29-4.66 2.87-6.31 1.52-1.6 3.55-2.62 5.92-2.62zM257.36 217.17H76.41v-37.26c7.58 2.12 14.62 4.15 21.26 6.08-.28-1.15-.21-2.28.1-3.3l53.5-176.18c1.77-5.81 5.37-7.75 11.71-5.74l54.27 17.53c11.58 4.52 12.45 7.6 7.61 21.31l-52.2 165.3c22.4 3.67 48.04 5.54 84.7 5.2v7.06zm96.84-13.06h-38.55c-.72 0-1.31.6-1.31 1.32v10.43c0 .72.59 1.31 1.31 1.31h38.55c.72 0 1.31-.59 1.31-1.31v-10.43c0-.73-.59-1.32-1.31-1.32zm3.33-68.67h-9.6c-.77 0-1.43.65-1.43 1.43v4.55l-28-5.3 5.68-19.29c4.79-12.53 1.08-16.56-11.49-27.4-28.35-24.45-52.4-42.66-74.97-55.89-.54 2.75-1.46 5.79-2.68 9.28l-51.48 163.04c33.28 3.56 67.96 1.62 104.34-4.5 13.7-2.31 12.72-4.56 15.2-12.98l.49-1.63 36.23 5.95v6.34c0 .77.64 1.43 1.43 1.43h9.6c.79 0 1.34-.65 1.43-1.43l6.68-62.17c.08-.79-.67-1.43-1.43-1.43zM141.01 3.67c-28.05-1.68-59.58.95-99 5.95-9.92 1.26-13.07 2.62-16.12 12.29L3.03 94.4c-4.37 13.86-5.08 13.44 5.16 23.67 25.92 25.92 52.51 45.46 79.97 59.56L141.01 3.67zm310.92 97.5 35.69 38.41v14h-78.98v-52.41h43.29zm-331.7 149.34c-27.51 0-49.82 22.3-49.82 49.82 0 27.51 22.31 49.81 49.82 49.81s49.81-22.3 49.81-49.81c0-27.52-22.3-49.82-49.81-49.82zm0 30.65c-10.59 0-19.17 8.58-19.17 19.17 0 10.58 8.58 19.16 19.17 19.16 10.58 0 19.16-8.58 19.16-19.16 0-10.59-8.58-19.17-19.16-19.17zm130.15 0c-10.59 0-19.17 8.58-19.17 19.17 0 10.58 8.58 19.16 19.17 19.16 10.58 0 19.16-8.58 19.16-19.16 0-10.59-8.58-19.17-19.16-19.17z"/></svg>