<svg id="Layer_1" data-name="Layer 1" xmlns="http://www.w3.org/2000/svg" viewBox="0 0 122.88 115.33"><title>construction-worker</title><path d="M52.89,6.18a2.18,2.18,0,0,1-.72-.12c-6.39,2.86-11.55,9.13-13,19.58a2.17,2.17,0,0,1-2.44,1.83,2.13,2.13,0,0,1-1.9-2.35C36.51,12.94,42.75,5.58,50.48,2.19A26.92,26.92,0,0,1,62.83.05,29.86,29.86,0,0,1,74.91,3.36c7.92,4.1,13.94,11.76,14.38,22a2.19,2.19,0,0,1-4.37.17c-.36-8.55-5.43-15-12.08-18.42L72,6.64a2.24,2.24,0,0,1-.78.12c-2,0-2.51,3.5-2.64,8.28,0,2.13,0,4.5,0,6.9,0,1.92.08,3.87.08,5.17a2.18,2.18,0,0,1-4.36,0c0-2.12,0-3.62,0-5.1,0-2.46-.09-4.86,0-7.08.11-4.31.62-8,2.21-10.16a25.38,25.38,0,0,0-3.86-.52,24.63,24.63,0,0,0-4.86.21c1.45,2.25,2,5.85,2.06,10.08,0,2.29,0,4.78,0,7.34,0,1.52-.05,3.08-.05,5.23a2.12,2.12,0,1,1-4.24,0c0-1.34,0-3.33.07-5.3,0-2.51.09-4.95,0-7.16-.11-4.91-.64-8.53-2.67-8.47ZM78.35,65.25C82.13,78.71,91.22,81.1,100,83.41c11.71,3.08,22.9,6,22.9,30.22a1.7,1.7,0,0,1-1.7,1.7H1.7a1.7,1.7,0,0,1-1.7-1.7c0-24.15,11.77-27,24-29.91,9.3-2.23,18.88-4.53,22.49-18.37h0A32.74,32.74,0,0,1,40.85,54.5a11,11,0,0,0-.35-1.11,4.74,4.74,0,0,1-3.28-2.55,17.26,17.26,0,0,1-2.06-6.49,14.2,14.2,0,0,1,.52-4.87,33.67,33.67,0,0,1,1.42-4.12c-.43-.23-.85-.47-1.24-.72a12.21,12.21,0,0,1-4.77-5l4-1.74h0a8.2,8.2,0,0,0,3.18,3.22c4.87,3,13.42,4.5,22.25,4.53s18-1.42,23.81-4.19a11.49,11.49,0,0,0,4.9-3.76L93,29.86a14.5,14.5,0,0,1-5.75,4.9c.17.39.32.79.47,1.19v0q.35.95.63,1.89v.07c.24,1.23.39,1.86.48,2.24v0c.06.3.1.45.12.65a7.17,7.17,0,0,1,0,.82c0,.43,0,1.09,0,2.2v0a16,16,0,0,1-.35,2.3,21.55,21.55,0,0,1-.68,2.45v0a12.14,12.14,0,0,1-2,3.68,4.55,4.55,0,0,1-2.31,1.56l-.47,1.75a27.06,27.06,0,0,1-4.72,9.57ZM39.74,81.49A41.76,41.76,0,0,0,61.7,87a40.52,40.52,0,0,0,22-6.86,24.78,24.78,0,0,1-7.88-11.76,15.33,15.33,0,0,1-3.54,2.23,18.67,18.67,0,0,1-10,2.57,19.7,19.7,0,0,1-9.09-2.29,20.87,20.87,0,0,1-3-1.51c-.37-.23-.73-.47-1.09-.72-2.11,6.3-5.39,10.19-9.26,12.79ZM41,37.05c-1.43,1.43-1.86,4-1.7,6.48a16.2,16.2,0,0,0,.84,4.21,5.31,5.31,0,0,0,1.45,2.4l0,0a.58.58,0,0,0,.43.13,1.27,1.27,0,0,1,1,.12,1.42,1.42,0,0,1,.65.77c.25.68.46,1.47.68,2.18a22.83,22.83,0,0,0,8.89,12.45,17.17,17.17,0,0,0,9.22,2.93A15.5,15.5,0,0,0,71.53,66c3.36-2.28,6.17-6,7.78-11.31.17-.67.35-1.28.54-2l.22-.77a1.55,1.55,0,0,1,.55-.77l0,0a1.28,1.28,0,0,1,1-.21c.36.07.81-.21,1.27-.71a8.39,8.39,0,0,0,1.52-2.7A15.88,15.88,0,0,0,84.8,42a27.52,27.52,0,0,0-1.45-5.24.57.57,0,0,1,0-.26v0C72,40.48,53,41.24,41,37.05Z"/></svg>