<svg id="Layer_1" data-name="Layer 1" xmlns="http://www.w3.org/2000/svg" viewBox="0 0 113.16 122.88"><defs><style>.cls-1{fill-rule:evenodd;}</style></defs><title>crane</title><path class="cls-1" d="M18,85.19H30.51V83.34H26.76a8.21,8.21,0,0,1-8.2-8.2v-35A8.21,8.21,0,0,1,21,34.34h0a8.16,8.16,0,0,1,5.79-2.41h26A1.27,1.27,0,0,1,53,32a14.71,14.71,0,0,1,5.3,1,9.88,9.88,0,0,1,1.72.93L97.57.67A2.25,2.25,0,0,1,99,.11h7.78a2.2,2.2,0,0,1,1.78.2,2.23,2.23,0,0,1,.9,2.88c0,21.55-.06,43.14-.06,64.68a5.53,5.53,0,0,1,2,1.33,5.88,5.88,0,0,1-1.9,9.59,2.65,2.65,0,0,0,1,1.94,6.6,6.6,0,0,1,2.31,3.49,5.86,5.86,0,0,1-2.46,6.6,8.33,8.33,0,0,1-4,1.5,7.52,7.52,0,0,1-4.43-.9c-2.43-1.38-4.22-4.27-3.9-9.19l4.26.27c-.19,3,.62,4.56,1.75,5.2a3.21,3.21,0,0,0,1.91.37,4.1,4.1,0,0,0,1.93-.71,1.8,1.8,0,0,0,.85-1.94,3,3,0,0,0-1-1.49c-1.11-1-2.18-1.93-2.48-5a5.91,5.91,0,0,1-2.13-1.37,5.87,5.87,0,0,1,0-8.32,5.46,5.46,0,0,1,1.94-1.31q0-28.47,0-57L78.22,57.31l-.07.12a10.7,10.7,0,0,1,.39,2.87h0V75.14a8.17,8.17,0,0,1-2.41,5.78h0a8.17,8.17,0,0,1-5.78,2.41h-4v1.85H76.41a18.07,18.07,0,0,1,18,18v1.65a18.07,18.07,0,0,1-18,18H18a18.07,18.07,0,0,1-18-18v-1.65a18.07,18.07,0,0,1,18-18ZM63.21,37l12,15.18.49-26.27L63.21,37ZM74,64.39H50.44l-4.5-27.95H26.76a3.69,3.69,0,0,0-3.69,3.69v35a3.7,3.7,0,0,0,3.69,3.69H70.35A3.7,3.7,0,0,0,74,75.14V64.39ZM95,8.91l1,8.7,7.54-13H99.88L95,8.91ZM92,24.65l-12.72.72-.41,22L92,24.65ZM80.41,21.8l12.5-.71-1.13-9.36L80.41,21.8ZM21.79,96.15a7.59,7.59,0,1,1-7.59,7.59,7.59,7.59,0,0,1,7.59-7.59Zm25.43,0a7.59,7.59,0,1,1-7.59,7.59,7.58,7.58,0,0,1,7.59-7.59Zm25.42,0a7.59,7.59,0,1,1-7.59,7.59,7.59,7.59,0,0,1,7.59-7.59ZM17.86,91.29H76.57c6.15,0,11.18,5.73,11.18,12.74h0c0,7-5,12.75-11.18,12.75H17.86C11.71,116.78,6.68,111,6.68,104h0c0-7,5-12.74,11.18-12.74Z"/></svg>