<?xml version="1.0" encoding="utf-8"?>
<!-- Generator: Adobe Illustrator 24.2.1, SVG Export Plug-In . SVG Version: 6.00 Build 0)  -->
<svg version="1.1" id="Layer_1" xmlns="http://www.w3.org/2000/svg" xmlns:xlink="http://www.w3.org/1999/xlink" x="0px" y="0px"
	 viewBox="0 0 115.28 122.88" style="enable-background:new 0 0 115.28 122.88;" xml:space="preserve">
<style type="text/css">
	.st0{fill-rule:evenodd;clip-rule:evenodd;}
</style>
<g>
	<path class="st0" d="M0,100.09h15.03V39.45L0.3,41.73L0,22.51l15.03-2.39V2.89c0-1.6,1.29-2.89,2.89-2.89h27.55
		c1.6,0,2.89,1.29,2.89,2.89v11.93l54.22-8.62l3.07,19.21l-6.3,0.98v5.19l11.36,12.45c0.19,0.2,0.34,0.43,0.45,0.67h3.52
		c0.33,0,0.6,0.27,0.6,0.6V73.3c0,0.33-0.27,0.6-0.6,0.6H76.01c-0.33,0-0.6-0.27-0.6-0.6V45.29c0-0.33,0.27-0.6,0.6-0.6h3.63
		c0.13-0.22,0.3-0.43,0.5-0.62L93.8,31.41v-4.16l-45.44,7.04v65.81h15.37v22.79H0V100.09L0,100.09z M20.81,19.2l9.46-1.5l-9.46-8.9
		V19.2L20.81,19.2z M36.68,16.68l5.89-0.94V5.78H25.11L36.68,16.68L36.68,16.68z M42.58,35.18l-6.43,1l6.43,6.06V35.18L42.58,35.18z
		 M29.7,37.17l-8.89,1.38v3.75c0.07,0.01,0.14,0.02,0.2,0.03h14.16L29.7,37.17L29.7,37.17z M87.5,44.69h16.4l-7.52-8.24L87.5,44.69
		L87.5,44.69z M20.81,82.2c0.08,0.01,0.16,0.02,0.24,0.04h14.13L20.81,68.7V82.2L20.81,82.2z M27.4,87.8l13.06,12.29h2.12V87.66
		c-0.22,0.08-0.46,0.13-0.69,0.13v0.01H27.4L27.4,87.8z M32.96,100.09L20.81,88.65v11.44H32.96L32.96,100.09z M20.81,62.25
		c0.08,0.01,0.16,0.02,0.24,0.04h14.13L20.81,48.76V62.25L20.81,62.25z M27.4,67.85l15.17,14.29V67.71
		c-0.22,0.08-0.46,0.12-0.69,0.13v0.01H27.4L27.4,67.85z M27.4,47.9l15.18,14.29V47.76c-0.22,0.08-0.46,0.13-0.69,0.13v0.01H27.4
		L27.4,47.9z"/>
</g>
</svg>
