<svg xmlns="http://www.w3.org/2000/svg" shape-rendering="geometricPrecision" text-rendering="geometricPrecision" image-rendering="optimizeQuality" fill-rule="evenodd" clip-rule="evenodd" viewBox="0 0 506 511.56"><path d="M51.44 186.72h406.11v13.34H51.44v-13.34zm310.49 283.4h-13.62v18.91h109.24V210.08H51.44v278.95h108.69v-18.91h-11.61c-7.96-.13-11.78-4.39-12.36-11.89V295.88c0-17.61 10.27-30.42 30.94-38.37 15.82-2.91 39.94-4.77 65.93-5.47v-3.99h7.2v-7.99c0-7.39 6.05-13.44 13.44-13.44h1.51c7.39 0 13.44 6.05 13.44 13.44v7.99h7.2v3.91c25.54.61 49.53 2.41 65.93 5.55 20.69 7.97 30.95 20.76 30.95 38.39v160.62c0 10.04-3.24 13.61-10.77 13.6zm-53.09 18.91v-18.91H199.6v18.91h109.24zm-62.15-241.44h-2.74v-4.78c-.04-3.8-.07-7.05 3.11-10.36.91-.94 1.96-1.69 3.14-2.26-2.72 5.42-3.63 11.2-3.51 17.4zm-17.58 196.84h50.63c1.36 0 2.48 1.11 2.48 2.47v8.48c0 1.36-1.12 2.48-2.48 2.48h-50.63c-1.36 0-2.48-1.12-2.48-2.48v-8.48c0-1.36 1.12-2.47 2.48-2.47zm105.17-33.95c8.89 0 16.1 7.21 16.1 16.1 0 8.9-7.21 16.1-16.1 16.1s-16.1-7.2-16.1-16.1c0-8.89 7.21-16.1 16.1-16.1zm-159.71 0c8.89 0 16.11 7.21 16.11 16.1 0 8.9-7.22 16.1-16.11 16.1s-16.1-7.2-16.1-16.1c0-8.89 7.21-16.1 16.1-16.1zm-21.06-116.23h201.01c2.44 0 4.45 2.01 4.45 4.48v80.21c0 2.44-1.99 3.79-4.45 4.45-63.15 19.19-137.86 18.4-201.01 0-2.49-.66-4.45-2.01-4.45-4.45V298.7c-.03-2.46 2-4.45 4.45-4.45zm-124.6-96.69H11.27C5.04 197.56 0 192.51 0 186.29v-48.85h.04c.01-4.01 2.16-7.88 5.95-9.9L241.67 1.65c3.26-1.99 7.46-2.26 11.08-.35l246.54 129.83c3.95 1.74 6.71 5.7 6.71 10.3v44.86c0 6.22-5.04 11.27-11.27 11.27h-14.65v302.73c0 6.23-5.04 11.27-11.26 11.27H40.18c-6.23 0-11.27-5.04-11.27-11.27V197.56zm197.53-98.67c-2.8-25.17 11.9-42.88 39.47-52.96-16.88 21.91 14.4 45.65 16.13 68.4 4.04-6.9 6.33-16.11 6.79-28.42 18.21 28.57 7.07 73.1-26.93 78.1 1.83-.72 3.68-1.68 5.55-2.9 8.73-5.71 13.53-16.92 7.41-30.93-.34 5.52-2.29 12.51-6.15 16.87 4.18-24.47-18.4-27.39-18.5-50.32-13.39 7-14.05 26.94-9.27 39.29-1.95-1.07-7.22-7.72-7.69-12.03-9.69 12.3-3.9 31.07 8.46 38.55-2.34-.71-4.58-1.64-6.72-2.78-16.59-8.86-26.5-28.16-26.5-46.6 0-11.75 5.03-22.24 11.53-30.57.87 8.16 2.72 14.24 6.42 16.3z"/></svg>