<svg id="Layer_1" data-name="Layer 1" xmlns="http://www.w3.org/2000/svg" viewBox="0 0 109.93 122.88"><defs><style>.cls-1{fill-rule:evenodd;}</style></defs><title>firefighter</title><path class="cls-1" d="M43.27,2.27A27.79,27.79,0,0,1,56,.05,31.12,31.12,0,0,1,68.55,3.47C76.73,7.72,83,15.64,83.42,26.19a2.26,2.26,0,0,1-4.52.18A25.36,25.36,0,0,0,67.85,7.31c-.3-.15-.59-.3-.9-.44a2.1,2.1,0,0,1-.8.12c-2.06,0-2.6,3.62-2.72,8.56-.06,2.22,0,4.66,0,7.15,0,2,.08,4,.08,5.35a2.25,2.25,0,0,1-4.5,0c0-2.19,0-3.75-.06-5.28,0-2.55-.1-5,0-7.32.12-4.46.65-8.24,2.28-10.51a47.26,47.26,0,0,0-5.44-.54,40.93,40.93,0,0,0-6.46.22c1.5,2.33,2,6.05,2.12,10.42.06,2.37,0,4.95,0,7.59,0,1.58,0,3.19,0,5.42a2.2,2.2,0,0,1-4.39,0c0-1.4,0-3.45.08-5.48.05-2.6.09-5.13,0-7.42-.12-5.07-.67-8.82-2.76-8.76a2,2,0,0,1-.74-.12c-5.17,3-9.76,9.45-12,20.26a2.24,2.24,0,0,1-2.53,1.88,2.19,2.19,0,0,1-2-2.42c1.69-12.6,8.16-20.22,16.15-23.72Zm25.24,69.4c-.53.32-1.32.79-2,1.17a8.87,8.87,0,0,1-1.26.62A25.49,25.49,0,0,1,60,75.32a20.51,20.51,0,0,1-9.55.06h-.06A27.57,27.57,0,0,1,46.1,74a28.73,28.73,0,0,1-3-1.34c-.84-.44-1.69-.92-2.53-1.46v5l14,4.33,13.94-4V71.67ZM33.86,38.62l-.84,5a.72.72,0,0,1-.81.58,1.17,1.17,0,0,1-.26-.1l-2.49-1.6-.12,0c-.43-.06-.74-.09-1,.37A3,3,0,0,0,28,44a9.64,9.64,0,0,0,0,2,13.89,13.89,0,0,0,.48,2.34,12.31,12.31,0,0,0,.81,2.11,5.62,5.62,0,0,0,1.29,1.79,1,1,0,0,0,.88.29h.05a1.49,1.49,0,0,1,1.1.13,1.56,1.56,0,0,1,.75.88l0,.05.44,1.29.33,1c1.25,3.73,2.22,6.61,4.4,9.15l0,0a20.84,20.84,0,0,0,3.25,3,24.92,24.92,0,0,0,4.06,2.48l.05,0q.42.21.84.39l.9.37h0a22.33,22.33,0,0,0,3.61,1,19.92,19.92,0,0,0,3.57.36A20.59,20.59,0,0,0,59,72.27,21.87,21.87,0,0,0,63.09,71c.31-.13.55-.25.79-.36l0,0a22.26,22.26,0,0,0,4.13-2.58,20.1,20.1,0,0,0,3.34-3.31,14,14,0,0,0,2-3.5A43.88,43.88,0,0,0,74.79,57l.15-.5c.21-.7.43-1.44.67-2.21a1.58,1.58,0,0,1,.66-.93l0,0a1.6,1.6,0,0,1,1.1-.22h0c.34.06.74-.2,1.15-.67a10,10,0,0,0,1.6-2.85,14.91,14.91,0,0,0,.64-2,12.9,12.9,0,0,0,.33-2v-.06a8.42,8.42,0,0,0,0-1.59,2.68,2.68,0,0,0-.26-1l0,0c-.19-.33-.34-.51-.5-.57a1.22,1.22,0,0,0-.64,0l-.92.6a7.65,7.65,0,0,1-2.61,1.24.69.69,0,0,1-.86-.48.61.61,0,0,1,0-.13l-.45-5.11c-.58.17-1.17.34-1.78.49-12.29,4.66-29,4.3-39.2-.34ZM13.8,92.88h38a.68.68,0,0,1,.68.67v5.93a.69.69,0,0,1-.68.68h-38a.68.68,0,0,1-.67-.68V93.55a.67.67,0,0,1,.67-.67Zm44.35,12.25h38a.67.67,0,0,1,.67.67v4.1a.73.73,0,0,1-.67.67,178.45,178.45,0,0,1-38,3.67.69.69,0,0,1-.68-.68V105.8a.68.68,0,0,1,.68-.67Zm-44.35,0h38a.68.68,0,0,1,.68.67v7.76a.69.69,0,0,1-.68.68,178.45,178.45,0,0,1-38-3.67.73.73,0,0,1-.67-.67v-4.1a.67.67,0,0,1,.67-.67ZM58.15,92.88h38a.67.67,0,0,1,.67.67v5.93a.68.68,0,0,1-.67.68h-38a.69.69,0,0,1-.68-.68V93.55a.68.68,0,0,1,.68-.67ZM83.32,28.66l3.89,2.24a15.09,15.09,0,0,1-5.86,5c0,.23,0,.47,0,.72l.28,3.1a2.91,2.91,0,0,1,.91.42,3.55,3.55,0,0,1,1.08,1.22,5.5,5.5,0,0,1,.61,2,11.34,11.34,0,0,1,0,2.48v.06a19.13,19.13,0,0,1-.41,2.4,18,18,0,0,1-.76,2.43v0a12.27,12.27,0,0,1-2.24,3.79,5.07,5.07,0,0,1-2.51,1.61l-.2.66c-.11.35-.24.73-.32,1.07-1,3.44-1.82,6.14-3.94,8.83-.46.58-1,1.15-1.48,1.69q-.54.56-1.11,1.08a1.36,1.36,0,0,1,0,.29v6A2,2,0,0,1,73,75.67c38,15.35,30.72,2.9,36.92,34.54,2.78,14.19-113.5,19.19-109.79.53,6.34-32-2.85-19,37.26-35l.1,0a2.65,2.65,0,0,1,.37-.12V69.48a1.32,1.32,0,0,1,.15-.62l-.62-.6q-.62-.63-1.17-1.26l0,0a19.51,19.51,0,0,1-2.95-4.75c-.75-1.66-1.36-3.47-2-5.5l-.35-1.06a4.31,4.31,0,0,1-2.18-1,8.75,8.75,0,0,1-2.11-2.81,15.93,15.93,0,0,1-1-2.64,16.41,16.41,0,0,1-.58-2.87,12,12,0,0,1,0-2.87,5.89,5.89,0,0,1,.74-2.28l0,0A3.68,3.68,0,0,1,26.76,40a3.25,3.25,0,0,1,.9-.38l.25-2.55a9.52,9.52,0,0,1,0-1.4,12.45,12.45,0,0,1-4.67-5l4.11-1.8c3.91,10.4,48.64,11.57,56-.22Z"/></svg>