<?xml version="1.0" encoding="utf-8"?><svg version="1.1" id="Layer_1" xmlns="http://www.w3.org/2000/svg" xmlns:xlink="http://www.w3.org/1999/xlink" x="0px" y="0px" viewBox="0 0 80.36 122.88" style="enable-background:new 0 0 80.36 122.88" xml:space="preserve"><style type="text/css">.st0{fill-rule:evenodd;clip-rule:evenodd;fill:#AFB9D2;} .st1{fill-rule:evenodd;clip-rule:evenodd;fill:#FF5050;} .st2{fill-rule:evenodd;clip-rule:evenodd;fill:#CF4141;}</style><g><path class="st0" d="M2.54,57.45h5.95v12.62H2.54c-1.4,0-2.54-1.14-2.54-2.54v-7.55C0,58.59,1.14,57.45,2.54,57.45L2.54,57.45z M71.87,57.45h5.95c1.4,0,2.54,1.14,2.54,2.54v7.55c0,1.4-1.14,2.54-2.54,2.54h-5.95V57.45L71.87,57.45z M40.18,0L40.18,0 c2.3,0,4.18,1.88,4.18,4.18v10.85c0,2.3-1.88,4.18-4.18,4.18h0c-2.3,0-4.18-1.88-4.18-4.18V4.18C36,1.88,37.88,0,40.18,0L40.18,0z"/><path class="st1" d="M40.18,9.12L40.18,9.12c12.71,0,23.1,10.4,23.1,23.1v17.13h3.51c2.79,0,5.08,2.29,5.08,5.08v18.34 c0,2.79-2.29,5.08-5.08,5.08h-3.51v45.03h-46.2V77.85h-3.51c-2.79,0-5.08-2.29-5.08-5.08V54.43c0-2.79,2.29-5.08,5.08-5.08h3.51 V32.22C17.08,19.52,27.48,9.12,40.18,9.12L40.18,9.12z M40.18,56.64c3.84,0,6.96,3.12,6.96,6.96c0,3.84-3.12,6.96-6.96,6.96 c-3.84,0-6.96-3.12-6.96-6.96C33.22,59.75,36.34,56.64,40.18,56.64L40.18,56.64z"/><path class="st2" d="M40.18,49.54c7.76,0,14.06,6.29,14.06,14.06c0,7.77-6.29,14.06-14.06,14.06c-7.76,0-14.06-6.29-14.06-14.06 C26.12,55.83,32.42,49.54,40.18,49.54L40.18,49.54z M40.18,56.64c3.84,0,6.96,3.12,6.96,6.96c0,3.84-3.12,6.96-6.96,6.96 c-3.84,0-6.96-3.12-6.96-6.96C33.22,59.75,36.34,56.64,40.18,56.64L40.18,56.64z M12.63,31.88h55.14c1.11,0,2.01,0.91,2.01,2.01 v4.55c0,1.11-0.91,2.01-2.01,2.01H12.63c-1.11,0-2.01-0.91-2.01-2.01v-4.55C10.62,32.78,11.53,31.88,12.63,31.88L12.63,31.88z M6.17,113.76h68.02c1.06,0,1.93,0.87,1.93,1.93v5.26c0,1.06-0.87,1.93-1.93,1.93H6.17c-1.06,0-1.93-0.87-1.93-1.93v-5.26 C4.24,114.63,5.11,113.76,6.17,113.76L6.17,113.76z"/></g></svg>