<svg xmlns="http://www.w3.org/2000/svg" shape-rendering="geometricPrecision" text-rendering="geometricPrecision" image-rendering="optimizeQuality" fill-rule="evenodd" clip-rule="evenodd" viewBox="0 0 512 301.55"><path fill-rule="nonzero" d="m31.69 154.31 191.77 114.61-.88-10.31c-.4-4.93 3.27-9.27 8.19-9.67 4.93-.4 9.27 3.27 9.67 8.19l2.7 31.8c.4 4.93-3.27 9.26-8.19 9.67l-31.21 2.64c-4.92.4-9.26-3.26-9.66-8.19-.4-4.93 3.26-9.27 8.19-9.67l9.22-.78L23.32 170.13l2.39 8.94c1.28 4.78-1.56 9.69-6.34 10.97-4.77 1.27-9.68-1.57-10.96-6.34l-8.1-30.25c-1.28-4.77 1.56-9.69 6.33-10.96l30.82-8.26c4.77-1.27 9.69 1.57 10.96 6.34 1.28 4.77-1.56 9.69-6.34 10.96l-10.39 2.78zm271.7 38.46-11.94-11.94c-3.5-3.49-3.5-9.17 0-12.67s9.18-3.5 12.68 0l15.02 15.02 109.48-66.64-64.78-36.93-86.08 62.19 6 6c3.49 3.49 3.49 9.17 0 12.67-3.5 3.5-9.18 3.5-12.68 0l-8.04-8.04-12.54 9.06c-4 2.88-9.58 1.97-12.46-2.03-2.88-4-1.98-9.59 2.03-12.47l106.72-77.1-88.9-50.68-46.69 26.36 36.57 32.38c.75.57 1.43 1.26 1.99 2.07 2.82 4.06 1.82 9.65-2.24 12.47l-92.35 64.22 40 23.9 24.53-20.06c3.82-3.13 9.47-2.56 12.6 1.26 3.14 3.83 2.57 9.48-1.25 12.61l-19.52 15.96 48.34 28.88 43.51-26.49zm147.5-68.85L264.58 237.33a8.893 8.893 0 0 1-9.24.04L64.39 123.29a9.055 9.055 0 0 1-3.18-3.29c-2.41-4.29-.89-9.74 3.4-12.15L253.05 1.46c2.71-1.77 6.29-2 9.3-.29l188.17 107.27c1.34.73 2.5 1.8 3.34 3.19 2.57 4.21 1.24 9.72-2.97 12.29zM194.76 54.85l-108 60.98 51.54 30.79 89.67-62.36-33.21-29.41zm124.09 229.1c4.77 1.26 7.63 6.16 6.37 10.93-1.25 4.77-6.15 7.63-10.93 6.37l-30.27-8c-4.78-1.26-7.63-6.16-6.38-10.93l8.16-30.85c1.26-4.77 6.16-7.62 10.93-6.37 4.77 1.26 7.62 6.16 6.37 10.93l-2.83 10.72 179.61-103.61-9.96-2.67c-4.78-1.28-7.62-6.19-6.34-10.96 1.27-4.78 6.19-7.62 10.96-6.34l30.82 8.26c4.77 1.27 7.61 6.19 6.33 10.96l-8.1 30.25c-1.28 4.77-6.19 7.61-10.96 6.34-4.78-1.28-7.62-6.19-6.34-10.97l2.52-9.42-178.66 103.06 8.7 2.3z"/></svg>