<?xml version="1.0" encoding="utf-8"?><svg version="1.1" id="Layer_1" xmlns="http://www.w3.org/2000/svg" xmlns:xlink="http://www.w3.org/1999/xlink" x="0px" y="0px" viewBox="0 0 122.879 110.328" enable-background="new 0 0 122.879 110.328" xml:space="preserve"><g><path d="M54.78,47.739l-0.076,2.939h1.724l2.939-0.076l0.279,0.354l-0.304,3.701l-3.269-0.076h-1.47v0.329l0.203,5.323h-5.095 l0.254-4.814l-0.254-11.583h10.948l0.279,0.354l-0.329,3.701l-4.055-0.152H54.78L54.78,47.739z M116.605,11.186l4.863,0.028 c0.781,0.002,1.412,0.64,1.41,1.42c-0.002,0.218-0.051,0.425-0.141,0.609l-4.992,10.331c-0.244,0.506-0.748,0.801-1.275,0.801 l-22.512,0.001v3.383h-6.883v-3.383l-40.77,0.001v3.381h-6.882v-3.381H23.787l0.003,81.802c0,1.136-0.47,2.173-1.219,2.924 c-0.757,0.755-1.796,1.225-2.928,1.225h-4.904c-1.139,0-2.178-0.468-2.93-1.219l-0.088-0.097c-0.698-0.743-1.13-1.742-1.13-2.833 V24.379H4.148c-1.138,0-2.177-0.47-2.927-1.221S0,21.369,0,20.231v-4.904c0-1.139,0.468-2.178,1.219-2.93 c0.751-0.75,1.787-1.218,2.929-1.218h6.442V6.41c0-0.438,0.198-0.828,0.508-1.088l5.111-4.927c0.551-0.529,1.419-0.524,1.964,0 l5.178,4.994c0.289,0.277,0.434,0.649,0.434,1.021v4.77L116.605,11.186L116.605,11.186z M37.906,31.007h66.6 c2.104,0,4.02,0.866,5.406,2.251c1.396,1.397,2.26,3.313,2.26,5.415v50.646c0,2.098-0.867,4.012-2.256,5.404l-0.01,0.011 c-1.393,1.388-3.307,2.252-5.4,2.252h-66.6c-2.101,0-4.017-0.864-5.408-2.253c-1.393-1.395-2.258-3.311-2.258-5.414V38.673 c0-2.109,0.862-4.027,2.251-5.416C33.879,31.869,35.797,31.007,37.906,31.007L37.906,31.007z M104.506,34.797h-66.6 c-1.065,0-2.036,0.437-2.737,1.139c-0.701,0.701-1.139,1.672-1.139,2.737v50.646c0,1.064,0.438,2.037,1.136,2.739 c0.704,0.7,1.677,1.138,2.74,1.138h66.6c1.064,0,2.033-0.437,2.732-1.137c0.707-0.706,1.143-1.675,1.143-2.74V38.673 c0-1.063-0.438-2.036-1.137-2.74C106.541,35.234,105.568,34.797,104.506,34.797L104.506,34.797z M69.66,43.532 c2.383,0,4.225,0.706,5.525,2.116s1.951,3.401,1.951,5.968c0,2.839-0.715,5.035-2.143,6.59c-1.428,1.554-3.451,2.331-6.068,2.331 c-2.383,0-4.225-0.713-5.525-2.141c-1.301-1.429-1.951-3.451-1.951-6.07c0-2.805,0.713-4.972,2.141-6.5 C65.018,44.297,67.041,43.532,69.66,43.532L69.66,43.532z M69.205,47.587c-0.66,0-1.158,0.114-1.496,0.342 c-0.338,0.229-0.578,0.63-0.723,1.204c-0.143,0.575-0.215,1.411-0.215,2.509c0,1.403,0.076,2.467,0.229,3.193 c0.152,0.727,0.408,1.233,0.773,1.521c0.361,0.287,0.898,0.431,1.607,0.431c0.66,0,1.158-0.114,1.496-0.343 s0.578-0.633,0.721-1.216c0.145-0.583,0.217-1.424,0.217-2.522c0-1.385-0.076-2.441-0.229-3.167 c-0.152-0.727-0.408-1.234-0.773-1.521C70.449,47.731,69.914,47.587,69.205,47.587L69.205,47.587z M90.242,53.771 c1.217,1.893,2.434,3.649,3.65,5.271l-0.076,0.559c-1.723,0.523-3.422,0.835-5.094,0.937l-0.48-0.405l-0.305-0.634 c-0.137-0.271-0.406-0.84-0.811-1.71c-0.406-0.87-0.762-1.686-1.066-2.446h-1.697l0.178,4.891h-5.094l0.254-4.814l-0.254-11.583 l7.779-0.025c1.844,0,3.262,0.434,4.258,1.305c0.998,0.87,1.496,2.125,1.496,3.764c0,0.962-0.24,1.866-0.723,2.711 C91.777,52.437,91.105,53.163,90.242,53.771L90.242,53.771z M87.633,49.387c0-0.675-0.174-1.179-0.52-1.507 c-0.346-0.33-0.908-0.512-1.686-0.545l-0.912,0.076l-0.102,4.232l1.85,0.102c0.473-0.221,0.82-0.516,1.039-0.887 C87.523,50.484,87.633,49.994,87.633,49.387L87.633,49.387z M51.123,67.453c1.605,0,3.193,0.296,4.765,0.887l-0.811,4.131 l-0.709,0.305c-0.71-0.439-1.412-0.785-2.104-1.039c-0.693-0.253-1.25-0.38-1.673-0.38c-0.388,0-0.697,0.075-0.925,0.228 c-0.228,0.152-0.342,0.354-0.342,0.608c0,0.321,0.173,0.596,0.52,0.823c0.346,0.229,0.925,0.528,1.736,0.899 c0.945,0.423,1.723,0.815,2.332,1.18c0.608,0.363,1.14,0.861,1.596,1.494c0.457,0.634,0.685,1.415,0.685,2.345 c0,1.03-0.283,1.965-0.849,2.8c-0.566,0.837-1.373,1.5-2.42,1.99c-1.047,0.49-2.264,0.735-3.649,0.735 c-1.724,0-3.531-0.321-5.423-0.964l0.735-4.409l0.507-0.305c0.777,0.592,1.608,1.061,2.496,1.406 c0.887,0.347,1.626,0.521,2.218,0.521c0.473,0,0.814-0.081,1.026-0.241c0.211-0.161,0.316-0.358,0.316-0.596 c0-0.354-0.181-0.654-0.545-0.899c-0.362-0.245-0.95-0.545-1.76-0.899c-0.93-0.406-1.694-0.79-2.293-1.153 c-0.601-0.363-1.12-0.861-1.559-1.495c-0.439-0.634-0.659-1.416-0.659-2.344c0-1.065,0.288-2.024,0.862-2.878 c0.574-0.852,1.376-1.524,2.407-2.015C48.63,67.698,49.805,67.453,51.123,67.453L51.123,67.453z M72.705,84.154h-5.145 l-0.455-2.712l-0.025-0.076l-2.482-0.05l-2.08,0.101l-0.43,2.737H57.12l4.968-16.397h6.133L72.705,84.154L72.705,84.154z M66.32,77.666l-1.115-5.373H64.9l-1.418,5.373l1.418,0.026L66.32,77.666L66.32,77.666z M84.709,80.354l-0.303,3.801h-9.758 l0.254-4.814l-0.254-11.583h5.17l-0.279,11.075l0.053,1.166h4.84L84.709,80.354L84.709,80.354z M98.107,80.1l0.279,0.354 l-0.305,3.7H86.525l0.254-4.814l-0.254-11.583h11.76l0.277,0.354l-0.328,3.701l-4.029-0.152h-2.611l-0.051,2.307h2.51l2.635-0.076 l0.279,0.354l-0.305,3.7l-2.939-0.075h-2.281l-0.023,0.962l0.049,1.419H93.9L98.107,80.1L98.107,80.1z"/></g></svg>