<?xml version="1.0" encoding="utf-8"?><svg version="1.1" id="Layer_1" xmlns="http://www.w3.org/2000/svg" xmlns:xlink="http://www.w3.org/1999/xlink" x="0px" y="0px" viewBox="0 0 122.879 110.328" enable-background="new 0 0 122.879 110.328" xml:space="preserve"><g><path d="M11.098,5.322l5.111-4.927c0.55-0.529,1.419-0.524,1.964,0l5.178,4.994c0.289,0.277,0.434,0.649,0.434,1.021v4.77 l92.819,0.006l4.864,0.028c0.781,0.002,1.412,0.64,1.41,1.42c-0.001,0.218-0.052,0.425-0.142,0.609l-4.991,10.331 c-0.243,0.506-0.749,0.801-1.276,0.801l-22.511,0.001v3.383h-6.882v-3.383l-40.771,0.001v3.381h-6.882v-3.381H23.787l0.003,81.802 c0,1.136-0.47,2.173-1.219,2.924c-0.757,0.755-1.797,1.225-2.929,1.225h-4.904c-1.139,0-2.178-0.468-2.929-1.219l-0.089-0.097 c-0.698-0.743-1.13-1.742-1.13-2.833V24.379H4.148c-1.138,0-2.177-0.47-2.928-1.221C0.47,22.408,0,21.369,0,20.231v-4.904 c0-1.139,0.467-2.178,1.219-2.93c0.75-0.75,1.787-1.218,2.929-1.218h6.442V6.41C10.59,5.973,10.788,5.583,11.098,5.322 L11.098,5.322z M54.915,47.739l-0.076,2.939h1.724l2.94-0.076l0.279,0.354l-0.305,3.701l-3.269-0.076h-1.47v0.329l0.202,5.323 h-5.094l0.253-4.814l-0.253-11.583h10.948l0.279,0.354l-0.329,3.701l-4.055-0.152H54.915L54.915,47.739z M69.795,43.532 c2.383,0,4.224,0.706,5.525,2.116c1.301,1.411,1.951,3.401,1.951,5.968c0,2.839-0.715,5.035-2.142,6.59 c-1.428,1.554-3.451,2.331-6.07,2.331c-2.381,0-4.223-0.713-5.523-2.141c-1.301-1.429-1.952-3.451-1.952-6.07 c0-2.805,0.714-4.972,2.142-6.5C65.154,44.297,67.177,43.532,69.795,43.532L69.795,43.532z M69.34,47.587 c-0.659,0-1.158,0.114-1.496,0.342c-0.338,0.229-0.578,0.63-0.723,1.204c-0.143,0.575-0.214,1.411-0.214,2.509 c0,1.403,0.075,2.467,0.228,3.193c0.152,0.727,0.409,1.233,0.773,1.521c0.362,0.287,0.898,0.431,1.608,0.431 c0.659,0,1.157-0.114,1.495-0.343s0.579-0.633,0.722-1.216c0.145-0.583,0.216-1.424,0.216-2.522c0-1.385-0.076-2.441-0.229-3.167 c-0.151-0.727-0.409-1.234-0.772-1.521C70.585,47.731,70.049,47.587,69.34,47.587L69.34,47.587z M90.378,53.771 c1.217,1.893,2.433,3.649,3.65,5.271l-0.076,0.559c-1.724,0.523-3.422,0.835-5.095,0.937l-0.48-0.405l-0.305-0.634 c-0.135-0.271-0.406-0.84-0.811-1.71c-0.406-0.87-0.761-1.686-1.065-2.446h-1.698l0.179,4.891h-5.095l0.254-4.814l-0.254-11.583 l7.78-0.025c1.842,0,3.261,0.434,4.257,1.305c0.998,0.87,1.496,2.125,1.496,3.764c0,0.962-0.24,1.866-0.723,2.711 C91.911,52.437,91.24,53.163,90.378,53.771L90.378,53.771z M87.768,49.387c0-0.675-0.173-1.179-0.52-1.507 c-0.346-0.33-0.907-0.512-1.685-0.545L84.65,47.41l-0.101,4.232l1.849,0.102c0.474-0.221,0.82-0.516,1.04-0.887 C87.658,50.484,87.768,49.994,87.768,49.387L87.768,49.387z M52.64,77.692c1.217,1.893,2.433,3.648,3.65,5.271l-0.076,0.559 c-1.724,0.523-3.422,0.835-5.095,0.938l-0.48-0.406l-0.305-0.634c-0.135-0.271-0.406-0.84-0.811-1.71 c-0.406-0.87-0.76-1.686-1.065-2.445H46.76l0.178,4.891h-5.094l0.254-4.814l-0.254-11.583l7.78-0.024 c1.843,0,3.261,0.435,4.258,1.305c0.998,0.87,1.496,2.125,1.496,3.764c0,0.963-0.24,1.866-0.723,2.712 C54.173,76.357,53.502,77.083,52.64,77.692L52.64,77.692z M50.03,73.308c0-0.676-0.173-1.179-0.52-1.508 c-0.346-0.33-0.907-0.511-1.685-0.544l-0.913,0.075l-0.101,4.232l1.849,0.102c0.473-0.221,0.82-0.516,1.039-0.888 C49.92,74.405,50.03,73.915,50.03,73.308L50.03,73.308z M69.712,80.1l0.279,0.354l-0.305,3.7H58.13l0.254-4.814L58.13,67.757 h11.759l0.279,0.354l-0.329,3.701L65.81,71.66h-2.611l-0.05,2.307h2.509l2.636-0.076l0.278,0.354l-0.305,3.7l-2.939-0.075h-2.281 l-0.024,0.962l0.051,1.419h2.433L69.712,80.1L69.712,80.1z M86.81,78.807l0.202,5.348h-5.524l-4.612-8.77H76.57l-0.025,2.84 l0.203,5.93h-4.612l0.253-4.814l-0.253-11.583h5.524l4.612,8.77h0.304l-0.151-8.591l4.663-0.279L86.81,78.807L86.81,78.807z M101.904,68.111l-0.278,3.701l-3.347-0.152h-0.304l-0.126,7.172l0.202,5.322h-5.068l0.254-4.814l-0.127-7.68h-0.33l-3.37,0.152 l-0.304-0.354l0.278-3.701h12.241L101.904,68.111L101.904,68.111z M37.906,31.007h66.599c2.104,0,4.02,0.866,5.406,2.251 c1.396,1.397,2.26,3.313,2.26,5.415v50.646c0,2.098-0.865,4.012-2.255,5.404l-0.01,0.011c-1.394,1.388-3.306,2.252-5.401,2.252 H37.906c-2.101,0-4.017-0.864-5.408-2.253c-1.393-1.395-2.258-3.311-2.258-5.414V38.673c0-2.109,0.862-4.027,2.25-5.416 S35.797,31.007,37.906,31.007L37.906,31.007z M104.505,34.797H37.906c-1.065,0-2.036,0.437-2.738,1.139 c-0.701,0.701-1.139,1.672-1.139,2.737v50.646c0,1.064,0.438,2.037,1.137,2.739c0.704,0.7,1.677,1.138,2.74,1.138h66.599 c1.065,0,2.034-0.437,2.733-1.137c0.706-0.706,1.143-1.675,1.143-2.74V38.673c0-1.063-0.437-2.036-1.138-2.74 C106.541,35.234,105.569,34.797,104.505,34.797L104.505,34.797z"/></g></svg>