<svg id="Layer_1" data-name="Layer 1" xmlns="http://www.w3.org/2000/svg" viewBox="0 0 92.86 122.88"><defs><style>.cls-1{fill-rule:evenodd;}</style></defs><title>gyrotheodolite-surveying</title><path class="cls-1" d="M20.29,37.06h14a16,16,0,0,1-3.94-12.33h-5.6A1.72,1.72,0,0,1,23,23V18l-3.23-.59a2.17,2.17,0,0,1-2-2V13.6a2.18,2.18,0,0,1,2-2L23,11V6a1.72,1.72,0,0,1,1.71-1.71H68.6V1.56A1.56,1.56,0,0,1,70.16,0h6.51a1.58,1.58,0,0,1,1.57,1.56V27.45A1.58,1.58,0,0,1,76.67,29H70.16a1.57,1.57,0,0,1-1.56-1.57V24.73H62.43a16,16,0,0,1-3.94,12.33h14a.84.84,0,0,1,.84.83V49.68a.85.85,0,0,1-.84.84h-6.3L90,108.87h1.85a1,1,0,0,1,1,1v3.9a1,1,0,0,1-1,1H80.73a1,1,0,0,1-1-1v-3.9a1,1,0,0,1,1-1H81.9L54.06,50.52H52.2L49.79,117h2.15a1,1,0,0,1,1,1v3.9a1,1,0,0,1-1,1H40.8a1,1,0,0,1-1-1V118a1,1,0,0,1,1-1H43l-2.41-66.5H38.68L10.84,108.87h1.29a1,1,0,0,1,1,1v3.9a1,1,0,0,1-1,1H1a1,1,0,0,1-1-1v-3.9a1,1,0,0,1,1-1H2.71L26.59,50.52h-6.3a.85.85,0,0,1-.84-.84V37.89a.84.84,0,0,1,.84-.83Zm17-12.33a8.71,8.71,0,0,0,2.47,8,9.58,9.58,0,0,0,13.29,0,8.76,8.76,0,0,0,2.63-6.25,8.07,8.07,0,0,0-.17-1.71Z"/></svg>