<svg xmlns="http://www.w3.org/2000/svg" shape-rendering="geometricPrecision" text-rendering="geometricPrecision" image-rendering="optimizeQuality" fill-rule="evenodd" clip-rule="evenodd" viewBox="0 0 512 428.81"><path d="M47.97 428.73V245.41c-9.75 3.75-18.88 3.83-26.46 1.25-5.92-2-10.91-5.59-14.58-10.21-3.67-4.62-6-10.25-6.71-16.46-1.08-9.62 1.79-20.5 10-30.71.42-.49.88-.99 1.42-1.41L249.37 2.3c3.08-2.83 7.83-3.12 11.25-.46l238.27 185.24c.38.29.71.58 1.04.96 11.04 11.87 13.79 25.04 11.13 36.16a33.725 33.725 0 0 1-7.59 14.5 32.76 32.76 0 0 1-13.5 9.12c-8.33 3-18.24 2.92-28.29-1.83v182.23h-23.33V235.74c0-4.21-163.44-133.4-181.49-147.45C237.74 102.84 71.3 230.99 71.3 236.41v192.4l-23.33-.08zm146.04-72.98c20.2 18.4 40.52 28.64 60.97 29.25 21.02.64 42.47-8.91 64.42-30.21-22.89-.28-44.29-8.76-36.8-29.64l-.04-.11c-17.19 15.64-35.07 16.29-54.34 1.22-.47 3.24-1.53 7.7-3.04 11.16-4.6 11.66-17.3 17.15-31.17 18.33zm52.33-100.99c3.79 1.42 4.59 4.58 2.46 5.77-2.49 1.4-5.62-.68-8.05-1.46-6.33-2.02-13.88-2.25-19.34 1.17-1.46.91-2.94 2.1-4.45 3.52.56-2 1.43-3.83 2.69-5.44 5.51-6.93 19.34-7.34 26.69-3.56zm19.33 0c-3.79 1.42-4.59 4.58-2.47 5.77 2.49 1.4 5.62-.68 8.05-1.46 6.34-2.02 13.87-2.25 19.35 1.17 1.46.91 2.93 2.1 4.45 3.52-.57-2-1.44-3.83-2.7-5.44-5.51-6.93-19.33-7.34-26.68-3.56zm-40.09 13.59c-.44-.17-.81-.57-.97-1.11-.27-.93.16-1.94.98-2.26 6.26-2.44 12.63-2.27 18.9 0 .81.29 1.26 1.29 1.01 2.22-.25.94-1.13 1.44-1.95 1.15a30.57 30.57 0 0 0-3.11-.93c.1.36.16.77.16 1.16 0 2.41-1.97 4.38-4.37 4.38a4.385 4.385 0 0 1-4.05-6.05c-1.56.19-3.1.55-4.65 1.09-.63.22-1.27.61-1.95.35zm47.14-1.18c-.15.44-.24.92-.24 1.41 0 2.41 1.96 4.38 4.37 4.38s4.38-1.97 4.38-4.38c0-.7-.16-1.34-.45-1.93 1.9.22 3.83.63 5.77 1.27.84.27 1.69-.27 1.93-1.23.23-.92-.26-1.92-1.07-2.19a30.05 30.05 0 0 0-9.45-1.54c-3.13 0-6.26.53-9.33 1.56-.82.27-1.31 1.25-1.08 2.2.24.93 1.11 1.47 1.93 1.2 1.04-.35 2.07-.63 3.09-.85.26-.06.21-.1.15.1zm-23.66 22.97c.07-.34.23-.66.47-.95a2.25 2.25 0 0 1 3.17-.28c1.12.95 2.2 1.45 3.24 1.45 1.04.02 2.16-.46 3.39-1.47.96-.8 2.38-.65 3.15.3.81.95.65 2.38-.3 3.15-2.07 1.71-4.17 2.51-6.3 2.49-1.82.02-3.55-.61-5.21-1.79-.99-.71-1.94-1.46-1.61-2.9zm-6.28 16.73c-.07-.48 0-1 .24-1.46.61-1.14 2.05-1.6 3.2-.97 3.65 1.95 6.53 2.6 10.07 2.62 3.52 0 5.91-.34 9.45-2.3a2.37 2.37 0 1 1 2.29 4.15c-4.23 2.35-7.38 2.88-11.72 2.86-3.77-.02-6.85-.6-10.61-2.33-1.2-.56-2.71-1.07-2.92-2.57zm-95.49 32.23c24.04-1.95 32.87-26.92 35.83-52.82 4.52-39.65-1.75-90.65 45.96-109.94 37.89-15.32 86.89 5.31 92.23 59.89-.22 37.09 10.21 100.18 43.4 102.87-2.09 5.91-10.84 10.51-21.94 13.16 31.2 14.5 49.3 40.38 49.3 73.21 0 1.84-1.5 3.34-3.34 3.34H123.27c-1.84 0-3.33-1.5-3.33-3.34 0-29.86 16.98-57.45 47.05-72.51-9.86-2.96-17.59-7.89-19.7-13.86zm138.01-24.06c7.2-7.95 13.21-16.38 17.56-26.29 2.87-13.64 3.03-27.95-.01-43.1-13.92-6.45-23.02-20.63-27.68-41.93-5.57 40.55-55.37 38.81-67.9 46.18 0 18.44-2.42 31.33 5.7 48.14l-.01.01c1.78 3.67 3.65 7.08 5.64 10.24 1.76 2.79 3.47 5.49 5.54 7.72 1.61 1.73 3.33 3.28 5.14 4.65 9.58 6.43 21.81 8.76 33.72 6.9 8.38-1.85 16.27-6.13 22.3-12.52zM390.65 14.8l71.53 2.92v96.62l-71.53-47.21V14.8z"/></svg>