<svg id="Layer_1" data-name="Layer 1" xmlns="http://www.w3.org/2000/svg" viewBox="0 0 122.88 104.43"><title>home-improvement</title><path d="M39.73,70.28c-3.31.68-6.73.76-10-2.64a12.41,12.41,0,0,1-3.19-9.23c8.49,9.87,18.83-2.33,6.3-8.66,6.05-2.88,11.77-.18,14.8,5.4,1.44,2.64,2.3,4,3.39,5a5.82,5.82,0,0,0,.63.48,5.63,5.63,0,0,1,2.61-3.11,5,5,0,0,1,2.27-.54c2.22,0,5,1.32,5.44,3.58h0a1.1,1.1,0,0,1,.31,0h1.61a1.09,1.09,0,0,1,.26,0,3.9,3.9,0,0,1,3.49,3.2,1.18,1.18,0,0,1,.5-.11h1.6a1.18,1.18,0,0,1,.27,0,4,4,0,0,1,3.57,3.57h1.79a1.15,1.15,0,0,1,.26,0c2.64.41,3.69,2.15,4.09,4.24,4.84-.75,10.16-3.68,15.32,1.62a12.4,12.4,0,0,1,3.18,9.22C89.71,72.44,79.36,84.63,91.9,91c-5.22,2.47-10.17.82-13.39-3.25a20.68,20.68,0,0,1-1.63,3.43l-.23.37a1.76,1.76,0,0,1,1.27,1.68v9.49a1.75,1.75,0,0,1-1.74,1.74H51a1.74,1.74,0,0,1-1.74-1.74V93.2A1.74,1.74,0,0,1,51,91.46v0L42.27,77.19l0,0a15.42,15.42,0,0,1-1.74-3,8.39,8.39,0,0,1-.76-2.82,9.89,9.89,0,0,1,0-1.09Zm72.56,31.83a1.84,1.84,0,0,1-1.84,1.84H87.71V98.72h19.34V52.31a2.2,2.2,0,0,1,0-.36L61.62,18.58,15.27,52a1.84,1.84,0,0,1,.06.47V98.72H38.54V104H11.93a1.83,1.83,0,0,1-1.83-1.84V54.36a8.14,8.14,0,0,1-5.57.26,6.52,6.52,0,0,1-3.07-2.15A6.74,6.74,0,0,1,.05,49a8.78,8.78,0,0,1,2.1-6.47h0a1.64,1.64,0,0,1,.3-.29L60.05.48A1.84,1.84,0,0,1,62.42.39l57.71,41.68h0a2.09,2.09,0,0,1,.22.2,8.27,8.27,0,0,1,2.34,7.62,7,7,0,0,1-4.44,5,7.67,7.67,0,0,1-5.95-.39v47.64Zm-61.2-27.8a.78.78,0,0,1-.18-.11l-2.26-1.83c-1-.83-2.2-1.81-3-2.49a4.34,4.34,0,0,0-1.81-.9,1.78,1.78,0,0,0-1,0,1.07,1.07,0,0,0-.55.56,3.51,3.51,0,0,0-.2,1.65,6.14,6.14,0,0,0,.56,2,13.42,13.42,0,0,0,1.47,2.5,1,1,0,0,1,.08.11L53,89a1.19,1.19,0,0,1,.2.53h0a13.17,13.17,0,0,0,.36,1.9H73.13a10.08,10.08,0,0,0,.81-1.23l0-.06.92-1.53a16.7,16.7,0,0,0,2.79-7.75l-.1-4s0-.11,0-.17,0-.42,0-.93c0-2.63.08-5.88-2.33-6.29H73.71c0,.75-.06,1.5-.1,2.23s-.08,1.28-.08,1.88a1.17,1.17,0,1,1-2.34,0c0-.6,0-1.3.09-2,.16-2.47.34-5.31-1.64-5.66H68.11a1.09,1.09,0,0,1-.26,0c0,.9,0,1.83-.1,2.72,0,.65-.08,1.28-.08,1.88a1.17,1.17,0,0,1-2.34,0c0-.6,0-1.3.1-2,.15-2.47.33-5.31-1.65-5.66H62.25a1.55,1.55,0,0,1-.31,0V67.3a1.17,1.17,0,0,1-2.34,0V61.58c0-1.61-1.6-2.31-3.1-2.31a2.73,2.73,0,0,0-1.21.29c-1,.53-1.87,2-1.87,4.12V76.47a1.17,1.17,0,0,1-2.34,0V74.31Zm0-4.15L50,69.72a12.87,12.87,0,0,0-1.53-.53l1.67,1.37,1,.78V70.16Z"/></svg>