<?xml version="1.0" encoding="utf-8"?><svg version="1.1" id="Layer_1" xmlns="http://www.w3.org/2000/svg" xmlns:xlink="http://www.w3.org/1999/xlink" x="0px" y="0px" viewBox="0 0 122.88 89.898" enable-background="new 0 0 122.88 89.898" xml:space="preserve"><g><path fill-rule="evenodd" clip-rule="evenodd" d="M9.875,88.251V50.516c-2.008,0.772-3.886,0.79-5.446,0.258 c-1.218-0.412-2.247-1.149-3.001-2.101c-0.755-0.952-1.235-2.111-1.382-3.389c-0.223-1.98,0.37-4.22,2.059-6.321l0,0 c0.085-0.102,0.18-0.205,0.292-0.292L51.331,0.474c0.635-0.583,1.613-0.643,2.316-0.095l31.006,24.105 c-4.879,1.896-9.052,5.146-11.543,9.756c-8.923-7.159-18.367-14.611-20.235-16.065c-3.936,2.994-38.199,29.374-38.199,30.488 v39.605L9.875,88.251L9.875,88.251L9.875,88.251z M64.492,89.898v-7.193c4.989-2.221,20.268-6.445,20.985-12.551 c0.161-1.378-3.09-6.634-3.835-9.152c-1.597-2.542-2.167-6.581-0.423-9.267c0.693-1.068,0.398-4.961,0.398-6.43 c0-14.622,25.623-14.627,25.623,0c0,1.849-0.428,5.246,0.579,6.7c1.683,2.434,0.813,6.743-0.603,8.996 c-0.908,2.647-4.362,7.655-4.067,9.152c1.098,5.579,15.268,9.327,19.729,11.31v8.43L64.492,89.898L64.492,89.898z M54.325,47.764 v15.428h13.842v-0.042c0-4.254-1.741-8.122-4.545-10.927C61.177,49.778,57.926,48.141,54.325,47.764L54.325,47.764L54.325,47.764z M54.325,66.451v11.661c-0.924,1.452-1.496,3.151-1.598,4.977H33.964V63.141c0-5.154,2.109-9.838,5.498-13.226 c3.396-3.387,8.079-5.496,13.233-5.496l0,0c5.155,0,9.838,2.109,13.225,5.496c1.283,1.284,2.382,2.752,3.252,4.358 c-0.038,0.679-0.041,1.356-0.011,2.028c0.137,3.001,0.966,6.035,2.256,8.605v5.662c-0.98,0.178-2.1,0.362-3.25,0.586v-4.704H54.325 L54.325,66.451L54.325,66.451z M51.065,79.839V66.451H37.224v13.396h13.841V79.839L51.065,79.839z M51.065,63.191V47.764 c-3.61,0.385-6.852,2.015-9.295,4.459c-2.805,2.805-4.545,6.673-4.545,10.927v0.042H51.065L51.065,63.191L51.065,63.191z M30.526,86.64h22.184v3.259H30.526V86.64L30.526,86.64L30.526,86.64z M80.414,3.046l14.725,0.601v18.985l-0.672-0.01v0.042 l-0.638,0.008l-13.415-8.854V3.046L80.414,3.046L80.414,3.046L80.414,3.046z"/></g></svg>