<?xml version="1.0" encoding="utf-8"?><svg version="1.1" id="Layer_1" xmlns="http://www.w3.org/2000/svg" xmlns:xlink="http://www.w3.org/1999/xlink" x="0px" y="0px" viewBox="0 0 122.88 119.45" style="enable-background:new 0 0 122.88 119.45" xml:space="preserve"><style type="text/css">.st0{fill-rule:evenodd;clip-rule:evenodd;}</style><g><path class="st0" d="M111.65,117.5c0,1.07-0.87,1.95-1.95,1.95H12.65c-1.07,0-1.95-0.87-1.95-1.95V54.76 c-2.18,0.84-4.21,0.85-5.9,0.29c-1.32-0.45-2.44-1.24-3.25-2.28c-0.82-1.03-1.34-2.29-1.49-3.67c-0.23-2.15,0.41-4.59,2.24-6.87 l0,0c0.1-0.12,0.2-0.22,0.32-0.32l57.36-41.4c0.69-0.64,1.75-0.7,2.51-0.11l57.48,41.32l0,0c0.08,0.06,0.16,0.14,0.23,0.21 c2.46,2.65,3.07,5.58,2.48,8.08c-0.3,1.22-0.88,2.33-1.69,3.23c-0.81,0.91-1.83,1.61-3.01,2.03c-1.87,0.68-4.07,0.65-6.32-0.41 C111.65,71.4,111.65,100.98,111.65,117.5L111.65,117.5L111.65,117.5z M69.38,23.91v16.2h-5.72v-6.04h-4.44v6.04H53.5v-16.2h5.72 v5.96h4.44v-5.96H69.38L69.38,23.91z M79.56,32.62c-0.16,4.77-2.15,9.07-5.3,12.22c-3.28,3.28-7.82,5.31-12.82,5.31 c-5.01,0-9.54-2.03-12.82-5.31c-3.15-3.15-5.14-7.44-5.3-12.21L15.54,52.23c0.04,0.16,0.06,0.33,0.06,0.5v61.81h13.16V57.3 c0-1.25,1.03-2.28,2.28-2.28h2.33c1.25,0,2.28,1.03,2.28,2.28v19.54c21.06,0,30.5,0,51.57,0V58.7c0-1.25,1.03-2.28,2.28-2.28h2.33 c1.25,0,2.28,1.03,2.28,2.28v55.84h12.64l0,0V52.59c0-0.13,0.01-0.25,0.03-0.37L79.56,32.62L79.56,32.62z M72.23,21.22 c-2.76-2.76-6.57-4.47-10.79-4.47c-4.21,0-8.03,1.71-10.79,4.47c-2.76,2.76-4.47,6.57-4.47,10.79s1.71,8.03,4.47,10.79 s6.57,4.47,10.79,4.47c4.21,0,8.03-1.71,10.79-4.47c2.76-2.76,4.47-6.57,4.47-10.79S74.99,23.98,72.23,21.22L72.23,21.22z M87.22,114.54v-2.62H35.66v2.62H87.22L87.22,114.54z M43.94,89.19c2.3,0,4.16,1.86,4.16,4.16c0,2.3-1.86,4.16-4.16,4.16 c-2.3,0-4.16-1.86-4.16-4.16C39.78,91.05,41.65,89.19,43.94,89.19L43.94,89.19L43.94,89.19z M57.1,82.85v0.02l-0.79,0.82h0.82v0.3 h-1.33v-0.29l0.78-0.81h-0.7v-0.03H35.66v23.08c1.87,0,23.29,0,51.57,0V82.85H57.1L57.1,82.85z M47.53,85.18h2.66v0.61l-1.71,1.78 h1.77v0.66l-2.89,0.56v-1.19l1.69-1.76h-1.53V85.18L47.53,85.18L47.53,85.18z M52.31,84.11h1.9v0.43l-1.22,1.27h1.26v0.47h-2.06 v-0.45l1.2-1.26H52.3L52.31,84.11L52.31,84.11L52.31,84.11z M56.13,89.96H78.8c2.77,0,5.04,2.27,5.04,5.04v7.72 c-14.68,0-30.12,0-44.79,0v-3.48c0-0.54,0.45-0.99,0.99-0.99h8.81C49.06,92.8,51.49,90.03,56.13,89.96L56.13,89.96z M43.94,59.68 c2.3,0,4.16,1.86,4.16,4.16c0,2.3-1.86,4.16-4.16,4.16c-2.3,0-4.16-1.86-4.16-4.16C39.78,61.55,41.65,59.68,43.94,59.68 L43.94,59.68L43.94,59.68z M55.88,53.08h1.22v0.28l-0.79,0.82h0.82v0.3h-1.33v-0.29l0.78-0.81h-0.7L55.88,53.08L55.88,53.08 L55.88,53.08z M47.53,55.67h2.66v0.61l-1.71,1.78h1.77v0.66l-2.89,0.56v-1.19l1.69-1.76h-1.53V55.67L47.53,55.67L47.53,55.67z M52.31,54.61h1.9v0.43l-1.22,1.27h1.26v0.47h-2.06v-0.45l1.2-1.26H52.3L52.31,54.61L52.31,54.61L52.31,54.61z M56.13,60.46H78.8 c2.77,0,5.04,2.27,5.04,5.04v7.72c-14.68,0-30.12,0-44.79,0v-3.48c0-0.54,0.45-0.99,0.99-0.99h8.81 C49.06,63.29,51.49,60.53,56.13,60.46L56.13,60.46z"/></g></svg>