<?xml version="1.0" encoding="utf-8"?><svg version="1.1" id="Layer_1" xmlns="http://www.w3.org/2000/svg" xmlns:xlink="http://www.w3.org/1999/xlink" x="0px" y="0px" viewBox="0 0 122.879 102.913" enable-background="new 0 0 122.879 102.913" xml:space="preserve"><g><path fill-rule="evenodd" clip-rule="evenodd" d="M11.512,102.894V58.897c-2.34,0.899-4.53,0.92-6.35,0.3 c-1.42-0.48-2.62-1.34-3.5-2.45c-0.88-1.109-1.44-2.46-1.609-3.949c-0.26-2.31,0.43-4.92,2.399-7.37l0,0 c0.1-0.12,0.21-0.24,0.34-0.34L59.847,0.552c0.74-0.68,1.88-0.75,2.7-0.11l57.186,44.456l0,0c0.09,0.07,0.17,0.14,0.25,0.229 c2.649,2.85,3.31,6.01,2.669,8.68c-0.319,1.319-0.949,2.5-1.819,3.479s-1.979,1.74-3.24,2.19c-1.999,0.72-4.379,0.699-6.789-0.44 v43.736h-5.6V56.577c0-1.01-39.227-32.017-43.556-35.387c-4.589,3.49-44.536,34.247-44.536,35.547v46.176L11.512,102.894 L11.512,102.894L11.512,102.894z M43.647,77.962c2.355,0,4.686,0.434,6.991,1.302l-1.19,6.061l-1.041,0.446 c-1.041-0.645-2.07-1.152-3.086-1.524c-1.016-0.372-1.834-0.558-2.454-0.558c-0.57,0-1.023,0.111-1.357,0.334 c-0.334,0.224-0.502,0.521-0.502,0.893c0,0.472,0.254,0.874,0.762,1.209s1.357,0.774,2.547,1.32 c1.388,0.619,2.529,1.196,3.421,1.729c0.892,0.533,1.673,1.265,2.342,2.194s1.004,2.076,1.004,3.439 c0,1.513-0.415,2.882-1.246,4.109c-0.83,1.227-2.014,2.2-3.551,2.919c-1.537,0.719-3.322,1.078-5.355,1.078 c-2.529,0-5.181-0.471-7.958-1.413l1.079-6.47l0.744-0.446c1.14,0.867,2.361,1.556,3.663,2.063 c1.301,0.509,2.386,0.763,3.253,0.763c0.694,0,1.196-0.118,1.506-0.354c0.31-0.235,0.465-0.527,0.465-0.874 c0-0.521-0.266-0.961-0.799-1.32s-1.395-0.799-2.584-1.32c-1.363-0.595-2.485-1.158-3.365-1.691s-1.643-1.265-2.287-2.194 c-0.645-0.93-0.967-2.076-0.967-3.439c0-1.562,0.422-2.969,1.265-4.221s2.021-2.237,3.532-2.956 C39.991,78.321,41.714,77.962,43.647,77.962L43.647,77.962z M68.437,95.179l-9.222,0.074c0.223,0.867,0.645,1.506,1.264,1.915 s1.475,0.613,2.566,0.613c1.215,0,2.987-0.31,5.317-0.93l0.521,0.372l-1.115,4.908c-1.958,0.521-3.78,0.781-5.466,0.781 c-3.075,0-5.473-0.818-7.196-2.454c-1.723-1.636-2.584-3.892-2.584-6.768c0-2.852,0.818-5.095,2.454-6.73 c1.636-1.637,3.88-2.454,6.731-2.454c2.454,0,4.357,0.644,5.708,1.934c1.352,1.289,2.027,3.086,2.027,5.392 c0,0.743-0.075,1.55-0.224,2.417L68.437,95.179L68.437,95.179z M63.306,91.088c0-1.313-0.559-1.971-1.674-1.971 c-1.363,0-2.194,0.88-2.491,2.641l4.09-0.148L63.306,91.088L63.306,91.088z M78.649,94.658l0.298,7.809h-7.252l0.335-7.065 L71.77,76.846l7.215-0.482L78.649,94.658L78.649,94.658z M89.568,94.658l0.298,7.809h-7.252l0.335-7.065l-0.26-18.556l7.214-0.482 L89.568,94.658L89.568,94.658z M62.769,39.678v12.551h11.261v-0.034c0-3.461-1.417-6.607-3.698-8.889 C68.343,41.317,65.698,39.985,62.769,39.678L62.769,39.678L62.769,39.678z M62.769,54.88v7.792h11.261V54.88H62.769L62.769,54.88 L62.769,54.88z M60.117,62.665V54.88h-11.26v7.792h11.26V62.665L60.117,62.665z M60.117,52.229V39.678 c-2.937,0.314-5.574,1.64-7.563,3.628c-2.281,2.281-3.697,5.428-3.697,8.889v0.034H60.117L60.117,52.229L60.117,52.229z M61.443,36.957c4.193,0,8.002,1.716,10.758,4.472c2.763,2.763,4.472,6.572,4.472,10.758v13.122H46.206V52.187 c0-4.193,1.716-8.002,4.472-10.758C53.441,38.673,57.25,36.957,61.443,36.957L61.443,36.957L61.443,36.957z M93.754,3.552 l17.169,0.7v23.188L93.754,16.111V3.552L93.754,3.552L93.754,3.552L93.754,3.552z"/></g></svg>