<?xml version="1.0" encoding="utf-8"?><svg version="1.1" id="Layer_1" xmlns="http://www.w3.org/2000/svg" xmlns:xlink="http://www.w3.org/1999/xlink" x="0px" y="0px" viewBox="0 0 122.879 102.913" enable-background="new 0 0 122.879 102.913" xml:space="preserve"><g><path fill-rule="evenodd" clip-rule="evenodd" d="M11.511,102.894V58.897c-2.339,0.899-4.529,0.919-6.349,0.299 c-1.42-0.479-2.62-1.34-3.5-2.448c-0.88-1.11-1.44-2.461-1.609-3.95c-0.26-2.31,0.43-4.919,2.399-7.37l0,0 c0.1-0.12,0.21-0.24,0.34-0.34L59.847,0.552c0.74-0.679,1.88-0.75,2.701-0.11l57.185,44.457l0,0c0.09,0.069,0.17,0.14,0.249,0.23 c2.65,2.85,3.311,6.009,2.671,8.678c-0.32,1.32-0.95,2.501-1.82,3.481c-0.869,0.979-1.979,1.739-3.24,2.189 c-2,0.72-4.379,0.699-6.789-0.44v43.736h-5.599V56.577c0-1.01-39.228-32.017-43.557-35.386 c-4.59,3.489-44.536,34.247-44.536,35.546v46.176L11.511,102.894L11.511,102.894L11.511,102.894z M37.958,77.96 c2.354,0,4.685,0.434,6.991,1.302l-1.191,6.062l-1.042,0.446c-1.041-0.645-2.069-1.152-3.086-1.524s-1.834-0.558-2.454-0.558 c-0.57,0-1.023,0.111-1.357,0.335c-0.334,0.223-0.502,0.521-0.502,0.892c0,0.471,0.254,0.874,0.762,1.209s1.357,0.774,2.548,1.319 c1.387,0.62,2.528,1.196,3.42,1.73c0.893,0.532,1.674,1.264,2.343,2.193c0.669,0.93,1.003,2.076,1.003,3.44 c0,1.512-0.415,2.882-1.246,4.108s-2.014,2.2-3.551,2.919c-1.537,0.72-3.322,1.079-5.354,1.079c-2.529,0-5.182-0.472-7.958-1.414 l1.079-6.47l0.744-0.447c1.14,0.868,2.361,1.557,3.663,2.064c1.302,0.508,2.386,0.763,3.254,0.763c0.694,0,1.196-0.118,1.506-0.354 c0.31-0.235,0.465-0.527,0.465-0.874c0-0.521-0.267-0.96-0.799-1.319c-0.533-0.36-1.394-0.801-2.585-1.321 c-1.363-0.595-2.485-1.158-3.365-1.691s-1.643-1.265-2.287-2.194c-0.644-0.929-0.967-2.076-0.967-3.439 c0-1.563,0.422-2.969,1.264-4.221c0.844-1.252,2.021-2.237,3.533-2.956C34.301,78.319,36.024,77.96,37.958,77.96L37.958,77.96z M55.868,84.469c2.776,0,4.872,0.743,6.284,2.23c1.413,1.488,2.12,3.682,2.12,6.582c0,3.173-0.763,5.572-2.287,7.196 c-1.524,1.623-3.774,2.436-6.749,2.436c-2.777,0-4.872-0.738-6.285-2.213c-1.413-1.476-2.119-3.651-2.119-6.526 c0-3.198,0.763-5.615,2.287-7.252C50.643,85.286,52.894,84.469,55.868,84.469L55.868,84.469z M55.347,89.339 c-0.496,0-0.867,0.094-1.115,0.279c-0.248,0.186-0.416,0.527-0.501,1.022c-0.087,0.496-0.13,1.252-0.13,2.269 c0,1.513,0.055,2.634,0.167,3.365s0.316,1.24,0.613,1.525c0.298,0.285,0.756,0.427,1.376,0.427c0.495,0,0.861-0.092,1.097-0.278 c0.235-0.186,0.397-0.533,0.484-1.041c0.086-0.509,0.13-1.271,0.13-2.287c0-1.488-0.056-2.597-0.168-3.328 s-0.316-1.239-0.613-1.524C56.389,89.482,55.942,89.339,55.347,89.339L55.347,89.339z M73.779,94.657l0.297,7.81h-7.252 l0.336-7.065l-0.261-18.557l7.214-0.483L73.779,94.657L73.779,94.657z M93.994,94.657l0.038,2.269c0,0.298,0.036,0.509,0.11,0.632 c0.075,0.124,0.199,0.187,0.372,0.187c0.174,0,0.385-0.038,0.633-0.112l0.446,0.372l-0.632,3.719 c-0.918,0.645-2.07,1.017-3.459,1.116c-0.793-0.05-1.494-0.298-2.101-0.744c-0.608-0.447-1.085-1.066-1.433-1.859h-0.26 c-0.992,1.066-2.157,1.921-3.496,2.565c-2.354,0-4.202-0.793-5.54-2.38c-1.339-1.586-2.008-3.743-2.008-6.47 c0-3.05,0.817-5.374,2.454-6.974c1.636-1.598,3.879-2.398,6.73-2.398c0.372,0,0.831,0.038,1.376,0.112l-0.111-7.847l7.214-0.483 L93.994,94.657L93.994,94.657z M85.627,89.377c-0.817,0-1.388,0.223-1.71,0.669s-0.483,1.302-0.483,2.566 c0,1.71,0.174,2.943,0.52,3.7c0.348,0.756,0.894,1.134,1.638,1.134c0.619,0,1.201-0.248,1.747-0.744l0.037-1.339l-0.074-5.615 C86.73,89.501,86.173,89.377,85.627,89.377L85.627,89.377z M62.769,39.677v12.551h11.26v-0.034c0-3.461-1.416-6.607-3.696-8.889 C68.343,41.317,65.699,39.984,62.769,39.677L62.769,39.677L62.769,39.677z M62.769,54.88v7.792h11.26V54.88H62.769L62.769,54.88 L62.769,54.88z M60.118,62.664V54.88H48.856v7.792h11.261V62.664L60.118,62.664z M60.118,52.229V39.677 c-2.937,0.314-5.574,1.64-7.563,3.628c-2.28,2.282-3.698,5.428-3.698,8.889v0.034H60.118L60.118,52.229L60.118,52.229z M61.443,36.957c4.193,0,8.002,1.716,10.757,4.472c2.764,2.763,4.473,6.572,4.473,10.758v13.122H46.206V52.187 c0-4.193,1.717-8.002,4.472-10.758C53.441,38.672,57.25,36.957,61.443,36.957L61.443,36.957L61.443,36.957z M93.754,3.552 l17.169,0.701V27.44l-17.169-11.33V3.552L93.754,3.552L93.754,3.552L93.754,3.552z"/></g></svg>