<svg id="Layer_1" data-name="Layer 1" xmlns="http://www.w3.org/2000/svg" viewBox="0 0 122.88 74.06"><defs><style>.cls-1{fill-rule:evenodd;}</style></defs><title>housing</title><path class="cls-1" d="M115.5,70v2.74a1.28,1.28,0,0,1-1.28,1.28H80a7.33,7.33,0,0,0,.14-1.41V71.5h4.16V44.79a1.26,1.26,0,0,1,1.24-1.28h15.32a1.26,1.26,0,0,1,1.25,1.28V71.5h10.86V38.69a2.11,2.11,0,0,1,0-.25L86.38,18l-5,2.9-8.57-6.66L85.28,5.38a1.29,1.29,0,0,1,1.66-.07l34,26.25h0l.15.14a5.74,5.74,0,0,1,1.63,5.3,4.9,4.9,0,0,1-1.11,2.13,4.84,4.84,0,0,1-2,1.34,5.38,5.38,0,0,1-4.15-.27V70Zm-42-.4v3A1.41,1.41,0,0,1,72,74.06H9.13a1.41,1.41,0,0,1-1.4-1.41V37.7a6.27,6.27,0,0,1-4.26.2,4.91,4.91,0,0,1-2.35-1.65A5.13,5.13,0,0,1,0,33.6a6.67,6.67,0,0,1,1.61-4.94h0a1.25,1.25,0,0,1,.23-.23L39.25.37A1.39,1.39,0,0,1,41.06.3l38.39,28h0a.8.8,0,0,1,.17.15,6.3,6.3,0,0,1,1.79,5.83,5.39,5.39,0,0,1-1.22,2.33A5.24,5.24,0,0,1,78,38.08a5.87,5.87,0,0,1-4.56-.29V69.64ZM16.85,50.52H30.74A1.25,1.25,0,0,1,32,51.77v12A1.24,1.24,0,0,1,30.74,65H16.85a1.25,1.25,0,0,1-1.27-1.24v-12a1.26,1.26,0,0,1,1.27-1.25Zm22.65-9H56.33a1.39,1.39,0,0,1,1.36,1.41V71.25h13V36.13a2.45,2.45,0,0,1,0-.27L40.45,14.22l-30,21.65a1.5,1.5,0,0,1,0,.37v35h27.6V42.92a1.39,1.39,0,0,1,1.36-1.41ZM55,44.33H40.87V71.22H55V44.33Zm44.63,1.74H86.76v25.4H99.59V46.07Z"/></svg>