<?xml version="1.0" encoding="utf-8"?><svg version="1.1" id="Layer_1" xmlns="http://www.w3.org/2000/svg" xmlns:xlink="http://www.w3.org/1999/xlink" x="0px" y="0px" viewBox="0 0 122.877 110.89" enable-background="new 0 0 122.877 110.89" xml:space="preserve"><g><path d="M17.111,100.307h10.019c0.178,1.26,0.586,2.477,1.2,3.587l0.753,1.606H11.538v-2.606h-0.026l0,0V58.897 c-2.339,0.899-4.53,0.92-6.349,0.3c-1.42-0.48-2.62-1.34-3.5-2.45c-0.88-1.109-1.439-2.459-1.61-3.949 c-0.26-2.31,0.43-4.919,2.4-7.37l0,0c0.1-0.12,0.21-0.24,0.34-0.34L59.847,0.552c0.74-0.68,1.879-0.75,2.699-0.11l57.186,44.456 l0,0c0.09,0.07,0.169,0.14,0.249,0.23c2.65,2.85,3.31,6.009,2.67,8.679c-0.319,1.32-0.949,2.5-1.819,3.479 c-0.87,0.98-1.98,1.74-3.24,2.189c-2,0.721-4.38,0.7-6.789-0.439v41.27h0.003v5.193H77.393l0.344-1.285l-0.015-0.004 c0.199-0.745,0.313-1.509,0.342-2.274c0.277-0.515,0.514-1.06,0.704-1.63h26.435V56.577c0-1.01-39.227-32.017-43.556-35.387 c-4.589,3.49-44.536,34.247-44.536,35.547V100.307L17.111,100.307z M93.753,3.552l17.169,0.7V27.44L93.753,16.111V3.552 L93.753,3.552L93.753,3.552L93.753,3.552z M71.092,66.137c-0.882,0.48-1.983,0.154-2.458-0.723 c-0.479-0.882-0.153-1.983,0.729-2.457c4.17-2.263,6.112-5.188,6.504-8.049c0.207-1.528-0.03-3.062-0.604-4.483 c-0.587-1.439-1.517-2.748-2.695-3.802c-2.292-2.049-5.508-3.127-8.866-2.292c-1.362,0.337-2.54,1.019-3.571,1.978 c-1.096,1.019-2.043,2.352-2.873,3.927c-0.467,0.889-1.563,1.226-2.446,0.764c-0.888-0.468-1.226-1.563-0.764-2.446 c1.019-1.931,2.209-3.589,3.619-4.904c1.475-1.368,3.187-2.351,5.176-2.843c4.619-1.143,9.02,0.314,12.147,3.11 c1.587,1.421,2.849,3.192,3.643,5.146c0.799,1.972,1.125,4.14,0.823,6.337C78.917,59.32,76.405,63.253,71.092,66.137L71.092,66.137 L71.092,66.137z M57.198,80.452c-6.87-9.228-7.036-17.97,1.303-26.095l-6.005-3.317c-4.81-1.871-13.634,11.923-10.223,15.606 l4.679,6.941l-0.965,2.014c-0.267,0.599-0.006,1.019,0.646,1.309l0.634,0.172l-9.868,21.784l2.464,5.254l4.928-1.451l1.267-2.464 l-1.214-2.274l2.677-0.574l0.622-1.208l-1.398-2.133l0.918-1.782l2.671-0.338l0.871-1.688l-1.492-1.948l0.953-1.848l2.725-0.444 l1.404-4.774l0.627,0.344C56.511,82.199,57.074,81.773,57.198,80.452L57.198,80.452L57.198,80.452z M70.127,86.238l0.49,4.461 l-2.517,0.995l-0.527,1.972l1.836,1.558l-0.479,1.795l-2.487,0.876l-0.51,1.896l1.783,1.747l-0.344,1.285l-2.446,1.108l1.635,1.925 l-0.705,2.623l-4.412,2.411l-3.447-4.52l4.27-22.234l-1.592-0.426c-0.326-0.089-0.527-0.427-0.438-0.759l0.669-2.493 c-4.821-3.654-7.208-9.979-5.55-16.181c2.132-7.966,10.174-12.775,18.147-10.986c0.035,0.426,0.029,0.858-0.03,1.291 c-0.147,1.078-0.615,2.186-1.48,3.258c-0.118,0.142-0.243,0.29-0.373,0.432c-2.547-0.166-4.934,1.481-5.62,4.04 c-0.297,1.102-0.231,2.215,0.118,3.216c0.083,0.355,0.219,0.699,0.396,1.036c0.421,0.771,1.036,1.356,1.759,1.729 c0.474,0.313,1.007,0.551,1.582,0.711c2.86,0.764,5.792-0.883,6.645-3.696c0.865-0.764,1.617-1.569,2.263-2.398 c1.256-1.617,2.114-3.334,2.624-5.082c3.459,3.731,4.98,9.104,3.565,14.387c-1.658,6.201-6.9,10.489-12.894,11.241l-0.67,2.493 c-0.088,0.326-0.426,0.527-0.758,0.438L70.127,86.238L70.127,86.238L70.127,86.238z"/></g></svg>