<svg xmlns="http://www.w3.org/2000/svg" shape-rendering="geometricPrecision" text-rendering="geometricPrecision" image-rendering="optimizeQuality" fill-rule="evenodd" clip-rule="evenodd" viewBox="0 0 512 296.59"><path fill-rule="nonzero" d="M55.48 68.03h32.84V41.42c0-4.41 3.57-7.98 7.98-7.98s7.98 3.57 7.98 7.98v26.61h24.29V41.42c0-4.41 3.58-7.98 7.98-7.98s7.98 3.57 7.98 7.98v26.61h24.31V38.71c0-4.38 3.58-7.96 7.96-7.96 4.39 0 7.96 3.58 7.96 7.96v23.91c7.83-3.63 15.92-6.62 24.31-8.9V23.79c0-4.41 3.58-7.98 7.98-7.98 4.41 0 7.98 3.57 7.98 7.98v26.52c6.95-1.09 14.11-1.72 21.46-1.84l.35-.01V7.97c0-4.4 3.57-7.97 7.96-7.97 4.4 0 7.97 3.57 7.97 7.97v41.02c7.1.57 14.38 1.58 21.85 3.07V23.79c0-4.41 3.57-7.98 7.98-7.98 4.4 0 7.97 3.57 7.97 7.98v32.1c7.91 2.21 16.01 4.92 24.32 8.17V38.71c0-4.38 3.57-7.96 7.96-7.96 4.38 0 7.95 3.58 7.95 7.96v29.32h24.32V41.42c0-4.41 3.57-7.98 7.98-7.98 4.4 0 7.97 3.57 7.97 7.98v26.61h24.3V41.42c0-4.41 3.57-7.98 7.98-7.98 4.4 0 7.97 3.57 7.97 7.98v26.61h35.2v-8.76h-4.9c-2.81 0-5.14-2.31-5.14-5.15v-2.56c0-2.83 2.32-5.14 5.14-5.14h7.77c-1.45-2.95-2.27-1.91-2.27-9.76s9.9-22.1 22.1-22.1c12.19 0 22.08 14.25 22.08 22.1 0 7.85-.81 6.81-2.27 9.76h7.84c2.82 0 5.13 2.32 5.13 5.14v2.56c0 2.82-2.32 5.15-5.13 5.15h-4.91v237.32h-45.44v-24.42h-35.2v14.08c0 4.41-3.57 7.98-7.97 7.98-4.41 0-7.98-3.57-7.98-7.98v-14.08h-24.3v14.08c0 4.41-3.57 7.98-7.97 7.98-4.41 0-7.98-3.57-7.98-7.98v-14.08H340.8v14.08c0 4.39-3.57 7.96-7.95 7.96-4.39 0-7.96-3.57-7.96-7.96v-14.08h-24.32v14.08c0 4.41-3.57 7.98-7.97 7.98-4.41 0-7.98-3.57-7.98-7.98v-14.08h-21.85v14.08c0 4.4-3.57 7.97-7.97 7.97-4.39 0-7.96-3.57-7.96-7.97v-14.08h-21.81v14.08c0 4.41-3.57 7.98-7.98 7.98-4.4 0-7.98-3.57-7.98-7.98v-14.08h-24.31v14.08c0 4.39-3.57 7.96-7.96 7.96-4.38 0-7.96-3.57-7.96-7.96v-14.08h-24.31v14.08c0 4.41-3.58 7.98-7.98 7.98s-7.98-3.57-7.98-7.98v-14.08h-24.29v14.08c0 4.41-3.57 7.98-7.98 7.98s-7.98-3.57-7.98-7.98v-14.08H55.48v24.42H10.04V59.27H5.13C2.32 59.27 0 56.96 0 54.12v-2.56c0-2.83 2.31-5.14 5.13-5.14h7.77c-1.44-2.95-2.27-1.91-2.27-9.76s9.91-22.1 22.1-22.1c12.2 0 22.09 14.25 22.09 22.1 0 7.85-.81 6.81-2.27 9.76h7.83c2.82 0 5.14 2.32 5.14 5.14v2.56c0 2.82-2.33 5.15-5.14 5.15h-4.9v8.76zm365.84 15.88v18.02h35.2V83.91h-35.2zm0 33.89v138.5h35.2V117.8h-35.2zm-15.95 138.5V117.8h-24.3v138.5h24.3zm0-154.37V83.91h-24.3v18.02h24.3zM365.12 256.3V117.8H340.8v138.5h24.32zm0-154.37V83.91H340.8v18.02h24.32zm-64.55-29.56v17.42c7.91 2.2 16.01 4.92 24.32 8.16V81.14c-8.34-3.48-16.44-6.4-24.32-8.77zm0 33.91V256.3h24.32V115.03c-8.34-3.47-16.44-6.38-24.32-8.75zM284.62 256.3V102.12c-7.5-1.62-14.78-2.73-21.85-3.35V256.3h21.85zm0-170.33V68.22c-7.5-1.62-14.78-2.74-21.85-3.36V82.9c7.1.57 14.38 1.58 21.85 3.07zm-180.34-2.06v18.02h24.29V83.91h-24.29zm0 33.89v138.5h24.29V117.8h-24.29zM88.32 256.3V117.8H55.48v138.5h32.84zm0-154.37V83.91H55.48v18.02h32.84zm56.21-18.02v18.02h24.31V83.91h-24.31zm0 33.89v138.5h24.31V117.8h-24.31zm102.31 138.5V98.17h-.1c-7.47.13-14.69.84-21.71 2.08V256.3h21.81zm0-173.95V64.28h-.1c-7.45.12-14.69.82-21.71 2.06v17.87c6.95-1.09 14.11-1.72 21.46-1.84l.35-.02zM209.07 256.3V104.07c-8.42 2.57-16.51 5.96-24.31 10.08V256.3h24.31zm0-168.68V70.17c-8.42 2.57-16.52 5.96-24.31 10.08v16.27a153.26 153.26 0 0 1 24.31-8.9z"/></svg>