<svg id="Layer_1" data-name="Layer 1" xmlns="http://www.w3.org/2000/svg" viewBox="0 0 122.88 102.87"><defs><style>.cls-1{fill-rule:evenodd;}</style></defs><title>interior-design</title><path class="cls-1" d="M9.92,50.76A8,8,0,0,1,4.45,51a6.42,6.42,0,0,1-3-2.11,6.59,6.59,0,0,1-1.38-3.4,8.61,8.61,0,0,1,2.06-6.36h0a2.07,2.07,0,0,1,.3-.29L60.07.48a1.79,1.79,0,0,1,2.32-.1L120.17,38.7h0a1.9,1.9,0,0,1,.21.19,8.07,8.07,0,0,1,2.3,7.48,6.86,6.86,0,0,1-1.56,3,6.76,6.76,0,0,1-2.8,1.89,7.55,7.55,0,0,1-5.85-.38V99.93a2.44,2.44,0,0,1-2.37,2.94H12.28a2.45,2.45,0,0,1-2.36-3V50.76Zm97.13,47V49.3c0-.87-41.7-28.13-45.43-31-4,3-46.28,30.06-46.28,31.18V97.76H36.6l.28-33.84.58-1.19L45.84,45l.72-1.47L47.31,45l8.93,17.77.62,1.2.25,33.84H71.4L75,68.92l7.61.45L83.9,97.76ZM79,66.48c-6.2-.3-8.68-2.81-7.53-7.33.26-1.07,1.88-5.29,1.11-8.95s-4-6.68-4-6.8C74.48,47.34,97,65.39,79,66.48ZM48.46,50.74h-3.6L39.51,62.27H54.15L48.46,50.74ZM97.78,3.06l14.79.61v20L97.78,16.58V3.06Z"/></svg>