<svg id="Layer_1" data-name="Layer 1" xmlns="http://www.w3.org/2000/svg" viewBox="0 0 67.36 122.88"><defs><style>.cls-1{fill-rule:evenodd;}</style></defs><title>land-surveyor</title><path class="cls-1" d="M29.13,2.69a.65.65,0,0,1-.31,0c-2.18,1.25-4.11,4-5,8.54a1,1,0,0,1-1.07.8.93.93,0,0,1-.83-1c.72-5.31,3.44-8.53,6.81-10A11.75,11.75,0,0,1,34.08,0a13.12,13.12,0,0,1,5.27,1.44A11.22,11.22,0,0,1,45.62,11a1,1,0,0,1-1.91.08,10.69,10.69,0,0,0-4.66-8l-.37-.18a1.27,1.27,0,0,1-.34.05c-.87,0-1.1,1.52-1.15,3.61,0,.93,0,2,0,3,0,.84,0,1.69,0,2.26a1,1,0,0,1-1.9,0c0-.93,0-1.59,0-2.23,0-1.08,0-2.12,0-3.09a8.37,8.37,0,0,1,1-4.43A22.2,22.2,0,0,0,34,1.85a17.76,17.76,0,0,0-2.73.1,9,9,0,0,1,.9,4.39c0,1,0,2.09,0,3.2,0,.67,0,1.34,0,2.29a.93.93,0,0,1-1.85,0c0-.59,0-1.46,0-2.32,0-1.09,0-2.16,0-3.12-.05-2.14-.28-3.72-1.17-3.7Zm.46,115.94h1.56l-1.74-40H28.06L7.87,114.25H8.8a.72.72,0,0,1,.71.72v2.83a.73.73,0,0,1-.71.71H.71A.72.72,0,0,1,0,117.8V115a.71.71,0,0,1,.71-.72H2L19.29,78.58H14.72a.6.6,0,0,1-.61-.6V69.43a.61.61,0,0,1,.61-.61H24.85a11.59,11.59,0,0,1-2.93-7.7A10.19,10.19,0,0,1,22,59.88H9.6a1.25,1.25,0,0,1-1.24-1.24V55L6,54.58a1.58,1.58,0,0,1-1.46-1.46V51.8A1.58,1.58,0,0,1,6,50.35l2.33-.42V46.29A1.25,1.25,0,0,1,9.6,45.05H58.55v-2a1.14,1.14,0,0,1,1.14-1.13h4.72a1.14,1.14,0,0,1,1.13,1.13V61.85A1.14,1.14,0,0,1,64.41,63H59.69a1.14,1.14,0,0,1-1.14-1.14v-2H45.28a10.19,10.19,0,0,1,.07,1.24,11.58,11.58,0,0,1-2.92,7.7H52.56a.6.6,0,0,1,.6.61V78a.6.6,0,0,1-.6.6H48l17.33,35.67h1.34a.72.72,0,0,1,.71.72v2.83a.73.73,0,0,1-.71.71H58.56a.72.72,0,0,1-.71-.71V115a.71.71,0,0,1,.71-.72h.85L39.21,78.58H37.86l-1.74,40.05h1.56a.72.72,0,0,1,.71.71v2.83a.73.73,0,0,1-.71.71H29.59a.72.72,0,0,1-.71-.71v-2.83a.71.71,0,0,1,.71-.71ZM27,59.88a6.24,6.24,0,0,0,1.79,5.77,6.93,6.93,0,0,0,9.64,0,6.35,6.35,0,0,0,1.91-4.53,6.28,6.28,0,0,0-.12-1.24ZM44.75,15.13l.1,1.15a1.38,1.38,0,0,1,.39.18,1.49,1.49,0,0,1,.45.51,2.31,2.31,0,0,1,.26.83,4.47,4.47,0,0,1,0,1v0a7.35,7.35,0,0,1-.17,1,6.73,6.73,0,0,1-.32,1v0a5.43,5.43,0,0,1-.95,1.6,2.11,2.11,0,0,1-1.06.67l-.08.28c-.05.15-.1.31-.14.45a10,10,0,0,1-1.65,3.72q-.3.38-.63.72c-.15.16-.31.31-.47.45a.53.53,0,0,1,0,.13v3a.88.88,0,0,1,.71,0c14,5.64,13.43,2,14.78,9.83H11.28c1.21-7.69.3-4,14.92-9.81h0a.44.44,0,0,1,.15-.05v-3a.59.59,0,0,1,.07-.26l-.27-.25-.49-.53v0a8.28,8.28,0,0,1-1.24-2,21.89,21.89,0,0,1-.86-2.32L23.44,23a1.76,1.76,0,0,1-.92-.42,3.63,3.63,0,0,1-.89-1.18,6.2,6.2,0,0,1-.43-1.12A6.51,6.51,0,0,1,21,19.06a4.89,4.89,0,0,1,0-1.21,2.47,2.47,0,0,1,.31-1v0a1.63,1.63,0,0,1,.46-.48,1.61,1.61,0,0,1,.38-.16l.11-1.07V15a5.23,5.23,0,0,1-2-2.11L22,12.17h0a3.49,3.49,0,0,0,1.38,1.41c2.12,1.32,5.86,2,9.71,2a26.12,26.12,0,0,0,10.38-1.82,5.14,5.14,0,0,0,2.14-1.64l1.64.94a6.35,6.35,0,0,1-2.47,2.1ZM24.66,16.19l-.29,1.72a.29.29,0,0,1-.34.24l-.11,0-1.05-.68h-.05c-.18,0-.31,0-.44.15a1.25,1.25,0,0,0-.13.49,4,4,0,0,0,0,.84,6.68,6.68,0,0,0,.2,1,5,5,0,0,0,.35.89,2.36,2.36,0,0,0,.54.76.45.45,0,0,0,.37.12h0a.64.64,0,0,1,.47.06.61.61,0,0,1,.31.37v0c.11.34.15.43.19.54l.13.41a10.93,10.93,0,0,0,1.86,3.86h0a9.27,9.27,0,0,0,1.37,1.29,11.15,11.15,0,0,0,1.71,1h0l.35.17.38.15h0a8.86,8.86,0,0,0,1.52.42,7.81,7.81,0,0,0,1.51.15A8.47,8.47,0,0,0,35.33,30a9.5,9.5,0,0,0,1.72-.53l.33-.15h0a9.51,9.51,0,0,0,1.74-1.08,8.89,8.89,0,0,0,1.41-1.4,6.21,6.21,0,0,0,.84-1.48c.22-.54.39-1.14.59-1.8l.06-.21c.09-.3.18-.61.29-.94A.68.68,0,0,1,42.6,22h0a.71.71,0,0,1,.46-.09h0c.14,0,.31-.08.48-.28a4,4,0,0,0,.68-1.2,6.59,6.59,0,0,0,.27-.86,4.91,4.91,0,0,0,.14-.84v0a3,3,0,0,0,0-.67,1.06,1.06,0,0,0-.11-.42h0c-.08-.14-.14-.22-.2-.24a.47.47,0,0,0-.28,0c-.17.1-.28.18-.38.25a3.32,3.32,0,0,1-1.1.52.31.31,0,0,1-.37-.2s0,0,0-.06L42,16.21c-5,1.47-12.49,1.66-17.38,0ZM39.33,29.74l-.83.5a4.16,4.16,0,0,1-.54.26,10.57,10.57,0,0,1-2.23.78,9.21,9.21,0,0,1-2.24.25,9.41,9.41,0,0,1-1.78-.22h0a11.19,11.19,0,0,1-1.79-.56,10.72,10.72,0,0,1-1.25-.57,10.57,10.57,0,0,1-1.07-.62v2.13l5.88,2.26,5.88-1.71V29.74Z"/></svg>