<svg xmlns="http://www.w3.org/2000/svg" shape-rendering="geometricPrecision" text-rendering="geometricPrecision" image-rendering="optimizeQuality" fill-rule="evenodd" clip-rule="evenodd" viewBox="0 0 512 429.09"><path fill-rule="nonzero" d="M483.04 354.03h-11.82l-15.79 59.52h11.82l15.79-59.52zm-7.23 59.52h19.98l-4.78-57.27-15.2 57.27zm-13.15-59.51h-11.82l-15.79 59.51h11.82l15.79-59.51zm-20.39 0h-11.82l-15.78 59.51h11.82l15.78-59.51zm-20.38 0h-11.82l-15.79 59.51h11.82l15.79-59.51zm-20.39 0h-11.81l-15.79 59.51h11.82l15.78-59.51zm-20.38 0H369.3l-15.78 59.51h11.82l15.78-59.51zm-20.38 0h-11.82l-15.79 59.51h11.82l15.79-59.51zm-20.39 0h-11.81l-15.79 59.51h11.82l15.78-59.51zm-20.38 0h-11.82l-15.78 59.51h11.82l15.78-59.51zm-20.38 0h-11.82l-15.79 59.51h11.83l15.78-59.51zm-20.38 0h-11.82l-15.79 59.51h11.82l15.79-59.51zm-20.39 0h-11.81l-15.79 59.51h11.82l15.78-59.51zm-20.38 0h-11.82l-15.78 59.51h11.82l15.78-59.51zm-20.38 0h-11.82l-15.79 59.51h11.83l15.78-59.51zm-20.39 0h-11.81l-15.79 59.51h11.82l15.78-59.51zm-20.38 0h-11.82l-15.78 59.51h11.82l15.78-59.51zm-20.38 0h-11.82l-15.79 59.51h11.83l15.78-59.51zm-20.38 0h-11.82l-15.79 59.51h11.82l15.79-59.51zm-20.39 0h-11.81l-15.79 59.51h11.82l15.78-59.51zm-20.38 0H83.94l-15.78 59.51h11.82l15.78-59.51zm-20.38 0H63.56l-15.79 59.51H59.6l15.78-59.51zm-20.39 0H43.18l-15.79 59.51h11.82l15.78-59.51zm-20.38 0H21.49l-5.24 59.51h2.58l15.78-59.51zm-28.22-5.71a8.93 8.93 0 0 1-.64-3.36c0-1.85.55-3.58 1.51-5.01l.21-.36c.25-.67.6-1.28 1.01-1.83L94.63 182.9c1.65-2.97 4.73-4.64 7.9-4.65l103.8-.01v18.12h-98.5L30.85 334.74l257.7 1.17h194.78l-77.64-139.55h-98.48v-18.13l103.78-.01c3.68 0 6.83 2.19 8.26 5.32l87.37 157.04c1.76 3.15 1.41 6.92-.56 9.67l5.91 70.43c.35 4.27-2.83 8.03-7.1 8.38l-.64.03H7.77c-4.29 0-7.77-3.48-7.77-7.77l6.39-72.99zM272.45 135.1v103.6h-31.36V135.1h-80.82V0h193.01v135.1h-80.83zm-73.48-44.65h115.6v7.78h-115.6v-7.78zm0-26.79h115.6v7.78h-115.6v-7.78zm0-26.79h115.6v7.78h-115.6v-7.78zm143.94-26.5H170.63v114.36h172.28V10.37z"/></svg>