<svg xmlns="http://www.w3.org/2000/svg" shape-rendering="geometricPrecision" text-rendering="geometricPrecision" image-rendering="optimizeQuality" fill-rule="evenodd" clip-rule="evenodd" viewBox="0 0 512 410.37"><path fill-rule="nonzero" d="M492.79 335.31h-1.18l-15.78 59.51h20.23l-3.27-59.51zM154.44 96.79l2.72-14.18c5.94 1.49 11.29 2.24 16.04 2.24s8.58-.2 11.49-.59v-6.67l-8.72-.78c-7.89-.71-13.3-2.6-16.25-5.67-2.93-3.07-4.4-7.61-4.4-13.62 0-8.27 1.79-13.96 5.37-17.07 3.59-3.1 9.68-4.65 18.28-4.65 8.6 0 16.35.81 23.27 2.42l-2.42 13.69c-6.02-.97-10.83-1.46-14.45-1.46-3.62 0-6.69.16-9.21.49v6.58l6.98.68c8.47.84 14.32 2.86 17.55 6.06 3.23 3.19 4.85 7.64 4.85 13.33 0 4.07-.55 7.51-1.65 10.32-1.1 2.81-2.41 4.95-3.93 6.4-1.52 1.46-3.66 2.57-6.45 3.35-2.77.77-5.21 1.24-7.32 1.4-2.1.16-4.89.24-8.38.24-8.41 0-16.19-.83-23.37-2.51zm72.82 1.06H206.8l15.71-60.59h29.95l15.71 60.59h-20.46l-2.22-9.6h-16.01l-2.22 9.6zm7.86-41.98-3.97 16.97h12.57l-3.87-16.97h-4.73zm75.52 41.98h-38.79V37.26h19.4v45.08h19.39v15.51zm44.11-22.88h-19.39v9.2h23.75v13.68h-43.14V37.26h42.66l-2.43 13.68h-20.84v9.97h19.39v14.06zm128.31 260.34h-11.83l-15.78 59.51h11.82l15.79-59.51zm-20.39 0h-11.83l-15.78 59.51h11.83l15.78-59.51zm-20.38.01h-11.83l-15.78 59.5h11.83l15.78-59.5zm-20.39 0h-11.82l-15.79 59.5h11.83l15.78-59.5zm-20.38 0h-11.83l-15.78 59.5h11.83l15.78-59.5zm-20.38 0h-11.83l-15.78 59.5h11.83l15.78-59.5zm-20.38 0h-11.83l-15.78 59.5h11.82l15.79-59.5zm-20.39 0h-11.83l-15.78 59.5h11.83l15.78-59.5zm-20.38 0h-11.83l-15.78 59.5h11.83l15.78-59.5zm-20.39 0h-11.82l-15.79 59.5h11.83l15.78-59.5zm-20.38 0h-11.83l-15.78 59.5h11.83l15.78-59.5zm-20.38 0h-11.83l-15.79 59.5h11.83l15.79-59.5zm-20.39 0h-11.83l-15.78 59.5h11.83l15.78-59.5zm-20.38 0h-11.83l-15.78 59.5h11.83l15.78-59.5zm-20.38 0h-11.83l-15.79 59.5h11.83l15.79-59.5zm-20.39 0h-11.82l-15.79 59.5h11.83l15.78-59.5zm-20.38 0h-11.83l-15.78 59.5h11.83l15.78-59.5zm-20.38 0h-11.83l-15.79 59.5h11.83l15.79-59.5zm-20.39 0h-11.83l-15.78 59.5h11.83l15.78-59.5zm-20.38 0H83.94l-15.78 59.5h11.83l15.78-59.5zm-20.39 0H63.55l-15.78 59.5H59.6l15.78-59.5zm-20.38 0H43.17l-15.78 59.5h11.83L55 335.32zm-20.38 0H20.95l-4.77 59.5h2.66l15.78-59.5zm-28.68-7.18c-.12-.61-.19-1.24-.19-1.89 0-1.88.57-3.63 1.56-5.09.13-.21.26-.41.4-.6l87.17-138.09a9.03 9.03 0 0 1 7.65-4.22l103.81-.01v18.12H107.5L31.24 317.18h451.07l-76.28-120.82h-98.81v-18.13l103.78-.01c3.47 0 6.48 1.95 8.01 4.8l87.38 138.41.18.31a7.608 7.608 0 0 1 1.19 3.7l4.23 76.73a7.76 7.76 0 0 1-7.32 8.17l-.42.02-496.48.01c-4.29 0-7.77-3.49-7.77-7.77l5.94-74.46zM272.46 135.1v103.61H241.1V135.1H94.7V0h324.15v135.1H272.46zM408.48 10.37H105.07v114.36h303.41V10.37z"/></svg>