<svg xmlns="http://www.w3.org/2000/svg" shape-rendering="geometricPrecision" text-rendering="geometricPrecision" image-rendering="optimizeQuality" fill-rule="evenodd" clip-rule="evenodd" viewBox="0 0 512 410.37"><path fill-rule="nonzero" d="M492.79 335.31h-1.18l-15.78 59.51h20.23l-3.27-59.51zM158.27 96.79l2.71-14c5.95 1.49 11.3 2.23 16.05 2.23s8.58-.19 11.49-.58v-6.85l-8.73-.78c-7.88-.71-13.3-2.6-16.24-5.67-2.94-3.07-4.41-7.61-4.41-13.62 0-8.27 1.79-13.96 5.38-17.07 3.59-3.1 9.68-4.65 18.28-4.65 8.59 0 16.35.81 23.27 2.42l-2.43 13.52c-6.01-.97-10.82-1.46-14.44-1.46-3.63 0-6.69.16-9.22.49v6.75l6.99.68c8.47.84 14.31 2.86 17.54 6.06 3.24 3.19 4.85 7.64 4.85 13.33 0 4.07-.55 7.51-1.64 10.32-1.1 2.81-2.41 4.95-3.93 6.4-1.52 1.46-3.67 2.57-6.45 3.35-2.78.77-5.22 1.24-7.32 1.4-2.1.16-4.9.24-8.39.24-8.4 0-16.19-.83-23.36-2.51zm98.6-21.82h-19.39v9.37h23.75v13.51h-43.14V37.26h42.66l-2.43 13.51h-20.84v10.14h19.39v14.06zm52.84 22.88h-38.78V37.26h19.39v45.08h19.39v15.51zm45.57 0H316.5V37.26h19.39v45.08h19.39v15.51zm127.78 237.46h-11.83l-15.78 59.51h11.82l15.79-59.51zm-20.39 0h-11.83l-15.78 59.51h11.83l15.78-59.51zm-20.38.01h-11.83l-15.78 59.5h11.83l15.78-59.5zm-20.39 0h-11.82l-15.79 59.5h11.83l15.78-59.5zm-20.38 0h-11.83l-15.78 59.5h11.83l15.78-59.5zm-20.38 0h-11.83l-15.78 59.5h11.83l15.78-59.5zm-20.38 0h-11.83l-15.78 59.5h11.82l15.79-59.5zm-20.39 0h-11.83l-15.78 59.5h11.83l15.78-59.5zm-20.38 0h-11.83l-15.78 59.5h11.83l15.78-59.5zm-20.39 0h-11.82l-15.79 59.5h11.83l15.78-59.5zm-20.38 0h-11.83l-15.78 59.5h11.83l15.78-59.5zm-20.38 0h-11.83l-15.79 59.5h11.83l15.79-59.5zm-20.39 0h-11.83l-15.78 59.5h11.83l15.78-59.5zm-20.38 0h-11.83l-15.78 59.5h11.83l15.78-59.5zm-20.38 0h-11.83l-15.79 59.5h11.83l15.79-59.5zm-20.39 0h-11.82l-15.79 59.5h11.83l15.78-59.5zm-20.38 0h-11.83l-15.78 59.5h11.83l15.78-59.5zm-20.38 0h-11.83l-15.79 59.5h11.83l15.79-59.5zm-20.39 0h-11.83l-15.78 59.5h11.83l15.78-59.5zm-20.38 0H83.94l-15.78 59.5h11.83l15.78-59.5zm-20.39 0H63.55l-15.78 59.5H59.6l15.78-59.5zm-20.38 0H43.17l-15.78 59.5h11.83L55 335.32zm-20.38 0H20.95l-4.77 59.5h2.66l15.78-59.5zm-28.68-7.18c-.12-.61-.19-1.24-.19-1.89 0-1.88.57-3.63 1.56-5.09.13-.21.26-.41.4-.6l87.17-138.09a9.03 9.03 0 0 1 7.65-4.22l103.81-.01v18.12H107.5L31.24 317.18h451.07l-76.28-120.82h-98.81v-18.13l103.78-.01c3.47 0 6.48 1.95 8.01 4.8l87.38 138.41.18.31a7.608 7.608 0 0 1 1.19 3.7l4.23 76.73a7.76 7.76 0 0 1-7.32 8.17l-.42.02-496.48.01c-4.29 0-7.77-3.49-7.77-7.77l5.94-74.46zM272.46 135.1v103.61H241.1V135.1H94.7V0h324.15v135.1H272.46zM408.48 10.37H105.07v114.36h303.41V10.37z"/></svg>