<?xml version="1.0" encoding="UTF-8"?>
<!DOCTYPE svg PUBLIC "-//W3C//DTD SVG 1.1//EN" "http://www.w3.org/Graphics/SVG/1.1/DTD/svg11.dtd">
<!-- Creator: CorelDRAW 2021 (64-Bit) -->
<svg xmlns="http://www.w3.org/2000/svg" xml:space="preserve" width="512px" height="410px" version="1.1" shape-rendering="geometricPrecision" text-rendering="geometricPrecision" image-rendering="optimizeQuality" fill-rule="evenodd" clip-rule="evenodd"
viewBox="0 0 512 410.36"
 xmlns:xlink="http://www.w3.org/1999/xlink"
 xmlns:xodm="http://www.corel.com/coreldraw/odm/2003">
 <g id="Layer_x0020_1">
  <metadata id="CorelCorpID_0Corel-Layer"/>
  <path fill="black" fill-rule="nonzero" d="M492.79 335.31l-1.18 0 -15.78 59.51 20.23 0 -3.27 -59.51zm-347.86 -238.52l2.72 -16.01c5.94,1.49 11.29,2.24 16.04,2.24 4.75,0 8.58,-0.2 11.49,-0.59l0 -4.84 -8.72 -0.78c-7.89,-0.71 -13.3,-2.6 -16.25,-5.67 -2.93,-3.07 -4.4,-7.61 -4.4,-13.62 0,-8.28 1.79,-13.96 5.37,-17.07 3.59,-3.1 9.68,-4.65 18.28,-4.65 8.6,0 16.35,0.81 23.27,2.42l-2.42 15.52c-6.02,-0.97 -10.83,-1.46 -14.45,-1.46 -3.62,0 -6.69,0.16 -9.21,0.49l0 4.75 6.98 0.68c8.47,0.84 14.32,2.86 17.55,6.06 3.23,3.19 4.85,7.64 4.85,13.33 0,4.07 -0.55,7.51 -1.65,10.32 -1.1,2.81 -2.41,4.95 -3.93,6.4 -1.52,1.45 -3.66,2.57 -6.45,3.35 -2.77,0.77 -5.21,1.24 -7.32,1.4 -2.1,0.16 -4.89,0.24 -8.38,0.24 -8.41,0 -16.19,-0.84 -23.37,-2.51zm56.91 -29.19c0,-11.05 2.07,-19.12 6.21,-24.19 4.14,-5.07 11.6,-7.61 22.39,-7.61 10.8,0 18.26,2.54 22.4,7.61 4.14,5.07 6.21,13.14 6.21,24.19 0,5.5 -0.44,10.12 -1.31,13.86 -0.87,3.76 -2.38,7.02 -4.51,9.8 -2.13,2.78 -5.07,4.81 -8.82,6.11 -3.75,1.29 -8.4,1.93 -13.97,1.93 -5.55,0 -10.21,-0.64 -13.95,-1.93 -3.75,-1.3 -6.69,-3.33 -8.83,-6.11 -2.13,-2.78 -3.64,-6.04 -4.5,-9.8 -0.88,-3.74 -1.32,-8.36 -1.32,-13.86zm20.85 -10.08l0 25.21 8.05 0c2.65,0 4.57,-0.31 5.77,-0.92 1.19,-0.62 1.79,-2.03 1.79,-4.22l0 -25.21 -8.14 0c-2.59,0 -4.48,0.31 -5.68,0.92 -1.19,0.61 -1.79,2.02 -1.79,4.22zm83.38 40.33l-38.79 0 0 -60.59 19.4 0 0 45.08 19.39 0 0 15.51zm6.78 0l0 -60.59 27.15 0c10.93,0 18.42,2.32 22.5,6.97 4.07,4.66 6.1,12.43 6.1,23.32 0,10.89 -2.03,18.66 -6.1,23.32 -4.08,4.65 -11.57,6.98 -22.5,6.98l-27.15 0zm27.44 -45.08l-8.05 0 0 29.57 8.05 0c2.65,0 4.57,-0.31 5.77,-0.92 1.2,-0.62 1.79,-2.02 1.79,-4.22l0 -19.3c0,-2.19 -0.59,-3.6 -1.79,-4.21 -1.2,-0.61 -3.12,-0.92 -5.77,-0.92zm142.77 282.54l-11.83 0 -15.78 59.51 11.82 0 15.79 -59.51zm-20.39 0l-11.83 0 -15.78 59.51 11.83 0 15.78 -59.51zm-20.38 0.01l-11.83 0 -15.78 59.5 11.83 0 15.78 -59.5zm-20.39 0l-11.82 0 -15.79 59.5 11.83 0 15.78 -59.5zm-20.38 0l-11.83 0 -15.78 59.5 11.83 0 15.78 -59.5zm-20.38 0l-11.83 0 -15.79 59.5 11.83 0 15.79 -59.5zm-20.38 0l-11.83 0 -15.79 59.5 11.83 0 15.79 -59.5zm-20.39 0l-11.83 0 -15.78 59.5 11.83 0 15.78 -59.5zm-20.38 0l-11.83 0 -15.78 59.5 11.83 0 15.78 -59.5zm-20.39 0l-11.82 0 -15.79 59.5 11.83 0 15.78 -59.5zm-20.38 0l-11.83 0 -15.78 59.5 11.83 0 15.78 -59.5zm-20.38 0l-11.83 0 -15.79 59.5 11.83 0 15.79 -59.5zm-20.39 0l-11.83 0 -15.78 59.5 11.83 0 15.78 -59.5zm-20.38 0l-11.83 0 -15.78 59.5 11.83 0 15.78 -59.5zm-20.38 0l-11.83 0 -15.79 59.5 11.83 0 15.79 -59.5zm-20.39 0l-11.82 0 -15.79 59.5 11.83 0 15.78 -59.5zm-20.38 0l-11.83 0 -15.78 59.5 11.83 0 15.78 -59.5zm-20.38 0l-11.83 0 -15.79 59.5 11.83 0 15.79 -59.5zm-20.39 0l-11.83 0 -15.78 59.5 11.83 0 15.78 -59.5zm-20.38 0l-11.83 0 -15.78 59.5 11.83 0 15.78 -59.5zm-20.39 0l-11.82 0 -15.79 59.5 11.83 0 15.78 -59.5zm-20.38 0l-11.83 0 -15.78 59.5 11.83 0 15.78 -59.5zm-20.38 0l-13.67 0 -4.77 59.5 2.66 0 15.78 -59.5zm-28.67 -7.19c-0.13,-0.6 -0.2,-1.23 -0.2,-1.88 0,-1.88 0.57,-3.64 1.56,-5.09 0.13,-0.21 0.26,-0.41 0.4,-0.61l87.17 -138.08c1.72,-2.72 4.65,-4.22 7.65,-4.22l103.81 -0.01 0 18.12 -98.84 0 -76.26 120.82 451.07 0 -76.28 -120.82 -98.81 0 0 -18.13 103.78 -0.01c3.47,0 6.48,1.95 8,4.8l87.39 138.41 0.18 0.31c0.69,1.08 1.12,2.34 1.19,3.7l4.23 76.73c0.23,4.27 -3.05,7.93 -7.32,8.16l-0.42 0.03 -496.48 0c-4.29,0 -7.77,-3.48 -7.77,-7.77l5.95 -74.46zm266.51 -193.03l0 103.61 -31.36 0 0 -103.61 -146.4 0 0 -135.1 5.18 0 318.97 0 0 135.1 -146.39 0zm136.02 -124.73l-303.41 0 0 114.36 303.41 0 0 -114.36z"/>
 </g>
</svg>
