<svg xmlns="http://www.w3.org/2000/svg" shape-rendering="geometricPrecision" text-rendering="geometricPrecision" image-rendering="optimizeQuality" fill-rule="evenodd" clip-rule="evenodd" viewBox="0 0 512 428.73"><path d="M47.97 428.72V245.41c-9.75 3.75-18.88 3.83-26.46 1.25-5.92-2.01-10.91-5.59-14.58-10.21-3.67-4.62-6-10.25-6.71-16.46-1.08-9.62 1.79-20.5 10-30.71.42-.49.88-.99 1.42-1.41L249.37 2.3c3.08-2.83 7.83-3.12 11.25-.46l238.26 185.24c.38.29.71.58 1.05.96 11.04 11.87 13.79 25.04 11.13 36.16a33.833 33.833 0 0 1-7.59 14.5 32.76 32.76 0 0 1-13.5 9.12c-8.33 3-18.25 2.92-28.29-1.83v182.23h-23.33V235.74c0-4.21-163.44-133.41-181.49-147.45C237.74 102.84 71.3 230.99 71.3 236.41v192.32H49.43l-1.46-.01zM243.36 264.5c3.71 1.39 4.49 4.48 2.42 5.64-2.44 1.36-5.49-.66-7.87-1.43-6.19-1.97-13.56-2.2-18.9 1.14-1.42.9-2.86 2.06-4.35 3.44.56-1.95 1.41-3.74 2.64-5.32 5.38-6.76 18.88-7.16 26.06-3.47zm18.89 0c-3.7 1.39-4.48 4.48-2.41 5.64 2.43 1.36 5.49-.66 7.86-1.43 6.19-1.97 13.54-2.2 18.9 1.14 1.43.9 2.87 2.06 4.35 3.44-.55-1.95-1.4-3.74-2.64-5.32-5.37-6.76-18.88-7.16-26.06-3.47zm-39.16 13.27c-.43-.16-.79-.55-.94-1.08-.27-.91.15-1.89.95-2.2 6.12-2.39 12.34-2.22 18.46 0 .8.29 1.23 1.25.99 2.17-.25.91-1.1 1.4-1.9 1.12-1.01-.37-2.03-.67-3.04-.91.1.35.15.75.15 1.14 0 2.35-1.91 4.27-4.27 4.27-2.36 0-4.27-1.92-4.27-4.27 0-.6.11-1.14.32-1.64-1.52.19-3.03.54-4.55 1.07-.61.21-1.23.59-1.9.33zm46.05-1.15c-.15.44-.24.9-.24 1.39a4.28 4.28 0 0 0 4.27 4.27c2.35 0 4.28-1.92 4.28-4.27 0-.69-.16-1.32-.44-1.89 1.86.21 3.74.61 5.64 1.24.82.26 1.65-.27 1.88-1.2.23-.91-.24-1.88-1.04-2.15-3.08-1-6.18-1.49-9.23-1.49-3.06 0-6.12.51-9.12 1.51-.8.27-1.27 1.22-1.05 2.15.23.91 1.08 1.44 1.88 1.18 1.02-.34 2.02-.62 3.02-.84.25-.05.21-.09.15.1zm-22.5 30.97c.08-.33.23-.65.46-.93.78-.92 2.17-1.05 3.1-.27 1.1.93 2.16 1.41 3.17 1.41 1.01.03 2.11-.44 3.31-1.43.93-.78 2.32-.63 3.08.29.78.93.63 2.33-.29 3.08-2.03 1.67-4.08 2.45-6.16 2.43-1.78.02-3.47-.59-5.09-1.75-.96-.69-1.89-1.42-1.58-2.83zm-7.33 16.03c-.07-.47 0-.97.24-1.42.59-1.12 2.01-1.56 3.12-.95 3.57 1.9 7.07 2.85 10.53 2.87 3.44 0 6.9-.92 10.36-2.85 1.12-.61 2.53-.21 3.14.91.61 1.12.21 2.53-.91 3.14-4.13 2.3-8.33 3.42-12.57 3.4-3.69-.02-7.38-.88-11.06-2.58-1.17-.54-2.63-1.04-2.85-2.52zm-64.49-108.56c44.37-42.08 71.61-52.25 108.77-29.72 38.46 1.99 48.99 62.59 23.33 87.8.9-.21 1.78-.36 2.64-.43 2.22-.17 4.35.18 6.14 1.14l.29.17c1.84 1.06 3.25 2.73 3.99 5.03.74 2.32.77 5.28-.21 8.92l-4.68 13.29c-.76 2.14-1.45 3.66-2.98 4.88-1.56 1.25-3.45 1.71-6.38 1.54l-1.28-.14c-.25 12.1-5.13 18.88-12.08 25.8 5.72 18.08 16.29 26.41 28.44 31.22 21.45 6.53 40.59 5.1 52.98 12.01 5.5 3.08 10.5 7.01 14.5 12.27 7.19 9.49 9.63 26.62 11.8 39.89H111.91c2.17-13.27 4.63-30.42 11.79-39.89 4.01-5.29 8.98-9.21 14.51-12.27 19.9-11.07 44.41-6.21 64.71-18.83 5.13-4.96 9.3-11.81 12.04-21.47-8.08-7.08-14.54-13.97-15.87-28.68l-.83.02c-1.9-.03-3.75-.46-5.47-1.45-2.76-1.56-4.7-4.25-6.01-7.29l-.12-.32c-1.47-3.55-2.14-7.6-2.29-10.65v-5.55c.05-1.88.15-3.7.29-4.73l.24-.89c1.5-4.18 3.62-6.18 6.32-6.82l-.06-.04c-1.4-17.89 2.71-48.94-16.34-54.81zM285.71 339.7l-1.95 1.85c-9.6 9.27-20.1 13.77-30.77 13.77-10.61-.01-21.23-4.45-31.14-13.05-2.79 7.6-6.97 15.27-11.02 19.79 18.74 30.29 70.8 30.51 87.03-2.23-4.83-5-8.99-11.51-12.15-20.13zm-85.61-61.23c-4.25-1.48-7.24-2.17-8.41.48l-.18 3.57-.01 4.97c.12 2.46.63 5.61 1.73 8.28l.13.27c.75 1.74 1.73 3.21 2.97 3.91.61.35 1.3.5 2.02.52.88.01 1.87-.17 2.89-.48.35-.12.71-.18 1.1-.19a3.565 3.565 0 0 1 3.65 3.48c.38 16.18 7.58 22.38 16.32 29.9l3.63 3.15c8.77 7.81 18.02 11.83 27.05 11.83 8.82-.01 17.62-3.85 25.82-11.75l3.71-3.52c9.15-8.6 15.9-14.95 14.6-30.4-.05-.77.14-1.56.59-2.25a3.555 3.555 0 0 1 4.94-1.02c.57.37 1.15.69 1.7.91l.2.06c.52.19 1.02.32 1.48.35l1.63.01c.11-.07.35-.7.69-1.66l4.53-12.85c.58-2.19.62-3.76.29-4.8-.15-.47-.4-.81-.72-1.02l-.11-.05c-.55-.29-1.33-.4-2.23-.32-2.01.15-4.34 1.12-6.41 2.68-.77.57-1.75.85-2.76.67-1.94-.32-3.25-2.18-2.92-4.12 3.36-19.64 1.82-32.46-2.36-41.19-3.67-7.66-9.52-12.3-15.87-15.76-14.07 10.79-23.99 12.02-33.87 13.24-8.18 1-16.35 2.02-27.16 9.49-5.14 3.56-8.56 7.88-10.31 12.88-1.75 5.04-1.88 10.91-.46 17.55.21.71.2 1.48-.07 2.24a3.58 3.58 0 0 1-4.59 2.12l-3.23-1.18zM390.65 14.8l71.53 2.92v96.62l-71.53-47.21V14.8z"/></svg>