<svg id="Layer_1" data-name="Layer 1" xmlns="http://www.w3.org/2000/svg" viewBox="0 0 122.88 77.33"><defs><style>.cls-1{fill-rule:evenodd;}</style></defs><title>over-bridge</title><path class="cls-1" d="M10.29,4.41c.72-6.08,10-5.67,10,0V5.69c6.1,12.46,17,19.85,29.33,23.22,9.88,2.71,12.3,2.7,22.56.12A60.25,60.25,0,0,0,83.54,25C92.68,20.54,99.41,14,101.19,6.25V4.41c.73-6.08,10-5.67,10,0V7.46A42,42,0,0,0,122,20.8l.89.72v4.25c-1-.74-2.06-1.53-3.06-2.36l-.18-.14h0v18h3.24v5.83H111.17V77.33h-10V47.1H20.27V77.32h-10V47.1H0V41.28H2.51V22.61c-.31.27-.63.55-.94.8-.52.43-1,.86-1.57,1.27V20.3A42,42,0,0,0,10.29,7.11V4.41Zm52,29.77v7.09h-3V34.16a65.45,65.45,0,0,1-6.69-1c-.41-.09-.81-.17-1.21-.27v8.39H48V32a56.49,56.49,0,0,1-7.81-2.85V41.26H36.82V27.46a48.21,48.21,0,0,1-7.9-5.33V41.27H25.51V19a44.45,44.45,0,0,1-5.26-6.47V41.28h80.94V14.69a31.13,31.13,0,0,1-5,5.9V41.27H92.75V23.4A49.19,49.19,0,0,1,85,28l-.16.07V41.27H81.44V29.59a64.2,64.2,0,0,1-7.8,2.58v9.11H70.22V33c-2,.43-4.11.78-6.21,1l-1.68.17Zm53.89,7.1V20.14a46.2,46.2,0,0,1-5-6.07v27.2h5ZM5.92,19.3v22h4.37V13.84A44.48,44.48,0,0,1,5.92,19.3Z"/><path d="M61.44,52.54a1.59,1.59,0,0,0-.6.14l-.06,0a1.77,1.77,0,0,0-.41.31l0,0a1.45,1.45,0,0,0-.26.4,6.37,6.37,0,0,1-1.24,1.7,5.85,5.85,0,0,1-1.71,1.15,5.74,5.74,0,0,1-1,.34h0a5.17,5.17,0,0,1-1,.11,4.15,4.15,0,0,1-1.55-.29,4.29,4.29,0,0,1-1.37-.84,4.52,4.52,0,0,1-.91-1.1,4.19,4.19,0,0,1-.53-1.28v0a2.2,2.2,0,0,0-.26-.65,1,1,0,0,0-.6-.44.93.93,0,0,0-.7.11,2.35,2.35,0,0,0-.58.47c-.43.48-.8.9-1.13,1.3-1.83,2.15-2.88,3.38-6.83,1.75a10.35,10.35,0,0,1-1.18-1.06,17.14,17.14,0,0,1-1.23-1.46,1.48,1.48,0,0,0-2.08-.31,1.33,1.33,0,0,0-.27.26l0,0a1.49,1.49,0,0,0-.18.3,6.39,6.39,0,0,1-1.11,1.71A5,5,0,0,1,33,56.34a4,4,0,0,1-1.86.47,4,4,0,0,1-1-.09,4.68,4.68,0,0,1-1-.31,5.79,5.79,0,0,1-1.74-1.26,8.09,8.09,0,0,1-1.41-2,1.5,1.5,0,0,0-.86-.75h-.06a1.46,1.46,0,0,0-1.08.1h0a1.3,1.3,0,0,0-.41.32h0a1.34,1.34,0,0,0-.27.44,9.53,9.53,0,0,1-.92,1.81,4.82,4.82,0,0,1-1.07,1.16l0,0a3.13,3.13,0,0,1-1.11.51,3.72,3.72,0,0,1-1.42,0,1.51,1.51,0,0,0-1.1.28,1.48,1.48,0,0,0-.59,1v0a1.49,1.49,0,0,0,.28,1.07,1.5,1.5,0,0,0,1,.58A6.66,6.66,0,0,0,21,59.63a6,6,0,0,0,2.21-1,7.17,7.17,0,0,0,1.19-1.15,6.76,6.76,0,0,0,.54-.72,10.16,10.16,0,0,0,1.13,1.14,8.22,8.22,0,0,0,2,1.25,7,7,0,0,0,1.58.52h0a7.5,7.5,0,0,0,6.53-1.86,8.85,8.85,0,0,0,1-1.1,14.15,14.15,0,0,0,1.14,1.08A10.43,10.43,0,0,0,40,58.93a7.3,7.3,0,0,0,1.89.75,6.33,6.33,0,0,0,1.92.19,6,6,0,0,0,1.87-.4,7,7,0,0,0,1.75-1,8.8,8.8,0,0,0,1.13-1c.19-.2.37-.41.55-.63a8.24,8.24,0,0,0,.91,1A7.55,7.55,0,0,0,51.74,59h0a7,7,0,0,0,1.57.56,7.68,7.68,0,0,0,1.71.2,7.83,7.83,0,0,0,1.67-.18A9,9,0,0,0,58.34,59a9.12,9.12,0,0,0,2-1.2,10.15,10.15,0,0,0,1.11-1.07l0,0,0,0a10.15,10.15,0,0,0,1.11,1.07,9.36,9.36,0,0,0,2,1.2,9,9,0,0,0,1.62.52,7.83,7.83,0,0,0,1.67.18,7.68,7.68,0,0,0,1.71-.2A7.27,7.27,0,0,0,71.12,59h0a7.55,7.55,0,0,0,1.71-1.15,8.24,8.24,0,0,0,.91-1c.18.22.36.43.55.63a8.87,8.87,0,0,0,1.14,1,6.94,6.94,0,0,0,1.74,1,6,6,0,0,0,1.87.4A6.33,6.33,0,0,0,81,59.68a7.3,7.3,0,0,0,1.89-.75,10.43,10.43,0,0,0,1.7-1.18,14.15,14.15,0,0,0,1.14-1.08,8.85,8.85,0,0,0,1,1.1A7.32,7.32,0,0,0,88.5,59a7.17,7.17,0,0,0,1.52.57,7.14,7.14,0,0,0,3.23.07h0a7,7,0,0,0,1.58-.52,8.22,8.22,0,0,0,2-1.25A10.16,10.16,0,0,0,98,56.72a6.76,6.76,0,0,0,.54.72,7.17,7.17,0,0,0,1.19,1.15,6,6,0,0,0,2.21,1,6.66,6.66,0,0,0,2.57.09,1.5,1.5,0,0,0,1-.58,1.49,1.49,0,0,0,.28-1.07v0a1.48,1.48,0,0,0-.59-1,1.49,1.49,0,0,0-1.1-.28,3.72,3.72,0,0,1-1.42,0,3.13,3.13,0,0,1-1.11-.51l0,0a4.82,4.82,0,0,1-1.07-1.16,9.53,9.53,0,0,1-.92-1.81,1.5,1.5,0,0,0-.26-.44h0a1.3,1.3,0,0,0-.41-.32h0a1.46,1.46,0,0,0-1.08-.1h0a1.47,1.47,0,0,0-.86.75,8.11,8.11,0,0,1-1.42,2,5.87,5.87,0,0,1-1.73,1.26,5,5,0,0,1-1,.31,4,4,0,0,1-1,.09,4,4,0,0,1-1.86-.47,5,5,0,0,1-1.46-1.12,6.39,6.39,0,0,1-1.11-1.71,1.49,1.49,0,0,0-.18-.3l0,0a1.33,1.33,0,0,0-.27-.26,1.48,1.48,0,0,0-2.08.31,17.14,17.14,0,0,1-1.23,1.46,10.35,10.35,0,0,1-1.18,1.06c-4,1.63-5,.4-6.83-1.75-.33-.4-.7-.82-1.13-1.3a2.35,2.35,0,0,0-.58-.47.93.93,0,0,0-.7-.11,1,1,0,0,0-.6.44,2.51,2.51,0,0,0-.26.65v0a4.42,4.42,0,0,1-.52,1.28,4.81,4.81,0,0,1-.92,1.1,4.29,4.29,0,0,1-1.37.84,4.15,4.15,0,0,1-1.55.29,5.17,5.17,0,0,1-1-.11h0a5.74,5.74,0,0,1-1-.34A5.85,5.85,0,0,1,64,55.16a6.37,6.37,0,0,1-1.24-1.7,1.45,1.45,0,0,0-.26-.4l0,0a1.77,1.77,0,0,0-.41-.31l-.06,0a1.59,1.59,0,0,0-.6-.14Zm2.23,18.15a4.23,4.23,0,0,0,1-.34,4.74,4.74,0,0,0,1.43-1.09,6.26,6.26,0,0,0,1.07-1.7h0a1.44,1.44,0,0,1,.81-.78,1.5,1.5,0,0,1,1.14,0h0a1.65,1.65,0,0,1,.41.28,1.33,1.33,0,0,1,.29.38,11.4,11.4,0,0,0,1.07,1.6A6.57,6.57,0,0,0,72,70.17a4.36,4.36,0,0,0,1,.56A3.21,3.21,0,0,0,74,71a3.64,3.64,0,0,0,1.08-.11,5.17,5.17,0,0,0,1.15-.47l0,0a8.09,8.09,0,0,0,1.59-1.2,15,15,0,0,0,1.65-1.87l0,0a1.52,1.52,0,0,1,.95-.56h0a1.47,1.47,0,0,1,1.08.28h0a1.6,1.6,0,0,1,.27.25v0a2.38,2.38,0,0,1,.18.3h0a6.47,6.47,0,0,0,1.1,1.7,5.13,5.13,0,0,0,1.46,1.13,4.65,4.65,0,0,0,.92.34,4.34,4.34,0,0,0,.94.13,4.73,4.73,0,0,0,1-.1,4.47,4.47,0,0,0,1-.31,5.75,5.75,0,0,0,1.74-1.25,8.24,8.24,0,0,0,1.41-2,1.46,1.46,0,0,1,.86-.74l.06,0a1.48,1.48,0,0,1,1.07.1h0a1.57,1.57,0,0,1,.4.32,1.38,1.38,0,0,1,.29.46,9.43,9.43,0,0,0,.91,1.8,4.82,4.82,0,0,0,1.07,1.16l0,0a3,3,0,0,0,1.11.51,4,4,0,0,0,1.43,0,1.48,1.48,0,0,1,1.4,2.36,1.49,1.49,0,0,1-1,.59h0a7,7,0,0,1-2.55-.09,6.12,6.12,0,0,1-2.2-1.05A7,7,0,0,1,93.3,71.5c-.19-.23-.37-.47-.55-.73a9.21,9.21,0,0,1-1.12,1.13,8.68,8.68,0,0,1-2,1.26,8.59,8.59,0,0,1-1.58.52h0a6.87,6.87,0,0,1-1.62.14,7.17,7.17,0,0,1-1.61-.21A7.25,7.25,0,0,1,83.29,73a8.1,8.1,0,0,1-1.78-1.23,8.19,8.19,0,0,1-1-1.1,12.58,12.58,0,0,1-1.13,1.08A10.24,10.24,0,0,1,77.67,73a7.78,7.78,0,0,1-1.9.76,6.63,6.63,0,0,1-1.92.19,6.38,6.38,0,0,1-1.87-.4,7,7,0,0,1-1.74-1,8.71,8.71,0,0,1-1.13-1c-.19-.2-.38-.41-.56-.63a8.24,8.24,0,0,1-.91,1A7.23,7.23,0,0,1,65.94,73a6.91,6.91,0,0,1-1.61.58,21.51,21.51,0,0,1-5.78,0A6.91,6.91,0,0,1,56.94,73a7.23,7.23,0,0,1-1.7-1.14,8.24,8.24,0,0,1-.91-1c-.18.22-.36.43-.55.63a9.49,9.49,0,0,1-1.14,1,7,7,0,0,1-1.74,1,6.31,6.31,0,0,1-1.87.4,6.63,6.63,0,0,1-1.92-.19,7.78,7.78,0,0,1-1.9-.76,10.67,10.67,0,0,1-1.7-1.18,12.58,12.58,0,0,1-1.13-1.08,8.19,8.19,0,0,1-1,1.1A8.1,8.1,0,0,1,39.59,73a7.25,7.25,0,0,1-1.53.57,7.17,7.17,0,0,1-1.61.21,6.75,6.75,0,0,1-1.61-.14h0a8.59,8.59,0,0,1-1.58-.52,8.41,8.41,0,0,1-2-1.26,9.28,9.28,0,0,1-1.13-1.13c-.18.26-.36.5-.55.73a7,7,0,0,1-1.19,1.13,6.12,6.12,0,0,1-2.2,1.05,7,7,0,0,1-2.55.09h0a1.49,1.49,0,0,1-.67-2.67,1.47,1.47,0,0,1,1.1-.28,4,4,0,0,0,1.43,0,2.88,2.88,0,0,0,1.11-.51l0,0a4.82,4.82,0,0,0,1.07-1.16,9.43,9.43,0,0,0,.91-1.8,1.38,1.38,0,0,1,.29-.46,1.57,1.57,0,0,1,.4-.32h0a1.48,1.48,0,0,1,1.07-.1l.06,0a1.46,1.46,0,0,1,.86.74,8.24,8.24,0,0,0,1.41,2,5.75,5.75,0,0,0,1.74,1.25,4.47,4.47,0,0,0,1,.31,4.73,4.73,0,0,0,1,.1,4.34,4.34,0,0,0,.94-.13,4.43,4.43,0,0,0,.92-.34,5.13,5.13,0,0,0,1.46-1.13,6.75,6.75,0,0,0,1.11-1.7h0a2.38,2.38,0,0,1,.18-.3v0a1.6,1.6,0,0,1,.27-.25h0a1.47,1.47,0,0,1,1.08-.28h0a1.52,1.52,0,0,1,1,.56l0,0A15,15,0,0,0,45,69.15a8.09,8.09,0,0,0,1.59,1.2l0,0a5.17,5.17,0,0,0,1.15.47,3.68,3.68,0,0,0,1.08.11,3.21,3.21,0,0,0,1-.22,4.36,4.36,0,0,0,1-.56A6.57,6.57,0,0,0,52,69.06a11.4,11.4,0,0,0,1.07-1.6,1.33,1.33,0,0,1,.29-.38,1.65,1.65,0,0,1,.41-.28h0a1.5,1.5,0,0,1,1.14,0,1.44,1.44,0,0,1,.81.78h0a6.26,6.26,0,0,0,1.07,1.7,4.74,4.74,0,0,0,1.43,1.09,4.23,4.23,0,0,0,1,.34c.3.07,4.16.07,4.46,0Z"/></svg>