<svg xmlns="http://www.w3.org/2000/svg" shape-rendering="geometricPrecision" text-rendering="geometricPrecision" image-rendering="optimizeQuality" fill-rule="evenodd" clip-rule="evenodd" viewBox="0 0 407 511.63"><path fill-rule="nonzero" d="M0 505.13V237.44c0-2.9 1.9-5.35 4.52-6.19 29.23-11.64 47.54-32.44 55.9-60.81 9.02-30.56 6.76-70.03-5.6-116.48-.73-2.81.49-5.68 2.83-7.14l65.16-45.17c3.15-2.17 5.46-2.18 8.48-.16 21.19 14.59 46.69 21.89 72.21 21.89 25.69 0 51.36-7.4 72.63-22.2a6.493 6.493 0 0 1 7.77.27l65.69 45.53a6.46 6.46 0 0 1 2.58 6.98c-12.35 46.45-14.61 85.92-5.59 116.48 8.4 28.49 26.83 49.35 56.28 60.96 2.56 1 4.12 3.45 4.13 6.04l.01 267.69a6.5 6.5 0 0 1-6.5 6.5H6.5a6.5 6.5 0 0 1-6.5-6.5zm12.99-222.65h178.58v63.63H12.99v49.12h178.58v63.63H12.99v39.78h381.02v-39.78H215.43v-63.63h178.58v-49.12H215.43v-63.63h178.58v-40.72c-31.07-13.49-50.7-36.58-59.87-67.66-9.4-31.92-7.57-72.2 4.37-119.05l-52.89-36.66c-4.95 61.94-31 112.98-75.81 155.71a6.48 6.48 0 0 1-8.52.35c-47.4-38.08-68.45-98.85-78.81-156.82L68.49 55.05c11.94 46.85 13.77 87.13 4.37 119.05-9.17 31.08-28.8 54.17-59.87 67.66v40.72zm123-262.94c9.64 51.38 28.45 105.93 69.03 141.15 39.77-39.48 62.81-86.01 67.59-142.03-21.1 11.8-45.12 17.71-69.11 17.71-23.39 0-46.8-5.62-67.51-16.83z"/></svg>