<svg xmlns="http://www.w3.org/2000/svg" shape-rendering="geometricPrecision" text-rendering="geometricPrecision" image-rendering="optimizeQuality" fill-rule="evenodd" clip-rule="evenodd" viewBox="0 0 512 304.78"><path d="M85.05 41.79v238.32H42.58V41.79h-4.59c-2.62 0-4.8-2.16-4.8-4.81v-2.39c0-2.65 2.17-4.81 4.8-4.81h7.27c-1.36-2.76-2.13-1.78-2.13-9.12C43.13 13.32 52.39 0 63.79 0s20.65 13.32 20.65 20.66-.76 6.36-2.13 9.12h7.32c2.64 0 4.8 2.17 4.8 4.81v2.39c0 2.64-2.17 4.81-4.8 4.81h-4.58zM0 288.55h512v16.23H0v-16.23zM362.7 3.11l22.1 22.13-22.44 22.43-7.98-7.98 8.83-8.83-55.12.06V19.66l55.17-.05-8.54-8.55 7.98-7.95zm-142.59 0 22.1 22.12-22.46 22.44-7.94-7.98 8.83-8.83-55.13.06V19.66l55.17-.05-8.55-8.55 7.98-7.95zm202.7 235.73V123.53H398v115.31h24.81zm0-130.15V77.7H398v30.99h24.81zM391.5 253.68l-.96.06-.95-.06h-37.81l-.95.06-.96-.06h-37.81l-.96.06-.95-.06h-37.82l-.95.06-.96-.06h-37.81l-.95.06-.95-.06h-37.82l-.96.06-.95-.06h-37.49l-.29-.01-.98.07a7.46 7.46 0 0 1-7.46-7.46V71.55c0-.43.04-.86.11-1.27 0-4.09 3.33-7.42 7.42-7.42h274.67V41.79h-4.59c-2.62 0-4.79-2.16-4.79-4.81v-2.39c0-2.65 2.16-4.81 4.79-4.81h7.27c-1.36-2.76-2.13-1.78-2.13-9.12 0-7.34 9.26-20.66 20.66-20.66s20.65 13.32 20.65 20.66-.76 6.36-2.12 9.12h7.32c2.63 0 4.79 2.17 4.79 4.81v2.39c0 2.64-2.17 4.81-4.79 4.81h-4.59v238.32h-42.47v-26.43H391.5zm-8.41-14.84V123.53h-24.81v115.31h24.81zm0-130.15V77.7h-24.81v30.99h24.81zm-39.72 130.15V123.53h-24.81v115.31h24.81zm0-130.15V77.7h-24.81v30.99h24.81zm-39.73 130.15V123.53h-24.81v115.31h24.81zm0-130.15V77.7h-24.81v30.99h24.81zm-39.72 130.15V123.53h-24.8v115.31h24.8zm0-130.15V77.7h-24.8v30.99h24.8zM224.2 238.84V123.53h-24.81v115.31h24.81zm0-130.15V77.7h-24.81v30.99h24.81zm-39.72 130.15V123.53h-24.81v115.31h24.81zm0-130.15V77.7h-24.81v30.99h24.81z"/></svg>