<?xml version="1.0" encoding="utf-8"?><svg version="1.1" id="Layer_1" xmlns="http://www.w3.org/2000/svg" xmlns:xlink="http://www.w3.org/1999/xlink" x="0px" y="0px" viewBox="0 0 122.88 85.855" enable-background="new 0 0 122.88 85.855" xml:space="preserve"><g><path fill-rule="evenodd" clip-rule="evenodd" d="M9.604,85.839V49.135c-1.953,0.751-3.779,0.768-5.297,0.251 c-1.185-0.401-2.186-1.119-2.919-2.044c-0.735-0.926-1.202-2.053-1.344-3.295c-0.217-1.927,0.359-4.104,2.002-6.148l0,0 c0.083-0.099,0.175-0.2,0.284-0.284L49.928,0.46c0.617-0.567,1.569-0.625,2.252-0.092l28.895,22.463 c-4.617,1.998-8.527,5.245-10.865,9.75c-8.404-6.733-17.026-13.538-18.78-14.903c-3.829,2.912-37.154,28.571-37.154,29.654v38.523 L9.604,85.839L9.604,85.839L9.604,85.839z M82.619,72.035c2.97,8.74,15.378,9.059,18.163,0c3.284,2.953,12.998,3.548,16.616,5.563 c1.143,0.64,2.178,1.452,3.005,2.548c0.808,1.065,2.005,3.436,2.477,5.71H60.522c0.472-2.274,1.669-4.645,2.477-5.71 c0.832-1.096,1.862-1.908,3.005-2.548C69.622,75.583,79.336,74.988,82.619,72.035L82.619,72.035L82.619,72.035L82.619,72.035z M80.346,53.927c-0.624,0.026-1.091,0.153-1.416,0.371c-0.183,0.122-0.32,0.279-0.405,0.467c-0.097,0.209-0.143,0.462-0.133,0.751 c0.025,0.854,0.472,1.97,1.34,3.259l0.01,0.021l0,0l2.807,4.466c1.127,1.792,2.31,3.618,3.776,4.958 c1.41,1.29,3.121,2.163,5.384,2.167c2.452,0.005,4.243-0.902,5.699-2.263c1.513-1.417,2.711-3.36,3.883-5.299l3.163-5.213 c0.588-1.345,0.806-2.247,0.669-2.775c-0.081-0.315-0.426-0.467-1.021-0.497c-0.126-0.006-0.253-0.011-0.385-0.006 c-0.143,0.006-0.29,0.016-0.442,0.026c-0.086,0.005-0.166,0-0.243-0.016c-0.279,0.016-0.573-0.005-0.868-0.046l1.086-4.796 c-8.039,1.27-14.052-4.704-22.554-1.192l0.614,5.653C80.97,53.983,80.646,53.974,80.346,53.927L80.346,53.927L80.346,53.927 L80.346,53.927z M105.188,52.917c0.775,0.238,1.278,0.731,1.481,1.533c0.229,0.884-0.021,2.132-0.771,3.837l0,0 c-0.015,0.03-0.03,0.062-0.046,0.091l-3.202,5.273c-1.233,2.029-2.486,4.07-4.156,5.633c-1.73,1.619-3.862,2.701-6.781,2.69 c-2.725-0.005-4.774-1.046-6.455-2.583c-1.623-1.486-2.866-3.406-4.05-5.284l-2.811-4.466c-1.025-1.532-1.564-2.933-1.594-4.08 c-0.016-0.543,0.075-1.03,0.273-1.461c0.208-0.452,0.533-0.827,0.965-1.122c0.202-0.137,0.431-0.254,0.68-0.345 c-0.183-2.421-0.249-5.477-0.132-8.029c0.062-0.604,0.178-1.213,0.345-1.816c0.716-2.563,2.518-4.628,4.745-6.049 c1.229-0.782,2.573-1.375,3.979-1.771c0.889-0.253-0.761-3.106,0.163-3.197c4.461-0.456,11.673,3.614,14.789,6.984 c1.558,1.69,2.537,3.922,2.75,6.881L105.188,52.917L105.188,52.917L105.188,52.917L105.188,52.917z M58.533,54.168 c-0.594,0.323-1.335,0.104-1.655-0.486c-0.323-0.595-0.104-1.336,0.49-1.654c2.808-1.524,4.116-3.494,4.379-5.422 c0.141-1.028-0.02-2.062-0.406-3.019c-0.396-0.969-1.021-1.85-1.814-2.56c-1.544-1.379-3.71-2.106-5.972-1.543 c-0.917,0.228-1.71,0.686-2.405,1.333c-0.738,0.686-1.375,1.583-1.934,2.643c-0.315,0.599-1.053,0.826-1.646,0.515 c-0.599-0.314-0.826-1.053-0.515-1.646c0.686-1.301,1.488-2.417,2.437-3.303c0.994-0.921,2.146-1.583,3.486-1.915 c3.111-0.77,6.075,0.212,8.18,2.094c1.07,0.957,1.918,2.15,2.454,3.466c0.538,1.328,0.758,2.788,0.555,4.267 C63.802,49.578,62.11,52.226,58.533,54.168L58.533,54.168L58.533,54.168z M49.176,63.809c-4.625-6.215-4.738-12.102,0.878-17.573 l-4.044-2.234c-3.239-1.259-9.181,8.029-6.885,10.511l3.151,4.674l-0.65,1.356c-0.179,0.402-0.004,0.685,0.435,0.881l0.427,0.115 l-8.196,16.221l1.659,3.538l3.319-0.978l0.854-1.658l-0.817-1.532l1.802-0.387l0.42-0.813l-0.942-1.437l0.619-1.2l1.799-0.228 l0.585-1.136l-1.005-1.313l0.643-1.244l1.833-0.299l2.498-4.766l0.423,0.231C48.713,64.985,49.092,64.697,49.176,63.809 L49.176,63.809L49.176,63.809z M57.883,67.704l-1.221,4.556l-1.695,0.67l-0.355,1.327l1.236,1.049l-0.322,1.209l-1.675,0.591 l-0.343,1.275l1.2,1.177l-0.231,0.866l-1.647,0.745l1.101,1.297l-0.475,1.767l-2.971,1.623l-2.322-3.043l4.427-16.523l-1.072-0.288 c-0.219-0.059-0.355-0.286-0.295-0.511l0.45-1.678c-3.246-2.462-4.854-6.721-3.737-10.896c1.436-5.364,6.853-8.604,12.221-7.398 c0.024,0.287,0.02,0.578-0.02,0.869c-0.101,0.726-0.416,1.472-0.998,2.193c-0.079,0.097-0.163,0.195-0.25,0.292 c-1.715-0.111-3.322,0.996-3.785,2.72c-0.2,0.742-0.156,1.491,0.079,2.166c0.057,0.239,0.148,0.471,0.269,0.697 c0.282,0.52,0.698,0.913,1.184,1.165c0.319,0.212,0.678,0.37,1.065,0.479c1.926,0.514,3.9-0.594,4.474-2.488 c0.583-0.515,1.089-1.058,1.524-1.616c0.845-1.089,1.423-2.245,1.767-3.421c2.329,2.512,3.354,6.13,2.401,9.688 c-1.117,4.175-4.647,7.063-8.684,7.569l-0.45,1.679c-0.059,0.22-0.288,0.355-0.511,0.296L57.883,67.704L57.883,67.704 L57.883,67.704z M78.216,2.963l14.322,0.584v17.031l-0.626-0.008v0.041c-0.879,0.001-1.762,0.043-2.641,0.125L78.216,13.44V2.963 L78.216,2.963L78.216,2.963L78.216,2.963z"/></g></svg>