<svg id="Layer_1" data-name="Layer 1" xmlns="http://www.w3.org/2000/svg" viewBox="0 0 122.88 122.88"><defs><style>.cls-1{fill-rule:evenodd;}</style></defs><title>tiles</title><path class="cls-1" d="M2.05,59.39,28.67,32.77,57.34,61.44,28.67,90.11,0,61.44l2.05-2Zm118.78,4.1L94.21,90.11,65.54,61.44,94.21,32.77l28.67,28.67-2,2.05Zm-2-2.05L94.21,86,69.64,61.44,94.21,36.87l24.57,24.57Zm-84-34.82L61.44,0,90.11,28.67,61.44,57.34,32.77,28.67l2-2.05ZM88.06,96.26,61.44,122.88,32.77,94.21,61.44,65.54,90.11,94.21l-2,2.05ZM4.1,61.44,28.67,36.87,53.24,61.44,28.67,86,4.1,61.44Z"/></svg>