<svg xmlns="http://www.w3.org/2000/svg" shape-rendering="geometricPrecision" text-rendering="geometricPrecision" image-rendering="optimizeQuality" fill-rule="evenodd" clip-rule="evenodd" viewBox="0 0 512 482.63"><path d="M11.86 0h488.28C506.66 0 512 5.34 512 11.86v458.91c0 6.52-5.34 11.86-11.86 11.86H11.86C5.34 482.63 0 477.29 0 470.77V11.86C0 5.34 5.34 0 11.86 0zm13.83 17.67h78.6c4.95 0 8.99 4.04 8.99 8.99v80.74c0 4.95-4.04 8.98-8.99 8.98h-78.6c-4.95 0-8.99-4.03-8.99-8.98V26.66c0-4.95 4.04-8.99 8.99-8.99zm.83 348.68h155.73c4.93 0 8.99 4.06 8.99 8.99v80.74c0 4.94-4.04 8.98-8.99 8.98H26.52c-4.94 0-8.99-4.05-8.99-8.98v-80.74c0-4.95 4.05-8.99 8.99-8.99zm381.29 0h77.51c4.94 0 8.98 4.05 8.98 8.99v80.74c0 4.93-4.05 8.98-8.98 8.98h-77.51c-2.47 0-4.72-1.01-6.35-2.64a8.958 8.958 0 0 1-2.63-6.34v-80.74c0-4.95 4.04-8.99 8.98-8.99zm-190.17 0h155.73c4.95 0 8.99 4.05 8.99 8.99v80.74c0 4.93-4.05 8.98-8.99 8.98H217.64c-2.46 0-4.71-1.01-6.34-2.63a8.975 8.975 0 0 1-2.65-6.35v-80.74c0-4.95 4.05-8.99 8.99-8.99zm112.44-116.22h155.74c4.92 0 8.98 4.06 8.98 8.98v80.75c0 4.93-4.05 8.98-8.98 8.98H330.08c-4.95 0-8.99-4.04-8.99-8.98v-80.75c0-2.46 1.01-4.7 2.64-6.33a8.969 8.969 0 0 1 6.35-2.65zm-190.59 0h155.73c4.93 0 8.99 4.06 8.99 8.98v80.75c0 4.93-4.05 8.98-8.99 8.98H139.49c-4.93 0-8.99-4.05-8.99-8.98v-80.75c0-4.94 4.04-8.98 8.99-8.98zm-113.8 0h78.6c4.95 0 8.99 4.03 8.99 8.98v80.75c0 4.94-4.04 8.98-8.99 8.98h-78.6c-4.95 0-8.99-4.04-8.99-8.98v-80.75c0-4.95 4.04-8.98 8.99-8.98zm.83-116.24h155.73c4.93 0 8.99 4.06 8.99 8.99v80.74c0 4.93-4.06 8.98-8.99 8.98H26.52c-4.95 0-8.99-4.04-8.99-8.98v-80.74c0-4.94 4.05-8.99 8.99-8.99zm381.29 0h77.51c4.95 0 8.98 4.04 8.98 8.99v80.74c0 4.94-4.03 8.98-8.98 8.98h-77.51c-4.93 0-8.98-4.06-8.98-8.98v-80.74c0-2.48 1.01-4.73 2.64-6.35a8.925 8.925 0 0 1 6.34-2.64zm-190.17 0h155.73c4.95 0 8.99 4.04 8.99 8.99v80.74c0 4.94-4.04 8.98-8.99 8.98H217.64c-4.95 0-8.99-4.04-8.99-8.98v-80.74c0-4.94 4.06-8.99 8.99-8.99zM330.08 17.67h155.74c4.93 0 8.98 4.05 8.98 8.99v80.74c0 4.93-4.06 8.98-8.98 8.98H330.08c-4.93 0-8.99-4.06-8.99-8.98V26.66c0-4.95 4.04-8.99 8.99-8.99zm-190.59 0h155.73c4.94 0 8.99 4.05 8.99 8.99v80.74c0 4.93-4.06 8.98-8.99 8.98H139.49c-4.95 0-8.99-4.04-8.99-8.98V26.66c0-4.94 4.06-8.99 8.99-8.99z"/></svg>