<?xml version="1.0" encoding="utf-8"?><svg version="1.1" id="Layer_1" xmlns="http://www.w3.org/2000/svg" xmlns:xlink="http://www.w3.org/1999/xlink" x="0px" y="0px" viewBox="0 0 33.74 122.88" style="enable-background:new 0 0 33.74 122.88" xml:space="preserve"><style type="text/css">.st0{fill-rule:evenodd;clip-rule:evenodd;}</style><g><path class="st0" d="M7.44,35.17h19.22v1.57H7.44V35.17L7.44,35.17z M4.16,68.07l25.47-0.04l0.16,54.84H4.16V68.07L4.16,68.07z M8.84,72.47L8.84,72.47c0.83,0,1.5,0.67,1.5,1.5v9.5c0,0.82-0.67,1.5-1.5,1.5h0c-0.82,0-1.5-0.67-1.5-1.5v-9.5 C7.34,73.15,8.01,72.47,8.84,72.47L8.84,72.47z M25.12,105.54L25.12,105.54c0.83,0,1.5,0.67,1.5,1.5v9.5c0,0.82-0.67,1.5-1.5,1.5h0 c-0.82,0-1.5-0.67-1.5-1.5v-9.5C23.62,106.22,24.29,105.54,25.12,105.54L25.12,105.54z M19.69,105.54L19.69,105.54 c0.83,0,1.5,0.67,1.5,1.5v9.5c0,0.82-0.67,1.5-1.5,1.5h0c-0.82,0-1.5-0.67-1.5-1.5v-9.5C18.19,106.22,18.87,105.54,19.69,105.54 L19.69,105.54z M14.26,105.54L14.26,105.54c0.83,0,1.5,0.67,1.5,1.5v9.5c0,0.82-0.67,1.5-1.5,1.5h0c-0.82,0-1.5-0.67-1.5-1.5v-9.5 C12.77,106.22,13.44,105.54,14.26,105.54L14.26,105.54z M8.84,105.54L8.84,105.54c0.83,0,1.5,0.67,1.5,1.5v9.5 c0,0.82-0.67,1.5-1.5,1.5h0c-0.82,0-1.5-0.67-1.5-1.5v-9.5C7.34,106.22,8.01,105.54,8.84,105.54L8.84,105.54z M25.12,88.76 L25.12,88.76c0.83,0,1.5,0.67,1.5,1.5v9.5c0,0.82-0.67,1.5-1.5,1.5h0c-0.82,0-1.5-0.67-1.5-1.5v-9.5 C23.62,89.43,24.29,88.76,25.12,88.76L25.12,88.76z M19.69,88.76L19.69,88.76c0.83,0,1.5,0.67,1.5,1.5v9.5c0,0.82-0.67,1.5-1.5,1.5 h0c-0.82,0-1.5-0.67-1.5-1.5v-9.5C18.19,89.43,18.87,88.76,19.69,88.76L19.69,88.76z M14.26,88.76L14.26,88.76 c0.83,0,1.5,0.67,1.5,1.5v9.5c0,0.82-0.67,1.5-1.5,1.5h0c-0.82,0-1.5-0.67-1.5-1.5v-9.5C12.77,89.43,13.44,88.76,14.26,88.76 L14.26,88.76z M8.84,88.76L8.84,88.76c0.83,0,1.5,0.67,1.5,1.5v9.5c0,0.82-0.67,1.5-1.5,1.5h0c-0.82,0-1.5-0.67-1.5-1.5v-9.5 C7.34,89.43,8.01,88.76,8.84,88.76L8.84,88.76z M25.12,72.47L25.12,72.47c0.83,0,1.5,0.67,1.5,1.5v9.5c0,0.82-0.67,1.5-1.5,1.5h0 c-0.82,0-1.5-0.67-1.5-1.5v-9.5C23.62,73.15,24.29,72.47,25.12,72.47L25.12,72.47z M19.69,72.47L19.69,72.47 c0.83,0,1.5,0.67,1.5,1.5v9.5c0,0.82-0.67,1.5-1.5,1.5h0c-0.82,0-1.5-0.67-1.5-1.5v-9.5C18.19,73.15,18.87,72.47,19.69,72.47 L19.69,72.47z M14.26,72.47L14.26,72.47c0.83,0,1.5,0.67,1.5,1.5v9.5c0,0.82-0.67,1.5-1.5,1.5h0c-0.82,0-1.5-0.67-1.5-1.5v-9.5 C12.77,73.15,13.44,72.47,14.26,72.47L14.26,72.47z M17.47,45.96c1.4,0.11,2.67,0.67,3.67,1.53l-1.64,1.64 c-0.57-0.45-1.27-0.76-2.03-0.85V45.96L17.47,45.96z M9.26,44.04H24.7c0.19,0,0.36,0.08,0.48,0.2c0.12,0.12,0.2,0.29,0.2,0.48v15.2 c0,0.19-0.08,0.36-0.2,0.48c-0.12,0.12-0.29,0.2-0.48,0.2H9.26c-0.19,0-0.36-0.08-0.48-0.2c-0.12-0.12-0.2-0.29-0.2-0.48v-15.2 c0-0.19,0.08-0.36,0.2-0.48C8.9,44.12,9.07,44.04,9.26,44.04L9.26,44.04z M20.18,44.85c0.96,0.41,1.82,1,2.55,1.73 c0.8,0.8,1.44,1.77,1.85,2.85v-4.58H20.18L20.18,44.85z M24.58,55.22c-0.41,1.08-1.05,2.05-1.85,2.85 c-0.73,0.73-1.59,1.32-2.55,1.73h4.4V55.22L24.58,55.22z M13.78,59.8c-0.96-0.41-1.82-1-2.55-1.73c-0.8-0.8-1.44-1.77-1.85-2.85 v4.58H13.78L13.78,59.8z M9.38,49.42c0.41-1.08,1.05-2.05,1.85-2.85c0.73-0.73,1.59-1.32,2.55-1.73h-4.4V49.42L9.38,49.42z M22.18,47.12c-1.33-1.33-3.17-2.15-5.2-2.15c-2.03,0-3.87,0.82-5.2,2.15c-1.33,1.33-2.15,3.17-2.15,5.2c0,2.03,0.82,3.87,2.15,5.2 c1.33,1.33,3.17,2.15,5.2,2.15c2.03,0,3.87-0.82,5.2-2.15c1.33-1.33,2.15-3.17,2.15-5.2C24.33,50.29,23.51,48.45,22.18,47.12 L22.18,47.12z M21.83,48.17c0.86,1,1.41,2.27,1.51,3.67h-2.32c-0.09-0.76-0.39-1.46-0.83-2.03L21.83,48.17L21.83,48.17z M23.34,52.82c-0.11,1.39-0.66,2.66-1.52,3.66l-1.64-1.64c0.45-0.57,0.75-1.26,0.84-2.02H23.34L23.34,52.82z M21.14,57.16 c-1,0.86-2.27,1.41-3.66,1.52v-2.32c0.76-0.09,1.45-0.39,2.02-0.84L21.14,57.16L21.14,57.16z M16.5,58.69 c-1.4-0.1-2.67-0.66-3.67-1.51l1.64-1.64c0.57,0.45,1.27,0.75,2.03,0.83V58.69L16.5,58.69z M12.15,56.49 c-0.86-1-1.42-2.27-1.53-3.67h2.32c0.09,0.76,0.39,1.46,0.85,2.03L12.15,56.49L12.15,56.49z M10.61,51.85 c0.1-1.4,0.66-2.68,1.52-3.68l1.64,1.64c-0.45,0.57-0.75,1.27-0.84,2.04H10.61L10.61,51.85z M12.82,47.48 c1-0.86,2.28-1.42,3.68-1.52v2.32c-0.76,0.09-1.46,0.39-2.04,0.84L12.82,47.48L12.82,47.48z M19.33,49.97 c-0.6-0.6-1.43-0.97-2.35-0.97c-0.91,0-1.73,0.36-2.33,0.95l-0.02,0.02c-0.6,0.6-0.97,1.43-0.97,2.35c0,0.92,0.37,1.75,0.97,2.35 c0.6,0.6,1.43,0.97,2.35,0.97c0.92,0,1.75-0.37,2.35-0.97c0.6-0.6,0.97-1.43,0.97-2.35C20.3,51.4,19.93,50.57,19.33,49.97 L19.33,49.97z M16.53,50.56c0-0.21,0.17-0.39,0.39-0.39c0.21,0,0.39,0.17,0.39,0.39v1.76l0.95,0.38c0.2,0.08,0.29,0.31,0.22,0.5 c-0.08,0.2-0.31,0.29-0.5,0.22l-1.17-0.47c-0.16-0.05-0.27-0.2-0.27-0.37V50.56L16.53,50.56z M3.11,42.34h4.33v-4.89h2.28v3.29 c0,0.21,0.17,0.39,0.39,0.39c0.21,0,0.39-0.17,0.39-0.39v-3.29h0.9v3.29c0,0.21,0.17,0.39,0.39,0.39c0.21,0,0.39-0.17,0.39-0.39 v-3.29h1.64v3.29c0,0.21,0.17,0.39,0.39,0.39c0.21,0,0.39-0.17,0.39-0.39v-3.29h0.9v3.29c0,0.21,0.17,0.39,0.39,0.39 c0.21,0,0.39-0.17,0.39-0.39v-3.29h1.64v3.29c0,0.21,0.17,0.39,0.39,0.39s0.39-0.17,0.39-0.39v-3.29h0.9v3.29 c0,0.21,0.17,0.39,0.39,0.39c0.21,0,0.39-0.17,0.39-0.39v-3.29h1.64v3.29c0,0.21,0.17,0.39,0.39,0.39c0.21,0,0.39-0.17,0.39-0.39 v-3.29h0.9v3.29c0,0.21,0.17,0.39,0.39,0.39c0.21,0,0.39-0.17,0.39-0.39v-3.29h2.19v4.89h3.97h3.11l-2.95,3.13h-0.16v15.04h1.52 v1.49h-0.75l-1.33,5.22h-5.59v-3.63c0-0.19-0.17-0.35-0.39-0.35c-0.22,0-0.39,0.16-0.39,0.35v3.63h-0.9v-3.63 c0-0.19-0.17-0.35-0.39-0.35c-0.22,0-0.39,0.16-0.39,0.35v3.63h-1.64v-3.63c0-0.19-0.17-0.35-0.39-0.35s-0.39,0.16-0.39,0.35v3.63 h-0.9v-3.63c0-0.19-0.17-0.35-0.39-0.35c-0.22,0-0.39,0.16-0.39,0.35v3.63h-1.64v-3.63c0-0.19-0.17-0.35-0.39-0.35 c-0.22,0-0.39,0.16-0.39,0.35v3.63h-0.9v-3.63c0-0.19-0.17-0.35-0.39-0.35c-0.22,0-0.39,0.16-0.39,0.35v3.63h-1.64v-3.63 c0-0.19-0.17-0.35-0.39-0.35c-0.22,0-0.39,0.16-0.39,0.35v3.63h-0.9v-3.63c0-0.19-0.17-0.35-0.39-0.35c-0.22,0-0.39,0.16-0.39,0.35 v3.63H4.16l-1.8-5.22H1.59v-1.49h1.52V45.47h-0.1L0,42.34H3.11L3.11,42.34z M10.04,19.95h14.02v1.28h0H10.04V19.95L10.04,19.95z M9.99,27.49h14.12c0.07,2.27,0.88,4.57,2.11,6.91H7.85C9.02,32.03,9.83,29.71,9.99,27.49L9.99,27.49z M23.97,19.27 c-5.72-7.84-6.78-12.74-7.05-17.39c-0.2,6.15-2.45,11.85-6.77,17.39H23.97L23.97,19.27z M17.06,0c0.51,0,0.93,0.42,0.93,0.93 c0,0.51-0.42,0.93-0.93,0.93c-0.51,0-0.93-0.42-0.93-0.93C16.13,0.42,16.54,0,17.06,0L17.06,0z M24.07,22.01v5.09h-1.24v-4.03 c0-0.21-0.17-0.38-0.39-0.38c-0.22,0-0.39,0.17-0.39,0.38v4.03h-1.63v-4.03c0-0.21-0.17-0.38-0.39-0.38s-0.39,0.17-0.39,0.38v4.03 h-0.91v-4.03c0-0.21-0.17-0.38-0.39-0.38c-0.22,0-0.39,0.17-0.39,0.38v4.03l-1.66,0v-4.03c0-0.21-0.17-0.38-0.39-0.38 c-0.22,0-0.39,0.17-0.39,0.38v4.03h-0.91v-4.03c0-0.21-0.17-0.38-0.39-0.38c-0.22,0-0.39,0.17-0.39,0.38v4.03h-1.63v-4.03 c0-0.21-0.17-0.38-0.39-0.38c-0.22,0-0.39,0.17-0.39,0.38v4.03h-1.36v-5.09H24.07L24.07,22.01L24.07,22.01z"/></g></svg>