<?xml version="1.0" encoding="utf-8"?><svg version="1.1" id="Layer_1" xmlns="http://www.w3.org/2000/svg" xmlns:xlink="http://www.w3.org/1999/xlink" x="0px" y="0px" viewBox="0 0 122.88 109.61" style="enable-background:new 0 0 122.88 109.61" xml:space="preserve"><style type="text/css">.st0{fill-rule:evenodd;clip-rule:evenodd;}</style><g><path class="st0" d="M38.66,92.29h9.14c1.93-0.24,3.79-0.47,5.49-0.47c0.03,0,0.07,0,0.1,0v-3.98c-0.03,0-0.07,0-0.1,0 c-1.66,0-3.44,0.22-5.29,0.46c-3.63,0.46-7.5,0.94-11.24-0.02c-6.39-1.64-10.98-0.8-14.41-0.16c-2.5,0.46-4.44,0.82-6.24,0.15 c-3.58-1.33-6.44-0.41-8.91,0.38c-2.29,0.73-4.29,1.38-6.47,0.48c-0.6-0.25-0.89-0.94-0.65-1.55c0.25-0.6,0.94-0.89,1.55-0.65 c1.38,0.57,3,0.05,4.85-0.54c2.83-0.91,6.1-1.96,10.46-0.34c1.18,0.44,2.85,0.13,4.99-0.26c3.64-0.67,8.52-1.57,15.42,0.2 c3.31,0.85,6.95,0.39,10.37-0.04c1.96-0.25,3.85-0.48,5.58-0.48c0.03,0,0.07,0,0.1,0v-17.3h-1.76c-0.6,0-1.09-0.49-1.09-1.09v-2.74 c0-0.6,0.49-1.09,1.09-1.09h1.76v-2.07c0-0.3,0.25-0.55,0.55-0.55h56.16c0.3,0,0.55,0.25,0.55,0.55v2.07h1.76 c0.6,0,1.09,0.49,1.09,1.09v2.74c0,0.6-0.49,1.09-1.09,1.09h-1.76v24.11h12.23v5.86v0.19v11.27H30.01v-3.24 c-3.08-0.06-5.58,0.4-7.66,0.78c-2.5,0.46-4.44,0.82-6.24,0.15c-3.58-1.33-6.44-0.41-8.91,0.38c-2.29,0.73-4.29,1.38-6.47,0.48 c-0.6-0.25-0.89-0.94-0.65-1.55c0.25-0.6,0.94-0.89,1.55-0.65c1.38,0.57,3,0.05,4.85-0.54c2.83-0.91,6.1-1.96,10.46-0.34 c1.18,0.44,2.85,0.13,4.99-0.26c2.19-0.4,4.83-0.89,8.09-0.83v-3.97c-3.08-0.06-5.58,0.4-7.66,0.78c-2.5,0.46-4.44,0.82-6.24,0.15 c-3.58-1.33-6.44-0.41-8.91,0.38c-2.29,0.73-4.29,1.38-6.47,0.48c-0.6-0.25-0.89-0.94-0.65-1.55c0.25-0.6,0.94-0.89,1.55-0.65 c1.38,0.57,3,0.05,4.85-0.54c2.83-0.91,6.1-1.96,10.46-0.34c1.18,0.44,2.85,0.13,4.99-0.26c3.2-0.59,7.35-1.36,12.99-0.33h3.74V95 c-0.63-0.09-1.27-0.21-1.9-0.37c-6.39-1.64-10.98-0.8-14.41-0.16c-2.5,0.46-4.44,0.82-6.24,0.15c-3.58-1.33-6.44-0.41-8.91,0.38 c-2.29,0.73-4.29,1.38-6.47,0.48c-0.6-0.25-0.89-0.94-0.65-1.55c0.25-0.6,0.94-0.89,1.55-0.65c1.38,0.57,3,0.05,4.85-0.54 c2.83-0.91,6.1-1.96,10.46-0.34c1.18,0.44,2.85,0.13,4.99-0.26c3.64-0.67,8.52-1.57,15.42,0.2c0.43,0.11,0.87,0.2,1.31,0.27V92.29 L38.66,92.29z M60.34,3.28c1.22,0,2.32,0.49,3.12,1.29c0.8,0.8,1.29,1.9,1.29,3.12c0,1.22-0.49,2.32-1.29,3.12 c-0.8,0.8-1.9,1.29-3.12,1.29c-1.22,0-2.32-0.49-3.12-1.29c-0.8-0.8-1.29-1.9-1.29-3.12c0-1.22,0.49-2.32,1.29-3.12 C58.02,3.77,59.12,3.28,60.34,3.28L60.34,3.28L60.34,3.28z M39.07,32.39c-0.13,0.06-0.25,0.13-0.38,0.2 c-0.37,0.22-0.74,0.49-1.12,0.8l-0.81-0.92c0.28-0.26,0.58-0.49,0.9-0.7c0.25-0.17,0.52-0.31,0.79-0.44 c0.11-0.05,0.22-0.11,0.33-0.15c-0.53-0.94-1.29-1.61-2.16-2.03c-0.87-0.42-1.83-0.57-2.78-0.48c-0.94,0.09-1.85,0.43-2.6,1.01 c-0.87,0.67-1.53,1.68-1.78,3.02l-0.02,0.09c0.05,0.11,0.09,0.23,0.13,0.35c-0.12,0.13,0.07,1.29,0.07,1.58 c-0.01,1.27-0.36,2.54-1.06,3.48c-0.26,0.34-0.56,0.65-0.89,0.92l0.06,0.03c0.25,0.1,0.54,0.18,0.85,0.22h12.07 c0.59-0.14,1.11-0.33,1.55-0.58c0.44-0.25,0.79-0.54,1.06-0.9c0.42-0.55,0.62-1.34,0.63-2.14c0.01-0.84-0.2-1.69-0.6-2.31 c-0.12-0.18-0.24-0.34-0.37-0.48c-0.6-0.65-1.36-0.93-2.15-0.94C40.23,32,39.63,32.14,39.07,32.39L39.07,32.39L39.07,32.39z M28.65,31.16c0.42-1.03,1.07-1.85,1.86-2.46c0.94-0.73,2.07-1.15,3.23-1.26c1.16-0.11,2.35,0.09,3.42,0.6 c0.34,0.16,0.66,0.35,0.97,0.58c0.45,0.38,0.68,0.67,0.83,0.9l0.69,1.04c0.58,0.89,3.58-1.15,5.44,3.88 c-0.02,0.02-0.04,0.04-0.06,0.06l0,0c0.08,0.41,0.12,0.83,0.12,1.24c-0.01,1.05-0.3,2.1-0.87,2.86c-0.38,0.5-0.86,0.91-1.44,1.24 c-0.56,0.31-1.21,0.55-1.94,0.72l-0.14,0.02H28.59l-0.08-0.01c-0.44-0.06-0.85-0.16-1.21-0.31c-0.27-0.11-0.53-0.25-0.76-0.42 c-0.61,0.3-1.3,0.54-2.05,0.71l-0.17,0.02H9.56l-0.09-0.01C8.93,40.5,8.44,40.37,8,40.19C7.54,40,7.14,39.76,6.78,39.45H6.77 c-0.34-0.28-0.64-0.6-0.89-0.95c-0.67-0.93-1.04-2.07-1.05-3.2c-0.01-1.14,0.35-2.28,1.11-3.2c0.25-0.3,0.54-0.57,0.88-0.82 c0.39-0.28,0.84-0.52,1.34-0.72c0.35-0.13,0.72-0.25,1.11-0.34c0.44-1.76,1.39-3.12,2.61-4.07c1.14-0.88,2.51-1.4,3.92-1.53 c1.41-0.13,2.85,0.1,4.15,0.73c0.41,0.2,0.8,0.43,1.18,0.7c0.55,0.47,0.83,0.82,1.01,1.09l0.83,1.27 C23.6,29.35,26.44,27.6,28.65,31.16L28.65,31.16z M22.28,30.64c-0.15,0.07-0.3,0.16-0.46,0.25c-0.45,0.27-0.9,0.59-1.36,0.97 l-0.98-1.12c0.34-0.31,0.7-0.6,1.09-0.85c0.31-0.2,0.63-0.38,0.96-0.53c0.13-0.07,0.27-0.13,0.4-0.19 c-0.64-1.14-1.57-1.96-2.62-2.46c-1.05-0.5-2.23-0.7-3.37-0.59c-1.14,0.11-2.24,0.52-3.16,1.23c-1.06,0.82-1.86,2.04-2.17,3.66 l-0.1,0.51l-0.5,0.09c-0.49,0.09-0.94,0.21-1.33,0.36c-0.38,0.15-0.71,0.32-1,0.54c-0.24,0.17-0.44,0.36-0.61,0.57 c-0.53,0.64-0.78,1.43-0.77,2.24c0.01,0.82,0.27,1.65,0.77,2.33c0.18,0.25,0.4,0.48,0.64,0.69v0c0.24,0.2,0.52,0.37,0.83,0.5 c0.31,0.13,0.65,0.22,1.03,0.27h14.65c0.71-0.17,1.34-0.4,1.88-0.7c0.53-0.3,0.96-0.66,1.29-1.09c0.5-0.67,0.75-1.62,0.76-2.6 c0.01-1.02-0.24-2.05-0.72-2.8c-0.14-0.21-0.29-0.41-0.45-0.58c-0.73-0.78-1.66-1.13-2.61-1.14 C23.68,30.17,22.96,30.34,22.28,30.64L22.28,30.64L22.28,30.64z M56.4,1.65c-0.14-0.24-0.06-0.54,0.18-0.67 c0.23-0.14,0.54-0.06,0.67,0.18l0.63,1.1c0.14,0.23,0.06,0.54-0.18,0.67c-0.24,0.14-0.54,0.06-0.67-0.18L56.4,1.65L56.4,1.65 L56.4,1.65z M59.94,0.49c0-0.27,0.22-0.49,0.49-0.49c0.27,0,0.49,0.22,0.49,0.49v1.27c0,0.27-0.22,0.49-0.49,0.49 c-0.27,0-0.49-0.22-0.49-0.49V0.49L59.94,0.49L59.94,0.49z M63.59,1.26c0.13-0.23,0.44-0.32,0.67-0.18 c0.23,0.13,0.32,0.44,0.18,0.67l-0.63,1.1c-0.14,0.24-0.44,0.32-0.67,0.18c-0.24-0.13-0.32-0.44-0.18-0.67L63.59,1.26L63.59,1.26 L63.59,1.26z M66.37,3.75c0.23-0.14,0.54-0.06,0.67,0.18c0.14,0.24,0.06,0.54-0.18,0.67l-1.1,0.63c-0.24,0.14-0.54,0.06-0.67-0.18 c-0.14-0.24-0.06-0.54,0.18-0.67L66.37,3.75L66.37,3.75L66.37,3.75z M67.53,7.3c0.27,0,0.49,0.22,0.49,0.49 c0,0.27-0.22,0.49-0.49,0.49h-1.27c-0.27,0-0.49-0.22-0.49-0.49c0-0.27,0.22-0.49,0.49-0.49H67.53L67.53,7.3L67.53,7.3z M66.76,10.95c0.24,0.13,0.32,0.44,0.18,0.67c-0.13,0.23-0.44,0.32-0.67,0.18l-1.1-0.63c-0.23-0.14-0.32-0.44-0.18-0.67 c0.13-0.23,0.44-0.32,0.67-0.18L66.76,10.95L66.76,10.95L66.76,10.95z M64.27,13.72c0.14,0.24,0.06,0.54-0.18,0.67 c-0.23,0.14-0.54,0.06-0.67-0.18l-0.63-1.1c-0.14-0.23-0.06-0.54,0.18-0.67c0.24-0.14,0.54-0.06,0.67,0.18L64.27,13.72L64.27,13.72 L64.27,13.72z M60.73,14.88c0,0.27-0.22,0.49-0.49,0.49c-0.27,0-0.49-0.22-0.49-0.49v-1.27c0-0.27,0.22-0.49,0.49-0.49 c0.27,0,0.49,0.22,0.49,0.49V14.88L60.73,14.88L60.73,14.88z M57.08,14.11c-0.14,0.23-0.44,0.32-0.67,0.18 c-0.24-0.14-0.32-0.44-0.18-0.67l0.63-1.1c0.14-0.24,0.44-0.32,0.67-0.18c0.24,0.14,0.32,0.44,0.18,0.67L57.08,14.11L57.08,14.11 L57.08,14.11z M54.3,11.62c-0.23,0.14-0.54,0.06-0.67-0.18c-0.14-0.24-0.06-0.54,0.18-0.67l1.1-0.63c0.23-0.14,0.54-0.06,0.67,0.18 c0.14,0.24,0.06,0.54-0.18,0.67L54.3,11.62L54.3,11.62L54.3,11.62z M53.14,8.08c-0.27,0-0.49-0.22-0.49-0.49 c0-0.27,0.22-0.49,0.49-0.49h1.27c0.27,0,0.49,0.22,0.49,0.49c0,0.27-0.22,0.49-0.49,0.49H53.14L53.14,8.08L53.14,8.08z M53.91,4.43c-0.24-0.13-0.32-0.44-0.18-0.67c0.14-0.24,0.44-0.32,0.67-0.18l1.1,0.63c0.23,0.14,0.32,0.44,0.18,0.67 c-0.14,0.24-0.44,0.32-0.67,0.18L53.91,4.43L53.91,4.43L53.91,4.43z M57.7,92.29h8.15V79.6c0-2.24-1.83-4.08-4.08-4.08h0 c-2.24,0-4.08,1.83-4.08,4.08V92.29L57.7,92.29z M71.2,92.29h8.15V79.6c0-2.24-1.83-4.08-4.08-4.08l0,0 c-2.24,0-4.08,1.83-4.08,4.08V92.29L71.2,92.29z M84.69,92.29h8.15V79.6c0-2.24-1.83-4.08-4.08-4.08l0,0 c-2.24,0-4.08,1.83-4.08,4.08V92.29L84.69,92.29z M98.19,92.29h8.15V79.6c0-2.24-1.83-4.08-4.08-4.08h0 c-2.24,0-4.08,1.83-4.08,4.08V92.29L98.19,92.29z M84.33,28.87c16.42,1.07,27.13,13.96,27.13,30.33H52.75 c0-16.31,10.63-29.16,26.95-30.32v-8.96h-5.68c-1.28,0-2.32-1.04-2.32-2.32c0-1.28,1.04-2.32,2.32-2.32h5.68V7.28 c0-1.28,1.04-2.32,2.32-2.32c1.28,0,2.32,1.04,2.32,2.32v7.99h5.68c1.28,0,2.32,1.04,2.32,2.32c0,1.28-1.04,2.32-2.32,2.32h-5.68 V28.87L84.33,28.87z"/></g></svg>