<?xml version="1.0" encoding="utf-8"?><svg version="1.1" id="Layer_1" xmlns="http://www.w3.org/2000/svg" xmlns:xlink="http://www.w3.org/1999/xlink" x="0px" y="0px" viewBox="0 0 56.16 122.88" style="enable-background:new 0 0 56.16 122.88" xml:space="preserve"><style type="text/css">.st0{fill-rule:evenodd;clip-rule:evenodd;}</style><g><path class="st0" d="M3.55,119.59h2.14v-0.47c0-1.55,1.27-2.82,2.82-2.82h2.71V3.61L13.64,0v20.05c25,23.9,39.47,61.7,32.44,96.18 v0.07h1.31c1.55,0,2.82,1.27,2.82,2.82v0.47h2.4c1.87,0,3.41,1.46,3.55,3.29H0C0.14,121.04,1.68,119.59,3.55,119.59L3.55,119.59z M16.21,115.16h25.95c0.11-0.73,0.22-1.46,0.32-2.18H16.21V115.16L16.21,115.16z M16.21,111.7h26.43c0.09-0.68,0.17-1.35,0.24-2.03 H16.21V111.7L16.21,111.7z M16.21,108.39h26.81c0.07-0.68,0.13-1.35,0.19-2.03h-27V108.39L16.21,108.39z M16.21,105.09h27.1 c0.05-0.68,0.1-1.35,0.13-2.03H16.21V105.09L16.21,105.09z M16.21,101.78h27.3c0.03-0.68,0.06-1.35,0.08-2.03H16.21V101.78 L16.21,101.78z M16.21,98.48h27.41c0.01-0.47,0.01-0.93,0.02-1.39H16.21V98.48L16.21,98.48z M16.21,90.82H43.5 c-0.03-0.68-0.08-1.35-0.12-2.03H16.21V90.82L16.21,90.82z M43.56,92.1H16.21v1.33H43.6C43.59,92.98,43.57,92.54,43.56,92.1 L43.56,92.1z M16.21,87.52h27.07c-0.06-0.68-0.12-1.35-0.19-2.03H16.21V87.52L16.21,87.52z M16.21,84.21h26.75 c-0.08-0.68-0.16-1.35-0.25-2.03H16.21V84.21L16.21,84.21z M16.21,80.91h26.31c-0.1-0.68-0.21-1.35-0.32-2.03H16.21V80.91 L16.21,80.91z M16.21,77.6h25.77c-0.13-0.72-0.27-1.44-0.42-2.15H16.21V77.6L16.21,77.6z M16.21,69.2h23.86 c-0.19-0.68-0.38-1.35-0.58-2.03H16.21V69.2L16.21,69.2z M40.4,70.48h-24.2v1.31h24.53C40.62,71.35,40.51,70.92,40.4,70.48 L40.4,70.48z M16.21,65.9H39.1c-0.21-0.68-0.43-1.35-0.65-2.03H16.21V65.9L16.21,65.9z M16.21,62.59h21.8 c-0.24-0.68-0.48-1.35-0.73-2.03H16.21V62.59L16.21,62.59z M16.21,59.29h20.59c-0.26-0.68-0.53-1.35-0.81-2.03H16.21V59.29 L16.21,59.29z M16.21,55.99h19.24c-0.16-0.37-0.31-0.73-0.48-1.1H16.21V55.99L16.21,55.99z M16.21,48.46H31.9 c-0.33-0.63-0.66-1.26-1-1.9H16.21V48.46L16.21,48.46z M32.56,49.75H16.21v1.48h17.08C33.05,50.74,32.81,50.24,32.56,49.75 L32.56,49.75z M16.21,45.27h8.28c-2.29-6.37-5.21-11.39-8.28-16.63V45.27L16.21,45.27z M27.32,45.27h2.87 c-1.61-2.89-3.37-5.77-5.28-8.63c-2.84-4.27-5.54-7.99-8.7-11.85v1.13C20.32,31.35,23.99,37.51,27.32,45.27L27.32,45.27z"/></g></svg>