<?xml version="1.0" encoding="utf-8"?><svg version="1.1" id="Layer_1" xmlns="http://www.w3.org/2000/svg" xmlns:xlink="http://www.w3.org/1999/xlink" x="0px" y="0px" viewBox="0 0 101.94 122.88" style="enable-background:new 0 0 101.94 122.88" xml:space="preserve"><style type="text/css">.st0{fill-rule:evenodd;clip-rule:evenodd;}</style><g><path class="st0" d="M34.93,18.85l10.8-2.03c0.02-2.86,0.09-5.66,0.34-8.17c0.17-1.74,0.43-3.07,0.83-4.53 c0.34-1.23,0.47-2.08,1.48-2.95c0.78-0.67,1.67-1.04,2.59-1.14c0.9-0.1,1.81,0.05,2.65,0.44c1.75,0.8,2.47,2.23,2.95,4.04 c0.8,3.01,0.53,9.41,0.2,12.47c8.64,0.52,14.27,3.79,21.32,3.33c3.18-0.21,6.79-0.9,10.35-1.66l-0.08,0.74 c1.75-0.78,3.49-1.54,5.1-2.06c0.76-0.25,5.45-1.67,4.06,0.46c0.62-0.04,1.24-0.1,1.87-0.16c1.11-0.1,1.52-0.39,2.27,0.51 c0.2,0.24,0.33,0.52,0.26,0.88c-0.15,0.73-1.38,1.42-1.98,1.79c-0.54,0.33-1.1,0.64-1.68,0.93c-2.94,0.67-6,1.11-9.09,1.48 c-1.16,3.61-2.99,7-5.02,10.18c-6.38-0.07-12.57,0.11-17.25,1.32l0.4,18.34l0.5,18.26l-1.55-0.09l-0.17,13.83l-1.29-0.17 l0.86,16.75h4.17v4.92h4.07v16.31H30.92v-16.29h4.82v-4.94H41l0.4-32.39l-1.45,0.28c-0.3-3.16-0.18-6.94,0-10.82 c-1.13-0.96-1.3-2.12-1.01-3.38c-0.1-0.24-0.28-0.42-0.54-0.54h-0.91l0.17-19.92c-2.59-0.11-5.27-0.47-8.02-0.99 c-2.64,0.55-5.66,0.97-9.07,1.19c-3.79-2.86-5.65-6.43-6.17-10.47h-2.49c-1.74,0.12-3.37,0.23-5.12,0.17 c-0.85-0.03-1.7-0.09-2.55-0.18c-1.52-0.13-2.76-0.6-3.71-1.44c-0.6-0.49-0.74-0.89-0.14-1.33c0.13-0.14,0.26-0.27,0.39-0.41 c0.76-0.79,0.78-0.47,1.93-0.49c0.79-0.01,1.76,0.01,2.59,0.05c-1.17-0.51-1.15-1.69-0.11-1.58c1.89-0.02,4.79-0.4,6.29,0.86 c0.44,0.37,0.78,0.88,0.96,1.56l14.37-0.7L34.93,18.85L34.93,18.85z"/></g></svg>