<svg xmlns="http://www.w3.org/2000/svg" shape-rendering="geometricPrecision" text-rendering="geometricPrecision" image-rendering="optimizeQuality" fill-rule="evenodd" clip-rule="evenodd" viewBox="0 0 45.96 367.9"><path d="M14.52 139.41h6.86V367.9H0c8.66-75.12 12.8-151.63 14.52-228.49zm-3.88-30.85v3.99l-5.69 5.21v.01h36.06v-.01l-5.69-5.21v-3.99h-8.21l-.18-5.35h.75c.25 0 .46-.2.46-.46v-4.54c0-.25-.21-.46-.46-.46h-.93l-.94-28.77h.6c1.5 0 2.73-1.23 2.73-2.74 0-1.5-1.23-2.73-2.73-2.73h-.54l-.11-27.34h-.68V21.94h-.68L24.07 0h-2.59l-.33 21.94h-.69v14.23h-.67l-.11 27.34h-.54a2.74 2.74 0 0 0-2.73 2.73c0 1.5 1.22 2.73 2.72 2.74l-.51 28.77h-.75c-.26 0-.46.21-.46.46v4.54c0 .26.21.46.46.46h.66l-.1 5.35h-7.79zm13.57 19.8v2.76h1.43l.5-2.76h-1.93zm-1.59 2.76v-2.76h-2.34l.5 2.76h1.84zm5.15-2.76-.5 2.76h2.67l.5-2.76h-2.67zm4.29 0-.5 2.76h2.67l.5-2.76h-2.67zm-12.91 2.76-.5-2.76h-2.67l.5 2.76h2.67zm-4.29 0-.5-2.76h-2.68l.51 2.76h2.67zm-9.91-10.59v2.32h36.06v-2.32H4.95zm0 3.12v3.11h36.06v-3.11H4.95zm1.33 4.71 2.3 2.76h1.98l-.5-2.76H6.28zm-.54 4.34c-1.15 2.07-.25 5.42 2.84 5.32h28.8c3.09.1 3.98-3.24 2.85-5.31H5.86c-.04 0-.08 0-.12-.01zm31.64-1.58 2.3-2.76h-3.32l-.5 2.76h1.52zm-12.8 8.29h6.34c2.03 76.89 6.66 153.34 15.04 228.49H24.58V139.41z"/></svg>