<?xml version="1.0" encoding="utf-8"?><svg version="1.1" id="Layer_1" xmlns="http://www.w3.org/2000/svg" xmlns:xlink="http://www.w3.org/1999/xlink" x="0px" y="0px" viewBox="0 0 122.88 50.62" style="enable-background:new 0 0 122.88 50.62" xml:space="preserve"><style type="text/css">.st0{fill-rule:evenodd;clip-rule:evenodd;}</style><g><path class="st0" d="M27.37,17.31L0,50.53h16.64l15.81-18.67L27.37,17.31L27.37,17.31z M33.54,30.58l3-3.54l-7.56-9.49L33.54,30.58 L33.54,30.58z M54.65,50.62l19.37-23.37L61.41,0L19.16,50.62H54.65L54.65,50.62z M75.05,26.01l4.56-5.5L63.41,0.86L75.05,26.01 L75.05,26.01z M88.83,11.94L57.21,50.51h49.37L88.83,11.94L88.83,11.94z M108.07,50.51h14.81L90.72,12.58l17.29,37.55 C108.07,50.25,108.09,50.38,108.07,50.51L108.07,50.51z"/></g></svg>