<?xml version="1.0" encoding="utf-8"?><svg version="1.1" id="Layer_1" xmlns="http://www.w3.org/2000/svg" xmlns:xlink="http://www.w3.org/1999/xlink" x="0px" y="0px" viewBox="0 0 121.79 122.88" style="enable-background:new 0 0 121.79 122.88" xml:space="preserve"><style type="text/css">.st0{fill-rule:evenodd;clip-rule:evenodd;}</style><g><path class="st0" d="M99.92,19.91V1.65c0-0.91,0.74-1.65,1.65-1.65c0.32,0,0.62,0.09,0.88,0.25l9.76,5.15 c0.8,0.42,1.11,1.42,0.69,2.23C112.7,8,112.37,8.27,112,8.4l-8.78,3.8v7.7h2.13c0.91,0,1.65,0.74,1.65,1.65v4h3.85v-4 c0-0.91,0.74-1.65,1.65-1.65h7.63c0.91,0,1.65,0.74,1.65,1.65V73.8c0,0.91-0.74,1.65-1.65,1.65h-7.87 c-4.76,13.64-12.68,25.17-23.66,33.47c-10.59,8.01-24,12.99-40.16,13.96c-0.44,0.03-0.84-0.12-1.16-0.38h-8.98 c-0.54,0-0.97-0.43-0.97-0.97v-9.85c0-3.36-1.38-6.42-3.59-8.64c-2.22-2.21-5.27-3.59-8.64-3.59c-3.36,0-6.42,1.38-8.64,3.59 c-2.21,2.22-3.59,5.27-3.59,8.64v9.85c0,0.54-0.43,0.97-0.97,0.97H0.97c-0.54,0-0.97-0.43-0.97-0.97V79.6 c0-0.54,0.43-0.97,0.97-0.97h9.6c0.54,0,0.97,0.43,0.97,0.97v6.58h7.98V79.6c0-0.54,0.43-0.97,0.97-0.97h9.63 c0.54,0,0.97,0.43,0.97,0.97v6.58h7.75V79.6c0-0.54,0.43-0.97,0.97-0.97h9.37c0.54,0,0.97,0.43,0.97,0.97v9.27 c10.55-1.03,21.42-5.42,29.97-13.19c-18.4-3.34-22.19-10.93-25.86-18.26c-2.72-5.45-5.37-10.75-15.31-13.55h-26.3 c-0.91,0-1.65-0.74-1.65-1.65V8.28c0-0.91,0.74-1.65,1.65-1.65h9.42c0.91,0,1.65,0.74,1.65,1.65v3.1h5.18v-3.1 c0-0.91,0.74-1.65,1.65-1.65h8.48c0.91,0,1.65,0.74,1.65,1.65V24.3c15.31,0.95,21.91,7.6,27.29,13.03 c3.96,3.99,7.21,7.27,13.03,6.69l-0.12-22.45c0-0.91,0.73-1.65,1.64-1.65l8.09-0.01c0.91,0,1.65,0.74,1.65,1.65v4h4.11v-4 c0-0.91,0.74-1.65,1.65-1.65H99.92L99.92,19.91z M50.15,119.45c14.62-1.19,26.8-5.86,36.47-13.17 c10.7-8.09,18.35-19.43,22.87-32.88c0.14-0.55,0.55-0.99,1.08-1.17l-1.22-9.64l-0.81-0.13c-9.8,19.04-31.94,30.17-58.39,31.29 V119.45L50.15,119.45z M40.69,40.95c10.66,3.24,13.55,9.03,16.53,14.99c3.33,6.66,6.78,13.57,23.94,16.58l-0.11-20 c-10.43-1.89-13.41-6.28-16.71-11.15c-3.6-5.31-7.62-11.23-23.65-14.83V40.95L40.69,40.95z M26,18.01L26,18.01 c2.85,0,5.17,2.33,5.17,5.17v4.76H20.83v-4.76C20.83,20.33,23.15,18.01,26,18.01L26,18.01z M20.42,9.93H14.3v30.63h23.08V9.93H32.2 v3.1c0,0.91-0.74,1.65-1.65,1.65h-8.48c-0.91,0-1.65-0.74-1.65-1.65V9.93L20.42,9.93z M112.59,72.15h5.9V23.21h-4.32v4 c0,0.91-0.74,1.65-1.65,1.65h-7.16c-0.91,0-1.65-0.74-1.65-1.65v-4h-4.03v4c0,0.91-0.74,1.65-1.65,1.65h-7.41 c-0.91,0-1.65-0.74-1.65-1.65v-4h-4.77l0.26,48.01c2.84-3.33,5.3-7.13,7.23-11.39l-0.21-0.03V49.14c0-5.85,4.78-10.63,10.63-10.63 l0,0c5.85,0,10.49,4.79,10.49,10.63V72.15L112.59,72.15z M103.22,4.39v4.24l4.41-1.91L103.22,4.39L103.22,4.39z"/></g></svg>