<?xml version="1.0" encoding="utf-8"?><svg version="1.1" id="Layer_1" xmlns="http://www.w3.org/2000/svg" xmlns:xlink="http://www.w3.org/1999/xlink" x="0px" y="0px" viewBox="0 0 122.88 108.86" style="enable-background:new 0 0 122.88 108.86" xml:space="preserve"><g><path d="M1.32,0.16C21.3,6.04,41.58,8.83,61.55,8.72C81.51,8.6,102.31,5.44,122.36,0l0.52,7.55c-2.53,0.68-5.04,1.33-7.55,1.93 l0.48,4.1c-2.91,0.72-5.75,1.39-8.54,2.01l0.48,3.36c-5.95,0.89-11.31,1.67-16.25,2.33v6.86h-3.54v12.22h2.06v5.48h-2.06v0.05 h17.26v3.5H87.97v29.13h2.06v8.54h-1.33c-0.19,7.53,0.41,14.87,2.7,21.8H78.53c2.06-7.06,2.68-14.39,2.86-21.8h-1.75v-8.54h2.11 V49.39H35.29v29.13h2.11v8.54h-1.75c0.17,7.42,0.8,14.74,2.86,21.8H25.63c2.29-6.93,2.89-14.27,2.7-21.8H27v-8.54h2.06V49.39H17.2 v-3.5h11.87v-0.05H27v-5.48h2.06V28.15h-3.54v-7.26c-3.19-0.48-6.56-1.03-10.15-1.64l0.44-3.53c-2.6-0.65-5.24-1.35-7.93-2.12 l0.44-4.07C5.55,8.83,2.78,8.07,0,7.25L1.32,0.16L1.32,0.16z M81.75,45.89v-0.05h-2.11v-5.48h2.11V28.15h-3.33v-5.32 c-2.52,0.25-4.94,0.45-7.3,0.61v16.81c0,1.2-0.97,2.17-2.17,2.17H53.93c-1.2,0-2.17-0.97-2.17-2.17V23.69 c-4.2-0.19-8.51-0.54-13.15-1.05v5.51h-3.33v12.22h2.11v5.48h-2.11v0.05H81.75L81.75,45.89z M66.78,25.14H56.1v12.94h10.69V25.14 L66.78,25.14z"/></g></svg>