<?xml version="1.0" encoding="utf-8"?><svg version="1.1" id="Layer_1" xmlns="http://www.w3.org/2000/svg" xmlns:xlink="http://www.w3.org/1999/xlink" x="0px" y="0px" viewBox="0 0 99.56 122.88" style="enable-background:new 0 0 99.56 122.88" xml:space="preserve"><g><path d="M47.98,48.48c0.25-1.14,0.55-2.24,0.91-3.3c0.44-1.28,0.97-2.46,1.6-3.53l0.2-0.32c-1.76-0.32-3.12-1.05-4.03-1.98 c-0.68-0.69-1.13-1.49-1.34-2.32c-0.22-0.86-0.18-1.75,0.13-2.61c0.52-1.45,1.81-2.73,3.89-3.39c1.17-0.38,2.39-0.44,3.61-0.51 c2.08-0.12,4.15-0.23,4.71-2.54c0.05-0.2,0.04-0.37-0.01-0.52v-0.01c-0.08-0.24-0.29-0.48-0.57-0.69L57,26.73 c-0.42-0.29-0.97-0.52-1.58-0.67c-1.14-0.28-2.45-0.27-3.56,0.09c-0.08,0.03-0.16,0.05-0.24,0.07c-0.94,0.18-1.78,0.41-2.52,0.6 c-1.69,0.46-2.9,0.78-4.33,0.33c-1.92-0.62-3.69-2.53-4.49-4.76c-0.4-1.12-0.57-2.34-0.41-3.54l0.01-0.05 c0.18-1.26,0.72-2.47,1.72-3.52c1.57-1.62,4.28-2.79,8.57-2.89c0.47-1,1.04-1.88,1.7-2.66c0.92-1.08,2-1.95,3.18-2.6 c0.82-0.45,1.65-0.81,2.48-1.06c2.87-3.77,7.24-5.68,11.92-6.01C74.5-0.31,79.94,1.17,84.26,4.1c8.78,5.95,9.06,15.48,9.35,25.14 c0.12,4.12,0.25,8.27,1.08,12.09c0.63,2.9,1.78,5.49,2.96,8.16c0.39,0.88,0.78,1.77,1.18,2.72c0.26,0.62,0.05,1.32-0.46,1.71 c-0.76,0.64-2.17,1.63-3.89,2.55c0.37,1.75,0.85,3.49,1.52,5.25c0.79,2.07,1.83,4.13,3.24,6.18l0.08,0.1 c0.44,0.67,0.25,1.58-0.42,2.02c-1.72,1.13-3.42,2.01-5.31,2.71c0.91,6.65,1.54,13.25,1.48,19.39c-0.07,6.6-0.96,12.67-3.21,17.7 c-1.88,4.21-4.61,7.33-7.81,9.47c-3.51,2.34-7.59,3.49-11.76,3.58c-1.24,0.03-2.47-0.02-3.66-0.15 c-6.08-0.63-11.66-3.14-15.76-7.06c-4.14-3.96-6.77-9.33-6.9-15.66c-0.02-1.01,0.02-2.03,0.13-3.06c0.21-2.02,0.71-4.06,1.2-6.11 c0.37-1.52,0.74-3.05,0.99-4.55c0.8-4.91-0.04-10.64-1.78-16.11c-2.02-6.34-5.24-12.27-8.52-16.11c-0.45-0.53-0.46-1.29-0.06-1.82 c1.27-1.81,2.97-3,4.84-3.6c1.45-0.46,2.99-0.57,4.5-0.32C47.49,48.37,47.74,48.42,47.98,48.48L47.98,48.48z M74.14,112.99 c-0.11-0.79,0.45-1.53,1.24-1.64c0.8-0.11,1.53,0.45,1.64,1.24c0.25,1.77-0.5,2.89-1.63,3.5c-0.68,0.37-1.5,0.5-2.27,0.44 c-0.66-0.05-1.31-0.25-1.85-0.57c-0.54,0.31-1.2,0.51-1.85,0.57c-0.77,0.06-1.58-0.07-2.27-0.44c-1.13-0.61-1.88-1.73-1.63-3.5 c0.11-0.8,0.85-1.35,1.64-1.24c0.8,0.11,1.35,0.84,1.24,1.64c-0.04,0.32,0.02,0.48,0.13,0.54c0.17,0.09,0.41,0.12,0.66,0.1 c0.22-0.02,0.43-0.07,0.58-0.15c-0.1-0.68,0.3-1.36,0.98-1.59c0.17-0.06,0.35-0.08,0.52-0.07c0.17-0.01,0.35,0.02,0.52,0.07 c0.68,0.22,1.08,0.9,0.98,1.59c0.15,0.08,0.36,0.13,0.58,0.15c0.25,0.02,0.49-0.01,0.66-0.1 C74.12,113.47,74.18,113.31,74.14,112.99L74.14,112.99z M51.48,82.13c0.35,0.04,0.7,0.08,1.04,0.13c-0.35-4.4-0.44-9.02-0.29-13.67 c0.12-4.01,0.41-8.04,0.84-11.96c-0.69-1.85-1.83-3.24-3.17-4.17c-0.96-0.66-2.02-1.09-3.1-1.26c-1.07-0.17-2.16-0.1-3.17,0.22 c-0.99,0.32-1.91,0.88-2.69,1.7c3.24,4.09,6.33,9.97,8.31,16.19C50.6,73.54,51.45,77.97,51.48,82.13L51.48,82.13z M55.49,82.87 l0.1,0.03c0.7-4.3,1.62-8.68,2.78-12.27c0.99-3.07,2.19-5.6,3.62-7.1c0.05-0.93-0.12-1.77-0.43-2.51 c-0.39-0.91-1.02-1.67-1.77-2.23c-0.75-0.56-1.63-0.92-2.49-1.04c-0.48-0.06-0.96-0.05-1.42,0.05c-0.38,3.59-0.63,7.24-0.74,10.87 C54.98,73.51,55.08,78.32,55.49,82.87L55.49,82.87z M58.36,84.01l0.08,0.04c0.86-1.51,2.02-3.36,3.62-5.14 c1.65-1.84,3.73-3.6,6.39-4.83c0.06-0.26,0.11-0.53,0.15-0.8c0.27-1.8-0.03-3.43-0.79-4.71c-0.4-0.67-0.93-1.26-1.58-1.73 c-0.28-0.08-0.53-0.23-0.71-0.45c-0.38-0.2-0.79-0.38-1.23-0.51c-0.13-0.04-0.28-0.08-0.42-0.11c-1,1.17-1.92,3.22-2.73,5.74 C59.98,75.11,59.06,79.61,58.36,84.01L58.36,84.01z M60.82,85.76l0.03,0.03c2.05-0.91,4.11-1.45,6.16-1.62 c1.97-0.17,3.93,0,5.88,0.51c0.57-1.18,0.56-2.32,0.11-3.45c-0.58-1.44-1.85-2.9-3.56-4.39c-2.14,1.04-3.85,2.49-5.21,4.01 C62.72,82.54,61.62,84.33,60.82,85.76L60.82,85.76z M62.81,88.12c0.33,0.5,0.64,1.03,0.94,1.6c0.37,0.71,0.09,1.59-0.63,1.96 c-0.71,0.36-1.58,0.09-1.95-0.61c-0.55,0.33-0.95,0.72-1.2,1.13c-0.26,0.42-0.38,0.87-0.38,1.34c0,0.51,0.13,1.05,0.38,1.58 c0.45,0.96,1.27,1.86,2.35,2.53c1.27,0.79,2.85,1.22,4.46,1.05c1.38-0.14,2.8-0.74,4.09-1.94c0.55-0.52,1.04-1.11,1.44-1.75 c0.39-0.63,0.71-1.32,0.92-2.06c0.26-0.88,0.34-1.83,0.19-2.83c-0.12-0.8-0.4-1.64-0.86-2.52c-1.76-0.51-3.53-0.69-5.32-0.54 C65.77,87.2,64.29,87.55,62.81,88.12L62.81,88.12z M59.56,88.65c-0.81-0.94-1.73-1.64-2.75-2.17c-1.53-0.79-3.35-1.21-5.46-1.44 c-0.05,0.58-0.13,1.15-0.22,1.71c-0.26,1.59-0.65,3.18-1.03,4.77c-0.2,0.83-0.4,1.65-0.58,2.47c0.31-0.35,0.79-0.54,1.28-0.47 c0.8,0.11,1.35,0.85,1.24,1.64c-0.04,0.32,0.02,0.48,0.13,0.54c0.17,0.09,0.41,0.12,0.66,0.1c0.22-0.02,0.43-0.07,0.58-0.15 c-0.1-0.68,0.3-1.36,0.98-1.59c0.76-0.25,1.58,0.16,1.83,0.92c0.43,1.29-0.1,2.33-1.09,3.01c-0.58,0.4-1.33,0.65-2.08,0.71 c-0.77,0.06-1.58-0.07-2.27-0.44c-0.86-0.46-1.5-1.23-1.65-2.36c-0.07,0.45-0.14,0.9-0.18,1.34c-0.1,0.93-0.13,1.84-0.11,2.71 c0.12,5.49,2.41,10.16,6,13.6c3.64,3.48,8.61,5.71,14.05,6.27c1.1,0.11,2.2,0.16,3.31,0.14c3.63-0.08,7.17-1.07,10.2-3.09 c2.77-1.85,5.13-4.56,6.77-8.24c2.07-4.63,2.89-10.31,2.96-16.54c0.06-5.82-0.53-12.13-1.39-18.51c-2.93,0.72-6.42,1.11-11.08,1.29 c-0.7,0.03-1.34-0.45-1.48-1.16c-1.15-5.59-1.83-11.79-2.08-17.86c-1,0.16-2.07,0.27-3.23,0.3c-1.43,0.03-2.98-0.08-4.71-0.42 c-0.33,3.04-0.4,6.04-0.19,8.8c0.94,0.7,1.72,1.56,2.31,2.55c1.11,1.86,1.55,4.15,1.18,6.63c-0.04,0.29-0.1,0.6-0.17,0.91 c2.06,1.78,3.61,3.61,4.38,5.51c0.85,2.09,0.8,4.19-0.45,6.32c0.55,1.1,0.89,2.18,1.05,3.23c0.23,1.45,0.11,2.83-0.27,4.09 c-0.29,0.98-0.71,1.91-1.24,2.76c-0.54,0.88-1.2,1.67-1.93,2.36c-1.79,1.67-3.8,2.5-5.78,2.7c-2.27,0.23-4.49-0.37-6.28-1.47 c-1.56-0.96-2.77-2.3-3.45-3.76c-0.43-0.91-0.66-1.87-0.66-2.82c0-1,0.26-1.98,0.81-2.87C57.98,89.92,58.65,89.22,59.56,88.65 L59.56,88.65z M77.18,102.75c0.11-0.79,0.84-1.35,1.64-1.24s1.35,0.84,1.24,1.64c-0.04,0.32,0.02,0.48,0.13,0.54 c0.17,0.09,0.41,0.12,0.66,0.1c0.23-0.02,0.43-0.07,0.58-0.15c-0.1-0.68,0.3-1.36,0.98-1.59c0.76-0.25,1.58,0.16,1.83,0.92 c0.43,1.29-0.1,2.33-1.09,3.01c-0.58,0.4-1.33,0.65-2.08,0.71c-0.77,0.06-1.58-0.07-2.27-0.44 C77.69,105.64,76.93,104.52,77.18,102.75L77.18,102.75z M55.09,103.61c0.11-0.8,0.84-1.35,1.64-1.24c0.79,0.11,1.35,0.84,1.24,1.64 c-0.04,0.32,0.02,0.48,0.13,0.54c0.17,0.09,0.41,0.12,0.66,0.1c0.22-0.02,0.43-0.07,0.58-0.15c-0.1-0.68,0.3-1.36,0.98-1.59 c0.76-0.25,1.58,0.16,1.83,0.92c0.43,1.29-0.1,2.33-1.09,3.01c-0.58,0.4-1.33,0.65-2.08,0.71c-0.77,0.06-1.58-0.07-2.26-0.44 C55.6,106.5,54.84,105.38,55.09,103.61L55.09,103.61z M68.4,103.49c0.11-0.8,0.84-1.35,1.64-1.24c0.8,0.11,1.35,0.84,1.24,1.64 c-0.04,0.32,0.02,0.48,0.13,0.54c0.17,0.09,0.41,0.12,0.66,0.1c0.23-0.02,0.43-0.07,0.58-0.15c-0.1-0.68,0.3-1.36,0.98-1.59 c0.76-0.25,1.58,0.16,1.83,0.92c0.43,1.29-0.1,2.33-1.09,3.01c-0.58,0.4-1.33,0.65-2.08,0.71c-0.77,0.06-1.58-0.07-2.27-0.44 C68.9,106.38,68.15,105.26,68.4,103.49L68.4,103.49z M85.98,93.76c-0.11-0.8,0.45-1.53,1.24-1.64c0.8-0.11,1.53,0.45,1.64,1.24 c0.25,1.77-0.5,2.89-1.63,3.5c-0.68,0.37-1.5,0.5-2.26,0.44c-0.66-0.05-1.31-0.25-1.85-0.57c-0.54,0.31-1.2,0.51-1.85,0.57 c-0.77,0.06-1.58-0.07-2.27-0.44c-1.13-0.61-1.88-1.73-1.63-3.5c0.11-0.8,0.84-1.35,1.64-1.24c0.8,0.11,1.35,0.84,1.24,1.64 c-0.04,0.32,0.02,0.48,0.13,0.54c0.17,0.09,0.41,0.12,0.66,0.1c0.23-0.02,0.43-0.07,0.58-0.15c-0.1-0.68,0.3-1.36,0.98-1.59 c0.17-0.06,0.35-0.08,0.52-0.07c0.17-0.01,0.35,0.02,0.52,0.07c0.68,0.22,1.08,0.9,0.98,1.59c0.15,0.08,0.36,0.13,0.58,0.15 c0.25,0.02,0.49-0.01,0.66-0.1C85.96,94.24,86.03,94.08,85.98,93.76L85.98,93.76z M81.8,87.54c-0.32-0.74,0.02-1.59,0.75-1.91 c0.74-0.32,1.59,0.02,1.91,0.75c0.06,0.15,0.21,0.25,0.37,0.3l0,0c0.19,0.06,0.41,0.07,0.64,0.04c0.2-0.03,0.37-0.09,0.49-0.18 c0.05-0.04,0.09-0.09,0.09-0.14c0.06-0.8,0.76-1.4,1.56-1.34s1.4,0.76,1.34,1.56c-0.07,0.95-0.54,1.7-1.22,2.22 c-0.53,0.41-1.18,0.67-1.85,0.77c-0.65,0.1-1.34,0.04-1.98-0.17C83.02,89.13,82.23,88.51,81.8,87.54L81.8,87.54z M79.72,79.54 c0.11-0.8,0.84-1.35,1.64-1.24c0.79,0.11,1.35,0.84,1.24,1.64c-0.04,0.32,0.02,0.48,0.13,0.54c0.17,0.09,0.41,0.12,0.66,0.1 c0.23-0.02,0.43-0.07,0.58-0.15c-0.1-0.68,0.3-1.36,0.98-1.59c0.76-0.25,1.58,0.16,1.83,0.92c0.43,1.29-0.1,2.33-1.09,3.01 c-0.58,0.4-1.33,0.65-2.08,0.71c-0.77,0.06-1.58-0.07-2.26-0.44C80.22,82.44,79.47,81.31,79.72,79.54L79.72,79.54z M41.27,34.62 c0.75-0.27,1.59,0.12,1.86,0.88s-0.12,1.59-0.88,1.86c-9.46,3.41-15.68,8.58-19.83,14.53c-4.17,5.97-6.28,12.76-7.5,19.34 c-0.14,0.79-0.9,1.31-1.69,1.17c-0.79-0.14-1.31-0.9-1.17-1.69c1.29-6.92,3.53-14.1,7.98-20.48 C24.51,43.82,31.17,38.26,41.27,34.62L41.27,34.62z M39.76,27.42c0.78-0.19,1.57,0.29,1.76,1.07c0.19,0.78-0.29,1.57-1.07,1.76 c-9.27,2.3-16.9,6.13-23.09,11.27C11.17,46.66,6.38,53.14,2.77,60.75c-0.34,0.73-1.21,1.04-1.94,0.69s-1.04-1.21-0.69-1.94 c3.78-7.98,8.82-14.8,15.36-20.23C22.04,33.86,30.05,29.83,39.76,27.42L39.76,27.42z M58.1,11.96c1.56-0.3,4.82,0.28,5.16,2.02 c0.15,0.78-1.07,0.88-2.41,0.83l0,0.05c0,0.93-0.75,1.68-1.68,1.68c-0.93,0-1.68-0.75-1.68-1.68c0-0.07,0-0.14,0.01-0.21 c-0.54-0.11-0.89-0.32-1.06-0.61C55.68,12.79,57.11,12.15,58.1,11.96L58.1,11.96z M53.69,51.72c0.01-0.04,0.01-0.09,0.02-0.13 c0.32-1.68,0.78-3.28,1.41-4.8c1.26-3.04,3.2-5.72,6.02-7.94c0.63-0.5,1.55-0.39,2.04,0.24c0.5,0.63,0.39,1.55-0.25,2.04 c-2.4,1.89-4.05,4.18-5.13,6.77c-0.55,1.33-0.96,2.74-1.24,4.22c-0.13,0.89-0.25,1.79-0.36,2.69c0.48-0.03,0.96-0.02,1.45,0.05 c1.37,0.18,2.71,0.73,3.86,1.58c1.15,0.86,2.12,2.02,2.72,3.43c0.41,0.95,0.65,2.02,0.67,3.16l0.1,0.03 c-0.14-3.66,0.16-7.62,0.82-11.47c0.82-4.76,2.2-9.38,4-13.11c0.35-0.72,1.22-1.03,1.94-0.68c0.72,0.35,1.03,1.22,0.68,1.94 c-1.69,3.48-2.98,7.84-3.75,12.34c-0.04,0.25-0.08,0.5-0.12,0.75c1.58,0.32,2.99,0.43,4.27,0.4c1.12-0.02,2.18-0.15,3.2-0.33 c-0.02-0.89-0.03-1.78-0.03-2.66c0-8.21,0.79-15.74,2.24-20.6c0.23-0.77,1.04-1.21,1.81-0.98s1.21,1.04,0.98,1.81 c-1.38,4.61-2.13,11.84-2.13,19.77c0,1.23,0.02,2.47,0.05,3.72c0.01,0.08,0.01,0.15,0.01,0.22c0.18,5.96,0.78,12.12,1.84,17.72 c3.9-0.2,6.89-0.56,9.4-1.2c2.19-0.55,4.04-1.32,5.84-2.37c-1.17-1.87-2.07-3.73-2.78-5.59c-0.64-1.67-1.12-3.35-1.5-5.03 c-1.77,0.69-3.69,1.18-5.52,1.16c-0.71-0.01-1.3-0.53-1.42-1.21l0,0c-0.68-3.98-1.11-7.94-1.29-11.88 c-0.18-3.94-0.12-7.82,0.18-11.66c0.06-0.8,0.76-1.4,1.56-1.34c0.8,0.06,1.4,0.76,1.34,1.56c-0.29,3.75-0.35,7.53-0.18,11.32 c0.15,3.37,0.5,6.78,1.04,10.22c1.19-0.16,2.43-0.55,3.61-1.04c1.86-0.77,3.52-1.78,4.6-2.56c-0.24-0.55-0.48-1.1-0.72-1.65 c-1.24-2.81-2.45-5.53-3.14-8.72c-0.88-4.04-1.01-8.34-1.14-12.62c-0.26-8.91-0.53-17.7-8.07-22.82c-0.41-0.27-0.82-0.54-1.25-0.78 c0.4,0.42,0.78,0.87,1.13,1.35c3.13,4.13,4.72,10.05,4.09,16.61c-0.06,0.65-0.64,1.13-1.3,1.07c-0.65-0.06-1.13-0.64-1.07-1.3 c0.57-5.96-0.84-11.29-3.62-14.96c-1.07-1.42-2.35-2.58-3.8-3.43c-1.44-0.84-3.04-1.38-4.79-1.54c-0.87-0.08-1.77-0.07-2.7,0.03 c6.45,1.58,8.76,6.37,9.1,11.83c0.33,5.33-1.28,11.28-2.59,15.22c-0.21,0.62-0.88,0.96-1.5,0.75c-0.62-0.21-0.96-0.88-0.75-1.5 c1.25-3.75,2.78-9.38,2.47-14.33c-0.29-4.63-2.27-8.67-7.9-9.79c-1.25-0.25-2.76-0.3-4.29,0.01c1.07,0.22,2.08,0.56,3.01,1L67,6.8 c0.29,0.14,0.57,0.3,0.86,0.46c3.23,1.91,4.74,4.84,5.07,8.07c0.31,3.02-0.46,6.28-1.83,9.13l-0.05,0.12 c-0.24,0.49-0.5,0.97-0.78,1.45c-1.03,1.74-2.31,3.37-3.72,4.87c-1.39,1.49-2.9,2.84-4.39,4.04c-0.91,0.73-1.8,1.41-2.66,2.07 c-1.8,1.37-3.48,2.66-4.78,3.98l-0.08,0.08c-0.66,0.67-1.21,1.36-1.63,2.07c-0.54,0.91-0.99,1.92-1.36,2.99 c-0.36,1.05-0.66,2.21-0.91,3.43c0.28,0.16,0.55,0.33,0.82,0.51c0.76,0.52,1.46,1.15,2.1,1.89L53.69,51.72L53.69,51.72L53.69,51.72 z M56.57,52.13L56.57,52.13L56.57,52.13L56.57,52.13z M85.25,26.9c0.9,0,1.62,0.73,1.62,1.62c0,0.9-0.73,1.62-1.62,1.62 c-0.9,0-1.62-0.73-1.62-1.62C83.63,27.63,84.35,26.9,85.25,26.9L85.25,26.9z M66.17,35.71c0.9,0,1.63,0.73,1.63,1.62 s-0.73,1.62-1.63,1.62c-0.9,0-1.62-0.73-1.62-1.62S65.28,35.71,66.17,35.71L66.17,35.71z M53,38.58c1.37-1.32,3-2.57,4.72-3.89 c0.86-0.65,1.74-1.33,2.6-2.02c1.42-1.15,2.83-2.4,4.1-3.76c1.25-1.34,2.4-2.8,3.33-4.37c0.23-0.39,0.46-0.81,0.67-1.24l0.06-0.11 c1.15-2.4,1.8-5.11,1.55-7.58c-0.24-2.34-1.33-4.47-3.66-5.84c-0.2-0.12-0.41-0.23-0.65-0.35l-0.1-0.06 c-1.33-0.63-2.91-1.01-4.58-0.96c-1.49,0.04-3.06,0.42-4.58,1.27c-0.88,0.49-1.68,1.13-2.37,1.94c-0.65,0.77-1.2,1.68-1.6,2.74 c-0.23,0.61-0.83,0.98-1.46,0.94c-3.9-0.04-6.17,0.8-7.34,2.01c-0.55,0.57-0.84,1.23-0.94,1.91l-0.01,0.04 c-0.09,0.71,0.02,1.46,0.27,2.16c0.51,1.43,1.55,2.62,2.63,2.97c0.6,0.19,1.47-0.04,2.69-0.37c0.74-0.2,1.59-0.43,2.65-0.63 c1.62-0.52,3.49-0.53,5.11-0.14c0.96,0.23,1.85,0.61,2.57,1.11l0.09,0.07c0.77,0.56,1.35,1.28,1.63,2.13 c0.22,0.66,0.26,1.37,0.08,2.13c-1.07,4.41-4.21,4.58-7.38,4.76c-1.04,0.06-2.07,0.11-2.88,0.37c-1.14,0.37-1.81,0.96-2.04,1.61 c-0.11,0.29-0.12,0.61-0.04,0.92c0.09,0.34,0.28,0.67,0.58,0.98C49.5,38.1,50.93,38.65,53,38.58L53,38.58z"/></g></svg>