<svg xmlns="http://www.w3.org/2000/svg" viewBox="0 0 19405.45 12936.97" shape-rendering="geometricPrecision" text-rendering="geometricPrecision" image-rendering="optimizeQuality" fill-rule="evenodd" clip-rule="evenodd"><defs><clipPath id="id0"><path d="M0 0h19405.45v12936.97H0V0z"/></clipPath><style>.fil3{fill:none}.fil2{fill:#000}.fil4{fill:#face33}</style></defs><g id="Layer_x0020_1"><path fill="#003580" d="M0 12936.97V0h19405.45z"/><path fill="#009543" d="M19405.45 0v12936.97H0z"/><g clip-path="url(#id0)"><path class="fil2" d="M0 12936.97L19405.45 0 0 12936.97zm0 0z"/><path id="1" class="fil3" d="M0 12936.97L19405.45 0M0 12936.97h0z" stroke="#fff" stroke-width="4312.33" stroke-miterlimit="22.926"/><g><path class="fil2" d="M0 12936.97L19405.45 0 0 12936.97zm0 0z"/><path id="1" class="fil3" d="M0 12936.97L19405.45 0M0 12936.97h0z" stroke="#d21034" stroke-width="3234.24" stroke-miterlimit="22.926"/></g></g><path class="fil3" d="M0 0h19405.45v12936.97H0z"/><path class="fil4" d="M3881.09 1367.33l334.2 905.59 743.88-616.66-163.87 953.02 953.03-163.86-616.67 743.87 905.59 334.2-905.59 334.2 616.67 743.88-953.03-163.87 163.87 953.03-743.88-616.67-334.2 905.59-334.2-905.59-743.88 616.67 163.86-953.03-953.02 163.87 616.66-743.88-905.59-334.2 905.59-334.2-616.66-743.87 953.02 163.86-163.86-953.02 743.87 616.66z"/><circle class="fil4" cx="3881.09" cy="3523.49" r="1185.89" stroke="#003580" stroke-width="215.61" stroke-miterlimit="22.926"/></g></svg>