<?xml version="1.0" encoding="utf-8"?><svg version="1.1" id="Layer_1" xmlns="http://www.w3.org/2000/svg" xmlns:xlink="http://www.w3.org/1999/xlink" x="0px" y="0px" viewBox="0 0 122.88 46.23" style="enable-background:new 0 0 122.88 46.23" xml:space="preserve"><style type="text/css">.st0{fill-rule:evenodd;clip-rule:evenodd;}</style><g><path class="st0" d="M0,39.24h122.88v6.98H0V39.24L0,39.24z M37.21,36.86H20.95c-2.41-9.67-7.33-15.69-13.46-19.87 c1.52,2.78,2.72,16.77,3.4,19.85l-3.75,0.01C7,34.48,5.96,17.93,4.72,15.42c5.46,0.21,10.69,1.4,15.65,4.09 c-0.24-3.34-1.99-9.1-3.69-12.54c8.24,0.32,16.11,2.24,23.53,6.68l-5.66-13.6c16.77-0.73,31.34,7.9,42.4,20.13 c2.5,2.76,4.8,5.83,6.83,9.33c3.8-5.19,8.19-9.8,13.78-13.23c6.73-4.13,11.96-5.25,19.57-5.65l-0.07,0.05 c-2.15,7.08-2.11,16.86-1.01,26.19h-4.69c-0.19-9.82,0.14-19.34,3.03-24.18c-8.6,6.84-14.69,15.31-16.41,24.17l-25.65,0.02 C68.43,19.48,54.91,7.99,41.63,4.26l5.06,14.02c5.36,4.5,10.47,10.57,15.27,18.58H39.3c-3.36-13.48-10.22-21.88-18.76-27.7 c2.05,3.76,4.43,9.85,5.43,14.13C29.92,26.55,33.68,30.98,37.21,36.86L37.21,36.86z"/></g></svg>