<?xml version="1.0" encoding="utf-8"?><svg version="1.1" id="Layer_1" xmlns="http://www.w3.org/2000/svg" xmlns:xlink="http://www.w3.org/1999/xlink" x="0px" y="0px" viewBox="0 0 55.68 38.88" style="enable-background:new 0 0 55.68 38.88" xml:space="preserve"><style type="text/css">.st0{fill:#FFFFFF;} .st1{fill:#005293;} .st2{fill:#D21034;} .st3{fill:none;stroke:#CCCCCC;stroke-width:0.4799;stroke-miterlimit:22.9256;}</style><g><path class="st0" d="M3.27,38.64h49.13c1.67,0,3.03-1.37,3.03-3.03V3.27c0-1.67-1.36-3.03-3.03-3.03H3.27 c-1.67,0-3.03,1.36-3.03,3.03v32.33C0.24,37.28,1.6,38.64,3.27,38.64L3.27,38.64z"/><polygon class="st1" points="13.44,5.04 11.96,9.6 14.24,10.35 13.44,5.04"/><polygon class="st1" points="13.44,5.04 14.92,9.6 12.64,10.35 13.44,5.04"/><polygon class="st1" points="18,8.36 13.2,8.36 13.2,10.76 18,8.36"/><polygon class="st1" points="18,8.36 14.12,11.18 12.71,9.24 18,8.36"/><polygon class="st1" points="16.26,13.72 14.78,9.16 12.5,9.9 16.26,13.72"/><path class="st1" d="M16.26,13.72l-3.88-2.82l1.41-1.94L16.26,13.72L16.26,13.72z M3.27,38.64c-1.67,0-3.03-1.37-3.03-3.03V19.44 h27.6v19.2H3.27L3.27,38.64z"/><polygon class="st1" points="10.62,13.72 14.5,10.9 13.09,8.96 10.62,13.72"/><polygon class="st1" points="10.62,13.72 12.1,9.16 14.38,9.9 10.62,13.72"/><polygon class="st1" points="8.87,8.36 12.76,11.18 14.17,9.24 8.87,8.36"/><polygon class="st1" points="8.87,8.36 13.67,8.36 13.67,10.76 8.87,8.36"/><polygon class="st2" points="42.24,24.24 40.76,28.81 43.04,29.55 42.24,24.24"/><polygon class="st2" points="42.24,24.24 43.72,28.81 41.44,29.55 42.24,24.24"/><polygon class="st2" points="46.81,27.56 42.01,27.56 42.01,29.96 46.81,27.56"/><polygon class="st2" points="46.81,27.56 42.92,30.38 41.51,28.44 46.81,27.56"/><polygon class="st2" points="45.06,32.92 43.58,28.36 41.3,29.1 45.06,32.92"/><polygon class="st2" points="45.06,32.92 41.18,30.1 42.59,28.16 45.06,32.92"/><polygon class="st2" points="39.42,32.92 43.3,30.1 41.89,28.16 39.42,32.92"/><polygon class="st2" points="39.42,32.92 40.9,28.36 43.18,29.1 39.42,32.92"/><polygon class="st2" points="37.67,27.56 41.56,30.38 42.97,28.44 37.67,27.56"/><path class="st2" d="M37.67,27.56h4.8v2.4L37.67,27.56L37.67,27.56z M52.41,0.24c1.67,0,3.03,1.36,3.03,3.03v16.17h-27.6V0.24 H52.41L52.41,0.24z"/><path class="st3" d="M3.27,0.24h49.13c1.67,0,3.03,1.36,3.03,3.03v32.33c0,1.67-1.36,3.03-3.03,3.03H3.27 c-1.67,0-3.03-1.37-3.03-3.03V3.27C0.24,1.6,1.6,0.24,3.27,0.24L3.27,0.24z"/></g></svg>