<svg version="1.1" id="Layer_1" xmlns="http://www.w3.org/2000/svg" x="0" y="0" viewBox="0 0 55.2 38.4" xml:space="preserve"><style>.st4{fill:#fff}</style><path d="M3.01 0h49.17c1.66.01 3.01 1.37 3.01 3.03v32.33c0 1.66-1.35 3.02-3.01 3.03H3.01C1.35 38.39 0 37.03 0 35.37V3.03C0 1.37 1.35.01 3.01 0z" fill="#e93f33"/><path d="M0 26.93h55.2H0zm0-15.39h55.2H0z" fill="#010101"/><path d="M0 26.93h55.2M0 11.54h55.2" fill="none" stroke="#fff" stroke-width="6"/><path d="M.67 1.14l31.35 18.1L.71 37.32C.27 36.79 0 36.11 0 35.37V3.03c0-.71.25-1.37.67-1.89z" fill="#0050f1"/><path class="st4" d="M9.81 12.83l-1.98 6.09 3.05 1-1.07-7.09z"/><path class="st4" d="M9.81 12.83l1.98 6.09-3.05 1 1.07-7.09z"/><path class="st4" d="M15.91 17.26H9.5v3.2l6.41-3.2z"/><path class="st4" d="M15.91 17.26l-5.19 3.77-1.88-2.6 7.07-1.17z"/><path class="st4" d="M3.71 17.26l5.19 3.77 1.88-2.6-7.07-1.17z"/><path class="st4" d="M3.71 17.26h6.41v3.2l-6.41-3.2z"/><path class="st4" d="M13.58 24.43l-1.98-6.1-3.05.99 5.03 5.11z"/><path class="st4" d="M13.58 24.43l-5.19-3.77 1.89-2.6 3.3 6.37z"/><path class="st4" d="M6.04 24.43l5.19-3.77-1.89-2.6-3.3 6.37z"/><path class="st4" d="M6.04 24.43l1.98-6.1 3.05.99-5.03 5.11z"/></svg>