<?xml version="1.0" encoding="utf-8"?><svg version="1.1" id="Layer_1" xmlns="http://www.w3.org/2000/svg" xmlns:xlink="http://www.w3.org/1999/xlink" x="0px" y="0px" viewBox="0 0 84.31 122.88" style="enable-background:new 0 0 84.31 122.88" xml:space="preserve"><style type="text/css">.st0{fill-rule:evenodd;clip-rule:evenodd;}</style><g><path class="st0" d="M13.37,59.62c-0.51,0.67-1.09,1.32-1.71,1.95c0.16,0.09,0.33,0.19,0.49,0.3c0.77,0.51,1.63,0.79,2.49,0.8 c0.84,0.01,1.67-0.22,2.4-0.71l0.03-0.02c-0.78-0.75-1.48-1.5-2.06-2.26v-1.96c0.84-0.33,1.43-1.14,1.43-2.1 c0-0.95-0.59-1.77-1.43-2.1v-4.01c0-0.45-0.37-0.82-0.82-0.82c-0.45,0-0.82,0.37-0.82,0.82v4.01c-0.84,0.33-1.43,1.14-1.43,2.1 c0,0.95,0.59,1.77,1.43,2.1V59.62L13.37,59.62z M68.18,59.62c-0.51,0.67-1.09,1.32-1.71,1.95c0.16,0.09,0.33,0.19,0.49,0.3 c0.77,0.51,1.63,0.79,2.49,0.8c0.84,0.01,1.67-0.22,2.4-0.71l0.03-0.02c-0.78-0.75-1.48-1.5-2.06-2.26v-1.96 c0.84-0.33,1.43-1.14,1.43-2.1c0-0.95-0.59-1.77-1.43-2.1v-4.01c0-0.45-0.37-0.82-0.82-0.82s-0.82,0.37-0.82,0.82v4.01 c-0.84,0.33-1.43,1.14-1.43,2.1c0,0.95,0.59,1.77,1.43,2.1V59.62L68.18,59.62z M81.29,122.88V104.5h0.99l-3.2-6.46v-12h3.24 c0.22,0,0.41-0.18,0.41-0.41v-2.59c0-0.22-0.18-0.41-0.41-0.41h-0.97c0.29-0.3,0.56-0.59,0.81-0.89c-1.49-0.17-2.6-0.69-3.64-1.18 c-1.47-0.69-2.77-1.3-5.02,0.02c-1.2,0.7-2.57,1.03-3.94,1.01c-1.39-0.02-2.78-0.39-4-1.1c-0.94-0.55-1.85-0.74-2.74-0.66 c-0.93,0.08-1.88,0.47-2.83,1.05l-0.02,0.01c-0.02-0.02-0.05-0.04-0.07-0.06c0.73-0.91,1.27-1.78,1.64-2.63 c0.35-0.09,0.71-0.15,1.06-0.18c1.36-0.12,2.74,0.15,4.11,0.96c0.88,0.51,1.88,0.79,2.86,0.8c0.96,0.01,1.92-0.22,2.76-0.71 c3.3-1.93,5.11-1.08,7.18-0.11c0.99,0.47,2.06,0.97,3.42,1.01c0.15,0.01,0.29,0.04,0.41,0.09c1.93-3.39,0.75-6.39-1.64-9.2 c-0.17,0.19-0.43,0.31-0.71,0.3c-1.61-0.06-2.73-0.67-3.77-1.23c-1.28-0.69-2.41-1.3-4.37,0.02c-1.04,0.7-2.23,1.03-3.43,1.01 c-1.21-0.02-2.42-0.39-3.48-1.1c-0.82-0.55-1.61-0.74-2.38-0.66c-0.81,0.09-1.63,0.47-2.46,1.05c-0.1,0.07-0.23,0.14-0.39,0.2 c-0.33-0.52-0.71-1.04-1.13-1.55c0.23-0.04,0.4-0.08,0.47-0.13c1.07-0.76,2.18-1.26,3.33-1.38c1.19-0.12,2.38,0.15,3.58,0.96 c0.77,0.51,1.63,0.79,2.49,0.8c0.84,0.01,1.67-0.22,2.4-0.71c2.87-1.93,4.45-1.08,6.25-0.11c0.63,0.34,1.3,0.7,2.07,0.89 c-2.1-2.06-4.67-4.03-6.89-6c-0.13,0.08-0.27,0.16-0.41,0.25c-1.04,0.7-2.23,1.03-3.43,1.01c-1.21-0.02-2.42-0.39-3.48-1.1 c-0.3-0.2-0.6-0.36-0.89-0.47c-1.99,1.8-4.22,3.5-6.09,5.27c-1.56-1.73-3.5-3.39-5.45-5.02l-0.69-12.61h0.85 c0.32,0,0.59-0.26,0.59-0.59v-2.81c0-0.32-0.26-0.59-0.59-0.59h-1.77l-10.7-31.23l0-0.05V8.67c1.03-0.39,1.77-1.39,1.77-2.57 c0-1.17-0.73-2.17-1.77-2.57V0.92c0-0.51-0.44-0.92-0.98-0.92c-0.54,0-0.98,0.41-0.98,0.92v2.62c-1.03,0.39-1.77,1.39-1.77,2.57 c0,1.17,0.73,2.17,1.77,2.57v6.61l0,0.02L28.72,46.56h-1.77c-0.32,0-0.59,0.26-0.59,0.59v2.81c0,0.32,0.26,0.59,0.59,0.59h1.58 l-1.67,20.36c-0.17,0.17-0.41,0.27-0.67,0.26c-1.61-0.06-2.73-0.67-3.77-1.23c-1.28-0.69-2.41-1.3-4.37,0.02 c-1.04,0.7-2.23,1.03-3.43,1.01c-1.21-0.02-2.42-0.39-3.48-1.1c-0.82-0.55-1.61-0.74-2.38-0.66c-0.81,0.09-1.63,0.47-2.46,1.05 c-0.44,0.31-1.49,0.51-2.53,0.59c-0.71,0.05-1.45,0.04-2.02-0.02c-0.81,1.11-1.41,2.27-1.65,3.51c0.4,0.06,1.21,0.06,2.03,0.01 C3,74.29,3.79,74.2,3.97,74.09c1.23-0.76,2.51-1.26,3.83-1.38c1.36-0.12,2.74,0.15,4.11,0.96c0.88,0.51,1.88,0.79,2.86,0.8 c0.96,0.01,1.92-0.22,2.76-0.71c3.3-1.93,5.11-1.08,7.18-0.11c0.59,0.27,1.2,0.56,1.88,0.76l-0.07,0.9h-2.38v0.14 c-0.14-0.06-0.28-0.13-0.41-0.19c-1.47-0.69-2.77-1.3-5.02,0.02c-1.2,0.7-2.57,1.03-3.94,1.01c-1.39-0.02-2.78-0.39-4-1.1 c-0.94-0.55-1.85-0.74-2.74-0.66c-0.93,0.08-1.88,0.47-2.83,1.05c-0.51,0.31-1.71,0.51-2.91,0.59C1.48,76.21,0.65,76.2,0,76.14 c0.09,1.11,0.45,2.28,1.15,3.55c0.31,0,0.65-0.02,0.99-0.04c0.87-0.05,1.66-0.14,1.83-0.25c1.23-0.76,2.51-1.26,3.83-1.38 c1.36-0.12,2.74,0.15,4.11,0.96c0.88,0.51,1.88,0.79,2.86,0.8c0.96,0.01,1.92-0.22,2.76-0.71c2.99-1.75,4.76-1.22,6.6-0.38v2.06 l-0.41-0.19c-1.47-0.69-2.77-1.3-5.02,0.02c-1.2,0.7-2.57,1.03-3.94,1.01c-1.39-0.02-2.78-0.39-4-1.1 c-0.94-0.55-1.85-0.74-2.74-0.66c-0.93,0.08-1.88,0.47-2.83,1.05c-0.5,0.31-1.68,0.51-2.86,0.58c0.29,0.38,0.6,0.77,0.94,1.16h-1.3 c-0.22,0-0.41,0.18-0.41,0.41v2.59c0,0.22,0.18,0.41,0.41,0.41h3.45V97.9L2,104.5H3v18.38H81.29L81.29,122.88z M61.86,72.82 c0.25-0.05,0.49-0.09,0.74-0.11c1.36-0.12,2.74,0.15,4.11,0.96c0.88,0.51,1.88,0.79,2.86,0.8c0.96,0.01,1.92-0.22,2.76-0.71 c3.3-1.93,5.11-1.08,7.18-0.11c0.99,0.47,2.06,0.97,3.42,1.02c0.58,0.02,1.03,0.44,1,0.94c-0.02,0.5-0.51,0.89-1.09,0.87 c-1.85-0.06-3.13-0.67-4.33-1.23c-1.47-0.69-2.77-1.3-5.02,0.02c-1.2,0.7-2.57,1.03-3.94,1.01c-1.39-0.02-2.78-0.39-4-1.1 c-0.94-0.55-1.85-0.74-2.74-0.66c-0.2,0.02-0.4,0.05-0.6,0.1C62.17,74.01,62.05,73.41,61.86,72.82L61.86,72.82z M64.44,109.99h2.39 v6.86h-2.39V109.99L64.44,109.99z M63.49,89.48c0-0.37,0.41-0.68,0.91-0.68c0.5,0,0.91,0.3,0.91,0.68v6.73 c0,0.37-0.41,0.67-0.91,0.67c-0.5,0-0.91-0.3-0.91-0.67V89.48L63.49,89.48z M74.36,89.48c0-0.37,0.41-0.68,0.91-0.68 c0.5,0,0.91,0.3,0.91,0.68v6.73c0,0.37-0.41,0.67-0.91,0.67c-0.5,0-0.91-0.3-0.91-0.67V89.48L74.36,89.48z M68.92,89.48 c0-0.37,0.41-0.68,0.91-0.68c0.5,0,0.91,0.3,0.91,0.68v6.73c0,0.37-0.41,0.67-0.91,0.67c-0.5,0-0.91-0.3-0.91-0.67V89.48 L68.92,89.48z M72.29,109.99h2.38v6.86h-2.38V109.99L72.29,109.99z M10.25,62.92c-2.31,2.09-4.95,4.05-6.98,6.14 c0.13-0.01,0.25-0.01,0.38-0.02c0.76-0.05,1.44-0.14,1.6-0.25c1.07-0.76,2.18-1.26,3.33-1.38c1.19-0.12,2.38,0.15,3.58,0.96 c0.77,0.51,1.63,0.79,2.49,0.8c0.84,0.01,1.67-0.22,2.4-0.71c2.87-1.93,4.45-1.08,6.25-0.11c0.63,0.34,1.3,0.7,2.07,0.89 c-2.1-2.06-4.67-4.03-6.89-6c-0.13,0.08-0.27,0.16-0.41,0.25c-1.04,0.7-2.23,1.03-3.43,1.01c-1.21-0.02-2.42-0.39-3.48-1.1 C10.84,63.18,10.54,63.02,10.25,62.92L10.25,62.92z M9.63,109.99h2.38v6.86H9.63V109.99L9.63,109.99z M8.68,89.48 c0-0.37,0.41-0.68,0.91-0.68s0.91,0.3,0.91,0.68v6.73c0,0.37-0.41,0.67-0.91,0.67s-0.91-0.3-0.91-0.67V89.48L8.68,89.48z M19.55,89.48c0-0.37,0.41-0.68,0.91-0.68c0.5,0,0.91,0.3,0.91,0.68v6.73c0,0.37-0.41,0.67-0.91,0.67c-0.5,0-0.91-0.3-0.91-0.67 V89.48L19.55,89.48z M14.11,89.48c0-0.37,0.41-0.68,0.91-0.68c0.5,0,0.91,0.3,0.91,0.68v6.73c0,0.37-0.41,0.67-0.91,0.67 c-0.5,0-0.91-0.3-0.91-0.67V89.48L14.11,89.48z M17.48,109.99h2.39v6.86h-2.39V109.99L17.48,109.99z M36.6,85.22v11.86l-3.23,6.51 h23.92h1.01l-0.47-1.05l-2.37-5.32v-12h0.91h2.33c0.22,0,0.41-0.18,0.41-0.41v-2.59c0-0.15-0.08-0.27-0.19-0.35h-1.47H33.7v-0.06 h-0.56c-0.22,0-0.41,0.18-0.41,0.41v2.59c0,0.22,0.18,0.41,0.41,0.41H36.6L36.6,85.22z M50.44,89.48c0-0.37,0.41-0.68,0.91-0.68 c0.5,0,0.91,0.3,0.91,0.68v6.73c0,0.37-0.41,0.67-0.91,0.67c-0.5,0-0.91-0.3-0.91-0.67V89.48L50.44,89.48z M40.48,109.84h2.39 c0.3,0,0.55,0.25,0.55,0.55v6.15c0,0.3-0.25,0.55-0.55,0.55h-2.39c-0.3,0-0.55-0.25-0.55-0.55v-6.15 C39.93,110.09,40.18,109.84,40.48,109.84L40.48,109.84z M48.97,109.84h2.39c0.3,0,0.55,0.25,0.55,0.55v6.15 c0,0.3-0.25,0.55-0.55,0.55h-2.39c-0.3,0-0.55-0.25-0.55-0.55v-6.15C48.42,110.09,48.67,109.84,48.97,109.84L48.97,109.84z M39.58,89.48c0-0.37,0.41-0.68,0.91-0.68c0.5,0,0.91,0.3,0.91,0.68v6.73c0,0.37-0.41,0.67-0.91,0.67c-0.5,0-0.91-0.3-0.91-0.67 V89.48L39.58,89.48z M45.01,89.48c0-0.37,0.41-0.68,0.91-0.68c0.5,0,0.91,0.3,0.91,0.68v6.73c0,0.37-0.41,0.67-0.91,0.67 c-0.5,0-0.91-0.3-0.91-0.67V89.48L45.01,89.48z M58.5,80.3c0.37-0.43,0.69-0.86,0.96-1.28l0,0c0.07-0.11,0.14-0.22,0.2-0.33 l0.05-0.09c0.06-0.1,0.12-0.21,0.17-0.31l0.05-0.1c0.05-0.1,0.1-0.21,0.15-0.31l0.04-0.09c0.04-0.1,0.09-0.21,0.13-0.31l0.03-0.09 c0.04-0.1,0.07-0.2,0.1-0.3l0.03-0.1c0.03-0.1,0.06-0.2,0.08-0.3l0.02-0.09c0.02-0.1,0.04-0.19,0.06-0.29l0.02-0.09 c0.02-0.1,0.03-0.19,0.04-0.28l0.01-0.11c0.01-0.09,0.02-0.18,0.02-0.27l0.01-0.11c0.03-0.74-0.07-1.47-0.29-2.18l0,0 c-0.03-0.1-0.07-0.21-0.1-0.31l-0.02-0.05c-0.04-0.11-0.08-0.21-0.12-0.32l-0.01-0.03c-0.04-0.11-0.09-0.21-0.14-0.31l-0.03-0.05 c-0.05-0.1-0.1-0.2-0.15-0.3l-0.02-0.04c-0.05-0.1-0.11-0.2-0.16-0.3l-0.03-0.06c-0.05-0.09-0.11-0.19-0.17-0.28l-0.05-0.07 c-0.06-0.09-0.12-0.18-0.18-0.27l-0.05-0.07c-3-4.46-9.65-8.37-12.87-12.48V56.2c0.79-0.35,1.34-1.14,1.34-2.06 c0-0.92-0.55-1.71-1.34-2.06v-4.04c0-0.5-0.41-0.91-0.91-0.91c-0.5,0-0.91,0.41-0.91,0.91v4.04c-0.79,0.35-1.34,1.14-1.34,2.06 c0,0.92,0.55,1.71,1.34,2.06v2.05c-5.57,7.2-18.88,11.71-10.72,22.05H58.5L58.5,80.3z M57.67,104.7H34.18v17.14h23.49V104.7 L57.67,104.7z M44.59,45.07l1.72-5.49l1.72,5.49H44.59L44.59,45.07z M32.36,45.07l1.72-5.49l1.72,5.49H32.36L32.36,45.07z M38.48,45.07l1.72-5.49l1.72,5.49H38.48L38.48,45.07z"/></g></svg>