<?xml version="1.0" encoding="utf-8"?><svg version="1.1" id="Layer_1" xmlns="http://www.w3.org/2000/svg" xmlns:xlink="http://www.w3.org/1999/xlink" x="0px" y="0px" viewBox="0 0 55.2 38.4" style="enable-background:new 0 0 55.2 38.4" xml:space="preserve"><style type="text/css">.st0{fill:#00853F;} .st1{fill:#FDEF42;} .st2{fill:#E31B23;}</style><g><path class="st0" d="M3.01,0H18v38.4l-14.98,0C1.36,38.39,0,37.03,0,35.37V3.03C0,1.37,1.35,0.01,3.01,0L3.01,0z"/><polygon class="st1" points="18,0 37.2,0 37.2,38.4 18,38.4 18,0"/><path class="st2" d="M37.2,0h14.99c1.66,0.01,3.01,1.37,3.01,3.03v32.33c0,1.67-1.36,3.03-3.03,3.03l-14.97,0V0L37.2,0z"/><polygon class="st0" points="27.6,12.8 25.62,18.89 28.67,19.88 27.6,12.8"/><polygon class="st0" points="27.6,12.8 29.58,18.89 26.53,19.88 27.6,12.8"/><polygon class="st0" points="33.69,17.22 27.29,17.22 27.29,20.42 33.69,17.22"/><polygon class="st0" points="33.69,17.22 28.51,20.98 26.63,18.4 33.69,17.22"/><polygon class="st0" points="31.36,24.38 29.38,18.29 26.34,19.28 31.36,24.38"/><polygon class="st0" points="31.36,24.38 26.18,20.62 28.06,18.03 31.36,24.38"/><polygon class="st0" points="23.84,24.38 29.02,20.62 27.13,18.03 23.84,24.38"/><polygon class="st0" points="23.84,24.38 25.82,18.29 28.86,19.28 23.84,24.38"/><polygon class="st0" points="21.51,17.22 26.69,20.98 28.57,18.4 21.51,17.22"/><polygon class="st0" points="21.51,17.22 27.91,17.22 27.91,20.42 21.51,17.22"/></g></svg>