<svg id="Layer_1" data-name="Layer 1" xmlns="http://www.w3.org/2000/svg" viewBox="0 0 123.36 85.96"><defs><style>.cls-1,.cls-7{fill:red;}.cls-2,.cls-4{fill:#005ce5;}.cls-3,.cls-5{fill:#fff;}.cls-4,.cls-5,.cls-6,.cls-7{fill-rule:evenodd;}.cls-6{fill:#ffe500;}.cls-8{fill:none;stroke:#ccc;stroke-miterlimit:22.93;stroke-width:0.48px;}</style></defs><title>slovenia-flag</title><path class="cls-1" d="M7,.24H116.37A6.77,6.77,0,0,1,123.12,7V79a6.77,6.77,0,0,1-6.75,6.75H7A6.77,6.77,0,0,1,.24,79V7A6.77,6.77,0,0,1,7,.24Z"/><path class="cls-2" d="M123.12,57.49H.24V7A6.77,6.77,0,0,1,7,.24H116.37A6.77,6.77,0,0,1,123.12,7v50.5Z"/><path class="cls-3" d="M123.12,28.47H.24V7A6.77,6.77,0,0,1,7,.24H116.37A6.77,6.77,0,0,1,123.12,7V28.47Z"/><path class="cls-4" d="M18.14,14.72h-.58A25.57,25.57,0,0,0,7.73,17h0l-.8.34L7.79,30.9A14.28,14.28,0,0,0,18.15,43.74,14.29,14.29,0,0,0,28.5,30.9l.86-13.52a8.49,8.49,0,0,0-.8-.39h0a25.43,25.43,0,0,0-10.41-2.26h0Z"/><path class="cls-5" d="M18.15,24.1l-2.54,4.95L14,26.92,9.7,32.58c.07.35.16.69.26,1a3.22,3.22,0,0,0,2.58,1.73c.93,0,1.87-.75,2.8-.75s1.87.75,2.81.75,1.87-.75,2.8-.75,1.87.75,2.81.75a3.21,3.21,0,0,0,2.56-1.71q.15-.51.27-1l-4.27-5.65-1.64,2.13L18.15,24.1ZM15.34,35.33c-.93,0-1.87.75-2.8.75a3.1,3.1,0,0,1-1.87-.64,12,12,0,0,0,.56,1.07,2.47,2.47,0,0,0,1.31.4c.93,0,1.87-.75,2.8-.75s1.87.75,2.81.75,1.87-.75,2.8-.75,1.87.75,2.81.75a2.48,2.48,0,0,0,1.29-.39c.2-.34.38-.7.56-1.06a3.11,3.11,0,0,1-1.85.62c-.94,0-1.87-.75-2.81-.75s-1.87.75-2.8.75-1.87-.75-2.81-.75Zm0,1.58c-.93,0-1.87.75-2.8.75A2.88,2.88,0,0,1,12,37.6,13.05,13.05,0,0,0,18.15,42a13,13,0,0,0,6.18-4.44,2.62,2.62,0,0,1-.57.06c-.94,0-1.87-.75-2.81-.75s-1.87.75-2.8.75-1.87-.75-2.81-.75Z"/><path class="cls-6" d="M13.93,17.75l.35-.61-.35-.61h.71l.35-.61.35.61h.71l-.35.61.35.61h-.71l-.35.62-.35-.62ZM17.08,22l.36-.62-.36-.61h.71l.35-.61.36.61h.7l-.35.61.35.62h-.7l-.36.61L17.79,22Zm0-1.23Zm0,1.23Zm3.16-4.24.36-.61-.36-.61H21l.36-.61.35.61h.71l-.36.61.36.61h-.71l-.35.62L21,17.75Zm0-1.22Zm0,1.22Zm-6.31-1.22Zm0,1.22Z"/><path class="cls-7" d="M18.14,14.72h0ZM7.73,17l-.8.34L7.79,30.9A14.28,14.28,0,0,0,18.15,43.74,14.29,14.29,0,0,0,28.5,30.9l.86-13.52a8.49,8.49,0,0,0-.8-.39l-.8,13.46a13.75,13.75,0,0,1-9.61,12.48A13.75,13.75,0,0,1,8.53,30.45L7.73,17Z"/><path class="cls-8" d="M7,.24H116.37A6.77,6.77,0,0,1,123.12,7V79a6.77,6.77,0,0,1-6.75,6.75H7A6.77,6.77,0,0,1,.24,79V7A6.77,6.77,0,0,1,7,.24Z"/></svg>