<?xml version="1.0" encoding="utf-8"?><svg version="1.1" id="Layer_1" xmlns="http://www.w3.org/2000/svg" xmlns:xlink="http://www.w3.org/1999/xlink" x="0px" y="0px" viewBox="0 0 55.2 38.4" style="enable-background:new 0 0 55.2 38.4" xml:space="preserve"><style type="text/css">.st0{fill:#4189DD;} .st1{fill:#FFFFFF;}</style><g><path class="st0" d="M3.01,0h49.17c1.66,0.01,3.01,1.37,3.01,3.03v32.33c0,1.67-1.36,3.03-3.03,3.03l-49.15,0 C1.35,38.39,0,37.03,0,35.37V3.03C0,1.37,1.35,0.01,3.01,0L3.01,0z"/><polygon class="st1" points="27.6,9.96 24.74,18.75 29.14,20.18 27.6,9.96"/><polygon class="st1" points="27.6,9.96 30.46,18.75 26.06,20.18 27.6,9.96"/><polygon class="st1" points="36.39,16.34 27.15,16.34 27.15,20.97 36.39,16.34"/><polygon class="st1" points="36.39,16.34 28.91,21.78 26.2,18.04 36.39,16.34"/><polygon class="st1" points="18.81,16.34 26.29,21.78 29,18.04 18.81,16.34"/><polygon class="st1" points="18.81,16.34 28.05,16.34 28.05,20.97 18.81,16.34"/><polygon class="st1" points="33.03,26.68 30.18,17.89 25.78,19.32 33.03,26.68"/><polygon class="st1" points="33.03,26.68 25.55,21.25 28.27,17.51 33.03,26.68"/><polygon class="st1" points="22.17,26.68 29.64,21.25 26.93,17.51 22.17,26.68"/><polygon class="st1" points="22.17,26.68 25.02,17.89 29.42,19.32 22.17,26.68"/></g></svg>