<?xml version="1.0" encoding="utf-8"?><svg version="1.1" id="Layer_1" xmlns="http://www.w3.org/2000/svg" xmlns:xlink="http://www.w3.org/1999/xlink" x="0px" y="0px" viewBox="0 0 111.37 122.88" style="enable-background:new 0 0 111.37 122.88" xml:space="preserve"><style type="text/css">.st0{fill-rule:evenodd;clip-rule:evenodd;}</style><g><path class="st0" d="M67.05,72.14v3.73h33.07v28.08c-2.92-1.2-6.09-1.85-9.41-1.85c-12.16,0-22.39,8.82-25.37,20.78H46.33 c-3.02-11.96-13.38-20.78-25.71-20.78c-3.31,0-6.48,0.64-9.4,1.8V75.87H43.8v-3.73H14.34l20.89-21.01v-2.41H12.39 c1.2-3.95,2.49-7.63,3.86-11.07h18.12v-3.31H17.62c1.64-3.8,3.39-7.27,5.22-10.41h11.43v-3.31h-9.38 c18.64-28.68,44.9-26.28,62.17,0H76.5v3.31h12.61c1.86,3.17,3.59,6.65,5.18,10.41h-17.9v3.31h19.23c1.33,3.47,2.54,7.16,3.62,11.07 H76.38v2.41l20.76,21.01H67.05L67.05,72.14z M59.34,58.58V39.39l0.73-0.44c4.22-2.54,6.88-5.97,8.31-10.09 c1.34-3.89,1.62-8.43,1.08-13.46H41.83c-0.42,4.87-0.18,9.37,1.15,13.27c1.42,4.15,4.1,7.67,8.58,10.27l0.76,0.44v19.21H59.34 L59.34,58.58z M62.37,41.08v20.53H49.29V41.1c-4.73-2.96-7.61-6.87-9.17-11.46c-1.61-4.72-1.8-10.12-1.16-15.92l0.15-1.36h33.02 l0.17,1.32c0.79,6.01,0.56,11.46-1.07,16.16C69.66,34.39,66.81,38.2,62.37,41.08L62.37,41.08z M90.61,106.67 c9.72,0,17.96,6.72,20.76,16h-9.94v-8.05H97.7v8.05h-5.23v-8.05h-3.72v8.05h-5.23v-8.05h-3.72v8.05h-9.94 C72.65,113.39,80.89,106.67,90.61,106.67L90.61,106.67z M20.76,106.67c9.72,0,17.96,6.72,20.76,16h-9.94v-8.05h-3.72v8.05h-5.23 v-8.05H18.9v8.05h-5.23v-8.05H9.94v8.05H0C2.81,113.39,11.04,106.67,20.76,106.67L20.76,106.67z"/></g></svg>