<?xml version="1.0" encoding="utf-8"?><svg version="1.1" id="Layer_1" xmlns="http://www.w3.org/2000/svg" xmlns:xlink="http://www.w3.org/1999/xlink" x="0px" y="0px" viewBox="0 0 43.03 122.88" style="enable-background:new 0 0 43.03 122.88" xml:space="preserve"><style type="text/css">.st0{fill-rule:evenodd;clip-rule:evenodd;}</style><g><path class="st0" d="M5.16,11.87c0.17,0.3,0.33,0.62,0.47,0.94c1.46,1.48,2.19,3.27,1.35,5.73c0.29,1.57,0.37,3.1,0.51,4.72 c0.12,1.42,0.32,2.09,0.67,3.44c0.5,1.92,0.81,3.83,0.89,5.83l4.76,0.02c0.17-0.28,0.37-0.55,0.6-0.8l-3.44-5.33l5.07,4.11 c0.49-0.25,1.01-0.41,1.53-0.5l0.99-7.09l1.35,7.19c0.43,0.11,0.85,0.27,1.25,0.48l4.89-4.24l-3.19,5.59l0.04,0.05 c0.13,0.16,0.26,0.34,0.37,0.52l6.81,0.32l-6.09,1.93c0.01,0.12,0.02,0.23,0.03,0.36c0.07,0.42,0.05,0.81-0.32,1 c0.22,1.05,0,1.89-0.4,2.42c0.32,1.27,0.63,2.61,0.68,3.88c0.04,0.61-0.29,1.1-0.78,1.45c0.63,0.52,0.81,1.22,0.98,2.49 c0.88,0.16,1.77,0.47,2.3,1.24c2.23,0.27,3.98,3.35,3.54,6.69c0.46,0.77,0.59,1.38,0.52,2.15c0.9,0.49,1.82,1.04,2.63,2.05 l1.94-3.13l7.05,2.45l0.88,2.2l-1.35,2.08l0.52,1.11c0.04,0.87-0.7,2.31-1.14,3.09c-0.29,0.52-0.63,1-1.01,1.43 c-0.58,0.99-1.45,1.31-2.65,1.6l-0.94,1.96c0.32,3.5-0.94,5.7-4.02,7.2c0.74,5.05,1.33,10.2,1.88,15.25 c-0.1,0.64-0.47,0.98-1.1,1.29c0.26,2.58,0.42,5.16,0.47,7.75c0.04,2.01,0.12,3.65-2.08,4.64l1.02,11.52h2.57v3.91l-33.48-0.07 v-3.89h2.63c0.74-2.07,1.63-4.07,2.73-5.97c-1.28-6.81-1.27-12.87,0.35-17.99L6.91,82.4c-1.74-2.23-1.19-5.85,0.68-10.61 c-2.92,0.6-3.24-1.79-1.63-6.8l2.08-4.71c-0.7,0.02-1.1-0.7-1.01-2.58c-1.68-0.66-1.99-1.94-1.38-3.65 c-0.33-1.22-0.18-2.46,0.25-3.71c-0.59-0.24-0.98-0.77-1.26-1.45c-0.5-0.6-0.27-1.31-0.03-2.19c-4.02,0.22-2.04-5.73-1.5-7.26 c0.45-1.28,1-2.42,1.65-3.43c-0.45-1.23-0.63-2.51-0.44-3.83c-1.09-2.32-1.11-5.54-0.96-9.55c-1.08-1.03-0.56-2.52-0.58-3.88 l-0.01-0.4H2.47V17.3c-0.36-0.26-0.62-0.94-0.83-1.84c-0.24-0.69-0.36-1.43-0.25-2.26c-0.07-0.61,0.01-1.17,0.44-1.63l0.19-2.2H0 v-2.7h2.47v-0.8C1.91,5.46,1.59,4.8,1.86,3.96C2.19,2.94,2.82,1.64,2.17,0c0.98,0.34,1.7,1.66,2,3.51c0-0.97,0.21-2.25,0.72-2.79 c0.4,0.65,0.76,1.35,1,2.08C6,3.17,6.08,3.55,6.12,3.92C6.2,4.84,5.89,5.48,5.4,5.86v0.8h2.52v2.83H5.97L5.16,11.87L5.16,11.87z M9.3,33.41c0.21,0.65,0.39,0.94,0.75,1.34c1.52,1.71,2.11,1.39,1.31,4.78c0.61,0.42,1.01,0.51,1.89,1.32l0.59-2.29 c-0.3-0.41-0.5-0.94-0.64-1.57c-0.17-0.75-0.21-1.49-0.14-2.2L9.3,33.41L9.3,33.41z"/></g></svg>