<?xml version="1.0" encoding="utf-8"?><svg version="1.1" id="Layer_1" xmlns="http://www.w3.org/2000/svg" xmlns:xlink="http://www.w3.org/1999/xlink" x="0px" y="0px" viewBox="0 0 122.88 77.75" style="enable-background:new 0 0 122.88 77.75" xml:space="preserve"><style type="text/css">.st0{fill-rule:evenodd;clip-rule:evenodd;}</style><g><path class="st0" d="M0,67.98h3.27l0.6-9.43H3.83c-0.19,0-0.36-0.09-0.48-0.22c-0.12-0.14-0.2-0.32-0.2-0.53 c0-0.21,0.08-0.4,0.2-0.53c0.04-0.05,0.09-0.09,0.14-0.12h-0.5c-0.2,0-0.38-0.09-0.51-0.23c-0.13-0.14-0.21-0.34-0.21-0.56 c0-0.22,0.08-0.42,0.21-0.56c0.13-0.14,0.31-0.23,0.51-0.23H3.6l0.7-12.03H4.2c-0.18,0-0.34-0.08-0.46-0.21 c-0.12-0.13-0.19-0.31-0.19-0.51s0.07-0.38,0.19-0.51c0.04-0.04,0.09-0.08,0.14-0.12H3.42c-0.18,0-0.34-0.08-0.46-0.21 c-0.12-0.13-0.19-0.31-0.19-0.51s0.07-0.38,0.19-0.51c0.12-0.13,0.28-0.21,0.46-0.21h1.04l0.53-14.19H4.93 c-0.17,0-0.32-0.07-0.43-0.19c-0.11-0.12-0.18-0.28-0.18-0.46c0-0.15,0.05-0.29,0.13-0.4l0.05-0.06H4.14 c-0.18,0-0.34-0.08-0.46-0.21c-0.12-0.13-0.19-0.3-0.19-0.49c0-0.19,0.07-0.37,0.19-0.49c0.12-0.13,0.28-0.21,0.46-0.21h1.11 l0.16-3.84H4.95c-0.32,0-0.57-0.26-0.57-0.57v0c0-0.31,0.26-0.57,0.57-0.57h0.63v-1.02c0-1.11,0.78-2.05,1.82-2.3V13.7 c0-0.25,0.21-0.46,0.46-0.46l0,0c0.25,0,0.46,0.21,0.46,0.46v1.98c1.11,0.19,1.97,1.16,1.97,2.33v1.02h0.63 c0.32,0,0.57,0.26,0.57,0.57v0c0,0.31-0.26,0.57-0.57,0.57h-0.47l0.16,3.84h1.11c0.18,0,0.34,0.08,0.46,0.21 c0.12,0.13,0.19,0.3,0.19,0.49c0,0.19-0.07,0.37-0.19,0.49c-0.12,0.13-0.28,0.21-0.46,0.21h-0.36l0.05,0.06 c0.08,0.11,0.13,0.25,0.13,0.4c0,0.18-0.07,0.34-0.18,0.46c-0.11,0.12-0.26,0.19-0.43,0.19h-0.16l0.63,14.19h1.04 c0.18,0,0.34,0.08,0.46,0.21c0.12,0.13,0.19,0.31,0.19,0.51c0,0.2-0.07,0.38-0.19,0.51c-0.12,0.13-0.28,0.21-0.46,0.21H12 c0.05,0.03,0.1,0.07,0.14,0.12c0.12,0.13,0.19,0.31,0.19,0.51c0,0.2-0.07,0.38-0.19,0.51c-0.09,0.1-0.2,0.17-0.32,0.2l0.46,12.05 h0.61c0.2,0,0.38,0.09,0.51,0.23c0.13,0.14,0.21,0.34,0.21,0.56c0,0.22-0.08,0.42-0.21,0.56c-0.13,0.14-0.31,0.23-0.51,0.23h-0.07 c0.05,0.03,0.1,0.07,0.14,0.12c0.12,0.14,0.2,0.32,0.2,0.53c0,0.21-0.08,0.4-0.2,0.53c-0.12,0.14-0.29,0.22-0.48,0.22h-0.06 l0.68,9.43h4.61l0.44-7h-0.03c-0.15,0-0.28-0.07-0.37-0.17c-0.1-0.11-0.16-0.25-0.16-0.42c0-0.16,0.06-0.31,0.16-0.42 c0.03-0.04,0.07-0.07,0.11-0.09h-0.39c-0.15,0-0.29-0.07-0.4-0.18c-0.1-0.11-0.16-0.27-0.16-0.44c0-0.17,0.06-0.32,0.16-0.44 c0.1-0.11,0.24-0.18,0.4-0.18h0.48l0.55-9.41h-0.08c-0.14,0-0.27-0.06-0.36-0.17c-0.09-0.1-0.15-0.24-0.15-0.4 c0-0.16,0.06-0.3,0.15-0.4l0.01-0.01c0.03-0.03,0.07-0.06,0.1-0.09H17.8c-0.14,0-0.27-0.06-0.36-0.17c-0.09-0.1-0.15-0.24-0.15-0.4 s0.06-0.3,0.15-0.4l0.01-0.01c0.09-0.1,0.22-0.16,0.35-0.16h0.81l0.42-11.09h-0.05c-0.13,0-0.25-0.06-0.34-0.15 c-0.09-0.09-0.14-0.22-0.14-0.36c0-0.12,0.04-0.23,0.1-0.32l0.04-0.05h-0.28c-0.14,0-0.27-0.06-0.36-0.16 c-0.09-0.1-0.15-0.24-0.15-0.39s0.06-0.29,0.15-0.39c0.09-0.1,0.22-0.16,0.36-0.16h0.87l0.13-3H19c-0.25,0-0.45-0.2-0.45-0.45l0,0 c0-0.25,0.2-0.45,0.45-0.45h0.49v-0.8c0-0.87,0.61-1.61,1.42-1.8v-1.57c0-0.2,0.16-0.36,0.36-0.36l0,0c0.2,0,0.36,0.16,0.36,0.36 v1.55c0.87,0.15,1.54,0.91,1.54,1.82v0.8h0.5c0.25,0,0.45,0.2,0.45,0.45l0,0c0,0.25-0.2,0.45-0.45,0.45h-0.37l0.13,3h0.87 c0.14,0,0.27,0.06,0.36,0.16c0.09,0.1,0.15,0.24,0.15,0.39s-0.06,0.29-0.15,0.39c-0.09,0.1-0.22,0.16-0.36,0.16h-0.28l0.04,0.05 c0.06,0.09,0.1,0.2,0.1,0.32c0,0.14-0.05,0.27-0.14,0.36c-0.09,0.09-0.21,0.15-0.34,0.15h-0.12l0.49,11.09h0.81 c0.14,0,0.27,0.06,0.36,0.17c0.09,0.1,0.15,0.24,0.15,0.4c0,0.16-0.06,0.3-0.15,0.4c-0.09,0.1-0.22,0.17-0.36,0.17h-0.36 c0.04,0.02,0.08,0.06,0.11,0.09c0.09,0.1,0.15,0.24,0.15,0.4c0,0.16-0.06,0.3-0.15,0.4c-0.07,0.08-0.15,0.13-0.25,0.15l0.36,9.42 h0.48c0.15,0,0.29,0.07,0.4,0.18c0.1,0.11,0.17,0.27,0.17,0.44c0,0.17-0.06,0.33-0.16,0.44c-0.1,0.11-0.24,0.18-0.4,0.18h-0.05 c0.04,0.03,0.08,0.06,0.11,0.09c0.09,0.11,0.16,0.25,0.16,0.42c0,0.16-0.06,0.31-0.16,0.42c-0.1,0.11-0.23,0.17-0.38,0.17h-0.04 l0.5,7h5.44V39.95c0-0.58,0.24-1.11,0.62-1.49c0.38-0.38,0.91-0.62,1.49-0.62h0.86v-4.87h0.36c-3.47-3.92,1.34-7.08,4.05-9.24 v-3.27c0-0.2,0.16-0.35,0.35-0.35c0.2,0,0.35,0.16,0.35,0.35v3.28c2.79,2.16,7.62,5.14,3.92,9.23h0.49v4.87h4.04v-5.15 c0-0.4,0.32-0.72,0.72-0.72h0.22c-1.22-1.25-1.84-3.06-1.97-5.08c-0.55-8.51,3.72-11.78,8.14-15.11h13.81 c4.46,3.49,8.87,7,8.32,15.32c-0.06,0.93-0.23,1.84-0.52,2.68c-0.2,0.58-0.45,1.14-0.77,1.65c-0.11,0.18-0.23,0.36-0.36,0.54h0.44 c0.4,0,0.72,0.32,0.72,0.72v5.15h2.58v-4.87h0.36c-3.47-3.92,1.34-7.08,4.05-9.24v-3.27c0-0.2,0.16-0.35,0.35-0.35 c0.2,0,0.35,0.16,0.35,0.35v3.28c2.79,2.16,7.62,5.14,3.92,9.23h0.49v4.87h1.68c0.58,0,1.11,0.24,1.49,0.62l0.05,0.05 c0.35,0.38,0.57,0.89,0.57,1.44v28.03h5.54l0.5-7h-0.04c-0.14,0-0.28-0.07-0.37-0.17c-0.1-0.11-0.16-0.25-0.16-0.42 c0-0.16,0.06-0.31,0.16-0.42c0.03-0.04,0.07-0.07,0.11-0.09h-0.05c-0.15,0-0.29-0.07-0.4-0.18c-0.1-0.11-0.16-0.27-0.16-0.44 c0-0.17,0.06-0.32,0.16-0.44c0.1-0.11,0.24-0.18,0.4-0.18h0.48l0.36-9.42c-0.1-0.02-0.18-0.08-0.25-0.15 c-0.09-0.1-0.15-0.24-0.15-0.4c0-0.16,0.06-0.3,0.15-0.4c0.03-0.04,0.07-0.07,0.11-0.09h-0.36c-0.14,0-0.27-0.06-0.36-0.17 c-0.09-0.1-0.15-0.24-0.15-0.4c0-0.16,0.06-0.3,0.15-0.4c0.09-0.1,0.22-0.17,0.36-0.17h0.81l0.49-11.09h-0.12 c-0.13,0-0.25-0.06-0.34-0.15c-0.09-0.09-0.14-0.22-0.14-0.36c0-0.12,0.04-0.23,0.1-0.32l0.04-0.05h-0.28 c-0.14,0-0.27-0.06-0.36-0.16c-0.09-0.1-0.15-0.24-0.15-0.39s0.06-0.29,0.15-0.39c0.09-0.1,0.22-0.16,0.36-0.16h0.87l0.13-3H99.2 c-0.25,0-0.45-0.2-0.45-0.45l0,0c0-0.25,0.2-0.45,0.45-0.45h0.5v-0.8c0-0.91,0.67-1.67,1.54-1.82v-1.55c0-0.2,0.16-0.36,0.36-0.36 l0,0c0.2,0,0.36,0.16,0.36,0.36v1.57c0.81,0.19,1.42,0.93,1.42,1.8v0.8h0.49c0.25,0,0.45,0.2,0.45,0.45l0,0 c0,0.25-0.2,0.45-0.45,0.45h-0.37l0.13,3h0.87c0.14,0,0.27,0.06,0.36,0.16c0.09,0.1,0.15,0.24,0.15,0.39s-0.06,0.29-0.15,0.39 c-0.09,0.1-0.22,0.16-0.36,0.16h-0.28l0.04,0.05c0.06,0.09,0.1,0.2,0.1,0.32c0,0.14-0.05,0.27-0.14,0.36 c-0.09,0.09-0.21,0.15-0.34,0.15h-0.05l0.42,11.09h0.81c0.14,0,0.26,0.06,0.35,0.16l0.01,0.01c0.09,0.1,0.15,0.24,0.15,0.4 s-0.06,0.3-0.15,0.4c-0.09,0.1-0.22,0.17-0.36,0.17h-0.36c0.04,0.02,0.07,0.05,0.1,0.09l0.01,0.01c0.09,0.1,0.15,0.24,0.15,0.4 c0,0.16-0.06,0.3-0.15,0.4c-0.09,0.1-0.22,0.17-0.36,0.17h-0.08l0.55,9.41h0.48c0.15,0,0.29,0.07,0.4,0.18 c0.1,0.11,0.16,0.27,0.16,0.44c0,0.17-0.06,0.33-0.16,0.44c-0.1,0.11-0.24,0.18-0.4,0.18h-0.39c0.04,0.03,0.08,0.06,0.11,0.09 c0.1,0.11,0.16,0.25,0.16,0.42c0,0.16-0.06,0.31-0.16,0.42c-0.09,0.11-0.23,0.17-0.37,0.17h-0.03l0.44,7h4.61l0.68-9.43h-0.06 c-0.19,0-0.36-0.09-0.48-0.22c-0.12-0.14-0.2-0.32-0.2-0.53c0-0.21,0.08-0.4,0.2-0.53c0.04-0.05,0.09-0.09,0.14-0.12h-0.07 c-0.2,0-0.38-0.09-0.51-0.23c-0.13-0.14-0.21-0.34-0.21-0.56c0-0.22,0.08-0.42,0.21-0.56c0.13-0.14,0.31-0.23,0.51-0.23h0.61 l0.46-12.05c-0.12-0.03-0.23-0.1-0.32-0.2c-0.12-0.13-0.19-0.31-0.19-0.51c0-0.2,0.07-0.38,0.19-0.51 c0.04-0.04,0.09-0.08,0.14-0.12h-0.46c-0.18,0-0.34-0.08-0.46-0.21c-0.12-0.13-0.19-0.31-0.19-0.51c0-0.2,0.07-0.38,0.19-0.51 c0.12-0.13,0.28-0.21,0.46-0.21h1.04l0.63-14.19h-0.16c-0.17,0-0.32-0.07-0.43-0.19c-0.11-0.12-0.18-0.28-0.18-0.46 c0-0.15,0.05-0.29,0.13-0.4l0.05-0.06h-0.36c-0.18,0-0.34-0.08-0.46-0.21c-0.12-0.13-0.19-0.3-0.19-0.49 c0-0.19,0.07-0.37,0.19-0.49c0.12-0.13,0.28-0.21,0.46-0.21h1.11l0.16-3.84h-0.47c-0.32,0-0.57-0.26-0.57-0.57v0 c0-0.31,0.26-0.57,0.57-0.57h0.63v-1.02c0-1.17,0.86-2.14,1.97-2.33V13.7c0-0.25,0.21-0.46,0.46-0.46l0,0 c0.25,0,0.46,0.21,0.46,0.46v2.01c1.04,0.24,1.82,1.18,1.82,2.3v1.02h0.63c0.32,0,0.57,0.26,0.57,0.57v0 c0,0.31-0.26,0.57-0.57,0.57h-0.47l0.16,3.84h1.11c0.18,0,0.34,0.08,0.46,0.21c0.12,0.13,0.19,0.3,0.19,0.49 c0,0.19-0.07,0.37-0.19,0.49c-0.12,0.13-0.28,0.21-0.46,0.21h-0.36l0.05,0.06c0.08,0.11,0.13,0.25,0.13,0.4 c0,0.18-0.07,0.34-0.18,0.46c-0.11,0.12-0.26,0.19-0.43,0.19h-0.06l0.53,14.19h1.04c0.18,0,0.34,0.08,0.46,0.21 c0.12,0.13,0.19,0.31,0.19,0.51s-0.07,0.38-0.19,0.51c-0.12,0.13-0.28,0.21-0.46,0.21h-0.46c0.05,0.03,0.1,0.07,0.14,0.12 c0.12,0.13,0.19,0.31,0.19,0.51s-0.07,0.38-0.19,0.51c-0.12,0.13-0.28,0.21-0.46,0.21h-0.1l0.7,12.03h0.62 c0.2,0,0.38,0.09,0.51,0.23c0.13,0.14,0.21,0.34,0.21,0.56c0,0.22-0.08,0.42-0.21,0.56c-0.13,0.14-0.31,0.23-0.51,0.23h-0.5 c0.05,0.03,0.1,0.07,0.14,0.12c0.12,0.14,0.2,0.32,0.2,0.53c0,0.21-0.08,0.4-0.2,0.53c-0.12,0.14-0.29,0.22-0.48,0.22h-0.05 l0.6,9.43h3.27v9.77H0V67.98L0,67.98z M83.78,44.09c2.25,1.06,2.98,1.8,2.98,4.12v4.08H80.9v-4.08C80.9,46,81.64,45.02,83.78,44.09 L83.78,44.09z M83.78,57.94c2.25,1.06,2.98,1.8,2.98,4.12v4.08H80.9v-4.08C80.9,59.84,81.64,58.86,83.78,57.94L83.78,57.94z M39.44,57.94c2.25,1.06,2.98,1.8,2.98,4.12v4.08h-5.86v-4.08C36.56,59.84,37.3,58.86,39.44,57.94L39.44,57.94z M39.44,44.09 c2.25,1.06,2.98,1.8,2.98,4.12v4.08h-5.86v-4.08C36.56,46,37.3,45.02,39.44,44.09L39.44,44.09z M53.32,71.46V54.18 c0.58-3.9,3.26-6.57,8.33-7.86c4.53,1.48,7.85,3.76,8.45,7.86v17.28H53.32L53.32,71.46z M61.15,5.28v-5c0-0.16,0.13-0.29,0.29-0.29 c0.16,0,0.29,0.13,0.29,0.29v5.07c1.27,2.01,2.98,3.58,4.79,5.05H56.25C58.09,8.97,59.83,7.39,61.15,5.28L61.15,5.28z M100.42,31.16L100.42,31.16c-0.14,0-0.26,0.11-0.26,0.25v2.06c0,0.13,0.12,0.25,0.26,0.25l0,0c0.14,0,0.26-0.11,0.26-0.25v-2.06 C100.68,31.27,100.57,31.16,100.42,31.16L100.42,31.16z M102.66,31.16L102.66,31.16c-0.14,0-0.26,0.11-0.26,0.25v2.06 c0,0.13,0.12,0.25,0.26,0.25l0,0c0.14,0,0.26-0.11,0.26-0.25v-2.06C102.92,31.27,102.81,31.16,102.66,31.16L102.66,31.16z M101.54,31.16L101.54,31.16c-0.2,0-0.36,0.16-0.36,0.35v1.95c0,0.19,0.16,0.34,0.36,0.34l0,0c0.2,0,0.36-0.16,0.36-0.34v-1.95 C101.91,31.32,101.74,31.16,101.54,31.16L101.54,31.16z M113.51,20.41L113.51,20.41c-0.18,0-0.33,0.14-0.33,0.31v2.63 c0,0.17,0.15,0.31,0.33,0.31l0,0c0.18,0,0.33-0.14,0.33-0.31v-2.63C113.84,20.55,113.69,20.41,113.51,20.41L113.51,20.41z M116.37,20.41L116.37,20.41c-0.18,0-0.33,0.14-0.33,0.31v2.63c0,0.17,0.15,0.31,0.33,0.31l0,0c0.18,0,0.33-0.14,0.33-0.31v-2.63 C116.71,20.55,116.56,20.41,116.37,20.41L116.37,20.41z M114.94,20.41L114.94,20.41c-0.26,0-0.47,0.2-0.47,0.44v2.5 c0,0.24,0.21,0.44,0.47,0.44l0,0c0.26,0,0.47-0.2,0.47-0.44v-2.5C115.41,20.6,115.2,20.41,114.94,20.41L114.94,20.41z M22.46,31.16 L22.46,31.16c0.14,0,0.26,0.11,0.26,0.25v2.06c0,0.13-0.12,0.25-0.26,0.25l0,0c-0.14,0-0.26-0.11-0.26-0.25v-2.06 C22.2,31.27,22.31,31.16,22.46,31.16L22.46,31.16z M20.22,31.16L20.22,31.16c0.14,0,0.26,0.11,0.26,0.25v2.06 c0,0.13-0.12,0.25-0.26,0.25l0,0c-0.14,0-0.26-0.11-0.26-0.25v-2.06C19.96,31.27,20.07,31.16,20.22,31.16L20.22,31.16z M21.34,31.16L21.34,31.16c0.2,0,0.36,0.16,0.36,0.35v1.95c0,0.19-0.16,0.34-0.36,0.34l0,0c-0.2,0-0.36-0.16-0.36-0.34v-1.95 C20.97,31.32,21.14,31.16,21.34,31.16L21.34,31.16z M9.37,20.41L9.37,20.41c0.18,0,0.33,0.14,0.33,0.31v2.63 c0,0.17-0.15,0.31-0.33,0.31l0,0c-0.18,0-0.33-0.14-0.33-0.31v-2.63C9.04,20.55,9.19,20.41,9.37,20.41L9.37,20.41z M6.51,20.41 L6.51,20.41c0.18,0,0.33,0.14,0.33,0.31v2.63c0,0.17-0.15,0.31-0.33,0.31l0,0c-0.18,0-0.33-0.14-0.33-0.31v-2.63 C6.17,20.55,6.32,20.41,6.51,20.41L6.51,20.41z M7.94,20.41L7.94,20.41c0.26,0,0.47,0.2,0.47,0.44v2.5c0,0.24-0.21,0.44-0.47,0.44 l0,0c-0.26,0-0.47-0.2-0.47-0.44v-2.5C7.47,20.6,7.68,20.41,7.94,20.41L7.94,20.41z"/></g></svg>