<svg xmlns="http://www.w3.org/2000/svg" shape-rendering="geometricPrecision" text-rendering="geometricPrecision" image-rendering="optimizeQuality" fill-rule="evenodd" clip-rule="evenodd" viewBox="0 0 512 447.66"><defs><linearGradient id="a" gradientUnits="userSpaceOnUse" x1="35.87" y1="227.66" x2="474.62" y2="227.62"><stop offset="0" stop-color="#FECA47"/><stop offset=".165" stop-color="#FED04F"/><stop offset=".259" stop-color="#FED757"/><stop offset=".69" stop-color="#E4B231"/><stop offset="1" stop-color="#E0AD2E"/></linearGradient><linearGradient id="b" gradientUnits="userSpaceOnUse" x1="104.65" y1="212.4" x2="401.31" y2="212.36"><stop offset="0" stop-color="#454545"/><stop offset=".82" stop-color="#353535"/><stop offset="1" stop-color="#252525"/></linearGradient><linearGradient id="c" gradientUnits="userSpaceOnUse" x1="255.16" y1="132.79" x2="255.2" y2="310.48"><stop offset="0" stop-color="#FCDB6F"/><stop offset="1" stop-color="#E8BA40"/></linearGradient><linearGradient id="d" gradientUnits="userSpaceOnUse" x1="7.12" y1="216.64" x2="763.95" y2="216.6"><stop offset="0" stop-color="#fff"/><stop offset=".631" stop-color="#F3F3F3"/><stop offset="1" stop-color="#E6E6E6"/></linearGradient></defs><path fill="#CF9114" fill-rule="nonzero" d="M288.58 10.61c5.34 3.38 10.84 8.08 16.75 13.12 7.42 6.33 15.55 13.26 24.48 18.37l.28.16c7.57 4.18 18.49 4.6 29.94 5.02 21.28.79 44.26 1.65 59.44 24.2 13.3 19.74 14.29 35.1 15.24 50.16l.09 1.29c.48 7.44 1.37 14.57 4.01 22.25 2.66 7.75 7.13 16.22 14.8 26.35 13.92 18.42 22.39 33.93 25.6 48.25 3.38 14.97 1.11 28.4-6.56 42.04-5.53 9.85-13.96 17.07-21.4 23.43-5.61 4.8-10.58 9.05-12.17 12.74l-.22.45c-3.83 9.12-3.96 17.63-4.09 26.37-.18 11.84-.37 24.09-8.21 39.53-4.98 9.83-11.35 18.01-19.03 24.57-7.76 6.63-16.85 11.6-27.21 14.93-9.17 2.95-17.82 2.34-26.03 1.75-6.94-.5-13.53-.97-18.61 1.16-10.51 4.44-19.95 12-28.81 19.1-9.79 7.83-18.96 15.18-29.12 18.34-7.41 2.31-15.02 3.47-22.59 3.47-7.58 0-15.19-1.16-22.61-3.46l-.3-.11c-10.04-3.21-19.12-10.48-28.8-18.23-8.86-7.11-18.3-14.67-28.81-19.08-5.13-2.16-11.7-1.68-18.62-1.19-8.21.59-16.85 1.2-26.03-1.75-10.35-3.33-19.44-8.3-27.2-14.93-7.68-6.56-14.05-14.74-19.03-24.57-7.84-15.44-8.03-27.69-8.21-39.53-.13-8.85-.27-17.47-4.3-26.82l-.14-.35c-1.74-3.57-6.59-7.73-12.05-12.39-7.43-6.36-15.87-13.57-21.4-23.43-7.66-13.64-9.94-27.07-6.56-42.04 3.22-14.32 11.68-29.83 25.6-48.25 7.67-10.14 12.15-18.61 14.81-26.35 2.64-7.68 3.52-14.81 4.01-22.25l.08-1.31c.96-15.05 1.95-30.4 15.24-50.14 15.18-22.55 38.16-23.41 59.45-24.2 11.59-.42 22.62-.85 30.21-5.18l.31-.17c8.76-5.05 16.82-11.92 24.18-18.21 5.9-5.03 11.41-9.73 16.74-13.11C232.87 3.54 243.97 0 255.16 0c11.18 0 22.29 3.54 33.42 10.61z"/><path fill="url(#a)" d="M285.36 15.69c11.79 7.48 25.07 22.26 41.47 31.63 23.06 13.18 65.78-5 87.66 27.5 12.76 18.95 13.36 33.81 14.31 48.49 1.03 15.84 3.81 30.41 20.01 51.84 26.84 35.49 32.43 59.12 18.6 83.73-9.42 16.78-29.27 26.1-33.87 36.74-9.77 22.61 1.04 39.66-12.34 66.02-9.29 18.29-23.62 30.34-42.71 36.49-16.1 5.18-32.25-2.32-45.14 3.1-22.65 9.52-39.36 31.64-57.38 37.23-13.63 4.23-28 4.23-41.62 0-18.03-5.59-34.73-27.71-57.38-37.23-12.89-5.42-29.05 2.08-45.14-3.1-19.09-6.15-33.43-18.2-42.71-36.49-13.39-26.36-2.58-43.41-12.35-66.02-4.59-10.64-24.44-19.96-33.87-36.74-13.82-24.61-8.23-48.24 18.6-83.73 16.21-21.43 18.98-36 20.01-51.84.95-14.68 1.56-29.54 14.31-48.49 21.88-32.5 64.6-14.32 87.67-27.5 16.4-9.37 29.67-24.15 41.47-31.63 20.3-12.89 40.1-12.89 60.4 0z"/><path fill-rule="nonzero" d="M255.16 54.69c46.72 0 89.03 18.94 119.65 49.56 30.61 30.62 49.55 72.92 49.55 119.64s-18.94 89.03-49.55 119.64c-30.62 30.62-72.93 49.56-119.65 49.56s-89.03-18.94-119.65-49.56c-30.61-30.61-49.56-72.92-49.56-119.64s18.95-89.02 49.57-119.64c30.61-30.62 72.92-49.56 119.64-49.56z"/><path fill="url(#b)" d="M255.16 56.67c92.35 0 167.22 74.87 167.22 167.22 0 92.36-74.87 167.22-167.22 167.22S87.94 316.25 87.94 223.89c0-92.35 74.87-167.22 167.22-167.22z"/><path fill-rule="nonzero" d="M157.33 303.76c.65-.06 1.31.2 1.74.76l6.34 8.24c.66.86.51 2.1-.35 2.76l-11.43 8.79c-.67.51-1.57.53-2.24.12a32.106 32.106 0 0 1-8.54-7.71c-1.64-2.12-2.78-4.16-3.4-6.07-.68-2.07-.77-4.03-.29-5.86l.02-.07c.24-.87.58-1.72 1.01-2.54.42-.8.97-1.61 1.61-2.37.59-.71 1.31-1.47 2.14-2.24.82-.75 1.74-1.53 2.74-2.29 1.01-.77 1.99-1.47 2.93-2.06.96-.61 1.87-1.11 2.7-1.48.9-.4 1.83-.71 2.76-.9.92-.19 1.87-.28 2.82-.26 1.94.04 3.86.7 5.77 2l.09.06c1.74 1.2 3.5 2.96 5.25 5.24l1.2 1.72 1.33 2.16c.82 1.51 1.3 2.42 1.96 3.96.33.97-.15 2.02-1.06 2.43l-5.96 2.97c-.97.48-2.16.09-2.64-.88l-1.57-2.75-1.61-2.32-1.4-1.67-.72-.65-1.2.91zm26.07 11.79-11.45 14.24 1.56 1.2 11.43-14.21a1.97 1.97 0 0 1 2.77-.3l6.73 5.41c.84.68.97 1.92.29 2.77l-9.49 11.81c-.78.98-1.55 1.86-2.26 2.62-.74.78-1.44 1.44-2.1 1.98-.69.57-1.43 1.05-2.2 1.43-1.6.79-3.31 1.15-5.09.92-1.89-.25-3.61-1.14-5.19-2.17-.88-.57-1.82-1.25-2.79-2.03-.97-.78-1.84-1.55-2.58-2.29-1.32-1.28-2.6-2.84-3.22-4.59-.59-1.69-.6-3.42-.19-5.14.21-.83.52-1.66.93-2.47.37-.73.86-1.56 1.48-2.46.58-.86 1.28-1.8 2.07-2.79l9.49-11.82c.68-.84 1.93-.97 2.77-.29l6.74 5.4c.84.68.98 1.93.3 2.78zm6.45 38.2-8.21-3.77a1.97 1.97 0 0 1-.97-2.6l.26-.43 17.62-21.6c.6-.74 1.64-.93 2.45-.49l12.01 5.51c.84.38 1.27 1.28 1.12 2.14l-4.89 27.44c-.19 1.07-1.23 1.78-2.3 1.59l-.65-.24-8.09-3.71a1.976 1.976 0 0 1-1.11-2.19l.56-2.77-3.62-1.67-1.74 2.24c-.58.76-1.62.97-2.44.55zm47.95 14.62-9.37-1.55c-.82-.14-1.44-.77-1.61-1.55l-.98-3.8-.47 2.84a1.962 1.962 0 0 1-2.26 1.62l-8.52-1.41a1.976 1.976 0 0 1-1.63-2.26l4.42-26.61a1.967 1.967 0 0 1 2.26-1.63l13.53 2.24c3.54.61 6.1 2.04 7.67 4.26 1.57 2.24 2.05 5.19 1.45 8.81l-.01.08c-.4 2.39-1.13 4.36-2.18 5.88-.75 1.08-1.65 1.94-2.69 2.57l2.58 7.96a1.965 1.965 0 0 1-2.19 2.55zm15.72.43-8.96.15c-1.09.01-1.99-.85-2-1.93l.07-.55 6.53-27.05c.21-.88 1-1.48 1.87-1.5l13.34-.23c.94-.01 1.74.64 1.95 1.51l7.42 26.8c.29 1.05-.32 2.13-1.37 2.42l-.49.07-9.11.15c-.95.02-1.76-.65-1.96-1.54l-.67-2.69-3.98.07-.59 2.76c-.21.96-1.09 1.62-2.05 1.56zm39.92-6.73-4.87-3.95 1.16 3.96c.31 1.04-.29 2.14-1.33 2.45l-8.29 2.43c-1.04.31-2.14-.29-2.45-1.33l-7.61-25.89c-.3-1.04.3-2.14 1.34-2.45l7.79-2.29c.68-.19 1.38-.01 1.87.43l4.88 3.95-1.17-3.96c-.31-1.04.29-2.14 1.34-2.45l8.28-2.44c.67-.19 1.37-.02 1.86.41.12-.53.47-1.01.99-1.29l18.68-9.92c.26-.14.54-.22.82-.23l.42-.55 14.13-12.69c.81-.72 2.06-.66 2.79.15l4 6.11c.46.71.4 1.62-.09 2.26.66-.12 1.36.09 1.84.62l4.19 4.65c.33.37.5.84.5 1.31l.34-.31c.81-.73 2.06-.66 2.79.14l4.62 5.14c.73.81.66 2.07-.14 2.79l-14.3 12.84c-.81.73-2.06.67-2.79-.14l-13-14.48c.09.79-.29 1.58-1.03 1.97l-3.79 2.02 8.49 15.98c.51.96.14 2.16-.82 2.67l-7.62 4.05c-.96.51-2.16.14-2.67-.82l-8.49-15.99-3.78 2.01c-.96.51-2.16.14-2.67-.82l-2.02-3.8 6.81 23.15c.3 1.04-.3 2.14-1.34 2.44l-7.79 2.29c-.68.2-1.38.02-1.87-.42zm69.29-61.41.3-.38c.68-.84 1.93-.97 2.77-.29l5.39 4.32c.85.68.98 1.92.3 2.77l-12.02 14.98c-.68.85-1.93.98-2.77.3l-21.05-16.88a1.97 1.97 0 0 1-.3-2.77l11.89-14.82c.68-.84 1.92-.97 2.77-.29l4.93 5.37c.58.63.66 1.54.28 2.25a2 2 0 0 1 1.92.31l4.89 3.92c.39.31.62.75.7 1.21z"/><path fill="#fff" fill-rule="nonzero" d="m152.69 312.19.93-.7-1.34-1.75 5.24-4.03 6.33 8.25-11.43 8.79a29.88 29.88 0 0 1-8.01-7.23c-3-3.91-4.12-7.31-3.34-10.23.4-1.51 1.15-2.92 2.24-4.23 1.1-1.32 2.62-2.72 4.57-4.22 1.95-1.5 3.7-2.6 5.25-3.3 1.55-.7 3.12-1.03 4.72-.99 3.07.03 6.26 2.21 9.58 6.52.68.89 1.48 2.11 2.4 3.68.91 1.57 1.51 2.77 1.79 3.61l-6.02 3c-1.11-2.1-2.23-3.89-3.38-5.39-1.15-1.49-2.07-2.45-2.76-2.88-.7-.43-1.39-.38-2.07.15l-9.69 7.44 1.74 2.26c.63.82 1.18 1.36 1.64 1.6.46.24.99.13 1.61-.35zm29.17 2.12-12.68 15.78 2.39 1.92c.85.68 1.52 1.04 2.01 1.09.48.03 1.03-.32 1.64-1.09l11.25-14 6.73 5.41-9.49 11.81c-1.53 1.91-2.89 3.35-4.08 4.31-1.18.97-2.43 1.59-3.76 1.86-1.31.26-2.69.09-4.11-.54-1.42-.62-3.05-1.68-4.91-3.18-1.87-1.5-3.25-2.86-4.15-4.11-.91-1.24-1.37-2.53-1.39-3.88-.03-1.35.31-2.7 1-4.07.68-1.36 1.8-3 3.33-4.91l9.49-11.81 6.73 5.41zm8.88 37.69-8.28-3.81 17.61-21.6 12.12 5.57-4.9 27.44-8.28-3.8.89-4.3-6.47-2.98-2.69 3.48zm11.72-15.19-4.76 6.13 3.61 1.65 1.58-7.58-.43-.2zm35.66 29.62-9.37-1.56-2.18-8.49-1.83-.31-1.31 7.92-8.52-1.41 4.42-26.62 13.41 2.23c6.1 1.01 8.64 4.63 7.61 10.84-.71 4.26-2.49 6.86-5.36 7.78l3.13 9.62zm-11.41-22.24-.88 5.32 1.96.33c1.02.17 1.78.19 2.29.05.5-.13.82-.59.94-1.35l.29-1.75c.13-.77-.03-1.3-.45-1.59-.44-.29-1.17-.51-2.19-.68l-1.96-.33zm26.93 22.64-9.11.15 6.54-27.09 13.33-.23 7.45 26.86-9.11.16-1.06-4.26-7.12.12-.92 4.29zm4-18.76-1.64 7.58 3.96-.07-1.85-7.52-.47.01zm37.12 12.53-9.04-7.33c-.31-.24-.64-.86-1-1.87l-.16.05 3.28 11.19-8.29 2.43-7.6-25.89 7.78-2.28 9.04 7.33c.31.24.65.86 1 1.86l.17-.04-3.29-11.19 8.28-2.43 7.61 25.88-7.78 2.29zm25.32-33.03-5.54 2.94 9.41 17.73-7.62 4.05-9.41-17.74-5.53 2.94-3.24-6.1 18.68-9.92 3.25 6.1zm22.46-6.2-6.42 5.77 2.19 2.44 7.86-7.06 4.62 5.14-14.29 12.84-18.03-20.08 14.13-12.69 3.81 5.86-6.9 6.2 2.43 2.7 6.41-5.77 4.19 4.65zm18.25-20.39-5.4 6.74 2.56 2.05 6.62-8.25 5.38 4.32-12.02 14.99-21.04-16.88 11.88-14.82 4.71 5.16-5.8 7.24 2.83 2.27 5.39-6.73 4.89 3.91z"/><path fill-rule="nonzero" d="M255.16 128.43c26.34 0 50.21 10.69 67.48 27.96 17.29 17.3 27.97 41.17 27.97 67.5s-10.68 50.2-27.96 67.48c-17.29 17.29-41.15 27.97-67.49 27.97-26.34 0-50.2-10.69-67.48-27.95-17.28-17.29-27.97-41.15-27.97-67.5s10.69-50.21 27.96-67.48c17.29-17.29 41.15-27.98 67.49-27.98z"/><path fill="url(#c)" d="M255.16 132.79c50.32 0 91.11 40.79 91.11 91.1 0 50.32-40.79 91.1-91.11 91.1-50.31 0-91.1-40.78-91.1-91.1 0-50.31 40.79-91.1 91.1-91.1z"/><path fill="#2A2A2A" d="m505.77 284.37-70.99 35.87c.89-20.82 6.43-29.03 15.23-35.81l-389.35.01c9.21 7.53 15.93 18.59 15.09 35.92L6.41 284.41c-3.6-.36-6.41-3.4-6.41-7.08 0-.49.05-.97.14-1.42l15.77-107.56c1.08-7.33 6.6-13.34 14.3-13.34h451.62c7.61 0 13.21 6.07 14.27 13.32l15.82 107.97c.57 3.88-2.12 7.49-6 8.06l-.15.01z"/><path fill="url(#d)" d="M30.21 162.12h451.62c3.98 0 6.69 3.48 7.24 7.24l15.82 107.97H7.12l15.82-107.95c.58-3.96 3.28-7.26 7.27-7.26z"/><path fill-rule="nonzero" d="M68.78 242.62H53.46l2.78-45.8h19.13l5.71 23.3h.52l5.71-23.3h19.13l2.79 45.8H93.91l-.88-22.2h-.51l-5.57 22.2H75.74l-5.65-22.2h-.44l-.87 22.2zm43.2-22.86c0-8.36 1.56-14.45 4.68-18.29 3.13-3.84 8.78-5.75 16.93-5.75 8.16 0 13.81 1.91 16.93 5.75 3.13 3.84 4.69 9.93 4.69 18.29 0 4.15-.33 7.64-.99 10.48-.66 2.83-1.79 5.3-3.41 7.4-1.61 2.1-3.83 3.64-6.67 4.61-2.83.98-6.34 1.47-10.55 1.47-4.2 0-7.71-.49-10.55-1.47-2.83-.97-5.06-2.51-6.67-4.61-1.61-2.1-2.75-4.57-3.41-7.4-.66-2.84-.98-6.33-.98-10.48zm15.75-7.63v19.06h6.08c2 0 3.46-.24 4.36-.7.91-.46 1.36-1.52 1.36-3.18v-19.06h-6.16c-1.95 0-3.38.24-4.29.7-.9.46-1.35 1.52-1.35 3.18zm58.96 30.49-11.21-16.27c-.39-.54-.64-1.71-.73-3.52h-.3v19.79h-14.66v-45.8h13.78l11.21 16.27c.39.53.64 1.71.74 3.52h.29v-19.79h14.66v45.8h-13.78zm49.87-17.3h-14.65v5.58h17.95v11.72h-32.61v-45.8h32.25l-1.84 11.72h-15.75v6.16h14.65v10.62zm21.52-28.5 4.03 16.12h.51l4.1-16.12h16.2l-13.19 33.34v12.46h-14.66v-12.46l-13.19-33.34h16.2zm38.4 45.8v-45.8h23.74c4.4 0 7.54.85 9.42 2.56s2.82 4.21 2.82 7.48c0 3.27-.6 5.8-1.8 7.58-1.19 1.79-2.79 2.95-4.8 3.48v.44c5.92 1.03 8.87 5.06 8.87 12.09 0 3.67-.97 6.61-2.93 8.83-1.95 2.23-4.96 3.34-9.01 3.34h-26.31zm20.37-18.24h-5.71v7.47h5.64c2.05 0 3.08-1.25 3.08-3.74s-1-3.73-3.01-3.73zm-1.1-17.52h-4.61v6.81h4.54c1.86 0 2.78-1.13 2.78-3.41 0-2.27-.9-3.4-2.71-3.4zm34.49 35.76h-15.47l11.87-45.8h22.65l11.87 45.8H365.7l-1.69-7.25h-12.09l-1.68 7.25zm7.33-31.73-3.01 12.82h6.74l-2.93-12.82h-.8zm56.25 18.61 1.09 12.31c-3.08 1.27-6.94 1.91-11.58 1.91s-8.36-.49-11.17-1.47c-2.81-.97-5.02-2.51-6.63-4.61-1.62-2.1-2.74-4.57-3.38-7.4-.63-2.84-.95-6.33-.95-10.48 0-4.16.32-7.66.95-10.52.64-2.86 1.76-5.34 3.38-7.44 3.12-4.05 8.87-6.08 17.22-6.08 1.85 0 4.04.18 6.56.55 2.51.36 4.38.82 5.6 1.36l-2.19 11.21c-3.18-.69-6.09-1.03-8.73-1.03-2.63 0-4.47.25-5.49.73-1.03.49-1.54 1.47-1.54 2.94v19.2c1.9.39 3.83.58 5.79.58 4.15 0 7.84-.58 11.07-1.76zm20.33-6.81v19.93h-14.66v-45.8h14.66v18.69h.29c.1-1.47.35-2.64.74-3.52l7.18-15.17h15.83l-10.99 22.5 11.36 23.3h-15.83l-7.55-16.41c-.39-.89-.64-2.06-.74-3.52h-.29zM216.79 117.5l-25.53 12.32c-1.17.57-2.57.08-3.14-1.09l-3.94-8.17a2.36 2.36 0 0 1 1.09-3.14l6.98-3.37-4.42-9.15-6.61 3.76c-1.13.64-2.56.24-3.2-.88L174 99.47c-.49-1.01-.19-2.19.65-2.86l10.46-8.33c.16-.12.34-.23.52-.31l7.99-3.86c1.17-.56 2.57-.07 3.14 1.1l10.44 21.63 3.6-1.75c1.17-.56 2.58-.07 3.14 1.1l3.94 8.17c.57 1.17.08 2.57-1.09 3.14zm3.02-5.73a16.99 16.99 0 0 1-2.06-2.8c-.59-.98-1.09-2.07-1.53-3.25-.4-1.09-.77-2.35-1.12-3.78-.33-1.38-.63-2.91-.9-4.59-.28-1.71-.48-3.26-.59-4.62-.12-1.4-.16-2.72-.12-3.94.03-1.27.18-2.46.42-3.57.24-1.14.61-2.25 1.08-3.31.5-1.12 1.18-2.14 2.03-3.06.83-.89 1.82-1.66 2.96-2.31 1.09-.63 2.33-1.16 3.72-1.6 1.31-.41 2.8-.76 4.48-1.03 1.63-.26 3.16-.41 4.57-.42 1.46-.02 2.8.09 4.01.34 1.27.26 2.45.68 3.51 1.26 1.09.59 2.06 1.34 2.9 2.25.79.85 1.49 1.79 2.09 2.81.6 1 1.11 2.09 1.53 3.27.4 1.13.77 2.39 1.1 3.78.31 1.34.61 2.88.89 4.6l.01.07c.28 1.71.47 3.23.59 4.56.12 1.39.17 2.7.14 3.92-.03 1.26-.17 2.45-.41 3.56-.25 1.14-.62 2.25-1.11 3.32-.51 1.13-1.19 2.15-2.03 3.04-.82.89-1.81 1.66-2.95 2.31-1.08.63-2.31 1.16-3.69 1.6l-.21.05c-1.29.4-2.72.73-4.27.98-1.63.26-3.16.4-4.58.42-1.48.02-2.82-.09-4.02-.32l-.22-.06c-1.21-.26-2.32-.67-3.32-1.21-1.08-.6-2.05-1.35-2.9-2.27zm9.54-23.3 2.14 13.28.03-.01c.74-.12 1.33-.25 1.78-.39l.38-.14-.04-.48-2.16-13.35-.32.05c-.7.11-1.27.24-1.7.38l-.18.06.07.6zm24.94 18.95c-.5-1.05-.89-2.14-1.17-3.27-.28-1.13-.45-2.32-.53-3.56-.06-1.18-.06-2.49.02-3.94.08-1.4.24-2.95.46-4.64.23-1.7.49-3.24.78-4.61.3-1.4.64-2.67 1.02-3.81.39-1.18.88-2.28 1.44-3.3.58-1.03 1.24-1.98 1.99-2.85.81-.94 1.76-1.72 2.83-2.34 1.05-.62 2.22-1.07 3.5-1.36 1.21-.28 2.55-.43 4.02-.45 1.41-.01 2.94.08 4.58.3 1.67.23 3.18.53 4.5.91 1.4.4 2.65.9 3.74 1.49 1.15.62 2.15 1.36 3.01 2.23.87.88 1.58 1.88 2.12 2.99l.08.18c.48 1 .84 2.03 1.11 3.11.28 1.13.45 2.33.51 3.58.06 1.18.04 2.49-.04 3.93-.09 1.41-.24 2.97-.47 4.66l-.01.08c-.22 1.67-.48 3.18-.76 4.53-.3 1.43-.63 2.69-.99 3.79-.38 1.17-.86 2.27-1.43 3.3-.59 1.04-1.26 2-2.01 2.85-.81.93-1.76 1.71-2.84 2.33a12.32 12.32 0 0 1-3.49 1.36c-1.19.28-2.52.43-3.99.45-1.41.02-2.94-.08-4.57-.3-1.68-.23-3.19-.53-4.51-.91-1.39-.4-2.65-.9-3.76-1.49-1.16-.62-2.17-1.37-3.03-2.23-.86-.88-1.57-1.88-2.11-3.01zm15.86-19.55-1.79 13.33h.03c.74.1 1.35.15 1.83.14l.4-.02.09-.46 1.79-13.42-.3-.04c-.72-.09-1.31-.14-1.76-.13h-.18l-.11.6zm66.14 13.22-11.91 7.88c1.46.29 3.03.86 4.71 1.7 1.88.94 3.41 1.99 4.58 3.14 1.29 1.26 2.17 2.65 2.63 4.17.46 1.48.55 3.09.27 4.81-.26 1.59-.85 3.29-1.75 5.1-.91 1.81-1.92 3.3-3.04 4.46-1.21 1.25-2.55 2.14-4.02 2.67-1.49.54-3.12.67-4.9.4l-.22-.04c-1.57-.27-3.25-.86-5.04-1.76-1.88-.94-3.42-1.99-4.59-3.14-1.28-1.26-2.16-2.65-2.63-4.16-.45-1.49-.54-3.1-.26-4.82.2-1.22.59-2.51 1.17-3.86l-7.83 5.18c-.96.6-1.81.92-2.55.93h-.02c-.44.01-.94-.08-1.48-.27-.35-.12-.79-.31-1.3-.57l-3.3-1.65a2.348 2.348 0 0 1-1.05-3.15c.19-.38.47-.68.8-.9l11.86-7.86c-1.4-.3-2.9-.85-4.5-1.65-1.88-.94-3.41-1.99-4.59-3.14-1.28-1.26-2.16-2.65-2.63-4.17-.45-1.48-.54-3.09-.26-4.82.26-1.59.84-3.29 1.75-5.09.9-1.81 1.92-3.3 3.03-4.46 1.21-1.25 2.55-2.14 4.02-2.67 1.49-.54 3.13-.67 4.91-.4l.22.04c1.56.27 3.25.86 5.04 1.76 1.88.94 3.41 1.99 4.59 3.14 1.28 1.26 2.16 2.65 2.62 4.16.46 1.49.55 3.1.27 4.82-.19 1.15-.54 2.35-1.07 3.62l7.57-5.01c.4-.26.76-.45 1.07-.59l.17-.07c.45-.17.89-.27 1.31-.28.45-.01.95.08 1.5.27.37.13.81.32 1.31.57l3.29 1.65c1.16.58 1.63 1.99 1.05 3.15-.19.38-.47.69-.8.91z"/><path fill="#fff" fill-rule="nonzero" d="m215.77 115.38-25.53 12.33-3.95-8.17 9.09-4.39-6.53-13.53-8.79 5-3.95-8.17 10.46-8.32 8.07-3.9 11.47 23.74 5.71-2.76 3.95 8.17zm5.78-5.2c-1.33-1.45-2.37-3.2-3.12-5.26-.76-2.06-1.39-4.71-1.92-7.94-.52-3.22-.75-5.93-.68-8.13.07-2.19.5-4.18 1.3-5.98.8-1.79 2.14-3.22 4.02-4.29 1.87-1.08 4.34-1.86 7.4-2.35 3.06-.5 5.64-.53 7.74-.1 2.1.42 3.82 1.36 5.16 2.81 1.35 1.45 2.39 3.2 3.12 5.27.74 2.06 1.37 4.72 1.89 7.96.53 3.25.76 5.96.71 8.13-.05 2.17-.48 4.15-1.3 5.95-.82 1.8-2.16 3.23-4.02 4.3-1.85 1.07-4.31 1.84-7.37 2.34-3.06.49-5.65.53-7.77.11-2.11-.43-3.84-1.36-5.16-2.82zm5.47-21.41 2.53 15.67 2.35-.38c1.68-.27 2.83-.64 3.44-1.1.62-.47.82-1.33.62-2.6l-2.54-15.67-2.63.42c-1.64.27-2.73.62-3.27 1.05-.55.43-.71 1.3-.5 2.61zm29.39 17.64c-.86-1.78-1.34-3.76-1.47-5.95-.13-2.19.03-4.91.46-8.15.43-3.24 1-5.9 1.7-7.98.69-2.08 1.69-3.86 2.97-5.35 1.29-1.49 2.98-2.47 5.09-2.95 2.1-.48 4.69-.52 7.76-.11 3.07.41 5.55 1.13 7.44 2.14 1.88 1.02 3.26 2.41 4.13 4.18.87 1.78 1.36 3.76 1.46 5.95.11 2.19-.05 4.91-.49 8.17-.43 3.26-.99 5.92-1.67 7.99-.67 2.06-1.66 3.84-2.97 5.32-1.3 1.48-3 2.47-5.08 2.95-2.09.49-4.67.52-7.74.11-3.07-.41-5.56-1.12-7.46-2.14-1.91-1.02-3.28-2.41-4.13-4.18zm11.42-18.93-2.1 15.74 2.36.31c1.68.23 2.89.21 3.61-.06.72-.26 1.17-1.03 1.34-2.31l2.1-15.73-2.64-.36c-1.65-.22-2.8-.2-3.44.06-.64.26-1.05 1.04-1.23 2.35zM335 99.13l-32.73 21.66c-.62.4-1.1.61-1.42.62-.32.01-.88-.19-1.7-.6l-3.29-1.65 32.72-21.66c.63-.4 1.1-.61 1.42-.62.32 0 .89.19 1.7.6l3.3 1.65zm-22.37 26.5c-.7-2.28-.26-5 1.33-8.18 1.59-3.18 3.51-5.17 5.75-5.97 2.24-.8 5.02-.37 8.33 1.29 3.31 1.66 5.32 3.62 6.02 5.9.7 2.27.25 5-1.34 8.17-1.59 3.18-3.51 5.17-5.75 5.97-2.24.8-5.01.37-8.32-1.29-3.32-1.65-5.32-3.62-6.02-5.89zm10.33-6.15-2.71 5.43 1.11.56c.71.35 1.2.5 1.46.44s.56-.42.9-1.1l2.72-5.43-1.12-.55c-.71-.36-1.19-.51-1.46-.45-.26.06-.56.43-.9 1.1zM296.95 99.7c-.7-2.27-.26-5 1.34-8.18 1.59-3.17 3.5-5.16 5.74-5.96 2.24-.8 5.02-.38 8.33 1.28 3.31 1.66 5.32 3.63 6.02 5.9.7 2.28.25 5-1.34 8.18-1.59 3.18-3.5 5.17-5.75 5.97-2.23.8-5.01.37-8.32-1.29-3.32-1.66-5.32-3.62-6.02-5.9zm10.34-6.14-2.72 5.42 1.11.56c.71.36 1.2.51 1.46.45s.57-.43.9-1.11l2.72-5.42-1.12-.56c-.71-.35-1.19-.5-1.45-.44-.27.06-.57.42-.9 1.1z"/></svg>