<svg xmlns="http://www.w3.org/2000/svg" shape-rendering="geometricPrecision" text-rendering="geometricPrecision" image-rendering="optimizeQuality" fill-rule="evenodd" clip-rule="evenodd" viewBox="0 0 512 447.66"><defs><linearGradient id="a" gradientUnits="userSpaceOnUse" x1="35.87" y1="227.66" x2="474.62" y2="227.62"><stop offset="0" stop-color="#FECA47"/><stop offset=".165" stop-color="#FED04F"/><stop offset=".259" stop-color="#FED757"/><stop offset=".69" stop-color="#E4B231"/><stop offset="1" stop-color="#E0AD2E"/></linearGradient><linearGradient id="b" gradientUnits="userSpaceOnUse" x1="104.65" y1="212.4" x2="401.31" y2="212.36"><stop offset="0" stop-color="#454545"/><stop offset=".82" stop-color="#353535"/><stop offset="1" stop-color="#252525"/></linearGradient><linearGradient id="c" gradientUnits="userSpaceOnUse" x1="255.16" y1="132.79" x2="255.2" y2="310.48"><stop offset="0" stop-color="#FCDB6F"/><stop offset="1" stop-color="#E8BA40"/></linearGradient><linearGradient id="d" gradientUnits="userSpaceOnUse" x1="7.12" y1="216.64" x2="763.95" y2="216.6"><stop offset="0" stop-color="#fff"/><stop offset=".631" stop-color="#F3F3F3"/><stop offset="1" stop-color="#E6E6E6"/></linearGradient></defs><path fill="#CF9114" fill-rule="nonzero" d="M288.58 10.61c5.34 3.38 10.84 8.08 16.75 13.12 7.42 6.33 15.55 13.26 24.48 18.37l.28.16c7.57 4.18 18.49 4.6 29.94 5.02 21.28.79 44.26 1.65 59.44 24.2 13.3 19.74 14.29 35.1 15.24 50.16l.09 1.29c.48 7.44 1.37 14.57 4.01 22.25 2.66 7.75 7.13 16.22 14.8 26.35 13.92 18.42 22.39 33.93 25.6 48.25 3.38 14.97 1.11 28.4-6.56 42.04-5.53 9.85-13.96 17.07-21.4 23.43-5.61 4.8-10.58 9.05-12.17 12.74l-.22.45c-3.83 9.12-3.96 17.63-4.09 26.37-.18 11.84-.37 24.09-8.21 39.53-4.98 9.83-11.35 18.01-19.03 24.57-7.76 6.63-16.85 11.6-27.21 14.93-9.17 2.95-17.82 2.34-26.03 1.75-6.94-.5-13.53-.97-18.61 1.16-10.51 4.44-19.95 12-28.81 19.1-9.79 7.83-18.96 15.18-29.12 18.34-7.41 2.31-15.02 3.47-22.59 3.47-7.58 0-15.19-1.16-22.61-3.46l-.3-.11c-10.04-3.21-19.12-10.48-28.8-18.23-8.86-7.11-18.3-14.67-28.81-19.08-5.13-2.16-11.7-1.68-18.62-1.19-8.21.59-16.85 1.2-26.03-1.75-10.35-3.33-19.44-8.3-27.2-14.93-7.68-6.56-14.05-14.74-19.03-24.57-7.84-15.44-8.03-27.69-8.21-39.53-.13-8.85-.27-17.47-4.3-26.82l-.14-.35c-1.74-3.57-6.59-7.73-12.05-12.39-7.43-6.36-15.87-13.57-21.4-23.43-7.66-13.64-9.94-27.07-6.56-42.04 3.22-14.32 11.68-29.83 25.6-48.25 7.67-10.14 12.15-18.61 14.81-26.35 2.64-7.68 3.52-14.81 4.01-22.25l.08-1.31c.96-15.05 1.95-30.4 15.24-50.14 15.18-22.55 38.16-23.41 59.45-24.2 11.59-.42 22.62-.85 30.21-5.18l.31-.17c8.76-5.05 16.82-11.92 24.18-18.21 5.9-5.03 11.41-9.73 16.74-13.11C232.87 3.54 243.97 0 255.16 0c11.18 0 22.29 3.54 33.42 10.61z"/><path fill="url(#a)" d="M285.36 15.69c11.79 7.48 25.07 22.26 41.47 31.63 23.06 13.18 65.78-5 87.66 27.5 12.76 18.95 13.36 33.81 14.31 48.49 1.03 15.84 3.81 30.41 20.01 51.84 26.84 35.49 32.43 59.12 18.6 83.73-9.42 16.78-29.27 26.1-33.87 36.74-9.77 22.61 1.04 39.66-12.34 66.02-9.29 18.29-23.62 30.34-42.71 36.49-16.1 5.18-32.25-2.32-45.14 3.1-22.65 9.52-39.36 31.64-57.38 37.23-13.63 4.23-28 4.23-41.62 0-18.03-5.59-34.73-27.71-57.38-37.23-12.89-5.42-29.05 2.08-45.14-3.1-19.09-6.15-33.43-18.2-42.71-36.49-13.39-26.36-2.58-43.41-12.35-66.02-4.59-10.64-24.44-19.96-33.87-36.74-13.82-24.61-8.23-48.24 18.6-83.73 16.21-21.43 18.98-36 20.01-51.84.95-14.68 1.56-29.54 14.31-48.49 21.88-32.5 64.6-14.32 87.67-27.5 16.4-9.37 29.67-24.15 41.47-31.63 20.3-12.89 40.1-12.89 60.4 0z"/><path fill-rule="nonzero" d="M255.16 54.69c46.72 0 89.03 18.94 119.65 49.56 30.61 30.62 49.55 72.92 49.55 119.64s-18.94 89.03-49.55 119.64c-30.62 30.62-72.93 49.56-119.65 49.56s-89.03-18.94-119.65-49.56c-30.61-30.61-49.56-72.92-49.56-119.64s18.95-89.02 49.57-119.64c30.61-30.62 72.92-49.56 119.64-49.56z"/><path fill="url(#b)" d="M255.16 56.67c92.35 0 167.22 74.87 167.22 167.22 0 92.36-74.87 167.22-167.22 167.22S87.94 316.25 87.94 223.89c0-92.35 74.87-167.22 167.22-167.22z"/><path fill-rule="nonzero" d="M157.33 303.76c.65-.06 1.31.2 1.74.76l6.34 8.24c.66.86.51 2.1-.35 2.76l-11.43 8.79c-.67.51-1.57.53-2.24.12a32.106 32.106 0 0 1-8.54-7.71c-1.64-2.12-2.78-4.16-3.4-6.07-.68-2.07-.77-4.03-.29-5.86l.02-.07c.24-.87.58-1.72 1.01-2.54.42-.8.97-1.61 1.61-2.37.59-.71 1.31-1.47 2.14-2.24.82-.75 1.74-1.53 2.74-2.29 1.01-.77 1.99-1.47 2.93-2.06.96-.61 1.87-1.11 2.7-1.48.9-.4 1.83-.71 2.76-.9.92-.19 1.87-.28 2.82-.26 1.94.04 3.86.7 5.77 2l.09.06c1.74 1.2 3.5 2.96 5.25 5.24l1.2 1.72 1.33 2.16c.82 1.51 1.3 2.42 1.96 3.96.33.97-.15 2.02-1.06 2.43l-5.96 2.97c-.97.48-2.16.09-2.64-.88l-1.57-2.75-1.61-2.32-1.4-1.67-.72-.65-1.2.91zm26.07 11.79-11.45 14.24 1.56 1.2 11.43-14.21a1.97 1.97 0 0 1 2.77-.3l6.73 5.41c.84.68.97 1.92.29 2.77l-9.49 11.81c-.78.98-1.55 1.86-2.26 2.62-.74.78-1.44 1.44-2.1 1.98-.69.57-1.43 1.05-2.2 1.43-1.6.79-3.31 1.15-5.09.92-1.89-.25-3.61-1.14-5.19-2.17-.88-.57-1.82-1.25-2.79-2.03-.97-.78-1.84-1.55-2.58-2.29-1.32-1.28-2.6-2.84-3.22-4.59-.59-1.69-.6-3.42-.19-5.14.21-.83.52-1.66.93-2.47.37-.73.86-1.56 1.48-2.46.58-.86 1.28-1.8 2.07-2.79l9.49-11.82c.68-.84 1.93-.97 2.77-.29l6.74 5.4c.84.68.98 1.93.3 2.78zm6.45 38.2-8.21-3.77a1.97 1.97 0 0 1-.97-2.6l.26-.43 17.62-21.6c.6-.74 1.64-.93 2.45-.49l12.01 5.51c.84.38 1.27 1.28 1.12 2.14l-4.89 27.44c-.19 1.07-1.23 1.78-2.3 1.59l-.65-.24-8.09-3.71a1.976 1.976 0 0 1-1.11-2.19l.56-2.77-3.62-1.67-1.74 2.24c-.58.76-1.62.97-2.44.55zm47.95 14.62-9.37-1.55c-.82-.14-1.44-.77-1.61-1.55l-.98-3.8-.47 2.84a1.962 1.962 0 0 1-2.26 1.62l-8.52-1.41a1.976 1.976 0 0 1-1.63-2.26l4.42-26.61a1.967 1.967 0 0 1 2.26-1.63l13.53 2.24c3.54.61 6.1 2.04 7.67 4.26 1.57 2.24 2.05 5.19 1.45 8.81l-.01.08c-.4 2.39-1.13 4.36-2.18 5.88-.75 1.08-1.65 1.94-2.69 2.57l2.58 7.96a1.965 1.965 0 0 1-2.19 2.55zm15.72.43-8.96.15c-1.09.01-1.99-.85-2-1.93l.07-.55 6.53-27.05c.21-.88 1-1.48 1.87-1.5l13.34-.23c.94-.01 1.74.64 1.95 1.51l7.42 26.8c.29 1.05-.32 2.13-1.37 2.42l-.49.07-9.11.15c-.95.02-1.76-.65-1.96-1.54l-.67-2.69-3.98.07-.59 2.76c-.21.96-1.09 1.62-2.05 1.56zm39.92-6.73-4.87-3.95 1.16 3.96c.31 1.04-.29 2.14-1.33 2.45l-8.29 2.43c-1.04.31-2.14-.29-2.45-1.33l-7.61-25.89c-.3-1.04.3-2.14 1.34-2.45l7.79-2.29c.68-.19 1.38-.01 1.87.43l4.88 3.95-1.17-3.96c-.31-1.04.29-2.14 1.34-2.45l8.28-2.44c.67-.19 1.37-.02 1.86.41.12-.53.47-1.01.99-1.29l18.68-9.92c.26-.14.54-.22.82-.23l.42-.55 14.13-12.69c.81-.72 2.06-.66 2.79.15l4 6.11c.46.71.4 1.62-.09 2.26.66-.12 1.36.09 1.84.62l4.19 4.65c.33.37.5.84.5 1.31l.34-.31c.81-.73 2.06-.66 2.79.14l4.62 5.14c.73.81.66 2.07-.14 2.79l-14.3 12.84c-.81.73-2.06.67-2.79-.14l-13-14.48c.09.79-.29 1.58-1.03 1.97l-3.79 2.02 8.49 15.98c.51.96.14 2.16-.82 2.67l-7.62 4.05c-.96.51-2.16.14-2.67-.82l-8.49-15.99-3.78 2.01c-.96.51-2.16.14-2.67-.82l-2.02-3.8 6.81 23.15c.3 1.04-.3 2.14-1.34 2.44l-7.79 2.29c-.68.2-1.38.02-1.87-.42zm69.29-61.41.3-.38c.68-.84 1.93-.97 2.77-.29l5.39 4.32c.85.68.98 1.92.3 2.77l-12.02 14.98c-.68.85-1.93.98-2.77.3l-21.05-16.88a1.97 1.97 0 0 1-.3-2.77l11.89-14.82c.68-.84 1.92-.97 2.77-.29l4.93 5.37c.58.63.66 1.54.28 2.25a2 2 0 0 1 1.92.31l4.89 3.92c.39.31.62.75.7 1.21z"/><path fill="#fff" fill-rule="nonzero" d="m152.69 312.19.93-.7-1.34-1.75 5.24-4.03 6.33 8.25-11.43 8.79a29.88 29.88 0 0 1-8.01-7.23c-3-3.91-4.12-7.31-3.34-10.23.4-1.51 1.15-2.92 2.24-4.23 1.1-1.32 2.62-2.72 4.57-4.22 1.95-1.5 3.7-2.6 5.25-3.3 1.55-.7 3.12-1.03 4.72-.99 3.07.03 6.26 2.21 9.58 6.52.68.89 1.48 2.11 2.4 3.68.91 1.57 1.51 2.77 1.79 3.61l-6.02 3c-1.11-2.1-2.23-3.89-3.38-5.39-1.15-1.49-2.07-2.45-2.76-2.88-.7-.43-1.39-.38-2.07.15l-9.69 7.44 1.74 2.26c.63.82 1.18 1.36 1.64 1.6.46.24.99.13 1.61-.35zm29.17 2.12-12.68 15.78 2.39 1.92c.85.68 1.52 1.04 2.01 1.09.48.03 1.03-.32 1.64-1.09l11.25-14 6.73 5.41-9.49 11.81c-1.53 1.91-2.89 3.35-4.08 4.31-1.18.97-2.43 1.59-3.76 1.86-1.31.26-2.69.09-4.11-.54-1.42-.62-3.05-1.68-4.91-3.18-1.87-1.5-3.25-2.86-4.15-4.11-.91-1.24-1.37-2.53-1.39-3.88-.03-1.35.31-2.7 1-4.07.68-1.36 1.8-3 3.33-4.91l9.49-11.81 6.73 5.41zm8.88 37.69-8.28-3.81 17.61-21.6 12.12 5.57-4.9 27.44-8.28-3.8.89-4.3-6.47-2.98-2.69 3.48zm11.72-15.19-4.76 6.13 3.61 1.65 1.58-7.58-.43-.2zm35.66 29.62-9.37-1.56-2.18-8.49-1.83-.31-1.31 7.92-8.52-1.41 4.42-26.62 13.41 2.23c6.1 1.01 8.64 4.63 7.61 10.84-.71 4.26-2.49 6.86-5.36 7.78l3.13 9.62zm-11.41-22.24-.88 5.32 1.96.33c1.02.17 1.78.19 2.29.05.5-.13.82-.59.94-1.35l.29-1.75c.13-.77-.03-1.3-.45-1.59-.44-.29-1.17-.51-2.19-.68l-1.96-.33zm26.93 22.64-9.11.15 6.54-27.09 13.33-.23 7.45 26.86-9.11.16-1.06-4.26-7.12.12-.92 4.29zm4-18.76-1.64 7.58 3.96-.07-1.85-7.52-.47.01zm37.12 12.53-9.04-7.33c-.31-.24-.64-.86-1-1.87l-.16.05 3.28 11.19-8.29 2.43-7.6-25.89 7.78-2.28 9.04 7.33c.31.24.65.86 1 1.86l.17-.04-3.29-11.19 8.28-2.43 7.61 25.88-7.78 2.29zm25.32-33.03-5.54 2.94 9.41 17.73-7.62 4.05-9.41-17.74-5.53 2.94-3.24-6.1 18.68-9.92 3.25 6.1zm22.46-6.2-6.42 5.77 2.19 2.44 7.86-7.06 4.62 5.14-14.29 12.84-18.03-20.08 14.13-12.69 3.81 5.86-6.9 6.2 2.43 2.7 6.41-5.77 4.19 4.65zm18.25-20.39-5.4 6.74 2.56 2.05 6.62-8.25 5.38 4.32-12.02 14.99-21.04-16.88 11.88-14.82 4.71 5.16-5.8 7.24 2.83 2.27 5.39-6.73 4.89 3.91z"/><path fill-rule="nonzero" d="M255.16 128.43c26.34 0 50.21 10.69 67.48 27.96 17.29 17.3 27.97 41.17 27.97 67.5s-10.68 50.2-27.96 67.48c-17.29 17.29-41.15 27.97-67.49 27.97-26.34 0-50.2-10.69-67.48-27.95-17.28-17.29-27.97-41.15-27.97-67.5s10.69-50.21 27.96-67.48c17.29-17.29 41.15-27.98 67.49-27.98z"/><path fill="url(#c)" d="M255.16 132.79c50.32 0 91.11 40.79 91.11 91.1 0 50.32-40.79 91.1-91.11 91.1-50.31 0-91.1-40.78-91.1-91.1 0-50.31 40.79-91.1 91.1-91.1z"/><path fill="#2A2A2A" d="m505.77 284.37-70.99 35.87c.89-20.82 6.43-29.03 15.23-35.81l-389.35.01c9.21 7.53 15.93 18.59 15.09 35.92L6.41 284.41c-3.6-.36-6.41-3.4-6.41-7.08 0-.49.05-.97.14-1.42l15.77-107.56c1.08-7.33 6.6-13.34 14.3-13.34h451.62c7.61 0 13.21 6.07 14.27 13.32l15.82 107.97c.57 3.88-2.12 7.49-6 8.06l-.15.01z"/><path fill="url(#d)" d="M30.21 162.12h451.62c3.98 0 6.69 3.48 7.24 7.24l15.82 107.97H7.12l15.82-107.95c.58-3.96 3.28-7.26 7.27-7.26z"/><path fill-rule="nonzero" d="M68.78 242.62H53.46l2.78-45.8h19.13l5.71 23.3h.52l5.71-23.3h19.13l2.79 45.8H93.91l-.88-22.2h-.51l-5.57 22.2H75.74l-5.65-22.2h-.44l-.87 22.2zm43.2-22.86c0-8.36 1.56-14.45 4.68-18.29 3.13-3.84 8.78-5.75 16.93-5.75 8.16 0 13.81 1.91 16.93 5.75 3.13 3.84 4.69 9.93 4.69 18.29 0 4.15-.33 7.64-.99 10.48-.66 2.83-1.79 5.3-3.41 7.4-1.61 2.1-3.83 3.64-6.67 4.61-2.83.98-6.34 1.47-10.55 1.47-4.2 0-7.71-.49-10.55-1.47-2.83-.97-5.06-2.51-6.67-4.61-1.61-2.1-2.75-4.57-3.41-7.4-.66-2.84-.98-6.33-.98-10.48zm15.75-7.63v19.06h6.08c2 0 3.46-.24 4.36-.7.91-.46 1.36-1.52 1.36-3.18v-19.06h-6.16c-1.95 0-3.38.24-4.29.7-.9.46-1.35 1.52-1.35 3.18zm58.96 30.49-11.21-16.27c-.39-.54-.64-1.71-.73-3.52h-.3v19.79h-14.66v-45.8h13.78l11.21 16.27c.39.53.64 1.71.74 3.52h.29v-19.79h14.66v45.8h-13.78zm49.87-17.3h-14.65v5.58h17.95v11.72h-32.61v-45.8h32.25l-1.84 11.72h-15.75v6.16h14.65v10.62zm21.52-28.5 4.03 16.12h.51l4.1-16.12h16.2l-13.19 33.34v12.46h-14.66v-12.46l-13.19-33.34h16.2zm38.4 45.8v-45.8h23.74c4.4 0 7.54.85 9.42 2.56s2.82 4.21 2.82 7.48c0 3.27-.6 5.8-1.8 7.58-1.19 1.79-2.79 2.95-4.8 3.48v.44c5.92 1.03 8.87 5.06 8.87 12.09 0 3.67-.97 6.61-2.93 8.83-1.95 2.23-4.96 3.34-9.01 3.34h-26.31zm20.37-18.24h-5.71v7.47h5.64c2.05 0 3.08-1.25 3.08-3.74s-1-3.73-3.01-3.73zm-1.1-17.52h-4.61v6.81h4.54c1.86 0 2.78-1.13 2.78-3.41 0-2.27-.9-3.4-2.71-3.4zm34.49 35.76h-15.47l11.87-45.8h22.65l11.87 45.8H365.7l-1.69-7.25h-12.09l-1.68 7.25zm7.33-31.73-3.01 12.82h6.74l-2.93-12.82h-.8zm56.25 18.61 1.09 12.31c-3.08 1.27-6.94 1.91-11.58 1.91s-8.36-.49-11.17-1.47c-2.81-.97-5.02-2.51-6.63-4.61-1.62-2.1-2.74-4.57-3.38-7.4-.63-2.84-.95-6.33-.95-10.48 0-4.16.32-7.66.95-10.52.64-2.86 1.76-5.34 3.38-7.44 3.12-4.05 8.87-6.08 17.22-6.08 1.85 0 4.04.18 6.56.55 2.51.36 4.38.82 5.6 1.36l-2.19 11.21c-3.18-.69-6.09-1.03-8.73-1.03-2.63 0-4.47.25-5.49.73-1.03.49-1.54 1.47-1.54 2.94v19.2c1.9.39 3.83.58 5.79.58 4.15 0 7.84-.58 11.07-1.76zm20.33-6.81v19.93h-14.66v-45.8h14.66v18.69h.29c.1-1.47.35-2.64.74-3.52l7.18-15.17h15.83l-10.99 22.5 11.36 23.3h-15.83l-7.55-16.41c-.39-.89-.64-2.06-.74-3.52h-.29zM175.19 113.53l-.54.37c-.9.61-1.85 1.36-2.84 2.24-1.02.9-2.13 1.98-3.32 3.22-.78.81-2.08.84-2.89.06l-5.45-5.58a2.05 2.05 0 0 1-.06-2.78c1.41-1.77 2.87-3.38 4.39-4.82 1.56-1.48 3.2-2.81 4.9-3.97 1.43-.98 2.7-1.78 3.82-2.42 1.16-.65 2.18-1.13 3.05-1.43.83-.29 1.6-.5 2.3-.63.79-.14 1.5-.19 2.12-.14l.2.02c1.32.17 2.55.64 3.68 1.41 1.11.76 2.12 1.8 3.03 3.13 1.17 1.72 1.83 3.47 1.96 5.26.06.79.02 1.59-.13 2.38 1.01.07 1.97.28 2.87.65 1.8.73 3.34 2.03 4.62 3.9.58.84 1.05 1.69 1.43 2.53.38.86.66 1.72.82 2.57.15.82.22 1.61.2 2.36-.02.8-.13 1.55-.33 2.25-.2.69-.5 1.37-.88 2.05-.37.66-.82 1.32-1.36 1.97l-.15.17c-.77.89-1.72 1.81-2.86 2.77-1.18.99-2.59 2.04-4.21 3.15a50.37 50.37 0 0 1-5.09 3.05 52.16 52.16 0 0 1-5.48 2.49c-1.01.39-2.14-.08-2.59-1.05l-3.6-7.82a2.04 2.04 0 0 1 1-2.71l.15-.06c1.5-.57 2.84-1.15 4.02-1.73 1.16-.57 2.18-1.15 3.03-1.74l.61-.41-3.5 1.91c-.93.51-2.08.22-2.67-.64l-4.21-6.15c-.6-.89-.41-2.09.42-2.75l3.54-3.08zm27.39 5.86c-.85-.61-1.63-1.31-2.34-2.09l-.11-.13c-.68-.75-1.3-1.58-1.84-2.46-.57-.9-1.13-1.96-1.7-3.15-.55-1.17-1.1-2.47-1.65-3.89-.53-1.4-.99-2.73-1.36-3.99-.38-1.27-.67-2.43-.85-3.48a17.5 17.5 0 0 1-.27-3.22c.01-1.1.12-2.13.33-3.12a9.96 9.96 0 0 1 1.24-3.07c.56-.93 1.29-1.79 2.18-2.58.86-.75 1.86-1.45 2.99-2.09 1.11-.63 2.37-1.21 3.78-1.75 1.38-.52 2.7-.93 3.97-1.21 1.27-.28 2.48-.43 3.6-.43 2.38-.02 4.48.62 6.3 1.91.85.61 1.64 1.31 2.36 2.09.7.78 1.35 1.65 1.94 2.61.55.9 1.11 1.96 1.67 3.16.57 1.21 1.12 2.51 1.65 3.9.54 1.42 1.01 2.76 1.38 4 .37 1.23.65 2.38.85 3.44.2 1.09.29 2.17.28 3.22-.01 1.08-.13 2.12-.35 3.13-.5 2.18-1.63 4.06-3.41 5.64l-.12.1c-.82.71-1.77 1.37-2.85 1.98-1.11.63-2.37 1.21-3.77 1.74-1.38.53-2.71.94-3.98 1.22-1.28.28-2.49.43-3.61.44-1.2.01-2.32-.14-3.35-.45l-.11-.04c-1.02-.32-1.97-.8-2.85-1.43zm3.99-22.41 4.42 11.53.11-.05c.63-.24 1.14-.47 1.51-.68l.37-.23a3.2 3.2 0 0 0-.14-.48l-4.43-11.53-.34.14c-.64.24-1.13.46-1.47.65l-.2.12c.03.14.09.32.17.53zm29.36 13.06-.03-32.13c0-1.13.92-2.04 2.04-2.04l14.4-.01c3.11-.01 5.75.33 7.93 1 2.36.73 4.2 1.86 5.54 3.39 1.29 1.47 2.25 3.39 2.87 5.76.59 2.22.88 4.87.88 7.94 0 2.92-.26 5.46-.78 7.62l11.42-22.36c.43-.85 1.37-1.26 2.26-1.07l15.51 3.45c.93.2 1.58 1.03 1.6 1.94l1.16 33.17c.03 1.12-.85 2.07-1.98 2.1-.18.01-.36-.01-.53-.05l-10.57-2.35a2.047 2.047 0 0 1-1.6-2.04l-.03-3.54-5.12-1.13-1.55 3.24a2.05 2.05 0 0 1-2.29 1.12l-10.59-2.36a2.038 2.038 0 0 1-1.33-3l.31-.62c-1.29 1.33-3.01 2.32-5.15 2.99l-.1.03c-2.16.65-4.77.98-7.83.98l-14.4.02c-1.13 0-2.04-.92-2.04-2.05zm16.57-21.87h-2.22l.01 11.6h2.22c.62-.01 1.12-.04 1.49-.1l.45-.1c.02-.12.03-.29.03-.49l-.01-10.23-.04-.5-.42-.09c-.42-.06-.92-.09-1.51-.09zm68.93 5.06-1.06 4.15 2.91-3.16c.64-.7 1.67-.84 2.47-.41l10 5.4a2.042 2.042 0 0 1 .22 3.46l-18.83 15.83-3.97 7.36c-.54.99-1.78 1.36-2.77.83l-9.05-4.89a2.042 2.042 0 0 1-.83-2.77l3.97-7.35 2.92-24.59a2.053 2.053 0 0 1 2.27-1.8c.3.04.58.14.82.28l9.91 5.36c.85.45 1.24 1.41 1.02 2.3zm-2.56 34.03 6.52-5.43c.87-.72 2.15-.6 2.87.26l.1.13c.7.97 1.39 1.87 2.07 2.69-.86-1.53-1.34-3-1.41-4.4-.08-1.44.18-2.89.78-4.34.57-1.36 1.45-2.74 2.63-4.11 1.56-1.83 3.1-3.22 4.62-4.16 1.66-1.04 3.32-1.56 4.97-1.57 1.58-.01 3.27.43 5.04 1.3 1.65.82 3.41 2.02 5.27 3.61 1.78 1.53 3.42 3.07 4.88 4.62 1.49 1.57 2.81 3.14 3.98 4.73.64.87.48 2.09-.34 2.78l-6.31 5.4c-.86.73-2.15.63-2.88-.23l-1.08-1.24c.82 1.5 1.28 2.93 1.4 4.28.12 1.5-.09 2.98-.64 4.45-.53 1.4-1.36 2.76-2.5 4.09-.77.91-1.55 1.7-2.34 2.36a13.7 13.7 0 0 1-2.47 1.71c-.8.43-1.58.76-2.35 1.01-.79.26-1.56.41-2.29.45-.76.04-1.55-.03-2.35-.22l-.1-.02c-.73-.18-1.49-.46-2.27-.82l-.11-.05c-.72-.34-1.37-.67-1.94-1-.62-.36-1.2-.73-1.73-1.12-.52-.38-1.07-.8-1.62-1.24-.6-.48-1.25-1.03-1.97-1.65a62.716 62.716 0 0 1-4.84-4.59 50.92 50.92 0 0 1-4.02-4.83c-.67-.9-.47-2.18.43-2.85z"/><path fill="#fff" fill-rule="nonzero" d="m179.64 112.37-1.88-2.76c-.95.43-2.37 1.3-4.26 2.6-1.9 1.29-4.06 3.2-6.49 5.73l-5.39-5.53c2.72-3.43 5.69-6.25 8.91-8.46 2.78-1.89 4.9-3.09 6.38-3.6 1.48-.52 2.68-.73 3.6-.66 2.06.21 3.85 1.44 5.38 3.68 1.93 2.83 2.15 5.67.65 8.52l.15.21c3.59-.76 6.43.4 8.52 3.45 1.03 1.5 1.67 2.94 1.93 4.32.25 1.38.23 2.61-.08 3.67s-.93 2.16-1.86 3.29c-1.4 1.66-3.66 3.56-6.79 5.7a49.54 49.54 0 0 1-10.16 5.32l-3.59-7.81c3.13-1.19 5.63-2.42 7.5-3.7 1.86-1.28 3.41-2.45 4.62-3.53l-1.86-2.72-7.79 4.27-4.21-6.16 6.72-5.83zm24.13 5.36c-1.45-1.04-2.69-2.41-3.75-4.1-1.05-1.69-2.1-3.92-3.16-6.69-1.06-2.77-1.77-5.13-2.11-7.09-.35-1.96-.33-3.81.05-5.55.37-1.74 1.3-3.26 2.77-4.56 1.46-1.3 3.51-2.45 6.13-3.45 2.63-1.01 4.91-1.51 6.85-1.52 1.95-.01 3.65.5 5.11 1.54 1.46 1.04 2.71 2.4 3.74 4.1 1.04 1.69 2.09 3.93 3.16 6.72 1.06 2.78 1.77 5.15 2.13 7.08.36 1.94.34 3.78-.06 5.53-.39 1.75-1.32 3.27-2.77 4.56-1.45 1.29-3.49 2.44-6.11 3.44-2.63 1.01-4.92 1.52-6.88 1.53-1.95.02-3.66-.5-5.1-1.54zm.89-20.02 5.15 13.44 2.02-.77c1.44-.55 2.39-1.09 2.85-1.62.46-.52.48-1.33.06-2.42l-5.15-13.44-2.25.86c-1.41.54-2.32 1.05-2.72 1.54-.4.48-.39 1.28.04 2.41zm33.31 12.33-.03-32.13 14.4-.01c5.79-.01 9.77 1.22 11.93 3.69 2.17 2.47 3.25 6.59 3.25 12.36.01 5.78-1.07 9.9-3.23 12.37-2.16 2.47-6.13 3.71-11.92 3.71l-14.4.01zm14.53-23.92-4.27.01.02 15.68h4.26c1.41 0 2.43-.17 3.06-.49.64-.33.95-1.08.95-2.24l-.01-10.23c0-1.17-.31-1.92-.95-2.24-.63-.32-1.65-.49-3.06-.49zm25 25.93-10.59-2.35 15.1-29.56 15.52 3.44 1.16 33.18-10.59-2.35-.05-5.23-8.29-1.84-2.26 4.71zm9.85-20.62-4.01 8.33 4.62 1.03-.05-9.23-.56-.13zm32.09 1.3-2.88 11.29.31.18 7.91-8.59 10 5.4-19.26 16.19-4.15 7.69-9.05-4.89 4.15-7.69 2.97-24.98 10 5.4zm.64 36.18 6.61-5.51c1.89 2.65 3.79 4.79 5.7 6.43 1.91 1.64 3.52 2.88 4.83 3.73l1.67-1.95-3.25-3.33c-2.93-3-4.46-5.63-4.58-7.88-.13-2.25.84-4.59 2.92-7.01 2.85-3.34 5.54-5.01 8.05-5.02 2.52-.01 5.51 1.46 8.97 4.43 3.46 2.96 6.31 5.96 8.54 9l-6.33 5.41c-2.09-2.46-3.86-4.32-5.32-5.56-1.46-1.25-2.75-2.25-3.88-2.99l-1.63 1.92 2.57 2.68c3.13 3.26 4.79 6.09 4.99 8.49.19 2.41-.69 4.75-2.65 7.04-1.4 1.65-2.81 2.84-4.23 3.6-1.41.75-2.67 1.16-3.78 1.22-1.12.06-2.37-.23-3.76-.88-1.38-.64-2.53-1.29-3.43-1.95-.9-.66-2.06-1.6-3.46-2.8-3.39-2.9-6.23-5.92-8.55-9.07z"/></svg>