<svg xmlns="http://www.w3.org/2000/svg" shape-rendering="geometricPrecision" text-rendering="geometricPrecision" image-rendering="optimizeQuality" fill-rule="evenodd" clip-rule="evenodd" viewBox="0 0 512 395.92"><path d="M409.19 190.32c56.77 0 102.81 46.03 102.81 102.79 0 56.77-46.04 102.81-102.81 102.81-56.75 0-102.79-46.04-102.79-102.81 0-56.76 46.04-102.79 102.79-102.79zM30.98 0h441.51c17.03 0 30.93 13.9 30.93 30.93v165.61a135.92 135.92 0 0 0-21.89-17.36v-26.67H21.94v170.91c0 7.16 5.91 13.06 13.06 13.06h246.33c2.6 7.63 5.87 14.95 9.73 21.9H30.98C13.95 358.38 0 344.49 0 327.45V30.98C0 13.9 13.9 0 30.98 0zm47.1 290.53c-7.12 0-12.89-5.77-12.89-12.89 0-7.11 5.77-12.89 12.89-12.89h117.28c7.12 0 12.89 5.78 12.89 12.89 0 7.12-5.77 12.89-12.89 12.89H78.08zm0-61.87c-7.12 0-12.89-5.78-12.89-12.89 0-7.12 5.77-12.89 12.89-12.89h35.08c7.12 0 12.89 5.77 12.89 12.89 0 7.11-5.77 12.89-12.89 12.89H78.08zm74.1 0c-7.12 0-12.89-5.78-12.89-12.89 0-7.12 5.77-12.89 12.89-12.89h25.55c7.12 0 12.89 5.77 12.89 12.89 0 7.11-5.77 12.89-12.89 12.89h-25.55zm66.7 0c-7.12 0-12.89-5.78-12.89-12.89 0-7.12 5.77-12.89 12.89-12.89h25.42c7.11 0 12.89 5.77 12.89 12.89 0 7.11-5.78 12.89-12.89 12.89h-25.42zM21.94 69.15h459.54V35c0-7.15-5.91-13.06-13.06-13.06H35c-7.15 0-13.06 5.91-13.06 13.06v34.15zM463.33 282.7v20.83a7.755 7.755 0 0 1-7.73 7.73h-28.26v28.26c-.01 4.26-3.47 7.72-7.73 7.72h-20.83c-4.26-.01-7.71-3.47-7.72-7.72v-28.26h-28.27c-4.26-.02-7.71-3.48-7.72-7.73V282.7c.02-4.26 3.47-7.7 7.72-7.72h28.27v-28.27c.02-4.26 3.47-7.7 7.72-7.72h20.83c4.26.01 7.71 3.45 7.73 7.72v28.27h28.26c4.25.01 7.71 3.45 7.73 7.72z"/></svg>