<svg xmlns="http://www.w3.org/2000/svg" shape-rendering="geometricPrecision" text-rendering="geometricPrecision" image-rendering="optimizeQuality" fill-rule="evenodd" clip-rule="evenodd" viewBox="0 0 512 237.83"><g fill-rule="nonzero"><path d="M91.21 116.87 191.52 8.18l.02.02c2.44-2.66 5.95-4.33 9.84-4.33 91.04-.09 184.91-2.45 275.59-.29 9.93.21 18.73 4.28 25.02 10.78 6.29 6.48 10.07 15.33 10.01 25.15-.32 53.33-1.22 106.74-1.84 160.07-.01.58-.02 1.16-.02 1.74.28 9.92-3.56 19.59-10.86 26.54-6.11 5.83-14.37 9.48-23.39 9.9-1.29.13-2.43.04-3.71.03l-270.31-2.34c-3.5.13-7.05-1.11-9.78-3.73L92 135.82c-5.45-5.01-5.8-13.5-.79-18.95z"/><path fill="#FD5" d="m201.38 17.25-37.57 40.72c6.44 10.84 12.3 23.38 17.37 37.77.79-.09 1.6-.14 2.42-.16 6.9-.21 12.97 2.08 18.19 6.87 4.92 4.76 7.44 10.65 7.58 17.62.08 6.97-2.25 12.94-7.01 17.87-4.63 5.05-10.48 7.66-17.51 7.87-7.01.18-13-2.11-17.96-6.91-5.07-4.89-7.68-10.8-7.79-17.81-.1-6.31 1.81-11.81 5.74-16.46-4.24-12.08-9.09-22.79-14.38-32.2l-49.38 53.52 100.3 96.12 272.57 2.36c12.44.1 22.87-9.46 22.79-22.07l1.87-162.61c.24-12.6-9.47-22.61-22.06-22.79l-275.17.29z"/><path d="M272.33 176.11h-11.07v12.86h-17.04v-53.23h26.83c12.21 0 18.32 6.55 18.32 19.67 0 7.21-1.59 12.55-4.77 16.02-1.2 1.3-2.84 2.41-4.94 3.32-2.11.91-4.55 1.36-7.33 1.36zm-27.54-59.21V55.59h31.79c5.88 0 10.09 1.14 12.6 3.43 2.52 2.29 3.78 5.63 3.78 10.01s-.8 7.77-2.4 10.15c-1.6 2.39-3.75 3.94-6.43 4.66v.59C292.04 85.8 296 91.2 296 100.62c0 4.9-1.31 8.84-3.92 11.82-2.62 2.97-6.64 4.46-12.07 4.46h-35.22zm27.27-25.37h-8.54v11.89h8.45c2.74 0 4.12-2.61 4.12-5.94 0-3.34-1.35-5.95-4.03-5.95zm-1.47-23.44h-7.07v11h6.98c2.48 0 3.72-2.46 3.72-5.5s-1.22-5.5-3.63-5.5zm71.52 24.72h-19.62v9.34h24.03v14.75h-43.65V55.59h43.16l-2.45 14.75h-21.09v10.13h19.62v12.34zm10.3 23.01 2.75-15.24c6.01 1.5 11.42 2.25 16.23 2.25 4.81 0 8.68-.19 11.63-.59v-6.78l-8.83-.79c-7.98-.71-13.46-1.69-16.43-4.79-2.98-3.11-4.47-7.71-4.47-13.79 0-8.37 1.82-14.12 5.45-17.26 3.63-3.14 9.79-4.71 18.49-4.71s16.55.82 23.54 2.45l-2.45 14.75c-6.08-.98-10.95-1.47-14.62-1.47-3.66 0-6.76.17-9.32.49v6.69l7.07.69c8.57.83 14.48 1.96 17.75 5.19 3.27 3.24 4.91 7.73 4.91 13.49 0 4.12-.56 7.6-1.67 10.45-1.11 2.84-2.44 5-3.97 6.47-1.54 1.47-3.71 2.6-6.53 3.39-2.81.78-5.28 1.26-7.4 1.42-2.13.16-4.96.24-8.49.24-8.5 0-16.38-.85-23.64-2.55zm102.71-44.53H440.9v45.61h-19.62V71.29h-14.23v-15.7h48.07v15.7zm-193.86 77.14v14.98h3.91c2.05 0 3.54-.21 4.48-.64.93-.43 1.4-1.4 1.4-2.94v-7.82c0-1.53-.47-2.51-1.4-2.94-.94-.42-2.44-.64-4.48-.64h-3.91zm79.64 40.54h-18.74l-6.98-15.84h-3.67v15.84h-17.03v-53.23h26.83c12.21 0 18.31 6.21 18.31 18.65 0 8.52-2.64 14.14-7.92 16.87l9.2 17.71zm-29.39-40.54v12.51h3.92c2.05 0 3.54-.21 4.47-.64.94-.42 1.41-1.4 1.41-2.94v-5.35c0-1.53-.47-2.51-1.41-2.94-.93-.42-2.43-.64-4.47-.64h-3.92zm35.35 40.54v-53.23h17.04v53.23h-17.04zm60.91-15.24 1.28 14.31c-3.58 1.47-8.07 2.21-13.46 2.21-5.4 0-9.73-.57-12.99-1.7-3.27-1.14-5.84-2.93-7.71-5.37-1.88-2.44-3.18-5.31-3.92-8.6-.74-3.3-1.11-7.36-1.11-12.18 0-4.83.37-8.91 1.11-12.23.74-3.32 2.04-6.2 3.92-8.64 3.63-4.72 10.3-7.07 20.01-7.07 2.16 0 4.7.21 7.63.63 2.92.43 5.09.96 6.52 1.58l-2.56 13.03c-3.69-.79-7.07-1.19-10.14-1.19-3.07 0-5.19.29-6.39.85-1.19.57-1.78 1.71-1.78 3.41v22.32c2.21.45 4.45.68 6.72.68 4.83 0 9.12-.68 12.87-2.04zm41.31-5.79h-17.03v8.33h20.87v12.7h-37.91v-53.23h37.48l-2.13 12.69h-18.31v9.02h17.03v10.49zm-269.46 49.19C76.45 190.24 16.94 137.03 4.06 97.64-5.37 68.82 2.4 42.35 19.43 24.2 36.28 6.24 62.28-3.41 89.56 1.11c34.06 5.64 70.04 33.31 91.62 94.63.79-.09 1.6-.14 2.42-.16 6.9-.21 12.97 2.08 18.19 6.87 4.92 4.76 7.44 10.65 7.58 17.62.08 6.97-2.25 12.94-7.01 17.87-4.63 5.05-10.48 7.66-17.51 7.87-7.01.18-13-2.11-17.96-6.91-5.07-4.89-7.68-10.8-7.79-17.81-.1-6.31 1.81-11.81 5.74-16.46-18.96-54.03-50.08-80.72-78.23-85.38-21.01-3.48-40.95 3.86-53.8 17.55-12.66 13.5-18.39 33.36-11.26 55.16 11.27 34.46 53.47 73.55 147.58 102.58l10.49 22.59z"/></g></svg>