<svg xmlns="http://www.w3.org/2000/svg" shape-rendering="geometricPrecision" text-rendering="geometricPrecision" image-rendering="optimizeQuality" fill-rule="evenodd" clip-rule="evenodd" viewBox="0 0 512 488.61"><g fill-rule="nonzero"><path fill="#F39D00" d="m362.3 35.53-.36-.22c-20.33 6.91-28.74-13.72-36.34-22.29 9.25.39 25.45-6.8 40.17 13.74.4.1.79.24 1.16.45l3.47 1.97c-4.17-10.07-1.47-21.1-.98-29.18 5.15 7.01 26.66 26.04 16.24 38.82 2.88 1.98 5.71 4.03 8.49 6.15-3.4-12.08 1.17-25.52 2.56-30.82 4.48 6.26 22.44 29.76 9.76 40.88 4.17 3.67 8.21 7.49 12.11 11.45-1.98-11.93 4.51-22.77 7.24-29.44 2.77 5.53 19.33 33.22 4.33 42.15 2.68 3.18 5.27 6.44 7.77 9.77-.38-12.14 7.66-21.84 11.92-29.55 1.69 8.81 13.41 36.24-2.46 43.17a223.075 223.075 0 0 1 6.79 11.33c1.1-11.86 9.92-20.53 14.89-27.67.77 9 9.65 37.74-7.2 42.76 2.19 4.73 4.21 9.55 6.06 14.46 3.19-11.29 13.1-18.4 19.07-24.63-.64 9.03 3.62 38.69-13.45 41.56 1.17 4.04 2.22 8.13 3.15 12.27 4.44-11.18 15.39-17.24 22.18-22.86-1.72 9.12-.86 40.03-18.98 40.24.55 3.9 1.01 7.84 1.36 11.81l.19 2.27c6.43-10.71 18.7-14.94 26.62-19.46-3.32 8.86-7.84 39.97-25.94 37.46-.01 4.22-.14 8.42-.39 12.59 8.07-10.29 21.43-12.44 30.27-15.68-4.77 8.2-14.46 38.22-31.95 32.57-.71 5.14-1.6 10.24-2.67 15.27 9.73-8.54 23.14-8.34 32.35-9.97-6.06 7.16-20.59 34.47-36.61 26.75-1.26 4.28-2.66 8.51-4.18 12.68 10.83-7.6 24.34-5.62 33.82-6.06-4.83 6.54-24.86 32.09-40.13 21.55-2.03 4.48-4.2 8.89-6.52 13.21 12.18-6.45 26.08-3.07 35.6-2.18-7.16 6.16-28.7 29.83-43.89 16.36-2.51 3.95-5.14 7.82-7.89 11.6 12.44-4.71 24.91-.18 34.09 1.94-7.95 5.17-30.79 27.91-44.59 11.4-3.7 4.37-7.58 8.59-11.62 12.66 16.29-4.8 28.87 2.43 35.43 5.45-8.66 4.48-35.81 24.56-46.67 5.14-3.75 3.3-7.61 6.47-11.58 9.52 14.68-1.82 26.9 5.75 36.18 10.09-9.83 3.11-40.28 19.75-50.36-.04-3.27 2.13-6.6 4.17-9.98 6.13 13.55.99 22.76 11.33 31.18 16.4-7.79 2.79-38.93 13.36-47.81-7.65-3.85 1.82-7.76 3.54-11.74 5.15 13.03 2.66 20.95 13.72 28.66 19.59-8.09 1.93-40.44 9.09-46.77-13.13-3.07.95-6.16 1.84-9.29 2.66l.89.55c-16.91 2.73-32.94 7-47.55 13.72 9.59 5.52 18.75 12.08 27.43 19.79 18.57 14.47 3.16 29.03-12.94 7.57-7.9-8.57-16.76-15.51-26.38-21.14-9.19 5.45-17.68 12.1-25.32 20.23-16.46 21.55-31.91 6.69-13-7.76 8.3-7.25 17.01-13.47 26.11-18.75-13.85-6.25-28.98-10.34-44.91-13.06l.92-.55a222.93 222.93 0 0 1-12.57-3.58c-6.11 22.6-38.73 15.39-46.86 13.45 7.87-5.99 15.96-17.39 29.47-19.74-4.18-1.71-8.3-3.54-12.36-5.49-8.6 21.66-40.15 10.95-48 8.14 8.65-5.21 18.15-15.98 32.3-16.45-3.66-2.13-7.27-4.36-10.8-6.69-9.78 20.72-40.73 3.79-50.66.65 9.58-4.48 22.3-12.42 37.65-9.88-4.35-3.32-8.58-6.8-12.67-10.42-10.6 20.58-38.29.08-47.05-4.45 6.78-3.12 19.99-10.74 37.08-4.93-2.21-2.21-4.38-4.47-6.51-6.78-2.12-2.31-4.2-4.67-6.23-7.07-13.74 17.78-37.07-5.49-45.11-10.73 9.56-2.21 22.7-7.03 35.64-1.29-3.06-4.19-5.99-8.48-8.77-12.89-15.21 14.84-37.3-9.47-44.57-15.72 9.93-.93 24.64-4.57 37.18 3.08-2.6-4.8-5.02-9.71-7.27-14.72-15.37 12.08-36.04-14.27-40.96-20.94 9.94.46 24.3-1.73 35.36 7.22-1.74-4.71-3.33-9.49-4.75-14.35-16.39 9.35-31.39-18.94-37.58-26.24 9.67 1.71 23.97 1.41 33.78 11.31-1.22-5.59-2.23-11.26-3.02-17.01C14.87 258.48 4.87 227.39 0 219.03c9.31 3.4 23.62 5.62 31.5 17.37-.34-4.85-.52-9.68-.54-14.47-19 3.93-23.63-28.24-27.02-37.27 8.32 4.75 21.43 9.18 27.54 21.13.37-5.31.92-10.56 1.66-15.77-19.18.96-18.26-30.93-20.01-40.22 7.15 5.91 18.88 12.3 22.82 24.64 1.01-4.7 2.18-9.34 3.5-13.92-18.22-1.87-13.78-32.49-14.44-41.69 6.26 6.53 16.86 14.03 19.49 26.31a223.02 223.02 0 0 1 6.58-15.89c-18.11-4.23-8.92-33.85-8.14-43.01 5.2 7.48 14.66 16.64 15 29.41l.26-.49c2.29-4.16 4.71-8.24 7.26-12.24-17.12-6.32-5.01-34.54-3.3-43.51 4.43 8.03 12.98 18.22 11.83 31.09 2.74-3.73 5.6-7.37 8.57-10.91-16.22-8.48.8-36.93 3.62-42.55 2.83 6.91 9.69 18.31 6.99 30.75 4.12-4.27 8.42-8.39 12.88-12.33-13.67-10.93 4.7-34.96 9.24-41.31 1.43 5.44 6.22 19.48 2.26 31.79 2.99-2.3 6.04-4.54 9.14-6.7C115.44 26.46 137.37 7.09 142.58 0c.5 8.27 3.33 19.64-1.29 29.9 2.27-1.33 4.57-2.63 6.9-3.89 14.51-19.22 30.3-12.28 39.39-12.66-7.67 8.64-16.16 29.53-36.83 22.11-3.39 1.88-6.73 3.85-9.99 5.89 14.87 1.6 22.43 14.5 29.16 21.93-8.62-1.23-36.8.75-39.81-14.81-3.23 2.3-6.39 4.69-9.47 7.16 14.87.11 23.7 12.09 31.15 18.75-8.65-.32-36.23 4.55-41.07-10.33-5.06 4.58-9.9 9.38-14.49 14.39 15.07-2.2 25.56 8.72 33.92 14.43-8.63.82-35.44 9.31-42.11-4.95-2.95 3.62-5.78 7.34-8.48 11.14 14.5-3.51 25.97 6.04 34.81 10.74-8.39 1.74-33.58 12.86-42.1.2-1.99 3.19-3.89 6.45-5.71 9.75-.72 1.32-1.44 2.64-2.13 3.97 13.45-6.71 26.79.15 36.48 2.83-5.06 4.46-30.74 21.01-41.92 8.35-2.6 5.76-4.94 11.66-7.02 17.67 12.51-7.76 26.41-2.67 36.29-1.21-7.47 4.54-27.94 23.92-40.35 14.28-1.33 4.86-2.5 9.79-3.48 14.78 11.62-9.06 26.09-5.65 36.12-5.35-6.88 5.39-24.83 26.89-38.4 19.42-.7 5.48-1.18 11.01-1.44 16.6 10.48-11.72 26.12-10.31 36.6-11.53-6.29 6.6-21.69 31.73-36.8 25.21.09 4.68.32 9.39.72 14.13 8.84-12.79 24.41-13.52 34.55-16.12-5.32 7.36-17.13 34.19-32.91 29.97.91 6.01 2.06 11.92 3.46 17.73 6.77-14.78 22.61-17.64 32.55-21.69-4.33 8.11-12.55 36.91-29.17 34.06 1.47 4.81 3.11 9.54 4.91 14.2 4.51-14.91 19.16-20.33 28.05-25.9-2.87 8.7-6 38.26-22.68 38.56 2.24 4.84 4.66 9.58 7.25 14.21 2.85-15.7 17.19-22.54 25.63-29-1.04 9.05.28 39.62-18.58 40.69 2.71 4.19 5.56 8.27 8.55 12.24.53-16.16 13.96-24.96 21.52-32.54.19 9.15 5.65 39.53-13.24 42.87 1.71 2 3.45 3.98 5.24 5.92a213.8 213.8 0 0 0 8.13 8.37c-2.01-15.91 9.69-26.75 15.85-35.44 1.71 9.01 12.14 38.09-5.97 44.49 4.08 3.52 8.29 6.88 12.63 10.09-5.1-16.22 6.18-28.19 10.63-38.24 3.76 6.94 18.01 34.23.34 45.84 5.05 3.27 10.24 6.34 15.56 9.19-8.07-16.75 2.26-30.88 5.63-42.09 4.55 6.76 21.97 33.54 5.24 47.54 5.26 2.45 10.64 4.7 16.12 6.74-10.24-14.63-3.1-30.1-1.98-41.51 5.78 5.75 28.07 28.7 14.29 45.67 7.83 2.39 15.85 4.34 24 5.84.69.13 1.31.39 1.84.76 13.07 2.9 25.62 7.07 37.56 12.68 14.44-6.88 29.73-11.65 45.76-14.6l.17-.03c5.84-1.24 11.59-2.7 17.23-4.39-14.23-16.99 8.27-40.15 14.07-45.93 1.14 11.56 8.45 27.3-2.39 42.09 5.79-2.09 11.45-4.42 16.98-6.97-17.47-13.88.2-41.07 4.79-47.89 3.43 11.4 14.07 25.84 5.2 42.98 5.69-3 11.23-6.23 16.6-9.69-18.61-11.38-4.07-39.22-.27-46.23 4.56 10.3 16.28 22.59 10.24 39.41 4.79-3.47 9.41-7.14 13.88-10.98-19.3-5.79-8.57-35.63-6.83-44.77 6.32 8.93 18.5 20.11 15.65 36.74 5.11-4.91 9.97-10.07 14.56-15.44-20.07-2.44-14.42-33.71-14.23-43.02 7.78 7.81 21.79 16.89 21.54 33.99 3.38-4.43 6.58-8.99 9.6-13.66-19.98.04-18.59-31.5-19.65-40.72 8.71 6.66 23.68 13.73 25.87 30.5 2.92-5.12 5.62-10.37 8.11-15.73-17.64 1.01-20.85-29.65-23.78-38.54 9.22 5.77 24.61 11.38 28.5 27.56 2.1-5.28 3.98-10.66 5.65-16.12-17.42 4.48-25.93-25.5-30.36-33.8 10.3 4.2 26.96 7.12 33.26 23.37 1.62-6.49 2.94-13.09 3.94-19.78-16.37 5.94-28.64-22.06-34.1-29.6 10.53 2.71 26.91 3.38 35.53 17.64.48-5.35.77-10.75.84-16.19-15.46 8.28-31.46-17.91-37.9-24.67 10.85 1.26 27.27-.29 37.72 12.86a214.52 214.52 0 0 0-1.6-18.52c-13.67 9.08-32.31-13.32-39.36-18.83 10.4-.31 25.55-3.96 37.36 6.38-1.08-5.6-2.37-11.11-3.87-16.53-12.3 11.28-33.56-8.92-41.2-13.56 10.25-1.52 24.83-6.93 37.68 2.13-2.26-6.64-4.83-13.13-7.7-19.44-10.78 14.23-37.46-2.94-42.63-7.5 10.06-2.78 24.04-10.07 38-2.01a209.1 209.1 0 0 0-8.82-15.42c-7.94 14.05-34.06 2.46-42.64.68 9.12-4.85 21.02-14.83 36.16-10.38-3-4.24-6.16-8.36-9.46-12.36-6 15.45-33.68 6.64-42.48 5.81 8.59-5.86 19.42-17.23 35.17-14.22a215.68 215.68 0 0 0-15.53-15.31c-4.18 15.75-32.49 10.72-41.27 11.04 7.6-6.8 16.65-19.17 32.13-18.75A222.96 222.96 0 0 0 382 47.88c-2.41 16.21-31.2 14.15-39.92 15.4 6.85-7.56 14.55-20.79 29.97-22l-1.86-1.15c-2.64-1.61-5.27-3.15-7.89-4.6z"/><path fill="#E53100" d="m257.56 55.04 8.31 19.41 21.09 1.88c.88.08 1.56.81 1.56 1.69 0 .5-.22.97-.59 1.29l-15.97 13.91 4.71 20.63a1.69 1.69 0 0 1-1.28 2.02c-.12.02-.24.04-.36.04-.33 0-.66-.1-.94-.28l-18.12-10.82-18.17 10.87a1.699 1.699 0 0 1-2.32-.58 1.643 1.643 0 0 1-.19-1.26L240 93.21l-15.94-13.9c-.37-.33-.58-.8-.58-1.29 0-.4.14-.79.41-1.1.32-.33.75-.52 1.21-.53l21.01-1.89 8.31-19.46c.28-.62.89-1.02 1.57-1.02s1.3.4 1.57 1.02zm89.7 34.83-2.04 17.01 14.06 9.88c.59.41.76 1.2.41 1.82-.2.35-.55.59-.94.66l-16.87 3.3-5.06 16.41a1.367 1.367 0 0 1-1.72.9c-.09-.03-.18-.07-.26-.12-.24-.13-.43-.34-.55-.58l-8.35-14.95-17.17.27c-.25 0-.5-.06-.71-.19-.42-.24-.68-.68-.69-1.16 0-.25.06-.49.18-.7.06-.1.12-.18.2-.26l11.68-12.59-5.56-16.24c-.13-.38-.09-.79.11-1.13.17-.29.43-.51.74-.62.35-.1.74-.06 1.06.12l15.53 7.2 13.74-10.3a1.4 1.4 0 0 1 1.52-.09c.48.28.75.81.69 1.36zm-180.33-1.28 13.72 10.27 15.59-7.23c.64-.31 1.42-.07 1.77.55.2.35.24.77.11 1.14l-5.58 16.26 11.68 12.59a1.37 1.37 0 0 1-.31 2.11c-.24.13-.51.2-.78.18l-17.12-.24-8.36 15c-.12.22-.3.4-.51.53-.42.24-.93.24-1.35.01-.22-.12-.4-.3-.52-.51-.06-.1-.1-.2-.13-.3l-5.06-16.41-16.84-3.3a1.42 1.42 0 0 1-.93-.67c-.16-.29-.22-.62-.16-.94.09-.36.32-.67.63-.87l14.01-9.85-2.06-17.05c-.06-.55.21-1.08.69-1.35.47-.28 1.07-.25 1.51.08z"/><path d="M150.46 230.47v-62.18h32.24c5.97 0 10.23 1.15 12.78 3.48 2.56 2.32 3.84 5.7 3.84 10.15 0 4.44-.82 7.87-2.44 10.29-1.63 2.43-3.8 4-6.52 4.73v.6c8.03 1.39 12.04 6.86 12.04 16.42 0 4.97-1.33 8.97-3.98 11.98-2.65 3.02-6.73 4.53-12.24 4.53h-35.72zm27.66-25.6h-7.76v11.8h7.66c2.79 0 4.18-2.51 4.18-5.9 0-3.38-1.36-5.9-4.08-5.9zm-1.49-23.78h-6.27v10.9h6.17c2.52 0 3.78-2.36 3.78-5.45 0-3.08-1.24-5.45-3.68-5.45zm71.79 25.08h-19.9v10.03h24.37v14.27h-44.27v-62.18h43.78l-2.49 14.27h-21.39v10.83h19.9v12.78zm9.69 23.21 2.79-16.42c6.11 1.52 11.6 3.12 16.47 3.12 4.87 0 8.8-.21 11.79-.61v-6.62l-8.95-.79c-8.1-.72-13.66-1.85-16.67-5-3.02-3.15-4.53-7.81-4.53-13.98 0-8.49 1.84-14.33 5.53-17.51 3.67-3.19 9.93-4.78 18.75-4.78s16.78.83 23.88 2.49l-2.49 13.44c-6.17-.99-11.11-1.49-14.82-1.49-3.72 0-6.87.17-9.46.5v9.83l7.16.69c8.7.85 14.7.46 18.01 3.74 3.32 3.29 4.98 7.85 4.98 13.69 0 4.17-.56 7.71-1.69 10.59-1.13 2.89-2.47 5.08-4.03 6.57-1.56 1.49-3.76 2.63-6.62 3.43-2.85.8-5.35 1.28-7.51 1.45-2.15.16-5.02.24-8.6.24-8.63 0-16.62-.86-23.99-2.58zm103.43-45.17h-14.43v46.26h-19.9v-46.26h-14.42v-15.92h48.75v15.92zM133.22 303.25l2.23-13.16c4.9 1.23 9.3 2.67 13.2 2.67 3.91 0 7.06-.16 9.45-.48v-6.47l-7.18-.63c-6.47-.57-10.94-.49-13.35-3.02-2.42-2.52-3.63-6.26-3.63-11.2 0-6.8 1.47-11.48 4.42-14.03 2.95-2.56 7.96-3.83 15.03-3.83 7.07 0 13.45.66 19.14 1.99l-1.99 11.94c-4.95-.8-8.91-1.2-11.88-1.2-2.98 0-5.51.13-7.58.4v6.38l5.74.56c6.96.67 11.78.7 14.44 3.33 2.65 2.63 3.98 6.29 3.98 10.96 0 3.35-.45 6.19-1.36 8.5-.9 2.31-1.97 4.06-3.22 5.26-1.25 1.19-3.02 2.11-5.31 2.75-2.28.64-4.29 1.02-6.01 1.16-1.73.13-4.03.2-6.9.2-6.91 0-13.32-.7-19.22-2.08zm79.3-18.76h-15.95v8.54h19.53v11.1h-35.48V254.3h35.09l-1.99 11.1h-17.15v9.18h15.95v9.91zm41.66 19.64h-31.89V254.3h15.95v37.07h15.94v12.76zm35.69 0h-31.9V254.3h15.95v37.07h15.95v12.76zm35.68-19.64H309.6v8.54h19.53v11.1h-35.48V254.3h35.09l-2 11.1H309.6v9.18h15.95v9.91zm53.22 19.64h-17.54l-6.54-14.83h-3.43v14.83h-15.95V254.3h25.12c11.43 0 17.14 5.82 17.14 17.46 0 7.97-2.47 13.23-7.41 15.79l8.61 16.58zm-27.51-38.73v13.27h3.67c1.91 0 3.32-.21 4.18-.6.87-.39 1.32-1.31 1.32-2.75v-6.57c0-1.44-.45-2.36-1.32-2.75-.86-.39-2.28-.6-4.18-.6h-3.67z"/></g></svg>