<svg xmlns="http://www.w3.org/2000/svg" shape-rendering="geometricPrecision" text-rendering="geometricPrecision" image-rendering="optimizeQuality" fill-rule="evenodd" clip-rule="evenodd" viewBox="0 0 512 321.81"><g fill-rule="nonzero"><path fill="#F39D00" d="M283.51 290.1c-15.11 12.16-32.94 21.44-52.86 26.78-38.35 10.28-77.27 4.02-109.17-14.4a144.068 144.068 0 0 1-32.33-25.38h3.44c3.57 0 6.96-.75 10.04-2.1l.8.3c5.96 2.05 12.79 3.08 20.46 3.08l1.91-.03c2.3 1.55 4.65 3.02 7.06 4.41 26.81 15.5 59.58 20.74 91.9 12.08 14.08-3.77 26.91-9.87 38.19-17.76l.36-.03a30.36 30.36 0 0 0 3.74 4.56l.05-.04c4.39 4.38 10.1 7.45 16.41 8.53z"/><path fill="#1F1E1E" d="M392.08 67.19c1.5-3.48 3.9-5.86 6.9-7.25 3.28-1.52 7.12-1.66 11.1-.62 3.46.91 7.09 2.75 10.57 5.41 9.43 7.18 18.26 20.71 19.39 37.62.34 5.2.24 10.76-.24 16.66-.33 3.91-.83 8.01-1.51 12.27h35.59c3.85 0 6.65-.03 10.54.62 4.41.73 8.6 2.09 12.32 4.02 4.6 2.41 8.48 5.71 11.18 9.82 2.77 4.22 4.28 9.25 4.06 15-.16 4.26-1.31 8.88-3.64 13.81 1.32 5.55 1.95 11.5 1.08 16.73-.72 4.44-2.45 8.38-5.55 11.32.16 7.34-.82 13.49-2.79 18.82-2.03 5.46-5.07 10.01-8.97 14.03-.34 3.52-.9 6.88-1.79 10.01-1.1 3.94-2.73 7.56-5.01 10.76-6.83 9.65-12.3 9.43-20.96 9.07-1.21-.04-2.5-.1-4.51-.1h-78.47c-7.06 0-12.61-1.03-17.68-3.56-5-2.52-9.29-6.38-13.85-12.08l-1.17-3.34v-91.48l3.98-1.07c10.12-2.74 18.08-11.38 24.27-21.74 6.35-10.65 10.82-23.12 13.88-33.19v-23.8c0-3.33-.13-4.46 1.28-7.74zM38.16 236.73l1.28 14.4c-3.6 1.49-8.12 2.23-13.55 2.23-5.43 0-9.78-.57-13.07-1.71-3.29-1.15-5.87-2.95-7.76-5.41-1.89-2.45-3.2-5.34-3.95-8.65C.38 234.27 0 230.18 0 225.32c0-4.86.38-8.95 1.11-12.3.75-3.34 2.06-6.24 3.95-8.7 3.66-4.74 10.37-7.12 20.15-7.12 2.17 0 4.73.22 7.67.65 2.94.43 5.13.96 6.56 1.58l-2.57 13.12c-3.72-.8-7.12-1.2-10.2-1.2-3.09 0-5.23.28-6.43.85-1.2.58-1.81 1.72-1.81 3.44v22.46c2.23.46 4.49.69 6.78.69 4.86 0 9.17-.69 12.95-2.06zm37.29 15.35v-18.95H62.59v18.95H45.44v-53.59h17.15v18.95h12.86v-18.95h17.14v53.59H75.45zm23.15-26.76c0-9.77 1.83-16.9 5.48-21.39 3.66-4.48 10.26-6.73 19.81-6.73 9.55 0 16.15 2.25 19.81 6.73 3.65 4.49 5.48 11.62 5.48 21.39 0 4.86-.38 8.95-1.15 12.27-.78 3.31-2.11 6.2-3.99 8.65-1.89 2.46-4.49 4.26-7.81 5.41-3.31 1.14-7.42 1.71-12.34 1.71-4.91 0-9.03-.57-12.34-1.71-3.32-1.15-5.92-2.95-7.81-5.41-1.89-2.45-3.21-5.34-3.99-8.65-.77-3.32-1.15-7.41-1.15-12.27zm18.43-8.91v22.29h7.12c2.34 0 4.04-.27 5.1-.81 1.06-.55 1.59-1.79 1.59-3.74v-22.28h-7.21c-2.29 0-3.96.27-5.02.81-1.05.54-1.58 1.78-1.58 3.73zm38.16 35.67v-53.59h17.14v53.59h-17.14zm61.3-15.35 1.28 14.4c-3.6 1.49-8.11 2.23-13.54 2.23-5.44 0-9.79-.57-13.08-1.71-3.29-1.15-5.87-2.95-7.76-5.41-1.89-2.45-3.2-5.34-3.94-8.65-.74-3.32-1.12-7.41-1.12-12.27 0-4.86.38-8.95 1.12-12.3.74-3.34 2.05-6.24 3.94-8.7 3.66-4.74 10.38-7.12 20.15-7.12 2.17 0 4.73.22 7.67.65 2.95.43 5.13.96 6.56 1.58l-2.57 13.12c-3.71-.8-7.12-1.2-10.2-1.2-3.09 0-5.23.28-6.43.85-1.2.58-1.81 1.72-1.81 3.44v22.46c2.24.46 4.49.69 6.78.69 4.86 0 9.17-.69 12.95-2.06zm41.58-4.89h-17.15v8.75h21.01v11.49h-38.16v-53.59h37.73l-2.14 11.48h-18.44v9.44h17.15v12.43zm47.65-86.69h23.09c4.42 0 8.04 3.62 8.04 8.04V260.1c0 4.42-3.62 8.04-8.04 8.04h-40.25c-4.43 0-8.04-3.62-8.04-8.04 6.95-37.1 11.68-71.27 17.16-106.91 0-4.42 3.62-8.04 8.04-8.04zm97.74-75.47c-.86.4-1.57 1.4-1.98 3.13v26.66l-.25 1.53c-3.23 10.8-8.06 24.47-15.18 36.39-6.69 11.2-15.38 20.83-26.68 25.27v81.66c3.1 3.68 5.95 6.17 9.09 7.74 3.46 1.73 7.52 2.41 12.91 2.41h78.47c1.41 0 3.22.08 4.93.14 5.14.2 8.38.35 11.86-4.57v-.01c1.51-2.13 2.61-4.65 3.4-7.46.84-3 1.35-6.33 1.59-9.89l1.65-3.52c3.45-3.28 6.08-6.96 7.77-11.48 1.73-4.67 2.48-10.28 2.06-17.31l-.18-3.18 2.69-1.67c1.85-1.15 2.86-3.32 3.28-5.97.68-4.22-.04-9.39-1.35-14.2l.42-3.88c2.17-4.16 3.22-7.88 3.36-11.13.12-3.38-.75-6.32-2.35-8.75-1.69-2.55-4.16-4.65-7.16-6.22-2.31-1.21-4.92-2.12-7.68-2.69-4.07-.85-6.92-.68-10.99-.68H425.5l1.18-6.34c1.15-6.13 1.98-11.98 2.46-17.53.46-5.43.54-10.47.24-15.06-.91-13.51-7.82-24.21-15.2-29.82-2.36-1.79-4.68-3.01-6.8-3.55-1.63-.45-2.95-.47-3.92-.02z"/><path fill="#E53100" d="M24.51 172.35v-62.72h32.52c6.02 0 10.32 1.17 12.89 3.51 2.58 2.35 3.87 5.76 3.87 10.24s-.82 7.94-2.46 10.39c-1.64 2.44-3.83 4.02-6.58 4.76v.6c8.1 1.41 12.14 6.93 12.14 16.56 0 5.02-1.33 9.05-4.01 12.1-2.67 3.04-6.79 4.56-12.34 4.56H24.51zM86.19 38.26l12.84 9.62 14.6-6.78c.6-.29 1.33-.06 1.66.52.19.32.23.71.1 1.07l-5.22 15.22 10.94 11.79c.06.07.12.15.16.23.31.53.21 1.18-.24 1.59-.07.06-.14.11-.21.16-.23.13-.48.19-.73.17l-16.04-.23-7.83 14.06c-.11.2-.28.37-.48.49-.39.22-.87.23-1.26.01-.2-.12-.37-.28-.49-.48a1.39 1.39 0 0 1-.12-.28l-4.73-15.37-15.78-3.09c-.37-.07-.69-.3-.87-.62-.15-.27-.21-.59-.15-.89.08-.34.29-.63.59-.81l13.12-9.22-1.93-15.97c-.05-.51.19-1.01.64-1.27s1.01-.23 1.43.08zM182.5 1.01l8.21 19.2 20.85 1.86a1.668 1.668 0 0 1 .96 2.93l-15.78 13.75 4.65 20.4c.03.12.04.24.04.37 0 .78-.54 1.46-1.31 1.63-.12.02-.23.04-.35.04-.33 0-.65-.1-.93-.29l-17.91-10.68-17.96 10.74c-.26.16-.56.24-.86.24-.59 0-1.13-.31-1.44-.81-.15-.26-.23-.55-.23-.86 0-.13.01-.26.04-.38l4.66-20.4L149.38 25c-.36-.32-.57-.78-.57-1.26 0-.4.14-.8.41-1.1.31-.33.74-.51 1.19-.52l20.77-1.86 8.22-19.25A1.7 1.7 0 0 1 180.95 0c.67 0 1.28.4 1.55 1.01zm111.8 35.46-2.94 24.62 20.34 14.3c.85.59 1.1 1.73.59 2.63-.29.5-.79.85-1.36.95l-24.4 4.78-7.32 23.74c-.05.14-.11.28-.18.4a1.973 1.973 0 0 1-2.7.73c-.34-.19-.61-.49-.79-.84l-12.08-21.63-24.85.38c-.36.01-.72-.08-1.03-.26a1.993 1.993 0 0 1-.73-2.71c.08-.13.18-.26.28-.37l16.91-18.21-8.06-23.5c-.18-.55-.11-1.14.17-1.64.24-.41.62-.73 1.06-.89.52-.15 1.08-.08 1.55.17l22.47 10.42 19.88-14.91a2.02 2.02 0 0 1 2.2-.12c.69.4 1.08 1.17.99 1.96zM52.41 145.12H42.34v14.71h9.97c2.81 0 6.45-3.93 6.45-7.35 0-3.41-3.63-7.36-6.35-7.36zm-1.5-23.98h-8.57v13.81h8.47c2.54 0 6.04-3.79 6.04-6.91 0-3.1-3.5-6.9-5.94-6.9zm72.4 27.53h-20.07v9.86h24.59v13.82H83.17v-62.72h44.15l-2.5 13.82h-21.58v10.66h20.07v14.56zm9.78 22.58 2.82-16.56c6.15 1.54 11.69 4.54 16.61 4.54 4.91 0 8.87-.2 11.89-.6v-7.25l-9.03-.8c-8.17-.74-13.77-2.7-16.81-5.87-3.05-3.18-4.57-7.88-4.57-14.11 0-8.56 1.85-14.45 5.57-17.66 3.71-3.21 10.02-4.81 18.92-4.81 8.9 0 16.92.83 24.08 2.51l-2.51 13.81c-6.22-1-11.21-1.5-14.95-1.5-3.75 0-6.93.17-9.53.5v7.15l7.22.71c8.76.86 14.82 2.96 18.16 6.27 3.35 3.31 5.02 7.91 5.02 13.8 0 4.21-.57 7.77-1.71 10.69-1.13 2.9-2.49 5.11-4.06 6.62-1.57 1.5-3.79 2.66-6.67 3.46-2.88.8-5.4 1.29-7.58 1.45-2.17.17-5.07.26-8.68.26-8.7 0-16.76-.88-24.19-2.61zm104.32-45.56h-14.55v46.66h-20.07v-46.66h-14.55v-16.06h49.17v16.06z"/></g></svg>