<svg xmlns="http://www.w3.org/2000/svg" shape-rendering="geometricPrecision" text-rendering="geometricPrecision" image-rendering="optimizeQuality" fill-rule="evenodd" clip-rule="evenodd" viewBox="0 0 512 393.26"><g fill-rule="nonzero"><path fill="#F39D00" d="M326.6 345.74c-20.44 19.18-45.76 33.74-74.69 41.5-46.87 12.55-94.44 4.91-133.42-17.6a175.943 175.943 0 0 1-49.03-41.88c1.64.4 3.35.6 5.1.6l33.91-.01c7.4 6.51 15.42 12.28 23.93 17.19 32.77 18.94 72.81 25.34 112.31 14.76 22.54-6.03 42.46-16.95 58.93-31.3 7.5 5.54 15.07 11.1 22.96 16.74z"/><path fill="#1F1E1E" d="M0 306.48v-72.25h32.37c13.02 0 21.97 2.77 26.82 8.32 4.86 5.55 7.28 14.82 7.28 27.8 0 12.99-2.42 22.25-7.28 27.8-4.85 5.55-13.8 8.33-26.82 8.33H0zm32.72-53.76h-9.6v35.26h9.6c3.16 0 5.45-.37 6.88-1.1 1.42-.73 2.14-2.41 2.14-5.03v-23c0-2.62-.72-4.3-2.14-5.03-1.43-.73-3.72-1.1-6.88-1.1zm88.08 26.47H97.68v10.98h28.33v16.31H74.56v-72.25h50.87l-2.89 16.31H97.68v11.89h23.12v16.76zm32.26 27.29h-24.39l18.72-72.25h35.73l18.73 72.25h-24.4l-2.66-11.45h-19.07l-2.66 11.45zm10.47-50.06-4.74 20.23h12.82l-4.62-20.23h-3.46zm88.95 50.06h-46.24v-72.25h23.12v53.75h23.12v18.5z"/><path fill="#E53100" d="m193.06 1.24 10.04 23.45 25.48 2.27c1.06.09 1.88.98 1.88 2.04 0 .6-.26 1.17-.71 1.55l-19.29 16.81 5.69 24.92a2.043 2.043 0 0 1-3.12 2.15l-21.89-13.06-21.95 13.12c-.31.19-.68.3-1.05.3-.72 0-1.38-.38-1.75-1a1.989 1.989 0 0 1-.23-1.52l5.69-24.92-19.26-16.8c-.44-.39-.7-.95-.7-1.55 0-.49.18-.96.5-1.33.38-.4.91-.63 1.46-.64l25.38-2.28 10.04-23.51c.33-.75 1.08-1.24 1.9-1.24.82 0 1.56.49 1.89 1.24zm136.63 43.33-3.6 30.08 24.86 17.47a2.45 2.45 0 0 1 .72 3.22c-.36.61-.96 1.04-1.66 1.17l-29.82 5.83-8.95 29.01c-.05.18-.13.34-.22.5-.56.98-1.74 1.44-2.82 1.1-.16-.06-.32-.13-.47-.21-.42-.24-.76-.6-.97-1.03L292 105.28l-30.37.46a2.415 2.415 0 0 1-2.47-2.38c-.01-.43.1-.87.32-1.25.1-.16.21-.31.34-.45l20.66-22.25-9.84-28.72c-.22-.67-.14-1.4.21-2.01.29-.5.75-.89 1.3-1.08.63-.18 1.31-.11 1.88.21l27.47 12.73 24.29-18.22c.78-.58 1.84-.64 2.68-.15a2.47 2.47 0 0 1 1.22 2.4zM75.36 46.75l15.7 11.75 17.84-8.28c.74-.35 1.63-.07 2.03.64.23.4.28.87.13 1.31l-6.39 18.6 13.37 14.41c.08.08.15.18.21.28.36.63.24 1.44-.3 1.94-.08.07-.17.14-.27.19-.27.16-.58.23-.89.21l-19.59-.28-9.57 17.18a1.565 1.565 0 0 1-2.13.61c-.25-.14-.46-.34-.6-.58-.06-.11-.11-.22-.14-.34l-5.79-18.78-19.28-3.78c-.45-.1-.84-.37-1.06-.77-.19-.32-.26-.71-.19-1.08.1-.41.37-.76.73-.99l16.02-11.27-2.35-19.51a1.6 1.6 0 0 1 .79-1.56c.54-.31 1.22-.27 1.73.1zM0 206.08v-76.64h39.73c7.36 0 12.61 1.42 15.76 4.29 3.15 2.86 4.72 7.03 4.72 12.51 0 5.47-1 9.7-3 12.69-2.01 2.98-4.68 4.92-8.04 5.82v.74c9.9 1.72 14.84 8.46 14.84 20.24 0 6.13-1.63 11.05-4.9 14.77-3.27 3.72-8.3 5.58-15.09 5.58H0zm34.09-31.63H22.34v14.69h11.63c3.43 0 6.24-3.17 6.24-7.34s-2.79-7.35-6.12-7.35zm-1.84-29.31h-9.91v13.59h9.79c3.11 0 5.75-2.99 5.75-6.79s-2.63-6.8-5.63-6.8zm88.48 32H96.2v11.51h30.05v17.43H71.68v-76.64h53.96l-3.07 17.43H96.2v12.48h24.53v17.79zm11.96 27.59 3.43-20.23c7.53 1.88 14.29 2.81 20.3 2.81 6.01 0 10.85-.24 14.53-.73v-8.31l-11.03-.98c-9.97-.89-16.84-1.12-20.54-4.99-3.72-3.88-5.59-9.63-5.59-17.24 0-10.46 2.27-17.66 6.81-21.58 4.54-3.92 12.24-5.89 23.12-5.89 10.87 0 20.68 1.03 29.43 3.07l-3.07 18.53c-7.6-1.23-13.69-1.84-18.27-1.84s-8.46.2-11.65.61v7.1l8.83.86c10.71 1.06 18.11 3.62 22.2 7.67 4.09 4.04 6.13 9.66 6.13 16.86 0 5.15-.7 9.5-2.09 13.06-1.39 3.56-3.04 6.26-4.96 8.09-1.93 1.84-4.64 3.25-8.16 4.23-3.51.99-6.6 1.58-9.26 1.78-2.65.21-6.19.31-10.61.31-10.63 0-20.47-1.06-29.55-3.19zm127.48-55.68h-17.79v57.03h-24.52v-57.03h-17.78v-19.61h60.09v19.61z"/><path d="m448.19 124.32 16.49 77.85c.37 1.9.02 3.94-1.19 5.65C435.76 247 406.85 291.58 377.75 329c-3.18 4.2-7.68 6.78-12.48 7.51-4.65.71-9.57-.32-13.79-3.22-24.05-16.76-47.47-34.94-71.42-51.9-4.34-3.15-6.9-7.71-7.6-12.54-.68-4.71.41-9.69 3.3-13.89 27.38-39.84 57.47-79.57 85.87-118.89a7.212 7.212 0 0 1 4.75-3.24l73.4-14.09c3.84-.74 7.6 1.73 8.41 5.58z"/><path fill="#FD5" d="m457.61 203.68-6.17-29.18c-6.76-.55-14.08-1.88-21.97-4.13-.21.38-.44.75-.69 1.12-2.06 3.1-4.96 5.04-8.68 5.85-3.62.68-6.99-.05-10.09-2.16-3.08-2.14-4.98-5.02-5.65-8.64-.78-3.61-.11-6.99 1.99-10.14 2.1-3.13 4.98-5.05 8.62-5.73 3.72-.7 7.14-.01 10.24 2.12 2.81 1.94 4.64 4.5 5.45 7.7.25.03.49.08.72.15 6.42 1.88 12.39 3.09 17.92 3.73l-8.16-38.55-73.4 14.1-85.89 118.87c-3.91 5.42-2.97 12.97 2.59 16.87l70.77 51.44c5.46 4.03 12.87 2.88 16.87-2.59l85.53-120.83zM339.5 222.86l17.46 13.08 19.85-9.21c.82-.39 1.81-.08 2.26.71.26.44.3.97.14 1.45l-7.1 20.7 14.87 16.02c.08.1.16.2.23.31.4.71.27 1.61-.33 2.16a1.79 1.79 0 0 1-1.3.45l-21.79-.31-10.65 19.1c-.14.28-.38.51-.65.68-.53.3-1.18.31-1.72.01-.27-.16-.5-.38-.66-.65-.07-.12-.12-.25-.16-.38l-6.44-20.89-21.45-4.21c-.49-.1-.93-.41-1.18-.84-.2-.37-.28-.8-.2-1.21.11-.45.4-.85.8-1.1l17.83-12.54-2.62-21.71a1.779 1.779 0 0 1 2.81-1.62z"/><path d="M389.85 134.35c-2.17 1.65-8.05 1.3-9.71-.87-1.65-2.16 1.55-5.34 3.71-6.99 45.04-34.56 78.62-41.03 99.9-34.42 15.59 4.83 24.79 16.48 27.45 29.61 2.63 12.98-1.23 27.4-11.71 37.97-13.06 13.16-36.4 20.33-70.02 10.72-.21.38-.44.75-.69 1.12-2.06 3.1-4.96 5.04-8.68 5.85-3.62.68-6.99-.05-10.09-2.16-3.08-2.14-4.98-5.02-5.65-8.64-.78-3.61-.11-6.99 1.99-10.14 2.1-3.13 4.98-5.05 8.62-5.73 3.72-.7 7.14-.01 10.24 2.12 2.81 1.94 4.64 4.5 5.45 7.7.25.03.49.08.72.15 29.98 8.78 50.2 3.03 61.11-7.96 8.06-8.12 11.04-19.17 9.03-29.06-1.98-9.76-8.91-18.45-20.68-22.11-18.64-5.78-48.94.57-90.99 32.84z"/><path fill="#fff" d="m313.51 235.11-5.09.98-18.38 25.45c-2.15 2.97-2.01 6.94.31 9.59-.26-2.11.28-4.33 1.63-6.2l21.53-29.82z"/></g></svg>