<svg xmlns="http://www.w3.org/2000/svg" shape-rendering="geometricPrecision" text-rendering="geometricPrecision" image-rendering="optimizeQuality" fill-rule="evenodd" clip-rule="evenodd" viewBox="0 0 512 330.59"><g fill-rule="nonzero"><path fill="#F39D00" d="M277.28 298.02c-15.52 12.48-33.84 22.02-54.3 27.5-39.4 10.56-79.38 4.13-112.15-14.79a147.905 147.905 0 0 1-34.57-27.53l.86-.31a25.55 25.55 0 0 0 9.37 1.76h26.89c2.96 2.07 6.01 4.02 9.14 5.82 27.55 15.92 61.21 21.3 94.41 12.41 14.57-3.9 27.84-10.23 39.49-18.43 1.16 1.74 2.48 3.36 3.96 4.84l.04-.05c4.51 4.51 10.37 7.66 16.86 8.78z"/><path fill="#1F1E1E" d="M395.9 61.58c7.43-3.46 16.22.3 22.26 4.91 9.69 7.38 18.75 21.28 19.92 38.65.35 5.35.24 11.05-.25 17.12-.33 4.01-.85 8.22-1.55 12.6h32.51c5.44 0 9.93-.22 15.29.71 4.37.76 8.54 2.13 12.24 4.06 4.73 2.48 8.72 5.87 11.49 10.08 2.84 4.34 4.39 9.5 4.17 15.41-.17 4.38-1.35 9.13-3.74 14.19 1.36 5.7 2 11.82 1.11 17.19-.74 4.56-2.51 8.6-5.7 11.62.16 7.54-.84 13.86-2.87 19.33-2.08 5.62-5.21 10.29-9.21 14.43-.35 3.6-.93 7.06-1.84 10.27-1.13 4.06-2.8 7.77-5.14 11.06-7.03 9.91-12.64 9.68-21.54 9.31-1.24-.04-2.57-.1-4.64-.1H377.8c-7.24 0-12.95-1.06-18.15-3.66-5.14-2.58-9.54-6.55-14.23-12.41l-1.2-3.43v-93.97l4.09-1.1c10.39-2.81 18.57-11.69 24.93-22.33 6.52-10.95 11.12-23.75 14.25-34.1V76.97c0-6.59 1.94-12.4 8.41-15.39zM34.44 203.9h18.58l-13.65 55.05H13.65L0 203.9h18.58l7.49 34.97h.79l7.58-34.97zm33.47 55.05H49.32l14.27-55.05H90.8l14.27 55.05H86.49l-2.03-8.72H69.93l-2.02 8.72zm7.88-38.14-4.53 15.42h11.78l-4.44-15.42h-2.81zm67.85 38.14h-35.22V203.9h17.61v40.96h17.61v14.09zm21.14-55.05v41.31h6.25c2.23 0 3.76-.28 4.59-.84.82-.56 1.23-1.83 1.23-3.83V203.9h17.61v30.91c0 5-.32 9.02-.97 12.07-.64 3.06-1.84 5.64-3.61 7.76-1.76 2.11-4.17 3.58-7.22 4.4-3.05.82-7.02 1.23-11.89 1.23-4.87 0-8.82-.41-11.85-1.23-3.02-.82-5.41-2.29-7.17-4.4-1.77-2.12-2.97-4.7-3.61-7.76-.65-3.05-.98-7.07-.98-12.07V203.9h17.62zm72.4 33.34h-17.62v9.45h21.58v12.26h-39.19V203.9h38.75l-2.2 12.26h-18.94v10.15h17.62v10.93zm62.92-88.13h23.71c4.54 0 8.26 3.72 8.26 8.26v109.82c0 4.55-3.72 8.27-8.26 8.27h-41.34c-4.55 0-8.26-3.72-8.26-8.27 7.14-38.11 11.99-73.21 17.63-109.82 0-4.54 3.72-8.26 8.26-8.26zm98.36-74.32v27.4l-.25 1.56c-3.32 11.09-8.28 25.14-15.59 37.39-6.88 11.5-15.8 21.4-27.41 25.96v83.88c3.18 3.78 6.11 6.34 9.33 7.95 3.56 1.78 7.73 2.48 13.26 2.48h80.61c1.45 0 3.31.09 5.07.15 3.6.14 6.3.25 8.78-1.29 3.55-2.2 5.85-7.34 6.9-11.09.86-3.07 1.38-6.5 1.63-10.16l1.69-3.61c3.55-3.37 6.26-7.15 7.99-11.8 1.78-4.79 2.55-10.55 2.11-17.78l-.18-3.27 2.76-1.71c1.9-1.18 2.94-3.41 3.37-6.13.7-4.34-.04-9.65-1.39-14.58l.44-3.99c2.23-4.28 3.3-8.1 3.45-11.44.12-3.47-.77-6.49-2.42-8.99-1.73-2.62-4.27-4.77-7.35-6.38-2.29-1.2-4.84-2.11-7.55-2.7-5.03-1.09-10.06-.77-15.18-.77h-45.39l1.22-6.51c1.17-6.3 2.02-12.31 2.52-18.01.47-5.57.56-10.75.25-15.47-.93-13.88-8.04-24.87-15.62-30.63-2.42-1.84-4.81-3.1-6.98-3.65-3.28-.91-5.23-.29-6.07 3.19z"/><path fill="#E53100" d="m173.51 1.04 8.44 19.72 21.42 1.91a1.713 1.713 0 0 1 .98 3.01l-16.21 14.13 4.78 20.95c.03.13.05.25.05.38 0 .81-.56 1.5-1.35 1.68-.12.02-.24.03-.36.03-.34 0-.67-.1-.96-.28l-18.4-10.98-18.45 11.03a1.692 1.692 0 0 1-2.35-.59 1.67 1.67 0 0 1-.25-.88c0-.13.02-.26.05-.39l4.79-20.95-16.2-14.13c-.37-.32-.58-.8-.58-1.29 0-.42.14-.82.41-1.14.32-.33.77-.52 1.23-.53l21.34-1.91 8.44-19.77c.28-.63.9-1.04 1.59-1.04.69 0 1.32.41 1.59 1.04zM11.22 177.05v-64.43h33.4c6.19 0 10.6 1.2 13.25 3.61 2.65 2.41 3.97 5.91 3.97 10.51 0 4.61-.84 8.16-2.53 10.67-1.68 2.51-3.93 4.14-6.75 4.9v.62c8.32 1.44 12.47 7.11 12.47 17.01 0 5.15-1.37 9.29-4.12 12.42-2.75 3.13-6.98 4.69-12.68 4.69H11.22zm28.66-27.51H29.54v14.19h10.24c2.88 0 5.24-3.58 5.24-7.09s-2.35-7.1-5.14-7.1zm-1.55-24.63h-8.79v13.26h8.69c2.61 0 4.83-3.43 4.83-6.63 0-3.2-2.22-6.63-4.73-6.63zm74.38 25.98H92.09v11.5h25.26v14.66H71.48v-64.43h45.36l-2.58 14.66H92.09v12.33h20.62v11.28zm10.05 25.03 2.89-17.01c6.32 1.58 12.01 3.28 17.06 3.28 5.06 0 9.12-.2 12.22-.61v-7.91l-9.28-.82c-8.37-.75-14.15-.94-17.27-4.2-3.12-3.26-4.69-8.09-4.69-14.48 0-8.8 1.91-14.85 5.73-18.15 3.81-3.3 10.28-4.95 19.43-4.95 9.14 0 17.38.86 24.74 2.58l-2.58 15.58c-6.39-1.04-11.51-1.55-15.36-1.55-3.85 0-7.11.17-9.79.51V136l7.42.72c9 .87 15.22 1.21 18.66 4.61 3.44 3.4 5.15 8.13 5.15 14.18 0 4.33-.58 7.98-1.75 10.98-1.17 2.98-2.56 5.25-4.17 6.8-1.62 1.54-3.9 2.73-6.86 3.55-2.95.83-5.55 1.33-7.78 1.5-2.24.17-5.21.26-8.92.26-8.94 0-17.22-.9-24.85-2.68zm107.16-46.81h-14.94v47.94h-20.62v-47.94h-14.95v-16.49h50.51v16.49zm58.44-91.65-3.02 25.3 20.9 14.68a2.047 2.047 0 0 1-.79 3.69l-25.07 4.9-7.52 24.39c-.05.15-.11.29-.18.42-.48.82-1.47 1.21-2.38.92-.13-.05-.27-.1-.39-.18-.35-.2-.64-.5-.82-.86L256.68 88.5l-25.53.39c-.37.01-.73-.08-1.06-.27a2.043 2.043 0 0 1-.74-2.78c.08-.14.18-.27.29-.38L247 66.75l-8.27-24.14c-.18-.56-.12-1.17.17-1.69.25-.42.64-.74 1.1-.91.53-.15 1.1-.09 1.58.18l23.09 10.7 20.42-15.32a2.066 2.066 0 0 1 3.27 1.89zM74.57 39.3l13.2 9.88 15-6.96c.62-.29 1.36-.06 1.71.53.19.34.23.74.1 1.1l-5.37 15.64 11.24 12.11c.07.08.13.15.17.24.31.53.21 1.21-.25 1.63-.07.06-.14.12-.22.16-.23.13-.49.2-.75.18l-16.47-.23-8.04 14.43c-.12.21-.29.39-.5.51-.4.23-.89.23-1.3.01-.2-.12-.38-.29-.5-.49-.05-.09-.09-.19-.12-.29L77.6 71.96l-16.2-3.17c-.38-.08-.7-.31-.89-.65-.16-.27-.22-.59-.16-.9.09-.35.31-.65.61-.83l13.47-9.48-1.98-16.41c-.05-.52.2-1.03.66-1.3.46-.26 1.04-.23 1.46.08z"/></g></svg>