<svg id="Layer_1" data-name="Layer 1" xmlns="http://www.w3.org/2000/svg" viewBox="0 0 122.88 121.29"><title>book-stall</title><path d="M5.67,18.51H25.28L28.89,3H14.37L5.67,18.51ZM3.61,98H119.27a3.63,3.63,0,0,1,3.61,3.61v16.07a3.62,3.62,0,0,1-3.61,3.61H3.61A3.62,3.62,0,0,1,0,117.68V101.61A3.62,3.62,0,0,1,3.61,98ZM41,77.56l.13-23.07H38.47V83.84A44.81,44.81,0,0,1,49.25,82.3a30.5,30.5,0,0,1,10,1.58,21.6,21.6,0,0,0-6.87-3.73,25.15,25.15,0,0,0-9.94-1.05A1.41,1.41,0,0,1,41,77.8a1,1,0,0,1,0-.24ZM79.16,53.29a1.49,1.49,0,0,1,0-.21,1.36,1.36,0,0,1,0-.21V48.19a21.61,21.61,0,0,0-9.6,1.17,13.16,13.16,0,0,0-6.68,5.22v26.6a34.12,34.12,0,0,1,7.38-3.82,21.22,21.22,0,0,1,8.9-1.27V53.29ZM82,51.66h3.84a1.42,1.42,0,0,1,1.41,1.42V85.69a1.42,1.42,0,0,1-1.41,1.42,1.39,1.39,0,0,1-.46-.08,44.15,44.15,0,0,0-11.75-1.91,27.26,27.26,0,0,0-11.37,2.33,1.53,1.53,0,0,1-.81.23,1.47,1.47,0,0,1-.8-.23,27.32,27.32,0,0,0-11.37-2.33A44.16,44.16,0,0,0,37.51,87a1.33,1.33,0,0,1-.45.08,1.42,1.42,0,0,1-1.42-1.42V53.08a1.42,1.42,0,0,1,1.42-1.42h4l0-4.73a1.4,1.4,0,0,1,1.12-1.37h0a22.42,22.42,0,0,1,12.22.93,15.61,15.61,0,0,1,7,5.15,16.42,16.42,0,0,1,7.05-4.92,24.75,24.75,0,0,1,12.22-1.18A1.42,1.42,0,0,1,82,46.94h0v4.72Zm-17.74,32a30.45,30.45,0,0,1,9.38-1.37,44.81,44.81,0,0,1,10.78,1.54V54.49H82V77.68a1.42,1.42,0,0,1-1.42,1.42,1.24,1.24,0,0,1-.33,0,18,18,0,0,0-9,1,31.61,31.61,0,0,0-7,3.64Zm-4.2-2.76V54.54a12.5,12.5,0,0,0-6.59-5.4,19.62,19.62,0,0,0-9.53-1l-.16,28.06a27.26,27.26,0,0,1,9.51,1.29,24.17,24.17,0,0,1,6.77,3.44ZM115,36.29V94.88H103.5V37.44a13.32,13.32,0,0,1-7.09-6.25,13.58,13.58,0,0,1-2.28,3.13l-.08.09a13.12,13.12,0,0,1-18.59,0,13.36,13.36,0,0,1-2.36-3.22,13.41,13.41,0,0,1-2.37,3.21,13.09,13.09,0,0,1-18.58,0,13.41,13.41,0,0,1-2.37-3.21,13,13,0,0,1-2.28,3.13l-.08.09a13.12,13.12,0,0,1-18.59,0,13.36,13.36,0,0,1-2.36-3.22,13.22,13.22,0,0,1-7.09,6.25V94.88H7.9V36.29A13.55,13.55,0,0,1,5.52,34.4a13.12,13.12,0,0,1-3.86-9.29V19.9h0v0h0a1.47,1.47,0,0,1,.19-.66L12.19.77A1.51,1.51,0,0,1,13.49,0h95.07a1.5,1.5,0,0,1,1.35.86L121,19.15a1.47,1.47,0,0,1,.21.63h0v0h0v0h0v5.26a13.15,13.15,0,0,1-3.86,9.29A13.55,13.55,0,0,1,115,36.29ZM73,3l1.5,15.51h20L90.36,3ZM71.44,18.51,69.94,3h-17L51.43,18.51Zm-23,0L49.89,3H32l-3.6,15.51ZM93.46,3l4.1,15.51h19.56L107.72,3Zm4.45,18.51v3.6a10.16,10.16,0,0,0,20.31,0v-3.6Zm-23.31,0v3.6a10.13,10.13,0,0,0,17.32,7.17l.08-.06a10.19,10.19,0,0,0,2.91-7.11v-3.6Zm-23.32,0v3.6a10.16,10.16,0,0,0,20.32,0v-3.6ZM28,21.51v3.6A10.14,10.14,0,0,0,45.3,32.28l.07-.06a10.14,10.14,0,0,0,2.91-7.11v-3.6Zm-3,0H4.66v3.6a10.16,10.16,0,0,0,20.31,0v-3.6Z"/></svg>