<svg xmlns="http://www.w3.org/2000/svg" shape-rendering="geometricPrecision" text-rendering="geometricPrecision" image-rendering="optimizeQuality" fill-rule="evenodd" clip-rule="evenodd" viewBox="0 0 512 250.68"><path fill-rule="nonzero" d="M96.8 0h270.73c26.63 0 50.84 10.89 68.37 28.43l.46.5a97.63 97.63 0 0 1 18.08 25.39c-1.63.47-3.22 1.07-4.76 1.79a31.991 31.991 0 0 0-9.85 7.17 80.426 80.426 0 0 0-15.58-22.39l-.41-.39c-14.45-14.45-34.39-23.42-56.31-23.42H96.8c-21.92 0-41.85 8.97-56.3 23.42-14.46 14.43-23.42 34.37-23.42 56.3 0 21.72 8.81 41.49 23.01 55.91l.41.39c14.45 14.45 34.39 23.42 56.3 23.42h247.61c-.29.65-.56 1.31-.81 1.98a31.524 31.524 0 0 0-1.63 15.1H96.8c-26.62 0-50.82-10.89-68.37-28.44l-.45-.49C10.71 147.16 0 123.17 0 96.8 0 70.2 10.89 46 28.43 28.46 45.97 10.89 70.18 0 96.8 0zm42.21 130.69V62.57h35.32c6.54 0 11.21 1.27 14 3.81 2.8 2.55 4.2 6.25 4.2 11.12 0 4.87-.89 8.63-2.67 11.28-1.78 2.65-4.16 4.38-7.14 5.18v.65c8.79 1.53 13.19 7.52 13.19 17.99 0 5.45-1.45 9.83-4.36 13.13-2.9 3.31-7.37 4.96-13.41 4.96h-39.13zm30.3-27.48h-9.53v11.8h9.43c3.05 0 4.57-2.19 4.57-5.9 0-3.71-1.5-5.9-4.47-5.9zm-1.63-26.05h-7.9v10.82h7.79c2.76 0 4.14-2.03 4.14-5.41 0-3.38-1.36-5.41-4.03-5.41zm57.66-14.59v51.12h7.74c2.76 0 4.65-.35 5.67-1.04 1.01-.69 1.52-2.27 1.52-4.74V62.57h21.8v38.25c0 6.18-.4 11.16-1.2 14.94-.8 3.78-2.28 6.97-4.46 9.59s-5.16 4.43-8.94 5.45c-3.78 1.02-8.69 1.52-14.72 1.52-6.03 0-10.91-.5-14.66-1.52-3.74-1.02-6.7-2.83-8.88-5.45-2.18-2.62-3.67-5.81-4.47-9.59-.8-3.78-1.2-8.76-1.2-14.94V62.57h21.8zm66.27 0 6 23.98h.76l6.1-23.98h24.09l-19.62 49.59v18.53h-21.8v-18.53l-19.62-49.59h24.09zm181.18 187.72c-3.44 1.14-7.27-.27-8.88-3.62l-11.43-24.29-13.59 12.83c-1.12 1.06-2.3 1.98-3.47 2.71-7.54 4.66-15.2 1.65-15.06-8.14l2.74-95.98c-.08-4.32 4.76-6.82 8.31-4.38 21.28 13.57 54.66 42.21 75.96 59.65 10.22 8.42 1.66 16.58-7.67 17.69-5.73 1.02-12.7 1.51-18.6 2.21l11.35 24.42c1.56 3.47.01 7.51-3.29 9.28-4.72 2.16-11.78 6.15-16.37 7.62zm19.72-109.5c-1.92.84-3.99.85-5.8.19a7.809 7.809 0 0 1-4.43-4.03 7.794 7.794 0 0 1-.26-6l.04-.11a7.825 7.825 0 0 1 3.96-4.27l10.67-5.3c1.96-.92 4.12-.94 5.99-.25a7.76 7.76 0 0 1 4.37 4.01c.94 2 .96 4.15.27 6.02a7.79 7.79 0 0 1-3.99 4.37l-10.82 5.37zm-28.87-35.3-.07.19a7.762 7.762 0 0 1-4 4.3c-1.75.82-3.82 1-5.78.34l-.36-.12a7.8 7.8 0 0 1-4.25-3.98c-.83-1.77-1-3.83-.34-5.8 1.58-4.75 3.29-10.3 5.13-14.89a7.751 7.751 0 0 1 4.01-4.32 7.798 7.798 0 0 1 10.39 3.76c.84 1.8 1.01 3.94.28 5.95l-5.01 14.57zm-41.46-6c.88 1.94.91 4.05.24 5.9a7.888 7.888 0 0 1-4.04 4.43l-.11.04c-1.95.88-4.06.9-5.9.22a7.883 7.883 0 0 1-4.39-4.02c-2.25-4.84-4.79-9.64-6.98-14.5a7.805 7.805 0 0 1-.21-5.9 7.83 7.83 0 0 1 4.02-4.38c1.98-.92 4.14-.95 6.02-.26 1.86.68 3.47 2.09 4.37 4.01l6.98 14.46zm-30.66 29.59c1.96.74 3.45 2.21 4.28 3.99a7.79 7.79 0 0 1 .28 5.97l-.02.05a7.753 7.753 0 0 1-4.02 4.38l-.16.06c-1.77.79-3.85.92-5.81.21l-15.72-5.57c-1.96-.74-3.45-2.22-4.28-4a7.798 7.798 0 0 1 3.76-10.39 7.768 7.768 0 0 1 5.96-.28l15.73 5.58zm-1.87 42.39c1.97-.92 4.11-.95 5.97-.28 1.89.68 3.51 2.1 4.42 4.04.92 1.96.95 4.1.27 5.98a7.76 7.76 0 0 1-4.03 4.42l-15.33 7.36c-1.98.92-4.12.94-5.99.27a7.842 7.842 0 0 1-4.42-4.04 7.752 7.752 0 0 1-.26-6l.07-.16c.71-1.8 2.09-3.35 3.95-4.23l15.35-7.36z"/></svg>