<svg xmlns="http://www.w3.org/2000/svg" shape-rendering="geometricPrecision" text-rendering="geometricPrecision" image-rendering="optimizeQuality" fill-rule="evenodd" clip-rule="evenodd" viewBox="0 0 512 255.54"><path fill-rule="nonzero" d="M93.83 0h262.43c25.81 0 49.27 10.56 66.27 27.56l.45.48a95.25 95.25 0 0 1 11.17 13.66c-1.82-.49-3.72-.75-5.69-.75-4.64 0-8.95 1.45-12.5 3.94a75.97 75.97 0 0 0-4.72-5.26l-.4-.37c-14.01-14.01-33.33-22.71-54.58-22.71H93.83c-21.26 0-40.58 8.69-54.59 22.69-14 14.01-22.69 33.33-22.69 54.59 0 21.24 8.71 40.56 22.71 54.57 13.99 14.02 33.31 22.71 54.57 22.71h262.43c3.88 0 7.69-.3 11.42-.86.21.56.43 1.11.67 1.67.3.72.67 1.43 1.1 2.11l7.18 11.39a93.09 93.09 0 0 1-20.37 2.24H93.83c-25.76 0-49.23-10.56-66.25-27.58C10.56 143.1 0 119.63 0 93.83c0-25.78 10.56-49.24 27.56-66.24l.03-.03C44.59 10.56 68.05 0 93.83 0zM391.8 116.71c8.13-.02 8.13 12.36 0 12.36l-18.23-.03c-8.07.04-8.11-12.35 0-12.35l18.23.02zm14.09-26.59c1.2 1.21 1.81 2.8 1.8 4.38a6.166 6.166 0 0 1-6.19 6.16c-1.58.01-3.17-.6-4.37-1.81l-12.96-12.99c-5.61-5.82 3.13-14.37 8.84-8.63l12.88 12.89zm58.38 38.95c-8.24.02-7.99-12.37 0-12.37l18.22-.01c8.12-.04 8.14 12.36 0 12.36l-18.22.02zm-5.34-31.21a6.149 6.149 0 0 1-4.37 1.82c-1.57 0-3.16-.6-4.37-1.8a6.208 6.208 0 0 1-1.82-4.37c0-1.58.6-3.17 1.8-4.38l12.88-12.89c5.74-5.76 14.5 2.95 8.76 8.72l-12.88 12.9zm-24.27-16.88c0 1.7-.7 3.24-1.81 4.37a6.21 6.21 0 0 1-4.37 1.81c-1.69 0-3.25-.7-4.37-1.81a6.213 6.213 0 0 1-1.82-4.37l-.01-18.23c-.03-7.96 12.36-8.25 12.36 0l.02 18.23zm2.6 35.58v59.22h5.96v-24.81c0-11.66 18.4-11.3 18.4.65v24.8l.29-.1h6.45v-18.87c0-11.65 18.4-11.3 18.4.65v17.25l.07.01 6.4-.03v-12.18c0-11.65 18.4-11.31 18.4.65v25.8c0 .32-.02.64-.05.95l.31.25c.57 16.62-.57 40.44-14.25 52.34-13.58 11.01-27.15 13.92-41.22 11.7-19.22-3.03-29.22-13.43-38.32-29.97l-36.03-57.13c-1.88-4.42-1.62-7.42.26-9.32 8.13-5.29 21.36 5.92 36.02 21.76l.52-.12v-64.14c0-11.66 18.39-11.3 18.39.64zm-304.1 10.12V60.65h34.23c6.35 0 10.87 1.23 13.58 3.69 2.71 2.47 4.07 6.06 4.07 10.78s-.86 8.36-2.59 10.94c-1.73 2.57-4.03 4.24-6.92 5.02v.63c8.52 1.48 12.78 7.29 12.78 17.43 0 5.29-1.4 9.53-4.22 12.73-2.82 3.21-7.15 4.81-13 4.81h-37.93zm29.37-27.96h-9.89v14.08h9.79c2.96 0 4.44-3.45 4.44-7.04s-1.45-7.04-4.34-7.04zm-1.58-25.25h-8.31V86.6h8.2c2.68 0 4.02-3.29 4.02-6.57 0-3.27-1.31-6.56-3.91-6.56zm57.48-12.82v49.55h7.5c2.68 0 4.51-.33 5.49-1 .99-.67 1.48-2.21 1.48-4.6V60.65h21.13v37.08c0 5.99-.38 10.82-1.16 14.48-.77 3.66-2.21 6.76-4.33 9.3-2.11 2.53-5 4.29-8.66 5.28-3.67.98-8.42 1.48-14.26 1.48-5.85 0-10.59-.5-14.22-1.48-3.62-.99-6.49-2.75-8.61-5.28-2.11-2.54-3.56-5.64-4.33-9.3-.78-3.66-1.16-8.49-1.16-14.48V60.65h21.13zm65.82 0 5.81 23.24h.74l5.92-23.24h23.35l-19.02 48.07v17.96h-21.13v-17.96L260.9 60.65h23.35z"/></svg>