<svg xmlns="http://www.w3.org/2000/svg" shape-rendering="geometricPrecision" text-rendering="geometricPrecision" image-rendering="optimizeQuality" fill-rule="evenodd" clip-rule="evenodd" viewBox="0 0 512 395.92"><path d="M30.98 0h441.51c17.03 0 30.93 13.9 30.93 30.93v165.61c-6.67-6.51-14-12.34-21.89-17.36v-26.67H21.94v170.91c0 7.16 5.91 13.07 13.06 13.07h246.34c2.59 7.62 5.87 14.94 9.72 21.89H30.98C13.95 358.38 0 344.49 0 327.45V30.98C0 13.9 13.9 0 30.98 0zm47.1 290.54c-7.12 0-12.89-5.78-12.89-12.9 0-7.11 5.77-12.89 12.89-12.89h117.28c7.12 0 12.89 5.78 12.89 12.89 0 7.12-5.77 12.9-12.89 12.9H78.08zm0-61.88c-7.12 0-12.89-5.77-12.89-12.89 0-7.12 5.77-12.89 12.89-12.89h35.08c7.12 0 12.9 5.77 12.9 12.89 0 7.12-5.78 12.89-12.9 12.89H78.08zm74.1 0c-7.12 0-12.89-5.77-12.89-12.89 0-7.12 5.77-12.89 12.89-12.89h25.55c7.12 0 12.89 5.77 12.89 12.89 0 7.12-5.77 12.89-12.89 12.89h-25.55zm66.7 0c-7.12 0-12.89-5.77-12.89-12.89 0-7.12 5.77-12.89 12.89-12.89h25.42c7.12 0 12.89 5.77 12.89 12.89 0 7.12-5.77 12.89-12.89 12.89h-25.42zm190.33-38.34c56.76 0 102.79 46.04 102.79 102.79 0 56.77-46.03 102.81-102.79 102.81-56.77 0-102.81-46.04-102.81-102.81 0-56.75 46.04-102.79 102.81-102.79zm-28.79 87.87 16.2 15.21 38.08-39.35c3.52-3.56 5.72-6.42 10.04-1.96l14.04 14.39c4.62 4.55 4.39 7.24.03 11.48l-54.16 53.91c-9.17 8.99-7.58 9.54-16.88.33l-30.99-30.83c-1.94-2.08-1.73-4.2.39-6.31l16.3-16.9c2.47-2.6 4.44-2.37 6.95.03zM21.94 69.15h459.54V35c0-7.15-5.91-13.06-13.06-13.06H35c-7.15 0-13.06 5.91-13.06 13.06v34.15z"/></svg>