<svg xmlns="http://www.w3.org/2000/svg" shape-rendering="geometricPrecision" text-rendering="geometricPrecision" image-rendering="optimizeQuality" fill-rule="evenodd" clip-rule="evenodd" viewBox="0 0 512 395.92"><path d="M30.98 0h441.51c17.03 0 30.93 13.9 30.93 30.93v165.61a135.92 135.92 0 0 0-21.89-17.36v-26.67H21.94v170.91c0 7.16 5.91 13.07 13.06 13.07h246.33c2.6 7.62 5.87 14.94 9.73 21.89H30.98C13.95 358.38 0 344.49 0 327.45V30.98C0 13.9 13.9 0 30.98 0zm47.1 290.54c-7.12 0-12.89-5.78-12.89-12.9 0-7.11 5.77-12.89 12.89-12.89h117.28c7.12 0 12.89 5.78 12.89 12.89 0 7.12-5.77 12.9-12.89 12.9H78.08zm0-61.88c-7.12 0-12.89-5.77-12.89-12.89 0-7.12 5.77-12.89 12.89-12.89h35.08c7.12 0 12.89 5.77 12.89 12.89 0 7.12-5.77 12.89-12.89 12.89H78.08zm74.1 0c-7.12 0-12.89-5.77-12.89-12.89 0-7.12 5.77-12.89 12.89-12.89h25.55c7.12 0 12.89 5.77 12.89 12.89 0 7.12-5.77 12.89-12.89 12.89h-25.55zm66.7 0c-7.12 0-12.89-5.77-12.89-12.89 0-7.12 5.77-12.89 12.89-12.89h25.42c7.11 0 12.89 5.77 12.89 12.89 0 7.12-5.78 12.89-12.89 12.89h-25.42zm190.32-38.34c56.76 0 102.8 46.04 102.8 102.79 0 56.77-46.04 102.81-102.8 102.81s-102.8-46.04-102.8-102.81c0-56.75 46.04-102.79 102.8-102.79zm-58.1 99.41 50.13 46.76v-23.3c29.27-6.06 48.53-3.03 66.09 19.23-3.05-45.78-30.46-64.22-66.09-65.69v-23.75l-50.13 46.75zM21.94 69.15h459.54V35c0-7.15-5.91-13.06-13.06-13.06H35c-7.15 0-13.06 5.91-13.06 13.06v34.15z"/></svg>