<svg xmlns="http://www.w3.org/2000/svg" shape-rendering="geometricPrecision" text-rendering="geometricPrecision" image-rendering="optimizeQuality" fill-rule="evenodd" clip-rule="evenodd" viewBox="0 0 512 395.92"><path d="M30.98 0h441.51c17.03 0 30.93 13.9 30.93 30.93v165.61a135.92 135.92 0 0 0-21.89-17.36v-26.67H21.94v170.91c0 7.16 5.91 13.07 13.06 13.07h246.33c2.6 7.62 5.87 14.94 9.73 21.89H30.98C13.95 358.38 0 344.49 0 327.45V30.98C0 13.9 13.9 0 30.98 0zm47.1 290.54c-7.12 0-12.89-5.78-12.89-12.9 0-7.11 5.77-12.89 12.89-12.89h117.28c7.12 0 12.89 5.78 12.89 12.89 0 7.12-5.77 12.9-12.89 12.9H78.08zm0-61.88c-7.12 0-12.89-5.77-12.89-12.89 0-7.12 5.77-12.89 12.89-12.89h35.08c7.12 0 12.89 5.77 12.89 12.89 0 7.12-5.77 12.89-12.89 12.89H78.08zm74.1 0c-7.12 0-12.89-5.77-12.89-12.89 0-7.12 5.77-12.89 12.89-12.89h25.55c7.12 0 12.89 5.77 12.89 12.89 0 7.12-5.77 12.89-12.89 12.89h-25.55zm66.7 0c-7.12 0-12.89-5.77-12.89-12.89 0-7.12 5.77-12.89 12.89-12.89h25.42c7.11 0 12.89 5.77 12.89 12.89 0 7.12-5.78 12.89-12.89 12.89h-25.42zm190.33-38.34c56.75 0 102.79 46.04 102.79 102.79 0 56.77-46.04 102.81-102.79 102.81-56.77 0-102.81-46.04-102.81-102.81 0-56.75 46.04-102.79 102.81-102.79zm6.68 49.48c4.35 0 7.79 1.26 10.27 3.75 2.47 2.47 3.72 5.9 3.72 10.27 0 4.45-2.13 8.41-6.39 11.89-4.3 3.46-9.29 5.21-14.97 5.21-4.26 0-7.66-1.2-10.25-3.6-2.61-2.42-3.9-5.55-3.9-9.44 0-4.92 2.12-9.15 6.33-12.74 4.23-3.56 9.29-5.34 15.19-5.34zm-28.32 91.19h5.59v-38.06H382.6c0-14.37 26.42-5.04 45.85-9.95v48.01h7.36v12.41h-48.24v-12.41zM21.94 69.15h459.54V35c0-7.15-5.91-13.06-13.06-13.06H35c-7.15 0-13.06 5.91-13.06 13.06v34.15z"/></svg>