<svg xmlns="http://www.w3.org/2000/svg" shape-rendering="geometricPrecision" text-rendering="geometricPrecision" image-rendering="optimizeQuality" fill-rule="evenodd" clip-rule="evenodd" viewBox="0 0 512 395.92"><path d="M30.98 0h441.51c17.03 0 30.93 13.9 30.93 30.93v165.61a135.92 135.92 0 0 0-21.89-17.36v-26.67H21.94v170.91c0 7.16 5.91 13.07 13.06 13.07h246.33c2.6 7.62 5.87 14.94 9.73 21.89H30.98C13.95 358.38 0 344.49 0 327.45V30.98C0 13.9 13.9 0 30.98 0zm47.1 290.54c-7.12 0-12.89-5.78-12.89-12.9 0-7.11 5.77-12.89 12.89-12.89h117.28c7.12 0 12.89 5.78 12.89 12.89 0 7.12-5.77 12.9-12.89 12.9H78.08zm0-61.88c-7.12 0-12.89-5.77-12.89-12.89 0-7.12 5.77-12.89 12.89-12.89h35.08c7.12 0 12.89 5.77 12.89 12.89 0 7.12-5.77 12.89-12.89 12.89H78.08zm74.1 0c-7.12 0-12.89-5.77-12.89-12.89 0-7.12 5.77-12.89 12.89-12.89h25.55c7.12 0 12.89 5.77 12.89 12.89 0 7.12-5.77 12.89-12.89 12.89h-25.55zm66.7 0c-7.12 0-12.89-5.77-12.89-12.89 0-7.12 5.77-12.89 12.89-12.89h25.42c7.11 0 12.89 5.77 12.89 12.89 0 7.12-5.78 12.89-12.89 12.89h-25.42zm190.33-38.34c56.75 0 102.79 46.04 102.79 102.79 0 56.77-46.04 102.81-102.79 102.81-56.77 0-102.81-46.04-102.81-102.81 0-56.75 46.04-102.79 102.81-102.79zm-7.81 138.53-37.51 10 5.42-40.26 32.09 30.26zm-23.84-39.39 43.27-48.94c.63-.71 1.52-1.14 2.48-1.17.59-.02 1.17.12 1.71.39l28.56 25.97c.56.53.89 1.27.92 2.05.03.88-.34 1.72-1.01 2.3l-43.94 49.65-32.03-30.25h.04zM21.94 69.15h459.54V35c0-7.15-5.91-13.06-13.06-13.06H35c-7.15 0-13.06 5.91-13.06 13.06v34.15z"/></svg>