<svg xmlns="http://www.w3.org/2000/svg" shape-rendering="geometricPrecision" text-rendering="geometricPrecision" image-rendering="optimizeQuality" fill-rule="evenodd" clip-rule="evenodd" viewBox="0 0 512 429.08"><path fill-rule="nonzero" d="M364.87 24.95c5.85 3.05 10.48 6.9 14.37 11.37 3.7 4.26 6.66 9.05 9.38 14.25 2.96 5.67 5.3 12.24 7.8 19.3 3.15 8.89 6.61 18.62 11.56 27.12 4.11 7.05 13.07 12.67 22.48 18.58 11.01 6.91 22.56 14.17 30.19 25.11h32.59c5.16 0 9.85 2.12 13.25 5.51l.35.38c3.19 3.37 5.16 7.91 5.16 12.87v110.3c0 5.16-2.12 9.85-5.51 13.25-3.4 3.4-8.1 5.52-13.25 5.52H451.1c.24 12.11-.92 22.37-3.66 31.19-4.53 14.52-13.13 24.91-26.47 32.83-9.59 5.68-20.3 7.68-29.75 9.43-6.9 1.28-13.01 2.42-15.92 4.59-7.69 5.71-11.94 12.81-16.3 20.11-5.95 9.97-12.12 20.27-26.46 29.62-9.12 5.94-18.62 9.79-28.48 11.6-9.87 1.8-20.01 1.56-30.4-.67-9.33-2.01-16.42-6.81-23.16-11.37-5.45-3.69-10.62-7.2-15.69-7.84-10.69-1.35-22.27.42-33.16 2.09-12.11 1.85-23.46 3.59-33.77 1.25a76.87 76.87 0 0 1-10.94-3.33 71.481 71.481 0 0 1-10.01-4.85c-3.19-1.81-6.28-3.92-9.28-6.31a77.354 77.354 0 0 1-8.35-7.8c-7.18-7.76-11.36-18.48-15.82-29.91-3.98-10.23-8.22-21.1-14.77-29.72-3.06-4.03-8.69-6.77-14.62-9.65-7.29-3.54-14.97-7.27-21.42-14.39-4.78-5.29-8.74-10.91-11.83-16.87H18.76c-5.16 0-9.85-2.12-13.25-5.52C2.11 279.6 0 274.9 0 269.74v-110.3c0-5.16 2.11-9.86 5.51-13.25 3.39-3.4 8.08-5.51 13.25-5.51h34.93v-.22c.18-15.52 4.88-28.16 15.18-39.32 9.76-10.58 24.53-19.6 45.36-28.4 11.2-4.73 18.95-9.61 24.88-14.77 5.87-5.12 10.01-10.6 13.96-16.52l.69-1.02c8.19-12.32 16.57-24.88 37.62-35.18 24.25-11.85 44.23-1.29 62.76 8.51 9.84 5.21 19.2 10.16 27.35 10.2 9.8.04 19.97-1.84 29.27-3.56 7.41-1.37 14.32-2.65 20.61-2.91 5.84-.24 11.47-.07 17 1 5.59 1.09 11.06 3.09 16.5 6.46zM80.25 220.94H62.36v7.98h21.92v13.14H44.46v-55.92h39.37l-2.23 13.14H62.36v8.69h17.89v12.97zm28.82-34.8 6.17 14.94h.9l6.17-14.94h19.42l-12.44 27.02 12.44 28.9h-19.86l-6.72-16.1h-.8l-6.62 16.1H88.76l12.17-28.36-12.17-27.56h20.31zm75.61 39.91 1.35 15.03c-3.76 1.55-8.47 2.32-14.14 2.32s-10.22-.59-13.65-1.78c-3.43-1.2-6.13-3.08-8.1-5.64-1.96-2.57-3.34-5.58-4.11-9.04-.78-3.46-1.17-7.73-1.17-12.8s.39-9.35 1.17-12.84c.77-3.49 2.15-6.51 4.11-9.08 3.82-4.95 10.83-7.43 21.03-7.43 2.27 0 4.94.23 8.01.67 3.07.45 5.36 1 6.85 1.66l-2.69 13.69c-3.87-.83-7.42-1.25-10.64-1.25-3.23 0-5.46.3-6.72.89-1.25.6-1.87 1.79-1.87 3.58v23.45c2.32.47 4.68.71 7.06.71 5.07 0 9.58-.71 13.51-2.14zm44.75 16.01h-35.8v-55.92h17.9v41.61h17.9v14.31zm22.82-55.92v41.96h6.35c2.27 0 3.82-.28 4.65-.85.84-.56 1.26-1.86 1.26-3.89v-37.22h17.89v31.4c0 5.07-.33 9.16-.98 12.26-.66 3.11-1.88 5.73-3.67 7.88-1.79 2.15-4.24 3.64-7.34 4.47-3.1.84-7.13 1.25-12.08 1.25s-8.96-.41-12.03-1.25c-3.08-.83-5.51-2.32-7.3-4.47s-3.01-4.77-3.66-7.88c-.66-3.1-.99-7.19-.99-12.26v-31.4h17.9zm36.86 54.94 2.51-12.41c5.49 1.37 10.43 2.05 14.81 2.05 4.38 0 7.92-.18 10.6-.53v-6.83l-8.05-.72c-7.28-.65-12.27-2.4-14.99-5.23-2.71-2.83-4.07-7.02-4.07-12.57 0-7.64 1.66-12.89 4.97-15.75 3.31-2.87 8.93-4.3 16.87-4.3 7.93 0 15.09.75 21.47 2.24L330.99 199c-5.54-.9-9.99-1.34-13.33-1.34s-6.17.14-8.5.44v6.74l6.44.62c7.82.78 13.22 2.64 16.2 5.6 2.98 2.95 4.47 7.05 4.47 12.3 0 3.76-.5 6.94-1.52 9.53-1.01 2.6-2.22 4.56-3.62 5.91-1.4 1.34-3.39 2.37-5.95 3.09-2.57.71-4.82 1.14-6.76 1.29-1.94.15-4.52.22-7.74.22-7.75 0-14.94-.77-21.57-2.32zm55.22.98v-55.92h17.89v55.92h-17.89zm58.7-55.92h18.88l-13.87 55.92h-26.13l-13.87-55.92h18.88l7.61 35.52h.8l7.7-35.52zm60.49 34.8h-17.9v7.98h21.93v13.14h-39.82v-55.92h39.37l-2.24 13.14h-19.24v8.69h17.9v12.97zm-21.95-80.26c-5.58-5.02-12.2-9.18-18.61-13.21-10.91-6.85-21.3-13.37-27.16-23.42-5.62-9.63-9.3-20.01-12.67-29.5-2.36-6.67-4.57-12.88-6.97-17.48-2.23-4.27-4.64-8.17-7.56-11.54a34.33 34.33 0 0 0-10.24-8.07l-.52-.33c-3.95-2.51-7.97-3.99-12.11-4.8-4.39-.85-8.98-.98-13.81-.78-5.28.22-11.72 1.41-18.63 2.69-9.88 1.82-20.7 3.82-31.86 3.78-11.65-.05-22.48-5.78-33.86-11.8-15.5-8.2-32.22-17.04-50.02-8.34-17.59 8.6-24.9 19.57-32.06 30.32l-.73 1.08c-4.59 6.88-9.43 13.26-16.39 19.33-6.91 6.02-15.87 11.67-28.68 17.09-18.93 7.99-32.13 15.94-40.46 24.98-7.79 8.44-11.34 18.07-11.48 29.94v.06h80.71c12.75-18.65 30.31-34 51.27-44.02 3.5-1.67 7.7-.19 9.37 3.31 1.67 3.5.19 7.7-3.31 9.37-15.62 7.47-29.12 18.27-39.78 31.34h179.95l-.11-.14a116.863 116.863 0 0 0-48.52-34.95c-3.64-1.38-5.47-5.46-4.08-9.09 1.38-3.64 5.46-5.47 9.09-4.08a130.806 130.806 0 0 1 54.37 39.2c2.39 2.91 4.66 5.93 6.79 9.06h78.07zM437 288.51h-74.2l-.72 1.02c-19.3 27.16-48.97 46.95-84.43 52.94-35.43 5.99-69.95-2.95-97.11-22.26a130.766 130.766 0 0 1-31.44-31.7H67.21c1.75 2.56 3.71 5.04 5.88 7.44 4.57 5.05 11.01 8.18 17.12 11.14 7.47 3.63 14.55 7.07 19.69 13.84 7.77 10.23 12.38 22.03 16.7 33.13 3.96 10.17 7.68 19.7 13.01 25.46 2.15 2.33 4.43 4.45 6.81 6.36 2.32 1.85 4.81 3.54 7.45 5.04l.09.06c2.53 1.48 5.24 2.79 8.11 3.91 2.87 1.12 5.84 2.03 8.9 2.72 7.65 1.73 17.78.18 28.59-1.47 11.73-1.8 24.21-3.7 37.02-2.09 8.39 1.06 14.92 5.49 21.8 10.15 5.6 3.79 11.51 7.79 18.21 9.23 8.63 1.85 16.95 2.07 24.94.61 8.01-1.47 15.8-4.64 23.35-9.56 11.59-7.56 16.91-16.45 22.04-25.04 5.09-8.52 10.04-16.8 20-24.19 5.51-4.1 13.14-5.52 21.77-7.12 8.25-1.54 17.59-3.28 25.11-7.74 10.21-6.05 16.77-13.93 20.18-24.88 2.31-7.41 3.27-16.3 3.02-27zm-91.89 0h-178.3c6.42 7.67 13.78 14.47 21.89 20.23 24.21 17.22 55.01 25.19 86.64 19.84 28.41-4.8 52.66-19.55 69.77-40.07zm148.13-136.07H18.76c-1.92 0-3.67.79-4.94 2.06a6.979 6.979 0 0 0-2.06 4.94v110.3c0 1.92.8 3.67 2.06 4.94a6.979 6.979 0 0 0 4.94 2.06h474.48c1.91 0 3.66-.79 4.93-2.06 1.27-1.27 2.07-3.03 2.07-4.94v-110.3c0-1.81-.7-3.47-1.84-4.72l-.22-.22c-1.27-1.26-3.02-2.06-4.94-2.06zM251.81 63.75l6.49 15.2 16.59 1.49c.57.07 1.07.36 1.41.77.36.41.55.96.52 1.54v.1c-.03.28-.11.55-.23.79-.11.21-.26.41-.43.58l-12.58 10.99 3.7 16.2c.12.58 0 1.17-.29 1.64l-.03.05c-.31.45-.78.8-1.35.93l-.07.02c-.28.05-.56.05-.81 0l-.08-.01c-.27-.06-.53-.17-.75-.31l-14.16-8.47-14.23 8.51c-.51.31-1.12.38-1.67.25-.55-.14-1.05-.49-1.37-1.02-.14-.24-.24-.51-.28-.78l-.01-.05c-.03-.24-.02-.47.01-.69l3.72-16.27-12.49-10.91c-.45-.39-.72-.95-.75-1.51-.04-.57.14-1.15.54-1.61.2-.23.44-.41.7-.54l.05-.02c.25-.11.53-.18.8-.2l16.43-1.47 6.54-15.3a2.209 2.209 0 0 1 2.88-1.12c.28.12.52.28.7.47.21.21.37.45.48.71l.02.04z"/></svg>