<svg xmlns="http://www.w3.org/2000/svg" shape-rendering="geometricPrecision" text-rendering="geometricPrecision" image-rendering="optimizeQuality" fill-rule="evenodd" clip-rule="evenodd" viewBox="0 0 512 395.92"><path d="M30.98 0h441.51c17.03 0 30.93 13.9 30.93 30.93v165.61a135.92 135.92 0 0 0-21.89-17.36v-26.67H21.94v170.91c0 7.16 5.91 13.07 13.06 13.07h246.33c2.6 7.62 5.87 14.94 9.73 21.89H30.98C13.95 358.38 0 344.49 0 327.45V30.98C0 13.9 13.9 0 30.98 0zm47.1 290.54c-7.12 0-12.89-5.78-12.89-12.9 0-7.11 5.77-12.89 12.89-12.89h117.28c7.12 0 12.89 5.78 12.89 12.89 0 7.12-5.77 12.9-12.89 12.9H78.08zm0-61.88c-7.12 0-12.89-5.77-12.89-12.89 0-7.12 5.77-12.89 12.89-12.89h35.08c7.12 0 12.89 5.77 12.89 12.89 0 7.12-5.77 12.89-12.89 12.89H78.08zm74.1 0c-7.12 0-12.89-5.77-12.89-12.89 0-7.12 5.77-12.89 12.89-12.89h25.55c7.12 0 12.89 5.77 12.89 12.89 0 7.12-5.77 12.89-12.89 12.89h-25.55zm66.7 0c-7.12 0-12.89-5.77-12.89-12.89 0-7.12 5.77-12.89 12.89-12.89h25.42c7.11 0 12.89 5.77 12.89 12.89 0 7.12-5.78 12.89-12.89 12.89h-25.42zm190.32-38.34c56.76 0 102.8 46.04 102.8 102.79 0 56.77-46.04 102.81-102.8 102.81s-102.8-46.04-102.8-102.81c0-56.75 46.04-102.79 102.8-102.79zm3.51 49.39 14.13 34.58 37.3 2.77c2.1.14 3.67 1.96 3.53 4.06-.07 1.09-.6 2.03-1.39 2.67l-28.49 24.12 8.89 36.3c.49 2.04-.76 4.09-2.8 4.58-1.02.24-2.05.04-2.89-.47l-31.79-19.67-31.81 19.68a3.8 3.8 0 0 1-5.23-1.24c-.55-.89-.69-1.94-.46-2.9l8.9-36.28-28.53-24.15a3.813 3.813 0 0 1-.45-5.36c.68-.82 1.65-1.28 2.64-1.33l37.28-2.78 14.15-34.58c.78-1.94 3-2.86 4.93-2.08.99.4 1.71 1.17 2.09 2.08zM21.94 69.15h459.54V35c0-7.15-5.91-13.06-13.06-13.06H35c-7.15 0-13.06 5.91-13.06 13.06v34.15z"/></svg>