<svg xmlns="http://www.w3.org/2000/svg" shape-rendering="geometricPrecision" text-rendering="geometricPrecision" image-rendering="optimizeQuality" fill-rule="evenodd" clip-rule="evenodd" viewBox="0 0 455 512.49"><path d="M455 370.51 308.7 512.49l-75.28-75.39 8.48-11 55.18 54.77.69.73c5.27 5.16 13.73 5.07 18.89-.2l4.77-4.87.16.15 22.44-23.25 99.62-94.28L455 370.51zm-68.07-141.57V22.11H22.11v380.64l7.91-4.68c4.49-2.65 10.1-1.75 13.57 1.85l34.18 32.52 35.56-31.83c4.3-3.84 10.78-3.69 14.89.19l34.25 32.22 33.12-32.11c1.68-1.64 3.76-2.63 5.92-2.98-.24 7.7 2.51 15.48 8.27 21.44a29.426 29.426 0 0 0-3.68 6.48l-2.4-2.08-33.43 32.4c-4.2 4.08-10.93 4.18-15.24.12l-34.55-32.52-35.22 31.52c-4.21 4.15-11.01 4.24-15.33.13L34.08 421.3l-16.83 9.96c-1.77 1.2-3.9 1.9-6.19 1.9-6.1 0-11.06-4.96-11.06-11.05V11.05C0 4.95 4.96 0 11.06 0h386.92c6.1 0 11.05 4.95 11.05 11.05v235.78l-10.76-10.79c-3.3-3.31-7.2-5.68-11.34-7.1zm-67.82 4.78H80.92v-22.11h238.19v22.11zm-35.96 73.39H80.92V285h225l-22.77 22.11zM109.06 160.09H88.03V81.01h46.73v17.17h-25.7v15.06h23.68v17.17h-23.68v29.68zm85.63 0h-46.96V81.01h46.96v17.17h-25.6v12.4h23.7v17.17h-23.7v14.95h25.6v17.39zm60.79 0h-46.96V81.01h46.96v17.17h-25.6v12.4h23.7v17.17h-23.7v14.95h25.6v17.39zm65.51-23.99c0 4.9-1.23 9.26-3.72 13.06-2.49 3.81-6.07 6.76-10.77 8.88-4.68 2.11-10.18 3.16-16.48 3.16-5.26 0-9.69-.37-13.25-1.11-3.57-.73-7.28-2.03-11.13-3.87v-19.05a64.5 64.5 0 0 0 12.69 4.89c4.4 1.16 8.44 1.75 12.11 1.75 3.18 0 5.51-.55 6.98-1.64 1.48-1.09 2.22-2.51 2.22-4.23 0-1.09-.3-2.03-.9-2.84-.6-.81-1.55-1.63-2.87-2.46-1.31-.83-4.81-2.53-10.52-5.09-5.15-2.34-9.01-4.62-11.59-6.81-2.57-2.2-4.49-4.73-5.72-7.57-1.24-2.84-1.87-6.22-1.87-10.12 0-7.27 2.64-12.95 7.94-17.04 5.3-4.08 12.59-6.11 21.86-6.11 8.17 0 16.52 1.88 25.02 5.67l-6.53 16.47c-7.4-3.38-13.77-5.08-19.14-5.08-2.77 0-4.8.5-6.06 1.48-1.27.98-1.9 2.2-1.9 3.63 0 1.55.82 2.96 2.42 4.18 1.61 1.22 5.94 3.45 13.05 6.7 6.82 3.06 11.54 6.36 14.2 9.88 2.64 3.52 3.96 7.93 3.96 13.27zm131.62 196.17L306.32 474.25l-75.29-75.4 146.29-141.97 75.29 75.39zm-90.04 27.77c4.05 12.76-3 26.38-15.76 30.43-12.75 4.05-26.37-3-30.42-15.76-4.06-12.75 3-26.37 15.75-30.42 12.76-4.06 26.38 3 30.43 15.75zm54.34-15.02-97.7 93.42c-6.11-6.12-16.12-6.14-22.26.01l-29.8-29.8c6.13-6.11 6.15-16.11 0-22.25l97.72-93.46c6.11 6.13 16.12 6.14 22.26 0l29.79 29.78c-6.14 6.15-6.16 16.15-.01 22.3z"/></svg>