<svg id="Layer_1" data-name="Layer 1" xmlns="http://www.w3.org/2000/svg" viewBox="0 0 122.88 122.48"><title>franchise</title><path d="M58.72,32.51a.65.65,0,1,1-.65.65.65.65,0,0,1,.65-.65Zm38.6,63.13a.66.66,0,1,1-.66.65.66.66,0,0,1,.66-.65ZM119.77,82.7v18.67a2.43,2.43,0,0,1-2.42,2.42H82.7a2.43,2.43,0,0,1-2.42-2.42V82.72a8.5,8.5,0,0,0,2,.14v18.51a.42.42,0,0,0,.42.42H93.83V90.05a3.62,3.62,0,0,1,3.62-3.62h6a3.64,3.64,0,0,1,3.62,3.62v11.74h10.3a.44.44,0,0,0,.42-.42V82.76a7.89,7.89,0,0,0,2-.06ZM95.51,101.79h9.85V90.05a1.95,1.95,0,0,0-1.94-1.94h-6a1.95,1.95,0,0,0-1.94,1.94v11.74Zm21.11-21.41a8.54,8.54,0,0,1-2-.87,4.43,4.43,0,0,1-.79-1.07,4.18,4.18,0,0,1-.79,1.07,6.32,6.32,0,0,1-7.65,0,4.43,4.43,0,0,1-.79-1.07,4.14,4.14,0,0,1-.78,1.07,6.32,6.32,0,0,1-7.65,0,4.18,4.18,0,0,1-.79-1.07,4.43,4.43,0,0,1-.79,1.07,6.32,6.32,0,0,1-7.65,0,4.43,4.43,0,0,1-.79-1.07,4.14,4.14,0,0,1-.78,1.07,7.61,7.61,0,0,1-2.64,1.12,5.21,5.21,0,0,1-4.29-1.12,4.4,4.4,0,0,1-1.29-3.1v-1.7a.77.77,0,0,1,.07-.27l3.09-9.9a2,2,0,0,1,2.07-1.4h35a2.2,2.2,0,0,1,2.07,1.39c.81,2.4,3,8,3.4,10.13,0,.48,0,1.24,0,1.75a4.36,4.36,0,0,1-1.29,3.1c-1.29,1.29-3.26,1.26-4.95.87ZM20.13,95.64a.66.66,0,1,1-.65.65.66.66,0,0,1,.65-.65ZM42.58,82.7v18.67a2.43,2.43,0,0,1-2.42,2.42H5.51a2.43,2.43,0,0,1-2.42-2.42V82.72a8.5,8.5,0,0,0,2,.14v18.51a.42.42,0,0,0,.42.42H16.64V90.05a3.62,3.62,0,0,1,3.62-3.62h6a3.62,3.62,0,0,1,3.62,3.62v11.74h10.3a.43.43,0,0,0,.42-.42V82.76a7.87,7.87,0,0,0,2-.06ZM18.32,101.79h9.86V90.05a1.95,1.95,0,0,0-1.94-1.94h-6a1.95,1.95,0,0,0-1.94,1.94v11.74ZM39.44,80.38a8.62,8.62,0,0,1-2-.87,4.14,4.14,0,0,1-.78-1.07,4.43,4.43,0,0,1-.79,1.07,6.32,6.32,0,0,1-7.65,0,4.18,4.18,0,0,1-.79-1.07,4.18,4.18,0,0,1-.79,1.07,6.32,6.32,0,0,1-7.65,0,4.43,4.43,0,0,1-.79-1.07,4.14,4.14,0,0,1-.78,1.07,6.32,6.32,0,0,1-7.65,0A4.18,4.18,0,0,1,9,78.44a4.43,4.43,0,0,1-.79,1.07,7.48,7.48,0,0,1-2.63,1.12,5.19,5.19,0,0,1-4.29-1.12A4.36,4.36,0,0,1,0,76.41v-1.7a.6.6,0,0,1,.06-.27l3.09-9.9a2,2,0,0,1,2.08-1.4h35a2.2,2.2,0,0,1,2.07,1.39c.81,2.4,3,8,3.4,10.13,0,.48,0,1.24,0,1.75a4.39,4.39,0,0,1-1.28,3.1c-1.3,1.29-3.27,1.26-5,.87ZM16.84,51.87a3.31,3.31,0,1,1-6-2.86,53.71,53.71,0,0,1,6.38-10.24,55.12,55.12,0,0,1,8.47-8.6,3.31,3.31,0,1,1,4.18,5.14A47.93,47.93,0,0,0,16.84,51.87ZM94.59,36.06A3.31,3.31,0,1,1,98.85,31c.67.56,1.19,1,1.59,1.37s1,.92,1.53,1.45a53.78,53.78,0,0,1,5.51,6.31A56.49,56.49,0,0,1,112,47.21a3.32,3.32,0,1,1-5.87,3.1,45.9,45.9,0,0,0-3.93-6.2,48,48,0,0,0-4.84-5.56c-.39-.4-.85-.81-1.34-1.27s-1-.93-1.39-1.22Zm-17.44,77.3a3.32,3.32,0,1,1,2.11,6.29,52,52,0,0,1-8.56,2.11,54.1,54.1,0,0,1-8.82.72,54.86,54.86,0,0,1-9-.74,53.5,53.5,0,0,1-8.72-2.2,3.32,3.32,0,1,1,2.15-6.29A47.94,47.94,0,0,0,54,115.19a48.45,48.45,0,0,0,7.91.64,47.61,47.61,0,0,0,7.75-.62,45.51,45.51,0,0,0,7.53-1.85Zm4-93.79V38.23a2.43,2.43,0,0,1-2.42,2.42H44.1a2.43,2.43,0,0,1-2.42-2.42V19.59a9.05,9.05,0,0,0,2,.13V38.23a.42.42,0,0,0,.42.42H55.23V26.91a3.65,3.65,0,0,1,3.63-3.62h6a3.64,3.64,0,0,1,3.62,3.62V38.65H78.76a.43.43,0,0,0,.42-.42V19.63a9,9,0,0,0,2-.06ZM56.92,38.65h9.85V26.91A1.95,1.95,0,0,0,64.83,25h-6a1.93,1.93,0,0,0-1.37.57,1.9,1.9,0,0,0-.57,1.37V38.65ZM78,17.25a8.81,8.81,0,0,1-2-.88,4.18,4.18,0,0,1-.79-1.07,4.43,4.43,0,0,1-.79,1.07,6.32,6.32,0,0,1-7.65,0A4.43,4.43,0,0,1,66,15.3a4.14,4.14,0,0,1-.78,1.07,6.32,6.32,0,0,1-7.65,0,4.18,4.18,0,0,1-.79-1.07A4.43,4.43,0,0,1,56,16.37a6.32,6.32,0,0,1-7.65,0,4.43,4.43,0,0,1-.79-1.07,4.18,4.18,0,0,1-.79,1.07,7.31,7.31,0,0,1-2.63,1.13,5.23,5.23,0,0,1-4.29-1.13,4.38,4.38,0,0,1-1.29-3.1v-1.7a.83.83,0,0,1,.07-.27l3.09-9.9A2,2,0,0,1,43.82,0h35a2.22,2.22,0,0,1,2.07,1.39c.8,2.4,3,8,3.39,10.13,0,.48,0,1.24,0,1.75A4.38,4.38,0,0,1,83,16.37c-1.3,1.3-3.26,1.26-5,.88Z"/></svg>