<svg id="Layer_1" data-name="Layer 1" xmlns="http://www.w3.org/2000/svg" viewBox="0 0 89.8 122.88"><title>group-buyers</title><path d="M2.66,56.81a2.7,2.7,0,0,1,0-5.4h4a12.56,12.56,0,0,1,6.48,1.71,10.19,10.19,0,0,1,4.37,6.21.29.29,0,0,0,.06.21l.69,2.73H30.35a8.54,8.54,0,0,0,1.59,2l3.37,3.34H19.73l6.08,21H68.88l5.66-21H59.22l3.35-3.32a8.53,8.53,0,0,0,1.61-2H78a2.67,2.67,0,0,1,2.66,2.67,4,4,0,0,1-.13.82l-7,26.12a2.64,2.64,0,0,1-2.6,2.05H27.24c1,3.55,1.91,5.46,3.2,6.35,1.57,1,4.31,1.09,8.88,1H70.25a2.66,2.66,0,0,1,0,5.32H39.39c-5.67.07-9.14-.06-11.94-1.91s-4.37-5.19-5.88-11.12h0L12.43,60.91c0-.07,0-.07-.07-.14a4.73,4.73,0,0,0-2-3.07,6.88,6.88,0,0,0-3.75-.89H2.66ZM42,27.3c-1.21-1.07-2.73-2-2.94-4.24h-.13a1.66,1.66,0,0,1-.86-.23,2.29,2.29,0,0,1-.94-1.15c-.44-1-.79-3.64.31-4.39l-.2-.14,0-.29c0-.53,0-1.17-.06-1.85,0-2.48-.09-5.48-2.08-6.09l-.86-.26L34.72,8a33,33,0,0,1,5-5.07A12.75,12.75,0,0,1,45.5.09a7,7,0,0,1,5.63,1.57,10.72,10.72,0,0,1,1.5,1.51,6.46,6.46,0,0,1,4.51,2.64,9.1,9.1,0,0,1,1.46,3,10,10,0,0,1,.4,3.35,8.09,8.09,0,0,1-2.34,5.44,1.65,1.65,0,0,1,.73.19A1.81,1.81,0,0,1,58,20c-.22.67-.49,1.46-.75,2.12-.31.89-.78,1.06-1.67,1,0,2.18-1.63,3.07-3,4.34,3.32,6.21,19.23,2.11,19.23,14.45H22.68c0-12.34,15.58-8.08,19.29-14.53Zm-24.09,1a6.54,6.54,0,0,1-.53-.65c-.39-.54-.76-1.1-1.11-1.66l-1.76-2.79a4.91,4.91,0,0,1-1-2.56,1.85,1.85,0,0,1,1.19-1.83c-.06-1.05-.11-2.12-.11-3.18,0-.62,0-1.26,0-1.88a6.57,6.57,0,0,1,.21-1.16,6.72,6.72,0,0,1,3-3.79A7.81,7.81,0,0,1,19.39,8c1-.38.52-1.94,1.65-2,2.63-.07,7,2.18,8.63,4a6.66,6.66,0,0,1,1.72,4.32l-.1,4.6a1.34,1.34,0,0,1,1,1,3.93,3.93,0,0,1-.5,2.42h0s0,0,0,.08l-2,3.3a24.71,24.71,0,0,1-1.45,2.21c-.62.83-1.14.68-.6,1.48a5.52,5.52,0,0,0,.43.53c-4.68,1.64-8.57,4.46-8.57,11.9H4.74c0-10.49,9.46-7.16,13.29-12.43.44-.65.32-.6-.17-1.12Zm49.72.47a7.79,7.79,0,0,1-.51-.63c-.37-.51-.73-1.05-1.07-1.59l-1.69-2.7a4.76,4.76,0,0,1-1-2.47,1.81,1.81,0,0,1,1.15-1.77c-.06-1-.1-2-.1-3.06,0-.61,0-1.22,0-1.82a6.12,6.12,0,0,1,.2-1.12A6.5,6.5,0,0,1,67.5,9.94a7.47,7.47,0,0,1,1.56-.75c1-.37.51-1.87,1.59-1.89,2.54-.07,6.71,2.1,8.34,3.86a6.51,6.51,0,0,1,1.66,4.17l-.11,4.44a1.25,1.25,0,0,1,.92.92A3.77,3.77,0,0,1,81,23h0s0,0,0,.06L79,26.28a25.21,25.21,0,0,1-1.4,2.13c-.61.81-1.1.66-.59,1.44,3.7,5.08,12.77,1.87,12.77,12H75C75,35,71.63,32,67.39,30.29a4.94,4.94,0,0,0,.36-.44c.43-.63.31-.58-.17-1.09ZM45.08,70.39,35.13,60.5a3.44,3.44,0,0,1,4.3-5.36l4.4,5.41V46.73h6.86V60.56l4.41-5.41a3.44,3.44,0,1,1,4.3,5.36l-9.95,9.88,0,0a3.38,3.38,0,0,1-4.28,0l-.05,0ZM55.36,75a1.9,1.9,0,0,1,3.72,0v7a1.9,1.9,0,0,1-3.72,0V75Zm-7.4.92v6.13a1.9,1.9,0,0,1-3.72,0V75.39a8.63,8.63,0,0,0,3,.56c.24,0,.47,0,.7,0ZM33.13,75a1.89,1.89,0,0,1,3.71,0v7a1.89,1.89,0,0,1-3.71,0V75Zm29.13,34.77a6.56,6.56,0,1,1-6.56,6.55,6.56,6.56,0,0,1,6.56-6.55Zm-28.74,0A6.56,6.56,0,1,1,27,116.32a6.56,6.56,0,0,1,6.55-6.55Z"/></svg>