<svg xmlns="http://www.w3.org/2000/svg" shape-rendering="geometricPrecision" text-rendering="geometricPrecision" image-rendering="optimizeQuality" fill-rule="evenodd" clip-rule="evenodd" viewBox="0 0 512 446.04"><path d="M252.63 71.41C285.88 36.72 309.17 6.75 360.44.86c96.22-11.07 184.7 87.44 136.11 184.43-.43.85-.88 1.71-1.33 2.58-27.38-23.8-63.15-38.22-102.25-38.22-43.06 0-82.07 17.47-110.29 45.7-28.23 28.23-45.7 67.23-45.7 110.29s17.47 82.06 45.7 110.29l.15.15-30.2 29.96-59.71-57.51C121.09 319.33 3.95 232.26.09 124.36-2.62 48.79 57.02.37 125.62 1.27c61.31.8 87.08 31.31 127.01 70.14zm187.32 214.31c5.88-.05 10.08-.59 9.97 6.7l-.28 23.61c.04 7.62-2.37 9.65-9.51 9.56h-94.32c-7.14.09-9.56-1.94-9.51-9.56l-.29-23.61c-.1-7.29 4.1-6.75 9.97-6.7h93.97zm-46.98-99.11c32.87 0 62.63 13.32 84.17 34.86S512 272.77 512 305.64c0 32.88-13.33 62.64-34.86 84.17-21.54 21.54-51.31 34.86-84.17 34.86-32.88 0-62.64-13.32-84.17-34.86-21.54-21.54-34.87-51.3-34.87-84.17 0-32.88 13.33-62.63 34.86-84.17 21.54-21.54 51.31-34.86 84.18-34.86zm71.79 47.23c-18.37-18.37-43.75-29.74-71.79-29.74-28.04 0-53.43 11.37-71.81 29.74-18.37 18.37-29.73 43.76-29.73 71.8s11.36 53.43 29.74 71.8c18.37 18.37 43.75 29.74 71.8 29.74 28.03 0 53.42-11.37 71.8-29.74 18.37-18.37 29.73-43.76 29.73-71.8s-11.36-53.43-29.74-71.8z"/></svg>