<svg xmlns="http://www.w3.org/2000/svg" shape-rendering="geometricPrecision" text-rendering="geometricPrecision" image-rendering="optimizeQuality" fill-rule="evenodd" clip-rule="evenodd" viewBox="0 0 512 496.52"><path fill-rule="nonzero" d="M477.05 219.2v230.49c0 7.43-3.07 14.22-7.97 19.13-4.91 4.91-11.7 7.97-19.13 7.97H287.5c.64-2.53 1.02-4.96 1.08-7.19v-.54c.01-6.08-1.52-11.74-5.09-16.66h164.46c1.26 0 2.43-.55 3.3-1.41.87-.86 1.41-2.04 1.41-3.31v-227.8c7.41.61 16.97.5 24.39-.68zm-193.21 44a6.385 6.385 0 0 1-4.14 2.52c-1.6.24-3.29-.12-4.7-1.16l-.05-.03a6.315 6.315 0 0 1-2.47-4.11l-.01-.09c-.22-1.57.15-3.22 1.16-4.6l21.97-30.01a6.27 6.27 0 0 1 4.14-2.51c1.6-.25 3.29.12 4.69 1.15a6.359 6.359 0 0 1 2.52 4.15l.01.08c.21 1.57-.15 3.23-1.16 4.61l-21.96 30zm66.91 104.2a6.274 6.274 0 0 1-7.77-4.24l-.03-.08c-.48-1.67-.25-3.37.51-4.77a6.268 6.268 0 0 1 3.72-3.02c10.61-3.27 21.59-6.48 32.29-9.48 1.63-.44 3.31-.2 4.7.56 1.42.77 2.55 2.09 3.04 3.74l.03.11c.45 1.64.21 3.31-.53 4.7a6.357 6.357 0 0 1-3.75 3.05l-32.21 9.43zm-8.77-31.33c-1.61.63-3.32.55-4.79-.07a6.315 6.315 0 0 1-3.37-3.44c-.65-1.63-.58-3.36.06-4.84.63-1.48 1.83-2.74 3.44-3.37 9.61-3.85 19.38-7.98 29.06-11.62 1.6-.6 3.3-.52 4.74.09 1.48.63 2.73 1.84 3.37 3.43l.04.11c.6 1.59.53 3.29-.09 4.75a6.298 6.298 0 0 1-3.44 3.36c-9.5 3.51-19.65 7.7-29.02 11.6zm-13.31-27.5a6.302 6.302 0 0 1-4.76.91 6.325 6.325 0 0 1-4.92-7.47l.02-.08c.34-1.56 1.27-3 2.7-3.94 9.48-5.68 18.74-12.97 28.22-18.56a6.234 6.234 0 0 1 4.56-.81l.06.02c1.54.33 2.97 1.25 3.92 2.66l.1.15a6.333 6.333 0 0 1-1.87 8.67l-28.03 18.45zm-21.33-24.38a6.327 6.327 0 0 1-4.5 1.77 6.327 6.327 0 0 1-4.43-1.93 6.285 6.285 0 0 1-1.77-4.5c.03-1.61.68-3.22 1.93-4.43l24.97-24.16a6.267 6.267 0 0 1 4.42-1.69c1.61.02 3.21.67 4.41 1.9l.09.1a6.338 6.338 0 0 1 1.7 4.42 6.333 6.333 0 0 1-1.93 4.43l-24.89 24.09zM147.93 407.67c-.86 3.67-.63 7.69.36 11.71 3.1 12.56 15.45 29.57 29.97 30.85 8.44.73 20.63-8.02 28.52-13.02 1-.61 2.16-.83 3.25-.73 3.39.31 4.34 3.17 5.74 5.69 2.91 5.23 5.8 10.49 8.86 15.65 2.71 4.56 5.43 8.81 8.21 12.5l.07.1.32.45c.29.42.74 1.03 1.21 1.64l.08.12c1.68 2.31 3.43 4.71 5.23 6.85 1.74 2.08 3.47 3.88 5.13 5.05 1.16.81 2.34 1.22 3.49.94 3.24-.75 8.05-9.02 9.46-12.09.57-1.25.99-2.54 1.15-3.87-.61-.17-1.41-.27-2.19-.36l-.06-.01c-13.04-1.55-12.1-8.05-13.83-16.96-.29-1.29-.6-.99-2.09-1.7-2.22-1.02-3.77-2.2-5.23-4.16-2.6-3.51-3.54-8.28-3.77-12.54-.66-11.82 2.11-11.38 11.18-15 12.62-5.04 23.62-7.84 33.36-9.39 9.75-1.55 18.23-1.85 25.85-1.94-15.76-10.43-31.96-27.14-45.58-45.75-13.98-19.08-25.3-40.23-30.78-58.76-3.66 10.69-8.89 23.65-17.74 37.78-10.07 16.07-57.48 55.38-60.17 66.93v.02zm104.19-71.24c5.33-2.11 10.58-3.06 15.75-2.48 15 1.87 25.66 13.37 23.8 27.9-.48 5.61-2.46 11.79-6.01 18.55 2.96 2.85 6.1 5.7 9.47 8.62 4.83 4.18 9.73 7.9 14.63 10.95 4.44 2.78 8.91 5.05 13.32 6.67 5.81-1.16 5.15-9.07 4.6-13.75-.98-7.8-4.34-17.19-9.29-27.21-5.44-11-12.77-22.7-20.98-33.85-8.05-10.96-16.94-21.36-25.69-30.05-5.71-5.66-11.36-10.6-16.64-14.46-4.53-3.29-12.62-8.57-18.39-8.75-2.86-.11-3.34 1.08-3.54 3.84-.35 4.11.33 9.31 1.91 15.22 1.89 7.08 5.06 15.18 9.24 23.69 1.65 3.39 7.82 15.43 7.82 15.11zm44.61 81.68c-14.27.48-31.72 2.5-54.6 12.36-.03 1.09 0 2.23.08 3.36.13 1.71.69 6.04 2.46 6.94.93.44 1.9.89 2.82 1.39 1.86.98 3.04 1.86 4.14 3.66l.02.04c2.48 4.01.84 12.22 6.33 12.92h.01c8.58.98 11.62 5.03 11.6 10.28-.01 6.51-7.96 20.63-14.28 25.02-1.74 1.2-3.5 1.93-5.24 2.25-3.91.71-7.66-.6-11.26-3.1-2.92-2.04-5.6-4.92-8.11-8.04-5.43-6.71-10.72-14.35-15.05-21.67-2.62-4.4-5.35-9.3-8.11-14.29l-.07.04c-2.06 1.29-4.04 2.66-6.08 3.96-7.34 4.75-14.27 8.67-24.34 7.65-19.37-1.96-35.73-22.83-39.35-40.79-1.03-5.05-1.13-10.15.01-14.96 5.95-25.19 61.54-52.1 81.43-115.47l.04-.1c2.5-8.01 4.8-19.96 14.63-21.21 6.6-.87 13.65 2.12 19.27 5.33l.1.05c7.89 4.52 16.73 11.7 25.62 20.49 9.23 9.14 18.56 20.04 26.99 31.52 8.67 11.78 16.43 24.19 22.18 35.93 5.32 10.85 8.95 21.19 10.06 30.01.46 3.74.5 7.25.04 10.46-1.44 10.22-6.23 14.19-16.98 15.43-6.98.79-16.97.3-24.36.54zm-134.31 58.68H61.74c-14.88 0-27.1-12.23-27.1-27.1V219.43c7.51 1.4 17.11 1.81 24.39 1.49v226.76c0 2.58 2.13 4.72 4.71 4.72h68.13c2.18 3.06 4.58 5.96 7.16 8.63 6.62 6.85 14.55 12.45 23.39 15.76zM.72 126.58 35.34 15.67c2.85-9.14 9.8-15 23.25-15.66L450.39 0c12.08 1.31 19.95 6.38 23.2 15.57l37.26 110.86c1.94 3.19.84 18.89.84 22.28 0 13.51-5.53 25.8-14.43 34.7-14.51 14.52-36.57 14.15-55.47 9.82-5.21-2.45-18.07-5.79-22.09-9.82-3.51-3.51-6.5-7.55-8.83-11.98a49.641 49.641 0 0 1-8.83 11.98c-8.9 8.91-29.33 14.44-42.84 14.44-13.52 0-33.95-5.53-42.85-14.44-3.52-3.51-6.5-7.55-8.83-11.98a49.641 49.641 0 0 1-8.83 11.98c-8.9 8.91-29.33 14.44-42.85 14.44-13.52 0-33.94-5.53-42.84-14.44-3.51-3.51-6.5-7.55-8.83-11.98a49.641 49.641 0 0 1-8.83 11.98c-8.9 8.91-29.33 14.44-42.85 14.44-13.52 0-33.94-5.53-42.84-14.44-3.51-3.51-6.5-7.55-8.83-11.98a49.641 49.641 0 0 1-8.83 11.98c-5.86 5.87-21.33 10.26-29.5 12.59-16.44 2.01-35.83-.36-48.06-12.59C5.53 174.51 0 162.22 0 148.71l.72-22.13z"/></svg>