<svg id="Layer_1" data-name="Layer 1" xmlns="http://www.w3.org/2000/svg" viewBox="0 0 110.32 122.88"><defs><style>.cls-1{fill-rule:evenodd;}</style></defs><title>mobile-phone-bill</title><path class="cls-1" d="M46.79,8ZM21.64,13H33.19a3.28,3.28,0,0,1,3.28,3.28V38.56a3.26,3.26,0,0,1-3.28,3.27H21.64a3.24,3.24,0,0,1-2.31-.95,3.27,3.27,0,0,1-1-2.32V16.27A3.29,3.29,0,0,1,21.64,13Zm-1,23.87H34.15V17H20.68V36.87Zm6.73,1.44a1.35,1.35,0,1,1-1.35,1.35,1.35,1.35,0,0,1,1.35-1.35ZM88.23,85.49H29.7V80.06H88.23v5.43Zm0-18H29.7v-5c1.17-.08,2.31-.21,3.44-.39H88.23v5.43Zm2.21-18H62.31V44H90.44v5.44ZM103,107.93l1.88,1.1V22.19H62.1a33.76,33.76,0,0,0-1.26-5.43h46.77a2.72,2.72,0,0,1,2.71,2.72v94.26a2.65,2.65,0,0,1-.37,1.36,2.7,2.7,0,0,1-3.7,1L102,113.64,93.11,122a2.7,2.7,0,0,1-3.68,0l-8.58-7.84-8.47,7.64a2.72,2.72,0,0,1-3.59,0l-8.92-7.74-8.21,8a2.71,2.71,0,0,1-3.75,0l-8.49-8-8.65,7.75a2.71,2.71,0,0,1-3.77,0l-8.81-8.38L14.06,116a2.68,2.68,0,0,1-1.52.47,2.72,2.72,0,0,1-2.72-2.72v-56a35.44,35.44,0,0,0,5.43,2.56V109l1.95-1.15a2.72,2.72,0,0,1,3.33.45l8.4,8,8.74-7.82a2.7,2.7,0,0,1,3.65.05l8.42,7.92,8.14-7.89a2.71,2.71,0,0,1,3.71-.07l8.94,7.76L79,108.55a2.72,2.72,0,0,1,3.8.16l8.38,7.67,8.58-8.08a2.71,2.71,0,0,1,3.21-.37ZM27.42,4.06A23.36,23.36,0,1,1,4.06,27.42,23.36,23.36,0,0,1,27.42,4.06ZM46.8,46.79Zm-38.75,0ZM8.05,8A27.38,27.38,0,1,1,0,27.42,27.31,27.31,0,0,1,8.05,8Z"/></svg>