<svg xmlns="http://www.w3.org/2000/svg" shape-rendering="geometricPrecision" text-rendering="geometricPrecision" image-rendering="optimizeQuality" fill-rule="evenodd" clip-rule="evenodd" viewBox="0 0 512 423.87"><path d="M40.8 162.87h42.27l119.64-92.92a55.455 55.455 0 0 1-1.98-14.68c0-15.26 6.19-29.09 16.2-39.09C226.92 6.18 240.74 0 256 0c15.26 0 29.08 6.19 39.07 16.18 10.01 10 16.2 23.83 16.2 39.09 0 5.09-.7 10-1.99 14.68l119.65 92.92h42.27c22.39 0 40.8 18.4 40.8 40.8v179.4c0 22.39-18.41 40.8-40.8 40.8H40.73c-11.17 0-21.33-4.57-28.7-11.94C4.66 404.57.08 394.38.06 383.16L0 203.67c0-22.48 18.32-40.8 40.8-40.8zm61.46 131.02c0-20.2 3.79-34.94 11.35-44.22 7.56-9.27 21.2-13.9 40.93-13.9s33.37 4.63 40.93 13.9c7.56 9.28 11.35 24.02 11.35 44.22 0 10.04-.82 18.51-2.4 25.34-1.57 6.84-4.34 12.82-8.24 17.9-3.89 5.08-9.27 8.8-16.12 11.16-6.85 2.37-15.36 3.55-25.52 3.55s-18.67-1.18-25.52-3.55c-6.85-2.36-12.22-6.08-16.12-11.16-3.9-5.08-6.67-11.06-8.25-17.9-1.57-6.83-2.39-15.3-2.39-25.34zm38.1-18.43v46.07h14.71c4.85 0 8.38-.58 10.55-1.68 2.16-1.1 3.28-3.69 3.28-7.71v-46.07h-14.89c-4.69 0-8.18.56-10.37 1.68-2.18 1.13-3.28 3.73-3.28 7.71zm153.74 73.72h-70.88V238.42h35.44v82.4h35.44v28.36zm13.74 0V238.42h49.62c19.97 0 33.67 4.26 41.12 12.76 7.44 8.5 11.16 22.71 11.16 42.62 0 19.91-3.74 34.12-11.16 42.62-7.44 8.5-21.18 12.76-41.12 12.76h-49.62zm50.15-82.4h-14.7v54.04h14.7c4.84 0 8.37-.57 10.55-1.68 2.17-1.11 3.27-3.69 3.27-7.7v-35.27c0-4.02-1.09-6.58-3.27-7.71-2.19-1.12-5.73-1.68-10.55-1.68zm-232-103.91h260l-89.75-69.72-1.17 1.2c-9.99 9.99-23.81 16.17-39.07 16.17-15.26 0-29.08-6.18-39.07-16.17l-1.17-1.2-89.77 69.72zM256 31.89c6.45 0 12.29 2.61 16.53 6.85a23.332 23.332 0 0 1 6.84 16.53c0 6.45-2.62 12.29-6.84 16.52-4.24 4.24-10.08 6.85-16.53 6.85-6.45 0-12.3-2.61-16.53-6.85-4.22-4.23-6.84-10.07-6.84-16.52 0-6.45 2.62-12.31 6.84-16.53A23.275 23.275 0 0 1 256 31.89zM40.8 177.43h430.4c14.44 0 26.22 11.8 26.22 26.24v179.4c0 14.44-11.78 26.23-26.22 26.23H40.8c-14.44.04-26.23-11.76-26.23-26.2V203.67c0-14.44 11.79-26.24 26.23-26.24z"/></svg>