<svg xmlns="http://www.w3.org/2000/svg" shape-rendering="geometricPrecision" text-rendering="geometricPrecision" image-rendering="optimizeQuality" fill-rule="evenodd" clip-rule="evenodd" viewBox="0 0 512 488.72"><path d="m255.79 30.23 66.3-28.67c8.64-3.72 18.57-.33 23.2 7.59l36.37 61.83 70.47 15.78c9.19 2.02 15.24 10.59 14.37 19.73l-6.92 71.4 47.81 54.26c6.54 7.43 6.04 18.65-1 25.47l-46.66 52.66 6.78 71.95c.9 9.61-5.73 18.2-15.06 19.88l-69.33 15.32-36.82 62.22c-4.95 8.37-15.49 11.41-24.07 7.17l-65.02-28.33-66.3 28.67c-8.64 3.73-18.57.33-23.2-7.59l-36.37-61.83-70.47-15.77c-9.19-2.03-15.24-10.6-14.37-19.74l6.92-71.4-47.81-54.25c-6.55-7.44-6.04-18.66 1-25.48l46.66-52.66-6.78-71.95c-.9-9.61 5.73-18.2 15.05-19.88l69.34-15.31L166.7 9.08C171.65.7 182.19-2.33 190.77 1.9l65.02 28.33zm43.57 196.36h-83.79V197.5h24.62v-54.74l-27.55 2.15v-28.72l37.62-9.34h28.36v90.65h20.74v29.09zm-132 87.54h-23.54v30.13h-24.51v-81.17h53.25l-3.25 19.32h-25.49v12.37h23.54v19.35zm85.72 30.13H224.5l-10.64-24.15h-8.52v24.15H182.3v-81.17h40.91c18.61 0 27.92 9.49 27.92 28.45 0 12.98-4.03 21.56-12.08 25.71l14.03 27.01zm-47.74-61.85v19.17h8.91c3.11 0 5.38-.33 6.81-.98 1.43-.65 2.15-2.14 2.15-4.48v-8.26c0-2.33-.75-3.86-2.15-4.48-1.39-.62-3.75-.97-6.81-.97h-8.91zm110.72 31.21h-27.44v11.33h33.29v19.31h-57.8v-81.17h57.15l-3.25 19.32h-29.39v12.37h27.44v18.84zm70.78 0H359.4v11.33h33.29v19.31h-57.8v-81.17h57.14l-3.24 19.32H359.4v12.37h27.44v18.84z"/></svg>