<svg xmlns="http://www.w3.org/2000/svg" shape-rendering="geometricPrecision" text-rendering="geometricPrecision" image-rendering="optimizeQuality" fill-rule="evenodd" clip-rule="evenodd" viewBox="0 0 512 177.08"><path fill-rule="nonzero" d="M65.59 0h341.37C425 0 441.4 7.38 453.29 19.26c2.45 2.46 4.72 5.11 6.76 7.93a15.66 15.66 0 0 0-5.95-1.17c-2.98 0-5.77.83-8.15 2.29l-.84-.87c-9.79-9.79-23.3-15.87-38.15-15.87H65.59c-14.85 0-28.36 6.08-38.15 15.87s-15.87 23.3-15.87 38.15c0 14.86 6.08 28.36 15.85 38.14l.03.02c9.78 9.78 23.29 15.86 38.14 15.86h341.37c1.3 0 2.6-.05 3.88-.14l.18.43c.22.51.48 1.02.79 1.51l5.63 8.92c-3.42.56-6.92.85-10.48.85H65.59c-18 0-34.4-7.39-46.3-19.28l-.02-.02C7.38 99.98 0 83.59 0 65.59c0-18.04 7.38-34.45 19.26-46.33C31.14 7.38 47.55 0 65.59 0zm363.54 81.36c1.17 0 2.23.48 3.01 1.25.77.77 1.25 1.84 1.25 3.01 0 1.17-.48 2.24-1.25 3.01-.78.77-1.84 1.26-3.01 1.26l-12.57-.02a4.24 4.24 0 0 1-3.01-1.25l-.06-.06c-.74-.77-1.2-1.81-1.2-2.95 0-1.18.49-2.24 1.26-3.01l.05-.05c.77-.74 1.81-1.2 2.96-1.2l12.57.01zm9.71-18.33c.83.84 1.25 1.93 1.24 3.02a4.249 4.249 0 0 1-4.27 4.25c-1.09.01-2.18-.42-3.01-1.25l-8.93-8.96a4.21 4.21 0 0 1-1.19-2.95c0-1.09.43-2.19 1.25-3.01l.06-.06a4.24 4.24 0 0 1 2.96-1.18c1.09 0 2.19.42 3.01 1.25l8.88 8.89zm40.25 26.85c-1.17.01-2.24-.48-3.01-1.24a4.298 4.298 0 0 1-1.25-3.02c0-1.17.48-2.24 1.25-3.01l.06-.06c.77-.73 1.81-1.19 2.95-1.19l12.57-.01c1.17 0 2.23.48 3 1.25.78.77 1.26 1.84 1.26 3.01 0 1.17-.48 2.24-1.25 3.01-.77.77-1.84 1.25-3.01 1.25l-12.57.01zm-3.68-21.52c-.83.84-1.92 1.26-3.01 1.26-1.09 0-2.18-.41-3.02-1.24a4.266 4.266 0 0 1-1.25-3.01c0-1.09.42-2.19 1.24-3.02l8.88-8.89c.83-.83 1.93-1.25 3.02-1.26 1.08 0 2.18.42 3.01 1.25.83.82 1.25 1.92 1.25 3.01 0 1.08-.41 2.18-1.24 3.01l-8.88 8.89zm-16.74-11.63a4.248 4.248 0 0 1-4.25 4.26c-1.17 0-2.24-.48-3.02-1.25a4.257 4.257 0 0 1-1.25-3.01l-.01-12.57c0-1.17.48-2.24 1.25-3.01l.06-.06c.77-.73 1.81-1.19 2.95-1.19 1.17 0 2.24.48 3.01 1.25.78.77 1.25 1.84 1.25 3.01l.01 12.57zm1.8 24.53v40.83h4.11v-17.1c0-8.04 12.69-7.8 12.69.45v17.09l.2-.07h4.44v-13.01c0-8.03 12.69-7.79 12.69.45v11.89l.05.02 4.41-.03v-8.4c0-8.03 12.68-7.79 12.68.45v17.79c0 .22-.01.44-.03.65l.21.18c.4 11.46-.39 27.88-9.82 36.09-9.36 7.59-18.72 9.59-28.42 8.06-13.25-2.09-20.15-9.26-26.42-20.66l-24.84-39.39c-1.3-3.05-1.12-5.12.18-6.43 5.6-3.64 14.72 4.08 24.83 15l.36-.08V80.82c0-8.04 12.68-7.79 12.68.44zm-341.3-3.91h-9.47v11H95.13V42.82h22.95c10.44 0 15.66 5.61 15.66 16.83 0 6.17-1.36 10.73-4.08 13.7-1.02 1.11-2.43 2.06-4.23 2.84-1.79.77-3.88 1.16-6.26 1.16zm-9.47-22.87V65.7h3.35c1.75 0 3.02-.18 3.82-.55.8-.36 1.21-1.2 1.21-2.51v-5.1c0-1.31-.41-2.15-1.21-2.51-.8-.37-2.07-.55-3.82-.55h-3.35zm37.08 33.87h-15.37l11.8-45.53h22.51l11.8 45.53h-15.37l-1.68-7.21h-12.01l-1.68 7.21zm7.28-31.54-2.98 12.75h6.7l-2.91-12.75h-.81zm34.32-13.99 4 16.03h.51l4.08-16.03h16.1l-13.11 33.15v12.38h-14.57V75.97l-13.11-33.15h16.1zm65.99 45.53-12.16-19.67v19.67h-14.57V42.82h13.7l12.16 19.67V42.82h14.57v45.53h-13.7zm18.8-22.73c0-8.3 1.55-14.36 4.66-18.17 3.11-3.81 8.72-5.72 16.83-5.72 8.11 0 13.72 1.91 16.83 5.72 3.11 3.81 4.66 9.87 4.66 18.17 0 4.13-.33 7.61-.98 10.42-.66 2.82-1.79 5.27-3.39 7.36-1.61 2.09-3.81 3.62-6.63 4.59-2.82.97-6.31 1.46-10.49 1.46-4.18 0-7.67-.49-10.49-1.46-2.82-.97-5.03-2.5-6.63-4.59-1.6-2.09-2.73-4.54-3.39-7.36-.65-2.81-.98-6.29-.98-10.42zm15.66-7.57v18.94h6.05c1.99 0 3.44-.23 4.33-.69.9-.47 1.35-1.52 1.35-3.17V54.19h-6.12c-1.94 0-3.36.23-4.26.69-.9.46-1.35 1.52-1.35 3.17zm73.36-15.23h15.23l-7.14 45.53h-19.02l-3.35-16.75h-.87l-3.28 16.75h-19.01l-7.14-45.53h15.22l3.42 25.43h.44l5.25-25.43h11.14l5.18 25.43h.43l3.5-25.43z"/></svg>