<svg xmlns="http://www.w3.org/2000/svg" shape-rendering="geometricPrecision" text-rendering="geometricPrecision" image-rendering="optimizeQuality" fill-rule="evenodd" clip-rule="evenodd" viewBox="0 0 512 140.63"><path fill-rule="nonzero" d="M56.91 0h378.85c15.63 0 29.86 6.4 40.17 16.71l.03.02c1.96 1.97 3.79 4.09 5.46 6.33-2.27.18-4.48.77-6.52 1.73-1.16.54-2.27 1.21-3.31 1.98a47.52 47.52 0 0 0-2.71-2.96l-.02-.02c-8.48-8.48-20.2-13.75-33.1-13.75H56.91c-12.9 0-24.62 5.27-33.1 13.75l-.02.02c-8.48 8.48-13.75 20.2-13.75 33.1 0 12.87 5.28 24.59 13.77 33.08 8.49 8.51 20.21 13.78 33.1 13.78h353.7c-.04 1.84.2 3.72.74 5.57.28 1.15.71 2.29 1.3 3.4.19.37.38.72.59 1.07H56.91c-15.63 0-29.86-6.4-40.18-16.73C6.41 86.78 0 72.56 0 56.91c0-15.63 6.4-29.86 16.71-40.18l.02-.02C27.06 6.4 41.29 0 56.91 0zm59.61 67.02h-8.23v9.12h-11.7V38.39h19.03c8.65 0 12.98 4.65 12.98 13.95 0 5.11-1.13 8.9-3.38 11.36-.85.92-2.02 1.71-3.5 2.35-1.49.64-3.23.97-5.2.97zm-8.23-18.97v9.3h3.16c1.45 0 2.51-.15 3.17-.45.66-.3 1-.99 1-2.08v-4.23c0-1.09-.34-1.78-1-2.08-.66-.3-1.73-.46-3.17-.46h-3.16zm31.12 28.09h-12.74l9.78-37.75h18.66l9.79 37.75h-12.75l-1.38-5.98h-9.97l-1.39 5.98zm5.47-26.15-1.91 10.57h5.56l-1.84-10.57h-1.81zm29.02-11.6 3.32 13.29h.42l3.38-13.29h13.35L183.5 65.87v10.27h-12.08V65.87l-10.87-27.48h13.35zm30.74 18.9c0-6.88 1.28-11.9 3.86-15.06s7.23-4.74 13.95-4.74c6.72 0 11.38 1.58 13.95 4.74 2.58 3.16 3.87 8.18 3.87 15.06 0 3.43-.27 6.31-.82 8.64-.54 2.34-1.48 4.37-2.81 6.1-1.33 1.73-3.16 3-5.49 3.81-2.34.8-5.24 1.2-8.7 1.2-3.46 0-6.36-.4-8.7-1.2-2.33-.81-4.16-2.08-5.49-3.81s-2.26-3.76-2.81-6.1c-.54-2.33-.81-5.21-.81-8.64zm12.98-6.27v15.7h5.01c1.65 0 2.85-.19 3.6-.58.74-.38 1.11-1.26 1.11-2.62V47.81h-5.07c-1.61 0-2.79.19-3.53.58-.75.38-1.12 1.26-1.12 2.63zm49.04 25.12-10.09-16.31v16.31h-12.08V38.39h11.36l10.08 16.31V38.39h12.08v37.75h-11.35zm41.55 0h-24.16V38.39h12.08v28.09h12.08v9.66zm3.32 0V38.39h12.08v37.75h-12.08zm40.28 0-10.09-16.31v16.31h-12.07V38.39H341l10.08 16.31V38.39h12.08v37.75h-11.35zm41.55-14.26h-12.08v4.6h14.79v9.66H369.2V38.39h26.57l-1.51 9.66h-12.98v5.08h12.08v8.75zm95.3 78.51c-2.05.68-4.33-.16-5.29-2.15l-6.81-14.46-8.08 7.64c-.67.63-1.38 1.17-2.07 1.61-4.49 2.77-9.05.99-8.97-4.85l1.64-57.13c-.05-2.58 2.83-4.07 4.94-2.61 12.67 8.07 32.54 25.12 45.22 35.51 6.09 5.01.99 9.87-4.56 10.53-3.41.61-7.56.9-11.08 1.31l6.76 14.54c.93 2.07.01 4.47-1.96 5.53-2.81 1.28-7.01 3.66-9.74 4.53zm11.8-65.21c-1.16.53-2.41.54-3.52.14a4.665 4.665 0 0 1-2.63-2.41 4.63 4.63 0 0 1 2.22-6.17l6.36-3.16c1.17-.55 2.45-.56 3.56-.15 1.11.41 2.07 1.24 2.61 2.39l.03.08c.52 1.14.53 2.39.13 3.48a4.629 4.629 0 0 1-2.38 2.62l-6.38 3.18zm-17.28-20.9a4.652 4.652 0 0 1-2.39 2.59c-1.06.49-2.3.59-3.49.19l-.14-.05a4.729 4.729 0 0 1-2.56-2.39c-.49-1.06-.6-2.31-.19-3.49.97-2.91 1.98-5.94 3.04-8.82a4.633 4.633 0 0 1 2.39-2.58c1.08-.51 2.36-.6 3.56-.17l.05.02c1.18.45 2.08 1.33 2.58 2.39.5 1.08.6 2.34.16 3.55l-3.01 8.76zm-24.65-3.67c.53 1.16.54 2.42.14 3.52a4.697 4.697 0 0 1-2.4 2.64l-.07.02c-1.15.52-2.4.53-3.49.14a4.713 4.713 0 0 1-2.63-2.4l-4.15-8.61a4.662 4.662 0 0 1-.14-3.53 4.651 4.651 0 0 1 5.98-2.77c1.11.41 2.07 1.25 2.61 2.4l4.15 8.59zM440.19 68.2c1.21.43 2.13 1.33 2.64 2.41.5 1.08.6 2.35.16 3.56l-.01.03a4.656 4.656 0 0 1-2.4 2.6c-1.07.5-2.35.6-3.55.16l-9.27-3.28a4.637 4.637 0 0 1-2.64-2.42c-.5-1.07-.6-2.35-.17-3.55a4.635 4.635 0 0 1 2.41-2.63c1.08-.51 2.35-.61 3.55-.17l9.28 3.29zm-1.03 25.27c1.17-.55 2.45-.57 3.56-.17a4.665 4.665 0 0 1 2.79 5.97 4.648 4.648 0 0 1-2.4 2.63l-9.13 4.38a4.65 4.65 0 0 1-3.56.16 4.714 4.714 0 0 1-2.64-2.41 4.628 4.628 0 0 1-.15-3.57 4.694 4.694 0 0 1 2.39-2.61l9.14-4.38z"/></svg>