<svg xmlns="http://www.w3.org/2000/svg" shape-rendering="geometricPrecision" text-rendering="geometricPrecision" image-rendering="optimizeQuality" fill-rule="evenodd" clip-rule="evenodd" viewBox="0 0 512 436.67"><path fill-rule="nonzero" d="M266.31 23.27c-41.68 5.7-81.55 25.65-111.24 55.45l-.04.04a189.035 189.035 0 0 0-17.41 19.94h60.22c17.43-25.02 40.23-50.15 68.47-75.43zM20.91 207.34h284.32c11.49 0 20.91 9.42 20.91 20.91v187.51c0 11.45-9.45 20.91-20.91 20.91H20.91C9.44 436.67 0 427.23 0 415.76V228.25c0-11.48 9.43-20.91 20.91-20.91zM69 387.58c-3.62 0-6.55-2.94-6.55-6.55s2.93-6.55 6.55-6.55h67.25a6.56 6.56 0 0 1 6.55 6.55 6.56 6.56 0 0 1-6.55 6.55H69zm0-31.1c-3.62 0-6.55-2.93-6.55-6.54s2.93-6.55 6.55-6.55h99.68a6.56 6.56 0 0 1 6.55 6.55c0 3.61-2.94 6.54-6.55 6.54H69zm147-20.74c9.77 0 18.44 4.71 23.86 11.99 5.43-7.28 14.1-11.99 23.87-11.99 16.43 0 29.74 13.32 29.74 29.74 0 16.43-13.31 29.75-29.74 29.75-9.77 0-18.44-4.72-23.87-11.99-5.42 7.27-14.09 11.99-23.86 11.99-16.43 0-29.74-13.32-29.74-29.75 0-16.42 13.31-29.74 29.74-29.74zM12.77 251.85h300.6v-23.6c0-4.45-3.69-8.14-8.14-8.14H20.91c-4.5 0-8.14 3.64-8.14 8.14v23.6zm300.6 58.79H12.77v105.12c0 4.46 3.68 8.14 8.14 8.14h284.32c4.45 0 8.14-3.69 8.14-8.14V310.64zm150.12 4.94c.42 0 .84.03 1.25.07 15.4-27.06 24-55.77 25.58-87.1h-57.13c-1.25 29.41-9.96 58.42-26.02 87.03h56.32zm-12.8 21.41h-56.95c-6.8 9.81-14.46 19.56-23 29.28v-50.69h11.62c18.18-28.82 28.08-57.83 29.49-87.03h-41.11v-21.41h40.63c-2.64-28.58-13.33-57.58-32.2-87.03h-74.31v46.43h-21.41v-46.43h-74.31c-10 15.6-17.69 31.07-23.12 46.43h-22.47c4.83-15.43 11.71-30.91 20.66-46.43h-60.67c-8.33 14.65-14.89 30.14-19.24 46.43H82.23c6.01-25.15 16.88-49.31 31.27-70.75a212.49 212.49 0 0 1 26.45-32.14C180.73 22.71 236.32 0 294.16 0c14.99 0 29.57 1.42 43.72 4.25 55.42 11.08 105.48 44.67 136.94 91.54 24.57 36.6 37.18 77.82 37.18 122.05 0 44.3-12.63 85.47-37.18 122.06-23.76 35.38-56.64 61.94-95.72 78.75-2.77 1.18-5.55 2.3-8.36 3.36v-23.04c31.84-13.75 59.03-34.36 79.95-61.98zm-17.91-129.85h57.54c-1.58-31.3-10.13-59.91-25.54-87.03H404.1c16.83 29.18 26.35 58.19 28.68 87.03zM224.25 98.7h59.2V36.55c-23.7 20.93-43.42 41.64-59.2 62.15zm80.61 0h59.21c-15.79-20.51-35.5-41.22-59.21-62.15V98.7zm85.62 0h60.22c-28.43-37.52-70.82-64.22-117-73.46-3.86-.77-7.75-1.42-11.69-1.96 28.24 25.27 51.03 50.41 68.47 75.42z"/></svg>