<svg xmlns="http://www.w3.org/2000/svg" shape-rendering="geometricPrecision" text-rendering="geometricPrecision" image-rendering="optimizeQuality" fill-rule="evenodd" clip-rule="evenodd" viewBox="0 0 269 511.62"><path fill-rule="nonzero" d="M153.01 172.78c5.27 5.09 7.98 11.3 8.16 18.59.21 7.34-2.22 13.78-7.31 19.32-5.05 5.22-11.29 7.9-18.69 8.05-7.41.07-13.74-2.4-18.97-7.46-5.36-4.9-8.14-11.12-8.37-18.59-.03-1.32.02-2.6.15-3.86-13.44-4.99-25.31-10.64-35.75-16.76l-46.71 43.3-2.46 258.62c-.02 1.73.3 3.44.89 4.99.64 1.54 1.57 2.97 2.66 4.11 1.05 1.08 2.32 1.99 3.72 2.57 1.4.57 2.98.91 4.59.91l198.45 1.99c1.88.03 3.65-.31 5.18-.93 1.49-.59 2.86-1.53 3.96-2.67 1.05-1.06 1.9-2.37 2.46-3.77l.25-.56c.45-1.26.71-2.67.73-4.1l-.32-260.88-116.28-96.54-39.33 36.46c9.09 4.86 19.41 9.34 31.01 13.38 3.87-2.3 8.22-3.52 13.05-3.6 7.38-.1 13.71 2.37 18.93 7.43zM78.06 291.73h37.62l18.97 40.93 18.53-40.93h37.71l-28.75 52.12-10.2 18.21v9.95h34.75v18.39h-34.75v27.57H117.7V390.4H82.45v-18.39h35.25v-9.95l-10.04-18.21-29.6-52.12zM52.63 158.72c-25.12-19.9-38.19-43.04-42.16-65.28-5.11-28.81 4.92-56.12 23.9-73.64C53.51 2.14 81.59-5.69 112.3 4.58c42.25 14.12 89.89 63.82 123.53 172.89l-.07.03 28.43 23.61c2.73 2.11 4.49 5.42 4.49 9.14l.32 266.4c-.06 4.45-.87 8.6-2.31 12.41l-.3.82c-1.67 4.15-4.18 7.94-7.28 11.13a35.037 35.037 0 0 1-11.96 8.04c-4.29 1.73-9.07 2.64-14.05 2.56l-198.23-1.99c-4.81 0-9.35-.95-13.41-2.64-4.37-1.82-8.29-4.56-11.5-7.88-3.2-3.34-5.78-7.31-7.48-11.64A37.524 37.524 0 0 1 0 473.81l2.51-262.98c-.17-3.28 1.06-6.63 3.66-9.04l46.46-43.07zm149.12-9.45c-29.27-76.35-65.08-112.23-96.77-122.82-21.86-7.31-41.65-1.93-54.97 10.36C36.57 49.22 29.51 68.7 33.2 89.37c3.25 17.97 14.54 36.91 36.6 53.43l51.25-47.49c4.19-3.86 10.73-4.13 15.23-.39l65.47 54.35z"/></svg>