<svg xmlns="http://www.w3.org/2000/svg" shape-rendering="geometricPrecision" text-rendering="geometricPrecision" image-rendering="optimizeQuality" fill-rule="evenodd" clip-rule="evenodd" viewBox="0 0 269 511.61"><path fill-rule="nonzero" d="M153.01 172.78c5.27 5.09 7.98 11.3 8.16 18.59.21 7.33-2.22 13.77-7.31 19.32-5.05 5.22-11.3 7.89-18.69 8.05-7.41.07-13.75-2.4-18.97-7.46-5.36-4.91-8.14-11.12-8.37-18.59-.03-1.32.02-2.6.15-3.86-13.44-4.99-25.31-10.64-35.75-16.76l-46.71 43.29-2.47 258.63c-.01 1.78.32 3.52.93 5.06.66 1.56 1.58 2.97 2.67 4.08 1.08 1.1 2.37 1.99 3.73 2.55 1.41.56 2.96.88 4.54.88l198.45 1.99c1.75.03 3.37-.26 4.8-.79 1.47-.56 2.81-1.39 3.9-2.4 1.19-1.09 2.16-2.44 2.81-3.87.65-1.53 1.05-3.23 1.07-4.96l-.32-260.88-116.28-96.54-39.33 36.46c9.09 4.86 19.41 9.34 31.01 13.38 3.87-2.31 8.22-3.52 13.05-3.6 7.38-.1 13.71 2.37 18.93 7.43zM76.35 339.51l9.57-21.57h36.13c-.46-1.55-1.25-3.05-2.39-4.51a17.077 17.077 0 0 0-4.22-3.83 23.145 23.145 0 0 0-5.59-2.61c-2.06-.7-4.25-1.02-6.55-1.02H76.35l9.57-21.58h103.39l-9.57 21.58h-24.98c.99.75 1.9 1.63 2.75 2.65.85.98 1.61 1.98 2.26 3.11.62 1.08 1.17 2.15 1.63 3.23.42 1.08.73 2.08.85 2.98h27.06l-9.57 21.57h-19.59c-1.43 3.66-3.55 7.12-6.39 10.4-2.86 3.29-6.15 6.21-9.92 8.82-3.78 2.62-7.87 4.77-12.29 6.56a57.17 57.17 0 0 1-13.44 3.6l54.34 55.94h-42.96l-48.43-53.16v-19.8h21.44c2.05 0 4.09-.34 6.08-1.02 2.02-.68 3.88-1.59 5.55-2.75 1.7-1.11 3.18-2.44 4.41-3.92 1.24-1.5 2.12-3.03 2.66-4.67H76.35zM52.62 158.72c-25.11-19.9-38.18-43.04-42.15-65.28-5.11-28.81 4.92-56.12 23.9-73.64C53.51 2.14 81.59-5.69 112.3 4.58c42.25 14.12 89.89 63.82 123.53 172.89l-.08.03 28.43 23.6c2.74 2.12 4.5 5.43 4.5 9.15l.32 266.4c-.06 5.13-1.12 9.87-2.96 14.06-2.02 4.51-4.88 8.48-8.33 11.66a34.692 34.692 0 0 1-11.49 7.04c-4.07 1.52-8.51 2.27-13.12 2.2l-198.23-1.99c-4.74 0-9.29-.94-13.32-2.61-4.34-1.81-8.2-4.48-11.36-7.69-3.28-3.35-5.94-7.36-7.67-11.77A37.742 37.742 0 0 1 0 473.81l2.51-262.99c-.17-3.28 1.06-6.62 3.66-9.03l46.45-43.07zm149.13-9.45c-29.27-76.35-65.08-112.23-96.77-122.82-21.86-7.31-41.65-1.93-54.97 10.36C36.59 49.2 29.51 68.7 33.2 89.37c3.25 17.97 14.54 36.91 36.6 53.43l51.24-47.49c4.2-3.86 10.74-4.13 15.24-.4l65.47 54.36z"/></svg>