<svg xmlns="http://www.w3.org/2000/svg" shape-rendering="geometricPrecision" text-rendering="geometricPrecision" image-rendering="optimizeQuality" fill-rule="evenodd" clip-rule="evenodd" viewBox="0 0 269 511.62"><path fill-rule="nonzero" d="M153.01 172.78c5.27 5.09 7.98 11.3 8.16 18.59.21 7.34-2.22 13.78-7.31 19.32-5.05 5.22-11.29 7.9-18.69 8.05-7.41.07-13.74-2.4-18.97-7.46-5.36-4.9-8.14-11.12-8.37-18.59-.03-1.32.02-2.6.15-3.86-13.44-4.99-25.31-10.64-35.75-16.76l-46.71 43.3-2.46 258.62c-.02 1.89.36 3.72 1.03 5.32.71 1.62 1.73 3.1 2.96 4.24 1.08.95 2.31 1.74 3.65 2.26l.34.14c1.17.39 2.51.62 3.88.62l198.45 1.99c1.82.03 3.51-.27 4.98-.84 1.52-.64 2.9-1.53 3.98-2.58 1.11-1.08 2.02-2.4 2.61-3.78.61-1.5.99-3.16 1.01-4.83l-.32-260.88-116.28-96.54-39.33 36.46c9.09 4.86 19.41 9.34 31.01 13.38 3.87-2.3 8.22-3.52 13.05-3.6 7.38-.1 13.71 2.37 18.93 7.43zm57.61 186.78h-20.97l-11.04 53.23h-28.5l-12.31-53.23h-5.93l-11.98 53.23H91.4l-11.06-53.23H58.35v-16.24h18.47l-1.91-9.25H58.35v-16.22h13.2l-4.31-20.94h27.2l3.84 20.94h20.49l4.48-20.94h23.19l4.63 20.94h20.66l3.69-20.94h27.36l-4.34 20.94h12.18v16.22h-15.69l-1.93 9.25h17.62v16.24zm-46.41 0h-4.01l2.25 10.05 1.76-10.05zm-54.57 0h-3.84l1.74 10.05 2.1-10.05zm-6.88-16.24h10.39l2.09-9.25h-14.09l1.61 9.25zm53.91 0h10.41l1.77-9.25h-14.26l2.08 9.25zM52.63 158.72c-25.12-19.9-38.19-43.04-42.16-65.28-5.11-28.81 4.92-56.12 23.9-73.64C53.51 2.14 81.59-5.69 112.3 4.58c42.25 14.12 89.89 63.82 123.53 172.89l-.07.03 28.43 23.61c2.73 2.11 4.49 5.42 4.49 9.14l.32 266.4c-.06 4.95-1.06 9.51-2.75 13.56-1.87 4.38-4.51 8.23-7.73 11.39-3.32 3.25-7.32 5.88-11.68 7.6a36.912 36.912 0 0 1-13.74 2.41l-198.23-1.99c-4.16 0-8.17-.73-11.84-2.05l-.75-.26a34.627 34.627 0 0 1-10.92-6.84 36.426 36.426 0 0 1-8.49-12.11A37.21 37.21 0 0 1 0 473.81l2.51-262.98c-.17-3.28 1.06-6.63 3.66-9.04l46.46-43.07zm149.12-9.45c-29.27-76.35-65.08-112.23-96.77-122.82-21.86-7.31-41.65-1.93-54.97 10.36C36.57 49.22 29.51 68.7 33.2 89.37c3.25 17.97 14.54 36.91 36.6 53.43l51.25-47.49c4.19-3.86 10.73-4.13 15.23-.39l65.47 54.35z"/></svg>