<svg xmlns="http://www.w3.org/2000/svg" shape-rendering="geometricPrecision" text-rendering="geometricPrecision" image-rendering="optimizeQuality" fill-rule="evenodd" clip-rule="evenodd" viewBox="0 0 269 511.62"><path fill-rule="nonzero" d="m245.63 215.65-116.28-96.54-39.32 36.45c9.1 4.86 19.4 9.35 31 13.39 3.87-2.3 8.22-3.52 13.05-3.6 7.38-.1 13.71 2.37 18.93 7.43 5.27 5.09 7.98 11.3 8.16 18.59.21 7.34-2.22 13.78-7.31 19.32-5.05 5.22-11.29 7.9-18.69 8.05-7.41.07-13.74-2.4-18.97-7.46-5.36-4.9-8.14-11.12-8.37-18.59-.03-1.32.02-2.6.15-3.86-13.44-4.99-25.31-10.64-35.75-16.76l-46.71 43.3-2.46 258.62c-.02 1.77.33 3.54.95 5.11.64 1.51 1.6 2.96 2.8 4.16l.41.44c.97.86 2.06 1.56 3.17 2.03 1.38.52 2.95.84 4.53.84l198.45 1.99c1.76.03 3.4-.27 4.89-.84l.43-.15c1.27-.53 2.47-1.32 3.49-2.29 1.18-1.11 2.13-2.43 2.73-3.86.64-1.47 1.02-3.16 1.04-4.89l-.32-260.88zM78 291.7h37.65l19 40.97 18.56-40.97h37.77l-28.79 52.18h24.57v18.24h-34.79v9.97h34.79v18.4h-34.79V418h-34.28v-27.51h-35.3v-18.4h35.3v-9.97h-35.3v-18.24h25.24L78 291.7zm123.75-142.43c-29.27-76.35-65.08-112.23-96.77-122.82-21.86-7.31-41.65-1.93-54.97 10.36C36.57 49.22 29.51 68.7 33.2 89.37c3.25 17.98 14.54 36.92 36.6 53.45l51.25-47.51c4.19-3.86 10.73-4.13 15.23-.39l65.47 54.35zm-149.12 9.45c-25.12-19.9-38.2-43.04-42.16-65.28-5.11-28.81 4.92-56.12 23.9-73.64C53.51 2.14 81.59-5.69 112.3 4.58c42.25 14.12 89.89 63.82 123.53 172.89l-.07.03 28.43 23.61c2.73 2.11 4.49 5.42 4.49 9.14l.32 266.4c-.06 5.03-1.11 9.72-2.92 13.91-1.91 4.44-4.7 8.4-8.12 11.59-3.08 2.9-6.76 5.27-10.81 6.9l-.66.27c-4.08 1.55-8.62 2.37-13.39 2.29l-198.23-1.99c-4.65 0-9.1-.91-13.06-2.5-3.99-1.66-7.56-3.95-10.57-6.76l-.81-.73c-3.32-3.33-5.99-7.37-7.82-11.85A37.35 37.35 0 0 1 0 473.81l2.51-262.98c-.17-3.28 1.06-6.63 3.66-9.04l46.46-43.07z"/></svg>