<svg xmlns="http://www.w3.org/2000/svg" shape-rendering="geometricPrecision" text-rendering="geometricPrecision" image-rendering="optimizeQuality" fill-rule="evenodd" clip-rule="evenodd" viewBox="0 0 269 511.62"><path fill-rule="nonzero" d="m245.63 215.65-116.28-96.54-39.32 36.45c9.1 4.86 19.4 9.35 31 13.39 3.87-2.3 8.22-3.52 13.05-3.6 7.38-.1 13.71 2.37 18.93 7.43 5.27 5.09 7.98 11.3 8.16 18.59.21 7.34-2.22 13.78-7.31 19.32-5.05 5.22-11.29 7.9-18.69 8.05-7.41.07-13.74-2.4-18.97-7.46-5.36-4.9-8.14-11.12-8.37-18.59-.03-1.32.02-2.6.15-3.86-13.44-4.99-25.31-10.64-35.75-16.76l-46.71 43.3-2.46 258.62c-.02 1.66.3 3.31.85 4.82.57 1.5 1.42 2.88 2.46 4.01l.39.45c.99.98 2.17 1.8 3.43 2.34 1.46.61 3.07.96 4.73.96l198.45 1.99c1.84.03 3.52-.27 5.01-.85 1.45-.55 2.8-1.46 3.95-2.57 1.13-1.11 2.04-2.43 2.61-3.8.63-1.48.99-3.12 1.01-4.81l-.32-260.88zm-93.8 161.84v20h-24.22v22.41H93.22v-22.41h-13.7v-20h13.7v-10.77h-13.7v-20h13.7V289.8h53.6c13.67 0 24.21 3.05 31.59 9.14 7.35 6.09 11.05 17.7 11.05 29.72 0 12.37-3.96 21.8-11.9 28.28-7.93 6.53-19.58 9.78-34.93 9.78h-15.02v10.77h24.22zm-24.22-30.77h9.26c3.74 0 6.87-.48 9.4-1.42 2.51-.95 4.56-2.19 6.08-3.79 1.53-1.56 2.64-3.38 3.29-5.45.69-2.05 1-4.15 1-6.32 0-1.85-.25-6.27-.83-8.15-.53-1.9-1.5-3.62-2.87-5.12-1.37-1.55-3.22-2.77-5.59-3.71-2.35-.94-5.35-1.42-8.98-1.42h-10.76v35.38zm74.14-197.45c-29.27-76.35-65.08-112.23-96.77-122.82-21.86-7.31-41.65-1.93-54.97 10.36C36.57 49.22 29.51 68.7 33.2 89.37c3.25 17.98 14.54 36.92 36.6 53.45l51.25-47.51c4.19-3.86 10.73-4.13 15.23-.39l65.47 54.35zm-149.12 9.45c-25.12-19.9-38.2-43.04-42.16-65.28-5.11-28.81 4.92-56.12 23.9-73.64C53.51 2.14 81.59-5.69 112.3 4.58c42.25 14.12 89.89 63.82 123.53 172.89l-.07.03 28.43 23.61c2.73 2.11 4.49 5.42 4.49 9.14l.32 266.4c-.06 4.98-1.08 9.6-2.82 13.7-1.86 4.33-4.51 8.19-7.73 11.35a35.344 35.344 0 0 1-11.74 7.51c-4.21 1.63-8.81 2.48-13.61 2.4l-198.23-1.99c-4.96 0-9.67-1-13.86-2.84a34.571 34.571 0 0 1-10.94-7.62l-.71-.7c-3.01-3.28-5.43-7.2-7.03-11.42A37.1 37.1 0 0 1 0 473.81l2.51-262.98c-.17-3.28 1.06-6.63 3.66-9.04l46.46-43.07z"/></svg>