<svg xmlns="http://www.w3.org/2000/svg" shape-rendering="geometricPrecision" text-rendering="geometricPrecision" image-rendering="optimizeQuality" fill-rule="evenodd" clip-rule="evenodd" viewBox="0 0 269 511.61"><path fill-rule="nonzero" d="m245.63 215.65-116.28-96.54-39.32 36.45c9.1 4.86 19.4 9.35 31 13.39 3.87-2.31 8.22-3.52 13.05-3.6 7.38-.1 13.71 2.37 18.93 7.43 5.27 5.09 7.98 11.3 8.16 18.59.21 7.33-2.22 13.77-7.31 19.32-5.05 5.22-11.3 7.89-18.69 8.05-7.41.07-13.75-2.4-18.97-7.46-5.36-4.91-8.14-11.12-8.37-18.59-.03-1.32.02-2.6.15-3.86-13.44-4.99-25.31-10.64-35.75-16.76l-46.71 43.29-2.47 258.63c-.01 1.75.35 3.52.99 5.12.64 1.58 1.58 3 2.71 4.11 1.11 1.11 2.4 1.99 3.72 2.52 1.35.54 2.87.82 4.45.82l198.45 1.99c1.78.03 3.43-.27 4.88-.8 1.42-.53 2.77-1.4 3.9-2.45 1.14-1.06 2.11-2.41 2.75-3.9.63-1.49 1.03-3.16 1.05-4.87l-.32-260.88zM129.18 344.64h27.49v21.7h-24.31c-.31 5.1-1.23 9.72-2.81 13.84-1.26 3.11-3.37 6.36-6.33 9.73 3.37-.74 6.27-1.11 8.68-1.11 3.1 0 7.11.58 12.06 1.77 6.78 1.54 12.18 2.3 16.24 2.3 3.31 0 6.18-.27 8.62-.83 2.48-.55 5.7-1.73 9.65-3.53l12.34 27.1c-5.96 2.96-11.22 5.04-15.78 6.18-4.51 1.15-9.37 1.7-14.56 1.7-5.68 0-12.15-.99-19.47-2.96-9.6-2.63-15.54-4.15-17.84-4.59-2.3-.39-4.77-.6-7.43-.6-7.79 0-16.39 2.71-25.79 8.15L78.19 397.7c12.74-9.09 19.12-18.18 19.12-27.27 0-.49-.08-1.86-.2-4.09H78.19v-21.7h13.54c-2.29-7.94-3.61-12.59-3.9-13.85-1.76-9.25.24-19.65 5.48-27.46 4-6 9.28-10.36 15.83-13.05 6.56-2.73 15.37-4.08 26.47-4.08 10.39 0 18.62 1.17 24.68 3.49 6.06 2.32 11.19 6.18 15.37 11.56 4.2 5.42 7.07 11.94 8.65 19.61l-34.68 5.42c-1.74-6.44-3.75-10.71-6-12.81-2.27-2.11-4.83-3.15-7.7-3.15-3.5 0-6.32 1.13-8.48 3.43-3.85 4.07-3.69 11.02-2.59 16.2.39 2.1 1.85 6.99 4.32 14.69zm72.57-195.37c-29.27-76.35-65.08-112.23-96.77-122.82-21.86-7.31-41.65-1.93-54.97 10.36C36.59 49.2 29.51 68.7 33.2 89.37c3.25 17.98 14.54 36.92 36.6 53.44l51.24-47.5c4.2-3.86 10.74-4.13 15.24-.4l65.47 54.36zm-149.13 9.45c-25.11-19.9-38.19-43.04-42.15-65.28-5.11-28.81 4.92-56.12 23.9-73.64C53.51 2.14 81.59-5.69 112.3 4.58c42.25 14.12 89.89 63.82 123.53 172.89l-.08.03 28.43 23.6c2.74 2.12 4.5 5.43 4.5 9.15l.32 266.4c-.06 5.1-1.11 9.81-2.93 13.98a35.077 35.077 0 0 1-8.19 11.59 35.223 35.223 0 0 1-11.49 7.12c-4.09 1.54-8.62 2.34-13.29 2.27l-198.23-1.99c-4.65 0-9.1-.9-13.14-2.55-4.23-1.75-8.03-4.27-11.16-7.37a35.394 35.394 0 0 1-7.94-11.91C.9 483.53-.03 478.76 0 473.81l2.51-262.99c-.17-3.28 1.06-6.62 3.66-9.03l46.45-43.07z"/></svg>