<svg xmlns="http://www.w3.org/2000/svg" shape-rendering="geometricPrecision" text-rendering="geometricPrecision" image-rendering="optimizeQuality" fill-rule="evenodd" clip-rule="evenodd" viewBox="0 0 269 511.61"><path fill-rule="nonzero" d="m245.63 215.65-116.28-96.54-39.32 36.45c9.1 4.86 19.4 9.35 31 13.39 3.87-2.31 8.22-3.52 13.05-3.6 7.38-.1 13.71 2.37 18.93 7.43 5.27 5.09 7.98 11.3 8.16 18.59.21 7.33-2.22 13.77-7.31 19.32-5.05 5.22-11.3 7.89-18.69 8.05-7.41.07-13.75-2.4-18.97-7.46-5.36-4.91-8.14-11.12-8.37-18.59-.03-1.32.02-2.6.15-3.86-13.44-4.99-25.31-10.64-35.75-16.76l-46.71 43.29-2.47 258.63c-.01 1.79.32 3.54.93 5.07.61 1.52 1.54 2.92 2.69 4.1 1.08 1.07 2.37 1.96 3.77 2.54l.47.21c1.23.41 2.59.65 4.01.65l198.45 1.99c1.9.03 3.67-.32 5.21-.95l.42-.17c1.36-.62 2.62-1.53 3.66-2.63a12.24 12.24 0 0 0 2.37-3.67c.55-1.45.9-3.03.92-4.6l-.32-260.88zm-84.66 143.69-3.66 16.68H131.8c3.29 11.36 10.49 17.04 21.49 17.04 12.1 0 23.42-4.24 33.94-12.75v34.1c-8.75 6.5-19.29 9.75-31.65 9.75-19.97 0-34.76-4.97-44.33-14.9-9.54-9.93-15.39-21-17.54-33.24H78.52l3.98-16.68h9.29c-.12-.91-.18-2.54-.18-4.85 0-2.42.06-4.17.18-5.26h-11.2l3.97-16.68h9.15c7.27-31.35 27.29-47.02 59.99-47.02 10.69 0 21.52 3.11 32.5 9.36l-7.57 33.16c-7.62-7.62-15.59-11.43-23.87-11.43-10.87 0-18.24 5.31-22.05 15.93h30.33l-3.68 16.68h-29.57c-.12 1.21-.17 2.96-.17 5.26v4.85h31.35zm40.78-210.07c-29.27-76.35-65.08-112.23-96.77-122.82-21.86-7.31-41.65-1.93-54.97 10.36C36.59 49.2 29.51 68.7 33.2 89.37c3.25 17.98 14.54 36.92 36.6 53.44l51.24-47.5c4.2-3.86 10.74-4.13 15.24-.4l65.47 54.36zm-149.13 9.45c-25.11-19.9-38.19-43.04-42.15-65.28-5.11-28.81 4.92-56.12 23.9-73.64C53.51 2.14 81.59-5.69 112.3 4.58c42.25 14.12 89.89 63.82 123.53 172.89l-.08.03 28.43 23.6c2.74 2.12 4.5 5.43 4.5 9.15l.32 266.4c-.06 4.71-.96 9-2.48 12.89-1.68 4.21-4.08 7.96-7.03 11.09-3.19 3.35-7.06 6.1-11.39 8l-.65.29c-4.36 1.81-9.25 2.76-14.35 2.69l-198.23-1.99c-4.28 0-8.38-.79-12.16-2.19l-1.14-.41c-4.27-1.76-8.13-4.4-11.3-7.61-3.3-3.34-5.93-7.38-7.7-11.84-1.69-4.26-2.6-8.95-2.57-13.76l2.51-262.99c-.17-3.28 1.06-6.62 3.66-9.03l46.45-43.07z"/></svg>