<svg xmlns="http://www.w3.org/2000/svg" shape-rendering="geometricPrecision" text-rendering="geometricPrecision" image-rendering="optimizeQuality" fill-rule="evenodd" clip-rule="evenodd" viewBox="0 0 512 353.71"><path d="M124.29 300.33V146.48h69.2c29.33 5.27 58.67 21.17 88.01 39.64h53.74c24.33 1.47 37.07 26.12 13.43 42.32-18.85 13.82-43.71 13.04-69.19 10.75-17.58-.86-18.35 22.77 0 22.85 6.36.49 13.29-1.01 19.33-1.01 31.81-.03 58.01-6.11 74.06-31.24l8.06-18.81 79.94-39.64c40.01-13.18 68.44 28.68 38.97 57.77-57.91 42.14-117.3 76.81-178.04 104.81-44.11 26.83-88.23 25.93-132.34 0l-65.17-33.59zm58.03-274.12-.48 18.31h10.73l18.32-.47 1.73 2.21-1.89 23.05-20.37-.47h-9.16v2.04l1.27 33.15h-31.73l1.58-29.98-1.58-72.16h68.2l1.74 2.21-2.05 23.05-25.26-.94h-11.05zm122.02 52.57 1.74 2.21-1.89 23.04h-72l1.59-29.98-1.59-72.16h73.26l1.73 2.21-2.04 23.05-25.11-.94h-16.26l-.31 14.37h15.62l16.42-.48 1.74 2.21-1.9 23.05-18.31-.47h-14.2l-.17 5.99.32 8.85h15.16l26.2-.95zm90.93 0 1.73 2.21-1.88 23.04h-72l1.59-29.98-1.59-72.16h73.26l1.73 2.21-2.05 23.05-25.1-.94h-16.27l-.3 14.37h15.62l16.42-.48 1.73 2.21-1.89 23.05-18.31-.47h-14.21l-.16 5.99.32 8.85h15.15l26.21-.95zM452.72 0c10 0 19.9 1.84 29.68 5.53l-5.04 25.73-4.42 1.89c-4.42-2.73-8.85-4.94-13.11-6.47-4.26-1.52-7.79-2.37-10.41-2.37-2.43 0-4.41.53-5.77 1.42-1.37.89-2.13 2.22-2.13 3.8 0 1.99 1.07 3.7 3.23 5.12 2.16 1.43 5.81 3.38 10.82 5.61 5.82 2.6 10.74 5.08 14.52 7.34 3.79 2.26 7.16 5.42 9.95 9.31 2.79 3.89 4.27 8.82 4.27 14.61 0 6.42-1.79 12.25-5.29 17.44-3.5 5.19-8.62 9.39-15.09 12.39-6.47 3-14.09 4.58-22.72 4.58-10.74 0-22-2-33.79-6l4.57-27.47 3.16-1.89c4.84 3.68 10.08 6.65 15.56 8.76 5.47 2.1 10.12 3.24 13.81 3.24 2.94 0 5.13-.56 6.39-1.5 1.26-.95 1.98-2.24 1.98-3.72 0-2.2-1.18-4.14-3.39-5.6-2.21-1.47-5.98-3.45-10.98-5.6-5.73-2.48-10.6-4.98-14.29-7.18-3.68-2.21-6.99-5.4-9.7-9.32-2.71-3.92-4.11-8.81-4.11-14.6 0-6.64 1.84-12.66 5.37-17.93 3.52-5.25 8.6-9.52 14.99-12.54C437.17 1.55 444.52 0 452.72 0zM0 131.7h103.46v184.08H0V131.7z"/></svg>