<svg xmlns="http://www.w3.org/2000/svg" shape-rendering="geometricPrecision" text-rendering="geometricPrecision" image-rendering="optimizeQuality" fill-rule="evenodd" clip-rule="evenodd" viewBox="0 0 512 423.87"><path d="M40.8 162.87h42.27l119.64-92.92a55.044 55.044 0 0 1-1.97-14.68c0-15.26 6.18-29.09 16.18-39.08C226.92 6.18 240.74 0 256 0c15.26 0 29.08 6.19 39.08 16.19 9.99 9.99 16.18 23.82 16.18 39.08 0 5.09-.69 10-1.97 14.68l119.63 92.92h42.27c22.4 0 40.81 18.4 40.81 40.8v179.4c0 22.39-18.41 40.8-40.81 40.8H40.74c-11.18 0-21.34-4.57-28.71-11.94C4.66 404.57.08 394.38.06 383.16L0 203.67c0-22.48 18.32-40.8 40.8-40.8zm121.7 181.09h-35.62l-13.27-30.11h-8.43v30.11H74.26V242.77h51c23.21 0 34.81 11.82 34.81 35.46 0 16.19-5.02 26.88-15.06 32.06l17.49 33.67zm-57.32-75.28v20.24c4.59 0 13.53.53 17.41-1.22 1.77-.8 2.67-2.67 2.67-5.58v-6.64c0-2.92-.89-4.79-2.67-5.59-3.82-1.73-12.87-1.21-17.41-1.21zm133.42 37.08h-32.38v14.72h39.66v23.48h-72.05V242.77h71.24l-4.05 23.48h-34.8v16.03h32.38v23.48zm81.93 38.2-29.96-43.71v43.71h-30.93V242.77h28.98l29.96 43.72v-43.72h30.92v101.19h-28.97zm117.21-75.28h-23.48v75.28h-32.38v-75.28H358.4v-25.91h79.34v25.91zM126 162.87h260l-89.77-69.72-1.15 1.19c-10 10.01-23.82 16.19-39.08 16.19-15.26 0-29.08-6.19-39.08-16.19l-1.16-1.19L126 162.87zM256 31.89c6.46 0 12.3 2.62 16.53 6.84a23.314 23.314 0 0 1 6.84 16.54c0 6.45-2.61 12.29-6.84 16.52A23.317 23.317 0 0 1 256 78.64a23.3 23.3 0 0 1-16.53-6.85c-4.23-4.23-6.85-10.07-6.85-16.52 0-6.46 2.62-12.31 6.85-16.54 4.23-4.22 10.07-6.84 16.53-6.84zM40.8 177.44h430.39c14.44 0 26.24 11.79 26.24 26.23v179.4c0 14.43-11.8 26.23-26.24 26.23H40.8c-14.43.03-26.23-11.76-26.23-26.2V203.67c0-14.44 11.8-26.23 26.23-26.23z"/></svg>