<svg xmlns="http://www.w3.org/2000/svg" shape-rendering="geometricPrecision" text-rendering="geometricPrecision" image-rendering="optimizeQuality" fill-rule="evenodd" clip-rule="evenodd" viewBox="0 0 512 426.05"><path fill-rule="nonzero" d="M96.46 186.61c-5.81 4.52-14.19 3.47-18.71-2.34-4.52-5.82-3.47-14.2 2.34-18.72l121.93-94.69c-1.3-4.74-2-9.73-2-14.88 0-15.45 6.27-29.46 16.4-39.58C226.55 6.26 240.54 0 256 0c15.46 0 29.45 6.27 39.58 16.4 10.13 10.12 16.4 24.13 16.4 39.58 0 5.15-.69 10.14-2 14.88l121.93 94.69c5.81 4.52 6.86 12.9 2.34 18.72-4.52 5.81-12.9 6.86-18.71 2.34L296.76 94.36c-.39.41-.78.81-1.18 1.21-10.13 10.13-24.12 16.39-39.58 16.39-15.46 0-29.45-6.27-39.58-16.39-.4-.4-.79-.8-1.17-1.21L96.46 186.61zM234.83 45.38l-.05.08-.03.07-.07.15-.02.03-.06.12-.06.14-.01.01-.07.15-.04.11-.03.05-.06.15-.03.06-.04.09-.07.16-.01.01-.05.14-.06.13-.01.03-.06.15-.03.09-.03.07-.06.16-.02.04-.04.12-.06.15-.06.16-.04.11-.01.05-.06.16-.02.07-.03.09-.06.16v.02l-.05.15-.04.13-.01.03-.05.16-.03.09-.02.07-.05.17-.01.04-.03.12-.05.16v.01l-.04.16-.03.11-.01.06-.05.16-.01.07-.03.1-.03.16-.01.02-.03.15-.03.14-.01.03-.04.17-.03.17-.03.16-.01.05-.03.12-.03.17-.03.17-.02.12v.05l-.03.18-.01.07-.02.1-.02.17-.01.02-.02.15-.02.15v.02l-.02.18-.01.09-.01.08-.02.17v.05l-.02.13-.01.17-.02.18-.01.12v.05l-.01.18-.01.07-.01.1v.18l-.01.02v.16l-.01.15v.02l-.01.18v.41l-.01.12v.18c0 6.54 2.65 12.46 6.94 16.75l.02.02.03.03.03.02.03.03.02.03.03.02.03.03.01.02.01.01.03.02.03.03.02.02.03.03.03.03.02.02.03.03h.01l.02.02.02.03.03.02.03.03.03.03.02.02.03.03.02.02h.01l.02.03.03.02.03.03.03.02.03.03.02.02.03.03.01.01.02.02.03.02.02.02.03.03.03.03.03.02.03.03.02.02.03.02.03.03.03.02.03.03.02.02.03.03.03.02.02.02.01.01.03.02.02.03.03.02.06.05.03.02.03.03.03.02.02.03.03.02.03.02.03.03.03.02.03.03.02.01.01.01.03.02.02.03.03.02c4.08 3.33 9.29 5.33 14.97 5.33 5.68 0 10.89-2 14.97-5.33l.03-.02.03-.03.03-.02v-.01l.03-.01.02-.03.03-.02.03-.03.03-.02.03-.02.03-.03.05-.05.03-.02.03-.02.03-.03.06-.05.02-.02.09-.08.03-.02.03-.03.02-.02.09-.07.03-.03.02-.02.03-.03.1-.09.01-.01.06-.05.03-.03.02-.02.03-.03.03-.02.03-.03.02-.02.03-.03.03-.02.03-.03.02-.03.03-.02.03-.03.02-.02.03-.03.03-.02.03-.03.02-.03.03-.02.03-.03.02-.02.01-.01.02-.02.03-.03.02-.02.03-.03.03-.03.02-.02.03-.03.03-.02a23.643 23.643 0 0 0 6.93-16.75v-.53l-.01-.08v-.1l-.01-.18v-.17l-.01-.16v-.02l-.01-.18-.01-.1v-.07l-.01-.18-.01-.05-.01-.12-.01-.18-.02-.17-.01-.13-.01-.05-.02-.17v-.08l-.02-.09-.02-.18v-.02l-.02-.15-.02-.15v-.02l-.03-.17-.01-.1-.01-.07-.03-.18-.01-.05-.02-.12-.03-.17-.03-.17-.02-.12-.01-.04-.04-.17-.03-.17-.03-.17-.01-.03-.03-.14-.04-.15v-.02l-.04-.16-.02-.1-.1-.4-.05-.16v-.01l-.04-.16-.04-.12-.01-.04-.05-.17-.02-.07-.03-.09-.05-.16v-.03l-.05-.13-.05-.16-.05-.17-.06-.16-.05-.16-.02-.05-.04-.1-.05-.16-.01-.01-.05-.15-.05-.12-.01-.04-.06-.16-.07-.15-.06-.16-.06-.16-.06-.14-.01-.01-.06-.16-.21-.46-.07-.15v-.01l-.29-.59a23.697 23.697 0 0 0-4.43-6.14A23.61 23.61 0 0 0 256 32.3c-6.54 0-12.46 2.65-16.74 6.94a23.465 23.465 0 0 0-4.43 6.14z"/><path fill="#D10000" fill-rule="nonzero" d="M38.01 168.3h435.98c10.42 0 19.92 4.27 26.81 11.15l.05.05c6.89 6.92 11.15 16.41 11.15 26.81v181.72c0 10.42-4.27 19.92-11.15 26.82l-.05.04c-6.91 6.9-16.4 11.16-26.81 11.16H37.95c-10.41 0-19.88-4.26-26.74-11.12C4.34 408.07.07 398.58.05 388.13L0 206.31c0-10.46 4.28-19.98 11.15-26.86 6.89-6.88 16.4-11.15 26.86-11.15z"/><path fill="red" d="M39.98 181.71h432.05c14.62 0 26.57 11.95 26.57 26.57v177.79c0 14.63-11.95 26.57-26.57 26.57H39.98c-14.63.04-26.57-11.91-26.57-26.53V208.28c0-14.62 11.94-26.57 26.57-26.57z"/><path fill="#fff" fill-rule="nonzero" d="m74.06 348.6 4.78-24.21c10.46 2.61 19.87 3.92 28.22 3.92 8.36 0 15.1-.33 20.22-1.02v-12.46l-15.36-1.36c-13.87-1.25-23.39-4.58-28.56-9.98-5.18-5.4-7.76-13.39-7.76-23.97 0-14.55 3.15-24.56 9.46-30.01 6.31-5.46 17.03-8.19 32.15-8.19 15.13 0 28.77 1.42 40.93 4.26l-4.26 23.36c-10.57-1.71-19.04-2.56-25.41-2.56-6.37 0-11.77.28-16.2.85v12.29l12.27 1.2c14.9 1.48 25.19 5.03 30.88 10.66 5.68 5.63 8.52 13.44 8.52 23.45 0 7.17-.96 13.22-2.9 18.17-1.92 4.94-4.23 8.69-6.9 11.25-2.67 2.56-6.46 4.52-11.34 5.88-4.9 1.37-9.18 2.19-12.88 2.48-3.7.28-8.61.42-14.75.42-14.79 0-28.48-1.47-41.11-4.43zm129.37 1.88h-35.99l27.63-106.6h52.71l27.62 106.6h-35.98l-3.93-16.89h-28.14l-3.92 16.89zm14.6-73.86-9.46 29.85h25.53l-9.28-29.85h-6.79zm133.36 73.86h-68.22v-106.6h34.11v79.31h34.11v27.29zm78.88-40.26h-34.11v17.88h41.78v22.38h-75.89v-106.6h75.04l-4.26 22.37h-36.67v19.25h34.11v24.72z"/></svg>