<svg xmlns="http://www.w3.org/2000/svg" shape-rendering="geometricPrecision" text-rendering="geometricPrecision" image-rendering="optimizeQuality" fill-rule="evenodd" clip-rule="evenodd" viewBox="0 0 512 250.68"><path fill-rule="nonzero" d="M96.8 0h270.73c26.63 0 50.84 10.89 68.37 28.43l.46.5a97.63 97.63 0 0 1 18.08 25.39c-1.63.47-3.22 1.07-4.76 1.79a32.124 32.124 0 0 0-9.85 7.16c-3.9-8.33-9.2-15.9-15.58-22.38l-.42-.39c-14.44-14.45-34.38-23.42-56.3-23.42H96.8c-21.92 0-41.85 8.97-56.3 23.42-14.46 14.43-23.42 34.37-23.42 56.3 0 21.72 8.81 41.49 23.01 55.91l.41.38c14.45 14.46 34.39 23.43 56.3 23.43h247.61c-.29.65-.56 1.31-.81 1.98a31.524 31.524 0 0 0-1.63 15.1H96.8c-26.62 0-50.82-10.89-68.36-28.44l-.46-.49C10.71 147.16 0 123.16 0 96.8 0 70.2 10.89 46 28.43 28.46 45.97 10.89 70.18 0 96.8 0zm246.13 130.71h-43.6V62.58h21.8v50.69h21.8v17.44zm-51.23 0h-43.6V62.58h21.8v50.69h21.8v17.44zm-59.4-25.72h-21.8v8.28h26.7v17.44h-48.5V62.58h47.96l-2.73 17.44H210.5v9.16h21.8v15.81zm-110.85 24.52 3.05-16.28c6.69 1.67 12.7 2.51 18.04 2.51s9.65-.22 12.92-.65v-7.16l-9.81-.87c-8.87-.8-14.95-2.93-18.26-6.38-3.31-3.45-4.96-8.56-4.96-15.31 0-9.31 2.02-15.7 6.05-19.19 4.03-3.49 10.88-5.23 20.55-5.23 9.66 0 18.38.91 26.16 2.73l-2.73 15.73c-6.76-1.09-12.17-1.64-16.24-1.64-4.07 0-7.52.19-10.36.55v7.05l7.85.76c9.52.94 16.1 3.22 19.73 6.81 3.63 3.6 5.45 8.59 5.45 14.99 0 4.58-.61 8.45-1.85 11.61-1.24 3.16-2.71 5.56-4.41 7.19-1.71 1.64-4.13 2.89-7.25 3.76-3.13.87-5.87 1.4-8.24 1.58-2.35.19-5.5.27-9.42.27-9.45 0-18.21-.94-26.27-2.83zm351.34 120.78c-3.44 1.14-7.27-.27-8.88-3.62l-11.44-24.29-13.58 12.83c-1.12 1.06-2.3 1.98-3.47 2.7-7.54 4.67-15.2 1.66-15.06-8.13l2.74-95.97c-.08-4.33 4.76-6.83 8.3-4.39 21.29 13.57 54.67 42.21 75.97 59.65 10.21 8.42 1.66 16.58-7.67 17.69-5.73 1.02-12.7 1.51-18.6 2.21l11.35 24.42c1.56 3.47.01 7.51-3.29 9.28-4.73 2.16-11.78 6.15-16.37 7.62zm19.72-109.5c-1.92.84-3.99.85-5.8.19a7.809 7.809 0 0 1-4.69-10.04l.04-.1a7.825 7.825 0 0 1 3.96-4.27l10.67-5.3a7.81 7.81 0 0 1 5.99-.26c1.86.69 3.47 2.09 4.37 4.02.94 2 .96 4.15.27 6.02a7.79 7.79 0 0 1-3.99 4.37l-10.82 5.37zm-28.87-35.29-.07.18a7.762 7.762 0 0 1-4 4.3c-1.75.82-3.82 1-5.78.34l-.36-.12a7.8 7.8 0 0 1-4.25-3.98c-.83-1.77-1-3.83-.34-5.8 1.58-4.75 3.29-10.3 5.13-14.89a7.751 7.751 0 0 1 4.01-4.32 7.79 7.79 0 0 1 5.97-.28c2.03.73 3.57 2.22 4.42 4.04.84 1.8 1 3.94.28 5.95l-5.01 14.58zm-41.46-6.01a7.81 7.81 0 0 1-3.8 10.32l-.11.05c-1.95.88-4.06.9-5.9.22a7.883 7.883 0 0 1-4.39-4.02c-2.21-4.74-4.98-9.74-6.97-14.5a7.76 7.76 0 0 1-.22-5.9 7.83 7.83 0 0 1 4.02-4.38c1.98-.92 4.14-.95 6.02-.26 1.86.68 3.47 2.09 4.37 4.01l6.98 14.46zm-30.66 29.59c1.96.74 3.45 2.21 4.28 3.99a7.79 7.79 0 0 1 .28 5.97l-.02.04a7.742 7.742 0 0 1-4.02 4.39l-.16.06a7.81 7.81 0 0 1-5.81.21l-15.72-5.57c-1.96-.74-3.45-2.22-4.29-4-.84-1.81-1-3.95-.27-5.97a7.798 7.798 0 0 1 4.04-4.42 7.768 7.768 0 0 1 5.96-.28l15.73 5.58zm-1.87 42.39c1.97-.92 4.11-.95 5.97-.28 1.89.68 3.51 2.1 4.42 4.04.92 1.96.95 4.1.27 5.98a7.824 7.824 0 0 1-4.03 4.42l-15.33 7.35c-1.98.92-4.12.95-5.99.27a7.79 7.79 0 0 1-4.42-4.03 7.752 7.752 0 0 1-.26-6l.07-.17a7.893 7.893 0 0 1 3.95-4.22l15.35-7.36z"/></svg>