<svg xmlns="http://www.w3.org/2000/svg" shape-rendering="geometricPrecision" text-rendering="geometricPrecision" image-rendering="optimizeQuality" fill-rule="evenodd" clip-rule="evenodd" viewBox="0 0 512 255.54"><path fill-rule="nonzero" d="M93.83 0h262.43c25.81 0 49.27 10.56 66.27 27.56l.45.48a95.25 95.25 0 0 1 11.17 13.66c-1.82-.49-3.72-.75-5.69-.75-4.64 0-8.95 1.45-12.5 3.94a75.97 75.97 0 0 0-4.72-5.26l-.4-.37c-14.01-14.01-33.33-22.71-54.58-22.71H93.83c-21.26 0-40.58 8.69-54.59 22.69-14 14.01-22.69 33.33-22.69 54.59 0 21.24 8.71 40.56 22.71 54.57 13.99 14.02 33.31 22.71 54.57 22.71h262.43c3.88 0 7.69-.3 11.42-.86.21.56.43 1.11.67 1.67.3.72.67 1.43 1.1 2.11l7.18 11.39a93.09 93.09 0 0 1-20.37 2.24H93.83c-25.76 0-49.23-10.56-66.25-27.58C10.56 143.1 0 119.63 0 93.83c0-25.78 10.56-49.24 27.56-66.24l.03-.03C44.59 10.56 68.05 0 93.83 0zM391.8 116.71c1.7-.01 3.24.69 4.37 1.81a6.193 6.193 0 0 1 1.81 4.37c0 1.69-.7 3.24-1.81 4.36-1.13 1.12-2.67 1.82-4.37 1.82l-18.23-.03a6.16 6.16 0 0 1-4.37-1.8l-.08-.09a6.188 6.188 0 0 1-1.73-4.28c0-1.71.7-3.26 1.81-4.37l.08-.07a6.141 6.141 0 0 1 4.29-1.74l18.23.02zm14.09-26.59c1.2 1.21 1.81 2.8 1.8 4.38a6.166 6.166 0 0 1-6.19 6.16c-1.58.01-3.17-.6-4.37-1.81l-12.96-12.99a6.173 6.173 0 0 1-1.73-4.28 6.27 6.27 0 0 1 1.83-4.37l.08-.09a6.176 6.176 0 0 1 4.29-1.71c1.58 0 3.17.61 4.37 1.82l12.88 12.89zm58.38 38.95c-1.7 0-3.25-.7-4.37-1.81a6.213 6.213 0 0 1-1.82-4.37c0-1.7.7-3.26 1.82-4.37l.08-.08a6.203 6.203 0 0 1 4.29-1.74l18.22-.01c1.7 0 3.25.69 4.37 1.81a6.168 6.168 0 0 1 0 8.73 6.16 6.16 0 0 1-4.37 1.82l-18.22.02zm-5.34-31.21a6.149 6.149 0 0 1-4.37 1.82c-1.57 0-3.16-.6-4.37-1.8a6.208 6.208 0 0 1-1.82-4.37c0-1.58.6-3.17 1.8-4.38l12.88-12.89a6.149 6.149 0 0 1 4.37-1.82c1.58 0 3.17.6 4.37 1.8a6.149 6.149 0 0 1 1.82 4.37c.01 1.57-.6 3.17-1.8 4.37l-12.88 12.9zm-24.27-16.88c0 1.7-.7 3.24-1.81 4.37a6.21 6.21 0 0 1-4.37 1.81c-1.69 0-3.25-.7-4.37-1.81a6.213 6.213 0 0 1-1.82-4.37l-.01-18.23c-.01-1.69.69-3.25 1.81-4.36l.08-.09a6.258 6.258 0 0 1 4.29-1.73c1.7 0 3.24.7 4.36 1.82a6.112 6.112 0 0 1 1.82 4.36l.02 18.23zm2.6 40.76v54.04h5.96v-24.81c0-11.66 18.4-11.3 18.4.65v24.8l.29-.1h6.45v-18.87c0-11.65 18.4-11.3 18.4.65v17.25l.07.01 6.4-.03v-12.18c0-11.65 18.4-11.31 18.4.65v25.8c0 .32-.02.64-.05.95l.31.25c.57 16.62-.57 40.44-14.25 52.34-13.58 11.01-27.15 13.92-41.22 11.7-19.22-3.03-29.22-13.43-38.32-29.97l-36.03-57.13c-1.88-4.42-1.62-7.42.26-9.32 8.13-5.29 21.36 5.92 36.02 21.76l.52-.12V121.1c0-11.67 18.39-11.3 18.39.64zm-319.54 3.8 2.96-15.78c6.48 1.62 12.31 2.43 17.49 2.43 5.17 0 9.35-.21 12.51-.63v-6.94l-9.5-.84c-8.6-.78-14.5-2.84-17.7-6.18-3.2-3.35-4.81-8.3-4.81-14.85 0-9.02 1.96-15.22 5.87-18.6 3.91-3.38 10.54-5.07 19.91-5.07 9.37 0 17.82.88 25.36 2.64l-2.64 15.26c-6.55-1.06-11.8-1.59-15.74-1.59-3.95 0-7.29.17-10.04.53v6.83l7.6.74c9.23.91 15.61 3.12 19.13 6.6 3.52 3.49 5.28 8.33 5.28 14.53 0 4.44-.6 8.19-1.8 11.25-1.19 3.07-2.62 5.39-4.27 6.98-1.66 1.58-4 2.8-7.03 3.64-3.03.85-5.69 1.36-7.98 1.53-2.28.18-5.33.27-9.14.27-9.15 0-17.64-.92-25.46-2.75zm107.45-23.77h-21.13v8.03h25.88v16.9h-47.01V60.66h46.49l-2.64 16.91h-22.72v8.87h21.13v15.33zm57.58 24.93h-42.26V60.66h21.13v49.14h21.13v16.9zm49.66 0h-42.27V60.66h21.13v49.14h21.14v16.9z"/></svg>