<svg xmlns="http://www.w3.org/2000/svg" shape-rendering="geometricPrecision" text-rendering="geometricPrecision" image-rendering="optimizeQuality" fill-rule="evenodd" clip-rule="evenodd" viewBox="0 0 485 511.6"><path fill-rule="nonzero" d="M300.83 208.85v-31.43l97.66-138.86H345.8l-3.72 26.56h-37.7L307.07 0h154.66v30.32l-97.96 140.1h62.65l4.01-24.81h37.62l-4.14 63.24H300.83zM173.71 387.21h-41.46V7.09c0-3.55-3.5-7.09-7.09-7.09H64.27c-3.63 0-7.17 3.16-7.17 7.09v380.12H15.68c-3.63 0-7.3 1.23-10.25 3.84-6.57 5.68-7.26 15.63-1.62 22.16l81.09 93.04c6.45 7.14 17.68 7.22 23.95-.29l76.52-92.45c2.56-2.82 4.06-6.58 4.06-10.59 0-8.75-7-15.71-15.72-15.71zm102.91 124.25v-29.42l14.65-2.13 62.26-177.29h54.48l62.39 177.29 14.6 2.13v29.42h-78.01v-29.42l13.66-2.56-6.32-22.63h-67.12l-6.02 22.63 13.62 2.56v29.42h-78.19zm81.22-89.92h45.73L383.2 358.3l-2.3-7.3h-.86l-2.43 8.02-19.77 62.52z"/></svg>