<svg id="Layer_1" data-name="Layer 1" xmlns="http://www.w3.org/2000/svg" viewBox="0 0 122.88 70.64"><defs><style>.cls-1{fill:#1b9c28;}.cls-2{fill:#1a1a1a;}</style></defs><title>100-natural</title><path class="cls-1" d="M61.44,0a61.46,61.46,0,0,1,61.44,61.44c0,1.16,0,2.37-.11,3.63s-.19,2.48-.32,3.64l-.23,1.93H76c5.1-7.64,7.47-19,6.07-34.88-19.52,6.76-46.68,4.59-47.37,34.88H.66L.43,68.7C.3,67.54.19,66.33.11,65.07S0,62.6,0,61.44A61.46,61.46,0,0,1,61.44,0ZM48,70.64H44c8.1-12.26,23.81-17.42,32-26.86C67.54,60.21,60.44,63.13,48,70.64ZM61.44,25.39a38.72,38.72,0,0,1,38.73,38.72q0,1.1-.06,2.16h18.2l.1-1.45c.06-1.06.1-2.19.1-3.38a57.07,57.07,0,0,0-114.14,0c0,1.19,0,2.32.1,3.37l.1,1.46h18.2q-.06-1.06-.06-2.16A38.72,38.72,0,0,1,61.44,25.39Z"/><path class="cls-2" d="M13.26,41.8l10.23,3.62L22.25,49l-6.47-2.29.1,2.45-2.85,0-.82-4.39,1-3Zm6.08-.59a7.47,7.47,0,0,1-3.17-3.09,3.9,3.9,0,0,1,.64-3.56,3.83,3.83,0,0,1,2.86-2.15,7.68,7.68,0,0,1,4.17,1.47A7.65,7.65,0,0,1,27,37a3.85,3.85,0,0,1-.63,3.55,3.84,3.84,0,0,1-2.89,2.16,7.55,7.55,0,0,1-4.17-1.46Zm.3-5.19a.42.42,0,0,0-.21.19.43.43,0,0,0-.08.29.76.76,0,0,0,.22.33A13.43,13.43,0,0,0,21.3,38a13.25,13.25,0,0,0,1.82,1c.31.1.52,0,.64-.14s.07-.41-.16-.64a9,9,0,0,0-1.4-1c-.7-.43-1.19-.73-1.47-.88a4.8,4.8,0,0,0-.69-.32.69.69,0,0,0-.4,0Zm5.07-3.23a7.37,7.37,0,0,1-2.49-3.66,3.91,3.91,0,0,1,1.33-3.36,3.83,3.83,0,0,1,3.23-1.53,7.54,7.54,0,0,1,3.79,2.26,7.56,7.56,0,0,1,2.52,3.66,3.87,3.87,0,0,1-1.32,3.35,3.84,3.84,0,0,1-3.26,1.54,7.48,7.48,0,0,1-3.8-2.26Zm1.33-5a.46.46,0,0,0-.25.14.43.43,0,0,0-.13.26.62.62,0,0,0,.15.37,11.41,11.41,0,0,0,1.46,1.52,11.15,11.15,0,0,0,1.58,1.34c.28.17.5.16.66,0s.14-.38,0-.65A9.27,9.27,0,0,0,28.3,29.5c-.6-.56-1-.95-1.27-1.15a4.83,4.83,0,0,0-.61-.46.64.64,0,0,0-.38-.12ZM38.92,15.42l-.24,11.41a1,1,0,0,1-.09.44,1.17,1.17,0,0,1-.42.3l-.94.52.24-11.4a.92.92,0,0,1,.08-.45,1.4,1.4,0,0,1,.43-.3l.94-.52Zm2.63,9.73a3.18,3.18,0,0,1-1.73-1.67,3.2,3.2,0,0,1-.48-2.36A3.12,3.12,0,0,1,41,19.34a3.11,3.11,0,0,1,2.41-.46,3.18,3.18,0,0,1,1.73,1.67,3.2,3.2,0,0,1,.48,2.36A3.11,3.11,0,0,1,44,24.69a3.08,3.08,0,0,1-2.4.46Zm.24-3.48.85,1.54L43,23a.78.78,0,0,0,.35-.28c0-.07,0-.2-.11-.39l-.85-1.55L42,21c-.2.11-.32.21-.34.28s0,.2.11.4Zm-9,2.94A3.22,3.22,0,0,1,31,22.94a3.21,3.21,0,0,1-.48-2.36,3.11,3.11,0,0,1,1.69-1.78,3.08,3.08,0,0,1,2.4-.46A3.18,3.18,0,0,1,36.37,20a3.2,3.2,0,0,1,.48,2.36,3.11,3.11,0,0,1-1.69,1.78,3.12,3.12,0,0,1-2.4.46ZM33,21.12l.85,1.55.32-.17a.87.87,0,0,0,.34-.28c0-.07,0-.2-.11-.4l-.85-1.54-.32.17c-.2.11-.31.2-.34.28s0,.2.11.39Zm17.45.64L48.82,10.84l3.71-.56,3.13,3.77.23,0-.62-4.14,3.78-.57,1.63,10.92L57,20.79l-3.14-4.08-.25,0,.67,4.44-3.78.57ZM61,20.06,65,9.5l5.72.86.83,11.28-3.81-.57-.12-1.3-2.5-.37-.45,1.22L61,20.06Zm6.27-7.19-1.19,3.72,1.61.24v-3.9l-.41-.06Zm6,1,1-2.94,7.77,2.75-1,2.94-2-.72-2.64,7.47-3.61-1.27,2.65-7.47-2.15-.76Zm14.64,2.88-3.8,6.16a.88.88,0,0,0-.15.7,1.33,1.33,0,0,0,.58.59,1.27,1.27,0,0,0,.78.24.85.85,0,0,0,.55-.45l3.79-6.16,3.26,2-3.69,6A4,4,0,0,1,86.48,28a5.89,5.89,0,0,1-3.63-1.13,5.94,5.94,0,0,1-2.65-2.72,3.88,3.88,0,0,1,.71-3.37l3.71-6,3.26,2Zm5.24,14.45-.64-.69-2.09,1.95-2.61-2.8,8.07-7.53L99,25.49a6.08,6.08,0,0,1,1.88,3.26,3.76,3.76,0,0,1-1.55,2.95,4,4,0,0,1-3.23,1.35l-2,3.36-2.65-2.84,1.66-2.4Zm2.19-2.07c.37.39.81.34,1.34-.15s.58-1,.17-1.4l-.57-.61-1.58,1.47.64.69Zm-.87,7.18,10.85-3.16,2.78,5.07-8.49,7.49-1.85-3.39,1-.88L97.48,39.2l-1.24.38-1.8-3.3Zm9.52.65-3.68,1.3.78,1.43,3.1-2.37-.2-.36Zm-2,16.33-2.09-7.11L110.42,43l1.07,3.67-7.6,2.23,1,3.45-3,.87Z"/></svg>