<svg id="Layer_1" data-name="Layer 1" xmlns="http://www.w3.org/2000/svg" viewBox="0 0 122.88 122.88"><defs><style>.cls-1,.cls-3{fill:#c28f57;}.cls-2{fill:#f3cea1;}.cls-2,.cls-3{fill-rule:evenodd;}</style></defs><title>baguette</title><path class="cls-1" d="M3,118.24C-2.7,109.39.38,97.35,7,85.19c6.42-11.76,16.21-23.72,24.4-32.79,3.23-3.58,6.44-7,9.69-10.23s6.68-6.55,10.18-9.75c9-8.2,21.13-18.28,33.15-25,12.51-7,25-10.3,34-4.35a3.51,3.51,0,0,1,.36.29h0c5.81,5.8,4.87,14.92.5,25-5.75,13.26-17.5,28.44-26.92,39.34C88.46,72.25,84.8,76.23,81,80.05s-7.74,7.49-12.25,11.43c-10.87,9.48-26.43,21.69-40,27.67-10.23,4.51-19.5,5.55-25.38-.33a2.09,2.09,0,0,1-.42-.58Z"/><path class="cls-2" d="M5.68,116.51C-4.72,100.69,17.47,71.72,33.46,54c6.29-7,12.57-13.26,19.48-19.57,17.58-16,47.42-39.39,63.57-28.77,11.9,11.9-10.46,42.27-26.2,60.47A217.1,217.1,0,0,1,67.18,89.41c-18.06,15.77-49.37,39.23-61.5,27.1Z"/><path class="cls-3" d="M49.7,48.86c.86-.86,6.94,3.83,13.58,10.47S74.61,72.05,73.75,72.91s-6.93-3.84-13.57-10.48S48.85,49.72,49.7,48.86Z"/><path class="cls-3" d="M38,63.53c.86-.86,6.26,3.16,12.07,9s9.83,11.22,9,12.08-6.27-3.16-12.08-9-9.83-11.22-9-12.08Z"/><path class="cls-3" d="M26.21,77.93c.86-.86,5.69,2.58,10.79,7.68s8.54,9.93,7.68,10.79S39,93.81,33.9,88.71s-8.54-9.93-7.69-10.78Z"/><path class="cls-3" d="M14.52,92.57c.85-.85,5,1.93,9.31,6.21s7.06,8.45,6.21,9.31-5-1.92-9.31-6.21-7.07-8.45-6.21-9.31Z"/><path class="cls-3" d="M64.37,37.19c-.85.85,3.17,6.26,9,12.07s11.22,9.83,12.07,9-3.16-6.26-9-12.07-11.22-9.83-12.08-9Z"/><path class="cls-3" d="M78.77,25.37c-.86.86,2.58,5.69,7.68,10.79s9.93,8.54,10.79,7.68-2.58-5.69-7.68-10.79-9.93-8.54-10.79-7.68Z"/><path class="cls-3" d="M93.42,13.67c-.86.86,1.92,5,6.2,9.31s8.46,7.07,9.31,6.21-1.92-5-6.2-9.31-8.46-7.06-9.31-6.21Z"/></svg>