<svg id="Layer_1" data-name="Layer 1" xmlns="http://www.w3.org/2000/svg" viewBox="0 0 110.96 122.88"><defs><style>.cls-1{fill-rule:evenodd;}</style></defs><title>beer-glass-mug</title><path class="cls-1" d="M29.75,4.58A18,18,0,0,1,37.55.69a20.11,20.11,0,0,1,8.39-.1A17.91,17.91,0,0,1,52.3,3.18,18.06,18.06,0,0,1,58,.62,19.12,19.12,0,0,1,65.74.23a21.08,21.08,0,0,1,7.38,2.62,22.06,22.06,0,0,1,8.1,8.2,15.38,15.38,0,0,1,9.3,3A16.41,16.41,0,0,1,95,19a15.47,15.47,0,0,1,2.13,6.64c.45,5.55-2,11.63-9.41,16.3a6.35,6.35,0,0,1-2.43.9v9.28L92,51.49c10.39-.91,19,8.54,19,19V92.73c0,10.23-8.41,19.48-18.6,18.6l-7.08-.62v5.61a6.6,6.6,0,0,1-6.56,6.56H18.52A6.59,6.59,0,0,1,12,116.32V42.7a6.5,6.5,0,0,1-1.32-.79C1.94,35.74-.77,28.27.18,21.71A17.67,17.67,0,0,1,4.7,12.34a19.34,19.34,0,0,1,8.63-5.42A19.66,19.66,0,0,1,27,7.68a15.68,15.68,0,0,1,2.76-3.1ZM85.6,64h8a4.77,4.77,0,0,1,4.75,4.75V94.86a4.33,4.33,0,0,1-4.32,4.31H85.6V64ZM44.69,60.09a3.93,3.93,0,1,1,7.86,0v40.74a3.93,3.93,0,1,1-7.86,0V60.09Zm18.19,3.22a3.93,3.93,0,0,1,7.85,0v34.3a3.93,3.93,0,1,1-7.85,0V63.31Zm-36.38,0a3.93,3.93,0,0,1,7.86,0v34.3a3.93,3.93,0,1,1-7.86,0V63.31Zm-12-26.37C-6,22.69,16.61,2.29,30.61,18,29.48,4.92,48.08,2.84,52.17,12.37c6-10.38,22-6.94,25.33,6,9.07-5.09,21,9.23,6.87,18.18a49.42,49.42,0,0,1-8.93.44c-4.68-.08-5.81,2.31-5.9,6.57-.19,8.84-11.92,10.34-16,4.57-2.82-4-.36-11.23-11.42-11.23Z"/></svg>