<svg id="Layer_1" data-name="Layer 1" xmlns="http://www.w3.org/2000/svg" viewBox="0 0 92.98 122.88"><title>broken-egg</title><path d="M45.22,0c10.87,0,20.33,5.92,27.9,15.12,8.33,10.12,14.42,24.29,17.52,38.72a2.65,2.65,0,0,1-2.27,3.08,5.29,5.29,0,0,1-.56,0h-1a3.08,3.08,0,0,1-1.53-.4L70.11,49.1,56.66,56.86A3.1,3.1,0,0,1,53,56.39L43.3,47.73l-17.07,9a3.12,3.12,0,0,1-2.91,0L5.49,48.36a2.52,2.52,0,0,1-1.46-3C7.61,32.72,13.44,21,20.78,12.7,27.71,4.88,36,0,45.22,0ZM23.88,39.12a2.44,2.44,0,0,1-3,1.25,2.09,2.09,0,0,1-1.38-2.76,60,60,0,0,1,4.44-8.72,49.49,49.49,0,0,1,5.53-7.36,2.52,2.52,0,0,1,3.31-.28,2,2,0,0,1,.3,3A45.27,45.27,0,0,0,28,31a56.42,56.42,0,0,0-4.14,8.13ZM39.08,19a2.53,2.53,0,0,1-3.3-.46,2,2,0,0,1,.51-3c.64-.43,1.29-.82,1.92-1.18s1.29-.7,2-1a2.49,2.49,0,0,1,3.18.92,2.06,2.06,0,0,1-1,2.89c-.53.25-1.08.54-1.64.85s-1.1.65-1.62,1Zm29.45-.79c-6.52-7.91-14.45-13-23.31-13-7.29,0-14.11,4.13-20,10.74-6.46,7.3-11.68,17.54-15.1,28.7l14.55,6.79,17.6-9.27a3.12,3.12,0,0,1,3.46.4l9.74,8.72,12.93-7.47a3.17,3.17,0,0,1,2.91-.09l12.44,6.11c-3.17-11.95-8.42-23.31-15.26-31.62ZM92.45,67.12a73.67,73.67,0,0,1-.78,23,37.5,37.5,0,0,1-8.11,17A36.37,36.37,0,0,1,81,109.85c-8.77,8.37-21.15,12.67-33.47,13s-24.64-3.31-33.26-10.81c-.83-.73-1.64-1.5-2.41-2.31-5.57-5.83-9-13.36-10.68-21.9-1.76-9-1.51-19.29.36-29.88a2.86,2.86,0,0,1,3.29-2.17,3.27,3.27,0,0,1,1,.3l18.92,8.66,17.64-8.9a3.1,3.1,0,0,1,3.28.31l10.67,8.43,12-7.61a3.13,3.13,0,0,1,3-.19l19.47,8a2.63,2.63,0,0,1,1.69,2.3ZM86,89.13A67.73,67.73,0,0,0,86.87,69L70.29,62.13,57.76,70.06a3.11,3.11,0,0,1-3.52-.18L43.39,61.3,26.19,70a3.14,3.14,0,0,1-2.68.05L6.66,62.33a75.38,75.38,0,0,0,.2,24.6c1.49,7.65,4.51,14.32,9.35,19.39.64.67,1.32,1.32,2,1.94,7.48,6.51,18.27,9.67,29.14,9.37s21.78-4.06,29.46-11.38c.79-.76,1.53-1.54,2.21-2.32a32.6,32.6,0,0,0,7-14.8Z"/></svg>