<svg id="Layer_1" data-name="Layer 1" xmlns="http://www.w3.org/2000/svg" viewBox="0 0 122.88 88.87"><title>cat-food</title><path d="M104.2,24.3a2.37,2.37,0,0,1,.79.33,16.3,16.3,0,0,1,4.4,4,8.2,8.2,0,0,1,1.66,4.78v0c1,2.55,2.48,5.91,4,9.38,1.44,3.2,3,6.49,4.4,9.34,1.64,3.27,3.06,6.38,3.35,9.67.3,3.49-.64,7-3.83,10.72-4.11,4.8-11.41,8.62-20.79,11.35S76.9,88.36,64.12,88.82c-1,0-1.93.05-2.68.05s-1.63,0-2.67-.05c-12.78-.46-24.56-2.14-34.1-4.91C15.29,81.18,8,77.36,3.88,72.56.69,68.83-.25,65.33.05,61.84c.29-3.29,1.71-6.4,3.35-9.67,1.43-2.85,3-6.14,4.4-9.34,1.56-3.48,3-6.83,4-9.38v0a9.37,9.37,0,0,1,2.39-6.06,19.24,19.24,0,0,1,6.26-4.66,2.26,2.26,0,0,1,.33-.13,22.49,22.49,0,0,1,3.75-1.7c.58-4.56,4-7.79,7-10.65.79-.75,1.55-1.47,2.18-2.16A24.61,24.61,0,0,1,46.53.88a26.3,26.3,0,0,1,14.95,1c.32.12,1.3.62,2.18,1.06a.66.66,0,0,1,.26.2,15.7,15.7,0,0,1,8-3.09A20.06,20.06,0,0,1,81.7,1.71,22,22,0,0,1,89.52,7.3,14.68,14.68,0,0,1,93,13.76a19.58,19.58,0,0,1,7.61,4.87l.11.13a21.73,21.73,0,0,1,3.51,5.54ZM61.32,73.49a3.28,3.28,0,0,1-.82.91,5,5,0,0,1-3.83.58.9.9,0,0,1,.25-1.78,3.49,3.49,0,0,0,2.5-.25c.51-.37.84-1.17.88-2.67h-.46a.91.91,0,0,1,0-1.81h2.79a.91.91,0,0,1,0,1.81h-.51a5.36,5.36,0,0,0,.27,1.38,2.68,2.68,0,0,0,.9,1.3,2.15,2.15,0,0,0,1.28.41,3.19,3.19,0,0,0,1.14-.2.9.9,0,0,1,.6,1.7,5.08,5.08,0,0,1-1.78.3,4.06,4.06,0,0,1-2.31-.76,4.63,4.63,0,0,1-.9-.92Zm5.38-7.88a1.74,1.74,0,0,1,1.73,1.73,1.74,1.74,0,0,1-1.73,1.74,1.75,1.75,0,0,1-1.23-.51A1.76,1.76,0,0,1,65,67.34a1.74,1.74,0,0,1,.51-1.22,1.71,1.71,0,0,1,1.23-.51Zm-10.84,0a1.71,1.71,0,0,1,1.23.51,1.74,1.74,0,0,1,.51,1.22,1.76,1.76,0,0,1-.51,1.23,1.75,1.75,0,0,1-1.23.51,1.74,1.74,0,0,1-1.73-1.74,1.7,1.7,0,0,1,.51-1.22,1.68,1.68,0,0,1,1.22-.51ZM69.23,74a.9.9,0,0,1-.77-1,.89.89,0,0,1,1-.77l4.06.54a8.23,8.23,0,0,0,.92-3.06l-4.82,1.57a.9.9,0,1,1-.56-1.72l5.33-1.73a13.43,13.43,0,0,0-1.85-5,.84.84,0,0,1-.12-.45l0-5.81-2.71,2.55a.9.9,0,0,1-1,.19,17.76,17.76,0,0,0-7.58-1.67,19.27,19.27,0,0,0-7.51,1.68.91.91,0,0,1-1-.17l-2.42-2.31-.27,5.58a.86.86,0,0,1-.1.38,14.83,14.83,0,0,0-1.64,4.89l5.65,1.83a.9.9,0,0,1-.56,1.72L48.07,69.6a9.29,9.29,0,0,0,.7,3.2l4.65-.58A.9.9,0,1,1,53.64,74l-3.93.49a11.19,11.19,0,0,0,3.76,3.32,15,15,0,0,0,5.69,1.81,14.57,14.57,0,0,0,13.29-5.19L69.23,74Zm6.18-1,1.23.17A.9.9,0,1,1,76.41,75l-1.94-.26c-.12.19-.25.37-.38.55A16.3,16.3,0,0,1,59,81.42a17.07,17.07,0,0,1-6.37-2A12.87,12.87,0,0,1,47.91,75l-.18-.28-1.45.18a.9.9,0,1,1-.22-1.79l.87-.11a11,11,0,0,1-.68-4l-1.59-.52a.9.9,0,0,1-.58-1.14.89.89,0,0,1,1.13-.57l1.21.39a16.77,16.77,0,0,1,1.7-5l.35-7.34a.91.91,0,0,1,.94-.86.86.86,0,0,1,.58.25l3.42,3.25a20.82,20.82,0,0,1,7.66-1.6,19.42,19.42,0,0,1,7.78,1.59l3.82-3.57a.9.9,0,0,1,1.27,0,.92.92,0,0,1,.24.61l0,7.63a15.26,15.26,0,0,1,1.92,5.09l1.53-.49a.89.89,0,0,1,1.13.57.91.91,0,0,1-.58,1.14l-1.94.63v.12A9.81,9.81,0,0,1,75.41,73ZM55.31,13.34a1.8,1.8,0,1,1-1.8,1.8,1.81,1.81,0,0,1,1.8-1.8ZM85.37,29.82A4.39,4.39,0,1,1,81,34.21a4.39,4.39,0,0,1,4.39-4.39ZM74.17,11.24a3.25,3.25,0,0,1,4.37,1.46c.81,1.61.15,6.72-1.45,7.53s-3.57-3-4.38-4.62a3.26,3.26,0,0,1,1.46-4.37Zm-39.26,28a1.8,1.8,0,1,1-1.8,1.8,1.8,1.8,0,0,1,1.8-1.8Zm1.52-18.41a3,3,0,1,1-1.32,4,2.95,2.95,0,0,1,1.32-4ZM48.27,35.52A2.27,2.27,0,1,1,46,37.79a2.27,2.27,0,0,1,2.27-2.27ZM62.83,24.09a4.4,4.4,0,1,1-4.39,4.39,4.4,4.4,0,0,1,4.39-4.39ZM23.12,25.82a2.31,2.31,0,0,1-.53.38l-.51.26a9,9,0,0,0-1.9,1.7c-1.3,1.6-1.94,3.76-2,6.73a13.21,13.21,0,0,0,3.05,3.82c3.67,2.65,9,4.67,15.2,6.08a121.67,121.67,0,0,0,25,2.43H63c.81,0,1.63,0,2.44-.06,10-.37,19.64-1.85,27.22-4.33a45.46,45.46,0,0,0,6.62-2.71A23.74,23.74,0,0,0,105.74,34a18.14,18.14,0,0,0-2.21-3.23,19.38,19.38,0,0,1-2.35-3.48,21.74,21.74,0,0,0-3.42-5.81l-.09-.1a16.75,16.75,0,0,0-7.07-4.22,2,2,0,0,1-1.37-1.69,10.26,10.26,0,0,0-2.69-5.5,18.06,18.06,0,0,0-6.4-4.56A16,16,0,0,0,72.28,4a11.8,11.8,0,0,0-6.68,2.9,2,2,0,0,1-1.36.53,7.76,7.76,0,0,1-2.37-.94c-.77-.39-1.64-.83-1.8-.89a22.36,22.36,0,0,0-12.7-.87,20.61,20.61,0,0,0-10.74,6c-.72.78-1.53,1.55-2.37,2.35-2.7,2.58-5.77,5.52-5.81,9.11a2,2,0,0,1-1.39,2,21.92,21.92,0,0,0-3.94,1.6ZM95.92,46.4q-1.71.76-3.57,1.41C84.59,50.54,74.75,52,63,52.13c-12.1.18-23.15-1.09-31.67-3.79a44.39,44.39,0,0,1-7.57-3.14c-4.21-1.74-7.46-3.8-9.5-6.11-.73,1.73-1.56,3.6-2.42,5.53-1.43,3.19-3,6.53-4.49,9.51s-2.65,5.52-2.87,8.09c-.21,2.36.47,4.8,2.77,7.48,3.53,4.13,10.1,7.5,18.67,10,9.19,2.67,20.6,4.29,33,4.73.73,0,1.56,0,2.52,0s1.8,0,2.52,0C76.39,84,87.8,82.36,97,79.69c8.57-2.49,15.14-5.86,18.67-10,2.3-2.68,3-5.12,2.77-7.48-.22-2.57-1.45-5.25-2.87-8.09s-3.06-6.32-4.49-9.51c-.86-1.93-1.69-3.8-2.42-5.53-2.53,2.87-6.94,5.36-12.73,7.31Z"/></svg>