<svg xmlns="http://www.w3.org/2000/svg" shape-rendering="geometricPrecision" text-rendering="geometricPrecision" image-rendering="optimizeQuality" fill-rule="evenodd" clip-rule="evenodd" viewBox="0 0 317 511.93"><path fill-rule="nonzero" d="M249.26 117.58c-12.06 12.54-24.16 25.11-37.58 37.07-.67.62-1.51 1.08-2.47 1.29-14.9 3.23-26.78-1.02-35.49-9.98-6.59-6.78-11.2-16.23-13.78-27.06-2.5-10.53-3.11-22.46-1.77-34.56 3.28-29.62 18.33-60.44 45.99-74.4 7.52-3.79 15.67-6.5 24.09-8.11 8.56-1.65 17.43-2.18 26.21-1.6 10.71.71 21.8 2.95 31.86 7.34 8.82 3.85 16.86 9.36 23.19 16.96 7.77 9.31 8.49 17.44 4.69 25.82-3.31 7.28-10.1 14.19-18.52 22.4l-1.2 1.11c-10.31 9.29-20.6 18.57-29.99 28.04-5.07 5.13-10.15 10.4-15.23 15.68z"/><path fill="#FFCC7B" d="M208.11 150.85c19.06-16.96 35.33-35.08 52.7-52.61 9.83-9.94 20.45-19.47 31.05-29.03 16.21-15.81 26.14-26.4 13.66-41.36-12.47-14.96-32.5-21.17-51.38-22.42-16.54-1.1-33.33 1.94-47.64 9.16-60.55 30.54-56.77 148.91 1.61 136.26zM234 51.89c2.77-.66 5.69 1.58 6.51 5.02.82 3.43-.77 6.75-3.55 7.41-2.78.67-5.69-1.58-6.51-5.01-.82-3.44.77-6.76 3.55-7.42zm-22.81 5.64c1.02-.24 2.1.58 2.4 1.85.31 1.27-.28 2.5-1.31 2.74-1.02.25-2.1-.58-2.4-1.85-.31-1.27.28-2.5 1.31-2.74zm10.82 21.34c2.01-.48 4.13 1.15 4.72 3.63.59 2.49-.56 4.9-2.57 5.38-2.02.48-4.13-1.15-4.73-3.63-.59-2.49.56-4.9 2.58-5.38zm36.07-20.66c2.02-.48 4.13 1.15 4.72 3.64.6 2.48-.55 4.89-2.57 5.37-2.01.48-4.13-1.14-4.72-3.63-.59-2.49.56-4.9 2.57-5.38zm1.04-24.99c2.09-.5 4.28 1.18 4.9 3.76.61 2.59-.58 5.08-2.67 5.58s-4.28-1.19-4.89-3.77c-.62-2.58.57-5.08 2.66-5.57zm-19.16-6.75c2.09-.5 4.28 1.19 4.9 3.77.61 2.58-.58 5.08-2.67 5.57-2.09.5-4.28-1.18-4.9-3.76-.61-2.59.58-5.08 2.67-5.58z"/><path fill-rule="nonzero" d="M77.03 221.72c-5.59-17.14-9.71-34.13-13.81-51.08-1.76-7.3-3.53-14.58-5.25-21.26-3.33-12.97-7.52-26.09-11.71-39.23l-.44-1.39c-3.17-11.44-5.59-20.91-4.77-28.92.95-9.17 5.66-15.83 17.07-19.96 9.29-3.36 19.01-4.07 28.56-2.95 10.92 1.29 21.62 4.95 31.21 9.73 7.86 3.91 15.25 8.85 21.85 14.62 6.45 5.64 12.13 12.09 16.7 19.14 16.84 25.99 14.29 60.2 2.19 87.42-4.95 11.14-11.5 21.14-18.95 28.96-7.7 8.07-16.45 13.91-25.55 16.43-12.03 3.35-24.43 1.02-35.68-9.29-.68-.63-1.16-1.4-1.42-2.22z"/><path fill="#FFCC7B" d="M81.97 220.11C74.07 195.85 69.16 172 63 148.1c-3.48-13.54-7.84-27.12-12.17-40.72-6.03-21.83-9.26-35.98 9.06-42.61 18.31-6.63 38.74-1.89 55.68 6.55 14.83 7.39 27.8 18.49 36.51 31.94 36.88 56.91-26.07 157.22-70.11 116.85zM92.95 82.2c-2.09-.5-4.29 1.19-4.9 3.77-.62 2.58.58 5.07 2.67 5.57 2.08.5 4.28-1.19 4.89-3.77.62-2.58-.58-5.08-2.66-5.57zm-19.17 6.74c-2.08-.5-4.28 1.19-4.89 3.77-.62 2.58.58 5.08 2.66 5.58 2.09.49 4.29-1.19 4.9-3.78.62-2.57-.58-5.07-2.67-5.57z"/><path fill="#F59A08" fill-rule="nonzero" d="M22.06 104.58 57 117.51l2.58-1.92c9.54-7.11 13.97-10.39 20.33-9.49 5.4.77 8.69 4.19 14.8 10.53l4.05 4.16 1.64-1.99c7.57-9.26 11.22-13.72 17.84-13.54 6.01.16 9.58 4.19 16.46 11.96 1.23 1.39 2.61 2.95 4.18 4.69.21-.23 2.32-2.51 2.29-2.54 7.59-8.36 11.31-12.46 17.67-12.69 6.01-.22 10.02 3.28 17.85 10.12l4.19 3.63c7.95-10.88 11.91-16.16 19.11-16.35 6.62-.17 11.11 4.39 19.84 13.25l1.77 1.79c14.09-15.75 23-14.64 30.26-9.06 2.35 1.82 4.11 3.97 5.83 6.08 1.2 1.47 2.37 2.91 3.23 3.5.88.6 3.23-1.4 10.82-12.42 1.55-2.26 4.14-3.38 6.69-3.19l21.27 1.7c3.73.3 6.61 3.3 6.84 6.94 7.14 62.95 10.46 126.61 10.46 190.2 0 67.01-3.7 134.2-10.49 200.66-.37 3.62-3.3 6.37-6.81 6.65l-21.27 1.73a7.456 7.456 0 0 1-6.99-3.63c-7.35-10.65-9.65-12.59-10.52-12-.86.6-2.03 2.04-3.23 3.5-1.72 2.11-3.47 4.26-5.83 6.08-7.26 5.59-16.17 6.69-30.26-9.05l-1.77 1.79c-8.73 8.86-13.22 13.42-19.84 13.24-7.2-.19-11.16-5.47-19.11-16.34l-4.19 3.63c-7.83 6.84-11.84 10.34-17.85 10.12-6.36-.24-10.08-4.33-17.67-12.7l-2.3-2.52-4.17 4.68c-6.88 7.76-10.45 11.79-16.46 11.95-6.62.18-10.27-4.28-17.84-13.53l-1.64-2-4.05 4.16c-6.11 6.35-9.4 9.76-14.8 10.53-6.36.91-10.78-2.38-20.33-9.48L57 498.42l-35.3 13.05a7.426 7.426 0 0 1-9.54-4.42 7.91 7.91 0 0 1-.44-1.99C4.32 439.33.21 373.7.01 307.96c-.2-65.85 3.5-131.6 11.74-197.43.5-4.08 4.22-6.98 8.3-6.48.71.08 1.38.27 2.01.53zm33.54 28.27-30.2-11.17C18 184.01 14.66 246.04 14.85 307.96c.19 61.92 3.92 123.95 10.64 186.25l30.11-11.14.01.02c2.24-.82 4.84-.54 6.92.97 3.09 2.26 4.55 3.35 5.89 4.35 6.19 4.6 9.06 6.73 9.39 6.68.36-.04 2.4-2.16 6.19-6.1 2.61-2.7 5.84-6.05 10.04-10.05l.48-.44a7.431 7.431 0 0 1 10.47.87 525.2 525.2 0 0 1 6.93 8.33c4.47 5.46 5.31 8.14 5.97 8.12.48-.01 1.63-2.37 5.69-6.95 2.68-3.03 5.96-6.73 9.89-10.87l.28-.27a7.43 7.43 0 0 1 10.51.26c3.33 3.51 5.81 6.24 7.91 8.55 4.79 5.28 7.14 7.86 7.2 7.86.15.01 2.65-2.18 7.54-6.45 3.04-2.65 6.72-5.87 10.55-9l.29-.2c3.29-2.45 7.94-1.76 10.39 1.54l4.4 5.97c5.29 7.23 7.74 10.74 7.8 10.74.2.01 3.16-2.99 8.9-8.82 2.2-2.23 4.73-4.8 7.67-7.7l.67-.58c3.25-2.5 7.91-1.9 10.42 1.34 9.74 12.66 13.1 14.16 14.78 12.87 1.02-.79 2.22-2.26 3.39-3.7 1.88-2.3 3.73-4.57 6.31-6.35 7.41-5.09 15.94-4.86 28.95 12.67l10.92-.88c6.32-63.7 9.75-128.29 9.75-192.98 0-61.26-3.08-122.42-9.69-182.79l-10.98-.89c-13.01 17.54-21.54 17.77-28.95 12.67-2.58-1.77-4.43-4.04-6.31-6.35-1.17-1.44-2.37-2.9-3.39-3.69-1.67-1.29-5.01.19-14.67 12.72-.2.28-.43.55-.69.81a7.427 7.427 0 0 1-10.51.09c-2.94-2.89-5.47-5.46-7.67-7.69-5.74-5.83-8.7-8.83-8.9-8.83-.06 0-2.51 3.51-7.8 10.74l-4.61 6.27a7.443 7.443 0 0 1-10.47 1.05c-3.81-3.12-7.51-6.35-10.55-9-4.89-4.28-7.39-6.46-7.54-6.46-.06 0-2.41 2.59-7.2 7.86l-.02-.01c-2.36 2.6-5.13 5.66-7.87 8.55l-.28.28a7.438 7.438 0 0 1-10.51-.26c-3.94-4.14-7.23-7.86-9.91-10.88-4.06-4.59-5.21-6.94-5.69-6.95-.66-.02-1.5 2.65-5.97 8.12-1.79 2.18-3.89 4.75-6.93 8.32l-.29.32c-2.83 2.97-7.53 3.09-10.5.26-4.28-4.06-7.56-7.46-10.2-10.2-3.79-3.93-5.83-6.05-6.19-6.1-.33-.05-3.19 2.08-9.39 6.69l-5.41 3.99a7.43 7.43 0 0 1-7.41 1.34z"/><path fill="#FFA826" d="m19.14 111.44 39.02 14.43c25.07-18.29 17.58-16.52 41.16 5.88 22.42-26.38 14.93-24.79 39.55 1.07 24.03-25.32 15.85-24.07 43.3-1.61 19.94-26.81 15.17-25.4 39.95-1.07 35.68-46.37 24.44 26.79 55.73-18.7l21.27 1.72c14.62 128.74 13.18 260.79 0 389.61l-21.27 1.72c-31.29-45.49-20.05 27.67-55.73-18.71-24.78 24.33-20.01 25.74-39.95-1.07-27.45 22.46-19.27 23.72-43.3-1.6-24.62 25.85-17.13 27.44-39.55 1.07-23.58 22.4-16.09 24.17-41.16 5.88l-39.02 14.43c-14.8-131.3-16.43-261.76 0-393.05z"/><path fill="#F59A08" d="M304.05 465.02c-1.65 12.58-3.29 25.17-4.93 37.75l-21.27 1.72c-31.29-45.49-20.05 27.67-55.73-18.71-24.78 24.33-20.01 25.74-39.95-1.07-27.45 22.46-19.27 23.72-43.3-1.6-24.62 25.85-17.13 27.44-39.55 1.07-23.58 22.4-16.09 24.17-41.16 5.88l-39.02 14.43-5.61-39.47c96.84-4.48 193.68-4.49 290.52 0zM19.14 111.44l39.02 14.43c25.07-18.29 17.58-16.52 41.16 5.88 22.42-26.38 14.93-24.79 39.55 1.07 24.03-25.32 15.85-24.07 43.3-1.61 19.94-26.81 15.17-25.4 39.95-1.07 35.68-46.37 24.44 26.79 55.73-18.7l21.27 1.72c1.92 16.9 3.56 21.95 4.93 38.95H13.51c1.57-17.52 3.44-23.13 5.63-40.67z"/><path fill="#E68D00" fill-rule="nonzero" d="M14.06 146.74c47.58 3.06 94.87 4.57 142.74 4.58 47.88.01 96.47-1.49 146.65-4.44l.3 5.2c-50.17 2.95-98.86 4.44-146.95 4.44-48.09-.01-95.49-1.52-143.07-4.58l.33-5.2zm-.34 315.69c48.94-2.11 97.29-3.44 145.86-3.58 48.56-.13 97.27.93 146.91 3.6l-.26 5.19c-49.63-2.67-98.25-3.73-146.65-3.59-48.4.13-96.68 1.46-145.63 3.58l-.23-5.2z"/><path fill="#F59A08" d="m9.74 150.71 4.88 1.4c11.56 9.36 28.41 12.89 40.42 25.18 32.61 33.34 6.68 64.45-1.26 90.29-42.64 138.74 38.61 126.59 57.8 194.38l-100.77 7.67-4.43-65.99-3.95-82.53V253.2l7.31-102.49z"/><path fill="#E68D00" fill-rule="nonzero" d="M145.21 410.1c-1.39 1.03-2.65 1.93-4.14 2.8-7.71 4.76-18.5 8.68-27.68 8.17-8.6-.47-16.35-4.63-22.04-10.96-5.26-5.87-9.55-14.95-12-22.39l-.07-.24c-2.58-7.93-3.35-16.17-.57-24.19l-.71-.78c-.94-1.06-1.88-2.2-2.8-3.41-13.37-17.51-15.8-40.62-8.92-63.82 6.74-22.69 22.44-45.54 45.5-63.15s49.24-26.74 72.9-27.27c24.2-.54 45.86 7.89 59.23 25.39 6.78 8.89 10.75 19.22 12.12 30.28 1.11 9.05.47 18.6-1.81 28.25 3.85-.1 7.48 1.09 10.43 3.19 3.16 2.26 5.56 5.58 6.62 9.51l1.69 6.67.13.11c3.6 2.91 6.43 6.96 8.27 11.2 2.66 6.13 3.87 12.76 2.26 19.39l-.01.02c-1.49 6.19-5.6 12.11-10.72 15.85l-.02.02c-7.17 5.28-18.82 9.8-27.47 11.62-1.65.34-3.35.63-5.11.85-.49.07-.98.11-1.48.13a29.337 29.337 0 0 1-3.2 2.79c.24 2.78-.21 5.55-1.25 8.07a17.19 17.19 0 0 1-7.9 8.65L214 393.44c-.21.13-.43.24-.66.34a17.16 17.16 0 0 1-12.79 1.03c-2.96-.91-5.67-2.62-7.79-5.01l-4.76 2.08c-.77.33-1.53.6-2.27.81l-1 .24-.88.57c-.66.41-1.37.78-2.13 1.11l-13.2 5.75c-.82.36-1.63.65-2.4.85l-1.06.25-.89.6c-.69.43-1.44.82-2.25 1.18l-13.2 5.75c-.83.36-1.65.65-2.44.86l-1.07.25z"/><path fill="#FEEC88" fill-rule="nonzero" d="M143.2 405.52c-1.14.94-2.36 1.84-3.68 2.69l-.82.49a51.01 51.01 0 0 1-6.53 3.41 61.205 61.205 0 0 1-7.35 2.67c-2.71.78-5.15 1.25-7.33 1.42-2.6.19-5.1.06-7.49-.42-2.53-.5-4.93-1.39-7.2-2.65l-.79-.47c-1.72-1.01-3.3-2.17-4.74-3.46-1.61-1.45-3.1-3.1-4.45-4.96a48.281 48.281 0 0 1-3.39-5.36c-.95-1.75-1.94-3.78-2.95-6.09-2.01-4.61-3.37-8.77-4.09-12.47-.42-2.15-.61-4.36-.58-6.61.03-2.36.31-4.61.84-6.72l.01-.05c.42-1.67 1-3.26 1.73-4.76-1.91-1.85-3.7-3.86-5.35-6.01-24.76-32.43-8.79-86.24 35.68-120.2 44.46-33.96 100.58-35.2 125.34-2.78 12.73 16.66 14.7 38.97 7.56 61.33 1.97-.4 3.94-.69 5.91-.87 6.19-.56 11.73 3.53 13.17 9.39h.01l1.98 7.96c.95.65 1.83 1.36 2.65 2.14 1.17 1.12 2.27 2.46 3.3 4.01a28.89 28.89 0 0 1 2.3 4.24c.58 1.34 1.08 2.71 1.48 4.1l.17.66c.38 1.42.64 2.66.78 3.75.2 1.65.21 3.32.03 5.02v.04c-.2 1.9-.64 3.67-1.31 5.32-.38.94-.87 1.95-1.46 3.01l.01.01c-.6 1.1-1.24 2.09-1.89 2.96-.28.39-.59.75-.9 1.09-.69.79-1.44 1.53-2.25 2.23-.97.84-2.09 1.66-3.35 2.44a55.04 55.04 0 0 1-4.53 2.59c-1.49.77-3.16 1.56-5.01 2.36a79.058 79.058 0 0 1-9.5 3.46c-3.21.92-6.38 1.59-9.52 2-1 .12-1.99.13-2.95.02l-.64.73c-1.3 1.42-2.8 2.72-4.48 3.87l-1.34.86c1.77 5.68-.77 11.88-6.07 14.66l-12.77 6.75c-6.07 3.2-13.59.87-16.78-5.2l-.17-.34-8.42 3.67c-1.09.47-2.21.78-3.33.93-.87.72-1.86 1.33-2.95 1.8l-13.2 5.76c-1.15.5-2.33.81-3.51.95-.91.77-1.94 1.42-3.09 1.92l-13.2 5.75c-1.17.51-2.38.83-3.59.96z"/><path fill-rule="nonzero" d="m131.07 383.81 5.82 10.66c-2.27 2.35-5.5 4.43-9.68 6.26-4.18 1.82-7.73 2.84-10.64 3.06-2.92.22-5.51-.29-7.79-1.55-2.28-1.26-4.26-3.04-5.94-5.35-1.68-2.3-3.34-5.32-4.97-9.06s-2.72-7.02-3.27-9.85c-.55-2.82-.51-5.5.12-8.02 1.22-4.88 5.6-8.96 13.12-12.24 1.67-.73 3.71-1.42 6.12-2.08 2.42-.65 4.28-.98 5.59-.98l2.42 10.97c-3.13.63-5.88 1.46-8.26 2.49-2.38 1.04-3.93 1.98-4.66 2.82-.74.84-.82 1.92-.24 3.25l7.53 17.29c1.88-.4 3.69-.98 5.45-1.74 3.74-1.64 6.83-3.61 9.28-5.93zm15.1-16.71 8.86 20.33-13.21 5.75-18.69-42.91 12.77-6.74 5.27 12.08c2.18-2.68 4.99-4.77 8.42-6.26 3.43-1.5 6.32-1.96 8.66-1.38 2.35.57 4.04 2.05 5.07 4.43l11.51 26.4-13.2 5.75-10.07-23.1-2.04.89c-1.59.69-2.67 1.36-3.25 2.01-.59.64-.62 1.56-.1 2.75zm34.93 8.97-13.66-31.36 12.48-7.4 14.38 33.01-13.2 5.75zm-14.54-35.45c-1.32-.32-2.41-1.47-3.27-3.45-.86-1.98-.97-3.58-.33-4.8.65-1.22 2.43-2.47 5.36-3.75 2.93-1.28 5.06-1.73 6.39-1.37 1.34.36 2.44 1.53 3.3 3.51.86 1.98.96 3.56.3 4.74-.67 1.18-2.46 2.41-5.39 3.68-2.92 1.28-5.05 1.76-6.36 1.44zm19.96-6.18 6.6-2.88 3.88 2.24c.69-3.71 3.66-6.7 8.89-8.98 2.69-1.17 5.22-1.67 7.59-1.5 2.38.16 4.46.91 6.24 2.23 3.33 2.47 5.99 6 7.98 10.58 2.44 5.58 3.07 10.34 1.9 14.25-.49 1.52-1.39 3-2.7 4.44-1.32 1.43-3.05 2.62-5.21 3.56l-7.59 3.31 4.32 9.9-12.77 6.74-19.13-43.89zm18.03 5.33 5.79 13.27 2.04-.89c1.59-.69 2.67-1.36 3.25-2.01.58-.64.61-1.56.1-2.75l-5.64-12.94-2.05.89c-.96.43-1.72.81-2.25 1.14-.53.34-.94.79-1.21 1.36-.28.56-.29 1.21-.03 1.93zm24.96-22.49c2.16-2.78 5.71-5.24 10.64-7.39 4.93-2.15 9.76-3.44 14.49-3.88l2.39 9.64c-3.85.53-7.5 1.54-10.93 3.03-1.05.46-2.51 1.21-4.37 2.23l.92 2.11c7.13-3.11 12.43-4.16 15.9-3.16 1.74.5 3.14 1.26 4.22 2.28 1.07 1.03 2 2.43 2.77 4.21.78 1.79 1.27 3.47 1.46 5.06.2 1.59.05 2.99-.45 4.2-.49 1.21-1.08 2.28-1.78 3.21-.69.93-1.74 1.84-3.14 2.71-2.18 1.37-4.81 2.72-7.89 4.06-5.45 2.38-10.66 3.89-15.62 4.53l-2.43-10.09c4.19-.47 8.45-1.64 12.76-3.52 1.98-.86 3.75-1.74 5.3-2.62l-.92-2.11c-7.04 3.06-12.3 4.25-15.76 3.57-3.47-.69-6.14-3.18-8.01-7.47-1.87-4.29-1.72-7.83.45-10.6zM96.1 289.72c8.42-7.7 17.04-14.44 25.63-21.16 3.54-2.76 7.08-5.54 10.85-8.57 6.71-5.4 13.14-11.21 19.58-17.03l.64-.58c5.75-4.81 10.57-8.68 15.41-10.3 5.52-1.85 10.59-.87 15.95 4.61 4.35 4.45 7.3 9.87 9.15 15.69 2.11 6.6 2.79 13.72 2.55 20.48-.2 5.59-1.1 11.14-2.69 16.4-1.56 5.19-3.79 10.14-6.67 14.63-10.55 16.48-30.92 23.95-49.77 24.1-7.68.05-15.14-1.1-21.6-3.35-6.66-2.32-12.3-5.83-16.13-10.41-5.07-6.05-6.97-13.8-3.98-22.96.21-.64.59-1.17 1.08-1.55z"/><path fill="#FFCC7B" d="M98.15 292.29c11.9-10.89 24.34-19.95 36.49-29.74 6.89-5.54 13.57-11.6 20.27-17.65 10.99-9.18 18.29-14.73 26.89-5.92 8.6 8.81 11.21 21.81 10.78 33.77-.38 10.47-3.38 20.83-8.85 29.36-23.12 36.1-97.32 26.07-85.58-9.82zm61.8-17.34c1.43 1.09 1.49 3.42.13 5.19-1.36 1.77-3.62 2.32-5.05 1.22-1.44-1.11-1.5-3.43-.14-5.2 1.36-1.77 3.63-2.32 5.06-1.21zM148.09 266c.53.4.55 1.26.05 1.92-.5.65-1.34.85-1.87.44-.53-.4-.55-1.26-.04-1.92.5-.65 1.33-.85 1.86-.44zm-6.16 13.81c1.04.8 1.08 2.48.09 3.77-.98 1.28-2.62 1.67-3.66.88-1.04-.8-1.08-2.49-.1-3.77.99-1.28 2.63-1.68 3.67-.88zm24.51 9.48c1.04.79 1.08 2.48.1 3.76-.99 1.28-2.63 1.68-3.66.88-1.04-.8-1.09-2.48-.1-3.77.98-1.28 2.62-1.67 3.66-.87zm12.69-9.45c1.07.82 1.12 2.57.1 3.9s-2.73 1.74-3.8.91c-1.08-.82-1.12-2.57-.1-3.9s2.72-1.74 3.8-.91zm-4.33-12.1c1.08.83 1.12 2.58.1 3.91s-2.72 1.74-3.8.91c-1.07-.82-1.12-2.57-.1-3.9s2.72-1.74 3.8-.92z"/></svg>