<svg id="Layer_1" data-name="Layer 1" xmlns="http://www.w3.org/2000/svg" viewBox="0 0 105.82 122.88"><title>break-time</title><path d="M4.63,42.82H71.16a4.61,4.61,0,0,1,3.26,1.37,4.55,4.55,0,0,1,1.37,3.26v4.92c13.42-.49,22.41,5.69,26.88,14.07a27.25,27.25,0,0,1,3.15,12.35,27.54,27.54,0,0,1-2.77,12.46c-4.29,8.8-13.38,15.59-27.26,15.54v3A13,13,0,0,1,71.94,119h0a13,13,0,0,1-9.23,3.85H13.08A13.11,13.11,0,0,1,0,109.8V47.45a4.64,4.64,0,0,1,4.63-4.63Zm34.45,39a4.79,4.79,0,0,1,1.11,1.09h7.72a2.68,2.68,0,1,1,0,5.35H40.19a4.6,4.6,0,1,1-6.48-6.37l.09-9a2.69,2.69,0,1,1,5.37,0l-.09,8.89ZM37.89,57.6A25.18,25.18,0,0,1,55.74,65h0a25.23,25.23,0,0,1,0,35.7h0a25.24,25.24,0,0,1-35.69,0h0A25.23,25.23,0,0,1,20,65h0A25.19,25.19,0,0,1,37.89,57.6ZM52.22,68.52a20.29,20.29,0,0,0-28.65,0h0a20.28,20.28,0,0,0,0,28.64h0A20.26,20.26,0,0,0,52.23,68.53ZM56.93,10a3.6,3.6,0,0,1,.72-5.26,4.16,4.16,0,0,1,5.59.68c3.4,4.15,2.06,8.36.52,13.2-1.31,4.11-2.83,8.88.22,13.41a3.64,3.64,0,0,1-1.23,5.19,4.16,4.16,0,0,1-5.52-1.16c-5-7.42-2.92-14-1.13-19.58.92-2.88,1.72-5.4.83-6.48ZM35.09,6A3.6,3.6,0,0,1,35.81.78a4.16,4.16,0,0,1,5.59.68c3.4,4.14,2.06,8.36.52,13.2-1.31,4.11-2.83,8.88.22,13.41a3.64,3.64,0,0,1-1.23,5.19,4.16,4.16,0,0,1-5.52-1.16c-5-7.42-2.92-14-1.13-19.58.92-2.89,1.72-5.4.83-6.48ZM13.25,10A3.6,3.6,0,0,1,14,4.78a4.16,4.16,0,0,1,5.59.68c3.4,4.14,2.06,8.36.52,13.2-1.31,4.11-2.83,8.89.22,13.41a3.64,3.64,0,0,1-1.23,5.19,4.16,4.16,0,0,1-5.52-1.16c-5-7.42-2.92-14-1.13-19.58.92-2.88,1.72-5.39.83-6.48ZM75.79,62.88V96.32c9,0,14.77-4.12,17.39-9.5a17.61,17.61,0,0,0,1.73-7.9,16.84,16.84,0,0,0-2-7.72c-2.69-5-8.4-8.74-17.17-8.32Zm-6.5-13.56H6.5V109.8a6.62,6.62,0,0,0,6.58,6.58H62.7a6.57,6.57,0,0,0,4.65-1.93h0a6.55,6.55,0,0,0,1.93-4.65V49.32Z"/></svg>