<svg id="Layer_1" data-name="Layer 1" xmlns="http://www.w3.org/2000/svg" viewBox="0 0 105.43 122.88"><title>coffee-mug</title><path d="M5.35,41.82H71.47a5.38,5.38,0,0,1,5.35,5.34v5.35c12.71-.23,21.25,5.72,25.53,13.74a26.44,26.44,0,0,1,3.08,12.07,27,27,0,0,1-2.7,12.18c-4.11,8.43-12.75,15-25.91,15.17v3.46a13.7,13.7,0,0,1-4,9.69l0,0a13.72,13.72,0,0,1-9.69,4H13.75A13.79,13.79,0,0,1,0,109.13v-62a5.34,5.34,0,0,1,5.35-5.34ZM52.81,67c2.7,2.7,2.67,15.16-4.41,22.24s-15.35,9.42-20.92,5.5c8.82-5.25,11.45-9.61,13.36-14.18S44.29,71,52.53,66.71c.09.08-2.42-2.44.28.26ZM25.88,93.3l-.41-.39c-5.32-5.32-3.66-15.59,3.7-22.94,6.93-6.93,16.44-8.8,22-4.55C42.29,69.87,39.91,73.62,38,78.28c-1.82,4.37-3.8,10-12.09,15ZM57.33,10A3.58,3.58,0,0,1,58,4.75a4.14,4.14,0,0,1,5.56.68c3.38,4.12,2.05,8.31.51,13.12-1.29,4.08-2.81,8.83.23,13.33A3.61,3.61,0,0,1,63.11,37a4.12,4.12,0,0,1-5.48-1.15c-5-7.38-2.9-13.88-1.13-19.46.92-2.87,1.71-5.36.83-6.44ZM35.62,6A3.57,3.57,0,0,1,36.33.78a4.13,4.13,0,0,1,5.56.67c3.38,4.12,2,8.31.52,13.12-1.3,4.08-2.81,8.83.22,13.33a3.59,3.59,0,0,1-1.23,5.15,4.12,4.12,0,0,1-5.48-1.15C31,24.53,33,18,34.8,12.44c.91-2.86,1.7-5.36.82-6.44ZM13.91,10a3.59,3.59,0,0,1,.72-5.23,4.14,4.14,0,0,1,5.56.68c3.37,4.12,2,8.31.51,13.12-1.3,4.08-2.81,8.83.22,13.33A3.6,3.6,0,0,1,19.7,37a4.12,4.12,0,0,1-5.48-1.15c-5-7.38-2.91-13.88-1.13-19.46.91-2.87,1.71-5.36.82-6.44ZM76.82,62V96.2c8.74-.2,14.38-4.36,17-9.71a17.9,17.9,0,0,0,1.78-8.06,17.25,17.25,0,0,0-2-7.88c-2.68-5-8.25-8.74-16.76-8.56ZM68.87,49.77H8v59.36a5.84,5.84,0,0,0,5.8,5.8H63.07a5.78,5.78,0,0,0,4.09-1.7h0a5.76,5.76,0,0,0,1.7-4.09V49.77Z"/></svg>