<svg id="Layer_1" data-name="Layer 1" xmlns="http://www.w3.org/2000/svg" viewBox="0 0 122.88 99.66"><title>coffee-cup</title><path d="M84.76,62a3.24,3.24,0,0,1,.66-.85c4.47-5.92,8-13.65,9.92-23.19a58.42,58.42,0,0,0,1.1-11.1v-.42c0-.12,0-.25,0-.38,0-1,0-2-.06-3a38.77,38.77,0,0,1-8.21,3.33C80.39,28.7,69.71,30.11,58,30.11s-22.4-1.41-30.19-3.69A37.73,37.73,0,0,1,19.39,23c0,1.1-.06,2.21-.05,3.31a58.24,58.24,0,0,0,1.3,11.6C24.1,53.84,31.78,64.71,41,70.57a31.38,31.38,0,0,0,34.66-.16A39,39,0,0,0,84.76,62ZM103,21.45c6.2-1.89,11-1.08,14.41,1.33a13.53,13.53,0,0,1,5.37,9.9,22.14,22.14,0,0,1-2.38,11.9c-4,7.9-12.62,14.92-25.95,15-.38.67-.77,1.31-1.17,1.94a56.63,56.63,0,0,1,14.32,5.68c5.21,3.14,8.17,7,8.17,11.32,0,6.53-7,12.07-18.29,15.76-10.19,3.32-24.2,5.38-39.6,5.38s-29.41-2.06-39.6-5.38C7,90.59,0,85.05,0,78.52c0-4.34,3-8.18,8.17-11.32a57.05,57.05,0,0,1,14.72-5.78,67.77,67.77,0,0,1-8.8-22.11,65.59,65.59,0,0,1-1.43-12.94,72.68,72.68,0,0,1,.73-11.09v-.23a6.33,6.33,0,0,1,.4-2.19,3.4,3.4,0,0,1,.77-1.51c2.07-3.13,6.75-5.77,13.23-7.67C35.58,1.41,46.26,0,58,0s22.41,1.41,30.2,3.68C95.13,5.72,100,8.6,101.81,12h0a3.25,3.25,0,0,1,.49,1.18,6,6,0,0,1,.28,1.83,3.17,3.17,0,0,1,0,.44c.21,2,.36,4,.45,6ZM97.85,52.68c8.41-1.08,13.93-5.82,16.56-11.08a15.42,15.42,0,0,0,1.72-8.26,6.9,6.9,0,0,0-2.59-5.11c-2.07-1.48-5.52-1.69-10.45.27a65.13,65.13,0,0,1-1.2,10.82,72.43,72.43,0,0,1-4,13.36ZM27.19,67.25c-6.5,1.5-11.85,3.45-15.57,5.69-3.13,1.89-4.91,3.8-4.91,5.58,0,3.29,5.22,6.64,13.65,9.39,9.55,3.12,22.81,5,37.53,5s28-1.92,37.53-5c8.44-2.75,13.66-6.1,13.66-9.39,0-1.78-1.79-3.7-4.92-5.59A55,55,0,0,0,89,67.35,44.73,44.73,0,0,1,79.3,76a38.12,38.12,0,0,1-41.89.22,45.33,45.33,0,0,1-10.22-9Zm-6.84-53c-.07.37-.13.74-.19,1.1.37,1.8,4,3.71,9.71,5.38C37,22.82,47,24.11,58,24.11s21-1.29,28.12-3.38c5.73-1.67,9.38-3.6,9.71-5.4l-.09-.88C95,12.74,91.47,11,86.1,9.38,79,7.29,69,6,58,6S37,7.29,29.87,9.38c-5.17,1.51-8.65,3.22-9.52,4.87Z"/></svg>