<svg id="Layer_1" data-name="Layer 1" xmlns="http://www.w3.org/2000/svg" viewBox="0 0 122.88 98.66"><title>cooking-bowl</title><path d="M37.69,90.9C25.91,87.23,17.51,82,11.51,74.24S2,56.17,0,42.27a2.24,2.24,0,0,1,.41-1.62c.1-4.89,1.28-8.59,3.67-11.52,2.2-2.7,5.35-4.62,9.57-6.12a13.08,13.08,0,0,1,3.54-7.72,15.81,15.81,0,0,1,8.72-4.54A31.52,31.52,0,0,1,41.67,2.26a33.54,33.54,0,0,1,19,1.32,2.24,2.24,0,0,1,.27.13c.58.26,1.58.76,2.5,1.22a1.1,1.1,0,0,1,.4.31A25.05,25.05,0,0,1,76.76.14,27,27,0,0,1,88.42,1.51a21.64,21.64,0,0,1,9.11,5.91,14.73,14.73,0,0,1,3.35,6.35c7.5,2.1,13.21,5.61,16.92,9.89a19.09,19.09,0,0,1,4.62,17,2.28,2.28,0,0,1-.18.52,2,2,0,0,1,.13.74,2.83,2.83,0,0,1,0,.29c-.62,10.74-4.06,21.58-11.64,30.65C104.26,80.63,94.83,87,81.62,91l-.06,0v6.72a1,1,0,0,1-1,1H39a1.22,1.22,0,0,1-1.21-1.22V90.93l-.08,0Zm52.5-56.2a2.38,2.38,0,1,1,0-4.76h5.64a2.38,2.38,0,0,1,0,4.76ZM88.77,18.23a2.37,2.37,0,1,1-1.94,4.33l-5.15-2.32a2.37,2.37,0,1,1,1.94-4.33l5.15,2.32ZM60.19,19.65A2.38,2.38,0,0,1,62,15.24l5.65,2.31A2.38,2.38,0,1,1,65.84,22l-5.65-2.3Zm-2,15.05a2.38,2.38,0,0,1,0-4.76h5.65a2.38,2.38,0,0,1,0,4.76ZM39,23.25A2.37,2.37,0,0,1,37,18.92l5.15-2.32a2.37,2.37,0,0,1,1.93,4.33L39,23.25ZM27.9,34.7a2.38,2.38,0,1,1,0-4.76h5.65a2.38,2.38,0,0,1,0,4.76Zm-22.67,5H117.78v0a14.51,14.51,0,0,0-3.57-12.92c-3.34-3.84-8.74-7-16-8.78a2.36,2.36,0,0,1-1.79-2.06A9.61,9.61,0,0,0,94,10.56,16.87,16.87,0,0,0,86.85,6a22.28,22.28,0,0,0-9.61-1.13A20.25,20.25,0,0,0,65.93,9.71a2.39,2.39,0,0,1-1.63.65,9.67,9.67,0,0,1-3-1.19L59.12,8.06,59,8A28.81,28.81,0,0,0,42.67,6.91a26.49,26.49,0,0,0-13.83,7.68,2.42,2.42,0,0,1-1.49.76,11,11,0,0,0-6.7,3.19,8.65,8.65,0,0,0-2.33,6.05A2.37,2.37,0,0,1,16.66,27c-4.14,1.3-7.06,2.88-8.88,5.1a12.85,12.85,0,0,0-2.55,7.62Zm101.1,11.45a1.66,1.66,0,1,1,3,1.33,63.33,63.33,0,0,1-6.31,11.22,1.66,1.66,0,0,1-2.72-1.92,59.26,59.26,0,0,0,3.24-5.14,59.72,59.72,0,0,0,2.74-5.49Zm-9.49,15.1a1.66,1.66,0,1,1,2.5,2.19c-1,1.14-2,2.23-3.09,3.24S94.13,73.66,93,74.55A1.66,1.66,0,1,1,91,71.94c1-.8,2-1.67,3-2.62s2-2,2.89-3ZM15,71.53c5.38,7,13,11.7,23.82,15.09H80.69C92.8,83,101.43,77.09,107.3,70.05a46.82,46.82,0,0,0,10.45-25.87H4.81C6.74,56,9.89,64.87,15,71.53Z"/></svg>