<svg xmlns="http://www.w3.org/2000/svg" shape-rendering="geometricPrecision" text-rendering="geometricPrecision" image-rendering="optimizeQuality" fill-rule="evenodd" clip-rule="evenodd" viewBox="0 0 202 511.53"><path fill="#F0BC13" d="M64.72 46.09h72.56c4.79 0 8.68 3.89 8.68 8.68v29.49c.44 3.78 5.74 6.84 12.4 10.67 16.94 9.76 39.8 22.94 43.3 68.02.44 5.61.45 11.27.04 16.83-.4 5.62-1.23 11.17-2.46 16.55-.61 2.68-2.41 4.78-4.72 5.89-1.51.91-2.46 2.55-2.9 4.39-.3 1.25-.37 2.62-.22 3.96.13 1.26.45 2.4.92 3.29.36.7.75 1.19 1.06 1.27 3.96.95 6.62 4.5 6.62 8.41h.03V356.2c0 3.64-2.25 6.76-5.43 8.05-4.4 2.25-3.71 10.01-2.06 13.75.75 1.68 1.73 3.01 2.84 3.59 2.94 1.55 4.62 4.56 4.63 7.67l.02 86.89c0 .65-.07 1.28-.21 1.89-2.59 16.69-12.99 26.97-25.15 31.25a39.632 39.632 0 0 1-15.87 2.14c-5.36-.37-10.61-1.86-15.26-4.41-3.69-2.03-7-4.69-9.68-7.96-8.33 8.18-20.16 12.17-31.91 12.36-5.48.08-10.96-.64-16.06-2.14-5.28-1.56-10.2-3.94-14.37-7.09a38.67 38.67 0 0 1-3.49-2.99c-2.67 3.21-5.93 5.82-9.57 7.82-4.65 2.55-9.9 4.04-15.26 4.41-5.28.37-10.73-.33-15.88-2.14C15 504.95 4.47 494.44 2.07 477.34c-.05-.4-.08-.8-.08-1.19l-.02-86.89a8.7 8.7 0 0 1 4.94-7.84c4.34-2.83 5.72-14.88.25-17.29a8.663 8.663 0 0 1-5.18-7.93l-.01-132.66c0-4.15 2.92-7.62 6.8-8.48.28-.17.6-.61.91-1.21.47-.89.78-2.02.92-3.28.15-1.34.08-2.71-.22-3.96-.47-1.94-1.51-3.68-3.17-4.55a8.571 8.571 0 0 1-4.43-5.73c-1.26-5.43-2.1-11.04-2.5-16.7-.39-5.64-.38-11.36.08-17.03 3.62-44.82 26.4-57.95 43.29-67.67 6.8-3.92 12.18-7.03 12.41-10.92l-.02-29.24c0-4.79 3.89-8.68 8.68-8.68zm0 8.68h72.56v29.24c.43 20.31 35.19 11.04 48.51 52.19l-171.54 1.13c13.33-41.17 50.04-33.01 50.47-53.32V54.77z"/><path fill="#F4DA3B" d="M137.28 84.01c.01.35.02.69.06 1.03-.03-.34-.05-.68-.06-1.03zm.07 1.16c.2 2.04.79 3.82 1.71 5.43-.92-1.54-1.52-3.31-1.71-5.43zm43.99 40.38c5.87 8.82 10.34 20.85 11.67 38.04.82 10.48.02 21.03-2.22 30.81-11.97 6.26-9.83 26.62.55 29.14V356.2c-12.72 5.62-10.55 27.49 0 33.06v86.89c-5.18 36.85-57.41 34.35-56.1 0-.08 5.24-1.86 9.84-4.75 13.65-16.76 22.12-63.27 14.89-63.73-13.65 1.31 34.35-50.92 36.85-56.1 0v-86.89c10.55-5.57 12.72-27.44 0-33.06V223.54c10.38-2.52 12.52-22.88.55-29.14-2.27-9.88-3.05-20.53-2.2-31.12.84-10.41 2.84-18.91 5.59-25.96l171.19-1.12c-1.3-4.01-2.8-7.53-4.45-10.65zM64.37 86.94c.05-.21.08-.43.13-.65-.05.22-.08.44-.13.65zm.17-.93c.04-.24.07-.49.1-.73-.03.24-.06.49-.1.73zm.12-.98z"/><path fill="#F2E2C2" d="M64.72 54.77h72.56v29.24c.43 20.31 35.19 11.04 48.51 52.19l-171.54 1.13c13.33-41.17 50.04-33.01 50.47-53.32V54.77z"/><path fill="#589D1A" fill-rule="nonzero" d="M143.14 60.1H58.86c-2.51 0-4.8-1.03-6.45-2.67a9.151 9.151 0 0 1-2.67-6.45V18.99c0-2.45.49-4.83 1.38-7.03.9-2.23 2.2-4.25 3.81-5.95l.38-.44c1.73-1.73 3.83-3.14 6.17-4.12C63.76.52 66.2 0 68.73 0h64.53c2.55 0 5 .52 7.25 1.46 2.33.97 4.44 2.39 6.17 4.12 1.75 1.78 3.16 3.87 4.12 6.18.94 2.25 1.46 4.7 1.46 7.24v31.98c0 2.51-1.03 4.8-2.68 6.45a9.11 9.11 0 0 1-6.44 2.67z"/><path fill="#64A81E" fill-rule="nonzero" d="M143.14 54.45h-.07V9.98c2.19 2.39 3.54 5.57 3.54 9.02v31.98c0 1.92-1.56 3.47-3.47 3.47zm-4.41 0h-5.66V5.65h.19c1.95 0 3.8.42 5.47 1.18v47.62zm-10 0h-5.67V5.65h5.67v48.8zm-10.01 0h-5.66V5.65h5.66v48.8zm-10.01 0h-5.66V5.65h5.66v48.8zm-10 0h-5.67V5.65h5.67v48.8zm-10.01 0h-5.66V5.65h5.66v48.8zm-10.01 0h-5.66V5.65h5.66v48.8zm-10 0h-5.66V6.93c1.72-.82 3.64-1.28 5.66-1.28v48.8zm-10.01 0a3.471 3.471 0 0 1-3.29-3.47V18.99c0-3.33 1.24-6.4 3.29-8.75v44.21z"/><path fill="#F0BC13" fill-rule="nonzero" d="M12.37 199.89c-3.12 0-5.64-2.53-5.64-5.65 0-3.12 2.52-5.64 5.64-5.64h176.11c3.12 0 5.65 2.52 5.65 5.64a5.65 5.65 0 0 1-5.65 5.65H12.37zm5.24-62.03c-1.64.73-3.56-.02-4.29-1.66a3.26 3.26 0 0 1 1.67-4.29c8.11-3.59 13.26-1.57 19.19.76 5.8 2.28 12.54 4.94 25.01.72 17.85-6.04 28.63-2.74 38.83.39 8.77 2.68 17.08 5.23 29.73.19 8.1-3.22 14.62-1.84 21.82-.32 4.01.85 8.25 1.75 12.92 1.78 2.7.01 6.04-.22 9.58-.6h.09c4.31-.46 8.93-1.14 13.1-1.83 1.77-.3 3.44.9 3.74 2.67.29 1.77-.91 3.44-2.68 3.74-4.24.7-8.97 1.4-13.47 1.88l-.09.01c-3.71.39-7.28.63-10.3.61-5.4-.03-9.95-.99-14.23-1.9-6.2-1.31-11.83-2.5-18.09-.01-14.77 5.88-24.14 3.01-34.02-.02-9.22-2.83-18.96-5.81-34.84-.43-14.72 4.98-22.65 1.86-29.46-.82-4.59-1.81-8.56-3.37-14.21-.87zM8.77 333.97h184.46v11.06H8.77v-11.06zm0-99.19h184.46v11.06H8.77v-11.06zm2.71 160.05c-3.12 0-5.64-2.52-5.64-5.64 0-3.12 2.52-5.65 5.64-5.65h179.03a5.65 5.65 0 0 1 5.65 5.65c0 3.12-2.53 5.64-5.65 5.64H11.48z"/></svg>