<svg xmlns="http://www.w3.org/2000/svg" shape-rendering="geometricPrecision" text-rendering="geometricPrecision" image-rendering="optimizeQuality" fill-rule="evenodd" clip-rule="evenodd" viewBox="0 0 350 512.24"><path d="m246.42 293.15 36.13-.76-4.51-163.86c-9.51 21.63-17.07 42.96-22.42 63.82-6.35 24.73-9.57 48.77-9.21 71.84l.01 28.96zM136.91 49.06h81.22c9.29 0 17.75 3.81 23.9 9.95l.05.05c6.13 6.15 9.93 14.6 9.93 23.88 0 9.29-3.81 17.75-9.94 23.9l-.06.05c-6.14 6.13-14.6 9.93-23.88 9.93h-81.22c-9.29 0-17.75-3.81-23.9-9.94l-.05-.06c-6.13-6.14-9.93-14.6-9.93-23.88 0-9.29 3.81-17.75 9.95-23.9l.05-.05c6.15-6.13 14.6-9.93 23.88-9.93zm81.22 16.8h-81.22c-4.71 0-8.98 1.91-12.05 4.99l-.04.03a17.012 17.012 0 0 0-4.99 12.06c0 4.71 1.91 8.98 4.99 12.06l.04.03c3.07 3.08 7.34 4.99 12.05 4.99h81.22c4.71 0 8.98-1.91 12.06-4.99l.03-.03c3.08-3.08 4.99-7.35 4.99-12.06 0-4.71-1.91-8.98-4.99-12.06l-.03-.03a17.012 17.012 0 0 0-12.06-4.99zm71.34-21.88c3.79 6.29 8.17 11.45 13.36 15.01 5.08 3.47 11.09 5.51 18.31 5.68v-.03c7.92 0 15.13 3.25 20.35 8.47h.04c5.22 5.23 8.47 12.45 8.47 20.39v354.84c0 7.94-3.25 15.16-8.47 20.39-5.23 5.22-12.45 8.47-20.39 8.47h-14.83c-.01-5.61.04-11.24.02-16.8h14.81c3.3 0 6.32-1.37 8.51-3.55 2.18-2.19 3.55-5.21 3.55-8.51V93.5c0-3.3-1.37-6.32-3.55-8.51a11.96 11.96 0 0 0-8.51-3.55v-.03h-.17c-10.8-.21-19.87-3.29-27.59-8.58-7.51-5.14-13.58-12.28-18.64-20.8-.22-.4-.42-.81-.59-1.25-4.15-10.66-9.93-18.94-17.51-24.61-7.39-5.54-16.73-8.73-28.17-9.37H118.84c-9.85 1.64-18.06 4.62-24.38 9.1-6.1 4.32-10.52 10.17-13.08 17.74l-.11.33c-4.31 11.91-10.82 21.11-19.6 27.47-8.6 6.23-19.2 9.58-31.87 9.95l-.94.05c-3.32 0-6.34 1.35-8.51 3.52l-.03.04a11.994 11.994 0 0 0-3.52 8.5v354.84c0 3.15 1.22 6.03 3.21 8.18l.34.33c2.19 2.18 5.2 3.55 8.51 3.55h199.37l-.16 16.8H28.86c-7.94 0-15.16-3.25-20.39-8.47l-.5-.54C3.04 463 0 456 0 448.34V93.5c0-7.9 3.24-15.11 8.47-20.35l.06-.05c5.24-5.22 12.43-8.46 20.33-8.46l.53.02c9.12-.27 16.58-2.57 22.44-6.81 6-4.34 10.55-10.91 13.69-19.59 3.74-11.07 10.25-19.65 19.23-26.01C93.41 6.1 104.29 2.15 117.1.13c.43-.07.86-.1 1.28-.1V0h109.9c.37 0 .73.02 1.08.07 14.86.82 27.24 5.16 37.32 12.71 9.99 7.47 17.51 17.96 22.79 31.2zm-41.11 257.39-1.05 110.85L287.55 423l3.28-125.86c.05-.26.07-.52.06-.8l-5.11-185.68a4.126 4.126 0 0 0-4.23-4c-1.59.05-2.94.98-3.6 2.32-13.24 27.62-23.53 54.84-30.33 81.31-6.51 25.4-9.82 50.14-9.47 73.95v33.12c0 2.29 1.85 4.14 4.13 4.14l6.08-.13zm-1.15 120.65-.16 17.1L287.67 450l-.08-17.16-40.38-10.82zm-.25 26.9-.46 47.73c2.84 15.67 28.83 22.39 38.38 6.48 3.42-5.7 2.98-9.79 2.95-16.18l-.12-27.11-40.75-10.92z"/></svg>