<svg id="Layer_1" data-name="Layer 1" xmlns="http://www.w3.org/2000/svg" viewBox="0 0 122.88 89.08"><defs><style>.cls-1{fill-rule:evenodd;}</style></defs><title>dog food</title><path class="cls-1" d="M74.17,55a8.07,8.07,0,0,1,3.41,3.5A17.76,17.76,0,0,1,79,62a.67.67,0,0,1-.47.81,1.84,1.84,0,0,0-.81.7,3,3,0,0,0-.55,1.32l0,.72c0,2-.1,5.73-2,5.81a2.3,2.3,0,0,1-1.93-1.19,9.89,9.89,0,0,1-3.51,6,3.76,3.76,0,0,1-.48,1.61,6.52,6.52,0,0,1-2.68,2.94,5.7,5.7,0,0,1-5,2.2c-3.3-.07-4.84-1.3-5.54-2.5a6.89,6.89,0,0,1-2.19-2.64,3.64,3.64,0,0,1-.48-1.65,10,10,0,0,1-3.49-6,2.31,2.31,0,0,1-2,1.23c-1.94-.08-2-3.85-2-5.81l0-.72a3,3,0,0,0-.55-1.32,1.84,1.84,0,0,0-.81-.7A.66.66,0,0,1,43.9,62a17.76,17.76,0,0,1,1.4-3.54A8.11,8.11,0,0,1,48.7,55a6.13,6.13,0,0,1,4.46-.32,9.59,9.59,0,0,1,2,.85l.06,0c.32,0,.67.1,1.29.11,1.64,0,1.68-.75,4.95-.73,3.06,0,3.58.78,5,.74.48,0,.81-.08,1.1-.1l.07,0a9.88,9.88,0,0,1,2-.85,6.1,6.1,0,0,1,4.45.32ZM62.83,24.3a4.4,4.4,0,1,1-4.39,4.4,4.4,4.4,0,0,1,4.39-4.4Zm47.83,8.41c1.06,2.64,2.66,6.41,4.42,10.33,1.44,3.2,3,6.49,4.4,9.34,1.64,3.27,3.06,6.38,3.35,9.67.3,3.49-.64,7-3.83,10.73-4.11,4.79-11.41,8.61-20.79,11.34S76.9,88.57,64.12,89c-1,0-1.93,0-2.68,0s-1.63,0-2.67,0c-12.78-.46-24.56-2.14-34.1-4.91C15.29,81.39,8,77.57,3.88,72.78.69,69-.25,65.54.05,62.05c.29-3.29,1.71-6.4,3.35-9.67,1.43-2.85,3-6.14,4.4-9.34,1.76-3.92,3.36-7.69,4.42-10.33a2.22,2.22,0,0,1,2.15-1.38,12.62,12.62,0,0,1,2.57-5.6,16.48,16.48,0,0,1,7.44-4.82c.63-4.56,4-7.78,7-10.64.77-.74,1.52-1.45,2.17-2.15A24.7,24.7,0,0,1,46.49.89a26.55,26.55,0,0,1,15.07,1c.32.12,1.31.63,2.2,1.08a.45.45,0,0,1,.17.11,16,16,0,0,1,7.93-3,20.11,20.11,0,0,1,9.92,1.64,22.19,22.19,0,0,1,7.9,5.64,15,15,0,0,1,3.48,6.45,19.75,19.75,0,0,1,7.57,4.88l.12.14a24.73,24.73,0,0,1,4.15,6.9,17.32,17.32,0,0,0,1.84,2.63,28.22,28.22,0,0,1,2.13,3l.13,0a2.2,2.2,0,0,1,1.56,1.32ZM72.31,4.47A11.57,11.57,0,0,0,65.75,7.3a2.19,2.19,0,0,1-1.51.59,7.46,7.46,0,0,1-2.46-1C61,6.54,60.16,6.11,60,6.05a22.09,22.09,0,0,0-12.57-.86A20.36,20.36,0,0,0,36.78,11.1c-.7.76-1.52,1.54-2.37,2.36C31.74,16,28.7,18.91,28.66,22.4a2.18,2.18,0,0,1-1.54,2.23c-3.17,1-5.4,2.19-6.77,3.88-1.25,1.53-1.88,3.6-2,6.44a14.81,14.81,0,0,0,4.47,4.26,38.46,38.46,0,0,0,9.39,4.2,3.45,3.45,0,1,1,3.79,1.05,104.18,104.18,0,0,0,23.4,2.73c14.65.15,29.66-2.27,39.12-7.46a21.67,21.67,0,0,0,6.93-5.6,21.14,21.14,0,0,0-2.14-3.06A19.41,19.41,0,0,1,101,27.55a21.39,21.39,0,0,0-3.38-5.75l-.1-.1a16.48,16.48,0,0,0-7-4.16A2.21,2.21,0,0,1,89,15.66a9.92,9.92,0,0,0-2.63-5.38,17.82,17.82,0,0,0-6.32-4.5,15.68,15.68,0,0,0-7.75-1.31Zm38.76,40.36c-1-2.14-1.87-4.23-2.68-6.11-2.88,3.55-8,6.39-14.39,8.49-8,2.61-18.07,4.15-28.43,4.54a120.19,120.19,0,0,1-29.94-2.42c-9.37-2.12-17.07-5.65-21.08-10.76-.82,1.92-1.75,4.06-2.74,6.26-1.43,3.19-3,6.53-4.49,9.52-1.42,2.84-2.65,5.51-2.87,8.08-.21,2.37.47,4.8,2.77,7.49,3.53,4.12,10.1,7.49,18.67,10,9.19,2.67,20.6,4.29,33,4.74.73,0,1.56,0,2.52,0s1.8,0,2.52,0c12.43-.45,23.84-2.07,33-4.74,8.57-2.49,15.14-5.86,18.67-10,2.3-2.69,3-5.12,2.77-7.49-.22-2.57-1.45-5.24-2.87-8.08-1.5-3-3.06-6.33-4.49-9.52ZM55.31,11.91a3.45,3.45,0,1,1-3.44,3.44,3.45,3.45,0,0,1,3.44-3.44ZM85.37,30A4.39,4.39,0,1,1,81,34.42,4.4,4.4,0,0,1,85.37,30ZM74.17,11.45a3.26,3.26,0,0,1,4.37,1.46c.81,1.61.15,6.72-1.45,7.53s-3.57-3-4.38-4.61a3.27,3.27,0,0,1,1.46-4.38Zm-37.51,9.6a3.36,3.36,0,0,1,4.51,1.5c.83,1.67,1.61,3.75-.06,4.58s-5.13.1-6-1.57a3.36,3.36,0,0,1,1.51-4.51ZM48.27,35.73A2.28,2.28,0,1,1,46,38a2.28,2.28,0,0,1,2.27-2.28ZM56.13,63.6a.88.88,0,1,1-.87.88.87.87,0,0,1,.87-.88Zm7.65,11.22a5.68,5.68,0,0,1-2.33,1.51,6.3,6.3,0,0,1-2.28-1.48c-.39-.43-.56-.59-.5-1.17a1.73,1.73,0,0,1,.54-1.11,4,4,0,0,1,4.39,0,1.69,1.69,0,0,1,.58,1,1.27,1.27,0,0,1-.4,1.29Zm3-11.22a.88.88,0,1,0,.87.88.87.87,0,0,0-.87-.88Zm2.87-7.54c2.34,1.51,2.72,4.78,3.07,7.74a25.8,25.8,0,0,0,.47,3,9.18,9.18,0,0,0,1,2.62c.26.38.54.66.81.65.7,0,.75-3,.77-4.51l0-.77a4.41,4.41,0,0,1,.8-2,3.87,3.87,0,0,1,.92-.93,14.65,14.65,0,0,0-1.13-2.72,6.73,6.73,0,0,0-2.82-3,4.83,4.83,0,0,0-3.51-.23l-.44.14ZM50.16,63.8c.35-3,.74-6.23,3.08-7.74l-.44-.14a4.83,4.83,0,0,0-3.51.23,6.68,6.68,0,0,0-2.82,3,15.35,15.35,0,0,0-1.14,2.72,3.74,3.74,0,0,1,.93.93,4.38,4.38,0,0,1,.79,2l0,.77c0,1.53.08,4.48.78,4.51.27,0,.55-.27.8-.65a9,9,0,0,0,1.05-2.62,23.91,23.91,0,0,0,.46-3Zm6-1.47h0a2.13,2.13,0,0,1,2.12,2.12v.7a2.13,2.13,0,0,1-2.12,2.12h0A2.12,2.12,0,0,1,54,65.15v-.7a2.12,2.12,0,0,1,2.12-2.12Zm5.31,16.73h0c2.74,1.35,4.91.85,6.35-2a1.87,1.87,0,0,0,0-2.12l-.38-.73Q66.16,72,64.69,69.78a5.5,5.5,0,0,0-1.82-2,3.21,3.21,0,0,0-1.43-.34A3.29,3.29,0,0,0,60,67.8a5.56,5.56,0,0,0-1.81,2,50.16,50.16,0,0,0-2.68,4.46l-.38.73a1.87,1.87,0,0,0,0,2.12c1.44,2.82,3.61,3.32,6.35,2Zm5.33-16.73h0a2.14,2.14,0,0,0-2.13,2.12v.7a2.13,2.13,0,0,0,2.13,2.12h0a2.13,2.13,0,0,0,2.12-2.12v-.7a2.13,2.13,0,0,0-2.12-2.12Z"/></svg>