<svg id="Layer_1" data-name="Layer 1" xmlns="http://www.w3.org/2000/svg" viewBox="0 0 122.88 85.42"><defs><style>.cls-1{fill-rule:evenodd;}</style></defs><title>dog-bowl</title><path class="cls-1" d="M110.83,33c2.08,5.07,5.61,13.14,8.77,19.45s5.5,10.16-.19,16.82c-8.09,9.45-29.67,15.14-55.27,16.06-1.84.07-3.55.07-5.39,0-25.61-.92-47.19-6.61-55.28-16.06C-2.22,62.64.1,58.83,3.27,52.49c3.07-6.12,6.49-13.9,8.59-19A8.15,8.15,0,0,1,11.72,32a10.11,10.11,0,0,1,.57-3.37,11.05,11.05,0,0,1,1.8-3.2,2.34,2.34,0,0,1,1.65-.84l.46-.31c1.74-1,3.94-1.08,6.75-.33a31.77,31.77,0,0,1,5.66-13.85,24.83,24.83,0,0,1,11.2-8.39l.13-.05A28.13,28.13,0,0,1,52.61.16h.08a26.53,26.53,0,0,1,11,3.66A17,17,0,0,1,71.91.77,21.53,21.53,0,0,1,82.48,2.51a23.86,23.86,0,0,1,8.41,6,16.36,16.36,0,0,1,3.5,6.11c.43,0,.85,0,1.25,0a12.39,12.39,0,0,1,11.08,8.63,2.31,2.31,0,0,1,.88.51,9.76,9.76,0,0,1,2.71,4.08A12.8,12.8,0,0,1,110.9,32a8.74,8.74,0,0,1-.07,1ZM61.88,28.41a3.65,3.65,0,1,1-3.65,3.65,3.65,3.65,0,0,1,3.65-3.65ZM55.63,18.12A2.86,2.86,0,1,1,52.77,21a2.86,2.86,0,0,1,2.86-2.86ZM82.88,33.17a3.65,3.65,0,1,1-3.64,3.64,3.64,3.64,0,0,1,3.64-3.64Zm-9.3-15.43A2.71,2.71,0,0,1,77.21,19c.67,1.34.13,5.58-1.21,6.25s-3-2.49-3.63-3.83a2.7,2.7,0,0,1,1.21-3.63Zm-36.87,8A2.8,2.8,0,0,1,40.46,27c.69,1.38,1.33,3.11-.05,3.8s-4.26.08-4.95-1.3a2.79,2.79,0,0,1,1.25-3.75ZM46.35,37.9a1.89,1.89,0,1,1-1.89,1.89,1.89,1.89,0,0,1,1.89-1.89Zm26-32.47a12.33,12.33,0,0,0-7,3.06,2.36,2.36,0,0,1-3,.11A21,21,0,0,0,52.17,4.82h-.05A23.48,23.48,0,0,0,41.57,6.07l-.11,0a20.22,20.22,0,0,0-9.11,6.82c-2.6,3.47-4.48,8.19-5.14,14.38a2,2,0,0,1-.14.57,2.34,2.34,0,0,1-3,1.37c-2.8-1.06-4.6-1.44-5.44-.93s-1.06,1.85-1.1,4.46C23.91,43,51.25,46.92,73.69,45.11a88.66,88.66,0,0,0,17.14-2.93c4.72-1.39,8.48-3.17,10.7-5.33A5.61,5.61,0,0,0,103,30.08a2.43,2.43,0,0,1-.24-1.23,11.13,11.13,0,0,0,0-2.32,8.55,8.55,0,0,0-2.31-4.93,8,8,0,0,0-5.09-2.25,12,12,0,0,0-2.38.06l-.16,0a2.33,2.33,0,0,1-2.56-2.09,10.66,10.66,0,0,0-2.81-5.72,19,19,0,0,0-6.72-4.8,16.79,16.79,0,0,0-8.26-1.39Zm-41,57.84a5.35,5.35,0,1,1,8.13-7l2.94,3.46h38l2.94-3.46a5.35,5.35,0,0,1,8.13,7l-1.75,2.06,1.33,1.23a5.34,5.34,0,0,1-7.28,7.81l-4.19-3.89H43.24l-4.19,3.89a5.34,5.34,0,0,1-7.27-7.81l1.32-1.23-1.75-2.06Z"/></svg>