<svg id="Layer_1" data-name="Layer 1" xmlns="http://www.w3.org/2000/svg" viewBox="0 0 122.88 122.88"><defs><style>.cls-1{fill:#fff;}.cls-2{fill:#fdbd1f;fill-rule:evenodd;}.cls-3{fill:#d92d27;}</style></defs><title>egg-free</title><path class="cls-1" d="M22.29,98.61,98.61,22.29A54,54,0,0,0,22.29,98.61Z"/><path class="cls-1" d="M103.65,27.79,27.79,103.65a54,54,0,0,0,75.86-75.86Z"/><path class="cls-1" d="M107.62,28.72l-78.91,78.9A56.56,56.56,0,0,0,118,61.44h0a56.21,56.21,0,0,0-10.42-32.72ZM18.42,98.23l79.81-79.8a56.6,56.6,0,0,0-79.81,79.8Z"/><path d="M60.61,21c5.38,0,10.24,2.2,14.45,5.86,5.32,4.63,9.6,11.64,12.53,19.45A70.26,70.26,0,0,1,92.1,70.37c0,8.54-1.94,16.25-6.22,21.17h0c-.53.61-1.09,1.19-1.68,1.76-5.79,5.52-14,8.36-22.07,8.58S45.89,99.7,40.2,94.76l-.11-.11a20.17,20.17,0,0,1-1.48-1.42c-5.46-5.72-7.83-14.54-7.83-24.08A68.88,68.88,0,0,1,35,45.93c2.72-7.43,6.64-14.08,11.39-18.6,4.15-4,9-6.36,14.2-6.36Zm-17,31.83a1.73,1.73,0,0,1-2.06,1.14,1.56,1.56,0,0,1-1.25-1.88,42.89,42.89,0,0,1,3.39-8.63,34.22,34.22,0,0,1,4.94-7.13A1.83,1.83,0,0,1,51,36.1a1.45,1.45,0,0,1,.22,2.18,31.15,31.15,0,0,0-4.48,6.48,39.74,39.74,0,0,0-3.15,8ZM55.12,34.87a1.81,1.81,0,0,1-2.38-.33,1.47,1.47,0,0,1,.37-2.17,21,21,0,0,1,2-1.16,17.91,17.91,0,0,1,2-.9,1.77,1.77,0,0,1,2.22.85,1.51,1.51,0,0,1-.94,2,14.83,14.83,0,0,0-1.66.73,17.7,17.7,0,0,0-1.63,1Zm17.16-5.39c-3.47-3-7.41-4.84-11.67-4.84-4,0-7.88,2-11.29,5.21C45,34,41.37,40.14,38.83,47.08a65.65,65.65,0,0,0-4,22.07c0,8.72,2.08,16.7,6.84,21.69.41.43.82.82,1.22,1.18l.11.08c4.89,4.26,11.94,6.32,19,6.13s14.24-2.65,19.26-7.44c.5-.48,1-1,1.45-1.52,3.68-4.22,5.34-11.12,5.34-18.9a66.94,66.94,0,0,0-4.29-22.91c-2.74-7.29-6.67-13.78-11.5-18Z"/><path class="cls-2" d="M61.44,52.15A18.32,18.32,0,1,1,43.12,70.47,18.32,18.32,0,0,1,61.44,52.15ZM49.66,75.63a1.39,1.39,0,1,1-2.57,1.05A15.78,15.78,0,0,1,46.63,66a14.35,14.35,0,0,1,6.42-8.19,1.39,1.39,0,1,1,1.4,2.41,11.57,11.57,0,0,0-5.16,6.61,13.07,13.07,0,0,0,.37,8.82Z"/><path class="cls-3" d="M61.44,0A61.44,61.44,0,1,1,18,18,61.21,61.21,0,0,1,61.44,0Zm42.21,27.79L27.79,103.65a54,54,0,0,0,75.86-75.86ZM22.29,98.61,98.61,22.29A54,54,0,0,0,22.29,98.61Z"/></svg>