<svg id="Layer_1" data-name="Layer 1" xmlns="http://www.w3.org/2000/svg" viewBox="0 0 93.76 122.88"><title>egg-shape</title><path d="M45.63,0C54,0,61.47,3.38,68,9c8.08,7,14.56,17.65,19,29.46A106.07,106.07,0,0,1,93.76,74.8c0,13-3,24.71-9.53,32.23-.85,1-1.72,1.89-2.58,2.71-8.85,8.45-21.31,12.78-33.71,13.12s-24.82-3.34-33.53-10.92c-.84-.73-1.66-1.52-2.45-2.34C3.63,100.86,0,87.45,0,73A104,104,0,0,1,6.4,38C10.52,26.72,16.46,16.66,23.66,9.79,30.06,3.68,37.49,0,45.63,0ZM62.39,14.33c-5-4.36-10.67-7-16.76-7-5.75,0-11.23,2.82-16.13,7.5C23.12,20.94,17.79,30,14,40.26A97.22,97.22,0,0,0,8.08,73c0,12.83,3,24.53,10,31.81q.9.95,1.92,1.83c7.11,6.19,17.39,9.19,27.75,8.9s20.78-3.86,28.09-10.84c.77-.74,1.48-1.47,2.11-2.19,5.34-6.13,7.76-16.26,7.76-27.7a99.09,99.09,0,0,0-6.37-34c-4-10.77-9.83-20.34-16.92-26.51Z"/></svg>