<svg id="Layer_1" data-name="Layer 1" xmlns="http://www.w3.org/2000/svg" viewBox="0 0 122.88 122.88"><defs><style>.cls-1{fill:#fff;}.cls-2{fill:#fdbd1f;fill-rule:evenodd;}.cls-3{fill:#d92d27;}</style></defs><title>eggless</title><path class="cls-1" d="M22.29,98.61,98.61,22.29A54,54,0,0,0,22.29,98.61Zm81.36-70.82L27.79,103.65a54,54,0,0,0,75.86-75.86Z"/><path d="M58.23,25.24A19.94,19.94,0,0,1,69.56,26.9a20.91,20.91,0,0,1,8.66,7.74c2.91,4.5,7.19,7.71,10.93,10.52,1.36,1,2.66,2,3.75,2.9a17.21,17.21,0,0,1,6.12,11A20.63,20.63,0,0,1,96.28,72,18.91,18.91,0,0,1,90,78.64a18.77,18.77,0,0,0-3.6,3.13A25.81,25.81,0,0,0,83.14,87c-2.29,4.39-4.35,8.32-12.47,10.33a19.2,19.2,0,0,1-10.31-.41,25,25,0,0,1-9.59-5.64L50,90.49c-4.13-4.09-7.39-7.33-12.44-10.36L35.66,79c-2.91-1.69-5.41-3.15-7.48-5.53a15.73,15.73,0,0,1-2.65-4.31,25,25,0,0,1-1.57-6,21.58,21.58,0,0,1,2.37-14A29.37,29.37,0,0,1,36,39.36a51.3,51.3,0,0,0,6.39-5.31c4.32-4,8.36-7.75,15.89-8.81Zm9.59,5.35a15.88,15.88,0,0,0-9-1.3c-6.25.88-9.83,4.2-13.67,7.75a54.28,54.28,0,0,1-6.9,5.71,25.41,25.41,0,0,0-8.32,8.47A17.52,17.52,0,0,0,28,62.61a20.79,20.79,0,0,0,1.29,5,11.8,11.8,0,0,0,2,3.21c1.62,1.86,3.86,3.16,6.45,4.67l1.94,1.14c5.48,3.29,8.9,6.68,13.22,11l.7.69a20.68,20.68,0,0,0,8,4.71,15.19,15.19,0,0,0,8.13.36c6.35-1.57,8-4.73,9.83-8.25a30.63,30.63,0,0,1,3.8-6,22.6,22.6,0,0,1,4.31-3.78A15.44,15.44,0,0,0,92.73,70,16.65,16.65,0,0,0,95,59.6a13.16,13.16,0,0,0-4.7-8.41c-1.12-.94-2.31-1.83-3.56-2.77-4-3-8.63-6.47-11.93-11.58a16.87,16.87,0,0,0-7-6.25Z"/><path class="cls-2" d="M61.44,44.55A16.89,16.89,0,1,1,44.55,61.44,16.89,16.89,0,0,1,61.44,44.55Zm-10,21.69a1.28,1.28,0,1,1-2.37,1,14.43,14.43,0,0,1-1-6.43,14.2,14.2,0,0,1,1.86-6.23,1.28,1.28,0,1,1,2.22,1.27,11.72,11.72,0,0,0-1.52,5.12,12.1,12.1,0,0,0,.86,5.3ZM54.3,53.11a1.28,1.28,0,0,1-1.68-1.94,11.27,11.27,0,0,1,.92-.73l.08,0c.3-.21.61-.41.92-.59A1.28,1.28,0,1,1,55.83,52c-.25.14-.49.3-.72.46l-.07.05c-.27.2-.52.39-.74.58Z"/><path class="cls-3" d="M61.44,0A61.44,61.44,0,1,1,18,18,61.21,61.21,0,0,1,61.44,0Zm42.21,27.79L27.79,103.65a54,54,0,0,0,75.86-75.86ZM22.29,98.61,98.61,22.29A54,54,0,0,0,22.29,98.61Z"/></svg>