<svg id="Layer_1" data-name="Layer 1" xmlns="http://www.w3.org/2000/svg" viewBox="0 0 120.76 122.88"><title>food-grade</title><path d="M.9,117.58c7.24-.32,12.93-1.61,17.39-3.87a23.26,23.26,0,0,0,9.86-9.38C31.82,98,31.61,90.94,31.4,83.58l-.09-3.14c-8.93-1.15-15.85-3.85-20.88-8.1C4.84,67.62,1.65,61.1.7,52.81-.86,39.3.68,14.87.68,0h84v52.8l-.1.35c-2,7.69-5.66,14-11.47,18.77-5.29,4.31-12.34,7.21-21.59,8.47l-.08,3c-.21,7.39-.43,15.39,2.74,21.26A21.2,21.2,0,0,0,64.06,114c4.53,2.15,10.23,3.28,17.16,3.58l-.23,5.3c-7.64-.33-14-1.62-19.19-4.08a26.39,26.39,0,0,1-12.28-11.57c-3.83-7.1-3.59-15.84-3.36-23.93,0-1.62.09-3.23.09-5.24v-2.4l2.39-.24c9.34-1,16.21-3.57,21.15-7.59,4.77-3.89,7.81-9.19,9.58-15.66V5.36H6v47c.82,6.83,3.39,12.14,7.86,15.91,4.63,3.91,11.35,6.29,20.32,7.13l2.42.23v2.41c0,2.12,0,3.76.1,5.38.24,8.12.46,15.92-4,23.55a28.41,28.41,0,0,1-12.06,11.46c-5.13,2.6-11.53,4.08-19.55,4.43l-.23-5.3ZM120.63,0c0,12.94.31,26.18,0,39.08a7.23,7.23,0,0,1-.73,3.75A21.87,21.87,0,0,1,114.33,51,17.66,17.66,0,0,1,108,54.65v67.54H102.7V50.48l2.11-.45a12.86,12.86,0,0,0,6-3A16.63,16.63,0,0,0,115,40.84a3.36,3.36,0,0,0,.34-1.76c0-13,0-26,0-39.08ZM108.89,0V31.88h-5.33V0ZM97.15,0V31.88H91.82V0Z"/></svg>