<svg xmlns="http://www.w3.org/2000/svg" shape-rendering="geometricPrecision" text-rendering="geometricPrecision" image-rendering="optimizeQuality" fill-rule="evenodd" clip-rule="evenodd" viewBox="0 0 512 344.54"><path d="M108.37 151.35h295.26c4.1 0 7.63-1.65 10.29-4.31 3.08-3.08 5.09-7.47 5.63-12.33l10.22-90.74H82.23l10.22 90.74c.54 4.85 2.55 9.25 5.63 12.33 2.66 2.66 6.19 4.31 10.29 4.31zm-20.8 178.92h336.85c4.99 0 9.25-1.99 12.44-5.18 3.67-3.67 6.07-8.91 6.72-14.71l11.78-103.96H56.64l11.77 103.96c.66 5.77 3.05 11 6.73 14.68 3.21 3.21 7.48 5.21 12.43 5.21zm336.85 14.27H87.57c-9.01 0-16.73-3.59-22.53-9.39-5.93-5.93-9.77-14.2-10.79-23.21L42.26 206.08H24.74C11.13 206.08 0 194.95 0 181.34c0-13.61 11.13-24.75 24.74-24.75h62.72c-5.04-5.29-8.3-12.5-9.18-20.32l-10.46-92.9H53.29c-11.93 0-21.69-9.75-21.69-21.68S41.36 0 53.29 0h405.42c11.93 0 21.69 9.76 21.69 21.69 0 11.93-9.76 21.68-21.69 21.68h-14.53l-10.46 92.9c-.88 7.83-4.14 15.03-9.17 20.32h62.71c13.61 0 24.74 11.14 24.74 24.75s-11.13 24.74-24.74 24.74h-17.52l-11.99 105.86c-1.02 9-4.86 17.26-10.79 23.19-5.81 5.81-13.54 9.41-22.54 9.41z"/></svg>