<svg xmlns="http://www.w3.org/2000/svg" shape-rendering="geometricPrecision" text-rendering="geometricPrecision" image-rendering="optimizeQuality" fill-rule="evenodd" clip-rule="evenodd" viewBox="0 0 512 188.95"><path d="M87.57 172.67h336.85c4.68 0 8.71-1.89 11.74-4.92 3.51-3.51 5.8-8.53 6.43-14.07l11.65-103.51H57.75l11.66 103.51c.62 5.53 2.92 10.55 6.43 14.07 3.04 3.03 7.06 4.92 11.73 4.92zM24.74 0h462.52C500.87 0 512 11.13 512 24.74c0 13.61-11.13 24.74-24.74 24.74h-16.58l-11.93 105.98c-1.04 9.24-4.98 17.72-11.07 23.81-5.98 5.98-13.95 9.68-23.26 9.68H87.57c-9.3 0-17.27-3.7-23.25-9.68-6.08-6.09-10.03-14.58-11.07-23.81L41.32 49.48H24.74C11.13 49.48 0 38.35 0 24.74 0 11.13 11.13 0 24.74 0z"/></svg>