<svg xmlns="http://www.w3.org/2000/svg" shape-rendering="geometricPrecision" text-rendering="geometricPrecision" image-rendering="optimizeQuality" fill-rule="evenodd" clip-rule="evenodd" viewBox="0 0 512 489.41"><path d="M12.01 286.26h15.44V123.12c-2.21-1.64-4.3-3.45-6.25-5.39-10.02-9.99-16.24-23.81-16.24-39.01V57.29l.02-.53c.04-1.39.53-2.78 1.51-3.92l43.4-50.63A6.324 6.324 0 0 1 54.67.02L453.85 0c2.05 0 3.87.98 5.03 2.5l46.46 50.17a6.267 6.267 0 0 1 1.65 3.83c.04.26.05.52.05.79v21.43c0 15.18-6.22 28.99-16.22 39l-.03.03a55.702 55.702 0 0 1-15.84 11.09v157.42h25.04c6.61 0 12.01 5.4 12.01 12v132.85c0 6.6-5.41 12.01-12.01 12.01h-28c.43-3.32.66-6.7.66-10.14 0-43.26-35.07-78.33-78.33-78.33-43.27 0-78.33 35.07-78.33 78.33 0 3.44.22 6.82.65 10.14H212.31c.43-3.32.66-6.7.66-10.14 0-43.26-35.07-78.33-78.33-78.33-43.27 0-78.34 35.07-78.34 78.33 0 3.44.23 6.82.66 10.14H12.01c-6.6 0-12.01-5.4-12.01-12.01V298.26c0-6.6 5.4-12 12.01-12zm276.84-16.94h114.76c.84 0 1.54.71 1.54 1.55v6.76c0 .84-.69 1.55-1.54 1.55H288.85c-.86 0-1.55-.7-1.55-1.55v-6.76c0-.85.7-1.55 1.55-1.55zm105.47 107.24c31.16 0 56.42 25.26 56.42 56.42 0 31.17-25.26 56.43-56.42 56.43s-56.43-25.26-56.43-56.43c0-31.16 25.27-56.42 56.43-56.42zm8.62 21.33v26.47h26.47c-3.19-13.02-13.44-23.28-26.47-26.47zm26.47 43.72h-26.47v26.46c13.03-3.19 23.28-13.44 26.47-26.46zm-43.71 26.46v-26.46h-26.47c3.19 13.02 13.44 23.28 26.47 26.46zm-26.47-43.71h26.47v-26.47c-13.03 3.19-23.28 13.45-26.47 26.47zm-224.59-47.8c31.16 0 56.42 25.26 56.42 56.42 0 31.17-25.26 56.43-56.42 56.43s-56.43-25.26-56.43-56.43c0-31.16 25.27-56.42 56.43-56.42zm8.62 21.33v26.47h26.47c-3.19-13.02-13.44-23.28-26.47-26.47zm26.47 43.72h-26.47v26.46c13.03-3.19 23.28-13.44 26.47-26.46zm-43.71 26.46v-26.46H99.55c3.19 13.02 13.44 23.28 26.47 26.46zm-26.47-43.71h26.47v-26.47c-13.03 3.19-23.28 13.45-26.47 26.47zm251.13-219.65c31.42 2.51 57.87 28.93 53.97 60.02H287.81c-3.86-31.29 22.7-57.74 54.35-60.05v-5.07h-4.99c-.88 0-1.6-.72-1.6-1.59v-5.73c0-.88.72-1.6 1.6-1.6h18.38c.87 0 1.59.72 1.59 1.6v5.73a1.6 1.6 0 0 1-1.59 1.59h-4.87v5.1zM143.24 251c8.13 16.93 32.74 17.52 40.51.1-2.12-2.15-3.69-4.45-5.25-6.73-.26-.38-.52-.75-.78-1.13-3.75 2.98-8.31 4.88-14.24 4.86-6.4-.01-11.22-2.46-15.17-6.07-.24-.22-.47-.44-.7-.67-.57 1.58-1.29 3.46-2.05 5.21-.75 1.69-1.54 3.29-2.32 4.43zm42.79-1.79c8.67 6.12 29.75 7.6 37.84 12.11 2.69 1.5 5.11 3.41 7.06 5.99 2.58 3.4 6.87 12.49 6.23 18.95h195.06v-155.9c-7.34-2.8-13.95-7.14-19.42-12.61l-.03-.03a55.73 55.73 0 0 1-9.92-13.46 55.682 55.682 0 0 1-9.93 13.48c-10.03 10.01-23.85 16.23-39.02 16.23-15.18 0-28.99-6.22-39-16.22l-.03-.03c-3.94-3.94-7.3-8.49-9.91-13.46a55.985 55.985 0 0 1-9.94 13.48l-.38.36c-9.99 9.8-23.65 15.87-38.64 15.87-15.2 0-29.02-6.22-39.02-16.23l-.35-.38a55.34 55.34 0 0 1-9.57-13.11c-2.62 5-5.98 9.54-9.93 13.49-10.01 10.01-23.83 16.23-39.03 16.23-15.19 0-29.01-6.22-39.02-16.23-3.95-3.95-7.3-8.5-9.92-13.48a55.682 55.682 0 0 1-9.93 13.48l-.38.36c-8.07 7.91-18.52 13.39-30.13 15.21l1.46-.03v152.98h19.6c-.64-6.47 3.65-15.55 6.23-18.95 1.95-2.59 4.38-4.49 7.06-5.99 8.07-4.5 29.06-5.98 37.77-12.06.64-.96 1.33-2.36 1.99-3.87 1-2.28 1.91-4.78 2.49-6.48-2.44-2.87-4.52-6.11-6.52-9.3l-6.61-10.49c-2.41-3.6-3.67-6.9-3.74-9.59-.04-1.28.18-2.43.65-3.44a6.315 6.315 0 0 1 2.27-2.63c.47-.33 1.01-.6 1.6-.82-.43-5.69-.59-12.87-.32-18.87.14-1.43.42-2.85.82-4.28 1.69-6.03 5.92-10.88 11.15-14.21 2.89-1.84 6.05-3.23 9.35-4.16 2.09-.59-.3-5.32 1.87-5.54 10.48-1.08 25.95 6.51 33.27 14.43 3.66 3.96 5.96 9.22 6.46 16.18l-.41 17.13c1.83.56 3 1.71 3.48 3.6.53 2.07-.04 5.01-1.81 9.01-.03.07-.07.14-.12.22l-7.52 12.38c-2.76 4.56-5.57 9.12-9.23 12.72l.99 1.44c1.49 2.18 2.99 4.37 4.92 6.32.06.07.12.13.16.2zm-49.26-43.52c-1.46.05-2.57.36-3.33.87-.43.29-.75.65-.95 1.1-.23.49-.33 1.08-.31 1.76.05 2.01 1.11 4.64 3.14 7.66l.03.05 6.6 10.49c2.65 4.21 5.43 8.5 8.87 11.66 3.32 3.03 7.34 5.08 12.66 5.09 5.76.02 9.98-2.11 13.4-5.31 3.55-3.34 6.36-7.9 9.12-12.46l7.44-12.24c1.39-3.16 1.89-5.28 1.58-6.52-.19-.74-1.01-1.1-2.4-1.17-.3-.02-.6-.02-.9-.01-.34.01-.68.03-1.04.06-.2.02-.39.01-.58-.04-.66.04-1.34-.01-2.04-.11l2.55-11.27c-18.9 2.98-33.03-11.05-53-2.8l1.44 13.28c-.81.04-1.57.01-2.28-.1v.01zM306.91 12.6l3.71 38.39h84.06L384.53 12.6h-77.62zM298 50.99l-3.71-38.39H217.6l-3.64 38.39H298zm-96.66 0 3.64-38.39H126l-8.93 38.39h84.27zM397.53 12.6l10.15 38.39h79.01L451.14 12.6h-53.61zM104.17 50.99l8.93-38.39H57.54L24.63 50.99h79.54zm390.27 12.6h-85.29v15.13c0 11.74 4.79 22.4 12.52 30.13 7.72 7.72 18.39 12.52 30.12 12.52 11.74 0 22.4-4.8 30.13-12.52 7.72-7.73 12.52-18.39 12.52-30.13V63.59zm-97.89 0h-85.3v15.13c0 11.74 4.8 22.4 12.52 30.13 7.73 7.72 18.39 12.52 30.13 12.52 11.74 0 22.4-4.79 30.11-12.51 7.73-7.75 12.54-18.42 12.54-30.14V63.59zm-97.9 0h-85.3v15.13c0 11.57 4.67 22.11 12.21 29.81l.32.31c7.73 7.73 18.4 12.53 30.12 12.53 11.59 0 22.13-4.67 29.81-12.21l.31-.32c7.72-7.73 12.53-18.4 12.53-30.12V63.59zm-97.9 0h-85.29v15.13c0 11.73 4.79 22.4 12.52 30.13 7.74 7.72 18.4 12.52 30.12 12.52 11.72 0 22.39-4.8 30.12-12.53 7.73-7.73 12.53-18.4 12.53-30.12V63.59zm-97.89 0h-85.3v15.13c0 11.72 4.81 22.39 12.53 30.12 7.71 7.74 18.38 12.53 30.12 12.53 11.58 0 22.12-4.67 29.81-12.21l.3-.32c7.73-7.73 12.54-18.4 12.54-30.12V63.59z"/></svg>