<svg id="Layer_1" data-name="Layer 1" xmlns="http://www.w3.org/2000/svg" viewBox="0 0 122.88 122.79"><defs><style>.cls-1{fill:#391410;}.cls-1,.cls-2{fill-rule:evenodd;}.cls-2{fill:#ea6d36;}</style></defs><title>fried-chicken</title><path class="cls-1" d="M14.56,3A10.09,10.09,0,0,1,28.83,17.23c-.21.21-.43.41-.65.6L42.42,31.91a13.33,13.33,0,0,1,2.19-1.8c5.57-3.76,10.28-1.3,14.72,1l1.17.61c1,.49,1.82.93,2.45,1.29s1.57.93,2.41,1.49c1.35.89,1.87,1.25,2.37,1.59a54.16,54.16,0,0,0,11.86,6.61c1.4.52,2.73,1,4,1.4s2.53.79,4.05,1.22c10.41,3,19.15,5.6,25.54,11,6.79,5.76,10.39,14,9.57,27.78a42.64,42.64,0,0,1-.52,4.65,35.81,35.81,0,0,1-1,4.36,40.4,40.4,0,0,1-4,9.07,48,48,0,0,1-6.3,8.3l-.11.12-.33.32a47.73,47.73,0,0,1-8.22,6.21,40,40,0,0,1-9.07,4,35.19,35.19,0,0,1-4.35,1,45.26,45.26,0,0,1-4.65.52c-13.76.82-22-2.79-27.78-9.58-5.42-6.39-8-15.12-11-25.54-.43-1.52-.84-2.89-1.22-4s-.88-2.61-1.4-4A54.57,54.57,0,0,0,36.2,67.64c-.34-.5-.66-1-1.59-2.36-.56-.85-1.06-1.65-1.5-2.42s-.79-1.46-1.29-2.44l-.6-1.18c-2.32-4.43-4.77-9.13-1-14.7a10.16,10.16,0,0,1,2-2.19L17.91,28.08c-.22.26-.44.51-.68.75a10.09,10.09,0,1,1-5.49-17.09A10.07,10.07,0,0,1,14.56,3Z"/><path class="cls-2" d="M47.31,34.12c3.62-2.43,7.48.15,11,1.93a44,44,0,0,1,4.35,2.5c5.19,3.45,9,6.35,15.2,8.7,2.84,1.07,5.64,2,8.43,2.75,19.74,5.64,33,9.88,31.61,33.84a35.49,35.49,0,0,1-1.32,7.91,38.84,38.84,0,0,1-9.2,15.47l-.08,0,0,.08a38.86,38.86,0,0,1-15.47,9.2,35.48,35.48,0,0,1-7.91,1.33C60,119.27,55.73,106,50.09,86.23c-.79-2.78-1.68-5.59-2.76-8.43-2.34-6.24-5.24-10-8.69-15.2a40.19,40.19,0,0,1-2.5-4.34c-1.78-3.55-4.36-7.41-1.93-11,1-1.55,2.76-2.33,4.77-3.11,4.2-1.61,5.13-3.58,5.54-5.39s.7-3.19,2.79-4.61ZM103.45,97a2.26,2.26,0,0,1,3.2,3.2,40.18,40.18,0,0,1-7.7,5.92,39.4,39.4,0,0,1-8.83,4,32.41,32.41,0,0,1-4,.93,42.83,42.83,0,0,1-4.38.48c-1.58.1-3.1.13-4.58.1s-2.88-.12-4.15-.27a2.26,2.26,0,0,1,.51-4.49c1.21.14,2.46.22,3.73.25s2.71,0,4.23-.09a37.49,37.49,0,0,0,3.9-.44,29.28,29.28,0,0,0,3.49-.8,34.74,34.74,0,0,0,7.8-3.49A35.67,35.67,0,0,0,103.45,97Z"/></svg>