<svg xmlns="http://www.w3.org/2000/svg" shape-rendering="geometricPrecision" text-rendering="geometricPrecision" image-rendering="optimizeQuality" fill-rule="evenodd" clip-rule="evenodd" viewBox="0 0 512 400.27"><g fill-rule="nonzero"><path d="M450.5 169.17c-17.29 80.32-83.45 148.85-159.98 189.89-38.58 20.71-79.82 34.45-118.78 39.29-39.41 4.87-76.65.66-106.69-14.75C33.14 367.23 9.52 338.48.14 294.99c-.33-1.59-.08-3.25.79-4.75 1.88-3.17 5.96-4.25 9.13-2.38 124.69 73.49 195.97-.5 240.3-75.69 12.79-21.75 23.49-43.79 32.62-62.54 10.33-21.33 18.66-38.49 26.49-47.37-9.54-5.04-18.12-11.79-25.95-19.95-2.54-2.67-2.42-6.92.25-9.46 2.12-2.04 5.25-2.37 7.71-1.08 9.29 4.79 17.7 6.79 25.33 6.46 7.45-.34 14.29-2.96 20.66-7.46 5.63-3.96 10.37-8 14.58-11.58 17.29-14.63 26.08-22.09 59.78-7.54 14.34-20.71 29-36.88 44.25-45.21 17.54-9.58 35.33-9.12 53.49 5.79a6.675 6.675 0 0 1 .92 9.38c-2.33 2.83-6.54 3.25-9.38.91-13.24-10.87-26.08-11.25-38.66-4.37-12.7 6.96-25.49 21-38.32 39.24 24.24 12.58 29.53 34.96 34.16 54.5 2.29 9.7 4.41 18.62 8.62 23.91 1.42 1.79 3.04 3.08 4.88 3.92 1.91.83 4.16 1.2 6.74 1.04 3.67-.21 6.84 2.58 7.04 6.29.13 2.25-.87 4.33-2.54 5.66-11.37 10.13-22.24 15.79-32.53 16.46z"/><path fill="#84D10F" d="M326.68 95.14c12.62 4.29 27 5.42 43.41 2.71.29-.09.58-.13.92-.13 3.66-.33 6.91 2.42 7.25 6.08 1 11.75-.88 21.38-5.34 29.08-1.7 2.92-3.74 5.55-6.12 7.88 6.04.5 11.58-.08 16.75-1.75 9.16-2.92 17.16-9.17 24.16-18.54.75-1 1.79-1.83 3.04-2.29 3.46-1.25 7.29.5 8.58 3.96 7.21 19.62 15.38 30.16 24.33 32.91 5.92 1.79 12.67.16 20.21-4.54-2.83-1.67-5.29-3.84-7.46-6.54-6.08-7.63-8.5-17.92-11.16-29.12-4.04-17.09-8.67-36.67-28.46-46.29-35.03-17.12-41.66-11.5-56.11.71-4.25 3.58-9.09 7.66-15.54 12.25-8.29 5.87-17.33 9.33-27.25 9.91 2.79 1.46 5.75 2.71 8.79 3.71z"/><path fill="#50AC25" d="M416.81 118.93c1.12.75 2.02 1.85 2.52 3.21 7.21 19.62 15.38 30.16 24.33 32.91 5.92 1.79 12.67.16 20.21-4.54-2.83-1.67-5.29-3.84-7.46-6.54-6.08-7.63-8.5-17.92-11.16-29.12-4.04-17.08-8.67-36.65-28.44-46.28v50.36z"/><path fill="#1D8515" d="M322.81 107.93c-.34.37-.71.71-1.13 1.04-6.42 4.67-15.25 22.83-26.7 46.41-9.17 18.87-19.96 41.12-33.12 63.49-45.83 77.74-118.7 154.19-244.64 88.2 10.13 30.91 29.25 51.99 53.91 64.66 27.5 14.12 62.08 17.91 98.99 13.33 37.37-4.63 76.99-17.87 114.07-37.79C357.38 307.98 420.67 242.91 437.25 167c-10.04-4.04-18.87-13.79-26.29-29.87-6.96 7-14.75 11.92-23.46 14.67-11.87 3.75-25.2 3.33-40.11-1.59-3.5-1.16-5.38-4.91-4.25-8.41.62-1.96 2.12-3.42 3.87-4.13v-.04c6.5-2.58 11.33-6.33 14.29-11.45 2.21-3.84 3.5-8.54 3.75-14.21-15.54 1.71-29.58.21-42.24-4.04z"/><path fill="#2D9C00" d="M253.23 278.74c3.29 1.62 4.67 5.62 3.04 8.91-6.87 14-27.12 31.63-49.41 45.33-21.41 13.12-45.16 22.96-61.4 22.75-3.67-.04-6.63-3.08-6.59-6.75.04-3.67 3.09-6.62 6.75-6.58 13.63.16 34.75-8.79 54.29-20.79 18.71-11.47 35.54-25.49 42.67-36.76 2.44-3.84 4.67-9.07 10.65-6.11z"/></g></svg>