<svg id="Layer_1" data-name="Layer 1" xmlns="http://www.w3.org/2000/svg" viewBox="0 0 122.88 109.12"><defs><style>.cls-1{fill-rule:evenodd;}</style></defs><title>honey</title><path class="cls-1" d="M34.17,0A9,9,0,0,1,43,7.08a9,9,0,0,1,12.81,8.13v4.21a8.83,8.83,0,0,1,3.6-.76,9,9,0,0,1,6.34,2.63l0,0a9.12,9.12,0,0,1,2.38,4.21h45.79a9,9,0,0,1,6.35,15.34h0a9,9,0,0,1-6.34,2.66H68.1a9,9,0,0,1-8.74,6.86,8.83,8.83,0,0,1-3.6-.76v4.21A9,9,0,0,1,43,62,9,9,0,0,1,34.17,69a8.86,8.86,0,0,1-3.87-.88v2.09a3.3,3.3,0,1,1-6.59,0V62.56a9.34,9.34,0,0,1-2.13.25,9,9,0,0,1-6.34-2.64h0a9,9,0,0,1-2.64-6.34V49.61a8.83,8.83,0,0,1-3.6.76,9,9,0,0,1-6.34-2.64h0A9,9,0,0,1,0,41.38V27.65a9,9,0,0,1,9-9,8.83,8.83,0,0,1,3.6.76V15.21a9,9,0,0,1,2.64-6.34l0,0a9,9,0,0,1,6.33-2.63,8.78,8.78,0,0,1,3.8.85,9.1,9.1,0,0,1,2.43-4.42l0,0A9,9,0,0,1,34.17,0ZM28.26,83.18C31,89,36.41,94.58,36.41,99c0,13.49-18.8,13.5-18.8,0,0-4.5,5.23-9.7,8.1-15.84a3.29,3.29,0,0,1-2-3V78.05a3.3,3.3,0,1,1,6.59,0v2.08a3.29,3.29,0,0,1-2,3.05ZM68.35,35.81v2.31h45.54a3.61,3.61,0,0,0,2.54-1.06h0a3.6,3.6,0,0,0-2.54-6.14H68.37l0,4.9ZM12.59,41.38V27.65a3.58,3.58,0,0,0-1.05-2.54h0a3.61,3.61,0,0,0-6.14,2.55V41.38a3.55,3.55,0,0,0,1.05,2.54h0a3.6,3.6,0,0,0,5.08,0h0a3.58,3.58,0,0,0,1.05-2.54ZM55.76,27.65V41.38a3.59,3.59,0,0,0,1.06,2.54h0A3.54,3.54,0,0,0,59.36,45,3.62,3.62,0,0,0,63,41.38V27.65a3.61,3.61,0,0,0-1-2.54h0a3.59,3.59,0,0,0-5.08,0l-.11.11a3.55,3.55,0,0,0-1,2.43ZM25.17,54.11V14.92A3.6,3.6,0,0,0,19,12.66h0A3.58,3.58,0,0,0,18,15.21V53.82A3.55,3.55,0,0,0,19,56.36h0a3.61,3.61,0,0,0,6.13-2.26Zm5.39-39.37c0,.16,0,.31,0,.47V53.82c0,.16,0,.31,0,.47V60a3.61,3.61,0,0,0,1.05,2.54h0A3.61,3.61,0,0,0,37.77,60V9a3.61,3.61,0,0,0-6.15-2.55h0A3.62,3.62,0,0,0,30.56,9v5.75Zm18.75-2.07a3.59,3.59,0,0,0-5.08,0h0a3.58,3.58,0,0,0-1,2.54V53.82a3.55,3.55,0,0,0,1,2.54h0a3.61,3.61,0,0,0,6.14-2.55V15.21a3.63,3.63,0,0,0-1.06-2.54ZM21.66,97.49a1,1,0,1,1,2.09-.19,10.21,10.21,0,0,0,1,3.79,6.73,6.73,0,0,0,2.62,2.71,1.05,1.05,0,1,1-1.06,1.82,8.84,8.84,0,0,1-3.42-3.54,12.21,12.21,0,0,1-1.25-4.59Z"/></svg>