<svg id="Layer_1" data-name="Layer 1" xmlns="http://www.w3.org/2000/svg" viewBox="0 0 96.79 122.88"><title>jam-jar</title><path d="M20.34,21.47A83.51,83.51,0,0,0,9.12,28a18.88,18.88,0,0,0-3.75,3.35,17.9,17.9,0,0,0,3.08,1.41,15.17,15.17,0,0,0,4.62.86,12.37,12.37,0,0,0,5.09-1.58,19,19,0,0,1,7.4-2.21c2.68-.11,4.73.95,6.74,2a9.73,9.73,0,0,0,3.92,1.41,11.85,11.85,0,0,0,4.39-1.34,21,21,0,0,1,6.83-2,16.92,16.92,0,0,1,7.3,1.36,15.33,15.33,0,0,0,4.77,1.15A20.45,20.45,0,0,0,65,31.26a27.16,27.16,0,0,1,7.38-1.42,17.2,17.2,0,0,1,6.43,1.38,12,12,0,0,0,3.76.94,16.75,16.75,0,0,0,4.13-.51,17,17,0,0,0,2.16-.71,13.53,13.53,0,0,0-3.44-3.44,59.47,59.47,0,0,0-10.81-6Zm4.18,30.88H71.18a11.81,11.81,0,0,1,8.34,3.47v0A11.76,11.76,0,0,1,83,64.17V81.69A11.81,11.81,0,0,1,79.53,90h0a11.76,11.76,0,0,1-8.33,3.47H24.52a11.81,11.81,0,0,1-8.34-3.47v0a11.77,11.77,0,0,1-3.47-8.34V64.17a11.81,11.81,0,0,1,3.47-8.34h0a11.76,11.76,0,0,1,8.33-3.47ZM71.18,57H24.52a7.1,7.1,0,0,0-5.06,2.1h0a7.14,7.14,0,0,0-2.1,5.07V81.69a7.12,7.12,0,0,0,2.1,5.07h0a7.1,7.1,0,0,0,5.06,2.1H71.18a7.14,7.14,0,0,0,5.07-2.1h0a7.13,7.13,0,0,0,2.11-5.07V64.17a7.15,7.15,0,0,0-2.11-5.07h0A7.14,7.14,0,0,0,71.18,57ZM88.27,16.49l5.55.37a3.19,3.19,0,0,1-.43,6.36l-6.6-.44q.75.51,1.44,1c3.32,2.5,5.37,5.12,5.8,7.9a2.31,2.31,0,0,1-1.18,2.49,21.89,21.89,0,0,1-4.22,1.75A31.23,31.23,0,0,1,93.39,46,53.19,53.19,0,0,1,95,60.4v28h0c.17,10.13-2.24,18.14-7.35,24s-12.75,9.33-23.12,10.51a1.84,1.84,0,0,1-.41,0H32.27c-10-.39-17.24-3.75-22.38-9.31S2,100.6.75,91.72a2.73,2.73,0,0,1-.05-.5V62.14h0a53,53,0,0,1,2-17.06,29.52,29.52,0,0,1,3.88-8,24.66,24.66,0,0,1-5.49-2.89,2.33,2.33,0,0,1-1-2.66C.79,29.15,3,26.74,6.4,24.26a72,72,0,0,1,8.36-5.12,10.4,10.4,0,0,1-1.18-1h0a10.55,10.55,0,0,1,0-15h0A10.57,10.57,0,0,1,21.07,0H73a10.55,10.55,0,0,1,7.49,3.12h0a10.57,10.57,0,0,1,3.12,7.49,8.44,8.44,0,0,1-.05,1l8.25-3.75a3.18,3.18,0,0,1,2.64,5.79l-6.19,2.82ZM73,4.64H21.07a6,6,0,0,0-4.22,1.75h0a6,6,0,0,0,0,8.44h0a6,6,0,0,0,4.22,1.75H73a6,6,0,0,0,4.22-1.75h0a6,6,0,0,0,0-8.44h0A6,6,0,0,0,73,4.64ZM11.56,38.17a24.5,24.5,0,0,0-4.39,8.31A49.22,49.22,0,0,0,5.33,62.1v0h0v29c1.12,8,3.62,14.61,8,19.32s10.49,7.46,19.06,7.82H64c9.17-1,15.85-4,20.15-9s6.36-11.91,6.21-20.88v0h0v-28a48.93,48.93,0,0,0-1.45-13.16,26.53,26.53,0,0,0-5.52-10.43H82.6a15.52,15.52,0,0,1-5.32-1.23,13.74,13.74,0,0,0-4.8-1.1,23.74,23.74,0,0,0-6.14,1.23A23.73,23.73,0,0,1,59.49,37a18.89,18.89,0,0,1-6.27-1.4,13.21,13.21,0,0,0-5.38-1.13,17.34,17.34,0,0,0-5.38,1.69,15,15,0,0,1-6.27,1.72,13.09,13.09,0,0,1-6-1.92,9.48,9.48,0,0,0-4.44-1.48,15.42,15.42,0,0,0-5.64,1.79c-2.28,1.05-4.47,2.07-7.15,2-.46,0-.93,0-1.39-.09Z"/></svg>