<svg id="Layer_1" data-name="Layer 1" xmlns="http://www.w3.org/2000/svg" viewBox="0 0 62.08 122.88"><defs><style>.cls-1{fill:#fff;}.cls-1,.cls-2{fill-rule:evenodd;}.cls-2{fill:#c1402b;}</style></defs><title>ketchup-sauce-bottle</title><path d="M28.18,0h4.55a3,3,0,0,1,2.81,2.06l5.72,14h5a4.43,4.43,0,0,1,3.14,1.3,2.09,2.09,0,0,1,.24.28,4.38,4.38,0,0,1,1.06,2.85v9.63l.15,0c6.46,1.75,10.87,4.7,11.17,8.93a2.73,2.73,0,0,1,0,.41v73.12a10.35,10.35,0,0,1-10.3,10.3H10.3A10.35,10.35,0,0,1,0,112.58V39.46H0c0-.13,0-.26,0-.39.58-4.18,5-7.12,11.32-8.92v-9.7a4.42,4.42,0,0,1,1.3-3.12h0A4.44,4.44,0,0,1,15.79,16h4.9L25.4,2a2.92,2.92,0,0,1,2.78-2Z"/><path class="cls-1" d="M15.79,19h30.5a1.51,1.51,0,0,1,1.5,1.49v8.94A82.67,82.67,0,0,0,35.23,28a95.54,95.54,0,0,0-16.8.73c-1.43.2-2.81.44-4.13.73v-9A1.49,1.49,0,0,1,15.79,19Z"/><path class="cls-2" d="M2.94,39.46v73.12a7.4,7.4,0,0,0,7.36,7.36H51.78a7.39,7.39,0,0,0,7.36-7.36V39.46c-.17-11.2-54.57-11.88-56.2,0ZM28.18,2.94h4.55L38.09,16H23.79L28.18,2.94Z"/></svg>