<svg id="Layer_1" data-name="Layer 1" xmlns="http://www.w3.org/2000/svg" viewBox="0 0 51.27 122.88"><defs><style>.cls-1{fill-rule:evenodd;}</style></defs><title>ketchup-bottle</title><path class="cls-1" d="M12,71.86H39.24a2.33,2.33,0,0,1,2.32,2.33v37.16a2.34,2.34,0,0,1-2.32,2.33H12a2.34,2.34,0,0,1-2.33-2.33V74.19A2.34,2.34,0,0,1,12,71.86ZM14.71,5.13l-.05,1.58h6.59c.34,2.44,3.25,3.08,4.38,3.08S29.68,9.18,30,6.71h6.59l0-1.58Zm-.27,8.25c-.62,18.3-1.62,29.08-10.7,49.77-.31.72-.61,1.44-.84,2.13l0,0a10,10,0,0,0-.42,1.76v49a4.26,4.26,0,0,0,1.26,3h0a4.26,4.26,0,0,0,3,1.26H44.5a4.34,4.34,0,0,0,4.31-4.31v-49a10.58,10.58,0,0,0-.44-1.81c-.23-.69-.53-1.41-.84-2.13-9.08-20.69-10.08-31.47-10.7-49.77ZM12.15,8.46l.18-5.72a2.88,2.88,0,0,1,.76-2A2.66,2.66,0,0,1,14.87,0H36.05a3.21,3.21,0,0,1,1.83.67,3,3,0,0,1,1,1.82l0,.23.18,5.72c.65,21.07,1,31.68,10.65,53.72.34.77.66,1.56.92,2.33a11.9,11.9,0,0,1,.56,2.31l0,.2v49.1a6.79,6.79,0,0,1-6.77,6.77H6.77a6.7,6.7,0,0,1-4.77-2H2a6.74,6.74,0,0,1-2-4.78V66.87a12.61,12.61,0,0,1,.55-2.31l0-.06c.26-.77.57-1.56.91-2.33,9.68-22,10-32.64,10.66-53.71Z"/></svg>