<svg id="Layer_1" data-name="Layer 1" xmlns="http://www.w3.org/2000/svg" viewBox="0 0 122.88 69.44"><title>macarons</title><path d="M80.92,56.77a12.8,12.8,0,0,1-5.18,6A22.33,22.33,0,0,1,64,65.63H22.58c-5.11,0-9.77-1.22-13.08-3.84A13.1,13.1,0,0,1,4.56,51v-1.8C2.11,48.88,0,47.76,0,44.59c0-3.68,2.32-4.94,4.57-5.37A13,13,0,0,1,9.5,29c3.31-2.62,8-3.84,13.08-3.84h28a13,13,0,0,1,3.27-12l1.26-1.41c-1.6-1.88-2.44-4.13-.33-6.49,2.44-2.75,5-2.15,7-1A13,13,0,0,1,72.9.08c4,.44,8,2.57,11.61,5.77l30.94,27.54c3.61,3.21,6.19,7,7.08,10.86a12.94,12.94,0,0,1-3,11.69,4.6,4.6,0,0,1,.64,3.64,4.89,4.89,0,0,1-.93,1.9,4.57,4.57,0,0,1-5.68,1.18l-1.77,2a13,13,0,0,1-11.55,4.7c-4-.43-8-2.56-11.62-5.76l-7.66-6.82ZM57.55,14.16l-1.12,1.26a9.79,9.79,0,0,0-2.56,9c.73,3.16,2.91,6.29,6,9l31,27.59c3.1,2.75,6.48,4.57,9.71,4.93a9.81,9.81,0,0,0,8.66-3.59l1.56-1.75a4.07,4.07,0,0,0-4-.71,5.62,5.62,0,0,1-3.19-.17,7.06,7.06,0,0,1-2.75-1.84A6.69,6.69,0,0,1,99,52.81a3.9,3.9,0,0,0-1.58-3.44,7.7,7.7,0,0,0-4.63-1.55h0c-1.7-.15-3.23-.3-4.66-1.54a5.91,5.91,0,0,1-1.34-1.7h0a10.78,10.78,0,0,1-.91-2.35c-1.21-4.56-2.49-4.67-4.15-4.8a9.73,9.73,0,0,1-6.55-2.61c-2-1.78-2.52-4.08-3-6.2h0C71.28,25.05,70,25,68.38,25a9.12,9.12,0,0,1-6.73-2.21h0c-2.09-1.82-2.26-4-2.4-5.84A4.2,4.2,0,0,0,59,15.32l-.08-.08c-.18-.16-.46-.38-.78-.64l-.55-.44Zm6.89-7.7c17.68,15.42,35.12,31.43,52.61,47.1A9.66,9.66,0,0,0,119.22,45c-.72-3.16-2.91-6.29-6-9Q97.73,22.15,82.2,8.35c-3.09-2.73-6.44-4.54-9.66-4.89a9.63,9.63,0,0,0-8.1,3ZM114,58.92l.13.11c.83.73,1.52.86,2,.66a1.24,1.24,0,0,0,.43-.33,1.35,1.35,0,0,0-.33-2C111.61,53.32,62,9,62,8.84,61.06,8,58.79,5.92,57.3,7.59c-.78.88.41,2.19,1.6,3.26.49.43.94.79,1.33,1.11s.61.49.9.74l.1.09c1.18,1.06,1.28,2.4,1.4,3.92a4.82,4.82,0,0,0,1.25,3.53,6.21,6.21,0,0,0,4.52,1.39c3.11,0,5.6.05,7,6.23h0c.36,1.61.75,3.35,1.95,4.41A6.81,6.81,0,0,0,81.89,34c3,.24,5.35.43,7.18,7.32a6.64,6.64,0,0,0,.6,1.59h0a2.67,2.67,0,0,0,.59.76,5,5,0,0,0,2.75.73h0a10.33,10.33,0,0,1,6.51,2.33,6.76,6.76,0,0,1,2.79,5.94,3.81,3.81,0,0,0,1,2.87,3.52,3.52,0,0,0,1.4,1,2.26,2.26,0,0,0,1.27.08c4.13-1,5.6.2,7.91,2.21l.1.08ZM51.78,28.61H22.58c-4.39,0-8.31,1-11,3.09A9.64,9.64,0,0,0,8,39l53.14.16-3.49-3.11a24.52,24.52,0,0,1-5.86-7.44ZM65,42.56c-19.07-.05-38.14-.17-57.2-.17-1.29,0-4.36,0-4.36,2.2C3.4,45.77,5.17,46,6.76,46c.71,0,1.26,0,1.74-.05s.89,0,1.29,0c1.59,0,2.56.94,3.66,2,.88.85,1.9,1.83,3.28,1.81a6.21,6.21,0,0,0,4.3-2c2.34-2.05,4.22-3.69,9.37,0h0c1.33,1,2.79,2,4.38,2A6.84,6.84,0,0,0,39.36,48c2.41-1.82,4.28-3.23,10.23.7a7,7,0,0,0,1.43.76l.07,0a2.89,2.89,0,0,0,.95.19,5.12,5.12,0,0,0,2.57-1.31A10.41,10.41,0,0,1,61,45.77h0a6.74,6.74,0,0,1,6,2.58,3.8,3.8,0,0,0,4.23,1.33l.11,0a2.3,2.3,0,0,0,.84-.59L65,42.56Zm9.81,8.74a5.6,5.6,0,0,1-2.1,1.48l-.15,0a7.1,7.1,0,0,1-3.11.4,6.67,6.67,0,0,1-4.82-2.55,3.91,3.91,0,0,0-3.47-1.52,7.66,7.66,0,0,0-4.49,1.92c-1.38,1-2.63,2-4.55,2A6.4,6.4,0,0,1,50,52.69l-.09,0a10.18,10.18,0,0,1-2.16-1.12c-3.94-2.6-5-1.83-6.3-.82a9.71,9.71,0,0,1-6.62,2.4c-2.68,0-4.6-1.37-6.36-2.63h0c-3-2.13-3.94-1.28-5.15-.22a9.11,9.11,0,0,1-6.51,2.82c-2.77,0-4.33-1.47-5.67-2.76-.58-.56-1.09-1.05-1.31-1.05s-.66,0-1.12,0l-.7,0V51a9.85,9.85,0,0,0,3.64,8.11c2.67,2.11,6.59,3.09,11,3.09H64a18.94,18.94,0,0,0,9.94-2.38,9.43,9.43,0,0,0,4.24-5.51l-3.41-3Z"/></svg>