<svg id="Layer_1" data-name="Layer 1" xmlns="http://www.w3.org/2000/svg" viewBox="0 0 122.88 108.21"><defs><style>.cls-1{fill:#d1567f;}.cls-1,.cls-2,.cls-3,.cls-4{fill-rule:evenodd;}.cls-2{fill:#fcd2e0;}.cls-3{fill:#f09239;}.cls-4{fill:#fce2ca;}</style></defs><title>macarons</title><path d="M116.83,33.17v3.56c0,6.33-2.51,11-6.6,14.27s-10,4.92-16.32,5a19.45,19.45,0,0,1,1.74,1.23c4.09,3.23,6.6,7.94,6.6,14.27v.06A8.9,8.9,0,0,1,107.16,75h0a6.62,6.62,0,0,1,1.13,3.65h0A6.32,6.32,0,0,1,107,82.37a8.46,8.46,0,0,1-4.79,3V89c0,6.33-2.51,11-6.6,14.28-4.3,3.39-10.26,5-16.73,5H29.37c-6.48,0-12.44-1.58-16.74-5C8.54,100,6,95.28,6,89V87.22c-3.67-.34-6.14-2.23-6-8,.11-6.2,2.44-7.9,6-8.23a17.24,17.24,0,0,1,6.59-13.73c4.21-3.33,10-4.92,16.33-5A19.61,19.61,0,0,1,27.21,51c-4.09-3.23-6.59-7.94-6.59-14.27V35c-3.66-.35-6.14-2.23-6-8.06.11-6.2,2.45-7.9,6-8.23A17.24,17.24,0,0,1,27.21,5C31.51,1.58,37.47,0,44,0H93.5c6.48,0,12.44,1.58,16.73,5,4.09,3.24,6.6,8,6.6,14.28v0a9,9,0,0,1,4.91,3.43h0a6.56,6.56,0,0,1,1.13,3.65h0a6.23,6.23,0,0,1-1.24,3.76,8.46,8.46,0,0,1-4.79,3Z"/><path class="cls-1" d="M113,33.61v3.12c0,10.72-8.79,15.44-19.51,15.44H44c-10.72,0-19.51-4.71-19.51-15.44V34.87l1.13-.17a21.39,21.39,0,0,1,3.07-.34c.45,0-.08.36.34.76,1.85,1.78,4,3.84,8,3.8,4.64-.06,6.93-2.06,8.94-3.81.86-.75,1.55-1.35,3.95.37h0C52.24,37.16,54.78,39,58.56,39a13.14,13.14,0,0,0,9-3.24c1-.77,1.82-1.37,5.48,1a14,14,0,0,0,3.08,1.57h0a8.85,8.85,0,0,0,3.14.53c2.87,0,4.59-1.3,6.48-2.7a7.76,7.76,0,0,1,4.36-2,3.22,3.22,0,0,1,2.81,1.27,9.43,9.43,0,0,0,6.9,3.59,10.16,10.16,0,0,0,4.34-.52,3,3,0,0,0,.39-.13,8.42,8.42,0,0,0,3.79-3c.7-1,1.2-1.49,1.65-1.66a8.91,8.91,0,0,1,2.65-.15ZM24.44,18.71C24.74,8.37,33.4,3.82,44,3.82H93.5c10.57,0,19.25,4.57,19.5,15H26.58c-.82,0-1.45,0-2-.07h-.09Z"/><path class="cls-2" d="M112.74,29.8c-3.22-.09-5.16,0-7.54,3.45a5.36,5.36,0,0,1-5.06,2.06c-5.13-.46-4-5-10.14-4.87-5.44.15-7.16,4.62-10.78,4.66a7.23,7.23,0,0,1-4.08-1.49c-9.92-6.55-8.08,1.55-16.58,1.55-2.56,0-4.58-1.45-6.44-2.78-8.3-6-7.38,2.64-15.14,2.73-4.36,0-5.8-4.53-8.33-4.55-4.7,0-10.38,3.07-10.26-3.56.1-5.85,3.69-4.4,8.19-4.4h86.5c7.61,0,8.45,7.46-.34,7.2Z"/><path class="cls-3" d="M98.43,85.84V89c0,10.73-8.79,15.44-19.51,15.44H29.37c-10.72,0-19.52-4.7-19.52-15.44V87.09L11,86.92a22.75,22.75,0,0,1,3.07-.33c.45,0-.08.35.34.76,1.85,1.78,4,3.84,8,3.79,4.64,0,6.93-2,8.93-3.8.86-.75,1.55-1.36,4,.37h0c2.33,1.67,4.87,3.49,8.65,3.49A13.19,13.19,0,0,0,53,88c1-.78,1.82-1.37,5.48,1a13.81,13.81,0,0,0,3.08,1.57h0a9.1,9.1,0,0,0,3.14.54c2.87,0,4.59-1.31,6.48-2.71a7.75,7.75,0,0,1,4.36-2,3.24,3.24,0,0,1,2.81,1.26,9.41,9.41,0,0,0,6.9,3.6,10.33,10.33,0,0,0,4.34-.52l.39-.13a8.49,8.49,0,0,0,3.79-3c.7-1,1.2-1.49,1.65-1.66a8.25,8.25,0,0,1,2.65-.15ZM9.86,70.94c.3-10.35,9-14.9,19.51-14.9H78.92c10.57,0,19.25,4.58,19.5,15H12c-.81,0-1.44,0-2-.07H9.86Z"/><path class="cls-4" d="M98.16,82c-3.22-.1-5.16,0-7.54,3.44a5.34,5.34,0,0,1-5.06,2.07c-5.13-.46-4-5-10.14-4.88-5.45.15-7.17,4.62-10.78,4.67a7.38,7.38,0,0,1-4.08-1.49c-9.92-6.55-8.08,1.55-16.58,1.55-2.56,0-4.58-1.45-6.44-2.78-8.3-6-7.39,2.64-15.14,2.73-4.37,0-5.81-4.54-8.33-4.56-4.7,0-10.38,3.08-10.26-3.55.1-5.85,3.69-4.4,8.18-4.4h86.5c7.62,0,8.46,7.45-.33,7.2Z"/></svg>