<svg id="Layer_1" data-name="Layer 1" xmlns="http://www.w3.org/2000/svg" viewBox="0 0 74.06 122.88"><defs><style>.cls-1{fill:#ffe7be;}.cls-2{fill:#f7e9da;fill-rule:evenodd;}.cls-3{fill:#ded2c4;}</style></defs><title>milk-glass</title><path class="cls-1" d="M4.71,43.33c10.83,9.13,23.13,6.12,35.71,3.05,9.26-2.26,18.66-4.56,27.84-2.19l.39.1-5.09,65.47a11.18,11.18,0,0,1-3.16,7.06,9.46,9.46,0,0,1-6.74,2.81H21.08a9.25,9.25,0,0,1-6.64-2.77,11.87,11.87,0,0,1-3.27-7.09L3.78,42.56l.93.77Z"/><path class="cls-2" d="M4.4,45.8c19,16,42.17-4.62,63.74,1l-5.06,65.06c-.4,5.17-4.24,9.43-9.42,9.43H21.08c-5.18,0-8.86-4.28-9.42-9.43L4.4,45.8Z"/><path d="M37,0C47,0,56,1.3,62.56,3.41c7.11,2.28,11.5,5.65,11.5,9.58a5.42,5.42,0,0,1-.32,1.83l-9,97.14a12.65,12.65,0,0,1-3.54,7.79,10.52,10.52,0,0,1-7.51,3.13H21.08a10.41,10.41,0,0,1-7.38-3l-.1-.09A12.85,12.85,0,0,1,10,112L0,14.11a1.47,1.47,0,0,1,0-.47A4.73,4.73,0,0,1,0,13c0-3.93,4.4-7.3,11.51-9.58C18.07,1.3,27.1,0,37,0Zm33,19.1a28.61,28.61,0,0,1-7.49,3.48C56,24.68,47,26,37,26s-19-1.31-25.52-3.41A28.08,28.08,0,0,1,3.81,19l9.48,92.72a9.56,9.56,0,0,0,2.63,5.76l.08.08a7.17,7.17,0,0,0,5.08,2.07H53.66a7.28,7.28,0,0,0,5.19-2.16,9.42,9.42,0,0,0,2.6-5.76l8.6-92.57Zm.46-5,.06-.65a1.5,1.5,0,0,1,.2-.64c-.18-2.27-3.67-4.5-9.22-6.28C55.31,4.53,46.64,3.29,37,3.29S18.75,4.53,12.51,6.53C6.81,8.36,3.29,10.66,3.29,13s3.52,4.64,9.22,6.47c6.24,2,14.91,3.24,24.52,3.24s18.28-1.24,24.52-3.24c4.79-1.54,8-3.41,9-5.36Z"/><path class="cls-3" d="M14.46,62.79a1.64,1.64,0,1,1,3.27-.33L19,74.86a1.64,1.64,0,1,1-3.26.33l-1.27-12.4ZM16.63,84a1.64,1.64,0,0,1,3.27-.34l2.27,22.22a1.64,1.64,0,0,1-3.27.34L16.63,84Z"/></svg>