<svg xmlns="http://www.w3.org/2000/svg" shape-rendering="geometricPrecision" text-rendering="geometricPrecision" image-rendering="optimizeQuality" fill-rule="evenodd" clip-rule="evenodd" viewBox="0 0 335 511.33"><path fill-rule="nonzero" d="M92.24 492.42h153.24c5.12 0 9.56-2.06 12.89-5.39 3.79-3.8 6.25-9.19 6.83-15.14l6.3-65.38H65.6l6.93 65.27c.64 6.02 3.12 11.46 6.94 15.28 3.3 3.31 7.69 5.36 12.77 5.36zM273.33 387.6l13.55-140.49H48.69l14.9 140.49h209.74zM45.87 399.43c-.19-.76-.3-1.56-.3-2.38l.01-.38-16.57-156.16c-.29-.9-.44-1.86-.44-2.85 0-.3.02-.6.04-.89l-9.89-93.27h-4.49c-3.92 0-7.48-1.6-10.06-4.17A14.23 14.23 0 0 1 0 129.27V90.24c0-8.1 3.33-15.47 8.68-20.84l-.02-.02a29.62 29.62 0 0 1 13.83-7.81l13.38-39.65c.14-.41.3-.8.49-1.18 3.56-7.19 8.33-12.38 14.14-15.81C56.25 1.53 62.83-.02 70.1.04V0h198.43c.39 0 .76.02 1.13.07 8.48.34 14.43 2.45 19.35 6.5 4.78 3.93 7.83 9.13 11 16.05.16.37.31.74.43 1.11h.01l11.81 37.78c5.41 1.28 10.26 4.06 14.08 7.87.2.21.39.42.57.63 5.01 5.31 8.09 12.44 8.09 20.23v39.04c0 3.92-1.6 7.48-4.17 10.05-.3.29-.6.56-.92.81-2.49 2.1-5.68 3.36-9.14 3.36h-4.96l-8.97 92.92c.06.4.08.82.08 1.24 0 1.05-.17 2.07-.49 3.01l-22.47 232.99c-1 10.4-5.4 19.91-12.22 26.74-6.75 6.75-15.79 10.93-26.26 10.93H92.24c-10.44 0-19.42-4.17-26.14-10.9-6.83-6.83-11.24-16.32-12.34-26.66l-7.89-74.34zM288.7 228.2l8.15-84.47H37.72l8.96 84.47H288.7zm15.74-148.51-170.64-.06H29.52c-2.9 0-5.56 1.2-7.48 3.12l-.02-.02-.02.02a10.556 10.556 0 0 0-3.09 7.49v34.35h297.18V90.24c0-2.75-1.05-5.26-2.75-7.13l-.38-.36a10.608 10.608 0 0 0-6.78-3.1c-.59.07-1.17.08-1.74.04zm-12.21-18.97-9.66-30.92c-1.92-4.13-3.59-7.08-5.53-8.67-1.62-1.34-4.07-2.06-8.01-2.23l-.5.01H70.1v-.04h-.07c-3.86-.03-7.2.7-9.92 2.31-2.57 1.52-4.79 3.96-6.6 7.43L42.67 60.72h249.56z"/></svg>