<svg id="Layer_1" data-name="Layer 1" xmlns="http://www.w3.org/2000/svg" viewBox="0 0 81.86 122.88"><defs><style>.cls-1{fill-rule:evenodd;}</style></defs><title>pet-food</title><path class="cls-1" d="M2.27,122.21A2.33,2.33,0,0,1,0,119.78V40.28a2.41,2.41,0,0,1,.53-1.55L11.47,19.66V2.43A2.34,2.34,0,0,1,13.7,0H67.13a2.3,2.3,0,0,1,2.2,2l1.15,18.93L81.86,41l-.35,81.5c-23.18,1.07-50.24-.25-79.24-.25ZM25.13,60.43c3.15,0,5.69,3.79,5.69,8.47s-2.54,8.47-5.69,8.47-5.69-3.79-5.69-8.47,2.55-8.47,5.69-8.47Zm7.24,20.5c6.67,0,7.49,4.3,13.11,11.63,2.8,5.34-.83,8.7-7.07,7.26A13.73,13.73,0,0,0,31.6,98c-3.46.12-4.33,2.33-8.35,2.17-3.1-.08-4.5-1.34-4.77-3.27s.52-3.33,1.51-5c3.84-6.58,7.82-11.77,12.38-10.95ZM14.14,73c-2.35.9-3.1,4.47-1.68,8s4.49,5.6,6.83,4.7,3.11-4.47,1.68-8S16.49,72.09,14.14,73Zm35.23,0c2.35.9,3.1,4.47,1.67,8s-4.48,5.6-6.83,4.7-3.1-4.47-1.68-8S47,72.09,49.37,73ZM38.27,60.31c3.14,0,5.69,3.79,5.69,8.47s-2.55,8.47-5.69,8.47-5.69-3.8-5.69-8.47,2.54-8.47,5.69-8.47ZM23,16.66h4.85V21.6H23V16.66Zm9.48,0h4.84V21.6H32.49V16.66Zm9.44,0h4.84V21.6H41.93V16.66ZM64.88,4.83H15.93V16.66H18.6V21.6h-3C12.55,27,9.57,32.53,6.53,38H58.21l6.52-16.36-13.18,0V16.66h0c4.39,0,8.82-.07,13.26-.07,0-3.95,0-7.83.07-11.76Zm3.71,19.26L64.08,38H76.29l-7.7-13.89ZM63.34,42.82v74.85H77.91l-.15-74.85Zm-58.9,0v74.85H59.06V42.82Z"/></svg>