<svg id="Layer_1" data-name="Layer 1" xmlns="http://www.w3.org/2000/svg" viewBox="0 0 45.63 122.88"><defs><style>.cls-1{fill-rule:evenodd;}</style></defs><title>plastic-soft-drink-bottle</title><path class="cls-1" d="M13.85,13.75H31.78v5.62C31.91,25.15,44.3,22.91,45.56,39A25.7,25.7,0,0,1,45,46.65c-3,1.55-2.43,8.19.13,8.81v1.48H.49V55.46c2.57-.62,3.09-7.26.14-8.81A25.54,25.54,0,0,1,.08,39c1.3-16,13.65-13.82,13.77-19.59V13.75Zm18.84-1.69H12.94a.86.86,0,0,1-.86-.86V3.3A3.26,3.26,0,0,1,13,1L13.05,1a3.28,3.28,0,0,1,2.33-1H30.25a3.26,3.26,0,0,1,2.33,1,3.3,3.3,0,0,1,1,2.33v7.9a.85.85,0,0,1-.86.86Zm12.45,47V81.46H.49V59.05Zm0,24.51v3.07c-3.14,1.39-2.6,7.87,0,9.25v20.4c-1.28,9.11-14.18,8.49-13.86,0a5.67,5.67,0,0,1-1.17,3.37c-4.15,5.47-15.64,3.68-15.76-3.37.33,8.49-12.58,9.11-13.86,0V95.88C3.1,94.5,3.63,88,.49,86.63V83.56ZM5.26,98.45a1.13,1.13,0,0,1,2.26,0v13.27a1.13,1.13,0,0,1-2.26,0V98.45ZM5.26,63a1.13,1.13,0,1,1,2.26,0V77.46a1.13,1.13,0,0,1-2.26,0V63ZM13,26.41a1.13,1.13,0,0,1,1.31,1.83,16.91,16.91,0,0,0-4.54,4.68,16.31,16.31,0,0,0-2.3,5.87,1.12,1.12,0,0,1-2.2-.42A18.5,18.5,0,0,1,7.9,31.7,19.15,19.15,0,0,1,13,26.41Z"/></svg>