<svg id="Layer_1" data-name="Layer 1" xmlns="http://www.w3.org/2000/svg" viewBox="0 0 63.57 122.88"><title>ketchup-sauce-bottle</title><path d="M4.15,40.82V113a5.74,5.74,0,0,0,5.71,5.71H53.72A5.75,5.75,0,0,0,59.43,113V40.6c-.15-1.88-3.32-3.52-8-4.79A73.68,73.68,0,0,0,36,33.69a96.12,96.12,0,0,0-16.86.74c-8.09,1.13-14.4,3.28-15,6.39ZM15.66,16.94h5.93L26.8,1.42a2.08,2.08,0,0,1,2-1.42h4.82a2.08,2.08,0,0,1,2,1.45l6.35,15.49h6A3.65,3.65,0,0,1,50.5,18l.15.17a3.66,3.66,0,0,1,.92,2.41v11l.93.24c6.45,1.75,10.83,4.6,11.06,8.61V113a9.88,9.88,0,0,1-9.85,9.86H9.86A9.9,9.9,0,0,1,0,113V40.69l0-.27c.57-4.14,5.31-7,12-8.8v-11A3.63,3.63,0,0,1,13.08,18h0a3.67,3.67,0,0,1,2.58-1.07Zm31.76,4.15H16.15v9.53a89.2,89.2,0,0,1,15.79-1.28,100,100,0,0,1,15.48,1.32V21.09ZM32.19,4.15H30.24L26,16.69h11.3L32.19,4.15Z"/></svg>