<svg id="Layer_1" data-name="Layer 1" xmlns="http://www.w3.org/2000/svg" viewBox="0 0 57.03 122.88"><title>small-plastic-bottle-drink</title><path d="M11.58,0h7.57V6.44a1.55,1.55,0,0,0,3.1,0V0H27.4V6.44a1.55,1.55,0,0,0,3.1,0V0h5.15V6.44a1.56,1.56,0,0,0,3.11,0V0h6.61a1.55,1.55,0,0,1,1.55,1.55V13.66a1.54,1.54,0,0,1-1.55,1.55H43v4.43a22.32,22.32,0,0,1,9.89,7.73A22.07,22.07,0,0,1,57,40.27v72.9c0,2.51-.1,4.76-1.11,6.56-1.11,2-3.1,3.15-6.77,3.15H9a9,9,0,0,1-9-9V41.27A23,23,0,0,1,4.37,27.78a23.32,23.32,0,0,1,10.4-8.1V15.21H11.58A1.54,1.54,0,0,1,10,13.66V1.55A1.55,1.55,0,0,1,11.58,0ZM3.1,42.63C13.3,46,22.52,43,30.71,40.45,39.4,37.71,47,35.3,53.92,40.23a18.93,18.93,0,0,0-3.57-11,19.33,19.33,0,0,0-9.34-7,1.55,1.55,0,0,1-1.14-1.49V15.21h-22v5.55a1.54,1.54,0,0,1-1.06,1.46,20.27,20.27,0,0,0-9.94,7.36A20,20,0,0,0,3.1,41.27v1.36Z"/></svg>