<svg id="Layer_1" data-name="Layer 1" xmlns="http://www.w3.org/2000/svg" viewBox="0 0 44.06 122.88"><title>soda-glass-bottles</title><path d="M12,122.78a15.81,15.81,0,0,1-6.79-.69,7.71,7.71,0,0,1-3.75-2.82A8.58,8.58,0,0,1,0,115.08a20.5,20.5,0,0,1,1.54-8.49C3.88,100.41,3,92.25,1.9,83,.38,69.71-1.38,54.25,5.67,38.36c.59-1.45,1.2-2.9,1.78-4.26,3.09-7.34,5-11.94,5.22-20.73a6.16,6.16,0,0,1-3.6-3.7,8.76,8.76,0,0,1-.58-2.83A7.89,7.89,0,0,1,8.9,4L9,3.83A5.26,5.26,0,0,1,13.65.2C15.2.09,19.34,0,23.1,0c3.07,0,5.95.06,7.12.21a5.56,5.56,0,0,1,4.48,3.5,7.58,7.58,0,0,1,.58,3.11A7.75,7.75,0,0,1,34.56,10a6.35,6.35,0,0,1-3.62,3.36c.18,8.52,2.15,13.11,5.13,20,.64,1.49,1.32,3.08,2.1,5l0,0c7,15.87,5.26,31.31,3.75,44.62-1,9-1.95,17,.18,23.17,1.42,4.11,2.57,8.27,1.56,11.49-1.1,3.53-4.41,5.69-11.83,5.09Zm1.3-14.42a1.71,1.71,0,0,1-3.2-1.19,22.69,22.69,0,0,0,1.17-5.06,39.75,39.75,0,0,0,.24-5.84,1.71,1.71,0,0,1,3.42-.07,44.68,44.68,0,0,1-.26,6.33,26.09,26.09,0,0,1-1.37,5.83Zm.88-22a1.71,1.71,0,0,1-3.4.37l-.79-7a1.71,1.71,0,0,1,3.4-.36l.79,7Zm.67-76.1,6.26,0a1.71,1.71,0,0,1,0,3.42l-5,0c-.22,9.2-2.27,14-5.5,21.69-.53,1.27-1.11,2.63-1.77,4.24l0,0c-.23.53-.46,1.07-.68,1.61h27.6c-.21-.51-.43-1-.65-1.53L35,39.66c-.7-1.71-1.42-3.39-2.09-4.95C29.62,27,27.49,22.05,27.49,12A1.73,1.73,0,0,1,29,10.27a3,3,0,0,0,2.44-1.76,4.57,4.57,0,0,0,.4-1.75,4.2,4.2,0,0,0-.31-1.71A2.27,2.27,0,0,0,29.78,3.6c-1-.12-3.69-.17-6.68-.17-3.73,0-7.76.08-9.21.18A2,2,0,0,0,12.17,5l0,.11a4.58,4.58,0,0,0-.23,1.62,5.35,5.35,0,0,0,.34,1.69,2.64,2.64,0,0,0,2.1,1.84h.05a1.61,1.61,0,0,1,.44.06ZM37,44.74H6.87A65.17,65.17,0,0,0,4,67.31H39.84A65.17,65.17,0,0,0,37,44.74Zm2.71,26H4.16c.25,4.11.71,8.1,1.14,11.91,1.1,9.64,2.07,18.17-.52,25.14a17.14,17.14,0,0,0-1.33,7,5.2,5.2,0,0,0,.82,2.53,4.28,4.28,0,0,0,2.12,1.56,12.77,12.77,0,0,0,5.35.47H32c5.46.46,7.76-.71,8.38-2.68.71-2.29-.3-5.82-1.53-9.37-2.38-6.88-1.43-15.24-.36-24.66.44-3.81.89-7.8,1.15-11.91Z"/></svg>