<?xml version="1.0" encoding="UTF-8"?>
<!DOCTYPE svg PUBLIC "-//W3C//DTD SVG 1.1//EN" "http://www.w3.org/Graphics/SVG/1.1/DTD/svg11.dtd">
<!-- Creator: CorelDRAW 2021 (64-Bit) -->
<svg xmlns="http://www.w3.org/2000/svg" xml:space="preserve" width="285px" height="512px" version="1.1" shape-rendering="geometricPrecision" text-rendering="geometricPrecision" image-rendering="optimizeQuality" fill-rule="evenodd" clip-rule="evenodd"
viewBox="0 0 285 512.15"
 xmlns:xlink="http://www.w3.org/1999/xlink"
 xmlns:xodm="http://www.corel.com/coreldraw/odm/2003">
 <g id="Layer_x0020_1">
  <metadata id="CorelCorpID_0Corel-Layer"/>
  <path fill="black" d="M133.81 0.08c-12.06,-0.73 -28.28,3.54 -37.04,11.03 -9.72,8.32 -6.01,12.69 -1.09,21.48l9.8 15.82c-17.84,1.25 -34.48,3.37 -48.2,6.12 -21.02,4.21 -35.86,10.6 -39.53,18.59 -1.06,2.3 -0.94,4.9 -1.04,7.37l-1.19 28.64c-0.36,0.44 -0.67,0.93 -0.9,1.48l-14.25 39.21c-0.48,1.31 -0.47,2.69 -0.08,3.92l0 288.24c0,2.23 1.2,4.17 2.98,5.24 3.82,2.56 7.93,4.96 12.29,7.21 22.16,78.72 241.45,75.14 253.77,0.14 4.62,-2.37 8.89,-4.91 12.77,-7.61 1.68,-1.18 2.59,-3.06 2.61,-4.98l0 -288.26c0.42,-1.3 0.39,-2.75 -0.16,-4.11l-13.57 -36.37c0.04,-0.41 0.04,-0.81 0,-1.22l-3.31 -29.08c-0.49,-4.24 -0.2,-8.67 -2.85,-12.15 -5.26,-6.9 -19.18,-12.47 -38.12,-16.26 -18.3,-3.66 -41.8,-6.22 -66.41,-7.08l-8.88 -30.8c-3.5,-11.22 -3.52,-15.71 -17.6,-16.57zm-21.05 60.07l10.19 16.43c12.75,16.2 45.7,4.02 41.85,-13.46l-0.96 -3.34c22.5,0.96 43.78,3.35 60.49,6.69 13.01,2.61 22.89,5.29 27.59,7.71 4.48,2.31 3.56,3.76 -0.62,5.68 -4.57,1.89 -13.21,3.89 -24.45,5.84 -45.57,7.93 -123.58,7.88 -169.44,-0.06 -14.38,-2.49 -24.63,-5.04 -27.53,-7.32 -1.08,-0.84 -1.11,-1.65 -0.12,-2.61 2.86,-2.78 14.07,-6.07 29.89,-9.24 14.87,-2.97 33.36,-5.19 53.11,-6.32zm-76.82 51.91c26.25,7.54 65.87,11.48 106.04,11.45 44.02,-0.03 88.43,-4.85 116.37,-14.93l-2.11 -18.5c-7,3.45 -17.08,6.15 -29.28,8.13 -46.63,7.58 -125.23,7.51 -171.69,-0.53 -10.98,-1.9 -20.16,-4.43 -26.79,-7.6l-0.75 17.85c1.79,1.44 4.58,2.82 8.21,4.13zm225.24 332.59c0.65,-0.3 1.33,-0.48 2,-0.54 3.32,-1.69 6.45,-3.47 9.35,-5.35l0 -278.08c-62.38,20.4 -209.21,18.57 -260.05,0.6l0 277.41c61.79,38.95 185.47,35.14 248.7,5.96zm-154.96 -420.67c-0.02,1.52 0.32,3.24 1.1,5.17 3.12,7.78 9.17,8.38 17.09,7.48 10.33,-1.18 21.09,-6.81 19.06,-13.64 -1.7,-4.92 -2.66,-6.9 -4.44,-9.04 -5.56,-6.67 -32.65,-0.97 -32.81,10.03z"/>
 </g>
</svg>
