<svg id="Layer_1" data-name="Layer 1" xmlns="http://www.w3.org/2000/svg" viewBox="0 0 96.02 122.88"><title>strawberry-jam</title><path d="M20.36,21.49A84.27,84.27,0,0,0,9.13,28a19.61,19.61,0,0,0-3.76,3.35,19.24,19.24,0,0,0,3.09,1.42,15.22,15.22,0,0,0,4.63.85c1.58.05,3.3-.75,5.09-1.58a19,19,0,0,1,7.41-2.21c2.68-.11,4.73.95,6.74,2a9.86,9.86,0,0,0,3.93,1.42,11.7,11.7,0,0,0,4.39-1.35,21,21,0,0,1,6.84-2.05,16.85,16.85,0,0,1,7.31,1.37,15.62,15.62,0,0,0,4.77,1.15,20.24,20.24,0,0,0,5.53-1.11,27.16,27.16,0,0,1,7.39-1.42,17.24,17.24,0,0,1,6.43,1.38,12,12,0,0,0,3.76.94,16.77,16.77,0,0,0,4.14-.51A17,17,0,0,0,89,31a13.23,13.23,0,0,0-3.44-3.45,60.53,60.53,0,0,0-10.82-6Zm28,43.09c3.27.11,6.56-.35,9-1.89a7.82,7.82,0,0,0,3.42-4.79,10.42,10.42,0,0,0-3,.14,7.23,7.23,0,0,0-3.14,1.45A1.16,1.16,0,0,1,53,59.31a1.13,1.13,0,0,1-.16-1.18A14.54,14.54,0,0,0,54,53.66v0a6.75,6.75,0,0,0-.22-2.4,5,5,0,0,0-2.23,1.43,9.75,9.75,0,0,0-2.15,4.22,1.16,1.16,0,0,1-1.42.82,1.14,1.14,0,0,1-.76-.64,15.1,15.1,0,0,0-2.83-4.4,4.46,4.46,0,0,0-1.93-1.19A5,5,0,0,0,42,54.1a7.42,7.42,0,0,0,1.57,3.6,1.17,1.17,0,0,1-.23,1.63,1.14,1.14,0,0,1-1.25.08,16.76,16.76,0,0,0-4.33-1.57,9.86,9.86,0,0,0-2.63-.18A8.48,8.48,0,0,0,39.58,63c2.39,1.17,5.46,1.49,8.76,1.6Zm-16.9,1.53a10.32,10.32,0,0,1,5.81-1.81,11.2,11.2,0,0,1-4.67-7.25l0-.07a1.15,1.15,0,0,1,.86-1.39,11.14,11.14,0,0,1,4.81,0,17.07,17.07,0,0,1,1.86.49,7.82,7.82,0,0,1-.38-1.71,7.41,7.41,0,0,1,1.1-4.7,1.14,1.14,0,0,1,1-.56A6,6,0,0,1,46,51a14.05,14.05,0,0,1,2.07,2.7,10.51,10.51,0,0,1,1.76-2.63,7.13,7.13,0,0,1,4.45-2.32,1.17,1.17,0,0,1,1.25.63,8.38,8.38,0,0,1,.76,4.4v0a13.57,13.57,0,0,1-.38,2.31,9.42,9.42,0,0,1,1.34-.37,13.7,13.7,0,0,1,5,0h.05a1.16,1.16,0,0,1,1,1.32A10.34,10.34,0,0,1,59,64.32a11.43,11.43,0,0,1,5,1.63,8.65,8.65,0,0,1,3,2.81c3.7,5.77-.86,17.36-4.19,22.4a56.82,56.82,0,0,1-12.77,13.19,2.87,2.87,0,0,1-3.88,0c-6.11-4.51-11-9.46-14.24-14.82-3.75-6.18-8.08-18.34-.58-23.45ZM51.27,96.36c1.21-1.5,1.65-2.44,1.65-3.27a1.64,1.64,0,0,0-1.65-1.68,1.53,1.53,0,0,0-1.55,1.66c0,.83.35,1.5,1.55,3.29ZM44.76,96c1.22-1.5,1.65-2.44,1.65-3.27A1.63,1.63,0,0,0,44.76,91a1.52,1.52,0,0,0-1.54,1.66c0,.83.35,1.5,1.54,3.29Zm-3.32-6c1.22-1.5,1.65-2.43,1.65-3.26A1.64,1.64,0,0,0,41.44,85a1.53,1.53,0,0,0-1.54,1.66c0,.83.35,1.5,1.54,3.29Zm13.2,0c1.22-1.5,1.65-2.43,1.65-3.26A1.64,1.64,0,0,0,54.64,85a1.52,1.52,0,0,0-1.54,1.66c0,.83.35,1.5,1.54,3.29Zm-6.7-.6c1.22-1.51,1.66-2.44,1.66-3.27a1.65,1.65,0,0,0-1.66-1.69,1.53,1.53,0,0,0-1.54,1.66c0,.83.35,1.51,1.54,3.3Zm10.34-5.76c1.21-1.5,1.65-2.44,1.65-3.27a1.64,1.64,0,0,0-1.65-1.68,1.53,1.53,0,0,0-1.55,1.66c0,.83.35,1.5,1.55,3.29ZM52,83.12c1.22-1.5,1.66-2.44,1.66-3.27A1.64,1.64,0,0,0,52,78.17a1.53,1.53,0,0,0-1.54,1.66c0,.83.35,1.5,1.54,3.29Zm-7.46,0c1.22-1.5,1.65-2.44,1.65-3.27a1.64,1.64,0,0,0-1.65-1.68A1.52,1.52,0,0,0,43,79.83c0,.83.35,1.5,1.54,3.29Zm-6.5,0c1.22-1.5,1.65-2.44,1.65-3.27a1.64,1.64,0,0,0-1.65-1.68,1.53,1.53,0,0,0-1.55,1.66c0,.83.36,1.5,1.55,3.29Zm23.1-7.35c1.22-1.5,1.65-2.43,1.65-3.26a1.64,1.64,0,0,0-1.65-1.69,1.53,1.53,0,0,0-1.54,1.66c0,.83.35,1.5,1.54,3.29Zm-6.55,0c1.22-1.5,1.66-2.43,1.66-3.26a1.65,1.65,0,0,0-1.66-1.69,1.53,1.53,0,0,0-1.54,1.66c0,.83.35,1.5,1.54,3.29Zm-6.32,0c1.22-1.5,1.65-2.43,1.65-3.26a1.64,1.64,0,0,0-1.65-1.69,1.53,1.53,0,0,0-1.54,1.66c0,.83.35,1.5,1.54,3.29Zm-7.34,0c1.22-1.5,1.65-2.43,1.65-3.26a1.64,1.64,0,0,0-1.65-1.69,1.53,1.53,0,0,0-1.55,1.66c0,.83.36,1.5,1.55,3.29Zm-6.4,0c1.22-1.5,1.65-2.43,1.65-3.26a1.64,1.64,0,0,0-1.65-1.69A1.52,1.52,0,0,0,33,72.48c0,.83.35,1.5,1.54,3.29ZM84.87,17.14l9,.61a2.32,2.32,0,1,1-.31,4.63l-8.18-.55c1.08.66,2.06,1.33,2.95,2,3.32,2.5,5.38,5.13,5.81,7.92A2.32,2.32,0,0,1,93,34.23,22.63,22.63,0,0,1,88.59,36a30.84,30.84,0,0,1,4.77,10A52.79,52.79,0,0,1,95,60.48v28h0c.17,10.11-2.23,18.1-7.32,23.91s-12.72,9.3-23.07,10.48a1.75,1.75,0,0,1-.4,0H32.31c-9.94-.39-17.2-3.73-22.31-9.28S2.12,100.66.88,91.79a1.86,1.86,0,0,1-.05-.48V62.2h0a53.4,53.4,0,0,1,2-17,29.45,29.45,0,0,1,3.89-8.05,24.24,24.24,0,0,1-5.62-2.93,2.34,2.34,0,0,1-1-2.67C.79,29.18,3,26.77,6.4,24.28a76.07,76.07,0,0,1,8.37-5.12,11.35,11.35,0,0,1-1.18-1h0a10.55,10.55,0,0,1,0-15h0A10.62,10.62,0,0,1,21.1,0h52a10.63,10.63,0,0,1,7.5,3.12h0a10.56,10.56,0,0,1,2.92,9.54l8.76-4a2.32,2.32,0,1,1,1.93,4.21l-9.33,4.25ZM73.08,4.65h-52A6,6,0,0,0,16.87,6.4h0a6,6,0,0,0,0,8.45h0a6,6,0,0,0,4.23,1.75h52a6,6,0,0,0,4.22-1.75h0a6,6,0,0,0,0-8.45h0a6,6,0,0,0-4.22-1.75ZM11.42,38.19a24.73,24.73,0,0,0-4.36,8.3A49.22,49.22,0,0,0,5.21,62.17v0h0v29c1.12,8,3.64,14.68,8,19.41s10.55,7.51,19.17,7.87H64.1c9.21-1.06,15.93-4.08,20.25-9s6.4-12,6.25-21v0h0v-28a49,49,0,0,0-1.46-13.23,26.56,26.56,0,0,0-5.48-10.41c-.32,0-.65,0-1,0a15.52,15.52,0,0,1-5.32-1.23,13.76,13.76,0,0,0-4.8-1.11,23.75,23.75,0,0,0-6.15,1.24A23.73,23.73,0,0,1,59.55,37a18.76,18.76,0,0,1-6.28-1.41,13.55,13.55,0,0,0-5.38-1.13,17.76,17.76,0,0,0-5.39,1.69,14.87,14.87,0,0,1-6.28,1.73,13,13,0,0,1-6-1.93,9.59,9.59,0,0,0-4.44-1.48,15.49,15.49,0,0,0-5.65,1.8c-2.28,1.05-4.47,2.07-7.16,2-.51,0-1,0-1.54-.11Z"/></svg>