<svg id="Layer_1" data-name="Layer 1" xmlns="http://www.w3.org/2000/svg" viewBox="0 0 49.81 122.88"><defs><style>.cls-1{fill:#f52b2b;}.cls-1,.cls-2,.cls-4,.cls-5,.cls-6,.cls-7,.cls-8{fill-rule:evenodd;}.cls-2{fill:#ccc;}.cls-3{fill:gray;}.cls-4{fill:#fff;}.cls-5{fill:#20ae54;}.cls-6{fill:#75aa00;}.cls-7{fill:#f23329;}.cls-8{fill:#d61d1d;}</style></defs><title>tomato-ketchup</title><path class="cls-1" d="M12.58,1.59C11.71,27.29,12.23,38,1.42,62.68A16.93,16.93,0,0,0,0,67.13v50.1a5.67,5.67,0,0,0,5.65,5.65H44.16a5.67,5.67,0,0,0,5.65-5.65V67.13a16.93,16.93,0,0,0-1.42-4.45C37.57,38,38.1,27.28,37.23,1.57A1.76,1.76,0,0,0,35.44,0H14.09a1.45,1.45,0,0,0-1.51,1.59Z"/><path class="cls-2" d="M12.58,1.59l-.34,10.63H37.57L37.23,1.57A1.76,1.76,0,0,0,35.44,0H14.09a1.45,1.45,0,0,0-1.51,1.59Z"/><path class="cls-3" d="M12.47,5.59V4.41H37.34V5.59h-8C29,7.91,26.05,8.48,24.9,8.48s-4.09-.59-4.46-2.89Z"/><path class="cls-4" d="M9.42,73.11h31A2.65,2.65,0,0,1,43,75.76v37.31a2.65,2.65,0,0,1-2.65,2.65h-31a2.65,2.65,0,0,1-2.64-2.65V75.76a2.65,2.65,0,0,1,2.64-2.65Z"/><path class="cls-5" d="M11,75.08H38.78a2.39,2.39,0,0,1,2.38,2.38v33.91a2.38,2.38,0,0,1-2.38,2.37H11a2.38,2.38,0,0,1-2.37-2.37V77.46A2.38,2.38,0,0,1,11,75.08Z"/><polygon class="cls-4" points="9.98 76.42 39.82 76.42 39.82 112.41 9.98 112.41 9.98 76.42 9.98 76.42"/><path class="cls-6" d="M24.84,89.45a29,29,0,0,0,.85,3.26,5.34,5.34,0,0,0,1.74-.43,6.39,6.39,0,0,0,1.6-.86c.35-.23.54-.13.52.46a2,2,0,0,1-.82,1.28h.07l-.25,0h0a2.81,2.81,0,0,1,2.14,2.21c0,.63-.15.92-.41.56-1.39-1.1-2.61-1.68-3.79-1.39a6.51,6.51,0,0,0,2.08,2.31,5.86,5.86,0,0,1-4.2-1.77c-1.39.68-3.43.5-4.19,1.56-.45.55-.54.27-.42-.47a3,3,0,0,1,1.7-2.27,4.83,4.83,0,0,1-2.57-.53,10,10,0,0,1,2.2-.35l-1.25-.5c-.22-.15-.12-.23.24-.27a13.37,13.37,0,0,1,4.06.33,6.82,6.82,0,0,0-.83-2.68l1.14-.74.39.26Z"/><path class="cls-7" d="M28.41,93.16a2.73,2.73,0,0,1,2.07,2.14c0,.6-.07.84-.32.49-1.34-1.06-2.59-1.58-3.73-1.29a6.34,6.34,0,0,0,2,2.31,5.68,5.68,0,0,1-4-1.8c-1.34.66-3.3.48-4,1.51-.43.53-.51.26-.4-.46a2.93,2.93,0,0,1,1.64-2.19A4.21,4.21,0,0,1,19,93.38a3.65,3.65,0,0,0-1.52.89h0l0,0a4.93,4.93,0,0,0-1.16,1.47,5.6,5.6,0,0,0-.57,1.86,9.14,9.14,0,0,0,1,5.16,7.8,7.8,0,0,0,3.47,3.55,9.19,9.19,0,0,0,3.13.84,13.3,13.3,0,0,0,3.93-.27,10.58,10.58,0,0,0,2.86-1,8.62,8.62,0,0,0,2.21-1.69A7.15,7.15,0,0,0,34,100.79a9.16,9.16,0,0,0-.2-4.22h0a7.84,7.84,0,0,0-.36-1,5,5,0,0,0-.47-.79,3.85,3.85,0,0,0-2.09-1.49,6.16,6.16,0,0,0-2.5-.16Z"/><path class="cls-8" d="M21.23,94a2.85,2.85,0,0,1,.35-.17h-.34a.92.92,0,0,0,0,.16Zm11.23,7.35a.32.32,0,0,1-.63-.12,7.66,7.66,0,0,0,.1-2.58,5.14,5.14,0,0,0-.67-1.93.3.3,0,0,1,.1-.43.32.32,0,0,1,.44.11,5.83,5.83,0,0,1,.76,2.16,8.37,8.37,0,0,1-.1,2.79ZM17.13,94.56a4.72,4.72,0,0,0-.89,1.21,5.6,5.6,0,0,0-.57,1.86,9.14,9.14,0,0,0,1,5.16,7.8,7.8,0,0,0,3.47,3.55,9.19,9.19,0,0,0,3.13.84,14,14,0,0,0,3.93-.27,10.58,10.58,0,0,0,2.86-1,8.62,8.62,0,0,0,2.21-1.69,7,7,0,0,0,1.56-2.66c-3.91,7.29-19.47,4.93-16.69-7Z"/><path d="M16.48,81.68v.88H15.6v3.67H14.36V82.56h-.88v-.88Zm1.55,0h1c.7,0,1.05.29,1.05.88v2.79c0,.59-.35.88-1.05.88H18c-.69,0-1-.29-1-.88V82.56c0-.59.35-.88,1-.88Zm.86,3.51V82.72c0-.1-.06-.16-.18-.16h-.3c-.12,0-.18.06-.18.16v2.47c0,.11.06.16.18.16h.3c.12,0,.18,0,.18-.16Zm3.11,1H20.89V81.68h1.35L23,84.11l.74-2.43h1.36v4.55H24V83.34l-.57,1.91h-.85L22,83.35v2.88Zm6.18,0L28,85.55h-1.1l-.14.68H25.57l1.18-4.55h1.51l1.17,4.55Zm-1-1.56h.71L27.5,83l-.36,1.64Zm5.53-3v.88h-.88v3.67H30.55V82.56h-.87v-.88Zm1.56,0h1.05c.7,0,1,.29,1,.88v2.79c0,.59-.34.88-1,.88H34.23c-.7,0-1-.29-1-.88V82.56c0-.59.35-.88,1-.88Zm.85,3.51V82.72c0-.1-.06-.16-.18-.16h-.3a.15.15,0,0,0-.17.16v2.47c0,.11.06.16.17.16h.3c.12,0,.18,0,.18-.16Z"/></svg>