<?xml version="1.0" encoding="utf-8"?><svg version="1.1" id="Layer_1" xmlns="http://www.w3.org/2000/svg" xmlns:xlink="http://www.w3.org/1999/xlink" x="0px" y="0px" viewBox="0 0 82.89 122.88" style="enable-background:new 0 0 82.89 122.88" xml:space="preserve"><g><path d="M82.89,2.55v35.68c0,21.86-13.5,42.16-35.63,43.82v33.22h17.12c1.42,0,2.55,2.4,2.55,3.8s-1.15,3.8-2.55,3.8H22.12 c-1.42,0-2.55-2.4-2.55-3.8s1.15-3.8,2.55-3.8h15.03V82.15C14.33,81.22,0,60.74,0,38.23V2.55C0,1.15,1.15,0,2.55,0h77.79 C81.75,0,82.89,1.15,82.89,2.55L82.89,2.55L82.89,2.55z M52.14,5.95l-4.57,18.28l11.04-1.98c2.04-0.36,3.99,1,4.35,3.03 c0.11,0.61,0.06,1.22-0.11,1.77L57.4,51.82c-0.44,2.02-2.44,3.29-4.46,2.84c-2.01-0.44-3.29-2.44-2.84-4.46l4.32-19.58l-11.22,2.01 c-0.5,0.09-1.04,0.07-1.57-0.06c-2.01-0.5-3.23-2.54-2.73-4.54l5.52-22.08H7.18v27.09v2.48v2.7c0,20.91,13.36,36.77,34.27,36.77 s34.27-15.87,34.27-36.77v-3.16V31.9V5.95H52.14L52.14,5.95z M75.72,31.9L75.72,31.9L75.72,31.9z"/></g></svg>