<svg id="Layer_1" data-name="Layer 1" xmlns="http://www.w3.org/2000/svg" viewBox="0 0 122.88 113.21"><defs><style>.cls-1{fill:#fff;}.cls-1,.cls-2{fill-rule:evenodd;}</style></defs><title>courier</title><path class="cls-1" d="M82.42,60a3.52,3.52,0,1,0,3.2,3.51A3.36,3.36,0,0,0,82.42,60Z"/><path class="cls-2" d="M76.64,113.21l1.25-32.57c-8.45,8.48-15,14.79-27.82,15.12-4.06-.15-14.62-.46-18.68-.91C26.44,94.29,23,94.5,19.85,90,15,83,21.41,74.84,27.71,76.15c7.11.63,24,2.24,28.85-3.71,5-4.8,8.9-11.5,15.44-13.63,36.83-12,50.8-7.64,50.79,5.9l0,48.5ZM56.5,29.66,40.2,20,47,19.3l20.74,9.11L56.5,29.66ZM17.27,37.23V70.57a17.77,17.77,0,0,0-6.2,9.26L0,73.22.34,26.56,17.27,37.23Zm7.09-15.15,16.81,9.54L19.3,34.41,4,24.75l20.39-2.67Zm-3.61,46.4V37.72l22.79-2.91.75,21.78,8-5.45,8,4.53L58.64,32.89,72.3,31.32V47.74c-5.31,2.62-9.06,7-12.81,11.45a71.69,71.69,0,0,1-4.82,5.33,6.31,6.31,0,0,0-.55.6C50.71,69.31,38.6,68.19,31,67.49c-3.1-.29,4,.32-1.59-.17a15.09,15.09,0,0,0-8.63,1.16ZM83.5,7.6H67.92c-.52,0-.79.45-.93,1l-1.81,6.51c-.14.5.42,1,.93,1H78.69a24.27,24.27,0,0,0-1.16,7.43c0,13,10.15,23.46,22.68,23.46s22.67-10.5,22.67-23.46S112.73,0,100.21,0A22.3,22.3,0,0,0,83.5,7.6Z"/></svg>