<?xml version="1.0" encoding="utf-8"?><svg version="1.1" id="Layer_1" xmlns="http://www.w3.org/2000/svg" xmlns:xlink="http://www.w3.org/1999/xlink" x="0px" y="0px" viewBox="0 0 122.88 76.76" style="enable-background:new 0 0 122.88 76.76" xml:space="preserve"><style type="text/css">.st0{fill-rule:evenodd;clip-rule:evenodd;}</style><g><path class="st0" d="M110.7,64.75c0,3.31-1.1,6.15-3.34,8.49c-2.21,2.34-4.91,3.52-8.06,3.52c-3.17,0-5.86-1.18-8.08-3.52 c-2.21-2.34-3.33-5.18-3.33-8.49c0-3.32,1.12-6.15,3.33-8.49c2.22-2.36,4.91-3.52,8.08-3.52c3.15,0,5.84,1.16,8.06,3.52 C109.6,58.59,110.7,61.43,110.7,64.75L110.7,64.75z M100.12,20.9h22.76v17.79h-22.76V20.9L100.12,20.9z M95.95,20.9H73.19v17.79 h22.76V20.9L95.95,20.9z M69.02,20.9H46.26v17.79h22.76V20.9L69.02,20.9z M100.12,17.79h22.76V0h-22.76V17.79L100.12,17.79z M95.95,17.79H73.19V0h22.76V17.79L95.95,17.79z M69.02,17.79H46.26V0h22.76V17.79L69.02,17.79z M99.76,60.92 c2.11,0,3.83,1.71,3.83,3.83c0,2.11-1.71,3.83-3.83,3.83c-2.11,0-3.83-1.71-3.83-3.83C95.94,62.63,97.65,60.92,99.76,60.92 L99.76,60.92z M27.18,60.92c2.11,0,3.83,1.71,3.83,3.83c0,2.11-1.71,3.83-3.83,3.83c-2.11,0-3.83-1.71-3.83-3.83 C23.35,62.63,25.07,60.92,27.18,60.92L27.18,60.92z M38.52,64.75c0,3.31-1.1,6.15-3.33,8.49c-2.22,2.34-4.91,3.52-8.06,3.52 c-3.17,0-5.86-1.18-8.08-3.52c-2.22-2.34-3.33-5.18-3.33-8.49c0-3.32,1.12-6.15,3.33-8.49c2.22-2.36,4.91-3.52,8.08-3.52 c3.15,0,5.84,1.16,8.06,3.52C37.42,58.59,38.52,61.43,38.52,64.75L38.52,64.75z M122.36,70.98h-8.47c0.74-1.91,1.11-3.99,1.11-6.23 c0-4.53-1.5-8.4-4.55-11.59c-3.02-3.22-6.7-4.8-11-4.8c-4.33,0-8,1.58-11.03,4.8c-3.02,3.2-4.55,7.07-4.55,11.59 c0,2.24,0.37,4.32,1.12,6.23H45.62V42.84h76.73V70.98L122.36,70.98z M42.71,53.87l-2.82,1.4c-0.51-0.74-1.09-1.45-1.74-2.14 c-3.03-3.23-6.71-4.82-11.01-4.82c-4.33,0-8.02,1.59-11.05,4.82c-3.03,3.2-4.56,7.08-4.56,11.61c0,1.53,0.52,4.86,0.87,6.24 L0,70.98c0-11.61,0-23.22,0-34.84c0-4.53,2.89-6.8,8.69-6.8l3.26,0l8.36-17.41c1.16-2.78,3.26-4.16,6.23-4.16h16.17V53.87 L42.71,53.87z M37.37,37.34V17.27H22.97l-7.62,20.08H37.37L37.37,37.34L37.37,37.34z"/></g></svg>