<svg xmlns="http://www.w3.org/2000/svg" shape-rendering="geometricPrecision" text-rendering="geometricPrecision" image-rendering="optimizeQuality" fill-rule="evenodd" clip-rule="evenodd" viewBox="0 0 366 511.98"><path d="M8.39 509.05c-4.75 0-8.39-3.99-8.39-9V149c0-2.17.68-4.2 1.95-5.75l40.47-70.51V8.99c0-4.93 3.66-8.99 8.27-8.99h260.83c3.98 0 7.37 3.1 8.11 7.24l4.28 70.01L366 151.5l-1.31 358.46-16.06.61-41.79.93c-85.05 1.89-221.83-2.45-298.45-2.45zm52.78-139.77c61.58-.12 123.11-.18 184.69 0 3.66.02 6.66 3 6.66 6.66 0 9.95-4.17 29.42-26.68 29.42H81.17c-22.51 0-26.69-19.47-26.69-29.42 0-3.66 3.01-6.64 6.69-6.66zm137.87-102.62c5.66 0 10.27 4.59 10.27 10.27 0 5.66-4.59 10.26-10.27 10.26-5.65 0-10.26-4.59-10.26-10.26.02-5.66 4.61-10.27 10.26-10.27zm-89.46.73c5.66 0 10.27 4.59 10.27 10.26 0 5.66-4.59 10.27-10.27 10.27-5.66 0-10.26-4.59-10.26-10.27 0-5.67 4.58-10.26 10.26-10.26zm44.37-9.78c5.66 0 10.26 4.58 10.26 10.26 0 5.66-4.58 10.26-10.26 10.26-5.66 0-10.27-4.59-10.27-10.26.02-5.68 4.61-10.26 10.27-10.26zm83.18 53.06H72.02c-10.49 0-19.09-8.58-19.09-19.07 0-27.18 54.14-46.91 99.6-47.38 89.45-.89 129.59 66.45 84.6 66.45zm14.95 26.17a3 3 0 0 1 .43 1.53c0 .35-.02.73-.03 1.11.03.38.03.76.03 1.11a3 3 0 0 1-.43 1.53c-1.52 6.62-7.59 15.28-26.24 15.28H81.17c-18.66 0-24.72-8.65-26.24-15.28a3 3 0 0 1-.43-1.53c0-.35.02-.73.03-1.11-.03-.38-.03-.76-.03-1.11a3 3 0 0 1 .43-1.53c1.52-6.62 7.59-15.28 26.24-15.28h74.91l27.62 28.53 27.44-28.53h14.7c18.66.02 24.72 8.66 26.24 15.28zm-145.9-275.2h39v18.27h-39V61.64zm56.12 0h38.99v18.27H162.3V61.64h21.06-21.06zm55.97 0h17.93v18.27h-17.93V61.64zm84.92-43.78H58.93v43.78h30.95v18.27H57.85c-11.43 20.03-22.46 40.4-33.7 60.56h264.87l13.61-60.49c-14.15 0-34.63-.07-48.76-.07V61.64c16.24 0 32.61-.27 49.05-.27.07-14.62.14-28.96.27-43.51zm13.72 71.25-6.16 51.36h34.64l-28.48-51.36zm-8.9 69.29v332.78h38.09l-.55-332.78h-37.54zm-291.56 0v332.78h275.73V158.4H16.45z"/></svg>