<svg xmlns="http://www.w3.org/2000/svg" shape-rendering="geometricPrecision" text-rendering="geometricPrecision" image-rendering="optimizeQuality" fill-rule="evenodd" clip-rule="evenodd" viewBox="0 0 366 511.98"><path d="M8.39 509.05c-4.75 0-8.39-3.99-8.39-9V149c0-2.17.68-4.2 1.95-5.75l40.47-70.51V8.99c0-4.93 3.66-8.99 8.27-8.99h260.83c3.98 0 7.37 3.1 8.11 7.24l4.28 70.01L366 151.5l-1.31 358.46-16.06.61-41.79.93c-85.05 1.89-221.83-2.45-298.45-2.45zm171.99-98.96-.17-91.78c-33.46-19.34-22.8-93.84 10.69-93.43 40.7.47 45.52 83.95 10.52 93.13l2.59 92.46c.49 18.18-23.61 19.86-23.63-.38zM128.87 308.4c8.67-5.93 13.03-13.67 12.28-31.37v-45.54c-.08-6.36-11.62-7.13-12.2 0l-.44 36.94c-.03 6.91-10.41 7.13-10.38 0l.44-38.21c-.14-6.82-11.16-7.51-11.29 0 0 10.61-.44 27.61-.44 38.21.55 6.69-9.1 7.57-8.85 0l.44-37.96c-.24-5.15-5.92-6.99-9.78-4.57-4.1 2.62-3.27 7.88-3.44 12.31l-1.43 43.58c.22 12.67 3.55 22.97 13.47 27.35 1.52.66 3.61 1.18 6.03 1.54l-3.41 102.6c-.19 6.31 4.96 11.46 10.98 11.46h1.38c6.81 0 12.56-5.81 12.37-12.89l-3-101.2c3.17-.49 5.78-1.24 7.27-2.25zM106.18 61.64h39v18.27h-39V61.64zm56.12 0h38.99v18.27H162.3V61.64h21.06-21.06zm55.97 0h17.93v18.27h-17.93V61.64zm84.92-43.78H58.93v43.78h30.95v18.27H57.85c-11.43 20.03-22.46 40.4-33.7 60.56h264.87l13.61-60.49c-14.15 0-34.63-.07-48.76-.07V61.64c16.24 0 32.61-.27 49.05-.27.07-14.62.14-28.96.27-43.51zm13.72 71.25-6.16 51.36h34.64l-28.48-51.36zm-8.9 69.29v332.78h38.09l-.55-332.78h-37.54zm-291.56 0v332.78h275.73V158.4H16.45z"/></svg>