<?xml version="1.0" encoding="utf-8"?><svg version="1.1" id="Layer_1" xmlns="http://www.w3.org/2000/svg" xmlns:xlink="http://www.w3.org/1999/xlink" x="0px" y="0px" viewBox="0 0 122.88 78.19" style="enable-background:new 0 0 122.88 78.19" xml:space="preserve"><style type="text/css">.st0{fill-rule:evenodd;clip-rule:evenodd;}</style><g><path class="st0" d="M67.77,57.86c5.53,0,10.01,4.48,10.01,10.01c0,5.53-4.48,10.01-10.01,10.01c-5.53,0-10.01-4.48-10.01-10.01 C57.76,62.34,62.24,57.86,67.77,57.86L67.77,57.86z M86.09,20.93h13.6c0.7,0,1.27,0.57,1.27,1.27v14.22c0,0.7-0.57,1.27-1.27,1.27 h-13.6c-0.7,0-1.27-0.57-1.27-1.27V22.2C84.82,21.5,85.39,20.93,86.09,20.93L86.09,20.93z M104.9,0h14.23 c0.7,0,1.27,0.57,1.27,1.27v14.23c0,0.69-0.57,1.27-1.27,1.27H104.9c-0.69,0-1.27-0.57-1.27-1.27V1.27C103.63,0.57,104.2,0,104.9,0 L104.9,0z M86.09,0h13.6c0.7,0,1.27,0.57,1.27,1.27v14.23c0,0.7-0.57,1.27-1.27,1.27h-13.6c-0.7,0-1.27-0.57-1.27-1.27V1.27 C84.82,0.57,85.39,0,86.09,0L86.09,0z M104.9,20.93h14.23c0.7,0,1.27,0.57,1.27,1.27v14.22c0,0.69-0.57,1.27-1.27,1.27H104.9 c-0.69,0-1.27-0.57-1.27-1.27V22.2C103.63,21.5,104.2,20.93,104.9,20.93L104.9,20.93z M70.96,7.78h8.28v9.75h1.56 c-0.4,8.77-0.61,17.3,1.39,23.03h40.69v6.96h-33.1h-7.85h-2.68v4.46h-0.16l3.66,0.18v18.15h-2.9c0.15-0.76,0.23-1.54,0.23-2.34 c0-6.76-5.48-12.25-12.25-12.25c-6.76,0-12.25,5.48-12.25,12.25c0,0.8,0.08,1.59,0.23,2.34h-28.4c0.06-0.46,0.09-0.93,0.09-1.41 c0-6.38-5.18-11.56-11.56-11.56c-6.38,0-11.56,5.18-11.56,11.56c0,0.48,0.03,0.95,0.09,1.41H2c-1.09-1.45-1.72-3.5-2-5.97V36.37 h17.07c0-0.05,0-0.1,0.01-0.15l1.83-23.6h-1.18c-1.13,0-2.05-0.92-2.05-2.05c0-1.13,0.92-2.05,2.05-2.05h13.94 c9.12,0,14.16,0.88,17.86,3.94c3.65,3.03,5.55,7.84,8.5,15.83l7.4,20.05l0.02,0.06l2.53,3.02l2.98,0.15V7.78L70.96,7.78z M57.65,39.09l-3.47-9.39c-2.71-7.33-4.42-11.73-7.27-14.09c-2.81-2.32-7.15-2.99-15.24-2.99h-8.65l-1.86,23.91 c-0.01,0.09-0.02,0.19-0.04,0.28l-0.96,12.41L42.2,60.85l10.35,0.14c0.41-1.05,0.88-2.02,1.42-2.91l-10.84-0.03l-16.7-8.79 l-0.93-0.6l-0.7-16.41c-0.02-0.51,0.42-0.92,0.92-0.92h2.99c2.94,0,3.91,6.2,3.91,9.55h5.02c6.77,0,5.84,6.58,5.84,11.2v1.35 l12.01,0.35l-9.36-15.92l2.1-1.41l-1.38-2.07l2.16-1.54l1.49,2.09l2.33-1.56L57.65,39.09L57.65,39.09z M56.02,55.47 c0.1-0.1,0.2-0.2,0.31-0.3l-0.21-0.36L56.02,55.47L56.02,55.47z M42.2,32.91l7.49-5.08l1.41,2.03l-7.52,5.02L42.2,32.91L42.2,32.91 z M67.77,62.31c3.07,0,5.56,2.49,5.56,5.56c0,3.07-2.49,5.56-5.56,5.56c-3.07,0-5.56-2.49-5.56-5.56 C62.21,64.8,64.7,62.31,67.77,62.31L67.77,62.31z M15.92,59.61c5.13,0,9.29,4.16,9.29,9.29c0,5.13-4.16,9.29-9.29,9.29 c-5.13,0-9.29-4.16-9.29-9.29C6.62,63.77,10.78,59.61,15.92,59.61L15.92,59.61z M15.92,63.74c2.85,0,5.16,2.31,5.16,5.16 c0,2.85-2.31,5.16-5.16,5.16s-5.16-2.31-5.16-5.16C10.76,66.05,13.07,63.74,15.92,63.74L15.92,63.74z"/></g></svg>