<svg id="Layer_1" data-name="Layer 1" xmlns="http://www.w3.org/2000/svg" viewBox="0 0 122.88 107.3"><title>handle-with-care-symbol</title><path d="M91.47,14.38l.16,30.9a3.85,3.85,0,0,1-2.46,3.58v0L63.62,59.21V25.78L91.46,14.07c0,.11,0,.21,0,.31ZM69.38,93.23H90.72a1.27,1.27,0,0,0,1-.43c1.62-1.6,3.41-3.29,5.22-5l.28-.27c4-3.79,9.4-6.55,13.68-11.48,5.1-5.88,5.64-7.91,7.19-13.65.27-1.2.66-2.45,1-3.65l2.57-9a24.82,24.82,0,0,0,1.21-5,8.81,8.81,0,0,0-.32-4,4.41,4.41,0,0,0-.44-.87l-.06-.07a2.45,2.45,0,0,0-.64-.61,2.29,2.29,0,0,0-.79-.33h-.11a2.57,2.57,0,0,0-.68,0,3.78,3.78,0,0,0-1.57.54,6,6,0,0,0-1.33,1.1,1.38,1.38,0,0,0-.23.36c-1.83,4.38-5.57,15-7.79,18.39a7.2,7.2,0,0,1-.69,1,9.16,9.16,0,0,1-.91,1C102.7,66.2,97,70.11,92.53,75.12a.7.7,0,0,1-.49.24.71.71,0,0,1-.52-.18l-.06-.05a.68.68,0,0,1-.19-.46.69.69,0,0,1,.17-.51C95.28,69.74,101,62.8,105,59a7,7,0,0,0,1.62-2.3A4.35,4.35,0,0,0,107,54l0-.12a3.18,3.18,0,0,0-.25-.63,2.37,2.37,0,0,0-.49-.65l0,0a2.23,2.23,0,0,0-.67-.44,2.49,2.49,0,0,0-.76-.19,5,5,0,0,0-3.17.94,14.27,14.27,0,0,0-3,2.79c-1.66,1.62-3.92,3.19-5.43,4.82a52.65,52.65,0,0,1-6.46,5.38A51.94,51.94,0,0,1,81,69.16l-.58.31-2.63,1.4a8.31,8.31,0,0,0-.83.5c-.28.19-.54.37-.79.56l-.78.62-.72.6a21.06,21.06,0,0,0-2.92,2.92A10.92,10.92,0,0,0,70,79a15.73,15.73,0,0,0-.89,3.35c-.21,1.19-.37,2.53-.55,4.08-.06.54-.13,1.17-.19,1.88l-.16,1.9c0,.6-.08,1.14-.11,1.67v0a1.25,1.25,0,0,0,1.18,1.32Zm0,2.73a1.26,1.26,0,0,0-1.26,1.26v7.84a1.26,1.26,0,0,0,1.26,1.26H92.2a1.25,1.25,0,0,0,1.26-1.26V97.22a1.24,1.24,0,0,0-.8-1.17A1.18,1.18,0,0,0,92.2,96H69.33ZM53.5,94.21H32.16a1.26,1.26,0,0,1-1-.44c-1.61-1.6-3.4-3.29-5.21-5l-.28-.27C21.7,84.71,16.31,82,12,77c-5.1-5.88-5.65-7.91-7.19-13.65-.27-1.2-.66-2.45-1-3.64l-2.56-9a24.67,24.67,0,0,1-1.21-5,8.81,8.81,0,0,1,.32-4,4,4,0,0,1,.44-.86l.06-.08a2.62,2.62,0,0,1,.64-.61,2.29,2.29,0,0,1,.79-.33h.11a2.57,2.57,0,0,1,.68,0,3.93,3.93,0,0,1,1.57.54A6,6,0,0,1,6,41.46a1.16,1.16,0,0,1,.23.36c1.84,4.38,5.58,15,7.8,18.39a7.2,7.2,0,0,0,.69,1,9.16,9.16,0,0,0,.91,1c4.54,4.93,10.25,8.84,14.71,13.86a.73.73,0,0,0,.49.23.71.71,0,0,0,.52-.18l.06,0a.74.74,0,0,0,0-1C27.6,70.73,21.92,63.78,17.84,60a7,7,0,0,1-1.62-2.3A4.28,4.28,0,0,1,15.93,55l0-.11a3,3,0,0,1,.25-.64,2.37,2.37,0,0,1,.49-.65l0,0a2.28,2.28,0,0,1,.68-.44,2.82,2.82,0,0,1,.76-.19,5,5,0,0,1,3.17.94,14.27,14.27,0,0,1,3,2.79c1.65,1.62,3.92,3.19,5.43,4.82a52.65,52.65,0,0,0,6.46,5.38,53.65,53.65,0,0,0,5.66,3.25l.58.3,2.63,1.4a7.78,7.78,0,0,1,.83.51c.28.18.54.37.79.55l.78.62.72.61a20.52,20.52,0,0,1,2.92,2.91A11.2,11.2,0,0,1,52.85,80a15.73,15.73,0,0,1,.89,3.35c.21,1.19.37,2.53.55,4.08.06.54.13,1.17.19,1.88l.16,1.9c0,.61.08,1.15.11,1.67v.06a1.25,1.25,0,0,1-1.19,1.31Zm0,2.73a1.27,1.27,0,0,1,1.26,1.26v7.85a1.26,1.26,0,0,1-1.26,1.25H30.68a1.25,1.25,0,0,1-1.26-1.25V98.2a1.24,1.24,0,0,1,.8-1.17,1.18,1.18,0,0,1,.46-.09H53.55Zm5.58-37.83L33.68,49.38v0a4,4,0,0,1-2.43-3.69l.15-30.51v-.07L59.13,25.83V59.11ZM33.29,11a3.73,3.73,0,0,1,.63-.32h0L59.75.3a4.09,4.09,0,0,1,3.15,0L88.69,9.65a4.27,4.27,0,0,1,.8.4L61.34,21.88,33.29,11Z"/></svg>