<svg id="Layer_1" data-name="Layer 1" xmlns="http://www.w3.org/2000/svg" viewBox="0 0 122.88 105.94"><defs><style>.cls-1{fill-rule:evenodd;}</style></defs><title>home-delivery</title><path class="cls-1" d="M0,76.68H58.63v5.25H0V76.68ZM98.51,7H91.6c-.3,0-.45.26-.53.55l-1,3.7c-.08.29.24.55.53.55h5.2A13.78,13.78,0,0,0,95.11,16,12.93,12.93,0,1,0,121,16,13.15,13.15,0,0,0,108,2.67,12.69,12.69,0,0,0,98.51,7Zm21.38,65.21,3,26.72c-.08,8.47-11.48,9.29-12.72,2.31L108,75.38,105,99.76c-2.69,9.47-13.78,5.93-12.72-1.28l1.9-11L95.8,69c-2.68-7.19-.33-12-.49-20.42C90.5,53.45,86.77,57,79.46,57.23c-2.31-.09-6-.26-8.31-.52-2.82-.32-4.8-.2-6.57-2.75-2.78-4,.89-8.65,4.47-7.9,4,.36,11.36,1.27,14.11-2.12,2.86-2.73,5.07-6.55,8.8-7.76,21-6.82,26.21-4.15,28,3.36.52,2.12,1.18,18.57,1,22.8s-.36,8-1,9.87ZM63.21,26.77V43.31a9.23,9.23,0,0,0-1.9,2,8.83,8.83,0,0,0-1.17,2.55l-5.49-3.28.16-23.15,8.4,5.3Zm3.52-7.52L75.07,24,64.22,25.37l-7.6-4.79,10.11-1.33Zm-1.79,23V27l11.31-1.44.37,10.8,4-2.7,4,2.24-.82-11.3,6.78-.77V32c-2.64,1.3-4.5,3.49-6.36,5.68a33.32,33.32,0,0,1-2.39,2.64l-.28.3C79.8,42.68,73.8,42.13,70,41.78c-1.54-.14,2,.16-.79-.08a7.43,7.43,0,0,0-4.28.57ZM82.68,23l-8.09-4.79L78,17.87l10.29,4.52L82.68,23ZM51.58,74.32V0H7.05V74.32ZM14.87,36l4.72-2.11V48.61l-4.72-1.32V36Z"/></svg>