<svg id="Layer_1" data-name="Layer 1" xmlns="http://www.w3.org/2000/svg" viewBox="0 0 122.88 109.58"><defs><style>.cls-1{fill-rule:evenodd;}</style></defs><title>international-product-import</title><path class="cls-1" d="M102.76,58v37L88,88.44,73.1,95.61V58H60.56a2.8,2.8,0,0,0-2.78,2.79v41.11a2.78,2.78,0,0,0,2.78,2.77h54.75a2.79,2.79,0,0,0,2.77-2.77V60.81A2.79,2.79,0,0,0,115.31,58ZM42.68,55.91H24.16C24.45,63.33,27,70.69,31.59,78H42.68v4.69H34.86a86.33,86.33,0,0,0,7.82,8.85V98A92.37,92.37,0,0,1,29.11,82.71H14.3A48.26,48.26,0,0,0,26.19,94.05a48.72,48.72,0,0,0,8.39,4.53s.06,0,.09.07a47.32,47.32,0,0,0,8,2.57v4.83A50.56,50.56,0,0,1,32.81,103a.24.24,0,0,1-.13-.07,57.74,57.74,0,0,1-9.13-5,50.81,50.81,0,0,1-7.9-6.49,49.16,49.16,0,0,1-6.49-7.9,55,55,0,0,1-4.95-9.13A50.92,50.92,0,0,1,1.06,64.33a55.19,55.19,0,0,1,0-21.53,49.57,49.57,0,0,1,3.09-10,.25.25,0,0,1,.06-.13,56,56,0,0,1,5-9.13,50.81,50.81,0,0,1,6.49-7.9,49.61,49.61,0,0,1,7.9-6.49,55.41,55.41,0,0,1,9.13-4.95A51.13,51.13,0,0,1,42.8,1.06a55.19,55.19,0,0,1,21.53,0,49.57,49.57,0,0,1,10,3.09.22.22,0,0,1,.13.06,57.3,57.3,0,0,1,9.13,5,50.81,50.81,0,0,1,7.9,6.49A49.07,49.07,0,0,1,98,23.55a55.81,55.81,0,0,1,5,9.13,50.47,50.47,0,0,1,3.15,10.12c.07.34.14.69.2,1h-4.78l0-.1a45.75,45.75,0,0,0-2.85-9.19,53.81,53.81,0,0,0-2.7-5.43H80.24a55.9,55.9,0,0,1,6.13,14.72H81.54a53.74,53.74,0,0,0-6.8-14.72H55.91V43.83h-4l-.69,0V29.11H32.39q-7.23,11.24-8.13,22.11h18.6a9,9,0,0,0-.18,1.47v3.22ZM11.22,78h14.9a47.76,47.76,0,0,1-6.65-22.11H4.76a49.77,49.77,0,0,0,.9,7.49,45.75,45.75,0,0,0,2.85,9.19A51.84,51.84,0,0,0,11.22,78ZM4.76,51.22H19.57A51.13,51.13,0,0,1,26.9,29.11H11.22a49.9,49.9,0,0,0-2.7,5.43s0,.07-.07.1A47.91,47.91,0,0,0,4.76,51.22Zm9.51-26.8H29.91A111.08,111.08,0,0,1,47.59,5c-1.32.17-2.6.36-3.86.62a45.75,45.75,0,0,0-9.19,2.85,52.18,52.18,0,0,0-8.38,4.54A45.84,45.84,0,0,0,19,19a45.54,45.54,0,0,0-4.69,5.43v0ZM59.54,5.05A108.25,108.25,0,0,1,77.21,24.42H92.86A48.26,48.26,0,0,0,81,13.08a49,49,0,0,0-8.38-4.53s-.07,0-.1-.07A46.44,46.44,0,0,0,63.4,5.69c-1.29-.26-2.57-.45-3.86-.61v0ZM55.91,8.1V24.42H71.46A109.6,109.6,0,0,0,55.91,8.1ZM51.22,24.42V8.1A109.6,109.6,0,0,0,35.67,24.42ZM87.94,81.28l10-10.59H91.73V64.11H84.15v6.58H77.94l10,10.59Zm-27.38-28h54.77a7.56,7.56,0,0,1,5.32,2.21l0,0a7.52,7.52,0,0,1,2.21,5.32v41.12a7.56,7.56,0,0,1-2.21,5.32h0a7.58,7.58,0,0,1-5.31,2.22c-20.8,0-41.54.1-62.34.1V60.52a7.56,7.56,0,0,1,7.56-7.26Z"/></svg>