<svg xmlns="http://www.w3.org/2000/svg" shape-rendering="geometricPrecision" text-rendering="geometricPrecision" image-rendering="optimizeQuality" fill-rule="evenodd" clip-rule="evenodd" viewBox="0 0 505 511.9"><path d="m336.11 39.84-115.38 68.95 135.38 18.39 111.32-69.44-131.32-17.9zm26.7 205.06c73.73 0 133.5 59.77 133.5 133.5 0 73.73-59.77 133.5-133.5 133.5-73.73 0-133.49-59.77-133.49-133.5 0-73.73 59.76-133.5 133.49-133.5zm-11.93 68.58c-.05 2.21.32 3.27 2.24 3.27h29.61c8.38.67 15.89 2.89 22.23 7.17 4.39 2.99 7.62 8.55 10.04 12.47 4.29 6.97 6.73 17.05 8.05 25.17.56 3.51.82 6.81.21 8.32-.27.72-.72 1.21-1.27 1.43-3.18 1.27-6.56-3.1-8.35-5.2-8.53-9.98-20.94-14.11-35.56-14.89h-25.64c-1.52.26-2.06 1.38-1.9 3.11v11.91c-.09 3.97-2.09 5.32-6.05 3.98l-36.43-28.59-3.59-2.82-.92-.72c-2.92-2.63-1.72-7.02.91-9.09l2.78-2.18 34.92-27.49c4.25-3.35 8.72-4.26 8.72 2.97v11.18zm23.87 129.85c.04-2.22-.32-3.29-2.24-3.29h-29.62c-8.38-.66-15.89-2.88-22.22-7.17-4.41-2.99-7.66-8.58-10.08-12.53-4.38-7.16-7.27-18.84-8.32-27.21-.32-2.66-.38-5.01.08-6.21.28-.71.74-1.21 1.3-1.43 3.17-1.27 6.54 3.11 8.33 5.2 8.54 9.98 20.95 14.11 35.57 14.89h25.64c1.51-.26 2.05-1.38 1.9-3.11v-11.91c.09-3.96 2.08-5.31 6.05-3.98l36.43 28.59 3.58 2.82.91.72c2.94 2.63 1.73 7.02-.9 9.09l-2.78 2.18-34.91 27.49c-4.26 3.35-8.72 4.26-8.72-2.97v-11.17zm-169.92-317.2-.09 141.71-51.45-35.04-51.46 29.07 6.1-148.91-88.54-12.03v312.98l178.95 23.14c2.52 7.09 5.47 13.98 8.85 20.62L9.3 432.08c-5.17-.21-9.3-4.48-9.3-9.69V89.86c.27-4.05 1.89-6.89 5.72-8.81L182.47.85c1.58-.72 3.53-1.01 5.26-.76l308.18 42.03c5.09.59 8.58 4.77 8.58 9.99v.02L505 280.9c-5.72-8.46-15.57-20.29-19.93-27.77V69.56l-115.81 74.93v59.81a174.577 174.577 0 0 0-19.39.36v-58.82l-145.04-19.71zm-81.52-30.58 112.17-69.43-47.58-6.49L44.24 84.8l79.07 10.75z"/></svg>