<svg xmlns="http://www.w3.org/2000/svg" shape-rendering="geometricPrecision" text-rendering="geometricPrecision" image-rendering="optimizeQuality" fill-rule="evenodd" clip-rule="evenodd" viewBox="0 0 505 512.36"><path d="m336.11 39.84-115.38 68.95 135.38 18.39 111.32-69.44-131.32-17.9zm26.45 204.72c73.95 0 133.9 59.95 133.9 133.9s-59.95 133.9-133.9 133.9-133.9-59.95-133.9-133.9 59.95-133.9 133.9-133.9zm-21.33 84.62c-.05-6.29-.63-10.78 7.18-10.67l25.27.3c8.16-.05 10.33 2.54 10.22 10.18v28.52h28.31c6.3-.05 10.79-.63 10.68 7.18l-.31 25.26c.04 8.16-2.54 10.32-10.18 10.23h-28.5v28.49c.11 7.65-2.06 10.23-10.22 10.18l-25.27.3c-7.81.13-7.23-4.37-7.18-10.66v-28.31h-28.52c-7.63.09-10.23-2.07-10.18-10.23l-.3-25.26c-.11-7.81 4.38-7.23 10.67-7.18h28.33v-28.33zm-136.4-203.05-.09 141.71-51.46-35.04-51.45 29.07 6.1-148.91-88.54-12.03v312.98l178.95 23.14c2.52 7.09 5.47 13.98 8.85 20.62L9.29 432.08C4.13 431.87 0 427.6 0 422.39V89.86c.27-4.05 1.89-6.89 5.72-8.81L182.47.85c1.58-.72 3.53-1.01 5.26-.76l308.18 42.03c5.09.59 8.58 4.77 8.58 9.99v.02L505 280.9c-5.72-8.46-15.57-20.28-19.93-27.77V69.56l-115.81 74.93v59.81a174.777 174.777 0 0 0-19.39.36v-58.82l-145.04-19.71zm-81.52-30.58 112.17-69.43-47.58-6.49L44.24 84.8l79.07 10.75z"/></svg>