<svg id="Layer_1" data-name="Layer 1" xmlns="http://www.w3.org/2000/svg" viewBox="0 0 115.01 122.88"><title>packing</title><path d="M55.76,77.39,17.15,57.13,7.18,69c14,7.38,26.9,14.35,40.86,21.73l7.72-13.29ZM68.43,0V21.44h10A4.16,4.16,0,0,1,82,23.11c1.86,2.8-.69,5.57-2.45,7.51-5,5.51-16.36,17.8-18.84,20.7a4.09,4.09,0,0,1-6.42,0c-2.56-3-14.55-15.86-19.32-21.23-1.65-1.86-3.7-4.4-2-7a4.16,4.16,0,0,1,3.56-1.67h10V0Zm-33,46.34L19.77,54.12,58.26,74.35,96.82,54.08l-16.54-8.6,2.7-3,15,7.74L108.85,40,92.36,31a12.58,12.58,0,0,0,1.24-4l20.63,10.9a1.35,1.35,0,0,1,.36.28,1.47,1.47,0,0,1,0,2.08l-13.25,13,12.83,15.36a1.49,1.49,0,0,1-.18,2.09,2.49,2.49,0,0,1-.3.19L102.14,77V99.88a1.49,1.49,0,0,1-.91,1.37L59.57,122.39a1.48,1.48,0,0,1-2.42-.33L15.41,101.2a1.48,1.48,0,0,1-.81-1.32V77.16L2.85,71a2.49,2.49,0,0,1-.3-.19,1.49,1.49,0,0,1-.18-2.09l12.5-15L.36,40A1.49,1.49,0,0,1,.5,37.88a1.81,1.81,0,0,1,.29-.19L21.73,25.84a15,15,0,0,0,.91,4.23L5.69,39.71l11.83,11,15.09-7.47,2.85,3.11ZM99.59,57.28,61.05,77.5l7.51,13.32,40.55-22L99.59,57.28Z"/></svg>