<svg xmlns="http://www.w3.org/2000/svg" shape-rendering="geometricPrecision" text-rendering="geometricPrecision" image-rendering="optimizeQuality" fill-rule="evenodd" clip-rule="evenodd" viewBox="0 0 475 512.24"><path fill="#C28F60" d="m0 417.58 202.44 26.17c-5.92-16.29-9.15-33.86-9.15-52.19 0-42.22 17.12-80.46 44.79-108.13 27.67-27.66 65.9-44.78 108.12-44.78s80.46 17.12 108.13 44.78a154.91 154.91 0 0 1 16.02 18.85l1.39-261.39L171.87 0 0 77.98v339.6z"/><path fill="#AA7950" d="m471.74 40.89-11.97 7.8-120.8 75.36L0 77.98 171.87 0z"/><path fill="#D2A06D" d="m340.21 238.76-1.24-114.71 132.77-83.16L475 309.1c-5.96-9.29-12.9-17.89-20.67-25.67-27.67-27.66-65.91-44.78-108.13-44.78-2 0-4 .04-5.99.11z"/><path fill="#65472F" d="m232.12 8.21 98.23 13.4-140.6 84.02-.09 145.42-50.03-34.08-50.04 28.28 6.25-152.68z"/><path fill="#FF7900" d="M346.2 270.87c66.66 0 120.69 54.03 120.69 120.69 0 66.65-54.03 120.68-120.69 120.68-66.65 0-120.68-54.03-120.68-120.68 0-66.66 54.03-120.69 120.68-120.69z"/><path fill="#fff" fill-rule="nonzero" d="M322.05 337.48c0-10.09 8.18-18.27 18.27-18.27s18.27 8.18 18.27 18.27v58.4l38.75 9.95c9.73 2.48 15.6 12.38 13.12 22.12-2.48 9.73-12.39 15.61-22.12 13.12l-50.9-13.06c-8.72-1.38-15.39-8.93-15.39-18.04v-72.49z"/></svg>