<svg xmlns="http://www.w3.org/2000/svg" shape-rendering="geometricPrecision" text-rendering="geometricPrecision" image-rendering="optimizeQuality" fill-rule="evenodd" clip-rule="evenodd" viewBox="0 0 505 511.62"><path d="m336.11 39.84-115.38 68.94 135.38 18.4 111.32-69.44-131.32-17.9zm26.88 204.87c73.71 0 133.45 59.75 133.45 133.45 0 73.71-59.74 133.46-133.45 133.46-73.7 0-133.45-59.75-133.45-133.46 0-73.7 59.75-133.45 133.45-133.45zm-51.43 110.32c-4.28-4.21-7.71-6.85-2.36-12.04l17.25-16.83c5.47-5.54 8.68-5.26 13.76-.04l23.26 23.25 23.12-23.11c4.2-4.28 6.84-7.69 12.03-2.36l16.84 17.26c5.54 5.47 5.26 8.68.03 13.77l-23.23 23.23 23.23 23.24c5.23 5.09 5.51 8.3-.03 13.76l-16.84 17.27c-5.19 5.33-7.83 1.9-12.03-2.37l-23.12-23.11-23.26 23.26c-5.08 5.21-8.29 5.49-13.76-.04l-17.25-16.85c-5.35-5.17-1.92-7.81 2.36-12.03l23.12-23.13-23.12-23.13zm-106.73-228.9-.09 141.71-51.45-35.04-51.46 29.07 6.1-148.91-88.54-12.03v312.98l178.95 23.14c2.52 7.09 5.47 13.98 8.85 20.62L9.3 432.08c-5.17-.21-9.3-4.48-9.3-9.69V89.86c.27-4.05 1.89-6.89 5.72-8.81L182.48.85c1.58-.72 3.52-1.01 5.25-.77l308.18 42.04c5.09.59 8.58 4.77 8.58 9.99v.02L505 280.9c-5.72-8.46-15.57-20.29-19.93-27.77V69.56l-115.81 74.93v59.81a174.846 174.846 0 0 0-19.39.36v-58.82l-145.04-19.71zm-81.52-30.58 112.17-69.44-47.58-6.49L44.24 84.8l79.07 10.75z"/></svg>