<?xml version="1.0" encoding="utf-8"?><svg version="1.1" id="Layer_1" xmlns="http://www.w3.org/2000/svg" xmlns:xlink="http://www.w3.org/1999/xlink" x="0px" y="0px" viewBox="0 0 81.45 122.88" style="enable-background:new 0 0 81.45 122.88" xml:space="preserve"><style type="text/css">.st0{fill-rule:evenodd;clip-rule:evenodd;}</style><g><path class="st0" d="M33.63,83.61c-0.57,0.01-1.12,0.02-1.66,0.04l3.07,13.12c0.29,1.24,0.25,2.49-0.07,3.64l-4.12,16.89 c-0.99,3.95-4.99,6.35-8.93,5.36c-3.95-0.99-6.35-4.99-5.36-8.93l3.74-15.34l-3.27-13.96c-7.5,0.1-10.61-1.75-12.36-12.29 L0.97,49.96c-0.89-5.35,4.62-10.21,10.04-9.89l6.94,0.41c3.67,0.22,5.79,1.17,7.22,2.52c2.97,1.88,6,3.51,9.08,4.92 c2.96,1.35,6,2.49,9.11,3.43l11.39-2.37c3.31-0.69,6.56,1.44,7.25,4.75c0.69,3.31-1.44,6.56-4.75,7.25l-12.67,2.63 c-1,0.25-2.07,0.25-3.13-0.05c-3.14-0.88-6.27-1.96-9.38-3.25c1.58,6.36,3.06,12.72,3.72,19.07 C36.21,83.31,37.05,83.55,33.63,83.61L33.63,83.61z M34.97,5.25l40.35-5.24c0.94-0.12,1.84,0.65,1.94,1.59l4.18,40.16 c0.1,0.94-0.56,1.74-1.49,1.83l-39.53,3.6c-0.94,0.09-1.82-0.65-1.94-1.59l-5-38.52C33.36,6.14,34.03,5.38,34.97,5.25L34.97,5.25z M13.53,9.45c7.47,0,13.53,6.06,13.53,13.53c0,7.47-6.06,13.53-13.53,13.53C6.06,36.52,0,30.46,0,22.98 C0,15.51,6.06,9.45,13.53,9.45L13.53,9.45z"/></g></svg>