<?xml version="1.0" encoding="utf-8"?><svg version="1.1" id="Layer_1" xmlns="http://www.w3.org/2000/svg" xmlns:xlink="http://www.w3.org/1999/xlink" x="0px" y="0px" viewBox="0 0 102.79 122.88" style="enable-background:new 0 0 102.79 122.88" xml:space="preserve"><style type="text/css">.st0{fill-rule:evenodd;clip-rule:evenodd;fill:#393939;}</style><g><path class="st0" d="M94.6,18.17l3.43,1.13c0.22,0.07,0.43,0.16,0.62,0.27c1.04,0.58,2.36,1.62,3.2,3 c0.79,1.29,1.19,2.84,0.77,4.58c-0.03,0.11-0.06,0.21-0.09,0.31c-1.19,3.93-2.22,8.62-3.32,13.66c-1.72,7.89-3.63,16.63-6.95,25.68 c-1.99,5.43-4.77,10.66-7.62,16.02c-0.97,1.83-0.05,0.08-1.16,2.17c-1.81,3.43-3.16,6.37-4.42,9.11 c-3.28,7.15-5.98,13.02-13.15,20.79c-0.56,0.6-1.11,1.36-1.67,2.12c-2.7,3.7-5.51,7.56-10.48,5.05l-0.09-0.05l0,0.01L4.45,95.35 c-0.1-0.05-0.19-0.11-0.28-0.17c-1.46-0.84-2.5-1.62-3.24-2.74c-1-1.53-1.19-3.11-0.59-5.2l0.03-0.09c2.66-8.4,4.34-13.2,6.46-17.8 c2.11-4.57,4.57-8.75,8.82-15.94l1.66-2.81c2.96-5.06,5.91-10.09,9.3-14.63c6.75-9.05,14.3-17.05,21.43-24.59 c3.16-3.35,6.24-6.61,8.89-9.56c0.16-0.18,0.33-0.33,0.51-0.47c1.11-0.82,2.25-1.24,3.42-1.33c1.2-0.08,2.34,0.21,3.41,0.8 c0.19,0.11,0.37,0.23,0.54,0.37l3.91,3.06c0.24,0.19,0.46,0.41,0.63,0.65c0.29,0.06,0.56,0.19,0.8,0.4 c2.07,1.78,2.18,4.33,0.31,8.78c-1.44,3.43-4.18,8.3-8.26,15.36l15.14,8.32c1.94-4.48,4.17-9.49,6.43-13.25 c2.39-3.96,5.63-7.61,10.59-6.39C94.44,18.12,94.52,18.14,94.6,18.17L94.6,18.17z M82.62,40.93c-0.07,0.06-0.12,0.09-0.03,0.04 C82.62,40.96,82.62,40.95,82.62,40.93L82.62,40.93z M80.54,39.5l2.05,1.13l0-0.01c0.04-0.11,0.08-0.22,0.13-0.32l0,0 c1.75-3.88,3.32-7.55,4.56-10.79c0.97-2.53,1.8-4.9,2.42-7.05c-0.83,0.85-1.79,2.24-2.8,3.92C84.66,30.1,82.45,35.09,80.54,39.5 L80.54,39.5z M67.73,10.93c-1.69,2.04-3.41,4.21-5.12,6.46c-2.08,2.73-4.26,5.7-6.43,8.73l2.81,1.54 c4.02-6.94,6.7-11.72,8.09-15.02C67.35,11.99,67.56,11.43,67.73,10.93L67.73,10.93z M93.53,21.44l3.43,1.13 c1.12,0.63,2.73,2.05,2.32,3.77c-3.25,10.63-4.9,24.68-10.25,39.27c-2.16,5.9-5.4,11.75-8.59,17.78 C74.2,95.2,73,102.15,63.37,112.57c-2.47,2.68-4.88,8.05-8.06,6.43L6.09,92.32c-2.24-1.27-3.03-2.07-2.44-4.14 c5.25-16.56,6.57-18.82,14.96-33.03c3.47-5.87,6.79-11.82,10.75-17.13C38.96,25.17,50.22,14.43,59.48,4.1 c1.1-0.81,2.13-0.82,3.11-0.28l4,3.13c-4.44,5.17-9.02,11.31-13.36,17.36c-1.13,1.94-1.13,3.56,0.89,4.61L81.5,43.96 c2.18,0.85,3.59,0.02,4.36-2.24C89.3,34.06,92.19,26.85,93.53,21.44L93.53,21.44z"/></g></svg>