<svg xmlns="http://www.w3.org/2000/svg" shape-rendering="geometricPrecision" text-rendering="geometricPrecision" image-rendering="optimizeQuality" fill-rule="evenodd" clip-rule="evenodd" viewBox="0 0 475 512.24"><path fill="#C28F60" d="m0 417.58 202.44 26.17c-5.92-16.29-9.15-33.86-9.15-52.19 0-42.22 17.12-80.46 44.79-108.13 26.35-26.35 62.29-43.13 102.13-44.67V126l131.53-85.11L171.87 0 0 77.98v339.6z"/><path fill="#AA7950" d="m471.74 40.89-11.97 7.8-120.8 75.36L0 77.98 171.87 0z"/><path fill="#D2A06D" d="m340.21 238.76-1.24-114.71 132.77-83.16L475 309.1c-5.96-9.29-12.9-17.89-20.67-25.67-27.67-27.66-65.91-44.78-108.13-44.78-2 0-4 .04-5.99.11z"/><path fill="#65472F" d="m232.12 8.21 98.23 13.4-140.6 84.02-.09 145.42-50.03-34.08-50.04 28.28 6.25-152.68z"/><path fill="#FF7900" d="M346.2 270.87c66.66 0 120.69 54.03 120.69 120.69 0 66.65-54.03 120.68-120.69 120.68-66.65 0-120.68-54.03-120.68-120.68 0-66.66 54.03-120.69 120.68-120.69z"/><path fill="#fff" d="M334.22 327.39c-.04 2.22.33 3.29 2.26 3.29h29.72c8.41.66 15.94 2.89 22.3 7.2 4.42 2.99 7.66 6.56 10.08 10.5 4.32 7.01 6.77 17.12 8.08 25.28.57 3.52.83 6.82.23 8.35-.28.72-.72 1.21-1.29 1.44-3.2 1.27-6.57-3.12-8.37-5.23-8.57-10.02-21.03-14.17-35.71-14.94h-25.73c-1.52.26-2.06 1.38-1.91 3.12v11.96c-.09 3.97-2.1 5.33-6.07 3.99l-36.57-28.71-3.6-2.82-.92-.72c-2.94-2.64-1.73-5.05.91-7.13l2.79-2.2 35.05-27.59c4.27-3.36 8.75-4.26 8.75 2.99v11.22zm23.96 128.34c.05-2.23-.32-3.29-2.25-3.3h-29.72c-8.41-.65-15.95-2.88-22.31-7.19-4.44-3.01-7.69-6.61-10.12-10.58-4.4-7.19-7.3-18.91-8.34-27.32-.33-2.66-.4-5.02.08-6.23.28-.71.72-1.21 1.29-1.44 3.19-1.27 6.57 3.12 8.37 5.23 8.57 10.02 21.03 14.16 35.71 14.94h25.73c1.52-.26 2.06-1.39 1.91-3.12v-11.96c.09-3.98 2.09-5.33 6.07-3.99l36.57 28.7 3.6 2.82.92.73c2.94 2.64 1.72 5.05-.91 7.13l-2.79 2.19-35.05 27.59c-4.28 3.37-8.76 4.27-8.76-2.99v-11.21z"/></svg>