<svg id="Layer_1" data-name="Layer 1" xmlns="http://www.w3.org/2000/svg" viewBox="0 0 122.88 104.54"><defs><style>.cls-1{fill-rule:evenodd;}</style></defs><title>product-changing</title><path class="cls-1" d="M53.35,15.07,48,42l-5.38-8.1C31.07,38.58,24.56,46.25,23.6,58.05c-9.52-16.64-3.74-31.55,8.32-40.29L26.43,9.49l26.91,5.58ZM71.39,0h46a5.54,5.54,0,0,1,5.53,5.53V35.9a5.56,5.56,0,0,1-5.53,5.53h-46a5.54,5.54,0,0,1-5.53-5.53V5.53A5.55,5.55,0,0,1,71.39,0ZM19.47,67.71H37.69L38,87.89l-9.78-6L19,87.74l.45-20ZM85.33,4.6h18.22l.31,20.18-9.78-6-9.19,5.82.44-20ZM5.53,63.11h46A5.55,5.55,0,0,1,57,68.64V99a5.57,5.57,0,0,1-5.53,5.52h-46A5.56,5.56,0,0,1,0,99V68.64a5.55,5.55,0,0,1,5.53-5.53ZM70.46,95.85l5.31-27L81.15,77c11.59-4.65,18.09-12.32,19.06-24.12,9.52,16.64,3.74,31.56-8.32,40.3l5.49,8.27L70.46,95.85Z"/></svg>