<svg xmlns="http://www.w3.org/2000/svg" shape-rendering="geometricPrecision" text-rendering="geometricPrecision" image-rendering="optimizeQuality" fill-rule="evenodd" clip-rule="evenodd" viewBox="0 0 475 512.24"><path fill="#C28F60" d="m0 417.58 202.44 26.17c-5.92-16.29-9.15-33.86-9.15-52.19 0-42.23 17.12-80.46 44.79-108.13 27.67-27.66 65.9-44.78 108.12-44.78s80.46 17.12 108.13 44.78a154.91 154.91 0 0 1 16.02 18.85l1.39-261.39L171.87 0 0 77.98v339.6z"/><path fill="#AA7950" d="m471.74 40.89-11.97 7.8-120.8 75.36L0 77.98 171.87 0z"/><path fill="#D2A06D" d="m339.39 238.8-.42-114.75 132.77-83.16L475 309.1c-5.96-9.29-12.9-17.9-20.67-25.67-27.67-27.66-65.91-44.78-108.13-44.78-2.28 0-4.55.05-6.81.15z"/><path fill="#65472F" d="m232.12 8.21 98.23 13.4-140.6 84.01-.09 145.43-50.03-34.08-50.04 28.28 6.25-152.68z"/><path fill="#EF4136" d="M346.2 270.87c66.66 0 120.69 54.03 120.69 120.69 0 66.65-54.03 120.68-120.69 120.68-66.65 0-120.68-54.03-120.68-120.68 0-66.66 54.03-120.69 120.68-120.69z"/><path fill="#fff" d="m286.32 442.61 16.66-84.65 16.9 25.45c36.37-14.6 56.79-38.67 59.83-75.74 29.87 52.24 11.73 99.07-26.13 126.5l17.23 25.96-84.48-17.52v.01l-.01-.01z"/></svg>