<svg xmlns="http://www.w3.org/2000/svg" shape-rendering="geometricPrecision" text-rendering="geometricPrecision" image-rendering="optimizeQuality" fill-rule="evenodd" clip-rule="evenodd" viewBox="0 0 444 512.26"><path fill-rule="nonzero" d="M216.99 334.84 65.12 255.03l-42.7 51.09c53.88 28.49 107.75 56.96 161.65 85.45l32.92-56.73zm16.39-290.1c24.9 2.98 47.22 14.33 64.07 31.17 19.74 19.75 31.96 47.03 31.96 77.15 0 30.13-12.22 57.41-31.96 77.15-19.74 19.75-47.02 31.96-77.15 31.96-30.13 0-57.4-12.21-77.15-31.96-19.75-19.74-31.96-47.02-31.96-77.15 0-30.12 12.22-57.4 31.96-77.15 18.08-18.08 42.5-29.85 69.62-31.7V27.93c0-.28.02-.56.04-.83h-18.44c-3.35 0-6.09-2.74-6.09-6.09V6.09c0-3.35 2.74-6.09 6.09-6.09h57.41c3.35 0 6.09 2.74 6.09 6.09v14.92c0 3.35-2.74 6.09-6.09 6.09h-18.43c.02.27.04.55.04.83v16.81h-.01zm-7.69 95.29a12.09 12.09 0 0 1 4.96 4.68l16.9.01c-.62-1.47-.45-3.21.59-4.56a4.54 4.54 0 0 1 6.37-.82l10.04 7.75c1.15.89 1.76 2.22 1.77 3.57v.12a4.528 4.528 0 0 1-1.77 3.56l-10.04 7.76a4.549 4.549 0 0 1-6.96-5.38h-16.9c-2.08 3.57-5.93 5.96-10.35 5.96-6.61 0-11.97-5.36-11.97-11.96 0-4.15 2.11-7.8 5.31-9.94l.14-23.12a4.54 4.54 0 0 1-4.69-.63 4.542 4.542 0 0 1-.67-6.39l7.98-9.86a4.504 4.504 0 0 1 3.38-1.68h.11c1.43-.02 2.85.61 3.75 1.85l7.53 10.21a4.548 4.548 0 0 1-.98 6.35 4.498 4.498 0 0 1-4.36.56l-.14 21.96zM263.24 215c1.4 2.41.58 5.5-1.83 6.9a5.06 5.06 0 0 1-6.9-1.84l-3.77-6.52a5.06 5.06 0 0 1 1.84-6.9c2.41-1.39 5.5-.57 6.89 1.84l3.77 6.52zM177.36 86.41a5.036 5.036 0 0 1 1.86-6.87 5.024 5.024 0 0 1 6.87 1.85l3.76 6.53c1.39 2.41.56 5.48-1.85 6.87a5.05 5.05 0 0 1-6.88-1.86l-3.76-6.52zm112.29 98.52a5.035 5.035 0 0 1 1.83 6.89c-1.39 2.41-4.48 3.23-6.89 1.84l-6.53-3.77a5.049 5.049 0 0 1-1.83-6.9 5.035 5.035 0 0 1 6.89-1.83l6.53 3.77zm-138.7-68.43a5.035 5.035 0 0 1-1.83-6.89 5.035 5.035 0 0 1 6.89-1.83l6.53 3.76a5.049 5.049 0 0 1 1.83 6.9 5.035 5.035 0 0 1-6.89 1.83l-6.53-3.77zm146.5 29.16c2.79 0 5.06 2.26 5.06 5.05s-2.27 5.06-5.06 5.06h-7.53c-2.79 0-5.06-2.27-5.06-5.06 0-2.79 2.27-5.05 5.06-5.05h7.53zm-154.3 10.11c-2.79 0-5.06-2.26-5.06-5.05s2.27-5.06 5.06-5.06h7.53c2.79 0 5.06 2.27 5.06 5.06 0 2.79-2.27 5.05-5.06 5.05h-7.53zm141.45-47.99a5.038 5.038 0 0 1 6.88 1.85c1.38 2.41.55 5.49-1.86 6.87l-6.52 3.77a5.05 5.05 0 0 1-6.88-1.86 5.036 5.036 0 0 1 1.86-6.87l6.52-3.76zm-128.61 85.88a5.036 5.036 0 0 1-6.87-1.86 5.024 5.024 0 0 1 1.85-6.87l6.53-3.77a5.036 5.036 0 0 1 6.87 1.86c1.39 2.41.55 5.49-1.86 6.87l-6.52 3.77zm98.52-112.29a5.035 5.035 0 0 1 6.89-1.83c2.41 1.39 3.23 4.48 1.84 6.89l-3.77 6.52c-1.4 2.41-4.49 3.24-6.89 1.84-2.41-1.4-3.24-4.49-1.84-6.9l3.77-6.52zm-68.42 138.69a5.06 5.06 0 0 1-6.9 1.84 5.049 5.049 0 0 1-1.83-6.9l3.76-6.52a5.049 5.049 0 0 1 6.9-1.83 5.035 5.035 0 0 1 1.83 6.89l-3.76 6.52zm29.15-146.49c0-2.8 2.26-5.06 5.05-5.06 2.8 0 5.06 2.26 5.06 5.06v7.53a5.05 5.05 0 0 1-5.06 5.05c-2.79 0-5.05-2.26-5.05-5.05v-7.53zm10.09 154.3c0 2.78-2.25 5.04-5.04 5.04-2.77 0-5.03-2.26-5.03-5.04v-7.53c0-2.78 2.26-5.04 5.04-5.04 2.78 0 5.04 2.26 5.04 5.04l-.01 7.53zM318.29 77.7c4.23-10.11 3.73-20.7-2.33-27.79-7.27-8.51-20.42-9.49-32.62-3.5 12.93 8.87 24.67 19.18 34.95 31.29zm-195.98 0c-4.24-10.11-3.74-20.7 2.32-27.79 7.28-8.51 20.42-9.49 32.63-3.5-12.93 8.87-24.67 19.18-34.95 31.29zm162.75 10.6c-16.57-16.57-39.47-26.82-64.76-26.82-25.29 0-48.19 10.25-64.76 26.82-16.58 16.57-26.83 39.47-26.83 64.76 0 25.3 10.26 48.2 26.83 64.77 16.57 16.57 39.47 26.83 64.76 26.83 25.29 0 48.19-10.26 64.76-26.83 16.57-16.57 26.83-39.47 26.83-64.77 0-25.29-10.26-48.19-26.83-64.76zM94.2 239.16l-17.88 8.86 148.58 78.09 148.87-78.23-24.43-12.78c2.27-3.24 4.42-6.57 6.45-9.98l25.72 13.26 47.23-46.39-52.13-27.55c.5-4.07.85-8.2 1.05-12.36l63.3 33.46c.51.28.98.62 1.41 1.05 2.2 2.25 2.17 5.86-.07 8.06l-51.18 50.26 49.55 59.3a5.716 5.716 0 0 1-.71 8.04c-.37.3-.76.56-1.17.76l-44.48 23.51v88.15c0 2.38-1.46 4.42-3.52 5.29l-159.35 80.88c-4.83 2.45-6.33 1.35-10.81-.52L59.5 429.77a5.71 5.71 0 0 1-3.15-5.1l-.02-87.71-45.31-23.95c-.41-.2-.8-.46-1.16-.76a5.708 5.708 0 0 1-.72-8.04l48.27-57.76-56-53.06a5.698 5.698 0 0 1 1.63-8.79l59.84-33.86c.16 4.26.49 8.48.98 12.65l-49.13 27.93 51.97 48.44 20.77-10.31c2.12 3.32 4.36 6.56 6.73 9.71zm290.5 15.87-151.87 79.81 32.92 56.73 161.65-85.45-42.7-51.09z"/></svg>