<svg xmlns="http://www.w3.org/2000/svg" shape-rendering="geometricPrecision" text-rendering="geometricPrecision" image-rendering="optimizeQuality" fill-rule="evenodd" clip-rule="evenodd" viewBox="0 0 475 512.24"><path fill="#C28F60" d="m0 417.58 202.44 26.17c-5.92-16.29-9.15-33.86-9.15-52.19 0-42.23 17.12-80.46 44.79-108.13 27.66-27.66 65.9-44.78 108.12-44.78s80.46 17.12 108.13 44.78a154.91 154.91 0 0 1 16.02 18.85l1.39-261.39L171.87 0 0 77.98v339.6z"/><path fill="#AA7950" d="m471.74 40.89-11.97 7.8-120.8 75.36L0 77.98 171.87 0z"/><path fill="#D2A06D" d="M340.21 238.76V126l131.53-85.11L475 309.1c-5.96-9.29-12.9-17.9-20.67-25.67-27.67-27.66-65.91-44.78-108.13-44.78-2 0-4 .04-5.99.11z"/><path fill="#65472F" d="m232.12 8.21 98.23 13.4-140.6 84.01-.09 145.43-50.03-34.08-50.04 28.28 6.25-152.68z"/><path fill="#3AAF3C" d="M346.2 270.87c66.66 0 120.69 54.03 120.69 120.69 0 66.65-54.03 120.68-120.69 120.68-66.65 0-120.68-54.03-120.68-120.68 0-66.66 54.03-120.69 120.68-120.69z"/><path fill="#0DA10D" d="M364.82 327.84c4.09 1.07 5.3 3.98 5.23 9.76v30.25h-4.7v-34.71c.03-2.14-.12-3.89-.53-5.3zm45.6 44.61c3.07.44 4.95 1.98 4.88 7.09l-.31 25.45c.05 8.21-2.56 10.39-10.25 10.3h-34.69v34.68c.1 7.7-2.09 10.3-10.3 10.25l-25.45.31c-4.94.07-6.54-1.69-7.04-4.59.68.1 1.46.14 2.34.13l25.45-.31c8.22.05 10.4-2.55 10.3-10.24v-34.69h34.69c7.7.09 10.3-2.09 10.25-10.3l.31-25.45c.01-1.01-.05-1.88-.18-2.63zm-88.04 42.84h-30.02c-5.62.06-8.52-1.08-9.66-4.91 1.35.34 2.99.47 4.97.45h34.71v4.46z"/><path fill="#fff" d="M322.38 333.33c-.05-6.34-.63-10.86 7.22-10.75l25.45.31c8.22-.05 10.4 2.56 10.3 10.25v34.71h34.51c6.33-.04 10.86-.63 10.74 7.23l-.31 25.45c.05 8.21-2.55 10.39-10.25 10.3h-34.69v34.69c.1 7.69-2.08 10.29-10.3 10.24l-25.45.31c-7.85.12-7.27-4.41-7.22-10.74v-34.5h-34.71c-7.7.09-10.3-2.09-10.25-10.3l-.31-25.45c-.12-7.86 4.41-7.27 10.74-7.23h34.53v-34.52z"/></svg>