<svg id="Layer_1" data-name="Layer 1" xmlns="http://www.w3.org/2000/svg" viewBox="0 0 101.94 122.88"><defs><style>.cls-1{fill-rule:evenodd;}</style></defs><title>return-product</title><path class="cls-1" d="M93.34,7.49a3.11,3.11,0,0,1,2,.38,3.06,3.06,0,0,1,1.82,2.78l.2,28.16,0,0,0,0h0l0,0,0,0h0l0,0,0,0h0l0,0,0,0h0l0,0,0,0h-.09l0,0h0l0,0h-.09l0,0h0l0,0h-.05l0,0h0l-.05,0h0l0,0h-.05l0,0H95.8l0,0H91.82l0,0h-.09l-.09,0h0l-.09,0h-.09l0,0h0l0,0-.16-22.52-19,12V70.08a45.77,45.77,0,0,1-4.91,3l-1.21-1.82V28.7L41.4,25.57l-.91,26.52-9.83-6.71-9.84,5.56,2-27.74L6.12,21.07V77.91l39.5,4.39-1.19,6L2.91,83.71A3.06,3.06,0,0,1,0,80.65v-63a3.08,3.08,0,0,1,1.83-2.86L34.79.25A3.07,3.07,0,0,1,36.42,0L93.34,7.49ZM48.7,114.27l8.19-41.61,8.3,12.51C83.07,78,93.11,66.16,94.6,47.94c14.69,25.68,5.77,48.7-12.84,62.18l8.47,12.76L48.7,114.27ZM64.61,9.88l-18,10.21,21.82,2.78L84.85,12.53,64.61,9.88ZM27.68,17.67,45.14,7.32,36.48,6.19,14.25,16l13.43,1.71Z"/></svg>