<svg id="Layer_1" data-name="Layer 1" xmlns="http://www.w3.org/2000/svg" viewBox="0 0 106.51 122.88"><defs><style>.cls-1{fill-rule:evenodd;}</style></defs><title>sack</title><path class="cls-1" d="M60.29,44h-.14l-5-10.11h-4l-7.56,10,5.2-9.69C37.55,38,24.29,54.77,19.36,64.57c-7.72,15.36-9.48,17.22-12.6,39-.63,4.4,1.4,3.78-2.22,4.75-3.89,1-5.9,3.34-3.5,9.78,3.83.58,8.69-.58,12.87,0,7.12,1,15.33,2.58,23.6,3.68,18.78,2.5,34.1.25,54.44-3.88l13.86.19c1.45-5.25.73-7.86-3-9.56-5-2.29-2.75-.78-3.38-7.29C96.88,74.78,93.72,75.63,82,57.43,76.82,49.31,68.2,36,58.12,34.12L60.29,44ZM19,94.44a2.26,2.26,0,1,1,4.49.53c-.21,1.8-.43,3.63-.55,5.25a21.38,21.38,0,0,0,0,4.12,2.26,2.26,0,1,1-4.47.64,24.75,24.75,0,0,1-.06-5.06c.12-1.82.34-3.67.56-5.48ZM83.26,90.3a2.26,2.26,0,1,1,4.45-.78A47.84,47.84,0,0,1,88.17,98a28.17,28.17,0,0,1-.89,7.45A2.26,2.26,0,1,1,83,103.88a25,25,0,0,0,.62-6,44.26,44.26,0,0,0-.4-7.6ZM45.43,19.2C43.71,14.12,42.15,9,40.85,3.77,45.73-1.59,64.59-.88,70,3.68l-5,12c2.7-3.55,3.61-5,5.22-7a15.1,15.1,0,0,1,1.91,1.49c1.43,1.29,2.72,2.73,3,4.71a5,5,0,0,1-1.35,3.95L62.22,32.21a24.64,24.64,0,0,1-4.34-1.1c.65-1.53,1.44-3.23,2.09-4.76l-4.19,4.53a15.67,15.67,0,0,0-11.16,1.36l-11.69-14a3.88,3.88,0,0,1-1-2.51c0-3.39,5.06-6.32,7.71-7.43l5.8,10.93Z"/></svg>