<svg id="Layer_1" data-name="Layer 1" xmlns="http://www.w3.org/2000/svg" viewBox="0 0 120.38 122.88"><defs><style>.cls-1{fill-rule:evenodd;}</style></defs><title>sell-selling</title><path class="cls-1" d="M51.85,8.63l23,13.07L56.91,24l4.24,4.25,17-2.17,1,29.84,11-7.47,11,6.2L98.82,23.43l16.8-2.14V86.7l-57.9,6.44a16.06,16.06,0,0,1,.09,2.4A23.31,23.31,0,0,1,59,97.79l59.12-6.58a2.38,2.38,0,0,0,2.27-2.38V18.59A2.38,2.38,0,0,0,119,16.34L82.23.2A2.32,2.32,0,0,0,81,0L17.39,8.36a2.33,2.33,0,0,0-1.69.3,2.38,2.38,0,0,0-1.47,2.19l-.21,29L18.8,35.1,19,14.76l12.38,7.81,3.32-3.31.13-.13L23.93,12.29,51.85,8.63ZM9.61,81,6.34,99.57a1.39,1.39,0,0,1-.31.67,7.28,7.28,0,0,0-1.66,3.37,1.89,1.89,0,0,0,.52,1.88l11.87,11.87a5.42,5.42,0,0,0,2.89,1.47,7.27,7.27,0,0,0,3.86.11c.25,0,1.95-.48,2.33-.58,3.42-.83,6.41-1.56,9.19-4.08,2.08-2.17,4.26-4.29,6.3-6.48.35-.37.68-.75,1-1.13,1.32-1.67,2.07-3.42.92-5l-1.43-1.43c-.69.66-1.43,1.32-2.13,2s-1.24,1.09-1.8,1.64a1.51,1.51,0,0,1-2.13-2.13c.55-.55,1.24-1.16,1.94-1.78,2.41-2.13,5.19-4.57,3.7-6.7L40,91.78l-.21-.26c-.81.83-1.7,1.63-2.57,2.4-.64.57-1.25,1.09-1.8,1.65a1.5,1.5,0,0,1-2.13,0,1.49,1.49,0,0,1,0-2.13c.54-.55,1.23-1.16,1.94-1.79,2.41-2.13,5.18-4.57,3.69-6.7-.43-.59-1.27-1.27-1.66-1.73l-4.14,4.14A1.51,1.51,0,0,1,31,85.23l7.77-7.77a5.74,5.74,0,0,0,2-4.42c-.15-1.75-1.54-3.15-3.33-2.65a6.42,6.42,0,0,0-2.2,1.28,19.61,19.61,0,0,0-1.85,1.68L17.78,88.9a1.51,1.51,0,0,1-2.27-2L9.61,81Zm9.75,1.1.52-.51L30.52,71a10.64,10.64,0,0,1-3-2.14,10.36,10.36,0,1,1,14.66,0l-.1.1.23.23a6.49,6.49,0,0,1,.88,1.08l13.2-13.2a5.23,5.23,0,0,1,0-7.36l-9.84-9.84a5.2,5.2,0,0,1-7.35,0L11.8,67.21a5.23,5.23,0,0,1,0,7.36l7.56,7.57Zm23.21-3.5a12.69,12.69,0,0,1-1.25,1.47l-1.55,1.54v0a1.4,1.4,0,0,1,.32.25l1.48,1.47a2.78,2.78,0,0,1,.21.27A5.08,5.08,0,0,1,42,89.76a1.35,1.35,0,0,1,.55.34l1.48,1.48a2.78,2.78,0,0,1,.21.27,5.13,5.13,0,0,1,0,6.54,1.29,1.29,0,0,1,.18.16L45.93,100a1.86,1.86,0,0,1,.22.27c3.43,4.69-.66,8.67-3.94,11.88l-.85.85-3.66,3.83-.11.12c-3.35,3-6.68,3.85-10.52,4.79L26,122c-2.3.58-4.36,1.13-6.82.69a8.32,8.32,0,0,1-4.45-2.3L2,107.65A4.75,4.75,0,0,1,.57,103,12.25,12.25,0,0,1,3,98.22L6.45,78.89v-.08c0-.24.07-.51.13-.8L0,71.43,43.41,28,68.3,52.91,42.57,78.64ZM95.88,19,73.56,5.78l7.36-1L109.33,17.3,95.88,19Z"/></svg>