<svg xmlns="http://www.w3.org/2000/svg" shape-rendering="geometricPrecision" text-rendering="geometricPrecision" image-rendering="optimizeQuality" fill-rule="evenodd" clip-rule="evenodd" viewBox="0 0 401 512.43"><path fill="#212121" d="M297.27.94c1.2-.23 2.4-.34 3.56-.3 16.37.2 33.02 8.39 37.49 25.21.13.59.24 1.12.36 1.67 4.35 21.23 11.36 45.6 18.92 71.77 11.85 40.96 24.95 86.34 32.29 136.7 7.98 54.66 13.36 97.65 10.18 151.52-1.12 18.97-3.88 38.85-9.53 61.04-1.09 4.19-1.74 9.11-2.42 14.04-3.24 23.97-6.58 48.96-35.97 49.8l-.54-.01.02.05-295.58-.1c-.59.02-1.16-.04-1.73-.09-8.89-.23-15.68-1.23-21.93-4.57-8.49-4.59-13.34-11.45-15.81-22.67l-.09-.49c-8.76-45.69-13.03-72.2-14.75-98.89-3.41-53.46-1.97-74.43 5.82-127.74 8.59-58.98 23.53-115.11 37.69-168.04C51.5 66.34 57.6 43.46 62.49 23.1c.29-1.24.7-2.36 1.19-3.47C69.52 7.17 80.18-.1 94.06 0c1.16.04 2.29.14 3.43.36l25.85 4.38c1.6.28 3.17.75 4.56 1.44 1.5-.46 3.08-.53 4.72-.16 14.09 3.06 21.01 14.63 23.51 39.99 1.94 19.55 1.46 49.05.26 92.08l91.22.58c-2.26-25.68-4.5-54.55-3.45-77.69 2.24-48 17.61-53.66 53.11-60.04z"/><path fill="#fff" d="M128.01 81.11c-2.8 17.91-5.46 37.18-7.91 56.7l16.91.09c1.23-42.33 1.65-71.26-.19-90.08-.38-3.7-.82-6.82-1.28-9.57-2.82 14.23-5.31 28.53-7.53 42.86zm153.74-58.92 18.77-3.38c6.78.11 17.83 2.66 20.25 11.67 11.63 57.53 39.29 126.92 51.13 208.11 7.54 51.53 14.22 99.42 10.52 149.29-1.24 16.76-4.05 34.9-9.5 56.28-4.74 18.66-2.43 49.65-21.27 50.12l-295.6-.15c-13.6-.26-19.27-1.99-21.74-13.08-17.51-91.43-22.26-128.26-8.83-220.56 12.27-83.8 37.56-161.97 54.58-233.22 3.07-6.52 7.83-9.16 13.74-9.11l26.44 4.47c-7.62 35.17-13.45 75.19-18.39 114.19-.37 11.85 3.7 19.38 15.72 19.17L282.51 157c12.26-1.54 16.72-8.94 14.61-21.37-3.28-44.21-7.99-84.95-15.37-113.44zM266.84 138.7l12.36.09-.02-.04c-.1-.61-.19-1.23-.21-1.81-1.62-22.42-3.56-43.41-5.95-61.57-1.85-14.19-3.96-27.28-6.48-38.82-1.72 6.04-2.69 14.9-3.15 25.24-1.05 22.91 1.23 51.63 3.45 76.91z"/><path d="M276.87 138.03c-.17.46-.31.73-.04.26.12-.12.09-.17.04-.26z"/><path fill="#E72227" fill-rule="nonzero" d="M131.51 253.63h-17v54.51H91.06v-54.51h-17v-18.76h57.45v18.76zM99.34 378.68c0-13.37 2.5-23.12 7.5-29.25 5-6.14 14.03-9.21 27.08-9.21 13.05 0 22.08 3.07 27.08 9.21 5.01 6.13 7.51 15.88 7.51 29.25 0 6.64-.53 12.23-1.58 16.77-1.06 4.53-2.88 8.48-5.46 11.84-2.58 3.36-6.13 5.82-10.67 7.38-4.53 1.57-10.16 2.35-16.88 2.35-6.72 0-12.35-.78-16.88-2.35-4.53-1.56-8.09-4.02-10.67-7.38-2.58-3.36-4.4-7.31-5.45-11.84-1.06-4.54-1.58-10.13-1.58-16.77zm25.2-12.19v30.48h9.73c3.21 0 5.53-.37 6.98-1.11 1.45-.75 2.17-2.45 2.17-5.1v-30.49h-9.85c-3.12 0-5.41.37-6.86 1.12-1.44.74-2.17 2.44-2.17 5.1zm74.67-24.51v54.99h8.32c2.97 0 5-.37 6.1-1.11 1.09-.75 1.64-2.45 1.64-5.1v-48.78h23.45v41.15c0 6.65-.43 12-1.29 16.07-.86 4.06-2.46 7.5-4.81 10.31-2.34 2.82-5.55 4.77-9.61 5.87-4.07 1.09-9.34 1.64-15.83 1.64s-11.74-.55-15.77-1.64c-4.02-1.1-7.21-3.05-9.55-5.87-2.35-2.81-3.95-6.25-4.81-10.31-.86-4.07-1.29-9.42-1.29-16.07v-41.15h23.45zm102.45 18.76h-17v54.52h-23.45v-54.52h-17v-18.76h57.45v18.76zm-150.34-52.6h-24.74l18.99-73.27h36.23l18.99 73.27h-24.74l-2.69-11.61h-19.35l-2.69 11.61zm10.92-50.76-4.01 20.51h10.79l-3.89-20.51h-2.89zm66.45 18.87v31.89h-23.45v-73.27h23.45v29.89h.47c.15-2.34.54-4.22 1.17-5.62l11.49-24.27h25.32l-17.58 35.99 18.17 37.28H242.4l-12.07-26.26c-.63-1.41-1.02-3.28-1.17-5.63h-.47zm92.96 4.22h-23.44v10.92h28.72v16.75h-52.17v-73.27h51.58l-2.93 16.75h-25.2v11.85h23.44v17z"/></svg>