<?xml version="1.0" encoding="utf-8"?><svg version="1.1" id="Layer_1" xmlns="http://www.w3.org/2000/svg" xmlns:xlink="http://www.w3.org/1999/xlink" x="0px" y="0px" viewBox="0 0 122.88 96.32" style="enable-background:new 0 0 122.88 96.32" xml:space="preserve"><g><path d="M74.72,28.52c5.42,0,10.34,2.2,13.89,5.75c3.56,3.56,5.75,8.47,5.75,13.89s-2.2,10.34-5.75,13.89 c-3.56,3.55-8.47,5.75-13.89,5.75c-5.42,0-10.34-2.2-13.89-5.75c-3.56-3.56-5.75-8.47-5.75-13.89s2.2-10.34,5.75-13.89 C64.38,30.72,69.29,28.52,74.72,28.52L74.72,28.52z M33.52,73.13H10.94L6.97,88.96h42.15c-3.07-1.93-5.91-4.2-8.46-6.75 C37.94,79.49,35.54,76.44,33.52,73.13L33.52,73.13z M63.72,95.06c-0.11,0.01-0.21,0.02-0.32,0.02H3.05v0 c-0.24,0-0.49-0.03-0.74-0.09c-1.64-0.41-2.63-2.07-2.22-3.7L5.56,69.5c0.27-1.41,1.51-2.48,3-2.48h21.82 c-2.47-5.79-3.83-12.16-3.83-18.85c0-13.3,5.39-25.34,14.11-34.06C49.38,5.39,61.42,0,74.72,0s25.34,5.39,34.06,14.11 c8.72,8.72,14.11,20.76,14.11,34.06c0,13.3-5.39,25.34-14.11,34.06c-8.72,8.72-20.76,14.11-34.06,14.11 C70.93,96.32,67.25,95.89,63.72,95.06L63.72,95.06z M104.45,18.43C96.84,10.82,86.33,6.12,74.72,6.12 c-11.61,0-22.12,4.71-29.73,12.32c-7.61,7.61-12.32,18.12-12.32,29.73c0,11.61,4.71,22.12,12.32,29.73 c7.61,7.61,18.12,12.32,29.73,12.32c11.61,0,22.12-4.71,29.73-12.32c7.61-7.61,12.32-18.12,12.32-29.73 C116.76,36.55,112.06,26.04,104.45,18.43L104.45,18.43z M84.29,38.59c-2.45-2.45-5.83-3.96-9.57-3.96c-3.74,0-7.12,1.51-9.57,3.96 c-2.45,2.45-3.96,5.83-3.96,9.57c0,3.74,1.51,7.12,3.96,9.57c2.45,2.45,5.83,3.96,9.57,3.96c3.74,0,7.12-1.51,9.57-3.96 c2.45-2.45,3.96-5.83,3.96-9.57C88.25,44.43,86.73,41.04,84.29,38.59L84.29,38.59z"/></g></svg>