<svg xmlns="http://www.w3.org/2000/svg" shape-rendering="geometricPrecision" text-rendering="geometricPrecision" image-rendering="optimizeQuality" fill-rule="evenodd" clip-rule="evenodd" viewBox="0 0 512 305.71"><path d="M427.81 204.37c-26.88 0-48.53 21.8-48.53 48.52 0 26.87 21.8 48.52 48.53 48.52 26.86 0 48.51-21.8 48.51-48.52 0-26.87-21.8-48.52-48.51-48.52zM68.52 47.59c2.4-.1 4.1-.89 5.08-2.39 2.67-3.99-.97-7.94-3.5-10.73-7.16-7.85-24.73-26.76-28.26-30.92-2.68-2.96-6.5-2.96-9.17 0-3.66 4.27-22.1 24.03-28.92 31.68-2.36 2.66-5.28 6.29-2.82 9.97 1 1.5 2.69 2.29 5.09 2.39h14.06v18.84c0 3.96 3.23 7.2 7.19 7.2h19.99c3.96 0 7.2-3.24 7.2-7.2V47.59h14.06zm0 87.23c2.4-.11 4.1-.9 5.08-2.39 2.67-4-.97-7.95-3.5-10.73-7.16-7.86-24.73-26.77-28.26-30.93-2.68-2.96-6.5-2.96-9.17 0-3.66 4.27-22.1 24.03-28.92 31.68-2.36 2.66-5.28 6.29-2.82 9.98 1 1.49 2.69 2.28 5.09 2.39h14.06v18.84c0 3.95 3.23 7.19 7.19 7.19h19.99c3.96 0 7.2-3.25 7.2-7.19v-18.84h14.06zM108.36 0h76.19c4 0 7.28 3.27 7.28 7.28v60.95c0 4-3.28 7.27-7.28 7.27h-76.19c-4 0-7.27-3.27-7.27-7.27V7.28c0-4.01 3.27-7.28 7.27-7.28zm108.42 86.68h76.19c4 0 7.28 3.27 7.28 7.28v60.95c0 4-3.28 7.27-7.28 7.27h-76.19c-4 0-7.27-3.27-7.27-7.27V93.96c0-4.01 3.27-7.28 7.27-7.28zm26.15 8.27h23.89v25.25l-11.83-9.99-12.06 9.99V94.95zM216.78 0h76.19c4 0 7.28 3.27 7.28 7.28v60.95c0 4-3.28 7.27-7.28 7.27h-76.19c-4 0-7.27-3.27-7.27-7.27V7.28c0-4.01 3.27-7.28 7.27-7.28zm26.15 8.26h23.89v25.25l-11.83-9.99-12.06 9.99V8.26zM108.36 86.68h76.19c4 0 7.28 3.27 7.28 7.28v60.95c0 4-3.28 7.27-7.28 7.27h-76.19c-4 0-7.27-3.27-7.27-7.27V93.96c0-4.01 3.27-7.28 7.27-7.28zm26.14 8.27h23.9v25.25l-11.83-9.99-12.07 9.99V94.95zm0-86.69h23.9v25.25l-11.83-9.99-12.07 9.99V8.26zm15.28 200.42c-26.88 0-48.52 21.8-48.52 48.51 0 26.88 21.8 48.52 48.52 48.52 26.87 0 48.52-21.79 48.52-48.52 0-26.86-21.8-48.51-48.52-48.51zm0 29.85c-10.3 0-18.66 8.36-18.66 18.66 0 10.31 8.36 18.66 18.66 18.66s18.66-8.35 18.66-18.66c0-10.3-8.36-18.66-18.66-18.66zm166.81-60.29H0v49.98c0 12.08 9.89 21.98 21.99 21.98h63.7c1.62-14.91 8.38-28.35 18.48-38.49l.03-.04.07-.06c11.67-11.65 27.76-18.88 45.51-18.88 17.77 0 33.91 7.22 45.59 18.89 10.1 10.11 16.87 23.56 18.49 38.58H367.2c3.28-74.64 110.31-84.94 121.21 0H512c-13.59-94.56.02-73.64-85.63-107.33-.73-10.9-3.65-21.85-7.56-32.62-16.94-46.7-45.03-42.64-102.22-43.04v111.03zm55.84-85.52-27.44-.44v50.59h50.8c-2.53-16.5-9.09-35.99-23.36-50.15zm55.38 141.51c-10.31 0-18.66 8.36-18.66 18.66s8.35 18.66 18.66 18.66c10.29 0 18.65-8.36 18.65-18.66s-8.36-18.66-18.65-18.66z"/></svg>