<svg xmlns="http://www.w3.org/2000/svg" shape-rendering="geometricPrecision" text-rendering="geometricPrecision" image-rendering="optimizeQuality" fill-rule="evenodd" clip-rule="evenodd" viewBox="0 0 512 340.88"><path fill="#1A191C" d="m359.22 83.71-40.13-.27V29.25c0-8.07-3.27-15.36-8.6-20.65C305.2 3.27 297.91 0 289.84 0H29.26C20.37 0 12.38 4.02 7 10.33-.62 19.28.01 27.94.01 38.32V263.2c0 15.91 13.12 30.01 29.25 30.01h47.77c4.4 0 7.93-3.54 7.93-7.93s-3.53-7.92-7.93-7.92v.04H29.21c-7.46 0-13.35-6.95-13.35-14.2V38.09c0-6.96-1.35-13.06 4.01-18.35a13.32 13.32 0 0 1 9.39-3.88h260.58c3.68 0 7.04 1.52 9.46 3.94 2.41 2.42 3.94 5.77 3.94 9.45V277.4h-62.92c-4.39 0-7.93 3.54-7.93 7.93s3.54 7.92 7.93 7.92h70.84c4.39 0 7.93-3.53 7.93-7.92v-9.01h32.03c3.62-82.49 122.08-93.87 134.13 0h26.02c6.7-80.43-33.02-111.69-93.43-118.76-4.34-18.88-12.63-36.4-21.99-53.72-11.13-20.59-13.73-19.76-36.63-20.13zM159.48 43.69c6.18 0 12.23.7 18.03 2.02 5.97 1.35 11.7 3.37 17.09 5.96.58.28.83.99.55 1.57-.09.19-.22.34-.38.45l-6.14 4.94-5.76 4.79c-.33.28-.77.34-1.15.2-3.5-1.27-7.16-2.25-10.92-2.91-3.66-.64-7.45-.98-11.31-.98-17.32 0-33.77 6.81-46.01 19.06-12.26 12.27-19.07 28.68-19.07 46.02 0 26.38 15.93 50.11 40.19 60.15 33.28 13.79 71.42-2.34 85.04-35.26a64.96 64.96 0 0 0 4.93-24.89c0-4.22-.4-8.36-1.21-12.5-.06-.36.04-.72.25-.98l5.2-6.68 5.36-6.69a1.17 1.17 0 0 1 2.01.36c2.95 8.52 4.43 17.48 4.43 26.49 0 10.98-2.19 21.46-6.15 31.01-16.98 41.02-64.5 61.14-105.98 43.96-30.14-12.47-50.12-41.97-50.12-74.97 0-21.57 8.51-42.11 23.76-57.36 15.25-15.25 35.79-23.76 57.36-23.76zm-1.83 189.79c-29.65 0-53.7 24.05-53.7 53.7 0 29.65 24.05 53.7 53.7 53.7 29.65 0 53.69-24.05 53.69-53.7-.04-29.65-24.04-53.7-53.69-53.7zm0 33.06c-11.37 0-20.65 9.22-20.65 20.64 0 11.38 9.23 20.65 20.65 20.65 11.37 0 20.65-9.23 20.65-20.65-.05-11.42-9.28-20.64-20.65-20.64zm260.37-40.96c-29.64 0-53.69 24.05-53.69 53.7 0 29.65 24.05 53.7 53.69 53.7 29.65 0 53.7-24.05 53.7-53.7 0-29.65-24.05-53.7-53.7-53.7zm-20.64 53.7c0 11.38 9.22 20.65 20.64 20.65s20.65-9.23 20.65-20.65c0-11.42-9.23-20.64-20.65-20.64-11.39 0-20.64 9.24-20.64 20.64zm-34.31-172.65-24.19-.45v51.47h51.24c-6.32-18.36-15.67-35.19-27.05-51.02z"/><path fill="#10A64A" fill-rule="nonzero" d="m122.55 112.76 18.14-.24 1.35.35c3.66 2.11 7.11 4.52 10.33 7.26 2.33 1.96 4.55 4.11 6.66 6.44 6.51-10.48 13.44-20.09 20.77-28.93 8.02-9.69 16.54-18.48 25.48-26.5l1.77-.69h19.79l-3.99 4.44c-12.27 13.63-23.39 27.71-33.45 42.24a411.664 411.664 0 0 0-27.05 45l-2.49 4.8-2.28-4.89c-4.22-9.06-9.27-17.37-15.3-24.8-6.02-7.43-13.04-14.02-21.21-19.63l1.48-4.85z"/></svg>