<?xml version="1.0" encoding="utf-8"?><svg version="1.1" id="Layer_1" xmlns="http://www.w3.org/2000/svg" xmlns:xlink="http://www.w3.org/1999/xlink" x="0px" y="0px" viewBox="0 0 114.76 122.88" style="enable-background:new 0 0 114.76 122.88" xml:space="preserve"><g><path d="M17.39,0c4.8,0,9.15,1.95,12.29,5.09c3.15,3.15,5.09,7.49,5.09,12.29s-1.95,9.15-5.09,12.29 c-3.15,3.15-7.49,5.09-12.29,5.09c-4.8,0-9.15-1.95-12.29-5.09C1.95,26.54,0,22.19,0,17.39S1.95,8.24,5.09,5.09 C8.24,1.95,12.59,0,17.39,0L17.39,0z M73.62,101.67c4.84,0,8.77-1.33,11.81-4c3.04-2.64,4.59-6.17,4.71-10.6h24.62 c-0.06,6.67-1.86,12.77-5.46,18.32c-3.57,5.55-8.43,9.83-14.66,12.9c-6.2,3.07-13.05,4.59-20.55,4.59 c-14.04,0-25.14-4.46-33.27-13.39c-8.09-8.93-12.15-21.27-12.15-37.02v-1.74c0-15.16,4.03-27.22,12.09-36.24 c8.03-9.02,19.1-13.55,33.14-13.55c12.28,0,22.14,3.5,29.55,10.48c7.44,7.01,11.19,16.31,11.32,27.96H90.15 c-0.12-5.12-1.67-9.27-4.71-12.46c-3.04-3.19-7.04-4.77-12-4.77c-6.11,0-10.73,2.23-13.86,6.67c-3.1,4.46-4.65,11.69-4.65,21.7v2.7 c0,10.14,1.52,17.39,4.62,21.83C62.65,99.47,67.33,101.67,73.62,101.67L73.62,101.67z M22.06,12.71c-1.2-1.2-2.85-1.94-4.68-1.94 s-3.48,0.74-4.68,1.94c-1.2,1.2-1.94,2.85-1.94,4.68c0,1.83,0.74,3.48,1.94,4.68c1.2,1.2,2.85,1.94,4.68,1.94s3.48-0.74,4.68-1.94 c1.2-1.2,1.94-2.85,1.94-4.68C24,15.56,23.26,13.91,22.06,12.71L22.06,12.71z"/></g></svg>