<svg xmlns="http://www.w3.org/2000/svg" shape-rendering="geometricPrecision" text-rendering="geometricPrecision" image-rendering="optimizeQuality" fill-rule="evenodd" clip-rule="evenodd" viewBox="0 0 512 512"><path d="M255.99 0c70.43 0 134.44 28.8 180.82 75.19C483.2 121.57 512 185.58 512 255.99c0 70.43-28.8 134.44-75.19 180.82C390.43 483.2 326.42 512 256.01 512c-70.43 0-134.44-28.8-180.82-75.19C28.8 390.43 0 326.42 0 256.01c0-70.43 28.8-134.44 75.19-180.82C121.57 28.8 185.58 0 255.99 0zM109.85 204.37c0-6.53 1.6-12.42 4.84-17.76 3.2-5.34 7.45-9.63 12.75-12.83 5.3-3.2 11.15-4.8 17.55-4.8 6.35 0 12.08 1.6 17.25 4.8 5.22 3.2 9.34 7.49 12.46 12.83 3.15 5.34 4.71 11.19 4.71 17.63 0 6.48-1.56 12.38-4.71 17.67-3.12 5.31-7.24 9.51-12.46 12.63-5.17 3.16-10.9 4.71-17.25 4.71-6.4 0-12.25-1.55-17.55-4.71-5.3-3.12-9.55-7.32-12.75-12.63-3.24-5.29-4.84-11.14-4.84-17.54zm20.12 0c0 4.25 1.51 7.78 4.5 10.6 2.99 2.78 6.52 4.17 10.52 4.17 4.04 0 7.45-1.39 10.18-4.17 2.73-2.82 4.13-6.35 4.13-10.6 0-4.37-1.4-8-4.13-10.94-2.73-2.91-6.14-4.38-10.18-4.38-4 0-7.53 1.47-10.52 4.38-2.99 2.94-4.5 6.57-4.5 10.94zm219.06 84.79c-.5 12.66-3.87 23.81-10.1 33.49-6.27 9.63-14.89 17.17-25.96 22.6-11.07 5.42-24.07 8.16-39 8.16-16.21 0-30.06-3.57-41.58-10.69-11.49-7.11-20.28-17.25-26.3-30.51-6.06-13.2-9.05-28.99-9.05-47.33v-7.28c0-18.39 3.16-34.21 9.47-47.46 6.36-13.22 15.19-23.41 26.55-30.56 11.41-7.15 24.78-10.73 40.15-10.73 15.95 0 29.37 2.86 40.26 8.63 10.86 5.76 19.32 13.59 25.25 23.52 5.98 9.97 9.47 21.17 10.56 33.67h-46.12c-.17-9.34-2.43-16.33-6.77-20.96-4.37-4.59-12.08-6.9-23.18-6.9-6.65 0-12.17 1.6-16.46 4.76-4.33 3.15-7.53 8.41-9.64 15.77-2.06 7.36-3.11 17.38-3.11 30.01v7.53c0 12.75.93 22.8 2.78 30.13 1.85 7.36 4.97 12.62 9.34 15.73 4.42 3.12 10.35 4.67 17.85 4.67 6.14 0 11.35-.88 15.65-2.69 4.25-1.81 7.52-4.67 9.8-8.5 2.23-3.87 3.41-8.87 3.49-15.06h46.12z"/></svg>