<svg xmlns="http://www.w3.org/2000/svg" shape-rendering="geometricPrecision" text-rendering="geometricPrecision" image-rendering="optimizeQuality" fill-rule="evenodd" clip-rule="evenodd" viewBox="0 0 512 512"><path d="M255.99 0c70.43 0 134.44 28.8 180.82 75.19C483.2 121.57 512 185.58 512 255.99c0 70.43-28.8 134.44-75.19 180.82C390.43 483.2 326.42 512 256.01 512c-70.43 0-134.44-28.8-180.82-75.19C28.8 390.43 0 326.42 0 256.01c0-70.43 28.8-134.44 75.19-180.82C121.57 28.8 185.58 0 255.99 0zm83.71 208.6h-74.61v35.76h67.96v37.2h-67.96v69.17h-46.33v-179.5H339.7v37.37zm-216.08-4.42c0-6.53 1.6-12.42 4.84-17.76 3.2-5.34 7.45-9.63 12.75-12.83 5.3-3.2 11.15-4.8 17.55-4.8 6.35 0 12.08 1.6 17.25 4.8 5.22 3.2 9.34 7.49 12.45 12.83 3.16 5.34 4.72 11.19 4.72 17.63 0 6.48-1.56 12.37-4.72 17.67-3.11 5.31-7.23 9.51-12.45 12.62-5.17 3.16-10.9 4.72-17.25 4.72-6.4 0-12.25-1.56-17.55-4.72-5.3-3.11-9.55-7.31-12.75-12.62-3.24-5.3-4.84-11.15-4.84-17.54zm20.12 0c0 4.25 1.51 7.78 4.49 10.6 2.99 2.77 6.53 4.17 10.53 4.17 4.03 0 7.45-1.4 10.18-4.17 2.73-2.82 4.13-6.35 4.13-10.6 0-4.38-1.4-8-4.13-10.94-2.73-2.91-6.15-4.38-10.18-4.38-4 0-7.54 1.47-10.53 4.38-2.98 2.94-4.49 6.56-4.49 10.94z"/></svg>