<svg xmlns="http://www.w3.org/2000/svg" shape-rendering="geometricPrecision" text-rendering="geometricPrecision" image-rendering="optimizeQuality" fill-rule="evenodd" clip-rule="evenodd" viewBox="0 0 512 511.99"><path d="M255.99 0h.36c70.55.09 134.43 28.74 180.66 74.97a256.5 256.5 0 0 1 56.9 86.39c25.11 63.33 24.07 134.17-3.08 196.69-12.91 29.67-31.28 56.43-53.82 78.96-46.31 46.31-110.32 74.98-181.02 74.98-70.67 0-134.71-28.67-181.02-74.98l-.73-.8C28.38 389.97 0 326.27 0 255.99c0-70.65 28.68-134.65 74.97-180.96C121.28 28.66 185.32 0 255.99 0zm-20.54 147.8c2.87 0 5.69.24 8.44.68l-.02-123.28c-34.57 1.79-67.14 11.18-96.05 26.52 15.79 1.08 28.28 14.26 28.28 30.33 0 16.78-13.61 30.4-30.4 30.4s-30.4-13.62-30.4-30.4c0-3.86.72-7.56 2.04-10.97a233.588 233.588 0 0 0-24.77 21.5c-34.27 34.26-57.82 79.27-65.21 129.56 8.11-7.39 18.89-11.9 30.73-11.9 25.21 0 45.65 20.43 45.65 45.64s-20.44 45.64-45.65 45.64c-11.85 0-22.67-4.52-30.78-11.94 7.29 50.07 30.62 94.94 64.57 129.19l.69.64c7.36 7.36 15.22 14.22 23.53 20.54a30.29 30.29 0 0 1-1.14-8.23c0-16.79 13.61-30.39 30.4-30.39 16.78 0 30.4 13.6 30.4 30.39 0 15.02-10.9 27.51-25.23 29.96 28.26 14.5 59.89 23.38 93.4 25.11l-.03-233.18c-2.75.43-5.57.68-8.45.68-29.4 0-53.23-23.85-53.23-53.24 0-29.42 23.83-53.25 53.23-53.25zM204 306.51c11.97 0 21.67 9.69 21.67 21.67 0 11.95-9.7 21.67-21.67 21.67-11.96 0-21.67-9.72-21.67-21.67 0-11.98 9.71-21.67 21.67-21.67z"/></svg>