<?xml version="1.0" encoding="utf-8"?><svg version="1.1" id="Layer_1" xmlns="http://www.w3.org/2000/svg" xmlns:xlink="http://www.w3.org/1999/xlink" x="0px" y="0px" viewBox="0 0 122.88 117.67" style="enable-background:new 0 0 122.88 117.67" xml:space="preserve"><g><path d="M92.41,104.59c0-1.17,0.95-2.11,2.11-2.11c1.17,0,2.11,0.95,2.11,2.11c0,4.05-4.37,7.48-11.45,9.76 c-6.37,2.05-15.12,3.32-24.73,3.32c-9.61,0-18.36-1.27-24.73-3.32c-7.07-2.28-11.45-5.71-11.45-9.76c0-1.17,0.95-2.11,2.11-2.11 c1.17,0,2.11,0.95,2.11,2.11c0,2.01,3.25,4.06,8.51,5.75c5.96,1.92,14.25,3.1,23.45,3.1c9.2,0,17.49-1.19,23.45-3.1 C89.15,108.64,92.41,106.59,92.41,104.59L92.41,104.59z M61.44,0C78.01,0,93.06,2.07,104,5.42c11.67,3.57,18.88,8.8,18.88,14.85 c0,3.37-2.24,6.49-6.24,9.21c1.51,1.84,2.31,3.81,2.31,5.88c0,6.03-6.87,11.26-17.98,14.84c-10.41,3.35-24.74,5.42-40.52,5.42 s-30.11-2.07-40.52-5.42C8.82,46.62,1.95,41.39,1.95,35.35c0-2.4,1.08-4.66,3.09-6.75C1.79,26.1,0,23.28,0,20.27 C0,14.22,7.22,8.98,18.88,5.42C29.82,2.07,44.87,0,61.44,0L61.44,0z M113.02,31.58c-2.58,1.31-5.61,2.49-9.02,3.54 c-10.94,3.35-25.99,5.42-42.56,5.42c-16.57,0-31.62-2.07-42.56-5.42c-4-1.22-7.48-2.64-10.32-4.23c-1.55,1.44-2.39,2.94-2.39,4.46 c0,3.99,5.75,7.84,15.05,10.83c10,3.22,23.86,5.21,39.23,5.21s29.23-1.99,39.23-5.21c9.3-2.99,15.05-6.84,15.05-10.83 C114.72,34.07,114.13,32.81,113.02,31.58L113.02,31.58z M102.77,9.45C92.24,6.23,77.63,4.24,61.44,4.24 c-16.19,0-30.8,1.99-41.33,5.22c-9.8,3-15.87,6.84-15.87,10.81c0,1.93,1.44,3.84,4.04,5.63c2.99-2.05,6.94-3.86,11.65-5.38 c10.41-3.35,24.74-5.42,40.52-5.42s30.11,2.07,40.52,5.42c5.23,1.68,9.51,3.73,12.59,6.05c3.26-1.98,5.09-4.12,5.09-6.3 C118.64,16.29,112.58,12.45,102.77,9.45L102.77,9.45z M12.41,28.2c2.19,1.02,4.78,1.99,7.7,2.88c10.53,3.22,25.14,5.22,41.33,5.22 c16.19,0,30.8-1.99,41.33-5.22c2.44-0.75,4.64-1.54,6.58-2.38c-2.49-1.51-5.77-2.92-9.68-4.17c-10-3.22-23.86-5.21-39.23-5.21 s-29.23,1.99-39.23,5.21C17.75,25.64,14.77,26.88,12.41,28.2L12.41,28.2z M8.38,55.92c-0.48-1.06-0.01-2.31,1.06-2.79 c1.06-0.48,2.31-0.01,2.79,1.06c2.25,4.97,6.47,8.08,11.71,10.14c5.5,2.16,12.14,3.2,18.84,3.97c1.16,0.13,1.99,1.18,1.86,2.34 c-0.13,1.16-1.18,1.99-2.34,1.86c-7-0.8-13.96-1.89-19.9-4.23C16.19,65.82,11.15,62.05,8.38,55.92L8.38,55.92z M51.39,73.28 c-1.17,0-2.11-0.95-2.11-2.11c0-1.17,0.95-2.11,2.11-2.11h20.37c1.17,0,2.11,0.95,2.11,2.11c0,1.17-0.95,2.11-2.11,2.11H51.39 L51.39,73.28z M79.42,72.58c-1.15,0.18-2.23-0.6-2.41-1.75c-0.18-1.15,0.6-2.23,1.75-2.41l8.28-1.33c1.15-0.18,2.23,0.6,2.41,1.75 c0.18,1.15-0.6,2.23-1.75,2.41L79.42,72.58L79.42,72.58z M109.4,51.63c0.28-1.13,1.42-1.82,2.55-1.54 c1.13,0.28,1.82,1.42,1.54,2.55c-0.97,3.89-3.05,7.2-6.12,9.9c-3.04,2.68-7.05,4.74-11.88,6.18c-1.12,0.33-2.29-0.3-2.62-1.42 c-0.33-1.12,0.3-2.29,1.42-2.62c4.25-1.26,7.72-3.04,10.3-5.31C107.01,57.23,108.65,54.65,109.4,51.63L109.4,51.63z M103.03,72.28 c0-1.17,0.95-2.11,2.11-2.11c1.17,0,2.11,0.95,2.11,2.11c0,4.99-5.56,9.28-14.56,12.18c-8.29,2.67-19.7,4.32-32.25,4.32 c-12.55,0-23.95-1.65-32.25-4.32c-9-2.9-14.56-7.18-14.56-12.18c0-1.17,0.95-2.11,2.11-2.11c1.17,0,2.11,0.95,2.11,2.11 c0,2.95,4.44,5.85,11.62,8.17c7.88,2.54,18.82,4.11,30.96,4.11c12.13,0,23.08-1.57,30.96-4.11 C98.59,78.14,103.03,75.23,103.03,72.28L103.03,72.28z M99.06,88.22c0-1.17,0.95-2.11,2.11-2.11c1.17,0,2.11,0.95,2.11,2.11 c0,4.64-5.12,8.61-13.4,11.27c-7.58,2.44-17.99,3.95-29.44,3.95c-11.45,0-21.86-1.51-29.44-3.95c-8.28-2.66-13.4-6.63-13.4-11.27 c0-1.17,0.95-2.11,2.11-2.11c1.17,0,2.11,0.95,2.11,2.11c0,2.6,4,5.18,10.46,7.26c7.16,2.31,17.11,3.73,28.15,3.73 c11.04,0,20.99-1.43,28.15-3.73C95.06,93.4,99.06,90.82,99.06,88.22L99.06,88.22z"/></g></svg>