<svg xmlns="http://www.w3.org/2000/svg" shape-rendering="geometricPrecision" text-rendering="geometricPrecision" image-rendering="optimizeQuality" fill-rule="evenodd" clip-rule="evenodd" viewBox="0 0 512 512.02"><path fill-rule="nonzero" d="M268.11 486.82c28.58-1.49 55.79-8.16 80.7-19.09-16.21-7.01-27.54-23.14-27.54-41.92 0-25.19 20.44-45.63 45.65-45.63 25.22 0 45.65 20.44 45.65 45.63v.19c2.32-2.14 4.62-4.33 6.85-6.56 35.73-35.74 59.83-83.14 66.07-136-4.71 3-10.31 4.75-16.32 4.75-16.78 0-30.4-13.61-30.4-30.4 0-16.8 13.62-30.4 30.4-30.4 6.19 0 11.95 1.85 16.75 5.02-5.52-54.41-29.9-103.23-66.5-139.83-2.4-2.4-4.86-4.73-7.36-7.02l.01.6c0 25.21-20.43 45.65-45.63 45.65-25.21 0-45.65-20.44-45.65-45.65 0-18.85 11.44-35.03 27.75-41.99-24.83-10.86-51.95-17.5-80.43-18.97v133.79c12.52 9.74 20.59 24.96 20.59 42.07 0 17.1-8.07 32.31-20.59 42.06v243.7zm81.87-214.94c16.8 0 30.4 13.6 30.4 30.4 0 16.79-13.6 30.4-30.4 30.4-16.79 0-30.4-13.61-30.4-30.4 0-16.8 13.61-30.4 30.4-30.4zM43.43 113.33C55.6 95.19 70.85 77.81 87.27 63.44 132.22 24.02 191.18.07 255.64 0h.35c70.7 0 134.72 28.67 181.03 74.98S512 185.31 512 256.01s-28.67 134.72-74.98 181.03-110.33 74.98-181.03 74.98c-70.67 0-134.72-28.67-181.03-74.98-5.73-5.73-13.9-14.09-18.56-20.73-2.57-3.19-5.05-6.44-7.46-9.76-20.98-28.87-35.69-61.4-43.15-96.41-11.33-53.15-6.03-107.66 15.9-157.35 5.98-13.6 13.42-27.17 21.74-39.46z"/></svg>