<svg xmlns="http://www.w3.org/2000/svg" shape-rendering="geometricPrecision" text-rendering="geometricPrecision" image-rendering="optimizeQuality" fill-rule="evenodd" clip-rule="evenodd" viewBox="0 0 512 512"><path fill-rule="nonzero" d="M256 0c70.7 0 134.71 28.67 181.02 74.98S512 185.3 512 256c0 70.7-28.67 134.71-74.98 181.02S326.7 512 256 512c-70.7 0-134.71-28.67-181.02-74.98S0 326.7 0 256c0-70.7 28.67-134.71 74.98-181.02S185.3 0 256 0zm93.99 271.87c16.79 0 30.4 13.6 30.4 30.4 0 16.79-13.61 30.4-30.4 30.4-16.8 0-30.4-13.61-30.4-30.4 0-16.8 13.6-30.4 30.4-30.4zM204 306.51c11.98 0 21.68 9.7 21.68 21.67 0 11.96-9.7 21.67-21.68 21.67-11.96 0-21.67-9.71-21.67-21.67 0-11.97 9.71-21.67 21.67-21.67zm-58.63 94.83c16.78 0 30.4 13.6 30.4 30.39 0 15.02-10.92 27.51-25.25 29.96 31.62 16.25 67.49 25.42 105.48 25.42 33.01 0 64.41-6.92 92.81-19.39-16.2-7.01-27.53-23.14-27.53-41.92 0-25.2 20.43-45.63 45.65-45.63 25.21 0 45.65 20.43 45.65 45.63v.19c2.32-2.14 4.61-4.33 6.84-6.57 35.73-35.73 59.83-83.13 66.07-135.99-4.71 3-10.31 4.75-16.32 4.75-16.78 0-30.4-13.61-30.4-30.4 0-16.8 13.62-30.4 30.4-30.4 6.19 0 11.95 1.85 16.75 5.02-5.52-54.4-29.9-103.22-66.5-139.82-2.39-2.4-4.85-4.75-7.36-7.04l.02.62c0 25.21-20.44 45.65-45.64 45.65-25.21 0-45.65-20.44-45.65-45.65 0-18.85 11.45-35.03 27.76-41.99-28.34-12.4-59.64-19.28-92.55-19.28-39.08 0-75.9 9.7-108.18 26.83 15.79 1.08 28.28 14.26 28.28 30.34 0 16.78-13.6 30.4-30.4 30.4-16.79 0-30.39-13.62-30.39-30.4 0-3.87.72-7.57 2.04-10.98a230.644 230.644 0 0 0-24.77 21.5c-34.28 34.27-57.85 79.29-65.22 129.57 8.11-7.39 18.89-11.9 30.73-11.9 25.22 0 45.65 20.42 45.65 45.63s-20.43 45.65-45.65 45.65c-11.85 0-22.65-4.52-30.78-11.93 7.34 50.38 30.93 95.49 65.27 129.82 7.36 7.36 15.22 14.24 23.52 20.56-.73-2.63-1.13-5.39-1.13-8.25 0-16.79 13.6-30.39 30.4-30.39zm90.09-253.53c29.41 0 53.24 23.83 53.24 53.24 0 29.4-23.83 53.25-53.24 53.25-29.4 0-53.23-23.85-53.23-53.25 0-29.41 23.83-53.24 53.23-53.24z"/></svg>