<?xml version="1.0" encoding="utf-8"?><svg version="1.1" id="Layer_1" xmlns="http://www.w3.org/2000/svg" xmlns:xlink="http://www.w3.org/1999/xlink" x="0px" y="0px" viewBox="0 0 116.51 122.88" style="enable-background:new 0 0 116.51 122.88" xml:space="preserve"><g><path d="M18.37,80.69c1.55,0.2,2.65,1.61,2.45,3.16c-0.2,1.55-1.61,2.65-3.16,2.45c-2.06-0.26-3.92-0.75-5.61-1.45 c-1.73-0.72-3.28-1.65-4.65-2.8H7.38c-1.29-1.08-2.43-2.31-3.39-3.64C1.42,74.88,0.03,70.54,0,66.23 c-0.03-4.36,1.33-8.7,4.25-12.21c0.95-1.14,2.06-2.18,3.34-3.11c1.49-1.08,3.19-1.99,5.11-2.74c1.33-0.52,2.74-0.95,4.24-1.29 c1.69-6.73,5.31-11.92,9.95-15.52c4.34-3.37,9.58-5.33,14.96-5.85c4.59-0.44,9.3,0.16,13.67,1.84c0.55-6.08,2.86-11.65,6.4-16.21 c4.18-5.38,10.1-9.35,16.91-11.07c1.14-0.28,2.29,0.41,2.58,1.55c0.18,0.73-0.03,1.46-0.51,1.97c-1.62,1.99-2.91,4.28-3.8,6.76 c-0.87,2.43-1.34,5.04-1.34,7.77c0,6.38,2.59,12.16,6.77,16.34c4.18,4.18,9.96,6.77,16.34,6.77c2.63,0,5.16-0.44,7.51-1.24 c2.45-0.84,4.71-2.07,6.69-3.62c0.92-0.72,2.26-0.56,2.98,0.37c0.43,0.55,0.55,1.25,0.37,1.88l0,0c-1.55,5.54-4.6,10.46-8.69,14.28 c-3.69,3.46-8.23,6.03-13.27,7.36c0.15,1.22,0.21,2.46,0.2,3.68c-0.05,4.86-1.37,9.7-4.05,13.26c-1.3,1.73-2.87,3.21-4.71,4.49 c-1.78,1.23-3.8,2.26-6.06,3.1c-1.46,0.54-3.09-0.2-3.64-1.66c-0.55-1.46,0.2-3.09,1.66-3.64c1.81-0.68,3.42-1.49,4.82-2.46 c1.34-0.93,2.48-2,3.4-3.22c1.93-2.56,2.87-6.19,2.91-9.92c0.04-3.9-0.91-7.83-2.76-10.68c-0.53-0.82-1.11-1.56-1.73-2.23 c-2.78-2.99-6.31-4.3-9.98-4.33c-2.66-0.02-5.41,0.62-8.02,1.78c-0.58,0.29-1.16,0.6-1.74,0.93c-1.74,1.01-3.45,2.26-5.19,3.68 l-3.73-4.27c1.29-1.19,2.68-2.28,4.16-3.24c1.18-0.77,2.41-1.45,3.68-2.04c0.51-0.25,1.02-0.49,1.54-0.72c-2.46-4.35-6-7.48-10-9.4 c-4.01-1.92-8.49-2.66-12.86-2.24c-4.34,0.42-8.55,1.99-12.04,4.7c-4.03,3.12-7.09,7.79-8.27,13.98l-0.37,1.93l-1.93,0.34 c-1.89,0.33-3.57,0.79-5.05,1.36c-1.43,0.56-2.71,1.24-3.83,2.05c-0.89,0.65-1.67,1.37-2.32,2.16c-2.03,2.43-2.97,5.47-2.95,8.55 c0.02,3.13,1.04,6.29,2.92,8.89c0.7,0.96,1.51,1.85,2.44,2.62l0,0.01c0.93,0.77,1.99,1.41,3.18,1.91 C15.44,80.14,16.83,80.5,18.37,80.69L18.37,80.69z M33.96,100.97c0.31-1.65,1.91-2.73,3.55-2.41c1.65,0.31,2.73,1.91,2.41,3.55 l-1.04,5.38c-0.31,1.65-1.91,2.73-3.55,2.41c-1.65-0.31-2.73-1.91-2.41-3.55L33.96,100.97L33.96,100.97z M22.3,97.72 c0.31-1.65,1.91-2.73,3.55-2.41c1.65,0.31,2.73,1.91,2.41,3.55l-1.04,5.38c-0.31,1.65-1.91,2.73-3.55,2.41 c-1.65-0.31-2.73-1.9-2.41-3.55L22.3,97.72L22.3,97.72z M29.67,81.38c0.31-1.65,1.91-2.73,3.55-2.41c1.65,0.31,2.73,1.91,2.41,3.55 L34.6,87.9c-0.31,1.65-1.91,2.73-3.55,2.41c-1.65-0.31-2.73-1.91-2.41-3.55L29.67,81.38L29.67,81.38z M39.25,84.75 c0.31-1.65,1.91-2.73,3.55-2.41c1.65,0.31,2.73,1.91,2.41,3.55l-1.04,5.38c-0.31,1.65-1.91,2.73-3.55,2.41 c-1.65-0.31-2.73-1.91-2.41-3.55L39.25,84.75L39.25,84.75z M47.86,101.87l6.54-23.34h16.74l-5.84,12.22l9.93,0.19l-24.21,31.93 l4.66-21.01H47.86L47.86,101.87z M59.67,29.33c4.58,2.65,8.53,6.63,11.21,11.96c1.23-0.19,2.46-0.29,3.69-0.28 c5.17,0.03,10.17,1.89,14.1,6.12c0.82,0.89,1.6,1.89,2.33,3c1.14,1.76,2.03,3.79,2.64,5.95c4.24-1.17,8.07-3.36,11.19-6.28 c2.06-1.93,3.82-4.19,5.19-6.68c-0.74,0.33-1.49,0.63-2.26,0.89c-2.79,0.96-5.78,1.48-8.89,1.48c-7.56,0-14.4-3.06-19.35-8.02 c-4.95-4.95-8.02-11.79-8.02-19.35c0-3.23,0.56-6.33,1.59-9.2c0.31-0.87,0.67-1.72,1.06-2.56c-3.47,1.8-6.5,4.33-8.88,7.39 C61.93,18.08,59.86,23.46,59.67,29.33L59.67,29.33z"/></g></svg>