<?xml version="1.0" encoding="utf-8"?><svg version="1.1" id="Layer_1" xmlns="http://www.w3.org/2000/svg" xmlns:xlink="http://www.w3.org/1999/xlink" x="0px" y="0px" viewBox="0 0 118.82 122.88" style="enable-background:new 0 0 118.82 122.88" xml:space="preserve"><g><path d="M54.03,30.23c0.38-6.92,2.88-13.28,6.88-18.42C65.34,6.11,71.62,1.9,78.85,0.07c1.21-0.3,2.43,0.43,2.74,1.64 c0.19,0.77-0.04,1.55-0.54,2.09c-1.71,2.12-3.09,4.54-4.03,7.18c-0.92,2.58-1.42,5.35-1.42,8.25c0,6.77,2.75,12.9,7.18,17.34 c4.44,4.44,10.57,7.18,17.34,7.18c2.79,0,5.47-0.46,7.96-1.32c2.6-0.89,4.99-2.2,7.1-3.84c0.98-0.77,2.39-0.59,3.16,0.39 c0.46,0.59,0.58,1.33,0.39,1.99l0,0c-1.65,5.88-4.88,11.1-9.22,15.16c-2.9,2.72-6.3,4.92-10.04,6.45c0.68,2.54,1.01,5.24,0.98,7.92 c-0.06,5.16-1.45,10.29-4.29,14.08c-1.85,2.46-4.23,4.47-7.09,6.07c-2.75,1.54-5.95,2.71-9.55,3.54c-1.62,0.37-3.23-0.64-3.6-2.26 c-0.37-1.62,0.64-3.23,2.26-3.6c3.03-0.7,5.7-1.67,7.95-2.93c2.15-1.2,3.91-2.67,5.23-4.42c2.04-2.72,3.05-6.57,3.09-10.52 c0.02-2.08-0.22-4.17-0.72-6.11l-1.58-4.14c-0.2-0.37-0.41-0.73-0.64-1.08c-0.57-0.87-1.18-1.66-1.84-2.36 c-2.95-3.18-6.7-4.57-10.59-4.59c-2.83-0.02-5.74,0.66-8.51,1.89c-0.62,0.3-1.23,0.63-1.84,0.99c-1.84,1.08-3.66,2.4-5.51,3.91 l-3.95-4.53c1.36-1.27,2.85-2.42,4.42-3.44c1.25-0.82,2.56-1.54,3.9-2.17c0.54-0.27,1.08-0.52,1.63-0.76 c-2.61-4.62-6.36-7.93-10.62-9.97c-4.25-2.04-9.01-2.82-13.65-2.37c-4.61,0.45-9.07,2.12-12.77,4.98 c-4.27,3.32-7.52,8.27-8.77,14.83l-0.39,2.05l-2.05,0.36c-2,0.35-3.79,0.83-5.36,1.44c-1.52,0.59-2.88,1.32-4.06,2.17 c-0.95,0.69-1.77,1.46-2.46,2.29C6.97,66.41,5.98,69.64,6,72.91c0.02,3.32,1.1,6.67,3.1,9.43c0.74,1.02,1.6,1.96,2.59,2.78 c0.99,0.83,2.12,1.51,3.37,2.03c1.32,0.54,2.79,0.93,4.43,1.13c1.64,0.21,2.81,1.71,2.6,3.35s-1.71,2.81-3.35,2.6 c-2.18-0.28-4.16-0.79-5.96-1.53c-1.85-0.77-3.5-1.76-4.95-2.97c-1.37-1.14-2.57-2.45-3.6-3.86C1.51,82.1,0.03,77.5,0,72.93 c-0.03-4.63,1.41-9.23,4.51-12.96c1.01-1.21,2.19-2.32,3.55-3.3c1.58-1.14,3.39-2.11,5.43-2.9c1.41-0.55,2.91-1,4.5-1.37 c1.8-7.14,5.64-12.65,10.56-16.47c4.61-3.58,10.16-5.66,15.88-6.21C47.62,29.41,50.86,29.58,54.03,30.23L54.03,30.23z M97.95,58.34 c3.16-1.32,6.02-3.19,8.48-5.49c2.19-2.05,4.05-4.44,5.51-7.09c-0.78,0.35-1.58,0.67-2.4,0.95c-2.96,1.02-6.13,1.57-9.43,1.57 c-8.02,0-15.28-3.25-20.53-8.51c-5.25-5.26-8.51-12.52-8.51-20.53c0-3.42,0.59-6.71,1.69-9.77c0.33-0.93,0.71-1.83,1.13-2.71 c-3.68,1.91-6.89,4.59-9.42,7.84c-3.64,4.69-5.85,10.55-5.97,16.92c0.92,0.34,1.83,0.72,2.72,1.15c5.74,2.76,10.74,7.34,13.99,13.8 c1.31-0.2,2.61-0.31,3.92-0.3c5.49,0.04,10.79,2,14.96,6.5c0.87,0.94,1.7,2,2.47,3.19C97.08,56.63,97.54,57.46,97.95,58.34 L97.95,58.34z M32.63,73.54c0.33-1.75,2.02-2.89,3.77-2.56s2.89,2.02,2.56,3.77l-1.1,5.71c-0.33,1.75-2.02,2.89-3.77,2.56 c-1.75-0.33-2.89-2.02-2.56-3.77L32.63,73.54L32.63,73.54z M49.7,76.5c0.33-1.75,2.02-2.89,3.77-2.56 c1.75,0.33,2.89,2.02,2.56,3.77l-1.1,5.71c-0.33,1.75-2.02,2.89-3.77,2.56c-1.75-0.33-2.89-2.02-2.56-3.77L49.7,76.5L49.7,76.5z M65.98,81.02c0.33-1.75,2.02-2.89,3.77-2.56c1.75,0.33,2.89,2.02,2.56,3.77l-1.1,5.71c-0.33,1.75-2.02,2.89-3.77,2.56 c-1.75-0.33-2.89-2.02-2.56-3.77L65.98,81.02L65.98,81.02z M61.58,99.06c0.33-1.75,2.02-2.89,3.77-2.56 c1.75,0.33,2.89,2.02,2.56,3.77l-1.1,5.71c-0.33,1.75-2.02,2.89-3.77,2.56c-1.75-0.33-2.89-2.02-2.56-3.77L61.58,99.06L61.58,99.06 z M44.82,95.19c0.33-1.75,2.02-2.89,3.77-2.56c1.75,0.33,2.89,2.02,2.56,3.77l-1.1,5.71c-0.33,1.75-2.02,2.89-3.77,2.56 c-1.75-0.33-2.89-2.02-2.56-3.77L44.82,95.19L44.82,95.19z M28.8,91.33c0.33-1.75,2.02-2.89,3.77-2.56 c1.75,0.33,2.89,2.02,2.56,3.77l-1.1,5.71c-0.33,1.75-2.02,2.89-3.77,2.56c-1.75-0.33-2.89-2.02-2.56-3.77L28.8,91.33L28.8,91.33z M48.32,113.34c0.33-1.75,2.02-2.89,3.77-2.56c1.75,0.33,2.89,2.02,2.56,3.77l-1.1,5.71c-0.33,1.75-2.02,2.89-3.77,2.56 c-1.75-0.33-2.89-2.02-2.56-3.77L48.32,113.34L48.32,113.34z M32.29,109.48c0.33-1.75,2.02-2.89,3.77-2.56s2.89,2.02,2.56,3.77 l-1.1,5.71c-0.33,1.75-2.02,2.89-3.77,2.56c-1.75-0.33-2.89-2.02-2.56-3.77L32.29,109.48L32.29,109.48z"/></g></svg>