<?xml version="1.0" encoding="utf-8"?>
<!-- Generator: Adobe Illustrator 24.0.1, SVG Export Plug-In . SVG Version: 6.00 Build 0)  -->
<svg version="1.1" id="Layer_1" xmlns="http://www.w3.org/2000/svg" xmlns:xlink="http://www.w3.org/1999/xlink" x="0px" y="0px"
	 viewBox="0 0 122.88 61.06" style="enable-background:new 0 0 122.88 61.06;" xml:space="preserve">
<style type="text/css">
	.st0{fill:#F20000;}
	.st1{fill:#FF6A00;}
	.st2{fill:#FDEE21;}
	.st3{fill:#6EC700;}
	.st4{fill:#29AAE3;}
	.st5{fill:#3D44DB;}
	.st6{fill:#8327DE;}
	.st7{fill:#FFAE00;}
	.st8{fill:#3AB54A;}
	.st9{fill:#662D91;}
</style>
<g>
	<path class="st0" d="M61.49,16.21c12.39,0,23.6,5.02,31.71,13.14c8.12,8.12,13.14,19.33,13.14,31.71h-7.06
		c0-10.44-4.23-19.89-11.07-26.72c-6.84-6.84-16.29-11.07-26.72-11.07c-10.44,0-19.89,4.23-26.72,11.07
		C27.93,41.17,23.7,50.62,23.7,61.06h-7.06c0-12.39,5.02-23.6,13.14-31.71C37.89,21.23,49.11,16.21,61.49,16.21L61.49,16.21z"/>
	<path class="st1" d="M61.49,23.18c10.46,0,19.93,4.24,26.79,11.1c6.86,6.86,11.1,16.33,11.1,26.79h-5.96
		c0-8.81-3.57-16.8-9.35-22.57c-5.78-5.78-13.76-9.35-22.57-9.35s-16.8,3.57-22.57,9.35c-5.78,5.78-9.35,13.76-9.35,22.57h-5.96
		c0-10.46,4.24-19.93,11.1-26.79C41.56,27.42,51.03,23.18,61.49,23.18L61.49,23.18z"/>
	<path class="st2" d="M61.49,29.06c8.84,0,16.84,3.58,22.63,9.37c5.79,5.79,9.37,13.79,9.37,22.63h-5.03
		c0-7.45-3.02-14.19-7.9-19.07c-4.88-4.88-11.62-7.9-19.07-7.9c-7.45,0-14.19,3.02-19.07,7.9c-4.88,4.88-7.9,11.62-7.9,19.07h-5.03
		c0-8.84,3.58-16.84,9.37-22.63C44.66,32.64,52.66,29.06,61.49,29.06L61.49,29.06z"/>
	<path class="st3" d="M61.49,34.03c7.46,0,14.22,3.02,19.11,7.92c4.89,4.89,7.92,11.65,7.92,19.11h-4.25
		c0-6.29-2.55-11.98-6.67-16.1c-4.12-4.12-9.81-6.67-16.1-6.67s-11.98,2.55-16.1,6.67c-4.12,4.12-6.67,9.81-6.67,16.1h-4.25
		c0-7.46,3.02-14.22,7.92-19.11C47.27,37.06,54.03,34.03,61.49,34.03L61.49,34.03z"/>
	<path class="st4" d="M61.49,38.23c6.3,0,12.01,2.55,16.14,6.69c4.13,4.13,6.69,9.84,6.69,16.14h-3.59c0-5.31-2.15-10.12-5.63-13.6
		c-3.48-3.48-8.29-5.63-13.6-5.63c-5.31,0-10.12,2.15-13.6,5.63c-3.48,3.48-5.63,8.29-5.63,13.6h-3.59c0-6.3,2.55-12.01,6.69-16.14
		C49.48,40.79,55.19,38.23,61.49,38.23L61.49,38.23z"/>
	<path class="st5" d="M61.49,41.78c5.32,0,10.14,2.16,13.63,5.65c3.49,3.49,5.65,8.31,5.65,13.63h-3.03c0-4.49-1.82-8.55-4.76-11.49
		c-2.94-2.94-7-4.76-11.49-4.76c-4.49,0-8.55,1.82-11.49,4.76c-2.94,2.94-4.76,7-4.76,11.49h-3.03c0-5.32,2.16-10.15,5.65-13.63
		C51.35,43.94,56.17,41.78,61.49,41.78L61.49,41.78z"/>
	<path class="st6" d="M61.49,44.77c4.5,0,8.57,1.82,11.52,4.77c2.95,2.95,4.77,7.02,4.77,11.52h-2.56c0-3.79-1.54-7.22-4.02-9.7
		c-2.48-2.48-5.91-4.02-9.7-4.02s-7.22,1.54-9.7,4.02c-2.48,2.48-4.02,5.91-4.02,9.7h-2.56c0-4.5,1.82-8.57,4.77-11.52
		C52.92,46.6,56.99,44.77,61.49,44.77L61.49,44.77z"/>
	<path class="st0" d="M11.16,44.72c1.8,0.48,2.88,2.34,2.4,4.14c-0.48,1.8-2.34,2.88-4.14,2.4l-6.9-1.85
		c-1.8-0.48-2.88-2.34-2.4-4.14c0.48-1.8,2.34-2.88,4.14-2.39L11.16,44.72L11.16,44.72z"/>
	<path class="st1" d="M26.29,21.8c1.32,1.32,1.32,3.47,0,4.79c-1.32,1.32-3.47,1.32-4.79,0l-5.05-5.05c-1.32-1.32-1.32-3.47,0-4.79
		c1.32-1.32,3.47-1.32,4.79,0L26.29,21.8L26.29,21.8z"/>
	<path class="st7" d="M50.85,9.52c0.48,1.8-0.59,3.66-2.39,4.14c-1.8,0.48-3.66-0.59-4.14-2.39l-1.85-6.9
		c-0.48-1.8,0.59-3.66,2.39-4.14c1.8-0.48,3.66,0.59,4.14,2.39L50.85,9.52L50.85,9.52z"/>
	<path class="st8" d="M78.27,11.16c-0.48,1.8-2.34,2.88-4.14,2.4c-1.8-0.48-2.88-2.34-2.39-4.14l1.85-6.9
		c0.48-1.8,2.34-2.88,4.14-2.4c1.8,0.48,2.88,2.34,2.39,4.14L78.27,11.16L78.27,11.16z"/>
	<path class="st4" d="M101.19,26.29c-1.32,1.32-3.47,1.32-4.79,0c-1.32-1.32-1.32-3.47,0-4.79l5.05-5.05c1.32-1.32,3.47-1.32,4.79,0
		c1.32,1.32,1.32,3.47,0,4.79L101.19,26.29L101.19,26.29z"/>
	<path class="st9" d="M113.47,50.85c-1.8,0.48-3.66-0.59-4.14-2.4c-0.48-1.8,0.59-3.66,2.4-4.14l6.9-1.85
		c1.8-0.48,3.66,0.59,4.14,2.4c0.48,1.8-0.59,3.66-2.4,4.14L113.47,50.85L113.47,50.85z"/>
</g>
</svg>
