<svg xmlns="http://www.w3.org/2000/svg" shape-rendering="geometricPrecision" text-rendering="geometricPrecision" image-rendering="optimizeQuality" fill-rule="evenodd" clip-rule="evenodd" viewBox="0 0 512 512"><path fill-rule="nonzero" d="M226.63 485.27c9.62 1.22 19.42 1.84 29.37 1.84 33.01 0 64.41-6.92 92.81-19.39-16.2-7.01-27.53-23.14-27.53-41.92 0-25.2 20.43-45.63 45.65-45.63 25.21 0 45.65 20.43 45.65 45.63v.19c2.32-2.14 4.61-4.33 6.84-6.57 35.73-35.73 59.83-83.13 66.07-135.99-4.71 3-10.31 4.75-16.32 4.75-16.78 0-30.4-13.61-30.4-30.4 0-16.8 13.62-30.4 30.4-30.4 6.19 0 11.95 1.85 16.75 5.02-5.52-54.4-29.9-103.22-66.5-139.82-2.39-2.4-4.86-4.75-7.36-7.04l.02.62c0 25.21-20.44 45.65-45.64 45.65-25.21 0-45.65-20.44-45.65-45.65 0-18.85 11.45-35.03 27.76-41.99a228.803 228.803 0 0 0-58.27-16.75c-42.92 6.03-82.19 23.4-114.71 48.97.36 1.83.53 3.73.53 5.67 0 16.78-13.6 30.4-30.4 30.4-2.23 0-4.4-.24-6.49-.69-25.71 30.88-43.83 68.31-51.47 109.42 9.79 8.36 16 20.81 16 34.69 0 15.06-7.28 28.42-18.52 36.73 4.73 42.07 20.3 80.81 43.87 113.44 4.7-2.98 10.28-4.71 16.28-4.71 16.78 0 30.4 13.6 30.4 30.39 0 6.76-2.22 13.04-5.95 18.08 17.08 14.31 36.17 26.3 56.81 35.46zm123.36-213.4c16.79 0 30.4 13.6 30.4 30.4 0 16.79-13.61 30.4-30.4 30.4-16.8 0-30.4-13.61-30.4-30.4 0-16.8 13.6-30.4 30.4-30.4zM204 306.51c11.98 0 21.68 9.7 21.68 21.67 0 11.96-9.7 21.67-21.68 21.67-11.96 0-21.67-9.71-21.67-21.67 0-11.97 9.71-21.67 21.67-21.67zm31.46-158.7c29.41 0 53.24 23.83 53.24 53.24 0 29.4-23.83 53.25-53.24 53.25-29.4 0-53.23-23.85-53.23-53.25 0-29.41 23.83-53.24 53.23-53.24zM74.98 74.98C121.29 28.67 185.3 0 256 0c70.7 0 134.71 28.67 181.02 74.98S512 185.3 512 256c0 70.7-28.67 134.71-74.98 181.02S326.7 512 256 512c-70.7 0-134.71-28.67-181.02-74.98S0 326.7 0 256c0-70.7 28.67-134.71 74.98-181.02z"/></svg>