<svg xmlns="http://www.w3.org/2000/svg" shape-rendering="geometricPrecision" text-rendering="geometricPrecision" image-rendering="optimizeQuality" fill-rule="evenodd" clip-rule="evenodd" viewBox="0 0 512 512"><path d="M256 0C185.34 0 121.35 28.68 75.03 74.98 28.67 121.29 0 185.33 0 256c0 70.7 28.67 134.71 74.98 181.02S185.3 512 256 512c70.67 0 134.71-28.67 181.02-74.98l.74-.8C483.61 389.98 512 326.27 512 256c0-70.64-28.68-134.65-74.98-180.97C390.65 28.68 326.64 0 256 0zm-86.2 449.82c-5.54 7.47-14.43 12.31-24.43 12.31-16.8 0-30.4-13.62-30.4-30.4 0-10.79 5.64-20.27 14.12-25.66-23.57-32.62-39.14-71.39-43.87-113.46a45.538 45.538 0 0 1-27.13 8.92c-24.81 0-45.01-19.8-45.63-44.47.57 134.02 109.38 242.49 243.54 242.49 4 0 7.96-.11 11.9-.29-36.69-8.78-70.1-25.99-98.1-49.44zM145.7 51.64c14.86 0 27.21 10.67 29.87 24.76 40.89-32.16 92.46-51.36 148.53-51.36 3.38 0 6.73.08 10.06.22-24.5-8.3-50.79-12.81-78.16-12.81-134.07 0-242.84 108.34-243.54 242.24.65-24.67 20.82-44.44 45.63-44.44 11.33 0 21.71 4.13 29.68 10.96 7.66-41.11 25.76-78.55 51.47-109.44-13.69-2.97-23.93-15.15-23.93-29.71 0-16.8 13.6-30.42 30.39-30.42z"/></svg>