<?xml version="1.0" encoding="utf-8"?><svg version="1.1" id="Layer_1" xmlns="http://www.w3.org/2000/svg" xmlns:xlink="http://www.w3.org/1999/xlink" x="0px" y="0px" viewBox="0 0 122.88 123.03" style="enable-background:new 0 0 122.88 123.03" xml:space="preserve"><style type="text/css">.st0{fill-rule:evenodd;clip-rule:evenodd;}</style><g><path class="st0" d="M31.83,39.82c15.66-3.09,28.2-12.25,40.71-24.57l8.24-7.91c5.15-4.94,6.97-7.81,14.9-7.28 c6.34,0.43,12.03,3.11,13.51,9.84c0.35,1.59,0.34,3.32-0.1,5.21c-0.58,2.48-2.07,5.5-3.84,8.19c0.99,2.69,1.78,5.39,2.18,8.08 c-1.97-0.2-4.03-2.08-6.05-3.26c-0.11,0.11-0.22,0.21-0.33,0.31c-2.12,1.97-4.56,3.45-7.33,4.42c-0.19,0.17-0.39,0.35-0.58,0.52 c0.72,2.84,1.24,5.67,1.35,8.44c-1.97-0.42-3.84-2.57-5.76-3.95c-1.56,1.75-3.12,3.66-4.66,5.7c1.34,2.84,2.46,5.7,3.14,8.59 c-2.23-0.04-4.73-2.06-7.1-3.09l0.13-0.2c-1.82,1.99-4.56,4.45-7.85,6.77c0.22,2.42,0.29,4.79,0.04,7.08 c-1.67-0.62-3.04-2.76-4.54-4.22c-1.14,0.65-2.32,1.26-3.52,1.82c-1.12,0.52-2.11,0.99-3,1.43c-0.08,2.95-0.35,5.83-1,8.55 c-1.78-0.93-2.99-3.5-4.45-5.36c-1.83,1.38-3.09,2.86-4.93,5.19c0.84,2.22,1.52,4.44,1.86,6.66c-1.63-0.15-3.34-1.72-5.01-2.66 c-0.3,0.38-0.62,0.77-0.95,1.18c-3.69,4.53-8.11,7.5-12.16,9.3l-7.48,3.15c5.93,2.09,13.32,0.92,22.45-4.14 c4.47-2.64,9.23-4.66,14.28-6.1c-0.83-2.23-2.72-3.97-2.61-6.03c2.59,0.8,5.23,3.3,7.74,4.78c5.21-1.05,10.7-1.54,16.43-1.52 l1.09-0.62c-0.34,0.18-0.69,0.36-1.03,0.55c-0.81-2.29-4.65-7.58-4.53-9.67c2.33-0.35,7.52,5.06,10.11,6.52 c-0.14,0.09-0.27,0.18-0.41,0.28l6.42-3.63c-0.96-2.3-4.08-5.87-3.97-7.88c2.65,0.82,6.85,3.32,9.45,4.78l10.06-5.68 c6.54-2.32,11.64,0.91,9.76,9.01c-1.54,6.62-5.12,9.22-10.99,12.4c-5.06,2.74-11.7,5.3-19.46,7.74 c-10.02,3.53-16.31,9.41-22.42,15.61C56,118.02,42.43,129.39,21.67,118.99c-6.33-3.17-11.31-8.08-14.9-13.91 c-5.41-8.8-7.63-19.7-6.48-29.96C1,68.82,3.12,63.3,6.76,58.62c-0.53-4.59-0.31-8.57,0.74-11.85C10.79,36.5,23.19,33.5,31.83,39.82 L31.83,39.82z M96.1,6.39c2.29,0.77,3.82,2.73,4.5,5.98l-8.1-0.28c-0.73-0.32-1.23-0.85-1.5-1.57c-0.31-0.81-0.42-1.43-0.37-1.94 C90.9,6.03,94.04,5.69,96.1,6.39L96.1,6.39z M16.34,52.1c-0.14,1.72,0.97,5.72,2.76,6.34c0.59,0.2,1.29,0.13,2.11-0.25l2.87-2.36 l0.03-0.04l-3.61-5.07c1.7-0.68,4.15-0.36,7.03,0.54l1.86-2.46C25.3,43.12,16.84,46.03,16.34,52.1L16.34,52.1z M64.61,77.36 c0.68-0.19,1.36-0.36,2.04-0.52C65.87,76.93,65.41,76.99,64.61,77.36L64.61,77.36z M108.74,61.57c1.95-1.04,3.77-2.15,5.46-3.32 c-2.59-1.45-5.21-2.71-7.89-3.54C106.2,56.81,107.93,59.29,108.74,61.57L108.74,61.57z"/></g></svg>