<svg xmlns="http://www.w3.org/2000/svg" shape-rendering="geometricPrecision" text-rendering="geometricPrecision" image-rendering="optimizeQuality" fill-rule="evenodd" clip-rule="evenodd" viewBox="0 0 512 503.36"><path d="M83.7.03C73.42-.77 6.63 15.06 2.01 27.61c-1.78 4.85-5.4 12.21 5.73 19.67 11.67 1.65 21.47 1.77 29.16.26-4.52 6.56-13.92 10.79-27.72 12.94-.67 9.85 6.89 14.3 25.5 11.46 25.58-6.37 47.88-1.65 55.31 6.29 19.24 20.52 14.54 42.75 12.2 69.42-.73 8.22-1.28 16.5-1.6 24.8-1.32 33.62-.24 127.7 9.55 160.02 13.44 44.33 25.42 41.2 25.42 96.1v28.62l-5.01 19.11c-.15 1.35-.48 2.56-.97 3.67-1.27 2.84-4.35 5.43-6.54 7.66l-3.56 3.6c-2.75 4.85-1.67 11.28 3.55 12.11h36.75c1.72-.08 2.01-.82 2.51-2.82l11.07-48.76c2.49 2.8 3.31 11.24 4.97 16.85 1.12 3.82 2.25 7.64 3.37 11.45.44 1.9.65 3.63.63 5.2-.05 4.13-2.33 6.41-3.15 10.55-.76 3.83-.26 7.63 3.99 7.53h33.51c1.77-.05 2.55-.99 2.29-2.89l-5.74-51.36c1.74-1.6 4-5.58 4.63-8.05 15.33 4.16 31.71 6.86 48.46 6.53v31.34c-2.45 6.9-16.66 20.41 0 24.4h27.46c2.76.04 3.9-1.52 3.84-4.32l-.24-15.54 8.37-24.39c.53-2.23 2.89-1.64 3.34 0l11.48 18.18c.61 2.37.51 4.25-.23 5.97l-8.38 14.59c-.62 3.98.79 5.92 4.55 5.51h36.34c2.06-.09 3.58-.79 4.35-2.37 1.74-3.53-2.31-19.48-3.57-23.61-3.46-11.35-10.48-17.54-11.22-25.91-.44-4.97.82-10.04 4.94-13.16 52.77 16.73 121.64 28.09 159.22 23.36 7.23-1.11 7.83-9.77-1.84-10.77-35.41-6.22-68.29-14.29-95.07-26.81-57.75-27.02-58.38-75.8-118.78-102.95-46.56-20.93-67.43-19.66-102.01-24.33-12.71-1.72-22.06-9.12-30.37-23.39-5.08-8.71-8.33-77.86-10.06-89.94-3.76-26.35.71-61.27-2.65-91.09C139.51 36.57 115.86 2.55 83.7.03zM64.4 22.12c2.97 0 5.38 2.4 5.38 5.37s-2.41 5.38-5.38 5.38c-2.97 0-5.37-2.41-5.37-5.38 0-2.97 2.4-5.37 5.37-5.37z"/></svg>