<?xml version="1.0" encoding="utf-8"?><svg version="1.1" id="Layer_1" xmlns="http://www.w3.org/2000/svg" xmlns:xlink="http://www.w3.org/1999/xlink" x="0px" y="0px" viewBox="0 0 122.88 116.78" style="enable-background:new 0 0 122.88 116.78" xml:space="preserve"><style type="text/css">.st0{fill-rule:evenodd;clip-rule:evenodd;}</style><g><path class="st0" d="M90.95,97.82l4.29,6.94c3.69-4.76,6.79-10.11,9.35-16l3.12,10.8c3.95-5.51,5.79-12.88,5.61-22.02l5.61,6.03 c2.26-10.91,0.21-21.94-3.95-33.04l7.9,2.29c-2.34-9.37-8.11-17.31-15.17-24.73c2.25-5.93,5.65-23.34-1.12-27.5 c-1.49-0.91-3.21-0.72-5.11,0.28L85.22,9.11c-17.02-8.6-32.85-7.54-47.88,0L21.1,0.94c-9.09-3.81-8.92,10.32-8.58,15.93 c0.27,4.37,1.32,8.31,3.06,11.87C7.73,35.55,3.1,43.88,0,52.93l7.56-1.78C3.3,61.21,2.2,72.33,3.58,84.27l5.85-7.14 c0.18,9.68,2.06,17.33,6.03,22.46l2.7-11.86c2.33,6.02,5.24,11.79,9.77,16.83l3.92-6.8c-2.44-11.12,1.65-14.38,5.59-17.52 c2.41-1.92,4.75-3.78,4.78-8.04c0-0.77,0.63-1.4,1.41-1.4c0.77,0,1.4,0.63,1.4,1.41c-0.04,5.44-2.73,7.75-5.56,10.01 c1.35,0.5,2.52,1.03,3.54,1.59c1.48,0.82,2.65,1.7,3.57,2.62c0.55,0.55,0.54,1.44-0.01,1.99c-0.55,0.55-1.44,0.54-1.99-0.01 c-0.74-0.74-1.69-1.46-2.93-2.14c-1.25-0.69-2.79-1.34-4.68-1.93c-0.96,0.95-1.8,2.07-2.35,3.56c2.61,0.82,4.65,1.76,6.25,2.78 c1.69,1.08,2.89,2.25,3.75,3.47c0.45,0.63,0.3,1.51-0.33,1.96c-0.63,0.45-1.51,0.3-1.96-0.33c-0.67-0.95-1.62-1.87-2.97-2.73 c-1.34-0.85-3.08-1.66-5.34-2.39c-0.16,1.78,0,3.97,0.62,6.73c0.02,0.1,0.03,0.21,0.03,0.31h0.6c1.38,1.07,2.75,1.97,4.12,2.7 c-0.02,0.16-0.01,0.34,0.03,0.51c1.46,5.88,5.11,10.14,9.74,12.76c3.64,2.06,7.88,3.1,12.13,3.12c4.24,0.02,8.49-0.99,12.17-3.03 h0.01c4.7-2.6,8.45-6.88,9.99-12.83c0.04-0.16,0.05-0.33,0.04-0.49c1.39-0.74,2.7-1.66,3.85-2.73h0.79c0-0.1,0.01-0.2,0.03-0.31 c0.62-2.75,0.78-4.93,0.62-6.71c-2.23,0.72-3.95,1.52-5.27,2.36c-1.35,0.86-2.3,1.78-2.97,2.73c-0.45,0.63-1.33,0.78-1.96,0.33 c-0.63-0.45-0.78-1.33-0.33-1.96c0.87-1.22,2.06-2.39,3.75-3.47c1.58-1.01,3.6-1.94,6.18-2.76c-0.54-1.49-1.38-2.61-2.34-3.56 c-1.63,0.52-2.99,1.07-4.12,1.64V86c-1.16,0.59-2.08,1.21-2.83,1.84c-0.59,0.5-1.48,0.44-1.98-0.15c-0.5-0.59-0.43-1.48,0.15-1.98 c0.92-0.78,2.02-1.53,3.38-2.22l0,0c0.87-0.44,1.83-0.86,2.9-1.26c-2.85-2.27-5.54-4.58-5.59-10.03c0-0.77,0.62-1.4,1.4-1.41 c0.77,0,1.4,0.62,1.41,1.4c0.03,4.26,2.38,6.12,4.78,8.04C89.33,83.38,93.42,86.65,90.95,97.82L90.95,97.82z M37.1,44.6L33,44.29 c-1.47,5.59,1.49,10.81,7.35,9.84c1.67-0.28,3.27-1.29,4.8-3.02c-0.56-1.01-1.07-2.02-1.54-3.02l-0.24-0.13 c-0.65,0.72-1.6,1.18-2.65,1.18c-1.98,0-3.58-1.6-3.58-3.58c0-0.3,0.04-0.6,0.11-0.88L37.1,44.6L37.1,44.6z M86.68,44.6l4.1-0.31 c1.47,5.59-1.49,10.81-7.35,9.84c-1.67-0.28-3.27-1.29-4.8-3.02c0.56-1.01,1.07-2.02,1.54-3.02l0.12-0.07 c0.65,0.69,1.57,1.12,2.6,1.12c1.98,0,3.58-1.6,3.58-3.58c0-0.27-0.03-0.54-0.09-0.8L86.68,44.6L86.68,44.6z M49.54,106.42 c5.12-0.14,9.04-2.01,11.87-6.82c2.77,4.46,6.72,6.83,11.28,6.82c-0.98,1.14-2.01,2.03-3.09,2.66c-3.19,1.87-13,1.56-16,0.24 C52.13,108.67,50.79,107.68,49.54,106.42L49.54,106.42z M71.04,90.55c-0.56,1.87-1.65,3.4-3.26,4.61c-1.53,1.14-3.53,1.96-6,2.47 c-0.12,0.02-0.24,0.03-0.36,0.03c-3.61-0.04-6.98-2.22-8.74-4.86c-0.68-1.01-1.13-2.11-1.29-3.21c-0.17-1.17-0.01-2.34,0.56-3.4 c1-1.87,3.23-3.32,7.12-3.76c0.96-0.11,1.95-0.14,2.96-0.1c1.01,0.04,2.03,0.16,3.07,0.36c2.37,0.45,4.13,0.81,5.29,1.9 C71.66,85.81,71.94,87.55,71.04,90.55L71.04,90.55z M66.09,92.91c1.12-0.83,1.87-1.89,2.25-3.15c0.55-1.81,0.54-2.71,0.1-3.13 c-0.57-0.54-1.97-0.82-3.87-1.18c-0.91-0.17-1.8-0.28-2.66-0.31c-0.86-0.04-1.71-0.01-2.54,0.09c-2.84,0.31-4.37,1.19-4.95,2.28 c-0.27,0.5-0.34,1.08-0.25,1.67c0.1,0.68,0.4,1.38,0.85,2.06c1.29,1.94,3.73,3.54,6.34,3.61C63.34,94.43,64.92,93.78,66.09,92.91 L66.09,92.91z M49.75,37.32c-0.75,0.21-1.52-0.23-1.73-0.97c-0.21-0.75,0.23-1.52,0.97-1.73c3.72-1.05,7.94-1.6,12.23-1.63 c4.27-0.04,8.62,0.44,12.62,1.42c0.75,0.19,1.21,0.95,1.03,1.7c-0.19,0.75-0.95,1.21-1.7,1.03c-3.78-0.93-7.89-1.38-11.93-1.35 C57.21,35.82,53.25,36.33,49.75,37.32L49.75,37.32z M104.52,4.77c0.73-0.25,1.53,0.14,1.78,0.87c0.25,0.73-0.14,1.53-0.87,1.78 c-2.01,0.7-4.28,1.79-6.5,3.02c-2.64,1.47-5.19,3.15-7.16,4.6c-0.62,0.46-1.5,0.33-1.96-0.29c-0.46-0.62-0.33-1.5,0.29-1.96 c2.05-1.52,4.71-3.26,7.46-4.8C99.91,6.69,102.33,5.53,104.52,4.77L104.52,4.77z M18.08,7.42c-0.73-0.25-1.12-1.05-0.87-1.78 c0.25-0.73,1.05-1.12,1.78-0.87c2.2,0.76,4.61,1.92,6.95,3.22c2.76,1.54,5.42,3.28,7.46,4.8c0.62,0.46,0.75,1.34,0.29,1.96 c-0.46,0.62-1.34,0.75-1.96,0.29c-1.96-1.46-4.51-3.13-7.16-4.6C22.36,9.21,20.1,8.12,18.08,7.42L18.08,7.42z M41.03,29.41 c-0.73,0.26-1.53-0.11-1.8-0.84c-0.26-0.73,0.11-1.53,0.84-1.8c6.56-2.4,13.95-3.68,21.4-3.74c7.27-0.06,14.61,1.04,21.3,3.39 c0.73,0.25,1.12,1.06,0.86,1.79c-0.26,0.73-1.06,1.12-1.79,0.86c-6.39-2.24-13.4-3.29-20.36-3.24 C54.37,25.89,47.3,27.12,41.03,29.41L41.03,29.41z M18.62,51.29c-0.92-3.84-0.17-7.32,2.08-10.32 C17.4,61.1,36.67,59.16,32.17,72.64C30.45,62.71,20.72,60.13,18.62,51.29L18.62,51.29z M30.02,43.01 c-1.53,0.25-2.81,0.16-3.99-0.31c-1.25-0.51-2.37-1.45-3.54-2.88c0.79,4.95,5.07,4.4,6.63,6.7c0.56,0.82,1.13,2.06,1.71,3.4 c1.03,2.38,1.33,3.8,3.79,5.2c3.1,1.77,6.17,0.59,10.3,5.99c0.53-1.27,0.87-2.59,1.06-3.96C47.54,46.22,39.54,42.12,30.02,43.01 L30.02,43.01z M92.25,43.01c1.53,0.25,2.81,0.16,3.99-0.31c1.25-0.51,2.37-1.45,3.54-2.88c-0.79,4.95-5.07,4.4-6.63,6.7 c-0.56,0.82-1.13,2.06-1.71,3.4c-1.03,2.38-1.33,3.8-3.79,5.2c-3.1,1.77-6.17,0.59-10.3,5.99c-0.53-1.27-0.87-2.59-1.06-3.96 C74.73,46.22,82.73,42.12,92.25,43.01L92.25,43.01z M10.61,60.39c-0.92-4.53-0.17-8.63,2.08-12.16 c-3.3,23.72,15.98,21.43,11.48,37.32C22.44,73.84,12.72,70.8,10.61,60.39L10.61,60.39z M112.27,60.39 c0.92-4.53,0.17-8.63-2.08-12.16c3.3,23.72-15.98,21.43-11.48,37.32C100.44,73.84,110.16,70.8,112.27,60.39L112.27,60.39z M102.94,51.29c0.92-3.84,0.17-7.32-2.08-10.32c3.3,20.13-15.98,18.19-11.48,31.67C91.11,62.71,100.84,60.13,102.94,51.29 L102.94,51.29z M42.62,101.84c7.01,2.5,13.2,0.63,16.18-4.15h5.61c2.86,4.98,9.67,6.1,15.84,4.11c-1.54,4.32-4.52,7.48-8.15,9.49 c-3.25,1.8-7.03,2.69-10.81,2.67c-3.77-0.01-7.53-0.93-10.75-2.76C46.99,109.2,44.1,106.08,42.62,101.84L42.62,101.84z"/></g></svg>