<?xml version="1.0" encoding="utf-8"?><svg version="1.1" id="Layer_1" xmlns="http://www.w3.org/2000/svg" xmlns:xlink="http://www.w3.org/1999/xlink" x="0px" y="0px" viewBox="0 0 122.88 87.69" style="enable-background:new 0 0 122.88 87.69" xml:space="preserve"><style type="text/css">.st0{fill-rule:evenodd;clip-rule:evenodd;}</style><g><path class="st0" d="M109.84,6.29c0.94,0,1.7,0.76,1.7,1.7s-0.76,1.7-1.7,1.7s-1.7-0.76-1.7-1.7S108.91,6.29,109.84,6.29 L109.84,6.29z M7.73,62.08c0.99-2.52,1.69-5.46,2.06-8.88c0.37-3.41,0.41-7.3,0.08-11.76c-1.32-1.85-2.16-4.16-2.64-6.82 c-0.03,0.92-0.05,1.87-0.08,2.84c-0.24,9.56-0.52,20.66-4.8,25.4l7.9,22.73h5.23l-3.17-3.17l0,0c-0.13-0.13-0.23-0.3-0.28-0.5 L7.52,62.99l0,0C7.44,62.67,7.52,62.33,7.73,62.08L7.73,62.08z M5.25,31.54c-0.14,0.42-0.29,0.84-0.43,1.28 C3.73,36.2,2.8,40.05,2.09,44.08c-0.1,0.57-0.64,0.95-1.22,0.85c-0.57-0.1-0.95-0.64-0.85-1.22c0.72-4.1,1.68-8.05,2.81-11.54 c0.97-3.02,2.08-5.69,3.26-7.82c0.02-0.06,0.05-0.12,0.09-0.18c0.07-0.12,0.15-0.25,0.22-0.37c0.04-0.07,0.09-0.15,0.13-0.22 c0.02-0.03,0.04-0.07,0.07-0.1c1.75-2.77,3.76-5.14,5.91-7.02c2.41-2.11,5-3.63,7.6-4.46c2.07-0.66,3.62-0.65,5.06-0.64 c1.73,0.01,3.29,0.02,5.5-1.47c0.99-0.67,1.86-1.57,2.73-2.46c2.22-2.29,4.41-4.55,8.9-4.06c3.24,0.35,6.01,2.36,8.47,4.15 C51.43,8,52.08,8.47,52.7,8.87c1.48,0.97,3.8,0.99,6.12,1c1.97,0.01,3.94,0.03,5.63,0.58c4.11,1.34,7.95,4.53,11.39,7.37 c1.31,1.08,2.55,2.11,3.7,2.95c1.48,1,2.85,1.63,4.13,1.92c1.23,0.28,2.38,0.24,3.46-0.1c1.2-0.38,2.33-1.12,3.4-2.22 c1.11-1.14,2.15-2.67,3.13-4.54c0.02-0.04,0.05-0.08,0.07-0.12l5-8.16c-1.25-1.94-1.25-3.72-0.57-5.07 c0.37-0.73,0.94-1.33,1.62-1.75c0.67-0.42,1.45-0.67,2.26-0.72c1.61-0.1,3.32,0.56,4.46,2.27h10.37c2.38-0.17,4.29,0.94,5.27,2.47 c0.4,0.63,0.65,1.34,0.73,2.06c0.07,0.74-0.04,1.49-0.37,2.21c-0.74,1.59-2.55,2.96-5.75,3.36c-1.49,1.18-2.64,1.98-3.94,2.52 c-1.12,0.47-2.32,0.73-3.9,0.88c0,2.25-1.25,5.39-3.19,8.55c-2.3,3.76-5.57,7.65-8.79,10.09c-2.87,2.76-5.76,4.45-8.92,5.05 c-2.94,0.56-6.05,0.16-9.54-1.21c-0.61,0.97-1.31,1.76-2.07,2.41c-0.78,0.66-1.62,1.16-2.52,1.52l-0.96,20.83 c0.23,1.61,0.45,3.04,0.68,4.47c0.73,4.65,1.46,9.3,1.63,14.81c0.92,0.18,1.72,0.47,2.35,0.92c0.95,0.67,1.49,1.64,1.5,2.98 c0,0.58-0.46,1.05-1.04,1.06h-0.01v0h-8.07c-0.55,0-1-0.42-1.05-0.96l-4.13-28.57l-1.94,4.75l-1.11,19.67 c0.74,0.29,1.44,0.64,2.08,1.06c0.88,0.58,1.66,1.31,2.33,2.2c0.34,0.46,0.25,1.12-0.22,1.47c-0.19,0.14-0.41,0.21-0.62,0.21v0 h-9.47c-0.58,0-1.05-0.47-1.05-1.05V62.42c0-0.22,0.07-0.43,0.19-0.6c1.36-2.15,2.09-4.61,2.35-7.29c0.24-2.46,0.09-5.11-0.35-7.92 c-13.95,2.23-18.3-0.17-29.29-6.24c-1.05-0.58-2.16-1.19-3.32-1.83c-1.02,5.11-2.06,9.76-3.13,13.7c-1.11,4.07-2.27,7.37-3.47,9.61 l6.88,20.64l5.64,3.13c0.51,0.28,0.69,0.92,0.41,1.43c-0.19,0.34-0.55,0.54-0.92,0.54v0h-8.9c-0.4,0-0.74-0.22-0.92-0.54l-2.96-4.6 c-0.02-0.03-0.04-0.07-0.06-0.11l0,0l-5.13-10.54l2.23,9.33l4.76,4.76c0.41,0.41,0.41,1.08,0,1.49c-0.21,0.21-0.47,0.31-0.74,0.31 H9.51c-0.49,0-0.9-0.33-1.02-0.79L0.16,62.93c-0.15-0.42-0.01-0.87,0.31-1.15c4.07-3.83,4.35-14.9,4.59-24.38 C5.11,35.35,5.16,33.37,5.25,31.54L5.25,31.54z M8.52,24.38c0.17,0.19,0.28,0.45,0.27,0.73c-0.09,3.24,0.01,6.27,0.47,8.93 c0.44,2.53,1.2,4.69,2.42,6.33c0.15,0.17,0.25,0.38,0.27,0.62c0.37,4.7,0.33,8.82-0.06,12.44c-0.39,3.59-1.13,6.68-2.17,9.35 l9.07,18.62l2.64,4.11h4.28l-2.45-1.36l0,0c-0.22-0.12-0.4-0.33-0.49-0.59l-7.13-21.4c-0.12-0.29-0.1-0.63,0.06-0.92 c1.2-2.07,2.36-5.36,3.5-9.52c1.14-4.16,2.25-9.22,3.35-14.84c-0.01-0.05-0.01-0.11-0.01-0.17V25.32c0-0.58,0.47-1.05,1.05-1.05 c0.58,0,1.05,0.47,1.05,1.05v11c1.49,0.8,2.81,1.54,4.05,2.22c10.78,5.95,14.9,8.22,28.92,5.85l0.04-0.01 c0.57-0.1,1.12,0.28,1.22,0.85c0.59,3.34,0.83,6.53,0.54,9.5c-0.28,2.92-1.07,5.6-2.52,7.99V85h5.81l-0.04-0.03 c-0.7-0.46-1.48-0.81-2.33-1.08v0c-0.45-0.14-0.76-0.57-0.74-1.06l1.16-20.58c0-0.13,0.02-0.26,0.08-0.39l3.36-8.25 c0-0.04,0.01-0.09,0.01-0.13c0.61-3.55,1.49-6.95,2.64-10.21c1.15-3.26,2.55-6.37,4.18-9.33c0.28-0.51,0.92-0.69,1.43-0.41 c0.51,0.28,0.69,0.92,0.41,1.43c-1.58,2.88-2.94,5.88-4.04,9.01c-1.08,3.08-1.93,6.31-2.52,9.69l4.56,31.52h5.74 c-0.08-0.08-0.16-0.16-0.26-0.23c-0.51-0.36-1.29-0.57-2.27-0.67v0c-0.52-0.05-0.93-0.49-0.94-1.03 c-0.11-5.76-0.87-10.59-1.62-15.42c-0.25-1.57-0.49-3.15-0.7-4.59l0,0c-0.01-0.06-0.01-0.12-0.01-0.19l1-21.58 c0-0.45,0.29-0.87,0.74-1.01c0.9-0.28,1.74-0.73,2.49-1.37c0.76-0.64,1.44-1.49,2.03-2.58c0.24-0.51,0.84-0.73,1.36-0.51 c3.45,1.49,6.44,1.95,9.19,1.43c2.73-0.52,5.28-2.04,7.86-4.52c0.04-0.04,0.08-0.08,0.13-0.12c3.03-2.29,6.12-5.97,8.31-9.54 c2.03-3.33,3.26-6.47,2.81-8.1c-0.03-0.09-0.05-0.18-0.05-0.27c-0.03-0.58,0.42-1.07,0.99-1.1c1.9-0.1,3.18-0.32,4.31-0.8 c1.14-0.48,2.21-1.24,3.67-2.41l0,0c0.15-0.12,0.34-0.2,0.55-0.23c2.54-0.26,3.89-1.16,4.37-2.19c0.17-0.37,0.23-0.75,0.19-1.13 c-0.04-0.39-0.18-0.77-0.41-1.13c-0.61-0.94-1.81-1.62-3.36-1.51c-0.04,0-0.08,0.01-0.12,0.01H105.9v0c-0.38,0-0.74-0.2-0.93-0.56 c-0.68-1.28-1.79-1.79-2.81-1.72c-0.46,0.03-0.9,0.17-1.28,0.41c-0.37,0.23-0.67,0.54-0.86,0.91c-0.42,0.82-0.31,2.02,0.78,3.44 c0.26,0.33,0.3,0.81,0.07,1.19l-5.36,8.75c-1.06,2.04-2.22,3.73-3.49,5.02c-1.31,1.35-2.73,2.28-4.27,2.76 c-1.43,0.45-2.94,0.5-4.54,0.14c-1.55-0.35-3.16-1.08-4.86-2.22l0,0l-0.03-0.02c-1.21-0.88-2.49-1.94-3.83-3.05 c-3.29-2.72-6.98-5.78-10.7-6.99c-1.4-0.46-3.19-0.47-4.99-0.48c-2.64-0.02-5.28-0.04-7.26-1.34c-0.65-0.42-1.32-0.91-2.02-1.42 c-2.24-1.63-4.78-3.47-7.46-3.76c-3.47-0.38-5.31,1.52-7.17,3.44c-0.94,0.97-1.88,1.94-3.06,2.74c-2.75,1.85-4.61,1.84-6.68,1.83 c-1.28-0.01-2.66-0.02-4.42,0.55c-2.32,0.74-4.65,2.12-6.85,4.04C11.95,19.75,10.13,21.88,8.52,24.38L8.52,24.38z"/></g></svg>