<?xml version="1.0" encoding="utf-8"?><svg version="1.1" id="Layer_1" xmlns="http://www.w3.org/2000/svg" xmlns:xlink="http://www.w3.org/1999/xlink" x="0px" y="0px" viewBox="0 0 122.88 118.51" style="enable-background:new 0 0 122.88 118.51" xml:space="preserve"><g><path d="M36.74,26.21H53.5V6.71H3.36C1.5,6.71,0,5.21,0,3.36C0,1.5,1.5,0,3.36,0h116.17c1.85,0,3.36,1.5,3.36,3.36 c0,1.85-1.5,3.36-3.36,3.36H92.46l11.66,11.66c1.31,1.31,1.31,3.44,0,4.75c-1.31,1.31-3.43,1.31-4.75,0l-16.4-16.4H60.21v19.49 h14.61c3.08,0,5.87,1.26,7.89,3.28c2.02,2.02,3.28,4.82,3.28,7.89v0c0,2.34-0.73,4.51-1.96,6.31h1.22c3.08,0,5.87,1.26,7.89,3.28 c2.02,2.02,3.28,4.82,3.28,7.89c0,2.34-0.73,4.51-1.96,6.31h1.12c3.08,0,5.87,1.26,7.89,3.28c2.02,2.02,3.28,4.82,3.28,7.89v0 c0,3.07-1.26,5.87-3.28,7.89c-2.02,2.02-4.82,3.28-7.89,3.28h-0.91c1.24,1.8,1.96,3.97,1.96,6.31v0c0,3.08-1.26,5.87-3.28,7.89 c-2.02,2.02-4.82,3.28-7.89,3.28h-0.19c1.24,1.8,1.96,3.97,1.96,6.31l0,0c0,3.08-1.26,5.87-3.28,7.89 c-2.02,2.02-4.82,3.28-7.89,3.28H35.5c-3.08,0-5.87-1.26-7.89-3.28c-2.02-2.02-3.28-4.82-3.28-7.89l0,0c0-2.34,0.73-4.51,1.96-6.31 H26.1c-3.08,0-5.87-1.26-7.89-3.28c-2.02-2.02-3.28-4.82-3.28-7.89v0c0-2.34,0.73-4.51,1.96-6.31h-0.91 c-3.07,0-5.87-1.26-7.89-3.28c-2.02-2.02-3.28-4.82-3.28-7.89v0c0-3.08,1.26-5.87,3.28-7.89c2.02-2.02,4.82-3.28,7.9-3.28h1.12 c-1.24-1.8-1.96-3.97-1.96-6.31c0-3.08,1.26-5.87,3.28-7.9c2.02-2.02,4.82-3.28,7.9-3.28h1.22c-1.24-1.8-1.96-3.97-1.96-6.31v0 c0-3.08,1.26-5.87,3.28-7.9C30.86,27.46,33.66,26.21,36.74,26.21L36.74,26.21z M55.77,54.01c5.07,0,9.65,2.05,12.97,5.37 c0.56,0.56,1.09,1.16,1.58,1.79h16.13c1.28-0.25,2.44-0.88,3.33-1.78c1.17-1.17,1.89-2.77,1.89-4.54s-0.72-3.37-1.89-4.54 c-1.17-1.17-2.77-1.89-4.54-1.89h-8.83c-0.52,0.08-1.06,0.12-1.6,0.12H36.74c-0.54,0-1.08-0.04-1.6-0.12H26.3 c-1.76,0-3.37,0.72-4.54,1.89c-1.17,1.17-1.89,2.77-1.89,4.54c0,1.76,0.72,3.37,1.89,4.54c0.89,0.89,2.05,1.53,3.33,1.78h16.13 c0.49-0.63,1.01-1.23,1.58-1.79C46.12,56.07,50.71,54.01,55.77,54.01L55.77,54.01z M73,66.05c0.72,1.97,1.11,4.09,1.11,6.31 c0,2.22-0.39,4.34-1.11,6.31h12.45c0.54,0,1.08,0.04,1.6,0.11h8.52c1.76,0,3.37-0.72,4.54-1.89c1.17-1.17,1.89-2.77,1.89-4.54v0 c0-1.76-0.72-3.37-1.89-4.54c-1.17-1.17-2.77-1.89-4.54-1.89h-8.73c-0.52,0.08-1.06,0.12-1.6,0.12H73L73,66.05z M70.32,83.53 c-0.49,0.63-1.01,1.23-1.58,1.8c-3.32,3.32-7.91,5.37-12.97,5.37c-5.07,0-9.65-2.05-12.97-5.37c-0.56-0.56-1.09-1.16-1.58-1.79 H24.89c-1.28,0.25-2.44,0.88-3.33,1.77c-1.17,1.17-1.89,2.77-1.89,4.54v0c0,1.76,0.72,3.37,1.89,4.54 c1.17,1.17,2.77,1.89,4.54,1.89h7.8c0.52-0.08,1.06-0.12,1.6-0.12h40.56c0.54,0,1.08,0.04,1.6,0.12h7.8c1.76,0,3.37-0.72,4.54-1.89 c1.17-1.17,1.89-2.77,1.89-4.54v0c0-1.76-0.72-3.37-1.89-4.54c-0.89-0.89-2.05-1.53-3.33-1.77H70.32L70.32,83.53z M38.55,78.67 c-0.72-1.97-1.11-4.09-1.11-6.31c0-2.22,0.39-4.34,1.11-6.31H26.3c-0.54,0-1.08-0.04-1.6-0.12h-8.73c-1.76,0-3.37,0.72-4.54,1.89 c-1.17,1.17-1.89,2.77-1.89,4.54v0c0,1.76,0.72,3.37,1.89,4.54c1.17,1.17,2.77,1.89,4.54,1.89h8.52c0.52-0.08,1.06-0.11,1.6-0.11 H38.55L38.55,78.67z M65.39,62.75c-2.46-2.46-5.86-3.98-9.61-3.98c-3.75,0-7.15,1.52-9.61,3.98c-2.46,2.46-3.98,5.86-3.98,9.61 c0,3.75,1.52,7.15,3.98,9.61c2.46,2.46,5.86,3.98,9.61,3.98c3.75,0,7.15-1.52,9.61-3.98c2.46-2.46,3.98-5.86,3.98-9.61 C69.37,68.6,67.85,65.21,65.39,62.75L65.39,62.75z M35.53,43.69h40.5c1.28-0.25,2.43-0.88,3.33-1.77c1.17-1.17,1.89-2.77,1.89-4.54 v0c0-1.76-0.72-3.37-1.89-4.54c-1.17-1.17-2.77-1.89-4.54-1.89H36.74c-1.76,0-3.37,0.72-4.54,1.89c-1.17,1.17-1.89,2.77-1.89,4.54 v0c0,1.76,0.72,3.37,1.89,4.54C33.09,42.81,34.24,43.45,35.53,43.69L35.53,43.69z M77.26,101.02H34.29 c-1.28,0.25-2.44,0.88-3.33,1.77c-1.17,1.17-1.89,2.77-1.89,4.54l0,0c0,1.76,0.72,3.37,1.89,4.54c1.17,1.17,2.77,1.89,4.54,1.89 h40.56c1.76,0,3.37-0.72,4.54-1.89c1.17-1.17,1.89-2.77,1.89-4.54l0,0c0-1.76-0.72-3.37-1.89-4.54 C79.7,101.9,78.55,101.27,77.26,101.02L77.26,101.02z"/></g></svg>