<?xml version="1.0" encoding="utf-8"?><svg version="1.1" id="Layer_1" xmlns="http://www.w3.org/2000/svg" xmlns:xlink="http://www.w3.org/1999/xlink" x="0px" y="0px" viewBox="0 0 122.88 99.73" style="enable-background:new 0 0 122.88 99.73" xml:space="preserve"><style type="text/css"><![CDATA[
	.st0{fill:#AD473B;}
	.st1{fill-rule:evenodd;clip-rule:evenodd;fill:#AD473B;}
	.st2{fill-rule:evenodd;clip-rule:evenodd;fill:#8C3A30;}
	.st3{fill-rule:evenodd;clip-rule:evenodd;fill:#F69272;}
	.st4{fill-rule:evenodd;clip-rule:evenodd;fill:#FCC23D;}
]]></style><g><path class="st0" d="M109.83,6.45l10.02,4.34l0-0.01l0.44,0.19c1.25,0.55,2.11,0.93,2.45,2.08l0.04,0.14 c0.43,1.64-0.49,2.59-3.26,3.42l-8,2.4c-0.36,1.83-0.71,3.77-0.7,5.77c0.01,0.97,0.09,1.95,0.23,2.95c0.14,1.02,0.34,2,0.57,2.96 c0.03,0.12,0.05,0.25,0.05,0.37l0,0c0.65,11.79-2.21,21.07-8.25,28.09C97.79,65.7,89.42,70.18,78.6,72.78l1.32,7.81h6.12 c1.26,0,2.41,0.52,3.24,1.35l0.01,0.01c0.83,0.83,1.35,1.98,1.35,3.24c0,1.27-0.52,2.41-1.35,3.25c-0.05,0.05-0.11,0.1-0.16,0.15 c-0.82,0.74-1.9,1.2-3.08,1.2H69.7c-1.26,0-2.41-0.52-3.24-1.35l0,0c-0.83-0.83-1.35-1.98-1.35-3.25c0-1.26,0.52-2.4,1.35-3.24 l0.01-0.01c0.83-0.83,1.98-1.35,3.24-1.35h0.92l-1.17-6.96c-3.97-0.02-7.77,0.17-11.39,0.57c-4.16,0.46-8.06,1.19-11.7,2.21 c-13.16,3.7-19.42,10.02-27.85,18.52l-0.1,0.1c-0.51,0.52-1,1.06-1.43,1.53c-2.76,3.04-3.75,4.12-9.16,2.19l-0.14-0.06 c-0.75-0.27-1.45-0.6-2.08-0.96c-0.7-0.41-1.34-0.88-1.92-1.41c-1.27-1.16-2.18-2.56-2.78-4.16C0.32,90.65,0.04,88.96,0,87.13 c-0.02-0.83,0.45-1.56,1.14-1.92c5.2-2.7,10.11-5.76,14.74-9.21c4.62-3.44,8.97-7.26,13.03-11.46c0.4-0.41,0.92-0.63,1.45-0.65 l1.07-0.05c9.1-0.43,20.69-0.98,28.1-5.12c5.19-2.9,9.14-7.09,12.96-12.02C67.7,52.3,62.49,57.6,55.85,60.24v0.01 c-2.28,0.9-5.34,1.58-8.6,2.07c-4.22,0.64-8.86,1-12.49,1.18c-1.17,0.05-2.16-0.85-2.21-2.01c-0.03-0.58,0.18-1.11,0.54-1.51 l0.78-0.92l0.75-0.9c6.1-7.93,15.31-16.28,24.08-24.22c9.45-8.57,18.38-16.65,21.91-22.88c1.23-3.72,3.34-6.41,5.9-8.22 c2.23-1.57,4.8-2.46,7.43-2.74c2.58-0.28,5.22,0.02,7.67,0.8C104.9,1.95,107.84,3.88,109.83,6.45L109.83,6.45z M115.36,13.45 l-7.6-3.29c-0.4-0.14-0.76-0.4-1.03-0.78c-1.45-2.06-3.77-3.6-6.4-4.45c-1.9-0.61-3.94-0.84-5.94-0.62c-1.94,0.21-3.82,0.85-5.44,2 c-1.89,1.34-3.46,3.38-4.38,6.26c-0.04,0.13-0.1,0.26-0.17,0.38c-3.8,6.85-13.06,15.24-22.87,24.13 c-7.95,7.2-16.27,14.74-22.14,21.88c2.35-0.2,4.84-0.46,7.23-0.83c2.96-0.45,5.71-1.05,7.67-1.82l0,0.01 c7.07-2.81,12.67-9.52,18.01-15.94c0.48-0.58,0.95-1.14,1.58-1.89l0.1-0.12l0.19-0.22c1.57-1.87,7.29-8.64,10.32-6.33 c0.03,0.02,0.06,0.05,0.09,0.07c0.82,0.69,1.13,1.68,0.84,3.02c-0.14,0.65-0.44,1.47-0.94,2.5c-0.06,0.13-0.13,0.26-0.22,0.38 c-0.99,1.34-2.18,3-3.34,4.62c-5.9,8.23-11.04,15.4-19.34,20.03c-8.28,4.62-20.42,5.2-29.96,5.65l-0.26,0.01 C27.32,72.21,23,75.98,18.4,79.4c-4.45,3.31-9.15,6.29-14.1,8.92c0.1,0.86,0.27,1.66,0.54,2.38c0.37,0.98,0.92,1.83,1.67,2.52 c0.34,0.31,0.74,0.6,1.19,0.86c0.42,0.24,0.88,0.46,1.38,0.64l0.14,0.05c2.76,0.99,3.25,0.45,4.61-1.05c0.43-0.47,0.91-1,1.57-1.66 l0.1-0.1c8.88-8.96,15.48-15.62,29.7-19.61c3.87-1.08,8-1.86,12.38-2.35c4.3-0.47,8.87-0.66,13.7-0.57 c0.18-0.01,0.36,0.01,0.54,0.04c1.14,0.24,1.87,1.37,1.63,2.51c0,0,0,0,0,0v0.03l1.72,10.21c0.04,0.16,0.06,0.32,0.06,0.49 c0,1.17-0.95,2.12-2.12,2.12H69.7c-0.1,0-0.19,0.04-0.25,0.1c-0.06,0.06-0.1,0.15-0.1,0.25c0,0.1,0.04,0.18,0.1,0.25l0,0l0,0 c0.06,0.06,0.15,0.1,0.25,0.1h16.33c0.08,0,0.15-0.02,0.21-0.06l0.04-0.04c0.06-0.06,0.1-0.15,0.1-0.25c0-0.1-0.04-0.19-0.1-0.25 c-0.06-0.06-0.15-0.1-0.25-0.1h-7.91v0c-1.02,0-1.91-0.73-2.09-1.77c-0.56-3.34-1.07-8.03-1.88-11.16c0-0.01,0,0-0.01-0.02 c-0.03-0.09-0.05-0.18-0.07-0.27c-0.24-1.14,0.49-2.27,1.63-2.51c10.89-2.33,19.17-6.49,24.53-12.72 c5.28-6.13,7.79-14.37,7.23-24.93c-0.25-1.06-0.46-2.11-0.6-3.15c-0.16-1.13-0.25-2.29-0.27-3.49v-0.01 c-0.02-2.61,0.42-4.86,0.84-6.97l0.15-0.77c0.11-0.8,0.67-1.49,1.49-1.74L115.36,13.45L115.36,13.45z M74.16,71.88L74.16,71.88 L74.16,71.88L74.16,71.88z M73.46,71.98C73.46,71.98,73.46,71.96,73.46,71.98L73.46,71.98L73.46,71.98z"/><path class="st3" d="M108.46,8.16l10.52,4.56c1.9,0.86,2.72,1.03-0.07,1.87l-9.23,2.77c-0.43,2.28-0.99,4.72-0.98,7.44 c0.02,2.17,0.36,4.29,0.86,6.38c1.25,22.42-10.73,35.14-33.43,39.99c0.05,0.13,0.09,0.28,0.11,0.42l1.87,11.12h7.91 c1.36,0,2.47,1.11,2.47,2.47c0,1.36-1.11,2.47-2.47,2.47H69.7c-1.36,0-2.47-1.11-2.47-2.47c0-1.36,1.11-2.47,2.47-2.47h3.43 l-1.74-10.31c-0.05-0.3-0.05-0.59,0.01-0.86c-9.55-0.19-18.1,0.73-25.61,2.84c-13.75,3.86-20.17,10.39-28.88,19.17 c-3.4,3.43-3.45,4.98-8.39,3.21C7.14,96.29,6,95.61,5.09,94.78c-2.03-1.85-2.92-4.5-2.98-7.69c10.6-5.49,20.05-12.51,28.33-21.08 c9.47-0.45,21.97-0.88,30.13-5.43c9.35-5.22,14.67-14.11,22-24.05c0.86-1.78,1.03-2.72,0.67-3.02c-1.49-1.23-6.7,5.13-7.63,6.23 c-6.03,7.17-12.19,15.24-20.53,18.55c-4.97,1.97-14.21,2.8-20.41,3.11c0.55-0.64,1.09-1.27,1.63-1.93 c12.67-16.47,39.36-35.11,46.26-47.54C86.76-1.2,102.86,0.22,108.46,8.16L108.46,8.16L108.46,8.16z"/><path class="st4" d="M109.03,8.41l9.95,4.31c1.9,0.86,2.72,1.03-0.07,1.87l-8.74,2.62L109.03,8.41L109.03,8.41z"/><path class="st2" d="M28.5,64.96c1.7-1.88,3.34-3.61,4.73-5.13c32.47,4.12,40.81-23.27,50-26.33 C72.62,53.49,62.61,63.77,28.5,64.96L28.5,64.96z"/><path class="st1" d="M98.44,8.62c1.6,0,2.9,1.29,2.9,2.9c0,1.6-1.29,2.9-2.9,2.9s-2.9-1.29-2.9-2.9 C95.55,9.92,96.84,8.62,98.44,8.62L98.44,8.62L98.44,8.62z"/><polygon class="st0" points="109.69,7.08 111.48,18.52 109.65,18.8 107.86,7.37 109.69,7.08"/></g></svg>