<svg id="Layer_1" data-name="Layer 1" xmlns="http://www.w3.org/2000/svg" viewBox="0 0 110.39 122.88"><title>bird-house</title><path d="M97,59.6l-9.14,42.15H66.09v21.13H44.3V101.75H22.53L13.39,59.6,0,51.68,54.1.76c1-1,1.18-.95,2.11-.07l54.18,51L97,59.6ZM55.19,84.49a2.9,2.9,0,1,1-2.89,2.89,2.9,2.9,0,0,1,2.89-2.89Zm0-39.55A17.21,17.21,0,1,1,43,50a17.2,17.2,0,0,1,12.17-5Zm8.51,8.71a12,12,0,1,0,3.52,8.51,12,12,0,0,0-3.52-8.51Zm-9.06-26.9-35.7,34,7.77,35.79h57l7.76-35.78L55,26.7c-.44-.44.27-.66-.16-.65s.26.21-.18.65l0,.05Z"/></svg>