<svg id="Layer_1" data-name="Layer 1" xmlns="http://www.w3.org/2000/svg" viewBox="0 0 81.13 122.88"><title>cage</title><path d="M40.57,18c.55,0,1.1,0,1.64,0a7.27,7.27,0,0,0,5.63-7.08A7.28,7.28,0,1,0,38.93,18c.54,0,1.09,0,1.64,0Zm7.64.77A40.52,40.52,0,0,1,69.1,30.29a42.15,42.15,0,0,1,12,29.28v61.48a1.82,1.82,0,0,1-1.83,1.83H1.83A1.83,1.83,0,0,1,0,121.05V59.57A42.14,42.14,0,0,1,12,30.29,40.45,40.45,0,0,1,32.92,18.76l-.09-.09a10.94,10.94,0,1,1,15.47,0l-.09.09Zm-5.72,2.95H42.4V47.17H58.66A61.35,61.35,0,0,0,55,34.83c-2.29-5.37-5.51-10.18-9.87-12.74a2.2,2.2,0,0,1-.25-.17q-1.19-.15-2.4-.21Zm-3.75,0-.09,0q-1.41.09-2.79.27c-4.29,2.57-7.46,7.36-9.72,12.7a60.89,60.89,0,0,0-3.67,12.5H38.74V21.72Zm20.94,86.52V96.4H42.4v11.84Zm0-15.5V73.21H42.4V92.74Zm0-23.19V56.81a47.37,47.37,0,0,0-.44-6H42.4V69.55Zm-7-45.73a38.2,38.2,0,0,1,5.7,9.57,65.34,65.34,0,0,1,4,13.78h13a39,39,0,0,0-8.88-14.33,37.46,37.46,0,0,0-13.79-9ZM63,50.83a50.4,50.4,0,0,1,.41,6V69.55H77.47v-10a37.27,37.27,0,0,0-1-8.74Zm.41,22.38V92.74H77.47V73.21Zm0,23.19v11.84H77.47V96.4ZM17.77,108.24V96.4H3.66v11.84Zm0-15.5V73.21H3.66V92.74Zm0-23.19V56.81a48.72,48.72,0,0,1,.42-6H4.7a37.27,37.27,0,0,0-1,8.74v10Zm1-22.38a65.39,65.39,0,0,1,4-13.92,38,38,0,0,1,5.47-9.34,37.33,37.33,0,0,0-13.57,8.93A38.91,38.91,0,0,0,5.78,47.17Zm3.15,3.66a47.5,47.5,0,0,0-.44,6V69.55H38.74V50.83Zm-.44,22.38V92.74H38.74V73.21Zm0,23.19v11.84H38.74V96.4Z"/></svg>