<svg id="Layer_1" data-name="Layer 1" xmlns="http://www.w3.org/2000/svg" viewBox="0 0 117.93 122.88"><title>cats</title><path d="M25.12,56.81l-.28-.09a40.88,40.88,0,0,1-4.05-1.44L17.57,67.94C17,70.35,16.44,72.49,16,74.43s-.85,4-1.23,6.07c-.19,1-.29,1.55-.39,2.09-1.17,6-2.41,12.47,1,17.54a9,9,0,0,0,3.7,3.23,13.49,13.49,0,0,0,5.43,1.15h3.37V83.87a1.88,1.88,0,1,1,3.76,0V104.5h.64c-.14,1.23-.25,2.49-.29,3.77H24.4a16.91,16.91,0,0,1-6.95-1.51,12.7,12.7,0,0,1-5.23-4.54C8,95.86,9.39,88.65,10.7,81.88l.39-2.06c.37-2,.79-4.07,1.26-6.2s1-4.42,1.57-6.61l3.45-13.55a26.54,26.54,0,0,1-9.51-9.22L7.73,44l-3,.38a1.88,1.88,0,0,1-.46-3.74L6,40.45a23.45,23.45,0,0,1-1.4-8.4L1.3,31a1.88,1.88,0,1,1,1.16-3.57L5,28.21A35.27,35.27,0,0,1,8.52,17.8L9.26,2.45a1.88,1.88,0,0,1,2-1.78,1.83,1.83,0,0,1,1.2.51L19.56,8a43.76,43.76,0,0,1,16-3.33A40.5,40.5,0,0,1,51.81,8l8-7.45a1.86,1.86,0,0,1,3.15,1.36L63,14.18c-1.25,0-2.5.13-3.74.27l-.05-8.28-5.67,5.31a1.87,1.87,0,0,1-2.14.4A37.21,37.21,0,0,0,35.6,8.39a40.54,40.54,0,0,0-15.7,3.52,1.91,1.91,0,0,1-2-.37l-5-4.81-.57,11.65a1.82,1.82,0,0,1-.21.78A31.13,31.13,0,0,0,8.6,29.38l11.81,3.83a1.88,1.88,0,0,1-1.16,3.58L8.41,33.27A19.19,19.19,0,0,0,9.89,40l9.71-1.21a1.88,1.88,0,0,1,.46,3.74l-8.21,1a23.83,23.83,0,0,0,8.6,7.36A31,31,0,0,0,27,53.38c-.17.18-.34.37-.49.56a7.43,7.43,0,0,0-1.38,2.87ZM42.3,19l6.92,6.59a42.08,42.08,0,0,1,15.51-3.23,39.15,39.15,0,0,1,15.76,3.22l7.73-7.24a1.82,1.82,0,0,1,3.06,1.32l.09,15.44A30.92,30.92,0,0,1,95.24,45.4l3.1-1a1.82,1.82,0,1,1,1.13,3.47l-4,1.28v.25A19.73,19.73,0,0,1,93.77,57l2.5.34A1.82,1.82,0,1,1,95.8,61l-3.93-.52q-.37.55-.78,1.11a30.45,30.45,0,0,1-8.18,7.6l5.49,20c2.24,7,3.47,13.39,2.94,18.89a17.75,17.75,0,0,1-4.86,11.16h9c6,0,10.6,0,15.13-4.39a11.85,11.85,0,0,0,3.64-9,14.33,14.33,0,0,0-1.19-5.24,15,15,0,0,0-3-4.56,13.21,13.21,0,0,0-10-4.13,1.82,1.82,0,1,1-.1-3.64,16.82,16.82,0,0,1,12.69,5.23A18.79,18.79,0,0,1,116.44,99a18.06,18.06,0,0,1,1.48,6.59,15.45,15.45,0,0,1-4.74,11.76c-5.6,5.43-10.87,5.43-17.67,5.43H72.24a1.72,1.72,0,0,1-.9,0H58.77a1.74,1.74,0,0,1-.45.06,1.76,1.76,0,0,1-.46-.06h-4a16.37,16.37,0,0,1-6.74-1.46,12.37,12.37,0,0,1-5.08-4.4c-4.1-6.16-2.74-13.15-1.47-19.71l.38-2c.36-2,.76-3.95,1.22-6s1-4.28,1.52-6.4l3.35-13.14a25.91,25.91,0,0,1-9-8.57l-.35-.58-2.94.37a1.82,1.82,0,1,1-.44-3.62l1.75-.22a22.33,22.33,0,0,1-1.36-8.15l-3.24-1a1.82,1.82,0,0,1,1.13-3.47l2.44.8A33.92,33.92,0,0,1,38.51,35.1l.72-14.89a1.81,1.81,0,0,1,1.9-1.73,1.79,1.79,0,0,1,1.17.5ZM79.82,119.17h.31a1.09,1.09,0,0,0,.81-.26s.26-.16.31-.19c4.08-2.57,6-6.38,6.47-11,.47-5-.69-10.92-2.79-17.44L79.65,71c-.51.23-1,.44-1.53.64a33.35,33.35,0,0,1-6.2,1.9,34.58,34.58,0,0,1-6.84.79A36.65,36.65,0,0,1,50.4,71.44L47.28,83.71c-.6,2.35-1.09,4.42-1.51,6.3s-.83,3.91-1.19,5.88l-.38,2c-1.14,5.86-2.34,12.1.93,17a8.71,8.71,0,0,0,3.59,3.13A13.06,13.06,0,0,0,54,119.18h2.51V99.27a1.83,1.83,0,0,1,3.65,0v19.9H70V99.27a1.83,1.83,0,0,1,3.66,0v19.9ZM72.06,69.8a35.38,35.38,0,0,0,4-1.26,27.21,27.21,0,0,0,11.68-8.63L81.27,59a1.82,1.82,0,0,1,.47-3.61L90,56.53a16.57,16.57,0,0,0,1.85-6.19l-9.76,3.17A1.82,1.82,0,0,1,80.94,50l10.79-3.5a27.05,27.05,0,0,0-3.74-10,1.75,1.75,0,0,1-.25-.91l-.07-11.76L82.17,29a1.81,1.81,0,0,1-2.07.4A36,36,0,0,0,64.76,26a39.39,39.39,0,0,0-15.22,3.41,1.81,1.81,0,0,1-2-.36l-4.9-4.66-.55,11.3a1.91,1.91,0,0,1-.2.76,30.24,30.24,0,0,0-3.33,9.91L50,50a1.82,1.82,0,0,1-1.12,3.47L38.41,50.1a18.77,18.77,0,0,0,1.43,6.49l9.41-1.17a1.83,1.83,0,0,1,.44,3.63l-7.95,1a22.91,22.91,0,0,0,7.6,6.73,30.88,30.88,0,0,0,11.54,3.65,32.69,32.69,0,0,0,11.18-.62ZM65.25,58a6.58,6.58,0,0,1-1.66,1.84c-2.13,1.58-4.83,1.59-7.76,1.18a1.82,1.82,0,0,1,.5-3.61c2.09.3,3.94.35,5.07-.49s1.7-2.4,1.79-5.43h-.94a1.83,1.83,0,1,1,0-3.65h5.64a1.83,1.83,0,1,1,0,3.65h-1a10.54,10.54,0,0,0,.54,2.8,5.39,5.39,0,0,0,1.82,2.63,4.35,4.35,0,0,0,2.58.84,6.52,6.52,0,0,0,2.32-.4,1.82,1.82,0,0,1,1.22,3.44,10.44,10.44,0,0,1-3.61.6,8,8,0,0,1-4.67-1.54A8.26,8.26,0,0,1,65.25,58ZM76.13,43a2.53,2.53,0,1,1-1.79.74A2.52,2.52,0,0,1,76.13,43ZM54.19,43a2.53,2.53,0,1,1-1.79.74A2.52,2.52,0,0,1,54.19,43ZM24.7,26a2.56,2.56,0,0,1,1.84.77,2.61,2.61,0,0,1-3.69,3.69,2.63,2.63,0,0,1-.76-1.85A2.61,2.61,0,0,1,24.7,26Z"/></svg>