<svg id="Layer_1" data-name="Layer 1" xmlns="http://www.w3.org/2000/svg" viewBox="0 0 122.88 64.89"><title>cheetah</title><path d="M103.65,5c-1.57-.12-3-.18-4.4-.15a27.66,27.66,0,0,0-3.56.3.83.83,0,0,1,.19.52c0,.6-.66,1.08-1.47,1.08A1.43,1.43,0,0,1,93,5.84a25.75,25.75,0,0,0-3.79,2,1.2,1.2,0,0,1,1.06,1c0,.59-.66,1.07-1.48,1.07a1.38,1.38,0,0,1-1.47-1,21.53,21.53,0,0,1-4,1.9,24.56,24.56,0,0,1-5.87,1.21.67.67,0,0,1,.13.41c0,.52-.58.95-1.3.95s-1.31-.43-1.31-.95a.88.88,0,0,1,.07-.32,44.42,44.42,0,0,1-6.8-.62h-.07l-1.4-.22c-3.86-.6-8.61-1.34-13.42-1.67a1.62,1.62,0,0,1-1.66,1c-.92,0-1.66-.53-1.69-1.18-6.42-.16-12.62.63-16.62,3.68a20.67,20.67,0,0,0-4.38,4.66,33.1,33.1,0,0,0-3.58,6.78c-.43,1.23-.89,2.51-1.38,3.83s-.91,2.48-1.41,3.81c-.28.76-.58,1.58-.89,2.44-3.23,9-8.41,23.45-18.63,19.92a4.86,4.86,0,0,0-1.1-.26,4.69,4.69,0,0,0,1.51.77,9.43,9.43,0,0,0,6.68-.32,19.07,19.07,0,0,0,7-5.27c3.44-3.95,5.36-9.1,7.26-14.23A89.18,89.18,0,0,1,27.81,27c.54-1.11,1.13-2.2,1.75-3.26.44-.76.91-1.5,1.39-2.21a2.23,2.23,0,0,1-1.32.41c-1,0-1.84-.6-1.84-1.34s.82-1.33,1.84-1.33,1.83.59,1.83,1.33a1.49,1.49,0,0,1,0,.21l.09-.12a.84.84,0,0,1,1.17-.2.84.84,0,0,1,.31.42c2,5.45,2.84,10.24,2.23,14.26a14.25,14.25,0,0,1-.91,3.32,1.81,1.81,0,0,1,1.07-.33c.81,0,1.47.48,1.47,1.08s-.66,1.07-1.47,1.07a1.4,1.4,0,0,1-1.47-.93A13.7,13.7,0,0,1,28.7,44.9,6.77,6.77,0,0,0,26,47.61a7.34,7.34,0,0,0-.23,3.86l.1.75a2.18,2.18,0,0,1,.79-.14c.93,0,1.68.55,1.68,1.22s-.75,1.23-1.68,1.23a2.24,2.24,0,0,1-.52-.06l1.08,8.74H33a.9.9,0,0,0,.68-.32.41.41,0,0,0,.07-.29,1.21,1.21,0,0,0-.12-.47,1.26,1.26,0,0,0-.82-.68L30.14,61a.87.87,0,0,1-.68-.67A27.56,27.56,0,0,1,28.68,56a23.12,23.12,0,0,1,0-4.48v0a3.86,3.86,0,0,1,.38-1.13,4.1,4.1,0,0,1,.48-.72,1.31,1.31,0,0,1-1.11-1.15c0-.67.75-1.22,1.68-1.22a1.85,1.85,0,0,1,1.47.63c1.18-.79,2.65-1.6,4.17-2.44a42.72,42.72,0,0,0,6.3-3.92,23.09,23.09,0,0,0,4.33-4.73A21.23,21.23,0,0,0,49.1,31.2a19.55,19.55,0,0,0,.48-1.9,17.81,17.81,0,0,0,.28-1.86c0-.11,0-.22,0-.32a1,1,0,0,1,0-.3,29,29,0,0,0-.49-4.25,1.74,1.74,0,0,1-1.57.78c-.93,0-1.68-.55-1.68-1.22s.75-1.22,1.68-1.22a2,2,0,0,1,1.3.44l-.08-.3A15.73,15.73,0,0,0,47,16.55a1,1,0,1,1,1.76-1.14A18.14,18.14,0,0,1,51,20.51a27.5,27.5,0,0,1,.81,4.91,2.54,2.54,0,0,1,1.81.69h0A44,44,0,0,0,61.28,32a1.48,1.48,0,0,1,1.42-.79c.82,0,1.48.48,1.48,1.07a1,1,0,0,1-.66.9,24,24,0,0,0,3.6,1.32c0-.58.67-1,1.47-1s1.48.48,1.48,1.08a.84.84,0,0,1-.2.54,34.12,34.12,0,0,0,10.42-.31.82.82,0,0,1-.23-.56c0-.6.66-1.08,1.48-1.08S83,33.6,83,34.2c0,0,0,0,0,.06l.9-.19a39.73,39.73,0,0,0,1.44-8.42,26.3,26.3,0,0,0-.62-7.35,1,1,0,0,1,.12-.78,1.67,1.67,0,0,1-.39.05c-.72,0-1.31-.43-1.31-.95s.59-1,1.31-1,1.3.42,1.3,1a.72.72,0,0,1-.12.4,1,1,0,0,1,1.13.8,28.05,28.05,0,0,1,.67,7.93A41.8,41.8,0,0,1,85.82,35a.86.86,0,0,1-.13.29l.66,10.55a2,2,0,0,1,1.29-.43c.93,0,1.68.54,1.68,1.22s-.75,1.22-1.68,1.22a2,2,0,0,1-1.18-.35L86.93,55l1.2,8.24h6.62a1.39,1.39,0,0,0,1.18-.7,1.28,1.28,0,0,0,.13-.57,1.46,1.46,0,0,0-.16-.61,1.39,1.39,0,0,0-1.19-.77l-3-.2a.84.84,0,0,1-.78-.89L91,55.1a2.34,2.34,0,0,1-.66.1c-.93,0-1.68-.55-1.68-1.23s.75-1.22,1.68-1.22a2,2,0,0,1,.71.12l.27-10.63a1.88,1.88,0,0,1-1.47.63c-.93,0-1.69-.55-1.69-1.23s.76-1.22,1.69-1.22a1.83,1.83,0,0,1,1.5.67l.13-5.27a.81.81,0,0,1,.34-.65c.87-.65,1.72-1.32,2.55-2S96,31.68,96.79,30.9c2-2.08,2.19-2.64,2.51-3.83a18.59,18.59,0,0,1,.9-2.74,15.32,15.32,0,0,1,6-7.25,15.53,15.53,0,0,1,1.44-.8,1,1,0,0,1-.79-.88c0-.52.59-1,1.31-1s1.3.43,1.3,1a.61.61,0,0,1,0,.14,16.21,16.21,0,0,1,5.87-.78,1.07,1.07,0,0,1,.32.08c.28.13.56.27.85.43.82.43,1.76.93,2.25.6a5.05,5.05,0,0,0,1-.83,7.58,7.58,0,0,0,.77-1,5.88,5.88,0,0,0,.64-1.34,2.26,2.26,0,0,0,.06-1.23,1.14,1.14,0,0,0-.22-.42,10.55,10.55,0,0,0-.7-.79l-1.54-1.63a.82.82,0,0,1-.23-.64V7.75a3,3,0,0,0-.12-1.24A4.35,4.35,0,0,0,117.23,5a1.39,1.39,0,0,1-1.2.57c-.72,0-1.3-.43-1.3-1a.9.9,0,0,1,.48-.74l-.46-.15a9.16,9.16,0,0,0-1.54-.32,11.82,11.82,0,0,1-2.35-.46l-.93-.24a2.56,2.56,0,0,1-1-.68c0-.05.68-.8.28-.45-.89.8-1.79,1.64-2.71,2.41a3.36,3.36,0,0,1-2.85,1ZM40,19.82c.82,0,1.48.48,1.48,1.07S40.79,22,40,22s-1.48-.48-1.48-1.08.66-1.07,1.48-1.07Zm-6.79,23c.93,0,1.68.55,1.68,1.22s-.75,1.23-1.68,1.23-1.68-.55-1.68-1.23.75-1.22,1.68-1.22Zm56-31.66c.69,0,1.25.41,1.25.91s-.56.91-1.25.91-1.25-.41-1.25-.91.56-.91,1.25-.91Zm5.41-3.37c.81,0,1.48.48,1.48,1.08S95.38,10,94.57,10s-1.48-.48-1.48-1.07.66-1.08,1.48-1.08Zm-54,15.38c.82,0,1.48.48,1.48,1.08s-.66,1.07-1.48,1.07-1.47-.48-1.47-1.07.66-1.08,1.47-1.08ZM111.08,4.53c.72,0,1.3.42,1.3,1s-.58.95-1.3.95-1.31-.43-1.31-.95.59-1,1.31-1Zm3.76,3.85a1,1,0,0,1,.14-.45.74.74,0,0,1,1.4,0,.91.91,0,0,1,.14.49,7,7,0,0,0,.19,2,4,4,0,0,0,.66,1.41.84.84,0,1,1-1.33,1,5.37,5.37,0,0,1-1-2,8.82,8.82,0,0,1-.25-2.42Zm-3.94,2.94c.72,0,1.31.43,1.31.95s-.59,1-1.31,1-1.3-.42-1.3-1,.58-.95,1.3-.95Zm-2.46-2.65c.72,0,1.3.43,1.3.95s-.58,1-1.3,1-1.31-.43-1.31-1,.59-.95,1.31-.95Zm-2.09-3.45c.72,0,1.31.42,1.31,1s-.59,1-1.31,1-1.3-.43-1.3-1,.58-1,1.3-1ZM82.67,21.51c.93,0,1.68.55,1.68,1.23S83.6,24,82.67,24,81,23.41,81,22.74s.76-1.23,1.69-1.23Zm-42,17.29c.93,0,1.68.55,1.68,1.23s-.75,1.22-1.68,1.22S39,40.7,39,40s.76-1.23,1.69-1.23ZM69.55,12.16c.82,0,1.48.48,1.48,1.07s-.66,1.08-1.48,1.08-1.47-.48-1.47-1.08.66-1.07,1.47-1.07Zm28.89,10c.81,0,1.47.48,1.47,1.07s-.66,1.08-1.47,1.08S97,23.83,97,23.23s.66-1.07,1.48-1.07ZM100.52,18c.82,0,1.48.48,1.48,1.08s-.66,1.07-1.48,1.07-1.47-.48-1.47-1.07S99.71,18,100.52,18ZM97,26.41c.93,0,1.69.55,1.69,1.22S98,28.86,97,28.86s-1.68-.55-1.68-1.23.76-1.22,1.68-1.22Zm-8.43,9.05c.93,0,1.68.55,1.68,1.23s-.75,1.22-1.68,1.22-1.68-.55-1.68-1.22.75-1.23,1.68-1.23Zm2.83-5.75c.93,0,1.69.55,1.69,1.23s-.76,1.22-1.69,1.22-1.68-.55-1.68-1.22.75-1.23,1.68-1.23Zm-1.22-4.83c.93,0,1.68.55,1.68,1.23s-.75,1.22-1.68,1.22-1.69-.55-1.69-1.22.76-1.23,1.69-1.23Zm-.62-5.21c.93,0,1.69.55,1.69,1.23s-.76,1.22-1.69,1.22-1.68-.55-1.68-1.22.75-1.23,1.68-1.23ZM44.23,34.59c.93,0,1.68.55,1.68,1.23S45.16,37,44.23,37s-1.69-.55-1.69-1.22.76-1.23,1.69-1.23Zm2.62-6a1.52,1.52,0,0,1,2.06-.33,1.52,1.52,0,0,1-.33,2.06,1.5,1.5,0,0,1-2,.32,1.5,1.5,0,0,1,.32-2.05Zm-8.38,5.59c.82,0,1.48.48,1.48,1.07s-.66,1.08-1.48,1.08S37,35.89,37,35.29s.66-1.07,1.47-1.07ZM40.81,27c.93,0,1.68.55,1.68,1.22s-.75,1.23-1.68,1.23-1.68-.55-1.68-1.23S39.88,27,40.81,27Zm1.94,4c.93,0,1.69.55,1.69,1.22s-.76,1.23-1.69,1.23-1.68-.55-1.68-1.23.75-1.22,1.68-1.22ZM37,29.53c.81,0,1.47.48,1.47,1.07s-.66,1.08-1.47,1.08-1.48-.49-1.48-1.08.66-1.07,1.48-1.07ZM61.84,10.76c.82,0,1.48.48,1.48,1.07s-.66,1.08-1.48,1.08-1.48-.48-1.48-1.08.67-1.07,1.48-1.07Zm19.61,2.55c.72,0,1.3.43,1.3.95s-.58,1-1.3,1-1.31-.42-1.31-1,.59-.95,1.31-.95ZM75.18,33c.82,0,1.48.48,1.48,1.08s-.66,1.07-1.48,1.07-1.47-.48-1.47-1.07S74.37,33,75.18,33Zm6.66-3.29c.82,0,1.48.48,1.48,1.07s-.66,1.07-1.48,1.07-1.47-.48-1.47-1.07.66-1.07,1.47-1.07Zm1.55-4.44c.81,0,1.47.48,1.47,1.07s-.66,1.08-1.47,1.08-1.48-.49-1.48-1.08.66-1.07,1.48-1.07Zm-24.89.79c.81,0,1.47.48,1.47,1.07s-.66,1.08-1.47,1.08S57,27.74,57,27.14s.66-1.07,1.48-1.07Zm-5-4c.93,0,1.68.55,1.68,1.23s-.75,1.22-1.68,1.22-1.68-.55-1.68-1.22S52.52,22,53.45,22Zm2.45-2.94c.79,0,1.43.47,1.43,1s-.64,1-1.43,1-1.43-.46-1.43-1,.64-1,1.43-1Zm9.19,3.06c.79,0,1.43.46,1.43,1s-.64,1-1.43,1-1.43-.47-1.43-1,.64-1,1.43-1Zm-24.7-7.81c.81,0,1.47.48,1.47,1.08s-.66,1.07-1.47,1.07-1.48-.48-1.48-1.07.66-1.08,1.48-1.08Zm-7.56.57c.93,0,1.68.55,1.68,1.22s-.75,1.23-1.68,1.23-1.68-.55-1.68-1.23.75-1.22,1.68-1.22ZM43.62,10.1c.93,0,1.69.54,1.69,1.22s-.76,1.22-1.69,1.22-1.68-.55-1.68-1.22.75-1.22,1.68-1.22ZM65,13.78c.82,0,1.48.49,1.48,1.08S65.83,16,65,16s-1.49-.49-1.49-1.09.67-1.08,1.49-1.08ZM45.54,24.54c.93,0,1.68.55,1.68,1.22S46.47,27,45.54,27s-1.68-.55-1.68-1.23.75-1.22,1.68-1.22ZM43.8,18.71c.82,0,1.48.48,1.48,1.07s-.66,1.08-1.48,1.08-1.48-.49-1.48-1.08.66-1.07,1.48-1.07Zm1-3.55c.82,0,1.48.48,1.48,1.08s-.66,1.07-1.48,1.07-1.47-.48-1.47-1.07.66-1.08,1.47-1.08ZM37.3,17.31c.82,0,1.48.48,1.48,1.07s-.66,1.08-1.48,1.08-1.47-.48-1.47-1.08.66-1.07,1.47-1.07ZM35.92,22c.81,0,1.47.48,1.47,1.07s-.66,1.08-1.47,1.08-1.48-.48-1.48-1.08S35.1,22,35.92,22ZM102.72,14c.81,0,1.47.49,1.47,1.08s-.66,1.07-1.47,1.07-1.48-.48-1.48-1.07S101.9,14,102.72,14Zm2.22-3.63c.81,0,1.47.48,1.47,1.07s-.66,1.08-1.47,1.08-1.48-.48-1.48-1.08.66-1.07,1.48-1.07Zm-7.51.29c.72,0,1.31.42,1.31,1s-.59.95-1.31.95-1.3-.43-1.3-.95.58-1,1.3-1ZM101,6.93c.82,0,1.49.49,1.49,1.08S101.78,9.1,101,9.1,99.47,8.61,99.47,8s.67-1.08,1.49-1.08ZM94.11,21.12c.72,0,1.3.43,1.3.95s-.58.95-1.3.95-1.31-.43-1.31-.95.59-.95,1.31-.95ZM96.28,16c.72,0,1.31.43,1.31.95s-.59.95-1.31.95S95,17.51,95,17s.58-.95,1.3-.95Zm-6.2.17c.72,0,1.31.42,1.31.95s-.59.94-1.31.94-1.3-.42-1.3-.94.58-.95,1.3-.95Zm2.22-3.64c.72,0,1.31.43,1.31.95s-.59,1-1.31,1S91,14,91,13.51s.58-.95,1.3-.95Zm-7.65-.81c.72,0,1.31.43,1.31.95s-.59,1-1.31,1-1.3-.42-1.3-1,.58-.95,1.3-.95ZM76.73,22.24c.93,0,1.68.55,1.68,1.22s-.75,1.23-1.68,1.23-1.68-.55-1.68-1.23.75-1.22,1.68-1.22ZM80,18.37c.82,0,1.48.49,1.48,1.08s-.66,1.08-1.48,1.08-1.49-.48-1.49-1.08.66-1.08,1.49-1.08Zm-7.22.76c.81,0,1.47.48,1.47,1.07s-.66,1.08-1.47,1.08-1.48-.48-1.48-1.08.66-1.07,1.48-1.07Zm2.85-2.65c.72,0,1.31.43,1.31.95s-.59.95-1.31.95-1.3-.42-1.3-.95.58-.95,1.3-.95ZM71,15.27c.81,0,1.47.48,1.47,1.08s-.66,1.07-1.47,1.07-1.48-.48-1.48-1.07.66-1.08,1.48-1.08ZM75.9,28.92c.93,0,1.68.54,1.68,1.22s-.75,1.22-1.68,1.22-1.68-.54-1.68-1.22.75-1.22,1.68-1.22ZM70.34,29c.93,0,1.68.55,1.68,1.22s-.75,1.23-1.68,1.23-1.68-.55-1.68-1.23S69.41,29,70.34,29Zm1.58-3.54c.93,0,1.68.54,1.68,1.22s-.75,1.22-1.68,1.22-1.68-.54-1.68-1.22.75-1.22,1.68-1.22ZM64.6,27.18c.93,0,1.68.55,1.68,1.23s-.75,1.22-1.68,1.22-1.69-.55-1.69-1.22.76-1.23,1.69-1.23ZM69.36,21c.82,0,1.48.48,1.48,1.08s-.66,1.07-1.48,1.07-1.47-.48-1.47-1.07S68.55,21,69.36,21Zm-9.63,1.43c.81,0,1.47.48,1.47,1.07s-.66,1.08-1.47,1.08-1.48-.48-1.48-1.08.66-1.07,1.48-1.07Zm6.33-4.48c.81,0,1.47.49,1.47,1.08s-.66,1.07-1.47,1.07-1.48-.48-1.48-1.07.66-1.08,1.48-1.08ZM61,19c.93,0,1.68.55,1.68,1.23S62,21.47,61,21.47s-1.68-.55-1.68-1.22S60.1,19,61,19Zm-.64-3.76c.93,0,1.68.55,1.68,1.23s-.75,1.22-1.68,1.22-1.68-.55-1.68-1.22.75-1.23,1.68-1.23Zm-6.6-.06c.93,0,1.68.55,1.68,1.22s-.75,1.23-1.68,1.23-1.69-.55-1.69-1.23.76-1.22,1.69-1.22ZM37.42,11.27a1.52,1.52,0,0,1,1.94.75c.17.65-.41,1.38-1.31,1.62a1.51,1.51,0,0,1-1.94-.75c-.18-.65.41-1.38,1.31-1.62Zm18.59.3c.93,0,1.68.54,1.68,1.22S56.94,14,56,14s-1.68-.54-1.68-1.22.75-1.22,1.68-1.22Zm-6.18.34c.93,0,1.68.55,1.68,1.23s-.75,1.22-1.68,1.22-1.68-.55-1.68-1.22.75-1.23,1.68-1.23Zm2,15.18a1,1,0,0,1-.33.49c-.07.71-.17,1.39-.3,2.05S50.91,31,50.7,31.7a23.09,23.09,0,0,1-2.93,6,24.41,24.41,0,0,1-4.64,5.06,43,43,0,0,1-6.56,4.11c-2.39,1.32-4.63,2.55-5.6,3.62a2.9,2.9,0,0,0-.42.59,2.1,2.1,0,0,0-.21.61,21.8,21.8,0,0,0,0,4.12A24.81,24.81,0,0,0,31,59.42l2.14.38a3,3,0,0,1,2,1.58,2.73,2.73,0,0,1,.31,1.18,2.19,2.19,0,0,1-.34,1.24,2.51,2.51,0,0,1-1.9,1.08H26.5a.83.83,0,0,1-.83-.74L24.13,51.69A8.74,8.74,0,0,1,24.49,47a8.12,8.12,0,0,1,3.3-3.45h0a11.83,11.83,0,0,0,5.77-8.62c.51-3.36-.07-7.36-1.6-11.91-.34.51-.66,1-1,1.58-.59,1-1.15,2.06-1.69,3.15A87.33,87.33,0,0,0,26,35.86C24,41.14,22,46.43,18.38,50.61a20.79,20.79,0,0,1-7.64,5.73,11.07,11.07,0,0,1-7.84.35A4.73,4.73,0,0,1,.19,54.8h0A1.47,1.47,0,0,1,0,53.73a1.33,1.33,0,0,1,.74-.86A3.79,3.79,0,0,1,3.57,53c8.66,3,13.5-10.5,16.52-18.9.32-.89.62-1.74.9-2.47.44-1.19.91-2.45,1.4-3.79s.9-2.48,1.37-3.82l0,0a35.47,35.47,0,0,1,3.77-7.15,22.43,22.43,0,0,1,4.73-5c8.24-6.29,24.47-3.76,34.66-2.17l1.41.22h.06a42.68,42.68,0,0,0,7.08.61,23.37,23.37,0,0,0,7.22-1.22A26.34,26.34,0,0,0,88,6.6a19.75,19.75,0,0,1,7.26-3.12,27.2,27.2,0,0,1,4-.35,44.58,44.58,0,0,1,4.55.15,2,2,0,0,0,1.62-.56c.85-.83,1.83-1.63,2.72-2.42s1.37-.09,2,.48c.15.14.22.26.26.27l1,.26a10.91,10.91,0,0,0,2.09.41,10.52,10.52,0,0,1,1.84.37,8.87,8.87,0,0,1,1.75.75l0,0a5.29,5.29,0,0,1,2.8,2.89,3.8,3.8,0,0,1,.3,2l1.31,1.39a9.76,9.76,0,0,1,.82.93,2.73,2.73,0,0,1,.5,1,3.88,3.88,0,0,1-.07,2.14,7.16,7.16,0,0,1-.83,1.74,9.54,9.54,0,0,1-1,1.27,7.3,7.3,0,0,1-1.25,1.09c-1.32.89-2.74.14-4-.51l-.62-.32a13.77,13.77,0,0,0-8,2.07A13.63,13.63,0,0,0,101.75,25a18.64,18.64,0,0,0-.83,2.53c-.4,1.49-.58,2.19-2.94,4.58-.81.82-1.65,1.6-2.51,2.34s-1.53,1.26-2.32,1.86l-.56,22.47,2.23.14a3.06,3.06,0,0,1,2.58,1.71,3,3,0,0,1,.33,1.31,2.85,2.85,0,0,1-.29,1.34,3,3,0,0,1-2.52,1.64H87.4a.84.84,0,0,1-.83-.72l-1.31-9L84,35.76c-6.92,1.49-12.26,1.68-17.08.43-5-1.32-9.47-4.21-14.46-8.84h0a.85.85,0,0,0-.63-.25Z"/></svg>