<?xml version="1.0" encoding="utf-8"?><svg version="1.1" id="Layer_1" xmlns="http://www.w3.org/2000/svg" xmlns:xlink="http://www.w3.org/1999/xlink" x="0px" y="0px" viewBox="0 0 122.88 78.12" style="enable-background:new 0 0 122.88 78.12" xml:space="preserve"><style type="text/css">.st0{fill-rule:evenodd;clip-rule:evenodd;}</style><g><path class="st0" d="M89.08,19.03c0.68-1.09,1.21-2.3,1.61-3.61c1.22-3.99,0.17-7.02,3.68-10.15c1.45-1.29,3.26-2.02,5.33-2.37 c2.54-1.37,5.31-0.85,8.31,1.53c0.77,0.02,1.5,0.07,2.2,0.15l0-0.01l0.46-2.77c0.19-1.17,1.29-1.96,2.46-1.77 c1.17,0.19,1.96,1.29,1.77,2.46l-0.46,2.77c-0.01,0.07-0.03,0.14-0.05,0.21c0.82,0.27,1.56,0.59,2.23,0.95l0.01-0.01l2.33-3.42 c0.67-0.98,2-1.23,2.98-0.56c0.98,0.67,1.23,2,0.56,2.98l-2.33,3.42c-0.1,0.14-0.21,0.27-0.33,0.38c0.87,1.32,1.14,2.79,0.75,4.24 c-1.05,3.91-3.72,4.4-7.12,5.07c-4.23,0.83-8.16,0.8-12.04-1c6.04,6.04,10.18,5.88,16.88,4.59c-4.05,3.03-12.99,5.22-20.5,3.22 c-0.93,3.06-1.93,5.92-3.05,8.53c1.01,0.26,1.99,0.57,2.94,0.94c1.86,0.71,3.64,1.62,5.36,2.72c1.36,0.87,1.75,2.68,0.88,4.04 c-0.87,1.36-2.68,1.75-4.04,0.88c-1.37-0.88-2.79-1.6-4.28-2.17c-1.15-0.44-2.34-0.78-3.56-1.02c-0.41,0.69-0.83,1.35-1.27,1.99 c0.35,0.17,0.7,0.34,1.05,0.51c2.35,1.16,4.62,2.49,6.22,3.45c1.38,0.83,1.83,2.62,1.01,4.01c-0.83,1.38-2.62,1.83-4,1.01 c-1.49-0.89-3.61-2.13-5.81-3.22c-0.82-0.41-1.65-0.79-2.44-1.12c-1.45,1.33-3.05,2.47-4.82,3.4c0.14,7.34-1.87,12.74-6.78,15.52 c0.67,2.25,1.82,4.12,3.59,5.48c2.93,2.25,6.35,1.8,9.4,4.2c1.23,0.96,1.97,2.16,2.1,3.66H79.15c-2.53-1.87-4.81-3.82-6.84-5.85 c-3.76-3.76-5.75-4.75-4.69-9.72l1.26-5.86c-9.24,9.13-17.51,4.79-14.87,13.99c5.03,1.37,8.59,3.54,8.96,7.43H50.73 c-2.86-5.24-3.94-10.36-4.52-16.3c1.59-0.94,3.31-2.16,4.16-3.55c2.18-3.6-1.07-2.93-3.07-2.67C25.09,58.46,8.69,57.09,0,50.13 c42.63,0.93,38.83-23.28,75.72-24.7C81.5,25.21,85.61,24.59,89.08,19.03L89.08,19.03z M105.75,9.54c1.28,0,2.33,1.04,2.33,2.33 c0,1.28-1.04,2.33-2.33,2.33c-1.28,0-2.33-1.04-2.33-2.33C103.42,10.59,104.46,9.54,105.75,9.54L105.75,9.54z"/></g></svg>