<svg id="Layer_1" data-name="Layer 1" xmlns="http://www.w3.org/2000/svg" viewBox="0 0 122.88 104.95"><defs><style>.cls-1{fill-rule:evenodd;}</style></defs><title>dog-puppy</title><path class="cls-1" d="M89.2,5.55c9.71,5.14,11.22,17.94,12.59,29.49a94.86,94.86,0,0,0,1.77,11.32,35.43,35.43,0,0,0,4,10.12c1.1,1.64,2.36,2.81,3.68,2.76,3.3-.14,3.51-11.68,3.61-17.71,0-1.23,0-2.27.08-2.92a26.51,26.51,0,0,1,.92-6.15,8.2,8.2,0,0,1,3-4.62c-3.3-11-7.65-18.38-13.08-21.88C101.25,3,95.7,2.82,89.2,5.55ZM17.6,59.36c-1.65,2.12-3.68,3.55-6.15,3.45-6.68-.27-6.92-14-7-21.23,0-1.12,0-2.06-.08-2.78a23.3,23.3,0,0,0-.77-5.3c-.44-1.44-1.13-2.67-2.24-3A1.79,1.79,0,0,1,.06,28.34v0C3.66,15.6,8.65,7.09,15.08,3,21.72-1.33,29.68-1,39,4.16l.19.12a16.38,16.38,0,0,0,3.67.45c6.21.1,6.35-2.89,18.71-2.79,11.56.09,13.54,3,19.06,2.84a13.11,13.11,0,0,0,2.93-.42,2.23,2.23,0,0,1,.3-.2C93.2-1,101.16-1.33,107.8,3c6.43,4.14,11.42,12.65,15,25.37v0a1.8,1.8,0,0,1-1.26,2.19c-1.12.31-1.8,1.53-2.24,3a23.3,23.3,0,0,0-.77,5.3c0,.72-.06,1.66-.08,2.78-.12,7.19-.36,21-7,21.23-2.4.1-4.39-1.25-6-3.27C102.93,70.12,97.92,77.47,91,82.42a13.52,13.52,0,0,1-1.61,4.79,25.11,25.11,0,0,1-7.73,9.42c-3.87,6.31-10.9,8.51-20.22,8.31-13.24-.3-19-4.92-21.4-9.15a26.37,26.37,0,0,1-6.62-8.58,13.5,13.5,0,0,1-1.62-4.93C25,77.3,20.05,69.93,17.6,59.36ZM21.09,35C22.45,23.49,24,10.69,33.68,5.55,27.18,2.82,21.63,3,17,6,11.58,9.46,7.23,16.79,3.93,27.84A8.25,8.25,0,0,1,7,32.46a26.51,26.51,0,0,1,.92,6.15c0,.65.06,1.69.08,2.92.1,6,.3,17.57,3.61,17.71,1.32,0,2.58-1.12,3.68-2.76a36,36,0,0,0,4.05-10.12A94.86,94.86,0,0,0,21.09,35ZM70.28,76.59a21.15,21.15,0,0,1-8.79,5.73,23.47,23.47,0,0,1-8.62-5.6C51.38,75.11,50.76,74.5,51,72.3a6.33,6.33,0,0,1,2-4.2c3.72-3.41,12.74-3.48,16.6-.2a6.37,6.37,0,0,1,2.17,3.83c.41,2.32,0,3.11-1.51,4.86ZM81.69,40.43a3.08,3.08,0,1,0,3.07,3.08,3.07,3.07,0,0,0-3.07-3.08Zm-40.44,0a3.08,3.08,0,1,1-3.08,3.08,3.08,3.08,0,0,1,3.08-3.08Zm.11-2h0a6.72,6.72,0,0,1,6.7,6.69v3.77a6.73,6.73,0,0,1-6.7,6.7h0a6.72,6.72,0,0,1-6.69-6.7V45.09a6.71,6.71,0,0,1,6.69-6.69ZM61.43,92.65h0c10.36,5.09,18.54,3.19,24-7.47,1.7-3.32,1.45-4.7-.17-8-.46-.93-.93-1.85-1.42-2.76A185.28,185.28,0,0,0,73.71,57.56c-1.91-2.82-3.73-5.85-6.85-7.48a12.05,12.05,0,0,0-10.85,0c-3.11,1.63-4.93,4.66-6.84,7.48A185.28,185.28,0,0,0,39,74.43c-.49.91-1,1.83-1.42,2.76-1.63,3.29-1.87,4.67-.17,8,5.46,10.66,13.64,12.56,24,7.47ZM81.57,38.4h0a6.71,6.71,0,0,0-6.69,6.69v3.77a6.72,6.72,0,0,0,6.69,6.7h0a6.72,6.72,0,0,0,6.7-6.7V45.09a6.71,6.71,0,0,0-6.7-6.69Z"/></svg>