<svg xmlns="http://www.w3.org/2000/svg" shape-rendering="geometricPrecision" text-rendering="geometricPrecision" image-rendering="optimizeQuality" fill-rule="evenodd" clip-rule="evenodd" viewBox="0 0 512 512"><path fill-rule="nonzero" d="m463.09 254.37-39.68-110.13-1.75-4.51c-11.25-29.21-14.6-37.91-47.69-37.91H139.25c-34.34 0-37.36 8.49-49.06 41.45-13.21 37.07-26.69 74.08-40.06 111.1h412.96zM344.51 290h26.95c4.44 0 8.47 1.82 11.39 4.73 2.92 2.92 4.73 6.96 4.73 11.4v2.47h88.39c4.98 0 9.54-2.06 12.84-5.36 3.3-3.28 5.35-7.83 5.35-12.84 0-4.82-1.9-9.22-4.97-12.48l-.38-.36c-3.3-3.3-7.85-5.35-12.84-5.35H36.04c-5.01 0-9.57 2.05-12.87 5.33-3.28 3.3-5.33 7.85-5.33 12.86 0 4.99 2.06 9.54 5.36 12.84 3.3 3.3 7.85 5.36 12.84 5.36h89.92v-2.47c0-4.44 1.82-8.48 4.73-11.4 2.92-2.91 6.96-4.73 11.4-4.73h26.94c4.44 0 8.48 1.82 11.39 4.73 2.92 2.92 4.73 6.96 4.73 11.4v2.47h143.24v-2.47c0-4.44 1.81-8.48 4.73-11.4 2.92-2.91 6.95-4.73 11.39-4.73zm43.07 36.44v25.83c0 4.42-1.82 8.44-4.73 11.36l-.03.04c-2.93 2.91-6.95 4.73-11.36 4.73h-26.95c-4.43 0-8.47-1.81-11.39-4.73a16.076 16.076 0 0 1-4.73-11.4v-25.83H185.15v25.83c0 4.42-1.82 8.44-4.73 11.36l-.03.04c-2.92 2.91-6.95 4.73-11.36 4.73h-26.94c-4.44 0-8.48-1.81-11.4-4.73-2.91-2.92-4.73-6.95-4.73-11.4v-25.83H49.62l40.41 112.12c5.36 17.42 9.16 28.47 15.44 34.31 5.96 5.54 15.78 7.52 33.78 7.52h234.72c18 0 27.82-1.98 33.78-7.52 6.28-5.84 10.09-16.89 15.44-34.31l40.41-112.12h-76.02zm-17.83-18.6h-23.52v42.72h23.52v-42.72zm-202.43 0H143.8v42.72h23.52v-42.72zM321.7 408.81c0-6.8 5.51-12.31 12.31-12.31 6.8 0 12.32 5.51 12.32 12.31v32.43c0 6.8-5.52 12.32-12.32 12.32-6.8 0-12.31-5.52-12.31-12.32v-32.43zm-77.24 0c0-6.8 5.51-12.31 12.31-12.31 6.8 0 12.32 5.51 12.32 12.31v32.43c0 6.8-5.52 12.32-12.32 12.32-6.8 0-12.31-5.52-12.31-12.32v-32.43zm-77.24 0c0-6.8 5.52-12.31 12.32-12.31 6.8 0 12.31 5.51 12.31 12.31v32.43c0 6.8-5.51 12.32-12.31 12.32-6.8 0-12.32-5.52-12.32-12.32v-32.43zm153.7-256.16c0-6.8 5.52-12.31 12.32-12.31 6.8 0 12.31 5.51 12.31 12.31v63.66c0 6.8-5.51 12.31-12.31 12.31-6.8 0-12.32-5.51-12.32-12.31v-63.66zm-77.23 0c0-6.8 5.51-12.31 12.31-12.31 6.8 0 12.32 5.51 12.32 12.31v63.66c0 6.8-5.52 12.31-12.32 12.31-6.8 0-12.31-5.51-12.31-12.31v-63.66zm-77.24 0c0-6.8 5.52-12.31 12.32-12.31 6.79 0 12.31 5.51 12.31 12.31v63.66c0 6.8-5.52 12.31-12.31 12.31-6.8 0-12.32-5.51-12.32-12.31v-63.66zm43.39-68.67V60.71c0-12.92 5.28-24.66 13.78-33.16 8.5-8.5 20.24-13.78 33.16-13.78 12.92 0 24.66 5.28 33.16 13.78 8.51 8.5 13.78 20.24 13.78 33.16v23.27h70.25c45.28 0 49.64 11.32 64.28 49.34 15.4 39.95 29.42 81.18 43.93 121.59 7.44 1.3 14.11 4.9 19.24 10.04l.52.55c6.22 6.49 10.06 15.28 10.06 24.9 0 9.89-4.06 18.89-10.58 25.42v.03c-5.01 5.01-11.49 8.57-18.7 9.95L440.2 443.79c-6.23 20.28-10.86 33.31-20.32 42.11-9.77 9.09-23.03 12.33-45.91 12.33H139.25c-22.87 0-36.13-3.24-45.91-12.33-9.46-8.8-14.08-21.84-20.32-42.11L30.59 326.03c-7.74-1.19-14.7-4.87-20.01-10.18C4.06 309.33 0 300.32 0 290.4c0-9.89 4.05-18.89 10.58-25.42l.03-.03c5.43-5.43 12.57-9.15 20.51-10.25 14.1-39.11 28.32-78.19 42.27-117.36 15.07-42.44 18.96-53.36 65.86-53.36h70.59zm76.04 0V60.71c0-7.99-3.28-15.27-8.55-20.55-5.28-5.27-12.55-8.55-20.55-8.55-7.99 0-15.27 3.28-20.54 8.55-5.28 5.28-8.56 12.56-8.56 20.55v23.27h58.2z"/></svg>