<svg id="Layer_1" data-name="Layer 1" xmlns="http://www.w3.org/2000/svg" viewBox="0 0 122.88 114.66"><defs><style>.cls-1{fill-rule:evenodd;}</style></defs><title>duck</title><path class="cls-1" d="M95.31,76.23A18.59,18.59,0,0,0,91.88,65c-.65-1-2.41,8.79-15.28,8C53,71.67,45.61,77,46.87,82.69s6.56,9.11,13.19,10.62C72.5,96.13,94.48,92,95.31,76.23ZM46.71,16.29A5.28,5.28,0,1,0,52,21.57a5.28,5.28,0,0,0-5.27-5.28ZM34.18,42.94C9.65,49.45,7,110.21,61.66,110.29c42.05.07,72.55-36.18,48.19-73.38-1.63-2.49-6,22-38.19,20.06-19.75-1.16-20.28,13.24-16.48-4,16.27-3,22.24-20.15,18-33.16-10.59-32.58-70.18-8-39,23.17Zm-8.79-.42C16.06,38.4,15.87,40.3,5.5,33c-7.29-5.56-8.44-10.42,3.36-11.49a59.74,59.74,0,0,0,13-2.58c.11-.36.24-.72.37-1.08,2.12-5.68,6.59-10.3,12.13-13.41A35.23,35.23,0,0,1,52.39,0c10.66.34,20.86,5.79,25,18.4a30,30,0,0,1,1,3.92,32.41,32.41,0,0,1-2.7,20,27.46,27.46,0,0,1-8.58,10.24,41.35,41.35,0,0,1,4.85,0c22,1.29,29.36-11.07,32.27-15.94A9.76,9.76,0,0,1,107,33.13h0c2.6-1.7,4.72-1.37,6.51,1.37,6.49,9.91,9.38,19.85,9.37,29.21a44.59,44.59,0,0,1-6.35,22.86,53.29,53.29,0,0,1-16.82,17.28,69.29,69.29,0,0,1-38,10.8c-20.24,0-33.37-7.86-40.85-18.47a42.76,42.76,0,0,1-7.23-18.44,45,45,0,0,1,1.16-18.51c2-6.92,5.63-12.89,10.65-16.72ZM24.27,37.7l-.48-1.28A23.23,23.23,0,0,1,21,23,105.81,105.81,0,0,1,6.7,25.49c-1.78.21-2.52.3-2.27.86,3.1,6.86,13,8.46,19.84,11.35Z"/></svg>