<svg id="Layer_1" data-name="Layer 1" xmlns="http://www.w3.org/2000/svg" viewBox="0 0 109.04 122.88"><defs><style>.cls-1{fill-rule:evenodd;}</style></defs><title>eagle</title><path class="cls-1" d="M22,39.16a15.17,15.17,0,0,1,3.59,2.61,8.2,8.2,0,0,1,2.09,3.45c1.46,5.09-1.28,9.28-4,13.4l-.39.6c-2.22,3.4-4.64,7.14-6.71,10.85-.69,1.24-1.34,2.47-1.93,3.68A47.8,47.8,0,0,0,0,103.14c3.32-2.81,6.46-5.38,9.93-6.64-1.52,4.64-1.31,9.55.1,14.65C15.5,105.57,21,101.5,26.44,99.92c.08,5,2.5,9.39,7,13.29a42.53,42.53,0,0,1,15.73-12.8c-.45,8.14,2.27,14.83,8.89,19.73.71-5.64,4.26-11.57,9.58-17.68.43,7.21,2.07,14.13,6.35,20.42,8.47-8,11.21-14.66,9.68-20.23A38.49,38.49,0,0,1,96,112.82c2.55-4.44,3.86-8.53,2.54-12.73,3.51-.62,6.89,1.36,10.48,4.66a107.06,107.06,0,0,0-3.89-18.42,1,1,0,0,0,.25-1c-1-3-2-6.26-3-9.48-1.5-5-3-9.93-4.86-14.8a14.8,14.8,0,0,1,1.8,3.23,1,1,0,0,0,1.91-.22c1.44-11.39-.69-15.13-4.44-21.76a102.19,102.19,0,0,1-6-11.91c-.91-2.19-1.62-4.1-2.24-5.79C86,17.46,84.76,14,75,8.07l-.65-.39A56.78,56.78,0,0,0,43.83.06c-10.46.51-20,4.49-25.16,13l-.05.09C11.6,17,7,21.75,5.09,27.61s-1,12.85,3,20.93L9.4,51.21l.54-2.93a37.19,37.19,0,0,1,1-4A22.28,22.28,0,0,1,12,41.45l10-2.29Zm24.62-25a36.4,36.4,0,0,1-4.85,1.67A2.63,2.63,0,1,0,47,15.67a3,3,0,0,0-.4-1.51ZM21.75,12.08h1.71a5.2,5.2,0,0,1,3.36.67c2,1.34,1.84,3.19,1.65,5.28-.17,1.74-.35,3.71,1.29,5.37a7.24,7.24,0,0,0,2.16,1.46,14.4,14.4,0,0,0,3.28,1l15,1.12a5.9,5.9,0,0,1,2.24.5,1.62,1.62,0,0,1,1,1.8,2.88,2.88,0,0,1-2.4,3.64l-.07,0-.08,0h-.07l-.07,0H50.7l-.07,0h-.15l-.08,0h-3l-.11,0H47l-.11,0h-.12l-.11,0h-.12l-.11,0h0l-.11,0h0l-.12,0H46l-.12,0h0l-.12,0h0l-.12,0h0l-.12,0h0l-.11,0h0l-.12,0h0l-.12,0h0l-.12,0h0l-.12,0h0l-.12,0h0l-.12,0H41.84a11.9,11.9,0,0,0-2.67.09c-5.15.79-5.79,2.06-6.38,3.24-.8,1.58-1.55,3-6.86,3.62l-.5,0A13.88,13.88,0,0,1,27,40.38a10.05,10.05,0,0,1,2.59,4.3c1.7,6-1.29,10.53-4.23,15L25,60.3c-2.2,3.38-4.61,7.08-6.64,10.73a42.22,42.22,0,0,0-4.41,10.33,21.25,21.25,0,0,0-.5,3c.73-1.24,1.5-2.42,2.29-3.56a46.79,46.79,0,0,1,4.72-5.76,1,1,0,0,1,.85-.3,1,1,0,0,1,.85,1.11,23.59,23.59,0,0,0-.21,5.33,33.4,33.4,0,0,1,1.6-5,35.9,35.9,0,0,1,5-8.56,1,1,0,0,1,.86-.38,1,1,0,0,1,.92,1.06,22.59,22.59,0,0,0,.05,4.76c0,.22.07.43.11.64A18.33,18.33,0,0,1,32,70.42a25.38,25.38,0,0,1,4.81-5.69,1,1,0,0,1,.89-.24,1,1,0,0,1,.75,1.18,19.79,19.79,0,0,0-.38,5.89,24.28,24.28,0,0,0,.68,4.08,21.66,21.66,0,0,1,1.1-2.21,16.27,16.27,0,0,1,3.3-4.05,1,1,0,0,1,1.64.78,37.64,37.64,0,0,0,.28,7.27,12.1,12.1,0,0,0,.48,1.93,11.87,11.87,0,0,1,.49-1.67,13.86,13.86,0,0,1,2.63-4.31,1,1,0,0,1,.83-.35,1,1,0,0,1,.92,1.07,29.4,29.4,0,0,0,.18,6.77,20.49,20.49,0,0,0,.63,2.85l2.52-8.42a1,1,0,0,1,.57-.63,1,1,0,0,1,1.3.52l4,9.46a11.17,11.17,0,0,0,1.26-2.14,19.31,19.31,0,0,0,1.36-4.75,1,1,0,0,1,.41-.66,1,1,0,0,1,1.38.25,40.7,40.7,0,0,1,3.73,6.57,37,37,0,0,1,2,5.81A14.4,14.4,0,0,0,70.84,87a20.72,20.72,0,0,0,.71-6.44,1,1,0,0,1,.57-1,1,1,0,0,1,1.32.48l6,12.9A8.84,8.84,0,0,0,81.46,90a15.65,15.65,0,0,0,1.14-5.74.89.89,0,0,1,.09-.45A1,1,0,0,1,84,83.33,13.68,13.68,0,0,1,88.72,87,16.89,16.89,0,0,1,91,90.46a10.87,10.87,0,0,0,.17-2.95A14.07,14.07,0,0,0,89.48,82a1,1,0,0,1,0-.92,1,1,0,0,1,1.34-.42,13.82,13.82,0,0,1,4.25,3.49,16.81,16.81,0,0,1,1.67,2.46,28.53,28.53,0,0,0-.16-5.15,44.31,44.31,0,0,0-2-8.44,1,1,0,0,1,.29-1,1,1,0,0,1,1.4.09,36.61,36.61,0,0,1,4.35,6.07c.36.63.7,1.28,1,1.94l-1.12-3.69a169.25,169.25,0,0,0-6.46-18.71,1,1,0,0,1,1.21-1.34,8.78,8.78,0,0,1,3.37,2.83,16.45,16.45,0,0,1,1,1.36c.58-8.28-1.36-11.7-4.53-17.28a105.36,105.36,0,0,1-6.07-12.13c-.94-2.25-1.65-4.17-2.27-5.87C84.32,18.58,83.13,15.35,74,9.76l-.62-.37A54.67,54.67,0,0,0,43.92,2c-9,.44-17.15,3.54-22.17,10ZM51.69,13.3a16.44,16.44,0,0,1,4.36-1,26.76,26.76,0,0,1,5.91.15c-5.23-1.94-9.15-1.3-14.32.23-2.89.86-7.27,3.42-10,2.39A5.86,5.86,0,0,1,35.22,13c.27,1.76,1,2.95,2.2,3.49,2.9,10.57,18,5.3,14.27-3.17Zm14.23-1.89C58.55,7.85,48.62,6.48,41.53,14,49,9.22,55.37,8.93,65.92,11.41Z"/></svg>