<svg xmlns="http://www.w3.org/2000/svg" viewBox="0 0 122.88 93.94"><defs><style>.a,.d{fill:#2b3e44;}.b,.e{fill:#ff6d00;}.c{fill:#fff;}.d,.e{fill-rule:evenodd;}</style></defs><title>fishing-color</title><path class="a" d="M97.19,24.34c-.89.89-1.75,1.8-2.62,2.7l3-1.25.22-.09a.85.85,0,0,1,.23,0h0a1.25,1.25,0,0,1,1,.27,1.37,1.37,0,0,1,.49.88,21.69,21.69,0,0,1-.62,7.4,46.11,46.11,0,0,1-3.26,8.89,65.71,65.71,0,0,1-5.26,9,67.1,67.1,0,0,1-6.57,8.09c-.24,1.43-.52,2.82-.86,4.17s-.75,2.74-1.2,4.06-1,2.7-1.61,4a41.31,41.31,0,0,1-2,3.79h0a.42.42,0,0,1-.08.12.5.5,0,0,1-.1.11v0a10.46,10.46,0,0,1-2.34,1.91,4.48,4.48,0,0,1-2.19.66,3.62,3.62,0,0,1-2.07-.64,5.77,5.77,0,0,1-1.57-1.81.63.63,0,0,1-.07-.12l-.06-.13v0c-.31-.82-.6-1.66-.89-2.51s-.54-1.71-.78-2.56c-.19-.66-.37-1.34-.53-2s-.27-1.16-.38-1.73a44.2,44.2,0,0,1-10.61,1.66,83.26,83.26,0,0,1-9.25-.34h0a59.72,59.72,0,0,0-9.93-.21,5.88,5.88,0,0,0-1.94.47,5.24,5.24,0,0,0-1.55,1,6.71,6.71,0,0,0-1.26,1.71,10.83,10.83,0,0,0-.93,2.39c-1.35,4-2.56,8.17-3.84,12.21a22.8,22.8,0,0,1-1.53,3.81,9.18,9.18,0,0,1-1.79,2.52,4.64,4.64,0,0,1-1.32.92,3.38,3.38,0,0,1-1.42.29,3.33,3.33,0,0,1-1.43-.36h0a4.61,4.61,0,0,1-1.28-1,10.33,10.33,0,0,1-1.75-2.7,25.45,25.45,0,0,1-1.47-4.1c-.24-.87-.47-1.71-.67-2.52s-.41-1.66-.61-2.52-.34-1.56-.48-2.31-.27-1.42-.39-2.14c-1.32-1-2.63-1.93-3.88-2.91s-2.51-2-3.66-3.1a32.14,32.14,0,0,1-3.24-3.42,17.72,17.72,0,0,1-2.3-3.66l0-.11a.21.21,0,0,1,0-.12,4.94,4.94,0,0,1,.12-3.9,4.3,4.3,0,0,1,2.69-1.93A14.8,14.8,0,0,1,8.86,57c2,.26,4.06.71,5.54,1l.69.16.64.14,6.63,1.32a15.73,15.73,0,0,0,3.76,0,9.1,9.1,0,0,0,3.05-1,7.67,7.67,0,0,0,2.32-2,10.67,10.67,0,0,0,1.67-3l0-.08,0-.1c.64-1.27,1.3-2.54,2-3.83s1.37-2.56,2.09-3.86,1.29-2.31,1.94-3.43,1.26-2.14,1.91-3.19A51.82,51.82,0,0,1,37,34.48c-1.42-1.88-2.53-3.88-2.61-5.61a3.65,3.65,0,0,1,1.44-3.23A9.34,9.34,0,0,1,41,24.22c1.2,0,2.39-.08,3.58-.08s2.38,0,3.55.14,2.23.22,3.35.4a31.19,31.19,0,0,1,3.23.72,38.56,38.56,0,0,1,10-4.7,56.16,56.16,0,0,1,12.38-2.49,41.09,41.09,0,0,1,11.49.54,21.22,21.22,0,0,1,8.5,3.6l.14.12a1.33,1.33,0,0,1,.38.91,1.42,1.42,0,0,1-.38,1Z"/><path class="b" d="M64.28,23.61a40.77,40.77,0,0,0-4.6,1.93,26.55,26.55,0,0,0-4,2.38,1.31,1.31,0,0,1-.56.23,1.35,1.35,0,0,1-.6,0h0a29.89,29.89,0,0,0-3.31-.77c-1.11-.19-2.21-.32-3.32-.41s-2.28-.13-3.41-.13-2.27,0-3.42.07h0a7.69,7.69,0,0,0-3.33.69A1.35,1.35,0,0,0,37,28.81c.12,2.54,4.21,6.72,6.47,9l.3.31a1.39,1.39,0,0,1,.38.8,1.34,1.34,0,0,1-.22.85c-.73,1.17-1.45,2.39-2.18,3.64s-1.43,2.48-2.12,3.7-1.34,2.46-2,3.73-1.32,2.52-2,3.82a13.39,13.39,0,0,1-2.13,3.81A10.17,10.17,0,0,1,30.41,61a11.36,11.36,0,0,1-3.86,1.24,17.33,17.33,0,0,1-4.56,0c-2.21-.35-4.56-.9-6.77-1.34l-.6-.13-.8-.18c-1.38-.31-3.26-.73-5.09-1a12.41,12.41,0,0,0-4.86,0,1.61,1.61,0,0,0-1.05.77,2.39,2.39,0,0,0,0,1.73,15.57,15.57,0,0,0,2,3.14,27.66,27.66,0,0,0,2.91,3.07c1.12,1,2.35,2.06,3.66,3.08s2.68,2,4.09,3a1.27,1.27,0,0,1,.35.38,1.23,1.23,0,0,1,.17.45v0c.12.8.25,1.59.41,2.39s.32,1.6.5,2.4.38,1.61.59,2.45.44,1.68.66,2.47a23.56,23.56,0,0,0,1.24,3.53,7.85,7.85,0,0,0,1.34,2.14,2.38,2.38,0,0,0,.5.41.79.79,0,0,0,.39.12.82.82,0,0,0,.38-.11,2.16,2.16,0,0,0,.51-.37,7.59,7.59,0,0,0,1.35-2,22,22,0,0,0,1.28-3.26L29,73.52a12.94,12.94,0,0,1,1.18-3,9.28,9.28,0,0,1,1.72-2.29,8,8,0,0,1,2.3-1.55A8.53,8.53,0,0,1,37,66a62.29,62.29,0,0,1,10.34.21h0a75.91,75.91,0,0,0,9.31.31,42.3,42.3,0,0,0,11-1.93,1.28,1.28,0,0,1,1,.09,1.25,1.25,0,0,1,.64.76,1.29,1.29,0,0,1,0,.19c.15.84.31,1.65.5,2.47s.39,1.64.62,2.46.48,1.61.74,2.39.54,1.58.84,2.37a2.88,2.88,0,0,0,.68.84,1,1,0,0,0,.65.26A2.13,2.13,0,0,0,74.38,76a8,8,0,0,0,1.5-1.27c.65-1.12,1.26-2.28,1.8-3.47a37.9,37.9,0,0,0,1.48-3.72c.46-1.31.85-2.64,1.18-4s.61-2.77.84-4.19A1.53,1.53,0,0,1,81.3,59a1.08,1.08,0,0,1,.21-.3l0,0q1.81-1.87,3.47-3.92c1-1.28,2-2.6,3-3.94a36.39,36.39,0,0,1-8.86-3.74A29.29,29.29,0,0,1,72,41.18a30.68,30.68,0,0,1-5-8,41.1,41.1,0,0,1-2.73-9.59Z"/><path class="b" d="M88.2,29.84l6-6.2a20.59,20.59,0,0,0-7.08-2.46,39.3,39.3,0,0,0-9.88-.33,51.71,51.71,0,0,0-5.39.74c-1.73.32-3.43.74-5.07,1.21A38.14,38.14,0,0,0,69.34,32,27.77,27.77,0,0,0,74,39.45,26.58,26.58,0,0,0,80.75,45a34.8,34.8,0,0,0,8.77,3.52c.68-1.06,1.31-2.11,1.91-3.17s1.22-2.25,1.75-3.36A45.14,45.14,0,0,0,96,34.62a23.28,23.28,0,0,0,.9-5.73L89.63,32a1.33,1.33,0,0,1-1,0,1.35,1.35,0,0,1-.71-.7,1.21,1.21,0,0,1-.08-.75,1.34,1.34,0,0,1,.32-.64l0,0Z"/><path d="M81.38,23.12l0,0a4.49,4.49,0,0,0-3.36.46,4.75,4.75,0,0,0-1.31,1.14,4.42,4.42,0,0,0-.77,1.55v.05A4.37,4.37,0,0,0,75.77,28a4.76,4.76,0,0,0,.56,1.64,4.45,4.45,0,0,0,4.45,2.19,4.32,4.32,0,0,0,1.64-.56l0,0a4.28,4.28,0,0,0,1.27-1.13,4.34,4.34,0,0,0,.77-1.55l0-.05a4.37,4.37,0,0,0,.1-1.72,4.52,4.52,0,0,0-1.7-2.94,4.27,4.27,0,0,0-1.54-.76Z"/><path class="c" d="M81.5,22.52l0,0a5.05,5.05,0,0,1,3.67,4.2,5,5,0,0,1-.11,2l0,.06a5.14,5.14,0,0,1-.87,1.77,5.36,5.36,0,0,1-1.48,1.29l0,0a5.19,5.19,0,0,1-1.85.62,5.08,5.08,0,0,1-2-.13A5,5,0,0,1,75.81,30a5.26,5.26,0,0,1-.63-1.86,5,5,0,0,1,.11-2l0-.07a4.81,4.81,0,0,1,.86-1.74A5.09,5.09,0,0,1,77.66,23a5.26,5.26,0,0,1,1.86-.63,5,5,0,0,1,2,.11Z"/><path class="a" d="M81,24.46h0a3,3,0,0,1,1.07.53,2.84,2.84,0,0,1,.79.9A3.3,3.3,0,0,1,83.23,27a3,3,0,0,1-.07,1.15v.06a3,3,0,0,1-.52,1.05,2.78,2.78,0,0,1-.87.77l0,0a3.15,3.15,0,0,1-1.13.38,3,3,0,0,1-1.19-.08,3.15,3.15,0,0,1-1.07-.53,3.19,3.19,0,0,1-.77-.87v0a2.92,2.92,0,0,1-.38-1.12,3.05,3.05,0,0,1,.06-1.16l0-.06a2.87,2.87,0,0,1,.52-1.05,3.05,3.05,0,0,1,.89-.79,3.3,3.3,0,0,1,1.12-.38,3.06,3.06,0,0,1,1.16.07Z"/><path class="d" d="M116.67,0V6a5.47,5.47,0,0,1,0,9.74V46.1a11.39,11.39,0,0,1-5.86,10.16,10.3,10.3,0,0,1-4.4,1.22,9.4,9.4,0,0,1-4.54-.92c-3.12-1.52-5.59-4.89-6-10.36l2.59-5.83,2.28,5.49c.25,3.45,1.58,5.49,3.25,6.31a4.63,4.63,0,0,0,2.19.44,5.22,5.22,0,0,0,2.3-.65,6.55,6.55,0,0,0,3.3-5.89h0V15.77a5.46,5.46,0,0,1,0-9.8V0Z"/><path class="d" d="M114.35,3.09a8.54,8.54,0,1,1-8.54,8.53,8.53,8.53,0,0,1,8.54-8.53Z"/><path class="e" d="M114.35,6.79a4.83,4.83,0,1,1-4.84,4.83,4.83,4.83,0,0,1,4.84-4.83Z"/></svg>