<svg id="Layer_1" data-name="Layer 1" xmlns="http://www.w3.org/2000/svg" viewBox="0 0 122.88 103.27"><defs><style>.cls-1{fill-rule:evenodd;}</style></defs><title>hummingbird</title><path class="cls-1" d="M34.56,13.93C22.46,9.3,10.93,8.29,0,11c14.14.58,25.82,2.91,32.93,8.48,8,13.71,1,51.07,46,52.17,8.21,16.4,17.56,28.2,29,31.63C104.81,93.18,88.32,59,79.23,53.7c11.41-.79,13.17-3.57,6.2-8.15,22.83-.9,27.85-4.52,14-10.76,17.12-3.41,23.17-11.3,14.67-14.34,7.73-5.78,10.23-13.86,7.95-20.45-14,13.49-34.77,18.34-54.93,30.58C61.49,11.89,48,6.28,34.56,13.93Zm12,1.39a1.36,1.36,0,0,1,.29,0,2.49,2.49,0,0,0-.87-.16,2.45,2.45,0,1,0,1.55.56,1.27,1.27,0,0,1,.35.89,1.32,1.32,0,1,1-1.32-1.32Z"/></svg>