<?xml version="1.0" encoding="utf-8"?><svg version="1.1" id="Layer_1" xmlns="http://www.w3.org/2000/svg" xmlns:xlink="http://www.w3.org/1999/xlink" x="0px" y="0px" viewBox="0 0 122.7 122.88" style="enable-background:new 0 0 122.7 122.88" xml:space="preserve"><style type="text/css">.st0{fill-rule:evenodd;clip-rule:evenodd;}</style><g><path class="st0" d="M60.8,86.68L60.8,86.68c3.37,0,5.9-2.76,6.13-6.13c1.02-14.77,0.74-29.25-3.41-42.89h1.22 c2.66,0,4.83-2.17,4.83-4.83v0c0-2.66-2.17-4.83-4.83-4.83h-1.6L61,0l-2.04,27.99h-1.6c-2.66,0-4.83,2.17-4.83,4.83v0 c0,2.66,2.17,4.83,4.83,4.83h0.72C54.97,51.53,54.63,66,54.67,80.55C54.68,83.92,57.43,86.68,60.8,86.68L60.8,86.68z M69.78,45.59 l43.98-8.69c2.52-0.61,4.65-0.66,6.2-0.02c1.41,0.58,2.34,1.74,2.62,3.56c1.13,7.19-5.55,10.41-11.8,12.19 c-1.79,0.51-3.54,0.9-5.06,1.24c-8,1.77-13.94,1.51-21.96-0.59c-4.91-1.29-9.35-2.9-13.98-3.52V45.59L69.78,45.59z M25.04,4.83 c-0.62-0.95-0.35-2.22,0.6-2.83c0.95-0.62,2.22-0.35,2.83,0.6c3.13,4.8,5.45,9.71,7.05,14.62c1.57,4.82,2.44,9.64,2.71,14.38 l15.6,8.21c1,0.53,1.39,1.77,0.86,2.77c-0.53,1-1.77,1.39-2.77,0.86l-16.64-8.76l0,0c-0.63-0.33-1.07-0.98-1.09-1.74 c-0.17-4.74-0.99-9.59-2.57-14.45C30.13,13.9,27.96,9.32,25.04,4.83L25.04,4.83z M94.23,2.6c0.62-0.95,1.89-1.22,2.83-0.6 c0.95,0.62,1.22,1.89,0.6,2.83c-2.92,4.48-5.09,9.07-6.58,13.66c-1.58,4.86-2.4,9.72-2.57,14.45c-0.03,0.76-0.46,1.41-1.09,1.74 l0,0l-16.64,8.76c-1,0.53-2.24,0.14-2.77-0.86c-0.53-1-0.14-2.24,0.86-2.77l15.6-8.21c0.27-4.74,1.14-9.56,2.71-14.38 C88.78,12.31,91.1,7.4,94.23,2.6L94.23,2.6z M69.83,59.08c-1.08-0.34-1.69-1.49-1.35-2.57c0.34-1.08,1.49-1.69,2.57-1.35 l22.03,6.94c0.76,0.24,1.28,0.87,1.41,1.61l0,0l2.84,16.27l12.68,8.71c0.94,0.64,1.18,1.91,0.54,2.85 c-0.64,0.94-1.91,1.18-2.85,0.54l-13.32-9.15c-0.48-0.3-0.84-0.79-0.95-1.4l-2.78-15.88L69.83,59.08L69.83,59.08z M69.57,68.29 c-0.72-0.87-0.59-2.16,0.28-2.88c0.87-0.72,2.16-0.59,2.88,0.28l15.15,18.46c0.53,0.65,0.6,1.52,0.25,2.22l0,0l-8.91,17.68 c4.34,1.72,8.3,3.73,11.87,6.05c4.18,2.71,7.83,5.83,10.94,9.38c0.74,0.85,0.66,2.15-0.19,2.89c-0.85,0.74-2.15,0.66-2.89-0.19 c-2.86-3.26-6.23-6.13-10.09-8.64c-3.88-2.51-8.26-4.65-13.14-6.43c-0.09-0.03-0.18-0.07-0.27-0.11c-1.01-0.51-1.42-1.74-0.91-2.75 l9.33-18.52L69.57,68.29L69.57,68.29z M49.97,65.68c0.72-0.87,2.01-1,2.88-0.28c0.87,0.72,1,2.01,0.28,2.88L38.83,85.72l9.33,18.52 c0.51,1.01,0.1,2.24-0.91,2.75c-0.09,0.05-0.18,0.08-0.27,0.11c-4.88,1.78-9.27,3.92-13.14,6.43c-3.87,2.51-7.24,5.39-10.09,8.64 c-0.74,0.85-2.04,0.94-2.89,0.19c-0.85-0.74-0.94-2.04-0.19-2.89c3.11-3.55,6.76-6.67,10.94-9.38c3.57-2.32,7.53-4.33,11.87-6.05 l-8.91-17.68l0,0c-0.35-0.7-0.28-1.58,0.25-2.22L49.97,65.68L49.97,65.68z M51.65,55.16c1.08-0.34,2.23,0.27,2.57,1.35 c0.34,1.08-0.27,2.23-1.35,2.57l-20.83,6.56l-2.78,15.88c-0.11,0.6-0.47,1.1-0.95,1.4L15,92.07c-0.94,0.64-2.21,0.4-2.85-0.54 c-0.64-0.94-0.4-2.21,0.54-2.85l12.68-8.71l2.84-16.27l0,0c0.13-0.73,0.65-1.37,1.41-1.61L51.65,55.16L51.65,55.16z M52.92,45.59 L8.95,36.91c-2.52-0.61-4.65-0.66-6.2-0.02c-1.41,0.58-2.34,1.74-2.62,3.56C-1,47.64,5.68,50.85,11.92,52.64 c1.79,0.51,3.54,0.9,5.06,1.24c8,1.77,13.94,1.51,21.96-0.59c4.91-1.29,9.35-2.9,13.98-3.52V45.59L52.92,45.59z"/></g></svg>