<svg id="Layer_1" data-name="Layer 1" xmlns="http://www.w3.org/2000/svg" viewBox="0 0 122.88 115.25"><defs><style>.cls-1{fill-rule:evenodd;}</style></defs><title>panda</title><path class="cls-1" d="M122.69,28.27a34.61,34.61,0,0,1-4.4,14.92,23.16,23.16,0,0,1-5.21,6.08l0,.09c2.64,14,5,22.51-3.81,39.08A49.75,49.75,0,0,1,88.15,109a58.23,58.23,0,0,1-28.69,6.18,59.84,59.84,0,0,1-28-7.95A47.84,47.84,0,0,1,12.27,86.7C8.73,79.3,8,71.85,8.17,64.37A93.65,93.65,0,0,1,9.72,49.08,27.1,27.1,0,0,1,1.83,37.32C-.23,31.36-.51,24.53.78,17a25.27,25.27,0,0,1,1.89-6.29A17.3,17.3,0,0,1,12,1.35,20.49,20.49,0,0,1,23.49.41a33.68,33.68,0,0,1,8.6,2.93,47,47,0,0,1,5.12,2.93c.53.34,1,.68,1.54,1A79.94,79.94,0,0,1,60.84,3.75,73.31,73.31,0,0,1,84.13,7.21a43.23,43.23,0,0,1,3.66-2.37A37.22,37.22,0,0,1,96.1,1.27a25.34,25.34,0,0,1,9.52-1,17.15,17.15,0,0,1,10.73,4.91,21.28,21.28,0,0,1,5.43,9.78,39,39,0,0,1,.91,13.36ZM52.82,40.41c-7.38-10.89-20.21-4.79-26.14,4.15-7.16,10.79-6.37,14.59,3.37,21C43.73,72.65,55.39,60,54.93,47.31a13,13,0,0,0-2.11-6.9Zm8.43,34.5c4.83,0,8.75,1,8.75,3.3,0,2-2.75,4.26-6.48,5a1.69,1.69,0,0,1,0,.32,4.38,4.38,0,0,0,3.66,5,7.43,7.43,0,0,0,3.34-.09,7.58,7.58,0,0,0,4.92-3.76,2.06,2.06,0,1,1,3.66,1.91,11.67,11.67,0,0,1-7.58,5.87,11.45,11.45,0,0,1-5.2.12,8.94,8.94,0,0,1-4.57-2.43c-.1-.11-.21-.22-.31-.34l-.32.34a8.87,8.87,0,0,1-4.56,2.43,11.49,11.49,0,0,1-5.21-.12,11.67,11.67,0,0,1-7.57-5.87,2.06,2.06,0,1,1,3.66-1.91,7.53,7.53,0,0,0,4.92,3.76,7.42,7.42,0,0,0,3.34.09,4.39,4.39,0,0,0,3.65-5,2.26,2.26,0,0,1,0-.26c-3.93-.6-6.86-3-6.86-5,0-2.34,3.91-3.3,8.74-3.3ZM73.66,42a4.44,4.44,0,1,1-4.43,4.43A4.44,4.44,0,0,1,73.66,42Zm1.6.6a1.75,1.75,0,1,1-1.75,1.75,1.75,1.75,0,0,1,1.75-1.75ZM45.16,42a4.44,4.44,0,1,0,4.43,4.43A4.44,4.44,0,0,0,45.16,42Zm-1.6.6a1.75,1.75,0,1,0,1.75,1.75,1.75,1.75,0,0,0-1.75-1.75Zm1.8-3a6.92,6.92,0,1,0,6.91,6.92,6.92,6.92,0,0,0-6.91-6.92Zm28.1,0a6.92,6.92,0,1,1-6.91,6.92,6.92,6.92,0,0,1,6.91-6.92ZM66,40.41c7.39-10.89,20.21-4.79,26.14,4.15,7.17,10.79,6.37,14.59-3.37,21C75.09,72.65,63.43,60,63.89,47.31A13,13,0,0,1,66,40.41Zm38.43,4.8c3,15.85,6.49,23.22-1.74,39.16-17,32.82-70.07,29.22-83.6-1.33-5.41-12.23-3.17-24.89-.87-37.66a52,52,0,0,1,6.83-16C44.17-.36,96.1,5.27,104.43,45.21Z"/></svg>