<?xml version="1.0" encoding="UTF-8"?>
<!DOCTYPE svg PUBLIC "-//W3C//DTD SVG 1.1//EN" "http://www.w3.org/Graphics/SVG/1.1/DTD/svg11.dtd">
<!-- Creator: CorelDRAW 2021 (64-Bit) -->
<svg xmlns="http://www.w3.org/2000/svg" xml:space="preserve" width="392px" height="512px" version="1.1" shape-rendering="geometricPrecision" text-rendering="geometricPrecision" image-rendering="optimizeQuality" fill-rule="evenodd" clip-rule="evenodd"
viewBox="0 0 392 512.33"
 xmlns:xlink="http://www.w3.org/1999/xlink"
 xmlns:xodm="http://www.corel.com/coreldraw/odm/2003">
 <g id="Layer_x0020_1">
  <metadata id="CorelCorpID_0Corel-Layer"/>
  <path fill="black" d="M227.69 443.25c3.66,10.2 9.25,18.16 16.79,23.81 37.18,27.94 57.39,-14.41 54.6,-48.83 17.03,13.1 41.88,-0.15 64.06,-11.57 -94.47,-76.53 -45.6,-236.56 -102.04,-259.99 22.43,-9.34 48.73,-14.8 76.87,-18.42 -19.41,-11.97 -39.29,-23.22 -60.98,-31.76l24.35 -38.52c-33.76,1.86 -62.87,15.71 -89.79,23.28l15.25 -49.55c-45.37,23.81 -122.27,72.04 -109.89,118.15l-72.41 25.4 67.97 27.96c-45.61,33.45 -71.52,118.46 6.35,72.4 -39.54,47.38 -42.8,90.32 -25.38,138.73 2.61,7.26 3.21,4.31 -0.47,10.49 -5.98,10.01 -16.02,29.82 -15.91,39.74 0.41,36.83 46.18,25.51 63.05,-23.53 1.5,17.17 5.7,30.39 12.72,39.41 29.65,38.13 65.36,1.03 74.86,-37.2zm-32.17 -289.8c14.86,0 26.91,12.05 26.91,26.9 0,14.87 -12.05,26.91 -26.91,26.91 -14.85,0 -26.9,-12.04 -26.9,-26.91 0,-14.85 12.05,-26.9 26.9,-26.9zm-122.63 340.7c-7.1,-6.38 -11.52,-16.21 -11.66,-29.45 -0.07,-6.46 2.14,-14.4 5.29,-22.28 3.37,-8.44 8.01,-17.37 11.67,-23.71 -9.32,-26.27 -13.04,-51.32 -9.07,-76.54 1.98,-12.55 5.82,-24.98 11.78,-37.46 -2.05,-0.11 -3.97,-0.39 -5.75,-0.82l-0.07 0c-10.53,-2.54 -17.06,-9.19 -20.16,-18.67 -2.25,-6.92 -2.2,-15.18 -0.23,-24 3.58,-16.05 14.38,-36.14 28.95,-52.74l-83.64 -34.4 99.67 -34.97c0.17,-19.7 10.87,-38.57 26.89,-55.79 25.37,-27.27 64.96,-50.97 92.92,-65.65l33.67 -17.67 -17.47 56.74c19.65,-6.66 40.75,-13.28 64.79,-14.61l30.7 -1.69 -30.88 48.84c5.28,2.48 10.44,5.08 15.5,7.77l0 0.06c10.44,5.55 20.54,11.53 30.49,17.66l38.04 23.47 -44.36 5.71c-13.4,1.73 -26.48,3.92 -39.03,6.82 -3.18,0.74 -6.33,1.53 -9.41,2.36 12.42,20.06 15.95,50.01 19.94,83.91 6.31,53.54 14,118.7 61.68,157.33l18.86 15.28 -22.92 11.78c-17.77,9.16 -36.86,19 -55.04,18.31 -1.07,6.95 -2.88,13.71 -5.38,19.86 -3.94,9.67 -9.73,18.12 -17.3,23.98 -8.62,6.67 -19.04,9.86 -31.11,7.84 -7.94,-1.33 -16.42,-5.04 -25.27,-11.69 -1.37,-1.03 -2.68,-2.1 -3.94,-3.23 -5.76,9.81 -12.89,18.44 -20.83,24.61 -5.63,4.39 -11.83,7.69 -18.41,9.55 -7.07,2 -14.43,2.28 -21.88,0.42 -10.41,-2.58 -20.53,-9.17 -29.63,-20.88 -2.07,-2.66 -3.94,-5.57 -5.62,-8.73 -6.08,6.65 -12.64,11.71 -19.12,15.11 -7.07,3.71 -14.31,5.6 -21.07,5.58l-0.06 0c-8.17,-0.03 -15.59,-2.67 -21.53,-8.01z"/>
 </g>
</svg>
