<?xml version="1.0" encoding="utf-8"?><svg version="1.1" id="Layer_1" xmlns="http://www.w3.org/2000/svg" xmlns:xlink="http://www.w3.org/1999/xlink" x="0px" y="0px" viewBox="0 0 113.42 122.88" style="enable-background:new 0 0 113.42 122.88" xml:space="preserve"><style type="text/css"><![CDATA[
	.st0{fill-rule:evenodd;clip-rule:evenodd;}
	.st1{fill-rule:evenodd;clip-rule:evenodd;fill:#FFFFFF;}
]]></style><g><path class="st0" d="M45.42,102.28h5.02v15.68h2.46c1.35,0,2.46,1.11,2.46,2.46l0,0c0,1.35-1.11,2.46-2.46,2.46H42.86 c-1.35,0-2.46-1.11-2.46-2.46l0,0c0-1.35,1.11-2.46,2.46-2.46h2.56V102.28L45.42,102.28z"/><path class="st0" d="M63.33,102.28h5.02v15.68h2.46c1.35,0,2.46,1.11,2.46,2.46l0,0c0,1.35-1.11,2.46-2.46,2.46H60.77 c-1.35,0-2.46-1.11-2.46-2.46l0,0c0-1.35,1.11-2.46,2.46-2.46h2.56V102.28L63.33,102.28z"/><path class="st0" d="M56.91,0.25L56.91,0.25c7.18,0.16,12.92,6.16,12.76,13.34l-14.54,41.5L43.57,13.01 C43.73,5.83,49.73,0.09,56.91,0.25L56.91,0.25z"/><path d="M56.91,0L56.91,0c3.66,0.08,6.95,1.65,9.31,4.11s3.78,5.82,3.7,9.48l-0.01,0.08l-14.54,41.5l-0.47-0.02L43.33,13.07 L43.33,13c0.08-3.66,1.65-6.95,4.11-9.3C49.9,1.35,53.26-0.08,56.91,0L56.91,0z M56.91,0.5L56.91,0.5 c-3.53-0.08-6.76,1.29-9.13,3.56c-2.36,2.26-3.87,5.42-3.96,8.92l11.34,41.28l14.27-40.71c0.07-3.51-1.3-6.72-3.56-9.09 C63.6,2.08,60.43,0.57,56.91,0.5L56.91,0.5z"/><path d="M23.71,7.43c0.12-0.1,0.25-0.18,0.39-0.26c3.66-2.34,7.94-3.02,11.92-2.21c3.98,0.81,7.66,3.11,10.11,6.69 c0.3,0.39,0.5,0.84,0.59,1.3l11.65,42.15c0.45,1.64-0.51,3.33-2.15,3.78c-1.01,0.28-2.04,0.02-2.79-0.61l0,0L19.94,30.32 c-0.27-0.23-0.49-0.49-0.67-0.78c-2.39-3.67-3.08-7.99-2.26-12C17.82,13.56,20.12,9.88,23.71,7.43L23.71,7.43z M34.78,10.99 c-2.5-0.51-5.2-0.07-7.49,1.44l0,0c-2.29,1.51-3.75,3.83-4.26,6.33c-0.48,2.37-0.11,4.92,1.22,7.13l25.55,21.35l-8.95-32.36 C39.35,12.81,37.15,11.48,34.78,10.99L34.78,10.99z"/><path class="st1" d="M25.59,9.87L25.59,9.87c5.99-3.96,14.13-2.31,18.09,3.68L55.4,55.93L21.91,27.96 C17.95,21.97,19.61,13.83,25.59,9.87L25.59,9.87z"/><path class="st0" d="M2.43,34.89L2.43,34.89c2.97-7.45,11.5-11.12,18.95-8.15l37.76,31.44l-48.56-4.35 C3.12,50.87-0.54,42.34,2.43,34.89L2.43,34.89z"/><path d="M6.37,67.46c0.03,0.12,0.06,0.24,0.08,0.36c0.65,2.58,2.28,4.69,4.4,6.02c2.06,1.29,4.59,1.83,7.12,1.36l28.92-16.46 l-33.47-2.94c-2.46,0.69-4.46,2.28-5.74,4.32C6.36,62.24,5.82,64.85,6.37,67.46L6.37,67.46z M0.41,69.01 c-1-4.32-0.14-8.65,2.05-12.15c2.19-3.51,5.71-6.18,10.05-7.19c0.32-0.07,0.64-0.09,0.95-0.07l0-0.01l43.8,3.85 c1.7,0.15,2.95,1.64,2.81,3.34c-0.1,1.13-0.79,2.07-1.75,2.52L20.59,80.79c-0.27,0.15-0.55,0.26-0.83,0.32 c-4.32,1-8.66,0.14-12.16-2.04C4.09,76.88,1.42,73.35,0.41,69.01L0.41,69.01L0.41,69.01z"/><path class="st1" d="M3.42,68.33L3.42,68.33C1.8,61.34,6.2,54.29,13.19,52.68l43.8,3.85L19.07,78.11 C12.08,79.73,5.03,75.33,3.42,68.33L3.42,68.33z"/><path d="M86.59,12.88c-0.15-0.09-0.29-0.19-0.42-0.31c-2.17-1.5-4.76-2.01-7.22-1.63c-2.39,0.37-4.65,1.6-6.25,3.61L61.59,45.97 l27.23-19.67c1.41-2.14,1.89-4.66,1.52-7.05C89.95,16.8,88.68,14.49,86.59,12.88L86.59,12.88z M90,7.77 c3.58,2.62,5.77,6.46,6.41,10.54c0.64,4.08-0.27,8.4-2.89,11.98c-0.2,0.27-0.43,0.5-0.69,0.69L57.19,56.72 c-1.38,0.99-3.3,0.68-4.29-0.7c-0.61-0.85-0.73-1.9-0.4-2.82l-0.01,0l14.55-41.13c0.13-0.38,0.34-0.72,0.59-1 c2.61-3.46,6.38-5.57,10.38-6.2C82.09,4.23,86.41,5.15,90,7.77L90,7.77L90,7.77z"/><path class="st1" d="M88.19,10.24L88.19,10.24c5.8,4.23,7.08,12.44,2.85,18.24L55.4,54.23L69.95,13.1 C74.18,7.3,82.39,6.01,88.19,10.24L88.19,10.24z"/><path class="st0" d="M112.63,35.25L112.63,35.25c2.62,7.58-1.45,15.93-9.03,18.55l-49.13,0.86l39.61-28.43 C101.66,23.6,110.01,27.66,112.63,35.25L112.63,35.25z"/><path d="M106.62,68.44c0.02-0.11,0.05-0.22,0.09-0.32c0.68-2.59,0.27-5.23-0.95-7.42c-1.18-2.12-3.13-3.81-5.59-4.61l-33.28,0.48 l27.9,18.71c2.5,0.59,5.04,0.17,7.15-1.01C104.12,73.04,105.85,71,106.62,68.44L106.62,68.44z M112.58,70 c-1.22,4.25-4.06,7.62-7.66,9.63c-3.61,2.01-7.98,2.66-12.24,1.46c-0.38-0.11-0.72-0.28-1.02-0.51L55.29,56.19 c-1.41-0.94-1.79-2.86-0.84-4.27c0.61-0.9,1.61-1.38,2.62-1.36l43.52-0.63c0.3,0,0.59,0.04,0.87,0.11l0-0.01 c4.27,1.21,7.66,4.06,9.68,7.67c2.01,3.61,2.66,7.98,1.46,12.24L112.58,70L112.58,70z"/><path class="st1" d="M109.63,69.12L109.63,69.12c-1.95,6.91-9.21,10.96-16.11,9L57,53.64l43.63-0.63 C107.53,54.96,111.58,62.21,109.63,69.12L109.63,69.12z"/><path d="M66.37,43.56c7.78,1.98,14.6,6.14,19.41,11.89c4.62,5.51,7.38,12.46,7.38,20.31c0,6.37-2.13,12.51-5.8,17.75 c-3.69,5.28-8.96,9.65-15.18,12.42c-1.38,0.61-2.8,1.15-4.26,1.6c-1.42,0.44-2.89,0.79-4.42,1.07c-1.33,0.24-2.18-0.29-3.37-1.03 c-0.98-0.61-2.54-1.58-3.65-1.59c-1.33-0.02-3.03,0.9-4.13,1.49c-1.27,0.69-2.2,1.18-3.51,0.91c-1.37-0.28-2.66-0.62-3.87-1 c-1.23-0.39-2.48-0.86-3.72-1.41c-6.21-2.71-11.46-7-15.12-12.31c-3.58-5.19-5.66-11.33-5.66-17.92c0-7.57,2.74-14.55,7.36-20.17 c4.68-5.69,11.3-9.96,18.94-11.98l0.57-0.15c1.13-0.3,1.58-0.44,1.76-1.23c0.16-0.7,0.26-1.17,0.27-1.51 c0.01-0.31-0.05-0.71-0.18-1.32c-0.11-0.52-0.42-0.69-0.84-0.92c-0.81-0.46-1.75-0.98-2.89-2.08c-1.51-1.45-2.72-3.2-3.55-5.15 c-0.8-1.89-1.25-3.96-1.25-6.12c0-4.32,1.75-8.24,4.59-11.07c2.83-2.83,6.75-4.59,11.07-4.59c4.21,0,8,1.9,10.79,4.69 C70.13,17.17,72,21.26,72,25.14c0,2.67-0.56,4.92-1.51,6.84c-0.96,1.93-2.32,3.49-3.91,4.77c-0.83,0.67-1.52,1.07-2.1,1.42 c-0.37,0.22-0.58,0.34-0.74,1.31c-0.08,0.5-0.11,0.81-0.08,1.07c0.03,0.28,0.15,0.77,0.33,1.5c0.24,0.95,0.67,1.06,1.96,1.39 C65.99,43.46,66.37,43.56,66.37,43.56L66.37,43.56z M81.06,59.4c-3.98-4.75-9.67-8.2-16.21-9.87l0,0l-0.39-0.1 c-3.97-1-5.29-1.34-6.44-5.84c-0.24-0.94-0.4-1.61-0.48-2.44c-0.08-0.85-0.04-1.63,0.13-2.67c0.64-3.8,1.73-4.44,3.7-5.6 c0.38-0.22,0.83-0.49,1.35-0.91c0.93-0.75,1.71-1.64,2.25-2.73c0.54-1.09,0.86-2.44,0.86-4.09c0-2.26-1.17-4.72-3.05-6.6 c-1.71-1.71-3.98-2.88-6.43-2.88c-2.62,0-4.99,1.06-6.71,2.78s-2.78,4.09-2.78,6.71c0,1.33,0.27,2.58,0.74,3.71 c0.5,1.19,1.24,2.25,2.15,3.12c0.55,0.53,1.13,0.85,1.63,1.14c1.81,1.02,3.14,1.77,3.85,5c0.24,1.08,0.33,1.9,0.3,2.81 c-0.03,0.88-0.17,1.65-0.41,2.69c-1.02,4.4-2.48,4.83-6.21,5.8l-0.56,0.15c-6.38,1.69-11.89,5.22-15.76,9.93 c-3.73,4.53-5.94,10.16-5.94,16.26c0,5.3,1.67,10.25,4.55,14.42c3.02,4.37,7.36,7.91,12.52,10.16c0.97,0.42,2.01,0.81,3.12,1.17 c0.92,0.29,1.83,0.54,2.71,0.74l-0.08-0.15c-0.03-0.02-0.04-0.03-0.02-0.04c1.64-0.88,4.17-2.25,7.12-2.21 c2.82,0.03,5.27,1.55,6.81,2.51l-0.01,0.02c0.93-0.2,1.85-0.44,2.76-0.72c1.23-0.38,2.42-0.82,3.56-1.33 C74.88,98,79.27,94.37,82.33,90C85.28,85.77,87,80.85,87,75.76C87,69.42,84.77,63.83,81.06,59.4L81.06,59.4z M62.43,102.55 c0.31-0.06,0.62-0.12,0.93-0.18l0.01-0.02C63.34,102.37,61.46,102.72,62.43,102.55L62.43,102.55z M50.1,102.36 c0.77,0.16-0.41-0.14-0.62-0.27l0.08,0.15L50.1,102.36L50.1,102.36z"/><path class="st1" d="M65.61,46.54c13.94,3.55,24.47,14.63,24.47,29.22c0,11.57-7.83,22.33-19.14,27.37 c-2.5,1.11-5.17,1.95-7.96,2.45c-0.52,0.09-3.52-2.63-6.44-2.66c-3.24-0.04-6.42,2.6-7.06,2.46c-2.44-0.5-4.77-1.25-6.98-2.21 c-11.19-4.89-18.92-15.32-18.92-27.4c0-13.83,10.14-25.51,23.99-29.17c2.85-0.75,3.91-0.88,4.55-3.66c0.4-1.74,0.47-2.48,0.1-4.17 c-0.65-2.98-2.34-2.39-4.61-4.57c-2.37-2.29-3.85-5.5-3.85-9.05c0-6.94,5.63-12.57,12.57-12.57c6.94,0,12.57,6.66,12.57,12.57 c0,4.33-1.74,7.18-4.27,9.22c-2.33,1.88-3.38,1.26-3.95,4.62c-0.26,1.54-0.13,2.17,0.3,3.84C61.74,45.69,62.67,45.79,65.61,46.54 L65.61,46.54z"/><path class="st0" d="M52.25,20.99c1.14,0,2.07,0.92,2.07,2.07s-0.92,2.07-2.07,2.07s-2.07-0.92-2.07-2.07S51.11,20.99,52.25,20.99 L52.25,20.99z"/><path class="st0" d="M60.58,20.99c1.14,0,2.07,0.92,2.07,2.07s-0.92,2.07-2.07,2.07c-1.14,0-2.07-0.92-2.07-2.07 S59.44,20.99,60.58,20.99L60.58,20.99z"/><polygon class="st0" points="54.28,29.3 58.74,29.3 56.55,33.85 54.28,29.3"/><path class="st0" d="M76.67,58.87L76.67,58.87c4.33-2.5,9.92-1,12.41,3.33l9.09,15.74c2.5,4.33,1,9.91-3.33,12.41l0,0 c-4.33,2.5-9.91,1-12.41-3.33l-9.09-15.74C70.85,66.95,72.34,61.37,76.67,58.87L76.67,58.87z"/><path class="st0" d="M37,58.87L37,58.87c-4.33-2.5-9.91-1-12.41,3.33L15.5,77.93c-2.5,4.33-1,9.91,3.33,12.41l0,0 c4.33,2.5,9.91,1,12.41-3.33l9.09-15.74C42.82,66.95,41.33,61.37,37,58.87L37,58.87z"/><path class="st0" d="M43.06,47.38l5.76-1.46c5.41,3.41,10.76,3.73,16.03,0l5.76,1.59c-5.8,3.28-10.19,8.43-13.58,14.9 C54.1,56.26,49.4,51.27,43.06,47.38L43.06,47.38z"/></g></svg>