<?xml version="1.0" encoding="utf-8"?><svg version="1.1" id="Layer_1" xmlns="http://www.w3.org/2000/svg" xmlns:xlink="http://www.w3.org/1999/xlink" x="0px" y="0px" viewBox="0 0 115.31 122.88" style="enable-background:new 0 0 115.31 122.88" xml:space="preserve"><g><path d="M57.68,0L57.68,0c3.63,0,6.92,1.48,9.31,3.87c2.39,2.39,3.87,5.68,3.87,9.31v8.63c3.72,1.41,7.21,3.41,10.41,5.9 c1.5-2.83,3.4-5.19,5.71-7.07c2.8-2.28,6.18-3.86,10.17-4.75c0.13-0.04,0.27-0.05,0.41-0.05h16.19v0c0.09,0,0.18,0.01,0.27,0.02 c0.84,0.15,1.41,0.95,1.26,1.8c-1.1,6.25-2.64,11.57-4.81,15.5c-2.28,4.14-5.28,6.78-9.2,7.46c-0.13,0.03-0.26,0.05-0.39,0.05H92.6 c4.83,8.08,7.67,17.92,7.67,28.53c0,6.56-1.09,12.83-3.06,18.57c3.28,3.61,5.73,7.56,7.35,11.85c1.72,4.57,2.5,9.51,2.33,14.83 c-0.02,0.59-0.05,1.13-0.08,1.62c-0.03,0.5-0.08,1.05-0.14,1.64l-0.03,0.26c-0.16,1.61-0.24,2.4-0.96,3.16 c-0.67,0.71-1.45,0.88-2.96,1.21c-0.04,0.01-0.07,0.01-0.11,0.02l-0.36,0.08c-3.88,0.86-7.88,0.55-12-1.22 c-3.74-1.61-7.58-4.44-11.51-8.7c-6.21,4.14-13.4,6.5-21.06,6.5c-7.64,0-14.81-2.35-21.01-6.47c-3.91,4.24-7.72,7.05-11.44,8.66 c-4.11,1.78-8.09,2.09-11.96,1.23l-0.36-0.08c-0.04-0.01-0.07-0.01-0.11-0.02c-1.51-0.33-2.29-0.5-2.96-1.21 c-0.72-0.76-0.8-1.55-0.96-3.16l-0.03-0.26c-0.06-0.59-0.11-1.14-0.14-1.64c-0.03-0.49-0.06-1.03-0.08-1.62 c-0.17-5.31,0.56-10.24,2.24-14.81c1.58-4.29,3.99-8.24,7.27-11.86c-1.97-5.74-3.06-12.01-3.06-18.57 c0-10.61,2.84-20.45,7.67-28.53h-8.33c-0.14,0-0.27-0.02-0.39-0.05c-3.92-0.68-6.91-3.32-9.2-7.46c-2.17-3.93-3.71-9.24-4.81-15.5 c-0.15-0.84,0.42-1.65,1.26-1.8c0.09-0.02,0.18-0.02,0.27-0.02v0h16.19c0.14,0,0.28,0.02,0.41,0.05c3.99,0.89,7.37,2.46,10.17,4.75 c2.32,1.89,4.23,4.25,5.73,7.1c3.2-2.5,6.71-4.5,10.44-5.92v-8.63c0-3.63,1.48-6.92,3.87-9.31S54.05,0,57.68,0L57.68,0z M77.98,29.14c-1.48,3.78-3.99,7.04-7.17,9.45c-3.65,2.76-8.2,4.4-13.13,4.4s-9.47-1.64-13.13-4.4c-3.19-2.41-5.69-5.67-7.17-9.45 c-0.86,0.61-1.69,1.25-2.5,1.93c-0.1,0.17-0.24,0.31-0.4,0.43l0,0c-0.24,0.18-0.48,0.36-0.72,0.55c2.23,3.21,3.54,6.96,3.83,10.82 c0.31,4.21-0.59,8.56-2.87,12.5l0,0l0,0c-1.89,3.27-4.49,5.86-7.5,7.7c-2.72,1.66-5.78,2.7-8.93,3.06 c-0.05,1.01-0.08,2.02-0.08,3.04c0,4.02,0.43,7.92,1.24,11.64c3.09-0.44,6.26-0.22,9.28,0.67c3.39,1,6.58,2.83,9.25,5.5 c3.55,3.55,5.62,8.03,6.21,12.67c0.53,4.21-0.16,8.55-2.09,12.43c4.78,2.44,10.06,3.79,15.59,3.79c0.44,0,0.88-0.01,1.32-0.03 c-1-4.28-0.66-8.71,0.87-12.71c1.72-4.52,4.95-8.5,9.47-11.1c0.03-0.02,0.06-0.03,0.09-0.05c3.83-2.19,8.05-3.09,12.14-2.83 c3.65,0.23,7.21,1.37,10.31,3.33c0.76-1.57,1.45-3.18,2.07-4.83c1.11-3.04,1.95-6.25,2.5-9.59c-3.18-1.07-6.09-2.87-8.48-5.25 c-2.63-2.62-4.62-5.94-5.64-9.78c-1.16-4.34-0.93-8.73,0.42-12.68c1.24-3.63,3.43-6.9,6.35-9.43c-1.1-1.71-2.3-3.33-3.59-4.85 c-1.08-1.27-2.22-2.46-3.41-3.57c-0.41-0.34-0.83-0.68-1.26-0.99l0,0c-0.19-0.14-0.34-0.31-0.45-0.51 C79.61,30.34,78.8,29.72,77.98,29.14L77.98,29.14z M65.47,20.21c0.77,0.17,1.52,0.35,2.27,0.57v-7.6c0-2.77-1.13-5.29-2.96-7.11 c-1.83-1.83-4.34-2.96-7.11-2.96l0,0c-2.77,0-5.29,1.13-7.11,2.96c-1.83,1.83-2.96,4.34-2.96,7.11v7.6 c0.33-0.09,0.66-0.18,0.99-0.27c3.14-0.91,6.24-1.31,9.3-1.28C60.45,19.27,62.98,19.6,65.47,20.21L65.47,20.21z M83.7,29.75 c0.2,0.18,0.4,0.37,0.6,0.55c1.05,0.91,2.03,1.89,2.96,2.94c1.2,1.35,2.3,2.79,3.37,4.31h10.16c2.87-0.51,5.15-2.6,6.97-5.89 c1.79-3.23,3.12-7.58,4.13-12.72H97.72c-3.48,0.79-6.4,2.15-8.79,4.1C86.79,24.78,85.05,27.02,83.7,29.75L83.7,29.75z M95.97,91.04 c-1.19,2.84-2.6,5.53-4.21,8.03c-0.47,0.74-0.96,1.46-1.47,2.18c-2.47,3.46-5.43,6.64-8.97,9.47c3.51,3.74,6.89,6.22,10.16,7.62 c3.5,1.51,6.86,1.78,10.11,1.05l0.36-0.08c0.04-0.01,0.08-0.02,0.12-0.03c0.9-0.2,1.36-0.3,1.37-0.31 c0.01-0.01,0.03-0.43,0.12-1.32l0.03-0.26c0.05-0.48,0.09-0.99,0.13-1.54c0.04-0.56,0.06-1.07,0.08-1.52 c0.16-4.9-0.55-9.45-2.13-13.64C100.36,97.24,98.46,94.02,95.97,91.04L95.97,91.04z M32.93,109.73c-1.95-1.63-3.78-3.45-5.46-5.43 c-3.27-3.85-6.01-8.33-8.08-13.26c-2.48,2.98-4.34,6.19-5.6,9.64c-1.54,4.19-2.21,8.74-2.05,13.64c0.01,0.45,0.04,0.95,0.08,1.51 c0.04,0.55,0.08,1.07,0.13,1.55l0.03,0.26c0.09,0.9,0.11,1.31,0.12,1.32c0.01,0.01,0.47,0.11,1.37,0.31 c0.04,0.01,0.08,0.02,0.12,0.03l0.36,0.08c3.25,0.72,6.59,0.46,10.06-1.05c3.24-1.4,6.61-3.88,10.12-7.63 c-0.4-0.32-0.79-0.64-1.18-0.97L32.93,109.73L32.93,109.73L32.93,109.73z M31.55,29.85l0.08-0.07c-1.36-2.75-3.1-4.99-5.25-6.74 c-2.39-1.95-5.32-3.31-8.79-4.1H3.42c1.01,5.14,2.35,9.49,4.13,12.72c1.82,3.29,4.09,5.38,6.97,5.89h10.16 c1.07-1.52,2.17-2.96,3.37-4.31C29.14,32.01,30.29,30.88,31.55,29.85L31.55,29.85z M75.32,27.41c-1.91-1.13-3.91-2.08-5.98-2.84 l-0.04,0c-0.24,0-0.47-0.05-0.67-0.15c-1.07-0.4-2.15-0.74-3.23-1.03c-2.5-0.59-5.08-0.9-7.73-0.9c-2.97,0-5.86,0.39-8.64,1.12 c-0.8,0.24-1.61,0.52-2.42,0.84c-0.2,0.08-0.4,0.11-0.6,0.11c-2.07,0.76-4.07,1.71-5.98,2.84c1.23,3.49,3.48,6.51,6.38,8.71 c3.13,2.36,7.03,3.77,11.26,3.77c4.23,0,8.13-1.4,11.26-3.77C71.84,33.92,74.08,30.9,75.32,27.41L75.32,27.41z M31.49,34.25 c-0.56,0.59-1.11,1.2-1.64,1.82c-6.03,7.09-10.13,16.45-11.3,26.91c2.49-0.37,4.89-1.23,7.05-2.55c2.58-1.57,4.82-3.8,6.43-6.61 l0,0c1.95-3.37,2.72-7.1,2.45-10.72C34.25,39.97,33.22,36.91,31.49,34.25L31.49,34.25z M20.19,83.86c0.34,1.22,0.72,2.41,1.14,3.58 c0.02,0.04,0.04,0.09,0.05,0.13c1.58,4.24,3.63,8.22,6.25,11.87c1.81,2.51,3.89,4.87,6.29,7.04c1.71,1.53,3.54,2.9,5.45,4.08 c1.6-3.29,2.17-6.96,1.72-10.51c-0.5-3.97-2.28-7.81-5.33-10.86c-2.29-2.29-5.03-3.87-7.93-4.72 C25.35,83.74,22.74,83.54,20.19,83.86L20.19,83.86z M62.12,115.59c9.08-1.2,17.24-6.06,23.39-13.29c1.68-1.98,3.21-4.13,4.58-6.44 c0.12-0.2,0.24-0.41,0.35-0.62c-2.72-1.76-5.84-2.79-9.05-2.99c-3.52-0.22-7.14,0.55-10.43,2.42c-0.02,0.02-0.05,0.03-0.07,0.05 c-3.87,2.24-6.64,5.65-8.12,9.53C61.41,107.82,61.14,111.79,62.12,115.59L62.12,115.59z M96.86,74.92c0.19-1.88,0.3-3.79,0.3-5.73 c0-9.44-2.37-18.22-6.44-25.56c-2.3,2.12-4.03,4.78-5.03,7.72c-1.16,3.39-1.36,7.16-0.36,10.88c0.88,3.29,2.59,6.14,4.83,8.38 C92.06,72.52,94.35,73.98,96.86,74.92L96.86,74.92z M57.68,47.38c6.02,0,11.47,2.44,15.42,6.39c3.95,3.95,6.39,9.4,6.39,15.42 c0,6.02-2.44,11.47-6.39,15.42c-3.95,3.95-9.4,6.39-15.42,6.39s-11.47-2.44-15.42-6.39c-3.95-3.95-6.39-9.4-6.39-15.42 c0-6.02,2.44-11.47,6.39-15.42C46.21,49.82,51.66,47.38,57.68,47.38L57.68,47.38z M70.9,55.97c-3.38-3.38-8.06-5.48-13.22-5.48 c-5.16,0-9.84,2.09-13.22,5.48s-5.48,8.06-5.48,13.22c0,5.16,2.09,9.84,5.48,13.22c3.38,3.38,8.06,5.48,13.22,5.48 s9.84-2.09,13.22-5.48c3.38-3.38,5.48-8.06,5.48-13.22C76.37,64.02,74.28,59.35,70.9,55.97L70.9,55.97z"/></g></svg>