<svg xmlns="http://www.w3.org/2000/svg" shape-rendering="geometricPrecision" text-rendering="geometricPrecision" image-rendering="optimizeQuality" fill-rule="evenodd" clip-rule="evenodd" viewBox="0 0 512 249.98"><path d="M88.99 4.41c1.61.09 3.32-.17 5.16-.83 3.26-.69 6.47-.87 9.59-.61 9.6.78 18.42 5.66 25.77 12.25 2.66 2.37 5.13 5.02 7.41 7.97 1.92 5.39 6.87 6.49 12.59 6.21 10.92-.54 25.61-4.33 36.48-2.65 11.88 1.82 21.1 8.58 36.39 10.25 2.46.27 5.16.2 7.86.02 10.09-.68 17.47-2.65 28.03-1.35 22.24 2.71 39.82 13.21 63.93 15.77 33.59 3.57 63.36-6.85 93.29-2.25 35.29 5.43 48.42 27.59 94.42 22.04 2.91-.39 3.04 3.91-1.29 5.12-16.06 7.52-32.06 13.31-47.92 15.43-25.62 3.42-41.71-7.2-65.45-4.4-19.95 2.35-35.22 13.97-53.26 21.63-13.31 5.64-27.88 8.22-39.52 16.44-5 3.54-8.81 7.07-13.68 9.53-7.06 3.55-12.22 7.75-19.24 8.14-4.65-.25-11.33-1-10.54 6.5.24 2.27 2.85 3.92 5.78 6.52 6.47 6.84 10.61 14.35 9.27 31.85.05 1.72.24 3.23.59 4.53.34 1.3.85 2.39 1.49 3.26 3.21 5.97 1.79 10.59-2.72 14.29l-23.16 27.83c-4.31 5.57-9.01 8.98-14.33 8.87-2.02 1.13-3.84 1.97-5.44 2.46-8.02 2.52-6.27-1.76-3.87-6.16.91-1.47.84-2.69.04-3.24-2.56-1.75-6.74 3.38-8.75 4.74-3.41 2.31-10 3.29-7.42-2.44.49-1.09 1.35-2.26 2.59-3.51.66-1.36.79-2.16.33-2.54-2.14-1.77-5.48 3.15-7.64 3.88-1.56.52-3.11.29-4.67-.75-1.88-1.95-.62-4.43 2.47-7.22 3.54-3.21 6.99-6.43 10.84-8.35.82-.86 5.9-1.84 10.01-2.8 6.57-1.53 7.3-3.35 11.46-8.89.58-.77 1.14-1.55 1.68-2.34 2.98-4.34 6.21-9.65 2.9-14.76-1.32-2.05-3.18-3.58-3.6-6.09l-8.21 3.78-9.77 12.67c-2.43 3.73-5.69 6.64-9.88 8.66-8 3.85-21.19 3.74-30.27 4.42-1.52-.25-1.77-1.01-.74-2.19l2.43-1.39c1.85-1.67.51-3.18-2.08-2.43l-5.13 2.86c-1.59.38-2.23-.46-1.22-3.47l1.05-3.13-4.95-.26c.73-2.09 1.55-4.09 3.09-5.3 6.21-4.9 17.42-4.13 24.92-3.49 3.07-1.57 9.38-8.59 9.25-12.01-.06-1.47-.89-2.91-2.1-4.34-4.49-1.75-8.52-5.28-12.22-10.04-2.55-3.27-9.51-12.54-6.96-16.79.55-.91 2.99-.98 5.35-.88 7.28.3 6.01-2.97.56-3.7a61.81 61.81 0 0 1-3.57-.6c-5.1-1-10.09-2.67-15-4.89-8.53-3.85-16.82-9.39-24.93-16.07l-4.46-3.12-.47 6.15c-.41 2.49-1.31 4.14-2.66 5.03-2.73 1.8-9.94-.5-13.27-1.18l-12.76-2.59c-2.51-.33-4.64.32-6.51 1.4-4.6 2.64-7.68 7.85-11.15 7.36l1.89-9.07-8.99 1.1c6.76-13.15 12.28-16.51 26.47-14.72 3.34.42 6.66 1.23 9.95 2.42 1.34-.16 2.43-.73 3.03-2.12.44-1.01.62-2.46.44-4.5 0-22.24-13.69-22.84-15.95-40.58-.52-4.12-2.26-8.87-4.23-1.52-1.28 4.25-3.57 7.35-6.7 9.5-2.21 1.52-4.84 2.56-7.82 3.19-15.3 3.23-25.01-3.68-38.18-3.44-6.02.1-12.96 1.32-20.52 3.28-10.71 3.3-21.58 2.13-21.69-11.16l-.02-2.13 7.04-.92.23-3.81 1.73-.34 2.66 2.53 4.72-1.84.35-2.89 3.69 1.16 4.27.92 1.04-4.61 5.88.81 2.89-1.5-3.81-1.62 9.9.92c8.72-2.7 13.12-6.43 14.21-10.96l-1.5-1.5c-4.9 3.92-10.96 5.24-18.46 3.35l-.92 2.31-2.49 1.18-1.89-3.49-2.31-.69-3.69 1.96-4.62-3.12-4.96.92-2.77-.34-2.65-4.04-4.15 1.62-3.12.57-2.07-5.65-8.2-2.54c-6.92-2.61-2.82-11.84-1.13-17.85C5.82 13.1 13.53 11.58 23.77 10.89c4.48-.3 8.94-.1 13.36.55l16.09-.23c9.42-.13 12.75-.66 19.58-8.52 7.61-6.78 9.16 1.34 16.19 1.72zm-7.45 27.74c2.56 0 4.63 2.07 4.63 4.63 0 2.55-2.07 4.63-4.63 4.63-2.55 0-4.62-2.08-4.62-4.63 0-2.56 2.07-4.63 4.62-4.63z"/></svg>