<svg xmlns="http://www.w3.org/2000/svg" shape-rendering="geometricPrecision" text-rendering="geometricPrecision" image-rendering="optimizeQuality" fill-rule="evenodd" clip-rule="evenodd" viewBox="0 0 391 511.93"><path d="M26.19 200.64h1.66v-27.23c0-45.42 17.37-89.23 48.84-122.04 15.47-16.13 34-29.18 54.59-38.1 40.87-17.7 87.58-17.69 128.45.01 41.49 17.97 74.01 52.45 90.77 94.31a177.081 177.081 0 0 1 12.65 65.82v27.23h1.67c14.4 0 26.18 11.79 26.18 26.19v258.91c0 14.4-11.78 26.19-26.18 26.19H26.19C11.77 511.93 0 500.14 0 485.74V226.83c-.01-14.42 11.78-26.19 26.19-26.19zm251.94 141.23v28.77c-.01 5.89-4.86 10.68-10.68 10.68h-46.92v46.91c-.01 5.89-4.85 10.68-10.68 10.68h-28.77c-5.87-.03-10.65-4.8-10.65-10.68v-46.91h-46.91c-5.88-.03-10.65-4.8-10.65-10.68v-28.77c.03-5.87 4.78-10.64 10.65-10.65h46.91V284.3c.02-5.87 4.79-10.62 10.65-10.65h28.77c5.89.01 10.66 4.78 10.68 10.65v46.92h46.92c5.88.01 10.65 4.77 10.68 10.65zM91.76 200.64H299.2v-27.23c0-14.97-2.84-29.22-7.97-42.15-10.39-26.18-30.59-47.97-56.53-59.25-24.91-10.83-53.53-10.83-78.44.01-40.13 17.42-64.5 58.28-64.5 101.39v27.23z"/></svg>