<svg id="Layer_1" data-name="Layer 1" xmlns="http://www.w3.org/2000/svg" viewBox="0 0 122.88 113.75"><defs><style>.cls-1{fill-rule:evenodd;}</style></defs><title>criminal-custody</title><path class="cls-1" d="M0,16H15.82V0h6V16H38.08V0h6V16H60.37V0h6V16H82.65V0h6V16h16.24V0h6V16h11.9v5.19H111V106h11.9v7.73H0V106H15.83V21.22H0V16ZM37.91,49.44,38,55.91h.06v34c-6.18,2.28-12.19,1.68-16.17,6.66V21.22H38.06V49.44Zm6.2,26.63a24.34,24.34,0,0,0,7.28,8.52,16.91,16.91,0,0,0,9,3.19v5.65c-9.09-.24-16-6.51-15.65-7.52h0c-.2.18-.4.36-.6.52V76.07ZM66.4,86.87a18,18,0,0,0,3.34-1.62c6.07-3.78,11.15-11.84,12.9-24.54V89.39a18.62,18.62,0,0,1-5.57-3.48A24.31,24.31,0,0,1,66.4,92.66V86.87ZM82.64,45.78A21.47,21.47,0,0,0,66.4,30.89V21.22H82.64V45.78ZM60.36,30.5a21.85,21.85,0,0,0-16.25,9V21.22H60.36V30.5ZM88.7,91.1c7.16,1.46,13.62,2,16,14.93h.2V21.22H88.7V91.1ZM44.11,57.22l16.25,1.7v-3H44.11v1.31ZM66.4,58.51l15-1.63c0-.32,0-.64.07-1H66.4v2.6Zm14.24,4.35c-4.61,4.74-9.44,6-14.24,3.45v6.21a35,35,0,0,1,4.57,1c4.75,2.81,6-2.12,7.55-2.76a47.21,47.21,0,0,0,2.12-8Zm-20.28.4c-5.64,5.28-11.12,6.07-16.25,1.42v5.68c1.38,1.83,3,5.76,7.4,3.21a32.39,32.39,0,0,1,8.85-1.46V63.26Zm7,.52a7.21,7.21,0,0,1-1-1.05V61.17L77.05,59.5c.33,0,.83-.2,1.11.07s.13.36,0,.65c-2.09,4.25-6.55,7.11-10.74,3.56Zm-12,0a8.36,8.36,0,0,0,1.95-2.46L45.81,59.5c-.33,0-.83-.2-1.1.07s-.13.36,0,.65c2.09,4.25,6.55,7.11,10.74,3.56ZM66.4,77c1.37.5,2.22,1.21,2.22,2s-.85,1.49-2.22,2V77Zm-6,4.67c-3.29-.23-5.79-1.34-5.79-2.68s2.5-2.45,5.79-2.68v5.36Z"/></svg>