<?xml version="1.0" encoding="utf-8"?><svg version="1.1" id="Layer_1" xmlns="http://www.w3.org/2000/svg" xmlns:xlink="http://www.w3.org/1999/xlink" x="0px" y="0px" viewBox="0 0 122.88 86.22" style="enable-background:new 0 0 122.88 86.22" xml:space="preserve"><style type="text/css"><![CDATA[
	.st0{fill-rule:evenodd;clip-rule:evenodd;fill:#EC6F59;}
	.st1{fill-rule:evenodd;clip-rule:evenodd;fill:#FAD15C;}
	.st2{fill-rule:evenodd;clip-rule:evenodd;fill:#393939;}
]]></style><g><path class="st2" d="M1.92,60.11h40.76c0.94,0,1.71,0.77,1.71,1.71v21.37c0,0.94-0.77,1.71-1.71,1.71H1.92 c-0.94,0-1.71-0.77-1.71-1.71V61.81C0.22,60.87,0.98,60.11,1.92,60.11L1.92,60.11L1.92,60.11z M118.12,60.11h2.92 c0.94,0,1.71,0.77,1.71,1.71v21.37c0,0.94-0.77,1.71-1.71,1.71h-12.32c1.56-1.66,2.93-3.49,4.11-5.46 c2.37-3.95,3.96-8.42,4.74-13.08C117.91,64.31,118.1,62.22,118.12,60.11L118.12,60.11z M51.34,60.11h1.34 c0.4,5.81,2.17,11.64,5.1,16.79c1.66,2.92,3.7,5.63,6.09,8H51.34c-0.94,0-1.71-0.77-1.71-1.71V61.81 C49.63,60.87,50.4,60.11,51.34,60.11L51.34,60.11L51.34,60.11z M97.71,30.05h23.46c0.94,0,1.71,0.77,1.71,1.71v21.37 c0,0.94-0.77,1.71-1.71,1.71h-3.32c-0.66-5.77-2.53-11.48-5.68-16.52c-1.19-2.07-3.39-3.49-5.95-3.58 c-2.13-0.08-4.08,0.79-5.44,2.22C99.48,34.57,98.33,32.22,97.71,30.05L97.71,30.05z M31.13,30.05h35.72 c-0.54,0.93-1.02,1.87-1.45,2.85c-1.77,0.25-3.45,1.16-4.64,2.68c-2.42,3.1-4.55,6.64-6.02,10.54c-1.04,2.76-1.76,5.68-2.03,8.73 H31.13c-0.94,0-1.71-0.77-1.71-1.71V31.76C29.43,30.82,30.19,30.05,31.13,30.05L31.13,30.05L31.13,30.05z M1.71,30.05h20.82 c0.94,0,1.71,0.77,1.71,1.71v21.37c0,0.94-0.77,1.71-1.71,1.71H1.71C0.77,54.84,0,54.07,0,53.13V31.76 C0,30.82,0.77,30.05,1.71,30.05L1.71,30.05L1.71,30.05z M1.92,0h40.76c0.94,0,1.71,0.77,1.71,1.71v21.37 c0,0.94-0.77,1.71-1.71,1.71H1.92c-0.94,0-1.71-0.77-1.71-1.71V1.71C0.22,0.77,0.98,0,1.92,0L1.92,0L1.92,0z M100.51,0h20.53 c0.94,0,1.71,0.77,1.71,1.71v21.37c0,0.94-0.77,1.71-1.71,1.71h-20.53c-0.94,0-1.71-0.77-1.71-1.71V22.8 c1.18-1.82,1.52-4.14,0.72-6.33c-0.19-0.52-0.44-1.01-0.72-1.46V1.71C98.8,0.77,99.57,0,100.51,0L100.51,0L100.51,0z M51.34,0H92.1 c0.94,0,1.71,0.77,1.71,1.71v10.1c-1.13-0.16-2.31-0.06-3.46,0.35c-8.36,3.06-15.04,7.27-19.74,12.62H51.34 c-0.94,0-1.71-0.77-1.71-1.71V1.71C49.63,0.77,50.4,0,51.34,0L51.34,0L51.34,0z"/><path class="st0" d="M70.48,49.45c-1.57-14.11,6.67-24.04,22.13-29.69c-9.46,12.28,8.07,25.59,9.04,38.34 c2.27-3.87,3.55-9.03,3.81-15.93c11.59,18.18,1.98,47.91-23.53,43.63c-2.34-0.39-4.6-1.13-6.65-2.23 c-9.3-4.96-14.86-15.79-14.86-26.13c0-6.59,2.82-12.47,6.46-17.14C67.36,44.88,68.4,48.29,70.48,49.45L70.48,49.45L70.48,49.45z"/><path class="st1" d="M78.73,69.83c-2.63-6.79-2.27-17.75,5.09-21.6C83.88,60.84,96.3,62.44,94,75.9c2.12-2.4,3.19-6.24,3.38-9.28 c3.36,7.7,0.72,13.86-4.07,17c-14.59,9.54-27.15-9.8-18.79-20.4C74.76,65.59,77.66,69.24,78.73,69.83L78.73,69.83L78.73,69.83z"/></g></svg>