<svg xmlns="http://www.w3.org/2000/svg" shape-rendering="geometricPrecision" text-rendering="geometricPrecision" image-rendering="optimizeQuality" fill-rule="evenodd" clip-rule="evenodd" viewBox="0 0 442 512.13"><path fill-rule="nonzero" d="M386.17 304.1v146.46h14.22c4.6 0 8.78 1.88 11.81 4.91 3.03 3.03 4.91 7.21 4.91 11.8v8.47h8.18c4.59 0 8.77 1.89 11.8 4.91 3.03 3.03 4.91 7.21 4.91 11.81v14.14c0 3.05-2.48 5.53-5.54 5.53h-87.98c.8-2.37.71-4.76-.46-7.14 0-1.34-.02-2.65-.05-3.93h82.96v-8.6c0-1.54-.64-2.95-1.67-3.98a5.62 5.62 0 0 0-3.97-1.66h-12.52c-.39.08-.79.13-1.2.13h-64.69c-.58-4.1-1.36-7.82-2.34-11.21h61.49v-8.47c0-1.54-.63-2.95-1.66-3.98a5.625 5.625 0 0 0-3.98-1.66h-62.13c-2.98-4.57-6.55-8.16-10.59-11.07h47.42V304.1h-64.5v138.16c-3.55-1.19-7.25-2.23-11.07-3.21V304.1h-46.66c-1.17-1.1-2.35-2.13-3.53-3.09-4.22-3.4-8.65-6.05-13.26-7.98h170.8v-1.58c0-4.3-1.78-8.24-4.63-11.09-2.85-2.85-6.78-4.63-11.09-4.63H46.07c-4.33 0-8.26 1.77-11.09 4.6l-.02.02a15.66 15.66 0 0 0-4.6 11.1v1.58H195.5c-1.92.74-3.84 1.57-5.75 2.5-4.84 2.35-9.53 5.23-14.07 8.57h-40.01v136.67c-3.83 1.08-7.54 2.21-11.07 3.5V304.1H62.14v146.46h49.31c-4.51 2.88-8.48 6.44-11.78 11.07H41.6c-1.54 0-2.95.64-3.98 1.66a5.607 5.607 0 0 0-1.66 3.98v8.47h56.93c-1.04 3.37-1.87 7.09-2.48 11.21H30.43c-.41 0-.82-.05-1.2-.13H16.71c-1.54 0-2.95.64-3.98 1.66a5.59 5.59 0 0 0-1.66 3.98v8.6h78.19c-.03 1.28-.05 2.59-.05 3.93-.28 2.49-.29 4.87-.08 7.14H5.54c-3.06 0-5.54-2.48-5.54-5.53v-14.14c0-4.59 1.88-8.76 4.91-11.79v-.02c3.02-3.02 7.2-4.91 11.8-4.91h8.18v-8.47c0-4.58 1.88-8.76 4.91-11.78v-.02c3.02-3.03 7.2-4.91 11.8-4.91h9.46V304.1H24.82c-3.05 0-5.54-2.48-5.54-5.54v-7.11c0-7.35 3.02-14.04 7.87-18.9l.02-.02c4.87-4.86 11.56-7.87 18.9-7.87h2.76V253c0-7.35 3.02-14.04 7.87-18.9l.02-.02c4.87-4.86 11.56-7.87 18.9-7.87H361.6c7.37 0 14.06 3.03 18.91 7.88 4.86 4.86 7.88 11.57 7.88 18.91v11.66h2.76c7.37 0 14.07 3.02 18.92 7.87 4.85 4.86 7.87 11.57 7.87 18.92v7.11c0 3.06-2.48 5.54-5.53 5.54h-26.24zM193.33 427.81c-5.3-4.72-9.5-8.13-10.39-17.93l-.57.01c-1.31-.02-2.58-.32-3.77-1-1.9-1.08-3.24-2.93-4.14-5.03-1.91-4.39-3.43-15.94 1.39-19.24l-.91-.6-.1-1.28c-.18-2.32-.23-5.14-.28-8.09-.17-10.86-.39-22.6-9.13-25.24l-3.74-1.13 2.47-3.06c7.05-8.72 14.43-16.34 21.86-22.2 8.41-6.62 16.96-11.03 25.33-12.3 8.6-1.31 16.93.67 24.63 6.89 2.27 1.84 4.48 4.04 6.6 6.63 8.22.79 14.93 5.22 19.72 11.53 2.86 3.76 5.03 8.22 6.42 12.96 1.38 4.72 1.98 9.74 1.72 14.68-.46 8.86-3.7 16.08-10.23 22.39 1.15.04 2.23.3 3.19.81 3.64 1.95 3.76 6.18 2.8 9.73-.95 2.97-2.15 6.41-3.28 9.3-1.38 3.9-3.39 4.63-7.28 4.21-.2 9.64-4.66 12.29-10.66 17.96.25 14.53-51.97 12.82-51.65 0zm-2.7 11.97 15.53 40.8 7.82-22.24-3.83-4.19c-2.88-4.2-1.89-8.98 3.44-9.84 1.8-.29 3.83-.11 5.78-.11 2.08 0 4.39-.19 6.35.24 4.95 1.09 5.47 5.89 3 9.71l-3.83 4.19 7.81 22.24 14.05-40.8c33.35 30.01 79.92 5.28 79.92 65.21H110.56c0-57.49 45.47-34.07 80.07-65.21zM361.6 237.29H75.62c-4.33 0-8.26 1.76-11.09 4.6l-.02.02a15.62 15.62 0 0 0-4.6 11.09v11.07h317.41V253c0-4.29-1.78-8.23-4.64-11.09-2.85-2.84-6.77-4.62-11.08-4.62zm-30.59 86.7h22.08v20.76h-22.08v-20.76zm0 42.96h22.08v20.76h-22.08v-20.76zm0 42.96h22.08v20.76h-22.08v-20.76zM84.14 323.99h22.08v20.76H84.14v-20.76zm0 42.96h22.08v20.76H84.14v-20.76zm0 42.96h22.08v20.76H84.14v-20.76zm72.79-223.5a5.541 5.541 0 0 1-7.59 1.88 5.524 5.524 0 0 1-1.88-7.59c4.91-8.14 10.91-15.08 17.86-20.72 6.99-5.68 14.92-10.02 23.67-12.96 2.89-.97 6.01.59 6.98 3.48.97 2.89-.59 6.02-3.48 6.98-7.48 2.52-14.25 6.23-20.2 11.06-5.94 4.81-11.09 10.8-15.36 17.87zm69.23-167.84c48.79-33.74 52.44 33.03 100.37-8.66v68.03c-45.71 41.11-55.57-25.3-100.37 8.44V18.57zM214.1 0c5.14 0 9.31 4.17 9.31 9.31 0 3.42-1.83 6.4-4.57 8.02h.44v84.34c31.91.16 61.14 11.68 83.85 30.73 23.24 19.49 40.01 48.2 45.47 79.9h-11.25c-5.01-28.51-20.04-53.58-41.31-71.42-20.94-17.56-47.95-28.14-77.42-28.14-29.48 0-56.49 10.58-77.43 28.13-21.27 17.85-35.77 40.93-40.78 69.44H88.98c5.47-31.05 21.88-58.43 45.12-77.91 20.55-17.24 46.45-28.31 74.83-30.38V17.33h.44a9.301 9.301 0 0 1-4.58-8.02c0-5.14 4.17-9.31 9.31-9.31z"/></svg>