<svg xmlns="http://www.w3.org/2000/svg" shape-rendering="geometricPrecision" text-rendering="geometricPrecision" image-rendering="optimizeQuality" fill-rule="evenodd" clip-rule="evenodd" viewBox="0 0 512 443.9"><path d="m262.29 370.76 6.9 43.69 36.75-88.83-48.68 14.14 18.01 18.02-12.98 12.98zM512 281.37l-.27 162.53H387.28c-2.98 0-5.69-1.22-7.65-3.18a10.803 10.803 0 0 1-3.18-7.65V268.61h.07c.29-2.66 1.51-5.07 3.32-6.89 2.1-2.1 4.98-3.39 8.13-3.39H512v8.44H387.97c-4.04 0-4.05 6.15 0 6.15H512v8.45zm-92.6 138.59c-2.39 0-4.34-1.94-4.34-4.34a4.34 4.34 0 0 1 4.34-4.33h49.27a4.334 4.334 0 1 1 0 8.67H419.4zm-14.39-18.53a4.334 4.334 0 1 1 0-8.67h78.06a4.34 4.34 0 0 1 4.33 4.34c0 2.39-1.94 4.33-4.33 4.33h-78.06zm71.29-44.99.89-1.68c1.89-4.05 3-7.29 3.56-11.76.09-.77.16-1.52.2-2.28h-10.12c-.27 5.57-1.99 10.84-4.65 15.72h10.12zm-3.05 4.64h-9.94c-3.45 4.96-7.75 9.37-12.3 13.33l.83-.15c1.18-.24 2.35-.54 3.5-.89 6.48-1.99 12.43-5.93 16.87-11.03l1.04-1.26zm-35.34 13.32c-4.56-3.96-8.83-8.35-12.29-13.32h-9.92l1.04 1.26a37.115 37.115 0 0 0 16.91 11.04c1.14.36 2.3.65 3.46.88l.8.14zm-25.3-17.94h10.12c-1.39-2.54-2.48-5.11-3.25-7.68a33.03 33.03 0 0 1-1.41-8.04h-10.11l.2 2.29c.61 5.08 2.08 8.97 4.45 13.43zm-4.66-20.34h10.21c.49-5.58 2.41-10.86 5.13-15.72h-10.68l-.91 1.72c-2.2 4.77-3.45 8.72-3.75 14zm7.71-20.34h10.57c1.66-2.38 3.6-4.77 5.79-7.18 1.89-2.07 3.98-4.16 6.26-6.24l-1.19.22c-1.19.24-2.36.54-3.5.89a36.977 36.977 0 0 0-16.88 11.03l-1.05 1.28zm35-13.39c4.42 4.03 8.6 8.47 12.02 13.39h10.54l-1.03-1.25c-.57-.66-1.19-1.32-1.84-1.97-4.17-4.17-9.45-7.33-15.07-9.08-1.14-.35-2.29-.65-3.47-.88l-1.15-.21zm25.64 18.01h-10.69c2.73 4.87 4.63 10.14 5.13 15.72h10.21c-.58-6.3-1.69-10.13-4.65-15.72zm-40.13-22.34c5.4-1.1 11.16-1.08 16.56 0 10.35 2.04 20.03 8.51 25.87 17.29.74 1.11 1.43 2.25 2.06 3.41l.01.03c3.32 6.13 4.97 12.67 4.97 19.64 0 1.4-.07 2.8-.2 4.19-.55 5.53-2.16 10.66-4.79 15.49-.62 1.15-1.32 2.29-2.05 3.39-5.89 8.9-15.43 15.18-25.87 17.3-6.66 1.37-13.96 1.02-20.45-.98-8.85-2.74-16.84-8.59-21.97-16.31a43.57 43.57 0 0 1-2.07-3.41c-2.61-4.85-4.24-9.97-4.77-15.47-.14-1.39-.21-2.8-.21-4.2 0-6.99 1.64-13.52 5-19.68.63-1.16 1.32-2.29 2.04-3.39.73-1.09 1.51-2.14 2.33-3.14 5.04-6.15 12.02-10.81 19.6-13.15 1.29-.4 2.61-.74 3.94-1.01zm10.59 7.02v10.7h10.21a72.072 72.072 0 0 0-4.59-5.28c-1.7-1.79-3.58-3.6-5.62-5.42zm0 15.32v15.72h19.36c-.59-5.68-2.84-10.94-5.88-15.72h-13.48zm0 20.34v15.72h14.09c3-4.78 5.04-10.04 5.37-15.72h-19.46zm0 20.34v10.89c2.16-1.81 4.16-3.65 5.98-5.49 1.78-1.8 3.39-3.6 4.83-5.4h-10.81zm-4.62 10.89v-10.89h-10.81c1.43 1.8 3.04 3.61 4.82 5.4 1.8 1.83 3.81 3.67 5.99 5.49zm0-15.51v-15.72h-19.45c.15 2.58.66 5.16 1.52 7.72.9 2.67 2.19 5.35 3.84 8h14.09zm0-20.34V320.4h-13.47c-3.05 4.78-5.3 10.05-5.88 15.72h19.35zm0-20.34v-10.69a94.57 94.57 0 0 0-5.62 5.41 69.552 69.552 0 0 0-4.58 5.28h10.2zm-57.24-34.84v152.13c0 .66.27 1.25.7 1.68.43.44 1.03.71 1.68.71h116V281.37H387.97c-1.06 0-2.09-.15-3.07-.43zM231.18 411.99l6.97-40.75-13.42-13.46 17.13-17.17-46.43-14.39 35.75 85.77zm-84.23-266.16c15.19-8.99 42.6-14.92 73.1-17.21 6.53 11.36 16.17 18.86 28.18 23.25 12.21-4.59 21.84-12.25 28.33-23.25 28.42 2.18 54.73 7.73 71.78 17.21h2.54c3.83 0 2.58 20.03 3.06 25.31 3.51.96 6.05 3.3 7.78 6.44 5.4 9.76 1.77 26.85-2.06 36.56l-.04.12c-2.25 5.76-5.27 11.01-8.78 14.87-2.94 3.15-6.25 5.4-9.84 6.29-.68 2.22-1.45 4.51-2.01 6.77-3.99 13.46-7.13 24.06-15.44 34.58-1.81 2.3-3.74 4.52-5.8 6.61-1.41 1.49-2.86 2.9-4.35 4.23.36 3.87.12 19.59.12 24.63 1.97-.97 4.31-1.17 6.53-.28 10.33 4.17 20.46 7.95 30.3 11.49V440.2H0c3.67-94.67 85.93-91.61 175.56-126.07 1.73-.64 5.04-2.29 6.81-2.58v-23.82c0-.88.24-1.73.61-2.46-.85-.76-1.66-1.57-2.42-2.33-13.91-14.31-18.1-27.04-24.26-45.26l-1.41-4.16c-7.89-1.03-13.42-8.28-16.77-14.91-5.4-10.64-12.29-38.08.97-46.39 1.05-.68 2.21-1.16 3.5-1.49.81-7.98-2.33-25.15 4.36-24.9zM302.6 296.28c-10.6 6.65-21.04 11.48-33.46 14.31-23.33 5.44-45.05.48-65.89-10.32-3.31-1.74-6.61-3.63-9.96-5.76v19.78l54.7 16.93 54.61-15.84v-19.1zM142.15 130.43v-21.4l-17.29-13.26c-24.79-27.49-19.79-26.68 6.49-34.06 38.37-10.8 64.4-34.13 87.01-49.04 25.64-16.89 33.57-16.89 59.21 0 22.57 14.91 48.64 38.24 86.97 49.04 26.28 7.38 31.28 6.57 6.53 34.06l-17.29 13.26v21.4c-23.45-8.87-47.03-14.75-70.61-17.69 2.46-9.19 3.51-13.91 2.9-26.2-11 1.01-23.82-3.22-37.96-12.21-12.25 9.51-24.91 12.29-37.81 11.65-.36 12.61.81 17.45 3.27 26.64-23.86 2.9-47.72 8.82-71.42 17.81zm24.7 36.35-3.3 19.51c-.32 1.94-2.62 2.94-4.15 1.85-3.43-2.19-11.5-9.32-14.27-4.87-4.03 6.53.77 23.45 3.91 29.82 6.19 12.22 7.92 5.86 13.02 8.59 3.02 1.65 3.71 5.72 4.76 8.74l1.24 3.71c6.86 20.56 11.9 34.07 30.11 47.96 11.04 8.39 23.46 14.11 37.08 16.69 9.99 1.85 20.23 1.85 30.23-.16a83.237 83.237 0 0 0 35.38-16.45c4.8-3.79 9.19-8.1 13.06-13.01 3.39-4.24 5.81-8.75 7.78-13.71 2.06-5.08 3.71-10.56 5.52-16.72 1.05-3.55 2.1-7.1 3.22-10.65 1.74-6.73 6.98-2.21 11.53-7.21 2.3-2.62 4.48-6.65 6.25-11.16 1.45-3.75 7.74-26.12.8-28.42-1.67-.73-12.34 6.15-16.32 7.34-3.42.96-3.54-2.7-3.71-4.88l-1.65-18.42c-48.64 21.16-118.41 20.56-160.49 1.45z"/></svg>