<svg id="Layer_1" data-name="Layer 1" xmlns="http://www.w3.org/2000/svg" viewBox="0 0 122.88 122.8"><defs><style>.cls-1{fill-rule:evenodd;}</style></defs><title>lawyer</title><path class="cls-1" d="M83.12,81.79c7.76,4.11,21.17,4,27.79,7.67a19.79,19.79,0,0,1,6.26,5.29c4,5.23,4.81,21.12,5.71,28.05h-37a11.39,11.39,0,0,0-.47-1.8l-4.91-14.35a7.75,7.75,0,0,0,4-1.85c2.57-2.18,3.4-5.16,2.54-8.92l0-.22L84.19,85l-.06-.24a14.72,14.72,0,0,0-1-2.94ZM90.2,39.22a4.37,4.37,0,0,1,3.18,3.28c.48,1.89,0,4.55-1.65,8.18h0a1.86,1.86,0,0,0-.1.2L84.77,62.14c-2.65,4.34-5.34,8.68-8.92,12A20.32,20.32,0,0,1,61.3,79.92,19.8,19.8,0,0,1,47.46,74.4c-3.49-3.17-6.15-7.27-8.69-11.28l-6-9.53c-2.2-3.27-3.34-6.26-3.42-8.71a7,7,0,0,1,.59-3.12A5.68,5.68,0,0,1,32,39.37a6.89,6.89,0,0,1,1.46-.74,152.05,152.05,0,0,1-.29-17.14,23.36,23.36,0,0,1,.74-3.89A22.91,22.91,0,0,1,44.08,4.69,28.06,28.06,0,0,1,49.56,2C61.13-2.16,76.47.12,84.68,9c3.34,3.6,5.44,8.38,5.9,14.7L90.2,39.22Zm-52,3.48a5.79,5.79,0,0,0-2.88.73,2.28,2.28,0,0,0-.82.93,3.25,3.25,0,0,0-.28,1.49c.05,1.69,1,3.89,2.72,6.42l0,0h0l5.72,8.82c2.29,3.54,4.7,7.14,7.68,9.79a15.93,15.93,0,0,0,11,4.28,16.37,16.37,0,0,0,11.59-4.47c3.08-2.8,5.52-6.63,7.92-10.46L87.25,50c1.19-2.66,1.63-4.43,1.36-5.48-.17-.62-.87-.92-2.07-1h-.79l-.9,0a2,2,0,0,1-.49,0,8.85,8.85,0,0,1-1.77-.1L84.8,36C73,35.82,65,33.83,55.43,27.93c-8-4.94-13.51-5.56-16.54,5.67l1.25,9.17a9.75,9.75,0,0,1-2-.07ZM42.7,97.15l2.83-10.79c.62-2.35,1.69-3.62,3.52-3.07l11.16,5.2c1.44.67,1,.62,2.49-.07L73,83.55c2.21-1.13,3.61-.1,4.31,2.81l2.93,11.1c.45,2-.28,2.62-2.28,1.89l-6.4-3.13c-1.32-.63-2,0-1.47,1.7l8.47,24.75H66.64a5.5,5.5,0,0,1-.16-.58l-5-22.44-5.15,22.51c0,.17-.09.34-.14.51H44.07l8.78-25c.48-1.69-.26-2-1.5-1.42L44.7,99.31c-1.88,1-2.43.13-2-2.16ZM36.8,122.8H0c.9-6.93,1.76-22.82,5.71-28A19.53,19.53,0,0,1,12,89.46c7.33-4.09,19.91-3.4,27.71-7.59a14.58,14.58,0,0,0-1,2.7h0L36,95.09c-.07.24-.14.5-.19.76-.61,3.27-.13,6,1.66,8.15a7.63,7.63,0,0,0,4.72,2.89L37.21,121a5.56,5.56,0,0,0-.25.91c-.07.32-.12.63-.16.94Z"/></svg>