<svg id="Layer_1" data-name="Layer 1" xmlns="http://www.w3.org/2000/svg" viewBox="0 0 107.09 122.88"><defs><style>.cls-1{fill-rule:evenodd;}</style></defs><title>magistrate-court-judge</title><path class="cls-1" d="M36.05,83.17c-3.64-2.09-21.4,2.74-25.43,5.76-8.42,6.32-8,17.92-10.55,33.84l-.07.11H107.09l-.06-.11c-2.73-16.93-2.07-29-12.38-35-3.61-2.1-24.6-6.46-27.73-4.56-10.07,6.11-20.73,5.83-30.87,0Zm41.4-51.38A33,33,0,0,1,79,39.54a19.64,19.64,0,0,0-1.81,6.77,17.93,17.93,0,0,0,.67,6.09c.06.22.13.44.19.65-.08.42-.17.82-.26,1.23a20.07,20.07,0,0,0-5.14,7.5A19.74,19.74,0,0,0,71.24,70c-9.93,13.92-26.63,12.72-36.08,2.38a19.76,19.76,0,0,0,.43-4.65q0-1-.06-1.59A17.19,17.19,0,0,0,33.42,59,13.72,13.72,0,0,0,29,54.21a13.93,13.93,0,0,0,1.28-4.34,9.67,9.67,0,0,0-.74-5c-.15-.36-.3-.69-.44-1,.19-1.22.38-2.42.59-3.6l.76-.75c.1-.1.2-.2.29-.31A20,20,0,0,0,33,36.49a14.43,14.43,0,0,0,2-4c.07-.2.12-.39.17-.57a17.58,17.58,0,0,0,10.63-.72,28.37,28.37,0,0,0,7.66-4.73,19.67,19.67,0,0,0,4.66,3.36,20,20,0,0,0,6.49,2,24.54,24.54,0,0,0,8.45-.51c1.63-.31,3-.57,4.33.51ZM96.68,66.2a37.85,37.85,0,0,0-1.56-7.26c9.52-8.85,7.69-16.68-.84-23.92,5-12.09.06-18.28-12.8-19.72C76.53.91,67.56-3,55.15,2.15c-3.19,1.31-1.87,1.41-5,.05-10.39-4.48-18.29-1.85-23.65,8-3.1,5.68-.65,3.65-6.77,5.79C9.66,19.49,7.14,25.91,12.66,35.44,4.94,42.37,2.09,49.9,11.61,58.94c-4.34,15.56,2,19.55,8.11,19.44C27.45,78.24,31,74.09,30.4,66.51c-.27-3.4-1.73-6.61-4.7-8.28-5.17-2.92-4.33.3-1.33-6.35a6.09,6.09,0,0,0,.42-5c-3.2-7.38-4.68-4.57,2.05-11.08a11.82,11.82,0,0,0,3.33-4.93c1-3-.34-6,4.9-4.36,7,2.2,11.5-1,15.87-4.61,2.88-2.37,2.39-3.13,5.57.26a14.33,14.33,0,0,0,8.83,4.53c7.43,1,11.64-4.27,17.08,2.93,6.1,8,.31,10.5-.14,17-.2,2.8.63,5.79,2.58,9.16C77.8,58.55,74.58,68,77.32,73.45c2,4,7.32,5.27,11.82,4.32,6.33-1.34,8.12-5.57,7.54-11.57ZM60.55,90.44a21.31,21.31,0,0,1-13.81,0l-6.86,27H67.21l-6.66-27Z"/></svg>