<svg id="Layer_1" data-name="Layer 1" xmlns="http://www.w3.org/2000/svg" viewBox="0 0 94.45 122.88"><defs><style>.cls-1{fill-rule:evenodd;}</style></defs><title>notary</title><path class="cls-1" d="M67.85,55.18a2.66,2.66,0,0,1,1.64.51c.63.41,1.35,1.21,2.25,1.72,1.25.71,3.57-.27,4.76,1.49a4.63,4.63,0,0,1,.77,2.63,4.65,4.65,0,0,0,1.09,2.81c1.45,1.93,1.75,3.21,1,4.55-.52.91-1.59,1.42-1.84,2-.53,1.23,0,2.15-.67,3.58a3.82,3.82,0,0,1-2.31,2c-.87.28-1.76-.13-2.46.17-1.23.52-2.13,1.71-3.11,2a3.7,3.7,0,0,1-1.13.18,3.66,3.66,0,0,1-1.13-.18c-1-.3-1.89-1.5-3.11-2-.7-.29-1.58.11-2.46-.17a3.79,3.79,0,0,1-2.31-2c-.73-1.43-.14-2.35-.67-3.58-.25-.58-1.33-1.09-1.84-2-.76-1.34-.46-2.62,1-4.55a4.67,4.67,0,0,0,1.09-2.81,4.61,4.61,0,0,1,.77-2.63c1.19-1.76,3.51-.77,4.76-1.49.89-.51,1.62-1.32,2.25-1.72a2.77,2.77,0,0,1,1.64-.51Zm-2.42,63.47v2a2.22,2.22,0,0,1-2.21,2.21H38.74a2.21,2.21,0,0,1-2.21-2.21v-2h-.27a3.19,3.19,0,0,1-2.26-.94l-.07-.07a3.22,3.22,0,0,1-.88-2.2V112a3.24,3.24,0,0,1,1-2.27,3.19,3.19,0,0,1,2.26-.94h8.66c-.29-3.53-.6-7.08-.83-10.61-.15-2.09-.28-4,1-6.08a5.5,5.5,0,0,1,.78-1l.07-.06a7.57,7.57,0,0,1,4.71-1.9,8.61,8.61,0,0,1,5,1.12,6.63,6.63,0,0,1,1.1.86c2.12,2.15,1.91,4.5,1.69,7-.29,3.55-.71,7.13-1.09,10.69h8.47a3.19,3.19,0,0,1,2.26.94h0a3.19,3.19,0,0,1,.94,2.26v3.41a3.23,3.23,0,0,1-3.21,3.21Zm-14-9.83h3.75c.38-3.62.8-7.26,1.11-10.88.18-2,.35-3.81-1.07-5.25a4,4,0,0,0-.68-.54,6.56,6.56,0,0,0-3.75-.8,5.39,5.39,0,0,0-3.34,1.3l-.05,0a3.56,3.56,0,0,0-.47.57c-.9,1.47-.79,3.06-.68,4.79.24,3.58.56,7.16.84,10.73l4.34,0ZM56.11,111l-3.5,0H36.26a1,1,0,0,0-.72.3,1,1,0,0,0-.3.72v3.41a1,1,0,0,0,.26.68l0,0a1,1,0,0,0,.72.3h29.6a1,1,0,0,0,1-1V112a1,1,0,0,0-1-1H56.41a1,1,0,0,1-.3,0Zm-41.94-6c-3.78.26-7.31.13-9.54-.94C1.72,102.64,0,99.82,0,94.91V90.38H12.91V11.45c-.19-4.54.92-7.37,2.94-9.12S20.62.07,23.85,0c.15-.08,64,0,70.6,0V94.18c0,3.81-1,6.51-2.88,8.31s-4.67,2.56-8.36,2.56H71.49v-3.64H83.21c2.75,0,4.7-.48,5.88-1.58s1.72-2.91,1.72-5.65V3.67H23.86c-2.42,0-4.4.34-5.63,1.4s-1.83,3-1.69,6.3v90H30.63v3.64ZM12.91,94H3.64v.88c0,3.31,1,5.12,2.64,6s3.91.92,6.63.66V94ZM27.53,58.6a1.75,1.75,0,0,1,0-3.5H45.47a1.75,1.75,0,0,1,0,3.5Zm0-12.54a1.76,1.76,0,0,1,0-3.51h52a1.76,1.76,0,0,1,0,3.51Zm0-12.56a1.73,1.73,0,1,1,0-3.46H79.8a1.73,1.73,0,1,1,0,3.46Zm0-12.52a1.76,1.76,0,1,1,0-3.51H62.89a1.76,1.76,0,0,1,0,3.51Zm-.85,51.8c4.41-5.79,8.19-3.16,13.46.53l.81.56c1.56,1.08,3.3-.46,4.95-1.93a21.12,21.12,0,0,1,2.36-1.88l1.51,2.36a18.55,18.55,0,0,0-2,1.62c-2.46,2.18-5,4.46-8.41,2.13l-.81-.56c-4-2.79-6.84-4.79-9.63-1.13l-2.23-1.7ZM67.85,59.92A7.08,7.08,0,1,1,60.77,67a7.06,7.06,0,0,1,7.08-7.07Z"/></svg>