<svg xmlns="http://www.w3.org/2000/svg" shape-rendering="geometricPrecision" text-rendering="geometricPrecision" image-rendering="optimizeQuality" fill-rule="evenodd" clip-rule="evenodd" viewBox="0 0 512 396.12"><path d="M19.69 136.55c43.06-20.68 81.51-38.79 115.64-63.51 48.58-35.17 66.09-82.16 136.55-71.5 37.51 5.67 71.07 49.77 100.71 74.69 33.43 28.11 69.98 47.61 106.4 61.04 44.39 14.36 37.82 27.71 16.33 65.85-5.53 9.83-11.88 18.47-18.91 26.11l2.64 70.05c-111.73 127.03-333.97 130.57-446.1 1.8l2.63-74.57c-11.46-14.53-21.12-32.23-28.53-49.09-11.69-26.6-9.74-30.12 12.64-40.87zm238.44-5.78 11.35 26.58 28.79 2.58a2.31 2.31 0 0 1 2.1 2.5c-.04.59-.33 1.15-.78 1.54h.01l-21.78 19.01 6.44 28.2c.28 1.24-.5 2.48-1.74 2.77-.64.14-1.27.01-1.78-.32L256 198.84l-24.82 14.83c-1.09.66-2.51.3-3.17-.79-.21-.36-.32-.77-.32-1.19 0-.17.02-.35.06-.51v-.01l6.44-28.19-21.79-19.01a2.31 2.31 0 0 1 1.4-4.04l28.72-2.58 11.35-26.59c.5-1.18 1.86-1.72 3.04-1.23.55.24.99.68 1.22 1.24zm-2.4-32.96c29.29 18.56 55.74 27.35 78.45 25.27 3.96 80.21-25.66 127.58-78.15 147.34-50.69-18.5-80.67-63.83-78.45-148.56 26.66 1.4 52.81-4.36 78.15-24.05z"/></svg>