<svg id="Layer_1" data-name="Layer 1" xmlns="http://www.w3.org/2000/svg" viewBox="0 0 122.08 122.88"><defs><style>.cls-1{fill-rule:evenodd;}</style></defs><title>rapier-sword</title><path class="cls-1" d="M78.26,44.48C71,37.17,70,26.15,75.86,19.24l9.27,9.28,19.58-16.4-.1-2.84L92,9.33a8.25,8.25,0,0,0-3.65,2.38A10.16,10.16,0,0,0,86.24,16a3.07,3.07,0,1,1-6-1.47,16.12,16.12,0,0,1,3.38-6.81A14.2,14.2,0,0,1,90,3.52c3.89-1.34,10.24-.79,15.2-.35,1.08.09,2.09.18,3.11.25h.08a8.36,8.36,0,0,1,1-1.24,7.46,7.46,0,1,1,3.87,12.61L93.56,37l9.94,9.93c-6.91,5.86-17.93,4.91-25.24-2.4Zm2.12,9.11L.31,122.88,0,122.57,69.15,42.36A31.84,31.84,0,0,0,80.38,53.59Z"/></svg>