<svg id="Layer_1" data-name="Layer 1" xmlns="http://www.w3.org/2000/svg" viewBox="0 0 102.49 122.88"><defs><style>.cls-1{fill-rule:evenodd;}</style></defs><title>regulation</title><path class="cls-1" d="M51.36,21.32V52.85H67.21a.3.3,0,0,1,.31.3v3.43a.3.3,0,0,1-.31.3H32.34a.3.3,0,0,1-.31-.3V53.15a.3.3,0,0,1,.31-.3H48.19V21.34a4.84,4.84,0,0,1-3-2.95h-10v1.52a.3.3,0,0,1-.3.3H32.34a.3.3,0,0,1-.31-.3V18.39H29.48a.33.33,0,0,1-.35-.31V15.51a.33.33,0,0,1,.35-.31H45.24a4.79,4.79,0,0,1,9,0H70.07a.32.32,0,0,1,.35.3v2.57a.33.33,0,0,1-.35.31H67.2v1.52a.3.3,0,0,1-.31.3H64.32a.3.3,0,0,1-.31-.3V18.39H54.28a4.84,4.84,0,0,1-2.92,2.93ZM28.43,71.24a1.83,1.83,0,0,1,2.6,0,1.88,1.88,0,0,1,0,2.64l-3.16,3.2,3.16,3.19a1.86,1.86,0,0,1,0,2.62,1.81,1.81,0,0,1-2.59,0L25.3,79.71l-3.15,3.18a1.82,1.82,0,0,1-2.6,0,1.87,1.87,0,0,1,0-2.64l3.15-3.19-3.15-3.2a1.85,1.85,0,0,1,2.61-2.62l3.14,3.18,3.14-3.19ZM6,5.38A.65.65,0,0,0,5.34,6V116.86a.63.63,0,0,0,.62.62H96.52a.63.63,0,0,0,.62-.62V6a.64.64,0,0,0-.62-.62c-29.41,0-61.11,0-90.56,0Zm0,117.5a6,6,0,0,1-6-6V6A6,6,0,0,1,6,0H96.48a6,6,0,0,1,6,6V116.87a6,6,0,0,1-6,6Zm75.61-19.12a2.72,2.72,0,0,0,0-5.43H45.48a2.72,2.72,0,0,0,0,5.43H81.62Zm0-24.05a2.72,2.72,0,1,0,0-5.43H45.48a2.72,2.72,0,0,0,0,5.43Zm-62,21.2a2.41,2.41,0,1,1,4-2.68L25,100.17l5.2-6.34a2.41,2.41,0,0,1,3.72,3.06l-7.2,8.76a2.76,2.76,0,0,1-.58.55,2.42,2.42,0,0,1-3.35-.66l-3.12-4.63Zm46.86-79L76.7,40a1,1,0,0,1,.13.49h0v.06c0,4.29-5,7.77-11.27,7.77s-11.17-3.4-11.27-7.63a.85.85,0,0,1,0-.23,1,1,0,0,1,.16-.53l10.43-18a.94.94,0,0,1,1.29-.35.92.92,0,0,1,.37.39Zm0,3.92V39.47h7.7l-7.7-13.61ZM64.73,39.47V25.88L56.86,39.47ZM34.43,21.94,44.62,40a.85.85,0,0,1,.12.49h0v.06c0,4.29-5,7.77-11.27,7.77s-11.17-3.4-11.28-7.63a1.5,1.5,0,0,1,0-.22,1,1,0,0,1,.16-.54l10.43-18a1,1,0,0,1,1.29-.35,1,1,0,0,1,.37.39Zm0,3.92V39.47h7.7l-7.7-13.61ZM32.65,39.47V25.88L24.78,39.47Zm17.1-24.75a2.09,2.09,0,1,1-2.08,2.09,2.08,2.08,0,0,1,2.08-2.09Z"/></svg>