<svg id="Layer_1" data-name="Layer 1" xmlns="http://www.w3.org/2000/svg" viewBox="0 0 107.87 122.88"><defs><style>.cls-1{fill:#2b2a29;}.cls-1,.cls-2{fill-rule:evenodd;}.cls-2{fill:#10a64a;}</style></defs><title>secure-profile</title><path class="cls-1" d="M53.75,0C73.86,12.75,92,18.78,107.63,17.35c1.18,23.9-2,43.55-8.89,59.25a28.9,28.9,0,0,0-6.38-3.81c5.5-13.1,8-29.35,7-49C86.19,25,70.8,19.89,53.78,9.09,39,20.54,23.84,23.89,8.34,23.08,7.65,49.25,12.25,69,21.14,83.3c6.57-5.49,17.76-4.67,23-12a2.48,2.48,0,0,0,.56-1.11c0-.13-5.75-7.18-6.27-8-1.35-2.15-3.89-5.08-3.89-7.6A4.07,4.07,0,0,1,37.32,51c-.12-2.14-.2-4.3-.2-6.44,0-1.27,0-2.55.07-3.81a9.07,9.07,0,0,1,.42-1.91,13.57,13.57,0,0,1,6-7.68,16.75,16.75,0,0,1,3.28-1.57c2.08-.76,1.07-4,3.35-4.08,5.32-.14,14.08,4.51,17.49,8.21A12.45,12.45,0,0,1,71.27,42l-.22,9.32a3,3,0,0,1,2.23,1.92c.73,2.94-2.32,6.6-3.74,8.94-1.31,2.16-6.31,8.06-6.31,8.1,0,.26.1.57.45,1.09a13.51,13.51,0,0,0,2.87,2.88,28.86,28.86,0,0,0-5.76,4.35l-.32.29a28.84,28.84,0,0,0-2.45,38c-1.33.58-2.68,1.13-4.06,1.65C19.14,105.84-1.45,74.71.08,16.52c18.31,1,36.27-3,53.67-16.52Z"/><path class="cls-2" d="M80.88,75.69a23.6,23.6,0,1,1-23.59,23.6,23.61,23.61,0,0,1,23.59-23.6ZM74.14,95.87l3.57,3.34L87,89.74c.82-.83,1.34-1.5,2.35-.46l3.27,3.36c1.08,1.06,1,1.69,0,2.68L79.58,108.19c-2.14,2.1-1.77,2.23-3.94.07l-7-7a1,1,0,0,1,.09-1.47l3.81-3.94c.57-.61,1-.56,1.62,0Z"/></svg>