<svg id="Layer_1" data-name="Layer 1" xmlns="http://www.w3.org/2000/svg" viewBox="0 0 122.88 105.01"><defs><style>.cls-1{fill-rule:evenodd;}</style></defs><title>secure-account</title><path class="cls-1" d="M100.86,56.77c8.18,5.19,15.58,7.64,21.92,7.06,1.11,22.42-7.17,35.66-21.84,41.18C86.78,99.84,78.4,87.17,79,63.49a31.35,31.35,0,0,0,21.84-6.72Zm.24,7.81c5.53,3.51,10.53,5.17,14.82,4.78.75,15.15-4.85,24.11-14.77,27.84l-.18-.07V64.68l.13-.1Zm-.23-4.86c7.18,4.55,13.67,6.71,19.24,6.2,1,19.67-6.29,31.29-19.17,36.14C88.51,97.52,81.15,86.4,81.7,65.62a27.52,27.52,0,0,0,19.17-5.9Zm-66.58-9c-1.86-3-5.36-7-5.36-10.47a5.61,5.61,0,0,1,3.77-5.1c-.18-2.94-.3-5.92-.3-8.87,0-1.75,0-3.52.1-5.25a12.37,12.37,0,0,1,.59-2.63A18.65,18.65,0,0,1,41.43,7.79,23.45,23.45,0,0,1,46,5.63c2.86-1,1.48-5.56,4.61-5.63C57.9-.19,70,6.22,74.67,11.32a17.11,17.11,0,0,1,4.8,11.46l-.3,12.84a4.24,4.24,0,0,1,3.09,2.64c1,4.06-3.21,9.1-5.16,12.33-1.81,3-8.7,11.1-8.71,11.16a2.62,2.62,0,0,0,.62,1.5,17.14,17.14,0,0,0,3.45,3.51c.68,13.37,3.91,23.6,9.25,31.18H0C0,68.66,31.47,78,42.16,63.25c.53-.77.77-1.19.76-1.53,0-.19-7.92-9.89-8.63-11Z"/></svg>