<svg id="Layer_1" data-name="Layer 1" xmlns="http://www.w3.org/2000/svg" viewBox="0 0 111.04 122.88"><defs><style>.cls-1{fill-rule:evenodd;}</style></defs><title>security-guard</title><path class="cls-1" d="M103.75,108.74,75.59,97.17l.28-11,27.88,11.25v11.29ZM58.64,95.81l1.76,11.12,9.35-22.6-12.38,3.6L62,92.51l-3.31,3.3Zm-7.9,10.49,1.77-10.37-3.42-3.42,4.36-4.36L41.64,84.49l9.1,21.81ZM28,39.55l.19-.15v0a.69.69,0,0,1,.62-.76h.55c3.85-2.29,10.83-3.79,18.58-4.37a13.26,13.26,0,0,0,7.17,5.91,13.74,13.74,0,0,0,7.21-5.91c7.22.55,13.91,2,18.25,4.37h.64a.69.69,0,0,1,.7.69.22.22,0,0,1,0,.09v0l.18.12-.2.16L81.67,42,82,45.05a2.91,2.91,0,0,1,.91.42,3.46,3.46,0,0,1,1.08,1.22,5.65,5.65,0,0,1,.6,2,11.21,11.21,0,0,1,0,2.47v.06a17.53,17.53,0,0,1-.4,2.39A18.94,18.94,0,0,1,83.41,56v0a12.28,12.28,0,0,1-2.24,3.77,5,5,0,0,1-2.5,1.6l-.2.66c-.1.34-.23.73-.31,1.07-1,3.42-1.82,6.11-3.92,8.79-.47.58-1,1.15-1.48,1.69-.36.37-.73.72-1.11,1.07a1.36,1.36,0,0,1,0,.29v6a2,2,0,0,1,1.66-.08l33,13.33a2,2,0,0,1,1.39,1.91v12.45a20.75,20.75,0,0,1,2.36,6.72c.68,3.48.92,2.37.92,5.6a2,2,0,0,1-2,2H2.06a2,2,0,0,1-2-1.89c-.17-3.13,0-1.86.67-5.18A19.48,19.48,0,0,1,3.28,109V96.08h0a2,2,0,0,1,1.26-1.86L37.86,80.91l.1,0a2.29,2.29,0,0,1,.37-.12v-6a1.38,1.38,0,0,1,.14-.62l-.61-.6q-.61-.63-1.17-1.26l0,0a19.36,19.36,0,0,1-2.94-4.73C33,65.79,32.37,64,31.69,62l-.35-1.06a4.16,4.16,0,0,1-2.17-1,8.64,8.64,0,0,1-2.1-2.79,15.81,15.81,0,0,1-1-2.63,18.6,18.6,0,0,1-.58-2.86,11.47,11.47,0,0,1,0-2.87,5.68,5.68,0,0,1,.73-2.26l0,0a3.68,3.68,0,0,1,1.09-1.13,2.76,2.76,0,0,1,.9-.37l.25-2.55-.27-2.6L28,39.55ZM99,98.38a2.9,2.9,0,1,1-2.9,2.89A2.89,2.89,0,0,1,99,98.38Zm-87.07,0A2.9,2.9,0,1,1,9,101.27a2.89,2.89,0,0,1,2.9-2.89ZM35.23,86.27l.28,10.9L7.3,108.76V97.43L35.23,86.27Zm33.67-9.4c-.53.32-1.31.79-2,1.17a8.87,8.87,0,0,1-1.26.62,25.09,25.09,0,0,1-5.27,1.85,21.3,21.3,0,0,1-5.28.58,21.07,21.07,0,0,1-4.23-.52h-.06a27,27,0,0,1-4.24-1.34,29.8,29.8,0,0,1-2.95-1.34c-.84-.43-1.69-.92-2.53-1.46v5L55,85.76l13.89-4V76.87ZM28.09,34.69V29.26l-4.4-4.89c-6.29-7-5-6.78,1.66-8.67C35.11,13,41.72,7,47.47,3.23,54-1.08,56-1.08,62.53,3.23,68.28,7,74.89,13,84.65,15.7c6.69,1.89,7.95,1.67,1.66,8.67l-4.4,4.89v5.43a78.28,78.28,0,0,0-18-4.5A26.5,26.5,0,0,0,64.69,22c-2.79.25-6-.83-9.65-3.11h0a13.83,13.83,0,0,1-9.62,3,29.13,29.13,0,0,0,.83,8.29,77.91,77.91,0,0,0-18.16,4.53Zm6.29,9.25-.84,5a.69.69,0,0,1-.8.57.55.55,0,0,1-.26-.1L30,47.78h-.13c-.42-.07-.73-.1-1,.36a2.77,2.77,0,0,0-.32,1.16,8.94,8.94,0,0,0,0,2A13.78,13.78,0,0,0,29,53.61a12.2,12.2,0,0,0,.81,2.1,5.59,5.59,0,0,0,1.29,1.79,1,1,0,0,0,.87.28h0a1.53,1.53,0,0,1,1.1.13,1.58,1.58,0,0,1,.76.88v0l.44,1.29.32,1c1.26,3.72,2.22,6.58,4.39,9.12l0,0a20.57,20.57,0,0,0,3.23,3,24.43,24.43,0,0,0,4,2.47l.06,0c.27.14.55.26.83.39l.9.36h0a22.11,22.11,0,0,0,3.59,1,19.81,19.81,0,0,0,3.56.36,20.39,20.39,0,0,0,4.12-.39,22.27,22.27,0,0,0,4-1.24l.79-.36,0,0a22.41,22.41,0,0,0,4.12-2.56A20.32,20.32,0,0,0,71.78,70a13.89,13.89,0,0,0,2-3.49c.52-1.29.94-2.69,1.4-4.26l.15-.5c.21-.69.42-1.43.67-2.2a1.61,1.61,0,0,1,.65-.93l0,0a1.62,1.62,0,0,1,1.09-.22h0c.34.05.73-.21,1.14-.67a9.74,9.74,0,0,0,1.6-2.85,16.17,16.17,0,0,0,.64-2,14.48,14.48,0,0,0,.33-2v-.06a8.32,8.32,0,0,0,0-1.58,2.87,2.87,0,0,0-.27-1v0c-.19-.33-.35-.51-.5-.56a1,1,0,0,0-.64,0l-.92.59a7.35,7.35,0,0,1-2.59,1.23.7.7,0,0,1-.87-.47.59.59,0,0,1,0-.14l-.47-5.3c-12.38,5.37-30.11,5.21-40.81.36Z"/></svg>