<?xml version="1.0" encoding="utf-8"?><svg version="1.1" id="Layer_1" xmlns="http://www.w3.org/2000/svg" xmlns:xlink="http://www.w3.org/1999/xlink" x="0px" y="0px" viewBox="0 0 122.88 82.13" style="enable-background:new 0 0 122.88 82.13" xml:space="preserve"><style type="text/css">.st0{fill-rule:evenodd;clip-rule:evenodd;}</style><g><path class="st0" d="M21.6,26.29c5.89,0,10.67,4.77,10.67,10.67c0,5.89-4.77,10.67-10.67,10.67c-5.89,0-10.67-4.77-10.67-10.67 C10.92,31.06,15.7,26.29,21.6,26.29L21.6,26.29L21.6,26.29z M36.17,24.59c-0.93,0.23-1.88-0.35-2.1-1.28 c-0.23-0.93,0.35-1.88,1.28-2.1l24.91-6.08c0.93-0.23,1.88,0.35,2.1,1.28c0.23,0.93-0.35,1.88-1.28,2.1L36.17,24.59L36.17,24.59z M86.42,27.41c0.93,0.23,1.51,1.17,1.28,2.1c-0.23,0.93-1.17,1.51-2.1,1.28l-9.67-2.36c-0.93-0.23-1.51-1.17-1.28-2.1 c0.23-0.93,1.17-1.51,2.1-1.28L86.42,27.41L86.42,27.41z M87.43,18.75c0.94,0.22,1.52,1.16,1.3,2.09c-0.22,0.94-1.16,1.52-2.09,1.3 l-6.05-1.42c-0.94-0.22-1.52-1.16-1.3-2.09c0.22-0.94,1.16-1.52,2.09-1.3L87.43,18.75L87.43,18.75z M35.13,15.95 c-0.94,0.22-1.88-0.37-2.09-1.3c-0.22-0.94,0.37-1.88,1.3-2.09l17.54-4.11c0.94-0.22,1.88,0.37,2.09,1.3 c0.22,0.94-0.37,1.88-1.3,2.09L35.13,15.95L35.13,15.95z M94.06,15.81l-21.41-5.22l2.14,8.62c0.36,1.45,0.09,2.9-0.63,4.09 c-0.71,1.17-1.88,2.07-3.31,2.43l-0.19,0.05c0,0.01-0.06,0.02-0.08,0.02c-5.42,0.87-10,1.74-13.91,2.53l-0.02-0.07l-7.88,1.92 l2.21,8.95l-9.21,10.55l-9.71,0.4c-1.55-0.47-3.26-0.7-5.16-0.7l0,0c-4.83,0-10.13-0.78-14.63,1v-0.12 c-1.05,0.46-2.07,1.1-3.06,1.87l-0.03,0.03c-0.91,0.72-1.79,1.58-2.6,2.54v0.01c-0.09,0.11-0.18,0.22-0.27,0.33l0,0 c-0.04,0.05-0.08,0.1-0.13,0.16l-0.01,0.02c-0.1,0.11-0.19,0.22-0.27,0.33l-0.01,0.01c-0.04,0.05-0.07,0.1-0.11,0.15l-0.02,0.02 v0.01c-0.04,0.05-0.07,0.1-0.11,0.15l-0.03,0.05l-0.1,0.14L5.5,56.1c-0.04,0.05-0.08,0.11-0.12,0.16L5.35,56.3l-0.09,0.12 l-0.03,0.04c-0.04,0.05-0.07,0.1-0.1,0.15l-0.01,0.01L5.1,56.65c-0.03,0.04-0.06,0.09-0.09,0.13l-0.04,0.06 C4.93,56.89,4.9,56.95,4.86,57v0.01c-0.04,0.05-0.07,0.11-0.11,0.17l-0.02,0.04l-0.09,0.14L4.61,57.4 c-0.03,0.06-0.07,0.11-0.1,0.17l-0.03,0.05l-0.07,0.12l-0.04,0.07c-0.03,0.05-0.06,0.11-0.1,0.16l-0.02,0.03l-0.08,0.14l-0.03,0.06 c-0.03,0.06-0.06,0.11-0.09,0.17v0.01l0,0c-0.03,0.06-0.07,0.12-0.1,0.18l-0.02,0.04l-0.08,0.15L3.83,58.8l-0.11,0.17l-0.03,0.07 l-0.07,0.14L3.6,59.22c-0.03,0.06-0.06,0.12-0.09,0.18l-0.03,0.05l-0.07,0.14l-0.02,0.05c-0.03,0.06-0.06,0.13-0.09,0.19 c-1.8,3.8-2.79,10-3.22,14.29C0.02,74.64-0.01,75.34,0,76.51c0.01,0.09,0.03,0.18,0.05,0.27v0.01c0.02,0.08,0.04,0.17,0.06,0.25 v0.01c0.02,0.08,0.04,0.16,0.06,0.23l0.01,0.02c0.02,0.07,0.04,0.15,0.07,0.22l0.01,0.02c0.02,0.07,0.05,0.13,0.07,0.2l0.01,0.03 c0.02,0.06,0.05,0.12,0.08,0.18L0.44,78c0.03,0.06,0.05,0.11,0.08,0.17c1.7,3.34,6.44,2.43,8.05-0.28l0.01-0.02l0.01-0.02 c0.02-0.03,0.04-0.06,0.05-0.1c0.02-0.03,0.03-0.06,0.04-0.09c0.01-0.02,0.02-0.05,0.03-0.07c0.02-0.04,0.04-0.08,0.05-0.11 l0.02-0.05c0.02-0.05,0.04-0.09,0.06-0.14l0.01-0.03c0.02-0.05,0.04-0.1,0.05-0.16v-0.01c0.02-0.06,0.04-0.12,0.05-0.18v-0.01 c0.02-0.06,0.03-0.12,0.04-0.18l0,0c0.01-0.06,0.02-0.13,0.03-0.19l0.91-6.88c0.14-1.8,0.26-3.01,0.99-4.72 c0.34-0.8,0.75-1.5,1.24-2.06l0.07,3.19l0,0l0.35,15.94h20.16l0.05-3.15V60.31l11.5-0.46c1.49-0.04,2.81-0.71,3.72-1.75 l11.22-12.85c1.74-1.99,1.67-4.96-0.09-6.86l-2.36-9.54c0.12,0.11,0.27,0.2,0.44,0.24l31.63,7.71c0.51,0.13,1.04-0.19,1.16-0.71 l4.74-19.13C94.89,16.46,94.57,15.93,94.06,15.81L94.06,15.81z M27.58,9.15l36.9-9.13C65-0.1,65.52,0.22,65.65,0.74l4.85,19.53 c0.13,0.51-0.19,1.04-0.71,1.16l-36.9,9.13c-0.51,0.13-1.04-0.19-1.16-0.71l-4.85-19.53C26.75,9.8,27.07,9.28,27.58,9.15 L27.58,9.15z M77.11,36.31l-7.88-1.92l-2.28,11.13c-1.64,1.87-1.72,4.71-0.07,6.68l10.6,12.64c1.18,1.45,3.11,2.21,5.07,1.8 l7.94-2.22l0.03,17.72h20.16l0.35-12.45l0,0l0.07-3.19c0.48,0.56,0.89,1.26,1.24,2.06c0.72,1.71,0.84,2.92,0.99,4.72l0.52,3.76 c0.01,0.06,0.02,0.13,0.03,0.19l0,0c0.01,0.06,0.02,0.12,0.04,0.18v0.01c0.01,0.06,0.03,0.12,0.05,0.18v0.01 c0.01,0.06,0.03,0.11,0.05,0.16l0.01,0.03c0.02,0.05,0.04,0.09,0.06,0.14l0.02,0.05c0.01,0.03,0.03,0.07,0.05,0.11 c0.01,0.02,0.02,0.05,0.03,0.07c0.01,0.03,0.02,0.06,0.04,0.09c0.01,0.04,0.03,0.07,0.05,0.1l0.01,0.02l0.01,0.02 c1.61,2.71,6.35,3.62,8.05,0.28c0.03-0.06,0.05-0.11,0.08-0.17l0.02-0.04c0.03-0.06,0.06-0.12,0.08-0.18l0.01-0.03 c0.02-0.07,0.05-0.13,0.07-0.2l0.01-0.02c0.03-0.07,0.05-0.15,0.07-0.22l0.01-0.02c0.02-0.07,0.04-0.15,0.06-0.23v-0.01 c0.02-0.08,0.04-0.17,0.06-0.25v-0.01c0.02-0.09,0.04-0.18,0.05-0.27c0.02-4.02-1.26-10.08-2.9-13.55 c-0.03-0.06-0.06-0.13-0.09-0.19l-0.02-0.05l-0.07-0.14l-0.03-0.05c-0.03-0.06-0.06-0.12-0.09-0.18l-0.02-0.04l-0.07-0.14 l-0.03-0.07l-0.11-0.17l-0.02-0.04l-0.08-0.15l-0.02-0.04c-0.03-0.06-0.07-0.12-0.1-0.18l0,0v-0.01c-0.03-0.06-0.06-0.11-0.09-0.17 l-0.03-0.06l-0.08-0.14L119,61.61c-0.04-0.05-0.07-0.11-0.1-0.16l-0.04-0.07l-0.07-0.12l-0.03-0.05c-0.03-0.06-0.07-0.11-0.1-0.17 L118.64,61l-0.09-0.14l-0.02-0.04c-0.04-0.06-0.07-0.12-0.11-0.17v-0.01c-0.04-0.05-0.07-0.11-0.11-0.16l-0.04-0.06 c-0.03-0.04-0.06-0.09-0.09-0.13l-0.02-0.03l-0.01-0.01c-0.03-0.05-0.06-0.1-0.1-0.15l-0.03-0.04l-0.09-0.12l-0.03-0.04 c-0.04-0.05-0.08-0.11-0.12-0.16l-0.01-0.02l-0.1-0.14l-0.03-0.05c-0.04-0.05-0.07-0.1-0.11-0.15v-0.01l-0.02-0.02 c-0.04-0.05-0.07-0.1-0.11-0.15l-0.01-0.01c-0.08-0.11-0.17-0.22-0.27-0.33l-0.01-0.02c-0.05-0.06-0.09-0.11-0.13-0.16l0,0 c-0.09-0.11-0.18-0.22-0.27-0.33v-0.01c-0.81-0.96-1.69-1.82-2.6-2.54l-0.03-0.03c-0.99-0.77-2.01-1.41-3.06-1.87v0.12 c-4.5-1.79-9.8-1.01-14.63-1.01l0,0c-2.05,0-3.87,0.27-5.51,0.82l-0.06,0.01l-7.37,2.1l-8.31-9.91L77.11,36.31L77.11,36.31z M101.67,29.92C95.79,29.92,91,34.7,91,40.6c0,5.89,4.77,10.67,10.67,10.67c5.89,0,10.67-4.77,10.67-10.67 S107.57,29.92,101.67,29.92L101.67,29.92L101.67,29.92z"/></g></svg>