<svg id="Layer_1" data-name="Layer 1" xmlns="http://www.w3.org/2000/svg" viewBox="0 0 107.87 122.88"><defs><style>.cls-1{fill:#2b2a29;}.cls-1,.cls-2{fill-rule:evenodd;}.cls-2{fill:#f44336;}</style></defs><title>unsecure-profile</title><path class="cls-1" d="M53.75,0C73.86,12.75,92,18.78,107.63,17.35c1.18,23.9-2,43.55-8.89,59.25a29.06,29.06,0,0,0-6.37-3.81c5.49-13.1,8-29.35,7-49C86.19,25,70.8,19.89,53.78,9.09,39,20.54,23.84,23.89,8.34,23.08,7.65,49.25,12.26,69,21.14,83.3c6.57-5.49,17.76-4.67,23-12a2.48,2.48,0,0,0,.56-1.11c0-.13-5.75-7.18-6.27-8-1.35-2.15-3.89-5.08-3.89-7.6A4.07,4.07,0,0,1,37.32,51c-.12-2.14-.2-4.3-.2-6.44,0-1.27,0-2.55.07-3.81a9.07,9.07,0,0,1,.42-1.91,13.57,13.57,0,0,1,6-7.68,16.75,16.75,0,0,1,3.28-1.57c2.08-.76,1.07-4,3.35-4.08,5.32-.14,14.08,4.51,17.49,8.21A12.45,12.45,0,0,1,71.27,42l-.22,9.32a3,3,0,0,1,2.23,1.92c.73,2.94-2.32,6.6-3.74,8.94-1.31,2.16-6.31,8.06-6.31,8.1,0,.26.1.57.45,1.09a13.33,13.33,0,0,0,2.88,2.88,28.64,28.64,0,0,0-5.77,4.35l-.32.29A28.87,28.87,0,0,0,54,109.92v0c.11.28.23.56.35.83h0A28.76,28.76,0,0,0,58,116.9c-1.33.58-2.68,1.13-4.06,1.65C19.14,105.84-1.45,74.71.08,16.52c18.31,1,36.27-3,53.67-16.52Z"/><path class="cls-2" d="M80.88,75.69a23.6,23.6,0,1,1-23.59,23.6,23.61,23.61,0,0,1,23.59-23.6Zm-9.34,19c-.71-.71-1.29-1.15-.39-2l2.9-2.83c.92-.93,1.46-.88,2.31,0l4.47,4.46,5-5c.76-.77,1.23-1.39,2.17-.42l3,3.11c1,1,1,1.57,0,2.49L86,99.51l4.37,4.37c.88.86.92,1.4,0,2.32l-2.83,2.9c-.87.9-1.32.32-2-.4l-4.36-4.35L76,109.5c-.92.94-1.49,1-2.48,0l-3.11-3c-1-.94-.35-1.42.42-2.18L76,99.15l-4.45-4.44Z"/></svg>