<?xml version="1.0" encoding="utf-8"?><svg version="1.1" id="Layer_1" xmlns="http://www.w3.org/2000/svg" xmlns:xlink="http://www.w3.org/1999/xlink" x="0px" y="0px" viewBox="0 0 111.81 122.88" style="enable-background:new 0 0 111.81 122.88" xml:space="preserve"><style type="text/css">.st0{fill-rule:evenodd;clip-rule:evenodd;fill:#FF0000;} .st1{fill-rule:evenodd;clip-rule:evenodd;fill:#C70808;} .st2{fill-rule:evenodd;clip-rule:evenodd;fill:#FFFFFF;} .st3{fill-rule:evenodd;clip-rule:evenodd;fill:#3AB7FC;}</style><g><path class="st0" d="M55.71,0c20.85,13.21,39.68,19.47,55.85,17.99c2.82,57.1-18.26,90.82-55.63,104.89 C19.84,109.71-1.5,77.44,0.08,17.12C19.06,18.12,37.67,14.01,55.71,0L55.71,0L55.71,0L55.71,0z"/><path class="st1" d="M111.56,17.99c2.82,57.1-18.26,90.82-55.63,104.89L111.56,17.99L111.56,17.99z"/><path class="st2" d="M55.74,8.89c17.83,11.3,33.94,16.65,47.76,15.38c2.42,48.83-15.62,77.67-47.58,89.71 C25.06,102.72,6.81,75.12,8.16,23.54C24.39,24.39,40.32,20.88,55.74,8.89L55.74,8.89L55.74,8.89L55.74,8.89z"/><path class="st3" d="M66.62,87.83c1.68,0,3.04,1.36,3.04,3.04c0,1.68-1.36,3.04-3.04,3.04c-1.68,0-3.04-1.36-3.04-3.04 C63.58,89.2,64.94,87.83,66.62,87.83L66.62,87.83L66.62,87.83z M53.82,29.76c-0.91-1.37,1.93-5.24,4.02-4.68 C56.06,26.2,54.72,28.01,53.82,29.76L53.82,29.76L53.82,29.76z M34.26,40.29c-2.4,0.07-3.12-6.41-0.59-7.54 C32.91,35.15,33.17,37.95,34.26,40.29L34.26,40.29L34.26,40.29z M72.27,49.6c3.18,0.37,5.88-4.71,3.97-7.14 C76.08,45.82,74.18,47.7,72.27,49.6L72.27,49.6L72.27,49.6z M83.82,63.37c0.78-1.62-1.03-3.96-3.25-3.79 C82.17,60.37,83.15,61.71,83.82,63.37L83.82,63.37L83.82,63.37z M19.29,53.15c-0.74-1.11,1.56-4.23,3.25-3.79 C21.04,50.25,19.96,51.71,19.29,53.15L19.29,53.15L19.29,53.15z M26.3,64.82c-0.27,1.46,3.42,3.66,4.95,2.47 C29.39,66.97,27.65,65.95,26.3,64.82L26.3,64.82L26.3,64.82z M51.78,43.02c-0.45-3.1-0.69-6.06-0.58-8.8 c0.1-2.6,0.6-5.62,1.86-7.79c2.65-4.57,9.09-3.68,9.94,0.77c0.28,1.48-0.1,3.18-1.43,4.56c-0.89,0.92-2.24,1.76-3.45,2.83 C55.26,37.11,53.26,39.48,51.78,43.02L51.78,43.02L51.78,43.02z M69.97,60.85c2.11-0.91,4.16-1.64,6.11-2.08 c1.86-0.42,4.09-0.64,5.87-0.16c3.74,1.01,4.33,5.74,1.35,7.18c-0.99,0.48-2.27,0.53-3.5-0.14c-0.82-0.45-1.67-1.25-2.66-1.9 C74.81,62.19,72.75,61.22,69.97,60.85L69.97,60.85L69.97,60.85z M33.06,53.72c-1.77-1.47-3.53-2.75-5.27-3.73 c-1.67-0.93-3.74-1.77-5.59-1.82c-3.87-0.09-5.78,4.28-3.32,6.51c0.82,0.74,2.02,1.16,3.39,0.85c0.91-0.2,1.96-0.72,3.09-1.08 C28.04,53.64,30.29,53.3,33.06,53.72L33.06,53.72L33.06,53.72z M31.09,32.25c2.95-4.01,10.11-4.49,12.86,3.51 c0.48,1.43,0.96,2.84,1.45,4.25c0.31,0.89,0.68,2.09,1.11,3.34c3.05,8.8,8.05,8.6,13.62,1.92c2.63-3.15,3.68-6.52,7.89-8.1 c5.12-1.93,10.36,1.4,11.17,6.34c1.06,6.44-3.03,7.86-7.31,10.33c-1.34,0.78-2.84,1.71-4.17,2.75c-2.01,1.56-3.65,3.35-3.79,5.13 c-0.36,4.68,14.73,7.64,20.19,10.69c7.6,3.58,4.24,13.16-2.47,13.21c-1.84,0.02-3.71-0.77-5.6-2.29l-13.2-11.68 c-0.85-0.77-2.01-0.72-2.72-0.11c-1.29,1.12,2.25,9.41,2.53,10.65c1.08,4.87-5.46,8.1-7.32,0.67c-1.37-5.51-5.96-12.16-8.73-5.61 l-0.51,1.6c-0.85,2.69-1.41,7.13-4.71,7.69c-2.82,0.48-5.54-2.54-4.47-5.31c1.2-2.57,3.99-6.45,2.88-9.26 c-0.24-0.62-0.81-1.21-1.33-1.6c-2.24-1.67-4.64-0.83-7.1-0.67c-1.66,0.11-2.95-0.02-3.96-0.41c-3.19-1.24-3.94-4.6-2.71-7.08 c2.19-4.41,6.41-1.97,10.18-3.46c8.56-3.37,1.97-11.19-1.26-15.12C30.87,40.32,27.89,36.6,31.09,32.25L31.09,32.25L31.09,32.25z M27.28,76.33c1.03,0,1.86,0.83,1.86,1.86c0,1.03-0.83,1.86-1.86,1.86c-1.03,0-1.86-0.83-1.86-1.86 C25.42,77.17,26.26,76.33,27.28,76.33L27.28,76.33L27.28,76.33z M51.35,87.76c0.71,0,1.28,0.58,1.28,1.28 c0,0.7-0.58,1.28-1.28,1.28c-0.71,0-1.28-0.58-1.28-1.28C50.07,88.33,50.64,87.76,51.35,87.76L51.35,87.76L51.35,87.76z"/></g></svg>