<svg id="Layer_1" data-name="Layer 1" xmlns="http://www.w3.org/2000/svg" viewBox="0 0 122.87 117.24"><defs><style>.cls-1{fill-rule:evenodd;}</style></defs><title>woman-lawyer</title><path class="cls-1" d="M82.54,74.41a143.62,143.62,0,0,1,24.71,12c4.73,3,7.18,5.2,9.09,8.79,4.71,8.83,4,12.65,6.53,22H86.1a11.23,11.23,0,0,0-.47-1.81l-5-14.49a8,8,0,0,0,4.08-1.87c2.6-2.2,3.43-5.22,2.56-9l0-.22L84.4,79l-.05-.24a13.73,13.73,0,0,0-1.81-4.39Zm-40,16.93,2.86-10.89c.63-2.37,1.71-3.66,3.56-3.1l11.26,5.24c1.46.68,1.05.63,2.52-.06l10.34-4.91c2.24-1.15,3.66-.11,4.35,2.83l3,11.2c.45,2-.29,2.65-2.31,1.91L71.6,90.4c-1.32-.63-2,.06-1.48,1.72l8.55,25h-12c-.06-.19-.11-.39-.16-.59l-5-22.66-5.21,22.73c0,.18-.08.35-.13.52H43.9l8.86-25.26c.48-1.71-.26-2-1.51-1.43l-6.72,3.11c-1.9,1-2.45.13-2-2.19ZM29.76,64.59,36,64.42l5.19-.13c-6.06-18.65-4-35.78,10.55-50.35,2.48,8,8,14.6,17.46,19.48a92.31,92.31,0,0,1,13.1,12c.76-3.08-2.1-6.83-5.57-10.7A16.82,16.82,0,0,1,85,42.84c2.41,4.94,2.39,9.11,1.59,14.48a30.86,30.86,0,0,1-1.85,7h8.63c9.1-19.49,3.33-48.41-15.29-60.68C72.36-.14,68.25,0,61.55,0,53.88,0,50,.25,43.39,4.59c-9.7,6.42-15.64,17.5-18.15,32.9-.51,7.66-.85,20.93,4.52,27.1Zm6.8,52.65H0c2.52-9.4,1.83-13.22,6.54-22,1.91-3.58,4.35-5.82,9.08-8.79a143.51,143.51,0,0,1,24.7-12,13.92,13.92,0,0,0-1.84,4.22h0L35.7,89.26c-.07.25-.14.51-.19.77-.62,3.3-.13,6.08,1.67,8.23A7.68,7.68,0,0,0,42,101.17l-5,14.2a6.92,6.92,0,0,0-.25.92c-.07.32-.12.64-.16.95Z"/></svg>