<svg id="Layer_1" data-name="Layer 1" xmlns="http://www.w3.org/2000/svg" viewBox="0 0 122.88 103.22"><defs><style>.cls-1{fill-rule:evenodd;}</style></defs><title>women-empowerment</title><path class="cls-1" d="M43.92,41.94a1.66,1.66,0,0,1,1-.51,1.88,1.88,0,0,1,.61.07,2.61,2.61,0,0,1,1.17.77,60.08,60.08,0,0,1,6,6.1c1,.93,1.24,1.9.45,2.83l-1.45,1.62c-.74.74-1.67.7-2.69,0-4.58-3.85-10-5.84-5.14-10.84ZM30.61,65.6a20.79,20.79,0,0,1-9.77-6.15c6.54-2.47,9.56-9.08,10-20.64.31-8.59-1.46-12.82,1.47-21.3C38.07.72,59.54-5,71.49,4.8c9.38-1,18.83,3.85,20.86,18.3,1.52,10.78-1.7,18,1.7,27.91a15.51,15.51,0,0,0,8,9.47c-2.55,2.44-6.25,4.06-10.69,5.14a91,91,0,0,1-13.61,1.67c.68,4.57,2.1,4.75,6.13,7a20.56,20.56,0,0,1-8.64,7.21L69.31,65.69c-.83-1.33-1-1,.08-2A44.65,44.65,0,0,0,75.18,57c4.61-6.45,7.07-8.85,3.34-15.51l-2.81-5.13c-3.44-6.2-10.53-.48-15.84,2.56-1.55,1.93,2,6.06,5,4.9l4-1.5,1.18,2.8c-9.76-1.29-11.75,5-12.42,13.24-1-5-.16-9.09,1.86-11.14a28.86,28.86,0,0,0-5.24,5c-.41.5-.81,1-1.19,1.58C51,56.58,49,54.69,47,53.15c-1-.82-2.11-1.7-3.08-2.43a16.07,16.07,0,0,0,1.93,7.7,27.76,27.76,0,0,1,4,6.43c.54,1.38,1,2.7,1.58,4.11l4.37,15.15C48.64,83,42.2,79.76,39,74.34c2.47-3,4.2-4.52,5-6.86-5.81-.36-10.64-1-13.4-1.88Zm34.64-41a1.83,1.83,0,0,1,.62.16c1,.46,2.24,2.56,2.76,3.52.33.61,1.27,2.28,2,3.68l-6.56,2.65c-1-1.7-2-3.44-3-4.84a2.08,2.08,0,0,1-.35-2.23,5.11,5.11,0,0,1,2.08-2,6,6,0,0,1,2.36-1ZM57.48,29a2.12,2.12,0,0,1,.63.12,2.89,2.89,0,0,1,1.15.9,15.65,15.65,0,0,1,1.82,2.44l1.76,2.76c-2.27,1-5.32,1.56-5.42,4.47-1.34-1.82-2.53-3.77-3.7-5.27a2.09,2.09,0,0,1-.49-2.21c.47-1.28,3-3.23,4.25-3.21Zm-7,5.86a1.84,1.84,0,0,1,.61.06,2.73,2.73,0,0,1,1.18.77,14.28,14.28,0,0,1,1.93,2.18c.82,1.08,3.95,5.07,4.39,6a1.64,1.64,0,0,1-.23,1.94L56.5,47.56c-.74.74-1.67.69-2.69,0-2.38-2.29-4.56-5.17-6.47-7.22a2,2,0,0,1-.65-2.07c.32-1.17,2.61-3.34,3.79-3.41ZM87.07,75c19.42,7.46,30,6.41,35.81,28.25H83.33L76.68,85.41C82,82.88,85.91,79.22,87.07,75ZM61.29,103.22H0c5.7-21.29,16.17-20.49,35.07-27.8,4.18,9,12.94,13,22.12,13.61l4.1,14.19Z"/></svg>