<svg id="Layer_1" data-name="Layer 1" xmlns="http://www.w3.org/2000/svg" viewBox="0 0 122.82 122.88"><defs><style>.cls-1{fill-rule:evenodd;}</style></defs><title>archery</title><path class="cls-1" d="M32.15,88.94l1.33-1.33-7.06-.47,5.31-5.31,7,.52L40,81.12l-7.07-.47,6.46-6.47,7,.52,6.29-6.29L2.16,17.88A14.22,14.22,0,0,1,.51,16.64a1.48,1.48,0,1,1,2-2.24C8.32,19.48,16.82,16.1,27.05,12c12.48-5,28.63-12.13,45.34-5.93,7.19,2.67,16.49,9.65,24.8,17.8L112.36,8.74l-7.22-.49L108.42,5l14.4-5-5.14,14.23-3.27,3.28-.33-7L98.91,25.63c8.14,8.29,15.14,17.56,17.91,24.69,6.16,15.86-1.1,32.08-6.18,44.74-4.29,10.69-7.88,19.63-2.23,25.28a1.49,1.49,0,0,1-2.11,2.1,13.34,13.34,0,0,1-1.82-2.24L54.41,70.13l-6.29,6.29.66,7.17-6.47,6.46-.61-7.21-1.23,1.23.66,7.16-5.31,5.31-.61-7.21-1.33,1.34.65,7.16-6.62,6.62-.74-8.82-8.66-.58,6.62-6.62,7,.51ZM54.37,66.73,91.31,29.79c-8-7.87-16.94-14.59-23.74-17.12C51.94,6.87,40.15,10,28.15,14.8c-7.84,3.11-14.75,5.86-20.68,5l46.9,46.9ZM93,31.51,56.09,68.45l46.5,46.5c-.75-5.93,2.09-13,5.3-21,4.87-12.15,8.12-24,2.38-38.77C107.64,48.42,100.9,39.52,93,31.51Z"/></svg>