<svg xmlns="http://www.w3.org/2000/svg" shape-rendering="geometricPrecision" text-rendering="geometricPrecision" image-rendering="optimizeQuality" fill-rule="evenodd" clip-rule="evenodd" viewBox="0 0 448 512.31"><path d="M106.38 501.99h-.01 22.5V384.92c0-3.01 1.23-5.73 3.2-7.7 1.97-1.98 4.7-3.2 7.7-3.2h168.46c3 0 5.74 1.24 7.69 3.2 1.98 1.98 3.21 4.72 3.21 7.7v117.07h21.68V132.46H106.38v369.53zm211.23-465.2V94.4h-13.06l-20.81-30.28h-.34V94.4h-15.64V36.79h13.28l20.47 30.15h.45V36.79h15.65zm64.8 28.8c0 6.42-1.25 11.81-3.75 16.22-2.49 4.41-5.85 7.73-10.09 9.98-4.24 2.26-8.97 3.4-14.18 3.4-5.24 0-9.98-1.15-14.22-3.42-4.22-2.28-7.57-5.62-10.05-10.02-2.5-4.4-3.74-9.78-3.74-16.16 0-6.41 1.24-11.81 3.74-16.21 2.48-4.39 5.83-7.72 10.05-9.99 4.24-2.26 8.98-3.38 14.22-3.38 5.21 0 9.94 1.12 14.18 3.38 4.24 2.27 7.6 5.6 10.09 9.99 2.5 4.4 3.75 9.8 3.75 16.21zm-16.09 0c0-3.44-.46-6.36-1.37-8.72-.9-2.38-2.25-4.17-4.02-5.42-1.76-1.22-3.95-1.83-6.54-1.83-2.58 0-4.77.61-6.54 1.83-1.76 1.25-3.11 3.04-4.02 5.42-.91 2.36-1.36 5.28-1.36 8.72 0 3.46.45 6.36 1.36 8.74.91 2.36 2.26 4.17 4.02 5.4 1.77 1.22 3.96 1.84 6.54 1.84 2.59 0 4.78-.62 6.54-1.84 1.77-1.23 3.12-3.04 4.02-5.4.91-2.38 1.37-5.28 1.37-8.74zM119.59 58.4h-15.87c-.1-1.32-.39-2.51-.88-3.58a8.707 8.707 0 0 0-1.96-2.77c-.84-.78-1.84-1.38-3.03-1.8-1.17-.42-2.52-.63-4.03-.63-2.61 0-4.82.63-6.63 1.91-1.83 1.27-3.18 3.11-4.13 5.49-.92 2.38-1.38 5.23-1.38 8.57 0 3.53.48 6.49 1.43 8.84.94 2.38 2.3 4.17 4.11 5.35 1.8 1.19 3.97 1.79 6.5 1.79 1.44 0 2.73-.17 3.88-.54 1.15-.38 2.14-.9 2.98-1.61.85-.68 1.54-1.53 2.06-2.5.54-.99.9-2.1 1.08-3.34l15.87.12c-.18 2.43-.87 4.91-2.04 7.43-1.2 2.52-2.86 4.86-5.03 6.98-2.17 2.13-4.85 3.85-8.03 5.14-3.2 1.29-6.89 1.94-11.12 1.94-5.27 0-10.01-1.14-14.21-3.4-4.19-2.28-7.5-5.62-9.93-10.03-2.43-4.39-3.64-9.79-3.64-16.17 0-6.41 1.24-11.81 3.71-16.21 2.48-4.39 5.82-7.72 10.02-9.99 4.19-2.26 8.88-3.38 14.05-3.38 3.65 0 6.99.49 10.05 1.49 3.07.99 5.74 2.44 8.04 4.35 2.31 1.9 4.18 4.24 5.57 7 1.41 2.79 2.26 5.96 2.56 9.55zm21.83 36h-16.88l19.02-57.61h21.38l19 57.61h-16.87l-3.33-11.02h-19l-3.32 11.02zm18.79-22.73-5.75-19.01h-.45l-5.73 19.01h11.93zm59.63-16.87c-.15-1.88-.86-3.35-2.1-4.39-1.25-1.05-3.14-1.58-5.67-1.58-1.61 0-2.92.19-3.95.58-1.02.38-1.79.91-2.26 1.56-.48.65-.74 1.41-.76 2.25-.04.69.09 1.31.37 1.87.3.55.76 1.05 1.39 1.48.65.45 1.45.86 2.46 1.21.99.36 2.17.67 3.53.95l4.73 1.02c3.2.67 5.92 1.57 8.18 2.66 2.28 1.11 4.13 2.42 5.58 3.91 1.43 1.48 2.51 3.16 3.19 5.01.69 1.85 1.04 3.89 1.06 6.07-.02 3.8-.97 7.01-2.86 9.63-1.87 2.63-4.54 4.62-8.02 5.99-3.47 1.36-7.65 2.05-12.53 2.05-5 0-9.37-.74-13.09-2.22-3.72-1.47-6.62-3.76-8.66-6.85-2.06-3.09-3.09-7.03-3.12-11.85h14.85c.11 1.75.55 3.25 1.33 4.45.79 1.18 1.89 2.09 3.33 2.71 1.44.63 3.15.95 5.14.95 1.66 0 3.06-.22 4.18-.63 1.14-.42 1.98-.99 2.56-1.71.58-.74.89-1.58.9-2.52-.01-.88-.3-1.64-.86-2.32-.54-.65-1.44-1.26-2.7-1.79-1.26-.54-2.96-1.04-5.1-1.51l-5.73-1.24c-5.1-1.11-9.12-2.95-12.05-5.56-2.94-2.58-4.39-6.13-4.38-10.63-.01-3.66.96-6.87 2.94-9.61 1.98-2.75 4.73-4.89 8.24-6.44 3.53-1.52 7.55-2.29 12.11-2.29 4.65 0 8.67.78 12.07 2.34 3.4 1.54 6.01 3.73 7.86 6.56 1.85 2.82 2.78 6.11 2.8 9.89h-14.96zm38.92-18.01V94.4h-15.64V36.79h15.64zM49.66 0h348.68c6.14 0 11.73 2.52 15.77 6.56 4.05 4.04 6.57 9.66 6.57 15.78v86.52c0 6.13-2.53 11.72-6.57 15.77-4.05 4.04-9.64 6.57-15.77 6.57h-47.21v20.33h89.28c4.16 0 7.59 3.42 7.59 7.59v348.03a5.16 5.16 0 0 1-5.16 5.16H5.15C2.31 512.31 0 510 0 507.15V159.1c0-4.18 3.4-7.57 7.57-7.57h88.49V131.2h-46.4c-6.14 0-11.73-2.52-15.77-6.57-4.04-4.04-6.56-9.63-6.56-15.77V22.34c0-6.12 2.52-11.7 6.56-15.75C37.97 2.52 43.56 0 49.66 0zm88.47 501.99h81.24V383.28h-79.6a1.66 1.66 0 0 0-1.64 1.64v117.07zm90.5 0h81.24V384.92c0-.44-.2-.86-.49-1.16-.3-.29-.72-.48-1.15-.48h-79.6v118.71zm-21.73-63.5c3.65 0 6.61 2.95 6.61 6.6a6.61 6.61 0 0 1-6.61 6.61c-3.64 0-6.6-2.96-6.6-6.61a6.6 6.6 0 0 1 6.6-6.6zm34.2 0c3.64 0 6.61 2.95 6.61 6.6 0 3.65-2.97 6.61-6.61 6.61a6.61 6.61 0 0 1-6.61-6.61c0-3.65 2.96-6.6 6.61-6.6zM139.33 165.77h26.61c2.78 0 5.33 1.15 7.16 2.98 1.84 1.84 2.99 4.38 2.99 7.16v62.05c0 2.78-1.15 5.33-2.98 7.16l-.33.29a10.094 10.094 0 0 1-6.84 2.69h-26.61c-2.78 0-5.33-1.15-7.16-2.98a10.14 10.14 0 0 1-2.98-7.16v-62.05c0-2.77 1.16-5.31 2.98-7.15 1.83-1.84 4.38-2.99 7.16-2.99zm-99.72 232.9h26.61a10.1 10.1 0 0 1 7.16 2.98c1.84 1.84 2.98 4.38 2.98 7.16v52.35c0 2.76-1.13 5.3-2.98 7.14-1.86 1.86-4.4 3-7.16 3H39.61c-2.78 0-5.32-1.14-7.16-2.98a10.117 10.117 0 0 1-2.98-7.16v-52.35c0-2.77 1.15-5.31 2.98-7.15 1.85-1.84 4.39-2.99 7.16-2.99zm26.61 8.62H39.61c-.41 0-.81.17-1.08.43-.27.27-.44.68-.44 1.09v52.35c0 .41.17.8.44 1.07s.67.45 1.08.45h26.61c.42 0 .81-.17 1.07-.44.28-.27.45-.66.45-1.08v-52.35c0-.41-.18-.81-.45-1.08s-.65-.44-1.07-.44zM39.61 293.91h26.61c2.78 0 5.33 1.14 7.16 2.97a10.14 10.14 0 0 1 2.98 7.17v52.35c0 2.77-1.14 5.31-2.99 7.15a10.067 10.067 0 0 1-7.15 2.99H39.61c-2.77 0-5.31-1.15-7.15-2.98a10.066 10.066 0 0 1-2.99-7.16v-52.35c0-2.78 1.14-5.33 2.98-7.17l.32-.29c1.81-1.65 4.23-2.68 6.84-2.68zm26.61 8.62H39.61c-.36 0-.72.13-.98.33l-.1.11c-.27.27-.44.66-.44 1.08v52.35c0 .42.17.8.44 1.07s.67.45 1.08.45h26.61c.42 0 .8-.18 1.07-.45.28-.26.45-.64.45-1.07v-52.35c0-.42-.18-.81-.45-1.08s-.65-.44-1.07-.44zM39.61 191.57h26.61c2.78 0 5.33 1.15 7.16 2.98l.26.29c1.68 1.81 2.72 4.23 2.72 6.87v47.51c0 2.77-1.15 5.33-2.98 7.16a10.159 10.159 0 0 1-7.16 2.98H39.61c-2.77 0-5.31-1.14-7.14-2.98-1.86-1.86-3-4.4-3-7.16v-47.51a10.1 10.1 0 0 1 2.98-7.16l.32-.29c1.81-1.66 4.23-2.69 6.84-2.69zm26.61 8.63H39.61c-.36 0-.72.13-.98.33l-.1.11c-.27.27-.44.65-.44 1.07v47.51c0 .43.17.81.44 1.07.27.28.66.45 1.08.45h26.61c.4 0 .8-.18 1.07-.45s.45-.67.45-1.07v-47.51c0-.37-.13-.7-.33-.96l-.12-.11c-.27-.27-.65-.44-1.07-.44zM381.1 398.67h26.61c2.78 0 5.33 1.14 7.17 2.98l.29.32c1.65 1.81 2.68 4.22 2.68 6.84v52.35c0 2.76-1.13 5.3-2.98 7.14-1.86 1.86-4.4 3-7.16 3H381.1c-2.77 0-5.31-1.14-7.14-2.98-1.87-1.86-3-4.4-3-7.16v-52.35c0-2.77 1.15-5.31 2.98-7.15 1.85-1.84 4.39-2.99 7.16-2.99zm26.61 8.62H381.1c-.41 0-.82.17-1.09.43-.26.27-.43.68-.43 1.09v52.35c0 .42.17.81.43 1.07.28.28.67.45 1.09.45h26.61c.42 0 .81-.17 1.07-.44.28-.27.45-.66.45-1.08v-52.35c0-.37-.13-.72-.34-.98l-.1-.1c-.27-.27-.66-.44-1.08-.44zM381.1 293.91h26.61c2.78 0 5.33 1.14 7.17 2.97l.29.33c1.65 1.81 2.68 4.22 2.68 6.84v52.35c0 2.77-1.14 5.31-2.99 7.15a10.084 10.084 0 0 1-7.15 2.99H381.1c-2.77 0-5.31-1.15-7.15-2.98a10.066 10.066 0 0 1-2.99-7.16v-52.35c0-2.78 1.14-5.33 2.98-7.17l.32-.29c1.81-1.65 4.22-2.68 6.84-2.68zm26.61 8.62H381.1c-.37 0-.72.13-.98.33l-.1.11c-.27.27-.44.66-.44 1.08v52.35c0 .42.17.8.44 1.07.26.27.67.45 1.08.45h26.61c.42 0 .8-.18 1.07-.45.28-.26.45-.64.45-1.07v-52.35c0-.37-.13-.72-.34-.98l-.1-.1c-.27-.27-.66-.44-1.08-.44zM381.1 191.57h26.61c2.76 0 5.3 1.15 7.15 2.98 1.85 1.83 2.99 4.38 2.99 7.16v47.51c0 2.76-1.13 5.3-2.98 7.14-1.86 1.87-4.4 3-7.16 3H381.1c-2.77 0-5.31-1.14-7.14-2.98-1.87-1.86-3-4.4-3-7.16v-47.51a10.1 10.1 0 0 1 2.98-7.16l.32-.29c1.81-1.66 4.22-2.69 6.84-2.69zm26.61 8.63H381.1c-.37 0-.72.13-.98.33l-.1.11c-.27.27-.44.65-.44 1.07v47.51c0 .43.17.81.43 1.07.28.28.67.45 1.09.45h26.61c.42 0 .81-.17 1.07-.43.28-.28.45-.66.45-1.09v-47.51c0-.42-.17-.8-.44-1.07-.26-.27-.66-.44-1.08-.44zm-125.65 65.64h26.6c2.79 0 5.33 1.15 7.16 2.98a10.15 10.15 0 0 1 2.99 7.17v62.05c0 2.76-1.15 5.3-2.99 7.15a10.081 10.081 0 0 1-7.16 2.98h-26.6c-2.77 0-5.31-1.15-7.15-2.98-1.85-1.83-3-4.37-3-7.15v-62.05c0-2.77 1.16-5.31 2.98-7.15 1.86-1.84 4.4-3 7.17-3zm26.6 8.63h-26.6c-.42 0-.82.17-1.09.43-.26.27-.43.67-.43 1.09v62.05c0 .41.17.8.44 1.07.26.27.66.44 1.08.44h26.6c.42 0 .81-.17 1.08-.44.27-.26.45-.65.45-1.07v-62.05c0-.42-.18-.81-.45-1.08s-.66-.44-1.08-.44zm-97.97-8.63h26.62c2.78 0 5.32 1.15 7.16 2.98l.29.33c1.65 1.81 2.68 4.22 2.68 6.84v62.05c0 2.78-1.14 5.32-2.97 7.15a10.117 10.117 0 0 1-7.16 2.98h-26.62c-2.78 0-5.32-1.14-7.16-2.98a10.109 10.109 0 0 1-2.97-7.15v-62.05c0-2.77 1.15-5.31 2.97-7.15 1.84-1.85 4.38-3 7.16-3zm26.62 8.63h-26.62c-.41 0-.8.17-1.07.44-.27.26-.44.66-.44 1.08v62.05c0 .41.17.8.44 1.07s.66.44 1.07.44h26.62c.41 0 .8-.17 1.07-.44s.44-.66.44-1.07v-62.05c0-.37-.13-.72-.33-.98l-.11-.1a1.53 1.53 0 0 0-1.07-.44zm-26.62-108.7h26.62c2.78 0 5.32 1.15 7.16 2.98l.29.33c1.65 1.8 2.68 4.22 2.68 6.83v62.05c0 2.78-1.14 5.33-2.97 7.16-1.84 1.83-4.38 2.98-7.16 2.98h-26.62c-2.78 0-5.32-1.15-7.16-2.98a10.132 10.132 0 0 1-2.97-7.16v-62.05c0-2.77 1.15-5.31 2.97-7.15 1.84-1.84 4.38-2.99 7.16-2.99zm26.62 8.62h-26.62c-.41 0-.8.17-1.07.44s-.44.67-.44 1.08v62.05c0 .42.17.8.44 1.07s.66.45 1.07.45h26.62c.41 0 .8-.18 1.07-.45s.44-.65.44-1.07v-62.05c0-.36-.13-.72-.33-.98l-.11-.1a1.53 1.53 0 0 0-1.07-.44zm-97.98 91.45h26.61c2.78 0 5.33 1.15 7.16 2.98a10.15 10.15 0 0 1 2.99 7.17v62.05c0 2.76-1.15 5.3-3 7.15a10.058 10.058 0 0 1-7.15 2.98h-26.61a10.1 10.1 0 0 1-7.16-2.98 10.117 10.117 0 0 1-2.98-7.15v-62.05c0-2.77 1.16-5.31 2.98-7.15 1.83-1.85 4.38-3 7.16-3zm26.61 8.63h-26.61c-.42 0-.8.17-1.07.44-.27.26-.45.66-.45 1.08v62.05c0 .41.18.8.45 1.07s.65.44 1.07.44h26.61c.42 0 .8-.17 1.07-.44.28-.26.45-.65.45-1.07v-62.05c0-.42-.18-.81-.45-1.08s-.65-.44-1.07-.44zm116.12-108.7h26.6c2.79 0 5.33 1.15 7.16 2.98 1.84 1.84 2.99 4.38 2.99 7.16v62.05c0 2.78-1.15 5.33-2.98 7.16l-.32.29c-1.82 1.67-4.23 2.69-6.85 2.69h-26.6c-2.77 0-5.31-1.16-7.15-2.98-1.85-1.83-3-4.38-3-7.16v-62.05c0-2.77 1.16-5.31 2.98-7.15 1.86-1.84 4.4-2.99 7.17-2.99zm26.6 8.62h-26.6c-.42 0-.82.17-1.09.44-.26.27-.43.67-.43 1.08v62.05c0 .42.17.8.44 1.07.26.27.66.45 1.08.45h26.6c.38 0 .72-.14.99-.34l.09-.11c.27-.27.45-.65.45-1.07v-62.05c0-.41-.18-.8-.45-1.08-.27-.27-.66-.44-1.08-.44zm-142.72 0h-26.61c-.42 0-.8.17-1.07.44s-.45.67-.45 1.08v62.05c0 .42.18.8.45 1.07s.65.45 1.07.45h26.61c.38 0 .72-.14.98-.34l.1-.11c.27-.27.44-.65.44-1.07v-62.05c0-.41-.18-.8-.45-1.08-.27-.27-.65-.44-1.07-.44zm-69.88 327.6V161.84H10.32v340.15h85.74zm255.07 0h86.55V161.84h-86.55v340.15zM49.66 9.11h348.68c7.27 0 13.22 5.98 13.22 13.23v86.52c0 7.25-5.97 13.22-13.22 13.22H49.66c-7.26 0-13.22-5.95-13.22-13.22V22.34c0-7.28 5.95-13.23 13.22-13.23z"/></svg>