<svg id="Layer_1" data-name="Layer 1" xmlns="http://www.w3.org/2000/svg" viewBox="0 0 92.35 122.88"><defs><style>.cls-1{fill-rule:evenodd;}</style></defs><title>certified</title><path class="cls-1" d="M46.18,0a9.26,9.26,0,0,1,5.61,1.76C54,3.16,56.45,5.91,59.5,7.65c4.28,2.45,12.22-.93,16.29,5.11,2.37,3.52,2.48,6.28,2.66,9a15.8,15.8,0,0,0,3.72,9.63c5,6.6,6,11,3.45,15.57-1.75,3.11-5.44,4.85-6.29,6.82-1.82,4.2.19,7.37-2.3,12.27a13.05,13.05,0,0,1-7.93,6.78c-3,1-6-.43-8.39.58C56.5,75.19,53.39,79.3,50,80.34a13,13,0,0,1-7.73,0c-3.35-1-6.45-5.15-10.66-6.92-2.4-1-5.4.39-8.39-.58a13,13,0,0,1-7.94-6.78c-2.49-4.9-.48-8.07-2.3-12.27-.85-2-4.54-3.71-6.29-6.82C4.16,42.39,5.2,38,10.19,31.4a15.92,15.92,0,0,0,3.72-9.63c.17-2.73.28-5.49,2.66-9,4.06-6,12-2.66,16.29-5.11,3-1.74,5.51-4.49,7.7-5.88A9.29,9.29,0,0,1,46.18,0ZM89,113.07,77.41,111l-5.73,10.25c-4.16,5.15-6.8-3.31-8-6.26L52.57,94c2.57-.89,5.67-3.47,8.85-6.35,6.35.13,12.27-1,16.62-6.51l12.82,24.75L92,108.22c.87,3.09.41,5.13-3,4.85Zm-85.57,0L15,111l5.73,10.25c4.15,5.15,6.79-3.31,8-6.26L39.78,94c-2.57-.89-5.66-3.47-8.85-6.35-6.35.13-12.27-1-16.62-6.51L1.5,105.85.38,108.22c-.87,3.09-.41,5.13,3,4.85Zm36.13-76.8,4.72,4.45,9.49-9.64c.93-.95,1.52-1.71,2.68-.52l3.76,3.84c1.23,1.22,1.17,1.94,0,3.08L46.38,51c-2.45,2.41-2,2.56-4.51.09l-8.68-8.64a1.09,1.09,0,0,1,.1-1.69l4.36-4.52c.66-.68,1.19-.64,1.87,0Zm6.54-19.34A24.16,24.16,0,1,1,21.91,41.09,24.16,24.16,0,0,1,46.06,16.93Z"/></svg>