<svg xmlns="http://www.w3.org/2000/svg" shape-rendering="geometricPrecision" text-rendering="geometricPrecision" image-rendering="optimizeQuality" fill-rule="evenodd" clip-rule="evenodd" viewBox="0 0 282 511.32"><path d="M236.39 323.85H37.57c-.44-8.11-.21-15.91.72-23.41 11.11-89.64 114.91-89.27 91.19-194.65-7.85 34.34-27.83 42.45-58.03 38.37l-18.24 17.75c-19.5 18.98-46.89-14.39-28.92-34.94 37.54-39.68 48.92-64.52 62.54-74.96 5.19-3.97 11.58-3.79 11.27-11.33-.14-3.2-2.97-7.81-5.45-9.22-1.14-10.49-1.47-20.98 0-31.46 16.98 6.81 32.24 18.51 45.05 32.68l1.09-18.47c59.29 3.94 100.24 35.61 121.91 107 12.14 123.77-17.94 136.13-24.31 202.64zM45.32 338.54h191.36c8.76 0 15.92 7.2 15.92 15.92 0 8.72-7.2 15.92-15.92 15.92H45.32c-8.72 0-15.92-7.16-15.92-15.92s7.16-15.92 15.92-15.92zM16.47 478.38h249.06c9.06 0 16.47 7.41 16.47 16.47 0 9.06-7.41 16.47-16.47 16.47H16.47C7.41 511.32 0 503.91 0 494.85c0-9.06 7.41-16.47 16.47-16.47zm216.41-93.3c13.34 23.4 35.16 47.09 31.62 78.59H17.46c-3.54-31.5 21.22-55.19 34.55-78.59h180.87z"/></svg>