<svg xmlns="http://www.w3.org/2000/svg" shape-rendering="geometricPrecision" text-rendering="geometricPrecision" image-rendering="optimizeQuality" fill-rule="evenodd" clip-rule="evenodd" viewBox="0 0 211 511.38"><path d="M47.11 224.55h116.78c5.35 0 9.72 4.39 9.72 9.71v.01c0 5.32-4.39 9.71-9.72 9.71H47.11c-5.33 0-9.72-4.37-9.72-9.71v-.01c0-5.34 4.37-9.71 9.72-9.71zM105.5 0c11.37 0 20.58 9.22 20.58 20.59 0 8.62-5.3 16-12.82 19.06h.02c5.34 4.27 10.45 8.7 15.25 13.27l-28.54 62.71c-2.25 4.96-.06 10.82 4.9 13.08 4.97 2.25 10.82.06 13.08-4.9l25.19-55.37c29.01 34.74 38.15 75.39.84 114.72H67C18.77 132.33 48.14 79.27 97.72 39.65h.02c-7.52-3.06-12.82-10.44-12.82-19.06C84.92 9.22 94.13 0 105.5 0zM58.56 255c-1.1 44.28-11.17 87.49-22.25 116.1h138.38c-12.89-32.46-23.55-75.09-25.04-116.1H58.56zM33.91 382.1h143.18c6.56 0 11.92 5.39 11.92 11.91 0 6.52-5.39 11.91-11.92 11.91H33.91c-6.53 0-11.92-5.35-11.92-11.91 0-6.55 5.36-11.91 11.92-11.91zM12.32 486.74h186.36c6.78 0 12.32 5.54 12.32 12.32s-5.54 12.32-12.32 12.32H12.32C5.54 511.38 0 505.84 0 499.06s5.54-12.32 12.32-12.32zm161.93-69.81c9.98 17.5 26.31 35.23 23.66 58.8H13.06c-2.65-23.57 15.88-41.3 25.85-58.8h135.34zM61.37 194.14h88.26c5.34 0 9.71 4.41 9.71 9.71 0 5.31-4.41 9.72-9.71 9.72H61.37c-5.3 0-9.71-4.37-9.71-9.72 0-5.34 4.37-9.71 9.71-9.71z"/></svg>