<svg xmlns="http://www.w3.org/2000/svg" shape-rendering="geometricPrecision" text-rendering="geometricPrecision" image-rendering="optimizeQuality" fill-rule="evenodd" clip-rule="evenodd" viewBox="0 0 166 512.89"><path d="M41.08 261.18c-.98 39.54-9.97 115.81-19.86 141.36h123.56c-11.51-28.98-21.03-104.74-22.36-141.36H41.08zm9.8-71.77h64.24c4.21 0 7.65 3.48 7.65 7.65 0 4.16-3.48 7.64-7.65 7.64H50.88c-4.17 0-7.65-3.44-7.65-7.64 0-4.21 3.44-7.65 7.65-7.65zm-22.45 47.84h109.14c4.21 0 7.65 3.46 7.65 7.65s-3.46 7.64-7.65 7.64H28.43c-4.19 0-7.65-3.43-7.65-7.64 0-4.21 3.44-7.65 7.65-7.65zm11.22-23.92h86.7c4.2 0 7.64 3.47 7.64 7.65 0 4.17-3.47 7.64-7.64 7.64h-86.7c-4.17 0-7.64-3.44-7.64-7.64 0-4.21 3.44-7.65 7.64-7.65zM26.68 411.18h112.64c5.16 0 9.38 4.24 9.38 9.37 0 5.13-4.24 9.37-9.38 9.37H26.68c-5.14 0-9.38-4.21-9.38-9.37 0-5.16 4.22-9.37 9.38-9.37zM9.69 493.5h146.62c5.33 0 9.69 4.36 9.69 9.69 0 5.34-4.36 9.7-9.69 9.7H9.69c-5.33 0-9.69-4.36-9.69-9.7 0-5.33 4.36-9.69 9.69-9.69zm127.4-54.92c7.85 13.77 20.69 27.71 18.61 46.26H10.28c-2.09-18.55 12.49-32.49 20.33-46.26h106.48zM69.71 2.74c5.77-3.34 19.74-3.95 26.58 0L89.36 34l31.26-6.93c3.34 5.77 3.95 19.74 0 26.58l-31.26-6.93 6.93 31.26c-6.84 3.95-20.81 3.34-26.58 0l6.93-31.26-31.26 6.93c-3.95-6.84-3.34-20.81 0-26.58L76.64 34 69.71 2.74zm-6.63 84.53h39.84c.83 0 1.51.68 1.51 1.51v10.17h22.86c5.53-.09 9.35 2.2 11.29 5.67 6.48 11.61-8.85 23.4-13.55 35.59-3.98 10.35-4.09 18.84-4.09 29.54v7.88c0 1.73-1.42 3.15-3.15 3.15H48.21c-1.73 0-3.15-1.42-3.15-3.15v-7.88c0-10.7-.1-19.19-4.09-29.54-4.7-12.2-20.03-23.98-13.55-35.59 1.94-3.47 5.76-5.76 11.29-5.67h22.86V88.78c0-.83.68-1.51 1.51-1.51z"/></svg>