<svg xmlns="http://www.w3.org/2000/svg" shape-rendering="geometricPrecision" text-rendering="geometricPrecision" image-rendering="optimizeQuality" fill-rule="evenodd" clip-rule="evenodd" viewBox="0 0 471 511.77"><path d="M235.51 433.34c5 0 9.05 4.05 9.05 9.05 0 5-4.05 9.05-9.05 9.05-5 0-9.05-4.05-9.05-9.05 0-5 4.05-9.05 9.05-9.05zm92.93-249.19-4.69-33.93c-31.46-13.57-61.81-19.16-91.19-18.53-29.22.62-57.61 7.42-85.27 18.62l-4.7 33.78c24.62-13.39 58.71-20.11 92.75-20.11 34.01 0 68.21 6.71 93.1 20.17zm-92.93-123.5c12.47 0 22.58 10.12 22.58 22.59s-10.11 22.59-22.58 22.59c-12.48 0-22.59-10.12-22.59-22.59s10.11-22.59 22.59-22.59zM237.99 0c7.09 0 12.89 5.8 12.89 12.89v4.36c21.53 3.12 41.04 13.08 55.86 27.59 17.54 17.2 28.53 40.79 28.53 67.02l-.87 33.79 8.48 61.43-3.17-2.23c-.79 3.41-1.8 6.58-2.82 9.17l-.03.11c-2.05 5.23-4.79 9.99-7.98 13.5-2.67 2.85-5.67 4.9-8.92 5.7-.63 2.01-1.32 4.1-1.83 6.15-3.62 12.21-6.47 21.83-14.01 31.38-1.64 2.08-3.4 4.09-5.26 5.99-1.29 1.36-2.6 2.64-3.96 3.85.18 1.88.2 15.61.18 23.83 7.51 1.31 13.54 2.28 19.52 3.25 62.65 10.09 122.09 19.67 137.97 98.13l18.34 99.26a5.583 5.583 0 0 1-5.49 6.58l-114.17.01-.39.01-.4-.01-230.65.01H5.6c-3.09 0-5.6-2.51-5.6-5.6 0-.46.06-.9.16-1.32l13.58-82.79c18.25-92.87 65.89-102.15 136.01-115.8 8.1-1.58 16.5-3.22 24.79-4.96.49-.11.98-.14 1.46-.11v-20.38l.05-2.73c-6.95-6.28-12.65-14.63-16.47-23.13-2.67-5.93-4.79-12.33-7.25-19.57l-1.27-3.77c-2.79-.36-5.38-1.65-7.72-3.55-2.93-2.41-5.45-5.92-7.5-9.98-1.6-3.15-3.34-7.91-4.54-13.17l-3.19 2.28 8.52-61.38-1.9-29.83a87.52 87.52 0 0 1-.19-5.64c0-25.31 10.9-48.04 28.14-64.83 16.37-15.94 38.49-26.52 62.41-28.83v-3.79C225.09 5.8 230.9 0 237.99 0zm55.48 315.6c-4.4 13.43-15.09 22.77-28.38 28.13-8.93 3.59-19.07 5.36-29.18 5.32-10.12-.04-20.25-1.89-29.16-5.5-14.49-5.89-25.9-16.4-29.41-31.46-.17.06-.34.1-.52.14-6.65 1.4-12.91 2.65-18.94 3.83.37 24.37 3.27 43.16 14.03 60.26 8.86 14.07 23.14 27.32 45.79 41.95 5.02-3.59 11.17-5.7 17.81-5.7 6.14 0 11.87 1.82 16.68 4.96 16.59-11.04 29.22-22.22 38.57-35.16 12.09-16.74 18.9-36.73 21.93-63.6-6.85-1.11-13.74-2.21-19.22-3.17zm29.96-177.31.64-24.25v-2.18c0-23.1-9.69-43.89-25.16-59.06-15.54-15.22-36.88-24.8-60.12-25.4l-3.82-.01c-2.06 0-4.02.06-5.84.18-22.49 1.43-43.39 11.07-58.66 25.95-15.16 14.75-24.74 34.68-24.74 56.82 0 1.75.05 3.39.15 4.94l1.49 23.28c27.49-10.67 55.76-17.11 84.98-17.73 29.44-.63 59.76 4.65 91.08 17.46zm-182.76 59.98c1.21 5.72 3.53 11.66 5.08 14.8 1.39 2.74 2.96 5.01 4.61 6.36 3 2.38 3.99-.29 7.2 1.43 2.75 1.5 3.37 5.19 4.32 7.94l1.13 3.36c2.2 6.58 4.21 12.44 6.55 17.74 4.87 10.86 11.38 18.62 20.78 25.79 28.09 21.33 65.27 22.24 93.19.07 4.36-3.44 8.34-7.35 11.85-11.82 3.08-3.83 5.27-7.93 7.06-12.43 1.86-4.61 3.37-9.58 5.01-15.18.95-3.21 1.91-6.44 2.93-9.66 1.57-6.1 6.33-2.01 10.46-6.54 2.08-2.38 4.06-6.04 5.66-10.13.63-1.61 2.67-6.59 3.99-11.61-23.31-15.5-59.2-23.22-95.15-23.22-35.98 0-71.71 7.73-94.67 23.1zm46.36 105.21c.3 1.79.5 1.68.61 2.69 1.54 12.94 10.97 22 23.31 27.01 7.63 3.1 16.32 4.68 25 4.72 8.7.03 17.38-1.47 24.98-4.54 12.22-4.92 21.58-13.98 23.23-27.21.11-.92.45-1.77.94-2.49v-15.1c-29.67 18.61-58.62 19.97-90.16 3.62-2.99-1.57-5.99-3.29-9.03-5.23l1.12 16.53zm30.39 125.24c-.46.57-.89 1.15-1.3 1.77-2.4 3.66-3.8 8.04-3.8 12.73 0 12.81 10.38 23.2 23.19 23.2 8.4 0 7.38 11.52 7.37 13.6v8.11h15.62v-41.84a23.71 23.71 0 0 0 0-6.13v-.02h-.01c-.52-3.93-2.03-7.55-4.26-10.61l-.11-.15c-.27-.34-.53-.68-.81-1.02l-.12-.14-.12-.14-.06-.07-.06-.07-.12-.14-.13-.14-.12-.13-.13-.14c-.29-.31-.6-.62-.91-.92l-.14-.13-.41-.38-.13-.12-.14-.12-.15-.12-.11-.1-.03-.02-.14-.12-.29-.24-.14-.11-.15-.11-.05-.04-.09-.08-.15-.11-.15-.11-.02-.01-.13-.1-.15-.11-.13-.09-.02-.02-.16-.1-.15-.11-.09-.06-.06-.04-.16-.11-.16-.1-.05-.04-.1-.06-.16-.1-.16-.09-.16-.1-.16-.1-.14-.08-.02-.01-.16-.09-.17-.09-.16-.09-.16-.09-.17-.09-.06-.03-.1-.06-.17-.08-.17-.09-.02-.01-.15-.07-.17-.08-.17-.08-.17-.08a23.004 23.004 0 0 0-9.58-2.07c-3.9 0-7.57.96-10.79 2.66l-.16.08-.11.06-.05.03-.16.09-.17.09-.11.07-.04.02-.17.1-.15.09-.12.07-.04.03-.16.09-.15.1-.12.08-.04.02-.15.1-.15.1-.13.08-.03.02-.15.11-.15.1-.13.09-.02.02-.15.1-.14.11-.14.1-.01.01-.15.11-.15.12-.13.1-.01.01-.14.11-.15.12-.13.11h-.01l-.14.12-.14.12-.27.24-.14.12-.27.24-.14.13-.13.13-.01.01-.12.11-.13.13-.13.13-.02.02-.11.11-.13.13-.13.13-.02.02-.1.11-.13.14-.61.68-.11.14-.12.14-.12.14-.11.15zm-7.59-2.25c-23.06-15.13-37.88-29.13-47.36-44.2-11.79-18.73-15.17-38.66-15.71-64.04-62.92 12.3-105.68 22.71-122.05 105.97l-4.48 27.31H114v-50.49c0-3.09 2.5-5.6 5.6-5.6 3.08 0 5.59 2.51 5.59 5.6v99.55h220.07v-99.55c0-3.09 2.51-5.6 5.6-5.6s5.59 2.51 5.59 5.6v50.49h93.2l-8.04-43.5c-13.48-66.4-63.32-78.41-117.9-87.45-3.29 28.59-10.71 50.07-23.9 68.33-9.8 13.57-22.69 25.21-39.37 36.54 2.7 3.78 4.56 8.2 5.32 12.98.11.47.18.95.2 1.45.11 1.17.16 2.18.2 3.36-.04 1.17-.09 2.17-.2 3.32v41.59a7.46 7.46 0 0 1-7.46 7.46h-15.62c-4.12 0-7.47-3.34-7.47-7.46v-8.11l.05-.83v-1.38c0-1.38.09-3.93.05-3.93-8.47 0-16.13-3.43-21.68-8.98-5.54-5.55-8.98-13.21-8.98-21.68 0-6.18 1.83-11.93 4.98-16.75zM15.8 478.45l-3.63 22.12H114v-22.12H15.8zm340.65 22.12h102.26l-4.08-22.12h-98.18v22.12z"/></svg>