<svg xmlns="http://www.w3.org/2000/svg" shape-rendering="geometricPrecision" text-rendering="geometricPrecision" image-rendering="optimizeQuality" fill-rule="evenodd" clip-rule="evenodd" viewBox="0 0 280 512.65"><path d="M20.66 22.48h31.18c2.45 0 4.46 2.02 4.46 4.47v467.18h63.66V26.93c0-2.45 2-4.45 4.45-4.45h31.17c2.46 0 4.46 2.02 4.46 4.47v467.18h63.66V26.93c0-2.45 2-4.45 4.45-4.45h31.17c2.46 0 4.47 2.02 4.47 4.47v467.18h13.81c1.32 0 2.4 1.08 2.4 2.4v13.72c0 1.32-1.08 2.4-2.4 2.4H2.4c-1.32 0-2.4-1.08-2.4-2.4v-13.72c0-1.32 1.08-2.4 2.4-2.4h13.81V26.93c0-2.45 2-4.45 4.45-4.45zM143.51 5.33h20.31v-.19c0-2.82 2.32-5.14 5.14-5.14h44.07c2.81 0 5.14 2.31 5.14 5.14v.19h21.12c.88 0 1.63.73 1.63 1.62v7.74c0 .9-.73 1.63-1.63 1.63h-21.12v.19c0 2.82-2.32 5.14-5.14 5.14h-44.07c-2.83 0-5.14-2.32-5.14-5.14v-.19h-20.31c-.88 0-1.62-.73-1.62-1.63V6.95c0-.89.73-1.62 1.62-1.62zm-8.97 0h-20.31v-.19c0-2.82-2.31-5.14-5.14-5.14H65.02c-2.82 0-5.13 2.31-5.13 5.14v.19H38.76c-.9 0-1.63.73-1.63 1.62v7.74c0 .9.75 1.63 1.63 1.63h21.13v.19c0 2.82 2.32 5.14 5.13 5.14h44.07c2.82 0 5.14-2.32 5.14-5.14v-.19h20.31c.89 0 1.62-.73 1.62-1.63V6.95c0-.89-.75-1.62-1.62-1.62z"/></svg>