<svg id="Layer_1" data-name="Layer 1" xmlns="http://www.w3.org/2000/svg" viewBox="0 0 122.88 95.16"><defs><style>.cls-1{fill-rule:evenodd;}</style></defs><title>game-controller</title><path class="cls-1" d="M49,49.58l-3.63,3.63V46L49,49.58Zm55.47-28.35h.27a2.51,2.51,0,0,1,1.93.91C118,33.88,124,59.37,122.7,76.43a34.17,34.17,0,0,1-2.83,12c-1.74,3.58-4.25,5.93-7.61,6.55-4.28.79-9.63-1.47-16.06-8-.83-.84-1.69-1.69-2.57-2.56a74.51,74.51,0,0,1-8.83-9.81H38.08a73.06,73.06,0,0,1-8.85,9.84c-.87.86-1.73,1.7-2.55,2.53-6.43,6.55-11.78,8.81-16.06,8C7.26,94.39,4.74,92,3,88.46a34.22,34.22,0,0,1-2.83-12C-1.15,59.29,4.9,33.65,16.4,22a2.48,2.48,0,0,1,1.78-.75h.28c7.09-9.76,23-9.86,30.09,0h7.91C55.85,6.29,60,2.54,66.13,2.12a31.1,31.1,0,0,1,7,.65c4.65.77,9.8,1.62,13.45-2a2.48,2.48,0,0,1,3.54,0,2.5,2.5,0,0,1,0,3.54c-5.47,5.46-12,4.39-17.8,3.42a27.84,27.84,0,0,0-5.89-.59c-3.31.22-5.51,3-5,14.12H74.34c7.07-9.79,23-9.82,30.09,0ZM39.19,37v6.66h6.66c7.54,0,7.54,11.4,0,11.4H39.19v6.66c0,7.54-11.4,7.54-11.4,0V55.07H21.13c-7.54,0-7.54-11.4,0-11.4h6.66V37c0-7.54,11.4-7.54,11.4,0ZM91.27,31.2a5.26,5.26,0,1,1-7.44,0,5.25,5.25,0,0,1,7.44,0Zm0,22.94a5.26,5.26,0,1,1-7.44,0,5.25,5.25,0,0,1,7.44,0Zm12.62-12a5.26,5.26,0,1,1-7.44,0,5.27,5.27,0,0,1,7.44,0Zm-25.25,0a5.26,5.26,0,1,1-7.44,0,5.25,5.25,0,0,1,7.44,0Zm-45-7.88,3.63,3.63H30.05l3.63-3.63ZM18.39,49.58,22,53.21V46l-3.63,3.63ZM33.68,64.86l3.63-3.63H30.05l3.63,3.63Z"/></svg>