<svg xmlns="http://www.w3.org/2000/svg" shape-rendering="geometricPrecision" text-rendering="geometricPrecision" image-rendering="optimizeQuality" fill-rule="evenodd" clip-rule="evenodd" viewBox="0 0 452 511.67"><path fill-rule="nonzero" d="M377.86 6.03c1.7-4.73 6.9-7.19 11.63-5.5 4.72 1.7 7.18 6.9 5.49 11.63-10.97 30.4-21.75 61.1-32.64 91.77l38.88 15.1 33.09-94.38c1.65-4.74 6.84-7.25 11.58-5.59 4.75 1.65 7.25 6.84 5.6 11.58l-81.76 233.22c-.08.24-.16.49-.26.73l-8.7 24.82c-23.39 58-39.7 98.43-75.46 124.25-4.08 2.93-9.76 2.01-12.69-2.07-2.93-4.07-2.01-9.76 2.06-12.69 31.45-22.7 46.95-61.11 69.16-116.2l5.72-16.3-41.71-16.77c-22.7 53.22-49.17 87.24-127.82 75.23-.4-.06-.78-.15-1.16-.25L60.18 300.26c-14.64-2.48-25.54-1.08-32.25 4.63-6.7 5.69-10.05 16.37-9.72 32.5.47 5.35.73 9.07.98 12.75 1.74 25.13 3.43 49.43 23.12 66.55h.03c2.14 1.86 4.41 3.51 6.81 4.93 2.51 1.47 5.12 2.71 7.86 3.7 4.73 1.69 7.18 6.9 5.49 11.62a9.074 9.074 0 0 1-11.62 5.49c-3.99-1.43-7.65-3.15-11-5.13a64.22 64.22 0 0 1-9.52-6.85l.02-.02C4.96 408.32 3.02 380.31 1.01 351.35c-.32-4.66-.64-9.34-.91-12.43l-.07-.93c-.5-22.12 5.05-37.59 16.13-47.01 11.09-9.43 26.92-12.1 47.01-8.68 36.05 8.04 83.86 19.59 119.57 24.52 79.24 12.1 96.71-33.13 121.04-96.07l3.11-8.05L377.86 6.03zm-21.62 115.05c-11.53 32.3-23.25 64.5-35.49 96.23-2.04 5.27-4.03 10.43-6.02 15.46l40.86 16.44 39.61-113-38.96-15.13zM95.27 418.33c2.05 2.99 7.48 6.01 15.04 8.81 13.76 5.09 33.03 8.25 52.84 8.97 19.85.73 40.07-.97 55.67-5.61 9.97-2.96 17.72-6.95 21.49-11.99-8.81-12.5-31.61-19.53-56.72-21.73-13.54-1.19-27.54-.91-40.4.72-12.67 1.61-24.27 4.5-33.24 8.58-7.79 3.53-13.19 7.7-14.68 12.25zm146.28 22.32c-5.12 2.94-11.06 5.38-17.6 7.32-17.47 5.19-39.76 7.12-61.44 6.33-21.72-.8-43.03-4.33-58.48-10.05-3.27-1.21-6.32-2.54-9.11-3.99v28.57h-.04v1.11c0 2.48-.01 2.77 2.26 5.08l1.08 1.03c14.04 12.93 43.9 18.09 73.27 17.37 29.34-.72 57.37-7.21 67.98-17.62l.61-.63c1.57-1.71 1.55-2.54 1.53-4.57l-.02-2.12h-.04v-27.83zm-56.39-62.05c32.97 2.88 63.35 14.15 73.5 35.33a9.073 9.073 0 0 1 1.15 4.43v50.12h-.04l.02 1.89c.1 7.2.14 10.13-6.31 17.14l-1.28 1.3c-13.89 13.59-46.84 21.97-80.29 22.79-33.45.83-68.26-5.79-86.03-22.14l-1.72-1.68c-7.49-7.63-7.49-8.69-7.46-17.84v-1.11h-.04V419.4l.04-.79c1.11-12.66 10.94-22.41 25.77-29.15 10.54-4.78 23.95-8.16 38.44-10 14.3-1.81 29.64-2.14 44.25-.86z"/></svg>