<svg id="Layer_1" data-name="Layer 1" xmlns="http://www.w3.org/2000/svg" viewBox="0 0 122.88 122.38"><defs><style>.cls-1{fill-rule:evenodd;}</style></defs><title>horse-riding</title><path class="cls-1" d="M111,69.47c-1.67-.33-3-2.67-3.9-8.3-1.45-.28-3,.13-4.6,2-3.15,3.49-3.44,6.76-3.83,11.25-.44,4.91-.66,9.67-4.46,14.13a30.24,30.24,0,0,0,9.56,5.22,10.41,10.41,0,0,1,3.71,2.7,3.31,3.31,0,0,1,.63,3.22,23.79,23.79,0,0,0-1.58,10.84,13.5,13.5,0,0,1-4,5l-1.1.85-1.7,2.39c-2.27,3.19-5.14,5.27-5.12-.89a10.37,10.37,0,0,1,3.89-4.73l1.59.19a24.41,24.41,0,0,0,3-7.54,7.72,7.72,0,0,0-.85-6.37l-1.62-1.24-.55,3.22c-1.41,2.9-2.57,5.62-2.39,7.51-.62,2.26-1.59,3.31-2.9,3.19-1-.15-2.57.86-4.93,3.29-1.67,1.18-3.09,1.54-4.25,1.06-1-.94.18-3.27,2.72-6.51a4.38,4.38,0,0,1,3.5,0,23.64,23.64,0,0,1,3.5-5.28,9.32,9.32,0,0,0,.78-7.55c-2,1.6-5.77.54-10.19-1.44l-1-4.43c-11.26,2.5-22,1.39-28.25-6.42-.84.06-2.06,1.57-4,4.31-3.07,1.38-7.24,4.79-10.67,7a6.85,6.85,0,0,0-3.46,6.22,20.56,20.56,0,0,1,3.71,8.22c2.34,1.55,4.1,2.77,5.14,4.45a5.17,5.17,0,0,1-.06,4.17l-1.55-.27.24,2.77c-1.51,1.39-3.42.85-6.55-1.2l.06-4.33-3-3.16c.25-3.4-.33-7.18-3.44-12.13-3.09-1.63-3.71-4.18-1.27-7.87,3.56-2.52,6.09-5.48,6.51-9.31-4-7.7-4.33-16,.16-22.41-8.51-8.7-8.74,26.43-34.27,3.36A40.9,40.9,0,0,1,0,59.78c4.12,1.6,16.49,5.39,21.1,2,9-4,17.06-5.94,23.89-5.07a17.19,17.19,0,0,1,8.19-.91c.3,0,.61.07.91.12a9.28,9.28,0,0,1-.56-.83,8.25,8.25,0,0,1-1.15-3.36h0a7.29,7.29,0,0,1,0-1.4L53.8,33c-1.14.07-2.48-.12-3.49.47-2,1.13-4.54,5.32-6.13,7.33l-2.13,2.71c-1.64,2.08-2.63,4.34-5.5,4.4-3.57.13-6.53-3.5-4.39-6.78l4.9-6.24c2.35-3,4.53-6.5,7.62-8.74a17.66,17.66,0,0,1,10-3.48c1.75-.2,3.61-.22,5.36-.25l2.06-.06c8-.39,12.25,3.39,15.54,6.31a13.8,13.8,0,0,0,4,2.86c.59.2,1.44-.28,2.4-.82l7.08-3.59,4.7-2.55h0a4.28,4.28,0,0,1,4.66,1.17,8.3,8.3,0,0,1,1.13,2,6.4,6.4,0,0,1,.36,1.51c0,.2,0,.4,0,.6-.65,2.33-2.22,3.33-3.95,4.85a41.8,41.8,0,0,1-5.53,3.13c-1,.52-2.06,1-3.12,1.48s-2.12.92-3.22,1.3a12.76,12.76,0,0,1-2.8.63,13.14,13.14,0,0,1-9-2.23,34.56,34.56,0,0,1-2.79-2.16l-.27-.24-.71,13.14a43.51,43.51,0,0,0,5.55,2.45A46.58,46.58,0,0,1,81,54.11c.37-.26.76-.52,1.17-.79,4.88-3.19,8.56-3.09,1.93-3.92,8.54-6.37,21-2.65,12.84-6.34,6.06-1.23,12.18-.25,18.45,5.21,2.8-1.28,9.16-3.79,4.72,1.13l2.75-.53-3.27,5.67c1.15,2.9-.93,9-1.39,13.5.57,2.24.11,4.24-1.89,6.56-3.9,1.51-6.94-1.26-5.29-5.13ZM62.3.27c5.11-1.46,10.27,3.18,10.87,8.47A9.64,9.64,0,1,1,54.52,6.59c.85-2.41,2.29-4.74,4.74-5.44l3-.88Z"/></svg>