<svg id="Layer_1" data-name="Layer 1" xmlns="http://www.w3.org/2000/svg" viewBox="0 0 98.76 122.88"><defs><style>.cls-1{fill:#fe0000;}</style></defs><title>playing-card-diamond</title><path class="cls-1" d="M15,0h68.8A15,15,0,0,1,94.36,4.4a2.44,2.44,0,0,1,.27.29A14.93,14.93,0,0,1,98.76,15V107.9a15,15,0,0,1-15,15H15a14.94,14.94,0,0,1-10.57-4.41h0A15,15,0,0,1,0,107.9V15A15,15,0,0,1,15,0ZM27.41,61.47a84.15,84.15,0,0,0,22-22,72.79,72.79,0,0,0,22,21.94,82.11,82.11,0,0,0-22,22,76.77,76.77,0,0,0-22-22ZM83.78,8.84H15A6.18,6.18,0,0,0,8.84,15V107.9a6.15,6.15,0,0,0,1.81,4.33h0A6.12,6.12,0,0,0,15,114h68.8a6.18,6.18,0,0,0,6.14-6.14V15a6.16,6.16,0,0,0-1.62-4.16l-.19-.17a6.13,6.13,0,0,0-4.33-1.81Z"/></svg>