<svg id="Layer_1" data-name="Layer 1" xmlns="http://www.w3.org/2000/svg" viewBox="0 0 98.76 122.88"><defs><style>.cls-1{fill:#fe0000;}</style></defs><title>playing-card-heart</title><path class="cls-1" d="M15,0h68.8A15,15,0,0,1,94.36,4.4a2.44,2.44,0,0,1,.27.29A14.93,14.93,0,0,1,98.76,15V107.9a15,15,0,0,1-15,15H15a14.94,14.94,0,0,1-10.57-4.41h0A15,15,0,0,1,0,107.9V15A15,15,0,0,1,15,0Zm34.4,47.1a16.92,16.92,0,0,1,4-4.84A12.73,12.73,0,0,1,74,49.86a11.55,11.55,0,0,1-.11,5.3c-.93,3.38-4,6.79-7.31,9.91C65,66.56,63.52,68,62,69.35c-4.65,4.35-9.22,8.83-12.65,14.22-3.43-5.39-8-9.87-12.64-14.22-1.49-1.39-3-2.79-4.59-4.28-3.31-3.12-6.39-6.53-7.31-9.91a11.42,11.42,0,0,1-.12-5.3,12.73,12.73,0,0,1,20.68-7.6,16.92,16.92,0,0,1,4,4.84ZM83.78,8.84H15A6.18,6.18,0,0,0,8.84,15V107.9a6.15,6.15,0,0,0,1.81,4.33h0A6.12,6.12,0,0,0,15,114h68.8a6.18,6.18,0,0,0,6.14-6.14V15a6.16,6.16,0,0,0-1.62-4.16l-.19-.17a6.13,6.13,0,0,0-4.33-1.81Z"/></svg>