<svg id="Layer_1" data-name="Layer 1" xmlns="http://www.w3.org/2000/svg" viewBox="0 0 98.76 122.88"><title>playing-card-club</title><path d="M15,0h68.8A15,15,0,0,1,94.36,4.4a2.44,2.44,0,0,1,.27.29A14.93,14.93,0,0,1,98.76,15V107.9a15,15,0,0,1-15,15H15a14.94,14.94,0,0,1-10.57-4.41h0A15,15,0,0,1,0,107.9V15A15,15,0,0,1,15,0ZM38.23,54.06l.72,0a11.34,11.34,0,1,1,21.79-4.42,11.23,11.23,0,0,1-.9,4.42l.69,0a11.34,11.34,0,1,1-9,18.27C53.57,76.1,56,80,60.11,82v2.59H38.65V82c3.15-1.14,5.66-4.75,7.84-8.8a11.34,11.34,0,1,1-8.26-19.11ZM83.78,8.84H15A6.18,6.18,0,0,0,8.84,15V107.9a6.15,6.15,0,0,0,1.81,4.33h0A6.12,6.12,0,0,0,15,114h68.8a6.18,6.18,0,0,0,6.14-6.14V15a6.16,6.16,0,0,0-1.62-4.16l-.19-.17a6.13,6.13,0,0,0-4.33-1.81Z"/></svg>