<svg id="Layer_1" data-name="Layer 1" xmlns="http://www.w3.org/2000/svg" viewBox="0 0 91.85 122.88"><defs><style>.cls-1{fill-rule:evenodd;}</style></defs><title>pool-table</title><path class="cls-1" d="M18.65,100.23h0a3,3,0,0,0,4.07,1.09l12.82-8,0,0L32.6,88.62l0,0L19.74,96.15a3,3,0,0,0-1.09,4.08ZM10,0H81.84a10,10,0,0,1,7,2.94l0,0a10,10,0,0,1,2.93,7V112.87a10,10,0,0,1-2.94,7l0,0a10,10,0,0,1-7,2.92H10a10,10,0,0,1-7-2.94l0,0a10,10,0,0,1-2.92-7V10A10,10,0,0,1,2.94,3l0,0A10,10,0,0,1,10,0ZM81.69,121h-.3v-2.65a7.4,7.4,0,0,0,3.62-2h0a7.38,7.38,0,0,0,2-3.77h2.84v.21a8.24,8.24,0,0,1-2.4,5.79l0,0a8.18,8.18,0,0,1-5.77,2.4Zm-71.53,0h.29v-2.65a7.37,7.37,0,0,1-3.61-2h0a7.44,7.44,0,0,1-2-3.77H2v.21a8.21,8.21,0,0,0,2.41,5.79l0,0a8.18,8.18,0,0,0,5.77,2.4Zm1.89-4.6a5.28,5.28,0,1,0-5.27-5.27,5.27,5.27,0,0,0,5.27,5.27Zm0-109.84a5.28,5.28,0,1,1-5.27,5.27,5.27,5.27,0,0,1,5.27-5.27Zm-1.89-4.6h.29V4.57a7.37,7.37,0,0,0-3.61,2h0a7.4,7.4,0,0,0-2,3.77H2v-.21A8.21,8.21,0,0,1,4.36,4.34l0,0a8.18,8.18,0,0,1,5.77-2.4Zm69.63,4.6a5.28,5.28,0,1,0,5.27,5.27,5.27,5.27,0,0,0-5.27-5.27Zm1.9-4.6h-.3V4.57a7.4,7.4,0,0,1,3.62,2h0a7.34,7.34,0,0,1,2,3.77h2.84v-.21a8.24,8.24,0,0,0-2.4-5.79l0,0a8.18,8.18,0,0,0-5.77-2.4Zm-1.9,114.44a5.28,5.28,0,1,1,5.27-5.27,5.27,5.27,0,0,1-5.27,5.27ZM10.51,103.85a7.19,7.19,0,0,1,1.54-.16,7.37,7.37,0,0,1,7.4,7.4,6.84,6.84,0,0,1-.11,1.28H72.5a7.81,7.81,0,0,1-.11-1.28,7.39,7.39,0,0,1,7.4-7.4,7.21,7.21,0,0,1,1.55.16V19a7.21,7.21,0,0,1-1.55.16,7.39,7.39,0,0,1-7.4-7.4,7.81,7.81,0,0,1,.11-1.28H19.34a6.84,6.84,0,0,1,.11,1.28,7.37,7.37,0,0,1-7.4,7.4A7.19,7.19,0,0,1,10.51,19v84.82ZM26.14,25.48A5.56,5.56,0,1,1,20.58,31a5.56,5.56,0,0,1,5.56-5.56ZM52.91,56.14a3.18,3.18,0,1,1-3.18,3.18,3.18,3.18,0,0,1,3.18-3.18ZM26.14,27.86A3.18,3.18,0,1,1,23,31a3.18,3.18,0,0,1,3.18-3.18Zm13.19,0A3.18,3.18,0,1,1,36.15,31a3.18,3.18,0,0,1,3.18-3.18Zm13.19,0A3.18,3.18,0,1,1,49.34,31a3.18,3.18,0,0,1,3.18-3.18Zm13.19,0A3.18,3.18,0,1,1,62.53,31a3.18,3.18,0,0,1,3.18-3.18ZM59.9,42a3.18,3.18,0,1,1-3.18,3.18A3.18,3.18,0,0,1,59.9,42Zm-14,0a3.18,3.18,0,1,1-3.18,3.18A3.18,3.18,0,0,1,45.92,42ZM32,42a3.18,3.18,0,1,1-3.18,3.18A3.18,3.18,0,0,1,32,42Zm7,14.14a3.18,3.18,0,1,1-3.18,3.18,3.18,3.18,0,0,1,3.18-3.18Zm14-2.38a5.56,5.56,0,1,1-5.55,5.56,5.56,5.56,0,0,1,5.55-5.56Zm-14,0a5.56,5.56,0,1,1-5.55,5.56,5.56,5.56,0,0,1,5.55-5.56Zm21-14.14a5.56,5.56,0,1,1-5.56,5.56,5.56,5.56,0,0,1,5.56-5.56Zm-14,0a5.56,5.56,0,1,1-5.55,5.56,5.56,5.56,0,0,1,5.55-5.56Zm-14,0a5.56,5.56,0,1,1-5.56,5.56A5.56,5.56,0,0,1,32,39.62ZM65.71,25.48A5.56,5.56,0,1,1,60.15,31a5.55,5.55,0,0,1,5.56-5.56Zm-13.19,0A5.56,5.56,0,1,1,47,31a5.55,5.55,0,0,1,5.56-5.56Zm-13.19,0A5.56,5.56,0,1,1,33.77,31a5.56,5.56,0,0,1,5.56-5.56ZM36.68,92.57l36.66-23.3,0,0-2.09-3.5h0L33.73,87.9h0l2.92,4.64,0,0Zm37.8-24,1.93-1.22c3.12-2,.6-5-2-3.5l-2,1.2h0l2.1,3.5v0Z"/></svg>