<svg xmlns="http://www.w3.org/2000/svg" shape-rendering="geometricPrecision" text-rendering="geometricPrecision" image-rendering="optimizeQuality" fill-rule="evenodd" clip-rule="evenodd" viewBox="0 0 512 414.47"><path fill-rule="nonzero" d="M296.13 137.2V88.29H195.58v49.16c.49.8 1.39 1.34 2.28 1.34h95.9c.95 0 1.91-.7 2.37-1.59zm-155.51 98.91c-3 .16-5.58-2.14-5.74-5.14-.16-3.01 2.14-5.59 5.14-5.75 3.81-.21 6.94-1.35 9.5-3.27 2.68-2.01 4.89-4.97 6.71-8.72 2.07-4.26 8.2-3.98 9.96.32 7.25 14.19 25.43 15.42 32.16.17 1.86-4.23 7.76-4.33 9.84-.34 9.73 17.53 21.9 13.86 32.74-.71 2.41-3.26 7.71-2.85 9.55.8 7.6 15.1 24.68 17.69 32.06 1.36 1.71-3.72 6.84-4.38 9.35-1 10.84 14.57 23 18.26 32.73.72 2.09-4.01 7.98-3.9 9.84.33 6.87 15.58 25.36 13.69 32.32-.48 3.14-6.43 12.93-1.66 9.78 4.78-6.96 14.16-23.8 22.09-38.47 14.88-3.25-1.6-6.26-3.91-8.83-6.98-1.76 2.11-3.63 3.9-5.59 5.36-7.99 5.95-17.25 6.24-25.89 1.47-3.22-1.77-6.42-4.28-9.56-7.54-7.67 9.66-20.17 13.32-31.57 8.18-4.31-1.95-8.37-5.13-11.81-9.6-9.76 10.28-23.16 15.66-35.7 6.32-1.96-1.46-3.83-3.24-5.59-5.35-11.2 13.37-30.66 12.46-42.22-.38-1.58 1.95-3.33 3.66-5.28 5.12-4.29 3.22-9.38 5.12-15.43 5.45zm-17.95 83.91c-3 .15-5.57-2.16-5.72-5.17a5.448 5.448 0 0 1 5.17-5.72c3.78-.2 6.91-1.34 9.47-3.27 2.69-2.01 4.9-4.97 6.71-8.69 1.31-2.7 4.57-3.85 7.28-2.54a5.47 5.47 0 0 1 2.62 2.71c7.07 14.05 25.39 15.79 32.23.29 1.86-4.23 7.75-4.32 9.83-.33 9.75 17.54 21.89 13.85 32.74-.72 2.5-3.37 7.66-2.73 9.34 1.01 6 13.23 20.22 15.03 29.1 3.42 2.38-3.12 7.22-2.61 9.39.43 8.69 12.2 23.42 11.06 29.64-2.69 1.71-3.72 6.84-4.38 9.35-1 10.82 14.56 23.01 18.25 32.73.72a5.347 5.347 0 0 1 2.64-2.47c2.75-1.21 5.98.04 7.19 2.8 6.8 15.42 25.25 13.93 32.33-.48 1.32-2.7 4.59-3.82 7.28-2.5 2.7 1.31 3.82 4.58 2.5 7.28-4.54 9.24-13.29 15.82-22.9 17.27-9.36 1.42-18.39-2.21-24.41-9.37-1.75 2.11-3.63 3.89-5.58 5.35-7.99 5.95-17.25 6.25-25.9 1.48-3.21-1.77-6.42-4.28-9.56-7.55-1.75 2.22-3.75 4.1-5.9 5.64-7.6 5.42-17.14 6.4-25.66 2.55-3.1-1.4-6.08-3.45-8.78-6.15-9.74 8.76-23.36 10-33.98 1.88-1.86-1.42-3.6-3.12-5.15-5.08-9.75 10.14-23.05 15.3-35.45 6.07-1.96-1.46-3.83-3.25-5.59-5.36-7.91 9.44-20.61 12.16-31.82 7.2-3.84-1.69-7.41-4.24-10.41-7.57-1.58 1.95-3.33 3.66-5.27 5.12-4.29 3.21-9.4 5.11-15.46 5.44zm0-40.93c-3 .15-5.57-2.16-5.72-5.16a5.448 5.448 0 0 1 5.17-5.72c3.78-.21 6.91-1.35 9.47-3.27 2.68-2.01 4.89-4.98 6.71-8.72 2.08-4.26 8.2-3.98 9.96.32 7.14 13.96 25.37 15.59 32.17.17 1.86-4.23 7.75-4.34 9.83-.33 9.73 17.53 21.9 13.84 32.74-.72 2.5-3.37 7.66-2.73 9.34 1.01 6 13.22 20.21 15.02 29.1 3.41 2.37-3.11 7.23-2.61 9.39.44 8.7 12.19 23.42 11.06 29.64-2.69 1.71-3.72 6.84-4.39 9.35-1.01 10.83 14.57 23 18.25 32.73.72 2.09-4 7.98-3.89 9.83.33 6.88 15.59 25.35 13.7 32.33-.5 3.17-6.43 12.96-1.61 9.78 4.82-6.95 14.13-23.84 22.03-38.49 14.85-3.24-1.59-6.24-3.9-8.81-6.97-1.76 2.11-3.63 3.9-5.59 5.35-7.99 5.96-17.25 6.26-25.9 1.48-3.22-1.77-6.42-4.28-9.55-7.55-1.76 2.22-3.75 4.11-5.9 5.64-7.61 5.42-17.15 6.4-25.67 2.55-3.1-1.4-6.07-3.44-8.78-6.15-2.37 2.14-4.92 3.8-7.56 4.99-8.86 4-18.73 2.79-26.42-3.11-1.87-1.42-3.6-3.12-5.15-5.08-3.14 3.26-6.34 5.77-9.55 7.54-8.66 4.78-17.91 4.48-25.91-1.47-1.96-1.46-3.82-3.24-5.58-5.35-11.21 13.35-30.69 12.44-42.23-.38a29.649 29.649 0 0 1-5.27 5.12c-4.29 3.22-9.4 5.12-15.46 5.44zM28.15 402.61h455.69c1.82 0 3.72-.34 5.56-.94 3.08-1.02 5.91-2.74 7.93-4.88 1.71-1.81 2.8-3.9 2.8-5.98 0-.65-.1-1.32-.33-2l-77.07-233.03c-6.58-19.9-11.63-29.85-19.5-34.44-8.06-4.69-20.61-4.81-41.66-4.81h-53.58v21.22h25.34c22.98 0 36.96.09 47.84 6.32 11.08 6.34 17.46 18.11 24.6 41.2l48.84 157.6c.57 1.87.85 3.7.85 5.47 0 5.44-2.43 10.41-6.22 14.38-3.49 3.66-8.23 6.5-13.24 8.06-2.84.87-5.78 1.36-8.64 1.36H84.64c-2.88 0-5.82-.49-8.64-1.37-5.01-1.56-9.74-4.43-13.23-8.08-3.8-3.99-6.23-8.96-6.23-14.39 0-1.77.28-3.6.85-5.45l50.52-162.41c13.49-43.36 30.62-43.17 66.69-42.75l9.12.05v-21.21h-26.43l-10.74-.1c-30.24-.33-44-.48-55.59 34.54L12.19 388.81c-.22.68-.33 1.35-.33 1.99 0 6.89 10.18 11.81 16.29 11.81zm279.84-297.94h53.58c23.03 0 36.81.16 47.59 6.43 10.95 6.38 17.28 18.11 24.83 40.97l77.08 233.03c.63 1.92.93 3.84.93 5.71 0 5.31-2.35 10.17-6.05 14.09-3.4 3.6-7.98 6.43-12.84 8.03-3.01.99-6.17 1.54-9.27 1.54H28.15c-3.09 0-6.26-.55-9.27-1.54-4.86-1.61-9.44-4.45-12.83-8.04C2.35 400.97 0 396.11 0 390.8c0-1.87.3-3.79.93-5.7L79.7 147.26c14.31-43.22 30.77-43.04 66.94-42.65l10.65.06h26.43V43.09c0-11.85 4.85-22.63 12.66-30.44C204.18 4.85 214.96 0 226.82 0c11.83 0 22.6 4.85 30.41 12.65 7.83 7.81 12.68 18.59 12.68 30.44 0 3.27-2.66 5.93-5.93 5.93-3.28 0-5.94-2.66-5.94-5.93 0-8.58-3.51-16.39-9.17-22.05-5.65-5.67-13.46-9.18-22.05-9.18s-16.4 3.52-22.06 9.18-9.18 13.47-9.18 22.05v33.34h100.55V43.09c0-11.85 4.85-22.63 12.65-30.44l.36-.32C316.92 4.72 327.55 0 339.22 0c11.86 0 22.64 4.85 30.44 12.65 7.8 7.81 12.65 18.59 12.65 30.44 0 3.27-2.66 5.93-5.93 5.93-3.27 0-5.93-2.66-5.93-5.93 0-8.58-3.51-16.39-9.18-22.05-5.66-5.66-13.46-9.18-22.05-9.18-8.45 0-16.14 3.4-21.78 8.89l-.27.29c-5.66 5.66-9.18 13.47-9.18 22.05v61.58zM84.64 360.27h342.72c1.72 0 3.48-.28 5.16-.8 3.14-.97 6.05-2.71 8.14-4.9 1.79-1.87 2.93-4.05 2.93-6.23 0-.67-.09-1.35-.29-1.99l-48.83-157.61c-6.18-19.92-11.2-29.82-19.19-34.38-8.16-4.68-20.93-4.75-41.95-4.75h-25.34v38.13c0 3.27-2.66 5.93-5.93 5.93-3.27 0-5.93-2.66-5.93-5.93v-36.75H195.58v36.75a5.93 5.93 0 0 1-5.93 5.93c-3.27 0-5.93-2.66-5.93-5.93V149.6l-9.21-.09c-30.11-.35-44.41-.52-55.29 34.45L68.7 346.37c-.2.64-.29 1.29-.29 1.93 0 2.18 1.14 4.35 2.93 6.23 2.11 2.21 5.03 3.96 8.16 4.93 1.7.53 3.44.81 5.14.81z"/></svg>