<svg id="Layer_1" data-name="Layer 1" xmlns="http://www.w3.org/2000/svg" viewBox="0 0 122.88 122.67"><defs><style>.cls-1{fill-rule:evenodd;}</style></defs><title>skating</title><path class="cls-1" d="M29,57.88l.37-.06L34.7,56c.34-.18.69-.36,1-.56a.81.81,0,0,1,.15-.27,83.72,83.72,0,0,0,5.19-7.43c-3.27,0-5-.83-6-1.8-1.84-1.91-1-4.18.83-6a11,11,0,0,1,4.16-2.44,4.78,4.78,0,0,1,4.28.35c1.38,1.06,1.72,3.46-.31,7.87A61.32,61.32,0,0,0,52.8,44l-.42-.62c.62-.37,1.25-.72,1.9-1,.21.49.44,1,.67,1.46a.85.85,0,0,1,.2.22.93.93,0,0,1,.13.45c12.13,24.09,42.47,23.75,65.11,5a71.11,71.11,0,0,1,1.74,10.06c.5,4.64.7,9.34.75,13.26L90,72.54c-9.74.35-21.22.61-30.94,2.33-8.36,1.48-13.9,2.39-22.37,2.39H.48C-1.43,69.13,2.22,60.18,13.2,58.14c5.33-1,10.27.48,15.82-.26ZM110.12,39,114,1.83a1.72,1.72,0,0,0-3.43-.23l-4.11,39.18c-.41.28-.82.58-1.22.89C85.76,56.92,78.57,45.17,71,40.54L69.57,2.06a1.72,1.72,0,1,0-3.43.1l1.42,36.9a7.52,7.52,0,0,0-1-.15c-2-.16-4.37.41-7.79,1.68,9.17,22.58,40.71,22.14,60,4.23a16.83,16.83,0,0,0-1.38-2.58c-2.11-3.17-4.67-3.89-7.31-3.2ZM21.18,101.11H27a13.53,13.53,0,1,0,21.8,0H81.58a13.53,13.53,0,1,0,21.8,0h4.41L116.34,92H13.28l7.9,9.08Zm22.14,2.55a7.74,7.74,0,1,0,2.27,5.47,7.69,7.69,0,0,0-2.27-5.47Zm-5.48,1.16a4.32,4.32,0,1,1-4.31,4.31,4.31,4.31,0,0,1,4.31-4.31Zm54.64,0a4.32,4.32,0,1,1-4.32,4.31,4.31,4.31,0,0,1,4.32-4.31ZM98,103.66a7.74,7.74,0,1,0,2.27,5.47A7.67,7.67,0,0,0,98,103.66ZM37.52,56.21l4,5.6,4.1-2.88L42,53.42l-4.44,2.79ZM41,51.91h0l1.38-1.06.1.14,4.49-2.84-.42-.63.44-.34c-1.45.25-2.74.42-3.87.5a53.53,53.53,0,0,1-3,4.78l.86-.55Zm2.52.54,4,5.65,4.1-2.87-3.69-5.58-4.44,2.8Zm4.93-5.54.15.22.59-.38-.74.16Zm1.19,1.68,3.56,5,4.1-2.87L54,45.82l-4.4,2.77ZM36.37,44.71c.74.77,2.38,1.37,5.74,1.23,2.08-3.91,2.09-5.87,1.15-6.6a3.15,3.15,0,0,0-2.66-.05,9,9,0,0,0-3.44,2c-1.14,1.1-1.73,2.42-.79,3.4Zm86.5,32.48c0,2-.1,3.6-.17,4.45-.31,4-5.31,7.92-9.39,7.92h-94c-8.32,0-14.09-2.52-17-7.68h35C52.71,83.17,67.81,77,86.78,77.34l36.09-.15Z"/></svg>