<svg id="Layer_1" data-name="Layer 1" xmlns="http://www.w3.org/2000/svg" viewBox="0 0 92.72 122.88"><defs><style>.cls-1{fill-rule:evenodd;}</style></defs><title>skate</title><path class="cls-1" d="M61.55,83.43c1.38-7.5,4.33-12.8,8.86-16,4.36-3,10.13-4,17.34-3.07V43.31H51.54a29,29,0,0,1-5.13,14.55,28.22,28.22,0,0,1-11.89,9.19A25.09,25.09,0,0,1,23.3,69.51l-1.44.06a20.69,20.69,0,0,1,4.63,7.58,25.66,25.66,0,0,1,1.14,11c7.21-.25,14.72-1,22.46-1.94a64,64,0,0,0,11.37-2.78l.09,0ZM88.64,33.8l.41-16.73a1.13,1.13,0,1,0-2.26,0L86.38,33.8H53.87L51.15,1.05a1.12,1.12,0,0,0-1.21-1,1.15,1.15,0,0,0-1,1.22L51.55,33.8h-3a2,2,0,0,0-1.45.59,2.1,2.1,0,0,0-.6,1.46v5.41a2.06,2.06,0,0,0,.6,1.45,2,2,0,0,0,1.45.6h.67a26.64,26.64,0,0,1-4.68,13.23,26,26,0,0,1-11,8.44,23.07,23.07,0,0,1-10.39,2.27c-1.25,0-2.64.1-4.24.24C12.8,68,8.32,70,5.35,73.2S1,80.79.9,86.18l-.2.11a1.13,1.13,0,0,0-.7,1v6.39H0a1.27,1.27,0,0,0,0,.34h0a1.1,1.1,0,0,0,.48.62l7.09,9.16H12a12.2,12.2,0,1,0,20.19,0h30.5a12.2,12.2,0,1,0,20.07-.17L89.2,97.6a1.14,1.14,0,0,0,.92-1.11V83a1.13,1.13,0,0,0-.11-.48V43.31h.65a2,2,0,0,0,1.45-.6,2,2,0,0,0,.61-1.45V35.85a2.07,2.07,0,0,0-.61-1.46,2,2,0,0,0-1.45-.59Zm-11,72a6.88,6.88,0,0,0-3.58-1.91H71.38a7,7,0,0,0,1.36,13.83,7,7,0,0,0,4.93-11.92Zm-4.93,1.31a3.63,3.63,0,1,1-3.62,3.63,3.62,3.62,0,0,1,3.62-3.63ZM27,105.75a6.92,6.92,0,0,0-3.58-1.91h-2.7a6.88,6.88,0,0,0-3.58,1.91,7,7,0,1,0,9.86,0ZM22,107.06a3.63,3.63,0,1,1-3.62,3.63A3.63,3.63,0,0,1,22,107.06ZM47.77,96.84l-.26.08h-.1l.36-.07Zm40-30.17c-6.77-1-12.11-.1-16,2.65S65.35,76.4,64,82.67a49.26,49.26,0,0,1,6-1.48,33.29,33.29,0,0,1,9.71-.11,53,53,0,0,1,8,1.67V66.67Zm-68.94,3.1c-5.4.51-9.27,2.21-11.8,5S3.23,81.37,3.15,86.16l0,0a89.75,89.75,0,0,0,21.91,2h.27a23.48,23.48,0,0,0-1-10.35,18.6,18.6,0,0,0-5.55-8.12ZM87.86,85.13a53.09,53.09,0,0,0-8.36-1.81,31.4,31.4,0,0,0-9.08.09,63.57,63.57,0,0,0-8.28,2.2,66,66,0,0,1-11.79,2.88,250.07,250.07,0,0,1-25.22,2A91.16,91.16,0,0,1,2.26,88.31v4.55a100.44,100.44,0,0,0,30.14,3.5,91.43,91.43,0,0,0,29.48-5.91,1,1,0,0,1,.49-.11,1.13,1.13,0,0,1,1.13,1.13v3.89H87.86V85.13ZM55.49,44.81a3.28,3.28,0,1,1-2.31,1h0a3.27,3.27,0,0,1,2.31-1Zm.72,2.56a1,1,0,0,0-1.43,0h0a1,1,0,0,0-.29.72,1,1,0,0,0,.3.72,1,1,0,0,0,1.73-.72,1,1,0,0,0-.3-.71ZM53,52.94a3.28,3.28,0,0,1,3.27,3.28,3.18,3.18,0,0,1-1,2.3h0a3.26,3.26,0,0,1-4.62,0h0a3.27,3.27,0,0,1-1-2.3,3.33,3.33,0,0,1,1-2.32l.08-.06a3.23,3.23,0,0,1,2.24-.9Zm.72,2.56a1,1,0,0,0-.72-.29,1,1,0,0,0-.68.25l0,0a1,1,0,0,0,1.43,1.43h0a1,1,0,0,0,.29-.71,1,1,0,0,0-.29-.72ZM49,59.36a3.27,3.27,0,0,1,2.31,1,3.27,3.27,0,0,1,0,4.63l-.07.07A3.27,3.27,0,1,1,49,59.36Zm.71,2.56a1,1,0,0,0-1.42,0,1,1,0,0,0-.3.72,1,1,0,0,0,.3.71,1,1,0,0,0,.71.3,1,1,0,0,0,.68-.26l0,0a1,1,0,0,0,.3-.71,1,1,0,0,0-.3-.72Zm-6.53,2.55a3.27,3.27,0,0,1,2.31,1h0a3.27,3.27,0,0,1,0,4.63l-.07.07a3.27,3.27,0,0,1-4.56-.07L40.8,70a3.21,3.21,0,0,1-.9-2.23,3.27,3.27,0,0,1,1-2.32,3.31,3.31,0,0,1,2.32-1ZM43.9,67a1,1,0,0,0-.72-.3,1,1,0,0,0-.71.3,1,1,0,0,0,0,1.39l0,0a1,1,0,0,0,.71.3,1,1,0,0,0,.68-.26l0,0a1,1,0,0,0,.29-.71A1,1,0,0,0,43.9,67Z"/></svg>