<svg id="Layer_1" data-name="Layer 1" xmlns="http://www.w3.org/2000/svg" viewBox="0 0 122.88 30"><title>skateboard</title><path d="M30.67,14.91a7.73,7.73,0,0,1,.67.6,8.49,8.49,0,1,1-12,0,8.72,8.72,0,0,1,.78-.69c1.54.07,3.13.09,4.81.09ZM.94,4.81A2.74,2.74,0,0,1,4.55.68c3.43,3,5.52,4.66,8.81,5.54a45.25,45.25,0,0,0,11.57,1H97a53.29,53.29,0,0,0,12.2-1c3.58-.87,5.91-2.48,9-5.48a2.74,2.74,0,0,1,3.83,3.93c-3.89,3.78-7.08,5.8-11.57,6.88A57,57,0,0,1,97,12.77H24.93a49.57,49.57,0,0,1-13-1.24C7.86,10.44,5.07,8.44.94,4.81Zm100.24,10c.26.21.5.43.74.66a8.49,8.49,0,1,1-12,0c.21-.21.44-.41.67-.6H97c1.4,0,2.78,0,4.17-.06ZM98.46,19a3.6,3.6,0,1,0,1.05,2.54A3.59,3.59,0,0,0,98.46,19ZM27.88,19a3.6,3.6,0,1,0,1.05,2.54A3.58,3.58,0,0,0,27.88,19Z"/></svg>