<svg id="Layer_1" data-name="Layer 1" xmlns="http://www.w3.org/2000/svg" viewBox="0 0 122.88 93.69"><defs><style>.cls-1{fill-rule:evenodd;}</style></defs><title>snooker-billiards</title><path class="cls-1" d="M.73,82.11h0a5.47,5.47,0,0,0,7.54,2L32,69.28l0-.06-5.41-8.56,0-.07-23.73,14a5.54,5.54,0,0,0-2,7.53ZM34.89,0A28.3,28.3,0,0,1,60.33,40.63L110.59,11l0,0,3.88,6.46,0,.07L83,37.31A28.25,28.25,0,1,1,53.19,56L34.07,68l0-.06-5.42-8.57h0l4.77-2.81A28.27,28.27,0,0,1,34.89,0Zm81.75,16.23L120.21,14c5.76-3.6,1.1-9.32-3.73-6.47l-3.74,2.21h0l3.88,6.46,0,0ZM74,69.76l5-14.23H71.82v-5H84.29l1.22,2L79.57,69.76ZM78.66,44A16.18,16.18,0,1,1,62.48,60.13,16.17,16.17,0,0,1,78.66,44ZM32.11,32.78a10.45,10.45,0,0,1-1.94-.17A4.9,4.9,0,0,1,28.44,32a3.38,3.38,0,0,1-1.22-1.34,5,5,0,0,1-.45-2.29V25.78A4.43,4.43,0,0,1,27,24.54a3,3,0,0,1,.6-1.12,1.9,1.9,0,0,1,1.14-.64,2.76,2.76,0,0,1-1.1-.94,2.49,2.49,0,0,1-.38-1.14c0-.41-.05-.85-.05-1.3V17.23a3.84,3.84,0,0,1,.66-2.36,3.66,3.66,0,0,1,1.74-1.27,6.64,6.64,0,0,1,2.29-.39h3.68a6.67,6.67,0,0,1,2.31.39,3.69,3.69,0,0,1,1.73,1.27,3.84,3.84,0,0,1,.66,2.36V19.4a6,6,0,0,1-.06.73,5.08,5.08,0,0,1-.2,1,2.43,2.43,0,0,1-.47.87,1.3,1.3,0,0,1-.83.44,2,2,0,0,1,1.31.85,3.52,3.52,0,0,1,.52,1.33,7.22,7.22,0,0,1,.12,1.19v2.57a4.81,4.81,0,0,1-.7,2.84,3.4,3.4,0,0,1-1.85,1.27,8.82,8.82,0,0,1-2.46.32ZM33,28.53h1.35c.57,0,.91-.11,1-.32a1.7,1.7,0,0,0,.19-.87V26.12a1.28,1.28,0,0,0-.3-.87,1.09,1.09,0,0,0-.87-.35H33a1.55,1.55,0,0,0-.55.09.92.92,0,0,0-.37.26,1.07,1.07,0,0,0-.22.39,1.51,1.51,0,0,0-.08.48v1.22a1.26,1.26,0,0,0,.27.93,1.38,1.38,0,0,0,1,.26Zm0-7.88h1.35a1.2,1.2,0,0,0,.66-.14.67.67,0,0,0,.24-.46,4.07,4.07,0,0,0,.06-.77v-.81c0-.5-.1-.79-.3-.88a1.59,1.59,0,0,0-.66-.13H33a1.48,1.48,0,0,0-.71.14c-.17.1-.25.39-.25.87v.81a1.84,1.84,0,0,0,.22,1.15,1,1,0,0,0,.74.22Zm.67-13.84A16.19,16.19,0,1,1,17.51,23,16.19,16.19,0,0,1,33.69,6.81Z"/></svg>