<svg xmlns="http://www.w3.org/2000/svg" shape-rendering="geometricPrecision" text-rendering="geometricPrecision" image-rendering="optimizeQuality" fill-rule="evenodd" clip-rule="evenodd" viewBox="0 0 192 511.72"><path fill-rule="nonzero" d="M96 511.72H50.9c-6.08 0-11.06-2.38-14.88-6.21-3.84-3.84-6.37-9.18-7.54-14.86-8.45-41.18-15.76-80.81-20.86-119.35C2.51 332.68-.37 295.17.04 258.33c.49-43.56 5.84-86.14 19.5-128.47C33.23 87.45 55.21 45.36 88.96 2.9A7.638 7.638 0 0 1 94.95.02l2.1-.02c2.61 0 4.91 1.3 6.3 3.29 33.56 42.32 55.46 84.28 69.11 126.57 13.66 42.33 19.01 84.91 19.5 128.47.41 36.84-2.47 74.35-7.58 112.97-5.11 38.54-12.41 78.17-20.86 119.35-1.17 5.68-3.7 11.02-7.54 14.86-3.82 3.83-8.8 6.21-14.88 6.21H96zm29.32-385.22c-5.62-20.84-15.33-39.67-28.14-56.99-12.43 17.32-21.23 36.45-26.85 56.99h54.99zm-.09-32.88c5.99 12.4 10.21 24.84 12.99 37.39l1.55 6.98H55.69l1.66-7.05c2.96-12.52 7.12-25.2 12.88-37.73C76 80.65 83.34 68.3 92.62 56.48l4.49-5.71 4.52 5.69c9.86 12.41 17.62 24.77 23.6 37.16zm3.93 94.2.01-.5c.14-9.25-.29-18.5-1.43-27.69H65.2c-1.58 9.75-2.58 18.31-2.26 28.19h66.22zm11.46-.37a239.8 239.8 0 0 1-.17 6.34l-.23 5.52H52.11l-.34-5.41c-1.02-16.61.83-29.36 3.84-45.76h82.01c2.08 13.43 3.21 25.65 3 39.31zm-36.96 276.38c0 4.23-3.43 7.67-7.66 7.67s-7.66-3.44-7.66-7.67v-33.54c0-4.23 3.43-7.67 7.66-7.67s7.66 3.44 7.66 7.67v33.54zM50.9 496.39h90.2c1.63 0 2.99-.66 4.04-1.71 1.68-1.68 2.83-4.24 3.41-7.08 8.39-40.9 15.64-80.2 20.68-118.28 5.03-37.99 7.87-74.82 7.46-110.87-.47-42.07-5.62-83.15-18.78-123.92C145.45 95.94 125.77 57.54 96 18.74c-29.77 38.8-49.46 77.19-61.91 115.79-13.16 40.77-18.31 81.85-18.78 123.92-.41 36.05 2.43 72.88 7.46 110.87 5.04 38.08 12.29 77.38 20.68 118.28.58 2.84 1.73 5.4 3.41 7.08 1.05 1.05 2.41 1.71 4.04 1.71z"/></svg>