<svg xmlns="http://www.w3.org/2000/svg" shape-rendering="geometricPrecision" text-rendering="geometricPrecision" image-rendering="optimizeQuality" fill-rule="evenodd" clip-rule="evenodd" viewBox="0 0 512 366.49"><path fill-rule="nonzero" d="M28.05 0h455.9c7.72 0 14.74 3.15 19.82 8.23S512 20.33 512 28.05v310.39c0 7.72-3.15 14.74-8.23 19.82s-12.1 8.23-19.82 8.23H28.05c-7.72 0-14.74-3.15-19.82-8.23S0 346.16 0 338.44V28.05c0-7.72 3.15-14.74 8.23-19.82S20.33 0 28.05 0zm125.59 174.11h93.22V77.34h-93.22v96.77zm111.5 0h93.22V77.34h-93.22v96.77zm111.49 7.43c.1.55.16 1.12.16 1.71 0 .58-.06 1.15-.16 1.7v104.2h117.1V77.34h-117.1v104.2zm-18.27 10.84h-93.22v96.77h93.22v-96.77zm-111.5 0h-93.22v96.77h93.22v-96.77zm-111.49 96.77V77.34H18.27v211.81h117.1zm111.49 59.07v-40.8H18.27v31.02c0 2.68 1.1 5.12 2.88 6.9 1.78 1.78 4.22 2.88 6.9 2.88h218.81zm0-289.15v-40.8H28.05c-2.68 0-5.12 1.1-6.9 2.88-1.78 1.78-2.88 4.22-2.88 6.9v31.02h228.59zm18.28-40.8v40.8h228.59V28.05c0-2.68-1.1-5.12-2.88-6.9-1.78-1.78-4.22-2.88-6.9-2.88H265.14zm0 289.15v40.8h218.81c2.68 0 5.12-1.1 6.9-2.88 1.78-1.78 2.88-4.22 2.88-6.9v-31.02H265.14z"/></svg>