<svg xmlns="http://www.w3.org/2000/svg" shape-rendering="geometricPrecision" text-rendering="geometricPrecision" image-rendering="optimizeQuality" fill-rule="evenodd" clip-rule="evenodd" viewBox="0 0 477 511.74"><path d="m335.34 191.12-5.03-36.37-.26-.1c-61.57-26.84-121.66-25.09-183.31.15l-5.04 36.26c50.76-28.9 142.84-28.68 193.64.06zm-81.51 207.67 32.16 48.52c4.75 7.24 4.58 11.13-3.03 15.94l-32.22 20.19c-7.84 4.96-12.47 5.26-17.92-3.1l-34.99-53.11c-2.18-5.3-1.12-9.13 2.59-11.78l24.74-15.56c-22.89-13.31-40.83-25.36-53.23-38-14.36-14.63-21.45-29.99-20.37-48.63-60.93 11.41-113.17 22.11-128.31 99.1l-3.47 25.72h92.71v-36.17h11.33v98.91h-11.33v-37.4H16.37l-5.1 37.79h454.35l-5.9-37.79h-95.73v37.4h-11.32v-98.91h11.32v36.17h91.77l-6.39-40.91c-12.44-61.2-69.74-73.26-123.81-81.75.42 17.68-6.66 32.41-20.46 46.47-12.05 12.28-29.32 24-51.3 36.87l.03.03zm-18.34-5.95c2.3-.73 4.6-.88 6.9-.49 23.89-13.71 42.37-25.86 54.66-38.38 12.08-12.31 18.05-25.05 17.14-40.31-3.45-.53-6.88-1.06-10.36-1.62-21.36 37.48-112.34 36.62-131.21-2.79-3.22.64-6.42 1.26-9.6 1.86l-.02.53c-1.58 16.16 4.36 29.48 16.98 42.33 12.43 12.67 31.22 24.95 55.51 38.87zm64.19-92.13c5.65.94 11.85 1.9 18.12 2.86 60.07 9.24 127.28 19.58 141.87 91.62 6.42 36.42 11.54 73.86 17.27 110.49a5.243 5.243 0 0 1-4.38 5.98l-.81.06-466.48.02a5.269 5.269 0 0 1-5.16-6.35l12.81-95.02c16.71-85 73.35-95.59 139.05-107.87l.18-.03c7.47-1.39 15.07-2.82 22.72-4.37.87-.18 1.74-.13 2.54.11l.05-12.7c-14.8-13.39-19.51-29.6-25.66-47.7-2.85-.38-5.52-1.7-7.92-3.65-9.63-7.9-13.58-22.82-13.29-34.62l.59.1 6.93-49.9-1.96-30.73c-.13-2.03-.2-3.94-.2-5.72 0-50.79 42.88-90.27 91.87-95.05v-5.01c0-7.28 5.96-13.23 13.24-13.23s13.23 5.95 13.23 13.23v5.6c47.71 6.99 85.54 47 85.54 96.02-.9 2.41-.78 30.42-.89 34.76l6.9 49.98c.06.33.07.67.05 1.01l.28.01c1.4 9.9-5.03 25.65-11.79 33.1-2.74 2.93-5.81 5.04-9.15 5.86-6.24 19.97-9.11 33.81-25.74 48.63.12 1.2.17 6.65.19 12.51zM238.51 62.27c12.81 0 23.19 10.39 23.19 23.19 0 12.81-10.38 23.2-23.19 23.2s-23.19-10.39-23.19-23.2c0-12.8 10.38-23.19 23.19-23.19zm91.37 80.16.7-27.58c-.04-48.61-40.94-86.59-88.67-87.83-3.35-.01-6.66-.04-10.01.17-45.49 2.9-86.67 38.9-86.67 86.1 0 1.81.05 3.53.15 5.14l1.55 24.26c61.29-24.05 121.69-25.63 182.95-.26zM140.9 202.4c1.15 6.18 5.05 18.66 10.19 22.9 3.08 2.44 4.09-.3 7.39 1.47 2.82 1.54 3.46 5.33 4.43 8.14 6.86 20.36 10.87 34.14 29.23 48.15 28.84 21.9 67 22.84 95.67.07 19.4-15.3 20.65-28.54 27.57-50.4 1.62-6.27 6.5-2.06 10.74-6.72 4.44-5.06 8.64-16.95 10.19-23.46-47.94-31.56-147.5-31.88-195.41-.15zm47.45 110.67c22.05 20.82 79.05 21.52 101.08.45v-17.24c-30.47 19.11-60.19 20.49-92.57 3.71-3.08-1.61-6.15-3.38-9.27-5.36l.76 18.44zm61.16 91.82c.11.6.17 1.23.17 1.86 0 5.71-4.62 10.34-10.33 10.34-5.7 0-10.32-4.63-10.32-10.34 0-.63.05-1.26.16-1.86 5.7 2.75 12.54 2.59 20.32 0z"/></svg>