<svg xmlns="http://www.w3.org/2000/svg" shape-rendering="geometricPrecision" text-rendering="geometricPrecision" image-rendering="optimizeQuality" fill-rule="evenodd" clip-rule="evenodd" viewBox="0 0 491 511.57"><defs><linearGradient id="a" gradientUnits="userSpaceOnUse" x1="245.5" y1="419.86" x2="245.51" y2="163.93"><stop offset="0" stop-color="#F39500"/><stop offset=".4" stop-color="#F8A80E"/><stop offset="1" stop-color="#FEBB1D"/></linearGradient></defs><path fill="url(#a)" d="M84.46 335.14h108.88a62.555 62.555 0 0 1-10.63-34.97c0-17.33 7.03-33.03 18.39-44.39 11.36-11.37 27.07-18.4 44.4-18.4s33.04 7.03 44.4 18.4c11.36 11.36 18.39 27.06 18.39 44.39 0 12.94-3.92 24.97-10.63 34.97H405.1l50.1-138.76a26.9 26.9 0 0 0 8.27 1.28c15.18 0 27.53-12.31 27.53-27.53 0-15.19-12.31-27.53-27.53-27.53-15.18 0-27.53 12.3-27.53 27.53 0 5.99 1.92 11.5 5.16 16.02l-28.45 23.41c-39.84 32.76-64.81 17.58-57.02-33.32l4.4-28.65c1.52.28 3.11.4 4.71.4 15.19 0 27.53-12.3 27.53-27.52 0-15.19-12.3-27.53-27.53-27.53-15.18 0-27.52 12.3-27.52 27.53 0 8.66 4.03 16.41 10.3 21.45l-6.83 10.79c-33.48 50.26-58.17 31-68.04-18.66L255.03 52.9c9.87-4.2 16.82-13.94 16.82-25.37C271.85 12.35 259.54 0 244.32 0c-15.18 0-27.53 12.31-27.53 27.53 0 12.7 8.59 23.37 20.26 26.57l-11.43 46.27c-9.91 42.39-21.77 126.85-75.43 54.85l-8.75-11.9c6.91-5 11.43-13.15 11.43-22.34 0-15.18-12.31-27.53-27.53-27.53-15.19 0-27.53 12.31-27.53 27.53 0 15.19 12.31 27.53 27.53 27.53 2.11 0 4.19-.24 6.19-.72l1.84 18.7c3.59 25.53 8.19 60.09-21.14 58.45-14.54-.8-20.01-5.75-31.12-13.66l-31.73-22.5a27.336 27.336 0 0 0 5.68-16.74c0-15.18-12.31-27.53-27.53-27.53C12.35 144.51 0 156.82 0 172.04c0 15.23 12.31 27.53 27.53 27.53 3.6 0 6.99-.68 10.15-1.91l46.78 137.48zm-.23 38.39H405.9v46.33H84.23v-46.33z"/><circle fill="#F52B26" cx="245.5" cy="300.17" r="43.95"/><path fill="#F52B26" d="M84.23 363.71H405.9v147.86H84.23V363.71z"/><path fill="#fff" fill-rule="nonzero" d="M207.91 397.41h26.91l-12.61 80.47H188.6l-5.92-29.62h-1.55l-5.79 29.62h-33.61l-12.62-80.47h26.91l6.06 44.93h.77l9.27-44.93h19.7l9.14 44.93h.77l6.18-44.93zm128.89 80.47-19.7-28.59c-.68-.94-1.11-3-1.28-6.18h-.52v34.77h-25.75v-80.47h24.21l19.7 28.58c.68.94 1.11 3 1.28 6.18h.52v-34.76h25.75v80.47H336.8zm-90.71 0v-80.47h25.75v80.47h-25.75z"/></svg>