<svg xmlns="http://www.w3.org/2000/svg" shape-rendering="geometricPrecision" text-rendering="geometricPrecision" image-rendering="optimizeQuality" fill-rule="evenodd" clip-rule="evenodd" viewBox="0 0 512 490.19"><path fill-rule="nonzero" d="M133.3 206.57c16.27 29.35 35.02 57.51 59.4 83.2 24.38 25.88 54.76 49.39 94.11 69.41 2.88 1.45 5.67 1.45 8.11.43 3.79-1.46 7.53-4.49 11.35-8.27 2.87-2.88 6.54-7.56 10.32-12.61 15.09-19.89 33.84-44.59 60.27-32.26.59.27 1.02.59 1.61.87l88.08 50.69c.28.16.6.44.87.6 11.62 7.95 16.43 20.28 16.59 34.27 0 14.22-5.25 30.21-12.93 43.72-10.16 17.84-25.13 29.62-42.38 37.46-16.43 7.52-34.71 11.62-52.27 14.22-27.58 4.06-53.42 1.46-79.89-6.7-25.88-7.95-51.88-21.23-80.32-38.75l-2.05-1.35c-13.04-8.11-27.18-16.86-40.97-27.18-50.65-38.17-102.18-93.36-135.74-154.06C9.3 209.25-6.11 154.22 2.29 101.79 6.93 73.03 19.3 46.88 40.77 29.62c18.71-15.08 44-23.36 76.69-20.48 3.79.27 7.13 2.48 8.87 5.67l56.52 95.57c8.28 10.75 9.3 21.35 4.81 31.98-3.78 8.71-11.35 16.71-21.67 24.27-3.03 2.6-6.69 5.24-10.47 7.96-12.61 9.13-27.02 19.73-22.1 32.26l-.12-.28zm242.58-48.69-6.51 42.84a6.6 6.6 0 0 1-2.44 4.15 6.506 6.506 0 0 1-9.13-1.12L270.66 91.91c-2.07-2.94-1.36-7.01 1.58-9.07L388.37 1.31a6.505 6.505 0 0 1 4.88-1.24c3.56.54 6.01 3.86 5.48 7.42l-6.54 43.01c37.48 8.54 69.95 27.75 91.63 57.56 20.57 28.27 31.33 65.94 27.37 112.88a6.556 6.556 0 0 1-3.29 5.12c-3.13 1.77-7.1.68-8.87-2.44-13.99-24.6-31.12-41.79-52.09-52.37-19.84-10.01-43.33-14.24-71.06-13.37z"/></svg>