<svg id="Layer_1" data-name="Layer 1" xmlns="http://www.w3.org/2000/svg" viewBox="0 0 122.88 106.08"><defs><style>.cls-1{fill-rule:evenodd;}</style></defs><title>chat-edit</title><path class="cls-1" d="M71.54,54.18A30.15,30.15,0,0,1,94.8,45.43V9a1.54,1.54,0,0,0-.47-1.1,1.59,1.59,0,0,0-1.1-.48H9A1.64,1.64,0,0,0,7.41,9V75.47a1.58,1.58,0,0,0,.47,1.11l.1.1A1.64,1.64,0,0,0,9,77H23.66a3.71,3.71,0,0,1,3.71,3.71v13L43.65,78.09a3.68,3.68,0,0,1,2.56-1H62.78a30,30,0,0,1,8.76-22.88Zm30.67-7.3A30.07,30.07,0,1,1,71.54,96.71a30.48,30.48,0,0,1-7.43-12.25H47.68L26.44,104.83a3.76,3.76,0,0,1-2.78,1.25,3.71,3.71,0,0,1-3.7-3.71V84.46H9a9,9,0,0,1-6.06-2.39l-.28-.26A9,9,0,0,1,0,75.47V9A9,9,0,0,1,9,0H93.23a9,9,0,0,1,9,9V46.88ZM25.42,55.24a3.71,3.71,0,0,1,0-7.41H59.81a3.71,3.71,0,1,1,0,7.41Zm0-21.93a3.71,3.71,0,0,1,0-7.41H76.79a3.71,3.71,0,1,1,0,7.41ZM90.84,87.5,78.91,90.68l1.72-12.81L90.84,87.5ZM83.26,75,96,60.59a1.08,1.08,0,0,1,.78-.38,1,1,0,0,1,.55.13l9.09,8.26a.94.94,0,0,1,0,1.39L93.44,84.59,83.25,75Z"/></svg>