<svg id="Layer_1" data-name="Layer 1" xmlns="http://www.w3.org/2000/svg" viewBox="0 0 122.88 106.07"><defs><style>.cls-1{fill-rule:evenodd;}</style></defs><title>chat-lock</title><path class="cls-1" d="M71.54,54.18A30.15,30.15,0,0,1,94.8,45.43V9a1.53,1.53,0,0,0-.47-1.1,1.59,1.59,0,0,0-1.1-.48H9A1.64,1.64,0,0,0,7.41,9V75.46a1.57,1.57,0,0,0,.47,1.11l.1.11A1.64,1.64,0,0,0,9,77H23.66a3.71,3.71,0,0,1,3.71,3.71v13L43.65,78.09a3.68,3.68,0,0,1,2.56-1H62.78a30,30,0,0,1,8.76-22.87Zm30.67-7.31A30.07,30.07,0,1,1,71.54,96.7a30.35,30.35,0,0,1-7.43-12.25H47.68L26.44,104.83a3.75,3.75,0,0,1-2.78,1.24,3.7,3.7,0,0,1-3.7-3.7V84.45H9a9,9,0,0,1-6.06-2.38l-.28-.26A9,9,0,0,1,0,75.46V9A9,9,0,0,1,9,0H93.23a9,9,0,0,1,9,9V46.87ZM25.43,33.31a3.71,3.71,0,1,1,0-7.41H76.79a3.71,3.71,0,1,1,0,7.41Zm0,21.93a3.71,3.71,0,1,1,0-7.41H59.81a3.71,3.71,0,1,1,0,7.41Zm55.41,17.9h2.37V69.86a9.83,9.83,0,0,1,2.89-7h0a9.8,9.8,0,0,1,13.9,0h0a9.83,9.83,0,0,1,2.89,7v3.28h1.89a.77.77,0,0,1,.77.77V90.09a.78.78,0,0,1-.77.77H80.84a.77.77,0,0,1-.77-.77V73.91a.76.76,0,0,1,.77-.77Zm6.2,0h12V69.81a6,6,0,0,0-1.77-4.25h0A6,6,0,0,0,87,69.8v3.34Z"/></svg>