<svg id="Layer_1" data-name="Layer 1" xmlns="http://www.w3.org/2000/svg" viewBox="0 0 122.88 106.07"><defs><style>.cls-1{fill-rule:evenodd;}</style></defs><title>chat-block</title><path class="cls-1" d="M71.54,54.18A30.15,30.15,0,0,1,94.8,45.43V9a1.53,1.53,0,0,0-.47-1.1,1.59,1.59,0,0,0-1.1-.48H9A1.64,1.64,0,0,0,7.41,9V75.46a1.57,1.57,0,0,0,.47,1.11l.1.11A1.64,1.64,0,0,0,9,77H23.66a3.71,3.71,0,0,1,3.71,3.71v13L43.65,78.09a3.68,3.68,0,0,1,2.56-1H62.78a30,30,0,0,1,8.76-22.87Zm30.67-7.31A30.07,30.07,0,1,1,71.54,96.7a30.35,30.35,0,0,1-7.43-12.25H47.68L26.44,104.83a3.75,3.75,0,0,1-2.78,1.24,3.7,3.7,0,0,1-3.7-3.7V84.45H9a9,9,0,0,1-6.06-2.38l-.28-.26A9,9,0,0,1,0,75.46V9A9,9,0,0,1,9,0H93.23a9,9,0,0,1,9,9V46.87ZM25.43,33.31a3.71,3.71,0,1,1,0-7.41H76.79a3.71,3.71,0,1,1,0,7.41Zm0,21.93a3.71,3.71,0,1,1,0-7.41H59.81a3.71,3.71,0,1,1,0,7.41Zm67.38.53a19.51,19.51,0,0,1,3.83.38,18.64,18.64,0,0,1,3.68,1.12,19.51,19.51,0,0,1,3.41,1.81,20.24,20.24,0,0,1,3,2.45,19.23,19.23,0,0,1,2.45,3,19.78,19.78,0,0,1,1.82,3.4,19.59,19.59,0,0,1,0,15,19.56,19.56,0,0,1-1.82,3.41,20.33,20.33,0,0,1-2.45,3,19.57,19.57,0,0,1-3,2.44,18.91,18.91,0,0,1-3.41,1.82,19.59,19.59,0,0,1-15,0,18.91,18.91,0,0,1-3.41-1.82,19.57,19.57,0,0,1-3-2.44l-.06-.07a19.16,19.16,0,0,1-2.39-2.92A20.25,20.25,0,0,1,74.63,83a19.3,19.3,0,0,1-1.11-3.68,19.54,19.54,0,0,1,0-7.67,19.3,19.3,0,0,1,1.11-3.68,19.56,19.56,0,0,1,1.82-3.41,20.66,20.66,0,0,1,2.45-3,20.24,20.24,0,0,1,3-2.45,19.51,19.51,0,0,1,3.41-1.81A18.64,18.64,0,0,1,89,56.15a19.46,19.46,0,0,1,3.84-.38Zm-2.16,6.9,10.4,22.73.37-.32c.17-.15.35-.32.53-.5a12.77,12.77,0,0,0,1.62-2,13.15,13.15,0,0,0,1.19-2.22,13.84,13.84,0,0,0,.73-2.42,13,13,0,0,0,0-5.07A13,13,0,0,0,102,66.28l0,0A13.16,13.16,0,0,0,100,64.66a13.91,13.91,0,0,0-2.22-1.19,12.89,12.89,0,0,0-2.43-.72,12.34,12.34,0,0,0-2.53-.25c-.36,0-.7,0-1,0s-.7.07-1,.12ZM95,88.2,84.55,65.47l-.37.31-.52.51a12.78,12.78,0,0,0-3.54,6.61,13,13,0,0,0,0,5.07,12.11,12.11,0,0,0,.73,2.42A14,14,0,0,0,82,82.62a13.59,13.59,0,0,0,1.62,2l0,.06a13.09,13.09,0,0,0,1.92,1.56,12.65,12.65,0,0,0,4.65,1.92,13.08,13.08,0,0,0,2.53.25c.36,0,.7,0,1,0s.7-.07,1-.12Z"/></svg>