<svg id="Layer_1" data-name="Layer 1" xmlns="http://www.w3.org/2000/svg" viewBox="0 0 122.88 106.08"><defs><style>.cls-1{fill-rule:evenodd;}</style></defs><title>chat-secure</title><path class="cls-1" d="M71.54,54.18A30.15,30.15,0,0,1,94.8,45.43V9a1.54,1.54,0,0,0-.47-1.1,1.59,1.59,0,0,0-1.1-.48H9A1.64,1.64,0,0,0,7.41,9V75.47a1.58,1.58,0,0,0,.47,1.11l.1.1A1.64,1.64,0,0,0,9,77H23.66a3.71,3.71,0,0,1,3.71,3.71v13L43.65,78.09a3.68,3.68,0,0,1,2.56-1H62.78a30,30,0,0,1,8.76-22.88Zm30.67-7.3A30.07,30.07,0,1,1,71.54,96.71a30.48,30.48,0,0,1-7.43-12.25H47.68L26.44,104.83a3.76,3.76,0,0,1-2.78,1.25,3.71,3.71,0,0,1-3.7-3.71V84.46H9a9,9,0,0,1-6.06-2.39l-.28-.26A9,9,0,0,1,0,75.47V9A9,9,0,0,1,9,0H93.23a9,9,0,0,1,9,9V46.88ZM25.42,33.31a3.71,3.71,0,0,1,0-7.41H76.79a3.71,3.71,0,1,1,0,7.41Zm0,21.93a3.71,3.71,0,0,1,0-7.41H59.81a3.71,3.71,0,1,1,0,7.41Zm67.34,2.95c5.86,3.7,11.14,5.46,15.68,5.05.8,16-5.14,25.5-15.62,29.46C82.69,89,76.69,79.94,77.13,63a22.43,22.43,0,0,0,15.63-4.8Zm.14,4c4.51,2.85,8.58,4.21,12.08,3.9.6,12.34-4,19.64-12,22.68l-.15-.06V62.23l.11-.08Z"/></svg>