<svg id="Layer_1" data-name="Layer 1" xmlns="http://www.w3.org/2000/svg" viewBox="0 0 122.88 106.08"><defs><style>.cls-1{fill-rule:evenodd;}</style></defs><title>chat-search</title><path class="cls-1" d="M71.54,54.18A30.15,30.15,0,0,1,94.8,45.43V9a1.54,1.54,0,0,0-.47-1.1,1.59,1.59,0,0,0-1.1-.48H9A1.64,1.64,0,0,0,7.41,9V75.47a1.58,1.58,0,0,0,.47,1.11l.1.1A1.64,1.64,0,0,0,9,77H23.66a3.71,3.71,0,0,1,3.71,3.71v13L43.65,78.09a3.68,3.68,0,0,1,2.56-1H62.78a30,30,0,0,1,8.76-22.88Zm30.67-7.3A30.07,30.07,0,1,1,71.54,96.71a30.48,30.48,0,0,1-7.43-12.25H47.68L26.44,104.83a3.76,3.76,0,0,1-2.78,1.25,3.71,3.71,0,0,1-3.7-3.71V84.46H9a9,9,0,0,1-6.06-2.39l-.28-.26A9,9,0,0,1,0,75.47V9A9,9,0,0,1,9,0H93.23a9,9,0,0,1,9,9V46.88ZM25.42,33.31a3.71,3.71,0,0,1,0-7.41H76.79a3.71,3.71,0,1,1,0,7.41Zm0,21.93a3.71,3.71,0,0,1,0-7.41H59.81a3.71,3.71,0,1,1,0,7.41Zm65.85,3.54A15,15,0,0,1,105.09,68a15,15,0,0,1,1.14,5.73A14.81,14.81,0,0,1,105.6,78a14.55,14.55,0,0,1-1.37,3.19L109,86.5A1.08,1.08,0,0,1,109,88l-4.15,3.78a1.06,1.06,0,0,1-1.52-.07l-4.54-5a14.59,14.59,0,0,1-3.16,1.37h0a14.89,14.89,0,0,1-4.29.63A15,15,0,0,1,80.68,63.17a14.92,14.92,0,0,1,10.59-4.39Zm6.6,8.36a9.19,9.19,0,0,0-3-2l0,0a9.26,9.26,0,0,0-3.51-.68,9.35,9.35,0,0,0-8.65,12.92,9.27,9.27,0,0,0,2,3,9.31,9.31,0,0,0,6.62,2.74,9.31,9.31,0,0,0,6.6-2.74,9.32,9.32,0,0,0,2-10.18l0-.06a9,9,0,0,0-2-3Z"/></svg>