<svg id="Layer_1" data-name="Layer 1" xmlns="http://www.w3.org/2000/svg" viewBox="0 0 122.88 106.08"><defs><style>.cls-1{fill-rule:evenodd;}</style></defs><title>chat-favorite</title><path class="cls-1" d="M71.55,54.18A30.15,30.15,0,0,1,94.8,45.43V9a1.54,1.54,0,0,0-.47-1.1,1.59,1.59,0,0,0-1.1-.48H9A1.64,1.64,0,0,0,7.41,9V75.47A1.59,1.59,0,0,0,9,77H23.66a3.71,3.71,0,0,1,3.71,3.71v13L43.65,78.09a3.67,3.67,0,0,1,2.56-1H62.78a30,30,0,0,1,8.77-22.88Zm30.66-7.3A30.07,30.07,0,1,1,71.55,96.71a30.26,30.26,0,0,1-7.43-12.25H47.68L26.44,104.83a3.76,3.76,0,0,1-2.78,1.25,3.71,3.71,0,0,1-3.7-3.71V84.46H9a9,9,0,0,1-9-9V9A9,9,0,0,1,9,0H93.23a9,9,0,0,1,9,9V46.88ZM25.42,33.31a3.71,3.71,0,0,1,0-7.41H76.79a3.71,3.71,0,1,1,0,7.41Zm0,21.93a3.71,3.71,0,0,1,0-7.41h34.4a3.71,3.71,0,0,1,0,7.41Zm68.21,4L98,69.48l11.1,1a.89.89,0,0,1,.51,1.55h0l-8.4,7.34,2.49,10.87a.89.89,0,0,1-1.36.94l-9.54-5.7L83.24,91.2A.89.89,0,0,1,82,90.9a.91.91,0,0,1-.11-.66h0L84.4,79.37,76,72a.88.88,0,0,1,.54-1.55l11.07-1L92,59.23a.88.88,0,0,1,1.17-.47.84.84,0,0,1,.47.47Z"/></svg>