<svg id="Layer_1" data-name="Layer 1" xmlns="http://www.w3.org/2000/svg" viewBox="0 0 122.88 106.08"><defs><style>.cls-1{fill-rule:evenodd;}</style></defs><title>chat-remove</title><path class="cls-1" d="M71.55,54.18A30.15,30.15,0,0,1,94.8,45.43V9a1.54,1.54,0,0,0-.47-1.1,1.59,1.59,0,0,0-1.1-.48H9A1.64,1.64,0,0,0,7.41,9V75.47A1.59,1.59,0,0,0,9,77H23.66a3.71,3.71,0,0,1,3.71,3.71v13L43.65,78.09a3.67,3.67,0,0,1,2.56-1H62.78a30,30,0,0,1,8.77-22.88Zm30.66-7.3A30.07,30.07,0,1,1,71.55,96.71a30.26,30.26,0,0,1-7.43-12.25H47.68L26.44,104.83a3.76,3.76,0,0,1-2.78,1.25,3.71,3.71,0,0,1-3.7-3.71V84.46H9a9,9,0,0,1-9-9V9A9,9,0,0,1,9,0H93.23a9,9,0,0,1,9,9V46.88ZM25.42,33.31a3.71,3.71,0,0,1,0-7.41H76.79a3.71,3.71,0,1,1,0,7.41Zm0,21.93a3.71,3.71,0,0,1,0-7.41h34.4a3.71,3.71,0,0,1,0,7.41Zm53.32,14.7h28.13a1.39,1.39,0,0,1,1.38,1.38v8.24a1.38,1.38,0,0,1-1.38,1.38H78.74a1.38,1.38,0,0,1-1.38-1.38V71.32a1.38,1.38,0,0,1,1.38-1.38Z"/></svg>