<svg xmlns="http://www.w3.org/2000/svg" shape-rendering="geometricPrecision" text-rendering="geometricPrecision" image-rendering="optimizeQuality" fill-rule="evenodd" clip-rule="evenodd" viewBox="0 0 512 229.67"><path fill="#0C8A3D" fill-rule="nonzero" d="m104.85 186.06-42.28 40.56a9.272 9.272 0 0 1-6.88 3.05c-5.11 0-9.26-4.14-9.26-9.26v-34.35H19.92c-5.49 0-10.47-2.25-14.07-5.85-3.6-3.65-5.85-8.63-5.85-14.07V19.92C0 14.47 2.27 9.48 5.87 5.87 9.48 2.27 14.47 0 19.92 0h188c5.4 0 10.38 2.24 14.01 5.85l.04.03c3.61 3.63 5.87 8.6 5.87 14.04v146.22c0 5.49-2.24 10.48-5.84 14.08-3.61 3.6-8.59 5.84-14.08 5.84H104.85z"/><path fill="#10A64A" d="m55.69 220.41 45.47-43.61h106.76c5.87 0 10.66-4.8 10.66-10.65V19.92c0-5.86-4.88-10.66-10.66-10.66h-188c-5.78 0-10.66 4.88-10.66 10.66v146.23c0 5.79 4.79 10.65 10.66 10.65h35.77v43.61z"/><path fill="#DE2C1F" fill-rule="nonzero" d="m389.01 186.06-42.29 40.56a9.25 9.25 0 0 1-6.87 3.05c-5.12 0-9.26-4.14-9.26-9.26v-34.35h-26.52c-5.49 0-10.46-2.25-14.06-5.85-3.61-3.65-5.86-8.63-5.86-14.07V19.92c0-5.45 2.27-10.44 5.88-14.05 3.6-3.6 8.59-5.87 14.04-5.87h188.01c5.4 0 10.38 2.24 14.01 5.85l.03.03c3.62 3.63 5.88 8.6 5.88 14.04v146.22c0 5.49-2.24 10.48-5.84 14.08-3.61 3.6-8.59 5.84-14.08 5.84H389.01z"/><path fill="#F44336" d="m339.85 220.41 45.47-43.61h106.76c5.86 0 10.65-4.8 10.65-10.65V19.92c0-5.86-4.87-10.66-10.65-10.66H304.07c-5.78 0-10.65 4.88-10.65 10.66v146.23c0 5.79 4.79 10.65 10.65 10.65h35.78v43.61z"/><path fill="#fff" d="M60.61 82.42h27.38c1.96 0 3.57 1.6 3.57 3.58v47.5c0 1.97-1.61 3.58-3.57 3.58H60.61c-1.96 0-3.56-1.6-3.56-3.58V86c0-1.98 1.6-3.58 3.56-3.58zm16.71 36.38c2.74 0 4.95 2.21 4.95 4.95a4.95 4.95 0 0 1-4.95 4.96 4.96 4.96 0 0 1-4.96-4.96 4.95 4.95 0 0 1 4.96-4.95zm40.35-72.02c1.88-9.54 17.51-.76 18.54 14.63.31 4.71-.18 10.18-1.33 16.3h22.33c9.29.36 17.39 7.02 11.66 17.94 1.31 4.76 1.5 10.34-2.04 12.54.45 7.52-1.63 12.17-5.52 15.84-.26 3.76-1.06 7.09-2.87 9.66-3 4.24-5.43 3.23-10.16 3.23h-37.7c-5.98 0-9.24-1.65-13.15-6.55V88.38c11.25-3.04 17.22-18.42 20.24-28.51V46.78zm227.11 59.36h27.37c1.96 0 3.57-1.61 3.57-3.58V55.05c0-1.96-1.61-3.58-3.57-3.58h-27.37a3.59 3.59 0 0 0-3.58 3.58v47.51a3.59 3.59 0 0 0 3.58 3.58zm19.36-47.45a4.95 4.95 0 1 1 0 9.9c-2.74 0-4.95-2.21-4.95-4.95s2.21-4.95 4.95-4.95zm37.69 83.09c1.88 9.54 17.51.76 18.54-14.63.31-4.71-.18-10.18-1.33-16.3h22.33c9.28-.37 17.39-7.02 11.66-17.94 1.31-4.76 1.5-10.34-2.04-12.54.44-7.52-1.63-12.17-5.52-15.84-.26-3.76-1.06-7.1-2.87-9.66-3-4.24-5.43-3.23-10.16-3.23h-37.71c-5.97 0-9.23 1.65-13.14 6.55v41.99c11.24 3.04 17.22 18.42 20.24 28.52v13.08z"/></svg>