<svg xmlns="http://www.w3.org/2000/svg" shape-rendering="geometricPrecision" text-rendering="geometricPrecision" image-rendering="optimizeQuality" fill-rule="evenodd" clip-rule="evenodd" viewBox="0 0 508 512.08"><path fill="#0C8A3D" fill-rule="nonzero" d="m233.78 414.85-94.28 90.42a20.578 20.578 0 0 1-15.32 6.81c-11.4 0-20.65-9.24-20.65-20.65v-76.58H44.41c-12.23 0-23.33-5.02-31.36-13.05C5.02 393.67 0 382.56 0 370.44V44.41c0-12.15 5.06-23.28 13.1-31.32C21.13 5.06 32.26 0 44.41 0h419.18c12.04 0 23.15 4.99 31.23 13.04l.08.07c8.06 8.09 13.1 19.17 13.1 31.3v326.03c0 12.24-4.99 23.35-13.02 31.38-8.04 8.04-19.15 13.03-31.39 13.03H233.78z"/><path fill="#10A64A" d="m124.17 491.43 101.38-97.24H463.6c13.07 0 23.75-10.69 23.75-23.75V44.41c0-13.07-10.87-23.76-23.75-23.76H44.41c-12.89 0-23.76 10.87-23.76 23.76v326.03c0 12.93 10.69 23.75 23.76 23.75h79.76v97.24z"/><path fill="#fff" d="M135.15 183.76h61.04c4.37 0 7.96 3.58 7.96 7.98v105.93c0 4.37-3.59 7.98-7.96 7.98l-61.04-.01c-4.38 0-7.96-3.58-7.96-7.97V191.74c0-4.4 3.58-7.98 7.96-7.98zm127.21-79.46c4.2-21.28 39.04-1.69 41.34 32.62.69 10.49-.4 22.71-2.97 36.35h49.78c20.71.81 38.78 15.64 26.02 39.99 2.91 10.61 3.34 23.06-4.56 27.97.99 16.75-3.64 27.12-12.31 35.31-.57 8.38-2.36 15.82-6.39 21.54-6.7 9.45-12.12 7.19-22.65 7.19h-84.08c-13.32 0-20.59-3.66-29.3-14.59v-93.64c25.07-6.77 38.39-41.06 45.12-63.56V104.3z"/><circle fill="#10A64A" cx="172.4" cy="275.92" r="11.05"/></svg>