<svg xmlns="http://www.w3.org/2000/svg" shape-rendering="geometricPrecision" text-rendering="geometricPrecision" image-rendering="optimizeQuality" fill-rule="evenodd" clip-rule="evenodd" viewBox="0 0 512 229.27"><path d="M344.51 105.13h26.07c2.04 0 3.71-1.67 3.71-3.7V52.14c0-2.04-1.67-3.71-3.71-3.71h-26.07c-2.04 0-3.7 1.67-3.7 3.71v49.29c0 2.03 1.66 3.7 3.7 3.7zM59.9 79.52h26.07c2.04 0 3.71 1.66 3.71 3.7v49.28c0 2.05-1.67 3.71-3.71 3.71H59.9c-2.04 0-3.7-1.66-3.7-3.71V83.22c0-2.04 1.66-3.7 3.7-3.7zm-.17 129.81 36.7-35.2a5.96 5.96 0 0 1 4.13-1.66l109.9-.02c1.36 0 2.61-.56 3.52-1.47.9-.91 1.47-2.16 1.47-3.53V16.94c0-1.35-.57-2.6-1.48-3.5-.92-.92-2.17-1.5-3.51-1.5H16.94c-1.33 0-2.58.59-3.49 1.5-.92.92-1.51 2.17-1.51 3.5v150.51c0 1.35.57 2.6 1.49 3.52l.22.23a4.97 4.97 0 0 0 3.29 1.25h36.82c3.3 0 5.97 2.67 5.97 5.97v30.91zm43.21-24.94-44.76 42.92a5.929 5.929 0 0 1-4.42 1.96c-3.29 0-5.97-2.67-5.97-5.97v-38.91H16.94c-4.44 0-8.51-1.76-11.54-4.61l-.41-.37C1.91 176.34 0 172.08 0 167.45V16.94C0 12.32 1.93 8.07 5 5c3.07-3.07 7.32-5 11.94-5h193.52c4.62 0 8.87 1.91 11.95 4.99 3.05 3.05 4.98 7.29 4.98 11.95v150.51c0 4.67-1.91 8.91-4.97 11.97a16.872 16.872 0 0 1-11.96 4.97H102.94zm13.43-141.71a6.142 6.142 0 0 1 2.72-2.44c1.52-.7 3.28-.78 5.11-.29 1.6.42 3.28 1.27 4.88 2.49 4.35 3.31 8.42 9.54 8.94 17.34.16 2.39.11 4.96-.11 7.68-.15 1.8-.39 3.68-.7 5.66h18.49l.08.01c3.01.12 5.92.84 8.37 2.13 2.12 1.11 3.91 2.63 5.15 4.52 1.28 1.95 1.98 4.27 1.88 6.92-.08 1.96-.6 4.09-1.67 6.37.61 2.56.89 5.3.49 7.71-.32 2.05-1.12 3.87-2.55 5.22.07 3.38-.38 6.22-1.29 8.67-.94 2.52-2.34 4.62-4.14 6.47-.15 1.62-.42 3.17-.83 4.62-.51 1.82-1.25 3.49-2.3 4.96-3.16 4.45-5.68 4.35-9.67 4.18-.56-.02-1.15-.04-2.08-.04h-36.17c-3.26 0-5.81-.47-8.15-1.64-2.31-1.16-4.29-2.94-6.39-5.58l-.54-1.53V83.92l1.83-.49c4.67-1.26 8.34-5.25 11.19-10.02 2.93-4.91 4.98-10.66 6.39-15.31v-9.06c0-2.51-.28-4.13 1.07-6.36zm3.87 3.48v12.3l-.1.7c-1.5 4.98-3.73 11.28-7.01 16.78-3.08 5.17-7.09 9.6-12.3 11.65v37.64c1.43 1.7 2.75 2.85 4.19 3.57 1.59.79 3.46 1.11 5.95 1.11h36.17c.64 0 1.48.04 2.27.07 2.37.1 3.86.16 5.46-2.1v-.01c.7-.98 1.21-2.14 1.57-3.44.4-1.39.62-2.92.74-4.56l.76-1.63c1.59-1.5 2.81-3.2 3.58-5.29.8-2.14 1.14-4.73.95-7.97l-.09-1.47 1.25-.77c.85-.53 1.31-1.53 1.51-2.75.31-1.94-.01-4.34-.62-6.55l.19-1.79c1.01-1.91 1.49-3.62 1.55-5.12.06-1.56-.35-2.91-1.09-4.04-.77-1.18-1.92-2.14-3.29-2.87-1.78-.93-3.93-1.47-6.18-1.57v.01h-24.39l.55-2.93c.53-2.82.91-5.52 1.13-8.08.2-2.5.24-4.82.1-6.94-.41-6.23-3.6-11.16-7-13.75-1.09-.83-2.16-1.39-3.14-1.64-1.48-.39-2.33-.12-2.71 1.44zm-43.22 71.93c2.6 0 4.72 2.11 4.72 4.71 0 2.61-2.12 4.72-4.72 4.72a4.716 4.716 0 1 1 0-9.43zm267.32 91.24 36.71-35.2a5.925 5.925 0 0 1 4.13-1.66l109.89-.02c1.36 0 2.61-.56 3.52-1.47.91-.91 1.47-2.16 1.47-3.53V16.94c0-1.35-.57-2.6-1.48-3.5-.92-.92-2.17-1.5-3.51-1.5H301.54c-1.34 0-2.58.57-3.49 1.48-.91.94-1.5 2.19-1.5 3.52v150.51c0 1.36.57 2.62 1.47 3.53.92.9 2.17 1.47 3.52 1.47h36.83c3.3 0 5.97 2.67 5.97 5.97v30.91zm43.21-24.94-44.75 42.92a5.95 5.95 0 0 1-4.43 1.96c-3.29 0-5.97-2.67-5.97-5.97v-38.91h-30.86c-4.66 0-8.89-1.92-11.95-4.98-3.06-3.1-4.98-7.35-4.98-11.96V16.94c0-4.62 1.93-8.87 5-11.94 3.08-3.06 7.33-5 11.93-5h193.53c4.63 0 8.87 1.91 11.95 4.99 3.05 3.05 4.98 7.29 4.98 11.95v150.51c0 4.67-1.9 8.91-4.97 11.97-3.06 3.07-7.3 4.97-11.96 4.97H387.55zm16.16-39.98c1.51.7 3.27.77 5.11.29 1.59-.42 3.26-1.27 4.87-2.5 4.35-3.3 8.42-9.54 8.94-17.33.16-2.4.12-4.97-.12-7.69a73.48 73.48 0 0 0-.69-5.65h18.49l.09-.01c3.01-.12 5.92-.85 8.36-2.13 2.12-1.11 3.91-2.63 5.16-4.53 1.28-1.95 1.98-4.27 1.87-6.91-.08-1.97-.6-4.1-1.68-6.37.62-2.56.9-5.3.51-7.71-.34-2.05-1.13-3.87-2.56-5.22.07-3.38-.38-6.22-1.29-8.68-.94-2.52-2.34-4.61-4.14-6.47a26.05 26.05 0 0 0-.83-4.62c-.51-1.81-1.25-3.48-2.3-4.96h-.01c-3.14-4.44-5.67-4.34-9.66-4.17-.55.01-1.15.04-2.08.04h-36.18c-3.25 0-5.8.47-8.14 1.64-2.31 1.15-4.29 2.94-6.39 5.57l-.54 1.54v42.18l1.83.5c4.67 1.26 8.34 5.24 11.19 10.02 2.93 4.91 4.98 10.65 6.39 15.3v9.01c0 3.49-.09 7.07 3.8 8.86zm2.06-4.48c-.4-.19-.72-.65-.92-1.44v-12.3l-.11-.71c-1.48-4.98-3.71-11.28-6.99-16.77-3.09-5.17-7.1-9.6-12.31-11.65V59.42c1.43-1.7 2.75-2.85 4.19-3.57 1.59-.8 3.46-1.12 5.94-1.12h36.18c.64 0 1.49-.03 2.27-.06 2.37-.1 3.86-.16 5.46 2.1v.01c.7.98 1.21 2.14 1.58 3.44.39 1.39.62 2.92.73 4.56l.76 1.62c1.59 1.51 2.81 3.21 3.58 5.29.8 2.15 1.14 4.74.95 7.98l-.09 1.46 1.25.78c.85.53 1.31 1.53 1.51 2.75.32 1.94-.01 4.33-.62 6.55l.19 1.78c1.01 1.92 1.49 3.63 1.55 5.13.06 1.56-.35 2.91-1.08 4.04-.78 1.18-1.93 2.14-3.3 2.86-1.78.93-3.93 1.47-6.18 1.57h-24.4l.56 2.92c.53 2.83.91 5.53 1.12 8.08.21 2.51.26 4.83.12 6.95-.42 6.23-3.61 11.16-7.01 13.75-1.08.82-2.17 1.38-3.14 1.64-.73.19-1.35.2-1.79 0zm-44.14-73.37c2.6 0 4.71-2.11 4.71-4.71a4.716 4.716 0 1 0-4.71 4.71z"/></svg>