<svg xmlns="http://www.w3.org/2000/svg" shape-rendering="geometricPrecision" text-rendering="geometricPrecision" image-rendering="optimizeQuality" fill-rule="evenodd" clip-rule="evenodd" viewBox="0 0 508 512.07"><path fill="#DE2C1F" fill-rule="nonzero" d="m233.78 414.84-94.28 90.42c-3.78 4.18-9.24 6.81-15.32 6.81-11.41 0-20.65-9.24-20.65-20.65v-76.58H44.41c-12.23 0-23.33-5.02-31.36-13.05C5.02 393.66 0 382.55 0 370.43V44.41c0-12.15 5.06-23.28 13.1-31.32C21.13 5.06 32.26 0 44.41 0h419.18c12.04 0 23.15 4.99 31.23 13.04l.08.07c8.06 8.09 13.1 19.17 13.1 31.3v326.02c0 12.24-4.99 23.35-13.02 31.38-8.04 8.04-19.15 13.03-31.39 13.03H233.78z"/><path fill="#F44336" d="m124.18 491.42 101.38-97.23h238.03c13.07 0 23.75-10.69 23.75-23.76V44.41c0-13.07-10.87-23.76-23.75-23.76H44.41c-12.89 0-23.76 10.87-23.76 23.76v326.02c0 12.93 10.69 23.76 23.76 23.76h79.77v97.23z"/><path fill="#fff" d="M135.16 236.65h61.04c4.37 0 7.96-3.58 7.96-7.98V122.75c0-4.38-3.59-7.98-7.96-7.98h-61.04c-4.37 0-7.96 3.58-7.96 7.98v105.92c0 4.4 3.59 7.98 7.96 7.98zm127.21 79.46c4.2 21.28 39.04 1.69 41.33-32.62.7-10.49-.39-22.71-2.97-36.35h49.79c20.71-.81 38.78-15.64 26.01-39.98 2.91-10.62 3.35-23.07-4.55-27.98.99-16.74-3.64-27.12-12.31-35.31-.58-8.38-2.36-15.82-6.4-21.54-6.69-9.44-12.11-7.19-22.64-7.19h-84.08c-13.32 0-20.59 3.67-29.3 14.59v93.64c25.07 6.77 38.39 41.05 45.12 63.56v29.18z"/><circle fill="#F44336" cx="178.34" cy="141.89" r="11.05"/></svg>