<svg xmlns="http://www.w3.org/2000/svg" shape-rendering="geometricPrecision" text-rendering="geometricPrecision" image-rendering="optimizeQuality" fill-rule="evenodd" clip-rule="evenodd" viewBox="0 0 508 512.2"><path d="M133.83 234.87h58.23c4.56 0 8.29-3.73 8.29-8.28v-110.1c0-4.56-3.73-8.29-8.29-8.29h-58.23c-4.56 0-8.28 3.73-8.28 8.29v110.1c0 4.55 3.72 8.28 8.28 8.28zm-.38 232.77 82-78.64c2.58-2.48 5.9-3.7 9.22-3.7l245.5-.05c3.05 0 5.84-1.26 7.87-3.28 2.02-2.03 3.28-4.82 3.28-7.88V37.84c0-3.01-1.28-5.8-3.3-7.82-2.05-2.05-4.85-3.34-7.85-3.34H37.83c-3 0-5.78 1.28-7.79 3.3-2.05 2.1-3.36 4.9-3.36 7.86v336.25c0 3.04 1.27 5.85 3.29 7.88 2.05 2 4.83 3.28 7.86 3.28h82.28c7.36 0 13.34 5.98 13.34 13.34v69.05zm96.53-55.71-99.99 95.89a13.297 13.297 0 0 1-9.88 4.38c-7.36 0-13.34-5.97-13.34-13.34v-86.93H37.83c-10.41 0-19.86-4.29-26.7-11.12C4.28 393.89 0 384.39 0 374.09V37.84c0-10.32 4.32-19.81 11.17-26.67C18.06 4.33 27.55 0 37.83 0h432.34c10.34 0 19.83 4.27 26.71 11.15C503.69 17.97 508 27.44 508 37.84v336.25c0 10.42-4.25 19.89-11.1 26.74-6.85 6.85-16.32 11.1-26.73 11.1H229.98zM257.7 311c1.16 5.9 4.2 9.69 8.37 11.62 3.38 1.55 7.32 1.72 11.41.64 3.56-.93 7.3-2.83 10.89-5.58 9.72-7.38 18.8-21.31 19.97-38.73.35-5.35.26-11.09-.26-17.16-.32-4.01-.85-8.22-1.55-12.63h41.32l.18-.02c6.73-.26 13.23-1.89 18.7-4.77 4.73-2.48 8.73-5.87 11.51-10.11 2.85-4.35 4.42-9.53 4.19-15.44-.18-4.39-1.36-9.16-3.75-14.23 1.38-5.72 2.01-11.85 1.12-17.22-.74-4.58-2.52-8.65-5.71-11.66.16-7.56-.85-13.9-2.89-19.39-2.09-5.63-5.22-10.31-9.24-14.45-.34-3.61-.93-7.08-1.85-10.32-1.14-4.07-2.8-7.8-5.14-11.08h-.01c-7.04-9.94-12.68-9.71-21.6-9.34-1.24.04-2.57.11-4.65.11H247.9c-7.27 0-12.97 1.04-18.2 3.65-5.16 2.57-9.57 6.57-14.27 12.46l-1.21 3.42v94.25l4.09 1.1c10.43 2.82 18.62 11.72 25 22.39 6.54 10.96 11.13 23.81 14.27 34.18v27.25l.12 1.06zm12.98 1.61c-.9-.42-1.62-1.46-2.05-3.22v-27.48l-.24-1.58c-3.33-11.12-8.31-25.2-15.64-37.47-6.89-11.54-15.85-21.46-27.48-26.04v-84.09c3.19-3.79 6.13-6.36 9.34-7.97 3.56-1.77 7.74-2.49 13.29-2.49h80.81c1.44 0 3.33-.07 5.08-.14 5.3-.22 8.63-.35 12.21 4.69v.02c1.55 2.2 2.69 4.79 3.5 7.69.88 3.1 1.39 6.52 1.64 10.19l1.7 3.62c3.55 3.37 6.28 7.17 8.01 11.83 1.78 4.8 2.55 10.58 2.12 17.82l-.2 3.26 2.78 1.74c1.9 1.17 2.94 3.41 3.38 6.14.71 4.34-.03 9.67-1.39 14.63l.43 3.98c2.24 4.28 3.33 8.12 3.45 11.47.14 3.47-.76 6.5-2.41 9.01-1.74 2.63-4.3 4.79-7.36 6.4-3.99 2.08-8.78 3.29-13.8 3.51v-.01h-54.51l1.24 6.53c1.19 6.32 2.04 12.34 2.51 18.06.47 5.59.57 10.77.25 15.51-.93 13.91-8.05 24.93-15.66 30.72-2.41 1.84-4.83 3.09-7 3.67-1.64.42-3.03.45-4 0zM172.06 148.7c5.82 0 10.54-4.72 10.54-10.54 0-5.81-4.72-10.53-10.54-10.53-5.81 0-10.53 4.72-10.53 10.53 0 5.82 4.72 10.54 10.53 10.54z"/></svg>