<svg xmlns="http://www.w3.org/2000/svg" shape-rendering="geometricPrecision" text-rendering="geometricPrecision" image-rendering="optimizeQuality" fill-rule="evenodd" clip-rule="evenodd" viewBox="0 0 512 439.35"><path fill-rule="nonzero" d="m113.34 388.1 67.44-64.68c2.96-2.85 6.78-4.27 10.6-4.27l55.22-.01c-7.54 7.85-13.51 17.62-18.22 30.65h-30.89l-88.09 84.48a15.304 15.304 0 0 1-11.4 5.08c-8.47 0-15.34-6.87-15.34-15.34v-74.22H37.21c-10.24 0-19.53-4.22-26.26-10.94C4.2 332.09 0 322.75 0 312.57V37.22c0-10.17 4.24-19.49 10.99-26.23C17.73 4.24 27.06 0 37.21 0h348.92c10.17 0 19.51 4.2 26.27 10.97 6.73 6.72 10.95 16.01 10.95 26.25v89.95c-3.07-.56-6.17-.94-9.29-1.13a82.586 82.586 0 0 0-12.73-5.64c-2.84-.98-5.73-1.8-8.66-2.47V37.22c0-1.75-.76-3.37-1.95-4.57-1.22-1.21-2.85-1.97-4.59-1.97H37.21c-1.69 0-3.32.77-4.54 1.99-1.22 1.22-1.99 2.85-1.99 4.55v275.35c0 1.74.75 3.39 1.96 4.59 1.19 1.2 2.82 1.95 4.57 1.95H98c8.47 0 15.34 6.87 15.34 15.34v53.65zm201.16-95c-9.32-3.05-16.41-7.57-21.35-13.46 14.3-5.39 20.89-22.29 21.81-47.58.68-18.79-3.21-24.68 3.19-43.23 12.7-36.73 59.63-49.28 85.77-27.79 20.5-2.18 41.16 8.39 45.62 40 3.32 23.61-3.73 38.42 3.71 60.16 3.19 9.35 8.77 16.51 17.47 20.7-5.57 5.33-13.67 8.87-23.36 11.23-7.51 1.84-21.07 3.24-36.86 4.08v11.08l15.36 20.52-43.95 34.96-43.9-34.64 11.72-19.7v-11.9c-15.31-.73-28.27-2.16-35.23-4.43zm-58.09 113.17a3.88 3.88 0 0 1-3.88-3.89c0-1.08.14-2.15.4-3.21h-.03l.08-.28c8.54-64.68 32.29-66.48 89.38-88.56-10.05 10.88-18.67 22.46-25.48 36.12l19.71-.48 44.25 35.34 46.44-35.34 19.71.48c-6.81-13.66-15.43-25.24-25.48-36.12 55.09 21.31 81.09 21.53 90.04 88.59l.07.25h-.03c.27 1.06.41 2.13.41 3.21 0 2.15-1.74 3.89-3.88 3.89H256.41zM105.3 228.77c-8.47 0-15.34-6.86-15.34-15.33 0-8.48 6.87-15.34 15.34-15.34h142.44c8.47 0 15.34 6.86 15.34 15.34 0 8.47-6.87 15.33-15.34 15.33H105.3zm-.01-90.81c-8.47 0-15.34-6.87-15.34-15.34 0-8.47 6.87-15.34 15.34-15.34h209.09c8.47 0 15.34 6.87 15.34 15.34 0 8.47-6.87 15.34-15.34 15.34H105.29z"/></svg>