<svg xmlns="http://www.w3.org/2000/svg" shape-rendering="geometricPrecision" text-rendering="geometricPrecision" image-rendering="optimizeQuality" fill-rule="evenodd" clip-rule="evenodd" viewBox="0 0 369 511.52"><path d="M169.27 277.2c-12.88 8.33-31.03 5.43-43.79-3.2l20.69 38.75 23.1-35.43v-.12zM55.26 0h183.71c15.24 0 29.15 6.22 39.06 16.21 10.06 10.06 16.19 23.9 16.19 39.06v33.58h-19.11V54.74H19.04v380.02h256.07V296.95h19.11v159.31c0 15.25-6.21 29.16-16.19 39.06-10.07 10.08-23.89 16.2-39.06 16.2H55.26c-15.25 0-29.16-6.21-39.06-16.2C6.13 485.27 0 471.44 0 456.26V55.2c0-15.26 6.21-29.16 16.2-39.08C26.25 6.07 40.01 0 55.26 0zm206.85 165.42h40.71c4.06 0 7.38 3.32 7.38 7.38v7.86l23.51-14.12v44.57l-23.51-12.68v10.22c0 4.06-3.32 7.37-7.38 7.37h-40.71c-4.06 0-7.38-3.31-7.38-7.37V172.8c0-4.06 3.32-7.38 7.38-7.38zm27 89.45-21.12 24.42c-1.69 1.89-3.9 2.74-6.06 2.74-1 0-2-.19-2.94-.55-.94-.35-1.82-.89-2.59-1.57-1.63-1.46-2.71-3.55-2.71-6.07l-.9-18.97h-19.33c-3.86 0-7.37-1.58-9.9-4.11a13.993 13.993 0 0 1-4.12-9.91V141.1c0-3.84 1.58-7.35 4.12-9.89 2.56-2.54 6.07-4.13 9.9-4.13h121.52c3.83 0 7.34 1.59 9.89 4.14a13.89 13.89 0 0 1 4.13 9.88v99.75c0 3.85-1.57 7.35-4.11 9.89l-.02.02a13.955 13.955 0 0 1-9.89 4.11h-65.87zm-26.57 17.08 22.51-26.03h69.93c1.41 0 2.67-.56 3.58-1.47l.02-.02c.91-.9 1.47-2.17 1.47-3.58V141.1c0-1.38-.58-2.64-1.5-3.57v-.01a5.017 5.017 0 0 0-3.57-1.49H233.46c-1.39 0-2.65.58-3.57 1.49v.02c-.92.92-1.5 2.19-1.5 3.56v99.75c0 1.39.57 2.66 1.49 3.58.92.92 2.19 1.49 3.58 1.49h27.84l1.24 26.03zm-115.5 180.1c12.5 0 22.72 10.06 22.72 22.72 0 12.51-10.07 22.73-22.72 22.73-12.5 0-22.73-10.07-22.73-22.73 0-12.5 10.07-22.72 22.73-22.72zM60.92 276.48c19.47-1.52 26.62-15.47 29.02-35.62 3.66-30.84-1.41-70.52 37.22-85.53 30.68-11.92 70.35 4.12 74.68 46.59-.17 28.86 8.27 72.47 35.15 74.56-3.11 8.43-24.39 14.97-42.27 14.87l3.73.77.48.1c21.62 4.35 35.71 8.94 44.62 18.75 8.93 9.85 12.26 28.34 12.26 52.69 0 1.61-1.3 2.91-2.91 2.91H45.01c-1.61 0-2.91-1.3-2.91-2.91 0-23.71 3.16-42.22 11.58-52.13 8.44-9.94 21.78-14.72 42.19-18.7l2.46-.43c-16.23-.23-34.29-7.48-37.41-15.92zm111.76-13.25c5.83-6.19 10.7-12.74 14.22-20.45 2.33-10.61 2.46-21.74 0-33.53-11.27-5.03-18.65-16.05-22.42-32.62-4.51 31.55-44.84 30.19-54.98 35.93 0 14.34-1.96 24.37 4.61 37.45v.01c1.43 2.85 2.95 5.51 4.56 7.96 1.43 2.17 2.81 4.27 4.49 6.01 13.55 14.04 36.72 12.27 49.52-.76z"/></svg>