<svg xmlns="http://www.w3.org/2000/svg" shape-rendering="geometricPrecision" text-rendering="geometricPrecision" image-rendering="optimizeQuality" fill-rule="evenodd" clip-rule="evenodd" viewBox="0 0 512 429.22"><path d="m262.33.14.46.02c70 2.17 132.77 27.06 177.69 65.57 45.73 39.21 73.15 92.52 71.44 150.66v.14c-1.76 58.22-32.38 109.9-80.45 146.38-47.3 35.89-111.63 57.06-181.75 55-19.64-.57-38.61-2.91-56.68-6.8-16.97-3.66-33.27-8.7-48.69-14.94l-81.84 32.18c-6.48 2.53-13.79-.67-16.32-7.15-1.35-3.45-1.07-7.13.46-10.2l24.73-58.84c-21.98-18.88-39.73-41.02-52.02-65.37C6.1 260.51-.83 231.66.08 201.53 1.84 143.3 32.46 91.62 80.53 55.14c47.3-35.89 111.63-57.06 181.75-55h.05zM292.6 115.3l.04-.18c5-21.02 36.74-13.95 32.33 7.15-2.22 9.62-4.07 19.59-6.08 29.28h11.6c21.4 0 22.19 33.22 0 33.22h-18.47l-8.26 41.59h29.02c21.86 0 21.86 33.22 0 33.22h-35.83l-7.48 35.91c-5.19 20.83-36.67 13.67-32.28-7.33 2.16-9.39 3.98-19.12 5.95-28.58h-43c-2.43 11.72-4.66 23.83-7.38 35.45-5.03 21.29-36.34 13.56-32.37-6.9l5.94-28.58h-15.48c-21.35.12-22.2-33.19 0-33.19h22.31l8.21-41.59H168.5c-21.47 0-22.14-33.22 0-33.22h39.73l7.37-35.4c.05-.38.13-.76.25-1.12 5.08-20.29 36.68-14.03 32.29 7.31l-6.09 29.21h42.99c2.52-12.06 5.2-24.18 7.56-36.25zm-22.65 111.06 8.25-41.59h-43l-8.25 41.59h43z"/></svg>