<svg xmlns="http://www.w3.org/2000/svg" shape-rendering="geometricPrecision" text-rendering="geometricPrecision" image-rendering="optimizeQuality" fill-rule="evenodd" clip-rule="evenodd" viewBox="0 0 512 371.13"><path d="M397 141.12c63.51 0 115 51.5 115 115.01 0 63.5-51.49 115-115 115s-115.02-51.5-115.02-115c0-63.51 51.51-115.01 115.02-115.01zM28.8 0h389.26c15.73 0 28.52 12.88 28.5 28.53l-.1 95.75c-7.58-2.84-15.46-5.04-23.59-6.55l.07-77.07-125.82 98.89 9.17 8.99c-3.04 2.56-5.94 5.24-8.75 8.04l-.09.1c-3.27 3.27-6.37 6.72-9.32 10.29l-10.89-10.69-42.14 35.87c-4.49 3.77-11.46 4.22-16.5.11l-44.24-36.09L39.45 282.69h219.27a140.75 140.75 0 0 0 6.69 23.58l-236.92.02C12.74 306.29 0 293.42 0 277.76L.24 28.52C.27 12.84 13.05 0 28.8 0zm-5.19 261.9 130.45-122.08L23.82 41.69l-.21 220.21zM42.65 23.6l183.96 141.87L400.69 23.6H42.65zm357.39 174.28 16.15 37.83 41 3.68c1.8.16 3.14 1.76 2.99 3.56-.08.89-.49 1.65-1.11 2.19l-31.02 27.09 9.18 40.13c.41 1.77-.7 3.54-2.48 3.95-.9.2-1.81.01-2.53-.45L397 294.79l-35.34 21.13c-1.56.93-3.58.43-4.52-1.13a3.38 3.38 0 0 1-.39-2.43l9.18-40.13-31.01-27.09a3.27 3.27 0 0 1-.31-4.63c.6-.7 1.44-1.07 2.29-1.12l40.9-3.68 16.16-37.86a3.302 3.302 0 0 1 4.32-1.74c.82.34 1.43 1 1.76 1.77z"/></svg>