<svg xmlns="http://www.w3.org/2000/svg" shape-rendering="geometricPrecision" text-rendering="geometricPrecision" image-rendering="optimizeQuality" fill-rule="evenodd" clip-rule="evenodd" viewBox="0 0 459 512.22"><path d="M332.17 92.06c5.2 105.32-33.68 170.75-102.6 196.74-66.58-24.29-105.93-87.05-103.05-198.32 35.06 1.83 69.39-5.71 102.65-31.59 29.52 18.69 67.19 36.47 103 33.17zm-28.49-69.34H48.46v190.29l133.22 119.02c.2.16.4.33.58.52l44.99 40.18 180.1-158.46V102.92l-103.67-80.2zm126.33 172.89c2.91-2.51 6.14-3.61 9.49-3.61 2.83 0 5.53.84 8 2.32 1.8 1.08 3.47 2.52 4.92 4.18 3.79 4.34 6.58 11.03 6.58 16.58v275.08c0 6.03-2.48 11.53-6.47 15.55l-.02.01-.03.02-.02.03c-4.02 3.98-9.51 6.45-15.53 6.45H22.07C9.97 512.22 0 502.24 0 490.15V215.08c0-5.65 2.88-12.47 6.74-16.79 1.4-1.59 3.06-2.98 4.91-4.06 2.43-1.43 5.08-2.26 7.85-2.26 2.64 0 5.2.7 7.59 2.23V10.69C27.09 4.79 31.88 0 37.77 0H307.2c3.3 0 6.25 1.5 8.21 3.85l111.55 88.18c2.02 2.07 3.02 4.75 3.02 7.43.05 0 .03 86.57.03 96.15zM220.09 394.86l-45.26-40.42L21.36 488.93c0 .67-.23 1.92.71 1.92h414.86c.22 0 .38-.07.49-.17l.05-.04c.1-.11.16-.28.16-.49v-.73L282.08 353.11l-47.89 41.84v-.01c-3.98 3.51-10.05 3.54-14.1-.08zm-61.25-54.71L21.36 217.33v243.29l137.48-120.47zm278.79 120.96V217.22L298.26 338.98l139.37 122.13zM177.25 166.14c4.42-.06 17.11-1.22 20.73.38 6.17 3.54 11.12 7.57 16.1 12.57 12.82-20.32 28.22-38.78 46.13-54.82l.52-.31 1.79-.69.6-.11 20.11-.01c.93 0 1.69.76 1.69 1.69 0 .49-.21.93-.54 1.24l-3.95 4.39a440.842 440.842 0 0 0-17.77 21.03c-5.63 7.13-11 14.38-16.08 21.72a412.51 412.51 0 0 0-14.46 22.41c-4.55 7.56-8.86 15.28-12.91 23.11l-2.51 4.88a1.7 1.7 0 0 1-2.28.72c-.34-.17-.6-.45-.75-.78l-2.33-4.95c-8.33-17.86-20.08-33.23-36.51-44.48-.63-.43-.86-1.19-.67-1.88l1.5-4.91c.21-.72.87-1.19 1.59-1.2z"/></svg>