<svg xmlns="http://www.w3.org/2000/svg" shape-rendering="geometricPrecision" text-rendering="geometricPrecision" image-rendering="optimizeQuality" fill-rule="evenodd" clip-rule="evenodd" viewBox="0 0 512 371.13"><path d="M397 141.12c63.51 0 115 51.5 115 115.01 0 63.51-51.49 115-115 115s-115.02-51.49-115.02-115S333.49 141.12 397 141.12zM28.8 0h389.26c15.73 0 28.52 12.88 28.5 28.53l-.1 95.75c-7.58-2.84-15.46-5.04-23.59-6.55l.07-77.07-125.82 98.89 9.17 8.99c-3.04 2.56-5.94 5.24-8.75 8.04l-.09.1c-3.27 3.27-6.37 6.72-9.32 10.29l-10.89-10.69-42.14 35.87c-4.49 3.77-11.46 4.22-16.5.12l-44.24-36.1L39.45 282.69h219.27a140.08 140.08 0 0 0 6.71 23.6H28.49C12.74 306.29 0 293.42 0 277.76L.24 28.52C.27 12.84 13.05 0 28.8 0zm-5.19 261.9 130.45-122.08L23.82 41.69l-.21 220.21zM42.65 23.6l183.96 141.87L400.69 23.6H42.65zm406.4 246.3h-104.1v-27.54h104.1v27.54z"/></svg>