<svg xmlns="http://www.w3.org/2000/svg" shape-rendering="geometricPrecision" text-rendering="geometricPrecision" image-rendering="optimizeQuality" fill-rule="evenodd" clip-rule="evenodd" viewBox="0 0 512 371.13"><path d="M397 141.12c63.51 0 115 51.5 115 115.01 0 63.51-51.49 115-115 115s-115.02-51.49-115.02-115S333.49 141.12 397 141.12zM28.8 0h389.26c15.73 0 28.52 12.88 28.5 28.53l-.1 95.74c-7.58-2.84-15.46-5.05-23.59-6.57l.07-77.04-125.82 98.9 9.15 8.98c-3.01 2.56-5.94 5.24-8.73 8.03l-.1.11c-3.28 3.27-6.38 6.7-9.32 10.28l-10.88-10.68-42.14 35.87c-4.49 3.77-11.46 4.22-16.5.12l-44.24-36.1L39.45 282.69h219.26c1.56 8.13 3.8 16.02 6.7 23.6l-236.92.01C12.74 306.3 0 293.42 0 277.76L.24 28.52C.27 12.84 13.05 0 28.8 0zm-5.19 261.9 130.45-122.08L23.82 41.69l-.21 220.21zM42.65 23.6l183.96 141.87L400.69 23.6H42.65zm390.24 281.04h-71.54c-1.02 0-1.86-.79-1.86-1.74v-14.2c0-.52.26-1 .65-1.32l25.6-24.4 9.39-9.29 5.36-5.84 2.9-3.93 1.89-3.52 1.07-3.41.33-3.47c0-1.73-.25-3.23-.73-4.46-.49-1.22-1.19-2.17-2.04-2.9-.99-.8-2.09-1.39-3.33-1.77-1.3-.41-2.83-.62-4.49-.62-1.85 0-3.68.21-5.45.6-1.77.38-3.54 1-5.29 1.79l-.18.07c-1.72.8-3.51 1.78-5.33 2.93-1.91 1.2-3.86 2.59-5.82 4.1-.78.61-1.97.5-2.62-.23l-11.74-13.13c-.65-.74-.54-1.84.24-2.46l7-5.24c2.11-1.46 4.06-2.63 5.82-3.53 1.74-.87 3.57-1.66 5.42-2.32 1.82-.64 3.79-1.22 5.87-1.7 2.03-.46 4.21-.82 6.48-1.06 2.26-.22 4.64-.35 7.12-.35 6.65 0 12.57 1.17 17.75 3.46 2.59 1.18 4.9 2.58 6.93 4.23a26.72 26.72 0 0 1 5.23 5.67c1.48 2.15 2.56 4.43 3.27 6.81.72 2.45 1.09 5.04 1.09 7.73 0 2.29-.22 4.55-.66 6.78a32.05 32.05 0 0 1-1.96 6.36l-.05.12a39.8 39.8 0 0 1-3.25 6.06l-.08.12c-1.32 2.04-2.87 4.11-4.57 6.14-1.82 2.11-4.27 4.64-7.39 7.61-3.1 2.95-6.86 6.34-11.21 10.07l-10.78 9.56h40.96c1.02 0 1.86.8 1.86 1.75v17.19c0 .95-.84 1.74-1.86 1.74z"/></svg>