<svg xmlns="http://www.w3.org/2000/svg" shape-rendering="geometricPrecision" text-rendering="geometricPrecision" image-rendering="optimizeQuality" fill-rule="evenodd" clip-rule="evenodd" viewBox="0 0 512 371.13"><path d="M397 141.12c63.51 0 115 51.5 115 115 0 63.51-51.49 115.01-115 115.01s-115.02-51.5-115.02-115.01c0-63.5 51.51-115 115.02-115zM28.8 0h389.26c15.73 0 28.52 12.87 28.5 28.53l-.1 95.75c-7.58-2.84-15.46-5.04-23.59-6.55l.07-77.07-125.82 98.89 9.18 9c-2.53 2.13-4.98 4.34-7.34 6.64l-1.51 1.39c-3.29 3.29-6.42 6.72-9.36 10.33l-10.85-10.64-42.14 35.88c-4.49 3.76-11.46 4.21-16.5.11l-44.24-36.09L39.45 282.69h219.27c1.56 8.14 3.82 16 6.72 23.58l-236.95.02C12.74 306.29 0 293.42 0 277.76L.24 28.52C.27 12.84 13.05 0 28.8 0zm-5.19 261.89L154.06 139.8 23.82 41.69l-.21 220.2zM42.65 23.6l183.96 141.87L400.69 23.6H42.65zm406.4 246.31H410.8v38.27h-27.57v-38.27h-38.28v-27.54h38.28v-38.29h27.57v38.29h38.25v27.54z"/></svg>