<svg xmlns="http://www.w3.org/2000/svg" shape-rendering="geometricPrecision" text-rendering="geometricPrecision" image-rendering="optimizeQuality" fill-rule="evenodd" clip-rule="evenodd" viewBox="0 0 512 371.13"><path d="M397 141.11c63.51 0 115 51.5 115 115.01 0 63.51-51.49 115.01-115 115.01s-115.02-51.5-115.02-115.01c0-63.51 51.51-115.01 115.02-115.01zM28.8 0h389.26c15.73 0 28.52 12.87 28.5 28.53l-.1 95.74c-7.58-2.84-15.46-5.04-23.59-6.56l.07-77.05-125.82 98.89 9.17 8.99c-3.03 2.55-5.96 5.24-8.75 8.03l-.09.1c-3.27 3.27-6.37 6.71-9.32 10.29l-10.89-10.69-42.14 35.87c-4.49 3.77-11.46 4.22-16.5.12l-44.24-36.09L39.45 282.68h219.27c1.56 8.14 3.82 16.01 6.72 23.59l-236.95.02C12.74 306.29 0 293.41 0 277.75L.24 28.52C.27 12.83 13.05 0 28.8 0zm-5.19 261.89L154.06 139.8 23.82 41.68l-.21 220.21zM42.65 23.6l183.96 141.86L400.69 23.6H42.65zm367.92 300.9c-4.4.86-8.97 1.34-13.58 1.34a70.9 70.9 0 0 1-13.58-1.34c-4.52-.89-8.93-2.24-13.08-3.96a70.37 70.37 0 0 1-12.06-6.47 69.894 69.894 0 0 1-10.56-8.66 69.476 69.476 0 0 1-8.64-10.55 69.923 69.923 0 0 1-6.49-12.07 69.095 69.095 0 0 1-3.95-13.07c-.86-4.4-1.34-8.98-1.34-13.59 0-4.61.48-9.18 1.34-13.61.89-4.52 2.23-8.91 3.95-13.04 1.75-4.22 3.92-8.28 6.46-12.06 2.55-3.84 5.49-7.4 8.67-10.58 3.17-3.18 6.7-6.1 10.54-8.66 3.81-2.54 7.88-4.75 12.08-6.5 4.18-1.71 8.58-3.06 13.1-3.95 4.39-.85 8.96-1.32 13.56-1.32 4.61 0 9.17.47 13.57 1.34 4.46.86 8.79 2.18 12.9 3.86l.19.07c4.2 1.75 8.27 3.96 12.08 6.5 3.82 2.55 7.38 5.48 10.56 8.66 3.18 3.18 6.11 6.76 8.66 10.59 2.55 3.8 4.74 7.86 6.48 12.05 1.71 4.17 3.06 8.56 3.94 13.08.85 4.39 1.33 8.96 1.33 13.57 0 4.6-.48 9.17-1.33 13.56-.87 4.46-2.2 8.79-3.87 12.92l-.07.18c-1.74 4.18-3.95 8.25-6.49 12.06a69.787 69.787 0 0 1-8.66 10.56 70.393 70.393 0 0 1-10.56 8.66c-3.74 2.5-7.76 4.66-11.92 6.4l-.15.07a68.996 68.996 0 0 1-13.08 3.96zm-39.16-111.33 68.54 68.55 1.46-2.64c1.07-2.08 2.01-4.23 2.78-6.43.9-2.57 1.61-5.26 2.06-7.99.45-2.65.68-5.36.71-8.14l-.03-.39c0-3.4-.32-6.7-.93-9.84-.63-3.19-1.58-6.32-2.81-9.29a50.022 50.022 0 0 0-4.61-8.65c-1.78-2.66-3.89-5.21-6.24-7.57-2.32-2.3-4.89-4.4-7.61-6.22a48.164 48.164 0 0 0-8.46-4.57l-.18-.06c-2.92-1.21-5.99-2.17-9.14-2.79l-.17-.03c-3.13-.62-6.42-.95-9.79-.95-2.93 0-5.77.24-8.44.68-2.76.47-5.48 1.17-8.07 2.09-2.16.75-4.29 1.69-6.31 2.71l-2.76 1.53zm55.26 83.17-69.92-69.9-2.56 3.81a49.71 49.71 0 0 0-3.59 7.19l-.05.17a49.063 49.063 0 0 0-2.63 8.95c-.59 3.09-.9 6.28-.9 9.57 0 3.38.35 6.66.95 9.77.64 3.22 1.59 6.37 2.82 9.35a50.64 50.64 0 0 0 4.62 8.61c1.79 2.69 3.91 5.26 6.22 7.6 2.34 2.32 4.92 4.44 7.62 6.26 2.66 1.78 5.55 3.34 8.63 4.62 2.97 1.21 6.11 2.18 9.34 2.82 3.12.59 6.39.94 9.77.94 3.26 0 6.41-.31 9.37-.86 3.14-.61 6.11-1.49 8.94-2.61l.21-.08c2.56-1.02 5.03-2.25 7.33-3.62l3.83-2.59z"/></svg>