<svg xmlns="http://www.w3.org/2000/svg" shape-rendering="geometricPrecision" text-rendering="geometricPrecision" image-rendering="optimizeQuality" fill-rule="evenodd" clip-rule="evenodd" viewBox="0 0 512 371.13"><path d="M397 141.12c63.51 0 115 51.5 115 115.01 0 63.5-51.49 115-115 115s-115.02-51.5-115.02-115c0-63.51 51.51-115.01 115.02-115.01zM28.8 0h389.26c15.73 0 28.52 12.88 28.5 28.53l-.1 95.75c-7.58-2.84-15.46-5.04-23.59-6.55l.07-77.07-125.82 98.89 9.17 8.99c-3.04 2.56-5.94 5.24-8.75 8.04l-.09.1c-3.27 3.27-6.37 6.72-9.32 10.29l-10.89-10.69-42.14 35.87c-4.49 3.77-11.46 4.22-16.5.11l-44.24-36.09L39.45 282.69h219.27a140.75 140.75 0 0 0 6.69 23.58l-236.92.02C12.74 306.29 0 293.42 0 277.76L.24 28.52C.27 12.84 13.05 0 28.8 0zm-5.19 261.9 130.45-122.08L23.82 41.69l-.21 220.21zM42.65 23.6l183.96 141.87L400.69 23.6H42.65zm402.96 204.25-28.26 28.26 28.27 28.26-20.35 20.36-28.26-28.28-28.29 28.29-20.34-20.33 28.29-28.29-28.29-28.28 20.36-20.36 28.28 28.29 28.25-28.26 20.34 20.34z"/></svg>