<svg xmlns="http://www.w3.org/2000/svg" shape-rendering="geometricPrecision" text-rendering="geometricPrecision" image-rendering="optimizeQuality" fill-rule="evenodd" clip-rule="evenodd" viewBox="0 0 512 371.13"><path d="M397 141.12c63.51 0 115 51.5 115 115.01 0 63.51-51.49 115-115 115s-115.02-51.49-115.02-115S333.49 141.12 397 141.12zM28.8 0h389.26c15.73 0 28.52 12.88 28.5 28.53l-.1 95.74c-7.58-2.84-15.46-5.05-23.59-6.57l.07-77.04-125.82 98.9 9.15 8.98c-3.01 2.56-5.94 5.24-8.73 8.03l-.1.11c-3.28 3.27-6.38 6.7-9.32 10.28l-10.88-10.68-42.14 35.87c-4.49 3.77-11.46 4.22-16.5.12l-44.24-36.1L39.45 282.69h219.26c1.56 8.13 3.8 16.02 6.7 23.6l-236.92.01C12.74 306.3 0 293.42 0 277.76L.24 28.52C.27 12.84 13.05 0 28.8 0zm-5.19 261.9 130.45-122.08L23.82 41.69l-.21 220.21zM42.65 23.6l183.96 141.87L400.69 23.6H42.65zM441.3 204.66c-1.32-1.32-2.88-1.97-4.7-1.97-1.79 0-3.38.65-4.68 1.97l-7.16 7.15a46.055 46.055 0 0 0-6.07-3.29c-2.13-.98-4.28-1.82-6.49-2.53V195c0-1.84-.62-3.4-1.92-4.68-1.28-1.28-2.84-1.92-4.68-1.92h-13.77c-1.77 0-3.3.64-4.64 1.92-1.3 1.28-1.97 2.84-1.97 4.68v10.06c-2.29.55-4.53 1.21-6.67 2.05-2.16.84-4.22 1.79-6.16 2.84l-7.93-7.81c-1.24-1.3-2.76-1.98-4.57-1.98-1.82 0-3.38.67-4.71 1.98l-9.64 9.67c-1.33 1.33-1.99 2.89-1.99 4.7 0 1.8.66 3.39 1.99 4.69l7.14 7.16c-1.25 1.92-2.33 3.95-3.3 6.07-.98 2.12-1.8 4.28-2.53 6.48h-10.98c-1.83 0-3.41.62-4.69 1.93-1.28 1.28-1.92 2.84-1.92 4.68v13.77c0 1.77.64 3.3 1.92 4.64 1.28 1.3 2.86 1.96 4.69 1.96h10.05c.55 2.3 1.21 4.53 2.05 6.68.84 2.16 1.8 4.27 2.84 6.3l-7.8 7.79c-1.31 1.24-1.99 2.76-1.99 4.57 0 1.82.68 3.38 1.99 4.71l9.67 9.77c1.33 1.24 2.89 1.86 4.69 1.86 1.81 0 3.39-.62 4.69-1.86l7.17-7.27c1.92 1.25 3.95 2.33 6.07 3.3 2.11.97 4.28 1.81 6.48 2.52v10.98c0 1.84.63 3.4 1.92 4.7 1.28 1.28 2.84 1.92 4.69 1.92h13.77c1.77 0 3.29-.64 4.63-1.92 1.3-1.3 1.97-2.86 1.97-4.7v-10.05c2.29-.54 4.53-1.21 6.67-2.04 2.17-.84 4.27-1.8 6.31-2.86l7.78 7.82c1.25 1.3 2.78 1.99 4.62 1.99 1.88 0 3.42-.68 4.66-1.99l9.78-9.67c1.24-1.33 1.85-2.89 1.85-4.69 0-1.81-.6-3.39-1.85-4.69l-7.28-7.17c1.25-1.92 2.33-3.95 3.3-6.08.98-2.1 1.82-4.28 2.53-6.47h10.98c1.85 0 3.4-.63 4.69-1.92 1.28-1.28 1.92-2.84 1.92-4.69v-13.77c0-1.77-.64-3.29-1.92-4.63-1.29-1.32-2.84-1.97-4.69-1.97h-10.05c-.55-2.21-1.22-4.42-2.05-6.61-.84-2.2-1.79-4.29-2.84-6.23l7.8-7.92c1.3-1.25 1.99-2.76 1.99-4.59 0-1.8-.68-3.36-1.99-4.69l-9.67-9.66zM397 224.63c4.32 0 8.4.82 12.27 2.45 3.85 1.65 7.21 3.89 10.05 6.72 2.82 2.84 5.05 6.21 6.72 10.04 1.63 3.87 2.44 7.96 2.44 12.29 0 4.31-.81 8.41-2.44 12.28-1.67 3.84-3.9 7.19-6.72 10.05-2.84 2.81-6.2 5.05-10.05 6.71-3.87 1.64-7.95 2.45-12.27 2.45-4.33 0-8.42-.81-12.29-2.45-3.84-1.66-7.19-3.9-10.05-6.71-2.82-2.86-5.05-6.21-6.72-10.05-1.63-3.87-2.44-7.97-2.44-12.28 0-4.33.81-8.42 2.44-12.29 1.67-3.85 3.9-7.2 6.72-10.04 2.86-2.83 6.21-5.07 10.05-6.72 3.87-1.63 7.96-2.45 12.29-2.45z"/></svg>