<svg xmlns="http://www.w3.org/2000/svg" shape-rendering="geometricPrecision" text-rendering="geometricPrecision" image-rendering="optimizeQuality" fill-rule="evenodd" clip-rule="evenodd" viewBox="0 0 372 511.67">
    <path d="M55.28 0h183.77c15.24 0 29.15 6.22 39.07 16.21 10.06 10.07 16.19 23.91 16.19 39.08v21.35h-19.12V54.76H19.04v380.13h256.15V271.95h19.12V456.4c0 15.25-6.21 29.17-16.19 39.07-10.08 10.08-23.9 16.2-39.07 16.2H55.28c-15.26 0-29.17-6.2-39.08-16.19C6.13 485.42 0 471.57 0 456.4V55.22c0-15.26 6.21-29.18 16.2-39.09C26.26 6.07 40.02 0 55.28 0zm207.5 156.84c-1.38 0-2.63-.57-3.52-1.48a5.211 5.211 0 0 1-2.23-4.29c0-2.89 2.33-5.22 5.23-5.22h67.37c2.88 0 5.23 2.33 5.23 5.22 0 2.89-2.35 5.22-5.23 5.22h-1.47c-.67.35-1.44.55-2.25.55h-63.13zm-3.5 17.81c.89-.9 2.13-1.48 3.5-1.48h51.48c.82 0 1.59.21 2.26.55h.68a5.226 5.226 0 1 1 0 10.45h-54.94c-2.9 0-5.23-2.33-5.23-5.23 0-1.77.89-3.35 2.25-4.29zm32.11 52.89-20.69 23.94c-1.99 2.24-4.55 3.23-7.06 3.23-1.14 0-2.34-.23-3.46-.66-1.02-.4-2.02-.98-2.89-1.75l-.53-.54c-1.59-1.65-2.63-3.88-2.63-6.51l-.83-17.71h-18.14c-4.17 0-8-1.72-10.76-4.49-2.8-2.79-4.52-6.63-4.52-10.79v-91.57c0-4.17 1.74-8 4.52-10.76 2.74-2.78 6.58-4.52 10.76-4.52h121.56c4.19 0 8.02 1.73 10.79 4.49 2.76 2.77 4.49 6.6 4.49 10.79v91.57c0 4.18-1.72 8.02-4.5 10.78-2.73 2.77-6.58 4.5-10.78 4.5h-65.33zm-26.04 12.64 18.83-21.77a5.71 5.71 0 0 1 4.62-2.34h67.92c1.05 0 2-.43 2.69-1.12.69-.67 1.12-1.62 1.12-2.69v-91.57c0-1.02-.43-1.99-1.13-2.68a3.824 3.824 0 0 0-2.68-1.12H235.16c-1.03 0-1.98.43-2.68 1.13-.7.67-1.13 1.63-1.13 2.67v91.57c0 1.05.42 2.02 1.1 2.68.69.71 1.66 1.13 2.71 1.13h23.59c3.02.03 5.56 2.41 5.71 5.47l.89 18.64zM124.03 296.9l25.43 17.72 23.85-19.87c-1.42-2.19-2.9-5.14-3.98-8.15-3.29 3.03-6.74 5.03-10.23 6.28-3.68 1.32-7.44 1.81-11.18 1.82-3.88.03-7.79-.46-11.63-1.77a33.64 33.64 0 0 1-3.03-1.22c-1.99-.7-3.85-1.56-5.52-2.6-1.04 3.04-2.28 5.61-3.71 7.79zm67.21-62.74c1.47.33 2.65 1.18 3.6 2.4 1.76 2.27 2.25 5.97 1.78 9.77-.45 3.54-1.75 7.35-3.63 10.17-2.13 3.22-4.97 5.36-8.24 5.16-.22 10.27-5.07 15.19-11.52 21.27 3.64 12.34 10.84 16.97 18.8 19.56 6.42 1.5 14.82 1.66 22.27 3.75 35.93 10.02 33.87 27.03 38.7 68.85-.51 5.35-3.55 8.44-9.52 8.89H50.82c-5.97-.45-9.01-3.55-9.52-8.89 2.75-46.05 15.47-66.36 57.94-72.58 7.09-1.03 13.45-2.68 17.7-4.66 2.96-2.85 5.39-6.82 7-12.51l-1.78-1.54c-6.59-5.69-12.09-10.52-13.14-22.17-4.55-.41-7.77-4.71-9.35-9.88-.84-2.73-1.21-5.73-1.07-8.44.16-2.95.96-5.62 2.45-7.45.33-.39.68-.74 1.05-1.06l-.23-.14c-1.04-13.06 2.02-35.71-12.16-39.99 26.83-33.15 56.27-39.24 80.94-18.94 25.66 1.34 38.03 38.45 20.59 58.43zm-75.17-8.11c-1.24 3.57-1.33 7.75-.32 12.47.24.83.07 1.76-.52 2.48a2.732 2.732 0 0 1-3.85.37c-3.36-2.78-5.27-3.04-6.1-2.02-.72.87-1.14 2.42-1.23 4.23-.11 2.1.19 4.44.84 6.55 1.11 3.67 3.25 6.69 5.89 5.88l.74-.11c1.5-.03 2.76 1.15 2.79 2.66.27 11.38 5.3 15.82 11.42 21.09l2.78 2.4c3.11 2.79 6.32 4.59 9.54 5.69 2.45.84 4.92 1.28 7.38 1.44 1.79.02 3.58-.06 5.35-.26 2.58-.29 5.07-.81 7.37-1.52 2.67-1.09 5.3-2.74 7.85-5.17l2.76-2.61c6.51-6.12 11.32-10.64 10.4-21.6-.05-.59.1-1.2.45-1.74.83-1.25 2.53-1.6 3.78-.76 1.86 1.22 3.68.03 5.05-2.04 1.42-2.15 2.42-5.07 2.76-7.82.32-2.48.15-4.69-.68-5.76-.64-.83-2.4-.5-5.75 2.05-.6.53-1.41.79-2.26.64a2.747 2.747 0 0 1-2.24-3.16c2.4-13.97 1.2-22.62-1.85-28.36-2.67-4.99-6.93-7.94-11.46-10.35-10.06 7.7-17.17 8.58-24.25 9.44-5.82.72-11.64 1.45-19.33 6.77-3.64 2.52-6.07 5.58-7.31 9.12zm31.02 226.13c12.5 0 22.73 10.07 22.73 22.73 0 12.52-10.07 22.74-22.73 22.74-12.51 0-22.73-10.07-22.73-22.74 0-12.5 10.06-22.73 22.73-22.73z"/>
</svg>
