<svg xmlns="http://www.w3.org/2000/svg" shape-rendering="geometricPrecision" text-rendering="geometricPrecision" image-rendering="optimizeQuality" fill-rule="evenodd" clip-rule="evenodd" viewBox="0 0 512 449.64"><path d="M412.87.21C467.96.21 512 44.25 512 99.34V248.8c0 55.12-44.04 99.12-99.13 99.12h-95.12c-41.54 52.62-95.42 84.21-159.25 101.25-5 1.33-10.37-.21-14.04-4.21-5.17-5.75-4.63-14.58 1.16-19.79 8.09-7.13 15.01-14.41 20.55-21.71 12.37-16.37 19.62-36.25 25.75-55.71h-92.8C44.04 347.71 0 303.67 0 248.59V99.13C0 44.04 44.04 0 99.12 0c104.59 0 209.09.21 313.75.21zm-308.5 224.08H70.24l6.44-105.84h44.19l12.57 53.85h2.46l12.58-53.85h44.19l6.44 105.84h-34.13l-2.04-51.31h-2.45l-12.86 51.31h-25.91l-13.04-51.31h-2.28l-2.03 51.31zm141.14 0h-34.13l6.44-105.84h44.2l11.94 53.85h3.72l11.94-53.85h44.19l6.44 105.84h-34.13l-2.03-51.31h-2.45l-12.87 51.31h-25.91l-13.03-51.31h-2.28l-2.04 51.31zm107.02-1.87 4.74-26.67c10.39 2.59 19.73 3.89 28.03 3.89 8.29 0 14.98-.33 20.07-1.01v-9.74l-15.25-1.35c-13.77-1.24-23.22-4.54-28.36-9.91-5.13-5.36-7.7-13.29-7.7-23.79 0-14.44 3.13-24.38 9.39-29.8 6.27-5.42 16.91-8.13 31.92-8.13 15.02 0 28.57 1.41 40.64 4.23l-4.23 25.83c-10.49-1.69-18.91-2.54-25.23-2.54s-11.68.29-16.09.85v9.56l12.19 1.18c14.79 1.47 25.01 5 30.65 10.59 5.65 5.59 8.47 13.35 8.47 23.28 0 7.12-.96 13.13-2.87 18.04-1.93 4.91-4.21 8.63-6.87 11.17-2.65 2.54-6.4 4.5-11.26 5.85-4.85 1.35-9.11 2.17-12.78 2.45-3.67.28-8.56.43-14.65.43-14.68 0-28.28-1.47-40.81-4.41z"/></svg>