<svg xmlns="http://www.w3.org/2000/svg" shape-rendering="geometricPrecision" text-rendering="geometricPrecision" image-rendering="optimizeQuality" fill-rule="evenodd" clip-rule="evenodd" viewBox="0 0 419 512.26"><path d="M53 0h179.31c14.62 0 27.8 5.95 37.45 15.55 9.6 9.6 15.55 22.84 15.55 37.45v44.28H270.1V66.63H15.26v371.32H270.1v-41l15.21-12.43v74.74c0 14.61-5.95 27.8-15.55 37.45-9.6 9.59-22.83 15.55-37.45 15.55H53c-14.61 0-27.8-5.96-37.45-15.55C5.96 487.11 0 473.87 0 459.26V53c0-14.61 5.96-27.8 15.55-37.45C25.15 5.95 38.44 0 53 0zm310.82 125.31c30.66 0 55.18 24.51 55.18 55.17v83.19c0 30.68-24.52 55.18-55.18 55.18h-52.94c-23.13 29.29-53.11 46.87-88.65 56.35-2.78.74-5.77-.11-7.81-2.34-2.88-3.2-2.57-8.12.65-11.01 4.5-3.97 8.35-8.03 11.44-12.09 6.88-9.11 10.92-20.18 14.33-31.01h-51.65c-30.66-.02-55.18-24.53-55.18-55.19v-83.19c0-30.67 24.52-55.18 55.18-55.18 58.21 0 116.38.12 174.63.12zM192.1 250.03h-18.99l3.58-58.91h24.6l7 29.97h1.37l7-29.97h24.6l3.58 58.91h-19l-1.13-28.56h-1.36l-7.17 28.56h-14.42l-7.25-28.56h-1.27l-1.14 28.56zm78.57 0h-19l3.58-58.91h24.61l6.64 29.97h2.07l6.65-29.97h24.6l3.58 58.91h-18.99l-1.14-28.56h-1.36l-7.16 28.56h-14.42l-7.26-28.56h-1.27l-1.13 28.56zm59.57-1.04 2.64-14.84c5.78 1.44 10.98 2.16 15.6 2.16 4.61 0 8.34-.18 11.16-.56v-5.42l-8.48-.75c-7.66-.69-12.93-2.53-15.79-5.52-2.85-2.98-4.28-7.39-4.28-13.24 0-8.04 1.74-13.57 5.22-16.59 3.49-3.02 9.42-4.52 17.77-4.52 8.36 0 15.9.78 22.62 2.35l-2.35 14.38c-5.84-.94-10.53-1.41-14.05-1.41-3.51 0-6.5.15-8.95.47v5.32l6.78.66c8.24.81 13.92 2.78 17.06 5.89 3.15 3.11 4.72 7.43 4.72 12.96 0 3.96-.54 7.31-1.6 10.04-1.07 2.73-2.34 4.8-3.82 6.22-1.48 1.41-3.57 2.5-6.27 3.25-2.7.75-5.07 1.21-7.12 1.37-2.04.16-4.76.23-8.15.23-8.17 0-15.74-.81-22.71-2.45zM142.66 454.58c11.96 0 21.7 9.75 21.7 21.71 0 11.95-9.74 21.7-21.7 21.7-11.96 0-21.71-9.75-21.71-21.7 0-11.96 9.7-21.71 21.71-21.71z"/></svg>