<svg xmlns="http://www.w3.org/2000/svg" shape-rendering="geometricPrecision" text-rendering="geometricPrecision" image-rendering="optimizeQuality" fill-rule="evenodd" clip-rule="evenodd" viewBox="0 0 369 511.52"><path d="M55.26 0h183.71c15.24 0 29.15 6.22 39.06 16.21 10.06 10.06 16.19 23.9 16.19 39.06v33.57h-19.11v-34.1H19.04v380.02h256.07V296.95h19.11v159.31c0 15.25-6.21 29.16-16.19 39.06-10.07 10.08-23.9 16.19-39.06 16.19l-183.71.01c-15.25 0-29.16-6.21-39.06-16.2C6.13 485.27 0 471.44 0 456.26V55.2c0-15.26 6.21-29.17 16.2-39.08C26.25 6.07 40.01 0 55.26 0zm135.92 221.35c1.47.33 2.65 1.18 3.6 2.4 1.76 2.27 2.25 5.97 1.77 9.76-.45 3.55-1.75 7.35-3.62 10.18-2.13 3.22-4.97 5.35-8.24 5.15-.22 10.26-5.07 15.19-11.52 21.25 3.64 12.36 10.84 16.97 18.8 19.56 6.42 1.52 14.8 1.67 22.26 3.75 35.92 10.04 33.86 23.45 38.69 65.26-.51 5.36-3.55 8.44-9.52 8.89H50.8c-5.97-.45-9.01-3.55-9.52-8.89 2.75-46.04 15.46-62.76 57.92-68.98 7.1-1.04 13.45-2.67 17.71-4.66 2.95-2.85 5.37-6.82 6.98-12.51l-1.77-1.54c-6.59-5.68-12.09-10.52-13.14-22.16-4.54-.4-7.77-4.71-9.35-9.88-.83-2.71-1.21-5.72-1.06-8.43.16-2.95.96-5.63 2.45-7.45.33-.38.68-.74 1.04-1.06l-.22-.14c-1.05-13.05 2.02-35.69-12.16-39.98 26.82-33.13 56.25-39.22 80.92-18.94 25.64 1.35 38.01 38.45 20.58 58.42zm-21.9 52.42c-3.29 3.03-6.73 5.02-10.24 6.29-3.67 1.31-7.44 1.8-11.17 1.82-3.87.02-7.79-.47-11.62-1.78a32.05 32.05 0 0 1-3.01-1.21c-2-.7-3.86-1.56-5.54-2.61-1.04 3.04-2.28 5.61-3.7 7.79l25.41 17.71 23.84-19.86c-1.42-2.19-2.89-5.13-3.97-8.15zm-23.83 2.59c1.77.02 3.54-.07 5.28-.27 2.56-.29 5.05-.8 7.34-1.5 2.68-1.08 5.32-2.75 7.88-5.18l2.75-2.62c6.52-6.11 11.31-10.63 10.4-21.59a2.738 2.738 0 0 1 4.24-2.5c1.84 1.22 3.67.03 5.04-2.03 1.42-2.15 2.42-5.08 2.76-7.82.31-2.48.14-4.7-.68-5.76-.64-.83-2.4-.5-5.75 2.05-.6.53-1.41.79-2.26.64a2.737 2.737 0 0 1-2.23-3.16c2.39-13.96 1.19-22.61-1.87-28.35-2.65-4.99-6.91-7.94-11.44-10.35-10.07 7.7-17.17 8.58-24.25 9.44-5.81.72-11.63 1.44-19.32 6.77-3.65 2.52-6.07 5.58-7.31 9.12-1.24 3.56-1.34 7.74-.32 12.46.24.83.07 1.76-.52 2.48a2.722 2.722 0 0 1-3.85.36c-3.36-2.76-5.26-3.02-6.1-2.02-.72.87-1.13 2.43-1.22 4.24-.12 2.1.18 4.43.83 6.55 1.11 3.67 3.25 6.69 5.89 5.88l.74-.12c1.5-.03 2.76 1.16 2.79 2.67.28 11.37 5.29 15.81 11.42 21.08l2.78 2.4c3.11 2.78 6.32 4.59 9.54 5.69 2.43.83 4.9 1.27 7.36 1.44h.08zm143.66-29.7-21.12 24.44a8.067 8.067 0 0 1-6.07 2.72c-.98 0-1.99-.19-2.93-.55-.95-.35-1.85-.89-2.61-1.58a8.06 8.06 0 0 1-2.69-6.07l-.9-18.96h-19.33c-3.85 0-7.35-1.59-9.89-4.11-2.54-2.56-4.13-6.06-4.13-9.91v-99.75c0-3.85 1.59-7.37 4.12-9.9 2.56-2.53 6.07-4.12 9.9-4.12h121.52c3.84 0 7.34 1.59 9.89 4.13 2.54 2.52 4.13 6.04 4.13 9.89v99.75c0 3.85-1.58 7.36-4.11 9.89-2.55 2.55-6.06 4.13-9.91 4.13h-65.87zm-27-89.45h40.72c4.05 0 7.37 3.32 7.37 7.38v7.86l23.51-14.13v44.58l-23.51-12.68v10.22c0 4.05-3.32 7.37-7.37 7.37h-40.72c-4.06 0-7.38-3.32-7.38-7.37v-35.85c0-4.06 3.32-7.38 7.38-7.38zm.43 106.53 22.51-26.03h69.93c1.4 0 2.68-.57 3.59-1.48.91-.92 1.48-2.19 1.48-3.59v-99.75c0-1.38-.58-2.64-1.5-3.57-.91-.93-2.18-1.5-3.57-1.5H233.46c-1.39 0-2.65.58-3.58 1.49-.91.94-1.49 2.2-1.49 3.58v99.75a5.074 5.074 0 0 0 5.07 5.07h27.83l1.25 26.03zm-115.5 188.3c12.5 0 22.72 10.07 22.72 22.72 0 12.52-10.07 22.73-22.72 22.73-12.5 0-22.73-10.06-22.73-22.73 0-12.49 10.07-22.72 22.73-22.72z"/></svg>