<svg xmlns="http://www.w3.org/2000/svg" shape-rendering="geometricPrecision" text-rendering="geometricPrecision" image-rendering="optimizeQuality" fill-rule="evenodd" clip-rule="evenodd" viewBox="0 0 295 512.86"><path d="M45.9 76.2h29.38c2.93 0 5.33 2.4 5.33 5.32v5.68L97.57 77v32.17l-16.96-9.15v7.37c0 2.92-2.4 5.32-5.33 5.32H45.9c-2.92 0-5.32-2.4-5.32-5.32V81.52c0-2.92 2.4-5.32 5.32-5.32zm169.88 75.57c-6.79 4.38-16.34 2.85-23.06-1.69l10.9 20.4 12.16-18.65v-.06zm-65.48 28.61c.97-4.43 2.47-8.01 4.61-10.53 4.45-5.24 11.48-7.75 22.22-9.86.37-.07.81-.14 1.29-.22-8.55-.13-18.06-3.94-19.69-8.38 10.24-.8 14.02-8.15 15.28-18.76 1.92-16.24-.75-37.14 19.6-45.03 16.15-6.28 37.04 2.17 39.32 24.53-.09 15.2 4.35 38.15 18.51 39.26-1.64 4.44-12.85 7.88-22.27 7.82.73.16 1.4.3 1.97.41l.26.06c11.39 2.29 18.81 4.71 23.49 9.87 2.33 2.56 3.93 6.25 4.96 10.86V74.84c0-1-.86-1.91-1.91-1.91H152.21c-1.06 0-1.91.86-1.91 1.91v105.54zm67.27-35.97c3.07-3.25 5.64-6.7 7.49-10.77 1.23-5.58 1.29-11.45 0-17.65-5.93-2.65-9.82-8.46-11.8-17.18-2.38 16.61-23.61 15.9-28.96 18.92 0 7.55-1.03 12.83 2.43 19.72.76 1.5 1.55 2.9 2.4 4.2.76 1.14 1.48 2.25 2.37 3.16 7.13 7.39 19.33 6.47 26.07-.4zm-65.36-78.66h105.73c2.49 0 4.78 1.06 6.4 2.69 1.65 1.65 2.69 3.96 2.69 6.4v109.54c0 2.44-1.04 4.71-2.63 6.33l-.13.14c-1.62 1.57-3.87 2.62-6.33 2.62H152.21c-2.46 0-4.81-1.06-6.47-2.76-1.61-1.64-2.62-3.89-2.62-6.33V74.84c0-2.51 1.01-4.78 2.66-6.43a9.077 9.077 0 0 1 6.43-2.66zm39.47 224.87c1.48.34 2.67 1.19 3.62 2.41 1.76 2.28 2.25 5.98 1.78 9.8-.45 3.54-1.76 7.36-3.64 10.19-2.14 3.22-4.98 5.37-8.26 5.18-.22 10.28-5.08 15.22-11.54 21.31 3.64 12.37 10.86 17.01 18.84 19.6 6.44 1.51 14.86 1.67 22.32 3.76 36.01 10.04 30.06 11.33 38.79 43.89-.51 5.37-3.55 8.46-9.54 8.91H50.94c-5.99-.45-9.03-3.56-9.54-8.91 2.12-35.65 15.5-41.4 58.07-47.62 7.1-1.04 13.48-2.69 17.75-4.67 2.96-2.86 5.4-6.84 7.01-12.55l-1.78-1.54c-6.61-5.7-12.13-10.54-13.18-22.22-4.55-.41-7.79-4.72-9.37-9.9-.84-2.73-1.21-5.74-1.07-8.46.16-2.96.96-5.64 2.46-7.47.32-.39.68-.75 1.04-1.06l-.22-.14c-1.05-13.09 2.02-35.79-12.19-40.08 26.89-33.23 56.4-39.34 81.13-18.99 25.71 1.34 38.12 38.54 20.63 58.56zm-21.95 52.57c-3.3 3.03-6.76 5.04-10.26 6.3-3.69 1.31-7.46 1.8-11.21 1.82-3.88.03-7.81-.46-11.65-1.78-1.02-.35-2.03-.75-3.04-1.22-2-.7-3.85-1.56-5.53-2.6-1.05 3.04-2.29 5.62-3.72 7.81l25.49 17.75 23.9-19.92c-1.42-2.18-2.9-5.14-3.98-8.16zm-53.39-60.69c-1.24 3.58-1.34 7.77-.32 12.49.24.84.07 1.78-.53 2.5-.95 1.17-2.69 1.33-3.85.36-3.37-2.78-5.28-3.04-6.12-2.03-.72.88-1.13 2.44-1.23 4.25-.11 2.11.19 4.45.84 6.57 1.11 3.68 3.27 6.71 5.9 5.89l.75-.11a2.74 2.74 0 0 1 2.8 2.66c.27 11.41 5.31 15.86 11.45 21.14l2.78 2.41c3.12 2.79 6.33 4.6 9.56 5.7 2.46.84 4.93 1.28 7.4 1.44 1.79.03 3.59-.06 5.36-.26 2.59-.29 5.09-.8 7.39-1.52 2.68-1.09 5.31-2.75 7.87-5.18l2.76-2.62c6.53-6.13 11.35-10.66 10.43-21.65-.05-.59.1-1.2.45-1.74.83-1.25 2.54-1.6 3.79-.76 1.86 1.22 3.68.02 5.06-2.05 1.42-2.15 2.42-5.08 2.77-7.84.31-2.48.14-4.7-.69-5.77-.64-.83-2.4-.5-5.76 2.06-.6.52-1.41.78-2.26.64-1.5-.26-2.5-1.68-2.25-3.17 2.4-14 1.21-22.67-1.85-28.43-2.68-5-6.95-7.95-11.49-10.37-10.09 7.72-17.21 8.6-24.3 9.46-5.84.73-11.67 1.46-19.38 6.79-3.66 2.53-6.09 5.59-7.33 9.14zM55.41 0h184.2c15.28 0 29.22 6.23 39.16 16.25C288.85 26.34 295 40.21 295 55.42v402.04c0 15.29-6.22 29.24-16.23 39.16-10.1 10.11-23.96 16.24-39.16 16.24H55.41c-15.3 0-29.24-6.21-39.17-16.23C6.15 486.55 0 472.67 0 457.46V55.34C0 40.05 6.22 26.1 16.24 16.16 26.32 6.08 40.11 0 55.41 0zM19.09 435.9h256.75V54.89H19.09V435.9zm128.34 17.34c12.54 0 22.78 10.09 22.78 22.78 0 12.55-10.09 22.79-22.78 22.79-12.53 0-22.79-10.09-22.79-22.79 0-12.53 10.09-22.78 22.79-22.78z"/></svg>