<svg xmlns="http://www.w3.org/2000/svg" shape-rendering="geometricPrecision" text-rendering="geometricPrecision" image-rendering="optimizeQuality" fill-rule="evenodd" clip-rule="evenodd" viewBox="0 0 512 451.17"><path fill-rule="nonzero" d="M262.8.14h.29c69.73 2.11 132.31 26.93 177.12 65.35 45.9 39.35 73.43 92.99 71.71 151.56v.29c-1.09 35.02-12.53 67.7-31.87 96.15-19.82 29.15-47.89 53.83-81.5 71.98-37.22 20.09-77.61 32.59-118.38 36-37.2 3.12-74.77-1.3-110.64-14.38L23.09 451.17l41.98-105.89c-18.02-16.02-32.08-33.47-42.44-51.71-18.67-32.9-25.39-68.32-21.62-102.85 3.72-34.27 17.8-67.57 40.74-96.53 17.64-22.28 40.51-41.97 67.88-57.5 22.12-12.56 46.75-22.28 73.01-28.53C207.81 2.18 234.78-.69 262.8.14zm-97.75 279.2c32.01-8.88 52.85-27.45 58.03-59.77 1.41-8.79-.56-2.15-6.52 2.31-19.47 14.56-57.74 9.41-63.05-23.86-10.69-58.91 62.96-69.1 84.76-36.57 5.07 7.56 8.43 16.38 9.64 26.08 5.25 42.16-16.36 79.7-54.31 97.34-7.02 3.27-14.41 5.81-22.38 7.69-3.99.81-6.89-1.36-8.22-5.04-1.13-3.12-1.52-6.58 2.05-8.18zm110.88 0c32.02-8.88 52.85-27.45 58.03-59.77 1.41-8.79-.56-2.15-6.52 2.31-19.47 14.56-57.74 9.41-63.05-23.86-10.68-58.91 62.96-69.1 84.76-36.57 5.07 7.56 8.43 16.38 9.64 26.08 5.25 42.16-16.35 79.7-54.31 97.34-7.02 3.27-14.42 5.81-22.38 7.69-3.99.81-6.88-1.36-8.22-5.04-1.14-3.12-1.52-6.58 2.05-8.18zM262.08 36.88h-.28c-24.47-.72-48.25 1.83-70.66 7.16-23.03 5.49-44.39 13.88-63.35 24.64-23.26 13.2-42.52 29.73-57.22 48.28-18.6 23.48-29.99 50.27-32.96 77.64-2.96 27.11 2.34 54.94 17.01 80.81 10.08 17.76 24.57 34.67 43.8 49.91l10.73 8.5-23.85 60.15 85.68-25.79 5.91 2.32c32.24 12.7 66.36 17.07 100.25 14.22 35.73-2.99 71.21-13.98 103.97-31.68 28.52-15.39 52.13-36.02 68.53-60.16 15.53-22.83 24.7-48.91 25.53-76.69l.01-.29c1.32-46.83-21.27-90.19-58.9-122.45-38.76-33.24-93.23-54.71-154.2-56.57z"/></svg>