<svg xmlns="http://www.w3.org/2000/svg" shape-rendering="geometricPrecision" text-rendering="geometricPrecision" image-rendering="optimizeQuality" fill-rule="evenodd" clip-rule="evenodd" viewBox="0 0 512 497.34"><path fill-rule="nonzero" d="M479.66 181.91c3.25-2.8 6.85-4.04 10.59-4.04 12.37 0 21.75 14.47 21.75 25.76v269.1c0 13.49-11.12 24.61-24.62 24.61H24.61C11.11 497.34 0 486.22 0 472.73v-269.1c0-11.23 9.26-25.77 21.75-25.77 2.94 0 5.8.76 8.46 2.47V11.91C30.21 5.33 35.55 0 42.14 0h338.28c3.68 0 6.97 1.66 9.16 4.29l86.69 78.17c2.24 2.31 3.37 5.29 3.37 8.28h.02v91.17zm-308.95-6.61h-28.83l-10.75-24.39h-8.69v24.39H99.28V93.38h41.28c18.79 0 28.19 9.57 28.19 28.7 0 13.11-4.06 21.76-12.2 25.96l14.16 27.26zm-48.27-60.95v16.39h12.14c3.15 0 5.44-.34 6.89-.99 1.44-.65 2.16-2.16 2.16-4.52v-5.38c0-2.36-.73-3.87-2.16-4.52-1.44-.64-3.76-.98-6.89-.98h-12.14zm57.12 59.5 3.66-20.99c8.04 2.01 15.28 3.02 21.69 3.02 6.43 0 11.61-.27 15.54-.79v-8.4l-11.79-1.06c-10.65-.95-17.99-2.29-21.96-6.45-3.97-4.13-5.97-10.28-5.97-18.41 0-11.18 2.43-18.88 7.28-23.07 4.86-4.19 13.09-6.28 24.7-6.28 11.63 0 22.12 1.09 31.46 3.27l-3.27 20.34c-8.13-1.3-14.64-1.97-19.53-1.97-4.9 0-9.05.22-12.45.67v8.29l9.43.92c11.44 1.13 19.35 2.61 23.72 6.94 4.38 4.33 6.56 10.34 6.56 18.03 0 5.5-.74 10.15-2.22 13.95-1.49 3.81-3.27 6.69-5.31 8.66-2.05 1.97-4.96 3.47-8.72 4.52-3.76 1.05-7.05 1.68-9.9 1.9-2.83.22-6.62.32-11.33.32-11.37 0-21.9-1.13-31.59-3.41zm126.55-80.47h27.65l-20.31 81.92h-38.27l-20.32-81.92h27.65l9.9 52.04h3.67l10.03-52.04zm80.41 62.13h-20.09v19.79h-23.17V93.38h41.29c18.79 0 28.18 10.09 28.18 30.27 0 11.11-2.45 19.32-7.34 24.65-1.82 2.01-4.37 3.73-7.6 5.11-3.22 1.39-7.02 2.1-11.27 2.1zm-20.09-41.16v20.18h12.14c3.14 0 5.45-.34 6.88-.98 1.43-.64 2.16-2.17 2.16-4.51v-9.19c0-2.36-.73-3.88-2.16-4.52-1.43-.63-3.77-.98-6.88-.98h-12.14zM350.54 236.8H161.46v-18.87h189.08v18.87zm25.95-214.36H54.05v178.88L253.5 366.9l202.33-164.17V93.56l-79.34-71.12zm111.68 417.89V206.02L332.71 329.25l155.46 111.08zM177.18 330.55 23.83 206.15v233.63l153.35-109.23zm68.32 61.04-50.47-45.1-171.2 124.87v1.37c0 .23.08.42.19.54l.05.04c.12.11.3.19.54.19h462.77c.24 0 .43-.08.55-.19v.01l.05-.06c.12-.11.19-.3.19-.54v-.81L314.66 345l-53.42 46.69-.01-.01c-4.44 3.9-11.21 3.94-15.73-.09z"/></svg>