<svg xmlns="http://www.w3.org/2000/svg" shape-rendering="geometricPrecision" text-rendering="geometricPrecision" image-rendering="optimizeQuality" fill-rule="evenodd" clip-rule="evenodd" viewBox="0 0 430 512.59"><path d="M55.38 0h184.09c15.27 0 29.21 6.24 39.14 16.24 10.08 10.09 16.22 23.95 16.22 39.15v23.57h-19.15V60.4H19.07v375.27h256.61v-44.23l2.86-1.75c5.62-3.49 11.05-7.31 16.29-11.47v78.99c0 15.29-6.22 29.23-16.22 39.15-10.1 10.1-23.94 16.23-39.14 16.23H55.38c-15.29 0-29.23-6.22-39.16-16.23C6.14 486.29 0 472.43 0 457.21V55.32c0-15.29 6.22-29.23 16.22-39.16C26.3 6.08 40.09 0 55.38 0zM430 139.1v160.82c0 11.54-9.42 20.96-20.96 20.96H291.39l-51.68 49.58a8.227 8.227 0 0 1-6.11 2.73c-4.51 0-8.18-3.66-8.18-8.18v-44.13H198.1c-11.49 0-20.96-9.46-20.96-20.96V139.1c0-11.43 9.51-20.96 20.96-20.96h210.94c11.49 0 20.96 9.47 20.96 20.96zM236.86 247.87c-4.51 0-8.17-3.96-8.17-8.85 0-4.88 3.66-8.84 8.17-8.84h113.03c4.5 0 8.17 3.96 8.17 8.84 0 4.89-3.67 8.85-8.17 8.85H236.86zm0-53.04c-4.51 0-8.17-3.96-8.17-8.85 0-4.88 3.66-8.84 8.17-8.84h138.59c4.51 0 8.17 3.96 8.17 8.84 0 4.89-3.66 8.85-8.17 8.85H236.86zM147.34 453c12.54 0 22.77 10.08 22.77 22.76 0 12.54-10.08 22.78-22.77 22.78-12.52 0-22.77-10.09-22.77-22.78 0-12.52 10.09-22.76 22.77-22.76z"/></svg>