<svg xmlns="http://www.w3.org/2000/svg" shape-rendering="geometricPrecision" text-rendering="geometricPrecision" image-rendering="optimizeQuality" fill-rule="evenodd" clip-rule="evenodd" viewBox="0 0 512 503.81"><path fill-rule="nonzero" d="M85.42 171.56c-.4 1.07-.88 2.09-1.43 3.05l-.46-.09c-12.75-2.55-24.62-2.85-35.59-1.31-2.29-4.8-2.7-10.49-.7-15.87 17.7-47.26 49.18-86.63 88.89-114.15C175.78 15.71 223.61 0 274.09 0c66.88 0 127.44 27.12 171.27 70.95 33.59 33.59 57.36 77 66.64 125.55h-41.8c-8.65-37.24-27.63-70.51-53.75-96.63-36.43-36.43-86.77-58.97-142.36-58.97-42.1 0-81.89 13.04-114.8 35.84-33.01 22.88-59.17 55.59-73.87 94.82zM220.2 148.8h-15.83v50.78h-21.84V148.8H166.7v-17.47h53.5v17.47zm5.19 16.71c0-12.45 2.33-21.53 6.99-27.25 4.66-5.71 13.06-8.57 25.22-8.57 12.15 0 20.56 2.86 25.22 8.57 4.66 5.72 6.99 14.8 6.99 27.25 0 6.19-.49 11.39-1.47 15.61-.99 4.23-2.68 7.9-5.08 11.03-2.4 3.13-5.71 5.43-9.94 6.88-4.22 1.46-9.46 2.18-15.72 2.18s-11.5-.72-15.72-2.18c-4.22-1.45-7.54-3.75-9.94-6.88-2.4-3.13-4.1-6.8-5.08-11.03-.98-4.22-1.47-9.42-1.47-15.61zm23.47-11.36v28.39h9.07c2.98 0 5.14-.34 6.49-1.03 1.35-.7 2.02-2.28 2.02-4.75v-28.4h-9.17c-2.91 0-5.04.35-6.39 1.04-1.35.69-2.02 2.28-2.02 4.75zm94.73 45.43h-43.68v-68.25h21.84v50.78h21.84v17.47zm52.14 0h-43.67v-68.25h21.83v50.78h21.84v17.47zm-169.86 94.43h-27.19v35.98H166.7v-96.93h65.57l-4 23.18h-29.59v14.66h27.19v23.11zm101.96 35.98h-35.18l-13.11-28.84h-6.88v28.84h-31.99v-96.93h50.38c22.93 0 34.39 11.32 34.39 33.96 0 15.52-4.96 25.75-14.88 30.71l17.27 32.26zm-55.17-72.12v19.39h7.36c3.84 0 6.64-.39 8.39-1.16 1.76-.78 2.64-2.56 2.64-5.35v-6.36c0-2.79-.88-4.58-2.64-5.35-1.75-.78-4.55-1.17-8.39-1.17h-7.36zm129.15 35.52h-31.99v13.42H409v23.18h-71.17v-96.93h70.37l-3.99 23.18h-34.39v14.66h31.99v22.49zm83.56 0h-31.98v13.42h39.18v23.18H421.4v-96.93h70.37l-4 23.18h-34.38v14.66h31.98v22.49zM75.24 328.71c7.25 16.6 15.89 32.73 27.47 47.93 12.56 16.57 28.73 32.16 50.34 46.33 4.09 2.6 8.6-.75 11.8-3.32 1.88-1.51 4.28-3.98 6.81-6.71 10.05-10.61 22.5-23.78 37.09-14.93.32.19.56.4.88.59l48.07 35.06c.14.1.31.29.46.4 6.25 5.38 8.25 12.86 7.45 20.98-2.22 20.44-18.26 37.47-37.29 43.72-10.03 3.36-20.91 4.57-31.3 4.97-16.3.62-31.16-2.52-46.02-8.92-14.52-6.29-28.82-15.61-44.25-27.62l-1.13-.92c-7.08-5.56-14.72-11.52-22.1-18.37-27.05-25.43-53.54-60.78-69.23-98.21-13.16-31.42-18.62-64.4-10.41-94.37 4.52-16.42 13.35-30.86 26.95-39.54 11.84-7.59 27.05-10.81 45.88-7.06 2.17.4 3.98 1.88 4.79 3.87l26.83 59.14c4.13 6.76 4.06 12.99.76 18.89-2.74 4.83-7.64 9.01-14.12 12.72-1.93 1.32-4.21 2.63-6.59 3.99-5.88 3.36-12.35 7.11-14.47 11.91-1.71 3.86-.2 5.96 1.33 9.47zm406.68 37.85a245.143 245.143 0 0 1-22.47 31.46c-30.8 36.61-72.23 63.98-119.49 77.33-10.03 2.83-35.15 9.48-43.95 2.4 1.62-5.07 3.61-13.6 4.19-19.03l.03-.27c.48-4.8.48-9.6-.08-14.3 2.43-1.73 5.28-2.96 8.42-3.49 47.8-8.24 89.83-33.3 119.73-68.84 1.46-1.73 2.88-3.48 4.28-5.26h49.34z"/></svg>