<svg xmlns="http://www.w3.org/2000/svg" shape-rendering="geometricPrecision" text-rendering="geometricPrecision" image-rendering="optimizeQuality" fill-rule="evenodd" clip-rule="evenodd" viewBox="0 0 512 437.33"><path fill-rule="nonzero" d="m112.82 386.32 67.13-64.38c2.95-2.84 6.75-4.25 10.55-4.25l66.43-.02c-11.99 5.9-22.09 14.77-29.56 30.51h-30.79l-87.68 84.1c-2.8 3.09-6.85 5.05-11.35 5.05-8.43 0-15.27-6.84-15.27-15.27v-73.88H37.04c-10.2 0-19.45-4.2-26.13-10.89C4.18 330.56 0 321.27 0 311.13V37.05c0-10.12 4.22-19.4 10.94-26.11C17.65 4.22 26.93 0 37.04 0h347.32c10.11 0 19.42 4.19 26.15 10.92 6.69 6.69 10.89 15.94 10.89 26.13v94.2c-9.78-6.89-20-11.05-30.54-12.82V37.05c0-1.74-.75-3.36-1.94-4.55-1.21-1.21-2.84-1.96-4.56-1.96H37.04c-1.69 0-3.3.77-4.52 1.98-1.21 1.22-1.98 2.83-1.98 4.53v274.08c0 1.74.75 3.37 1.95 4.58 1.19 1.19 2.81 1.93 4.55 1.93h60.51c8.43 0 15.27 6.84 15.27 15.27v53.41zm142.57 18.01c-2.12 0-3.84-1.72-3.84-3.84 0-1.1.15-2.18.42-3.25 6.16-48.83 27.74-49.68 54.89-56.78 8.11-2.11 22.92-6.63 31.54-14.18 4.74-4.17 7.62-9.26 6.47-15.39-6.56-6.07-11.61-12.65-12.75-25.19l-.78.01c-1.82-.02-3.58-.43-5.22-1.36-3.62-2.06-5.61-6.01-6.56-10.51-1.14-5.37-2.51-20.75 4.81-23.82l.06-.02c-.91-16.95 1.96-43.79-15.45-49.06 34.36-42.47 73.98-65.57 103.73-27.79 33.14 1.74 47.92 50.59 27.34 76.87h-.87c7.32 3.07 5.94 18.45 4.81 23.82-.96 4.5-2.94 8.45-6.56 10.51-1.64.93-3.4 1.34-5.22 1.36l-.78-.01c-1.14 12.54-6.19 19.12-12.75 25.19-1.15 6.13 1.73 11.22 6.47 15.39 8.62 7.55 23.42 12.07 31.54 14.18 27.15 7.1 48.73 7.95 54.89 56.78.27 1.07.42 2.15.42 3.25 0 2.12-1.72 3.84-3.84 3.84H255.39zm-150.58-267c-8.43 0-15.27-6.84-15.27-15.27s6.84-15.27 15.27-15.27h208.12c8.44 0 15.27 6.84 15.27 15.27s-6.83 15.27-15.27 15.27H104.81zm.01 90.39c-8.43 0-15.27-6.83-15.27-15.27 0-8.43 6.84-15.26 15.27-15.26H246.6c8.43 0 15.27 6.83 15.27 15.26 0 8.44-6.84 15.27-15.27 15.27H104.82z"/></svg>