<svg xmlns="http://www.w3.org/2000/svg" shape-rendering="geometricPrecision" text-rendering="geometricPrecision" image-rendering="optimizeQuality" fill-rule="evenodd" clip-rule="evenodd" viewBox="0 0 512 336.9"><path d="M0 336.9c7-90.55 41.49-58.69 118.75-107.03 23.86 49.79 120.84 53.41 140.73 0 66.68 42.63 117.42 12.48 116.96 107.03H0zm362.41-183.32c-3.39 0-6.15-2.84-6.15-6.34 0-3.49 2.76-6.34 6.15-6.34h57.16c3.39 0 6.15 2.85 6.15 6.34 0 3.5-2.76 6.34-6.15 6.34h-57.16zm0-71.63c-3.39 0-6.15-2.84-6.15-6.34s2.76-6.34 6.15-6.34h104.5c3.39 0 6.15 2.84 6.15 6.34s-2.76 6.34-6.15 6.34h-104.5zm0 35.82c-3.39 0-6.15-2.85-6.15-6.34 0-3.5 2.76-6.34 6.15-6.34h104.5c3.39 0 6.15 2.84 6.15 6.34 0 3.49-2.76 6.34-6.15 6.34h-104.5zm-3.32 102.08 31.01-29.74a6.993 6.993 0 0 1 4.88-1.97l99.91-.02c.83 0 1.59-.33 2.11-.86.55-.58.9-1.33.9-2.15V44.7c0-.81-.35-1.57-.89-2.11-.57-.55-1.33-.9-2.12-.9H334.43c-.77 0-1.52.36-2.09.92-.56.56-.92 1.31-.92 2.09v140.41c0 .81.35 1.57.9 2.12.54.55 1.3.89 2.11.89h17.61c3.89 0 7.05 3.16 7.05 7.05v24.68zm38.7-17.62-40.54 38.88a7.015 7.015 0 0 1-5.21 2.3c-3.9 0-7.06-3.16-7.06-7.05v-34.13h-10.55c-4.69 0-8.96-1.95-12.05-5.03-3.13-3.14-5.06-7.43-5.06-12.09V44.7c0-4.67 1.95-8.97 5.05-12.06 3.1-3.11 7.39-5.06 12.06-5.06h160.46c4.67 0 8.97 1.94 12.08 5.04 3.08 3.12 5.03 7.39 5.03 12.08v140.41c0 4.72-1.93 9-5.02 12.1-3.12 3.09-7.4 5.02-12.09 5.02h-97.1zm-260.83 23.71c-1.03-1.33 2.69-10.5 3.57-11.98-10.09-8.99-18.07-18.05-19.77-36.7l-1.08.02c-2.5-.03-4.91-.6-7.17-1.89-3.61-2.06-6.15-5.59-7.87-9.56-3.64-8.36-15.61-36.07 2.63-33.88-10.2-19.05 12.89-51.59-26.93-63.63 32.67-41.37 101.59-105.16 152.1-41.17 55.28 5.36 72.53 71.06 35.3 107.04 2.18.08 4.24.59 6.06 1.56 6.92 3.7 7.14 11.75 5.33 18.5-1.8 5.64-4.09 9.45-6.24 14.95-2.63 7.42-6.46 8.8-13.86 8-.37 18.35-8.86 27.35-20.26 38.13l3.11 10.58c-15.3 32.46-78.86 33.77-104.92.03z"/></svg>