<?xml version="1.0" encoding="UTF-8"?>
<!DOCTYPE svg PUBLIC "-//W3C//DTD SVG 1.1//EN" "http://www.w3.org/Graphics/SVG/1.1/DTD/svg11.dtd">
<!-- Creator: CorelDRAW 2021 (64-Bit) -->
<svg xmlns="http://www.w3.org/2000/svg" xml:space="preserve" width="495px" height="512px" version="1.1" shape-rendering="geometricPrecision" text-rendering="geometricPrecision" image-rendering="optimizeQuality" fill-rule="evenodd" clip-rule="evenodd"
viewBox="0 0 495 512.43"
 xmlns:xlink="http://www.w3.org/1999/xlink"
 xmlns:xodm="http://www.corel.com/coreldraw/odm/2003">
 <g id="Layer_x0020_1">
  <metadata id="CorelCorpID_0Corel-Layer"/>
  <path fill="black" fill-rule="nonzero" d="M236.46 424.54l-68.34 79.01c-5.49,6.12 -12.62,8.88 -19.61,8.88 -3.2,0 -6.45,-0.63 -9.5,-1.79 -3,-1.14 -5.85,-2.86 -8.34,-5.08 -5.31,-4.65 -8.8,-11.45 -8.8,-19.66l-2.92 -61.36 -73.58 0c-12.44,0 -23.78,-5.13 -31.99,-13.33 -8.27,-8.27 -13.38,-19.62 -13.38,-32.03l0 -333.81c0,-12.43 5.14,-23.81 13.35,-32.02 8.29,-8.21 19.63,-13.35 32.02,-13.35l404.26 0c12.45,0 23.81,5.14 32.02,13.35 8.21,8.21 13.35,19.57 13.35,32.02l0 333.81c0,12.45 -5.11,23.81 -13.34,32.02 -8.18,8.24 -19.54,13.34 -32.03,13.34l-213.17 0zm-94.97 -287.51l142.07 0c12.07,0 21.95,9.88 21.95,21.96l0 23.39 69.97 -42.04 0 132.69 -69.97 -37.76 0 30.43c0,12.07 -9.88,21.94 -21.95,21.94l-142.07 0c-12.09,0 -21.97,-9.87 -21.97,-21.94l0 -106.71c0,-12.08 9.88,-21.96 21.97,-21.96zm9.02 342.8l72.86 -84.26 226.26 0c4.51,0 8.63,-1.85 11.59,-4.81 2.99,-2.92 4.81,-7.03 4.81,-11.58l0 -333.81c0,-4.46 -1.86,-8.57 -4.85,-11.55 -2.98,-2.99 -7.09,-4.85 -11.55,-4.85l-404.26 0c-4.49,0 -8.59,1.86 -11.58,4.82 -2.96,3.01 -4.82,7.12 -4.82,11.58l0 333.81c0,4.51 1.85,8.63 4.8,11.59 2.95,2.95 7.09,4.8 11.6,4.8l101.1 0 4.04 84.26z"/>
 </g>
</svg>
