<?xml version="1.0" encoding="UTF-8"?>
<!DOCTYPE svg PUBLIC "-//W3C//DTD SVG 1.1//EN" "http://www.w3.org/Graphics/SVG/1.1/DTD/svg11.dtd">
<!-- Creator: CorelDRAW 2021 (64-Bit) -->
<svg xmlns="http://www.w3.org/2000/svg" xml:space="preserve" width="372px" height="512px" version="1.1" shape-rendering="geometricPrecision" text-rendering="geometricPrecision" image-rendering="optimizeQuality" fill-rule="evenodd" clip-rule="evenodd"
viewBox="0 0 372 511.67"
 xmlns:xlink="http://www.w3.org/1999/xlink"
 xmlns:xodm="http://www.corel.com/coreldraw/odm/2003">
 <g id="Layer_x0020_1">
  <metadata id="CorelCorpID_0Corel-Layer"/>
  <path fill="black" d="M55.28 0l183.77 0c15.24,0 29.15,6.22 39.07,16.21 10.06,10.07 16.19,23.91 16.19,39.08l0 21.35 -19.12 0 0 -21.88 -256.15 0 0 380.13 256.15 0 0 -166.52 19.12 0 0 188.03c0,15.25 -6.21,29.17 -16.19,39.07 -10.08,10.08 -23.9,16.2 -39.07,16.2l-183.77 0c-15.26,0 -29.17,-6.2 -39.08,-16.19 -10.07,-10.06 -16.2,-23.91 -16.2,-39.08l0 -401.18c0,-15.26 6.21,-29.18 16.2,-39.09 10.06,-10.06 23.82,-16.13 39.08,-16.13zm111.19 282.22c-12.25,7.93 -29.5,5.17 -41.63,-3.04l19.67 36.84 21.95 -33.69 0.01 -0.11zm-103.01 -0.68c18.52,-1.45 25.32,-14.71 27.59,-33.86 3.48,-29.33 -1.34,-67.04 35.39,-81.31 29.16,-11.33 66.88,3.92 70.99,44.29 -0.17,27.44 7.86,68.89 33.42,70.88 -2.96,8.02 -23.21,14.24 -40.22,14.13l3.59 0.74 0.44 0.09c20.55,4.13 33.96,8.51 42.42,17.82 8.49,9.37 11.66,41.27 11.66,64.42 0,1.53 -1.25,2.78 -2.77,2.78l-197.63 0c-1.52,0 -2.76,-1.25 -2.76,-2.78 0,-22.54 3.01,-54.46 11,-63.89 8.02,-9.44 20.71,-13.98 40.12,-17.77l2.31 -0.41c-15.43,-0.23 -32.59,-7.11 -35.55,-15.13zm106.25 -12.6c5.55,-5.88 10.17,-12.11 13.52,-19.44 2.21,-10.08 2.33,-20.66 0,-31.87 -10.72,-4.78 -17.72,-15.27 -21.33,-31.02 -4.29,30 -42.6,28.71 -52.25,34.17 0,13.62 -1.87,23.17 4.38,35.6 1.36,2.72 2.8,5.24 4.33,7.58 1.36,2.05 2.68,4.05 4.27,5.71 12.88,13.33 34.91,11.66 47.08,-0.73zm121.68 -41.4l-20.69 23.94c-1.99,2.24 -4.55,3.23 -7.06,3.23 -1.14,0 -2.34,-0.23 -3.46,-0.66 -1.02,-0.4 -2.02,-0.98 -2.89,-1.75l-0.53 -0.54c-1.59,-1.65 -2.63,-3.88 -2.63,-6.51l-0.83 -17.71 -18.14 0c-4.17,0 -8,-1.72 -10.76,-4.49 -2.8,-2.79 -4.52,-6.63 -4.52,-10.79l0 -91.57c0,-4.17 1.74,-8 4.52,-10.76 2.74,-2.78 6.58,-4.52 10.76,-4.52l121.56 0c4.19,0 8.02,1.73 10.79,4.49 2.76,2.77 4.49,6.6 4.49,10.79l0 91.57c0,4.18 -1.72,8.02 -4.5,10.78 -2.73,2.77 -6.58,4.5 -10.78,4.5l-65.33 0zm-32.13 -72.18c-1.35,-0.94 -2.23,-2.51 -2.23,-4.29 0,-2.89 2.33,-5.22 5.23,-5.22l67.37 0c2.88,0 5.23,2.33 5.23,5.22 0,2.89 -2.35,5.22 -5.23,5.22l-1.47 0c-0.67,0.35 -1.44,0.55 -2.25,0.55l-63.13 0c-1.38,0 -2.63,-0.56 -3.52,-1.48zm3 28.81c-2.9,0 -5.23,-2.33 -5.23,-5.23 0,-1.76 0.88,-3.33 2.22,-4.27 0.89,-0.92 2.14,-1.5 3.53,-1.5l51.48 0c0.82,0 1.59,0.21 2.26,0.55l0.68 0c2.89,0 5.23,2.34 5.23,5.22 0,2.9 -2.34,5.23 -5.23,5.23l-54.94 0zm3.09 56.01l18.83 -21.77c1.04,-1.42 2.72,-2.34 4.62,-2.34l67.92 0c1.05,0 2,-0.43 2.69,-1.12 0.69,-0.67 1.12,-1.62 1.12,-2.69l0 -91.57c0,-1.02 -0.43,-1.99 -1.13,-2.68 -0.69,-0.69 -1.66,-1.12 -2.68,-1.12l-121.56 0c-1.03,0 -1.98,0.43 -2.68,1.13 -0.7,0.67 -1.13,1.63 -1.13,2.67l0 91.57c0,1.05 0.42,2.02 1.1,2.68 0.69,0.71 1.66,1.13 2.71,1.13l23.59 0c3.02,0.03 5.56,2.41 5.71,5.47l0.89 18.64zm-118.26 212c12.5,0 22.73,10.07 22.73,22.73 0,12.52 -10.07,22.74 -22.73,22.74 -12.51,0 -22.73,-10.07 -22.73,-22.74 0,-12.5 10.06,-22.73 22.73,-22.73z"/>
 </g>
</svg>
