<svg xmlns="http://www.w3.org/2000/svg" shape-rendering="geometricPrecision" text-rendering="geometricPrecision" image-rendering="optimizeQuality" fill-rule="evenodd" clip-rule="evenodd" viewBox="0 0 426 511.48"><path d="M104.07 355.71c12.54 0 22.7 10.17 22.7 22.7 0 12.55-10.18 22.7-22.7 22.7-12.55 0-22.71-10.17-22.71-22.7s10.18-22.7 22.71-22.7zm234.28-19.52c48.4 0 87.65 39.25 87.65 87.65 0 48.39-39.25 87.64-87.65 87.64-48.39 0-87.64-39.25-87.64-87.64 0-48.4 39.25-87.65 87.64-87.65zm46.15 78.76v17.76c0 3.63-2.95 6.59-6.59 6.59h-24.09v24.1a6.615 6.615 0 0 1-6.59 6.59h-17.76a6.607 6.607 0 0 1-6.58-6.59v-24.1h-24.11a6.592 6.592 0 0 1-6.57-6.59v-17.76c.01-3.62 2.95-6.57 6.57-6.58h24.11v-24.1c.01-3.63 2.96-6.56 6.58-6.58h17.76c3.63 0 6.58 2.94 6.59 6.58v24.1h24.09c3.64.01 6.57 2.95 6.59 6.58zM27.95 481.46C12.64 481.46 0 468.81 0 453.51V96.08c0-15.39 12.61-27.99 28-27.99h45.05v-8.81c0-10.3 8.51-18.75 18.8-18.75h30.57V20.79C122.42 9.45 131.75 0 143.11 0H250.4c11.43 0 20.78 9.38 20.78 20.79v19.79h26.35c10.3 0 18.79 8.56 18.79 18.85v8.8h45.06c15.34 0 27.99 12.59 27.99 27.94v220.8c-7.35-3.53-15.11-6.31-23.2-8.28V94.11c0-1.62-1.21-2.82-2.82-2.82l-47.03-.01v15.32c0 10.28-8.57 18.75-18.84 18.75H91.8c-10.3 0-18.75-8.51-18.75-18.79V91.23H25.98c-1.55 0-2.83 1.29-2.83 2.83v361.32c0 1.56 1.31 2.88 2.88 2.88l199 .05c2.48 8.1 5.79 15.83 9.85 23.1-96.13-.01-206.93-.01-206.93.05zm236.29-417.9c-7.92 0-16.63-4.18-16.63-13.2V23.23H145.92v27.13c0 8.35-7.93 13.2-15.57 13.2H97.01v40.58h195.35V63.56h-28.12zm-81.36 250.69H114.2v26.89H93.93v-37c0-5.6 4.54-10.14 10.14-10.14h78.25l-.33-31.37c-4.03-1.19-8.12-2.77-11.74-4.91l-6.3 6.94c-2.31 2.38-6.19 2.52-8.67.32l-9.25-8.66c-2.43-2.4-2.82-6.05-.35-8.57l6.92-7.47c-2.19-3.82-3.76-7.57-4.98-11.81l-9.24.38c-3.37.12-6.23-2.5-6.36-5.86l-.49-12.68c-.13-3.45 2.39-6.23 5.86-6.36l10.09-.39c1.16-4.05 2.76-8.17 4.91-11.81l-6.83-6.29c-2.54-2.37-2.71-6.13-.35-8.69l8.5-9.24c2.41-2.45 6.03-2.81 8.57-.36l7.6 6.9c3.77-2.25 7.41-3.76 11.64-4.98l-.38-9.24c-.12-3.37 2.51-6.23 5.86-6.36l12.68-.48c3.45-.12 6.23 2.4 6.36 5.87l.39 10.09c4.1 1.21 8.05 2.73 11.74 4.91l6.29-6.81c2.37-2.54 6.14-2.71 8.7-.35l.12.1 9.25 8.5c2.44 2.41 2.81 6.03.35 8.57l-6.9 7.6c2.2 3.82 3.73 7.45 4.98 11.68l9.25-.37c3.36-.13 6.22 2.5 6.35 5.86l.5 12.67c.12 3.45-2.39 6.24-5.86 6.36l-10.1.39c-1.19 4.03-2.77 8.12-4.91 11.75l6.93 6.29c2.45 2.35 2.49 6.11.33 8.67l-8.67 9.27c-2.23 2.53-6.13 2.7-8.56.35l-7.47-6.92c-3.82 2.19-7.58 3.76-11.81 4.97l.31 31.5h78.06c5.6 0 10.14 4.54 10.14 10.14v9.34c-7.12 2.78-13.9 6.23-20.27 10.27v-9.46h-67.99v26.89h-24.31v-26.89zm20.14-121.81c9.48 3.69 15.67 12.14 16.1 22.33.42 10.11-5.17 19.19-14.26 23.55-9.14 4.38-20.09 2.54-27.56-4.21-7.4-6.88-9.94-17.67-6.39-27.12 1.78-4.58 4.68-8.4 8.34-11.16 6.75-5.08 15.88-6.35 23.77-3.39zm-8.75 163.27c12.55 0 22.7 10.17 22.7 22.7 0 12.55-10.17 22.7-22.7 22.7-12.55 0-22.71-10.17-22.71-22.7s10.16-22.7 22.71-22.7z"/></svg>