<svg xmlns="http://www.w3.org/2000/svg" shape-rendering="geometricPrecision" text-rendering="geometricPrecision" image-rendering="optimizeQuality" fill-rule="evenodd" clip-rule="evenodd" viewBox="0 0 490 511.62"><path d="M348.5 0c31.22 0 59.51 12.68 80 33.15 20.53 20.48 33.21 48.79 33.21 80.06 0 31.25-12.68 59.57-33.16 80.04l-.79.74c-20.43 20.04-48.41 32.42-79.26 32.42-31.22 0-59.51-12.68-80-33.16-20.53-20.47-33.21-48.79-33.21-80.04 0-9.96 1.29-19.63 3.71-28.83-37.8 1.48-74.61 14.71-104.62 37.52-35.46 26.95-61.4 67.41-68.17 117.77l23.57.21c2.98.17 5.1 1.2 6.33 3.09 3.35 5.12-1.38 10.09-4.58 13.61-9.18 9.93-33.06 40.69-37.56 45.94a7.448 7.448 0 0 1-5.86 2.78 7.411 7.411 0 0 1-5.81-2.89c-4.6-5.48-29.03-37.77-37.61-47.58-2.98-3.4-6.64-8.07-3.46-12.73 1.23-1.86 3.38-2.85 6.37-2.97l23.45.22.12-1.25c7.44-61.54 38.9-111.06 82.16-143.94 40.22-30.58 90.69-46.66 141.53-44.59 4.01-5.9 8.56-11.39 13.59-16.42C288.92 12.68 317.23 0 348.5 0zM236.88 439.16c-14.61 27.48-43.52 46.2-76.82 46.2-33.33 0-62.26-18.74-76.86-46.27 1.82-1.19 3.9-2.29 5.62-3.23 11.63-6.48 38.79-6 48.3-14.57l11.53 34.56 1.36 2.51 5.14-14.67-3.47-3.8c-2.63-3.83-1.72-8.16 3.13-8.95 1.63-.26 3.47-.1 5.25-.1 1.88 0 3.99-.17 5.76.22 4.51 1 4.98 5.36 2.73 8.83l-3.48 3.8 4.94 14.05.98-1.89 13.69-34.56c8.58 7.74 38.84 9.28 48.3 14.57l3.9 3.3zm-76.84-153.95c31.22 0 59.51 12.68 80 33.15 20.53 20.48 33.21 48.79 33.21 80.06 0 16.1-3.37 31.42-9.43 45.29 29.82-3.3 58.55-13.9 83.3-30.66 35.21-23.86 62.4-60.27 73.16-105.92.81-3.43 1.52-6.9 2.15-10.38l-25.49.55c-3.1-.09-5.35-1.09-6.68-3-3.64-5.22 1.11-10.54 4.33-14.3 9.22-10.6 33.04-43.3 37.55-48.9a7.735 7.735 0 0 1 6.01-3.07c2.36-.05 4.61.99 6.12 2.81 4.96 5.55 31.35 38.31 40.57 48.23 3.2 3.44 7.16 8.17 4 13.12-1.23 1.97-3.42 3.06-6.53 3.28l-24.41.53c-.94 6.57-2.14 12.93-3.59 19.06-12.89 54.64-45.44 98.24-87.64 126.82-37.36 25.31-82.33 38.81-127.84 37.77-20.38 19.77-48.17 31.97-78.79 31.97-31.22 0-59.51-12.68-80-33.16-20.53-20.47-33.21-48.79-33.21-80.04 0-31.27 12.68-59.58 33.16-80.06 20.47-20.47 48.78-33.15 80.05-33.15zm0 13.1c55.29 0 100.11 44.82 100.11 100.11 0 55.28-44.82 100.1-100.11 100.1S59.93 453.7 59.93 398.42c0-55.29 44.82-100.11 100.11-100.11zm-18.91 117.02c-3.82-3.38-6.83-5.84-7.47-12.88l-.42.01c-.94-.01-1.85-.22-2.7-.71-1.36-.77-2.33-2.11-2.98-3.62-1.37-3.15-2.46-11.46 1-13.81l-.72-1.35c-.13-1.68-.17-3.7-.19-5.83-.14-7.79-.3-17.24-6.57-19.14l-2.7-.81 1.79-2.19c5.06-6.26 10.35-11.75 15.71-15.94 6.03-4.77 12.17-7.93 18.18-8.85 6.17-.94 12.17.49 17.69 4.95 1.63 1.32 3.22 2.91 4.74 4.77 5.91.57 10.72 3.74 14.16 8.28 2.06 2.7 3.62 5.9 4.61 9.3 1 3.39 1.43 7 1.24 10.55-.33 6.36-2.66 12.57-7.34 17.1.83.03 1.59.21 2.28.58 2.61 1.41 2.7 4.44 2.01 6.99-.68 2.13-1.53 4.61-2.35 6.68-1 2.8-2.44 3.33-5.24 3.02-.14 6.94-3.34 8.84-7.64 12.9-3.01 8.84-33.56 8.64-37.09 0zm284.21-261.38c-14.61 27.48-43.53 46.2-76.83 46.2-33.32 0-62.25-18.74-76.85-46.27 1.82-1.2 3.9-2.29 5.62-3.23 11.62-6.48 38.78-6 48.3-14.57l11.53 34.56 1.35 2.51 5.15-14.67-3.48-3.8c-2.62-3.83-1.71-8.16 3.13-8.95 1.64-.26 3.48-.1 5.26-.1 1.88 0 3.98-.17 5.76.22 4.51 1 4.97 5.36 2.73 8.83l-3.48 3.8 4.93 14.04.99-1.88 13.69-34.56c8.58 7.74 38.84 9.28 48.3 14.57l3.9 3.3zm-95.75-23.83c-3.82-3.38-6.83-5.84-7.47-12.88l-.42.01c-.94-.01-1.85-.22-2.7-.71-1.37-.77-2.33-2.11-2.98-3.62-1.37-3.15-2.46-11.46 1-13.82l-.72-1.34c-.14-1.68-.17-3.7-.2-5.83-.13-7.79-.29-17.24-6.56-19.14l-2.7-.82 1.79-2.18c5.05-6.27 10.35-11.75 15.71-15.95 6.03-4.76 12.17-7.92 18.17-8.84 6.18-.94 12.17.49 17.69 4.95 1.64 1.32 3.23 2.91 4.75 4.77 5.91.57 10.72 3.74 14.16 8.28 2.06 2.7 3.62 5.9 4.61 9.3.99 3.38 1.43 7 1.24 10.55-.33 6.36-2.66 12.57-7.34 17.1.82.03 1.59.21 2.28.58 2.61 1.4 2.7 4.43 2.01 6.99-.68 2.13-1.53 4.6-2.35 6.68-1 2.79-2.44 3.33-5.24 3.02-.14 6.94-3.34 8.84-7.64 12.9-3.01 8.84-33.56 8.64-37.09 0zM348.5 13.1c55.29 0 100.11 44.82 100.11 100.11 0 55.28-44.82 100.1-100.11 100.1s-100.11-44.82-100.11-100.1c0-55.29 44.82-100.11 100.11-100.11z"/></svg>