<svg xmlns="http://www.w3.org/2000/svg" shape-rendering="geometricPrecision" text-rendering="geometricPrecision" image-rendering="optimizeQuality" fill-rule="evenodd" clip-rule="evenodd" viewBox="0 0 491 512.35"><path d="M160.37 285.48c31.28 0 59.63 12.71 80.16 33.22 20.57 20.52 33.27 48.89 33.27 80.22 0 16.13-3.37 31.48-9.44 45.38 29.87-3.3 58.67-13.92 83.47-30.72 35.28-23.9 62.52-60.39 73.31-106.13.81-3.44 1.52-6.91 2.15-10.4l-25.54.54c-3.11-.08-5.36-1.09-6.69-3-3.65-5.23 1.11-10.56 4.34-14.33 9.23-10.62 33.1-43.39 37.62-49a7.795 7.795 0 0 1 6.02-3.08c2.36-.04 4.63 1 6.14 2.82 4.96 5.56 31.41 38.39 40.65 48.33 3.2 3.44 7.17 8.19 4.01 13.14-1.23 1.98-3.43 3.08-6.55 3.29l-24.45.53c-.95 6.59-2.15 12.96-3.6 19.11-12.91 54.75-45.54 98.43-87.82 127.08-37.44 25.35-82.49 38.88-128.1 37.84-20.43 19.81-48.27 32.03-78.95 32.03-31.29 0-59.63-12.71-80.16-33.22-20.57-20.52-33.28-48.9-33.28-80.21 0-31.33 12.71-59.7 33.22-80.22 20.52-20.51 48.89-33.22 80.22-33.22zm76.99 154.26c-14.63 27.54-43.61 46.3-76.98 46.3-33.39 0-62.38-18.78-77.01-46.36 1.83-1.2 3.91-2.3 5.63-3.24 11.65-6.49 38.87-6.01 48.41-14.6l11.55 34.63 1.35 2.52 5.16-14.7-3.48-3.81c-2.63-3.84-1.72-8.18 3.13-8.97 1.64-.26 3.48-.1 5.27-.1 1.88 0 3.99-.18 5.77.22 4.52 1 4.98 5.37 2.74 8.85l-3.49 3.81 4.94 14.07.99-1.89 13.72-34.63c8.6 7.75 38.92 9.3 48.4 14.6l3.9 3.3zm-95.94-23.87c-3.83-3.39-6.84-5.86-7.49-12.91l-.41.01c-.95-.01-1.86-.22-2.71-.71-1.37-.78-2.34-2.12-2.99-3.63-1.37-3.16-2.46-11.48 1-13.84l-.72-1.35c-.13-1.68-.17-3.7-.19-5.84-.14-7.8-.3-17.28-6.58-19.18l-2.71-.82 1.8-2.19c5.06-6.27 10.37-11.77 15.74-15.97 6.04-4.78 12.19-7.95 18.21-8.87 6.19-.94 12.2.49 17.73 4.96 1.63 1.33 3.23 2.92 4.75 4.78 5.92.57 10.74 3.75 14.19 8.3 2.06 2.7 3.62 5.91 4.62 9.32 1 3.39 1.43 7.01 1.24 10.57-.33 6.37-2.66 12.59-7.36 17.13.83.03 1.6.22 2.29.58 2.62 1.41 2.71 4.45 2.01 7.02-.68 2.13-1.53 4.61-2.35 6.68-1 2.81-2.44 3.34-5.25 3.03-.14 6.95-3.34 8.86-7.66 12.93-3.01 8.86-33.62 8.65-37.16 0zm280.31-253.78c-16.12 22.91-42.75 37.88-72.88 37.88-30.58 0-57.55-15.42-73.59-38.9 5.34-19.37 26.78-15.39 46.38-27.93 7.59 20.42 45.47 20.46 53.99 0 19.91 12.73 35.6 10.42 46.1 28.95zM31.11 239.53l.12-1.25c7.46-61.67 38.98-111.29 82.34-144.24 40.16-30.54 90.54-46.65 141.32-44.7 3.97-5.78 8.45-11.18 13.39-16.12C288.8 12.71 317.17 0 348.5 0c31.28 0 59.63 12.71 80.16 33.22 20.57 20.52 33.27 48.89 33.27 80.22 0 31.31-12.7 59.69-33.22 80.21l-.79.73c-20.47 20.08-48.51 32.49-79.42 32.49-31.29 0-59.63-12.71-80.17-33.22-20.56-20.52-33.27-48.9-33.27-80.21 0-10.09 1.32-19.86 3.79-29.17-37.65 1.6-74.3 14.84-104.2 37.57-35.53 27-61.53 67.55-68.3 118l23.61.22c2.99.17 5.11 1.2 6.34 3.09 3.36 5.13-1.37 10.12-4.58 13.64-9.21 9.95-33.13 40.78-37.64 46.04a7.453 7.453 0 0 1-5.87 2.78 7.405 7.405 0 0 1-5.83-2.89c-4.61-5.49-29.08-37.85-37.68-47.68-2.98-3.4-6.65-8.08-3.47-12.76 1.24-1.86 3.39-2.86 6.39-2.97l23.49.22zM348.5 13.13c55.4 0 100.31 44.91 100.31 100.31 0 55.39-44.91 100.3-100.31 100.3-55.4 0-100.32-44.91-100.32-100.3 0-55.4 44.92-100.31 100.32-100.31zm-19.61 118.59c-.3-.54.97-4 1.29-4.55-3.72-3.31-6.66-6.64-7.29-13.52l-.4.01c-.91-.01-1.81-.22-2.63-.7-1.34-.75-2.27-2.06-2.91-3.52-1.34-3.08-2.4-11.18.98-13.5l-.64-.41-.07-.9c-.13-1.63-.16-3.6-.19-5.67-.12-7.61-.28-14.32-6.4-16.17L308 72l1.73-2.14c4.95-6.12 10.12-11.46 15.33-15.56 5.89-4.65 11.89-7.73 17.75-8.63 6.02-.91 11.87.47 17.26 4.83 1.59 1.29 3.14 2.83 4.63 4.65 5.76.55 10.46 3.66 13.82 8.08 2.01 2.64 3.53 5.76 4.5 9.08.97 3.31 1.38 6.83 1.21 10.3-.33 6.2-2.6 9.74-7.17 14.16.8.03 1.56.22 2.23.57 2.55 1.37 2.63 4.34 1.96 6.83-.66 2.07-1.5 4.48-2.3 6.51-.96 2.74-2.38 3.25-5.1 2.95-.14 6.76-3.26 10.08-7.47 14.05l.95 3.33c-2.65 12.87-30.83 14.27-38.44.71zM160.37 298.61c55.4 0 100.31 44.91 100.31 100.31 0 55.39-44.91 100.3-100.31 100.3-55.4 0-100.31-44.91-100.31-100.3 0-55.4 44.91-100.31 100.31-100.31z"/></svg>