<?xml version="1.0" encoding="UTF-8"?>
<!DOCTYPE svg PUBLIC "-//W3C//DTD SVG 1.1//EN" "http://www.w3.org/Graphics/SVG/1.1/DTD/svg11.dtd">
<!-- Creator: CorelDRAW 2021 (64-Bit) -->
<svg xmlns="http://www.w3.org/2000/svg" xml:space="preserve" width="486px" height="512px" version="1.1" shape-rendering="geometricPrecision" text-rendering="geometricPrecision" image-rendering="optimizeQuality" fill-rule="evenodd" clip-rule="evenodd"
viewBox="0 0 486 512.49"
 xmlns:xlink="http://www.w3.org/1999/xlink"
 xmlns:xodm="http://www.corel.com/coreldraw/odm/2003">
 <g id="Layer_x0020_1">
  <metadata id="CorelCorpID_0Corel-Layer"/>
  <path fill="black" fill-rule="nonzero" d="M169.66 118.4c1.62,-4.63 3.9,-6.9 6.81,-7.68 -1,-19.62 2.21,-50.46 -17.84,-56.53 39.74,-49.11 85.55,-75.82 119.94,-32.13 39.53,2.08 56.48,62.07 29.29,91.66 2.2,-0.07 4.3,0.34 6.12,1.3 2.19,1.17 3.86,3.05 4.71,5.73 0.82,2.54 0.85,5.81 -0.23,9.83l-5.16 14.66c-0.83,2.36 -1.6,4.04 -3.28,5.38 -1.71,1.36 -3.79,1.87 -7.01,1.7l-1.43 -0.16c-0.34,16.35 -8.34,23.87 -18.79,33.69l-4.04 3.83c-10.59,10.2 -22.16,15.15 -33.91,15.15 -11.96,0.01 -23.95,-5.12 -35.09,-15.02l-3.92 -3.43c-10.25,-8.83 -18.81,-16.21 -20.44,-34.17l-0.91 0.02c-2.1,-0.03 -4.14,-0.51 -6.03,-1.58 -3.05,-1.73 -5.19,-4.71 -6.63,-8.04l-0.12 -0.33c-1.63,-3.92 -2.37,-8.4 -2.54,-11.78 -0.06,-1.25 -0.06,-3.74 0,-6.13 0.05,-2.06 0.16,-4.06 0.32,-5.2l0.18 -0.77zm-77.42 320.57l-92.24 -87.38 92.24 -90 0 56.73c56.18,-0.27 108.53,17.59 139.31,53.82 3.79,4.46 7.35,9.18 10.68,14.16 3.72,-5.84 7.73,-11.3 12.05,-16.38 30.81,-36.26 83.22,-54.13 139.48,-53.82l0 -56.74 92.24 90 -92.24 87.39 0 -49.73c-88.41,-0.57 -115.37,45.49 -115.37,125.47l-70.95 0c0,-79.19 -28.34,-123.73 -115.2,-123.24l0 49.72zm106.26 -234.43l25.09 65.86 12.61 -35.9 -6.18 -6.75c-2.78,-4.06 -3.42,-7.63 -1.86,-10.69 3.35,-6.61 10.27,-5.38 16.75,-5.38 6.79,0 15.15,-1.29 17.28,7.19 0.7,2.84 -0.2,5.79 -2.19,8.88l-6.18 6.75 12.61 35.9 22.69 -65.86c16.37,14.73 74.02,17.71 92.05,27.76l1.17 0.67c-10.2,4.42 -17.34,14.57 -17.34,26.39l0 29.42c-22.05,2.16 -43.25,6.98 -62.67,14.47 -23.09,8.91 -43.75,21.59 -60.57,38.08 -16.37,-15.39 -36.17,-27.33 -58.19,-35.83 -19.38,-7.48 -40.54,-12.31 -62.57,-14.48l0 -29.43 -0.09 0c0,-7.21 -2.69,-14.42 -8.12,-20 -3.03,-3.11 -6.59,-5.39 -10.4,-6.82 1.31,-0.88 2.66,-1.71 4.05,-2.47 22.17,-12.34 73.9,-11.42 92.06,-27.76zm74.77 -145.71c-20.11,20.39 -45.25,14.1 -62.99,22.13 -1.04,0.64 -2.1,1.34 -3.19,2.09 -5.67,3.92 -9.44,8.67 -11.37,14.2 -1.95,5.6 -2.08,12.16 -0.43,19.61 0.15,0.71 0.11,1.47 -0.16,2.2 -0.74,2.04 -3.02,3.1 -5.06,2.35l-1.14 -0.41 -0.06 0.58 -2 -1.33 -0.34 -0.13c-4.69,-1.63 -8.02,-2.41 -9.3,0.53l-0.2 3.91c-0.06,2.17 -0.06,4.42 0,5.55 0.13,2.67 0.7,6.16 1.91,9.1l0.13 0.28c0.83,1.91 1.91,3.53 3.27,4.3 0.68,0.38 1.44,0.56 2.23,0.57 1,0.01 2.15,-0.21 3.35,-0.57l1.05 -0.17c2.17,-0.05 3.98,1.67 4.03,3.84 0.42,17.84 8.35,24.67 17.98,32.96l4.02 3.5c9.67,8.6 19.87,13.05 29.84,13.05 9.69,0 19.41,-4.25 28.45,-12.96l4.09 -3.89c10.1,-9.49 17.55,-16.49 16.12,-33.53 -0.06,-0.85 0.14,-1.73 0.65,-2.49 1.19,-1.82 3.64,-2.31 5.46,-1.12 0.66,0.44 1.32,0.8 1.94,1.04l0.17 0.05c0.59,0.22 1.18,0.36 1.7,0.38 1.11,0.06 1.62,0.05 1.7,0 0.12,-0.09 0.37,-0.77 0.74,-1.83l5.03 -14.24c0.62,-2.38 0.67,-4.09 0.3,-5.23 -0.18,-0.58 -0.51,-0.97 -0.91,-1.19 -0.58,-0.31 -1.44,-0.42 -2.46,-0.34 -2.22,0.17 -4.79,1.24 -7.07,2.96 -0.84,0.64 -1.93,0.93 -3.04,0.75 -2.14,-0.37 -3.59,-2.41 -3.22,-4.55 3.71,-21.68 2.01,-35.8 -2.61,-45.43 -4.04,-8.44 -10.49,-13.55 -17.48,-17.37l-1.13 0.85zm-41.6 42.26c3.98,1.48 4.82,4.8 2.6,6.04 -2.61,1.47 -5.89,-0.71 -8.44,-1.52 -6.64,-2.12 -14.54,-2.37 -20.26,1.22 -1.53,0.95 -3.08,2.2 -4.66,3.68 0.59,-2.09 1.5,-4.01 2.83,-5.7 5.76,-7.25 20.24,-7.68 27.93,-3.72zm25.06 0c-3.97,1.48 -4.81,4.8 -2.59,6.04 2.61,1.47 5.89,-0.71 8.43,-1.52 6.64,-2.12 14.52,-2.37 20.27,1.22 1.52,0.95 3.07,2.2 4.66,3.68 -0.59,-2.09 -1.51,-4.01 -2.83,-5.7 -5.77,-7.25 -20.24,-7.68 -27.94,-3.72zm-45.72 14.23c-0.86,0.33 -1.79,-0.18 -2.08,-1.16 -0.29,-0.98 0.16,-2.03 1.02,-2.36 6.55,-2.57 13.24,-2.39 19.79,0 0.86,0.3 1.32,1.34 1.06,2.32 -0.26,0.98 -1.18,1.5 -2.04,1.2 -1.07,-0.38 -2.17,-0.71 -3.25,-0.97 0.1,0.38 0.16,0.81 0.16,1.22 0,2.52 -2.06,4.58 -4.58,4.58 -2.53,0 -4.59,-2.06 -4.59,-4.58 0,-0.63 0.13,-1.22 0.35,-1.76 -1.95,0.25 -3.89,0.74 -5.84,1.51zm53.15 -1.38c-0.18,0.51 -0.31,1.05 -0.31,1.63 0,2.52 2.06,4.58 4.59,4.58 2.52,0 4.58,-2.06 4.58,-4.58 0,-0.74 -0.17,-1.41 -0.47,-2.02 2,0.22 4.01,0.65 6.05,1.32 0.87,0.29 1.77,-0.28 2.02,-1.28 0.24,-0.98 -0.27,-2.02 -1.13,-2.3 -3.29,-1.08 -6.61,-1.61 -9.89,-1.61 -3.28,0 -6.56,0.55 -9.78,1.63 -0.85,0.28 -1.36,1.3 -1.12,2.3 0.24,0.98 1.16,1.55 2.02,1.26 1.16,-0.38 2.3,-0.69 3.44,-0.93zm-26.15 39.74c-1.06,-0.89 -1.21,-2.49 -0.32,-3.55 0.9,-1.06 2.49,-1.21 3.55,-0.31 1.26,1.06 2.47,1.61 3.62,1.61 1.16,0.03 2.42,-0.5 3.8,-1.64 1.06,-0.89 2.65,-0.72 3.52,0.34 0.89,1.06 0.72,2.66 -0.34,3.52 -2.32,1.91 -4.66,2.81 -7.05,2.78 -2.39,0.03 -4.64,-0.94 -6.78,-2.75zm-7.86 18.39c-1.31,-0.67 -1.79,-2.29 -1.11,-3.57 0.68,-1.28 2.3,-1.79 3.58,-1.09 4.08,2.17 8.08,3.26 12.04,3.28 3.93,0 7.9,-1.06 11.86,-3.26 1.28,-0.7 2.89,-0.24 3.59,1.04 0.71,1.28 0.25,2.9 -1.03,3.6 -4.73,2.63 -9.54,3.91 -14.39,3.89 -4.86,-0.03 -9.71,-1.33 -14.54,-3.89z"/>
 </g>
</svg>
