<svg xmlns="http://www.w3.org/2000/svg" shape-rendering="geometricPrecision" text-rendering="geometricPrecision" image-rendering="optimizeQuality" fill-rule="evenodd" clip-rule="evenodd" viewBox="0 0 512 470.17"><path d="M174.85 253.55c-11.46-10.2-20.5-17.55-22.43-38.71l-1.23.02c-2.84-.03-5.58-.69-8.14-2.14-4.1-2.33-6.98-6.34-8.93-10.86-4.13-9.48-7.4-34.41 2.99-41.54l-1.95-1.29-.22-2.77c-.39-5.01-.49-11.09-.6-17.45-.38-23.44-.85-48.78-19.7-54.47l-8.09-2.46 5.33-6.59c15.24-18.82 31.15-35.28 47.19-47.91C177.22 13.09 195.68 3.57 213.74.83c18.56-2.82 36.54 1.44 53.16 14.87 4.9 3.96 9.66 8.73 14.24 14.31 17.73 1.71 32.22 11.26 42.57 24.87 6.18 8.14 10.85 17.76 13.84 27.98 2.98 10.18 4.28 21.02 3.73 31.69-1.01 19.11-7.99 34.71-22.08 48.32 2.47.09 4.81.66 6.87 1.76 7.87 4.2 8.11 13.33 6.05 21-2.04 6.4-4.64 13.83-7.08 20.06-2.97 8.43-7.32 9.99-15.72 9.09-.43 20.81-10.05 26.54-23 38.77.53 31.35-112.17 27.66-111.47 0zm184.79 57.96h28.37l14.31 30.87 13.97-30.87h28.46l-21.69 39.31h18.51v13.74h-26.2v7.51h26.2v13.86h-26.2v20.73h-25.83v-20.73h-26.59v-13.86h26.59v-7.51h-26.59v-13.74h19.01l-22.32-39.31zm-190.63-32.14 33.54 88.06 16.86-48-8.27-9.03c-6.21-9.07-4.07-19.38 7.43-21.25 3.89-.62 8.26-.23 12.49-.23 4.47 0 9.45-.41 13.71.51 10.67 2.36 11.79 12.73 6.46 20.97l-8.27 9.03 16.87 48 30.32-88.06c7.45 6.72 15.22 12.14 23.14 16.65 3.42-4.7 7.19-9.12 11.28-13.21 19.94-19.93 47.39-32.24 77.64-32.24 30.29 0 57.76 12.31 77.62 32.17l1.01 1.1c19.27 19.78 31.16 46.8 31.16 76.54 0 30.29-12.31 57.76-32.17 77.62-19.86 19.86-47.32 32.17-77.62 32.17-30.26 0-57.7-12.31-77.57-32.17a110.172 110.172 0 0 1-14.53-17.88H0c0-124.08 94.34-73.52 169.01-140.75zm233.2-9.84c50.16 0 90.84 40.68 90.84 90.85 0 50.16-40.68 90.84-90.84 90.84-50.17 0-90.85-40.68-90.85-90.84 0-50.17 40.68-90.85 90.85-90.85z"/></svg>