<svg xmlns="http://www.w3.org/2000/svg" shape-rendering="geometricPrecision" text-rendering="geometricPrecision" image-rendering="optimizeQuality" fill-rule="evenodd" clip-rule="evenodd" viewBox="0 0 512 470.17"><path d="M174.84 253.55c-11.45-10.2-20.5-17.55-22.43-38.71l-1.24.02c-2.83-.03-5.56-.69-8.12-2.14-4.11-2.33-6.98-6.34-8.94-10.86-4.13-9.48-7.38-34.41 2.99-41.55l-1.94-1.28-.22-2.77c-.4-5.01-.51-11.09-.61-17.45-.37-23.44-.85-48.78-19.7-54.47l-8.08-2.46 5.33-6.59c15.23-18.82 31.14-35.28 47.18-47.91C177.22 13.09 195.68 3.57 213.72.83c18.57-2.82 36.56 1.44 53.17 14.87 4.9 3.96 9.67 8.73 14.25 14.31 17.73 1.71 32.22 11.26 42.56 24.87 6.17 8.14 10.86 17.76 13.85 27.98 2.98 10.18 4.28 21.02 3.73 31.69-1.01 19.11-8 34.71-22.08 48.32 2.46.09 4.81.66 6.87 1.76 7.86 4.2 8.11 13.33 6.04 21-2.03 6.4-4.63 13.83-7.08 20.06-2.97 8.42-7.32 9.99-15.72 9.08-.43 20.82-10.05 26.55-23 38.78.54 31.35-112.16 27.66-111.47 0zm187.27 95.95 6.77-15.25h25.53c-1.61-5.41-7.94-8.45-13.24-8.45h-19.06l6.77-15.25h73.06l-6.76 15.25h-17.66c2.35 1.79 4.86 5.49 5.3 8.45h19.12l-6.76 15.25h-13.84c-4.46 11.37-18.08 19.09-29.71 20.76l38.39 39.52h-30.34l-34.23-37.55v-14h15.15c5.16 0 11.57-3.63 13.21-8.73h-31.7zm-193.1-70.13 33.54 88.06 16.85-48-8.27-9.03c-6.21-9.07-4.07-19.38 7.44-21.25 3.88-.62 8.26-.23 12.49-.23 4.46 0 9.45-.42 13.69.51 10.69 2.36 11.8 12.73 6.48 20.97l-8.27 9.03 16.86 48 30.33-88.06c7.45 6.72 15.22 12.14 23.14 16.65 3.42-4.7 7.19-9.12 11.28-13.21 19.86-19.93 47.33-32.24 77.62-32.24 30.25 0 57.7 12.31 77.57 32.17 19.93 19.94 32.24 47.38 32.24 77.64 0 30.29-12.31 57.76-32.17 77.62l-1.1 1.01c-19.78 19.27-46.79 31.16-76.54 31.16-30.3 0-57.76-12.31-77.62-32.17a110.464 110.464 0 0 1-14.49-17.88H0c0-124.09 94.33-73.52 169.01-140.75zm233.18-9.84c50.17 0 90.85 40.68 90.85 90.85 0 50.16-40.68 90.83-90.85 90.83-50.16 0-90.83-40.67-90.83-90.83 0-50.17 40.67-90.85 90.83-90.85z"/></svg>