<svg xmlns="http://www.w3.org/2000/svg" shape-rendering="geometricPrecision" text-rendering="geometricPrecision" image-rendering="optimizeQuality" fill-rule="evenodd" clip-rule="evenodd" viewBox="0 0 512 470.17"><path d="M174.85 253.55c-11.46-10.2-20.5-17.55-22.43-38.71l-1.23.02c-2.84-.03-5.58-.69-8.14-2.14-4.1-2.33-6.98-6.34-8.93-10.86-4.13-9.48-7.4-34.41 2.99-41.54l-1.95-1.29-.21-2.77c-.4-5.01-.5-11.09-.61-17.45-.38-23.44-.85-48.78-19.7-54.47l-8.09-2.46 5.33-6.59c15.24-18.82 31.15-35.28 47.19-47.91C177.22 13.09 195.68 3.57 213.74.83c18.56-2.82 36.54 1.44 53.16 14.87 4.9 3.96 9.66 8.73 14.26 14.31 17.72 1.71 32.2 11.26 42.55 24.87 6.18 8.14 10.87 17.76 13.85 27.98a95.913 95.913 0 0 1 3.72 31.69c-1.01 19.11-7.99 34.71-22.08 48.32 2.47.09 4.81.66 6.88 1.76 7.86 4.2 8.1 13.33 6.04 21-2.03 6.4-4.63 13.83-7.08 20.06-2.97 8.43-7.32 9.99-15.72 9.09-.43 20.81-10.05 26.54-23 38.77.53 31.35-112.16 27.66-111.47 0zm280.74 109.94h-14.71l-7.73 37.33h-19.99l-8.64-37.33h-4.15l-8.4 37.33h-19.99l-7.75-37.33h-15.42v-11.38h12.95l-1.35-6.49h-11.6v-11.38h9.25l-3.03-14.68h19.08l2.71 14.68h14.35l3.15-14.68h16.26l3.25 14.68h14.48l2.59-14.68h19.19l-3.05 14.68h8.55v11.38h-11l-1.35 6.49h12.35v11.38zm-32.54 0h-2.82l1.57 7.05 1.25-7.05zm-38.27 0h-2.7l1.23 7.05 1.47-7.05zm-4.83-11.38h7.28l1.48-6.49h-9.89l1.13 6.49zm37.81 0h7.3l1.25-6.49h-10l1.45 6.49zm-248.74-72.74 33.53 88.06 16.86-48-8.27-9.03c-6.21-9.07-4.07-19.38 7.44-21.25 3.88-.62 8.25-.23 12.48-.23 4.47 0 9.45-.41 13.71.51 10.67 2.36 11.79 12.73 6.46 20.97l-8.27 9.03 16.87 48 30.32-88.06c7.45 6.72 15.22 12.14 23.14 16.65 3.42-4.7 7.19-9.12 11.28-13.21 19.94-19.93 47.39-32.24 77.64-32.24 30.29 0 57.76 12.31 77.62 32.17l1.01 1.1c19.27 19.78 31.16 46.8 31.16 76.54 0 30.29-12.31 57.76-32.17 77.62-19.86 19.86-47.32 32.17-77.62 32.17-30.26 0-57.7-12.31-77.57-32.17a110.172 110.172 0 0 1-14.53-17.88H0c0-124.08 94.34-73.52 169.02-140.75zm233.19-9.84c50.16 0 90.84 40.68 90.84 90.85 0 50.16-40.68 90.84-90.84 90.84-50.17 0-90.85-40.68-90.85-90.84 0-50.17 40.68-90.85 90.85-90.85z"/></svg>