<svg xmlns="http://www.w3.org/2000/svg" shape-rendering="geometricPrecision" text-rendering="geometricPrecision" image-rendering="optimizeQuality" fill-rule="evenodd" clip-rule="evenodd" viewBox="0 0 512 470.17"><path d="M174.85 253.55c-11.46-10.2-20.5-17.55-22.43-38.71l-1.23.02c-2.84-.03-5.58-.69-8.13-2.14-4.11-2.33-6.99-6.34-8.94-10.86-4.13-9.48-7.4-34.41 2.99-41.54l-1.95-1.29-.21-2.77c-.4-5.01-.5-11.09-.61-17.45-.38-23.44-.85-48.78-19.7-54.47l-8.09-2.46 5.33-6.59c15.24-18.82 31.15-35.28 47.19-47.91C177.22 13.09 195.69 3.57 213.74.83c18.56-2.82 36.54 1.44 53.16 14.87 4.9 3.96 9.66 8.73 14.26 14.31 17.72 1.71 32.21 11.26 42.55 24.87 6.18 8.14 10.87 17.76 13.85 27.98a95.913 95.913 0 0 1 3.72 31.69c-1.01 19.11-7.99 34.71-22.08 48.32 2.47.09 4.81.66 6.88 1.76 7.86 4.2 8.1 13.33 6.04 21-2.03 6.4-4.63 13.83-7.08 20.06-2.97 8.43-7.32 9.99-15.72 9.09-.43 20.81-10.05 26.54-23 38.77.53 31.35-112.16 27.66-111.47 0zM415.2 376.17v14.98h-18.14v16.78H371.3v-16.78h-10.27v-14.98h10.27v-8.07h-10.27v-14.98h10.27v-42.66h40.15c10.24 0 18.14 2.28 23.67 6.86 5.5 4.56 8.28 13.26 8.28 22.26 0 9.26-2.97 16.33-8.92 21.2-5.93 4.88-14.67 7.32-26.18 7.32h-11.24v8.07h18.14zm-18.14-23.05H404c2.79 0 5.14-.37 7.03-1.08 1.88-.7 3.43-1.63 4.56-2.83 1.15-1.17 1.98-2.54 2.47-4.08.52-1.54.75-3.11.75-4.74 0-1.39-.19-4.7-.63-6.11-.4-1.43-1.13-2.71-2.14-3.83-1.03-1.16-2.42-2.08-4.19-2.78-1.77-.71-4.02-1.08-6.72-1.08h-8.07v26.53zm-228.04-73.75 33.53 88.06 16.86-48-8.27-9.03c-6.21-9.07-4.07-19.38 7.44-21.25 3.88-.62 8.25-.23 12.48-.23 4.47 0 9.45-.41 13.71.51 10.67 2.36 11.79 12.73 6.46 20.97l-8.27 9.03 16.87 48 30.32-88.06c7.45 6.72 15.22 12.14 23.14 16.65 3.42-4.71 7.2-9.12 11.29-13.21 19.86-19.93 47.33-32.24 77.63-32.24 30.29 0 57.76 12.31 77.62 32.17l1.01 1.1c19.27 19.78 31.16 46.8 31.16 76.54 0 30.29-12.31 57.76-32.17 77.62-19.86 19.86-47.32 32.17-77.62 32.17-30.3 0-57.77-12.31-77.63-32.17a110.464 110.464 0 0 1-14.49-17.88H0c0-124.08 94.34-73.52 169.02-140.75zm233.19-9.84c50.16 0 90.84 40.68 90.84 90.85 0 50.16-40.68 90.84-90.84 90.84-50.17 0-90.84-40.68-90.84-90.84 0-50.17 40.67-90.85 90.84-90.85z"/></svg>