<svg xmlns="http://www.w3.org/2000/svg" shape-rendering="geometricPrecision" text-rendering="geometricPrecision" image-rendering="optimizeQuality" fill-rule="evenodd" clip-rule="evenodd" viewBox="0 0 512 470.17"><path d="M174.85 253.55c-11.46-10.2-20.51-17.55-22.44-38.71l-1.22.02c-2.85-.03-5.58-.69-8.14-2.14-4.11-2.33-6.98-6.34-8.94-10.86-4.13-9.48-7.39-34.41 2.99-41.54l-1.94-1.29-.22-2.77c-.4-5.01-.51-11.09-.61-17.45-.37-23.44-.85-48.78-19.7-54.47l-8.08-2.46 5.33-6.59c15.22-18.82 31.14-35.28 47.19-47.91C177.22 13.09 195.68 3.57 213.72.83c18.57-2.82 36.56 1.44 53.17 14.87 4.9 3.96 9.67 8.73 14.25 14.31 17.73 1.71 32.22 11.26 42.56 24.87 6.17 8.14 10.86 17.76 13.85 27.98 2.98 10.18 4.28 21.02 3.73 31.69-1.01 19.11-8 34.71-22.08 48.32 2.47.09 4.81.66 6.87 1.76 7.86 4.2 8.11 13.33 6.04 21-2.03 6.4-4.63 13.83-7.07 20.06-2.97 8.43-7.33 9.99-15.73 9.09-.43 20.81-10.05 26.54-23 38.77.54 31.35-112.16 27.66-111.46 0zm223.47 98.2h20.07v15.84h-17.75c-.22 3.73-.9 7.1-2.05 10.1-.93 2.28-2.46 4.65-4.63 7.11 2.46-.54 4.59-.81 6.34-.81 2.26 0 5.2.42 8.81 1.28 4.95 1.13 8.9 1.69 11.85 1.69 2.42 0 4.51-.2 6.3-.6 1.8-.4 4.15-1.26 7.04-2.57l9.01 19.77c-4.36 2.17-8.19 3.68-11.52 4.52-3.29.83-6.84 1.24-10.63 1.24-4.15 0-8.87-.73-14.22-2.17-6.99-1.92-11.34-3.02-13.03-3.35-1.66-.29-3.48-.44-5.41-.44-5.69 0-11.96 1.99-18.83 5.96l-8.58-18.83c9.3-6.64 13.96-13.27 13.96-19.91 0-.37-.05-1.35-.15-2.99h-13.81v-15.84h9.88c-1.66-5.8-2.64-9.19-2.84-10.12-.27-1.39-.4-3.13-.4-5.21 0-5.51 1.47-10.45 4.4-14.83 2.92-4.37 6.78-7.56 11.56-9.52 4.79-1.99 11.22-2.99 19.32-2.99 7.59 0 13.6.86 18.02 2.55 4.42 1.71 8.17 4.52 11.22 8.45 3.07 3.95 5.17 8.71 6.32 14.31l-25.33 3.95c-1.27-4.7-2.73-7.81-4.38-9.34-1.65-1.54-3.52-2.3-5.62-2.3-2.56 0-4.6.83-6.18 2.5-1.59 1.67-2.37 4.04-2.37 7.11 0 1.65.15 3.21.47 4.72.29 1.53 1.35 5.1 3.16 10.72zm-229.31-72.38 33.54 88.06 16.85-48-8.26-9.03c-6.21-9.07-4.08-19.38 7.43-21.25 3.88-.62 8.26-.23 12.49-.23 4.46 0 9.45-.41 13.69.51 10.69 2.36 11.81 12.73 6.48 20.97l-8.27 9.03 16.87 48 30.32-88.06c7.45 6.72 15.22 12.14 23.14 16.65 3.42-4.7 7.19-9.12 11.28-13.21 19.86-19.93 47.33-32.24 77.62-32.24 30.26 0 57.7 12.31 77.57 32.17 19.93 19.94 32.24 47.38 32.24 77.64 0 30.29-12.31 57.76-32.17 77.62l-1.1 1.01c-19.78 19.27-46.79 31.16-76.54 31.16-30.29 0-57.76-12.31-77.62-32.17a110.464 110.464 0 0 1-14.49-17.88H0c0-124.08 94.33-73.52 169.01-140.75zm233.18-9.84c50.17 0 90.86 40.68 90.86 90.85 0 50.16-40.69 90.84-90.86 90.84-50.16 0-90.83-40.68-90.83-90.84 0-50.17 40.67-90.85 90.83-90.85z"/></svg>