<svg xmlns="http://www.w3.org/2000/svg" shape-rendering="geometricPrecision" text-rendering="geometricPrecision" image-rendering="optimizeQuality" fill-rule="evenodd" clip-rule="evenodd" viewBox="0 0 512 506.19"><path d="M200.9 310.49c-5.37 7.85-10.62 15.77-16.58 23.24 2.7 6.74 14.29 12.57 30 16.37v22.43c-4.52.09-8.79.28-12.59.64-9.17.89-16.14 4.58-20.86 10.85-4.4 5.84-6.47 13.6-6.23 23.07v99.1H28.03C10.43 504.85 1.48 495.77 0 480l6.09-27.22c1.71-22.28 7.95-52.31 18.13-65.75 6.72-8.87 15.04-15.42 24.28-20.56 27.5-15.35 98.71-20.48 129.04-40.96l15.12-21.49c-1.95-1.66-3.86-3.37-5.71-5.15-18.27-17.48-31.56-40.19-33.92-62.58-13.53-4.38-20.96-19-23.48-34.2-1.66-10.02-1.18-20.46 1.08-28.08 3.1-10.43 9.44-16.65 18.72-14.22-2.29-2.26-4.51-4.61-6.65-7.06l1.34-37.83c-5.82-7.37-10.72-16.35-14.47-24.9-5.93-13.5-4.95-15.28 6.41-20.73 21.84-10.49 41.34-19.68 58.66-32.22C219.28 19.2 228.16-4.63 263.91.78c19.02 2.88 36.05 25.24 51.08 37.89 16.96 14.26 35.51 24.15 53.98 30.96 22.52 7.29 19.18 14.06 8.28 33.41a70.42 70.42 0 0 1-9.59 13.24l1.34 35.54c-2.31 2.62-4.72 5.13-7.21 7.54-.23 1.87-.5 3.81-.79 5.78 5-2.54 9.32-2.11 12.92.4 5.81 4.04 8.02 14.32 7.26 25.79-.67 10.02-3.46 21.57-7.87 30.17-4.31 8.41-10.12 14.36-17.25 15.15-1.26 21.75-13.49 43.81-30.53 61.03-2.45 2.48-5 4.86-7.64 7.12 3.97 5.82 7.9 11.64 12.09 17.3 27.1 23.37 104.56 28.21 133.52 44.37 9.22 5.14 17.57 11.7 24.28 20.56 10.18 13.43 16.42 43.47 18.13 65.75L512 480c-1.48 15.77-10.43 24.85-28.04 26.19H193.89l-.03-99.4c-.18-5.11.61-8.88 2.35-11.19 1.31-1.74 3.54-2.84 6.67-3.25l54.39-.04c8.95-.19 14.76-3.11 18.58-8.77 3.21-4.76 4.2-10.8 4.18-18.46v-12c18.79-2.67 36.02-8.74 46.92-19.35l-16.98-22.64c-14.89 10.91-31.71 18.21-47.61 19.54a63.1 63.1 0 0 1-5.25.23c-19.01-.01-38.95-7.91-56.21-20.37zm144.96-137.84c-50.56 36.08-124.06 37.95-175.91 3.82l.61 7.98a6.918 6.918 0 0 1-3.67 6.61c-3.36 1.77-7.53.47-9.3-2.89-5.22-9.91-9.06-14.35-11.67-15.06-.41-.11-1.21 1.88-2.07 4.78-1.72 5.78-2.03 13.95-.7 21.99 1.95 11.77 7.37 22.94 16.92 23.89 3.48.26 6.27 3.13 6.36 6.7.48 20.32 12.69 41.85 30.02 58.42 17.47 16.71 39.94 28.19 60.66 28.18 1.39-.03 2.77-.09 4.11-.2 18.48-1.55 38.77-12.96 54.54-28.9 15.67-15.84 26.66-35.97 26.65-55.06-.03-1.36-.08-2.69-.18-3.95-.08-1.24.15-2.51.75-3.69 1.72-3.38 5.87-4.73 9.25-3 2.99 1.53 6.18-1.87 8.83-7.03 3.54-6.9 5.8-16.42 6.36-24.83.47-6.96.1-12.52-1.38-13.54-.48-.34-3.25 2.88-9.62 12.03a6.912 6.912 0 0 1-6.82 2.86 6.905 6.905 0 0 1-5.64-7.96l.39-2.27 1.51-8.88zm-3.55 272.75h65.37c2.1 0 3.82 1.72 3.82 3.82v14c0 2.1-1.72 3.82-3.82 3.82h-65.37c-2.1 0-3.82-1.72-3.82-3.82v-14c0-2.1 1.71-3.82 3.82-3.82zM230.2 423.47c5.99 0 10.85 4.85 10.85 10.85 0 5.99-4.86 10.84-10.85 10.84-5.99 0-10.84-4.85-10.84-10.84 0-6 4.85-10.85 10.84-10.85zm44.94 41.08c5.99 0 10.84 4.85 10.84 10.84s-4.85 10.85-10.84 10.85-10.85-4.86-10.85-10.85c0-5.99 4.86-10.84 10.85-10.84zm-44.94 0c5.99 0 10.85 4.85 10.85 10.84s-4.86 10.85-10.85 10.85c-5.99 0-10.84-4.86-10.84-10.85 0-5.99 4.85-10.84 10.84-10.84zm44.94-41.08c5.99 0 10.84 4.85 10.84 10.85 0 5.99-4.85 10.84-10.84 10.84s-10.85-4.85-10.85-10.84c0-6 4.86-10.85 10.85-10.85z"/></svg>