<svg id="Layer_1" data-name="Layer 1" xmlns="http://www.w3.org/2000/svg" viewBox="0 0 122.88 112.14"><defs><style>.cls-1{fill-rule:evenodd;}</style></defs><title>consultant</title><path class="cls-1" d="M46.39,70.56c-3.15-2.8-5.64-4.82-6.17-10.64h-.34a4.54,4.54,0,0,1-2.23-.59,6.08,6.08,0,0,1-2.46-3c-1.14-2.6-2-9.46.82-11.42l-.53-.36-.07-.75c-.11-1.38-.13-3-.16-4.8-.1-6.45-.23-14.26-5.42-15.83l-2.22-.67,1.46-1.81a84.18,84.18,0,0,1,13-13.18C47,3.6,52.12,1,57.08.23A18,18,0,0,1,71.7,4.32a27.47,27.47,0,0,1,3.92,3.93,16.63,16.63,0,0,1,11.7,6.84,23.76,23.76,0,0,1,3.81,7.69,26.44,26.44,0,0,1,1,8.72,20.91,20.91,0,0,1-6.07,14.13,4.27,4.27,0,0,1,1.89.49c2.16,1.15,2.23,3.66,1.67,5.77-.57,1.76-1.28,3.8-2,5.52-.82,2.31-2,2.74-4.33,2.49-.11,5.73-2.76,7.3-6.32,10.66.15,8.63-30.84,7.61-30.65,0Zm-1.61,7.11L54,101.88l4.64-13.2L56.37,86.2c-1.71-2.5-1.12-5.33,2-5.84a21.71,21.71,0,0,1,3.44-.07,18.05,18.05,0,0,1,3.76.15c2.94.64,3.25,3.49,1.78,5.76l-2.27,2.48,4.64,13.2,8.33-24.21c6,5.42,27.22,6.51,33.85,10.2,9.18,5.14,8.93,15.07,10.94,24.27H0C2,103,1.79,92.93,10.94,87.87c8.15-4.53,27.17-4.19,33.84-10.2Z"/></svg>