<svg xmlns="http://www.w3.org/2000/svg" shape-rendering="geometricPrecision" text-rendering="geometricPrecision" image-rendering="optimizeQuality" fill-rule="evenodd" clip-rule="evenodd" viewBox="0 0 409 511.86"><path fill="#E20919" fill-rule="nonzero" d="M98.7 106.66c6.73 50.08 17.16 87.98 34.88 102.02-3.73-112.63 60-118.15 52.78-208.68 56.71 10.27 109.36 99.67 122.59 213.38 14.11-19.27 22.58-41.57 24.17-67.39 25.01 26.79 37.4 58.63 42.03 93.6 9.35 66.9-10.29 110.23-62.18 127.4-121.62 13.33-80.76 14.57-170.7 9.68-39.88-4.79-66.67-28.02-83.59-65.58-24.26-53.8-19.92-93.85 3.04-147.6 9.09-21.15 21.15-40.51 36.98-56.83z"/><path fill="#F78D09" d="M256.35 276.92c21.07-58.87 17.31-151.47-41.72-184.81-.42 109.26-89.2 120.71-70.73 237.36-9.01-48.13-38.44-61.78-40.22-87.24C-33 527.39 445.8 460.22 294.3 222.03c-2.01 20.49-29.35 49.76-37.95 54.89z"/><path fill="#292929" fill-rule="nonzero" d="M209.89 231.78c36.03 0 68.65 14.61 92.26 38.22s38.21 56.23 38.21 92.25-14.6 68.65-38.21 92.25c-23.61 23.61-56.23 38.22-92.26 38.22-36.02 0-68.64-14.61-92.25-38.22-23.61-23.6-38.21-56.23-38.21-92.25s14.6-68.64 38.21-92.25 56.23-38.22 92.25-38.22z"/><path fill="#fff" d="M209.89 246.25c64.07 0 116.01 51.94 116.01 116 0 4.66-.29 9.25-.82 13.76h59.02c6.87 0 13.07 2.85 17.55 7.33 4.53 4.53 7.35 10.8 7.35 17.57v86.05c0 6.76-2.86 13.03-7.37 17.53-4.5 4.51-10.75 7.37-17.53 7.37H24.9c-6.76 0-13.05-2.82-17.57-7.35C2.85 500.03 0 493.81 0 486.96v-86.05c0-6.85 2.8-13.09 7.31-17.59 4.5-4.51 10.74-7.31 17.59-7.31h69.81c-.53-4.51-.82-9.1-.82-13.76 0-64.06 51.94-116 116-116zm86.33 111.06c3.12 0 5.66 2.54 5.66 5.66 0 3.13-2.54 5.66-5.66 5.66h-8.43a5.661 5.661 0 0 1 0-11.32h8.43zm-82.65-49.8 8.28 11.24c1.63 2.21 1.15 5.35-1.07 6.98a4.987 4.987 0 0 1-4.8.61l-.16 24.16c2.29 1.15 4.18 2.95 5.46 5.15h17.15c-.68-1.6-.49-3.53.65-5.01a4.99 4.99 0 0 1 7.01-.9l11.05 8.53c2.59 2 2.59 5.97 0 7.97l-11.05 8.53c-2.18 1.69-5.32 1.28-7.01-.9a5.014 5.014 0 0 1-.65-5.01l-17.16-.01a13.14 13.14 0 0 1-11.38 6.56c-7.27 0-13.16-5.89-13.16-13.16 0-4.56 2.32-8.57 5.84-10.94l.16-25.42c-1.67.73-3.67.53-5.17-.69a5.01 5.01 0 0 1-.73-7.03l8.77-10.85c2.05-2.54 6.03-2.46 7.97.19zm68.27 7.42c2.7-1.55 6.15-.62 7.7 2.08a5.63 5.63 0 0 1-2.08 7.69l-7.3 4.22a5.644 5.644 0 0 1-7.69-2.09 5.638 5.638 0 0 1 2.07-7.69l7.3-4.21zm-33.67-29.53c1.55-2.69 5-3.62 7.69-2.07 2.7 1.55 3.63 5 2.08 7.69l-4.21 7.3c-1.55 2.69-5 3.63-7.69 2.08-2.7-1.55-3.64-5-2.08-7.7l4.21-7.3zm-43.94-8.75c0-3.12 2.53-5.66 5.66-5.66 3.12 0 5.66 2.54 5.66 5.66v8.43c0 3.12-2.54 5.66-5.66 5.66-3.13 0-5.66-2.54-5.66-5.66v-8.43zm-42.38 14.37a5.633 5.633 0 0 1 2.08-7.69 5.638 5.638 0 0 1 7.69 2.07l4.21 7.3c1.55 2.7.62 6.15-2.08 7.7-2.7 1.55-6.14.61-7.69-2.08l-4.21-7.3zm-29.53 33.68c-2.69-1.55-3.63-4.99-2.07-7.69a5.63 5.63 0 0 1 7.69-2.08l7.3 4.21c2.7 1.55 3.63 5 2.08 7.69-1.55 2.7-5 3.63-7.69 2.09l-7.31-4.22zm-8.75 43.94c-3.12 0-5.66-2.54-5.66-5.66s2.54-5.66 5.66-5.66H132c3.12 0 5.66 2.54 5.66 5.66s-2.54 5.66-5.66 5.66h-8.43z"/><path fill="#F44336" d="M29.9 390.31h359.99c5.83 0 10.6 4.94 10.6 10.6v86.05c0 5.65-4.94 10.6-10.6 10.6H29.9c-5.66 0-10.6-4.77-10.6-10.6v-86.05c0-5.83 4.77-10.6 10.6-10.6z"/><path fill="#fff" fill-rule="nonzero" d="M47.99 465.96v-44.05h19.74c7.94 0 13.39 1.69 16.35 5.07 2.96 3.39 4.44 9.04 4.44 16.95 0 7.92-1.48 13.57-4.44 16.95-2.96 3.39-8.41 5.08-16.35 5.08H47.99zm19.95-32.77h-6.57v21.5h6.57c1.93 0 3.32-.23 4.19-.68.87-.44 1.31-1.47 1.31-3.06v-14.03c0-1.6-.44-2.62-1.31-3.06-.87-.44-2.27-.67-4.19-.67zm55.28 16.14h-14.09v6.07h17.27v10.56H95.03v-44.05h31.02l-1.77 10.56h-15.15v6.64h14.09v10.22zm21.25 16.63h-14.86l11.41-44.05h21.78l11.41 44.05h-14.86l-1.63-6.98h-11.63l-1.62 6.98zm5.94-30.52-2.17 12.34h7.27l-2.1-12.34h-3zm28.07 30.52v-44.05h19.73c7.94 0 13.39 1.69 16.35 5.07 2.96 3.39 4.44 9.04 4.44 16.95 0 7.92-1.48 13.57-4.44 16.95-2.96 3.39-8.41 5.08-16.35 5.08h-19.73zm19.94-32.77h-6.96v21.5h6.96c1.93 0 3.33-.23 4.2-.68.87-.44 1.3-1.47 1.3-3.06v-14.03c0-1.6-.44-2.62-1.3-3.06-.87-.44-2.28-.67-4.2-.67zm55.29 32.77h-28.19v-44.05h14.09v32.78h14.1v11.27zm5.46 0v-44.05h14.09v44.05h-14.09zm48.59 0-11.77-19.03v19.03h-14.1v-44.05h13.26l11.76 19.03v-19.03h14.1v44.05h-13.25zm50.07-16.63h-14.09v6.17h17.27v10.46h-31.37v-44.05h31.01l-1.76 10.48h-15.15v6.72h14.09v10.22z"/></svg>