<svg xmlns="http://www.w3.org/2000/svg" shape-rendering="geometricPrecision" text-rendering="geometricPrecision" image-rendering="optimizeQuality" fill-rule="evenodd" clip-rule="evenodd" viewBox="0 0 439 511.86"><path d="M327.55 288.97c61.55 0 111.45 49.9 111.45 111.45 0 61.54-49.9 111.44-111.45 111.44-61.54 0-111.44-49.9-111.44-111.44 0-61.55 49.9-111.45 111.44-111.45zm51.04-266.59c0-12.3-10.08-22.38-22.38-22.38H22.37C10.08 0 0 10.08 0 22.38v414.06c0 12.3 10.08 22.38 22.37 22.38h178.52c-2.38-5.13-4.45-10.43-6.2-15.87H18.65c-1.23 0-2.35-1.07-2.35-2.34V20.27c0-1.26 1.12-2.35 2.35-2.35h341.89c1.26 0 2.35 1.15 2.35 2.35v245.18c5.36 1.4 10.6 3.11 15.7 5.13V22.38zM57.34 55.28h12.41v51.94H57.34V55.28zm22.85 0h11.55l15.01 28.68V55.28h11.7v51.94h-11.7L91.83 78.7v28.52H80.19V55.28zm44.04 0h12.93l9.02 37.39 8.9-37.39h12.56l-14.87 51.94h-13.41l-15.13-51.94zm50.89 6.22c7.28-9.44 23.28-9.59 30.63-.14 6.4 8.23 6.9 24.95 3.05 34.42-1.57 3.88-3.86 6.91-6.83 9.07-5.9 4.28-16.26 4.29-22.35.45-2.96-1.86-5.37-4.83-7.2-8.86-4.37-9.59-3.83-26.49 2.7-34.94zm9.15 31.12c2.96 4.5 9.36 4.66 12.34.07 2.96-4.55 3.04-18.14-.1-22.78-3.06-4.54-9.2-4.51-12.22.05-3.08 4.65-3.09 17.99-.02 22.66zm35.53-37.34h12.42v51.94H219.8V55.28zm49.42 30.68 10.85 4.25c-.72 3.94-1.88 7.25-3.44 9.88-1.57 2.64-3.52 4.64-5.85 5.98-2.31 1.34-5.27 2.02-8.86 2.02-4.36 0-7.93-.82-10.68-2.45-2.76-1.63-5.15-4.54-7.15-8.65-2-4.12-3-9.42-3-15.85 0-8.59 1.76-15.2 5.28-19.81 3.52-4.61 8.52-6.92 14.97-6.92 5.05 0 9.02 1.32 11.91 3.97 2.88 2.64 5.03 6.71 6.43 12.2l-10.91 3.13c-.38-1.57-.78-2.73-1.2-3.45-.69-1.21-1.56-2.16-2.55-2.82-1-.65-2.12-.99-3.36-.99-2.82 0-4.97 1.48-6.46 4.38-1.11 2.17-1.7 5.57-1.7 10.2 0 5.76.67 9.7 2.02 11.83 1.35 2.12 3.25 3.19 5.69 3.19 2.37 0 4.16-.86 5.37-2.59 1.21-1.71 2.09-4.21 2.64-7.5zm18.3-30.68h33.12v11.11h-20.7v8.26h19.19v10.6h-19.19v10.22h21.31v11.75h-33.73V55.28zM96.3 186.56c-3.99 0-7.23-3.24-7.23-7.23 0-4 3.24-7.24 7.23-7.24h144.05c4 0 7.24 3.24 7.24 7.24 0 3.99-3.24 7.23-7.24 7.23H96.3zm0 118.52c-3.99 0-7.23-3.24-7.23-7.23s3.24-7.23 7.23-7.23h145.33c-4.4 3.44-8.59 7.15-12.54 11.09l-.18.18-3.09 3.19H96.3zm0-43.89c-3.98 0-7.22-3.25-7.22-7.23 0-3.98 3.24-7.23 7.22-7.23h144.05c3.99 0 7.23 3.25 7.23 7.23 0 3.98-3.24 7.23-7.23 7.23H96.3zm212.32-36.62H69.97v143.61h121.84c-1.12 4.73-2.01 9.56-2.64 14.47H62.74c-4 0-7.24-3.25-7.24-7.24V142.86c0-4 3.24-7.24 7.24-7.24h253.11c3.99 0 7.24 3.24 7.24 7.24v118.11c-4.89.16-9.72.57-14.47 1.21v-37.61zM69.97 210.1h238.65v-60.01H69.97v60.01zm245.06 240.19c-6.82-.48-15.53-2.16-22.23-3.96v-21c8.89.71 30.79 2.58 38.87.75 6.05-1.37 5.38-10.93 1.4-12.13-4.82-1.5-14.87.29-22.95-2.04-4.12-1.2-7.61-3.01-10.44-5.41-6.36-5.43-8.59-14.33-8.59-22.39v-7.2c0-15.39 8.49-24.57 23.94-27.15v-12.08h22.02v11.65c6.83.55 15.33 2.29 22.1 3.94v21.04c-9.24-.81-26.76-2.46-35.52-.87-.78.14-1.48.36-2.08.63-3.61 1.72-3.46 11.55.95 12.72 2.88.76 8.79.36 11.96.36 3.19 0 6.14.32 8.85.93 2.75.62 5.22 1.56 7.42 2.82 9.23 5.25 13.29 12.94 13.29 23.17v7.21c0 4.28-.39 8.1-1.14 11.43-3.01 13.24-13.28 16.1-25.83 17.47v12.97h-22.02v-12.86z"/></svg>