<svg xmlns="http://www.w3.org/2000/svg" shape-rendering="geometricPrecision" text-rendering="geometricPrecision" image-rendering="optimizeQuality" fill-rule="evenodd" clip-rule="evenodd" viewBox="0 0 512 488.15"><path d="M304.73 467.72H175.81V16.29h248.2v238.4c5.54.53 10.97 1.39 16.29 2.56V14.31C440.3 6.44 433.85 0 426 0H173.83c-7.88 0-14.31 6.45-14.31 14.31v121.94H11.98C5.41 136.25 0 141.67 0 148.24v327.62c0 4.51 3.65 8.15 8.15 8.15l310.99-.07-2.1-2.05c-4.42-4.43-8.54-9.16-12.31-14.17zm106.66-180.79c55.55 0 100.61 45.06 100.61 100.61 0 55.56-45.06 100.61-100.61 100.61S310.78 443.1 310.78 387.54c0-55.55 45.06-100.61 100.61-100.61zm-6.13 138.25-37.27 9.94 5.38-40.01 31.89 30.07zm-23.68-39.15 39.74-44.89c.62-.72 1.52-1.14 2.46-1.17.59-.02 1.17.11 1.7.39l28.39 25.81c.56.53.89 1.26.91 2.04.04.87-.33 1.71-1 2.29l-40.41 45.6-31.84-30.07h.05zM16.29 467.72V152.54h143.23v315.18H16.29zm332.62-198.1h-29.19l-.12.01h-.02l-.12.02h-.02l-.12.02h-.01l-.12.04h-.02l-.11.03h-.02l-.11.05h-.02l-.11.05h-.02c-1 .43-1.7 1.61-1.7 2.57v20.75c9.34-9.33 20.06-17.29 31.83-23.54zm-30.13-93.41c-1 .43-1.7 1.61-1.7 2.57v45.26c0 .97.7 2.15 1.7 2.58h.02l.11.05h.02l.11.04h.02l.11.03h.02l.12.04h.01l.12.02h.02l.12.02h.02l.12.01h.02l.12.01h53.6c1.54 0 2.8-1.26 2.8-2.8v-14.93l.02-.03v-30.3c0-1.2-.78-2.23-1.86-2.62l-.11-.04h-.02l-.11-.04h-.02l-.11-.03h-.02l-.12-.03h-.02l-.12-.02h-.16l-.12-.01h-53.63l-.12.01h-.16l-.12.02h-.02l-.12.03h-.01l-.12.03h-.02l-.11.04h-.02l-.11.04h-.02l-.11.05h-.02zm-40.87 187.04h-53.6c-1.32 0-2.78 1.46-2.78 2.79v45.26c0 1.33 1.25 2.8 2.78 2.8h53.6c1.03 0 1.93-.56 2.41-1.38a134.668 134.668 0 0 1-.35-48.4c-.58-.65-1.42-1.07-2.06-1.07zm0-93.63h-53.6c-1.32 0-2.78 1.46-2.78 2.79v45.26c0 1.33 1.25 2.79 2.78 2.79h53.6c1.54 0 2.8-1.24 2.8-2.79v-45.26c0-1.54-1.68-2.79-2.8-2.79zm0-93.63h-53.6c-1.32 0-2.78 1.47-2.78 2.79v45.26c0 1.33 1.25 2.8 2.78 2.8h53.6c1.54 0 2.8-1.26 2.8-2.8v-45.26c0-1.53-1.68-2.79-2.8-2.79zM120.05 321.17H55.48c-.71 0-1.36.55-1.36.99v26.53c0 .44.68.99 1.36.99h64.57c.69 0 1.37-.44 1.37-.99v-26.53c0-.54-.68-.99-1.37-.99zm267.5-269.44H212.26c-3.56 0-6.51 3-6.51 6.52v69.26c0 3.52 2.97 6.52 6.51 6.52h175.29c3.55 0 6.52-2.94 6.52-6.52V58.25c0-3.58-2.98-6.52-6.52-6.52zm-267.5 211.39H55.48c-.71 0-1.36.55-1.36.99v26.53c0 .44.68.99 1.36.99h64.57c.69 0 1.37-.45 1.37-.99v-26.53c0-.55-.68-.99-1.37-.99zm0-58.05H55.48c-.71 0-1.36.54-1.36.98v26.54c0 .44.68.98 1.36.98h64.57c.69 0 1.37-.44 1.37-.98v-26.54c0-.54-.68-.98-1.37-.98z"/></svg>