<svg xmlns="http://www.w3.org/2000/svg" shape-rendering="geometricPrecision" text-rendering="geometricPrecision" image-rendering="optimizeQuality" fill-rule="evenodd" clip-rule="evenodd" viewBox="0 0 512 512"><path d="m245.44.02 37.08 1.16c17.33.54 31.07 15.17 30.53 32.49L311.98 68c16.68 5.57 32.35 13.3 46.68 22.85l26.32-24.72c12.64-11.87 32.69-11.25 44.56 1.39l25.4 27.04c11.88 12.64 11.24 32.7-1.39 44.57l-28.27 26.56a196.843 196.843 0 0 1 16.61 46.01l39.57 1.24c17.33.54 31.06 15.17 30.52 32.5l-1.16 37.08c-.54 17.33-15.17 31.07-32.49 30.53l-39.94-1.25a196.394 196.394 0 0 1-19.56 44.38l27.04 28.79c11.87 12.64 11.25 32.7-1.39 44.57l-27.04 25.4c-12.64 11.87-32.7 11.24-44.57-1.39l-25.55-27.2a196.363 196.363 0 0 1-47.15 19.39l-1.11 35.72c-.54 17.32-15.18 31.06-32.5 30.52l-37.08-1.16c-17.32-.54-31.07-15.16-30.53-32.49l1.01-32.27a195.772 195.772 0 0 1-50.73-21.05l-22.2 20.86c-12.64 11.87-32.7 11.24-44.57-1.39l-25.4-27.04c-11.87-12.63-11.25-32.7 1.39-44.57l20.25-19.02a196.256 196.256 0 0 1-21.38-53.96l-26.78-.84C13.22 298.51-.52 283.88.02 266.56l1.16-37.08c.54-17.32 15.16-31.08 32.49-30.54l26.4.83c5.56-19.06 13.92-36.89 24.57-53.05l-18.51-19.7c-11.87-12.63-11.24-32.7 1.39-44.56l27.04-25.4c12.63-11.87 32.69-11.25 44.57 1.39l19.99 21.28a196.23 196.23 0 0 1 52.85-18.31l.97-30.88c.54-17.33 15.17-31.06 32.5-30.52zm21.72 231.87a26.679 26.679 0 0 1 12.89 12.82l40.36.01c-2.34-3.43-2.34-8.11.34-11.57 3.32-4.3 9.5-5.1 13.8-1.78l21.74 16.79a9.813 9.813 0 0 1 3.82 7.71v.26a9.847 9.847 0 0 1-3.82 7.72l-21.74 16.78c-4.3 3.32-10.48 2.53-13.8-1.77a9.842 9.842 0 0 1-.34-11.56l-40.37-.01c-4.24 9.02-13.41 15.28-24.05 15.28-14.67 0-26.57-11.9-26.57-26.57 0-10.56 6.17-19.69 15.1-23.97l.31-50.87c-3.51 2.48-8.37 2.45-11.87-.39-4.22-3.43-4.86-9.62-1.44-13.83l17.27-21.36a9.794 9.794 0 0 1 7.32-3.63h.23c3.1-.06 6.16 1.33 8.12 4.01l16.3 22.11c3.21 4.37 2.27 10.54-2.11 13.75a9.861 9.861 0 0 1-11.18.31l-.31 49.76zM411.7 268h-12.65c-6.63 0-12-5.38-12-12s5.37-12 12-12l12.65.01c-5.77-76.2-66.52-137.8-143.66-143.7v12.64c0 6.65-5.39 12.05-12.04 12.05-6.65 0-12.04-5.4-12.04-12.05V100.3c-76.18 5.8-137.75 66.54-143.65 143.66h12.64c6.65 0 12.04 5.4 12.04 12.04 0 6.65-5.39 12.05-12.04 12.05h-12.64c5.8 76.17 66.53 137.73 143.65 143.64v-12.64c0-6.65 5.39-12.04 12.04-12.04 6.65 0 12.04 5.39 12.04 12.04v12.65c76.19-5.8 137.77-66.56 143.66-143.7z"/></svg>