<svg xmlns="http://www.w3.org/2000/svg" shape-rendering="geometricPrecision" text-rendering="geometricPrecision" image-rendering="optimizeQuality" fill-rule="evenodd" clip-rule="evenodd" viewBox="0 0 407 511.49"><path fill-rule="nonzero" d="M375.05 22.17C375.05 9.98 365.06 0 352.88 0H22.16C9.98 0 0 9.98 0 22.17v410.19c0 12.19 9.98 22.17 22.16 22.17h247.22l-31.85-15.72H18.47c-1.21 0-2.32-1.06-2.32-2.31V20.08c0-1.25 1.11-2.32 2.32-2.32h338.71c1.24 0 2.31 1.13 2.31 2.32v318.14l15.56-5.77V22.17zM247.08 406.62l153.04-56.76a4.814 4.814 0 0 1 6.54 6.12l-60.13 152.46a4.907 4.907 0 0 1-2.45 2.59c-2.4 1.13-5.27.09-6.39-2.32l-22.87-48.89 47.39-66.15-67.13 45.69-48.46-23.92a4.802 4.802 0 0 1-2.39-2.65c-.91-2.49.36-5.26 2.85-6.17zM53.11 54.77h12.85v50.22H53.11V54.77zm22.93 0H88l15.54 27.72V54.77h12.1v50.22h-12.1L88.09 77.41v27.58H76.04V54.77zm44.87 0h13.39l9.33 36.14 9.21-36.14h12.99l-15.38 50.22h-13.88l-15.66-50.22zm51.95 6.01c7.53-9.12 24.09-9.27 31.71-.14 6.61 7.96 7.12 24.12 3.15 33.28-1.62 3.76-4 6.69-7.08 8.77-6.1 4.14-16.83 4.15-23.13.44-3.06-1.8-5.56-4.68-7.45-8.57-4.51-9.27-3.95-25.62 2.8-33.78zm9.47 30.09c3.07 4.35 9.69 4.49 12.77.06 3.05-4.39 3.14-17.54-.1-22.02-3.17-4.38-9.52-4.36-12.65.05-3.19 4.5-3.2 17.39-.02 21.91zm36.05-36.1h12.85v50.22h-12.85V54.77zm50.43 29.66 11.23 4.11c-.75 3.8-1.95 7.01-3.57 9.55-1.62 2.54-3.64 4.49-6.04 5.78s-5.46 1.95-9.17 1.95c-4.52 0-8.21-.79-11.06-2.36-2.86-1.58-5.33-4.4-7.39-8.38-2.07-3.98-3.12-9.1-3.12-15.32 0-8.3 1.82-14.7 5.47-19.15 3.64-4.45 8.82-6.68 15.5-6.68 5.22 0 9.34 1.28 12.32 3.83 2.97 2.55 5.21 6.48 6.66 11.79l-11.29 3.04c-.4-1.53-.82-2.65-1.25-3.34-.71-1.17-1.61-2.1-2.63-2.72-1.03-.64-2.2-.96-3.49-.96-2.91 0-5.14 1.43-6.68 4.23-1.15 2.08-1.76 5.39-1.76 9.87 0 5.56.7 9.37 2.1 11.42 1.38 2.06 3.35 3.1 5.88 3.1 2.45 0 4.31-.85 5.56-2.5 1.24-1.66 2.17-4.09 2.73-7.26zm18.22-29.66h34.28V65.5h-21.43v8h19.87v10.23h-19.87v9.89h22.06v11.37h-34.91V54.77zM95.4 184.82c-3.95 0-7.16-3.22-7.16-7.17 0-3.96 3.21-7.17 7.16-7.17h142.71c3.95 0 7.16 3.21 7.16 7.17 0 3.95-3.21 7.17-7.16 7.17H95.4zm0 117.41a7.166 7.166 0 0 1 0-14.33h174.75a7.17 7.17 0 0 1 7.17 7.17c0 3.95-3.21 7.16-7.17 7.16H95.4zm0-43.48c-3.94 0-7.15-3.22-7.15-7.16 0-3.95 3.21-7.16 7.15-7.16h142.71c3.95 0 7.16 3.21 7.16 7.16 0 3.94-3.21 7.16-7.16 7.16H95.4zm210.33-36.28H69.31v142.27h218.72l-38.63 14.33H62.15a7.17 7.17 0 0 1-7.17-7.17V141.52c0-3.95 3.21-7.17 7.17-7.17H312.9c3.95 0 7.17 3.22 7.17 7.17v211.33l-14.34 5.32v-135.7zM69.31 208.14h236.42v-59.45H69.31v59.45z"/></svg>