<svg xmlns="http://www.w3.org/2000/svg" shape-rendering="geometricPrecision" text-rendering="geometricPrecision" image-rendering="optimizeQuality" fill-rule="evenodd" clip-rule="evenodd" viewBox="0 0 512 488.15"><path d="M304.73 467.72H175.81V16.29h248.2v238.4c5.54.53 10.97 1.39 16.29 2.56V14.31C440.3 6.44 433.85 0 426 0H173.83c-7.88 0-14.31 6.45-14.31 14.31v121.94H11.98C5.41 136.25 0 141.67 0 148.24v327.62c0 4.51 3.65 8.15 8.15 8.15l310.99-.07-2.1-2.05c-4.42-4.43-8.54-9.16-12.31-14.17zm106.66-180.79c55.55 0 100.61 45.06 100.61 100.61 0 55.56-45.06 100.61-100.61 100.61S310.78 443.1 310.78 387.54c0-55.55 45.06-100.61 100.61-100.61zm-34.82 86.74h1.82v-5.6c0-9.35 3.68-17.89 9.62-24.08 6-6.24 14.27-10.13 23.39-10.13 9.1 0 17.38 3.88 23.36 10.13 5.95 6.19 9.63 14.72 9.63 24.08v5.6h1.82c2.97 0 5.39 2.42 5.39 5.39v53.24c0 2.97-2.42 5.39-5.39 5.39h-69.64c-2.96 0-5.39-2.42-5.39-5.39v-53.24c0-2.97 2.43-5.39 5.39-5.39zm30.55 34.44-5.61 14.67h19.75l-5.2-14.88c3.31-1.71 5.56-5.13 5.56-9.1 0-5.65-4.58-10.23-10.23-10.23s-10.24 4.58-10.24 10.23c0 4.13 2.45 7.68 5.97 9.31zm-18.54-34.44h45.61v-5.6c0-6.65-2.58-12.68-6.75-17.03-4.14-4.31-9.81-6.98-16.05-6.98-6.23 0-11.92 2.67-16.05 6.98-4.17 4.35-6.76 10.38-6.76 17.03v5.6zM16.29 467.72V152.54h143.23v315.18H16.29zm332.62-198.1h-29.19l-.12.01h-.02l-.12.02h-.02l-.12.02h-.01l-.12.04h-.02l-.11.03h-.02l-.11.05h-.02l-.11.05h-.02c-1 .43-1.7 1.61-1.7 2.57v20.75c9.34-9.33 20.06-17.29 31.83-23.54zm-30.13-93.41c-1 .43-1.7 1.61-1.7 2.57v45.26c0 .97.7 2.15 1.7 2.58h.02l.11.05h.02l.11.04h.02l.11.03h.02l.12.04h.01l.12.02h.02l.12.02h.02l.12.01h.02l.12.01h53.6c1.54 0 2.8-1.26 2.8-2.8v-14.93l.02-.03v-30.3c0-1.2-.78-2.23-1.86-2.62l-.11-.04h-.02l-.11-.04h-.02l-.11-.03h-.02l-.12-.03h-.02l-.12-.02h-.16l-.12-.01h-53.63l-.12.01h-.16l-.12.02h-.02l-.12.03h-.01l-.12.03h-.02l-.11.04h-.02l-.11.04h-.02l-.11.05h-.02zm-40.87 187.04h-53.6c-1.32 0-2.78 1.46-2.78 2.79v45.26c0 1.33 1.25 2.8 2.78 2.8h53.6c1.03 0 1.93-.56 2.41-1.38a134.668 134.668 0 0 1-.35-48.4c-.58-.65-1.42-1.07-2.06-1.07zm0-93.63h-53.6c-1.32 0-2.78 1.46-2.78 2.79v45.26c0 1.33 1.25 2.79 2.78 2.79h53.6c1.54 0 2.8-1.24 2.8-2.79v-45.26c0-1.54-1.68-2.79-2.8-2.79zm0-93.63h-53.6c-1.32 0-2.78 1.47-2.78 2.79v45.26c0 1.33 1.25 2.8 2.78 2.8h53.6c1.54 0 2.8-1.26 2.8-2.8v-45.26c0-1.53-1.68-2.79-2.8-2.79zM120.05 321.17H55.48c-.71 0-1.36.55-1.36.99v26.53c0 .44.68.99 1.36.99h64.57c.69 0 1.37-.44 1.37-.99v-26.53c0-.54-.68-.99-1.37-.99zm267.5-269.44H212.26c-3.56 0-6.51 3-6.51 6.52v69.26c0 3.52 2.97 6.52 6.51 6.52h175.29c3.55 0 6.52-2.94 6.52-6.52V58.25c0-3.58-2.98-6.52-6.52-6.52zm-267.5 211.39H55.48c-.71 0-1.36.55-1.36.99v26.53c0 .44.68.99 1.36.99h64.57c.69 0 1.37-.45 1.37-.99v-26.53c0-.55-.68-.99-1.37-.99zm0-58.05H55.48c-.71 0-1.36.54-1.36.98v26.54c0 .44.68.98 1.36.98h64.57c.69 0 1.37-.44 1.37-.98v-26.54c0-.54-.68-.98-1.37-.98z"/></svg>