<svg xmlns="http://www.w3.org/2000/svg" shape-rendering="geometricPrecision" text-rendering="geometricPrecision" image-rendering="optimizeQuality" fill-rule="evenodd" clip-rule="evenodd" viewBox="0 0 423 511.96"><path fill="#4D4D4D" fill-rule="nonzero" d="M211.5 0c58.4 0 111.28 23.68 149.55 61.95C399.32 100.22 423 153.1 423 211.5c0 58.4-23.68 111.28-61.95 149.55C322.78 399.32 269.9 423 211.5 423c-58.39 0-111.28-23.68-149.55-61.95C23.68 322.78 0 269.89 0 211.5c0-58.4 23.68-111.28 61.95-149.55C100.22 23.68 153.1 0 211.5 0z"/><path fill="#fff" fill-rule="nonzero" d="M211.5 16.18c53.94 0 102.78 21.87 138.11 57.21 35.34 35.33 57.21 84.18 57.21 138.11 0 53.93-21.88 102.77-57.22 138.11l-.98.9c-35.29 34.81-83.73 56.31-137.12 56.31-53.86 0-102.7-21.89-138.05-57.25-35.38-35.3-57.26-84.14-57.26-138.07 0-53.9 21.89-102.72 57.21-138.05 35.33-35.4 84.19-57.27 138.1-57.27z"/><path fill="#FEFEFE" fill-rule="nonzero" d="M211.5 32.71c98.75 0 178.79 80.04 178.79 178.79 0 98.74-80.04 178.8-178.79 178.8-98.74 0-178.78-80.06-178.78-178.8 0-98.75 80.04-178.79 178.78-178.79z"/><path fill="#C8102E" fill-rule="nonzero" d="M175.13 247.58v139c11.75 2.43 23.91 3.72 36.37 3.72 12.33 0 24.35-1.25 35.97-3.63V247.58h139.17c2.38-11.66 3.65-23.72 3.65-36.08 0-12.42-1.28-24.55-3.69-36.26H247.47V36.33c-11.62-2.38-23.64-3.62-35.97-3.62-12.46 0-24.62 1.28-36.37 3.71v138.82H36.41a179.755 179.755 0 0 0-3.69 36.26c0 12.36 1.27 24.42 3.65 36.08h138.76z"/><path fill="#012169" fill-rule="nonzero" d="M271.59 147.74V43.07c33.91 12.1 63.1 34.15 84.04 62.63l-84.04 42.04zm0 127.53v104.66c33.89-12.1 63.08-34.14 84.03-62.63l-84.03-42.03zm-120.56 0V379.8c-33.79-12.15-62.86-34.2-83.75-62.64l83.75-41.89zm0-127.53V43.2c-33.81 12.16-62.89 34.2-83.76 62.65l83.76 41.89z"/><path fill="#C8102E" fill-rule="nonzero" d="m362.58 115.86-70.56 35.36h40.13l39.3-19.66c-2.71-5.4-5.65-10.64-8.87-15.7zm-232 155.93H90.47l-38.99 19.5c2.71 5.43 5.69 10.69 8.92 15.8l70.56-35.3h-.38zM50.63 151.33h40.11l-39.23-19.66c-2.67 5.34-5.09 10.84-7.23 16.48l6.35 3.18zM371.9 271.69h-40.13l39.63 19.85c2.68-5.35 5.1-10.84 7.25-16.47l-6.75-3.38z"/><path fill="#4D4D4D" fill-rule="nonzero" d="M98.77 325.03h225.45c14.71 0 24.95 11.89 26.91 26.91l20.47 133.11c0 14.71-12.2 26.91-26.92 26.91H78.31c-14.76 0-26.91-12.15-26.91-26.91l20.46-133.11c3.37-15.67 12.87-26.91 26.91-26.91z"/><path fill="#fff" d="M96.88 335.92h229.25c7.77 0 13 6.6 14.13 14.13l20.46 136.9c1.13 7.53-6.51 14.12-14.12 14.12H76.42c-7.62 0-15.27-6.43-14.13-14.12l20.46-136.9c1.15-7.69 6.36-14.13 14.13-14.13z"/><path fill="#333" fill-rule="nonzero" d="M128.27 400.34h-9.32V362h11.41l6.22 20.49 6.2-20.49h11.42v38.34h-9.26v-24.37l-4.78 16.07h-7.17l-4.72-15.95v24.25zm50.24 0-1.21-5.73h-9.19l-1.26 5.73h-10.27l9.85-38.34h12.73l9.85 38.34h-10.5zm-8.78-13.14h5.97l-2.94-13.79-3.03 13.79zM192 362h17.62c5.86 0 8.78 2.46 8.78 7.4v23.54c0 4.93-2.92 7.4-8.78 7.4H192V362zm15.95 30.15v-21.98c0-.87-.5-1.31-1.5-1.31h-4v24.62h4c1 0 1.5-.45 1.5-1.33zm25.51.72h13.08v7.47h-23.53V362h23v7.45h-12.55v7.84h10.81v7.46h-10.81v8.12zM261.77 362h10.46v38.34h-10.46V362zm32.72 0h9.57v38.34h-8.96l-8.55-20.13v20.13H277V362h8.96l8.53 20.49V362z"/><path fill="#C8102E" fill-rule="nonzero" d="M190.04 421.3h14.63v43.34c0 6.92-4.09 10.37-12.29 10.37H180c-8.2 0-12.3-3.45-12.3-10.37V421.3h14.64v41.41c0 1.23.7 1.85 2.09 1.85h3.51c1.4 0 2.1-.62 2.1-1.85V421.3zm54.63 26.28 10.53 27.43h-15.72l-10.04-27.43 9.96-26.28h15.73l-10.46 26.28zm-29.95 27.43V421.3h14.64v53.71h-14.64z"/></svg>