<svg xmlns="http://www.w3.org/2000/svg" shape-rendering="geometricPrecision" text-rendering="geometricPrecision" image-rendering="optimizeQuality" fill-rule="evenodd" clip-rule="evenodd" viewBox="0 0 423 511.96"><path fill="#4D4D4D" fill-rule="nonzero" d="M211.5 0c58.4 0 111.28 23.68 149.55 61.95C399.32 100.22 423 153.1 423 211.5c0 58.4-23.68 111.28-61.95 149.55C322.78 399.32 269.9 423 211.5 423c-58.39 0-111.28-23.68-149.55-61.95C23.68 322.78 0 269.89 0 211.5c0-58.4 23.68-111.28 61.95-149.55C100.22 23.68 153.1 0 211.5 0z"/><path fill="#fff" fill-rule="nonzero" d="M211.5 16.18c53.92 0 102.77 21.87 138.11 57.21l.9.98c34.79 35.26 56.3 83.7 56.3 137.13 0 53.93-21.88 102.77-57.22 138.1l-.98.91c-35.28 34.81-83.73 56.31-137.11 56.31-53.87 0-102.71-21.89-138.06-57.25-35.38-35.3-57.25-84.14-57.25-138.07 0-53.94 21.86-102.78 57.2-138.11 35.34-35.34 84.18-57.21 138.11-57.21z"/><path fill="#B22234" fill-rule="nonzero" d="M198.57 33.18h25.85c92.71 6.63 165.87 83.92 165.87 178.32 0 54.49-24.38 103.26-62.82 136.06H95.53c-38.44-32.8-62.82-81.57-62.82-136.06 0-94.4 73.15-171.69 165.86-178.32z"/><path fill="#fff" fill-rule="nonzero" d="M124 55.55h175a179.998 179.998 0 0 1 35.93 26.6H88.07A179.712 179.712 0 0 1 124 55.55zm230.5 48.63c6.24 8.31 11.78 17.2 16.53 26.54H51.97c4.75-9.34 10.29-18.23 16.53-26.54h286zm25.92 48.65c2.98 8.57 5.34 17.43 6.99 26.52H35.59c1.65-9.09 4-17.95 6.99-26.52h337.84zm9.58 48.64c.18 3.31.29 6.66.29 10.03 0 5.57-.27 11.06-.78 16.51H33.48c-.51-5.45-.77-10.94-.77-16.51 0-3.37.11-6.72.29-10.03h357zm-3.91 48.65c-2.01 9.13-4.7 17.99-8.05 26.53H44.96c-3.35-8.54-6.05-17.4-8.05-26.53h349.18zm-18.57 48.73c-5.23 9.36-11.3 18.22-18.1 26.43H73.57a176.9 176.9 0 0 1-18.09-26.43h312.04z"/><path fill="#3C3B6E" fill-rule="nonzero" d="M200.52 33.18v169.35H32.94c4.46-90.29 75.88-162.94 165.63-169.35h1.95z"/><path fill="#fff" d="M36.44 175.02c1.1-5.31 2.44-10.53 3.99-15.65l1.98 6.15h7.09l-5.76 4.19 2.16 6.71-5.68-4.15-3.78 2.75zm18.61-50.1c2.19-3.96 4.54-7.82 7.02-11.59l.36 1.09h7.14l-5.8 4.18 2.19 6.71-5.71-4.16-5.2 3.77zm17.76-26.26 1.04-1.27h4.26l2.19-6.71 2.18 6.71h7.07l-5.72 4.15 2.2 6.74-5.73-4.16-5.73 4.16 2.2-6.74-3.96-2.88zm38.46-35.23.18-.12h6.71l1.75-5.39.72-.43 1.9 5.82h7.07l-5.72 4.16 2.2 6.74-5.73-4.17-5.73 4.17 2.19-6.74-5.54-4.04zm24.4-13.87c2.44-1.15 4.89-2.24 7.39-3.27h6.61l-5.72 4.15 2.2 6.74-5.75-4.16-5.73 4.16 2.2-6.74-1.2-.88zm46.98 132.99h7.07l-5.72 4.17 2.18 6.73-5.73-4.17-5.73 4.17 2.2-6.73-5.72-4.17h7.08l2.18-6.71 2.19 6.71zm0-34.06h7.07l-5.72 4.16 2.18 6.73-5.73-4.17-5.73 4.17 2.2-6.73-5.72-4.16h7.08l2.18-6.72 2.19 6.72zm0-34.07h7.07l-5.72 4.16 2.18 6.73-5.73-4.17-5.73 4.17 2.2-6.73-5.72-4.16h7.08l2.18-6.72 2.19 6.72zm0-34.06h7.07L184 84.51l2.18 6.72-5.73-4.16-5.73 4.16 2.2-6.72-5.72-4.15h7.07l2.19-6.73 2.19 6.73zm0-34.07h7.07L184 50.44l2.18 6.74-5.73-4.16-5.73 4.16 2.2-6.74-5.72-4.15h7.08l2.18-6.71 2.19 6.71zm-20.07 119.23h7.07l-5.71 4.17 2.19 6.73-5.71-4.15-5.68 4.15 2.16-6.71-5.76-4.19h7.1l2.15-6.72 2.19 6.72zm0-34.06h7.07l-5.71 4.16 2.19 6.72-5.71-4.15-5.68 4.15 2.15-6.7-5.75-4.18h7.1l2.15-6.72 2.19 6.72zm0-34.07h7.07l-5.71 4.18 2.19 6.71-5.71-4.15-5.68 4.15 2.16-6.71-5.76-4.18h7.1l2.15-6.71 2.19 6.71zm0-34.08h7.07l-5.71 4.17 2.19 6.73-5.71-4.15-5.68 4.15 2.16-6.71-5.76-4.19h7.1l2.15-6.71 2.19 6.71zM142.6 182.55h7.07l-5.72 4.15 2.2 6.75-5.75-4.17-5.73 4.17 2.2-6.73-5.72-4.17h7.08l2.19-6.71 2.18 6.71zm0-34.06h7.07l-5.72 4.14 2.2 6.75-5.75-4.17-5.73 4.17 2.2-6.73-5.72-4.16h7.08l2.19-6.72 2.18 6.72zm0-34.07h7.07l-5.72 4.14 2.2 6.75-5.75-4.17-5.73 4.17 2.2-6.73-5.72-4.16h7.08l2.19-6.72 2.18 6.72zm0-34.06h7.07l-5.72 4.15 2.2 6.72-5.75-4.16-5.73 4.16 2.2-6.72-5.72-4.15h7.07l2.2-6.73 2.18 6.73zm-20.07 85.16h7.07l-5.72 4.16 2.2 6.74-5.73-4.18-5.73 4.18 2.19-6.74-5.71-4.16h7.06l2.19-6.72 2.18 6.72zm0-34.06h7.07l-5.71 4.15 2.19 6.73-5.73-4.16-5.73 4.16 2.18-6.73-5.7-4.15h7.06l2.19-6.72 2.18 6.72zm0-34.07h7.07l-5.72 4.15 2.2 6.74-5.73-4.16-5.73 4.16 2.19-6.74-5.71-4.15h7.06l2.19-6.71 2.18 6.71zm-20.02 85.16h7.11l-5.77 4.19 2.16 6.71-5.67-4.14-5.72 4.14 2.19-6.72-5.69-4.18h7.05l2.18-6.71 2.16 6.71zm0-34.06h7.11l-5.77 4.18 2.16 6.71-5.67-4.14-5.72 4.14 2.19-6.72-5.69-4.17h7.05l2.18-6.72 2.16 6.72zm0-34.07h7.11l-5.77 4.18 2.16 6.71-5.67-4.14-5.72 4.14 2.19-6.72-5.69-4.17h7.05l2.18-6.72 2.16 6.72zm0-34.06h7.11l-5.76 4.17 2.15 6.7-5.67-4.15-5.72 4.15 2.19-6.71-5.69-4.16h7.05l2.18-6.73 2.16 6.73zm-20.03 85.16h7.07l-5.72 4.16 2.2 6.74-5.73-4.18-5.73 4.18 2.2-6.75-5.71-4.15h7.05l2.19-6.72 2.18 6.72zm0-34.06h7.07l-5.71 4.15 2.19 6.73-5.73-4.16-5.73 4.16 2.2-6.74-5.71-4.14h7.05l2.19-6.72 2.18 6.72zm-20.05 51.09h7.14l-5.8 4.19 2.19 6.71-5.71-4.16-5.75 4.16 2.2-6.73-5.71-4.17h7.07l2.18-6.71 2.19 6.71zm0-34.06h7.14l-5.8 4.18 2.19 6.71-5.71-4.16-5.75 4.16 2.2-6.73-5.71-4.16h7.07l2.18-6.72 2.19 6.72z"/><path fill="#4D4D4D" fill-rule="nonzero" d="M87.68 325.03H335.3c14.71 0 24.95 11.89 26.91 26.91l20.46 133.11c0 14.71-12.2 26.91-26.91 26.91H67.22c-14.76 0-26.91-12.15-26.91-26.91l20.46-133.11c3.37-15.67 12.87-26.91 26.91-26.91z"/><path fill="#fff" d="M85.79 335.92H337.2c7.77 0 12.99 6.58 14.12 14.13l20.47 136.89c1.13 7.57-6.49 14.13-14.13 14.13H65.33c-7.64 0-15.27-6.44-14.12-14.13l20.45-136.89c1.15-7.69 6.36-14.13 14.13-14.13z"/><path fill="#333" fill-rule="nonzero" d="M128.26 401.41h-9.31v-38.34h11.4l6.22 20.49 6.2-20.49h11.42v38.34h-9.26v-24.37l-4.78 16.07h-7.17l-4.72-15.95v24.25zm50.24 0-1.2-5.73h-9.2l-1.25 5.73h-10.28l9.86-38.34h12.73l9.85 38.34H178.5zm-8.78-13.14h5.97l-2.93-13.79-3.04 13.79zm22.27-25.2h17.63c5.86 0 8.77 2.46 8.77 7.4v23.54c0 4.93-2.91 7.4-8.77 7.4h-17.63v-38.34zm15.95 30.15v-21.98c0-.87-.5-1.3-1.49-1.3h-4v24.61h4c.99 0 1.49-.45 1.49-1.33zm25.51.72h13.09v7.47H223v-38.34h23v7.45h-12.55v7.84h10.81v7.46h-10.81v8.12zm28.32-30.87h10.45v38.34h-10.45v-38.34zm32.72 0h9.56v38.34h-8.96l-8.54-20.13v20.13h-9.56v-38.34h8.97l8.53 20.49v-20.49z"/><path fill="#B22234" fill-rule="nonzero" d="M170.42 422.38h14.64v43.33c0 6.92-4.1 10.37-12.3 10.37h-12.38c-8.2 0-12.3-3.45-12.3-10.37v-43.33h14.64v41.4c0 1.23.7 1.85 2.1 1.85h3.5c1.4 0 2.1-.62 2.1-1.85v-41.4zm41.92 41.4v-7.61c0-1.23-.71-1.83-2.1-1.83h-8.03c-4.12 0-7.04-.92-8.74-2.72-1.7-1.82-2.55-4.43-2.55-7.83v-11.04c0-6.92 4.07-10.37 12.21-10.37h11.46c8.15 0 12.22 3.45 12.22 10.37v6.44h-14.64v-4.52c0-1.23-.7-1.84-2.1-1.84h-2.42c-1.4 0-2.09.61-2.09 1.84v7.95c0 1.22.69 1.84 2.09 1.84h7.87c4.12 0 7.06.86 8.81 2.59 1.76 1.73 2.65 4.27 2.65 7.62v11.04c0 6.92-4.09 10.37-12.22 10.37h-11.37c-8.21 0-12.3-3.45-12.3-10.37v-6.44h14.64v4.51c0 1.23.69 1.85 2.08 1.85h2.43c1.39 0 2.1-.62 2.1-1.85zm47.84 12.3-1.67-8.03h-12.89l-1.75 8.03h-14.39l13.8-53.7h17.82l13.8 53.7h-14.72zm-12.3-18.41h8.36l-4.09-19.32-4.27 19.32z"/></svg>