<svg xmlns="http://www.w3.org/2000/svg" shape-rendering="geometricPrecision" text-rendering="geometricPrecision" image-rendering="optimizeQuality" fill-rule="evenodd" clip-rule="evenodd" viewBox="0 0 427 511.65"><path fill="#4D4D4D" fill-rule="nonzero" d="M213.5 0c58.36 0 111.21 23.67 149.46 61.92 38.25 38.24 61.91 91.09 61.91 149.45 0 58.36-23.66 111.21-61.91 149.46-38.25 38.25-91.1 61.91-149.46 61.91-58.35 0-111.21-23.66-149.45-61.91-38.25-38.25-61.92-91.1-61.92-149.46 0-58.36 23.67-111.21 61.92-149.45C102.29 23.67 155.14 0 213.5 0z"/><path fill="#fff" fill-rule="nonzero" d="M213.51 16.17c53.88 0 102.7 21.85 138.02 57.17l.9.98c34.77 35.24 56.27 83.66 56.27 137.05 0 53.9-21.86 102.71-57.18 138.02l-.98.91c-35.27 34.79-83.69 56.27-137.03 56.27-53.84 0-102.65-21.87-137.98-57.22-35.35-35.27-57.22-84.08-57.22-137.98 0-53.9 21.85-102.71 57.17-138.03 35.32-35.32 84.13-57.17 138.03-57.17z"/><path fill-rule="nonzero" d="M213.51 32.69c98.68 0 178.67 80 178.67 178.68s-79.99 178.69-178.67 178.69c-98.69 0-178.68-80.01-178.68-178.69 0-98.68 79.99-178.68 178.68-178.68z"/><path fill="#D00" fill-rule="nonzero" d="M381.59 150.66H45.42c-6.85 18.96-10.59 39.39-10.59 60.71 0 98.68 79.99 178.69 178.68 178.69 98.68 0 178.67-80.01 178.67-178.69 0-21.32-3.74-41.75-10.59-60.71z"/><path fill="#FFCE00" fill-rule="nonzero" d="M381.59 272.1H45.42c24.86 68.79 90.73 117.96 168.09 117.96 77.35 0 143.23-49.17 168.08-117.96z"/><path fill="#4D4D4D" fill-rule="nonzero" d="M47.34 324.83h332.32c14.7 0 24.93 11.88 26.89 26.89L427 484.76c0 14.7-12.19 26.89-26.9 26.89H26.89C12.14 511.65 0 499.51 0 484.76l20.45-133.04c3.36-15.65 12.86-26.88 26.89-26.89z"/><path fill="#fff" d="M45.45 335.72h336.11c7.76 0 12.99 6.58 14.12 14.12l20.45 136.81c1.12 7.55-6.49 14.12-14.12 14.12h-377c-7.63 0-15.27-6.44-14.12-14.12l20.44-136.81c1.15-7.69 6.35-14.12 14.12-14.12z"/><path fill="#333" fill-rule="nonzero" d="M130.32 400.1h-9.31v-38.33h11.4l6.21 20.48 6.2-20.48h11.41v38.33h-9.25v-24.36l-4.78 16.06h-7.16l-4.72-15.94v24.24zm50.21 0-1.2-5.73h-9.2l-1.25 5.73h-10.27l9.85-38.33h12.72l9.85 38.33h-10.5zm-8.77-13.14h5.96l-2.93-13.78-3.03 13.78zm22.25-25.19h17.61c5.86 0 8.78 2.46 8.78 7.41v23.52c0 4.93-2.92 7.4-8.78 7.4h-17.61v-38.33zm15.94 30.14v-21.96c0-.88-.5-1.31-1.49-1.31h-4v24.6h4c.99 0 1.49-.45 1.49-1.33zm25.5.72h13.07v7.47H225v-38.33h22.99v7.46h-12.54v7.83h10.8v7.45h-10.8v8.12zm28.29-30.86h10.45v38.33h-10.45v-38.33zm32.7 0H306v38.33h-8.95l-8.54-20.12v20.12h-9.55v-38.33h8.96l8.52 20.48v-20.48z"/><path fill="#D00" fill-rule="nonzero" d="M93.03 439.44H78.4v-6.94c0-1.23-.71-1.84-2.1-1.84h-3c-1.4 0-2.1.61-2.1 1.84v30.77c0 1.23.7 1.84 2.1 1.84h3c1.39 0 2.1-.61 2.1-1.84v-8.95h-4.19v-9.28h18.82v19.31c0 6.92-4.11 10.37-12.29 10.37H68.86c-8.19 0-12.29-3.45-12.29-10.37v-32.93c0-6.92 4.1-10.37 12.29-10.37h11.88c8.18 0 12.29 3.45 12.29 10.37v8.02zm21.31 24.83h18.31v10.45H99.71v-53.67h32.18v10.44h-17.55v10.96h15.13v10.45h-15.13v11.37zm38.38-8.61v19.06h-14.63v-53.67h24.83c8.18 0 12.29 3.45 12.29 10.37v13.87c0 5.29-2.41 8.56-7.19 9.78l9.86 19.65h-15.72l-8.53-19.06h-.91zm5.76-24.17h-5.76v14.22h5.76c1.39 0 2.1-.62 2.1-1.83v-10.54c0-1.23-.71-1.85-2.1-1.85zm36.46 43.23H181.9v-53.67h15.97l8.69 28.67 8.7-28.67h15.96v53.67h-12.95v-34.11l-6.69 22.49h-10.04l-6.6-22.32v33.94zm71.16 0-1.68-8.03h-12.88l-1.75 8.03h-14.38l13.79-53.67h17.81l13.8 53.67H266.1zm-12.3-18.4h8.36l-4.09-19.31-4.27 19.31zm55.68-35.27h13.38v53.67h-12.54l-11.95-28.18v28.18h-13.38v-53.67h12.54l11.95 28.67v-28.67zm46.99 53.67h-14.63v-17.39l-14.8-36.28h14.97l7.02 22.66 6.52-22.66h14.88l-13.96 36.11v17.56z"/></svg>