<svg xmlns="http://www.w3.org/2000/svg" shape-rendering="geometricPrecision" text-rendering="geometricPrecision" image-rendering="optimizeQuality" fill-rule="evenodd" clip-rule="evenodd" viewBox="0 0 423 511.96"><path fill="#4D4D4D" fill-rule="nonzero" d="M211.5 0c58.4 0 111.28 23.68 149.55 61.95C399.32 100.22 423 153.1 423 211.5c0 58.4-23.68 111.28-61.95 149.55C322.78 399.32 269.9 423 211.5 423c-58.39 0-111.28-23.68-149.55-61.95C23.68 322.78 0 269.89 0 211.5c0-58.4 23.68-111.28 61.95-149.55C100.22 23.68 153.1 0 211.5 0z"/><path fill="#fff" fill-rule="nonzero" d="M211.5 16.18c53.91 0 102.77 21.87 138.11 57.21l.9.98c34.79 35.26 56.3 83.7 56.3 137.13 0 53.93-21.88 102.77-57.22 138.1l-.98.91c-35.29 34.81-83.73 56.31-137.11 56.31-53.87 0-102.71-21.89-138.06-57.25-35.38-35.3-57.25-84.14-57.25-138.07 0-53.94 21.86-102.78 57.2-138.11 35.34-35.34 84.18-57.21 138.11-57.21z"/><path fill="#CE1126" fill-rule="nonzero" d="M211.5 32.71c98.74 0 178.78 80.04 178.78 178.79 0 98.74-80.04 178.79-178.78 178.79S32.71 310.24 32.71 211.5c0-98.75 80.05-178.79 178.79-178.79z"/><path fill="#fff" fill-rule="nonzero" d="M301.3 366.12V56.87c-26.39-15.37-57.07-24.16-89.8-24.16-98.74 0-178.79 80.04-178.79 178.79 0 98.74 80.05 178.79 178.79 178.79 32.73 0 63.41-8.81 89.8-24.17z"/><path fill="#002654" fill-rule="nonzero" d="M121.7 366.13V56.86C68.48 87.83 32.71 145.49 32.71 211.5c0 66 35.77 123.65 88.99 154.63z"/><path fill="#4D4D4D" fill-rule="nonzero" d="M68.77 325.03h285.47c14.71 0 24.94 11.89 26.91 26.91l20.46 133.11c0 14.71-12.2 26.91-26.91 26.91H48.31c-14.76 0-26.91-12.15-26.91-26.91l20.46-133.11c3.37-15.67 12.87-26.91 26.91-26.91z"/><path fill="#fff" d="M66.87 335.92h289.26c7.77 0 13 6.58 14.12 14.13l20.47 136.89c1.13 7.56-6.49 14.13-14.13 14.13H46.41c-7.63 0-15.27-6.44-14.12-14.13l20.45-136.89c1.15-7.69 6.36-14.13 14.13-14.13z"/><path fill="#333" fill-rule="nonzero" d="M128.27 400.34h-9.31v-38.35h11.41l6.21 20.49 6.2-20.49h11.42v38.35h-9.26v-24.37l-4.77 16.06H133l-4.73-15.94v24.25zm50.24 0-1.2-5.73h-9.2l-1.25 5.73h-10.28l9.86-38.35h12.73l9.85 38.35h-10.51zm-8.78-13.15h5.97l-2.93-13.79-3.04 13.79zm22.27-25.2h17.63c5.86 0 8.77 2.46 8.77 7.41v23.54c0 4.93-2.91 7.4-8.77 7.4H192v-38.35zm15.95 30.16v-21.98c0-.87-.5-1.31-1.49-1.31h-4v24.61h4c.99 0 1.49-.44 1.49-1.32zm25.51.72h13.09v7.47h-23.54v-38.35h23v7.46h-12.55v7.84h10.81v7.46h-10.81v8.12zm28.32-30.88h10.45v38.35h-10.45v-38.35zm32.72 0h9.56v38.35h-8.96l-8.54-20.13v20.13h-9.55v-38.35h8.96l8.53 20.49v-20.49z"/><path fill="#002153" fill-rule="nonzero" d="M119.52 431.76h-17.56v13.05h15.22v9.62h-15.22v20.58H87.32V421.3h32.2v10.46zm20.08 24.17v19.08h-14.64V421.3h24.85c8.19 0 12.3 3.46 12.3 10.38v13.88c0 5.3-2.41 8.57-7.2 9.79l9.86 19.66h-15.72l-8.53-19.08h-.92zm5.77-24.17h-5.77v14.22h5.77c1.39 0 2.1-.62 2.1-1.83V433.6c0-1.23-.71-1.84-2.1-1.84zm50.79 43.25-1.67-8.03H181.6l-1.75 8.03h-14.39l13.8-53.71h17.82l13.8 53.71h-14.72zm-12.3-18.41h8.36l-4.09-19.32-4.27 19.32zm55.71-35.3h13.39v53.71h-12.55l-11.96-28.2v28.2h-13.38V421.3h12.54l11.96 28.69V421.3zm56.89 20.08h-14.64v-8.62c0-1.23-.69-1.84-2.09-1.84h-2.92c-1.4 0-2.09.61-2.09 1.84v30.79c0 1.23.69 1.84 2.09 1.84h2.92c1.4 0 2.09-.61 2.09-1.84v-8.28h14.64v9.36c0 6.93-4.09 10.38-12.3 10.38h-11.79c-8.2 0-12.29-3.45-12.29-10.38v-32.95c0-6.92 4.09-10.38 12.29-10.38h11.79c8.21 0 12.3 3.46 12.3 10.38v9.7zm20.92 23.18h18.32v10.45h-32.96V421.3h32.2v10.46h-17.56v10.96h15.14v10.45h-15.14v11.39z"/></svg>