<svg xmlns="http://www.w3.org/2000/svg" shape-rendering="geometricPrecision" text-rendering="geometricPrecision" image-rendering="optimizeQuality" fill-rule="evenodd" clip-rule="evenodd" viewBox="0 0 423 511.96"><path fill="#4D4D4D" fill-rule="nonzero" d="M211.5 0c58.4 0 111.28 23.68 149.55 61.95C399.32 100.22 423 153.1 423 211.5c0 58.4-23.68 111.28-61.95 149.55C322.78 399.32 269.9 423 211.5 423c-58.39 0-111.28-23.68-149.55-61.95C23.68 322.78 0 269.89 0 211.5c0-58.4 23.68-111.28 61.95-149.55C100.22 23.68 153.1 0 211.5 0z"/><path fill="#fff" fill-rule="nonzero" d="M211.5 16.18c53.94 0 102.78 21.87 138.11 57.21 35.34 35.33 57.21 84.18 57.21 138.11 0 53.93-21.88 102.77-57.22 138.11l-.98.9c-35.29 34.81-83.73 56.31-137.12 56.31-53.91 0-102.77-21.87-138.1-57.21-35.34-35.34-57.22-84.2-57.22-138.11 0-53.87 21.89-102.71 57.25-138.06 35.3-35.38 84.14-57.26 138.07-57.26z"/><path fill="#fff" fill-rule="nonzero" d="M211.5 32.71c98.75 0 178.79 80.04 178.79 178.79 0 98.74-80.04 178.8-178.79 178.8-98.74 0-178.8-80.06-178.8-178.8 0-98.75 80.06-178.79 178.8-178.79z"/><path fill="#BC002D" fill-rule="nonzero" d="M294.34 210.61c0-45.74-37.07-82.82-82.81-82.82s-82.8 37.08-82.8 82.82c0 45.72 37.06 82.8 82.8 82.8 45.74 0 82.81-37.08 82.81-82.8z"/><path fill="#4D4D4D" fill-rule="nonzero" d="M79.85 325.03h263.3c14.72 0 24.95 11.89 26.92 26.91l20.46 133.11c0 14.71-12.2 26.91-26.91 26.91H59.39c-14.76 0-26.91-12.15-26.91-26.91l20.47-133.11c3.36-15.67 12.86-26.91 26.9-26.91z"/><path fill="#fff" d="M77.95 335.92h267.1c7.77 0 12.99 6.58 14.12 14.13l20.47 136.9c1.13 7.56-6.49 14.12-14.13 14.12H57.49c-7.64 0-15.27-6.43-14.12-14.12l20.45-136.9c1.15-7.69 6.36-14.13 14.13-14.13z"/><path fill="#333" fill-rule="nonzero" d="M128.27 400.34h-9.32V362h11.41l6.22 20.49 6.2-20.49h11.42v38.34h-9.26v-24.37l-4.78 16.07h-7.17l-4.72-15.95v24.25zm50.24 0-1.21-5.73h-9.19l-1.26 5.73h-10.27l9.85-38.34h12.73l9.85 38.34h-10.5zm-8.78-13.14h5.97l-2.94-13.79-3.03 13.79zM192 362h17.62c5.86 0 8.78 2.46 8.78 7.4v23.54c0 4.93-2.92 7.4-8.78 7.4H192V362zm15.95 30.15v-21.98c0-.87-.5-1.31-1.5-1.31h-4v24.62h4c1 0 1.5-.45 1.5-1.33zm25.51.72h13.08v7.47h-23.53V362h23v7.45h-12.55v7.84h10.81v7.46h-10.81v8.12zM261.77 362h10.46v38.34h-10.46V362zm32.72 0h9.57v38.34h-8.96l-8.55-20.13v20.13H277V362h8.96l8.53 20.49V362z"/><path fill="#BC002D" fill-rule="nonzero" d="M104.01 453.52h14.64v9.19c0 1.23.69 1.85 2.09 1.85h.92c1.4 0 2.09-.62 2.09-1.85V421.3h14.64v43.34c0 6.92-4.09 10.37-12.29 10.37h-9.79c-8.21 0-12.3-3.45-12.3-10.37v-11.12zm68.94 21.49-1.68-8.03h-12.88l-1.76 8.03h-14.39l13.8-53.71h17.82l13.81 53.71h-14.72zm-12.3-18.41h8.36l-4.1-19.32-4.26 19.32zm31.2-35.3h24.85c8.19 0 12.3 3.46 12.3 10.38v15.39c0 6.92-4.11 10.37-12.3 10.37h-10.21v17.57h-14.64V421.3zm22.51 23.84V433.6c0-1.23-.71-1.84-2.1-1.84h-5.77v15.23h5.77c1.39 0 2.1-.62 2.1-1.85zm47.86 29.87-1.68-8.03h-12.89l-1.75 8.03h-14.39l13.8-53.71h17.82l13.81 53.71h-14.72zm-12.3-18.41h8.36l-4.1-19.32-4.26 19.32zm55.71-35.3h13.38v53.71h-12.54l-11.96-28.19v28.19h-13.39V421.3h12.55l11.96 28.7v-28.7z"/></svg>