<?xml version="1.0" encoding="UTF-8"?>
<!DOCTYPE svg PUBLIC "-//W3C//DTD SVG 1.1//EN" "http://www.w3.org/Graphics/SVG/1.1/DTD/svg11.dtd">
<!-- Creator: CorelDRAW 2021 (64-Bit) -->
<svg xmlns="http://www.w3.org/2000/svg" xml:space="preserve" width="512px" height="293px" version="1.1" shape-rendering="geometricPrecision" text-rendering="geometricPrecision" image-rendering="optimizeQuality" fill-rule="evenodd" clip-rule="evenodd"
viewBox="0 0 512 293.39"
 xmlns:xlink="http://www.w3.org/1999/xlink"
 xmlns:xodm="http://www.corel.com/coreldraw/odm/2003">
 <g id="Layer_x0020_1">
  <metadata id="CorelCorpID_0Corel-Layer"/>
  <path fill="black" d="M135.88 144.42c80.08,0 160.16,0 240.24,0 0.79,0 1.43,0.64 1.43,1.43l0 20.5c0,0.79 -0.66,1.44 -1.43,1.44 -36.7,0 -73.39,0 -110.09,0l0 123.71c0,1.04 -0.85,1.89 -1.89,1.89l-0.02 0 -0.04 0 -16.16 0 -0.04 0 -0.02 0c-1.04,0 -1.89,-0.85 -1.89,-1.89l0 -123.71 -110.09 0c-0.77,0 -1.43,-0.65 -1.43,-1.44l0 -20.5c0,-0.79 0.64,-1.43 1.43,-1.43zm195.86 -21.11c3.89,0 7.05,3.16 7.05,7.06 0,3.89 -3.16,7.05 -7.05,7.05l-52.06 0c-3.44,0 -6.3,-2.46 -6.93,-5.71l-13.32 -53.03c-0.95,-3.77 1.35,-7.6 5.12,-8.54 3.77,-0.95 7.6,1.35 8.54,5.12l12.08 48.05 46.57 0zm167.03 144.86c-0.12,-0.98 -0.56,-1.94 -1.32,-2.7 -5.57,-5.61 -12.62,-10.19 -20.64,-13.32 -5.63,-2.2 -11.73,-3.69 -18.13,-4.32l1.22 -19.18 43.66 0c4.54,0 8.27,-3.72 8.27,-8.27 0,-34.26 -8.07,-60.02 0,-99.04 2.39,-11.56 -21.46,-13.23 -21.46,0.61l0 87.81 -82.56 0c-4.55,0 -8.28,6.07 -8.28,10.62l0 6.45c0,1 0.83,1.82 1.83,1.82l43.8 0 1.71 18.98c-6.79,0.44 -13.27,1.83 -19.24,4.02 -7.68,2.8 -14.51,6.91 -20.06,11.98 -1.33,1.21 -1.8,3.01 -1.38,4.64 -2.15,1.6 -3.53,4.16 -3.53,7.05 0,4.86 3.93,8.8 8.79,8.8 4.86,0 8.8,-3.94 8.8,-8.8 0,-2.91 -1.41,-5.48 -3.58,-7.09 4.11,-3.2 8.89,-5.84 14.15,-7.76 5.66,-2.07 11.88,-3.32 18.46,-3.55l0.97 9.51 0.04 0.41c-3.72,1.03 -6.44,4.44 -6.44,8.48 0,4.86 3.94,8.8 8.8,8.8 4.86,0 8.8,-3.94 8.8,-8.8 0,-4.02 -2.7,-7.4 -6.37,-8.46l0.03 -0.44 0.68 -9.4c6.28,0.42 12.21,1.77 17.61,3.87l0.01 0c5.27,2.05 10.02,4.82 14.06,8.16 -1.62,1.59 -2.63,3.81 -2.63,6.27 0,4.86 3.94,8.8 8.8,8.8 4.86,0 8.8,-3.94 8.8,-8.8 0,-2.94 -1.45,-5.55 -3.67,-7.15zm-70.44 -268.17c-18.6,0 -33.67,15.08 -33.67,33.67 0,18.6 15.07,33.68 33.67,33.68 18.6,0 33.67,-15.08 33.67,-33.68 0,-18.59 -15.07,-33.67 -33.67,-33.67zm-14 132.08l0.64 39.93 -41.8 0c-8.86,0 -16.1,7.25 -16.1,16.1l0 16.1 0.17 0 0 62.93c0,8.84 7.24,16.09 16.09,16.09l16.1 0 0 -74.4c0,-7.05 2.65,-4.62 10.63,-4.62l35.93 0 0 -0.11 20.64 0c13.31,0 24.21,-10.89 24.21,-24.2l0 -83.96c0,-13.55 -11.08,-24.62 -24.62,-24.62l-12.18 0c-25.36,0 -21.31,17.46 -32.54,28.43 -11.07,10.83 -8.29,12.08 -23.41,12.08l-32.62 0c-27,0 -12.48,26.25 3.5,25.44l29.89 0c13.33,0 14.45,2.13 25.47,-5.19zm-234.07 5.34c-3.89,0 -7.05,-3.16 -7.05,-7.05 0,-3.9 3.16,-7.06 7.05,-7.06l46.57 0 12.08 -48.05c0.94,-3.77 4.77,-6.07 8.54,-5.12 3.77,0.94 6.07,4.77 5.12,8.54l-13.32 53.03c-0.63,3.25 -3.49,5.71 -6.93,5.71l-52.06 0zm-167.03 130.75c0.12,-0.98 0.56,-1.94 1.32,-2.7 5.57,-5.61 12.62,-10.19 20.64,-13.32 5.63,-2.2 11.73,-3.69 18.13,-4.32l-1.22 -19.18 -43.66 0c-4.54,0 -8.27,-3.72 -8.27,-8.27 0,-34.26 8.07,-60.02 0,-99.04 -2.39,-11.56 21.46,-13.23 21.46,0.61l0 87.81 82.56 0c4.55,0 8.28,6.07 8.28,10.62l0 6.45c0,1 -0.83,1.82 -1.83,1.82l-43.8 0 -1.71 18.98c6.79,0.44 13.27,1.83 19.24,4.02 7.68,2.8 14.51,6.91 20.06,11.98 1.33,1.21 1.8,3.01 1.38,4.64 2.15,1.6 3.53,4.16 3.53,7.05 0,4.86 -3.93,8.8 -8.79,8.8 -4.86,0 -8.8,-3.94 -8.8,-8.8 0,-2.91 1.41,-5.49 3.58,-7.09 -4.11,-3.2 -8.89,-5.84 -14.15,-7.76 -5.66,-2.07 -11.88,-3.32 -18.46,-3.55l-0.97 9.51 -0.04 0.41c3.72,1.03 6.44,4.44 6.44,8.48 0,4.86 -3.94,8.8 -8.8,8.8 -4.86,0 -8.8,-3.94 -8.8,-8.8 0,-4.02 2.7,-7.41 6.37,-8.46l-0.03 -0.45 -0.68 -9.39c-6.28,0.42 -12.21,1.77 -17.61,3.87l-0.01 0c-5.27,2.05 -10.02,4.82 -14.06,8.16 1.62,1.59 2.63,3.81 2.63,6.27 0,4.86 -3.94,8.8 -8.8,8.8 -4.86,0 -8.8,-3.94 -8.8,-8.8 0,-2.94 1.45,-5.55 3.67,-7.15zm70.44 -268.17c18.6,0 33.67,15.08 33.67,33.67 0,18.6 -15.07,33.68 -33.67,33.68 -18.6,0 -33.67,-15.08 -33.67,-33.68 0,-18.59 15.07,-33.67 33.67,-33.67zm14 132.08l-0.64 39.93 41.8 0c8.86,0 16.1,7.25 16.1,16.1l0 16.1 -0.17 0 0 62.93c0,8.84 -7.24,16.09 -16.09,16.09l-16.1 0 0 -74.4c0,-7.05 -2.65,-4.62 -10.63,-4.62l-35.93 0 0 -0.11 -20.64 0c-13.31,0 -24.21,-10.89 -24.21,-24.2l0 -83.96c0,-13.55 11.08,-24.62 24.62,-24.62l12.18 0c25.36,0 21.31,17.46 32.54,28.43 11.07,10.83 8.29,12.08 23.41,12.08l32.62 0c27,0 12.48,26.25 -3.5,25.44l-29.89 0c-13.33,0 -14.45,2.13 -25.47,-5.19z"/>
 </g>
</svg>
