<svg xmlns="http://www.w3.org/2000/svg" shape-rendering="geometricPrecision" text-rendering="geometricPrecision" image-rendering="optimizeQuality" fill-rule="evenodd" clip-rule="evenodd" viewBox="0 0 512 315.52"><path d="M12.85 291.11h28.73c-4.48-1.16-7.85-5.3-7.85-10.12V10.45C33.73 4.72 38.45 0 44.18 0h420.89c5.73 0 10.45 4.72 10.45 10.45v270.5c0 4.86-3.32 8.95-7.85 10.11h31.48v.05h.64c6.72 0 12.21 5.49 12.21 12.21 0 6.71-5.52 12.2-12.21 12.2H12.21c-6.69 0-12.21-5.49-12.21-12.2 0-6.72 5.49-12.21 12.21-12.21h.64zm361.91-128.17c4.59 2.63 8.46 6.81 10.76 12.51 1.07 2.62 1.8 5.58 2.12 8.9-.04 8 1.24 19.26 4.71 27.49 2.5 5.93 6.15 10.3 11.22 10.71.21.01.37.2.35.41l-.02.11c-.96 2.63-5.24 4.61-10.38 5.55 13.23 4.33 23.03 12.94 23.03 29.34 0 .74-.6 1.35-1.34 1.35H310.29c-.74 0-1.35-.61-1.35-1.35 0-15.42 9.11-24.64 21.82-29.07-4.52-1.06-8.22-3.19-9.16-5.84-.07-.2.03-.42.23-.48l.1-.02c4.36-.36 7.36-2.83 9.39-6.35 2.06-3.6 3.16-8.33 3.7-13.14.29-2.54.47-5.2.64-7.89.85-13.27 1.78-27.59 16.85-33.67 2.29-.93 4.71-1.51 7.14-1.75 5.2-.51 10.52.57 15.11 3.19zM156.32 82.88c-5.26 9.61-21.02 10.35-28.26.66l-.04.01c2.27-.81 3.93-1.96 4.47-3.5 2.81 1.95 5.9 3.1 9.12 3.1 3.71 0 7.39-1.55 10.69-4.09.37 1.62 1.87 2.89 4.02 3.82zm-35.89 2.02c-5.41 1.16-10.5 2.72-13.96 4.75-8.07 4.72-7.64 7.4-9.58 16.46-.96 4.5-1.94 8.97-1.87 13.52h19.51v-4.59c0-.69.56-1.25 1.25-1.25.68 0 1.24.56 1.24 1.25v4.59h51.09v-4.59c0-.69.56-1.25 1.24-1.25.69 0 1.25.56 1.25 1.25v4.59h19.82c-.05-3.86-1.05-7.23-1.63-10.85-1.52-9.47-1.53-14.36-10.5-19.07-3.99-2.1-9.74-3.74-15.35-5.19 8.28 1.04 18.54-.56 19.89-4.39-12.16-.99-15.98-19.67-15.9-33.26-1.96-20.01-19.92-27.57-33.8-21.95-17.49 7.06-15.19 22.52-16.85 37.05-1.09 9.49-4.32 17.44-13.13 18.16 1.24 3.48 9.72 5.19 17.28 4.77zm27.2-47.01c-8.17 8.27-16.79 11.51-25.88 13.8-.13 1.09-.09.33-.09 1.46 0 12.5 9.43 27.51 19.95 27.51s21.17-15.01 21.17-27.51c0-2.43-.29-3.4-.89-5.59-7.94-.09-11.04-4.09-14.26-9.67zm9.05 186.75c3.76-3.53 6.64-6.26 6.76-12.15l.52.06c1.16.06 1.92-.13 2.54-.62.58-.47.85-1.06 1.15-1.87l1.9-5.36c.38-1.44.37-2.63.08-3.55-.31-.96-.92-1.65-1.7-2.07-.72-.38-1.58-.53-2.46-.46-.44.04-.91.12-1.38.27l.07-.59c11.94-10.01 5.95-33.8-9.03-34.58-12.41-15.78-28.96-6.13-43.31 11.6 7.58 2.3 5.94 14.42 6.5 21.4l1.04.69c-5.22-.15-3.94 8.82-2.8 11.55l.02.07c.52 1.21 1.3 2.29 2.4 2.91.81.46 1.58.58 2.5.56.59 6.5 3.69 9.16 7.38 12.35l1.42 1.23.16.15c-2.93 9.96-11.53 11.07-20.05 12.17-11.65 1.49-23.22 2.98-23.22 23.36 0 .78.65 1.43 1.43 1.43l108.24-.47c.78 0 1.41-.64 1.43-1.42 0-19.49-10.91-21.52-22.01-23.58-8.22-1.52-16.57-3.08-19.58-13.08zm-17.42 3.47c1.81.37 3.7.41 5.51.17 1.24-.16 2.45-.45 3.56-.84l.02-.01c1.67-.78 3.3-1.92 4.88-3.44l.74-.71.05-.05.15-.14.05-.04.45-.43c3.68-3.45 6.37-5.99 5.86-12.14-.02-.3.05-.62.22-.89.43-.65 1.32-.84 1.97-.42l.73.38.69.17.58-.01 2.07-5.76c.24-.88.26-1.52.13-1.93a.738.738 0 0 0-.34-.44c-.21-.11-.53-.15-.88-.12-.8.06-1.75.45-2.56 1.07-.3.22-.69.33-1.09.26-.77-.12-1.3-.87-1.17-1.64 1.34-7.82.72-12.92-.94-16.4-1.46-3.04-3.79-4.89-6.32-6.27-5.6 4.29-9.56 4.79-13.49 5.27-3.23.39-6.46.8-10.72 3.71l-.09.07c-2.04 1.41-3.4 3.12-4.1 5.09-.72 2.03-.77 4.41-.18 7.1a1.422 1.422 0 0 1-1.88 1.66l-1.31-.48c-1.67-.58-2.86-.84-3.32.21l-.08 3.41c.05.98.27 2.25.71 3.32l.04.08c.29.68.69 1.26 1.18 1.55.74.42 1.61.07 2.39-.06.78-.02 1.44.6 1.45 1.38.16 6.45 3.03 8.92 6.51 11.92l1.44 1.25c2.29 2.04 4.66 3.43 7.04 4.14l.03.01h.02zm15.24-1.03-.34.29c-4.55 5.4-16.19 5.53-21.07 1.26l-.37-.24-.22.59c-1.3 4.56-4.29 7.75-8.62 9.86 13.05 7.97 25.93 7.73 38.6-1.66-4.72-2.15-7.18-5.52-7.89-9.85l-.09-.25zM334.82 41.13c13.17-16.27 28.34-25.12 39.73-10.65 13.1.69 18.71 20.57 9.7 30.37.65-.01 1.27.12 1.79.42.68.37 1.2.98 1.47 1.84.25.85.25 1.96-.12 3.33l-.51 1.92c-.59 2.59-1.28 5.43-4.23 5.27l-.47-.05c-.12 5.41-2.76 7.9-6.22 11.15.93 1.36 1.87 2.71 2.97 3.98l.01-.01c5.85 5.27 20.93 6.32 27.37 9.92 2.04 1.13 3.88 2.58 5.36 4.54 3.7 4.89 4.3 7.82 5.04 13.72.1.41.16.81.16 1.22 0 .81-.67 1.47-1.48 1.47H310.11c-.81 0-1.48-.66-1.48-1.47 0-.41.07-.83.16-1.24.75-5.89 1.35-8.82 5.05-13.7 1.48-1.96 3.32-3.4 5.36-4.54 6.23-3.48 20.43-4.58 26.77-9.42.4-.68.81-1.53 1.21-2.44.51-1.17.99-2.43 1.39-3.5-2.51-2.33-4.45-4.85-4.88-9.66h-.3a4.17 4.17 0 0 1-2-.52c-1.38-.79-2.15-2.3-2.52-4.02-.46-2.18-.31-4.78-.08-6.41l.06-.25c.49-1.41 1.1-2.16 1.88-2.47-.34-6.5.75-16.78-5.91-18.8zm39.5 45.17c-3.43 3.19-7.16 4.74-10.94 4.74-3.96-.01-7.94-1.7-11.63-4.98l-1.29-1.13-.09-.08c-.34.91-.73 1.88-1.14 2.81-.55 1.26-1.14 2.45-1.72 3.31 6.21 12.6 24.58 13.04 30.54.07-1.49-1.51-2.62-3.13-3.73-4.74zm-1.54-43.63c-3 3.02-6.19 3.9-9.31 4.16-.91.17-1.8.28-2.68.38-2.98.37-5.97.75-9.92 3.48-1.87 1.29-3.13 2.87-3.77 4.7-.64 1.85-.67 4.03-.14 6.5.05.24.04.49-.05.73-.25.67-1 1.02-1.68.77l-1.57-.57c-1.19-.41-1.95-.53-2.31.33-.19 1.43-.3 3.6.07 5.36.23 1.05.62 1.94 1.25 2.3.23.12.49.18.75.19.32 0 .7-.07 1.09-.19l.36-.06c.71-.01 1.32.56 1.33 1.27.15 5.91 2.78 8.18 5.97 10.93l1.32 1.15c3.21 2.85 6.59 4.33 9.89 4.33 3.22-.01 6.43-1.42 9.42-4.3l1.36-1.29c3.35-3.15 5.81-5.47 5.34-11.1-.02-.28.05-.57.21-.82.39-.6 1.2-.77 1.81-.38l.7.36.53.13c.82.04 1.24-1.68 1.59-3.25l.53-2.02c.24-.87.26-1.49.14-1.89l-.23-.32c-.15-.08-.39-.12-.66-.09-.66.06-1.45.4-2.19.95-.28.23-.65.34-1.04.28-.7-.12-1.18-.8-1.06-1.51 1.23-7.17.66-11.86-.87-15.05-1.33-2.79-3.47-4.49-5.79-5.75l-.39.29zm10.98 186.38c-1.38-.14-2.72-.35-3.97-.66-1.49-.37-2.85-.88-4.01-1.54l-.07-.04c-2.7-1.37-4.36-2.75-4.15-6.83-2.91 2.27-5.9 3.44-8.95 3.46-3.01.03-6.09-1.05-9.26-3.24-.3 7.03-4.65 7.78-9.99 8.7l-.12.03c-.78.21-1.57.36-2.39.48-.67.1-1.36.16-2.05.2-.99.16-1.99.33-2.98.55 8.78 8.53 17.62 13.3 26.52 13.56 8.91.27 18.03-3.99 27.36-13.51-2-.47-4.02-.81-5.94-1.16zm-21.5-7.96c3.56.14 7.81-1.22 12.4-6.08 2.86-3.17 5.26-6.52 6.98-10.47 1.15-5.42 1.21-11.12 0-17.15-5.54-2.57-9.16-8.21-11.01-16.69-2.22 16.14-22.04 15.45-27.03 18.38 0 4.31-.31 7.86.05 11.39.99 9.5 8.21 20.18 18.61 20.62zM277.13 11.57v11.37c0 2.03-1.69 3.72-3.73 3.72h-13.11V139.7H463.9V11.57H277.13zm-25.42 15.09h-13.1c-2.04 0-3.73-1.68-3.73-3.73V11.57H46.8V139.7h204.91V26.66zM256 12.62c2.18 0 3.95 1.77 3.95 3.95s-1.77 3.95-3.95 3.95-3.95-1.77-3.95-3.95 1.77-3.95 3.95-3.95zm207.9 135.66H260.29v132.39H463.9V148.28zM251.71 280.67V148.28H46.8v132.39h204.91z"/></svg>