<svg xmlns="http://www.w3.org/2000/svg" shape-rendering="geometricPrecision" text-rendering="geometricPrecision" image-rendering="optimizeQuality" fill-rule="evenodd" clip-rule="evenodd" viewBox="0 0 426 511.48"><path d="M104.07 355.71c12.55 0 22.71 10.17 22.71 22.7 0 12.55-10.18 22.7-22.71 22.7-12.55 0-22.7-10.17-22.7-22.7s10.17-22.7 22.7-22.7zm234.28-19.52c48.4 0 87.65 39.25 87.65 87.65 0 48.39-39.25 87.64-87.65 87.64-48.39 0-87.64-39.25-87.64-87.64 0-48.4 39.25-87.65 87.64-87.65zm-11.05 42.64h14.05c2.11 0 3.84 1.73 3.84 3.85v41.95h38.07a3.85 3.85 0 0 1 3.84 3.85v14.05c0 2.11-1.72 3.84-3.84 3.84h-59.81v-63.69c0-2.12 1.73-3.85 3.85-3.85zM27.95 481.46C12.64 481.46 0 468.81 0 453.51V96.08c0-15.39 12.61-27.99 28-27.99h45.05v-8.81c0-10.3 8.51-18.75 18.8-18.75h30.57V20.79C122.42 9.45 131.75 0 143.11 0H250.4c11.43 0 20.78 9.38 20.78 20.79v19.79h26.35c10.3 0 18.79 8.56 18.79 18.85v8.8h45.06c15.34 0 27.99 12.59 27.99 27.94v220.8l-.34-.17-.35-.16-.35-.16-.03-.02-.31-.15-.35-.16-.35-.16-.29-.13-.06-.02-.35-.16-.35-.16-.35-.16-.21-.09-.14-.06-.34-.15-.36-.15-.35-.15-.13-.06-.22-.09-.36-.15-.35-.15-.36-.14-.04-.02-.31-.13-.36-.14-.35-.15-.32-.12-.04-.01-.36-.14-.36-.14-.36-.14-.22-.09-.14-.05-.35-.14-.36-.13-.36-.13-.15-.06-.22-.07-.36-.14-.36-.13-.36-.13-.06-.02-.67-.23-.37-.13-.33-.11-.03-.01-.37-.12-.37-.12-.36-.13-.25-.08-.12-.04-.37-.11-.36-.12-.38-.12-.15-.05-.21-.06-.38-.11-.36-.12-.37-.11-.07-.02-.31-.09-.37-.11-.37-.11-.36-.1-.01-.01-.38-.1-.38-.11-2.25-.6-.38-.1-.37-.09-.38-.09-.08-.02-.3-.08V94.11c0-1.62-1.21-2.82-2.82-2.82l-47.03-.01v15.32c0 10.28-8.57 18.75-18.84 18.75H91.8c-10.3 0-18.75-8.51-18.75-18.79V91.23H25.98c-1.55 0-2.83 1.29-2.83 2.83v361.32c0 1.56 1.31 2.88 2.88 2.88l199 .05.11.38.09.28.03.1.12.37.12.38.12.38.05.16.07.22.13.37.12.38.13.37.01.03.12.35.13.37.13.38.1.28.03.09.13.37.14.37.13.37.05.16.09.21.14.38.13.36.14.37.01.03.13.34.14.37.15.36.1.28.04.09.14.37.16.36.14.37.07.15.08.21.15.36.15.36.16.37.01.03.14.33.16.36.15.36.12.27.04.09.16.36.15.36.17.36.06.15.1.21.16.35.17.36.16.35.02.03.15.33.17.35.17.36.12.26.04.09.17.35.18.35.17.35.07.15.1.2.18.35.18.35.18.35.01.02.16.33.18.34.18.35.14.26.05.09.18.34.18.34.19.35.08.14.11.2.18.34.19.34.19.35c-96.12-.01-206.93-.01-206.93.05zm236.29-417.9c-7.92 0-16.63-4.18-16.63-13.2V23.23H145.92v27.13c0 8.35-7.93 13.2-15.57 13.2H97.01v40.58h195.35V63.56h-28.12zm-81.36 250.69H114.2v26.89H93.94v-37c0-5.6 4.54-10.14 10.13-10.14h78.25l-.32-31.37c-4.03-1.19-8.12-2.77-11.75-4.91l-6.29 6.94c-2.31 2.38-6.19 2.52-8.68.32l-9.24-8.66c-2.43-2.4-2.82-6.05-.35-8.57l6.92-7.47c-2.19-3.82-3.77-7.57-4.99-11.81l-9.23.38c-3.37.12-6.23-2.5-6.36-5.86l-.5-12.68c-.12-3.45 2.39-6.23 5.86-6.36l10.1-.39c1.16-4.05 2.76-8.17 4.91-11.81l-6.83-6.29c-2.54-2.37-2.71-6.13-.35-8.69l8.5-9.24c2.4-2.45 6.02-2.81 8.57-.36l7.59 6.9c3.78-2.25 7.42-3.76 11.64-4.98l-.37-9.24c-.12-3.37 2.5-6.23 5.86-6.36l12.68-.48c3.44-.12 6.23 2.4 6.35 5.87l.39 10.09c4.11 1.21 8.05 2.73 11.75 4.91l6.29-6.81c2.37-2.54 6.13-2.71 8.69-.35l.13.1 9.25 8.5c2.44 2.41 2.8 6.03.34 8.57l-6.89 7.6c2.2 3.82 3.72 7.45 4.97 11.68l9.25-.37c3.37-.13 6.22 2.5 6.36 5.86l.49 12.67c.13 3.45-2.39 6.24-5.86 6.36l-10.09.39c-1.19 4.03-2.77 8.12-4.91 11.75l6.93 6.29c2.44 2.35 2.49 6.11.33 8.67l-8.67 9.27c-2.24 2.53-6.13 2.7-8.56.35l-7.48-6.92c-3.81 2.19-7.57 3.76-11.8 4.97l.31 31.5h78.06c5.59 0 10.13 4.54 10.13 10.14v9.34l-.33.13-.1.04-.23.09-.33.13-.33.14-.34.13-.11.05-.22.09-.33.14-.33.13-.33.14-.12.05-.21.09-.32.14-.33.14-.33.14-.13.06-.2.09-.32.14-.33.14-.33.15-.14.06-.18.09-.32.15-.33.15-.32.14-.15.08-.49.23-.32.15-.32.16-.17.08-.16.07-.31.16-.33.15-.31.16-.18.08-.14.08-.32.16-.32.16-.31.16-.18.09-.14.07-.32.16-.31.17-.32.16-.19.1-.12.07-.32.17-.31.17-.31.16-.2.11-.11.06-.31.17-.32.17-.3.18-.21.11-.1.06-.31.18-.31.17-.31.17-.22.13-.09.05-.3.18-.31.17-.31.18-.22.14-.08.04-.3.18-.3.19-.31.18-.23.14-.07.04-.3.19-.3.18-.31.19-.24.15-.05.04-.31.19-.29.19v-9.46H207.2v26.89h-24.32v-26.89zm20.15-121.81c9.47 3.69 15.67 12.14 16.1 22.33.42 10.11-5.17 19.19-14.27 23.55-9.14 4.38-20.08 2.54-27.55-4.21-7.41-6.88-9.94-17.67-6.4-27.12 1.78-4.58 4.68-8.4 8.35-11.16 6.75-5.08 15.88-6.35 23.77-3.39zm-8.76 163.27c12.56 0 22.71 10.17 22.71 22.7 0 12.55-10.17 22.7-22.71 22.7-12.54 0-22.7-10.17-22.7-22.7s10.16-22.7 22.7-22.7z"/></svg>