<svg xmlns="http://www.w3.org/2000/svg" shape-rendering="geometricPrecision" text-rendering="geometricPrecision" image-rendering="optimizeQuality" fill-rule="evenodd" clip-rule="evenodd" viewBox="0 0 512 444.66"><path d="m472.72 416.5-36.95-108.46c-1.61-4.74-4.32-9.19-9.18-9.19h-20.68l13.86-28.15h6.82c11.58 0 20.32 4.92 26.92 12.49 4.29 4.91 7.05 10.47 8.88 15.83L512 444.66H0l44.38-144.87c2.03-6.49 5.46-13.25 10.69-18.48h.11c6.47-6.44 14.74-10.61 25.22-10.61h13.74l15.09 28.15H80.4c-4.87 0-7.77 4.57-9.18 9.19L37.98 416.5h434.74zM224.45 216.26c-6.76-6.01-12.09-10.35-13.23-22.82l-.72.01c-1.67-.02-3.29-.4-4.8-1.26-2.42-1.38-4.12-3.74-5.27-6.4-2.43-5.59-4.36-20.29 1.76-24.49l-1.14-.77-.14-1.63c-.23-2.95-.29-6.54-.34-10.29-.23-13.83-.51-30.57-11.63-33.93l-4.76-1.44 3.14-3.89c8.98-11.1 18.36-20.8 27.83-28.25 10.7-8.43 21.58-14.04 32.22-15.66 10.95-1.66 21.55.85 31.35 8.77 2.89 2.34 5.7 5.14 8.4 8.44 10.45 1.01 19 6.63 25.09 14.67 3.64 4.79 6.41 10.46 8.17 16.49 1.75 6 2.52 12.4 2.2 18.68-.6 11.28-4.72 22.28-13.02 30.31 1.45.05 2.84.38 4.06 1.03 4.63 2.48 4.77 7.87 3.55 12.38-1.2 3.78-2.72 8.16-4.17 11.84-1.76 4.96-4.31 5.88-9.27 5.35-.25 12.27-5.92 15.65-13.56 22.86.32 18.49-66.13 16.31-65.72 0zm-3.44 15.23 19.77 57.12 9.94-33.51-4.87-5.32c-3.67-5.35-2.4-11.43 4.38-12.53 2.29-.35 4.86-.14 7.35-.14 2.65 0 5.58-.24 8.08.31 6.3 1.4 6.96 7.5 3.83 12.36l-4.88 5.32 9.94 33.51 17.88-57.12c11.81 10.62 50.85 13.49 68.3 19.97 7.68-16.63 13.5-34.01 17.13-51.69 8.61-41.62 4.4-82.68-15.15-114.87-5.79-9.52-12.88-18.3-21.31-25.95-23.97-21.87-51.71-32.37-79.83-32.57-29.16-.21-58.47 10.57-84.13 31.03-11.16 8.87-20.31 19.16-27.48 30.46-18.18 28.58-23.69 63.71-17.79 100.24 3.35 20.88 10.45 42.22 21.07 63.04 19.27-7.49 54.65-7.84 67.77-19.66zm56.68 151.5a31.082 31.082 0 0 1-17.82 5.72c-5.76.01-11.54-1.55-16.63-4.78l-.08-.09c-15.89-10.11-30.56-21.25-43.86-33.11-13.77-12.2-26.17-25.35-37.07-39.07-14.75-18.49-26.83-38.07-36.07-57.99-9.43-20.39-15.92-41.33-19.24-62.03-3.47-21.51-3.53-42.6-.01-62.49 3.54-19.95 10.62-38.79 21.41-55.76 4.34-6.74 9.35-13.34 15.03-19.63 5.39-6.09 11.48-11.83 18.15-17.13 15.02-11.96 31.22-21.16 47.96-27.33 16.96-6.26 34.62-9.42 52.32-9.3 17.63.13 35.04 3.5 51.62 10.25 16.04 6.65 31.33 16.23 45.27 28.95 4.91 4.45 9.6 9.43 13.99 14.79 4.47 5.43 8.43 11.04 11.91 16.75 11.48 18.99 18.55 40.3 21.5 62.78 3.01 22.78 1.83 46.88-3.15 70.99-7.51 36.48-23.21 71.7-44.95 102.49-21.4 30.31-48.86 56.64-80.28 75.99z"/></svg>