<svg xmlns="http://www.w3.org/2000/svg" shape-rendering="geometricPrecision" text-rendering="geometricPrecision" image-rendering="optimizeQuality" fill-rule="evenodd" clip-rule="evenodd" viewBox="0 0 439 511.86"><path d="M327.55 288.97c61.55 0 111.45 49.9 111.45 111.45 0 61.54-49.9 111.44-111.45 111.44-61.54 0-111.44-49.9-111.44-111.44 0-61.55 49.9-111.45 111.44-111.45zm51.04-266.59c0-12.3-10.08-22.38-22.38-22.38H22.37C10.08 0 0 10.08 0 22.38v414.06c0 12.3 10.08 22.38 22.37 22.38h178.52c-2.38-5.13-4.45-10.43-6.2-15.87H18.65c-1.23 0-2.35-1.07-2.35-2.34V20.27c0-1.26 1.12-2.35 2.35-2.35h341.89c1.26 0 2.35 1.15 2.35 2.35v245.18c5.36 1.4 10.6 3.11 15.7 5.13V22.38zM57.34 55.28h12.41v51.94H57.34V55.28zm22.85 0h11.55l15.01 28.68V55.28h11.7v51.94h-11.7L91.83 78.7v28.52H80.19V55.28zm44.04 0h12.93l9.02 37.39 8.9-37.39h12.56l-14.87 51.94h-13.41l-15.13-51.94zm50.89 6.22c7.28-9.44 23.28-9.59 30.63-.14 6.4 8.23 6.9 24.95 3.05 34.42-1.57 3.88-3.86 6.91-6.83 9.07-5.9 4.28-16.26 4.29-22.36.45-2.95-1.86-5.36-4.83-7.19-8.86-4.37-9.59-3.83-26.49 2.7-34.94zm9.15 31.12c2.96 4.5 9.36 4.66 12.34.07 2.96-4.55 3.04-18.14-.1-22.78-3.06-4.54-9.2-4.51-12.22.05-3.08 4.65-3.09 17.99-.02 22.66zm35.53-37.34h12.42v51.94H219.8V55.28zm49.42 30.68 10.85 4.25c-.72 3.94-1.88 7.25-3.45 9.88-1.56 2.64-3.51 4.64-5.84 5.98-2.31 1.34-5.27 2.02-8.86 2.02-4.36 0-7.93-.82-10.68-2.45-2.76-1.63-5.15-4.54-7.15-8.65-2-4.12-3-9.42-3-15.85 0-8.59 1.76-15.2 5.28-19.81 3.52-4.61 8.52-6.92 14.97-6.92 5.05 0 9.02 1.32 11.91 3.97 2.87 2.64 5.03 6.71 6.43 12.2l-10.91 3.13c-.38-1.57-.78-2.73-1.2-3.45-.69-1.21-1.56-2.16-2.55-2.82-1-.65-2.12-.99-3.36-.99-2.82 0-4.97 1.48-6.46 4.38-1.11 2.17-1.7 5.57-1.7 10.2 0 5.76.67 9.7 2.02 11.83 1.35 2.12 3.25 3.19 5.69 3.19 2.37 0 4.16-.86 5.37-2.59 1.21-1.71 2.09-4.21 2.64-7.5zm18.3-30.68h33.12v11.11h-20.7v8.26h19.19v10.6h-19.19v10.22h21.31v11.75h-33.73V55.28zM96.3 186.56c-3.99 0-7.23-3.24-7.23-7.23 0-4 3.24-7.24 7.23-7.24h144.05c4 0 7.24 3.24 7.24 7.24 0 3.99-3.24 7.23-7.24 7.23H96.3zm0 118.52c-3.99 0-7.23-3.24-7.23-7.23s3.24-7.23 7.23-7.23h145.33c-4.4 3.44-8.59 7.15-12.54 11.09l-.18.18-3.09 3.19H96.3zm0-43.89c-3.98 0-7.22-3.25-7.22-7.23 0-3.98 3.24-7.23 7.22-7.23h144.05c3.99 0 7.23 3.25 7.23 7.23 0 3.98-3.24 7.23-7.23 7.23H96.3zm212.32-36.62H69.97v143.61h121.84c-1.12 4.73-2.01 9.56-2.64 14.47H62.74c-4 0-7.24-3.25-7.24-7.24V142.86c0-4 3.24-7.24 7.24-7.24h253.11c3.99 0 7.24 3.24 7.24 7.24v118.11c-4.89.16-9.72.57-14.47 1.21v-37.61zM69.97 210.1h238.65v-60.01H69.97v60.01zm253.34 182.17h21.95v17.33h-19.41c-.25 4.08-.99 7.76-2.25 11.04-1.01 2.49-2.69 5.09-5.06 7.78 2.69-.59 5.01-.89 6.94-.89 2.47 0 5.67.47 9.63 1.4 5.4 1.24 9.73 1.85 12.96 1.85 2.65 0 4.94-.22 6.89-.66 1.97-.44 4.54-1.38 7.71-2.82l9.85 21.64c-4.77 2.37-8.96 4.03-12.59 4.94-3.61.91-7.49 1.35-11.64 1.35-4.54 0-9.7-.79-15.55-2.37-7.66-2.1-12.39-3.31-14.24-3.65a34.54 34.54 0 0 0-5.93-.49c-6.23 0-13.09 2.17-20.6 6.51l-9.38-20.59c10.17-7.26 15.26-14.52 15.26-21.78 0-.39-.05-1.48-.15-3.26h-15.11v-17.33h10.82c-1.83-6.35-2.9-10.05-3.12-11.07-.3-1.52-.44-3.42-.44-5.69 0-6.04 1.6-11.44 4.81-16.23 3.19-4.79 7.41-8.27 12.64-10.42 5.24-2.17 12.28-3.26 21.14-3.26 8.3 0 14.87.94 19.71 2.79 4.83 1.86 8.94 4.94 12.27 9.24 3.36 4.32 5.65 9.52 6.91 15.65l-27.7 4.32c-1.39-5.13-2.99-8.54-4.79-10.22-1.81-1.68-3.86-2.52-6.15-2.52-2.79 0-5.04.91-6.77 2.74-1.73 1.83-2.59 4.42-2.59 7.78 0 1.8.17 3.5.52 5.16.32 1.68 1.48 5.58 3.46 11.73z"/></svg>