<svg xmlns="http://www.w3.org/2000/svg" shape-rendering="geometricPrecision" text-rendering="geometricPrecision" image-rendering="optimizeQuality" fill-rule="evenodd" clip-rule="evenodd" viewBox="0 0 426 511.48"><path d="M104.07 355.71c12.55 0 22.71 10.18 22.71 22.7 0 12.55-10.18 22.71-22.71 22.71-12.54 0-22.7-10.18-22.7-22.71 0-12.52 10.17-22.7 22.7-22.7zm172.31 6.15c34.23-34.22 89.73-34.22 123.95 0 34.23 34.23 34.23 89.73 0 123.95-34.22 34.23-89.72 34.23-123.95 0-34.22-34.22-34.22-89.72 0-123.95zm76.16 23.46c2.06 2.07 3.11 4.93 3.11 8.59 0 8.84-9.98 14.29-17.86 14.29-3.56 0-6.41-1-8.58-3-2.17-2.03-3.26-4.65-3.26-7.91 0-4.1 1.77-7.64 5.3-10.64 5.27-4.44 15.73-6.89 21.29-1.33zm-32.27 69.88h4.67v-29.57h-8.82c0-12.03 22.08-4.22 38.34-8.33v37.9h6.14v10.38h-40.33V455.2zM27.95 481.46C12.64 481.46 0 468.81 0 453.51V96.07c0-15.38 12.61-27.98 28-27.98h45.05v-8.81c0-10.3 8.52-18.75 18.8-18.75h30.57V20.79c0-11.34 9.33-20.79 20.7-20.79H250.4c11.43 0 20.79 9.38 20.79 20.79v19.79h26.34c10.3 0 18.79 8.56 18.79 18.84v8.81h45.06c15.34 0 27.99 12.59 27.99 27.94v220.74c-7.48-3.56-15.26-6.3-23.2-8.21V94.11c0-1.62-1.21-2.82-2.82-2.82l-47.03-.01v15.32c0 10.28-8.57 18.75-18.84 18.75H91.8c-10.3 0-18.75-8.51-18.75-18.79V91.23H25.98c-1.55 0-2.83 1.29-2.83 2.83v361.32c0 1.56 1.31 2.88 2.88 2.88l198.99.05c2.42 7.95 5.69 15.7 9.8 23.1-96.11-.01-206.87-.01-206.87.05zm236.3-417.9c-7.92 0-16.64-4.18-16.64-13.2V23.23H145.92v27.13c0 8.36-7.93 13.2-15.57 13.2H97.01v40.58h195.36V63.56h-28.12zm-81.36 250.69h-68.68v26.89H93.94v-37c0-5.59 4.54-10.13 10.13-10.13h78.26l-.33-31.38c-4.03-1.19-8.12-2.77-11.74-4.91l-6.3 6.94c-2.31 2.39-6.19 2.52-8.67.33l-9.25-8.67c-2.43-2.4-2.82-6.05-.35-8.57l6.92-7.47a51.672 51.672 0 0 1-4.98-11.8l-9.24.37c-3.37.12-6.23-2.5-6.36-5.86l-.5-12.68c-.12-3.45 2.4-6.23 5.86-6.36l10.1-.39c1.16-4.05 2.76-8.17 4.91-11.81l-6.83-6.29c-2.54-2.37-2.71-6.13-.35-8.69l8.5-9.24c2.4-2.45 6.02-2.81 8.57-.36l7.59 6.9c3.78-2.25 7.42-3.76 11.64-4.98l-.37-9.24c-.12-3.37 2.5-6.23 5.86-6.36l12.68-.48c3.44-.12 6.23 2.4 6.35 5.87l.4 10.09c4.1 1.21 8.04 2.73 11.74 4.91l6.29-6.81c2.37-2.54 6.14-2.71 8.7-.35l.12.1 9.25 8.5c2.44 2.41 2.8 6.03.35 8.57l-6.9 7.6c2.2 3.82 3.73 7.45 4.98 11.68l9.25-.37c3.36-.13 6.22 2.5 6.35 5.86l.5 12.67c.12 3.45-2.4 6.24-5.87 6.36l-10.09.4c-1.19 4.02-2.77 8.11-4.91 11.74l6.93 6.29c2.45 2.35 2.49 6.11.33 8.67l-8.67 9.27c-2.23 2.53-6.13 2.7-8.56.35l-7.47-6.91c-3.82 2.18-7.58 3.75-11.81 4.97l.31 31.5h78.06c5.6 0 10.14 4.54 10.14 10.13v9.31c-7 2.71-13.79 6.12-20.27 10.22v-9.38H207.2v26.89h-24.31v-26.89zm20.14-121.81c9.48 3.69 15.67 12.14 16.1 22.33.42 10.11-5.17 19.19-14.27 23.55-9.13 4.38-20.08 2.54-27.55-4.21-7.4-6.87-9.94-17.67-6.4-27.12 1.78-4.58 4.68-8.4 8.35-11.16 6.75-5.08 15.88-6.35 23.77-3.39zm-8.75 163.27c12.55 0 22.7 10.18 22.7 22.7 0 12.55-10.17 22.71-22.7 22.71-12.55 0-22.71-10.18-22.71-22.71 0-12.52 10.16-22.7 22.71-22.7z"/></svg>