<svg xmlns="http://www.w3.org/2000/svg" shape-rendering="geometricPrecision" text-rendering="geometricPrecision" image-rendering="optimizeQuality" fill-rule="evenodd" clip-rule="evenodd" viewBox="0 0 426 511.48"><path d="M338.35 336.19c48.4 0 87.65 39.25 87.65 87.65 0 48.39-39.25 87.64-87.65 87.64-48.39 0-87.64-39.25-87.64-87.64 0-48.4 39.25-87.65 87.64-87.65zm-234.3 19.52c12.55 0 22.7 10.17 22.7 22.7 0 12.55-10.18 22.7-22.7 22.7-12.55 0-22.71-10.17-22.71-22.7s10.18-22.7 22.71-22.7zm-76.1 125.75C12.64 481.46 0 468.81 0 453.51V96.07c0-15.38 12.61-27.99 28-27.99h45.05v-8.8c0-10.3 8.51-18.75 18.8-18.75h30.57V20.79C122.42 9.45 131.75 0 143.11 0H250.4c11.43 0 20.78 9.38 20.78 20.79v19.79h26.35c10.3 0 18.79 8.56 18.79 18.84v8.81h45.06c15.34 0 27.99 12.59 27.99 27.94v220.79c-7.39-3.5-15.2-6.39-23.2-8.27V94.11c0-1.62-1.21-2.83-2.82-2.83h-47.03v15.32c0 10.28-8.57 18.74-18.84 18.74H91.8c-10.3 0-18.75-8.5-18.75-18.78V91.23H25.98c-1.55 0-2.83 1.29-2.83 2.83v361.32c0 1.56 1.31 2.88 2.88 2.88l199 .05c2.49 8.07 5.74 15.74 9.85 23.09-96.13 0-206.93 0-206.93.06zm236.29-417.9c-7.92 0-16.63-4.18-16.63-13.2V23.23H145.92v27.13c0 8.35-7.93 13.2-15.57 13.2H97.01v40.58h195.35V63.56h-28.12zm-81.38 250.69h-68.68v26.89H93.92v-37c0-5.6 4.54-10.14 10.13-10.14h78.25l-.32-31.37c-4.04-1.19-8.12-2.77-11.75-4.91l-6.3 6.94c-2.31 2.38-6.18 2.52-8.67.32l-9.25-8.66c-2.42-2.4-2.81-6.05-.35-8.57l6.92-7.47c-2.18-3.82-3.76-7.58-4.98-11.81l-9.24.38c-3.37.12-6.22-2.5-6.36-5.87l-.49-12.67c-.12-3.45 2.39-6.23 5.86-6.36l10.09-.39c1.17-4.05 2.77-8.17 4.91-11.81l-6.82-6.29c-2.55-2.37-2.72-6.13-.36-8.69l8.51-9.25c2.4-2.44 6.02-2.8 8.56-.35l7.6 6.9c3.78-2.25 7.41-3.76 11.64-4.98l-.37-9.24c-.13-3.37 2.5-6.23 5.86-6.36l12.67-.48c3.45-.12 6.24 2.4 6.36 5.87l.39 10.09c4.1 1.21 8.05 2.73 11.74 4.91l6.3-6.81c2.36-2.54 6.13-2.71 8.69-.36l.12.11 9.25 8.5c2.45 2.41 2.81 6.03.35 8.57l-6.9 7.6c2.2 3.82 3.73 7.45 4.98 11.68l9.25-.37c3.36-.13 6.22 2.5 6.35 5.86l.5 12.67c.12 3.45-2.39 6.23-5.86 6.36l-10.09.39c-1.2 4.03-2.77 8.12-4.92 11.75l6.94 6.29c2.44 2.35 2.49 6.11.33 8.67l-8.67 9.27c-2.24 2.53-6.13 2.7-8.57.35l-7.47-6.92c-3.82 2.19-7.58 3.76-11.8 4.97l.31 31.5h78.06c5.59 0 10.13 4.54 10.13 10.14v9.35l-.33.13-.08.03-.25.1-.34.13-.33.14-.33.13-.09.04-.24.1-.33.14-.33.13-.33.14-.1.04-.23.1-.33.14-.32.14-.33.14-.11.05-.22.1-.33.14-.32.14-.32.15-.13.05-.2.1-.33.15-.32.15-.32.14-.13.07-.19.09-.33.15-.32.15-.32.15-.14.08-.18.08-.32.16-.32.15-.32.16-.15.07-.17.09-.31.16-.32.16-.32.16-.15.08-.16.08-.32.16-.32.17-.31.17-.17.08-.14.08-.32.17-.31.17-.31.17-.18.09-.13.07-.31.17-.31.17-.32.18-.18.1-.13.07-.3.18-.31.17-.31.17-.2.11-.1.07-.31.18-.31.17-.3.18-.21.13-.1.05-.3.19-.31.18-.3.18-.21.13-.09.05-.3.19-.31.19-.3.18-.22.14-.08.05-.3.19-.3.19v-9.47h-67.98v26.89h-24.32v-26.89zM203 192.43c9.48 3.69 15.67 12.15 16.1 22.34.43 10.11-5.17 19.19-14.26 23.55-9.14 4.38-20.09 2.54-27.56-4.21-7.4-6.88-9.94-17.67-6.39-27.13 1.78-4.57 4.68-8.39 8.34-11.15 6.76-5.08 15.89-6.35 23.77-3.4zm-8.75 163.28c12.56 0 22.71 10.17 22.71 22.7 0 12.55-10.18 22.7-22.71 22.7-12.55 0-22.7-10.17-22.7-22.7s10.15-22.7 22.7-22.7zm119.64 55.2 13.97 13.2 33.02-34.13c2.74-2.78 4.46-5.01 7.83-1.53l10.95 11.21c3.59 3.56 3.42 5.65.02 8.96l-45.56 45.49c-7.16 7-5.91 7.43-13.16.24l-25.5-25.36c-1.51-1.63-1.36-3.29.3-4.92l12.71-13.18c1.92-2.03 3.46-1.85 5.42.02z"/></svg>