<svg xmlns="http://www.w3.org/2000/svg" shape-rendering="geometricPrecision" text-rendering="geometricPrecision" image-rendering="optimizeQuality" fill-rule="evenodd" clip-rule="evenodd" viewBox="0 0 509 512.19"><path fill-rule="nonzero" d="m244.45 267.64 228.14-3.67.13 11.84c.03 65.27-26.43 124.37-69.21 167.15-42.77 42.77-101.87 69.23-167.14 69.23-65.27 0-124.36-26.46-167.14-69.23C26.46 400.18 0 341.08 0 275.81c0-65.26 26.46-124.36 69.23-167.13C112.01 65.9 171.1 39.44 236.37 39.44h8.08v228.2zm30.01-33.1L275.36 0C404.54.5 509 105.35 509 234.54H274.46zm182.08 45.79-228.25 3.66V55.75C170.7 57.83 118.74 82.02 80.66 120.1c-39.85 39.85-64.5 94.91-64.5 155.71 0 60.82 24.65 115.87 64.5 155.72 39.85 39.85 94.9 64.5 155.71 64.5s115.87-24.65 155.72-64.5c38.86-38.86 63.26-92.18 64.45-151.2z"/></svg>