<svg xmlns="http://www.w3.org/2000/svg" shape-rendering="geometricPrecision" text-rendering="geometricPrecision" image-rendering="optimizeQuality" fill-rule="evenodd" clip-rule="evenodd" viewBox="0 0 426 511.48"><path d="M104.05 355.71c12.55 0 22.7 10.18 22.7 22.7 0 12.55-10.17 22.71-22.7 22.71-12.55 0-22.7-10.18-22.7-22.71 0-12.52 10.17-22.7 22.7-22.7zm172.33 6.15c34.23-34.22 89.73-34.22 123.95 0 34.23 34.23 34.23 89.73 0 123.95-34.22 34.23-89.72 34.23-123.95 0-34.22-34.22-34.22-89.72 0-123.95zm88.33 23.06 12.56 12.56a6.615 6.615 0 0 1 0 9.32l-17.04 17.04 17.04 17.04c2.56 2.57 2.56 6.74 0 9.32l-12.56 12.56c-2.58 2.55-6.74 2.55-9.31-.01l-17.04-17.04-17.05 17.05c-2.58 2.55-6.74 2.55-9.31-.01l-12.56-12.56c-2.55-2.58-2.55-6.73 0-9.3l17.04-17.05-17.04-17.05a6.61 6.61 0 0 1 0-9.3L312 384.93a6.603 6.603 0 0 1 9.31-.01l17.05 17.05 17.04-17.04c2.57-2.56 6.73-2.56 9.31-.01zM27.95 481.46C12.64 481.46 0 468.81 0 453.51V96.07c0-15.38 12.61-27.98 28-27.98h45.05v-8.81c0-10.3 8.52-18.75 18.8-18.75h30.57V20.79c0-11.34 9.33-20.79 20.7-20.79H250.4c11.43 0 20.79 9.38 20.79 20.79v19.79h26.34c10.3 0 18.79 8.56 18.79 18.84v8.81h45.06c15.34 0 27.99 12.59 27.99 27.94v220.74c-7.42-3.49-15.21-6.34-23.2-8.21V94.11c0-1.62-1.21-2.82-2.82-2.82l-47.03-.01v15.32c0 10.28-8.57 18.75-18.84 18.75H91.8c-10.3 0-18.75-8.51-18.75-18.79V91.23H25.98c-1.55 0-2.83 1.29-2.83 2.83v361.32c0 1.56 1.31 2.88 2.88 2.88l198.99.05c2.59 8.28 5.65 15.55 9.8 23.1-96.11-.01-206.87-.01-206.87.05zm236.3-417.9c-7.92 0-16.64-4.18-16.64-13.2V23.23H145.92v27.13c0 8.36-7.93 13.2-15.57 13.2H97.01v40.58h195.36V63.56h-28.12zm-81.39 250.69h-68.68v26.89H93.92v-37c0-5.59 4.54-10.13 10.13-10.13h78.25l-.32-31.38c-4.04-1.19-8.12-2.77-11.75-4.91l-6.3 6.94c-2.31 2.39-6.18 2.52-8.67.33l-9.25-8.67c-2.42-2.4-2.81-6.05-.34-8.57l6.92-7.47c-2.19-3.82-3.77-7.57-4.99-11.8l-9.23.37c-3.37.12-6.23-2.5-6.37-5.86l-.49-12.68c-.12-3.45 2.39-6.23 5.86-6.36l10.09-.39c1.17-4.05 2.77-8.17 4.92-11.81l-6.83-6.29c-2.54-2.37-2.71-6.13-.36-8.69l8.51-9.24c2.4-2.45 6.02-2.81 8.56-.36l7.6 6.9c3.78-2.25 7.41-3.76 11.64-4.98l-.37-9.24c-.12-3.37 2.5-6.23 5.86-6.36l12.68-.48c3.44-.12 6.23 2.4 6.35 5.87l.39 10.09c4.11 1.21 8.05 2.73 11.75 4.91l6.29-6.81c2.37-2.54 6.13-2.71 8.69-.35l.13.1 9.24 8.5c2.45 2.41 2.81 6.03.35 8.57l-6.89 7.6c2.2 3.82 3.72 7.45 4.97 11.68l9.25-.37c3.37-.13 6.22 2.5 6.36 5.86l.49 12.67c.12 3.45-2.39 6.24-5.86 6.36l-10.09.4c-1.19 4.02-2.77 8.11-4.91 11.74l6.93 6.29c2.44 2.35 2.49 6.11.33 8.67l-8.67 9.27c-2.24 2.53-6.13 2.7-8.56.35l-7.48-6.91c-3.82 2.18-7.58 3.75-11.8 4.97l.31 31.5h78.06c5.59 0 10.13 4.54 10.13 10.13v9.32c-6.98 2.69-13.94 6.2-20.26 10.22v-9.39h-67.99v26.89h-24.32v-26.89zm20.15-121.81c9.47 3.69 15.67 12.14 16.1 22.33.42 10.11-5.17 19.19-14.27 23.55-9.14 4.38-20.09 2.54-27.55-4.21-7.41-6.87-9.94-17.67-6.4-27.12 1.78-4.58 4.68-8.4 8.35-11.16 6.75-5.08 15.88-6.35 23.77-3.39zm-8.76 163.27c12.56 0 22.71 10.18 22.71 22.7 0 12.55-10.18 22.71-22.71 22.71-12.55 0-22.7-10.18-22.7-22.71 0-12.52 10.15-22.7 22.7-22.7z"/></svg>