<svg xmlns="http://www.w3.org/2000/svg" shape-rendering="geometricPrecision" text-rendering="geometricPrecision" image-rendering="optimizeQuality" fill-rule="evenodd" clip-rule="evenodd" viewBox="0 0 423 511.81"><path d="M330.55 326.9c51.05 0 92.45 41.41 92.45 92.45 0 51.05-41.4 92.46-92.45 92.46-51.06 0-92.46-41.41-92.46-92.46 0-51.04 41.4-92.45 92.46-92.45zm62.86-303.66C393.41 10.46 382.94 0 370.16 0H23.24C10.46 0 0 10.47 0 23.24v430.28c0 12.78 10.46 23.26 23.24 23.26h203.22c-2.92-5.27-5.44-10.78-7.55-16.49H19.38c-1.29 0-2.44-1.12-2.44-2.43V21.07c0-1.32 1.15-2.44 2.44-2.44h355.28c1.3 0 2.44 1.19 2.44 2.44v288.92c5.67 2.42 11.12 5.28 16.31 8.53V23.24zM59.58 57.44h12.9v53.97h-12.9V57.44zm23.74 0h12.01l15.6 29.81V57.44h12.16v53.97h-12.16L95.42 81.78v29.63h-12.1V57.44zm45.78 0h13.43l9.38 38.85 9.24-38.85h13.05l-15.45 53.97h-13.94L129.1 57.44zm52.88 6.46c7.57-9.8 24.18-9.96 31.83-.14 6.65 8.55 7.16 25.93 3.17 35.77-1.64 4.03-4.02 7.18-7.11 9.42-6.12 4.45-16.89 4.46-23.23.47-3.07-1.94-5.57-5.01-7.48-9.21-4.53-9.96-3.96-27.52 2.82-36.31zm9.51 32.34c3.08 4.69 9.72 4.84 12.82.08 3.07-4.73 3.15-18.85-.1-23.67-3.19-4.72-9.56-4.69-12.71.04-3.19 4.84-3.2 18.71-.01 23.55zm36.91-38.8h12.91v53.97H228.4V57.44zm51.36 31.89 11.27 4.41c-.75 4.09-1.95 7.53-3.58 10.27-1.63 2.74-3.65 4.82-6.06 6.22-2.41 1.38-5.49 2.1-9.22 2.1-4.53 0-8.23-.85-11.1-2.56-2.87-1.7-5.35-4.71-7.42-8.99-2.08-4.28-3.13-9.79-3.13-16.48 0-8.91 1.83-15.78 5.5-20.57 3.66-4.79 8.85-7.19 15.55-7.19 5.25 0 9.38 1.38 12.38 4.12 2.99 2.75 5.22 6.97 6.68 12.68L279.3 76.6c-.4-1.64-.82-2.84-1.25-3.59-.73-1.26-1.61-2.24-2.65-2.92a6.297 6.297 0 0 0-3.49-1.04c-2.93 0-5.16 1.54-6.72 4.56-1.16 2.25-1.77 5.79-1.77 10.6 0 5.98.7 10.07 2.1 12.28 1.41 2.21 3.38 3.32 5.92 3.32 2.46 0 4.32-.9 5.58-2.69 1.25-1.78 2.17-4.38 2.74-7.79zm19.02-31.89h34.41v11.54h-21.5v8.59h19.93v11.01h-19.93v10.63h22.14v12.2h-35.05V57.44zM100.07 193.86c-4.15 0-7.51-3.37-7.51-7.52 0-4.15 3.36-7.52 7.51-7.52h149.69c4.16 0 7.52 3.37 7.52 7.52 0 4.15-3.36 7.52-7.52 7.52H100.07zm0 123.17c-4.15 0-7.51-3.37-7.51-7.52 0-4.15 3.36-7.52 7.51-7.52h183.31c3.42 0 6.3 2.29 7.22 5.4-7.17 2.57-14.02 5.81-20.48 9.64H100.07zm0-45.61c-4.15 0-7.51-3.37-7.51-7.52 0-4.15 3.36-7.52 7.51-7.52h149.69c4.16 0 7.52 3.37 7.52 7.52 0 4.15-3.36 7.52-7.52 7.52H100.07zm220.63-38.06H72.71v149.23h144.75c-1.58 4.88-2.86 9.89-3.81 15.03H65.2c-4.16 0-7.52-3.36-7.52-7.52V148.45c0-4.15 3.36-7.52 7.52-7.52h263.01c4.15 0 7.52 3.37 7.52 7.52v152.13c-1.71-.08-3.44-.11-5.18-.11-3.32 0-6.61.14-9.85.4v-67.51zM72.71 218.33H320.7v-62.36H72.71v62.36zm282.06 165.25 11.55 11.54c2.36 2.36 2.36 6.21 0 8.57l-15.66 15.67 15.66 15.67a6.06 6.06 0 0 1 0 8.56l-11.55 11.55c-2.36 2.34-6.19 2.34-8.56-.01l-15.66-15.66-15.68 15.67a6.078 6.078 0 0 1-8.56-.01l-11.55-11.55c-2.34-2.36-2.35-6.19 0-8.55l15.68-15.67-15.68-15.67c-2.35-2.37-2.34-6.2 0-8.57l11.55-11.54c2.36-2.36 6.19-2.36 8.56 0l15.68 15.67 15.66-15.67c2.37-2.36 6.2-2.36 8.56 0z"/></svg>