<svg xmlns="http://www.w3.org/2000/svg" shape-rendering="geometricPrecision" text-rendering="geometricPrecision" image-rendering="optimizeQuality" fill-rule="evenodd" clip-rule="evenodd" viewBox="0 0 426 511.48"><path d="M276.38 361.87c34.23-34.23 89.73-34.23 123.95 0 34.23 34.22 34.23 89.72 0 123.95-34.22 34.22-89.72 34.22-123.95 0-34.22-34.23-34.22-89.73 0-123.95zm-172.33-6.16c12.55 0 22.7 10.18 22.7 22.7 0 12.55-10.17 22.71-22.7 22.71-12.55 0-22.71-10.18-22.71-22.71 0-12.52 10.18-22.7 22.71-22.7zm-76.1 125.75C12.64 481.46 0 468.81 0 453.51V96.08c0-15.39 12.61-27.99 27.99-27.99h45.06v-8.81c0-10.3 8.51-18.75 18.8-18.75h30.57V20.79c0-11.34 9.33-20.79 20.7-20.79H250.4c11.43 0 20.79 9.38 20.79 20.79v19.79h26.34c10.3 0 18.79 8.56 18.79 18.85v8.8h45.06c15.34 0 27.99 12.59 27.99 27.94v220.75a117.84 117.84 0 0 0-23.2-8.22V94.11c0-1.62-1.21-2.82-2.82-2.82l-47.03-.01v15.33c0 10.27-8.57 18.74-18.84 18.74H91.8c-10.3 0-18.75-8.51-18.75-18.79V91.23H25.98c-1.55 0-2.83 1.29-2.83 2.83v361.33c0 1.56 1.31 2.87 2.88 2.87l198.99.06c2.42 7.95 5.69 15.69 9.8 23.09-96.11-.01-206.87-.01-206.87.05zm236.3-417.9c-7.92 0-16.64-4.18-16.64-13.2V23.23H145.92v27.13c0 8.36-7.93 13.2-15.57 13.2H97.01v40.58h195.36V63.56h-28.12zm-81.39 250.7h-68.68v26.89H93.92v-37.01c0-5.59 4.54-10.13 10.13-10.13h78.25l-.32-31.37c-4.04-1.2-8.12-2.78-11.75-4.92l-6.3 6.94c-2.31 2.39-6.18 2.52-8.67.33l-9.25-8.67c-2.42-2.4-2.81-6.05-.35-8.57l6.92-7.46a52.848 52.848 0 0 1-4.98-11.81l-9.23.37c-3.37.12-6.23-2.5-6.37-5.86l-.49-12.68c-.12-3.45 2.39-6.23 5.86-6.35l10.09-.39c1.17-4.06 2.77-8.18 4.91-11.81l-6.82-6.3c-2.54-2.36-2.71-6.12-.36-8.69l8.51-9.24c2.4-2.45 6.02-2.81 8.56-.36l7.6 6.9c3.78-2.25 7.41-3.76 11.64-4.98l-.37-9.24c-.12-3.37 2.5-6.23 5.86-6.36l12.68-.47c3.44-.13 6.23 2.39 6.35 5.86l.39 10.09c4.11 1.21 8.05 2.73 11.75 4.91l6.29-6.81c2.37-2.54 6.13-2.7 8.69-.35l.13.1 9.24 8.51c2.45 2.4 2.81 6.02.35 8.56l-6.89 7.6c2.2 3.82 3.72 7.45 4.97 11.68l9.25-.37c3.37-.13 6.22 2.5 6.36 5.86l.49 12.67c.12 3.46-2.39 6.24-5.86 6.36l-10.09.4c-1.19 4.02-2.77 8.11-4.91 11.74l6.93 6.29c2.44 2.36 2.49 6.11.33 8.67l-8.67 9.27c-2.24 2.53-6.13 2.7-8.56.35l-7.48-6.91c-3.82 2.19-7.58 3.76-11.8 4.97l.31 31.5h78.06c5.59 0 10.13 4.54 10.13 10.13v9.32c-6.99 2.72-13.79 6.12-20.26 10.22v-9.38h-67.99v26.89h-24.32v-26.89zm20.15-121.82c9.47 3.69 15.67 12.14 16.1 22.33.42 10.12-5.17 19.19-14.27 23.55-9.14 4.38-20.09 2.54-27.55-4.21-7.41-6.87-9.94-17.66-6.4-27.12 1.78-4.58 4.68-8.4 8.35-11.15 6.75-5.09 15.88-6.36 23.77-3.4zm-8.76 163.27c12.56 0 22.71 10.18 22.71 22.7 0 12.55-10.18 22.71-22.71 22.71-12.55 0-22.7-10.18-22.7-22.71 0-12.52 10.15-22.7 22.7-22.7zm153.12 24.21a38.98 38.98 0 0 1 12.7 8.48 38.958 38.958 0 0 1 11.45 27.61c0 3.86-.57 7.62-1.63 11.17a39.43 39.43 0 0 1-3.58 8.33l16.27 18.01c1.05 1.14.97 2.94-.18 3.99l-10.81 9.88c-1.15 1.05-2.95.98-4-.18l-15.57-17.39c-2.59 1.49-5.35 2.72-8.25 3.59l-.1.02a38.976 38.976 0 0 1-11.21 1.65c-5.24 0-10.29-1.07-14.91-2.98a39.234 39.234 0 0 1-12.71-8.46c-3.59-3.6-6.5-7.9-8.48-12.67-1.9-4.62-2.96-9.67-2.96-14.96 0-5.24 1.07-10.29 2.96-14.9a39.45 39.45 0 0 1 8.48-12.71c3.6-3.6 7.89-6.5 12.67-8.48 9.52-3.94 20.34-3.93 29.86 0zm-5.58 13.53-.15-.07c-5.88-2.38-12.63-2.35-18.5.06a24.745 24.745 0 0 0-7.93 5.32c-4.41 4.41-7.15 10.51-7.15 17.25 0 6.5 2.52 12.67 7.14 17.26 2.26 2.26 4.96 4.09 7.93 5.31 9.09 3.78 19.63 1.66 26.58-5.31 4.61-4.6 7.16-10.74 7.16-17.26 0-3.3-.67-6.47-1.84-9.32l-.07-.14c-2.46-5.89-7.28-10.66-13.17-13.1z"/></svg>