<svg xmlns="http://www.w3.org/2000/svg" shape-rendering="geometricPrecision" text-rendering="geometricPrecision" image-rendering="optimizeQuality" fill-rule="evenodd" clip-rule="evenodd" viewBox="0 0 512 488.15"><path d="M304.73 467.72H175.81V16.29h248.2v238.4c5.54.53 10.97 1.39 16.29 2.56V14.31C440.3 6.44 433.85 0 426 0H173.83c-7.88 0-14.31 6.45-14.31 14.31v121.94H11.98C5.41 136.25 0 141.67 0 148.24v327.62c0 4.51 3.65 8.15 8.15 8.15l310.99-.07-2.1-2.05c-4.42-4.43-8.54-9.16-12.31-14.17zm106.66-180.79c55.55 0 100.61 45.06 100.61 100.61 0 55.56-45.06 100.61-100.61 100.61S310.78 443.1 310.78 387.54c0-55.55 45.06-100.61 100.61-100.61zm7.04 46.16c-6.27 0-12.29 1.28-17.8 3.55a47.026 47.026 0 0 0-15.17 10.12c-4.29 4.3-7.77 9.43-10.12 15.13a46.643 46.643 0 0 0-3.55 17.86c0 4.6.68 9.08 1.95 13.32 1.04 3.5 2.49 6.83 4.28 9.95l-19.43 21.5c-1.25 1.37-1.17 3.52.21 4.77l12.92 11.8a3.35 3.35 0 0 0 4.76-.21l18.6-20.77c3.09 1.78 6.39 3.25 9.85 4.29l.11.02c4.26 1.28 8.77 1.97 13.39 1.97 6.27 0 12.3-1.28 17.81-3.55a46.945 46.945 0 0 0 15.17-10.11c4.3-4.3 7.77-9.44 10.13-15.14a46.723 46.723 0 0 0 3.54-17.84c0-6.26-1.27-12.3-3.54-17.81a47.053 47.053 0 0 0-10.13-15.17 46.466 46.466 0 0 0-15.12-10.13 46.643 46.643 0 0 0-17.86-3.55zm-20.6 26.04c2.68-2.67 5.9-4.85 9.48-6.33l.17-.07c3.35-1.37 7.05-2.12 10.95-2.12 3.97 0 7.75.79 11.14 2.18 3.57 1.49 6.79 3.67 9.47 6.34 5.26 5.28 8.54 12.57 8.54 20.62 0 3.97-.8 7.74-2.19 11.13a29.29 29.29 0 0 1-6.34 9.47c-2.7 2.69-5.93 4.88-9.47 6.34a29.17 29.17 0 0 1-11.15 2.2c-3.96 0-7.74-.79-11.13-2.2a29.237 29.237 0 0 1-9.47-6.34c-2.67-2.68-4.87-5.91-6.34-9.47-1.4-3.39-2.2-7.17-2.2-11.13 0-3.96.8-7.74 2.2-11.14l.07-.17c1.46-3.48 3.62-6.64 6.27-9.31zM16.29 467.72V152.54h143.23v315.18H16.29zm332.62-198.1h-29.19l-.12.01h-.02l-.12.02h-.02l-.12.02h-.01l-.12.04h-.02l-.11.03h-.02l-.11.05h-.02l-.11.05h-.02c-1 .43-1.7 1.61-1.7 2.57v20.75c9.34-9.33 20.06-17.29 31.83-23.54zm-30.13-93.41c-1 .43-1.7 1.61-1.7 2.57v45.26c0 .97.7 2.15 1.7 2.58h.02l.11.05h.02l.11.04h.02l.11.03h.02l.12.04h.01l.12.02h.02l.12.02h.02l.12.01h.02l.12.01h53.6c1.54 0 2.8-1.26 2.8-2.8v-14.93l.02-.03v-30.3c0-1.2-.78-2.23-1.86-2.62l-.11-.04h-.02l-.11-.04h-.02l-.11-.03h-.02l-.12-.03h-.02l-.12-.02h-.16l-.12-.01h-53.63l-.12.01h-.16l-.12.02h-.02l-.12.03h-.01l-.12.03h-.02l-.11.04h-.02l-.11.04h-.02l-.11.05h-.02zm-40.87 187.04h-53.6c-1.32 0-2.78 1.46-2.78 2.79v45.26c0 1.33 1.25 2.8 2.78 2.8h53.6c1.03 0 1.93-.56 2.41-1.38a134.668 134.668 0 0 1-.35-48.4c-.58-.65-1.42-1.07-2.06-1.07zm0-93.63h-53.6c-1.32 0-2.78 1.46-2.78 2.79v45.26c0 1.33 1.25 2.79 2.78 2.79h53.6c1.54 0 2.8-1.24 2.8-2.79v-45.26c0-1.54-1.68-2.79-2.8-2.79zm0-93.63h-53.6c-1.32 0-2.78 1.47-2.78 2.79v45.26c0 1.33 1.25 2.8 2.78 2.8h53.6c1.54 0 2.8-1.26 2.8-2.8v-45.26c0-1.53-1.68-2.79-2.8-2.79zM120.05 321.17H55.48c-.71 0-1.36.55-1.36.99v26.53c0 .44.68.99 1.36.99h64.57c.69 0 1.37-.44 1.37-.99v-26.53c0-.54-.68-.99-1.37-.99zm267.5-269.44H212.26c-3.56 0-6.51 3-6.51 6.52v69.26c0 3.52 2.97 6.52 6.51 6.52h175.29c3.55 0 6.52-2.94 6.52-6.52V58.25c0-3.58-2.98-6.52-6.52-6.52zm-267.5 211.39H55.48c-.71 0-1.36.55-1.36.99v26.53c0 .44.68.99 1.36.99h64.57c.69 0 1.37-.45 1.37-.99v-26.53c0-.55-.68-.99-1.37-.99zm0-58.05H55.48c-.71 0-1.36.54-1.36.98v26.54c0 .44.68.98 1.36.98h64.57c.69 0 1.37-.44 1.37-.98v-26.54c0-.54-.68-.98-1.37-.98z"/></svg>