<svg xmlns="http://www.w3.org/2000/svg" shape-rendering="geometricPrecision" text-rendering="geometricPrecision" image-rendering="optimizeQuality" fill-rule="evenodd" clip-rule="evenodd" viewBox="0 0 512 330.98"><path d="M21.95 123.43h67.79V88.54H41.21c-8.4 0-15.27-6.87-15.27-15.27v-58C25.94 6.87 32.81 0 41.21 0h441.3c8.4 0 15.27 6.87 15.27 15.27v58c0 8.4-6.87 15.27-15.27 15.27h-48.53v34.89h56.07c12.07 0 21.95 9.87 21.95 21.94v185.61H0V145.37c0-12.07 9.88-21.94 21.95-21.94zM56.54 61.3l1.63-9.56c3.55.89 6.75 1.33 9.59 1.33s5.12-.12 6.86-.35v-2.89l-5.21-.47c-4.71-.42-7.95-1.55-9.71-3.39-1.76-1.83-2.63-4.55-2.63-8.14 0-4.94 1.07-8.34 3.21-10.2 2.14-1.85 5.79-2.78 10.92-2.78 5.14 0 9.78.48 13.91 1.45l-1.45 9.27c-3.59-.58-6.47-.87-8.63-.87-2.16 0-4 .1-5.51.29v2.84l4.18.41c5.05.5 8.55 1.71 10.48 3.62 1.94 1.91 2.9 4.57 2.9 7.97 0 2.43-.33 4.49-.98 6.17-.66 1.68-1.44 2.95-2.35 3.82-.91.87-2.19 1.54-3.85 2-1.67.46-3.12.74-4.38.84-1.25.1-2.92.15-5.01.15-5.02 0-9.68-.51-13.97-1.51zm46.91-35.58V52.9h4.11c1.47 0 2.48-.19 3.02-.55.54-.37.81-1.21.81-2.52V25.72h11.59v20.34c0 3.28-.22 5.93-.64 7.94-.42 2.01-1.22 3.71-2.38 5.1-1.15 1.39-2.74 2.35-4.75 2.89s-4.61.82-7.82.82-5.8-.28-7.79-.82c-1.99-.54-3.57-1.5-4.73-2.89-1.15-1.39-1.95-3.09-2.37-5.1-.43-2.01-.64-4.66-.64-7.94V25.72h11.59zm44.88 27.46h-7.53v8.76h-11.59V25.72h18.25c8.3 0 12.46 4.46 12.46 13.39 0 4.9-1.09 8.53-3.25 10.89-.81.89-1.93 1.64-3.36 2.26-1.43.62-3.09.92-4.98.92zm-7.53-18.19v8.93h2.66c1.39 0 2.4-.15 3.04-.44.64-.29.96-.95.96-2v-4.05c0-1.05-.32-1.71-.96-2-.64-.29-1.65-.44-3.04-.44h-2.66zm47.07 13.27h-11.58v4.4h14.19v9.28H164.7V25.72h25.49l-1.45 9.27h-12.45v4.87h11.58v8.4zm40.42 13.68h-12.75l-4.75-10.78h-2.49v10.78h-11.59V25.72h18.25c8.31 0 12.46 4.23 12.46 12.69 0 5.8-1.8 9.62-5.39 11.47l6.26 12.06zM208.3 34.99v7.24h2.66c1.4 0 2.41-.14 3.05-.43.63-.29.95-.96.95-2v-2.37c0-1.05-.32-1.71-.95-2-.64-.29-1.65-.44-3.05-.44h-2.66zm36.01 26.95H232.2l2.2-36.22h15.13l4.52 18.43h.4l4.52-18.43h15.13l2.2 36.22h-12.11l-.7-17.56h-.4l-4.41 17.56h-8.86l-4.47-17.56h-.34l-.7 17.56zm47.57 0h-12.22l9.38-36.22h17.91l9.39 36.22h-12.23l-1.33-5.74h-9.56l-1.34 5.74zm5.8-25.09-2.38 10.14h5.33l-2.31-10.14h-.64zm55.04 25.09h-12.74l-4.76-10.78h-2.49v10.78h-11.59V25.72h18.26c8.3 0 12.45 4.23 12.45 12.69 0 5.8-1.79 9.62-5.38 11.47l6.25 12.06zm-19.99-26.95v7.24h2.67c1.39 0 2.4-.14 3.04-.43.64-.29.96-.96.96-2v-2.37c0-1.05-.32-1.71-.96-2-.64-.29-1.65-.44-3.04-.44h-2.67zm38.25 11.19v15.76h-11.59V25.72h11.59V40.5h.23c.07-1.16.27-2.09.58-2.79l5.67-11.99h12.52l-8.69 17.79 8.98 18.43h-12.52l-5.96-12.98c-.31-.7-.51-1.63-.58-2.78h-.23zm48.55 2.08h-11.59v4.4h14.2v9.28h-25.79V25.72h25.5l-1.45 9.27h-12.46v4.87h11.59v8.4zm35.92-13.27h-8.4v26.95h-11.59V34.99h-8.4v-9.27h28.39v9.27zM243.46 247.91c2.19 0 3.97 1.78 3.97 3.97 0 2.19-1.78 3.97-3.97 3.97-2.19 0-3.97-1.78-3.97-3.97 0-2.19 1.78-3.97 3.97-3.97zm25.08 0c2.19 0 3.97 1.78 3.97 3.97 0 2.19-1.78 3.97-3.97 3.97-2.19 0-3.97-1.78-3.97-3.97 0-2.19 1.78-3.97 3.97-3.97zm-9.69-62.4h97.91v127.61h-97.91V185.51zm-103.61 0h97.91v127.61h-97.91V185.51zm237.44-15.55h35.24v37.56h-35.24v-37.56zm-361.46 0h35.24v37.56H31.22v-37.56zm88.1 105.6H84.08v37.56h35.24v-37.56zm0-52.8H84.08v37.56h35.24v-37.56zm0-52.8H84.08v37.56h35.24v-37.56zm-88.1 105.6h35.24v37.56H31.22v-37.56zm0-52.8h35.24v37.56H31.22v-37.56zm449.56 52.8h-35.24v37.56h35.24v-37.56zm0-52.8h-35.24v37.56h35.24v-37.56zm0-52.8h-35.24v37.56h35.24v-37.56zm-88.1 105.6h35.24v37.56h-35.24v-37.56zm0-52.8h35.24v37.56h-35.24v-37.56zm-285.35-99.33h309.06V88.54H107.33v34.89z"/></svg>