<svg xmlns="http://www.w3.org/2000/svg" shape-rendering="geometricPrecision" text-rendering="geometricPrecision" image-rendering="optimizeQuality" fill-rule="evenodd" clip-rule="evenodd" viewBox="0 0 386 511.9"><path fill-rule="nonzero" d="M152.94 18.55v18.39c0 6.47-5.9 9.69-11.66 9.69h-34.15v38.08h171.74V46.63h-34.15c-5.76 0-11.66-3.22-11.66-9.69V18.55h-80.12zM53.48 196.9l2.2-11.73c4.84 1.09 9.18 1.64 13.05 1.64 3.85 0 6.96-.15 9.33-.43v-6.41l-7.09-.57c-6.36-.5-10.81-1.91-13.2-4.16-2.39-2.25-3.58-5.58-3.58-9.99 0-6.07 1.45-13.09 4.37-15.37 2.91-2.27 7.87-3.41 14.85-3.41 6.98 0 13.29.59 18.91 1.78l-1.97 11.38c-4.89-.72-8.8-1.07-11.74-1.07-2.94 0-5.44.12-7.48.35v6.34l5.67.5c6.88.59 11.63 2.1 14.26 4.44 2.62 2.35 3.94 5.61 3.94 9.78 0 2.98-.48 8.39-1.34 10.43-.87 2.03-1.96 3.62-3.19 4.69-1.24 1.07-3.01 1.91-5.24 2.45-2.23.55-4.24.92-5.95 1.03-1.71.12-3.98.18-6.81.18-6.84 0-13.16-.62-18.99-1.85zm63.2-49.36v39.05h5.59c2 0 3.37-.22 4.1-.67.74-.45 1.1-1.49 1.1-3.1v-35.28h15.76v30.66c0 3.98-.31 7.31-.86 9.74-.56 2.45-1.66 4.55-3.24 6.26-1.58 1.71-3.75 2.91-6.46 3.55-2.7.65-6.27 1-10.63 1-4.36 0-7.92-.35-10.6-1-2.67-.64-4.87-1.87-6.42-3.55-1.54-1.69-2.65-3.79-3.23-6.26-.58-2.46-.86-5.71-.86-9.74v-30.66h15.75zm77.39 50.14h-17.34l-6.46-16.91h-3.39v16.91h-15.75v-50.14h24.81c11.3 0 16.94 7.2 16.94 17.59 0 7.11-2.44 11.8-7.33 14.08l8.52 18.47zm-27.19-38.77v10.91h3.63c1.89 0 3.28-.17 4.13-.53.86-.35 1.3-1.17 1.3-2.46v-4.93c0-1.28-.44-2.1-1.3-2.46-.85-.35-2.27-.53-4.13-.53h-3.63zm60.76-11.37h16.62l-12.21 50.14h-23l-12.21-50.14h16.62l6.69 33.93h.72l6.77-33.93zm53.28 30.51h-15.76v8.26h19.3v11.37H249.4v-50.14h34.67l-1.97 11.37h-16.94v8.83h15.76v10.31zm24.9-30.51 4.33 21.34h.55l4.42-21.34h17.4l-14.17 38.05v12.09h-15.76v-12.09l-14.18-38.05h17.41zM91.3 320.31a5.683 5.683 0 0 1 8.09-.02c2.23 2.25 2.24 5.9.02 8.17l-9.77 9.9 9.78 9.92c2.2 2.24 2.17 5.87-.07 8.11-2.24 2.24-5.85 2.24-8.06-.01l-9.71-9.84-9.73 9.86a5.671 5.671 0 0 1-8.08.02c-2.24-2.24-2.25-5.9-.02-8.16l9.76-9.91-9.77-9.91c-2.21-2.25-2.18-5.88.06-8.12 2.25-2.23 5.85-2.23 8.06.01l9.71 9.85 9.73-9.87zm224.2 102.51c4.58 0 8.42-3.69 8.42-8.42 0-4.58-3.7-8.43-8.42-8.43H144.18c-4.73 0-8.43 3.85-8.43 8.43 0 4.73 3.85 8.42 8.43 8.42H315.5zm0-154.11c4.58 0 8.42-3.69 8.42-8.42 0-4.59-3.7-8.43-8.42-8.43H144.18c-4.73 0-8.43 3.84-8.43 8.43 0 4.73 3.85 8.42 8.43 8.42H315.5zm0 77.85c4.58 0 8.42-3.71 8.42-8.44 0-4.58-3.7-8.42-8.42-8.42H144.18c-4.73 0-8.43 3.84-8.43 8.42 0 4.73 3.85 8.44 8.43 8.44H315.5zM64.13 414.01c-2.29-3.42-1.38-8.06 2.05-10.35a7.446 7.446 0 0 1 10.34 2.05l4.07 6.04 16.13-19.63a7.45 7.45 0 0 1 10.5-1.02 7.446 7.446 0 0 1 1.02 10.49l-22.31 27.15c-.49.64-1.09 1.21-1.79 1.68-3.42 2.3-8.06 1.38-10.35-2.05l-9.66-14.36zm0-145.77a7.47 7.47 0 0 1 2.05-10.36 7.455 7.455 0 0 1 10.34 2.05l4.07 6.04 16.13-19.63c2.62-3.18 7.32-3.64 10.5-1.02a7.446 7.446 0 0 1 1.02 10.49l-22.31 27.16c-.49.64-1.09 1.2-1.79 1.67-3.42 2.3-8.06 1.38-10.35-2.04l-9.66-14.36zm38.41-164.65c-7.57 0-13.96-6.37-13.96-13.95V70.92H20.52c-1.14 0-2.13 1.04-2.13 2.14v418.15c0 1.18.98 2.13 2.13 2.13h344.96c1.14 0 2.13-.95 2.13-2.13V73.06c0-1.1-.99-2.14-2.13-2.14h-68.06v18.72c0 7.58-6.38 13.95-13.95 13.95H102.54zM20.69 511.9C9.3 511.9 0 502.6 0 491.21V73.06c0-11.41 9.28-20.69 20.69-20.69h68.06V42.19c0-7.67 6.28-13.95 13.95-13.95h31.85V15.43c0-8.33 7.1-15.43 15.43-15.43h86.04c8.33 0 15.43 7.1 15.43 15.43v12.81h31.85c7.67 0 13.96 6.28 13.96 13.95v10.18h68.05c11.41 0 20.69 9.28 20.69 20.69v418.15c0 11.39-9.3 20.69-20.69 20.69H20.69z"/></svg>