<svg xmlns="http://www.w3.org/2000/svg" shape-rendering="geometricPrecision" text-rendering="geometricPrecision" image-rendering="optimizeQuality" fill-rule="evenodd" clip-rule="evenodd" viewBox="0 0 512 234.15"><path d="M438.58 56.17c9.65-20.62 9.48-37.66.19-51.36L381 105.05l14.36 25.46 43.22-74.34zM121.69 79.56h-18.28v58.62H78.2V79.56H59.92V59.38h61.77v20.18zm25.09 58.62h-26.6l20.42-78.8h38.96l20.42 78.8h-26.6l-2.9-12.48h-20.8l-2.9 12.48zm11.48-54.59-4.04 22.06h11.6l-3.92-22.06h-3.64zm72.61-24.21 8.7 21.06h1.26l8.7-21.06h27.36l-17.53 38.08 17.53 40.72H248.9l-9.45-22.69h-1.14l-9.33 22.69h-26.73l17.15-39.97-17.15-38.83h28.62zm27.29 138.18H16.74c-9.07 0-16.71-7.68-16.71-16.72 0-7.95-.11-164.01.11-164.23C.14 7.42 7.47.12 16.64.02L294.53.01a58.736 58.736 0 0 0-4.63 12.07H16.72c-2.48 0-4.74 2.16-4.74 4.66 0 56.43-.02 107.85-.02 164.19 0 2.56 2.18 4.74 4.74 4.74l243.25-.01c-1.01 4.01-1.6 7.98-1.79 11.9zM335.46.01 418.34 0l-6.95 12.06-28.82.02v10.5h-11.8v-10.5h-28.35L335.46.01zM459.26 0h36.02c9.18 0 16.65 7.47 16.65 16.65 0 4.28.17 164.09-.03 164.28 0 9.73-7.26 15.94-16.27 16.58a60.07 60.07 0 0 0-1.79-11.85h1.46c2.58 0 4.74-1.76 4.74-4.49V16.74c0-2.55-2.18-4.74-4.74-4.74l-31.41.02A58.89 58.89 0 0 0 459.26 0zm-88.49 61.28V42.17h11.8v19.91l-3.78 6.56h-3.78l-4.24-7.36zm-55.55-5.11c-9.65-20.62-9.49-37.66-.19-51.36l69.89 121.29c3.25 4.2 5.27 8.66 5.53 13.48.24 4.49-1.05 6.14-1.78 10.06-.59 3.28-.26 6.62 1.93 10.08l2.91 3.19c2.61 2.85 4.85 6.29 9.27 5.73 2.95-.38 5.44-2.88 7.58-6.89 2.76-3.04 5.99-5.41 9.69-7.05 3.58-1.59 7.6-2.51 12.09-2.71 14.09.73 26.28 7.3 35.43 23.16 11.08 18.07 9.81 33.33 1.58 46.99-6.34 8.33-14 11.99-22.71 12.01-13.29.01-24.08-6.37-32.44-16.3-5.3-6.29-9.7-13.84-14.33-22.26l-16.85-21.54-1.98-5.04-65.62-112.84zm62.09 75.18c3.69 0 6.68 2.98 6.68 6.68 0 3.7-2.99 6.68-6.68 6.68a6.68 6.68 0 0 1-6.68-6.68c0-3.7 2.98-6.68 6.68-6.68zm41.53 41.49c4.75-7.28 12.78-8.05 20.43-5.36 6.14 2.16 11.44 6.76 15.92 13.66 3.77 5.83 6.7 15.21 5.96 23.35-1.46 15.77-15.5 18.76-27.74 11.87-5.45-3.06-9.78-7.6-12.91-13.76-2.11-4.16-3.91-9.08-4.58-14.07-.74-5.5-.13-11.07 2.92-15.69zm-53.76-17.62c-.78 3.65-2.42 5.07-4.79 7.67-2.62 2.85-4.86 6.29-9.28 5.73-2.95-.37-5.43-2.88-7.58-6.89-2.76-3.04-5.99-5.41-9.68-7.05-3.58-1.59-7.6-2.5-12.1-2.71-14.09.73-26.27 7.3-35.42 23.16-11.08 18.07-9.82 33.33-1.58 47 6.34 8.32 13.99 11.98 22.71 12 13.29.02 24.07-6.37 32.44-16.3 5.3-6.28 9.7-13.84 14.33-22.26l19.84-25.35c-2.93-5.02-5.92-10-8.89-15zm-30.1 17.62c-4.76-7.28-12.78-8.05-20.44-5.36-6.14 2.16-11.44 6.76-15.92 13.66-3.77 5.83-6.7 15.21-5.93 23.37 1.45 15.77 15.49 18.76 27.73 11.87 5.45-3.06 9.78-7.6 12.92-13.76 2.11-4.16 3.9-9.09 4.57-14.07.73-5.52.09-11.09-2.93-15.71z"/></svg>