<svg xmlns="http://www.w3.org/2000/svg" shape-rendering="geometricPrecision" text-rendering="geometricPrecision" image-rendering="optimizeQuality" fill-rule="evenodd" clip-rule="evenodd" viewBox="0 0 512 208.49"><path d="M296.4 208.49c4.15-53.83 20.56-43.09 66.49-71.82 14.19 29.59 71.85 31.75 83.67 0 39.64 25.34 65.71 15.61 65.44 71.82H296.4zm30.85-147.27h-33.33v16.16c-.13 2.91-1.09 4.97-2.9 6.17-4.85 3.24-9.88-.95-13.01-4.25l-27.9-30.52c-3.59-3.25-3.59-7.88 0-11.13L278.92 6.3c2.92-3.17 7.62-6.41 12.1-3.42 1.81 1.19 2.77 3.25 2.9 6.16v16.17h33.33v36.01zm-142.5 62.16h33.33v16.16c.13 2.91 1.09 4.97 2.9 6.17 4.85 3.24 9.87-.95 13.01-4.25l27.9-30.52c3.59-3.25 3.59-7.88 0-11.13l-28.81-31.35c-2.92-3.17-7.62-6.41-12.1-3.43-1.81 1.2-2.77 3.26-2.9 6.17v16.17h-33.33v36.01zM77.33 134.33c-.62-.79 1.6-6.25 2.12-7.13-6-5.34-10.74-10.73-11.75-21.81l-.65.01c-1.48-.02-2.92-.36-4.26-1.13-2.15-1.22-3.66-3.32-4.68-5.68-2.16-4.97-9.28-21.45 1.57-20.14-6.07-11.33 7.66-30.67-16.01-37.83 19.42-24.59 60.39-62.52 90.42-24.48 32.87 3.19 43.12 42.25 20.99 63.64 1.29.05 2.52.35 3.6.93 4.11 2.2 4.25 6.98 3.17 11-1.07 3.35-2.43 5.62-3.71 8.88-1.56 4.41-3.84 5.24-8.24 4.76-.22 10.91-5.27 16.26-12.05 22.67l1.86 6.29c-9.1 19.3-46.89 20.07-62.38.02zM0 208.49c4.16-53.83 20.56-43.09 66.5-71.82 14.19 29.59 71.84 31.75 83.67 0 39.64 25.34 65.7 15.61 65.43 71.82H0zm373.72-74.16c-.61-.79 1.6-6.25 2.13-7.13-6-5.34-10.75-10.73-11.76-21.81l-.64.01c-1.49-.02-2.92-.36-4.26-1.13-2.15-1.22-3.66-3.32-4.68-5.68-2.16-4.97-9.28-21.45 1.56-20.14-6.06-11.33 7.66-30.67-16.01-37.83 19.42-24.59 60.4-62.52 90.43-24.48 32.86 3.19 43.12 42.25 20.99 63.64 1.29.05 2.51.35 3.6.93 4.11 2.2 4.24 6.98 3.16 11-1.07 3.35-2.43 5.62-3.71 8.88-1.56 4.41-3.83 5.24-8.23 4.76-.23 10.91-5.27 16.26-12.05 22.67l1.85 6.29c-9.09 19.3-46.89 20.07-62.38.02z"/></svg>