<svg xmlns="http://www.w3.org/2000/svg" shape-rendering="geometricPrecision" text-rendering="geometricPrecision" image-rendering="optimizeQuality" fill-rule="evenodd" clip-rule="evenodd" viewBox="0 0 512 384.73"><path fill="#FFCB00" fill-rule="nonzero" d="M26.29 116.43H485.7c7.24 0 13.82 2.96 18.58 7.71 4.76 4.76 7.72 11.34 7.72 18.58v215.71c0 14.49-11.82 26.3-26.3 26.3H26.29C11.8 384.73.07 372.96.03 358.49L0 142.72c0-14.48 11.81-26.29 26.29-26.29z"/><path fill="#FD5" d="M30.12 128.17h451.76c10.11 0 18.38 8.26 18.38 18.38v208.06c0 10.11-8.27 18.38-18.38 18.38H30.12c-10.11.02-18.38-8.24-18.38-18.36V146.55c0-10.12 8.27-18.38 18.38-18.38z"/><path fill-rule="nonzero" d="M108.65 332.71v-27.96H89.68v27.96h-25.3v-79.06h25.3v27.96h18.97v-27.96h25.3v79.06h-25.3zm258.68-155.15H343.5v9.74h20.04v10.84H343.5v11.16h23.73v11.26h-37.75v-54.31h37.85v11.31zm-55.4 20.74 11.03 21.67v.59h-15l-9.1-18.47-6.19-.01v-11.31l7.58.03c1.54 0 2.82-.25 3.86-.75 1.02-.5 1.8-1.24 2.31-2.22.51-.98.76-2.19.76-3.63 0-2.1-.57-3.72-1.71-4.89-1.15-1.17-2.83-1.75-5.07-1.75h-7.73v43h-13.98v-54.31h21.71c4.25 0 7.93.63 11.04 1.88 3.11 1.26 5.51 3.11 7.19 5.54 1.7 2.45 2.55 5.46 2.55 9.07 0 3.23-.48 5.9-1.44 8.01-.96 2.1-2.29 3.8-4 5.14-1.13.88-2.41 1.69-3.81 2.41zm-45.5-18.32c-1.07 1.57-2.19 2.87-3.36 3.92l-5.86-3.14c3.72-6.84 3.15-10 3.15-17.49h9.73c0 7.13.59 10.46-3.66 16.71zM171 166.25h11.83l6.95 33 5.66-33h13.84l-11.27 54.31h-14.5l-6.58-29.5-6.45 29.5h-14.51l-11.3-54.31h13.92l5.63 32.9 6.78-32.9zm81.72 54.31h-37.75v-54.31h37.85v11.31h-23.83v9.74h20.04v10.84h-20.04v11.16h23.73v11.26zM146.59 332.71v-79.06h25.3v79.06h-25.3zm106.88 0h-27.83l-10.37-23.53h-7.35v23.53h-23.38v-79.06h39.84c18.13 0 27.19 9.24 27.19 27.7 0 12.65-3.92 21-11.76 25.05l13.66 26.31zm-45.55-58.82v15.81h7.73c3.04 0 5.25-.32 6.64-.95 1.4-.63 2.09-2.08 2.09-4.36v-5.19c0-2.27-.69-3.73-2.09-4.36-1.39-.63-3.61-.95-6.64-.95h-7.73zm54.41 58.82v-79.06h25.29v79.06h-25.29zm84.36 0c-2.32-3.36-20.96-34.15-21.12-34.15v34.15h-25.3v-79.06h23.78c2.28 3.31 20.5 34.15 21.12 34.15v-34.15h25.3v79.06h-23.78zm76.9-23.28v-3.41h-6.45v-19.35h30.48v42.24c-10.03 3.8-20.4 5.7-31.11 5.7-14.42 0-24.33-3.5-29.72-10.51-2.79-3.62-4.73-7.88-5.82-12.77-1.1-4.89-1.65-10.94-1.65-18.15 0-7.21.57-13.24 1.71-18.09 1.14-4.85 3.18-9.08 6.13-12.71 5.57-7.08 16.32-10.62 32.26-10.62 3.28 0 7.57.33 12.83 1.01 5.28.67 9.13 1.43 11.58 2.28l-3.79 19.34c-6.84-1.18-13.01-1.76-18.53-1.76-5.53 0-9.41.42-11.64 1.26-2.24.84-3.36 2.53-3.36 5.06v35.79h8.35c3.04 0 5.25-.31 6.65-.95 1.38-.63 2.08-2.08 2.08-4.36z"/><path d="M256 0c10.69 0 20.38 4.34 27.38 11.34 7.01 7.01 11.35 16.7 11.35 27.39 0 3.56-.48 7.02-1.38 10.29l84.34 65.5c.72.56 1.33 1.2 1.83 1.91h-29.46L284.2 65.27l-.82.84c-7 7.01-16.69 11.34-27.38 11.34-10.69 0-20.37-4.33-27.38-11.34l-.82-.84-65.86 51.16h-29.46c.5-.71 1.11-1.35 1.83-1.91l84.35-65.51c-.9-3.27-1.38-6.72-1.38-10.28 0-10.69 4.33-20.38 11.34-27.39C235.63 4.33 245.31 0 256 0zm.01 22.35c4.52 0 8.61 1.83 11.58 4.8 2.96 2.96 4.8 7.05 4.8 11.58 0 4.52-1.84 8.62-4.8 11.58-2.97 2.96-7.06 4.8-11.58 4.8-4.53 0-8.62-1.84-11.59-4.8a16.332 16.332 0 0 1-4.79-11.58c0-4.53 1.83-8.62 4.79-11.58 2.97-2.97 7.06-4.8 11.59-4.8z"/></svg>