<svg xmlns="http://www.w3.org/2000/svg" shape-rendering="geometricPrecision" text-rendering="geometricPrecision" image-rendering="optimizeQuality" fill-rule="evenodd" clip-rule="evenodd" viewBox="0 0 512 204.8"><path fill-rule="nonzero" d="M189.22 121.97h32.84v15.93c.13 2.87 1.07 4.9 2.86 6.08 4.78 3.19 9.73-.94 12.82-4.19l27.49-30.07c3.54-3.21 3.54-7.77 0-10.97l-28.39-30.89c-2.87-3.13-7.51-6.31-11.92-3.37-1.79 1.18-2.73 3.21-2.86 6.08v15.92h-32.84v35.48zm269.51 35.82c-5.48-11-12.43-20.33-20.52-29.1 57.12 22.1 57.57 15.56 73.79 76.11H300.67c16.21-60.54 16.69-54.02 73.79-76.11-8.08 8.77-15.03 18.1-20.51 29.1l15.87-.39 35.63 28.46 37.4-28.46 15.88.39zm-78.33-39.4v9.58l-9.44 15.86 35.36 27.9 35.4-28.15-12.38-16.53v-8.92c12.72-.67 23.64-1.81 29.68-3.28 7.82-1.9 14.33-4.76 18.82-9.06-7.01-3.37-11.49-9.14-14.07-16.67-6-17.5-.32-29.43-2.99-48.44-3.59-25.46-20.23-33.98-36.74-32.22-21.06-17.31-58.85-7.19-69.07 22.39-5.16 14.93-2.02 19.68-2.57 34.81-.74 20.37-6.05 33.98-17.57 38.32 3.99 4.74 9.69 8.39 17.2 10.84 5.61 1.83 16.04 2.98 28.37 3.57zm-222.35 39.4c-5.48-11-12.43-20.33-20.51-29.1 57.11 22.1 57.56 15.56 73.79 76.11H0c16.21-60.54 16.68-54.02 73.79-76.11-8.09 8.77-15.03 18.1-20.52 29.1l15.87-.39 35.64 28.46 37.4-28.46 15.87.39zm-78.32-39.4v9.58l-9.45 15.86 35.36 27.9 35.4-28.15-12.37-16.53v-8.92c12.72-.67 23.64-1.81 29.68-3.28 7.81-1.9 14.33-4.76 18.82-9.06-7.01-3.37-11.5-9.14-14.07-16.67-6-17.5-.32-29.43-2.99-48.44-3.59-25.46-20.23-33.98-36.74-32.22C102.31-8.85 64.52 1.27 54.3 30.85c-5.16 14.93-2.03 19.68-2.58 34.81-.74 20.37-6.04 33.98-17.56 38.32 3.98 4.74 9.69 8.39 17.2 10.84 5.6 1.83 16.04 2.98 28.37 3.57zm249.9-57.66h-32.84v15.92c-.13 2.87-1.07 4.9-2.86 6.08-4.78 3.19-9.73-.93-12.82-4.18l-27.49-30.08c-3.54-3.2-3.54-7.76 0-10.97l28.39-30.88c2.87-3.13 7.51-6.32 11.92-3.38 1.79 1.18 2.73 3.21 2.86 6.08v15.93h32.84v35.48z"/></svg>