<svg xmlns="http://www.w3.org/2000/svg" shape-rendering="geometricPrecision" text-rendering="geometricPrecision" image-rendering="optimizeQuality" fill-rule="evenodd" clip-rule="evenodd" viewBox="0 0 439 511.86"><path d="M327.55 288.97c61.54 0 111.45 49.9 111.45 111.45 0 61.54-49.91 111.44-111.45 111.44-61.54 0-111.44-49.9-111.44-111.44 0-61.55 49.9-111.45 111.44-111.45zm51.04-266.59C378.59 10.08 368.5 0 356.21 0H22.37C10.07 0 0 10.08 0 22.38v414.06c0 12.3 10.07 22.38 22.37 22.38h178.45c-2.37-5.13-4.43-10.43-6.17-15.87h-176c-1.24 0-2.35-1.07-2.35-2.34V20.27c0-1.26 1.11-2.35 2.35-2.35h341.89c1.26 0 2.34 1.15 2.34 2.35v245.18c5.37 1.41 10.61 3.12 15.71 5.14V22.38zM57.34 55.28h12.41v51.94H57.34V55.28zm22.85 0h11.54l15.02 28.68V55.28h11.7v51.94h-11.7L91.82 78.7v28.52H80.19V55.28zm44.04 0h12.93l9.02 37.39 8.9-37.39h12.56l-14.87 51.94h-13.41l-15.13-51.94zm50.89 6.22c7.28-9.44 23.28-9.59 30.63-.14 6.4 8.23 6.9 24.95 3.05 34.42-1.57 3.88-3.86 6.91-6.84 9.07-5.89 4.28-16.26 4.29-22.35.45-2.96-1.86-5.36-4.83-7.2-8.86-4.36-9.59-3.82-26.49 2.71-34.94zm9.15 31.12c2.96 4.5 9.36 4.66 12.34.07 2.96-4.55 3.03-18.14-.1-22.78-3.06-4.54-9.2-4.51-12.22.05-3.08 4.65-3.09 17.99-.02 22.66zm35.52-37.34h12.42v51.94h-12.42V55.28zm49.43 30.68 10.85 4.25c-.73 3.94-1.88 7.25-3.45 9.88-1.56 2.64-3.51 4.64-5.84 5.98-2.32 1.34-5.27 2.02-8.86 2.02-4.37 0-7.93-.82-10.68-2.45-2.77-1.63-5.15-4.54-7.15-8.65-2-4.12-3.01-9.42-3.01-15.85 0-8.59 1.76-15.2 5.29-19.81 3.52-4.61 8.52-6.92 14.97-6.92 5.04 0 9.02 1.32 11.91 3.97 2.87 2.64 5.03 6.71 6.43 12.2l-10.91 3.13c-.38-1.57-.79-2.73-1.2-3.45-.69-1.21-1.56-2.16-2.55-2.82-1-.65-2.12-.99-3.37-.99-2.81 0-4.96 1.48-6.45 4.38-1.12 2.17-1.7 5.57-1.7 10.2 0 5.76.67 9.7 2.02 11.83 1.35 2.12 3.25 3.19 5.69 3.19 2.37 0 4.16-.86 5.37-2.59 1.21-1.71 2.09-4.21 2.64-7.5zm18.3-30.68h33.12v11.11h-20.7v8.26h19.19v10.6h-19.19v10.22h21.31v11.75h-33.73V55.28zM96.3 186.56c-3.99 0-7.23-3.24-7.23-7.23 0-4 3.24-7.24 7.23-7.24h144.05c3.99 0 7.24 3.24 7.24 7.24 0 3.99-3.25 7.23-7.24 7.23H96.3zm0 118.52c-3.99 0-7.23-3.24-7.23-7.23s3.24-7.23 7.23-7.23h145.33a139.93 139.93 0 0 0-10.96 9.54l-1.76 1.61-3.2 3.31H96.3zm0-43.89c-3.98 0-7.22-3.25-7.22-7.23 0-3.98 3.24-7.23 7.22-7.23h144.05c3.99 0 7.23 3.25 7.23 7.23 0 3.98-3.24 7.23-7.23 7.23H96.3zm212.32-36.62H69.97v143.61H191.8c-1.12 4.73-2.02 9.56-2.64 14.47H62.73c-3.99 0-7.23-3.25-7.23-7.24V142.86c0-4 3.24-7.24 7.23-7.24h253.12c3.99 0 7.23 3.24 7.23 7.24v118.11c-4.88.16-9.71.57-14.46 1.21v-37.61zM69.97 210.1h238.65v-60.01H69.97v60.01zm325.17 194.33h-20.57l-9.56 45.44h-24.65l-10.66-45.44h-3.68l-10.38 45.44h-24.66l-9.57-45.44h-21.44v-13.85h18.39l-1.66-7.89h-16.73v-13.86h13.82l-3.72-17.87h23.54l3.33 17.87h17.73l3.88-17.87h18.62l4.02 17.87h17.87l3.19-17.87h23.69l-3.76 17.87h12.96v13.86h-15.99l-1.67 7.89h17.66v13.85zm-42.58 0h-3.48l1.94 8.59 1.54-8.59zm-45.79 0h-3.33l1.52 8.59 1.81-8.59zm-5.95-13.85h8.98l1.82-7.89h-12.2l1.4 7.89zm45.21 0h9.01l1.54-7.89h-12.35l1.8 7.89z"/></svg>