<svg xmlns="http://www.w3.org/2000/svg" shape-rendering="geometricPrecision" text-rendering="geometricPrecision" image-rendering="optimizeQuality" fill-rule="evenodd" clip-rule="evenodd" viewBox="0 0 439 511.87"><path d="M327.55 288.97c61.54 0 111.45 49.91 111.45 111.45 0 61.53-49.91 111.45-111.45 111.45-61.54 0-111.44-49.92-111.44-111.45 0-61.54 49.9-111.45 111.44-111.45zm51.03-266.59C378.58 10.07 368.51 0 356.21 0H22.37C10.07 0 0 10.07 0 22.38v414.07c0 12.29 10.07 22.37 22.37 22.37h178.45c-2.36-5.13-4.43-10.42-6.17-15.86h-176c-1.23 0-2.35-1.09-2.35-2.35V20.27c0-1.26 1.12-2.34 2.35-2.34h341.89c1.26 0 2.35 1.14 2.35 2.34v245.15c5.36 1.41 10.6 3.12 15.69 5.12V22.38zM57.33 55.29h12.42v51.93H57.33V55.29zm22.86 0h11.55l15.01 28.67V55.29h11.7v51.93h-11.7L91.82 78.7v28.52H80.19V55.29zm44.04 0h12.93l9.02 37.38 8.9-37.38h12.56l-14.87 51.93h-13.41l-15.13-51.93zm50.89 6.21c7.28-9.44 23.28-9.59 30.63-.14 6.4 8.22 6.89 24.94 3.05 34.43-1.57 3.87-3.86 6.9-6.84 9.06-5.89 4.28-16.26 4.3-22.35.45-2.96-1.87-5.36-4.83-7.2-8.86-4.36-9.59-3.82-26.49 2.71-34.94zm9.15 31.12c2.96 4.5 9.36 4.66 12.34.08 2.96-4.56 3.03-18.15-.1-22.78-3.06-4.54-9.2-4.52-12.22.04-3.08 4.66-3.09 18-.02 22.66zm35.52-37.33h12.42v51.93h-12.42V55.29zm49.43 30.68 10.85 4.24c-.72 3.94-1.88 7.24-3.45 9.88-1.56 2.64-3.51 4.64-5.84 5.99-2.31 1.33-5.27 2.01-8.86 2.01-4.36 0-7.93-.82-10.68-2.45-2.77-1.63-5.15-4.53-7.15-8.66-2-4.11-3-9.41-3-15.84 0-8.6 1.75-15.2 5.28-19.81 3.52-4.61 8.52-6.91 14.97-6.91 5.05 0 9.02 1.31 11.91 3.96 2.88 2.64 5.03 6.71 6.43 12.19l-10.91 3.14c-.38-1.57-.79-2.73-1.2-3.44-.7-1.22-1.56-2.17-2.55-2.83-1-.65-2.12-.99-3.37-.99-2.81 0-4.96 1.48-6.45 4.38-1.11 2.17-1.7 5.58-1.7 10.21 0 5.75.67 9.68 2.02 11.82 1.35 2.13 3.25 3.2 5.69 3.2 2.37 0 4.16-.87 5.37-2.6 1.21-1.71 2.09-4.21 2.64-7.49zm18.3-30.68h33.12v11.1h-20.7v8.26h19.19v10.6h-19.19v10.23h21.31v11.74h-33.73V55.29zM96.3 186.56c-3.99 0-7.23-3.24-7.23-7.24 0-3.99 3.24-7.23 7.23-7.23h144.05c4 0 7.24 3.24 7.24 7.23 0 4-3.24 7.24-7.24 7.24H96.3zm0 118.53c-3.99 0-7.23-3.24-7.23-7.23s3.24-7.24 7.23-7.24h145.18c-4.42 3.47-8.61 7.2-12.57 11.15v.11l-3.1 3.21H96.3zm0-43.91c-3.98 0-7.22-3.24-7.22-7.22 0-3.98 3.24-7.23 7.22-7.23h144.05c3.99 0 7.23 3.25 7.23 7.23 0 3.98-3.24 7.22-7.23 7.22H96.3zm212.31-36.61H69.97v143.61H191.8c-1.12 4.73-2 9.56-2.63 14.47H62.73c-3.99 0-7.23-3.25-7.23-7.24V142.86c0-3.99 3.24-7.23 7.23-7.23h253.12c3.99 0 7.23 3.24 7.23 7.23v118.11c-4.89.16-9.71.56-14.47 1.21v-37.61zM69.97 210.1h238.64v-60H69.97v60zm205.44 134.51h34.77l17.53 37.82 17.12-37.82h34.86l-26.57 48.16h22.67v16.84h-32.11v9.2h32.11v16.98h-32.11v20.42h-31.63v-20.42h-32.58v-16.98h32.58v-9.2h-32.58v-16.84h23.3l-27.36-48.16z"/></svg>