<svg xmlns="http://www.w3.org/2000/svg" shape-rendering="geometricPrecision" text-rendering="geometricPrecision" image-rendering="optimizeQuality" fill-rule="evenodd" clip-rule="evenodd" viewBox="0 0 439 511.86"><path d="M327.56 288.96c61.53 0 111.44 49.92 111.44 111.45s-49.91 111.45-111.44 111.45c-61.54 0-111.45-49.92-111.45-111.45s49.91-111.45 111.45-111.45zm51.02-266.58C378.58 10.07 368.5 0 356.2 0H22.38C10.08 0 0 10.07 0 22.38v414.06c0 12.29 10.08 22.37 22.38 22.37h178.45c-2.37-5.13-4.43-10.42-6.17-15.86H18.65c-1.23 0-2.34-1.09-2.34-2.35V20.27c0-1.26 1.11-2.34 2.34-2.34h341.89c1.25 0 2.34 1.14 2.34 2.34v245.14c5.37 1.4 10.6 3.11 15.7 5.12V22.38zM62.73 135.63h253.11c4 0 7.24 3.24 7.24 7.23v118.11c-4.89.15-9.72.57-14.47 1.21v-37.61H69.97v143.6h121.84c-1.13 4.73-2.01 9.56-2.64 14.47H62.73c-3.99 0-7.23-3.24-7.23-7.24V142.86c0-3.99 3.24-7.23 7.23-7.23zm-5.4-80.34h12.43v51.93H57.33V55.29zm22.86 0h11.55l15.02 28.67V55.29h11.69v51.93h-11.69L91.82 78.7v28.52H80.19V55.29zm44.04 0h12.93l9.03 37.38 8.89-37.38h12.55l-14.86 51.93h-13.41l-15.13-51.93zm50.89 6.21c7.28-9.44 23.28-9.59 30.63-.14 6.41 8.22 6.89 24.94 3.05 34.43-1.58 3.87-3.86 6.9-6.83 9.06-5.9 4.28-16.27 4.3-22.36.45-2.96-1.87-5.36-4.83-7.2-8.86-4.36-9.59-3.81-26.49 2.71-34.94zm9.15 31.12c2.97 4.5 9.36 4.65 12.33.07 2.96-4.55 3.04-18.14-.09-22.77-3.06-4.54-9.2-4.52-12.22.04-3.08 4.66-3.09 18-.02 22.66zm35.52-37.33h12.42v51.93h-12.42V55.29zm49.43 30.68 10.85 4.24c-.73 3.94-1.89 7.24-3.45 9.88-1.57 2.63-3.51 4.64-5.83 5.99-2.32 1.33-5.28 2.01-8.88 2.01-4.35 0-7.91-.82-10.68-2.45-2.76-1.64-5.14-4.54-7.14-8.66s-3.01-9.41-3.01-15.85c0-8.59 1.76-15.19 5.28-19.8 3.53-4.61 8.52-6.91 14.98-6.91 5.04 0 9.02 1.31 11.9 3.95 2.89 2.65 5.04 6.72 6.43 12.2l-10.9 3.14c-.38-1.58-.79-2.73-1.2-3.44-.7-1.22-1.55-2.17-2.55-2.83-1-.65-2.13-.99-3.36-.99-2.82 0-4.97 1.48-6.47 4.38-1.11 2.17-1.69 5.58-1.69 10.21 0 5.75.67 9.68 2.02 11.81 1.34 2.14 3.25 3.2 5.69 3.2 2.37 0 4.16-.87 5.37-2.59 1.2-1.71 2.09-4.21 2.64-7.49zm18.3-30.68h33.12v11.09h-20.71v8.27h19.19v10.6h-19.19v10.22h21.32v11.75h-33.73V55.29zM96.31 186.55c-3.99 0-7.23-3.24-7.23-7.23s3.24-7.23 7.23-7.23h144.04c3.99 0 7.23 3.24 7.23 7.23s-3.24 7.23-7.23 7.23H96.31zm0 118.54c-3.99 0-7.23-3.25-7.23-7.24s3.24-7.23 7.23-7.23h145.17c-4.42 3.46-8.6 7.19-12.56 11.15v.11l-3.11 3.21H96.31zm0-43.91c-3.98 0-7.23-3.24-7.23-7.23 0-3.98 3.25-7.22 7.23-7.22h144.04c3.98 0 7.22 3.24 7.22 7.22 0 3.99-3.24 7.23-7.22 7.23H96.31zM69.97 210.1h238.64v-60.01H69.97v60.01zm207.09 136.27h33.67L327.7 383l16.58-36.63h33.77l-25.74 46.65-9.13 16.3v8.91h31.09v16.45h-31.09v19.78h-30.65v-19.78h-31.54v-16.45h31.54v-8.91l-8.98-16.3-26.49-46.65z"/></svg>