<?xml version="1.0" encoding="utf-8"?><svg version="1.1" id="Layer_1" xmlns="http://www.w3.org/2000/svg" xmlns:xlink="http://www.w3.org/1999/xlink" x="0px" y="0px" viewBox="0 0 68.51 122.88" style="enable-background:new 0 0 68.51 122.88" xml:space="preserve"><style type="text/css">.st0{fill-rule:evenodd;clip-rule:evenodd;}</style><g><path class="st0" d="M18.32,23.02c1.4-2.82,2.93-5.27,4.61-7.31c1.74-2.1,3.63-3.77,5.69-4.93c1.85-1.04,4.16-1.61,6.64-1.76 c0.59-2.19,2.64-3.12,5.16-2.44l0.99-4.66c0.64-3.13,5.46-2.09,5.09,0.7l-0.88,5.21c2.14,0.13,3.78,1.4,3.65,4.53 c1.63,1.01,3,2.22,3.96,3.61l0,0c0.5,0.73,0.93,1.52,1.26,2.35c0.34,0.83,0.6,1.72,0.78,2.69c0.57,3.01,0.55,6.27,0.54,9.71 c-0.01,3.57-0.03,7.35,0.65,11.16c0.19,1.09,0.39,2.1,0.6,3.02c0.21,0.95,0.45,1.94,0.72,2.96c1.14,4.31,2.9,8.45,4.66,12.57 c2.97,6.95,5.92,13.86,6.05,21.85c0.15,9.4-2.99,19.25-8.68,26.87c-5.23,7-12.6,12.15-21.56,13.42 c-9.03,1.28-16.99-1.36-23.28-6.36c-6.91-5.5-11.79-13.86-13.83-22.97c-3.62-16.21,1.96-31.45,7.43-46.35l0.67-1.83 c1.34-3.66,2.76-7.32,4.26-10.98c1.52-3.7,3.11-7.36,4.78-10.97L18.32,23.02L18.32,23.02z M32.6,56.92c0.87,0,1.73,0.09,2.57,0.27 c0.2-0.01,0.4-0.01,0.6-0.01v0c5.38,0,10.22,3.01,13.71,7.88c3.39,4.75,5.49,11.29,5.49,18.49c0,7.2-2.1,13.74-5.49,18.49 c-3.48,4.87-8.32,7.88-13.71,7.88c-5.38,0-10.22-3.01-13.71-7.88c-1.6-2.24-2.92-4.89-3.86-7.81c-1.78-3.79-2.82-8.33-2.82-13.21 C15.39,67.7,23.09,56.92,32.6,56.92L32.6,56.92z M43.48,62.34c3.86,4.42,6.33,11.14,6.33,18.67c0,13.3-7.71,24.09-17.22,24.09 c-2.04,0-4.01-0.5-5.83-1.42c2.6,2.38,5.69,3.76,8.99,3.76c4.54,0,8.68-2.61,11.7-6.84c3.11-4.35,5.03-10.38,5.03-17.06 c0-6.68-1.92-12.71-5.03-17.06C46.29,64.84,44.95,63.44,43.48,62.34L43.48,62.34z M25.28,17.64c-1.53,1.85-2.93,4.12-4.24,6.74 c-1.67,3.63-3.25,7.25-4.73,10.85c-1.48,3.6-2.88,7.22-4.21,10.87l-0.67,1.83C6.12,62.42,0.68,77.24,4.11,92.58 c1.89,8.45,6.39,16.19,12.76,21.25c5.67,4.51,12.84,6.88,20.97,5.73c8.09-1.15,14.79-5.85,19.56-12.23c5.3-7.1,8.22-16.26,8.08-25 c-0.12-7.38-2.96-14.02-5.81-20.71c-1.8-4.22-3.61-8.46-4.8-12.98c-0.26-0.97-0.51-2-0.74-3.07c-0.25-1.11-0.46-2.16-0.63-3.15 c-0.71-4.02-0.7-7.96-0.68-11.7c0.01-3.28,0.03-6.39-0.49-9.14c-0.14-0.75-0.34-1.45-0.61-2.1c-0.26-0.65-0.58-1.24-0.94-1.77 v-0.01c-1.74-2.53-5.43-4.36-9.42-5.19c-4.09-0.85-8.42-0.64-11.23,0.93C28.38,14.41,26.77,15.83,25.28,17.64L25.28,17.64z"/></g></svg>