<?xml version="1.0" encoding="utf-8"?><svg version="1.1" id="Layer_1" xmlns="http://www.w3.org/2000/svg" xmlns:xlink="http://www.w3.org/1999/xlink" x="0px" y="0px" viewBox="0 0 122.88 95.04" style="enable-background:new 0 0 122.88 95.04" xml:space="preserve"><style type="text/css">.st0{fill-rule:evenodd;clip-rule:evenodd;fill:#8FBA39;} .st1{fill-rule:evenodd;clip-rule:evenodd;fill:#078407;}</style><g><path class="st0" d="M86.79,91.18c-13.9,4.22-28.68,5.15-44.95,1.93c-7.37-4.47-16.84-10.99-21.97-19.74 C10.57,69.29,7.05,62.08,5.65,53.72c3.01,4.9,6.54,8.75,10.61,11.51c-1.7-5.8-4.68-65.85,1.97-16.97 c4.97-1.29,10.05-6.56,14.66-12.91c-3.13,8.92-7.8,15.46-14.12,19.48l3.93,12.36c6.02-4.81,11.05-10.54,15.27-17.02 c-2.11,8.67-5.86,16.36-13.15,21.92l0,0c7.28,15.55,41.92,29.72,54.4,16.77c11.36-11.76,3.36-19.97-5.98-27.93 c-9.53-8.12-18.34-14.23-14.38-15.3c0.37-0.1,0.72-0.2,1.06-0.31c0.7,0.81,1.42,1.6,2.18,2.37c7.59,7.67,18.65,11.2,22.65,21.79 c1.66,4.38,1.72,9.4-0.41,15.3c6.03-3.49,10.66-7.62,13.34-12.63c-6.75-5.76-9.98-13.38-11.56-21.88 c3.74,6.48,8.3,12.29,13.87,17.25l4.45-11.74c-5.9-4.22-10.08-10.79-12.63-19.57c4.12,6.38,8.76,11.74,13.49,13.25 c8.99-46.91,2.97,10.99,1.02,16.51c4.08-2.45,7.69-5.99,10.86-10.57c-1.78,8.01-5.55,14.8-14.77,18.25 c-5.45,8.25-11.85,14.39-19.22,18.32C84.41,91.75,85.61,91.48,86.79,91.18L86.79,91.18z"/><path class="st0" d="M41.91,4.68c6-2.74,12.66-4.26,19.69-4.26c8.34,0,16.19,2.15,23,5.93c0,0.72,0.02,1.41,0.08,2.07 c0.03,0.32,0.06,0.63,0.1,0.94c-0.75-0.25-1.53-0.65-2.47-1.13H82.3l0.01-0.01L82.27,8.2c-1.85-0.94-4.11-0.2-5.05,1.64 c-0.24,0.47-0.37,0.97-0.4,1.46c-0.06,0.54-0.16,1.19-0.25,1.84c-0.17,1.14-0.34,2.29-0.42,3.45c-0.4-0.22-0.78-0.49-1.16-0.82 c-1.56-1.37-3.93-1.22-5.3,0.34c-0.45,0.52-0.74,1.12-0.86,1.75c-0.62,2.36-0.73,4.64-0.56,6.83c-1.14-0.64-2.24-1.4-3.29-2.14 c-1.69-1.19-4.02-0.79-5.21,0.9c-0.38,0.53-0.59,1.13-0.66,1.73H59.1c-0.07,0.59-0.12,1.19-0.14,1.8c-0.51-0.1-1.04-0.19-1.58-0.27 c0.12-0.58,0.23-1.17,0.32-1.76c0.34-2.38,0.36-4.88-0.22-7.51h-0.02c-0.12-0.54-0.36-1.06-0.72-1.51 c-1.28-1.62-3.63-1.9-5.25-0.62c-0.47,0.37-0.95,0.66-1.45,0.88c-0.02-1.26-0.13-2.52-0.25-3.77c-0.05-0.6-0.11-1.19-0.15-1.92 c0-0.5-0.11-1-0.32-1.48c-0.83-1.9-3.05-2.76-4.95-1.92h-0.02v0.01l-0.02,0.01c-1.08,0.48-1.96,0.87-2.82,1.08 c0.07-0.38,0.14-0.76,0.19-1.16C41.81,6.29,41.87,5.5,41.91,4.68L41.91,4.68L41.91,4.68z"/><path class="st1" d="M24.83,72.09c7.29-5.56,11.04-13.25,13.15-21.92c-4.22,6.48-9.25,12.21-15.27,17.02l-3.93-12.36 c6.32-4.02,10.99-10.56,14.12-19.48c-4.61,6.35-9.69,11.62-14.66,12.91c-6.65-48.88-3.67,11.17-1.97,16.97 c-4.07-2.76-7.6-6.61-10.61-11.51c1.39,8.36,4.91,15.57,14.22,19.65c5.17,8.81,14.75,15.37,22.14,19.84 c-46.54-5.16-57.09-57.86-18.13-82.93C28.64,7.23,33.62,4.23,38.02,0c0.45,4.88,0.03,8.8-1.67,11.28c4.05,1.7,6.06,0.79,9.55-0.76 c0.21,3.61,1.06,7.58-0.6,10.5c3.32-0.49,5.77-0.62,8.52-2.79c0.95,4.31-0.06,8.23-1.27,11.83c4.29,0.09,7.79,0.84,10.38,1.98 c-0.29-2.16-0.33-4.39-0.1-6.45c2.98,2.11,6.46,4.36,10.28,4.49c-0.98-3.55-1.75-7.39-0.61-11.5c2.55,2.24,4.91,2.5,8.09,3.15 c-1.45-2.91-0.42-6.71-0.03-10.19c3.29,1.68,5.19,2.66,9.19,1.23c-1.52-2.49-1.72-6.29-1.03-10.99c4.03,4.32,8.69,7.48,13.12,10.68 c11.26,8.14,19.45,18.56,20.85,32.93c2.13,21.81-14.86,42-39.51,46.58c7.37-3.93,13.77-10.07,19.22-18.32 c9.22-3.45,12.99-10.24,14.77-18.25c-3.17,4.58-6.78,8.12-10.86,10.57c1.95-5.52,7.97-63.42-1.02-16.51 c-4.73-1.51-9.37-6.87-13.49-13.25c2.55,8.78,6.73,15.35,12.63,19.57L100,67.52c-5.57-4.96-10.13-10.77-13.87-17.25 c1.58,8.5,4.81,16.12,11.56,21.88c-2.68,5.01-7.31,9.14-13.34,12.63c2.13-5.9,2.07-10.92,0.41-15.3 c-4-10.59-15.06-14.12-22.65-21.79c-0.76-0.77-1.48-1.56-2.18-2.37c-0.34,0.11-0.69,0.21-1.06,0.31 c-3.96,1.07,4.85,7.18,14.38,15.3c9.34,7.96,17.34,16.17,5.98,27.93C66.74,101.81,32.11,87.64,24.83,72.09L24.83,72.09L24.83,72.09 z"/></g></svg>