<svg id="Layer_1" data-name="Layer 1" xmlns="http://www.w3.org/2000/svg" viewBox="0 0 122.88 114.26"><title>cauliflower</title><path d="M6.41,53.14a2.58,2.58,0,0,1,.08,1.1A33.84,33.84,0,0,0,2.88,51.8a3.92,3.92,0,0,0-2.56-.51h0A26,26,0,0,1,1.1,39.74,27.33,27.33,0,0,1,7.77,28.47a26.56,26.56,0,0,1,11.41-6.88,25.63,25.63,0,0,1,5.44-1l.16-.39A21.71,21.71,0,0,1,34.67,9.31,20.8,20.8,0,0,1,44.81,6.87a2.63,2.63,0,0,1,.53-.72q.54-.53,1.2-1.05C51.41,1.17,58.66-.43,65.73.1s14.1,3.17,18.52,7.74c.38.39.75.82,1.12,1.27a3.51,3.51,0,0,1,.27.4,19.74,19.74,0,0,1,11,7.65,17.46,17.46,0,0,1,1.9,3.58,24.71,24.71,0,0,1,4.76.87,26.46,26.46,0,0,1,10.19,5.56c5.88,5.15,9.92,13.27,9.29,24.08a4.07,4.07,0,0,0-1.91.55A31.46,31.46,0,0,0,117,54.42a2.8,2.8,0,0,1,0-.87c1.36-10.32-2-17.86-7.22-22.4a20.94,20.94,0,0,0-8-4.38,18.44,18.44,0,0,0-8.38-.46,12.75,12.75,0,0,0-9.91,8.27,2.79,2.79,0,0,1-3.54,1.64,2.67,2.67,0,0,1-1.69-3.43A18.1,18.1,0,0,1,92.29,21l.25,0q-.26-.45-.54-.87a14.41,14.41,0,0,0-8.2-5.52,21.39,21.39,0,0,0-11.25.1l-.49.14a27.57,27.57,0,0,1,8.8,6.07,2.63,2.63,0,0,1,0,3.8,2.84,2.84,0,0,1-3.92-.05,19.67,19.67,0,0,0-9.74-5.72,13.78,13.78,0,0,0-7.61.59A18.58,18.58,0,0,0,52.81,24a25.15,25.15,0,0,0-6,9.89l.69.08c7.8,1,14.95,4.37,19.77,9.26a2.63,2.63,0,0,1-.1,3.8,2.82,2.82,0,0,1-3.91-.1c-4-4-9.92-6.8-16.47-7.64A31.45,31.45,0,0,0,28.24,42.5a2.82,2.82,0,0,1-3.75-1.1,2.65,2.65,0,0,1,1.13-3.64,36.56,36.56,0,0,1,15.51-4.1,30.75,30.75,0,0,1,7.69-13.42,24.15,24.15,0,0,1,8.77-5.74,19.49,19.49,0,0,1,5.25-1.16h0A27.36,27.36,0,0,1,71,9.53a27.85,27.85,0,0,1,5-.91A28.35,28.35,0,0,0,65.39,5.79,25.28,25.28,0,0,0,51.94,8.17c.4.14.79.29,1.19.45a2.66,2.66,0,0,1,1.48,3.52A2.82,2.82,0,0,1,51,13.57a18.77,18.77,0,0,0-2.07-.71A15.55,15.55,0,0,0,37.31,14a16.26,16.26,0,0,0-6.74,6.78,29.21,29.21,0,0,1,4.17.92,2.67,2.67,0,0,1,1.84,3.36,2.78,2.78,0,0,1-3.46,1.78,21.43,21.43,0,0,0-12.33-.14,21,21,0,0,0-9,5.45,21.9,21.9,0,0,0-5.37,9.06,20.72,20.72,0,0,0,0,11.91ZM43.35,92.6c-.2-7.68-3.57-14-8.44-19.69A59.86,59.86,0,0,1,39,91.64l-10.32-3.4C29,82,26.88,75.59,22.36,69.1c2.05,6.24,3.13,12.28,1.57,16.29-36.46-19.48,5.79,8,10.56,9.67a30.85,30.85,0,0,1-13,1.55c6.37,3.16,13,4.32,20.33,0,6.2,2.11,13,4.3,19.74,4.42,7.21.14,14.31-1.93,20.4-4.42,7.34,4.33,14,3.17,20.33,0a30.85,30.85,0,0,1-13-1.55c4.77-1.7,47-29.15,10.56-9.67-1.56-4-.47-10,1.58-16.29-4.52,6.49-6.68,12.88-6.3,19.14l-10.32,3.4a59.85,59.85,0,0,1,4.06-18.73c-4.86,5.69-8.24,12-8.44,19.69C74.69,94.89,68,97,61.33,96.86c-6.27-.08-12.55-2.18-18-4.26ZM.92,62.91c.23-4.71.66-2.64-.05-7.7,3.54,2.09,6,4.3,6.84,6.67C10.84,60,11.22,58.16,11.88,55c2.55,1.63,5.66,3,6.83,5.56C20,58.1,21.12,56.37,21,53.43c3.39,1.47,5.56,4.08,7.42,6.67,2-2.65,2.37-6.22,2.57-9.37a23.13,23.13,0,0,1,7.57,8c.18-3.79,2.17-5.53,5.24-6,3.81,9.28.33,21,17.62,37.83,17.12-17.17,14.72-28.64,18.5-37.83,3.08.5,5.06,2.24,5.24,6a23.07,23.07,0,0,1,7.58-8c.2,3.15.57,6.72,2.57,9.37,1.85-2.59,4-5.2,7.41-6.67-.12,2.94,1,4.67,2.29,7.16,1.17-2.56,4.28-3.93,6.84-5.56.66,3.13,1,4.94,4.17,6.85.85-2.37,3.3-4.58,6.84-6.67-.72,5.06-.28,3,0,7.7,3.48,70.61-125.19,66.28-121.89,0ZM99.59,50.58a15.72,15.72,0,0,0-1.36-4,24.51,24.51,0,0,0-7.34-8.31,2.63,2.63,0,0,1-.48-3.76A2.83,2.83,0,0,1,94.3,34a29.77,29.77,0,0,1,8.92,10.22,21.17,21.17,0,0,1,2,6.07,3.93,3.93,0,0,0-4-.52,15.24,15.24,0,0,0-1.57.77ZM64.81,68.8A32.21,32.21,0,0,1,54,74.34h0a39.19,39.19,0,0,1-2.09-5l.55-.15a26.56,26.56,0,0,0,8.77-4.47c-3-4.19-4.85-9.16-4.65-13.51a2.75,2.75,0,0,1,2.89-2.57,2.72,2.72,0,0,1,2.64,2.8c-.15,3.32,1.42,7.28,4,10.65a20.64,20.64,0,0,0,5.84,5.29,42.72,42.72,0,0,1-2,5.06,23.92,23.92,0,0,1-5.07-3.64Z"/></svg>