<svg xmlns="http://www.w3.org/2000/svg" viewBox="0 0 333334 333223" shape-rendering="geometricPrecision" text-rendering="geometricPrecision" image-rendering="optimizeQuality" fill-rule="evenodd" clip-rule="evenodd"><path d="M261591 147450c-7963 0-15622 1300-22780 3695-16697-13740-26882-36471-30085-60665-3472-26228 1273-53798 14810-73376l-8-6 401-574c3323-4756 2160-11306-2596-14629-4756-3322-11306-2160-14628 2596l-434 621-33 48-9-6c-5799 8387-10289 17889-13502 28028-8094-19061-20737-27522-36091-29661-15854-2209-30242 2378-45348 6471-10316 2795-20527 5764-30682 8823 5965 9741 13743 18007 23420 24728 4736 3290 9794 6168 15065 8532 22056 9891 52603 11070 70447-6717-510 2435-954 4894-1330 7370-28460 16554-53585 35769-73085 59470-17965 21835-31046 47316-37442 77785-1959-160-3939-246-5939-246C32119 189737-1 221857-1 261480s32120 71743 71743 71743c39622 0 71743-32120 71743-71743 0-30287-18768-56189-45309-66714 5635-27165 17234-49831 33182-69217 14968-18194 33857-33638 55318-47278 144 4997 545 9988 1199 14929 3446 26029 13936 50918 31091 68284-17664 13068-29119 34050-29119 57709 0 39623 32120 71743 71743 71743s71743-32120 71743-71743c0-39622-32120-71743-71743-71743zM29491 296600c-1365-1830-989-4420 841-5785s4420-989 5785 841c3394 4541 7170 8384 11313 11544 4137 3156 8659 5654 13555 7511 2133 803 3211 3184 2408 5317s-3184 3211-5317 2408c-5654-2145-10877-5030-15656-8675-4773-3641-9087-8022-12929-13161zm274353-42287c1365-1830 989-4420-841-5785s-4420-989-5785 841c-3394 4541-7170 8384-11313 11544-4137 3156-8659 5655-13555 7511-2133 803-3211 3184-2408 5317s3184 3211 5317 2408c5654-2145 10877-5030 15656-8675 4773-3641 9087-8022 12929-13161z"/></svg>