<?xml version="1.0" encoding="utf-8"?><svg version="1.1" id="Layer_1" xmlns="http://www.w3.org/2000/svg" xmlns:xlink="http://www.w3.org/1999/xlink" x="0px" y="0px" viewBox="0 0 122.88 116.55" style="enable-background:new 0 0 122.88 116.55" xml:space="preserve"><style type="text/css">.st0{fill-rule:evenodd;clip-rule:evenodd;}</style><g><path class="st0" d="M31.75,68.16c-0.65-0.62-0.67-1.64-0.06-2.28c0.62-0.65,1.64-0.67,2.28-0.06L47.19,77.6 c0.98-2.32,2.6-4.55,5.04-6.65l-0.19-2.85l-0.43-6.08l-3.78-1.4l-5.76-1.99c-0.18-0.06-0.34-0.15-0.48-0.26 c-4.29-1.46-7.63-3.6-10.16-6.32c-2.43-2.62-4.09-5.74-5.12-9.28c-3.38,0.46-7.06,0.16-11.02-0.84c-3.05-0.77-6.27-1.96-9.66-3.55 C7.52,42,8.8,45.36,9.53,48.45c0.91,3.88,0.94,7.36,0.14,10.47c5.84,2.17,9.92,5.17,12.91,9.38c2.98,4.19,4.82,9.53,6.21,16.4 c3.01-0.26,6.06-0.3,9.13,0.01c2.71,0.27,5.43,0.8,8.16,1.69c-0.21-1.8-0.2-3.59,0.1-5.34L31.75,68.16L31.75,68.16z M66.14,76.08 c-0.47-0.36-0.56-1.04-0.2-1.51c0.36-0.47,1.04-0.56,1.51-0.2c2.03,1.55,3.19,3.39,3.58,5.48c0.39,2.04,0.03,4.28-0.97,6.68 c-0.23,0.55-0.85,0.81-1.4,0.59c-0.55-0.23-0.81-0.86-0.59-1.4c0.83-2.02,1.14-3.86,0.84-5.47C68.62,78.68,67.73,77.28,66.14,76.08 L66.14,76.08z M50.74,97.64c-0.47-0.36-0.56-1.04-0.2-1.51c0.36-0.47,1.04-0.56,1.51-0.2c2.03,1.55,3.19,3.39,3.58,5.48 c0.39,2.04,0.03,4.28-0.96,6.68c-0.23,0.55-0.86,0.81-1.41,0.59c-0.55-0.23-0.81-0.85-0.59-1.4c0.83-2.02,1.14-3.86,0.84-5.47 C53.22,100.25,52.32,98.85,50.74,97.64L50.74,97.64z M79.56,97.19c-0.47-0.36-0.56-1.04-0.2-1.51c0.36-0.47,1.04-0.56,1.51-0.2 c2.03,1.55,3.19,3.39,3.58,5.48c0.39,2.04,0.03,4.28-0.97,6.68c-0.23,0.55-0.85,0.81-1.4,0.59c-0.55-0.23-0.81-0.86-0.59-1.41 c0.83-2.02,1.14-3.86,0.84-5.47C82.03,99.79,81.14,98.4,79.56,97.19L79.56,97.19z M58.91,96.81c0.93,1.83,1.46,3.9,1.46,6.1 c0,7.45-6.04,13.48-13.48,13.48c-7.45,0-13.48-6.04-13.48-13.48c0-6.9,5.18-12.59,11.87-13.38c-2.55-0.85-5.11-1.35-7.66-1.61 c-3.33-0.33-6.65-0.22-9.95,0.14c-0.86,0.09-1.63-0.5-1.77-1.34c-1.35-7.12-3.08-12.5-5.95-16.54c-2.82-3.97-6.83-6.73-12.79-8.7 c-0.85-0.28-1.31-1.19-1.03-2.04c0.02-0.05,0.03-0.09,0.05-0.14c1.02-2.86,1.1-6.22,0.19-10.1c-0.95-4.07-2.98-8.68-6.14-13.85 c-0.46-0.76-0.22-1.76,0.54-2.22c0.51-0.31,1.13-0.31,1.62-0.04l0,0c4.94,2.73,9.52,4.65,13.71,5.71c4.1,1.03,7.81,1.24,11.1,0.56 c0.86-0.18,1.7,0.36,1.9,1.22l0,0c0.85,3.62,2.36,6.76,4.71,9.29c2.08,2.23,4.82,4.03,8.36,5.3c3.85-4.55,6.06-9.2,6.73-13.96 c0.72-5.06-0.28-10.31-2.83-15.75c-0.34-0.72-0.1-1.56,0.53-2l0,0c2.87-2.02,5.42-4.94,7.6-8.59c2.28-3.82,4.16-8.43,5.6-13.64 c0.24-0.86,1.13-1.36,1.99-1.13c0.61,0.17,1.04,0.66,1.15,1.24c1.46,5.66,3.22,10.62,5.4,14.41c2.07,3.6,4.5,6.09,7.42,7.04 c0.85,0.28,1.31,1.19,1.04,2.04c-0.04,0.12-0.09,0.23-0.15,0.33c-2.6,5.1-3.75,9.99-3.19,14.87c0.57,4.93,2.89,9.92,7.24,15.19 c0.09,0.11,0.17,0.24,0.23,0.36c2.81-0.98,5.18-2.58,7.13-4.74c2.41-2.67,4.23-6.22,5.52-10.55c0.24-0.83,1.09-1.33,1.94-1.13 c4.01,1,8.07,0.84,12.17-0.27c4.18-1.13,8.41-3.24,12.68-6.09l0,0c0.5-0.33,1.17-0.37,1.72-0.05c0.77,0.45,1.02,1.44,0.56,2.21 c-2.68,4.49-4.63,8.89-5.72,13.17c-1.07,4.2-1.3,8.27-0.55,12.19h0c0.16,0.86-0.4,1.7-1.26,1.88c-5.52,1.16-9.58,3.93-12.46,8.01 c-2.95,4.18-4.71,9.73-5.57,16.35c-0.07,0.73-0.64,1.35-1.4,1.45l-16.92,2.26c5.44,1.73,9.39,6.83,9.39,12.85 c0,7.45-6.04,13.48-13.48,13.48c-7.45,0-13.48-6.04-13.48-13.48c0-2.25,0.55-4.37,1.52-6.23c-0.58,0.08-1.17,0.12-1.77,0.12 C60.26,96.96,59.57,96.91,58.91,96.81L58.91,96.81z M72.91,89.71c0.28-0.04,0.55-0.06,0.83-0.08c-0.14-0.54-0.07-1.19-0.04-1.75 C73.48,88.51,73.21,89.12,72.91,89.71L72.91,89.71z M55.26,67.71l0.11,1.61c1.44-0.61,2.87-0.99,4.3-1.14V56.68 c0-0.89,0.73-1.62,1.62-1.62c0.89,0,1.62,0.73,1.62,1.62v11.57c1.6,0.23,3.17,0.76,4.71,1.6l0.73-2.48l0,0 c0.06-0.2,0.16-0.4,0.3-0.57l8.71-10.61c-4.23-5.4-6.53-10.61-7.13-15.83c-0.58-5.06,0.43-10.08,2.82-15.24 c-2.97-1.49-5.43-4.19-7.51-7.81c-1.64-2.84-3.04-6.26-4.26-10.1c-1.23,3.42-2.67,6.53-4.31,9.27c-2.14,3.59-4.63,6.55-7.43,8.77 c2.42,5.6,3.33,11.05,2.57,16.37c-0.72,5.03-2.91,9.9-6.69,14.65l3.59,1.33l4.59,1.59c0.65,0.17,1.15,0.75,1.2,1.46L55.26,67.71 L55.26,67.71z M80.22,59.11c-2.26,1.86-4.26,3.9-5.93,6.15c-1.49,2-2.73,4.16-3.69,6.49c2.13,1.63,3.79,3.73,4.88,6.35l7.87-8.48 c0.61-0.65,1.63-0.69,2.28-0.08c0.65,0.61,0.69,1.63,0.08,2.28l-9.17,9.88c0.32,1.67,0.46,3.5,0.41,5.5l17.09-2.29 c0.98-6.62,2.88-12.25,5.96-16.62c3.08-4.36,7.31-7.44,12.94-8.95c-0.52-3.93-0.21-7.95,0.84-12.06c0.73-2.88,1.83-5.81,3.26-8.78 c-2.85,1.52-5.69,2.69-8.53,3.46c-4.12,1.11-8.22,1.37-12.3,0.61c-1.39,4.16-3.3,7.64-5.77,10.38 C87.73,55.97,84.35,58.06,80.22,59.11L80.22,59.11z"/></g></svg>