<?xml version="1.0" encoding="utf-8"?><svg version="1.1" id="Layer_1" xmlns="http://www.w3.org/2000/svg" xmlns:xlink="http://www.w3.org/1999/xlink" x="0px" y="0px" viewBox="0 0 122.88 96.06" style="enable-background:new 0 0 122.88 96.06" xml:space="preserve"><style type="text/css">.st0{fill:#84D10F;} .st1{fill:#50AC25;} .st2{fill:#D60606;} .st3{fill:#BA0808;}</style><g><path d="M108.12,40.6c-4.15,19.28-20.03,35.73-38.39,45.57c-9.26,4.97-19.16,8.27-28.51,9.43c-9.46,1.17-18.4,0.16-25.61-3.54 C7.95,88.13,2.28,81.24,0.03,70.8l0,0c-0.08-0.38-0.02-0.78,0.19-1.14c0.45-0.76,1.43-1.02,2.19-0.57 c29.93,17.64,47.03-0.12,57.67-18.17c3.07-5.22,5.64-10.51,7.83-15.01c2.48-5.12,4.48-9.24,6.36-11.37 c-2.29-1.21-4.35-2.83-6.23-4.79c-0.61-0.64-0.58-1.66,0.06-2.27c0.51-0.49,1.26-0.57,1.85-0.26c2.23,1.15,4.25,1.63,6.08,1.55 c1.79-0.08,3.43-0.71,4.96-1.79c1.35-0.95,2.49-1.92,3.5-2.78c4.15-3.51,6.26-5.3,14.35-1.81c3.44-4.97,6.96-8.85,10.62-10.85 c4.21-2.3,8.48-2.19,12.84,1.39c0.68,0.56,0.78,1.57,0.22,2.25c-0.56,0.68-1.57,0.78-2.25,0.22c-3.18-2.61-6.26-2.7-9.28-1.05 c-3.05,1.67-6.12,5.04-9.2,9.42c5.82,3.02,7.09,8.39,8.2,13.08c0.55,2.33,1.06,4.47,2.07,5.74c0.34,0.43,0.73,0.74,1.17,0.94 c0.46,0.2,1,0.29,1.62,0.25c0.88-0.05,1.64,0.62,1.69,1.51c0.03,0.54-0.21,1.04-0.61,1.36C113.2,39.08,110.59,40.44,108.12,40.6 L108.12,40.6L108.12,40.6z"/><path class="st0" d="M78.4,22.83c3.03,1.03,6.48,1.3,10.42,0.65c0.07-0.02,0.14-0.03,0.22-0.03c0.88-0.08,1.66,0.58,1.74,1.46 c0.24,2.82-0.21,5.13-1.28,6.98c-0.41,0.7-0.9,1.33-1.47,1.89c1.45,0.12,2.78-0.02,4.02-0.42c2.2-0.7,4.12-2.2,5.8-4.45l0,0 c0.18-0.24,0.43-0.44,0.73-0.55c0.83-0.3,1.75,0.12,2.06,0.95c1.73,4.71,3.69,7.24,5.84,7.9c1.42,0.43,3.04,0.04,4.85-1.09 c-0.68-0.4-1.27-0.92-1.79-1.57c-1.46-1.83-2.04-4.3-2.68-6.99c-0.97-4.1-2.08-8.8-6.83-11.11c-8.41-4.11-10-2.76-13.47,0.17 c-1.02,0.86-2.18,1.84-3.73,2.94c-1.99,1.41-4.16,2.24-6.54,2.38C76.96,22.29,77.67,22.59,78.4,22.83L78.4,22.83L78.4,22.83z"/><path class="st1" d="M100.03,28.54c0.27,0.18,0.48,0.44,0.61,0.77c1.73,4.71,3.69,7.24,5.84,7.9c1.42,0.43,3.04,0.04,4.85-1.09 c-0.68-0.4-1.27-0.92-1.79-1.57c-1.46-1.83-2.04-4.3-2.68-6.99c-0.97-4.1-2.08-8.8-6.82-11.11V28.54L100.03,28.54z"/><path class="st2" d="M77.47,25.9c-0.08,0.09-0.17,0.17-0.27,0.25c-1.54,1.12-3.66,5.48-6.41,11.14c-2.2,4.53-4.79,9.87-7.95,15.24 c-11,18.66-28.49,37-58.71,21.17c2.43,7.42,7.02,12.48,12.94,15.52c6.6,3.39,14.9,4.3,23.76,3.2c8.97-1.11,18.48-4.29,27.38-9.07 c17.57-9.43,32.76-25.05,36.73-43.26c-2.41-0.97-4.53-3.31-6.31-7.17c-1.67,1.68-3.54,2.86-5.63,3.52c-2.85,0.9-6.05,0.8-9.63-0.38 c-0.84-0.28-1.29-1.18-1.02-2.02c0.15-0.47,0.51-0.82,0.93-0.99v-0.01c1.56-0.62,2.72-1.52,3.43-2.75c0.53-0.92,0.84-2.05,0.9-3.41 C83.88,27.28,80.51,26.92,77.47,25.9L77.47,25.9L77.47,25.9z"/><path class="st3" d="M58.64,67.63c0.39-0.79,1.35-1.12,2.14-0.73c0.79,0.39,1.12,1.35,0.73,2.14C59.86,72.4,55,76.63,49.65,79.92 c-5.14,3.15-10.84,5.51-14.74,5.46c-0.88-0.01-1.59-0.74-1.58-1.62c0.01-0.88,0.74-1.59,1.62-1.58c3.27,0.04,8.34-2.11,13.03-4.99 C52.89,74.18,57.26,70.44,58.64,67.63L58.64,67.63L58.64,67.63z"/></g></svg>