<?xml version="1.0" encoding="utf-8"?><svg version="1.1" id="Layer_1" xmlns="http://www.w3.org/2000/svg" xmlns:xlink="http://www.w3.org/1999/xlink" x="0px" y="0px" viewBox="0 0 109.537 122.88" enable-background="new 0 0 109.537 122.88" xml:space="preserve"><g><path fill-rule="evenodd" clip-rule="evenodd" fill="#57912A" d="M29.673,55.412L3.827,48.059 c-4.756,15.963-5.202,30.338-0.644,42.867c3.51,9.646,9.988,18.2,19.75,25.54c4.937,3.713,5.556,4.104,11.584,5.035 c6.073,0.938,12.271,1.418,18.612,1.376c8.688-0.058,17.961-0.426,24.865-2.449c14.428-4.229,23.331-13.905,28.72-30.568 c3.605-11.146,3.575-24.307,0.943-38.904l-27.629,4.679L29.673,55.412L29.673,55.412z"/><path fill-rule="evenodd" clip-rule="evenodd" fill="#F7D6A1" d="M29.673,55.412L3.827,48.059l28.323-21.056 c13.603,5.717,28.248,6.64,44.537,0l30.971,23.953l-27.629,4.679L29.673,55.412L29.673,55.412z"/><path fill-rule="evenodd" clip-rule="evenodd" fill="#6EA649" d="M17.804,65.09l11.234,1.838 c0.169,17.813,3.103,34.376,11.642,48.407C22.019,107.982,16.487,89.452,17.804,65.09L17.804,65.09z"/><path fill="#F9C183" d="M28.416,55.049l14.424-24.637c0.884,0.189,1.764,0.355,2.643,0.503L31.137,55.416l-1.464-0.004 L28.416,55.049L28.416,55.049z"/><polygon fill="#F9C183" points="78.554,55.622 63.719,30.81 65.217,30.519 66.354,30.292 81.376,55.426 80.028,55.634 78.554,55.622"/><path fill-rule="evenodd" clip-rule="evenodd" fill="#DEC191" d="M76.797,27.335c0,0.839-2.008,1.611-5.124,2.405 c-10.296,2.625-24.008,3.525-34.793,0.339c-2.996-0.885-4.919-1.874-4.919-2.661C31.961,23.659,76.797,23.496,76.797,27.335 L76.797,27.335z"/><path fill-rule="evenodd" clip-rule="evenodd" fill="#B9A279" d="M65.854,27.407c0,0.361-1.028,0.692-2.623,1.034 c-5.271,1.128-12.29,1.516-17.81,0.146c-1.534-0.38-2.518-0.805-2.518-1.144C42.903,25.827,65.854,25.756,65.854,27.407 L65.854,27.407z"/><path fill="#4398D1" d="M55.346,29.274c-1.808,0.113-3.615,0.122-5.433,0.058l6.17-23.025c0.252-0.945,0.991-1.631,1.877-1.86 l16.266-4.357c1.396-0.373,2.831,0.457,3.203,1.853c0.373,1.396-0.456,2.831-1.853,3.203L60.747,9.118L55.346,29.274L55.346,29.274 z"/></g></svg>