<?xml version="1.0" encoding="utf-8"?><svg version="1.1" id="Layer_1" xmlns="http://www.w3.org/2000/svg" xmlns:xlink="http://www.w3.org/1999/xlink" x="0px" y="0px" viewBox="0 0 113.85 122.88" style="enable-background:new 0 0 113.85 122.88" xml:space="preserve"><style type="text/css">.st0{fill-rule:evenodd;clip-rule:evenodd;fill:#5EAC24;} .st1{fill-rule:evenodd;clip-rule:evenodd;fill:#4E901E;} .st2{fill-rule:evenodd;clip-rule:evenodd;fill:#B6E892;} .st3{fill-rule:evenodd;clip-rule:evenodd;fill:#91DC5A;} .st4{fill-rule:evenodd;clip-rule:evenodd;fill:#F4FFB3;}</style><g><path class="st0" d="M27.56,0c8.93,0,16.86,4.24,21.9,10.82l0.04-0.03c0.18,0.27,0.36,0.55,0.54,0.82 c0.29,0.41,0.56,0.82,0.83,1.24c17.35,25.78,36.91,48.1,54.81,69.04c6.67,7.81,13.75,21.91,1.44,28.01l2.23,6.34l-4.94-1.3 c-12.62,11.24-22.74,8.45-31.99,0.69c-22.6-21.58-45.85-43-64.66-68.36l0.27-0.24C3.07,42.03,0,35.15,0,27.56 C0,12.34,12.34,0,27.56,0L27.56,0L27.56,0z"/><path class="st1" d="M89.63,122.45c-4.18,1.39-9.69-0.52-17.21-6.83C56.15,100.08,0,51.35,0,27.56C0,16.27,6.79,6.57,16.51,2.31 C-28.09,28.35,86.15,119.5,91.26,117.4C96.73,115.16,111.83,115.05,89.63,122.45L89.63,122.45z"/><path class="st2" d="M20.38,3.69l3.61-0.51c2.7,0,1.75,0.16,4.33-0.71c0.02-0.01,3.02,1.21,3.51,1.24c3.51,0.31,3.74-0.24,6.2,1.5 c1.62,1.15,3.55,0.98,4.78,3.44c1.33,2.67,3.78,0.57,6.22,6.8c1.04,2.63,0.96,1.91,1.48,4.9c0.97,5.42,1.78,2.98,1.78,9.95 c0,3.11-2.23,9.86-4.97,11.23c-0.65,0.32-0.87,3.26-3.26,4.14c-1.69,0.63-3.13,3.54-5.45,3.93c-1.97,0.33-2.84,1.25-3.99,1.51 c-1.51,0.34-3.22,0.06-5.72,1c-5.35,2-11.66-2.32-16.46-4.21c-1.04-0.41-3.57-4.68-5.49-6.57C4.5,38.93,2.27,30.66,2.94,27.13 c0.53-2.78-0.46-7.1,1.68-10.74c3.38-5.73,4.54-4.41,7.54-8.08C13.78,6.38,17.99,4.63,20.38,3.69L20.38,3.69L20.38,3.69z"/><path class="st3" d="M22.55,10.91l2.52-0.36c1.88,0,1.23,0.11,3.03-0.49c0.01,0,2.11,0.84,2.45,0.87c2.45,0.22,2.61-0.17,4.32,1.05 c1.14,0.8,2.47,0.68,3.34,2.4c0.94,1.86,2.63,0.4,4.34,4.74c0.72,1.84,0.67,1.34,1.04,3.43c0.67,3.79,1.24,2.08,1.24,6.95 c0,2.17-1.55,6.88-3.47,7.84c-0.45,0.23-0.61,2.27-2.27,2.9c-1.18,0.44-2.18,2.47-3.81,2.74c-1.37,0.23-1.98,0.88-2.79,1.06 c-1.06,0.24-2.25,0.04-3.99,0.7c-3.74,1.39-8.56-1.22-11.89-2.53c-0.72-0.29-2.08-3.68-3.43-5c-1.71-1.68-3.27-7.45-2.8-9.92 c0.37-1.94-0.32-4.96,1.18-7.49c2.36-3.99,3.17-3.08,5.26-5.64C17.94,12.78,20.88,11.57,22.55,10.91L22.55,10.91L22.55,10.91z"/><path class="st4" d="M28.51,14.75c1.9,1.97,1.98,9.07,0.29,9C26.49,23.66,26.87,16.57,28.51,14.75L28.51,14.75L28.51,14.75z M23.84,15.34c-0.94,2.57-7.28,5.75-7.97,4.2C14.94,17.42,21.49,14.65,23.84,15.34L23.84,15.34L23.84,15.34z M17.44,31.33 c0.95-2.57-1.97-9.16-3.49-8.43C11.87,23.93,15.2,30.34,17.44,31.33L17.44,31.33L17.44,31.33z M28.62,41 c2.54-1.04,5.43-7.64,3.86-8.26C30.32,31.9,27.83,38.68,28.62,41L28.62,41L28.62,41z M34.92,33.36c2.65,0.7,8.89-2.7,8-4.14 C41.7,27.26,35.69,31.04,34.92,33.36L34.92,33.36L34.92,33.36z M25.05,41.01c1.9-1.97,1.98-9.07,0.29-9 C23.03,32.11,23.41,39.21,25.05,41.01L25.05,41.01L25.05,41.01z M21.86,38.14c-0.94-2.57-7.28-5.75-7.96-4.2 C12.96,36.06,19.5,38.83,21.86,38.14L21.86,38.14L21.86,38.14z M24.27,18.03c0.95,2.57-1.97,9.16-3.49,8.43 C18.7,25.44,22.03,19.03,24.27,18.03L24.27,18.03L24.27,18.03z M32.67,19.87c2.54,1.04,5.43,7.64,3.86,8.26 C34.38,28.98,31.9,22.19,32.67,19.87L32.67,19.87L32.67,19.87z M31.31,15.34c2.65-0.7,8.89,2.7,8,4.14 C38.09,21.46,32.09,17.66,31.31,15.34L31.31,15.34L31.31,15.34z"/></g></svg>