<?xml version="1.0" encoding="utf-8"?><svg version="1.1" id="Layer_1" xmlns="http://www.w3.org/2000/svg" xmlns:xlink="http://www.w3.org/1999/xlink" x="0px" y="0px" viewBox="0 0 114.28 122.88" style="enable-background:new 0 0 114.28 122.88" xml:space="preserve"><style type="text/css">.st0{fill-rule:evenodd;clip-rule:evenodd;}</style><g><path class="st0" d="M27.67,0c8.96,0,16.92,4.26,21.98,10.86l0.04-0.03c0.18,0.27,0.36,0.55,0.54,0.82 c0.29,0.41,0.56,0.82,0.83,1.24c17.42,25.88,37.05,48.29,55.02,69.31c6.7,7.84,13.8,21.99,1.45,28.12l2.24,6.36l-4.96-1.31 c-12.67,11.28-22.83,8.48-32.11,0.69C50.01,94.4,26.67,72.89,7.79,47.44l0.27-0.24C3.08,42.19,0,35.29,0,27.67 C0,12.39,12.39,0,27.67,0L27.67,0z M23.93,15.4c-0.94,2.58-7.31,5.77-8,4.22C15,17.49,21.57,14.71,23.93,15.4L23.93,15.4z M17.51,31.45c0.95-2.58-1.98-9.2-3.5-8.46C11.92,24.02,15.26,30.46,17.51,31.45L17.51,31.45z M28.73,41.16 c2.55-1.04,5.45-7.67,3.87-8.29C30.44,32.02,27.94,38.83,28.73,41.16L28.73,41.16z M35.05,33.49c2.66,0.7,8.92-2.71,8.03-4.16 C41.86,27.36,35.83,31.16,35.05,33.49L35.05,33.49z M25.15,41.17c1.91-1.98,1.99-9.1,0.29-9.03C23.12,32.23,23.5,39.36,25.15,41.17 L25.15,41.17z M21.94,38.29c-0.94-2.58-7.31-5.77-7.99-4.22C13.01,36.2,19.58,38.98,21.94,38.29L21.94,38.29z M24.36,18.1 c0.95,2.58-1.98,9.2-3.5,8.46C18.77,25.54,22.11,19.1,24.36,18.1L24.36,18.1z M32.8,19.95c2.55,1.04,5.45,7.67,3.87,8.29 C34.51,29.09,32.02,22.28,32.8,19.95L32.8,19.95z M31.43,15.4c2.66-0.7,8.92,2.71,8.03,4.16C38.24,21.54,32.21,17.73,31.43,15.4 L31.43,15.4z M28.62,14.81c1.91,1.98,1.99,9.1,0.29,9.03C26.59,23.75,26.97,16.63,28.62,14.81L28.62,14.81z M22.64,10.95l2.53-0.36 c1.89,0,1.23,0.11,3.04-0.49c0.01,0,2.12,0.84,2.46,0.87c2.46,0.22,2.62-0.17,4.34,1.05c1.14,0.8,2.48,0.68,3.35,2.41 c0.94,1.87,2.64,0.4,4.36,4.76c0.72,1.85,0.67,1.34,1.04,3.44c0.67,3.8,1.25,2.09,1.25,6.98c0,2.18-1.56,6.91-3.48,7.87 c-0.45,0.23-0.61,2.28-2.28,2.91c-1.18,0.44-2.19,2.48-3.82,2.75c-1.38,0.23-1.99,0.88-2.8,1.06c-1.06,0.24-2.26,0.04-4.01,0.7 c-3.75,1.4-8.59-1.22-11.94-2.54c-0.72-0.29-2.09-3.69-3.44-5.02c-1.72-1.69-3.28-7.48-2.81-9.96c0.37-1.95-0.32-4.98,1.18-7.52 c2.37-4.01,3.18-3.09,5.28-5.66C18.01,12.83,20.96,11.61,22.64,10.95L22.64,10.95z M20.46,3.7l3.62-0.51 c2.71,0,1.76,0.16,4.35-0.71c0.02-0.01,3.03,1.21,3.52,1.25c3.52,0.31,3.75-0.24,6.22,1.51c1.63,1.15,3.56,0.98,4.8,3.45 c1.34,2.68,3.79,0.57,6.24,6.83c1.04,2.64,0.96,1.92,1.49,4.92c0.97,5.44,1.79,2.99,1.79,9.99c0,3.12-2.24,9.9-4.99,11.27 c-0.65,0.32-0.87,3.27-3.27,4.16c-1.7,0.63-3.14,3.55-5.47,3.95c-1.98,0.33-2.85,1.26-4.01,1.52c-1.52,0.34-3.23,0.06-5.74,1 c-5.37,2.01-11.71-2.33-16.52-4.23c-1.04-0.41-3.58-4.7-5.51-6.6c-2.46-2.42-4.7-10.72-4.03-14.27c0.53-2.79-0.46-7.13,1.69-10.78 c3.39-5.75,4.56-4.43,7.57-8.11C13.83,6.4,18.06,4.65,20.46,3.7L20.46,3.7z"/></g></svg>