<?xml version="1.0" encoding="utf-8"?><svg version="1.1" id="Layer_1" xmlns="http://www.w3.org/2000/svg" xmlns:xlink="http://www.w3.org/1999/xlink" x="0px" y="0px" viewBox="0 0 122.88 87.25" style="enable-background:new 0 0 122.88 87.25" xml:space="preserve"><style type="text/css"><![CDATA[
	.st0{fill:#673236;}
	.st1{fill-rule:evenodd;clip-rule:evenodd;fill:#330303;}
]]></style><g><path class="st1" d="M4.09,67.96c-1.56-1.88-3.05-3.44-2.5-5.9c0.79-2.17,1.02-4.87,0.82-7.97c-0.15-2.39-1.33-5.22-2.06-8.07 c-1.14-4.39,0.66-8.17,3.55-11.58c5.44-6.41,5.14-6.6,5.9-12.75c0.22-1.77,0.93-3.32,1.69-4.7c1.01-1.84,5.55-5.1,8.46-8.38 c2.81-3.16,5.42-3.33,8.04-3.78c5.6-0.95,5.61-1.55,10.28-3.95c2.62-1.34,5.32-1.13,7,0.36c2.45,2.19,4.93,3.22,9.25,3.75 c3.25,0.4,5.65,2.91,7.04,6.36c2.95,7.3,5.1,10.51,2.12,15.59c-3.13,5.36,2.11,5.98,2.55,8.4c0.53,2.89-0.05,5.37-1.68,7.46 c-4.95,6.38-1.81,6.17-3.31,11.3C59.55,59.9,52.84,63.16,50,68.3c-1.96,7.37-1.45,7.46-6.91,9.7c-4.82,1.97-2.92,9.14-14.16,9.25 c-1.55,0.02-3.24-0.19-5.76-0.39c-3.98-0.31-9.08,0.44-12.2-2.33C5.42,79.63,9.06,73.98,4.09,67.96L4.09,67.96z M75.32,70.32 c-1.19-1.43-2.33-2.62-1.91-4.51c0.6-1.66,0.78-3.72,0.63-6.08c-0.12-1.82-1.01-3.99-1.58-6.16c-0.87-3.35,0.51-6.24,2.71-8.84 c4.15-4.89,3.92-5.04,4.5-9.73c0.17-1.35,0.71-2.53,1.29-3.58c0.77-1.4,4.23-3.89,6.46-6.39c2.14-2.41,4.14-2.54,6.13-2.88 c4.27-0.73,4.28-1.19,7.85-3.01c2-1.02,4.06-0.87,5.34,0.28c1.87,1.67,3.76,2.46,7.06,2.86c2.48,0.3,4.31,2.22,5.37,4.85 c2.25,5.57,3.89,8.02,1.62,11.9c-2.39,4.09,1.61,4.56,1.95,6.41c0.4,2.2-0.04,4.1-1.28,5.69c-3.78,4.87-1.38,4.71-2.52,8.62 c-1.29,4.41-6.41,6.9-8.58,10.82c-1.49,5.63-1.11,5.7-5.27,7.4c-3.68,1.5-2.23,6.97-10.81,7.06c-1.19,0.01-2.48-0.15-4.4-0.3 c-3.04-0.24-6.93,0.33-9.31-1.77C76.34,79.22,79.12,74.91,75.32,70.32L75.32,70.32z"/><path class="st0" d="M37.72,12.68c0.79,0.17,1.3,0.95,1.13,1.75c-0.17,0.79-0.95,1.3-1.75,1.13c-6.19-1.34-7.27,3.22-8.31,7.64 c-0.18,0.75-0.36,1.5-0.55,2.24c-1.19,4.42-3.75,6.09-6.16,7.68c-2.12,1.39-4.1,2.69-4.28,6.49v0.01c-0.03,0.7-0.13,1.76-0.41,2.96 c-0.28,1.22-0.75,2.59-1.53,3.94l-0.04,0.07c-0.94,1.63-3.9,6.75,0.26,15.05c0.36,0.72,0.07,1.6-0.66,1.97 c-0.72,0.36-1.6,0.07-1.97-0.66c-4.86-9.7-1.3-15.86-0.18-17.82l0.04-0.07c0.6-1.05,0.98-2.15,1.21-3.13 c0.23-1,0.31-1.87,0.34-2.44c0.25-5.31,2.84-7.01,5.61-8.82c1.96-1.29,4.03-2.64,4.93-5.98c0.19-0.69,0.36-1.42,0.53-2.14 C27.3,16.71,28.71,10.73,37.72,12.68L37.72,12.68z M110.39,34.71c-0.28-0.55-0.06-1.23,0.49-1.51c0.55-0.28,1.23-0.06,1.51,0.49 c2.02,3.96,0.8,5.88-0.44,7.83c-0.79,1.24-1.59,2.5-0.87,4.67c2.65,8.03,0.08,9.14-3.31,10.61c-1.19,0.52-2.5,1.09-3.58,2.2 c-0.45,0.47-0.7,1.03-0.85,1.62c-0.17,0.67-0.21,1.4-0.23,2.1c-0.02,0.46-0.03,0.87-0.03,1.26c-0.07,3.74-0.12,6.76-5.27,7.7 c-0.61,0.11-1.19-0.3-1.3-0.9c-0.11-0.61,0.3-1.19,0.9-1.3c3.34-0.61,3.38-2.81,3.43-5.53c0.01-0.45,0.02-0.9,0.03-1.32 c0.03-0.82,0.08-1.69,0.29-2.55c0.23-0.94,0.65-1.85,1.42-2.64c1.37-1.42,2.91-2.09,4.3-2.69c2.32-1.01,4.08-1.77,2.07-7.86 c-1.05-3.18,0.04-4.89,1.11-6.57C110.94,38.91,111.82,37.53,110.39,34.71L110.39,34.71z M97.47,48.19 c0.56-0.27,1.22-0.03,1.49,0.53c0.27,0.56,0.03,1.22-0.53,1.49c-1.76,0.84-2.4,3.72-3.04,6.6c-0.69,3.11-1.39,6.23-3.61,7.77 c-0.51,0.35-1.21,0.22-1.56-0.29c-0.35-0.51-0.22-1.21,0.29-1.56c1.5-1.04,2.1-3.73,2.7-6.41C93.98,52.91,94.73,49.5,97.47,48.19 L97.47,48.19z M100.98,28.13c0.61,0.13,0.99,0.73,0.86,1.33c-0.13,0.61-0.73,0.99-1.33,0.86c-4.72-1.02-5.54,2.45-6.34,5.83 c-0.13,0.57-0.27,1.15-0.42,1.71c-0.91,3.37-2.86,4.65-4.7,5.86c-1.62,1.06-3.13,2.05-3.27,4.96c-0.02,0.54-0.1,1.35-0.31,2.26 c-0.22,0.93-0.57,1.98-1.17,3.01v0l-0.07,0.11c-0.75,1.31-2.89,5.19,0.23,11.42c0.28,0.55,0.05,1.22-0.5,1.5 c-0.55,0.28-1.22,0.05-1.5-0.5c-3.66-7.31-1.06-11.98-0.17-13.54l0.06-0.11l0,0c0.46-0.8,0.74-1.64,0.92-2.39 c0.18-0.76,0.24-1.42,0.26-1.86c0.19-4.06,2.17-5.35,4.28-6.74c1.5-0.98,3.08-2.02,3.76-4.56c0.14-0.53,0.27-1.08,0.4-1.64 C93.03,31.21,94.11,26.64,100.98,28.13L100.98,28.13z M50.79,31.28c-0.25-0.77,0.17-1.6,0.94-1.86s1.6,0.17,1.86,0.94 c3.47,10.52,0.11,11.98-4.34,13.91c-1.55,0.67-3.28,1.42-4.69,2.88c-0.59,0.61-0.92,1.34-1.11,2.12c-0.22,0.88-0.27,1.84-0.3,2.76 c-0.02,0.6-0.03,1.14-0.04,1.66c-0.09,4.88-0.16,8.83-6.83,10.07l0,0c-0.94,0.22-1.66,0.59-2.23,1.05 c-0.58,0.47-1.03,1.04-1.4,1.65c-0.45,0.73-0.79,1.52-1.1,2.25c-0.83,1.91-1.53,3.53-3.44,3.97c-0.25,0.06-0.5,0.08-0.76,0.09 c-0.22,0.01-0.43,0-0.65,0l-0.2-0.01c-0.29-0.01-0.62-0.03-0.96-0.01c-0.81,0.04-1.5-0.59-1.53-1.4c-0.04-0.81,0.59-1.5,1.4-1.54 c0.47-0.02,0.86,0,1.22,0.01l0.19,0.01c0.16,0.01,0.3,0.01,0.42,0c0.08,0,0.16-0.01,0.22-0.03c0.47-0.11,0.9-1.1,1.41-2.27 c0.36-0.84,0.75-1.74,1.29-2.62c0.53-0.87,1.19-1.7,2.07-2.41c0.9-0.72,2-1.3,3.39-1.63l0,0l0.08-0.02 c4.37-0.79,4.43-3.68,4.49-7.25c0.01-0.58,0.02-1.18,0.04-1.72c0.04-1.08,0.11-2.21,0.39-3.34c0.3-1.23,0.85-2.42,1.86-3.46 c1.8-1.86,3.82-2.73,5.63-3.52C51.12,40.26,53.42,39.26,50.79,31.28L50.79,31.28z M34.09,32.81c0.73-0.35,1.6-0.04,1.95,0.69 s0.04,1.61-0.69,1.95c-2.3,1.11-3.14,4.87-3.98,8.64c-0.91,4.08-1.82,8.17-4.73,10.18c-0.67,0.46-1.58,0.29-2.04-0.37 c-0.46-0.67-0.29-1.58,0.37-2.04c1.97-1.37,2.75-4.89,3.53-8.4C29.51,38.99,30.5,34.53,34.09,32.81L34.09,32.81z"/></g></svg>