<?xml version="1.0" encoding="utf-8"?><svg version="1.1" id="Layer_1" xmlns="http://www.w3.org/2000/svg" xmlns:xlink="http://www.w3.org/1999/xlink" x="0px" y="0px" viewBox="0 0 92.26 122.88" style="enable-background:new 0 0 92.26 122.88" xml:space="preserve"><style type="text/css">.st0{fill-rule:evenodd;clip-rule:evenodd;fill:#8CA532;} .st1{fill-rule:evenodd;clip-rule:evenodd;fill:#7F573C;} .st2{fill:none;stroke:#9AB748;stroke-width:3.4399;stroke-linecap:round;stroke-linejoin:round;stroke-miterlimit:2.6131;}</style><g><path class="st0" d="M8.15,101.41c-5.27-2.21,1.15-6.35-0.79-9.45c-1.21-1.93-5.8-2.67-6.13-4.69c-0.06-0.39,0.02-0.81,0.31-1.28 c1.87-3.13,4.84-5.51,1.77-8.15l-2.68-2.8c-0.83-0.93-0.86-1.9-0.05-2.92l3.71-3.37c0.96-0.8,1.14-2.12-0.17-4.41l-1.81-2.56 c-0.59-0.89-0.65-1.79,0.09-2.68l4.16-2.32c1.82-0.83,2.36-2.17,1.6-4.04l-1.2-3.65c-0.26-1.4,0.17-2.45,1.79-2.9l3.3-1 c0.95-0.29,1.82-0.35,2.42-1.19c0.5-0.7,0.66-1.68,0.47-2.95l-0.31-3.1c-0.03-1.56,0.88-2.55,3.31-2.65l1.93,0.17 c1.36,0.12,2.22,0.36,3.23-0.86c0.5-0.6,0.86-1.45,1.11-2.52l0.86-3.2c0.24-1.24,1.16-2.03,4.04-1.52c1.34,0.36,3.69,1.37,4.88,0.7 c0.61-0.34,1.21-1,1.82-2.03l1.96-3.43c0.88-0.93,2.06-1.09,3.8,0.19c1.06,0.85,2.75,2.63,4.04,2.58c0.79-0.03,1.64-0.45,2.56-1.23 c0.57-0.66,1.18-1.29,1.83-1.89c2.07-1.9,3.67-1.5,5.39,0.92l1.5,2.17c0.85,1.29,2.19,1.71,4.42,0.56l2.32-1.1 c5-1.99,3.32,4.34,5.27,6.57c0.71,0.81,1.69,1.07,2.84,0.95l2.43-0.4c2.92-0.5,4.17,0.69,3.76,3.54c-0.16,1.63-0.65,3.51,0.49,4.86 c0.49,0.58,1.18,0.91,2,1.08l3.09,0.7c2.55,0.86,2.88,2.46,1.64,4.6c-0.43,1.59-1.21,3.28-0.36,4.85c0.31,0.57,0.81,1.1,1.51,1.58 l2.63,1.46c4.16,3.11-2.68,6.51-1.73,9.29c0.21,0.6,0.67,1.24,1.38,1.89l2.6,2.44c1.73,1.51,1.38,3.02-1.14,4.54l-2.14,1.77 c-0.67,0.62-1.03,1.26-1.1,1.92c-0.14,1.35,1.53,3.48,2.28,4.67c1.58,1.92,1.21,3.52-1.5,4.74c-1.03,0.64-3.75,2-4.1,3.07 c-0.35,1.04,0.99,3.91,1.4,5.06c0.65,1.85-0.13,2.99-1.82,3.67l-3.56,0.86c-1.9,0.88-2.39,2.13-2.31,3.54l0.21,3.46 c-0.2,1.5-0.91,2.56-2.76,2.67l-3.67-0.15c-1.9,0.39-2.75,1.35-3.02,2.82l-1.06,3.95c-0.53,1.44-1.39,1.82-3.2,1.79 c-9.9-4.19-5.85,5.24-11.05,5.09c-0.86-0.03-1.78-0.48-2.75-1.3l-2.56-1.74c-0.53-0.26-1.01-0.31-1.47-0.23 c-1.32,0.26-3.69,2.73-4.75,3.7c-3.32,3.17-5.38-4.52-7.8-5.05c-1.25-0.28-4.13,1.39-5.37,1.98c-4.6,1.6-3.07-5.61-5.63-6.97 c-2.08-1.1-4.39,0.47-6.58-0.34c-2.61-0.97-1.71-4.7-1.63-7.06C13.59,101.54,10.33,102.32,8.15,101.41L8.15,101.41z"/><path class="st1" d="M58.12,26.45c-0.37-0.13-0.69-0.36-0.95-0.69c-0.82-1.02-0.5-1.49-0.16-2.64c2.07-7.05,6.51-13.19,11.4-19.17 c2.04-2.5,5.2-6.31,7.98-1.96l3.52,4.48c1.63,1.98,0.7,3.56-2.46,4.8c-7.3,4.1-12.37,8.85-15.85,14.08 C60.6,26.21,59.55,26.96,58.12,26.45L58.12,26.45z"/><path class="st2" d="M28.41,98.63c-1.58-0.6-0.99-3.04-0.91-4.59c-0.27-2.04-2.27-1.48-3.59-2.05c-3.19-1.38,0.78-4.16-0.36-6.16 c-0.72-1.25-3.51-1.67-3.68-2.99c-0.03-0.25,0.02-0.53,0.21-0.84c1.18-2.07,3.02-3.65,1.18-5.34l-1.6-1.79 c-0.49-0.59-0.5-1.23,0.01-1.91l2.31-2.24c0.6-0.53,0.72-1.39-0.05-2.88l-1.07-1.65c-0.35-0.58-0.38-1.16,0.09-1.75l2.56-1.56 c1.12-0.56,1.46-1.44,1.03-2.66l-0.69-2.37c-0.14-0.91,0.13-1.6,1.13-1.92l2.03-0.69c0.58-0.2,1.11-0.25,1.49-0.81 c0.32-0.47,0.43-1.11,0.32-1.93l-0.15-2.02c0-1.01,0.57-1.68,2.05-1.77l1.18,0.09c0.83,0.06,1.35,0.21,1.98-0.6 c0.31-0.4,0.54-0.96,0.71-1.65l0.56-2.1c0.16-0.81,0.73-1.34,2.49-1.04c0.82,0.22,2.24,0.85,2.97,0.4 c0.37-0.23,0.75-0.67,1.14-1.34l1.24-2.26c0.55-0.62,1.27-0.74,2.32,0.08"/><path class="st2" d="M46.46,103.46c1.67,0.27,2.38-2.14,3.08-3.52c1.25-1.63,2.71-0.15,4.14,0.02c3.45,0.4,1.4-3.99,3.39-5.15 c1.24-0.72,3.87,0.31,4.68-0.74c0.16-0.2,0.25-0.47,0.24-0.83c0.01-2.38-0.79-4.67,1.65-5.22l2.28-0.75 c0.72-0.27,1.05-0.81,0.95-1.65L66,82.53c-0.25-0.76,0.07-1.57,1.48-2.47l1.75-0.89c0.59-0.32,0.9-0.81,0.8-1.56l-1.44-2.63 c-0.69-1.04-0.55-1.98,0.44-2.81l1.78-1.7c0.58-0.72,0.69-1.45-0.02-2.22l-1.41-1.61c-0.41-0.46-0.84-0.78-0.89-1.44 c-0.04-0.56,0.18-1.17,0.69-1.83l1.14-1.67c0.51-0.88,0.35-1.74-0.89-2.56l-1.06-0.51c-0.75-0.36-1.27-0.5-1.42-1.51 c-0.07-0.5,0.01-1.1,0.22-1.79l0.56-2.1c0.27-0.78,0.03-1.52-1.63-2.14c-0.82-0.22-2.36-0.38-2.77-1.14 c-0.21-0.39-0.32-0.96-0.31-1.73l0.06-2.57"/></g></svg>