<?xml version="1.0" encoding="utf-8"?><svg version="1.1" id="Layer_1" xmlns="http://www.w3.org/2000/svg" xmlns:xlink="http://www.w3.org/1999/xlink" x="0px" y="0px" viewBox="0 0 110.29 122.88" style="enable-background:new 0 0 110.29 122.88" xml:space="preserve"><style type="text/css">.st0{fill-rule:evenodd;clip-rule:evenodd;}</style><g><path class="st0" d="M31.79,41.68c8.61-6.94,13.18-17.36,16.19-28.17c5.28-18.91,12.4-17.33,17.22,0.7 c2.78,10.41,6.06,19.83,10.69,26.54c9.26,13.41,42.63,19.46,32.51,42.54c-6.31,14.39-30.91,21.17-47.56,21.15 c3.97,3.97,6.81,8.46,8.57,13.41l-7.48-8.17l1.45,10.21l-5.56-8.95l-2.28,11.94l-2.64-12.4l-8.88,6.64l8.76-11.99 c-17.62-0.01-45.21-4.54-51.53-23.46C-5.79,60.61,18.8,52.14,31.79,41.68L31.79,41.68z M63.82,27.73 c2.91,7.14,5.83,14.31,8.91,21.36c4.37,10.01,13.66,24.66,10.69,35.27c-1.33,4.75-4.51,9.26-8.22,12.5 c-3.39,2.96-6.9,4.61-10.37,6.58C92.9,86.8,69.19,56.46,63.82,27.73L63.82,27.73z M81.24,47.12c16.9,17.84,22.26,38.54,1.74,53.2 C111.99,86.9,102.58,59.56,81.24,47.12L81.24,47.12z M46.24,44c-4.72,16.97-16.05,43.5,7.68,59.87 C22.44,93.84,39.59,55.12,46.24,44L46.24,44z M32.6,44.24c-9.58,17.63-27.5,39.97,1.01,58.4C-3.53,87.7,18.07,61.7,32.6,44.24 L32.6,44.24z"/></g></svg>