<?xml version="1.0" encoding="utf-8"?><svg version="1.1" id="Layer_1" xmlns="http://www.w3.org/2000/svg" xmlns:xlink="http://www.w3.org/1999/xlink" x="0px" y="0px" viewBox="0 0 119.19 122.88" style="enable-background:new 0 0 119.19 122.88" xml:space="preserve"><style type="text/css">.st0{fill-rule:evenodd;clip-rule:evenodd;}</style><g><path class="st0" d="M42.21,70.92c-7.51-3.79-10.01-13.99-5.57-22.78c4.44-8.79,14.12-12.84,21.64-9.05 c7.51,3.79,10.01,13.99,5.57,22.78C59.41,70.66,49.72,74.72,42.21,70.92L42.21,70.92z M25.91,103.11c0.03,0.01,0.05,0.03,0.08,0.04 c11.27,5.67,24.17,5.46,35.94,0.54C73.78,98.73,84.47,89,91.19,75.67c6.73-13.33,8.2-27.71,5.15-40.18 C93.32,23.11,85.82,12.6,74.56,6.91c-0.03-0.01-0.05-0.03-0.08-0.04C63.21,1.2,50.31,1.4,38.54,6.33 C26.71,11.28,16.03,20.99,9.3,34.3c-0.01,0.03-0.03,0.06-0.04,0.09C2.55,47.7,1.08,62.06,4.13,74.52 C7.16,86.91,14.66,97.41,25.91,103.11L25.91,103.11z M106.39,110.13c-28.86,28.86-95,5.09-104.8-34.99 C-1.6,62.08-0.07,47.05,6.94,33.16l0.01-0.01C13.96,19.26,25.13,9.1,37.53,3.91C50-1.31,63.71-1.51,75.7,4.54l0.01,0 C107.92,20.81,136.65,79.87,106.39,110.13L106.39,110.13z M31.55,67.5c0.45-0.37,1.11-0.31,1.48,0.14 c0.37,0.45,0.31,1.11-0.14,1.48l-5.8,4.77c-0.45,0.37-1.11,0.31-1.48-0.14c-0.37-0.45-0.31-1.11,0.14-1.48L31.55,67.5L31.55,67.5z M29.02,62.29c0.53-0.24,1.15-0.01,1.39,0.52c0.24,0.53,0.01,1.15-0.52,1.39L23.75,67c-0.53,0.24-1.15,0.01-1.39-0.52 c-0.24-0.53-0.01-1.15,0.52-1.39L29.02,62.29L29.02,62.29z M27.93,56.6c0.57-0.1,1.12,0.29,1.21,0.86c0.1,0.57-0.29,1.12-0.86,1.21 l-6.82,1.14c-0.57,0.1-1.12-0.29-1.21-0.86c-0.1-0.57,0.29-1.12,0.86-1.21L27.93,56.6L27.93,56.6z M28.35,50.82 c0.58,0.06,1,0.57,0.95,1.15c-0.06,0.58-0.57,1-1.15,0.95l-5.94-0.57c-0.58-0.06-1-0.57-0.95-1.15c0.06-0.58,0.57-1,1.15-0.95 L28.35,50.82L28.35,50.82z M30.25,45.35c0.55,0.2,0.82,0.81,0.62,1.36c-0.2,0.55-0.81,0.82-1.36,0.62l-3.7-1.39 c-0.03-0.01-0.05-0.02-0.08-0.03l-2.23-0.83c-0.54-0.2-0.82-0.81-0.62-1.35c0.2-0.54,0.81-0.82,1.35-0.62l2.23,0.83 c0.03,0.01,0.06,0.02,0.09,0.03L30.25,45.35L30.25,45.35z M33.49,40.55c0.47,0.34,0.58,1,0.24,1.47c-0.34,0.47-1,0.58-1.47,0.25 l-5.02-3.59c-0.47-0.34-0.58-1-0.24-1.47c0.34-0.47,1-0.58,1.47-0.25L33.49,40.55L33.49,40.55z M37.87,36.76 c0.37,0.45,0.31,1.11-0.14,1.48c-0.45,0.37-1.11,0.31-1.48-0.14l-1.97-2.39c-0.37-0.45-0.31-1.11,0.14-1.48 c0.45-0.37,1.11-0.31,1.48,0.14L37.87,36.76L37.87,36.76z M43.08,34.23c0.24,0.53,0.01,1.15-0.52,1.39 c-0.53,0.24-1.15,0.01-1.39-0.52l-2.88-6.34c-0.24-0.53-0.01-1.15,0.52-1.39c0.53-0.24,1.15-0.01,1.39,0.52L43.08,34.23 L43.08,34.23z M48.77,33.14c0.1,0.57-0.29,1.12-0.86,1.21c-0.57,0.1-1.12-0.29-1.21-0.86l-0.68-4.06c-0.1-0.57,0.29-1.12,0.86-1.21 c0.57-0.1,1.12,0.29,1.21,0.86L48.77,33.14L48.77,33.14z M54.55,33.56c-0.06,0.58-0.57,1-1.15,0.95c-0.58-0.06-1-0.57-0.95-1.15 l0.73-7.54c0.06-0.58,0.57-1,1.15-0.95c0.58,0.06,1,0.57,0.95,1.15L54.55,33.56L54.55,33.56z M60.03,35.46 c-0.2,0.55-0.81,0.82-1.36,0.62s-0.82-0.81-0.62-1.36l2.58-6.9c0.2-0.55,0.81-0.82,1.36-0.62c0.55,0.2,0.82,0.81,0.62,1.36 L60.03,35.46L60.03,35.46z M64.82,38.71c-0.34,0.47-1,0.58-1.47,0.25c-0.47-0.34-0.58-1-0.25-1.47l4.41-6.18 c0.34-0.47,1-0.58,1.47-0.25c0.47,0.34,0.58,1,0.24,1.47L64.82,38.71L64.82,38.71z M68.61,43.08c-0.45,0.37-1.11,0.31-1.48-0.14 c-0.37-0.45-0.31-1.11,0.14-1.48l4.81-3.96c0.45-0.37,1.11-0.31,1.48,0.14c0.37,0.45,0.31,1.11-0.14,1.48L68.61,43.08L68.61,43.08z M71.14,48.3c-0.53,0.24-1.15,0.01-1.39-0.52c-0.24-0.53-0.01-1.15,0.52-1.39l4.98-2.27c0.53-0.24,1.15-0.01,1.39,0.52 c0.24,0.53,0.01,1.15-0.52,1.39L71.14,48.3L71.14,48.3z M72.23,53.99c-0.57,0.1-1.12-0.29-1.21-0.86c-0.1-0.57,0.29-1.12,0.86-1.21 l5.85-0.98c0.57-0.1,1.12,0.29,1.21,0.86c0.1,0.57-0.29,1.12-0.86,1.21L72.23,53.99L72.23,53.99z M71.82,59.76 c-0.58-0.06-1-0.57-0.95-1.15c0.06-0.58,0.57-1,1.15-0.95l4.9,0.47c0.58,0.06,1,0.57,0.95,1.15c-0.06,0.58-0.57,1-1.15,0.95 L71.82,59.76L71.82,59.76z M69.92,65.24c-0.55-0.2-0.82-0.81-0.62-1.36c0.2-0.55,0.81-0.82,1.36-0.62l6.98,2.61 c0.55,0.2,0.82,0.81,0.62,1.36c-0.2,0.55-0.81,0.82-1.36,0.62L69.92,65.24L69.92,65.24z M66.67,70.03c-0.47-0.34-0.58-1-0.25-1.47 c0.34-0.47,1-0.58,1.47-0.25l3.39,2.42c0.47,0.34,0.58,1,0.25,1.47c-0.34,0.47-1,0.58-1.47,0.24L66.67,70.03L66.67,70.03z M62.29,73.83c-0.37-0.45-0.31-1.11,0.14-1.48c0.45-0.37,1.11-0.31,1.48,0.14l3.35,4.07c0.37,0.45,0.31,1.11-0.14,1.48 c-0.45,0.37-1.11,0.31-1.48-0.14L62.29,73.83L62.29,73.83z M57.08,76.35c-0.24-0.53-0.01-1.15,0.52-1.39 c0.53-0.24,1.15-0.01,1.39,0.52l3.33,7.33c0.24,0.53,0.01,1.15-0.52,1.39c-0.53,0.24-1.15,0.01-1.39-0.52L57.08,76.35L57.08,76.35z M51.39,77.45c-0.1-0.57,0.29-1.12,0.86-1.21c0.57-0.1,1.12,0.29,1.21,0.86l1.27,7.63c0.1,0.57-0.29,1.12-0.86,1.21 c-0.57,0.1-1.12-0.29-1.21-0.86L51.39,77.45L51.39,77.45z M45.61,77.03c0.06-0.58,0.57-1,1.15-0.95c0.58,0.06,1,0.57,0.95,1.15 L47,84.54c-0.06,0.58-0.57,1-1.15,0.95c-0.58-0.06-1-0.57-0.95-1.15L45.61,77.03L45.61,77.03z M40.14,75.13 c0.2-0.55,0.81-0.82,1.36-0.62c0.55,0.2,0.82,0.81,0.62,1.36l-2.66,7.11c-0.2,0.55-0.81,0.82-1.36,0.62 c-0.55-0.2-0.82-0.81-0.62-1.36L40.14,75.13L40.14,75.13z M35.34,71.88c0.34-0.47,1-0.58,1.47-0.25c0.47,0.34,0.58,1,0.25,1.47 l-4.65,6.51c-0.34,0.47-1,0.58-1.47,0.25c-0.47-0.34-0.58-1-0.25-1.47L35.34,71.88L35.34,71.88z"/></g></svg>