<?xml version="1.0" encoding="utf-8"?><svg version="1.1" id="Layer_1" xmlns="http://www.w3.org/2000/svg" xmlns:xlink="http://www.w3.org/1999/xlink" x="0px" y="0px" viewBox="0 0 122.88 103.05" style="enable-background:new 0 0 122.88 103.05" xml:space="preserve"><style type="text/css">.st0{fill-rule:evenodd;clip-rule:evenodd;}</style><g><path class="st0" d="M82.15,27.1c-1.43-2.33-3.16-4.54-5.23-6.62c-2.03-2.03-4.4-3.95-7.14-5.72c-7.94-2.95-15.02-3.76-21.32-2.79 C41.74,13,35.87,16.09,30.79,20.8c-9.49,8.8-9.97,15.94-10.57,24.78c-0.25,3.67-0.51,7.61-1.37,12.09 c-0.95,4.98-2.42,9.39-4.27,13.19c-1.96,4.03-4.35,7.38-7,10c-2.24,3.01-3.08,5.52-2.45,7.51c0.01,0.03,0.02,0.06,0.03,0.09 c0.69,2.05,3,3.87,6.99,5.45c0.05,0.02,0.1,0.04,0.15,0.06c13.07,5.16,26.63,5.41,38.67,1.32c11.96-4.06,22.42-12.42,29.41-24.53 c4.2-7.28,6.84-15.18,7.14-23.05C87.78,40.7,86.18,33.68,82.15,27.1L82.15,27.1z M76.6,8.63c2.11-2,4.52-3.63,7.42-4.65 c7.38-2.59,17.21-0.47,23.9,3.19c5.36,2.93,10.91,7.53,14.96,12.41c-5.57,2.16-13.35,3.19-21.79,3.7 c-6.45,0.39-12.41-0.57-18.15-3.49c1.27,1.53,2.41,3.11,3.41,4.75c4.57,7.45,6.38,15.4,6.08,23.35 c-0.33,8.71-3.21,17.38-7.79,25.33C77.02,86.41,65.6,95.52,52.55,99.96c-13.11,4.45-27.85,4.19-42.04-1.41 c-0.05-0.02-0.1-0.03-0.15-0.05c-5.45-2.15-8.71-4.99-9.88-8.5c-0.02-0.04-0.03-0.09-0.05-0.14c-1.15-3.64-0.01-7.68,3.31-12.08 l0,0c0.07-0.1,0.16-0.19,0.25-0.28c2.31-2.25,4.41-5.19,6.15-8.77c1.67-3.43,3-7.43,3.87-11.98c0.8-4.19,1.06-7.97,1.29-11.49 c0.67-9.93,1.21-17.93,12.13-28.06c5.78-5.36,12.52-8.89,20.26-10.09c6.62-1.02,13.92-0.33,21.95,2.38l3.94-7.88 c0.72-1.44,2.47-2.02,3.91-1.3c1.44,0.72,2.02,2.47,1.3,3.91L76.6,8.63L76.6,8.63z"/></g></svg>