<?xml version="1.0" encoding="utf-8"?><svg version="1.1" id="Layer_1" xmlns="http://www.w3.org/2000/svg" xmlns:xlink="http://www.w3.org/1999/xlink" x="0px" y="0px" viewBox="0 0 122.88 120.58" style="enable-background:new 0 0 122.88 120.58" xml:space="preserve"><g><path d="M73.41,51.05c0.21,0.08,0.42,0.16,0.62,0.25L89,30.17c-1.49-4.7-3.59-7.53-6.19-8.82c-2.41-1.2-5.41-1.15-8.88-0.09 L73.41,51.05L73.41,51.05z M91.31,7.56c12.44,7.55,22.76,20.2,28.02,36.17c5.26,15.97,4.48,32.29-1.04,45.74 c-5.57,13.58-15.95,24.26-29.82,28.83c-9.04,2.98-32.08,2.79-42.29,0.77C19.88,113.87,0,89.83,0,60.97 C0,14.88,54.64-14.7,91.31,7.56L91.31,7.56z M88.86,11.61C77.48,4.7,64.19,2.48,51.69,6.6c-12.49,4.11-21.87,13.79-26.92,26.12 c-5.09,12.42-5.81,27.52-0.94,42.37c0.02,0.06,0.04,0.11,0.06,0.17c4.91,14.84,14.45,26.56,25.93,33.53 c11.39,6.91,24.68,9.13,37.17,5.01c12.49-4.11,21.87-13.79,26.92-26.12c5.1-12.45,5.81-27.58,0.91-42.46 C109.92,30.35,100.36,18.59,88.86,11.61L88.86,11.61z M77.74,54.25c0.41,0.54,0.76,1.13,1.04,1.76l23.95-0.34 c0.96-5.09,0.36-9.85-1.49-13.75c-1.81-3.81-4.83-6.81-8.75-8.49L77.74,54.25L77.74,54.25z M79.6,60.74 c-0.19,2.27-1.18,4.32-2.69,5.85c-0.07,0.07-0.14,0.14-0.22,0.21l14.75,25.63c5.64-2.62,9.44-6.18,11.35-11.08 c2.02-5.19,2.03-12.01-0.03-20.94L79.6,60.74L79.6,60.74z M72.55,69.09c-0.72,0.18-1.47,0.28-2.24,0.28 c-0.18,0-0.35-0.01-0.52-0.01l-7.41,26.64c1.83,2.53,4.48,4.36,7.41,5.41c2.33,0.84,4.85,1.19,7.3,1.03 c2.38-0.16,4.67-0.81,6.61-1.99c1.77-1.07,3.26-2.58,4.27-4.55L72.55,69.09L72.55,69.09z M65.29,67.87 c-0.57-0.37-1.09-0.8-1.56-1.28c-0.54-0.55-1.02-1.17-1.41-1.84l-22.96,7.21c0.5,6.77,2.28,12.05,5.45,15.71 c3.02,3.48,7.41,5.56,13.27,6.14L65.29,67.87L65.29,67.87z M61.01,60.18c0-0.08,0-0.16,0-0.24c0-1.6,0.4-3.11,1.1-4.44L40.66,35.08 c-4.13,4.64-6.82,9.53-7.53,14.77c-0.72,5.35,0.6,11.19,4.56,17.65L61.01,60.18L61.01,60.18z M65.3,52 c1.01-0.66,2.15-1.12,3.38-1.34l0.53-30.18c-1.61-1.64-3.69-2.57-5.97-2.91c-2.34-0.35-4.88-0.07-7.37,0.72 c-2.54,0.81-5,2.13-7.08,3.87c-2.74,2.28-4.85,5.27-5.69,8.71L65.3,52L65.3,52z M72.22,64.19c0.06-0.04,0.12-0.08,0.18-0.11 c0.1-0.05,0.19-0.1,0.29-0.14c0.31-0.19,0.59-0.42,0.84-0.67c0.83-0.84,1.34-2.02,1.34-3.32s-0.51-2.48-1.34-3.32 c-0.67-0.69-1.56-1.16-2.56-1.3c-0.14,0-0.27-0.02-0.4-0.04c-0.09,0-0.17-0.01-0.26-0.01c-1.25,0-2.37,0.51-3.19,1.33 c-0.06,0.08-0.12,0.16-0.19,0.23c-0.04,0.04-0.08,0.08-0.12,0.12c-0.66,0.81-1.05,1.85-1.05,3c0,1.3,0.51,2.48,1.34,3.32 c0.82,0.83,1.96,1.35,3.21,1.35C71,64.61,71.64,64.46,72.22,64.19L72.22,64.19z M38.43,29.99c1.05-4.58,3.78-8.52,7.34-11.48 c2.58-2.15,5.58-3.78,8.68-4.76c3.15-1,6.43-1.34,9.49-0.88c3.11,0.46,5.99,1.73,8.31,3.95c4.75-1.5,9.02-1.54,12.67,0.28 c3.76,1.87,6.69,5.62,8.61,11.64c5.41,2.06,9.57,6.03,12,11.17c2.44,5.15,3.12,11.45,1.54,18.11c2.6,10.54,2.62,18.68,0.14,25.05 c-2.49,6.39-7.37,10.87-14.58,14.04c-1.41,3.28-3.7,5.74-6.48,7.42c-2.61,1.57-5.64,2.45-8.77,2.65c-3.06,0.2-6.23-0.24-9.19-1.31 c-3.87-1.39-7.37-3.84-9.79-7.27c-7.52-0.58-13.2-3.24-17.19-7.82c-4.01-4.62-6.18-11.12-6.65-19.34 c-5.28-8.02-7.06-15.37-6.13-22.21c0.9-6.63,4.32-12.64,9.53-18.22C38.03,30.64,38.19,30.3,38.43,29.99L38.43,29.99z"/></g></svg>