<?xml version="1.0" encoding="utf-8"?><svg version="1.1" id="Layer_1" xmlns="http://www.w3.org/2000/svg" xmlns:xlink="http://www.w3.org/1999/xlink" x="0px" y="0px" viewBox="0 0 107 122.88" style="enable-background:new 0 0 107 122.88" xml:space="preserve"><g><path d="M57.46,29.4c10.85-2.31,20.14-1.29,27.65,2.03c7.31,3.23,12.9,8.6,16.61,15.21c3.67,6.54,5.48,14.28,5.26,22.3 c-0.31,10.79-4.3,22.11-12.43,31.69c-4.3,5.08-9.6,9.43-15.82,13.12c-6.17,3.65-13.25,6.65-21.17,9.03 c-0.37,0.11-0.75,0.12-1.1,0.05c-8.7-1.72-16.38-4.22-23.02-7.51c-6.71-3.33-12.35-7.46-16.9-12.41C7.43,93,3.28,80.74,3.34,69.04 c0.04-7.99,2.05-15.73,5.77-22.3c3.77-6.64,9.28-12.09,16.31-15.44c1.56-0.74,3.19-1.38,4.89-1.9c-0.78,0.08-1.57,0.14-2.37,0.16 c-6.78,0.2-14.03-1.85-20.69-7.07c-2.34-1.84-4.61-4.06-6.74-6.7c-0.8-0.99-0.64-2.44,0.35-3.24C0.93,12.5,1,12.45,1.07,12.4 c2.08-1.51,4.18-2.88,6.3-4.07C9.57,7.09,11.84,6,14.18,5.11c7.15-2.74,14.62-3.47,21.23-1.45c5.99,1.83,11.22,5.88,14.81,12.67 c0.02,0.03,0.03,0.06,0.05,0.1c0.95,0.44,1.87,0.92,2.75,1.43c0.37-1.81,0.9-3.5,1.58-5.08c2.28-5.3,6.22-9.31,11.28-12.43 c1.08-0.67,2.5-0.33,3.17,0.75c0.67,1.08,0.33,2.5-0.75,3.17c-4.27,2.64-7.58,5.97-9.46,10.34c-0.91,2.12-1.5,4.49-1.7,7.17 c0.01,0.19,0,0.37-0.04,0.56C56.97,24.49,57.08,26.84,57.46,29.4L57.46,29.4z M36.56,28.04c3.83-0.5,7.93-0.46,12.3,0.2 c0.2,0,0.41,0.02,0.61,0.07l0.3,0.08c0.98,0.17,1.97,0.36,2.97,0.59c-0.26-2.12-0.36-4.12-0.3-6c-1.21-0.87-2.56-1.65-4.02-2.33 c-0.8,0.85-1.67,1.65-2.6,2.39C43.16,25.18,40.01,26.9,36.56,28.04L36.56,28.04z M43.6,18.88c-1.86-0.52-3.84-0.91-5.89-1.16 c-6.19-0.75-13.05-0.21-19.68,1.84c-1.22,0.37-2.5-0.31-2.88-1.53c-0.37-1.22,0.31-2.51,1.53-2.88c7.27-2.25,14.78-2.84,21.57-2.02 c1.67,0.2,3.29,0.49,4.87,0.86c-2.57-2.98-5.66-4.91-9.04-5.94c-5.57-1.7-12-1.03-18.25,1.36c-2.12,0.81-4.19,1.8-6.2,2.93 c-1.34,0.75-2.64,1.56-3.92,2.42c1.42,1.56,2.89,2.92,4.38,4.09c5.74,4.49,11.95,6.26,17.73,6.09c5.76-0.17,11.1-2.27,15.12-5.51 C43.16,19.26,43.38,19.07,43.6,18.88L43.6,18.88z M60.2,33.56c3.87,2.99,7.17,6.96,9.77,11.65c4.69,8.47,7.12,19.32,6.49,30.99 c-0.06,1.27-1.15,2.25-2.42,2.18c-1.27-0.06-2.25-1.15-2.18-2.42c0.59-10.81-1.63-20.79-5.91-28.52 c-4.07-7.34-10-12.62-17.14-14.56c-8.28-1.36-15.47-0.26-21.41,2.57c-6.14,2.93-10.98,7.71-14.28,13.54 C9.77,54.9,7.97,61.86,7.94,69.05c-0.05,10.61,3.72,21.73,12,30.74c4.17,4.53,9.35,8.33,15.55,11.4 c6.12,3.04,13.23,5.37,21.31,7.01c7.34-2.25,13.89-5.04,19.59-8.42c5.78-3.43,10.69-7.45,14.65-12.13 c7.42-8.75,11.07-19.04,11.34-28.84c0.2-7.19-1.41-14.1-4.68-19.92c-3.23-5.76-8.1-10.44-14.45-13.24 C76.99,32.89,69.27,31.94,60.2,33.56L60.2,33.56z"/></g></svg>