<?xml version="1.0" encoding="utf-8"?><svg version="1.1" id="Layer_1" xmlns="http://www.w3.org/2000/svg" xmlns:xlink="http://www.w3.org/1999/xlink" x="0px" y="0px" viewBox="0 0 106.64 122.88" style="enable-background:new 0 0 106.64 122.88" xml:space="preserve"><g><path d="M93.42,46.43c4.64-8.24,6.54-14.88,5.15-19.62c-1.3-4.45-5.83-7.42-14.1-8.68c-0.58-0.09-1.08-0.37-1.44-0.77 c-4.36-3.96-8.69-6.55-12.98-6.72c-4.23-0.16-8.66,2.09-13.39,7.81c-2.18,3.29-4.69,6.28-7.49,9.01c-2.84,2.76-5.99,5.25-9.44,7.5 c-3.54,2.31-6.54,3.92-9.31,5.41c-5.87,3.15-10.68,5.73-16.94,13.25c-5.5,6.61-8.4,13.61-8.57,21.02 c-0.17,7.47,2.41,15.46,7.88,23.98c4.66,6.64,10.37,11.42,17,14.55c6.68,3.16,14.33,4.69,22.8,4.81 c9.02-0.32,15.94-2.63,21.27-6.43c5.33-3.8,9.14-9.15,11.91-15.54c4.76-10.96,4.26-15.95,3.68-21.74 c-0.38-3.83-0.79-7.98,0.01-14.15c0.3-2.29,0.76-4.54,1.39-6.76c0.63-2.22,1.45-4.46,2.46-6.72C93.35,46.57,93.39,46.5,93.42,46.43 L93.42,46.43L93.42,46.43z M22.8,60.02c0.78-1.11,2.31-1.37,3.42-0.6c1.11,0.78,1.37,2.31,0.6,3.42 c-3.36,4.76-5.29,9.69-5.56,14.81c-0.27,5.13,1.12,10.55,4.41,16.28c0.67,1.18,0.27,2.68-0.91,3.35c-1.18,0.67-2.68,0.27-3.35-0.91 c-3.77-6.58-5.36-12.89-5.04-18.97C16.68,71.3,18.91,65.52,22.8,60.02L22.8,60.02z M84.28,11.99c2.62-3.81,5.39-6.84,8.33-8.89 c3.76-2.63,7.77-3.68,12.07-2.8c1.33,0.27,2.18,1.56,1.91,2.89c-0.27,1.33-1.56,2.18-2.89,1.91c-2.89-0.59-5.64,0.16-8.29,2.01 c-2.24,1.56-4.41,3.9-6.54,6.88c8.1,1.94,12.76,5.84,14.41,11.44c1.79,6.1-0.27,13.98-5.55,23.35c-0.87,1.95-1.58,3.92-2.15,5.92 c-0.58,2.04-1,4.05-1.26,6.03c-0.73,5.61-0.34,9.49,0.01,13.06c0.64,6.47,1.2,12.03-4.07,24.16c-3.12,7.19-7.45,13.24-13.57,17.6 c-6.1,4.35-13.91,6.98-23.97,7.34v0c-0.04,0-0.08,0-0.12,0c-9.22-0.11-17.57-1.79-24.92-5.27c-7.41-3.51-13.77-8.83-18.95-16.2l0,0 c-0.02-0.03-0.04-0.06-0.06-0.09c-6.03-9.38-8.88-18.3-8.68-26.78c0.2-8.56,3.48-16.57,9.7-24.05 c6.88-8.27,12.06-11.06,18.38-14.44c2.71-1.46,5.64-3.03,8.96-5.2c3.17-2.07,6.08-4.37,8.69-6.91c2.59-2.51,4.88-5.26,6.86-8.24 c0.06-0.1,0.13-0.19,0.2-0.28c5.85-7.11,11.66-9.89,17.42-9.67C75.09,5.94,79.75,8.3,84.28,11.99L84.28,11.99z"/></g></svg>