<?xml version="1.0" encoding="utf-8"?><svg version="1.1" id="Layer_1" xmlns="http://www.w3.org/2000/svg" xmlns:xlink="http://www.w3.org/1999/xlink" x="0px" y="0px" viewBox="0 0 122.76 122.88" style="enable-background:new 0 0 122.76 122.88" xml:space="preserve"><style type="text/css">.st0{fill-rule:evenodd;clip-rule:evenodd;}</style><g><path class="st0" d="M91.88,52.94c8.6,0.3,16.82,2.14,24.59,5.84c0.36-6.96-7.54-11.85-18.42-15.99 c10.67-2.7,22.66-5.43,24.72-9.22c-5.44-4.59-14.49-3.86-24.84-1.22c7.95-7.94,14.93-15.6,15.53-22.89 c-6.24,1.04-14.5,7.68-22.6,15.82C93.63,14.92,93.17,6.41,89.68,0c-5.1,6.05-7.73,15.34-9.39,25.79c-2.2-10.46-7.74-18-15.56-19.37 c2.43,8.82,4.91,17.11,5.67,25.21c-0.79-0.29-1.6-0.55-2.41-0.77c-8.24-2.31-16.28-1.47-23.99,1.51 c-7.61,2.94-14.84,7.96-21.56,14.06c-0.45,0.41-0.94,0.86-1.47,1.37c-0.47,0.45-0.95,0.91-1.44,1.4 c-6.5,6.48-11.95,13.4-15.43,20.85c-3.52,7.55-5.02,15.61-3.56,24.25c1.05,6.19,3.62,11.67,7.32,16.12 c3.79,4.56,8.76,8.05,14.47,10.12c7.67,2.79,14.84,2.98,21.87,1.14c6.96-1.83,13.71-5.64,20.64-10.87c1.99-1.51,3.9-3.06,5.72-4.65 c1.81-1.59,3.59-3.26,5.32-5.04c2.01-2.06,3.91-4.2,5.7-6.44c1.8-2.25,3.48-4.59,5.05-7.04c0.63-0.99,1.23-1.96,1.78-2.91 c0.57-0.98,1.12-1.97,1.64-2.97c0.02-0.03,0.04-0.07,0.05-0.1c2.91-5.98,4.26-11.7,4.16-17.21C94.21,60.48,93.39,56.65,91.88,52.94 L91.88,52.94z M73.31,37.26l-1.59,0.13l-1.27,15.36l15.36-1.27l0.13-1.59c-0.7-1.15-1.48-2.3-2.33-3.43 c-1.12-1.49-2.33-2.92-3.63-4.32c-2.1-1.93-4.29-3.53-6.55-4.82L73.31,37.26L73.31,37.26z M89.57,58.09l-1.05,12.73l1.63-0.13 c0.34-1.89,0.48-3.74,0.45-5.57C90.57,62.74,90.22,60.4,89.57,58.09L89.57,58.09z M89.06,75.09l-0.89,0.07l0,0l-0.25,3.01 C88.35,77.14,88.73,76.11,89.06,75.09L89.06,75.09z M82.86,87.25l0.97-11.73l-15.36,1.27L67.2,92.15l12.94-1.07 C81.08,89.84,81.99,88.56,82.86,87.25L82.86,87.25z M76.35,95.7l-9.51,0.78l-0.75,9.06c0.79-0.65,1.56-1.3,2.33-1.98 c1.79-1.56,3.48-3.16,5.07-4.79C74.48,97.78,75.43,96.75,76.35,95.7L76.35,95.7z M61.5,109.1l1.01-12.26l-15.36,1.27l-1.27,15.36 l10.38-0.86C58,111.55,59.74,110.38,61.5,109.1L61.5,109.1z M41.14,118.73l0.05-0.56l-9.46,0.78 C34.94,119.36,38.06,119.27,41.14,118.73L41.14,118.73z M20.62,115.55l1.22-0.1l1.27-15.36l-15.36,1.27l-0.14,1.66 c0.94,1.7,2.03,3.3,3.25,4.77C13.53,111.01,16.85,113.64,20.62,115.55L20.62,115.55z M4.14,92.85l0.89-10.84l0,0L4.04,82.1 C3.54,85.57,3.54,89.15,4.14,92.85L4.14,92.85z M4.97,77.71l0.42-0.04l0.15-1.88C5.33,76.43,5.14,77.07,4.97,77.71L4.97,77.71z M16.68,57.18l10.03-0.83l0.82-9.9c-0.96,0.81-1.92,1.64-2.86,2.5c-0.51,0.46-0.97,0.89-1.39,1.29c-0.47,0.45-0.93,0.89-1.36,1.33 C20.07,53.4,18.32,55.27,16.68,57.18L16.68,57.18z M32.13,42.85L31.05,56l15.36-1.27l1.27-15.36l-11.85,0.98 C34.58,41.13,33.35,41.97,32.13,42.85L32.13,42.85z M46.47,35.16l1.56-0.13l0.03-0.38C47.53,34.81,47,34.98,46.47,35.16 L46.47,35.16z M52.46,33.65l-0.08,1.02l11.27-0.93C59.85,33.04,56.12,33.05,52.46,33.65L52.46,33.65z M65.75,57.44l-15.36,1.27 l-1.27,15.36l15.36-1.27l0.6-7.23L65.75,57.44L65.75,57.44z M67.38,37.75l-15.36,1.27l-1.27,15.36l15.36-1.27L67.38,37.75 L67.38,37.75z M85.45,55.82l-15.36,1.27l-1.27,15.36l15.36-1.27L85.45,55.82L85.45,55.82z M64.13,77.14l-15.36,1.27L47.5,93.77 l15.36-1.27L64.13,77.14L64.13,77.14z M44.79,74.43l1.27-15.36l-15.36,1.27l-0.67,8.13l-0.6,7.23L44.79,74.43L44.79,74.43z M26.35,60.69l-13.35,1.1c-0.8,1.09-1.56,2.2-2.27,3.31L9.73,77.32l15.36-1.27L26.35,60.69L26.35,60.69z M44.43,78.77l-15.36,1.27 L27.8,95.39l15.36-1.27L44.43,78.77L44.43,78.77z M24.73,80.39L9.37,81.66L8.1,97.02l15.36-1.27L24.73,80.39L24.73,80.39z M41.54,113.83l1.27-15.36l-15.36,1.27l-1.27,15.36L41.54,113.83L41.54,113.83z"/></g></svg>