<?xml version="1.0" encoding="utf-8"?><svg version="1.1" id="Layer_1" xmlns="http://www.w3.org/2000/svg" xmlns:xlink="http://www.w3.org/1999/xlink" x="0px" y="0px" viewBox="0 0 121.47 122.88" style="enable-background:new 0 0 121.47 122.88" xml:space="preserve"><g><path d="M50.37,12.94c4.99-1.15,10.01-2.06,15.1-2.06c14.33,0,28.67,5.47,39.6,16.4c10.93,10.93,16.4,25.27,16.4,39.6 c0,14.33-5.47,28.67-16.4,39.6c-10.94,10.93-25.27,16.4-39.6,16.4c-14.33,0-28.67-5.47-39.6-16.4 c-10.93-10.94-16.4-25.27-16.4-39.6c0-4.76,0.8-9.47,1.81-14.16c2.17-10.04,5.51-7.95-1.31-14.73L0,29.31l11.48-4.99l1.27-11.88 l11.8-1.03L28.67,0l8.39,9.3C44.69,16.79,41.18,15.06,50.37,12.94L50.37,12.94z M70.29,60.07c-0.92-0.94-1.62-2.03-1.66-3.4 c-0.05-2.1,2.08-4.05,3.75-5.01c2.35-1.35,5.92-1.73,7.75,0.66c0.48,0.63,0.8,1.38,1.02,2.21c0.99,2.78-0.17,7.47-2.94,8.62 C75.31,64.34,72.2,62.01,70.29,60.07L70.29,60.07z M50.95,40.31c-0.92-0.94-1.62-2.03-1.66-3.4c-0.05-2.1,2.08-4.05,3.75-5.01 c2.35-1.35,5.92-1.73,7.75,0.66c0.48,0.63,0.8,1.38,1.02,2.21c0.99,2.78-0.17,7.47-2.94,8.62C55.97,44.58,52.86,42.25,50.95,40.31 L50.95,40.31z M73.02,37.99c-0.92-0.94-1.62-2.03-1.66-3.4c-0.05-2.1,2.08-4.05,3.75-5.01c2.35-1.35,5.92-1.73,7.75,0.66 c0.48,0.63,0.8,1.38,1.02,2.21c0.99,2.78-0.17,7.48-2.94,8.62C78.04,42.26,74.93,39.94,73.02,37.99L73.02,37.99z M92.36,57.33 c-0.92-0.94-1.62-2.03-1.65-3.4c-0.05-2.1,2.08-4.05,3.75-5.01c2.35-1.35,5.92-1.73,7.75,0.66c0.48,0.63,0.8,1.38,1.02,2.21 c0.99,2.78-0.17,7.47-2.94,8.62C97.38,61.6,94.27,59.28,92.36,57.33L92.36,57.33z M89.42,78.35c-0.92-0.94-1.62-2.03-1.65-3.4 c-0.05-2.1,2.08-4.05,3.75-5.01c2.35-1.35,5.92-1.73,7.75,0.66c0.48,0.63,0.8,1.38,1.02,2.21c0.99,2.78-0.17,7.47-2.94,8.62 C94.44,82.63,91.33,80.3,89.42,78.35L89.42,78.35z M29.89,30.43l72.02,72.02c9.66-9.89,14.49-22.73,14.49-35.58 c0-13.03-4.97-26.07-14.92-36.01c-9.95-9.95-22.98-14.92-36.01-14.92C52.63,15.95,39.78,20.77,29.89,30.43L29.89,30.43z"/></g></svg>