<svg id="Layer_1" data-name="Layer 1" xmlns="http://www.w3.org/2000/svg" viewBox="0 0 116.09 116.44"><title>pumpkin-line</title><path d="M71.26,112.94A26.53,26.53,0,0,1,58,116.44a27.24,27.24,0,0,1-13.37-3.83,1.76,1.76,0,0,1-.39-.32,20.42,20.42,0,0,1-8.1-.32,30.2,30.2,0,0,1-8.07-3.31h-.16a1.69,1.69,0,0,1-1-.37,1.84,1.84,0,0,1-.47,0,24.69,24.69,0,0,1-7.78-2.66,25.35,25.35,0,0,1-6.32-4.92c-5.53-5.85-9.23-14.08-11-22.79-1.93-9.22-1.77-19,.56-27.07A44.4,44.4,0,0,1,11.75,33a26.64,26.64,0,0,1,15.14-8.46,1.63,1.63,0,0,1,.44,0,1.72,1.72,0,0,1,.91-.29,24.08,24.08,0,0,1,9.4-3.59,24.76,24.76,0,0,1,10.16.68,1.66,1.66,0,0,1,.31.12,12.57,12.57,0,0,1,4.82-3.88,20,20,0,0,1,.5-2.8,38,38,0,0,1,1.78-5.41l0-.11a34.71,34.71,0,0,1,1.8-3.55c.69-1.19,1.44-2.33,2.24-3.44l.08-.1A5.33,5.33,0,0,1,68,8.45c-.57.79-1.11,1.62-1.61,2.48A24.44,24.44,0,0,0,65,13.53h0a20.21,20.21,0,0,0-.92,2.61c-.13.45-.24.91-.33,1.37a12.66,12.66,0,0,1,5,3.83l.07-.05a2.19,2.19,0,0,1,.33-.12,22.21,22.21,0,0,1,9.12-.47A34.59,34.59,0,0,1,88.37,24a1.71,1.71,0,0,1,.9.39,1.51,1.51,0,0,1,.48.05,25,25,0,0,1,9.79,4.12,39.4,39.4,0,0,1,9.55,9.83l.13.23c5.75,10.06,8.14,24.4,6.22,37.5-1.71,11.73-6.87,22.54-16.15,28.54h0A24.37,24.37,0,0,1,94.84,107a25.19,25.19,0,0,1-4.78,1.33,2.07,2.07,0,0,1-.43,0,1.75,1.75,0,0,1-1,.44l-.41,0a26.22,26.22,0,0,1-7.83,3.17,23.41,23.41,0,0,1-8.4.35,1.69,1.69,0,0,1-.72.66Zm-17-92.32a0,0,0,0,1,0,0c-3.51,1.44-6.12,6.25-8.06,12.2-3.74,11.46-4.77,26.85-5,32.13a156.85,156.85,0,0,0,1,25.42A87.71,87.71,0,0,0,46.82,110,23.63,23.63,0,0,0,58,113.09a23.21,23.21,0,0,0,11.2-2.86,76.5,76.5,0,0,0,5.24-18.75A135.68,135.68,0,0,0,75.86,67c-.17-6.35-1.08-22.17-4.86-33.85-2.16-6.66-5.2-11.89-9.47-12.81h0l-.08,0a13,13,0,0,0-6.08-.09,1.92,1.92,0,0,1-.36.14,5.34,5.34,0,0,0-.53.16l-.26.11Zm43.4,10.69a22.59,22.59,0,0,0-5.58-2.83,129.89,129.89,0,0,1,5.17,17.87,107.12,107.12,0,0,1,2.33,20.71,95.44,95.44,0,0,1-1.89,20.28,97.46,97.46,0,0,1-5,16.85c.35-.11.69-.23,1-.37a21.3,21.3,0,0,0,3.85-2c8.37-5.42,13.06-15.35,14.64-26.21,1.82-12.4-.41-25.91-5.8-35.34a36,36,0,0,0-8.69-9ZM77.8,24a19.47,19.47,0,0,0-5.75,0,87.76,87.76,0,0,1,5.64,18,140.77,140.77,0,0,1,2.83,24.81,132.72,132.72,0,0,1-1.45,23.91,94,94,0,0,1-4.68,18.39,20.11,20.11,0,0,0,5.27-.48,22.75,22.75,0,0,0,7.16-3,1.82,1.82,0,0,1,.56-.22,91.38,91.38,0,0,0,6.13-18.57,88.54,88.54,0,0,0,2-19.77A100.25,100.25,0,0,0,93.09,46.9,125.93,125.93,0,0,0,86.93,27a31.34,31.34,0,0,0-9.13-3ZM20.3,102.67a21,21,0,0,0,3.63,1.55,96.82,96.82,0,0,1-5.07-16.89A95.44,95.44,0,0,1,17,67.05,107.31,107.31,0,0,1,19.3,46.39,130.15,130.15,0,0,1,24.47,28.5a24.49,24.49,0,0,0-10.28,6.75A41,41,0,0,0,5.1,51.74C2.93,59.28,2.78,68.5,4.61,77.21,6.31,85.35,9.74,93,14.82,98.4a22.16,22.16,0,0,0,5.48,4.27Zm16.6,6a18.13,18.13,0,0,0,4.85.49,107.14,107.14,0,0,1-4.31-19.52,151.78,151.78,0,0,1-1.08-25A141.31,141.31,0,0,1,39.43,39.8,65.13,65.13,0,0,1,44.77,24a20.11,20.11,0,0,0-15.1,3.22l-.2.11a126.41,126.41,0,0,0-6,19.63,99.88,99.88,0,0,0-2.36,20.12A88.77,88.77,0,0,0,23,86.85a91.54,91.54,0,0,0,6.12,18.57l.25.12a27.24,27.24,0,0,0,7.51,3.16Z"/></svg>