<svg id="Layer_1" data-name="Layer 1" xmlns="http://www.w3.org/2000/svg" viewBox="0 0 122.88 113.09"><defs><style>.cls-1{fill-rule:evenodd;}</style></defs><title>pumpkin-black</title><path class="cls-1" d="M73.82,109.76c-8.18,4.55-16.9,4.42-25.06-.28-5.27-13.61-7-30.63-6.41-46.27.32-8.51,3.25-43,15.54-46.16a3.84,3.84,0,0,1,0-.83A29.07,29.07,0,0,1,60,8.29,35.83,35.83,0,0,1,64,1.52,3.66,3.66,0,0,1,69.89,5.8a28.67,28.67,0,0,0-3.11,5.4A21.53,21.53,0,0,0,65.18,17C78.34,19.88,81,55,81.31,65.28c.41,15.47-1.7,31.66-7.49,44.48ZM45,109c-4.84.84-10-.4-15.49-3.64H29a91.46,91.46,0,0,1-8.61-39.87c.17-13.53,3.26-27.29,8.88-41.24h.45a22,22,0,0,1,18.64-3C43.39,28.94,39.68,45.16,39,63.09,38.43,78.47,40,95.2,45,109ZM75.41,21.11c5.18-1.4,11.2-.69,18.37,2.89H94c5.67,14,8.79,27.84,9,41.43a91.33,91.33,0,0,1-8.65,40l-.79,0a23,23,0,0,1-15.68,3.49C83.11,96,85.05,80.25,84.65,65.2c-.46-17.39-4.06-33.91-9.24-44.09ZM25.08,104.94a22.81,22.81,0,0,1-13.15-7.07C1,86.28-2.54,64.74,1.82,49.61,5.1,38.23,13.33,26.42,25.48,24.47,20.1,38.27,17.14,51.92,17,65.39a94.29,94.29,0,0,0,8.11,39.55ZM97.8,24.39c6.19,1.12,12.33,4.77,18.38,13.3,10.56,18.36,9.48,51.71-9.34,63.89A22.77,22.77,0,0,1,98.23,105a94.47,94.47,0,0,0,8.11-39.55c-.17-13.5-3.13-27.18-8.54-41Z"/></svg>