<?xml version="1.0" encoding="utf-8"?><svg version="1.1" id="Layer_1" xmlns="http://www.w3.org/2000/svg" xmlns:xlink="http://www.w3.org/1999/xlink" x="0px" y="0px" viewBox="0 0 89.157 122.88" enable-background="new 0 0 89.157 122.88" xml:space="preserve"><g><path fill="#311E09" d="M28.975,113.595c-5.093-2.597-10.099-5.768-14.801-10.026C-1.181,89.664-0.628,79.692,0.502,59.331 L0.56,58.29c0.691-12.512,7.595-24.422,17.371-32.509c5.719-4.73,12.435-8.168,19.479-9.669c7.101-1.513,14.533-1.058,21.623,2.016 c9.851,4.271,18.97,13.583,25.479,29.687c4.189,10.362,5.563,19.174,4.047,28.37c-1.5,9.098-5.835,18.469-13.079,30.033 l-1.205,1.943c-7.048,11.38-11.837,19.109-30.144,11.96C39.135,118.171,34.01,116.161,28.975,113.595L28.975,113.595z"/><path fill-rule="evenodd" clip-rule="evenodd" fill="#57912A" d="M15.445,102.163c9.097,8.239,19.49,12.327,29.378,16.188 c17.855,6.973,21.78-1.526,29.052-13.138c14.217-22.698,16.987-36.629,8.876-56.693C59.806-8.235,4.433,22.616,2.456,58.394 C1.325,78.857,0.509,88.638,15.445,102.163L15.445,102.163z"/><path fill-rule="evenodd" clip-rule="evenodd" fill="#6EA649" d="M33.014,97.939C11.919,92.188,7.213,49.234,26.562,39.05 C18.595,56.082,21.548,83.038,33.014,97.939L33.014,97.939z"/><path fill="#311E09" d="M57.048,17.414c3.052,1.033,6.04,2.524,8.91,4.52c0.836,0.585,1.065,1.733,0.506,2.594 c-0.949,1.455-2.56,2.594-4.568,3.276c-1.799,0.61-3.96,0.87-6.264,0.663c-4.571-0.411-11.263-3.296-11.111-8.73 c0.017-0.627,0.134-1.221,0.338-1.776c0.207-0.562,0.504-1.093,0.88-1.586c0.362-0.47,0.938-0.766,1.576-0.743 C50.591,15.757,53.855,16.333,57.048,17.414L57.048,17.414z"/><path fill-rule="evenodd" clip-rule="evenodd" fill="#91C35D" d="M64.873,23.495c-5.579-3.878-11.593-5.736-17.626-5.968 c-0.512,0.671-0.808,1.434-0.831,2.261c-0.093,3.276,4.106,6.316,9.379,6.791C59.914,26.949,63.47,25.645,64.873,23.495 L64.873,23.495z"/><path fill="#311E09" d="M23.123,22.719c2.87-1.997,5.858-3.488,8.909-4.521c3.193-1.08,6.458-1.657,9.734-1.783 c0.638-0.022,1.214,0.273,1.574,0.745c0.378,0.491,0.675,1.022,0.882,1.584c0.204,0.557,0.32,1.15,0.338,1.777 c0.064,2.307-1.262,4.447-3.458,6.037c-1.954,1.414-4.66,2.425-7.653,2.694c-2.303,0.207-4.465-0.052-6.263-0.663 c-2.009-0.683-3.619-1.822-4.568-3.276C22.057,24.45,22.287,23.303,23.123,22.719L23.123,22.719z"/><path fill-rule="evenodd" clip-rule="evenodd" fill="#91C35D" d="M24.208,24.278c5.578-3.878,11.592-5.736,17.625-5.968 c0.513,0.671,0.808,1.434,0.831,2.261c0.092,3.276-4.106,6.316-9.379,6.791C29.167,27.732,25.611,26.428,24.208,24.278 L24.208,24.278z"/><path fill="#311E09" d="M43.603,15.683c3.119-0.198,6.26-0.004,9.371,0.633c0.516,0.079,0.997,0.368,1.305,0.838 c0.344,0.526,0.606,1.096,0.774,1.703c0.167,0.596,0.235,1.213,0.197,1.841c-0.142,2.302-1.658,4.314-3.994,5.705 c-2.086,1.241-4.869,2.01-7.852,2.01c-0.314,0-0.671-0.013-1.065-0.037c-2.703-0.166-5.11-0.962-6.861-2.156 c-1.999-1.363-3.205-3.254-3.205-5.406l0.015-0.34c0.018-0.288,0.056-0.571,0.115-0.845l0.02-0.098 c0.071-0.306,0.167-0.607,0.285-0.897l0.005,0.002c0.205-0.504,0.625-0.918,1.184-1.095C37.078,16.529,40.335,15.889,43.603,15.683 L43.603,15.683z"/><path fill-rule="evenodd" clip-rule="evenodd" fill="#91C35D" d="M52.688,18.195c-6.072-1.263-12.291-0.732-18.218,1.153 c-0.163,0.399-0.261,0.813-0.287,1.238c-0.201,3.271,3.927,5.923,9.221,5.923c5.294,0,9.75-2.652,9.951-5.923 C53.406,19.735,53.166,18.927,52.688,18.195L52.688,18.195z"/><path fill="#311E09" d="M45.136,19.193c-0.109,0.051-0.222,0.096-0.337,0.134c-0.818,0.268-1.669,0.178-2.383-0.183 c-0.718-0.363-1.297-0.997-1.566-1.814c-0.232-0.705-1.609-1.531-2.727-2.201l-0.132-0.08c-0.851-0.51-1.626-0.986-2.258-1.598 c-0.917-0.885-1.447-1.912-1.337-3.291c0.068-0.859,0.479-1.612,1.089-2.134c0.581-0.496,1.336-0.781,2.142-0.752 c0.102,0,0.201,0.009,0.299,0.025c0.794,0.104,1.487,0.502,1.973,1.072c0.225,0.263,0.407,0.563,0.536,0.887 c0.248,0.129,0.544,0.291,0.896,0.501c0.715,0.428,1.492,0.895,2.209,1.425c0.09-0.106,0.184-0.208,0.281-0.307 c0.741-0.748,1.599-1.168,2.558-1.639c0.523-0.256,1.12-0.549,1.603-1.032c0.499-0.5,0.977-1.279,1.343-2.583 c0.043-0.154,0.068-0.27,0.082-0.36l0.041-0.346c0.102-0.982,0.172-1.649,0.833-2.516c0.521-0.682,1.337-1.276,2.847-2.054 c0.768-0.396,1.626-0.443,2.389-0.197l0.143,0.052c0.704,0.264,1.316,0.779,1.685,1.493l0.022,0.047 c0.372,0.753,0.412,1.587,0.175,2.334l-0.002,0.007c-0.241,0.761-0.776,1.431-1.543,1.827l-0.39,0.202l-0.039,0.243 c-0.05,0.295-0.118,0.616-0.215,0.96c-0.717,2.554-1.768,4.19-2.908,5.328c-1.149,1.144-2.305,1.711-3.319,2.208 c-0.27,0.132-0.489,0.226-0.496,0.236c-0.011,0.015,0.04,0.11,0.106,0.492l0.014,0.104c0.113,0.812-0.103,1.605-0.55,2.236 c-0.463,0.653-1.175,1.129-2.024,1.274C45.823,19.253,45.474,19.25,45.136,19.193L45.136,19.193z"/><path fill="#91C35D" d="M44.844,17.043c-0.147,0.217-0.365,0.389-0.633,0.477c-0.646,0.213-1.344-0.139-1.557-0.785 c-0.452-1.371-2.168-2.4-3.562-3.236c-1.605-0.961-2.917-1.749-2.803-3.189c0.053-0.678,0.646-1.186,1.325-1.132 c0.678,0.053,1.185,0.647,1.132,1.325c-0.006,0.074,0.727,0.357,1.608,0.886c1.345,0.806,2.929,1.756,3.925,3.167 c0.063-2.206,1.322-2.824,2.93-3.612c1.321-0.648,3.005-1.474,3.94-4.806c0.121-0.433,0.156-0.761,0.183-1.025 c0.138-1.326,0.188-1.799,2.662-3.076c0.604-0.311,1.347-0.074,1.657,0.53c0.312,0.604,0.074,1.347-0.529,1.658 c-1.293,0.667-1.306,0.792-1.342,1.139c-0.037,0.363-0.085,0.815-0.26,1.44c-1.232,4.386-3.474,5.484-5.232,6.347 c-1.013,0.497-1.757,0.862-1.431,2.75c0.115,0.67-0.336,1.307-1.007,1.421C45.477,17.384,45.112,17.272,44.844,17.043 L44.844,17.043z"/></g></svg>