<?xml version="1.0" encoding="utf-8"?><svg version="1.1" id="Layer_1" xmlns="http://www.w3.org/2000/svg" xmlns:xlink="http://www.w3.org/1999/xlink" x="0px" y="0px" viewBox="0 0 122.88 100.01" style="enable-background:new 0 0 122.88 100.01" xml:space="preserve"><style type="text/css">.st0{fill:#7C7D7E;} .st1{fill:#078407;} .st2{fill:#8FBA39;} .st3{fill:#8FBA39;stroke:#8FBA39;stroke-width:0.216;stroke-miterlimit:2.6131;} .st4{fill-rule:evenodd;clip-rule:evenodd;fill:#75AA00;} .st5{fill-rule:evenodd;clip-rule:evenodd;fill:#F23329;} .st6{fill-rule:evenodd;clip-rule:evenodd;fill:#D61D1D;stroke:#F60D11;stroke-width:0.216;stroke-miterlimit:2.6131;} .st7{fill-rule:evenodd;clip-rule:evenodd;fill:#D61D1D;} .st8{fill:#FFFFFF;}</style><g><path class="st0" d="M121.12,36.05c0,0.09-0.01,0.18-0.02,0.27c-0.56,13.42-3.68,25.14-10.11,34.66 c-6.49,9.61-16.29,16.92-30.16,21.41c-0.04,0.01-0.08,0.02-0.11,0.03v6.66c0,0.51-0.42,0.94-0.94,0.94H38.58 c-0.66,0-1.2-0.54-1.2-1.2v-6.44c-0.13-0.05-0.25-0.11-0.37-0.18c-12.72-6.02-21.69-13.93-27.63-23.4 C3.41,59.29,0.53,48.28,0,36.14c-0.05-1.21,0.89-2.24,2.1-2.29c0.03,0,0.06,0,0.09,0c0,0,1.23,0,3.44,0l0,0l114.96,0.79h0.04 C120.62,34.65,121.12,35.48,121.12,36.05L121.12,36.05L121.12,36.05z"/><path class="st1" d="M5.63,33.85c-0.44-0.48-0.8-1.02-1.08-1.63l1.2-0.31c-1.32-1.52-2.58-3.08-3.09-5.09l1.22-0.33 c-1.07-1.83-1.85-3.56-2.03-5.09l1.35,0.19c-0.98-2.38-1.53-4.51-1.48-6.3l1.37,0.38l0,0c-0.86-2.08-1.13-4.44-1.04-6.64 c1.96,0.65,3.9,1.66,5.82,3.27l0.18-1.38c1.48,0.5,3.3,1.77,5.36,3.57l0.25-1.31c1.43,0.87,2.79,2.09,4.07,3.73l0.71-0.99 c1.28,1,2.5,2.56,3.68,4.7l0.75-1.04c1.01,1.18,1.75,2.78,2.08,4.97l0.96-0.66c0.36,0.75,0.6,1.74,0.66,3.08 c1,0.97,2.28,1.75,3.75,2.36v4.87C29.05,34.2-10.31,33.85,5.63,33.85L5.63,33.85z M16.65,33.84h1.38 c-0.94-1.24-1.86-2.49-2.76-3.75c-3.17-4.44-6.03-8.94-8.63-13.73c-0.77-1.42-1.51-2.85-2.22-4.3c-0.1,0.82,1.87,5.12,3.33,7.85 C10.37,24.78,13.43,29.37,16.65,33.84L16.65,33.84L16.65,33.84L16.65,33.84z"/><path class="st2" d="M81.04,2.44c3.1-1.41,6.54-2.2,10.17-2.2c4.31,0,8.36,1.11,11.88,3.07c0,0.37,0.01,0.73,0.04,1.07 c0.01,0.16,0.03,0.33,0.05,0.48c-0.39-0.13-0.79-0.33-1.28-0.58l0,0V4.27l-0.02-0.01c-0.95-0.49-2.12-0.11-2.61,0.85 c-0.12,0.24-0.19,0.5-0.21,0.75c-0.02,0.28-0.07,0.61-0.12,0.95C98.85,7.4,98.77,8,98.72,8.59c-0.21-0.12-0.4-0.25-0.6-0.42 c-0.8-0.71-2.03-0.63-2.74,0.17c-0.23,0.27-0.38,0.58-0.45,0.9c-0.32,1.22-0.38,2.4-0.29,3.53c-0.59-0.33-1.16-0.72-1.7-1.1 c-0.87-0.62-2.08-0.41-2.69,0.46c-0.19,0.28-0.31,0.58-0.34,0.9H89.9c-0.04,0.3-0.06,0.62-0.07,0.93c-0.26-0.05-0.54-0.1-0.81-0.14 c0.06-0.3,0.12-0.6,0.16-0.91c0.18-1.23,0.19-2.52-0.11-3.88h-0.01C89,8.75,88.88,8.49,88.69,8.25c-0.65-0.85-1.86-0.99-2.7-0.33 c-0.24,0.19-0.49,0.34-0.75,0.46c-0.01-0.65-0.07-1.3-0.13-1.95c-0.03-0.31-0.06-0.61-0.08-0.99c0-0.26-0.05-0.52-0.16-0.77 c-0.43-0.98-1.58-1.42-2.56-0.99l-0.02,0.01l0,0h-0.01c-0.56,0.25-1.01,0.45-1.46,0.56c0.04-0.2,0.07-0.39,0.1-0.6 C80.99,3.27,81.02,2.86,81.04,2.44L81.04,2.44L81.04,2.44z"/><path class="st1" d="M107.25,34.46l3.37,0.05c-2.68-2.48-4.9-5.34-6.73-8.52C104.47,29.1,105.47,31.99,107.25,34.46L107.25,34.46 L107.25,34.46z"/><path class="st1" d="M100.34,34.37l2.13,0.03c-2.46-4.33-7.45-6.17-10.99-9.74c-0.39-0.4-0.77-0.8-1.13-1.23 c-0.18,0.05-0.36,0.11-0.55,0.16c-2.04,0.56,2.51,3.71,7.43,7.9C98.35,32.44,99.42,33.39,100.34,34.37L100.34,34.37L100.34,34.37z"/><path class="st1" d="M72.02,33.98l3.4,0.05c1.76-2.36,2.86-5.11,3.59-8.09C77.04,28.95,74.74,31.65,72.02,33.98L72.02,33.98 L72.02,33.98z"/><path class="st1" d="M64.59,33.87l6.29,0.09l-1.79-5.62c3.27-2.07,5.68-5.46,7.29-10.06c-2.38,3.28-5.01,6-7.57,6.67 c-3.43-25.25-1.9,5.77-1.02,8.77c-2.1-1.43-3.93-3.41-5.48-5.95C62.69,30.01,63.36,32.09,64.59,33.87L64.59,33.87L64.59,33.87z"/><path class="st1" d="M59.52,23.96c0.69-6.86,4.64-13.77,12.22-18.65c2.46-1.58,5.03-3.13,7.3-5.31c0.23,2.52,0.02,4.54-0.86,5.83 c2.09,0.88,3.13,0.41,4.93-0.39c0.11,1.87,0.55,3.92-0.31,5.43c1.72-0.26,2.98-0.32,4.4-1.44c0.49,2.22-0.03,4.25-0.65,6.11 c2.22,0.05,4.02,0.43,5.36,1.02c-0.15-1.11-0.17-2.27-0.05-3.33c1.54,1.09,3.34,2.25,5.31,2.32c-0.51-1.83-0.9-3.82-0.31-5.94 c1.32,1.16,2.54,1.29,4.18,1.63c-0.75-1.51-0.22-3.46-0.02-5.26c1.7,0.87,2.68,1.38,4.75,0.64c-0.78-1.28-0.89-3.25-0.53-5.68 c2.08,2.23,4.49,3.86,6.78,5.52c5.82,4.21,10.05,9.59,10.77,17.01c0.38,3.9-0.43,7.71-2.17,11.1h-3.32 c1.36-1.68,2.14-3.72,2.64-5.93c-1.64,2.37-3.5,4.19-5.61,5.46c1.01-2.85,4.12-32.76-0.52-8.53c-2.45-0.78-4.84-3.55-6.97-6.84 c1.32,4.54,3.47,7.93,6.52,10.11l-2.16,5.68l0,0l4.19,0.05H61.45c-0.95-2.46-1.93-5.09-1.93-7.74V23.96L59.52,23.96z"/><path class="st3" d="M110.62,34.51c-2.68-2.48-4.9-5.34-6.73-8.52c0.58,3.11,1.58,6.11,3.36,8.58L110.62,34.51L110.62,34.51z"/><path class="st2" d="M100.34,34.37l2.13,0.03c-2.46-4.33-7.45-6.17-10.99-9.74c-0.39-0.4-0.77-0.8-1.13-1.23 c-0.18,0.05-0.36,0.11-0.55,0.16c-2.04,0.56,2.51,3.71,7.43,7.9C98.35,32.44,99.42,33.39,100.34,34.37L100.34,34.37L100.34,34.37z"/><path class="st2" d="M72.02,33.98l3.4,0.05c1.76-2.36,2.86-5.11,3.59-8.09C77.04,28.95,74.74,31.65,72.02,33.98L72.02,33.98 L72.02,33.98z"/><path class="st2" d="M64.59,33.87l6.29,0.09l-1.79-5.62c3.27-2.07,5.68-5.46,7.29-10.06c-2.38,3.28-5.01,6-7.57,6.67 c-3.43-25.25-1.9,5.77-1.02,8.77c-2.1-1.43-3.93-3.41-5.48-5.95C62.69,30.01,63.36,32.09,64.59,33.87L64.59,33.87L64.59,33.87z"/><path class="st4" d="M42.94,15.71c0.58,2.54,1.14,4.9,1.61,6.19c1.42-0.07,2.34-0.45,3.31-0.81c1.19-0.44,2.18-1,3.05-1.65 c0.66-0.43,1.03-0.23,0.98,0.88c-0.2,1.04-0.74,1.84-1.56,2.44c0.04,0,0.09,0,0.13,0c-0.16,0.01-0.32,0.03-0.48,0.05l0,0 c2.05,0.6,3.55,1.85,4.07,4.22c0.04,1.19-0.28,1.74-0.78,1.06c-2.63-2.09-4.96-3.2-7.2-2.63c0.75,1.8,2.33,3.04,3.96,4.38 c-2.94,0.04-5.62-1.1-7.99-3.37c-2.65,1.3-6.51,0.94-7.97,2.97c-0.85,1.04-1.02,0.51-0.79-0.91c0.62-2.27,1.68-3.73,3.22-4.31 c-2.27,0.09-3.89-0.44-4.88-1c1.16-0.43,2.58-0.48,4.18-0.66l-2.37-0.96c-0.42-0.27-0.24-0.44,0.44-0.5 c3.04-0.12,5.71,0.03,7.72,0.63c-0.03-1.7-0.75-3.39-1.58-5.09l2.18-1.42L42.94,15.71L42.94,15.71L42.94,15.71z"/><path class="st5" d="M49.73,22.75c1.98,0.58,3.42,1.79,3.93,4.07c0.04,1.15-0.12,1.6-0.61,0.94c-2.54-2.01-4.93-3.01-7.09-2.47 c0.73,1.74,2.17,3.1,3.75,4.39c-2.83,0.04-5.34-1.22-7.63-3.41c-2.56,1.25-6.28,0.91-7.69,2.87c-0.82,1.01-0.98,0.5-0.76-0.88 c0.6-2.19,1.62-3.6,3.11-4.15c-2.45,0.09-4.06-0.24-4.99-0.93c-1.25,0.42-2.22,0.98-2.89,1.69l0,0c-0.02,0.02-0.03,0.03-0.05,0.05 c-0.94,0.82-1.68,1.76-2.21,2.8c-0.57,1.09-0.92,2.28-1.07,3.53c-0.12,0.96-0.14,1.95-0.07,2.95h35.26c0-1.56-0.22-3.22-0.68-4.95 l0,0c-0.2-0.67-0.43-1.28-0.7-1.84c-0.27-0.56-0.56-1.07-0.89-1.52c-1.03-1.42-2.36-2.35-3.97-2.83 C53.09,22.64,51.5,22.55,49.73,22.75L49.73,22.75L49.73,22.75z"/><path class="st6" d="M36.07,24.43c0.21-0.13,0.43-0.24,0.67-0.32c-0.22,0.01-0.43,0.01-0.64,0.01 C36.09,24.24,36.08,24.34,36.07,24.43L36.07,24.43z M28.28,25.41c-0.69,0.7-1.26,1.47-1.69,2.31c-0.57,1.09-0.92,2.28-1.07,3.53 c-0.12,0.96-0.14,1.95-0.07,2.95h2.58C27.49,31.65,27.51,28.73,28.28,25.41L28.28,25.41z"/><path class="st7" d="M56.52,34.19c-0.02-0.32-0.05-0.63-0.1-0.92c-0.2-1.4-0.65-2.6-1.29-3.66c-0.17-0.28-0.08-0.65,0.2-0.83 c0.28-0.17,0.65-0.08,0.83,0.2c0.72,1.19,1.22,2.54,1.45,4.11c0.05,0.36,0.09,0.72,0.11,1.1H56.52L56.52,34.19z"/><path class="st8" d="M10.81,66.6c5.72,9.43,14.41,17.36,26.73,23.45h43.21c13.29-4.52,22.65-11.76,28.83-21.22 c5.88-9.02,8.92-20.1,9.7-32.81H1.83C2.6,47.38,5.41,57.69,10.81,66.6L10.81,66.6L10.81,66.6L10.81,66.6z"/><path class="st0" d="M98.3,51.62c0.26-0.87,1.17-1.37,2.04-1.12c0.87,0.26,1.37,1.17,1.12,2.04c-0.68,2.31-1.5,4.62-2.46,6.89 c-0.95,2.24-2.02,4.42-3.2,6.5c-0.45,0.79-1.45,1.07-2.24,0.62c-0.79-0.45-1.07-1.45-0.62-2.24c1.13-1.98,2.15-4.04,3.03-6.15 C96.87,56.03,97.65,53.84,98.3,51.62L98.3,51.62L98.3,51.62L98.3,51.62L98.3,51.62z M90.87,67.64c0.51-0.76,1.53-0.96,2.28-0.45 c0.76,0.51,0.96,1.53,0.45,2.28c-0.84,1.25-1.72,2.44-2.63,3.57c-0.9,1.12-1.85,2.18-2.83,3.18c-0.64,0.65-1.68,0.66-2.33,0.02 c-0.65-0.64-0.66-1.68-0.02-2.33c0.9-0.92,1.78-1.9,2.61-2.94C89.27,69.91,90.09,68.79,90.87,67.64L90.87,67.64L90.87,67.64 L90.87,67.64L90.87,67.64z"/><path class="st2" d="M117.42,34.57l-6.2-0.01l1.99-5.74c-3.16-2.23-5.09-5.57-6.47-10.24c2.21,3.39,4.4,6.07,6.92,6.87 c4.84-24.51,1.76,5.94,0.67,8.65c2.17-1.32,4.01-3.05,5.68-5.51C119.51,30.81,118.74,32.85,117.42,34.57L117.42,34.57L117.42,34.57 z"/></g></svg>