<?xml version="1.0" encoding="utf-8"?><svg version="1.1" id="Layer_1" xmlns="http://www.w3.org/2000/svg" xmlns:xlink="http://www.w3.org/1999/xlink" x="0px" y="0px" viewBox="0 0 122.88 122.88" style="enable-background:new 0 0 122.88 122.88" xml:space="preserve"><g><path d="M103.17,0.59c13.45,13.98,20.01,32.18,19.7,50.39c-0.31,18.21-7.47,36.42-21.47,50.41c-13.99,13.99-32.2,21.16-50.41,21.47 c-18.25,0.31-36.49-6.28-50.48-19.79c-0.65-0.63-0.67-1.67-0.05-2.32l0.02-0.02l0,0l2.85-2.85c12.53,11.14,28.41,16.54,44.27,16.27 c16.63-0.29,33.29-6.86,46.09-19.68c12.8-12.81,19.37-29.46,19.67-46.1l0,0c0.29-15.87-5.13-31.73-16.27-44.27l3.63-3.63 c0.64-0.64,1.69-0.64,2.33,0C103.1,0.51,103.14,0.55,103.17,0.59L103.17,0.59L103.17,0.59z M80.19,45.03 c0.9-0.9,2.29-1.01,3.31-0.33l-2.62,4.55c-0.25-0.12-0.48-0.29-0.69-0.49C79.16,47.72,79.16,46.05,80.19,45.03L80.19,45.03 L80.19,45.03z M47.89,87.27c0.88-0.88,2.25-0.97,3.23-0.26l-2.49,4.32c-0.27-0.12-0.52-0.29-0.74-0.51 C46.91,89.83,46.91,88.25,47.89,87.27L47.89,87.27L47.89,87.27z M29.03,87.19c0.85-0.85,2.18-0.96,3.15-0.32l-2.5,4.33 c-0.24-0.12-0.46-0.27-0.66-0.47C28.04,89.75,28.04,88.17,29.03,87.19L29.03,87.19L29.03,87.19z M68.58,64.68 c0.97-0.97,2.54-0.97,3.52-0.02l-2.43,4.21c-0.4-0.11-0.78-0.33-1.1-0.64C67.6,67.24,67.6,65.65,68.58,64.68L68.58,64.68 L68.58,64.68z M61.91,46.92c0.87-0.87,2.22-0.96,3.2-0.29l-2.5,4.33c-0.25-0.12-0.49-0.28-0.7-0.49 C60.93,49.48,60.93,47.89,61.91,46.92L61.91,46.92L61.91,46.92z M87.74,27.94c0.7-0.06,1.43,0.19,1.97,0.72 c0.97,0.97,0.97,2.56,0,3.55c-0.54,0.54-1.26,0.78-1.97,0.72V27.94L87.74,27.94z M70.62,87.94c0.85-0.85,2.17-0.96,3.14-0.33 l-2.5,4.33c-0.23-0.12-0.45-0.27-0.64-0.46C69.64,90.5,69.64,88.92,70.62,87.94L70.62,87.94L70.62,87.94z M86.4,67.55 c0.83-0.83,2.1-0.95,3.06-0.38l-2.5,4.34c-0.2-0.11-0.39-0.25-0.56-0.42C85.42,70.12,85.42,68.53,86.4,67.55L86.4,67.55L86.4,67.55 z M46.23,66.16c0.93-0.93,2.42-0.97,3.41-0.13l-2.46,4.27c-0.34-0.12-0.67-0.32-0.94-0.59C45.24,68.72,45.24,67.13,46.23,66.16 L46.23,66.16L46.23,66.16z M89.56,48.25c0.36,0.12,0.71,0.32,1,0.61c0.97,0.97,0.97,2.56,0,3.55c-0.94,0.94-2.46,0.97-3.45,0.09 L89.56,48.25L89.56,48.25z M103.51,50.12c0.24-13.26-4.36-26.52-13.81-36.91L12.47,90.46c10.39,9.45,23.65,14.04,36.91,13.81 c13.69-0.24,27.4-5.65,37.95-16.2C97.86,77.52,103.26,63.82,103.51,50.12L103.51,50.12L103.51,50.12z M103.18,29.15 c2.52,6.75,3.72,13.89,3.59,21.03c-0.13,7.4-1.69,14.8-4.65,21.74c-2.85,6.69-7.02,12.97-12.49,18.45 c-5.48,5.48-11.76,9.65-18.46,12.51c-6.94,2.96-14.34,4.51-21.75,4.64c-7.14,0.12-14.29-1.07-21.04-3.6 c-6.48-2.43-12.59-6.06-17.96-10.92c-0.09-0.07-0.18-0.15-0.27-0.24c-1.28-1.28-1.28-3.34,0-4.62l77.23-77.24l0,0l0.11-0.11 c1.33-1.21,3.39-1.11,4.61,0.22C97.04,16.44,100.73,22.6,103.18,29.15L103.18,29.15z"/></g></svg>