<svg xmlns="http://www.w3.org/2000/svg" shape-rendering="geometricPrecision" text-rendering="geometricPrecision" image-rendering="optimizeQuality" fill-rule="evenodd" clip-rule="evenodd" viewBox="0 0 512 351.15"><path d="M40.72 339.27h23.44V184.99h-38.8c-6.95 0-13.3-2.86-17.9-7.47C2.86 172.94 0 166.6 0 159.63V25.36c0-6.97 2.85-13.3 7.45-17.9l.01-.01C12.06 2.85 18.39 0 25.36 0h461.28c6.97 0 13.31 2.86 17.9 7.45l.21.23c4.48 4.58 7.25 10.84 7.25 17.68v134.27c0 6.94-2.86 13.28-7.47 17.89-4.59 4.6-10.93 7.47-17.89 7.47h-38.8v154.28h23.44v11.88h-81.72v-11.88H413V184.99H99v154.28h23.44v11.88H40.72v-11.88zM482.99 18c7.54 3.35 12.84 10.92 12.84 19.67v20.84L387.36 166.98H332.1L480.47 18.61l-.61-.61h3.13zm12.84 87.27v42.04c0 8.75-5.3 16.32-12.84 19.67h-48.87l61.71-61.71zM29.01 166.98c-7.54-3.34-12.84-10.91-12.84-19.66L145.49 18h65.17L61.67 166.98H29.01zm-12.84-66.21v-63.1c0-8.75 5.3-16.32 12.84-19.67h69.93l-82.77 82.77zM318.3 18.02l-59.92 59.15-89.82 89.81H113.3L261.83 18.02h56.47zm45.98-.02h65.17L280.47 166.98h-64.36L364.28 18zM486.64 7.7H25.36c-4.86 0-9.28 1.99-12.48 5.18-3.19 3.2-5.18 7.62-5.18 12.48v134.27c0 4.85 1.99 9.26 5.19 12.46 3.2 3.21 7.62 5.2 12.47 5.2h461.28c4.84 0 9.25-2 12.46-5.2 3.21-3.2 5.2-7.61 5.2-12.46V25.36c0-4.77-1.92-9.11-5.01-12.29l-.19-.18c-3.2-3.2-7.61-5.19-12.46-5.19z"/></svg>