<svg id="Layer_1" data-name="Layer 1" xmlns="http://www.w3.org/2000/svg" viewBox="0 0 122.88 105.59"><defs><style>.cls-1{fill:#fff;}.cls-2{fill:#d92d27;}.cls-3{fill-rule:evenodd;}</style></defs><title>bump-ahead</title><polygon class="cls-1" points="12.81 96.29 110.06 96.29 60.47 13.84 12.81 96.29 12.81 96.29"/><path class="cls-2" d="M12.73,96.26H110L60.39,13.81,12.73,96.26Zm105.48,9.33H4.66A4.71,4.71,0,0,1,2.32,105,4.67,4.67,0,0,1,.63,98.59L56.28,2.32h0A4.74,4.74,0,0,1,57.92.66a4.65,4.65,0,0,1,6.38,1.6L122,98.21a4.67,4.67,0,0,1-3.8,7.38Z"/><path class="cls-3" d="M30.2,81.21H40.45a24.68,24.68,0,0,1,21-11.1,24.68,24.68,0,0,1,21,11.1H92.68a.67.67,0,0,1,.68.67v6.19a.67.67,0,0,1-.68.68H30.2a.67.67,0,0,1-.68-.68V81.88a.67.67,0,0,1,.68-.67Z"/></svg>