<?xml version="1.0" encoding="utf-8"?><svg version="1.1" id="Layer_1" xmlns="http://www.w3.org/2000/svg" xmlns:xlink="http://www.w3.org/1999/xlink" x="0px" y="0px" viewBox="0 0 112.18 122.88" style="enable-background:new 0 0 112.18 122.88" xml:space="preserve"><style type="text/css"><![CDATA[
	.st0{fill:#EF4136;}
	.st1{fill-rule:evenodd;clip-rule:evenodd;fill:#EF4136;}
	.st2{fill-rule:evenodd;clip-rule:evenodd;fill:#262626;}
	.st3{fill-rule:evenodd;clip-rule:evenodd;fill:#FFFFFF;}
]]></style><g><path class="st2" d="M0,113.55c0,2.57,1.05,4.9,2.74,6.59c1.69,1.69,4.02,2.74,6.59,2.74c28.97,0,64.56,0,93.53,0 c2.57,0,4.9-1.05,6.59-2.74c1.69-1.69,2.74-4.02,2.74-6.59C112.18-8.11,0-11.38,0,113.55L0,113.55z M10.37,117.37 c-1.34,0-2.55-0.55-3.44-1.43c-0.88-0.88-1.43-2.09-1.43-3.44c0-113.85,101.16-113.85,101.16,0c0,1.34-0.55,2.55-1.43,3.44 c-0.88,0.88-2.1,1.43-3.44,1.43C73.18,117.37,38.99,117.37,10.37,117.37L10.37,117.37L10.37,117.37z"/><path class="st0" d="M57.03,0C64.21,0,70.7,2.91,75.4,7.61c4.7,4.7,7.61,11.2,7.61,18.37S80.1,39.65,75.4,44.35 c-4.7,4.7-11.2,7.61-18.37,7.61c-7.17,0-13.67-2.91-18.37-7.61c-4.7-4.7-7.61-11.2-7.61-18.37s2.91-13.67,7.61-18.37 S49.86,0,57.03,0L57.03,0z"/><path class="st3" d="M57.03,5.28c11.43,0,20.7,9.27,20.7,20.7s-9.27,20.7-20.7,20.7s-20.7-9.27-20.7-20.7S45.6,5.28,57.03,5.28 L57.03,5.28L57.03,5.28z"/><path class="st1" d="M48.64,15.4H60.3c2.54,0,4.44,0.6,5.71,1.81c1.26,1.21,1.89,2.93,1.89,5.16c0,2.29-0.69,4.09-2.07,5.38 c-1.38,1.29-3.49,1.94-6.31,1.94h-3.84v8.4h-7.04V15.4L48.64,15.4L48.64,15.4z M55.68,25.1h1.73c1.36,0,2.32-0.24,2.87-0.71 c0.55-0.47,0.82-1.07,0.82-1.8c0-0.71-0.24-1.32-0.72-1.81c-0.47-0.5-1.38-0.75-2.69-0.75h-2.01V25.1L55.68,25.1L55.68,25.1z"/><path class="st2" d="M85.77,78.99v31.59h-7.52v-4.41H33.93v4.4h-7.52V78.99h-2.59v-4.95h6.32l3.52-10.97 c1.04-3.23,2.77-6.17,6.17-6.17h33.82c3.39,0,5.35,2.88,6.17,6.17l2.72,10.97h5.81v4.95H85.77L85.77,78.99L85.77,78.99L85.77,78.99 z M44.83,96.25h22.2v5.23h-22.2V96.25L44.83,96.25L44.83,96.25L44.83,96.25z M28.93,84.06c5.66,0.17,9.12,2.55,10.01,7.49H28.93 V84.06L28.93,84.06L28.93,84.06z M82.55,84.06c-5.65,0.17-9.12,2.55-10,7.49h10V84.06L82.55,84.06L82.55,84.06z M32.85,74.04h46.5 l-2-9.19c-0.55-2.52-2.12-4.7-4.7-4.7H40.49c-2.59,0-3.91,2.24-4.7,4.7L32.85,74.04L32.85,74.04L32.85,74.04L32.85,74.04z"/></g></svg>