<?xml version="1.0" encoding="utf-8"?><svg version="1.1" id="Layer_1" xmlns="http://www.w3.org/2000/svg" xmlns:xlink="http://www.w3.org/1999/xlink" x="0px" y="0px" viewBox="0 0 120.25 122.88" style="enable-background:new 0 0 120.25 122.88" xml:space="preserve"><style type="text/css">.st0{fill-rule:evenodd;clip-rule:evenodd;}</style><g><path class="st0" d="M7.09,0h29.22L0,36.31V7.09C0,3.19,3.19,0,7.09,0L7.09,0z M82.16,72.39H97v43.07c0,4.08-3.34,7.42-7.42,7.42h0 c-4.08,0-7.42-3.34-7.42-7.42V72.39L82.16,72.39z M22.59,72.39h14.84v43.07c0,4.08-3.34,7.42-7.42,7.42h0 c-4.08,0-7.42-3.34-7.42-7.42V72.39L22.59,72.39z M54.71,0h25.77L21.57,58.91H7.09c-3.04,0-5.64-1.94-6.65-4.63L54.71,0L54.71,0z M100.41,0h12.75c2.58,0,4.86,1.4,6.09,3.48L63.84,58.91H41.99l58.67-58.67L100.41,0L100.41,0z M120.25,20.98v30.84 c0,3.9-3.19,7.09-7.09,7.09H82.32L120.25,20.98L120.25,20.98z"/></g></svg>