<svg id="Layer_1" data-name="Layer 1" xmlns="http://www.w3.org/2000/svg" viewBox="0 0 122.88 105.59"><defs><style>.cls-1{fill:#fff;}.cls-2{fill:#d92d27;}.cls-3{fill-rule:evenodd;}</style></defs><title>dangeorous-dip-sign</title><polygon class="cls-1" points="12.82 96.3 110.06 96.3 60.48 13.85 12.82 96.3 12.82 96.3"/><path class="cls-2" d="M12.73,96.26H110L60.39,13.81,12.73,96.26Zm105.48,9.33H4.66A4.71,4.71,0,0,1,2.32,105,4.67,4.67,0,0,1,.63,98.59L56.28,2.32A4.74,4.74,0,0,1,57.92.66a4.65,4.65,0,0,1,6.38,1.6L122,98.21a4.66,4.66,0,0,1-3.79,7.38Z"/><path class="cls-3" d="M33.69,70.13h4.58C43.09,77.47,51.89,83.68,62,83.68s18.86-6.21,23.68-13.55h3.56a.89.89,0,0,1,.89.89V89.56a.9.9,0,0,1-.89.9H33.69a.91.91,0,0,1-.9-.9V71a.9.9,0,0,1,.9-.89Z"/></svg>