<svg id="Layer_1" data-name="Layer 1" xmlns="http://www.w3.org/2000/svg" viewBox="0 0 122.88 122.88"><defs><style>.cls-1{fill:#fff;}.cls-1,.cls-2{fill-rule:evenodd;}.cls-3{fill:#d92d27;}</style></defs><title>do-not-overtake-sign</title><path class="cls-1" d="M61.44,12.1A49.34,49.34,0,1,1,12.1,61.44,49.34,49.34,0,0,1,61.44,12.1Z"/><path class="cls-2" d="M28.77,59.33c-4.68-2.38-4.15-5,.55-4.76l1.06,2,2.16-6c.86-2.65,2.28-5.06,5.06-5.06H58.12c2.78,0,4.39,2.36,5.06,5.06l1.63,5.82.93-1.77c4.84-.28,5.27,2.53.15,5l.84,1.28c3.36,3.46,3,2.32,2.52,10.87v3.47a1.59,1.59,0,0,1-1.58,1.58H60.92a1.58,1.58,0,0,1-1.58-1.58V73.21H34.68v1.94a1.6,1.6,0,0,1-1.58,1.58H26.35a1.59,1.59,0,0,1-1.59-1.58V70.84a2,2,0,0,1,0-.25c-.51-6.56-1.23-7.89,4-11.26Zm60-14a1.83,1.83,0,0,0,2.11-2.77L80.63,27.87a.58.58,0,0,0-1,0L69.11,42.53c-.8,1.73.85,3.55,3,2.77a21.78,21.78,0,0,1,3.84-1.2h0c0,5.42,2.28,8.49,4.46,11.43a23.13,23.13,0,0,1,1.7,2.5,9.56,9.56,0,0,1,1.14,4.3,14.26,14.26,0,0,1-1,5.34,16.94,16.94,0,0,1-2.38,4c-2,2.81-4,5.42-4,10.37V84a4.19,4.19,0,1,0,8.37,0v-1.9c0-2.28,1.12-3.82,2.32-5.46a23.73,23.73,0,0,0,3.49-6,22.46,22.46,0,0,0,1.47-8.48,17.91,17.91,0,0,0-2.13-8,29.39,29.39,0,0,0-2.35-3.51c-1.36-1.84-2.8-3.77-2.8-6.46V44a24,24,0,0,1,4.45,1.31ZM32.63,58H62.4L60.77,52c-.45-2.07-1.74-3.86-3.86-3.86H38.52c-2.12,0-3.2,1.84-3.86,3.86l-2,6.07v0Z"/><path class="cls-3" d="M61.44,122.88A61.31,61.31,0,1,0,38,118.22a61.29,61.29,0,0,0,23.49,4.66ZM101.68,90,32.93,21.2a49.44,49.44,0,0,1,47.38-5.34A49.53,49.53,0,0,1,107,42.58a49,49,0,0,1,3.73,18.86h0A48.93,48.93,0,0,1,101.68,90ZM24,29.38,93.5,98.92A49.32,49.32,0,0,1,24,29.38Z"/></svg>