<svg id="Layer_1" data-name="Layer 1" xmlns="http://www.w3.org/2000/svg" viewBox="0 0 122.88 105.59"><defs><style>.cls-1{fill:#fff;}.cls-2{fill:#d92d27;}</style></defs><title>go-slow-sign</title><polygon class="cls-1" points="12.82 96.3 110.06 96.3 60.48 13.85 12.82 96.3 12.82 96.3"/><path class="cls-2" d="M12.73,96.26H110L60.39,13.81,12.73,96.26Zm105.48,9.33H4.66A4.71,4.71,0,0,1,2.32,105,4.67,4.67,0,0,1,.63,98.59L56.28,2.32A4.74,4.74,0,0,1,57.92.66a4.65,4.65,0,0,1,6.38,1.6L122,98.21a4.66,4.66,0,0,1-3.79,7.38Z"/><path d="M39.52,88.09c-.44,0-.87,0-1.29,0S37.4,88,37,87.93s-.79-.11-1.17-.18-.73-.15-1.07-.24V84.43l1.46.1c.53,0,1.06,0,1.6.06l1.51,0a4.85,4.85,0,0,0,1.1-.1,1.28,1.28,0,0,0,.66-.32.79.79,0,0,0,.22-.6v-.24a.76.76,0,0,0-.31-.66,1.26,1.26,0,0,0-.73-.22H39.2a5.32,5.32,0,0,1-3.52-1A4.31,4.31,0,0,1,34.49,78v-.65a4,4,0,0,1,1.31-3.29A5.81,5.81,0,0,1,39.6,73a16.36,16.36,0,0,1,1.77.09c.55.06,1.07.13,1.56.22s.92.17,1.31.27v3.08c-.61-.06-1.3-.1-2.07-.13s-1.46,0-2.09,0a5.13,5.13,0,0,0-1,.08,1.24,1.24,0,0,0-.68.32.94.94,0,0,0-.24.7v.19a.92.92,0,0,0,.32.76,1.51,1.51,0,0,0,1,.26h1.32a4.7,4.7,0,0,1,2.33.53,3.52,3.52,0,0,1,1.4,1.44A4.51,4.51,0,0,1,45,82.83v.66a5.27,5.27,0,0,1-.66,2.9,3.22,3.22,0,0,1-1.88,1.35,10.76,10.76,0,0,1-2.92.35ZM52.92,66a3.64,3.64,0,0,1-3.6-2.21,8.43,8.43,0,0,1-.67-2.38,22.19,22.19,0,0,1-.19-2.9,19.66,19.66,0,0,1,.23-3.12,6.74,6.74,0,0,1,.84-2.4,4,4,0,0,1,1.75-1.54,7,7,0,0,1,3-.54,19.64,19.64,0,0,1,2,.09,14.66,14.66,0,0,1,1.59.26l1.54.39v3c-.3,0-.67-.1-1.12-.14l-1.52-.1c-.56,0-1.15,0-1.78,0a3.35,3.35,0,0,0-1.72.35,1.8,1.8,0,0,0-.74,1.25,13.59,13.59,0,0,0-.18,2.52,15.74,15.74,0,0,0,.1,2,3.64,3.64,0,0,0,.33,1.19,1.32,1.32,0,0,0,.59.58,2.24,2.24,0,0,0,.86.16,12.84,12.84,0,0,0,1.32-.07c.38,0,.68-.09.88-.13V60.28H54.36V57.2c.29,0,.64-.08,1-.1L56.67,57l1.19,0h1.27l1,0v8.81H57.22l-.52-1a7.16,7.16,0,0,1-1.5.7,6.34,6.34,0,0,1-2.28.38Zm15.14,0a11,11,0,0,1-2.77-.31,4.21,4.21,0,0,1-2-1.11,4.93,4.93,0,0,1-1.19-2.28,15.09,15.09,0,0,1-.41-3.85,15,15,0,0,1,.41-3.85,5,5,0,0,1,1.19-2.29,4.39,4.39,0,0,1,2-1.11,12.53,12.53,0,0,1,5.54,0,4.34,4.34,0,0,1,2,1.11A5.07,5.07,0,0,1,74,54.57a15.56,15.56,0,0,1,.4,3.85,15.62,15.62,0,0,1-.4,3.85,5,5,0,0,1-1.2,2.28,4.16,4.16,0,0,1-2,1.11,10.9,10.9,0,0,1-2.77.31Zm0-3.47a3.57,3.57,0,0,0,1.24-.18,1.47,1.47,0,0,0,.75-.62,3.24,3.24,0,0,0,.38-1.24,16.22,16.22,0,0,0,.11-2,16.59,16.59,0,0,0-.11-2.1,3.13,3.13,0,0,0-.38-1.23,1.37,1.37,0,0,0-.75-.59,3.89,3.89,0,0,0-1.24-.16,4,4,0,0,0-1.23.16,1.4,1.4,0,0,0-.76.59,3.13,3.13,0,0,0-.38,1.23,16.59,16.59,0,0,0-.11,2.1,16.22,16.22,0,0,0,.11,2,3.24,3.24,0,0,0,.38,1.24,1.5,1.5,0,0,0,.76.62,3.63,3.63,0,0,0,1.23.18ZM50.16,88a5.15,5.15,0,0,1-2.2-.4,2.53,2.53,0,0,1-1.26-1.26,5.18,5.18,0,0,1-.4-2.2v-11h3.88V83.45a1.28,1.28,0,0,0,.11.58.67.67,0,0,0,.35.35,1.43,1.43,0,0,0,.58.11h4.31V88Zm12.25.12a10.9,10.9,0,0,1-2.77-.31,4.39,4.39,0,0,1-2-1.11,5.07,5.07,0,0,1-1.2-2.29,18.68,18.68,0,0,1,0-7.69,5,5,0,0,1,1.2-2.29,4.21,4.21,0,0,1,2-1.11,12.53,12.53,0,0,1,5.54,0,4.21,4.21,0,0,1,2,1.11,5,5,0,0,1,1.2,2.29,18.68,18.68,0,0,1,0,7.69,5.07,5.07,0,0,1-1.2,2.29,4.39,4.39,0,0,1-2,1.11,10.9,10.9,0,0,1-2.77.31Zm0-3.48a3.57,3.57,0,0,0,1.24-.18,1.43,1.43,0,0,0,.75-.62,3.13,3.13,0,0,0,.38-1.24,16,16,0,0,0,.11-2,16.81,16.81,0,0,0-.11-2.1,3,3,0,0,0-.38-1.22,1.33,1.33,0,0,0-.75-.59,3.89,3.89,0,0,0-1.24-.16,4,4,0,0,0-1.23.16,1.32,1.32,0,0,0-.76.59A3,3,0,0,0,60,78.43a16.81,16.81,0,0,0-.11,2.1,16,16,0,0,0,.11,2,3.13,3.13,0,0,0,.38,1.24,1.41,1.41,0,0,0,.76.62,3.63,3.63,0,0,0,1.23.18ZM72.18,88,68.79,73.12h4l1.84,9,2.22-9h3.48l2.2,9,1.84-9h4L85,88H81.12L78.6,78.89,76.06,88Z"/></svg>