<svg id="Layer_1" data-name="Layer 1" xmlns="http://www.w3.org/2000/svg" viewBox="0 0 122.88 122.88"><defs><style>.cls-1{fill:#d92d27;}.cls-1,.cls-2{fill-rule:evenodd;}.cls-2{fill:#fff;}</style></defs><title>go-straight-sign</title><path class="cls-1" d="M118.22,38a61.53,61.53,0,1,1-13.34-20,61.29,61.29,0,0,1,13.34,20ZM61.44,12.08A49.36,49.36,0,1,1,12.08,61.44,49.36,49.36,0,0,1,61.44,12.08Z"/><path class="cls-2" d="M61.44,12.08A49.36,49.36,0,1,1,12.08,61.44,49.36,49.36,0,0,1,61.44,12.08Z"/><path d="M51.64,91.56V59.85H41.2a3.76,3.76,0,0,1-3.2-1.5c-1.67-2.51.63-5,2.2-6.74,4.49-4.94,16.14-16.28,18.36-18.89a3.66,3.66,0,0,1,5.76,0c2.3,2.68,14.5,14.55,18.78,19.36,1.49,1.67,3.32,4,1.78,6.27a3.76,3.76,0,0,1-3.2,1.5H71.24V91.56Z"/></svg>