<svg id="Layer_1" data-name="Layer 1" xmlns="http://www.w3.org/2000/svg" viewBox="0 0 122.88 105.59"><defs><style>.cls-1{fill:#fff;}.cls-2{fill-rule:evenodd;}.cls-3{fill:#d92d27;}</style></defs><title>hill-ahead-sign</title><polygon class="cls-1" points="12.82 96.3 110.06 96.3 60.48 13.85 12.82 96.3 12.82 96.3"/><path class="cls-2" d="M80.84,65.39,41.58,90.05H95.2L80.84,65.39ZM52.23,76.62,55,75l10.19-6.27c-3.74-3.89-2-7.5.87-8.88,3.64-1.78,6.24.42,7.51,3.81l3-1.83c.87-.49.85-1.41.24-2.61l-1.27-2.07a1.45,1.45,0,0,0-2-.46A3.57,3.57,0,0,0,72,55a3.22,3.22,0,0,0-1-.29,6.56,6.56,0,0,0-3.37.78c-1.11.43-2.2.9-3.27,1.39-1.29.59-2.55,1.24-3.77,2-.57.33-.41.27-1.07.2-3.19-.34-5.57-.77-8.77-.44a5.09,5.09,0,0,0-2.85.82l-1.77,1.09L40.45,64l-1.39.87c-2.2,1.35-2.75,1.94-3.27,3.75L35,73.35c-.38,2.26.93,4,2,5.78-.48.41-.55.75-.1,1.43l.56.91A3.53,3.53,0,0,0,39,83.1a2.45,2.45,0,0,0,2.56-.21l2-1.26c-2.37-2.72-2.83-6.21.6-8.33,2.38-1.48,5.93-1.14,8,3.32ZM51.11,65.86l-3.75-4.55,1.67-1a4.21,4.21,0,0,1,1.28-.5l1.88,0a36.72,36.72,0,0,1,4.17.17c1.44,0,1.15.22,1.94,1.5l-7.19,4.43Zm-5.28-3.67,3.86,4.55-9.78,6-1.44-6,7.36-4.54Zm-1,12.15a4,4,0,1,0,5.51,1.31,4,4,0,0,0-5.51-1.31Zm21.47-13.2a4,4,0,1,0,5.51,1.31,4,4,0,0,0-5.51-1.31Z"/><path class="cls-3" d="M12.73,96.26H110L60.39,13.81,12.73,96.26Zm105.48,9.33H4.66A4.71,4.71,0,0,1,2.32,105,4.67,4.67,0,0,1,.63,98.59L56.28,2.32A4.74,4.74,0,0,1,57.92.66a4.65,4.65,0,0,1,6.38,1.6L122,98.21a4.66,4.66,0,0,1-3.79,7.38Z"/></svg>