<svg id="Layer_1" data-name="Layer 1" xmlns="http://www.w3.org/2000/svg" viewBox="0 0 122.88 105.59"><defs><style>.cls-1{fill:#fff;}.cls-2{fill:#d92d27;}</style></defs><title>intersection-sign</title><polygon class="cls-1" points="12.82 96.3 110.06 96.3 60.48 13.85 12.82 96.3 12.82 96.3"/><path class="cls-2" d="M12.73,96.26H110L60.39,13.81,12.73,96.26Zm105.48,9.33H4.66A4.71,4.71,0,0,1,2.32,105,4.67,4.67,0,0,1,.63,98.59L56.28,2.32A4.74,4.74,0,0,1,57.92.66a4.65,4.65,0,0,1,6.38,1.6L122,98.21a4.66,4.66,0,0,1-3.79,7.38Z"/><path d="M81.87,61.34v2.9a1.25,1.25,0,0,1-1.25,1.25H67.55A2.53,2.53,0,0,1,65.05,63V49.2A1.25,1.25,0,0,1,66.3,48h2.93a1.24,1.24,0,0,1,1.24,1.25V60.09H80.62a1.25,1.25,0,0,1,1.25,1.25ZM53.54,48h2.94a1.25,1.25,0,0,1,1.24,1.25V63A2.5,2.5,0,0,1,57,64.73h0a2.5,2.5,0,0,1-1.76.73h-13A1.25,1.25,0,0,1,41,64.22V61.28A1.25,1.25,0,0,1,42.26,60h10V49.2A1.25,1.25,0,0,1,53.54,48ZM41,77V74.06a1.25,1.25,0,0,1,1.25-1.25H55.2a2.51,2.51,0,0,1,2.5,2.5V89.1a1.24,1.24,0,0,1-1.24,1.24H53.52a1.24,1.24,0,0,1-1.24-1.24V78.23h-10A1.25,1.25,0,0,1,41,77ZM65,89.1V75.33a2.53,2.53,0,0,1,2.5-2.5H80.62a1.25,1.25,0,0,1,1.25,1.25V77a1.25,1.25,0,0,1-1.25,1.25H70.44V89.1a1.25,1.25,0,0,1-1.24,1.24H66.28A1.24,1.24,0,0,1,65,89.1Z"/></svg>