<svg id="Layer_1" data-name="Layer 1" xmlns="http://www.w3.org/2000/svg" viewBox="0 0 122.88 122.88"><defs><style>.cls-1{fill:#d92d27;}.cls-1,.cls-2{fill-rule:evenodd;}.cls-2{fill:#fff;}</style></defs><title>left-turn-sign</title><path class="cls-1" d="M118.22,38a61.53,61.53,0,1,1-13.34-20,61.29,61.29,0,0,1,13.34,20ZM61.44,12.08A49.36,49.36,0,1,1,12.08,61.44,49.36,49.36,0,0,1,61.44,12.08Z"/><path class="cls-2" d="M61.44,12.08A49.36,49.36,0,1,1,12.08,61.44,49.36,49.36,0,0,1,61.44,12.08Z"/><path d="M53.35,65.54a3.08,3.08,0,0,1-1.23,2.59c-2.06,1.38-4.11-.52-5.55-1.81C42.51,62.63,31.35,53.76,29.2,51.93a3,3,0,0,1,0-4.75C31.41,45.3,43,36,47,32.44c1.38-1.22,3.26-2.73,5.16-1.45a3,3,0,0,1,1.23,2.58v8.81C64.43,42,70,44.27,74.68,49.54s6,12.55,6,22.57v19H67.47v-19c0-6.88-.61-11.54-2.67-13.88-1.89-2.15-4.42-3-11.45-2.71v10Z"/></svg>