<svg id="Layer_1" data-name="Layer 1" xmlns="http://www.w3.org/2000/svg" viewBox="0 0 122.88 105.59"><defs><style>.cls-1{fill:#fff;}.cls-2{fill:#d92d27;}</style></defs><title>left-lane-ends-sign</title><polygon class="cls-1" points="12.82 96.3 110.06 96.3 60.48 13.85 12.82 96.3 12.82 96.3"/><path class="cls-2" d="M12.73,96.26H110L60.39,13.81,12.73,96.26Zm105.48,9.33H4.66A4.71,4.71,0,0,1,2.32,105,4.67,4.67,0,0,1,.63,98.59L56.28,2.32A4.74,4.74,0,0,1,57.92.66a4.65,4.65,0,0,1,6.38,1.6L122,98.21a4.66,4.66,0,0,1-3.79,7.38Z"/><polygon points="56.6 49.6 56.6 88.44 48.83 88.44 48.83 49.6 56.6 49.6 56.6 49.6"/><path d="M73.08,49.6V62.5l5.15,5.3a3.86,3.86,0,0,1,1.1,2.7h0V88.44H71.58V72.06l-5-5.1a3.87,3.87,0,0,1-1.3-2.9V49.6Z"/></svg>