<svg id="Layer_1" data-name="Layer 1" xmlns="http://www.w3.org/2000/svg" viewBox="0 0 122.88 105.59"><defs><style>.cls-1{fill:#fff;}.cls-2{fill:#d92d27;}</style></defs><title>narrow-bridge-sign</title><polygon class="cls-1" points="12.82 96.3 110.06 96.3 60.48 13.85 12.82 96.3 12.82 96.3"/><path class="cls-2" d="M12.73,96.26H110L60.39,13.81,12.73,96.26Zm105.48,9.33H4.66A4.71,4.71,0,0,1,2.32,105,4.67,4.67,0,0,1,.63,98.59L56.28,2.32A4.74,4.74,0,0,1,57.92.66a4.65,4.65,0,0,1,6.38,1.6L122,98.21a4.66,4.66,0,0,1-3.79,7.38Z"/><path d="M45.17,83.8l4.53-4.66V58.7L45.17,54l4.89-4.76,5.33,5.49a3.44,3.44,0,0,1,1.15,2.56V80.51h0a3.38,3.38,0,0,1-1,2.38l-5.5,5.67L45.17,83.8Zm27.65,4.76-5.51-5.67a3.41,3.41,0,0,1-1-2.38h0V57.33a3.4,3.4,0,0,1,1.15-2.56l5.33-5.49L77.71,54,73.18,58.7V79.14l4.53,4.66-4.89,4.76Z"/></svg>