<svg id="Layer_1" data-name="Layer 1" xmlns="http://www.w3.org/2000/svg" viewBox="0 0 122.88 122.88"><defs><style>.cls-1{fill:#fff;}.cls-2{fill-rule:evenodd;}.cls-3{fill:#d92d27;}</style></defs><title>no-bicycle</title><path class="cls-1" d="M98.92,29.38,29.39,98.92A49.31,49.31,0,0,0,98.92,29.38ZM21.2,90,90,21.2a49.24,49.24,0,0,0-63.38,5.37A49,49,0,0,0,12.13,61.44h0a49.39,49.39,0,0,0,2.76,16.29A48.85,48.85,0,0,0,21.2,90Z"/><path class="cls-2" d="M82.92,57.87a16,16,0,1,1-8.53,2.46l-5-7.64H49.78l-3,6.71A16,16,0,1,1,40,57.87a17.52,17.52,0,0,1,2.19.14L46,49.3a2.39,2.39,0,0,1,2.2-1.44H70.74a2.37,2.37,0,0,1,1.2.32L76.77,37.9H68.51a2.42,2.42,0,0,1,0-4.84h12a2.26,2.26,0,0,1,1,.23,2.39,2.39,0,0,1,1.16,3.2L75.16,52.66l3.71,5.73a15.51,15.51,0,0,1,4-.52ZM40.34,37H53a2.9,2.9,0,0,1,2,.84,3,3,0,0,1,.85,2.07h0v1.35h0A2.92,2.92,0,0,1,55,43.3a2.87,2.87,0,0,1-2,.85H40.34a2.92,2.92,0,0,1-2.89-2.92h0V39.88h0a2.88,2.88,0,0,1,.86-2.06,2.83,2.83,0,0,1,2-.85Zm4.51,26.86-4,9a2.41,2.41,0,0,1-4.42-1.94l3.63-8.21H40a11.15,11.15,0,1,0,4.89,1.13Zm36.86-1.07,3.88,6a2.41,2.41,0,0,1-4,2.63l-4.53-7a11.15,11.15,0,1,0,5.89-1.68q-.6,0-1.2.06Z"/><path class="cls-3" d="M61.44,122.88a61.31,61.31,0,1,1,23.49-4.66,61.29,61.29,0,0,1-23.49,4.66ZM21.2,90,90,21.2a49.44,49.44,0,0,0-47.38-5.34A49.53,49.53,0,0,0,15.86,42.58a49,49,0,0,0-3.73,18.86h0A48.93,48.93,0,0,0,21.2,90ZM98.92,29.38,29.38,98.92A49.32,49.32,0,0,0,98.92,29.38Z"/></svg>