<?xml version="1.0" encoding="utf-8"?><svg version="1.1" id="Layer_1" xmlns="http://www.w3.org/2000/svg" xmlns:xlink="http://www.w3.org/1999/xlink" x="0px" y="0px" viewBox="0 0 122.88 122.88" style="enable-background:new 0 0 122.88 122.88" xml:space="preserve"><style type="text/css">.st0{fill-rule:evenodd;clip-rule:evenodd;} .st1{fill-rule:evenodd;clip-rule:evenodd;fill:#FFFFFF;} .st2{fill:#D8453E;}</style><g><path class="st0" d="M28.24,83.54c-5.64-14.73-5.55-29.47,0-44.2c7.57,8.57,14.39,13.47,21.02,14.23c10.34,1.18,20.8,0.5,31.2,0.36 c3.28,0.04,6.03,1.2,7.62,5.37c18.44-13.31,18.86,18.89,0.32,6.33v3.97c-0.91,13.23-33.84,14.53-36.23-0.6 C43.1,68.69,33.84,77.31,28.24,83.54L28.24,83.54z"/><path class="st1" d="M58.54,67.8h25.2C83.74,77.46,58.54,76.79,58.54,67.8L58.54,67.8z"/><path class="st2" d="M61.44,0c16.97,0,32.33,6.88,43.44,18c11.12,11.12,18,26.48,18,43.44c0,16.97-6.88,32.33-18,43.44 c-11.12,11.12-26.48,18-43.44,18c-16.97,0-32.33-6.88-43.44-18C6.88,93.76,0,78.4,0,61.44C0,44.47,6.88,29.11,18,18 C29.11,6.88,44.47,0,61.44,0L61.44,0z M96.98,25.9c-9.09-9.09-21.66-14.72-35.54-14.72C47.56,11.18,35,16.81,25.9,25.9 C16.81,35,11.18,47.56,11.18,61.44c0,13.88,5.63,26.44,14.72,35.54c9.09,9.09,21.66,14.72,35.54,14.72 c13.88,0,26.44-5.63,35.54-14.72c9.09-9.09,14.72-21.66,14.72-35.54C111.7,47.56,106.07,35,96.98,25.9L96.98,25.9z"/><path class="st2" d="M33.16,13.03c-1.28-2.8-0.05-6.1,2.75-7.38c2.8-1.28,6.1-0.05,7.38,2.75l46.42,101.44 c1.28,2.8,0.05,6.1-2.75,7.38c-2.8,1.28-6.1,0.05-7.38-2.75L33.16,13.03L33.16,13.03z"/></g></svg>