<svg id="Layer_1" data-name="Layer 1" xmlns="http://www.w3.org/2000/svg" viewBox="0 0 122.88 122.88"><defs><style>.cls-1{fill:#fff;fill-rule:evenodd;}.cls-2{fill:#d92d27;}</style></defs><title>no-left-turn-sign</title><path class="cls-1" d="M61.44,12.08A49.36,49.36,0,1,1,12.08,61.44,49.36,49.36,0,0,1,61.44,12.08Z"/><path d="M52.58,66.15a3.08,3.08,0,0,1-1.23,2.59c-2.07,1.38-4.11-.52-5.55-1.81-4.07-3.69-15.22-12.56-17.37-14.39a3,3,0,0,1,0-4.75c2.21-1.88,13.8-11.21,17.76-14.73,1.37-1.23,3.25-2.73,5.16-1.46a3,3,0,0,1,1.23,2.58V43c11.08-.4,16.68,1.89,21.32,7.16s6,12.55,6,22.57v19H66.7v-19c0-6.88-.62-11.54-2.67-13.88-1.9-2.15-4.42-3-11.45-2.71v10Z"/><path class="cls-2" d="M61.44,0A61.36,61.36,0,1,1,38,4.66,61.29,61.29,0,0,1,61.44,0Zm40.24,32.93L32.93,101.68A49.44,49.44,0,0,0,80.31,107a49.26,49.26,0,0,0,30.44-45.58h0a49.12,49.12,0,0,0-9.08-28.51ZM24,93.5,93.5,24A49.32,49.32,0,0,0,24,93.5Z"/></svg>