<svg id="Layer_1" data-name="Layer 1" xmlns="http://www.w3.org/2000/svg" viewBox="0 0 122.88 122.88"><defs><style>.cls-1{fill:#fff;fill-rule:evenodd;}.cls-2{fill:#d92d27;}</style></defs><title>no-right-turn-sign</title><path class="cls-1" d="M61.44,12.08A49.36,49.36,0,1,0,110.8,61.44,49.36,49.36,0,0,0,61.44,12.08Z"/><path d="M70.3,66.15a3.08,3.08,0,0,0,1.23,2.59c2.07,1.38,4.11-.52,5.55-1.81,4.07-3.69,15.22-12.56,17.37-14.39a3,3,0,0,0,0-4.74c-2.21-1.89-13.8-11.22-17.76-14.74-1.37-1.23-3.25-2.73-5.16-1.46a3,3,0,0,0-1.23,2.58V43c-11.08-.4-16.69,1.89-21.32,7.16s-6,12.56-6,22.57v19H56.18v-19c0-6.88.62-11.54,2.67-13.88,1.89-2.15,4.42-3,11.45-2.71v10Z"/><path class="cls-2" d="M61.44,0A61.31,61.31,0,1,0,84.93,4.66,61.29,61.29,0,0,0,61.44,0ZM21.2,32.93,90,101.68A49.44,49.44,0,0,1,42.57,107,49.53,49.53,0,0,1,15.86,80.3a49,49,0,0,1-3.73-18.86h0A48.93,48.93,0,0,1,21.2,32.93ZM98.92,93.5,29.38,24A49.32,49.32,0,0,1,98.92,93.5Z"/></svg>