<svg id="Layer_1" data-name="Layer 1" xmlns="http://www.w3.org/2000/svg" viewBox="0 0 122.88 122.88"><defs><style>.cls-1{fill:#fff;fill-rule:evenodd;}.cls-2{fill:#d92d27;}</style></defs><title>no-straight-sign</title><path class="cls-1" d="M61.44,12.08A49.36,49.36,0,1,1,12.08,61.44,49.36,49.36,0,0,1,61.44,12.08Z"/><path d="M51.64,94.47V56.94H41.2a3.76,3.76,0,0,1-3.2-1.5c-1.67-2.51.64-5,2.2-6.74,4.49-4.94,16.14-16.28,18.36-18.89a3.66,3.66,0,0,1,5.76,0c2.3,2.68,14.5,14.55,18.78,19.36,1.49,1.67,3.32,3.95,1.78,6.27a3.76,3.76,0,0,1-3.2,1.5H71.24V94.47Z"/><path class="cls-2" d="M61.44,0A61.31,61.31,0,1,0,84.93,4.66,61.29,61.29,0,0,0,61.44,0ZM21.2,32.93,90,101.68A49.44,49.44,0,0,1,42.57,107,49.53,49.53,0,0,1,15.86,80.3a49,49,0,0,1-3.73-18.86h0A48.93,48.93,0,0,1,21.2,32.93ZM98.92,93.5,29.38,24A49.32,49.32,0,0,1,98.92,93.5Z"/></svg>