<svg id="Layer_1" data-name="Layer 1" xmlns="http://www.w3.org/2000/svg" viewBox="0 0 122.88 122.88"><defs><style>.cls-1{fill:#fff;}.cls-2{fill-rule:evenodd;}.cls-3{fill:#d92d27;}</style></defs><title>no-truck</title><path class="cls-1" d="M98.92,29.38,29.39,98.92A49.31,49.31,0,0,0,98.92,29.38ZM21.2,90,90,21.2a49.24,49.24,0,0,0-63.38,5.37A49,49,0,0,0,12.13,61.44h0A49.12,49.12,0,0,0,21.2,90Z"/><path class="cls-2" d="M49.05,76.66a9.29,9.29,0,1,0,18.46,1.48,10.31,10.31,0,0,0-.11-1.48H77A10,10,0,0,0,76.88,78a9.42,9.42,0,1,0,18.69-1.68,5.75,5.75,0,0,0,5.6-5.7V52.14L89.45,39.54H73.92v28H24.3a2.36,2.36,0,0,0-2.4,2.29v4.57a2.35,2.35,0,0,0,2.4,2.28h1.87a8.93,8.93,0,0,0-.12,1.47,9.29,9.29,0,1,0,18.58,0,10.17,10.17,0,0,0-.12-1.47h4.54ZM67.92,35.45H24.67a3,3,0,0,0-3,2.95V64.85H70.88V38.4a3,3,0,0,0-3-2.95ZM31.76,78.16c0,4.7,7.14,4.7,7.14,0,0-5-7.14-4.52-7.14,0ZM82.67,78c0,4.77,7.25,4.77,7.25,0s-7.25-4.78-7.25,0Zm6.72-33,5.91,7v2.57h-16V45ZM54.66,78.16c0,4.7,7.14,4.7,7.14,0s-7.14-4.7-7.14,0Z"/><path class="cls-3" d="M61.44,122.88a61.31,61.31,0,1,1,23.49-4.66,61.29,61.29,0,0,1-23.49,4.66ZM21.2,90,90,21.2a49.44,49.44,0,0,0-47.38-5.34A49.53,49.53,0,0,0,15.86,42.58a49,49,0,0,0-3.73,18.86h0A48.93,48.93,0,0,0,21.2,90ZM98.92,29.38,29.38,98.92A49.32,49.32,0,0,0,98.92,29.38Z"/></svg>