<svg id="Layer_1" data-name="Layer 1" xmlns="http://www.w3.org/2000/svg" viewBox="0 0 122.88 122.88"><defs><style>.cls-1{fill:#fff;}.cls-2{fill-rule:evenodd;}.cls-3{fill:#d92d27;}</style></defs><title>no-taxi</title><path class="cls-1" d="M24,29.38,93.49,98.92A49.31,49.31,0,0,1,24,29.38ZM101.68,90,32.92,21.2A49.24,49.24,0,0,1,96.3,26.57a49,49,0,0,1,14.45,34.87h0A49.12,49.12,0,0,1,101.68,90Z"/><path class="cls-2" d="M33,64.7c-5.7-2.89-5-6.11.67-5.78l1.31,2.4,2.59-12c.86-2.68,2.2-5.18,4.57-5.91V35.15A2.9,2.9,0,0,1,45,32.27H77.85a2.89,2.89,0,0,1,2.88,2.88v8h.52c3.38,0,5.33,2.87,6.15,6.14l2,11.79,1.14-2.14c5.87-.34,6.39,3.07.18,6l1,1.55c4.09,4.2,3.71,8.4,3.07,18.77v3.41a1.92,1.92,0,0,1-1.92,1.92H84.65a1.92,1.92,0,0,1-1.92-1.92V87.14H40.12v1.55a1.92,1.92,0,0,1-1.92,1.92H30a1.92,1.92,0,0,1-1.92-1.92V84.24s0-.1,0-.15,0-.1,0-.15C27.5,76,26.62,68.8,33,64.7ZM50.61,43.15H53.2V37.32h1.9V35.25H48.72v2.07h1.89v5.83Zm4.52,0h2.75l.24-1h2.16l.23,1h2.75l-2.07-7.9h-4l-2,7.9Zm8.65,0h2.77l.86-2.08h.12l.87,2.08h2.89l-1.7-4,1.82-3.94H68.57l-.9,2.16h-.13l-.9-2.18h-3l1.78,4-1.67,3.89Zm8.77,0h2.59V35.23H72.55v7.92ZM78,46.37H44.81c-2.59,0-3.89,2.23-4.66,4.69l-2.5,12.07h48.8L84.47,51c-.52-2.51-2.11-4.66-4.66-4.66ZM59.12,37.74,58.6,40h1.19l-.51-2.29Zm-15.7,36.4-7.28-.92c-1.72-.19-2.18.52-1.59,2l.78,1.91a2.7,2.7,0,0,0,1,1.1A3.33,3.33,0,0,0,38,78.7l6.49,0c1.56,0,2.25-.63,1.76-2.07a3.19,3.19,0,0,0-2.78-2.54Zm38.79,2.54,7.28-.92c1.72-.19,2.19.52,1.6,2l-.79,1.91a2.61,2.61,0,0,1-1,1.1,3.33,3.33,0,0,1-1.63.45l-6.5.05c-1.55,0-2.25-.63-1.75-2.07a3.15,3.15,0,0,1,2.77-2.54Z"/><path class="cls-3" d="M61.44,122.88A61.31,61.31,0,1,0,38,118.22a61.29,61.29,0,0,0,23.49,4.66ZM101.68,90,32.93,21.2a49.44,49.44,0,0,1,47.38-5.34A49.53,49.53,0,0,1,107,42.58a49,49,0,0,1,3.73,18.86h0A48.93,48.93,0,0,1,101.68,90ZM24,29.38,93.5,98.92A49.32,49.32,0,0,1,24,29.38Z"/></svg>