<svg id="Layer_1" data-name="Layer 1" xmlns="http://www.w3.org/2000/svg" viewBox="0 0 122.88 122.88"><defs><style>.cls-1{fill:#fff;fill-rule:evenodd;}.cls-2{fill:#d92d27;}</style></defs><title>no-u-turn-sign</title><path class="cls-1" d="M61.44,12.08A49.36,49.36,0,1,1,12.08,61.44,49.36,49.36,0,0,1,61.44,12.08Z"/><path d="M76.55,80.09V46.67A20,20,0,0,0,71,32.77a18.51,18.51,0,0,0-26.93,0,20,20,0,0,0-5.6,13.9V83.86H50.19V46.67a7.72,7.72,0,0,1,2.14-5.37,7.12,7.12,0,0,1,10.31,0,7.73,7.73,0,0,1,2.15,5.37V80.09H56.56L70.21,95.92,84.46,80.09Z"/><path class="cls-2" d="M61.44,0A61.31,61.31,0,1,1,38,4.66,61.29,61.29,0,0,1,61.44,0Zm40.24,32.93L32.93,101.68A49.44,49.44,0,0,0,80.31,107,49.53,49.53,0,0,0,107,80.3a49,49,0,0,0,3.73-18.86h0a48.93,48.93,0,0,0-9.08-28.51ZM24,93.5,93.5,24A49.32,49.32,0,0,0,24,93.5Z"/></svg>