<svg id="Layer_1" data-name="Layer 1" xmlns="http://www.w3.org/2000/svg" viewBox="0 0 122.88 122.88"><defs><style>.cls-1{fill:#d92d27;}.cls-1,.cls-2,.cls-3{fill-rule:evenodd;}.cls-2{fill:#fff;}</style></defs><title>overtake-sign</title><path class="cls-1" d="M118.22,38a61.53,61.53,0,1,1-13.34-20,61.29,61.29,0,0,1,13.34,20ZM61.44,12.08A49.36,49.36,0,1,1,12.08,61.44,49.36,49.36,0,0,1,61.44,12.08Z"/><path class="cls-2" d="M61.44,12.08A49.36,49.36,0,1,1,12.08,61.44,49.36,49.36,0,0,1,61.44,12.08Z"/><path class="cls-3" d="M28.61,59.32c-4.7-2.39-4.16-5.06.56-4.78l1.06,2,2.18-6.05c.86-2.67,2.29-5.09,5.08-5.09H58.1c2.8,0,4.41,2.38,5.09,5.09l1.63,5.84.94-1.77c4.86-.28,5.29,2.54.15,5l.84,1.28c3.38,3.48,3.06,2.34,2.54,10.92v3.49A1.6,1.6,0,0,1,67.7,76.8H60.92a1.6,1.6,0,0,1-1.59-1.59V73.27H34.55v1.94A1.59,1.59,0,0,1,33,76.8H26.18a1.6,1.6,0,0,1-1.59-1.59V70.88a2,2,0,0,1,0-.25c-.51-6.58-1.24-7.92,4-11.31Zm60.24-14.1A1.84,1.84,0,0,0,91,42.44L80.72,27.71a.6.6,0,0,0-1,0L69.15,42.44c-.81,1.74.85,3.56,3,2.78A23.7,23.7,0,0,1,76,44h0c0,5.44,2.3,8.53,4.49,11.49A21.4,21.4,0,0,1,82.16,58a9.48,9.48,0,0,1,1.15,4.31,14.23,14.23,0,0,1-1,5.37,16.77,16.77,0,0,1-2.39,4c-2,2.82-4,5.44-4,10.42v1.91a4.21,4.21,0,0,0,8.42,0V82.17c0-2.3,1.12-3.84,2.33-5.49a24,24,0,0,0,3.5-6.08,22.45,22.45,0,0,0,1.48-8.52,17.88,17.88,0,0,0-2.14-8,27.81,27.81,0,0,0-2.36-3.53c-1.37-1.85-2.81-3.79-2.81-6.49v-.12a24,24,0,0,1,4.46,1.31ZM32.49,58H62.41l-1.64-6.09c-.45-2.08-1.75-3.88-3.88-3.88H38.42c-2.13,0-3.23,1.85-3.88,3.88l-2,6.09v0Z"/></svg>