<svg id="Layer_1" data-name="Layer 1" xmlns="http://www.w3.org/2000/svg" viewBox="0 0 114.84 122.88"><defs><style>.cls-1{fill-rule:evenodd;}</style></defs><title>parking</title><path class="cls-1" d="M25.64,44.74c-4,1.51-6.34,5.84-7.84,10.53L13,70.07l-2.31-4.33C.42,65.13-.76,71,9.51,76.16h0C-1.92,83.56-.35,96.51.78,110.88a4.73,4.73,0,0,0,0,.54v8a3.48,3.48,0,0,0,3.47,3.47H19a3.48,3.48,0,0,0,3.47-3.47v-2.78H92.4v2.78a3.48,3.48,0,0,0,3.47,3.47h14.79a3.48,3.48,0,0,0,3.47-3.47v-6.15C115.28,94.54,116,87,108.59,79.39l-1.82-2.79C118,71.28,117,65.12,106.44,65.74l-2,3.87-3.57-14.35c-1.48-5.91-5-11.09-11.1-11.09h-.07c-.67,2-1.44,3.91-2.31,5.83,4.5.14,7.23,4,8.2,8.45l3.58,14.88H18v0l4.47-14.88a20,20,0,0,1,1.92-4.36A6.32,6.32,0,0,1,26,52a7,7,0,0,1,2.18-1.46c-.35-.69-.69-1.37-1-2.07-.57-1.22-1.09-2.46-1.56-3.7ZM70,59.91A50,50,0,0,1,59.1,69a1.55,1.55,0,0,1-1.76.06A62,62,0,0,1,42.12,55.44a48.49,48.49,0,0,1-10.23-22.1c-1.22-7.53-.08-14.78,3.67-20.67a25.46,25.46,0,0,1,5.67-6.28A27.6,27.6,0,0,1,58.57,0,24.45,24.45,0,0,1,75,6.72a24.65,24.65,0,0,1,4.39,5.35c4,6.64,4.9,15.11,3.13,23.68A52.16,52.16,0,0,1,70,59.89v0ZM67.83,24a7.74,7.74,0,0,1-1,3.85A7.05,7.05,0,0,1,64,30.63a9.91,9.91,0,0,1-4.64,1H56V37.8H49.48V16.34h9.83a8.81,8.81,0,0,1,6.32,2.09A7.35,7.35,0,0,1,67.83,24ZM59,26.58A2.25,2.25,0,0,0,61.19,24,2.26,2.26,0,0,0,59,21.49H56v5.09ZM57.42,6.88c10.29,0,18.64,9,18.64,20.19S67.71,47.26,57.42,47.26s-18.64-9-18.64-20.19S47.13,6.88,57.42,6.88Zm-29,86.32L15.25,91.54c-3.1-.34-3.93,1-2.88,3.64l1.43,3.45a5,5,0,0,0,1.77,2,6.08,6.08,0,0,0,2.94.81l11.73.09c2.83,0,4.05-1.14,3.16-3.73a6.32,6.32,0,0,0-5-4.58Zm58.06,0,13.14-1.66c3.11-.34,3.94,1,2.88,3.64l-1.42,3.45a5.05,5.05,0,0,1-1.77,2,6.15,6.15,0,0,1-3,.81l-11.72.09c-2.83,0-4-1.14-3.17-3.73a6.34,6.34,0,0,1,5-4.58Z"/></svg>