<svg id="Layer_1" data-name="Layer 1" xmlns="http://www.w3.org/2000/svg" viewBox="0 0 122.88 105.59"><defs><style>.cls-1{fill:#fff;}.cls-2{fill:#d92d27;}.cls-3{fill-rule:evenodd;}</style></defs><title>railway-crossing-sign</title><polygon class="cls-1" points="12.82 96.3 110.06 96.3 60.48 13.85 12.82 96.3 12.82 96.3"/><path class="cls-2" d="M12.73,96.26H110L60.39,13.81,12.73,96.26Zm105.48,9.33H4.66A4.71,4.71,0,0,1,2.32,105,4.67,4.67,0,0,1,.63,98.59L56.28,2.32A4.74,4.74,0,0,1,57.92.66a4.65,4.65,0,0,1,6.38,1.6L122,98.21a4.66,4.66,0,0,1-3.79,7.38Z"/><path class="cls-3" d="M41.32,80V75.6h3.25V66.5H41.32V62.09h3.25V57.53c0-.07,3.77-6.63,4.16-7.33.39.69,4.16,7.25,4.16,7.33v4.56h4V57.53c0-.07,3.78-6.63,4.17-7.33.39.69,4.16,7.25,4.16,7.33v4.56h4V57.53c0-.07,3.77-6.63,4.16-7.33.39.69,4.16,7.25,4.16,7.33v4.56h4V66.5h-4v9.1h4V80h-4v7.44a.1.1,0,0,1-.09.1H69.29a.1.1,0,0,1-.1-.1V80h-4v7.44a.1.1,0,0,1-.1.1H57a.1.1,0,0,1-.1-.1V80h-4v7.44a.1.1,0,0,1-.1.1H44.67a.09.09,0,0,1-.1-.1V80ZM52.89,66.5v9.1h4V66.5Zm12.31,0v9.1h4V66.5Z"/></svg>