<svg id="Layer_1" data-name="Layer 1" xmlns="http://www.w3.org/2000/svg" viewBox="0 0 122.88 105.59"><defs><style>.cls-1{fill:#fff;}.cls-2{fill:#d92d27;}</style></defs><title>right-lane-ends-sign</title><polygon class="cls-1" points="110.06 96.3 12.82 96.3 62.4 13.85 110.06 96.3 110.06 96.3"/><path class="cls-2" d="M110.15,96.26H12.9L62.49,13.81l47.66,82.45ZM4.67,105.59H118.22a4.71,4.71,0,0,0,2.34-.62,4.67,4.67,0,0,0,1.69-6.37L66.6,2.32A4.74,4.74,0,0,0,65,.66a4.65,4.65,0,0,0-6.38,1.6L.88,98.21A4.56,4.56,0,0,0,0,100.93a4.67,4.67,0,0,0,4.67,4.66Z"/><path d="M74.05,49.6V88.44H66.28V49.6Zm-16.49,0V64.06a3.87,3.87,0,0,1-1.3,2.9l-5,5.1V88.44H43.54V70.5h0a3.81,3.81,0,0,1,1.1-2.7l5.15-5.3V49.6Z"/></svg>