<svg id="Layer_1" data-name="Layer 1" xmlns="http://www.w3.org/2000/svg" viewBox="0 0 122.88 122.88"><defs><style>.cls-1{fill:#d92d27;}.cls-1,.cls-2{fill-rule:evenodd;}.cls-2{fill:#fff;}</style></defs><title>right-turn-sign</title><path class="cls-1" d="M118.22,38a61.53,61.53,0,1,1-13.34-20,61.29,61.29,0,0,1,13.34,20ZM61.44,12.08A49.36,49.36,0,1,1,12.08,61.44,49.36,49.36,0,0,1,61.44,12.08Z"/><path class="cls-2" d="M61.44,12.08A49.36,49.36,0,1,1,12.08,61.44,49.36,49.36,0,0,1,61.44,12.08Z"/><path d="M69.46,65.54a3.06,3.06,0,0,0,1.24,2.59c2.06,1.38,4.1-.52,5.54-1.81,4.07-3.69,15.22-12.56,17.37-14.39a3,3,0,0,0,0-4.75C91.41,45.3,79.81,36,75.85,32.44,74.48,31.22,72.6,29.71,70.7,31a3,3,0,0,0-1.24,2.58v8.81c-11.08-.4-16.68,1.89-21.32,7.16s-6,12.55-6,22.57v19H55.34v-19c0-6.88.62-11.54,2.68-13.88,1.89-2.15,4.42-3,11.44-2.71v10Z"/></svg>