<svg id="Layer_1" data-name="Layer 1" xmlns="http://www.w3.org/2000/svg" viewBox="0 0 122.88 105.59"><defs><style>.cls-1{fill:#fff;}.cls-2{fill-rule:evenodd;}.cls-3{fill:#d92d27;}</style></defs><title>rocks-falling-sign</title><polygon class="cls-1" points="12.82 96.3 110.06 96.3 60.48 13.85 12.82 96.3 12.82 96.3"/><path class="cls-2" d="M38.37,51.9a3.79,3.79,0,0,1,.79-.07,6,6,0,0,1,2.78.76,16.6,16.6,0,0,1,1.29-1.33c.77-.72.83-1.85,1.67-1.77.33,0,3.92,1.62,3.92,2.18,0,2.48-.66,2.55-1.68,4.61a1,1,0,0,1-.59.44l.34.31,1.21,7.88.57,11.45,1.49-10.21-1.82-7.67a30.27,30.27,0,0,1,6.73,12A9,9,0,0,1,59.14,72l1.06,6.92L58.7,90.36,62,79l-1.42-6c3.58,2.84,7.33,7.8,10.09,13.73,6,.42,8,.93,8.6,8.56.56.36.75.68.7,1H12.73L38.37,51.9ZM83,88.41c-.44,0-2.3-.28-2.3.4,0,.84-.41.74.73,1.61.63.47.16.51,1.36.32.5-.08,1.26-1.22.7-1.84-.24-.26-.24-.51-.49-.49Zm1.49-8.28c-.85.07-4.4-.54-4.4.76,0,1.63-.8,1.44,1.4,3.1,1.21.9.3,1,2.62.61.94-.15,2.4-2.33,1.32-3.53-.46-.51-.44-1-.94-.94Zm-9.76,1.73c.12.71,1.4,3.48.34,3.76-1.33.36-1,1-2.83-.46-1-.79-.86,0-1.07-2-.09-.81,1.37-2.48,2.59-1.86.51.26.9.15,1,.56ZM61.07,67.79c.46,0,2.38-.29,2.38.41,0,.88.43.78-.76,1.68-.65.49-.16.52-1.41.33-.51-.08-1.3-1.26-.72-1.91.25-.27.24-.53.51-.51Zm10.74.2c2.21-.19,2.57.94,4.2,1.91.84.5,2.14,1.45,2.14,2.53A8.25,8.25,0,0,1,78,74.77,4.06,4.06,0,0,1,72,77c-1.63-1-.54,0-1.81-1.58-1-1.26-2.46,0-2.46-4,0-1.47.57-1.92,1.84-2.62.55-.31,1.3-.38,2.13-.84l.09,0Zm3.5-9.28c5.15,1.22,6.48-3.58,7.4.78,1,4.74-1.08,3.14-2.46,6.07-.15.31-4.5.92-5.6-.19-1.84-1.84-2.15-5.29.42-6.6l.24-.06Zm-20.83-.14c1.51-.09,3.93-.27,3.93.87,0,1.81.89,1.6-1.55,3.43-1.34,1-.33,1.09-2.9.69-1.05-.17-2.67-2.59-1.47-3.92s.11-1,2-1.07Zm6.78-4c2.18-2.45,5.12.25,7,.08,1.42-.13,1.77,4,.95,5.35s1.19,3.23-4.5,2.93c-2.71-.14-2.84.2-4.26-2.56-1.2-2.34-1.12-3.93.81-5.8Z"/><path class="cls-3" d="M12.73,96.26H110L60.39,13.81,12.73,96.26Zm105.48,9.33H4.66A4.71,4.71,0,0,1,2.32,105,4.67,4.67,0,0,1,.63,98.59L56.28,2.32A4.74,4.74,0,0,1,57.92.66a4.65,4.65,0,0,1,6.38,1.6L122,98.21a4.66,4.66,0,0,1-3.79,7.38Z"/></svg>