<svg id="Layer_1" data-name="Layer 1" xmlns="http://www.w3.org/2000/svg" viewBox="0 0 122.88 105.59"><defs><style>.cls-1{fill:#fff;}.cls-2{fill:#d92d27;}.cls-3{fill-rule:evenodd;}</style></defs><title>rough-road-sign</title><polygon class="cls-1" points="12.82 96.3 110.06 96.3 60.48 13.85 12.82 96.3 12.82 96.3"/><path class="cls-2" d="M12.73,96.26H110L60.39,13.81,12.73,96.26Zm105.48,9.33H4.66A4.71,4.71,0,0,1,2.32,105,4.67,4.67,0,0,1,.63,98.59L56.28,2.32A4.74,4.74,0,0,1,57.92.66a4.65,4.65,0,0,1,6.38,1.6L122,98.21a4.66,4.66,0,0,1-3.79,7.38Z"/><path class="cls-3" d="M27.91,82.05h4.7c1.36,0,3.63-6.33,8.45-6.33,4.65,0,7.07,6.33,8.44,6.33h2.66c1.36,0,3.63-6.33,8.45-6.33,4.65,0,7.08,6.33,8.44,6.33h4.08c1.36,0,3.63-6.33,8.45-6.33,4.65,0,7.07,6.33,8.44,6.33h5a.45.45,0,0,1,.45.45v7.56a.45.45,0,0,1-.45.45H27.91a.45.45,0,0,1-.45-.45V82.5a.45.45,0,0,1,.45-.45Z"/></svg>