<svg id="Layer_1" data-name="Layer 1" xmlns="http://www.w3.org/2000/svg" viewBox="0 0 122.88 105.59"><defs><style>.cls-1{fill:#fff;}.cls-2{fill:#d92d27;}.cls-3{fill-rule:evenodd;}</style></defs><title>school-ahead-sign</title><polygon class="cls-1" points="12.82 96.3 110.06 96.3 60.48 13.85 12.82 96.3 12.82 96.3"/><path class="cls-2" d="M12.73,96.26H110L60.39,13.81,12.73,96.26Zm105.48,9.33H4.66A4.71,4.71,0,0,1,2.32,105,4.67,4.67,0,0,1,.63,98.59L56.28,2.32A4.74,4.74,0,0,1,57.92.66a4.65,4.65,0,0,1,6.38,1.6L122,98.21a4.66,4.66,0,0,1-3.79,7.38Z"/><path class="cls-3" d="M87.55,66.89a2,2,0,0,1,2.13.8,3.66,3.66,0,0,1,.42,1,2.92,2.92,0,0,1,.09.73,2.64,2.64,0,0,1,0,.28c-.9,2.23-5.17,3.39-7.29,3.85a6.21,6.21,0,0,1-5.44-1.38A14.7,14.7,0,0,1,76.24,71l-.12-.12-1,6.14a19.83,19.83,0,0,0,2.48,1.45c2.69,1.27,4.91,2.3,5.38,6.53.09.74,0,5.07,0,7.2H78.1c0-2.41.1-5.78.06-6.43,0-.47-.35-1.71-.84-1.93a18.13,18.13,0,0,0-2-.75c-1-.32-1.73-.64-2.67-.9-.7,2.28-1.63,5-2.63,7.65l-1,2.36H63.79c.48-1.32,1-2.71,1.48-4.12,1-2.91,2-5.89,2.7-8.26a7.3,7.3,0,0,1-1.11-1.75,3.91,3.91,0,0,1-.36-1.64h0a3.53,3.53,0,0,1,0-.66l1.51-7.55a3.71,3.71,0,0,0-1.66,0c-1,.43-2.43,2.26-3.28,3.12L62,72.55c-.12.12-.23.23-.33.35a3.07,3.07,0,0,1-.62.67,2.73,2.73,0,0,1-1,.66,16.75,16.75,0,0,1-2.05.86c-.41.15-.81.29-1.23.42a12.77,12.77,0,0,1-1.25.34,4.81,4.81,0,0,1-1.07.12,4.9,4.9,0,0,1-3.23-1.21c-.33-.29-.65-.6-.95-.92l-.09-.1-.82,4.86a16.67,16.67,0,0,0,2,1.14c2.13,1,3.88,1.82,4.26,5.16.07.59,0,4,0,5.69H51.71c0-1.9.08-4.57,0-5.08s-.28-1.35-.66-1.53-1.06-.42-1.6-.59c-.75-.25-1.37-.5-2.11-.71-.55,1.8-1.29,4-2.08,6l-.75,1.86H40.4c.38-1,.78-2.14,1.17-3.26.8-2.29,1.57-4.65,2.13-6.52a6.28,6.28,0,0,1-.88-1.39,3.2,3.2,0,0,1-.28-1.3h0a3.12,3.12,0,0,1,0-.52l1.2-6a3.08,3.08,0,0,0-1.32,0,13.6,13.6,0,0,0-2.59,2.47L39,75c-.53.54-.92,1.12-1.54,1.33v.32H39.8a.67.67,0,0,1,.49.21.66.66,0,0,1,.2.49v2.66h0v2.7a.65.65,0,0,1-.2.49.69.69,0,0,1-.49.21H30.48a.65.65,0,0,1-.48-.21.67.67,0,0,1-.21-.49V77.39a.72.72,0,0,1,.69-.7h2.38V75.8a.49.49,0,0,1,.15-.35.48.48,0,0,1,.34-.14h1.78a1.51,1.51,0,0,1,.25-1.57l2.09-2.11a15.6,15.6,0,0,1,3.21-2.93,6.61,6.61,0,0,1,3.87-.87c.66,0,1.35.07,2,.13l.77.07a7.45,7.45,0,0,1,5.51,3,5.31,5.31,0,0,0,1.35,1.23c.21.1.55,0,.93-.2l2.07-.78a2.28,2.28,0,0,1,.27-.39l2.64-2.67a20,20,0,0,1,4-3.71,8.4,8.4,0,0,1,4.9-1.1c.83,0,1.71.09,2.53.17l1,.09c3.8.24,5.58,2.25,7,3.8A6.56,6.56,0,0,0,81.22,69c.27.13.7,0,1.18-.25l5.14-1.9h0ZM36.62,76.44a2,2,0,0,1-1-.47H33.73l0,0s0,0,0,.05v.63h2.95v-.23ZM48.45,59.78a3.53,3.53,0,1,1-3.53,3.53,3.53,3.53,0,0,1,3.53-3.53ZM74,53.24a4.47,4.47,0,1,1-4.47,4.47A4.47,4.47,0,0,1,74,53.24Z"/></svg>