<svg id="Layer_1" data-name="Layer 1" xmlns="http://www.w3.org/2000/svg" viewBox="0 0 122.88 105.59"><defs><style>.cls-1{fill:#fff;}.cls-2{fill:#d92d27;}.cls-3{fill-rule:evenodd;}</style></defs><title>slippery-road</title><polygon class="cls-1" points="12.74 96.42 109.99 96.42 60.4 13.78 12.74 96.42 12.74 96.42"/><path class="cls-2" d="M12.73,96.26H110L60.39,13.81,12.73,96.26Zm105.48,9.33H4.66A4.71,4.71,0,0,1,2.32,105,4.67,4.67,0,0,1,.63,98.59L56.28,2.32A4.74,4.74,0,0,1,57.92.66a4.65,4.65,0,0,1,6.38,1.6L122,98.21a4.66,4.66,0,0,1-3.79,7.38Z"/><path class="cls-3" d="M45,56.17c-3.42-2.16-2.82-4.15.77-3.61l.66,1.6,2.1-4.47c.84-2,2.11-3.72,4.24-3.52l15.73,1.48c2.14.2,3.2,2.13,3.52,4.25l.83,4.58.85-1.29c3.73.13,3.85,2.32-.25,3.81L74,60c2.33,2.9,2.17,2,1.15,8.52l-.25,2.66a1.22,1.22,0,0,1-1.32,1.1l-5.18-.49a1.22,1.22,0,0,1-1.1-1.32L67.43,69,48.52,67.25l-.14,1.48a1.23,1.23,0,0,1-1.33,1.1l-5.17-.49A1.22,1.22,0,0,1,40.78,68l.31-3.3a.58.58,0,0,1,0-.19c.08-5.06-.38-6.13,3.87-8.35ZM69.17,74.06a5.19,5.19,0,0,1,3-.45,3.17,3.17,0,0,0-1.08.83c-1.21,1.49.37,2.46,1.42,3.16C76.18,80,88.72,82.71,89.29,87.65a4.31,4.31,0,0,1-.78,2.85h-8.7a3.43,3.43,0,0,0,1.35-2.75c-.3-2.42-6.37-4.49-8.22-5.6a16.1,16.1,0,0,1-3.4-2.6c-1.47-1.56-2.77-4.07-.37-5.49ZM41.54,71.48A5.13,5.13,0,0,1,44.68,71a3.2,3.2,0,0,0-1.13.9c-1.25,1.6.39,2.66,1.48,3.42,3.76,2.61,16.73,5.53,17.33,10.87a4.93,4.93,0,0,1-.81,3.09h-9a3.75,3.75,0,0,0,1.39-3c-.3-2.63-6.58-4.87-8.5-6.07a16.68,16.68,0,0,1-3.52-2.82c-1.52-1.68-2.86-4.4-.38-5.94Zm6.5-16,22.83,2.15-.81-4.77c-.2-1.62-1.06-3.09-2.68-3.24l-14.1-1.32c-1.63-.16-2.6,1.17-3.24,2.68l-2,4.5,0,.24,0-.24Z"/></svg>