<svg id="Layer_1" data-name="Layer 1" xmlns="http://www.w3.org/2000/svg" viewBox="0 0 122.88 105.59"><defs><style>.cls-1{fill:#fff;}.cls-2{fill-rule:evenodd;}.cls-3{fill:#d92d27;}</style></defs><title>slope-sign</title><polygon class="cls-1" points="12.82 96.3 110.06 96.3 60.48 13.85 12.82 96.3 12.82 96.3"/><path class="cls-2" d="M80.84,65.39,41.58,90.05H95.2L80.84,65.39Zm-16.57,2.9-2.69,1.6-10,5.76c-1.58-5-5.46-5.1-7.92-3.33-3.17,2.27-2.5,5.47-.21,8.09l-2.91,1.68c-.81.52-1.58.08-2.32-1l-1.17-2a1.4,1.4,0,0,1,.51-1.86,3.37,3.37,0,0,1-.68-2.1,2.83,2.83,0,0,1,.21-1,6.33,6.33,0,0,1,2.21-2.5c.87-.74,1.76-1.44,2.66-2.12,1.1-.82,2.22-1.59,3.38-2.31.54-.33.42-.22.66-.81a37.3,37.3,0,0,1,3.64-7.62,5,5,0,0,1,2-2l1.73-1L59,52.56l1.37-.78c2.15-1.24,2.9-1.44,4.67-1.05L69.4,52.2c2.08.71,2.94,2.61,3.95,4.36.58-.21.89-.11,1.26.57l.52.89a3.49,3.49,0,0,1,.68,2,2.35,2.35,0,0,1-1.35,2.06l-2,1.16C71.24,60,68.49,58,65.13,60c-2.34,1.34-3.67,4.5-.86,8.32Zm-8.59-5.88-2.13-5.25-1.63.94a4.15,4.15,0,0,0-1,.86L50,60.54a36.45,36.45,0,0,0-1.77,3.6c-.62,1.24-.33,1.08.39,2.34l7-4.07ZM55,56.27l2.09,5.35,9.57-5.53-4.45-4L55,56.27ZM65.74,61a3.85,3.85,0,1,1-1.42,5.26A3.84,3.84,0,0,1,65.74,61Zm-21,12.12a3.85,3.85,0,1,1-1.41,5.26,3.85,3.85,0,0,1,1.41-5.26Z"/><path class="cls-3" d="M12.73,96.26H110L60.39,13.81,12.73,96.26Zm105.48,9.33H4.66A4.71,4.71,0,0,1,2.32,105,4.67,4.67,0,0,1,.63,98.59L56.28,2.32A4.74,4.74,0,0,1,57.92.66a4.65,4.65,0,0,1,6.38,1.6L122,98.21a4.66,4.66,0,0,1-3.79,7.38Z"/></svg>