<svg id="Layer_1" data-name="Layer 1" xmlns="http://www.w3.org/2000/svg" viewBox="0 0 122.88 122.88"><defs><style>.cls-1{fill:#d92d27;}.cls-1,.cls-2{fill-rule:evenodd;}.cls-2{fill:#fff;}</style></defs><title>speed-limit-80-sign</title><path class="cls-1" d="M118.22,38a61.53,61.53,0,1,1-13.34-20,61.29,61.29,0,0,1,13.34,20ZM61.44,12.08A49.36,49.36,0,1,1,12.08,61.44,49.36,49.36,0,0,1,61.44,12.08Z"/><path class="cls-2" d="M61.44,12.08A49.36,49.36,0,1,1,12.08,61.44,49.36,49.36,0,0,1,61.44,12.08Z"/><path d="M41.73,80.89a21.64,21.64,0,0,1-3.86-.34,9.72,9.72,0,0,1-3.43-1.26A6.62,6.62,0,0,1,32,76.64a9.88,9.88,0,0,1-.9-4.56V67a8.86,8.86,0,0,1,.36-2.48,6,6,0,0,1,1.19-2.21A4,4,0,0,1,34.93,61a5.67,5.67,0,0,1-2.19-1.85A5,5,0,0,1,32,56.88c-.07-.82-.11-1.68-.11-2.58V50a7.61,7.61,0,0,1,1.32-4.69,7.29,7.29,0,0,1,3.45-2.53A13.39,13.39,0,0,1,41.22,42h7.31a13.4,13.4,0,0,1,4.59.77,7.39,7.39,0,0,1,3.43,2.53A7.67,7.67,0,0,1,57.86,50V54.3a13.47,13.47,0,0,1-.1,1.45,10.5,10.5,0,0,1-.42,1.93,4.66,4.66,0,0,1-.92,1.72,2.56,2.56,0,0,1-1.65.88A4,4,0,0,1,57.37,62a7.15,7.15,0,0,1,1,2.66A15.35,15.35,0,0,1,58.63,67v5.1a9.42,9.42,0,0,1-1.39,5.64,6.74,6.74,0,0,1-3.66,2.52,17.79,17.79,0,0,1-4.89.65Zm1.81-8.45h2.68c1.13,0,1.82-.22,2.06-.64a3.56,3.56,0,0,0,.36-1.73V67.65a2.57,2.57,0,0,0-.6-1.73,2.14,2.14,0,0,0-1.72-.69H43.54a2.91,2.91,0,0,0-1.08.18,1.85,1.85,0,0,0-.75.51,2.45,2.45,0,0,0-.44.77,3,3,0,0,0-.15,1v2.42a2.51,2.51,0,0,0,.54,1.85,2.66,2.66,0,0,0,1.88.52Zm0-15.66h2.68a2.28,2.28,0,0,0,1.31-.29,1.33,1.33,0,0,0,.49-.9,9.52,9.52,0,0,0,.1-1.54v-1.6c0-1-.2-1.58-.59-1.75a3.29,3.29,0,0,0-1.31-.26H43.54a2.88,2.88,0,0,0-1.42.28c-.33.19-.49.77-.49,1.73v1.6a3.72,3.72,0,0,0,.44,2.29,2,2,0,0,0,1.47.44ZM73.32,80.89a12.36,12.36,0,0,1-5.85-1.24A7.83,7.83,0,0,1,64,76.07a12.67,12.67,0,0,1-1.13-5.59V52.91a13.2,13.2,0,0,1,1.21-6,8.2,8.2,0,0,1,3.58-3.69A12,12,0,0,1,73.37,42h8.34a11,11,0,0,1,5.49,1.26,8.13,8.13,0,0,1,3.4,3.69,13.78,13.78,0,0,1,1.16,6V70.48a10.76,10.76,0,0,1-2.6,7.63q-2.61,2.77-7.5,2.78Zm2.47-9h3.09a2.55,2.55,0,0,0,2.88-3v-15A3,3,0,0,0,81,51.55,2.63,2.63,0,0,0,79.29,51H75.43a2.44,2.44,0,0,0-2,.72,3.43,3.43,0,0,0-.62,2.26V68.88a3.19,3.19,0,0,0,.72,2.35,3.11,3.11,0,0,0,2.22.69Z"/></svg>