<svg id="Layer_1" data-name="Layer 1" xmlns="http://www.w3.org/2000/svg" viewBox="0 0 122.88 122.88"><defs><style>.cls-1{fill:#d92d27;}.cls-1,.cls-2{fill-rule:evenodd;}.cls-2{fill:#fff;}</style></defs><title>speed-limit-100-sign</title><path class="cls-1" d="M118.22,38a61.53,61.53,0,1,1-13.34-20,61.29,61.29,0,0,1,13.34,20ZM61.44,12.08A49.36,49.36,0,1,1,12.08,61.44,49.36,49.36,0,0,1,61.44,12.08Z"/><path class="cls-2" d="M61.44,12.08A49.36,49.36,0,1,1,12.08,61.44,49.36,49.36,0,0,1,61.44,12.08Z"/><path d="M27,80.58V51.47H20.89V45.08L28.11,42H37V80.58Zm56.57.31a12.41,12.41,0,0,1-5.85-1.24,7.76,7.76,0,0,1-3.47-3.58,12.67,12.67,0,0,1-1.14-5.59V52.91a13.34,13.34,0,0,1,1.21-6,8.25,8.25,0,0,1,3.58-3.69A12.05,12.05,0,0,1,83.59,42h8.35a11.09,11.09,0,0,1,5.49,1.26,8.18,8.18,0,0,1,3.4,3.69,13.78,13.78,0,0,1,1.16,6V70.48a10.72,10.72,0,0,1-2.61,7.63q-2.59,2.77-7.49,2.78Zm2.47-9h3.1a2.56,2.56,0,0,0,2.88-3v-15a3,3,0,0,0-.72-2.39A2.63,2.63,0,0,0,89.52,51H85.65a2.43,2.43,0,0,0-2,.72,3.37,3.37,0,0,0-.62,2.26V68.88a3.19,3.19,0,0,0,.72,2.35,3.1,3.1,0,0,0,2.21.69Zm-34.85,9a12.41,12.41,0,0,1-5.85-1.24,7.76,7.76,0,0,1-3.47-3.58,12.67,12.67,0,0,1-1.14-5.59V52.91a13.34,13.34,0,0,1,1.21-6,8.25,8.25,0,0,1,3.58-3.69A12.05,12.05,0,0,1,51.21,42h8.35a11.09,11.09,0,0,1,5.49,1.26,8.18,8.18,0,0,1,3.4,3.69,13.78,13.78,0,0,1,1.16,6V70.48A10.72,10.72,0,0,1,67,78.11q-2.59,2.77-7.49,2.78Zm2.47-9h3.1a2.56,2.56,0,0,0,2.88-3v-15a3,3,0,0,0-.72-2.39A2.63,2.63,0,0,0,57.14,51H53.27a2.43,2.43,0,0,0-2,.72,3.37,3.37,0,0,0-.62,2.26V68.88a3.19,3.19,0,0,0,.72,2.35,3.1,3.1,0,0,0,2.21.69Z"/></svg>