<svg id="Layer_1" data-name="Layer 1" xmlns="http://www.w3.org/2000/svg" viewBox="0 0 122.88 122.88"><defs><style>.cls-1{fill:#d92d27;}.cls-1,.cls-2{fill-rule:evenodd;}.cls-2{fill:#fff;}</style></defs><title>speed-limit-40-sign</title><path class="cls-1" d="M118.22,38a61.53,61.53,0,1,1-13.34-20,61.29,61.29,0,0,1,13.34,20ZM61.44,12.08A49.36,49.36,0,1,1,12.08,61.44,49.36,49.36,0,0,1,61.44,12.08Z"/><path class="cls-2" d="M61.44,12.08A49.36,49.36,0,1,1,12.08,61.44,49.36,49.36,0,0,1,61.44,12.08Z"/><path d="M47.81,80.58V73.52H31.89L30.14,69,41.22,42.3h10.2L42,65.07h5.77V59.4l1.91-4.94h8.09V65.07H60.9V72l-3.09,1.54v7.06Zm26.48.31a12.34,12.34,0,0,1-5.84-1.24A7.73,7.73,0,0,1,65,76.07a12.67,12.67,0,0,1-1.13-5.59V52.91a13.2,13.2,0,0,1,1.21-6,8.2,8.2,0,0,1,3.58-3.69A12,12,0,0,1,74.35,42h8.34a11.06,11.06,0,0,1,5.49,1.26,8.13,8.13,0,0,1,3.4,3.69,13.78,13.78,0,0,1,1.16,6V70.48a10.76,10.76,0,0,1-2.6,7.63q-2.61,2.77-7.5,2.78Zm2.48-9h3.09a2.55,2.55,0,0,0,2.88-3v-15A3,3,0,0,0,82,51.55,2.63,2.63,0,0,0,80.27,51H76.41a2.44,2.44,0,0,0-2,.72,3.43,3.43,0,0,0-.62,2.26V68.88a3.19,3.19,0,0,0,.72,2.35,3.11,3.11,0,0,0,2.22.69Z"/></svg>