<svg id="Layer_1" data-name="Layer 1" xmlns="http://www.w3.org/2000/svg" viewBox="0 0 122.88 122.88"><defs><style>.cls-1{fill:#d92d27;}.cls-1,.cls-2{fill-rule:evenodd;}.cls-2{fill:#fff;}</style></defs><title>speed-limit-60-sign</title><path class="cls-1" d="M118.22,38a61.53,61.53,0,1,1-13.34-20,61.29,61.29,0,0,1,13.34,20ZM61.44,12.08A49.36,49.36,0,1,1,12.08,61.44,49.36,49.36,0,0,1,61.44,12.08Z"/><path class="cls-2" d="M61.44,12.08A49.36,49.36,0,1,1,12.08,61.44,49.36,49.36,0,0,1,61.44,12.08Z"/><path d="M43.59,80.89A15.24,15.24,0,0,1,38.28,80a8.15,8.15,0,0,1-3.76-2.91,14.74,14.74,0,0,1-2.24-5.7,46.34,46.34,0,0,1-.75-9.14,40.76,40.76,0,0,1,1-9.87,15.27,15.27,0,0,1,3-6.23,10.79,10.79,0,0,1,4.74-3.25A19.65,19.65,0,0,1,46.58,42c1.82,0,3.58.08,5.28.23a26.88,26.88,0,0,1,4.61.8V51H47.76c-2.33,0-4,.58-4.87,1.75a7.85,7.85,0,0,0-1.36,4.94A9.53,9.53,0,0,1,43.46,57a12.1,12.1,0,0,1,2.24-.31c.86,0,1.92-.08,3.2-.08a12.38,12.38,0,0,1,6.15,1.24A6.27,6.27,0,0,1,58,61.16a13.4,13.4,0,0,1,.78,4.68v5.57a10.7,10.7,0,0,1-1.22,5.43,7.19,7.19,0,0,1-3.42,3.07,12.83,12.83,0,0,1-5.2,1Zm2.06-9h.88a2.34,2.34,0,0,0,1.33-.31,1.64,1.64,0,0,0,.67-.9,4.19,4.19,0,0,0,.21-1.41V67.85a5,5,0,0,0-.23-1.72,1.48,1.48,0,0,0-.83-.85A4.5,4.5,0,0,0,46,65H41.53a24.24,24.24,0,0,0,.2,3.4,5.49,5.49,0,0,0,.7,2.11,2.55,2.55,0,0,0,1.29,1.08,5.24,5.24,0,0,0,1.93.31Zm27.25,9a12.34,12.34,0,0,1-5.84-1.24,7.73,7.73,0,0,1-3.48-3.58,12.67,12.67,0,0,1-1.14-5.59V52.91a13.2,13.2,0,0,1,1.22-6,8.2,8.2,0,0,1,3.58-3.69A12,12,0,0,1,73,42H81.3a11.09,11.09,0,0,1,5.49,1.26,8.13,8.13,0,0,1,3.4,3.69,13.78,13.78,0,0,1,1.16,6V70.48a10.76,10.76,0,0,1-2.6,7.63q-2.61,2.77-7.5,2.78Zm2.48-9h3.09a2.55,2.55,0,0,0,2.88-3v-15a3,3,0,0,0-.72-2.39A2.63,2.63,0,0,0,78.88,51H75a2.44,2.44,0,0,0-2,.72,3.43,3.43,0,0,0-.62,2.26V68.88a3.19,3.19,0,0,0,.72,2.35,3.11,3.11,0,0,0,2.22.69Z"/></svg>