<svg id="Layer_1" data-name="Layer 1" xmlns="http://www.w3.org/2000/svg" viewBox="0 0 122.88 122.88"><defs><style>.cls-1{fill:#d92d27;}.cls-1,.cls-2{fill-rule:evenodd;}.cls-2{fill:#fff;}</style></defs><title>speed-limit-20-sign</title><path class="cls-1" d="M118.22,38a61.53,61.53,0,1,1-13.34-20,61.29,61.29,0,0,1,13.34,20ZM61.44,12.08A49.36,49.36,0,1,1,12.08,61.44,49.36,49.36,0,0,1,61.44,12.08Z"/><path class="cls-2" d="M61.44,12.08A49.36,49.36,0,1,1,12.08,61.44,49.36,49.36,0,0,1,61.44,12.08Z"/><path d="M32,80.58V72.64L43.9,60.49a24.05,24.05,0,0,0,1.9-2.12A9.52,9.52,0,0,0,47,56.47a4.34,4.34,0,0,0,.44-1.91A3.42,3.42,0,0,0,47,52.78a2.36,2.36,0,0,0-1.26-1,6.44,6.44,0,0,0-2.19-.31h-11V43.54q2.52-.57,5.64-1.06A46.64,46.64,0,0,1,45.5,42a16.78,16.78,0,0,1,7.13,1.24,7.37,7.37,0,0,1,3.71,3.65,14.2,14.2,0,0,1,1.11,5.93,15.05,15.05,0,0,1-.67,4.59,14.69,14.69,0,0,1-1.93,3.86,28.78,28.78,0,0,1-3.07,3.61l-6.59,6.74H58.48v9Zm40.44.31a12.39,12.39,0,0,1-5.85-1.24,7.83,7.83,0,0,1-3.48-3.58A12.81,12.81,0,0,1,62,70.48V52.91a13.34,13.34,0,0,1,1.21-6,8.25,8.25,0,0,1,3.58-3.69A12.05,12.05,0,0,1,72.49,42h8.35a11,11,0,0,1,5.48,1.26,8.15,8.15,0,0,1,3.41,3.69,13.79,13.79,0,0,1,1.15,6V70.48a10.72,10.72,0,0,1-2.6,7.63q-2.59,2.77-7.49,2.78Zm2.47-9H78a2.57,2.57,0,0,0,2.89-3v-15a3,3,0,0,0-.72-2.39,2.66,2.66,0,0,0-1.75-.6H74.55a2.47,2.47,0,0,0-2,.73A3.43,3.43,0,0,0,72,53.94V68.88a3.19,3.19,0,0,0,.72,2.35,3.1,3.1,0,0,0,2.21.69Z"/></svg>