<svg id="Layer_1" data-name="Layer 1" xmlns="http://www.w3.org/2000/svg" viewBox="0 0 122.88 122.88"><defs><style>.cls-1{fill:#d92d27;}.cls-1,.cls-2{fill-rule:evenodd;}.cls-2{fill:#fff;}</style></defs><title>speed-limit-70-sign</title><path class="cls-1" d="M118.22,38a61.53,61.53,0,1,1-13.34-20,61.29,61.29,0,0,1,13.34,20ZM61.44,12.08A49.36,49.36,0,1,1,12.08,61.44,49.36,49.36,0,0,1,61.44,12.08Z"/><path class="cls-2" d="M61.44,12.08A49.36,49.36,0,1,1,12.08,61.44,49.36,49.36,0,0,1,61.44,12.08Z"/><path d="M36.22,80.58l10-28.29H32v-10H56.73l2.42,4L47.35,80.58Zm36.27.31a12.41,12.41,0,0,1-5.85-1.24,7.76,7.76,0,0,1-3.47-3.58A12.67,12.67,0,0,1,62,70.48V52.91a13.34,13.34,0,0,1,1.21-6,8.25,8.25,0,0,1,3.58-3.69A12.05,12.05,0,0,1,72.54,42h8.35a11.09,11.09,0,0,1,5.49,1.26,8.18,8.18,0,0,1,3.4,3.69,13.78,13.78,0,0,1,1.16,6V70.48a10.72,10.72,0,0,1-2.61,7.63q-2.6,2.77-7.49,2.78Zm2.47-9h3.1a2.56,2.56,0,0,0,2.88-3v-15a3,3,0,0,0-.72-2.39A2.65,2.65,0,0,0,78.47,51H74.6a2.43,2.43,0,0,0-1.95.72A3.37,3.37,0,0,0,72,53.94V68.88a3.19,3.19,0,0,0,.72,2.35,3.1,3.1,0,0,0,2.21.69Z"/></svg>