<svg id="Layer_1" data-name="Layer 1" xmlns="http://www.w3.org/2000/svg" viewBox="0 0 122.88 122.88"><defs><style>.cls-1{fill:#d92d27;}.cls-1,.cls-2{fill-rule:evenodd;}.cls-2{fill:#fff;}</style></defs><title>speed-limit-50-sign</title><path class="cls-1" d="M118.22,38a61.53,61.53,0,1,1-13.34-20,61.29,61.29,0,0,1,13.34,20ZM61.44,12.08A49.36,49.36,0,1,1,12.08,61.44,49.36,49.36,0,0,1,61.44,12.08Z"/><path class="cls-2" d="M61.44,12.08A49.36,49.36,0,1,1,12.08,61.44,49.36,49.36,0,0,1,61.44,12.08Z"/><path d="M45,80.89q-2.88,0-6.36-.34t-6.77-.69V71.92h13.6a3.41,3.41,0,0,0,2.21-.54,2,2,0,0,0,.72-1.29,9.21,9.21,0,0,0,.11-1.26V67.24a3.6,3.6,0,0,0-.49-2,2.13,2.13,0,0,0-1.88-.73H43.82A2.73,2.73,0,0,0,42,65a2,2,0,0,0-.64,1.34H31.92L33,42.3H56.86v9H41.55l-.25,5.83a4.39,4.39,0,0,1,2.11-.85,17.1,17.1,0,0,1,2.47-.18H49.8a8.87,8.87,0,0,1,4.89,1.23,7.55,7.55,0,0,1,2.84,3.35,11.82,11.82,0,0,1,.92,4.74V71A10,10,0,0,1,57,76.69a8.29,8.29,0,0,1-4.45,3.19,24.13,24.13,0,0,1-7.58,1Zm27.67,0a12.39,12.39,0,0,1-5.85-1.24,7.76,7.76,0,0,1-3.47-3.58,12.67,12.67,0,0,1-1.14-5.59V52.91a13.34,13.34,0,0,1,1.21-6A8.25,8.25,0,0,1,67,43.25,12.05,12.05,0,0,1,72.67,42H81a11,11,0,0,1,5.48,1.26,8.15,8.15,0,0,1,3.41,3.69,13.79,13.79,0,0,1,1.15,6V70.48a10.72,10.72,0,0,1-2.6,7.63Q85.87,80.88,81,80.89Zm2.47-9h3.09a2.57,2.57,0,0,0,2.89-3v-15a3,3,0,0,0-.72-2.39A2.65,2.65,0,0,0,78.6,51H74.73a2.43,2.43,0,0,0-2,.72,3.37,3.37,0,0,0-.62,2.26V68.88a3.19,3.19,0,0,0,.72,2.35,3.1,3.1,0,0,0,2.21.69Z"/></svg>