<svg id="Layer_1" data-name="Layer 1" xmlns="http://www.w3.org/2000/svg" viewBox="0 0 122.88 122.88"><defs><style>.cls-1{fill:#d92d27;}.cls-1,.cls-2{fill-rule:evenodd;}.cls-2{fill:#fff;}</style></defs><title>speed-limit-90-sign</title><path class="cls-1" d="M118.22,38a61.53,61.53,0,1,1-13.34-20,61.29,61.29,0,0,1,13.34,20ZM61.44,12.08A49.36,49.36,0,1,1,12.08,61.44,49.36,49.36,0,0,1,61.44,12.08Z"/><path class="cls-2" d="M61.44,12.08A49.36,49.36,0,1,1,12.08,61.44,49.36,49.36,0,0,1,61.44,12.08Z"/><path d="M43.61,80.89a52.13,52.13,0,0,1-5.25-.26,34.79,34.79,0,0,1-4.64-.77V71.92h8.71q3.51,0,4.87-1.75a7.87,7.87,0,0,0,1.36-4.94,14.28,14.28,0,0,1-1.9.67,11.88,11.88,0,0,1-2.27.33c-.86,0-1.92.08-3.19.08a12.21,12.21,0,0,1-6.13-1.24,6.5,6.5,0,0,1-2.92-3.35A13.23,13.23,0,0,1,31.46,57V51.47A10.7,10.7,0,0,1,32.67,46,7.19,7.19,0,0,1,36.09,43a12.85,12.85,0,0,1,5.21-1h5.3a15,15,0,0,1,5.31.85,8.15,8.15,0,0,1,3.76,2.91,14.76,14.76,0,0,1,2.24,5.69,46.45,46.45,0,0,1,.75,9.15,40.76,40.76,0,0,1-1,9.87,15.27,15.27,0,0,1-3,6.23A10.68,10.68,0,0,1,50,79.94a19.65,19.65,0,0,1-6.34,1Zm.62-23h4.43a24.24,24.24,0,0,0-.2-3.4,5.49,5.49,0,0,0-.7-2.11,2.64,2.64,0,0,0-1.26-1.09,5.5,5.5,0,0,0-2-.3h-.87a2.53,2.53,0,0,0-1.32.3,1.69,1.69,0,0,0-.69.88,4.21,4.21,0,0,0-.21,1.44V55a5.15,5.15,0,0,0,.23,1.7,1.49,1.49,0,0,0,.85.87,4.56,4.56,0,0,0,1.7.26ZM73,80.89a12.41,12.41,0,0,1-5.85-1.24,7.76,7.76,0,0,1-3.47-3.58,12.67,12.67,0,0,1-1.14-5.59V52.91a13.34,13.34,0,0,1,1.21-6,8.25,8.25,0,0,1,3.58-3.69A12.05,12.05,0,0,1,73,42h8.35a11.09,11.09,0,0,1,5.49,1.26,8.18,8.18,0,0,1,3.4,3.69,13.79,13.79,0,0,1,1.15,6V70.48a10.72,10.72,0,0,1-2.6,7.63q-2.59,2.77-7.49,2.78Zm2.47-9h3.09a2.57,2.57,0,0,0,2.89-3v-15a3,3,0,0,0-.72-2.39A2.65,2.65,0,0,0,79,51H75.09a2.43,2.43,0,0,0-2,.72,3.37,3.37,0,0,0-.62,2.26V68.88a3.19,3.19,0,0,0,.72,2.35,3.1,3.1,0,0,0,2.21.69Z"/></svg>