<svg id="Layer_1" data-name="Layer 1" xmlns="http://www.w3.org/2000/svg" viewBox="0 0 122.88 105.59"><defs><style>.cls-1{fill:#fff;}.cls-2{fill:#d92d27;}.cls-3,.cls-4,.cls-5,.cls-6{fill-rule:evenodd;}.cls-4{fill:#ffd15c;}.cls-5{fill:#ef6657;}.cls-6{fill:#72bd39;}</style></defs><title>stop-light-ahead-sign</title><polygon class="cls-1" points="12.82 96.3 110.06 96.3 60.48 13.85 12.82 96.3 12.82 96.3"/><path class="cls-2" d="M12.73,96.26H110L60.39,13.81,12.73,96.26Zm105.48,9.33H4.66A4.71,4.71,0,0,1,2.32,105,4.67,4.67,0,0,1,.63,98.59L56.28,2.32A4.74,4.74,0,0,1,57.92.66a4.65,4.65,0,0,1,6.38,1.6L122,98.21a4.66,4.66,0,0,1-3.79,7.38Z"/><path class="cls-3" d="M45.25,50.82h5.14V49.69a4.56,4.56,0,0,1,4.54-4.53H67.7a4.54,4.54,0,0,1,4.54,4.54v1.12h5.39c.48,0,1.14.48.87.88-2,2.89-3.51,6.36-6.26,8.15v3.23h5.39c.48,0,1.14.48.87.87-2,2.9-3.52,6.37-6.26,8.16v3.23h5.39c.48,0,1.14.47.87.87-2,2.89-3.52,6.37-6.26,8.16V86a4.56,4.56,0,0,1-4.54,4.54H54.93A4.58,4.58,0,0,1,50.39,86V84.2c-2.59-1.83-4.1-5.19-6-8-.27-.4.39-.88.87-.88h5.14V71.94c-2.59-1.83-4.1-5.18-6-8-.27-.4.39-.87.87-.87h5.14V59.69c-2.59-1.84-4.1-5.19-6-8-.27-.4.39-.88.87-.88Z"/><path class="cls-4" d="M61.32,62.89a5,5,0,1,1-5,5,5,5,0,0,1,5-5Z"/><path class="cls-5" d="M61.32,49.73a5,5,0,1,1-5,5,5,5,0,0,1,5-5Z"/><path class="cls-6" d="M61.32,76.06a5,5,0,1,1-5,5,5,5,0,0,1,5-5Z"/></svg>