<svg id="Layer_1" data-name="Layer 1" xmlns="http://www.w3.org/2000/svg" viewBox="0 0 122.88 122.88"><defs><style>.cls-1{fill:#d92d27;}.cls-1,.cls-2{fill-rule:evenodd;}.cls-2,.cls-3{fill:#fff;}</style></defs><title>stop-ahead-sign</title><path class="cls-1" d="M118.22,38a61.53,61.53,0,1,1-13.34-20,61.29,61.29,0,0,1,13.34,20ZM61.44,12.08A49.36,49.36,0,1,1,12.08,61.44,49.36,49.36,0,0,1,61.44,12.08Z"/><path class="cls-2" d="M61.44,12.08A49.36,49.36,0,1,1,12.08,61.44,49.36,49.36,0,0,1,61.44,12.08Z"/><path d="M53.18,47.1v-4H45.92a3.17,3.17,0,0,1-2.7-1.26c-1.41-2.12.54-4.21,1.86-5.68C48.86,32,57.14,24,59,21.81a3.1,3.1,0,0,1,4.86,0c1.94,2.26,10.68,10.73,14.29,14.78,1.25,1.41,2.8,3.34,1.5,5.29A3.16,3.16,0,0,1,77,43.14H69.7v4Zm16.16,8.06H53.54l.06-.06H69.28l.06.06Z"/><polygon class="cls-1" points="70.94 51.1 84.38 64.53 84.38 83.54 70.95 96.98 51.94 96.98 38.5 83.55 38.5 64.54 51.93 51.1 70.94 51.1 70.94 51.1"/><path class="cls-3" d="M47.82,79.28q-.47,0-.9,0l-.86-.08L45.25,79c-.25-.05-.5-.1-.74-.17V76.74l1,.07,1.11,0,1,0a3.94,3.94,0,0,0,.76-.07.91.91,0,0,0,.46-.23.54.54,0,0,0,.15-.41V76a.52.52,0,0,0-.21-.45.84.84,0,0,0-.51-.16h-.74a3.65,3.65,0,0,1-2.43-.7,2.94,2.94,0,0,1-.83-2.37v-.46a2.8,2.8,0,0,1,.91-2.28,4.06,4.06,0,0,1,2.63-.75,11.92,11.92,0,0,1,1.23.06q.57.06,1.08.15c.34.06.64.12.91.19v2.13l-1.44-.09-1.45,0a4.86,4.86,0,0,0-.69,0,.9.9,0,0,0-.47.22.69.69,0,0,0-.16.49v.14a.65.65,0,0,0,.22.53,1.07,1.07,0,0,0,.68.17h.91a3.28,3.28,0,0,1,1.61.37,2.39,2.39,0,0,1,1,1,3,3,0,0,1,.33,1.43v.46a3.6,3.6,0,0,1-.46,2,2.29,2.29,0,0,1-1.3.94,7.51,7.51,0,0,1-2,.24Zm7.09-.09V71.31H52.32V68.9h7.87v2.41H57.6v7.88Zm10.33.09a7.35,7.35,0,0,1-1.92-.22A2.86,2.86,0,0,1,62,78.29a3.54,3.54,0,0,1-.84-1.58,13.34,13.34,0,0,1,0-5.34A3.54,3.54,0,0,1,62,69.79,2.86,2.86,0,0,1,63.32,69a8.49,8.49,0,0,1,3.84,0,2.94,2.94,0,0,1,1.38.77,3.44,3.44,0,0,1,.83,1.58,12.87,12.87,0,0,1,0,5.34,3.44,3.44,0,0,1-.83,1.58,2.94,2.94,0,0,1-1.38.77,7.35,7.35,0,0,1-1.92.22Zm0-2.41a2.55,2.55,0,0,0,.86-.13,1,1,0,0,0,.52-.43,2.29,2.29,0,0,0,.27-.86A13.18,13.18,0,0,0,67,74a13.58,13.58,0,0,0-.07-1.45,2.29,2.29,0,0,0-.27-.86,1,1,0,0,0-.52-.41,3.38,3.38,0,0,0-1.71,0,1,1,0,0,0-.53.41,2.31,2.31,0,0,0-.26.86A11.36,11.36,0,0,0,63.53,74a11,11,0,0,0,.07,1.41,2.31,2.31,0,0,0,.26.86,1,1,0,0,0,.53.43,2.58,2.58,0,0,0,.85.13Zm5.67,2.32V68.9h4.51a5.12,5.12,0,0,1,1.09.12,2.54,2.54,0,0,1,1,.48,2.59,2.59,0,0,1,.75,1.11,5.66,5.66,0,0,1,.28,2,6.11,6.11,0,0,1-.27,2,2.76,2.76,0,0,1-.72,1.13,2.39,2.39,0,0,1-1,.52,4.6,4.6,0,0,1-1,.13l-.55,0a4.85,4.85,0,0,1-.55-.08l-.5-.09-.38-.08v3.1ZM73.6,74h1.55a.56.56,0,0,0,.43-.16.87.87,0,0,0,.23-.45,3.73,3.73,0,0,0,.06-.74,3,3,0,0,0-.08-.72.88.88,0,0,0-.23-.43.56.56,0,0,0-.41-.15H73.6V74Z"/></svg>