<?xml version="1.0" encoding="utf-8"?><svg version="1.1" id="Layer_1" xmlns="http://www.w3.org/2000/svg" xmlns:xlink="http://www.w3.org/1999/xlink" x="0px" y="0px" viewBox="0 0 92.68 122.88" style="enable-background:new 0 0 92.68 122.88" xml:space="preserve"><style type="text/css"><![CDATA[
	.st0{fill-rule:evenodd;clip-rule:evenodd;fill:#72BD39;}
	.st1{fill-rule:evenodd;clip-rule:evenodd;fill:#EF6657;}
	.st2{fill-rule:evenodd;clip-rule:evenodd;}
	.st3{fill-rule:evenodd;clip-rule:evenodd;fill:#262626;}
	.st4{fill-rule:evenodd;clip-rule:evenodd;fill:#FFD15C;}
]]></style><g><path class="st2" d="M2.53,15.33h13.91v-3.05c0-3.38,1.38-6.46,3.61-8.68C22.27,1.38,25.35,0,28.73,0h34.55 c3.38,0,6.46,1.38,8.68,3.61c2.23,2.22,3.61,5.3,3.61,8.68v3.05h14.57c1.3,0,3.09,1.28,2.36,2.36 c-5.31,7.82-9.51,17.22-16.93,22.07v8.74h14.57c1.3,0,3.09,1.28,2.36,2.36c-5.31,7.83-9.52,17.23-16.94,22.07v8.73h14.58 c1.3,0,3.09,1.28,2.36,2.36c-5.31,7.83-9.52,17.24-16.94,22.08v4.49c0,3.38-1.38,6.46-3.61,8.68c-2.23,2.23-5.3,3.61-8.68,3.61 H28.73c-3.38,0-6.46-1.38-8.68-3.61c-2.23-2.22-3.61-5.3-3.61-8.68v-4.95C9.43,100.69,5.33,91.61,0.17,84.02 c-0.73-1.08,1.06-2.36,2.36-2.36h13.91v-9.19C9.43,67.52,5.33,58.45,0.17,50.86c-0.73-1.08,1.06-2.36,2.36-2.36h13.91v-9.18 C9.43,34.36,5.33,25.29,0.17,17.7C-0.56,16.63,1.23,15.33,2.53,15.33L2.53,15.33L2.53,15.33z"/><path class="st3" d="M28.73,3.37h34.55c4.9,0,8.92,4.01,8.92,8.92v98.3c0,4.9-4.01,8.92-8.92,8.92H28.73 c-4.9,0-8.92-4.01-8.92-8.92v-98.3C19.81,7.38,23.82,3.37,28.73,3.37L28.73,3.37z"/><path class="st4" d="M46.01,48c7.43,0,13.44,6.02,13.44,13.44c0,7.42-6.02,13.44-13.44,13.44c-7.43,0-13.44-6.02-13.44-13.44 C32.56,54.02,38.58,48,46.01,48L46.01,48L46.01,48z"/><path class="st1" d="M46.01,12.38c7.43,0,13.44,6.02,13.44,13.44c0,7.43-6.02,13.44-13.44,13.44c-7.43,0-13.44-6.02-13.44-13.44 C32.56,18.39,38.58,12.38,46.01,12.38L46.01,12.38L46.01,12.38z"/><path class="st0" d="M46.01,83.63c7.43,0,13.44,6.02,13.44,13.44c0,7.43-6.02,13.44-13.44,13.44c-7.43,0-13.44-6.02-13.44-13.44 C32.56,89.64,38.58,83.63,46.01,83.63L46.01,83.63L46.01,83.63z"/></g></svg>