<?xml version="1.0" encoding="utf-8"?><svg version="1.1" id="Layer_1" xmlns="http://www.w3.org/2000/svg" xmlns:xlink="http://www.w3.org/1999/xlink" x="0px" y="0px" viewBox="0 0 108.32 122.88" style="enable-background:new 0 0 108.32 122.88" xml:space="preserve"><style type="text/css">.st0{fill-rule:evenodd;clip-rule:evenodd;}</style><g><path class="st0" d="M2.96,7.55h20.29V7.42c0-4.08,3.34-7.42,7.42-7.42h46.42c4.08,0,7.42,3.34,7.42,7.42v0.13h20.85 c1.52,0,3.61,1.5,2.76,2.76c-6.97,10.27-12.31,22.87-23.17,27.63h-0.43v8.38h20.85c1.52,0,3.61,1.5,2.76,2.76 c-6.97,10.27-12.31,22.87-23.17,27.63h-0.43v8.38h20.85c1.52,0,3.61,1.5,2.76,2.76c-6.97,10.27-12.31,22.87-23.17,27.63h-0.43 c-0.01,4.07-3.34,7.41-7.42,7.41H30.67c-4.08,0-7.42-3.34-7.42-7.42v-0.04C12.47,110.62,7.15,98.08,0.2,87.84 c-0.85-1.26,1.24-2.76,2.76-2.76h20.29v-8.43C12.47,71.85,7.15,59.31,0.2,49.08c-0.85-1.26,1.24-2.76,2.76-2.76h20.29v-8.43 C12.47,33.09,7.15,20.55,0.2,10.31C-0.66,9.06,1.44,7.55,2.96,7.55L2.96,7.55z M54.16,84.27c8.68,0,15.71,7.04,15.71,15.71 c0,8.68-7.04,15.71-15.71,15.71c-8.68,0-15.71-7.04-15.71-15.71C38.44,91.3,45.48,84.27,54.16,84.27L54.16,84.27z M54.16,5.03 c8.68,0,15.71,7.04,15.71,15.71c0,8.68-7.04,15.71-15.71,15.71c-8.68,0-15.71-7.04-15.71-15.71C38.44,12.06,45.48,5.03,54.16,5.03 L54.16,5.03z M54.16,44.65c8.68,0,15.71,7.04,15.71,15.71c0,8.68-7.04,15.71-15.71,15.71c-8.68,0-15.71-7.04-15.71-15.71 C38.44,51.68,45.48,44.65,54.16,44.65L54.16,44.65z"/></g></svg>