<svg id="Layer_1" data-name="Layer 1" xmlns="http://www.w3.org/2000/svg" viewBox="0 0 122.88 105.59"><defs><style>.cls-1{fill:#fff;}.cls-2{fill:#d92d27;}.cls-3{fill-rule:evenodd;}</style></defs><title>tram-crossing-ahead-sign</title><polygon class="cls-1" points="12.82 96.3 110.06 96.3 60.48 13.85 12.82 96.3 12.82 96.3"/><path class="cls-2" d="M12.73,96.26H110L60.39,13.81,12.73,96.26Zm105.48,9.33H4.66A4.71,4.71,0,0,1,2.32,105,4.67,4.67,0,0,1,.63,98.59L56.28,2.32A4.74,4.74,0,0,1,57.92.66a4.65,4.65,0,0,1,6.38,1.6L122,98.21a4.66,4.66,0,0,1-3.79,7.38Z"/><path class="cls-3" d="M54.58,47.36H67.94c2.2,0,4.88,2.83,5.31,5L78,74.46c.42,2.15-2.35,5.24-4.54,5.24H52c-5.2,0-8.15-1-7-7.31l4.12-19.84c.41-2.16,3.19-5.19,5.39-5.19ZM48.17,91.43l3.7-8.59h4.57L55.22,85.6H67.47l-1.26-2.84H70.7l3.67,8.51H70l-1.3-2.83H53.88l-1.22,3Zm7.34-20.31a3,3,0,1,1-3,3,3,3,0,0,1,3-3Zm3.14-21H64a.25.25,0,0,1,.25.25v2.5a.25.25,0,0,1-.25.25H58.65a.25.25,0,0,1-.25-.25v-2.5a.26.26,0,0,1,.25-.25Zm-10,18.23L51.58,56H71.25L74,68.37Zm18.46,2.75a3,3,0,1,1-3,3,3,3,0,0,1,3-3Z"/></svg>