<svg id="Layer_1" data-name="Layer 1" xmlns="http://www.w3.org/2000/svg" viewBox="0 0 92.53 122.88"><defs><style>.cls-1{fill:#fff;}.cls-2{fill:#d92d27;}</style></defs><title>two-way-sign</title><path class="cls-1" d="M76.24,6.22H16.29A10.11,10.11,0,0,0,6.22,16.29v90.3a10.11,10.11,0,0,0,10.07,10.07h60a10.11,10.11,0,0,0,10.07-10.07V16.29A10.11,10.11,0,0,0,76.24,6.22Z"/><path class="cls-2" d="M16.29,0h60A16.32,16.32,0,0,1,92.53,16.29v90.3a16.32,16.32,0,0,1-16.29,16.29H16.29A16.32,16.32,0,0,1,0,106.59V16.29A16.32,16.32,0,0,1,16.29,0Zm60,6.22H16.29A10.11,10.11,0,0,0,6.22,16.29v90.3a10.11,10.11,0,0,0,10.07,10.07h60a10.11,10.11,0,0,0,10.07-10.07V16.29A10.11,10.11,0,0,0,76.24,6.22Z"/><path d="M58.2,86.13V80.26a2.12,2.12,0,0,1,.85-1.8c1.41-.94,2.81.36,3.79,1.24C65.62,82.22,72,88.77,73.46,90a2.06,2.06,0,0,1,0,3.24c-1.51,1.29-8.19,8.15-10.89,10.56-.94.84-2.22,1.87-3.52,1a2.12,2.12,0,0,1-.85-1.8V97.15H33.88V103a2.09,2.09,0,0,1-.84,1.8c-1.3.87-2.58-.16-3.52-1-2.71-2.41-9.39-9.27-10.89-10.56a2.06,2.06,0,0,1,0-3.24c1.47-1.25,7.84-7.8,10.62-10.32,1-.88,2.38-2.18,3.79-1.24a2.09,2.09,0,0,1,.84,1.8v5.87ZM23.65,38.81V24.64H19V20.31H33.13v4.33H28.48V38.81Zm.13,26.77L19.6,47.32h4.94L26.8,58.43l2.73-11.11H33.8l2.71,11.11,2.26-11.11h4.94L39.53,65.58H34.76l-3.1-11.16L28.54,65.58Zm19.31,0L48.5,47.32h5.94l5.41,18.26H54.91l-.74-2.9H48.69L48,65.58ZM49.8,58.4h3.27l-1.65-7-1.62,7ZM64,65.58V60.4L58.75,47.32h4.93l2.83,8.21,2.83-8.21h4.74L68.8,60.4v5.18ZM37.89,38.81l-4.23-18.5h5L41,31.56l2.76-11.25h4.34l2.74,11.25,2.29-11.25h5l-4.23,18.5H49L45.88,27.5,42.72,38.81ZM66.77,39a13.66,13.66,0,0,1-3.45-.39,5.41,5.41,0,0,1-2.48-1.38,6.31,6.31,0,0,1-1.49-2.85,19.1,19.1,0,0,1-.5-4.79,19.13,19.13,0,0,1,.5-4.8,6.31,6.31,0,0,1,1.49-2.85,5.41,5.41,0,0,1,2.48-1.38,15.45,15.45,0,0,1,6.9,0A5.41,5.41,0,0,1,72.7,21.9a6.31,6.31,0,0,1,1.49,2.85,19.13,19.13,0,0,1,.5,4.8,19.1,19.1,0,0,1-.5,4.79,6.31,6.31,0,0,1-1.49,2.85,5.41,5.41,0,0,1-2.48,1.38,13.66,13.66,0,0,1-3.45.39Zm0-4.34a4.41,4.41,0,0,0,1.54-.22,1.87,1.87,0,0,0,.94-.77,4.12,4.12,0,0,0,.47-1.55,19.31,19.31,0,0,0,.14-2.53,20.17,20.17,0,0,0-.14-2.62,4,4,0,0,0-.47-1.53,1.7,1.7,0,0,0-.94-.73,4.71,4.71,0,0,0-1.54-.2,4.81,4.81,0,0,0-1.53.2,1.69,1.69,0,0,0-.95.73,4,4,0,0,0-.47,1.53,20.17,20.17,0,0,0-.14,2.62,19.31,19.31,0,0,0,.14,2.53,4.12,4.12,0,0,0,.47,1.55,1.85,1.85,0,0,0,.95.77,4.5,4.5,0,0,0,1.53.22Z"/></svg>