<svg id="Layer_1" data-name="Layer 1" xmlns="http://www.w3.org/2000/svg" viewBox="0 0 122.88 122.88"><defs><style>.cls-1{fill:#d92d27;}.cls-1,.cls-2{fill-rule:evenodd;}.cls-2{fill:#fff;}</style></defs><title>u-turn-sign</title><path class="cls-1" d="M118.22,38a61.53,61.53,0,1,1-13.34-20,61.29,61.29,0,0,1,13.34,20ZM61.44,12.08A49.36,49.36,0,1,1,12.08,61.44,49.36,49.36,0,0,1,61.44,12.08Z"/><path class="cls-2" d="M61.44,12.08A49.36,49.36,0,1,1,12.08,61.44,49.36,49.36,0,0,1,61.44,12.08Z"/><path d="M80,80.09V46.67a20,20,0,0,0-5.59-13.9,18.52,18.52,0,0,0-26.94,0,20,20,0,0,0-5.59,13.9V83.86H53.65V46.67A7.68,7.68,0,0,1,55.8,41.3a7.11,7.11,0,0,1,10.3,0,7.68,7.68,0,0,1,2.15,5.37V80.09H60L73.67,95.92,87.92,80.09Z"/></svg>