<?xml version="1.0" encoding="utf-8"?><svg version="1.1" id="Layer_1" xmlns="http://www.w3.org/2000/svg" xmlns:xlink="http://www.w3.org/1999/xlink" x="0px" y="0px" viewBox="0 0 122.88 98.02" style="enable-background:new 0 0 122.88 98.02" xml:space="preserve"><g><path d="M63.44,5.11c-0.17-0.27-0.38-0.46-0.64-0.59c-0.34-0.16-0.79-0.24-1.36-0.24c-0.57,0-1.02,0.08-1.36,0.24 c-0.26,0.13-0.48,0.33-0.64,0.59c-0.02,0.02-0.03,0.05-0.05,0.07L5.73,89.36l0,0c-0.3,0.49-0.57,1.06-0.79,1.7 c-0.24,0.69-0.44,1.47-0.6,2.32c-0.02,0.13-0.04,0.25-0.05,0.36l114.31,0c-0.01-0.12-0.03-0.24-0.05-0.36 c-0.16-0.86-0.36-1.63-0.6-2.32c-0.23-0.65-0.49-1.22-0.79-1.7l-0.01-0.02L63.46,5.14L63.44,5.11L63.44,5.11L63.44,5.11L63.44,5.11 z M60.88,69.82c0.84,1.13,1.58,2.34,2.06,3.75l-0.4,11.88h-5.89l0.34-10.1c0.04-1.05,0.04-0.9-0.45-1.83L52.7,66.2L60.88,69.82 L60.88,69.82z M62.99,31.76c3.35,0,6.06,2.71,6.06,6.06c0,3.35-2.71,6.06-6.06,6.06c-3.35,0-6.06-2.71-6.06-6.06 C56.92,34.47,59.64,31.76,62.99,31.76L62.99,31.76z M70.46,82.85c1.86-3.4,3.4-6.2,6.23-9.35L34.4,54.79l1.86-4.22l2.65,1.17 l3.12-5.51c0.45-0.8,1.22-1.3,2.06-1.45l0,0l8.72-1.5c0.63-0.11,1.24-0.01,1.77,0.25l10.71,4.56c0.91,0.39,1.53,1.19,1.72,2.09l0,0 l3.21,14.75c0.05,0.23,0.07,0.47,0.07,0.7l9.61,4.25l-0.2,0.45l6.53-6.84l11.91,17.47c3.52,5.17,1.31,4.85-4.91,4.92 c-6.58,0.07-14.28-0.02-20.37-0.31C68.83,85.37,68.67,86.13,70.46,82.85L70.46,82.85z M44.31,54.14l4.17,1.85l3.12-6.51l-5.16,0.89 L44.31,54.14L44.31,54.14z M59.35,60.79l4.37,1.93l-1.85-8.51L59.35,60.79L59.35,60.79z M51.15,65.51l-4.31,19.81l-5.74,0.06 l4.55-22.24l0.3,0.07L51.15,65.51L51.15,65.51z M64.65,0.68c1.01,0.49,1.81,1.22,2.41,2.2l0,0l53.66,84.18 c0.02,0.02,0.03,0.05,0.05,0.07c0.47,0.76,0.87,1.6,1.2,2.54c0.31,0.89,0.57,1.88,0.77,2.96c0.1,0.52,0.14,0.98,0.14,1.38 c0,0.98-0.24,1.81-0.72,2.49c-0.55,0.78-1.33,1.26-2.33,1.45c-0.3,0.06-0.59,0.08-0.87,0.08H3.92c-0.28,0-0.57-0.03-0.87-0.08 c-1-0.19-1.78-0.67-2.33-1.45C0.24,95.81,0,94.98,0,94c0-0.4,0.05-0.87,0.15-1.38c0.2-1.08,0.45-2.06,0.77-2.96 c0.33-0.94,0.73-1.78,1.2-2.54l0,0l0.02-0.03l53.68-84.2l0.01-0.02c0.6-0.98,1.41-1.71,2.41-2.2c0.93-0.45,2-0.68,3.21-0.68 C62.65,0,63.72,0.23,64.65,0.68L64.65,0.68L64.65,0.68z"/></g></svg>