<svg id="Layer_1" data-name="Layer 1" xmlns="http://www.w3.org/2000/svg" viewBox="0 0 122.88 105.59"><defs><style>.cls-1{fill:#fff;}.cls-2{fill:#d92d27;}.cls-3{fill-rule:evenodd;}</style></defs><title>zebra-crossing-sign</title><polygon class="cls-1" points="12.82 96.3 110.06 96.3 60.48 13.85 12.82 96.3 12.82 96.3"/><path class="cls-2" d="M12.73,96.26H110L60.39,13.81,12.73,96.26Zm105.48,9.33H4.66A4.71,4.71,0,0,1,2.32,105,4.67,4.67,0,0,1,.63,98.59L56.28,2.32A4.74,4.74,0,0,1,57.92.66a4.65,4.65,0,0,1,6.38,1.6L122,98.21a4.66,4.66,0,0,1-3.79,7.38Z"/><path class="cls-3" d="M88.66,74.52H81.57l7.6,18h8.91l-9.42-18ZM77.35,56a2,2,0,0,1,2.13.8,3.79,3.79,0,0,1,.42,1,3,3,0,0,1,.09.73,2.81,2.81,0,0,1,0,.29c-.43,1.06-1.22,1.45-2.12,2.07a19.87,19.87,0,0,1-2.77,1.18c-.51.19-1,.36-1.55.53s-1,.31-1.58.43a6.23,6.23,0,0,1-5.45-1.38,14.61,14.61,0,0,1-1.19-1.17l-.12-.12-1,6.15A22.63,22.63,0,0,0,66.64,68c2.7,1.26,4.91,2.29,5.39,6.53.09.74,0,5.07,0,7.2H67.17c0-2.41.1-5.78.06-6.44,0-.47-.34-1.7-.84-1.93-.65-.28-1.33-.53-2-.75-1-.32-1.73-.63-2.67-.89-.7,2.28-1.63,5-2.63,7.65l-1,2.36H52.85c.49-1.32,1-2.71,1.48-4.13,1-2.9,2-5.89,2.71-8.26a7.66,7.66,0,0,1-1.12-1.75A4,4,0,0,1,55.56,66h0a3.68,3.68,0,0,1,.06-.66l1.51-7.56a3.76,3.76,0,0,0-1.67,0c-1,.42-2.42,2.26-3.28,3.12L51,62.07c-.89.89-1.48,1.9-2.83,1.78a2.14,2.14,0,0,1-1.7-3.43l2.64-2.68A20.25,20.25,0,0,1,53.2,54a8.44,8.44,0,0,1,4.91-1.1c.83,0,1.71.09,2.53.17l1,.08c3.81.25,5.59,2.25,7,3.8a6.46,6.46,0,0,0,1.71,1.56c.27.13.69,0,1.18-.25L75,57l2.35-1Zm-14.3-13.3a4.48,4.48,0,1,1-4.48,4.48,4.48,4.48,0,0,1,4.48-4.48ZM64,75.22l.61,6.4a.53.53,0,0,0,0,.13,3.08,3.08,0,0,0,.07.61l1,10.11H56.46l.34-8.13h1.32a2.59,2.59,0,0,0,2.4-1.62l.89-2.21.08-.19c.5-1.3,1-2.62,1.41-3.89.15-.45.31-.92.47-1.41h0l.23.08.37.12Zm-18.39-.7h6l-.68,5.07c-.12.33-.25.68-.39,1a2.59,2.59,0,0,0,0,2.13l-1.31,9.71h-8.4l4.83-18Zm-11.37,0h6l-6.51,18H24.79l9.43-18Zm43.07,0H74.62c0,.54,0,1.48,0,2.54,0,1.31,0,3.29-.06,4.74a2.58,2.58,0,0,1-2.42,2.52l1.53,8.15h9.65l-6.08-18Z"/></svg>