<svg xmlns="http://www.w3.org/2000/svg" shape-rendering="geometricPrecision" text-rendering="geometricPrecision" image-rendering="optimizeQuality" fill-rule="evenodd" clip-rule="evenodd" viewBox="0 0 512 427.44"><path d="M509.39 210.93H201.8L28.88 76.53c-1.41-1.1-3.35-1.26-4.6 0L2.98 97.82c-.88.89-1.23 2.29-.85 3.41L1.5 235.17c-.91.76-1.5 1.9-1.5 3.17v21.68c0 2.26 1.87 4.1 4.1 4.1h28.15c.35.24.73.44 1.14.62l86.87 37.77.71 5.67v33.23a42.92 42.92 0 0 0-7.82-.71c-23.95 0-43.37 19.41-43.37 43.37 0 23.95 19.42 43.37 43.37 43.37 23.95 0 43.37-19.42 43.37-43.37 0-6.33-1.36-12.34-3.79-17.76.08-.63.12-1.28.12-1.93V264.12h133.69c.36.24.74.45 1.15.62l86.53 37.46 1.02 8.43v30.78c-2.53-.47-5.15-.71-7.82-.71-23.95 0-43.37 19.41-43.37 43.37 0 23.95 19.42 43.37 43.37 43.37 23.95 0 43.37-19.42 43.37-43.37 0-6.22-1.31-12.13-3.67-17.48V264.12H507.9c2.23 0 4.1-1.87 4.1-4.1v-21.68c0-.19-.02-.37-.04-.55l.02-.34v-23.93c0-1.43-1.24-2.59-2.59-2.59zm-187.64 53.19h53.49v23.15l-53.49-23.15zm45.67 104.62c8.46 0 15.33 6.86 15.33 15.33 0 8.46-6.87 15.33-15.33 15.33-8.47 0-15.33-6.87-15.33-15.33 0-8.47 6.86-15.33 15.33-15.33zM67.38 264.12h53.59v23.3l-53.59-23.3zm45.77 104.62c8.46 0 15.33 6.86 15.33 15.33 0 8.46-6.87 15.33-15.33 15.33-8.47 0-15.33-6.87-15.33-15.33 0-8.47 6.86-15.33 15.33-15.33zM83.54 0c23 0 41.66 18.65 41.66 41.66 0 23-18.66 41.66-41.66 41.66-23.01 0-41.66-18.66-41.66-41.66C41.88 18.65 60.53 0 83.54 0zm66.38 145.85c-20.61-9.44-9.88-44.69 15.53-26.94l50.85 35.53 78.55 1.58c8.41.07 15.17 6.94 15.11 15.35-.07 8.4-6.94 15.17-15.35 15.1l-79.24-1.59c-1.54.12-3.11 0-4.68-.37l-60.77-38.66zm329.36 33.61c27.68 3.52 38.47-41.8 5.56-48.21l-230.19-6.19c-26.64-2.65-53.78-58.7-104.24-56.35-30.4 1.41-41.85 30.39-19.89 58.33v-.24c.04-4.04.99-7.97 2.76-11.35 1.89-3.59 4.71-6.61 8.38-8.56 6.81-3.64 16.09-3.46 26.78 4.01l50.59 35.35 78.78 1.59c6.16.08 11.73 2.64 15.73 6.72a22.38 22.38 0 0 1 6.46 15.91c.03.26.01.52-.02.78-.14 3.59-1.12 6.97-2.75 9.94l20.94-1.14 141.11-.59z"/></svg>