<svg xmlns="http://www.w3.org/2000/svg" shape-rendering="geometricPrecision" text-rendering="geometricPrecision" image-rendering="optimizeQuality" fill-rule="evenodd" clip-rule="evenodd" viewBox="0 0 430 511.78"><path fill="#ED1B24" d="M212.88 193.86c28.02-29.23 47.64-52.24 90.84-57.21 81.08-9.32 155.64 73.68 114.69 155.41-11.66 23.29-35.38 50.96-61.62 78.12-46.27 47.89-96.4 94.47-143.91 141.6C141.27 442.81 3.57 338.39.08 240.72-2.21 177.04 48.05 136.25 105.85 137c51.66.67 73.38 24.14 107.03 56.86zm21.37 136.25 19.02-58.76h-45.89l16.57-45.89h-43.5l-29.16 86.68h48.8l-20.21 57.53h45.4l-32.09 81.95 85.52-121.51h-44.46z"/><path fill-rule="nonzero" d="M99.05 104.73H63.69L90.84 0h51.77l27.15 104.73H134.4l-3.85-16.59H102.9l-3.85 16.59zm14.52-72.56-4.64 29.33h15.42l-4.47-29.33h-6.31zm132.09 33.01h-33.51v14.97h41.05v24.58h-74.56V0h73.72l-4.19 24.57h-36.02v16.31h33.51v24.3zm24.29 39.55V0h46.92c18.88 0 31.84 4.02 38.87 12.06 7.04 8.05 10.56 21.48 10.56 40.3 0 18.83-3.52 32.26-10.56 40.3-7.03 8.04-19.99 12.07-38.87 12.07h-46.92zm47.42-79.04h-16.14v53.34h16.14c4.58 0 7.91-.53 9.97-1.59 2.06-1.05 3.1-3.49 3.1-7.29V34.57c0-3.79-1.04-6.23-3.1-7.29-2.06-1.05-5.39-1.59-9.97-1.59z"/></svg>