<svg xmlns="http://www.w3.org/2000/svg" shape-rendering="geometricPrecision" text-rendering="geometricPrecision" image-rendering="optimizeQuality" fill-rule="evenodd" clip-rule="evenodd" viewBox="0 0 348 512.45"><path fill="#D10204" fill-rule="nonzero" d="M123.19 361.28c0-7.53 6.11-13.63 13.64-13.63s13.63 6.1 13.63 13.63l-.02 6.69c-.09 20.77-.26 56.04 5.63 70.56 1.8 4.43 4.56 8.19 7.95 11.2 4.93 4.4 11.2 7.28 17.79 8.44 6.6 1.16 13.43.6 19.49-1.86 4.09-1.66 7.86-4.21 10.97-7.7 5.86-6.57 7.24-14.68 8.62-22.82 2.3-13.54 4.61-27.15 19.35-40.94 11.16-10.44 25.54-15.58 40.1-16.01 14.96-.44 30.25 4.12 42.41 13 4.87 3.57 9.25 7.81 12.92 12.68a58.887 58.887 0 0 1 8.53 15.87c4.65 13.13 3.91 52.47 3.47 75.73-.07 3.83-.13 7.08-.13 12.64 0 7.56-6.14 13.69-13.69 13.69-7.57 0-13.7-6.13-13.7-13.69l.25-13.07c.4-21.39 1.08-57.57-1.97-66.2a31.606 31.606 0 0 0-4.58-8.5 34.646 34.646 0 0 0-7.25-7.11c-7.26-5.31-16.47-8.04-25.51-7.77-8.24.25-16.24 3.02-22.24 8.63-7.93 7.42-9.48 16.51-11.01 25.55-2.05 12.07-4.1 24.12-15.14 36.5-6.03 6.76-13.28 11.68-21.13 14.87-10.93 4.43-22.99 5.48-34.46 3.46-11.47-2.02-22.48-7.11-31.28-14.96-6.41-5.71-11.66-12.88-15.11-21.36-7.84-19.33-7.65-58.1-7.55-80.94l.02-6.58z"/><path fill="#D10204" d="M16.61 104.6c-4.43 92.06-28.63 135.01 73.08 231.06v28.7h97.32v-28.6c95.99-93.27 73.56-141.61 69.32-231.16-113.05 54.9-175.89-23.89-239.72 0z"/><path fill-rule="nonzero" d="M255.94 79.39c0-3.81-1.55-7.26-4.04-9.75l-.03-.03a13.755 13.755 0 0 0-9.75-4.04H30.83c-3.81 0-7.26 1.55-9.75 4.04-2.51 2.53-4.07 5.99-4.07 9.78 0 25.78-.94 47.45-1.9 66.08h55.11c3.4 0 6.16 2.75 6.16 6.16 0 3.4-2.76 6.16-6.16 6.16H14.46c-.5 9.45-.95 18.03-1.18 25.98h56.94c3.4 0 6.16 2.76 6.16 6.16 0 3.4-2.76 6.16-6.16 6.16H13.14c.08 9.31.65 17.81 2.06 25.99h55.02c3.4 0 6.16 2.76 6.16 6.16 0 3.4-2.76 6.16-6.16 6.16H18.03c7.84 26.82 26.97 52.79 69.98 96.32a6.49 6.49 0 0 1 1.87 4.57l.02 29.1h97.08v-28.63c0-2.29 1.18-4.31 2.96-5.47 73.35-79.26 72.16-102.36 68.34-175.83-1.07-20.64-2.34-45.1-2.34-75.07zm-76.16-36.45v9.54h62.34c7.37 0 14.08 3.02 18.98 7.89l.03.04c4.87 4.88 7.9 11.6 7.9 18.98 0 30.29 1.24 54.22 2.29 74.4 4.03 77.48 5.28 101.96-71.25 184.77v32.37c0 3.61-2.93 6.55-6.54 6.55H83.36c-3.62 0-6.55-2.94-6.55-6.55v-32.98C-3.85 255.96-2.67 233.51 1.52 155.16c1.1-20.41 2.4-44.77 2.4-75.77 0-7.4 3.03-14.14 7.9-19.01 4.9-4.87 11.63-7.9 19.01-7.9h62.5v-9.54c0-20.57 11.31-33.78 25.79-39.6C124.66 1.11 130.63 0 136.55 0c5.93 0 11.9 1.12 17.44 3.34 14.47 5.81 25.79 19.03 25.79 39.6zm-13.09 9.42v-9.42c0-14.37-7.71-23.53-17.56-27.48-3.92-1.58-8.23-2.37-12.58-2.37-4.34 0-8.65.79-12.57 2.37-9.85 3.96-17.56 13.11-17.56 27.48v9.42h60.27z"/><path fill-rule="nonzero" d="M79.11 335.98c-3.4 0-6.16-2.76-6.16-6.16 0-3.4 2.76-6.16 6.16-6.16h118.93c3.4 0 6.16 2.76 6.16 6.16 0 3.4-2.76 6.16-6.16 6.16H79.11z"/></svg>