<svg xmlns="http://www.w3.org/2000/svg" shape-rendering="geometricPrecision" text-rendering="geometricPrecision" image-rendering="optimizeQuality" fill-rule="evenodd" clip-rule="evenodd" viewBox="0 0 365 512.09"><path fill-rule="nonzero" d="M339.58 83.09c0-4.74-1.95-9.07-5.08-12.21-3.14-3.13-7.47-5.08-12.21-5.08H37.59c-4.75 0-9.08 1.95-12.21 5.08-3.14 3.14-5.09 7.47-5.09 12.21v45.02h12.82V150H20.29v27.41h12.82v21.89H20.29v27.44h12.82v21.89H20.9c1.38 8.39 4.31 16.62 8.39 24.66 116 48.62 244.1-67.28 308.25-12.23 8.88-21.4 7.68-41.69 5.45-78.7-1.49-24.73-3.41-56.49-3.41-99.27zM138.41 212.36h-27.4l21.04-81.18h40.13l21.04 81.18h-27.41l-2.99-12.85h-21.43l-2.98 12.85zm12.99-56.24-5.33 22.73h11.95l-5.2-22.73h-1.42zm50.6-1.44v-20.9h58.28v20.9H202zM134.72 45.51c.7-21.61 13.01-35.57 28.6-41.83C169.41 1.23 175.98 0 182.47 0c6.49 0 13.07 1.23 19.16 3.68 15.59 6.26 27.89 20.22 28.6 41.83h92.06c10.34 0 19.74 4.22 26.55 11.03 6.81 6.81 11.03 16.21 11.03 26.55 0 42.96 1.87 73.95 3.32 98.07 5.34 88.56 5.42 90.47-97.22 201.1l-14.12 53.55c-1.19 4.54-5.3 7.55-9.79 7.55h-48.73v6.7c0 9.06.41 18.48 1.62 27.39 1.18 8.71 3.15 17.25 6.28 24.96l-23.92 9.68c-3.95-9.73-6.43-20.4-7.89-31.2-1.44-10.6-1.93-21.08-1.93-30.83v-6.69l-44.37.01c-4.94 0-9.06-3.53-9.96-8.21l-14.24-53.99c-6.31-6.28-12.65-12.26-19.16-18.39C44.42 329.47 4.38 291.71.09 245.78L0 244.42V83.09c0-10.34 4.23-19.74 11.03-26.55 6.81-6.81 16.22-11.03 26.56-11.03h97.13zm75.19 0c-.66-11.97-7.36-19.65-15.81-23.04-3.6-1.45-7.6-2.18-11.63-2.18-4.03 0-8.02.73-11.62 2.18-8.45 3.39-15.15 11.07-15.81 23.04h54.87zm-88.5 341.53 9.5 36.05h103.35l9.51-36.05H121.41z"/></svg>