<svg id="Layer_1" data-name="Layer 1" xmlns="http://www.w3.org/2000/svg" viewBox="0 0 122.88 117.71"><defs><style>.cls-1,.cls-2{fill-rule:evenodd;}.cls-2{fill:#d8453e;}</style></defs><title>blood-donation</title><path class="cls-1" d="M27.6,104.58V66.77h17C51.82,68.06,59,72,66.24,76.51H79.45c6,.36,9.11,6.42,3.3,10.4-4.63,3.4-10.75,3.21-17,2.64-4.32-.21-4.51,5.6,0,5.62,1.56.12,3.26-.25,4.75-.25,7.82,0,14.25-1.5,18.2-7.68l2-4.62,19.66-9.74c9.83-3.23,16.81,7.05,9.57,14.21a257.4,257.4,0,0,1-43.76,25.75c-10.84,6.6-21.69,6.37-32.52,0l-16-8.26ZM0,63.13H22.48v45.25H0V63.13Z"/><path class="cls-2" d="M79.51,0a65.22,65.22,0,0,0,4.75,14.19,55.81,55.81,0,0,0,8.12,11.44L94,27.37c4.75,5.29,7.12,10.6,7.12,15.88a20.45,20.45,0,0,1-6.34,15.07,21.51,21.51,0,0,1-30.4,0A20.42,20.42,0,0,1,58,43.25C58,38,60.35,32.66,65.1,27.37l1.57-1.74a56.59,56.59,0,0,0,8.12-11.44A64.83,64.83,0,0,0,79.51,0ZM65.24,40.11a2.18,2.18,0,1,1,4.34-.39,21.11,21.11,0,0,0,2.13,7.88,14,14,0,0,0,5.44,5.63A2.18,2.18,0,1,1,74.94,57a18.17,18.17,0,0,1-7.1-7.35,25.27,25.27,0,0,1-2.6-9.53Z"/></svg>