<svg xmlns="http://www.w3.org/2000/svg" shape-rendering="geometricPrecision" text-rendering="geometricPrecision" image-rendering="optimizeQuality" fill-rule="evenodd" clip-rule="evenodd" viewBox="0 0 365 512.1"><path fill-rule="nonzero" d="M339.58 83.09c0-4.74-1.95-9.07-5.08-12.2-3.14-3.14-7.47-5.09-12.21-5.09H37.58c-4.74 0-9.07 1.95-12.2 5.09-3.14 3.13-5.09 7.46-5.09 12.2v45.02h12.82V150H20.29v27.42h12.82v21.88H20.29v27.44h12.82v21.89H20.89c1.39 8.39 4.33 16.62 8.41 24.67 116 48.61 244.09-67.29 308.24-12.24 8.88-21.4 7.68-41.69 5.45-78.7-1.49-24.73-3.41-56.49-3.41-99.27zM157.5 212.36v-81.17h42.07c7.8 0 13.36 1.51 16.69 4.54 3.34 3.03 5.01 7.45 5.01 13.25s-1.06 10.28-3.18 13.44-4.96 5.22-8.51 6.17v.78c10.47 1.82 15.71 8.96 15.71 21.43 0 6.5-1.73 11.72-5.19 15.65-3.47 3.94-8.79 5.91-15.97 5.91H157.5zm36.11-32.34h-10.14v13.25h10c3.64 0 5.46-2.21 5.46-6.63 0-4.41-1.77-6.62-5.32-6.62zm-1.96-31.04h-8.18v12.08h8.06c3.28 0 4.93-2.02 4.93-6.04s-1.6-6.04-4.81-6.04zm-96.82 63.38H67.42l21.04-81.17h40.13l21.04 81.17h-27.4l-2.99-12.85H97.81l-2.98 12.85zm12.99-56.24-5.33 22.73h11.95l-5.2-22.73h-1.42zm131.41-1.44v-20.9h58.29v20.9h-58.29zM134.72 45.51c.7-21.61 13.01-35.57 28.6-41.83C169.41 1.23 175.98 0 182.47 0c6.49 0 13.07 1.23 19.16 3.68 15.59 6.26 27.89 20.22 28.6 41.83h92.06c10.34 0 19.74 4.22 26.55 11.03 6.81 6.81 11.03 16.21 11.03 26.55 0 42.96 1.87 73.95 3.33 98.07 5.33 88.56 5.42 90.47-97.23 201.1l-14.12 53.55c-1.19 4.55-5.3 7.55-9.79 7.55l-48.73.01v6.69c0 9.07.41 18.48 1.62 27.4 1.18 8.7 3.15 17.24 6.28 24.95l-23.92 9.69c-3.95-9.74-6.42-20.41-7.89-31.21-1.44-10.6-1.93-21.08-1.93-30.83v-6.69l-44.37.01c-4.94 0-9.06-3.53-9.96-8.21l-14.25-54.04c-5.94-5.88-12.48-12.04-19.17-18.36C44.41 329.46 4.38 291.71.09 245.78L0 244.42V83.09c0-10.34 4.22-19.74 11.03-26.55 6.81-6.81 16.22-11.03 26.55-11.03h97.14zm75.19 0c-.66-11.97-7.36-19.65-15.81-23.04-3.6-1.45-7.6-2.18-11.63-2.18-4.03 0-8.02.73-11.62 2.18-8.45 3.39-15.15 11.07-15.81 23.04h54.87zm-88.5 341.53 9.5 36.05h103.35l9.51-36.05H121.41z"/></svg>