<svg id="Layer_1" data-name="Layer 1" xmlns="http://www.w3.org/2000/svg" viewBox="0 0 122.88 113.91"><defs><style>.cls-1,.cls-2{fill-rule:evenodd;}.cls-2{fill:#d8453e;}</style></defs><title>blood-care</title><path class="cls-1" d="M89.53,101.77a1.94,1.94,0,0,1-.83,0H66.36v8.06H89.85v-8.06ZM66.41,97.68H88.33C90.09,95.93,92,94.11,94,92.26a179.19,179.19,0,0,0,12.81-13c5-5.8,5.59-7.82,7.11-13.5.29-1.08.61-2.28,1-3.77l2.62-9.21,0-.1c1.4-4.1,1.51-6.81.92-8.37a1.87,1.87,0,0,0-.67-1,1.2,1.2,0,0,0-.78-.16,3.57,3.57,0,0,0-2.16,1.27L107.1,62.94a1.8,1.8,0,0,1-.27.47A10.31,10.31,0,0,1,105,65.82L91.14,81.22a2,2,0,0,1-3-2.72l13.81-15.39a1.8,1.8,0,0,1,.19-.21c1.42-1.36,1.88-2.83,1.63-3.89a1.58,1.58,0,0,0-.43-.8,1.26,1.26,0,0,0-.75-.32h0c-1.22-.13-3,.77-5.25,3.39h0a1.39,1.39,0,0,1-.21.21l-5.35,4.73,0,0A45.46,45.46,0,0,1,78.9,75.39c-.94.49-2,1-3.27,1.74a12.51,12.51,0,0,0-1.5,1c-.53.4-1,.81-1.5,1.21a14,14,0,0,0-4.38,5.48,30,30,0,0,0-1.39,7.31c-.15,1.26-.26,2.52-.35,3.77,0,.61-.07,1.21-.1,1.79Zm-9.94,0H34.55c-1.76-1.75-3.68-3.57-5.64-5.42a179.19,179.19,0,0,1-12.81-13c-5.05-5.8-5.59-7.82-7.11-13.5C8.7,64.65,8.38,63.45,8,62L5.34,52.75l0-.1c-1.4-4.1-1.51-6.81-.92-8.37a1.87,1.87,0,0,1,.67-1,1.2,1.2,0,0,1,.78-.16A3.57,3.57,0,0,1,8,44.42l7.78,18.52a1.8,1.8,0,0,0,.27.47,10.31,10.31,0,0,0,1.88,2.41l13.81,15.4a2,2,0,0,0,3-2.72L21,63.11a1.8,1.8,0,0,0-.19-.21c-1.42-1.36-1.88-2.83-1.63-3.89a1.58,1.58,0,0,1,.43-.8,1.26,1.26,0,0,1,.75-.32h0c1.22-.13,3,.77,5.25,3.39h0a1.39,1.39,0,0,0,.21.21l5.35,4.73,0,0A45.46,45.46,0,0,0,44,75.39c.94.49,2,1,3.27,1.74a12.51,12.51,0,0,1,1.5,1c.53.4,1,.81,1.5,1.21a14,14,0,0,1,4.38,5.48A30,30,0,0,1,56,92.12c.15,1.26.26,2.52.35,3.77,0,.61.07,1.21.1,1.79Zm-23.12,4.09a1.94,1.94,0,0,0,.83,0H56.52v8.06H33v-8.06Zm-3.9-3.39a2,2,0,0,0-.51,1.35v12.14a2,2,0,0,0,2,2H58.56a2,2,0,0,0,2-2V99.61c0-1.3-.09-2.7-.18-4s-.21-2.65-.36-4a32.06,32.06,0,0,0-1.66-8.35,17.69,17.69,0,0,0-5.53-7.09c-.54-.46-1.09-.92-1.67-1.35a15.84,15.84,0,0,0-2-1.31c-1.2-.66-2.32-1.25-3.34-1.78A42.43,42.43,0,0,1,34,63.27l-.13-.12-5.22-4.6c-3.19-3.74-6.31-5-8.71-4.72h0a5.3,5.3,0,0,0-3,1.28L11.65,42.56h0a2,2,0,0,0-.31-.51A7.81,7.81,0,0,0,6.24,39.1a5.17,5.17,0,0,0-3.4.8,5.85,5.85,0,0,0-2.27,3c-.88,2.35-.86,6,.86,11L4,63.07c.38,1.32.72,2.58,1,3.71,1.7,6.35,2.3,8.6,8,15.12a180.78,180.78,0,0,0,13.1,13.31l3.33,3.17Zm64,0a2,2,0,0,1,.51,1.35v12.14a2,2,0,0,1-2,2H64.32a2,2,0,0,1-2-2V99.61a1.49,1.49,0,0,1,0-.21q0-2,.15-3.78c.09-1.33.22-2.65.37-4a32.06,32.06,0,0,1,1.66-8.35A17.69,17.69,0,0,1,70,76.22c.54-.46,1.09-.92,1.67-1.35a15.84,15.84,0,0,1,2-1.31c1.2-.66,2.32-1.25,3.34-1.78a42.43,42.43,0,0,0,11.91-8.51l.13-.12,5.22-4.6c3.19-3.74,6.31-5,8.71-4.72h0a5.3,5.3,0,0,1,3,1.28l5.27-12.55h0a2,2,0,0,1,.31-.51,7.81,7.81,0,0,1,5.09-2.95,5.17,5.17,0,0,1,3.4.8,5.85,5.85,0,0,1,2.27,3c.88,2.35.86,6-.86,11l-2.6,9.16c-.38,1.32-.72,2.58-1,3.71-1.7,6.35-2.3,8.6-8,15.12a180.78,180.78,0,0,1-13.1,13.31l-3.33,3.17Z"/><path class="cls-2" d="M61.42,0a66.92,66.92,0,0,0,4.85,14.46,56.44,56.44,0,0,0,8.28,11.66l1.59,1.78C81,33.29,83.4,38.7,83.4,44.09a20.83,20.83,0,0,1-6.46,15.35,21.92,21.92,0,0,1-31,0,20.81,20.81,0,0,1-6.48-15.35c0-5.39,2.41-10.8,7.26-16.19l1.6-1.78a57.13,57.13,0,0,0,8.27-11.66A65.51,65.51,0,0,0,61.42,0ZM46.88,40.88a2.22,2.22,0,0,1,4.43-.4,21.66,21.66,0,0,0,2.16,8A14.22,14.22,0,0,0,59,54.25a2.23,2.23,0,0,1-2.25,3.84,18.5,18.5,0,0,1-7.24-7.5,25.8,25.8,0,0,1-2.65-9.71Z"/></svg>