<svg xmlns="http://www.w3.org/2000/svg" shape-rendering="geometricPrecision" text-rendering="geometricPrecision" image-rendering="optimizeQuality" fill-rule="evenodd" clip-rule="evenodd" viewBox="0 0 415 511.65"><path fill-rule="nonzero" d="M13.7 161.65c-7.37 0-13.7-6.32-13.7-14.05 0-7.38 6.33-13.7 13.7-13.7h20.38c12.65.35 23.89 2.81 33.39 8.78 18.38 11.65 21.65 28.29 26.35 47.08h126.7c4.65 11.55 13.04 21.18 23.65 27.43h-61.11v-.01h-81.51l31.27 117.71h221.74l29.16-117.71h-72.29v.01h-10.38c10.61-6.25 18.99-15.88 23.65-27.43h76.6c7.72 0 13.7 6.33 13.7 13.72 0 1.4-.36 2.81-.71 4.21l-35.84 144.42c-1.4 6.33-7.02 10.55-13.35 10.55H140.2c4.93 18.27 9.84 28.11 16.52 32.67 8.09 5.28 22.14 5.62 45.68 5.28h159.19c7.72 0 13.7 6.32 13.7 13.7 0 7.73-6.32 13.7-13.7 13.7H202.76c-29.17.36-47.1-.35-61.5-9.83-14.76-9.84-22.49-26.71-30.22-57.28L63.95 182.74c0-.35 0-.35-.35-.7-2.11-7.74-5.63-13-10.54-15.82-4.92-3.16-11.6-4.57-19.33-4.57H13.7zM211.25 17.33c9.54-16.54 30.88-22.25 47.4-12.7 16.53 9.54 22.24 30.88 12.71 47.4-19.73 34.17-39.41 68-59.13 102.16-4.75 8.23-12.44 13.76-20.99 16.06-8.54 2.29-17.97 1.33-26.2-3.42-8.22-4.75-13.76-12.44-16.06-20.98-2.29-8.54-1.33-17.97 3.43-26.2 19.72-34.21 39.08-68.11 58.84-102.32zm19.58 89.4L184.5 79.99l-25.14 43.53c-3.67 6.38-4.41 13.66-2.63 20.3 1.78 6.63 6.06 12.58 12.42 16.26 6.37 3.67 13.66 4.41 20.29 2.62 6.62-1.77 12.58-6.06 16.26-12.43l25.13-43.54zm73.55 48.29c4.82 9.55 4.99 21.24-.6 31.31-8.94 16.14-29.29 21.98-45.44 13.04-4.75-2.63-8.6-6.26-11.46-10.45l57.5-33.9zm-59.06-1.11c8.94-16.14 29.29-21.98 45.44-13.04 4.4 2.44 8.02 5.72 10.8 9.52l-57.31 33.79c-4.34-9.35-4.31-20.57 1.07-30.27zm52.87-85.66c8.95-16.15 29.29-21.98 45.44-13.04 4.4 2.44 8.02 5.71 10.81 9.52l-57.34 33.8c-4.32-9.36-4.29-20.57 1.09-30.28zm59.06 1.1c4.82 9.56 4.99 21.24-.6 31.32-8.94 16.14-29.29 21.98-45.43 13.04a33.339 33.339 0 0 1-11.46-10.46l57.49-33.9zm-72.27 176.8c0-4.34 4.28-7.85 9.56-7.85s9.56 3.51 9.56 7.85v53c0 4.32-4.28 7.83-9.56 7.83s-9.56-3.51-9.56-7.83v-53zm-57.24 0c0-4.34 4.28-7.85 9.56-7.85s9.56 3.51 9.56 7.85v53c0 4.32-4.28 7.83-9.56 7.83s-9.56-3.51-9.56-7.83v-53zm-57.24 0c0-4.34 4.28-7.85 9.57-7.85 5.27 0 9.55 3.51 9.55 7.85v53c0 4.32-4.28 7.83-9.55 7.83-5.29 0-9.57-3.51-9.57-7.83v-53zm149.97 198.03c18.63 0 33.74 15.11 33.74 33.74 0 18.62-15.11 33.73-33.74 33.73-18.62 0-33.73-15.11-33.73-33.73 0-18.63 15.11-33.74 33.73-33.74zm-147.94 0c18.63 0 33.74 15.11 33.74 33.74 0 18.62-15.11 33.73-33.74 33.73-18.62 0-33.73-15.11-33.73-33.73 0-18.63 15.11-33.74 33.73-33.74z"/></svg>