<svg xmlns="http://www.w3.org/2000/svg" shape-rendering="geometricPrecision" text-rendering="geometricPrecision" image-rendering="optimizeQuality" fill-rule="evenodd" clip-rule="evenodd" viewBox="0 0 512 421.62"><path d="M149.06 0h84.36c15.76 0 28.67 12.9 28.67 28.67v91.75h91.76c14.26 0 26.18 10.56 28.32 24.25l-.85-.2-.1-.02c-36.18-8.4-72.51 21.89-70.59 58.35-24.04 10.28-45.76 28.46-59.94 50.44l-2.2 3.46c-3.9.81-7.56 1.95-10.94 3.4-25.37 10.84-39.6 38.2-34.4 65.41 3.99 20.72 18.99 38.17 39.12 44.66l1.11 2.34c.77 1.59 1.59 3.17 2.44 4.74a28.364 28.364 0 0 1-12.4 2.84h-84.36c-15.77 0-28.67-12.91-28.67-28.67v-89.29H28.67C12.9 262.13 0 249.22 0 233.45v-84.39c0-15.77 12.9-28.68 28.67-28.68h91.76V28.67C120.43 12.9 133.29 0 149.06 0zm219.17 255.59a7.27 7.27 0 0 1-5.54.68 7.33 7.33 0 0 1-4.42-3.45l-.03-.04a7.336 7.336 0 0 1-.67-5.55 7.251 7.251 0 0 1 3.44-4.42l.02-.01c4.93-2.8 10.17-6.18 14.74-10.18 7.06-6.2 12.16-13.68 13-23.14.27-3.07.04-6.11-.73-8.98-.76-2.84-2.05-5.49-3.89-7.83-1.74-2.2-3.98-4.13-6.76-5.66l-.08-.05c-8.47-4.72-17.84-2.17-23.03 5.93-.57.89-1.04 1.8-1.4 2.73-1.24 3.21-1.4 7 .94 9.77 1.77 2.12 3.65 2.87 6.36 2.84 1.2-.02 2.55-.2 4.05-.53 1.51-.34 3.19-.85 5.05-1.53l.15-.05a7.36 7.36 0 0 1 5.47.3 7.332 7.332 0 0 1 3.54 9.76c-.8 1.7-2.24 3.1-4.14 3.78-6.36 2.33-13.78 3.95-20.52 2.19-2.07-.54-3.97-1.36-5.69-2.47-2.27-1.45-4.16-3.15-5.69-5.02-7.17-8.71-6.33-20.6-.48-29.73 1.88-2.94 4.31-5.66 7.23-7.98 2.76-2.19 5.96-4.03 9.55-5.36l.11-.03c8.91-3.29 17.45-1.87 25.68 2.57l.09.05c4.55 2.54 8.27 5.75 11.18 9.44 3.09 3.93 5.25 8.38 6.52 13.11 1.19 4.46 1.58 9.15 1.18 13.85-.4 4.72-1.58 9.44-3.52 13.96-.32.75-.64 1.46-.97 2.13-.31.62-.67 1.31-1.06 2.05-1.56 2.82-3.42 5.49-5.52 8-2.1 2.5-4.46 4.87-7.05 7.11-2.48 2.15-5.17 4.2-8.02 6.15-2.86 1.95-5.89 3.81-9.06 5.6l-.03.01zm-43.2 97.04a6.657 6.657 0 0 1-1.84-4.76 6.74 6.74 0 0 1 2.08-4.69 6.596 6.596 0 0 1 4.77-1.84c1.71.04 3.41.74 4.69 2.08 26.16 27.49 51.11 23.98 77.88-.34a6.67 6.67 0 0 1 4.81-1.73c1.71.08 3.39.81 4.64 2.16v.01a6.614 6.614 0 0 1 1.74 4.8 6.72 6.72 0 0 1-2.16 4.65h-.01c-32.19 29.26-65.36 32.5-96.6-.34zm8.55-71.91c4.53 0 8.64 1.84 11.62 4.81 2.97 2.97 4.81 7.08 4.81 11.61 0 4.53-1.84 8.64-4.82 11.62a16.387 16.387 0 0 1-11.61 4.82c-4.54 0-8.65-1.85-11.62-4.82a16.384 16.384 0 0 1-4.81-11.62c0-4.53 1.84-8.64 4.81-11.61 2.97-2.97 7.08-4.81 11.62-4.81zm79.41 0c4.54 0 8.64 1.84 11.62 4.81 2.97 2.97 4.81 7.08 4.81 11.61 0 4.54-1.84 8.65-4.81 11.62-2.98 2.97-7.08 4.82-11.62 4.82-4.53 0-8.64-1.85-11.62-4.82a16.384 16.384 0 0 1-4.81-11.62c0-4.53 1.84-8.64 4.81-11.61a16.42 16.42 0 0 1 11.62-4.81zm1.36-39.8c-1.81-.8-3.13-2.29-3.8-4.02-.67-1.74-.69-3.74.08-5.57l.13-.29c.8-1.71 2.18-2.97 3.79-3.63 1.67-.68 3.6-.74 5.38.01l.15.08c24.6 11 44.96 30.25 55.51 55.23 1.75-.32 3.56-.49 5.34-.49 4.2 0 8.22.87 11.89 2.44 3.8 1.63 7.22 4.01 10.1 6.97l.01.01c2.85 2.95 5.15 6.47 6.72 10.38 1.52 3.77 2.35 7.89 2.35 12.2s-.83 8.43-2.35 12.2a32.229 32.229 0 0 1-6.72 10.38l-.02.02a31.321 31.321 0 0 1-10.09 6.96 30.166 30.166 0 0 1-11.89 2.44c-.51 0-1.07-.03-1.67-.06l-.19-.01c-3.03 10.15-7.74 19.67-13.83 28.31-6.47 9.17-14.51 17.34-23.78 24.19-9.87 7.31-21.14 13.12-33.36 17.08-11.8 3.8-24.49 5.87-37.7 5.87-13.18 0-25.86-2.07-37.66-5.88-12.24-3.95-23.51-9.77-33.39-17.07-9.27-6.86-17.32-15.04-23.79-24.22-6.09-8.62-10.79-18.13-13.82-28.28l-.19.01c-.6.03-1.16.06-1.67.06-4.2 0-8.22-.87-11.89-2.44-3.8-1.63-7.23-4.02-10.1-6.97-12.1-12.48-12.04-32.67.02-45.15l.01-.02c2.88-2.95 6.29-5.34 10.1-6.96a29.95 29.95 0 0 1 15.07-2.26c.73.08 1.45.19 2.15.31a97.544 97.544 0 0 1 7.96-15.06 102.91 102.91 0 0 1 11.6-14.81c4.97-5.28 10.53-10.09 16.57-14.36 6-4.23 12.49-7.92 19.39-11l.15-.06c1.79-.76 3.7-.71 5.37-.03 1.65.68 3.06 1.99 3.86 3.77l.06.15c.78 1.83.75 3.83.08 5.57l-.04.1c-.69 1.71-2 3.15-3.77 3.94l-.09.03c-5.97 2.67-11.6 5.89-16.82 9.57-5.27 3.73-10.12 7.93-14.43 12.53-4.23 4.5-7.97 9.39-11.14 14.59-3.1 5.1-5.65 10.5-7.57 16.16l-.13.39c-.1.25-.19.5-.31.74-.28.59-.63 1.12-1.03 1.59-.77.89-1.74 1.58-2.79 2-1.67.67-3.58.71-5.35-.05-6.61-2.83-13.67-1.67-18.67 3.51l-.01.01c-6.6 6.76-6.45 17.84.01 24.57 1.52 1.57 3.36 2.84 5.4 3.71 3.42 1.47 7.73 1.75 11.34.55.21-.07.45-.13.67-.19 1.9-.41 3.79-.01 5.33.99 1.52.99 2.68 2.56 3.13 4.49l.02.12c2.19 9.99 6.28 19.39 11.92 27.85 5.79 8.67 13.2 16.38 21.88 22.78 8.64 6.4 18.53 11.49 29.31 14.96 10.39 3.34 21.61 5.15 33.34 5.15 11.71 0 22.92-1.81 33.31-5.15 10.78-3.46 20.68-8.56 29.33-14.96 8.65-6.4 16.06-14.11 21.84-22.77 5.64-8.44 9.72-17.8 11.92-27.76l.07-.33.11-.38a7.276 7.276 0 0 1 3.46-4.26c1.14-.63 2.44-.93 3.75-.86 5.25.24 6.07 2.78 13.12-.23 4.12-1.75 7.37-5.18 9.03-9.33 2.58-6.44 1.17-13.95-3.63-18.96a16.5 16.5 0 0 0-5.41-3.72c-2.33-1-4.74-1.42-7.12-1.3-3.46.16-6.15 2.07-8.9 2.07a7.19 7.19 0 0 1-3.13-.73 7.282 7.282 0 0 1-3.57-4.04l-.06-.17a82.25 82.25 0 0 0-7.61-16.33c-9.94-16.37-25.21-29.1-42.64-36.88z"/></svg>