<svg xmlns="http://www.w3.org/2000/svg" shape-rendering="geometricPrecision" text-rendering="geometricPrecision" image-rendering="optimizeQuality" fill-rule="evenodd" clip-rule="evenodd" viewBox="0 0 512 512"><path fill="#fff" fill-rule="nonzero" d="M416.64 384.14 117.15 104.52c16.48-15.13 35.43-27.61 56.2-36.73 23.14-10.17 48.65-16.2 75.61-17.13 27.88-.95 54.6 3.66 79.09 12.83 25.42 9.52 48.54 24.01 68.17 42.33 19.62 18.32 35.66 40.4 46.9 65.11 10.83 23.8 17.26 50.15 18.22 78.03.92 26.95-3.35 52.81-11.91 76.6-7.68 21.34-18.83 41.1-32.79 58.58zM84.35 143.02 380.48 419.5a204.932 204.932 0 0 1-49.99 28.08c-20.92 8.13-43.61 12.94-67.45 13.76-27.87.95-54.59-3.66-79.09-12.83-25.41-9.52-48.54-24.01-68.17-42.34-19.62-18.32-35.66-40.4-46.9-65.1-10.83-23.81-17.26-50.15-18.22-78.03h-.04c-.82-23.75 2.44-46.72 9.15-68.23 5.76-18.48 14.09-35.88 24.58-51.79z"/><path d="M369.03 143.11c17.75 17.74 12.12 52.15-12.57 76.84-20.33 20.34-47.27 27.74-66.05 19.8-15.27 1.58-28.29 7.47-35.28 15.57-29.33 33.94 1.38 50.67-34.41 84.07-12.09 11.26-27.9 18.94-43.57 19.79-6.08.34-12.19-.09-18.31-1.38 40.26-6.66 57.11-23.68 64.05-41.62 10.07-26.04-3.35-41.25 16.24-65.7 9.38-11.72 20.93-20.26 34.35-26.43-9.63-18.83-2.49-47.18 18.7-68.37 24.7-24.7 59.1-30.32 76.85-12.57zm-109.51-35.76c11.1 11.1 7.58 32.62-7.86 48.07-12.72 12.72-29.57 17.35-41.32 12.38-9.55 1-17.7 4.68-22.07 9.74-18.35 21.24.87 31.71-21.53 52.59-7.56 7.05-17.45 11.85-27.25 12.39-3.8.2-7.63-.06-11.45-.87 25.18-4.16 35.72-14.81 40.06-26.03 6.3-16.29-2.09-25.81 10.16-41.1 5.87-7.33 13.1-12.67 21.49-16.53-6.03-11.78-1.56-29.52 11.7-42.78 15.45-15.44 36.97-18.96 48.07-7.86zm146.16 146.16c-11.11-11.11-32.63-7.59-48.08 7.86-12.72 12.72-17.35 29.56-12.38 41.31-.99 9.56-4.67 17.7-9.74 22.08-21.24 18.34-31.7-.87-52.59 21.52-7.05 7.56-11.85 17.45-12.38 27.26-.21 3.8.06 7.62.86 11.45 4.17-25.19 14.82-35.73 26.04-40.07 16.29-6.3 25.8 2.1 41.1-10.16 7.33-5.86 12.67-13.09 16.53-21.48 11.78 6.02 29.51 1.55 42.77-11.71 15.45-15.44 18.97-36.97 7.87-48.06z"/><path fill="#D92D27" fill-rule="nonzero" d="M247.22.15c-34.59 1.19-67.39 9.22-97.14 22.76A256.247 256.247 0 0 0 68.89 81.3a256.362 256.362 0 0 0-52.69 85.01C4.73 196.92-1.03 230.19.15 264.78c1.19 34.59 9.22 67.39 22.76 97.13a256.331 256.331 0 0 0 58.39 81.21 256.336 256.336 0 0 0 85.01 52.68c30.6 11.47 63.88 17.23 98.47 16.05 34.59-1.19 67.38-9.22 97.14-22.76a256.374 256.374 0 0 0 81.19-58.38 256.507 256.507 0 0 0 52.69-85.02c11.47-30.61 17.23-63.88 16.05-98.47-1.19-34.59-9.22-67.39-22.76-97.14a256.401 256.401 0 0 0-58.39-81.2 256.499 256.499 0 0 0-85.01-52.68C315.08 4.73 281.81-1.03 247.22.15zM84.35 143.02 380.48 419.5a204.932 204.932 0 0 1-49.99 28.08c-20.92 8.13-43.61 12.94-67.45 13.76-27.87.95-54.59-3.66-79.09-12.83-25.41-9.52-48.54-24.01-68.17-42.34-19.62-18.32-35.66-40.4-46.9-65.1-10.83-23.81-17.26-50.15-18.22-78.03h-.04c-.82-23.75 2.44-46.72 9.15-68.23 5.76-18.48 14.09-35.88 24.58-51.79zm332.29 241.12L117.15 104.52c16.48-15.13 35.43-27.61 56.2-36.73 23.14-10.17 48.65-16.2 75.61-17.13 27.88-.95 54.6 3.66 79.09 12.83 25.42 9.52 48.54 24.01 68.17 42.33 19.62 18.32 35.66 40.4 46.9 65.11 10.83 23.8 17.26 50.15 18.22 78.03.92 26.95-3.35 52.81-11.91 76.6-7.68 21.34-18.83 41.1-32.79 58.58z"/></svg>