<svg id="Layer_1" data-name="Layer 1" xmlns="http://www.w3.org/2000/svg" viewBox="0 0 99.43 122.88"><defs><style>.cls-1{fill-rule:evenodd;}</style></defs><title>dental-treatment</title><path class="cls-1" d="M31.22,0h0a9.6,9.6,0,0,1,9.57,9.42H53.14a7.06,7.06,0,0,1,5.55-3L91.44,3.29c10.31-1,11,19.51,0,18.47L58.69,18.65A7.21,7.21,0,0,1,53.43,16H40.79v3.08a1,1,0,0,1-1,1H34.52v6.54h1.4a3.31,3.31,0,0,1,0,6.61h-9.4a3.31,3.31,0,1,1,0-6.61h1.39V20.12H22.65a1,1,0,0,1-1-1V9.58A9.61,9.61,0,0,1,31.22,0ZM4.62,41.29a14.56,14.56,0,0,1,8.26-3.92,23.21,23.21,0,0,1,10.21,1.08l.19.07c1.81.58,3.23,1.07,4.39,1.48A15.5,15.5,0,0,0,32,41.17c1.17,0,2.73-.56,6.11-1.77l2.38-.86a26,26,0,0,1,9-1.58,15.69,15.69,0,0,1,7.78,2.11,13,13,0,0,1,5.91,7.52,24.82,24.82,0,0,1,.77,8.72A51.81,51.81,0,0,1,61.7,67.83,56.06,56.06,0,0,1,56.87,79,95.35,95.35,0,0,1,58,96.81a80.37,80.37,0,0,1-1.74,14.28c-1,4.46-2.38,7.94-4,9.78a5,5,0,0,1-3.46,1.93A4.43,4.43,0,0,1,45.06,121c-1.37-1.65-2.61-4.83-3.5-9.86-.23-1.32-.38-2.82-.44-3.52l-.06-.6c-.89-9.11-1.78-18.08-9.25-18.27-3.61.85-5.51,2.55-6.56,5C24,96.67,23.72,100.88,23.37,106l-.16,2.09c-.09,1-.21,2.07-.36,3-.84,5.1-2.09,8.33-3.5,10a4.51,4.51,0,0,1-3.76,1.8A5,5,0,0,1,12.11,121c-1.61-1.83-3-5.3-3.9-9.83A101.09,101.09,0,0,1,6.67,96.77c-.24-5.14-.27-11.12,0-17.86A96.83,96.83,0,0,1,2.92,69,64,64,0,0,1,.5,58.27a30.58,30.58,0,0,1-.3-8.64,14.1,14.1,0,0,1,4.42-8.34Zm8.94,1a9.73,9.73,0,0,0-5.51,2.6,9.31,9.31,0,0,0-3,5.5,26.81,26.81,0,0,0,.29,7.27,59.36,59.36,0,0,0,2.25,9.92,97.1,97.1,0,0,0,3.76,9.89,2.45,2.45,0,0,1,.21,1.08c-.27,6.83-.24,12.87,0,18a96.05,96.05,0,0,0,1.46,13.65c.7,3.6,1.67,6.22,2.69,7.44.8-1.11,1.57-3.48,2.21-7.37.14-.81.24-1.78.32-2.62l.14-2c.38-5.59.71-10.16,2.27-13.85,1.71-4.07,4.7-6.78,10.29-8l.52,0C43.73,83.73,44.85,95,46,106.51l.06.6c.05.58.17,1.83.4,3.14.68,3.82,1.44,6.15,2.21,7.29,1-1.27,2-3.93,2.78-7.49a75.31,75.31,0,0,0,1.64-13.4,91.26,91.26,0,0,0-1.21-17.72,2.44,2.44,0,0,1,.3-1.64A52,52,0,0,0,57,66.39a46.68,46.68,0,0,0,2-11.33,20.38,20.38,0,0,0-.55-7,8.26,8.26,0,0,0-3.75-4.75,10.77,10.77,0,0,0-5.32-1.41,21,21,0,0,0-7.22,1.31l-2.37.85c-3.93,1.4-5.75,2-7.77,2-1.8,0-3.24-.51-5.92-1.44-1.14-.4-2.54-.88-4.3-1.44l-.17,0a18.55,18.55,0,0,0-8-.92Zm35,75.6h0c-.08,0-.12,0,0,0Zm-32.68.07c.08,0,0,0,0,0Z"/></svg>