<svg id="Layer_1" data-name="Layer 1" xmlns="http://www.w3.org/2000/svg" viewBox="0 0 122.88 118.79"><title>dental-clinic</title><path d="M89.26,37.84a2.16,2.16,0,0,1,0-4.32h28.9L100.68,5.68l-.48-.83a1.78,1.78,0,0,1-.19-.53H22.76c-.23,0,.07.28-.1.58l-.46.78L4.73,33.52H34.48a2.16,2.16,0,1,1,0,4.32H11.42v76.63H45V84.18a9,9,0,0,1,9-9H68.82a9,9,0,0,1,9,9v30.29h33.62V37.84ZM59.59,20.44h3.7a1.26,1.26,0,0,1,1.25,1.26v3.8h3.81a1.26,1.26,0,0,1,1.25,1.26v3.69a1.25,1.25,0,0,1-1.25,1.25H64.54v3.7a1.25,1.25,0,0,1-1.25,1.25h-3.7a1.25,1.25,0,0,1-1.25-1.25V31.7h-3.8a1.25,1.25,0,0,1-1.26-1.25v-3.7a1.25,1.25,0,0,1,1.26-1.25h3.8V21.7a1.26,1.26,0,0,1,1.25-1.26ZM48.19,9.35a20,20,0,0,1,9,1.29c4.39,1.5,3.79,1.67,8.21.09a23,23,0,0,1,8.17-1.65c5.6.13,9.21,3.68,9.6,9.25a44,44,0,0,1-1.48,13,34.85,34.85,0,0,1-1.42,3.84,38.44,38.44,0,0,1-1.78,3.58c.34,2.16.55,4.22.67,6.16s.14,3.9.08,5.68a24.42,24.42,0,0,1-.41,3.5c-.2,1.6-.46,3.06-.74,4.37A25.47,25.47,0,0,1,77,62.34,9.68,9.68,0,0,1,75.48,65l0,0a4.06,4.06,0,0,1-1,.86,5.72,5.72,0,0,1-1.78.38h0A2.65,2.65,0,0,1,71.28,66a3.49,3.49,0,0,1-1.14-.93,8.55,8.55,0,0,1-1.34-2.59,25.38,25.38,0,0,1-1-4c-.15-.85-.25-1.82-.29-2.29l0-.47A22,22,0,0,0,66,48.84c-1.36-3.46-4.5-4.72-7.49-2.35a5.25,5.25,0,0,0-1.55,2.1,14.44,14.44,0,0,0-.84,3.48,26.76,26.76,0,0,0-.4,3v.1c0,.24-.05.72-.11,1.35s-.13,1.35-.23,1.95a24.72,24.72,0,0,1-1,4A8,8,0,0,1,53,65.11v0a3.45,3.45,0,0,1-1.13.9,2.76,2.76,0,0,1-1.35.28h0a5.65,5.65,0,0,1-1.77-.37,3.91,3.91,0,0,1-1.06-.88,9.25,9.25,0,0,1-1.51-2.67,22.93,22.93,0,0,1-1.08-3.86c-.24-1.23-.46-2.68-.63-4.33s-.3-1.68-.39-3.6c-.08-1.76-.13-3.68-.13-5.74s0-4,.11-6.14c-.46-1.06-.9-2.13-1.31-3.21s-.81-2.24-1.17-3.37c-1.07-3.46-2.35-11-1.8-14.64a9.77,9.77,0,0,1,8.42-8.15Zm.45,3.22A6.5,6.5,0,0,0,43,18v0c-.6,4,1.4,12.71,2.84,16.47.42,1.1.88,2.2,1.36,3.29a1.69,1.69,0,0,1,.1.34,2.19,2.19,0,0,1,0,.36q-.14,3.34-.13,6.28c0,2,.05,4,.14,5.72h0c.08,1.82.21,1.84.36,3.34s.37,2.92.6,4.11a21.1,21.1,0,0,0,.86,3.15,6.3,6.3,0,0,0,1.5,1.83,6.11,6.11,0,0,0,.74-1.64A22.85,22.85,0,0,0,52.14,58c.17-1,.27-2.51.31-3v-.09a29.18,29.18,0,0,1,.45-3.37A16.74,16.74,0,0,1,54,47.32l0,0A8.45,8.45,0,0,1,56.42,44,8.88,8.88,0,0,1,57.84,43a7.59,7.59,0,0,1,7.79,0,8,8,0,0,1,3.11,3.76,24.34,24.34,0,0,1,2,8.6l0,.44c0,.39.12,1.22.26,2a26.57,26.57,0,0,0,.78,3.29,6.8,6.8,0,0,0,.71,1.59A6.56,6.56,0,0,0,74,61a23.34,23.34,0,0,0,.91-3.19c.27-1.26.51-2.63.7-4.1A21.76,21.76,0,0,0,76,50.52c.06-1.72,0-3.57-.09-5.54s-.36-4-.71-6.21a1.62,1.62,0,0,1,0-.58,1.67,1.67,0,0,1,.2-.54,29.54,29.54,0,0,0,1.83-3.59A38.85,38.85,0,0,0,80,18.63a9.2,9.2,0,0,0-.38-2.2v0c-.86-2.72-3.33-4-6-4.08a20.45,20.45,0,0,0-7,1.44c-1.28.46-2.22.8-3,1a7.39,7.39,0,0,1-2.15.35,12.94,12.94,0,0,1-3.91-.95c-2.67-.93-6-2-8.89-1.6Zm5.71,83.25a2.13,2.13,0,1,1-2.12,2.12,2.12,2.12,0,0,1,2.12-2.12Zm-5,18.65H73.53V84.18a4.73,4.73,0,0,0-4.71-4.71H54.06a4.73,4.73,0,0,0-4.71,4.71v30.29ZM88.14,81.71h14.79V98.8H88.14V81.71Zm0-30.86h14.79V67.94H88.14V50.85ZM20,81.71H34.74V98.8H20V81.71Zm0-30.86H34.74V67.94H20V50.85ZM7.1,37.84H4.69A5.34,5.34,0,0,1,2,37,4.84,4.84,0,0,1,.72,35.86a3.37,3.37,0,0,1-.72-2,3.07,3.07,0,0,1,.5-1.67L18.56,3.39l.32-.57C19.7,1.35,20.44,0,22.76,0h77.36c2.31,0,3.06,1.35,3.88,2.82l.32.57,18.07,28.77a3.07,3.07,0,0,1,.49,1.66,3.38,3.38,0,0,1-.72,2A4.82,4.82,0,0,1,120.89,37a5.34,5.34,0,0,1-2.7.83h-2.4v78.79a2.16,2.16,0,0,1-2.16,2.16H9.26a2.16,2.16,0,0,1-2.16-2.16V37.84Z"/></svg>