<svg id="Layer_1" data-name="Layer 1" xmlns="http://www.w3.org/2000/svg" viewBox="0 0 122.74 122.87"><defs><style>.cls-1{fill-rule:evenodd;}</style></defs><title>digital-thermometer</title><path class="cls-1" d="M21.12,114.73l-5.45,5.46a9.2,9.2,0,0,1-13,0h0a9.2,9.2,0,0,1,0-13l5.46-5.46,13,13ZM72.5,39.32l11,11a3,3,0,0,1,0,4.22L56.68,81.46a3,3,0,0,1-4.22,0l-11.05-11a3,3,0,0,1,0-4.22L68.28,39.32a3,3,0,0,1,4.22,0ZM56.66,89.68l53.47-53.47L86.65,12.73,33.18,66.2c-3.63,3.93-3.85,7.2-4.08,10.68A28,28,0,0,1,28,83.7c-1.67,5.48-8.21,11.86-13.18,16.59L22.56,108c4.67-4.88,11.54-11.84,16.36-13.23a32.49,32.49,0,0,1,6.54-1c3.94-.32,7.92-.64,11.17-4l0,0ZM94.43,28.43a8.66,8.66,0,1,1-12.24,0,8.65,8.65,0,0,1,12.24,0Zm18.36,5.13,1.62-1.62a14.6,14.6,0,0,0,3.09-17,19.77,19.77,0,0,0-4-5.78,19.35,19.35,0,0,0-5.72-4c-5.27-2.36-11.57-2-16.85,3.29l-1.62,1.62,23.48,23.48Zm4.27,1L59.32,92.34h0c-4.25,4.43-8.92,4.81-13.56,5.19a29.58,29.58,0,0,0-5.8.84c-4.2,1.21-11.31,8.68-15.68,13.27l-1.66,1.74L9.48,100.23l2.15-2C16.36,93.69,23,87.37,24.45,82.61a25.47,25.47,0,0,0,.91-6c.28-4.18.54-8.1,5.12-13l.05-.06L88.27,5.8c6.57-6.56,14.44-7,21-4a23,23,0,0,1,6.86,4.77,23.56,23.56,0,0,1,4.76,6.88c3,6.7,2.63,14.71-3.86,21.19ZM54.74,74.66h0l-2.51-2.5a1.74,1.74,0,0,1-.46-.81,2,2,0,0,1,0-.9,1.75,1.75,0,0,1,.46-.8l3.92-3.92a.14.14,0,0,0,.05-.11.14.14,0,0,0-.05-.1l-1.37-1.37a.14.14,0,0,0-.11-.05.16.16,0,0,0-.11.05L50.69,68a.15.15,0,0,0,0,.22l.44.44L50,69.87l-.49-.49a1.6,1.6,0,0,1-.47-.81,1.83,1.83,0,0,1,0-.9,1.64,1.64,0,0,1,.46-.79l4-4a1.75,1.75,0,0,1,.8-.46,1.83,1.83,0,0,1,.9,0,1.86,1.86,0,0,1,.81.47l1.47,1.47a1.79,1.79,0,0,1,.45.79,1.76,1.76,0,0,1,0,.91,1.63,1.63,0,0,1-.45.81l-3.92,3.92a.12.12,0,0,0,0,.11.11.11,0,0,0,0,.1l1.15,1.16a.14.14,0,0,0,.11,0,.15.15,0,0,0,.11,0L60,67l1.19,1.19-6.47,6.47Zm9-9a1.61,1.61,0,0,1-.8.45,2,2,0,0,1-.9,0,1.61,1.61,0,0,1-.8-.45l-.43-.43L62,64l.38.38a.15.15,0,0,0,.22,0l3.87-3.87a.15.15,0,0,0,0-.22L65.17,59A.15.15,0,0,0,65,59l-5.17,5.17L56,60.36l6.47-6.47,1.19,1.18-5.18,5.18a.14.14,0,0,0,0,.11.12.12,0,0,0,0,.1l1.2,1.2a.15.15,0,0,0,.22,0l3.92-3.92a1.77,1.77,0,0,1,2.5,0l1.43,1.43a1.61,1.61,0,0,1,.45.8,2,2,0,0,1,0,.9,1.61,1.61,0,0,1-.45.8l-4,4Zm7.78-7.78a1.54,1.54,0,0,1-.82.44,1.88,1.88,0,0,1-.94,0,1.74,1.74,0,0,1-.8-.46l-4-4a1.72,1.72,0,0,1-.47-.81,2,2,0,0,1,0-.92,1.65,1.65,0,0,1,.45-.8l4-4a1.63,1.63,0,0,1,.8-.44,2,2,0,0,1,.92,0,1.8,1.8,0,0,1,.81.47l4,4a1.72,1.72,0,0,1,.46.81,2,2,0,0,1,0,.94,1.55,1.55,0,0,1-.44.81l-4,4Zm2.6-5.11.06-.06a.15.15,0,0,0,0-.22l-2.85-2.85h0l-.86-.86a.35.35,0,0,0-.5,0L66.4,52.36v0l-.13.12a.17.17,0,0,0,0,.22l.12.11,0,0L70,56.44a.35.35,0,0,0,.5,0l3.59-3.59a.23.23,0,0,0,.07-.1Z"/></svg>