<svg id="Layer_1" data-name="Layer 1" xmlns="http://www.w3.org/2000/svg" viewBox="0 0 122.88 93.72"><defs><style>.cls-1{fill-rule:evenodd;}</style></defs><title>dog-urinate</title><path class="cls-1" d="M86.44,8.84c17.74-19.16,20.73-1.76,33.79,1.91,1.58.43,2.76.54,2.64,1.29-1.14,7.51-3.59,8.92-6.32,9-3,.08-5.47,0-7.29.89a13.54,13.54,0,0,0-5.21,4.18L85.49,16.65a30.61,30.61,0,0,0,1-7.81ZM63.89,78.69a1.4,1.4,0,1,1-1.76,2.18l-.24-.18a4.12,4.12,0,0,0-4-.45,12.8,12.8,0,0,0-5.18,4.19c-.31.38-.63.79-.94,1.24a1.4,1.4,0,0,1-2.39-1.46c1-2.27,1.15-6.47.43-11.19a44.71,44.71,0,0,0-4.41-13.83,1.4,1.4,0,1,1,2.47-1.32A47.7,47.7,0,0,1,52.61,72.6,37.46,37.46,0,0,1,53,80,12.34,12.34,0,0,1,57,77.61a6.79,6.79,0,0,1,6.55.79l.38.29Zm3.81,7.8a1.61,1.61,0,1,0,.79,2.13,1.6,1.6,0,0,0-.79-2.13Zm-.8-4.78a1.61,1.61,0,1,0,.8,2.13,1.6,1.6,0,0,0-.8-2.13Zm35.22-52c-4,10.53,1.32,26.19-16.35,32A104.42,104.42,0,0,0,86,88.58l2.15-.23c3.87-.42,3.83,3.1,2,5.36H78.73C77.9,83,75.82,71.2,76.68,61c-6,1.61-9.64,1.18-16.18-1.31-3.17-1.21-16.27-9-19.81-5.85-2,1.8,3.33,9-9.84,21.73l.23,12.61h2.23c3.38,0,3.19,3.38,2,5.58H28.77c-4.33,0-3.42.46-3.47-4.09l-.11-9.82-.69-6.08c0-3.62,2.61-7.48.13-16.11C23,51.9,23.12,47.36,18.83,46.73c-2,4-2.45,4.58-4.33,8.5S6.71,61.62,5.05,65.8c-.23.57-.54,1.11-.82,1.67-3.81,8.78-5.41,2.18-3.27-3L2.38,61c.81-3.25,6.41-6.34,8.2-10.79,2.27-5.66,3.57-7.92,6.29-10.79C35.21,20,72.37,38.33,83.33,21.59l18.79,8.13Z"/></svg>