<svg id="Layer_1" data-name="Layer 1" xmlns="http://www.w3.org/2000/svg" viewBox="0 0 98.44 122.88"><defs><style>.cls-1{fill-rule:evenodd;}</style></defs><title>dosage</title><path class="cls-1" d="M89.62,36.27l-1-1,5.74-5.75a14,14,0,0,0,0-19.77L88.7,4.08a14,14,0,0,0-19.77,0L63.18,9.82l-1-1a3.59,3.59,0,0,0-5.07,0l-2,2a3.6,3.6,0,0,0,0,5.08l3.34,3.34-39,39.05c-4.47,4.47-3.86,3.82-5.47,10C12.25,74.61,11.18,79,11.06,82L9.35,89.4C8.81,91.76,6.76,95,4.87,97.93,2.33,101.9,0,105.54,0,109a13.15,13.15,0,0,0,7.4,12.31,14.9,14.9,0,0,0,5.91,1.55,15.47,15.47,0,0,0,6-.88,13.1,13.1,0,0,0,8.82-11.24l0-.25c.3-4.89-2.35-8.92-5.14-13.18h0c-1.74-2.65-3.57-5.43-4.15-7.92L18.3,87c2.86-.35,6.66-1.19,11.59-2.3,7.15-1.59,6.06-.86,11.22-6L79.46,40.3l3.07,3.06a3.59,3.59,0,0,0,5.07,0l2-2a3.59,3.59,0,0,0,0-5.07ZM50.77,62.11,36.52,47.86,57.27,27.11,71.52,41.36,50.77,62.11ZM14.11,90.48c1.71,7.33,9.53,13.64,9.16,19.72C22.08,121,4.89,120.59,4.89,109c0-4.13,7.75-12.15,9.22-18.52Z"/></svg>