<svg xmlns="http://www.w3.org/2000/svg" shape-rendering="geometricPrecision" text-rendering="geometricPrecision" image-rendering="optimizeQuality" fill-rule="evenodd" clip-rule="evenodd" viewBox="0 0 512 199.56"><path d="M359.87 66.59c14.54 1.84 20.21-21.97 2.92-25.34l-123.6-12.67c-8.14-.94-15.89-.94-23.17-.86-50.36.52-51.31 45.5-4.07 37.74l-6.58-1.56c-3.35-.8-6.08-2.89-7.77-5.62a12.54 12.54 0 0 1-1.6-9.19l.11-.47c.83-3.27 2.89-5.92 5.57-7.58 2.68-1.65 5.98-2.31 9.26-1.59l35.38 8.41 44.81.41a12.48 12.48 0 0 1 12.36 12.5l56.38 5.82zm-229.75 3.42v7.69h235.8l10.86-10.99c5.58-5.66 10.88-13.48 17.77-17.37 5.53-3.13 11.54-5.28 21.5-4.85 3.64 0 7.5.41 11.15.76l4.25.37c16.72 1.07 24.5 9.87 30.58 16.71 2.68 3.04 4.99 5.62 7.5 6.82 1.19.56 3.04-.23 5.15-1.11l15.46-5.74 10.3-4.13v-.05c3.39-1.14 6.96.67 9.31 3.49.87 1.49 1.5 2.99 1.86 4.49.35 1.47.47 2.95.33 4.45-1.89 4.67-5.36 6.35-9.28 9.08a86.92 86.92 0 0 1-12.15 5.14c-2.23.83-4.5 1.6-6.78 2.31-2.29.71-4.59 1.36-6.9 1.93-1.94.43-3.93.65-5.91.65-6.61 0-12.99-2.39-17.97-6.73-1.85-1.58-3.63-3.3-5.3-5.09l-.51-.55-9.16 25.82c3.5 2.36 7.18 4.48 10.95 6.34 11.82 5.52 21.54 10.08 23.63 28.65.38 3.24.21 26.17 0 35.56h-21.37c.21-10.54.44-29.34.27-32.21-.14-2.05-1.52-7.47-3.68-8.46-2.88-1.24-5.86-2.37-8.85-3.3-4.18-1.38-7.6-2.78-11.74-3.92-3.03 10-7.11 22.06-11.5 33.56L408.91 179h-23.16c2.14-5.75 7-21.22 9.16-27.38 4.45-12.75 8.72-25.83 11.85-36.23a33.322 33.322 0 0 1-4.88-7.68 17.25 17.25 0 0 1-1.58-7.21c0-.97.09-1.93.25-2.88l11.17-32.01c-2.36-.12-5.08-.82-7.3.15-4.3 1.89-10.63 11.06-14.39 14.82l-5.02 5.1c-3.3 3.33-5.66 6.97-9.94 7.69-.31.17-.66.27-1.02.27h-42.49v65.82l-.01.4a15.08 15.08 0 0 1 3.81 10.04c0 8.36-6.78 15.14-15.14 15.14s-15.14-6.78-15.14-15.14c0-7.87 6.01-14.33 13.68-15.07V143L269.4 93.64h-58.85v65.82l-.01.4a15.08 15.08 0 0 1 3.81 10.04c0 8.36-6.78 15.14-15.14 15.14s-15.13-6.78-15.13-15.14c0-7.87 6-14.33 13.68-15.07V143L148.4 93.64h-25.37l-.49.5c-.14.14-.32.25-.5.31-13.59 4.43-19.2 7.74-33.47 5.51-.08-.02-.15-.05-.22-.08-7.47-2.9-11.33-6.92-15.11-10.86l-.55-.58-19.54 30.38c4.26 2.68 8.52 4.67 12.54 6.55 12.22 5.69 22.26 10.38 24.42 29.56.39 3.44.21 6.69.02 10.21l-.01.06c-.02.51-.05 1.06-.11 2.37l-1.49 28.36c-.02.73-.63 1.29-1.36 1.26l-18.89.06c-.72 0-1.31-.59-1.31-1.31.21-12.81.58-17.41 1.23-30.2l.09-1.72c.11-2.01.22-3.86.1-5.58-.1-1.64-.4-3.19-1.08-4.67l-.18-.39c-.75-1.66-1.45-3.19-2.5-3.68-2.08-.97-5.39-2.18-9.15-3.41-4.31-1.42-9.13-2.86-13.37-4.06-3.11 10.33-1.21 24.59-5.74 36.45-4.9 9.81-8.03 12.58-13.96 20.06-.24.47-.73.73-1.23.71l-19.85.11c-.72 0-1.32-.59-1.32-1.31 0-2.63 12.2-19.86 14.86-27.47 4.6-13.18 2.88-28.41 6.13-39.2-1.93-2.37-3.78-5.02-5.04-7.94-1.4-3.21-2.07-6.72-1.37-10.46 1.86-10.07 8.62-19.73 14.6-29.35 14.15-22.77 21.11-53.26 58.86-10.85 2.77 3.12 5.17 5.81 7.75 7.04 2.09 1 14.87-4.4 18.39-5.91v-4.1c0-1.19.98-2.18 2.19-2.18h11.56c1.21 0 2.19.98 2.19 2.18zM76.4 11.74a20.59 20.59 0 0 1 15.79 1c4.76 2.33 8.62 6.48 10.47 11.88a20.59 20.59 0 0 1-1 15.79 20.658 20.658 0 0 1-11.88 10.47c-5.4 1.84-11.03 1.32-15.79-1-4.76-2.34-8.62-6.48-10.47-11.88a20.636 20.636 0 0 1 1.01-15.79c2.33-4.76 6.47-8.62 11.87-10.47zM430.97 1.08C433.05.36 435.24 0 437.45 0c11.04 0 20.01 8.96 20.01 20.01s-8.97 20.01-20.01 20.01c-11.05 0-20.02-8.96-20.02-20.01 0-3.05.71-6.07 2.05-8.81 2.33-4.77 6.47-8.41 11.49-10.12zM279.74 93.64l39.02 39.03V93.64h-39.02zm43.68 71.97c-.69-.19-1.34-.5-1.91-.9-.42-.1-.85-.16-1.29-.16a5.35 5.35 0 0 0-5.35 5.35c0 2.96 2.39 5.35 5.35 5.35a5.35 5.35 0 0 0 3.2-9.64zM158.73 93.64l39.03 39.03V93.64h-39.03zm43.68 71.97c-.69-.19-1.33-.5-1.91-.9-.41-.1-.84-.16-1.29-.16a5.35 5.35 0 1 0 0 10.7c2.96 0 5.36-2.39 5.36-5.35 0-1.75-.85-3.31-2.16-4.29zm-52.22-139.4c12.12 0 21.95 9.83 21.95 21.96 0 12.12-9.83 21.95-21.95 21.95-12.13 0-21.96-9.83-21.96-21.95 0-12.13 9.83-21.96 21.96-21.96zm56.06 33.98a8.71 8.71 0 0 1-6.47-10.5c1.11-4.69 5.81-7.59 10.49-6.48l35.53 8.45 45.27.41c4.8.04 8.66 3.96 8.62 8.76-.04 4.8-3.96 8.66-8.76 8.63l-45.66-.42c-.88.07-1.78 0-2.68-.21l-36.34-8.64z"/></svg>