<svg id="Layer_1" data-name="Layer 1" xmlns="http://www.w3.org/2000/svg" viewBox="0 0 114.28 122.88"><title>endoscopy</title><path d="M61.28,2.17a2.2,2.2,0,0,1,4.4.06,56.38,56.38,0,0,0,.84,10.51,53,53,0,0,0,2,7.67,28.59,28.59,0,0,1,8.77-3.89A22.45,22.45,0,0,1,92.18,18a31.44,31.44,0,0,1,11.7,9.72,48.43,48.43,0,0,1,8.3,17.76,79.25,79.25,0,0,1,2,22.82,78.9,78.9,0,0,1-4.4,22.45A56,56,0,0,1,102.41,105a38.77,38.77,0,0,1-10.27,9.72c-.6.38-1.26.78-2,1.18a61.17,61.17,0,0,1-26.39,7c-10,.26-19.45-2.44-24.55-10.34-.22-.33-.44-.71-.67-1.12-.6-1.08-1.1-2.12-1.59-3.16-1.32-2.79-2.68-5.65-5.67-8.14a10.41,10.41,0,0,0-3.63-2,11.16,11.16,0,0,0-4.27-.39c-4.53.42-7,2.25-9.32,4A19.33,19.33,0,0,1,8,105.12a6.42,6.42,0,0,1-1,.24,5.7,5.7,0,0,1-1,.08,4.91,4.91,0,0,1-4.51-2.73,13.39,13.39,0,0,1-1.38-6v-.08h0c0-1,0-1.41,0-1.8-.1-3.72-.14-5,3.65-8.39A21.55,21.55,0,0,1,5.4,85a22.41,22.41,0,0,1,1.87-1.24A31.88,31.88,0,0,1,10.72,82c1.16-.52,2.44-1,3.83-1.53,9.59-3.46,15.24-1.55,20.58.26,3.19,1.08,6.25,2.12,10,1.61s6.82-3.23,9.17-6.8a25.3,25.3,0,0,0,4.27-14.17c-.37-7.37-3.18-13.45-6.32-20.23C48.34,32.69,44,23.26,42.78,8.92l-.33-3.79a2.21,2.21,0,0,1,4.4-.36l.33,3.79c1.13,13.57,5.32,22.62,9,30.69,3.32,7.18,6.3,13.62,6.71,21.86a30,30,0,0,1-5,16.81c-3,4.54-7.22,8-12.27,8.74-4.75.64-8.28-.55-12-1.8-4.65-1.57-9.55-3.24-17.69-.3-1.2.43-2.36.9-3.5,1.41a27.79,27.79,0,0,0-3,1.56,17.34,17.34,0,0,0-1.55,1c-.51.37-1,.74-1.37,1.1-2.28,2.07-2.26,2.8-2.2,5,0,.7,0,1.47,0,1.93h0a9.31,9.31,0,0,0,.8,4A.8.8,0,0,0,6,101l.32,0a2.53,2.53,0,0,0,.42-.1,15.94,15.94,0,0,0,4.75-2.74c2.8-2.07,5.79-4.28,11.55-4.81a15.73,15.73,0,0,1,5.93.54,14.7,14.7,0,0,1,5.18,2.82c3.75,3.12,5.32,6.42,6.85,9.64.47,1,.95,2,1.45,2.9.15.28.33.57.53.88,4.11,6.37,12.19,8.55,20.74,8.32A56.36,56.36,0,0,0,88,112c.59-.33,1.17-.68,1.74-1a34.4,34.4,0,0,0,9.1-8.62,51.84,51.84,0,0,0,6.76-13.12,74.56,74.56,0,0,0,4.14-21.17,74.7,74.7,0,0,0-1.86-21.56,43.92,43.92,0,0,0-7.52-16.12,27.25,27.25,0,0,0-10-8.4A18.17,18.17,0,0,0,78.28,20.8a25.94,25.94,0,0,0-9.43,4.73,2.44,2.44,0,0,1-.64.39,2.21,2.21,0,0,1-2.87-1.24A57.71,57.71,0,0,1,62.17,13.5a61.07,61.07,0,0,1-.89-11.33ZM76,97.91a2.21,2.21,0,0,1,4.23,1.26l-2.17,7.2a2.21,2.21,0,0,1-4.23-1.26L76,97.91Zm-6.93-2.27A2.2,2.2,0,0,1,73,97.73l-3.8,7.06a2.21,2.21,0,0,1-3.89-2.09l3.81-7.06Zm-5.71-4.33a2.2,2.2,0,1,1,3.21,3l-5.17,5.49a2.2,2.2,0,1,1-3.21-3l5.17-5.49ZM51.7,3.5a2.21,2.21,0,0,1,4.41-.33C58,27.62,66,36.25,72.46,43.26c7.72,8.34,13.51,14.61,6.93,38L83,93.16h0a2.11,2.11,0,0,1-.08,1.46A2.23,2.23,0,0,1,80,95.77L66,90a2.22,2.22,0,0,1-1.08-.84,2.14,2.14,0,0,1,.65-3L75.16,80c5.89-21,.8-26.52-6-33.84C62.24,38.65,53.69,29.41,51.7,3.5ZM75.84,84.72l-4.38,2.8,6,2.48-1.6-5.28Z"/></svg>