<?xml version="1.0" encoding="UTF-8"?>
<!DOCTYPE svg PUBLIC "-//W3C//DTD SVG 1.1//EN" "http://www.w3.org/Graphics/SVG/1.1/DTD/svg11.dtd">
<!-- Creator: CorelDRAW 2021 (64-Bit) -->
<svg xmlns="http://www.w3.org/2000/svg" xml:space="preserve" width="506px" height="512px" version="1.1" shape-rendering="geometricPrecision" text-rendering="geometricPrecision" image-rendering="optimizeQuality" fill-rule="evenodd" clip-rule="evenodd"
viewBox="0 0 506 512.33"
 xmlns:xlink="http://www.w3.org/1999/xlink"
 xmlns:xodm="http://www.corel.com/coreldraw/odm/2003">
 <g id="Layer_x0020_1">
  <metadata id="CorelCorpID_0Corel-Layer"/>
  <path fill="black" fill-rule="nonzero" d="M272.97 80.39c42.09,0 80.26,17.09 107.89,44.71l0.06 0.06c27.61,27.63 44.69,65.78 44.69,107.87 0,42.09 -17.09,80.25 -44.71,107.89l-0.06 0.06c-18,17.99 -40.47,31.5 -65.57,38.74 -0.61,-7.24 -2.22,-14.27 -4.84,-20.93 21.18,-6.29 40.1,-17.77 55.29,-32.97 23.76,-23.74 38.43,-56.54 38.43,-92.79 0,-36.25 -14.67,-69.05 -38.41,-92.78 -23.72,-23.73 -56.52,-38.4 -92.77,-38.4 -36.25,0 -69.05,14.67 -92.75,38.38 -19.68,19.68 -33.13,45.56 -37.16,74.47 -7.88,4.17 -15.52,9.25 -22.7,15.23 0.82,-40.87 17.74,-77.84 44.68,-104.79l0.06 -0.07c27.64,-27.61 65.78,-44.68 107.87,-44.68zm47.11 148.98c14.31,0 25.9,11.59 25.9,25.89 0,14.31 -11.59,25.9 -25.9,25.9 -14.3,0 -25.89,-11.59 -25.89,-25.9 0,-14.3 11.59,-25.89 25.89,-25.89zm-72.91 -76.38c18.55,0 33.59,15.04 33.59,33.59 0,18.54 -15.04,33.59 -33.59,33.59 -18.54,0 -33.58,-15.05 -33.58,-33.59 0,-18.55 15.04,-33.59 33.58,-33.59zm-31.75 111.44c18.19,18.19 12.43,53.45 -12.88,78.76 -20.84,20.84 -48.45,28.43 -67.7,20.28 -15.64,1.63 -29,7.67 -36.16,15.96 -30.05,34.79 1.42,51.94 -35.26,86.16 -12.38,11.55 -28.59,19.42 -44.66,20.29 -6.23,0.35 -12.48,-0.09 -18.76,-1.41 41.27,-6.83 58.53,-24.27 65.64,-42.66 10.33,-26.69 -3.43,-42.28 16.64,-67.34 9.62,-12.01 21.46,-20.76 35.21,-27.07 -9.87,-19.31 -2.55,-48.36 19.18,-70.09 25.31,-25.31 60.56,-31.07 78.75,-12.88zm37.56 113.14c-11.38,-11.37 -33.44,-7.77 -49.27,8.07 -13.04,13.04 -17.78,30.3 -12.7,42.34 -1.01,9.78 -4.79,18.14 -9.98,22.62 -21.76,18.8 -32.49,-0.89 -53.89,22.06 -7.22,7.75 -12.14,17.88 -12.7,27.93 -0.2,3.9 0.07,7.82 0.89,11.74 4.27,-25.81 15.19,-36.61 26.68,-41.07 16.7,-6.45 26.45,2.16 42.13,-10.4 7.51,-6.01 12.98,-13.42 16.95,-22.03 12.07,6.18 30.23,1.59 43.82,-11.98 15.84,-15.84 19.44,-37.9 8.07,-49.28zm19.99 -377.57c64.34,0 122.61,26.09 164.77,68.25 42.17,42.17 68.26,100.43 68.26,164.78 0,64.34 -26.09,122.61 -68.26,164.77 -42.16,42.17 -100.43,68.26 -164.77,68.26l-2.1 -0.02c5.53,-3.66 10.8,-7.94 15.67,-12.81l0.2 -0.19c3.06,-3.05 5.88,-6.27 8.47,-9.6 49.54,-5.18 94,-27.46 127.36,-60.82 38.28,-38.27 61.96,-91.17 61.96,-149.59 0,-58.42 -23.68,-111.32 -61.96,-149.6 -38.28,-38.28 -91.18,-61.96 -149.6,-61.96 -58.42,0 -111.32,23.68 -149.6,61.96 -38.27,38.28 -61.96,91.18 -61.96,149.6 0,26.53 4.89,51.93 13.81,75.34 -0.38,2.66 -0.65,5.33 -0.82,7.98 -4.69,3.97 -9.21,8.38 -13.56,13.24 -13.41,-29.42 -20.9,-62.12 -20.9,-96.56 0,-64.35 26.09,-122.61 68.26,-164.78 42.16,-42.16 100.43,-68.25 164.77,-68.25z"/>
 </g>
</svg>
