<svg xmlns="http://www.w3.org/2000/svg" shape-rendering="geometricPrecision" text-rendering="geometricPrecision" image-rendering="optimizeQuality" fill-rule="evenodd" clip-rule="evenodd" viewBox="0 0 512 415.95"><path fill="#F44336" d="M197.99 0h116.03c22.67 0 41.21 18.54 41.21 41.21V63.2h-26.26V41.11c0-7.94-6.5-14.43-14.44-14.43H197.47c-7.94 0-14.43 6.5-14.43 14.43V63.2h-26.26V41.21C156.78 18.54 175.32 0 197.99 0zm86.35 160.66v54.47h54.47v56.69h-54.47v54.47h-56.68v-54.47h-54.48v-56.69h54.48v-54.47h56.68zM36.62 70.99h42.79v344.96H36.62C16.48 415.95 0 399.48 0 379.34V107.6c0-20.14 16.48-36.61 36.62-36.61zm64.56 0h304.78v344.96H101.18V70.99zm326.55 0h47.65c20.14 0 36.62 16.47 36.62 36.61v271.74c0 20.14-16.48 36.61-36.62 36.61h-47.65V70.99z"/></svg>