<svg xmlns="http://www.w3.org/2000/svg" shape-rendering="geometricPrecision" text-rendering="geometricPrecision" image-rendering="optimizeQuality" fill-rule="evenodd" clip-rule="evenodd" viewBox="0 0 487 499.58"><path fill-rule="nonzero" d="M121.2 241.68c14.79 26.67 31.83 52.29 54.01 75.66 22.19 23.51 49.79 44.9 85.57 63.12 2.64 1.32 5.15 1.32 7.4.4 3.43-1.32 6.87-4.09 10.3-7.53 2.64-2.64 5.94-6.86 9.37-11.49 13.74-18.09 30.77-40.54 54.81-29.31.53.26.92.53 1.45.79l80.16 46.09c.26.13.52.39.79.53 10.56 7.26 14.92 18.48 15.05 31.16 0 12.94-4.75 27.47-11.75 39.75-9.24 16.24-22.85 26.94-38.56 34.07-14.92 6.86-31.56 10.56-47.54 12.94-25.09 3.7-48.6 1.32-72.63-6.08-23.5-7.26-47.14-19.27-73.02-35.25l-1.85-1.19c-11.89-7.4-24.7-15.32-37.24-24.7-46.09-34.73-92.97-84.91-123.47-140.1-25.62-46.35-39.62-96.4-31.96-144.07 4.23-26.15 15.45-49.92 35-65.64C54.12 67.1 77.1 59.57 106.81 62.22c3.43.26 6.47 2.24 8.05 5.14l51.37 86.9c7.53 9.77 8.45 19.41 4.36 29.05-3.43 7.92-10.3 15.18-19.68 22.05-2.77 2.38-6.07 4.75-9.5 7.26-11.49 8.32-24.56 17.96-20.08 29.32l-.13-.26z"/><path fill="#D8453E" fill-rule="nonzero" d="M297.06 0c-14.31 0-26.55 5.04-36.74 15.11-10.19 10.08-15.11 22.33-15.11 36.75v91.01c0 14.42 5.03 26.67 15.11 36.74 10.07 10.08 22.32 15.12 36.74 15.12h42.61c-2.98 11.44-6.64 22.32-11.22 32.51-4.46 10.3-12.13 20.14-22.67 29.53 20.27-5.26 38.24-13.16 54.15-23.58 15.8-10.3 29.54-23.24 40.87-38.47h34.34c14.31 0 26.56-5.15 36.75-15.11 10.19-10.07 15.11-22.32 15.11-36.74V51.86c0-14.31-5.04-26.56-15.11-36.75C461.82 4.92 449.57 0 435.14 0H297.06zm56.75 32.65h24.59c4.59 0 8.35 3.76 8.35 8.35v36.66h36.66c4.6 0 8.35 3.76 8.35 8.35v24.6c0 4.59-3.75 8.35-8.35 8.35h-36.66v36.66c0 4.59-3.76 8.35-8.35 8.35h-24.59c-4.6 0-8.36-3.76-8.36-8.35v-36.66h-36.66c-4.59 0-8.35-3.76-8.35-8.35v-24.6c0-4.59 3.76-8.35 8.35-8.35h36.66V41c0-4.59 3.76-8.35 8.36-8.35z"/></svg>