<svg id="Layer_1" data-name="Layer 1" xmlns="http://www.w3.org/2000/svg" viewBox="0 0 122.88 108.16"><title>heartbeat</title><path d="M60.78,15.09l.09-.09C67.82,7.62,73.54,1.56,85.22.21a33.65,33.65,0,0,1,18.94,3.44,35,35,0,0,1,12.46,10.42,31.37,31.37,0,0,1,6.06,15.11,30.11,30.11,0,0,1-1.46,13.25h-6.38a24.82,24.82,0,0,0,1.9-12.57,25.59,25.59,0,0,0-4.92-12.23A29.24,29.24,0,0,0,101.5,9,27.8,27.8,0,0,0,85.9,6.16C76.39,7.25,71.35,12.6,65.22,19.09L63,21.43a3,3,0,0,1-4.22.06l-2.15-2.1c-7.52-7.4-13.19-13-24.9-13.12-.47,0-.95,0-1.46,0a26.27,26.27,0,0,0-17,6.77A23.13,23.13,0,0,0,6,30c0,.44,0,.91,0,1.4A35.69,35.69,0,0,0,8.26,42.43H1.93A40.69,40.69,0,0,1,0,31.59c0-.54,0-1.1,0-1.68A28.93,28.93,0,0,1,9.16,8.69,32.11,32.11,0,0,1,30.06.32c.55,0,1.14,0,1.74,0,14.11.18,20.51,6.45,29,14.79ZM2,51.65H30.59l6.49-10.49L48.53,57.77,60,34.54,72.37,58.36l5.86-6H120.9v6H80.75L70.89,68.48,60.12,47.79,49.39,69.55l-12-17.47-3.44,5.57H2v-6ZM102.43,68.44l-.29.31c-5,5.16-10.28,10.23-15,14.79-2.78,2.66-5.38,5.15-7.58,7.33L63,107.29a3,3,0,0,1-4.18,0L45.11,94.15c-2.5-2.4-5.4-5.05-8.42-7.8C30.63,80.82,24.1,74.87,18.26,68.44H26.5c4.64,4.75,9.57,9.25,14.22,13.48,3,2.7,5.81,5.3,8.53,7.92L60.83,101,75.31,86.63c2.28-2.26,4.87-4.75,7.64-7.4,3.53-3.38,7.36-7,11.1-10.79Z"/></svg>