<svg id="Layer_1" data-name="Layer 1" xmlns="http://www.w3.org/2000/svg" viewBox="0 0 122.88 122.68"><title>liver-transplant</title><path d="M61.85,77.14a2.68,2.68,0,0,1,.84-.28,32.37,32.37,0,0,0,4.79-4.06,28.83,28.83,0,0,0,4.45,2.73,39.39,39.39,0,0,1-6.3,5.5v33.32a2.56,2.56,0,1,1-5.12,0V82.27H57C55.54,86,55.61,89.86,55.69,94c0,1.24.05,2.49.05,3v6h0c0,.11,0,.22,0,.33a28.43,28.43,0,0,1-.6,3.22,20.65,20.65,0,0,1-.93,2.91,14.4,14.4,0,0,1-1,2.12,15.41,15.41,0,0,1-10.54,7.19A22.55,22.55,0,0,1,30,117.49a21,21,0,0,1-2.93-1.44,20.1,20.1,0,0,1-3.89-3c-.19-.2-.39-.4-.58-.61-.37.73-.76,1.46-1.17,2.16a19.7,19.7,0,0,1-4.53,5.51,11.39,11.39,0,0,1-6.51,2.59h-.24c-3.83-.14-6.3-3.13-7.84-8.1-1.26-4-1.95-9.61-2.32-16,0-.11,0-.22,0-.33V58.62H0v-.09c.64-17.39,5.66-32.42,15.28-42.9C24.23,5.9,37.07.14,54,.1l13.6,0a3.47,3.47,0,0,1,.7.1l4.3,1.24c.63.19.94.28,1,.28l.82-.25.7-.2L78.76.16a2.34,2.34,0,0,1,.71-.1L103.24,0a29.41,29.41,0,0,1,9.12,1.32,17.52,17.52,0,0,1,7.51,4.47,10.32,10.32,0,0,1,3,7.17,10.13,10.13,0,0,1-.5,3.13,13.1,13.1,0,0,1-1.28,2.82,11.22,11.22,0,0,1-1.88,2.37c-4,3.86-8.11,6-12.2,8.11-1.06.55-2.11,1.1-3.17,1.68a27.5,27.5,0,0,0-4.2-3.49c1.66-1,3.34-1.86,5-2.73,3.78-2,7.55-3.93,11-7.25a6.39,6.39,0,0,0,1.06-1.33,8.41,8.41,0,0,0,.78-1.74,5,5,0,0,0,.26-1.57,5.41,5.41,0,0,0-1.63-3.67,12.67,12.67,0,0,0-5.35-3.11,24.83,24.83,0,0,0-7.56-1.08l-23.4.06-3.33,1c-.49.14-.14,0-.65.2a7.39,7.39,0,0,1-2.25.45,7.54,7.54,0,0,1-2.45-.48L67.22,5.17,54,5.2c-15.35,0-26.93,5.19-34.93,13.89C10.3,28.62,5.73,42.47,5.12,58.62h0V98.28c.35,6,1,11.18,2.1,14.8.84,2.7,1.82,4.35,3,4.49a6.38,6.38,0,0,0,3.49-1.46A14.73,14.73,0,0,0,17,112a42.45,42.45,0,0,0,2.51-5.16,2.61,2.61,0,0,1,.27-.67c.7-1.73,1.33-3.5,2-5.26,1.73-4.84,3.46-9.65,6.36-13.86C35.08,77,40.68,77,50.72,77.14h4a2.56,2.56,0,0,1,1.4,0Zm16.4-30.31a2.36,2.36,0,0,1-4.39,1.75L72.75,45.8a12.67,12.67,0,0,0,15,17.65A2.37,2.37,0,0,1,89.12,68a17.43,17.43,0,0,1-22-20.07,16.64,16.64,0,0,1,1-3.18l-1.19.35a2.37,2.37,0,0,1-1.33-4.54l7.1-2.1a2.37,2.37,0,0,1,2.86,1.4l2.77,7Zm24.93,10.59A2.37,2.37,0,0,1,104.52,62l-7.17,2.12a2.36,2.36,0,0,1-2.91-1.52l-2.7-6.79A2.36,2.36,0,1,1,96.13,54L97,56.22a12.79,12.79,0,0,0,.87-2.55,12.69,12.69,0,0,0-16-14.93,2.37,2.37,0,1,1-1.33-4.54,17.4,17.4,0,0,1,20.86,23.74l1.76-.52Zm-63.31-43A2.56,2.56,0,1,1,42.14,19q-2,1-4,2.19t-3.94,2.67l-.07.05A43.86,43.86,0,0,0,27.59,30a40,40,0,0,0-4.95,7.1,2.56,2.56,0,0,1-4.48-2.46,44.93,44.93,0,0,1,5.59-8,49.83,49.83,0,0,1,7.3-6.79l.1-.07q2.12-1.57,4.34-2.93t4.38-2.41ZM51.61,82.25h-.93c-8.31-.09-12.93-.13-18.33,7.7-2.53,3.68-4.14,8.17-5.76,12.68-.55,1.52-1.09,3-1.67,4.54a17.83,17.83,0,0,0,1.89,2.24,15,15,0,0,0,2.89,2.24,15.33,15.33,0,0,0,2.23,1.09,17.29,17.29,0,0,0,9.67,1,10.43,10.43,0,0,0,7.14-4.79,9.86,9.86,0,0,0,.7-1.42,17.71,17.71,0,0,0,.71-2.23c.19-.78.35-1.59.47-2.44V97c0-1.5,0-2.22,0-2.92-.08-4-.15-7.85,1-11.79Z"/></svg>