<svg id="Layer_1" data-name="Layer 1" xmlns="http://www.w3.org/2000/svg" viewBox="0 0 94.87 122.88"><title>lungs-transplant</title><path d="M41.24,20.6V4.72A4.71,4.71,0,0,1,46,0h3.77a4.72,4.72,0,0,1,3.33,1.38h0a4.74,4.74,0,0,1,1.38,3.34V20.28c2.4-.84,5.5-.76,9.25.15l.31.11a40.86,40.86,0,0,1,7.82,4.11l.09.07a34.06,34.06,0,0,1,6.45,5.71C83.27,36.05,87.05,45,89.74,54.65a144.22,144.22,0,0,1,5.11,34.63c.19,6.73-.95,11.55-3.13,14.88a13.42,13.42,0,0,1-9.79,6,1.1,1.1,0,0,1-.25,0,76.47,76.47,0,0,1-10.21.45,30,30,0,0,1-4.57-.52l0,0v-.11l0,0v-.05l0-.16v-.11l0-.16v-.11l0-.16V109l0-.16h0v-.06l0-.16v-.06h0l0-.21V108l0-.23v0l0-.17,0-.33v-.17c0-.13,0-.26,0-.39v-.1h0a26.61,26.61,0,0,0,4.15.48,73.31,73.31,0,0,0,9.74-.44h0a10.09,10.09,0,0,0,7.35-4.4c1.79-2.75,2.72-6.9,2.56-12.84v0a140.3,140.3,0,0,0-5-33.74C83.76,46.37,80.22,38,75.7,32.77a30.57,30.57,0,0,0-5.78-5.12l-.1-.07a37.21,37.21,0,0,0-7.08-3.73c-3.46-.83-6.09-.83-7.8.08a3.92,3.92,0,0,0-.64.42,1.81,1.81,0,0,1-.79.87,7.63,7.63,0,0,0-1.07,4c0,3.18-.09,7.49-.27,11.45C52,44,51.79,47.2,51.5,49.28c-.72,5.23-1.22,9-1.55,12.92-.08.92-.14,1.83-.2,2.78a16.45,16.45,0,0,0,2.51-2.22,21.1,21.1,0,0,0,4.15-5.84,21.41,21.41,0,0,0,.84-3.38,30.43,30.43,0,0,1,1.57-5.87,23.48,23.48,0,0,1,1.25-2.61,16.25,16.25,0,0,0,1.31-3c.37-1.23.06-1.56-.4-2a9.51,9.51,0,0,1-2.7-5.16,1.78,1.78,0,0,1,3.48-.73,6.29,6.29,0,0,0,1.34,2.94l.15-.2a5,5,0,0,1,3-2A1.77,1.77,0,0,1,67,38.42a1.61,1.61,0,0,0-.94.64,5.7,5.7,0,0,0-.89,2.14,8.81,8.81,0,0,1-.39,1.92,19.13,19.13,0,0,1-1.58,3.59l-.27.5.2,0c1.69.4,2.51-.28,3.53-1.13a17.72,17.72,0,0,1,2-1.48l.12-.07c2.38-1.49,2.6-1.5,4.43-1.63.36,0,.8-.05,1.15-.09a1.77,1.77,0,0,1,.34,3.53l-1.26.11c-1,.07-1.18.08-2.78,1.08l-.13.08a17.09,17.09,0,0,0-1.58,1.19c-1.78,1.48-3.21,2.67-6.59,1.87a7,7,0,0,1-.75-.21,32,32,0,0,0-.85,3.68,25.2,25.2,0,0,1-1,4,25.14,25.14,0,0,1-4.93,7.07A13.56,13.56,0,0,1,49.57,69v.5c1.73,0,4.26-1.66,7.13-3.55.86-.57,1.75-1.16,2.52-1.64,6.56-4.12,9-3.72,15.17-2.71l1.25.2a6,6,0,0,0,1.16-.5l.08,0a4.21,4.21,0,0,0,.92-.74,1.78,1.78,0,0,1,2.6,2.42,8,8,0,0,1-1.72,1.38l-.1.06h0l0,0h0a8,8,0,0,1,.77,2.37,1.78,1.78,0,0,1-3.52.51A4.34,4.34,0,0,0,75.38,66h0a7.45,7.45,0,0,0-.43-.71l-1.15-.18c-5.23-.85-7.29-1.19-12.71,2.21-.94.59-1.71,1.1-2.47,1.6l-.7.47c1.52,3.11,3.08,3.12,6.25,3.13h.26a7.14,7.14,0,0,1,1.74-1.77,8.81,8.81,0,0,1,3.24-1.38,1.77,1.77,0,0,1,2.12,1.34,1.79,1.79,0,0,1-1.35,2.12,5.14,5.14,0,0,0-2,.81,3.29,3.29,0,0,0-.76.73,4.72,4.72,0,0,0,.48.77,4.43,4.43,0,0,0,1.22,1.07,1.78,1.78,0,0,1-1.87,3,8.39,8.39,0,0,1-2.16-1.93A8.05,8.05,0,0,1,64.37,76h-.21c-4.69,0-7,0-9.28-4.78A12.16,12.16,0,0,1,50.21,73c4.53,1.4,7.6,4.36,10.86,7.51l1.27,1.22a27.44,27.44,0,0,0,3,2.57A12.09,12.09,0,0,0,68.81,86a9.83,9.83,0,0,0,3.84.4,10.58,10.58,0,0,0,3.37-1,8.8,8.8,0,0,1,.64-1.35,8.13,8.13,0,0,1,1.44-1.74,1.77,1.77,0,1,1,2.43,2.58l-.37.38.12.11a3.7,3.7,0,0,0,2.19,1,1.78,1.78,0,1,1-.28,3.54,6.33,6.33,0,0,1-4-1.67A14.24,14.24,0,0,1,73,89.9a13.27,13.27,0,0,1-5.23-.54,15.55,15.55,0,0,1-4.45-2.2,27.64,27.64,0,0,1-3.43-2.9L58.61,83c-2.83-2.74-5.5-5.32-9-6.55.17,2,.38,4,.68,5.9.12.78.24,1.54.39,2.3l-.3-.05h-.25l-.25,0h-.25l-.21,0H49l-.21,0H48c-.39,0-.78,0-1.18,0a21.25,21.25,0,0,0-2.54.16c.13-.7.25-1.4.35-2.11.29-1.88.5-3.78.66-5.69C42,78,39.48,80.44,36.8,83l-1.29,1.23a28.39,28.39,0,0,1-3.43,2.9,15.55,15.55,0,0,1-4.45,2.2,13.27,13.27,0,0,1-5.23.54,14.18,14.18,0,0,1-5.22-1.64,6.33,6.33,0,0,1-4,1.67,1.78,1.78,0,1,1-.27-3.54,3.65,3.65,0,0,0,2.18-1l.13-.11-.37-.38a1.77,1.77,0,1,1,2.43-2.58,8.13,8.13,0,0,1,1.44,1.74,8.8,8.8,0,0,1,.64,1.35,10.58,10.58,0,0,0,3.37,1A9.83,9.83,0,0,0,26.6,86a12.09,12.09,0,0,0,3.45-1.71,27.44,27.44,0,0,0,3-2.57l1.26-1.22C37.6,77.32,40.67,74.36,45.2,73a12.16,12.16,0,0,1-4.67-1.74C38.24,76,35.94,76,31.25,76H31a8.05,8.05,0,0,1-.78,1.24,8.39,8.39,0,0,1-2.16,1.93,1.78,1.78,0,0,1-1.87-3,4.43,4.43,0,0,0,1.22-1.07,5.52,5.52,0,0,0,.48-.77,3.5,3.5,0,0,0-.76-.73,5.14,5.14,0,0,0-2-.81,1.79,1.79,0,0,1-1.35-2.12A1.77,1.77,0,0,1,26,69.31a8.81,8.81,0,0,1,3.24,1.38A7.14,7.14,0,0,1,31,72.46h.26c3.17,0,4.73,0,6.25-3.13l-.7-.47c-.76-.5-1.53-1-2.47-1.6-5.42-3.4-7.48-3.06-12.71-2.21l-1.15.18a7.45,7.45,0,0,0-.43.71h0a4.07,4.07,0,0,0-.43,1.29,1.78,1.78,0,0,1-3.52-.51,7.81,7.81,0,0,1,.77-2.37h0l0,0h0l-.1-.06A8,8,0,0,1,15,62.88a1.78,1.78,0,0,1,2.6-2.42,4.21,4.21,0,0,0,.92.74l.08,0a6,6,0,0,0,1.16.5l1.25-.2c6.18-1,8.61-1.41,15.17,2.71.77.48,1.66,1.07,2.52,1.64,2.59,1.71,4.89,3.23,6.59,3.5l0-.64a15,15,0,0,1-4.7-3.54,25.14,25.14,0,0,1-4.93-7.07,25.2,25.2,0,0,1-1-4,34.22,34.22,0,0,0-.85-3.68,7,7,0,0,1-.75.21c-3.38.8-4.81-.39-6.59-1.87a17.09,17.09,0,0,0-1.58-1.19l-.13-.08c-1.6-1-1.74-1-2.79-1.08l-1.25-.11a1.77,1.77,0,1,1,.34-3.53c.35,0,.79.07,1.15.09,1.83.13,2.05.14,4.43,1.63l.12.07a17.72,17.72,0,0,1,2,1.48c1,.85,1.84,1.53,3.52,1.13l.2,0-.26-.5a19.13,19.13,0,0,1-1.58-3.59,8.81,8.81,0,0,1-.39-1.92,5.7,5.7,0,0,0-.89-2.14,1.61,1.61,0,0,0-.94-.64A1.77,1.77,0,1,1,29.13,35a5,5,0,0,1,3,2l.15.2a6.29,6.29,0,0,0,1.34-2.94,1.78,1.78,0,0,1,3.48.73,9.51,9.51,0,0,1-2.7,5.16c-.46.49-.77.82-.4,2a16.25,16.25,0,0,0,1.31,3,23.48,23.48,0,0,1,1.25,2.61,30.43,30.43,0,0,1,1.57,5.87A20.37,20.37,0,0,0,39,56.92a21.1,21.1,0,0,0,4.15,5.84,18.6,18.6,0,0,0,2,1.81q-.08-1.2-.18-2.37c-.33-3.92-.83-7.69-1.55-12.92-.28-2.08-.51-5.25-.66-8.63-.19-4-.28-8.27-.28-11.45-.11-2.72-1-4.46-2.5-5.27-1.71-.91-4.33-.91-7.8-.08a37.21,37.21,0,0,0-7.08,3.73l-.09.07a30,30,0,0,0-5.78,5.12C14.66,38,11.11,46.37,8.55,55.6a140.3,140.3,0,0,0-5,33.74v0c-.16,5.94.77,10.09,2.56,12.84a10.09,10.09,0,0,0,7.35,4.4h0a73.38,73.38,0,0,0,9.74.44c1,0,2-.13,2.94-.27a20.15,20.15,0,0,0,.6,3.5c-1.11.16-2.24.26-3.39.31a76.47,76.47,0,0,1-10.21-.45,1,1,0,0,1-.24,0,13.42,13.42,0,0,1-9.8-6C1,100.83-.17,96,0,89.28A144.72,144.72,0,0,1,5.13,54.65C7.82,45,11.6,36.05,16.51,30.43A34.06,34.06,0,0,1,23,24.72l.09-.07a41.16,41.16,0,0,1,7.82-4.11l.31-.11c4.19-1,7.56-1,10.06.17Zm4.23,81.15a1.77,1.77,0,0,1-3.39-1l.64-2.14a9.18,9.18,0,0,0-2,1.32,9.48,9.48,0,0,0,2.68,16,1.76,1.76,0,0,1-1.3,3.28,13,13,0,0,1-7.28-16.89,12.93,12.93,0,0,1,5.63-6.49l-.86-.34a1.76,1.76,0,0,1,1.3-3.28l5,2a1.77,1.77,0,0,1,1.14,2.17l-1.6,5.38Zm9.75,17.72a1.76,1.76,0,1,1-1.3,3.28l-5.19-2.06a1.77,1.77,0,0,1-1-2.14l1.57-5.32a1.77,1.77,0,0,1,3.4,1l-.5,1.7a10.33,10.33,0,0,0,1.68-1.1,9.36,9.36,0,0,0,2.8-3.83h0a9.49,9.49,0,0,0-5.15-12.26A1.77,1.77,0,0,1,52,95.26a1.7,1.7,0,0,1,.81.2A13,13,0,0,1,60,112.12a1.62,1.62,0,0,1-.13.33A13,13,0,0,1,54,119l1.27.5Zm-4.34-96.7v-18a1.16,1.16,0,0,0-.34-.82h0a1.16,1.16,0,0,0-.82-.34H46a1.15,1.15,0,0,0-.81.34,1.17,1.17,0,0,0-.35.82V24a11.81,11.81,0,0,1,1.18,5v.07c0,3.1.09,7.38.28,11.37.15,3.27.37,6.33.64,8.31.2,1.44.38,2.78.55,4,.16-1.25.35-2.59.54-4,.28-2,.49-5,.64-8.31.19-4,.28-8.27.28-11.37v-.07a10.65,10.65,0,0,1,2-6.29Z"/></svg>