<svg id="Layer_1" data-name="Layer 1" xmlns="http://www.w3.org/2000/svg" viewBox="0 0 122.88 74.59"><defs><style>.cls-1{fill-rule:evenodd;}</style></defs><title>mobile-clinic-truck</title><path class="cls-1" d="M76.06,17.44c13.7.1,20.43-.87,24.49,10.32a28.44,28.44,0,0,1,1.81,7.81c20.52,8.08,17.26,3.06,20.52,25.72h-5.65c-2.61-20.35-28.26-17.88-29,0H51.44A15.44,15.44,0,0,0,25.18,52l0,0a15.45,15.45,0,0,0-4.43,9.22H5.47A5.28,5.28,0,0,1,.2,56v-12H76.06V17.44Zm-2.42,24.2H0V3.57A3.6,3.6,0,0,1,3.57,0h66.5a3.64,3.64,0,0,1,3.57,3.57V41.64ZM39.84,7.09h-6a2.05,2.05,0,0,0-2,2.05V16H24.92a2.06,2.06,0,0,0-2.06,2v6a2.06,2.06,0,0,0,2.06,2.05h6.83v6.66a2.05,2.05,0,0,0,2,2h6a2.05,2.05,0,0,0,2-2V26.11h6.83a2.05,2.05,0,0,0,2.05-2.05V18a2.05,2.05,0,0,0-2.05-2H41.89V9.14a2.05,2.05,0,0,0-2-2.05ZM36.09,51.34A11.63,11.63,0,1,0,47.71,63,11.63,11.63,0,0,0,36.09,51.34Zm0,7.15A4.48,4.48,0,1,0,40.56,63a4.48,4.48,0,0,0-4.47-4.48Zm66.62-8.18a11.63,11.63,0,1,0,11.62,11.62,11.63,11.63,0,0,0-11.62-11.62Zm0,7.15a4.48,4.48,0,1,0,4.47,4.47,4.48,4.48,0,0,0-4.47-4.47ZM89.44,23.56l-6.58-.11V35.57H95c-.6-3.95-2.17-8.62-5.59-12Z"/></svg>