<?xml version="1.0" encoding="UTF-8"?>
<!DOCTYPE svg PUBLIC "-//W3C//DTD SVG 1.1//EN" "http://www.w3.org/Graphics/SVG/1.1/DTD/svg11.dtd">
<!-- Creator: CorelDRAW 2021 (64-Bit) -->
<svg xmlns="http://www.w3.org/2000/svg" xml:space="preserve" width="512px" height="512px" version="1.1" shape-rendering="geometricPrecision" text-rendering="geometricPrecision" image-rendering="optimizeQuality" fill-rule="evenodd" clip-rule="evenodd"
viewBox="0 0 512 512"
 xmlns:xlink="http://www.w3.org/1999/xlink"
 xmlns:xodm="http://www.corel.com/coreldraw/odm/2003">
 <g id="Layer_x0020_1">
  <metadata id="CorelCorpID_0Corel-Layer"/>
  <path fill="white" fill-rule="nonzero" d="M67.53 337.81l361.98 -191.84c-11.96,-18.9 -27,-35.88 -44.67,-50.1 -19.69,-15.85 -42.73,-28.32 -68.51,-36.24 -26.67,-8.19 -53.66,-10.71 -79.7,-8.24 -27.01,2.57 -53.11,10.52 -76.83,23.09 -23.72,12.57 -44.95,29.71 -62.24,50.62 -16.66,20.16 -29.74,43.91 -37.93,70.57 -7.92,25.79 -10.54,51.86 -8.47,77.05 1.84,22.61 7.45,44.59 16.37,65.09z"/>
  <path fill="white" fill-rule="nonzero" d="M451.15 191.69l-357.92 189.69c11.61,15.11 25.34,28.66 40.93,40.13 18.07,13.3 38.72,23.86 61.51,30.86 26.66,8.19 53.66,10.71 79.7,8.23 27.01,-2.56 53.11,-10.52 76.83,-23.09 23.72,-12.57 44.96,-29.7 62.25,-50.62 16.66,-20.15 29.74,-43.91 37.93,-70.57l0.04 0.01c6.98,-22.71 9.82,-45.74 8.95,-68.24 -0.74,-19.34 -4.24,-38.32 -10.22,-56.4z"/>
  <path fill="black" d="M180.28 366.09l0.75 0 0 -180.6c0,-17.54 6.12,-33.73 16.32,-46.55 9.46,-11.88 22.46,-20.85 37.36,-25.3l0 -4.58c0,-5.61 2.3,-10.71 5.99,-14.4 3.69,-3.7 8.79,-5.99 14.4,-5.99 5.59,0 10.68,2.29 14.38,5.99l0.04 0.03c3.68,3.7 5.97,8.79 5.97,14.37l0 4.08c15.34,4.16 28.75,13.07 38.53,25.02 10.57,12.93 16.94,29.42 16.94,47.33l0 180.6 0.75 0c8.16,0 14.83,6.68 14.83,14.83l0 0c0,8.16 -6.67,14.83 -14.83,14.83l-151.43 0c-8.15,0 -14.83,-6.67 -14.83,-14.83l0 0c0,-8.15 6.68,-14.83 14.83,-14.83zm95.47 -213.9c-2.08,-0.87 -3.07,-3.26 -2.2,-5.34 0.86,-2.08 3.25,-3.07 5.33,-2.21 4.92,2.05 9.69,5.29 13.79,9.11 4.25,3.96 7.83,8.6 10.16,13.22 1.02,2.02 0.21,4.47 -1.8,5.49 -2.01,1.01 -4.47,0.2 -5.48,-1.81 -1.91,-3.77 -4.88,-7.6 -8.44,-10.93 -3.43,-3.19 -7.36,-5.87 -11.36,-7.53zm29.33 -6.72c-9.03,-11.04 -21.66,-19.01 -36.02,-22.05 -2.88,-0.32 -5.12,-2.77 -5.12,-5.74l0 -8.62c0,-2.44 -0.99,-4.65 -2.58,-6.23l-0.02 -0.03c-1.59,-1.59 -3.8,-2.58 -6.24,-2.58 -2.42,0 -4.63,1 -6.23,2.6 -1.61,1.61 -2.6,3.82 -2.6,6.24l0 9.01c-0.01,2.63 -1.82,5.01 -4.49,5.62 -14.18,3.28 -26.59,11.36 -35.4,22.43 -8.63,10.83 -13.79,24.52 -13.79,39.37l0 179.94 126.82 0 0 -179.94c0,-15.14 -5.39,-29.09 -14.33,-40.02z"/>
  <path fill="#D92D27" fill-rule="nonzero" d="M331.17 11.32c33.08,10.16 62.64,26.47 87.83,47.29 26.19,21.65 47.56,48.09 63.16,77.53 15.6,29.44 25.49,61.97 28.7,95.8 3.09,32.53 -0.02,66.15 -10.18,99.23 -10.16,33.08 -26.47,62.64 -47.29,87.83 -21.64,26.18 -48.09,47.56 -77.53,63.16 -29.43,15.6 -61.97,25.49 -95.79,28.7 -32.53,3.09 -66.15,-0.02 -99.23,-10.18 -33.08,-10.16 -62.65,-26.47 -87.84,-47.29 -26.18,-21.64 -47.56,-48.09 -63.16,-77.52 -15.6,-29.44 -25.49,-61.98 -28.7,-95.8 -3.09,-32.53 0.02,-66.16 10.18,-99.23 10.17,-33.08 26.47,-62.65 47.29,-87.84 21.65,-26.19 48.09,-47.56 77.53,-63.16 29.43,-15.6 61.97,-25.49 95.79,-28.7 32.54,-3.09 66.16,0.02 99.24,10.18zm119.97 180.37l-357.91 189.69c11.61,15.1 25.34,28.66 40.93,40.13 18.08,13.3 38.72,23.86 61.52,30.86 26.66,8.19 53.65,10.71 79.69,8.24 27.01,-2.57 53.11,-10.53 76.83,-23.1 23.72,-12.57 44.96,-29.7 62.25,-50.62 16.66,-20.16 29.74,-43.91 37.93,-70.57l0.04 0.01c6.98,-22.71 9.82,-45.73 8.95,-68.24 -0.74,-19.34 -4.24,-38.31 -10.23,-56.4zm-383.61 146.13l361.98 -191.85c-11.96,-18.9 -27,-35.88 -44.67,-50.1 -19.69,-15.85 -42.73,-28.32 -68.51,-36.24 -26.67,-8.19 -53.66,-10.71 -79.7,-8.24 -27.01,2.57 -53.11,10.52 -76.83,23.09 -23.72,12.58 -44.95,29.71 -62.24,50.62 -16.66,20.16 -29.74,43.91 -37.93,70.57 -7.92,25.78 -10.54,51.85 -8.48,77.05 1.85,22.6 7.46,44.59 16.38,65.1z"/>
 </g>
</svg>
