<svg id="Layer_1" data-name="Layer 1" xmlns="http://www.w3.org/2000/svg" viewBox="0 0 122.88 122.88"><defs><style>.cls-1{fill:#fff;}.cls-2{fill-rule:evenodd;}.cls-3{fill:#d92d27;}</style></defs><title>no-mask</title><path class="cls-1" d="M22.29,98.61,98.61,22.29A54,54,0,0,0,22.29,98.61Zm81.36-70.82L27.79,103.65a54,54,0,0,0,75.86-75.86Z"/><path class="cls-2" d="M50.92,39.86A27.45,27.45,0,0,1,62,37.75,34.06,34.06,0,0,1,73,40.36c1.28.49,2.57,1,3.83,1.56,3.6,1.5,7,2.9,10.17,3.15a1.42,1.42,0,0,1,1.3,1.41V71.66a1.44,1.44,0,0,1-.29.86,23.05,23.05,0,0,1-5.26,5.54A36.13,36.13,0,0,1,64.12,85,33.32,33.32,0,0,1,43,80a32.33,32.33,0,0,1-8.06-7.48,1.44,1.44,0,0,1-.29-.86V46.17A1.41,1.41,0,0,1,36,44.76c4.25-.41,7.73-1.89,11.2-3.38,1.24-.53,2.48-1.06,3.7-1.52ZM90.48,45c6-1.21,10.11.53,12.37,3.59a10.34,10.34,0,0,1,1.93,5,13.49,13.49,0,0,1-.58,5.59A15.87,15.87,0,0,1,91,70l-.41-2.89a13,13,0,0,0,10.85-8.81,10.4,10.4,0,0,0,.46-4.38,7.48,7.48,0,0,0-1.36-3.63c-1.63-2.2-4.74-3.41-9.46-2.46L90.48,45ZM31.83,47.83c-4.72-.95-7.84.26-9.46,2.46A7.49,7.49,0,0,0,21,53.92a10.58,10.58,0,0,0,.47,4.38,13,13,0,0,0,10.85,8.81L31.91,70A15.87,15.87,0,0,1,18.68,59.18a13.49,13.49,0,0,1-.58-5.59,10.34,10.34,0,0,1,1.93-5c2.26-3.06,6.36-4.8,12.37-3.59l-.57,2.87ZM43.94,69.42c9.85,4.53,23.81,4.51,35-.16-8.13,7-21.59,11.65-35,.16ZM42.71,54c14.91-2.08,22.74-2,37.45.06C66,56.36,56.87,56.48,42.71,54ZM38.88,60.5a105.15,105.15,0,0,0,45.12,0,43.77,43.77,0,0,1-10.35,3.89c-11.51,2.82-24.33,2.14-34.77-3.85Z"/><path class="cls-3" d="M61.44,0A61.44,61.44,0,1,1,18,18,61.21,61.21,0,0,1,61.44,0Zm42.21,27.79L27.79,103.65a54,54,0,0,0,75.86-75.86ZM22.29,98.61,98.61,22.29A54,54,0,0,0,22.29,98.61Z"/></svg>