<svg xmlns="http://www.w3.org/2000/svg" shape-rendering="geometricPrecision" text-rendering="geometricPrecision" image-rendering="optimizeQuality" fill-rule="evenodd" clip-rule="evenodd" viewBox="0 0 294 511.14"><path fill="#1A1A1A" d="M55.22 0h183.57C269.28 0 294 24.76 294 55.23v400.69c0 30.49-24.72 55.22-55.21 55.22H55.22C24.73 511.14 0 486.41 0 455.92V55.16C0 24.6 24.68 0 55.22 0zm-36.2 434.43H274.9V54.7H19.02v379.73zm127.91 17.28c12.49 0 22.7 10.06 22.7 22.7 0 12.51-10.06 22.71-22.7 22.71-12.49 0-22.71-10.05-22.71-22.71 0-12.48 10.06-22.7 22.71-22.7z"/><path fill="#0182D4" d="M240.42 221.54c5.59 6.47 7.98 15.51 5.6 24.41-3.82 14.25-18.48 22.72-32.74 18.9-4.2-1.12-7.89-3.19-10.92-5.89l38.06-37.42zm-46.04 10.56c3.82-14.26 18.48-22.72 32.74-18.91 3.88 1.05 7.33 2.88 10.22 5.3l-37.95 37.32c-5.16-6.43-7.3-15.13-5.01-23.71zm-24.45 78.64c3.82-14.26 18.48-22.72 32.73-18.91 3.89 1.04 7.34 2.88 10.23 5.3l-37.94 37.3c-5.18-6.41-7.32-15.13-5.02-23.69z"/><path fill="#FCCB64" d="M168.81 252.79c-3.64 13.47-7.27 26.95-10.9 40.49-3.74 13.95-18.19 22.29-32.13 18.56-6.98-1.87-12.55-6.42-15.91-12.24a26.17 26.17 0 0 1-2.31-5.22c5.86-2.34 9.85-8.07 9.85-14.45v-16.78c12.01 0 32.24 2.53 32.32-15.47l19.08 5.11z"/><path fill="#D92D27" d="M83.98 192.8h18.13c3.39 0 6.16 2.77 6.16 6.16v24.6h24.61c3.39 0 6.16 2.77 6.16 6.16v18.13c0 3.39-2.77 6.16-6.16 6.16h-24.61v24.6c0 3.39-2.77 6.16-6.16 6.16H83.98c-3.38 0-6.16-2.77-6.16-6.16v-24.6H53.23c-3.39 0-6.16-2.77-6.16-6.16v-18.14c0-3.39 2.77-6.16 6.16-6.16h24.6v-24.59c0-3.39 2.77-6.16 6.15-6.16zm50.85-6.53c3.76-14.01 18.29-22.4 32.3-18.64 14 3.75 22.38 18.28 18.63 32.29-4.12 15.41-8.26 30.75-12.4 46.09l-23.63-6.33v-9.72c0-13.41-11.64-15.54-22.4-15.54 2.49-9.36 4.98-18.74 7.5-28.15z"/><path fill="#0182D4" d="M215.97 300.18c5.59 6.47 7.98 15.51 5.59 24.41-3.82 14.26-18.48 22.72-32.74 18.9-4.2-1.12-7.88-3.19-10.91-5.89l38.06-37.42z"/></svg>