<svg xmlns="http://www.w3.org/2000/svg" shape-rendering="geometricPrecision" text-rendering="geometricPrecision" image-rendering="optimizeQuality" fill-rule="evenodd" clip-rule="evenodd" viewBox="0 0 512 293.53"><path d="M12.36 268.8h49.69a8.948 8.948 0 0 1-3.17-6.83V8.98c0-4.94 4.05-8.98 8.99-8.98h376.25c4.95 0 8.99 4.04 8.99 8.98v252.99c0 2.73-1.23 5.18-3.17 6.83h49.7c3.4 0 6.49 1.4 8.73 3.63 2.24 2.25 3.63 5.34 3.63 8.74 0 3.39-1.39 6.48-3.63 8.72-2.25 2.25-5.34 3.64-8.73 3.64H12.36c-3.39 0-6.48-1.39-8.72-3.63-2.25-2.25-3.64-5.34-3.64-8.73 0-3.4 1.39-6.49 3.63-8.73s5.33-3.64 8.73-3.64zM384.79 60.6v173.47h-7.6V60.6h7.6zm-249.98 0v173.47h-7.6V60.6h7.6zm21.32 21.28H275.8v8.8H156.13v-8.8zm0 24.92h84.66v8.8h-84.66v-8.8zm173.21-31.73h9c1.68 0 3.06 1.38 3.06 3.06v11.42h11.42c1.68 0 3.05 1.38 3.05 3.06v8.99c0 1.68-1.38 3.06-3.05 3.06H341.4v11.16c0 1.68-1.38 3.05-3.06 3.05h-9c-1.68 0-3.06-1.37-3.06-3.05v-11.16h-11.42c-1.68 0-3.05-1.38-3.05-3.06v-9c0-1.68 1.38-3.06 3.05-3.06h11.42V78.13c0-1.68 1.38-3.06 3.06-3.06zM157.97 215.18h168.56v8.81H157.97v-8.81zm-1.84-27.91H355.4v8.81H156.13v-8.81zm1.84-31.94h66.97l8.65-12.02 10.77 15.51 11.75-22.91 12.61 24.7 5.97-4.4 2.61-.88h78.1v8.8h-76.68l-13.13 9.69-9.51-18.64-10.59 20.65-12.03-17.32-4.04 5.62h-71.45v-8.8zM438.39 37.37H73.6V257.3h364.79V37.37zM118.86 14.48c2.98 0 5.41 2.42 5.41 5.41s-2.43 5.41-5.41 5.41c-2.99 0-5.41-2.42-5.41-5.41s2.42-5.41 5.41-5.41zm-18.92 0c2.99 0 5.4 2.42 5.4 5.41s-2.41 5.41-5.4 5.41a5.41 5.41 0 1 1 0-10.82zm-18.93 0c2.99 0 5.42 2.42 5.42 5.41S84 25.3 81.01 25.3c-2.99 0-5.41-2.42-5.41-5.41s2.42-5.41 5.41-5.41zm159.8 260.06h30.9c2.88 0 5.23 2.36 5.23 5.24 0 2.88-2.35 5.24-5.23 5.24h-30.9c-2.89 0-5.24-2.36-5.24-5.24 0-2.88 2.35-5.24 5.24-5.24z"/></svg>