<svg xmlns="http://www.w3.org/2000/svg" xml:space="preserve" width="512" height="294" shape-rendering="geometricPrecision" text-rendering="geometricPrecision" image-rendering="optimizeQuality" fill-rule="evenodd" clip-rule="evenodd" viewBox="0 0 512 293.53">
    <path d="M12.36 268.8h49.69a8.948 8.948 0 0 1-3.17-6.83V8.98c0-4.94 4.05-8.98 8.99-8.98h376.25c4.95 0 8.99 4.04 8.99 8.98v252.99c0 2.73-1.23 5.18-3.17 6.83h49.7c3.4 0 6.49 1.4 8.73 3.63 2.24 2.25 3.63 5.34 3.63 8.74 0 3.39-1.39 6.48-3.63 8.72-2.25 2.25-5.34 3.64-8.73 3.64H12.36c-3.39 0-6.48-1.39-8.72-3.63-2.25-2.25-3.64-5.34-3.64-8.73 0-3.4 1.39-6.49 3.63-8.73s5.33-3.64 8.73-3.64zm164.06-149.97c-3.02 0-5.62-2.59-5.62-5.77 0-3.03 2.6-5.62 5.62-5.62h8.37c5.2.14 9.81 1.15 13.71 3.6 7.55 4.78 8.89 11.62 10.82 19.34h52.03c1.91 4.73 5.35 8.69 9.71 11.26h-25.09v-.01H212.5l12.84 48.34h91.05l11.97-48.34h-29.68v.01h-4.27c4.36-2.57 7.8-6.53 9.71-11.26h31.46c3.17 0 5.62 2.6 5.62 5.63 0 .57-.14 1.15-.29 1.73l-14.71 59.3c-.58 2.6-2.89 4.33-5.49 4.33h-92.34c2.02 7.5 4.04 11.54 6.78 13.42 3.32 2.16 9.09 2.3 18.76 2.16h65.36c3.18 0 5.63 2.6 5.63 5.63 0 3.17-2.6 5.62-5.63 5.62h-65.22c-11.97.15-19.33-.14-25.25-4.04-6.06-4.03-9.23-10.96-12.41-23.51l-19.33-73.16c0-.14 0-.14-.15-.29-.86-3.17-2.31-5.34-4.33-6.49-2.01-1.3-4.76-1.88-7.93-1.88h-8.23zm81.12-59.26c3.92-6.79 12.68-9.13 19.46-5.22 6.79 3.92 9.14 12.68 5.22 19.47-8.1 14.03-16.18 27.92-24.28 41.95-1.95 3.38-5.1 5.65-8.61 6.59-3.51.94-7.38.55-10.76-1.4a14.152 14.152 0 0 1-6.6-8.62c-.94-3.51-.54-7.38 1.41-10.75 8.1-14.05 16.05-27.97 24.16-42.02zm35.7 20.91c3.67-6.63 12.03-9.03 18.66-5.35 1.81 1 3.3 2.34 4.44 3.9l-23.55 13.88c-1.77-3.84-1.76-8.44.45-12.43zm2.54 35.63c1.98 3.92 2.05 8.72-.24 12.85-3.67 6.63-12.03 9.03-18.66 5.36a13.826 13.826 0 0 1-4.71-4.29l23.61-13.92zm-24.25-.46c3.67-6.62 12.03-9.02 18.66-5.35 1.81 1 3.29 2.35 4.44 3.91l-23.54 13.87c-1.78-3.84-1.77-8.45.44-12.43zm45.96-34.72c1.98 3.92 2.05 8.72-.25 12.86-3.67 6.63-12.02 9.03-18.65 5.35a13.726 13.726 0 0 1-4.71-4.29l23.61-13.92zm-51.91 15.35L246.56 85.3l-10.32 17.88c-1.51 2.61-1.82 5.6-1.09 8.33.74 2.72 2.49 5.17 5.1 6.67 2.62 1.51 5.61 1.82 8.34 1.08 2.71-.73 5.16-2.48 6.67-5.1l10.32-17.88zm22.24 57.25c0-1.78 1.75-3.22 3.92-3.22s3.93 1.44 3.93 3.22v21.76c0 1.78-1.76 3.22-3.93 3.22s-3.92-1.44-3.92-3.22v-21.76zm-23.51 0c0-1.78 1.76-3.22 3.93-3.22 2.16 0 3.92 1.44 3.92 3.22v21.76c0 1.78-1.76 3.22-3.92 3.22-2.17 0-3.93-1.44-3.93-3.22v-21.76zm-23.5 0c0-1.78 1.75-3.22 3.93-3.22 2.16 0 3.92 1.44 3.92 3.22v21.76c0 1.78-1.76 3.22-3.92 3.22-2.18 0-3.93-1.44-3.93-3.22v-21.76zm61.58 81.31c7.65 0 13.85 6.21 13.85 13.86 0 3.25-1.12 6.23-2.99 8.6h125.14V37.37H73.6V257.3h157.19c-1.88-2.37-3-5.35-3-8.6 0-7.65 6.2-13.86 13.85-13.86 7.65 0 13.85 6.21 13.85 13.86 0 3.25-1.12 6.23-2.99 8.6h39.03a13.826 13.826 0 0 1-2.99-8.6c0-7.65 6.2-13.86 13.85-13.86zM118.86 14.48c2.98 0 5.41 2.42 5.41 5.41s-2.43 5.41-5.41 5.41c-2.99 0-5.41-2.42-5.41-5.41s2.42-5.41 5.41-5.41zm-18.92 0c2.99 0 5.4 2.42 5.4 5.41s-2.41 5.41-5.4 5.41a5.41 5.41 0 1 1 0-10.82zm-18.93 0c2.99 0 5.42 2.42 5.42 5.41S84 25.3 81.01 25.3c-2.99 0-5.41-2.42-5.41-5.41s2.42-5.41 5.41-5.41zm159.8 260.06h30.9c2.88 0 5.23 2.36 5.23 5.24 0 2.88-2.35 5.24-5.23 5.24h-30.9c-2.89 0-5.24-2.36-5.24-5.24 0-2.88 2.35-5.24 5.24-5.24z"/>
</svg>
