<svg xmlns="http://www.w3.org/2000/svg" xml:space="preserve" width="348" height="512" shape-rendering="geometricPrecision" text-rendering="geometricPrecision" image-rendering="optimizeQuality" fill-rule="evenodd" clip-rule="evenodd" viewBox="0 0 348 511.27"><path d="M55.24 0h183.62c15.23 0 29.13 6.22 39.04 16.2 10.05 10.06 16.18 23.89 16.18 39.05v70.25h-19.11V54.72H19.03v379.83h255.94V290.84h19.11v165.2c0 15.24-6.21 29.15-16.18 39.04-10.07 10.07-23.89 16.19-39.04 16.19H55.24c-15.25 0-29.15-6.2-39.05-16.19C6.13 485.04 0 471.21 0 456.04V55.17c0-15.24 6.2-29.15 16.19-39.06C26.24 6.07 39.99 0 55.24 0zM348 163.56v77.18c0 5.25-4.28 9.54-9.54 9.54h-53.55l-22.4 19.93c-2.25 2.52-6.5.96-6.5-2.48l-1.12-17.45h-16.41c-5.24 0-9.54-4.3-9.54-9.54v-77.18c0-5.22 4.32-9.53 9.54-9.53h99.98c5.22 0 9.54 4.3 9.54 9.53zm-89.08 31.18c-2.7 0-4.9-2.19-4.9-4.89 0-2.7 2.2-4.9 4.9-4.9H322c2.7 0 4.89 2.2 4.89 4.9s-2.19 4.89-4.89 4.89h-63.08zm0 26.1c-2.7 0-4.9-2.19-4.9-4.89 0-2.71 2.2-4.9 4.9-4.9h51.44c2.7 0 4.89 2.19 4.89 4.9 0 2.7-2.19 4.89-4.89 4.89h-51.44zM44.89 75.96h26.68c2.66 0 4.84 2.18 4.84 4.84v5.15l15.41-9.26v29.22L76.41 97.6v6.7c0 2.66-2.18 4.83-4.84 4.83H44.89c-2.67 0-4.84-2.17-4.84-4.83V80.8a4.85 4.85 0 0 1 4.84-4.84zm79.05 207.98 25.4 17.7 23.84-19.86c-1.32-2.02-2.67-4.68-3.72-7.45 10.59 7.44 12.88 23.08 12.53 35.72-.05 1.59-.1 2.05-.13 2.58-6.66 1.49-11.4 7.4-11.4 14.22 0 4.02 1.63 7.67 4.27 10.3 5.14 5.14 12.63 6.31 19.23 1.16 3.41-2.67 5.6-6.82 5.6-11.48 0-2.45-.65-4.66-1.77-6.61-2.45-4.24-5.11-5.49-9.18-7.52-.29-.15.01-.77.06-2.5.22-7.65-.32-15.74-2.39-23 1.8.94 3.68 1.69 5.61 2.32 6.41 1.51 14.79 1.66 22.25 3.74 35.89 10.03 33.83 23.44 38.66 65.23-.51 5.35-3.54 8.43-9.51 8.88H50.78c-5.96-.45-9-3.55-9.51-8.88 2.74-46.02 15.46-62.73 57.89-68.95 3.78-.55 7.35-1.28 10.51-2.13-1.49 4.54-2.32 9.09-2.58 13.03-1.71 1.25-5.96 2.71-7.31 4.34a61.858 61.858 0 0 0-6.3 9.03c-.3.51-.46 1.09-.46 1.67 0 .46.49.93.28 1.33l-.31.6c-4.24 8.26-7.01 17.35-5.69 21.27.61 1.86 2.09 3.08 4.27 3.76a20.32 20.32 0 0 0 6.69.6c.89.82 2.22 1.44 3.43 1.44a4.1 4.1 0 0 0 3.73-5.8c-1.68-3.87-6.91-2.83-7.49-.76-.07.23-.01.33-.11.51-.35.02-.7.04-1.05.04-1.28 0-2.57-.13-3.81-.46-.73-.19-1.16-.48-1.25-.79-.95-2.74 1.64-10.35 5.38-17.7.15-.3.3-.6.46-.89a3.23 3.23 0 0 0 1.7-1.45 55 55 0 0 1 5.57-8.03c.65-.77 2.71-1.98 4.25-2.53.84-.29 1.33-.51 2.01.01.88.66 1.7 1.41 2.43 2.24 2.23 2.52 4.2 5.29 5.88 8.21.38.66 1.29.8 1.69 1.45 4.31 6.99 6.75 15.02 6.17 18.07-.13.72-.72 1.15-1.65 1.45-1.39.36-2.84.57-4.28.6-.27-.55-.07-.26-.23-.8-.35-1.2-2.25-1.75-3.6-1.8-1.7-.05-3.21 1.07-3.89 2.63-1.19 2.72.7 5.8 3.73 5.8 1.12 0 2.3-.53 3.17-1.21.19 0 .39.01.58.01 2.03 0 4.07-.24 6-.84 2.48-.79 4.23-2.35 4.73-4.99.72-3.98-2.17-12.78-6.44-20.75.17-.42.26-.87.26-1.32 0-.6-.16-1.19-.46-1.71a58.001 58.001 0 0 0-6.7-9.31c-1.35-1.53-4.34-1.97-4.65-3.99-.82-5.28 1.46-11.82 4.88-17.5 3.56-4.43 1.97-5.15 8.48-7.71-1.77-1.32-3.45-2.87-5.12-4.32-6.58-5.68-12.08-10.51-13.13-22.15-9.77-.87-14.04-20.68-6.92-26.8-2.34-1.55 4.34-35.06-12.37-40.11 26.8-33.11 56.22-39.2 80.87-18.92 25.64 1.34 38 38.42 20.57 58.38 8.65 1.94 5.41 16.82 1.75 22.33-2.13 3.22-4.96 5.35-8.24 5.15-.22 10.62-5.42 15.53-12.2 21.9-4.33 4.09-7.57 7.2-13.43 9.3-6.91 2.46-15.84 2.41-22.78.04-2.72-.93-6.14-2.32-8.54-3.81-1.04 3.04-2.28 5.6-3.7 7.79zm61.25 36.37a6.67 6.67 0 0 1 6.67 6.68c0 3.68-2.98 6.67-6.67 6.67s-6.68-2.99-6.68-6.67a6.68 6.68 0 0 1 6.68-6.68zm-27.2-45.86c4.55-1.84 7.21-4.54 10.63-7.79 6.51-6.11 11.31-10.62 10.39-21.58-.04-.59.11-1.2.45-1.73a2.745 2.745 0 0 1 3.79-.76c1.84 1.22 3.67.02 5.04-2.04 1.82-2.76 4.33-10.66 2.07-13.57-.64-.83-2.39-.5-5.74 2.05-.6.52-1.41.78-2.26.64a2.732 2.732 0 0 1-2.23-3.16c2.39-13.95 1.19-22.6-1.86-28.34-2.66-4.99-6.92-7.93-11.44-10.34-10.07 7.69-17.16 8.57-24.23 9.44-5.82.71-11.63 1.44-19.32 6.76-3.64 2.52-6.07 5.57-7.3 9.11-1.25 3.57-1.34 7.75-.32 12.46.23.83.06 1.77-.53 2.48-.95 1.17-2.69 1.33-3.85.37-3.35-2.77-5.26-3.04-6.09-2.03-3.14 3.81-.01 18.35 5.5 16.66l.73-.11a2.735 2.735 0 0 1 2.8 2.66c.27 11.36 5.29 15.8 11.41 21.07 4.01 3.48 7.07 6.3 12.31 8.09 6.45 2.2 13.61 1.65 20.05-.34zm-11.02 177.38c12.5 0 22.71 10.06 22.71 22.7 0 12.51-10.06 22.72-22.71 22.72-12.5 0-22.72-10.05-22.72-22.72 0-12.48 10.06-22.7 22.72-22.7z"/></svg>