<svg xmlns="http://www.w3.org/2000/svg" shape-rendering="geometricPrecision" text-rendering="geometricPrecision" image-rendering="optimizeQuality" fill-rule="evenodd" clip-rule="evenodd" viewBox="0 0 512 309.33"><path d="M484.92 78.96c27.65 3.51 38.42-41.74 5.56-48.15L226.65 6.74c-15.47-1.78-30.19-1.79-44.04-1.64-95.69 1-97.49 86.47-7.72 71.73l-12.51-2.97a23.776 23.776 0 0 1-14.76-10.69 23.72 23.72 0 0 1-3.03-17.47l.19-.88c1.57-6.21 5.5-11.26 10.6-14.4 5.09-3.14 11.35-4.39 17.59-3.02l67.22 15.98 85.16.78c6.55.07 12.44 2.77 16.68 7.08a23.698 23.698 0 0 1 6.82 16.51l136.07 11.21zm-84.68 145.47-94.05-94.06H156.81v143.7c1.5 3.2 2.34 6.77 2.34 10.53 0 13.66-11.06 24.73-24.72 24.73-13.65 0-24.72-11.07-24.72-24.73s11.07-24.72 24.72-24.72c2.83 0 5.54.48 8.07 1.35v-36.81l-94.05-94.05H4.16c-2.26 0-4.16-1.86-4.16-4.15v-21.98c0-2.29 1.87-4.15 4.16-4.15h503.68c2.29 0 4.16 1.89 4.16 4.15v21.98c0 2.27-1.88 4.15-4.16 4.15h-93.29v143.71c1.51 3.19 2.35 6.76 2.35 10.52 0 13.66-11.07 24.73-24.73 24.73s-24.72-11.07-24.72-24.73 11.06-24.72 24.72-24.72c2.83 0 5.54.47 8.07 1.35v-36.8zm-83.92-94.06 83.92 83.93v-83.93h-83.92zm75.85 145.49c4.83 0 8.74 3.91 8.74 8.74s-3.91 8.74-8.74 8.74-8.74-3.91-8.74-8.74 3.91-8.74 8.74-8.74zM58.58 130.37l83.92 83.93v-83.93H58.58zm75.85 145.49c4.83 0 8.74 3.91 8.74 8.74s-3.91 8.74-8.74 8.74-8.74-3.91-8.74-8.74 3.91-8.74 8.74-8.74zM57.52 0c24.28 0 43.96 19.68 43.96 43.96S81.8 87.93 57.52 87.93 13.56 68.24 13.56 43.96C13.56 19.68 33.24 0 57.52 0zm106.53 66.8c-8.9-2.11-14.41-11.04-12.3-19.95 2.11-8.9 11.04-14.41 19.95-12.3l67.51 16.05 86.02.78c9.13.07 16.46 7.53 16.39 16.65-.07 9.12-7.52 16.46-16.64 16.39l-86.78-.8c-1.66.13-3.37 0-5.08-.4L164.05 66.8z"/></svg>