<svg xmlns="http://www.w3.org/2000/svg" shape-rendering="geometricPrecision" text-rendering="geometricPrecision" image-rendering="optimizeQuality" fill-rule="evenodd" clip-rule="evenodd" viewBox="0 0 512 444.97"><path d="m235.51 272.75 58.39 40.17 58.38-40.17H235.51zM52.37 0C76.46 0 96 19.53 96 43.63S76.46 87.26 52.37 87.26c-24.1 0-43.63-19.53-43.63-43.63S28.27 0 52.37 0zm68.08 150.67c-22.5-10.3-10.79-48.78 16.95-29.41l55.51 38.79 85.75 1.73c9.18.07 16.56 7.57 16.49 16.75-.07 9.18-7.57 16.56-16.75 16.49l-86.51-1.74c-1.67.13-3.39 0-5.11-.41l-66.33-42.2zm338.7 36.7c30.23 3.83 42-45.64 6.08-52.64l-230.46-6.75c-29.08-2.89-58.7-64.08-113.79-61.52-33.9 1.58-46.21 34.57-20.08 65.67.04-4.33 1.07-8.57 2.97-12.19l.26-.46c2.05-3.69 5.02-6.78 8.81-8.81 7.37-3.94 17.38-3.75 28.87 4.28l53.59 37.44 83.48 1.69a24.24 24.24 0 0 1 16.99 7.25 24.276 24.276 0 0 1 6.98 17.26c-.03 3.89-.97 7.56-2.62 10.81l25.71-1.39 133.21-.64zM1.08 134.93l127.49 103.23c2.29 2.3 2.91 2.36 6.12 2.36h374.48c1.56 0 2.83-1.27 2.83-2.82v-26.13c0-1.55-1.33-2.83-2.83-2.83H151.19c-.34 0-.7.07-1.03.19L29.35 106.66c-1.48-1.26-3.65-1.37-5.02 0L1.08 129.91c-1.37 1.37-1.51 3.8 0 5.02zm391.96 244.71c18.04 0 32.66 14.63 32.66 32.67s-14.62 32.66-32.66 32.66-32.67-14.62-32.67-32.66c0-9.59 4.13-18.23 10.72-24.2l-77.2-53.18-71.86 49.51c9.37 5.74 15.62 16.07 15.62 27.87 0 18.04-14.62 32.66-32.66 32.66s-32.67-14.62-32.67-32.66c0-14.34 9.24-26.52 22.09-30.91l.3-.23 83.21-57.25-74.25-51.17h-87.73c-1.96 0-3.61-1.62-3.61-3.6v-10.99c0-1.99 1.63-3.61 3.61-3.61h385.74c1.98 0 3.61 1.65 3.61 3.61v10.99c0 1.96-1.65 3.6-3.61 3.6H384.12l-74.25 51.17 81.09 55.79c.69-.04 1.38-.07 2.08-.07zm0 21.12c6.37 0 11.54 5.17 11.54 11.55 0 6.37-5.17 11.54-11.54 11.54-6.38 0-11.55-5.17-11.55-11.54 0-6.38 5.17-11.55 11.55-11.55zm-188.05 0c6.37 0 11.54 5.17 11.54 11.55 0 6.37-5.17 11.54-11.54 11.54-6.38 0-11.55-5.17-11.55-11.54 0-6.38 5.17-11.55 11.55-11.55z"/></svg>