<svg xmlns="http://www.w3.org/2000/svg" shape-rendering="geometricPrecision" text-rendering="geometricPrecision" image-rendering="optimizeQuality" fill-rule="evenodd" clip-rule="evenodd" viewBox="0 0 511.39 511.39"><path d="M433.77 76.01c31.94 31.95 21.82 93.88-22.63 138.33-36.6 36.6-85.07 49.92-118.88 35.62-27.48 2.85-50.93 13.46-63.51 28.02-52.79 61.11 2.5 91.22-61.94 151.33-21.74 20.28-50.2 34.09-78.41 35.63-10.95.6-21.94-.17-32.96-2.49 72.47-11.99 102.79-42.63 115.28-74.91 18.14-46.87-6.02-74.25 29.23-118.26 16.88-21.09 37.68-36.46 61.83-47.56-17.33-33.9-4.48-84.93 33.67-123.08C339.9 54.2 401.83 44.07 433.77 76.01zM236.66 11.66c19.99 19.99 13.65 58.72-14.15 86.52-22.9 22.9-53.22 31.24-74.37 22.29-17.19 1.79-31.86 8.42-39.73 17.53-33.02 38.22 1.57 57.07-38.74 94.66-13.61 12.69-31.41 21.33-49.05 22.29-6.86.37-13.73-.11-20.62-1.55 45.33-7.5 64.3-26.67 72.11-46.87 11.35-29.32-3.76-46.44 18.28-73.97 10.57-13.19 23.58-22.81 38.68-29.75-10.84-21.21-2.8-53.13 21.07-77 27.8-27.8 66.54-34.14 86.52-14.15zm263.07 263.07c-19.99-19.99-58.73-13.65-86.53 14.15-22.9 22.9-31.23 53.22-22.29 74.37-1.78 17.18-8.42 31.85-17.53 39.73-38.22 33.02-57.06-1.57-94.65 38.74-12.69 13.6-21.33 31.4-22.3 49.05-.37 6.85.11 13.73 1.56 20.62 7.5-45.33 26.66-64.3 46.86-72.12 29.33-11.34 46.44 3.77 73.98-18.28 13.19-10.56 22.81-23.57 29.75-38.68 21.21 10.85 53.12 2.8 76.99-21.06 27.81-27.8 34.14-66.54 14.16-86.52z"/></svg>