<svg xmlns="http://www.w3.org/2000/svg" shape-rendering="geometricPrecision" text-rendering="geometricPrecision" image-rendering="optimizeQuality" fill-rule="evenodd" clip-rule="evenodd" viewBox="0 0 505 512.16"><path d="M94.44 288.37h405.98c2.52 0 4.58 2.06 4.58 4.58v13.96c0 2.52-2.06 4.58-4.58 4.58h-87.8l-94.3 64.98 104.16 71.66c14.28 3.41 24.89 16.25 24.89 31.57 0 17.93-14.53 32.46-32.46 32.46-17.92 0-32.45-14.53-32.45-32.46 0-9.44 4.03-17.93 10.46-23.86l-94.9-65.39-97.9 67.46c5.22 5.76 8.41 13.4 8.41 21.79 0 17.93-14.53 32.46-32.46 32.46s-32.46-14.53-32.46-32.46c0-17.5 13.86-31.77 31.21-32.43l102.91-70.8-94.3-64.98H94.44c-2.52 0-4.58-2.06-4.58-4.58v-13.96c0-2.52 2.06-4.58 4.58-4.58zm321.14 179.88c-1.11.65-2.47.79-3.72.39-4.85 1.34-8.42 5.79-8.42 11.06 0 6.34 5.14 11.48 11.47 11.48 6.34 0 11.48-5.14 11.48-11.48 0-6.11-4.78-11.1-10.81-11.45zm-239.51-.02c6.34 0 11.47 5.14 11.47 11.47 0 6.34-5.13 11.48-11.47 11.48-6.34 0-11.47-5.14-11.47-11.48 0-6.33 5.13-11.47 11.47-11.47zM326.68 27.19c.1-1.37.88-2.37 1.94-2.98.85-.56 1.88-.75 2.78-.75h44.35V3.68A3.69 3.69 0 0 1 379.43 0h8.93c2.03 0 3.68 1.67 3.68 3.68v19.78h41.55c.72 0 1.36.62 1.36 1.36v5.75c0 .75-.62 1.36-1.36 1.36h-41.55v198.25h108.08c1.95 0 3.59 1.62 3.59 3.59v33.19a3.6 3.6 0 0 1-3.59 3.59H97.27c-4.08 0-4.86-.08-7.77-3L1.31 179.37c-1.74-1.75-1.75-4.63 0-6.38l29.53-29.53c1.75-1.75 4.62-1.75 6.38 0l86.72 86.72h144.75c.9-49.18 20.31-64.68 36.56-77.63 9.95-7.94 18.54-14.8 19.26-29.22h-6.14v-8.34h-.05c-20.46-22.05-16.29-29.69-16.29-63.38 0-2.65 2.18-4.82 4.83-4.82h19.82v-19.6zm9.16 4.74v14.86h15.86c2.65 0 4.82 2.17 4.82 4.82 0 34.51 4.6 41.4-17.27 63.27v8.45h-5.61v.39c-.91 18.6-11.01 26.66-22.7 35.98-14.67 11.71-32.2 25.69-33.09 70.48h97.9V31.93h-39.91zm36.33 279.56H223.88l74.14 51.02 74.15-51.02z"/></svg>