<svg id="Layer_1" data-name="Layer 1" xmlns="http://www.w3.org/2000/svg" viewBox="0 0 122.88 67.08"><defs><style>.cls-1{fill-rule:evenodd;}</style></defs><title>surgical-mask</title><path class="cls-1" d="M23.49,48ZM19.54,14.28c-6.68-1.34-11.09.38-13.38,3.48A10.64,10.64,0,0,0,4.22,22.9a15.16,15.16,0,0,0,.66,6.2c1.83,5.81,7,11.25,15.36,12.46l-.59,4.1C9.54,44.18,3.19,37.49.93,30.34a19.26,19.26,0,0,1-.82-7.91A14.72,14.72,0,0,1,2.84,15.3c3.2-4.32,9-6.79,17.51-5.08l-.81,4.06Zm83-4.06C111,8.51,116.84,11,120,15.3a14.82,14.82,0,0,1,2.73,7.13,19.26,19.26,0,0,1-.82,7.91c-2.26,7.15-8.61,13.84-18.72,15.32l-.59-4.1C111,40.35,116.17,34.91,118,29.1a15.16,15.16,0,0,0,.66-6.2,10.74,10.74,0,0,0-1.94-5.14c-2.3-3.1-6.7-4.82-13.38-3.48l-.81-4.06ZM34.94,23c21.1-3.35,32.18-3.25,53,.09-20,3.63-33,3.85-53-.09Zm1.73,21.83c13.94,6,33.7,6,49.54-.22-11.51,10.25-30.56,16.93-49.54.22ZM29.52,32.21a162.17,162.17,0,0,0,63.84-.06,70.17,70.17,0,0,1-14.65,5.51C62.43,42.13,44.29,41,29.52,32.21Zm-6-20.27a2,2,0,0,1,2-2c6-.58,10.94-2.68,15.85-4.78,1.76-.75,3.51-1.5,5.23-2.15A38.77,38.77,0,0,1,62.27,0c4.9.19,9.72,1.49,15.47,3.7,1.81.69,3.64,1.45,5.43,2.2C88.25,8,93,10,97.55,10.38a2,2,0,0,1,1.84,2V48A2,2,0,0,1,99,49.22a32.49,32.49,0,0,1-7.44,7.84,51.15,51.15,0,0,1-26.3,9.83A47.3,47.3,0,0,1,35.3,59.8,45.6,45.6,0,0,1,23.91,49.22,2.06,2.06,0,0,1,23.48,48V11.94Z"/></svg>