<svg xmlns="http://www.w3.org/2000/svg" shape-rendering="geometricPrecision" text-rendering="geometricPrecision" image-rendering="optimizeQuality" fill-rule="evenodd" clip-rule="evenodd" viewBox="0 0 367 512.01"><path fill-rule="nonzero" d="M253.43 457.49c11.57-.99 20.98-4.07 27.18-10.52 6.45-6.7 10.07-17.66 9.95-34.44l-.02-55.54c-.11-4.04-.19-9.06 0-13.93.23-5.75.84-11.44 2.16-15.63 4.69-14.88 12.64-21.75 20.98-28.93 2.15-1.86 4.37-3.77 6.42-5.78 1.95-1.93 3.87-4.04 5.63-6.5 1.73-2.42 3.38-5.29 4.87-8.75l.19-.42c1.89-4.51 3.29-9.43 4.19-14.72.78-4.51 1.21-9.24 1.32-14.13-21.04-19.31-51.94-29.07-83-29.07-30.84 0-61.6 9.63-82.75 29.07.11 4.9.54 9.62 1.32 14.13.93 5.43 2.39 10.5 4.38 15.14l.18.45c1.41 3.21 3.01 5.95 4.69 8.3 1.76 2.46 3.68 4.57 5.63 6.5 2.05 2.01 4.27 3.92 6.42 5.78 8.33 7.18 16.29 14.05 20.98 28.93 1.32 4.2 1.92 9.89 2.15 15.63.2 5.1.11 10.39 0 14.54l-.01 55.82c0 16.29 3.61 26.97 9.95 33.55 6.19 6.45 15.61 9.53 27.19 10.52zm52.27-344.44c3.82 3.15 4.38 8.81 1.23 12.63-3.15 3.83-8.81 4.38-12.64 1.23-10.32-8.48-25.29-12.57-40.44-12.55-15.58.03-31.12 4.43-41.81 12.86-3.9 3.07-9.57 2.39-12.63-1.51-3.07-3.9-2.39-9.57 1.51-12.63 13.85-10.92 33.5-16.62 52.93-16.66 19.03-.03 38.16 5.38 51.85 16.63zm57.91-77.97c3.88 3.08 4.52 8.75 1.44 12.63-3.09 3.88-8.75 4.53-12.63 1.44-26.28-20.82-62.42-31.13-98.69-31.13-36.53 0-72.96 10.46-99.33 31.17-3.9 3.06-9.57 2.39-12.63-1.51-3.07-3.91-2.39-9.57 1.51-12.64C172.94 11.76 213.41 0 253.73 0c40.08 0 80.28 11.62 109.88 35.08zm-25.11 41.6c3.8 3.18 4.31 8.86 1.12 12.66-3.18 3.8-8.86 4.31-12.67 1.12-19.31-16.19-46.3-24.25-73.39-24.25-27.25 0-54.37 8.13-73.7 24.25-3.8 3.17-9.47 2.65-12.63-1.15-3.17-3.8-2.65-9.47 1.15-12.63 22.71-18.93 54.01-28.48 85.18-28.48 31.05 0 62.26 9.46 84.94 28.48zm-75.98 398.55-.17 1.4c-1.6 11.61-6.96 20.26-14.29 26.15-7.18 5.77-16.16 8.75-25.28 9.17l-.18.01c-3.04.12-6.11-.01-9.07-.42-23.16-3.2-37.3-27.44-52.81-54.05-22.27-38.17-47.95-82.19-105.68-54.61-10.64 5.09-19.28 13.48-25.48 23.57-6.65 10.82-10.45 23.5-10.87 36.11-.16 5.16-4.48 9.21-9.64 9.05-5.15-.15-9.2-4.47-9.05-9.63.54-15.92 5.28-31.84 13.59-45.35 7.96-12.97 19.27-23.85 33.39-30.6 73.3-35.02 103.64 16.99 129.94 62.09 13.1 22.46 25.04 42.92 39.18 44.88 1.91.26 3.85.35 5.72.28l.08-.01c5.34-.24 10.48-1.9 14.43-5.07 3.57-2.87 6.28-7.2 7.32-13.08-12.35-2.16-22.88-6.83-30.9-15.18-9.66-10.06-15.15-24.97-15.14-46.58-.49-9.9-1.33-48.03 0-56.02.11-3.83.19-8.78.01-13.55-.17-4.22-.55-8.25-1.36-10.79-3.09-9.8-9.07-14.96-15.33-20.36-2.38-2.06-4.83-4.16-7.3-6.59-2.65-2.6-5.28-5.52-7.76-8.98a63.688 63.688 0 0 1-6.61-11.71l-.23-.49c-2.58-6-4.44-12.47-5.63-19.39-1.1-6.37-1.61-13.23-1.56-20.49l-.01-.13-.01-.23v-.16l-.01-.06v-.23c-.44-10.77-.01-22.49-.01-33.32.04-9.75.05-14.7 3.11-20.04 3.01-5.26 7.5-8.17 16.52-14l.63-.41c10.88-7.02 24.13-12.41 38.13-16.07 14.68-3.85 30.37-5.83 45.05-5.87 14.46.04 28.9 1.96 42.49 5.7 13.4 3.68 26.02 9.12 37.06 16.24l.65.42c9.03 5.87 13.52 8.77 16.5 13.99 3.11 5.43 3.11 10.33 3.11 20.04v33.32c.04 7.57-.46 14.7-1.6 21.3-1.15 6.69-2.96 13-5.42 18.88l-.21.51c-2.02 4.7-4.35 8.71-6.84 12.2-2.48 3.46-5.11 6.38-7.76 8.98-2.47 2.43-4.92 4.53-7.3 6.59-6.26 5.4-12.24 10.56-15.33 20.36-.81 2.55-1.2 6.57-1.37 10.79-.17 4.42-.1 9 0 12.7l.06 56.01c.11 22.08-5.39 37.25-15.18 47.44-8.18 8.51-18.93 13.19-31.58 15.29zm-18.47-112.9c0-5.18 4.2-9.39 9.38-9.39 5.18 0 9.38 4.21 9.38 9.39v50.11a9.38 9.38 0 0 1-18.76 0v-50.11zm92.25-137.98-.02-13.49c0-6.42 0-9.67-.61-10.73-.79-1.4-3.96-3.46-10.33-7.56l-.67-.4c-9.5-6.13-20.35-10.81-31.85-13.97-12.02-3.31-24.8-5.01-37.58-5.05-13.08.04-27.12 1.83-40.36 5.29-12.11 3.17-23.47 7.77-32.7 13.73l-.64.41c-6.4 4.13-9.6 6.2-10.36 7.55-.65 1.14-.65 4.36-.65 10.73.13 4.11.24 8.65.29 13.29 23.4-15.9 53-23.78 82.48-23.78 29.77 0 59.61 8.04 83 23.98z"/></svg>