<svg xmlns="http://www.w3.org/2000/svg" shape-rendering="geometricPrecision" text-rendering="geometricPrecision" image-rendering="optimizeQuality" fill-rule="evenodd" clip-rule="evenodd" viewBox="0 0 512 371.8"><path fill-rule="nonzero" d="M7.49 0h434.98v152.39c-4.93.19-9.96.66-14.98 1.39V14.95h.04H14.94v234.23h355.27c.57 1.75 1.21 3.45 1.92 5.1l.18.39c1.55 3.53 3.31 6.53 5.18 9.15l.24.34h-98.41v29.83h12.76v18.54H149.85v-18.54h12.76v-29.83H0V0h7.49zm452.74 351.23-.09.78c-.9 6.49-3.9 11.34-8 14.63-4.01 3.23-9.04 4.9-14.14 5.13l-.1.01c-1.7.07-3.42-.01-5.07-.24-12.96-1.79-20.87-15.35-29.55-30.24-12.46-21.35-26.82-45.98-59.12-30.55-5.96 2.85-10.79 7.55-14.26 13.19-3.72 6.05-5.84 13.15-6.08 20.2a5.228 5.228 0 0 1-5.39 5.06c-2.89-.08-5.15-2.5-5.06-5.38.29-8.91 2.95-17.82 7.59-25.37 4.46-7.26 10.79-13.35 18.69-17.13 41-19.59 57.98 9.51 72.69 34.74 7.33 12.57 14.01 24.01 21.92 25.11 1.07.14 2.15.2 3.2.16l.05-.01c2.98-.14 5.86-1.06 8.07-2.84 2-1.6 3.52-4.02 4.09-7.32-6.9-1.2-12.79-3.81-17.28-8.49-5.41-5.63-8.48-13.96-8.47-26.06-.27-5.54-.75-26.86 0-31.34.06-2.14.11-4.91.01-7.57-.09-2.37-.32-4.62-.76-6.04-1.73-5.49-5.08-8.37-8.58-11.4-1.34-1.15-2.71-2.32-4.09-3.68-1.48-1.46-2.95-3.09-4.34-5.02-1.39-1.96-2.7-4.2-3.83-6.83-1.44-3.38-2.48-7-3.15-10.85-.61-3.56-.89-7.4-.87-11.46v-.08l-.01-.12v-.1l-.01-.03v-.12c-.24-6.03 0-12.59 0-18.65.02-5.45.03-8.22 1.74-11.21 1.68-2.94 4.19-4.57 9.24-7.83l.36-.23c6.08-3.93 13.49-6.94 21.32-8.99 8.22-2.15 16.99-3.26 25.21-3.28 8.09.02 16.17 1.1 23.77 3.18 7.5 2.06 14.56 5.11 20.73 9.09l.37.24c5.05 3.28 7.56 4.9 9.23 7.82 1.74 3.04 1.74 5.78 1.74 11.21v18.65c.02 4.23-.26 8.22-.9 11.91-.66 3.87-1.71 7.49-3.15 10.85a36.732 36.732 0 0 1-3.82 6.83c-1.39 1.93-2.86 3.56-4.35 5.02-1.38 1.36-2.75 2.53-4.08 3.68-3.5 3.03-6.85 5.91-8.58 11.4-.45 1.42-.66 3.67-.75 6.04-.1 2.47-.07 5.03-.01 7.1l.03 31.33c.07 12.35-3.01 20.84-8.49 26.54-4.57 4.76-10.59 7.38-17.67 8.56zm-10.33-63.17c0-2.89 2.35-5.25 5.25-5.25 2.89 0 5.25 2.36 5.25 5.25v28.04a5.25 5.25 0 1 1-10.5 0v-28.04zm51.61-63.85c-11.77-10.8-29.06-16.26-46.44-16.26-17.25 0-34.46 5.39-46.29 16.27.06 2.73.3 5.38.74 7.9.52 3.05 1.33 5.88 2.44 8.47.84 1.93 1.76 3.54 2.73 4.89.99 1.38 2.06 2.56 3.15 3.64 1.15 1.13 2.39 2.19 3.6 3.23 4.66 4.02 9.11 7.86 11.73 16.19.74 2.34 1.08 5.53 1.21 8.74.11 2.86.06 5.82-.01 8.14v31.23c0 9.11 2.02 15.08 5.56 18.77 3.47 3.61 8.74 5.33 15.22 5.88 6.47-.55 11.74-2.27 15.2-5.88 3.61-3.75 5.64-9.88 5.57-19.27l-.01-31.07c-.06-2.27-.1-5.08 0-7.8.13-3.21.47-6.39 1.21-8.74 2.62-8.33 7.07-12.17 11.73-16.19 1.21-1.04 2.45-2.1 3.59-3.23 1.1-1.08 2.17-2.26 3.15-3.64a25.51 25.51 0 0 0 2.73-4.87c1.12-2.62 1.93-5.45 2.45-8.49.43-2.52.68-5.17.74-7.91zm-92.58-13.45c13.09-8.89 29.65-13.31 46.14-13.31 16.66 0 33.35 4.5 46.44 13.42l-.01-7.55c0-3.59 0-5.41-.34-6-.45-.78-2.22-1.93-5.78-4.23l-.38-.22c-5.31-3.43-11.38-6.05-17.82-7.82-6.72-1.85-13.87-2.8-21.02-2.82-7.32.02-15.18 1.02-22.58 2.96-6.77 1.77-13.13 4.34-18.29 7.68l-.36.23c-3.59 2.31-5.37 3.47-5.8 4.22-.36.64-.36 2.44-.36 6 .07 2.3.13 4.84.16 7.44zM87.45 174.05l58.96-126.26c1.18-2.5 4.16-3.59 6.67-2.42 45.44 21.16 90.86 22.56 136.21.04 2.49-1.22 5.51-.2 6.73 2.28l59.01 126.36c1.17 2.51.08 5.5-2.43 6.68-43.76 21.49-87.55 32.22-131.36 32.21-43.86 0-87.68-10.77-131.45-32.25a5.026 5.026 0 0 1-2.34-6.64zm65.95-117.5L98.64 173.81c40.9 19.38 81.78 29.09 122.6 29.09 40.82.01 81.69-9.68 122.59-29.08L289.11 56.64c-45.26 20.96-90.51 19.73-135.71-.09z"/></svg>