<svg xmlns="http://www.w3.org/2000/svg" shape-rendering="geometricPrecision" text-rendering="geometricPrecision" image-rendering="optimizeQuality" fill-rule="evenodd" clip-rule="evenodd" viewBox="0 0 512 459.75"><path fill-rule="nonzero" d="M5.84 459.75C-12.5 324.09 16.01 255.28 40.97 195.07 72.17 119.82 76.71 80 70.44 0h13.02c6.21 82.28 1.51 122.89-30.49 200.06-.95 2.3-1.91 4.62-2.87 6.96 93.89 28.87 183.11 35.54 268.18 22.54 1.32.74 2.69 1.41 4.12 2.02a64.564 64.564 0 0 0-2.14 16.49v50.7c-22.23 18.09-42.99 38.33-62.91 60.5.19.88.21 1.81.01 2.74-4.13 19.46-7.07 43.72-8.69 70.5-.54 8.84-.93 17.95-1.18 27.24H234.5c.24-9.56.64-18.92 1.2-28 1.25-20.71 3.28-39.99 6.03-56.82h-23.64c3.1 16.83 5.36 35.92 6.77 56.33.64 9.25 1.1 18.77 1.38 28.49h-13c-.28-9.41-.73-18.65-1.35-27.62-1.82-26.31-5.09-50.33-9.78-69.97-.04-.18-.07-.36-.1-.54-47.7-55.94-100.4-96.73-164.21-123.38-18.82 51.43-33.37 115.69-18.86 221.51H5.84zM382.43 210.1h6.78v-17.28c0-2.04.84-3.89 2.18-5.25l.03-.02a7.385 7.385 0 0 1 5.24-2.18h9.95v-17.68h-41.54c-7.5 0-9.5-3.54-11.39-7.34L341.28 140c-.18-.3-.33-.61-.46-.94-.54-1.43-.78-2.83-.78-4.19 0-2.72.95-5.24 2.52-7.29 1.48-1.93 3.54-3.47 5.86-4.34 1.46-.55 3.01-.85 4.57-.85h115.93c3.56.02 6.77 1.48 9.08 3.8 2.32 2.33 3.76 5.54 3.76 9.05l-.02 19.59c-.02 3.56-1.44 6.78-3.74 9.09a12.787 12.787 0 0 1-9.08 3.77h-18.33v17.68h9.95c2.04 0 3.89.83 5.24 2.18l.03.02c1.34 1.36 2.18 3.21 2.18 5.25v17.28h6.77c10.24 0 19.56 4.2 26.3 10.94 6.75 6.77 10.94 16.08 10.94 26.31v159.16c0 10.22-4.19 19.52-10.94 26.28l-.02.02c-6.76 6.75-16.07 10.94-26.28 10.94h-92.33c-10.24 0-19.55-4.19-26.3-10.94-6.74-6.74-10.94-16.06-10.94-26.3V247.35c0-10.25 4.2-19.56 10.94-26.31 6.74-6.74 16.06-10.94 26.3-10.94zm46.17 72.43c12.24 0 23.33 4.97 31.37 13l.02.02c8.03 8.04 13.01 19.13 13.01 31.38 0 12.24-4.98 23.33-13.01 31.37l-.02.02c-8.04 8.03-19.13 13.01-31.37 13.01-12.25 0-23.34-4.98-31.38-13.01l-.02-.02c-8.03-8.04-13.01-19.13-13.01-31.37 0-12.25 4.98-23.34 13.01-31.38l.02-.02c8.04-8.03 19.13-13 31.38-13zm22.92 21.48a32.316 32.316 0 0 0-22.92-9.48c-8.96 0-17.07 3.62-22.93 9.48a32.314 32.314 0 0 0-9.47 22.92c0 8.95 3.62 17.06 9.47 22.92a32.355 32.355 0 0 0 22.93 9.47c8.95 0 17.06-3.62 22.92-9.47a32.349 32.349 0 0 0 9.47-22.92c0-8.96-3.62-17.07-9.47-22.92zm-95.14 79.39h144.44V270.46H356.38V383.4zm144.44 11.18H356.38v11.93c0 7.16 2.93 13.68 7.65 18.4 4.73 4.72 11.25 7.66 18.4 7.66h92.33c7.17 0 13.69-2.93 18.4-7.64l.02-.02c4.71-4.71 7.64-11.23 7.64-18.4v-11.93zm-144.44-135.3h144.44v-11.93c0-7.17-2.94-13.69-7.65-18.42-4.73-4.71-11.25-7.64-18.41-7.64h-79.44a8.7 8.7 0 0 1-.52.02c-.17 0-.34-.01-.51-.02h-11.86c-7.16 0-13.67 2.93-18.4 7.66-4.72 4.72-7.65 11.23-7.65 18.4v11.93zm112.54-125.72-115.93.01c-.23 0-.45.04-.64.11-.37.14-.69.38-.92.67-.13.17-.21.36-.21.52l12.27 20.15c.38.76.74 1.49 1.58 1.49h103.85c.47 0 .89-.17 1.17-.46.31-.31.51-.76.51-1.24v-19.56c-.02-.47-.21-.9-.51-1.2-.3-.31-.72-.5-1.17-.49zm-51.13 51.81h21.62v-17.54h-21.62v17.54zm-17.4 24.73h56.42v-13.55h-56.42v13.55zm-169-26.71c4.58 0 8.29 2.77 8.29 6.19 0 3.42-3.71 6.19-8.29 6.19-4.58 0-8.29-2.77-8.29-6.19 0-3.42 3.71-6.19 8.29-6.19zM371.16 88.7c-1.89-32.17 5.03-64.35 7.87-88.7h13.04c-2.83 23.85-10.23 56.32-7.93 88.7h-12.98z"/></svg>