<svg id="Layer_1" data-name="Layer 1" xmlns="http://www.w3.org/2000/svg" viewBox="0 0 76.19 122.88"><defs><style>.cls-1{fill:#f44336;fill-rule:evenodd;}</style></defs><title>no-cross</title><path class="cls-1" d="M38.1,0A38.1,38.1,0,1,1,0,38.09,38.09,38.09,0,0,1,38.1,0ZM21.94,30.83c-1.34-1.32-2.42-2.15-.74-3.78l5.42-5.29c1.71-1.74,2.72-1.65,4.32,0l7.31,7.3,7.26-7.26c1.32-1.34,2.15-2.42,3.78-.74l5.29,5.42c1.74,1.72,1.65,2.73,0,4.32l-7.3,7.3,7.3,7.31c1.64,1.59,1.73,2.6,0,4.32l-5.29,5.42c-1.63,1.68-2.46.6-3.78-.74l-7.26-7.26-7.31,7.3c-1.6,1.64-2.61,1.73-4.32,0L21.2,49.14c-1.68-1.63-.6-2.46.74-3.78l7.26-7.27-7.26-7.26Z"/><path d="M9.81,122.63V91.46h6.46l11,17.36V91.46h8.14v31.17H28.9L18,105.26v17.37Zm43.23.25a23.38,23.38,0,0,1-5.81-.65,8.9,8.9,0,0,1-4.17-2.33,10.51,10.51,0,0,1-2.52-4.8A32,32,0,0,1,39.7,107a32,32,0,0,1,.84-8.08,10.51,10.51,0,0,1,2.52-4.8,9,9,0,0,1,4.17-2.33A23.38,23.38,0,0,1,53,91.16a23.32,23.32,0,0,1,5.81.65A9,9,0,0,1,63,94.14a10.5,10.5,0,0,1,2.51,4.8,32,32,0,0,1,.84,8.08,32,32,0,0,1-.84,8.08A10.5,10.5,0,0,1,63,119.9a8.93,8.93,0,0,1-4.18,2.33,23.32,23.32,0,0,1-5.81.65Zm0-7.3a7.56,7.56,0,0,0,2.6-.38,3.06,3.06,0,0,0,1.58-1.3,6.84,6.84,0,0,0,.79-2.6,31.4,31.4,0,0,0,.23-4.28,32.44,32.44,0,0,0-.23-4.4,6.67,6.67,0,0,0-.79-2.58,2.86,2.86,0,0,0-1.58-1.24,10,10,0,0,0-5.18,0A2.81,2.81,0,0,0,48.87,100a6.49,6.49,0,0,0-.8,2.58,34.17,34.17,0,0,0-.23,4.4,33.11,33.11,0,0,0,.23,4.28,6.65,6.65,0,0,0,.8,2.6,3,3,0,0,0,1.59,1.3,7.64,7.64,0,0,0,2.58.38Z"/></svg>