<svg id="Layer_1" data-name="Layer 1" xmlns="http://www.w3.org/2000/svg" viewBox="0 0 122.88 121.86"><defs><style>.cls-1{fill:#de4c3c;}.cls-1,.cls-2,.cls-3,.cls-4{fill-rule:evenodd;}.cls-2{fill:#c84436;}.cls-3{fill:#fff;}.cls-4{fill:#303030;}</style></defs><title>reject</title><path class="cls-1" d="M61.44,0a14.05,14.05,0,0,1,8.45,2.65c3.3,2.1,7,6.23,11.61,8.86C88,15.21,99.9,10.12,106,19.21c3.57,5.31,3.74,9.46,4,13.57.29,4.43,1.07,8.51,5.6,14.51,7.51,9.93,9.07,16.54,5.21,23.43-2.64,4.69-8.2,7.3-9.48,10.28-2.74,6.33.29,11.1-3.46,18.48a19.67,19.67,0,0,1-12,10.2c-4.5,1.46-9-.64-12.63.87-6.34,2.67-11,8.86-16.06,10.42a19.47,19.47,0,0,1-11.64,0c-5-1.56-9.72-7.75-16.06-10.42-3.61-1.51-8.13.59-12.63-.87A19.67,19.67,0,0,1,15,99.48C11.23,92.1,14.26,87.33,11.52,81,10.24,78,4.68,75.41,2,70.72c-3.87-6.89-2.3-13.5,5.21-23.43,4.53-6,5.31-10.08,5.6-14.51.26-4.11.43-8.26,4-13.57,6.13-9.09,18.08-4,24.53-7.69C46,8.89,49.69,4.76,53,2.66A14.05,14.05,0,0,1,61.44,0Z"/><path class="cls-2" d="M111,38.83a27.25,27.25,0,0,0,4.59,8.46c7.51,9.93,9.07,16.54,5.2,23.43-2.63,4.69-8.19,7.3-9.47,10.28-2.74,6.33.29,11.1-3.46,18.47a19.68,19.68,0,0,1-12,10.21c-4.5,1.46-9-.64-12.63.87-6.34,2.67-11,8.86-16.06,10.42a19.47,19.47,0,0,1-11.64,0c-5-1.56-9.72-7.75-16.06-10.42-3.61-1.51-8.13.59-12.63-.87A19.66,19.66,0,0,1,15,99.47a18.15,18.15,0,0,1-2-6.91l98-53.73Z"/><path class="cls-3" d="M61.26,25.5A36.37,36.37,0,1,1,24.89,61.87,36.37,36.37,0,0,1,61.26,25.5Z"/><path class="cls-4" d="M44.87,54.5c-1.36-1.35-2.46-2.19-.75-3.84l5.5-5.37c1.74-1.76,2.76-1.67,4.38,0l7.42,7.41,7.37-7.36c1.34-1.37,2.18-2.46,3.83-.76L78,50.07c1.77,1.75,1.68,2.77,0,4.39l-7.41,7.41L78,69.28c1.67,1.62,1.76,2.64,0,4.39l-5.37,5.5c-1.65,1.7-2.49.61-3.83-.76l-7.37-7.36L54,78.46c-1.62,1.66-2.64,1.75-4.38,0l-5.5-5.37c-1.71-1.65-.61-2.49.75-3.84l7.37-7.37L44.87,54.5Z"/></svg>