<svg xmlns="http://www.w3.org/2000/svg" shape-rendering="geometricPrecision" text-rendering="geometricPrecision" image-rendering="optimizeQuality" fill-rule="evenodd" clip-rule="evenodd" viewBox="0 0 512 512"><path d="M256 0c70.68 0 134.69 28.66 181.02 74.98C483.34 121.3 512 185.31 512 256c0 70.68-28.66 134.69-74.98 181.02C390.69 483.34 326.68 512 256 512c-70.69 0-134.7-28.66-181.02-74.98C28.66 390.69 0 326.68 0 256c0-70.69 28.66-134.7 74.98-181.02C121.3 28.66 185.31 0 256 0zm-91.6 236.61c18.39 10.59 30.36 19.4 44.61 35.11 36.96-59.51 77.08-92.47 129.26-139.26l5.1-1.97h57.09c-76.55 85.02-135.9 155.12-189.04 257.63-27.67-59.16-52.33-99.99-107.51-137.85l60.49-13.66z"/></svg>