<?xml version="1.0" encoding="utf-8"?><svg version="1.1" id="Layer_1" xmlns="http://www.w3.org/2000/svg" xmlns:xlink="http://www.w3.org/1999/xlink" x="0px" y="0px" viewBox="0 0 122.88 79.71" style="enable-background:new 0 0 122.88 79.71" xml:space="preserve"><style type="text/css">.st0{fill-rule:evenodd;clip-rule:evenodd;fill:#FF4141;} .st1{fill-rule:evenodd;clip-rule:evenodd;fill:#6BBE66;} .st2{fill:#262626;}</style><g><path class="st0" d="M97.57,29.08c13.98,0,25.31,11.33,25.31,25.31c0,13.98-11.33,25.31-25.31,25.31 c-13.98,0-25.31-11.33-25.31-25.31C72.26,40.42,83.59,29.08,97.57,29.08L97.57,29.08L97.57,29.08z M102.52,45.21 c1.13-1.15,2.97-1.16,4.11-0.01c1.14,1.14,1.14,3,0.01,4.15l-4.97,5.04l4.97,5.05c1.12,1.14,1.11,2.99-0.03,4.13 c-1.14,1.14-2.98,1.14-4.1-0.01l-4.94-5.01l-4.95,5.02c-1.13,1.15-2.97,1.16-4.11,0.01c-1.14-1.14-1.14-3-0.01-4.15l4.97-5.04 l-4.98-5.05c-1.12-1.14-1.11-2.99,0.03-4.13c1.14-1.14,2.98-1.14,4.1,0.01l4.94,5.01L102.52,45.21L102.52,45.21L102.52,45.21z"/><path class="st1" d="M27.28,29.09c13.98,0,25.31,11.33,25.31,25.31c0,13.98-11.33,25.31-25.31,25.31 C13.3,79.7,1.97,68.37,1.97,54.4C1.97,40.42,13.3,29.09,27.28,29.09L27.28,29.09L27.28,29.09z M16.08,55.07 c0.34-1.97,2.59-3.06,4.36-2c0.16,0.1,0.31,0.21,0.46,0.34l0.01,0.01c0.8,0.76,1.69,1.56,2.57,2.34l0.76,0.68l9-9.44 c0.54-0.56,0.93-0.93,1.74-1.11c2.76-0.61,4.7,2.76,2.74,4.83L26.51,62.5c-1.06,1.13-2.94,1.23-4.08,0.15 c-0.65-0.6-1.36-1.22-2.07-1.84c-1.24-1.08-2.5-2.18-3.53-3.26C16.2,56.93,15.94,55.92,16.08,55.07L16.08,55.07L16.08,55.07z"/><path class="st2" d="M0,0.3h6.14l3.62,6.04l3.61-6.04h6.1l-6.96,10.4v7.49H6.97V10.7L0,0.3L0,0.3z M21.23,0.3h14.81v3.82h-9.27 v2.85h8.6v3.65h-8.6v3.52h9.54v4.05H21.23V0.3L21.23,0.3z M38.33,12.28l5.26-0.33c0.11,0.85,0.35,1.51,0.7,1.95 c0.57,0.72,1.38,1.08,2.44,1.08c0.79,0,1.4-0.18,1.82-0.55c0.42-0.37,0.64-0.8,0.64-1.29c0-0.46-0.2-0.88-0.61-1.25 c-0.41-0.37-1.35-0.71-2.83-1.04c-2.42-0.55-4.15-1.27-5.19-2.17C39.52,7.79,39,6.64,39,5.24c0-0.92,0.27-1.79,0.8-2.61 c0.53-0.82,1.33-1.46,2.4-1.93C43.27,0.23,44.74,0,46.6,0c2.29,0,4.03,0.42,5.23,1.27c1.2,0.85,1.91,2.2,2.14,4.06l-5.21,0.3 c-0.14-0.8-0.43-1.39-0.87-1.76c-0.44-0.36-1.05-0.55-1.83-0.55c-0.65,0-1.13,0.14-1.45,0.41c-0.32,0.27-0.49,0.6-0.49,1 c0,0.28,0.13,0.54,0.4,0.77c0.26,0.24,0.88,0.45,1.86,0.66c2.42,0.52,4.14,1.05,5.19,1.58c1.05,0.53,1.81,1.2,2.28,1.98 c0.48,0.79,0.71,1.67,0.71,2.65c0,1.15-0.32,2.2-0.95,3.17c-0.64,0.97-1.52,1.7-2.66,2.2c-1.14,0.5-2.57,0.75-4.31,0.75 c-3.05,0-5.15-0.59-6.32-1.76C39.15,15.57,38.48,14.08,38.33,12.28L38.33,12.28z"/><path class="st2" d="M78.25,0.3h5.17l6.74,9.9V0.3h5.21V18.2h-5.21l-6.7-9.82v9.82h-5.2V0.3L78.25,0.3z M98.34,9.26 c0-2.92,0.81-5.19,2.44-6.82c1.63-1.63,3.89-2.44,6.8-2.44c2.98,0,5.27,0.8,6.89,2.4c1.61,1.6,2.42,3.84,2.42,6.71 c0,2.09-0.35,3.81-1.06,5.14c-0.7,1.34-1.72,2.38-3.05,3.12c-1.33,0.75-2.99,1.12-4.97,1.12c-2.02,0-3.69-0.32-5.01-0.96 c-1.32-0.65-2.39-1.66-3.22-3.05C98.75,13.09,98.34,11.35,98.34,9.26L98.34,9.26z M103.87,9.28c0,1.81,0.33,3.11,1,3.89 c0.67,0.79,1.59,1.18,2.74,1.18c1.19,0,2.11-0.39,2.76-1.16c0.65-0.77,0.98-2.16,0.98-4.16c0-1.69-0.34-2.92-1.02-3.69 c-0.68-0.78-1.6-1.17-2.77-1.17c-1.11,0-2.01,0.4-2.68,1.18C104.21,6.16,103.87,7.46,103.87,9.28L103.87,9.28z"/></g></svg>