<svg id="Layer_1" data-name="Layer 1" xmlns="http://www.w3.org/2000/svg" viewBox="0 0 76.2 122.88"><defs><style>.cls-1{fill:#00a912;}.cls-1,.cls-2{fill-rule:evenodd;}.cls-2{fill:#fff;}</style></defs><title>yes-checkmark</title><path class="cls-1" d="M38.1,0A38.1,38.1,0,1,1,0,38.1,38.1,38.1,0,0,1,38.1,0Z"/><path class="cls-2" d="M26.28,32.05,33,38.42,49,22.25c1.32-1.35,2.15-2.42,3.78-.74l5.29,5.42c1.74,1.72,1.65,2.72,0,4.32l-22,21.67c-3.45,3.39-2.85,3.59-6.36.12L17.37,40.78a1.52,1.52,0,0,1,.15-2.37L23.66,32c.93-1,1.67-.9,2.62,0Z"/><path d="M9.59,122.63v-8.86l-9-22.32H9l4.83,14,4.82-14h8.1l-9,22.32v8.86Zm27.17.25a16.59,16.59,0,0,1-2.41-.21,8.4,8.4,0,0,1-2.73-.92,5.69,5.69,0,0,1-2.2-2.21,8,8,0,0,1-.89-4.09V99.17a8.71,8.71,0,0,1,.72-3.77A6.31,6.31,0,0,1,31.09,93a7.17,7.17,0,0,1,2.52-1.21,10.66,10.66,0,0,1,2.69-.36q3.53,0,6.06.11c1.69.07,3.16.14,4.41.23s2.34.18,3.29.29V99H38.81a2.45,2.45,0,0,0-1.59.46,1.73,1.73,0,0,0-.55,1.39v2.6l11.29.42v6.46l-11.29.42v2.35a2.8,2.8,0,0,0,.24,1.24,1.5,1.5,0,0,0,.65.71,1.8,1.8,0,0,0,.92.23H50.06v6.88q-1.8.25-4.11.42c-1.54.12-3.11.2-4.7.26s-3.09.08-4.49.08Zm27.42,0c-.92,0-1.83,0-2.71-.08s-1.75-.14-2.6-.26-1.67-.23-2.45-.37-1.54-.31-2.27-.51V115.2c1,.08,2,.15,3.08.21s2.23.1,3.36.13,2.19,0,3.17,0a10.71,10.71,0,0,0,2.31-.21,2.79,2.79,0,0,0,1.38-.67,1.7,1.7,0,0,0,.46-1.26v-.5a1.58,1.58,0,0,0-.65-1.39,2.54,2.54,0,0,0-1.53-.46H63.51c-3.25,0-5.71-.72-7.39-2.14s-2.51-3.82-2.51-7.18v-1.38q0-4.62,2.76-6.9t8-2.29a33.45,33.45,0,0,1,3.71.19c1.16.12,2.25.28,3.27.46s1.94.37,2.75.57v6.46c-1.29-.11-2.73-.2-4.34-.27s-3.07-.11-4.39-.11a11.86,11.86,0,0,0-2.09.17,2.56,2.56,0,0,0-1.43.67,2,2,0,0,0-.51,1.47v.42a1.92,1.92,0,0,0,.68,1.59,3.16,3.16,0,0,0,2,.55h2.77a9.77,9.77,0,0,1,4.89,1.11,7.3,7.3,0,0,1,2.94,3,9.4,9.4,0,0,1,1,4.34v1.39a11.08,11.08,0,0,1-1.38,6.08,6.74,6.74,0,0,1-4,2.83,22.28,22.28,0,0,1-6.12.74Z"/></svg>