<?xml version="1.0" encoding="utf-8"?><svg version="1.1" id="Layer_1" xmlns="http://www.w3.org/2000/svg" xmlns:xlink="http://www.w3.org/1999/xlink" x="0px" y="0px" viewBox="0 0 122.88 122.88" style="enable-background:new 0 0 122.88 122.88" xml:space="preserve"><style type="text/css">.st0{fill-rule:evenodd;clip-rule:evenodd;fill:#FBD433;} .st1{fill-rule:evenodd;clip-rule:evenodd;fill:#141518;} .st2{fill:#FFFF00;}</style><g><path class="st0" d="M45.54,2.11c32.77-8.78,66.45,10.67,75.23,43.43c8.78,32.77-10.67,66.45-43.43,75.23 c-32.77,8.78-66.45-10.67-75.23-43.43C-6.67,44.57,12.77,10.89,45.54,2.11L45.54,2.11z"/><path class="st1" d="M47.31,32.51c0.55,0.17,1.07,0.44,1.57,0.78c3.17,1.66,6.26,3.8,9.27,6.57c1.46,1.34,1.55,3.62,0.21,5.08 c-1.26,1.37-3.35,1.54-4.81,0.44c-0.24,6.5-3.62,11.65-7.77,11.65c-4.3,0-7.78-5.54-7.78-12.37c0-2.8,0.59-5.39,1.57-7.46 c-3.3-1.03-6.74-1.63-10.34-2.02c-1.97-0.21-3.4-1.98-3.19-3.95c0.21-1.97,1.98-3.4,3.95-3.19c5.01,0.54,9.81,1.47,14.49,3.28 C45.43,31.67,46.37,32.07,47.31,32.51L47.31,32.51z M28.61,94.7c16.69-19.06,51.02-19.23,65.78,0.04l2.41-2.39 c-16.54-28.07-51.56-29.07-70.7-0.15L28.61,94.7L28.61,94.7z M92.89,28.02c1.97-0.21,3.74,1.22,3.95,3.19 c0.21,1.97-1.22,3.74-3.19,3.95c-3.6,0.39-7.05,0.99-10.34,2.02c0.99,2.07,1.57,4.66,1.57,7.46c0,6.83-3.48,12.37-7.78,12.37 c-4.15,0-7.53-5.15-7.77-11.65c-1.46,1.1-3.54,0.94-4.81-0.44c-1.34-1.46-1.25-3.73,0.21-5.08c3.01-2.77,6.1-4.91,9.27-6.57 c0.5-0.34,1.02-0.61,1.57-0.78c0.94-0.44,1.88-0.84,2.83-1.21C83.08,29.49,87.88,28.56,92.89,28.02L92.89,28.02z"/><path class="st2" d="M28.6,94.38c1.66-1.87,3.49-3.56,5.45-5.06c8.08-6.19,18.43-9.26,28.58-9.19c10.16,0.07,20.13,3.29,27.45,9.7 c1.58,1.38,3.03,2.91,4.33,4.58l2.1-2.09c-3.79-6.39-8.55-11.36-13.86-14.88c-6.09-4.03-12.91-6.15-19.82-6.3 c-6.92-0.15-13.94,1.66-20.44,5.49c-5.92,3.49-11.42,8.66-16,15.54L28.6,94.38L28.6,94.38z M34.32,89.67 c-2,1.53-3.86,3.26-5.54,5.17l-0.02,0.02c-0.09,0.09-0.23,0.09-0.32,0l-2.51-2.5c-0.08-0.07-0.09-0.2-0.03-0.29 c4.65-7.02,10.23-12.28,16.25-15.83c6.57-3.87,13.68-5.71,20.68-5.55c7,0.15,13.9,2.3,20.06,6.38c5.4,3.58,10.24,8.64,14.08,15.16 c0.06,0.09,0.05,0.21-0.03,0.28l-2.43,2.41c-0.1,0.07-0.24,0.06-0.31-0.04c-1.33-1.73-2.81-3.3-4.43-4.72 c-7.23-6.33-17.1-9.52-27.15-9.59C52.56,80.5,42.31,83.55,34.32,89.67L34.32,89.67z"/></g></svg>