<?xml version="1.0" encoding="utf-8"?><svg version="1.1" id="Layer_1" xmlns="http://www.w3.org/2000/svg" xmlns:xlink="http://www.w3.org/1999/xlink" x="0px" y="0px" viewBox="0 0 122.88 122.88" style="enable-background:new 0 0 122.88 122.88" xml:space="preserve"><style type="text/css">.st0{fill-rule:evenodd;clip-rule:evenodd;}</style><g><path class="st0" d="M61.44,0c33.93,0,61.44,27.51,61.44,61.44c0,33.93-27.51,61.44-61.44,61.44S0,95.37,0,61.44 C0,27.51,27.51,0,61.44,0L61.44,0z M38.37,44.07c2.79,0,5.05,2.26,5.05,5.05c0,2.79-2.26,5.05-5.05,5.05s-5.05-2.26-5.05-5.05 C33.32,46.33,35.58,44.07,38.37,44.07L38.37,44.07z M82.8,44.07c2.79,0,5.05,2.26,5.05,5.05c0,2.79-2.26,5.05-5.05,5.05 c-2.79,0-5.05-2.26-5.05-5.05C77.75,46.33,80.01,44.07,82.8,44.07L82.8,44.07z M39.66,88.6c-1.68,0-3.03-1.36-3.03-3.03 c0-1.68,1.36-3.03,3.03-3.03h43.57c1.68,0,3.03,1.36,3.03,3.03c0,1.68-1.36,3.03-3.03,3.03H39.66L39.66,88.6z M82.94,28.67 c1.49-0.95,3.47-0.51,4.41,0.98c0.95,1.49,0.51,3.47-0.98,4.41l-14.39,9.19c-1.49,0.95-3.47,0.51-4.41-0.98 c-0.95-1.49-0.51-3.47,0.98-4.41L82.94,28.67L82.94,28.67z M34.19,34.06c-1.49-0.95-1.93-2.93-0.98-4.41 c0.95-1.49,2.93-1.93,4.41-0.98l14.39,9.19c1.49,0.95,1.93,2.93,0.98,4.41c-0.95,1.49-2.93,1.93-4.41,0.98L34.19,34.06L34.19,34.06 z"/></g></svg>