<?xml version="1.0" encoding="utf-8"?><svg version="1.1" id="Layer_1" xmlns="http://www.w3.org/2000/svg" xmlns:xlink="http://www.w3.org/1999/xlink" x="0px" y="0px" viewBox="0 0 122.88 122.88" style="enable-background:new 0 0 122.88 122.88" xml:space="preserve"><g><path d="M61.44,0L61.44,0l0,0.02c16.97,0,32.33,6.87,43.44,17.98c11.11,11.11,17.98,26.47,17.98,43.44h0.01v0.01h-0.01 c0,16.97-6.87,32.33-17.98,43.44c-11.11,11.11-26.47,17.98-43.44,17.98v0.02h-0.01v-0.02c-16.97,0-32.33-6.87-43.44-17.98 C6.89,93.77,0.02,78.41,0.02,61.44H0v-0.01h0.02C0.02,44.47,6.89,29.11,18,18C29.11,6.89,44.47,0.02,61.43,0.02L61.44,0L61.44,0 L61.44,0z M82.8,44.07c2.79,0,5.05,2.26,5.05,5.05c0,2.79-2.26,5.05-5.05,5.05c-2.79,0-5.05-2.26-5.05-5.05 C77.75,46.33,80.01,44.07,82.8,44.07L82.8,44.07z M39.65,88.6c-1.68,0-3.03-1.36-3.03-3.03c0-1.68,1.36-3.03,3.03-3.03h43.57 c1.68,0,3.03,1.36,3.03,3.03c0,1.68-1.36,3.03-3.03,3.03H39.65L39.65,88.6z M82.94,28.67c1.49-0.95,3.47-0.51,4.41,0.98 c0.95,1.49,0.51,3.47-0.98,4.41l-14.39,9.19c-1.49,0.95-3.47,0.51-4.41-0.98c-0.95-1.49-0.51-3.47,0.98-4.41L82.94,28.67 L82.94,28.67z M34.19,34.06c-1.49-0.95-1.93-2.93-0.98-4.41c0.95-1.49,2.93-1.93,4.41-0.98l14.39,9.19 c1.49,0.95,1.93,2.93,0.98,4.41c-0.95,1.49-2.93,1.93-4.41,0.98L34.19,34.06L34.19,34.06z M38.37,44.07c2.79,0,5.05,2.26,5.05,5.05 c0,2.79-2.26,5.05-5.05,5.05s-5.05-2.26-5.05-5.05C33.32,46.33,35.58,44.07,38.37,44.07L38.37,44.07z M61.44,7.83v0.02h-0.01 L61.44,7.83c-14.79,0-28.19,6.01-37.9,15.72C13.83,33.25,7.83,46.65,7.83,61.44h0.02v0.01H7.83c0,14.79,6.01,28.19,15.71,37.89 c9.71,9.71,23.11,15.71,37.89,15.72v-0.02l0.01,0v0.02c14.79,0,28.19-6.01,37.89-15.72c9.71-9.71,15.71-23.11,15.71-37.89h-0.01 v-0.01h0.01c0-14.78-6.01-28.18-15.71-37.89C89.63,13.84,76.23,7.83,61.44,7.83L61.44,7.83z"/></g></svg>