<?xml version="1.0" encoding="utf-8"?><svg version="1.1" id="Layer_1" xmlns="http://www.w3.org/2000/svg" xmlns:xlink="http://www.w3.org/1999/xlink" x="0px" y="0px" viewBox="0 0 122.88 122.88" style="enable-background:new 0 0 122.88 122.88" xml:space="preserve"><style type="text/css">.st0{fill-rule:evenodd;clip-rule:evenodd;fill:#FBD433;} .st1{fill-rule:evenodd;clip-rule:evenodd;fill:#141518;}</style><g><path class="st0" d="M45.54,2.11c32.77-8.78,66.45,10.67,75.23,43.43c8.78,32.77-10.67,66.45-43.43,75.23 c-32.77,8.78-66.45-10.67-75.23-43.43C-6.67,44.57,12.77,10.89,45.54,2.11L45.54,2.11z"/><path class="st1" d="M41.33,37.83c3.26,1.34,5.65,5.69,5.65,10.84c0,6.23-3.48,11.27-7.78,11.27c-4.3,0-7.78-5.05-7.78-11.27 c0-2.57,0.6-4.94,1.6-6.84c-2.11,1.28-4.21,2.72-6.34,4.27c-1.61,1.17-3.87,0.81-5.04-0.81c-1.17-1.61-0.81-3.87,0.81-5.04 c3.26-2.37,6.52-4.55,10.07-6.41c3.6-1.89,7.39-3.38,11.58-4.29c1.95-0.42,3.87,0.82,4.29,2.77c0.42,1.95-0.82,3.87-2.77,4.29 C44.12,36.94,42.7,37.35,41.33,37.83L41.33,37.83z M100.45,37.1c1.61,1.17,1.98,3.43,0.81,5.04c-1.17,1.61-3.43,1.98-5.04,0.81 c-3.08-2.24-6.09-4.26-9.16-5.87c-3.02-1.58-6.21-2.84-9.77-3.61c-1.95-0.42-3.19-2.34-2.77-4.29c0.42-1.95,2.34-3.19,4.29-2.77 c4.19,0.91,7.97,2.4,11.58,4.29C93.93,32.55,97.19,34.73,100.45,37.1L100.45,37.1z M48.14,94.78c-2.46,0-4.45-1.99-4.45-4.45 s1.99-4.45,4.45-4.45h30.9c2.46,0,4.45,1.99,4.45,4.45s-1.99,4.45-4.45,4.45H48.14L48.14,94.78z M82.41,37.4 c4.3,0,7.78,5.05,7.78,11.27c0,6.23-3.48,11.27-7.78,11.27s-7.78-5.05-7.78-11.27C74.62,42.44,78.11,37.4,82.41,37.4L82.41,37.4z"/></g></svg>