<?xml version="1.0" encoding="utf-8"?><svg version="1.1" id="Layer_1" xmlns="http://www.w3.org/2000/svg" xmlns:xlink="http://www.w3.org/1999/xlink" x="0px" y="0px" viewBox="0 0 122.88 122.88" style="enable-background:new 0 0 122.88 122.88" xml:space="preserve"><g><path d="M61.44,0L61.44,0l0,0.02c16.97,0,32.33,6.87,43.44,17.98c11.11,11.11,17.98,26.47,17.98,43.44h0.01v0.01h-0.01 c0,16.97-6.87,32.33-17.98,43.44c-11.11,11.11-26.47,17.98-43.44,17.98v0.02h-0.01v-0.02c-16.97,0-32.33-6.87-43.44-17.98 C6.89,93.77,0.02,78.42,0.02,61.44H0v-0.01h0.02C0.02,44.47,6.89,29.11,18,18C29.11,6.89,44.47,0.02,61.44,0.02L61.44,0L61.44,0 L61.44,0z M70.09,45.9c-1.09-1.34-0.89-3.31,0.45-4.4c1.34-1.09,3.31-0.89,4.4,0.45c0.2,0.25,0.48,0.51,0.8,0.78 c1.62,1.33,4.11,2.22,6.75,2.36c2.6,0.14,5.27-0.47,7.29-2.11c0.41-0.33,0.81-0.74,1.2-1.21c1.1-1.34,3.07-1.54,4.41-0.44 c1.34,1.1,1.54,3.07,0.44,4.41c-0.63,0.77-1.34,1.46-2.11,2.09c-3.34,2.71-7.55,3.72-11.56,3.51c-3.96-0.21-7.8-1.63-10.4-3.76 C71.16,47.09,70.59,46.52,70.09,45.9L70.09,45.9L70.09,45.9z M39.16,87.92c-1.73,0.07-3.19-1.27-3.26-2.99 c-0.07-1.73,1.27-3.18,2.99-3.26l0.04,0c2.04-0.09,9.31-0.06,17.5-0.03c10.89,0.04,23.45,0.09,27.24-0.13 c1.73-0.1,3.21,1.22,3.31,2.94c0.1,1.72-1.21,3.21-2.94,3.31c-3.81,0.23-16.57,0.18-27.64,0.13c-8.05-0.03-15.19-0.06-17.21,0.03 L39.16,87.92L39.16,87.92L39.16,87.92z M27.04,45.9c-1.09-1.34-0.89-3.31,0.45-4.4c1.34-1.09,3.31-0.89,4.4,0.45 c0.2,0.25,0.48,0.51,0.8,0.78c1.62,1.33,4.11,2.22,6.75,2.36c2.6,0.14,5.27-0.47,7.29-2.11c0.41-0.33,0.81-0.74,1.2-1.21 c1.1-1.34,3.07-1.54,4.41-0.44c1.34,1.1,1.54,3.07,0.44,4.41c-0.63,0.77-1.34,1.46-2.11,2.09c-3.34,2.71-7.55,3.72-11.56,3.51 c-3.96-0.21-7.8-1.63-10.4-3.76C28.11,47.09,27.54,46.52,27.04,45.9L27.04,45.9L27.04,45.9z M61.44,7.83v0.02h-0.01L61.44,7.83 c-14.79,0-28.19,6.01-37.9,15.72C13.83,33.25,7.83,46.65,7.83,61.44h0.02v0.01H7.83c0,14.79,6.01,28.19,15.72,37.89 c9.71,9.71,23.11,15.71,37.9,15.72v-0.02l0.01,0v0.02c14.79,0,28.19-6.01,37.89-15.72c9.71-9.71,15.72-23.11,15.72-37.9h-0.01 v-0.01h0.01c0-14.78-6.01-28.18-15.71-37.89C89.63,13.84,76.23,7.83,61.44,7.83L61.44,7.83z"/></g></svg>