<?xml version="1.0" encoding="utf-8"?><svg version="1.1" id="Layer_1" xmlns="http://www.w3.org/2000/svg" xmlns:xlink="http://www.w3.org/1999/xlink" x="0px" y="0px" viewBox="0 0 122.88 122.88" style="enable-background:new 0 0 122.88 122.88" xml:space="preserve"><g><path d="M61.44,0L61.44,0l0,0.01c16.97,0,32.33,6.87,43.44,17.98c11.11,11.11,17.98,26.47,17.98,43.44l0.01,0v0.01h-0.01 c0,16.97-6.87,32.33-17.98,43.44c-11.11,11.11-26.47,17.98-43.44,17.98v0.01l-0.01,0v-0.01c-16.97,0-32.33-6.87-43.44-17.98 C6.89,93.77,0.02,78.41,0.02,61.44H0v-0.01h0.02C0.02,44.47,6.89,29.11,18,18C29.11,6.89,44.47,0.02,61.44,0.01L61.44,0L61.44,0 L61.44,0z M87.77,77.33c-15.86,13.2-33.31,14.03-52.67,0C44.64,103.03,80.48,102.63,87.77,77.33L87.77,77.33z M52.95,38.32 c0.71,0.17,1.29,0.53,1.77,1.02c2.57-1.44,5.08-2.09,7.52-2.04c2.14,0.05,4.17,0.62,6.11,1.67c1.26-1.25,3.38-1.64,6.94-1.57 c5.83,0.12,12.87-0.12,17.22,0.91c0.55,0.13,1.02,0.37,1.42,0.7l8.58,2.08l-6.19,4.93c0.05,0.8,0.06,1.58,0.06,2.31 c0,8.24-6.68,14.34-14.91,14.34c-8.24,0-14.91-6.1-14.91-14.34c0-1.74,0.03-3.21,0.14-4.47c-1.48-0.96-3-1.49-4.55-1.52 c-1.72-0.04-3.57,0.52-5.56,1.76c0.2,1.42,0.24,2.92,0.24,4.23c0,8.24-6.68,14.34-14.91,14.34c-8.24,0-14.91-6.1-14.91-14.34 c0-0.94,0.01-1.8,0.03-2.6l-6.66-5.23l8.92-1.97c1.3-0.92,3.31-1.21,6.43-1.14C41.56,37.52,48.6,37.28,52.95,38.32L52.95,38.32z M61.44,7.83v0.02h-0.01L61.44,7.83c-14.79,0-28.19,6.01-37.9,15.71C13.84,33.25,7.83,46.65,7.83,61.43l0.01,0v0.01H7.83 c0,14.79,6.01,28.19,15.71,37.89c9.71,9.71,23.11,15.72,37.89,15.72v-0.02l0.01,0v0.02c14.79,0,28.19-6.01,37.89-15.71 c9.71-9.71,15.71-23.11,15.71-37.9l-0.01,0v-0.01h0.02c0-14.78-6.01-28.18-15.71-37.89C89.63,13.83,76.23,7.83,61.44,7.83 L61.44,7.83L61.44,7.83z"/></g></svg>