<?xml version="1.0" encoding="utf-8"?><svg version="1.1" id="Layer_1" xmlns="http://www.w3.org/2000/svg" xmlns:xlink="http://www.w3.org/1999/xlink" x="0px" y="0px" viewBox="0 0 122.88 122.88" style="enable-background:new 0 0 122.88 122.88" xml:space="preserve"><style type="text/css">.st0{fill-rule:evenodd;clip-rule:evenodd;fill:#FBD433;} .st1{fill-rule:evenodd;clip-rule:evenodd;fill:#141518;}</style><g><path class="st0" d="M45.54,2.11c32.77-8.78,66.45,10.67,75.23,43.43c8.78,32.77-10.67,66.45-43.43,75.23 c-32.77,8.78-66.45-10.67-75.23-43.43C-6.67,44.57,12.77,10.89,45.54,2.11L45.54,2.11z"/><path class="st1" d="M45.78,32.27c4.3,0,7.78,5.05,7.78,11.27c0,6.23-3.48,11.27-7.78,11.27c-4.3,0-7.78-5.05-7.78-11.27 C38,37.32,41.48,32.27,45.78,32.27L45.78,32.27z M31.83,51.47c-1.45,6.61-5.77,9.91-5.77,13.21c0,3.31,1.44,6.61,5.77,6.61 c4.33,0,5.78-3.3,5.78-6.61C37.6,61.38,33.27,58.08,31.83,51.47L31.83,51.47L31.83,51.47z M88.68,51.47 c1.45,6.61,5.77,9.91,5.77,13.21c0,3.31-1.44,6.61-5.77,6.61c-4.33,0-5.78-3.3-5.78-6.61C82.91,61.38,87.24,58.08,88.68,51.47 L88.68,51.47L88.68,51.47z M77.1,32.27c4.3,0,7.78,5.05,7.78,11.27c0,6.23-3.48,11.27-7.78,11.27c-4.3,0-7.78-5.05-7.78-11.27 C69.31,37.32,72.8,32.27,77.1,32.27L77.1,32.27z M28.12,94.7c15.54-16.35,49.86-15.85,65.78,0.04l2.41-2.39 C78.6,68.57,43.51,67.84,25.6,92.2L28.12,94.7L28.12,94.7z"/></g></svg>