<?xml version="1.0" encoding="utf-8"?><svg version="1.1" id="Layer_1" xmlns="http://www.w3.org/2000/svg" xmlns:xlink="http://www.w3.org/1999/xlink" x="0px" y="0px" viewBox="0 0 122.88 122.88" style="enable-background:new 0 0 122.88 122.88" xml:space="preserve"><style type="text/css">.st0{fill-rule:evenodd;clip-rule:evenodd;}</style><g><path class="st0" d="M61.44,0c33.93,0,61.44,27.51,61.44,61.44c0,33.93-27.51,61.44-61.44,61.44C27.51,122.88,0,95.37,0,61.44 C0,27.51,27.51,0,61.44,0L61.44,0z M70.68,44.84c-1.16-1.43-0.95-3.54,0.49-4.7c1.43-1.16,3.53-0.95,4.7,0.48 c0.22,0.27,0.51,0.55,0.86,0.84c1.74,1.42,4.39,2.37,7.21,2.52c2.78,0.15,5.63-0.5,7.79-2.25c0.44-0.36,0.87-0.79,1.28-1.29 c1.17-1.43,3.28-1.64,4.71-0.47c1.43,1.17,1.64,3.28,0.47,4.71c-0.67,0.82-1.43,1.56-2.25,2.23c-3.57,2.9-8.07,3.97-12.35,3.74 c-4.24-0.22-8.33-1.74-11.11-4.01C71.82,46.11,71.21,45.5,70.68,44.84L70.68,44.84L70.68,44.84z M31.64,90.01 c-0.88,1.62-2.91,2.22-4.53,1.33c-1.62-0.88-2.22-2.91-1.34-4.53c4.38-8.03,11.24-13.76,19.06-17.14 c5.99-2.59,12.55-3.8,18.98-3.61c6.47,0.19,12.84,1.8,18.39,4.83c6.47,3.53,11.84,8.98,15.04,16.37c0.73,1.69-0.05,3.65-1.74,4.38 c-1.69,0.73-3.66-0.05-4.38-1.74c-2.56-5.93-6.89-10.3-12.1-13.15c-4.62-2.52-9.94-3.86-15.38-4.02 c-5.48-0.16-11.06,0.86-16.15,3.06C40.97,78.62,35.27,83.36,31.64,90.01L31.64,90.01L31.64,90.01z M24.7,44.84 c-1.16-1.43-0.95-3.54,0.49-4.7c1.43-1.16,3.53-0.95,4.7,0.48c0.22,0.27,0.51,0.55,0.86,0.84c1.73,1.42,4.39,2.37,7.21,2.52 c2.78,0.15,5.63-0.5,7.79-2.25c0.44-0.36,0.87-0.79,1.28-1.29c1.17-1.43,3.28-1.64,4.71-0.47c1.43,1.17,1.64,3.28,0.47,4.71 c-0.67,0.82-1.43,1.56-2.25,2.23c-3.57,2.9-8.07,3.97-12.35,3.74c-4.24-0.22-8.33-1.74-11.11-4.01 C25.84,46.11,25.23,45.5,24.7,44.84L24.7,44.84L24.7,44.84z"/></g></svg>