<svg xmlns="http://www.w3.org/2000/svg" shape-rendering="geometricPrecision" text-rendering="geometricPrecision" image-rendering="optimizeQuality" fill-rule="evenodd" clip-rule="evenodd" viewBox="0 0 476 511.93"><path d="M176.42 44.1c68.81-18.44 138.66-4.73 193.62 31.9 36.57-5.56 64.32-29.88 81.81-76 21.67 68.28 23.77 125.05-2.12 165.3a238.957 238.957 0 0 1 18.1 47.04c34.01 126.94-41.31 257.41-168.25 291.42-126.93 34.01-257.4-41.32-291.41-168.25-15.91-59.36-7.9-119.49 18.12-170.17C.37 125.08 2.47 68.31 24.15 0c17.47 46.08 45.18 70.4 81.7 75.98 21.06-14.05 44.75-24.96 70.57-31.88zm167.14 176.69a28.082 28.082 0 0 1 8.48 20.14c0 15.55-12.61 28.15-28.15 28.15-15.37 0-27.85-12.3-28.14-27.6l-44.44 19.23c52.74 72.43 124.24 38.36 148.07-41.23 2.43-8.15 4.54-16.71 6.39-25.62l-62.21 26.93zm-211.12 0c-5.23 5.11-8.49 12.25-8.49 20.14 0 15.55 12.61 28.15 28.15 28.15 15.37 0 27.85-12.3 28.15-27.6l44.44 19.23c-52.75 72.43-124.25 38.36-148.07-41.23-2.44-8.15-4.55-16.71-6.4-25.62l62.22 26.93zm205.09 138.68-17.81 41.45-14.57-34.96c-43.63 6.96-87.26 6.76-130.89-.07l-18.07 30.41-13.94-36.59c-19.26-4.43-38.52-10.12-57.79-17.04 84.22 124.58 236.16 120.15 307.08 0-18 6.87-36 12.45-54.01 16.8z"/></svg>