<?xml version="1.0" encoding="utf-8"?><svg version="1.1" id="Layer_1" xmlns="http://www.w3.org/2000/svg" xmlns:xlink="http://www.w3.org/1999/xlink" x="0px" y="0px" viewBox="0 0 91.01 122.88" style="enable-background:new 0 0 91.01 122.88" xml:space="preserve"><style type="text/css">.st0{fill-rule:evenodd;clip-rule:evenodd;}</style><g><path class="st0" d="M45.5,0L45.5,0c25.03,0,45.5,20.48,45.5,45.5v76.61l-11.45-10.8l-11.43,11.16l-11.43-11.02l-11.43,11.43 l-11.83-11.7l-10.89,11.56l-11.7-11.43L0,121.49V45.5C0,20.48,20.48,0,45.5,0L45.5,0z M72.99,49.47c3.27,0,5.91,2.99,5.91,6.68 c0,1.98-0.76,3.75-1.96,4.98c4.07-1.8,6.91-5.88,6.91-10.62c0-6.41-5.2-11.61-11.61-11.61c-6.41,0-11.61,5.2-11.61,11.61 c0,5.63,4.01,10.32,9.33,11.38c-1.73-1.17-2.88-3.3-2.88-5.74C67.08,52.47,69.73,49.47,72.99,49.47L72.99,49.47z M42.39,49.47 c3.27,0,5.91,2.99,5.91,6.68c0,1.93-0.73,3.68-1.89,4.9c3.98-1.84,6.74-5.87,6.74-10.54c0-6.41-5.2-11.61-11.61-11.61 c-6.41,0-11.61,5.2-11.61,11.61c0,5.68,4.08,10.4,9.46,11.41c-1.75-1.16-2.92-3.31-2.92-5.77C36.47,52.47,39.12,49.47,42.39,49.47 L42.39,49.47z"/></g></svg>