<?xml version="1.0" encoding="utf-8"?><svg version="1.1" id="Layer_1" xmlns="http://www.w3.org/2000/svg" xmlns:xlink="http://www.w3.org/1999/xlink" x="0px" y="0px" viewBox="0 0 122.88 122.88" style="enable-background:new 0 0 122.88 122.88" xml:space="preserve"><g><path d="M77.1,47.09c-0.41,1.4-1.89,2.21-3.29,1.8c-1.4-0.41-2.21-1.89-1.79-3.29c0.95-3.22,2.71-5.74,4.93-7.52 c2.2-1.77,4.9-2.8,7.72-2.96c2.76-0.16,5.61,0.51,8.21,2.07c2.77,1.66,5.24,4.32,6.95,8.05c0.61,1.33,0.02,2.9-1.31,3.51 c-1.33,0.61-2.9,0.02-3.51-1.31c-1.23-2.68-2.96-4.57-4.86-5.71c-1.66-0.99-3.47-1.42-5.2-1.32c-1.71,0.1-3.35,0.71-4.71,1.79 C78.85,43.33,77.73,44.97,77.1,47.09L77.1,47.09z M101.53,52.18c-0.79,50.6-79.69,50.6-80.49,0 C45.46,81.81,71.86,85.95,101.53,52.18L101.53,52.18z M61.44,0L61.44,0l0,0.01c16.97,0,32.33,6.87,43.44,17.98 c11.11,11.11,17.98,26.47,17.98,43.44l0.01,0v0.01h-0.01c0,16.97-6.87,32.33-17.98,43.44c-11.11,11.11-26.47,17.98-43.44,17.98 v0.01l-0.01,0v-0.01c-16.97,0-32.33-6.87-43.44-17.98C6.89,93.77,0.02,78.41,0.02,61.44H0v-0.01h0.02C0.02,44.47,6.89,29.11,18,18 C29.11,6.89,44.47,0.02,61.44,0.01L61.44,0L61.44,0L61.44,0z M61.44,7.83v0.02h-0.01L61.44,7.83c-14.79,0-28.19,6.01-37.9,15.71 C13.84,33.25,7.83,46.65,7.83,61.43l0.01,0v0.01H7.83c0,14.79,6.01,28.19,15.71,37.89c9.71,9.71,23.11,15.72,37.89,15.72v-0.02 l0.01,0v0.02c14.79,0,28.19-6.01,37.89-15.71c9.71-9.71,15.71-23.11,15.71-37.9l-0.01,0v-0.01h0.02c0-14.78-6.01-28.18-15.71-37.89 C89.63,13.83,76.23,7.83,61.44,7.83L61.44,7.83L61.44,7.83z M27.74,47.09c-0.41,1.4-1.88,2.21-3.29,1.8 c-1.4-0.41-2.21-1.89-1.79-3.29c0.95-3.22,2.71-5.74,4.93-7.52c2.2-1.76,4.91-2.8,7.72-2.96c2.76-0.16,5.61,0.51,8.21,2.07 c2.77,1.66,5.24,4.32,6.95,8.05c0.61,1.33,0.02,2.9-1.31,3.51c-1.33,0.61-2.9,0.02-3.51-1.31c-1.23-2.68-2.95-4.57-4.86-5.71 c-1.66-0.99-3.46-1.42-5.2-1.32c-1.71,0.1-3.35,0.71-4.71,1.79C29.5,43.33,28.37,44.97,27.74,47.09L27.74,47.09L27.74,47.09z"/></g></svg>