<?xml version="1.0" encoding="utf-8"?><svg version="1.1" id="Layer_1" xmlns="http://www.w3.org/2000/svg" xmlns:xlink="http://www.w3.org/1999/xlink" x="0px" y="0px" viewBox="0 0 122.88 122.88" style="enable-background:new 0 0 122.88 122.88" xml:space="preserve"><style type="text/css">.st0{fill-rule:evenodd;clip-rule:evenodd;fill:#FBD433;} .st1{fill-rule:evenodd;clip-rule:evenodd;fill:#141518;}</style><g><path class="st0" d="M45.54,2.11c32.77-8.78,66.45,10.67,75.23,43.43c8.78,32.77-10.67,66.45-43.43,75.23 c-32.77,8.78-66.45-10.67-75.23-43.43C-6.67,44.57,12.77,10.89,45.54,2.11L45.54,2.11z"/><path class="st1" d="M45.78,31.71c4.3,0,7.78,6.6,7.78,14.75c0,8.15-3.48,14.75-7.78,14.75S38,54.61,38,46.46 C38,38.32,41.48,31.71,45.78,31.71L45.78,31.71z M22.43,80.59c0.42-7.93,4.53-11.46,11.83-11.76l-5.96,5.93 c16.69,21.63,51.01,21.16,65.78-0.04l-5.47-5.44c7.3,0.3,11.4,3.84,11.83,11.76l-3.96-3.93c-16.54,28.07-51.56,29.07-70.7,0.15 L22.43,80.59L22.43,80.59z M77.1,31.71c4.3,0,7.78,6.6,7.78,14.75c0,8.15-3.49,14.75-7.78,14.75s-7.78-6.6-7.78-14.75 C69.31,38.32,72.8,31.71,77.1,31.71L77.1,31.71z"/></g></svg>