<?xml version="1.0" encoding="utf-8"?><svg version="1.1" id="Layer_1" xmlns="http://www.w3.org/2000/svg" xmlns:xlink="http://www.w3.org/1999/xlink" x="0px" y="0px" viewBox="0 0 122.88 122.88" style="enable-background:new 0 0 122.88 122.88" xml:space="preserve"><style type="text/css">.st0{fill-rule:evenodd;clip-rule:evenodd;}</style><g><path class="st0" d="M61.44,0c33.93,0,61.44,27.51,61.44,61.44c0,33.93-27.51,61.44-61.44,61.44C27.51,122.88,0,95.37,0,61.44 C0,27.51,27.51,0,61.44,0L61.44,0z M25.78,78.77c-0.88-1.62-0.28-3.65,1.34-4.53c1.62-0.88,3.65-0.29,4.53,1.33 c3.62,6.64,9.32,11.39,15.84,14.21c5.08,2.2,10.67,3.22,16.15,3.06c5.44-0.16,10.76-1.5,15.38-4.02 c5.22-2.85,9.54-7.22,12.11-13.15c0.73-1.69,2.69-2.47,4.38-1.74c1.69,0.73,2.47,2.69,1.74,4.38c-3.2,7.39-8.57,12.84-15.04,16.37 c-5.56,3.03-11.92,4.64-18.39,4.83c-6.42,0.19-12.98-1.02-18.98-3.61C37.02,92.53,30.16,86.8,25.78,78.77L25.78,78.77L25.78,78.77z M29.88,44.49c-1.16,1.43-3.27,1.65-4.7,0.49c-1.43-1.16-1.65-3.27-0.49-4.7c0.54-0.66,1.14-1.27,1.8-1.81 c2.78-2.27,6.87-3.79,11.11-4.01c4.28-0.22,8.78,0.85,12.35,3.75c0.82,0.67,1.58,1.41,2.25,2.23c1.17,1.43,0.96,3.54-0.47,4.71 c-1.43,1.17-3.54,0.96-4.71-0.47c-0.42-0.5-0.84-0.93-1.28-1.29c-2.16-1.76-5.02-2.4-7.79-2.25c-2.82,0.15-5.48,1.1-7.21,2.52 C30.39,43.95,30.1,44.22,29.88,44.49L29.88,44.49L29.88,44.49z M70.68,40.28c-1.16,1.43-3.27,1.65-4.7,0.49 c-1.43-1.16-1.65-3.27-0.49-4.7c0.54-0.66,1.14-1.27,1.8-1.8c2.78-2.27,6.87-3.79,11.11-4.01c4.28-0.22,8.78,0.85,12.35,3.75 c0.82,0.67,1.58,1.41,2.25,2.23c1.17,1.43,0.96,3.54-0.47,4.71c-1.43,1.17-3.54,0.96-4.71-0.47c-0.41-0.5-0.84-0.93-1.28-1.29 c-2.16-1.76-5.02-2.4-7.79-2.25c-2.82,0.15-5.48,1.1-7.21,2.52C71.19,39.73,70.9,40.01,70.68,40.28L70.68,40.28L70.68,40.28z"/></g></svg>