<svg id="Layer_1" data-name="Layer 1" xmlns="http://www.w3.org/2000/svg" viewBox="0 0 122.88 122.88"><defs><style>.cls-1{fill:#fbd433;fill-rule:evenodd;}.cls-2{fill:#141518;}</style></defs><title>strange-emoji</title><path class="cls-1" d="M45.54,2.11A61.42,61.42,0,1,1,2.11,77.34,61.42,61.42,0,0,1,45.54,2.11Z"/><path class="cls-2" d="M50,93.52c-4.9-.84-9.48-1.63-13.29,0a1.05,1.05,0,0,1-1.33-.44l-2.79-4.83a1.05,1.05,0,0,1,.35-1.44c5.37-3.25,11.38-2.09,17.61-.88a51.4,51.4,0,0,0,9.85,1.26,66.59,66.59,0,0,0,10.68-1.27c7-1.23,13.7-2.4,18.92,1.23a1.06,1.06,0,0,1,.3,1.38l-2.66,4.62a1,1,0,0,1-1.42.4c-4.14-2.31-9.59-1.33-15.45-.28A66.28,66.28,0,0,1,60.43,94.6,53.68,53.68,0,0,1,50,93.52ZM95.62,28.67a3.88,3.88,0,0,1,3.47,6.94,45.53,45.53,0,0,1-13.41,4.24,48.76,48.76,0,0,1-14.29.09,3.89,3.89,0,0,1,1.07-7.7,41.06,41.06,0,0,0,12-.06,37.85,37.85,0,0,0,11.12-3.51ZM38.24,43.77c4.62,0,8.36,4.79,8.36,10.7s-3.74,10.69-8.36,10.69-8.37-4.78-8.37-10.69,3.75-10.7,8.37-10.7Zm46.4,0c4.62,0,8.37,4.79,8.37,10.7s-3.75,10.69-8.37,10.69-8.37-4.78-8.37-10.69,3.75-10.7,8.37-10.7ZM23.79,35.61a3.88,3.88,0,0,1,3.47-6.94,37.76,37.76,0,0,0,11.12,3.51,41.06,41.06,0,0,0,12,.06,3.89,3.89,0,0,1,1.06,7.7,48.69,48.69,0,0,1-14.28-.09,45.53,45.53,0,0,1-13.41-4.24Z"/></svg>