<svg id="Layer_1" data-name="Layer 1" xmlns="http://www.w3.org/2000/svg" viewBox="0 0 122.88 75.44"><title>2g-mobile-technology</title><path d="M21.7,68.5a4.13,4.13,0,0,1,1,3,4.22,4.22,0,0,1-1.35,2.85.43.43,0,0,1-.1.09,4.1,4.1,0,0,1-3,1A4.21,4.21,0,0,1,15.38,74L15.32,74A65.89,65.89,0,0,1,3.74,56.06,45.51,45.51,0,0,1,0,37.48,45.83,45.83,0,0,1,4.36,19,66.15,66.15,0,0,1,16.56,1.4l0,0h0l.06-.05A4.25,4.25,0,0,1,19.5.09a4.05,4.05,0,0,1,3,1.15h0l.06.06A4.23,4.23,0,0,1,23.8,4.18a4.08,4.08,0,0,1-1.14,3A58.69,58.69,0,0,0,12.06,22.3a37.17,37.17,0,0,0-3.7,15.3h0a37.72,37.72,0,0,0,3.19,15.48,57.73,57.73,0,0,0,9.81,15.13,1.58,1.58,0,0,1,.34.29ZM41.2,50.43V45.17l7.88-8.05a16.35,16.35,0,0,0,1.26-1.39,6.86,6.86,0,0,0,.81-1.27,3,3,0,0,0,.29-1.26A2.31,2.31,0,0,0,51.16,32a1.58,1.58,0,0,0-.83-.66,4.24,4.24,0,0,0-1.45-.21H41.61V25.9c1.12-.25,2.36-.48,3.74-.7a32,32,0,0,1,4.79-.32,11.08,11.08,0,0,1,4.72.82,4.88,4.88,0,0,1,2.46,2.42A9.4,9.4,0,0,1,58.05,32a9.66,9.66,0,0,1-.44,3,9.54,9.54,0,0,1-1.28,2.55,17.32,17.32,0,0,1-2,2.39l-4.37,4.47h8.8v5.94ZM69,50.6a6.21,6.21,0,0,1-6.14-3.77,14,14,0,0,1-1.14-4.08,35.15,35.15,0,0,1-.33-5,31.89,31.89,0,0,1,.4-5.31,11.16,11.16,0,0,1,1.43-4.1,6.84,6.84,0,0,1,3-2.63,11.93,11.93,0,0,1,5-.92,33.85,33.85,0,0,1,3.46.16,22.91,22.91,0,0,1,2.71.44c.85.19,1.72.42,2.63.67v5.15c-.5-.09-1.14-.17-1.91-.24s-1.64-.13-2.59-.17-2-.07-3-.07a5.63,5.63,0,0,0-2.93.6,3,3,0,0,0-1.26,2.13A22.57,22.57,0,0,0,68,37.8a28.42,28.42,0,0,0,.17,3.43,5.85,5.85,0,0,0,.56,2,2.14,2.14,0,0,0,1,1,3.64,3.64,0,0,0,1.47.27,18.87,18.87,0,0,0,2.25-.12c.66-.07,1.16-.15,1.5-.22V40.91H71.4V35.66c.5-.07,1.1-.13,1.8-.17s1.41-.09,2.15-.12,1.41,0,2,0h2.17l1.72.05v15h-5l-.88-1.68A12.76,12.76,0,0,1,72.84,50,11.14,11.14,0,0,1,69,50.6Zm-33.14,4a4.21,4.21,0,0,1,.82,2.94,4.12,4.12,0,0,1-1.51,2.79l-.08.06-.07.06a4.23,4.23,0,0,1-2.94.82,4.11,4.11,0,0,1-2.79-1.51l-.06-.08A40,40,0,0,1,22.85,49a31.72,31.72,0,0,1-2.2-11.36,30.76,30.76,0,0,1,2.11-11.26,39.59,39.59,0,0,1,6.32-10.66,4.25,4.25,0,0,1,2.81-1.53,4.19,4.19,0,0,1,3.07.9h0A4.21,4.21,0,0,1,35.6,21l0,0a31.22,31.22,0,0,0-4.91,8.2A22.71,22.71,0,0,0,29,37.58c0,6.23,1.67,8.74,3.78,11.92a45.11,45.11,0,0,1,3,5.08Zm71.68,19.47a4.2,4.2,0,0,1-2.85,1.34,4.2,4.2,0,0,1-3.36-7l0,0a57.44,57.44,0,0,0,10-15.33,37.71,37.71,0,0,0,3.2-15.51,37.23,37.23,0,0,0-3.7-15.33,58.31,58.31,0,0,0-10.6-15.12h0a4.1,4.1,0,0,1-1.13-3,4.27,4.27,0,0,1,1.3-2.93h0l.09-.09A4.15,4.15,0,0,1,103.38,0a4.3,4.3,0,0,1,2.91,1.29h0l.08.09a66.08,66.08,0,0,1,12.14,17.53,45.84,45.84,0,0,1,4.35,18.49A45.48,45.48,0,0,1,119.14,56a65.66,65.66,0,0,1-11.38,17.65,1.36,1.36,0,0,1-.27.39ZM93.46,60a4.19,4.19,0,0,1-2.56,1.24,4.12,4.12,0,0,1-3.06-.89h0a4.18,4.18,0,0,1-.63-5.87l0,0a31.6,31.6,0,0,0,5-8.31,22.37,22.37,0,0,0,0-16.89,30.89,30.89,0,0,0-4.94-8.18v0h0l-.09-.11A4.21,4.21,0,0,1,86.37,18a4.14,4.14,0,0,1,1.51-2.79l.16-.12A4.21,4.21,0,0,1,91,14.25a4.12,4.12,0,0,1,2.79,1.51l.06.08a39.37,39.37,0,0,1,6.29,10.62,30.5,30.5,0,0,1,2.11,11.25A31.52,31.52,0,0,1,100,49a40.12,40.12,0,0,1-6.36,10.74,1,1,0,0,1-.21.21Z"/></svg>