<svg id="Layer_1" data-name="Layer 1" xmlns="http://www.w3.org/2000/svg" viewBox="0 0 71.55 122.88"><defs><style>.cls-1{fill-rule:evenodd;}</style></defs><title>2g-mobile</title><path class="cls-1" d="M14.53,0H57A14.53,14.53,0,0,1,71.55,14.54v93.8A14.53,14.53,0,0,1,57,122.88H14.53A14.54,14.54,0,0,1,0,108.34V14.52A14.51,14.51,0,0,1,14.53,0ZM49.44,54.17a2.57,2.57,0,0,1,.76,1.56,2.52,2.52,0,0,1-.54,1.88h0a2.57,2.57,0,0,1-3.59.39h0A19.44,19.44,0,0,0,41,55a13.6,13.6,0,0,0-10.31,0,18.69,18.69,0,0,0-5,3h0l-.07.06a2.55,2.55,0,0,1-1.79.5,2.49,2.49,0,0,1-1.71-.92L22,57.55a2.56,2.56,0,0,1-.51-1.79,2.5,2.5,0,0,1,.92-1.71l0,0A24,24,0,0,1,29,50.16a18.69,18.69,0,0,1,6.87-1.31,19.2,19.2,0,0,1,6.92,1.33A24.89,24.89,0,0,1,49.32,54a.71.71,0,0,1,.12.13ZM21.16,83V79.15l5.73-5.85a10.07,10.07,0,0,0,.92-1,4.74,4.74,0,0,0,.58-.91,2.17,2.17,0,0,0,.21-.92,1.71,1.71,0,0,0-.19-.86,1.18,1.18,0,0,0-.61-.48A3.14,3.14,0,0,0,26.74,69H21.46V65.14c.81-.18,1.72-.35,2.72-.51a23.67,23.67,0,0,1,3.48-.23A8.28,8.28,0,0,1,31.1,65a3.59,3.59,0,0,1,1.78,1.76,6.79,6.79,0,0,1,.54,2.86,6.91,6.91,0,0,1-.33,2.2,6.76,6.76,0,0,1-.93,1.86,12.59,12.59,0,0,1-1.47,1.74l-3.18,3.25h6.4V83Zm20.18.13a4.94,4.94,0,0,1-2.79-.73,4.79,4.79,0,0,1-1.67-2,10.06,10.06,0,0,1-.83-3,25.45,25.45,0,0,1-.24-3.59,24.08,24.08,0,0,1,.28-3.87,8.33,8.33,0,0,1,1-3A4.89,4.89,0,0,1,39.31,65,8.69,8.69,0,0,1,43,64.37c1,0,1.81,0,2.51.11a17.76,17.76,0,0,1,2,.33c.61.14,1.25.3,1.91.48V69c-.37-.07-.83-.13-1.39-.18s-1.19-.09-1.89-.12-1.43,0-2.2,0a4.16,4.16,0,0,0-2.14.43,2.26,2.26,0,0,0-.92,1.55,17.82,17.82,0,0,0-.22,3.13,20.84,20.84,0,0,0,.12,2.49,4.49,4.49,0,0,0,.41,1.48,1.7,1.7,0,0,0,.74.72,2.61,2.61,0,0,0,1.06.19,15.93,15.93,0,0,0,1.64-.08c.48-.06.84-.11,1.09-.16V76.05H43.13V72.23c.36,0,.79-.09,1.3-.12L46,72l1.48,0H49l1.25,0V83H46.67L46,81.76a10.41,10.41,0,0,1-1.86.87,8.15,8.15,0,0,1-2.83.47ZM58,44.76a2.58,2.58,0,0,1,.83,1.74,2.51,2.51,0,0,1-.65,1.85,2.59,2.59,0,0,1-1.76.85,2.47,2.47,0,0,1-1.86-.64l0,0a35.15,35.15,0,0,0-9.38-6.08,22.2,22.2,0,0,0-18.83.35,36.1,36.1,0,0,0-9.21,6.5h0a2.52,2.52,0,0,1-1.81.69,2.57,2.57,0,0,1-1.79-.78h0l-.05,0a2.51,2.51,0,0,1-.67-1.79,2.6,2.6,0,0,1,.79-1.78h0l.05-.05a40.65,40.65,0,0,1,10.68-7.44,27.25,27.25,0,0,1,22.65-.43A39.5,39.5,0,0,1,57.71,44.6a.6.6,0,0,1,.24.16Zm-54,57.93h63.7V15.85H3.92v86.84Zm31.84,4.55a6,6,0,1,1-6,6,6,6,0,0,1,6-6Z"/></svg>