<svg id="Layer_1" data-name="Layer 1" xmlns="http://www.w3.org/2000/svg" viewBox="0 0 91.05 122.88"><title>2g-sim-card</title><path d="M8.3,0h45c2.21,0,3.32,0,4.59.49s2.07,1.34,3.63,2.94l1.35,1.38C67,9,70.76,12.89,74.57,16.82s7.37,7.6,11.34,11.6c.71.71,1.32,1.29,1.82,1.78a10.21,10.21,0,0,1,2.75,3.37c.59,1.35.58,2.55.56,5.08,0,.21,0-.24,0,1.66v74.27a8.26,8.26,0,0,1-2.44,5.85h0a8.24,8.24,0,0,1-5.85,2.44H8.3a8.24,8.24,0,0,1-5.85-2.44h0A8.29,8.29,0,0,1,0,114.58V8.32A8.26,8.26,0,0,1,2.44,2.46h0A8.29,8.29,0,0,1,8.3,0ZM26.49,49.85V44.8l7.57-7.73a15.25,15.25,0,0,0,1.21-1.35A5.93,5.93,0,0,0,36,34.51a2.75,2.75,0,0,0,.28-1.21,2.22,2.22,0,0,0-.26-1.13,1.47,1.47,0,0,0-.8-.64,4.2,4.2,0,0,0-1.4-.2h-7v-5c1.07-.24,2.27-.46,3.59-.67a29.76,29.76,0,0,1,4.61-.31,10.61,10.61,0,0,1,4.53.79A4.68,4.68,0,0,1,42,28.41a9.06,9.06,0,0,1,.71,3.77A9,9,0,0,1,41,37.56a16.51,16.51,0,0,1-2,2.29l-4.19,4.3h8.45v5.7ZM52.74,50a6,6,0,0,1-5.9-3.62,14,14,0,0,1-1.1-3.92,35.54,35.54,0,0,1-.31-4.75,31.77,31.77,0,0,1,.38-5.11,10.74,10.74,0,0,1,1.38-3.93,6.48,6.48,0,0,1,2.86-2.53,11.43,11.43,0,0,1,4.85-.88,31.72,31.72,0,0,1,3.33.15,21.59,21.59,0,0,1,2.61.42c.8.19,1.65.4,2.52.64v4.95c-.48-.09-1.09-.16-1.84-.23S60,31.08,59,31,57.14,31,56.12,31a5.46,5.46,0,0,0-2.82.57,3,3,0,0,0-1.21,2.05,22,22,0,0,0-.3,4.13A28.85,28.85,0,0,0,52,41,5.73,5.73,0,0,0,52.49,43a2.21,2.21,0,0,0,1,1,3.55,3.55,0,0,0,1.41.26A17.31,17.31,0,0,0,57,44.06c.64-.07,1.12-.14,1.45-.21V40.7H55.1v-5c.48-.07,1-.12,1.72-.17l2.07-.11c.71,0,1.36-.05,2-.05.78,0,1.48,0,2.08,0l1.65,0V49.85H59.79l-.86-1.61a12.75,12.75,0,0,1-2.45,1.15,10.79,10.79,0,0,1-3.74.62Zm2.78,11.56V73.63H68.05V65.89a4.34,4.34,0,0,0-4.31-4.32Zm0,16.63v8.26H68.05V78.2Zm0,12.84v12.57h8.22a4.35,4.35,0,0,0,4.31-4.32V91Zm-4.58,12.57V88.9a.76.76,0,0,1,0-.15.86.86,0,0,1,0-.16V76.07a.76.76,0,0,1,0-.15.81.81,0,0,1,0-.16V61.57H27.33a4.35,4.35,0,0,0-3.06,1.27,4.3,4.3,0,0,0-1.26,3v7.66H37.34a2.3,2.3,0,0,1,2.29,2.29v27.77ZM35.05,90.75H23v8.54a4.35,4.35,0,0,0,4.32,4.32h7.72V90.75ZM23,86.17h12v-8H23v8Zm4.32-29.08H63.74a8.83,8.83,0,0,1,8.79,8.8v33.4a8.81,8.81,0,0,1-8.79,8.79H27.33a8.81,8.81,0,0,1-8.8-8.79V65.89a8.8,8.8,0,0,1,2.58-6.21h0a8.74,8.74,0,0,1,6.21-2.59Zm24-51.7H8.3a2.91,2.91,0,0,0-2.06.85h0a2.92,2.92,0,0,0-.86,2.07V114.58a2.88,2.88,0,0,0,.86,2.06h0a2.88,2.88,0,0,0,2.06.86H82.75a2.92,2.92,0,0,0,2.92-2.93V40.31c0-.65,0-.49,0-1.68a11.83,11.83,0,0,0-.12-2.92A9.27,9.27,0,0,0,84,34.06c-.52-.5-1.14-1.1-1.9-1.87-4-4-7.68-7.82-11.38-11.64S63.15,12.72,59,8.6L57.65,7.18a10.85,10.85,0,0,0-1.84-1.73,9.91,9.91,0,0,0-2.48-.09l-2,0Z"/></svg>