<svg id="Layer_1" data-name="Layer 1" xmlns="http://www.w3.org/2000/svg" viewBox="0 0 122.88 106.2"><title>2g</title><path d="M96.48,57.72a5.54,5.54,0,0,1-3.31,6.65h0A5.54,5.54,0,0,1,86,61.22l0,0A42,42,0,0,0,79.79,50a30.42,30.42,0,0,0-8.57-7.5,30.08,30.08,0,0,0-10.73-3.68,40.19,40.19,0,0,0-12.62.24h0l-.19,0a5.53,5.53,0,0,1-3.9-1,5.38,5.38,0,0,1-2.2-3.57l0-.25a5.55,5.55,0,0,1,1-3.91,5.42,5.42,0,0,1,3.57-2.19l.13,0A52,52,0,0,1,62.52,28a40.36,40.36,0,0,1,14.27,5A41.65,41.65,0,0,1,88.3,43a53.67,53.67,0,0,1,8.09,14.37,1.38,1.38,0,0,1,.09.39ZM0,105.88V96.27L14.42,81.53A27.76,27.76,0,0,0,16.73,79a12.12,12.12,0,0,0,1.47-2.31,5.41,5.41,0,0,0,.53-2.31,4.2,4.2,0,0,0-.5-2.15A2.82,2.82,0,0,0,16.7,71a7.9,7.9,0,0,0-2.65-.37H.75V61c2-.46,4.32-.88,6.83-1.28a58,58,0,0,1,8.78-.59A20.52,20.52,0,0,1,25,60.62a8.93,8.93,0,0,1,4.49,4.43,17.14,17.14,0,0,1,1.34,7.18A18,18,0,0,1,30,77.79a17.69,17.69,0,0,1-2.34,4.68A32.78,32.78,0,0,1,24,86.84L16,95H32.09v10.86Zm50,.32a11.4,11.4,0,0,1-11.24-6.9,26.37,26.37,0,0,1-2.09-7.46,66.52,66.52,0,0,1-.59-9.06A60.25,60.25,0,0,1,36.81,73a20.54,20.54,0,0,1,2.62-7.49,12.52,12.52,0,0,1,5.46-4.81,21.74,21.74,0,0,1,9.24-1.68,60.6,60.6,0,0,1,6.34.28,41.1,41.1,0,0,1,5,.81c1.54.35,3.15.76,4.81,1.22v9.42c-.91-.16-2.08-.31-3.5-.43s-3-.23-4.74-.31-3.6-.13-5.56-.13A10.47,10.47,0,0,0,51.07,71a5.66,5.66,0,0,0-2.31,3.9,43,43,0,0,0-.56,7.87,50.54,50.54,0,0,0,.31,6.28,10.77,10.77,0,0,0,1,3.71,3.93,3.93,0,0,0,1.85,1.81,6.41,6.41,0,0,0,2.68.5,33.82,33.82,0,0,0,4.12-.22c1.21-.14,2.12-.28,2.75-.4v-6H54.51V78.85c.91-.13,2-.23,3.28-.31s2.57-.16,3.93-.22,2.59-.09,3.71-.09c1.5,0,2.82,0,4,0s2.19,0,3.15.09v27.53H63.44l-1.63-3A24.49,24.49,0,0,1,57.13,105,20.29,20.29,0,0,1,50,106.2Zm72.62-56.85a5.55,5.55,0,0,1-.35,4.15,5.48,5.48,0,0,1-3.21,2.76,5.61,5.61,0,0,1-4.23-.31,5.51,5.51,0,0,1-2.77-3.23l0-.08a75.83,75.83,0,0,0-10.92-21.56,49.87,49.87,0,0,0-15.64-13.9,49.37,49.37,0,0,0-20-5.9,77.13,77.13,0,0,0-24.29,2.15h0a5.46,5.46,0,0,1-4.13-.66,5.65,5.65,0,0,1-2.51-3.42h0l0-.16a5.41,5.41,0,0,1,.69-4.07,5.7,5.7,0,0,1,3.4-2.48h0l.16,0A87.21,87.21,0,0,1,66.84.31a60.56,60.56,0,0,1,24,7.24,60.12,60.12,0,0,1,18.83,16.56,86.36,86.36,0,0,1,12.67,24.68,1.53,1.53,0,0,1,.27.56Z"/></svg>