<svg id="Layer_1" data-name="Layer 1" xmlns="http://www.w3.org/2000/svg" viewBox="0 0 91.05 122.88"><title>3g-sim-card</title><path d="M8.3,0h45c2.21,0,3.32,0,4.59.49s2.07,1.34,3.63,2.94l1.35,1.38C67,9,70.76,12.89,74.57,16.82s7.37,7.6,11.34,11.6c.71.71,1.32,1.29,1.82,1.78a10.21,10.21,0,0,1,2.75,3.37c.59,1.35.58,2.55.56,5.08,0,.21,0-.24,0,1.66v74.27a8.26,8.26,0,0,1-2.44,5.85h0a8.24,8.24,0,0,1-5.85,2.44H8.3a8.24,8.24,0,0,1-5.85-2.44h0A8.29,8.29,0,0,1,0,114.58V8.32A8.26,8.26,0,0,1,2.44,2.46h0A8.29,8.29,0,0,1,8.3,0ZM36.14,50c-1.75,0-3.44-.07-5.08-.23a42.9,42.9,0,0,1-4.55-.65V44.05h7.14a12.3,12.3,0,0,0,2-.13,1.69,1.69,0,0,0,1-.43,1.17,1.17,0,0,0,.26-.82v-.62a1.48,1.48,0,0,0-.29-.95,1.79,1.79,0,0,0-.85-.54,5.69,5.69,0,0,0-1.38-.22l-5.84-.26V35.17L34,34.8A5.62,5.62,0,0,0,36,34.41a1.07,1.07,0,0,0,.62-1v-.29a1.45,1.45,0,0,0-.66-1.35,5.16,5.16,0,0,0-2.42-.39H26.83V26.22c1.42-.24,2.92-.47,4.49-.67a30.51,30.51,0,0,1,4.79-.25,9.22,9.22,0,0,1,3.62.71,4.9,4.9,0,0,1,2.34,2,6.55,6.55,0,0,1,.82,3.45v1.64a8.13,8.13,0,0,1-.14,1.53,4.46,4.46,0,0,1-.48,1.28,3.5,3.5,0,0,1-.85,1,4,4,0,0,1-1.28.69,3.59,3.59,0,0,1,1.36.74,4.46,4.46,0,0,1,1,1.2A5.92,5.92,0,0,1,43,41.11a8.48,8.48,0,0,1,.2,1.86v1a5.62,5.62,0,0,1-1.88,4.55A7.87,7.87,0,0,1,36.14,50Zm16.58,0A6.39,6.39,0,0,1,49,49a6.28,6.28,0,0,1-2.21-2.65,13.36,13.36,0,0,1-1.1-3.92,34,34,0,0,1-.31-4.75,31.84,31.84,0,0,1,.37-5.11,10.74,10.74,0,0,1,1.38-3.93A6.51,6.51,0,0,1,50,26.15a11.37,11.37,0,0,1,4.85-.88,31.38,31.38,0,0,1,3.32.15,21.59,21.59,0,0,1,2.61.42c.81.19,1.65.4,2.52.64v4.95c-.48-.09-1.09-.16-1.83-.23S59.93,31.08,59,31,57.13,31,56.1,31a5.46,5.46,0,0,0-2.82.57,3,3,0,0,0-1.21,2.05,22,22,0,0,0-.3,4.13,26.42,26.42,0,0,0,.17,3.3A5.73,5.73,0,0,0,52.48,43a2.11,2.11,0,0,0,1,1,3.5,3.5,0,0,0,1.4.26A17.6,17.6,0,0,0,57,44.06q.94-.11,1.44-.21V40.7H55.08v-5c.48-.07,1.06-.12,1.72-.17l2.07-.11c.71,0,1.36-.05,2-.05.79,0,1.48,0,2.08,0l1.66,0V49.85H59.77l-.85-1.61a13.21,13.21,0,0,1-2.46,1.15,10.75,10.75,0,0,1-3.74.62Zm2.8,11.56V73.63H68.05V65.89a4.34,4.34,0,0,0-4.31-4.32Zm0,16.63v8.26H68.05V78.2Zm0,12.84v12.57h8.22a4.35,4.35,0,0,0,4.31-4.32V91Zm-4.58,12.57V88.9a.76.76,0,0,1,0-.15.86.86,0,0,1,0-.16V76.07a.76.76,0,0,1,0-.15.81.81,0,0,1,0-.16V61.57H27.33a4.35,4.35,0,0,0-3.06,1.27,4.3,4.3,0,0,0-1.26,3v7.66H37.34a2.3,2.3,0,0,1,2.29,2.29v27.77ZM35.05,90.75H23v8.54a4.35,4.35,0,0,0,4.32,4.32h7.72V90.75ZM23,86.17h12v-8H23v8Zm4.32-29.08H63.74a8.83,8.83,0,0,1,8.79,8.8v33.4a8.81,8.81,0,0,1-8.79,8.79H27.33a8.81,8.81,0,0,1-8.8-8.79V65.89a8.8,8.8,0,0,1,2.58-6.21h0a8.74,8.74,0,0,1,6.21-2.59Zm24-51.7H8.3a2.91,2.91,0,0,0-2.06.85h0a2.92,2.92,0,0,0-.86,2.07V114.58a2.88,2.88,0,0,0,.86,2.06h0a2.88,2.88,0,0,0,2.06.86H82.75a2.92,2.92,0,0,0,2.92-2.93V40.31c0-.65,0-.49,0-1.68a11.83,11.83,0,0,0-.12-2.92A9.27,9.27,0,0,0,84,34.06c-.52-.5-1.14-1.1-1.9-1.87-4-4-7.68-7.82-11.38-11.64S63.15,12.72,59,8.6L57.65,7.18a10.85,10.85,0,0,0-1.84-1.73,9.91,9.91,0,0,0-2.48-.09l-2,0Z"/></svg>