<svg id="Layer_1" data-name="Layer 1" xmlns="http://www.w3.org/2000/svg" viewBox="0 0 122.88 96.83"><title>3g</title><path d="M98.83,52.6A5.1,5.1,0,0,1,98.58,56a5,5,0,0,1-2.78,2.65h0a5.07,5.07,0,0,1-3.85-.1,5,5,0,0,1-2.66-2.78v0a38.14,38.14,0,0,0-5.67-10.18A26.85,26.85,0,0,0,66,35.36a37.27,37.27,0,0,0-11.5.22h0l-.17,0a5,5,0,0,1-3.56-.91,4.92,4.92,0,0,1-2-3.26l0-.23a5,5,0,0,1,4.16-5.56l.12,0a47.64,47.64,0,0,1,14.86-.16,36.82,36.82,0,0,1,13,4.57,37.71,37.71,0,0,1,10.48,9.11,48.54,48.54,0,0,1,7.38,13.1,2,2,0,0,1,.09.35ZM16.73,96.83q-4.56,0-8.82-.4A74.09,74.09,0,0,1,0,95.3V86.42H12.4a20.22,20.22,0,0,0,3.45-.23,3,3,0,0,0,1.68-.74A2.07,2.07,0,0,0,18,84V83a2.54,2.54,0,0,0-.51-1.65A3.08,3.08,0,0,0,16,80.36,9.09,9.09,0,0,0,13.6,80L3.47,79.54V71l9.62-.63a10,10,0,0,0,3.35-.68,1.85,1.85,0,0,0,1.09-1.82v-.51A2.49,2.49,0,0,0,16.39,65a8.91,8.91,0,0,0-4.21-.69H.57V55.47c2.47-.42,5.06-.81,7.8-1.17a53.19,53.19,0,0,1,8.3-.43A16.12,16.12,0,0,1,23,55.1,8.72,8.72,0,0,1,27,58.62a11.5,11.5,0,0,1,1.42,6v2.84a13,13,0,0,1-.26,2.65,7.65,7.65,0,0,1-.82,2.22,6.11,6.11,0,0,1-1.48,1.73,7.34,7.34,0,0,1-2.22,1.2A6,6,0,0,1,26,76.55a7.93,7.93,0,0,1,1.65,2.07,10.35,10.35,0,0,1,1,2.71A14.91,14.91,0,0,1,29,84.54v1.65q0,5.18-3.27,7.91c-2.19,1.82-5.19,2.73-9,2.73Zm28.79,0a10.35,10.35,0,0,1-10.24-6.29,23.93,23.93,0,0,1-1.91-6.8,59.76,59.76,0,0,1-.54-8.25,55.87,55.87,0,0,1,.65-8.88,19.14,19.14,0,0,1,2.39-6.83,11.47,11.47,0,0,1,5-4.38,19.87,19.87,0,0,1,8.42-1.53,56.28,56.28,0,0,1,5.78.25,38.43,38.43,0,0,1,4.52.74c1.41.32,2.87.7,4.38,1.11v8.59q-1.25-.23-3.18-.39c-1.29-.12-2.73-.21-4.33-.29s-3.28-.11-5.06-.11a9.47,9.47,0,0,0-4.89,1,5.11,5.11,0,0,0-2.11,3.56,38.86,38.86,0,0,0-.51,7.17,46.28,46.28,0,0,0,.28,5.72,9.91,9.91,0,0,0,.94,3.38,3.61,3.61,0,0,0,1.68,1.65,5.89,5.89,0,0,0,2.45.46,32.16,32.16,0,0,0,3.75-.2c1.1-.13,1.94-.26,2.5-.37V80.62H49.62V71.85c.83-.11,1.82-.2,3-.28s2.35-.14,3.59-.2,2.36-.08,3.38-.08c1.37,0,2.57,0,3.61,0s2,0,2.88.09V96.49H57.75L56.27,93.7a21.59,21.59,0,0,1-4.27,2,18.2,18.2,0,0,1-6.48,1.09ZM122.66,45a5.17,5.17,0,0,1-.32,3.78,5,5,0,0,1-2.93,2.52,5.09,5.09,0,0,1-3.86-.29A5,5,0,0,1,113,48.05l0-.08a69,69,0,0,0-10-19.65A45.46,45.46,0,0,0,88.8,15.66a44.92,44.92,0,0,0-18.21-5.38,70.2,70.2,0,0,0-22.13,2h0a5,5,0,0,1-3.77-.61,5.14,5.14,0,0,1-2.28-3.11h0l0-.14A4.94,4.94,0,0,1,43,4.69a5.14,5.14,0,0,1,3.1-2.26h0a.35.35,0,0,1,.14,0A79.45,79.45,0,0,1,71.81.28,55.16,55.16,0,0,1,93.7,6.88,54.7,54.7,0,0,1,110.86,22a78.58,78.58,0,0,1,11.55,22.49,1.43,1.43,0,0,1,.25.51Z"/></svg>