<svg xmlns="http://www.w3.org/2000/svg" shape-rendering="geometricPrecision" text-rendering="geometricPrecision" image-rendering="optimizeQuality" fill-rule="evenodd" clip-rule="evenodd" viewBox="0 0 512 359.93"><path fill-rule="nonzero" d="M344.55 196.95c1.23 4.34.82 8.84-.91 12.75-1.94 4.41-5.57 8.09-10.4 9.96h-.03c-4.83 1.86-9.99 1.58-14.4-.37-4.41-1.95-8.08-5.57-9.95-10.4l-.06-.17c-5.59-14.64-12.7-27.42-21.21-38.14-8.43-10.63-18.22-19.23-29.23-25.59-10.95-6.31-23.19-10.58-36.63-12.58-13.21-1.96-27.59-1.75-43.06.83l-.09.02-.63.08c-4.86.59-9.61-.73-13.33-3.43-3.88-2.79-6.69-7.04-7.49-12.18l-.12-.86c-.58-4.87.73-9.61 3.42-13.33 2.8-3.87 7.06-6.69 12.18-7.49l.44-.07c19.73-3.17 38.35-3.32 55.63-.62 17.73 2.77 34.04 8.54 48.7 17.12 14.93 8.73 28.05 20.16 39.24 34.11 11.17 13.92 20.42 30.33 27.6 49.04.18.43.29.88.33 1.32zm18.21 162.98h-57.33a2.5 2.5 0 0 1-2.5-2.5V271.8a2.5 2.5 0 0 1 2.5-2.5h22.04c1.38 0 2.49 1.12 2.49 2.5v65.37h32.8c1.38 0 2.5 1.12 2.5 2.49v17.77a2.5 2.5 0 0 1-2.5 2.5zm-289.68-1.07v-29.19H7.25L0 311.14l45.81-110.57h42.18l-38.77 94.17h23.86V271.3l7.88-20.45h33.45v43.89h12.78v28.54l-12.78 6.39v29.19H73.08zm112.91 1.07c-9.8 0-17.79-2.1-23.97-6.29-6.18-4.19-10.97-9.94-14.38-17.25-3.41-7.32-5.79-15.81-7.13-25.46-1.36-9.66-2.03-19.96-2.03-30.9 0-12.21.81-23.29 2.45-33.23 1.63-9.94 4.62-18.46 8.95-25.57 4.33-7.1 10.55-12.56 18.64-16.4 8.1-3.84 18.6-5.75 31.53-5.75 8.38 0 15.59.32 21.62.95 6.04.65 11.69 1.57 16.94 2.78 5.26 1.2 10.72 2.59 16.4 4.15v32.17c-3.12-.57-7.1-1.07-11.93-1.49-4.83-.43-10.22-.78-16.19-1.07-5.96-.28-12.28-.42-18.96-.42-8.23 0-14.34 1.24-18.32 3.73-3.98 2.48-6.6 6.92-7.88 13.31-1.28 6.39-1.92 15.34-1.92 26.84 0 8.81.35 15.95 1.06 21.42.72 5.46 1.89 9.69 3.52 12.67 1.63 2.98 3.73 5.04 6.29 6.18 2.55 1.14 5.6 1.7 9.16 1.7 5.25 0 9.94-.24 14.06-.74 4.12-.5 7.24-.96 9.37-1.39v-20.45h-21.94v-32.81c3.12-.43 6.85-.78 11.18-1.06 4.33-.29 8.81-.54 13.42-.75 4.62-.21 8.85-.32 12.68-.32 5.11 0 9.62.04 13.53.11 3.9.07 7.49.18 10.76.32v93.95h-31.11l-5.54-10.44c-3.4 2.27-8.73 4.76-15.98 7.46-7.24 2.7-15.33 4.05-24.28 4.05zm222.78 0h-22.06c-1.37 0-2.49-1.12-2.49-2.5v-65.31h-22.26a2.5 2.5 0 0 1-2.5-2.5V271.8a2.5 2.5 0 0 1 2.5-2.5h72.09c1.37 0 2.49 1.12 2.49 2.5v17.82c0 1.38-1.12 2.5-2.49 2.5h-22.78v65.31a2.5 2.5 0 0 1-2.5 2.5zm100.58 0h-59.53c-1.38 0-2.49-1.12-2.49-2.5V271.8c0-1.38 1.11-2.5 2.49-2.5h59.68a2.5 2.5 0 0 1 2.5 2.5v17.82a2.5 2.5 0 0 1-2.5 2.5h-35.08v10.36h29.1a2.5 2.5 0 0 1 2.5 2.5v17.1c0 1.38-1.12 2.49-2.5 2.49h-29.1v12.6h34.93c1.37 0 2.49 1.12 2.49 2.49v17.77c0 1.38-1.12 2.5-2.49 2.5zm-75.56-191.54c1.48 4.87.93 9.91-1.2 14.15-2.17 4.32-5.98 7.8-10.96 9.42a19.09 19.09 0 0 1-14.43-1.07c-4.34-2.17-7.84-6-9.47-10.99l-.08-.28c-9.58-28.67-22.06-53.28-37.28-73.57-15.12-20.17-32.95-36.05-53.35-47.42-20.06-11.16-42.82-17.95-68.17-20.14-25.09-2.15-52.76.21-82.9 7.35l-.07.02c-5.02 1.21-10.03.24-14.1-2.27-4.1-2.52-7.25-6.62-8.53-11.64h-.01c-.05-.18-.09-.36-.12-.53-1.11-4.95-.12-9.87 2.38-13.87 2.53-4.06 6.61-7.18 11.59-8.46v-.01c.18-.05.35-.08.53-.11 34.48-8.11 66.45-10.64 95.8-7.92 30.16 2.8 57.51 11.15 81.96 24.7 24.72 13.72 46.18 32.67 64.24 56.51 17.77 23.45 32.22 51.63 43.23 84.21.45.57.76 1.23.94 1.92z"/></svg>