<svg id="Layer_1" data-name="Layer 1" xmlns="http://www.w3.org/2000/svg" viewBox="0 0 71.55 122.88"><defs><style>.cls-1{fill-rule:evenodd;}</style></defs><title>4g-mobile</title><path class="cls-1" d="M14.53,0H57A14.53,14.53,0,0,1,71.55,14.54v93.8A14.53,14.53,0,0,1,57,122.88H14.53A14.54,14.54,0,0,1,0,108.34V14.52A14.51,14.51,0,0,1,14.53,0ZM29,83V79.58H21.31l-.85-2.16L25.8,64.55h4.91l-4.52,11H29V72.78l.92-2.38h3.89v5.11h1.49v3.32l-1.49.75V83Zm13.15.13a4.94,4.94,0,0,1-2.79-.73,4.89,4.89,0,0,1-1.68-2,10.71,10.71,0,0,1-.83-3,25.5,25.5,0,0,1-.23-3.59,24.08,24.08,0,0,1,.28-3.87,8.33,8.33,0,0,1,1-3A5,5,0,0,1,40.08,65a8.75,8.75,0,0,1,3.67-.67c1,0,1.82,0,2.52.11a18,18,0,0,1,2,.33c.61.14,1.25.3,1.91.48V69a13.83,13.83,0,0,0-1.39-.18c-.56,0-1.19-.09-1.88-.12s-1.43,0-2.21,0a4.09,4.09,0,0,0-2.13.43,2.26,2.26,0,0,0-.92,1.55,16.89,16.89,0,0,0-.22,3.13,20.84,20.84,0,0,0,.12,2.49,4.26,4.26,0,0,0,.41,1.48,1.63,1.63,0,0,0,.73.72,2.69,2.69,0,0,0,1.07.19,15.93,15.93,0,0,0,1.64-.08c.48-.06.84-.11,1.09-.16V76.05H43.9V72.23c.37,0,.8-.09,1.3-.12L46.77,72l1.47,0h1.58l1.25,0V83H47.45l-.65-1.21a9.77,9.77,0,0,1-1.86.87,8.1,8.1,0,0,1-2.82.47Zm7.23-28.93a2.62,2.62,0,0,1,.76,1.56,2.57,2.57,0,0,1-.55,1.88h0a2.56,2.56,0,0,1-1.71.93A2.52,2.52,0,0,1,46,58h0a19.28,19.28,0,0,0-5.08-3,13.6,13.6,0,0,0-10.31,0,18.69,18.69,0,0,0-5,3h0l-.07.06a2.55,2.55,0,0,1-1.79.5A2.51,2.51,0,0,1,22,57.64l-.07-.09a2.55,2.55,0,0,1,.41-3.5l.05,0a24,24,0,0,1,6.47-3.85,18.69,18.69,0,0,1,6.87-1.31,19.2,19.2,0,0,1,6.92,1.33A24.89,24.89,0,0,1,49.22,54a1.59,1.59,0,0,1,.13.13ZM58,44.76a2.58,2.58,0,0,1,.83,1.74,2.51,2.51,0,0,1-.65,1.85,2.59,2.59,0,0,1-1.76.85,2.47,2.47,0,0,1-1.86-.64l0,0a35.15,35.15,0,0,0-9.38-6.08,22.2,22.2,0,0,0-18.83.35,36.1,36.1,0,0,0-9.21,6.5h0a2.52,2.52,0,0,1-1.81.69,2.57,2.57,0,0,1-1.79-.78h0l-.05,0a2.51,2.51,0,0,1-.67-1.79,2.6,2.6,0,0,1,.79-1.78h0l.05-.05a40.65,40.65,0,0,1,10.68-7.44,27.25,27.25,0,0,1,22.65-.43A39.5,39.5,0,0,1,57.71,44.6a.6.6,0,0,1,.24.16Zm-54,57.93h63.7V15.85H3.92v86.84Zm31.84,4.55a6,6,0,1,1-6,6,6,6,0,0,1,6-6Z"/></svg>