<svg id="Layer_1" data-name="Layer 1" xmlns="http://www.w3.org/2000/svg" viewBox="0 0 122.88 102.45"><title>4g</title><path d="M97.41,55.68a5.38,5.38,0,0,1-.25,3.61,5.29,5.29,0,0,1-3,2.81h0a5.35,5.35,0,0,1-6.89-3V59a40.57,40.57,0,0,0-6-10.78A28.39,28.39,0,0,0,62.69,37.44a38.89,38.89,0,0,0-12.18.23h0l-.18,0a5.4,5.4,0,0,1-3.77-1,5.25,5.25,0,0,1-2.12-3.44l0-.25a5.4,5.4,0,0,1,1-3.77,5.2,5.2,0,0,1,3.44-2.11l.12,0A50.19,50.19,0,0,1,64.65,27,39.15,39.15,0,0,1,78.42,31.8a40.4,40.4,0,0,1,11.1,9.64,51.52,51.52,0,0,1,7.8,13.87,1.25,1.25,0,0,1,.09.37ZM20.66,102.15V93.89H2.05L0,88.65,13,57.39H24.88L13.92,84h6.74V77.39l2.23-5.78h9.46V84H36v8.07l-3.61,1.8v8.26Zm31.92.3a11,11,0,0,1-10.84-6.66,25.71,25.71,0,0,1-2-7.2,63.39,63.39,0,0,1-.57-8.73,58.53,58.53,0,0,1,.69-9.4,20.13,20.13,0,0,1,2.53-7.22,12,12,0,0,1,5.28-4.64A20.77,20.77,0,0,1,56.56,57a59.19,59.19,0,0,1,6.11.27,38.29,38.29,0,0,1,4.79.79c1.49.34,3,.73,4.64,1.17v9.09c-.88-.15-2-.3-3.37-.42s-2.89-.22-4.58-.3-3.47-.12-5.36-.12a9.9,9.9,0,0,0-5.18,1.06,5.37,5.37,0,0,0-2.23,3.76,41.12,41.12,0,0,0-.54,7.59,48.93,48.93,0,0,0,.3,6,10.51,10.51,0,0,0,1,3.59,3.82,3.82,0,0,0,1.78,1.74,6.17,6.17,0,0,0,2.59.49,31.39,31.39,0,0,0,4-.22c1.17-.14,2.05-.27,2.65-.39V85.34h-6.2V76.07c.88-.13,1.94-.23,3.16-.31s2.49-.15,3.8-.21,2.5-.09,3.58-.09c1.45,0,2.72,0,3.83,0s2.12.05,3,.09v26.57h-8.8L64,99.2a23.41,23.41,0,0,1-4.52,2.1,19.41,19.41,0,0,1-6.87,1.15Zm70.06-54.84a5.36,5.36,0,0,1-.34,4,5.28,5.28,0,0,1-3.09,2.66,5.36,5.36,0,0,1-4.08-.3,5.29,5.29,0,0,1-2.68-3.11l0-.08A73.26,73.26,0,0,0,101.89,30,48.13,48.13,0,0,0,86.8,16.58a47.55,47.55,0,0,0-19.27-5.7A74.27,74.27,0,0,0,44.09,13h0a5.17,5.17,0,0,1-4-.64A5.42,5.42,0,0,1,37.67,9h0l0-.15A5.17,5.17,0,0,1,38.31,5a5.42,5.42,0,0,1,3.28-2.39h0a.4.4,0,0,1,.15,0A84.06,84.06,0,0,1,68.82.3a56.87,56.87,0,0,1,41.34,23,83.25,83.25,0,0,1,12.22,23.81,1.5,1.5,0,0,1,.26.54Z"/></svg>