<svg id="Layer_1" data-name="Layer 1" xmlns="http://www.w3.org/2000/svg" viewBox="0 0 71.55 122.88"><defs><style>.cls-1{fill-rule:evenodd;}</style></defs><title>5g-mobile</title><path class="cls-1" d="M14.53,0H57A14.53,14.53,0,0,1,71.55,14.54v93.8A14.53,14.53,0,0,1,57,122.88H14.53A14.54,14.54,0,0,1,0,108.34V14.52A14.51,14.51,0,0,1,14.53,0ZM49.44,54.17a2.57,2.57,0,0,1,.76,1.56,2.52,2.52,0,0,1-.54,1.88h0a2.57,2.57,0,0,1-3.59.39h0A19.44,19.44,0,0,0,41,55a13.6,13.6,0,0,0-10.31,0,18.69,18.69,0,0,0-5,3h0l-.07.06a2.55,2.55,0,0,1-1.79.5,2.49,2.49,0,0,1-1.71-.92L22,57.55a2.56,2.56,0,0,1-.51-1.79,2.5,2.5,0,0,1,.92-1.71l0,0A24,24,0,0,1,29,50.16a18.69,18.69,0,0,1,6.87-1.31,19.2,19.2,0,0,1,6.92,1.33A24.89,24.89,0,0,1,49.32,54a.71.71,0,0,1,.12.13ZM58,44.76a2.58,2.58,0,0,1,.83,1.74,2.51,2.51,0,0,1-.65,1.85,2.59,2.59,0,0,1-1.76.85,2.47,2.47,0,0,1-1.86-.64l0,0a35.15,35.15,0,0,0-9.38-6.08,22.2,22.2,0,0,0-18.83.35,36.1,36.1,0,0,0-9.21,6.5h0a2.52,2.52,0,0,1-1.81.69,2.57,2.57,0,0,1-1.79-.78h0l-.05,0a2.51,2.51,0,0,1-.67-1.79,2.6,2.6,0,0,1,.79-1.78h0l.05-.05a40.65,40.65,0,0,1,10.68-7.44,27.25,27.25,0,0,1,22.65-.43A39.5,39.5,0,0,1,57.71,44.6a.6.6,0,0,1,.24.16ZM27.44,83.12c-.93,0-2-.05-3.06-.16l-3.27-.33V78.81h6.55a1.69,1.69,0,0,0,1.07-.26,1,1,0,0,0,.35-.62,5.29,5.29,0,0,0,.05-.61v-.77a1.7,1.7,0,0,0-.24-1,1,1,0,0,0-.91-.34H26.89a1.29,1.29,0,0,0-.85.22.91.91,0,0,0-.31.64H21.16l.52-11.55H33.17v4.31H25.8l-.12,2.8a2.11,2.11,0,0,1,1-.4,8.08,8.08,0,0,1,1.2-.09h1.88a4.35,4.35,0,0,1,2.36.59,3.65,3.65,0,0,1,1.36,1.62,5.52,5.52,0,0,1,.45,2.28v2.7a4.82,4.82,0,0,1-.71,2.74,4,4,0,0,1-2.15,1.54,11.63,11.63,0,0,1-3.64.48Zm14,0a4.94,4.94,0,0,1-2.79-.73,4.87,4.87,0,0,1-1.67-2,10.37,10.37,0,0,1-.83-3,25.45,25.45,0,0,1-.24-3.59,24,24,0,0,1,.29-3.87,8.33,8.33,0,0,1,1-3A4.94,4.94,0,0,1,39.43,65a8.72,8.72,0,0,1,3.67-.67c1,0,1.82,0,2.52.11a18,18,0,0,1,2,.33c.61.14,1.25.3,1.91.48V69c-.36-.07-.83-.13-1.39-.18s-1.19-.09-1.88-.12-1.43,0-2.21,0a4.09,4.09,0,0,0-2.13.43A2.22,2.22,0,0,0,41,70.67a16.74,16.74,0,0,0-.23,3.13,20.54,20.54,0,0,0,.13,2.49,4.26,4.26,0,0,0,.41,1.48,1.63,1.63,0,0,0,.73.72,2.66,2.66,0,0,0,1.07.19,15.72,15.72,0,0,0,1.63-.08c.48-.06.85-.11,1.09-.16V76.05H43.25V72.23c.36,0,.8-.09,1.3-.12L46.12,72l1.47,0h1.58l1.25,0V83H46.8l-.65-1.21a9.77,9.77,0,0,1-1.86.87,8.11,8.11,0,0,1-2.83.47ZM3.92,102.69h63.7V15.85H3.92v86.84Zm31.84,4.55a6,6,0,1,1-6,6,6,6,0,0,1,6-6Z"/></svg>