<svg id="Layer_1" data-name="Layer 1" xmlns="http://www.w3.org/2000/svg" viewBox="0 0 91.05 122.88"><title>5g-sim-card</title><path d="M8.3,0h45c2.21,0,3.32,0,4.59.49s2.07,1.34,3.63,2.94l1.35,1.38C67,9,70.76,12.89,74.57,16.82s7.37,7.6,11.34,11.6c.71.71,1.32,1.29,1.82,1.78a10.21,10.21,0,0,1,2.75,3.37c.59,1.35.58,2.55.56,5.08,0,.21,0-.24,0,1.66v74.27a8.26,8.26,0,0,1-2.44,5.85h0a8.24,8.24,0,0,1-5.85,2.44H8.3a8.24,8.24,0,0,1-5.85-2.44h0A8.29,8.29,0,0,1,0,114.58V8.32A8.26,8.26,0,0,1,2.44,2.46h0A8.29,8.29,0,0,1,8.3,0ZM34.73,50q-1.83,0-4-.21c-1.47-.14-2.91-.29-4.31-.44v-5H35A2.21,2.21,0,0,0,36.44,44a1.28,1.28,0,0,0,.45-.82,5.29,5.29,0,0,0,.07-.8v-1a2.24,2.24,0,0,0-.31-1.28,1.38,1.38,0,0,0-1.2-.46H34a1.72,1.72,0,0,0-1.13.3,1.23,1.23,0,0,0-.41.85h-6l.69-15.27H42.3v5.7H32.57l-.17,3.7a3,3,0,0,1,1.35-.54,11.84,11.84,0,0,1,1.57-.11h2.49a5.68,5.68,0,0,1,3.12.78,4.85,4.85,0,0,1,1.8,2.13,7.53,7.53,0,0,1,.59,3v3.57a6.32,6.32,0,0,1-.94,3.62,5.23,5.23,0,0,1-2.83,2,15.24,15.24,0,0,1-4.82.64Zm18.13,0a6.41,6.41,0,0,1-3.69-1A6.28,6.28,0,0,1,47,46.39a13.68,13.68,0,0,1-1.1-3.92,34,34,0,0,1-.31-4.75,31.84,31.84,0,0,1,.37-5.11,10.93,10.93,0,0,1,1.38-3.93,6.51,6.51,0,0,1,2.87-2.53A11.37,11.37,0,0,1,55,25.27a31.38,31.38,0,0,1,3.32.15,21.59,21.59,0,0,1,2.61.42c.81.19,1.65.4,2.52.64v4.95c-.48-.09-1.09-.16-1.83-.23s-1.57-.12-2.49-.16S57.26,31,56.23,31a5.46,5.46,0,0,0-2.82.57,3,3,0,0,0-1.21,2.05,22,22,0,0,0-.3,4.13,26.42,26.42,0,0,0,.17,3.3A5.73,5.73,0,0,0,52.61,43a2.11,2.11,0,0,0,1,1,3.51,3.51,0,0,0,1.41.26,17.43,17.43,0,0,0,2.16-.12q.95-.11,1.44-.21V40.7H55.21v-5c.49-.07,1.06-.12,1.73-.17L59,35.38c.71,0,1.36-.05,2-.05.79,0,1.48,0,2.08,0l1.66,0V49.85H59.9l-.85-1.61a12.9,12.9,0,0,1-2.46,1.15,10.73,10.73,0,0,1-3.73.62Zm2.66,11.56V73.63H68.05V65.89a4.34,4.34,0,0,0-4.31-4.32Zm0,16.63v8.26H68.05V78.2Zm0,12.84v12.57h8.22a4.35,4.35,0,0,0,4.31-4.32V91Zm-4.58,12.57V88.9a.76.76,0,0,1,0-.15.86.86,0,0,1,0-.16V76.07a.76.76,0,0,1,0-.15.81.81,0,0,1,0-.16V61.57H27.33a4.35,4.35,0,0,0-3.06,1.27,4.3,4.3,0,0,0-1.26,3v7.66H37.34a2.3,2.3,0,0,1,2.29,2.29v27.77ZM35.05,90.75H23v8.54a4.35,4.35,0,0,0,4.32,4.32h7.72V90.75ZM23,86.17h12v-8H23v8Zm4.32-29.08H63.74a8.83,8.83,0,0,1,8.79,8.8v33.4a8.81,8.81,0,0,1-8.79,8.79H27.33a8.81,8.81,0,0,1-8.8-8.79V65.89a8.8,8.8,0,0,1,2.58-6.21h0a8.74,8.74,0,0,1,6.21-2.59Zm24-51.7H8.3a2.91,2.91,0,0,0-2.06.85h0a2.92,2.92,0,0,0-.86,2.07V114.58a2.88,2.88,0,0,0,.86,2.06h0a2.88,2.88,0,0,0,2.06.86H82.75a2.92,2.92,0,0,0,2.92-2.93V40.31c0-.65,0-.49,0-1.68a11.83,11.83,0,0,0-.12-2.92A9.27,9.27,0,0,0,84,34.06c-.52-.5-1.14-1.1-1.9-1.87-4-4-7.68-7.82-11.38-11.64S63.15,12.72,59,8.6L57.65,7.18a10.85,10.85,0,0,0-1.84-1.73,9.91,9.91,0,0,0-2.48-.09l-2,0Z"/></svg>