<svg id="Layer_1" data-name="Layer 1" xmlns="http://www.w3.org/2000/svg" viewBox="0 0 71.55 122.88"><defs><style>.cls-1{fill-rule:evenodd;}</style></defs><title>6g-mobile</title><path class="cls-1" d="M14.53,0H57A14.53,14.53,0,0,1,71.55,14.54v93.8A14.53,14.53,0,0,1,57,122.88H14.53A14.54,14.54,0,0,1,0,108.34V14.52A14.51,14.51,0,0,1,14.53,0ZM58,44.76a2.58,2.58,0,0,1,.83,1.74,2.51,2.51,0,0,1-.65,1.85,2.59,2.59,0,0,1-1.76.85,2.47,2.47,0,0,1-1.86-.64l0,0a35.15,35.15,0,0,0-9.38-6.08,22.2,22.2,0,0,0-18.83.35,36.1,36.1,0,0,0-9.21,6.5h0a2.52,2.52,0,0,1-1.81.69,2.57,2.57,0,0,1-1.79-.78h0l-.05,0a2.51,2.51,0,0,1-.67-1.79,2.6,2.6,0,0,1,.79-1.78h0l.05-.05a40.65,40.65,0,0,1,10.68-7.44,27.25,27.25,0,0,1,22.65-.43A39.5,39.5,0,0,1,57.71,44.6a.6.6,0,0,1,.24.16ZM26.71,83.12a7.13,7.13,0,0,1-2.56-.41,3.87,3.87,0,0,1-1.81-1.4,7.06,7.06,0,0,1-1.08-2.74,22.31,22.31,0,0,1-.36-4.4,19.69,19.69,0,0,1,.49-4.75,7.3,7.3,0,0,1,1.42-3,5.06,5.06,0,0,1,2.29-1.56,9.27,9.27,0,0,1,3-.46c.87,0,1.72,0,2.54.11a12.49,12.49,0,0,1,2.22.38v3.82H28.72a2.8,2.8,0,0,0-2.35.85,3.77,3.77,0,0,0-.65,2.38,5,5,0,0,1,.93-.34,7.06,7.06,0,0,1,1.07-.15c.42,0,.93,0,1.54,0a6,6,0,0,1,3,.59,3.12,3.12,0,0,1,1.4,1.61A6.49,6.49,0,0,1,34,75.88v2.68a5.29,5.29,0,0,1-.58,2.62,3.47,3.47,0,0,1-1.65,1.47,6.08,6.08,0,0,1-2.51.47Zm1-4.31h.42a1.18,1.18,0,0,0,.65-.15.92.92,0,0,0,.32-.44,2.22,2.22,0,0,0,.1-.68v-.69a2.47,2.47,0,0,0-.11-.83.73.73,0,0,0-.4-.41,2.21,2.21,0,0,0-.83-.13H25.72a12.18,12.18,0,0,0,.09,1.64,2.71,2.71,0,0,0,.34,1,1.25,1.25,0,0,0,.62.52,2.59,2.59,0,0,0,.93.15ZM41.53,83.1a4.94,4.94,0,0,1-2.79-.73,4.89,4.89,0,0,1-1.68-2,10.71,10.71,0,0,1-.83-3A25.5,25.5,0,0,1,36,73.8a24.08,24.08,0,0,1,.28-3.87,8.33,8.33,0,0,1,1-3A5,5,0,0,1,39.49,65a8.75,8.75,0,0,1,3.67-.67c1,0,1.82,0,2.52.11a18,18,0,0,1,2,.33c.61.14,1.25.3,1.91.48V69a13.83,13.83,0,0,0-1.39-.18c-.56,0-1.19-.09-1.88-.12s-1.43,0-2.21,0a4.09,4.09,0,0,0-2.13.43A2.26,2.26,0,0,0,41,70.67a16.89,16.89,0,0,0-.22,3.13,20.84,20.84,0,0,0,.12,2.49,4.26,4.26,0,0,0,.41,1.48,1.63,1.63,0,0,0,.73.72,2.69,2.69,0,0,0,1.07.19,15.93,15.93,0,0,0,1.64-.08c.48-.06.84-.11,1.09-.16V76.05H43.31V72.23c.37,0,.8-.09,1.3-.12L46.18,72l1.47,0h1.58l1.25,0V83H46.86l-.65-1.21a9.77,9.77,0,0,1-1.86.87,8.1,8.1,0,0,1-2.82.47Zm7.91-28.93a2.57,2.57,0,0,1,.76,1.56,2.52,2.52,0,0,1-.54,1.88h0a2.57,2.57,0,0,1-3.59.39h0A19.44,19.44,0,0,0,41,55a13.6,13.6,0,0,0-10.31,0,18.69,18.69,0,0,0-5,3h0l-.07.06a2.55,2.55,0,0,1-1.79.5,2.49,2.49,0,0,1-1.71-.92L22,57.55a2.56,2.56,0,0,1-.51-1.79,2.5,2.5,0,0,1,.92-1.71l0,0A24,24,0,0,1,29,50.16a18.69,18.69,0,0,1,6.87-1.31,19.2,19.2,0,0,1,6.92,1.33A24.89,24.89,0,0,1,49.32,54a.71.71,0,0,1,.12.13ZM3.92,102.69h63.7V15.85H3.92v86.84Zm31.84,4.55a6,6,0,1,1-6,6,6,6,0,0,1,6-6Z"/></svg>