<svg id="Layer_1" data-name="Layer 1" xmlns="http://www.w3.org/2000/svg" viewBox="0 0 91.05 122.88"><title>6g-sim-card</title><path d="M8.3,0h45c2.21,0,3.32,0,4.59.49s2.07,1.34,3.63,2.94l1.35,1.38C67,9,70.76,12.89,74.57,16.82s7.37,7.6,11.34,11.6c.71.71,1.32,1.29,1.82,1.78a10.21,10.21,0,0,1,2.75,3.37c.59,1.35.58,2.55.56,5.08,0,.21,0-.24,0,1.66v74.27a8.26,8.26,0,0,1-2.44,5.85h0a8.24,8.24,0,0,1-5.85,2.44H8.3a8.24,8.24,0,0,1-5.85-2.44h0A8.29,8.29,0,0,1,0,114.58V8.32A8.26,8.26,0,0,1,2.44,2.46h0A8.29,8.29,0,0,1,8.3,0ZM33.86,50a9.57,9.57,0,0,1-3.37-.54,5.08,5.08,0,0,1-2.39-1.85A9.3,9.3,0,0,1,26.67,44a29.34,29.34,0,0,1-.48-5.82,26.18,26.18,0,0,1,.64-6.27,9.8,9.8,0,0,1,1.89-4,6.76,6.76,0,0,1,3-2.06,12.28,12.28,0,0,1,4-.61q1.74,0,3.36.15a17.07,17.07,0,0,1,2.94.51v5H36.52a3.7,3.7,0,0,0-3.1,1.12,5,5,0,0,0-.87,3.14,7.3,7.3,0,0,1,1.23-.44,8.79,8.79,0,0,1,1.43-.2c.54,0,1.22,0,2,0a8,8,0,0,1,3.92.78A4.1,4.1,0,0,1,43,37.49a8.83,8.83,0,0,1,.49,3V44a6.87,6.87,0,0,1-.77,3.46,4.59,4.59,0,0,1-2.18,2,8,8,0,0,1-3.31.62Zm1.31-5.7h.56a1.53,1.53,0,0,0,.85-.19,1.16,1.16,0,0,0,.43-.58,2.67,2.67,0,0,0,.13-.9v-.92a3.15,3.15,0,0,0-.15-1.1,1,1,0,0,0-.52-.54,2.87,2.87,0,0,0-1.1-.16H32.55a15.69,15.69,0,0,0,.13,2.16,3.56,3.56,0,0,0,.45,1.35,1.72,1.72,0,0,0,.82.69,3.36,3.36,0,0,0,1.22.19ZM53,50a6.41,6.41,0,0,1-3.69-1,6.28,6.28,0,0,1-2.21-2.65A13.68,13.68,0,0,1,46,42.47a34,34,0,0,1-.31-4.75,31.84,31.84,0,0,1,.37-5.11,10.93,10.93,0,0,1,1.38-3.93,6.51,6.51,0,0,1,2.87-2.53,11.37,11.37,0,0,1,4.85-.88,31.72,31.72,0,0,1,3.33.15,21.74,21.74,0,0,1,2.6.42c.81.19,1.65.4,2.52.64v4.95c-.48-.09-1.09-.16-1.83-.23s-1.57-.12-2.49-.16S57.44,31,56.41,31a5.46,5.46,0,0,0-2.82.57,3,3,0,0,0-1.21,2.05,22.1,22.1,0,0,0-.29,4.13,26.71,26.71,0,0,0,.16,3.3A5.73,5.73,0,0,0,52.79,43a2.11,2.11,0,0,0,1,1,3.51,3.51,0,0,0,1.41.26,17.43,17.43,0,0,0,2.16-.12q.95-.11,1.44-.21V40.7H55.4v-5c.48-.07,1.05-.12,1.72-.17l2.06-.11c.71,0,1.36-.05,2-.05.79,0,1.48,0,2.08,0l1.66,0V49.85H60.08l-.85-1.61a12.61,12.61,0,0,1-2.46,1.15A10.73,10.73,0,0,1,53,50Zm2.48,11.56V73.63H68.05V65.89a4.34,4.34,0,0,0-4.31-4.32Zm0,16.63v8.26H68.05V78.2Zm0,12.84v12.57h8.22a4.35,4.35,0,0,0,4.31-4.32V91Zm-4.58,12.57V88.9a.76.76,0,0,1,0-.15.86.86,0,0,1,0-.16V76.07a.76.76,0,0,1,0-.15.81.81,0,0,1,0-.16V61.57H27.33a4.35,4.35,0,0,0-3.06,1.27,4.3,4.3,0,0,0-1.26,3v7.66H37.34a2.3,2.3,0,0,1,2.29,2.29v27.77ZM35.05,90.75H23v8.54a4.35,4.35,0,0,0,4.32,4.32h7.72V90.75ZM23,86.17h12v-8H23v8Zm4.32-29.08H63.74a8.83,8.83,0,0,1,8.79,8.8v33.4a8.81,8.81,0,0,1-8.79,8.79H27.33a8.81,8.81,0,0,1-8.8-8.79V65.89a8.8,8.8,0,0,1,2.58-6.21h0a8.74,8.74,0,0,1,6.21-2.59Zm24-51.7H8.3a2.91,2.91,0,0,0-2.06.85h0a2.92,2.92,0,0,0-.86,2.07V114.58a2.88,2.88,0,0,0,.86,2.06h0a2.88,2.88,0,0,0,2.06.86H82.75a2.92,2.92,0,0,0,2.92-2.93V40.31c0-.65,0-.49,0-1.68a11.83,11.83,0,0,0-.12-2.92A9.27,9.27,0,0,0,84,34.06c-.52-.5-1.14-1.1-1.9-1.87-4-4-7.68-7.82-11.38-11.64S63.15,12.72,59,8.6L57.65,7.18a10.85,10.85,0,0,0-1.84-1.73,9.91,9.91,0,0,0-2.48-.09l-2,0Z"/></svg>