<svg id="Layer_1" data-name="Layer 1" xmlns="http://www.w3.org/2000/svg" viewBox="0 0 122.88 105.3"><title>6g</title><path d="M96.72,57.2a5.47,5.47,0,0,1-3.29,6.59h0a5.48,5.48,0,0,1-7.08-3.13v0a41.35,41.35,0,0,0-6.16-11.08,30,30,0,0,0-8.49-7.43,29.59,29.59,0,0,0-10.64-3.65,40,40,0,0,0-12.5.23h0l-.18,0a5.49,5.49,0,0,1-3.87-1,5.34,5.34,0,0,1-2.18-3.54l0-.25a5.49,5.49,0,0,1,1-3.87,5.41,5.41,0,0,1,3.54-2.18l.12,0a51.71,51.71,0,0,1,16.16-.18,39.92,39.92,0,0,1,14.14,5,41.15,41.15,0,0,1,11.4,9.9,53.29,53.29,0,0,1,8,14.24,1.38,1.38,0,0,1,.09.39ZM14.48,105.3a18.07,18.07,0,0,1-6.37-1,9.73,9.73,0,0,1-4.52-3.5A17.54,17.54,0,0,1,.9,93.94,55.74,55.74,0,0,1,0,83,48.7,48.7,0,0,1,1.21,71.11a18.37,18.37,0,0,1,3.55-7.48,12.82,12.82,0,0,1,5.7-3.9,23.18,23.18,0,0,1,7.61-1.15c2.18,0,4.3.1,6.34.28a32.82,32.82,0,0,1,5.54,1v9.53H19.49c-2.81,0-4.75.7-5.85,2.1A9.5,9.5,0,0,0,12,77.39a12,12,0,0,1,2.32-.83A14.93,14.93,0,0,1,17,76.19c1-.07,2.31-.1,3.84-.1a14.93,14.93,0,0,1,7.39,1.49,7.58,7.58,0,0,1,3.5,4,16.26,16.26,0,0,1,.93,5.63v6.68a12.91,12.91,0,0,1-1.46,6.53,8.7,8.7,0,0,1-4.11,3.68,15.42,15.42,0,0,1-6.25,1.18ZM17,94.53H18a2.88,2.88,0,0,0,1.61-.37,2.13,2.13,0,0,0,.81-1.08,5.38,5.38,0,0,0,.24-1.71V89.64a6.08,6.08,0,0,0-.27-2.07,1.8,1.8,0,0,0-1-1,5.38,5.38,0,0,0-2.08-.31H12a26.89,26.89,0,0,0,.25,4.08,6.64,6.64,0,0,0,.84,2.54,3.13,3.13,0,0,0,1.54,1.3,6.38,6.38,0,0,0,2.32.37Zm33.72,10.7a12.16,12.16,0,0,1-7-1.82,12,12,0,0,1-4.17-5A25.62,25.62,0,0,1,37.46,91a65.12,65.12,0,0,1-.58-9,59.17,59.17,0,0,1,.71-9.65A20.65,20.65,0,0,1,40.18,65a12.43,12.43,0,0,1,5.42-4.76,21.55,21.55,0,0,1,9.16-1.67A59.64,59.64,0,0,1,61,58.8a42.32,42.32,0,0,1,4.91.8c1.53.35,3.12.76,4.77,1.21v9.34c-.91-.16-2.06-.31-3.47-.43s-3-.23-4.7-.31S59,69.29,57,69.29a10.3,10.3,0,0,0-5.32,1.08,5.61,5.61,0,0,0-2.29,3.87A42.14,42.14,0,0,0,48.88,82a49.49,49.49,0,0,0,.31,6.22,10.45,10.45,0,0,0,1,3.68A3.83,3.83,0,0,0,52,93.72a6.35,6.35,0,0,0,2.66.5A33.3,33.3,0,0,0,58.78,94c1.19-.14,2.1-.28,2.72-.4V87.66H55.13V78.13c.9-.12,2-.22,3.25-.3s2.55-.16,3.89-.22,2.57-.09,3.68-.09q2.23,0,3.93,0c1.14,0,2.18,0,3.13.09v27.28H64l-1.6-3a24.13,24.13,0,0,1-4.65,2.17,20.13,20.13,0,0,1-7,1.17Zm72-56.33a5.54,5.54,0,0,1-.35,4.11,5.42,5.42,0,0,1-3.18,2.74,5.63,5.63,0,0,1-4.2-.31,5.41,5.41,0,0,1-2.74-3.19l0-.09A75,75,0,0,0,101.31,30.8,49.18,49.18,0,0,0,85.82,17,48.81,48.81,0,0,0,66,11.18,76.3,76.3,0,0,0,42,13.31h0a5.39,5.39,0,0,1-4.1-.66,5.6,5.6,0,0,1-2.48-3.38h0l0-.16a5.33,5.33,0,0,1,.69-4,5.58,5.58,0,0,1,3.37-2.46h0a.4.4,0,0,1,.15,0A86.49,86.49,0,0,1,67.35.31a58.42,58.42,0,0,1,42.46,23.58,85.33,85.33,0,0,1,12.55,24.46,1.44,1.44,0,0,1,.28.55Z"/></svg>