<svg xmlns="http://www.w3.org/2000/svg" shape-rendering="geometricPrecision" text-rendering="geometricPrecision" image-rendering="optimizeQuality" fill-rule="evenodd" clip-rule="evenodd" viewBox="0 0 427 511.42"><g fill-rule="nonzero"><path d="m130.39 187.83.05.08c11.11 14.91-11.05 32.05-22.61 17.69l-.24-.3c-9.53-11.76-16.8-24.06-21.7-36.67-4.96-12.74-7.52-25.84-7.6-39.05-.07-12.94 2.35-25.93 7.28-38.7 4.81-12.49 12.06-24.79 21.74-36.66 11.89-14.71 34.2 3.32 22.37 18.01l-.1.12c-7.52 9.24-13.14 18.7-16.88 28.19-3.81 9.64-5.69 19.33-5.69 28.88 0 9.66 1.96 19.37 5.75 28.95 3.87 9.79 9.65 19.46 17.2 28.82l.43.64zm179.02 278.43L291 407.5l-135.38 58.76h153.79zm-241.2 0h38.56l82.64-290.14.08.04c7.48 3.83 12.77 5.02 21.12 5.28l-13.36 46.93 45.43 24.89-22.6-72.13c7.33-.78 14.41-2.96 20.78-6.7l91.43 291.83h38.82v45.16H68.21v-45.16zm213.44-88.62-27.39-87.42-75.67 53 103.06 34.42zm-90.54-127.73L170.5 322.3l67.03-46.96-46.42-25.43zm-31.33 110.01-26.26 92.19 131.45-57.05-105.19-35.14zm214.26-105.05c-12.95 13.76-33.85-5.46-21.3-19.44l.22-.24c15.25-17.25 26.74-34.86 34.33-52.64 7.56-17.68 11.26-35.53 10.99-53.35-.28-17.5-4.48-35.15-12.71-52.74-8.13-17.37-20.23-34.73-36.4-51.89l-.3-.32c-12.48-13.61 7.76-33.3 21.1-19.62l.29.3c18.5 19.69 32.38 39.85 41.77 60.28 9.65 20.99 14.58 42.26 14.95 63.58.36 21.56-3.97 42.98-12.84 64-8.71 20.68-21.83 41-39.15 60.7-.2.48-.49.92-.87 1.3l-.08.08zm-62.81-48.4c-12.59 12.94-32.83-4.95-21.49-19l.1-.12c7.53-9.26 13.27-18.85 17.11-28.55 3.8-9.63 5.75-19.38 5.75-29.09 0-9.63-1.86-19.36-5.66-29l-.08-.19c-3.74-9.42-9.34-18.8-16.9-27.97l-.36-.47c-11.13-14.91 11.02-32.05 22.6-17.7l.24.31c9.61 11.81 16.8 24.05 21.6 36.47 4.93 12.77 7.35 25.76 7.27 38.71-.07 13.19-2.62 26.23-7.57 38.94-4.93 12.68-12.25 25.06-21.87 36.95-.22.28-.47.52-.74.71zM74.62 235.82c12.13 14.12-8.81 32.87-21.59 19.11l-.41-.47c-17.59-19.95-30.92-40.53-39.76-61.5C4.01 171.97-.34 150.6.02 129.07.39 107.81 5.33 86.52 15 65.49 24.43 44.99 38.36 24.74 56.94 5l.12-.11C70.54-8.89 90.83 11.3 77.91 24.77l-.18.2c-16.12 17.18-28.18 34.54-36.3 51.88-8.23 17.59-12.43 35.2-12.71 52.64-.27 17.78 3.45 35.59 10.99 53.23 7.5 17.57 18.81 34.99 33.71 52.04.3.18.59.39.85.65l.35.41z"/><path fill="#F44336" d="M213.31 172.4c-3.63 0-7.25-.3-10.82-.9l-.53-.12c-2.9-.83-5.7-1.94-8.34-3.3a43.23 43.23 0 0 1-7.5-4.91l-3.09-2.77a43.142 43.142 0 0 1-9.35-14.01 43.391 43.391 0 0 1-3.25-16.54c0-5.81 1.16-11.35 3.26-16.42 2.17-5.29 5.39-10.07 9.33-14.09 3.99-4.01 8.73-7.2 14.01-9.38 5.11-2.1 10.69-3.25 16.54-3.25a43.2 43.2 0 0 1 16.42 3.25c5.3 2.19 10.08 5.4 14.09 9.33 4.02 4 7.2 8.74 9.38 14.02a43.209 43.209 0 0 1 3.26 16.54c0 3.21-.37 6.38-1.06 9.46l-.05.17c-.7 3.1-1.74 6.06-3.04 8.81-3.74 7.89-9.11 13.9-15.73 17.95-6.72 4.12-14.7 6.19-23.53 6.16z"/></g></svg>