<svg xmlns="http://www.w3.org/2000/svg" shape-rendering="geometricPrecision" text-rendering="geometricPrecision" image-rendering="optimizeQuality" fill-rule="evenodd" clip-rule="evenodd" viewBox="0 0 512 304.95"><path fill-rule="nonzero" d="M304.65 14.43C280.04 2.65 252.53-1.88 225.67.7c-26.63 2.58-52.52 12.27-73.92 28.87-24.74 19.19-43.53 47.86-50.77 85.87l-2.29 11.9c-30.07 5.31-59.98 11.56-80.63 36.29C5.63 178.54-.16 197.26 0 216.18c.14 19.22 6.39 38.63 17.93 54.57 4.3 5.92 9.26 11.38 14.95 16.11 5.79 4.76 12.27 8.76 19.55 11.74 7.24 2.98 15.24 5.09 24.08 6.35h81.31l51.01-75.29.07.1c-16.68-23.57-19.2-55.63-3.82-82.27 16.01-27.72 46.78-41.59 76.65-37.42l-33.68 58.33c-2.14 3.71-.86 8.5 2.86 10.65l36.06 20.82c3.72 2.15 8.51.86 10.66-2.85l33.67-58.33c18.54 23.78 21.92 57.36 5.92 85.09-15.88 27.48-46.27 41.35-75.91 37.52l-19.97 43.65h178.51c16.7-4.03 31.48-9.49 44.02-16.47 33.85-18.99 47.73-47.96 48.12-86.56.14-12.22-1.32-24.47-4.29-35.87-8.15-31.3-30.13-58.84-62.48-67.13-14.34-3.68-29.78-3.45-45.75-.42-7.93 1.51-15.81 3.74-23.65 6.61-6.51-42.63-32.94-72.29-71.17-90.68z"/></svg>