<svg id="Layer_1" data-name="Layer 1" xmlns="http://www.w3.org/2000/svg" viewBox="0 0 122.87 108.46"><defs><style>.cls-1{fill-rule:evenodd;}</style></defs><title>cloud-storage</title><path class="cls-1" d="M23.88,0H69C77.1,0,83.12,5.72,85.31,13.25c.66.26,1.33.54,2,.86A27.39,27.39,0,0,1,100,26.62h0a21.22,21.22,0,0,1,3.55-.27,18.22,18.22,0,0,1,13.57,5.9,21.67,21.67,0,0,1,2.24,2.89,24.42,24.42,0,0,1,3.54,13.29A21.84,21.84,0,0,1,119,61.2a20.24,20.24,0,0,1-6.43,5.5,32.53,32.53,0,0,1-8.66,3.21l-.61.08H92l.22,2c.4,3.51.85,7,1.19,10.53.24,2.39.41,4.6.48,6.65a36.36,36.36,0,0,1-.56,8.82.58.58,0,0,1,0,.14A11.38,11.38,0,0,1,82,108.46H11.6A11.32,11.32,0,0,1,3.45,105C.12,101.53.29,98.39.16,94.27.09,92.22,0,90,0,87.79A109.64,109.64,0,0,1,.9,74.31L6.85,17c.94-9,7.44-17,17-17ZM89.12,37.94l-3.59-4.11a30.24,30.24,0,0,1,4-3.12,28,28,0,0,1,3.55-2c.49-.25,1-.48,1.49-.69a21.9,21.9,0,0,0-9.63-9,23.45,23.45,0,0,0-12.38-2.15A22.38,22.38,0,0,0,61,21.38a21.78,21.78,0,0,0-8,13.45l-.35,1.87L50.82,37A24.75,24.75,0,0,0,46,38.34a15.89,15.89,0,0,0-3.68,2A11.76,11.76,0,0,0,40,42.39a12.6,12.6,0,0,0-2.83,8.23A14.87,14.87,0,0,0,40,59.17a13.62,13.62,0,0,0,2.34,2.52,11.7,11.7,0,0,0,3.07,1.84,15.64,15.64,0,0,0,3.77,1H103A27.46,27.46,0,0,0,109.88,62a14.78,14.78,0,0,0,4.74-4,16.35,16.35,0,0,0,2.81-9.54,18.9,18.9,0,0,0-2.67-10.28A15.17,15.17,0,0,0,113.09,36a12.85,12.85,0,0,0-9.6-4.16c-5.74-.06-10.1,2.66-14.37,6.14ZM80.3,85.79h9.14c-.16-2.54-.44-5.45-.79-8.42a6.68,6.68,0,0,0-2.46-.46H8.48a6.81,6.81,0,0,0-3,.71c-.33,2.35-.73,5.27-.92,8.17H80.3ZM13.22,93.31H31.9v8.08H13.22V93.31Z"/></svg>