<svg xmlns="http://www.w3.org/2000/svg" shape-rendering="geometricPrecision" text-rendering="geometricPrecision" image-rendering="optimizeQuality" fill-rule="evenodd" clip-rule="evenodd" viewBox="0 0 512 406.23"><path fill-rule="nonzero" d="M359.78 124.71c-3.12 1.54-6.29 3.25-9.41 5.04-9.37 5.5-18.63 12.21-28.08 19.92l-20.17-23.08c6.96-6.46 14.5-12.34 22.5-17.54 6.37-4.17 13.04-7.88 19.92-11.04 2.75-1.38 5.5-2.67 8.33-3.88-13.29-23.54-32.42-40.42-54.08-50.83-21.67-10.38-45.92-14.38-69.54-12.09-23.46 2.26-46.25 10.8-65.08 25.42-21.79 16.87-38.34 42.13-44.71 75.58l-2 10.46-10.42 1.83c-10.21 1.79-19.33 4.25-27.33 7.38-7.75 3-14.67 6.71-20.71 11.08-4.83 3.5-9 7.42-12.54 11.67-10.96 13.12-16.04 29.58-15.92 46.25.13 16.91 5.63 33.99 15.8 48.04 3.79 5.21 8.16 10 13.16 14.17a66.34 66.34 0 0 0 17.21 10.33c6.38 2.62 13.42 4.49 21.21 5.58h31.3v-47.56h-12.56c-8.16 0-14.9-6.7-14.9-14.9s6.7-14.91 14.9-14.91h278.67c8.2 0 14.91 6.71 14.91 14.91s-6.74 14.9-14.91 14.9h-12.55V299h17.42c14.71-3.54 27.71-8.33 38.75-14.5 10.96-6.12 19.92-13.58 26.62-22.54 10.42-13.88 15.55-33.5 15.76-53.63.25-21.12-4.92-42.33-14.96-57.74a86.75 86.75 0 0 0-9.38-12.05c-15.04-16.2-34.12-23.29-53.96-23.41-14.29-.13-29.16 3.33-43.25 9.58zM181.5 354.56c-5.41 0-9.81-4.39-9.81-9.81 0-5.42 4.4-9.81 9.81-9.81h81.01c5.42 0 9.82 4.39 9.82 9.81 0 5.42-4.4 9.81-9.82 9.81H181.5zm0-51.49c-5.41 0-9.81-4.39-9.81-9.81 0-5.42 4.4-9.81 9.81-9.81h149.01c5.42 0 9.81 4.39 9.81 9.81 0 5.42-4.39 9.81-9.81 9.81H181.5zm-28.39 79.28h205.78V252.83H153.11v129.52zm-23.89-52.68h-31.8l-1.92-.17c-11.12-1.42-21.21-4.04-30.37-7.83-9.46-3.92-17.84-8.96-25.21-15.13-7-5.83-13.13-12.46-18.33-19.67C7.67 267.71.17 244.29 0 220.96c-.16-23.58 7.17-47.04 23.01-66.04 5.12-6.17 11.16-11.83 18.07-16.83 8.05-5.84 17.26-10.75 27.67-14.79 7.17-2.8 14.84-5.13 22.92-7 9.16-36.42 28.71-64.46 53.83-83.92C169 14.17 197.29 3.55 226.41.76c29-2.8 58.84 2.12 85.63 14.99 29.2 14.05 54.7 37.42 71.25 70.3 6.66-1.05 13.33-1.59 19.95-1.51 28 .21 55 10.22 76.25 33.13 4.46 4.79 8.67 10.21 12.63 16.25 13.33 20.5 20.16 47.88 19.87 74.66-.29 26.3-7.38 52.46-21.88 71.71-9.45 12.54-21.58 22.79-36.12 30.92-14 7.83-30.33 13.79-48.66 18.04l-3.42.42h-19.13v65c0 6.36-5.22 11.56-11.56 11.56H140.78c-6.36 0-11.56-5.21-11.56-11.56v-65z"/></svg>