<svg xmlns="http://www.w3.org/2000/svg" shape-rendering="geometricPrecision" text-rendering="geometricPrecision" image-rendering="optimizeQuality" fill-rule="evenodd" clip-rule="evenodd" viewBox="0 0 512 442.23"><path d="M255.57 169.4c46.29 29.34 88.11 43.22 124 39.93 6.27 126.79-40.55 201.66-123.52 232.9-80.12-29.24-127.51-100.89-124-234.82 42.14 2.21 83.47-6.9 123.52-38.01zm104.21-44.69c-3.12 1.54-6.29 3.25-9.41 5.04-9.37 5.5-18.63 12.21-28.08 19.92l-20.17-23.08c6.96-6.46 14.5-12.34 22.5-17.54 6.37-4.17 13.04-7.88 19.92-11.04 2.75-1.38 5.5-2.67 8.33-3.88-13.29-23.54-32.42-40.42-54.08-50.83-21.67-10.38-45.92-14.38-69.54-12.09C205.79 33.47 183 42 164.17 56.63c-21.79 16.87-38.34 42.13-44.71 75.58l-2 10.46-10.42 1.83c-10.21 1.79-19.33 4.25-27.33 7.38-7.75 3-14.67 6.71-20.71 11.08-4.83 3.5-9 7.42-12.54 11.67-10.96 13.12-16.04 29.58-15.92 46.25.3 40.83 27.64 72.59 67.38 78.12h1.2c2.19 10.67 4.75 20.89 7.66 30.67h-9.36l-1.92-.17c-11.12-1.42-21.21-4.04-30.37-7.83C25.16 305.12.31 263.81 0 220.96c-.16-23.58 7.17-47.04 23.01-66.04 5.12-6.17 11.16-11.83 18.07-16.83 8.05-5.84 17.26-10.75 27.67-14.79 7.17-2.8 14.84-5.13 22.92-7 9.16-36.42 28.71-64.46 53.83-83.92C169 14.17 197.29 3.55 226.41.76c29-2.8 58.84 2.12 85.63 14.99 29.2 14.05 54.7 37.42 71.25 70.3 6.66-1.05 13.33-1.59 19.95-1.51 28 .21 55 10.22 76.25 33.13 4.46 4.79 8.67 10.21 12.63 16.25 13.33 20.5 20.16 47.88 19.87 74.66-.29 26.3-7.38 52.46-21.88 71.71-9.45 12.54-21.58 22.79-36.12 30.92-13.65 7.63-29.51 13.49-47.28 17.71 3.24-10.86 6-22.22 8.25-34.09 8.78-2.89 16.8-6.32 23.99-10.33 10.96-6.12 19.92-13.58 26.62-22.54 10.42-13.88 15.55-33.5 15.76-53.63.25-21.12-4.92-42.33-14.96-57.74a86.75 86.75 0 0 0-9.38-12.05c-15.04-16.2-34.12-23.29-53.96-23.41-14.29-.13-29.16 3.33-43.25 9.58zm-102.86 88.86c31.31 19.84 59.58 29.23 83.86 27.01 4.23 85.72-27.43 136.35-83.52 157.48-.36-.13-.71-.26-1.06-.4V214.12l.72-.55zM255.63 190c40.63 25.76 77.33 37.94 108.84 35.06 1.71 108.76-37.67 167.77-108.42 196.56-68.26-26.85-109.48-82.1-108.84-198.25 36.98 1.94 73.26-6.06 108.42-33.37z"/></svg>