<svg xmlns="http://www.w3.org/2000/svg" shape-rendering="geometricPrecision" text-rendering="geometricPrecision" image-rendering="optimizeQuality" fill-rule="evenodd" clip-rule="evenodd" viewBox="0 0 395 512.02"><path d="M97.35.08h158.1l7.29-.04c7.2-.09 10.82-.14 14.3 1.31 3.5 1.45 6.06 4.08 11.16 9.33l5 5.11c15.12 15.19 29.08 29.61 43.04 44.01 13.58 14.02 27.17 28.06 41.76 42.74 2.66 2.68 4.92 4.85 6.79 6.64 4.71 4.52 7.19 6.9 8.66 10.29 1.61 3.69 1.59 7.68 1.53 16.04l-.01 279.16c0 6.57-2.7 12.56-7.04 16.9-4.33 4.34-10.32 7.04-16.9 7.04h-32.9v41.19c0 8.83-3.64 16.88-9.49 22.74l.03.02c-5.83 5.83-13.89 9.46-22.76 9.46H32.22c-8.87 0-16.93-3.62-22.76-9.46C3.62 496.73 0 488.67 0 479.8V89.15c0-8.82 3.62-16.87 9.46-22.72l.07-.08c5.85-5.81 13.89-9.42 22.69-9.42l41.19-.01v-32.9c0-6.58 2.69-12.56 7.03-16.9C84.77 2.78 90.76.08 97.35.08zm217.62 438.53H97.35c-6.59 0-12.58-2.7-16.91-7.03l-.17-.19c-4.24-4.33-6.86-10.23-6.86-16.72V80.08H32.22c-2.5 0-4.77 1.01-6.39 2.63l-.04.05a8.988 8.988 0 0 0-2.63 6.39V479.8c0 2.48 1.02 4.74 2.67 6.39 1.65 1.65 3.91 2.67 6.39 2.67h273.69c2.47 0 4.74-1.02 6.38-2.67h.05a9.023 9.023 0 0 0 2.63-6.39v-41.19zM160.65 205h92.27v66.94l-.02.59.02.59v45.99l-.02.59.02.6v67.4l.02.57h-41.61v-116c0-4.64-3.77-8.41-8.41-8.41h-67.81v-33.31c0-14.06 11.5-25.55 25.54-25.55zm109.11 0h34.81c14.05 0 25.54 11.52 25.54 25.55v33.56h-60.35V205zm60.35 75.95v30.33h-60.35v-30.33h60.35zm0 47.17v34.6c0 14.03-11.52 25.55-25.54 25.55h-34.83l.02-.57v-59.58h60.35zM194.5 388.27h-33.85c-14.02 0-25.54-11.5-25.54-25.55v-35.66h59.39v61.21zm-59.39-78.05v-29.53h59.39v29.53h-59.39z"/></svg>