<svg xmlns="http://www.w3.org/2000/svg" shape-rendering="geometricPrecision" text-rendering="geometricPrecision" image-rendering="optimizeQuality" fill-rule="evenodd" clip-rule="evenodd" viewBox="0 0 380 512.19"><path d="M114.42 200.84h151.21c10.03 0 19.15 4.11 25.77 10.73l.03.03c6.62 6.62 10.73 15.75 10.73 25.78v175.9c0 10.02-4.11 19.15-10.73 25.76l-.03.04c-6.62 6.62-15.75 10.73-25.77 10.73H114.42c-10.05 0-19.19-4.11-25.81-10.73-6.61-6.61-10.73-15.75-10.73-25.8v-175.9c0-10.03 4.11-19.16 10.73-25.78l.03-.03c6.62-6.62 15.75-10.73 25.78-10.73zM35.41.06 222.16.05c9.29-.13 13.96-.18 19.45 2.1 5.53 2.29 8.81 5.67 15.37 12.43 1.63 1.68 3.51 3.61 5.6 5.71 17.17 17.26 32.95 33.55 48.73 49.84 15.33 15.83 30.68 31.67 47.06 48.16 2.9 2.92 5.44 5.36 7.55 7.38 6.11 5.87 9.32 8.96 11.65 14.29 2.52 5.79 2.48 10.84 2.4 21.49 0 1.16.02-1.53.02 6.87v308.47c0 9.71-3.98 18.55-10.39 24.96l-.05.05c-6.41 6.41-15.25 10.39-24.97 10.39H35.41c-9.7 0-18.54-3.98-24.97-10.39l-.07-.07C3.97 495.3 0 486.47 0 476.79V35.47c0-9.69 3.98-18.53 10.39-24.96l.07-.08C16.9 4.03 25.73.06 35.41.06zm178.6 24.18H35.41c-3.11 0-5.91 1.25-7.92 3.26l-.05.05a11.176 11.176 0 0 0-3.26 7.92v441.32c0 3.1 1.25 5.91 3.26 7.92l.05.04c2.01 2.01 4.81 3.26 7.92 3.26h309.17c3.1 0 5.91-1.26 7.95-3.28a11.27 11.27 0 0 0 3.28-7.94V168.32c0-3.23.05-1.72.08-6.97.05-7.18.08-10.6-.42-11.75-.4-.92-2.43-2.86-6.27-6.55-2.13-2.05-4.69-4.51-7.92-7.76-16.62-16.72-31.94-32.54-47.25-48.35-15.8-16.31-31.6-32.62-48.55-49.65-2.3-2.32-4.17-4.24-5.78-5.9-4.23-4.36-6.35-6.54-7.35-6.96-1.01-.42-3.99-.38-9.91-.3l-8.43.11zm-64.42 360.01v-24.23l36.34-37.13c2.31-2.31 4.25-4.46 5.82-6.45 1.58-2 2.81-3.94 3.7-5.83.89-1.88 1.34-3.83 1.34-5.82 0-2.2-.42-4.01-1.26-5.42-.84-1.42-2.13-2.44-3.86-3.07-1.73-.63-3.95-.95-6.68-.95h-33.51v-24.23c5.14-1.15 10.88-2.22 17.22-3.22 6.35-1 13.72-1.5 22.11-1.5 9.23 0 16.49 1.26 21.79 3.78 5.3 2.52 9.07 6.24 11.33 11.17 2.25 4.93 3.38 10.96 3.38 18.09 0 5.14-.68 9.81-2.05 14.01-1.36 4.19-3.33 8.12-5.9 11.79-2.57 3.68-5.69 7.35-9.36 11.02l-20.13 20.61h40.59v27.38h-80.87z"/></svg>