<svg xmlns="http://www.w3.org/2000/svg" shape-rendering="geometricPrecision" text-rendering="geometricPrecision" image-rendering="optimizeQuality" fill-rule="evenodd" clip-rule="evenodd" viewBox="0 0 380 512.2"><path d="M114.42 200.84h151.21c10.03 0 19.15 4.11 25.77 10.73l.04.03c6.61 6.62 10.73 15.75 10.73 25.78v175.9c0 10.02-4.12 19.15-10.73 25.77l-.04.03c-6.62 6.62-15.75 10.73-25.77 10.73H114.42c-10.05 0-19.19-4.11-25.81-10.73-6.61-6.61-10.73-15.75-10.73-25.8v-175.9c0-10.03 4.11-19.16 10.73-25.78l.03-.03c6.62-6.62 15.75-10.73 25.78-10.73zM35.41.06 222.16.05c9.3-.13 13.97-.18 19.45 2.1 5.54 2.3 8.81 5.67 15.38 12.43 1.63 1.68 3.51 3.61 5.59 5.71 17.17 17.26 32.95 33.55 48.73 49.84 15.34 15.83 30.68 31.67 47.06 48.16 2.9 2.92 5.44 5.36 7.55 7.38 6.11 5.87 9.33 8.96 11.65 14.3 2.52 5.79 2.48 10.83 2.41 21.48-.01 1.16.02-1.53.02 6.87v308.47c0 9.71-3.99 18.55-10.4 24.97l-.04.04c-6.42 6.41-15.26 10.4-24.97 10.4H35.41c-9.71 0-18.56-3.99-24.99-10.42l-.03.02C3.98 495.39 0 486.54 0 476.79V35.47c0-9.69 3.98-18.53 10.39-24.96l.08-.08C16.9 4.03 25.73.06 35.41.06zm178.61 24.18H35.41c-3.11 0-5.91 1.25-7.92 3.26l-.05.05a11.176 11.176 0 0 0-3.26 7.92v441.32c0 3.07 1.27 5.88 3.31 7.92l-.03.02.03.03c2.01 2.01 4.81 3.26 7.92 3.26h309.18c3.09 0 5.9-1.26 7.94-3.29 2.03-2.04 3.29-4.85 3.29-7.94V168.32c0-3.23.04-1.71.08-6.96.05-7.19.07-10.61-.43-11.76-.4-.92-2.42-2.86-6.26-6.55-2.13-2.05-4.7-4.51-7.93-7.76-16.62-16.72-31.94-32.54-47.25-48.35-15.79-16.31-31.59-32.62-48.54-49.65-2.31-2.32-4.17-4.24-5.78-5.9-4.24-4.36-6.36-6.54-7.36-6.96-1.01-.42-3.99-.38-9.91-.3l-8.42.11zm15.34 360.01h-78.67v-25.18h28.01v-61.3l-28.01 1.89v-25.17l36.19-8.18h24.86v92.76h17.62v25.18z"/></svg>