<svg id="Layer_1" data-name="Layer 1" xmlns="http://www.w3.org/2000/svg" viewBox="0 0 122.88 103.23"><title>extender-router</title><path d="M20,36.18H103a7.14,7.14,0,0,1,7.14,7.14v4.57h3.69V4.55A4.57,4.57,0,0,1,118.33,0h0a4.57,4.57,0,0,1,4.55,4.55V58.69a.8.8,0,0,1-.8.8h-7.5a.8.8,0,0,1-.8-.8V57.33h-3.69V96.09a7.15,7.15,0,0,1-7.14,7.14H20a7.15,7.15,0,0,1-7.14-7.14V57.33H9.1v1.36a.8.8,0,0,1-.8.8H.8a.8.8,0,0,1-.8-.8V4.55A4.57,4.57,0,0,1,4.55,0h0A4.57,4.57,0,0,1,9.1,4.55V47.89h3.79V43.32A7.14,7.14,0,0,1,20,36.18ZM39.05,14A2.17,2.17,0,0,1,36,13.8v0a2.18,2.18,0,0,1,.25-3h0A43.08,43.08,0,0,1,48.4,3.28a34.6,34.6,0,0,1,26.22.22,43.87,43.87,0,0,1,12.1,7.62.63.63,0,0,1,.12.11,2.11,2.11,0,0,1,.67,1.42A2.17,2.17,0,0,1,87,14.16a.75.75,0,0,1-.12.14,2.23,2.23,0,0,1-1.43.67,2.17,2.17,0,0,1-1.57-.54A39.71,39.71,0,0,0,73,7.55a30.18,30.18,0,0,0-23.11-.2A38.72,38.72,0,0,0,39.05,14Zm14.24,14.8a2.16,2.16,0,0,1-3-.25.69.69,0,0,1-.11-.13,2.18,2.18,0,0,1,.3-2.93l.13-.1a19.87,19.87,0,0,1,5.28-3.12,15.37,15.37,0,0,1,11.27,0,19.52,19.52,0,0,1,5.28,3.14,2.18,2.18,0,0,1,.32,3.06h0a2.2,2.2,0,0,1-1.47.79,2.23,2.23,0,0,1-1.59-.47h0a15.07,15.07,0,0,0-4-2.43,11,11,0,0,0-4.11-.8,11.08,11.08,0,0,0-4.14.83,15.46,15.46,0,0,0-4.11,2.45Zm-6.89-7-.11.09a2.15,2.15,0,0,1-1.5.48,2.12,2.12,0,0,1-1.45-.69.52.52,0,0,1-.1-.11,2.12,2.12,0,0,1-.48-1.49,2.16,2.16,0,0,1,.73-1.5,32.65,32.65,0,0,1,8.9-5.76,22.15,22.15,0,0,1,18.44.3,32.85,32.85,0,0,1,8.72,6.06l.06.05a2.12,2.12,0,0,1,.62,1.46,2.17,2.17,0,0,1-.59,1.56l0,.05a2.18,2.18,0,0,1-1.46.63,2.13,2.13,0,0,1-1.55-.59,28.75,28.75,0,0,0-7.47-5.23A17.75,17.75,0,0,0,54,16.9a28.35,28.35,0,0,0-7.57,4.94ZM75.61,87.16a3.54,3.54,0,1,1-3.54,3.54,3.55,3.55,0,0,1,3.54-3.54Zm-13.84,0a3.54,3.54,0,1,1-3.54,3.54,3.55,3.55,0,0,1,3.54-3.54Zm-13.84,0a3.54,3.54,0,1,1-3.54,3.54,3.54,3.54,0,0,1,3.54-3.54Zm55-46.61H20a2.77,2.77,0,0,0-2.77,2.77V96.09A2.78,2.78,0,0,0,20,98.86H103a2.78,2.78,0,0,0,2.77-2.77V43.32A2.77,2.77,0,0,0,103,40.55Z"/></svg>