<svg id="Layer_1" data-name="Layer 1" xmlns="http://www.w3.org/2000/svg" viewBox="0 0 75.7 122.88"><defs><style>.cls-1{fill-rule:evenodd;}</style></defs><title>high-speed-internet-wifi</title><path class="cls-1" d="M31.27,0C46.94,33.28-1.43,33.39,0,67.8A56.73,56.73,0,0,0,3.07,82a35.23,35.23,0,0,0,59.69,30.55A35.28,35.28,0,0,0,70.9,75.42a36.43,36.43,0,0,0,4.8-17.05C74,44.15,59.84,40.23,67.45,25.15c-9.76.56-12.1,7.16-12.08,17.4,1.21,13.15-23.81,11.19-10.7-4.89,11.27-13.82.19-30-13.4-37.66Zm6.07,94.91a5.63,5.63,0,1,1-5.63,5.63,5.63,5.63,0,0,1,5.63-5.63ZM29,92.17a3.38,3.38,0,0,1-4.26-5.24,20.09,20.09,0,0,1,12.66-4.88A19.66,19.66,0,0,1,50,86.87a3.38,3.38,0,0,1-4.26,5.24,13.05,13.05,0,0,0-8.31-3.32A13.48,13.48,0,0,0,29,92.17Zm-7.55-9.4a3.37,3.37,0,0,1-4.47-5C23.48,72,30.43,69,37.51,69.13c6.91.11,13.77,3.13,20.28,9.26a3.37,3.37,0,1,1-4.62,4.92C47.93,78.38,42.6,76,37.41,75.87c-5.35-.09-10.76,2.27-16,6.9ZM37.85,56.39A31.26,31.26,0,1,1,6.58,87.65,31.25,31.25,0,0,1,37.85,56.39Z"/></svg>