<?xml version="1.0" encoding="utf-8"?><svg version="1.1" id="Layer_1" xmlns="http://www.w3.org/2000/svg" xmlns:xlink="http://www.w3.org/1999/xlink" x="0px" y="0px" viewBox="0 0 122.88 100.59" style="enable-background:new 0 0 122.88 100.59" xml:space="preserve"><g><path d="M39.26,87.01c-2.74-2.36-5.23-4.74-7.48-7.13c-2.54-2.7-4.76-5.42-6.67-8.16l-11.42,0c0.42,0.54,0.85,1.06,1.29,1.58 c0.65,0.76,1.34,1.49,2.05,2.21l0.05,0.05c0.93,0.93,1.89,1.8,2.89,2.63c1.01,0.83,2.06,1.62,3.16,2.35 c1.09,0.73,2.22,1.42,3.41,2.05c1.18,0.64,2.4,1.23,3.68,1.78l0.12,0.06c1.22,0.52,2.46,0.97,3.73,1.36 c1.27,0.39,2.57,0.72,3.91,0.99C38.43,86.86,38.86,86.94,39.26,87.01L39.26,87.01z M85.69,33.34c3.98,0,7.78,0.79,11.25,2.23 c3.61,1.49,6.85,3.68,9.56,6.39c2.71,2.71,4.9,5.95,6.39,9.56c1.44,3.47,2.23,7.27,2.23,11.25c0,2.92-0.43,5.74-1.22,8.41 c-0.77,2.58-1.88,5.01-3.28,7.24l12.08,13.16c0.26,0.28,0.24,0.72-0.04,0.98l-8.58,7.84c-0.28,0.26-0.72,0.24-0.98-0.04L101.5,87.6 c-2.24,1.43-4.69,2.57-7.28,3.35c-2.7,0.82-5.56,1.26-8.52,1.26c-3.98,0-7.78-0.79-11.25-2.23c-3.61-1.49-6.85-3.68-9.56-6.39 l-0.04-0.04c-2.7-2.71-4.87-5.93-6.35-9.52c-1.44-3.47-2.23-7.27-2.23-11.25s0.79-7.78,2.23-11.25c1.49-3.61,3.68-6.85,6.39-9.56 c2.71-2.71,5.95-4.9,9.56-6.39C77.91,34.13,81.71,33.34,85.69,33.34L85.69,33.34z M103.22,45.17c-2.28-2.27-5-4.11-8.02-5.36 c-2.92-1.21-6.13-1.88-9.5-1.88s-6.58,0.67-9.5,1.88c-3.04,1.26-5.77,3.1-8.06,5.39c-2.29,2.29-4.14,5.03-5.39,8.06 c-1.21,2.92-1.88,6.13-1.88,9.5c0,3.37,0.67,6.58,1.88,9.5c1.26,3.04,3.1,5.77,5.39,8.06c2.29,2.29,5.03,4.14,8.06,5.39 c2.92,1.21,6.13,1.88,9.5,1.88s6.58-0.67,9.5-1.88c3.04-1.26,5.77-3.1,8.06-5.39c2.29-2.29,4.14-5.03,5.39-8.06 c1.21-2.93,1.88-6.13,1.88-9.5c0-3.37-0.67-6.58-1.88-9.5l-0.01-0.04c-1.26-3.02-3.1-5.74-5.38-8.03L103.22,45.17L103.22,45.17z M10.37,66.71h11.62c-1.59-2.89-2.83-5.81-3.72-8.75c-0.91-3.03-1.45-6.08-1.6-9.16H5.08c0.05,0.9,0.13,1.79,0.24,2.68 c0.13,1.05,0.29,2.09,0.5,3.12c0.27,1.35,0.6,2.67,1,3.96c0.39,1.27,0.85,2.52,1.38,3.75l0.03,0.07c0.34,0.79,0.7,1.57,1.08,2.33 C9.65,65.4,10,66.06,10.37,66.71L10.37,66.71z M5.08,43.79h11.68c0.26-3.02,0.89-6.05,1.9-9.08c0.97-2.93,2.29-5.88,3.97-8.83 H10.37c-0.37,0.65-0.72,1.31-1.06,1.99c-0.38,0.77-0.74,1.55-1.09,2.35l-0.05,0.1c-0.52,1.22-0.97,2.47-1.37,3.75 c-0.39,1.27-0.72,2.57-0.99,3.91c-0.21,1.03-0.37,2.07-0.5,3.13C5.21,42,5.13,42.89,5.08,43.79L5.08,43.79z M13.7,20.86h12.11 c1.89-2.7,4.07-5.4,6.53-8.1l0.03-0.03c2.19-2.4,4.62-4.81,7.28-7.21l-0.04,0.01c-0.52,0.08-1.06,0.18-1.62,0.29 c-1.35,0.27-2.67,0.6-3.96,1c-1.27,0.39-2.53,0.85-3.76,1.38l-0.05,0.02c-1.27,0.55-2.5,1.14-3.68,1.78 c-1.18,0.64-2.31,1.32-3.4,2.05c-1.1,0.73-2.15,1.52-3.16,2.35c-1.01,0.83-1.98,1.71-2.91,2.65l-0.02,0.02 c-0.72,0.72-1.41,1.46-2.06,2.21C14.54,19.8,14.11,20.33,13.7,20.86L13.7,20.86z M52.95,5.52c2.67,2.42,5.11,4.83,7.3,7.24 c2.47,2.7,4.65,5.4,6.54,8.1h12.11c-0.42-0.54-0.85-1.06-1.29-1.57c-0.66-0.76-1.35-1.51-2.07-2.23l-0.04-0.04 c-0.92-0.93-1.89-1.8-2.89-2.62c-1.01-0.83-2.06-1.62-3.16-2.35c-1.08-0.73-2.22-1.41-3.4-2.05c-1.18-0.64-2.41-1.23-3.68-1.78 l-0.1-0.05c-1.22-0.52-2.48-0.97-3.75-1.37c-1.27-0.39-2.57-0.72-3.9-0.99l-0.04-0.01c-0.52-0.1-1.05-0.2-1.57-0.28L52.95,5.52 L52.95,5.52z M37,0.9c1.49-0.3,3.02-0.52,4.58-0.68C43.15,0.08,44.72,0,46.3,0c1.58,0,3.15,0.08,4.71,0.23 c1.56,0.15,3.09,0.38,4.58,0.68c1.47,0.29,2.94,0.67,4.39,1.11c1.44,0.44,2.86,0.96,4.25,1.55l0.13,0.05 c1.4,0.6,2.76,1.26,4.08,1.97l0.03,0.02c1.3,0.71,2.56,1.47,3.78,2.29c1.23,0.82,2.42,1.71,3.56,2.65 c1.14,0.94,2.23,1.93,3.28,2.98c1.04,1.04,2.04,2.13,2.97,3.27c0.94,1.14,1.82,2.33,2.65,3.56c0.67,1,1.31,2.03,1.91,3.09 c-1.36-0.14-2.74-0.22-4.14-0.22c-6.26,0-12.18,1.48-17.42,4.11c-0.29-0.49-0.59-0.97-0.9-1.46H48.8v16.7 c-2.64,4.52-4.39,9.62-5.01,15.06V48.8H21.67c0.17,2.95,0.74,5.89,1.73,8.82c1.02,3.04,2.48,6.07,4.38,9.09h16v-0.04 c0.63,5.44,2.38,10.54,5.01,15.06l1.04,1.68c1.95,2.98,4.29,5.68,6.95,8.01c-0.4,0.09-0.81,0.18-1.21,0.26 c-1.49,0.3-3.02,0.53-4.58,0.68c-1.56,0.15-3.13,0.23-4.71,0.23s-3.15-0.08-4.71-0.23c-1.56-0.15-3.09-0.38-4.58-0.68 c-1.47-0.29-2.94-0.67-4.38-1.11c-1.44-0.44-2.85-0.96-4.26-1.56l-0.12-0.05c-1.4-0.6-2.75-1.26-4.06-1.97 c-1.31-0.71-2.58-1.48-3.82-2.31c-1.23-0.82-2.42-1.71-3.56-2.65c-1.14-0.94-2.23-1.93-3.27-2.97c-1.04-1.04-2.04-2.13-2.97-3.27 c-0.94-1.14-1.82-2.33-2.65-3.56c-0.83-1.24-1.6-2.51-2.31-3.82c-0.71-1.31-1.37-2.67-1.97-4.06L3.6,64.29 c-0.59-1.4-1.12-2.82-1.57-4.26c-0.45-1.46-0.83-2.94-1.13-4.44C0.6,54.09,0.38,52.56,0.23,51C0.08,49.44,0,47.87,0,46.3 c0-1.58,0.08-3.15,0.23-4.71C0.38,40.03,0.6,38.5,0.9,37c0.3-1.47,0.67-2.94,1.11-4.38c0.44-1.43,0.96-2.85,1.56-4.25l0.05-0.13 c0.6-1.4,1.26-2.75,1.97-4.06c0.71-1.31,1.48-2.58,2.31-3.82c0.83-1.23,1.71-2.42,2.65-3.56c0.94-1.14,1.93-2.23,2.97-3.27 c1.04-1.05,2.14-2.04,3.28-2.98c1.14-0.94,2.33-1.82,3.55-2.64c1.23-0.82,2.5-1.59,3.81-2.31c1.33-0.72,2.69-1.38,4.07-1.98 L28.3,3.6c1.4-0.59,2.82-1.12,4.27-1.56C34.03,1.58,35.51,1.2,37,0.9L37,0.9z M48.8,8.51v12.35h11.77 c-1.58-2.02-3.34-4.05-5.29-6.1C53.31,12.69,51.15,10.61,48.8,8.51L48.8,8.51z M43.79,84.29V71.73H31.33 c1.64,2.07,3.48,4.15,5.53,6.22l0.02,0.03C38.98,80.09,41.28,82.2,43.79,84.29L43.79,84.29z M43.79,43.79V25.88H28.46 c-1.96,3.08-3.5,6.14-4.62,9.18c-1.08,2.93-1.76,5.84-2.05,8.73H43.79L43.79,43.79z M43.79,20.86V8.51 c-2.35,2.09-4.51,4.18-6.49,6.25c-1.95,2.05-3.71,4.08-5.29,6.1H43.79L43.79,20.86z"/></g></svg>