<?xml version="1.0" encoding="utf-8"?><svg version="1.1" id="Layer_1" xmlns="http://www.w3.org/2000/svg" xmlns:xlink="http://www.w3.org/1999/xlink" x="0px" y="0px" viewBox="0 0 122.88 105.47" style="enable-background:new 0 0 122.88 105.47" xml:space="preserve"><g><path d="M65.05,92.87c-1.78,1.73-3.67,3.46-5.68,5.17L59.69,98c0.56-0.09,1.12-0.19,1.67-0.3c1.52-0.3,3.01-0.68,4.47-1.13 c0.73-0.23,1.45-0.47,2.17-0.73l4.1,4.1c-1.55,0.66-3.13,1.23-4.72,1.73c-1.64,0.51-3.3,0.93-4.98,1.27 c-1.68,0.34-3.39,0.59-5.14,0.76c-1.75,0.17-3.52,0.25-5.29,0.25c-1.77,0-3.54-0.08-5.29-0.25c-1.75-0.17-3.46-0.42-5.14-0.76 c-1.66-0.33-3.3-0.75-4.92-1.25c-1.61-0.5-3.21-1.08-4.78-1.75l-0.12-0.05c-1.57-0.68-3.1-1.41-4.57-2.21 c-1.47-0.8-2.9-1.67-4.29-2.6c-1.38-0.93-2.71-1.92-3.99-2.97c-1.28-1.05-2.5-2.16-3.67-3.34c-1.18-1.17-2.29-2.4-3.34-3.68 c-1.05-1.28-2.04-2.61-2.97-3.99c-0.93-1.38-1.79-2.81-2.59-4.28c-0.81-1.49-1.55-3.01-2.22-4.58l-0.02-0.05 C3.37,70.6,2.79,69,2.28,67.38c-0.51-1.64-0.93-3.3-1.27-4.98C0.68,60.72,0.42,59,0.25,57.25C0.09,55.5,0,53.74,0,51.97 c0-1.77,0.09-3.54,0.25-5.29c0.17-1.75,0.42-3.46,0.76-5.14c0.33-1.66,0.75-3.3,1.25-4.92c0.5-1.62,1.08-3.22,1.75-4.79l0.05-0.12 c0.67-1.57,1.41-3.09,2.21-4.56l0.01-0.02c0.8-1.47,1.66-2.89,2.58-4.27c0.93-1.38,1.92-2.71,2.97-3.99 c1.05-1.28,2.17-2.51,3.34-3.68c1.17-1.18,2.4-2.29,3.68-3.34c1.28-1.05,2.61-2.04,3.99-2.97c1.38-0.93,2.81-1.79,4.28-2.59 l0.02-0.01c1.48-0.8,3-1.54,4.55-2.21l0.06-0.02c1.58-0.67,3.18-1.26,4.8-1.76c1.64-0.51,3.3-0.93,4.98-1.27 c1.68-0.33,3.39-0.59,5.14-0.76C48.43,0.09,50.19,0,51.97,0c1.77,0,3.54,0.09,5.29,0.26C59,0.42,60.72,0.68,62.4,1.01 c1.66,0.33,3.3,0.75,4.92,1.25c1.61,0.5,3.21,1.08,4.77,1.75l0.14,0.05c1.56,0.67,3.09,1.41,4.58,2.22c1.47,0.8,2.9,1.66,4.28,2.59 c1.38,0.93,2.71,1.91,3.99,2.97c1.28,1.05,2.51,2.17,3.68,3.34c1.17,1.17,2.29,2.4,3.34,3.67c1.05,1.28,2.05,2.62,2.97,4 c0.93,1.39,1.79,2.81,2.59,4.28c0.8,1.48,1.54,3,2.21,4.57l0.02,0.06c0.67,1.57,1.26,3.17,1.76,4.8c0.34,1.11,0.65,2.23,0.92,3.36 l-3.13-3.13c-1.53-1.53-3.19-2.88-4.93-4.03c-0.25-0.54-0.5-1.07-0.76-1.6c-0.4-0.8-0.81-1.58-1.24-2.33h-6.37 c-3.03-0.92-6.18-1.37-9.32-1.37c-3.14,0-6.29,0.46-9.32,1.37H54.63v7.72c-2.1,2.11-4.12,4.58-5.33,6.55V28.82H31.8 c-2.24,3.51-4,6.99-5.26,10.44c-1.24,3.37-2.02,6.72-2.33,10.04h22.28c-0.58,1.74-1,3.53-1.26,5.33H24.08 c0.18,3.39,0.83,6.77,1.96,10.13c1.16,3.46,2.83,6.91,5,10.35h17.91c1.39,2.48,3.14,4.81,5.25,6.92l0.43,0.43v12.62 c2.38-1.99,4.6-3.98,6.65-5.97L65.05,92.87L65.05,92.87z M58.8,50.46c-2.09,3.69-3.14,7.83-3.14,11.97 c0,6.21,2.36,12.41,7.07,17.12L81.57,98.4c4.71,4.71,10.92,7.07,17.12,7.07c6.2,0,12.41-2.36,17.12-7.07 c4.71-4.71,7.06-10.91,7.06-17.12s-2.36-12.41-7.07-17.12L96.97,45.32c-4.71-4.71-10.91-7.07-17.12-7.07 c-4.82,0-9.64,1.42-13.76,4.27C63.6,44.23,60.21,47.99,58.8,50.46L58.8,50.46L58.8,50.46z M76.29,58.49L76.29,58.49 c-1.79,1.79-1.79,4.72,0,6.52l3.35,3.35c1.79,1.79,4.72,1.79,6.51,0l0,0c1.79-1.79,1.79-4.72,0-6.51l-3.35-3.36 C81.02,56.69,78.08,56.69,76.29,58.49L76.29,58.49L76.29,58.49z M61.38,62.43c0-4.74,1.79-9.48,5.39-13.07 c3.59-3.59,8.33-5.39,13.07-5.39s9.48,1.79,13.07,5.39l18.85,18.85c3.59,3.59,5.39,8.33,5.39,13.07s-1.79,9.48-5.39,13.07 c-3.59,3.59-8.33,5.39-13.08,5.39c-4.74,0-9.48-1.79-13.07-5.39L66.78,75.51C63.18,71.91,61.38,67.18,61.38,62.43L61.38,62.43 L61.38,62.43z M44.57,98.05c-3.25-2.78-6.2-5.58-8.84-8.38c-2.87-3.05-5.38-6.12-7.53-9.22H14.95c0.53,0.7,1.09,1.37,1.66,2.04 c0.74,0.86,1.51,1.69,2.32,2.49l0.05,0.05c1.04,1.04,2.13,2.04,3.26,2.96c1.14,0.94,2.34,1.83,3.57,2.66 c1.23,0.82,2.51,1.6,3.84,2.32c1.33,0.72,2.72,1.39,4.16,2.01l0.11,0.05c1.39,0.59,2.81,1.11,4.25,1.55 c1.44,0.44,2.91,0.82,4.42,1.12c0.57,0.11,1.13,0.21,1.68,0.3L44.57,98.05L44.57,98.05z M11.43,75.11h13.44 c-1.85-3.33-3.29-6.68-4.3-10.05c-1.04-3.45-1.64-6.93-1.8-10.43H5.4c0.06,1.07,0.15,2.14,0.28,3.19c0.14,1.19,0.33,2.37,0.56,3.53 c0.3,1.52,0.68,3.01,1.13,4.47c0.45,1.45,0.97,2.87,1.57,4.27l0.02,0.04c0.39,0.9,0.8,1.79,1.24,2.66 C10.59,73.58,11,74.36,11.43,75.11L11.43,75.11z M5.4,49.3h13.46c0.29-3.44,1-6.89,2.15-10.35c1.11-3.36,2.64-6.74,4.58-10.13 H11.43c-0.43,0.75-0.84,1.53-1.24,2.33c-0.43,0.87-0.84,1.75-1.23,2.66l-0.05,0.1c-0.59,1.39-1.11,2.81-1.55,4.25 c-0.44,1.44-0.82,2.91-1.12,4.42c-0.23,1.16-0.42,2.34-0.56,3.53C5.55,47.16,5.46,48.23,5.4,49.3L5.4,49.3z M14.95,23.49h14.03 c2.13-3.05,4.59-6.1,7.38-9.16c2.58-2.82,5.45-5.66,8.61-8.5l-0.56,0.09c-0.61,0.1-1.22,0.21-1.83,0.33 c-1.52,0.3-3.01,0.68-4.47,1.13c-1.45,0.45-2.88,0.97-4.27,1.57l-0.03,0.02c-1.44,0.62-2.82,1.29-4.15,2.01 c-1.33,0.72-2.61,1.49-3.85,2.32c-1.24,0.83-2.43,1.72-3.57,2.66c-1.14,0.94-2.24,1.94-3.29,2.99l-0.03,0.02 c-0.81,0.81-1.59,1.64-2.33,2.5C16.03,22.12,15.48,22.79,14.95,23.49L14.95,23.49z M58.97,5.83c3.16,2.84,6.03,5.68,8.61,8.5 c2.79,3.06,5.25,6.11,7.38,9.16h14.03c-0.53-0.69-1.08-1.37-1.65-2.03c-0.74-0.86-1.52-1.7-2.34-2.51l-0.03-0.03 c-1.05-1.05-2.14-2.04-3.28-2.98c-1.14-0.94-2.33-1.83-3.57-2.65c-1.23-0.83-2.52-1.6-3.85-2.32c-1.33-0.72-2.71-1.39-4.15-2.01 l-0.1-0.05c-1.39-0.59-2.81-1.11-4.25-1.55c-1.44-0.44-2.91-0.82-4.41-1.12l-0.03-0.01c-0.59-0.12-1.2-0.23-1.8-0.32L58.97,5.83 L58.97,5.83z M54.63,9.08v14.41h13.73c-1.83-2.36-3.88-4.74-6.16-7.13C59.91,13.95,57.39,11.52,54.63,9.08L54.63,9.08z M49.3,95.08 V80.45H34.8c1.9,2.43,4.05,4.86,6.44,7.27C43.67,90.18,46.36,92.63,49.3,95.08L49.3,95.08z M49.3,23.49V9.08 c-2.75,2.44-5.27,4.86-7.57,7.27c-2.28,2.39-4.33,4.77-6.17,7.14H49.3L49.3,23.49z"/></g></svg>