<svg xmlns="http://www.w3.org/2000/svg" shape-rendering="geometricPrecision" text-rendering="geometricPrecision" image-rendering="optimizeQuality" fill-rule="evenodd" clip-rule="evenodd" viewBox="0 0 512 373.68"><path fill-rule="nonzero" d="M386.01 280.63c.3-2.97 2.96-5.13 5.93-4.83 2.97.3 5.13 2.96 4.83 5.93a207.08 207.08 0 0 0-1.1 23.69c40.1-11.18 66.44-33.19 81.17-59.77l-85.2-25.5c-3.7 9.38-10.58 16.8-18.99 21.34-17.24 9.28-29.81 3.81-45.92-1l-26.85-8.04-40.96-12.26-.07-.02-1.49-.45c-7.97-2.38-10.29-8.86-12.74-15.73l-.12-.37c-3.71-10.33-6.51-10.7-14.23-17.72l-12.22 13.2c-2.69 2.27-4.3 4.59-4.98 6.69-.97 3.03-.04 5.57 3 6.63 9.01 2.86 19.07 6.94 28.1 10.23l-3.69 10.17-7.01-2.55-.2.72c-1.78 6.27-3.53 12.39-4.9 18.84 2.75 2.45 5.58 4.3 8.47 5.49 3.42 1.41 7.04 1.91 10.83 1.44 2.97-.36 5.68 1.75 6.04 4.72.35 2.97-1.76 5.68-4.73 6.03-5.64.71-11.07-.06-16.25-2.19-2.37-.97-4.67-2.24-6.91-3.78l-.45 2.62c-.58 3.64-1.02 7.4-1.3 11.23a5.47 5.47 0 0 1-1.58 3.44c-4.73 5.03-12.37 14.46-8.37 22.06 1.55 2.94 4.67 5.52 8.9 7.71 6.81 3.53 16.24 5.89 26.91 7.09 10.2 1.15 21.92 1.62 33.1.74 9.07-.71 17.74-2.33 24.79-5.17 8.09-3.26 13.76-12.32 18.87-19.21 5.06-6.8 13.89-18.68 21.68-21.65 2.79-1.07 5.93.34 6.99 3.13 1.06 2.8-.34 5.93-3.14 6.99-4.87 1.86-12.48 12.1-16.85 17.97-6.7 9.01-12.57 18.39-23.53 22.81-6.99 2.82-15.16 4.58-23.68 5.53.08.3.13.62.16.94.41 5.1.69 15.19.41 24.49-.21 6.92-.75 13.48-1.79 17.4a5.413 5.413 0 0 1-6.63 3.83c-2.89-.76-4.6-3.74-3.83-6.62.83-3.1 1.27-8.77 1.45-14.91.26-8.75-.02-18.4-.41-23.35-.03-.34-.02-.68.02-1.01-9.88.37-19.89-.14-28.79-1.15-11.93-1.35-22.66-4.08-30.68-8.23-6.16-3.19-10.87-7.28-13.52-12.29-6.33-12 .87-24.33 8.87-33.23.29-3.35.72-6.77 1.28-10.24 1.77-11.06 5.14-23.83 8.15-34.43l.43-1.48-10.63-3.88c-8.56-2.9-12.7-11.4-9.86-20.19 1.24-3.86 3.84-7.83 7.99-11.41l12.23-13.24c-2.73-4.21-4.01-9.01-2.27-14.83l14.5-48.4c1.34-4.09 4.19-7.32 7.74-9.23 1.9-1.02 4-1.67 6.19-1.88l-7.75-6.56a5.416 5.416 0 0 1-.64-7.62l.87-.83c72.9-55.07 137.28-56.98 183.87-32.39 27.23 14.37 48.31 37.8 61.42 64.96 12.73 26.39 17.98 56.36 14.1 85 3.51 2.14 6.32 5.17 8.21 8.68 2.71 5.04 3.56 11.09 1.91 16.97l-.23.74c-1.85 5.82-5.89 10.43-10.94 13.14-3.67 2-7.91 2.97-12.22 2.72-15.98 30.64-45.64 56.01-91.64 68.19.21 2.98.5 5.94.85 8.85 1.67 13.63 4.86 26.4 9.39 38.41 1.05 2.79-.37 5.91-3.16 6.96a5.4 5.4 0 0 1-6.97-3.16c-4.84-12.83-8.25-26.44-10.02-40.89-1.75-14.42-1.89-29.73-.21-46.03zM26.78 66.46c2.61-1.37 5.85-.38 7.22 2.23s.37 5.85-2.23 7.22l-19.2 10.15 9.81 18.56c1.37 2.61.37 5.85-2.24 7.22a5.354 5.354 0 0 1-7.22-2.24L.62 86.33c-1.38-2.61-.38-5.85 2.23-7.22l23.93-12.65zM73.2 214.87c-1.37-2.61-.38-5.85 2.23-7.22s5.85-.37 7.22 2.24l10.14 19.2 18.57-9.82c2.61-1.37 5.85-.37 7.22 2.24 1.37 2.61.37 5.85-2.24 7.22l-23.28 12.3c-2.61 1.38-5.85.38-7.22-2.23L73.2 214.87zm67.15-192.15a5.354 5.354 0 0 1-7.22-2.24c-1.37-2.61-.37-5.85 2.24-7.22L159.3.62c2.61-1.38 5.85-.38 7.22 2.23l12.3 23.28c1.37 2.6.38 5.84-2.23 7.21-2.61 1.38-5.85.38-7.22-2.23l-9.8-18.55-19.22 10.16zm-30.3 170.54c-1.75.35-3.62-.14-4.97-1.49l-55.69-55.08c-1.63-1.62-2.05-4-1.23-6.01l23.77-77.09c.78-2.56 3.27-4.13 5.85-3.86l72.23-1.61c1.33-.02 2.56.43 3.53 1.19l59.19 43.09c2.05 1.48 2.76 4.12 1.91 6.38l-.07.25-23.7 76.87c-.5 2.09-2.2 3.78-4.44 4.16l-76.23 13.17-.02.01-.13.02zM79.98 64.81l-20.46 66.36 46.87 46.36 21.64-70.17-48.05-42.55zm58.55 45.85-21.66 70.22 64.37-11.12 20.5-66.49-63.21 7.39zm9.86-51.49-56.76 1.26 44.49 39.4 58.74-6.84-46.47-33.82zm-67.61 51.21c.6-1.94 2.66-3.03 4.59-2.44 1.94.6 3.03 2.66 2.44 4.59-1.11 3.59-2.44 7.39-3.37 10.99l5.19 4.68c1.49 1.36 1.61 3.69.26 5.18a3.678 3.678 0 0 1-5.18.27l-5.95-5.41c-1-1.16-1.54-2.48-1.66-3.9-.1-1.22.09-2.46.51-3.68l3.17-10.28zm235.62 92.4a6.82 6.82 0 0 1 4.58 8.49 6.826 6.826 0 0 1-8.5 4.58 6.806 6.806 0 0 1-4.57-8.49c1.07-3.61 4.88-5.66 8.49-4.58zm-31.01-9.28a6.8 6.8 0 0 1 4.58 8.49c-1.07 3.61-4.88 5.66-8.49 4.58a6.82 6.82 0 0 1-4.58-8.49 6.804 6.804 0 0 1 8.49-4.58zm89.09-42.43c.09 1.79-.12 3.64-.66 5.45l-15.01 50.14c-3.35 11.19-11.38 20.57-21.94 25.57 4.14 1.24 7.95 2.61 12.3 2.91 5.92.41 11.73-.92 16.79-3.65 19.37-10.45 24.78-51.24 29.91-68.36a5.41 5.41 0 0 0-.44-4.13c-1.41-2.62-4.47-3-7.04-3.77l-13.91-4.16zm-40.94 70.72c6.94-3.74 12.47-10.13 14.9-18.22l15.01-50.15c.42-1.42.23-2.9-.43-4.12-1.65-3.08-7.88-4.02-10.73-4.88l-95.76-28.67c-2.36-.7-4.43-1.7-6.87-.38a5.357 5.357 0 0 0-2.61 3.19l-14.37 48c-1.51 5.05 4.54 10.26 10.19 15.11 7.79 6.69 9.91 9.08 13.51 19.15 1.48 4.14 2.89 8.07 5.51 8.96l.13.04 40.8 12.22c10.78 3.23 19.01 6.07 30.72-.25zm68.23-34.94-6.88 22.97 83.62 25.03c4.6 1.38 8.1 2.87 13.02.21 2.7-1.45 4.86-3.94 5.8-7.08.93-3.16.5-6.43-.96-9.13-2.81-5.23-7.27-5.86-12.26-7.35l-82.34-24.65zm4.76-32.51c1.91 3.55 2.51 7.81 1.38 11.94l-3.04 10.19 85.74 25.68c2.98-25.8-1.95-52.65-13.42-76.39-12.14-25.17-31.61-46.85-56.7-60.1-42.05-22.18-100.19-20.71-166.85 27.43l18.21 15.48c.18.19.34.4.49.62l21.16 6.34 62.17 18.61c12.06 3.61 24.12 7.23 36.18 10.83 6.11 1.83 11.14 2.83 14.68 9.37z"/></svg>