<svg xmlns="http://www.w3.org/2000/svg" shape-rendering="geometricPrecision" text-rendering="geometricPrecision" image-rendering="optimizeQuality" fill-rule="evenodd" clip-rule="evenodd" viewBox="0 0 512 415.75"><path d="M138.52 111.74h42.14c-.5 1.2-.94 2.44-1.32 3.7l-16.42 54.82c-1.6 5.35-1.99 10.48-1.44 15.41l.05.51-7 7.58c-3.09 2.8-5.68 5.73-7.77 8.71-1 1.42-1.89 2.86-2.69 4.33h-5.55c-1.84 0-3.39-1.68-3.39-3.73v-87.6c0-2.05 1.52-3.73 3.39-3.73zM244.25 364.3c-.03-.4-.03-.79.01-1.18-11.29.43-22.7-.15-32.87-1.3-13.61-1.55-25.87-4.66-35.04-9.4-7.03-3.64-12.4-8.31-15.43-14.03-3.22-6.11-3.75-13.09-.85-20.91 1.95-5.28 5.53-10.96 10.98-17.03.34-3.83.83-7.72 1.46-11.69.75-4.65 1.72-9.27 2.91-13.84l.1-.77c1.73-8.67 4-16.64 6.34-24.83l.45-1.58-12.03-4.39c-3.42-1.14-6.25-3.06-8.34-5.53l-.32-.43c-1.8-2.27-3-4.94-3.48-7.84-.49-2.92-.27-6.1.77-9.3 1.41-4.4 4.38-8.92 9.12-13.01l14.86-16.09c-2.48-4.45-3.47-9.47-1.69-15.44l16.42-54.82c1.45-4.88 4.78-8.74 8.97-10.99 1.88-1.01 3.93-1.7 6.06-2.02l-9.62-8.15c-2.6-2.19-2.93-6.1-.73-8.7l1-.94c83.24-62.9 156.74-65.07 209.95-37 31.09 16.41 55.16 43.18 70.13 74.19 14.54 30.14 20.54 64.36 16.12 97.06 4 2.44 7.2 5.9 9.36 9.91 3.08 5.73 4.06 12.62 2.19 19.31l-.29.96c-2.11 6.62-6.72 11.86-12.47 14.96-4.21 2.27-9.04 3.4-13.96 3.11-18.24 34.98-52.11 63.95-104.64 77.85.24 3.42.57 6.79.97 10.12 1.9 15.55 5.56 30.14 10.72 43.85 1.21 3.19-.41 6.75-3.6 7.95-3.19 1.21-6.76-.41-7.96-3.6-5.52-14.66-9.42-30.2-11.44-46.7-2.01-16.45-2.17-33.93-.25-52.56a6.188 6.188 0 0 1 6.77-5.52c3.39.35 5.86 3.38 5.52 6.77-.96 9.31-1.36 18.32-1.26 27.06 45.79-12.76 75.88-37.91 92.7-68.26l-97.29-29.12c-4.23 10.72-12.09 19.2-21.7 24.37-10.7 5.77-23.63 7.48-36.13 3.74l-38.35-11.49-.13-.02-.63-.2-.13-.04-54.48-16.31c-9.11-2.72-11.76-10.12-14.56-17.96-1.45-4.07-2.98-8.32-5.49-10.9-1.76-1.81-4.02-3.76-6.32-5.74-1.95-1.67-3.93-3.38-5.81-5.15l-14.51 15.67c-3.07 2.58-4.9 5.22-5.67 7.62-.41 1.28-.51 2.48-.34 3.5.13.8.44 1.53.88 2.13l.17.19c.65.77 1.6 1.39 2.78 1.8 10.44 3.41 21.59 7.85 32.02 11.65l-4.21 11.61-8-2.92-.2.72c-2.05 7.21-4.06 14.25-5.64 21.62 3.15 2.81 6.37 4.92 9.68 6.28 3.89 1.6 8.03 2.18 12.36 1.64 3.39-.42 6.48 2 6.89 5.39.41 3.39-2 6.48-5.39 6.89-6.45.81-12.64-.07-18.56-2.5-2.7-1.12-5.33-2.57-7.89-4.32l-.52 2.98c-.67 4.16-1.16 8.45-1.48 12.83a6.195 6.195 0 0 1-1.87 3.99c-4.99 5.31-8.13 10.06-9.67 14.23-1.58 4.28-1.4 7.91.18 10.9 1.77 3.36 5.33 6.32 10.17 8.81 7.77 4.02 18.55 6.71 30.73 8.1 11.64 1.31 25.03 1.85 37.79.84 10.37-.82 20.27-2.66 28.31-5.9 7.83-3.15 13.28-10.65 17.92-17.04l3.62-4.9c5.79-7.78 15.86-21.33 24.76-24.73 3.19-1.21 6.76.39 7.97 3.58 1.22 3.2-.38 6.77-3.58 7.99-5.56 2.12-14.24 13.81-19.23 20.51l-3.53 4.8c-5.61 7.71-12.18 16.75-23.34 21.25-8 3.22-17.32 5.23-27.05 6.3.1.35.16.71.19 1.09.46 5.82.79 17.33.47 27.96-.24 7.92-.86 15.4-2.05 19.87a6.184 6.184 0 0 1-7.57 4.38c-3.29-.88-5.25-4.27-4.37-7.57.94-3.55 1.45-10.03 1.66-17.02.3-9.99-.02-21.01-.47-26.65zm44.4-143.71a7.816 7.816 0 0 1 5.23 9.71 7.802 7.802 0 0 1-9.7 5.23c-4.13-1.24-6.47-5.58-5.24-9.7 1.24-4.13 5.58-6.46 9.71-5.24zM253.24 210a7.777 7.777 0 0 1 5.23 9.7c-1.23 4.12-5.58 6.46-9.7 5.23-4.12-1.24-6.47-5.57-5.23-9.7a7.777 7.777 0 0 1 9.7-5.23zm-60.43-29.63-.02.18v.04l-.01.13v.71l.01.18.02.07v.1l.02.17v.01l.03.18.01.08.02.09.03.18v.01l.04.17.03.1.01.07.1.36.04.12.01.05.07.18.01.04.05.14.05.13.02.05.06.18.03.05.05.12.07.15.01.03.08.18.03.06.06.12.08.15v.02l.1.18.04.07.05.11.1.17.1.18.06.09.05.09.1.17.02.02.1.16.07.11.04.07.14.2.1.15.09.13.04.05.12.18.03.04.1.13.11.14.02.04.28.35.12.15.02.03.14.17.06.07.08.11.15.17v.01l.15.17.08.09.07.09.16.18.47.52.02.02.15.16.1.11.06.06.16.18.04.03.13.14.13.13.04.05.18.17.05.05.12.13.15.14.02.03.18.18.07.06.11.11.16.16.02.01.18.18c1.7 1.64 3.59 3.25 5.43 4.84 2.51 2.15 4.97 4.27 7.15 6.51 4.41 4.55 6.39 10.07 8.28 15.35 1.72 4.81 3.35 9.36 6.44 10.28l54.71 16.38.05.01.05.02.06.01.06.02c9.24 2.77 18.8 1.5 26.74-2.78 7.91-4.26 14.21-11.51 16.99-20.72l17.17-57.34c.47-1.62.25-3.31-.5-4.71-.73-1.34-1.96-2.44-3.49-2.94l-.08-.02-.07-.02-.16-.05-.15-.05-104.09-31.16-12.83-3.84-3.86-1.16a6.233 6.233 0 0 0-4.71.5c-1.39.75-2.51 2.03-2.98 3.63l-16.42 54.82c-.11.38-.18.76-.23 1.13zm196.86 10.19 97.91 29.32c3.4-29.47-2.24-60.12-15.33-87.23-13.87-28.74-36.1-53.5-64.76-68.63-48-25.32-114.4-23.64-190.52 31.34l20.81 17.67c.2.22.39.46.55.7l103.28 30.93.16.04.22.07 38.58 11.54c4.88 1.46 8.74 4.8 11 8.98 2.24 4.17 2.91 9.21 1.45 14.09l-3.35 11.18zm-25.1 40.76.04-.15.04-.15 11.4-38.07.11-.35 5.02-16.75c.48-1.62.25-3.3-.5-4.71a6.169 6.169 0 0 0-3.64-2.98l-22.08-6.61c.11 2.05-.13 4.15-.74 6.22l-17.28 57.71c-3.82 12.3-12.27 22-22.87 27.7-.67.37-1.35.72-2.04 1.05l8.24 2.46c9.25 2.77 18.82 1.5 26.75-2.77 7.92-4.27 14.24-11.56 17.01-20.81l.54-1.79zm21.56-28.92-7.86 26.24 99.12 29.68c23.08 6.34 28.35-17.23 13.34-24.25-1.61-.75-3.31-1.4-5.12-1.88l-99.48-29.79zM.01 350.48 0 4.78a4.78 4.78 0 0 1 7.82-3.69C38.3 22.63 78.37 35.35 121.31 41.23c40.82 5.6 84.17 5.02 124.43-.03-7.12 3.52-14.32 7.44-21.59 11.79-34.33 2.8-70.08 2.34-104.1-2.32-8.22-1.12-16.35-2.49-24.33-4.12v241.31c18.7-5.11 38.41-7.3 58.69-6.17-.24 1.31-.47 2.67-.7 4.08l-.81 5.36c-22.21-1.12-43.69 1.98-63.8 8.66-30.81 10.24-58.48 28.94-80.78 53.86-1.75 1.95-4.76 2.12-6.71.37a4.83 4.83 0 0 1-1.6-3.54zm86.15-59.73V44.45C57.9 37.83 31.69 27.79 9.56 13.72v324.81c21.82-21.77 47.89-38.24 76.56-47.76l.04-.02zM31.56 61.58l27.97 21.1c2 1.5 4.48 2.25 4.48 4.91v141.04c0 2.66-2.54 3.34-4.48 4.91l-27.97 22.61c-1.93 1.55-4.47-2.22-4.47-4.92V66.49c0-2.7 2.49-6.4 4.47-4.91zm107.69 170.57h-19.28c-2.29 0-4.41-.96-5.97-2.52-1.66-1.63-2.7-3.96-2.7-6.52V96.55c0-2.56 1.03-4.86 2.67-6.51 1.56-1.55 3.68-2.52 6-2.52h62.94a25.3 25.3 0 0 0-1.14 8.26h-61.8c-.39 0-.73.14-.95.36-.13.12-.2.28-.2.41v126.56c0 .14.07.28.19.4.23.25.57.39.96.39h18.92c-.19 2.74-.06 5.52.36 8.25z"/></svg>