<svg xmlns="http://www.w3.org/2000/svg" shape-rendering="geometricPrecision" text-rendering="geometricPrecision" image-rendering="optimizeQuality" fill-rule="evenodd" clip-rule="evenodd" viewBox="0 0 477 511.69"><path fill-rule="nonzero" d="M283.22 368.57c.46-4.56 4.55-7.89 9.12-7.43 4.56.47 7.89 4.55 7.43 9.12-1.3 12.53-1.83 24.67-1.69 36.45 61.69-17.2 102.22-51.07 124.87-91.95l-131.06-39.22c-5.68 14.44-16.27 25.85-29.22 32.83-14.42 7.78-31.84 10.08-48.68 5.03l-2.4-.72c-20.2-6.05-40.41-12.11-60.61-18.15l-56.1-16.79c-17.08-5.11-21.42-5.48-29.13-27.04-1.96-5.47-4.02-11.21-7.39-14.69-2.37-2.44-5.42-5.07-8.52-7.73-1.96-1.69-3.94-3.39-5.88-5.14-6.43 7.13-13.22 14.37-19.08 20.02-4.14 3.49-6.61 7.05-7.65 10.28-1.51 4.72-.05 8.66 4.7 10.25 14.27 4.84 28.9 10.52 43.13 15.71l-5.67 15.62-10.78-3.93-.37 1.34c-2.72 9.57-5.4 18.94-7.49 28.75 4.25 3.79 8.6 6.64 13.03 8.47 5.25 2.16 10.83 2.94 16.66 2.21 4.56-.56 8.72 2.69 9.28 7.25.55 4.56-2.7 8.72-7.26 9.28-8.68 1.08-17.02-.1-24.98-3.38-3.66-1.5-7.2-3.45-10.65-5.81l-.69 4.03c-.91 5.65-1.58 11.43-2.01 17.28a8.252 8.252 0 0 1-2.43 5.28c-6.77 7.21-11.03 13.63-13.11 19.26-2.14 5.76-1.88 10.65.25 14.67 2.39 4.53 7.18 8.51 13.69 11.88 10.47 5.41 24.97 9.04 41.4 10.9 15.68 1.78 33.7 2.5 50.87 1.15 13.99-1.11 27.32-3.58 38.17-7.96 10.53-4.24 17.88-14.34 24.13-22.95 1.79-2.31 3.44-4.81 5.26-7.09 7.85-10.55 21.18-28.32 32.97-32.82 4.29-1.63 9.11.53 10.74 4.82 1.63 4.29-.52 9.11-4.82 10.74-7.37 2.81-18.8 18.06-25.56 27.16l-5.11 6.95c-7.55 10.38-16.4 22.56-31.43 28.61-10.77 4.35-23.32 7.04-36.43 8.5.12.47.2.96.24 1.46.63 7.84 1.06 23.35.64 37.67-.32 10.66-1.16 20.74-2.76 26.77-1.18 4.43-5.76 7.08-10.19 5.89-4.44-1.18-7.08-5.76-5.9-10.19 1.28-4.78 1.96-13.51 2.24-22.93.41-13.46-.03-28.3-.64-35.9-.03-.53-.03-1.06.03-1.58-15.2.57-30.59-.22-44.28-1.77-18.34-2.08-34.84-6.28-47.19-12.66-9.47-4.9-16.71-11.19-20.78-18.9-4.35-8.21-5.07-17.61-1.16-28.15 2.63-7.12 7.47-14.79 14.8-22.95.46-5.19 1.11-10.46 1.98-15.78 2.78-17.07 7.81-36.3 12.47-52.72l.72-2.49-16.21-5.91c-4.62-1.54-8.42-4.12-11.22-7.45-5.53-7.23-6.89-14.94-4.1-23.65 1.92-5.94 5.92-12.03 12.32-17.56l18.8-20.34c-4.2-6.49-6.18-13.87-3.5-22.82l22.11-73.84c1.97-6.58 6.46-11.78 12.09-14.81 2.93-1.57 6.17-2.58 9.54-2.89L60.84 86.02c-3.5-2.97-3.94-8.22-.97-11.72l1.33-1.26c112.12-84.72 211.14-87.63 282.79-49.82 41.88 22.1 74.29 58.15 94.46 99.93 19.59 40.59 27.67 86.68 21.71 130.72 5.39 3.3 9.71 7.95 12.61 13.35 4.16 7.72 5.46 16.99 2.96 25.99l-.39 1.31c-2.85 8.93-9.06 15.97-16.8 20.15-5.66 3.06-12.17 4.58-18.8 4.17-24.57 47.13-70.2 86.14-140.95 104.87.32 4.61.76 9.15 1.31 13.63 2.56 20.95 7.48 40.61 14.43 59.07 1.61 4.3-.56 9.1-4.86 10.71a8.32 8.32 0 0 1-10.72-4.85c-7.43-19.75-12.68-40.68-15.39-62.91-2.71-22.15-2.92-45.7-.34-70.79zM176.15 248.83c5.56 1.66 8.71 7.51 7.05 13.06-1.66 5.56-7.52 8.71-13.07 7.04-5.55-1.66-8.71-7.51-7.04-13.06 1.66-5.55 7.51-8.71 13.06-7.04zm-47.68-14.28c5.55 1.66 8.71 7.51 7.04 13.06-1.66 5.55-7.51 8.71-13.06 7.05-5.56-1.66-8.71-7.51-7.04-13.07 1.65-5.55 7.51-8.7 13.06-7.04zm137.02-65.25c.14 2.76-.17 5.58-1.01 8.37l-23.09 77.13c-5.2 17.37-17.44 31.5-33.75 39.32l8.71 2.61c12.46 3.73 25.34 2.02 36.03-3.74 29.79-16.05 38.13-78.84 46-105.15.66-2.19.35-4.46-.66-6.34-1.93-3.6-4.96-4.04-8.38-5.06l-23.85-7.14zm-81.84 114.33c6.64-.52 13.08-2.45 18.87-5.57 10.68-5.75 19.19-15.57 22.91-28.02l23.1-77.13c.65-2.18.34-4.46-.67-6.34-2.26-4.2-7.89-4.91-12.02-6.15l-151.6-45.39c-3.67-1.1-6.95-2.68-10.72-.65a8.289 8.289 0 0 0-4.03 4.91l-22.1 73.83c-2.32 7.76 6.98 15.78 15.67 23.25 3.38 2.9 6.7 5.75 9.63 8.77 5.95 6.12 8.61 13.56 11.15 20.67 5.23 14.65 5.52 12.9 17.9 16.61l52.95 15.85c10.01 3 18.1 6.22 28.96 5.36zm131.13-109.3a24.903 24.903 0 0 1 2.15 18.3l-4.7 15.74 131.89 39.49c4.58-39.68-3-80.97-20.64-117.49-18.68-38.72-48.63-72.07-87.24-92.44-64.66-34.12-154.1-31.87-256.63 42.2l28.03 23.81c.27.3.52.62.74.95l130.19 38.98c15.63 4.68 31.27 9.37 46.91 14.05 11.15 3.34 23.21 5.09 29.3 16.41zm-7.33 49.99-10.57 35.33v.01l124.71 37.33c8.15 2.44 15.56 5.98 23.92 1.5 9.01-4.86 12.3-15.94 7.46-24.95-4.36-8.09-11.32-9.05-19.06-11.36l-126.46-37.86z"/></svg>