<svg id="Layer_1" data-name="Layer 1" xmlns="http://www.w3.org/2000/svg" viewBox="0 0 73.34 122.88"><defs><style>.cls-1{fill-rule:evenodd;}</style></defs><title>mobile-data</title><path class="cls-1" d="M13.27,0h46.8A13.28,13.28,0,0,1,73.34,13.28V109.6a13.28,13.28,0,0,1-13.27,13.28H13.27A13.28,13.28,0,0,1,0,109.6V13.26A13.25,13.25,0,0,1,13.27,0ZM36.56,44.51a3.62,3.62,0,0,1-4.93-5.3l10.6-9.85a3.61,3.61,0,0,1,5.1.18l10.46,9.67a3.61,3.61,0,1,1-4.9,5.3l-4.57-4.24v25.9a3.63,3.63,0,1,1-7.25,0V40.32l-4.51,4.19Zm-21,39.16a3.62,3.62,0,0,1,4.93-5.3l4.5,4.2V56.71a3.63,3.63,0,1,1,7.25,0v25.9l4.58-4.24a3.61,3.61,0,0,1,4.9,5.3L31.23,93.34a3.61,3.61,0,0,1-5.1.18l-10.6-9.85ZM3.24,104.44H70.08v-90H3.24v90Zm33.41,4.15a5.46,5.46,0,1,1-5.46,5.46,5.45,5.45,0,0,1,5.46-5.46Z"/></svg>