<svg id="Layer_1" data-name="Layer 1" xmlns="http://www.w3.org/2000/svg" viewBox="0 0 122.88 119.59"><title>online-community</title><path d="M69.46,90.19a52.26,52.26,0,0,1-5.22,5c.53-.07,1.06-.16,1.59-.26A20.32,20.32,0,0,0,70,93.62c.34-.14.68-.3,1-.45a4.55,4.55,0,0,0,.82.82,4.12,4.12,0,0,0,1,.61c-.66.35-1.34.67-2,1A22.85,22.85,0,0,1,66.22,97a25.1,25.1,0,0,1-9.67,0,23.09,23.09,0,0,1-4.49-1.39.11.11,0,0,1-.06,0,26,26,0,0,1-4.09-2.22,22.68,22.68,0,0,1-3.56-2.92,22.1,22.1,0,0,1-2.91-3.55,25.66,25.66,0,0,1-2.23-4.09,23.71,23.71,0,0,1-1.41-4.55,25.63,25.63,0,0,1-.46-4.84,24.8,24.8,0,0,1,.47-4.83,22.88,22.88,0,0,1,1.39-4.49.07.07,0,0,1,0-.06,25.22,25.22,0,0,1,2.22-4.1,22.6,22.6,0,0,1,2.92-3.55,21.63,21.63,0,0,1,3.55-2.92A24.87,24.87,0,0,1,52,51.23a22.76,22.76,0,0,1,4.54-1.42,24.83,24.83,0,0,1,4.84-.47,24.05,24.05,0,0,1,4.83.48,22.39,22.39,0,0,1,4.49,1.38l.06,0a27.46,27.46,0,0,1,4.1,2.23,23.11,23.11,0,0,1,3.55,2.91,22.54,22.54,0,0,1,2.91,3.55A25,25,0,0,1,83.57,64,23.5,23.5,0,0,1,85,68.57a24,24,0,0,1,.39,2.7l-2.18-.58c-.07-.57-.16-1.14-.27-1.7a21,21,0,0,0-1.28-4.13,22.21,22.21,0,0,0-1.22-2.44h-7a25.28,25.28,0,0,1,2.7,6.39l-2.37-.63a25,25,0,0,0-2.8-5.76H62.45v3.92a3,3,0,0,0-.45.31h0c-.11.09-.23.19-.33.29a4.42,4.42,0,0,0-.39.47,3.81,3.81,0,0,0-.44.88,3.65,3.65,0,0,0-.2,1,3.15,3.15,0,0,0,0,.81,4.88,4.88,0,0,0,.16.66l0,.06a1.12,1.12,0,0,1,0,.13,1.33,1.33,0,0,0,.06.14h0l1.51,3.41h0v9.93h4.43l.93,2.11H62.45v7.42a49.42,49.42,0,0,0,6.07-5.85l.94,2.13ZM25.3,58.63a2.82,2.82,0,1,1-5.08-2.43,46.35,46.35,0,0,1,12.63-16,2.82,2.82,0,0,1,3.55,4.37A40.51,40.51,0,0,0,25.3,58.63Zm71,34.48c2.5,7.35,9.64,7.15,11.84,0,2.15,1.93,8.48,2.31,10.84,3.62a6.34,6.34,0,0,1,2,1.66,8,8,0,0,1,1.46,4.3l.49,3.79a2.17,2.17,0,0,1-2.27,2.12H83.8a2.17,2.17,0,0,1-2.26-2.12L82,102.7a8.09,8.09,0,0,1,1.47-4.3,6.34,6.34,0,0,1,2-1.66c2.37-1.32,8.7-1.7,10.84-3.63Zm-81.54,0c2.49,7.35,9.64,7.15,11.84,0,2.14,1.93,8.47,2.31,10.83,3.62a6.34,6.34,0,0,1,2,1.66,8,8,0,0,1,1.46,4.3l.49,3.79a2.17,2.17,0,0,1-2.26,2.12H2.27A2.17,2.17,0,0,1,0,106.49l.49-3.79A8,8,0,0,1,2,98.4a6.34,6.34,0,0,1,2-1.66c2.36-1.32,8.7-1.7,10.84-3.63ZM13.19,81.05a1.67,1.67,0,0,0,.77,0l-.46-3a5.05,5.05,0,0,1,1.08-2.15,3.4,3.4,0,0,1,1.9-1c1-.07,1.32.66,2.31,1.31a16,16,0,0,0,9.4,2.65l-.47,1.66a.54.54,0,0,0-.09.36s0,0,0,.07l-.06.32h.3a.53.53,0,0,0,.33.08c.65-.06,1.06,0,1.16.23s0,.9-.41,1.88L26.9,86.84a16.16,16.16,0,0,1-2.53,3.46,5.19,5.19,0,0,1-3.71,1.47,5,5,0,0,1-3.51-1.41,15.69,15.69,0,0,1-2.45-3.23l-1.83-2.92h0A4.47,4.47,0,0,1,12,82.09a1.08,1.08,0,0,1,.08-.49.65.65,0,0,1,.27-.3,1.62,1.62,0,0,1,.86-.25Zm16.27-.69.11-4a7.15,7.15,0,0,0-1.78-4.49c-2.5-2.71-7.16-3.4-10.69-2.13a8.51,8.51,0,0,0-1.66.81,7,7,0,0,0-3.09,4,8.06,8.06,0,0,0-.23,1.19,34,34,0,0,0,.09,4.53,2.38,2.38,0,0,0-.45.24,1.67,1.67,0,0,0-.63.74,2.11,2.11,0,0,0-.18,1,5.27,5.27,0,0,0,1,2.67l1.83,2.91a16.55,16.55,0,0,0,2.64,3.44,6,6,0,0,0,4.22,1.69,6.17,6.17,0,0,0,4.43-1.76,17.12,17.12,0,0,0,2.72-3.68L29.91,84l0-.07h0c.57-1.3.69-2.19.4-2.79a1.4,1.4,0,0,0-.88-.73ZM55.26,12A1.66,1.66,0,0,0,56,12l-.47-3a4.65,4.65,0,0,1,1.09-2.14,3.34,3.34,0,0,1,1.9-1c1-.07,1.31.66,2.31,1.3a16,16,0,0,0,9.4,2.65l-.47,1.66a.57.57,0,0,0-.09.36s0,.05,0,.07l-.06.33h.29a.54.54,0,0,0,.34.08c.65-.06,1,0,1.16.21s0,.91-.41,1.88L69,17.75a16.21,16.21,0,0,1-2.54,3.45,5.14,5.14,0,0,1-3.7,1.47,5,5,0,0,1-3.51-1.41A15.13,15.13,0,0,1,56.76,18l-1.83-2.92h0A4.4,4.4,0,0,1,54.05,13a1.1,1.1,0,0,1,.08-.49.61.61,0,0,1,.26-.29,1.66,1.66,0,0,1,.87-.25ZM56.81,24c2.5,7.35,9.64,7.16,11.85,0,2.14,1.93,8.48,2.32,10.83,3.63a6.1,6.1,0,0,1,2,1.65,8,8,0,0,1,1.46,4.3l.49,3.8a2.18,2.18,0,0,1-2.27,2.11H44.33a2.18,2.18,0,0,1-2.27-2.11l.49-3.8A7.92,7.92,0,0,1,44,29.3a6.07,6.07,0,0,1,2-1.65c2.35-1.31,8.7-1.7,10.83-3.63ZM71.53,11.28l.11-4a7.13,7.13,0,0,0-1.79-4.49C67.35,0,62.69-.65,59.17.62a8.32,8.32,0,0,0-1.67.81,7,7,0,0,0-3.09,3.93,7.1,7.1,0,0,0-.22,1.19,35.94,35.94,0,0,0,.08,4.54,2.12,2.12,0,0,0-.45.23,1.87,1.87,0,0,0-.63.74A2.14,2.14,0,0,0,53,13a5.27,5.27,0,0,0,1.05,2.67l1.83,2.91A16,16,0,0,0,58.53,22a6,6,0,0,0,4.22,1.69A6.17,6.17,0,0,0,67.18,22a16.84,16.84,0,0,0,2.71-3.68L72,14.86l0-.06h0c.57-1.3.7-2.2.4-2.8a1.37,1.37,0,0,0-.87-.72Zm23.2,69.77a1.76,1.76,0,0,0-.85.23.82.82,0,0,0-.26.3,1,1,0,0,0-.08.49,4.3,4.3,0,0,0,.87,2.11h0l1.83,2.92a16,16,0,0,0,2.46,3.23,5,5,0,0,0,3.51,1.41,5.22,5.22,0,0,0,3.71-1.47,16.25,16.25,0,0,0,2.53-3.46l2.06-3.39c.43-1,.56-1.59.41-1.88s-.51-.28-1.16-.23a.59.59,0,0,1-.34-.08h-.29l.06-.32a.15.15,0,0,1,0-.07.54.54,0,0,1,.09-.36l.47-1.66a16.08,16.08,0,0,1-9.4-2.65c-1-.65-1.3-1.38-2.31-1.31a3.46,3.46,0,0,0-1.9,1A4.84,4.84,0,0,0,95.05,78l.47,3a1.62,1.62,0,0,1-.79,0ZM111,80.36a1.32,1.32,0,0,1,.87.72c.3.6.18,1.5-.39,2.79h0l0,.07-2.09,3.43a17.24,17.24,0,0,1-2.71,3.68,6.13,6.13,0,0,1-4.43,1.76A6,6,0,0,1,98,91.12a16.53,16.53,0,0,1-2.64-3.45l-1.83-2.9a5.49,5.49,0,0,1-1-2.67,2,2,0,0,1,.19-1,1.79,1.79,0,0,1,.63-.74,3.62,3.62,0,0,1,.44-.24,34,34,0,0,1-.08-4.53,6.92,6.92,0,0,1,.22-1.19,7.1,7.1,0,0,1,3.09-4,8.6,8.6,0,0,1,1.67-.81c3.52-1.27,8.18-.58,10.68,2.13a7,7,0,0,1,1.79,4.49L111,80.36ZM89.65,45a2.81,2.81,0,1,1,3.61-4.31c.57.48,1,.86,1.36,1.17s.83.78,1.3,1.23a46.42,46.42,0,0,1,4.68,5.36,47.64,47.64,0,0,1,3.81,6,2.82,2.82,0,1,1-5,2.63,38.34,38.34,0,0,0-3.34-5.27A39.91,39.91,0,0,0,92,47.15c-.33-.34-.72-.69-1.14-1.08l-1.17-1ZM75.72,111.83a2.82,2.82,0,0,1,1.79,5.35,45.17,45.17,0,0,1-7.27,1.8,46.56,46.56,0,0,1-22.56-1.89,2.83,2.83,0,0,1,1.83-5.35,41,41,0,0,0,19.81,1.67,39.64,39.64,0,0,0,6.4-1.58Zm9-22.3a1.53,1.53,0,0,1-.48.33,1.51,1.51,0,0,1-.58.15,1.56,1.56,0,0,1-.64-.07,1.48,1.48,0,0,1-.56-.31l-3.94-3.24L76.9,90.3a5,5,0,0,1-.47.89,3.54,3.54,0,0,1-.6.7,2.63,2.63,0,0,1-.56.38,2.1,2.1,0,0,1-.6.19,1.94,1.94,0,0,1-.72,0,2,2,0,0,1-.65-.34,2.52,2.52,0,0,1-.47-.5,4.3,4.3,0,0,1-.37-.65c-3-6.79-6.6-14.09-9.29-20.93a1.28,1.28,0,0,1-.07-.28,1.31,1.31,0,0,1,0-.28,1.6,1.6,0,0,1,.07-.33,1.77,1.77,0,0,1,.15-.31,1.31,1.31,0,0,1,.11-.12.58.58,0,0,1,.12-.1,1.14,1.14,0,0,1,.23-.15h0a.81.81,0,0,1,.25-.08h0a.91.91,0,0,1,.23,0,1,1,0,0,1,.25,0h.09C72,70.15,79.4,72.23,86.75,74.18a4.09,4.09,0,0,1,.7.26,2.39,2.39,0,0,1,.56.38,1.9,1.9,0,0,1,.44.59,1.71,1.71,0,0,1,.16.7h0a1.67,1.67,0,0,1-.09.62,2.23,2.23,0,0,1-.28.61,3.2,3.2,0,0,1-.6.7,5.2,5.2,0,0,1-.81.61c-1.21.71-2.41,1.46-3.61,2.19l3.93,3.26a1.58,1.58,0,0,1,.39.51v0a1.58,1.58,0,0,1,.16.59,1.69,1.69,0,0,1-.06.63,1.87,1.87,0,0,1-.29.56,38.66,38.66,0,0,1-2.67,3.1ZM83.48,88l2.23-2.62-4.73-4,0,0-.08-.08-.09-.13a1,1,0,0,1-.1-.72.91.91,0,0,1,.43-.59C82.68,79,84.3,78,85.84,77a3.72,3.72,0,0,0,.48-.35,2.25,2.25,0,0,0,.3-.35.34.34,0,0,0,.06-.12l-.13-.07a1.31,1.31,0,0,0-.3-.1L65.5,70.53l8.72,19.62a2.37,2.37,0,0,0,.15.28v0l.08.1.11-.09a1.74,1.74,0,0,0,.29-.35,2.91,2.91,0,0,0,.27-.53l2.09-5.12,0,0a.31.31,0,0,1,.05-.1v0l.08-.1a1,1,0,0,1,1.34-.11L83.48,88ZM58.57,95.17a44.89,44.89,0,0,1-8.15-8.68H43.76a20.37,20.37,0,0,0,2.11,2.45,21.09,21.09,0,0,0,3.23,2.65,21.53,21.53,0,0,0,3.77,2s0,0,0,0A21.2,21.2,0,0,0,57,94.91c.52.1,1.06.19,1.59.26ZM42.37,84.39h6.7a21.52,21.52,0,0,1-3-9.93H39.47a23.19,23.19,0,0,0,.41,3.36A20.38,20.38,0,0,0,41.16,82a24.08,24.08,0,0,0,1.21,2.44Zm-2.9-12h6.66a22.91,22.91,0,0,1,3.29-9.93H42.37a24.08,24.08,0,0,0-1.21,2.44s0,0,0,0A21.29,21.29,0,0,0,39.87,69a21.58,21.58,0,0,0-.4,3.36Zm4.28-12h7a49.21,49.21,0,0,1,7.94-8.7c-.6.07-1.17.16-1.74.27a20.32,20.32,0,0,0-4.12,1.29,23.46,23.46,0,0,0-3.77,2,21.09,21.09,0,0,0-3.23,2.65,19.54,19.54,0,0,0-2.11,2.44Zm20.33-8.7A48.45,48.45,0,0,1,72,60.31h7a21.48,21.48,0,0,0-5.34-5.1,22.22,22.22,0,0,0-3.77-2s0,0,0,0a21.2,21.2,0,0,0-4.08-1.26c-.58-.11-1.16-.2-1.73-.27h0ZM62.45,53v7.33h7a49.5,49.5,0,0,0-7-7.33ZM60.34,93.91V86.49H53a44.45,44.45,0,0,0,7.34,7.42Zm0-9.52V74.46H48.19a20.06,20.06,0,0,0,3.33,9.93Zm0-12V62.42H51.89a21.74,21.74,0,0,0-3.66,9.93Zm0-12V53a49.5,49.5,0,0,0-7,7.33Z"/></svg>