<svg id="Layer_1" data-name="Layer 1" xmlns="http://www.w3.org/2000/svg" viewBox="0 0 110.01 122.88"><defs><style>.cls-1{fill-rule:evenodd;}</style></defs><title>research-and-development</title><path class="cls-1" d="M73,39.28a3.58,3.58,0,0,1,1.06,1l2.76,3.81h0a4,4,0,0,1,.61,1.3,3.49,3.49,0,0,1,0,1.44A3.91,3.91,0,0,1,77,48.18a3.32,3.32,0,0,1-1,1l-2.25,1.65c0,.06,0,.14,0,.2.11.4.2.81.29,1.2,0,0,0,.05,0,.07.09.39.15.82.21,1.27l0,.16,2.37.39a3.4,3.4,0,0,1,1.36.51,3.55,3.55,0,0,1,1,1v0a3.43,3.43,0,0,1,.59,1.29,3.77,3.77,0,0,1,0,1.42L79,63.05a3.56,3.56,0,0,1-1.48,2.41,3.61,3.61,0,0,1-1.31.6,3.92,3.92,0,0,1-1.45,0L72,65.64a2.12,2.12,0,0,1-.12.2c-.21.37-.45.73-.68,1.09s-.5.73-.75,1l-.09.11L71.73,70l.06.07a3.45,3.45,0,0,1,.56,1.31,3.76,3.76,0,0,1,0,1.42,3.88,3.88,0,0,1-.48,1.32,3.65,3.65,0,0,1-1,1.06l0,0L67.07,78a3.69,3.69,0,0,1-1.29.63,3.45,3.45,0,0,1-1.47,0,4,4,0,0,1-1.38-.51,3.39,3.39,0,0,1-1-1l-1.6-2.25a.64.64,0,0,1-.23.05c-.4.09-.81.2-1.24.29s-.85.15-1.28.21a.37.37,0,0,1-.18,0L57,77.79a3.39,3.39,0,0,1-.51,1.35,3.5,3.5,0,0,1-1,1l0,0a3.57,3.57,0,0,1-1.29.58,4,4,0,0,1-1.42.06l-4.7-.77a3.68,3.68,0,0,1-3-2.8,3.65,3.65,0,0,1,0-1.44l.45-2.76-.2-.12c-.37-.22-.73-.45-1.09-.69s-.73-.49-1-.75L43,71.43l-1.94,1.41-.07,0a3.45,3.45,0,0,1-1.31.56,3.75,3.75,0,0,1-1.42,0A3.7,3.7,0,0,1,37,73a3.76,3.76,0,0,1-1.06-.94l0,0-2.75-3.88a3.82,3.82,0,0,1-.61-1.29,3.54,3.54,0,0,1-.05-1.45A3.86,3.86,0,0,1,33,64a4,4,0,0,1,1-1l2.25-1.6a.78.78,0,0,1-.05-.23c-.09-.39-.2-.81-.29-1.24s-.17-.85-.21-1.27v-.18l-2.35-.39A3.24,3.24,0,0,1,32,57.59a3.46,3.46,0,0,1-1-1l0,0a3.57,3.57,0,0,1-.58-1.29,4,4,0,0,1-.06-1.42l.77-4.7a3.78,3.78,0,0,1,.49-1.35,3.82,3.82,0,0,1,1-1.06,3.58,3.58,0,0,1,1.32-.6,3.86,3.86,0,0,1,1.44,0l2.75.45.13-.2c.21-.36.45-.72.68-1.08s.5-.74.75-1l.09-.12-1.39-2a3.44,3.44,0,0,1-.6-1.32,3.51,3.51,0,0,1-.05-1.44,3.45,3.45,0,0,1,.51-1.36,3.67,3.67,0,0,1,1-1.05L43,34.25v0a4,4,0,0,1,1.3-.61,3.49,3.49,0,0,1,1.44,0,3.91,3.91,0,0,1,1.36.51,3.44,3.44,0,0,1,1,1l1.65,2.25.18-.05c.4-.12.81-.2,1.25-.31s.84-.15,1.27-.21a.55.55,0,0,1,.18,0L53,34.41a3.49,3.49,0,0,1,.51-1.36,3.59,3.59,0,0,1,1-1l0,0a3.64,3.64,0,0,1,1.29-.58,4,4,0,0,1,1.43-.06l4.69.77a3.83,3.83,0,0,1,1.36.49,3.41,3.41,0,0,1,1.05,1,3.73,3.73,0,0,1,.61,1.31,3.91,3.91,0,0,1,0,1.45l-.46,2.75.2.12c.37.22.73.45,1.09.69s.73.5,1,.75l.11.08,2-1.38a3.26,3.26,0,0,1,1.31-.6,3.73,3.73,0,0,1,1.45-.06,3.81,3.81,0,0,1,1.35.51v.05ZM32.55,83c-1.43-1.63-2.88-3.3-4.28-5.19a38,38,0,0,1-4-6.71c-.14-.29-.27-.58-.4-.87a34.44,34.44,0,0,1-3.13-11.77c-.09-1-.13-2.08-.12-3.11v-.13h0v-.26h0a35,35,0,0,1,1.12-8.13,40.51,40.51,0,0,1,3.33-8.56l.12-.23A33.81,33.81,0,0,1,32,29.72a32.05,32.05,0,0,1,8.47-5.33A34.59,34.59,0,0,1,52.15,21.3h0A34.46,34.46,0,0,1,85.71,40.05l.08.14.07.15v0c.34.68.66,1.38.95,2.09l.06.16,0,.06v0l0,.08,0,.09a34.24,34.24,0,0,1,1.7,5.68l0,.09,0,.1,0,.08h0a33.64,33.64,0,0,1,.64,5.41A34.27,34.27,0,0,1,85.28,72l23.14,20.82L99,103,77.24,83.33,70.7,93.76l-.81,3.81-.25,3.15.08,4.06a23.41,23.41,0,0,1,0,4.1,14.13,14.13,0,0,1-1,4.23,11.24,11.24,0,0,1-.5,1.16,15.45,15.45,0,0,1-7.51,7.35A13.62,13.62,0,0,1,50.1,122c-.36-.14-.71-.29-1-.45l-.14-.08a12.25,12.25,0,0,1-4.56-3.73l-.11-.16A23.89,23.89,0,0,1,41.8,113a2,2,0,0,1-.16-.53,32,32,0,0,1-.79-4.1c-.14-1.2-.18-2.44-.21-4.27v0A33.44,33.44,0,0,0,38.2,92.93,34.12,34.12,0,0,0,32.55,83Zm14.09,29.38,18.25-2.71c.08-.4.14-.81.18-1.22a20.81,20.81,0,0,0,0-3.35l0-1.09L45.4,106.93c0,.29.05.58.08.87a29,29,0,0,0,.66,3.45l.5,1.12Zm16.06,1.92-13.31,2a8.15,8.15,0,0,0,1.6,1l.1,0,.69.3a9,9,0,0,0,7-.27,10.69,10.69,0,0,0,3.94-3.08ZM45.24,102.64,65,99.7l.21-2.63a1.65,1.65,0,0,1,0-.31L65.67,95,44.59,98.11a33.61,33.61,0,0,1,.65,4.53ZM43.49,94l23.82-3.54,2.29-3.66a34.51,34.51,0,0,1-29,.08c.72,1.43,1.38,2.92,2,4.43.35.89.66,1.79,1,2.69Zm62.86-46.34a3.46,3.46,0,0,1,3.64,3.1v.15a3.4,3.4,0,0,1-.77,2.38,3.45,3.45,0,0,1-2.32,1.26l-8.21.86a3.41,3.41,0,0,1-2.53-.76,3.45,3.45,0,0,1-1.26-2.33,3.4,3.4,0,0,1,.76-2.52A3.45,3.45,0,0,1,98,48.5c2.76-.29,5.6-.66,8.35-.88ZM3.51,58.68a3.44,3.44,0,0,1-2.42-.93,3.45,3.45,0,0,1,2.26-6l8.24-.28a3.45,3.45,0,0,1,3.56,3.34V55a3.41,3.41,0,0,1-.93,2.31,3.48,3.48,0,0,1-2.41,1.09c-2.76.08-5.55.24-8.3.28ZM13.62,17.23a3.45,3.45,0,0,1,4.7-5.06l6,5.63a3.45,3.45,0,0,1-4.7,5.06l-6-5.63Zm41-13.83a1.27,1.27,0,0,1,0-.2A3.44,3.44,0,0,1,58.12,0h.21a3.45,3.45,0,0,1,3.19,3.48.91.91,0,0,1,0,.17l-.2,8.08a1.48,1.48,0,0,1,0,.21,3.46,3.46,0,0,1-1.06,2.24,3.42,3.42,0,0,1-2.43,1,.67.67,0,0,1-.2,0,3.42,3.42,0,0,1-2.25-1.06,3.45,3.45,0,0,1-1-2.42,1,1,0,0,1,0-.17l.2-8.08Zm35.6,11.22a3.51,3.51,0,0,1,2.18-1.44,3.42,3.42,0,0,1,2.59.53h0a3.48,3.48,0,0,1,1.45,2.19,3.39,3.39,0,0,1-.53,2.58l-4.58,6.86a3.45,3.45,0,0,1-4.79.95,3.45,3.45,0,0,1-1-4.79l4.61-6.89ZM35,78.67l.31.26a30.56,30.56,0,0,0,39.67-.15A41.71,41.71,0,0,0,82.38,67l.05-.12a32.93,32.93,0,0,0,1.83-6.15,29.72,29.72,0,0,0,.49-6.13,28.41,28.41,0,0,0-.69-5.47,30.9,30.9,0,0,0-1.57-5,26.36,26.36,0,0,0-4.66-7.5,29.69,29.69,0,0,0-7.14-5.85,32.17,32.17,0,0,0-6.56-2.94A32.7,32.7,0,0,0,57,26.45a31.91,31.91,0,0,0-7.37.18A29.17,29.17,0,0,0,43,28.4l-.18.09a27.16,27.16,0,0,0-7.71,4.74,29,29,0,0,0-5.84,7.08l-.05.09A36,36,0,0,0,26.23,48a29.88,29.88,0,0,0-1,7.27,29.21,29.21,0,0,0,.81,7,35.62,35.62,0,0,0,2.4,6.86A34,34,0,0,0,32,75c1,1.29,2,2.48,2.94,3.64ZM55,42.6A13.5,13.5,0,1,1,41.5,56.1,13.5,13.5,0,0,1,55,42.6Z"/></svg>