<svg id="Layer_1" data-name="Layer 1" xmlns="http://www.w3.org/2000/svg" viewBox="0 0 122.88 122.02"><title>rfid</title><path d="M62.19,48.52a9.83,9.83,0,0,0-.25-19.61h-1a9.83,9.83,0,0,0,0,19.63h1.25ZM24.53,91q6,0,9.29,2.7a8.86,8.86,0,0,1,3.24,7.16q0,5.11-3.17,7.7c-2.11,1.72-5.19,2.58-9.22,2.58l-1.08.56H18.42V122H7.72V91Zm-1.88,13.52a4.41,4.41,0,0,0,2.6-.63,3.27,3.27,0,0,0,0-4.44,4.26,4.26,0,0,0-2.6-.66H18.42v5.73Zm6.47,2.3L38.79,122H26.92l-7.23-13.56,9.43-1.6Zm37.37-7.79H51.75v4.32H63.67v8H51.75V122H40.81V91H66.49v8Zm14.08-8v31H69.63V91Zm19.9,0q7.27,0,11,4t3.71,11.45q0,7.36-3.71,11.43t-11,4.06H85.26V91Zm-1.55,23.19c2,0,3.38-.62,4.06-1.86a12.78,12.78,0,0,0,1-5.84,12.78,12.78,0,0,0-1-5.84c-.68-1.24-2-1.86-4.06-1.86H96.19v15.4ZM41.57,21.77a4.5,4.5,0,0,0-.51-6.2l-.29-.23a4.4,4.4,0,0,0-3.14-.86,4.45,4.45,0,0,0-2.9,1.5,1.79,1.79,0,0,0-.22.25,41.63,41.63,0,0,0-6.45,10.92A31.56,31.56,0,0,0,28,50.43a40.44,40.44,0,0,0,6.49,10.93,4.49,4.49,0,0,0,6.31.65h0a4.5,4.5,0,0,0,.65-6.32h0a31.57,31.57,0,0,1-5-8.36,22.93,22.93,0,0,1-1.65-8.51,23.32,23.32,0,0,1,1.71-8.56,32.39,32.39,0,0,1,5.08-8.49ZM22.4,7.54a1.37,1.37,0,0,0,.19-.23,4.45,4.45,0,0,0-.43-6.1,1.37,1.37,0,0,0-.22-.2,4.48,4.48,0,0,0-6.18.5A67.93,67.93,0,0,0,3.84,19.91,46.8,46.8,0,0,0,0,39,46.8,46.8,0,0,0,4.47,58,68.05,68.05,0,0,0,17,76.05l.11.11a4.48,4.48,0,0,0,6.23.08l.11-.1a4.56,4.56,0,0,0,1.31-3,4.48,4.48,0,0,0-1.22-3.21A59.49,59.49,0,0,1,12.72,54.48,38.08,38.08,0,0,1,9,38.89a38.45,38.45,0,0,1,3.23-15.72A59,59,0,0,1,22.4,7.54ZM81.31,21.77a4.5,4.5,0,0,1,.51-6.2l.28-.23a4.49,4.49,0,0,1,6.05.64,1.27,1.27,0,0,1,.21.25,41.4,41.4,0,0,1,6.46,10.92,31.56,31.56,0,0,1,.07,23.28A40.44,40.44,0,0,1,88.4,61.36a4.49,4.49,0,0,1-6.31.65h0a4.48,4.48,0,0,1-1.63-3,4.55,4.55,0,0,1,1-3.3h0a31.57,31.57,0,0,0,5-8.36,22.93,22.93,0,0,0,1.65-8.51,23.32,23.32,0,0,0-1.71-8.56,32.39,32.39,0,0,0-5.08-8.49ZM100.48,7.54a1.37,1.37,0,0,1-.19-.23,4.45,4.45,0,0,1,.43-6.1,1.37,1.37,0,0,1,.22-.2,4.48,4.48,0,0,1,6.18.5A67.93,67.93,0,0,1,119,19.91,46.8,46.8,0,0,1,122.87,39a46.8,46.8,0,0,1-4.46,19,68.05,68.05,0,0,1-12.52,18l-.11.11a4.48,4.48,0,0,1-6.23.08l-.11-.1a4.56,4.56,0,0,1-1.31-3,4.48,4.48,0,0,1,1.22-3.21,59.49,59.49,0,0,0,10.81-15.42,38.08,38.08,0,0,0,3.76-15.59,38.45,38.45,0,0,0-3.23-15.72A59,59,0,0,0,100.48,7.54Z"/></svg>