<svg xmlns="http://www.w3.org/2000/svg" shape-rendering="geometricPrecision" text-rendering="geometricPrecision" image-rendering="optimizeQuality" fill-rule="evenodd" clip-rule="evenodd" viewBox="0 0 512 229.84"><path d="M420.5 68.14c1.19-.75 2.39-1.47 3.58-2.17 11.28-6.55 22.74-10.54 34.38-11.58 1.1-2.19 3.38-3.7 5.99-3.7 2.62 0 4.88 1.49 5.98 3.67 12.43 1.05 25.07 5.51 37.98 13.78 1.66 1.07 3.72 1.62 3.58 3.59l-9.31 129.14c-.14 1.96-1.68 3.05-3.58 3.58-23.6 6.65-46.21 6.29-67.96 0-1.89-.55-3.42-1.62-3.58-3.58L416.92 71.73c-.16-1.97 1.92-2.53 3.58-3.59zM11.93 81.89h308.89V40.5c-7.79-3.04-13.33-10.62-13.33-19.53C307.49 9.43 316.84 0 328.46 0c11.54 0 20.97 9.34 20.97 20.97 0 8.86-5.51 16.47-13.33 19.53v41.39h37.76c3.27 0 6.24 1.35 8.4 3.5l.03.03c2.16 2.17 3.5 5.15 3.5 8.4v100.23c0 3.26-1.35 6.24-3.5 8.4l-.03.03c-2.16 2.15-5.14 3.5-8.4 3.5h-18.07v23.86h-54.66v-23.86H84.66v23.86H30v-23.86H11.93c-3.26 0-6.24-1.34-8.4-3.5l-.03-.03c-2.15-2.16-3.5-5.13-3.5-8.4V93.82c0-3.26 1.34-6.24 3.5-8.4l.03-.03c2.16-2.15 5.13-3.5 8.4-3.5zm142.74 43.14c5.02 0 9.09 4.07 9.09 9.1a9.09 9.09 0 0 1-9.09 9.09c-5.03 0-9.1-4.07-9.1-9.09 0-5.03 4.07-9.1 9.1-9.1zm-37.92 0c5.03 0 9.1 4.07 9.1 9.1 0 5.02-4.07 9.09-9.1 9.09a9.09 9.09 0 0 1-9.09-9.09c0-5.03 4.07-9.1 9.09-9.1zm-76.33 0h35.39v18.19H40.42v-18.19zm330.1-27.86H15.27v93.54h355.25V97.17zm109.38 77.15h10.58c1.08 0 1.96.88 1.96 1.96v10.09c0 1.08-.88 1.95-1.96 1.95H479.9c-1.08 0-1.95-.87-1.95-1.95v-10.09c0-1.08.87-1.96 1.95-1.96zm-20.74 0h10.59c1.07 0 1.95.88 1.95 1.96v10.09c0 1.08-.88 1.95-1.95 1.95h-10.59c-1.07 0-1.95-.87-1.95-1.95v-10.09c0-1.08.88-1.96 1.95-1.96zm-20.73 0h10.58c1.08 0 1.95.88 1.95 1.96v10.09c0 1.08-.87 1.95-1.95 1.95h-10.58c-1.08 0-1.96-.87-1.96-1.95v-10.09c0-1.08.88-1.96 1.96-1.96zm41.47-23.46h10.58c1.08 0 1.96.88 1.96 1.95v10.1c0 1.07-.88 1.95-1.96 1.95H479.9c-1.08 0-1.95-.88-1.95-1.95v-10.1c0-1.07.87-1.95 1.95-1.95zm-20.74 0h10.59c1.07 0 1.95.88 1.95 1.95v10.1c0 1.07-.88 1.95-1.95 1.95h-10.59c-1.07 0-1.95-.88-1.95-1.95v-10.1c0-1.07.88-1.95 1.95-1.95zm-20.73 0h10.58c1.08 0 1.95.88 1.95 1.95v10.1c0 1.07-.87 1.95-1.95 1.95h-10.58c-1.08 0-1.96-.88-1.96-1.95v-10.1c0-1.07.88-1.95 1.96-1.95zm26.02-68.66c13.51 0 24.45 10.94 24.45 24.44 0 13.5-10.94 24.45-24.45 24.45-13.5 0-24.44-10.95-24.44-24.45s10.94-24.44 24.44-24.44zm.25 7.87c2.58 0 4.7 2.11 4.7 4.69v7.78h7.77c2.58 0 4.69 2.11 4.69 4.69 0 2.58-2.11 4.69-4.69 4.69h-7.77v7.78c0 2.58-2.12 4.69-4.7 4.69s-4.69-2.11-4.69-4.69v-7.78h-7.77c-2.59 0-4.7-2.11-4.7-4.69 0-2.58 2.11-4.69 4.7-4.69h7.77v-7.78c0-2.58 2.11-4.69 4.69-4.69z"/></svg>