<svg xmlns="http://www.w3.org/2000/svg" shape-rendering="geometricPrecision" text-rendering="geometricPrecision" image-rendering="optimizeQuality" fill-rule="evenodd" clip-rule="evenodd" viewBox="0 0 512 500.54"><path fill-rule="nonzero" d="M267.75 364.3c.03-.4.02-.79-.01-1.18 11.29.43 22.7-.15 32.86-1.3 13.62-1.55 25.88-4.66 35.05-9.4 7.03-3.64 12.4-8.31 15.43-14.03 3.22-6.11 3.75-13.09.85-20.91-1.95-5.28-5.54-10.96-10.98-17.03-.34-3.83-.83-7.72-1.46-11.69-1.39-8.58-3.95-19.61-6.18-28.05-1.01-3.81-2.08-7.58-3.17-11.39l-.45-1.58 12.03-4.38c6.34-2.13 11.03-7.16 12.14-13.81.49-2.92.27-6.1-.77-9.3-1.41-4.4-4.38-8.92-9.12-13.01l-14.86-16.09c2.48-4.45 3.47-9.47 1.69-15.44l-16.42-54.82c-1.45-4.88-4.79-8.74-8.97-10.99-1.88-1-3.93-1.7-6.06-2.02l9.62-8.14c2.6-2.2 2.93-6.11.73-8.71l-1-.94c-83.24-62.89-156.74-65.07-209.95-37-31.09 16.41-55.16 43.18-70.13 74.19-14.54 30.14-20.54 64.36-16.12 97.06-4 2.44-7.21 5.9-9.37 9.91-3.07 5.73-4.05 12.62-2.18 19.31l.28.96c2.12 6.62 6.73 11.86 12.47 14.96 4.22 2.27 9.05 3.4 13.97 3.11 18.24 34.98 52.11 63.95 104.64 77.85-.24 3.42-.57 6.79-.98 10.12-1.9 15.55-5.55 30.14-10.72 43.85-1.2 3.19.42 6.75 3.61 7.95 3.19 1.21 6.75-.41 7.96-3.6 5.52-14.66 9.42-30.2 11.44-46.7 2.01-16.45 2.16-33.93.25-52.56a6.188 6.188 0 0 0-6.77-5.52 6.188 6.188 0 0 0-5.52 6.77c.96 9.31 1.36 18.32 1.25 27.06-45.79-12.76-75.87-37.91-92.69-68.26l97.29-29.12c4.23 10.73 12.09 19.2 21.7 24.37 10.7 5.77 23.62 7.48 36.13 3.74l21.79-6.53c10.11-3.03 20.21-6.05 30.32-9.07l41.61-12.46c9.11-2.72 11.76-10.12 14.56-17.96 1.45-4.06 2.98-8.32 5.48-10.9 1.76-1.81 4.03-3.76 6.33-5.74 1.95-1.67 3.93-3.38 5.81-5.15l14.51 15.67c3.07 2.59 4.9 5.22 5.67 7.62 1.12 3.51.04 6.41-3.49 7.62-10.44 3.41-21.59 7.85-32.02 11.65l4.21 11.61 8-2.92.2.73c2.05 7.2 4.06 14.24 5.64 21.61-3.15 2.81-6.37 4.92-9.68 6.28-3.9 1.6-8.03 2.18-12.36 1.64a6.18 6.18 0 0 0-6.89 5.39c-.41 3.39 2 6.48 5.39 6.89 6.45.81 12.64-.07 18.55-2.5 2.71-1.12 5.34-2.57 7.9-4.32l.51 2.98c.68 4.16 1.17 8.45 1.49 12.84.12 1.57.82 2.96 1.87 3.98 4.99 5.32 8.13 10.06 9.67 14.23 1.58 4.28 1.39 7.92-.18 10.9-1.78 3.36-5.33 6.32-10.17 8.81-7.77 4.02-18.55 6.72-30.73 8.1-11.64 1.31-25.03 1.85-37.79.84-10.37-.82-20.27-2.66-28.31-5.9-7.83-3.15-13.28-10.65-17.92-17.04l-3.62-4.9c-5.79-7.78-15.86-21.33-24.76-24.73a6.193 6.193 0 0 0-7.98 3.58c-1.21 3.2.39 6.77 3.59 7.99 5.56 2.12 14.24 13.81 19.23 20.51l3.53 4.8c5.61 7.71 12.18 16.75 23.34 21.25 8 3.22 17.32 5.23 27.04 6.3-.09.35-.15.71-.18 1.09-.46 5.82-.79 17.33-.47 27.96.24 7.92.86 15.4 2.05 19.87.88 3.3 4.27 5.26 7.57 4.38 3.29-.88 5.25-4.27 4.37-7.57-.94-3.55-1.45-10.03-1.66-17.02-.3-9.99.02-21.01.47-26.65zm234.69-25.77V13.72c-22.13 14.07-48.35 24.11-76.6 30.73v246.3l.04.02c28.67 9.52 54.74 25.99 76.56 47.76zm-27.88 48.3h-.26c-1.89-.02-3.74-.98-4.78-2.72-1.63-2.73-3.87-4.86-6.44-6.4-3.37-2.02-7.36-3.02-11.39-3.02s-8.02 1-11.39 3.02c-2.47 1.48-4.64 3.51-6.25 6.08a5.574 5.574 0 0 1-4.97 3.04h-46.94a5.635 5.635 0 0 1-4.78-2.72 18.518 18.518 0 0 0-6.4-6.38c-3.4-2.04-7.41-3.07-11.41-3.07-4.03.03-8.04 1.04-11.42 3.06-2.48 1.48-4.65 3.52-6.26 6.08-1.05 2.05-2.98 3.03-5.22 3.03-16.06 18.06-24.4 55.3-22.42 80.64.51 6.62 1.74 12.3 3.71 16.35 1.51 3.1 3.38 5.08 5.58 5.49 2.81.51 6.58-.86 11.44-4.67 5.57-4.37 13.69-12.77 18.49-18.03 2.36-2.58 4.6-5.29 6.54-8.19a5.585 5.585 0 0 1 4.91-2.93h81.4c1.8.01 3.58.89 4.65 2.51 1.59 2.4 3.37 4.68 5.26 6.85 4.78 5.5 14.59 15.64 20.47 20.12 4.65 3.56 8.29 4.84 11 4.35 2.21-.41 4.08-2.4 5.59-5.49 1.97-4.06 3.2-9.73 3.71-16.36 1.97-25.34-6.36-62.58-22.42-80.64zm-20.42 40.97c3.03 3.03 3.03 7.94 0 10.96-3.02 3.03-7.93 3.03-10.96 0-3.03-3.02-3.03-7.93 0-10.96 3.03-3.03 7.94-3.03 10.96 0zm-17.25-15.48a7.756 7.756 0 0 1 0 10.97 7.756 7.756 0 0 1-10.97 0 7.756 7.756 0 0 1 0-10.97 7.756 7.756 0 0 1 10.97 0zm34.51 0a7.756 7.756 0 0 1 0 10.97 7.744 7.744 0 0 1-10.96 0 7.756 7.756 0 0 1 0-10.97 7.744 7.744 0 0 1 10.96 0zm-17.26-13.81a7.756 7.756 0 0 1 0 10.97c-3.02 3.03-7.93 3.03-10.96 0a7.756 7.756 0 0 1 0-10.97c3.03-3.03 7.94-3.03 10.96 0zm-105.59 1.38h13.47v13.75h13.75v13.47h-13.75v13.75h-13.47v-13.75H334.8v-13.47h13.75v-13.75zm47.34-24.22c-.7-24.53 6.64-30.79 17.35-31.51 3.83-.26 7.79.39 11.92 1.07 7.32 1.22 15.42 2.55 20.92-2.95 2.18-2.17 5.72-2.17 7.89 0a5.589 5.589 0 0 1 0 7.9c-9.53 9.54-20.6 7.71-30.6 6.05-3.48-.57-6.82-1.13-9.39-.95-4.5.3-7.53 4.33-6.95 20.39h19.11c2.35-3.1 5.24-5.6 8.44-7.52 5.16-3.08 11.16-4.63 17.11-4.63 5.95 0 11.94 1.55 17.11 4.63 3.19 1.92 6.08 4.43 8.43 7.52 1.61.08 3.04.85 4.01 2.01 19.06 19.68 29.07 62.18 26.86 90.62-.62 7.96-2.2 15.01-4.8 20.37-3.07 6.31-7.58 10.49-13.61 11.6-5.2.95-11.27-.6-18.15-5.36-6.67-4.62-17.42-15.63-22.95-21.84-1.79-2.02-3.55-4.15-5.2-6.42H367.8a81.24 81.24 0 0 1-5.51 6.78c-5.23 5.85-14.92 15.79-21.17 20.44-7.49 5.57-14.04 7.42-19.61 6.39-6.03-1.11-10.53-5.29-13.6-11.6-2.6-5.35-4.18-12.4-4.8-20.37-2.23-28.59 7.92-71.41 27.17-90.94a5.584 5.584 0 0 1 3.68-1.66c2.36-3.1 5.24-5.61 8.45-7.52 5.18-3.1 11.19-4.65 17.14-4.65 5.98.03 11.99 1.57 17.13 4.66 3.18 1.9 6.05 4.41 8.4 7.49h10.81zm-22.41-263.93h-42.14c.5 1.2.94 2.44 1.32 3.7l16.42 54.82c1.6 5.35 1.98 10.48 1.44 15.42l-.05.5 7 7.58c3.09 2.8 5.68 5.73 7.77 8.71 1 1.42 1.89 2.86 2.69 4.33h5.55c1.84 0 3.39-1.68 3.39-3.73v-87.6c0-2.05-1.52-3.73-3.39-3.73zm106.96-50.16-27.98 21.1c-1.99 1.5-4.47 2.25-4.47 4.91v141.04c0 2.66 2.54 3.34 4.47 4.91l27.98 22.61c1.93 1.55 4.47-2.21 4.47-4.92V66.49c0-2.7-2.49-6.4-4.47-4.91zM372.75 232.15h19.28c2.29 0 4.41-.96 5.97-2.52 1.66-1.63 2.7-3.96 2.7-6.52V96.55c0-4.81-3.75-9.03-8.67-9.03h-62.94a25.3 25.3 0 0 1 1.14 8.26h61.8c.43 0 1.15.27 1.15.77v126.56c0 .14-.08.29-.19.4-.24.25-.57.39-.96.39H373.1c.2 2.74.07 5.52-.35 8.25zm43.53-185.6c-7.98 1.63-16.11 3-24.33 4.12-34.02 4.66-69.77 5.12-104.1 2.32-7.27-4.35-14.47-8.27-21.59-11.78 40.26 5.04 83.61 5.62 124.42.02 42.95-5.88 83.02-18.6 113.5-40.14A4.78 4.78 0 0 1 512 4.78v345.7c-.03 1.3-.57 2.6-1.61 3.54-1.95 1.75-4.96 1.58-6.71-.37-22.31-24.92-49.98-43.62-80.79-53.86-20.1-6.68-41.58-9.78-63.79-8.66l-.81-5.36c-.23-1.41-.46-2.77-.71-4.08 20.28-1.13 40 1.07 58.7 6.17V46.55zM223.35 220.59c-4.11 1.24-6.46 5.59-5.23 9.71a7.802 7.802 0 0 0 9.7 5.23c4.13-1.24 6.47-5.58 5.24-9.7-1.24-4.13-5.58-6.46-9.71-5.24zM258.76 210a7.777 7.777 0 0 0-5.23 9.7c1.23 4.12 5.58 6.46 9.7 5.23 4.12-1.24 6.47-5.57 5.23-9.7a7.782 7.782 0 0 0-9.7-5.23zm48.56-13.5c-2.51 2.15-4.97 4.27-7.15 6.51-4.42 4.55-6.39 10.07-8.28 15.35-1.72 4.81-3.35 9.36-6.44 10.28l-40.96 12.26c-5 1.5-13.79 4.64-19.62 5.38-7.4.93-14.77-.57-21.09-3.98-7.91-4.26-14.21-11.51-16.99-20.72l-17.17-57.34c-.48-1.62-.25-3.31.5-4.71 1.44-2.66 3.69-3 6.22-3.76l101.82-30.48 12.83-3.84 3.86-1.16c3.22-.96 6.74.9 7.69 4.13l15.68 52.38.74 2.44c1.89 6.32-7.1 13.33-11.64 17.26zm-184.99-5.93-97.91 29.31c-3.4-29.47 2.24-60.12 15.32-87.23 13.88-28.74 36.1-53.5 64.77-68.63 48-25.32 114.4-23.64 190.52 31.34l-20.81 17.67c-.2.22-.39.46-.55.7l-99.88 29.91c-3.15.94-6.3 1.89-9.46 2.83l-32.9 9.85c-9.76 2.92-15.38 13.29-12.45 23.06l3.35 11.19zm20.23 24.48-6.61-22.1-.11-.35-5.02-16.75c-.97-3.23.9-6.73 4.14-7.69l22.08-6.61c-.11 2.05.13 4.15.74 6.22l17.28 57.71c3.81 12.3 12.27 22 22.87 27.71.67.36 1.35.71 2.04 1.04l-8.24 2.46c-9.25 2.77-18.82 1.5-26.75-2.77-15.55-8.38-17.89-23.74-22.42-38.87zm-16.69-12.65 7.86 26.24-99.12 29.68c-23.08 6.34-28.35-17.23-13.34-24.25 1.61-.75 3.31-1.4 5.12-1.88l99.48-29.79z"/></svg>