<svg xmlns="http://www.w3.org/2000/svg" shape-rendering="geometricPrecision" text-rendering="geometricPrecision" image-rendering="optimizeQuality" fill-rule="evenodd" clip-rule="evenodd" viewBox="0 0 512 450.97"><path fill-rule="nonzero" d="M502.45 338.51V13.72c-22.14 14.07-48.35 24.11-76.61 30.73v246.29l.05.02c28.66 9.52 54.73 25.98 76.56 47.75zm-29.06 92.76-.74-27.36-44.95 12.99c-8.12 1.76-16.23 1.75-24.36 0l-42.95-13.13v27.74c1.22 14.41 42.56 18.82 55.25 19.43 10.18.49 50.35-4.8 55.62-13.1 1.15-1.81 1.85-4 2.13-6.57zm18.22-47.05v33.43c.97 0 2.37-.1 2.37 1.32v8.99c0 1.42-1.41 1.31-2.38 1.31v3.15c1.33.24 2.36 1.44 2.36 2.86 0 1.58-1.31 2.9-2.91 2.9h-5.2c-1.58 0-2.9-1.3-2.9-2.9 0-1.42 1.03-2.59 2.37-2.86v-3.15c-.97 0-2.37.11-2.37-1.31v-8.99c0-1.44 1.42-1.32 2.4-1.32v-31.48l-54.72 17.01c-9.91 2.37-19.82 2.52-29.73 0l-60.37-18.03-5.47-1.64c-6.81-2.78-5.1-9.3 1.22-10.81l68.31-25.22c7.05-2 14.07-2.32 21.13 0l67.07 24.98c7.29 1.78 8.73 8.51.24 11.3l-1.42.46zm-223.86-21.11c11.29.42 22.7-.16 32.87-1.31 13.61-1.54 25.87-4.66 35.04-9.4 7.03-3.64 12.4-8.31 15.43-14.03 3.22-6.1 3.75-13.08.85-20.9-1.95-5.28-5.54-10.97-10.98-17.03-1.56-17.57-6.43-35.76-11.26-52.71l12.03-4.39c6.34-2.12 11.03-7.15 12.14-13.8.49-2.92.27-6.1-.77-9.3-1.41-4.4-4.38-8.92-9.12-13.01l-14.86-16.09c2.48-4.45 3.47-9.47 1.69-15.44l-16.42-54.82c-2.05-6.89-7.96-11.94-15.03-13.01l9.62-8.14c2.6-2.2 2.93-6.1.73-8.7l-1-.94c-83.24-62.9-156.73-65.07-209.94-37-31.09 16.41-55.16 43.17-70.12 74.18-14.55 30.14-20.55 64.36-16.12 97.06-4.01 2.44-7.21 5.9-9.37 9.91-9.78 18.24 4.47 39.53 24.53 38.33 18.24 34.99 52.11 63.95 104.64 77.86-.24 3.41-.57 6.78-.98 10.11-1.9 15.55-5.55 30.14-10.72 43.85-1.2 3.19.42 6.75 3.61 7.95 3.19 1.21 6.75-.41 7.95-3.6 5.53-14.66 9.43-30.2 11.45-46.7 2.01-16.44 2.16-33.93.25-52.56-.35-3.38-3.38-5.86-6.77-5.51-3.39.34-5.86 3.38-5.52 6.77.96 9.3 1.36 18.32 1.25 27.06-45.78-12.77-75.87-37.91-92.69-68.26l97.29-29.12c4.22 10.72 12.09 19.2 21.7 24.37 10.7 5.76 23.62 7.48 36.13 3.73 16.81-5.03 33.63-10.06 50.44-15.1l43.27-12.95c9.11-2.72 11.76-10.12 14.56-17.96 1.45-4.07 2.98-8.32 5.49-10.9 1.76-1.81 4.02-3.76 6.32-5.74 1.95-1.67 3.93-3.38 5.81-5.14l14.51 15.66c3.07 2.58 4.9 5.22 5.66 7.61 1.13 3.52.05 6.42-3.48 7.62-10.44 3.42-21.59 7.86-32.02 11.66l4.21 11.61 8-2.92c2.05 7.47 4.22 14.75 5.84 22.34-3.15 2.8-6.37 4.92-9.68 6.28-3.89 1.6-8.03 2.17-12.36 1.63-3.39-.41-6.48 2.01-6.89 5.39-.41 3.39 2 6.48 5.39 6.9 6.45.8 12.64-.08 18.55-2.51 2.71-1.11 5.34-2.56 7.9-4.31l.51 2.98c.68 4.16 1.17 8.45 1.49 12.83a6.17 6.17 0 0 0 1.87 3.98c4.99 5.32 8.13 10.07 9.67 14.24 1.58 4.28 1.39 7.91-.18 10.9-1.78 3.35-5.33 6.31-10.17 8.81-7.77 4.02-18.55 6.71-30.73 8.09-11.64 1.31-25.03 1.85-37.78.84-10.37-.82-20.27-2.66-28.31-5.9-10.92-4.4-21.16-22.07-29.16-31.77-5.23-6.34-11.43-12.71-17.14-14.89-3.19-1.21-6.77.39-7.98 3.58-1.21 3.19.39 6.77 3.58 7.98 3.05 1.43 6.66 4.93 10.06 8.81 11.11 12.71 20.03 31.3 36.05 37.75 7.99 3.23 17.31 5.23 27.04 6.31-.3 1.13-.31 2.79-.37 3.97-.35 6.27-.56 16-.29 25.07.24 7.92.86 15.4 2.05 19.87.88 3.3 4.28 5.26 7.57 4.38 3.29-.88 5.25-4.27 4.38-7.57-.95-3.55-1.46-10.03-1.67-17.02-.25-8.47-.06-17.68.28-23.72.07-1.27.3-2.87.18-4.1zm-44.39-142.53c-4.11 1.24-6.45 5.59-5.22 9.71a7.797 7.797 0 0 0 9.7 5.23 7.802 7.802 0 0 0 5.23-9.7c-1.23-4.13-5.58-6.46-9.71-5.24zm35.41-10.59c-4.12 1.23-6.46 5.57-5.23 9.7a7.802 7.802 0 0 0 9.7 5.23c4.12-1.24 6.47-5.57 5.23-9.7a7.777 7.777 0 0 0-9.7-5.23zm52.93-17.34c-1.41 1.29-2.91 2.58-4.37 3.84-2.51 2.15-4.97 4.27-7.15 6.51-4.41 4.55-6.39 10.07-8.28 15.35-1.72 4.81-3.35 9.36-6.44 10.28l-41.35 12.38c-7.41 2.22-16.58 5.72-24.52 5.51-5.56-.15-10.98-1.64-15.8-4.23-7.9-4.26-14.21-11.51-16.98-20.72l-17.17-57.34c-.48-1.62-.25-3.31.5-4.71 1.69-3.12 5.98-3.69 9.05-4.61l98.98-29.63 12.83-3.84c4.25-1.27 9.77-3.04 11.55 2.98l15.23 50.85c2.69 9.01.62 11.2-6.08 17.38zm-189.35-2.09-97.91 29.31c-3.4-29.47 2.24-60.12 15.33-87.23 13.87-28.74 36.1-53.49 64.76-68.62 48-25.33 114.4-23.64 190.51 31.33l-20.81 17.67c-.2.23-.39.47-.55.71l-98.56 29.5c-6.03 1.82-12.07 3.62-18.11 5.43l-25.56 7.65c-9.76 2.92-15.38 13.3-12.45 23.06l3.35 11.19zm22.74 32.84c-4.75-15.85-9.51-31.7-14.25-47.56-.97-3.23.9-6.72 4.14-7.69l22.07-6.61c-.1 2.05.13 4.15.75 6.22l17.28 57.71c3.81 12.3 12.27 22 22.86 27.7.68.37 1.35.71 2.05 1.05l-8.24 2.46c-9.25 2.77-18.82 1.5-26.75-2.77-13.86-7.47-16.1-17.79-19.91-30.51zm-19.2-21.01 7.86 26.24-99.12 29.68c-23.07 6.33-28.35-17.23-13.33-24.26 1.6-.75 3.31-1.39 5.11-1.87l99.48-29.79zm290.4-155.85c-7.98 1.64-16.11 3-24.33 4.13-34.02 4.66-69.77 5.12-104.1 2.32-7.27-4.35-14.47-8.27-21.58-11.79 40.25 5.05 83.6 5.63 124.41.03 42.94-5.88 83.01-18.6 113.49-40.14A4.78 4.78 0 0 1 512 4.78v345.68c-.03 1.3-.56 2.61-1.61 3.54-1.95 1.75-4.96 1.58-6.71-.37-22.3-24.92-49.97-43.62-80.78-53.85-20.11-6.68-41.58-9.78-63.8-8.66l-.8-5.36c-.23-1.41-.46-2.77-.71-4.08 20.28-1.14 39.99 1.06 58.7 6.17V46.54zm-42.8 65.2h-42.14c.5 1.2.94 2.43 1.32 3.7l16.42 54.81c1.59 5.35 1.98 10.48 1.44 15.42l-.05.5c4.73 5.13 10.89 10.76 14.77 16.29a46.16 46.16 0 0 1 2.69 4.33h5.55c1.83 0 3.39-1.68 3.39-3.73v-87.59c0-2.05-1.52-3.73-3.39-3.73zm106.95-50.17-27.97 21.11c-1.99 1.5-4.47 2.25-4.47 4.9v141.04c0 2.66 2.53 3.34 4.47 4.9l27.97 22.61c1.93 1.56 4.47-2.21 4.47-4.91V66.49c0-2.7-2.49-6.41-4.47-4.92zM372.76 232.14h19.28c2.28 0 4.4-.96 5.97-2.52 1.65-1.63 2.69-3.96 2.69-6.52V96.55c0-2.56-1.02-4.87-2.67-6.51-1.56-1.55-3.68-2.52-5.99-2.52H329.1c.84 2.69 1.22 5.49 1.14 8.25h61.8c.38 0 .72.14.95.36.12.13.2.29.2.42V223.1c0 .5-.74.79-1.15.79h-18.93c.19 2.74.07 5.52-.35 8.25z"/></svg>