<svg xmlns="http://www.w3.org/2000/svg" shape-rendering="geometricPrecision" text-rendering="geometricPrecision" image-rendering="optimizeQuality" fill-rule="evenodd" clip-rule="evenodd" viewBox="0 0 512 448.24"><path fill-rule="nonzero" d="M118.68 353.3c-.3-2.88 1.81-5.46 4.68-5.76 2.88-.29 5.47 1.81 5.77 4.69 1.74 16.87 1.59 32.72-.23 47.61-1.82 14.93-5.35 29.01-10.36 42.29a5.25 5.25 0 0 1-6.76 3.06c-2.71-1.02-4.09-4.06-3.06-6.76 4.69-12.46 8.01-25.72 9.74-39.87.38-3.11.68-6.27.91-9.47-48.14-12.68-79.04-39.3-95.47-71.43-4.23.24-8.39-.73-12.01-2.69-4.99-2.69-9.01-7.26-10.84-13.03l-.21-.7c-1.64-5.82-.8-11.82 1.88-16.81 1.87-3.46 4.63-6.44 8.07-8.56-4.26-29.9 1.13-61.26 14.44-88.83l1.44-2.91-.22-4.56-4.32-88.94 1.66-1.65c26.19-26.16 53.54-46.05 81.88-60.39 28.39-14.37 57.78-23.18 88.01-27.15l5.71-.75 4.28 112.06c7.83 2.54 15.84 5.68 23.99 9.46L228.12.87l4.94-.27C259.64-.92 286.24.42 312.81 5c26.56 4.58 53.19 12.45 79.82 23.99l3.19 1.39v209.44l-7.76-4.16c-16.57-8.91-33.84-16.72-51.75-23.46-15.68-5.9-31.86-10.99-48.5-15.3l10.25 34.23c1.51 5.05.65 9.35-1.48 13.19l14.16 15.33c4.27 3.68 6.95 7.74 8.22 11.69.92 2.86 1.12 5.68.69 8.27-.43 2.58-1.49 4.94-3.07 6.94l-.3.39c-1.85 2.19-4.34 3.89-7.38 4.91l-11.26 4.1.52 1.85c2.11 7.41 4.18 14.65 5.72 22.4l.09.67c1.09 4.19 1.96 8.39 2.64 12.56.58 3.61 1.02 7.18 1.32 10.7 4.96 5.5 8.21 10.66 9.98 15.43l.12.37c2.45 6.87 1.94 12.98-.88 18.32-2.71 5.12-7.53 9.31-13.85 12.58-8.27 4.27-19.34 7.09-31.67 8.49-9.33 1.05-19.84 1.58-30.19 1.17.09.45.12.92.08 1.39-.41 5.13-.7 15.15-.43 24.23.19 6.37.66 12.28 1.52 15.52.75 2.8-.92 5.69-3.72 6.44-2.8.74-5.69-.92-6.44-3.72-1.08-4.04-1.63-10.81-1.85-17.95-.29-9.62 0-20.06.43-25.34.03-.46.13-.9.27-1.31-8.95-.96-17.53-2.79-24.86-5.74-10.02-4.04-15.95-12.19-21-19.14l-3.23-4.37c-4.54-6.12-12.47-16.79-17.61-18.74a5.272 5.272 0 0 1-3.04-6.79c1.04-2.71 4.08-4.08 6.79-3.04 7.98 3.04 17.08 15.29 22.3 22.31l3.3 4.46c4.23 5.83 9.21 12.66 16.39 15.56 7.34 2.95 16.36 4.63 25.79 5.38 11.61.91 23.77.42 34.36-.77 11.09-1.26 20.89-3.71 28-7.39 4.44-2.29 7.72-5.02 9.37-8.13 1.44-2.74 1.66-6.02.31-9.85l-.13-.32c-1.42-3.83-4.28-8.17-8.85-13.04a5.29 5.29 0 0 1-1.6-3.41c-.29-3.95-.74-7.84-1.35-11.65l-.57-3.24c-2.44 1.71-4.95 3.11-7.54 4.17-5.3 2.19-10.86 2.98-16.66 2.25-2.88-.35-4.93-2.98-4.58-5.86.34-2.88 2.98-4.93 5.86-4.58 4 .49 7.8-.04 11.39-1.51 3.09-1.27 6.1-3.26 9.03-5.9-1.44-6.79-3.26-13.19-5.12-19.73l-.31-1.12-7.62 2.78-3.58-9.87c9.46-3.45 19.59-7.49 29.06-10.59 1.12-.38 2.02-.98 2.65-1.72l.16-.18c.44-.59.75-1.31.87-2.07.16-1.02.07-2.17-.32-3.36-.72-2.23-2.41-4.68-5.25-7.08l-13.85-14.96c-1.77 1.68-3.65 3.3-5.5 4.89-2.1 1.8-4.17 3.58-5.81 5.27-2.43 2.5-3.85 6.47-5.2 10.26-2.46 6.86-4.77 13.33-12.52 15.65l-49.61 14.85-.11.04-.11.03-.52.15-34.68 10.39c-11.07 3.31-22.5 1.79-31.98-3.32-8.77-4.73-15.91-12.55-19.55-22.47l-89.76 26.87c15.25 28.15 42.9 51.51 85.31 63.22.11-8.08-.26-16.42-1.14-25.04zm216.17-209.85-13.18-15.32-2.78 16.52c-.34 2.34-3.34 2.65-4.97.46l-20.13-27.94-21.12 14.8v9.95c25.75 3.17 51.05 11.85 75.85 19.07v-29.27L336 143.58c-.12.17-.36.26-.61.21-.21-.05-.4-.17-.54-.34zm.48-7.34 13.18-13.12V98.47c-25.29-7.17-50.57-12.18-75.84-15.42v41.23c6.4-4.49 13-9.52 19.55-13.7.58-.38 1.29-.45 1.98-.26.72.17 1.43.63 1.94 1.29l.02.04c.02.04.06.08.09.13l18 24.95 2.67-15.88c.15-.72.57-1.26 1.15-1.56.57-.29 1.31-.35 2.07-.08l.08.04c.27.09.53.24.77.4.26.18.49.4.71.65l13.63 15.81zm-10.36-37.57c3.12 1.91 5.18 5.4 5.18 8.77 0 4.63-3.76 7.59-8.35 6.66-2.23-.45-4.32-1.77-5.91-3.65-1.58-1.91-2.45-4.17-2.45-6.41 0-1.1.23-2.15.62-3.06.84-1.87 2.49-3.19 4.53-3.61 2.03-.46 4.35.04 6.38 1.3zm-4.55 3.51c-1.81.41-2.67 2.26-1.92 4.25a4.81 4.81 0 0 0 1.92 2.33c1.8 1.13 3.9.65 4.66-.98 1.19-2.72-1.73-6.18-4.66-5.6zm-49.45-25.11c27.46 2.83 54.29 8.02 80.3 16.43 1.54.31 2.75 1.86 2.75 3.39v68.17c0 1.52-1.21 2.59-2.75 2.27-27.03-7.57-54.1-16.64-81.17-20.16 2.89 2.05 5.8 4.17 8.71 6.38l.85.8c1.87 2.21 1.59 5.53-.62 7.41l-10.1 8.54c2.33.14 4.59.79 6.6 1.87 3.55 1.92 6.39 5.2 7.63 9.35l1.14 3.81c19.19 4.72 37.78 10.43 55.7 17.18a438.208 438.208 0 0 1 45.27 19.96V37.26c-24.71-10.43-49.48-17.62-74.24-21.89-24.16-4.18-48.33-5.57-72.46-4.53l-.45 116.54c9.66 5.07 19.52 11.04 29.55 17.98-.31-.53-.5-1.13-.5-1.72V79.11c0-2.51 1.97-2.36 3.79-2.17zm-6.57-33.36c16.47.48 32.88 2.11 49.19 4.96 16.3 2.85 32.71 6.98 49.19 12.45l-3.29 9.95c-15.8-5.24-31.72-9.23-47.71-12.02-15.96-2.8-31.86-4.39-47.66-4.85l.28-10.49zm180.05 95.64c9.38 5.89 17.75 12.46 25.12 19.64 7.5 7.3 13.97 15.24 19.43 23.75l-8.84 5.67c-5.04-7.85-11.01-15.17-17.91-21.9-6.84-6.66-14.64-12.77-23.39-18.28l5.59-8.88zm0-35.47c9.37 5.89 17.74 12.45 25.11 19.63 7.5 7.3 13.98 15.24 19.44 23.76l-8.84 5.67c-5.04-7.86-11.02-15.18-17.92-21.9-6.84-6.66-14.64-12.77-23.38-18.27l5.59-8.89zm-16.81-53.32c28.29 13.84 49.15 32.58 63.06 55.48 14.39 23.68 21.3 51.68 21.3 83.18v171.12l-91.94-114.18V46.73l7.58 3.7zm54.1 60.9c-11.61-19.09-28.54-35.11-51.14-47.55v178.6l70.87 88.01v-141.3c0-29.64-6.41-55.82-19.73-77.76zM52.51 106c19.25-15.51 39.09-27.97 59.4-37.63 20.33-9.65 41.18-16.52 62.47-20.85l2.1 10.28c-20.45 4.16-40.5 10.77-60.08 20.07-19.58 9.31-38.72 21.33-57.31 36.31L52.51 106zm-8 50.55c12.05-14.9 26.92-27.55 44.19-36.66 28.86-15.23 64.33-20.61 104.34-10.23l-3.7-97.01c-27.06 4.14-53.41 12.39-78.94 25.31-26.77 13.55-52.67 32.27-77.55 56.82l3.44 70.89c2.73-3.15 5.47-6.19 8.22-9.12zm147.88-36.14c-36.59-7.75-64.79-5.45-88.82 4.91-18.69 8.06-35.08 21.07-51.08 38.06-6.98 8.68-12.95 18.18-17.79 28.22-12.07 25.01-17.18 53.33-13.81 80.46l90.36-27.05-3.45-11.53c-1.1-4.02-.51-8.17 1.34-11.61 1.86-3.45 5-6.22 8.98-7.52l.68-.21 34.7-10.38.2-.06.11-.04 93.2-27.91c.23-.56.56-1.09.99-1.57l19.18-16.29c-26.35-19.08-51.43-31.14-74.79-37.48zm9.2 151.13c-3.74 1.13-5.87 5.07-4.75 8.8 1.13 3.75 5.06 5.87 8.8 4.75a7.065 7.065 0 0 0 4.75-8.8c-1.12-3.74-5.06-5.86-8.8-4.75zm32.12-9.61c-3.74 1.12-5.87 5.06-4.74 8.8a7.05 7.05 0 0 0 8.8 4.74 7.067 7.067 0 1 0-4.06-13.54zm-77.58-49.45a6.62 6.62 0 0 0-3.76 3.17 6.673 6.673 0 0 0-.53 5.07l15.55 51.95c2.6 8.66 8.52 15.49 15.94 19.49 7.3 3.93 16.07 5.16 24.6 2.74l.06-.01.41-.12.11-.04 49.72-14.88c3.31-.99 4.88-5.35 6.53-9.98 1.67-4.68 3.43-9.59 7.27-13.55 1.94-1.99 4.15-3.9 6.41-5.84 6.11-5.25 12.65-10.87 10.89-16.76l-14.89-49.73a6.608 6.608 0 0 0-3.21-3.92 6.751 6.751 0 0 0-5.08-.54l-109.64 32.83-.11.04-.11.03-.08.02-.08.03zm27.28 89.77c-1.5-.61-2.97-1.29-4.39-2.06-9.48-5.11-17.04-13.84-20.36-24.93l-15.56-51.94c-.68-2.28-.81-4.59-.48-6.8l-21.6 6.47a6.56 6.56 0 0 0-3.85 3.19 6.673 6.673 0 0 0-.53 5.07l4.61 15.4.03.11 10.34 34.55.04.11.53 1.78c2.59 8.67 8.51 15.5 15.94 19.5s16.39 5.2 25.07 2.6l10.21-3.05zm-69.55-48.52-95.22 28.51c-3.5 1.06-6.27 3.48-7.89 6.5-1.64 3.05-2.13 6.72-1.07 10.24l.02.07c1.06 3.49 3.48 6.27 6.5 7.89 3.04 1.65 6.71 2.14 10.25 1.09l95.13-28.48-7.72-25.82z"/></svg>