<svg id="Layer_1" data-name="Layer 1" xmlns="http://www.w3.org/2000/svg" viewBox="0 0 119.98 122.88"><defs><style>.cls-1{fill-rule:evenodd;}</style></defs><title>virtual-reality</title><path class="cls-1" d="M37.13,45h5.5a1.46,1.46,0,0,1,1.46,1.46V51.6a1.46,1.46,0,0,1-1.46,1.45h-5.5a1.46,1.46,0,0,1-1.46-1.45V46.48A1.46,1.46,0,0,1,37.13,45Zm44.14,9.06L84,58.41H79.7l-2-3.74h-1.1v3.74h-3.9V47.13h6.12a5.15,5.15,0,0,1,3.39,1,3.23,3.23,0,0,1,1.18,2.61,3.4,3.4,0,0,1-1.16,2.8,3.68,3.68,0,0,1-1,.56Zm-3.12-2a1.64,1.64,0,0,0,.95-.23,1.21,1.21,0,0,0,0-1.62,1.56,1.56,0,0,0-.95-.24H76.61v2.09Zm-6.48-4.92L67.85,58.41H63.12L59.31,47.13h4.15L65,53.3l.54,2.2.52-2.17,1.59-6.2ZM25,22.17C41.21,2.08,60-8.85,74,9c13.66.72,20.72,18.33,15.89,31.09.1.08.2.18.3.27A5,5,0,0,1,91.75,44c0,.11,0,.23,0,.37l-.62,7.83a5.94,5.94,0,0,1,1.11,3.57c-.09.84-1,1.7-1.59,2.54l-.25,3.22a5.88,5.88,0,0,1-1.69,3.72A5.16,5.16,0,0,1,85,66.75H83.73c-.7,5.58-3.72,9-7.55,12.74,3.73,13.51,13.18,15.29,22.07,17,11.25,2.12,21.73,4.1,21.73,24.63a1.79,1.79,0,0,1-1.78,1.79H1.79A1.79,1.79,0,0,1,0,121.09c0-20.75,11.12-22.31,23-24,9.27-1.3,19.05-2.68,22.77-15.76l-.07-.06-.52-.48C40.81,77,37,73.55,35.78,66.75H34.32A5.2,5.2,0,0,1,30.6,65.2a6,6,0,0,1-1.68-3.72l-.24-3.06A7.61,7.61,0,0,1,27,55a5.19,5.19,0,0,1,1.14-3.16l-.59-7.48c0-.14,0-.26,0-.38a5,5,0,0,1,1.54-3.56,5.61,5.61,0,0,1,3-1.53c-.18-7.1-.93-14.8-7.15-16.68ZM81.54,38.78a19.47,19.47,0,0,0-1.7-6.12,16.14,16.14,0,0,0-7.28-7.23C66.1,30.38,61.54,31,57,31.51c-3.75.46-7.5.93-12.46,4.36a13.4,13.4,0,0,0-3.11,2.91Zm-1.17,28H63a.87.87,0,0,1-.11.09,5,5,0,0,1-1.39.8,4.26,4.26,0,0,1-1.53.27,4.8,4.8,0,0,1-1.5-.29,4.55,4.55,0,0,1-1.34-.79h0L57,66.75H39.15c1.19,5.4,4.47,8.35,8.15,11.61l.54.47a22.62,22.62,0,0,0,7.1,4.44,19.23,19.23,0,0,0,7.54.57,20.66,20.66,0,0,0,3-.57,20.25,20.25,0,0,0,6.63-4.4l.44-.43c3.82-3.68,7-6.73,7.82-11.69Zm6-24.52H32.81a2.15,2.15,0,0,0-1.31.59,1.59,1.59,0,0,0-.5,1.11v.12l1.35,17.15A2.49,2.49,0,0,0,33,62.76a1.78,1.78,0,0,0,1.28.54H85a1.78,1.78,0,0,0,1.27-.54,2.47,2.47,0,0,0,.69-1.55l1.35-17.15V44a1.59,1.59,0,0,0-.5-1.11,2.1,2.1,0,0,0-1.31-.6ZM51.16,70.63H67.77c1.55-.06,1.94.75,1.43,1.88-4.45,10-19.07,5.08-19.27-.14,0-.77.37-1.68,1.23-1.74Zm2,3.55-.75-1.94H66.87l-.65,1.94ZM39.31,96.26a40.28,40.28,0,0,0,21.32,5.16,38.71,38.71,0,0,0,21.12-6.91c-3.35-2.39-6.22-5.94-8.19-11.46a20,20,0,0,1-10.67,4.34,21.42,21.42,0,0,1-13.55-2.7c-.27-.16-.52-.32-.78-.5-2.1,6.11-5.37,9.76-9.25,12.07Zm45.78.21A42,42,0,0,1,60.74,105a43.52,43.52,0,0,1-25.29-6.9,57.57,57.57,0,0,1-12,2.57C13.55,102,4.25,103.35,3.61,119.3H116.38C115.77,103.4,107,101.74,97.6,100c-4.24-.8-8.58-1.62-12.51-3.5ZM39.88,46.89A2.15,2.15,0,1,1,37.73,49a2.15,2.15,0,0,1,2.15-2.15Z"/></svg>