<svg id="Layer_1" data-name="Layer 1" xmlns="http://www.w3.org/2000/svg" viewBox="0 0 115.28 122.88"><defs><style>.cls-1{fill-rule:evenodd;}</style></defs><title>avif-file</title><path class="cls-1" d="M21,57H90.25V37.34H69.59A10.85,10.85,0,0,1,63,34.74a9.41,9.41,0,0,1-2.3-6.17V7.64H8.15a.59.59,0,0,0-.42.18.45.45,0,0,0-.18.42V114.69a.67.67,0,0,0,.18.41.51.51,0,0,0,.42.19h81.5c.19,0,.18-.1.27-.19s.33-.27.33-.41V103.53H21A7.58,7.58,0,0,1,13.47,96V64.55A7.58,7.58,0,0,1,21,57ZM34.23,91.69H26.56L32.45,69H43.67l5.89,22.7H41.89l-.83-3.6h-6l-.83,3.6ZM37.86,76l-1.49,6.36h3.34L38.26,76Zm25.46-7H71l-5.63,22.7H54.75L49.12,69h7.66l3.09,14.42h.33L63.32,69Zm10.57,22.7V69h7.27v22.7Zm25.43-8.43H93.14v8.43H85.88V69h14.89l-.91,5.81H93.14v3h6.18v5.41ZM97.79,57h9.93a7.58,7.58,0,0,1,7.56,7.55V96a7.59,7.59,0,0,1-7.56,7.56H97.79v13.54A5.82,5.82,0,0,1,92,122.88H5.81A5.8,5.8,0,0,1,0,117.07V5.85a5.74,5.74,0,0,1,1.7-4.1A5.83,5.83,0,0,1,5.81.05H64.52a1.21,1.21,0,0,1,.42,0,2.72,2.72,0,0,1,1.75.69h.09A.77.77,0,0,1,67,.88L97,31.24a2.86,2.86,0,0,1,.87,2,2.91,2.91,0,0,1-.09.65V57ZM67.52,28v-19l21.42,21.7H70.19a2.81,2.81,0,0,1-1.89-.78A2.72,2.72,0,0,1,67.52,28Z"/></svg>