<svg id="Layer_1" data-name="Layer 1" xmlns="http://www.w3.org/2000/svg" viewBox="0 0 120.64 122.88"><defs><style>.cls-1,.cls-2{fill-rule:evenodd;}.cls-2{fill:red;}.cls-3{fill:#fff;}</style></defs><title>avif</title><path class="cls-1" d="M101.1,37.31H80.43a8.59,8.59,0,0,1-8.92-8.78V7.6H19a.58.58,0,0,0-.41.18.45.45,0,0,0-.19.42V114.68a.65.65,0,0,0,.19.42.48.48,0,0,0,.41.18H100.5c.19,0,.17-.09.27-.18s.33-.28.33-.42V37.31Zm7.54,79.76a5.84,5.84,0,0,1-5.81,5.81H16.62a5.84,5.84,0,0,1-5.81-5.81V5.81A5.84,5.84,0,0,1,16.62,0H75.36a4.32,4.32,0,0,1,2.49.83l30,30.37a2.86,2.86,0,0,1,.87,2,3.52,3.52,0,0,1-.09.64v83.24ZM78.52,27.93,78.05,9.71,99.33,31.25,81,30.44a2.42,2.42,0,0,1-2.51-2.51Z"/><path class="cls-2" d="M6.77,46.68h107.1a6.79,6.79,0,0,1,6.77,6.77V98.94a6.79,6.79,0,0,1-6.77,6.76H6.77A6.79,6.79,0,0,1,0,98.94V53.45a6.78,6.78,0,0,1,6.77-6.77Z"/><path class="cls-3" d="M23,90.78H13.15L20.71,61.6H35.14l7.57,29.18H32.85l-1.07-4.62h-7.7L23,90.78Zm4.67-20.22-1.91,8.17h4.29l-1.86-8.17Zm32.38-9H69.9L62.67,90.78H49L41.8,61.6h9.85l4,18.54H56l4-18.54ZM73.29,90.78V61.6h9.34V90.78ZM105.62,80H97.68V90.78H88.35V61.6h19.14l-1.17,7.47H97.68V73h7.94v7Z"/></svg>