<svg id="Layer_1" data-name="Layer 1" xmlns="http://www.w3.org/2000/svg" viewBox="0 0 111.56 122.88"><defs><style>.cls-1{fill-rule:evenodd;}</style></defs><title>case-study</title><path class="cls-1" d="M79.86,65.67a25,25,0,0,1,20.89,38.62l10.81,11.78-7.46,6.81L93.68,111.42A25,25,0,1,1,79.86,65.67ZM19,65.93a2.75,2.75,0,0,1-2.6-2.84A2.71,2.71,0,0,1,19,60.25H52.61a2.76,2.76,0,0,1,2.6,2.84,2.71,2.71,0,0,1-2.6,2.84ZM83.36,17.27h9.32a6.69,6.69,0,0,1,6.66,6.65v30.9c-.2,2.09-5.31,2.11-5.75,0V23.92a.93.93,0,0,0-.27-.67.91.91,0,0,0-.67-.27H83.32V54.82c-.49,1.89-4.75,2.18-5.71,0V6.66A1,1,0,0,0,77.34,6a.93.93,0,0,0-.67-.27h-70A.93.93,0,0,0,6,6a1,1,0,0,0-.27.68V85.79a1,1,0,0,0,.27.68.93.93,0,0,0,.67.27H44.74c2.88.29,3,5.27,0,5.71H21.66v10.61a.92.92,0,0,0,.94.94H44.74c2.09.24,2.76,5,0,5.71H22.64a6.54,6.54,0,0,1-4.7-2,6.63,6.63,0,0,1-2-4.7V92.45H6.66A6.69,6.69,0,0,1,0,85.79V6.66A6.54,6.54,0,0,1,2,2a6.61,6.61,0,0,1,4.7-2h70a6.54,6.54,0,0,1,4.7,2,6.65,6.65,0,0,1,2,4.7V17.27ZM18.93,26.44a2.76,2.76,0,0,1-2.6-2.84,2.71,2.71,0,0,1,2.6-2.84H63.86a2.74,2.74,0,0,1,2.6,2.84,2.71,2.71,0,0,1-2.6,2.84Zm0,19.74a2.75,2.75,0,0,1-2.6-2.83,2.71,2.71,0,0,1,2.6-2.84H63.86a2.74,2.74,0,0,1,2.6,2.84,2.7,2.7,0,0,1-2.6,2.83Zm56.68,43.1c-.41-.65-1.19-1.55-1.19-2.32a1.26,1.26,0,0,1,.84-1.13c0-.65-.07-1.31-.07-2,0-.39,0-.78,0-1.16a2.5,2.5,0,0,1,.13-.59,4.1,4.1,0,0,1,1.85-2.34,4.6,4.6,0,0,1,1-.48c.63-.23.33-1.24,1-1.25a9.16,9.16,0,0,1,5.35,2.51,3.78,3.78,0,0,1,1.06,2.54l-.06,2.85a.93.93,0,0,1,.68.59c.22.89-.71,2-1.14,2.73s-1.93,2.46-1.93,2.48a.58.58,0,0,0,.13.33c2.38,3.26,9.35.74,9.35,7.23H68c0-6.49,7-4,9.35-7.23a.72.72,0,0,0,.17-.34s-1.76-2.2-1.92-2.45Zm4.27-18.4A19.86,19.86,0,1,1,60,90.74,19.86,19.86,0,0,1,79.88,70.88Z"/></svg>