<svg id="Layer_1" data-name="Layer 1" xmlns="http://www.w3.org/2000/svg" viewBox="0 0 111.87 122.88"><defs><style>.cls-1{fill-rule:evenodd;}</style></defs><title>cloud-file</title><path class="cls-1" d="M56.75,113.57V75.07a9.34,9.34,0,0,1,9.31-9.31h36.5a9.34,9.34,0,0,1,9.31,9.31v38.5a9.34,9.34,0,0,1-9.31,9.31H66.06a9.34,9.34,0,0,1-9.31-9.31Zm2.74-102.1L79.08,29.82H59.49V11.47ZM20.72,69.38a2.12,2.12,0,0,0-2,2.21,2.08,2.08,0,0,0,2,2.21H45.3V69.38Zm0,15.83a2.12,2.12,0,0,0-2,2.21,2.08,2.08,0,0,0,2,2.21H45.3V85.21Zm0-47.5a2.12,2.12,0,0,0-2,2.21,2.09,2.09,0,0,0,2,2.21H43.45a2.12,2.12,0,0,0,2-2.21,2.1,2.1,0,0,0-2-2.21Zm0-15.83a2.12,2.12,0,0,0-2,2.21,2.08,2.08,0,0,0,2,2.21h12.5a2.12,2.12,0,0,0,2-2.21,2.1,2.1,0,0,0-2-2.21Zm0,31.67a2.12,2.12,0,0,0-2,2.21,2.09,2.09,0,0,0,2,2.21H59.16a2.13,2.13,0,0,0,2-2.21,2.09,2.09,0,0,0-2-2.21ZM90,32.45a3.26,3.26,0,0,0-2.37-3.14L58.74,1.2A3.21,3.21,0,0,0,56.23,0H5.87A5.86,5.86,0,0,0,0,5.86V106.25a5.84,5.84,0,0,0,1.72,4.15,5.91,5.91,0,0,0,4.15,1.71H45.39v-6.55H6.55v-99H52.94V33.08a3.29,3.29,0,0,0,3.29,3.29h27.2V57.82H90V32.45ZM93.5,89.06a7.45,7.45,0,0,1,1.33-.1,6.79,6.79,0,0,1,5.08,2.21,7.75,7.75,0,0,1,.84,1.08,9.12,9.12,0,0,1,1.32,5,8.27,8.27,0,0,1-1.46,4.78,7.75,7.75,0,0,1-2.4,2.06,12.39,12.39,0,0,1-3.24,1.2l-.23,0H72.92a8.07,8.07,0,0,1-2-.52,6.88,6.88,0,0,1-1.69-1A7.56,7.56,0,0,1,68,102.45a7.71,7.71,0,0,1-1.44-4.4,6.76,6.76,0,0,1,1.53-4.39,7.21,7.21,0,0,1,1.21-1.12,7.84,7.84,0,0,1,1.84-1,11.7,11.7,0,0,1,1.52-.46,10.05,10.05,0,0,1,3.58-5.58,13,13,0,0,1,6.1-2.11,13.42,13.42,0,0,1,6.41,1,10,10,0,0,1,4.76,4.67Z"/></svg>