<svg id="Layer_1" data-name="Layer 1" xmlns="http://www.w3.org/2000/svg" viewBox="0 0 108.81 122.88"><defs><style>.cls-1{fill-rule:evenodd;}</style></defs><title>deleted-files</title><path class="cls-1" d="M62.72,69.75H99.84a9,9,0,0,1,9,9V113.9a9,9,0,0,1-9,9H62.72a9,9,0,0,1-9-9V78.72a9,9,0,0,1,9-9ZM84.46,28.19a3.15,3.15,0,0,1,2.29,3v5.29H94.6a6.82,6.82,0,0,1,4.88,2,6.91,6.91,0,0,1,2,4.88V60.21h-6V43.42a1,1,0,0,0-.28-.7,1,1,0,0,0-.71-.28H86.75V60.2H80.44V35H54.21A3.17,3.17,0,0,1,51,31.83V6.29H6.32v95.48H43.76v6.31H16.37V116a1,1,0,0,0,.28.7,1,1,0,0,0,.7.28H43.74v5.93H17.39A7,7,0,0,1,10.47,116v-7.88H5.66a5.66,5.66,0,0,1-4-1.65,5.6,5.6,0,0,1-1.66-4V5.65A5.65,5.65,0,0,1,5.66,0H54.21a3.09,3.09,0,0,1,2.42,1.16l27.83,27ZM20,51.62A2.05,2.05,0,0,0,18,53.76,2,2,0,0,0,20,55.89H57A2.05,2.05,0,0,0,59,53.76,2,2,0,0,0,57,51.62Zm0,15.27A2,2,0,0,0,18.06,69,2,2,0,0,0,20,71.15h23.7V66.89Zm0,15.26a2,2,0,0,0-1.92,2.13A2,2,0,0,0,20,86.41h23.7V82.15Zm0-45.79A2,2,0,0,0,18,38.49,2,2,0,0,0,20,40.62H41.89a2,2,0,0,0,1.91-2.13,2,2,0,0,0-1.91-2.13ZM20,21.1a2,2,0,0,0-1.92,2.13A2,2,0,0,0,20,25.36H32a2,2,0,0,0,1.91-2.13A2,2,0,0,0,32,21.1Zm37.37-10L76.24,28.69H57.35V11.06ZM71,90.18H91.69a2.8,2.8,0,0,1,.5,0,1.55,1.55,0,0,1,.71.39,1.35,1.35,0,0,1,.39,1.18L91.53,110h0v.1h0a1.42,1.42,0,0,1-.05.22h0a1.33,1.33,0,0,1-.11.24,1.41,1.41,0,0,1-1.25.77H72.56a1,1,0,0,1-.31,0,1,1,0,0,1-.29-.11h0a1.57,1.57,0,0,1-.76-1.21L69.45,91.82a1.86,1.86,0,0,1,0-.41,1.31,1.31,0,0,1,.4-.81,1.47,1.47,0,0,1,.75-.39,2.17,2.17,0,0,1,.44,0Zm-1.59-6.76h8v-.69h0a.15.15,0,0,1,0-.07,1.45,1.45,0,0,1,.43-1h0a1.52,1.52,0,0,1,1-.44H83.8a1.59,1.59,0,0,1,1,.44,1.49,1.49,0,0,1,.43,1h0v.69h8a1.22,1.22,0,0,1,.73.34h0a1.19,1.19,0,0,1,.34.81h0v2.23a.64.64,0,0,1-.64.64H68.91a.63.63,0,0,1-.64-.64h0V84.59h0v-.07h0a1.17,1.17,0,0,1,1.15-1.08h0Z"/></svg>