<svg id="Layer_1" data-name="Layer 1" xmlns="http://www.w3.org/2000/svg" viewBox="0 0 112.07 122.88"><defs><style>.cls-1{fill-rule:evenodd;}</style></defs><title>deleted-file</title><path class="cls-1" d="M65.62,65.94H103a9.07,9.07,0,0,1,9,9v38.86a9.08,9.08,0,0,1-9,9H65.62a9.07,9.07,0,0,1-9-9V75a9.07,9.07,0,0,1,9-9ZM59.5,11.47,79.1,29.83H59.5V11.47ZM20.73,69.39a2.12,2.12,0,0,0-2,2.21,2.09,2.09,0,0,0,2,2.21H45.31V69.39Zm.67,15.83a2.13,2.13,0,0,0-2,2.21,2.09,2.09,0,0,0,2,2.21H46V85.22Zm-.7-47.5a2.13,2.13,0,0,0-2,2.21,2.09,2.09,0,0,0,2,2.21H43.46a2.12,2.12,0,0,0,2-2.21,2.09,2.09,0,0,0-2-2.21Zm0-15.83a2.12,2.12,0,0,0-2,2.21,2.09,2.09,0,0,0,2,2.2h12.5a2.11,2.11,0,0,0,2-2.2,2.09,2.09,0,0,0-2-2.21Zm0,31.67a2.13,2.13,0,0,0-2,2.21,2.1,2.1,0,0,0,2,2.21H59.17a2.12,2.12,0,0,0,2-2.21,2.08,2.08,0,0,0-2-2.21H20.7ZM90,32.46a3.27,3.27,0,0,0-2.38-3.15L58.75,1.2A3.23,3.23,0,0,0,56.23,0H5.87A5.86,5.86,0,0,0,0,5.86v100.4a5.87,5.87,0,0,0,5.87,5.87H45.39v-6.55H6.55V6.52H52.94V33.09a3.29,3.29,0,0,0,3.29,3.29H83.45V57.82H90V32.46ZM72.39,81h8.08v-.69h0v-.07a1.51,1.51,0,0,1,.44-1h0a1.5,1.5,0,0,1,1-.44h4.91a1.51,1.51,0,0,1,1,.44,1.47,1.47,0,0,1,.43,1h0V81h8.07a1.22,1.22,0,0,1,.73.34h0a1.16,1.16,0,0,1,.34.82h0v2.25a.65.65,0,0,1-.64.65H71.86a.65.65,0,0,1-.65-.65V82.21h0v-.07h0A1.18,1.18,0,0,1,72.37,81h0ZM74,87.84H94.81a2.07,2.07,0,0,1,.5,0,1.52,1.52,0,0,1,.72.38,1.37,1.37,0,0,1,.41.84,2.17,2.17,0,0,1,0,.36l-1.78,18.36h0v.11h0a1.55,1.55,0,0,1,0,.23h0a1.75,1.75,0,0,1-.11.24,1.39,1.39,0,0,1-1.26.77H75.53a1.44,1.44,0,0,1-.31,0,1.48,1.48,0,0,1-.29-.12h0a1.51,1.51,0,0,1-.77-1.22L72.41,89.5a1.91,1.91,0,0,1,0-.41,1.43,1.43,0,0,1,.41-.83,1.55,1.55,0,0,1,.75-.39,2.17,2.17,0,0,1,.44,0Z"/></svg>