<svg xmlns="http://www.w3.org/2000/svg" shape-rendering="geometricPrecision" text-rendering="geometricPrecision" image-rendering="optimizeQuality" fill-rule="evenodd" clip-rule="evenodd" viewBox="0 0 455.99 512.48"><path fill="#262626" d="M343.16 439.31h-45.03v-61.99h-64v61.99h-46.47l77.72 73.17 77.78-73.17zm83.91-297.72h-78.35c-8.25 0-19.72-4.43-25.13-9.84-5.42-5.43-8.72-15.22-8.72-23.41V28.97H107.71c-.68 0-1.22.33-1.55.69-.56.38-.74.86-.74 1.57v365.91c0 .51.36 1.19.68 1.55.36.53 1.08.68 1.58.68h54.05c-4.31 9.03-7.45 18.71-9.3 28.84h-53.6c-6.1 0-11.51-2.44-15.57-6.46-4.02-3.98-6.43-9.44-6.43-15.54V22.18c0-6.1 2.47-11.52 6.43-15.55C87.32 2.59 92.88.18 98.83.18h230.69c.51-.18 1.01-.18 1.55-.18 2.44 0 4.91 1.04 6.63 2.59h.33c.35.21.53.35.89.68L452.65 118.4c1.94 1.94 3.34 4.56 3.34 7.53 0 .88-.18 1.56-.33 2.48v277.8c0 6.1-2.47 11.56-6.46 15.54-4.03 4.02-9.47 6.46-15.54 6.46h-58.3c-1.84-10.13-4.98-19.81-9.29-28.84h58.68c.69 0 .66-.36 1.04-.68.54-.36 1.25-1.07 1.25-1.55 0-97.78.03-157.77.03-255.55zm-86.22-35.54V33.88l81.28 82.32h-71.15c-2.79 0-5.25-1.22-7.18-2.97-1.76-1.73-2.95-4.36-2.95-7.18z"/><path fill="red" d="M-.01 160.63h370.8v178.12H-.01z"/><path fill="#fff" fill-rule="nonzero" d="M35.09 201.47h31.13l21.73 69.41 21.42-69.41h30.23l-35.8 96.44H71.52l-36.43-96.44zm109.07 64.54 28.29-1.78c.6 4.58 1.86 8.09 3.75 10.47 3.07 3.88 7.45 5.83 13.15 5.83 4.24 0 7.52-.98 9.81-2.98 2.31-2 3.46-4.31 3.46-6.94 0-2.49-1.08-4.74-3.26-6.71-2.17-1.98-7.25-3.82-15.22-5.59-13.06-2.92-22.36-6.83-27.92-11.7-5.62-4.85-8.42-11.04-8.42-18.58 0-4.94 1.44-9.61 4.31-14.01 2.87-4.42 7.18-7.88 12.95-10.39 5.77-2.52 13.67-3.78 23.71-3.78 12.32 0 21.7 2.29 28.17 6.89 6.46 4.58 10.3 11.88 11.54 21.89l-28.02 1.66c-.74-4.37-2.31-7.56-4.69-9.54-2.4-1.99-5.7-2.98-9.9-2.98-3.46 0-6.08.74-7.83 2.2-1.75 1.46-2.63 3.25-2.63 5.36 0 1.53.72 2.9 2.13 4.13 1.37 1.28 4.7 2.45 9.95 3.55 13.02 2.81 22.33 5.66 27.95 8.53 5.63 2.87 9.74 6.42 12.3 10.69 2.56 4.24 3.84 9 3.84 14.27 0 6.18-1.71 11.88-5.12 17.11-3.44 5.21-8.2 9.18-14.35 11.87-6.13 2.7-13.85 4.04-23.19 4.04-16.38 0-27.74-3.16-34.05-9.47-6.31-6.31-9.88-14.32-10.71-24.04zm102.79-64.54h44.29c8.71 0 15.78 1.19 21.15 3.55 5.37 2.38 9.81 5.77 13.33 10.19 3.51 4.44 6.04 9.58 7.61 15.47 1.6 5.88 2.38 12.1 2.38 18.67 0 10.31-1.16 18.3-3.52 23.98-2.33 5.68-5.59 10.44-9.77 14.27-4.17 3.84-8.64 6.4-13.42 7.68-6.53 1.75-12.46 2.63-17.76 2.63h-44.29v-96.44zm29.77 21.82v52.66h7.32c6.24 0 10.68-.69 13.33-2.06 2.63-1.39 4.69-3.8 6.2-7.23 1.5-3.46 2.24-9.02 2.24-16.75 0-10.21-1.66-17.19-5-20.96-3.35-3.77-8.89-5.66-16.64-5.66h-7.45z"/></svg>