<svg id="Layer_1" data-name="Layer 1" xmlns="http://www.w3.org/2000/svg" viewBox="0 0 108.81 122.88"><defs><style>.cls-1{fill-rule:evenodd;}</style></defs><title>files-setting</title><path class="cls-1" d="M62.72,69.75H99.84a9,9,0,0,1,9,9V113.9a9,9,0,0,1-9,9H62.72a9,9,0,0,1-9-9V78.72a9,9,0,0,1,9-9ZM20,51.62A2.05,2.05,0,0,0,18,53.76,2,2,0,0,0,20,55.89H57A2.05,2.05,0,0,0,59,53.76,2,2,0,0,0,57,51.62Zm0,15.27A2,2,0,0,0,18.06,69,2,2,0,0,0,20,71.15h23.7V66.89Zm0,15.26a2,2,0,0,0-1.92,2.13A2,2,0,0,0,20,86.41h23.7V82.15Zm0-45.79A2,2,0,0,0,18,38.49,2,2,0,0,0,20,40.62H41.89a2,2,0,0,0,1.91-2.13,2,2,0,0,0-1.91-2.13ZM20,21.1a2,2,0,0,0-1.92,2.13A2,2,0,0,0,20,25.36H32a2,2,0,0,0,1.91-2.13A2,2,0,0,0,32,21.1Zm64.48,7.09a3.15,3.15,0,0,1,2.29,3v5.29H94.6a6.82,6.82,0,0,1,4.88,2,6.91,6.91,0,0,1,2,4.88V60.21h-6V43.42a1,1,0,0,0-.28-.7,1,1,0,0,0-.71-.28H86.75V60.2H80.44V35H54.21A3.17,3.17,0,0,1,51,31.83V6.29H6.32v95.48H43.76v6.31H16.37V116a1,1,0,0,0,.28.7,1,1,0,0,0,.7.28H43.74v5.93H17.39A7,7,0,0,1,10.47,116v-7.88H5.66a5.66,5.66,0,0,1-4-1.65,5.6,5.6,0,0,1-1.66-4V5.65A5.65,5.65,0,0,1,5.66,0H54.21a3.09,3.09,0,0,1,2.42,1.16l27.83,27ZM57.35,11.06,76.24,28.69H57.35V11.06ZM92,83.83a1.59,1.59,0,0,0-2.28,0L88,85.56a12.34,12.34,0,0,0-1.48-.8c-.51-.23-1-.43-1.57-.61V81.49a1.52,1.52,0,0,0-.47-1.14,1.53,1.53,0,0,0-1.13-.47H80a1.6,1.6,0,0,0-1.13.47,1.55,1.55,0,0,0-.47,1.14v2.44a12.78,12.78,0,0,0-1.63.49,15.69,15.69,0,0,0-1.49.69l-1.92-1.89a1.46,1.46,0,0,0-1.11-.48,1.56,1.56,0,0,0-1.14.48L68.8,85.56a1.57,1.57,0,0,0-.48,1.14,1.56,1.56,0,0,0,.48,1.14l1.73,1.74a12.2,12.2,0,0,0-.8,1.47,13.74,13.74,0,0,0-.61,1.57H66.45a1.55,1.55,0,0,0-1.13.47,1.52,1.52,0,0,0-.47,1.14v3.34a1.54,1.54,0,0,0,.47,1.12,1.52,1.52,0,0,0,1.13.48h2.44a12.19,12.19,0,0,0,.5,1.62,14.94,14.94,0,0,0,.69,1.53l-1.9,1.88a1.52,1.52,0,0,0-.48,1.12,1.61,1.61,0,0,0,.48,1.14l2.35,2.37a1.67,1.67,0,0,0,2.28,0l1.73-1.76a11,11,0,0,0,1.48.79,15.05,15.05,0,0,0,1.57.62v2.66a1.55,1.55,0,0,0,.46,1.14,1.56,1.56,0,0,0,1.14.46h3.34a1.59,1.59,0,0,0,1.13-.46,1.55,1.55,0,0,0,.47-1.14V108.7a10.87,10.87,0,0,0,1.62-.5,13.21,13.21,0,0,0,1.53-.69l1.89,1.9a1.56,1.56,0,0,0,2.25,0l2.37-2.34a1.64,1.64,0,0,0,.45-1.14,1.55,1.55,0,0,0-.45-1.14L92,103.05a13,13,0,0,0,.8-1.47,15.89,15.89,0,0,0,.61-1.57H96.1a1.6,1.6,0,0,0,1.61-1.61V95.06a1.56,1.56,0,0,0-.47-1.12,1.53,1.53,0,0,0-1.14-.48H93.67a13.43,13.43,0,0,0-.5-1.6,11.71,11.71,0,0,0-.69-1.52l1.89-1.92a1.47,1.47,0,0,0,.49-1.11,1.58,1.58,0,0,0-.49-1.14L92,83.83ZM81.28,89.77a6.45,6.45,0,0,1,2.55.51,6.7,6.7,0,0,1,2.09,1.39,6.82,6.82,0,0,1,1.39,2.09,6.66,6.66,0,0,1,0,5.11,6.45,6.45,0,0,1-3.48,3.48,6.63,6.63,0,0,1-5.1,0,6.73,6.73,0,0,1-2.09-1.4,6.86,6.86,0,0,1-1.4-2.08,6.66,6.66,0,0,1,0-5.11,7,7,0,0,1,1.4-2.09,6.7,6.7,0,0,1,2.09-1.39,6.45,6.45,0,0,1,2.55-.51Z"/></svg>