<?xml version="1.0" encoding="UTF-8"?>
<!DOCTYPE svg PUBLIC "-//W3C//DTD SVG 1.1//EN" "http://www.w3.org/Graphics/SVG/1.1/DTD/svg11.dtd">
<!-- Creator: CorelDRAW 2021 (64-Bit) -->
<svg xmlns="http://www.w3.org/2000/svg" xml:space="preserve" width="512px" height="363px" version="1.1" shape-rendering="geometricPrecision" text-rendering="geometricPrecision" image-rendering="optimizeQuality" fill-rule="evenodd" clip-rule="evenodd"
viewBox="0 0 512 362.66"
 xmlns:xlink="http://www.w3.org/1999/xlink"
 xmlns:xodm="http://www.corel.com/coreldraw/odm/2003">
 <g id="Layer_x0020_1">
  <metadata id="CorelCorpID_0Corel-Layer"/>
  <path fill="black" fill-rule="nonzero" d="M11.24 98.47l15.16 0 0 -37.23c0,-5.17 4.19,-9.36 9.36,-9.36l16.65 0 0 -22.34c0,-5.18 4.19,-9.37 9.36,-9.37l135.09 0c5.17,0 9.36,4.19 9.36,9.37l0 22.34 104.44 0c4.47,-7.27 9.78,-14 15.79,-20.01 19.7,-19.69 46.87,-31.87 76.86,-31.87 29.98,0 57.16,12.18 76.82,31.83 19.69,19.7 31.87,46.88 31.87,76.86 0,30.02 -12.17,57.2 -31.83,76.86 -13.23,13.23 -29.9,23.08 -48.53,28.11l-17.61 120.12c-2.08,15.55 -13.57,28.88 -30,28.88l-328.52 0c-16.54,0 -28.37,-13.33 -30.09,-29.15l-25.37 -224.7c-0.53,-5.13 3.21,-9.74 8.35,-10.27 1.01,-0.1 1.8,-0.07 2.84,-0.07zm416.15 -6.9l0 -5.93c0,-7.02 -2.74,-13.4 -7.16,-17.98 -4.34,-4.55 -10.33,-7.37 -16.92,-7.37 -6.59,0 -12.58,2.82 -16.93,7.37 -4.42,4.58 -7.16,10.96 -7.16,17.98l0 5.93 1.92 0 44.32 0 1.93 0zm-28.58 33.26l-5.92 15.51 20.83 0 -5.49 -15.7c3.5,-1.8 5.87,-5.42 5.87,-9.61 0,-5.98 -4.82,-10.8 -10.79,-10.8 -5.95,0 -10.79,4.82 -10.79,10.8 0,4.34 2.58,8.11 6.29,9.8zm-30.34 -33.26l0 -5.93c0,-9.87 3.89,-18.88 10.18,-25.42 6.31,-6.58 15.02,-10.69 24.66,-10.69 9.64,0 18.36,4.09 24.66,10.69 6.28,6.54 10.18,15.53 10.18,25.42l0 5.93 0.15 0 1.79 0c3.12,0 5.66,2.54 5.66,5.69l0 53.13c0,3.13 -2.54,5.7 -5.66,5.7l-73.54 0c-3.14,0 -5.68,-2.57 -5.68,-5.7l0 -53.13c0,-3.15 2.54,-5.69 5.68,-5.69l1.61 0 0.31 0zm-66.99 -20.92l-104.62 0c-5.17,0 -9.36,-4.2 -9.36,-9.37l0 -22.35 -116.36 0 0 22.35c0,5.17 -4.2,9.37 -9.37,9.37l-16.65 0 0 27.78 250.28 -2.79c1.04,-8.69 3.1,-17.06 6.08,-24.99zm-6.52 46.6l-275.17 -0.02 24.28 214.39c0.63,6.16 4.69,12.36 11.44,12.36l328.52 0c6.85,0 10.63,-6.53 11.47,-12.62l16.78 -114.35c-2.96,0.24 -5.96,0.37 -8.97,0.37 -29.99,0 -57.16,-12.18 -76.82,-31.83 -17.8,-17.82 -29.46,-41.72 -31.53,-68.3zm173.26 -73.47c-16.6,-16.59 -39.56,-26.86 -64.91,-26.86 -25.35,0 -48.31,10.27 -64.92,26.86 -16.58,16.6 -26.86,39.56 -26.86,64.91 0,25.35 10.28,48.31 26.86,64.92 16.61,16.58 39.57,26.86 64.92,26.86 25.34,0 48.3,-10.29 64.89,-26.88 16.61,-16.61 26.88,-39.56 26.88,-64.9 0,-25.35 -10.27,-48.31 -26.86,-64.91zm-140.52 183.07c0,-3.64 2.96,-6.6 6.6,-6.6 3.65,0 6.6,2.96 6.6,6.6l0 8.53 7.07 -4.73c3.02,-2.02 7.1,-1.22 9.13,1.8 2.01,3.02 1.21,7.1 -1.81,9.13l-9.13 6.1 9.14 6.07c3.03,2.01 3.85,6.09 1.85,9.12 -2.01,3.03 -6.09,3.86 -9.12,1.85l-7.13 -4.73 0 8.56c0,3.63 -2.95,6.59 -6.6,6.59 -3.64,0 -6.6,-2.96 -6.6,-6.59l0 -8.53 -7.07 4.72c-3.02,2.03 -7.1,1.22 -9.13,-1.8 -2.01,-3.01 -1.2,-7.11 1.81,-9.12l9.13 -6.1 -9.14 -6.07c-3.02,-2.01 -3.85,-6.1 -1.85,-9.13 2,-3.03 6.09,-3.85 9.12,-1.85l7.13 4.73 0 -8.55zm-73.86 0c0,-3.64 2.95,-6.6 6.6,-6.6 3.64,0 6.6,2.96 6.6,6.6l0 8.53 7.07 -4.73c3.01,-2.02 7.1,-1.22 9.13,1.8 2.01,3.02 1.2,7.1 -1.81,9.13l-9.13 6.1 9.14 6.07c3.02,2.01 3.85,6.09 1.85,9.12 -2.01,3.03 -6.1,3.86 -9.12,1.85l-7.13 -4.73 0 8.56c0,3.63 -2.96,6.59 -6.6,6.59 -3.65,0 -6.6,-2.96 -6.6,-6.59l0 -8.53 -7.07 4.72c-3.02,2.03 -7.1,1.22 -9.13,-1.8 -2.01,-3.01 -1.21,-7.11 1.81,-9.12l9.13 -6.1 -9.14 -6.07c-3.03,-2.01 -3.85,-6.1 -1.85,-9.13 2,-3.03 6.09,-3.85 9.12,-1.85l7.13 4.73 0 -8.55zm-73.85 0c0,-3.64 2.95,-6.6 6.6,-6.6 3.64,0 6.6,2.96 6.6,6.6l0 8.53 7.07 -4.73c3.01,-2.02 7.1,-1.22 9.12,1.8 2.02,3.02 1.21,7.1 -1.8,9.13l-9.13 6.1 9.14 6.07c3.02,2.01 3.85,6.09 1.84,9.12 -1.99,3.03 -6.09,3.86 -9.11,1.85l-7.13 -4.73 0 8.56c0,3.63 -2.96,6.59 -6.6,6.59 -3.65,0 -6.6,-2.96 -6.6,-6.59l0 -8.53 -7.07 4.72c-3.02,2.03 -7.1,1.22 -9.13,-1.8 -2.02,-3.01 -1.21,-7.11 1.81,-9.12l9.12 -6.1 -9.13 -6.07c-3.03,-2.01 -3.86,-6.1 -1.85,-9.13 2.01,-3.03 6.09,-3.85 9.12,-1.85l7.13 4.73 0 -8.55zm-73.87 0c0,-3.64 2.96,-6.6 6.6,-6.6 3.64,0 6.6,2.96 6.6,6.6l0 8.53 7.07 -4.73c3.01,-2.02 7.1,-1.22 9.12,1.8 2.02,3.02 1.21,7.1 -1.8,9.13l-9.13 6.1 9.13 6.07c3.03,2.01 3.86,6.09 1.86,9.12 -2.01,3.03 -6.1,3.86 -9.12,1.85l-7.13 -4.73 0 8.56c0,3.63 -2.96,6.59 -6.6,6.59 -3.64,0 -6.6,-2.96 -6.6,-6.59l0 -8.53 -7.07 4.72c-3.02,2.03 -7.1,1.22 -9.12,-1.8 -2.03,-3.01 -1.22,-7.11 1.8,-9.12l9.12 -6.1 -9.12 -6.07c-3.04,-2.01 -3.87,-6.1 -1.86,-9.13 2.01,-3.03 6.09,-3.85 9.12,-1.85l7.13 4.73 0 -8.55z"/>
 </g>
</svg>
