<svg id="Layer_1" data-name="Layer 1" xmlns="http://www.w3.org/2000/svg" viewBox="0 0 114.16 122.88"><title>img-file</title><path d="M61,11.77,81.14,30.6H61V11.77Zm1.83,55.87h47.28a4,4,0,0,1,4,4v47.22a4,4,0,0,1-4,4H62.86a4,4,0,0,1-4-4V71.65a4,4,0,0,1,4-4Zm1,45L78.67,97a1.6,1.6,0,0,1,2.28.12s0,0,0,0l14.55,17.21,2.22-13.68a1.61,1.61,0,0,1,1.86-1.33,1.63,1.63,0,0,1,.87.43l8.7,10.72V73.38a.72.72,0,0,0-.24-.54.77.77,0,0,0-.54-.24H64.56a.72.72,0,0,0-.54.24.83.83,0,0,0-.23.54v39.29ZM96.93,78.54a5.84,5.84,0,1,1-4.11,1.71,5.8,5.8,0,0,1,4.11-1.71ZM21.26,71.18a2.18,2.18,0,0,0-2,2.27,2.15,2.15,0,0,0,2,2.27H46.48V71.18Zm0,16.25a2.17,2.17,0,0,0-2,2.26,2.15,2.15,0,0,0,2,2.27H46.48V87.43Zm0-48.74a2.18,2.18,0,0,0-2,2.27,2.15,2.15,0,0,0,2,2.27H44.58a2.18,2.18,0,0,0,2-2.27,2.15,2.15,0,0,0-2-2.27Zm0-16.24a2.18,2.18,0,0,0-2,2.27,2.14,2.14,0,0,0,2,2.26H34.08a2.17,2.17,0,0,0,2-2.26,2.15,2.15,0,0,0-2-2.27Zm0,32.49a2.28,2.28,0,0,0,0,4.54H60.7a2.18,2.18,0,0,0,2-2.27,2.14,2.14,0,0,0-2-2.27ZM92.32,33.3a3.34,3.34,0,0,0-2.44-3.23L60.27,1.23A3.32,3.32,0,0,0,57.69,0H6A6,6,0,0,0,0,6V109a6,6,0,0,0,6,6H46.57V108.3H6.72V6.69H54.31V33.94a3.38,3.38,0,0,0,3.38,3.38H85.6v22h6.72v-26Z"/></svg>