<svg id="Layer_1" data-name="Layer 1" xmlns="http://www.w3.org/2000/svg" viewBox="0 0 108.81 122.88"><defs><style>.cls-1{fill-rule:evenodd;}</style></defs><title>lock-files</title><path class="cls-1" d="M62.72,69.75H99.84a9,9,0,0,1,9,9V113.9a9,9,0,0,1-9,9H62.72a9,9,0,0,1-9-9V78.72a9,9,0,0,1,9-9ZM20,51.62A2.05,2.05,0,0,0,18,53.76,2,2,0,0,0,20,55.89H57A2.05,2.05,0,0,0,59,53.76,2,2,0,0,0,57,51.62Zm37.4-40.56L76.24,28.69H57.35V11.06Zm29.4,20.16a3.15,3.15,0,0,0-2.29-3l-27.83-27A3.09,3.09,0,0,0,54.21,0H5.66A5.65,5.65,0,0,0,0,5.65v96.78a5.6,5.6,0,0,0,1.66,4,5.66,5.66,0,0,0,4,1.65h4.81V116a7,7,0,0,0,6.92,6.92H43.74V117H17.35a1,1,0,0,1-1-1v-7.89H43.76v-6.31H6.32V6.29H51V31.83A3.17,3.17,0,0,0,54.21,35H80.44V60.2h6.31V42.44h7.81a1,1,0,0,1,.71.28,1,1,0,0,1,.28.7V60.21h6V43.42a6.91,6.91,0,0,0-2-4.88,6.82,6.82,0,0,0-4.88-2H86.75V31.22ZM20,66.89A2,2,0,0,0,18.06,69,2,2,0,0,0,20,71.15h23.7V66.89Zm0,15.26a2,2,0,0,0-1.92,2.13A2,2,0,0,0,20,86.41h23.7V82.15Zm0-45.79A2,2,0,0,0,18,38.49,2,2,0,0,0,20,40.62H41.89a2,2,0,0,0,1.91-2.13,2,2,0,0,0-1.91-2.13ZM20,21.1a2,2,0,0,0-1.92,2.13A2,2,0,0,0,20,25.36H32a2,2,0,0,0,1.91-2.13A2,2,0,0,0,32,21.1ZM70,94.34h2.24V90.88A9.21,9.21,0,0,1,75,84.35h0a9.23,9.23,0,0,1,13.07,0h0a9.18,9.18,0,0,1,2.72,6.53v3.46h1.78a.72.72,0,0,1,.72.72v15.22a.72.72,0,0,1-.72.72H70a.72.72,0,0,1-.72-.72V95.06a.72.72,0,0,1,.72-.72Zm5.83,0H87.16V90.83a5.63,5.63,0,0,0-1.66-4h0a5.66,5.66,0,0,0-9.65,4v3.51Zm5.7,8.33,1.14,5.27H79.56l.92-5.34a2.12,2.12,0,1,1,1.07.06Z"/></svg>