<svg id="Layer_1" data-name="Layer 1" xmlns="http://www.w3.org/2000/svg" viewBox="0 0 115.08 122.88"><title>manual-task</title><path d="M72,117.19a3.68,3.68,0,0,1-.58,0H7.52A7.53,7.53,0,0,1,2.22,115h0A7.5,7.5,0,0,1,0,109.72V7.52A7.5,7.5,0,0,1,2.21,2.21L2.44,2A7.51,7.51,0,0,1,7.52,0h85.1a7.5,7.5,0,0,1,5.31,2.21l.22.24a7.49,7.49,0,0,1,2,5.07V72.28A26.66,26.66,0,1,1,72,117.19Zm14.54-9,2-10.19,2,3.06c4.38-1.76,6.84-4.66,7.21-9.12,3.59,6.29,1.41,11.93-3.15,15.23l2.08,3.12-10.18-2.1ZM89.76,84.9l-2,10.19-2-3.06c-4.38,1.75-6.84,4.65-7.2,9.11-3.6-6.28-1.42-11.92,3.14-15.22l-2.07-3.13L89.76,84.9Zm3.92-14.81V7.52a1,1,0,0,0-.23-.65l-.09-.09a1.06,1.06,0,0,0-.74-.31H7.52a1,1,0,0,0-.66.23l-.08.08a1.06,1.06,0,0,0-.31.74v102.2a1.06,1.06,0,0,0,.31.74h0a1.08,1.08,0,0,0,.75.31H66.08a26.67,26.67,0,0,1,27.6-40.69Zm9.82,11.06a21.33,21.33,0,1,0,6.24,15.07,21.26,21.26,0,0,0-6.24-15.07ZM21,74.69h9.09a1.19,1.19,0,0,1,1.19,1.19V85a1.19,1.19,0,0,1-1.19,1.19H21A1.2,1.2,0,0,1,19.77,85V75.88A1.19,1.19,0,0,1,21,74.69ZM43.09,84a3.68,3.68,0,0,1,0-7.24h9.65a3.68,3.68,0,0,1,0,7.24ZM21,22.32h9.09a1.19,1.19,0,0,1,1.19,1.19V32.6a1.19,1.19,0,0,1-1.19,1.19H21a1.19,1.19,0,0,1-1.19-1.19V23.51A1.2,1.2,0,0,1,21,22.32Zm22.13,9.36a3.37,3.37,0,0,1-3-3.62,3.37,3.37,0,0,1,3-3.62H78.88a3.37,3.37,0,0,1,3,3.62,3.37,3.37,0,0,1-3,3.62ZM18.49,54.53a2,2,0,0,1,.38-2.83,2.25,2.25,0,0,1,3-.09L24,53.79l5.29-5.43a2,2,0,0,1,2.84.31,2.26,2.26,0,0,1,.18,3l-7,7.2a2,2,0,0,1-2.84-.3l-.16-.2a1.85,1.85,0,0,1-.32-.25l-3.49-3.61Zm24.6,2.71a3.67,3.67,0,0,1,0-7.23H78.88a3.67,3.67,0,0,1,0,7.23Z"/></svg>