<svg id="Layer_1" data-name="Layer 1" xmlns="http://www.w3.org/2000/svg" viewBox="0 0 107.01 122.88"><defs><style>.cls-1{fill-rule:evenodd;}</style></defs><title>move-files</title><path class="cls-1" d="M54.29,114V77.15a8.93,8.93,0,0,1,8.9-8.9H98.1a8.93,8.93,0,0,1,8.91,8.9V114a8.94,8.94,0,0,1-8.91,8.91H63.19a8.93,8.93,0,0,1-8.9-8.91ZM56.91,11,75.65,28.46H56.91V11ZM19.82,66.37a2,2,0,0,0-1.9,2.11,2,2,0,0,0,1.9,2.11H43.34V66.37Zm0,15.14a2,2,0,0,0-1.9,2.11,2,2,0,0,0,1.9,2.12H43.34V81.51Zm0-45.43a2,2,0,0,0-1.9,2.11,2,2,0,0,0,1.9,2.11H41.56a2,2,0,0,0,1.9-2.11,2,2,0,0,0-1.9-2.11Zm0-15.15a2,2,0,0,0-1.9,2.12,2,2,0,0,0,1.9,2.11h12a2,2,0,0,0,1.9-2.11,2,2,0,0,0-1.9-2.12Zm0,30.29a2,2,0,0,0-1.9,2.12,2,2,0,0,0,1.9,2.11H56.59a2,2,0,0,0,1.9-2.11,2,2,0,0,0-1.9-2.12ZM86.07,31a3.11,3.11,0,0,0-2.27-3L56.19,1.15A3.09,3.09,0,0,0,53.78,0H5.61A5.6,5.6,0,0,0,0,5.61v96a5.6,5.6,0,0,0,5.61,5.61h4.78v7.82a6.9,6.9,0,0,0,6.86,6.86H43.4V116H17.22a1,1,0,0,1-.7-.28,1,1,0,0,1-.28-.7v-7.82H43.42V101H6.27V6.24H50.64V31.58a3.14,3.14,0,0,0,3.14,3.15h26v25h6.26V42.11h7.76a1,1,0,0,1,1,1V59.74h5.92V43.08a6.9,6.9,0,0,0-6.86-6.86H86.07V31ZM67.41,99.37v-7.7a2.78,2.78,0,0,1,2.77-2.77H79V84a2.32,2.32,0,0,1,.92-2c1.54-1,3.06.38,4.13,1.35,3,2.76,8.51,9,10.11,10.36a2.25,2.25,0,0,1,0,3.53c-1.65,1.41-7.46,8-10.4,10.62-1,.91-2.42,2-3.84,1.08a2.3,2.3,0,0,1-.92-2v-4.91h-8.8a2.78,2.78,0,0,1-2.77-2.77Z"/></svg>