<svg id="Layer_1" data-name="Layer 1" xmlns="http://www.w3.org/2000/svg" viewBox="0 0 122.88 121.83"><defs><style>.cls-1,.cls-2{fill-rule:evenodd;}.cls-2{fill:red;}.cls-3{fill:#fff;}</style></defs><title>ods-file-format</title><path class="cls-1" d="M102.42,37H81.92a8.52,8.52,0,0,1-8.85-8.7V7.53H21a.58.58,0,0,0-.41.18.45.45,0,0,0-.18.42V113.71a.7.7,0,0,0,.18.41.51.51,0,0,0,.41.18h80.84c.18,0,.17-.09.26-.18s.34-.28.34-.41V37Zm7.47,79.08a5.77,5.77,0,0,1-5.76,5.76H18.66a5.77,5.77,0,0,1-5.76-5.76V5.76a5.7,5.7,0,0,1,1.69-4.07A5.77,5.77,0,0,1,18.66,0H76.9a4.22,4.22,0,0,1,2.46.82l29.75,30.12a2.57,2.57,0,0,1,.78,2.6v82.53ZM80,27.69,79.57,9.63,100.66,31l-18.14-.81A2.4,2.4,0,0,1,80,27.69Z"/><path class="cls-2" d="M6.71,46.28H116.17A6.73,6.73,0,0,1,122.88,53v45.1a6.73,6.73,0,0,1-6.71,6.71H6.71A6.73,6.73,0,0,1,0,98.09V53a6.73,6.73,0,0,1,6.71-6.71Z"/><path class="cls-3" d="M12.64,75.56q0-7.71,4.3-12t12-4.3q7.86,0,12.13,4.22T45.31,75.3a19.39,19.39,0,0,1-1.85,9.06,13.26,13.26,0,0,1-5.38,5.5,17.7,17.7,0,0,1-8.77,2,20.24,20.24,0,0,1-8.83-1.69,13.37,13.37,0,0,1-5.67-5.38,17.9,17.9,0,0,1-2.17-9.2Zm9.73,0c0,3.18.6,5.47,1.78,6.86A6,6,0,0,0,29,84.52a6,6,0,0,0,4.87-2q1.72-2,1.72-7.33c0-3-.6-5.13-1.8-6.49A6.12,6.12,0,0,0,28.9,66.6a6,6,0,0,0-4.74,2.09c-1.19,1.38-1.79,3.69-1.79,6.89ZM50,59.78H64.43a17.38,17.38,0,0,1,6.91,1.16,11.19,11.19,0,0,1,4.36,3.33,13.66,13.66,0,0,1,2.49,5A23.36,23.36,0,0,1,79,75.43a20.93,20.93,0,0,1-1.16,7.84,12.77,12.77,0,0,1-3.19,4.66,10.27,10.27,0,0,1-4.39,2.51,22.26,22.26,0,0,1-5.8.86H50V59.78Zm9.73,7.13V84.13h2.39a10.13,10.13,0,0,0,4.36-.68,4.62,4.62,0,0,0,2-2.36,14.84,14.84,0,0,0,.73-5.48q0-5-1.63-6.85t-5.44-1.85Zm22,14,9.25-.58a6.89,6.89,0,0,0,1.22,3.41,5.18,5.18,0,0,0,4.3,1.91,4.75,4.75,0,0,0,3.21-1,3,3,0,0,0,1.13-2.27,2.86,2.86,0,0,0-1.07-2.19c-.71-.65-2.37-1.25-5-1.83q-6.41-1.44-9.13-3.83a7.67,7.67,0,0,1-2.75-6.07,8.22,8.22,0,0,1,1.41-4.58,9.27,9.27,0,0,1,4.23-3.4,19.89,19.89,0,0,1,7.75-1.23q6,0,9.21,2.25c2.11,1.5,3.37,3.88,3.77,7.16l-9.16.54a5,5,0,0,0-1.53-3.12,4.92,4.92,0,0,0-3.24-1,4,4,0,0,0-2.56.72,2.23,2.23,0,0,0-.86,1.76,1.79,1.79,0,0,0,.7,1.35,7.84,7.84,0,0,0,3.25,1.16A40.2,40.2,0,0,1,105,72.88a9.57,9.57,0,0,1,4,3.49A8.84,8.84,0,0,1,110.24,81a10,10,0,0,1-1.68,5.59,10.52,10.52,0,0,1-4.69,3.88,18.87,18.87,0,0,1-7.58,1.32c-5.35,0-9.07-1-11.13-3.1a12.18,12.18,0,0,1-3.5-7.85Z"/></svg>