<svg id="Layer_1" data-name="Layer 1" xmlns="http://www.w3.org/2000/svg" viewBox="0 0 122.88 121.83"><defs><style>.cls-1,.cls-2{fill-rule:evenodd;}.cls-2{fill:red;}.cls-3{fill:#fff;}</style></defs><title>odt-file-format</title><path class="cls-1" d="M102.42,37H81.92a8.52,8.52,0,0,1-8.85-8.7V7.53H21a.58.58,0,0,0-.41.18.45.45,0,0,0-.18.42V113.71a.7.7,0,0,0,.18.41.51.51,0,0,0,.41.18h80.84c.18,0,.17-.09.26-.18s.34-.28.34-.41V37Zm7.47,79.08a5.77,5.77,0,0,1-5.76,5.76H18.66a5.77,5.77,0,0,1-5.76-5.76V5.76a5.7,5.7,0,0,1,1.69-4.07A5.77,5.77,0,0,1,18.66,0H76.9a4.22,4.22,0,0,1,2.46.82l29.75,30.12a2.57,2.57,0,0,1,.78,2.6v82.53ZM80,27.69,79.57,9.63,100.66,31l-18.14-.81A2.4,2.4,0,0,1,80,27.69Z"/><path class="cls-2" d="M6.71,46.28H116.17A6.73,6.73,0,0,1,122.88,53v45.1a6.73,6.73,0,0,1-6.71,6.71H6.71A6.73,6.73,0,0,1,0,98.09V53a6.73,6.73,0,0,1,6.71-6.71Z"/><path class="cls-3" d="M12.38,75.56q0-7.71,4.3-12t12-4.3q7.87,0,12.13,4.22T45.05,75.3a19.38,19.38,0,0,1-1.86,9.06,13.26,13.26,0,0,1-5.38,5.5,17.67,17.67,0,0,1-8.77,2,20.19,20.19,0,0,1-8.82-1.69,13.37,13.37,0,0,1-5.67-5.38,17.8,17.8,0,0,1-2.17-9.2Zm9.73,0q0,4.77,1.78,6.86a6,6,0,0,0,4.84,2.08,6,6,0,0,0,4.86-2c1.16-1.36,1.73-3.8,1.73-7.33,0-3-.6-5.13-1.8-6.49a6.13,6.13,0,0,0-4.88-2.06,5.93,5.93,0,0,0-4.74,2.09c-1.2,1.38-1.79,3.69-1.79,6.89Zm27.58-15.8H64.17a17.45,17.45,0,0,1,6.91,1.16,11.26,11.26,0,0,1,4.36,3.33,13.8,13.8,0,0,1,2.48,5,22.94,22.94,0,0,1,.78,6.11,21.16,21.16,0,0,1-1.15,7.84,12.9,12.9,0,0,1-3.19,4.66A10.38,10.38,0,0,1,70,90.44a22.32,22.32,0,0,1-5.8.86H49.69V59.78Zm9.73,7.13V84.13h2.39a10.16,10.16,0,0,0,4.36-.68,4.6,4.6,0,0,0,2-2.36,14.58,14.58,0,0,0,.74-5.48q0-5-1.64-6.85t-5.44-1.85Zm21.45-7.13H110.5v7.79h-10V91.3H90.82V67.57H80.87V59.78Z"/></svg>