<svg id="Layer_1" data-name="Layer 1" xmlns="http://www.w3.org/2000/svg" viewBox="0 0 108.81 122.88"><defs><style>.cls-1{fill-rule:evenodd;}</style></defs><title>personal-details</title><path class="cls-1" d="M62.72,69.75H99.84a9,9,0,0,1,9,9V113.9a9,9,0,0,1-9,9H62.72a9,9,0,0,1-9-9V78.72a9,9,0,0,1,9-9ZM84.46,28.19a3.15,3.15,0,0,1,2.29,3v5.29H94.6a6.82,6.82,0,0,1,4.88,2,6.91,6.91,0,0,1,2,4.88V60.21h-6V43.42a1,1,0,0,0-.28-.7,1,1,0,0,0-.71-.28H86.75V60.2H80.44V35H54.21A3.17,3.17,0,0,1,51,31.83V6.29H6.32v95.48H43.76v6.31H16.37V116a1,1,0,0,0,.28.7,1,1,0,0,0,.7.28H43.74v5.93H17.39A7,7,0,0,1,10.47,116v-7.88H5.66a5.66,5.66,0,0,1-4-1.65,5.6,5.6,0,0,1-1.66-4V5.65A5.65,5.65,0,0,1,5.66,0H54.21a3.09,3.09,0,0,1,2.42,1.16l27.83,27ZM20,51.62A2.05,2.05,0,0,0,18,53.76,2,2,0,0,0,20,55.89H57A2.05,2.05,0,0,0,59,53.76,2,2,0,0,0,57,51.62Zm0,15.27A2,2,0,0,0,18.06,69,2,2,0,0,0,20,71.15h23.7V66.89Zm0,15.26a2,2,0,0,0-1.92,2.13A2,2,0,0,0,20,86.41h23.7V82.15Zm0-45.79A2,2,0,0,0,18,38.49,2,2,0,0,0,20,40.62H41.89a2,2,0,0,0,1.91-2.13,2,2,0,0,0-1.91-2.13ZM20,21.1a2,2,0,0,0-1.92,2.13A2,2,0,0,0,20,25.36H32a2,2,0,0,0,1.91-2.13A2,2,0,0,0,32,21.1Zm37.37-10L76.24,28.69H57.35V11.06Zm17.4,85.68c-.58-.9-1.64-2.13-1.64-3.2A1.7,1.7,0,0,1,74.26,92c-.05-.9-.09-1.82-.09-2.73,0-.53,0-1.07,0-1.6a4.29,4.29,0,0,1,.18-1,5.74,5.74,0,0,1,2.55-3.25,8,8,0,0,1,1.39-.66c.89-.32.45-1.8,1.41-1.82,2.25-.06,6,2,7.39,3.57a5.69,5.69,0,0,1,1.48,3.7l-.09,3.94a1.29,1.29,0,0,1,.94.81c.31,1.24-1,2.79-1.58,3.78s-2.67,3.87-2.67,3.89a.73.73,0,0,0,.19.45c3.28,4.52,12.93,1.67,12.93,10.65H64.23c0-9,9.65-6.13,12.93-10.64.16-.24.24-.37.23-.47S75,97.1,74.75,96.75Z"/></svg>