<svg id="Layer_1" data-name="Layer 1" xmlns="http://www.w3.org/2000/svg" viewBox="0 0 109.14 122.88"><defs><style>.cls-1{fill-rule:evenodd;}</style></defs><title>star-files</title><path class="cls-1" d="M63.05,69.75h37.11a9,9,0,0,1,9,9V113.9a9,9,0,0,1-9,9H63.05a9,9,0,0,1-9-9V78.72a9,9,0,0,1,9-9ZM84.46,28.19a3.15,3.15,0,0,1,2.29,3v5.29H94.6a6.82,6.82,0,0,1,4.88,2,6.91,6.91,0,0,1,2,4.88V60.21h-6V43.42a1,1,0,0,0-.28-.7,1,1,0,0,0-.71-.28H86.75V60.2H80.44V35H54.21A3.17,3.17,0,0,1,51,31.83V6.29H6.32v95.48H43.76v6.31H16.37V116a1,1,0,0,0,.28.7,1,1,0,0,0,.7.28H43.74v5.93H17.39A7,7,0,0,1,10.47,116v-7.88H5.66a5.66,5.66,0,0,1-4-1.65,5.6,5.6,0,0,1-1.66-4V5.65A5.65,5.65,0,0,1,5.66,0H54.21a3.09,3.09,0,0,1,2.42,1.16l27.83,27ZM57.35,11.06,76.24,28.69H57.35V11.06ZM20,51.62A2.05,2.05,0,0,0,18,53.76,2,2,0,0,0,20,55.89H57A2.05,2.05,0,0,0,59,53.76,2,2,0,0,0,57,51.62Zm0,15.27A2,2,0,0,0,18.06,69,2,2,0,0,0,20,71.15h23.7V66.89Zm0,15.26a2,2,0,0,0-1.92,2.13A2,2,0,0,0,20,86.41h23.7V82.15Zm0-45.79A2,2,0,0,0,18,38.49,2,2,0,0,0,20,40.62H41.89a2,2,0,0,0,1.91-2.13,2,2,0,0,0-1.91-2.13ZM20,21.1a2,2,0,0,0-1.92,2.13A2,2,0,0,0,20,25.36H32a2,2,0,0,0,1.91-2.13A2,2,0,0,0,32,21.1Zm62.42,60L86.61,91l10.68,1a.86.86,0,0,1,.49,1.5h0l-8.08,7.06L92.09,111a.86.86,0,0,1-.64,1,.83.83,0,0,1-.66-.12l-9.18-5.49L72.4,111.9a.86.86,0,0,1-1.18-.3.83.83,0,0,1-.1-.63h0l2.39-10.46-8.08-7.06a.85.85,0,0,1-.08-1.21A.82.82,0,0,1,66,92L76.6,91l4.22-9.87a.86.86,0,0,1,1.12-.46.9.9,0,0,1,.46.46Z"/></svg>