<svg id="Layer_1" data-name="Layer 1" xmlns="http://www.w3.org/2000/svg" viewBox="0 0 108.81 122.88"><defs><style>.cls-1{fill-rule:evenodd;}</style></defs><title>upload-files</title><path class="cls-1" d="M62.72,69.75H99.84a9,9,0,0,1,9,9V113.9a9,9,0,0,1-9,9H62.72a9,9,0,0,1-9-9V78.72a9,9,0,0,1,9-9Zm24-33.24H94.6a6.82,6.82,0,0,1,4.88,2,6.91,6.91,0,0,1,2,4.88V60.21h-6V43.42a1,1,0,0,0-.28-.7,1,1,0,0,0-.71-.28H86.75V60.2H80.44V35H54.21A3.17,3.17,0,0,1,51,31.83V6.29H6.32v95.48H43.76v6.31H16.37V116a1,1,0,0,0,.28.7,1,1,0,0,0,.7.28H43.74v5.93H17.39A7,7,0,0,1,10.47,116v-7.88H5.66a5.71,5.71,0,0,1-4-1.65,5.63,5.63,0,0,1-1.65-4V5.65A5.63,5.63,0,0,1,5.66,0H54.21a3.09,3.09,0,0,1,2.42,1.16l27.83,27a3.15,3.15,0,0,1,2.29,3v5.29ZM20,66.89A2,2,0,0,0,18.06,69,2,2,0,0,0,20,71.15h23.7V66.89Zm0,15.26a2,2,0,0,0-1.92,2.13A2,2,0,0,0,20,86.41h23.7V82.15Zm0-45.79A2,2,0,0,0,18,38.49,2,2,0,0,0,20,40.62H41.89a2,2,0,0,0,1.91-2.13,2,2,0,0,0-1.91-2.13ZM20,21.1a2,2,0,0,0-1.92,2.13A2,2,0,0,0,20,25.36H32a2,2,0,0,0,1.91-2.13A2,2,0,0,0,32,21.1Zm0,30.53A2,2,0,0,0,18,53.76,2,2,0,0,0,20,55.89H57A2.05,2.05,0,0,0,59,53.76,2,2,0,0,0,57,51.63H20Zm37.4-40.57L76.24,28.69H57.35V11.06ZM92.91,98.85a2.34,2.34,0,0,0,2-.93c1-1.55-.38-3.08-1.36-4.16-2.78-3.05-9.08-8.57-10.45-10.18a2.26,2.26,0,0,0-3.55,0c-1.42,1.65-8.06,7.51-10.7,10.47-.92,1-2,2.45-1.1,3.87a2.34,2.34,0,0,0,2,.93h4.94v8.87a2.8,2.8,0,0,0,2.79,2.79H85.2A2.8,2.8,0,0,0,88,107.72V98.85Z"/></svg>