<svg xmlns="http://www.w3.org/2000/svg" shape-rendering="geometricPrecision" text-rendering="geometricPrecision" image-rendering="optimizeQuality" fill-rule="evenodd" clip-rule="evenodd" viewBox="0 0 480 511.65"><path d="M90.31 237.33H375.8v-81.86h-86.02c-9.02 0-21.62-4.88-27.56-10.83-5.95-5.95-9.6-16.68-9.6-25.7V31.81H33.92c-.77 0-1.34.39-1.72.77-.58.38-.77.96-.77 1.73v443.23c0 .58.38 1.34.77 1.73.38.57 1.15.77 1.72.77h339.39c.76 0 .72-.39 1.1-.77.58-.39 1.39-1.15 1.39-1.73v-46.46H90.31c-17.25 0-31.47-14.16-31.47-31.47V268.79c0-17.31 14.16-31.46 31.47-31.46zm31.74 48.6h31.54l22.02 70.31 21.69-70.31h30.64l-36.28 97.7h-32.7l-36.91-97.7zm110.5 65.38 28.66-1.8c.61 4.64 1.88 8.19 3.79 10.6 3.12 3.94 7.55 5.91 13.33 5.91 4.3 0 7.62-1 9.94-3.02 2.34-2.02 3.5-4.37 3.5-7.03 0-2.52-1.09-4.8-3.3-6.8-2.2-2-7.34-3.86-15.42-5.66-13.23-2.96-22.65-6.91-28.29-11.85-5.68-4.91-8.52-11.19-8.52-18.83 0-5 1.45-9.73 4.36-14.19 2.91-4.48 7.28-7.98 13.12-10.53 5.85-2.55 13.85-3.82 24.02-3.82 12.48 0 21.99 2.32 28.54 6.98 6.55 4.64 10.44 12.03 11.69 22.18l-28.38 1.68c-.75-4.44-2.34-7.66-4.75-9.67-2.44-2.02-5.78-3.02-10.03-3.02-3.51 0-6.17.75-7.94 2.23-1.77 1.48-2.66 3.3-2.66 5.43 0 1.55.73 2.94 2.16 4.19 1.39 1.29 4.75 2.48 10.07 3.59 13.19 2.84 22.63 5.73 28.32 8.64 5.7 2.91 9.87 6.51 12.46 10.83 2.59 4.3 3.89 9.12 3.89 14.46 0 6.25-1.73 12.03-5.19 17.33-3.48 5.28-8.3 9.3-14.53 12.03-6.21 2.73-14.03 4.09-23.49 4.09-16.6 0-28.11-3.2-34.5-9.59-6.39-6.39-10.01-14.51-10.85-24.36zm104.13-65.38h44.87c8.83 0 15.99 1.2 21.43 3.59 5.43 2.41 9.93 5.85 13.5 10.33 3.55 4.5 6.12 9.71 7.71 15.66 1.62 5.96 2.41 12.26 2.41 18.93 0 10.43-1.18 18.53-3.57 24.28-2.36 5.76-5.66 10.58-9.89 14.47-4.23 3.89-8.75 6.48-13.6 7.78-6.62 1.77-12.62 2.66-17.99 2.66h-44.87v-97.7zm30.16 22.1v53.36h7.41c6.33 0 10.83-.71 13.51-2.1 2.66-1.41 4.75-3.84 6.28-7.32 1.52-3.5 2.27-9.14 2.27-16.97 0-10.34-1.68-17.41-5.07-21.24-3.39-3.82-9-5.73-16.85-5.73h-7.55zm40.34-70.7h41.36c17.3 0 31.46 14.2 31.46 31.46v130.82c0 17.26-14.2 31.47-31.46 31.47h-41.36v56.4c0 6.72-2.69 12.66-7.1 17.08-4.41 4.41-10.36 7.09-17.07 7.09H24.17c-6.71 0-12.66-2.68-17.07-7.09C2.69 500.14 0 494.2 0 487.48V24.37C0 17.65 2.69 11.7 7.1 7.29 11.51 2.88 17.65.19 24.17.19h244.49c.58-.19 1.16-.19 1.73-.19 2.69 0 5.37 1.15 7.29 2.88h.38c.39.19.58.38.96.77l124.9 126.43c2.11 2.1 3.64 4.98 3.64 8.24 0 .96-.19 1.73-.38 2.69v96.32zM281.13 116.45V37.22l89.22 90.36h-78.09c-3.07 0-5.75-1.34-7.86-3.26-1.92-1.92-3.27-4.8-3.27-7.87z"/></svg>