<svg xmlns="http://www.w3.org/2000/svg" shape-rendering="geometricPrecision" text-rendering="geometricPrecision" image-rendering="optimizeQuality" fill-rule="evenodd" clip-rule="evenodd" viewBox="0 0 512 507.64"><path d="M426.74 154.12h-85.39c-21.05 0-36.87-15.18-36.87-36.26V31.38H87.42c-.77 0-1.34.39-1.72.76-.57.39-.76.96-.76 1.72v439.92c0 .57.38 1.33.76 1.71.38.57 1.14.76 1.72.76h336.84c.76 0 .72-.38 1.1-.76.57-.38 1.38-1.14 1.38-1.71V154.12zm31.14 329.52c0 6.67-2.67 12.57-7.04 16.95-4.38 4.38-10.29 7.05-16.95 7.05H77.74c-6.67 0-12.57-2.67-16.95-7.05-4.38-4.38-7.05-10.28-7.05-16.95V23.99c0-6.66 2.67-12.56 7.05-16.94C65.17 2.66 71.27 0 77.74 0H320.4c3.2 0 8.28 1.43 10.28 3.43l123.96 125.48c2.1 2.1 3.62 4.95 3.62 8.19 0 .95-.19 1.71-.38 2.67v343.87zM333.45 115.39l-1.91-75.28 87.87 89.01-75.59-3.36c-6.01 0-10.37-4.33-10.37-10.37z"/><path fill="red" d="M27.95 192.84h456.1c15.37 0 27.95 12.59 27.95 27.95v187.93c0 15.35-12.59 27.95-27.95 27.95H27.95C12.59 436.67 0 424.09 0 408.72V220.79c0-15.37 12.58-27.95 27.95-27.95z"/><path fill="#fff" fill-rule="nonzero" d="M51.26 249.07h42.41l29.6 94.55 29.17-94.55h41.18l-48.77 131.36h-43.97L51.26 249.07zm148.57 87.91 38.53-2.41c.82 6.23 2.53 11 5.1 14.24 4.19 5.3 10.16 7.96 17.92 7.96 5.78 0 10.25-1.35 13.36-4.07 3.15-2.72 4.71-5.87 4.71-9.45 0-3.39-1.46-6.45-4.43-9.14-2.97-2.69-9.88-5.2-20.73-7.61-17.8-3.98-30.46-9.3-38.04-15.94-7.64-6.6-11.46-15.04-11.46-25.31 0-6.73 1.95-13.09 5.86-19.08 3.92-6.03 9.79-10.74 17.65-14.16 7.86-3.43 18.62-5.14 32.29-5.14 16.78 0 29.56 3.12 38.37 9.39 8.81 6.24 14.04 16.17 15.72 29.81l-38.16 2.26c-1.01-5.96-3.15-10.3-6.39-12.99-3.27-2.72-7.77-4.07-13.49-4.07-4.71 0-8.28 1.01-10.67 3-2.38 1.99-3.58 4.43-3.58 7.31 0 2.08.98 3.94 2.91 5.62 1.86 1.75 6.39 3.34 13.54 4.83 17.74 3.83 30.43 7.71 38.07 11.62 7.68 3.92 13.27 8.75 16.76 14.56 3.48 5.78 5.23 12.26 5.23 19.45 0 8.4-2.33 16.17-6.98 23.29-4.67 7.1-11.16 12.51-19.53 16.18-8.35 3.67-18.87 5.5-31.59 5.5-22.32 0-37.79-4.31-46.38-12.9-8.6-8.59-13.46-19.51-14.59-32.75zm140.01-87.91h60.33c11.86 0 21.49 1.62 28.8 4.83 7.31 3.25 13.37 7.86 18.17 13.89 4.76 6.05 8.22 13.05 10.36 21.06 2.17 8.02 3.24 16.48 3.24 25.44 0 14.04-1.59 24.92-4.8 32.66-3.18 7.74-7.61 14.22-13.3 19.45-5.69 5.23-11.77 8.71-18.28 10.45-8.9 2.39-16.97 3.58-24.19 3.58h-60.33V249.07zm40.55 29.72v71.74h9.96c8.5 0 14.56-.95 18.17-2.81 3.57-1.9 6.39-5.17 8.44-9.85 2.04-4.71 3.05-12.29 3.05-22.81 0-13.91-2.26-23.42-6.81-28.56-4.56-5.14-12.11-7.71-22.66-7.71h-10.15z"/></svg>