<svg id="Layer_1" data-name="Layer 1" xmlns="http://www.w3.org/2000/svg" viewBox="0 0 123.94 122.88"><defs><style>.cls-1,.cls-2{fill-rule:evenodd;}.cls-2{fill:red;}.cls-3{fill:#fff;}</style></defs><title>webp</title><path class="cls-1" d="M103.3,37.31H82.63a8.6,8.6,0,0,1-8.93-8.78V7.6H21.16a.58.58,0,0,0-.41.18.45.45,0,0,0-.19.42V114.68a.65.65,0,0,0,.19.42.48.48,0,0,0,.41.18H102.7c.18,0,.17-.09.26-.18s.34-.28.34-.42V37.31Zm7.54,79.76a5.84,5.84,0,0,1-5.81,5.81H18.82A5.84,5.84,0,0,1,13,117.07V5.81A5.84,5.84,0,0,1,18.82,0H77.56a4.32,4.32,0,0,1,2.49.83l30,30.37a2.83,2.83,0,0,1,.88,2,3.52,3.52,0,0,1-.09.64v83.24ZM80.72,27.93,80.25,9.71l21.27,21.54-18.29-.81a2.42,2.42,0,0,1-2.51-2.51Z"/><path class="cls-2" d="M6.77,46.68h110.4a6.79,6.79,0,0,1,6.77,6.77V98.94a6.79,6.79,0,0,1-6.77,6.76H6.77A6.79,6.79,0,0,1,0,98.94V53.45a6.78,6.78,0,0,1,6.77-6.77Z"/><path class="cls-3" d="M35.51,63.68h8.37L40,88.7H29.51l-1.84-9.21h-.48L25.38,88.7H14.93L11,63.68h8.37l1.88,14h.24l2.88-14h6.13l2.84,14h.24l1.92-14ZM62.2,79.25h-8v3H64v6.4H46.18v-25H63.8l-1,6.4H54.19v3.37h8v5.8Zm5.5,9.45v-25h13q3.6,0,5.14,1.4a5.23,5.23,0,0,1,1.54,4.08,7.38,7.38,0,0,1-1,4.15,4.47,4.47,0,0,1-2.62,1.9v.24q4.84.84,4.84,6.61A7,7,0,0,1,87,86.88a6.23,6.23,0,0,1-4.92,1.82Zm11.13-10H75.71v4.09h3.08c1.13,0,1.69-.68,1.69-2s-.55-2-1.65-2Zm-.6-9.57H75.71v3.73h2.48q1.53,0,1.53-1.86c0-1.25-.5-1.87-1.49-1.87Zm26.69,13.5H99.71v6h-8v-25h12.61q8.61,0,8.61,9.25,0,5.08-2.25,7.52A6.61,6.61,0,0,1,108.36,82a8.69,8.69,0,0,1-3.44.64ZM99.71,70.08v6.17h1.85a5.41,5.41,0,0,0,2.1-.3q.66-.3.66-1.38v-2.8c0-.72-.22-1.19-.66-1.39a5.41,5.41,0,0,0-2.1-.3Z"/></svg>