<svg xmlns="http://www.w3.org/2000/svg" shape-rendering="geometricPrecision" text-rendering="geometricPrecision" image-rendering="optimizeQuality" fill-rule="evenodd" clip-rule="evenodd" viewBox="0 0 512 507.64"><path d="M426.74 154.12h-85.39c-21.05 0-36.87-15.18-36.87-36.26V31.38H87.42c-.76 0-1.34.38-1.72.76-.57.39-.76.96-.76 1.72v439.92c0 .57.38 1.33.76 1.71.38.57 1.14.76 1.72.76h336.84c.76 0 .72-.38 1.1-.76.57-.38 1.38-1.14 1.38-1.71V154.12zm31.14 329.52c0 6.67-2.67 12.57-7.04 16.95-4.38 4.38-10.29 7.05-16.95 7.05H77.74c-6.67 0-12.57-2.67-16.95-7.05-4.38-4.38-7.05-10.28-7.05-16.95V23.99c0-6.66 2.67-12.56 7.05-16.94C65.17 2.66 71.27 0 77.74 0H320.4c3.2 0 8.28 1.43 10.28 3.43l123.96 125.48c2.1 2.09 3.62 4.95 3.62 8.19 0 .95-.19 1.71-.38 2.67v343.87zM333.45 115.39l-1.91-75.28 87.87 89.01-75.59-3.36c-6.01 0-10.37-4.33-10.37-10.37z"/><path fill="red" d="M27.95 192.84h456.1c15.37 0 27.95 12.59 27.95 27.95v187.93c0 15.35-12.59 27.95-27.95 27.95H27.95C12.59 436.67 0 424.09 0 408.72V220.79c0-15.37 12.58-27.95 27.95-27.95z"/><path fill="#fff" fill-rule="nonzero" d="M27.69 263.07h36.85l21.72 36.15 21.62-36.15h36.65l-41.7 62.43v44.97H69.54V325.5l-41.85-62.43zm179.41 89.7h-37.59l-5.4 17.7h-33.88l40.43-107.4h36.32l40.25 107.4h-34.75l-5.38-17.7zm-7.02-23.25-11.72-38.6-11.78 38.6h23.5zm57.32-66.45h43.77l16.68 65.35 16.72-65.35h43.57v107.4H351V288.6l-20.95 81.87h-24.6l-20.9-81.87v81.87H257.4v-107.4zm141.87 0h33.15v81h51.89v26.4h-85.04v-107.4z"/></svg>